<?xml version="1.0" encoding="UTF-8" standalone="no"?>
<!DOCTYPE svg PUBLIC "-//W3C//DTD SVG 1.1//EN"
 "http://www.w3.org/Graphics/SVG/1.1/DTD/svg11.dtd">
<!-- Generated by graphviz version 2.40.1 (20161225.0304)
 -->
<!-- Title: include/API.h Pages: 1 -->
<svg width="427pt" height="137pt"
 viewBox="0.00 0.00 427.38 137.00" xmlns="http://www.w3.org/2000/svg" xmlns:xlink="http://www.w3.org/1999/xlink">
<g id="graph0" class="graph" transform="scale(1 1) rotate(0) translate(4 133)">
<title>include/API.h</title>
<polygon fill="#ffffff" stroke="transparent" points="-4,4 -4,-133 423.376,-133 423.376,4 -4,4"/>
<!-- Node5 -->
<g id="node1" class="node">
<title>Node5</title>
<polygon fill="#bfbfbf" stroke="#000000" points="168.1323,-110.5 168.1323,-128.5 243.0581,-128.5 243.0581,-110.5 168.1323,-110.5"/>
<text text-anchor="middle" x="205.5952" y="-116.5" font-family="Helvetica,sans-Serif" font-size="10.00" fill="#000000">include/API.h</text>
</g>
<!-- Node6 -->
<g id="node2" class="node">
<title>Node6</title>
<g id="a_node2"><a xlink:href="$encoders_8h.html" xlink:title="include/encoders.h">
<polygon fill="#ffffff" stroke="#000000" points="13.6226,-55.5 13.6226,-73.5 113.5679,-73.5 113.5679,-55.5 13.6226,-55.5"/>
<text text-anchor="middle" x="63.5952" y="-61.5" font-family="Helvetica,sans-Serif" font-size="10.00" fill="#000000">include/encoders.h</text>
</a>
</g>
</g>
<!-- Node5&#45;&gt;Node6 -->
<g id="edge1" class="edge">
<title>Node5&#45;&gt;Node6</title>
<path fill="none" stroke="#191970" d="M172.6316,-106.7324C146.4294,-96.5837 110.4209,-82.6367 87.0785,-73.5956"/>
<polygon fill="#191970" stroke="#191970" points="171.5577,-110.0698 182.1468,-110.4179 174.086,-103.5423 171.5577,-110.0698"/>
</g>
<!-- Node7 -->
<g id="node3" class="node">
<title>Node7</title>
<g id="a_node3"><a xlink:href="$init_8c.html" xlink:title="File for initialization code. ">
<polygon fill="#ffffff" stroke="#000000" points="15.2603,-.5 15.2603,-18.5 67.9302,-18.5 67.9302,-.5 15.2603,-.5"/>
<text text-anchor="middle" x="41.5952" y="-6.5" font-family="Helvetica,sans-Serif" font-size="10.00" fill="#000000">src/init.c</text>
</a>
</g>
</g>
<!-- Node5&#45;&gt;Node7 -->
<g id="edge11" class="edge">
<title>Node5&#45;&gt;Node7</title>
<path fill="none" stroke="#191970" d="M157.5884,-115.4189C104.3262,-109.7791 23.386,-97.5199 4.5952,-74 -9.8285,-55.9462 14.008,-31.605 29.6521,-18.5956"/>
<polygon fill="#191970" stroke="#191970" points="157.5429,-118.9322 167.8452,-116.46 158.2498,-111.968 157.5429,-118.9322"/>
</g>
<!-- Node8 -->
<g id="node4" class="node">
<title>Node8</title>
<g id="a_node4"><a xlink:href="$lcd_8h.html" xlink:title="LCD wrapper functions and macros. ">
<polygon fill="#ffffff" stroke="#000000" points="267.7998,-55.5 267.7998,-73.5 339.3906,-73.5 339.3906,-55.5 267.7998,-55.5"/>
<text text-anchor="middle" x="303.5952" y="-61.5" font-family="Helvetica,sans-Serif" font-size="10.00" fill="#000000">include/lcd.h</text>
</a>
</g>
</g>
<!-- Node5&#45;&gt;Node8 -->
<g id="edge3" class="edge">
<title>Node5&#45;&gt;Node8</title>
<path fill="none" stroke="#191970" d="M230.5266,-105.5079C248.3848,-95.4854 271.9176,-82.2783 287.3885,-73.5956"/>
<polygon fill="#191970" stroke="#191970" points="228.7855,-102.4715 221.7779,-110.4179 232.2114,-108.5758 228.7855,-102.4715"/>
</g>
<!-- Node9 -->
<g id="node5" class="node">
<title>Node9</title>
<g id="a_node5"><a xlink:href="$menu_8h.html" xlink:title="include/menu.h">
<polygon fill="#ffffff" stroke="#000000" points="261.6841,-.5 261.6841,-18.5 345.5064,-18.5 345.5064,-.5 261.6841,-.5"/>
<text text-anchor="middle" x="303.5952" y="-6.5" font-family="Helvetica,sans-Serif" font-size="10.00" fill="#000000">include/menu.h</text>
</a>
</g>
</g>
<!-- Node5&#45;&gt;Node9 -->
<g id="edge9" class="edge">
<title>Node5&#45;&gt;Node9</title>
<path fill="none" stroke="#191970" d="M219.3448,-101.8892C229.8037,-88.7129 244.7145,-70.3908 258.5952,-55 270.3518,-41.9645 284.7377,-27.6878 294.0291,-18.6675"/>
<polygon fill="#191970" stroke="#191970" points="216.323,-100.0691 212.8826,-110.0898 221.8211,-104.4017 216.323,-100.0691"/>
</g>
<!-- Node10 -->
<g id="node6" class="node">
<title>Node10</title>
<g id="a_node6"><a xlink:href="$main_8h.html" xlink:title="Header file for global functions. ">
<polygon fill="#ffffff" stroke="#000000" points="131.354,-55.5 131.354,-73.5 211.8364,-73.5 211.8364,-55.5 131.354,-55.5"/>
<text text-anchor="middle" x="171.5952" y="-61.5" font-family="Helvetica,sans-Serif" font-size="10.00" fill="#000000">include/main.h</text>
</a>
</g>
</g>
<!-- Node5&#45;&gt;Node10 -->
<g id="edge5" class="edge">
<title>Node5&#45;&gt;Node10</title>
<path fill="none" stroke="#191970" d="M194.6876,-101.8553C188.9161,-92.519 182.0648,-81.4361 177.3316,-73.7795"/>
<polygon fill="#191970" stroke="#191970" points="191.7455,-103.7523 199.9808,-110.4179 197.6996,-100.0715 191.7455,-103.7523"/>
</g>
<!-- Node13 -->
<g id="node9" class="node">
<title>Node13</title>
<g id="a_node9"><a xlink:href="$drive_8c.html" xlink:title="src/drive.c">
<polygon fill="#ffffff" stroke="#000000" points="357.8145,-55.5 357.8145,-73.5 419.376,-73.5 419.376,-55.5 357.8145,-55.5"/>
<text text-anchor="middle" x="388.5952" y="-61.5" font-family="Helvetica,sans-Serif" font-size="10.00" fill="#000000">src/drive.c</text>
</a>
</g>
</g>
<!-- Node5&#45;&gt;Node13 -->
<g id="edge10" class="edge">
<title>Node5&#45;&gt;Node13</title>
<path fill="none" stroke="#191970" d="M245.4561,-107.52C279.5198,-97.2822 327.7798,-82.7779 358.6358,-73.5042"/>
<polygon fill="#191970" stroke="#191970" points="244.3834,-104.1876 235.8139,-110.4179 246.3982,-110.8914 244.3834,-104.1876"/>
</g>
<!-- Node6&#45;&gt;Node7 -->
<g id="edge2" class="edge">
<title>Node6&#45;&gt;Node7</title>
<path fill="none" stroke="#191970" d="M56.1853,-45.9751C52.5271,-36.8297 48.274,-26.1969 45.307,-18.7795"/>
<polygon fill="#191970" stroke="#191970" points="52.9987,-47.433 59.9624,-55.4179 59.4981,-44.8332 52.9987,-47.433"/>
</g>
<!-- Node8&#45;&gt;Node9 -->
<g id="edge4" class="edge">
<title>Node8&#45;&gt;Node9</title>
<path fill="none" stroke="#191970" d="M303.5952,-45.383C303.5952,-36.3738 303.5952,-26.0373 303.5952,-18.7795"/>
<polygon fill="#191970" stroke="#191970" points="300.0953,-45.4178 303.5952,-55.4179 307.0953,-45.4179 300.0953,-45.4178"/>
</g>
<!-- Node10&#45;&gt;Node7 -->
<g id="edge7" class="edge">
<title>Node10&#45;&gt;Node7</title>
<path fill="none" stroke="#191970" d="M140.7811,-51.4633C116.8493,-41.3383 84.2755,-27.5571 63.094,-18.5956"/>
<polygon fill="#191970" stroke="#191970" points="139.5549,-54.7448 150.1284,-55.4179 142.2824,-48.298 139.5549,-54.7448"/>
</g>
<!-- Node11 -->
<g id="node7" class="node">
<title>Node11</title>
<g id="a_node7"><a xlink:href="$auto_8c.html" xlink:title="File for autonomous code. ">
<polygon fill="#ffffff" stroke="#000000" points="85.9204,-.5 85.9204,-18.5 145.27,-18.5 145.27,-.5 85.9204,-.5"/>
<text text-anchor="middle" x="115.5952" y="-6.5" font-family="Helvetica,sans-Serif" font-size="10.00" fill="#000000">src/auto.c</text>
</a>
</g>
</g>
<!-- Node10&#45;&gt;Node11 -->
<g id="edge6" class="edge">
<title>Node10&#45;&gt;Node11</title>
<path fill="none" stroke="#191970" d="M155.0998,-48.2992C145.3086,-38.6828 133.2453,-26.8349 125.0434,-18.7795"/>
<polygon fill="#191970" stroke="#191970" points="152.761,-50.9078 162.348,-55.4179 157.6659,-45.9137 152.761,-50.9078"/>
</g>
<!-- Node12 -->
<g id="node8" class="node">
<title>Node12</title>
<g id="a_node8"><a xlink:href="$opcontrol_8c.html" xlink:title="File for operator control code. ">
<polygon fill="#ffffff" stroke="#000000" points="163.083,-.5 163.083,-18.5 244.1074,-18.5 244.1074,-.5 163.083,-.5"/>
<text text-anchor="middle" x="203.5952" y="-6.5" font-family="Helvetica,sans-Serif" font-size="10.00" fill="#000000">src/opcontrol.c</text>
</a>
</g>
</g>
<!-- Node10&#45;&gt;Node12 -->
<g id="edge8" class="edge">
<title>Node10&#45;&gt;Node12</title>
<path fill="none" stroke="#191970" d="M182.0313,-46.563C187.4274,-37.2885 193.7879,-26.3564 198.1963,-18.7795"/>
<polygon fill="#191970" stroke="#191970" points="178.8831,-45.0142 176.8794,-55.4179 184.9336,-48.5345 178.8831,-45.0142"/>
</g>
</g>
</svg>
