<?xml version="1.0" encoding="UTF-8" standalone="no"?>
<!DOCTYPE svg PUBLIC "-//W3C//DTD SVG 1.1//EN"
 "http://www.w3.org/Graphics/SVG/1.1/DTD/svg11.dtd">
<!-- Generated by graphviz version 2.40.1 (20161225.0304)
 -->
<!-- Title: src/auto.c Pages: 1 -->
<svg width="266pt" height="192pt"
 viewBox="0.00 0.00 265.96 192.00" xmlns="http://www.w3.org/2000/svg" xmlns:xlink="http://www.w3.org/1999/xlink">
<g id="graph0" class="graph" transform="scale(1 1) rotate(0) translate(4 188)">
<title>src/auto.c</title>
<polygon fill="#ffffff" stroke="transparent" points="-4,4 -4,-188 261.9629,-188 261.9629,4 -4,4"/>
<!-- Node67 -->
<g id="node1" class="node">
<title>Node67</title>
<polygon fill="#bfbfbf" stroke="#000000" points="100.1675,-165.5 100.1675,-183.5 159.5171,-183.5 159.5171,-165.5 100.1675,-165.5"/>
<text text-anchor="middle" x="129.8423" y="-171.5" font-family="Helvetica,sans-Serif" font-size="10.00" fill="#000000">src/auto.c</text>
</g>
<!-- Node68 -->
<g id="node2" class="node">
<title>Node68</title>
<g id="a_node2"><a xlink:href="$main_8h.html" xlink:title="Header file for global functions. ">
<polygon fill="#ffffff" stroke="#000000" points="106.835,-110.5 106.835,-128.5 152.8496,-128.5 152.8496,-110.5 106.835,-110.5"/>
<text text-anchor="middle" x="129.8423" y="-116.5" font-family="Helvetica,sans-Serif" font-size="10.00" fill="#000000">main.h</text>
</a>
</g>
</g>
<!-- Node67&#45;&gt;Node68 -->
<g id="edge1" class="edge">
<title>Node67&#45;&gt;Node68</title>
<path fill="none" stroke="#191970" d="M129.8423,-165.4179C129.8423,-158.2164 129.8423,-147.8962 129.8423,-138.8632"/>
<polygon fill="#191970" stroke="#191970" points="133.3424,-138.7794 129.8423,-128.7795 126.3424,-138.7795 133.3424,-138.7794"/>
</g>
<!-- Node69 -->
<g id="node3" class="node">
<title>Node69</title>
<g id="a_node3"><a xlink:href="$_a_p_i_8h.html" xlink:title="Provides the high&#45;level user functionality intended for use by typical VEX Cortex programmers...">
<polygon fill="#ffffff" stroke="#000000" points="109.6133,-55.5 109.6133,-73.5 150.0713,-73.5 150.0713,-55.5 109.6133,-55.5"/>
<text text-anchor="middle" x="129.8423" y="-61.5" font-family="Helvetica,sans-Serif" font-size="10.00" fill="#000000">API.h</text>
</a>
</g>
</g>
<!-- Node68&#45;&gt;Node69 -->
<g id="edge2" class="edge">
<title>Node68&#45;&gt;Node69</title>
<path fill="none" stroke="#191970" d="M129.8423,-110.4179C129.8423,-103.2164 129.8423,-92.8962 129.8423,-83.8632"/>
<polygon fill="#191970" stroke="#191970" points="133.3424,-83.7794 129.8423,-73.7795 126.3424,-83.7795 133.3424,-83.7794"/>
</g>
<!-- Node70 -->
<g id="node4" class="node">
<title>Node70</title>
<polygon fill="#ffffff" stroke="#bfbfbf" points="0,-.5 0,-18.5 47.6846,-18.5 47.6846,-.5 0,-.5"/>
<text text-anchor="middle" x="23.8423" y="-6.5" font-family="Helvetica,sans-Serif" font-size="10.00" fill="#000000">stdlib.h</text>
</g>
<!-- Node69&#45;&gt;Node70 -->
<g id="edge3" class="edge">
<title>Node69&#45;&gt;Node70</title>
<path fill="none" stroke="#191970" d="M112.3385,-55.4179C95.4603,-46.6603 69.6935,-33.2907 50.3087,-23.2326"/>
<polygon fill="#191970" stroke="#191970" points="51.8603,-20.0946 41.372,-18.5956 48.6363,-26.308 51.8603,-20.0946"/>
</g>
<!-- Node71 -->
<g id="node5" class="node">
<title>Node71</title>
<polygon fill="#ffffff" stroke="#bfbfbf" points="65.5493,-.5 65.5493,-18.5 122.1353,-18.5 122.1353,-.5 65.5493,-.5"/>
<text text-anchor="middle" x="93.8423" y="-6.5" font-family="Helvetica,sans-Serif" font-size="10.00" fill="#000000">stdbool.h</text>
</g>
<!-- Node69&#45;&gt;Node71 -->
<g id="edge4" class="edge">
<title>Node69&#45;&gt;Node71</title>
<path fill="none" stroke="#191970" d="M123.8976,-55.4179C118.9249,-47.8207 111.6804,-36.7527 105.5499,-27.3866"/>
<polygon fill="#191970" stroke="#191970" points="108.3212,-25.2297 99.9161,-18.7795 102.4643,-29.0633 108.3212,-25.2297"/>
</g>
<!-- Node72 -->
<g id="node6" class="node">
<title>Node72</title>
<polygon fill="#ffffff" stroke="#bfbfbf" points="139.7759,-.5 139.7759,-18.5 191.9087,-18.5 191.9087,-.5 139.7759,-.5"/>
<text text-anchor="middle" x="165.8423" y="-6.5" font-family="Helvetica,sans-Serif" font-size="10.00" fill="#000000">stdarg.h</text>
</g>
<!-- Node69&#45;&gt;Node72 -->
<g id="edge5" class="edge">
<title>Node69&#45;&gt;Node72</title>
<path fill="none" stroke="#191970" d="M135.787,-55.4179C140.7597,-47.8207 148.0042,-36.7527 154.1347,-27.3866"/>
<polygon fill="#191970" stroke="#191970" points="157.2203,-29.0633 159.7685,-18.7795 151.3634,-25.2297 157.2203,-29.0633"/>
</g>
<!-- Node73 -->
<g id="node7" class="node">
<title>Node73</title>
<polygon fill="#ffffff" stroke="#bfbfbf" points="209.7217,-.5 209.7217,-18.5 257.9629,-18.5 257.9629,-.5 209.7217,-.5"/>
<text text-anchor="middle" x="233.8423" y="-6.5" font-family="Helvetica,sans-Serif" font-size="10.00" fill="#000000">stdint.h</text>
</g>
<!-- Node69&#45;&gt;Node73 -->
<g id="edge6" class="edge">
<title>Node69&#45;&gt;Node73</title>
<path fill="none" stroke="#191970" d="M147.0158,-55.4179C163.5002,-46.7001 188.6265,-33.4122 207.6155,-23.3699"/>
<polygon fill="#191970" stroke="#191970" points="209.4396,-26.3646 216.6433,-18.5956 206.1671,-20.1767 209.4396,-26.3646"/>
</g>
</g>
</svg>
