<?xml version="1.0" encoding="UTF-8" standalone="no"?>
<!DOCTYPE svg PUBLIC "-//W3C//DTD SVG 1.1//EN"
 "http://www.w3.org/Graphics/SVG/1.1/DTD/svg11.dtd">
<!-- Generated by graphviz version 2.40.1 (20161225.0304)
 -->
<!-- Title: src/init.c Pages: 1 -->
<svg width="266pt" height="192pt"
 viewBox="0.00 0.00 265.96 192.00" xmlns="http://www.w3.org/2000/svg" xmlns:xlink="http://www.w3.org/1999/xlink">
<g id="graph0" class="graph" transform="scale(1 1) rotate(0) translate(4 188)">
<title>src/init.c</title>
<polygon fill="#ffffff" stroke="transparent" points="-4,4 -4,-188 261.9629,-188 261.9629,4 -4,4"/>
<!-- Node86 -->
<g id="node1" class="node">
<title>Node86</title>
<polygon fill="#bfbfbf" stroke="#000000" points="103.5073,-165.5 103.5073,-183.5 156.1772,-183.5 156.1772,-165.5 103.5073,-165.5"/>
<text text-anchor="middle" x="129.8423" y="-171.5" font-family="Helvetica,sans-Serif" font-size="10.00" fill="#000000">src/init.c</text>
</g>
<!-- Node87 -->
<g id="node2" class="node">
<title>Node87</title>
<g id="a_node2"><a xlink:href="$main_8h.html" xlink:title="Header file for global functions. ">
<polygon fill="#ffffff" stroke="#000000" points="55.835,-110.5 55.835,-128.5 101.8496,-128.5 101.8496,-110.5 55.835,-110.5"/>
<text text-anchor="middle" x="78.8423" y="-116.5" font-family="Helvetica,sans-Serif" font-size="10.00" fill="#000000">main.h</text>
</a>
</g>
</g>
<!-- Node86&#45;&gt;Node87 -->
<g id="edge1" class="edge">
<title>Node86&#45;&gt;Node87</title>
<path fill="none" stroke="#191970" d="M121.4207,-165.4179C114.0825,-157.5041 103.2521,-145.8243 94.351,-136.2251"/>
<polygon fill="#191970" stroke="#191970" points="96.8127,-133.7324 87.4469,-128.7795 91.6799,-138.492 96.8127,-133.7324"/>
</g>
<!-- Node88 -->
<g id="node3" class="node">
<title>Node88</title>
<g id="a_node3"><a xlink:href="$_a_p_i_8h.html" xlink:title="Provides the high&#45;level user functionality intended for use by typical VEX Cortex programmers...">
<polygon fill="#ffffff" stroke="#000000" points="109.6133,-55.5 109.6133,-73.5 150.0713,-73.5 150.0713,-55.5 109.6133,-55.5"/>
<text text-anchor="middle" x="129.8423" y="-61.5" font-family="Helvetica,sans-Serif" font-size="10.00" fill="#000000">API.h</text>
</a>
</g>
</g>
<!-- Node86&#45;&gt;Node88 -->
<g id="edge7" class="edge">
<title>Node86&#45;&gt;Node88</title>
<path fill="none" stroke="#191970" d="M129.8423,-165.4982C129.8423,-147.6913 129.8423,-107.6225 129.8423,-83.6515"/>
<polygon fill="#191970" stroke="#191970" points="133.3424,-83.6261 129.8423,-73.6261 126.3424,-83.6262 133.3424,-83.6261"/>
</g>
<!-- Node93 -->
<g id="node8" class="node">
<title>Node93</title>
<g id="a_node8"><a xlink:href="$encoders_8h.html" xlink:title="encoders.h">
<polygon fill="#ffffff" stroke="#000000" points="158.1035,-110.5 158.1035,-128.5 223.5811,-128.5 223.5811,-110.5 158.1035,-110.5"/>
<text text-anchor="middle" x="190.8423" y="-116.5" font-family="Helvetica,sans-Serif" font-size="10.00" fill="#000000">encoders.h</text>
</a>
</g>
</g>
<!-- Node86&#45;&gt;Node93 -->
<g id="edge8" class="edge">
<title>Node86&#45;&gt;Node93</title>
<path fill="none" stroke="#191970" d="M139.9152,-165.4179C148.8678,-157.3458 162.1661,-145.3556 172.9286,-135.6517"/>
<polygon fill="#191970" stroke="#191970" points="175.4674,-138.0753 180.5505,-128.7795 170.7799,-132.8764 175.4674,-138.0753"/>
</g>
<!-- Node87&#45;&gt;Node88 -->
<g id="edge2" class="edge">
<title>Node87&#45;&gt;Node88</title>
<path fill="none" stroke="#191970" d="M87.2639,-110.4179C94.6021,-102.5041 105.4325,-90.8243 114.3336,-81.2251"/>
<polygon fill="#191970" stroke="#191970" points="117.0047,-83.492 121.2377,-73.7795 111.8718,-78.7324 117.0047,-83.492"/>
</g>
<!-- Node89 -->
<g id="node4" class="node">
<title>Node89</title>
<polygon fill="#ffffff" stroke="#bfbfbf" points="0,-.5 0,-18.5 47.6846,-18.5 47.6846,-.5 0,-.5"/>
<text text-anchor="middle" x="23.8423" y="-6.5" font-family="Helvetica,sans-Serif" font-size="10.00" fill="#000000">stdlib.h</text>
</g>
<!-- Node88&#45;&gt;Node89 -->
<g id="edge3" class="edge">
<title>Node88&#45;&gt;Node89</title>
<path fill="none" stroke="#191970" d="M112.3385,-55.4179C95.4603,-46.6603 69.6935,-33.2907 50.3087,-23.2326"/>
<polygon fill="#191970" stroke="#191970" points="51.8603,-20.0946 41.372,-18.5956 48.6363,-26.308 51.8603,-20.0946"/>
</g>
<!-- Node90 -->
<g id="node5" class="node">
<title>Node90</title>
<polygon fill="#ffffff" stroke="#bfbfbf" points="65.5493,-.5 65.5493,-18.5 122.1353,-18.5 122.1353,-.5 65.5493,-.5"/>
<text text-anchor="middle" x="93.8423" y="-6.5" font-family="Helvetica,sans-Serif" font-size="10.00" fill="#000000">stdbool.h</text>
</g>
<!-- Node88&#45;&gt;Node90 -->
<g id="edge4" class="edge">
<title>Node88&#45;&gt;Node90</title>
<path fill="none" stroke="#191970" d="M123.8976,-55.4179C118.9249,-47.8207 111.6804,-36.7527 105.5499,-27.3866"/>
<polygon fill="#191970" stroke="#191970" points="108.3212,-25.2297 99.9161,-18.7795 102.4643,-29.0633 108.3212,-25.2297"/>
</g>
<!-- Node91 -->
<g id="node6" class="node">
<title>Node91</title>
<polygon fill="#ffffff" stroke="#bfbfbf" points="139.7759,-.5 139.7759,-18.5 191.9087,-18.5 191.9087,-.5 139.7759,-.5"/>
<text text-anchor="middle" x="165.8423" y="-6.5" font-family="Helvetica,sans-Serif" font-size="10.00" fill="#000000">stdarg.h</text>
</g>
<!-- Node88&#45;&gt;Node91 -->
<g id="edge5" class="edge">
<title>Node88&#45;&gt;Node91</title>
<path fill="none" stroke="#191970" d="M135.787,-55.4179C140.7597,-47.8207 148.0042,-36.7527 154.1347,-27.3866"/>
<polygon fill="#191970" stroke="#191970" points="157.2203,-29.0633 159.7685,-18.7795 151.3634,-25.2297 157.2203,-29.0633"/>
</g>
<!-- Node92 -->
<g id="node7" class="node">
<title>Node92</title>
<polygon fill="#ffffff" stroke="#bfbfbf" points="209.7217,-.5 209.7217,-18.5 257.9629,-18.5 257.9629,-.5 209.7217,-.5"/>
<text text-anchor="middle" x="233.8423" y="-6.5" font-family="Helvetica,sans-Serif" font-size="10.00" fill="#000000">stdint.h</text>
</g>
<!-- Node88&#45;&gt;Node92 -->
<g id="edge6" class="edge">
<title>Node88&#45;&gt;Node92</title>
<path fill="none" stroke="#191970" d="M147.0158,-55.4179C163.5002,-46.7001 188.6265,-33.4122 207.6155,-23.3699"/>
<polygon fill="#191970" stroke="#191970" points="209.4396,-26.3646 216.6433,-18.5956 206.1671,-20.1767 209.4396,-26.3646"/>
</g>
<!-- Node93&#45;&gt;Node88 -->
<g id="edge9" class="edge">
<title>Node93&#45;&gt;Node88</title>
<path fill="none" stroke="#191970" d="M180.7694,-110.4179C171.8168,-102.3458 158.5185,-90.3556 147.756,-80.6517"/>
<polygon fill="#191970" stroke="#191970" points="149.9047,-77.8764 140.134,-73.7795 145.2172,-83.0753 149.9047,-77.8764"/>
</g>
</g>
</svg>
