<?xml version="1.0" encoding="UTF-8" standalone="no"?>
<!DOCTYPE svg PUBLIC "-//W3C//DTD SVG 1.1//EN"
 "http://www.w3.org/Graphics/SVG/1.1/DTD/svg11.dtd">
<!-- Generated by graphviz version 2.40.1 (20161225.0304)
 -->
<!-- Title: taskRunLoop Pages: 1 -->
<svg width="324pt" height="64pt"
 viewBox="0.00 0.00 324.23 64.00" xmlns="http://www.w3.org/2000/svg" xmlns:xlink="http://www.w3.org/1999/xlink">
<g id="graph0" class="graph" transform="scale(1 1) rotate(0) translate(4 60)">
<title>taskRunLoop</title>
<!-- Node288 -->
<g id="node1" class="node">
<title>Node288</title>
<polygon fill="#bfbfbf" stroke="#000000" points="0,-18.5 0,-36.5 74.9307,-36.5 74.9307,-18.5 0,-18.5"/>
<text text-anchor="middle" x="37.4653" y="-24.5" font-family="Helvetica,sans-Serif" font-size="10.00" fill="#000000">taskRunLoop</text>
</g>
<!-- Node289 -->
<g id="node2" class="node">
<title>Node289</title>
<g id="a_node2"><a xlink:href="localization_8c.html#afdd0147de6aa15957e9a125f9cd20578" target="_top" xlink:title="Starts the localization process. ">
<polygon fill="none" stroke="#000000" points="110.9307,-37.5 110.9307,-55.5 194.748,-55.5 194.748,-37.5 110.9307,-37.5"/>
<text text-anchor="middle" x="152.8394" y="-43.5" font-family="Helvetica,sans-Serif" font-size="10.00" fill="#000000">init_localization</text>
</a>
</g>
</g>
<!-- Node288&#45;&gt;Node289 -->
<g id="edge1" class="edge">
<title>Node288&#45;&gt;Node289</title>
<path fill="none" stroke="#191970" d="M85.2872,-35.3754C93.6789,-36.7574 102.3577,-38.1866 110.5846,-39.5414"/>
<polygon fill="#191970" stroke="#191970" points="85.679,-31.8928 75.2431,-33.7213 84.5414,-38.7998 85.679,-31.8928"/>
</g>
<!-- Node291 -->
<g id="node4" class="node">
<title>Node291</title>
<g id="a_node4"><a xlink:href="slew_8c.html#a321758941d88b75783955c819bb75005" target="_top" xlink:title="Initializes the slew rate controller. ">
<polygon fill="none" stroke="#000000" points="125.6646,-.5 125.6646,-18.5 180.0142,-18.5 180.0142,-.5 125.6646,-.5"/>
<text text-anchor="middle" x="152.8394" y="-6.5" font-family="Helvetica,sans-Serif" font-size="10.00" fill="#000000">init_slew</text>
</a>
</g>
</g>
<!-- Node288&#45;&gt;Node291 -->
<g id="edge3" class="edge">
<title>Node288&#45;&gt;Node291</title>
<path fill="none" stroke="#191970" d="M85.506,-20.005C99.1857,-17.8707 113.6103,-15.6203 125.5841,-13.7522"/>
<polygon fill="#191970" stroke="#191970" points="84.584,-16.6064 75.2431,-21.6061 85.6631,-23.5227 84.584,-16.6064"/>
</g>
<!-- Node290 -->
<g id="node3" class="node">
<title>Node290</title>
<g id="a_node3"><a xlink:href="opcontrol_8c.html#ac71a94af413917f27d108e95c4d6f6a7" target="_top" xlink:title="operatorControl">
<polygon fill="none" stroke="#000000" points="230.748,-18.5 230.748,-36.5 316.2305,-36.5 316.2305,-18.5 230.748,-18.5"/>
<text text-anchor="middle" x="273.4893" y="-24.5" font-family="Helvetica,sans-Serif" font-size="10.00" fill="#000000">operatorControl</text>
</a>
</g>
</g>
<!-- Node289&#45;&gt;Node290 -->
<g id="edge2" class="edge">
<title>Node289&#45;&gt;Node290</title>
<path fill="none" stroke="#191970" d="M204.9731,-38.29C213.5621,-36.9374 222.3767,-35.5492 230.7032,-34.238"/>
<polygon fill="#191970" stroke="#191970" points="204.3706,-34.8416 195.0368,-39.8547 205.4596,-41.7564 204.3706,-34.8416"/>
</g>
<!-- Node291&#45;&gt;Node290 -->
<g id="edge4" class="edge">
<title>Node291&#45;&gt;Node290</title>
<path fill="none" stroke="#191970" d="M190.4734,-15.1147C203.1977,-17.0131 217.4988,-19.1467 230.5996,-21.1012"/>
<polygon fill="#191970" stroke="#191970" points="190.6237,-11.5985 180.2167,-13.5845 189.5907,-18.5218 190.6237,-11.5985"/>
</g>
</g>
</svg>
