<?xml version="1.0" encoding="UTF-8" standalone="no"?>
<!DOCTYPE svg PUBLIC "-//W3C//DTD SVG 1.1//EN"
 "http://www.w3.org/Graphics/SVG/1.1/DTD/svg11.dtd">
<!-- Generated by graphviz version 2.40.1 (20161225.0304)
 -->
<!-- Title: lcdClear Pages: 1 -->
<svg width="489pt" height="119pt"
 viewBox="0.00 0.00 488.81 119.00" xmlns="http://www.w3.org/2000/svg" xmlns:xlink="http://www.w3.org/1999/xlink">
<g id="graph0" class="graph" transform="scale(1 1) rotate(0) translate(4 115)">
<title>lcdClear</title>
<!-- Node127 -->
<g id="node1" class="node">
<title>Node127</title>
<polygon fill="#bfbfbf" stroke="#000000" points="0,-55.5 0,-73.5 52.6797,-73.5 52.6797,-55.5 0,-55.5"/>
<text text-anchor="middle" x="26.3398" y="-61.5" font-family="Helvetica,sans-Serif" font-size="10.00" fill="#000000">lcdClear</text>
</g>
<!-- Node128 -->
<g id="node2" class="node">
<title>Node128</title>
<g id="a_node2"><a xlink:href="lcd_8c.html#a93b26f37d6b1687ad54c90feedfd29ca" target="_top" xlink:title="Initializes the lcd screen. Also will initialize the lcd_port var. Must be called before any lcd func...">
<polygon fill="none" stroke="#000000" points="88.6797,-92.5 88.6797,-110.5 163.0439,-110.5 163.0439,-92.5 88.6797,-92.5"/>
<text text-anchor="middle" x="125.8618" y="-98.5" font-family="Helvetica,sans-Serif" font-size="10.00" fill="#000000">init_main_lcd</text>
</a>
</g>
</g>
<!-- Node127&#45;&gt;Node128 -->
<g id="edge1" class="edge">
<title>Node127&#45;&gt;Node128</title>
<path fill="none" stroke="#191970" d="M60.1654,-77.0756C73.7021,-82.1082 88.9979,-87.7948 101.4224,-92.414"/>
<polygon fill="#191970" stroke="#191970" points="61.2785,-73.7554 50.6857,-73.5512 58.8392,-80.3166 61.2785,-73.7554"/>
</g>
<!-- Node130 -->
<g id="node4" class="node">
<title>Node130</title>
<g id="a_node4"><a xlink:href="lcd_8c.html#a35c08b1fa742e650f4873939707b893b" target="_top" xlink:title="Clears the lcd. ">
<polygon fill="none" stroke="#000000" points="97.8521,-55.5 97.8521,-73.5 153.8716,-73.5 153.8716,-55.5 97.8521,-55.5"/>
<text text-anchor="middle" x="125.8618" y="-61.5" font-family="Helvetica,sans-Serif" font-size="10.00" fill="#000000">lcd_clear</text>
</a>
</g>
</g>
<!-- Node127&#45;&gt;Node130 -->
<g id="edge3" class="edge">
<title>Node127&#45;&gt;Node130</title>
<path fill="none" stroke="#191970" d="M62.9018,-64.5C74.3484,-64.5 86.7993,-64.5 97.5841,-64.5"/>
<polygon fill="#191970" stroke="#191970" points="62.7487,-61.0001 52.7486,-64.5 62.7486,-68.0001 62.7487,-61.0001"/>
</g>
<!-- Node131 -->
<g id="node5" class="node">
<title>Node131</title>
<g id="a_node5"><a xlink:href="log_8c.html#afff22aff6749311a684a559cac3ac8bd" target="_top" xlink:title="log_info">
<polygon fill="none" stroke="#000000" points="100.3472,-18.5 100.3472,-36.5 151.3765,-36.5 151.3765,-18.5 100.3472,-18.5"/>
<text text-anchor="middle" x="125.8618" y="-24.5" font-family="Helvetica,sans-Serif" font-size="10.00" fill="#000000">log_info</text>
</a>
</g>
</g>
<!-- Node127&#45;&gt;Node131 -->
<g id="edge4" class="edge">
<title>Node127&#45;&gt;Node131</title>
<path fill="none" stroke="#191970" d="M60.1654,-51.9244C73.7021,-46.8918 88.9979,-41.2052 101.4224,-36.586"/>
<polygon fill="#191970" stroke="#191970" points="58.8392,-48.6834 50.6857,-55.4488 61.2785,-55.2446 58.8392,-48.6834"/>
</g>
<!-- Node129 -->
<g id="node3" class="node">
<title>Node129</title>
<g id="a_node3"><a xlink:href="init_8c.html#a25a40b6614565f755233080a384c35f1" target="_top" xlink:title="initialize">
<polygon fill="none" stroke="#000000" points="199.0439,-92.5 199.0439,-110.5 250.6152,-110.5 250.6152,-92.5 199.0439,-92.5"/>
<text text-anchor="middle" x="224.8296" y="-98.5" font-family="Helvetica,sans-Serif" font-size="10.00" fill="#000000">initialize</text>
</a>
</g>
</g>
<!-- Node128&#45;&gt;Node129 -->
<g id="edge2" class="edge">
<title>Node128&#45;&gt;Node129</title>
<path fill="none" stroke="#191970" d="M173.4204,-101.5C182.1477,-101.5 190.955,-101.5 198.7542,-101.5"/>
<polygon fill="#191970" stroke="#191970" points="173.2773,-98.0001 163.2773,-101.5 173.2773,-105.0001 173.2773,-98.0001"/>
</g>
<!-- Node132 -->
<g id="node6" class="node">
<title>Node132</title>
<g id="a_node6"><a xlink:href="log_8c.html#a8e5bb8a2a372f5b066ff7af7044584c1" target="_top" xlink:title="prints a error message and displays on lcd. Only will print and display if log_level is greater than ...">
<polygon fill="none" stroke="#000000" points="206.2729,-37.5 206.2729,-55.5 243.3862,-55.5 243.3862,-37.5 206.2729,-37.5"/>
<text text-anchor="middle" x="224.8296" y="-43.5" font-family="Helvetica,sans-Serif" font-size="10.00" fill="#000000">error</text>
</a>
</g>
</g>
<!-- Node131&#45;&gt;Node132 -->
<g id="edge5" class="edge">
<title>Node131&#45;&gt;Node132</title>
<path fill="none" stroke="#191970" d="M161.6512,-34.3709C176.6936,-37.2588 193.5685,-40.4984 206.0918,-42.9027"/>
<polygon fill="#191970" stroke="#191970" points="162.0867,-30.8907 151.6061,-32.4424 160.7668,-37.7651 162.0867,-30.8907"/>
</g>
<!-- Node137 -->
<g id="node11" class="node">
<title>Node137</title>
<g id="a_node11"><a xlink:href="log_8c.html#a0bec2cf5fff7f607bc510b74aba9887c" target="_top" xlink:title="prints a warning message and displays on lcd. Only will print and display if log_level is greater tha...">
<polygon fill="none" stroke="#000000" points="199.3198,-.5 199.3198,-18.5 250.3394,-18.5 250.3394,-.5 199.3198,-.5"/>
<text text-anchor="middle" x="224.8296" y="-6.5" font-family="Helvetica,sans-Serif" font-size="10.00" fill="#000000">warning</text>
</a>
</g>
</g>
<!-- Node131&#45;&gt;Node137 -->
<g id="edge10" class="edge">
<title>Node131&#45;&gt;Node137</title>
<path fill="none" stroke="#191970" d="M161.6745,-20.9865C174.1014,-18.7263 187.7764,-16.2391 199.2142,-14.1589"/>
<polygon fill="#191970" stroke="#191970" points="160.8184,-17.5847 151.6061,-22.8177 162.071,-24.4717 160.8184,-17.5847"/>
</g>
<!-- Node133 -->
<g id="node7" class="node">
<title>Node133</title>
<g id="a_node7"><a xlink:href="menu_8c.html#aff4fd27ff7707295d91c67fa52a6b021" target="_top" xlink:title="create_menu">
<polygon fill="none" stroke="#000000" points="286.6152,-37.5 286.6152,-55.5 360.9844,-55.5 360.9844,-37.5 286.6152,-37.5"/>
<text text-anchor="middle" x="323.7998" y="-43.5" font-family="Helvetica,sans-Serif" font-size="10.00" fill="#000000">create_menu</text>
</a>
</g>
</g>
<!-- Node132&#45;&gt;Node133 -->
<g id="edge6" class="edge">
<title>Node132&#45;&gt;Node133</title>
<path fill="none" stroke="#191970" d="M253.5204,-46.5C263.788,-46.5 275.5155,-46.5 286.4099,-46.5"/>
<polygon fill="#191970" stroke="#191970" points="253.4452,-43.0001 243.4451,-46.5 253.4451,-50.0001 253.4452,-43.0001"/>
</g>
<!-- Node134 -->
<g id="node8" class="node">
<title>Node134</title>
<g id="a_node8"><a xlink:href="menu_8c.html#a3529988b0a7c12cb3f2ebb3cf5595594" target="_top" xlink:title="Creates a menu context, but does not display. &#160;Menu must be freed or will cause memory leak &#160;...">
<polygon fill="none" stroke="#000000" points="399.4893,-74.5 399.4893,-92.5 478.3018,-92.5 478.3018,-74.5 399.4893,-74.5"/>
<text text-anchor="middle" x="438.8955" y="-80.5" font-family="Helvetica,sans-Serif" font-size="10.00" fill="#000000">init_menu_var</text>
</a>
</g>
</g>
<!-- Node133&#45;&gt;Node134 -->
<g id="edge7" class="edge">
<title>Node133&#45;&gt;Node134</title>
<path fill="none" stroke="#191970" d="M361.556,-58.6375C377.5404,-63.7761 395.8444,-69.6603 410.6317,-74.414"/>
<polygon fill="#191970" stroke="#191970" points="362.5467,-55.2797 351.9554,-55.5512 360.4044,-61.9438 362.5467,-55.2797"/>
</g>
<!-- Node135 -->
<g id="node9" class="node">
<title>Node135</title>
<g id="a_node9"><a xlink:href="menu_8c.html#ac8efedba760ec35ebf841ab19543ba5a" target="_top" xlink:title="Creates a menu context, but does not display. &#160;Menu must be freed or will cause memory leak &#160;...">
<polygon fill="none" stroke="#000000" points="401.1543,-37.5 401.1543,-55.5 476.6367,-55.5 476.6367,-37.5 401.1543,-37.5"/>
<text text-anchor="middle" x="438.8955" y="-43.5" font-family="Helvetica,sans-Serif" font-size="10.00" fill="#000000">init_menu_int</text>
</a>
</g>
</g>
<!-- Node133&#45;&gt;Node135 -->
<g id="edge8" class="edge">
<title>Node133&#45;&gt;Node135</title>
<path fill="none" stroke="#191970" d="M371.2671,-46.5C381.1491,-46.5 391.4404,-46.5 400.9261,-46.5"/>
<polygon fill="#191970" stroke="#191970" points="371.1681,-43.0001 361.1681,-46.5 371.168,-50.0001 371.1681,-43.0001"/>
</g>
<!-- Node136 -->
<g id="node10" class="node">
<title>Node136</title>
<g id="a_node10"><a xlink:href="menu_8c.html#a5abb752733423805f59ef3b92e3c2e57" target="_top" xlink:title="Creates a menu context, but does not display. &#160;Menu must be freed or will cause memory leak! &#160;...">
<polygon fill="none" stroke="#000000" points="396.9844,-.5 396.9844,-18.5 480.8066,-18.5 480.8066,-.5 396.9844,-.5"/>
<text text-anchor="middle" x="438.8955" y="-6.5" font-family="Helvetica,sans-Serif" font-size="10.00" fill="#000000">init_menu_float</text>
</a>
</g>
</g>
<!-- Node133&#45;&gt;Node136 -->
<g id="edge9" class="edge">
<title>Node133&#45;&gt;Node136</title>
<path fill="none" stroke="#191970" d="M361.556,-34.3625C377.5404,-29.2239 395.8444,-23.3397 410.6317,-18.586"/>
<polygon fill="#191970" stroke="#191970" points="360.4044,-31.0562 351.9554,-37.4488 362.5467,-37.7203 360.4044,-31.0562"/>
</g>
</g>
</svg>
