<?xml version="1.0" encoding="UTF-8" standalone="no"?>
<!DOCTYPE svg PUBLIC "-//W3C//DTD SVG 1.1//EN"
 "http://www.w3.org/Graphics/SVG/1.1/DTD/svg11.dtd">
<!-- Generated by graphviz version 2.40.1 (20161225.0304)
 -->
<!-- Title: mutexTake Pages: 1 -->
<!--zoomable 324 -->
<svg id="main" version="1.1" xmlns="http://www.w3.org/2000/svg" xmlns:xlink="http://www.w3.org/1999/xlink" xml:space="preserve" onload="init(evt)">
<style type="text/css"><![CDATA[
.edge:hover path { stroke: red; }
.edge:hover polygon { stroke: red; fill: red; }
]]></style>
<script type="text/javascript"><![CDATA[
var edges = document.getElementsByTagName('g');
if (edges && edges.length) {
  for (var i=0;i<edges.length;i++) {
    if (edges[i].id.substr(0,4)=='edge') {
      edges[i].setAttribute('class','edge');
    }
  }
}
]]></script>
        <defs>
                <circle id="rim" cx="0" cy="0" r="7"/>
                <circle id="rim2" cx="0" cy="0" r="3.5"/>
                <g id="zoomPlus">
                        <use xlink:href="#rim" fill="#404040">
                                <set attributeName="fill" to="#808080" begin="zoomplus.mouseover" end="zoomplus.mouseout"/>
                        </use>
                        <path d="M-4,0h8M0,-4v8" fill="none" stroke="white" stroke-width="1.5" pointer-events="none"/>
                </g>
                <g id="zoomMin">
                        <use xlink:href="#rim" fill="#404040">
                                <set attributeName="fill" to="#808080" begin="zoomminus.mouseover" end="zoomminus.mouseout"/>
                        </use>
                        <path d="M-4,0h8" fill="none" stroke="white" stroke-width="1.5" pointer-events="none"/>
                </g>
                <g id="dirArrow">
                        <path fill="none" stroke="white" stroke-width="1.5" d="M0,-3.0v7 M-2.5,-0.5L0,-3.0L2.5,-0.5"/>
                </g>
               <g id="resetDef">
                       <use xlink:href="#rim2" fill="#404040">
                               <set attributeName="fill" to="#808080" begin="reset.mouseover" end="reset.mouseout"/>
                       </use>
               </g>
        </defs>

<script type="text/javascript">
var viewWidth = 928;
var viewHeight = 324;
var sectionId = 'dynsection-24';
</script>
<script xlink:href="svgpan.js"/>
<svg id="graph" class="graph">
<g id="viewport">
<title>mutexTake</title>
<!-- Node293 -->
<g id="node1" class="node">
<title>Node293</title>
<polygon fill="#bfbfbf" stroke="#000000" points="0,-118.0146 0,-136.0146 64.3545,-136.0146 64.3545,-118.0146 0,-118.0146"/>
<text text-anchor="middle" x="32.1772" y="-124.0146" font-family="Helvetica,sans-Serif" font-size="10.00" fill="#000000">mutexTake</text>
</g>
<!-- Node294 -->
<g id="node2" class="node">
<title>Node294</title>
<g id="a_node2"><a xlink:href="slew_8c.html#a9f8b8ae577ef938622024545711f0151" target="_top" xlink:title="set_motor_immediate">
<polygon fill="none" stroke="#000000" points="303.8516,-203.0146 303.8516,-221.0146 416.0039,-221.0146 416.0039,-203.0146 303.8516,-203.0146"/>
<text text-anchor="middle" x="359.9277" y="-209.0146" font-family="Helvetica,sans-Serif" font-size="10.00" fill="#000000">set_motor_immediate</text>
</a>
</g>
</g>
<!-- Node293&#45;&gt;Node294 -->
<g id="edge1" class="edge">
<title>Node293&#45;&gt;Node294</title>
<path fill="none" stroke="#191970" d="M74.2984,-138.1743C82.9158,-140.4464 91.9261,-142.8142 100.3545,-145.0146 180.5123,-165.941 274.6938,-190.1584 324.6443,-202.9732"/>
<polygon fill="#191970" stroke="#191970" points="74.9832,-134.7352 64.421,-135.5666 73.1963,-141.5033 74.9832,-134.7352"/>
</g>
<!-- Node303 -->
<g id="node11" class="node">
<title>Node303</title>
<g id="a_node11"><a xlink:href="slew_8c.html#a7dff2b79dffe55fb936d977594d7c01d" target="_top" xlink:title="Sets motor speed wrapped inside the slew rate controller. ">
<polygon fill="none" stroke="#000000" points="316.9131,-53.0146 316.9131,-71.0146 402.9424,-71.0146 402.9424,-53.0146 316.9131,-53.0146"/>
<text text-anchor="middle" x="359.9277" y="-59.0146" font-family="Helvetica,sans-Serif" font-size="10.00" fill="#000000">set_motor_slew</text>
</a>
</g>
</g>
<!-- Node293&#45;&gt;Node303 -->
<g id="edge15" class="edge">
<title>Node293&#45;&gt;Node303</title>
<path fill="none" stroke="#191970" d="M71.99,-115.2252C81.2569,-112.6745 91.1156,-110.1155 100.3545,-108.0146 175.7753,-90.8644 264.7407,-76.3108 316.4988,-68.3995"/>
<polygon fill="#191970" stroke="#191970" points="70.9054,-111.8943 62.224,-117.9675 72.7979,-118.6336 70.9054,-111.8943"/>
</g>
<!-- Node310 -->
<g id="node18" class="node">
<title>Node310</title>
<g id="a_node18"><a xlink:href="slew_8c.html#a807a87c5df438fde21c1e8213906695b" target="_top" xlink:title="Closes the distance between the desired motor value and the current motor value by half for each moto...">
<polygon fill="none" stroke="#000000" points="100.3545,-118.0146 100.3545,-136.0146 177.502,-136.0146 177.502,-118.0146 100.3545,-118.0146"/>
<text text-anchor="middle" x="138.9282" y="-124.0146" font-family="Helvetica,sans-Serif" font-size="10.00" fill="#000000">updateMotors</text>
</a>
</g>
</g>
<!-- Node293&#45;&gt;Node310 -->
<g id="edge26" class="edge">
<title>Node293&#45;&gt;Node310</title>
<path fill="none" stroke="#191970" d="M74.6016,-127.0146C83.094,-127.0146 91.9728,-127.0146 100.3274,-127.0146"/>
<polygon fill="#191970" stroke="#191970" points="74.4958,-123.5147 64.4958,-127.0146 74.4957,-130.5147 74.4958,-123.5147"/>
</g>
<!-- Node295 -->
<g id="node3" class="node">
<title>Node295</title>
<g id="a_node3"><a xlink:href="claw_8c.html#a0122b78972344264b8a276a559cfce4a" target="_top" xlink:title="update_claw">
<polygon fill="none" stroke="#000000" points="580.7129,-279.0146 580.7129,-297.0146 652.8652,-297.0146 652.8652,-279.0146 580.7129,-279.0146"/>
<text text-anchor="middle" x="616.7891" y="-285.0146" font-family="Helvetica,sans-Serif" font-size="10.00" fill="#000000">update_claw</text>
</a>
</g>
</g>
<!-- Node294&#45;&gt;Node295 -->
<g id="edge2" class="edge">
<title>Node294&#45;&gt;Node295</title>
<path fill="none" stroke="#191970" d="M426.3441,-221.012C462.0879,-227.0072 506.5471,-236.3419 544.7129,-250.0146 565.7538,-257.5524 588.2776,-270.2607 602.439,-278.8859"/>
<polygon fill="#191970" stroke="#191970" points="426.4607,-217.485 416.0283,-219.3332 425.3362,-224.3941 426.4607,-217.485"/>
</g>
<!-- Node297 -->
<g id="node5" class="node">
<title>Node297</title>
<g id="a_node5"><a xlink:href="claw_8c.html#a03023ca28f671b9fa7bac07782ccd8c1" target="_top" xlink:title="open_claw">
<polygon fill="none" stroke="#000000" points="466.4521,-297.0146 466.4521,-315.0146 530.2646,-315.0146 530.2646,-297.0146 466.4521,-297.0146"/>
<text text-anchor="middle" x="498.3584" y="-303.0146" font-family="Helvetica,sans-Serif" font-size="10.00" fill="#000000">open_claw</text>
</a>
</g>
</g>
<!-- Node294&#45;&gt;Node297 -->
<g id="edge4" class="edge">
<title>Node294&#45;&gt;Node297</title>
<path fill="none" stroke="#191970" d="M376.8658,-228.4183C394.5151,-244.8561 423.5223,-270.0859 452.0039,-287.0146 458.2842,-290.7474 465.4338,-294.0762 472.2061,-296.8643"/>
<polygon fill="#191970" stroke="#191970" points="378.8345,-225.4625 369.1661,-221.1299 374.0225,-230.5462 378.8345,-225.4625"/>
</g>
<!-- Node298 -->
<g id="node6" class="node">
<title>Node298</title>
<g id="a_node6"><a xlink:href="claw_8c.html#ac42dd40dbb37219295286859c6b068c2" target="_top" xlink:title="close_claw">
<polygon fill="none" stroke="#000000" points="465.9028,-260.0146 465.9028,-278.0146 530.814,-278.0146 530.814,-260.0146 465.9028,-260.0146"/>
<text text-anchor="middle" x="498.3584" y="-266.0146" font-family="Helvetica,sans-Serif" font-size="10.00" fill="#000000">close_claw</text>
</a>
</g>
</g>
<!-- Node294&#45;&gt;Node298 -->
<g id="edge6" class="edge">
<title>Node294&#45;&gt;Node298</title>
<path fill="none" stroke="#191970" d="M391.216,-224.8978C417.0503,-235.5353 453.083,-250.3721 476.0679,-259.8363"/>
<polygon fill="#191970" stroke="#191970" points="392.4419,-221.6176 381.8625,-221.0464 389.7767,-228.0903 392.4419,-221.6176"/>
</g>
<!-- Node299 -->
<g id="node7" class="node">
<title>Node299</title>
<g id="a_node7"><a xlink:href="mobile__goal__intake_8c.html#a8f215023832ba515d7b4535e3ae07498" target="_top" xlink:title="set_intake_motor">
<polygon fill="none" stroke="#000000" points="452.0039,-184.0146 452.0039,-202.0146 544.7129,-202.0146 544.7129,-184.0146 452.0039,-184.0146"/>
<text text-anchor="middle" x="498.3584" y="-190.0146" font-family="Helvetica,sans-Serif" font-size="10.00" fill="#000000">set_intake_motor</text>
</a>
</g>
</g>
<!-- Node294&#45;&gt;Node299 -->
<g id="edge8" class="edge">
<title>Node294&#45;&gt;Node299</title>
<path fill="none" stroke="#191970" d="M426.3033,-202.9044C434.9324,-201.72 443.6204,-200.5276 451.8297,-199.4008"/>
<polygon fill="#191970" stroke="#191970" points="425.664,-199.4592 416.2328,-204.2866 426.6159,-206.3942 425.664,-199.4592"/>
</g>
<!-- Node296 -->
<g id="node4" class="node">
<title>Node296</title>
<g id="a_node4"><a xlink:href="opcontrol_8c.html#ac71a94af413917f27d108e95c4d6f6a7" target="_top" xlink:title="operatorControl">
<polygon fill="none" stroke="#000000" points="834.8105,-128.0146 834.8105,-146.0146 920.293,-146.0146 920.293,-128.0146 834.8105,-128.0146"/>
<text text-anchor="middle" x="877.5518" y="-134.0146" font-family="Helvetica,sans-Serif" font-size="10.00" fill="#000000">operatorControl</text>
</a>
</g>
</g>
<!-- Node295&#45;&gt;Node296 -->
<g id="edge3" class="edge">
<title>Node295&#45;&gt;Node296</title>
<path fill="none" stroke="#191970" d="M656.4975,-275.7827C694.7754,-262.9669 753.4141,-240.5809 798.8105,-211.0146 828.0493,-191.9717 856.3674,-161.5364 869.6678,-146.3159"/>
<polygon fill="#191970" stroke="#191970" points="655.1545,-272.5399 646.7475,-278.9875 657.3404,-279.1898 655.1545,-272.5399"/>
</g>
<!-- Node297&#45;&gt;Node295 -->
<g id="edge5" class="edge">
<title>Node297&#45;&gt;Node295</title>
<path fill="none" stroke="#191970" d="M540.5722,-299.5986C553.6373,-297.6129 567.9088,-295.4438 580.5331,-293.5251"/>
<polygon fill="#191970" stroke="#191970" points="539.768,-296.1806 530.4074,-301.1435 540.8199,-303.1011 539.768,-296.1806"/>
</g>
<!-- Node298&#45;&gt;Node295 -->
<g id="edge7" class="edge">
<title>Node298&#45;&gt;Node295</title>
<path fill="none" stroke="#191970" d="M541.0863,-275.8695C553.9896,-277.9396 568.0277,-280.1918 580.4713,-282.1881"/>
<polygon fill="#191970" stroke="#191970" points="541.4618,-272.3851 531.0336,-274.2567 540.3529,-279.2967 541.4618,-272.3851"/>
</g>
<!-- Node300 -->
<g id="node8" class="node">
<title>Node300</title>
<g id="a_node8"><a xlink:href="mobile__goal__intake_8c.html#afa91470a9891e48827fd62d18553c6ce" target="_top" xlink:title="lower_intake">
<polygon fill="none" stroke="#000000" points="580.7178,-203.0146 580.7178,-221.0146 652.8604,-221.0146 652.8604,-203.0146 580.7178,-203.0146"/>
<text text-anchor="middle" x="616.7891" y="-209.0146" font-family="Helvetica,sans-Serif" font-size="10.00" fill="#000000">lower_intake</text>
</a>
</g>
</g>
<!-- Node299&#45;&gt;Node300 -->
<g id="edge9" class="edge">
<title>Node299&#45;&gt;Node300</title>
<path fill="none" stroke="#191970" d="M554.7269,-202.0579C563.5659,-203.4759 572.4898,-204.9076 580.7081,-206.2261"/>
<polygon fill="#191970" stroke="#191970" points="555.2536,-198.5977 544.8254,-200.4694 554.1447,-205.5093 555.2536,-198.5977"/>
</g>
<!-- Node301 -->
<g id="node9" class="node">
<title>Node301</title>
<g id="a_node9"><a xlink:href="mobile__goal__intake_8c.html#ad0232c21c5c1ffda603d2b7d61034118" target="_top" xlink:title="updateIntake">
<polygon fill="none" stroke="#000000" points="706.9243,-184.0146 706.9243,-202.0146 780.7515,-202.0146 780.7515,-184.0146 706.9243,-184.0146"/>
<text text-anchor="middle" x="743.8379" y="-190.0146" font-family="Helvetica,sans-Serif" font-size="10.00" fill="#000000">updateIntake</text>
</a>
</g>
</g>
<!-- Node299&#45;&gt;Node301 -->
<g id="edge14" class="edge">
<title>Node299&#45;&gt;Node301</title>
<path fill="none" stroke="#191970" d="M525.3666,-206.6315C544.8712,-216.1787 569.6492,-227.6434 580.7129,-230.0146 612.0686,-236.7348 621.3938,-236.1698 652.8652,-230.0146 679.973,-224.7129 709.2026,-211.3045 727.0133,-202.1724"/>
<polygon fill="#191970" stroke="#191970" points="526.8137,-203.4425 516.2984,-202.1469 523.7106,-209.7172 526.8137,-203.4425"/>
</g>
<!-- Node302 -->
<g id="node10" class="node">
<title>Node302</title>
<g id="a_node10"><a xlink:href="mobile__goal__intake_8c.html#a4899f9a8621015313e6312ce085da979" target="_top" xlink:title="raise_intake">
<polygon fill="none" stroke="#000000" points="581.8286,-166.0146 581.8286,-184.0146 651.7495,-184.0146 651.7495,-166.0146 581.8286,-166.0146"/>
<text text-anchor="middle" x="616.7891" y="-172.0146" font-family="Helvetica,sans-Serif" font-size="10.00" fill="#000000">raise_intake</text>
</a>
</g>
</g>
<!-- Node299&#45;&gt;Node302 -->
<g id="edge12" class="edge">
<title>Node299&#45;&gt;Node302</title>
<path fill="none" stroke="#191970" d="M554.7579,-184.4426C563.9835,-183.0404 573.3005,-181.6243 581.8104,-180.3309"/>
<polygon fill="#191970" stroke="#191970" points="554.1859,-180.9892 544.8254,-185.9522 555.2378,-187.9097 554.1859,-180.9892"/>
</g>
<!-- Node300&#45;&gt;Node301 -->
<g id="edge10" class="edge">
<title>Node300&#45;&gt;Node301</title>
<path fill="none" stroke="#191970" d="M663.2999,-205.059C677.5364,-202.9299 693.0037,-200.6168 706.5427,-198.5921"/>
<polygon fill="#191970" stroke="#191970" points="662.5685,-201.6293 653.1962,-206.57 663.6039,-208.5524 662.5685,-201.6293"/>
</g>
<!-- Node301&#45;&gt;Node296 -->
<g id="edge11" class="edge">
<title>Node301&#45;&gt;Node296</title>
<path fill="none" stroke="#191970" d="M774.9519,-179.9839C799.747,-169.5996 833.8324,-155.3245 855.78,-146.1327"/>
<polygon fill="#191970" stroke="#191970" points="773.4906,-176.8013 765.6189,-183.8926 776.1947,-183.2579 773.4906,-176.8013"/>
</g>
<!-- Node302&#45;&gt;Node301 -->
<g id="edge13" class="edge">
<title>Node302&#45;&gt;Node301</title>
<path fill="none" stroke="#191970" d="M661.7469,-181.3841C676.4528,-183.4676 692.6142,-185.7573 706.6791,-187.75"/>
<polygon fill="#191970" stroke="#191970" points="662.2342,-177.9183 651.842,-179.9808 661.2522,-184.8491 662.2342,-177.9183"/>
</g>
<!-- Node304 -->
<g id="node12" class="node">
<title>Node304</title>
<g id="a_node12"><a xlink:href="drive_8c.html#a8df41fd50094c065eedc81fc5e6595d1" target="_top" xlink:title="sets the speed of one side of the robot. ">
<polygon fill="none" stroke="#000000" points="455.3315,-81.0146 455.3315,-99.0146 541.3853,-99.0146 541.3853,-81.0146 455.3315,-81.0146"/>
<text text-anchor="middle" x="498.3584" y="-87.0146" font-family="Helvetica,sans-Serif" font-size="10.00" fill="#000000">set_side_speed</text>
</a>
</g>
</g>
<!-- Node303&#45;&gt;Node304 -->
<g id="edge16" class="edge">
<title>Node303&#45;&gt;Node304</title>
<path fill="none" stroke="#191970" d="M412.8745,-72.724C426.7493,-75.5304 441.5487,-78.5239 454.8667,-81.2177"/>
<polygon fill="#191970" stroke="#191970" points="413.4647,-69.2726 402.9692,-70.7205 412.0768,-76.1336 413.4647,-69.2726"/>
</g>
<!-- Node306 -->
<g id="node14" class="node">
<title>Node306</title>
<g id="a_node14"><a xlink:href="lifter_8c.html#aa62603df4d54dff2d7fd472d699e9b2e" target="_top" xlink:title="set_lifter_motors">
<polygon fill="none" stroke="#000000" points="453.4004,-34.0146 453.4004,-52.0146 543.3164,-52.0146 543.3164,-34.0146 453.4004,-34.0146"/>
<text text-anchor="middle" x="498.3584" y="-40.0146" font-family="Helvetica,sans-Serif" font-size="10.00" fill="#000000">set_lifter_motors</text>
</a>
</g>
</g>
<!-- Node303&#45;&gt;Node306 -->
<g id="edge19" class="edge">
<title>Node303&#45;&gt;Node306</title>
<path fill="none" stroke="#191970" d="M413.2633,-54.6942C426.3615,-52.8964 440.2617,-50.9885 452.9472,-49.2474"/>
<polygon fill="#191970" stroke="#191970" points="412.4004,-51.2797 402.9692,-56.107 413.3523,-58.2147 412.4004,-51.2797"/>
</g>
<!-- Node305 -->
<g id="node13" class="node">
<title>Node305</title>
<g id="a_node13"><a xlink:href="drive_8c.html#a8224a4626a934d30ed587671b7004bf8" target="_top" xlink:title="Updates the drive motors during teleop. ">
<polygon fill="none" stroke="#000000" points="688.8652,-90.0146 688.8652,-108.0146 798.8105,-108.0146 798.8105,-90.0146 688.8652,-90.0146"/>
<text text-anchor="middle" x="743.8379" y="-96.0146" font-family="Helvetica,sans-Serif" font-size="10.00" fill="#000000">update_drive_motors</text>
</a>
</g>
</g>
<!-- Node304&#45;&gt;Node305 -->
<g id="edge17" class="edge">
<title>Node304&#45;&gt;Node305</title>
<path fill="none" stroke="#191970" d="M551.6246,-91.9675C592.1706,-93.454 647.7981,-95.4935 688.7798,-96.996"/>
<polygon fill="#191970" stroke="#191970" points="551.5201,-88.4614 541.3986,-91.5926 551.2636,-95.4567 551.5201,-88.4614"/>
</g>
<!-- Node305&#45;&gt;Node296 -->
<g id="edge18" class="edge">
<title>Node305&#45;&gt;Node296</title>
<path fill="none" stroke="#191970" d="M785.3408,-110.8093C804.7759,-116.3325 827.5665,-122.8094 845.6275,-127.9421"/>
<polygon fill="#191970" stroke="#191970" points="786.1021,-107.3871 775.5262,-108.0201 784.1885,-114.1205 786.1021,-107.3871"/>
</g>
<!-- Node307 -->
<g id="node15" class="node">
<title>Node307</title>
<g id="a_node15"><a xlink:href="lifter_8c.html#a7452163ed7946b6262f41de51c62dfd4" target="_top" xlink:title="raise_lifter">
<polygon fill="none" stroke="#000000" points="585.7251,-52.0146 585.7251,-70.0146 647.853,-70.0146 647.853,-52.0146 585.7251,-52.0146"/>
<text text-anchor="middle" x="616.7891" y="-58.0146" font-family="Helvetica,sans-Serif" font-size="10.00" fill="#000000">raise_lifter</text>
</a>
</g>
</g>
<!-- Node306&#45;&gt;Node307 -->
<g id="edge20" class="edge">
<title>Node306&#45;&gt;Node307</title>
<path fill="none" stroke="#191970" d="M553.4459,-51.3872C564.4143,-53.0543 575.5724,-54.7502 585.4052,-56.2446"/>
<polygon fill="#191970" stroke="#191970" points="553.8822,-47.9134 543.4698,-49.871 552.8303,-54.834 553.8822,-47.9134"/>
</g>
<!-- Node308 -->
<g id="node16" class="node">
<title>Node308</title>
<g id="a_node16"><a xlink:href="lifter_8c.html#a59bb7413777ca16aba124aaedf95c79b" target="_top" xlink:title="update_lifter">
<polygon fill="none" stroke="#000000" points="708.3184,-34.0146 708.3184,-52.0146 779.3574,-52.0146 779.3574,-34.0146 708.3184,-34.0146"/>
<text text-anchor="middle" x="743.8379" y="-40.0146" font-family="Helvetica,sans-Serif" font-size="10.00" fill="#000000">update_lifter</text>
</a>
</g>
</g>
<!-- Node306&#45;&gt;Node308 -->
<g id="edge25" class="edge">
<title>Node306&#45;&gt;Node308</title>
<path fill="none" stroke="#191970" d="M521.9586,-28.7848C537.9214,-20.0164 559.8251,-9.6013 580.7129,-5.0146 612.0344,1.8631 621.4231,1.2883 652.8652,-5.0146 680.3885,-10.532 709.9828,-24.5754 727.6991,-33.9566"/>
<polygon fill="#191970" stroke="#191970" points="519.812,-25.9791 512.8494,-33.9648 523.2723,-32.0641 519.812,-25.9791"/>
</g>
<!-- Node309 -->
<g id="node17" class="node">
<title>Node309</title>
<g id="a_node17"><a xlink:href="lifter_8c.html#aa7d2d04059f57cc5b8582f6fd0726dc1" target="_top" xlink:title="lower_lifter">
<polygon fill="none" stroke="#000000" points="584.6143,-15.0146 584.6143,-33.0146 648.9639,-33.0146 648.9639,-15.0146 584.6143,-15.0146"/>
<text text-anchor="middle" x="616.7891" y="-21.0146" font-family="Helvetica,sans-Serif" font-size="10.00" fill="#000000">lower_lifter</text>
</a>
</g>
</g>
<!-- Node306&#45;&gt;Node309 -->
<g id="edge23" class="edge">
<title>Node306&#45;&gt;Node309</title>
<path fill="none" stroke="#191970" d="M553.4899,-34.1698C564.0424,-32.4768 574.7687,-30.756 584.3197,-29.2237"/>
<polygon fill="#191970" stroke="#191970" points="552.7891,-30.7374 543.4698,-35.7773 553.898,-37.649 552.7891,-30.7374"/>
</g>
<!-- Node307&#45;&gt;Node308 -->
<g id="edge21" class="edge">
<title>Node307&#45;&gt;Node308</title>
<path fill="none" stroke="#191970" d="M658.1089,-55.1605C674.2506,-52.8736 692.5803,-50.2767 708.1361,-48.0728"/>
<polygon fill="#191970" stroke="#191970" points="657.2788,-51.7431 647.8687,-56.6113 658.2608,-58.6739 657.2788,-51.7431"/>
</g>
<!-- Node308&#45;&gt;Node296 -->
<g id="edge22" class="edge">
<title>Node308&#45;&gt;Node296</title>
<path fill="none" stroke="#191970" d="M766.4814,-58.003C776.4494,-64.6659 788.2665,-72.653 798.8105,-80.0146 822.6108,-96.6313 849.9745,-116.65 865.3695,-127.9983"/>
<polygon fill="#191970" stroke="#191970" points="768.1997,-54.9422 757.9364,-52.3122 764.3195,-60.7684 768.1997,-54.9422"/>
</g>
<!-- Node309&#45;&gt;Node308 -->
<g id="edge24" class="edge">
<title>Node309&#45;&gt;Node308</title>
<path fill="none" stroke="#191970" d="M659.2258,-30.361C675.0194,-32.7229 692.7745,-35.3781 707.927,-37.6442"/>
<polygon fill="#191970" stroke="#191970" points="659.5853,-26.8759 649.1776,-28.8583 658.5499,-33.7989 659.5853,-26.8759"/>
</g>
<!-- Node311 -->
<g id="node19" class="node">
<title>Node311</title>
<g id="a_node19"><a xlink:href="slew_8c.html#a321758941d88b75783955c819bb75005" target="_top" xlink:title="Initializes the slew rate controller. ">
<polygon fill="none" stroke="#000000" points="213.502,-118.0146 213.502,-136.0146 267.8516,-136.0146 267.8516,-118.0146 213.502,-118.0146"/>
<text text-anchor="middle" x="240.6768" y="-124.0146" font-family="Helvetica,sans-Serif" font-size="10.00" fill="#000000">init_slew</text>
</a>
</g>
</g>
<!-- Node310&#45;&gt;Node311 -->
<g id="edge27" class="edge">
<title>Node310&#45;&gt;Node311</title>
<path fill="none" stroke="#191970" d="M187.8913,-127.0146C196.6685,-127.0146 205.5216,-127.0146 213.4037,-127.0146"/>
<polygon fill="#191970" stroke="#191970" points="187.6853,-123.5147 177.6852,-127.0146 187.6852,-130.5147 187.6853,-123.5147"/>
</g>
<!-- Node311&#45;&gt;Node294 -->
<g id="edge31" class="edge">
<title>Node311&#45;&gt;Node294</title>
<path fill="none" stroke="#191970" d="M261.8026,-142.0728C286.5868,-159.7384 326.8751,-188.4553 347.2576,-202.9835"/>
<polygon fill="#191970" stroke="#191970" points="263.6133,-139.0653 253.4387,-136.1111 259.5503,-144.7655 263.6133,-139.0653"/>
</g>
<!-- Node311&#45;&gt;Node296 -->
<g id="edge29" class="edge">
<title>Node311&#45;&gt;Node296</title>
<path fill="none" stroke="#191970" d="M278.1709,-129.382C328.3132,-132.339 419.9889,-137.0146 498.3584,-137.0146 498.3584,-137.0146 498.3584,-137.0146 616.7891,-137.0146 693.5239,-137.0146 782.9605,-137.0146 834.6392,-137.0146"/>
<polygon fill="#191970" stroke="#191970" points="278.3128,-125.8843 268.1212,-128.7794 277.8938,-132.8718 278.3128,-125.8843"/>
</g>
<!-- Node311&#45;&gt;Node303 -->
<g id="edge30" class="edge">
<title>Node311&#45;&gt;Node303</title>
<path fill="none" stroke="#191970" d="M258.6266,-111.1401C270.7236,-101.1003 287.418,-88.4683 303.8516,-80.0146 310.6707,-76.5067 318.3073,-73.5093 325.6971,-71.0243"/>
<polygon fill="#191970" stroke="#191970" points="256.0405,-108.7454 250.7,-117.8958 260.5812,-114.073 256.0405,-108.7454"/>
</g>
<!-- Node312 -->
<g id="node20" class="node">
<title>Node312</title>
<g id="a_node20"><a xlink:href="init_8c.html#a25a40b6614565f755233080a384c35f1" target="_top" xlink:title="initialize">
<polygon fill="none" stroke="#000000" points="334.1421,-90.0146 334.1421,-108.0146 385.7134,-108.0146 385.7134,-90.0146 334.1421,-90.0146"/>
<text text-anchor="middle" x="359.9277" y="-96.0146" font-family="Helvetica,sans-Serif" font-size="10.00" fill="#000000">initialize</text>
</a>
</g>
</g>
<!-- Node311&#45;&gt;Node312 -->
<g id="edge28" class="edge">
<title>Node311&#45;&gt;Node312</title>
<path fill="none" stroke="#191970" d="M278.0163,-118.2473C296.177,-113.9832 317.5596,-108.9626 333.9234,-105.1204"/>
<polygon fill="#191970" stroke="#191970" points="276.9705,-114.8976 268.0353,-120.5908 278.5707,-121.7123 276.9705,-114.8976"/>
</g>
</g>
</svg>
        <g id="navigator" transform="translate(0 0)" fill="#404254">
                <rect fill="#f2f5e9" fill-opacity="0.5" stroke="#606060" stroke-width=".5" x="0" y="0" width="60" height="60"/>
                <use id="zoomplus" xlink:href="#zoomPlus" x="17" y="9" onmousedown="handleZoom(evt,'in')"/>
                <use id="zoomminus" xlink:href="#zoomMin" x="42" y="9" onmousedown="handleZoom(evt,'out')"/>
                <use id="reset" xlink:href="#resetDef" x="30" y="36" onmousedown="handleReset()"/>
                <g id="arrowUp" xlink:href="#dirArrow" transform="translate(30 24)" onmousedown="handlePan(0,-1)">
                  <use xlink:href="#rim" fill="#404040">
                        <set attributeName="fill" to="#808080" begin="arrowUp.mouseover" end="arrowUp.mouseout"/>
                  </use>
                  <path fill="none" stroke="white" stroke-width="1.5" d="M0,-3.0v7 M-2.5,-0.5L0,-3.0L2.5,-0.5"/>
                </g>
                <g id="arrowRight" xlink:href="#dirArrow" transform="rotate(90) translate(36 -43)" onmousedown="handlePan(1,0)">
                  <use xlink:href="#rim" fill="#404040">
                        <set attributeName="fill" to="#808080" begin="arrowRight.mouseover" end="arrowRight.mouseout"/>
                  </use>
                  <path fill="none" stroke="white" stroke-width="1.5" d="M0,-3.0v7 M-2.5,-0.5L0,-3.0L2.5,-0.5"/>
                </g>
                <g id="arrowDown" xlink:href="#dirArrow" transform="rotate(180) translate(-30 -48)" onmousedown="handlePan(0,1)">
                  <use xlink:href="#rim" fill="#404040">
                        <set attributeName="fill" to="#808080" begin="arrowDown.mouseover" end="arrowDown.mouseout"/>
                  </use>
                  <path fill="none" stroke="white" stroke-width="1.5" d="M0,-3.0v7 M-2.5,-0.5L0,-3.0L2.5,-0.5"/>
                </g>
                <g id="arrowLeft" xlink:href="#dirArrow" transform="rotate(270) translate(-36 17)" onmousedown="handlePan(-1,0)">
                  <use xlink:href="#rim" fill="#404040">
                        <set attributeName="fill" to="#808080" begin="arrowLeft.mouseover" end="arrowLeft.mouseout"/>
                  </use>
                  <path fill="none" stroke="white" stroke-width="1.5" d="M0,-3.0v7 M-2.5,-0.5L0,-3.0L2.5,-0.5"/>
                </g>
        </g>
        <svg viewBox="0 0 15 15" width="100%" height="30px" preserveAspectRatio="xMaxYMin meet">
         <g id="arrow_out" transform="scale(0.3 0.3)">
          <a xlink:href="_a_p_i_8h_a8b51124628d2a7741738d48551d1e8ee_icgraph_org.svg" target="_base">
           <rect id="button" ry="5" rx="5" y="6" x="6" height="38" width="38"
                fill="#f2f5e9" fill-opacity="0.5" stroke="#606060" stroke-width="1.0"/>
           <path id="arrow"
             d="M 11.500037,31.436501 C 11.940474,20.09759 22.043105,11.32322 32.158766,21.979434 L 37.068811,17.246167 C 37.068811,17.246167 37.088388,32 37.088388,32 L 22.160133,31.978069 C 22.160133,31.978069 26.997745,27.140456 26.997745,27.140456 C 18.528582,18.264221 13.291696,25.230495 11.500037,31.436501 z"
             style="fill:#404040;"/>
          </a>
         </g>
        </svg>
</svg>
