<?xml version="1.0" encoding="UTF-8" standalone="no"?>
<!DOCTYPE svg PUBLIC "-//W3C//DTD SVG 1.1//EN"
 "http://www.w3.org/Graphics/SVG/1.1/DTD/svg11.dtd">
<!-- Generated by graphviz version 2.40.1 (20161225.0304)
 -->
<!-- Title: lcdClear Pages: 1 -->
<svg width="327pt" height="82pt"
 viewBox="0.00 0.00 327.29 82.00" xmlns="http://www.w3.org/2000/svg" xmlns:xlink="http://www.w3.org/1999/xlink">
<g id="graph0" class="graph" transform="scale(1 1) rotate(0) translate(4 78)">
<title>lcdClear</title>
<!-- Node114 -->
<g id="node1" class="node">
<title>Node114</title>
<polygon fill="#bfbfbf" stroke="#000000" points="0,-36.5 0,-54.5 52.6797,-54.5 52.6797,-36.5 0,-36.5"/>
<text text-anchor="middle" x="26.3398" y="-42.5" font-family="Helvetica,sans-Serif" font-size="10.00" fill="#000000">lcdClear</text>
</g>
<!-- Node115 -->
<g id="node2" class="node">
<title>Node115</title>
<g id="a_node2"><a xlink:href="lcd_8c.html#a35c08b1fa742e650f4873939707b893b" target="_top" xlink:title="Clears the lcd. ">
<polygon fill="none" stroke="#000000" points="88.6797,-55.5 88.6797,-73.5 144.6992,-73.5 144.6992,-55.5 88.6797,-55.5"/>
<text text-anchor="middle" x="116.6895" y="-61.5" font-family="Helvetica,sans-Serif" font-size="10.00" fill="#000000">lcd_clear</text>
</a>
</g>
</g>
<!-- Node114&#45;&gt;Node115 -->
<g id="edge1" class="edge">
<title>Node114&#45;&gt;Node115</title>
<path fill="none" stroke="#191970" d="M62.9918,-53.2077C71.4538,-54.9872 80.3298,-56.8538 88.3734,-58.5453"/>
<polygon fill="#191970" stroke="#191970" points="63.4653,-49.7308 52.959,-51.0979 62.0247,-56.581 63.4653,-49.7308"/>
</g>
<!-- Node116 -->
<g id="node3" class="node">
<title>Node116</title>
<g id="a_node3"><a xlink:href="log_8c.html#afff22aff6749311a684a559cac3ac8bd" target="_top" xlink:title="log_info">
<polygon fill="none" stroke="#000000" points="91.1748,-18.5 91.1748,-36.5 142.2041,-36.5 142.2041,-18.5 91.1748,-18.5"/>
<text text-anchor="middle" x="116.6895" y="-24.5" font-family="Helvetica,sans-Serif" font-size="10.00" fill="#000000">log_info</text>
</a>
</g>
</g>
<!-- Node114&#45;&gt;Node116 -->
<g id="edge2" class="edge">
<title>Node114&#45;&gt;Node116</title>
<path fill="none" stroke="#191970" d="M62.864,-38.2234C72.2539,-36.3527 82.1618,-34.3788 90.882,-32.6415"/>
<polygon fill="#191970" stroke="#191970" points="62.0824,-34.8103 52.959,-40.1968 63.4502,-41.6754 62.0824,-34.8103"/>
</g>
<!-- Node117 -->
<g id="node4" class="node">
<title>Node117</title>
<g id="a_node4"><a xlink:href="log_8c.html#a8e5bb8a2a372f5b066ff7af7044584c1" target="_top" xlink:title="prints a error message and displays on lcd. Only will print and display if log_level is greater than ...">
<polygon fill="none" stroke="#000000" points="187.6523,-37.5 187.6523,-55.5 224.7656,-55.5 224.7656,-37.5 187.6523,-37.5"/>
<text text-anchor="middle" x="206.209" y="-43.5" font-family="Helvetica,sans-Serif" font-size="10.00" fill="#000000">error</text>
</a>
</g>
</g>
<!-- Node116&#45;&gt;Node117 -->
<g id="edge3" class="edge">
<title>Node116&#45;&gt;Node117</title>
<path fill="none" stroke="#191970" d="M152.3775,-35.0746C164.3889,-37.6239 177.3101,-40.3664 187.4819,-42.5253"/>
<polygon fill="#191970" stroke="#191970" points="153.091,-31.6481 142.5822,-32.9956 151.6376,-38.4956 153.091,-31.6481"/>
</g>
<!-- Node118 -->
<g id="node5" class="node">
<title>Node118</title>
<g id="a_node5"><a xlink:href="log_8c.html#a0bec2cf5fff7f607bc510b74aba9887c" target="_top" xlink:title="prints a warning message and displays on lcd. Only will print and display if log_level is greater tha...">
<polygon fill="none" stroke="#000000" points="180.6992,-.5 180.6992,-18.5 231.7188,-18.5 231.7188,-.5 180.6992,-.5"/>
<text text-anchor="middle" x="206.209" y="-6.5" font-family="Helvetica,sans-Serif" font-size="10.00" fill="#000000">warning</text>
</a>
</g>
</g>
<!-- Node116&#45;&gt;Node118 -->
<g id="edge4" class="edge">
<title>Node116&#45;&gt;Node118</title>
<path fill="none" stroke="#191970" d="M152.5123,-20.297C161.9401,-18.4013 171.9193,-16.3947 180.6836,-14.6325"/>
<polygon fill="#191970" stroke="#191970" points="151.696,-16.891 142.5822,-22.2937 153.076,-23.7536 151.696,-16.891"/>
</g>
<!-- Node119 -->
<g id="node6" class="node">
<title>Node119</title>
<g id="a_node6"><a xlink:href="init_8c.html#a25a40b6614565f755233080a384c35f1" target="_top" xlink:title="initialize">
<polygon fill="none" stroke="#000000" points="267.7188,-.5 267.7188,-18.5 319.29,-18.5 319.29,-.5 267.7188,-.5"/>
<text text-anchor="middle" x="293.5044" y="-6.5" font-family="Helvetica,sans-Serif" font-size="10.00" fill="#000000">initialize</text>
</a>
</g>
</g>
<!-- Node118&#45;&gt;Node119 -->
<g id="edge5" class="edge">
<title>Node118&#45;&gt;Node119</title>
<path fill="none" stroke="#191970" d="M242.0884,-9.5C250.6618,-9.5 259.6485,-9.5 267.6672,-9.5"/>
<polygon fill="#191970" stroke="#191970" points="241.9284,-6.0001 231.9283,-9.5 241.9283,-13.0001 241.9284,-6.0001"/>
</g>
</g>
</svg>
