<?xml version="1.0" encoding="UTF-8" standalone="no"?>
<!DOCTYPE svg PUBLIC "-//W3C//DTD SVG 1.1//EN"
 "http://www.w3.org/Graphics/SVG/1.1/DTD/svg11.dtd">
<!-- Generated by graphviz version 2.40.1 (20161225.0304)
 -->
<!-- Title: lcdReadButtons Pages: 1 -->
<svg width="484pt" height="64pt"
 viewBox="0.00 0.00 483.51 64.00" xmlns="http://www.w3.org/2000/svg" xmlns:xlink="http://www.w3.org/1999/xlink">
<g id="graph0" class="graph" transform="scale(1 1) rotate(0) translate(4 60)">
<title>lcdReadButtons</title>
<polygon fill="#ffffff" stroke="transparent" points="-4,4 -4,-60 479.5107,-60 479.5107,4 -4,4"/>
<!-- Node118 -->
<g id="node1" class="node">
<title>Node118</title>
<polygon fill="#bfbfbf" stroke="#000000" points="0,-18.5 0,-36.5 86.6006,-36.5 86.6006,-18.5 0,-18.5"/>
<text text-anchor="middle" x="43.3003" y="-24.5" font-family="Helvetica,sans-Serif" font-size="10.00" fill="#000000">lcdReadButtons</text>
</g>
<!-- Node119 -->
<g id="node2" class="node">
<title>Node119</title>
<g id="a_node2"><a xlink:href="lcd_8h.html#ac7b3225ccc82fcbe067ba9da934f010d" target="_top" xlink:title="Returns the pressed buttons. ">
<polygon fill="#ffffff" stroke="#000000" points="122.6006,-18.5 122.6006,-36.5 250.3486,-36.5 250.3486,-18.5 122.6006,-18.5"/>
<text text-anchor="middle" x="186.4746" y="-24.5" font-family="Helvetica,sans-Serif" font-size="10.00" fill="#000000">lcd_get_pressed_buttons</text>
</a>
</g>
</g>
<!-- Node118&#45;&gt;Node119 -->
<g id="edge1" class="edge">
<title>Node118&#45;&gt;Node119</title>
<path fill="none" stroke="#191970" d="M96.6692,-27.5C105.0597,-27.5 113.808,-27.5 122.4097,-27.5"/>
<polygon fill="#191970" stroke="#191970" points="96.6459,-24.0001 86.6458,-27.5 96.6458,-31.0001 96.6459,-24.0001"/>
</g>
<!-- Node120 -->
<g id="node3" class="node">
<title>Node120</title>
<g id="a_node3"><a xlink:href="lcd_8h.html#a99f4683e1990edf624ab216bf327cba4" target="_top" xlink:title="Prompts the user to confirm a string. User must press middle button to confirm. Function is not threa...">
<polygon fill="#ffffff" stroke="#000000" points="286.3486,-37.5 286.3486,-55.5 387.9395,-55.5 387.9395,-37.5 286.3486,-37.5"/>
<text text-anchor="middle" x="337.144" y="-43.5" font-family="Helvetica,sans-Serif" font-size="10.00" fill="#000000">promt_confirmation</text>
</a>
</g>
</g>
<!-- Node119&#45;&gt;Node120 -->
<g id="edge2" class="edge">
<title>Node119&#45;&gt;Node120</title>
<path fill="none" stroke="#191970" d="M260.4526,-36.8289C269.0721,-37.9159 277.7153,-39.0058 285.9306,-40.0418"/>
<polygon fill="#191970" stroke="#191970" points="260.7314,-33.3364 250.372,-35.5577 259.8555,-40.2814 260.7314,-33.3364"/>
</g>
<!-- Node122 -->
<g id="node5" class="node">
<title>Node122</title>
<g id="a_node5"><a xlink:href="menu_8h.html#aee3e9f838cdbb1745c68974490aabb99" target="_top" xlink:title="display_menu">
<polygon fill="#ffffff" stroke="#000000" points="298.292,-.5 298.292,-18.5 375.9961,-18.5 375.9961,-.5 298.292,-.5"/>
<text text-anchor="middle" x="337.144" y="-6.5" font-family="Helvetica,sans-Serif" font-size="10.00" fill="#000000">display_menu</text>
</a>
</g>
</g>
<!-- Node119&#45;&gt;Node122 -->
<g id="edge4" class="edge">
<title>Node119&#45;&gt;Node122</title>
<path fill="none" stroke="#191970" d="M260.3083,-18.6793C273.351,-17.1211 286.4538,-15.5558 298.052,-14.1702"/>
<polygon fill="#191970" stroke="#191970" points="259.8862,-15.2048 250.372,-19.8664 260.7166,-22.1553 259.8862,-15.2048"/>
</g>
<!-- Node121 -->
<g id="node4" class="node">
<title>Node121</title>
<g id="a_node4"><a xlink:href="init_8c.html#a25a40b6614565f755233080a384c35f1" target="_top" xlink:title="initialize">
<polygon fill="#ffffff" stroke="#000000" points="423.9395,-37.5 423.9395,-55.5 475.5107,-55.5 475.5107,-37.5 423.9395,-37.5"/>
<text text-anchor="middle" x="449.7251" y="-43.5" font-family="Helvetica,sans-Serif" font-size="10.00" fill="#000000">initialize</text>
</a>
</g>
</g>
<!-- Node120&#45;&gt;Node121 -->
<g id="edge3" class="edge">
<title>Node120&#45;&gt;Node121</title>
<path fill="none" stroke="#191970" d="M398.3092,-46.5C407.2757,-46.5 416.0759,-46.5 423.7907,-46.5"/>
<polygon fill="#191970" stroke="#191970" points="398.1642,-43.0001 388.1642,-46.5 398.1642,-50.0001 398.1642,-43.0001"/>
</g>
</g>
</svg>
