<?xml version="1.0" encoding="UTF-8" standalone="no"?>
<!DOCTYPE svg PUBLIC "-//W3C//DTD SVG 1.1//EN"
 "http://www.w3.org/Graphics/SVG/1.1/DTD/svg11.dtd">
<!-- Generated by graphviz version 2.40.1 (20161225.0304)
 -->
<!-- Title: lcdReadButtons Pages: 1 -->
<svg width="396pt" height="64pt"
 viewBox="0.00 0.00 395.94 64.00" xmlns="http://www.w3.org/2000/svg" xmlns:xlink="http://www.w3.org/1999/xlink">
<g id="graph0" class="graph" transform="scale(1 1) rotate(0) translate(4 60)">
<title>lcdReadButtons</title>
<!-- Node144 -->
<g id="node1" class="node">
<title>Node144</title>
<polygon fill="#bfbfbf" stroke="#000000" points="0,-18.5 0,-36.5 86.6006,-36.5 86.6006,-18.5 0,-18.5"/>
<text text-anchor="middle" x="43.3003" y="-24.5" font-family="Helvetica,sans-Serif" font-size="10.00" fill="#000000">lcdReadButtons</text>
</g>
<!-- Node145 -->
<g id="node2" class="node">
<title>Node145</title>
<g id="a_node2"><a xlink:href="lcd_8c.html#ac7b3225ccc82fcbe067ba9da934f010d" target="_top" xlink:title="Returns the pressed buttons. ">
<polygon fill="none" stroke="#000000" points="122.6006,-18.5 122.6006,-36.5 250.3486,-36.5 250.3486,-18.5 122.6006,-18.5"/>
<text text-anchor="middle" x="186.4746" y="-24.5" font-family="Helvetica,sans-Serif" font-size="10.00" fill="#000000">lcd_get_pressed_buttons</text>
</a>
</g>
</g>
<!-- Node144&#45;&gt;Node145 -->
<g id="edge1" class="edge">
<title>Node144&#45;&gt;Node145</title>
<path fill="none" stroke="#191970" d="M96.6692,-27.5C105.0597,-27.5 113.808,-27.5 122.4097,-27.5"/>
<polygon fill="#191970" stroke="#191970" points="96.6459,-24.0001 86.6458,-27.5 96.6458,-31.0001 96.6459,-24.0001"/>
</g>
<!-- Node146 -->
<g id="node3" class="node">
<title>Node146</title>
<g id="a_node3"><a xlink:href="lcd_8c.html#a99f4683e1990edf624ab216bf327cba4" target="_top" xlink:title="Prompts the user to confirm a string. User must press middle button to confirm. Function is not threa...">
<polygon fill="none" stroke="#000000" points="286.3486,-37.5 286.3486,-55.5 387.9395,-55.5 387.9395,-37.5 286.3486,-37.5"/>
<text text-anchor="middle" x="337.144" y="-43.5" font-family="Helvetica,sans-Serif" font-size="10.00" fill="#000000">promt_confirmation</text>
</a>
</g>
</g>
<!-- Node145&#45;&gt;Node146 -->
<g id="edge2" class="edge">
<title>Node145&#45;&gt;Node146</title>
<path fill="none" stroke="#191970" d="M260.4526,-36.8289C269.0721,-37.9159 277.7153,-39.0058 285.9306,-40.0418"/>
<polygon fill="#191970" stroke="#191970" points="260.7314,-33.3364 250.372,-35.5577 259.8555,-40.2814 260.7314,-33.3364"/>
</g>
<!-- Node147 -->
<g id="node4" class="node">
<title>Node147</title>
<g id="a_node4"><a xlink:href="menu_8c.html#abfadedb104f89f672dd3045499975a71" target="_top" xlink:title="Displays a menu context, but does not display. &#160;Menu must be freed or will cause memory leak! &#160;Will e...">
<polygon fill="none" stroke="#000000" points="298.292,-.5 298.292,-18.5 375.9961,-18.5 375.9961,-.5 298.292,-.5"/>
<text text-anchor="middle" x="337.144" y="-6.5" font-family="Helvetica,sans-Serif" font-size="10.00" fill="#000000">display_menu</text>
</a>
</g>
</g>
<!-- Node145&#45;&gt;Node147 -->
<g id="edge3" class="edge">
<title>Node145&#45;&gt;Node147</title>
<path fill="none" stroke="#191970" d="M260.3083,-18.6793C273.351,-17.1211 286.4538,-15.5558 298.052,-14.1702"/>
<polygon fill="#191970" stroke="#191970" points="259.8862,-15.2048 250.372,-19.8664 260.7166,-22.1553 259.8862,-15.2048"/>
</g>
</g>
</svg>
