<?xml version="1.0" encoding="UTF-8" standalone="no"?>
<!DOCTYPE svg PUBLIC "-//W3C//DTD SVG 1.1//EN"
 "http://www.w3.org/Graphics/SVG/1.1/DTD/svg11.dtd">
<!-- Generated by graphviz version 2.40.1 (20161225.0304)
 -->
<!-- Title: lcdSetBacklight Pages: 1 -->
<svg width="612pt" height="139pt"
 viewBox="0.00 0.00 611.96 139.00" xmlns="http://www.w3.org/2000/svg" xmlns:xlink="http://www.w3.org/1999/xlink">
<g id="graph0" class="graph" transform="scale(1 1) rotate(0) translate(4 135)">
<title>lcdSetBacklight</title>
<!-- Node138 -->
<g id="node1" class="node">
<title>Node138</title>
<polygon fill="#bfbfbf" stroke="#000000" points="0,-55.5 0,-73.5 84.3691,-73.5 84.3691,-55.5 0,-55.5"/>
<text text-anchor="middle" x="42.1846" y="-61.5" font-family="Helvetica,sans-Serif" font-size="10.00" fill="#000000">lcdSetBacklight</text>
</g>
<!-- Node139 -->
<g id="node2" class="node">
<title>Node139</title>
<g id="a_node2"><a xlink:href="lcd_8c.html#a245902a4d48a6d9bd1ab308bf9b7e6b5" target="_top" xlink:title="sets the backlight of the lcd ">
<polygon fill="none" stroke="#000000" points="120.3691,-74.5 120.3691,-92.5 213.083,-92.5 213.083,-74.5 120.3691,-74.5"/>
<text text-anchor="middle" x="166.7261" y="-80.5" font-family="Helvetica,sans-Serif" font-size="10.00" fill="#000000">lcd_set_backlight</text>
</a>
</g>
</g>
<!-- Node138&#45;&gt;Node139 -->
<g id="edge1" class="edge">
<title>Node138&#45;&gt;Node139</title>
<path fill="none" stroke="#191970" d="M94.8008,-72.5271C103.2177,-73.8112 111.8758,-75.1321 120.1397,-76.3928"/>
<polygon fill="#191970" stroke="#191970" points="95.1099,-69.0338 84.6964,-70.9856 94.0541,-75.9538 95.1099,-69.0338"/>
</g>
<!-- Node140 -->
<g id="node3" class="node">
<title>Node140</title>
<g id="a_node3"><a xlink:href="log_8c.html#afff22aff6749311a684a559cac3ac8bd" target="_top" xlink:title="log_info">
<polygon fill="none" stroke="#000000" points="141.2114,-37.5 141.2114,-55.5 192.2407,-55.5 192.2407,-37.5 141.2114,-37.5"/>
<text text-anchor="middle" x="166.7261" y="-43.5" font-family="Helvetica,sans-Serif" font-size="10.00" fill="#000000">log_info</text>
</a>
</g>
</g>
<!-- Node138&#45;&gt;Node140 -->
<g id="edge2" class="edge">
<title>Node138&#45;&gt;Node140</title>
<path fill="none" stroke="#191970" d="M95.0132,-56.8647C110.9674,-54.5588 127.7681,-52.1306 141.0944,-50.2046"/>
<polygon fill="#191970" stroke="#191970" points="94.0928,-53.4612 84.6964,-58.3558 95.0942,-60.3893 94.0928,-53.4612"/>
</g>
<!-- Node141 -->
<g id="node4" class="node">
<title>Node141</title>
<g id="a_node4"><a xlink:href="log_8c.html#a8e5bb8a2a372f5b066ff7af7044584c1" target="_top" xlink:title="prints a error message and displays on lcd. Only will print and display if log_level is greater than ...">
<polygon fill="none" stroke="#000000" points="249.083,-56.5 249.083,-74.5 286.1963,-74.5 286.1963,-56.5 249.083,-56.5"/>
<text text-anchor="middle" x="267.6396" y="-62.5" font-family="Helvetica,sans-Serif" font-size="10.00" fill="#000000">error</text>
</a>
</g>
</g>
<!-- Node140&#45;&gt;Node141 -->
<g id="edge3" class="edge">
<title>Node140&#45;&gt;Node141</title>
<path fill="none" stroke="#191970" d="M202.4049,-53.2176C218.1201,-56.1765 235.933,-59.5303 248.9697,-61.9848"/>
<polygon fill="#191970" stroke="#191970" points="202.9269,-49.7545 192.4519,-51.3437 201.6316,-56.6336 202.9269,-49.7545"/>
</g>
<!-- Node147 -->
<g id="node10" class="node">
<title>Node147</title>
<g id="a_node10"><a xlink:href="log_8c.html#a0bec2cf5fff7f607bc510b74aba9887c" target="_top" xlink:title="prints a warning message and displays on lcd. Only will print and display if log_level is greater tha...">
<polygon fill="none" stroke="#000000" points="333.8711,-.5 333.8711,-18.5 384.8906,-18.5 384.8906,-.5 333.8711,-.5"/>
<text text-anchor="middle" x="359.3809" y="-6.5" font-family="Helvetica,sans-Serif" font-size="10.00" fill="#000000">warning</text>
</a>
</g>
</g>
<!-- Node140&#45;&gt;Node147 -->
<g id="edge9" class="edge">
<title>Node140&#45;&gt;Node147</title>
<path fill="none" stroke="#191970" d="M202.4519,-39.6387C240.5537,-32.3211 299.957,-20.9126 333.692,-14.4336"/>
<polygon fill="#191970" stroke="#191970" points="201.4695,-36.2634 192.3091,-41.5867 202.7898,-43.1377 201.4695,-36.2634"/>
</g>
<!-- Node142 -->
<g id="node5" class="node">
<title>Node142</title>
<g id="a_node5"><a xlink:href="menu_8c.html#adcee778eac0edb821427d32949106dc5" target="_top" xlink:title="create_menu">
<polygon fill="none" stroke="#000000" points="322.1963,-56.5 322.1963,-74.5 396.5654,-74.5 396.5654,-56.5 322.1963,-56.5"/>
<text text-anchor="middle" x="359.3809" y="-62.5" font-family="Helvetica,sans-Serif" font-size="10.00" fill="#000000">create_menu</text>
</a>
</g>
</g>
<!-- Node141&#45;&gt;Node142 -->
<g id="edge4" class="edge">
<title>Node141&#45;&gt;Node142</title>
<path fill="none" stroke="#191970" d="M296.2788,-65.5C304.39,-65.5 313.3424,-65.5 321.8925,-65.5"/>
<polygon fill="#191970" stroke="#191970" points="296.2049,-62.0001 286.2049,-65.5 296.2048,-69.0001 296.2049,-62.0001"/>
</g>
<!-- Node143 -->
<g id="node6" class="node">
<title>Node143</title>
<g id="a_node6"><a xlink:href="menu_8c.html#a3529988b0a7c12cb3f2ebb3cf5595594" target="_top" xlink:title="Creates a menu context, but does not display. &#160;Menu must be freed or will cause memory leak &#160;...">
<polygon fill="none" stroke="#000000" points="435.0703,-112.5 435.0703,-130.5 513.8828,-130.5 513.8828,-112.5 435.0703,-112.5"/>
<text text-anchor="middle" x="474.4766" y="-118.5" font-family="Helvetica,sans-Serif" font-size="10.00" fill="#000000">init_menu_var</text>
</a>
</g>
</g>
<!-- Node142&#45;&gt;Node143 -->
<g id="edge5" class="edge">
<title>Node142&#45;&gt;Node143</title>
<path fill="none" stroke="#191970" d="M385.0601,-79.4199C398.992,-86.8227 416.5861,-95.9325 432.5654,-103.5 439.0067,-106.5504 446.099,-109.6808 452.5884,-112.4578"/>
<polygon fill="#191970" stroke="#191970" points="386.5333,-76.2387 376.0648,-74.6074 383.2312,-82.4109 386.5333,-76.2387"/>
</g>
<!-- Node144 -->
<g id="node7" class="node">
<title>Node144</title>
<g id="a_node7"><a xlink:href="menu_8c.html#ac8efedba760ec35ebf841ab19543ba5a" target="_top" xlink:title="Creates a menu context, but does not display. &#160;Menu must be freed or will cause memory leak &#160;...">
<polygon fill="none" stroke="#000000" points="436.7354,-75.5 436.7354,-93.5 512.2178,-93.5 512.2178,-75.5 436.7354,-75.5"/>
<text text-anchor="middle" x="474.4766" y="-81.5" font-family="Helvetica,sans-Serif" font-size="10.00" fill="#000000">init_menu_int</text>
</a>
</g>
</g>
<!-- Node142&#45;&gt;Node144 -->
<g id="edge6" class="edge">
<title>Node142&#45;&gt;Node144</title>
<path fill="none" stroke="#191970" d="M406.8481,-73.3359C416.7301,-74.9672 427.0215,-76.6661 436.5071,-78.232"/>
<polygon fill="#191970" stroke="#191970" points="407.1857,-69.8443 396.7491,-71.6688 406.0455,-76.7509 407.1857,-69.8443"/>
</g>
<!-- Node146 -->
<g id="node9" class="node">
<title>Node146</title>
<g id="a_node9"><a xlink:href="menu_8c.html#a5abb752733423805f59ef3b92e3c2e57" target="_top" xlink:title="Creates a menu context, but does not display. &#160;Menu must be freed or will cause memory leak! &#160;...">
<polygon fill="none" stroke="#000000" points="432.5654,-38.5 432.5654,-56.5 516.3877,-56.5 516.3877,-38.5 432.5654,-38.5"/>
<text text-anchor="middle" x="474.4766" y="-44.5" font-family="Helvetica,sans-Serif" font-size="10.00" fill="#000000">init_menu_float</text>
</a>
</g>
</g>
<!-- Node142&#45;&gt;Node146 -->
<g id="edge8" class="edge">
<title>Node142&#45;&gt;Node146</title>
<path fill="none" stroke="#191970" d="M406.906,-58.0675C415.3974,-56.7395 424.1893,-55.3645 432.5109,-54.0631"/>
<polygon fill="#191970" stroke="#191970" points="406.0882,-54.6527 396.7491,-59.6559 407.1699,-61.5687 406.0882,-54.6527"/>
</g>
<!-- Node145 -->
<g id="node8" class="node">
<title>Node145</title>
<g id="a_node8"><a xlink:href="init_8c.html#a25a40b6614565f755233080a384c35f1" target="_top" xlink:title="initialize">
<polygon fill="none" stroke="#000000" points="552.3877,-37.5 552.3877,-55.5 603.959,-55.5 603.959,-37.5 552.3877,-37.5"/>
<text text-anchor="middle" x="578.1733" y="-43.5" font-family="Helvetica,sans-Serif" font-size="10.00" fill="#000000">initialize</text>
</a>
</g>
</g>
<!-- Node144&#45;&gt;Node145 -->
<g id="edge7" class="edge">
<title>Node144&#45;&gt;Node145</title>
<path fill="none" stroke="#191970" d="M508.7526,-71.9395C523.3485,-66.5907 540.0517,-60.4698 553.4157,-55.5725"/>
<polygon fill="#191970" stroke="#191970" points="507.2364,-68.7674 499.0513,-75.4945 509.645,-75.34 507.2364,-68.7674"/>
</g>
<!-- Node147&#45;&gt;Node145 -->
<g id="edge10" class="edge">
<title>Node147&#45;&gt;Node145</title>
<path fill="none" stroke="#191970" d="M395.3577,-12.1744C427.3555,-14.9505 475.3037,-20.0882 516.3877,-28.5 528.3183,-30.9428 541.2904,-34.5686 552.2541,-37.9271"/>
<polygon fill="#191970" stroke="#191970" points="395.4073,-8.6665 385.1507,-11.3222 394.8248,-15.6422 395.4073,-8.6665"/>
</g>
</g>
</svg>
