<?xml version="1.0" encoding="UTF-8" standalone="no"?>
<!DOCTYPE svg PUBLIC "-//W3C//DTD SVG 1.1//EN"
 "http://www.w3.org/Graphics/SVG/1.1/DTD/svg11.dtd">
<!-- Generated by graphviz version 2.40.1 (20161225.0304)
 -->
<!-- Title: include/API.h Pages: 1 -->
<svg width="884pt" height="192pt"
 viewBox="0.00 0.00 884.37 192.00" xmlns="http://www.w3.org/2000/svg" xmlns:xlink="http://www.w3.org/1999/xlink">
<g id="graph0" class="graph" transform="scale(1 1) rotate(0) translate(4 188)">
<title>include/API.h</title>
<!-- Node5 -->
<g id="node1" class="node">
<title>Node5</title>
<polygon fill="#bfbfbf" stroke="#000000" points="376.2314,-165.5 376.2314,-183.5 451.1572,-183.5 451.1572,-165.5 376.2314,-165.5"/>
<text text-anchor="middle" x="413.6943" y="-171.5" font-family="Helvetica,sans-Serif" font-size="10.00" fill="#000000">include/API.h</text>
</g>
<!-- Node6 -->
<g id="node2" class="node">
<title>Node6</title>
<g id="a_node2"><a xlink:href="controller_8h.html" target="_top" xlink:title="controller definitions, macros ">
<polygon fill="none" stroke="#000000" points="0,-110.5 0,-128.5 99.3887,-128.5 99.3887,-110.5 0,-110.5"/>
<text text-anchor="middle" x="49.6943" y="-116.5" font-family="Helvetica,sans-Serif" font-size="10.00" fill="#000000">include/controller.h</text>
</a>
</g>
</g>
<!-- Node5&#45;&gt;Node6 -->
<g id="edge1" class="edge">
<title>Node5&#45;&gt;Node6</title>
<path fill="none" stroke="#191970" d="M365.9483,-167.2856C296.8742,-156.8486 169.6778,-137.6294 99.4799,-127.0225"/>
<polygon fill="#191970" stroke="#191970" points="365.7002,-170.7878 376.1109,-168.8212 366.7461,-163.8664 365.7002,-170.7878"/>
</g>
<!-- Node8 -->
<g id="node4" class="node">
<title>Node8</title>
<g id="a_node4"><a xlink:href="drive_8c.html" target="_top" xlink:title="src/drive.c">
<polygon fill="none" stroke="#000000" points="102.9136,-55.5 102.9136,-73.5 164.4751,-73.5 164.4751,-55.5 102.9136,-55.5"/>
<text text-anchor="middle" x="133.6943" y="-61.5" font-family="Helvetica,sans-Serif" font-size="10.00" fill="#000000">src/drive.c</text>
</a>
</g>
</g>
<!-- Node5&#45;&gt;Node8 -->
<g id="edge28" class="edge">
<title>Node5&#45;&gt;Node8</title>
<path fill="none" stroke="#191970" d="M365.9219,-172.6866C297.6906,-169.0772 177.188,-158.5895 146.6943,-129 131.774,-114.5221 131.4979,-88.0296 132.585,-73.9233"/>
<polygon fill="#191970" stroke="#191970" points="365.8352,-176.1865 375.9974,-173.1897 366.1844,-169.1952 365.8352,-176.1865"/>
</g>
<!-- Node9 -->
<g id="node5" class="node">
<title>Node9</title>
<g id="a_node5"><a xlink:href="drive_8h.html" target="_top" xlink:title="Drive base definitions and eumerations. ">
<polygon fill="none" stroke="#000000" points="155.4531,-110.5 155.4531,-128.5 235.9355,-128.5 235.9355,-110.5 155.4531,-110.5"/>
<text text-anchor="middle" x="195.6943" y="-116.5" font-family="Helvetica,sans-Serif" font-size="10.00" fill="#000000">include/drive.h</text>
</a>
</g>
</g>
<!-- Node5&#45;&gt;Node9 -->
<g id="edge4" class="edge">
<title>Node5&#45;&gt;Node9</title>
<path fill="none" stroke="#191970" d="M367.7687,-162.9133C327.1151,-152.6566 268.6144,-137.8973 231.3838,-128.5042"/>
<polygon fill="#191970" stroke="#191970" points="367.1437,-166.3652 377.6961,-165.4179 368.8561,-159.5779 367.1437,-166.3652"/>
</g>
<!-- Node10 -->
<g id="node6" class="node">
<title>Node10</title>
<g id="a_node6"><a xlink:href="encoders_8h.html" target="_top" xlink:title="wrapper around encer functions ">
<polygon fill="none" stroke="#000000" points="253.7217,-110.5 253.7217,-128.5 353.667,-128.5 353.667,-110.5 253.7217,-110.5"/>
<text text-anchor="middle" x="303.6943" y="-116.5" font-family="Helvetica,sans-Serif" font-size="10.00" fill="#000000">include/encoders.h</text>
</a>
</g>
</g>
<!-- Node5&#45;&gt;Node10 -->
<g id="edge6" class="edge">
<title>Node5&#45;&gt;Node10</title>
<path fill="none" stroke="#191970" d="M386.534,-160.9198C366.3939,-150.8498 339.4898,-137.3977 321.8856,-128.5956"/>
<polygon fill="#191970" stroke="#191970" points="385.0205,-164.0762 395.5301,-165.4179 388.1511,-157.8152 385.0205,-164.0762"/>
</g>
<!-- Node12 -->
<g id="node8" class="node">
<title>Node12</title>
<g id="a_node8"><a xlink:href="lcd_8h.html" target="_top" xlink:title="LCD wrapper functions and macros. ">
<polygon fill="none" stroke="#000000" points="409.8989,-110.5 409.8989,-128.5 481.4897,-128.5 481.4897,-110.5 409.8989,-110.5"/>
<text text-anchor="middle" x="445.6943" y="-116.5" font-family="Helvetica,sans-Serif" font-size="10.00" fill="#000000">include/lcd.h</text>
</a>
</g>
</g>
<!-- Node5&#45;&gt;Node12 -->
<g id="edge8" class="edge">
<title>Node5&#45;&gt;Node12</title>
<path fill="none" stroke="#191970" d="M424.1304,-156.563C429.5265,-147.2885 435.887,-136.3564 440.2954,-128.7795"/>
<polygon fill="#191970" stroke="#191970" points="420.9822,-155.0142 418.9785,-165.4179 427.0327,-158.5345 420.9822,-155.0142"/>
</g>
<!-- Node13 -->
<g id="node9" class="node">
<title>Node13</title>
<g id="a_node9"><a xlink:href="log_8h.html" target="_top" xlink:title="include/log.h">
<polygon fill="none" stroke="#000000" points="307.6182,-55.5 307.6182,-73.5 379.7705,-73.5 379.7705,-55.5 307.6182,-55.5"/>
<text text-anchor="middle" x="343.6943" y="-61.5" font-family="Helvetica,sans-Serif" font-size="10.00" fill="#000000">include/log.h</text>
</a>
</g>
</g>
<!-- Node5&#45;&gt;Node13 -->
<g id="edge14" class="edge">
<title>Node5&#45;&gt;Node13</title>
<path fill="none" stroke="#191970" d="M402.4285,-156.7966C387.3345,-133.0774 361.1055,-91.8604 349.5019,-73.6261"/>
<polygon fill="#191970" stroke="#191970" points="399.6443,-158.9407 407.9659,-165.4982 405.55,-155.1825 399.6443,-158.9407"/>
</g>
<!-- Node15 -->
<g id="node11" class="node">
<title>Node15</title>
<g id="a_node11"><a xlink:href="menu_8h.html" target="_top" xlink:title="Contains menu functionality and abstraction. ">
<polygon fill="none" stroke="#000000" points="467.7832,-55.5 467.7832,-73.5 551.6055,-73.5 551.6055,-55.5 467.7832,-55.5"/>
<text text-anchor="middle" x="509.6943" y="-61.5" font-family="Helvetica,sans-Serif" font-size="10.00" fill="#000000">include/menu.h</text>
</a>
</g>
</g>
<!-- Node5&#45;&gt;Node15 -->
<g id="edge19" class="edge">
<title>Node5&#45;&gt;Node15</title>
<path fill="none" stroke="#191970" d="M448.01,-161.1376C463.0365,-153.7198 479.7106,-143.1005 490.6943,-129 503.607,-112.4232 507.7546,-87.2697 509.0791,-73.7958"/>
<polygon fill="#191970" stroke="#191970" points="446.5334,-157.9643 438.9324,-165.3451 449.4771,-164.3153 446.5334,-157.9643"/>
</g>
<!-- Node18 -->
<g id="node14" class="node">
<title>Node18</title>
<g id="a_node14"><a xlink:href="main_8h.html" target="_top" xlink:title="Header file for global functions. ">
<polygon fill="none" stroke="#000000" points="569.4531,-55.5 569.4531,-73.5 649.9355,-73.5 649.9355,-55.5 569.4531,-55.5"/>
<text text-anchor="middle" x="609.6943" y="-61.5" font-family="Helvetica,sans-Serif" font-size="10.00" fill="#000000">include/main.h</text>
</a>
</g>
</g>
<!-- Node5&#45;&gt;Node18 -->
<g id="edge15" class="edge">
<title>Node5&#45;&gt;Node18</title>
<path fill="none" stroke="#191970" d="M443.8423,-161.4298C463.0132,-152.8221 488.1854,-140.9671 509.6943,-129 542.0093,-111.0207 578.0245,-86.6498 596.7664,-73.6158"/>
<polygon fill="#191970" stroke="#191970" points="442.4026,-158.2395 434.6861,-165.4994 445.2457,-164.6361 442.4026,-158.2395"/>
</g>
<!-- Node22 -->
<g id="node18" class="node">
<title>Node22</title>
<g id="a_node18"><a xlink:href="slew_8h.html" target="_top" xlink:title="Contains the slew rate controller wrapper for the motors. ">
<polygon fill="none" stroke="#000000" points="741.5615,-55.5 741.5615,-73.5 819.8271,-73.5 819.8271,-55.5 741.5615,-55.5"/>
<text text-anchor="middle" x="780.6943" y="-61.5" font-family="Helvetica,sans-Serif" font-size="10.00" fill="#000000">include/slew.h</text>
</a>
</g>
</g>
<!-- Node5&#45;&gt;Node22 -->
<g id="edge20" class="edge">
<title>Node5&#45;&gt;Node22</title>
<path fill="none" stroke="#191970" d="M461.6353,-170.9189C535.2315,-164.8157 672.1161,-150.8921 715.6943,-129 741.8332,-115.8688 763.9766,-88.2929 774.3646,-73.8201"/>
<polygon fill="#191970" stroke="#191970" points="460.9382,-167.4639 451.2547,-171.7626 461.5054,-174.4409 460.9382,-167.4639"/>
</g>
<!-- Node24 -->
<g id="node20" class="node">
<title>Node24</title>
<g id="a_node20"><a xlink:href="vlib_8h.html" target="_top" xlink:title="Contains misc helpful functions. ">
<polygon fill="none" stroke="#000000" points="632.7881,-110.5 632.7881,-128.5 706.6006,-128.5 706.6006,-110.5 632.7881,-110.5"/>
<text text-anchor="middle" x="669.6943" y="-116.5" font-family="Helvetica,sans-Serif" font-size="10.00" fill="#000000">include/vlib.h</text>
</a>
</g>
</g>
<!-- Node5&#45;&gt;Node24 -->
<g id="edge24" class="edge">
<title>Node5&#45;&gt;Node24</title>
<path fill="none" stroke="#191970" d="M461.0171,-164.333C510.5136,-153.699 587.1815,-137.2274 632.5114,-127.4885"/>
<polygon fill="#191970" stroke="#191970" points="460.2348,-160.9211 451.1931,-166.4436 461.7052,-167.765 460.2348,-160.9211"/>
</g>
<!-- Node7 -->
<g id="node3" class="node">
<title>Node7</title>
<g id="a_node3"><a xlink:href="controller_8c.html" target="_top" xlink:title="src/controller.c">
<polygon fill="none" stroke="#000000" points="4.4604,-55.5 4.4604,-73.5 84.9282,-73.5 84.9282,-55.5 4.4604,-55.5"/>
<text text-anchor="middle" x="44.6943" y="-61.5" font-family="Helvetica,sans-Serif" font-size="10.00" fill="#000000">src/controller.c</text>
</a>
</g>
</g>
<!-- Node6&#45;&gt;Node7 -->
<g id="edge2" class="edge">
<title>Node6&#45;&gt;Node7</title>
<path fill="none" stroke="#191970" d="M47.9564,-100.383C47.1374,-91.3738 46.1977,-81.0373 45.5379,-73.7795"/>
<polygon fill="#191970" stroke="#191970" points="44.4776,-100.7758 48.8687,-110.4179 51.4489,-100.142 44.4776,-100.7758"/>
</g>
<!-- Node6&#45;&gt;Node8 -->
<g id="edge3" class="edge">
<title>Node6&#45;&gt;Node8</title>
<path fill="none" stroke="#191970" d="M72.3388,-104.6733C87.4762,-94.7619 106.9071,-82.0393 119.8028,-73.5956"/>
<polygon fill="#191970" stroke="#191970" points="70.0142,-102.0118 63.5652,-110.4179 73.8487,-107.8681 70.0142,-102.0118"/>
</g>
<!-- Node9&#45;&gt;Node8 -->
<g id="edge5" class="edge">
<title>Node9&#45;&gt;Node8</title>
<path fill="none" stroke="#191970" d="M177.7528,-103.5841C166.8562,-93.9177 153.3254,-81.9147 144.1548,-73.7795"/>
<polygon fill="#191970" stroke="#191970" points="175.6529,-106.4 185.4563,-110.4179 180.2982,-101.1634 175.6529,-106.4"/>
</g>
<!-- Node11 -->
<g id="node7" class="node">
<title>Node11</title>
<g id="a_node7"><a xlink:href="encoders_8c.html" target="_top" xlink:title="src/encoders.c">
<polygon fill="none" stroke="#000000" points="208.1821,-55.5 208.1821,-73.5 289.2065,-73.5 289.2065,-55.5 208.1821,-55.5"/>
<text text-anchor="middle" x="248.6943" y="-61.5" font-family="Helvetica,sans-Serif" font-size="10.00" fill="#000000">src/encoders.c</text>
</a>
</g>
</g>
<!-- Node10&#45;&gt;Node11 -->
<g id="edge7" class="edge">
<title>Node10&#45;&gt;Node11</title>
<path fill="none" stroke="#191970" d="M287.4935,-103.2992C277.8771,-93.6828 266.0293,-81.8349 257.9738,-73.7795"/>
<polygon fill="#191970" stroke="#191970" points="285.0662,-105.8217 294.6122,-110.4179 290.016,-100.8719 285.0662,-105.8217"/>
</g>
<!-- Node12&#45;&gt;Node13 -->
<g id="edge9" class="edge">
<title>Node12&#45;&gt;Node13</title>
<path fill="none" stroke="#191970" d="M420.0008,-105.6456C401.3831,-95.6067 376.7388,-82.3181 360.5626,-73.5956"/>
<polygon fill="#191970" stroke="#191970" points="418.388,-108.7524 428.8511,-110.4179 421.7103,-102.591 418.388,-108.7524"/>
</g>
<!-- Node12&#45;&gt;Node15 -->
<g id="edge11" class="edge">
<title>Node12&#45;&gt;Node15</title>
<path fill="none" stroke="#191970" d="M463.8846,-103.8678C475.1885,-94.1535 489.3372,-81.9944 498.8964,-73.7795"/>
<polygon fill="#191970" stroke="#191970" points="461.5657,-101.2457 456.2626,-110.4179 466.128,-106.5546 461.5657,-101.2457"/>
</g>
<!-- Node17 -->
<g id="node13" class="node">
<title>Node17</title>
<g id="a_node13"><a xlink:href="lcd_8c.html" target="_top" xlink:title="src/lcd.c">
<polygon fill="none" stroke="#000000" points="397.3594,-55.5 397.3594,-73.5 450.0293,-73.5 450.0293,-55.5 397.3594,-55.5"/>
<text text-anchor="middle" x="423.6943" y="-61.5" font-family="Helvetica,sans-Serif" font-size="10.00" fill="#000000">src/lcd.c</text>
</a>
</g>
</g>
<!-- Node12&#45;&gt;Node17 -->
<g id="edge13" class="edge">
<title>Node12&#45;&gt;Node17</title>
<path fill="none" stroke="#191970" d="M438.2844,-100.9751C434.6262,-91.8297 430.3731,-81.1969 427.4061,-73.7795"/>
<polygon fill="#191970" stroke="#191970" points="435.0978,-102.433 442.0615,-110.4179 441.5972,-99.8332 435.0978,-102.433"/>
</g>
<!-- Node14 -->
<g id="node10" class="node">
<title>Node14</title>
<g id="a_node10"><a xlink:href="log_8c.html" target="_top" xlink:title="src/log.c">
<polygon fill="none" stroke="#000000" points="317.0786,-.5 317.0786,-18.5 370.3101,-18.5 370.3101,-.5 317.0786,-.5"/>
<text text-anchor="middle" x="343.6943" y="-6.5" font-family="Helvetica,sans-Serif" font-size="10.00" fill="#000000">src/log.c</text>
</a>
</g>
</g>
<!-- Node13&#45;&gt;Node14 -->
<g id="edge10" class="edge">
<title>Node13&#45;&gt;Node14</title>
<path fill="none" stroke="#191970" d="M343.6943,-45.383C343.6943,-36.3738 343.6943,-26.0373 343.6943,-18.7795"/>
<polygon fill="#191970" stroke="#191970" points="340.1944,-45.4178 343.6943,-55.4179 347.1944,-45.4179 340.1944,-45.4178"/>
</g>
<!-- Node16 -->
<g id="node12" class="node">
<title>Node16</title>
<g id="a_node12"><a xlink:href="menu_8c.html" target="_top" xlink:title="src/menu.c">
<polygon fill="none" stroke="#000000" points="477.2437,-.5 477.2437,-18.5 542.145,-18.5 542.145,-.5 477.2437,-.5"/>
<text text-anchor="middle" x="509.6943" y="-6.5" font-family="Helvetica,sans-Serif" font-size="10.00" fill="#000000">src/menu.c</text>
</a>
</g>
</g>
<!-- Node15&#45;&gt;Node16 -->
<g id="edge12" class="edge">
<title>Node15&#45;&gt;Node16</title>
<path fill="none" stroke="#191970" d="M509.6943,-45.383C509.6943,-36.3738 509.6943,-26.0373 509.6943,-18.7795"/>
<polygon fill="#191970" stroke="#191970" points="506.1944,-45.4178 509.6943,-55.4179 513.1944,-45.4179 506.1944,-45.4178"/>
</g>
<!-- Node19 -->
<g id="node15" class="node">
<title>Node19</title>
<g id="a_node15"><a xlink:href="auto_8c.html" target="_top" xlink:title="File for autonomous code. ">
<polygon fill="none" stroke="#000000" points="570.0195,-.5 570.0195,-18.5 629.3691,-18.5 629.3691,-.5 570.0195,-.5"/>
<text text-anchor="middle" x="599.6943" y="-6.5" font-family="Helvetica,sans-Serif" font-size="10.00" fill="#000000">src/auto.c</text>
</a>
</g>
</g>
<!-- Node18&#45;&gt;Node19 -->
<g id="edge16" class="edge">
<title>Node18&#45;&gt;Node19</title>
<path fill="none" stroke="#191970" d="M606.2185,-45.383C604.5805,-36.3738 602.7011,-26.0373 601.3815,-18.7795"/>
<polygon fill="#191970" stroke="#191970" points="602.8106,-46.2053 608.043,-55.4179 609.6976,-44.953 602.8106,-46.2053"/>
</g>
<!-- Node20 -->
<g id="node16" class="node">
<title>Node20</title>
<g id="a_node16"><a xlink:href="init_8c.html" target="_top" xlink:title="File for initialization code. ">
<polygon fill="none" stroke="#000000" points="647.3594,-.5 647.3594,-18.5 700.0293,-18.5 700.0293,-.5 647.3594,-.5"/>
<text text-anchor="middle" x="673.6943" y="-6.5" font-family="Helvetica,sans-Serif" font-size="10.00" fill="#000000">src/init.c</text>
</a>
</g>
</g>
<!-- Node18&#45;&gt;Node20 -->
<g id="edge17" class="edge">
<title>Node18&#45;&gt;Node20</title>
<path fill="none" stroke="#191970" d="M627.8846,-48.8678C639.1885,-39.1535 653.3372,-26.9944 662.8964,-18.7795"/>
<polygon fill="#191970" stroke="#191970" points="625.5657,-46.2457 620.2626,-55.4179 630.128,-51.5546 625.5657,-46.2457"/>
</g>
<!-- Node21 -->
<g id="node17" class="node">
<title>Node21</title>
<g id="a_node17"><a xlink:href="opcontrol_8c.html" target="_top" xlink:title="File for operator control code. ">
<polygon fill="none" stroke="#000000" points="718.1821,-.5 718.1821,-18.5 799.2065,-18.5 799.2065,-.5 718.1821,-.5"/>
<text text-anchor="middle" x="758.6943" y="-6.5" font-family="Helvetica,sans-Serif" font-size="10.00" fill="#000000">src/opcontrol.c</text>
</a>
</g>
</g>
<!-- Node18&#45;&gt;Node21 -->
<g id="edge18" class="edge">
<title>Node18&#45;&gt;Node21</title>
<path fill="none" stroke="#191970" d="M643.9202,-51.8663C671.4437,-41.7066 709.4524,-27.6765 734.0535,-18.5956"/>
<polygon fill="#191970" stroke="#191970" points="642.4679,-48.6715 634.2987,-55.4179 644.892,-55.2384 642.4679,-48.6715"/>
</g>
<!-- Node22&#45;&gt;Node20 -->
<g id="edge21" class="edge">
<title>Node22&#45;&gt;Node20</title>
<path fill="none" stroke="#191970" d="M754.0084,-50.7829C734.4473,-40.7282 708.4361,-27.3579 691.3895,-18.5956"/>
<polygon fill="#191970" stroke="#191970" points="752.5315,-53.9591 763.0255,-55.4179 755.7317,-47.7334 752.5315,-53.9591"/>
</g>
<!-- Node22&#45;&gt;Node21 -->
<g id="edge22" class="edge">
<title>Node22&#45;&gt;Node21</title>
<path fill="none" stroke="#191970" d="M773.2844,-45.9751C769.6262,-36.8297 765.3731,-26.1969 762.4061,-18.7795"/>
<polygon fill="#191970" stroke="#191970" points="770.0978,-47.433 777.0615,-55.4179 776.5972,-44.8332 770.0978,-47.433"/>
</g>
<!-- Node23 -->
<g id="node19" class="node">
<title>Node23</title>
<g id="a_node19"><a xlink:href="slew_8c.html" target="_top" xlink:title="src/slew.c">
<polygon fill="none" stroke="#000000" points="817.022,-.5 817.022,-18.5 876.3667,-18.5 876.3667,-.5 817.022,-.5"/>
<text text-anchor="middle" x="846.6943" y="-6.5" font-family="Helvetica,sans-Serif" font-size="10.00" fill="#000000">src/slew.c</text>
</a>
</g>
</g>
<!-- Node22&#45;&gt;Node23 -->
<g id="edge23" class="edge">
<title>Node22&#45;&gt;Node23</title>
<path fill="none" stroke="#191970" d="M799.453,-48.8678C811.1102,-39.1535 825.701,-26.9944 835.559,-18.7795"/>
<polygon fill="#191970" stroke="#191970" points="797.0345,-46.3272 791.5929,-55.4179 801.5158,-51.7048 797.0345,-46.3272"/>
</g>
<!-- Node24&#45;&gt;Node15 -->
<g id="edge25" class="edge">
<title>Node24&#45;&gt;Node15</title>
<path fill="none" stroke="#191970" d="M633.6868,-107.1224C603.9768,-96.9096 562.5189,-82.6584 535.8884,-73.5042"/>
<polygon fill="#191970" stroke="#191970" points="632.6789,-110.4769 643.2736,-110.4179 634.9545,-103.8571 632.6789,-110.4769"/>
</g>
<!-- Node24&#45;&gt;Node22 -->
<g id="edge26" class="edge">
<title>Node24&#45;&gt;Node22</title>
<path fill="none" stroke="#191970" d="M697.1016,-105.9198C717.4247,-95.8498 744.5734,-82.3977 762.3377,-73.5956"/>
<polygon fill="#191970" stroke="#191970" points="695.4301,-102.8419 688.0237,-110.4179 698.5381,-109.1141 695.4301,-102.8419"/>
</g>
<!-- Node25 -->
<g id="node21" class="node">
<title>Node25</title>
<g id="a_node21"><a xlink:href="vlib_8c.html" target="_top" xlink:title="src/vlib.c">
<polygon fill="none" stroke="#000000" points="668.2485,-55.5 668.2485,-73.5 723.1401,-73.5 723.1401,-55.5 668.2485,-55.5"/>
<text text-anchor="middle" x="695.6943" y="-61.5" font-family="Helvetica,sans-Serif" font-size="10.00" fill="#000000">src/vlib.c</text>
</a>
</g>
</g>
<!-- Node24&#45;&gt;Node25 -->
<g id="edge27" class="edge">
<title>Node24&#45;&gt;Node25</title>
<path fill="none" stroke="#191970" d="M678.3124,-101.2696C682.6666,-92.0587 687.7636,-81.2766 691.3077,-73.7795"/>
<polygon fill="#191970" stroke="#191970" points="675.0973,-99.8813 673.9877,-110.4179 681.4258,-102.873 675.0973,-99.8813"/>
</g>
</g>
</svg>
