<?xml version="1.0" encoding="UTF-8" standalone="no"?>
<!DOCTYPE svg PUBLIC "-//W3C//DTD SVG 1.1//EN"
 "http://www.w3.org/Graphics/SVG/1.1/DTD/svg11.dtd">
<!-- Generated by graphviz version 2.40.1 (20161225.0304)
 -->
<!-- Title: printf Pages: 1 -->
<svg width="445pt" height="288pt"
 viewBox="0.00 0.00 445.15 288.00" xmlns="http://www.w3.org/2000/svg" xmlns:xlink="http://www.w3.org/1999/xlink">
<g id="graph0" class="graph" transform="scale(1 1) rotate(0) translate(4 284)">
<title>printf</title>
<!-- Node185 -->
<g id="node1" class="node">
<title>Node185</title>
<polygon fill="#bfbfbf" stroke="#000000" points="0,-166.5 0,-184.5 38.2314,-184.5 38.2314,-166.5 0,-166.5"/>
<text text-anchor="middle" x="19.1157" y="-172.5" font-family="Helvetica,sans-Serif" font-size="10.00" fill="#000000">printf</text>
</g>
<!-- Node186 -->
<g id="node2" class="node">
<title>Node186</title>
<g id="a_node2"><a xlink:href="log_8c.html#af3668f40d1ad1b4f3418869ac9a31f34" target="_top" xlink:title="prints a info message ">
<polygon fill="none" stroke="#000000" points="83.1157,-222.5 83.1157,-240.5 126.9233,-240.5 126.9233,-222.5 83.1157,-222.5"/>
<text text-anchor="middle" x="105.0195" y="-228.5" font-family="Helvetica,sans-Serif" font-size="10.00" fill="#000000">debug</text>
</a>
</g>
</g>
<!-- Node185&#45;&gt;Node186 -->
<g id="edge1" class="edge">
<title>Node185&#45;&gt;Node186</title>
<path fill="none" stroke="#191970" d="M41.1628,-190.5812C51.1934,-197.37 63.2515,-205.4302 74.2314,-212.5 79.3012,-215.7643 84.8982,-219.2523 89.9141,-222.3371"/>
<polygon fill="#191970" stroke="#191970" points="42.8482,-187.4949 32.61,-184.769 38.9137,-193.2845 42.8482,-187.4949"/>
</g>
<!-- Node187 -->
<g id="node3" class="node">
<title>Node187</title>
<g id="a_node3"><a xlink:href="log_8c.html#a1606d750e1bb8de9f9e917172bba3382" target="_top" xlink:title="prints a info message ">
<polygon fill="none" stroke="#000000" points="88.958,-185.5 88.958,-203.5 121.0811,-203.5 121.0811,-185.5 88.958,-185.5"/>
<text text-anchor="middle" x="105.0195" y="-191.5" font-family="Helvetica,sans-Serif" font-size="10.00" fill="#000000">info</text>
</a>
</g>
</g>
<!-- Node185&#45;&gt;Node187 -->
<g id="edge2" class="edge">
<title>Node185&#45;&gt;Node187</title>
<path fill="none" stroke="#191970" d="M48.4327,-181.9843C61.9228,-184.968 77.415,-188.3945 88.7749,-190.9071"/>
<polygon fill="#191970" stroke="#191970" points="49.1285,-178.5536 38.6086,-179.8114 47.6168,-185.3885 49.1285,-178.5536"/>
</g>
<!-- Node188 -->
<g id="node4" class="node">
<title>Node188</title>
<g id="a_node4"><a xlink:href="lcd_8c.html#a07f04b524b5ded617d5f193db05ba0ad" target="_top" xlink:title="lcd_assert">
<polygon fill="none" stroke="#000000" points="74.2314,-148.5 74.2314,-166.5 135.8076,-166.5 135.8076,-148.5 74.2314,-148.5"/>
<text text-anchor="middle" x="105.0195" y="-154.5" font-family="Helvetica,sans-Serif" font-size="10.00" fill="#000000">lcd_assert</text>
</a>
</g>
</g>
<!-- Node185&#45;&gt;Node188 -->
<g id="edge3" class="edge">
<title>Node185&#45;&gt;Node188</title>
<path fill="none" stroke="#191970" d="M48.5625,-169.3298C56.8168,-167.6002 65.812,-165.7154 74.1466,-163.969"/>
<polygon fill="#191970" stroke="#191970" points="47.6783,-165.939 38.6086,-171.4155 49.1139,-172.7902 47.6783,-165.939"/>
</g>
<!-- Node196 -->
<g id="node12" class="node">
<title>Node196</title>
<g id="a_node12"><a xlink:href="log_8c.html#afff22aff6749311a684a559cac3ac8bd" target="_top" xlink:title="log_info">
<polygon fill="none" stroke="#000000" points="79.5049,-37.5 79.5049,-55.5 130.5342,-55.5 130.5342,-37.5 79.5049,-37.5"/>
<text text-anchor="middle" x="105.0195" y="-43.5" font-family="Helvetica,sans-Serif" font-size="10.00" fill="#000000">log_info</text>
</a>
</g>
</g>
<!-- Node185&#45;&gt;Node196 -->
<g id="edge14" class="edge">
<title>Node185&#45;&gt;Node196</title>
<path fill="none" stroke="#191970" d="M30.8763,-157.8393C49.3979,-130.0259 84.7128,-76.9942 98.8975,-55.6933"/>
<polygon fill="#191970" stroke="#191970" points="27.9233,-155.9593 25.2937,-166.2226 33.7496,-159.8392 27.9233,-155.9593"/>
</g>
<!-- Node189 -->
<g id="node5" class="node">
<title>Node189</title>
<g id="a_node5"><a xlink:href="lcd_8c.html#ac7b3225ccc82fcbe067ba9da934f010d" target="_top" xlink:title="Returns the pressed buttons. ">
<polygon fill="none" stroke="#000000" points="171.8076,-261.5 171.8076,-279.5 299.5557,-279.5 299.5557,-261.5 171.8076,-261.5"/>
<text text-anchor="middle" x="235.6816" y="-267.5" font-family="Helvetica,sans-Serif" font-size="10.00" fill="#000000">lcd_get_pressed_buttons</text>
</a>
</g>
</g>
<!-- Node188&#45;&gt;Node189 -->
<g id="edge4" class="edge">
<title>Node188&#45;&gt;Node189</title>
<path fill="none" stroke="#191970" d="M132.9519,-172.6806C133.958,-173.5823 134.9157,-174.5223 135.8076,-175.5 161.2679,-203.4094 143.0129,-228.0455 171.8076,-252.5 176.1106,-256.1544 181.1064,-259.0693 186.3723,-261.3939"/>
<polygon fill="#191970" stroke="#191970" points="134.7059,-169.6263 124.5746,-166.5266 130.5616,-175.2677 134.7059,-169.6263"/>
</g>
<!-- Node190 -->
<g id="node6" class="node">
<title>Node190</title>
<g id="a_node6"><a xlink:href="lcd_8c.html#a99f4683e1990edf624ab216bf327cba4" target="_top" xlink:title="Prompts the user to confirm a string. User must press middle button to confirm. Function is not threa...">
<polygon fill="none" stroke="#000000" points="335.5557,-224.5 335.5557,-242.5 437.1465,-242.5 437.1465,-224.5 335.5557,-224.5"/>
<text text-anchor="middle" x="386.3511" y="-230.5" font-family="Helvetica,sans-Serif" font-size="10.00" fill="#000000">promt_confirmation</text>
</a>
</g>
</g>
<!-- Node188&#45;&gt;Node190 -->
<g id="edge13" class="edge">
<title>Node188&#45;&gt;Node190</title>
<path fill="none" stroke="#191970" d="M145.8386,-168.527C201.7129,-183.6211 300.9708,-210.435 352.7743,-224.4294"/>
<polygon fill="#191970" stroke="#191970" points="146.4984,-165.0799 135.9317,-165.8507 144.6728,-171.8376 146.4984,-165.0799"/>
</g>
<!-- Node192 -->
<g id="node8" class="node">
<title>Node192</title>
<g id="a_node8"><a xlink:href="lcd_8c.html#a35c08b1fa742e650f4873939707b893b" target="_top" xlink:title="Clears the lcd. ">
<polygon fill="none" stroke="#000000" points="207.6719,-148.5 207.6719,-166.5 263.6914,-166.5 263.6914,-148.5 207.6719,-148.5"/>
<text text-anchor="middle" x="235.6816" y="-154.5" font-family="Helvetica,sans-Serif" font-size="10.00" fill="#000000">lcd_clear</text>
</a>
</g>
</g>
<!-- Node188&#45;&gt;Node192 -->
<g id="edge7" class="edge">
<title>Node188&#45;&gt;Node192</title>
<path fill="none" stroke="#191970" d="M146.0834,-157.5C166.1061,-157.5 189.6736,-157.5 207.6112,-157.5"/>
<polygon fill="#191970" stroke="#191970" points="145.9847,-154.0001 135.9846,-157.5 145.9846,-161.0001 145.9847,-154.0001"/>
</g>
<!-- Node193 -->
<g id="node9" class="node">
<title>Node193</title>
<g id="a_node9"><a xlink:href="lcd_8c.html#adabd3f7cdda45119604b488caf22bba8" target="_top" xlink:title="prints a string to a line on the lcd ">
<polygon fill="none" stroke="#000000" points="208.7827,-224.5 208.7827,-242.5 262.5806,-242.5 262.5806,-224.5 208.7827,-224.5"/>
<text text-anchor="middle" x="235.6816" y="-230.5" font-family="Helvetica,sans-Serif" font-size="10.00" fill="#000000">lcd_print</text>
</a>
</g>
</g>
<!-- Node188&#45;&gt;Node193 -->
<g id="edge8" class="edge">
<title>Node188&#45;&gt;Node193</title>
<path fill="none" stroke="#191970" d="M130.8024,-171.9713C132.5254,-173.1216 134.2095,-174.3028 135.8076,-175.5 153.4213,-188.6949 153.1395,-197.8447 171.8076,-209.5 183.062,-216.5266 196.6946,-221.9986 208.4705,-225.9315"/>
<polygon fill="#191970" stroke="#191970" points="132.4207,-168.8562 122.0805,-166.5472 128.724,-174.8004 132.4207,-168.8562"/>
</g>
<!-- Node194 -->
<g id="node10" class="node">
<title>Node194</title>
<g id="a_node10"><a xlink:href="lcd_8c.html#aa0d4ca88701dfecf98796e2028482b69" target="_top" xlink:title="prints a formated string to a line on the lcd. Smilar to printf ">
<polygon fill="none" stroke="#000000" points="207.3936,-111.5 207.3936,-129.5 263.9697,-129.5 263.9697,-111.5 207.3936,-111.5"/>
<text text-anchor="middle" x="235.6816" y="-117.5" font-family="Helvetica,sans-Serif" font-size="10.00" fill="#000000">lcd_printf</text>
</a>
</g>
</g>
<!-- Node188&#45;&gt;Node194 -->
<g id="edge11" class="edge">
<title>Node188&#45;&gt;Node194</title>
<path fill="none" stroke="#191970" d="M145.7761,-145.8881C154.3719,-143.444 163.3873,-140.8842 171.8076,-138.5 183.4472,-135.2043 196.2841,-131.584 207.3781,-128.4598"/>
<polygon fill="#191970" stroke="#191970" points="144.5994,-142.5839 135.9388,-148.6868 146.5149,-149.3168 144.5994,-142.5839"/>
</g>
<!-- Node195 -->
<g id="node11" class="node">
<title>Node195</title>
<g id="a_node11"><a xlink:href="lcd_8c.html#a245902a4d48a6d9bd1ab308bf9b7e6b5" target="_top" xlink:title="sets the backlight of the lcd ">
<polygon fill="none" stroke="#000000" points="189.3247,-74.5 189.3247,-92.5 282.0386,-92.5 282.0386,-74.5 189.3247,-74.5"/>
<text text-anchor="middle" x="235.6816" y="-80.5" font-family="Helvetica,sans-Serif" font-size="10.00" fill="#000000">lcd_set_backlight</text>
</a>
</g>
</g>
<!-- Node188&#45;&gt;Node195 -->
<g id="edge12" class="edge">
<title>Node188&#45;&gt;Node195</title>
<path fill="none" stroke="#191970" d="M120.6626,-141.0212C133.3641,-128.5287 152.3091,-111.8058 171.8076,-101.5 178.6322,-97.8929 186.2597,-94.941 193.8023,-92.5483"/>
<polygon fill="#191970" stroke="#191970" points="118.1504,-138.5841 113.6119,-148.1577 123.1299,-143.5039 118.1504,-138.5841"/>
</g>
<!-- Node189&#45;&gt;Node190 -->
<g id="edge5" class="edge">
<title>Node189&#45;&gt;Node190</title>
<path fill="none" stroke="#191970" d="M282.4977,-259.0033C304.1124,-253.6954 329.4016,-247.4851 349.6129,-242.5218"/>
<polygon fill="#191970" stroke="#191970" points="281.4163,-255.6648 272.5395,-261.4488 283.0857,-262.4629 281.4163,-255.6648"/>
</g>
<!-- Node191 -->
<g id="node7" class="node">
<title>Node191</title>
<g id="a_node7"><a xlink:href="menu_8c.html#abfadedb104f89f672dd3045499975a71" target="_top" xlink:title="Displays a menu context, but does not display. &#160;Menu must be freed or will cause memory leak! &#160;Will e...">
<polygon fill="none" stroke="#000000" points="347.499,-261.5 347.499,-279.5 425.2031,-279.5 425.2031,-261.5 347.499,-261.5"/>
<text text-anchor="middle" x="386.3511" y="-267.5" font-family="Helvetica,sans-Serif" font-size="10.00" fill="#000000">display_menu</text>
</a>
</g>
</g>
<!-- Node189&#45;&gt;Node191 -->
<g id="edge6" class="edge">
<title>Node189&#45;&gt;Node191</title>
<path fill="none" stroke="#191970" d="M309.8989,-270.5C322.8148,-270.5 335.7745,-270.5 347.259,-270.5"/>
<polygon fill="#191970" stroke="#191970" points="309.5791,-267.0001 299.579,-270.5 309.579,-274.0001 309.5791,-267.0001"/>
</g>
<!-- Node193&#45;&gt;Node190 -->
<g id="edge9" class="edge">
<title>Node193&#45;&gt;Node190</title>
<path fill="none" stroke="#191970" d="M272.8652,-233.5C291.6841,-233.5 314.8181,-233.5 335.2789,-233.5"/>
<polygon fill="#191970" stroke="#191970" points="272.6184,-230.0001 262.6183,-233.5 272.6183,-237.0001 272.6184,-230.0001"/>
</g>
<!-- Node193&#45;&gt;Node191 -->
<g id="edge10" class="edge">
<title>Node193&#45;&gt;Node191</title>
<path fill="none" stroke="#191970" d="M272.5127,-242.5446C295.9008,-248.2881 326.0604,-255.6944 349.46,-261.4406"/>
<polygon fill="#191970" stroke="#191970" points="273.1645,-239.1008 262.6183,-240.1149 271.4951,-245.8988 273.1645,-239.1008"/>
</g>
<!-- Node197 -->
<g id="node13" class="node">
<title>Node197</title>
<g id="a_node13"><a xlink:href="log_8c.html#a8e5bb8a2a372f5b066ff7af7044584c1" target="_top" xlink:title="prints a error message and displays on lcd. Only will print and display if log_level is greater than ...">
<polygon fill="none" stroke="#000000" points="217.125,-37.5 217.125,-55.5 254.2383,-55.5 254.2383,-37.5 217.125,-37.5"/>
<text text-anchor="middle" x="235.6816" y="-43.5" font-family="Helvetica,sans-Serif" font-size="10.00" fill="#000000">error</text>
</a>
</g>
</g>
<!-- Node196&#45;&gt;Node197 -->
<g id="edge15" class="edge">
<title>Node196&#45;&gt;Node197</title>
<path fill="none" stroke="#191970" d="M140.917,-46.5C165.5843,-46.5 197.3294,-46.5 217.0932,-46.5"/>
<polygon fill="#191970" stroke="#191970" points="140.8342,-43.0001 130.8342,-46.5 140.8341,-50.0001 140.8342,-43.0001"/>
</g>
<!-- Node198 -->
<g id="node14" class="node">
<title>Node198</title>
<g id="a_node14"><a xlink:href="log_8c.html#a0bec2cf5fff7f607bc510b74aba9887c" target="_top" xlink:title="prints a warning message and displays on lcd. Only will print and display if log_level is greater tha...">
<polygon fill="none" stroke="#000000" points="210.1719,-.5 210.1719,-18.5 261.1914,-18.5 261.1914,-.5 210.1719,-.5"/>
<text text-anchor="middle" x="235.6816" y="-6.5" font-family="Helvetica,sans-Serif" font-size="10.00" fill="#000000">warning</text>
</a>
</g>
</g>
<!-- Node196&#45;&gt;Node198 -->
<g id="edge16" class="edge">
<title>Node196&#45;&gt;Node198</title>
<path fill="none" stroke="#191970" d="M140.4562,-36.4012C150.5815,-33.5205 161.6293,-30.3819 171.8076,-27.5 184.3341,-23.9532 198.2472,-20.0305 209.8822,-16.7547"/>
<polygon fill="#191970" stroke="#191970" points="139.3645,-33.0729 130.7048,-39.1769 141.281,-39.8055 139.3645,-33.0729"/>
</g>
</g>
</svg>
