<?xml version="1.0" encoding="UTF-8" standalone="no"?>
<!DOCTYPE svg PUBLIC "-//W3C//DTD SVG 1.1//EN"
 "http://www.w3.org/Graphics/SVG/1.1/DTD/svg11.dtd">
<!-- Generated by graphviz version 2.40.1 (20161225.0304)
 -->
<!-- Title: lcdClear Pages: 1 -->
<!--zoomable 478 -->
<svg id="main" version="1.1" xmlns="http://www.w3.org/2000/svg" xmlns:xlink="http://www.w3.org/1999/xlink" xml:space="preserve" onload="init(evt)">
<style type="text/css"><![CDATA[
.edge:hover path { stroke: red; }
.edge:hover polygon { stroke: red; fill: red; }
]]></style>
<script type="text/javascript"><![CDATA[
var edges = document.getElementsByTagName('g');
if (edges && edges.length) {
  for (var i=0;i<edges.length;i++) {
    if (edges[i].id.substr(0,4)=='edge') {
      edges[i].setAttribute('class','edge');
    }
  }
}
]]></script>
        <defs>
                <circle id="rim" cx="0" cy="0" r="7"/>
                <circle id="rim2" cx="0" cy="0" r="3.5"/>
                <g id="zoomPlus">
                        <use xlink:href="#rim" fill="#404040">
                                <set attributeName="fill" to="#808080" begin="zoomplus.mouseover" end="zoomplus.mouseout"/>
                        </use>
                        <path d="M-4,0h8M0,-4v8" fill="none" stroke="white" stroke-width="1.5" pointer-events="none"/>
                </g>
                <g id="zoomMin">
                        <use xlink:href="#rim" fill="#404040">
                                <set attributeName="fill" to="#808080" begin="zoomminus.mouseover" end="zoomminus.mouseout"/>
                        </use>
                        <path d="M-4,0h8" fill="none" stroke="white" stroke-width="1.5" pointer-events="none"/>
                </g>
                <g id="dirArrow">
                        <path fill="none" stroke="white" stroke-width="1.5" d="M0,-3.0v7 M-2.5,-0.5L0,-3.0L2.5,-0.5"/>
                </g>
               <g id="resetDef">
                       <use xlink:href="#rim2" fill="#404040">
                               <set attributeName="fill" to="#808080" begin="reset.mouseover" end="reset.mouseout"/>
                       </use>
               </g>
        </defs>

<script type="text/javascript">
var viewWidth = 1021;
var viewHeight = 478;
var sectionId = 'dynsection-14';
</script>
<script xlink:href="svgpan.js"/>
<svg id="graph" class="graph">
<g id="viewport">
<title>lcdClear</title>
<!-- Node125 -->
<g id="node1" class="node">
<title>Node125</title>
<polygon fill="#bfbfbf" stroke="#000000" points="0,-376.5 0,-394.5 52.6797,-394.5 52.6797,-376.5 0,-376.5"/>
<text text-anchor="middle" x="26.3398" y="-382.5" font-family="Helvetica,sans-Serif" font-size="10.00" fill="#000000">lcdClear</text>
</g>
<!-- Node126 -->
<g id="node2" class="node">
<title>Node126</title>
<g id="a_node2"><a xlink:href="lcd_8c.html#a93b26f37d6b1687ad54c90feedfd29ca" target="_top" xlink:title="Initializes the lcd screen. Also will initialize the lcd_port var. Must be called before any lcd func...">
<polygon fill="none" stroke="#000000" points="88.6797,-413.5 88.6797,-431.5 163.0439,-431.5 163.0439,-413.5 88.6797,-413.5"/>
<text text-anchor="middle" x="125.8618" y="-419.5" font-family="Helvetica,sans-Serif" font-size="10.00" fill="#000000">init_main_lcd</text>
</a>
</g>
</g>
<!-- Node125&#45;&gt;Node126 -->
<g id="edge1" class="edge">
<title>Node125&#45;&gt;Node126</title>
<path fill="none" stroke="#191970" d="M60.1654,-398.0756C73.7021,-403.1082 88.9979,-408.7948 101.4224,-413.414"/>
<polygon fill="#191970" stroke="#191970" points="61.2785,-394.7554 50.6857,-394.5512 58.8392,-401.3166 61.2785,-394.7554"/>
</g>
<!-- Node127 -->
<g id="node3" class="node">
<title>Node127</title>
<g id="a_node3"><a xlink:href="lcd_8c.html#a35c08b1fa742e650f4873939707b893b" target="_top" xlink:title="Clears the lcd. ">
<polygon fill="none" stroke="#000000" points="97.8521,-376.5 97.8521,-394.5 153.8716,-394.5 153.8716,-376.5 97.8521,-376.5"/>
<text text-anchor="middle" x="125.8618" y="-382.5" font-family="Helvetica,sans-Serif" font-size="10.00" fill="#000000">lcd_clear</text>
</a>
</g>
</g>
<!-- Node125&#45;&gt;Node127 -->
<g id="edge2" class="edge">
<title>Node125&#45;&gt;Node127</title>
<path fill="none" stroke="#191970" d="M62.9018,-385.5C74.3484,-385.5 86.7993,-385.5 97.5841,-385.5"/>
<polygon fill="#191970" stroke="#191970" points="62.7487,-382.0001 52.7486,-385.5 62.7486,-389.0001 62.7487,-382.0001"/>
</g>
<!-- Node128 -->
<g id="node4" class="node">
<title>Node128</title>
<g id="a_node4"><a xlink:href="log_8c.html#afff22aff6749311a684a559cac3ac8bd" target="_top" xlink:title="log_info">
<polygon fill="none" stroke="#000000" points="100.3472,-339.5 100.3472,-357.5 151.3765,-357.5 151.3765,-339.5 100.3472,-339.5"/>
<text text-anchor="middle" x="125.8618" y="-345.5" font-family="Helvetica,sans-Serif" font-size="10.00" fill="#000000">log_info</text>
</a>
</g>
</g>
<!-- Node125&#45;&gt;Node128 -->
<g id="edge3" class="edge">
<title>Node125&#45;&gt;Node128</title>
<path fill="none" stroke="#191970" d="M60.1654,-372.9244C73.7021,-367.8918 88.9979,-362.2052 101.4224,-357.586"/>
<polygon fill="#191970" stroke="#191970" points="58.8392,-369.6834 50.6857,-376.4488 61.2785,-376.2446 58.8392,-369.6834"/>
</g>
<!-- Node129 -->
<g id="node5" class="node">
<title>Node129</title>
<g id="a_node5"><a xlink:href="log_8c.html#a8e5bb8a2a372f5b066ff7af7044584c1" target="_top" xlink:title="prints a error message and displays on lcd. Only will print and display if log_level is greater than ...">
<polygon fill="none" stroke="#000000" points="205.9971,-367.5 205.9971,-385.5 243.1104,-385.5 243.1104,-367.5 205.9971,-367.5"/>
<text text-anchor="middle" x="224.5537" y="-373.5" font-family="Helvetica,sans-Serif" font-size="10.00" fill="#000000">error</text>
</a>
</g>
</g>
<!-- Node128&#45;&gt;Node129 -->
<g id="edge4" class="edge">
<title>Node128&#45;&gt;Node129</title>
<path fill="none" stroke="#191970" d="M161.5515,-358.6256C176.5519,-362.8813 193.3798,-367.6556 205.8681,-371.1987"/>
<polygon fill="#191970" stroke="#191970" points="162.1099,-355.1459 151.5343,-355.7836 160.1993,-361.8801 162.1099,-355.1459"/>
</g>
<!-- Node134 -->
<g id="node10" class="node">
<title>Node134</title>
<g id="a_node10"><a xlink:href="log_8c.html#a0bec2cf5fff7f607bc510b74aba9887c" target="_top" xlink:title="prints a warning message and displays on lcd. Only will print and display if log_level is greater tha...">
<polygon fill="none" stroke="#000000" points="199.0439,-321.5 199.0439,-339.5 250.0635,-339.5 250.0635,-321.5 199.0439,-321.5"/>
<text text-anchor="middle" x="224.5537" y="-327.5" font-family="Helvetica,sans-Serif" font-size="10.00" fill="#000000">warning</text>
</a>
</g>
</g>
<!-- Node128&#45;&gt;Node134 -->
<g id="edge9" class="edge">
<title>Node128&#45;&gt;Node134</title>
<path fill="none" stroke="#191970" d="M161.5747,-341.9865C173.9669,-339.7263 187.6038,-337.2391 199.0097,-335.1589"/>
<polygon fill="#191970" stroke="#191970" points="160.744,-338.5802 151.5343,-343.8177 162.0001,-345.4666 160.744,-338.5802"/>
</g>
<!-- Node130 -->
<g id="node6" class="node">
<title>Node130</title>
<g id="a_node6"><a xlink:href="menu_8c.html#aff4fd27ff7707295d91c67fa52a6b021" target="_top" xlink:title="create_menu">
<polygon fill="none" stroke="#000000" points="286.0635,-395.5 286.0635,-413.5 360.4326,-413.5 360.4326,-395.5 286.0635,-395.5"/>
<text text-anchor="middle" x="323.248" y="-401.5" font-family="Helvetica,sans-Serif" font-size="10.00" fill="#000000">create_menu</text>
</a>
</g>
</g>
<!-- Node129&#45;&gt;Node130 -->
<g id="edge5" class="edge">
<title>Node129&#45;&gt;Node130</title>
<path fill="none" stroke="#191970" d="M253.0001,-384.5703C264.9362,-387.9567 278.8736,-391.9108 291.1729,-395.4001"/>
<polygon fill="#191970" stroke="#191970" points="253.693,-381.1289 243.1174,-381.7666 251.7824,-387.8631 253.693,-381.1289"/>
</g>
<!-- Node131 -->
<g id="node7" class="node">
<title>Node131</title>
<g id="a_node7"><a xlink:href="menu_8c.html#a3529988b0a7c12cb3f2ebb3cf5595594" target="_top" xlink:title="Creates a menu context, but does not display. &#160;Menu must be freed or will cause memory leak &#160;...">
<polygon fill="none" stroke="#000000" points="413.1025,-451.5 413.1025,-469.5 491.915,-469.5 491.915,-451.5 413.1025,-451.5"/>
<text text-anchor="middle" x="452.5088" y="-457.5" font-family="Helvetica,sans-Serif" font-size="10.00" fill="#000000">init_menu_var</text>
</a>
</g>
</g>
<!-- Node130&#45;&gt;Node131 -->
<g id="edge6" class="edge">
<title>Node130&#45;&gt;Node131</title>
<path fill="none" stroke="#191970" d="M347.837,-418.5898C361.8102,-426.258 379.7897,-435.5661 396.4326,-442.5 404.2664,-445.7638 412.9151,-448.8033 421.0268,-451.421"/>
<polygon fill="#191970" stroke="#191970" points="349.3079,-415.4028 338.8689,-413.5923 345.9005,-421.5175 349.3079,-415.4028"/>
</g>
<!-- Node132 -->
<g id="node8" class="node">
<title>Node132</title>
<g id="a_node8"><a xlink:href="menu_8c.html#ac8efedba760ec35ebf841ab19543ba5a" target="_top" xlink:title="Creates a menu context, but does not display. &#160;Menu must be freed or will cause memory leak &#160;...">
<polygon fill="none" stroke="#000000" points="414.7676,-414.5 414.7676,-432.5 490.25,-432.5 490.25,-414.5 414.7676,-414.5"/>
<text text-anchor="middle" x="452.5088" y="-420.5" font-family="Helvetica,sans-Serif" font-size="10.00" fill="#000000">init_menu_int</text>
</a>
</g>
</g>
<!-- Node130&#45;&gt;Node132 -->
<g id="edge7" class="edge">
<title>Node130&#45;&gt;Node132</title>
<path fill="none" stroke="#191970" d="M370.9033,-411.5048C385.3629,-413.6303 401.0427,-415.935 414.7574,-417.9509"/>
<polygon fill="#191970" stroke="#191970" points="371.0383,-407.9871 360.6356,-409.9956 370.0203,-414.9127 371.0383,-407.9871"/>
</g>
<!-- Node133 -->
<g id="node9" class="node">
<title>Node133</title>
<g id="a_node9"><a xlink:href="menu_8c.html#a5abb752733423805f59ef3b92e3c2e57" target="_top" xlink:title="Creates a menu context, but does not display. &#160;Menu must be freed or will cause memory leak! &#160;...">
<polygon fill="none" stroke="#000000" points="410.5977,-377.5 410.5977,-395.5 494.4199,-395.5 494.4199,-377.5 410.5977,-377.5"/>
<text text-anchor="middle" x="452.5088" y="-383.5" font-family="Helvetica,sans-Serif" font-size="10.00" fill="#000000">init_menu_float</text>
</a>
</g>
</g>
<!-- Node130&#45;&gt;Node133 -->
<g id="edge8" class="edge">
<title>Node130&#45;&gt;Node133</title>
<path fill="none" stroke="#191970" d="M370.7482,-397.8854C383.6755,-396.0853 397.5882,-394.1479 410.2064,-392.3908"/>
<polygon fill="#191970" stroke="#191970" points="370.0573,-394.4478 360.6356,-399.2937 371.0228,-401.3809 370.0573,-394.4478"/>
</g>
<!-- Node135 -->
<g id="node11" class="node">
<title>Node135</title>
<g id="a_node11"><a xlink:href="slew_8c.html#a321758941d88b75783955c819bb75005" target="_top" xlink:title="Initializes the slew rate controller. ">
<polygon fill="none" stroke="#000000" points="296.0732,-302.5 296.0732,-320.5 350.4229,-320.5 350.4229,-302.5 296.0732,-302.5"/>
<text text-anchor="middle" x="323.248" y="-308.5" font-family="Helvetica,sans-Serif" font-size="10.00" fill="#000000">init_slew</text>
</a>
</g>
</g>
<!-- Node134&#45;&gt;Node135 -->
<g id="edge10" class="edge">
<title>Node134&#45;&gt;Node135</title>
<path fill="none" stroke="#191970" d="M260.2181,-323.6341C272.0043,-321.3651 284.9212,-318.8784 295.9762,-316.7502"/>
<polygon fill="#191970" stroke="#191970" points="259.3849,-320.2302 250.2268,-325.5576 260.7082,-327.104 259.3849,-320.2302"/>
</g>
<!-- Node136 -->
<g id="node12" class="node">
<title>Node136</title>
<g id="a_node12"><a xlink:href="init_8c.html#a25a40b6614565f755233080a384c35f1" target="_top" xlink:title="initialize">
<polygon fill="none" stroke="#000000" points="426.7231,-340.5 426.7231,-358.5 478.2944,-358.5 478.2944,-340.5 426.7231,-340.5"/>
<text text-anchor="middle" x="452.5088" y="-346.5" font-family="Helvetica,sans-Serif" font-size="10.00" fill="#000000">initialize</text>
</a>
</g>
</g>
<!-- Node135&#45;&gt;Node136 -->
<g id="edge11" class="edge">
<title>Node135&#45;&gt;Node136</title>
<path fill="none" stroke="#191970" d="M360.2998,-322.3925C381.4552,-328.6117 407.4628,-336.2574 426.4579,-341.8416"/>
<polygon fill="#191970" stroke="#191970" points="361.2421,-319.0214 350.6609,-319.5588 359.2678,-325.7372 361.2421,-319.0214"/>
</g>
<!-- Node137 -->
<g id="node13" class="node">
<title>Node137</title>
<g id="a_node13"><a xlink:href="opcontrol_8c.html#ac71a94af413917f27d108e95c4d6f6a7" target="_top" xlink:title="operatorControl">
<polygon fill="none" stroke="#000000" points="927.3916,-188.5 927.3916,-206.5 1012.874,-206.5 1012.874,-188.5 927.3916,-188.5"/>
<text text-anchor="middle" x="970.1328" y="-194.5" font-family="Helvetica,sans-Serif" font-size="10.00" fill="#000000">operatorControl</text>
</a>
</g>
</g>
<!-- Node135&#45;&gt;Node137 -->
<g id="edge12" class="edge">
<title>Node135&#45;&gt;Node137</title>
<path fill="none" stroke="#191970" d="M360.65,-311.5C412.4001,-311.5 508.7645,-311.5 590.9395,-311.5 590.9395,-311.5 590.9395,-311.5 709.3701,-311.5 792.0127,-311.5 818.3473,-312.1564 891.3916,-273.5 923.2977,-256.6147 951.2171,-222.9295 963.4924,-206.6829"/>
<polygon fill="#191970" stroke="#191970" points="360.6088,-308.0001 350.6088,-311.5 360.6087,-315.0001 360.6088,-308.0001"/>
</g>
<!-- Node138 -->
<g id="node14" class="node">
<title>Node138</title>
<g id="a_node14"><a xlink:href="slew_8c.html#a7dff2b79dffe55fb936d977594d7c01d" target="_top" xlink:title="Sets motor speed wrapped inside the slew rate controller. ">
<polygon fill="none" stroke="#000000" points="409.4941,-264.5 409.4941,-282.5 495.5234,-282.5 495.5234,-264.5 409.4941,-264.5"/>
<text text-anchor="middle" x="452.5088" y="-270.5" font-family="Helvetica,sans-Serif" font-size="10.00" fill="#000000">set_motor_slew</text>
</a>
</g>
</g>
<!-- Node135&#45;&gt;Node138 -->
<g id="edge13" class="edge">
<title>Node135&#45;&gt;Node138</title>
<path fill="none" stroke="#191970" d="M360.3664,-300.588C379.7237,-294.8973 403.1291,-288.0166 421.5065,-282.614"/>
<polygon fill="#191970" stroke="#191970" points="359.2678,-297.2628 350.6609,-303.4412 361.2421,-303.9786 359.2678,-297.2628"/>
</g>
<!-- Node145 -->
<g id="node21" class="node">
<title>Node145</title>
<g id="a_node21"><a xlink:href="slew_8c.html#a9f8b8ae577ef938622024545711f0151" target="_top" xlink:title="set_motor_immediate">
<polygon fill="none" stroke="#000000" points="396.4326,-113.5 396.4326,-131.5 508.585,-131.5 508.585,-113.5 396.4326,-113.5"/>
<text text-anchor="middle" x="452.5088" y="-119.5" font-family="Helvetica,sans-Serif" font-size="10.00" fill="#000000">set_motor_immediate</text>
</a>
</g>
</g>
<!-- Node135&#45;&gt;Node145 -->
<g id="edge24" class="edge">
<title>Node135&#45;&gt;Node145</title>
<path fill="none" stroke="#191970" d="M335.1614,-294.0807C361.9487,-254.9134 426.1653,-161.0185 446.3368,-131.5244"/>
<polygon fill="#191970" stroke="#191970" points="332.2388,-292.1541 329.4826,-302.3841 338.0168,-296.1058 332.2388,-292.1541"/>
</g>
<!-- Node139 -->
<g id="node15" class="node">
<title>Node139</title>
<g id="a_node15"><a xlink:href="drive_8c.html#a8df41fd50094c065eedc81fc5e6595d1" target="_top" xlink:title="sets the speed of one side of the robot. ">
<polygon fill="none" stroke="#000000" points="547.9126,-264.5 547.9126,-282.5 633.9663,-282.5 633.9663,-264.5 547.9126,-264.5"/>
<text text-anchor="middle" x="590.9395" y="-270.5" font-family="Helvetica,sans-Serif" font-size="10.00" fill="#000000">set_side_speed</text>
</a>
</g>
</g>
<!-- Node138&#45;&gt;Node139 -->
<g id="edge14" class="edge">
<title>Node138&#45;&gt;Node139</title>
<path fill="none" stroke="#191970" d="M505.8599,-273.5C519.6176,-273.5 534.2591,-273.5 547.4478,-273.5"/>
<polygon fill="#191970" stroke="#191970" points="505.5503,-270.0001 495.5503,-273.5 505.5503,-277.0001 505.5503,-270.0001"/>
</g>
<!-- Node141 -->
<g id="node17" class="node">
<title>Node141</title>
<g id="a_node17"><a xlink:href="lifter_8c.html#aa62603df4d54dff2d7fd472d699e9b2e" target="_top" xlink:title="set_lifter_motors">
<polygon fill="none" stroke="#000000" points="545.9814,-208.5 545.9814,-226.5 635.8975,-226.5 635.8975,-208.5 545.9814,-208.5"/>
<text text-anchor="middle" x="590.9395" y="-214.5" font-family="Helvetica,sans-Serif" font-size="10.00" fill="#000000">set_lifter_motors</text>
</a>
</g>
</g>
<!-- Node138&#45;&gt;Node141 -->
<g id="edge17" class="edge">
<title>Node138&#45;&gt;Node141</title>
<path fill="none" stroke="#191970" d="M484.3801,-260.6069C510.0775,-250.2114 545.5774,-235.8505 568.3997,-226.6181"/>
<polygon fill="#191970" stroke="#191970" points="483.0158,-257.3832 475.0582,-264.378 485.6409,-263.8724 483.0158,-257.3832"/>
</g>
<!-- Node140 -->
<g id="node16" class="node">
<title>Node140</title>
<g id="a_node16"><a xlink:href="drive_8c.html#a8224a4626a934d30ed587671b7004bf8" target="_top" xlink:title="Updates the drive motors during teleop. ">
<polygon fill="none" stroke="#000000" points="781.4463,-245.5 781.4463,-263.5 891.3916,-263.5 891.3916,-245.5 781.4463,-245.5"/>
<text text-anchor="middle" x="836.4189" y="-251.5" font-family="Helvetica,sans-Serif" font-size="10.00" fill="#000000">update_drive_motors</text>
</a>
</g>
</g>
<!-- Node139&#45;&gt;Node140 -->
<g id="edge15" class="edge">
<title>Node139&#45;&gt;Node140</title>
<path fill="none" stroke="#191970" d="M644.2056,-269.3772C684.7517,-266.239 740.3792,-261.9334 781.3608,-258.7615"/>
<polygon fill="#191970" stroke="#191970" points="643.6797,-265.9074 633.9796,-270.1687 644.2199,-272.8865 643.6797,-265.9074"/>
</g>
<!-- Node140&#45;&gt;Node137 -->
<g id="edge16" class="edge">
<title>Node140&#45;&gt;Node137</title>
<path fill="none" stroke="#191970" d="M866.9714,-241.476C891.9016,-230.8487 926.4979,-216.1009 948.6018,-206.6783"/>
<polygon fill="#191970" stroke="#191970" points="865.4329,-238.327 857.6063,-245.4682 868.1779,-244.7664 865.4329,-238.327"/>
</g>
<!-- Node142 -->
<g id="node18" class="node">
<title>Node142</title>
<g id="a_node18"><a xlink:href="lifter_8c.html#a7452163ed7946b6262f41de51c62dfd4" target="_top" xlink:title="raise_lifter">
<polygon fill="none" stroke="#000000" points="678.3062,-226.5 678.3062,-244.5 740.4341,-244.5 740.4341,-226.5 678.3062,-226.5"/>
<text text-anchor="middle" x="709.3701" y="-232.5" font-family="Helvetica,sans-Serif" font-size="10.00" fill="#000000">raise_lifter</text>
</a>
</g>
</g>
<!-- Node141&#45;&gt;Node142 -->
<g id="edge18" class="edge">
<title>Node141&#45;&gt;Node142</title>
<path fill="none" stroke="#191970" d="M646.027,-225.8726C656.9953,-227.5397 668.1534,-229.2356 677.9862,-230.73"/>
<polygon fill="#191970" stroke="#191970" points="646.4633,-222.3988 636.0509,-224.3564 645.4114,-229.3193 646.4633,-222.3988"/>
</g>
<!-- Node143 -->
<g id="node19" class="node">
<title>Node143</title>
<g id="a_node19"><a xlink:href="lifter_8c.html#a59bb7413777ca16aba124aaedf95c79b" target="_top" xlink:title="update_lifter">
<polygon fill="none" stroke="#000000" points="800.8994,-188.5 800.8994,-206.5 871.9385,-206.5 871.9385,-188.5 800.8994,-188.5"/>
<text text-anchor="middle" x="836.4189" y="-194.5" font-family="Helvetica,sans-Serif" font-size="10.00" fill="#000000">update_lifter</text>
</a>
</g>
</g>
<!-- Node141&#45;&gt;Node143 -->
<g id="edge23" class="edge">
<title>Node141&#45;&gt;Node143</title>
<path fill="none" stroke="#191970" d="M646.0518,-213.0098C693.3925,-209.1528 760.247,-203.706 800.8348,-200.3992"/>
<polygon fill="#191970" stroke="#191970" points="645.6469,-209.5311 635.9642,-213.8317 646.2154,-216.508 645.6469,-209.5311"/>
</g>
<!-- Node144 -->
<g id="node20" class="node">
<title>Node144</title>
<g id="a_node20"><a xlink:href="lifter_8c.html#aa7d2d04059f57cc5b8582f6fd0726dc1" target="_top" xlink:title="lower_lifter">
<polygon fill="none" stroke="#000000" points="677.1953,-150.5 677.1953,-168.5 741.5449,-168.5 741.5449,-150.5 677.1953,-150.5"/>
<text text-anchor="middle" x="709.3701" y="-156.5" font-family="Helvetica,sans-Serif" font-size="10.00" fill="#000000">lower_lifter</text>
</a>
</g>
</g>
<!-- Node141&#45;&gt;Node144 -->
<g id="edge21" class="edge">
<title>Node141&#45;&gt;Node144</title>
<path fill="none" stroke="#191970" d="M618.6676,-203.9205C640.8105,-193.0763 671.2367,-178.1754 690.6044,-168.6903"/>
<polygon fill="#191970" stroke="#191970" points="616.8857,-200.8959 609.4442,-208.4375 619.9645,-207.1825 616.8857,-200.8959"/>
</g>
<!-- Node142&#45;&gt;Node143 -->
<g id="edge19" class="edge">
<title>Node142&#45;&gt;Node143</title>
<path fill="none" stroke="#191970" d="M749.3134,-223.5531C767.6676,-218.0634 789.0827,-211.6582 806.086,-206.5725"/>
<polygon fill="#191970" stroke="#191970" points="748.0566,-220.2757 739.4789,-226.4945 750.0625,-226.9821 748.0566,-220.2757"/>
</g>
<!-- Node143&#45;&gt;Node137 -->
<g id="edge20" class="edge">
<title>Node143&#45;&gt;Node137</title>
<path fill="none" stroke="#191970" d="M882.4762,-197.5C896.928,-197.5 912.8198,-197.5 927.0572,-197.5"/>
<polygon fill="#191970" stroke="#191970" points="882.2518,-194.0001 872.2518,-197.5 882.2518,-201.0001 882.2518,-194.0001"/>
</g>
<!-- Node144&#45;&gt;Node143 -->
<g id="edge22" class="edge">
<title>Node144&#45;&gt;Node143</title>
<path fill="none" stroke="#191970" d="M749.3134,-171.4469C767.6676,-176.9366 789.0827,-183.3418 806.086,-188.4275"/>
<polygon fill="#191970" stroke="#191970" points="750.0625,-168.0179 739.4789,-168.5055 748.0566,-174.7243 750.0625,-168.0179"/>
</g>
<!-- Node146 -->
<g id="node22" class="node">
<title>Node146</title>
<g id="a_node22"><a xlink:href="claw_8c.html#a0122b78972344264b8a276a559cfce4a" target="_top" xlink:title="update_claw">
<polygon fill="none" stroke="#000000" points="673.2939,-113.5 673.2939,-131.5 745.4463,-131.5 745.4463,-113.5 673.2939,-113.5"/>
<text text-anchor="middle" x="709.3701" y="-119.5" font-family="Helvetica,sans-Serif" font-size="10.00" fill="#000000">update_claw</text>
</a>
</g>
</g>
<!-- Node145&#45;&gt;Node146 -->
<g id="edge25" class="edge">
<title>Node145&#45;&gt;Node146</title>
<path fill="none" stroke="#191970" d="M497.623,-133.7173C512.4803,-136.8985 529.1489,-139.924 544.585,-141.5 585.5759,-145.6852 596.4316,-146.7954 637.2939,-141.5 652.309,-139.5542 668.6545,-135.4183 681.9779,-131.5006"/>
<polygon fill="#191970" stroke="#191970" points="498.1849,-130.2569 487.664,-131.506 496.6675,-137.0905 498.1849,-130.2569"/>
</g>
<!-- Node147 -->
<g id="node23" class="node">
<title>Node147</title>
<g id="a_node23"><a xlink:href="claw_8c.html#a03023ca28f671b9fa7bac07782ccd8c1" target="_top" xlink:title="open_claw">
<polygon fill="none" stroke="#000000" points="559.0332,-113.5 559.0332,-131.5 622.8457,-131.5 622.8457,-113.5 559.0332,-113.5"/>
<text text-anchor="middle" x="590.9395" y="-119.5" font-family="Helvetica,sans-Serif" font-size="10.00" fill="#000000">open_claw</text>
</a>
</g>
</g>
<!-- Node145&#45;&gt;Node147 -->
<g id="edge27" class="edge">
<title>Node145&#45;&gt;Node147</title>
<path fill="none" stroke="#191970" d="M518.9057,-122.5C532.8468,-122.5 546.9406,-122.5 558.9198,-122.5"/>
<polygon fill="#191970" stroke="#191970" points="518.8139,-119.0001 508.8138,-122.5 518.8138,-126.0001 518.8139,-119.0001"/>
</g>
<!-- Node148 -->
<g id="node24" class="node">
<title>Node148</title>
<g id="a_node24"><a xlink:href="claw_8c.html#ac42dd40dbb37219295286859c6b068c2" target="_top" xlink:title="close_claw">
<polygon fill="none" stroke="#000000" points="558.4839,-76.5 558.4839,-94.5 623.395,-94.5 623.395,-76.5 558.4839,-76.5"/>
<text text-anchor="middle" x="590.9395" y="-82.5" font-family="Helvetica,sans-Serif" font-size="10.00" fill="#000000">close_claw</text>
</a>
</g>
</g>
<!-- Node145&#45;&gt;Node148 -->
<g id="edge29" class="edge">
<title>Node145&#45;&gt;Node148</title>
<path fill="none" stroke="#191970" d="M496.248,-110.8093C516.3747,-105.4298 539.8414,-99.1576 558.3784,-94.203"/>
<polygon fill="#191970" stroke="#191970" points="495.1298,-107.4852 486.3727,-113.4488 496.9374,-114.2478 495.1298,-107.4852"/>
</g>
<!-- Node149 -->
<g id="node25" class="node">
<title>Node149</title>
<g id="a_node25"><a xlink:href="mobile__goal__intake_8c.html#a8f215023832ba515d7b4535e3ae07498" target="_top" xlink:title="set_intake_motor">
<polygon fill="none" stroke="#000000" points="544.585,-39.5 544.585,-57.5 637.2939,-57.5 637.2939,-39.5 544.585,-39.5"/>
<text text-anchor="middle" x="590.9395" y="-45.5" font-family="Helvetica,sans-Serif" font-size="10.00" fill="#000000">set_intake_motor</text>
</a>
</g>
</g>
<!-- Node145&#45;&gt;Node149 -->
<g id="edge31" class="edge">
<title>Node145&#45;&gt;Node149</title>
<path fill="none" stroke="#191970" d="M474.6858,-107.9733C493.0156,-96.2819 519.9381,-79.8259 544.585,-67.5 551.586,-63.9988 559.3937,-60.611 566.5755,-57.6897"/>
<polygon fill="#191970" stroke="#191970" points="472.6963,-105.0915 466.1836,-113.4482 476.4862,-110.9769 472.6963,-105.0915"/>
</g>
<!-- Node146&#45;&gt;Node137 -->
<g id="edge26" class="edge">
<title>Node146&#45;&gt;Node137</title>
<path fill="none" stroke="#191970" d="M750.753,-134.4025C802.9386,-149.412 891.5142,-174.8879 938.5672,-188.4212"/>
<polygon fill="#191970" stroke="#191970" points="751.4021,-130.9473 740.8242,-131.5468 749.4671,-137.6746 751.4021,-130.9473"/>
</g>
<!-- Node147&#45;&gt;Node146 -->
<g id="edge28" class="edge">
<title>Node147&#45;&gt;Node146</title>
<path fill="none" stroke="#191970" d="M633.1533,-122.5C646.2183,-122.5 660.4899,-122.5 673.1141,-122.5"/>
<polygon fill="#191970" stroke="#191970" points="632.9885,-119.0001 622.9885,-122.5 632.9885,-126.0001 632.9885,-119.0001"/>
</g>
<!-- Node148&#45;&gt;Node146 -->
<g id="edge30" class="edge">
<title>Node148&#45;&gt;Node146</title>
<path fill="none" stroke="#191970" d="M629.7896,-97.6375C646.2372,-102.7761 665.0716,-108.6603 680.2873,-113.414"/>
<polygon fill="#191970" stroke="#191970" points="630.4996,-94.1926 619.9109,-94.5512 628.4121,-100.8741 630.4996,-94.1926"/>
</g>
<!-- Node150 -->
<g id="node26" class="node">
<title>Node150</title>
<g id="a_node26"><a xlink:href="mobile__goal__intake_8c.html#afa91470a9891e48827fd62d18553c6ce" target="_top" xlink:title="lower_intake">
<polygon fill="none" stroke="#000000" points="673.2988,-76.5 673.2988,-94.5 745.4414,-94.5 745.4414,-76.5 673.2988,-76.5"/>
<text text-anchor="middle" x="709.3701" y="-82.5" font-family="Helvetica,sans-Serif" font-size="10.00" fill="#000000">lower_intake</text>
</a>
</g>
</g>
<!-- Node149&#45;&gt;Node150 -->
<g id="edge32" class="edge">
<title>Node149&#45;&gt;Node150</title>
<path fill="none" stroke="#191970" d="M629.7896,-60.6375C646.2372,-65.7761 665.0716,-71.6603 680.2873,-76.414"/>
<polygon fill="#191970" stroke="#191970" points="630.4996,-57.1926 619.9109,-57.5512 628.4121,-63.8741 630.4996,-57.1926"/>
</g>
<!-- Node151 -->
<g id="node27" class="node">
<title>Node151</title>
<g id="a_node27"><a xlink:href="mobile__goal__intake_8c.html#ad0232c21c5c1ffda603d2b7d61034118" target="_top" xlink:title="updateIntake">
<polygon fill="none" stroke="#000000" points="799.5054,-57.5 799.5054,-75.5 873.3325,-75.5 873.3325,-57.5 799.5054,-57.5"/>
<text text-anchor="middle" x="836.4189" y="-63.5" font-family="Helvetica,sans-Serif" font-size="10.00" fill="#000000">updateIntake</text>
</a>
</g>
</g>
<!-- Node149&#45;&gt;Node151 -->
<g id="edge37" class="edge">
<title>Node149&#45;&gt;Node151</title>
<path fill="none" stroke="#191970" d="M647.6589,-52.659C694.3226,-56.0807 759.1112,-60.8313 799.3639,-63.7829"/>
<polygon fill="#191970" stroke="#191970" points="647.6301,-49.1476 637.4009,-51.9068 647.1181,-56.1288 647.6301,-49.1476"/>
</g>
<!-- Node152 -->
<g id="node28" class="node">
<title>Node152</title>
<g id="a_node28"><a xlink:href="mobile__goal__intake_8c.html#a4899f9a8621015313e6312ce085da979" target="_top" xlink:title="raise_intake">
<polygon fill="none" stroke="#000000" points="674.4097,-.5 674.4097,-18.5 744.3306,-18.5 744.3306,-.5 674.4097,-.5"/>
<text text-anchor="middle" x="709.3701" y="-6.5" font-family="Helvetica,sans-Serif" font-size="10.00" fill="#000000">raise_intake</text>
</a>
</g>
</g>
<!-- Node149&#45;&gt;Node152 -->
<g id="edge35" class="edge">
<title>Node149&#45;&gt;Node152</title>
<path fill="none" stroke="#191970" d="M628.2025,-36.229C645.5023,-30.5321 665.7141,-23.8762 681.6408,-18.6315"/>
<polygon fill="#191970" stroke="#191970" points="626.811,-33.0023 618.4075,-39.4546 629.0005,-39.6511 626.811,-33.0023"/>
</g>
<!-- Node150&#45;&gt;Node151 -->
<g id="edge33" class="edge">
<title>Node150&#45;&gt;Node151</title>
<path fill="none" stroke="#191970" d="M755.8809,-78.5444C770.1174,-76.4153 785.5847,-74.1022 799.1238,-72.0774"/>
<polygon fill="#191970" stroke="#191970" points="755.1495,-75.1147 745.7772,-80.0554 756.1849,-82.0377 755.1495,-75.1147"/>
</g>
<!-- Node151&#45;&gt;Node137 -->
<g id="edge34" class="edge">
<title>Node151&#45;&gt;Node137</title>
<path fill="none" stroke="#191970" d="M852.7828,-82.5317C881.1302,-110.3038 938.4825,-166.4921 960.8778,-188.4328"/>
<polygon fill="#191970" stroke="#191970" points="855.2022,-80.0023 845.6096,-75.5042 850.3035,-85.0025 855.2022,-80.0023"/>
</g>
<!-- Node152&#45;&gt;Node151 -->
<g id="edge36" class="edge">
<title>Node152&#45;&gt;Node151</title>
<path fill="none" stroke="#191970" d="M738.7147,-22.6653C762.3779,-33.2817 795.0519,-47.9408 815.9612,-57.3217"/>
<polygon fill="#191970" stroke="#191970" points="740.0579,-19.4319 729.5014,-18.5318 737.1925,-25.8186 740.0579,-19.4319"/>
</g>
</g>
</svg>
        <g id="navigator" transform="translate(0 0)" fill="#404254">
                <rect fill="#f2f5e9" fill-opacity="0.5" stroke="#606060" stroke-width=".5" x="0" y="0" width="60" height="60"/>
                <use id="zoomplus" xlink:href="#zoomPlus" x="17" y="9" onmousedown="handleZoom(evt,'in')"/>
                <use id="zoomminus" xlink:href="#zoomMin" x="42" y="9" onmousedown="handleZoom(evt,'out')"/>
                <use id="reset" xlink:href="#resetDef" x="30" y="36" onmousedown="handleReset()"/>
                <g id="arrowUp" xlink:href="#dirArrow" transform="translate(30 24)" onmousedown="handlePan(0,-1)">
                  <use xlink:href="#rim" fill="#404040">
                        <set attributeName="fill" to="#808080" begin="arrowUp.mouseover" end="arrowUp.mouseout"/>
                  </use>
                  <path fill="none" stroke="white" stroke-width="1.5" d="M0,-3.0v7 M-2.5,-0.5L0,-3.0L2.5,-0.5"/>
                </g>
                <g id="arrowRight" xlink:href="#dirArrow" transform="rotate(90) translate(36 -43)" onmousedown="handlePan(1,0)">
                  <use xlink:href="#rim" fill="#404040">
                        <set attributeName="fill" to="#808080" begin="arrowRight.mouseover" end="arrowRight.mouseout"/>
                  </use>
                  <path fill="none" stroke="white" stroke-width="1.5" d="M0,-3.0v7 M-2.5,-0.5L0,-3.0L2.5,-0.5"/>
                </g>
                <g id="arrowDown" xlink:href="#dirArrow" transform="rotate(180) translate(-30 -48)" onmousedown="handlePan(0,1)">
                  <use xlink:href="#rim" fill="#404040">
                        <set attributeName="fill" to="#808080" begin="arrowDown.mouseover" end="arrowDown.mouseout"/>
                  </use>
                  <path fill="none" stroke="white" stroke-width="1.5" d="M0,-3.0v7 M-2.5,-0.5L0,-3.0L2.5,-0.5"/>
                </g>
                <g id="arrowLeft" xlink:href="#dirArrow" transform="rotate(270) translate(-36 17)" onmousedown="handlePan(-1,0)">
                  <use xlink:href="#rim" fill="#404040">
                        <set attributeName="fill" to="#808080" begin="arrowLeft.mouseover" end="arrowLeft.mouseout"/>
                  </use>
                  <path fill="none" stroke="white" stroke-width="1.5" d="M0,-3.0v7 M-2.5,-0.5L0,-3.0L2.5,-0.5"/>
                </g>
        </g>
        <svg viewBox="0 0 15 15" width="100%" height="30px" preserveAspectRatio="xMaxYMin meet">
         <g id="arrow_out" transform="scale(0.3 0.3)">
          <a xlink:href="_a_p_i_8h_a5fa1d119fe3e836b5519f97eae7a1272_icgraph_org.svg" target="_base">
           <rect id="button" ry="5" rx="5" y="6" x="6" height="38" width="38"
                fill="#f2f5e9" fill-opacity="0.5" stroke="#606060" stroke-width="1.0"/>
           <path id="arrow"
             d="M 11.500037,31.436501 C 11.940474,20.09759 22.043105,11.32322 32.158766,21.979434 L 37.068811,17.246167 C 37.068811,17.246167 37.088388,32 37.088388,32 L 22.160133,31.978069 C 22.160133,31.978069 26.997745,27.140456 26.997745,27.140456 C 18.528582,18.264221 13.291696,25.230495 11.500037,31.436501 z"
             style="fill:#404040;"/>
          </a>
         </g>
        </svg>
</svg>
