<?xml version="1.0" encoding="UTF-8" standalone="no"?>
<!DOCTYPE svg PUBLIC "-//W3C//DTD SVG 1.1//EN"
 "http://www.w3.org/Graphics/SVG/1.1/DTD/svg11.dtd">
<!-- Generated by graphviz version 2.40.1 (20161225.0304)
 -->
<!-- Title: lcdInit Pages: 1 -->
<svg width="160pt" height="64pt"
 viewBox="0.00 0.00 160.49 64.00" xmlns="http://www.w3.org/2000/svg" xmlns:xlink="http://www.w3.org/1999/xlink">
<g id="graph0" class="graph" transform="scale(1 1) rotate(0) translate(4 60)">
<title>lcdInit</title>
<!-- Node116 -->
<g id="node1" class="node">
<title>Node116</title>
<polygon fill="#bfbfbf" stroke="#000000" points="0,-18.5 0,-36.5 42.123,-36.5 42.123,-18.5 0,-18.5"/>
<text text-anchor="middle" x="21.0615" y="-24.5" font-family="Helvetica,sans-Serif" font-size="10.00" fill="#000000">lcdInit</text>
</g>
<!-- Node117 -->
<g id="node2" class="node">
<title>Node117</title>
<g id="a_node2"><a xlink:href="log_8c.html#a163f389b4f5cf440a807d8fb48aaa006" target="_top" xlink:title="init_error">
<polygon fill="none" stroke="#000000" points="87.5762,-37.5 87.5762,-55.5 143.0342,-55.5 143.0342,-37.5 87.5762,-37.5"/>
<text text-anchor="middle" x="115.3052" y="-43.5" font-family="Helvetica,sans-Serif" font-size="10.00" fill="#000000">init_error</text>
</a>
</g>
</g>
<!-- Node116&#45;&gt;Node117 -->
<g id="edge1" class="edge">
<title>Node116&#45;&gt;Node117</title>
<path fill="none" stroke="#191970" d="M52.4076,-33.8195C63.7745,-36.1112 76.5259,-38.6819 87.5606,-40.9065"/>
<polygon fill="#191970" stroke="#191970" points="52.9414,-30.3568 42.4469,-31.8114 51.5579,-37.2187 52.9414,-30.3568"/>
</g>
<!-- Node118 -->
<g id="node3" class="node">
<title>Node118</title>
<g id="a_node3"><a xlink:href="lcd_8c.html#a93b26f37d6b1687ad54c90feedfd29ca" target="_top" xlink:title="Initializes the lcd screen. Also will initialize the lcd_port var. Must be called before any lcd func...">
<polygon fill="none" stroke="#000000" points="78.123,-.5 78.123,-18.5 152.4873,-18.5 152.4873,-.5 78.123,-.5"/>
<text text-anchor="middle" x="115.3052" y="-6.5" font-family="Helvetica,sans-Serif" font-size="10.00" fill="#000000">init_main_lcd</text>
</a>
</g>
</g>
<!-- Node116&#45;&gt;Node118 -->
<g id="edge2" class="edge">
<title>Node116&#45;&gt;Node118</title>
<path fill="none" stroke="#191970" d="M52.3963,-21.5152C60.628,-19.943 69.5865,-18.232 78.0935,-16.6072"/>
<polygon fill="#191970" stroke="#191970" points="51.6127,-18.1016 42.4469,-23.4155 52.926,-24.9773 51.6127,-18.1016"/>
</g>
</g>
</svg>
