<?xml version="1.0" encoding="UTF-8" standalone="no"?>
<!DOCTYPE svg PUBLIC "-//W3C//DTD SVG 1.1//EN"
 "http://www.w3.org/Graphics/SVG/1.1/DTD/svg11.dtd">
<!-- Generated by graphviz version 2.40.1 (20161225.0304)
 -->
<!-- Title: lcdSetBacklight Pages: 1 -->
<svg width="1071pt" height="478pt"
 viewBox="0.00 0.00 1070.91 478.00" xmlns="http://www.w3.org/2000/svg" xmlns:xlink="http://www.w3.org/1999/xlink">
<g id="graph0" class="graph" transform="scale(1 1) rotate(0) translate(4 474)">
<title>lcdSetBacklight</title>
<!-- Node163 -->
<g id="node1" class="node">
<title>Node163</title>
<polygon fill="#bfbfbf" stroke="#000000" points="0,-357.5 0,-375.5 84.3691,-375.5 84.3691,-357.5 0,-357.5"/>
<text text-anchor="middle" x="42.1846" y="-363.5" font-family="Helvetica,sans-Serif" font-size="10.00" fill="#000000">lcdSetBacklight</text>
</g>
<!-- Node164 -->
<g id="node2" class="node">
<title>Node164</title>
<g id="a_node2"><a xlink:href="lcd_8c.html#a245902a4d48a6d9bd1ab308bf9b7e6b5" target="_top" xlink:title="sets the backlight of the lcd ">
<polygon fill="none" stroke="#000000" points="120.3691,-376.5 120.3691,-394.5 213.083,-394.5 213.083,-376.5 120.3691,-376.5"/>
<text text-anchor="middle" x="166.7261" y="-382.5" font-family="Helvetica,sans-Serif" font-size="10.00" fill="#000000">lcd_set_backlight</text>
</a>
</g>
</g>
<!-- Node163&#45;&gt;Node164 -->
<g id="edge1" class="edge">
<title>Node163&#45;&gt;Node164</title>
<path fill="none" stroke="#191970" d="M94.8008,-374.5271C103.2177,-375.8112 111.8758,-377.1321 120.1397,-378.3928"/>
<polygon fill="#191970" stroke="#191970" points="95.1099,-371.0338 84.6964,-372.9856 94.0541,-377.9538 95.1099,-371.0338"/>
</g>
<!-- Node165 -->
<g id="node3" class="node">
<title>Node165</title>
<g id="a_node3"><a xlink:href="log_8c.html#afff22aff6749311a684a559cac3ac8bd" target="_top" xlink:title="log_info">
<polygon fill="none" stroke="#000000" points="141.2114,-339.5 141.2114,-357.5 192.2407,-357.5 192.2407,-339.5 141.2114,-339.5"/>
<text text-anchor="middle" x="166.7261" y="-345.5" font-family="Helvetica,sans-Serif" font-size="10.00" fill="#000000">log_info</text>
</a>
</g>
</g>
<!-- Node163&#45;&gt;Node165 -->
<g id="edge2" class="edge">
<title>Node163&#45;&gt;Node165</title>
<path fill="none" stroke="#191970" d="M95.0132,-358.8647C110.9674,-356.5588 127.7681,-354.1306 141.0944,-352.2046"/>
<polygon fill="#191970" stroke="#191970" points="94.0928,-355.4612 84.6964,-360.3558 95.0942,-362.3893 94.0928,-355.4612"/>
</g>
<!-- Node166 -->
<g id="node4" class="node">
<title>Node166</title>
<g id="a_node4"><a xlink:href="log_8c.html#a8e5bb8a2a372f5b066ff7af7044584c1" target="_top" xlink:title="prints a error message and displays on lcd. Only will print and display if log_level is greater than ...">
<polygon fill="none" stroke="#000000" points="256.0361,-367.5 256.0361,-385.5 293.1494,-385.5 293.1494,-367.5 256.0361,-367.5"/>
<text text-anchor="middle" x="274.5928" y="-373.5" font-family="Helvetica,sans-Serif" font-size="10.00" fill="#000000">error</text>
</a>
</g>
</g>
<!-- Node165&#45;&gt;Node166 -->
<g id="edge3" class="edge">
<title>Node165&#45;&gt;Node166</title>
<path fill="none" stroke="#191970" d="M202.1584,-357.6975C220.1178,-362.3594 241.1917,-367.8298 255.9635,-371.6642"/>
<polygon fill="#191970" stroke="#191970" points="202.8476,-354.2605 192.289,-355.1356 201.0888,-361.0359 202.8476,-354.2605"/>
</g>
<!-- Node171 -->
<g id="node9" class="node">
<title>Node171</title>
<g id="a_node9"><a xlink:href="log_8c.html#a0bec2cf5fff7f607bc510b74aba9887c" target="_top" xlink:title="prints a warning message and displays on lcd. Only will print and display if log_level is greater tha...">
<polygon fill="none" stroke="#000000" points="249.083,-321.5 249.083,-339.5 300.1025,-339.5 300.1025,-321.5 249.083,-321.5"/>
<text text-anchor="middle" x="274.5928" y="-327.5" font-family="Helvetica,sans-Serif" font-size="10.00" fill="#000000">warning</text>
</a>
</g>
</g>
<!-- Node165&#45;&gt;Node171 -->
<g id="edge8" class="edge">
<title>Node165&#45;&gt;Node171</title>
<path fill="none" stroke="#191970" d="M202.3804,-342.5503C217.5633,-340.0167 234.9381,-337.1173 248.8395,-334.7975"/>
<polygon fill="#191970" stroke="#191970" points="201.5765,-339.1359 192.289,-344.2343 202.7287,-346.0405 201.5765,-339.1359"/>
</g>
<!-- Node167 -->
<g id="node5" class="node">
<title>Node167</title>
<g id="a_node5"><a xlink:href="menu_8c.html#aff4fd27ff7707295d91c67fa52a6b021" target="_top" xlink:title="create_menu">
<polygon fill="none" stroke="#000000" points="336.1025,-395.5 336.1025,-413.5 410.4717,-413.5 410.4717,-395.5 336.1025,-395.5"/>
<text text-anchor="middle" x="373.2871" y="-401.5" font-family="Helvetica,sans-Serif" font-size="10.00" fill="#000000">create_menu</text>
</a>
</g>
</g>
<!-- Node166&#45;&gt;Node167 -->
<g id="edge4" class="edge">
<title>Node166&#45;&gt;Node167</title>
<path fill="none" stroke="#191970" d="M303.0391,-384.5703C314.9753,-387.9567 328.9127,-391.9108 341.2119,-395.4001"/>
<polygon fill="#191970" stroke="#191970" points="303.732,-381.1289 293.1564,-381.7666 301.8215,-387.8631 303.732,-381.1289"/>
</g>
<!-- Node168 -->
<g id="node6" class="node">
<title>Node168</title>
<g id="a_node6"><a xlink:href="menu_8c.html#a3529988b0a7c12cb3f2ebb3cf5595594" target="_top" xlink:title="Creates a menu context, but does not display. &#160;Menu must be freed or will cause memory leak &#160;...">
<polygon fill="none" stroke="#000000" points="463.1416,-451.5 463.1416,-469.5 541.9541,-469.5 541.9541,-451.5 463.1416,-451.5"/>
<text text-anchor="middle" x="502.5479" y="-457.5" font-family="Helvetica,sans-Serif" font-size="10.00" fill="#000000">init_menu_var</text>
</a>
</g>
</g>
<!-- Node167&#45;&gt;Node168 -->
<g id="edge5" class="edge">
<title>Node167&#45;&gt;Node168</title>
<path fill="none" stroke="#191970" d="M397.876,-418.5898C411.8493,-426.258 429.8287,-435.5661 446.4717,-442.5 454.3055,-445.7638 462.9542,-448.8033 471.0658,-451.421"/>
<polygon fill="#191970" stroke="#191970" points="399.347,-415.4028 388.908,-413.5923 395.9395,-421.5175 399.347,-415.4028"/>
</g>
<!-- Node169 -->
<g id="node7" class="node">
<title>Node169</title>
<g id="a_node7"><a xlink:href="menu_8c.html#ac8efedba760ec35ebf841ab19543ba5a" target="_top" xlink:title="Creates a menu context, but does not display. &#160;Menu must be freed or will cause memory leak &#160;...">
<polygon fill="none" stroke="#000000" points="464.8066,-414.5 464.8066,-432.5 540.2891,-432.5 540.2891,-414.5 464.8066,-414.5"/>
<text text-anchor="middle" x="502.5479" y="-420.5" font-family="Helvetica,sans-Serif" font-size="10.00" fill="#000000">init_menu_int</text>
</a>
</g>
</g>
<!-- Node167&#45;&gt;Node169 -->
<g id="edge6" class="edge">
<title>Node167&#45;&gt;Node169</title>
<path fill="none" stroke="#191970" d="M420.9424,-411.5048C435.402,-413.6303 451.0817,-415.935 464.7965,-417.9509"/>
<polygon fill="#191970" stroke="#191970" points="421.0774,-407.9871 410.6747,-409.9956 420.0593,-414.9127 421.0774,-407.9871"/>
</g>
<!-- Node170 -->
<g id="node8" class="node">
<title>Node170</title>
<g id="a_node8"><a xlink:href="menu_8c.html#a5abb752733423805f59ef3b92e3c2e57" target="_top" xlink:title="Creates a menu context, but does not display. &#160;Menu must be freed or will cause memory leak! &#160;...">
<polygon fill="none" stroke="#000000" points="460.6367,-377.5 460.6367,-395.5 544.459,-395.5 544.459,-377.5 460.6367,-377.5"/>
<text text-anchor="middle" x="502.5479" y="-383.5" font-family="Helvetica,sans-Serif" font-size="10.00" fill="#000000">init_menu_float</text>
</a>
</g>
</g>
<!-- Node167&#45;&gt;Node170 -->
<g id="edge7" class="edge">
<title>Node167&#45;&gt;Node170</title>
<path fill="none" stroke="#191970" d="M420.7873,-397.8854C433.7145,-396.0853 447.6273,-394.1479 460.2454,-392.3908"/>
<polygon fill="#191970" stroke="#191970" points="420.0963,-394.4478 410.6747,-399.2937 421.0619,-401.3809 420.0963,-394.4478"/>
</g>
<!-- Node172 -->
<g id="node10" class="node">
<title>Node172</title>
<g id="a_node10"><a xlink:href="slew_8c.html#a321758941d88b75783955c819bb75005" target="_top" xlink:title="Initializes the slew rate controller. ">
<polygon fill="none" stroke="#000000" points="346.1123,-302.5 346.1123,-320.5 400.4619,-320.5 400.4619,-302.5 346.1123,-302.5"/>
<text text-anchor="middle" x="373.2871" y="-308.5" font-family="Helvetica,sans-Serif" font-size="10.00" fill="#000000">init_slew</text>
</a>
</g>
</g>
<!-- Node171&#45;&gt;Node172 -->
<g id="edge9" class="edge">
<title>Node171&#45;&gt;Node172</title>
<path fill="none" stroke="#191970" d="M310.2572,-323.6341C322.0433,-321.3651 334.9602,-318.8784 346.0153,-316.7502"/>
<polygon fill="#191970" stroke="#191970" points="309.4239,-320.2302 300.2659,-325.5576 310.7473,-327.104 309.4239,-320.2302"/>
</g>
<!-- Node173 -->
<g id="node11" class="node">
<title>Node173</title>
<g id="a_node11"><a xlink:href="init_8c.html#a25a40b6614565f755233080a384c35f1" target="_top" xlink:title="initialize">
<polygon fill="none" stroke="#000000" points="476.7622,-340.5 476.7622,-358.5 528.3335,-358.5 528.3335,-340.5 476.7622,-340.5"/>
<text text-anchor="middle" x="502.5479" y="-346.5" font-family="Helvetica,sans-Serif" font-size="10.00" fill="#000000">initialize</text>
</a>
</g>
</g>
<!-- Node172&#45;&gt;Node173 -->
<g id="edge10" class="edge">
<title>Node172&#45;&gt;Node173</title>
<path fill="none" stroke="#191970" d="M410.3389,-322.3925C431.4942,-328.6117 457.5018,-336.2574 476.4969,-341.8416"/>
<polygon fill="#191970" stroke="#191970" points="411.2812,-319.0214 400.7,-319.5588 409.3068,-325.7372 411.2812,-319.0214"/>
</g>
<!-- Node174 -->
<g id="node12" class="node">
<title>Node174</title>
<g id="a_node12"><a xlink:href="opcontrol_8c.html#ac71a94af413917f27d108e95c4d6f6a7" target="_top" xlink:title="operatorControl">
<polygon fill="none" stroke="#000000" points="977.4307,-188.5 977.4307,-206.5 1062.9131,-206.5 1062.9131,-188.5 977.4307,-188.5"/>
<text text-anchor="middle" x="1020.1719" y="-194.5" font-family="Helvetica,sans-Serif" font-size="10.00" fill="#000000">operatorControl</text>
</a>
</g>
</g>
<!-- Node172&#45;&gt;Node174 -->
<g id="edge11" class="edge">
<title>Node172&#45;&gt;Node174</title>
<path fill="none" stroke="#191970" d="M410.6891,-311.5C462.4392,-311.5 558.8036,-311.5 640.9785,-311.5 640.9785,-311.5 640.9785,-311.5 759.4092,-311.5 842.0517,-311.5 868.3863,-312.1564 941.4307,-273.5 973.3367,-256.6147 1001.2562,-222.9295 1013.5315,-206.6829"/>
<polygon fill="#191970" stroke="#191970" points="410.6479,-308.0001 400.6478,-311.5 410.6478,-315.0001 410.6479,-308.0001"/>
</g>
<!-- Node175 -->
<g id="node13" class="node">
<title>Node175</title>
<g id="a_node13"><a xlink:href="slew_8c.html#a7dff2b79dffe55fb936d977594d7c01d" target="_top" xlink:title="Sets motor speed wrapped inside the slew rate controller. ">
<polygon fill="none" stroke="#000000" points="459.5332,-264.5 459.5332,-282.5 545.5625,-282.5 545.5625,-264.5 459.5332,-264.5"/>
<text text-anchor="middle" x="502.5479" y="-270.5" font-family="Helvetica,sans-Serif" font-size="10.00" fill="#000000">set_motor_slew</text>
</a>
</g>
</g>
<!-- Node172&#45;&gt;Node175 -->
<g id="edge12" class="edge">
<title>Node172&#45;&gt;Node175</title>
<path fill="none" stroke="#191970" d="M410.4055,-300.588C429.7627,-294.8973 453.1682,-288.0166 471.5456,-282.614"/>
<polygon fill="#191970" stroke="#191970" points="409.3068,-297.2628 400.7,-303.4412 411.2812,-303.9786 409.3068,-297.2628"/>
</g>
<!-- Node182 -->
<g id="node20" class="node">
<title>Node182</title>
<g id="a_node20"><a xlink:href="slew_8c.html#a9f8b8ae577ef938622024545711f0151" target="_top" xlink:title="set_motor_immediate">
<polygon fill="none" stroke="#000000" points="446.4717,-113.5 446.4717,-131.5 558.624,-131.5 558.624,-113.5 446.4717,-113.5"/>
<text text-anchor="middle" x="502.5479" y="-119.5" font-family="Helvetica,sans-Serif" font-size="10.00" fill="#000000">set_motor_immediate</text>
</a>
</g>
</g>
<!-- Node172&#45;&gt;Node182 -->
<g id="edge23" class="edge">
<title>Node172&#45;&gt;Node182</title>
<path fill="none" stroke="#191970" d="M385.2005,-294.0807C411.9878,-254.9134 476.2043,-161.0185 496.3759,-131.5244"/>
<polygon fill="#191970" stroke="#191970" points="382.2779,-292.1541 379.5216,-302.3841 388.0558,-296.1058 382.2779,-292.1541"/>
</g>
<!-- Node176 -->
<g id="node14" class="node">
<title>Node176</title>
<g id="a_node14"><a xlink:href="drive_8c.html#a8df41fd50094c065eedc81fc5e6595d1" target="_top" xlink:title="sets the speed of one side of the robot. ">
<polygon fill="none" stroke="#000000" points="597.9517,-264.5 597.9517,-282.5 684.0054,-282.5 684.0054,-264.5 597.9517,-264.5"/>
<text text-anchor="middle" x="640.9785" y="-270.5" font-family="Helvetica,sans-Serif" font-size="10.00" fill="#000000">set_side_speed</text>
</a>
</g>
</g>
<!-- Node175&#45;&gt;Node176 -->
<g id="edge13" class="edge">
<title>Node175&#45;&gt;Node176</title>
<path fill="none" stroke="#191970" d="M555.899,-273.5C569.6567,-273.5 584.2981,-273.5 597.4868,-273.5"/>
<polygon fill="#191970" stroke="#191970" points="555.5894,-270.0001 545.5894,-273.5 555.5893,-277.0001 555.5894,-270.0001"/>
</g>
<!-- Node178 -->
<g id="node16" class="node">
<title>Node178</title>
<g id="a_node16"><a xlink:href="lifter_8c.html#aa62603df4d54dff2d7fd472d699e9b2e" target="_top" xlink:title="set_lifter_motors">
<polygon fill="none" stroke="#000000" points="596.0205,-208.5 596.0205,-226.5 685.9365,-226.5 685.9365,-208.5 596.0205,-208.5"/>
<text text-anchor="middle" x="640.9785" y="-214.5" font-family="Helvetica,sans-Serif" font-size="10.00" fill="#000000">set_lifter_motors</text>
</a>
</g>
</g>
<!-- Node175&#45;&gt;Node178 -->
<g id="edge16" class="edge">
<title>Node175&#45;&gt;Node178</title>
<path fill="none" stroke="#191970" d="M534.4192,-260.6069C560.1166,-250.2114 595.6164,-235.8505 618.4388,-226.6181"/>
<polygon fill="#191970" stroke="#191970" points="533.0549,-257.3832 525.0972,-264.378 535.68,-263.8724 533.0549,-257.3832"/>
</g>
<!-- Node177 -->
<g id="node15" class="node">
<title>Node177</title>
<g id="a_node15"><a xlink:href="drive_8c.html#a8224a4626a934d30ed587671b7004bf8" target="_top" xlink:title="Updates the drive motors during teleop. ">
<polygon fill="none" stroke="#000000" points="831.4854,-245.5 831.4854,-263.5 941.4307,-263.5 941.4307,-245.5 831.4854,-245.5"/>
<text text-anchor="middle" x="886.458" y="-251.5" font-family="Helvetica,sans-Serif" font-size="10.00" fill="#000000">update_drive_motors</text>
</a>
</g>
</g>
<!-- Node176&#45;&gt;Node177 -->
<g id="edge14" class="edge">
<title>Node176&#45;&gt;Node177</title>
<path fill="none" stroke="#191970" d="M694.2447,-269.3772C734.7907,-266.239 790.4182,-261.9334 831.3999,-258.7615"/>
<polygon fill="#191970" stroke="#191970" points="693.7187,-265.9074 684.0187,-270.1687 694.259,-272.8865 693.7187,-265.9074"/>
</g>
<!-- Node177&#45;&gt;Node174 -->
<g id="edge15" class="edge">
<title>Node177&#45;&gt;Node174</title>
<path fill="none" stroke="#191970" d="M917.0105,-241.476C941.9407,-230.8487 976.5369,-216.1009 998.6409,-206.6783"/>
<polygon fill="#191970" stroke="#191970" points="915.4719,-238.327 907.6454,-245.4682 918.2169,-244.7664 915.4719,-238.327"/>
</g>
<!-- Node179 -->
<g id="node17" class="node">
<title>Node179</title>
<g id="a_node17"><a xlink:href="lifter_8c.html#a7452163ed7946b6262f41de51c62dfd4" target="_top" xlink:title="raise_lifter">
<polygon fill="none" stroke="#000000" points="728.3452,-226.5 728.3452,-244.5 790.4731,-244.5 790.4731,-226.5 728.3452,-226.5"/>
<text text-anchor="middle" x="759.4092" y="-232.5" font-family="Helvetica,sans-Serif" font-size="10.00" fill="#000000">raise_lifter</text>
</a>
</g>
</g>
<!-- Node178&#45;&gt;Node179 -->
<g id="edge17" class="edge">
<title>Node178&#45;&gt;Node179</title>
<path fill="none" stroke="#191970" d="M696.0661,-225.8726C707.0344,-227.5397 718.1925,-229.2356 728.0253,-230.73"/>
<polygon fill="#191970" stroke="#191970" points="696.5023,-222.3988 686.0899,-224.3564 695.4504,-229.3193 696.5023,-222.3988"/>
</g>
<!-- Node180 -->
<g id="node18" class="node">
<title>Node180</title>
<g id="a_node18"><a xlink:href="lifter_8c.html#a59bb7413777ca16aba124aaedf95c79b" target="_top" xlink:title="update_lifter">
<polygon fill="none" stroke="#000000" points="850.9385,-188.5 850.9385,-206.5 921.9775,-206.5 921.9775,-188.5 850.9385,-188.5"/>
<text text-anchor="middle" x="886.458" y="-194.5" font-family="Helvetica,sans-Serif" font-size="10.00" fill="#000000">update_lifter</text>
</a>
</g>
</g>
<!-- Node178&#45;&gt;Node180 -->
<g id="edge22" class="edge">
<title>Node178&#45;&gt;Node180</title>
<path fill="none" stroke="#191970" d="M696.0909,-213.0098C743.4315,-209.1528 810.2861,-203.706 850.8739,-200.3992"/>
<polygon fill="#191970" stroke="#191970" points="695.686,-209.5311 686.0032,-213.8317 696.2545,-216.508 695.686,-209.5311"/>
</g>
<!-- Node181 -->
<g id="node19" class="node">
<title>Node181</title>
<g id="a_node19"><a xlink:href="lifter_8c.html#aa7d2d04059f57cc5b8582f6fd0726dc1" target="_top" xlink:title="lower_lifter">
<polygon fill="none" stroke="#000000" points="727.2344,-150.5 727.2344,-168.5 791.584,-168.5 791.584,-150.5 727.2344,-150.5"/>
<text text-anchor="middle" x="759.4092" y="-156.5" font-family="Helvetica,sans-Serif" font-size="10.00" fill="#000000">lower_lifter</text>
</a>
</g>
</g>
<!-- Node178&#45;&gt;Node181 -->
<g id="edge20" class="edge">
<title>Node178&#45;&gt;Node181</title>
<path fill="none" stroke="#191970" d="M668.7067,-203.9205C690.8496,-193.0763 721.2758,-178.1754 740.6435,-168.6903"/>
<polygon fill="#191970" stroke="#191970" points="666.9247,-200.8959 659.4833,-208.4375 670.0036,-207.1825 666.9247,-200.8959"/>
</g>
<!-- Node179&#45;&gt;Node180 -->
<g id="edge18" class="edge">
<title>Node179&#45;&gt;Node180</title>
<path fill="none" stroke="#191970" d="M799.3524,-223.5531C817.7067,-218.0634 839.1218,-211.6582 856.125,-206.5725"/>
<polygon fill="#191970" stroke="#191970" points="798.0957,-220.2757 789.518,-226.4945 800.1016,-226.9821 798.0957,-220.2757"/>
</g>
<!-- Node180&#45;&gt;Node174 -->
<g id="edge19" class="edge">
<title>Node180&#45;&gt;Node174</title>
<path fill="none" stroke="#191970" d="M932.5152,-197.5C946.967,-197.5 962.8588,-197.5 977.0963,-197.5"/>
<polygon fill="#191970" stroke="#191970" points="932.2909,-194.0001 922.2909,-197.5 932.2908,-201.0001 932.2909,-194.0001"/>
</g>
<!-- Node181&#45;&gt;Node180 -->
<g id="edge21" class="edge">
<title>Node181&#45;&gt;Node180</title>
<path fill="none" stroke="#191970" d="M799.3524,-171.4469C817.7067,-176.9366 839.1218,-183.3418 856.125,-188.4275"/>
<polygon fill="#191970" stroke="#191970" points="800.1016,-168.0179 789.518,-168.5055 798.0957,-174.7243 800.1016,-168.0179"/>
</g>
<!-- Node183 -->
<g id="node21" class="node">
<title>Node183</title>
<g id="a_node21"><a xlink:href="claw_8c.html#a0122b78972344264b8a276a559cfce4a" target="_top" xlink:title="update_claw">
<polygon fill="none" stroke="#000000" points="723.333,-113.5 723.333,-131.5 795.4854,-131.5 795.4854,-113.5 723.333,-113.5"/>
<text text-anchor="middle" x="759.4092" y="-119.5" font-family="Helvetica,sans-Serif" font-size="10.00" fill="#000000">update_claw</text>
</a>
</g>
</g>
<!-- Node182&#45;&gt;Node183 -->
<g id="edge24" class="edge">
<title>Node182&#45;&gt;Node183</title>
<path fill="none" stroke="#191970" d="M547.662,-133.7173C562.5193,-136.8985 579.1879,-139.924 594.624,-141.5 635.6149,-145.6852 646.4707,-146.7954 687.333,-141.5 702.3481,-139.5542 718.6935,-135.4183 732.017,-131.5006"/>
<polygon fill="#191970" stroke="#191970" points="548.224,-130.2569 537.703,-131.506 546.7066,-137.0905 548.224,-130.2569"/>
</g>
<!-- Node184 -->
<g id="node22" class="node">
<title>Node184</title>
<g id="a_node22"><a xlink:href="claw_8c.html#a03023ca28f671b9fa7bac07782ccd8c1" target="_top" xlink:title="open_claw">
<polygon fill="none" stroke="#000000" points="609.0723,-113.5 609.0723,-131.5 672.8848,-131.5 672.8848,-113.5 609.0723,-113.5"/>
<text text-anchor="middle" x="640.9785" y="-119.5" font-family="Helvetica,sans-Serif" font-size="10.00" fill="#000000">open_claw</text>
</a>
</g>
</g>
<!-- Node182&#45;&gt;Node184 -->
<g id="edge26" class="edge">
<title>Node182&#45;&gt;Node184</title>
<path fill="none" stroke="#191970" d="M568.9448,-122.5C582.8859,-122.5 596.9797,-122.5 608.9589,-122.5"/>
<polygon fill="#191970" stroke="#191970" points="568.8529,-119.0001 558.8529,-122.5 568.8529,-126.0001 568.8529,-119.0001"/>
</g>
<!-- Node185 -->
<g id="node23" class="node">
<title>Node185</title>
<g id="a_node23"><a xlink:href="claw_8c.html#ac42dd40dbb37219295286859c6b068c2" target="_top" xlink:title="close_claw">
<polygon fill="none" stroke="#000000" points="608.5229,-76.5 608.5229,-94.5 673.4341,-94.5 673.4341,-76.5 608.5229,-76.5"/>
<text text-anchor="middle" x="640.9785" y="-82.5" font-family="Helvetica,sans-Serif" font-size="10.00" fill="#000000">close_claw</text>
</a>
</g>
</g>
<!-- Node182&#45;&gt;Node185 -->
<g id="edge28" class="edge">
<title>Node182&#45;&gt;Node185</title>
<path fill="none" stroke="#191970" d="M546.2871,-110.8093C566.4138,-105.4298 589.8805,-99.1576 608.4174,-94.203"/>
<polygon fill="#191970" stroke="#191970" points="545.1689,-107.4852 536.4118,-113.4488 546.9765,-114.2478 545.1689,-107.4852"/>
</g>
<!-- Node186 -->
<g id="node24" class="node">
<title>Node186</title>
<g id="a_node24"><a xlink:href="mobile__goal__intake_8c.html#a8f215023832ba515d7b4535e3ae07498" target="_top" xlink:title="set_intake_motor">
<polygon fill="none" stroke="#000000" points="594.624,-39.5 594.624,-57.5 687.333,-57.5 687.333,-39.5 594.624,-39.5"/>
<text text-anchor="middle" x="640.9785" y="-45.5" font-family="Helvetica,sans-Serif" font-size="10.00" fill="#000000">set_intake_motor</text>
</a>
</g>
</g>
<!-- Node182&#45;&gt;Node186 -->
<g id="edge30" class="edge">
<title>Node182&#45;&gt;Node186</title>
<path fill="none" stroke="#191970" d="M524.7248,-107.9733C543.0546,-96.2819 569.9772,-79.8259 594.624,-67.5 601.6251,-63.9988 609.4327,-60.611 616.6146,-57.6897"/>
<polygon fill="#191970" stroke="#191970" points="522.7354,-105.0915 516.2226,-113.4482 526.5252,-110.9769 522.7354,-105.0915"/>
</g>
<!-- Node183&#45;&gt;Node174 -->
<g id="edge25" class="edge">
<title>Node183&#45;&gt;Node174</title>
<path fill="none" stroke="#191970" d="M800.7921,-134.4025C852.9776,-149.412 941.5532,-174.8879 988.6062,-188.4212"/>
<polygon fill="#191970" stroke="#191970" points="801.4411,-130.9473 790.8633,-131.5468 799.5062,-137.6746 801.4411,-130.9473"/>
</g>
<!-- Node184&#45;&gt;Node183 -->
<g id="edge27" class="edge">
<title>Node184&#45;&gt;Node183</title>
<path fill="none" stroke="#191970" d="M683.1923,-122.5C696.2574,-122.5 710.5289,-122.5 723.1532,-122.5"/>
<polygon fill="#191970" stroke="#191970" points="683.0276,-119.0001 673.0276,-122.5 683.0275,-126.0001 683.0276,-119.0001"/>
</g>
<!-- Node185&#45;&gt;Node183 -->
<g id="edge29" class="edge">
<title>Node185&#45;&gt;Node183</title>
<path fill="none" stroke="#191970" d="M679.8287,-97.6375C696.2762,-102.7761 715.1107,-108.6603 730.3264,-113.414"/>
<polygon fill="#191970" stroke="#191970" points="680.5387,-94.1926 669.9499,-94.5512 678.4512,-100.8741 680.5387,-94.1926"/>
</g>
<!-- Node187 -->
<g id="node25" class="node">
<title>Node187</title>
<g id="a_node25"><a xlink:href="mobile__goal__intake_8c.html#afa91470a9891e48827fd62d18553c6ce" target="_top" xlink:title="lower_intake">
<polygon fill="none" stroke="#000000" points="723.3379,-76.5 723.3379,-94.5 795.4805,-94.5 795.4805,-76.5 723.3379,-76.5"/>
<text text-anchor="middle" x="759.4092" y="-82.5" font-family="Helvetica,sans-Serif" font-size="10.00" fill="#000000">lower_intake</text>
</a>
</g>
</g>
<!-- Node186&#45;&gt;Node187 -->
<g id="edge31" class="edge">
<title>Node186&#45;&gt;Node187</title>
<path fill="none" stroke="#191970" d="M679.8287,-60.6375C696.2762,-65.7761 715.1107,-71.6603 730.3264,-76.414"/>
<polygon fill="#191970" stroke="#191970" points="680.5387,-57.1926 669.9499,-57.5512 678.4512,-63.8741 680.5387,-57.1926"/>
</g>
<!-- Node188 -->
<g id="node26" class="node">
<title>Node188</title>
<g id="a_node26"><a xlink:href="mobile__goal__intake_8c.html#ad0232c21c5c1ffda603d2b7d61034118" target="_top" xlink:title="updateIntake">
<polygon fill="none" stroke="#000000" points="849.5444,-57.5 849.5444,-75.5 923.3716,-75.5 923.3716,-57.5 849.5444,-57.5"/>
<text text-anchor="middle" x="886.458" y="-63.5" font-family="Helvetica,sans-Serif" font-size="10.00" fill="#000000">updateIntake</text>
</a>
</g>
</g>
<!-- Node186&#45;&gt;Node188 -->
<g id="edge36" class="edge">
<title>Node186&#45;&gt;Node188</title>
<path fill="none" stroke="#191970" d="M697.698,-52.659C744.3616,-56.0807 809.1502,-60.8313 849.403,-63.7829"/>
<polygon fill="#191970" stroke="#191970" points="697.6691,-49.1476 687.4399,-51.9068 697.1572,-56.1288 697.6691,-49.1476"/>
</g>
<!-- Node189 -->
<g id="node27" class="node">
<title>Node189</title>
<g id="a_node27"><a xlink:href="mobile__goal__intake_8c.html#a4899f9a8621015313e6312ce085da979" target="_top" xlink:title="raise_intake">
<polygon fill="none" stroke="#000000" points="724.4487,-.5 724.4487,-18.5 794.3696,-18.5 794.3696,-.5 724.4487,-.5"/>
<text text-anchor="middle" x="759.4092" y="-6.5" font-family="Helvetica,sans-Serif" font-size="10.00" fill="#000000">raise_intake</text>
</a>
</g>
</g>
<!-- Node186&#45;&gt;Node189 -->
<g id="edge34" class="edge">
<title>Node186&#45;&gt;Node189</title>
<path fill="none" stroke="#191970" d="M678.2415,-36.229C695.5413,-30.5321 715.7531,-23.8762 731.6798,-18.6315"/>
<polygon fill="#191970" stroke="#191970" points="676.85,-33.0023 668.4466,-39.4546 679.0396,-39.6511 676.85,-33.0023"/>
</g>
<!-- Node187&#45;&gt;Node188 -->
<g id="edge32" class="edge">
<title>Node187&#45;&gt;Node188</title>
<path fill="none" stroke="#191970" d="M805.92,-78.5444C820.1565,-76.4153 835.6238,-74.1022 849.1628,-72.0774"/>
<polygon fill="#191970" stroke="#191970" points="805.1886,-75.1147 795.8163,-80.0554 806.224,-82.0377 805.1886,-75.1147"/>
</g>
<!-- Node188&#45;&gt;Node174 -->
<g id="edge33" class="edge">
<title>Node188&#45;&gt;Node174</title>
<path fill="none" stroke="#191970" d="M902.8218,-82.5317C931.1693,-110.3038 988.5216,-166.4921 1010.9169,-188.4328"/>
<polygon fill="#191970" stroke="#191970" points="905.2413,-80.0023 895.6487,-75.5042 900.3425,-85.0025 905.2413,-80.0023"/>
</g>
<!-- Node189&#45;&gt;Node188 -->
<g id="edge35" class="edge">
<title>Node189&#45;&gt;Node188</title>
<path fill="none" stroke="#191970" d="M788.7537,-22.6653C812.4169,-33.2817 845.091,-47.9408 866.0002,-57.3217"/>
<polygon fill="#191970" stroke="#191970" points="790.097,-19.4319 779.5404,-18.5318 787.2316,-25.8186 790.097,-19.4319"/>
</g>
</g>
</svg>
