<?xml version="1.0" encoding="UTF-8" standalone="no"?>
<!DOCTYPE svg PUBLIC "-//W3C//DTD SVG 1.1//EN"
 "http://www.w3.org/Graphics/SVG/1.1/DTD/svg11.dtd">
<!-- Generated by graphviz version 2.40.1 (20161225.0304)
 -->
<!-- Title: analogRead Pages: 1 -->
<svg width="428pt" height="138pt"
 viewBox="0.00 0.00 427.55 138.00" xmlns="http://www.w3.org/2000/svg" xmlns:xlink="http://www.w3.org/1999/xlink">
<g id="graph0" class="graph" transform="scale(1 1) rotate(0) translate(4 134)">
<title>analogRead</title>
<!-- Node5 -->
<g id="node1" class="node">
<title>Node5</title>
<polygon fill="#bfbfbf" stroke="#000000" points="0,-74.5 0,-92.5 69.9355,-92.5 69.9355,-74.5 0,-74.5"/>
<text text-anchor="middle" x="34.9678" y="-80.5" font-family="Helvetica,sans-Serif" font-size="10.00" fill="#000000">analogRead</text>
</g>
<!-- Node6 -->
<g id="node2" class="node">
<title>Node6</title>
<g id="a_node2"><a xlink:href="auto_8c.html#a3c7ca506bbc071fa740de13805b7f376" target="_top" xlink:title="autonomous">
<polygon fill="none" stroke="#000000" points="107.9644,-111.5 107.9644,-129.5 179.0034,-129.5 179.0034,-111.5 107.9644,-111.5"/>
<text text-anchor="middle" x="143.4839" y="-117.5" font-family="Helvetica,sans-Serif" font-size="10.00" fill="#000000">autonomous</text>
</a>
</g>
</g>
<!-- Node5&#45;&gt;Node6 -->
<g id="edge1" class="edge">
<title>Node5&#45;&gt;Node6</title>
<path fill="none" stroke="#191970" d="M70.9927,-95.7832C85.9615,-100.887 103.0254,-106.7051 116.8358,-111.414"/>
<polygon fill="#191970" stroke="#191970" points="72.1083,-92.4658 61.5138,-92.5512 69.8492,-99.0912 72.1083,-92.4658"/>
</g>
<!-- Node7 -->
<g id="node3" class="node">
<title>Node7</title>
<g id="a_node3"><a xlink:href="claw_8c.html#addd2004effae7c94400aed1fe6a90ead" target="_top" xlink:title="Gets the claw position in potentiometer ticks. ">
<polygon fill="none" stroke="#000000" points="105.938,-74.5 105.938,-92.5 181.0298,-92.5 181.0298,-74.5 105.938,-74.5"/>
<text text-anchor="middle" x="143.4839" y="-80.5" font-family="Helvetica,sans-Serif" font-size="10.00" fill="#000000">getClawTicks</text>
</a>
</g>
</g>
<!-- Node5&#45;&gt;Node7 -->
<g id="edge2" class="edge">
<title>Node5&#45;&gt;Node7</title>
<path fill="none" stroke="#191970" d="M80.3378,-83.5C88.8175,-83.5 97.5949,-83.5 105.811,-83.5"/>
<polygon fill="#191970" stroke="#191970" points="80.1999,-80.0001 70.1998,-83.5 80.1998,-87.0001 80.1999,-80.0001"/>
</g>
<!-- Node10 -->
<g id="node6" class="node">
<title>Node10</title>
<g id="a_node6"><a xlink:href="lifter_8c.html#acdf909159b0406c48099843f2306be78" target="_top" xlink:title="getLifterTicks">
<polygon fill="none" stroke="#000000" points="105.9355,-37.5 105.9355,-55.5 181.0322,-55.5 181.0322,-37.5 105.9355,-37.5"/>
<text text-anchor="middle" x="143.4839" y="-43.5" font-family="Helvetica,sans-Serif" font-size="10.00" fill="#000000">getLifterTicks</text>
</a>
</g>
</g>
<!-- Node5&#45;&gt;Node10 -->
<g id="edge5" class="edge">
<title>Node5&#45;&gt;Node10</title>
<path fill="none" stroke="#191970" d="M70.9927,-71.2168C85.9615,-66.113 103.0254,-60.2949 116.8358,-55.586"/>
<polygon fill="#191970" stroke="#191970" points="69.8492,-67.9088 61.5138,-74.4488 72.1083,-74.5342 69.8492,-67.9088"/>
</g>
<!-- Node8 -->
<g id="node4" class="node">
<title>Node8</title>
<g id="a_node4"><a xlink:href="claw_8c.html#a0122b78972344264b8a276a559cfce4a" target="_top" xlink:title="Updates the claw motor values. ">
<polygon fill="none" stroke="#000000" points="221.4756,-74.5 221.4756,-92.5 293.6279,-92.5 293.6279,-74.5 221.4756,-74.5"/>
<text text-anchor="middle" x="257.5518" y="-80.5" font-family="Helvetica,sans-Serif" font-size="10.00" fill="#000000">update_claw</text>
</a>
</g>
</g>
<!-- Node7&#45;&gt;Node8 -->
<g id="edge3" class="edge">
<title>Node7&#45;&gt;Node8</title>
<path fill="none" stroke="#191970" d="M191.4368,-83.5C201.4943,-83.5 211.9384,-83.5 221.4747,-83.5"/>
<polygon fill="#191970" stroke="#191970" points="191.1501,-80.0001 181.1501,-83.5 191.1501,-87.0001 191.1501,-80.0001"/>
</g>
<!-- Node9 -->
<g id="node5" class="node">
<title>Node9</title>
<g id="a_node5"><a xlink:href="opcontrol_8c.html#ac71a94af413917f27d108e95c4d6f6a7" target="_top" xlink:title="operatorControl">
<polygon fill="none" stroke="#000000" points="334.0713,-55.5 334.0713,-73.5 419.5537,-73.5 419.5537,-55.5 334.0713,-55.5"/>
<text text-anchor="middle" x="376.8125" y="-61.5" font-family="Helvetica,sans-Serif" font-size="10.00" fill="#000000">operatorControl</text>
</a>
</g>
</g>
<!-- Node8&#45;&gt;Node9 -->
<g id="edge4" class="edge">
<title>Node8&#45;&gt;Node9</title>
<path fill="none" stroke="#191970" d="M303.6992,-76.148C313.5621,-74.5767 323.9442,-72.9227 333.6881,-71.3703"/>
<polygon fill="#191970" stroke="#191970" points="302.9823,-72.718 293.6576,-77.7478 304.0837,-79.6308 302.9823,-72.718"/>
</g>
<!-- Node11 -->
<g id="node7" class="node">
<title>Node11</title>
<g id="a_node7"><a xlink:href="lifter_8c.html#a59bb7413777ca16aba124aaedf95c79b" target="_top" xlink:title="update_lifter">
<polygon fill="none" stroke="#000000" points="222.0322,-37.5 222.0322,-55.5 293.0713,-55.5 293.0713,-37.5 222.0322,-37.5"/>
<text text-anchor="middle" x="257.5518" y="-43.5" font-family="Helvetica,sans-Serif" font-size="10.00" fill="#000000">update_lifter</text>
</a>
</g>
</g>
<!-- Node10&#45;&gt;Node11 -->
<g id="edge6" class="edge">
<title>Node10&#45;&gt;Node11</title>
<path fill="none" stroke="#191970" d="M191.2209,-46.5C201.4802,-46.5 212.1519,-46.5 221.8596,-46.5"/>
<polygon fill="#191970" stroke="#191970" points="191.1501,-43.0001 181.1501,-46.5 191.1501,-50.0001 191.1501,-43.0001"/>
</g>
<!-- Node12 -->
<g id="node8" class="node">
<title>Node12</title>
<g id="a_node8"><a xlink:href="lifter_8c.html#a2719740958fd8a5926f88f6194e820e3" target="_top" xlink:title="getLifterHeight">
<polygon fill="none" stroke="#000000" points="217.0322,-.5 217.0322,-18.5 298.0713,-18.5 298.0713,-.5 217.0322,-.5"/>
<text text-anchor="middle" x="257.5518" y="-6.5" font-family="Helvetica,sans-Serif" font-size="10.00" fill="#000000">getLifterHeight</text>
</a>
</g>
</g>
<!-- Node10&#45;&gt;Node12 -->
<g id="edge8" class="edge">
<title>Node10&#45;&gt;Node12</title>
<path fill="none" stroke="#191970" d="M180.9029,-34.3625C196.7445,-29.2239 214.8851,-23.3397 229.5404,-18.586"/>
<polygon fill="#191970" stroke="#191970" points="179.8202,-31.034 171.388,-37.4488 181.9801,-37.6925 179.8202,-31.034"/>
</g>
<!-- Node11&#45;&gt;Node9 -->
<g id="edge7" class="edge">
<title>Node11&#45;&gt;Node9</title>
<path fill="none" stroke="#191970" d="M303.5016,-53.4352C313.4953,-54.9435 324.0308,-56.5337 333.9014,-58.0234"/>
<polygon fill="#191970" stroke="#191970" points="303.7443,-49.9323 293.3339,-51.9006 302.6996,-56.8539 303.7443,-49.9323"/>
</g>
</g>
</svg>
