<?xml version="1.0" encoding="UTF-8" standalone="no"?>
<!DOCTYPE svg PUBLIC "-//W3C//DTD SVG 1.1//EN"
 "http://www.w3.org/Graphics/SVG/1.1/DTD/svg11.dtd">
<!-- Generated by graphviz version 2.40.1 (20161225.0304)
 -->
<!-- Title: delay Pages: 1 -->
<svg width="185pt" height="101pt"
 viewBox="0.00 0.00 185.50 101.00" xmlns="http://www.w3.org/2000/svg" xmlns:xlink="http://www.w3.org/1999/xlink">
<g id="graph0" class="graph" transform="scale(1 1) rotate(0) translate(4 97)">
<title>delay</title>
<!-- Node18 -->
<g id="node1" class="node">
<title>Node18</title>
<polygon fill="#bfbfbf" stroke="#000000" points="0,-37.5 0,-55.5 39.9063,-55.5 39.9063,-37.5 0,-37.5"/>
<text text-anchor="middle" x="19.9531" y="-43.5" font-family="Helvetica,sans-Serif" font-size="10.00" fill="#000000">delay</text>
</g>
<!-- Node19 -->
<g id="node2" class="node">
<title>Node19</title>
<g id="a_node2"><a xlink:href="menu_8c.html#abfadedb104f89f672dd3045499975a71" target="_top" xlink:title="Displays a menu context, but does not display. &#160;Menu must be freed or will cause memory leak! &#160;Will e...">
<polygon fill="none" stroke="#000000" points="87.8496,-74.5 87.8496,-92.5 165.5537,-92.5 165.5537,-74.5 87.8496,-74.5"/>
<text text-anchor="middle" x="126.7017" y="-80.5" font-family="Helvetica,sans-Serif" font-size="10.00" fill="#000000">display_menu</text>
</a>
</g>
</g>
<!-- Node18&#45;&gt;Node19 -->
<g id="edge1" class="edge">
<title>Node18&#45;&gt;Node19</title>
<path fill="none" stroke="#191970" d="M49.483,-56.7353C65.5251,-62.2957 85.1846,-69.1098 100.652,-74.471"/>
<polygon fill="#191970" stroke="#191970" points="50.6265,-53.4274 40.0317,-53.4594 48.334,-60.0414 50.6265,-53.4274"/>
</g>
<!-- Node20 -->
<g id="node3" class="node">
<title>Node20</title>
<g id="a_node3"><a xlink:href="opcontrol_8c.html#ac71a94af413917f27d108e95c4d6f6a7" target="_top" xlink:title="operatorControl">
<polygon fill="none" stroke="#000000" points="83.9604,-37.5 83.9604,-55.5 169.4429,-55.5 169.4429,-37.5 83.9604,-37.5"/>
<text text-anchor="middle" x="126.7017" y="-43.5" font-family="Helvetica,sans-Serif" font-size="10.00" fill="#000000">operatorControl</text>
</a>
</g>
</g>
<!-- Node18&#45;&gt;Node20 -->
<g id="edge2" class="edge">
<title>Node18&#45;&gt;Node20</title>
<path fill="none" stroke="#191970" d="M50.2595,-46.5C60.6605,-46.5 72.5087,-46.5 83.7204,-46.5"/>
<polygon fill="#191970" stroke="#191970" points="50.0317,-43.0001 40.0317,-46.5 50.0317,-50.0001 50.0317,-43.0001"/>
</g>
<!-- Node21 -->
<g id="node4" class="node">
<title>Node21</title>
<g id="a_node4"><a xlink:href="lcd_8c.html#a99f4683e1990edf624ab216bf327cba4" target="_top" xlink:title="Prompts the user to confirm a string. User must press middle button to confirm. Function is not threa...">
<polygon fill="none" stroke="#000000" points="75.9063,-.5 75.9063,-18.5 177.4971,-18.5 177.4971,-.5 75.9063,-.5"/>
<text text-anchor="middle" x="126.7017" y="-6.5" font-family="Helvetica,sans-Serif" font-size="10.00" fill="#000000">promt_confirmation</text>
</a>
</g>
</g>
<!-- Node18&#45;&gt;Node21 -->
<g id="edge3" class="edge">
<title>Node18&#45;&gt;Node21</title>
<path fill="none" stroke="#191970" d="M49.483,-36.2647C65.5251,-30.7043 85.1846,-23.8902 100.652,-18.529"/>
<polygon fill="#191970" stroke="#191970" points="48.334,-32.9586 40.0317,-39.5406 50.6265,-39.5726 48.334,-32.9586"/>
</g>
</g>
</svg>
