<?xml version="1.0" encoding="UTF-8" standalone="no"?>
<!DOCTYPE svg PUBLIC "-//W3C//DTD SVG 1.1//EN"
 "http://www.w3.org/Graphics/SVG/1.1/DTD/svg11.dtd">
<!-- Generated by graphviz version 2.40.1 (20161225.0304)
 -->
<!-- Title: millis Pages: 1 -->
<!--zoomable 94 -->
<svg id="main" version="1.1" xmlns="http://www.w3.org/2000/svg" xmlns:xlink="http://www.w3.org/1999/xlink" xml:space="preserve" onload="init(evt)">
<style type="text/css"><![CDATA[
.edge:hover path { stroke: red; }
.edge:hover polygon { stroke: red; fill: red; }
]]></style>
<script type="text/javascript"><![CDATA[
var edges = document.getElementsByTagName('g');
if (edges && edges.length) {
  for (var i=0;i<edges.length;i++) {
    if (edges[i].id.substr(0,4)=='edge') {
      edges[i].setAttribute('class','edge');
    }
  }
}
]]></script>
        <defs>
                <circle id="rim" cx="0" cy="0" r="7"/>
                <circle id="rim2" cx="0" cy="0" r="3.5"/>
                <g id="zoomPlus">
                        <use xlink:href="#rim" fill="#404040">
                                <set attributeName="fill" to="#808080" begin="zoomplus.mouseover" end="zoomplus.mouseout"/>
                        </use>
                        <path d="M-4,0h8M0,-4v8" fill="none" stroke="white" stroke-width="1.5" pointer-events="none"/>
                </g>
                <g id="zoomMin">
                        <use xlink:href="#rim" fill="#404040">
                                <set attributeName="fill" to="#808080" begin="zoomminus.mouseover" end="zoomminus.mouseout"/>
                        </use>
                        <path d="M-4,0h8" fill="none" stroke="white" stroke-width="1.5" pointer-events="none"/>
                </g>
                <g id="dirArrow">
                        <path fill="none" stroke="white" stroke-width="1.5" d="M0,-3.0v7 M-2.5,-0.5L0,-3.0L2.5,-0.5"/>
                </g>
               <g id="resetDef">
                       <use xlink:href="#rim2" fill="#404040">
                               <set attributeName="fill" to="#808080" begin="reset.mouseover" end="reset.mouseout"/>
                       </use>
               </g>
        </defs>

<script type="text/javascript">
var viewWidth = 571;
var viewHeight = 94;
var sectionId = 'dynsection-19';
</script>
<script xlink:href="svgpan.js"/>
<svg id="graph" class="graph">
<g id="viewport">
<title>millis</title>
<!-- Node168 -->
<g id="node1" class="node">
<title>Node168</title>
<polygon fill="#bfbfbf" stroke="#000000" points="0,-19.5 0,-37.5 38.2168,-37.5 38.2168,-19.5 0,-19.5"/>
<text text-anchor="middle" x="19.1084" y="-25.5" font-family="Helvetica,sans-Serif" font-size="10.00" fill="#000000">millis</text>
</g>
<!-- Node169 -->
<g id="node2" class="node">
<title>Node169</title>
<g id="a_node2"><a xlink:href="localization_8c.html#a6785e4b3b61887f28028f05019b9b39d" target="_top" xlink:title="calculate_accelerometer\l_odemetry">
<polygon fill="none" stroke="#000000" points="74.2168,-57.5 74.2168,-85.5 198.6055,-85.5 198.6055,-57.5 74.2168,-57.5"/>
<text text-anchor="start" x="82.2168" y="-73.5" font-family="Helvetica,sans-Serif" font-size="10.00" fill="#000000">calculate_accelerometer</text>
<text text-anchor="middle" x="136.4111" y="-63.5" font-family="Helvetica,sans-Serif" font-size="10.00" fill="#000000">_odemetry</text>
</a>
</g>
</g>
<!-- Node168&#45;&gt;Node169 -->
<g id="edge1" class="edge">
<title>Node168&#45;&gt;Node169</title>
<path fill="none" stroke="#191970" d="M48.2588,-39.1858C63.297,-44.6983 81.8336,-51.4934 98.0221,-57.4276"/>
<polygon fill="#191970" stroke="#191970" points="49.0723,-35.7562 38.4786,-35.6006 46.663,-42.3286 49.0723,-35.7562"/>
</g>
<!-- Node170 -->
<g id="node3" class="node">
<title>Node170</title>
<g id="a_node3"><a xlink:href="localization_8c.html#afacd5e0b3d5e677df26a4402bbd9ec9e" target="_top" xlink:title="update_position">
<polygon fill="none" stroke="#000000" points="234.6055,-19.5 234.6055,-37.5 321.2207,-37.5 321.2207,-19.5 234.6055,-19.5"/>
<text text-anchor="middle" x="277.9131" y="-25.5" font-family="Helvetica,sans-Serif" font-size="10.00" fill="#000000">update_position</text>
</a>
</g>
</g>
<!-- Node168&#45;&gt;Node170 -->
<g id="edge6" class="edge">
<title>Node168&#45;&gt;Node170</title>
<path fill="none" stroke="#191970" d="M48.6639,-28.5C94.2058,-28.5 181.7823,-28.5 234.5221,-28.5"/>
<polygon fill="#191970" stroke="#191970" points="48.5608,-25.0001 38.5608,-28.5 48.5608,-32.0001 48.5608,-25.0001"/>
</g>
<!-- Node171 -->
<g id="node4" class="node">
<title>Node171</title>
<g id="a_node4"><a xlink:href="localization_8c.html#afdd0147de6aa15957e9a125f9cd20578" target="_top" xlink:title="Starts the localization process. ">
<polygon fill="none" stroke="#000000" points="357.2207,-.5 357.2207,-18.5 441.0381,-18.5 441.0381,-.5 357.2207,-.5"/>
<text text-anchor="middle" x="399.1294" y="-6.5" font-family="Helvetica,sans-Serif" font-size="10.00" fill="#000000">init_localization</text>
</a>
</g>
</g>
<!-- Node168&#45;&gt;Node171 -->
<g id="edge5" class="edge">
<title>Node168&#45;&gt;Node171</title>
<path fill="none" stroke="#191970" d="M48.6021,-25.3098C90.067,-20.9906 167.9857,-13.4803 234.6055,-10.5 276.2668,-8.6362 323.9206,-8.5731 357.1812,-8.8629"/>
<polygon fill="#191970" stroke="#191970" points="47.9715,-21.8568 38.3934,-26.3858 48.7052,-28.8183 47.9715,-21.8568"/>
</g>
<!-- Node169&#45;&gt;Node170 -->
<g id="edge2" class="edge">
<title>Node169&#45;&gt;Node170</title>
<path fill="none" stroke="#191970" d="M192.4865,-54.4597C211.431,-48.7028 231.8438,-42.4997 247.9636,-37.6011"/>
<polygon fill="#191970" stroke="#191970" points="191.2945,-51.1638 182.7442,-57.4202 193.3298,-57.8614 191.2945,-51.1638"/>
</g>
<!-- Node170&#45;&gt;Node171 -->
<g id="edge3" class="edge">
<title>Node170&#45;&gt;Node171</title>
<path fill="none" stroke="#191970" d="M331.2504,-20.1397C339.8113,-18.7978 348.5685,-17.4251 356.8256,-16.1309"/>
<polygon fill="#191970" stroke="#191970" points="330.6699,-16.6878 321.3326,-21.6942 331.754,-23.6034 330.6699,-16.6878"/>
</g>
<!-- Node172 -->
<g id="node5" class="node">
<title>Node172</title>
<g id="a_node5"><a xlink:href="opcontrol_8c.html#ac71a94af413917f27d108e95c4d6f6a7" target="_top" xlink:title="operatorControl">
<polygon fill="none" stroke="#000000" points="477.0381,-.5 477.0381,-18.5 562.5205,-18.5 562.5205,-.5 477.0381,-.5"/>
<text text-anchor="middle" x="519.7793" y="-6.5" font-family="Helvetica,sans-Serif" font-size="10.00" fill="#000000">operatorControl</text>
</a>
</g>
</g>
<!-- Node171&#45;&gt;Node172 -->
<g id="edge4" class="edge">
<title>Node171&#45;&gt;Node172</title>
<path fill="none" stroke="#191970" d="M451.5433,-9.5C460.0437,-9.5 468.7573,-9.5 476.9932,-9.5"/>
<polygon fill="#191970" stroke="#191970" points="451.3269,-6.0001 441.3269,-9.5 451.3268,-13.0001 451.3269,-6.0001"/>
</g>
</g>
</svg>
        <g id="navigator" transform="translate(0 0)" fill="#404254">
                <rect fill="#f2f5e9" fill-opacity="0.5" stroke="#606060" stroke-width=".5" x="0" y="0" width="60" height="60"/>
                <use id="zoomplus" xlink:href="#zoomPlus" x="17" y="9" onmousedown="handleZoom(evt,'in')"/>
                <use id="zoomminus" xlink:href="#zoomMin" x="42" y="9" onmousedown="handleZoom(evt,'out')"/>
                <use id="reset" xlink:href="#resetDef" x="30" y="36" onmousedown="handleReset()"/>
                <g id="arrowUp" xlink:href="#dirArrow" transform="translate(30 24)" onmousedown="handlePan(0,-1)">
                  <use xlink:href="#rim" fill="#404040">
                        <set attributeName="fill" to="#808080" begin="arrowUp.mouseover" end="arrowUp.mouseout"/>
                  </use>
                  <path fill="none" stroke="white" stroke-width="1.5" d="M0,-3.0v7 M-2.5,-0.5L0,-3.0L2.5,-0.5"/>
                </g>
                <g id="arrowRight" xlink:href="#dirArrow" transform="rotate(90) translate(36 -43)" onmousedown="handlePan(1,0)">
                  <use xlink:href="#rim" fill="#404040">
                        <set attributeName="fill" to="#808080" begin="arrowRight.mouseover" end="arrowRight.mouseout"/>
                  </use>
                  <path fill="none" stroke="white" stroke-width="1.5" d="M0,-3.0v7 M-2.5,-0.5L0,-3.0L2.5,-0.5"/>
                </g>
                <g id="arrowDown" xlink:href="#dirArrow" transform="rotate(180) translate(-30 -48)" onmousedown="handlePan(0,1)">
                  <use xlink:href="#rim" fill="#404040">
                        <set attributeName="fill" to="#808080" begin="arrowDown.mouseover" end="arrowDown.mouseout"/>
                  </use>
                  <path fill="none" stroke="white" stroke-width="1.5" d="M0,-3.0v7 M-2.5,-0.5L0,-3.0L2.5,-0.5"/>
                </g>
                <g id="arrowLeft" xlink:href="#dirArrow" transform="rotate(270) translate(-36 17)" onmousedown="handlePan(-1,0)">
                  <use xlink:href="#rim" fill="#404040">
                        <set attributeName="fill" to="#808080" begin="arrowLeft.mouseover" end="arrowLeft.mouseout"/>
                  </use>
                  <path fill="none" stroke="white" stroke-width="1.5" d="M0,-3.0v7 M-2.5,-0.5L0,-3.0L2.5,-0.5"/>
                </g>
        </g>
        <svg viewBox="0 0 15 15" width="100%" height="30px" preserveAspectRatio="xMaxYMin meet">
         <g id="arrow_out" transform="scale(0.3 0.3)">
          <a xlink:href="_a_p_i_8h_a6ff7f2532a22366f0013bc41397129fd_icgraph_org.svg" target="_base">
           <rect id="button" ry="5" rx="5" y="6" x="6" height="38" width="38"
                fill="#f2f5e9" fill-opacity="0.5" stroke="#606060" stroke-width="1.0"/>
           <path id="arrow"
             d="M 11.500037,31.436501 C 11.940474,20.09759 22.043105,11.32322 32.158766,21.979434 L 37.068811,17.246167 C 37.068811,17.246167 37.088388,32 37.088388,32 L 22.160133,31.978069 C 22.160133,31.978069 26.997745,27.140456 26.997745,27.140456 C 18.528582,18.264221 13.291696,25.230495 11.500037,31.436501 z"
             style="fill:#404040;"/>
          </a>
         </g>
        </svg>
</svg>
