<?xml version="1.0" encoding="UTF-8" standalone="no"?>
<!DOCTYPE svg PUBLIC "-//W3C//DTD SVG 1.1//EN"
 "http://www.w3.org/Graphics/SVG/1.1/DTD/svg11.dtd">
<!-- Generated by graphviz version 2.40.1 (20161225.0304)
 -->
<!-- Title: printf Pages: 1 -->
<!--zoomable 496 -->
<svg id="main" version="1.1" xmlns="http://www.w3.org/2000/svg" xmlns:xlink="http://www.w3.org/1999/xlink" xml:space="preserve" onload="init(evt)">
<style type="text/css"><![CDATA[
.edge:hover path { stroke: red; }
.edge:hover polygon { stroke: red; fill: red; }
]]></style>
<script type="text/javascript"><![CDATA[
var edges = document.getElementsByTagName('g');
if (edges && edges.length) {
  for (var i=0;i<edges.length;i++) {
    if (edges[i].id.substr(0,4)=='edge') {
      edges[i].setAttribute('class','edge');
    }
  }
}
]]></script>
        <defs>
                <circle id="rim" cx="0" cy="0" r="7"/>
                <circle id="rim2" cx="0" cy="0" r="3.5"/>
                <g id="zoomPlus">
                        <use xlink:href="#rim" fill="#404040">
                                <set attributeName="fill" to="#808080" begin="zoomplus.mouseover" end="zoomplus.mouseout"/>
                        </use>
                        <path d="M-4,0h8M0,-4v8" fill="none" stroke="white" stroke-width="1.5" pointer-events="none"/>
                </g>
                <g id="zoomMin">
                        <use xlink:href="#rim" fill="#404040">
                                <set attributeName="fill" to="#808080" begin="zoomminus.mouseover" end="zoomminus.mouseout"/>
                        </use>
                        <path d="M-4,0h8" fill="none" stroke="white" stroke-width="1.5" pointer-events="none"/>
                </g>
                <g id="dirArrow">
                        <path fill="none" stroke="white" stroke-width="1.5" d="M0,-3.0v7 M-2.5,-0.5L0,-3.0L2.5,-0.5"/>
                </g>
               <g id="resetDef">
                       <use xlink:href="#rim2" fill="#404040">
                               <set attributeName="fill" to="#808080" begin="reset.mouseover" end="reset.mouseout"/>
                       </use>
               </g>
        </defs>

<script type="text/javascript">
var viewWidth = 1174;
var viewHeight = 496;
var sectionId = 'dynsection-28';
</script>
<script xlink:href="svgpan.js"/>
<svg id="graph" class="graph">
<g id="viewport">
<title>printf</title>
<!-- Node359 -->
<g id="node1" class="node">
<title>Node359</title>
<polygon fill="#bfbfbf" stroke="#000000" points="0,-253.5 0,-271.5 38.2314,-271.5 38.2314,-253.5 0,-253.5"/>
<text text-anchor="middle" x="19.1157" y="-259.5" font-family="Helvetica,sans-Serif" font-size="10.00" fill="#000000">printf</text>
</g>
<!-- Node360 -->
<g id="node2" class="node">
<title>Node360</title>
<g id="a_node2"><a xlink:href="auto_8c.html#a3c7ca506bbc071fa740de13805b7f376" target="_top" xlink:title="autonomous">
<polygon fill="none" stroke="#000000" points="820.3154,-393.5 820.3154,-411.5 891.3545,-411.5 891.3545,-393.5 820.3154,-393.5"/>
<text text-anchor="middle" x="855.835" y="-399.5" font-family="Helvetica,sans-Serif" font-size="10.00" fill="#000000">autonomous</text>
</a>
</g>
</g>
<!-- Node359&#45;&gt;Node360 -->
<g id="edge1" class="edge">
<title>Node359&#45;&gt;Node360</title>
<path fill="none" stroke="#191970" d="M22.5182,-281.7892C28.2922,-308.6743 42.6144,-357.0775 74.2314,-383.5 153.1443,-449.4478 195.6528,-440.5 298.4941,-440.5 298.4941,-440.5 298.4941,-440.5 592.0352,-440.5 674.3981,-440.5 769.7616,-422.1285 820.2276,-410.9334"/>
<polygon fill="#191970" stroke="#191970" points="25.9009,-280.8507 20.5415,-271.7113 19.0317,-282.198 25.9009,-280.8507"/>
</g>
<!-- Node361 -->
<g id="node3" class="node">
<title>Node361</title>
<g id="a_node3"><a xlink:href="localization_8c.html#a6785e4b3b61887f28028f05019b9b39d" target="_top" xlink:title="calculate_accelerometer\l_odemetry">
<polygon fill="none" stroke="#000000" points="74.2314,-227.5 74.2314,-255.5 198.6201,-255.5 198.6201,-227.5 74.2314,-227.5"/>
<text text-anchor="start" x="82.2314" y="-243.5" font-family="Helvetica,sans-Serif" font-size="10.00" fill="#000000">calculate_accelerometer</text>
<text text-anchor="middle" x="136.4258" y="-233.5" font-family="Helvetica,sans-Serif" font-size="10.00" fill="#000000">_odemetry</text>
</a>
</g>
</g>
<!-- Node359&#45;&gt;Node361 -->
<g id="edge2" class="edge">
<title>Node359&#45;&gt;Node361</title>
<path fill="none" stroke="#191970" d="M48.5623,-257.2287C56.4367,-255.8191 65.2542,-254.2406 74.1829,-252.6423"/>
<polygon fill="#191970" stroke="#191970" points="47.7138,-253.8248 38.4871,-259.0323 48.9474,-260.7153 47.7138,-253.8248"/>
</g>
<!-- Node364 -->
<g id="node6" class="node">
<title>Node364</title>
<g id="a_node6"><a xlink:href="log_8c.html#af3668f40d1ad1b4f3418869ac9a31f34" target="_top" xlink:title="prints a info message ">
<polygon fill="none" stroke="#000000" points="427.2598,-374.5 427.2598,-392.5 471.0674,-392.5 471.0674,-374.5 427.2598,-374.5"/>
<text text-anchor="middle" x="449.1636" y="-380.5" font-family="Helvetica,sans-Serif" font-size="10.00" fill="#000000">debug</text>
</a>
</g>
</g>
<!-- Node359&#45;&gt;Node364 -->
<g id="edge5" class="edge">
<title>Node359&#45;&gt;Node364</title>
<path fill="none" stroke="#191970" d="M25.4317,-281.217C33.3679,-301.5533 49.0802,-333.1843 74.2314,-348.5 190.6525,-419.3938 366.1397,-398.0249 427.2539,-387.6544"/>
<polygon fill="#191970" stroke="#191970" points="28.6964,-279.9534 21.9816,-271.7582 22.1202,-282.3521 28.6964,-279.9534"/>
</g>
<!-- Node382 -->
<g id="node24" class="node">
<title>Node382</title>
<g id="a_node24"><a xlink:href="log_8c.html#a1606d750e1bb8de9f9e917172bba3382" target="_top" xlink:title="prints a info message ">
<polygon fill="none" stroke="#000000" points="120.3643,-320.5 120.3643,-338.5 152.4873,-338.5 152.4873,-320.5 120.3643,-320.5"/>
<text text-anchor="middle" x="136.4258" y="-326.5" font-family="Helvetica,sans-Serif" font-size="10.00" fill="#000000">info</text>
</a>
</g>
</g>
<!-- Node359&#45;&gt;Node382 -->
<g id="edge34" class="edge">
<title>Node359&#45;&gt;Node382</title>
<path fill="none" stroke="#191970" d="M37.9507,-277.749C48.2909,-285.7074 61.5569,-295.2651 74.2314,-302.5 89.157,-311.0197 107.2872,-318.6036 120.1121,-323.5479"/>
<polygon fill="#191970" stroke="#191970" points="40.0559,-274.952 30.0302,-271.5262 35.7313,-280.4564 40.0559,-274.952"/>
</g>
<!-- Node384 -->
<g id="node26" class="node">
<title>Node384</title>
<g id="a_node26"><a xlink:href="init_8c.html#a25a40b6614565f755233080a384c35f1" target="_top" xlink:title="initialize">
<polygon fill="none" stroke="#000000" points="110.6401,-190.5 110.6401,-208.5 162.2114,-208.5 162.2114,-190.5 110.6401,-190.5"/>
<text text-anchor="middle" x="136.4258" y="-196.5" font-family="Helvetica,sans-Serif" font-size="10.00" fill="#000000">initialize</text>
</a>
</g>
</g>
<!-- Node359&#45;&gt;Node384 -->
<g id="edge40" class="edge">
<title>Node359&#45;&gt;Node384</title>
<path fill="none" stroke="#191970" d="M35.9369,-246.2826C46.2857,-237.0501 60.2151,-225.8882 74.2314,-218.5 85.5175,-212.551 98.958,-208.1519 110.452,-205.0935"/>
<polygon fill="#191970" stroke="#191970" points="33.452,-243.813 28.4718,-253.1643 38.1966,-248.9598 33.452,-243.813"/>
</g>
<!-- Node385 -->
<g id="node27" class="node">
<title>Node385</title>
<g id="a_node27"><a xlink:href="lcd_8c.html#a07f04b524b5ded617d5f193db05ba0ad" target="_top" xlink:title="Asserts the lcd is initialized Works by checking is the File *lcd_port is the default NULL value and ...">
<polygon fill="none" stroke="#000000" points="105.6377,-136.5 105.6377,-154.5 167.2139,-154.5 167.2139,-136.5 105.6377,-136.5"/>
<text text-anchor="middle" x="136.4258" y="-142.5" font-family="Helvetica,sans-Serif" font-size="10.00" fill="#000000">lcd_assert</text>
</a>
</g>
</g>
<!-- Node359&#45;&gt;Node385 -->
<g id="edge41" class="edge">
<title>Node359&#45;&gt;Node385</title>
<path fill="none" stroke="#191970" d="M28.5112,-244.02C38.1694,-226.3624 54.5505,-199.7984 74.2314,-181.5 86.3836,-170.2015 102.6959,-160.926 115.5658,-154.621"/>
<polygon fill="#191970" stroke="#191970" points="25.2072,-242.7812 23.6274,-253.2576 31.3955,-246.0529 25.2072,-242.7812"/>
</g>
<!-- Node393 -->
<g id="node35" class="node">
<title>Node393</title>
<g id="a_node35"><a xlink:href="log_8c.html#afff22aff6749311a684a559cac3ac8bd" target="_top" xlink:title="log_info">
<polygon fill="none" stroke="#000000" points="110.9111,-274.5 110.9111,-292.5 161.9404,-292.5 161.9404,-274.5 110.9111,-274.5"/>
<text text-anchor="middle" x="136.4258" y="-280.5" font-family="Helvetica,sans-Serif" font-size="10.00" fill="#000000">log_info</text>
</a>
</g>
</g>
<!-- Node359&#45;&gt;Node393 -->
<g id="edge52" class="edge">
<title>Node359&#45;&gt;Node393</title>
<path fill="none" stroke="#191970" d="M48.4921,-267.7588C67.6802,-271.1937 92.4905,-275.635 110.8628,-278.9239"/>
<polygon fill="#191970" stroke="#191970" points="48.9474,-264.2847 38.4871,-265.9677 47.7138,-271.1752 48.9474,-264.2847"/>
</g>
<!-- Node400 -->
<g id="node40" class="node">
<title>Node400</title>
<g id="a_node40"><a xlink:href="matrix_8c.html#a50ab2b1ac33d6993d93522fc4f30a051" target="_top" xlink:title="Prints a matrix. ">
<polygon fill="none" stroke="#000000" points="105.0884,-99.5 105.0884,-117.5 167.7632,-117.5 167.7632,-99.5 105.0884,-99.5"/>
<text text-anchor="middle" x="136.4258" y="-105.5" font-family="Helvetica,sans-Serif" font-size="10.00" fill="#000000">printMatrix</text>
</a>
</g>
</g>
<!-- Node359&#45;&gt;Node400 -->
<g id="edge58" class="edge">
<title>Node359&#45;&gt;Node400</title>
<path fill="none" stroke="#191970" d="M21.5785,-243.1221C26.3577,-213.6436 39.6554,-157.6763 74.2314,-126.5 82.6632,-118.8973 94.1226,-114.4919 104.9082,-111.9442"/>
<polygon fill="#191970" stroke="#191970" points="18.0681,-242.9422 20.0958,-253.3412 24.9955,-243.9474 18.0681,-242.9422"/>
</g>
<!-- Node362 -->
<g id="node4" class="node">
<title>Node362</title>
<g id="a_node4"><a xlink:href="localization_8c.html#afacd5e0b3d5e677df26a4402bbd9ec9e" target="_top" xlink:title="update_position">
<polygon fill="none" stroke="#000000" points="255.1865,-224.5 255.1865,-242.5 341.8018,-242.5 341.8018,-224.5 255.1865,-224.5"/>
<text text-anchor="middle" x="298.4941" y="-230.5" font-family="Helvetica,sans-Serif" font-size="10.00" fill="#000000">update_position</text>
</a>
</g>
</g>
<!-- Node361&#45;&gt;Node362 -->
<g id="edge3" class="edge">
<title>Node361&#45;&gt;Node362</title>
<path fill="none" stroke="#191970" d="M208.8402,-237.9255C224.5229,-237.1514 240.6412,-236.3557 254.8096,-235.6564"/>
<polygon fill="#191970" stroke="#191970" points="208.4374,-234.441 198.6221,-238.4299 208.7826,-241.4325 208.4374,-234.441"/>
</g>
<!-- Node363 -->
<g id="node5" class="node">
<title>Node363</title>
<g id="a_node5"><a xlink:href="localization_8c.html#afdd0147de6aa15957e9a125f9cd20578" target="_top" xlink:title="Starts the localization process. ">
<polygon fill="none" stroke="#000000" points="407.2549,-224.5 407.2549,-242.5 491.0723,-242.5 491.0723,-224.5 407.2549,-224.5"/>
<text text-anchor="middle" x="449.1636" y="-230.5" font-family="Helvetica,sans-Serif" font-size="10.00" fill="#000000">init_localization</text>
</a>
</g>
</g>
<!-- Node362&#45;&gt;Node363 -->
<g id="edge4" class="edge">
<title>Node362&#45;&gt;Node363</title>
<path fill="none" stroke="#191970" d="M352.1922,-233.5C370.2821,-233.5 390.1908,-233.5 407.2375,-233.5"/>
<polygon fill="#191970" stroke="#191970" points="352.074,-230.0001 342.074,-233.5 352.0739,-237.0001 352.074,-230.0001"/>
</g>
<!-- Node365 -->
<g id="node7" class="node">
<title>Node365</title>
<g id="a_node7"><a xlink:href="slew_8c.html#a7dff2b79dffe55fb936d977594d7c01d" target="_top" xlink:title="Sets motor speed wrapped inside the slew rate controller. ">
<polygon fill="none" stroke="#000000" points="549.0205,-393.5 549.0205,-411.5 635.0498,-411.5 635.0498,-393.5 549.0205,-393.5"/>
<text text-anchor="middle" x="592.0352" y="-399.5" font-family="Helvetica,sans-Serif" font-size="10.00" fill="#000000">set_motor_slew</text>
</a>
</g>
</g>
<!-- Node364&#45;&gt;Node365 -->
<g id="edge6" class="edge">
<title>Node364&#45;&gt;Node365</title>
<path fill="none" stroke="#191970" d="M481.3131,-387.7755C501.2971,-390.4331 527.2345,-393.8824 548.9813,-396.7744"/>
<polygon fill="#191970" stroke="#191970" points="481.5483,-384.276 471.1742,-386.4271 480.6255,-391.2149 481.5483,-384.276"/>
</g>
<!-- Node369 -->
<g id="node11" class="node">
<title>Node369</title>
<g id="a_node11"><a xlink:href="slew_8c.html#a9f8b8ae577ef938622024545711f0151" target="_top" xlink:title="set_motor_immediate">
<polygon fill="none" stroke="#000000" points="535.959,-317.5 535.959,-335.5 648.1113,-335.5 648.1113,-317.5 535.959,-317.5"/>
<text text-anchor="middle" x="592.0352" y="-323.5" font-family="Helvetica,sans-Serif" font-size="10.00" fill="#000000">set_motor_immediate</text>
</a>
</g>
</g>
<!-- Node364&#45;&gt;Node369 -->
<g id="edge11" class="edge">
<title>Node364&#45;&gt;Node369</title>
<path fill="none" stroke="#191970" d="M480.5044,-370.9963C507.3252,-360.2959 545.2986,-345.146 569.2906,-335.5741"/>
<polygon fill="#191970" stroke="#191970" points="479.1653,-367.7622 471.1742,-374.7187 481.7592,-374.2639 479.1653,-367.7622"/>
</g>
<!-- Node366 -->
<g id="node8" class="node">
<title>Node366</title>
<g id="a_node8"><a xlink:href="drive_8c.html#a8df41fd50094c065eedc81fc5e6595d1" target="_top" xlink:title="sets the speed of one side of the robot. ">
<polygon fill="none" stroke="#000000" points="687.439,-469.5 687.439,-487.5 773.4927,-487.5 773.4927,-469.5 687.439,-469.5"/>
<text text-anchor="middle" x="730.4658" y="-475.5" font-family="Helvetica,sans-Serif" font-size="10.00" fill="#000000">set_side_speed</text>
</a>
</g>
</g>
<!-- Node365&#45;&gt;Node366 -->
<g id="edge7" class="edge">
<title>Node365&#45;&gt;Node366</title>
<path fill="none" stroke="#191970" d="M617.3173,-416.3802C645.4661,-431.8342 690.1398,-456.3605 714.0638,-469.4951"/>
<polygon fill="#191970" stroke="#191970" points="618.9088,-413.2612 608.4586,-411.5166 615.54,-419.3973 618.9088,-413.2612"/>
</g>
<!-- Node366&#45;&gt;Node360 -->
<g id="edge8" class="edge">
<title>Node366&#45;&gt;Node360</title>
<path fill="none" stroke="#191970" d="M758.4665,-464.6007C764.5808,-461.4004 770.9703,-457.9268 776.8203,-454.5 800.7672,-440.4723 827.5318,-422.3036 842.9577,-411.5747"/>
<polygon fill="#191970" stroke="#191970" points="756.4985,-461.6768 749.2023,-469.359 759.6967,-467.9036 756.4985,-461.6768"/>
</g>
<!-- Node367 -->
<g id="node9" class="node">
<title>Node367</title>
<g id="a_node9"><a xlink:href="drive_8c.html#a8224a4626a934d30ed587671b7004bf8" target="_top" xlink:title="Updates the drive motors during teleop. ">
<polygon fill="none" stroke="#000000" points="934.8496,-421.5 934.8496,-439.5 1044.7949,-439.5 1044.7949,-421.5 934.8496,-421.5"/>
<text text-anchor="middle" x="989.8223" y="-427.5" font-family="Helvetica,sans-Serif" font-size="10.00" fill="#000000">update_drive_motors</text>
</a>
</g>
</g>
<!-- Node366&#45;&gt;Node367 -->
<g id="edge9" class="edge">
<title>Node366&#45;&gt;Node367</title>
<path fill="none" stroke="#191970" d="M783.6875,-468.6501C829.8132,-460.1134 896.0131,-447.8616 940.8488,-439.5637"/>
<polygon fill="#191970" stroke="#191970" points="782.7805,-465.2584 773.5844,-470.5199 784.0544,-472.1415 782.7805,-465.2584"/>
</g>
<!-- Node368 -->
<g id="node10" class="node">
<title>Node368</title>
<g id="a_node10"><a xlink:href="opcontrol_8c.html#ac71a94af413917f27d108e95c4d6f6a7" target="_top" xlink:title="operatorControl">
<polygon fill="none" stroke="#000000" points="1080.7949,-280.5 1080.7949,-298.5 1166.2773,-298.5 1166.2773,-280.5 1080.7949,-280.5"/>
<text text-anchor="middle" x="1123.5361" y="-286.5" font-family="Helvetica,sans-Serif" font-size="10.00" fill="#000000">operatorControl</text>
</a>
</g>
</g>
<!-- Node367&#45;&gt;Node368 -->
<g id="edge10" class="edge">
<title>Node367&#45;&gt;Node368</title>
<path fill="none" stroke="#191970" d="M1005.7679,-413.6855C1034.2299,-383.6726 1092.8609,-321.8467 1114.9043,-298.6022"/>
<polygon fill="#191970" stroke="#191970" points="1002.9371,-411.5841 998.5956,-421.2486 1008.0164,-416.4009 1002.9371,-411.5841"/>
</g>
<!-- Node370 -->
<g id="node12" class="node">
<title>Node370</title>
<g id="a_node12"><a xlink:href="claw_8c.html#a3a57f998b1884d39b0cc786689f7086f" target="_top" xlink:title="sets the claw motor speed ">
<polygon fill="none" stroke="#000000" points="812.8203,-356.5 812.8203,-374.5 898.8496,-374.5 898.8496,-356.5 812.8203,-356.5"/>
<text text-anchor="middle" x="855.835" y="-362.5" font-family="Helvetica,sans-Serif" font-size="10.00" fill="#000000">set_claw_motor</text>
</a>
</g>
</g>
<!-- Node369&#45;&gt;Node370 -->
<g id="edge12" class="edge">
<title>Node369&#45;&gt;Node370</title>
<path fill="none" stroke="#191970" d="M629.484,-314.6022C667.4886,-304.4659 727.5761,-293.819 776.8203,-309.5 805.9786,-318.7849 833.614,-343.1721 847.1543,-356.495"/>
<polygon fill="#191970" stroke="#191970" points="628.0674,-311.3638 619.3777,-317.4253 629.9507,-318.1057 628.0674,-311.3638"/>
</g>
<!-- Node372 -->
<g id="node14" class="node">
<title>Node372</title>
<g id="a_node14"><a xlink:href="claw_8c.html#a03023ca28f671b9fa7bac07782ccd8c1" target="_top" xlink:title="Drives the motors to open the claw. ">
<polygon fill="none" stroke="#000000" points="698.5596,-318.5 698.5596,-336.5 762.3721,-336.5 762.3721,-318.5 698.5596,-318.5"/>
<text text-anchor="middle" x="730.4658" y="-324.5" font-family="Helvetica,sans-Serif" font-size="10.00" fill="#000000">open_claw</text>
</a>
</g>
</g>
<!-- Node369&#45;&gt;Node372 -->
<g id="edge15" class="edge">
<title>Node369&#45;&gt;Node372</title>
<path fill="none" stroke="#191970" d="M658.4321,-326.9796C672.3732,-327.0803 686.467,-327.1822 698.4462,-327.2687"/>
<polygon fill="#191970" stroke="#191970" points="658.3653,-323.4792 648.3402,-326.9067 658.3146,-330.479 658.3653,-323.4792"/>
</g>
<!-- Node373 -->
<g id="node15" class="node">
<title>Node373</title>
<g id="a_node15"><a xlink:href="claw_8c.html#ac42dd40dbb37219295286859c6b068c2" target="_top" xlink:title="Drives the motors to close the claw. ">
<polygon fill="none" stroke="#000000" points="698.0103,-355.5 698.0103,-373.5 762.9214,-373.5 762.9214,-355.5 698.0103,-355.5"/>
<text text-anchor="middle" x="730.4658" y="-361.5" font-family="Helvetica,sans-Serif" font-size="10.00" fill="#000000">close_claw</text>
</a>
</g>
</g>
<!-- Node369&#45;&gt;Node373 -->
<g id="edge17" class="edge">
<title>Node369&#45;&gt;Node373</title>
<path fill="none" stroke="#191970" d="M634.5218,-338.1628C654.9184,-343.7618 678.9738,-350.3651 697.8952,-355.5592"/>
<polygon fill="#191970" stroke="#191970" points="635.4111,-334.7775 624.8413,-335.5055 633.558,-341.5278 635.4111,-334.7775"/>
</g>
<!-- Node374 -->
<g id="node16" class="node">
<title>Node374</title>
<g id="a_node16"><a xlink:href="lifter_8c.html#a2cfc188f60f945c824dd7fe7b0b5f4e4" target="_top" xlink:title="Sets the lifter motors to the given value. ">
<polygon fill="none" stroke="#000000" points="685.5078,-242.5 685.5078,-260.5 775.4238,-260.5 775.4238,-242.5 685.5078,-242.5"/>
<text text-anchor="middle" x="730.4658" y="-248.5" font-family="Helvetica,sans-Serif" font-size="10.00" fill="#000000">set_lifter_motors</text>
</a>
</g>
</g>
<!-- Node369&#45;&gt;Node374 -->
<g id="edge19" class="edge">
<title>Node369&#45;&gt;Node374</title>
<path fill="none" stroke="#191970" d="M617.1929,-312.316C635.6427,-301.975 661.3409,-287.6977 684.1113,-275.5 693.5376,-270.4505 704.1227,-264.9569 712.7955,-260.5014"/>
<polygon fill="#191970" stroke="#191970" points="615.2647,-309.3846 608.2595,-317.333 618.6924,-315.488 615.2647,-309.3846"/>
</g>
<!-- Node378 -->
<g id="node20" class="node">
<title>Node378</title>
<g id="a_node20"><a xlink:href="mobile__goal__intake_8c.html#a8f215023832ba515d7b4535e3ae07498" target="_top" xlink:title="set_intake_motor">
<polygon fill="none" stroke="#000000" points="684.1113,-186.5 684.1113,-204.5 776.8203,-204.5 776.8203,-186.5 684.1113,-186.5"/>
<text text-anchor="middle" x="730.4658" y="-192.5" font-family="Helvetica,sans-Serif" font-size="10.00" fill="#000000">set_intake_motor</text>
</a>
</g>
</g>
<!-- Node369&#45;&gt;Node378 -->
<g id="edge27" class="edge">
<title>Node369&#45;&gt;Node378</title>
<path fill="none" stroke="#191970" d="M607.4297,-309.9416C625.3277,-290.9324 656.0119,-259.0819 684.1113,-233.5 695.4998,-223.1319 709.2133,-212.0512 718.7572,-204.5472"/>
<polygon fill="#191970" stroke="#191970" points="604.6552,-307.7839 600.3738,-317.4752 609.7643,-312.5691 604.6552,-307.7839"/>
</g>
<!-- Node371 -->
<g id="node13" class="node">
<title>Node371</title>
<g id="a_node13"><a xlink:href="claw_8c.html#a0122b78972344264b8a276a559cfce4a" target="_top" xlink:title="Updates the claw motor values. ">
<polygon fill="none" stroke="#000000" points="953.7461,-336.5 953.7461,-354.5 1025.8984,-354.5 1025.8984,-336.5 953.7461,-336.5"/>
<text text-anchor="middle" x="989.8223" y="-342.5" font-family="Helvetica,sans-Serif" font-size="10.00" fill="#000000">update_claw</text>
</a>
</g>
</g>
<!-- Node370&#45;&gt;Node371 -->
<g id="edge13" class="edge">
<title>Node370&#45;&gt;Node371</title>
<path fill="none" stroke="#191970" d="M909.0923,-357.5504C923.992,-355.3263 939.8388,-352.9609 953.5109,-350.9201"/>
<polygon fill="#191970" stroke="#191970" points="908.3406,-354.1237 898.9669,-359.0618 909.3741,-361.047 908.3406,-354.1237"/>
</g>
<!-- Node371&#45;&gt;Node368 -->
<g id="edge14" class="edge">
<title>Node371&#45;&gt;Node368</title>
<path fill="none" stroke="#191970" d="M1020.9362,-332.4693C1045.7313,-322.085 1079.8168,-307.8099 1101.7644,-298.6181"/>
<polygon fill="#191970" stroke="#191970" points="1019.475,-329.2867 1011.6033,-336.378 1022.1791,-335.7433 1019.475,-329.2867"/>
</g>
<!-- Node372&#45;&gt;Node360 -->
<g id="edge16" class="edge">
<title>Node372&#45;&gt;Node360</title>
<path fill="none" stroke="#191970" d="M767.0491,-340.7433C770.4566,-342.4914 773.771,-344.4107 776.8203,-346.5 796.012,-359.6497 793.6769,-371.2801 812.8203,-384.5 817.7497,-387.9041 823.4234,-390.8442 828.9994,-393.3042"/>
<polygon fill="#191970" stroke="#191970" points="768.4749,-337.5465 757.9302,-336.5166 765.5311,-343.8975 768.4749,-337.5465"/>
</g>
<!-- Node373&#45;&gt;Node360 -->
<g id="edge18" class="edge">
<title>Node373&#45;&gt;Node360</title>
<path fill="none" stroke="#191970" d="M769.881,-376.4469C787.9926,-381.9366 809.1245,-388.3418 825.903,-393.4275"/>
<polygon fill="#191970" stroke="#191970" points="770.7619,-373.0567 760.1766,-373.5055 768.7313,-379.7558 770.7619,-373.0567"/>
</g>
<!-- Node374&#45;&gt;Node360 -->
<g id="edge20" class="edge">
<title>Node374&#45;&gt;Node360</title>
<path fill="none" stroke="#191970" d="M745.7813,-268.5282C755.3852,-279.6963 767.6407,-294.8872 776.8203,-309.5 796.4885,-340.8093 786.0147,-359.0329 812.8203,-384.5 816.5764,-388.0685 821.1429,-390.9778 825.8798,-393.3344"/>
<polygon fill="#191970" stroke="#191970" points="748.2727,-266.0608 739.0488,-260.8482 743.0089,-270.6752 748.2727,-266.0608"/>
</g>
<!-- Node375 -->
<g id="node17" class="node">
<title>Node375</title>
<g id="a_node17"><a xlink:href="lifter_8c.html#a7452163ed7946b6262f41de51c62dfd4" target="_top" xlink:title="raise_lifter">
<polygon fill="none" stroke="#000000" points="824.771,-280.5 824.771,-298.5 886.8989,-298.5 886.8989,-280.5 824.771,-280.5"/>
<text text-anchor="middle" x="855.835" y="-286.5" font-family="Helvetica,sans-Serif" font-size="10.00" fill="#000000">raise_lifter</text>
</a>
</g>
</g>
<!-- Node374&#45;&gt;Node375 -->
<g id="edge21" class="edge">
<title>Node374&#45;&gt;Node375</title>
<path fill="none" stroke="#191970" d="M769.881,-263.4469C787.9926,-268.9366 809.1245,-275.3418 825.903,-280.4275"/>
<polygon fill="#191970" stroke="#191970" points="770.7619,-260.0567 760.1766,-260.5055 768.7313,-266.7558 770.7619,-260.0567"/>
</g>
<!-- Node376 -->
<g id="node18" class="node">
<title>Node376</title>
<g id="a_node18"><a xlink:href="lifter_8c.html#a59bb7413777ca16aba124aaedf95c79b" target="_top" xlink:title="Updates the lifter in teleop. ">
<polygon fill="none" stroke="#000000" points="954.3027,-280.5 954.3027,-298.5 1025.3418,-298.5 1025.3418,-280.5 954.3027,-280.5"/>
<text text-anchor="middle" x="989.8223" y="-286.5" font-family="Helvetica,sans-Serif" font-size="10.00" fill="#000000">update_lifter</text>
</a>
</g>
</g>
<!-- Node374&#45;&gt;Node376 -->
<g id="edge26" class="edge">
<title>Node374&#45;&gt;Node376</title>
<path fill="none" stroke="#191970" d="M760.2819,-265.4516C765.9331,-268.5059 771.6806,-271.9089 776.8203,-275.5 794.6128,-287.9314 792.5917,-300.6314 812.8203,-308.5 865.0989,-328.8355 932.2197,-310.7854 966.8586,-298.5574"/>
<polygon fill="#191970" stroke="#191970" points="761.4798,-262.1318 750.9865,-260.669 758.2773,-268.3563 761.4798,-262.1318"/>
</g>
<!-- Node377 -->
<g id="node19" class="node">
<title>Node377</title>
<g id="a_node19"><a xlink:href="lifter_8c.html#aa7d2d04059f57cc5b8582f6fd0726dc1" target="_top" xlink:title="lower_lifter">
<polygon fill="none" stroke="#000000" points="823.6602,-243.5 823.6602,-261.5 888.0098,-261.5 888.0098,-243.5 823.6602,-243.5"/>
<text text-anchor="middle" x="855.835" y="-249.5" font-family="Helvetica,sans-Serif" font-size="10.00" fill="#000000">lower_lifter</text>
</a>
</g>
</g>
<!-- Node374&#45;&gt;Node377 -->
<g id="edge24" class="edge">
<title>Node374&#45;&gt;Node377</title>
<path fill="none" stroke="#191970" d="M785.9309,-251.9424C798.8174,-252.0452 812.1165,-252.1513 823.6104,-252.243"/>
<polygon fill="#191970" stroke="#191970" points="785.7546,-248.441 775.727,-251.861 785.6987,-255.4408 785.7546,-248.441"/>
</g>
<!-- Node375&#45;&gt;Node376 -->
<g id="edge22" class="edge">
<title>Node375&#45;&gt;Node376</title>
<path fill="none" stroke="#191970" d="M896.9929,-289.5C915.2754,-289.5 936.5894,-289.5 954.18,-289.5"/>
<polygon fill="#191970" stroke="#191970" points="896.9112,-286.0001 886.9111,-289.5 896.9111,-293.0001 896.9112,-286.0001"/>
</g>
<!-- Node376&#45;&gt;Node368 -->
<g id="edge23" class="edge">
<title>Node376&#45;&gt;Node368</title>
<path fill="none" stroke="#191970" d="M1035.8795,-289.5C1050.3313,-289.5 1066.2231,-289.5 1080.4605,-289.5"/>
<polygon fill="#191970" stroke="#191970" points="1035.6552,-286.0001 1025.6551,-289.5 1035.6551,-293.0001 1035.6552,-286.0001"/>
</g>
<!-- Node377&#45;&gt;Node376 -->
<g id="edge25" class="edge">
<title>Node377&#45;&gt;Node376</title>
<path fill="none" stroke="#191970" d="M897.9501,-264.1299C917.0897,-269.4152 939.387,-275.5725 957.222,-280.4976"/>
<polygon fill="#191970" stroke="#191970" points="898.8404,-260.7448 888.2695,-261.4567 896.9771,-267.4923 898.8404,-260.7448"/>
</g>
<!-- Node379 -->
<g id="node21" class="node">
<title>Node379</title>
<g id="a_node21"><a xlink:href="mobile__goal__intake_8c.html#afa91470a9891e48827fd62d18553c6ce" target="_top" xlink:title="lower_intake">
<polygon fill="none" stroke="#000000" points="819.7637,-167.5 819.7637,-185.5 891.9063,-185.5 891.9063,-167.5 819.7637,-167.5"/>
<text text-anchor="middle" x="855.835" y="-173.5" font-family="Helvetica,sans-Serif" font-size="10.00" fill="#000000">lower_intake</text>
</a>
</g>
</g>
<!-- Node378&#45;&gt;Node379 -->
<g id="edge28" class="edge">
<title>Node378&#45;&gt;Node379</title>
<path fill="none" stroke="#191970" d="M787.1864,-186.9039C798.2362,-185.2292 809.5354,-183.5168 819.6939,-181.9773"/>
<polygon fill="#191970" stroke="#191970" points="786.5113,-183.4661 777.1487,-188.4251 787.5602,-190.3871 786.5113,-183.4661"/>
</g>
<!-- Node380 -->
<g id="node22" class="node">
<title>Node380</title>
<g id="a_node22"><a xlink:href="mobile__goal__intake_8c.html#ad0232c21c5c1ffda603d2b7d61034118" target="_top" xlink:title="updates the mobile goal intake in teleop. ">
<polygon fill="none" stroke="#000000" points="952.9087,-186.5 952.9087,-204.5 1026.7358,-204.5 1026.7358,-186.5 952.9087,-186.5"/>
<text text-anchor="middle" x="989.8223" y="-192.5" font-family="Helvetica,sans-Serif" font-size="10.00" fill="#000000">updateIntake</text>
</a>
</g>
</g>
<!-- Node378&#45;&gt;Node380 -->
<g id="edge33" class="edge">
<title>Node378&#45;&gt;Node380</title>
<path fill="none" stroke="#191970" d="M786.8977,-195.5C837.1779,-195.5 909.3183,-195.5 952.6693,-195.5"/>
<polygon fill="#191970" stroke="#191970" points="786.8336,-192.0001 776.8336,-195.5 786.8335,-199.0001 786.8336,-192.0001"/>
</g>
<!-- Node381 -->
<g id="node23" class="node">
<title>Node381</title>
<g id="a_node23"><a xlink:href="mobile__goal__intake_8c.html#a4899f9a8621015313e6312ce085da979" target="_top" xlink:title="raise_intake">
<polygon fill="none" stroke="#000000" points="820.8745,-130.5 820.8745,-148.5 890.7954,-148.5 890.7954,-130.5 820.8745,-130.5"/>
<text text-anchor="middle" x="855.835" y="-136.5" font-family="Helvetica,sans-Serif" font-size="10.00" fill="#000000">raise_intake</text>
</a>
</g>
</g>
<!-- Node378&#45;&gt;Node381 -->
<g id="edge31" class="edge">
<title>Node378&#45;&gt;Node381</title>
<path fill="none" stroke="#191970" d="M759.6447,-182.3367C775.3847,-175.2496 795.1534,-166.3704 812.8203,-158.5 820.1285,-155.2443 828.145,-151.6968 835.2565,-148.5582"/>
<polygon fill="#191970" stroke="#191970" points="758.0994,-179.194 750.4197,-186.4928 760.9748,-185.5762 758.0994,-179.194"/>
</g>
<!-- Node379&#45;&gt;Node380 -->
<g id="edge29" class="edge">
<title>Node379&#45;&gt;Node380</title>
<path fill="none" stroke="#191970" d="M902.0873,-183.0588C918.5898,-185.3989 936.9551,-188.0032 952.6008,-190.2218"/>
<polygon fill="#191970" stroke="#191970" points="902.4862,-179.5804 892.0939,-181.6417 901.5034,-186.5111 902.4862,-179.5804"/>
</g>
<!-- Node380&#45;&gt;Node368 -->
<g id="edge30" class="edge">
<title>Node380&#45;&gt;Node368</title>
<path fill="none" stroke="#191970" d="M1010.9494,-210.3523C1038.9325,-230.0242 1087.4382,-264.1234 1110.5574,-280.3761"/>
<polygon fill="#191970" stroke="#191970" points="1012.837,-207.4009 1002.6433,-204.5131 1008.8112,-213.1275 1012.837,-207.4009"/>
</g>
<!-- Node381&#45;&gt;Node380 -->
<g id="edge32" class="edge">
<title>Node381&#45;&gt;Node380</title>
<path fill="none" stroke="#191970" d="M887.0126,-152.5307C911.8584,-162.915 946.0135,-177.1901 968.006,-186.3819"/>
<polygon fill="#191970" stroke="#191970" points="888.2368,-149.249 877.6605,-148.622 885.5374,-155.7076 888.2368,-149.249"/>
</g>
<!-- Node383 -->
<g id="node25" class="node">
<title>Node383</title>
<g id="a_node25"><a xlink:href="slew_8c.html#a321758941d88b75783955c819bb75005" target="_top" xlink:title="Initializes the slew rate controller. ">
<polygon fill="none" stroke="#000000" points="421.9888,-327.5 421.9888,-345.5 476.3384,-345.5 476.3384,-327.5 421.9888,-327.5"/>
<text text-anchor="middle" x="449.1636" y="-333.5" font-family="Helvetica,sans-Serif" font-size="10.00" fill="#000000">init_slew</text>
</a>
</g>
</g>
<!-- Node382&#45;&gt;Node383 -->
<g id="edge35" class="edge">
<title>Node382&#45;&gt;Node383</title>
<path fill="none" stroke="#191970" d="M163.1269,-330.0976C222.027,-331.416 362.5689,-334.5618 421.9445,-335.8908"/>
<polygon fill="#191970" stroke="#191970" points="162.8754,-326.5912 152.7996,-329.8665 162.7187,-333.5895 162.8754,-326.5912"/>
</g>
<!-- Node383&#45;&gt;Node360 -->
<g id="edge36" class="edge">
<title>Node383&#45;&gt;Node360</title>
<path fill="none" stroke="#191970" d="M486.3698,-344.988C532.544,-355.2797 613.7934,-372.5978 684.1113,-383.5 730.944,-390.761 785.3806,-396.2967 820.1956,-399.4709"/>
<polygon fill="#191970" stroke="#191970" points="487.0385,-341.5511 476.5151,-342.7793 485.5075,-348.3816 487.0385,-341.5511"/>
</g>
<!-- Node383&#45;&gt;Node365 -->
<g id="edge38" class="edge">
<title>Node383&#45;&gt;Node365</title>
<path fill="none" stroke="#191970" d="M476.6683,-350.2118C493.6608,-358.5825 515.9664,-369.3904 535.959,-378.5 547.1372,-383.5934 559.6989,-388.9986 570.0951,-393.3873"/>
<polygon fill="#191970" stroke="#191970" points="477.8504,-346.8918 467.335,-345.5962 474.7473,-353.1665 477.8504,-346.8918"/>
</g>
<!-- Node383&#45;&gt;Node368 -->
<g id="edge37" class="edge">
<title>Node383&#45;&gt;Node368</title>
<path fill="none" stroke="#191970" d="M467.2409,-320.2954C526.6969,-267.1459 713.3691,-101.5 730.4658,-101.5 730.4658,-101.5 730.4658,-101.5 855.835,-101.5 946.3554,-101.5 973.8552,-121.2728 1044.7949,-177.5 1082.2361,-207.1761 1109.4246,-259.2961 1119.3789,-280.3217"/>
<polygon fill="#191970" stroke="#191970" points="464.5451,-318.011 459.4271,-327.2877 469.213,-323.2274 464.5451,-318.011"/>
</g>
<!-- Node383&#45;&gt;Node369 -->
<g id="edge39" class="edge">
<title>Node383&#45;&gt;Node369</title>
<path fill="none" stroke="#191970" d="M486.3684,-333.8959C501.4935,-332.8373 519.2996,-331.591 535.9402,-330.4263"/>
<polygon fill="#191970" stroke="#191970" points="486.1041,-330.4058 476.3729,-334.5955 486.5929,-337.3887 486.1041,-330.4058"/>
</g>
<!-- Node386 -->
<g id="node28" class="node">
<title>Node386</title>
<g id="a_node28"><a xlink:href="lcd_8c.html#ac7b3225ccc82fcbe067ba9da934f010d" target="_top" xlink:title="Returns the pressed buttons. ">
<polygon fill="none" stroke="#000000" points="234.6201,-111.5 234.6201,-129.5 362.3682,-129.5 362.3682,-111.5 234.6201,-111.5"/>
<text text-anchor="middle" x="298.4941" y="-117.5" font-family="Helvetica,sans-Serif" font-size="10.00" fill="#000000">lcd_get_pressed_buttons</text>
</a>
</g>
</g>
<!-- Node385&#45;&gt;Node386 -->
<g id="edge42" class="edge">
<title>Node385&#45;&gt;Node386</title>
<path fill="none" stroke="#191970" d="M177.3694,-139.1842C196.3019,-136.2638 219.1375,-132.7412 239.854,-129.5456"/>
<polygon fill="#191970" stroke="#191970" points="176.6406,-135.7551 167.2911,-140.7388 177.7078,-142.6733 176.6406,-135.7551"/>
</g>
<!-- Node387 -->
<g id="node29" class="node">
<title>Node387</title>
<g id="a_node29"><a xlink:href="lcd_8c.html#a99f4683e1990edf624ab216bf327cba4" target="_top" xlink:title="Prompts the user to confirm a string. User must press middle button to confirm. Function is not threa...">
<polygon fill="none" stroke="#000000" points="398.3682,-148.5 398.3682,-166.5 499.959,-166.5 499.959,-148.5 398.3682,-148.5"/>
<text text-anchor="middle" x="449.1636" y="-154.5" font-family="Helvetica,sans-Serif" font-size="10.00" fill="#000000">promt_confirmation</text>
</a>
</g>
</g>
<!-- Node385&#45;&gt;Node387 -->
<g id="edge51" class="edge">
<title>Node385&#45;&gt;Node387</title>
<path fill="none" stroke="#191970" d="M168.1883,-158.2503C187.1322,-165.1625 211.8554,-172.9919 234.6201,-176.5 290.7347,-185.1473 305.9205,-182.6061 362.3682,-176.5 380.3113,-174.5591 399.9829,-170.4236 416.0551,-166.5049"/>
<polygon fill="#191970" stroke="#191970" points="169.1715,-154.8809 158.5793,-154.6426 166.711,-161.4342 169.1715,-154.8809"/>
</g>
<!-- Node389 -->
<g id="node31" class="node">
<title>Node389</title>
<g id="a_node31"><a xlink:href="lcd_8c.html#a35c08b1fa742e650f4873939707b893b" target="_top" xlink:title="Clears the lcd. ">
<polygon fill="none" stroke="#000000" points="270.4844,-74.5 270.4844,-92.5 326.5039,-92.5 326.5039,-74.5 270.4844,-74.5"/>
<text text-anchor="middle" x="298.4941" y="-80.5" font-family="Helvetica,sans-Serif" font-size="10.00" fill="#000000">lcd_clear</text>
</a>
</g>
</g>
<!-- Node385&#45;&gt;Node389 -->
<g id="edge45" class="edge">
<title>Node385&#45;&gt;Node389</title>
<path fill="none" stroke="#191970" d="M177.2713,-135.0129C184.5348,-132.5913 191.916,-129.7528 198.6201,-126.5 216.1458,-117.9965 217.0028,-109.8119 234.6201,-101.5 245.8734,-96.1907 258.9999,-92.1575 270.4163,-89.2687"/>
<polygon fill="#191970" stroke="#191970" points="176.0182,-131.7373 167.514,-138.0563 178.1026,-138.4198 176.0182,-131.7373"/>
</g>
<!-- Node390 -->
<g id="node32" class="node">
<title>Node390</title>
<g id="a_node32"><a xlink:href="lcd_8c.html#adabd3f7cdda45119604b488caf22bba8" target="_top" xlink:title="prints a string to a line on the lcd ">
<polygon fill="none" stroke="#000000" points="271.5952,-148.5 271.5952,-166.5 325.3931,-166.5 325.3931,-148.5 271.5952,-148.5"/>
<text text-anchor="middle" x="298.4941" y="-154.5" font-family="Helvetica,sans-Serif" font-size="10.00" fill="#000000">lcd_print</text>
</a>
</g>
</g>
<!-- Node385&#45;&gt;Node390 -->
<g id="edge46" class="edge">
<title>Node385&#45;&gt;Node390</title>
<path fill="none" stroke="#191970" d="M177.2939,-148.526C206.8007,-150.7108 245.8176,-153.5997 271.5101,-155.502"/>
<polygon fill="#191970" stroke="#191970" points="177.5223,-145.0334 167.2911,-147.7854 177.0053,-152.0143 177.5223,-145.0334"/>
</g>
<!-- Node391 -->
<g id="node33" class="node">
<title>Node391</title>
<g id="a_node33"><a xlink:href="lcd_8c.html#aa0d4ca88701dfecf98796e2028482b69" target="_top" xlink:title="prints a formated string to a line on the lcd. Smilar to printf ">
<polygon fill="none" stroke="#000000" points="270.2061,-37.5 270.2061,-55.5 326.7822,-55.5 326.7822,-37.5 270.2061,-37.5"/>
<text text-anchor="middle" x="298.4941" y="-43.5" font-family="Helvetica,sans-Serif" font-size="10.00" fill="#000000">lcd_printf</text>
</a>
</g>
</g>
<!-- Node385&#45;&gt;Node391 -->
<g id="edge49" class="edge">
<title>Node385&#45;&gt;Node391</title>
<path fill="none" stroke="#191970" d="M177.0777,-137.8804C184.7561,-135.1632 192.3386,-131.4828 198.6201,-126.5 223.5837,-106.6977 209.4421,-84.0289 234.6201,-64.5 244.7252,-56.6621 258.0758,-52.2371 269.9577,-49.7389"/>
<polygon fill="#191970" stroke="#191970" points="175.9365,-134.5691 167.3913,-140.8325 177.9773,-141.2651 175.9365,-134.5691"/>
</g>
<!-- Node392 -->
<g id="node34" class="node">
<title>Node392</title>
<g id="a_node34"><a xlink:href="lcd_8c.html#a245902a4d48a6d9bd1ab308bf9b7e6b5" target="_top" xlink:title="sets the backlight of the lcd ">
<polygon fill="none" stroke="#000000" points="252.1372,-.5 252.1372,-18.5 344.8511,-18.5 344.8511,-.5 252.1372,-.5"/>
<text text-anchor="middle" x="298.4941" y="-6.5" font-family="Helvetica,sans-Serif" font-size="10.00" fill="#000000">lcd_set_backlight</text>
</a>
</g>
</g>
<!-- Node385&#45;&gt;Node392 -->
<g id="edge50" class="edge">
<title>Node385&#45;&gt;Node392</title>
<path fill="none" stroke="#191970" d="M177.0948,-138.9774C184.9685,-136.1811 192.6233,-132.1912 198.6201,-126.5 232.58,-94.2707 200.3108,-59.3571 234.6201,-27.5 239.6014,-22.8748 245.6793,-19.4254 252.0838,-16.8556"/>
<polygon fill="#191970" stroke="#191970" points="176.0702,-135.6305 167.4788,-141.8304 178.0613,-142.3414 176.0702,-135.6305"/>
</g>
<!-- Node386&#45;&gt;Node387 -->
<g id="edge43" class="edge">
<title>Node386&#45;&gt;Node387</title>
<path fill="none" stroke="#191970" d="M345.3102,-131.9967C366.9249,-137.3046 392.2141,-143.5149 412.4254,-148.4782"/>
<polygon fill="#191970" stroke="#191970" points="345.8982,-128.5371 335.352,-129.5512 344.2288,-135.3352 345.8982,-128.5371"/>
</g>
<!-- Node388 -->
<g id="node30" class="node">
<title>Node388</title>
<g id="a_node30"><a xlink:href="menu_8c.html#abfadedb104f89f672dd3045499975a71" target="_top" xlink:title="Displays a menu context, but does not display. &#160;Menu must be freed or will cause memory leak! &#160;Will e...">
<polygon fill="none" stroke="#000000" points="410.3115,-111.5 410.3115,-129.5 488.0156,-129.5 488.0156,-111.5 410.3115,-111.5"/>
<text text-anchor="middle" x="449.1636" y="-117.5" font-family="Helvetica,sans-Serif" font-size="10.00" fill="#000000">display_menu</text>
</a>
</g>
</g>
<!-- Node386&#45;&gt;Node388 -->
<g id="edge44" class="edge">
<title>Node386&#45;&gt;Node388</title>
<path fill="none" stroke="#191970" d="M372.7114,-120.5C385.6273,-120.5 398.587,-120.5 410.0715,-120.5"/>
<polygon fill="#191970" stroke="#191970" points="372.3916,-117.0001 362.3915,-120.5 372.3915,-124.0001 372.3916,-117.0001"/>
</g>
<!-- Node390&#45;&gt;Node387 -->
<g id="edge47" class="edge">
<title>Node390&#45;&gt;Node387</title>
<path fill="none" stroke="#191970" d="M335.6777,-157.5C354.4966,-157.5 377.6306,-157.5 398.0914,-157.5"/>
<polygon fill="#191970" stroke="#191970" points="335.4309,-154.0001 325.4308,-157.5 335.4308,-161.0001 335.4309,-154.0001"/>
</g>
<!-- Node390&#45;&gt;Node388 -->
<g id="edge48" class="edge">
<title>Node390&#45;&gt;Node388</title>
<path fill="none" stroke="#191970" d="M335.3252,-148.4554C358.7133,-142.7119 388.8729,-135.3056 412.2725,-129.5594"/>
<polygon fill="#191970" stroke="#191970" points="334.3076,-145.1012 325.4308,-150.8851 335.977,-151.8992 334.3076,-145.1012"/>
</g>
<!-- Node394 -->
<g id="node36" class="node">
<title>Node394</title>
<g id="a_node36"><a xlink:href="log_8c.html#a8e5bb8a2a372f5b066ff7af7044584c1" target="_top" xlink:title="prints a error message and displays on lcd. Only will print and display if log_level is greater than ...">
<polygon fill="none" stroke="#000000" points="279.9375,-261.5 279.9375,-279.5 317.0508,-279.5 317.0508,-261.5 279.9375,-261.5"/>
<text text-anchor="middle" x="298.4941" y="-267.5" font-family="Helvetica,sans-Serif" font-size="10.00" fill="#000000">error</text>
</a>
</g>
</g>
<!-- Node393&#45;&gt;Node394 -->
<g id="edge53" class="edge">
<title>Node393&#45;&gt;Node394</title>
<path fill="none" stroke="#191970" d="M172.2882,-280.6234C205.3908,-277.9681 253.2717,-274.1274 279.5172,-272.0222"/>
<polygon fill="#191970" stroke="#191970" points="171.7941,-277.1517 162.106,-281.4401 172.3539,-284.1293 171.7941,-277.1517"/>
</g>
<!-- Node399 -->
<g id="node39" class="node">
<title>Node399</title>
<g id="a_node39"><a xlink:href="log_8c.html#a0bec2cf5fff7f607bc510b74aba9887c" target="_top" xlink:title="prints a warning message and displays on lcd. Only will print and display if log_level is greater tha...">
<polygon fill="none" stroke="#000000" points="272.9844,-298.5 272.9844,-316.5 324.0039,-316.5 324.0039,-298.5 272.9844,-298.5"/>
<text text-anchor="middle" x="298.4941" y="-304.5" font-family="Helvetica,sans-Serif" font-size="10.00" fill="#000000">warning</text>
</a>
</g>
</g>
<!-- Node393&#45;&gt;Node399 -->
<g id="edge56" class="edge">
<title>Node393&#45;&gt;Node399</title>
<path fill="none" stroke="#191970" d="M172.3234,-288.8159C202.8179,-293.3317 245.8348,-299.7019 272.9341,-303.7149"/>
<polygon fill="#191970" stroke="#191970" points="172.5109,-285.3056 162.106,-287.3029 171.4854,-292.2301 172.5109,-285.3056"/>
</g>
<!-- Node395 -->
<g id="node37" class="node">
<title>Node395</title>
<g id="a_node37"><a xlink:href="menu_8c.html#aff4fd27ff7707295d91c67fa52a6b021" target="_top" xlink:title="create_menu">
<polygon fill="none" stroke="#ff0000" points="411.979,-261.5 411.979,-279.5 486.3481,-279.5 486.3481,-261.5 411.979,-261.5"/>
<text text-anchor="middle" x="449.1636" y="-267.5" font-family="Helvetica,sans-Serif" font-size="10.00" fill="#000000">create_menu</text>
</a>
</g>
</g>
<!-- Node394&#45;&gt;Node395 -->
<g id="edge54" class="edge">
<title>Node394&#45;&gt;Node395</title>
<path fill="none" stroke="#191970" d="M327.5257,-270.5C351.5607,-270.5 385.8675,-270.5 411.9232,-270.5"/>
<polygon fill="#191970" stroke="#191970" points="327.2719,-267.0001 317.2719,-270.5 327.2719,-274.0001 327.2719,-267.0001"/>
</g>
<!-- Node396 -->
<g id="node38" class="node">
<title>Node396</title>
<g id="a_node38"><a xlink:href="menu_8c.html#a3529988b0a7c12cb3f2ebb3cf5595594" target="_top" xlink:title="Creates a menu context, but does not display. &#160;Menu must be freed or will cause memory leak &#160;...">
<polygon fill="none" stroke="#000000" points="552.6289,-54.5 552.6289,-72.5 631.4414,-72.5 631.4414,-54.5 552.6289,-54.5"/>
<text text-anchor="middle" x="592.0352" y="-60.5" font-family="Helvetica,sans-Serif" font-size="10.00" fill="#000000">init_menu_var</text>
</a>
</g>
</g>
<!-- Node395&#45;&gt;Node396 -->
<g id="edge55" class="edge">
<title>Node395&#45;&gt;Node396</title>
<path fill="none" stroke="#191970" d="M494.9615,-257.1598C496.7695,-255.7588 498.4509,-254.2107 499.959,-252.5 549.5939,-196.1959 488.1464,-145.3596 535.959,-87.5 541.4229,-80.8879 549.0432,-76.0573 556.9082,-72.5428"/>
<polygon fill="#191970" stroke="#191970" points="493.0782,-254.2088 486.3681,-262.408 496.7266,-260.1829 493.0782,-254.2088"/>
</g>
<!-- Node399&#45;&gt;Node383 -->
<g id="edge57" class="edge">
<title>Node399&#45;&gt;Node383</title>
<path fill="none" stroke="#191970" d="M334.2128,-314.3749C361.0977,-319.5496 397.3907,-326.535 421.9494,-331.262"/>
<polygon fill="#191970" stroke="#191970" points="334.5345,-310.8727 324.0532,-312.4195 333.2114,-317.7465 334.5345,-310.8727"/>
</g>
</g>
</svg>
        <g id="navigator" transform="translate(0 0)" fill="#404254">
                <rect fill="#f2f5e9" fill-opacity="0.5" stroke="#606060" stroke-width=".5" x="0" y="0" width="60" height="60"/>
                <use id="zoomplus" xlink:href="#zoomPlus" x="17" y="9" onmousedown="handleZoom(evt,'in')"/>
                <use id="zoomminus" xlink:href="#zoomMin" x="42" y="9" onmousedown="handleZoom(evt,'out')"/>
                <use id="reset" xlink:href="#resetDef" x="30" y="36" onmousedown="handleReset()"/>
                <g id="arrowUp" xlink:href="#dirArrow" transform="translate(30 24)" onmousedown="handlePan(0,-1)">
                  <use xlink:href="#rim" fill="#404040">
                        <set attributeName="fill" to="#808080" begin="arrowUp.mouseover" end="arrowUp.mouseout"/>
                  </use>
                  <path fill="none" stroke="white" stroke-width="1.5" d="M0,-3.0v7 M-2.5,-0.5L0,-3.0L2.5,-0.5"/>
                </g>
                <g id="arrowRight" xlink:href="#dirArrow" transform="rotate(90) translate(36 -43)" onmousedown="handlePan(1,0)">
                  <use xlink:href="#rim" fill="#404040">
                        <set attributeName="fill" to="#808080" begin="arrowRight.mouseover" end="arrowRight.mouseout"/>
                  </use>
                  <path fill="none" stroke="white" stroke-width="1.5" d="M0,-3.0v7 M-2.5,-0.5L0,-3.0L2.5,-0.5"/>
                </g>
                <g id="arrowDown" xlink:href="#dirArrow" transform="rotate(180) translate(-30 -48)" onmousedown="handlePan(0,1)">
                  <use xlink:href="#rim" fill="#404040">
                        <set attributeName="fill" to="#808080" begin="arrowDown.mouseover" end="arrowDown.mouseout"/>
                  </use>
                  <path fill="none" stroke="white" stroke-width="1.5" d="M0,-3.0v7 M-2.5,-0.5L0,-3.0L2.5,-0.5"/>
                </g>
                <g id="arrowLeft" xlink:href="#dirArrow" transform="rotate(270) translate(-36 17)" onmousedown="handlePan(-1,0)">
                  <use xlink:href="#rim" fill="#404040">
                        <set attributeName="fill" to="#808080" begin="arrowLeft.mouseover" end="arrowLeft.mouseout"/>
                  </use>
                  <path fill="none" stroke="white" stroke-width="1.5" d="M0,-3.0v7 M-2.5,-0.5L0,-3.0L2.5,-0.5"/>
                </g>
        </g>
        <svg viewBox="0 0 15 15" width="100%" height="30px" preserveAspectRatio="xMaxYMin meet">
         <g id="arrow_out" transform="scale(0.3 0.3)">
          <a xlink:href="_a_p_i_8h_a403c82418e475fa4a8273719e6a7f3e6_icgraph_org.svg" target="_base">
           <rect id="button" ry="5" rx="5" y="6" x="6" height="38" width="38"
                fill="#f2f5e9" fill-opacity="0.5" stroke="#606060" stroke-width="1.0"/>
           <path id="arrow"
             d="M 11.500037,31.436501 C 11.940474,20.09759 22.043105,11.32322 32.158766,21.979434 L 37.068811,17.246167 C 37.068811,17.246167 37.088388,32 37.088388,32 L 22.160133,31.978069 C 22.160133,31.978069 26.997745,27.140456 26.997745,27.140456 C 18.528582,18.264221 13.291696,25.230495 11.500037,31.436501 z"
             style="fill:#404040;"/>
          </a>
         </g>
        </svg>
</svg>
