<?xml version="1.0" encoding="UTF-8" standalone="no"?>
<!DOCTYPE svg PUBLIC "-//W3C//DTD SVG 1.1//EN"
 "http://www.w3.org/Graphics/SVG/1.1/DTD/svg11.dtd">
<!-- Generated by graphviz version 2.40.1 (20161225.0304)
 -->
<!-- Title: lcdReadButtons Pages: 1 -->
<svg width="396pt" height="27pt"
 viewBox="0.00 0.00 395.94 27.00" xmlns="http://www.w3.org/2000/svg" xmlns:xlink="http://www.w3.org/1999/xlink">
<g id="graph0" class="graph" transform="scale(1 1) rotate(0) translate(4 23)">
<title>lcdReadButtons</title>
<polygon fill="#ffffff" stroke="transparent" points="-4,4 -4,-23 391.9395,-23 391.9395,4 -4,4"/>
<!-- Node116 -->
<g id="node1" class="node">
<title>Node116</title>
<polygon fill="#bfbfbf" stroke="#000000" points="0,-.5 0,-18.5 86.6006,-18.5 86.6006,-.5 0,-.5"/>
<text text-anchor="middle" x="43.3003" y="-6.5" font-family="Helvetica,sans-Serif" font-size="10.00" fill="#000000">lcdReadButtons</text>
</g>
<!-- Node117 -->
<g id="node2" class="node">
<title>Node117</title>
<g id="a_node2"><a xlink:href="lcd_8h.html#ac7b3225ccc82fcbe067ba9da934f010d" target="_top" xlink:title="Returns the pressed buttons. ">
<polygon fill="#ffffff" stroke="#000000" points="122.6006,-.5 122.6006,-18.5 250.3486,-18.5 250.3486,-.5 122.6006,-.5"/>
<text text-anchor="middle" x="186.4746" y="-6.5" font-family="Helvetica,sans-Serif" font-size="10.00" fill="#000000">lcd_get_pressed_buttons</text>
</a>
</g>
</g>
<!-- Node116&#45;&gt;Node117 -->
<g id="edge1" class="edge">
<title>Node116&#45;&gt;Node117</title>
<path fill="none" stroke="#191970" d="M96.6692,-9.5C105.0597,-9.5 113.808,-9.5 122.4097,-9.5"/>
<polygon fill="#191970" stroke="#191970" points="96.6459,-6.0001 86.6458,-9.5 96.6458,-13.0001 96.6459,-6.0001"/>
</g>
<!-- Node118 -->
<g id="node3" class="node">
<title>Node118</title>
<g id="a_node3"><a xlink:href="lcd_8h.html#a99f4683e1990edf624ab216bf327cba4" target="_top" xlink:title="Prompts the user to confirm a string. User must press middle button to confirm. Function is not threa...">
<polygon fill="#ffffff" stroke="#000000" points="286.3486,-.5 286.3486,-18.5 387.9395,-18.5 387.9395,-.5 286.3486,-.5"/>
<text text-anchor="middle" x="337.144" y="-6.5" font-family="Helvetica,sans-Serif" font-size="10.00" fill="#000000">promt_confirmation</text>
</a>
</g>
</g>
<!-- Node117&#45;&gt;Node118 -->
<g id="edge2" class="edge">
<title>Node117&#45;&gt;Node118</title>
<path fill="none" stroke="#191970" d="M260.4526,-9.5C269.0721,-9.5 277.7153,-9.5 285.9306,-9.5"/>
<polygon fill="#191970" stroke="#191970" points="260.372,-6.0001 250.372,-9.5 260.372,-13.0001 260.372,-6.0001"/>
</g>
</g>
</svg>
