<?xml version="1.0" encoding="UTF-8" standalone="no"?>
<!DOCTYPE svg PUBLIC "-//W3C//DTD SVG 1.1//EN"
 "http://www.w3.org/Graphics/SVG/1.1/DTD/svg11.dtd">
<!-- Generated by graphviz version 2.40.1 (20161225.0304)
 -->
<!-- Title: imeInitializeAll Pages: 1 -->
<svg width="199pt" height="64pt"
 viewBox="0.00 0.00 198.84 64.00" xmlns="http://www.w3.org/2000/svg" xmlns:xlink="http://www.w3.org/1999/xlink">
<g id="graph0" class="graph" transform="scale(1 1) rotate(0) translate(4 60)">
<title>imeInitializeAll</title>
<!-- Node114 -->
<g id="node1" class="node">
<title>Node114</title>
<polygon fill="#bfbfbf" stroke="#000000" points="0,-18.5 0,-36.5 79.3545,-36.5 79.3545,-18.5 0,-18.5"/>
<text text-anchor="middle" x="39.6772" y="-24.5" font-family="Helvetica,sans-Serif" font-size="10.00" fill="#000000">imeInitializeAll</text>
</g>
<!-- Node115 -->
<g id="node2" class="node">
<title>Node115</title>
<g id="a_node2"><a xlink:href="encoders_8c.html#aa6ec1ca17e907babd52803ecba451cd3" target="_top" xlink:title="Initializes all motor encoders. ">
<polygon fill="none" stroke="#000000" points="115.3545,-37.5 115.3545,-55.5 190.8369,-55.5 190.8369,-37.5 115.3545,-37.5"/>
<text text-anchor="middle" x="153.0957" y="-43.5" font-family="Helvetica,sans-Serif" font-size="10.00" fill="#000000">init_encoders</text>
</a>
</g>
</g>
<!-- Node114&#45;&gt;Node115 -->
<g id="edge1" class="edge">
<title>Node114&#45;&gt;Node115</title>
<path fill="none" stroke="#191970" d="M89.5415,-35.8533C98.0778,-37.2833 106.824,-38.7485 114.9913,-40.1167"/>
<polygon fill="#191970" stroke="#191970" points="90.1052,-32.3991 79.6644,-34.1987 88.9486,-39.3029 90.1052,-32.3991"/>
</g>
<!-- Node116 -->
<g id="node3" class="node">
<title>Node116</title>
<g id="a_node3"><a xlink:href="init_8c.html#a25a40b6614565f755233080a384c35f1" target="_top" xlink:title="initialize">
<polygon fill="none" stroke="#000000" points="127.3101,-.5 127.3101,-18.5 178.8813,-18.5 178.8813,-.5 127.3101,-.5"/>
<text text-anchor="middle" x="153.0957" y="-6.5" font-family="Helvetica,sans-Serif" font-size="10.00" fill="#000000">initialize</text>
</a>
</g>
</g>
<!-- Node114&#45;&gt;Node116 -->
<g id="edge2" class="edge">
<title>Node114&#45;&gt;Node116</title>
<path fill="none" stroke="#191970" d="M89.8756,-19.5333C102.7953,-17.4829 116.1719,-15.36 127.2751,-13.5978"/>
<polygon fill="#191970" stroke="#191970" points="88.9921,-16.1296 79.6644,-21.1539 90.0894,-23.0431 88.9921,-16.1296"/>
</g>
</g>
</svg>
