<?xml version="1.0" encoding="UTF-8" standalone="no"?>
<!DOCTYPE svg PUBLIC "-//W3C//DTD SVG 1.1//EN"
 "http://www.w3.org/Graphics/SVG/1.1/DTD/svg11.dtd">
<!-- Generated by graphviz version 2.40.1 (20161225.0304)
 -->
<!-- Title: taskRunLoop Pages: 1 -->
<svg width="261pt" height="27pt"
 viewBox="0.00 0.00 260.85 27.00" xmlns="http://www.w3.org/2000/svg" xmlns:xlink="http://www.w3.org/1999/xlink">
<g id="graph0" class="graph" transform="scale(1 1) rotate(0) translate(4 23)">
<title>taskRunLoop</title>
<!-- Node245 -->
<g id="node1" class="node">
<title>Node245</title>
<polygon fill="#bfbfbf" stroke="#000000" points="0,-.5 0,-18.5 74.9307,-18.5 74.9307,-.5 0,-.5"/>
<text text-anchor="middle" x="37.4653" y="-6.5" font-family="Helvetica,sans-Serif" font-size="10.00" fill="#000000">taskRunLoop</text>
</g>
<!-- Node246 -->
<g id="node2" class="node">
<title>Node246</title>
<g id="a_node2"><a xlink:href="slew_8c.html#a321758941d88b75783955c819bb75005" target="_top" xlink:title="Initializes the slew rate controller. ">
<polygon fill="none" stroke="#000000" points="110.9307,-.5 110.9307,-18.5 165.2803,-18.5 165.2803,-.5 110.9307,-.5"/>
<text text-anchor="middle" x="138.1055" y="-6.5" font-family="Helvetica,sans-Serif" font-size="10.00" fill="#000000">init_slew</text>
</a>
</g>
</g>
<!-- Node245&#45;&gt;Node246 -->
<g id="edge1" class="edge">
<title>Node245&#45;&gt;Node246</title>
<path fill="none" stroke="#191970" d="M85.1142,-9.5C93.878,-9.5 102.7501,-9.5 110.6633,-9.5"/>
<polygon fill="#191970" stroke="#191970" points="84.94,-6.0001 74.94,-9.5 84.94,-13.0001 84.94,-6.0001"/>
</g>
<!-- Node247 -->
<g id="node3" class="node">
<title>Node247</title>
<g id="a_node3"><a xlink:href="init_8c.html#a25a40b6614565f755233080a384c35f1" target="_top" xlink:title="initialize">
<polygon fill="none" stroke="#000000" points="201.2803,-.5 201.2803,-18.5 252.8516,-18.5 252.8516,-.5 201.2803,-.5"/>
<text text-anchor="middle" x="227.0659" y="-6.5" font-family="Helvetica,sans-Serif" font-size="10.00" fill="#000000">initialize</text>
</a>
</g>
</g>
<!-- Node246&#45;&gt;Node247 -->
<g id="edge2" class="edge">
<title>Node246&#45;&gt;Node247</title>
<path fill="none" stroke="#191970" d="M175.9251,-9.5C184.4618,-9.5 193.3333,-9.5 201.2434,-9.5"/>
<polygon fill="#191970" stroke="#191970" points="175.7655,-6.0001 165.7655,-9.5 175.7654,-13.0001 175.7655,-6.0001"/>
</g>
</g>
</svg>
