<?xml version="1.0" encoding="UTF-8" standalone="no"?>
<!DOCTYPE svg PUBLIC "-//W3C//DTD SVG 1.1//EN"
 "http://www.w3.org/Graphics/SVG/1.1/DTD/svg11.dtd">
<!-- Generated by graphviz version 2.40.1 (20161225.0304)
 -->
<!-- Title: taskRunLoop Pages: 1 -->
<!--zoomable 358 -->
<svg id="main" version="1.1" xmlns="http://www.w3.org/2000/svg" xmlns:xlink="http://www.w3.org/1999/xlink" xml:space="preserve" onload="init(evt)">
<style type="text/css"><![CDATA[
.edge:hover path { stroke: red; }
.edge:hover polygon { stroke: red; fill: red; }
]]></style>
<script type="text/javascript"><![CDATA[
var edges = document.getElementsByTagName('g');
if (edges && edges.length) {
  for (var i=0;i<edges.length;i++) {
    if (edges[i].id.substr(0,4)=='edge') {
      edges[i].setAttribute('class','edge');
    }
  }
}
]]></script>
        <defs>
                <circle id="rim" cx="0" cy="0" r="7"/>
                <circle id="rim2" cx="0" cy="0" r="3.5"/>
                <g id="zoomPlus">
                        <use xlink:href="#rim" fill="#404040">
                                <set attributeName="fill" to="#808080" begin="zoomplus.mouseover" end="zoomplus.mouseout"/>
                        </use>
                        <path d="M-4,0h8M0,-4v8" fill="none" stroke="white" stroke-width="1.5" pointer-events="none"/>
                </g>
                <g id="zoomMin">
                        <use xlink:href="#rim" fill="#404040">
                                <set attributeName="fill" to="#808080" begin="zoomminus.mouseover" end="zoomminus.mouseout"/>
                        </use>
                        <path d="M-4,0h8" fill="none" stroke="white" stroke-width="1.5" pointer-events="none"/>
                </g>
                <g id="dirArrow">
                        <path fill="none" stroke="white" stroke-width="1.5" d="M0,-3.0v7 M-2.5,-0.5L0,-3.0L2.5,-0.5"/>
                </g>
               <g id="resetDef">
                       <use xlink:href="#rim2" fill="#404040">
                               <set attributeName="fill" to="#808080" begin="reset.mouseover" end="reset.mouseout"/>
                       </use>
               </g>
        </defs>

<script type="text/javascript">
var viewWidth = 869;
var viewHeight = 358;
var sectionId = 'dynsection-32';
</script>
<script xlink:href="svgpan.js"/>
<svg id="graph" class="graph">
<g id="viewport">
<title>taskRunLoop</title>
<!-- Node453 -->
<g id="node1" class="node">
<title>Node453</title>
<polygon fill="#bfbfbf" stroke="#000000" points="0,-300.5 0,-318.5 74.9307,-318.5 74.9307,-300.5 0,-300.5"/>
<text text-anchor="middle" x="37.4653" y="-306.5" font-family="Helvetica,sans-Serif" font-size="10.00" fill="#000000">taskRunLoop</text>
</g>
<!-- Node454 -->
<g id="node2" class="node">
<title>Node454</title>
<g id="a_node2"><a xlink:href="localization_8c.html#afdd0147de6aa15957e9a125f9cd20578" target="_top" xlink:title="Starts the localization process. ">
<polygon fill="none" stroke="#000000" points="110.9307,-319.5 110.9307,-337.5 194.748,-337.5 194.748,-319.5 110.9307,-319.5"/>
<text text-anchor="middle" x="152.8394" y="-325.5" font-family="Helvetica,sans-Serif" font-size="10.00" fill="#000000">init_localization</text>
</a>
</g>
</g>
<!-- Node453&#45;&gt;Node454 -->
<g id="edge1" class="edge">
<title>Node453&#45;&gt;Node454</title>
<path fill="none" stroke="#191970" d="M85.2872,-317.3754C93.6789,-318.7574 102.3577,-320.1866 110.5846,-321.5414"/>
<polygon fill="#191970" stroke="#191970" points="85.679,-313.8928 75.2431,-315.7213 84.5414,-320.7998 85.679,-313.8928"/>
</g>
<!-- Node455 -->
<g id="node3" class="node">
<title>Node455</title>
<g id="a_node3"><a xlink:href="slew_8c.html#a321758941d88b75783955c819bb75005" target="_top" xlink:title="Initializes the slew rate controller. ">
<polygon fill="none" stroke="#000000" points="125.6646,-282.5 125.6646,-300.5 180.0142,-300.5 180.0142,-282.5 125.6646,-282.5"/>
<text text-anchor="middle" x="152.8394" y="-288.5" font-family="Helvetica,sans-Serif" font-size="10.00" fill="#000000">init_slew</text>
</a>
</g>
</g>
<!-- Node453&#45;&gt;Node455 -->
<g id="edge2" class="edge">
<title>Node453&#45;&gt;Node455</title>
<path fill="none" stroke="#191970" d="M85.506,-302.005C99.1857,-299.8707 113.6103,-297.6203 125.5841,-295.7522"/>
<polygon fill="#191970" stroke="#191970" points="84.584,-298.6064 75.2431,-303.6061 85.6631,-305.5227 84.584,-298.6064"/>
</g>
<!-- Node456 -->
<g id="node4" class="node">
<title>Node456</title>
<g id="a_node4"><a xlink:href="auto_8c.html#a3c7ca506bbc071fa740de13805b7f376" target="_top" xlink:title="autonomous">
<polygon fill="none" stroke="#000000" points="515.1045,-263.5 515.1045,-281.5 586.1436,-281.5 586.1436,-263.5 515.1045,-263.5"/>
<text text-anchor="middle" x="550.624" y="-269.5" font-family="Helvetica,sans-Serif" font-size="10.00" fill="#000000">autonomous</text>
</a>
</g>
</g>
<!-- Node455&#45;&gt;Node456 -->
<g id="edge3" class="edge">
<title>Node455&#45;&gt;Node456</title>
<path fill="none" stroke="#191970" d="M190.3136,-289.7101C266.8185,-286.0558 440.0569,-277.7812 514.9855,-274.2023"/>
<polygon fill="#191970" stroke="#191970" points="190.0023,-286.2208 180.1807,-290.1941 190.3363,-293.2129 190.0023,-286.2208"/>
</g>
<!-- Node457 -->
<g id="node5" class="node">
<title>Node457</title>
<g id="a_node5"><a xlink:href="opcontrol_8c.html#ac71a94af413917f27d108e95c4d6f6a7" target="_top" xlink:title="operatorControl">
<polygon fill="none" stroke="#000000" points="775.584,-188.5 775.584,-206.5 861.0664,-206.5 861.0664,-188.5 775.584,-188.5"/>
<text text-anchor="middle" x="818.3252" y="-194.5" font-family="Helvetica,sans-Serif" font-size="10.00" fill="#000000">operatorControl</text>
</a>
</g>
</g>
<!-- Node455&#45;&gt;Node457 -->
<g id="edge4" class="edge">
<title>Node455&#45;&gt;Node457</title>
<path fill="none" stroke="#191970" d="M182.7049,-304.7748C186.77,-306.6589 190.8743,-308.6018 194.748,-310.5 210.994,-318.4609 213.4196,-324.3007 230.748,-329.5 313.9428,-354.4622 338.3959,-348.5 425.2549,-348.5 425.2549,-348.5 425.2549,-348.5 550.624,-348.5 638.4734,-348.5 666.2472,-338.8655 739.584,-290.5 774.1993,-267.6712 801.9666,-225.2841 813.081,-206.6692"/>
<polygon fill="#191970" stroke="#191970" points="183.9678,-301.5039 173.4175,-300.5336 181.06,-307.8714 183.9678,-301.5039"/>
</g>
<!-- Node458 -->
<g id="node6" class="node">
<title>Node458</title>
<g id="a_node6"><a xlink:href="slew_8c.html#a7dff2b79dffe55fb936d977594d7c01d" target="_top" xlink:title="Sets motor speed wrapped inside the slew rate controller. ">
<polygon fill="none" stroke="#000000" points="243.8096,-301.5 243.8096,-319.5 329.8389,-319.5 329.8389,-301.5 243.8096,-301.5"/>
<text text-anchor="middle" x="286.8242" y="-307.5" font-family="Helvetica,sans-Serif" font-size="10.00" fill="#000000">set_motor_slew</text>
</a>
</g>
</g>
<!-- Node455&#45;&gt;Node458 -->
<g id="edge5" class="edge">
<title>Node455&#45;&gt;Node458</title>
<path fill="none" stroke="#191970" d="M190.6325,-296.8593C207.1189,-299.1972 226.5384,-301.951 243.5963,-304.37"/>
<polygon fill="#191970" stroke="#191970" points="190.6689,-293.3296 180.2765,-295.3908 189.686,-300.2602 190.6689,-293.3296"/>
</g>
<!-- Node461 -->
<g id="node9" class="node">
<title>Node461</title>
<g id="a_node9"><a xlink:href="slew_8c.html#a9f8b8ae577ef938622024545711f0151" target="_top" xlink:title="set_motor_immediate">
<polygon fill="none" stroke="#000000" points="230.748,-170.5 230.748,-188.5 342.9004,-188.5 342.9004,-170.5 230.748,-170.5"/>
<text text-anchor="middle" x="286.8242" y="-176.5" font-family="Helvetica,sans-Serif" font-size="10.00" fill="#000000">set_motor_immediate</text>
</a>
</g>
</g>
<!-- Node455&#45;&gt;Node461 -->
<g id="edge10" class="edge">
<title>Node455&#45;&gt;Node461</title>
<path fill="none" stroke="#191970" d="M171.7697,-275.6758C200.143,-251.9581 252.8071,-207.9354 275.7082,-188.7921"/>
<polygon fill="#191970" stroke="#191970" points="169.2316,-273.2356 163.8039,-282.3346 173.7211,-278.6064 169.2316,-273.2356"/>
</g>
<!-- Node459 -->
<g id="node7" class="node">
<title>Node459</title>
<g id="a_node7"><a xlink:href="drive_8c.html#a8df41fd50094c065eedc81fc5e6595d1" target="_top" xlink:title="sets the speed of one side of the robot. ">
<polygon fill="none" stroke="#000000" points="382.228,-301.5 382.228,-319.5 468.2817,-319.5 468.2817,-301.5 382.228,-301.5"/>
<text text-anchor="middle" x="425.2549" y="-307.5" font-family="Helvetica,sans-Serif" font-size="10.00" fill="#000000">set_side_speed</text>
</a>
</g>
</g>
<!-- Node458&#45;&gt;Node459 -->
<g id="edge6" class="edge">
<title>Node458&#45;&gt;Node459</title>
<path fill="none" stroke="#191970" d="M340.1753,-310.5C353.933,-310.5 368.5745,-310.5 381.7632,-310.5"/>
<polygon fill="#191970" stroke="#191970" points="339.8658,-307.0001 329.8657,-310.5 339.8657,-314.0001 339.8658,-307.0001"/>
</g>
<!-- Node459&#45;&gt;Node456 -->
<g id="edge7" class="edge">
<title>Node459&#45;&gt;Node456</title>
<path fill="none" stroke="#191970" d="M464.67,-298.5531C482.7816,-293.0634 503.9136,-286.6582 520.6921,-281.5725"/>
<polygon fill="#191970" stroke="#191970" points="463.5204,-295.2442 454.9656,-301.4945 465.5509,-301.9433 463.5204,-295.2442"/>
</g>
<!-- Node460 -->
<g id="node8" class="node">
<title>Node460</title>
<g id="a_node8"><a xlink:href="drive_8c.html#a8224a4626a934d30ed587671b7004bf8" target="_top" xlink:title="Updates the drive motors during teleop. ">
<polygon fill="none" stroke="#000000" points="629.6387,-263.5 629.6387,-281.5 739.584,-281.5 739.584,-263.5 629.6387,-263.5"/>
<text text-anchor="middle" x="684.6113" y="-269.5" font-family="Helvetica,sans-Serif" font-size="10.00" fill="#000000">update_drive_motors</text>
</a>
</g>
</g>
<!-- Node459&#45;&gt;Node460 -->
<g id="edge8" class="edge">
<title>Node459&#45;&gt;Node460</title>
<path fill="none" stroke="#191970" d="M478.2501,-305.2644C511.4812,-301.7195 555.1652,-296.5818 593.6387,-290.5 609.7003,-287.961 627.2486,-284.6237 642.6105,-281.5131"/>
<polygon fill="#191970" stroke="#191970" points="477.8686,-301.7851 468.2899,-306.3126 478.6013,-308.7466 477.8686,-301.7851"/>
</g>
<!-- Node460&#45;&gt;Node457 -->
<g id="edge9" class="edge">
<title>Node460&#45;&gt;Node457</title>
<path fill="none" stroke="#191970" d="M709.6249,-258.4699C736.7101,-243.2778 779.117,-219.4918 802.139,-206.5788"/>
<polygon fill="#191970" stroke="#191970" points="707.7499,-255.5086 700.7403,-263.4532 711.1743,-261.6138 707.7499,-255.5086"/>
</g>
<!-- Node462 -->
<g id="node10" class="node">
<title>Node462</title>
<g id="a_node10"><a xlink:href="claw_8c.html#a3a57f998b1884d39b0cc786689f7086f" target="_top" xlink:title="sets the claw motor speed ">
<polygon fill="none" stroke="#000000" points="507.6094,-.5 507.6094,-18.5 593.6387,-18.5 593.6387,-.5 507.6094,-.5"/>
<text text-anchor="middle" x="550.624" y="-6.5" font-family="Helvetica,sans-Serif" font-size="10.00" fill="#000000">set_claw_motor</text>
</a>
</g>
</g>
<!-- Node461&#45;&gt;Node462 -->
<g id="edge11" class="edge">
<title>Node461&#45;&gt;Node462</title>
<path fill="none" stroke="#191970" d="M304.4271,-163.2529C322.3976,-147.0892 351.4707,-122.0826 378.9004,-103.5 431.519,-67.8529 498.8942,-34.127 531.391,-18.5363"/>
<polygon fill="#191970" stroke="#191970" points="301.5985,-161.0943 296.553,-170.4106 306.307,-166.2741 301.5985,-161.0943"/>
</g>
<!-- Node464 -->
<g id="node12" class="node">
<title>Node464</title>
<g id="a_node12"><a xlink:href="claw_8c.html#a03023ca28f671b9fa7bac07782ccd8c1" target="_top" xlink:title="Drives the motors to open the claw. ">
<polygon fill="none" stroke="#000000" points="393.3486,-225.5 393.3486,-243.5 457.1611,-243.5 457.1611,-225.5 393.3486,-225.5"/>
<text text-anchor="middle" x="425.2549" y="-231.5" font-family="Helvetica,sans-Serif" font-size="10.00" fill="#000000">open_claw</text>
</a>
</g>
</g>
<!-- Node461&#45;&gt;Node464 -->
<g id="edge14" class="edge">
<title>Node461&#45;&gt;Node464</title>
<path fill="none" stroke="#191970" d="M319.2974,-192.402C344.8119,-202.5391 379.7064,-216.4031 402.3619,-225.4044"/>
<polygon fill="#191970" stroke="#191970" points="320.2689,-189.0219 309.6832,-188.5821 317.6842,-195.5272 320.2689,-189.0219"/>
</g>
<!-- Node465 -->
<g id="node13" class="node">
<title>Node465</title>
<g id="a_node13"><a xlink:href="claw_8c.html#ac42dd40dbb37219295286859c6b068c2" target="_top" xlink:title="Drives the motors to close the claw. ">
<polygon fill="none" stroke="#000000" points="392.7993,-188.5 392.7993,-206.5 457.7104,-206.5 457.7104,-188.5 392.7993,-188.5"/>
<text text-anchor="middle" x="425.2549" y="-194.5" font-family="Helvetica,sans-Serif" font-size="10.00" fill="#000000">close_claw</text>
</a>
</g>
</g>
<!-- Node461&#45;&gt;Node465 -->
<g id="edge16" class="edge">
<title>Node461&#45;&gt;Node465</title>
<path fill="none" stroke="#191970" d="M353.442,-188.1622C367.007,-189.9261 380.7053,-191.7073 392.4487,-193.2343"/>
<polygon fill="#191970" stroke="#191970" points="353.4971,-184.64 343.1293,-186.8213 352.5945,-191.5816 353.4971,-184.64"/>
</g>
<!-- Node466 -->
<g id="node14" class="node">
<title>Node466</title>
<g id="a_node14"><a xlink:href="lifter_8c.html#a2cfc188f60f945c824dd7fe7b0b5f4e4" target="_top" xlink:title="set_lifter_motors">
<polygon fill="none" stroke="#000000" points="380.2969,-113.5 380.2969,-131.5 470.2129,-131.5 470.2129,-113.5 380.2969,-113.5"/>
<text text-anchor="middle" x="425.2549" y="-119.5" font-family="Helvetica,sans-Serif" font-size="10.00" fill="#000000">set_lifter_motors</text>
</a>
</g>
</g>
<!-- Node461&#45;&gt;Node466 -->
<g id="edge18" class="edge">
<title>Node461&#45;&gt;Node466</title>
<path fill="none" stroke="#191970" d="M318.1137,-166.5649C335.9265,-159.2065 358.6588,-149.8252 378.9004,-141.5 386.7832,-138.2579 395.4238,-134.7136 403.0867,-131.5737"/>
<polygon fill="#191970" stroke="#191970" points="316.6765,-163.3717 308.7709,-170.4252 319.3496,-169.8412 316.6765,-163.3717"/>
</g>
<!-- Node470 -->
<g id="node18" class="node">
<title>Node470</title>
<g id="a_node18"><a xlink:href="mobile__goal__intake_8c.html#a8f215023832ba515d7b4535e3ae07498" target="_top" xlink:title="set_intake_motor">
<polygon fill="none" stroke="#000000" points="378.9004,-151.5 378.9004,-169.5 471.6094,-169.5 471.6094,-151.5 378.9004,-151.5"/>
<text text-anchor="middle" x="425.2549" y="-157.5" font-family="Helvetica,sans-Serif" font-size="10.00" fill="#000000">set_intake_motor</text>
</a>
</g>
</g>
<!-- Node461&#45;&gt;Node470 -->
<g id="edge26" class="edge">
<title>Node461&#45;&gt;Node470</title>
<path fill="none" stroke="#191970" d="M353.1998,-170.3898C361.8288,-169.2054 370.5169,-168.0129 378.7262,-166.8862"/>
<polygon fill="#191970" stroke="#191970" points="352.5604,-166.9446 343.1293,-171.772 353.5123,-173.8796 352.5604,-166.9446"/>
</g>
<!-- Node463 -->
<g id="node11" class="node">
<title>Node463</title>
<g id="a_node11"><a xlink:href="claw_8c.html#a0122b78972344264b8a276a559cfce4a" target="_top" xlink:title="Updates the claw motor values. ">
<polygon fill="none" stroke="#000000" points="648.5352,-20.5 648.5352,-38.5 720.6875,-38.5 720.6875,-20.5 648.5352,-20.5"/>
<text text-anchor="middle" x="684.6113" y="-26.5" font-family="Helvetica,sans-Serif" font-size="10.00" fill="#000000">update_claw</text>
</a>
</g>
</g>
<!-- Node462&#45;&gt;Node463 -->
<g id="edge12" class="edge">
<title>Node462&#45;&gt;Node463</title>
<path fill="none" stroke="#191970" d="M603.8814,-17.4496C618.781,-19.6737 634.6278,-22.0391 648.3,-24.0799"/>
<polygon fill="#191970" stroke="#191970" points="604.1631,-13.953 593.756,-15.9382 603.1297,-20.8763 604.1631,-13.953"/>
</g>
<!-- Node463&#45;&gt;Node457 -->
<g id="edge13" class="edge">
<title>Node463&#45;&gt;Node457</title>
<path fill="none" stroke="#191970" d="M701.9099,-45.6885C713.1293,-56.5261 727.7973,-71.3478 739.584,-85.5 769.7025,-121.663 800.3348,-168.8854 812.6692,-188.4268"/>
<polygon fill="#191970" stroke="#191970" points="704.0935,-42.9346 694.4404,-38.5677 699.2634,-48.0012 704.0935,-42.9346"/>
</g>
<!-- Node464&#45;&gt;Node456 -->
<g id="edge15" class="edge">
<title>Node464&#45;&gt;Node456</title>
<path fill="none" stroke="#191970" d="M464.67,-246.4469C482.7816,-251.9366 503.9136,-258.3418 520.6921,-263.4275"/>
<polygon fill="#191970" stroke="#191970" points="465.5509,-243.0567 454.9656,-243.5055 463.5204,-249.7558 465.5509,-243.0567"/>
</g>
<!-- Node465&#45;&gt;Node456 -->
<g id="edge17" class="edge">
<title>Node465&#45;&gt;Node456</title>
<path fill="none" stroke="#191970" d="M463.9356,-210.9708C466.6039,-212.3666 469.1906,-213.8755 471.6094,-215.5 490.9226,-228.4706 488.5966,-240.093 507.6094,-253.5 513.0803,-257.3579 519.4598,-260.6937 525.6044,-263.4461"/>
<polygon fill="#191970" stroke="#191970" points="465.2174,-207.7069 454.6746,-206.6586 462.2625,-214.0527 465.2174,-207.7069"/>
</g>
<!-- Node466&#45;&gt;Node456 -->
<g id="edge19" class="edge">
<title>Node466&#45;&gt;Node456</title>
<path fill="none" stroke="#191970" d="M466.5539,-136.9317C468.3722,-138.321 470.0739,-139.8399 471.6094,-141.5 507.1115,-179.8852 472.6275,-214.6401 507.6094,-253.5 511.3236,-257.6259 516.0996,-260.9006 521.1112,-263.485"/>
<polygon fill="#191970" stroke="#191970" points="468.3346,-133.9177 457.9885,-131.6353 464.653,-139.8715 468.3346,-133.9177"/>
</g>
<!-- Node467 -->
<g id="node15" class="node">
<title>Node467</title>
<g id="a_node15"><a xlink:href="lifter_8c.html#a7452163ed7946b6262f41de51c62dfd4" target="_top" xlink:title="raise_lifter">
<polygon fill="none" stroke="#000000" points="519.5601,-76.5 519.5601,-94.5 581.688,-94.5 581.688,-76.5 519.5601,-76.5"/>
<text text-anchor="middle" x="550.624" y="-82.5" font-family="Helvetica,sans-Serif" font-size="10.00" fill="#000000">raise_lifter</text>
</a>
</g>
</g>
<!-- Node466&#45;&gt;Node467 -->
<g id="edge20" class="edge">
<title>Node466&#45;&gt;Node467</title>
<path fill="none" stroke="#191970" d="M465.8891,-110.5077C483.4158,-105.3351 503.5782,-99.3845 519.8374,-94.586"/>
<polygon fill="#191970" stroke="#191970" points="464.5239,-107.2613 455.9236,-113.4488 466.5054,-113.975 464.5239,-107.2613"/>
</g>
<!-- Node468 -->
<g id="node16" class="node">
<title>Node468</title>
<g id="a_node16"><a xlink:href="lifter_8c.html#a59bb7413777ca16aba124aaedf95c79b" target="_top" xlink:title="update_lifter">
<polygon fill="none" stroke="#000000" points="649.0918,-95.5 649.0918,-113.5 720.1309,-113.5 720.1309,-95.5 649.0918,-95.5"/>
<text text-anchor="middle" x="684.6113" y="-101.5" font-family="Helvetica,sans-Serif" font-size="10.00" fill="#000000">update_lifter</text>
</a>
</g>
</g>
<!-- Node466&#45;&gt;Node468 -->
<g id="edge25" class="edge">
<title>Node466&#45;&gt;Node468</title>
<path fill="none" stroke="#191970" d="M442.0715,-106.5279C457.6678,-92.9008 482.2332,-74.3104 507.6094,-66.5 544.1529,-55.2524 556.1493,-58.9848 593.6387,-66.5 621.1619,-72.0173 650.7562,-86.0608 668.4725,-95.442"/>
<polygon fill="#191970" stroke="#191970" points="439.4471,-104.1826 434.3815,-113.488 444.1444,-109.3725 439.4471,-104.1826"/>
</g>
<!-- Node469 -->
<g id="node17" class="node">
<title>Node469</title>
<g id="a_node17"><a xlink:href="lifter_8c.html#aa7d2d04059f57cc5b8582f6fd0726dc1" target="_top" xlink:title="lower_lifter">
<polygon fill="none" stroke="#000000" points="518.4492,-113.5 518.4492,-131.5 582.7988,-131.5 582.7988,-113.5 518.4492,-113.5"/>
<text text-anchor="middle" x="550.624" y="-119.5" font-family="Helvetica,sans-Serif" font-size="10.00" fill="#000000">lower_lifter</text>
</a>
</g>
</g>
<!-- Node466&#45;&gt;Node469 -->
<g id="edge23" class="edge">
<title>Node466&#45;&gt;Node469</title>
<path fill="none" stroke="#191970" d="M480.72,-122.5C493.6065,-122.5 506.9055,-122.5 518.3994,-122.5"/>
<polygon fill="#191970" stroke="#191970" points="480.5161,-119.0001 470.516,-122.5 480.516,-126.0001 480.5161,-119.0001"/>
</g>
<!-- Node467&#45;&gt;Node468 -->
<g id="edge21" class="edge">
<title>Node467&#45;&gt;Node468</title>
<path fill="none" stroke="#191970" d="M591.7819,-91.3364C610.0645,-93.9289 631.3785,-96.9513 648.9691,-99.4458"/>
<polygon fill="#191970" stroke="#191970" points="592.0926,-87.8455 581.7002,-89.9067 591.1097,-94.7762 592.0926,-87.8455"/>
</g>
<!-- Node468&#45;&gt;Node457 -->
<g id="edge22" class="edge">
<title>Node468&#45;&gt;Node457</title>
<path fill="none" stroke="#191970" d="M706.2404,-119.5434C734.1859,-138.9798 781.9802,-172.2215 805.0692,-188.2802"/>
<polygon fill="#191970" stroke="#191970" points="708.1292,-116.5938 697.9212,-113.7572 704.1323,-122.3405 708.1292,-116.5938"/>
</g>
<!-- Node469&#45;&gt;Node468 -->
<g id="edge24" class="edge">
<title>Node469&#45;&gt;Node468</title>
<path fill="none" stroke="#191970" d="M593.2198,-116.7776C611.0826,-114.3779 631.6258,-111.6181 648.7052,-109.3237"/>
<polygon fill="#191970" stroke="#191970" points="592.5035,-113.3423 583.0586,-118.1427 593.4356,-120.28 592.5035,-113.3423"/>
</g>
<!-- Node471 -->
<g id="node19" class="node">
<title>Node471</title>
<g id="a_node19"><a xlink:href="mobile__goal__intake_8c.html#afa91470a9891e48827fd62d18553c6ce" target="_top" xlink:title="lower_intake">
<polygon fill="none" stroke="#000000" points="514.5527,-226.5 514.5527,-244.5 586.6953,-244.5 586.6953,-226.5 514.5527,-226.5"/>
<text text-anchor="middle" x="550.624" y="-232.5" font-family="Helvetica,sans-Serif" font-size="10.00" fill="#000000">lower_intake</text>
</a>
</g>
</g>
<!-- Node470&#45;&gt;Node471 -->
<g id="edge27" class="edge">
<title>Node470&#45;&gt;Node471</title>
<path fill="none" stroke="#191970" d="M462.7873,-173.6601C465.8429,-175.1537 468.8232,-176.7681 471.6094,-178.5 490.0432,-189.9589 490.0129,-198.7927 507.6094,-211.5 515.2355,-217.0072 524.2498,-222.2128 532.0512,-226.3592"/>
<polygon fill="#191970" stroke="#191970" points="464.0744,-170.4022 453.5142,-169.5452 461.2351,-176.8005 464.0744,-170.4022"/>
</g>
<!-- Node472 -->
<g id="node20" class="node">
<title>Node472</title>
<g id="a_node20"><a xlink:href="mobile__goal__intake_8c.html#ad0232c21c5c1ffda603d2b7d61034118" target="_top" xlink:title="updateIntake">
<polygon fill="none" stroke="#000000" points="647.6978,-188.5 647.6978,-206.5 721.5249,-206.5 721.5249,-188.5 647.6978,-188.5"/>
<text text-anchor="middle" x="684.6113" y="-194.5" font-family="Helvetica,sans-Serif" font-size="10.00" fill="#000000">updateIntake</text>
</a>
</g>
</g>
<!-- Node470&#45;&gt;Node472 -->
<g id="edge32" class="edge">
<title>Node470&#45;&gt;Node472</title>
<path fill="none" stroke="#191970" d="M475.3142,-171.5921C485.9428,-173.7341 497.1209,-175.8285 507.6094,-177.5 555.7093,-185.1657 611.6214,-190.9692 647.5265,-194.3004"/>
<polygon fill="#191970" stroke="#191970" points="475.8331,-168.1256 465.3326,-169.5362 474.4209,-174.9817 475.8331,-168.1256"/>
</g>
<!-- Node473 -->
<g id="node21" class="node">
<title>Node473</title>
<g id="a_node21"><a xlink:href="mobile__goal__intake_8c.html#a4899f9a8621015313e6312ce085da979" target="_top" xlink:title="raise_intake">
<polygon fill="none" stroke="#000000" points="515.6636,-150.5 515.6636,-168.5 585.5845,-168.5 585.5845,-150.5 515.6636,-150.5"/>
<text text-anchor="middle" x="550.624" y="-156.5" font-family="Helvetica,sans-Serif" font-size="10.00" fill="#000000">raise_intake</text>
</a>
</g>
</g>
<!-- Node470&#45;&gt;Node473 -->
<g id="edge30" class="edge">
<title>Node470&#45;&gt;Node473</title>
<path fill="none" stroke="#191970" d="M482.277,-160.0452C493.6595,-159.9544 505.2931,-159.8616 515.6601,-159.7789"/>
<polygon fill="#191970" stroke="#191970" points="481.9095,-156.5479 471.9377,-160.1276 481.9654,-163.5477 481.9095,-156.5479"/>
</g>
<!-- Node471&#45;&gt;Node472 -->
<g id="edge28" class="edge">
<title>Node471&#45;&gt;Node472</title>
<path fill="none" stroke="#191970" d="M592.2118,-223.7053C611.6866,-218.1821 634.5239,-211.7052 652.6218,-206.5725"/>
<polygon fill="#191970" stroke="#191970" points="591.0427,-220.3988 582.3771,-226.4945 592.9527,-227.1332 591.0427,-220.3988"/>
</g>
<!-- Node472&#45;&gt;Node457 -->
<g id="edge29" class="edge">
<title>Node472&#45;&gt;Node457</title>
<path fill="none" stroke="#191970" d="M732.2647,-197.5C746.2448,-197.5 761.449,-197.5 775.1343,-197.5"/>
<polygon fill="#191970" stroke="#191970" points="731.8581,-194.0001 721.8581,-197.5 731.8581,-201.0001 731.8581,-194.0001"/>
</g>
<!-- Node473&#45;&gt;Node472 -->
<g id="edge31" class="edge">
<title>Node473&#45;&gt;Node472</title>
<path fill="none" stroke="#191970" d="M592.2118,-171.2947C611.6866,-176.8179 634.5239,-183.2948 652.6218,-188.4275"/>
<polygon fill="#191970" stroke="#191970" points="592.9527,-167.8668 582.3771,-168.5055 591.0427,-174.6012 592.9527,-167.8668"/>
</g>
</g>
</svg>
        <g id="navigator" transform="translate(0 0)" fill="#404254">
                <rect fill="#f2f5e9" fill-opacity="0.5" stroke="#606060" stroke-width=".5" x="0" y="0" width="60" height="60"/>
                <use id="zoomplus" xlink:href="#zoomPlus" x="17" y="9" onmousedown="handleZoom(evt,'in')"/>
                <use id="zoomminus" xlink:href="#zoomMin" x="42" y="9" onmousedown="handleZoom(evt,'out')"/>
                <use id="reset" xlink:href="#resetDef" x="30" y="36" onmousedown="handleReset()"/>
                <g id="arrowUp" xlink:href="#dirArrow" transform="translate(30 24)" onmousedown="handlePan(0,-1)">
                  <use xlink:href="#rim" fill="#404040">
                        <set attributeName="fill" to="#808080" begin="arrowUp.mouseover" end="arrowUp.mouseout"/>
                  </use>
                  <path fill="none" stroke="white" stroke-width="1.5" d="M0,-3.0v7 M-2.5,-0.5L0,-3.0L2.5,-0.5"/>
                </g>
                <g id="arrowRight" xlink:href="#dirArrow" transform="rotate(90) translate(36 -43)" onmousedown="handlePan(1,0)">
                  <use xlink:href="#rim" fill="#404040">
                        <set attributeName="fill" to="#808080" begin="arrowRight.mouseover" end="arrowRight.mouseout"/>
                  </use>
                  <path fill="none" stroke="white" stroke-width="1.5" d="M0,-3.0v7 M-2.5,-0.5L0,-3.0L2.5,-0.5"/>
                </g>
                <g id="arrowDown" xlink:href="#dirArrow" transform="rotate(180) translate(-30 -48)" onmousedown="handlePan(0,1)">
                  <use xlink:href="#rim" fill="#404040">
                        <set attributeName="fill" to="#808080" begin="arrowDown.mouseover" end="arrowDown.mouseout"/>
                  </use>
                  <path fill="none" stroke="white" stroke-width="1.5" d="M0,-3.0v7 M-2.5,-0.5L0,-3.0L2.5,-0.5"/>
                </g>
                <g id="arrowLeft" xlink:href="#dirArrow" transform="rotate(270) translate(-36 17)" onmousedown="handlePan(-1,0)">
                  <use xlink:href="#rim" fill="#404040">
                        <set attributeName="fill" to="#808080" begin="arrowLeft.mouseover" end="arrowLeft.mouseout"/>
                  </use>
                  <path fill="none" stroke="white" stroke-width="1.5" d="M0,-3.0v7 M-2.5,-0.5L0,-3.0L2.5,-0.5"/>
                </g>
        </g>
        <svg viewBox="0 0 15 15" width="100%" height="30px" preserveAspectRatio="xMaxYMin meet">
         <g id="arrow_out" transform="scale(0.3 0.3)">
          <a xlink:href="_a_p_i_8h_ab05a241d6d1fd98b1ceb4665db678156_icgraph_org.svg" target="_base">
           <rect id="button" ry="5" rx="5" y="6" x="6" height="38" width="38"
                fill="#f2f5e9" fill-opacity="0.5" stroke="#606060" stroke-width="1.0"/>
           <path id="arrow"
             d="M 11.500037,31.436501 C 11.940474,20.09759 22.043105,11.32322 32.158766,21.979434 L 37.068811,17.246167 C 37.068811,17.246167 37.088388,32 37.088388,32 L 22.160133,31.978069 C 22.160133,31.978069 26.997745,27.140456 26.997745,27.140456 C 18.528582,18.264221 13.291696,25.230495 11.500037,31.436501 z"
             style="fill:#404040;"/>
          </a>
         </g>
        </svg>
</svg>
