<?xml version="1.0" encoding="UTF-8" standalone="no"?>
<!DOCTYPE svg PUBLIC "-//W3C//DTD SVG 1.1//EN"
 "http://www.w3.org/Graphics/SVG/1.1/DTD/svg11.dtd">
<!-- Generated by graphviz version 2.40.1 (20161225.0304)
 -->
<!-- Title: millis Pages: 1 -->
<svg width="449pt" height="94pt"
 viewBox="0.00 0.00 449.04 94.00" xmlns="http://www.w3.org/2000/svg" xmlns:xlink="http://www.w3.org/1999/xlink">
<g id="graph0" class="graph" transform="scale(1 1) rotate(0) translate(4 90)">
<title>millis</title>
<!-- Node228 -->
<g id="node1" class="node">
<title>Node228</title>
<polygon fill="#bfbfbf" stroke="#000000" points="0,-19.5 0,-37.5 38.2168,-37.5 38.2168,-19.5 0,-19.5"/>
<text text-anchor="middle" x="19.1084" y="-25.5" font-family="Helvetica,sans-Serif" font-size="10.00" fill="#000000">millis</text>
</g>
<!-- Node229 -->
<g id="node2" class="node">
<title>Node229</title>
<g id="a_node2"><a xlink:href="localization_8c.html#a6785e4b3b61887f28028f05019b9b39d" target="_top" xlink:title="calculate_accelerometer\l_odemetry">
<polygon fill="none" stroke="#000000" points="74.2168,-57.5 74.2168,-85.5 198.6055,-85.5 198.6055,-57.5 74.2168,-57.5"/>
<text text-anchor="start" x="82.2168" y="-73.5" font-family="Helvetica,sans-Serif" font-size="10.00" fill="#000000">calculate_accelerometer</text>
<text text-anchor="middle" x="136.4111" y="-63.5" font-family="Helvetica,sans-Serif" font-size="10.00" fill="#000000">_odemetry</text>
</a>
</g>
</g>
<!-- Node228&#45;&gt;Node229 -->
<g id="edge1" class="edge">
<title>Node228&#45;&gt;Node229</title>
<path fill="none" stroke="#191970" d="M48.2588,-39.1858C63.297,-44.6983 81.8336,-51.4934 98.0221,-57.4276"/>
<polygon fill="#191970" stroke="#191970" points="49.0723,-35.7562 38.4786,-35.6006 46.663,-42.3286 49.0723,-35.7562"/>
</g>
<!-- Node230 -->
<g id="node3" class="node">
<title>Node230</title>
<g id="a_node3"><a xlink:href="localization_8c.html#afacd5e0b3d5e677df26a4402bbd9ec9e" target="_top" xlink:title="update_position">
<polygon fill="none" stroke="#000000" points="234.6055,-19.5 234.6055,-37.5 321.2207,-37.5 321.2207,-19.5 234.6055,-19.5"/>
<text text-anchor="middle" x="277.9131" y="-25.5" font-family="Helvetica,sans-Serif" font-size="10.00" fill="#000000">update_position</text>
</a>
</g>
</g>
<!-- Node228&#45;&gt;Node230 -->
<g id="edge5" class="edge">
<title>Node228&#45;&gt;Node230</title>
<path fill="none" stroke="#191970" d="M48.6639,-28.5C94.2058,-28.5 181.7823,-28.5 234.5221,-28.5"/>
<polygon fill="#191970" stroke="#191970" points="48.5608,-25.0001 38.5608,-28.5 48.5608,-32.0001 48.5608,-25.0001"/>
</g>
<!-- Node231 -->
<g id="node4" class="node">
<title>Node231</title>
<g id="a_node4"><a xlink:href="localization_8c.html#afdd0147de6aa15957e9a125f9cd20578" target="_top" xlink:title="Starts the localization process. ">
<polygon fill="none" stroke="#000000" points="357.2207,-.5 357.2207,-18.5 441.0381,-18.5 441.0381,-.5 357.2207,-.5"/>
<text text-anchor="middle" x="399.1294" y="-6.5" font-family="Helvetica,sans-Serif" font-size="10.00" fill="#000000">init_localization</text>
</a>
</g>
</g>
<!-- Node228&#45;&gt;Node231 -->
<g id="edge4" class="edge">
<title>Node228&#45;&gt;Node231</title>
<path fill="none" stroke="#191970" d="M48.6021,-25.3098C90.067,-20.9906 167.9857,-13.4803 234.6055,-10.5 276.2668,-8.6362 323.9206,-8.5731 357.1812,-8.8629"/>
<polygon fill="#191970" stroke="#191970" points="47.9715,-21.8568 38.3934,-26.3858 48.7052,-28.8183 47.9715,-21.8568"/>
</g>
<!-- Node229&#45;&gt;Node230 -->
<g id="edge2" class="edge">
<title>Node229&#45;&gt;Node230</title>
<path fill="none" stroke="#191970" d="M192.4865,-54.4597C211.431,-48.7028 231.8438,-42.4997 247.9636,-37.6011"/>
<polygon fill="#191970" stroke="#191970" points="191.2945,-51.1638 182.7442,-57.4202 193.3298,-57.8614 191.2945,-51.1638"/>
</g>
<!-- Node230&#45;&gt;Node231 -->
<g id="edge3" class="edge">
<title>Node230&#45;&gt;Node231</title>
<path fill="none" stroke="#191970" d="M331.2504,-20.1397C339.8113,-18.7978 348.5685,-17.4251 356.8256,-16.1309"/>
<polygon fill="#191970" stroke="#191970" points="330.6699,-16.6878 321.3326,-21.6942 331.754,-23.6034 330.6699,-16.6878"/>
</g>
</g>
</svg>
