<?xml version="1.0" encoding="UTF-8" standalone="no"?>
<!DOCTYPE svg PUBLIC "-//W3C//DTD SVG 1.1//EN"
 "http://www.w3.org/Graphics/SVG/1.1/DTD/svg11.dtd">
<!-- Generated by graphviz version 2.40.1 (20161225.0304)
 -->
<!-- Title: motorSet Pages: 1 -->
<!--zoomable 518 -->
<svg id="main" version="1.1" xmlns="http://www.w3.org/2000/svg" xmlns:xlink="http://www.w3.org/1999/xlink" xml:space="preserve" onload="init(evt)">
<style type="text/css"><![CDATA[
.edge:hover path { stroke: red; }
.edge:hover polygon { stroke: red; fill: red; }
]]></style>
<script type="text/javascript"><![CDATA[
var edges = document.getElementsByTagName('g');
if (edges && edges.length) {
  for (var i=0;i<edges.length;i++) {
    if (edges[i].id.substr(0,4)=='edge') {
      edges[i].setAttribute('class','edge');
    }
  }
}
]]></script>
        <defs>
                <circle id="rim" cx="0" cy="0" r="7"/>
                <circle id="rim2" cx="0" cy="0" r="3.5"/>
                <g id="zoomPlus">
                        <use xlink:href="#rim" fill="#404040">
                                <set attributeName="fill" to="#808080" begin="zoomplus.mouseover" end="zoomplus.mouseout"/>
                        </use>
                        <path d="M-4,0h8M0,-4v8" fill="none" stroke="white" stroke-width="1.5" pointer-events="none"/>
                </g>
                <g id="zoomMin">
                        <use xlink:href="#rim" fill="#404040">
                                <set attributeName="fill" to="#808080" begin="zoomminus.mouseover" end="zoomminus.mouseout"/>
                        </use>
                        <path d="M-4,0h8" fill="none" stroke="white" stroke-width="1.5" pointer-events="none"/>
                </g>
                <g id="dirArrow">
                        <path fill="none" stroke="white" stroke-width="1.5" d="M0,-3.0v7 M-2.5,-0.5L0,-3.0L2.5,-0.5"/>
                </g>
               <g id="resetDef">
                       <use xlink:href="#rim2" fill="#404040">
                               <set attributeName="fill" to="#808080" begin="reset.mouseover" end="reset.mouseout"/>
                       </use>
               </g>
        </defs>

<script type="text/javascript">
var viewWidth = 863;
var viewHeight = 518;
var sectionId = 'dynsection-18';
</script>
<script xlink:href="svgpan.js"/>
<svg id="graph" class="graph">
<g id="viewport">
<title>motorSet</title>
<!-- Node369 -->
<g id="node1" class="node">
<title>Node369</title>
<polygon fill="#bfbfbf" stroke="#000000" points="0,-205.5 0,-223.5 56.5713,-223.5 56.5713,-205.5 0,-205.5"/>
<text text-anchor="middle" x="28.2856" y="-211.5" font-family="Helvetica,sans-Serif" font-size="10.00" fill="#000000">motorSet</text>
</g>
<!-- Node370 -->
<g id="node2" class="node">
<title>Node370</title>
<g id="a_node2"><a xlink:href="slew_8c.html#a9f8b8ae577ef938622024545711f0151" target="_top" xlink:title="Sets the motor speed ignoring the slew controller. ">
<polygon fill="none" stroke="#000000" points="296.0684,-205.5 296.0684,-223.5 408.2207,-223.5 408.2207,-205.5 296.0684,-205.5"/>
<text text-anchor="middle" x="352.1445" y="-211.5" font-family="Helvetica,sans-Serif" font-size="10.00" fill="#000000">set_motor_immediate</text>
</a>
</g>
</g>
<!-- Node369&#45;&gt;Node370 -->
<g id="edge1" class="edge">
<title>Node369&#45;&gt;Node370</title>
<path fill="none" stroke="#191970" d="M66.7539,-214.5C123.5969,-214.5 230.3599,-214.5 295.9652,-214.5"/>
<polygon fill="#191970" stroke="#191970" points="66.7422,-211.0001 56.7421,-214.5 66.7421,-218.0001 66.7422,-211.0001"/>
</g>
<!-- Node390 -->
<g id="node19" class="node">
<title>Node390</title>
<g id="a_node19"><a xlink:href="slew_8c.html#a807a87c5df438fde21c1e8213906695b" target="_top" xlink:title="Closes the distance between the desired motor value and the current motor value by half for each moto...">
<polygon fill="none" stroke="#000000" points="92.5713,-186.5 92.5713,-204.5 169.7188,-204.5 169.7188,-186.5 92.5713,-186.5"/>
<text text-anchor="middle" x="131.145" y="-192.5" font-family="Helvetica,sans-Serif" font-size="10.00" fill="#000000">updateMotors</text>
</a>
</g>
</g>
<!-- Node369&#45;&gt;Node390 -->
<g id="edge29" class="edge">
<title>Node369&#45;&gt;Node390</title>
<path fill="none" stroke="#191970" d="M66.6389,-207.4154C75.0752,-205.8571 84.0142,-204.2059 92.4632,-202.6452"/>
<polygon fill="#191970" stroke="#191970" points="65.8626,-203.9996 56.6647,-209.2579 67.1341,-210.8831 65.8626,-203.9996"/>
</g>
<!-- Node371 -->
<g id="node3" class="node">
<title>Node371</title>
<g id="a_node3"><a xlink:href="claw_8c.html#a3a57f998b1884d39b0cc786689f7086f" target="_top" xlink:title="sets the claw motor speed ">
<polygon fill="none" stroke="#000000" points="453.9521,-434.5 453.9521,-452.5 539.9814,-452.5 539.9814,-434.5 453.9521,-434.5"/>
<text text-anchor="middle" x="496.9668" y="-440.5" font-family="Helvetica,sans-Serif" font-size="10.00" fill="#000000">set_claw_motor</text>
</a>
</g>
</g>
<!-- Node370&#45;&gt;Node371 -->
<g id="edge2" class="edge">
<title>Node370&#45;&gt;Node371</title>
<path fill="none" stroke="#191970" d="M363.4596,-232.3919C392.6092,-278.4847 469.5044,-400.0752 491.196,-434.375"/>
<polygon fill="#191970" stroke="#191970" points="366.3042,-230.3417 358.0011,-223.7607 360.388,-234.0832 366.3042,-230.3417"/>
</g>
<!-- Node376 -->
<g id="node7" class="node">
<title>Node376</title>
<g id="a_node7"><a xlink:href="claw_8c.html#a3a6168bf4e2042115dd32542f1f6a2f5" target="_top" xlink:title="Drives the motors to grab a cone. ">
<polygon fill="none" stroke="#000000" points="452.5532,-152.5 452.5532,-170.5 541.3804,-170.5 541.3804,-152.5 452.5532,-152.5"/>
<text text-anchor="middle" x="496.9668" y="-158.5" font-family="Helvetica,sans-Serif" font-size="10.00" fill="#000000">claw_grab_cone</text>
</a>
</g>
</g>
<!-- Node370&#45;&gt;Node376 -->
<g id="edge7" class="edge">
<title>Node370&#45;&gt;Node376</title>
<path fill="none" stroke="#191970" d="M386.5973,-201.8915C412.8326,-192.2902 448.3358,-179.2973 471.9112,-170.6695"/>
<polygon fill="#191970" stroke="#191970" points="385.2284,-198.6654 377.0404,-205.389 387.6341,-205.239 385.2284,-198.6654"/>
</g>
<!-- Node380 -->
<g id="node10" class="node">
<title>Node380</title>
<g id="a_node10"><a xlink:href="claw_8c.html#aecaa4eedc34d6b164ee17ed104914227" target="_top" xlink:title="Drives the motors to release a cone. ">
<polygon fill="none" stroke="#000000" points="446.1616,-205.5 446.1616,-223.5 547.772,-223.5 547.772,-205.5 446.1616,-205.5"/>
<text text-anchor="middle" x="496.9668" y="-211.5" font-family="Helvetica,sans-Serif" font-size="10.00" fill="#000000">claw_release_cone</text>
</a>
</g>
</g>
<!-- Node370&#45;&gt;Node380 -->
<g id="edge10" class="edge">
<title>Node370&#45;&gt;Node380</title>
<path fill="none" stroke="#191970" d="M418.8306,-214.5C428.0097,-214.5 437.3123,-214.5 446.1433,-214.5"/>
<polygon fill="#191970" stroke="#191970" points="418.5513,-211.0001 408.5513,-214.5 418.5513,-218.0001 418.5513,-211.0001"/>
</g>
<!-- Node381 -->
<g id="node11" class="node">
<title>Node381</title>
<g id="a_node11"><a xlink:href="lifter_8c.html#a78640d547d9361951a92d0bc00939536" target="_top" xlink:title="Sets the secondary lifter motors to the given value. ">
<polygon fill="none" stroke="#000000" points="444.2207,-259.5 444.2207,-287.5 549.7129,-287.5 549.7129,-259.5 444.2207,-259.5"/>
<text text-anchor="start" x="452.2207" y="-275.5" font-family="Helvetica,sans-Serif" font-size="10.00" fill="#000000">set_secondary_lifter</text>
<text text-anchor="middle" x="496.9668" y="-265.5" font-family="Helvetica,sans-Serif" font-size="10.00" fill="#000000">_motors</text>
</a>
</g>
</g>
<!-- Node370&#45;&gt;Node381 -->
<g id="edge11" class="edge">
<title>Node370&#45;&gt;Node381</title>
<path fill="none" stroke="#191970" d="M383.8627,-227.4219C407.1042,-236.8904 438.6274,-249.7328 462.491,-259.4547"/>
<polygon fill="#191970" stroke="#191970" points="385.0371,-224.121 374.4556,-223.5894 382.3961,-230.6037 385.0371,-224.121"/>
</g>
<!-- Node386 -->
<g id="node16" class="node">
<title>Node386</title>
<g id="a_node16"><a xlink:href="mobile__goal__intake_8c.html#ab31e12bb0fa46c77906a048666b699d5" target="_top" xlink:title="sets the intake motor ">
<polygon fill="none" stroke="#ff0000" points="450.6123,-57.5 450.6123,-75.5 543.3213,-75.5 543.3213,-57.5 450.6123,-57.5"/>
<text text-anchor="middle" x="496.9668" y="-63.5" font-family="Helvetica,sans-Serif" font-size="10.00" fill="#000000">set_intake_motor</text>
</a>
</g>
</g>
<!-- Node370&#45;&gt;Node386 -->
<g id="edge23" class="edge">
<title>Node370&#45;&gt;Node386</title>
<path fill="none" stroke="#191970" d="M368.5334,-197.7516C399.139,-166.4744 464.0402,-100.1491 487.9109,-75.7546"/>
<polygon fill="#191970" stroke="#191970" points="365.6962,-195.6466 361.2038,-205.2419 370.6994,-200.5424 365.6962,-195.6466"/>
</g>
<!-- Node372 -->
<g id="node4" class="node">
<title>Node372</title>
<g id="a_node4"><a xlink:href="claw_8c.html#a0122b78972344264b8a276a559cfce4a" target="_top" xlink:title="Updates the claw motor values. ">
<polygon fill="none" stroke="#ff0000" points="618.7817,-491.5 618.7817,-509.5 690.9341,-509.5 690.9341,-491.5 618.7817,-491.5"/>
<text text-anchor="middle" x="654.8579" y="-497.5" font-family="Helvetica,sans-Serif" font-size="10.00" fill="#000000">update_claw</text>
</a>
</g>
</g>
<!-- Node371&#45;&gt;Node372 -->
<g id="edge3" class="edge">
<title>Node371&#45;&gt;Node372</title>
<path fill="none" stroke="#191970" d="M530.7875,-456.2743C547.3175,-462.4672 567.5221,-469.9618 585.7129,-476.5 599.7037,-481.5286 615.3489,-486.9738 628.2139,-491.4045"/>
<polygon fill="#191970" stroke="#191970" points="531.6132,-452.8458 521.021,-452.6069 529.1523,-459.399 531.6132,-452.8458"/>
</g>
<!-- Node374 -->
<g id="node5" class="node">
<title>Node374</title>
<g id="a_node5"><a xlink:href="lifter_8c.html#aa4d172cbde795bc13fe6baabd074717e" target="_top" xlink:title="quit_auto_static">
<polygon fill="none" stroke="#000000" points="611.8335,-415.5 611.8335,-433.5 697.8823,-433.5 697.8823,-415.5 611.8335,-415.5"/>
<text text-anchor="middle" x="654.8579" y="-421.5" font-family="Helvetica,sans-Serif" font-size="10.00" fill="#000000">quit_auto_static</text>
</a>
</g>
</g>
<!-- Node371&#45;&gt;Node374 -->
<g id="edge4" class="edge">
<title>Node371&#45;&gt;Node374</title>
<path fill="none" stroke="#191970" d="M550.0444,-437.1128C570.1239,-434.6966 592.7134,-431.9782 611.7656,-429.6856"/>
<polygon fill="#191970" stroke="#191970" points="549.6214,-433.6384 540.1112,-438.3082 550.4578,-440.5883 549.6214,-433.6384"/>
</g>
<!-- Node375 -->
<g id="node6" class="node">
<title>Node375</title>
<g id="a_node6"><a xlink:href="lifter_8c.html#a8a64fa88b389b39c236c5c57a7fb5c67" target="_top" xlink:title="Autostacks a cone once picked up. ">
<polygon fill="none" stroke="#ff0000" points="760.0029,-396.5 760.0029,-414.5 854.9434,-414.5 854.9434,-396.5 760.0029,-396.5"/>
<text text-anchor="middle" x="807.4731" y="-402.5" font-family="Helvetica,sans-Serif" font-size="10.00" fill="#000000">autostack_routine</text>
</a>
</g>
</g>
<!-- Node371&#45;&gt;Node375 -->
<g id="edge6" class="edge">
<title>Node371&#45;&gt;Node375</title>
<path fill="none" stroke="#191970" d="M550.3658,-449.8249C596.8102,-453.8335 665.6298,-456.162 724.0029,-443.5 749.5222,-437.9645 776.6011,-423.9261 792.7683,-414.551"/>
<polygon fill="#191970" stroke="#191970" points="550.5047,-446.323 540.2262,-448.8923 549.8635,-453.2936 550.5047,-446.323"/>
</g>
<!-- Node374&#45;&gt;Node375 -->
<g id="edge5" class="edge">
<title>Node374&#45;&gt;Node375</title>
<path fill="none" stroke="#191970" d="M708.3623,-417.8389C725.0975,-415.7554 743.4441,-413.4714 759.7537,-411.4409"/>
<polygon fill="#191970" stroke="#191970" points="707.6741,-414.3975 698.1831,-419.1062 708.5389,-421.3439 707.6741,-414.3975"/>
</g>
<!-- Node377 -->
<g id="node8" class="node">
<title>Node377</title>
<g id="a_node8"><a xlink:href="auto_8c.html#a3c7ca506bbc071fa740de13805b7f376" target="_top" xlink:title="Runs the user autonomous code. ">
<polygon fill="none" stroke="#000000" points="771.9536,-114.5 771.9536,-132.5 842.9927,-132.5 842.9927,-114.5 771.9536,-114.5"/>
<text text-anchor="middle" x="807.4731" y="-120.5" font-family="Helvetica,sans-Serif" font-size="10.00" fill="#000000">autonomous</text>
</a>
</g>
</g>
<!-- Node376&#45;&gt;Node377 -->
<g id="edge8" class="edge">
<title>Node376&#45;&gt;Node377</title>
<path fill="none" stroke="#191970" d="M544.2695,-150.2239C557.6098,-147.3575 572.1769,-144.5207 585.7129,-142.5 650.8739,-132.7725 727.6061,-127.5744 771.5924,-125.1873"/>
<polygon fill="#191970" stroke="#191970" points="543.3584,-146.8406 534.3447,-152.4087 544.8633,-153.6769 543.3584,-146.8406"/>
</g>
<!-- Node378 -->
<g id="node9" class="node">
<title>Node378</title>
<g id="a_node9"><a xlink:href="lifter_8c.html#ac59fe6ffc80bab7f117ec0a8e482277b" target="_top" xlink:title="secondary_lifter_update">
<polygon fill="none" stroke="#ff0000" points="593.4888,-152.5 593.4888,-170.5 716.2271,-170.5 716.2271,-152.5 593.4888,-152.5"/>
<text text-anchor="middle" x="654.8579" y="-158.5" font-family="Helvetica,sans-Serif" font-size="10.00" fill="#000000">secondary_lifter_update</text>
</a>
</g>
</g>
<!-- Node376&#45;&gt;Node378 -->
<g id="edge9" class="edge">
<title>Node376&#45;&gt;Node378</title>
<path fill="none" stroke="#191970" d="M551.8268,-161.5C565.2524,-161.5 579.7059,-161.5 593.4175,-161.5"/>
<polygon fill="#191970" stroke="#191970" points="551.7898,-158.0001 541.7897,-161.5 551.7897,-165.0001 551.7898,-158.0001"/>
</g>
<!-- Node381&#45;&gt;Node374 -->
<g id="edge17" class="edge">
<title>Node381&#45;&gt;Node374</title>
<path fill="none" stroke="#191970" d="M507.5032,-296.6574C521.5146,-324.9953 548.8651,-372.6341 585.7129,-400.5 594.3277,-407.0149 604.8446,-411.8494 615.0508,-415.4011"/>
<polygon fill="#191970" stroke="#191970" points="510.592,-295.004 503.1098,-287.5029 504.2811,-298.0328 510.592,-295.004"/>
</g>
<!-- Node381&#45;&gt;Node375 -->
<g id="edge18" class="edge">
<title>Node381&#45;&gt;Node375</title>
<path fill="none" stroke="#191970" d="M511.705,-296.1029C527.3208,-318.0764 554.069,-350.5432 585.7129,-367.5 640.4559,-396.8347 712.7435,-404.389 759.6645,-405.9021"/>
<polygon fill="#191970" stroke="#191970" points="514.4592,-293.9315 505.9008,-287.6861 508.6965,-297.9054 514.4592,-293.9315"/>
</g>
<!-- Node381&#45;&gt;Node377 -->
<g id="edge16" class="edge">
<title>Node381&#45;&gt;Node377</title>
<path fill="none" stroke="#191970" d="M560.1427,-282.5959C608.4378,-286.3203 674.8552,-284.1943 724.0029,-254.5 772.0129,-225.4931 797.1101,-157.142 804.8336,-132.53"/>
<polygon fill="#191970" stroke="#191970" points="560.3917,-279.1045 550.1248,-281.7202 559.782,-286.0779 560.3917,-279.1045"/>
</g>
<!-- Node381&#45;&gt;Node378 -->
<g id="edge22" class="edge">
<title>Node381&#45;&gt;Node378</title>
<path fill="none" stroke="#191970" d="M527.1173,-253.3631C534.9191,-247.4442 543.0038,-240.6301 549.7129,-233.5 569.4794,-212.4932 562.2158,-196.2298 585.7129,-179.5 590.8664,-175.8308 596.7107,-172.9091 602.7662,-170.5828"/>
<polygon fill="#191970" stroke="#191970" points="524.8527,-250.6828 518.8409,-259.4069 528.9809,-256.336 524.8527,-250.6828"/>
</g>
<!-- Node382 -->
<g id="node12" class="node">
<title>Node382</title>
<g id="a_node12"><a xlink:href="auto_8c.html#a64bd65456b81f16eb4ff67237159f984" target="_top" xlink:title="utility function which deploys the secondary lifter at the start of autonomous. ">
<polygon fill="none" stroke="#000000" points="594.0479,-226.5 594.0479,-244.5 715.668,-244.5 715.668,-226.5 594.0479,-226.5"/>
<text text-anchor="middle" x="654.8579" y="-232.5" font-family="Helvetica,sans-Serif" font-size="10.00" fill="#000000">deploy_seoncdary_lifter</text>
</a>
</g>
</g>
<!-- Node381&#45;&gt;Node382 -->
<g id="edge12" class="edge">
<title>Node381&#45;&gt;Node382</title>
<path fill="none" stroke="#191970" d="M559.9699,-258.3369C579.3538,-253.6717 600.0757,-248.6846 617.1942,-244.5646"/>
<polygon fill="#191970" stroke="#191970" points="558.8849,-254.998 549.9815,-260.7408 560.5229,-261.8037 558.8849,-254.998"/>
</g>
<!-- Node383 -->
<g id="node13" class="node">
<title>Node383</title>
<g id="a_node13"><a xlink:href="auto_8c.html#a55085901854f29969753bfd62c70049c" target="_top" xlink:title="utility function which raises the second lifter to its maximum height ">
<polygon fill="none" stroke="#000000" points="585.7129,-189.5 585.7129,-207.5 724.0029,-207.5 724.0029,-189.5 585.7129,-189.5"/>
<text text-anchor="middle" x="654.8579" y="-195.5" font-family="Helvetica,sans-Serif" font-size="10.00" fill="#000000">auton_raise_sec_lifter_max</text>
</a>
</g>
</g>
<!-- Node381&#45;&gt;Node383 -->
<g id="edge14" class="edge">
<title>Node381&#45;&gt;Node383</title>
<path fill="none" stroke="#191970" d="M523.3514,-253.3927C540.3762,-241.2385 563.4305,-226.2589 585.7129,-216.5 593.7802,-212.9668 602.6913,-210.0088 611.3576,-207.5789"/>
<polygon fill="#191970" stroke="#191970" points="521.0582,-250.7328 515.0341,-259.4484 525.1785,-256.3918 521.0582,-250.7328"/>
</g>
<!-- Node384 -->
<g id="node14" class="node">
<title>Node384</title>
<g id="a_node14"><a xlink:href="lifter_8c.html#a786f679ea48bb8c80e00fbac9a69911b" target="_top" xlink:title="Raises the main lifter. ">
<polygon fill="none" stroke="#000000" points="597.9443,-339.5 597.9443,-357.5 711.7715,-357.5 711.7715,-339.5 597.9443,-339.5"/>
<text text-anchor="middle" x="654.8579" y="-345.5" font-family="Helvetica,sans-Serif" font-size="10.00" fill="#000000">raise_secondary_lifter</text>
</a>
</g>
</g>
<!-- Node381&#45;&gt;Node384 -->
<g id="edge19" class="edge">
<title>Node381&#45;&gt;Node384</title>
<path fill="none" stroke="#191970" d="M523.3514,-293.6073C540.3762,-305.7615 563.4305,-320.7411 585.7129,-330.5 593.7802,-334.0332 602.6913,-336.9912 611.3576,-339.4211"/>
<polygon fill="#191970" stroke="#191970" points="525.1785,-290.6082 515.0341,-287.5516 521.0582,-296.2672 525.1785,-290.6082"/>
</g>
<!-- Node385 -->
<g id="node15" class="node">
<title>Node385</title>
<g id="a_node15"><a xlink:href="lifter_8c.html#af76abbd394bf206ab56fa237d776f2b3" target="_top" xlink:title="Lowers the secondary lifter. ">
<polygon fill="none" stroke="#000000" points="596.8335,-302.5 596.8335,-320.5 712.8823,-320.5 712.8823,-302.5 596.8335,-302.5"/>
<text text-anchor="middle" x="654.8579" y="-308.5" font-family="Helvetica,sans-Serif" font-size="10.00" fill="#000000">lower_secondary_lifter</text>
</a>
</g>
</g>
<!-- Node381&#45;&gt;Node385 -->
<g id="edge21" class="edge">
<title>Node381&#45;&gt;Node385</title>
<path fill="none" stroke="#191970" d="M559.9699,-288.6631C579.3538,-293.3283 600.0757,-298.3154 617.1942,-302.4354"/>
<polygon fill="#191970" stroke="#191970" points="560.5229,-285.1963 549.9815,-286.2592 558.8849,-292.002 560.5229,-285.1963"/>
</g>
<!-- Node382&#45;&gt;Node377 -->
<g id="edge13" class="edge">
<title>Node382&#45;&gt;Node377</title>
<path fill="none" stroke="#191970" d="M711.6904,-222.8072C715.9874,-220.9751 720.1463,-218.8845 724.0029,-216.5 760.1709,-194.1378 789.8854,-151.5028 801.8273,-132.7461"/>
<polygon fill="#191970" stroke="#191970" points="710.2453,-219.6116 702.1265,-226.4186 712.7182,-226.1602 710.2453,-219.6116"/>
</g>
<!-- Node383&#45;&gt;Node377 -->
<g id="edge15" class="edge">
<title>Node383&#45;&gt;Node377</title>
<path fill="none" stroke="#191970" d="M705.9315,-186.4916C712.1281,-184.4457 718.2836,-182.1199 724.0029,-179.5 752.0844,-166.6367 781.2368,-144.7905 796.5551,-132.5323"/>
<polygon fill="#191970" stroke="#191970" points="704.7469,-183.1941 696.2168,-189.4781 706.8039,-189.885 704.7469,-183.1941"/>
</g>
<!-- Node384&#45;&gt;Node375 -->
<g id="edge20" class="edge">
<title>Node384&#45;&gt;Node375</title>
<path fill="none" stroke="#191970" d="M691.5975,-360.9279C702.097,-364.5673 713.5304,-368.6143 724.0029,-372.5 744.8946,-380.2515 768.4913,-389.64 785.2523,-396.418"/>
<polygon fill="#191970" stroke="#191970" points="692.4736,-357.528 681.8789,-357.5821 690.1949,-364.1468 692.4736,-357.528"/>
</g>
<!-- Node386&#45;&gt;Node377 -->
<g id="edge24" class="edge">
<title>Node386&#45;&gt;Node377</title>
<path fill="none" stroke="#191970" d="M553.3315,-57.4233C600.1273,-52.0141 667.8652,-49.1609 724.0029,-66.5 754.5176,-75.925 783.8328,-100.7584 798.2309,-114.3278"/>
<polygon fill="#191970" stroke="#191970" points="552.8789,-53.9525 543.3816,-58.6484 553.7344,-60.9001 552.8789,-53.9525"/>
</g>
<!-- Node387 -->
<g id="node17" class="node">
<title>Node387</title>
<g id="a_node17"><a xlink:href="mobile__goal__intake_8c.html#aef03134014e51a6a90dd3824f09f4d6c" target="_top" xlink:title="lowers the intake ">
<polygon fill="none" stroke="#ff0000" points="618.7866,-.5 618.7866,-18.5 690.9292,-18.5 690.9292,-.5 618.7866,-.5"/>
<text text-anchor="middle" x="654.8579" y="-6.5" font-family="Helvetica,sans-Serif" font-size="10.00" fill="#000000">lower_intake</text>
</a>
</g>
</g>
<!-- Node386&#45;&gt;Node387 -->
<g id="edge25" class="edge">
<title>Node386&#45;&gt;Node387</title>
<path fill="none" stroke="#191970" d="M530.7875,-53.7257C547.3175,-47.5328 567.5221,-40.0382 585.7129,-33.5 599.7037,-28.4714 615.3489,-23.0262 628.2139,-18.5955"/>
<polygon fill="#191970" stroke="#191970" points="529.1523,-50.601 521.021,-57.3931 531.6132,-57.1542 529.1523,-50.601"/>
</g>
<!-- Node389 -->
<g id="node18" class="node">
<title>Node389</title>
<g id="a_node18"><a xlink:href="mobile__goal__intake_8c.html#aa46a9341d1eb7b39a2ef4cc5079ee3ca" target="_top" xlink:title="raises the intake ">
<polygon fill="none" stroke="#ff0000" points="619.8975,-76.5 619.8975,-94.5 689.8184,-94.5 689.8184,-76.5 619.8975,-76.5"/>
<text text-anchor="middle" x="654.8579" y="-82.5" font-family="Helvetica,sans-Serif" font-size="10.00" fill="#000000">raise_intake</text>
</a>
</g>
</g>
<!-- Node386&#45;&gt;Node389 -->
<g id="edge27" class="edge">
<title>Node386&#45;&gt;Node389</title>
<path fill="none" stroke="#191970" d="M553.435,-73.2952C575.5439,-75.9557 600.2185,-78.9249 619.6942,-81.2685"/>
<polygon fill="#191970" stroke="#191970" points="553.8319,-69.8178 543.4854,-72.0979 552.9955,-76.7676 553.8319,-69.8178"/>
</g>
<!-- Node387&#45;&gt;Node377 -->
<g id="edge26" class="edge">
<title>Node387&#45;&gt;Node377</title>
<path fill="none" stroke="#191970" d="M700.6746,-21.8385C708.7796,-25.0002 716.8915,-28.8555 724.0029,-33.5 758.7955,-56.2232 789.0145,-96.5484 801.4403,-114.4757"/>
<polygon fill="#191970" stroke="#191970" points="701.818,-18.5303 691.2235,-18.44 699.4493,-25.1174 701.818,-18.5303"/>
</g>
<!-- Node389&#45;&gt;Node377 -->
<g id="edge28" class="edge">
<title>Node389&#45;&gt;Node377</title>
<path fill="none" stroke="#191970" d="M699.7381,-96.6748C722.7246,-102.3983 750.3213,-109.2696 771.8294,-114.625"/>
<polygon fill="#191970" stroke="#191970" points="700.4203,-93.2379 689.8709,-94.218 698.729,-100.0305 700.4203,-93.2379"/>
</g>
<!-- Node391 -->
<g id="node20" class="node">
<title>Node391</title>
<g id="a_node20"><a xlink:href="slew_8c.html#a321758941d88b75783955c819bb75005" target="_top" xlink:title="Initializes the slew rate controller. ">
<polygon fill="none" stroke="#ff0000" points="205.7188,-186.5 205.7188,-204.5 260.0684,-204.5 260.0684,-186.5 205.7188,-186.5"/>
<text text-anchor="middle" x="232.8936" y="-192.5" font-family="Helvetica,sans-Serif" font-size="10.00" fill="#000000">init_slew</text>
</a>
</g>
</g>
<!-- Node390&#45;&gt;Node391 -->
<g id="edge30" class="edge">
<title>Node390&#45;&gt;Node391</title>
<path fill="none" stroke="#191970" d="M180.1081,-195.5C188.8853,-195.5 197.7384,-195.5 205.6205,-195.5"/>
<polygon fill="#191970" stroke="#191970" points="179.9021,-192.0001 169.902,-195.5 179.902,-199.0001 179.9021,-192.0001"/>
</g>
<!-- Node391&#45;&gt;Node370 -->
<g id="edge31" class="edge">
<title>Node391&#45;&gt;Node370</title>
<path fill="none" stroke="#191970" d="M270.1416,-201.4347C278.2668,-202.7292 287.0406,-204.1271 295.7234,-205.5105"/>
<polygon fill="#191970" stroke="#191970" points="270.6783,-197.9761 260.2521,-199.859 269.5768,-204.8889 270.6783,-197.9761"/>
</g>
</g>
</svg>
        <g id="navigator" transform="translate(0 0)" fill="#404254">
                <rect fill="#f2f5e9" fill-opacity="0.5" stroke="#606060" stroke-width=".5" x="0" y="0" width="60" height="60"/>
                <use id="zoomplus" xlink:href="#zoomPlus" x="17" y="9" onmousedown="handleZoom(evt,'in')"/>
                <use id="zoomminus" xlink:href="#zoomMin" x="42" y="9" onmousedown="handleZoom(evt,'out')"/>
                <use id="reset" xlink:href="#resetDef" x="30" y="36" onmousedown="handleReset()"/>
                <g id="arrowUp" xlink:href="#dirArrow" transform="translate(30 24)" onmousedown="handlePan(0,-1)">
                  <use xlink:href="#rim" fill="#404040">
                        <set attributeName="fill" to="#808080" begin="arrowUp.mouseover" end="arrowUp.mouseout"/>
                  </use>
                  <path fill="none" stroke="white" stroke-width="1.5" d="M0,-3.0v7 M-2.5,-0.5L0,-3.0L2.5,-0.5"/>
                </g>
                <g id="arrowRight" xlink:href="#dirArrow" transform="rotate(90) translate(36 -43)" onmousedown="handlePan(1,0)">
                  <use xlink:href="#rim" fill="#404040">
                        <set attributeName="fill" to="#808080" begin="arrowRight.mouseover" end="arrowRight.mouseout"/>
                  </use>
                  <path fill="none" stroke="white" stroke-width="1.5" d="M0,-3.0v7 M-2.5,-0.5L0,-3.0L2.5,-0.5"/>
                </g>
                <g id="arrowDown" xlink:href="#dirArrow" transform="rotate(180) translate(-30 -48)" onmousedown="handlePan(0,1)">
                  <use xlink:href="#rim" fill="#404040">
                        <set attributeName="fill" to="#808080" begin="arrowDown.mouseover" end="arrowDown.mouseout"/>
                  </use>
                  <path fill="none" stroke="white" stroke-width="1.5" d="M0,-3.0v7 M-2.5,-0.5L0,-3.0L2.5,-0.5"/>
                </g>
                <g id="arrowLeft" xlink:href="#dirArrow" transform="rotate(270) translate(-36 17)" onmousedown="handlePan(-1,0)">
                  <use xlink:href="#rim" fill="#404040">
                        <set attributeName="fill" to="#808080" begin="arrowLeft.mouseover" end="arrowLeft.mouseout"/>
                  </use>
                  <path fill="none" stroke="white" stroke-width="1.5" d="M0,-3.0v7 M-2.5,-0.5L0,-3.0L2.5,-0.5"/>
                </g>
        </g>
        <svg viewBox="0 0 15 15" width="100%" height="30px" preserveAspectRatio="xMaxYMin meet">
         <g id="arrow_out" transform="scale(0.3 0.3)">
          <a xlink:href="_a_p_i_8h_a03c5b04b472d024281f62d7af8854a8e_icgraph_org.svg" target="_base">
           <rect id="button" ry="5" rx="5" y="6" x="6" height="38" width="38"
                fill="#f2f5e9" fill-opacity="0.5" stroke="#606060" stroke-width="1.0"/>
           <path id="arrow"
             d="M 11.500037,31.436501 C 11.940474,20.09759 22.043105,11.32322 32.158766,21.979434 L 37.068811,17.246167 C 37.068811,17.246167 37.088388,32 37.088388,32 L 22.160133,31.978069 C 22.160133,31.978069 26.997745,27.140456 26.997745,27.140456 C 18.528582,18.264221 13.291696,25.230495 11.500037,31.436501 z"
             style="fill:#404040;"/>
          </a>
         </g>
        </svg>
</svg>
