<?xml version="1.0" encoding="UTF-8" standalone="no"?>
<!DOCTYPE svg PUBLIC "-//W3C//DTD SVG 1.1//EN"
 "http://www.w3.org/Graphics/SVG/1.1/DTD/svg11.dtd">
<!-- Generated by graphviz version 2.40.1 (20161225.0304)
 -->
<!-- Title: joystickGetDigital Pages: 1 -->
<svg width="330pt" height="64pt"
 viewBox="0.00 0.00 330.32 64.00" xmlns="http://www.w3.org/2000/svg" xmlns:xlink="http://www.w3.org/1999/xlink">
<g id="graph0" class="graph" transform="scale(1 1) rotate(0) translate(4 60)">
<title>joystickGetDigital</title>
<!-- Node122 -->
<g id="node1" class="node">
<title>Node122</title>
<polygon fill="#bfbfbf" stroke="#000000" points="0,-18.5 0,-36.5 92.6895,-36.5 92.6895,-18.5 0,-18.5"/>
<text text-anchor="middle" x="46.3447" y="-24.5" font-family="Helvetica,sans-Serif" font-size="10.00" fill="#000000">joystickGetDigital</text>
</g>
<!-- Node123 -->
<g id="node2" class="node">
<title>Node123</title>
<g id="a_node2"><a xlink:href="claw_8c.html#a0122b78972344264b8a276a559cfce4a" target="_top" xlink:title="update_claw">
<polygon fill="none" stroke="#000000" points="128.6895,-37.5 128.6895,-55.5 200.8418,-55.5 200.8418,-37.5 128.6895,-37.5"/>
<text text-anchor="middle" x="164.7656" y="-43.5" font-family="Helvetica,sans-Serif" font-size="10.00" fill="#000000">update_claw</text>
</a>
</g>
</g>
<!-- Node122&#45;&gt;Node123 -->
<g id="edge1" class="edge">
<title>Node122&#45;&gt;Node123</title>
<path fill="none" stroke="#191970" d="M102.7085,-36.5433C111.5469,-37.9613 120.47,-39.393 128.6877,-40.7115"/>
<polygon fill="#191970" stroke="#191970" points="103.2361,-33.0832 92.8079,-34.9548 102.1271,-39.9948 103.2361,-33.0832"/>
</g>
<!-- Node125 -->
<g id="node4" class="node">
<title>Node125</title>
<g id="a_node4"><a xlink:href="lifter_8c.html#a59bb7413777ca16aba124aaedf95c79b" target="_top" xlink:title="update_lifter">
<polygon fill="none" stroke="#000000" points="129.2461,-.5 129.2461,-18.5 200.2852,-18.5 200.2852,-.5 129.2461,-.5"/>
<text text-anchor="middle" x="164.7656" y="-6.5" font-family="Helvetica,sans-Serif" font-size="10.00" fill="#000000">update_lifter</text>
</a>
</g>
</g>
<!-- Node122&#45;&gt;Node125 -->
<g id="edge3" class="edge">
<title>Node122&#45;&gt;Node125</title>
<path fill="none" stroke="#191970" d="M102.817,-18.9162C111.7521,-17.5581 120.7705,-16.1873 129.056,-14.9279"/>
<polygon fill="#191970" stroke="#191970" points="102.1684,-15.4745 92.8079,-20.4376 103.2204,-22.395 102.1684,-15.4745"/>
</g>
<!-- Node124 -->
<g id="node3" class="node">
<title>Node124</title>
<g id="a_node3"><a xlink:href="opcontrol_8c.html#ac71a94af413917f27d108e95c4d6f6a7" target="_top" xlink:title="operatorControl">
<polygon fill="none" stroke="#000000" points="236.8418,-18.5 236.8418,-36.5 322.3242,-36.5 322.3242,-18.5 236.8418,-18.5"/>
<text text-anchor="middle" x="279.583" y="-24.5" font-family="Helvetica,sans-Serif" font-size="10.00" fill="#000000">operatorControl</text>
</a>
</g>
</g>
<!-- Node123&#45;&gt;Node124 -->
<g id="edge2" class="edge">
<title>Node123&#45;&gt;Node124</title>
<path fill="none" stroke="#191970" d="M211.1598,-38.8227C219.5874,-37.4281 228.3441,-35.979 236.666,-34.6019"/>
<polygon fill="#191970" stroke="#191970" points="210.389,-35.4026 201.0946,-40.4883 211.5318,-42.3086 210.389,-35.4026"/>
</g>
<!-- Node125&#45;&gt;Node124 -->
<g id="edge4" class="edge">
<title>Node125&#45;&gt;Node124</title>
<path fill="none" stroke="#191970" d="M210.4008,-16.6543C219.0529,-18.0107 228.0778,-19.4255 236.643,-20.7683"/>
<polygon fill="#191970" stroke="#191970" points="210.8866,-13.1878 200.4652,-15.0966 209.8024,-20.1033 210.8866,-13.1878"/>
</g>
</g>
</svg>
