<?xml version="1.0" encoding="UTF-8" standalone="no"?>
<!DOCTYPE svg PUBLIC "-//W3C//DTD SVG 1.1//EN"
 "http://www.w3.org/Graphics/SVG/1.1/DTD/svg11.dtd">
<!-- Generated by graphviz version 2.40.1 (20161225.0304)
 -->
<!-- Title: mutexGive Pages: 1 -->
<svg width="882pt" height="460pt"
 viewBox="0.00 0.00 881.83 459.55" xmlns="http://www.w3.org/2000/svg" xmlns:xlink="http://www.w3.org/1999/xlink">
<g id="graph0" class="graph" transform="scale(1 1) rotate(0) translate(4 455.5547)">
<title>mutexGive</title>
<!-- Node476 -->
<g id="node1" class="node">
<title>Node476</title>
<polygon fill="#bfbfbf" stroke="#000000" points="0,-230.909 0,-248.909 63.793,-248.909 63.793,-230.909 0,-230.909"/>
<text text-anchor="middle" x="31.8965" y="-236.909" font-family="Helvetica,sans-Serif" font-size="10.00" fill="#000000">mutexGive</text>
</g>
<!-- Node477 -->
<g id="node2" class="node">
<title>Node477</title>
<g id="a_node2"><a xlink:href="slew_8c.html#a9f8b8ae577ef938622024545711f0151" target="_top" xlink:title="Sets the motor speed ignoring the slew controller. ">
<polygon fill="none" stroke="#000000" points="303.29,-211.909 303.29,-229.909 415.4424,-229.909 415.4424,-211.909 303.29,-211.909"/>
<text text-anchor="middle" x="359.3662" y="-217.909" font-family="Helvetica,sans-Serif" font-size="10.00" fill="#000000">set_motor_immediate</text>
</a>
</g>
</g>
<!-- Node476&#45;&gt;Node477 -->
<g id="edge1" class="edge">
<title>Node476&#45;&gt;Node477</title>
<path fill="none" stroke="#191970" d="M69.4816,-228.1192C79.2525,-225.5599 89.8333,-223.2263 99.793,-221.909 169.3759,-212.7057 250.3712,-214.3308 303.1364,-217.015"/>
<polygon fill="#191970" stroke="#191970" points="68.3594,-224.798 59.6527,-230.8348 70.2237,-231.5452 68.3594,-224.798"/>
</g>
<!-- Node497 -->
<g id="node16" class="node">
<title>Node497</title>
<g id="a_node16"><a xlink:href="slew_8c.html#a7dff2b79dffe55fb936d977594d7c01d" target="_top" xlink:title="Sets motor speed wrapped inside the slew rate controller. ">
<polygon fill="none" stroke="#000000" points="316.3516,-248.909 316.3516,-266.909 402.3809,-266.909 402.3809,-248.909 316.3516,-248.909"/>
<text text-anchor="middle" x="359.3662" y="-254.909" font-family="Helvetica,sans-Serif" font-size="10.00" fill="#000000">set_motor_slew</text>
</a>
</g>
</g>
<!-- Node476&#45;&gt;Node497 -->
<g id="edge24" class="edge">
<title>Node476&#45;&gt;Node497</title>
<path fill="none" stroke="#191970" d="M67.8044,-251.9238C78.0218,-254.8024 89.2428,-257.4607 99.793,-258.909 175.2454,-269.2673 264.2007,-265.5136 315.9482,-261.766"/>
<polygon fill="#191970" stroke="#191970" points="68.5662,-248.499 57.9836,-249.0084 66.5741,-255.2096 68.5662,-248.499"/>
</g>
<!-- Node507 -->
<g id="node19" class="node">
<title>Node507</title>
<g id="a_node19"><a xlink:href="slew_8c.html#a807a87c5df438fde21c1e8213906695b" target="_top" xlink:title="Closes the distance between the desired motor value and the current motor value by half for each moto...">
<polygon fill="none" stroke="#000000" points="99.793,-230.909 99.793,-248.909 176.9404,-248.909 176.9404,-230.909 99.793,-230.909"/>
<text text-anchor="middle" x="138.3667" y="-236.909" font-family="Helvetica,sans-Serif" font-size="10.00" fill="#000000">updateMotors</text>
</a>
</g>
</g>
<!-- Node476&#45;&gt;Node507 -->
<g id="edge30" class="edge">
<title>Node476&#45;&gt;Node507</title>
<path fill="none" stroke="#191970" d="M73.9352,-239.909C82.4228,-239.909 91.3081,-239.909 99.6744,-239.909"/>
<polygon fill="#191970" stroke="#191970" points="73.8411,-236.4091 63.8411,-239.909 73.841,-243.4091 73.8411,-236.4091"/>
</g>
<!-- Node478 -->
<g id="node3" class="node">
<title>Node478</title>
<g id="a_node3"><a xlink:href="claw_8c.html#a3a57f998b1884d39b0cc786689f7086f" target="_top" xlink:title="sets the claw motor speed ">
<polygon fill="none" stroke="#000000" points="467.0039,-41.909 467.0039,-59.909 553.0332,-59.909 553.0332,-41.909 467.0039,-41.909"/>
<text text-anchor="middle" x="510.0186" y="-47.909" font-family="Helvetica,sans-Serif" font-size="10.00" fill="#000000">set_claw_motor</text>
</a>
</g>
</g>
<!-- Node477&#45;&gt;Node478 -->
<g id="edge2" class="edge">
<title>Node477&#45;&gt;Node478</title>
<path fill="none" stroke="#191970" d="M371.7924,-203.5919C388.791,-180.3068 420.7026,-138.007 451.4424,-104.909 467.0673,-88.0855 487.0582,-70.3745 499.1832,-60.0008"/>
<polygon fill="#191970" stroke="#191970" points="368.8828,-201.6423 365.849,-211.7936 374.551,-205.7499 368.8828,-201.6423"/>
</g>
<!-- Node483 -->
<g id="node7" class="node">
<title>Node483</title>
<g id="a_node7"><a xlink:href="claw_8c.html#a3a6168bf4e2042115dd32542f1f6a2f5" target="_top" xlink:title="Drives the motors to grab a cone. ">
<polygon fill="none" stroke="#000000" points="465.605,-324.909 465.605,-342.909 554.4321,-342.909 554.4321,-324.909 465.605,-324.909"/>
<text text-anchor="middle" x="510.0186" y="-330.909" font-family="Helvetica,sans-Serif" font-size="10.00" fill="#000000">claw_grab_cone</text>
</a>
</g>
</g>
<!-- Node477&#45;&gt;Node483 -->
<g id="edge7" class="edge">
<title>Node477&#45;&gt;Node483</title>
<path fill="none" stroke="#191970" d="M403.8245,-233.826C407.8677,-235.6336 411.8048,-237.6562 415.4424,-239.909 454.0174,-263.7998 488.9632,-306.2089 503.2251,-324.7758"/>
<polygon fill="#191970" stroke="#191970" points="404.8728,-230.4753 394.289,-229.9912 402.2609,-236.9697 404.8728,-230.4753"/>
</g>
<!-- Node487 -->
<g id="node10" class="node">
<title>Node487</title>
<g id="a_node10"><a xlink:href="claw_8c.html#aecaa4eedc34d6b164ee17ed104914227" target="_top" xlink:title="Drives the motors to release a cone. ">
<polygon fill="none" stroke="#000000" points="459.2134,-114.909 459.2134,-132.909 560.8237,-132.909 560.8237,-114.909 459.2134,-114.909"/>
<text text-anchor="middle" x="510.0186" y="-120.909" font-family="Helvetica,sans-Serif" font-size="10.00" fill="#000000">claw_release_cone</text>
</a>
</g>
</g>
<!-- Node477&#45;&gt;Node487 -->
<g id="edge10" class="edge">
<title>Node477&#45;&gt;Node487</title>
<path fill="none" stroke="#191970" d="M374.5329,-204.3411C391.6357,-186.5718 421.0469,-158.6574 451.4424,-141.909 457.9649,-138.315 465.3,-135.3407 472.5157,-132.9158"/>
<polygon fill="#191970" stroke="#191970" points="371.8943,-202.0376 367.5816,-211.7149 376.9879,-206.8393 371.8943,-202.0376"/>
</g>
<!-- Node488 -->
<g id="node11" class="node">
<title>Node488</title>
<g id="a_node11"><a xlink:href="lifter_8c.html#a78640d547d9361951a92d0bc00939536" target="_top" xlink:title="Sets the secondary lifter motors to the given value. ">
<polygon fill="none" stroke="#ff0000" points="457.2725,-206.909 457.2725,-234.909 562.7646,-234.909 562.7646,-206.909 457.2725,-206.909"/>
<text text-anchor="start" x="465.2725" y="-222.909" font-family="Helvetica,sans-Serif" font-size="10.00" fill="#000000">set_secondary_lifter</text>
<text text-anchor="middle" x="510.0186" y="-212.909" font-family="Helvetica,sans-Serif" font-size="10.00" fill="#000000">_motors</text>
</a>
</g>
</g>
<!-- Node477&#45;&gt;Node488 -->
<g id="edge11" class="edge">
<title>Node477&#45;&gt;Node488</title>
<path fill="none" stroke="#191970" d="M425.7648,-220.909C436.173,-220.909 446.8117,-220.909 456.8711,-220.909"/>
<polygon fill="#191970" stroke="#191970" points="425.4636,-217.4091 415.4636,-220.909 425.4635,-224.4091 425.4636,-217.4091"/>
</g>
<!-- Node493 -->
<g id="node15" class="node">
<title>Node493</title>
<g id="a_node15"><a xlink:href="mobile__goal__intake_8c.html#ab31e12bb0fa46c77906a048666b699d5" target="_top" xlink:title="sets the intake motor ">
<polygon fill="none" stroke="#ff0000" points="627.3853,-400.909 627.3853,-418.909 720.0942,-418.909 720.0942,-400.909 627.3853,-400.909"/>
<text text-anchor="middle" x="673.7397" y="-406.909" font-family="Helvetica,sans-Serif" font-size="10.00" fill="#000000">set_intake_motor</text>
</a>
</g>
</g>
<!-- Node477&#45;&gt;Node493 -->
<g id="edge22" class="edge">
<title>Node477&#45;&gt;Node493</title>
<path fill="none" stroke="#191970" d="M409.5605,-234.9331C411.6683,-236.427 413.6465,-238.08 415.4424,-239.909 452.3715,-277.519 413.1169,-316.723 451.4424,-352.909 499.0971,-397.9034 577.2961,-408.6086 627.1083,-410.5132"/>
<polygon fill="#191970" stroke="#191970" points="411.3077,-231.9004 400.8988,-229.924 407.8033,-237.9601 411.3077,-231.9004"/>
</g>
<!-- Node479 -->
<g id="node4" class="node">
<title>Node479</title>
<g id="a_node4"><a xlink:href="claw_8c.html#a0122b78972344264b8a276a559cfce4a" target="_top" xlink:title="Updates the claw motor values. ">
<polygon fill="none" stroke="#ff0000" points="637.6636,-22.909 637.6636,-40.909 709.8159,-40.909 709.8159,-22.909 637.6636,-22.909"/>
<text text-anchor="middle" x="673.7397" y="-28.909" font-family="Helvetica,sans-Serif" font-size="10.00" fill="#000000">update_claw</text>
</a>
</g>
</g>
<!-- Node478&#45;&gt;Node479 -->
<g id="edge3" class="edge">
<title>Node478&#45;&gt;Node479</title>
<path fill="none" stroke="#191970" d="M563.2086,-44.7363C587.5724,-41.9088 615.8145,-38.6313 637.6521,-36.097"/>
<polygon fill="#191970" stroke="#191970" points="562.5642,-41.2875 553.0344,-45.917 563.3712,-48.2408 562.5642,-41.2875"/>
</g>
<!-- Node481 -->
<g id="node5" class="node">
<title>Node481</title>
<g id="a_node5"><a xlink:href="lifter_8c.html#aa4d172cbde795bc13fe6baabd074717e" target="_top" xlink:title="quit_auto_static">
<polygon fill="none" stroke="#000000" points="630.7153,-98.909 630.7153,-116.909 716.7642,-116.909 716.7642,-98.909 630.7153,-98.909"/>
<text text-anchor="middle" x="673.7397" y="-104.909" font-family="Helvetica,sans-Serif" font-size="10.00" fill="#000000">quit_auto_static</text>
</a>
</g>
</g>
<!-- Node478&#45;&gt;Node481 -->
<g id="edge4" class="edge">
<title>Node478&#45;&gt;Node481</title>
<path fill="none" stroke="#191970" d="M545.4486,-63.2441C576.199,-73.9499 620.0089,-89.2025 647.6485,-98.8253"/>
<polygon fill="#191970" stroke="#191970" points="546.5555,-59.9235 535.9607,-59.9408 544.2539,-66.5343 546.5555,-59.9235"/>
</g>
<!-- Node482 -->
<g id="node6" class="node">
<title>Node482</title>
<g id="a_node6"><a xlink:href="lifter_8c.html#a8a64fa88b389b39c236c5c57a7fb5c67" target="_top" xlink:title="Autostacks a cone once picked up. ">
<polygon fill="none" stroke="#ff0000" points="778.8848,-98.909 778.8848,-116.909 873.8252,-116.909 873.8252,-98.909 778.8848,-98.909"/>
<text text-anchor="middle" x="826.355" y="-104.909" font-family="Helvetica,sans-Serif" font-size="10.00" fill="#000000">autostack_routine</text>
</a>
</g>
</g>
<!-- Node478&#45;&gt;Node482 -->
<g id="edge6" class="edge">
<title>Node478&#45;&gt;Node482</title>
<path fill="none" stroke="#191970" d="M536.2038,-37.3447C580.684,-16.285 672.9733,18.728 742.8848,-12.909 782.8892,-31.0122 811.3329,-78.8126 821.8627,-98.859"/>
<polygon fill="#191970" stroke="#191970" points="534.4183,-34.3213 526.9624,-41.8486 537.4851,-40.6138 534.4183,-34.3213"/>
</g>
<!-- Node481&#45;&gt;Node482 -->
<g id="edge5" class="edge">
<title>Node481&#45;&gt;Node482</title>
<path fill="none" stroke="#191970" d="M727.2441,-107.909C743.9794,-107.909 762.3259,-107.909 778.6356,-107.909"/>
<polygon fill="#191970" stroke="#191970" points="727.065,-104.4091 717.0649,-107.909 727.0649,-111.4091 727.065,-104.4091"/>
</g>
<!-- Node484 -->
<g id="node8" class="node">
<title>Node484</title>
<g id="a_node8"><a xlink:href="auto_8c.html#a3c7ca506bbc071fa740de13805b7f376" target="_top" xlink:title="Runs the user autonomous code. ">
<polygon fill="none" stroke="#000000" points="790.8354,-324.909 790.8354,-342.909 861.8745,-342.909 861.8745,-324.909 790.8354,-324.909"/>
<text text-anchor="middle" x="826.355" y="-330.909" font-family="Helvetica,sans-Serif" font-size="10.00" fill="#000000">autonomous</text>
</a>
</g>
</g>
<!-- Node483&#45;&gt;Node484 -->
<g id="edge8" class="edge">
<title>Node483&#45;&gt;Node484</title>
<path fill="none" stroke="#191970" d="M555.933,-345.035C571.305,-348.2497 588.5999,-351.3183 604.5947,-352.909 665.7552,-358.9917 681.807,-359.7727 742.8848,-352.909 760.1646,-350.9672 779.0846,-346.8316 794.5363,-342.9132"/>
<polygon fill="#191970" stroke="#191970" points="556.6562,-341.6106 546.1421,-342.9155 555.1751,-348.4521 556.6562,-341.6106"/>
</g>
<!-- Node485 -->
<g id="node9" class="node">
<title>Node485</title>
<g id="a_node9"><a xlink:href="lifter_8c.html#ac59fe6ffc80bab7f117ec0a8e482277b" target="_top" xlink:title="secondary_lifter_update">
<polygon fill="none" stroke="#ff0000" points="612.3706,-324.909 612.3706,-342.909 735.1089,-342.909 735.1089,-324.909 612.3706,-324.909"/>
<text text-anchor="middle" x="673.7397" y="-330.909" font-family="Helvetica,sans-Serif" font-size="10.00" fill="#000000">secondary_lifter_update</text>
</a>
</g>
</g>
<!-- Node483&#45;&gt;Node485 -->
<g id="edge9" class="edge">
<title>Node483&#45;&gt;Node485</title>
<path fill="none" stroke="#191970" d="M564.9952,-333.909C580.1471,-333.909 596.6811,-333.909 612.1791,-333.909"/>
<polygon fill="#191970" stroke="#191970" points="564.7561,-330.4091 554.7561,-333.909 564.7561,-337.4091 564.7561,-330.4091"/>
</g>
<!-- Node488&#45;&gt;Node481 -->
<g id="edge17" class="edge">
<title>Node488&#45;&gt;Node481</title>
<path fill="none" stroke="#191970" d="M542.7514,-201.1847C551.6707,-194.9904 560.9669,-187.7119 568.5947,-179.909 588.7582,-159.2829 581.0976,-142.6389 604.5947,-125.909 612.2744,-120.4411 621.4883,-116.6334 630.6487,-113.982"/>
<polygon fill="#191970" stroke="#191970" points="540.7551,-198.3091 534.3822,-206.7729 544.6422,-204.1306 540.7551,-198.3091"/>
</g>
<!-- Node488&#45;&gt;Node482 -->
<g id="edge18" class="edge">
<title>Node488&#45;&gt;Node482</title>
<path fill="none" stroke="#191970" d="M572.6672,-208.1593C630.7971,-195.863 712.7365,-177.2097 742.8848,-163.909 771.1442,-151.4416 800.2285,-129.4439 815.4878,-117.0545"/>
<polygon fill="#191970" stroke="#191970" points="571.8981,-204.7444 562.8323,-210.2272 573.3385,-211.5946 571.8981,-204.7444"/>
</g>
<!-- Node488&#45;&gt;Node484 -->
<g id="edge16" class="edge">
<title>Node488&#45;&gt;Node484</title>
<path fill="none" stroke="#191970" d="M538.572,-240.7133C556.7827,-252.5976 581.2671,-267.2356 604.5947,-276.909 638.1931,-290.8415 737.0762,-313.982 790.7384,-326.0464"/>
<polygon fill="#191970" stroke="#191970" points="540.4358,-237.7495 530.1688,-235.1342 536.5639,-243.5812 540.4358,-237.7495"/>
</g>
<!-- Node488&#45;&gt;Node485 -->
<g id="edge21" class="edge">
<title>Node488&#45;&gt;Node485</title>
<path fill="none" stroke="#191970" d="M528.4138,-242.8659C546.1297,-262.7864 574.5933,-291.7389 604.5947,-309.909 615.0289,-316.2284 627.361,-321.1833 638.7002,-324.9083"/>
<polygon fill="#191970" stroke="#191970" points="530.9376,-240.4348 521.7273,-235.1983 525.6618,-245.0355 530.9376,-240.4348"/>
</g>
<!-- Node489 -->
<g id="node12" class="node">
<title>Node489</title>
<g id="a_node12"><a xlink:href="auto_8c.html#a64bd65456b81f16eb4ff67237159f984" target="_top" xlink:title="utility function which deploys the secondary lifter at the start of autonomous. ">
<polygon fill="none" stroke="#000000" points="612.9297,-248.909 612.9297,-266.909 734.5498,-266.909 734.5498,-248.909 612.9297,-248.909"/>
<text text-anchor="middle" x="673.7397" y="-254.909" font-family="Helvetica,sans-Serif" font-size="10.00" fill="#000000">deploy_seoncdary_lifter</text>
</a>
</g>
</g>
<!-- Node488&#45;&gt;Node489 -->
<g id="edge12" class="edge">
<title>Node488&#45;&gt;Node489</title>
<path fill="none" stroke="#191970" d="M573.045,-235.1526C593.472,-239.769 615.5533,-244.7593 633.8183,-248.887"/>
<polygon fill="#191970" stroke="#191970" points="573.6997,-231.7124 563.1741,-232.9219 572.1566,-238.5402 573.6997,-231.7124"/>
</g>
<!-- Node490 -->
<g id="node13" class="node">
<title>Node490</title>
<g id="a_node13"><a xlink:href="auto_8c.html#a55085901854f29969753bfd62c70049c" target="_top" xlink:title="utility function which raises the second lifter to its maximum height ">
<polygon fill="none" stroke="#000000" points="604.5947,-211.909 604.5947,-229.909 742.8848,-229.909 742.8848,-211.909 604.5947,-211.909"/>
<text text-anchor="middle" x="673.7397" y="-217.909" font-family="Helvetica,sans-Serif" font-size="10.00" fill="#000000">auton_raise_sec_lifter_max</text>
</a>
</g>
</g>
<!-- Node488&#45;&gt;Node490 -->
<g id="edge14" class="edge">
<title>Node488&#45;&gt;Node490</title>
<path fill="none" stroke="#191970" d="M573.2353,-220.909C583.4584,-220.909 594.0913,-220.909 604.4491,-220.909"/>
<polygon fill="#191970" stroke="#191970" points="573.1742,-217.4091 563.1741,-220.909 573.1741,-224.4091 573.1742,-217.4091"/>
</g>
<!-- Node491 -->
<g id="node14" class="node">
<title>Node491</title>
<g id="a_node14"><a xlink:href="lifter_8c.html#a786f679ea48bb8c80e00fbac9a69911b" target="_top" xlink:title="Raises the main lifter. ">
<polygon fill="none" stroke="#000000" points="616.8262,-135.909 616.8262,-153.909 730.6533,-153.909 730.6533,-135.909 616.8262,-135.909"/>
<text text-anchor="middle" x="673.7397" y="-141.909" font-family="Helvetica,sans-Serif" font-size="10.00" fill="#000000">raise_secondary_lifter</text>
</a>
</g>
</g>
<!-- Node488&#45;&gt;Node491 -->
<g id="edge19" class="edge">
<title>Node488&#45;&gt;Node491</title>
<path fill="none" stroke="#191970" d="M542.0788,-201.5158C560.0764,-191.0824 583.1622,-178.439 604.5947,-168.909 617.2505,-163.2816 631.6644,-158.0954 644.0449,-153.9948"/>
<polygon fill="#191970" stroke="#191970" points="540.0223,-198.6643 533.1667,-206.7421 543.5633,-204.7026 540.0223,-198.6643"/>
</g>
<!-- Node489&#45;&gt;Node484 -->
<g id="edge13" class="edge">
<title>Node489&#45;&gt;Node484</title>
<path fill="none" stroke="#191970" d="M714.3234,-270.3002C723.8578,-273.6732 733.8642,-277.6003 742.8848,-281.909 769.3832,-294.5662 797.9542,-313.6889 813.8509,-324.8755"/>
<polygon fill="#191970" stroke="#191970" points="715.214,-266.9061 704.6195,-266.9929 712.9557,-273.5318 715.214,-266.9061"/>
</g>
<!-- Node490&#45;&gt;Node484 -->
<g id="edge15" class="edge">
<title>Node490&#45;&gt;Node484</title>
<path fill="none" stroke="#191970" d="M730.5863,-233.5793C734.8802,-235.4164 739.0345,-237.5143 742.8848,-239.909 779.3941,-262.6166 809.1425,-306.0405 820.9155,-324.8502"/>
<polygon fill="#191970" stroke="#191970" points="731.6185,-230.2277 721.0271,-229.9603 729.14,-236.7742 731.6185,-230.2277"/>
</g>
<!-- Node491&#45;&gt;Node482 -->
<g id="edge20" class="edge">
<title>Node491&#45;&gt;Node482</title>
<path fill="none" stroke="#191970" d="M720.8634,-133.4844C742.8223,-128.1607 768.5774,-121.9166 789.1423,-116.9309"/>
<polygon fill="#191970" stroke="#191970" points="719.9674,-130.1001 711.0736,-135.8578 721.6168,-136.9031 719.9674,-130.1001"/>
</g>
<!-- Node493&#45;&gt;Node484 -->
<g id="edge23" class="edge">
<title>Node493&#45;&gt;Node484</title>
<path fill="none" stroke="#191970" d="M714.3234,-397.5179C723.8578,-394.1448 733.8642,-390.2178 742.8848,-385.909 769.3832,-373.2518 797.9542,-354.1291 813.8509,-342.9426"/>
<polygon fill="#191970" stroke="#191970" points="712.9557,-394.2862 704.6195,-400.8252 715.214,-400.912 712.9557,-394.2862"/>
</g>
<!-- Node498 -->
<g id="node17" class="node">
<title>Node498</title>
<g id="a_node17"><a xlink:href="drive_8c.html#a8df41fd50094c065eedc81fc5e6595d1" target="_top" xlink:title="sets the speed of one side of the robot. ">
<polygon fill="none" stroke="#ff0000" points="466.9917,-428.909 466.9917,-446.909 553.0454,-446.909 553.0454,-428.909 466.9917,-428.909"/>
<text text-anchor="middle" x="510.0186" y="-434.909" font-family="Helvetica,sans-Serif" font-size="10.00" fill="#000000">set_side_speed</text>
</a>
</g>
</g>
<!-- Node497&#45;&gt;Node498 -->
<g id="edge25" class="edge">
<title>Node497&#45;&gt;Node498</title>
<path fill="none" stroke="#191970" d="M367.1526,-276.1661C380.6579,-306.1184 410.9117,-366.2218 451.4424,-404.909 462.081,-415.0637 476.4372,-423.2166 488.2743,-428.8782"/>
<polygon fill="#191970" stroke="#191970" points="370.3135,-274.6592 363.0847,-266.9136 363.9055,-277.4766 370.3135,-274.6592"/>
</g>
<!-- Node502 -->
<g id="node18" class="node">
<title>Node502</title>
<g id="a_node18"><a xlink:href="lifter_8c.html#ad00a195af30f246924d6e1a30095b882" target="_top" xlink:title="Sets the main lifter motors to the given value. ">
<polygon fill="none" stroke="#ff0000" points="451.4424,-151.909 451.4424,-169.909 568.5947,-169.909 568.5947,-151.909 451.4424,-151.909"/>
<text text-anchor="middle" x="510.0186" y="-157.909" font-family="Helvetica,sans-Serif" font-size="10.00" fill="#000000">set_main_lifter_motors</text>
</a>
</g>
</g>
<!-- Node497&#45;&gt;Node502 -->
<g id="edge27" class="edge">
<title>Node497&#45;&gt;Node502</title>
<path fill="none" stroke="#191970" d="M406.7731,-244.841C409.7969,-243.3587 412.7171,-241.7196 415.4424,-239.909 435.9207,-226.3046 432.8422,-213.9863 451.4424,-197.909 464.1825,-186.897 480.5066,-176.8637 492.6845,-170.0321"/>
<polygon fill="#191970" stroke="#191970" points="405.2892,-241.6692 397.4825,-248.832 408.0521,-248.1008 405.2892,-241.6692"/>
</g>
<!-- Node498&#45;&gt;Node484 -->
<g id="edge26" class="edge">
<title>Node498&#45;&gt;Node484</title>
<path fill="none" stroke="#191970" d="M563.2961,-447.3456C612.4187,-453.462 686.1,-455.939 742.8848,-428.909 782.3339,-410.1309 810.8899,-363.1419 821.6506,-343.148"/>
<polygon fill="#191970" stroke="#191970" points="563.5776,-443.8521 553.2016,-445.9944 562.6489,-450.7902 563.5776,-443.8521"/>
</g>
<!-- Node502&#45;&gt;Node481 -->
<g id="edge28" class="edge">
<title>Node502&#45;&gt;Node481</title>
<path fill="none" stroke="#191970" d="M549.7985,-148.6271C556.125,-146.4958 562.5674,-144.2187 568.5947,-141.909 584.9445,-135.6438 588.0673,-131.6894 604.5947,-125.909 614.079,-122.592 624.4838,-119.5719 634.2771,-116.9931"/>
<polygon fill="#191970" stroke="#191970" points="548.4347,-145.3911 540.0287,-151.8401 550.6217,-152.0407 548.4347,-145.3911"/>
</g>
<!-- Node502&#45;&gt;Node482 -->
<g id="edge29" class="edge">
<title>Node502&#45;&gt;Node482</title>
<path fill="none" stroke="#191970" d="M559.5025,-147.5961C562.7056,-145.9146 565.7731,-144.027 568.5947,-141.909 591.3685,-124.8146 579.4305,-102.2367 604.5947,-88.909 670.6701,-53.9137 763.5549,-82.6766 804.9704,-98.8069"/>
<polygon fill="#191970" stroke="#191970" points="557.8708,-144.4929 550.2079,-151.8092 560.7608,-150.8685 557.8708,-144.4929"/>
</g>
<!-- Node508 -->
<g id="node20" class="node">
<title>Node508</title>
<g id="a_node20"><a xlink:href="slew_8c.html#a321758941d88b75783955c819bb75005" target="_top" xlink:title="Initializes the slew rate controller. ">
<polygon fill="none" stroke="#ff0000" points="212.9404,-230.909 212.9404,-248.909 267.29,-248.909 267.29,-230.909 212.9404,-230.909"/>
<text text-anchor="middle" x="240.1152" y="-236.909" font-family="Helvetica,sans-Serif" font-size="10.00" fill="#000000">init_slew</text>
</a>
</g>
</g>
<!-- Node507&#45;&gt;Node508 -->
<g id="edge31" class="edge">
<title>Node507&#45;&gt;Node508</title>
<path fill="none" stroke="#191970" d="M187.3298,-239.909C196.1069,-239.909 204.9601,-239.909 212.8422,-239.909"/>
<polygon fill="#191970" stroke="#191970" points="187.1237,-236.4091 177.1237,-239.909 187.1237,-243.4091 187.1237,-236.4091"/>
</g>
<!-- Node508&#45;&gt;Node477 -->
<g id="edge33" class="edge">
<title>Node508&#45;&gt;Node477</title>
<path fill="none" stroke="#191970" d="M277.3633,-233.9744C285.4885,-232.6798 294.2622,-231.2819 302.9451,-229.8985"/>
<polygon fill="#191970" stroke="#191970" points="276.7985,-230.5201 267.4738,-235.55 277.9,-237.4329 276.7985,-230.5201"/>
</g>
<!-- Node508&#45;&gt;Node497 -->
<g id="edge32" class="edge">
<title>Node508&#45;&gt;Node497</title>
<path fill="none" stroke="#191970" d="M277.4126,-245.5388C289.7275,-247.3976 303.5277,-249.4806 316.2414,-251.3997"/>
<polygon fill="#191970" stroke="#191970" points="277.8842,-242.0704 267.4738,-244.0386 276.8394,-248.992 277.8842,-242.0704"/>
</g>
</g>
</svg>
