<?xml version="1.0" encoding="UTF-8" standalone="no"?>
<!DOCTYPE svg PUBLIC "-//W3C//DTD SVG 1.1//EN"
 "http://www.w3.org/Graphics/SVG/1.1/DTD/svg11.dtd">
<!-- Generated by graphviz version 2.40.1 (20161225.0304)
 -->
<!-- Title: include/API.h Pages: 1 -->
<svg width="1377pt" height="367pt"
 viewBox="0.00 0.00 1377.28 367.00" xmlns="http://www.w3.org/2000/svg" xmlns:xlink="http://www.w3.org/1999/xlink">
<g id="graph0" class="graph" transform="scale(1 1) rotate(0) translate(4 363)">
<title>include/API.h</title>
<!-- Node5 -->
<g id="node1" class="node">
<title>Node5</title>
<polygon fill="#bfbfbf" stroke="#000000" points="605.9545,-340.5 605.9545,-358.5 680.8803,-358.5 680.8803,-340.5 605.9545,-340.5"/>
<text text-anchor="middle" x="643.4174" y="-346.5" font-family="Helvetica,sans-Serif" font-size="10.00" fill="#000000">include/API.h</text>
</g>
<!-- Node6 -->
<g id="node2" class="node">
<title>Node6</title>
<g id="a_node2"><a xlink:href="drive_8h.html" target="_top" xlink:title="Drive base definitions and enumerations. ">
<polygon fill="none" stroke="#000000" points="25.1762,-175.5 25.1762,-193.5 105.6586,-193.5 105.6586,-175.5 25.1762,-175.5"/>
<text text-anchor="middle" x="65.4174" y="-181.5" font-family="Helvetica,sans-Serif" font-size="10.00" fill="#000000">include/drive.h</text>
</a>
</g>
</g>
<!-- Node5&#45;&gt;Node6 -->
<g id="edge1" class="edge">
<title>Node5&#45;&gt;Node6</title>
<path fill="none" stroke="#191970" d="M595.5701,-347.785C491.4153,-343.5872 247.2582,-331.0982 169.4174,-304 126.9222,-289.2064 111.3426,-285.0517 84.4174,-249 71.8439,-232.1645 67.5586,-207.1161 66.1223,-193.7274"/>
<polygon fill="#191970" stroke="#191970" points="595.6632,-351.2913 605.7934,-348.1884 595.9393,-344.2967 595.6632,-351.2913"/>
</g>
<!-- Node9 -->
<g id="node5" class="node">
<title>Node9</title>
<g id="a_node5"><a xlink:href="lifter_8h.html" target="_top" xlink:title="include/lifter.h">
<polygon fill="none" stroke="#000000" points="26.8412,-115.5 26.8412,-133.5 103.9936,-133.5 103.9936,-115.5 26.8412,-115.5"/>
<text text-anchor="middle" x="65.4174" y="-121.5" font-family="Helvetica,sans-Serif" font-size="10.00" fill="#000000">include/lifter.h</text>
</a>
</g>
</g>
<!-- Node5&#45;&gt;Node9 -->
<g id="edge27" class="edge">
<title>Node5&#45;&gt;Node9</title>
<path fill="none" stroke="#191970" d="M595.937,-348.441C483.8686,-345.4528 205.7746,-335.0466 118.4174,-304 51.4698,-280.2069 22.2821,-262.2165 2.4174,-194 .0565,-185.8923 -1.2369,-182.6128 2.4174,-175 11.5167,-156.0443 31.5821,-141.9645 46.6387,-133.5546"/>
<polygon fill="#191970" stroke="#191970" points="595.8493,-351.9398 605.9365,-348.6996 596.0304,-344.9422 595.8493,-351.9398"/>
</g>
<!-- Node12 -->
<g id="node8" class="node">
<title>Node12</title>
<g id="a_node8"><a xlink:href="drive_8c.html" target="_top" xlink:title="src/drive.c">
<polygon fill="none" stroke="#000000" points="347.6367,-115.5 347.6367,-133.5 409.1982,-133.5 409.1982,-115.5 347.6367,-115.5"/>
<text text-anchor="middle" x="378.4174" y="-121.5" font-family="Helvetica,sans-Serif" font-size="10.00" fill="#000000">src/drive.c</text>
</a>
</g>
</g>
<!-- Node5&#45;&gt;Node12 -->
<g id="edge69" class="edge">
<title>Node5&#45;&gt;Node12</title>
<path fill="none" stroke="#191970" d="M605.4406,-336.8823C585.3351,-329.1694 560.8549,-318.0701 541.4174,-304 468.7873,-251.4258 404.1772,-162.0748 384.5215,-133.5418"/>
<polygon fill="#191970" stroke="#191970" points="604.3248,-340.2014 614.9179,-340.3948 606.7575,-333.6377 604.3248,-340.2014"/>
</g>
<!-- Node13 -->
<g id="node9" class="node">
<title>Node13</title>
<g id="a_node9"><a xlink:href="controller_8h.html" target="_top" xlink:title="controller definitions, macros ">
<polygon fill="none" stroke="#000000" points="267.7231,-285.5 267.7231,-303.5 367.1118,-303.5 367.1118,-285.5 267.7231,-285.5"/>
<text text-anchor="middle" x="317.4174" y="-291.5" font-family="Helvetica,sans-Serif" font-size="10.00" fill="#000000">include/controller.h</text>
</a>
</g>
</g>
<!-- Node5&#45;&gt;Node13 -->
<g id="edge10" class="edge">
<title>Node5&#45;&gt;Node13</title>
<path fill="none" stroke="#191970" d="M595.5608,-341.426C534.4768,-331.1204 429.3056,-313.3768 367.276,-302.9117"/>
<polygon fill="#191970" stroke="#191970" points="595.2597,-344.9246 605.7026,-343.1371 596.4242,-338.0222 595.2597,-344.9246"/>
</g>
<!-- Node14 -->
<g id="node10" class="node">
<title>Node14</title>
<g id="a_node10"><a xlink:href="partner_8h.html" target="_top" xlink:title="include/partner.h">
<polygon fill="none" stroke="#000000" points="93.4448,-230.5 93.4448,-248.5 183.3901,-248.5 183.3901,-230.5 93.4448,-230.5"/>
<text text-anchor="middle" x="138.4174" y="-236.5" font-family="Helvetica,sans-Serif" font-size="10.00" fill="#000000">include/partner.h</text>
</a>
</g>
</g>
<!-- Node5&#45;&gt;Node14 -->
<g id="edge26" class="edge">
<title>Node5&#45;&gt;Node14</title>
<path fill="none" stroke="#191970" d="M595.702,-348.8806C495.3969,-346.899 266.2605,-338.6057 197.4174,-304 172.4682,-291.4587 152.904,-263.6247 143.8726,-248.9601"/>
<polygon fill="#191970" stroke="#191970" points="595.7913,-352.3828 605.8543,-349.0682 595.9207,-345.384 595.7913,-352.3828"/>
</g>
<!-- Node17 -->
<g id="node13" class="node">
<title>Node17</title>
<g id="a_node13"><a xlink:href="claw_8h.html" target="_top" xlink:title="include/claw.h">
<polygon fill="none" stroke="#000000" points="251.2846,-115.5 251.2846,-133.5 329.5502,-133.5 329.5502,-115.5 251.2846,-115.5"/>
<text text-anchor="middle" x="290.4174" y="-121.5" font-family="Helvetica,sans-Serif" font-size="10.00" fill="#000000">include/claw.h</text>
</a>
</g>
</g>
<!-- Node5&#45;&gt;Node17 -->
<g id="edge36" class="edge">
<title>Node5&#45;&gt;Node17</title>
<path fill="none" stroke="#191970" d="M595.4682,-347.3351C497.2381,-342.4073 280.4729,-328.8155 258.4174,-304 213.6264,-253.6038 265.5233,-162.8065 284.2211,-133.7261"/>
<polygon fill="#191970" stroke="#191970" points="595.5587,-350.8437 605.7187,-347.8393 595.9028,-343.8521 595.5587,-350.8437"/>
</g>
<!-- Node21 -->
<g id="node17" class="node">
<title>Node21</title>
<g id="a_node17"><a xlink:href="slew_8h.html" target="_top" xlink:title="Contains the slew rate controller wrapper for the motors. ">
<polygon fill="none" stroke="#000000" points="489.2846,-175.5 489.2846,-193.5 567.5502,-193.5 567.5502,-175.5 489.2846,-175.5"/>
<text text-anchor="middle" x="528.4174" y="-181.5" font-family="Helvetica,sans-Serif" font-size="10.00" fill="#000000">include/slew.h</text>
</a>
</g>
</g>
<!-- Node5&#45;&gt;Node21 -->
<g id="edge28" class="edge">
<title>Node5&#45;&gt;Node21</title>
<path fill="none" stroke="#191970" d="M613.9899,-335.979C583.4311,-320.0855 537.4766,-290.5091 518.4174,-249 510.0008,-230.6695 518.1232,-206.6467 523.8541,-193.7095"/>
<polygon fill="#191970" stroke="#191970" points="612.4255,-339.1099 622.9326,-340.4703 615.5671,-332.8545 612.4255,-339.1099"/>
</g>
<!-- Node24 -->
<g id="node20" class="node">
<title>Node24</title>
<g id="a_node20"><a xlink:href="encoders_8h.html" target="_top" xlink:title="wrapper around encoder functions ">
<polygon fill="none" stroke="#000000" points="768.4448,-285.5 768.4448,-303.5 868.3901,-303.5 868.3901,-285.5 768.4448,-285.5"/>
<text text-anchor="middle" x="818.4174" y="-291.5" font-family="Helvetica,sans-Serif" font-size="10.00" fill="#000000">include/encoders.h</text>
</a>
</g>
</g>
<!-- Node5&#45;&gt;Node24 -->
<g id="edge37" class="edge">
<title>Node5&#45;&gt;Node24</title>
<path fill="none" stroke="#191970" d="M681.9559,-337.3879C714.5061,-327.1578 760.3873,-312.7381 789.7677,-303.5042"/>
<polygon fill="#191970" stroke="#191970" points="680.8056,-334.0806 672.3151,-340.4179 682.9045,-340.7585 680.8056,-334.0806"/>
</g>
<!-- Node25 -->
<g id="node21" class="node">
<title>Node25</title>
<g id="a_node21"><a xlink:href="localization_8h.html" target="_top" xlink:title="include/localization.h">
<polygon fill="none" stroke="#000000" points="1031.2773,-230.5 1031.2773,-248.5 1139.5576,-248.5 1139.5576,-230.5 1031.2773,-230.5"/>
<text text-anchor="middle" x="1085.4174" y="-236.5" font-family="Helvetica,sans-Serif" font-size="10.00" fill="#000000">include/localization.h</text>
</a>
</g>
</g>
<!-- Node5&#45;&gt;Node25 -->
<g id="edge55" class="edge">
<title>Node5&#45;&gt;Node25</title>
<path fill="none" stroke="#191970" d="M691.3682,-346.9003C752.7998,-342.5603 862.0221,-331.4221 951.4174,-304 996.8349,-290.0681 1046.1894,-262.8425 1070.3587,-248.6302"/>
<polygon fill="#191970" stroke="#191970" points="690.9408,-343.4211 681.1994,-347.5871 691.4126,-350.4052 690.9408,-343.4211"/>
</g>
<!-- Node27 -->
<g id="node23" class="node">
<title>Node27</title>
<g id="a_node23"><a xlink:href="encoders_8c.html" target="_top" xlink:title="src/encoders.c">
<polygon fill="none" stroke="#000000" points="763.9052,-230.5 763.9052,-248.5 844.9296,-248.5 844.9296,-230.5 763.9052,-230.5"/>
<text text-anchor="middle" x="804.4174" y="-236.5" font-family="Helvetica,sans-Serif" font-size="10.00" fill="#000000">src/encoders.c</text>
</a>
</g>
</g>
<!-- Node5&#45;&gt;Node27 -->
<g id="edge70" class="edge">
<title>Node5&#45;&gt;Node27</title>
<path fill="none" stroke="#191970" d="M664.8568,-334.8519C698.6163,-311.7865 763.1856,-267.6708 791.0601,-248.6261"/>
<polygon fill="#191970" stroke="#191970" points="662.8751,-331.967 656.5927,-340.4982 666.8241,-337.7468 662.8751,-331.967"/>
</g>
<!-- Node28 -->
<g id="node24" class="node">
<title>Node28</title>
<g id="a_node24"><a xlink:href="lcd_8h.html" target="_top" xlink:title="LCD wrapper functions and macros. ">
<polygon fill="none" stroke="#000000" points="607.622,-285.5 607.622,-303.5 679.2128,-303.5 679.2128,-285.5 607.622,-285.5"/>
<text text-anchor="middle" x="643.4174" y="-291.5" font-family="Helvetica,sans-Serif" font-size="10.00" fill="#000000">include/lcd.h</text>
</a>
</g>
</g>
<!-- Node5&#45;&gt;Node28 -->
<g id="edge43" class="edge">
<title>Node5&#45;&gt;Node28</title>
<path fill="none" stroke="#191970" d="M643.4174,-330.383C643.4174,-321.3738 643.4174,-311.0373 643.4174,-303.7795"/>
<polygon fill="#191970" stroke="#191970" points="639.9175,-330.4178 643.4174,-340.4179 646.9175,-330.4179 639.9175,-330.4178"/>
</g>
<!-- Node29 -->
<g id="node25" class="node">
<title>Node29</title>
<g id="a_node25"><a xlink:href="log_8h.html" target="_top" xlink:title="Contains logging functions. ">
<polygon fill="none" stroke="#000000" points="527.3412,-230.5 527.3412,-248.5 599.4936,-248.5 599.4936,-230.5 527.3412,-230.5"/>
<text text-anchor="middle" x="563.4174" y="-236.5" font-family="Helvetica,sans-Serif" font-size="10.00" fill="#000000">include/log.h</text>
</a>
</g>
</g>
<!-- Node5&#45;&gt;Node29 -->
<g id="edge56" class="edge">
<title>Node5&#45;&gt;Node29</title>
<path fill="none" stroke="#191970" d="M625.4148,-333.567C616.6505,-325.272 606.3262,-314.6552 598.4174,-304 584.9012,-285.7903 573.2599,-261.7203 567.4208,-248.7432"/>
<polygon fill="#191970" stroke="#191970" points="623.183,-336.2696 632.9111,-340.4665 627.9235,-331.119 623.183,-336.2696"/>
</g>
<!-- Node30 -->
<g id="node26" class="node">
<title>Node30</title>
<g id="a_node26"><a xlink:href="menu_8h.html" target="_top" xlink:title="Contains menu functionality and abstraction. ">
<polygon fill="none" stroke="#000000" points="809.5063,-175.5 809.5063,-193.5 893.3286,-193.5 893.3286,-175.5 809.5063,-175.5"/>
<text text-anchor="middle" x="851.4174" y="-181.5" font-family="Helvetica,sans-Serif" font-size="10.00" fill="#000000">include/menu.h</text>
</a>
</g>
</g>
<!-- Node5&#45;&gt;Node30 -->
<g id="edge61" class="edge">
<title>Node5&#45;&gt;Node30</title>
<path fill="none" stroke="#191970" d="M691.5799,-347.1349C753.0832,-342.9896 854.3374,-332 877.4174,-304 904.6968,-270.9054 872.7378,-215.6352 858.0413,-193.7906"/>
<polygon fill="#191970" stroke="#191970" points="691.0851,-343.6592 681.3277,-347.7875 691.5299,-350.6451 691.0851,-343.6592"/>
</g>
<!-- Node34 -->
<g id="node30" class="node">
<title>Node34</title>
<g id="a_node30"><a xlink:href="main_8h.html" target="_top" xlink:title="Header file for global functions. ">
<polygon fill="none" stroke="#000000" points="1129.1762,-175.5 1129.1762,-193.5 1209.6586,-193.5 1209.6586,-175.5 1129.1762,-175.5"/>
<text text-anchor="middle" x="1169.4174" y="-181.5" font-family="Helvetica,sans-Serif" font-size="10.00" fill="#000000">include/main.h</text>
</a>
</g>
</g>
<!-- Node5&#45;&gt;Node34 -->
<g id="edge57" class="edge">
<title>Node5&#45;&gt;Node34</title>
<path fill="none" stroke="#191970" d="M691.3924,-346.2182C758.537,-340.9388 884.0306,-328.5639 988.4174,-304 1061.6134,-286.7758 1095.6825,-302.6036 1148.4174,-249 1163.4487,-233.7211 1167.7214,-207.5665 1168.9357,-193.7226"/>
<polygon fill="#191970" stroke="#191970" points="690.8322,-342.7508 681.1292,-347.0054 691.3676,-349.7303 690.8322,-342.7508"/>
</g>
<!-- Node35 -->
<g id="node31" class="node">
<title>Node35</title>
<g id="a_node31"><a xlink:href="toggle_8h.html" target="_top" xlink:title="include/toggle.h">
<polygon fill="none" stroke="#000000" points="1195.3906,-285.5 1195.3906,-303.5 1281.4443,-303.5 1281.4443,-285.5 1195.3906,-285.5"/>
<text text-anchor="middle" x="1238.4174" y="-291.5" font-family="Helvetica,sans-Serif" font-size="10.00" fill="#000000">include/toggle.h</text>
</a>
</g>
</g>
<!-- Node5&#45;&gt;Node35 -->
<g id="edge62" class="edge">
<title>Node5&#45;&gt;Node35</title>
<path fill="none" stroke="#191970" d="M691.0827,-346.7662C785.1051,-341.0872 1001.0028,-326.6261 1181.4174,-304 1185.8969,-303.4382 1190.5628,-302.7804 1195.2112,-302.0777"/>
<polygon fill="#191970" stroke="#191970" points="690.8038,-343.2766 681.0308,-347.3679 691.2221,-350.2641 690.8038,-343.2766"/>
</g>
<!-- Node37 -->
<g id="node33" class="node">
<title>Node37</title>
<g id="a_node33"><a xlink:href="vlib_8h.html" target="_top" xlink:title="Contains misc helpful functions. ">
<polygon fill="none" stroke="#000000" points="939.5112,-230.5 939.5112,-248.5 1013.3237,-248.5 1013.3237,-230.5 939.5112,-230.5"/>
<text text-anchor="middle" x="976.4174" y="-236.5" font-family="Helvetica,sans-Serif" font-size="10.00" fill="#000000">include/vlib.h</text>
</a>
</g>
</g>
<!-- Node5&#45;&gt;Node37 -->
<g id="edge64" class="edge">
<title>Node5&#45;&gt;Node37</title>
<path fill="none" stroke="#191970" d="M691.378,-345.9653C761.1672,-340.1229 886.6207,-326.7766 925.4174,-304 948.0692,-290.7017 964.5058,-263.1989 971.9595,-248.7805"/>
<polygon fill="#191970" stroke="#191970" points="690.7712,-342.5031 681.0895,-346.806 691.3414,-349.4799 690.7712,-342.5031"/>
</g>
<!-- Node39 -->
<g id="node35" class="node">
<title>Node39</title>
<g id="a_node35"><a xlink:href="battery_8c.html" target="_top" xlink:title="src/battery.c">
<polygon fill="none" stroke="#000000" points="1299.5571,-285.5 1299.5571,-303.5 1369.2778,-303.5 1369.2778,-285.5 1299.5571,-285.5"/>
<text text-anchor="middle" x="1334.4174" y="-291.5" font-family="Helvetica,sans-Serif" font-size="10.00" fill="#000000">src/battery.c</text>
</a>
</g>
</g>
<!-- Node5&#45;&gt;Node39 -->
<g id="edge68" class="edge">
<title>Node5&#45;&gt;Node39</title>
<path fill="none" stroke="#191970" d="M691.3855,-348.461C799.0443,-345.6197 1067.9006,-335.6814 1290.4174,-304 1293.3574,-303.5814 1296.3941,-303.0778 1299.434,-302.5235"/>
<polygon fill="#191970" stroke="#191970" points="691.0818,-344.9675 681.1744,-348.7218 691.2605,-351.9652 691.0818,-344.9675"/>
</g>
<!-- Node7 -->
<g id="node3" class="node">
<title>Node7</title>
<g id="a_node3"><a xlink:href="auto_8h.html" target="_top" xlink:title="include/auto.h">
<polygon fill="none" stroke="#000000" points="127.2822,-55.5 127.2822,-73.5 205.5527,-73.5 205.5527,-55.5 127.2822,-55.5"/>
<text text-anchor="middle" x="166.4174" y="-61.5" font-family="Helvetica,sans-Serif" font-size="10.00" fill="#000000">include/auto.h</text>
</a>
</g>
</g>
<!-- Node6&#45;&gt;Node7 -->
<g id="edge2" class="edge">
<title>Node6&#45;&gt;Node7</title>
<path fill="none" stroke="#191970" d="M83.8622,-168.5645C93.1481,-160.1663 104.3319,-149.459 113.4174,-139 132.5709,-116.9509 151.5711,-88.1106 160.7437,-73.632"/>
<polygon fill="#191970" stroke="#191970" points="81.4455,-166.0297 76.2907,-175.286 86.0927,-171.2645 81.4455,-166.0297"/>
</g>
<!-- Node6&#45;&gt;Node9 -->
<g id="edge4" class="edge">
<title>Node6&#45;&gt;Node9</title>
<path fill="none" stroke="#191970" d="M65.4174,-165.3734C65.4174,-154.7812 65.4174,-142.0976 65.4174,-133.6985"/>
<polygon fill="#191970" stroke="#191970" points="61.9175,-165.3873 65.4174,-175.3873 68.9175,-165.3873 61.9175,-165.3873"/>
</g>
<!-- Node11 -->
<g id="node7" class="node">
<title>Node11</title>
<g id="a_node7"><a xlink:href="opcontrol_8c.html" target="_top" xlink:title="File for operator control code. ">
<polygon fill="none" stroke="#000000" points="460.9052,-55.5 460.9052,-73.5 541.9296,-73.5 541.9296,-55.5 460.9052,-55.5"/>
<text text-anchor="middle" x="501.4174" y="-61.5" font-family="Helvetica,sans-Serif" font-size="10.00" fill="#000000">src/opcontrol.c</text>
</a>
</g>
</g>
<!-- Node6&#45;&gt;Node11 -->
<g id="edge9" class="edge">
<title>Node6&#45;&gt;Node11</title>
<path fill="none" stroke="#191970" d="M92.2925,-170.9048C126.3828,-154.199 187.3709,-126.0965 242.4174,-110 332.8857,-83.5455 358.6695,-90.7976 451.4174,-74 454.4605,-73.4489 457.606,-72.8709 460.7692,-72.2836"/>
<polygon fill="#191970" stroke="#191970" points="90.4249,-167.9238 83.015,-175.4963 93.5299,-174.1975 90.4249,-167.9238"/>
</g>
<!-- Node6&#45;&gt;Node12 -->
<g id="edge8" class="edge">
<title>Node6&#45;&gt;Node12</title>
<path fill="none" stroke="#191970" d="M115.6611,-174.8466C215.4659,-157.8011 243.8587,-163.5036 338.4174,-139 344.1378,-137.5176 350.1892,-135.5457 355.8061,-133.535"/>
<polygon fill="#191970" stroke="#191970" points="115.0259,-171.4045 105.775,-176.569 116.2274,-178.3006 115.0259,-171.4045"/>
</g>
<!-- Node8 -->
<g id="node4" class="node">
<title>Node8</title>
<g id="a_node4"><a xlink:href="auto_8c.html" target="_top" xlink:title="File for autonomous code. ">
<polygon fill="none" stroke="#000000" points="641.7426,-.5 641.7426,-18.5 701.0922,-18.5 701.0922,-.5 641.7426,-.5"/>
<text text-anchor="middle" x="671.4174" y="-6.5" font-family="Helvetica,sans-Serif" font-size="10.00" fill="#000000">src/auto.c</text>
</a>
</g>
</g>
<!-- Node7&#45;&gt;Node8 -->
<g id="edge3" class="edge">
<title>Node7&#45;&gt;Node8</title>
<path fill="none" stroke="#191970" d="M215.7489,-56.8345C220.3656,-56.1855 224.9767,-55.5631 229.4174,-55 384.1971,-35.3746 570.2923,-18.3595 641.6145,-12.0797"/>
<polygon fill="#191970" stroke="#191970" points="215.0951,-53.3925 205.6975,-58.2849 216.0949,-60.3208 215.0951,-53.3925"/>
</g>
<!-- Node9&#45;&gt;Node7 -->
<g id="edge5" class="edge">
<title>Node9&#45;&gt;Node7</title>
<path fill="none" stroke="#191970" d="M89.5279,-110.177C108.7004,-98.7874 134.9305,-83.2051 151.2643,-73.5019"/>
<polygon fill="#191970" stroke="#191970" points="87.5669,-107.2708 80.7571,-115.3873 91.1421,-113.289 87.5669,-107.2708"/>
</g>
<!-- Node10 -->
<g id="node6" class="node">
<title>Node10</title>
<g id="a_node6"><a xlink:href="lifter_8c.html" target="_top" xlink:title="src/lifter.c">
<polygon fill="none" stroke="#000000" points="36.3017,-55.5 36.3017,-73.5 94.5331,-73.5 94.5331,-55.5 36.3017,-55.5"/>
<text text-anchor="middle" x="65.4174" y="-61.5" font-family="Helvetica,sans-Serif" font-size="10.00" fill="#000000">src/lifter.c</text>
</a>
</g>
</g>
<!-- Node9&#45;&gt;Node10 -->
<g id="edge6" class="edge">
<title>Node9&#45;&gt;Node10</title>
<path fill="none" stroke="#191970" d="M65.4174,-105.3734C65.4174,-94.7812 65.4174,-82.0976 65.4174,-73.6985"/>
<polygon fill="#191970" stroke="#191970" points="61.9175,-105.3873 65.4174,-115.3873 68.9175,-105.3873 61.9175,-105.3873"/>
</g>
<!-- Node9&#45;&gt;Node11 -->
<g id="edge7" class="edge">
<title>Node9&#45;&gt;Node11</title>
<path fill="none" stroke="#191970" d="M114.3116,-117.3963C131.135,-114.9927 150.095,-112.329 167.4174,-110 293.5151,-93.0461 325.7485,-93.8841 451.4174,-74 454.472,-73.5167 457.6259,-72.988 460.7949,-72.4353"/>
<polygon fill="#191970" stroke="#191970" points="113.5484,-113.9698 104.1465,-118.8539 114.5421,-120.8989 113.5484,-113.9698"/>
</g>
<!-- Node13&#45;&gt;Node9 -->
<g id="edge16" class="edge">
<title>Node13&#45;&gt;Node9</title>
<path fill="none" stroke="#191970" d="M257.3913,-289.9575C209.0424,-284.6303 140.1832,-273.2143 84.4174,-249 46.1723,-232.3934 27.3813,-231.1327 8.4174,-194 -4.0033,-169.6794 27.1936,-146.1322 48.1788,-133.6661"/>
<polygon fill="#191970" stroke="#191970" points="257.0748,-293.4434 267.385,-291.0043 257.8041,-286.4815 257.0748,-293.4434"/>
</g>
<!-- Node13&#45;&gt;Node12 -->
<g id="edge25" class="edge">
<title>Node13&#45;&gt;Node12</title>
<path fill="none" stroke="#191970" d="M340.5434,-279.1546C350.2964,-271.3599 360.6979,-260.9948 366.4174,-249 380.6052,-219.2456 368.0412,-207.7905 371.4174,-175 372.9042,-160.5604 375.3588,-143.8963 376.9311,-133.7839"/>
<polygon fill="#191970" stroke="#191970" points="338.1994,-276.5364 332.2736,-285.3191 342.383,-282.1488 338.1994,-276.5364"/>
</g>
<!-- Node13&#45;&gt;Node14 -->
<g id="edge11" class="edge">
<title>Node13&#45;&gt;Node14</title>
<path fill="none" stroke="#191970" d="M277.9981,-282.3879C244.7038,-272.1578 197.774,-257.7381 167.722,-248.5042"/>
<polygon fill="#191970" stroke="#191970" points="277.2723,-285.8263 287.8592,-285.4179 279.3283,-279.1351 277.2723,-285.8263"/>
</g>
<!-- Node13&#45;&gt;Node17 -->
<g id="edge17" class="edge">
<title>Node13&#45;&gt;Node17</title>
<path fill="none" stroke="#191970" d="M293.9175,-279.3252C284.0876,-271.5657 273.7291,-261.1808 268.4174,-249 265.042,-241.2595 267.5509,-238.3999 268.4174,-230 268.9166,-225.1611 283.128,-158.5389 288.4398,-133.7257"/>
<polygon fill="#191970" stroke="#191970" points="292.1435,-282.3642 302.2798,-285.4476 296.2787,-276.7161 292.1435,-282.3642"/>
</g>
<!-- Node19 -->
<g id="node15" class="node">
<title>Node19</title>
<g id="a_node15"><a xlink:href="mobile__goal__intake_8h.html" target="_top" xlink:title="include/mobile_goal\l_intake.h">
<polygon fill="none" stroke="#000000" points="427.2206,-110.5 427.2206,-138.5 531.6142,-138.5 531.6142,-110.5 427.2206,-110.5"/>
<text text-anchor="start" x="435.2206" y="-126.5" font-family="Helvetica,sans-Serif" font-size="10.00" fill="#000000">include/mobile_goal</text>
<text text-anchor="middle" x="479.4174" y="-116.5" font-family="Helvetica,sans-Serif" font-size="10.00" fill="#000000">_intake.h</text>
</a>
</g>
</g>
<!-- Node13&#45;&gt;Node19 -->
<g id="edge21" class="edge">
<title>Node13&#45;&gt;Node19</title>
<path fill="none" stroke="#191970" d="M342.5465,-280.1425C355.7678,-271.9439 371.8042,-260.935 384.4174,-249 421.545,-213.8687 455.3756,-163.1928 470.7285,-138.75"/>
<polygon fill="#191970" stroke="#191970" points="340.6747,-277.1841 333.9198,-285.3464 344.2904,-283.1781 340.6747,-277.1841"/>
</g>
<!-- Node20 -->
<g id="node16" class="node">
<title>Node20</title>
<g id="a_node16"><a xlink:href="controller_8c.html" target="_top" xlink:title="src/controller.c">
<polygon fill="none" stroke="#000000" points="277.1835,-230.5 277.1835,-248.5 357.6513,-248.5 357.6513,-230.5 277.1835,-230.5"/>
<text text-anchor="middle" x="317.4174" y="-236.5" font-family="Helvetica,sans-Serif" font-size="10.00" fill="#000000">src/controller.c</text>
</a>
</g>
</g>
<!-- Node13&#45;&gt;Node20 -->
<g id="edge24" class="edge">
<title>Node13&#45;&gt;Node20</title>
<path fill="none" stroke="#191970" d="M317.4174,-275.383C317.4174,-266.3738 317.4174,-256.0373 317.4174,-248.7795"/>
<polygon fill="#191970" stroke="#191970" points="313.9175,-275.4178 317.4174,-285.4179 320.9175,-275.4179 313.9175,-275.4178"/>
</g>
<!-- Node14&#45;&gt;Node6 -->
<g id="edge12" class="edge">
<title>Node14&#45;&gt;Node6</title>
<path fill="none" stroke="#191970" d="M118.0438,-224.15C105.0895,-214.3899 88.7432,-202.0742 77.7338,-193.7795"/>
<polygon fill="#191970" stroke="#191970" points="116.2699,-227.1957 126.363,-230.4179 120.4822,-221.6049 116.2699,-227.1957"/>
</g>
<!-- Node14&#45;&gt;Node9 -->
<g id="edge13" class="edge">
<title>Node14&#45;&gt;Node9</title>
<path fill="none" stroke="#191970" d="M90.7511,-227.7268C60.4784,-219.1763 25.3655,-206.8874 16.4174,-194 1.3456,-172.293 31.3072,-146.9629 50.6945,-133.689"/>
<polygon fill="#191970" stroke="#191970" points="90.2175,-231.2097 100.7871,-230.4787 92.0686,-224.4589 90.2175,-231.2097"/>
</g>
<!-- Node15 -->
<g id="node11" class="node">
<title>Node15</title>
<g id="a_node11"><a xlink:href="mobile__goal__intake_8c.html" target="_top" xlink:title="src/mobile_goal_intake.c">
<polygon fill="none" stroke="#000000" points="316.3881,-55.5 316.3881,-73.5 442.4467,-73.5 442.4467,-55.5 316.3881,-55.5"/>
<text text-anchor="middle" x="379.4174" y="-61.5" font-family="Helvetica,sans-Serif" font-size="10.00" fill="#000000">src/mobile_goal_intake.c</text>
</a>
</g>
</g>
<!-- Node14&#45;&gt;Node15 -->
<g id="edge14" class="edge">
<title>Node14&#45;&gt;Node15</title>
<path fill="none" stroke="#191970" d="M165.7379,-225.2926C178.767,-217.4515 193.7901,-206.7193 204.4174,-194 230.69,-162.5554 211.9739,-137.4264 242.4174,-110 263.3652,-91.1282 292.3592,-80.056 318.2821,-73.5729"/>
<polygon fill="#191970" stroke="#191970" points="163.6284,-222.4676 156.6945,-230.4783 167.1105,-228.5401 163.6284,-222.4676"/>
</g>
<!-- Node16 -->
<g id="node12" class="node">
<title>Node16</title>
<g id="a_node12"><a xlink:href="partner_8c.html" target="_top" xlink:title="src/partner.c">
<polygon fill="none" stroke="#000000" points="123.9052,-175.5 123.9052,-193.5 194.9296,-193.5 194.9296,-175.5 123.9052,-175.5"/>
<text text-anchor="middle" x="159.4174" y="-181.5" font-family="Helvetica,sans-Serif" font-size="10.00" fill="#000000">src/partner.c</text>
</a>
</g>
</g>
<!-- Node14&#45;&gt;Node16 -->
<g id="edge15" class="edge">
<title>Node14&#45;&gt;Node16</title>
<path fill="none" stroke="#191970" d="M145.4906,-220.9751C148.9825,-211.8297 153.0423,-201.1969 155.8744,-193.7795"/>
<polygon fill="#191970" stroke="#191970" points="142.1825,-219.8272 141.8851,-230.4179 148.722,-222.3242 142.1825,-219.8272"/>
</g>
<!-- Node17&#45;&gt;Node7 -->
<g id="edge18" class="edge">
<title>Node17&#45;&gt;Node7</title>
<path fill="none" stroke="#191970" d="M262.4077,-110.9469C238.748,-99.4987 205.5304,-83.4257 185.0213,-73.5019"/>
<polygon fill="#191970" stroke="#191970" points="261.0584,-114.1822 271.5845,-115.3873 264.1074,-107.8811 261.0584,-114.1822"/>
</g>
<!-- Node17&#45;&gt;Node11 -->
<g id="edge20" class="edge">
<title>Node17&#45;&gt;Node11</title>
<path fill="none" stroke="#191970" d="M329.8772,-112.5072C332.7653,-111.6517 335.6353,-110.8084 338.4174,-110 383.2768,-96.9649 435.2909,-82.5699 468.2674,-73.5326"/>
<polygon fill="#191970" stroke="#191970" points="328.6709,-109.2146 320.0903,-115.4293 330.6736,-115.922 328.6709,-109.2146"/>
</g>
<!-- Node18 -->
<g id="node14" class="node">
<title>Node18</title>
<g id="a_node14"><a xlink:href="claw_8c.html" target="_top" xlink:title="src/claw.c">
<polygon fill="none" stroke="#000000" points="238.7451,-55.5 238.7451,-73.5 298.0898,-73.5 298.0898,-55.5 238.7451,-55.5"/>
<text text-anchor="middle" x="268.4174" y="-61.5" font-family="Helvetica,sans-Serif" font-size="10.00" fill="#000000">src/claw.c</text>
</a>
</g>
</g>
<!-- Node17&#45;&gt;Node18 -->
<g id="edge19" class="edge">
<title>Node17&#45;&gt;Node18</title>
<path fill="none" stroke="#191970" d="M283.5267,-105.7072C279.6186,-95.0487 274.9023,-82.186 271.7902,-73.6985"/>
<polygon fill="#191970" stroke="#191970" points="280.3474,-107.2034 287.0761,-115.3873 286.9196,-104.7936 280.3474,-107.2034"/>
</g>
<!-- Node19&#45;&gt;Node11 -->
<g id="edge23" class="edge">
<title>Node19&#45;&gt;Node11</title>
<path fill="none" stroke="#191970" d="M488.1002,-100.8198C491.604,-91.2639 495.4364,-80.812 498.0866,-73.5842"/>
<polygon fill="#191970" stroke="#191970" points="484.7877,-99.6872 484.6311,-110.2808 491.3598,-102.097 484.7877,-99.6872"/>
</g>
<!-- Node19&#45;&gt;Node15 -->
<g id="edge22" class="edge">
<title>Node19&#45;&gt;Node15</title>
<path fill="none" stroke="#191970" d="M447.1222,-105.1229C429.5063,-94.5533 408.5236,-81.9637 394.6359,-73.6311"/>
<polygon fill="#191970" stroke="#191970" points="445.5962,-108.2889 455.9719,-110.4327 449.1977,-102.2864 445.5962,-108.2889"/>
</g>
<!-- Node21&#45;&gt;Node9 -->
<g id="edge29" class="edge">
<title>Node21&#45;&gt;Node9</title>
<path fill="none" stroke="#191970" d="M478.9686,-178.092C386.226,-166.0735 187.9832,-140.3833 104.1396,-129.518"/>
<polygon fill="#191970" stroke="#191970" points="478.5754,-181.5702 488.9423,-179.3844 479.4751,-174.6282 478.5754,-181.5702"/>
</g>
<!-- Node21&#45;&gt;Node11 -->
<g id="edge34" class="edge">
<title>Node21&#45;&gt;Node11</title>
<path fill="none" stroke="#191970" d="M536.6282,-165.5799C542.0911,-150.2061 547.1387,-128.1694 540.4174,-110 534.9308,-95.1682 522.2105,-81.9086 512.7808,-73.5831"/>
<polygon fill="#191970" stroke="#191970" points="533.315,-164.442 532.9194,-175.0294 539.8311,-166.9995 533.315,-164.442"/>
</g>
<!-- Node21&#45;&gt;Node12 -->
<g id="edge32" class="edge">
<title>Node21&#45;&gt;Node12</title>
<path fill="none" stroke="#191970" d="M496.05,-171.553C467.3477,-160.0721 426.1726,-143.6021 400.9221,-133.5019"/>
<polygon fill="#191970" stroke="#191970" points="495.051,-174.923 505.6356,-175.3873 497.6508,-168.4237 495.051,-174.923"/>
</g>
<!-- Node21&#45;&gt;Node17 -->
<g id="edge30" class="edge">
<title>Node21&#45;&gt;Node17</title>
<path fill="none" stroke="#191970" d="M479.0397,-173.5066C440.5721,-164.7419 385.9058,-151.8471 338.4174,-139 332.1991,-137.3177 325.5649,-135.3965 319.275,-133.5149"/>
<polygon fill="#191970" stroke="#191970" points="478.421,-176.9551 488.9476,-175.7544 479.9698,-170.1286 478.421,-176.9551"/>
</g>
<!-- Node21&#45;&gt;Node19 -->
<g id="edge31" class="edge">
<title>Node21&#45;&gt;Node19</title>
<path fill="none" stroke="#191970" d="M514.5011,-167.4596C507.1212,-158.423 498.1553,-147.4444 491.1347,-138.8477"/>
<polygon fill="#191970" stroke="#191970" points="511.9391,-169.8558 520.9754,-175.3873 517.3609,-165.4281 511.9391,-169.8558"/>
</g>
<!-- Node22 -->
<g id="node18" class="node">
<title>Node22</title>
<g id="a_node18"><a xlink:href="init_8c.html" target="_top" xlink:title="File for initialization code. ">
<polygon fill="none" stroke="#000000" points="732.0825,-115.5 732.0825,-133.5 784.7524,-133.5 784.7524,-115.5 732.0825,-115.5"/>
<text text-anchor="middle" x="758.4174" y="-121.5" font-family="Helvetica,sans-Serif" font-size="10.00" fill="#000000">src/init.c</text>
</a>
</g>
</g>
<!-- Node21&#45;&gt;Node22 -->
<g id="edge33" class="edge">
<title>Node21&#45;&gt;Node22</title>
<path fill="none" stroke="#191970" d="M573.2908,-172.7939C620.4247,-160.4981 692.9819,-141.5701 731.7807,-131.4487"/>
<polygon fill="#191970" stroke="#191970" points="572.1421,-169.4763 563.3495,-175.3873 573.9091,-176.2497 572.1421,-169.4763"/>
</g>
<!-- Node23 -->
<g id="node19" class="node">
<title>Node23</title>
<g id="a_node19"><a xlink:href="slew_8c.html" target="_top" xlink:title="src/slew.c">
<polygon fill="none" stroke="#000000" points="612.7451,-115.5 612.7451,-133.5 672.0898,-133.5 672.0898,-115.5 612.7451,-115.5"/>
<text text-anchor="middle" x="642.4174" y="-121.5" font-family="Helvetica,sans-Serif" font-size="10.00" fill="#000000">src/slew.c</text>
</a>
</g>
</g>
<!-- Node21&#45;&gt;Node23 -->
<g id="edge35" class="edge">
<title>Node21&#45;&gt;Node23</title>
<path fill="none" stroke="#191970" d="M554.7504,-170.6405C576.4619,-159.2134 606.6263,-143.3374 625.3139,-133.5019"/>
<polygon fill="#191970" stroke="#191970" points="552.9506,-167.6326 545.7316,-175.3873 556.2109,-173.827 552.9506,-167.6326"/>
</g>
<!-- Node24&#45;&gt;Node22 -->
<g id="edge42" class="edge">
<title>Node24&#45;&gt;Node22</title>
<path fill="none" stroke="#191970" d="M837.2441,-278.4506C850.0996,-265.453 863.3201,-246.6349 854.4174,-230 840.807,-204.5686 820.3556,-214.844 800.4174,-194 782.6815,-175.4583 768.9357,-148.153 762.4708,-133.9165"/>
<polygon fill="#191970" stroke="#191970" points="834.7734,-275.9695 829.8871,-285.3703 839.5693,-281.0684 834.7734,-275.9695"/>
</g>
<!-- Node24&#45;&gt;Node25 -->
<g id="edge38" class="edge">
<title>Node24&#45;&gt;Node25</title>
<path fill="none" stroke="#191970" d="M872.1574,-283.43C921.9881,-273.1652 995.2269,-258.0786 1041.6029,-248.5255"/>
<polygon fill="#191970" stroke="#191970" points="871.2962,-280.0338 862.2081,-285.4795 872.7086,-286.8898 871.2962,-280.0338"/>
</g>
<!-- Node24&#45;&gt;Node27 -->
<g id="edge41" class="edge">
<title>Node24&#45;&gt;Node27</title>
<path fill="none" stroke="#191970" d="M813.6268,-275.6796C811.316,-266.6014 808.6472,-256.1171 806.7795,-248.7795"/>
<polygon fill="#191970" stroke="#191970" points="810.2469,-276.5903 816.1056,-285.4179 817.0306,-274.8635 810.2469,-276.5903"/>
</g>
<!-- Node25&#45;&gt;Node11 -->
<g id="edge40" class="edge">
<title>Node25&#45;&gt;Node11</title>
<path fill="none" stroke="#191970" d="M1089.8456,-220.1032C1091.8504,-206.1924 1091.9746,-187.7343 1082.4174,-175 1028.8447,-103.6179 979.4619,-129.715 892.4174,-110 766.6122,-81.5059 613.7658,-70.2948 542.1434,-66.371"/>
<polygon fill="#191970" stroke="#191970" points="1086.3762,-219.6161 1087.9837,-230.0883 1093.2576,-220.8994 1086.3762,-219.6161"/>
</g>
<!-- Node26 -->
<g id="node22" class="node">
<title>Node26</title>
<g id="a_node22"><a xlink:href="localization_8c.html" target="_top" xlink:title="src/localization.c">
<polygon fill="none" stroke="#000000" points="983.7377,-175.5 983.7377,-193.5 1073.0971,-193.5 1073.0971,-175.5 983.7377,-175.5"/>
<text text-anchor="middle" x="1028.4174" y="-181.5" font-family="Helvetica,sans-Serif" font-size="10.00" fill="#000000">src/localization.c</text>
</a>
</g>
</g>
<!-- Node25&#45;&gt;Node26 -->
<g id="edge39" class="edge">
<title>Node25&#45;&gt;Node26</title>
<path fill="none" stroke="#191970" d="M1068.6275,-223.2992C1058.6614,-213.6828 1046.3827,-201.8349 1038.0343,-193.7795"/>
<polygon fill="#191970" stroke="#191970" points="1066.3785,-225.9928 1076.005,-230.4179 1071.2391,-220.9555 1066.3785,-225.9928"/>
</g>
<!-- Node28&#45;&gt;Node22 -->
<g id="edge53" class="edge">
<title>Node28&#45;&gt;Node22</title>
<path fill="none" stroke="#191970" d="M640.2016,-275.0676C638.9327,-261.653 639.1936,-243.8142 646.4174,-230 658.6104,-206.6831 673.9199,-211.669 693.4174,-194 715.6975,-173.8094 739.1512,-147.1998 750.8487,-133.5032"/>
<polygon fill="#191970" stroke="#191970" points="636.7471,-275.645 641.508,-285.1099 643.6887,-274.7419 636.7471,-275.645"/>
</g>
<!-- Node28&#45;&gt;Node29 -->
<g id="edge44" class="edge">
<title>Node28&#45;&gt;Node29</title>
<path fill="none" stroke="#191970" d="M621.8513,-279.6733C607.4347,-269.7619 588.9291,-257.0393 576.6474,-248.5956"/>
<polygon fill="#191970" stroke="#191970" points="619.9837,-282.6367 630.207,-285.4179 623.9495,-276.8684 619.9837,-282.6367"/>
</g>
<!-- Node28&#45;&gt;Node30 -->
<g id="edge52" class="edge">
<title>Node28&#45;&gt;Node30</title>
<path fill="none" stroke="#191970" d="M667.0048,-279.9833C689.2468,-266.4895 723.6667,-246.1069 754.4174,-230 780.287,-216.4498 810.9089,-202.4066 830.7243,-193.5715"/>
<polygon fill="#191970" stroke="#191970" points="664.9807,-277.1181 658.2643,-285.312 668.6246,-283.0949 664.9807,-277.1181"/>
</g>
<!-- Node33 -->
<g id="node29" class="node">
<title>Node33</title>
<g id="a_node29"><a xlink:href="lcd_8c.html" target="_top" xlink:title="src/lcd.c">
<polygon fill="none" stroke="#000000" points="655.0825,-230.5 655.0825,-248.5 707.7524,-248.5 707.7524,-230.5 655.0825,-230.5"/>
<text text-anchor="middle" x="681.4174" y="-236.5" font-family="Helvetica,sans-Serif" font-size="10.00" fill="#000000">src/lcd.c</text>
</a>
</g>
</g>
<!-- Node28&#45;&gt;Node33 -->
<g id="edge54" class="edge">
<title>Node28&#45;&gt;Node33</title>
<path fill="none" stroke="#191970" d="M655.4071,-277.1465C661.8991,-267.7503 669.661,-256.5159 675.0062,-248.7795"/>
<polygon fill="#191970" stroke="#191970" points="652.4971,-275.201 649.6923,-285.4179 658.2563,-279.1801 652.4971,-275.201"/>
</g>
<!-- Node29&#45;&gt;Node12 -->
<g id="edge48" class="edge">
<title>Node29&#45;&gt;Node12</title>
<path fill="none" stroke="#191970" d="M536.5956,-225.643C520.1548,-216.9419 498.8061,-205.2688 480.4174,-194 447.3477,-173.7346 410.0515,-147.3831 391.0367,-133.6823"/>
<polygon fill="#191970" stroke="#191970" points="535.1682,-228.8467 545.649,-230.3972 538.4227,-222.6492 535.1682,-228.8467"/>
</g>
<!-- Node29&#45;&gt;Node22 -->
<g id="edge49" class="edge">
<title>Node29&#45;&gt;Node22</title>
<path fill="none" stroke="#191970" d="M597.1302,-226.674C617.4639,-218.4028 643.5725,-206.8194 665.4174,-194 697.2302,-175.3312 731.0838,-147.8383 747.8041,-133.6768"/>
<polygon fill="#191970" stroke="#191970" points="595.6438,-223.4987 587.6561,-230.4592 598.2409,-229.9991 595.6438,-223.4987"/>
</g>
<!-- Node29&#45;&gt;Node23 -->
<g id="edge51" class="edge">
<title>Node29&#45;&gt;Node23</title>
<path fill="none" stroke="#191970" d="M607.7465,-226.4554C623.4124,-219.4749 639.3718,-209.1021 648.4174,-194 659.7434,-175.0907 651.9327,-147.9405 646.4707,-133.8243"/>
<polygon fill="#191970" stroke="#191970" points="606.0428,-223.3696 598.0947,-230.3753 608.6768,-229.8552 606.0428,-223.3696"/>
</g>
<!-- Node29&#45;&gt;Node30 -->
<g id="edge45" class="edge">
<title>Node29&#45;&gt;Node30</title>
<path fill="none" stroke="#191970" d="M609.4331,-230.7123C664.4432,-220.2069 755.7431,-202.7711 809.075,-192.5862"/>
<polygon fill="#191970" stroke="#191970" points="608.7671,-227.2761 599.6012,-232.5899 610.0803,-234.1519 608.7671,-227.2761"/>
</g>
<!-- Node32 -->
<g id="node28" class="node">
<title>Node32</title>
<g id="a_node28"><a xlink:href="log_8c.html" target="_top" xlink:title="src/log.c">
<polygon fill="none" stroke="#000000" points="585.8017,-175.5 585.8017,-193.5 639.0331,-193.5 639.0331,-175.5 585.8017,-175.5"/>
<text text-anchor="middle" x="612.4174" y="-181.5" font-family="Helvetica,sans-Serif" font-size="10.00" fill="#000000">src/log.c</text>
</a>
</g>
</g>
<!-- Node29&#45;&gt;Node32 -->
<g id="edge50" class="edge">
<title>Node29&#45;&gt;Node32</title>
<path fill="none" stroke="#191970" d="M578.3621,-222.7253C586.8349,-213.215 597.1157,-201.6754 604.1503,-193.7795"/>
<polygon fill="#191970" stroke="#191970" points="575.5475,-220.623 571.5088,-230.4179 580.7742,-225.2795 575.5475,-220.623"/>
</g>
<!-- Node30&#45;&gt;Node22 -->
<g id="edge46" class="edge">
<title>Node30&#45;&gt;Node22</title>
<path fill="none" stroke="#191970" d="M828.7336,-169.8653C811.1245,-158.5045 787.2736,-143.1169 772.3703,-133.5019"/>
<polygon fill="#191970" stroke="#191970" points="826.9923,-172.907 837.2927,-175.3873 830.7872,-167.0249 826.9923,-172.907"/>
</g>
<!-- Node31 -->
<g id="node27" class="node">
<title>Node31</title>
<g id="a_node27"><a xlink:href="menu_8c.html" target="_top" xlink:title="src/menu.c">
<polygon fill="none" stroke="#000000" points="818.9667,-115.5 818.9667,-133.5 883.8681,-133.5 883.8681,-115.5 818.9667,-115.5"/>
<text text-anchor="middle" x="851.4174" y="-121.5" font-family="Helvetica,sans-Serif" font-size="10.00" fill="#000000">src/menu.c</text>
</a>
</g>
</g>
<!-- Node30&#45;&gt;Node31 -->
<g id="edge47" class="edge">
<title>Node30&#45;&gt;Node31</title>
<path fill="none" stroke="#191970" d="M851.4174,-165.3734C851.4174,-154.7812 851.4174,-142.0976 851.4174,-133.6985"/>
<polygon fill="#191970" stroke="#191970" points="847.9175,-165.3873 851.4174,-175.3873 854.9175,-165.3873 847.9175,-165.3873"/>
</g>
<!-- Node34&#45;&gt;Node8 -->
<g id="edge58" class="edge">
<title>Node34&#45;&gt;Node8</title>
<path fill="none" stroke="#191970" d="M1168.4066,-164.9748C1166.4523,-147.9936 1160.9106,-123.9783 1145.4174,-110 1078.8999,-49.9867 794.9329,-20.2656 701.4144,-11.9743"/>
<polygon fill="#191970" stroke="#191970" points="1164.9558,-165.7182 1169.2646,-175.3973 1171.9322,-165.1439 1164.9558,-165.7182"/>
</g>
<!-- Node34&#45;&gt;Node11 -->
<g id="edge60" class="edge">
<title>Node34&#45;&gt;Node11</title>
<path fill="none" stroke="#191970" d="M1161.6948,-166.0683C1153.1872,-148.3301 1137.6921,-122.424 1115.4174,-110 1065.5332,-82.1764 670.8956,-69.0953 541.9931,-65.5353"/>
<polygon fill="#191970" stroke="#191970" points="1158.6004,-167.721 1165.8949,-175.4047 1164.9842,-164.8491 1158.6004,-167.721"/>
</g>
<!-- Node34&#45;&gt;Node22 -->
<g id="edge59" class="edge">
<title>Node34&#45;&gt;Node22</title>
<path fill="none" stroke="#191970" d="M1119.0199,-179.0327C1034.6273,-169.7229 868.2804,-150.6694 810.4174,-139 802.0571,-137.3139 793.0698,-134.9944 784.9577,-132.7047"/>
<polygon fill="#191970" stroke="#191970" points="1118.8155,-182.5312 1129.1382,-180.1455 1119.5808,-175.5732 1118.8155,-182.5312"/>
</g>
<!-- Node36 -->
<g id="node32" class="node">
<title>Node36</title>
<g id="a_node32"><a xlink:href="toggle_8c.html" target="_top" xlink:title="src/toggle.c">
<polygon fill="none" stroke="#000000" points="1204.851,-230.5 1204.851,-248.5 1271.9838,-248.5 1271.9838,-230.5 1204.851,-230.5"/>
<text text-anchor="middle" x="1238.4174" y="-236.5" font-family="Helvetica,sans-Serif" font-size="10.00" fill="#000000">src/toggle.c</text>
</a>
</g>
</g>
<!-- Node35&#45;&gt;Node36 -->
<g id="edge63" class="edge">
<title>Node35&#45;&gt;Node36</title>
<path fill="none" stroke="#191970" d="M1238.4174,-275.383C1238.4174,-266.3738 1238.4174,-256.0373 1238.4174,-248.7795"/>
<polygon fill="#191970" stroke="#191970" points="1234.9175,-275.4178 1238.4174,-285.4179 1241.9175,-275.4179 1234.9175,-275.4178"/>
</g>
<!-- Node37&#45;&gt;Node21 -->
<g id="edge65" class="edge">
<title>Node37&#45;&gt;Node21</title>
<path fill="none" stroke="#191970" d="M929.2682,-235.4019C854.2947,-228.6011 703.389,-213.7522 576.4174,-194 573.5635,-193.556 570.6209,-193.0624 567.6636,-192.5402"/>
<polygon fill="#191970" stroke="#191970" points="929.0595,-238.8971 939.333,-236.3077 929.687,-231.9253 929.0595,-238.8971"/>
</g>
<!-- Node37&#45;&gt;Node30 -->
<g id="edge66" class="edge">
<title>Node37&#45;&gt;Node30</title>
<path fill="none" stroke="#191970" d="M946.4812,-226.328C923.4989,-216.2159 892.3657,-202.5172 872.0893,-193.5956"/>
<polygon fill="#191970" stroke="#191970" points="945.2134,-229.594 955.7762,-230.4179 948.0327,-223.1868 945.2134,-229.594"/>
</g>
<!-- Node38 -->
<g id="node34" class="node">
<title>Node38</title>
<g id="a_node34"><a xlink:href="vlib_8c.html" target="_top" xlink:title="src/vlib.c">
<polygon fill="none" stroke="#000000" points="910.9716,-175.5 910.9716,-193.5 965.8632,-193.5 965.8632,-175.5 910.9716,-175.5"/>
<text text-anchor="middle" x="938.4174" y="-181.5" font-family="Helvetica,sans-Serif" font-size="10.00" fill="#000000">src/vlib.c</text>
</a>
</g>
</g>
<!-- Node37&#45;&gt;Node38 -->
<g id="edge67" class="edge">
<title>Node37&#45;&gt;Node38</title>
<path fill="none" stroke="#191970" d="M964.4277,-222.1465C957.9358,-212.7503 950.1739,-201.5159 944.8287,-193.7795"/>
<polygon fill="#191970" stroke="#191970" points="961.5786,-224.1801 970.1425,-230.4179 967.3377,-220.201 961.5786,-224.1801"/>
</g>
</g>
</svg>
