<?xml version="1.0" encoding="UTF-8" standalone="no"?>
<!DOCTYPE svg PUBLIC "-//W3C//DTD SVG 1.1//EN"
 "http://www.w3.org/Graphics/SVG/1.1/DTD/svg11.dtd">
<!-- Generated by graphviz version 2.40.1 (20161225.0304)
 -->
<!-- Title: printf Pages: 1 -->
<svg width="533pt" height="198pt"
 viewBox="0.00 0.00 532.72 198.21" xmlns="http://www.w3.org/2000/svg" xmlns:xlink="http://www.w3.org/1999/xlink">
<g id="graph0" class="graph" transform="scale(1 1) rotate(0) translate(4 194.2135)">
<title>printf</title>
<polygon fill="#ffffff" stroke="transparent" points="-4,4 -4,-194.2135 528.7178,-194.2135 528.7178,4 -4,4"/>
<!-- Node165 -->
<g id="node1" class="node">
<title>Node165</title>
<polygon fill="#bfbfbf" stroke="#000000" points="0,-92.5 0,-110.5 38.2314,-110.5 38.2314,-92.5 0,-92.5"/>
<text text-anchor="middle" x="19.1157" y="-98.5" font-family="Helvetica,sans-Serif" font-size="10.00" fill="#000000">printf</text>
</g>
<!-- Node166 -->
<g id="node2" class="node">
<title>Node166</title>
<g id="a_node2"><a xlink:href="lcd_8h.html#a07f04b524b5ded617d5f193db05ba0ad" target="_top" xlink:title="Asserts the lcd is initialized Works by chekcing is the File *lcd_port is the default NULL value and ...">
<polygon fill="#ffffff" stroke="#000000" points="74.2314,-92.5 74.2314,-110.5 135.8076,-110.5 135.8076,-92.5 74.2314,-92.5"/>
<text text-anchor="middle" x="105.0195" y="-98.5" font-family="Helvetica,sans-Serif" font-size="10.00" fill="#000000">lcd_assert</text>
</a>
</g>
</g>
<!-- Node165&#45;&gt;Node166 -->
<g id="edge1" class="edge">
<title>Node165&#45;&gt;Node166</title>
<path fill="none" stroke="#191970" d="M48.8379,-101.5C57.0166,-101.5 65.9046,-101.5 74.1466,-101.5"/>
<polygon fill="#191970" stroke="#191970" points="48.6087,-98.0001 38.6086,-101.5 48.6086,-105.0001 48.6087,-98.0001"/>
</g>
<!-- Node167 -->
<g id="node3" class="node">
<title>Node167</title>
<g id="a_node3"><a xlink:href="lcd_8h.html#ac7b3225ccc82fcbe067ba9da934f010d" target="_top" xlink:title="Returns the pressed buttons. ">
<polygon fill="#ffffff" stroke="#000000" points="171.8076,-148.5 171.8076,-166.5 299.5557,-166.5 299.5557,-148.5 171.8076,-148.5"/>
<text text-anchor="middle" x="235.6816" y="-154.5" font-family="Helvetica,sans-Serif" font-size="10.00" fill="#000000">lcd_get_pressed_buttons</text>
</a>
</g>
</g>
<!-- Node166&#45;&gt;Node167 -->
<g id="edge2" class="edge">
<title>Node166&#45;&gt;Node167</title>
<path fill="none" stroke="#191970" d="M128.0385,-115.8791C140.6351,-123.3264 156.7115,-132.1617 171.8076,-138.5 180.8749,-142.307 190.9627,-145.6806 200.3937,-148.4888"/>
<polygon fill="#191970" stroke="#191970" points="129.528,-112.6901 119.158,-110.5191 125.9108,-118.6831 129.528,-112.6901"/>
</g>
<!-- Node168 -->
<g id="node4" class="node">
<title>Node168</title>
<g id="a_node4"><a xlink:href="lcd_8h.html#a99f4683e1990edf624ab216bf327cba4" target="_top" xlink:title="Prompts the user to confirm a string. User must press middle button to confirm. Function is not threa...">
<polygon fill="#ffffff" stroke="#000000" points="335.5557,-148.5 335.5557,-166.5 437.1465,-166.5 437.1465,-148.5 335.5557,-148.5"/>
<text text-anchor="middle" x="386.3511" y="-154.5" font-family="Helvetica,sans-Serif" font-size="10.00" fill="#000000">promt_confirmation</text>
</a>
</g>
</g>
<!-- Node166&#45;&gt;Node168 -->
<g id="edge12" class="edge">
<title>Node166&#45;&gt;Node168</title>
<path fill="none" stroke="#191970" d="M114.997,-119.7345C126.1362,-137.9774 146.036,-164.9408 171.8076,-176.5 236.4617,-205.4988 322.9558,-181.1548 363.5295,-166.5505"/>
<polygon fill="#191970" stroke="#191970" points="117.7729,-117.5445 109.7281,-110.65 111.7176,-121.0564 117.7729,-117.5445"/>
</g>
<!-- Node171 -->
<g id="node7" class="node">
<title>Node171</title>
<g id="a_node7"><a xlink:href="lcd_8h.html#a35c08b1fa742e650f4873939707b893b" target="_top" xlink:title="Clears the lcd. ">
<polygon fill="#ffffff" stroke="#000000" points="207.6719,-74.5 207.6719,-92.5 263.6914,-92.5 263.6914,-74.5 207.6719,-74.5"/>
<text text-anchor="middle" x="235.6816" y="-80.5" font-family="Helvetica,sans-Serif" font-size="10.00" fill="#000000">lcd_clear</text>
</a>
</g>
</g>
<!-- Node166&#45;&gt;Node171 -->
<g id="edge6" class="edge">
<title>Node166&#45;&gt;Node171</title>
<path fill="none" stroke="#191970" d="M146.0834,-95.843C166.1061,-93.0847 189.6736,-89.8381 207.6112,-87.367"/>
<polygon fill="#191970" stroke="#191970" points="145.4134,-92.4022 135.9846,-97.2343 146.3687,-99.3367 145.4134,-92.4022"/>
</g>
<!-- Node172 -->
<g id="node8" class="node">
<title>Node172</title>
<g id="a_node8"><a xlink:href="lcd_8h.html#adabd3f7cdda45119604b488caf22bba8" target="_top" xlink:title="prints a string to a line on the lcd ">
<polygon fill="#ffffff" stroke="#000000" points="208.7827,-111.5 208.7827,-129.5 262.5806,-129.5 262.5806,-111.5 208.7827,-111.5"/>
<text text-anchor="middle" x="235.6816" y="-117.5" font-family="Helvetica,sans-Serif" font-size="10.00" fill="#000000">lcd_print</text>
</a>
</g>
</g>
<!-- Node166&#45;&gt;Node172 -->
<g id="edge7" class="edge">
<title>Node166&#45;&gt;Node172</title>
<path fill="none" stroke="#191970" d="M145.9496,-107.4518C166.3272,-110.415 190.4037,-113.916 208.4844,-116.5452"/>
<polygon fill="#191970" stroke="#191970" points="146.3842,-103.9782 135.9846,-106.0027 145.3769,-110.9054 146.3842,-103.9782"/>
</g>
<!-- Node173 -->
<g id="node9" class="node">
<title>Node173</title>
<g id="a_node9"><a xlink:href="lcd_8h.html#aa0d4ca88701dfecf98796e2028482b69" target="_top" xlink:title="prints a formated string to a line on the lcd. Smilar to printf ">
<polygon fill="#ffffff" stroke="#000000" points="207.3936,-37.5 207.3936,-55.5 263.9697,-55.5 263.9697,-37.5 207.3936,-37.5"/>
<text text-anchor="middle" x="235.6816" y="-43.5" font-family="Helvetica,sans-Serif" font-size="10.00" fill="#000000">lcd_printf</text>
</a>
</g>
</g>
<!-- Node166&#45;&gt;Node173 -->
<g id="edge10" class="edge">
<title>Node166&#45;&gt;Node173</title>
<path fill="none" stroke="#191970" d="M128.002,-87.0331C140.5881,-79.5606 156.6662,-70.7291 171.8076,-64.5 183.1016,-59.8537 195.9939,-55.969 207.2244,-53.0119"/>
<polygon fill="#191970" stroke="#191970" points="125.8641,-84.2364 119.1314,-92.4169 129.4961,-90.2205 125.8641,-84.2364"/>
</g>
<!-- Node174 -->
<g id="node10" class="node">
<title>Node174</title>
<g id="a_node10"><a xlink:href="lcd_8h.html#a245902a4d48a6d9bd1ab308bf9b7e6b5" target="_top" xlink:title="sets the backlight of the lcd ">
<polygon fill="#ffffff" stroke="#000000" points="189.3247,-.5 189.3247,-18.5 282.0386,-18.5 282.0386,-.5 189.3247,-.5"/>
<text text-anchor="middle" x="235.6816" y="-6.5" font-family="Helvetica,sans-Serif" font-size="10.00" fill="#000000">lcd_set_backlight</text>
</a>
</g>
</g>
<!-- Node166&#45;&gt;Node174 -->
<g id="edge11" class="edge">
<title>Node166&#45;&gt;Node174</title>
<path fill="none" stroke="#191970" d="M116.5347,-83.8105C128.4229,-66.9272 148.4855,-41.9802 171.8076,-27.5 177.6804,-23.8537 184.309,-20.9278 191.0166,-18.585"/>
<polygon fill="#191970" stroke="#191970" points="113.5299,-82.0051 110.8024,-92.2428 119.3189,-85.9405 113.5299,-82.0051"/>
</g>
<!-- Node167&#45;&gt;Node168 -->
<g id="edge3" class="edge">
<title>Node167&#45;&gt;Node168</title>
<path fill="none" stroke="#191970" d="M309.6596,-157.5C318.2791,-157.5 326.9223,-157.5 335.1376,-157.5"/>
<polygon fill="#191970" stroke="#191970" points="309.5791,-154.0001 299.579,-157.5 309.579,-161.0001 309.5791,-154.0001"/>
</g>
<!-- Node170 -->
<g id="node6" class="node">
<title>Node170</title>
<g id="a_node6"><a xlink:href="menu_8h.html#aee3e9f838cdbb1745c68974490aabb99" target="_top" xlink:title="display_menu">
<polygon fill="#ffffff" stroke="#000000" points="347.499,-111.5 347.499,-129.5 425.2031,-129.5 425.2031,-111.5 347.499,-111.5"/>
<text text-anchor="middle" x="386.3511" y="-117.5" font-family="Helvetica,sans-Serif" font-size="10.00" fill="#000000">display_menu</text>
</a>
</g>
</g>
<!-- Node167&#45;&gt;Node170 -->
<g id="edge5" class="edge">
<title>Node167&#45;&gt;Node170</title>
<path fill="none" stroke="#191970" d="M282.4977,-146.0033C304.1124,-140.6954 329.4016,-134.4851 349.6129,-129.5218"/>
<polygon fill="#191970" stroke="#191970" points="281.4163,-142.6648 272.5395,-148.4488 283.0857,-149.4629 281.4163,-142.6648"/>
</g>
<!-- Node169 -->
<g id="node5" class="node">
<title>Node169</title>
<g id="a_node5"><a xlink:href="init_8c.html#a25a40b6614565f755233080a384c35f1" target="_top" xlink:title="initialize">
<polygon fill="#ffffff" stroke="#000000" points="473.1465,-148.5 473.1465,-166.5 524.7178,-166.5 524.7178,-148.5 473.1465,-148.5"/>
<text text-anchor="middle" x="498.9321" y="-154.5" font-family="Helvetica,sans-Serif" font-size="10.00" fill="#000000">initialize</text>
</a>
</g>
</g>
<!-- Node168&#45;&gt;Node169 -->
<g id="edge4" class="edge">
<title>Node168&#45;&gt;Node169</title>
<path fill="none" stroke="#191970" d="M447.5163,-157.5C456.4827,-157.5 465.2829,-157.5 472.9978,-157.5"/>
<polygon fill="#191970" stroke="#191970" points="447.3713,-154.0001 437.3712,-157.5 447.3712,-161.0001 447.3713,-154.0001"/>
</g>
<!-- Node172&#45;&gt;Node168 -->
<g id="edge8" class="edge">
<title>Node172&#45;&gt;Node168</title>
<path fill="none" stroke="#191970" d="M272.5127,-129.5446C295.9008,-135.2881 326.0604,-142.6944 349.46,-148.4406"/>
<polygon fill="#191970" stroke="#191970" points="273.1645,-126.1008 262.6183,-127.1149 271.4951,-132.8988 273.1645,-126.1008"/>
</g>
<!-- Node172&#45;&gt;Node170 -->
<g id="edge9" class="edge">
<title>Node172&#45;&gt;Node170</title>
<path fill="none" stroke="#191970" d="M272.8729,-120.5C295.5508,-120.5 324.4928,-120.5 347.4719,-120.5"/>
<polygon fill="#191970" stroke="#191970" points="272.6184,-117.0001 262.6183,-120.5 272.6183,-124.0001 272.6184,-117.0001"/>
</g>
</g>
</svg>
