<?xml version="1.0" encoding="UTF-8" standalone="no"?>
<!DOCTYPE svg PUBLIC "-//W3C//DTD SVG 1.1//EN"
 "http://www.w3.org/Graphics/SVG/1.1/DTD/svg11.dtd">
<!-- Generated by graphviz version 2.40.1 (20161225.0304)
 -->
<!-- Title: printf Pages: 1 -->
<!--zoomable 322 -->
<svg id="main" version="1.1" xmlns="http://www.w3.org/2000/svg" xmlns:xlink="http://www.w3.org/1999/xlink" xml:space="preserve" onload="init(evt)">
<style type="text/css"><![CDATA[
.edge:hover path { stroke: red; }
.edge:hover polygon { stroke: red; fill: red; }
]]></style>
<script type="text/javascript"><![CDATA[
var edges = document.getElementsByTagName('g');
if (edges && edges.length) {
  for (var i=0;i<edges.length;i++) {
    if (edges[i].id.substr(0,4)=='edge') {
      edges[i].setAttribute('class','edge');
    }
  }
}
]]></script>
        <defs>
                <circle id="rim" cx="0" cy="0" r="7"/>
                <circle id="rim2" cx="0" cy="0" r="3.5"/>
                <g id="zoomPlus">
                        <use xlink:href="#rim" fill="#404040">
                                <set attributeName="fill" to="#808080" begin="zoomplus.mouseover" end="zoomplus.mouseout"/>
                        </use>
                        <path d="M-4,0h8M0,-4v8" fill="none" stroke="white" stroke-width="1.5" pointer-events="none"/>
                </g>
                <g id="zoomMin">
                        <use xlink:href="#rim" fill="#404040">
                                <set attributeName="fill" to="#808080" begin="zoomminus.mouseover" end="zoomminus.mouseout"/>
                        </use>
                        <path d="M-4,0h8" fill="none" stroke="white" stroke-width="1.5" pointer-events="none"/>
                </g>
                <g id="dirArrow">
                        <path fill="none" stroke="white" stroke-width="1.5" d="M0,-3.0v7 M-2.5,-0.5L0,-3.0L2.5,-0.5"/>
                </g>
               <g id="resetDef">
                       <use xlink:href="#rim2" fill="#404040">
                               <set attributeName="fill" to="#808080" begin="reset.mouseover" end="reset.mouseout"/>
                       </use>
               </g>
        </defs>

<script type="text/javascript">
var viewWidth = 533;
var viewHeight = 322;
var sectionId = 'dynsection-19';
</script>
<script xlink:href="svgpan.js"/>
<svg id="graph" class="graph">
<g id="viewport">
<title>printf</title>
<!-- Node195 -->
<g id="node1" class="node">
<title>Node195</title>
<polygon fill="#bfbfbf" stroke="#000000" points="0,-183.5254 0,-201.5254 38.2314,-201.5254 38.2314,-183.5254 0,-183.5254"/>
<text text-anchor="middle" x="19.1157" y="-189.5254" font-family="Helvetica,sans-Serif" font-size="10.00" fill="#000000">printf</text>
</g>
<!-- Node196 -->
<g id="node2" class="node">
<title>Node196</title>
<g id="a_node2"><a xlink:href="log_8c.html#af3668f40d1ad1b4f3418869ac9a31f34" target="_top" xlink:title="prints a info message ">
<polygon fill="none" stroke="#000000" points="83.1157,-239.5254 83.1157,-257.5254 126.9233,-257.5254 126.9233,-239.5254 83.1157,-239.5254"/>
<text text-anchor="middle" x="105.0195" y="-245.5254" font-family="Helvetica,sans-Serif" font-size="10.00" fill="#000000">debug</text>
</a>
</g>
</g>
<!-- Node195&#45;&gt;Node196 -->
<g id="edge1" class="edge">
<title>Node195&#45;&gt;Node196</title>
<path fill="none" stroke="#191970" d="M41.8913,-207.3726C57.5371,-217.5719 77.8048,-230.7843 91.0982,-239.4502"/>
<polygon fill="#191970" stroke="#191970" points="43.5896,-204.3017 33.301,-201.7726 39.7668,-210.1657 43.5896,-204.3017"/>
</g>
<!-- Node200 -->
<g id="node6" class="node">
<title>Node200</title>
<g id="a_node6"><a xlink:href="log_8c.html#a1606d750e1bb8de9f9e917172bba3382" target="_top" xlink:title="prints a info message ">
<polygon fill="none" stroke="#000000" points="88.958,-295.5254 88.958,-313.5254 121.0811,-313.5254 121.0811,-295.5254 88.958,-295.5254"/>
<text text-anchor="middle" x="105.0195" y="-301.5254" font-family="Helvetica,sans-Serif" font-size="10.00" fill="#000000">info</text>
</a>
</g>
</g>
<!-- Node195&#45;&gt;Node200 -->
<g id="edge5" class="edge">
<title>Node195&#45;&gt;Node200</title>
<path fill="none" stroke="#191970" d="M31.8975,-210.1046C42.9429,-225.1941 59.4179,-247.4602 74.2314,-266.5254 81.9416,-276.4485 91.0272,-287.5987 97.3208,-295.2406"/>
<polygon fill="#191970" stroke="#191970" points="34.5075,-207.7437 25.7852,-201.7294 28.8532,-211.8703 34.5075,-207.7437"/>
</g>
<!-- Node201 -->
<g id="node7" class="node">
<title>Node201</title>
<g id="a_node7"><a xlink:href="lcd_8c.html#a07f04b524b5ded617d5f193db05ba0ad" target="_top" xlink:title="Asserts the lcd is initialized Works by checking is the File *lcd_port is the default NULL value and ...">
<polygon fill="none" stroke="#000000" points="74.2314,-165.5254 74.2314,-183.5254 135.8076,-183.5254 135.8076,-165.5254 74.2314,-165.5254"/>
<text text-anchor="middle" x="105.0195" y="-171.5254" font-family="Helvetica,sans-Serif" font-size="10.00" fill="#000000">lcd_assert</text>
</a>
</g>
</g>
<!-- Node195&#45;&gt;Node201 -->
<g id="edge7" class="edge">
<title>Node195&#45;&gt;Node201</title>
<path fill="none" stroke="#191970" d="M48.5625,-186.3552C56.8168,-184.6256 65.812,-182.7408 74.1466,-180.9944"/>
<polygon fill="#191970" stroke="#191970" points="47.6783,-182.9644 38.6086,-188.4409 49.1139,-189.8156 47.6783,-182.9644"/>
</g>
<!-- Node209 -->
<g id="node15" class="node">
<title>Node209</title>
<g id="a_node15"><a xlink:href="log_8c.html#afff22aff6749311a684a559cac3ac8bd" target="_top" xlink:title="log_info">
<polygon fill="none" stroke="#000000" points="79.5049,-15.5254 79.5049,-33.5254 130.5342,-33.5254 130.5342,-15.5254 79.5049,-15.5254"/>
<text text-anchor="middle" x="105.0195" y="-21.5254" font-family="Helvetica,sans-Serif" font-size="10.00" fill="#000000">log_info</text>
</a>
</g>
</g>
<!-- Node195&#45;&gt;Node209 -->
<g id="edge19" class="edge">
<title>Node195&#45;&gt;Node209</title>
<path fill="none" stroke="#191970" d="M28.48,-174.212C46.7988,-138.3862 86.7729,-60.2098 100.3781,-33.6024"/>
<polygon fill="#191970" stroke="#191970" points="25.1708,-172.9959 23.7343,-183.493 31.4033,-176.1829 25.1708,-172.9959"/>
</g>
<!-- Node197 -->
<g id="node3" class="node">
<title>Node197</title>
<g id="a_node3"><a xlink:href="slew_8c.html#a807a87c5df438fde21c1e8213906695b" target="_top" xlink:title="Closes the distance between the desired motor value and the current motor value by half for each moto...">
<polygon fill="none" stroke="#000000" points="197.1079,-276.5254 197.1079,-294.5254 274.2554,-294.5254 274.2554,-276.5254 197.1079,-276.5254"/>
<text text-anchor="middle" x="235.6816" y="-282.5254" font-family="Helvetica,sans-Serif" font-size="10.00" fill="#000000">updateMotors</text>
</a>
</g>
</g>
<!-- Node196&#45;&gt;Node197 -->
<g id="edge2" class="edge">
<title>Node196&#45;&gt;Node197</title>
<path fill="none" stroke="#191970" d="M136.8931,-257.5511C157.1527,-263.2881 183.2916,-270.6899 203.5926,-276.4386"/>
<polygon fill="#191970" stroke="#191970" points="137.7599,-254.159 127.1846,-254.8019 135.8526,-260.8942 137.7599,-254.159"/>
</g>
<!-- Node198 -->
<g id="node4" class="node">
<title>Node198</title>
<g id="a_node4"><a xlink:href="slew_8c.html#a321758941d88b75783955c819bb75005" target="_top" xlink:title="Initializes the slew rate controller. ">
<polygon fill="none" stroke="#000000" points="359.1763,-276.5254 359.1763,-294.5254 413.5259,-294.5254 413.5259,-276.5254 359.1763,-276.5254"/>
<text text-anchor="middle" x="386.3511" y="-282.5254" font-family="Helvetica,sans-Serif" font-size="10.00" fill="#000000">init_slew</text>
</a>
</g>
</g>
<!-- Node197&#45;&gt;Node198 -->
<g id="edge3" class="edge">
<title>Node197&#45;&gt;Node198</title>
<path fill="none" stroke="#191970" d="M284.7591,-285.5254C309.4368,-285.5254 338.411,-285.5254 359.0878,-285.5254"/>
<polygon fill="#191970" stroke="#191970" points="284.4828,-282.0255 274.4828,-285.5254 284.4827,-289.0255 284.4828,-282.0255"/>
</g>
<!-- Node199 -->
<g id="node5" class="node">
<title>Node199</title>
<g id="a_node5"><a xlink:href="init_8c.html#a25a40b6614565f755233080a384c35f1" target="_top" xlink:title="initialize">
<polygon fill="none" stroke="#000000" points="473.1465,-91.5254 473.1465,-109.5254 524.7178,-109.5254 524.7178,-91.5254 473.1465,-91.5254"/>
<text text-anchor="middle" x="498.9321" y="-97.5254" font-family="Helvetica,sans-Serif" font-size="10.00" fill="#000000">initialize</text>
</a>
</g>
</g>
<!-- Node198&#45;&gt;Node199 -->
<g id="edge4" class="edge">
<title>Node198&#45;&gt;Node199</title>
<path fill="none" stroke="#191970" d="M397.187,-267.7191C420.677,-229.1189 475.5986,-138.8684 493.3155,-109.7549"/>
<polygon fill="#191970" stroke="#191970" points="394.1427,-265.9891 391.934,-276.3512 400.1225,-269.6281 394.1427,-265.9891"/>
</g>
<!-- Node200&#45;&gt;Node198 -->
<g id="edge6" class="edge">
<title>Node200&#45;&gt;Node198</title>
<path fill="none" stroke="#191970" d="M131.3011,-306.3119C168.7736,-308.454 239.6561,-311.0048 299.5557,-304.5254 319.6458,-302.3522 341.9029,-297.4278 358.8484,-293.1371"/>
<polygon fill="#191970" stroke="#191970" points="131.4176,-302.8126 121.2234,-305.6986 130.9923,-309.7997 131.4176,-302.8126"/>
</g>
<!-- Node202 -->
<g id="node8" class="node">
<title>Node202</title>
<g id="a_node8"><a xlink:href="lcd_8c.html#ac7b3225ccc82fcbe067ba9da934f010d" target="_top" xlink:title="Returns the pressed buttons. ">
<polygon fill="none" stroke="#000000" points="171.8076,-202.5254 171.8076,-220.5254 299.5557,-220.5254 299.5557,-202.5254 171.8076,-202.5254"/>
<text text-anchor="middle" x="235.6816" y="-208.5254" font-family="Helvetica,sans-Serif" font-size="10.00" fill="#000000">lcd_get_pressed_buttons</text>
</a>
</g>
</g>
<!-- Node201&#45;&gt;Node202 -->
<g id="edge8" class="edge">
<title>Node201&#45;&gt;Node202</title>
<path fill="none" stroke="#191970" d="M145.6878,-186.0415C164.3289,-191.3202 186.1098,-197.488 203.5743,-202.4334"/>
<polygon fill="#191970" stroke="#191970" points="146.5599,-182.6509 135.9846,-183.2939 144.6527,-189.3861 146.5599,-182.6509"/>
</g>
<!-- Node203 -->
<g id="node9" class="node">
<title>Node203</title>
<g id="a_node9"><a xlink:href="lcd_8c.html#a99f4683e1990edf624ab216bf327cba4" target="_top" xlink:title="Prompts the user to confirm a string. User must press middle button to confirm. Function is not threa...">
<polygon fill="none" stroke="#000000" points="335.5557,-91.5254 335.5557,-109.5254 437.1465,-109.5254 437.1465,-91.5254 335.5557,-91.5254"/>
<text text-anchor="middle" x="386.3511" y="-97.5254" font-family="Helvetica,sans-Serif" font-size="10.00" fill="#000000">promt_confirmation</text>
</a>
</g>
</g>
<!-- Node201&#45;&gt;Node203 -->
<g id="edge18" class="edge">
<title>Node201&#45;&gt;Node203</title>
<path fill="none" stroke="#191970" d="M112.082,-156.0175C121.7422,-133.6603 141.4235,-97.1125 171.8076,-81.5254 235.6868,-48.7552 324.4279,-75.8278 364.806,-91.4122"/>
<polygon fill="#191970" stroke="#191970" points="108.778,-154.8509 108.2437,-165.4322 115.26,-157.4936 108.778,-154.8509"/>
</g>
<!-- Node205 -->
<g id="node11" class="node">
<title>Node205</title>
<g id="a_node11"><a xlink:href="lcd_8c.html#a35c08b1fa742e650f4873939707b893b" target="_top" xlink:title="Clears the lcd. ">
<polygon fill="none" stroke="#000000" points="207.6719,-165.5254 207.6719,-183.5254 263.6914,-183.5254 263.6914,-165.5254 207.6719,-165.5254"/>
<text text-anchor="middle" x="235.6816" y="-171.5254" font-family="Helvetica,sans-Serif" font-size="10.00" fill="#000000">lcd_clear</text>
</a>
</g>
</g>
<!-- Node201&#45;&gt;Node205 -->
<g id="edge12" class="edge">
<title>Node201&#45;&gt;Node205</title>
<path fill="none" stroke="#191970" d="M146.0834,-174.5254C166.1061,-174.5254 189.6736,-174.5254 207.6112,-174.5254"/>
<polygon fill="#191970" stroke="#191970" points="145.9847,-171.0255 135.9846,-174.5254 145.9846,-178.0255 145.9847,-171.0255"/>
</g>
<!-- Node206 -->
<g id="node12" class="node">
<title>Node206</title>
<g id="a_node12"><a xlink:href="lcd_8c.html#adabd3f7cdda45119604b488caf22bba8" target="_top" xlink:title="prints a string to a line on the lcd ">
<polygon fill="none" stroke="#000000" points="208.7827,-91.5254 208.7827,-109.5254 262.5806,-109.5254 262.5806,-91.5254 208.7827,-91.5254"/>
<text text-anchor="middle" x="235.6816" y="-97.5254" font-family="Helvetica,sans-Serif" font-size="10.00" fill="#000000">lcd_print</text>
</a>
</g>
</g>
<!-- Node201&#45;&gt;Node206 -->
<g id="edge13" class="edge">
<title>Node201&#45;&gt;Node206</title>
<path fill="none" stroke="#191970" d="M120.6626,-158.0466C133.3641,-145.5541 152.3091,-128.8312 171.8076,-118.5254 183.2158,-112.4956 196.8677,-108.2966 208.6165,-105.4805"/>
<polygon fill="#191970" stroke="#191970" points="118.1504,-155.6095 113.6119,-165.183 123.1299,-160.5292 118.1504,-155.6095"/>
</g>
<!-- Node207 -->
<g id="node13" class="node">
<title>Node207</title>
<g id="a_node13"><a xlink:href="lcd_8c.html#aa0d4ca88701dfecf98796e2028482b69" target="_top" xlink:title="prints a formated string to a line on the lcd. Smilar to printf ">
<polygon fill="none" stroke="#000000" points="207.3936,-128.5254 207.3936,-146.5254 263.9697,-146.5254 263.9697,-128.5254 207.3936,-128.5254"/>
<text text-anchor="middle" x="235.6816" y="-134.5254" font-family="Helvetica,sans-Serif" font-size="10.00" fill="#000000">lcd_printf</text>
</a>
</g>
</g>
<!-- Node201&#45;&gt;Node207 -->
<g id="edge16" class="edge">
<title>Node201&#45;&gt;Node207</title>
<path fill="none" stroke="#191970" d="M145.7761,-162.9135C154.3719,-160.4693 163.3873,-157.9095 171.8076,-155.5254 183.4472,-152.2297 196.2841,-148.6094 207.3781,-145.4852"/>
<polygon fill="#191970" stroke="#191970" points="144.5994,-159.6093 135.9388,-165.7121 146.5149,-166.3421 144.5994,-159.6093"/>
</g>
<!-- Node208 -->
<g id="node14" class="node">
<title>Node208</title>
<g id="a_node14"><a xlink:href="lcd_8c.html#a245902a4d48a6d9bd1ab308bf9b7e6b5" target="_top" xlink:title="sets the backlight of the lcd ">
<polygon fill="none" stroke="#000000" points="189.3247,-239.5254 189.3247,-257.5254 282.0386,-257.5254 282.0386,-239.5254 189.3247,-239.5254"/>
<text text-anchor="middle" x="235.6816" y="-245.5254" font-family="Helvetica,sans-Serif" font-size="10.00" fill="#000000">lcd_set_backlight</text>
</a>
</g>
</g>
<!-- Node201&#45;&gt;Node208 -->
<g id="edge17" class="edge">
<title>Node201&#45;&gt;Node208</title>
<path fill="none" stroke="#191970" d="M121.1208,-190.9664C133.8699,-203.1482 152.6631,-219.3381 171.8076,-229.5254 179.3656,-233.5471 187.8912,-236.8314 196.1936,-239.4685"/>
<polygon fill="#191970" stroke="#191970" points="123.2572,-188.1586 113.6726,-183.6434 118.3495,-193.1501 123.2572,-188.1586"/>
</g>
<!-- Node202&#45;&gt;Node203 -->
<g id="edge9" class="edge">
<title>Node202&#45;&gt;Node203</title>
<path fill="none" stroke="#191970" d="M287.1746,-198.8567C291.4926,-197.0098 295.6825,-194.9097 299.5557,-192.5254 304.3474,-189.5756 357.1225,-132.355 377.9599,-109.6733"/>
<polygon fill="#191970" stroke="#191970" points="285.6894,-195.6771 277.5903,-202.5076 288.1812,-202.2185 285.6894,-195.6771"/>
</g>
<!-- Node204 -->
<g id="node10" class="node">
<title>Node204</title>
<g id="a_node10"><a xlink:href="menu_8c.html#abfadedb104f89f672dd3045499975a71" target="_top" xlink:title="Displays a menu context, but does not display. &#160;Menu must be freed or will cause memory leak! &#160;Will e...">
<polygon fill="none" stroke="#000000" points="347.499,-165.5254 347.499,-183.5254 425.2031,-183.5254 425.2031,-165.5254 347.499,-165.5254"/>
<text text-anchor="middle" x="386.3511" y="-171.5254" font-family="Helvetica,sans-Serif" font-size="10.00" fill="#000000">display_menu</text>
</a>
</g>
</g>
<!-- Node202&#45;&gt;Node204 -->
<g id="edge11" class="edge">
<title>Node202&#45;&gt;Node204</title>
<path fill="none" stroke="#191970" d="M282.4977,-200.0287C304.1124,-194.7208 329.4016,-188.5105 349.6129,-183.5472"/>
<polygon fill="#191970" stroke="#191970" points="281.4163,-196.6902 272.5395,-202.4742 283.0857,-203.4882 281.4163,-196.6902"/>
</g>
<!-- Node203&#45;&gt;Node199 -->
<g id="edge10" class="edge">
<title>Node203&#45;&gt;Node199</title>
<path fill="none" stroke="#191970" d="M447.5163,-100.5254C456.4827,-100.5254 465.2829,-100.5254 472.9978,-100.5254"/>
<polygon fill="#191970" stroke="#191970" points="447.3713,-97.0255 437.3712,-100.5254 447.3712,-104.0255 447.3713,-97.0255"/>
</g>
<!-- Node206&#45;&gt;Node203 -->
<g id="edge14" class="edge">
<title>Node206&#45;&gt;Node203</title>
<path fill="none" stroke="#191970" d="M272.8652,-100.5254C291.6841,-100.5254 314.8181,-100.5254 335.2789,-100.5254"/>
<polygon fill="#191970" stroke="#191970" points="272.6184,-97.0255 262.6183,-100.5254 272.6183,-104.0255 272.6184,-97.0255"/>
</g>
<!-- Node206&#45;&gt;Node204 -->
<g id="edge15" class="edge">
<title>Node206&#45;&gt;Node204</title>
<path fill="none" stroke="#191970" d="M272.611,-108.9131C281.6138,-111.5041 291.0862,-114.7041 299.5557,-118.5254 328.3248,-131.5055 358.5607,-153.1067 374.6488,-165.3398"/>
<polygon fill="#191970" stroke="#191970" points="273.291,-105.4715 262.7245,-106.2459 271.4677,-112.2298 273.291,-105.4715"/>
</g>
<!-- Node210 -->
<g id="node16" class="node">
<title>Node210</title>
<g id="a_node16"><a xlink:href="log_8c.html#a8e5bb8a2a372f5b066ff7af7044584c1" target="_top" xlink:title="prints a error message and displays on lcd. Only will print and display if log_level is greater than ...">
<polygon fill="none" stroke="#000000" points="217.125,-15.5254 217.125,-33.5254 254.2383,-33.5254 254.2383,-15.5254 217.125,-15.5254"/>
<text text-anchor="middle" x="235.6816" y="-21.5254" font-family="Helvetica,sans-Serif" font-size="10.00" fill="#000000">error</text>
</a>
</g>
</g>
<!-- Node209&#45;&gt;Node210 -->
<g id="edge20" class="edge">
<title>Node209&#45;&gt;Node210</title>
<path fill="none" stroke="#191970" d="M140.917,-24.5254C165.5843,-24.5254 197.3294,-24.5254 217.0932,-24.5254"/>
<polygon fill="#191970" stroke="#191970" points="140.8342,-21.0255 130.8342,-24.5254 140.8341,-28.0255 140.8342,-21.0255"/>
</g>
<!-- Node211 -->
<g id="node17" class="node">
<title>Node211</title>
<g id="a_node17"><a xlink:href="log_8c.html#a0bec2cf5fff7f607bc510b74aba9887c" target="_top" xlink:title="prints a warning message and displays on lcd. Only will print and display if log_level is greater tha...">
<polygon fill="none" stroke="#000000" points="360.8413,-16.5254 360.8413,-34.5254 411.8608,-34.5254 411.8608,-16.5254 360.8413,-16.5254"/>
<text text-anchor="middle" x="386.3511" y="-22.5254" font-family="Helvetica,sans-Serif" font-size="10.00" fill="#000000">warning</text>
</a>
</g>
</g>
<!-- Node209&#45;&gt;Node211 -->
<g id="edge21" class="edge">
<title>Node209&#45;&gt;Node211</title>
<path fill="none" stroke="#191970" d="M140.3288,-12.5112C150.3793,-9.6326 161.4201,-6.9742 171.8076,-5.5254 228.0402,2.3176 243.1424,.8901 299.5557,-5.5254 320.4514,-7.9017 343.6414,-13.3977 360.7906,-18.0281"/>
<polygon fill="#191970" stroke="#191970" points="139.2316,-9.1863 130.6694,-15.4265 141.2542,-15.8878 139.2316,-9.1863"/>
</g>
<!-- Node211&#45;&gt;Node199 -->
<g id="edge22" class="edge">
<title>Node211&#45;&gt;Node199</title>
<path fill="none" stroke="#191970" d="M408.5597,-40.3205C431.4239,-55.5523 466.3188,-78.7988 485.3662,-91.4879"/>
<polygon fill="#191970" stroke="#191970" points="410.4186,-37.3533 400.1557,-34.7218 406.5376,-43.1789 410.4186,-37.3533"/>
</g>
</g>
</svg>
        <g id="navigator" transform="translate(0 0)" fill="#404254">
                <rect fill="#f2f5e9" fill-opacity="0.5" stroke="#606060" stroke-width=".5" x="0" y="0" width="60" height="60"/>
                <use id="zoomplus" xlink:href="#zoomPlus" x="17" y="9" onmousedown="handleZoom(evt,'in')"/>
                <use id="zoomminus" xlink:href="#zoomMin" x="42" y="9" onmousedown="handleZoom(evt,'out')"/>
                <use id="reset" xlink:href="#resetDef" x="30" y="36" onmousedown="handleReset()"/>
                <g id="arrowUp" xlink:href="#dirArrow" transform="translate(30 24)" onmousedown="handlePan(0,-1)">
                  <use xlink:href="#rim" fill="#404040">
                        <set attributeName="fill" to="#808080" begin="arrowUp.mouseover" end="arrowUp.mouseout"/>
                  </use>
                  <path fill="none" stroke="white" stroke-width="1.5" d="M0,-3.0v7 M-2.5,-0.5L0,-3.0L2.5,-0.5"/>
                </g>
                <g id="arrowRight" xlink:href="#dirArrow" transform="rotate(90) translate(36 -43)" onmousedown="handlePan(1,0)">
                  <use xlink:href="#rim" fill="#404040">
                        <set attributeName="fill" to="#808080" begin="arrowRight.mouseover" end="arrowRight.mouseout"/>
                  </use>
                  <path fill="none" stroke="white" stroke-width="1.5" d="M0,-3.0v7 M-2.5,-0.5L0,-3.0L2.5,-0.5"/>
                </g>
                <g id="arrowDown" xlink:href="#dirArrow" transform="rotate(180) translate(-30 -48)" onmousedown="handlePan(0,1)">
                  <use xlink:href="#rim" fill="#404040">
                        <set attributeName="fill" to="#808080" begin="arrowDown.mouseover" end="arrowDown.mouseout"/>
                  </use>
                  <path fill="none" stroke="white" stroke-width="1.5" d="M0,-3.0v7 M-2.5,-0.5L0,-3.0L2.5,-0.5"/>
                </g>
                <g id="arrowLeft" xlink:href="#dirArrow" transform="rotate(270) translate(-36 17)" onmousedown="handlePan(-1,0)">
                  <use xlink:href="#rim" fill="#404040">
                        <set attributeName="fill" to="#808080" begin="arrowLeft.mouseover" end="arrowLeft.mouseout"/>
                  </use>
                  <path fill="none" stroke="white" stroke-width="1.5" d="M0,-3.0v7 M-2.5,-0.5L0,-3.0L2.5,-0.5"/>
                </g>
        </g>
        <svg viewBox="0 0 15 15" width="100%" height="30px" preserveAspectRatio="xMaxYMin meet">
         <g id="arrow_out" transform="scale(0.3 0.3)">
          <a xlink:href="_a_p_i_8h_a403c82418e475fa4a8273719e6a7f3e6_icgraph_org.svg" target="_base">
           <rect id="button" ry="5" rx="5" y="6" x="6" height="38" width="38"
                fill="#f2f5e9" fill-opacity="0.5" stroke="#606060" stroke-width="1.0"/>
           <path id="arrow"
             d="M 11.500037,31.436501 C 11.940474,20.09759 22.043105,11.32322 32.158766,21.979434 L 37.068811,17.246167 C 37.068811,17.246167 37.088388,32 37.088388,32 L 22.160133,31.978069 C 22.160133,31.978069 26.997745,27.140456 26.997745,27.140456 C 18.528582,18.264221 13.291696,25.230495 11.500037,31.436501 z"
             style="fill:#404040;"/>
          </a>
         </g>
        </svg>
</svg>
