<?xml version="1.0" encoding="UTF-8" standalone="no"?>
<!DOCTYPE svg PUBLIC "-//W3C//DTD SVG 1.1//EN"
 "http://www.w3.org/Graphics/SVG/1.1/DTD/svg11.dtd">
<!-- Generated by graphviz version 2.40.1 (20161225.0304)
 -->
<!-- Title: powerLevelBackup Pages: 1 -->
<svg width="429pt" height="27pt"
 viewBox="0.00 0.00 429.31 27.00" xmlns="http://www.w3.org/2000/svg" xmlns:xlink="http://www.w3.org/1999/xlink">
<g id="graph0" class="graph" transform="scale(1 1) rotate(0) translate(4 23)">
<title>powerLevelBackup</title>
<!-- Node350 -->
<g id="node1" class="node">
<title>Node350</title>
<polygon fill="#bfbfbf" stroke="#000000" points="0,-.5 0,-18.5 100.4971,-18.5 100.4971,-.5 0,-.5"/>
<text text-anchor="middle" x="50.2485" y="-6.5" font-family="Helvetica,sans-Serif" font-size="10.00" fill="#000000">powerLevelBackup</text>
</g>
<!-- Node351 -->
<g id="node2" class="node">
<title>Node351</title>
<g id="a_node2"><a xlink:href="battery_8c.html#a9b1c5cf7ddddebf63796050a1d4a9969" target="_top" xlink:title="gets the backup battery voltage ">
<polygon fill="none" stroke="#000000" points="136.4971,-.5 136.4971,-18.5 258.6836,-18.5 258.6836,-.5 136.4971,-.5"/>
<text text-anchor="middle" x="197.5903" y="-6.5" font-family="Helvetica,sans-Serif" font-size="10.00" fill="#000000">backup_battery_voltage</text>
</a>
</g>
</g>
<!-- Node350&#45;&gt;Node351 -->
<g id="edge1" class="edge">
<title>Node350&#45;&gt;Node351</title>
<path fill="none" stroke="#191970" d="M110.7012,-9.5C119.1522,-9.5 127.8431,-9.5 136.3093,-9.5"/>
<polygon fill="#191970" stroke="#191970" points="110.5432,-6.0001 100.5431,-9.5 110.5431,-13.0001 110.5432,-6.0001"/>
</g>
<!-- Node352 -->
<g id="node3" class="node">
<title>Node352</title>
<g id="a_node3"><a xlink:href="battery_8c.html#a1097bbb878f6e2690f8eea6cd231959a" target="_top" xlink:title="returns if the batteries are acceptable ">
<polygon fill="none" stroke="#000000" points="294.6836,-.5 294.6836,-18.5 421.3135,-18.5 421.3135,-.5 294.6836,-.5"/>
<text text-anchor="middle" x="357.9985" y="-6.5" font-family="Helvetica,sans-Serif" font-size="10.00" fill="#000000">battery_level_acceptable</text>
</a>
</g>
</g>
<!-- Node351&#45;&gt;Node352 -->
<g id="edge2" class="edge">
<title>Node351&#45;&gt;Node352</title>
<path fill="none" stroke="#191970" d="M268.741,-9.5C277.3781,-9.5 286.157,-9.5 294.6702,-9.5"/>
<polygon fill="#191970" stroke="#191970" points="268.6914,-6.0001 258.6914,-9.5 268.6914,-13.0001 268.6914,-6.0001"/>
</g>
</g>
</svg>
