<?xml version="1.0" encoding="UTF-8" standalone="no"?>
<!DOCTYPE svg PUBLIC "-//W3C//DTD SVG 1.1//EN"
 "http://www.w3.org/Graphics/SVG/1.1/DTD/svg11.dtd">
<!-- Generated by graphviz version 2.40.1 (20161225.0304)
 -->
<!-- Title: printf Pages: 1 -->
<svg width="635pt" height="389pt"
 viewBox="0.00 0.00 635.32 388.82" xmlns="http://www.w3.org/2000/svg" xmlns:xlink="http://www.w3.org/1999/xlink">
<g id="graph0" class="graph" transform="scale(1 1) rotate(0) translate(4 384.8235)">
<title>printf</title>
<!-- Node205 -->
<g id="node1" class="node">
<title>Node205</title>
<polygon fill="#bfbfbf" stroke="#000000" points="0,-293.5 0,-311.5 38.2314,-311.5 38.2314,-293.5 0,-293.5"/>
<text text-anchor="middle" x="19.1157" y="-299.5" font-family="Helvetica,sans-Serif" font-size="10.00" fill="#000000">printf</text>
</g>
<!-- Node206 -->
<g id="node2" class="node">
<title>Node206</title>
<g id="a_node2"><a xlink:href="log_8c.html#af3668f40d1ad1b4f3418869ac9a31f34" target="_top" xlink:title="prints a info message ">
<polygon fill="none" stroke="#000000" points="77.8423,-312.5 77.8423,-330.5 121.6499,-330.5 121.6499,-312.5 77.8423,-312.5"/>
<text text-anchor="middle" x="99.7461" y="-318.5" font-family="Helvetica,sans-Serif" font-size="10.00" fill="#000000">debug</text>
</a>
</g>
</g>
<!-- Node205&#45;&gt;Node206 -->
<g id="edge1" class="edge">
<title>Node205&#45;&gt;Node206</title>
<path fill="none" stroke="#191970" d="M48.5666,-309.4399C58.1442,-311.6968 68.6057,-314.162 77.5601,-316.272"/>
<polygon fill="#191970" stroke="#191970" points="49.1703,-305.9864 38.6341,-307.0994 47.5647,-312.7998 49.1703,-305.9864"/>
</g>
<!-- Node210 -->
<g id="node6" class="node">
<title>Node210</title>
<g id="a_node6"><a xlink:href="log_8c.html#a1606d750e1bb8de9f9e917172bba3382" target="_top" xlink:title="prints a info message ">
<polygon fill="none" stroke="#000000" points="83.6846,-349.5 83.6846,-367.5 115.8076,-367.5 115.8076,-349.5 83.6846,-349.5"/>
<text text-anchor="middle" x="99.7461" y="-355.5" font-family="Helvetica,sans-Serif" font-size="10.00" fill="#000000">info</text>
</a>
</g>
</g>
<!-- Node205&#45;&gt;Node210 -->
<g id="edge5" class="edge">
<title>Node205&#45;&gt;Node210</title>
<path fill="none" stroke="#191970" d="M40.906,-317.6339C55.5335,-327.7931 74.3186,-340.8399 86.6794,-349.4248"/>
<polygon fill="#191970" stroke="#191970" points="42.6401,-314.577 32.4302,-311.7473 38.647,-320.3264 42.6401,-314.577"/>
</g>
<!-- Node211 -->
<g id="node7" class="node">
<title>Node211</title>
<g id="a_node7"><a xlink:href="lcd_8c.html#a07f04b524b5ded617d5f193db05ba0ad" target="_top" xlink:title="Asserts the lcd is initialized Works by checking is the File *lcd_port is the default NULL value and ...">
<polygon fill="none" stroke="#000000" points="169.0464,-113.5 169.0464,-131.5 230.6226,-131.5 230.6226,-113.5 169.0464,-113.5"/>
<text text-anchor="middle" x="199.8345" y="-119.5" font-family="Helvetica,sans-Serif" font-size="10.00" fill="#000000">lcd_assert</text>
</a>
</g>
</g>
<!-- Node205&#45;&gt;Node211 -->
<g id="edge7" class="edge">
<title>Node205&#45;&gt;Node211</title>
<path fill="none" stroke="#191970" d="M35.8259,-285.8563C72.9705,-248.8594 161.3996,-160.782 190.426,-131.8711"/>
<polygon fill="#191970" stroke="#191970" points="32.9413,-283.7895 28.326,-293.3263 37.8812,-288.7491 32.9413,-283.7895"/>
</g>
<!-- Node219 -->
<g id="node15" class="node">
<title>Node219</title>
<g id="a_node15"><a xlink:href="log_8c.html#afff22aff6749311a684a559cac3ac8bd" target="_top" xlink:title="log_info">
<polygon fill="none" stroke="#000000" points="74.2314,-275.5 74.2314,-293.5 125.2607,-293.5 125.2607,-275.5 74.2314,-275.5"/>
<text text-anchor="middle" x="99.7461" y="-281.5" font-family="Helvetica,sans-Serif" font-size="10.00" fill="#000000">log_info</text>
</a>
</g>
</g>
<!-- Node205&#45;&gt;Node219 -->
<g id="edge20" class="edge">
<title>Node205&#45;&gt;Node219</title>
<path fill="none" stroke="#191970" d="M48.4066,-295.9611C56.7867,-294.0903 65.8553,-292.0658 74.0055,-290.2464"/>
<polygon fill="#191970" stroke="#191970" points="47.6312,-292.5479 38.6341,-298.1427 49.1564,-299.3798 47.6312,-292.5479"/>
</g>
<!-- Node207 -->
<g id="node3" class="node">
<title>Node207</title>
<g id="a_node3"><a xlink:href="slew_8c.html#a807a87c5df438fde21c1e8213906695b" target="_top" xlink:title="Closes the distance between the desired motor value and the current motor value by half for each moto...">
<polygon fill="none" stroke="#000000" points="161.2607,-312.5 161.2607,-330.5 238.4082,-330.5 238.4082,-312.5 161.2607,-312.5"/>
<text text-anchor="middle" x="199.8345" y="-318.5" font-family="Helvetica,sans-Serif" font-size="10.00" fill="#000000">updateMotors</text>
</a>
</g>
</g>
<!-- Node206&#45;&gt;Node207 -->
<g id="edge2" class="edge">
<title>Node206&#45;&gt;Node207</title>
<path fill="none" stroke="#191970" d="M131.9725,-321.5C141.2694,-321.5 151.5099,-321.5 161.1556,-321.5"/>
<polygon fill="#191970" stroke="#191970" points="131.959,-318.0001 121.9589,-321.5 131.9589,-325.0001 131.959,-318.0001"/>
</g>
<!-- Node208 -->
<g id="node4" class="node">
<title>Node208</title>
<g id="a_node4"><a xlink:href="slew_8c.html#a321758941d88b75783955c819bb75005" target="_top" xlink:title="Initializes the slew rate controller. ">
<polygon fill="none" stroke="#000000" points="311.1074,-350.5 311.1074,-368.5 365.457,-368.5 365.457,-350.5 311.1074,-350.5"/>
<text text-anchor="middle" x="338.2822" y="-356.5" font-family="Helvetica,sans-Serif" font-size="10.00" fill="#000000">init_slew</text>
</a>
</g>
</g>
<!-- Node207&#45;&gt;Node208 -->
<g id="edge3" class="edge">
<title>Node207&#45;&gt;Node208</title>
<path fill="none" stroke="#191970" d="M242.524,-333.2171C264.775,-339.3243 291.3361,-346.6146 310.8337,-351.9662"/>
<polygon fill="#191970" stroke="#191970" points="243.2144,-329.7772 232.6447,-330.5055 241.3616,-336.5275 243.2144,-329.7772"/>
</g>
<!-- Node209 -->
<g id="node5" class="node">
<title>Node209</title>
<g id="a_node5"><a xlink:href="init_8c.html#a25a40b6614565f755233080a384c35f1" target="_top" xlink:title="initialize">
<polygon fill="none" stroke="#000000" points="575.7471,-220.5 575.7471,-238.5 627.3184,-238.5 627.3184,-220.5 575.7471,-220.5"/>
<text text-anchor="middle" x="601.5327" y="-226.5" font-family="Helvetica,sans-Serif" font-size="10.00" fill="#000000">initialize</text>
</a>
</g>
</g>
<!-- Node208&#45;&gt;Node209 -->
<g id="edge4" class="edge">
<title>Node208&#45;&gt;Node209</title>
<path fill="none" stroke="#191970" d="M375.3463,-370.5356C418.4151,-381.0228 489.9278,-390.9819 539.7471,-359.5 583.686,-331.734 597.0124,-263.2674 600.465,-238.5686"/>
<polygon fill="#191970" stroke="#191970" points="376.1184,-367.1204 365.5622,-368.0243 374.3781,-373.9006 376.1184,-367.1204"/>
</g>
<!-- Node210&#45;&gt;Node208 -->
<g id="edge6" class="edge">
<title>Node210&#45;&gt;Node208</title>
<path fill="none" stroke="#191970" d="M126.4156,-358.6118C172.0305,-358.803 264.5688,-359.191 310.7608,-359.3846"/>
<polygon fill="#191970" stroke="#191970" points="126.1563,-355.1108 116.1416,-358.5687 126.1269,-362.1107 126.1563,-355.1108"/>
</g>
<!-- Node212 -->
<g id="node8" class="node">
<title>Node212</title>
<g id="a_node8"><a xlink:href="lcd_8c.html#ac7b3225ccc82fcbe067ba9da934f010d" target="_top" xlink:title="Returns the pressed buttons. ">
<polygon fill="none" stroke="#000000" points="274.4082,-150.5 274.4082,-168.5 402.1563,-168.5 402.1563,-150.5 274.4082,-150.5"/>
<text text-anchor="middle" x="338.2822" y="-156.5" font-family="Helvetica,sans-Serif" font-size="10.00" fill="#000000">lcd_get_pressed_buttons</text>
</a>
</g>
</g>
<!-- Node211&#45;&gt;Node212 -->
<g id="edge8" class="edge">
<title>Node211&#45;&gt;Node212</title>
<path fill="none" stroke="#191970" d="M240.7958,-133.4469C261.0532,-138.8606 285.209,-145.3162 304.4072,-150.4469"/>
<polygon fill="#191970" stroke="#191970" points="241.4695,-130.0041 230.9049,-130.8035 239.6621,-136.7668 241.4695,-130.0041"/>
</g>
<!-- Node213 -->
<g id="node9" class="node">
<title>Node213</title>
<g id="a_node9"><a xlink:href="lcd_8c.html#a99f4683e1990edf624ab216bf327cba4" target="_top" xlink:title="Prompts the user to confirm a string. User must press middle button to confirm. Function is not threa...">
<polygon fill="none" stroke="#000000" points="438.1563,-113.5 438.1563,-131.5 539.7471,-131.5 539.7471,-113.5 438.1563,-113.5"/>
<text text-anchor="middle" x="488.9517" y="-119.5" font-family="Helvetica,sans-Serif" font-size="10.00" fill="#000000">promt_confirmation</text>
</a>
</g>
</g>
<!-- Node211&#45;&gt;Node213 -->
<g id="edge19" class="edge">
<title>Node211&#45;&gt;Node213</title>
<path fill="none" stroke="#191970" d="M237.9989,-110.83C249.5786,-107.819 262.412,-105.0042 274.4082,-103.5 330.744,-96.4362 345.7086,-97.3939 402.1563,-103.5 420.0994,-105.4409 439.771,-109.5764 455.8432,-113.4951"/>
<polygon fill="#191970" stroke="#191970" points="236.9273,-107.4943 228.198,-113.4985 238.7663,-114.2484 236.9273,-107.4943"/>
</g>
<!-- Node215 -->
<g id="node11" class="node">
<title>Node215</title>
<g id="a_node11"><a xlink:href="lcd_8c.html#a35c08b1fa742e650f4873939707b893b" target="_top" xlink:title="Clears the lcd. ">
<polygon fill="none" stroke="#000000" points="310.2725,-37.5 310.2725,-55.5 366.292,-55.5 366.292,-37.5 310.2725,-37.5"/>
<text text-anchor="middle" x="338.2822" y="-43.5" font-family="Helvetica,sans-Serif" font-size="10.00" fill="#000000">lcd_clear</text>
</a>
</g>
</g>
<!-- Node211&#45;&gt;Node215 -->
<g id="edge13" class="edge">
<title>Node211&#45;&gt;Node215</title>
<path fill="none" stroke="#191970" d="M219.0929,-107.058C233.6684,-95.8822 254.5104,-80.9645 274.4082,-70.5 285.6268,-64.6 298.626,-59.4393 309.9575,-55.4306"/>
<polygon fill="#191970" stroke="#191970" points="216.6209,-104.5475 210.8917,-113.4597 220.9282,-110.0655 216.6209,-104.5475"/>
</g>
<!-- Node216 -->
<g id="node12" class="node">
<title>Node216</title>
<g id="a_node12"><a xlink:href="lcd_8c.html#adabd3f7cdda45119604b488caf22bba8" target="_top" xlink:title="prints a string to a line on the lcd ">
<polygon fill="none" stroke="#000000" points="311.3833,-113.5 311.3833,-131.5 365.1812,-131.5 365.1812,-113.5 311.3833,-113.5"/>
<text text-anchor="middle" x="338.2822" y="-119.5" font-family="Helvetica,sans-Serif" font-size="10.00" fill="#000000">lcd_print</text>
</a>
</g>
</g>
<!-- Node211&#45;&gt;Node216 -->
<g id="edge14" class="edge">
<title>Node211&#45;&gt;Node216</title>
<path fill="none" stroke="#191970" d="M240.9275,-122.5C263.5797,-122.5 291.0745,-122.5 311.0598,-122.5"/>
<polygon fill="#191970" stroke="#191970" points="240.9049,-119.0001 230.9049,-122.5 240.9048,-126.0001 240.9049,-119.0001"/>
</g>
<!-- Node217 -->
<g id="node13" class="node">
<title>Node217</title>
<g id="a_node13"><a xlink:href="lcd_8c.html#aa0d4ca88701dfecf98796e2028482b69" target="_top" xlink:title="prints a formated string to a line on the lcd. Smilar to printf ">
<polygon fill="none" stroke="#000000" points="309.9941,-.5 309.9941,-18.5 366.5703,-18.5 366.5703,-.5 309.9941,-.5"/>
<text text-anchor="middle" x="338.2822" y="-6.5" font-family="Helvetica,sans-Serif" font-size="10.00" fill="#000000">lcd_printf</text>
</a>
</g>
</g>
<!-- Node211&#45;&gt;Node217 -->
<g id="edge17" class="edge">
<title>Node211&#45;&gt;Node217</title>
<path fill="none" stroke="#191970" d="M209.2204,-104.5705C221.3946,-83.0652 244.6433,-47.4284 274.4082,-27.5 284.9391,-20.4493 298.2131,-16.1344 309.9286,-13.5061"/>
<polygon fill="#191970" stroke="#191970" points="206.1469,-102.8962 204.4225,-113.3498 212.2894,-106.2532 206.1469,-102.8962"/>
</g>
<!-- Node218 -->
<g id="node14" class="node">
<title>Node218</title>
<g id="a_node14"><a xlink:href="lcd_8c.html#a245902a4d48a6d9bd1ab308bf9b7e6b5" target="_top" xlink:title="sets the backlight of the lcd ">
<polygon fill="none" stroke="#000000" points="291.9253,-187.5 291.9253,-205.5 384.6392,-205.5 384.6392,-187.5 291.9253,-187.5"/>
<text text-anchor="middle" x="338.2822" y="-193.5" font-family="Helvetica,sans-Serif" font-size="10.00" fill="#000000">lcd_set_backlight</text>
</a>
</g>
</g>
<!-- Node211&#45;&gt;Node218 -->
<g id="edge18" class="edge">
<title>Node211&#45;&gt;Node218</title>
<path fill="none" stroke="#191970" d="M217.332,-138.1545C231.7588,-150.3552 253.2244,-166.9438 274.4082,-177.5 282.3816,-181.4732 291.3371,-184.7752 299.9626,-187.4503"/>
<polygon fill="#191970" stroke="#191970" points="219.5588,-135.453 209.7064,-131.5568 214.9787,-140.7467 219.5588,-135.453"/>
</g>
<!-- Node212&#45;&gt;Node213 -->
<g id="edge9" class="edge">
<title>Node212&#45;&gt;Node213</title>
<path fill="none" stroke="#191970" d="M385.0983,-148.0033C406.713,-142.6954 432.0022,-136.4851 452.2135,-131.5218"/>
<polygon fill="#191970" stroke="#191970" points="384.0169,-144.6648 375.1401,-150.4488 385.6863,-151.4629 384.0169,-144.6648"/>
</g>
<!-- Node214 -->
<g id="node10" class="node">
<title>Node214</title>
<g id="a_node10"><a xlink:href="menu_8c.html#abfadedb104f89f672dd3045499975a71" target="_top" xlink:title="Displays a menu context, but does not display. &#160;Menu must be freed or will cause memory leak! &#160;Will e...">
<polygon fill="none" stroke="#000000" points="450.0996,-150.5 450.0996,-168.5 527.8037,-168.5 527.8037,-150.5 450.0996,-150.5"/>
<text text-anchor="middle" x="488.9517" y="-156.5" font-family="Helvetica,sans-Serif" font-size="10.00" fill="#000000">display_menu</text>
</a>
</g>
</g>
<!-- Node212&#45;&gt;Node214 -->
<g id="edge11" class="edge">
<title>Node212&#45;&gt;Node214</title>
<path fill="none" stroke="#191970" d="M412.4995,-159.5C425.4154,-159.5 438.3751,-159.5 449.8596,-159.5"/>
<polygon fill="#191970" stroke="#191970" points="412.1797,-156.0001 402.1796,-159.5 412.1796,-163.0001 412.1797,-156.0001"/>
</g>
<!-- Node213&#45;&gt;Node209 -->
<g id="edge10" class="edge">
<title>Node213&#45;&gt;Node209</title>
<path fill="none" stroke="#191970" d="M532.8531,-135.9747C535.2713,-137.3484 537.5908,-138.8531 539.7471,-140.5 568.747,-162.6493 589.2761,-202.3395 597.519,-220.2652"/>
<polygon fill="#191970" stroke="#191970" points="534.3029,-132.7878 523.7801,-131.5543 531.2369,-139.0807 534.3029,-132.7878"/>
</g>
<!-- Node214&#45;&gt;Node209 -->
<g id="edge12" class="edge">
<title>Node214&#45;&gt;Node209</title>
<path fill="none" stroke="#191970" d="M512.2524,-173.9878C534.6602,-187.9204 567.8459,-208.5544 586.8111,-220.3465"/>
<polygon fill="#191970" stroke="#191970" points="514.0101,-170.9593 503.6697,-168.6513 510.3138,-176.9039 514.0101,-170.9593"/>
</g>
<!-- Node216&#45;&gt;Node213 -->
<g id="edge15" class="edge">
<title>Node216&#45;&gt;Node213</title>
<path fill="none" stroke="#191970" d="M375.4658,-122.5C394.2847,-122.5 417.4187,-122.5 437.8795,-122.5"/>
<polygon fill="#191970" stroke="#191970" points="375.2189,-119.0001 365.2189,-122.5 375.2189,-126.0001 375.2189,-119.0001"/>
</g>
<!-- Node216&#45;&gt;Node214 -->
<g id="edge16" class="edge">
<title>Node216&#45;&gt;Node214</title>
<path fill="none" stroke="#191970" d="M375.1133,-131.5446C398.5014,-137.2881 428.6609,-144.6944 452.0606,-150.4406"/>
<polygon fill="#191970" stroke="#191970" points="375.7651,-128.1008 365.2189,-129.1149 374.0956,-134.8988 375.7651,-128.1008"/>
</g>
<!-- Node220 -->
<g id="node16" class="node">
<title>Node220</title>
<g id="a_node16"><a xlink:href="log_8c.html#a8e5bb8a2a372f5b066ff7af7044584c1" target="_top" xlink:title="prints a error message and displays on lcd. Only will print and display if log_level is greater than ...">
<polygon fill="none" stroke="#000000" points="181.2778,-275.5 181.2778,-293.5 218.3911,-293.5 218.3911,-275.5 181.2778,-275.5"/>
<text text-anchor="middle" x="199.8345" y="-281.5" font-family="Helvetica,sans-Serif" font-size="10.00" fill="#000000">error</text>
</a>
</g>
</g>
<!-- Node219&#45;&gt;Node220 -->
<g id="edge21" class="edge">
<title>Node219&#45;&gt;Node220</title>
<path fill="none" stroke="#191970" d="M135.5081,-284.5C150.8765,-284.5 168.2061,-284.5 181.0031,-284.5"/>
<polygon fill="#191970" stroke="#191970" points="135.2616,-281.0001 125.2616,-284.5 135.2616,-288.0001 135.2616,-281.0001"/>
</g>
<!-- Node225 -->
<g id="node21" class="node">
<title>Node225</title>
<g id="a_node21"><a xlink:href="log_8c.html#a0bec2cf5fff7f607bc510b74aba9887c" target="_top" xlink:title="prints a warning message and displays on lcd. Only will print and display if log_level is greater tha...">
<polygon fill="none" stroke="#000000" points="174.3247,-229.5 174.3247,-247.5 225.3442,-247.5 225.3442,-229.5 174.3247,-229.5"/>
<text text-anchor="middle" x="199.8345" y="-235.5" font-family="Helvetica,sans-Serif" font-size="10.00" fill="#000000">warning</text>
</a>
</g>
</g>
<!-- Node219&#45;&gt;Node225 -->
<g id="edge27" class="edge">
<title>Node219&#45;&gt;Node225</title>
<path fill="none" stroke="#191970" d="M128.7286,-271.1798C145.2199,-263.6005 165.4436,-254.3058 180.1013,-247.5692"/>
<polygon fill="#191970" stroke="#191970" points="127.145,-268.0556 119.5203,-275.4119 130.0683,-274.416 127.145,-268.0556"/>
</g>
<!-- Node221 -->
<g id="node17" class="node">
<title>Node221</title>
<g id="a_node17"><a xlink:href="menu_8c.html#adcee778eac0edb821427d32949106dc5" target="_top" xlink:title="create_menu">
<polygon fill="none" stroke="#000000" points="301.0977,-295.5 301.0977,-313.5 375.4668,-313.5 375.4668,-295.5 301.0977,-295.5"/>
<text text-anchor="middle" x="338.2822" y="-301.5" font-family="Helvetica,sans-Serif" font-size="10.00" fill="#000000">create_menu</text>
</a>
</g>
</g>
<!-- Node220&#45;&gt;Node221 -->
<g id="edge22" class="edge">
<title>Node220&#45;&gt;Node221</title>
<path fill="none" stroke="#191970" d="M228.4195,-288.6294C249.4122,-291.6619 278.1246,-295.8097 300.9317,-299.1044"/>
<polygon fill="#191970" stroke="#191970" points="228.9039,-285.1631 218.5062,-287.1973 227.903,-292.0912 228.9039,-285.1631"/>
</g>
<!-- Node222 -->
<g id="node18" class="node">
<title>Node222</title>
<g id="a_node18"><a xlink:href="menu_8c.html#a3529988b0a7c12cb3f2ebb3cf5595594" target="_top" xlink:title="Creates a menu context, but does not display. &#160;Menu must be freed or will cause memory leak &#160;...">
<polygon fill="none" stroke="#000000" points="449.5454,-258.5 449.5454,-276.5 528.3579,-276.5 528.3579,-258.5 449.5454,-258.5"/>
<text text-anchor="middle" x="488.9517" y="-264.5" font-family="Helvetica,sans-Serif" font-size="10.00" fill="#000000">init_menu_var</text>
</a>
</g>
</g>
<!-- Node221&#45;&gt;Node222 -->
<g id="edge23" class="edge">
<title>Node221&#45;&gt;Node222</title>
<path fill="none" stroke="#191970" d="M385.0983,-293.0033C406.713,-287.6954 432.0022,-281.4851 452.2135,-276.5218"/>
<polygon fill="#191970" stroke="#191970" points="384.0169,-289.6648 375.1401,-295.4488 385.6863,-296.4629 384.0169,-289.6648"/>
</g>
<!-- Node223 -->
<g id="node19" class="node">
<title>Node223</title>
<g id="a_node19"><a xlink:href="menu_8c.html#ac8efedba760ec35ebf841ab19543ba5a" target="_top" xlink:title="Creates a menu context, but does not display. &#160;Menu must be freed or will cause memory leak &#160;...">
<polygon fill="none" stroke="#000000" points="451.2104,-332.5 451.2104,-350.5 526.6929,-350.5 526.6929,-332.5 451.2104,-332.5"/>
<text text-anchor="middle" x="488.9517" y="-338.5" font-family="Helvetica,sans-Serif" font-size="10.00" fill="#000000">init_menu_int</text>
</a>
</g>
</g>
<!-- Node221&#45;&gt;Node223 -->
<g id="edge24" class="edge">
<title>Node221&#45;&gt;Node223</title>
<path fill="none" stroke="#191970" d="M385.0983,-315.9967C406.713,-321.3046 432.0022,-327.5149 452.2135,-332.4782"/>
<polygon fill="#191970" stroke="#191970" points="385.6863,-312.5371 375.1401,-313.5512 384.0169,-319.3352 385.6863,-312.5371"/>
</g>
<!-- Node224 -->
<g id="node20" class="node">
<title>Node224</title>
<g id="a_node20"><a xlink:href="menu_8c.html#a5abb752733423805f59ef3b92e3c2e57" target="_top" xlink:title="Creates a menu context, but does not display. &#160;Menu must be freed or will cause memory leak! &#160;...">
<polygon fill="none" stroke="#000000" points="447.0405,-295.5 447.0405,-313.5 530.8628,-313.5 530.8628,-295.5 447.0405,-295.5"/>
<text text-anchor="middle" x="488.9517" y="-301.5" font-family="Helvetica,sans-Serif" font-size="10.00" fill="#000000">init_menu_float</text>
</a>
</g>
</g>
<!-- Node221&#45;&gt;Node224 -->
<g id="edge26" class="edge">
<title>Node221&#45;&gt;Node224</title>
<path fill="none" stroke="#191970" d="M385.7613,-304.5C405.3385,-304.5 427.8367,-304.5 446.8191,-304.5"/>
<polygon fill="#191970" stroke="#191970" points="385.5264,-301.0001 375.5264,-304.5 385.5263,-308.0001 385.5264,-301.0001"/>
</g>
<!-- Node223&#45;&gt;Node209 -->
<g id="edge25" class="edge">
<title>Node223&#45;&gt;Node209</title>
<path fill="none" stroke="#191970" d="M531.3887,-328.0503C534.342,-326.3936 537.1665,-324.5494 539.7471,-322.5 569.4994,-298.8721 589.9111,-256.9095 597.8447,-238.5375"/>
<polygon fill="#191970" stroke="#191970" points="529.7291,-324.9651 522.2567,-332.4761 532.782,-331.2643 529.7291,-324.9651"/>
</g>
<!-- Node225&#45;&gt;Node209 -->
<g id="edge28" class="edge">
<title>Node225&#45;&gt;Node209</title>
<path fill="none" stroke="#191970" d="M235.6164,-237.6983C315.3099,-235.9128 505.8613,-231.6435 575.4881,-230.0835"/>
<polygon fill="#191970" stroke="#191970" points="235.4926,-234.2001 225.5736,-237.9233 235.6495,-241.1984 235.4926,-234.2001"/>
</g>
</g>
</svg>
