<?xml version="1.0" encoding="UTF-8" standalone="no"?>
<!DOCTYPE svg PUBLIC "-//W3C//DTD SVG 1.1//EN"
 "http://www.w3.org/Graphics/SVG/1.1/DTD/svg11.dtd">
<!-- Generated by graphviz version 2.40.1 (20161225.0304)
 -->
<!-- Title: analogRead Pages: 1 -->
<!--zoomable 290 -->
<svg id="main" version="1.1" xmlns="http://www.w3.org/2000/svg" xmlns:xlink="http://www.w3.org/1999/xlink" xml:space="preserve" onload="init(evt)">
<style type="text/css"><![CDATA[
.edge:hover path { stroke: red; }
.edge:hover polygon { stroke: red; fill: red; }
]]></style>
<script type="text/javascript"><![CDATA[
var edges = document.getElementsByTagName('g');
if (edges && edges.length) {
  for (var i=0;i<edges.length;i++) {
    if (edges[i].id.substr(0,4)=='edge') {
      edges[i].setAttribute('class','edge');
    }
  }
}
]]></script>
        <defs>
                <circle id="rim" cx="0" cy="0" r="7"/>
                <circle id="rim2" cx="0" cy="0" r="3.5"/>
                <g id="zoomPlus">
                        <use xlink:href="#rim" fill="#404040">
                                <set attributeName="fill" to="#808080" begin="zoomplus.mouseover" end="zoomplus.mouseout"/>
                        </use>
                        <path d="M-4,0h8M0,-4v8" fill="none" stroke="white" stroke-width="1.5" pointer-events="none"/>
                </g>
                <g id="zoomMin">
                        <use xlink:href="#rim" fill="#404040">
                                <set attributeName="fill" to="#808080" begin="zoomminus.mouseover" end="zoomminus.mouseout"/>
                        </use>
                        <path d="M-4,0h8" fill="none" stroke="white" stroke-width="1.5" pointer-events="none"/>
                </g>
                <g id="dirArrow">
                        <path fill="none" stroke="white" stroke-width="1.5" d="M0,-3.0v7 M-2.5,-0.5L0,-3.0L2.5,-0.5"/>
                </g>
               <g id="resetDef">
                       <use xlink:href="#rim2" fill="#404040">
                               <set attributeName="fill" to="#808080" begin="reset.mouseover" end="reset.mouseout"/>
                       </use>
               </g>
        </defs>

<script type="text/javascript">
var viewWidth = 505;
var viewHeight = 290;
var sectionId = 'dynsection-0';
</script>
<script xlink:href="svgpan.js"/>
<svg id="graph" class="graph">
<g id="viewport">
<title>analogRead</title>
<!-- Node5 -->
<g id="node1" class="node">
<title>Node5</title>
<polygon fill="#bfbfbf" stroke="#000000" points="0,-132.5 0,-150.5 69.9355,-150.5 69.9355,-132.5 0,-132.5"/>
<text text-anchor="middle" x="34.9678" y="-138.5" font-family="Helvetica,sans-Serif" font-size="10.00" fill="#000000">analogRead</text>
</g>
<!-- Node6 -->
<g id="node2" class="node">
<title>Node6</title>
<g id="a_node2"><a xlink:href="auto_8c.html#a55085901854f29969753bfd62c70049c" target="_top" xlink:title="utility function which raises the second lifter to its maximum height ">
<polygon fill="none" stroke="#000000" points="105.9355,-263.5 105.9355,-281.5 244.2256,-281.5 244.2256,-263.5 105.9355,-263.5"/>
<text text-anchor="middle" x="175.0806" y="-269.5" font-family="Helvetica,sans-Serif" font-size="10.00" fill="#000000">auton_raise_sec_lifter_max</text>
</a>
</g>
</g>
<!-- Node5&#45;&gt;Node6 -->
<g id="edge1" class="edge">
<title>Node5&#45;&gt;Node6</title>
<path fill="none" stroke="#191970" d="M41.6644,-160.3251C51.6561,-185.65 72.9066,-230.2993 105.9355,-254.5 110.9385,-258.1657 116.6249,-261.0862 122.5368,-263.4127"/>
<polygon fill="#191970" stroke="#191970" points="44.867,-158.8979 38.07,-150.7706 38.3153,-161.3626 44.867,-158.8979"/>
</g>
<!-- Node8 -->
<g id="node4" class="node">
<title>Node8</title>
<g id="a_node4"><a xlink:href="auto_8c.html#a51a62a1a0851cc5939a2c6034849e380" target="_top" xlink:title="utility function to raise the mainlifter to the mobile goal height ">
<polygon fill="none" stroke="#000000" points="115.1055,-226.5 115.1055,-244.5 235.0557,-244.5 235.0557,-226.5 115.1055,-226.5"/>
<text text-anchor="middle" x="175.0806" y="-232.5" font-family="Helvetica,sans-Serif" font-size="10.00" fill="#000000">auton_rasie_main_lifter</text>
</a>
</g>
</g>
<!-- Node5&#45;&gt;Node8 -->
<g id="edge3" class="edge">
<title>Node5&#45;&gt;Node8</title>
<path fill="none" stroke="#191970" d="M46.879,-159.2098C59.5174,-176.6262 81.0707,-202.6915 105.9355,-217.5 112.1169,-221.1814 119.0466,-224.1186 126.0682,-226.4598"/>
<polygon fill="#191970" stroke="#191970" points="49.4157,-156.7308 40.8104,-150.5502 43.6832,-160.7481 49.4157,-156.7308"/>
</g>
<!-- Node9 -->
<g id="node5" class="node">
<title>Node9</title>
<g id="a_node5"><a xlink:href="lifter_8c.html#a8a64fa88b389b39c236c5c57a7fb5c67" target="_top" xlink:title="Autostacks a cone once picked up. ">
<polygon fill="none" stroke="#000000" points="280.2256,-151.5 280.2256,-169.5 375.166,-169.5 375.166,-151.5 280.2256,-151.5"/>
<text text-anchor="middle" x="327.6958" y="-157.5" font-family="Helvetica,sans-Serif" font-size="10.00" fill="#000000">autostack_routine</text>
</a>
</g>
</g>
<!-- Node5&#45;&gt;Node9 -->
<g id="edge5" class="edge">
<title>Node5&#45;&gt;Node9</title>
<path fill="none" stroke="#191970" d="M79.9886,-144.4221C134.1618,-147.9384 224.7178,-153.816 280.0399,-157.4068"/>
<polygon fill="#191970" stroke="#191970" points="80.1926,-140.9281 69.9869,-143.773 79.7391,-147.9134 80.1926,-140.9281"/>
</g>
<!-- Node11 -->
<g id="node7" class="node">
<title>Node11</title>
<g id="a_node7"><a xlink:href="auto_8c.html#a64bd65456b81f16eb4ff67237159f984" target="_top" xlink:title="utility function which deploys the secondary lifter at the start of autonomous. ">
<polygon fill="none" stroke="#000000" points="114.2705,-189.5 114.2705,-207.5 235.8906,-207.5 235.8906,-189.5 114.2705,-189.5"/>
<text text-anchor="middle" x="175.0806" y="-195.5" font-family="Helvetica,sans-Serif" font-size="10.00" fill="#000000">deploy_seoncdary_lifter</text>
</a>
</g>
</g>
<!-- Node5&#45;&gt;Node11 -->
<g id="edge7" class="edge">
<title>Node5&#45;&gt;Node11</title>
<path fill="none" stroke="#191970" d="M62.472,-155.0801C75.5092,-161.3124 91.3827,-168.6084 105.9355,-174.5 119.245,-179.8882 134.2769,-185.1958 146.9174,-189.4441"/>
<polygon fill="#191970" stroke="#191970" points="63.6507,-151.7624 53.124,-150.5623 60.6047,-158.065 63.6507,-151.7624"/>
</g>
<!-- Node12 -->
<g id="node8" class="node">
<title>Node12</title>
<g id="a_node8"><a xlink:href="lifter_8c.html#acdf909159b0406c48099843f2306be78" target="_top" xlink:title="Gets the value of the lifter pot. ">
<polygon fill="none" stroke="#000000" points="137.5322,-113.5 137.5322,-131.5 212.6289,-131.5 212.6289,-113.5 137.5322,-113.5"/>
<text text-anchor="middle" x="175.0806" y="-119.5" font-family="Helvetica,sans-Serif" font-size="10.00" fill="#000000">getLifterTicks</text>
</a>
</g>
</g>
<!-- Node5&#45;&gt;Node12 -->
<g id="edge9" class="edge">
<title>Node5&#45;&gt;Node12</title>
<path fill="none" stroke="#191970" d="M79.8908,-135.4082C98.3274,-132.9081 119.4412,-130.045 137.0919,-127.6515"/>
<polygon fill="#191970" stroke="#191970" points="79.4017,-131.9424 69.9627,-136.7545 80.3424,-138.8789 79.4017,-131.9424"/>
</g>
<!-- Node14 -->
<g id="node10" class="node">
<title>Node14</title>
<g id="a_node10"><a xlink:href="lifter_8c.html#adfb6207ee1f20953058c8de81ec3386a" target="_top" xlink:title="main_lifter_update">
<polygon fill="none" stroke="#000000" points="125.9429,-76.5 125.9429,-94.5 224.2183,-94.5 224.2183,-76.5 125.9429,-76.5"/>
<text text-anchor="middle" x="175.0806" y="-82.5" font-family="Helvetica,sans-Serif" font-size="10.00" fill="#000000">main_lifter_update</text>
</a>
</g>
</g>
<!-- Node5&#45;&gt;Node14 -->
<g id="edge11" class="edge">
<title>Node5&#45;&gt;Node14</title>
<path fill="none" stroke="#191970" d="M59.0883,-127.29C72.5469,-119.7827 89.8055,-110.8377 105.9355,-104.5 115.6686,-100.6758 126.4589,-97.3156 136.5648,-94.5266"/>
<polygon fill="#191970" stroke="#191970" points="56.9907,-124.4566 50.0305,-132.4445 60.4528,-130.5405 56.9907,-124.4566"/>
</g>
<!-- Node15 -->
<g id="node11" class="node">
<title>Node15</title>
<g id="a_node11"><a xlink:href="lifter_8c.html#a59bb7413777ca16aba124aaedf95c79b" target="_top" xlink:title="Updates the lifter in teleop. ">
<polygon fill="none" stroke="#000000" points="292.1763,-57.5 292.1763,-75.5 363.2153,-75.5 363.2153,-57.5 292.1763,-57.5"/>
<text text-anchor="middle" x="327.6958" y="-63.5" font-family="Helvetica,sans-Serif" font-size="10.00" fill="#000000">update_lifter</text>
</a>
</g>
</g>
<!-- Node5&#45;&gt;Node15 -->
<g id="edge16" class="edge">
<title>Node5&#45;&gt;Node15</title>
<path fill="none" stroke="#191970" d="M45.5242,-123.7397C57.5333,-105.4675 79.0149,-78.0889 105.9355,-66.5 167.1128,-40.1641 246.8787,-49.4228 292.1711,-58.1949"/>
<polygon fill="#191970" stroke="#191970" points="42.4821,-122.0027 40.129,-132.3329 48.4105,-125.7248 42.4821,-122.0027"/>
</g>
<!-- Node16 -->
<g id="node12" class="node">
<title>Node16</title>
<g id="a_node12"><a xlink:href="lifter_8c.html#ac59fe6ffc80bab7f117ec0a8e482277b" target="_top" xlink:title="secondary_lifter_update">
<polygon fill="none" stroke="#000000" points="113.7114,-.5 113.7114,-18.5 236.4497,-18.5 236.4497,-.5 113.7114,-.5"/>
<text text-anchor="middle" x="175.0806" y="-6.5" font-family="Helvetica,sans-Serif" font-size="10.00" fill="#000000">secondary_lifter_update</text>
</a>
</g>
</g>
<!-- Node5&#45;&gt;Node16 -->
<g id="edge14" class="edge">
<title>Node5&#45;&gt;Node16</title>
<path fill="none" stroke="#191970" d="M42.6271,-122.8305C53.3658,-98.8653 75.0991,-57.5195 105.9355,-33.5 114.3562,-26.9409 124.6954,-22.1022 134.7874,-18.5611"/>
<polygon fill="#191970" stroke="#191970" points="39.3263,-121.6464 38.588,-132.2155 45.7562,-124.4136 39.3263,-121.6464"/>
</g>
<!-- Node7 -->
<g id="node3" class="node">
<title>Node7</title>
<g id="a_node3"><a xlink:href="auto_8c.html#a3c7ca506bbc071fa740de13805b7f376" target="_top" xlink:title="Runs the user autonomous code. ">
<polygon fill="none" stroke="#000000" points="292.1763,-226.5 292.1763,-244.5 363.2153,-244.5 363.2153,-226.5 292.1763,-226.5"/>
<text text-anchor="middle" x="327.6958" y="-232.5" font-family="Helvetica,sans-Serif" font-size="10.00" fill="#000000">autonomous</text>
</a>
</g>
</g>
<!-- Node6&#45;&gt;Node7 -->
<g id="edge2" class="edge">
<title>Node6&#45;&gt;Node7</title>
<path fill="none" stroke="#191970" d="M222.4294,-261.0208C244.9045,-255.5719 271.315,-249.169 292.0595,-244.1396"/>
<polygon fill="#191970" stroke="#191970" points="221.3082,-257.6911 212.4145,-263.4488 222.9576,-264.494 221.3082,-257.6911"/>
</g>
<!-- Node8&#45;&gt;Node7 -->
<g id="edge4" class="edge">
<title>Node8&#45;&gt;Node7</title>
<path fill="none" stroke="#191970" d="M245.8349,-235.5C261.8339,-235.5 278.1602,-235.5 291.9806,-235.5"/>
<polygon fill="#191970" stroke="#191970" points="245.3982,-232.0001 235.3981,-235.5 245.3981,-239.0001 245.3982,-232.0001"/>
</g>
<!-- Node10 -->
<g id="node6" class="node">
<title>Node10</title>
<g id="a_node6"><a xlink:href="opcontrol_8c.html#ac71a94af413917f27d108e95c4d6f6a7" target="_top" xlink:title="Runs the user operator control code. ">
<polygon fill="none" stroke="#000000" points="411.166,-94.5 411.166,-112.5 496.6484,-112.5 496.6484,-94.5 411.166,-94.5"/>
<text text-anchor="middle" x="453.9072" y="-100.5" font-family="Helvetica,sans-Serif" font-size="10.00" fill="#000000">operatorControl</text>
</a>
</g>
</g>
<!-- Node9&#45;&gt;Node10 -->
<g id="edge6" class="edge">
<title>Node9&#45;&gt;Node10</title>
<path fill="none" stroke="#191970" d="M361.0641,-147.4815C365.8193,-145.5285 370.6325,-143.4984 375.166,-141.5 396.278,-132.1939 420.0789,-120.5423 435.9328,-112.6113"/>
<polygon fill="#191970" stroke="#191970" points="359.4541,-144.357 351.4925,-151.3473 362.0756,-150.8476 359.4541,-144.357"/>
</g>
<!-- Node11&#45;&gt;Node7 -->
<g id="edge8" class="edge">
<title>Node11&#45;&gt;Node7</title>
<path fill="none" stroke="#191970" d="M222.4294,-209.9792C244.9045,-215.4281 271.315,-221.831 292.0595,-226.8604"/>
<polygon fill="#191970" stroke="#191970" points="222.9576,-206.506 212.4145,-207.5512 221.3082,-213.3089 222.9576,-206.506"/>
</g>
<!-- Node13 -->
<g id="node9" class="node">
<title>Node13</title>
<g id="a_node9"><a xlink:href="lifter_8c.html#a2719740958fd8a5926f88f6194e820e3" target="_top" xlink:title="Gets the height of the lifter in inches. ">
<polygon fill="none" stroke="#000000" points="287.1763,-113.5 287.1763,-131.5 368.2153,-131.5 368.2153,-113.5 287.1763,-113.5"/>
<text text-anchor="middle" x="327.6958" y="-119.5" font-family="Helvetica,sans-Serif" font-size="10.00" fill="#000000">getLifterHeight</text>
</a>
</g>
</g>
<!-- Node12&#45;&gt;Node13 -->
<g id="edge10" class="edge">
<title>Node12&#45;&gt;Node13</title>
<path fill="none" stroke="#191970" d="M222.911,-122.5C243.4614,-122.5 267.2289,-122.5 286.9277,-122.5"/>
<polygon fill="#191970" stroke="#191970" points="222.8057,-119.0001 212.8057,-122.5 222.8057,-126.0001 222.8057,-119.0001"/>
</g>
<!-- Node14&#45;&gt;Node15 -->
<g id="edge12" class="edge">
<title>Node14&#45;&gt;Node15</title>
<path fill="none" stroke="#191970" d="M234.5925,-78.091C253.9616,-75.6796 274.8498,-73.0791 291.9233,-70.9535"/>
<polygon fill="#191970" stroke="#191970" points="234.1213,-74.6225 224.6304,-79.3312 234.9862,-81.5689 234.1213,-74.6225"/>
</g>
<!-- Node15&#45;&gt;Node10 -->
<g id="edge13" class="edge">
<title>Node15&#45;&gt;Node10</title>
<path fill="none" stroke="#191970" d="M368.603,-78.4923C386.2474,-83.6649 406.5454,-89.6155 422.9138,-94.414"/>
<polygon fill="#191970" stroke="#191970" points="369.1514,-75.0058 358.5706,-75.5512 367.1821,-81.7231 369.1514,-75.0058"/>
</g>
<!-- Node16&#45;&gt;Node15 -->
<g id="edge15" class="edge">
<title>Node16&#45;&gt;Node15</title>
<path fill="none" stroke="#191970" d="M211.8201,-21.9279C222.3196,-25.5673 233.753,-29.6143 244.2256,-33.5 265.1173,-41.2515 288.714,-50.64 305.4749,-57.418"/>
<polygon fill="#191970" stroke="#191970" points="212.6963,-18.528 202.1016,-18.5821 210.4176,-25.1468 212.6963,-18.528"/>
</g>
</g>
</svg>
        <g id="navigator" transform="translate(0 0)" fill="#404254">
                <rect fill="#f2f5e9" fill-opacity="0.5" stroke="#606060" stroke-width=".5" x="0" y="0" width="60" height="60"/>
                <use id="zoomplus" xlink:href="#zoomPlus" x="17" y="9" onmousedown="handleZoom(evt,'in')"/>
                <use id="zoomminus" xlink:href="#zoomMin" x="42" y="9" onmousedown="handleZoom(evt,'out')"/>
                <use id="reset" xlink:href="#resetDef" x="30" y="36" onmousedown="handleReset()"/>
                <g id="arrowUp" xlink:href="#dirArrow" transform="translate(30 24)" onmousedown="handlePan(0,-1)">
                  <use xlink:href="#rim" fill="#404040">
                        <set attributeName="fill" to="#808080" begin="arrowUp.mouseover" end="arrowUp.mouseout"/>
                  </use>
                  <path fill="none" stroke="white" stroke-width="1.5" d="M0,-3.0v7 M-2.5,-0.5L0,-3.0L2.5,-0.5"/>
                </g>
                <g id="arrowRight" xlink:href="#dirArrow" transform="rotate(90) translate(36 -43)" onmousedown="handlePan(1,0)">
                  <use xlink:href="#rim" fill="#404040">
                        <set attributeName="fill" to="#808080" begin="arrowRight.mouseover" end="arrowRight.mouseout"/>
                  </use>
                  <path fill="none" stroke="white" stroke-width="1.5" d="M0,-3.0v7 M-2.5,-0.5L0,-3.0L2.5,-0.5"/>
                </g>
                <g id="arrowDown" xlink:href="#dirArrow" transform="rotate(180) translate(-30 -48)" onmousedown="handlePan(0,1)">
                  <use xlink:href="#rim" fill="#404040">
                        <set attributeName="fill" to="#808080" begin="arrowDown.mouseover" end="arrowDown.mouseout"/>
                  </use>
                  <path fill="none" stroke="white" stroke-width="1.5" d="M0,-3.0v7 M-2.5,-0.5L0,-3.0L2.5,-0.5"/>
                </g>
                <g id="arrowLeft" xlink:href="#dirArrow" transform="rotate(270) translate(-36 17)" onmousedown="handlePan(-1,0)">
                  <use xlink:href="#rim" fill="#404040">
                        <set attributeName="fill" to="#808080" begin="arrowLeft.mouseover" end="arrowLeft.mouseout"/>
                  </use>
                  <path fill="none" stroke="white" stroke-width="1.5" d="M0,-3.0v7 M-2.5,-0.5L0,-3.0L2.5,-0.5"/>
                </g>
        </g>
        <svg viewBox="0 0 15 15" width="100%" height="30px" preserveAspectRatio="xMaxYMin meet">
         <g id="arrow_out" transform="scale(0.3 0.3)">
          <a xlink:href="_a_p_i_8h_a5da86064604c539c2b6a5e2993289108_icgraph_org.svg" target="_base">
           <rect id="button" ry="5" rx="5" y="6" x="6" height="38" width="38"
                fill="#f2f5e9" fill-opacity="0.5" stroke="#606060" stroke-width="1.0"/>
           <path id="arrow"
             d="M 11.500037,31.436501 C 11.940474,20.09759 22.043105,11.32322 32.158766,21.979434 L 37.068811,17.246167 C 37.068811,17.246167 37.088388,32 37.088388,32 L 22.160133,31.978069 C 22.160133,31.978069 26.997745,27.140456 26.997745,27.140456 C 18.528582,18.264221 13.291696,25.230495 11.500037,31.436501 z"
             style="fill:#404040;"/>
          </a>
         </g>
        </svg>
</svg>
