<?xml version="1.0" encoding="UTF-8" standalone="no"?>
<!DOCTYPE svg PUBLIC "-//W3C//DTD SVG 1.1//EN"
 "http://www.w3.org/Graphics/SVG/1.1/DTD/svg11.dtd">
<!-- Generated by graphviz version 2.40.1 (20161225.0304)
 -->
<!-- Title: lcdReadButtons Pages: 1 -->
<svg width="725pt" height="101pt"
 viewBox="0.00 0.00 724.82 101.00" xmlns="http://www.w3.org/2000/svg" xmlns:xlink="http://www.w3.org/1999/xlink">
<g id="graph0" class="graph" transform="scale(1 1) rotate(0) translate(4 97)">
<title>lcdReadButtons</title>
<!-- Node282 -->
<g id="node1" class="node">
<title>Node282</title>
<polygon fill="#bfbfbf" stroke="#000000" points="0,-55.5 0,-73.5 86.6006,-73.5 86.6006,-55.5 0,-55.5"/>
<text text-anchor="middle" x="43.3003" y="-61.5" font-family="Helvetica,sans-Serif" font-size="10.00" fill="#000000">lcdReadButtons</text>
</g>
<!-- Node283 -->
<g id="node2" class="node">
<title>Node283</title>
<g id="a_node2"><a xlink:href="toggle_8c.html#ad2b7c969a01f85d57bdca0bc7f5cff81" target="_top" xlink:title="Returns the current status of a button (pressed or not pressed) ">
<polygon fill="none" stroke="#000000" points="144.8394,-74.5 144.8394,-92.5 228.1099,-92.5 228.1099,-74.5 144.8394,-74.5"/>
<text text-anchor="middle" x="186.4746" y="-80.5" font-family="Helvetica,sans-Serif" font-size="10.00" fill="#000000">buttonGetState</text>
</a>
</g>
</g>
<!-- Node282&#45;&gt;Node283 -->
<g id="edge1" class="edge">
<title>Node282&#45;&gt;Node283</title>
<path fill="none" stroke="#191970" d="M96.8368,-71.6046C112.6752,-73.7064 129.7747,-75.9756 144.75,-77.9629"/>
<polygon fill="#191970" stroke="#191970" points="97.0194,-68.0982 86.6458,-70.2522 96.0985,-75.0374 97.0194,-68.0982"/>
</g>
<!-- Node288 -->
<g id="node7" class="node">
<title>Node288</title>
<g id="a_node7"><a xlink:href="lcd_8c.html#ac7b3225ccc82fcbe067ba9da934f010d" target="_top" xlink:title="Returns the pressed buttons. ">
<polygon fill="none" stroke="#000000" points="122.6006,-37.5 122.6006,-55.5 250.3486,-55.5 250.3486,-37.5 122.6006,-37.5"/>
<text text-anchor="middle" x="186.4746" y="-43.5" font-family="Helvetica,sans-Serif" font-size="10.00" fill="#000000">lcd_get_pressed_buttons</text>
</a>
</g>
</g>
<!-- Node282&#45;&gt;Node288 -->
<g id="edge6" class="edge">
<title>Node282&#45;&gt;Node288</title>
<path fill="none" stroke="#191970" d="M96.6692,-57.7904C105.0597,-56.7355 113.808,-55.6357 122.4097,-54.5543"/>
<polygon fill="#191970" stroke="#191970" points="96.1311,-54.3304 86.6458,-59.0506 97.0044,-61.2757 96.1311,-54.3304"/>
</g>
<!-- Node284 -->
<g id="node3" class="node">
<title>Node284</title>
<g id="a_node3"><a xlink:href="toggle_8c.html#a07c56bf50097f5bf35c5e8c9067800e1" target="_top" xlink:title="Detects if button is a new press from most recent check by comparing previous value to current value...">
<polygon fill="none" stroke="#000000" points="288.5703,-74.5 288.5703,-92.5 385.7178,-92.5 385.7178,-74.5 288.5703,-74.5"/>
<text text-anchor="middle" x="337.144" y="-80.5" font-family="Helvetica,sans-Serif" font-size="10.00" fill="#000000">buttonIsNewPress</text>
</a>
</g>
</g>
<!-- Node283&#45;&gt;Node284 -->
<g id="edge2" class="edge">
<title>Node283&#45;&gt;Node284</title>
<path fill="none" stroke="#191970" d="M238.7844,-83.5C254.9143,-83.5 272.6022,-83.5 288.4763,-83.5"/>
<polygon fill="#191970" stroke="#191970" points="238.4445,-80.0001 228.4444,-83.5 238.4444,-87.0001 238.4445,-80.0001"/>
</g>
<!-- Node285 -->
<g id="node4" class="node">
<title>Node285</title>
<g id="a_node4"><a xlink:href="routines_8c.html#a230cdcefb410a429fb6baba1f88fc9ba" target="_top" xlink:title="Task that manages routines. ">
<polygon fill="none" stroke="#000000" points="423.9395,-74.5 423.9395,-92.5 494.417,-92.5 494.417,-74.5 423.9395,-74.5"/>
<text text-anchor="middle" x="459.1782" y="-80.5" font-family="Helvetica,sans-Serif" font-size="10.00" fill="#000000">routine_task</text>
</a>
</g>
</g>
<!-- Node284&#45;&gt;Node285 -->
<g id="edge3" class="edge">
<title>Node284&#45;&gt;Node285</title>
<path fill="none" stroke="#191970" d="M396.0115,-83.5C405.5567,-83.5 415.1721,-83.5 423.9218,-83.5"/>
<polygon fill="#191970" stroke="#191970" points="395.7259,-80.0001 385.7258,-83.5 395.7258,-87.0001 395.7259,-80.0001"/>
</g>
<!-- Node286 -->
<g id="node5" class="node">
<title>Node286</title>
<g id="a_node5"><a xlink:href="routines_8c.html#ab873e24fcc59a2bf7844618b664a5d26" target="_top" xlink:title="Starts the routine system. ">
<polygon fill="none" stroke="#000000" points="530.417,-74.5 530.417,-92.5 595.3379,-92.5 595.3379,-74.5 530.417,-74.5"/>
<text text-anchor="middle" x="562.8774" y="-80.5" font-family="Helvetica,sans-Serif" font-size="10.00" fill="#000000">init_routine</text>
</a>
</g>
</g>
<!-- Node285&#45;&gt;Node286 -->
<g id="edge4" class="edge">
<title>Node285&#45;&gt;Node286</title>
<path fill="none" stroke="#191970" d="M504.7872,-83.5C513.3032,-83.5 522.0471,-83.5 530.0819,-83.5"/>
<polygon fill="#191970" stroke="#191970" points="504.5756,-80.0001 494.5756,-83.5 504.5755,-87.0001 504.5756,-80.0001"/>
</g>
<!-- Node287 -->
<g id="node6" class="node">
<title>Node287</title>
<g id="a_node6"><a xlink:href="opcontrol_8c.html#ac71a94af413917f27d108e95c4d6f6a7" target="_top" xlink:title="Runs the user operator control code. ">
<polygon fill="none" stroke="#000000" points="631.3379,-74.5 631.3379,-92.5 716.8203,-92.5 716.8203,-74.5 631.3379,-74.5"/>
<text text-anchor="middle" x="674.0791" y="-80.5" font-family="Helvetica,sans-Serif" font-size="10.00" fill="#000000">operatorControl</text>
</a>
</g>
</g>
<!-- Node286&#45;&gt;Node287 -->
<g id="edge5" class="edge">
<title>Node286&#45;&gt;Node287</title>
<path fill="none" stroke="#191970" d="M605.6143,-83.5C613.9451,-83.5 622.6836,-83.5 631.0247,-83.5"/>
<polygon fill="#191970" stroke="#191970" points="605.3405,-80.0001 595.3405,-83.5 605.3405,-87.0001 605.3405,-80.0001"/>
</g>
<!-- Node289 -->
<g id="node8" class="node">
<title>Node289</title>
<g id="a_node8"><a xlink:href="lcd_8c.html#a99f4683e1990edf624ab216bf327cba4" target="_top" xlink:title="Prompts the user to confirm a string. ">
<polygon fill="none" stroke="#000000" points="286.3486,-37.5 286.3486,-55.5 387.9395,-55.5 387.9395,-37.5 286.3486,-37.5"/>
<text text-anchor="middle" x="337.144" y="-43.5" font-family="Helvetica,sans-Serif" font-size="10.00" fill="#000000">promt_confirmation</text>
</a>
</g>
</g>
<!-- Node288&#45;&gt;Node289 -->
<g id="edge7" class="edge">
<title>Node288&#45;&gt;Node289</title>
<path fill="none" stroke="#191970" d="M260.4526,-46.5C269.0721,-46.5 277.7153,-46.5 285.9306,-46.5"/>
<polygon fill="#191970" stroke="#191970" points="260.372,-43.0001 250.372,-46.5 260.372,-50.0001 260.372,-43.0001"/>
</g>
<!-- Node290 -->
<g id="node9" class="node">
<title>Node290</title>
<g id="a_node9"><a xlink:href="menu_8c.html#abfadedb104f89f672dd3045499975a71" target="_top" xlink:title="Displays a menu contex. ">
<polygon fill="none" stroke="#000000" points="298.292,-.5 298.292,-18.5 375.9961,-18.5 375.9961,-.5 298.292,-.5"/>
<text text-anchor="middle" x="337.144" y="-6.5" font-family="Helvetica,sans-Serif" font-size="10.00" fill="#000000">display_menu</text>
</a>
</g>
</g>
<!-- Node288&#45;&gt;Node290 -->
<g id="edge8" class="edge">
<title>Node288&#45;&gt;Node290</title>
<path fill="none" stroke="#191970" d="M233.2907,-35.0033C254.9053,-29.6954 280.1946,-23.4851 300.4059,-18.5218"/>
<polygon fill="#191970" stroke="#191970" points="232.2092,-31.6648 223.3325,-37.4488 233.8787,-38.4629 232.2092,-31.6648"/>
</g>
</g>
</svg>
