<?xml version="1.0" encoding="UTF-8" standalone="no"?>
<!DOCTYPE svg PUBLIC "-//W3C//DTD SVG 1.1//EN"
 "http://www.w3.org/Graphics/SVG/1.1/DTD/svg11.dtd">
<!-- Generated by graphviz version 2.40.1 (20161225.0304)
 -->
<!-- Title: lcdSetBacklight Pages: 1 -->
<svg width="396pt" height="82pt"
 viewBox="0.00 0.00 395.67 82.00" xmlns="http://www.w3.org/2000/svg" xmlns:xlink="http://www.w3.org/1999/xlink">
<g id="graph0" class="graph" transform="scale(1 1) rotate(0) translate(4 78)">
<title>lcdSetBacklight</title>
<!-- Node132 -->
<g id="node1" class="node">
<title>Node132</title>
<polygon fill="#bfbfbf" stroke="#000000" points="0,-36.5 0,-54.5 84.3691,-54.5 84.3691,-36.5 0,-36.5"/>
<text text-anchor="middle" x="42.1846" y="-42.5" font-family="Helvetica,sans-Serif" font-size="10.00" fill="#000000">lcdSetBacklight</text>
</g>
<!-- Node133 -->
<g id="node2" class="node">
<title>Node133</title>
<g id="a_node2"><a xlink:href="lcd_8c.html#a245902a4d48a6d9bd1ab308bf9b7e6b5" target="_top" xlink:title="sets the backlight of the lcd ">
<polygon fill="none" stroke="#000000" points="120.3691,-55.5 120.3691,-73.5 213.083,-73.5 213.083,-55.5 120.3691,-55.5"/>
<text text-anchor="middle" x="166.7261" y="-61.5" font-family="Helvetica,sans-Serif" font-size="10.00" fill="#000000">lcd_set_backlight</text>
</a>
</g>
</g>
<!-- Node132&#45;&gt;Node133 -->
<g id="edge1" class="edge">
<title>Node132&#45;&gt;Node133</title>
<path fill="none" stroke="#191970" d="M94.8008,-53.5271C103.2177,-54.8112 111.8758,-56.1321 120.1397,-57.3928"/>
<polygon fill="#191970" stroke="#191970" points="95.1099,-50.0338 84.6964,-51.9856 94.0541,-56.9538 95.1099,-50.0338"/>
</g>
<!-- Node134 -->
<g id="node3" class="node">
<title>Node134</title>
<g id="a_node3"><a xlink:href="log_8c.html#afff22aff6749311a684a559cac3ac8bd" target="_top" xlink:title="log_info">
<polygon fill="none" stroke="#000000" points="141.2114,-18.5 141.2114,-36.5 192.2407,-36.5 192.2407,-18.5 141.2114,-18.5"/>
<text text-anchor="middle" x="166.7261" y="-24.5" font-family="Helvetica,sans-Serif" font-size="10.00" fill="#000000">log_info</text>
</a>
</g>
</g>
<!-- Node132&#45;&gt;Node134 -->
<g id="edge2" class="edge">
<title>Node132&#45;&gt;Node134</title>
<path fill="none" stroke="#191970" d="M95.0132,-37.8647C110.9674,-35.5588 127.7681,-33.1306 141.0944,-31.2046"/>
<polygon fill="#191970" stroke="#191970" points="94.0928,-34.4612 84.6964,-39.3558 95.0942,-41.3893 94.0928,-34.4612"/>
</g>
<!-- Node135 -->
<g id="node4" class="node">
<title>Node135</title>
<g id="a_node4"><a xlink:href="log_8c.html#a8e5bb8a2a372f5b066ff7af7044584c1" target="_top" xlink:title="prints a error message and displays on lcd. Only will print and display if log_level is greater than ...">
<polygon fill="none" stroke="#000000" points="256.0361,-37.5 256.0361,-55.5 293.1494,-55.5 293.1494,-37.5 256.0361,-37.5"/>
<text text-anchor="middle" x="274.5928" y="-43.5" font-family="Helvetica,sans-Serif" font-size="10.00" fill="#000000">error</text>
</a>
</g>
</g>
<!-- Node134&#45;&gt;Node135 -->
<g id="edge3" class="edge">
<title>Node134&#45;&gt;Node135</title>
<path fill="none" stroke="#191970" d="M202.1584,-33.7412C220.1178,-36.9046 241.1917,-40.6166 255.9635,-43.2186"/>
<polygon fill="#191970" stroke="#191970" points="202.7445,-30.2906 192.289,-32.0027 201.5302,-37.1845 202.7445,-30.2906"/>
</g>
<!-- Node136 -->
<g id="node5" class="node">
<title>Node136</title>
<g id="a_node5"><a xlink:href="log_8c.html#a0bec2cf5fff7f607bc510b74aba9887c" target="_top" xlink:title="prints a warning message and displays on lcd. Only will print and display if log_level is greater tha...">
<polygon fill="none" stroke="#000000" points="249.083,-.5 249.083,-18.5 300.1025,-18.5 300.1025,-.5 249.083,-.5"/>
<text text-anchor="middle" x="274.5928" y="-6.5" font-family="Helvetica,sans-Serif" font-size="10.00" fill="#000000">warning</text>
</a>
</g>
</g>
<!-- Node134&#45;&gt;Node136 -->
<g id="edge4" class="edge">
<title>Node134&#45;&gt;Node136</title>
<path fill="none" stroke="#191970" d="M202.3804,-21.5503C217.5633,-19.0167 234.9381,-16.1173 248.8395,-13.7975"/>
<polygon fill="#191970" stroke="#191970" points="201.5765,-18.1359 192.289,-23.2343 202.7287,-25.0405 201.5765,-18.1359"/>
</g>
<!-- Node137 -->
<g id="node6" class="node">
<title>Node137</title>
<g id="a_node6"><a xlink:href="init_8c.html#a25a40b6614565f755233080a384c35f1" target="_top" xlink:title="initialize">
<polygon fill="none" stroke="#000000" points="336.1025,-.5 336.1025,-18.5 387.6738,-18.5 387.6738,-.5 336.1025,-.5"/>
<text text-anchor="middle" x="361.8882" y="-6.5" font-family="Helvetica,sans-Serif" font-size="10.00" fill="#000000">initialize</text>
</a>
</g>
</g>
<!-- Node136&#45;&gt;Node137 -->
<g id="edge5" class="edge">
<title>Node136&#45;&gt;Node137</title>
<path fill="none" stroke="#191970" d="M310.4721,-9.5C319.0456,-9.5 328.0323,-9.5 336.051,-9.5"/>
<polygon fill="#191970" stroke="#191970" points="310.3122,-6.0001 300.3121,-9.5 310.3121,-13.0001 310.3122,-6.0001"/>
</g>
</g>
</svg>
