<?xml version="1.0" encoding="UTF-8" standalone="no"?>
<!DOCTYPE svg PUBLIC "-//W3C//DTD SVG 1.1//EN"
 "http://www.w3.org/Graphics/SVG/1.1/DTD/svg11.dtd">
<!-- Generated by graphviz version 2.40.1 (20161225.0304)
 -->
<!-- Title: isEnabled Pages: 1 -->
<svg width="269pt" height="27pt"
 viewBox="0.00 0.00 269.20 27.00" xmlns="http://www.w3.org/2000/svg" xmlns:xlink="http://www.w3.org/1999/xlink">
<g id="graph0" class="graph" transform="scale(1 1) rotate(0) translate(4 23)">
<title>isEnabled</title>
<!-- Node101 -->
<g id="node1" class="node">
<title>Node101</title>
<polygon fill="#bfbfbf" stroke="#000000" points="0,-.5 0,-18.5 59.9209,-18.5 59.9209,-.5 0,-.5"/>
<text text-anchor="middle" x="29.9604" y="-6.5" font-family="Helvetica,sans-Serif" font-size="10.00" fill="#000000">isEnabled</text>
</g>
<!-- Node102 -->
<g id="node2" class="node">
<title>Node102</title>
<g id="a_node2"><a xlink:href="menu_8c.html#abfadedb104f89f672dd3045499975a71" target="_top" xlink:title="Displays a menu context, but does not display. &#160;Menu must be freed or will cause memory leak! &#160;Will e...">
<polygon fill="none" stroke="#000000" points="95.9209,-.5 95.9209,-18.5 173.625,-18.5 173.625,-.5 95.9209,-.5"/>
<text text-anchor="middle" x="134.7729" y="-6.5" font-family="Helvetica,sans-Serif" font-size="10.00" fill="#000000">display_menu</text>
</a>
</g>
</g>
<!-- Node101&#45;&gt;Node102 -->
<g id="edge1" class="edge">
<title>Node101&#45;&gt;Node102</title>
<path fill="none" stroke="#191970" d="M69.9997,-9.5C78.4379,-9.5 87.3298,-9.5 95.7307,-9.5"/>
<polygon fill="#191970" stroke="#191970" points="69.9955,-6.0001 59.9955,-9.5 69.9955,-13.0001 69.9955,-6.0001"/>
</g>
<!-- Node103 -->
<g id="node3" class="node">
<title>Node103</title>
<g id="a_node3"><a xlink:href="init_8c.html#a25a40b6614565f755233080a384c35f1" target="_top" xlink:title="initialize">
<polygon fill="none" stroke="#000000" points="209.625,-.5 209.625,-18.5 261.1963,-18.5 261.1963,-.5 209.625,-.5"/>
<text text-anchor="middle" x="235.4106" y="-6.5" font-family="Helvetica,sans-Serif" font-size="10.00" fill="#000000">initialize</text>
</a>
</g>
</g>
<!-- Node102&#45;&gt;Node103 -->
<g id="edge2" class="edge">
<title>Node102&#45;&gt;Node103</title>
<path fill="none" stroke="#191970" d="M183.9133,-9.5C192.7022,-9.5 201.5392,-9.5 209.3508,-9.5"/>
<polygon fill="#191970" stroke="#191970" points="183.6821,-6.0001 173.6821,-9.5 183.6821,-13.0001 183.6821,-6.0001"/>
</g>
</g>
</svg>
