<?xml version="1.0" encoding="UTF-8" standalone="no"?>
<!DOCTYPE svg PUBLIC "-//W3C//DTD SVG 1.1//EN"
 "http://www.w3.org/Graphics/SVG/1.1/DTD/svg11.dtd">
<!-- Generated by graphviz version 2.40.1 (20161225.0304)
 -->
<!-- Title: delay Pages: 1 -->
<svg width="185pt" height="138pt"
 viewBox="0.00 0.00 185.50 138.00" xmlns="http://www.w3.org/2000/svg" xmlns:xlink="http://www.w3.org/1999/xlink">
<g id="graph0" class="graph" transform="scale(1 1) rotate(0) translate(4 134)">
<title>delay</title>
<!-- Node21 -->
<g id="node1" class="node">
<title>Node21</title>
<polygon fill="#bfbfbf" stroke="#000000" points="0,-55.5 0,-73.5 39.9063,-73.5 39.9063,-55.5 0,-55.5"/>
<text text-anchor="middle" x="19.9531" y="-61.5" font-family="Helvetica,sans-Serif" font-size="10.00" fill="#000000">delay</text>
</g>
<!-- Node22 -->
<g id="node2" class="node">
<title>Node22</title>
<g id="a_node2"><a xlink:href="auto_8c.html#a3c7ca506bbc071fa740de13805b7f376" target="_top" xlink:title="autonomous">
<polygon fill="none" stroke="#000000" points="91.1821,-111.5 91.1821,-129.5 162.2212,-129.5 162.2212,-111.5 91.1821,-111.5"/>
<text text-anchor="middle" x="126.7017" y="-117.5" font-family="Helvetica,sans-Serif" font-size="10.00" fill="#000000">autonomous</text>
</a>
</g>
</g>
<!-- Node21&#45;&gt;Node22 -->
<g id="edge1" class="edge">
<title>Node21&#45;&gt;Node22</title>
<path fill="none" stroke="#191970" d="M39.7349,-79.768C50.1108,-87.2932 63.2653,-96.1015 75.9063,-102.5 82.5843,-105.8802 90.049,-108.9056 97.1566,-111.4679"/>
<polygon fill="#191970" stroke="#191970" points="41.527,-76.739 31.4147,-73.5781 37.3487,-82.3552 41.527,-76.739"/>
</g>
<!-- Node23 -->
<g id="node3" class="node">
<title>Node23</title>
<g id="a_node3"><a xlink:href="menu_8c.html#abfadedb104f89f672dd3045499975a71" target="_top" xlink:title="Displays a menu context, but does not display. &#160;Menu must be freed or will cause memory leak! &#160;Will e...">
<polygon fill="none" stroke="#000000" points="87.8496,-74.5 87.8496,-92.5 165.5537,-92.5 165.5537,-74.5 87.8496,-74.5"/>
<text text-anchor="middle" x="126.7017" y="-80.5" font-family="Helvetica,sans-Serif" font-size="10.00" fill="#000000">display_menu</text>
</a>
</g>
</g>
<!-- Node21&#45;&gt;Node23 -->
<g id="edge2" class="edge">
<title>Node21&#45;&gt;Node23</title>
<path fill="none" stroke="#191970" d="M50.1436,-69.8736C61.8077,-71.9496 75.3053,-74.352 87.6886,-76.5561"/>
<polygon fill="#191970" stroke="#191970" points="50.4903,-66.3803 40.0317,-68.0738 49.2636,-73.272 50.4903,-66.3803"/>
</g>
<!-- Node24 -->
<g id="node4" class="node">
<title>Node24</title>
<g id="a_node4"><a xlink:href="opcontrol_8c.html#ac71a94af413917f27d108e95c4d6f6a7" target="_top" xlink:title="operatorControl">
<polygon fill="none" stroke="#000000" points="83.9604,-37.5 83.9604,-55.5 169.4429,-55.5 169.4429,-37.5 83.9604,-37.5"/>
<text text-anchor="middle" x="126.7017" y="-43.5" font-family="Helvetica,sans-Serif" font-size="10.00" fill="#000000">operatorControl</text>
</a>
</g>
</g>
<!-- Node21&#45;&gt;Node24 -->
<g id="edge3" class="edge">
<title>Node21&#45;&gt;Node24</title>
<path fill="none" stroke="#191970" d="M49.9315,-59.445C60.411,-57.678 72.3906,-55.658 83.7204,-53.7475"/>
<polygon fill="#191970" stroke="#191970" points="49.3105,-56.0002 40.0317,-61.1143 50.4745,-62.9028 49.3105,-56.0002"/>
</g>
<!-- Node25 -->
<g id="node5" class="node">
<title>Node25</title>
<g id="a_node5"><a xlink:href="lcd_8c.html#a99f4683e1990edf624ab216bf327cba4" target="_top" xlink:title="Prompts the user to confirm a string. User must press middle button to confirm. Function is not threa...">
<polygon fill="none" stroke="#000000" points="75.9063,-.5 75.9063,-18.5 177.4971,-18.5 177.4971,-.5 75.9063,-.5"/>
<text text-anchor="middle" x="126.7017" y="-6.5" font-family="Helvetica,sans-Serif" font-size="10.00" fill="#000000">promt_confirmation</text>
</a>
</g>
</g>
<!-- Node21&#45;&gt;Node25 -->
<g id="edge4" class="edge">
<title>Node21&#45;&gt;Node25</title>
<path fill="none" stroke="#191970" d="M40.6946,-49.6437C50.9776,-42.6758 63.7674,-34.5873 75.9063,-28.5 83.3127,-24.7859 91.6294,-21.3801 99.3554,-18.5095"/>
<polygon fill="#191970" stroke="#191970" points="38.6111,-46.8292 32.3828,-55.4 42.5965,-52.5839 38.6111,-46.8292"/>
</g>
</g>
</svg>
