<?xml version="1.0" encoding="UTF-8" standalone="no"?>
<!DOCTYPE svg PUBLIC "-//W3C//DTD SVG 1.1//EN"
 "http://www.w3.org/Graphics/SVG/1.1/DTD/svg11.dtd">
<!-- Generated by graphviz version 2.40.1 (20161225.0304)
 -->
<!-- Title: joystickGetDigital Pages: 1 -->
<svg width="353pt" height="175pt"
 viewBox="0.00 0.00 353.11 175.00" xmlns="http://www.w3.org/2000/svg" xmlns:xlink="http://www.w3.org/1999/xlink">
<g id="graph0" class="graph" transform="scale(1 1) rotate(0) translate(4 171)">
<title>joystickGetDigital</title>
<!-- Node141 -->
<g id="node1" class="node">
<title>Node141</title>
<polygon fill="#bfbfbf" stroke="#000000" points="0,-74.5 0,-92.5 92.6895,-92.5 92.6895,-74.5 0,-74.5"/>
<text text-anchor="middle" x="46.3447" y="-80.5" font-family="Helvetica,sans-Serif" font-size="10.00" fill="#000000">joystickGetDigital</text>
</g>
<!-- Node142 -->
<g id="node2" class="node">
<title>Node142</title>
<g id="a_node2"><a xlink:href="toggle_8c.html#ad2b7c969a01f85d57bdca0bc7f5cff81" target="_top" xlink:title="Returns the current status of a button (pressed or not pressed) ">
<polygon fill="none" stroke="#000000" points="128.6895,-148.5 128.6895,-166.5 211.96,-166.5 211.96,-148.5 128.6895,-148.5"/>
<text text-anchor="middle" x="170.3247" y="-154.5" font-family="Helvetica,sans-Serif" font-size="10.00" fill="#000000">buttonGetState</text>
</a>
</g>
</g>
<!-- Node141&#45;&gt;Node142 -->
<g id="edge1" class="edge">
<title>Node141&#45;&gt;Node142</title>
<path fill="none" stroke="#191970" d="M66.367,-98.6985C82.634,-110.652 106.447,-127.2725 128.6895,-139.5 134.4862,-142.6867 140.9616,-145.7201 147.046,-148.3577"/>
<polygon fill="#191970" stroke="#191970" points="68.2763,-95.7566 58.164,-92.5954 64.0978,-101.3727 68.2763,-95.7566"/>
</g>
<!-- Node144 -->
<g id="node4" class="node">
<title>Node144</title>
<g id="a_node4"><a xlink:href="claw_8c.html#a0122b78972344264b8a276a559cfce4a" target="_top" xlink:title="Updates the claw motor values. ">
<polygon fill="none" stroke="#000000" points="134.2485,-111.5 134.2485,-129.5 206.4009,-129.5 206.4009,-111.5 134.2485,-111.5"/>
<text text-anchor="middle" x="170.3247" y="-117.5" font-family="Helvetica,sans-Serif" font-size="10.00" fill="#000000">update_claw</text>
</a>
</g>
</g>
<!-- Node141&#45;&gt;Node144 -->
<g id="edge3" class="edge">
<title>Node141&#45;&gt;Node144</title>
<path fill="none" stroke="#191970" d="M86.5287,-95.4923C103.8612,-100.6649 123.8002,-106.6155 139.8792,-111.414"/>
<polygon fill="#191970" stroke="#191970" points="87.257,-92.0572 76.6736,-92.5512 85.2551,-98.7648 87.257,-92.0572"/>
</g>
<!-- Node146 -->
<g id="node6" class="node">
<title>Node146</title>
<g id="a_node6"><a xlink:href="partner_8c.html#ab2c78903a76d2ed8969271803c78368a" target="_top" xlink:title="update_control">
<polygon fill="none" stroke="#000000" points="129.2437,-74.5 129.2437,-92.5 211.4058,-92.5 211.4058,-74.5 129.2437,-74.5"/>
<text text-anchor="middle" x="170.3247" y="-80.5" font-family="Helvetica,sans-Serif" font-size="10.00" fill="#000000">update_control</text>
</a>
</g>
</g>
<!-- Node141&#45;&gt;Node146 -->
<g id="edge5" class="edge">
<title>Node141&#45;&gt;Node146</title>
<path fill="none" stroke="#191970" d="M102.9832,-83.5C111.6951,-83.5 120.5491,-83.5 128.8499,-83.5"/>
<polygon fill="#191970" stroke="#191970" points="102.8631,-80.0001 92.863,-83.5 102.863,-87.0001 102.8631,-80.0001"/>
</g>
<!-- Node147 -->
<g id="node7" class="node">
<title>Node147</title>
<g id="a_node7"><a xlink:href="lifter_8c.html#a59bb7413777ca16aba124aaedf95c79b" target="_top" xlink:title="update_lifter">
<polygon fill="none" stroke="#000000" points="134.8052,-37.5 134.8052,-55.5 205.8442,-55.5 205.8442,-37.5 134.8052,-37.5"/>
<text text-anchor="middle" x="170.3247" y="-43.5" font-family="Helvetica,sans-Serif" font-size="10.00" fill="#000000">update_lifter</text>
</a>
</g>
</g>
<!-- Node141&#45;&gt;Node147 -->
<g id="edge7" class="edge">
<title>Node141&#45;&gt;Node147</title>
<path fill="none" stroke="#191970" d="M86.5287,-71.5077C103.8612,-66.3351 123.8002,-60.3845 139.8792,-55.586"/>
<polygon fill="#191970" stroke="#191970" points="85.2551,-68.2352 76.6736,-74.4488 87.257,-74.9428 85.2551,-68.2352"/>
</g>
<!-- Node148 -->
<g id="node8" class="node">
<title>Node148</title>
<g id="a_node8"><a xlink:href="mobile__goal__intake_8c.html#ad0232c21c5c1ffda603d2b7d61034118" target="_top" xlink:title="updateIntake">
<polygon fill="none" stroke="#000000" points="133.4111,-.5 133.4111,-18.5 207.2383,-18.5 207.2383,-.5 133.4111,-.5"/>
<text text-anchor="middle" x="170.3247" y="-6.5" font-family="Helvetica,sans-Serif" font-size="10.00" fill="#000000">updateIntake</text>
</a>
</g>
</g>
<!-- Node141&#45;&gt;Node148 -->
<g id="edge9" class="edge">
<title>Node141&#45;&gt;Node148</title>
<path fill="none" stroke="#191970" d="M66.7564,-68.5237C83.0755,-56.8838 106.7701,-40.7175 128.6895,-28.5 135.0744,-24.9411 142.2474,-21.4863 148.8174,-18.5205"/>
<polygon fill="#191970" stroke="#191970" points="64.5722,-65.7836 58.5072,-74.4708 68.6658,-71.4619 64.5722,-65.7836"/>
</g>
<!-- Node143 -->
<g id="node3" class="node">
<title>Node143</title>
<g id="a_node3"><a xlink:href="toggle_8c.html#a07c56bf50097f5bf35c5e8c9067800e1" target="_top" xlink:title="Detects if button is a new press from most recent check by comparing previous value to current value...">
<polygon fill="none" stroke="#000000" points="247.96,-148.5 247.96,-166.5 345.1074,-166.5 345.1074,-148.5 247.96,-148.5"/>
<text text-anchor="middle" x="296.5337" y="-154.5" font-family="Helvetica,sans-Serif" font-size="10.00" fill="#000000">buttonIsNewPress</text>
</a>
</g>
</g>
<!-- Node142&#45;&gt;Node143 -->
<g id="edge2" class="edge">
<title>Node142&#45;&gt;Node143</title>
<path fill="none" stroke="#191970" d="M222.1885,-157.5C230.6912,-157.5 239.4752,-157.5 247.896,-157.5"/>
<polygon fill="#191970" stroke="#191970" points="222.0001,-154.0001 212,-157.5 222,-161.0001 222.0001,-154.0001"/>
</g>
<!-- Node145 -->
<g id="node5" class="node">
<title>Node145</title>
<g id="a_node5"><a xlink:href="opcontrol_8c.html#ac71a94af413917f27d108e95c4d6f6a7" target="_top" xlink:title="operatorControl">
<polygon fill="none" stroke="#000000" points="253.7925,-56.5 253.7925,-74.5 339.2749,-74.5 339.2749,-56.5 253.7925,-56.5"/>
<text text-anchor="middle" x="296.5337" y="-62.5" font-family="Helvetica,sans-Serif" font-size="10.00" fill="#000000">operatorControl</text>
</a>
</g>
</g>
<!-- Node144&#45;&gt;Node145 -->
<g id="edge4" class="edge">
<title>Node144&#45;&gt;Node145</title>
<path fill="none" stroke="#191970" d="M200.731,-107.3727C204.5133,-105.7345 208.3266,-104.0802 211.96,-102.5 233.7113,-93.0402 258.5796,-82.1519 275.691,-74.6484"/>
<polygon fill="#191970" stroke="#191970" points="199.3014,-104.1776 191.5133,-111.3607 202.081,-110.6021 199.3014,-104.1776"/>
</g>
<!-- Node146&#45;&gt;Node145 -->
<g id="edge6" class="edge">
<title>Node146&#45;&gt;Node145</title>
<path fill="none" stroke="#191970" d="M221.5868,-76.189C232.1394,-74.684 243.1502,-73.1136 253.3811,-71.6545"/>
<polygon fill="#191970" stroke="#191970" points="221.0559,-72.7292 211.6502,-77.6061 222.0443,-79.6591 221.0559,-72.7292"/>
</g>
<!-- Node147&#45;&gt;Node145 -->
<g id="edge8" class="edge">
<title>Node147&#45;&gt;Node145</title>
<path fill="none" stroke="#191970" d="M216.1221,-53.3945C228.3031,-55.2283 241.4166,-57.2025 253.4472,-59.0136"/>
<polygon fill="#191970" stroke="#191970" points="216.5632,-49.9216 206.1535,-51.8938 215.5211,-56.8436 216.5632,-49.9216"/>
</g>
<!-- Node148&#45;&gt;Node145 -->
<g id="edge10" class="edge">
<title>Node148&#45;&gt;Node145</title>
<path fill="none" stroke="#191970" d="M200.3157,-22.8073C223.6643,-33.1672 255.4515,-47.2715 275.9839,-56.3819"/>
<polygon fill="#191970" stroke="#191970" points="201.4434,-19.4786 190.8833,-18.622 198.6043,-25.877 201.4434,-19.4786"/>
</g>
</g>
</svg>
