<?xml version="1.0" encoding="UTF-8" standalone="no"?>
<!DOCTYPE svg PUBLIC "-//W3C//DTD SVG 1.1//EN"
 "http://www.w3.org/Graphics/SVG/1.1/DTD/svg11.dtd">
<!-- Generated by graphviz version 2.40.1 (20161225.0304)
 -->
<!-- Title: joystickGetDigital Pages: 1 -->
<!--zoomable 177 -->
<svg id="main" version="1.1" xmlns="http://www.w3.org/2000/svg" xmlns:xlink="http://www.w3.org/1999/xlink" xml:space="preserve" onload="init(evt)">
<style type="text/css"><![CDATA[
.edge:hover path { stroke: red; }
.edge:hover polygon { stroke: red; fill: red; }
]]></style>
<script type="text/javascript"><![CDATA[
var edges = document.getElementsByTagName('g');
if (edges && edges.length) {
  for (var i=0;i<edges.length;i++) {
    if (edges[i].id.substr(0,4)=='edge') {
      edges[i].setAttribute('class','edge');
    }
  }
}
]]></script>
        <defs>
                <circle id="rim" cx="0" cy="0" r="7"/>
                <circle id="rim2" cx="0" cy="0" r="3.5"/>
                <g id="zoomPlus">
                        <use xlink:href="#rim" fill="#404040">
                                <set attributeName="fill" to="#808080" begin="zoomplus.mouseover" end="zoomplus.mouseout"/>
                        </use>
                        <path d="M-4,0h8M0,-4v8" fill="none" stroke="white" stroke-width="1.5" pointer-events="none"/>
                </g>
                <g id="zoomMin">
                        <use xlink:href="#rim" fill="#404040">
                                <set attributeName="fill" to="#808080" begin="zoomminus.mouseover" end="zoomminus.mouseout"/>
                        </use>
                        <path d="M-4,0h8" fill="none" stroke="white" stroke-width="1.5" pointer-events="none"/>
                </g>
                <g id="dirArrow">
                        <path fill="none" stroke="white" stroke-width="1.5" d="M0,-3.0v7 M-2.5,-0.5L0,-3.0L2.5,-0.5"/>
                </g>
               <g id="resetDef">
                       <use xlink:href="#rim2" fill="#404040">
                               <set attributeName="fill" to="#808080" begin="reset.mouseover" end="reset.mouseout"/>
                       </use>
               </g>
        </defs>

<script type="text/javascript">
var viewWidth = 737;
var viewHeight = 177;
var sectionId = 'dynsection-10';
</script>
<script xlink:href="svgpan.js"/>
<svg id="graph" class="graph">
<g id="viewport">
<title>joystickGetDigital</title>
<!-- Node140 -->
<g id="node1" class="node">
<title>Node140</title>
<polygon fill="#bfbfbf" stroke="#000000" points="0,-76.5 0,-94.5 92.6895,-94.5 92.6895,-76.5 0,-76.5"/>
<text text-anchor="middle" x="46.3447" y="-82.5" font-family="Helvetica,sans-Serif" font-size="10.00" fill="#000000">joystickGetDigital</text>
</g>
<!-- Node141 -->
<g id="node2" class="node">
<title>Node141</title>
<g id="a_node2"><a xlink:href="toggle_8c.html#ad2b7c969a01f85d57bdca0bc7f5cff81" target="_top" xlink:title="Returns the current status of a button (pressed or not pressed) ">
<polygon fill="none" stroke="#000000" points="148.4233,-150.5 148.4233,-168.5 231.6938,-168.5 231.6938,-150.5 148.4233,-150.5"/>
<text text-anchor="middle" x="190.0586" y="-156.5" font-family="Helvetica,sans-Serif" font-size="10.00" fill="#000000">buttonGetState</text>
</a>
</g>
</g>
<!-- Node140&#45;&gt;Node141 -->
<g id="edge1" class="edge">
<title>Node140&#45;&gt;Node141</title>
<path fill="none" stroke="#191970" d="M65.4302,-101.0306C81.4848,-113.4478 105.4751,-130.5353 128.6895,-141.5 136.1188,-145.0091 144.3809,-147.9935 152.3735,-150.4634"/>
<polygon fill="#191970" stroke="#191970" points="67.4013,-98.1276 57.3827,-94.6811 63.0654,-103.623 67.4013,-98.1276"/>
</g>
<!-- Node146 -->
<g id="node7" class="node">
<title>Node146</title>
<g id="a_node7"><a xlink:href="lifter_8c.html#adfb6207ee1f20953058c8de81ec3386a" target="_top" xlink:title="main_lifter_update">
<polygon fill="none" stroke="#000000" points="140.9209,-113.5 140.9209,-131.5 239.1963,-131.5 239.1963,-113.5 140.9209,-113.5"/>
<text text-anchor="middle" x="190.0586" y="-119.5" font-family="Helvetica,sans-Serif" font-size="10.00" fill="#000000">main_lifter_update</text>
</a>
</g>
</g>
<!-- Node140&#45;&gt;Node146 -->
<g id="edge6" class="edge">
<title>Node140&#45;&gt;Node146</title>
<path fill="none" stroke="#191970" d="M91.2421,-97.0591C111.7165,-102.3304 135.6062,-108.4809 154.7671,-113.414"/>
<polygon fill="#191970" stroke="#191970" points="92.058,-93.6551 81.5011,-94.5512 90.3126,-100.434 92.058,-93.6551"/>
</g>
<!-- Node148 -->
<g id="node9" class="node">
<title>Node148</title>
<g id="a_node9"><a xlink:href="lifter_8c.html#ac59fe6ffc80bab7f117ec0a8e482277b" target="_top" xlink:title="secondary_lifter_update">
<polygon fill="none" stroke="#000000" points="128.6895,-76.5 128.6895,-94.5 251.4277,-94.5 251.4277,-76.5 128.6895,-76.5"/>
<text text-anchor="middle" x="190.0586" y="-82.5" font-family="Helvetica,sans-Serif" font-size="10.00" fill="#000000">secondary_lifter_update</text>
</a>
</g>
</g>
<!-- Node140&#45;&gt;Node148 -->
<g id="edge9" class="edge">
<title>Node140&#45;&gt;Node148</title>
<path fill="none" stroke="#191970" d="M103.0196,-85.5C111.3732,-85.5 120.0137,-85.5 128.4611,-85.5"/>
<polygon fill="#191970" stroke="#191970" points="103.0045,-82.0001 93.0045,-85.5 103.0045,-89.0001 103.0045,-82.0001"/>
</g>
<!-- Node149 -->
<g id="node10" class="node">
<title>Node149</title>
<g id="a_node10"><a xlink:href="claw_8c.html#a0122b78972344264b8a276a559cfce4a" target="_top" xlink:title="Updates the claw motor values. ">
<polygon fill="none" stroke="#000000" points="420.5752,-38.5 420.5752,-56.5 492.7275,-56.5 492.7275,-38.5 420.5752,-38.5"/>
<text text-anchor="middle" x="456.6514" y="-44.5" font-family="Helvetica,sans-Serif" font-size="10.00" fill="#000000">update_claw</text>
</a>
</g>
</g>
<!-- Node140&#45;&gt;Node149 -->
<g id="edge11" class="edge">
<title>Node140&#45;&gt;Node149</title>
<path fill="none" stroke="#191970" d="M91.5969,-74.295C103.5895,-71.6868 116.5731,-69.1835 128.6895,-67.5 234.0635,-52.8592 359.9652,-48.9358 420.5593,-47.8846"/>
<polygon fill="#191970" stroke="#191970" points="90.7876,-70.8895 81.797,-76.4949 92.3209,-77.7195 90.7876,-70.8895"/>
</g>
<!-- Node150 -->
<g id="node11" class="node">
<title>Node150</title>
<g id="a_node11"><a xlink:href="mobile__goal__intake_8c.html#a5d7bad8a208988af743fd2e68f111286" target="_top" xlink:title="updates the mobile goal intake in teleop. ">
<polygon fill="none" stroke="#000000" points="528.7275,-.5 528.7275,-18.5 607.5596,-18.5 607.5596,-.5 528.7275,-.5"/>
<text text-anchor="middle" x="568.1436" y="-6.5" font-family="Helvetica,sans-Serif" font-size="10.00" fill="#000000">update_intake</text>
</a>
</g>
</g>
<!-- Node140&#45;&gt;Node150 -->
<g id="edge13" class="edge">
<title>Node140&#45;&gt;Node150</title>
<path fill="none" stroke="#191970" d="M72.6214,-71.8621C88.4437,-64.2831 109.2332,-55.4156 128.6895,-50.5 272.8142,-14.0875 450.8695,-9.3172 528.6614,-9.1424"/>
<polygon fill="#191970" stroke="#191970" points="70.8942,-68.8112 63.468,-76.3678 73.9857,-75.0916 70.8942,-68.8112"/>
</g>
<!-- Node142 -->
<g id="node3" class="node">
<title>Node142</title>
<g id="a_node3"><a xlink:href="toggle_8c.html#a07c56bf50097f5bf35c5e8c9067800e1" target="_top" xlink:title="Detects if button is a new press from most recent check by comparing previous value to current value...">
<polygon fill="none" stroke="#000000" points="287.4277,-141.5 287.4277,-159.5 384.5752,-159.5 384.5752,-141.5 287.4277,-141.5"/>
<text text-anchor="middle" x="336.0015" y="-147.5" font-family="Helvetica,sans-Serif" font-size="10.00" fill="#000000">buttonIsNewPress</text>
</a>
</g>
</g>
<!-- Node141&#45;&gt;Node142 -->
<g id="edge2" class="edge">
<title>Node141&#45;&gt;Node142</title>
<path fill="none" stroke="#191970" d="M241.8615,-156.3054C256.6194,-155.3953 272.6418,-154.4073 287.2136,-153.5086"/>
<polygon fill="#191970" stroke="#191970" points="241.6455,-152.812 231.88,-156.921 242.0765,-159.7987 241.6455,-152.812"/>
</g>
<!-- Node143 -->
<g id="node4" class="node">
<title>Node143</title>
<g id="a_node4"><a xlink:href="routines_8c.html#a230cdcefb410a429fb6baba1f88fc9ba" target="_top" xlink:title="Task that manages routines. ">
<polygon fill="none" stroke="#000000" points="421.4126,-132.5 421.4126,-150.5 491.8901,-150.5 491.8901,-132.5 421.4126,-132.5"/>
<text text-anchor="middle" x="456.6514" y="-138.5" font-family="Helvetica,sans-Serif" font-size="10.00" fill="#000000">routine_task</text>
</a>
</g>
</g>
<!-- Node142&#45;&gt;Node143 -->
<g id="edge3" class="edge">
<title>Node142&#45;&gt;Node143</title>
<path fill="none" stroke="#191970" d="M394.8094,-146.1132C403.7944,-145.4429 412.8243,-144.7693 421.1012,-144.1519"/>
<polygon fill="#191970" stroke="#191970" points="394.4385,-142.631 384.7266,-146.8653 394.9593,-149.6116 394.4385,-142.631"/>
</g>
<!-- Node144 -->
<g id="node5" class="node">
<title>Node144</title>
<g id="a_node5"><a xlink:href="routines_8c.html#ab873e24fcc59a2bf7844618b664a5d26" target="_top" xlink:title="Starts the routine system. ">
<polygon fill="none" stroke="#000000" points="535.6831,-123.5 535.6831,-141.5 600.604,-141.5 600.604,-123.5 535.6831,-123.5"/>
<text text-anchor="middle" x="568.1436" y="-129.5" font-family="Helvetica,sans-Serif" font-size="10.00" fill="#000000">init_routine</text>
</a>
</g>
</g>
<!-- Node143&#45;&gt;Node144 -->
<g id="edge4" class="edge">
<title>Node143&#45;&gt;Node144</title>
<path fill="none" stroke="#191970" d="M501.9782,-137.8411C513.1578,-136.9386 524.9172,-135.9894 535.3704,-135.1456"/>
<polygon fill="#191970" stroke="#191970" points="501.6141,-134.359 491.9282,-138.6523 502.1774,-141.3363 501.6141,-134.359"/>
</g>
<!-- Node145 -->
<g id="node6" class="node">
<title>Node145</title>
<g id="a_node6"><a xlink:href="opcontrol_8c.html#ac71a94af413917f27d108e95c4d6f6a7" target="_top" xlink:title="Runs the user operator control code. ">
<polygon fill="none" stroke="#000000" points="643.5596,-57.5 643.5596,-75.5 729.042,-75.5 729.042,-57.5 643.5596,-57.5"/>
<text text-anchor="middle" x="686.3008" y="-63.5" font-family="Helvetica,sans-Serif" font-size="10.00" fill="#000000">operatorControl</text>
</a>
</g>
</g>
<!-- Node144&#45;&gt;Node145 -->
<g id="edge5" class="edge">
<title>Node144&#45;&gt;Node145</title>
<path fill="none" stroke="#191970" d="M593.4929,-118.3404C616.6606,-105.3994 650.2351,-86.6455 670.0111,-75.5991"/>
<polygon fill="#191970" stroke="#191970" points="591.5964,-115.3907 584.5728,-123.323 595.01,-121.502 591.5964,-115.3907"/>
</g>
<!-- Node147 -->
<g id="node8" class="node">
<title>Node147</title>
<g id="a_node8"><a xlink:href="lifter_8c.html#a59bb7413777ca16aba124aaedf95c79b" target="_top" xlink:title="Updates the lifter in teleop. ">
<polygon fill="none" stroke="#000000" points="300.4819,-76.5 300.4819,-94.5 371.521,-94.5 371.521,-76.5 300.4819,-76.5"/>
<text text-anchor="middle" x="336.0015" y="-82.5" font-family="Helvetica,sans-Serif" font-size="10.00" fill="#000000">update_lifter</text>
</a>
</g>
</g>
<!-- Node146&#45;&gt;Node147 -->
<g id="edge7" class="edge">
<title>Node146&#45;&gt;Node147</title>
<path fill="none" stroke="#191970" d="M235.6904,-110.9312C256.5642,-105.6392 280.9271,-99.4627 300.4158,-94.5218"/>
<polygon fill="#191970" stroke="#191970" points="234.5934,-107.5985 225.7602,-113.4488 236.3137,-114.3839 234.5934,-107.5985"/>
</g>
<!-- Node147&#45;&gt;Node145 -->
<g id="edge8" class="edge">
<title>Node147&#45;&gt;Node145</title>
<path fill="none" stroke="#191970" d="M381.8565,-83.0129C450.0056,-79.3165 577.0916,-72.4234 643.4557,-68.8239"/>
<polygon fill="#191970" stroke="#191970" points="381.6391,-79.5194 371.8434,-83.556 382.0183,-86.5091 381.6391,-79.5194"/>
</g>
<!-- Node148&#45;&gt;Node147 -->
<g id="edge10" class="edge">
<title>Node148&#45;&gt;Node147</title>
<path fill="none" stroke="#191970" d="M261.7588,-85.5C275.1909,-85.5 288.6805,-85.5 300.4063,-85.5"/>
<polygon fill="#191970" stroke="#191970" points="261.5286,-82.0001 251.5285,-85.5 261.5285,-89.0001 261.5286,-82.0001"/>
</g>
<!-- Node149&#45;&gt;Node145 -->
<g id="edge12" class="edge">
<title>Node149&#45;&gt;Node145</title>
<path fill="none" stroke="#191970" d="M502.7935,-51.3176C543.8113,-54.7112 603.3153,-59.6342 643.3397,-62.9456"/>
<polygon fill="#191970" stroke="#191970" points="503.0413,-47.8262 492.7867,-50.4897 502.464,-54.8024 503.0413,-47.8262"/>
</g>
<!-- Node150&#45;&gt;Node145 -->
<g id="edge14" class="edge">
<title>Node150&#45;&gt;Node145</title>
<path fill="none" stroke="#191970" d="M596.0232,-22.9494C617.9809,-33.5419 648.0017,-48.0242 667.2748,-57.3217"/>
<polygon fill="#191970" stroke="#191970" points="597.3934,-19.7244 586.8659,-18.5318 594.3519,-26.0292 597.3934,-19.7244"/>
</g>
</g>
</svg>
        <g id="navigator" transform="translate(0 0)" fill="#404254">
                <rect fill="#f2f5e9" fill-opacity="0.5" stroke="#606060" stroke-width=".5" x="0" y="0" width="60" height="60"/>
                <use id="zoomplus" xlink:href="#zoomPlus" x="17" y="9" onmousedown="handleZoom(evt,'in')"/>
                <use id="zoomminus" xlink:href="#zoomMin" x="42" y="9" onmousedown="handleZoom(evt,'out')"/>
                <use id="reset" xlink:href="#resetDef" x="30" y="36" onmousedown="handleReset()"/>
                <g id="arrowUp" xlink:href="#dirArrow" transform="translate(30 24)" onmousedown="handlePan(0,-1)">
                  <use xlink:href="#rim" fill="#404040">
                        <set attributeName="fill" to="#808080" begin="arrowUp.mouseover" end="arrowUp.mouseout"/>
                  </use>
                  <path fill="none" stroke="white" stroke-width="1.5" d="M0,-3.0v7 M-2.5,-0.5L0,-3.0L2.5,-0.5"/>
                </g>
                <g id="arrowRight" xlink:href="#dirArrow" transform="rotate(90) translate(36 -43)" onmousedown="handlePan(1,0)">
                  <use xlink:href="#rim" fill="#404040">
                        <set attributeName="fill" to="#808080" begin="arrowRight.mouseover" end="arrowRight.mouseout"/>
                  </use>
                  <path fill="none" stroke="white" stroke-width="1.5" d="M0,-3.0v7 M-2.5,-0.5L0,-3.0L2.5,-0.5"/>
                </g>
                <g id="arrowDown" xlink:href="#dirArrow" transform="rotate(180) translate(-30 -48)" onmousedown="handlePan(0,1)">
                  <use xlink:href="#rim" fill="#404040">
                        <set attributeName="fill" to="#808080" begin="arrowDown.mouseover" end="arrowDown.mouseout"/>
                  </use>
                  <path fill="none" stroke="white" stroke-width="1.5" d="M0,-3.0v7 M-2.5,-0.5L0,-3.0L2.5,-0.5"/>
                </g>
                <g id="arrowLeft" xlink:href="#dirArrow" transform="rotate(270) translate(-36 17)" onmousedown="handlePan(-1,0)">
                  <use xlink:href="#rim" fill="#404040">
                        <set attributeName="fill" to="#808080" begin="arrowLeft.mouseover" end="arrowLeft.mouseout"/>
                  </use>
                  <path fill="none" stroke="white" stroke-width="1.5" d="M0,-3.0v7 M-2.5,-0.5L0,-3.0L2.5,-0.5"/>
                </g>
        </g>
        <svg viewBox="0 0 15 15" width="100%" height="30px" preserveAspectRatio="xMaxYMin meet">
         <g id="arrow_out" transform="scale(0.3 0.3)">
          <a xlink:href="_a_p_i_8h_a792f1a80c62a63e764cf64aabf95db92_icgraph_org.svg" target="_base">
           <rect id="button" ry="5" rx="5" y="6" x="6" height="38" width="38"
                fill="#f2f5e9" fill-opacity="0.5" stroke="#606060" stroke-width="1.0"/>
           <path id="arrow"
             d="M 11.500037,31.436501 C 11.940474,20.09759 22.043105,11.32322 32.158766,21.979434 L 37.068811,17.246167 C 37.068811,17.246167 37.088388,32 37.088388,32 L 22.160133,31.978069 C 22.160133,31.978069 26.997745,27.140456 26.997745,27.140456 C 18.528582,18.264221 13.291696,25.230495 11.500037,31.436501 z"
             style="fill:#404040;"/>
          </a>
         </g>
        </svg>
</svg>
