<?xml version="1.0" encoding="UTF-8" standalone="no"?>
<!DOCTYPE svg PUBLIC "-//W3C//DTD SVG 1.1//EN"
 "http://www.w3.org/Graphics/SVG/1.1/DTD/svg11.dtd">
<!-- Generated by graphviz version 2.40.1 (20161225.0304)
 -->
<!-- Title: mutexCreate Pages: 1 -->
<svg width="293pt" height="27pt"
 viewBox="0.00 0.00 293.08 27.00" xmlns="http://www.w3.org/2000/svg" xmlns:xlink="http://www.w3.org/1999/xlink">
<g id="graph0" class="graph" transform="scale(1 1) rotate(0) translate(4 23)">
<title>mutexCreate</title>
<!-- Node197 -->
<g id="node1" class="node">
<title>Node197</title>
<polygon fill="#bfbfbf" stroke="#000000" points="0,-.5 0,-18.5 73.2461,-18.5 73.2461,-.5 0,-.5"/>
<text text-anchor="middle" x="36.623" y="-6.5" font-family="Helvetica,sans-Serif" font-size="10.00" fill="#000000">mutexCreate</text>
</g>
<!-- Node198 -->
<g id="node2" class="node">
<title>Node198</title>
<g id="a_node2"><a xlink:href="slew_8c.html#a321758941d88b75783955c819bb75005" target="_top" xlink:title="Initializes the slew rate controller. ">
<polygon fill="none" stroke="#000000" points="109.2461,-.5 109.2461,-18.5 163.5957,-18.5 163.5957,-.5 109.2461,-.5"/>
<text text-anchor="middle" x="136.4209" y="-6.5" font-family="Helvetica,sans-Serif" font-size="10.00" fill="#000000">init_slew</text>
</a>
</g>
</g>
<!-- Node197&#45;&gt;Node198 -->
<g id="edge1" class="edge">
<title>Node197&#45;&gt;Node198</title>
<path fill="none" stroke="#191970" d="M83.6152,-9.5C92.3323,-9.5 101.1682,-9.5 109.0538,-9.5"/>
<polygon fill="#191970" stroke="#191970" points="83.5006,-6.0001 73.5005,-9.5 83.5005,-13.0001 83.5006,-6.0001"/>
</g>
<!-- Node199 -->
<g id="node3" class="node">
<title>Node199</title>
<g id="a_node3"><a xlink:href="opcontrol_8c.html#ac71a94af413917f27d108e95c4d6f6a7" target="_top" xlink:title="operatorControl">
<polygon fill="none" stroke="#000000" points="199.5957,-.5 199.5957,-18.5 285.0781,-18.5 285.0781,-.5 199.5957,-.5"/>
<text text-anchor="middle" x="242.3369" y="-6.5" font-family="Helvetica,sans-Serif" font-size="10.00" fill="#000000">operatorControl</text>
</a>
</g>
</g>
<!-- Node198&#45;&gt;Node199 -->
<g id="edge2" class="edge">
<title>Node198&#45;&gt;Node199</title>
<path fill="none" stroke="#191970" d="M173.8517,-9.5C182.1596,-9.5 191.0268,-9.5 199.5311,-9.5"/>
<polygon fill="#191970" stroke="#191970" points="173.6969,-6.0001 163.6969,-9.5 173.6969,-13.0001 173.6969,-6.0001"/>
</g>
</g>
</svg>
