<?xml version="1.0" encoding="UTF-8" standalone="no"?>
<!DOCTYPE svg PUBLIC "-//W3C//DTD SVG 1.1//EN"
 "http://www.w3.org/Graphics/SVG/1.1/DTD/svg11.dtd">
<!-- Generated by graphviz version 2.40.1 (20161225.0304)
 -->
<!-- Title: mutexTake Pages: 1 -->
<svg width="403pt" height="64pt"
 viewBox="0.00 0.00 403.44 64.00" xmlns="http://www.w3.org/2000/svg" xmlns:xlink="http://www.w3.org/1999/xlink">
<g id="graph0" class="graph" transform="scale(1 1) rotate(0) translate(4 60)">
<title>mutexTake</title>
<!-- Node170 -->
<g id="node1" class="node">
<title>Node170</title>
<polygon fill="#bfbfbf" stroke="#000000" points="0,-18.5 0,-36.5 64.3545,-36.5 64.3545,-18.5 0,-18.5"/>
<text text-anchor="middle" x="32.1772" y="-24.5" font-family="Helvetica,sans-Serif" font-size="10.00" fill="#000000">mutexTake</text>
</g>
<!-- Node171 -->
<g id="node2" class="node">
<title>Node171</title>
<g id="a_node2"><a xlink:href="slew_8c.html#a7dff2b79dffe55fb936d977594d7c01d" target="_top" xlink:title="Deinitializes the slew rate controller and frees memory. ">
<polygon fill="none" stroke="#000000" points="100.3545,-37.5 100.3545,-55.5 186.3838,-55.5 186.3838,-37.5 100.3545,-37.5"/>
<text text-anchor="middle" x="143.3691" y="-43.5" font-family="Helvetica,sans-Serif" font-size="10.00" fill="#000000">set_motor_slew</text>
</a>
</g>
</g>
<!-- Node170&#45;&gt;Node171 -->
<g id="edge1" class="edge">
<title>Node170&#45;&gt;Node171</title>
<path fill="none" stroke="#191970" d="M74.6328,-34.7546C83.0462,-36.1923 91.8855,-37.7027 100.3185,-39.1437"/>
<polygon fill="#191970" stroke="#191970" points="75.0841,-31.2811 64.6375,-33.0467 73.905,-38.1811 75.0841,-31.2811"/>
</g>
<!-- Node173 -->
<g id="node4" class="node">
<title>Node173</title>
<g id="a_node4"><a xlink:href="slew_8c.html#a807a87c5df438fde21c1e8213906695b" target="_top" xlink:title="Closes the distance between the desired motor value and the current motor value by half for each moto...">
<polygon fill="none" stroke="#000000" points="104.7954,-.5 104.7954,-18.5 181.9429,-18.5 181.9429,-.5 104.7954,-.5"/>
<text text-anchor="middle" x="143.3691" y="-6.5" font-family="Helvetica,sans-Serif" font-size="10.00" fill="#000000">updateMotors</text>
</a>
</g>
</g>
<!-- Node170&#45;&gt;Node173 -->
<g id="edge3" class="edge">
<title>Node170&#45;&gt;Node173</title>
<path fill="none" stroke="#191970" d="M74.6806,-20.6195C84.5763,-19.0175 95.0587,-17.3206 104.7746,-15.7478"/>
<polygon fill="#191970" stroke="#191970" points="73.9496,-17.1921 64.6375,-22.2453 75.0683,-24.1022 73.9496,-17.1921"/>
</g>
<!-- Node172 -->
<g id="node3" class="node">
<title>Node172</title>
<g id="a_node3"><a xlink:href="opcontrol_8c.html#ac71a94af413917f27d108e95c4d6f6a7" target="_top" xlink:title="operatorControl">
<polygon fill="none" stroke="#000000" points="222.3838,-37.5 222.3838,-55.5 307.8662,-55.5 307.8662,-37.5 222.3838,-37.5"/>
<text text-anchor="middle" x="265.125" y="-43.5" font-family="Helvetica,sans-Serif" font-size="10.00" fill="#000000">operatorControl</text>
</a>
</g>
</g>
<!-- Node171&#45;&gt;Node172 -->
<g id="edge2" class="edge">
<title>Node171&#45;&gt;Node172</title>
<path fill="none" stroke="#191970" d="M196.7814,-46.5C205.212,-46.5 213.8365,-46.5 221.995,-46.5"/>
<polygon fill="#191970" stroke="#191970" points="196.6386,-43.0001 186.6385,-46.5 196.6385,-50.0001 196.6386,-43.0001"/>
</g>
<!-- Node174 -->
<g id="node5" class="node">
<title>Node174</title>
<g id="a_node5"><a xlink:href="slew_8c.html#a321758941d88b75783955c819bb75005" target="_top" xlink:title="Initializes the slew rate controller. ">
<polygon fill="none" stroke="#000000" points="237.9502,-.5 237.9502,-18.5 292.2998,-18.5 292.2998,-.5 237.9502,-.5"/>
<text text-anchor="middle" x="265.125" y="-6.5" font-family="Helvetica,sans-Serif" font-size="10.00" fill="#000000">init_slew</text>
</a>
</g>
</g>
<!-- Node173&#45;&gt;Node174 -->
<g id="edge4" class="edge">
<title>Node173&#45;&gt;Node174</title>
<path fill="none" stroke="#191970" d="M192.672,-9.5C208.0676,-9.5 224.4886,-9.5 237.7982,-9.5"/>
<polygon fill="#191970" stroke="#191970" points="192.2282,-6.0001 182.2282,-9.5 192.2282,-13.0001 192.2282,-6.0001"/>
</g>
<!-- Node175 -->
<g id="node6" class="node">
<title>Node175</title>
<g id="a_node6"><a xlink:href="init_8c.html#a25a40b6614565f755233080a384c35f1" target="_top" xlink:title="initialize">
<polygon fill="none" stroke="#000000" points="343.8662,-.5 343.8662,-18.5 395.4375,-18.5 395.4375,-.5 343.8662,-.5"/>
<text text-anchor="middle" x="369.6519" y="-6.5" font-family="Helvetica,sans-Serif" font-size="10.00" fill="#000000">initialize</text>
</a>
</g>
</g>
<!-- Node174&#45;&gt;Node175 -->
<g id="edge5" class="edge">
<title>Node174&#45;&gt;Node175</title>
<path fill="none" stroke="#191970" d="M302.4026,-9.5C316.0646,-9.5 331.2192,-9.5 343.6784,-9.5"/>
<polygon fill="#191970" stroke="#191970" points="302.3154,-6.0001 292.3153,-9.5 302.3153,-13.0001 302.3154,-6.0001"/>
</g>
</g>
</svg>
