<?xml version="1.0" encoding="UTF-8" standalone="no"?>
<!DOCTYPE svg PUBLIC "-//W3C//DTD SVG 1.1//EN"
 "http://www.w3.org/Graphics/SVG/1.1/DTD/svg11.dtd">
<!-- Generated by graphviz version 2.40.1 (20161225.0304)
 -->
<!-- Title: imeReset Pages: 1 -->
<svg width="302pt" height="27pt"
 viewBox="0.00 0.00 302.00 27.00" xmlns="http://www.w3.org/2000/svg" xmlns:xlink="http://www.w3.org/1999/xlink">
<g id="graph0" class="graph" transform="scale(1 1) rotate(0) translate(4 23)">
<title>imeReset</title>
<!-- Node117 -->
<g id="node1" class="node">
<title>Node117</title>
<polygon fill="#bfbfbf" stroke="#000000" points="0,-.5 0,-18.5 58.2363,-18.5 58.2363,-.5 0,-.5"/>
<text text-anchor="middle" x="29.1182" y="-6.5" font-family="Helvetica,sans-Serif" font-size="10.00" fill="#000000">imeReset</text>
</g>
<!-- Node118 -->
<g id="node2" class="node">
<title>Node118</title>
<g id="a_node2"><a xlink:href="auto_8c.html#ac033c02ada6071c5f064cac73bead0fd" target="_top" xlink:title="sets up the IMEs for the autonomous portion. ">
<polygon fill="none" stroke="#000000" points="94.2363,-.5 94.2363,-18.5 186.96,-18.5 186.96,-.5 94.2363,-.5"/>
<text text-anchor="middle" x="140.5981" y="-6.5" font-family="Helvetica,sans-Serif" font-size="10.00" fill="#000000">setup_ime_auton</text>
</a>
</g>
</g>
<!-- Node117&#45;&gt;Node118 -->
<g id="edge1" class="edge">
<title>Node117&#45;&gt;Node118</title>
<path fill="none" stroke="#191970" d="M68.4595,-9.5C76.662,-9.5 85.3845,-9.5 93.8253,-9.5"/>
<polygon fill="#191970" stroke="#191970" points="68.4083,-6.0001 58.4082,-9.5 68.4082,-13.0001 68.4083,-6.0001"/>
</g>
<!-- Node119 -->
<g id="node3" class="node">
<title>Node119</title>
<g id="a_node3"><a xlink:href="auto_8c.html#a3c7ca506bbc071fa740de13805b7f376" target="_top" xlink:title="Runs the user autonomous code. ">
<polygon fill="none" stroke="#000000" points="222.96,-.5 222.96,-18.5 293.999,-18.5 293.999,-.5 222.96,-.5"/>
<text text-anchor="middle" x="258.4795" y="-6.5" font-family="Helvetica,sans-Serif" font-size="10.00" fill="#000000">autonomous</text>
</a>
</g>
</g>
<!-- Node118&#45;&gt;Node119 -->
<g id="edge2" class="edge">
<title>Node118&#45;&gt;Node119</title>
<path fill="none" stroke="#191970" d="M197.2992,-9.5C205.9763,-9.5 214.7182,-9.5 222.7713,-9.5"/>
<polygon fill="#191970" stroke="#191970" points="197.188,-6.0001 187.188,-9.5 197.1879,-13.0001 197.188,-6.0001"/>
</g>
</g>
</svg>
