<?xml version="1.0" encoding="UTF-8" standalone="no"?>
<!DOCTYPE svg PUBLIC "-//W3C//DTD SVG 1.1//EN"
 "http://www.w3.org/Graphics/SVG/1.1/DTD/svg11.dtd">
<!-- Generated by graphviz version 2.40.1 (20161225.0304)
 -->
<!-- Title: lcdSetBacklight Pages: 1 -->
<!--zoomable 363 -->
<svg id="main" version="1.1" xmlns="http://www.w3.org/2000/svg" xmlns:xlink="http://www.w3.org/1999/xlink" xml:space="preserve" onload="init(evt)">
<style type="text/css"><![CDATA[
.edge:hover path { stroke: red; }
.edge:hover polygon { stroke: red; fill: red; }
]]></style>
<script type="text/javascript"><![CDATA[
var edges = document.getElementsByTagName('g');
if (edges && edges.length) {
  for (var i=0;i<edges.length;i++) {
    if (edges[i].id.substr(0,4)=='edge') {
      edges[i].setAttribute('class','edge');
    }
  }
}
]]></script>
        <defs>
                <circle id="rim" cx="0" cy="0" r="7"/>
                <circle id="rim2" cx="0" cy="0" r="3.5"/>
                <g id="zoomPlus">
                        <use xlink:href="#rim" fill="#404040">
                                <set attributeName="fill" to="#808080" begin="zoomplus.mouseover" end="zoomplus.mouseout"/>
                        </use>
                        <path d="M-4,0h8M0,-4v8" fill="none" stroke="white" stroke-width="1.5" pointer-events="none"/>
                </g>
                <g id="zoomMin">
                        <use xlink:href="#rim" fill="#404040">
                                <set attributeName="fill" to="#808080" begin="zoomminus.mouseover" end="zoomminus.mouseout"/>
                        </use>
                        <path d="M-4,0h8" fill="none" stroke="white" stroke-width="1.5" pointer-events="none"/>
                </g>
                <g id="dirArrow">
                        <path fill="none" stroke="white" stroke-width="1.5" d="M0,-3.0v7 M-2.5,-0.5L0,-3.0L2.5,-0.5"/>
                </g>
               <g id="resetDef">
                       <use xlink:href="#rim2" fill="#404040">
                               <set attributeName="fill" to="#808080" begin="reset.mouseover" end="reset.mouseout"/>
                       </use>
               </g>
        </defs>

<script type="text/javascript">
var viewWidth = 696;
var viewHeight = 363;
var sectionId = 'dynsection-15';
</script>
<script xlink:href="svgpan.js"/>
<svg id="graph" class="graph">
<g id="viewport">
<title>lcdSetBacklight</title>
<!-- Node292 -->
<g id="node1" class="node">
<title>Node292</title>
<polygon fill="#bfbfbf" stroke="#000000" points="0,-280.5 0,-298.5 84.3691,-298.5 84.3691,-280.5 0,-280.5"/>
<text text-anchor="middle" x="42.1846" y="-286.5" font-family="Helvetica,sans-Serif" font-size="10.00" fill="#000000">lcdSetBacklight</text>
</g>
<!-- Node293 -->
<g id="node2" class="node">
<title>Node293</title>
<g id="a_node2"><a xlink:href="lcd_8c.html#a245902a4d48a6d9bd1ab308bf9b7e6b5" target="_top" xlink:title="sets the backlight of the lcd ">
<polygon fill="none" stroke="#000000" points="120.3691,-299.5 120.3691,-317.5 213.083,-317.5 213.083,-299.5 120.3691,-299.5"/>
<text text-anchor="middle" x="166.7261" y="-305.5" font-family="Helvetica,sans-Serif" font-size="10.00" fill="#000000">lcd_set_backlight</text>
</a>
</g>
</g>
<!-- Node292&#45;&gt;Node293 -->
<g id="edge1" class="edge">
<title>Node292&#45;&gt;Node293</title>
<path fill="none" stroke="#191970" d="M94.8008,-297.5271C103.2177,-298.8112 111.8758,-300.1321 120.1397,-301.3928"/>
<polygon fill="#191970" stroke="#191970" points="95.1099,-294.0338 84.6964,-295.9856 94.0541,-300.9538 95.1099,-294.0338"/>
</g>
<!-- Node294 -->
<g id="node3" class="node">
<title>Node294</title>
<g id="a_node3"><a xlink:href="log_8c.html#afff22aff6749311a684a559cac3ac8bd" target="_top" xlink:title="prints a log info message to the lcd ">
<polygon fill="none" stroke="#000000" points="141.2114,-262.5 141.2114,-280.5 192.2407,-280.5 192.2407,-262.5 141.2114,-262.5"/>
<text text-anchor="middle" x="166.7261" y="-268.5" font-family="Helvetica,sans-Serif" font-size="10.00" fill="#000000">log_info</text>
</a>
</g>
</g>
<!-- Node292&#45;&gt;Node294 -->
<g id="edge2" class="edge">
<title>Node292&#45;&gt;Node294</title>
<path fill="none" stroke="#191970" d="M95.0132,-281.8647C110.9674,-279.5588 127.7681,-277.1306 141.0944,-275.2046"/>
<polygon fill="#191970" stroke="#191970" points="94.0928,-278.4612 84.6964,-283.3558 95.0942,-285.3893 94.0928,-278.4612"/>
</g>
<!-- Node295 -->
<g id="node4" class="node">
<title>Node295</title>
<g id="a_node4"><a xlink:href="log_8c.html#a8e5bb8a2a372f5b066ff7af7044584c1" target="_top" xlink:title="prints a error message and displays on lcd. ">
<polygon fill="none" stroke="#000000" points="256.0361,-149.5 256.0361,-167.5 293.1494,-167.5 293.1494,-149.5 256.0361,-149.5"/>
<text text-anchor="middle" x="274.5928" y="-155.5" font-family="Helvetica,sans-Serif" font-size="10.00" fill="#000000">error</text>
</a>
</g>
</g>
<!-- Node294&#45;&gt;Node295 -->
<g id="edge3" class="edge">
<title>Node294&#45;&gt;Node295</title>
<path fill="none" stroke="#191970" d="M182.6001,-254.8705C205.7123,-230.6585 247.8396,-186.5263 265.9451,-167.5592"/>
<polygon fill="#191970" stroke="#191970" points="179.9264,-252.6025 175.5533,-262.2527 184.9899,-257.436 179.9264,-252.6025"/>
</g>
<!-- Node320 -->
<g id="node14" class="node">
<title>Node320</title>
<g id="a_node14"><a xlink:href="log_8c.html#a0bec2cf5fff7f607bc510b74aba9887c" target="_top" xlink:title="prints a warning message and displays on lcd. ">
<polygon fill="none" stroke="#000000" points="249.083,-309.5 249.083,-327.5 300.1025,-327.5 300.1025,-309.5 249.083,-309.5"/>
<text text-anchor="middle" x="274.5928" y="-315.5" font-family="Helvetica,sans-Serif" font-size="10.00" fill="#000000">warning</text>
</a>
</g>
</g>
<!-- Node294&#45;&gt;Node320 -->
<g id="edge15" class="edge">
<title>Node294&#45;&gt;Node320</title>
<path fill="none" stroke="#191970" d="M198.9625,-284.527C203.71,-286.4992 208.5323,-288.5325 213.083,-290.5 227.299,-296.6463 243.2083,-303.8985 255.2851,-309.4821"/>
<polygon fill="#191970" stroke="#191970" points="200.0133,-281.1747 189.4338,-280.6051 197.349,-287.6479 200.0133,-281.1747"/>
</g>
<!-- Node350 -->
<g id="node18" class="node">
<title>Node350</title>
<g id="a_node18"><a xlink:href="log_8c.html#a1606d750e1bb8de9f9e917172bba3382" target="_top" xlink:title="prints a info message ">
<polygon fill="none" stroke="#000000" points="369.1787,-262.5 369.1787,-280.5 401.3018,-280.5 401.3018,-262.5 369.1787,-262.5"/>
<text text-anchor="middle" x="385.2402" y="-268.5" font-family="Helvetica,sans-Serif" font-size="10.00" fill="#000000">info</text>
</a>
</g>
</g>
<!-- Node294&#45;&gt;Node350 -->
<g id="edge19" class="edge">
<title>Node294&#45;&gt;Node350</title>
<path fill="none" stroke="#191970" d="M202.9309,-271.5C251.0356,-271.5 334.0099,-271.5 368.9654,-271.5"/>
<polygon fill="#191970" stroke="#191970" points="202.6506,-268.0001 192.6506,-271.5 202.6506,-275.0001 202.6506,-268.0001"/>
</g>
<!-- Node296 -->
<g id="node5" class="node">
<title>Node296</title>
<g id="a_node5"><a xlink:href="encoders_8c.html#aa6ec1ca17e907babd52803ecba451cd3" target="_top" xlink:title="Initializes all motor encoders. ">
<polygon fill="none" stroke="#000000" points="347.499,-186.5 347.499,-204.5 422.9814,-204.5 422.9814,-186.5 347.499,-186.5"/>
<text text-anchor="middle" x="385.2402" y="-192.5" font-family="Helvetica,sans-Serif" font-size="10.00" fill="#000000">init_encoders</text>
</a>
</g>
</g>
<!-- Node295&#45;&gt;Node296 -->
<g id="edge4" class="edge">
<title>Node295&#45;&gt;Node296</title>
<path fill="none" stroke="#191970" d="M303.2441,-168.0809C320.1502,-173.7342 341.4247,-180.8483 358.0666,-186.4132"/>
<polygon fill="#191970" stroke="#191970" points="303.9564,-164.6286 293.3626,-164.7765 301.7364,-171.2673 303.9564,-164.6286"/>
</g>
<!-- Node297 -->
<g id="node6" class="node">
<title>Node297</title>
<g id="a_node6"><a xlink:href="init_8c.html#a25a40b6614565f755233080a384c35f1" target="_top" xlink:title="Runs user initialization code. ">
<polygon fill="none" stroke="#000000" points="497.8975,-186.5 497.8975,-204.5 549.4688,-204.5 549.4688,-186.5 497.8975,-186.5"/>
<text text-anchor="middle" x="523.6831" y="-192.5" font-family="Helvetica,sans-Serif" font-size="10.00" fill="#000000">initialize</text>
</a>
</g>
</g>
<!-- Node295&#45;&gt;Node297 -->
<g id="edge6" class="edge">
<title>Node295&#45;&gt;Node297</title>
<path fill="none" stroke="#191970" d="M287.6333,-175.9653C298.8071,-189.3554 316.2161,-206.8034 336.1025,-214.5 391.9655,-236.1204 463.8158,-217.1214 500.2506,-204.5279"/>
<polygon fill="#191970" stroke="#191970" points="290.1862,-173.5518 281.2276,-167.8954 284.7035,-177.9039 290.1862,-173.5518"/>
</g>
<!-- Node298 -->
<g id="node7" class="node">
<title>Node298</title>
<g id="a_node7"><a xlink:href="lifter_8c.html#adfb6207ee1f20953058c8de81ec3386a" target="_top" xlink:title="main_lifter_update">
<polygon fill="none" stroke="#000000" points="336.1025,-75.5 336.1025,-93.5 434.3779,-93.5 434.3779,-75.5 336.1025,-75.5"/>
<text text-anchor="middle" x="385.2402" y="-81.5" font-family="Helvetica,sans-Serif" font-size="10.00" fill="#000000">main_lifter_update</text>
</a>
</g>
</g>
<!-- Node295&#45;&gt;Node298 -->
<g id="edge7" class="edge">
<title>Node295&#45;&gt;Node298</title>
<path fill="none" stroke="#191970" d="M290.1557,-141.6538C301.8752,-129.7419 318.8293,-114.073 336.1025,-103.5 342.4213,-99.6322 349.6608,-96.3099 356.6058,-93.575"/>
<polygon fill="#191970" stroke="#191970" points="287.3265,-139.5478 282.9389,-149.1914 292.3827,-144.3888 287.3265,-139.5478"/>
</g>
<!-- Node301 -->
<g id="node9" class="node">
<title>Node301</title>
<g id="a_node9"><a xlink:href="matrix_8c.html#a8e41e30382335ea89f90b72db0b44d6f" target="_top" xlink:title="Asserts a condition is true. ">
<polygon fill="none" stroke="#ff0000" points="363.6245,-38.5 363.6245,-56.5 406.856,-56.5 406.856,-38.5 363.6245,-38.5"/>
<text text-anchor="middle" x="385.2402" y="-44.5" font-family="Helvetica,sans-Serif" font-size="10.00" fill="#000000">assert</text>
</a>
</g>
</g>
<!-- Node295&#45;&gt;Node301 -->
<g id="edge9" class="edge">
<title>Node295&#45;&gt;Node301</title>
<path fill="none" stroke="#191970" d="M282.6779,-140.0772C292.5532,-119.5233 311.0845,-86.5338 336.1025,-66.5 343.9559,-60.2112 354.1326,-55.8189 363.1861,-52.8543"/>
<polygon fill="#191970" stroke="#191970" points="279.4308,-138.7607 278.4242,-149.3076 285.7883,-141.6904 279.4308,-138.7607"/>
</g>
<!-- Node314 -->
<g id="node12" class="node">
<title>Node314</title>
<g id="a_node12"><a xlink:href="menu_8c.html#aff4fd27ff7707295d91c67fa52a6b021" target="_top" xlink:title="Static function that handles creation of menu. ">
<polygon fill="none" stroke="#ff0000" points="348.0557,-149.5 348.0557,-167.5 422.4248,-167.5 422.4248,-149.5 348.0557,-149.5"/>
<text text-anchor="middle" x="385.2402" y="-155.5" font-family="Helvetica,sans-Serif" font-size="10.00" fill="#000000">create_menu</text>
</a>
</g>
</g>
<!-- Node295&#45;&gt;Node314 -->
<g id="edge13" class="edge">
<title>Node295&#45;&gt;Node314</title>
<path fill="none" stroke="#191970" d="M303.5736,-158.5C317.1544,-158.5 333.498,-158.5 347.9849,-158.5"/>
<polygon fill="#191970" stroke="#191970" points="303.3626,-155.0001 293.3626,-158.5 303.3626,-162.0001 303.3626,-155.0001"/>
</g>
<!-- Node318 -->
<g id="node13" class="node">
<title>Node318</title>
<g id="a_node13"><a xlink:href="routines_8c.html#a230cdcefb410a429fb6baba1f88fc9ba" target="_top" xlink:title="Task that manages routines. ">
<polygon fill="none" stroke="#ff0000" points="350.0015,-112.5 350.0015,-130.5 420.479,-130.5 420.479,-112.5 350.0015,-112.5"/>
<text text-anchor="middle" x="385.2402" y="-118.5" font-family="Helvetica,sans-Serif" font-size="10.00" fill="#000000">routine_task</text>
</a>
</g>
</g>
<!-- Node295&#45;&gt;Node318 -->
<g id="edge14" class="edge">
<title>Node295&#45;&gt;Node318</title>
<path fill="none" stroke="#191970" d="M303.2441,-148.9191C320.1502,-143.2658 341.4247,-136.1517 358.0666,-130.5868"/>
<polygon fill="#191970" stroke="#191970" points="301.7364,-145.7327 293.3626,-152.2235 303.9564,-152.3714 301.7364,-145.7327"/>
</g>
<!-- Node296&#45;&gt;Node297 -->
<g id="edge5" class="edge">
<title>Node296&#45;&gt;Node297</title>
<path fill="none" stroke="#191970" d="M433.1006,-195.5C454.7843,-195.5 479.5682,-195.5 497.7243,-195.5"/>
<polygon fill="#191970" stroke="#191970" points="433.0704,-192.0001 423.0704,-195.5 433.0703,-199.0001 433.0704,-192.0001"/>
</g>
<!-- Node299 -->
<g id="node8" class="node">
<title>Node299</title>
<g id="a_node8"><a xlink:href="lifter_8c.html#a59bb7413777ca16aba124aaedf95c79b" target="_top" xlink:title="Updates the lifter in teleop. ">
<polygon fill="none" stroke="#ff0000" points="488.1636,-76.5 488.1636,-94.5 559.2026,-94.5 559.2026,-76.5 488.1636,-76.5"/>
<text text-anchor="middle" x="523.6831" y="-82.5" font-family="Helvetica,sans-Serif" font-size="10.00" fill="#000000">update_lifter</text>
</a>
</g>
</g>
<!-- Node298&#45;&gt;Node299 -->
<g id="edge8" class="edge">
<title>Node298&#45;&gt;Node299</title>
<path fill="none" stroke="#191970" d="M444.575,-84.9286C459.407,-85.0357 474.8573,-85.1473 488.1262,-85.2432"/>
<polygon fill="#191970" stroke="#191970" points="444.4649,-81.4278 434.4398,-84.8554 444.4142,-88.4276 444.4649,-81.4278"/>
</g>
<!-- Node302 -->
<g id="node10" class="node">
<title>Node302</title>
<g id="a_node10"><a xlink:href="matrix_8c.html#aae8b56c6fb44d9147b835f4006ca872c" target="_top" xlink:title="Makes a matrix with a width and height parameters. ">
<polygon fill="none" stroke="#ff0000" points="489.8457,-.5 489.8457,-18.5 557.5205,-18.5 557.5205,-.5 489.8457,-.5"/>
<text text-anchor="middle" x="523.6831" y="-6.5" font-family="Helvetica,sans-Serif" font-size="10.00" fill="#000000">makeMatrix</text>
</a>
</g>
</g>
<!-- Node301&#45;&gt;Node302 -->
<g id="edge10" class="edge">
<title>Node301&#45;&gt;Node302</title>
<path fill="none" stroke="#191970" d="M416.7768,-38.8438C438.9175,-32.7666 468.457,-24.6585 490.8741,-18.5055"/>
<polygon fill="#191970" stroke="#191970" points="415.5888,-35.5403 406.8719,-41.5625 417.4417,-42.2907 415.5888,-35.5403"/>
</g>
<!-- Node304 -->
<g id="node11" class="node">
<title>Node304</title>
<g id="a_node11"><a xlink:href="matrix_8c.html#aa3f5e409b1641373be7cf7284e216d1a" target="_top" xlink:title="Returns an identity matrix of size n by n. ">
<polygon fill="none" stroke="#000000" points="612.9883,-19.5 612.9883,-37.5 687.8945,-37.5 687.8945,-19.5 612.9883,-19.5"/>
<text text-anchor="middle" x="650.4414" y="-25.5" font-family="Helvetica,sans-Serif" font-size="10.00" fill="#000000">identityMatrix</text>
</a>
</g>
</g>
<!-- Node301&#45;&gt;Node304 -->
<g id="edge12" class="edge">
<title>Node301&#45;&gt;Node304</title>
<path fill="none" stroke="#191970" d="M417.0006,-45.2246C466.1607,-41.7026 560.4681,-34.946 612.9172,-31.1884"/>
<polygon fill="#191970" stroke="#191970" points="416.667,-41.7394 406.9428,-45.9452 417.1673,-48.7215 416.667,-41.7394"/>
</g>
<!-- Node302&#45;&gt;Node304 -->
<g id="edge11" class="edge">
<title>Node302&#45;&gt;Node304</title>
<path fill="none" stroke="#191970" d="M567.5606,-16.0769C582.2973,-18.2858 598.5925,-20.7283 612.8065,-22.8588"/>
<polygon fill="#191970" stroke="#191970" points="568.0604,-12.6128 557.652,-14.5917 567.0227,-19.5354 568.0604,-12.6128"/>
</g>
<!-- Node321 -->
<g id="node15" class="node">
<title>Node321</title>
<g id="a_node15"><a xlink:href="slew_8c.html#a321758941d88b75783955c819bb75005" target="_top" xlink:title="Initializes the slew rate controller. ">
<polygon fill="none" stroke="#ff0000" points="358.0654,-327.5 358.0654,-345.5 412.415,-345.5 412.415,-327.5 358.0654,-327.5"/>
<text text-anchor="middle" x="385.2402" y="-333.5" font-family="Helvetica,sans-Serif" font-size="10.00" fill="#000000">init_slew</text>
</a>
</g>
</g>
<!-- Node320&#45;&gt;Node321 -->
<g id="edge16" class="edge">
<title>Node320&#45;&gt;Node321</title>
<path fill="none" stroke="#191970" d="M310.4571,-324.3344C325.8227,-326.834 343.4833,-329.707 357.7826,-332.0332"/>
<polygon fill="#191970" stroke="#191970" points="310.6879,-320.826 300.2556,-322.6748 309.5639,-327.7352 310.6879,-320.826"/>
</g>
<!-- Node322 -->
<g id="node16" class="node">
<title>Node322</title>
<g id="a_node16"><a xlink:href="auto_8c.html#ae66ea80c777135c9f4d288a05f40ca86" target="_top" xlink:title="Starts the auntonomous program. ">
<polygon fill="none" stroke="#000000" points="490.666,-336.5 490.666,-354.5 556.7002,-354.5 556.7002,-336.5 490.666,-336.5"/>
<text text-anchor="middle" x="523.6831" y="-342.5" font-family="Helvetica,sans-Serif" font-size="10.00" fill="#000000">start_auton</text>
</a>
</g>
</g>
<!-- Node321&#45;&gt;Node322 -->
<g id="edge17" class="edge">
<title>Node321&#45;&gt;Node322</title>
<path fill="none" stroke="#191970" d="M422.8298,-338.9437C443.9793,-340.3186 470.1476,-342.0197 490.5281,-343.3446"/>
<polygon fill="#191970" stroke="#191970" points="422.7981,-335.4343 412.5921,-338.2781 422.3439,-342.4195 422.7981,-335.4343"/>
</g>
<!-- Node323 -->
<g id="node17" class="node">
<title>Node323</title>
<g id="a_node17"><a xlink:href="auto_8c.html#a3c7ca506bbc071fa740de13805b7f376" target="_top" xlink:title="Runs the user autonomous code. ">
<polygon fill="none" stroke="#000000" points="614.9219,-280.5 614.9219,-298.5 685.9609,-298.5 685.9609,-280.5 614.9219,-280.5"/>
<text text-anchor="middle" x="650.4414" y="-286.5" font-family="Helvetica,sans-Serif" font-size="10.00" fill="#000000">autonomous</text>
</a>
</g>
</g>
<!-- Node322&#45;&gt;Node323 -->
<g id="edge18" class="edge">
<title>Node322&#45;&gt;Node323</title>
<path fill="none" stroke="#191970" d="M562.8155,-333.0486C567.6305,-331.2933 572.4507,-329.4267 576.9883,-327.5 597.4726,-318.8022 620.0791,-306.7064 634.7285,-298.5159"/>
<polygon fill="#191970" stroke="#191970" points="561.3102,-329.8674 553.0314,-336.479 563.6263,-336.4732 561.3102,-329.8674"/>
</g>
<!-- Node350&#45;&gt;Node297 -->
<g id="edge22" class="edge">
<title>Node350&#45;&gt;Node297</title>
<path fill="none" stroke="#191970" d="M410.9266,-260.1898C418.6452,-256.4655 427.0147,-252.0927 434.3779,-247.5 451.5764,-236.7726 453.0137,-229.957 470.3779,-219.5 479.8547,-213.7929 490.9251,-208.5948 500.514,-204.5069"/>
<polygon fill="#191970" stroke="#191970" points="409.2067,-257.1299 401.6227,-264.5282 412.165,-263.4741 409.2067,-257.1299"/>
</g>
<!-- Node350&#45;&gt;Node322 -->
<g id="edge20" class="edge">
<title>Node350&#45;&gt;Node322</title>
<path fill="none" stroke="#191970" d="M405.464,-286.9483C422.1805,-299.1781 446.8983,-316.0497 470.3779,-327.5 477.3137,-330.8823 485.045,-333.8913 492.4204,-336.4352"/>
<polygon fill="#191970" stroke="#191970" points="407.1713,-283.8562 397.0589,-280.6954 402.9931,-289.4725 407.1713,-283.8562"/>
</g>
<!-- Node350&#45;&gt;Node323 -->
<g id="edge21" class="edge">
<title>Node350&#45;&gt;Node323</title>
<path fill="none" stroke="#191970" d="M411.4032,-263.8252C448.6482,-254.0713 518.8833,-240.0267 576.9883,-253.5 599.2618,-258.6647 622.5718,-271.572 636.8049,-280.4404"/>
<polygon fill="#191970" stroke="#191970" points="410.1085,-260.5504 401.3814,-266.5577 411.9499,-267.3039 410.1085,-260.5504"/>
</g>
<!-- Node351 -->
<g id="node19" class="node">
<title>Node351</title>
<g id="a_node19"><a xlink:href="lifter_8c.html#a3738d33dc870f98243a93bddd855b43e" target="_top" xlink:title="Stpos an autostack in case of an error. ">
<polygon fill="none" stroke="#ff0000" points="470.3779,-299.5 470.3779,-317.5 576.9883,-317.5 576.9883,-299.5 470.3779,-299.5"/>
<text text-anchor="middle" x="523.6831" y="-305.5" font-family="Helvetica,sans-Serif" font-size="10.00" fill="#000000">interrupt_auto_stack</text>
</a>
</g>
</g>
<!-- Node350&#45;&gt;Node351 -->
<g id="edge23" class="edge">
<title>Node350&#45;&gt;Node351</title>
<path fill="none" stroke="#191970" d="M411.1525,-278.4253C433.43,-284.3791 465.7111,-293.0065 489.9911,-299.4955"/>
<polygon fill="#191970" stroke="#191970" points="411.957,-275.0175 401.3923,-275.8168 410.1496,-281.7801 411.957,-275.0175"/>
</g>
<!-- Node332 -->
<g id="node20" class="node">
<title>Node332</title>
<g id="a_node20"><a xlink:href="lifter_8c.html#a8a64fa88b389b39c236c5c57a7fb5c67" target="_top" xlink:title="Autostacks a cone once picked up. ">
<polygon fill="none" stroke="#ff0000" points="476.2129,-262.5 476.2129,-280.5 571.1533,-280.5 571.1533,-262.5 476.2129,-262.5"/>
<text text-anchor="middle" x="523.6831" y="-268.5" font-family="Helvetica,sans-Serif" font-size="10.00" fill="#000000">autostack_routine</text>
</a>
</g>
</g>
<!-- Node350&#45;&gt;Node332 -->
<g id="edge24" class="edge">
<title>Node350&#45;&gt;Node332</title>
<path fill="none" stroke="#191970" d="M411.5126,-271.5C429.6692,-271.5 454.3436,-271.5 475.9276,-271.5"/>
<polygon fill="#191970" stroke="#191970" points="411.3924,-268.0001 401.3923,-271.5 411.3923,-275.0001 411.3924,-268.0001"/>
</g>
</g>
</svg>
        <g id="navigator" transform="translate(0 0)" fill="#404254">
                <rect fill="#f2f5e9" fill-opacity="0.5" stroke="#606060" stroke-width=".5" x="0" y="0" width="60" height="60"/>
                <use id="zoomplus" xlink:href="#zoomPlus" x="17" y="9" onmousedown="handleZoom(evt,'in')"/>
                <use id="zoomminus" xlink:href="#zoomMin" x="42" y="9" onmousedown="handleZoom(evt,'out')"/>
                <use id="reset" xlink:href="#resetDef" x="30" y="36" onmousedown="handleReset()"/>
                <g id="arrowUp" xlink:href="#dirArrow" transform="translate(30 24)" onmousedown="handlePan(0,-1)">
                  <use xlink:href="#rim" fill="#404040">
                        <set attributeName="fill" to="#808080" begin="arrowUp.mouseover" end="arrowUp.mouseout"/>
                  </use>
                  <path fill="none" stroke="white" stroke-width="1.5" d="M0,-3.0v7 M-2.5,-0.5L0,-3.0L2.5,-0.5"/>
                </g>
                <g id="arrowRight" xlink:href="#dirArrow" transform="rotate(90) translate(36 -43)" onmousedown="handlePan(1,0)">
                  <use xlink:href="#rim" fill="#404040">
                        <set attributeName="fill" to="#808080" begin="arrowRight.mouseover" end="arrowRight.mouseout"/>
                  </use>
                  <path fill="none" stroke="white" stroke-width="1.5" d="M0,-3.0v7 M-2.5,-0.5L0,-3.0L2.5,-0.5"/>
                </g>
                <g id="arrowDown" xlink:href="#dirArrow" transform="rotate(180) translate(-30 -48)" onmousedown="handlePan(0,1)">
                  <use xlink:href="#rim" fill="#404040">
                        <set attributeName="fill" to="#808080" begin="arrowDown.mouseover" end="arrowDown.mouseout"/>
                  </use>
                  <path fill="none" stroke="white" stroke-width="1.5" d="M0,-3.0v7 M-2.5,-0.5L0,-3.0L2.5,-0.5"/>
                </g>
                <g id="arrowLeft" xlink:href="#dirArrow" transform="rotate(270) translate(-36 17)" onmousedown="handlePan(-1,0)">
                  <use xlink:href="#rim" fill="#404040">
                        <set attributeName="fill" to="#808080" begin="arrowLeft.mouseover" end="arrowLeft.mouseout"/>
                  </use>
                  <path fill="none" stroke="white" stroke-width="1.5" d="M0,-3.0v7 M-2.5,-0.5L0,-3.0L2.5,-0.5"/>
                </g>
        </g>
        <svg viewBox="0 0 15 15" width="100%" height="30px" preserveAspectRatio="xMaxYMin meet">
         <g id="arrow_out" transform="scale(0.3 0.3)">
          <a xlink:href="_a_p_i_8h_aab53a247d88151a6623c20fa1ea940b0_icgraph_org.svg" target="_base">
           <rect id="button" ry="5" rx="5" y="6" x="6" height="38" width="38"
                fill="#f2f5e9" fill-opacity="0.5" stroke="#606060" stroke-width="1.0"/>
           <path id="arrow"
             d="M 11.500037,31.436501 C 11.940474,20.09759 22.043105,11.32322 32.158766,21.979434 L 37.068811,17.246167 C 37.068811,17.246167 37.088388,32 37.088388,32 L 22.160133,31.978069 C 22.160133,31.978069 26.997745,27.140456 26.997745,27.140456 C 18.528582,18.264221 13.291696,25.230495 11.500037,31.436501 z"
             style="fill:#404040;"/>
          </a>
         </g>
        </svg>
</svg>
