<?xml version="1.0" encoding="UTF-8" standalone="no"?>
<!DOCTYPE svg PUBLIC "-//W3C//DTD SVG 1.1//EN"
 "http://www.w3.org/Graphics/SVG/1.1/DTD/svg11.dtd">
<!-- Generated by graphviz version 2.40.1 (20161225.0304)
 -->
<!-- Title: sprintf Pages: 1 -->
<svg width="342pt" height="27pt"
 viewBox="0.00 0.00 342.30 27.00" xmlns="http://www.w3.org/2000/svg" xmlns:xlink="http://www.w3.org/1999/xlink">
<g id="graph0" class="graph" transform="scale(1 1) rotate(0) translate(4 23)">
<title>sprintf</title>
<!-- Node238 -->
<g id="node1" class="node">
<title>Node238</title>
<polygon fill="#bfbfbf" stroke="#000000" points="0,-.5 0,-18.5 43.2314,-18.5 43.2314,-.5 0,-.5"/>
<text text-anchor="middle" x="21.6157" y="-6.5" font-family="Helvetica,sans-Serif" font-size="10.00" fill="#000000">sprintf</text>
</g>
<!-- Node239 -->
<g id="node2" class="node">
<title>Node239</title>
<g id="a_node2"><a xlink:href="slew_8c.html#a807a87c5df438fde21c1e8213906695b" target="_top" xlink:title="Closes the distance between the desired motor value and the current motor value by half for each moto...">
<polygon fill="none" stroke="#000000" points="79.2314,-.5 79.2314,-18.5 156.3789,-18.5 156.3789,-.5 79.2314,-.5"/>
<text text-anchor="middle" x="117.8052" y="-6.5" font-family="Helvetica,sans-Serif" font-size="10.00" fill="#000000">updateMotors</text>
</a>
</g>
</g>
<!-- Node238&#45;&gt;Node239 -->
<g id="edge1" class="edge">
<title>Node238&#45;&gt;Node239</title>
<path fill="none" stroke="#191970" d="M53.6524,-9.5C61.7925,-9.5 70.6259,-9.5 79.0602,-9.5"/>
<polygon fill="#191970" stroke="#191970" points="53.4426,-6.0001 43.4426,-9.5 53.4426,-13.0001 53.4426,-6.0001"/>
</g>
<!-- Node240 -->
<g id="node3" class="node">
<title>Node240</title>
<g id="a_node3"><a xlink:href="slew_8c.html#a321758941d88b75783955c819bb75005" target="_top" xlink:title="Initializes the slew rate controller. ">
<polygon fill="none" stroke="#000000" points="192.3789,-.5 192.3789,-18.5 246.7285,-18.5 246.7285,-.5 192.3789,-.5"/>
<text text-anchor="middle" x="219.5537" y="-6.5" font-family="Helvetica,sans-Serif" font-size="10.00" fill="#000000">init_slew</text>
</a>
</g>
</g>
<!-- Node239&#45;&gt;Node240 -->
<g id="edge2" class="edge">
<title>Node239&#45;&gt;Node240</title>
<path fill="none" stroke="#191970" d="M166.7682,-9.5C175.5454,-9.5 184.3986,-9.5 192.2807,-9.5"/>
<polygon fill="#191970" stroke="#191970" points="166.5622,-6.0001 156.5622,-9.5 166.5622,-13.0001 166.5622,-6.0001"/>
</g>
<!-- Node241 -->
<g id="node4" class="node">
<title>Node241</title>
<g id="a_node4"><a xlink:href="init_8c.html#a25a40b6614565f755233080a384c35f1" target="_top" xlink:title="initialize">
<polygon fill="none" stroke="#000000" points="282.7285,-.5 282.7285,-18.5 334.2998,-18.5 334.2998,-.5 282.7285,-.5"/>
<text text-anchor="middle" x="308.5142" y="-6.5" font-family="Helvetica,sans-Serif" font-size="10.00" fill="#000000">initialize</text>
</a>
</g>
</g>
<!-- Node240&#45;&gt;Node241 -->
<g id="edge3" class="edge">
<title>Node240&#45;&gt;Node241</title>
<path fill="none" stroke="#191970" d="M257.3733,-9.5C265.91,-9.5 274.7815,-9.5 282.6916,-9.5"/>
<polygon fill="#191970" stroke="#191970" points="257.2137,-6.0001 247.2137,-9.5 257.2137,-13.0001 257.2137,-6.0001"/>
</g>
</g>
</svg>
