<?xml version="1.0" encoding="UTF-8" standalone="no"?>
<!DOCTYPE svg PUBLIC "-//W3C//DTD SVG 1.1//EN"
 "http://www.w3.org/Graphics/SVG/1.1/DTD/svg11.dtd">
<!-- Generated by graphviz version 2.40.1 (20161225.0304)
 -->
<!-- Title: taskDelete Pages: 1 -->
<svg width="274pt" height="27pt"
 viewBox="0.00 0.00 274.20 27.00" xmlns="http://www.w3.org/2000/svg" xmlns:xlink="http://www.w3.org/1999/xlink">
<g id="graph0" class="graph" transform="scale(1 1) rotate(0) translate(4 23)">
<title>taskDelete</title>
<!-- Node676 -->
<g id="node1" class="node">
<title>Node676</title>
<polygon fill="#bfbfbf" stroke="#000000" points="0,-.5 0,-18.5 63.2461,-18.5 63.2461,-.5 0,-.5"/>
<text text-anchor="middle" x="31.623" y="-6.5" font-family="Helvetica,sans-Serif" font-size="10.00" fill="#000000">taskDelete</text>
</g>
<!-- Node677 -->
<g id="node2" class="node">
<title>Node677</title>
<g id="a_node2"><a xlink:href="slew_8c.html#a981c9990a969d2587e66e550737f7cd9" target="_top" xlink:title="Deinitializes the slew rate controller and frees memory. ">
<polygon fill="none" stroke="#000000" points="99.2461,-.5 99.2461,-18.5 159.1572,-18.5 159.1572,-.5 99.2461,-.5"/>
<text text-anchor="middle" x="129.2017" y="-6.5" font-family="Helvetica,sans-Serif" font-size="10.00" fill="#000000">deinitslew</text>
</a>
</g>
</g>
<!-- Node676&#45;&gt;Node677 -->
<g id="edge1" class="edge">
<title>Node676&#45;&gt;Node677</title>
<path fill="none" stroke="#191970" d="M73.534,-9.5C82.0978,-9.5 90.9501,-9.5 99.0069,-9.5"/>
<polygon fill="#191970" stroke="#191970" points="73.3041,-6.0001 63.304,-9.5 73.304,-13.0001 73.3041,-6.0001"/>
</g>
<!-- Node678 -->
<g id="node3" class="node">
<title>Node678</title>
<g id="a_node3"><a xlink:href="auto_8c.html#a3c7ca506bbc071fa740de13805b7f376" target="_top" xlink:title="Runs the user autonomous code. ">
<polygon fill="none" stroke="#000000" points="195.1572,-.5 195.1572,-18.5 266.1963,-18.5 266.1963,-.5 195.1572,-.5"/>
<text text-anchor="middle" x="230.6768" y="-6.5" font-family="Helvetica,sans-Serif" font-size="10.00" fill="#000000">autonomous</text>
</a>
</g>
</g>
<!-- Node677&#45;&gt;Node678 -->
<g id="edge2" class="edge">
<title>Node677&#45;&gt;Node678</title>
<path fill="none" stroke="#191970" d="M169.4374,-9.5C177.9099,-9.5 186.791,-9.5 195.0788,-9.5"/>
<polygon fill="#191970" stroke="#191970" points="169.3728,-6.0001 159.3728,-9.5 169.3728,-13.0001 169.3728,-6.0001"/>
</g>
</g>
</svg>
