<?xml version="1.0" encoding="UTF-8" standalone="no"?>
<!DOCTYPE svg PUBLIC "-//W3C//DTD SVG 1.1//EN"
 "http://www.w3.org/Graphics/SVG/1.1/DTD/svg11.dtd">
<!-- Generated by graphviz version 2.40.1 (20161225.0304)
 -->
<!-- Title: motorStopAll Pages: 1 -->
<svg width="896pt" height="473pt"
 viewBox="0.00 0.00 896.28 472.73" xmlns="http://www.w3.org/2000/svg" xmlns:xlink="http://www.w3.org/1999/xlink">
<g id="graph0" class="graph" transform="scale(1 1) rotate(0) translate(4 468.7279)">
<title>motorStopAll</title>
<!-- Node406 -->
<g id="node1" class="node">
<title>Node406</title>
<polygon fill="#bfbfbf" stroke="#000000" points="0,-282.7279 0,-300.7279 73.2461,-300.7279 73.2461,-282.7279 0,-282.7279"/>
<text text-anchor="middle" x="36.623" y="-288.7279" font-family="Helvetica,sans-Serif" font-size="10.00" fill="#000000">motorStopAll</text>
</g>
<!-- Node407 -->
<g id="node2" class="node">
<title>Node407</title>
<g id="a_node2"><a xlink:href="slew_8c.html#a321758941d88b75783955c819bb75005" target="_top" xlink:title="Initializes the slew rate controller. ">
<polygon fill="none" stroke="#000000" points="109.2461,-282.7279 109.2461,-300.7279 163.5957,-300.7279 163.5957,-282.7279 109.2461,-282.7279"/>
<text text-anchor="middle" x="136.4209" y="-288.7279" font-family="Helvetica,sans-Serif" font-size="10.00" fill="#000000">init_slew</text>
</a>
</g>
</g>
<!-- Node406&#45;&gt;Node407 -->
<g id="edge1" class="edge">
<title>Node406&#45;&gt;Node407</title>
<path fill="none" stroke="#191970" d="M83.6152,-291.7279C92.3323,-291.7279 101.1682,-291.7279 109.0538,-291.7279"/>
<polygon fill="#191970" stroke="#191970" points="83.5006,-288.228 73.5005,-291.7279 83.5005,-295.228 83.5006,-288.228"/>
</g>
<!-- Node408 -->
<g id="node3" class="node">
<title>Node408</title>
<g id="a_node3"><a xlink:href="auto_8c.html#ae66ea80c777135c9f4d288a05f40ca86" target="_top" xlink:title="Starts the auntonomous program. ">
<polygon fill="none" stroke="#000000" points="222.6548,-89.7279 222.6548,-107.7279 288.689,-107.7279 288.689,-89.7279 222.6548,-89.7279"/>
<text text-anchor="middle" x="255.6719" y="-95.7279" font-family="Helvetica,sans-Serif" font-size="10.00" fill="#000000">start_auton</text>
</a>
</g>
</g>
<!-- Node407&#45;&gt;Node408 -->
<g id="edge2" class="edge">
<title>Node407&#45;&gt;Node408</title>
<path fill="none" stroke="#191970" d="M147.3691,-274.0089C172.0457,-234.0714 231.3058,-138.1628 249.9534,-107.9828"/>
<polygon fill="#191970" stroke="#191970" points="144.2916,-272.3311 142.0127,-282.6779 150.2466,-276.0106 144.2916,-272.3311"/>
</g>
<!-- Node410 -->
<g id="node5" class="node">
<title>Node410</title>
<g id="a_node5"><a xlink:href="opcontrol_8c.html#ac71a94af413917f27d108e95c4d6f6a7" target="_top" xlink:title="Runs the user operator control code. ">
<polygon fill="none" stroke="#000000" points="802.7959,-360.7279 802.7959,-378.7279 888.2783,-378.7279 888.2783,-360.7279 802.7959,-360.7279"/>
<text text-anchor="middle" x="845.5371" y="-366.7279" font-family="Helvetica,sans-Serif" font-size="10.00" fill="#000000">operatorControl</text>
</a>
</g>
</g>
<!-- Node407&#45;&gt;Node410 -->
<g id="edge4" class="edge">
<title>Node407&#45;&gt;Node410</title>
<path fill="none" stroke="#191970" d="M150.0328,-308.7892C186.5143,-352.4345 291.5303,-464.7279 406.3242,-464.7279 406.3242,-464.7279 406.3242,-464.7279 560.8755,-464.7279 668.7223,-464.7279 788.2791,-402.6146 830.0959,-378.8369"/>
<polygon fill="#191970" stroke="#191970" points="152.7158,-306.5413 143.6678,-301.0291 147.3035,-310.9806 152.7158,-306.5413"/>
</g>
<!-- Node411 -->
<g id="node6" class="node">
<title>Node411</title>
<g id="a_node6"><a xlink:href="slew_8c.html#a7dff2b79dffe55fb936d977594d7c01d" target="_top" xlink:title="Sets motor speed wrapped inside the slew rate controller. ">
<polygon fill="none" stroke="#000000" points="212.6572,-261.7279 212.6572,-279.7279 298.6865,-279.7279 298.6865,-261.7279 212.6572,-261.7279"/>
<text text-anchor="middle" x="255.6719" y="-267.7279" font-family="Helvetica,sans-Serif" font-size="10.00" fill="#000000">set_motor_slew</text>
</a>
</g>
</g>
<!-- Node407&#45;&gt;Node411 -->
<g id="edge5" class="edge">
<title>Node407&#45;&gt;Node411</title>
<path fill="none" stroke="#191970" d="M173.7182,-285.1598C186.0331,-282.9912 199.8333,-280.561 212.5471,-278.3221"/>
<polygon fill="#191970" stroke="#191970" points="173.0209,-281.7287 163.7795,-286.91 174.235,-288.6226 173.0209,-281.7287"/>
</g>
<!-- Node424 -->
<g id="node15" class="node">
<title>Node424</title>
<g id="a_node15"><a xlink:href="slew_8c.html#a9f8b8ae577ef938622024545711f0151" target="_top" xlink:title="Sets the motor speed ignoring the slew controller. ">
<polygon fill="none" stroke="#000000" points="199.5957,-301.7279 199.5957,-319.7279 311.748,-319.7279 311.748,-301.7279 199.5957,-301.7279"/>
<text text-anchor="middle" x="255.6719" y="-307.7279" font-family="Helvetica,sans-Serif" font-size="10.00" fill="#000000">set_motor_immediate</text>
</a>
</g>
</g>
<!-- Node407&#45;&gt;Node424 -->
<g id="edge21" class="edge">
<title>Node407&#45;&gt;Node424</title>
<path fill="none" stroke="#191970" d="M173.669,-297.6625C181.7942,-298.9571 190.5679,-300.355 199.2507,-301.7384"/>
<polygon fill="#191970" stroke="#191970" points="174.2057,-294.204 163.7795,-296.0869 173.1042,-301.1168 174.2057,-294.204"/>
</g>
<!-- Node409 -->
<g id="node4" class="node">
<title>Node409</title>
<g id="a_node4"><a xlink:href="auto_8c.html#a3c7ca506bbc071fa740de13805b7f376" target="_top" xlink:title="Runs the user autonomous code. ">
<polygon fill="none" stroke="#000000" points="676.3037,-134.7279 676.3037,-152.7279 747.3428,-152.7279 747.3428,-134.7279 676.3037,-134.7279"/>
<text text-anchor="middle" x="711.8232" y="-140.7279" font-family="Helvetica,sans-Serif" font-size="10.00" fill="#000000">autonomous</text>
</a>
</g>
</g>
<!-- Node408&#45;&gt;Node409 -->
<g id="edge3" class="edge">
<title>Node408&#45;&gt;Node409</title>
<path fill="none" stroke="#191970" d="M277.9824,-84.3233C337.0838,-48.1347 501.3383,39.5281 620.8506,-20.7279 633.4203,-27.0653 687.5596,-107.2587 705.7987,-134.6379"/>
<polygon fill="#191970" stroke="#191970" points="276.0576,-81.3987 269.4227,-89.6588 279.7605,-87.3391 276.0576,-81.3987"/>
</g>
<!-- Node412 -->
<g id="node7" class="node">
<title>Node412</title>
<g id="a_node7"><a xlink:href="drive_8c.html#a8df41fd50094c065eedc81fc5e6595d1" target="_top" xlink:title="sets the speed of one side of the robot. ">
<polygon fill="none" stroke="#000000" points="363.2974,-72.7279 363.2974,-90.7279 449.3511,-90.7279 449.3511,-72.7279 363.2974,-72.7279"/>
<text text-anchor="middle" x="406.3242" y="-78.7279" font-family="Helvetica,sans-Serif" font-size="10.00" fill="#000000">set_side_speed</text>
</a>
</g>
</g>
<!-- Node411&#45;&gt;Node412 -->
<g id="edge6" class="edge">
<title>Node411&#45;&gt;Node412</title>
<path fill="none" stroke="#191970" d="M269.5568,-253.3086C300.7772,-214.1413 375.621,-120.2464 399.1309,-90.7523"/>
<polygon fill="#191970" stroke="#191970" points="266.4344,-251.6107 262.9382,-261.612 271.9082,-255.9739 266.4344,-251.6107"/>
</g>
<!-- Node416 -->
<g id="node11" class="node">
<title>Node416</title>
<g id="a_node11"><a xlink:href="lifter_8c.html#ad00a195af30f246924d6e1a30095b882" target="_top" xlink:title="Sets the main lifter motors to the given value. ">
<polygon fill="none" stroke="#ff0000" points="347.748,-261.7279 347.748,-279.7279 464.9004,-279.7279 464.9004,-261.7279 347.748,-261.7279"/>
<text text-anchor="middle" x="406.3242" y="-267.7279" font-family="Helvetica,sans-Serif" font-size="10.00" fill="#000000">set_main_lifter_motors</text>
</a>
</g>
</g>
<!-- Node411&#45;&gt;Node416 -->
<g id="edge14" class="edge">
<title>Node411&#45;&gt;Node416</title>
<path fill="none" stroke="#191970" d="M309.1036,-270.7279C321.6061,-270.7279 334.9899,-270.7279 347.7049,-270.7279"/>
<polygon fill="#191970" stroke="#191970" points="308.8428,-267.228 298.8428,-270.7279 308.8428,-274.228 308.8428,-267.228"/>
</g>
<!-- Node412&#45;&gt;Node409 -->
<g id="edge11" class="edge">
<title>Node412&#45;&gt;Node409</title>
<path fill="none" stroke="#191970" d="M451.6101,-93.284C467.1893,-97.1148 484.7698,-101.278 500.9004,-104.7279 562.2609,-117.8512 634.2244,-130.5949 676.2498,-137.7733"/>
<polygon fill="#191970" stroke="#191970" points="452.2452,-89.8355 441.6967,-90.8254 450.5601,-96.6297 452.2452,-89.8355"/>
</g>
<!-- Node413 -->
<g id="node8" class="node">
<title>Node413</title>
<g id="a_node8"><a xlink:href="auto_8c.html#a42084538c07a7089a1fe425c4f97650a" target="_top" xlink:title="Drives the robot forward until it reaches the mobile goal. ">
<polygon fill="none" stroke="#000000" points="506.457,-67.7279 506.457,-95.7279 615.2939,-95.7279 615.2939,-67.7279 506.457,-67.7279"/>
<text text-anchor="start" x="514.457" y="-83.7279" font-family="Helvetica,sans-Serif" font-size="10.00" fill="#000000">auton_drive_towards</text>
<text text-anchor="middle" x="560.8755" y="-73.7279" font-family="Helvetica,sans-Serif" font-size="10.00" fill="#000000">_mobile_goal</text>
</a>
</g>
</g>
<!-- Node412&#45;&gt;Node413 -->
<g id="edge7" class="edge">
<title>Node412&#45;&gt;Node413</title>
<path fill="none" stroke="#191970" d="M459.5535,-81.7279C474.6142,-81.7279 491.0283,-81.7279 506.1741,-81.7279"/>
<polygon fill="#191970" stroke="#191970" points="459.3754,-78.228 449.3754,-81.7279 459.3753,-85.228 459.3754,-78.228"/>
</g>
<!-- Node414 -->
<g id="node9" class="node">
<title>Node414</title>
<g id="a_node9"><a xlink:href="auto_8c.html#a8141105864165fcb16d70f7cc72a1b6f" target="_top" xlink:title="Rotates the robot 180 degrees clockwise. ">
<polygon fill="none" stroke="#000000" points="517.8438,-30.7279 517.8438,-48.7279 603.9072,-48.7279 603.9072,-30.7279 517.8438,-30.7279"/>
<text text-anchor="middle" x="560.8755" y="-36.7279" font-family="Helvetica,sans-Serif" font-size="10.00" fill="#000000">auton_turn_180</text>
</a>
</g>
</g>
<!-- Node412&#45;&gt;Node414 -->
<g id="edge9" class="edge">
<title>Node412&#45;&gt;Node414</title>
<path fill="none" stroke="#191970" d="M449.3252,-70.0422C474.0399,-63.3258 504.6204,-55.0154 527.5089,-48.7954"/>
<polygon fill="#191970" stroke="#191970" points="448.2115,-66.7178 439.4793,-72.7178 450.0472,-73.4728 448.2115,-66.7178"/>
</g>
<!-- Node415 -->
<g id="node10" class="node">
<title>Node415</title>
<g id="a_node10"><a xlink:href="drive_8c.html#a8224a4626a934d30ed587671b7004bf8" target="_top" xlink:title="Updates the drive motors during teleop. ">
<polygon fill="none" stroke="#000000" points="656.8506,-35.7279 656.8506,-53.7279 766.7959,-53.7279 766.7959,-35.7279 656.8506,-35.7279"/>
<text text-anchor="middle" x="711.8232" y="-41.7279" font-family="Helvetica,sans-Serif" font-size="10.00" fill="#000000">update_drive_motors</text>
</a>
</g>
</g>
<!-- Node412&#45;&gt;Node415 -->
<g id="edge12" class="edge">
<title>Node412&#45;&gt;Node415</title>
<path fill="none" stroke="#191970" d="M423.9392,-65.8672C441.8394,-50.9061 471.1027,-29.5038 500.9004,-20.7279 566.1275,-1.5173 646.8919,-22.4629 686.9183,-35.6615"/>
<polygon fill="#191970" stroke="#191970" points="421.4035,-63.4319 416.112,-72.6108 425.9726,-68.7351 421.4035,-63.4319"/>
</g>
<!-- Node413&#45;&gt;Node409 -->
<g id="edge8" class="edge">
<title>Node413&#45;&gt;Node409</title>
<path fill="none" stroke="#191970" d="M604.6801,-99.7201C632.6112,-111.1925 667.6108,-125.5682 689.8514,-134.7032"/>
<polygon fill="#191970" stroke="#191970" points="605.7078,-96.3585 595.1279,-95.7966 603.0482,-102.8336 605.7078,-96.3585"/>
</g>
<!-- Node414&#45;&gt;Node409 -->
<g id="edge10" class="edge">
<title>Node414&#45;&gt;Node409</title>
<path fill="none" stroke="#191970" d="M610.0914,-52.406C613.8232,-53.9946 617.4541,-55.7631 620.8506,-57.7279 657.1598,-78.7317 690.4281,-116.9459 704.6033,-134.4824"/>
<polygon fill="#191970" stroke="#191970" points="611.2744,-49.1113 600.6836,-48.8185 608.7802,-55.6519 611.2744,-49.1113"/>
</g>
<!-- Node415&#45;&gt;Node410 -->
<g id="edge13" class="edge">
<title>Node415&#45;&gt;Node410</title>
<path fill="none" stroke="#191970" d="M726.0453,-62.1827C738.2096,-77.7997 755.4939,-101.7148 766.7959,-124.7279 809.5334,-211.75 836.3947,-327.2801 843.5871,-360.461"/>
<polygon fill="#191970" stroke="#191970" points="728.519,-59.6698 719.5587,-54.0162 723.0377,-64.0235 728.519,-59.6698"/>
</g>
<!-- Node417 -->
<g id="node12" class="node">
<title>Node417</title>
<g id="a_node12"><a xlink:href="auto_8c.html#a51a62a1a0851cc5939a2c6034849e380" target="_top" xlink:title="utility function to raise the mainlifter to the mobile goal height ">
<polygon fill="none" stroke="#000000" points="500.9004,-227.7279 500.9004,-245.7279 620.8506,-245.7279 620.8506,-227.7279 500.9004,-227.7279"/>
<text text-anchor="middle" x="560.8755" y="-233.7279" font-family="Helvetica,sans-Serif" font-size="10.00" fill="#000000">auton_rasie_main_lifter</text>
</a>
</g>
</g>
<!-- Node416&#45;&gt;Node417 -->
<g id="edge15" class="edge">
<title>Node416&#45;&gt;Node417</title>
<path fill="none" stroke="#191970" d="M457.3668,-259.4989C477.6854,-255.029 500.7494,-249.9551 519.9411,-245.7331"/>
<polygon fill="#191970" stroke="#191970" points="456.3498,-256.1389 447.3354,-261.7058 457.8538,-262.9754 456.3498,-256.1389"/>
</g>
<!-- Node418 -->
<g id="node13" class="node">
<title>Node418</title>
<g id="a_node13"><a xlink:href="lifter_8c.html#aa4d172cbde795bc13fe6baabd074717e" target="_top" xlink:title="quit_auto_static">
<polygon fill="none" stroke="#000000" points="517.8511,-341.7279 517.8511,-359.7279 603.8999,-359.7279 603.8999,-341.7279 517.8511,-341.7279"/>
<text text-anchor="middle" x="560.8755" y="-347.7279" font-family="Helvetica,sans-Serif" font-size="10.00" fill="#000000">quit_auto_static</text>
</a>
</g>
</g>
<!-- Node416&#45;&gt;Node418 -->
<g id="edge17" class="edge">
<title>Node416&#45;&gt;Node418</title>
<path fill="none" stroke="#191970" d="M448.8931,-283.1271C454.363,-285.1286 459.822,-287.3376 464.9004,-289.7279 496.8756,-304.7779 531.0584,-328.6047 548.7287,-341.5765"/>
<polygon fill="#191970" stroke="#191970" points="449.71,-279.7066 439.1153,-279.7541 447.4272,-286.3239 449.71,-279.7066"/>
</g>
<!-- Node419 -->
<g id="node14" class="node">
<title>Node419</title>
<g id="a_node14"><a xlink:href="lifter_8c.html#a8a64fa88b389b39c236c5c57a7fb5c67" target="_top" xlink:title="Autostacks a cone once picked up. ">
<polygon fill="none" stroke="#000000" points="664.353,-360.7279 664.353,-378.7279 759.2935,-378.7279 759.2935,-360.7279 664.353,-360.7279"/>
<text text-anchor="middle" x="711.8232" y="-366.7279" font-family="Helvetica,sans-Serif" font-size="10.00" fill="#000000">autostack_routine</text>
</a>
</g>
</g>
<!-- Node416&#45;&gt;Node419 -->
<g id="edge20" class="edge">
<title>Node416&#45;&gt;Node419</title>
<path fill="none" stroke="#191970" d="M451.7483,-282.3702C495.4702,-293.9243 563.2521,-312.7533 620.8506,-332.7279 645.3363,-341.2193 672.8166,-352.6711 691.1033,-360.5743"/>
<polygon fill="#191970" stroke="#191970" points="452.5465,-278.9612 441.9853,-279.8055 450.7679,-285.7315 452.5465,-278.9612"/>
</g>
<!-- Node417&#45;&gt;Node409 -->
<g id="edge16" class="edge">
<title>Node417&#45;&gt;Node409</title>
<path fill="none" stroke="#191970" d="M606.5195,-224.2789C611.4687,-222.3416 616.3404,-220.1617 620.8506,-217.7279 654.5346,-199.5514 687.8074,-168.1629 703.1069,-152.7703"/>
<polygon fill="#191970" stroke="#191970" points="605.2071,-221.0314 596.9811,-227.7085 607.5756,-227.6185 605.2071,-221.0314"/>
</g>
<!-- Node418&#45;&gt;Node419 -->
<g id="edge18" class="edge">
<title>Node418&#45;&gt;Node419</title>
<path fill="none" stroke="#191970" d="M614.0943,-357.4266C630.4643,-359.4871 648.3682,-361.7407 664.3278,-363.7496"/>
<polygon fill="#191970" stroke="#191970" points="614.4899,-353.9489 604.1311,-356.1725 613.6156,-360.8941 614.4899,-353.9489"/>
</g>
<!-- Node419&#45;&gt;Node410 -->
<g id="edge19" class="edge">
<title>Node419&#45;&gt;Node410</title>
<path fill="none" stroke="#191970" d="M769.4358,-369.7279C780.5729,-369.7279 792.059,-369.7279 802.6257,-369.7279"/>
<polygon fill="#191970" stroke="#191970" points="769.3423,-366.228 759.3422,-369.7279 769.3422,-373.228 769.3423,-366.228"/>
</g>
<!-- Node425 -->
<g id="node16" class="node">
<title>Node425</title>
<g id="a_node16"><a xlink:href="claw_8c.html#a3a57f998b1884d39b0cc786689f7086f" target="_top" xlink:title="sets the claw motor speed ">
<polygon fill="none" stroke="#ff0000" points="363.3096,-345.7279 363.3096,-363.7279 449.3389,-363.7279 449.3389,-345.7279 363.3096,-345.7279"/>
<text text-anchor="middle" x="406.3242" y="-351.7279" font-family="Helvetica,sans-Serif" font-size="10.00" fill="#000000">set_claw_motor</text>
</a>
</g>
</g>
<!-- Node424&#45;&gt;Node425 -->
<g id="edge22" class="edge">
<title>Node424&#45;&gt;Node425</title>
<path fill="none" stroke="#191970" d="M296.3778,-322.6166C321.1989,-329.8659 352.4294,-338.9872 375.2567,-345.6542"/>
<polygon fill="#191970" stroke="#191970" points="297.1024,-319.182 286.5222,-319.7381 295.1399,-325.9013 297.1024,-319.182"/>
</g>
<!-- Node427 -->
<g id="node17" class="node">
<title>Node427</title>
<g id="a_node17"><a xlink:href="claw_8c.html#a3a6168bf4e2042115dd32542f1f6a2f5" target="_top" xlink:title="Drives the motors to grab a cone. ">
<polygon fill="none" stroke="#ff0000" points="516.4619,-190.7279 516.4619,-208.7279 605.2891,-208.7279 605.2891,-190.7279 516.4619,-190.7279"/>
<text text-anchor="middle" x="560.8755" y="-196.7279" font-family="Helvetica,sans-Serif" font-size="10.00" fill="#000000">claw_grab_cone</text>
</a>
</g>
</g>
<!-- Node424&#45;&gt;Node427 -->
<g id="edge25" class="edge">
<title>Node424&#45;&gt;Node427</title>
<path fill="none" stroke="#191970" d="M296.8328,-297.8146C302.0372,-295.4685 307.1448,-292.7792 311.748,-289.7279 331.1391,-276.8741 327.6268,-263.4057 347.748,-251.7279 400.6181,-221.0434 470.9681,-208.3948 516.0982,-203.2278"/>
<polygon fill="#191970" stroke="#191970" points="295.3676,-294.6326 287.4484,-301.6709 298.0283,-301.1073 295.3676,-294.6326"/>
</g>
<!-- Node429 -->
<g id="node18" class="node">
<title>Node429</title>
<g id="a_node18"><a xlink:href="claw_8c.html#aecaa4eedc34d6b164ee17ed104914227" target="_top" xlink:title="Drives the motors to release a cone. ">
<polygon fill="none" stroke="#000000" points="355.519,-382.7279 355.519,-400.7279 457.1294,-400.7279 457.1294,-382.7279 355.519,-382.7279"/>
<text text-anchor="middle" x="406.3242" y="-388.7279" font-family="Helvetica,sans-Serif" font-size="10.00" fill="#000000">claw_release_cone</text>
</a>
</g>
</g>
<!-- Node424&#45;&gt;Node429 -->
<g id="edge27" class="edge">
<title>Node424&#45;&gt;Node429</title>
<path fill="none" stroke="#191970" d="M274.5408,-326.1742C292.4553,-340.2042 320.6074,-360.6478 347.748,-373.7279 354.9359,-377.192 362.9398,-380.1713 370.6646,-382.6526"/>
<polygon fill="#191970" stroke="#191970" points="276.6203,-323.356 266.6181,-319.8624 272.2585,-328.831 276.6203,-323.356"/>
</g>
<!-- Node430 -->
<g id="node19" class="node">
<title>Node430</title>
<g id="a_node19"><a xlink:href="lifter_8c.html#a78640d547d9361951a92d0bc00939536" target="_top" xlink:title="Sets the secondary lifter motors to the given value. ">
<polygon fill="none" stroke="#ff0000" points="353.5781,-298.7279 353.5781,-326.7279 459.0703,-326.7279 459.0703,-298.7279 353.5781,-298.7279"/>
<text text-anchor="start" x="361.5781" y="-314.7279" font-family="Helvetica,sans-Serif" font-size="10.00" fill="#000000">set_secondary_lifter</text>
<text text-anchor="middle" x="406.3242" y="-304.7279" font-family="Helvetica,sans-Serif" font-size="10.00" fill="#000000">_motors</text>
</a>
</g>
</g>
<!-- Node424&#45;&gt;Node430 -->
<g id="edge28" class="edge">
<title>Node424&#45;&gt;Node430</title>
<path fill="none" stroke="#191970" d="M322.0705,-311.6094C332.4786,-311.7475 343.1174,-311.8888 353.1767,-312.0223"/>
<polygon fill="#191970" stroke="#191970" points="321.8149,-308.1057 311.7692,-311.4726 321.7219,-315.1051 321.8149,-308.1057"/>
</g>
<!-- Node435 -->
<g id="node20" class="node">
<title>Node435</title>
<g id="a_node20"><a xlink:href="mobile__goal__intake_8c.html#ab31e12bb0fa46c77906a048666b699d5" target="_top" xlink:title="sets the intake motor ">
<polygon fill="none" stroke="#ff0000" points="514.521,-153.7279 514.521,-171.7279 607.23,-171.7279 607.23,-153.7279 514.521,-153.7279"/>
<text text-anchor="middle" x="560.8755" y="-159.7279" font-family="Helvetica,sans-Serif" font-size="10.00" fill="#000000">set_intake_motor</text>
</a>
</g>
</g>
<!-- Node424&#45;&gt;Node435 -->
<g id="edge32" class="edge">
<title>Node424&#45;&gt;Node435</title>
<path fill="none" stroke="#191970" d="M301.939,-297.0199C305.4832,-294.9177 308.8159,-292.502 311.748,-289.7279 340.6605,-262.3734 316.8642,-232.8353 347.748,-207.7279 394.9914,-169.3207 467.1083,-161.424 514.1266,-160.8523"/>
<polygon fill="#191970" stroke="#191970" points="300.1556,-293.9992 292.8006,-301.6251 303.3058,-300.2503 300.1556,-293.9992"/>
</g>
<!-- Node425&#45;&gt;Node418 -->
<g id="edge23" class="edge">
<title>Node425&#45;&gt;Node418</title>
<path fill="none" stroke="#191970" d="M459.4047,-353.3541C478.4555,-352.861 499.6884,-352.3115 517.7874,-351.8431"/>
<polygon fill="#191970" stroke="#191970" points="459.2814,-349.856 449.3754,-353.6137 459.4626,-356.8537 459.2814,-349.856"/>
</g>
<!-- Node425&#45;&gt;Node419 -->
<g id="edge24" class="edge">
<title>Node425&#45;&gt;Node419</title>
<path fill="none" stroke="#191970" d="M450.7007,-367.196C455.6018,-369.135 460.4309,-371.31 464.9004,-373.7279 482.9712,-383.5038 481.5245,-395.8944 500.9004,-402.7279 568.7109,-426.6432 654.8748,-395.3606 692.6331,-378.8054"/>
<polygon fill="#191970" stroke="#191970" points="451.8565,-363.8921 441.2625,-363.7563 449.4596,-370.4689 451.8565,-363.8921"/>
</g>
<!-- Node427&#45;&gt;Node409 -->
<g id="edge26" class="edge">
<title>Node427&#45;&gt;Node409</title>
<path fill="none" stroke="#191970" d="M600.6558,-187.615C607.4254,-185.4141 614.3625,-183.0708 620.8506,-180.7279 645.0659,-171.9835 672.3655,-160.6818 690.686,-152.882"/>
<polygon fill="#191970" stroke="#191970" points="599.3905,-184.3448 590.9291,-190.721 601.5199,-191.0131 599.3905,-184.3448"/>
</g>
<!-- Node430&#45;&gt;Node409 -->
<g id="edge29" class="edge">
<title>Node430&#45;&gt;Node409</title>
<path fill="none" stroke="#191970" d="M469.3506,-306.0646C514.4658,-298.932 575.0722,-284.3386 620.8506,-254.7279 663.111,-227.3927 695.3206,-174.085 707.0286,-152.8122"/>
<polygon fill="#191970" stroke="#191970" points="468.7634,-302.6134 459.3933,-307.5581 469.8018,-309.536 468.7634,-302.6134"/>
</g>
<!-- Node430&#45;&gt;Node418 -->
<g id="edge30" class="edge">
<title>Node430&#45;&gt;Node418</title>
<path fill="none" stroke="#191970" d="M468.9985,-328.1378C487.6559,-332.7252 507.4918,-337.6023 523.9395,-341.6463"/>
<polygon fill="#191970" stroke="#191970" points="469.6262,-324.688 459.0797,-325.699 467.9548,-331.4855 469.6262,-324.688"/>
</g>
<!-- Node430&#45;&gt;Node419 -->
<g id="edge31" class="edge">
<title>Node430&#45;&gt;Node419</title>
<path fill="none" stroke="#191970" d="M455.1183,-331.1374C458.4997,-332.8917 461.7946,-334.7573 464.9004,-336.7279 483.2276,-348.3565 480.6718,-361.8593 500.9004,-369.7279 555.3339,-390.9016 623.8157,-385.6909 667.71,-378.7538"/>
<polygon fill="#191970" stroke="#191970" points="456.5632,-327.9485 446.0355,-326.7578 453.5229,-334.2538 456.5632,-327.9485"/>
</g>
<!-- Node435&#45;&gt;Node409 -->
<g id="edge33" class="edge">
<title>Node435&#45;&gt;Node409</title>
<path fill="none" stroke="#191970" d="M617.5006,-155.6004C637.2008,-153.1207 658.7315,-150.4106 676.2419,-148.2065"/>
<polygon fill="#191970" stroke="#191970" points="616.8811,-152.1507 607.3965,-156.8722 617.7553,-159.0959 616.8811,-152.1507"/>
</g>
</g>
</svg>
