<?xml version="1.0" encoding="UTF-8" standalone="no"?>
<!DOCTYPE svg PUBLIC "-//W3C//DTD SVG 1.1//EN"
 "http://www.w3.org/Graphics/SVG/1.1/DTD/svg11.dtd">
<!-- Generated by graphviz version 2.40.1 (20161225.0304)
 -->
<!-- Title: include/API.h Pages: 1 -->
<svg width="1041pt" height="247pt"
 viewBox="0.00 0.00 1041.37 247.00" xmlns="http://www.w3.org/2000/svg" xmlns:xlink="http://www.w3.org/1999/xlink">
<g id="graph0" class="graph" transform="scale(1 1) rotate(0) translate(4 243)">
<title>include/API.h</title>
<!-- Node5 -->
<g id="node1" class="node">
<title>Node5</title>
<polygon fill="#bfbfbf" stroke="#000000" points="355.2314,-220.5 355.2314,-238.5 430.1572,-238.5 430.1572,-220.5 355.2314,-220.5"/>
<text text-anchor="middle" x="392.6943" y="-226.5" font-family="Helvetica,sans-Serif" font-size="10.00" fill="#000000">include/API.h</text>
</g>
<!-- Node6 -->
<g id="node2" class="node">
<title>Node6</title>
<g id="a_node2"><a xlink:href="controller_8h.html" target="_top" xlink:title="controller definitions, macros ">
<polygon fill="none" stroke="#000000" points="0,-165.5 0,-183.5 99.3887,-183.5 99.3887,-165.5 0,-165.5"/>
<text text-anchor="middle" x="49.6943" y="-171.5" font-family="Helvetica,sans-Serif" font-size="10.00" fill="#000000">include/controller.h</text>
</a>
</g>
</g>
<!-- Node5&#45;&gt;Node6 -->
<g id="edge1" class="edge">
<title>Node5&#45;&gt;Node6</title>
<path fill="none" stroke="#191970" d="M344.9672,-221.8653C288.5348,-212.8353 191.7747,-197.3439 108.6943,-184 105.7237,-183.5229 102.6689,-183.0319 99.5872,-182.5364"/>
<polygon fill="#191970" stroke="#191970" points="344.5953,-225.3502 355.0227,-223.4742 345.7013,-218.4382 344.5953,-225.3502"/>
</g>
<!-- Node8 -->
<g id="node4" class="node">
<title>Node8</title>
<g id="a_node4"><a xlink:href="drive_8c.html" target="_top" xlink:title="src/drive.c">
<polygon fill="none" stroke="#000000" points="126.9136,-110.5 126.9136,-128.5 188.4751,-128.5 188.4751,-110.5 126.9136,-110.5"/>
<text text-anchor="middle" x="157.6943" y="-116.5" font-family="Helvetica,sans-Serif" font-size="10.00" fill="#000000">src/drive.c</text>
</a>
</g>
</g>
<!-- Node5&#45;&gt;Node8 -->
<g id="edge34" class="edge">
<title>Node5&#45;&gt;Node8</title>
<path fill="none" stroke="#191970" d="M345.3229,-218.3114C316.7848,-210.6332 280.1866,-199.098 249.6943,-184 217.8789,-168.2468 184.8013,-142.2923 168.3367,-128.6037"/>
<polygon fill="#191970" stroke="#191970" points="344.4968,-221.713 355.0578,-220.8659 346.2736,-214.9423 344.4968,-221.713"/>
</g>
<!-- Node9 -->
<g id="node5" class="node">
<title>Node9</title>
<g id="a_node5"><a xlink:href="drive_8h.html" target="_top" xlink:title="Drive base definitions and enumerations. ">
<polygon fill="none" stroke="#000000" points="117.4531,-165.5 117.4531,-183.5 197.9355,-183.5 197.9355,-165.5 117.4531,-165.5"/>
<text text-anchor="middle" x="157.6943" y="-171.5" font-family="Helvetica,sans-Serif" font-size="10.00" fill="#000000">include/drive.h</text>
</a>
</g>
</g>
<!-- Node5&#45;&gt;Node9 -->
<g id="edge4" class="edge">
<title>Node5&#45;&gt;Node9</title>
<path fill="none" stroke="#191970" d="M345.3423,-218.4176C301.4744,-208.1507 237.0283,-193.0675 196.2284,-183.5186"/>
<polygon fill="#191970" stroke="#191970" points="344.6635,-221.8533 355.198,-220.7243 346.2588,-215.0374 344.6635,-221.8533"/>
</g>
<!-- Node10 -->
<g id="node6" class="node">
<title>Node10</title>
<g id="a_node6"><a xlink:href="encoders_8h.html" target="_top" xlink:title="wrapper around encoder functions ">
<polygon fill="none" stroke="#000000" points="342.7217,-165.5 342.7217,-183.5 442.667,-183.5 442.667,-165.5 342.7217,-165.5"/>
<text text-anchor="middle" x="392.6943" y="-171.5" font-family="Helvetica,sans-Serif" font-size="10.00" fill="#000000">include/encoders.h</text>
</a>
</g>
</g>
<!-- Node5&#45;&gt;Node10 -->
<g id="edge6" class="edge">
<title>Node5&#45;&gt;Node10</title>
<path fill="none" stroke="#191970" d="M392.6943,-210.383C392.6943,-201.3738 392.6943,-191.0373 392.6943,-183.7795"/>
<polygon fill="#191970" stroke="#191970" points="389.1944,-210.4178 392.6943,-220.4179 396.1944,-210.4179 389.1944,-210.4178"/>
</g>
<!-- Node11 -->
<g id="node7" class="node">
<title>Node11</title>
<g id="a_node7"><a xlink:href="encoders_8c.html" target="_top" xlink:title="src/encoders.c">
<polygon fill="none" stroke="#000000" points="281.1821,-110.5 281.1821,-128.5 362.2065,-128.5 362.2065,-110.5 281.1821,-110.5"/>
<text text-anchor="middle" x="321.6943" y="-116.5" font-family="Helvetica,sans-Serif" font-size="10.00" fill="#000000">src/encoders.c</text>
</a>
</g>
</g>
<!-- Node5&#45;&gt;Node11 -->
<g id="edge35" class="edge">
<title>Node5&#45;&gt;Node11</title>
<path fill="none" stroke="#191970" d="M366.1863,-215.1134C354.4474,-207.4052 341.5464,-196.8385 333.6943,-184 322.9972,-166.5098 321.4103,-141.7273 321.4109,-128.5543"/>
<polygon fill="#191970" stroke="#191970" points="364.484,-218.1755 374.8338,-220.441 368.1557,-212.2158 364.484,-218.1755"/>
</g>
<!-- Node13 -->
<g id="node9" class="node">
<title>Node13</title>
<g id="a_node9"><a xlink:href="lcd_8h.html" target="_top" xlink:title="LCD wrapper functions and macros. ">
<polygon fill="none" stroke="#000000" points="462.8989,-165.5 462.8989,-183.5 534.4897,-183.5 534.4897,-165.5 462.8989,-165.5"/>
<text text-anchor="middle" x="498.6943" y="-171.5" font-family="Helvetica,sans-Serif" font-size="10.00" fill="#000000">include/lcd.h</text>
</a>
</g>
</g>
<!-- Node5&#45;&gt;Node13 -->
<g id="edge9" class="edge">
<title>Node5&#45;&gt;Node13</title>
<path fill="none" stroke="#191970" d="M419.1309,-215.7829C438.5092,-205.7282 464.2773,-192.3579 481.1646,-183.5956"/>
<polygon fill="#191970" stroke="#191970" points="417.4624,-212.7055 410.1981,-220.4179 420.6864,-218.9189 417.4624,-212.7055"/>
</g>
<!-- Node14 -->
<g id="node10" class="node">
<title>Node14</title>
<g id="a_node10"><a xlink:href="log_8h.html" target="_top" xlink:title="Contains logging functions. ">
<polygon fill="none" stroke="#000000" points="602.6182,-110.5 602.6182,-128.5 674.7705,-128.5 674.7705,-110.5 602.6182,-110.5"/>
<text text-anchor="middle" x="638.6943" y="-116.5" font-family="Helvetica,sans-Serif" font-size="10.00" fill="#000000">include/log.h</text>
</a>
</g>
</g>
<!-- Node5&#45;&gt;Node14 -->
<g id="edge20" class="edge">
<title>Node5&#45;&gt;Node14</title>
<path fill="none" stroke="#191970" d="M440.1068,-219.1526C470.5645,-211.5606 510.4937,-199.8157 543.6943,-184 576.4498,-168.3963 610.6471,-142.3788 627.6805,-128.6411"/>
<polygon fill="#191970" stroke="#191970" points="439.0553,-215.8061 430.1641,-221.5679 440.7078,-222.6083 439.0553,-215.8061"/>
</g>
<!-- Node15 -->
<g id="node11" class="node">
<title>Node15</title>
<g id="a_node11"><a xlink:href="menu_8h.html" target="_top" xlink:title="Contains menu functionality and abstraction. ">
<polygon fill="none" stroke="#000000" points="507.7832,-55.5 507.7832,-73.5 591.6055,-73.5 591.6055,-55.5 507.7832,-55.5"/>
<text text-anchor="middle" x="549.6943" y="-61.5" font-family="Helvetica,sans-Serif" font-size="10.00" fill="#000000">include/menu.h</text>
</a>
</g>
</g>
<!-- Node5&#45;&gt;Node15 -->
<g id="edge25" class="edge">
<title>Node5&#45;&gt;Node15</title>
<path fill="none" stroke="#191970" d="M360.9548,-216.2552C314.3477,-194.9826 236.5349,-151.3817 271.6943,-110 286.7951,-92.2268 433.7377,-75.6783 507.6629,-68.397"/>
<polygon fill="#191970" stroke="#191970" points="359.8154,-219.579 370.3747,-220.4468 362.6613,-213.1836 359.8154,-219.579"/>
</g>
<!-- Node20 -->
<g id="node16" class="node">
<title>Node20</title>
<g id="a_node16"><a xlink:href="main_8h.html" target="_top" xlink:title="Header file for global functions. ">
<polygon fill="none" stroke="#000000" points="884.4531,-110.5 884.4531,-128.5 964.9355,-128.5 964.9355,-110.5 884.4531,-110.5"/>
<text text-anchor="middle" x="924.6943" y="-116.5" font-family="Helvetica,sans-Serif" font-size="10.00" fill="#000000">include/main.h</text>
</a>
</g>
</g>
<!-- Node5&#45;&gt;Node20 -->
<g id="edge21" class="edge">
<title>Node5&#45;&gt;Node20</title>
<path fill="none" stroke="#191970" d="M440.4352,-227.6997C512.1123,-224.0996 651.3264,-213.6151 765.6943,-184 818.756,-170.2599 877.6811,-142.9504 906.6293,-128.6757"/>
<polygon fill="#191970" stroke="#191970" points="440.182,-224.2077 430.361,-228.1823 440.517,-231.1997 440.182,-224.2077"/>
</g>
<!-- Node23 -->
<g id="node19" class="node">
<title>Node23</title>
<g id="a_node19"><a xlink:href="slew_8h.html" target="_top" xlink:title="Contains the slew rate controller wrapper for the motors. ">
<polygon fill="none" stroke="#000000" points="766.5615,-110.5 766.5615,-128.5 844.8271,-128.5 844.8271,-110.5 766.5615,-110.5"/>
<text text-anchor="middle" x="805.6943" y="-116.5" font-family="Helvetica,sans-Serif" font-size="10.00" fill="#000000">include/slew.h</text>
</a>
</g>
</g>
<!-- Node5&#45;&gt;Node23 -->
<g id="edge26" class="edge">
<title>Node5&#45;&gt;Node23</title>
<path fill="none" stroke="#191970" d="M440.2665,-226.916C522.406,-221.8519 686.9953,-208.8824 738.6943,-184 765.4639,-171.116 788.3645,-143.4319 799.1286,-128.8788"/>
<polygon fill="#191970" stroke="#191970" points="439.9664,-223.4276 430.195,-227.5227 440.3874,-230.415 439.9664,-223.4276"/>
</g>
<!-- Node24 -->
<g id="node20" class="node">
<title>Node24</title>
<g id="a_node20"><a xlink:href="vlib_8h.html" target="_top" xlink:title="Contains misc helpful functions. ">
<polygon fill="none" stroke="#000000" points="655.7881,-165.5 655.7881,-183.5 729.6006,-183.5 729.6006,-165.5 655.7881,-165.5"/>
<text text-anchor="middle" x="692.6943" y="-171.5" font-family="Helvetica,sans-Serif" font-size="10.00" fill="#000000">include/vlib.h</text>
</a>
</g>
</g>
<!-- Node5&#45;&gt;Node24 -->
<g id="edge30" class="edge">
<title>Node5&#45;&gt;Node24</title>
<path fill="none" stroke="#191970" d="M440.3105,-220.7704C499.9865,-209.8298 601.0178,-191.3074 655.3925,-181.3387"/>
<polygon fill="#191970" stroke="#191970" points="439.5907,-217.3439 430.3858,-222.5899 440.853,-224.2292 439.5907,-217.3439"/>
</g>
<!-- Node7 -->
<g id="node3" class="node">
<title>Node7</title>
<g id="a_node3"><a xlink:href="controller_8c.html" target="_top" xlink:title="src/controller.c">
<polygon fill="none" stroke="#000000" points="9.4604,-110.5 9.4604,-128.5 89.9282,-128.5 89.9282,-110.5 9.4604,-110.5"/>
<text text-anchor="middle" x="49.6943" y="-116.5" font-family="Helvetica,sans-Serif" font-size="10.00" fill="#000000">src/controller.c</text>
</a>
</g>
</g>
<!-- Node6&#45;&gt;Node7 -->
<g id="edge2" class="edge">
<title>Node6&#45;&gt;Node7</title>
<path fill="none" stroke="#191970" d="M49.6943,-155.383C49.6943,-146.3738 49.6943,-136.0373 49.6943,-128.7795"/>
<polygon fill="#191970" stroke="#191970" points="46.1944,-155.4178 49.6943,-165.4179 53.1944,-155.4179 46.1944,-155.4178"/>
</g>
<!-- Node6&#45;&gt;Node8 -->
<g id="edge3" class="edge">
<title>Node6&#45;&gt;Node8</title>
<path fill="none" stroke="#191970" d="M76.6297,-160.7829C96.3736,-150.7282 122.6279,-137.3579 139.8338,-128.5956"/>
<polygon fill="#191970" stroke="#191970" points="74.851,-157.7609 67.5283,-165.4179 78.0277,-163.9987 74.851,-157.7609"/>
</g>
<!-- Node9&#45;&gt;Node8 -->
<g id="edge5" class="edge">
<title>Node9&#45;&gt;Node8</title>
<path fill="none" stroke="#191970" d="M157.6943,-155.383C157.6943,-146.3738 157.6943,-136.0373 157.6943,-128.7795"/>
<polygon fill="#191970" stroke="#191970" points="154.1944,-155.4178 157.6943,-165.4179 161.1944,-155.4179 154.1944,-155.4178"/>
</g>
<!-- Node10&#45;&gt;Node11 -->
<g id="edge7" class="edge">
<title>Node10&#45;&gt;Node11</title>
<path fill="none" stroke="#191970" d="M372.8789,-159.15C360.2795,-149.3899 344.381,-137.0742 333.6733,-128.7795"/>
<polygon fill="#191970" stroke="#191970" points="370.9212,-162.0608 380.9701,-165.4179 375.208,-156.5269 370.9212,-162.0608"/>
</g>
<!-- Node12 -->
<g id="node8" class="node">
<title>Node12</title>
<g id="a_node8"><a xlink:href="init_8c.html" target="_top" xlink:title="File for initialization code. ">
<polygon fill="none" stroke="#000000" points="632.3594,-.5 632.3594,-18.5 685.0293,-18.5 685.0293,-.5 632.3594,-.5"/>
<text text-anchor="middle" x="658.6943" y="-6.5" font-family="Helvetica,sans-Serif" font-size="10.00" fill="#000000">src/init.c</text>
</a>
</g>
</g>
<!-- Node10&#45;&gt;Node12 -->
<g id="edge8" class="edge">
<title>Node10&#45;&gt;Node12</title>
<path fill="none" stroke="#191970" d="M394.3294,-155.19C396.264,-141.569 400.4854,-123.431 409.6943,-110 433.2724,-75.6119 448.003,-72.8279 485.6943,-55 534.6836,-31.8282 597.2684,-19.1052 632.1521,-13.3528"/>
<polygon fill="#191970" stroke="#191970" points="390.8245,-155.0378 393.183,-165.3668 397.7805,-155.8215 390.8245,-155.0378"/>
</g>
<!-- Node13&#45;&gt;Node12 -->
<g id="edge18" class="edge">
<title>Node13&#45;&gt;Node12</title>
<path fill="none" stroke="#191970" d="M492.3405,-155.6468C485.0111,-130.0817 476.594,-84.2614 498.6943,-55 514.7941,-33.6835 591.1818,-19.4145 632.3147,-13.1392"/>
<polygon fill="#191970" stroke="#191970" points="489.0158,-156.7427 495.3229,-165.2557 495.7012,-154.6677 489.0158,-156.7427"/>
</g>
<!-- Node13&#45;&gt;Node14 -->
<g id="edge10" class="edge">
<title>Node13&#45;&gt;Node14</title>
<path fill="none" stroke="#191970" d="M531.1937,-161.7324C557.0269,-151.5837 592.5281,-137.6367 615.5418,-128.5956"/>
<polygon fill="#191970" stroke="#191970" points="529.8402,-158.5036 521.8125,-165.4179 532.3998,-165.0189 529.8402,-158.5036"/>
</g>
<!-- Node13&#45;&gt;Node15 -->
<g id="edge17" class="edge">
<title>Node13&#45;&gt;Node15</title>
<path fill="none" stroke="#191970" d="M507.1974,-156.16C518.2383,-132.3464 537.0842,-91.6983 545.4631,-73.6261"/>
<polygon fill="#191970" stroke="#191970" points="503.8989,-154.9537 502.8679,-165.4982 510.2495,-157.8981 503.8989,-154.9537"/>
</g>
<!-- Node19 -->
<g id="node15" class="node">
<title>Node19</title>
<g id="a_node15"><a xlink:href="lcd_8c.html" target="_top" xlink:title="src/lcd.c">
<polygon fill="none" stroke="#000000" points="418.3594,-110.5 418.3594,-128.5 471.0293,-128.5 471.0293,-110.5 418.3594,-110.5"/>
<text text-anchor="middle" x="444.6943" y="-116.5" font-family="Helvetica,sans-Serif" font-size="10.00" fill="#000000">src/lcd.c</text>
</a>
</g>
</g>
<!-- Node13&#45;&gt;Node19 -->
<g id="edge19" class="edge">
<title>Node13&#45;&gt;Node19</title>
<path fill="none" stroke="#191970" d="M482.507,-158.0129C473.1165,-148.4485 461.6358,-136.7552 453.8051,-128.7795"/>
<polygon fill="#191970" stroke="#191970" points="480.2739,-160.7343 489.7773,-165.4179 485.2689,-155.8301 480.2739,-160.7343"/>
</g>
<!-- Node14&#45;&gt;Node12 -->
<g id="edge14" class="edge">
<title>Node14&#45;&gt;Node12</title>
<path fill="none" stroke="#191970" d="M655.1463,-102.942C661.9815,-94.9106 669.1396,-84.6957 672.6943,-74 679.0549,-54.8621 670.0525,-31.5525 663.8049,-18.8529"/>
<polygon fill="#191970" stroke="#191970" points="652.4534,-100.7008 648.3048,-110.4497 657.6274,-105.4157 652.4534,-100.7008"/>
</g>
<!-- Node14&#45;&gt;Node15 -->
<g id="edge11" class="edge">
<title>Node14&#45;&gt;Node15</title>
<path fill="none" stroke="#191970" d="M615.1547,-104.953C599.0526,-95.0023 578.205,-82.1189 564.4127,-73.5956"/>
<polygon fill="#191970" stroke="#191970" points="613.6511,-108.1382 623.9978,-110.4179 617.331,-102.1835 613.6511,-108.1382"/>
</g>
<!-- Node17 -->
<g id="node13" class="node">
<title>Node17</title>
<g id="a_node13"><a xlink:href="log_8c.html" target="_top" xlink:title="src/log.c">
<polygon fill="none" stroke="#000000" points="610.0786,-55.5 610.0786,-73.5 663.3101,-73.5 663.3101,-55.5 610.0786,-55.5"/>
<text text-anchor="middle" x="636.6943" y="-61.5" font-family="Helvetica,sans-Serif" font-size="10.00" fill="#000000">src/log.c</text>
</a>
</g>
</g>
<!-- Node14&#45;&gt;Node17 -->
<g id="edge15" class="edge">
<title>Node14&#45;&gt;Node17</title>
<path fill="none" stroke="#191970" d="M637.9992,-100.383C637.6716,-91.3738 637.2957,-81.0373 637.0318,-73.7795"/>
<polygon fill="#191970" stroke="#191970" points="634.5029,-100.5517 638.3641,-110.4179 641.4983,-100.2973 634.5029,-100.5517"/>
</g>
<!-- Node18 -->
<g id="node14" class="node">
<title>Node18</title>
<g id="a_node14"><a xlink:href="slew_8c.html" target="_top" xlink:title="src/slew.c">
<polygon fill="none" stroke="#000000" points="720.022,-55.5 720.022,-73.5 779.3667,-73.5 779.3667,-55.5 720.022,-55.5"/>
<text text-anchor="middle" x="749.6943" y="-61.5" font-family="Helvetica,sans-Serif" font-size="10.00" fill="#000000">src/slew.c</text>
</a>
</g>
</g>
<!-- Node14&#45;&gt;Node18 -->
<g id="edge16" class="edge">
<title>Node14&#45;&gt;Node18</title>
<path fill="none" stroke="#191970" d="M666.1016,-105.9198C686.4247,-95.8498 713.5734,-82.3977 731.3377,-73.5956"/>
<polygon fill="#191970" stroke="#191970" points="664.4301,-102.8419 657.0237,-110.4179 667.5381,-109.1141 664.4301,-102.8419"/>
</g>
<!-- Node15&#45;&gt;Node12 -->
<g id="edge12" class="edge">
<title>Node15&#45;&gt;Node12</title>
<path fill="none" stroke="#191970" d="M576.8791,-50.7829C596.8058,-40.7282 623.3032,-27.3579 640.6685,-18.5956"/>
<polygon fill="#191970" stroke="#191970" points="575.0446,-47.7882 567.6935,-55.4179 578.198,-54.0377 575.0446,-47.7882"/>
</g>
<!-- Node16 -->
<g id="node12" class="node">
<title>Node16</title>
<g id="a_node12"><a xlink:href="menu_8c.html" target="_top" xlink:title="src/menu.c">
<polygon fill="none" stroke="#000000" points="517.2437,-.5 517.2437,-18.5 582.145,-18.5 582.145,-.5 517.2437,-.5"/>
<text text-anchor="middle" x="549.6943" y="-6.5" font-family="Helvetica,sans-Serif" font-size="10.00" fill="#000000">src/menu.c</text>
</a>
</g>
</g>
<!-- Node15&#45;&gt;Node16 -->
<g id="edge13" class="edge">
<title>Node15&#45;&gt;Node16</title>
<path fill="none" stroke="#191970" d="M549.6943,-45.383C549.6943,-36.3738 549.6943,-26.0373 549.6943,-18.7795"/>
<polygon fill="#191970" stroke="#191970" points="546.1944,-45.4178 549.6943,-55.4179 553.1944,-45.4179 546.1944,-45.4178"/>
</g>
<!-- Node20&#45;&gt;Node12 -->
<g id="edge23" class="edge">
<title>Node20&#45;&gt;Node12</title>
<path fill="none" stroke="#191970" d="M931.4055,-100.6461C935.1412,-86.4635 937.1781,-67.4136 926.6943,-55 911.1647,-36.6116 750.2028,-18.6368 685.4528,-12.0932"/>
<polygon fill="#191970" stroke="#191970" points="928.0146,-99.7645 928.3969,-110.3524 934.7008,-101.837 928.0146,-99.7645"/>
</g>
<!-- Node21 -->
<g id="node17" class="node">
<title>Node21</title>
<g id="a_node17"><a xlink:href="auto_8c.html" target="_top" xlink:title="File for autonomous code. ">
<polygon fill="none" stroke="#000000" points="974.0195,-55.5 974.0195,-73.5 1033.3691,-73.5 1033.3691,-55.5 974.0195,-55.5"/>
<text text-anchor="middle" x="1003.6943" y="-61.5" font-family="Helvetica,sans-Serif" font-size="10.00" fill="#000000">src/auto.c</text>
</a>
</g>
</g>
<!-- Node20&#45;&gt;Node21 -->
<g id="edge22" class="edge">
<title>Node20&#45;&gt;Node21</title>
<path fill="none" stroke="#191970" d="M945.9909,-104.6733C960.2273,-94.7619 978.5015,-82.0393 990.6297,-73.5956"/>
<polygon fill="#191970" stroke="#191970" points="943.9467,-101.8317 937.7396,-110.4179 947.9463,-107.5766 943.9467,-101.8317"/>
</g>
<!-- Node22 -->
<g id="node18" class="node">
<title>Node22</title>
<g id="a_node18"><a xlink:href="opcontrol_8c.html" target="_top" xlink:title="File for operator control code. ">
<polygon fill="none" stroke="#000000" points="836.1821,-55.5 836.1821,-73.5 917.2065,-73.5 917.2065,-55.5 836.1821,-55.5"/>
<text text-anchor="middle" x="876.6943" y="-61.5" font-family="Helvetica,sans-Serif" font-size="10.00" fill="#000000">src/opcontrol.c</text>
</a>
</g>
</g>
<!-- Node20&#45;&gt;Node22 -->
<g id="edge24" class="edge">
<title>Node20&#45;&gt;Node22</title>
<path fill="none" stroke="#191970" d="M910.0546,-102.7253C901.7547,-93.215 891.6838,-81.6754 884.7928,-73.7795"/>
<polygon fill="#191970" stroke="#191970" points="907.5557,-105.185 916.7681,-110.4179 912.8297,-100.5822 907.5557,-105.185"/>
</g>
<!-- Node23&#45;&gt;Node12 -->
<g id="edge27" class="edge">
<title>Node23&#45;&gt;Node12</title>
<path fill="none" stroke="#191970" d="M805.2675,-100.1828C803.9539,-86.0226 799.9805,-67.2145 788.6943,-55 761.5942,-25.6706 714.5294,-15.2442 685.0802,-11.5396"/>
<polygon fill="#191970" stroke="#191970" points="801.782,-100.5408 805.8395,-110.3278 808.7709,-100.1466 801.782,-100.5408"/>
</g>
<!-- Node23&#45;&gt;Node18 -->
<g id="edge29" class="edge">
<title>Node23&#45;&gt;Node18</title>
<path fill="none" stroke="#191970" d="M789.199,-103.2992C779.4077,-93.6828 767.3444,-81.8349 759.1425,-73.7795"/>
<polygon fill="#191970" stroke="#191970" points="786.8601,-105.9078 796.4471,-110.4179 791.7651,-100.9137 786.8601,-105.9078"/>
</g>
<!-- Node23&#45;&gt;Node22 -->
<g id="edge28" class="edge">
<title>Node23&#45;&gt;Node22</title>
<path fill="none" stroke="#191970" d="M825.5098,-104.15C838.1091,-94.3899 854.0077,-82.0742 864.7154,-73.7795"/>
<polygon fill="#191970" stroke="#191970" points="823.1807,-101.5269 817.4185,-110.4179 827.4675,-107.0608 823.1807,-101.5269"/>
</g>
<!-- Node24&#45;&gt;Node15 -->
<g id="edge31" class="edge">
<title>Node24&#45;&gt;Node15</title>
<path fill="none" stroke="#191970" d="M653.1273,-161.9789C633.7814,-154.5191 611.0001,-143.62 593.6943,-129 574.8486,-113.079 560.5601,-87.1953 553.8743,-73.5616"/>
<polygon fill="#191970" stroke="#191970" points="652.0022,-165.2943 662.5956,-165.4668 654.4219,-158.7258 652.0022,-165.2943"/>
</g>
<!-- Node24&#45;&gt;Node23 -->
<g id="edge32" class="edge">
<title>Node24&#45;&gt;Node23</title>
<path fill="none" stroke="#191970" d="M720.5954,-160.9198C741.2848,-150.8498 768.9226,-137.3977 787.007,-128.5956"/>
<polygon fill="#191970" stroke="#191970" points="718.8137,-157.8944 711.354,-165.4179 721.8773,-164.1884 718.8137,-157.8944"/>
</g>
<!-- Node25 -->
<g id="node21" class="node">
<title>Node25</title>
<g id="a_node21"><a xlink:href="vlib_8c.html" target="_top" xlink:title="src/vlib.c">
<polygon fill="none" stroke="#000000" points="693.2485,-110.5 693.2485,-128.5 748.1401,-128.5 748.1401,-110.5 693.2485,-110.5"/>
<text text-anchor="middle" x="720.6943" y="-116.5" font-family="Helvetica,sans-Serif" font-size="10.00" fill="#000000">src/vlib.c</text>
</a>
</g>
</g>
<!-- Node24&#45;&gt;Node25 -->
<g id="edge33" class="edge">
<title>Node24&#45;&gt;Node25</title>
<path fill="none" stroke="#191970" d="M701.9753,-156.2696C706.6644,-147.0587 712.1535,-136.2766 715.9702,-128.7795"/>
<polygon fill="#191970" stroke="#191970" points="698.7358,-154.9183 697.318,-165.4179 704.9739,-158.0941 698.7358,-154.9183"/>
</g>
</g>
</svg>
