<?xml version="1.0" encoding="UTF-8" standalone="no"?>
<!DOCTYPE svg PUBLIC "-//W3C//DTD SVG 1.1//EN"
 "http://www.w3.org/Graphics/SVG/1.1/DTD/svg11.dtd">
<!-- Generated by graphviz version 2.40.1 (20161225.0304)
 -->
<!-- Title: joystickGetAnalog Pages: 1 -->
<svg width="370pt" height="27pt"
 viewBox="0.00 0.00 369.78 27.00" xmlns="http://www.w3.org/2000/svg" xmlns:xlink="http://www.w3.org/1999/xlink">
<g id="graph0" class="graph" transform="scale(1 1) rotate(0) translate(4 23)">
<title>joystickGetAnalog</title>
<!-- Node104 -->
<g id="node1" class="node">
<title>Node104</title>
<polygon fill="#bfbfbf" stroke="#000000" points="0,-.5 0,-18.5 96.0391,-18.5 96.0391,-.5 0,-.5"/>
<text text-anchor="middle" x="48.0195" y="-6.5" font-family="Helvetica,sans-Serif" font-size="10.00" fill="#000000">joystickGetAnalog</text>
</g>
<!-- Node105 -->
<g id="node2" class="node">
<title>Node105</title>
<g id="a_node2"><a xlink:href="controller_8c.html#a0ce0176099c0bb15ad8c36123222059d" target="_top" xlink:title="get_joystick_cord">
<polygon fill="none" stroke="#000000" points="132.0391,-.5 132.0391,-18.5 225.2998,-18.5 225.2998,-.5 132.0391,-.5"/>
<text text-anchor="middle" x="178.6694" y="-6.5" font-family="Helvetica,sans-Serif" font-size="10.00" fill="#000000">get_joystick_cord</text>
</a>
</g>
</g>
<!-- Node104&#45;&gt;Node105 -->
<g id="edge1" class="edge">
<title>Node104&#45;&gt;Node105</title>
<path fill="none" stroke="#191970" d="M106.5384,-9.5C115.0293,-9.5 123.6752,-9.5 131.8939,-9.5"/>
<polygon fill="#191970" stroke="#191970" points="106.2976,-6.0001 96.2975,-9.5 106.2975,-13.0001 106.2976,-6.0001"/>
</g>
<!-- Node106 -->
<g id="node3" class="node">
<title>Node106</title>
<g id="a_node3"><a xlink:href="drive_8c.html#a9958db8f8d3fdaa9446cfa5a26955cef" target="_top" xlink:title="Updates the drive motosrs during teleop. ">
<polygon fill="none" stroke="#000000" points="261.2998,-.5 261.2998,-18.5 361.7822,-18.5 361.7822,-.5 261.2998,-.5"/>
<text text-anchor="middle" x="311.541" y="-6.5" font-family="Helvetica,sans-Serif" font-size="10.00" fill="#000000">updateDriveMotors</text>
</a>
</g>
</g>
<!-- Node105&#45;&gt;Node106 -->
<g id="edge2" class="edge">
<title>Node105&#45;&gt;Node106</title>
<path fill="none" stroke="#191970" d="M235.6712,-9.5C244.1127,-9.5 252.7616,-9.5 261.0578,-9.5"/>
<polygon fill="#191970" stroke="#191970" points="235.515,-6.0001 225.515,-9.5 235.5149,-13.0001 235.515,-6.0001"/>
</g>
</g>
</svg>
