<?xml version="1.0" encoding="UTF-8" standalone="no"?>
<!DOCTYPE svg PUBLIC "-//W3C//DTD SVG 1.1//EN"
 "http://www.w3.org/Graphics/SVG/1.1/DTD/svg11.dtd">
<!-- Generated by graphviz version 2.40.1 (20161225.0304)
 -->
<!-- Title: lcdPrint Pages: 1 -->
<svg width="625pt" height="363pt"
 viewBox="0.00 0.00 624.73 363.00" xmlns="http://www.w3.org/2000/svg" xmlns:xlink="http://www.w3.org/1999/xlink">
<g id="graph0" class="graph" transform="scale(1 1) rotate(0) translate(4 359)">
<title>lcdPrint</title>
<!-- Node221 -->
<g id="node1" class="node">
<title>Node221</title>
<polygon fill="#bfbfbf" stroke="#000000" points="0,-280.5 0,-298.5 49.3447,-298.5 49.3447,-280.5 0,-280.5"/>
<text text-anchor="middle" x="24.6724" y="-286.5" font-family="Helvetica,sans-Serif" font-size="10.00" fill="#000000">lcdPrint</text>
</g>
<!-- Node222 -->
<g id="node2" class="node">
<title>Node222</title>
<g id="a_node2"><a xlink:href="lcd_8c.html#aa0d4ca88701dfecf98796e2028482b69" target="_top" xlink:title="prints a formated string to a line on the lcd. ">
<polygon fill="none" stroke="#000000" points="85.3447,-299.5 85.3447,-317.5 141.9209,-317.5 141.9209,-299.5 85.3447,-299.5"/>
<text text-anchor="middle" x="113.6328" y="-305.5" font-family="Helvetica,sans-Serif" font-size="10.00" fill="#000000">lcd_printf</text>
</a>
</g>
</g>
<!-- Node221&#45;&gt;Node222 -->
<g id="edge1" class="edge">
<title>Node221&#45;&gt;Node222</title>
<path fill="none" stroke="#191970" d="M59.5079,-296.9401C68.0262,-298.7594 77.0403,-300.6846 85.2176,-302.4311"/>
<polygon fill="#191970" stroke="#191970" points="59.9633,-293.4585 49.4528,-294.7926 58.5012,-300.3041 59.9633,-293.4585"/>
</g>
<!-- Node223 -->
<g id="node3" class="node">
<title>Node223</title>
<g id="a_node3"><a xlink:href="log_8c.html#afff22aff6749311a684a559cac3ac8bd" target="_top" xlink:title="prints a log info message to the lcd ">
<polygon fill="none" stroke="#000000" points="88.1182,-262.5 88.1182,-280.5 139.1475,-280.5 139.1475,-262.5 88.1182,-262.5"/>
<text text-anchor="middle" x="113.6328" y="-268.5" font-family="Helvetica,sans-Serif" font-size="10.00" fill="#000000">log_info</text>
</a>
</g>
</g>
<!-- Node221&#45;&gt;Node223 -->
<g id="edge2" class="edge">
<title>Node221&#45;&gt;Node223</title>
<path fill="none" stroke="#191970" d="M59.4611,-282.461C68.9914,-280.5326 79.1458,-278.478 88.0565,-276.675"/>
<polygon fill="#191970" stroke="#191970" points="58.56,-279.0723 49.4528,-284.486 59.9483,-285.9332 58.56,-279.0723"/>
</g>
<!-- Node224 -->
<g id="node4" class="node">
<title>Node224</title>
<g id="a_node4"><a xlink:href="log_8c.html#a8e5bb8a2a372f5b066ff7af7044584c1" target="_top" xlink:title="prints a error message and displays on lcd. ">
<polygon fill="none" stroke="#000000" points="184.874,-149.5 184.874,-167.5 221.9873,-167.5 221.9873,-149.5 184.874,-149.5"/>
<text text-anchor="middle" x="203.4307" y="-155.5" font-family="Helvetica,sans-Serif" font-size="10.00" fill="#000000">error</text>
</a>
</g>
</g>
<!-- Node223&#45;&gt;Node224 -->
<g id="edge3" class="edge">
<title>Node223&#45;&gt;Node224</title>
<path fill="none" stroke="#191970" d="M127.3533,-254.2344C146.6968,-229.8929 181.29,-186.3614 196.2316,-167.5592"/>
<polygon fill="#191970" stroke="#191970" points="124.4627,-252.2462 120.9813,-262.2527 129.943,-256.6012 124.4627,-252.2462"/>
</g>
<!-- Node249 -->
<g id="node14" class="node">
<title>Node249</title>
<g id="a_node14"><a xlink:href="log_8c.html#a0bec2cf5fff7f607bc510b74aba9887c" target="_top" xlink:title="prints a warning message and displays on lcd. ">
<polygon fill="none" stroke="#000000" points="177.9209,-309.5 177.9209,-327.5 228.9404,-327.5 228.9404,-309.5 177.9209,-309.5"/>
<text text-anchor="middle" x="203.4307" y="-315.5" font-family="Helvetica,sans-Serif" font-size="10.00" fill="#000000">warning</text>
</a>
</g>
</g>
<!-- Node223&#45;&gt;Node249 -->
<g id="edge15" class="edge">
<title>Node223&#45;&gt;Node249</title>
<path fill="none" stroke="#191970" d="M140.1609,-285.3848C155.0269,-293.1656 173.1398,-302.6458 186.1699,-309.4657"/>
<polygon fill="#191970" stroke="#191970" points="141.4296,-282.0984 130.9467,-280.5621 138.1835,-288.3003 141.4296,-282.0984"/>
</g>
<!-- Node279 -->
<g id="node18" class="node">
<title>Node279</title>
<g id="a_node18"><a xlink:href="log_8c.html#a1606d750e1bb8de9f9e917172bba3382" target="_top" xlink:title="prints a info message ">
<polygon fill="none" stroke="#000000" points="298.0166,-262.5 298.0166,-280.5 330.1396,-280.5 330.1396,-262.5 298.0166,-262.5"/>
<text text-anchor="middle" x="314.0781" y="-268.5" font-family="Helvetica,sans-Serif" font-size="10.00" fill="#000000">info</text>
</a>
</g>
</g>
<!-- Node223&#45;&gt;Node279 -->
<g id="edge19" class="edge">
<title>Node223&#45;&gt;Node279</title>
<path fill="none" stroke="#191970" d="M149.6758,-271.5C193.6053,-271.5 265.9303,-271.5 297.9563,-271.5"/>
<polygon fill="#191970" stroke="#191970" points="149.4272,-268.0001 139.4272,-271.5 149.4271,-275.0001 149.4272,-268.0001"/>
</g>
<!-- Node225 -->
<g id="node5" class="node">
<title>Node225</title>
<g id="a_node5"><a xlink:href="encoders_8c.html#aa6ec1ca17e907babd52803ecba451cd3" target="_top" xlink:title="Initializes all motor encoders. ">
<polygon fill="none" stroke="#000000" points="276.3369,-186.5 276.3369,-204.5 351.8193,-204.5 351.8193,-186.5 276.3369,-186.5"/>
<text text-anchor="middle" x="314.0781" y="-192.5" font-family="Helvetica,sans-Serif" font-size="10.00" fill="#000000">init_encoders</text>
</a>
</g>
</g>
<!-- Node224&#45;&gt;Node225 -->
<g id="edge4" class="edge">
<title>Node224&#45;&gt;Node225</title>
<path fill="none" stroke="#191970" d="M232.082,-168.0809C248.9881,-173.7342 270.2626,-180.8483 286.9044,-186.4132"/>
<polygon fill="#191970" stroke="#191970" points="232.7943,-164.6286 222.2005,-164.7765 230.5743,-171.2673 232.7943,-164.6286"/>
</g>
<!-- Node226 -->
<g id="node6" class="node">
<title>Node226</title>
<g id="a_node6"><a xlink:href="init_8c.html#a25a40b6614565f755233080a384c35f1" target="_top" xlink:title="Runs user initialization code. ">
<polygon fill="none" stroke="#000000" points="426.7354,-186.5 426.7354,-204.5 478.3066,-204.5 478.3066,-186.5 426.7354,-186.5"/>
<text text-anchor="middle" x="452.521" y="-192.5" font-family="Helvetica,sans-Serif" font-size="10.00" fill="#000000">initialize</text>
</a>
</g>
</g>
<!-- Node224&#45;&gt;Node226 -->
<g id="edge6" class="edge">
<title>Node224&#45;&gt;Node226</title>
<path fill="none" stroke="#191970" d="M216.4712,-175.9653C227.6449,-189.3554 245.054,-206.8034 264.9404,-214.5 320.8034,-236.1204 392.6537,-217.1214 429.0884,-204.5279"/>
<polygon fill="#191970" stroke="#191970" points="219.0241,-173.5518 210.0655,-167.8954 213.5413,-177.9039 219.0241,-173.5518"/>
</g>
<!-- Node227 -->
<g id="node7" class="node">
<title>Node227</title>
<g id="a_node7"><a xlink:href="lifter_8c.html#adfb6207ee1f20953058c8de81ec3386a" target="_top" xlink:title="main_lifter_update">
<polygon fill="none" stroke="#000000" points="264.9404,-75.5 264.9404,-93.5 363.2158,-93.5 363.2158,-75.5 264.9404,-75.5"/>
<text text-anchor="middle" x="314.0781" y="-81.5" font-family="Helvetica,sans-Serif" font-size="10.00" fill="#000000">main_lifter_update</text>
</a>
</g>
</g>
<!-- Node224&#45;&gt;Node227 -->
<g id="edge7" class="edge">
<title>Node224&#45;&gt;Node227</title>
<path fill="none" stroke="#191970" d="M218.9936,-141.6538C230.7131,-129.7419 247.6671,-114.073 264.9404,-103.5 271.2592,-99.6322 278.4987,-96.3099 285.4437,-93.575"/>
<polygon fill="#191970" stroke="#191970" points="216.1644,-139.5478 211.7768,-149.1914 221.2206,-144.3888 216.1644,-139.5478"/>
</g>
<!-- Node230 -->
<g id="node9" class="node">
<title>Node230</title>
<g id="a_node9"><a xlink:href="matrix_8c.html#a8e41e30382335ea89f90b72db0b44d6f" target="_top" xlink:title="Asserts a condition is true. ">
<polygon fill="none" stroke="#ff0000" points="292.4624,-38.5 292.4624,-56.5 335.6938,-56.5 335.6938,-38.5 292.4624,-38.5"/>
<text text-anchor="middle" x="314.0781" y="-44.5" font-family="Helvetica,sans-Serif" font-size="10.00" fill="#000000">assert</text>
</a>
</g>
</g>
<!-- Node224&#45;&gt;Node230 -->
<g id="edge9" class="edge">
<title>Node224&#45;&gt;Node230</title>
<path fill="none" stroke="#191970" d="M211.5158,-140.0772C221.3911,-119.5233 239.9224,-86.5338 264.9404,-66.5 272.7938,-60.2112 282.9705,-55.8189 292.024,-52.8543"/>
<polygon fill="#191970" stroke="#191970" points="208.2687,-138.7607 207.2621,-149.3076 214.6262,-141.6904 208.2687,-138.7607"/>
</g>
<!-- Node243 -->
<g id="node12" class="node">
<title>Node243</title>
<g id="a_node12"><a xlink:href="menu_8c.html#aff4fd27ff7707295d91c67fa52a6b021" target="_top" xlink:title="Static function that handles creation of menu. ">
<polygon fill="none" stroke="#ff0000" points="276.8936,-149.5 276.8936,-167.5 351.2627,-167.5 351.2627,-149.5 276.8936,-149.5"/>
<text text-anchor="middle" x="314.0781" y="-155.5" font-family="Helvetica,sans-Serif" font-size="10.00" fill="#000000">create_menu</text>
</a>
</g>
</g>
<!-- Node224&#45;&gt;Node243 -->
<g id="edge13" class="edge">
<title>Node224&#45;&gt;Node243</title>
<path fill="none" stroke="#191970" d="M232.4115,-158.5C245.9923,-158.5 262.3359,-158.5 276.8228,-158.5"/>
<polygon fill="#191970" stroke="#191970" points="232.2005,-155.0001 222.2005,-158.5 232.2005,-162.0001 232.2005,-155.0001"/>
</g>
<!-- Node247 -->
<g id="node13" class="node">
<title>Node247</title>
<g id="a_node13"><a xlink:href="routines_8c.html#a230cdcefb410a429fb6baba1f88fc9ba" target="_top" xlink:title="Task that manages routines. ">
<polygon fill="none" stroke="#ff0000" points="278.8394,-112.5 278.8394,-130.5 349.3169,-130.5 349.3169,-112.5 278.8394,-112.5"/>
<text text-anchor="middle" x="314.0781" y="-118.5" font-family="Helvetica,sans-Serif" font-size="10.00" fill="#000000">routine_task</text>
</a>
</g>
</g>
<!-- Node224&#45;&gt;Node247 -->
<g id="edge14" class="edge">
<title>Node224&#45;&gt;Node247</title>
<path fill="none" stroke="#191970" d="M232.082,-148.9191C248.9881,-143.2658 270.2626,-136.1517 286.9044,-130.5868"/>
<polygon fill="#191970" stroke="#191970" points="230.5743,-145.7327 222.2005,-152.2235 232.7943,-152.3714 230.5743,-145.7327"/>
</g>
<!-- Node225&#45;&gt;Node226 -->
<g id="edge5" class="edge">
<title>Node225&#45;&gt;Node226</title>
<path fill="none" stroke="#191970" d="M361.9385,-195.5C383.6222,-195.5 408.4061,-195.5 426.5622,-195.5"/>
<polygon fill="#191970" stroke="#191970" points="361.9083,-192.0001 351.9082,-195.5 361.9082,-199.0001 361.9083,-192.0001"/>
</g>
<!-- Node228 -->
<g id="node8" class="node">
<title>Node228</title>
<g id="a_node8"><a xlink:href="lifter_8c.html#a59bb7413777ca16aba124aaedf95c79b" target="_top" xlink:title="Updates the lifter in teleop. ">
<polygon fill="none" stroke="#ff0000" points="417.0015,-76.5 417.0015,-94.5 488.0405,-94.5 488.0405,-76.5 417.0015,-76.5"/>
<text text-anchor="middle" x="452.521" y="-82.5" font-family="Helvetica,sans-Serif" font-size="10.00" fill="#000000">update_lifter</text>
</a>
</g>
</g>
<!-- Node227&#45;&gt;Node228 -->
<g id="edge8" class="edge">
<title>Node227&#45;&gt;Node228</title>
<path fill="none" stroke="#191970" d="M373.4129,-84.9286C388.2449,-85.0357 403.6952,-85.1473 416.9641,-85.2432"/>
<polygon fill="#191970" stroke="#191970" points="373.3028,-81.4278 363.2777,-84.8554 373.2521,-88.4276 373.3028,-81.4278"/>
</g>
<!-- Node231 -->
<g id="node10" class="node">
<title>Node231</title>
<g id="a_node10"><a xlink:href="matrix_8c.html#aae8b56c6fb44d9147b835f4006ca872c" target="_top" xlink:title="Makes a matrix with a width and height parameters. ">
<polygon fill="none" stroke="#ff0000" points="418.6836,-.5 418.6836,-18.5 486.3584,-18.5 486.3584,-.5 418.6836,-.5"/>
<text text-anchor="middle" x="452.521" y="-6.5" font-family="Helvetica,sans-Serif" font-size="10.00" fill="#000000">makeMatrix</text>
</a>
</g>
</g>
<!-- Node230&#45;&gt;Node231 -->
<g id="edge10" class="edge">
<title>Node230&#45;&gt;Node231</title>
<path fill="none" stroke="#191970" d="M345.6147,-38.8438C367.7554,-32.7666 397.2949,-24.6585 419.712,-18.5055"/>
<polygon fill="#191970" stroke="#191970" points="344.4267,-35.5403 335.7098,-41.5625 346.2796,-42.2907 344.4267,-35.5403"/>
</g>
<!-- Node233 -->
<g id="node11" class="node">
<title>Node233</title>
<g id="a_node11"><a xlink:href="matrix_8c.html#aa3f5e409b1641373be7cf7284e216d1a" target="_top" xlink:title="Returns an identity matrix of size n by n. ">
<polygon fill="none" stroke="#000000" points="541.8262,-19.5 541.8262,-37.5 616.7324,-37.5 616.7324,-19.5 541.8262,-19.5"/>
<text text-anchor="middle" x="579.2793" y="-25.5" font-family="Helvetica,sans-Serif" font-size="10.00" fill="#000000">identityMatrix</text>
</a>
</g>
</g>
<!-- Node230&#45;&gt;Node233 -->
<g id="edge12" class="edge">
<title>Node230&#45;&gt;Node233</title>
<path fill="none" stroke="#191970" d="M345.8385,-45.2246C394.9986,-41.7026 489.306,-34.946 541.7551,-31.1884"/>
<polygon fill="#191970" stroke="#191970" points="345.5049,-41.7394 335.7806,-45.9452 346.0052,-48.7215 345.5049,-41.7394"/>
</g>
<!-- Node231&#45;&gt;Node233 -->
<g id="edge11" class="edge">
<title>Node231&#45;&gt;Node233</title>
<path fill="none" stroke="#191970" d="M496.3985,-16.0769C511.1352,-18.2858 527.4304,-20.7283 541.6444,-22.8588"/>
<polygon fill="#191970" stroke="#191970" points="496.8983,-12.6128 486.4899,-14.5917 495.8606,-19.5354 496.8983,-12.6128"/>
</g>
<!-- Node250 -->
<g id="node15" class="node">
<title>Node250</title>
<g id="a_node15"><a xlink:href="slew_8c.html#a321758941d88b75783955c819bb75005" target="_top" xlink:title="Initializes the slew rate controller. ">
<polygon fill="none" stroke="#ff0000" points="286.9033,-327.5 286.9033,-345.5 341.2529,-345.5 341.2529,-327.5 286.9033,-327.5"/>
<text text-anchor="middle" x="314.0781" y="-333.5" font-family="Helvetica,sans-Serif" font-size="10.00" fill="#000000">init_slew</text>
</a>
</g>
</g>
<!-- Node249&#45;&gt;Node250 -->
<g id="edge16" class="edge">
<title>Node249&#45;&gt;Node250</title>
<path fill="none" stroke="#191970" d="M239.295,-324.3344C254.6605,-326.834 272.3212,-329.707 286.6205,-332.0332"/>
<polygon fill="#191970" stroke="#191970" points="239.5258,-320.826 229.0935,-322.6748 238.4018,-327.7352 239.5258,-320.826"/>
</g>
<!-- Node251 -->
<g id="node16" class="node">
<title>Node251</title>
<g id="a_node16"><a xlink:href="auto_8c.html#ae66ea80c777135c9f4d288a05f40ca86" target="_top" xlink:title="Starts the auntonomous program. ">
<polygon fill="none" stroke="#000000" points="419.5039,-336.5 419.5039,-354.5 485.5381,-354.5 485.5381,-336.5 419.5039,-336.5"/>
<text text-anchor="middle" x="452.521" y="-342.5" font-family="Helvetica,sans-Serif" font-size="10.00" fill="#000000">start_auton</text>
</a>
</g>
</g>
<!-- Node250&#45;&gt;Node251 -->
<g id="edge17" class="edge">
<title>Node250&#45;&gt;Node251</title>
<path fill="none" stroke="#191970" d="M351.6677,-338.9437C372.8171,-340.3186 398.9855,-342.0197 419.366,-343.3446"/>
<polygon fill="#191970" stroke="#191970" points="351.636,-335.4343 341.43,-338.2781 351.1818,-342.4195 351.636,-335.4343"/>
</g>
<!-- Node252 -->
<g id="node17" class="node">
<title>Node252</title>
<g id="a_node17"><a xlink:href="auto_8c.html#a3c7ca506bbc071fa740de13805b7f376" target="_top" xlink:title="Runs the user autonomous code. ">
<polygon fill="none" stroke="#000000" points="543.7598,-280.5 543.7598,-298.5 614.7988,-298.5 614.7988,-280.5 543.7598,-280.5"/>
<text text-anchor="middle" x="579.2793" y="-286.5" font-family="Helvetica,sans-Serif" font-size="10.00" fill="#000000">autonomous</text>
</a>
</g>
</g>
<!-- Node251&#45;&gt;Node252 -->
<g id="edge18" class="edge">
<title>Node251&#45;&gt;Node252</title>
<path fill="none" stroke="#191970" d="M491.6534,-333.0486C496.4684,-331.2933 501.2886,-329.4267 505.8262,-327.5 526.3105,-318.8022 548.917,-306.7064 563.5664,-298.5159"/>
<polygon fill="#191970" stroke="#191970" points="490.1481,-329.8674 481.8693,-336.479 492.4641,-336.4732 490.1481,-329.8674"/>
</g>
<!-- Node279&#45;&gt;Node226 -->
<g id="edge22" class="edge">
<title>Node279&#45;&gt;Node226</title>
<path fill="none" stroke="#191970" d="M339.7645,-260.1898C347.4831,-256.4655 355.8526,-252.0927 363.2158,-247.5 380.4143,-236.7726 381.8516,-229.957 399.2158,-219.5 408.6926,-213.7929 419.763,-208.5948 429.3519,-204.5069"/>
<polygon fill="#191970" stroke="#191970" points="338.0445,-257.1299 330.4606,-264.5282 341.0029,-263.4741 338.0445,-257.1299"/>
</g>
<!-- Node279&#45;&gt;Node251 -->
<g id="edge20" class="edge">
<title>Node279&#45;&gt;Node251</title>
<path fill="none" stroke="#191970" d="M334.3019,-286.9483C351.0184,-299.1781 375.7361,-316.0497 399.2158,-327.5 406.1516,-330.8823 413.8829,-333.8913 421.2583,-336.4352"/>
<polygon fill="#191970" stroke="#191970" points="336.0092,-283.8562 325.8968,-280.6954 331.831,-289.4725 336.0092,-283.8562"/>
</g>
<!-- Node279&#45;&gt;Node252 -->
<g id="edge21" class="edge">
<title>Node279&#45;&gt;Node252</title>
<path fill="none" stroke="#191970" d="M340.2411,-263.8252C377.4861,-254.0713 447.7212,-240.0267 505.8262,-253.5 528.0997,-258.6647 551.4097,-271.572 565.6428,-280.4404"/>
<polygon fill="#191970" stroke="#191970" points="338.9464,-260.5504 330.2193,-266.5577 340.7878,-267.3039 338.9464,-260.5504"/>
</g>
<!-- Node280 -->
<g id="node19" class="node">
<title>Node280</title>
<g id="a_node19"><a xlink:href="lifter_8c.html#a3738d33dc870f98243a93bddd855b43e" target="_top" xlink:title="Stpos an autostack in case of an error. ">
<polygon fill="none" stroke="#ff0000" points="399.2158,-299.5 399.2158,-317.5 505.8262,-317.5 505.8262,-299.5 399.2158,-299.5"/>
<text text-anchor="middle" x="452.521" y="-305.5" font-family="Helvetica,sans-Serif" font-size="10.00" fill="#000000">interrupt_auto_stack</text>
</a>
</g>
</g>
<!-- Node279&#45;&gt;Node280 -->
<g id="edge23" class="edge">
<title>Node279&#45;&gt;Node280</title>
<path fill="none" stroke="#191970" d="M339.9904,-278.4253C362.2679,-284.3791 394.549,-293.0065 418.829,-299.4955"/>
<polygon fill="#191970" stroke="#191970" points="340.7949,-275.0175 330.2302,-275.8168 338.9874,-281.7801 340.7949,-275.0175"/>
</g>
<!-- Node261 -->
<g id="node20" class="node">
<title>Node261</title>
<g id="a_node20"><a xlink:href="lifter_8c.html#a8a64fa88b389b39c236c5c57a7fb5c67" target="_top" xlink:title="Autostacks a cone once picked up. ">
<polygon fill="none" stroke="#ff0000" points="405.0508,-262.5 405.0508,-280.5 499.9912,-280.5 499.9912,-262.5 405.0508,-262.5"/>
<text text-anchor="middle" x="452.521" y="-268.5" font-family="Helvetica,sans-Serif" font-size="10.00" fill="#000000">autostack_routine</text>
</a>
</g>
</g>
<!-- Node279&#45;&gt;Node261 -->
<g id="edge24" class="edge">
<title>Node279&#45;&gt;Node261</title>
<path fill="none" stroke="#191970" d="M340.3505,-271.5C358.5071,-271.5 383.1815,-271.5 404.7655,-271.5"/>
<polygon fill="#191970" stroke="#191970" points="340.2303,-268.0001 330.2302,-271.5 340.2302,-275.0001 340.2303,-268.0001"/>
</g>
</g>
</svg>
