<?xml version="1.0" encoding="UTF-8" standalone="no"?>
<!DOCTYPE svg PUBLIC "-//W3C//DTD SVG 1.1//EN"
 "http://www.w3.org/Graphics/SVG/1.1/DTD/svg11.dtd">
<!-- Generated by graphviz version 2.40.1 (20161225.0304)
 -->
<!-- Title: lcdSetText Pages: 1 -->
<svg width="385pt" height="64pt"
 viewBox="0.00 0.00 385.09 64.00" xmlns="http://www.w3.org/2000/svg" xmlns:xlink="http://www.w3.org/1999/xlink">
<g id="graph0" class="graph" transform="scale(1 1) rotate(0) translate(4 60)">
<title>lcdSetText</title>
<!-- Node139 -->
<g id="node1" class="node">
<title>Node139</title>
<polygon fill="#bfbfbf" stroke="#000000" points="0,-18.5 0,-36.5 62.1328,-36.5 62.1328,-18.5 0,-18.5"/>
<text text-anchor="middle" x="31.0664" y="-24.5" font-family="Helvetica,sans-Serif" font-size="10.00" fill="#000000">lcdSetText</text>
</g>
<!-- Node140 -->
<g id="node2" class="node">
<title>Node140</title>
<g id="a_node2"><a xlink:href="lcd_8c.html#adabd3f7cdda45119604b488caf22bba8" target="_top" xlink:title="prints a string to a line on the lcd ">
<polygon fill="none" stroke="#000000" points="98.1328,-18.5 98.1328,-36.5 151.9307,-36.5 151.9307,-18.5 98.1328,-18.5"/>
<text text-anchor="middle" x="125.0317" y="-24.5" font-family="Helvetica,sans-Serif" font-size="10.00" fill="#000000">lcd_print</text>
</a>
</g>
</g>
<!-- Node139&#45;&gt;Node140 -->
<g id="edge1" class="edge">
<title>Node139&#45;&gt;Node140</title>
<path fill="none" stroke="#191970" d="M72.6343,-27.5C81.2251,-27.5 90.0606,-27.5 97.9713,-27.5"/>
<polygon fill="#191970" stroke="#191970" points="72.3555,-24.0001 62.3555,-27.5 72.3555,-31.0001 72.3555,-24.0001"/>
</g>
<!-- Node141 -->
<g id="node3" class="node">
<title>Node141</title>
<g id="a_node3"><a xlink:href="lcd_8c.html#a99f4683e1990edf624ab216bf327cba4" target="_top" xlink:title="Prompts the user to confirm a string. User must press middle button to confirm. Function is not threa...">
<polygon fill="none" stroke="#000000" points="187.9307,-37.5 187.9307,-55.5 289.5215,-55.5 289.5215,-37.5 187.9307,-37.5"/>
<text text-anchor="middle" x="238.7261" y="-43.5" font-family="Helvetica,sans-Serif" font-size="10.00" fill="#000000">promt_confirmation</text>
</a>
</g>
</g>
<!-- Node140&#45;&gt;Node141 -->
<g id="edge2" class="edge">
<title>Node140&#45;&gt;Node141</title>
<path fill="none" stroke="#191970" d="M162.0338,-33.6836C170.2936,-35.0639 179.1926,-36.5511 187.9009,-38.0064"/>
<polygon fill="#191970" stroke="#191970" points="162.4159,-30.199 151.9757,-32.0027 161.262,-37.1032 162.4159,-30.199"/>
</g>
<!-- Node143 -->
<g id="node5" class="node">
<title>Node143</title>
<g id="a_node5"><a xlink:href="menu_8c.html#abfadedb104f89f672dd3045499975a71" target="_top" xlink:title="Displays a menu context, but does not display. &#160;Menu must be freed or will cause memory leak! &#160;Will e...">
<polygon fill="none" stroke="#000000" points="199.874,-.5 199.874,-18.5 277.5781,-18.5 277.5781,-.5 199.874,-.5"/>
<text text-anchor="middle" x="238.7261" y="-6.5" font-family="Helvetica,sans-Serif" font-size="10.00" fill="#000000">display_menu</text>
</a>
</g>
</g>
<!-- Node140&#45;&gt;Node143 -->
<g id="edge4" class="edge">
<title>Node140&#45;&gt;Node143</title>
<path fill="none" stroke="#191970" d="M162.0875,-21.6334C174.0582,-19.7382 187.3666,-17.6312 199.4895,-15.7119"/>
<polygon fill="#191970" stroke="#191970" points="161.3054,-18.2135 151.9757,-23.2343 162.4,-25.1274 161.3054,-18.2135"/>
</g>
<!-- Node142 -->
<g id="node4" class="node">
<title>Node142</title>
<g id="a_node4"><a xlink:href="init_8c.html#a25a40b6614565f755233080a384c35f1" target="_top" xlink:title="initialize">
<polygon fill="none" stroke="#000000" points="325.5215,-37.5 325.5215,-55.5 377.0928,-55.5 377.0928,-37.5 325.5215,-37.5"/>
<text text-anchor="middle" x="351.3071" y="-43.5" font-family="Helvetica,sans-Serif" font-size="10.00" fill="#000000">initialize</text>
</a>
</g>
</g>
<!-- Node141&#45;&gt;Node142 -->
<g id="edge3" class="edge">
<title>Node141&#45;&gt;Node142</title>
<path fill="none" stroke="#191970" d="M299.8913,-46.5C308.8577,-46.5 317.6579,-46.5 325.3728,-46.5"/>
<polygon fill="#191970" stroke="#191970" points="299.7463,-43.0001 289.7462,-46.5 299.7462,-50.0001 299.7463,-43.0001"/>
</g>
</g>
</svg>
