<?xml version="1.0" encoding="UTF-8" standalone="no"?>
<!DOCTYPE svg PUBLIC "-//W3C//DTD SVG 1.1//EN"
 "http://www.w3.org/Graphics/SVG/1.1/DTD/svg11.dtd">
<!-- Generated by graphviz version 2.40.1 (20161225.0304)
 -->
<!-- Title: delay Pages: 1 -->
<svg width="307pt" height="215pt"
 viewBox="0.00 0.00 306.98 215.00" xmlns="http://www.w3.org/2000/svg" xmlns:xlink="http://www.w3.org/1999/xlink">
<g id="graph0" class="graph" transform="scale(1 1) rotate(0) translate(4 211)">
<title>delay</title>
<!-- Node26 -->
<g id="node1" class="node">
<title>Node26</title>
<polygon fill="#bfbfbf" stroke="#000000" points="0,-93.5 0,-111.5 39.9063,-111.5 39.9063,-93.5 0,-93.5"/>
<text text-anchor="middle" x="19.9531" y="-99.5" font-family="Helvetica,sans-Serif" font-size="10.00" fill="#000000">delay</text>
</g>
<!-- Node27 -->
<g id="node2" class="node">
<title>Node27</title>
<g id="a_node2"><a xlink:href="auto_8c.html#a3c7ca506bbc071fa740de13805b7f376" target="_top" xlink:title="Runs the user autonomous code. ">
<polygon fill="none" stroke="#000000" points="220.7188,-56.5 220.7188,-74.5 291.7578,-74.5 291.7578,-56.5 220.7188,-56.5"/>
<text text-anchor="middle" x="256.2383" y="-62.5" font-family="Helvetica,sans-Serif" font-size="10.00" fill="#000000">autonomous</text>
</a>
</g>
</g>
<!-- Node26&#45;&gt;Node27 -->
<g id="edge1" class="edge">
<title>Node26&#45;&gt;Node27</title>
<path fill="none" stroke="#191970" d="M50.212,-106.0308C82.2421,-108.9085 134.0669,-111.1017 177.4971,-101.5 201.1269,-96.2758 226.1788,-83.3839 241.5179,-74.535"/>
<polygon fill="#191970" stroke="#191970" points="50.4429,-102.5367 40.1492,-105.0446 49.7602,-109.5033 50.4429,-102.5367"/>
</g>
<!-- Node28 -->
<g id="node3" class="node">
<title>Node28</title>
<g id="a_node3"><a xlink:href="lifter_8c.html#a8a64fa88b389b39c236c5c57a7fb5c67" target="_top" xlink:title="Autostacks a cone once picked up. ">
<polygon fill="none" stroke="#000000" points="79.2314,-188.5 79.2314,-206.5 174.1719,-206.5 174.1719,-188.5 79.2314,-188.5"/>
<text text-anchor="middle" x="126.7017" y="-194.5" font-family="Helvetica,sans-Serif" font-size="10.00" fill="#000000">autostack_routine</text>
</a>
</g>
</g>
<!-- Node26&#45;&gt;Node28 -->
<g id="edge2" class="edge">
<title>Node26&#45;&gt;Node28</title>
<path fill="none" stroke="#191970" d="M30.8386,-120.6606C40.9371,-136.2877 57.1975,-158.6052 75.9063,-173.5 83.5368,-179.5749 92.9567,-184.5659 101.6038,-188.3929"/>
<polygon fill="#191970" stroke="#191970" points="33.6463,-118.5489 25.3803,-111.9213 27.7091,-122.2571 33.6463,-118.5489"/>
</g>
<!-- Node29 -->
<g id="node4" class="node">
<title>Node29</title>
<g id="a_node4"><a xlink:href="opcontrol_8c.html#ac71a94af413917f27d108e95c4d6f6a7" target="_top" xlink:title="Runs the user operator control code. ">
<polygon fill="none" stroke="#000000" points="213.4971,-169.5 213.4971,-187.5 298.9795,-187.5 298.9795,-169.5 213.4971,-169.5"/>
<text text-anchor="middle" x="256.2383" y="-175.5" font-family="Helvetica,sans-Serif" font-size="10.00" fill="#000000">operatorControl</text>
</a>
</g>
</g>
<!-- Node26&#45;&gt;Node29 -->
<g id="edge5" class="edge">
<title>Node26&#45;&gt;Node29</title>
<path fill="none" stroke="#191970" d="M49.7841,-112.095C95.7796,-126.8892 183.3819,-155.0661 228.2419,-169.4951"/>
<polygon fill="#191970" stroke="#191970" points="50.6901,-108.7099 40.0987,-108.9797 48.5466,-115.3736 50.6901,-108.7099"/>
</g>
<!-- Node30 -->
<g id="node5" class="node">
<title>Node30</title>
<g id="a_node5"><a xlink:href="menu_8c.html#abfadedb104f89f672dd3045499975a71" target="_top" xlink:title="Displays a menu contex. ">
<polygon fill="none" stroke="#000000" points="87.8496,-74.5 87.8496,-92.5 165.5537,-92.5 165.5537,-74.5 87.8496,-74.5"/>
<text text-anchor="middle" x="126.7017" y="-80.5" font-family="Helvetica,sans-Serif" font-size="10.00" fill="#000000">display_menu</text>
</a>
</g>
</g>
<!-- Node26&#45;&gt;Node30 -->
<g id="edge4" class="edge">
<title>Node26&#45;&gt;Node30</title>
<path fill="none" stroke="#191970" d="M50.1436,-97.1264C61.8077,-95.0504 75.3053,-92.648 87.6886,-90.4439"/>
<polygon fill="#191970" stroke="#191970" points="49.2636,-93.728 40.0317,-98.9262 50.4903,-100.6197 49.2636,-93.728"/>
</g>
<!-- Node31 -->
<g id="node6" class="node">
<title>Node31</title>
<g id="a_node6"><a xlink:href="lcd_8c.html#a99f4683e1990edf624ab216bf327cba4" target="_top" xlink:title="Prompts the user to confirm a string. ">
<polygon fill="none" stroke="#000000" points="75.9063,-37.5 75.9063,-55.5 177.4971,-55.5 177.4971,-37.5 75.9063,-37.5"/>
<text text-anchor="middle" x="126.7017" y="-43.5" font-family="Helvetica,sans-Serif" font-size="10.00" fill="#000000">promt_confirmation</text>
</a>
</g>
</g>
<!-- Node26&#45;&gt;Node31 -->
<g id="edge6" class="edge">
<title>Node26&#45;&gt;Node31</title>
<path fill="none" stroke="#191970" d="M39.7349,-87.232C50.1108,-79.7068 63.2653,-70.8985 75.9063,-64.5 82.5843,-61.1198 90.049,-58.0944 97.1566,-55.5321"/>
<polygon fill="#191970" stroke="#191970" points="37.3487,-84.6448 31.4147,-93.4219 41.527,-90.261 37.3487,-84.6448"/>
</g>
<!-- Node32 -->
<g id="node7" class="node">
<title>Node32</title>
<g id="a_node7"><a xlink:href="auto_8c.html#ae66ea80c777135c9f4d288a05f40ca86" target="_top" xlink:title="Starts the auntonomous program. ">
<polygon fill="none" stroke="#000000" points="93.6846,-.5 93.6846,-18.5 159.7188,-18.5 159.7188,-.5 93.6846,-.5"/>
<text text-anchor="middle" x="126.7017" y="-6.5" font-family="Helvetica,sans-Serif" font-size="10.00" fill="#000000">start_auton</text>
</a>
</g>
</g>
<!-- Node26&#45;&gt;Node32 -->
<g id="edge7" class="edge">
<title>Node26&#45;&gt;Node32</title>
<path fill="none" stroke="#191970" d="M29.345,-84.366C38.9499,-67.4623 55.3555,-42.648 75.9063,-27.5 81.1781,-23.6141 87.3647,-20.5075 93.5718,-18.0446"/>
<polygon fill="#191970" stroke="#191970" points="26.2041,-82.8155 24.4957,-93.2717 32.3518,-86.163 26.2041,-82.8155"/>
</g>
<!-- Node28&#45;&gt;Node29 -->
<g id="edge3" class="edge">
<title>Node28&#45;&gt;Node29</title>
<path fill="none" stroke="#191970" d="M184.2985,-189.0519C194.102,-187.6139 204.1274,-186.1435 213.4613,-184.7744"/>
<polygon fill="#191970" stroke="#191970" points="183.5869,-185.6187 174.2008,-190.533 184.6029,-192.5446 183.5869,-185.6187"/>
</g>
<!-- Node32&#45;&gt;Node27 -->
<g id="edge8" class="edge">
<title>Node32&#45;&gt;Node27</title>
<path fill="none" stroke="#191970" d="M163.6009,-22.0415C168.3078,-23.7975 173.0364,-25.6398 177.4971,-27.5 199.0719,-36.4971 223.1842,-48.4209 238.9736,-56.4944"/>
<polygon fill="#191970" stroke="#191970" points="164.6568,-18.7014 154.0627,-18.5803 162.269,-25.2816 164.6568,-18.7014"/>
</g>
</g>
</svg>
