<?xml version="1.0" encoding="UTF-8" standalone="no"?>
<!DOCTYPE svg PUBLIC "-//W3C//DTD SVG 1.1//EN"
 "http://www.w3.org/Graphics/SVG/1.1/DTD/svg11.dtd">
<!-- Generated by graphviz version 2.40.1 (20161225.0304)
 -->
<!-- Title: mutexGive Pages: 1 -->
<svg width="928pt" height="366pt"
 viewBox="0.00 0.00 927.72 366.00" xmlns="http://www.w3.org/2000/svg" xmlns:xlink="http://www.w3.org/1999/xlink">
<g id="graph0" class="graph" transform="scale(1 1) rotate(0) translate(4 362)">
<title>mutexGive</title>
<!-- Node304 -->
<g id="node1" class="node">
<title>Node304</title>
<polygon fill="#bfbfbf" stroke="#000000" points="0,-57.5 0,-75.5 63.793,-75.5 63.793,-57.5 0,-57.5"/>
<text text-anchor="middle" x="31.8965" y="-63.5" font-family="Helvetica,sans-Serif" font-size="10.00" fill="#000000">mutexGive</text>
</g>
<!-- Node305 -->
<g id="node2" class="node">
<title>Node305</title>
<g id="a_node2"><a xlink:href="slew_8c.html#a9f8b8ae577ef938622024545711f0151" target="_top" xlink:title="set_motor_immediate">
<polygon fill="none" stroke="#000000" points="303.29,-151.5 303.29,-169.5 415.4424,-169.5 415.4424,-151.5 303.29,-151.5"/>
<text text-anchor="middle" x="359.3662" y="-157.5" font-family="Helvetica,sans-Serif" font-size="10.00" fill="#000000">set_motor_immediate</text>
</a>
</g>
</g>
<!-- Node304&#45;&gt;Node305 -->
<g id="edge1" class="edge">
<title>Node304&#45;&gt;Node305</title>
<path fill="none" stroke="#191970" d="M72.9717,-78.2906C139.1309,-97.2816 267.8973,-134.2439 327.5809,-151.3761"/>
<polygon fill="#191970" stroke="#191970" points="73.8732,-74.9081 63.2957,-75.5131 71.9418,-81.6364 73.8732,-74.9081"/>
</g>
<!-- Node320 -->
<g id="node17" class="node">
<title>Node320</title>
<g id="a_node17"><a xlink:href="slew_8c.html#a7dff2b79dffe55fb936d977594d7c01d" target="_top" xlink:title="Sets motor speed wrapped inside the slew rate controller. ">
<polygon fill="none" stroke="#000000" points="316.3516,-.5 316.3516,-18.5 402.3809,-18.5 402.3809,-.5 316.3516,-.5"/>
<text text-anchor="middle" x="359.3662" y="-6.5" font-family="Helvetica,sans-Serif" font-size="10.00" fill="#000000">set_motor_slew</text>
</a>
</g>
</g>
<!-- Node304&#45;&gt;Node320 -->
<g id="edge24" class="edge">
<title>Node304&#45;&gt;Node320</title>
<path fill="none" stroke="#191970" d="M70.9715,-54.6485C80.3545,-52.0577 90.3842,-49.4967 99.793,-47.5 175.0875,-31.5216 264.0934,-20.079 315.8935,-14.1471"/>
<polygon fill="#191970" stroke="#191970" points="69.7698,-51.3512 61.1037,-57.4462 71.6792,-58.0857 69.7698,-51.3512"/>
</g>
<!-- Node323 -->
<g id="node20" class="node">
<title>Node323</title>
<g id="a_node20"><a xlink:href="slew_8c.html#a807a87c5df438fde21c1e8213906695b" target="_top" xlink:title="Closes the distance between the desired motor value and the current motor value by half for each moto...">
<polygon fill="none" stroke="#000000" points="99.793,-57.5 99.793,-75.5 176.9404,-75.5 176.9404,-57.5 99.793,-57.5"/>
<text text-anchor="middle" x="138.3667" y="-63.5" font-family="Helvetica,sans-Serif" font-size="10.00" fill="#000000">updateMotors</text>
</a>
</g>
</g>
<!-- Node304&#45;&gt;Node323 -->
<g id="edge29" class="edge">
<title>Node304&#45;&gt;Node323</title>
<path fill="none" stroke="#191970" d="M73.9352,-66.5C82.4228,-66.5 91.3081,-66.5 99.6744,-66.5"/>
<polygon fill="#191970" stroke="#191970" points="73.8411,-63.0001 63.8411,-66.5 73.841,-70.0001 73.8411,-63.0001"/>
</g>
<!-- Node306 -->
<g id="node3" class="node">
<title>Node306</title>
<g id="a_node3"><a xlink:href="claw_8c.html#a3a57f998b1884d39b0cc786689f7086f" target="_top" xlink:title="sets the claw motor speed ">
<polygon fill="none" stroke="#000000" points="454.7822,-226.5 454.7822,-244.5 540.8115,-244.5 540.8115,-226.5 454.7822,-226.5"/>
<text text-anchor="middle" x="497.7969" y="-232.5" font-family="Helvetica,sans-Serif" font-size="10.00" fill="#000000">set_claw_motor</text>
</a>
</g>
</g>
<!-- Node305&#45;&gt;Node306 -->
<g id="edge2" class="edge">
<title>Node305&#45;&gt;Node306</title>
<path fill="none" stroke="#191970" d="M381.9234,-175.1083C400.2805,-186.7176 427.0513,-203.0213 451.4424,-215.5 458.9331,-219.3323 467.3244,-223.1029 474.8875,-226.3191"/>
<polygon fill="#191970" stroke="#191970" points="383.705,-172.0934 373.3916,-169.6673 379.941,-177.9953 383.705,-172.0934"/>
</g>
<!-- Node309 -->
<g id="node6" class="node">
<title>Node309</title>
<g id="a_node6"><a xlink:href="claw_8c.html#a03023ca28f671b9fa7bac07782ccd8c1" target="_top" xlink:title="Drives the motors to open the claw. ">
<polygon fill="none" stroke="#000000" points="465.8906,-151.5 465.8906,-169.5 529.7031,-169.5 529.7031,-151.5 465.8906,-151.5"/>
<text text-anchor="middle" x="497.7969" y="-157.5" font-family="Helvetica,sans-Serif" font-size="10.00" fill="#000000">open_claw</text>
</a>
</g>
</g>
<!-- Node305&#45;&gt;Node309 -->
<g id="edge5" class="edge">
<title>Node305&#45;&gt;Node309</title>
<path fill="none" stroke="#191970" d="M425.7631,-160.5C439.7042,-160.5 453.798,-160.5 465.7772,-160.5"/>
<polygon fill="#191970" stroke="#191970" points="425.6713,-157.0001 415.6713,-160.5 425.6712,-164.0001 425.6713,-157.0001"/>
</g>
<!-- Node311 -->
<g id="node8" class="node">
<title>Node311</title>
<g id="a_node8"><a xlink:href="claw_8c.html#ac42dd40dbb37219295286859c6b068c2" target="_top" xlink:title="Drives the motors to close the claw. ">
<polygon fill="none" stroke="#000000" points="465.3413,-114.5 465.3413,-132.5 530.2524,-132.5 530.2524,-114.5 465.3413,-114.5"/>
<text text-anchor="middle" x="497.7969" y="-120.5" font-family="Helvetica,sans-Serif" font-size="10.00" fill="#000000">close_claw</text>
</a>
</g>
</g>
<!-- Node305&#45;&gt;Node311 -->
<g id="edge7" class="edge">
<title>Node305&#45;&gt;Node311</title>
<path fill="none" stroke="#191970" d="M403.1055,-148.8093C423.2322,-143.4298 446.6989,-137.1576 465.2358,-132.203"/>
<polygon fill="#191970" stroke="#191970" points="401.9872,-145.4852 393.2302,-151.4488 403.7948,-152.2478 401.9872,-145.4852"/>
</g>
<!-- Node312 -->
<g id="node9" class="node">
<title>Node312</title>
<g id="a_node9"><a xlink:href="lifter_8c.html#a2cfc188f60f945c824dd7fe7b0b5f4e4" target="_top" xlink:title="set_lifter_motors">
<polygon fill="none" stroke="#000000" points="452.8389,-188.5 452.8389,-206.5 542.7549,-206.5 542.7549,-188.5 452.8389,-188.5"/>
<text text-anchor="middle" x="497.7969" y="-194.5" font-family="Helvetica,sans-Serif" font-size="10.00" fill="#000000">set_lifter_motors</text>
</a>
</g>
</g>
<!-- Node305&#45;&gt;Node312 -->
<g id="edge9" class="edge">
<title>Node305&#45;&gt;Node312</title>
<path fill="none" stroke="#191970" d="M403.1518,-172.2031C422.7528,-177.4421 445.5141,-183.5258 463.8027,-188.414"/>
<polygon fill="#191970" stroke="#191970" points="403.7948,-168.7522 393.2302,-169.5512 401.9872,-175.5148 403.7948,-168.7522"/>
</g>
<!-- Node316 -->
<g id="node13" class="node">
<title>Node316</title>
<g id="a_node13"><a xlink:href="mobile__goal__intake_8c.html#a8f215023832ba515d7b4535e3ae07498" target="_top" xlink:title="set_intake_motor">
<polygon fill="none" stroke="#000000" points="451.4424,-283.5 451.4424,-301.5 544.1514,-301.5 544.1514,-283.5 451.4424,-283.5"/>
<text text-anchor="middle" x="497.7969" y="-289.5" font-family="Helvetica,sans-Serif" font-size="10.00" fill="#000000">set_intake_motor</text>
</a>
</g>
</g>
<!-- Node305&#45;&gt;Node316 -->
<g id="edge17" class="edge">
<title>Node305&#45;&gt;Node316</title>
<path fill="none" stroke="#191970" d="M374.8601,-177.0364C392.8183,-195.9912 423.5277,-227.7586 451.4424,-253.5 463.0397,-264.1945 476.961,-275.7459 486.5012,-283.4785"/>
<polygon fill="#191970" stroke="#191970" points="377.3974,-174.6255 367.9897,-169.7523 372.3051,-179.4285 377.3974,-174.6255"/>
</g>
<!-- Node307 -->
<g id="node4" class="node">
<title>Node307</title>
<g id="a_node4"><a xlink:href="claw_8c.html#a0122b78972344264b8a276a559cfce4a" target="_top" xlink:title="Updates the claw motor values. ">
<polygon fill="none" stroke="#000000" points="707.1904,-207.5 707.1904,-225.5 779.3428,-225.5 779.3428,-207.5 707.1904,-207.5"/>
<text text-anchor="middle" x="743.2666" y="-213.5" font-family="Helvetica,sans-Serif" font-size="10.00" fill="#000000">update_claw</text>
</a>
</g>
</g>
<!-- Node306&#45;&gt;Node307 -->
<g id="edge3" class="edge">
<title>Node306&#45;&gt;Node307</title>
<path fill="none" stroke="#191970" d="M550.8765,-231.3915C598.0844,-227.7375 665.8453,-222.4926 707.0761,-219.3012"/>
<polygon fill="#191970" stroke="#191970" points="550.5354,-227.9073 540.8353,-232.1687 551.0756,-234.8865 550.5354,-227.9073"/>
</g>
<!-- Node308 -->
<g id="node5" class="node">
<title>Node308</title>
<g id="a_node5"><a xlink:href="opcontrol_8c.html#ac71a94af413917f27d108e95c4d6f6a7" target="_top" xlink:title="operatorControl">
<polygon fill="none" stroke="#000000" points="834.2393,-150.5 834.2393,-168.5 919.7217,-168.5 919.7217,-150.5 834.2393,-150.5"/>
<text text-anchor="middle" x="876.9805" y="-156.5" font-family="Helvetica,sans-Serif" font-size="10.00" fill="#000000">operatorControl</text>
</a>
</g>
</g>
<!-- Node307&#45;&gt;Node308 -->
<g id="edge4" class="edge">
<title>Node307&#45;&gt;Node308</title>
<path fill="none" stroke="#191970" d="M773.8191,-203.476C798.7493,-192.8487 833.3455,-178.1009 855.4495,-168.6783"/>
<polygon fill="#191970" stroke="#191970" points="772.2805,-200.327 764.454,-207.4682 775.0255,-206.7664 772.2805,-200.327"/>
</g>
<!-- Node310 -->
<g id="node7" class="node">
<title>Node310</title>
<g id="a_node7"><a xlink:href="auto_8c.html#a3c7ca506bbc071fa740de13805b7f376" target="_top" xlink:title="autonomous">
<polygon fill="none" stroke="#000000" points="580.7031,-76.5 580.7031,-94.5 651.7422,-94.5 651.7422,-76.5 580.7031,-76.5"/>
<text text-anchor="middle" x="616.2227" y="-82.5" font-family="Helvetica,sans-Serif" font-size="10.00" fill="#000000">autonomous</text>
</a>
</g>
</g>
<!-- Node309&#45;&gt;Node310 -->
<g id="edge6" class="edge">
<title>Node309&#45;&gt;Node310</title>
<path fill="none" stroke="#191970" d="M534.3802,-147.2567C537.7876,-145.5086 541.1021,-143.5893 544.1514,-141.5 563.343,-128.3503 561.4583,-117.3493 580.1514,-103.5 584.6502,-100.1669 589.8599,-97.1592 594.8967,-94.599"/>
<polygon fill="#191970" stroke="#191970" points="532.8622,-144.1025 525.2613,-151.4834 535.8059,-150.4535 532.8622,-144.1025"/>
</g>
<!-- Node311&#45;&gt;Node310 -->
<g id="edge8" class="edge">
<title>Node311&#45;&gt;Node310</title>
<path fill="none" stroke="#191970" d="M535.5051,-111.4003C552.5069,-105.9449 572.246,-99.6111 587.9484,-94.5725"/>
<polygon fill="#191970" stroke="#191970" points="534.3146,-108.1065 525.8621,-114.4945 536.4533,-114.7718 534.3146,-108.1065"/>
</g>
<!-- Node312&#45;&gt;Node310 -->
<g id="edge10" class="edge">
<title>Node312&#45;&gt;Node310</title>
<path fill="none" stroke="#191970" d="M538.0079,-183.3702C540.1981,-181.8946 542.269,-180.2753 544.1514,-178.5 571.05,-153.1312 554.2077,-129.8446 580.1514,-103.5 583.5889,-100.0093 587.8435,-97.0818 592.2114,-94.6704"/>
<polygon fill="#191970" stroke="#191970" points="536.1137,-180.42 529.1158,-188.3749 539.547,-186.5202 536.1137,-180.42"/>
</g>
<!-- Node313 -->
<g id="node10" class="node">
<title>Node313</title>
<g id="a_node10"><a xlink:href="lifter_8c.html#a7452163ed7946b6262f41de51c62dfd4" target="_top" xlink:title="raise_lifter">
<polygon fill="none" stroke="#000000" points="585.1587,-150.5 585.1587,-168.5 647.2866,-168.5 647.2866,-150.5 585.1587,-150.5"/>
<text text-anchor="middle" x="616.2227" y="-156.5" font-family="Helvetica,sans-Serif" font-size="10.00" fill="#000000">raise_lifter</text>
</a>
</g>
</g>
<!-- Node312&#45;&gt;Node313 -->
<g id="edge11" class="edge">
<title>Node312&#45;&gt;Node313</title>
<path fill="none" stroke="#191970" d="M535.5051,-185.4003C552.5069,-179.9449 572.246,-173.6111 587.9484,-168.5725"/>
<polygon fill="#191970" stroke="#191970" points="534.3146,-182.1065 525.8621,-188.4945 536.4533,-188.7718 534.3146,-182.1065"/>
</g>
<!-- Node314 -->
<g id="node11" class="node">
<title>Node314</title>
<g id="a_node11"><a xlink:href="lifter_8c.html#a59bb7413777ca16aba124aaedf95c79b" target="_top" xlink:title="update_lifter">
<polygon fill="none" stroke="#000000" points="707.7471,-150.5 707.7471,-168.5 778.7861,-168.5 778.7861,-150.5 707.7471,-150.5"/>
<text text-anchor="middle" x="743.2666" y="-156.5" font-family="Helvetica,sans-Serif" font-size="10.00" fill="#000000">update_lifter</text>
</a>
</g>
</g>
<!-- Node312&#45;&gt;Node314 -->
<g id="edge16" class="edge">
<title>Node312&#45;&gt;Node314</title>
<path fill="none" stroke="#191970" d="M552.9862,-191.26C582.5159,-187.6934 619.4634,-182.8668 652.2939,-177.5 670.5665,-174.513 690.7803,-170.5773 707.504,-167.1479"/>
<polygon fill="#191970" stroke="#191970" points="552.384,-187.8069 542.8695,-192.4678 553.2139,-194.7576 552.384,-187.8069"/>
</g>
<!-- Node315 -->
<g id="node12" class="node">
<title>Node315</title>
<g id="a_node12"><a xlink:href="lifter_8c.html#aa7d2d04059f57cc5b8582f6fd0726dc1" target="_top" xlink:title="lower_lifter">
<polygon fill="none" stroke="#000000" points="584.0479,-113.5 584.0479,-131.5 648.3975,-131.5 648.3975,-113.5 584.0479,-113.5"/>
<text text-anchor="middle" x="616.2227" y="-119.5" font-family="Helvetica,sans-Serif" font-size="10.00" fill="#000000">lower_lifter</text>
</a>
</g>
</g>
<!-- Node312&#45;&gt;Node315 -->
<g id="edge14" class="edge">
<title>Node312&#45;&gt;Node315</title>
<path fill="none" stroke="#191970" d="M534.3802,-184.2567C537.7876,-182.5086 541.1021,-180.5893 544.1514,-178.5 563.343,-165.3503 561.4583,-154.3493 580.1514,-140.5 584.6502,-137.1669 589.8599,-134.1592 594.8967,-131.599"/>
<polygon fill="#191970" stroke="#191970" points="532.8622,-181.1025 525.2613,-188.4834 535.8059,-187.4535 532.8622,-181.1025"/>
</g>
<!-- Node313&#45;&gt;Node314 -->
<g id="edge12" class="edge">
<title>Node313&#45;&gt;Node314</title>
<path fill="none" stroke="#191970" d="M657.541,-159.5C673.682,-159.5 692.011,-159.5 707.5661,-159.5"/>
<polygon fill="#191970" stroke="#191970" points="657.3011,-156.0001 647.3011,-159.5 657.3011,-163.0001 657.3011,-156.0001"/>
</g>
<!-- Node314&#45;&gt;Node308 -->
<g id="edge13" class="edge">
<title>Node314&#45;&gt;Node308</title>
<path fill="none" stroke="#191970" d="M789.3238,-159.5C803.7756,-159.5 819.6674,-159.5 833.9048,-159.5"/>
<polygon fill="#191970" stroke="#191970" points="789.0995,-156.0001 779.0995,-159.5 789.0994,-163.0001 789.0995,-156.0001"/>
</g>
<!-- Node315&#45;&gt;Node314 -->
<g id="edge15" class="edge">
<title>Node315&#45;&gt;Node314</title>
<path fill="none" stroke="#191970" d="M656.9024,-134.3475C674.7783,-139.5536 695.4383,-145.5706 712.0687,-150.414"/>
<polygon fill="#191970" stroke="#191970" points="657.8809,-130.9871 647.3011,-131.5512 655.9235,-137.7079 657.8809,-130.9871"/>
</g>
<!-- Node317 -->
<g id="node14" class="node">
<title>Node317</title>
<g id="a_node14"><a xlink:href="mobile__goal__intake_8c.html#afa91470a9891e48827fd62d18553c6ce" target="_top" xlink:title="lower_intake">
<polygon fill="none" stroke="#000000" points="580.1514,-339.5 580.1514,-357.5 652.2939,-357.5 652.2939,-339.5 580.1514,-339.5"/>
<text text-anchor="middle" x="616.2227" y="-345.5" font-family="Helvetica,sans-Serif" font-size="10.00" fill="#000000">lower_intake</text>
</a>
</g>
</g>
<!-- Node316&#45;&gt;Node317 -->
<g id="edge18" class="edge">
<title>Node316&#45;&gt;Node317</title>
<path fill="none" stroke="#191970" d="M526.2323,-305.9462C548.1132,-316.2931 577.76,-330.3121 596.9402,-339.3819"/>
<polygon fill="#191970" stroke="#191970" points="527.624,-302.7328 517.0876,-301.622 524.6316,-309.061 527.624,-302.7328"/>
</g>
<!-- Node318 -->
<g id="node15" class="node">
<title>Node318</title>
<g id="a_node15"><a xlink:href="mobile__goal__intake_8c.html#ad0232c21c5c1ffda603d2b7d61034118" target="_top" xlink:title="updateIntake">
<polygon fill="none" stroke="#000000" points="706.353,-283.5 706.353,-301.5 780.1802,-301.5 780.1802,-283.5 706.353,-283.5"/>
<text text-anchor="middle" x="743.2666" y="-289.5" font-family="Helvetica,sans-Serif" font-size="10.00" fill="#000000">updateIntake</text>
</a>
</g>
</g>
<!-- Node316&#45;&gt;Node318 -->
<g id="edge23" class="edge">
<title>Node316&#45;&gt;Node318</title>
<path fill="none" stroke="#191970" d="M554.5141,-292.5C601.1759,-292.5 665.9619,-292.5 706.2131,-292.5"/>
<polygon fill="#191970" stroke="#191970" points="554.2565,-289.0001 544.2564,-292.5 554.2564,-296.0001 554.2565,-289.0001"/>
</g>
<!-- Node319 -->
<g id="node16" class="node">
<title>Node319</title>
<g id="a_node16"><a xlink:href="mobile__goal__intake_8c.html#a4899f9a8621015313e6312ce085da979" target="_top" xlink:title="raise_intake">
<polygon fill="none" stroke="#000000" points="581.2622,-302.5 581.2622,-320.5 651.1831,-320.5 651.1831,-302.5 581.2622,-302.5"/>
<text text-anchor="middle" x="616.2227" y="-308.5" font-family="Helvetica,sans-Serif" font-size="10.00" fill="#000000">raise_intake</text>
</a>
</g>
</g>
<!-- Node316&#45;&gt;Node319 -->
<g id="edge21" class="edge">
<title>Node316&#45;&gt;Node319</title>
<path fill="none" stroke="#191970" d="M554.194,-301.5482C563.4193,-303.0283 572.7359,-304.5231 581.2454,-305.8883"/>
<polygon fill="#191970" stroke="#191970" points="554.6902,-298.0832 544.262,-299.9548 553.5812,-304.9948 554.6902,-298.0832"/>
</g>
<!-- Node317&#45;&gt;Node318 -->
<g id="edge19" class="edge">
<title>Node317&#45;&gt;Node318</title>
<path fill="none" stroke="#191970" d="M646.0978,-335.3313C669.6292,-324.9588 701.8203,-310.7692 722.5809,-301.6181"/>
<polygon fill="#191970" stroke="#191970" points="644.656,-332.1418 636.9172,-339.378 647.4794,-338.5471 644.656,-332.1418"/>
</g>
<!-- Node318&#45;&gt;Node308 -->
<g id="edge20" class="edge">
<title>Node318&#45;&gt;Node308</title>
<path fill="none" stroke="#191970" d="M759.6304,-276.2235C787.9779,-248.0274 845.3302,-190.9813 867.7255,-168.7056"/>
<polygon fill="#191970" stroke="#191970" points="757.079,-273.8247 752.4573,-283.3584 762.0155,-278.7877 757.079,-273.8247"/>
</g>
<!-- Node319&#45;&gt;Node318 -->
<g id="edge22" class="edge">
<title>Node319&#45;&gt;Node318</title>
<path fill="none" stroke="#191970" d="M661.1788,-304.7766C675.8841,-302.5774 692.0449,-300.1604 706.1092,-298.0571"/>
<polygon fill="#191970" stroke="#191970" points="660.6466,-301.3172 651.2743,-306.2579 661.682,-308.2402 660.6466,-301.3172"/>
</g>
<!-- Node321 -->
<g id="node18" class="node">
<title>Node321</title>
<g id="a_node18"><a xlink:href="drive_8c.html#a8df41fd50094c065eedc81fc5e6595d1" target="_top" xlink:title="sets the speed of one side of the robot. ">
<polygon fill="none" stroke="#000000" points="454.77,-.5 454.77,-18.5 540.8237,-18.5 540.8237,-.5 454.77,-.5"/>
<text text-anchor="middle" x="497.7969" y="-6.5" font-family="Helvetica,sans-Serif" font-size="10.00" fill="#000000">set_side_speed</text>
</a>
</g>
</g>
<!-- Node320&#45;&gt;Node321 -->
<g id="edge25" class="edge">
<title>Node320&#45;&gt;Node321</title>
<path fill="none" stroke="#191970" d="M412.7173,-9.5C426.475,-9.5 441.1165,-9.5 454.3052,-9.5"/>
<polygon fill="#191970" stroke="#191970" points="412.4078,-6.0001 402.4077,-9.5 412.4077,-13.0001 412.4078,-6.0001"/>
</g>
<!-- Node321&#45;&gt;Node310 -->
<g id="edge26" class="edge">
<title>Node321&#45;&gt;Node310</title>
<path fill="none" stroke="#191970" d="M520.3749,-23.9895C544.5004,-39.4721 581.9912,-63.5319 602.1909,-76.4951"/>
<polygon fill="#191970" stroke="#191970" points="522.1533,-20.9721 511.8469,-18.5166 518.3726,-26.8633 522.1533,-20.9721"/>
</g>
<!-- Node322 -->
<g id="node19" class="node">
<title>Node322</title>
<g id="a_node19"><a xlink:href="drive_8c.html#a8224a4626a934d30ed587671b7004bf8" target="_top" xlink:title="Updates the drive motors during teleop. ">
<polygon fill="none" stroke="#000000" points="688.2939,-.5 688.2939,-18.5 798.2393,-18.5 798.2393,-.5 688.2939,-.5"/>
<text text-anchor="middle" x="743.2666" y="-6.5" font-family="Helvetica,sans-Serif" font-size="10.00" fill="#000000">update_drive_motors</text>
</a>
</g>
</g>
<!-- Node321&#45;&gt;Node322 -->
<g id="edge27" class="edge">
<title>Node321&#45;&gt;Node322</title>
<path fill="none" stroke="#191970" d="M551.0609,-9.5C591.6053,-9.5 647.2307,-9.5 688.2107,-9.5"/>
<polygon fill="#191970" stroke="#191970" points="550.8354,-6.0001 540.8353,-9.5 550.8353,-13.0001 550.8354,-6.0001"/>
</g>
<!-- Node322&#45;&gt;Node308 -->
<g id="edge28" class="edge">
<title>Node322&#45;&gt;Node308</title>
<path fill="none" stroke="#191970" d="M781.9827,-22.833C787.7855,-25.8114 793.4274,-29.3478 798.2393,-33.5 838.0793,-67.8784 864.4257,-127.4775 873.4851,-150.2711"/>
<polygon fill="#191970" stroke="#191970" points="783.3738,-19.6203 772.8279,-18.6039 780.4382,-25.975 783.3738,-19.6203"/>
</g>
<!-- Node324 -->
<g id="node21" class="node">
<title>Node324</title>
<g id="a_node21"><a xlink:href="slew_8c.html#a321758941d88b75783955c819bb75005" target="_top" xlink:title="Initializes the slew rate controller. ">
<polygon fill="none" stroke="#000000" points="212.9404,-57.5 212.9404,-75.5 267.29,-75.5 267.29,-57.5 212.9404,-57.5"/>
<text text-anchor="middle" x="240.1152" y="-63.5" font-family="Helvetica,sans-Serif" font-size="10.00" fill="#000000">init_slew</text>
</a>
</g>
</g>
<!-- Node323&#45;&gt;Node324 -->
<g id="edge30" class="edge">
<title>Node323&#45;&gt;Node324</title>
<path fill="none" stroke="#191970" d="M187.3298,-66.5C196.1069,-66.5 204.9601,-66.5 212.8422,-66.5"/>
<polygon fill="#191970" stroke="#191970" points="187.1237,-63.0001 177.1237,-66.5 187.1237,-70.0001 187.1237,-63.0001"/>
</g>
<!-- Node324&#45;&gt;Node305 -->
<g id="edge34" class="edge">
<title>Node324&#45;&gt;Node305</title>
<path fill="none" stroke="#191970" d="M259.6095,-81.8664C284.661,-101.6133 327.3513,-135.2641 347.7913,-151.3761"/>
<polygon fill="#191970" stroke="#191970" points="261.5697,-78.955 251.5495,-75.5131 257.2363,-84.4524 261.5697,-78.955"/>
</g>
<!-- Node324&#45;&gt;Node308 -->
<g id="edge32" class="edge">
<title>Node324&#45;&gt;Node308</title>
<path fill="none" stroke="#191970" d="M277.5633,-62.002C327.6545,-56.3837 419.2737,-47.5 497.7969,-47.5 497.7969,-47.5 497.7969,-47.5 616.2227,-47.5 720.1817,-47.5 829.9131,-123.5857 865.2783,-150.3346"/>
<polygon fill="#191970" stroke="#191970" points="277.0633,-58.5362 267.5244,-63.1469 277.8566,-65.4911 277.0633,-58.5362"/>
</g>
<!-- Node324&#45;&gt;Node310 -->
<g id="edge31" class="edge">
<title>Node324&#45;&gt;Node310</title>
<path fill="none" stroke="#191970" d="M277.5386,-68.3905C350.2034,-72.0614 509.4923,-80.1083 580.6544,-83.7032"/>
<polygon fill="#191970" stroke="#191970" points="277.6308,-64.8908 267.4669,-67.8817 277.2776,-71.8819 277.6308,-64.8908"/>
</g>
<!-- Node324&#45;&gt;Node320 -->
<g id="edge33" class="edge">
<title>Node324&#45;&gt;Node320</title>
<path fill="none" stroke="#191970" d="M265.5559,-52.6411C276.989,-46.5611 290.7123,-39.4658 303.29,-33.5 314.2931,-28.2811 326.7267,-22.9079 337.0851,-18.5722"/>
<polygon fill="#191970" stroke="#191970" points="263.7246,-49.6517 256.5662,-57.4625 267.0331,-55.8205 263.7246,-49.6517"/>
</g>
</g>
</svg>
