<?xml version="1.0" encoding="UTF-8" standalone="no"?>
<!DOCTYPE svg PUBLIC "-//W3C//DTD SVG 1.1//EN"
 "http://www.w3.org/Graphics/SVG/1.1/DTD/svg11.dtd">
<!-- Generated by graphviz version 2.40.1 (20161225.0304)
 -->
<!-- Title: powerLevelMain Pages: 1 -->
<svg width="407pt" height="27pt"
 viewBox="0.00 0.00 407.06 27.00" xmlns="http://www.w3.org/2000/svg" xmlns:xlink="http://www.w3.org/1999/xlink">
<g id="graph0" class="graph" transform="scale(1 1) rotate(0) translate(4 23)">
<title>powerLevelMain</title>
<!-- Node354 -->
<g id="node1" class="node">
<title>Node354</title>
<polygon fill="#bfbfbf" stroke="#000000" points="0,-.5 0,-18.5 88.8174,-18.5 88.8174,-.5 0,-.5"/>
<text text-anchor="middle" x="44.4087" y="-6.5" font-family="Helvetica,sans-Serif" font-size="10.00" fill="#000000">powerLevelMain</text>
</g>
<!-- Node355 -->
<g id="node2" class="node">
<title>Node355</title>
<g id="a_node2"><a xlink:href="battery_8c.html#a8c92c389534fdb079698cdebeb7f2efa" target="_top" xlink:title="gets the main battery voltage ">
<polygon fill="none" stroke="#000000" points="124.8174,-.5 124.8174,-18.5 236.4326,-18.5 236.4326,-.5 124.8174,-.5"/>
<text text-anchor="middle" x="180.625" y="-6.5" font-family="Helvetica,sans-Serif" font-size="10.00" fill="#000000">main_battery_voltage</text>
</a>
</g>
</g>
<!-- Node354&#45;&gt;Node355 -->
<g id="edge1" class="edge">
<title>Node354&#45;&gt;Node355</title>
<path fill="none" stroke="#191970" d="M99.0467,-9.5C107.4186,-9.5 116.0733,-9.5 124.4772,-9.5"/>
<polygon fill="#191970" stroke="#191970" points="99.011,-6.0001 89.011,-9.5 99.011,-13.0001 99.011,-6.0001"/>
</g>
<!-- Node356 -->
<g id="node3" class="node">
<title>Node356</title>
<g id="a_node3"><a xlink:href="battery_8c.html#a1097bbb878f6e2690f8eea6cd231959a" target="_top" xlink:title="returns if the batteries are acceptable ">
<polygon fill="none" stroke="#000000" points="272.4326,-.5 272.4326,-18.5 399.0625,-18.5 399.0625,-.5 272.4326,-.5"/>
<text text-anchor="middle" x="335.7476" y="-6.5" font-family="Helvetica,sans-Serif" font-size="10.00" fill="#000000">battery_level_acceptable</text>
</a>
</g>
</g>
<!-- Node355&#45;&gt;Node356 -->
<g id="edge2" class="edge">
<title>Node355&#45;&gt;Node356</title>
<path fill="none" stroke="#191970" d="M246.783,-9.5C255.2055,-9.5 263.8114,-9.5 272.1917,-9.5"/>
<polygon fill="#191970" stroke="#191970" points="246.6278,-6.0001 236.6278,-9.5 246.6278,-13.0001 246.6278,-6.0001"/>
</g>
</g>
</svg>
