<?xml version="1.0" encoding="UTF-8" standalone="no"?>
<!DOCTYPE svg PUBLIC "-//W3C//DTD SVG 1.1//EN"
 "http://www.w3.org/Graphics/SVG/1.1/DTD/svg11.dtd">
<!-- Generated by graphviz version 2.40.1 (20161225.0304)
 -->
<!-- Title: imeInitializeAll Pages: 1 -->
<svg width="286pt" height="27pt"
 viewBox="0.00 0.00 286.41 27.00" xmlns="http://www.w3.org/2000/svg" xmlns:xlink="http://www.w3.org/1999/xlink">
<g id="graph0" class="graph" transform="scale(1 1) rotate(0) translate(4 23)">
<title>imeInitializeAll</title>
<!-- Node87 -->
<g id="node1" class="node">
<title>Node87</title>
<polygon fill="#bfbfbf" stroke="#000000" points="0,-.5 0,-18.5 79.3545,-18.5 79.3545,-.5 0,-.5"/>
<text text-anchor="middle" x="39.6772" y="-6.5" font-family="Helvetica,sans-Serif" font-size="10.00" fill="#000000">imeInitializeAll</text>
</g>
<!-- Node88 -->
<g id="node2" class="node">
<title>Node88</title>
<g id="a_node2"><a xlink:href="encoders_8c.html#aa6ec1ca17e907babd52803ecba451cd3" target="_top" xlink:title="Initializes all motor encoders. ">
<polygon fill="none" stroke="#000000" points="115.3545,-.5 115.3545,-18.5 190.8369,-18.5 190.8369,-.5 115.3545,-.5"/>
<text text-anchor="middle" x="153.0957" y="-6.5" font-family="Helvetica,sans-Serif" font-size="10.00" fill="#000000">init_encoders</text>
</a>
</g>
</g>
<!-- Node87&#45;&gt;Node88 -->
<g id="edge1" class="edge">
<title>Node87&#45;&gt;Node88</title>
<path fill="none" stroke="#191970" d="M89.8199,-9.5C98.2678,-9.5 106.9128,-9.5 114.9913,-9.5"/>
<polygon fill="#191970" stroke="#191970" points="89.6644,-6.0001 79.6644,-9.5 89.6643,-13.0001 89.6644,-6.0001"/>
</g>
<!-- Node89 -->
<g id="node3" class="node">
<title>Node89</title>
<g id="a_node3"><a xlink:href="init_8c.html#a25a40b6614565f755233080a384c35f1" target="_top" xlink:title="initialize">
<polygon fill="none" stroke="#000000" points="226.8369,-.5 226.8369,-18.5 278.4082,-18.5 278.4082,-.5 226.8369,-.5"/>
<text text-anchor="middle" x="252.6226" y="-6.5" font-family="Helvetica,sans-Serif" font-size="10.00" fill="#000000">initialize</text>
</a>
</g>
</g>
<!-- Node88&#45;&gt;Node89 -->
<g id="edge2" class="edge">
<title>Node88&#45;&gt;Node89</title>
<path fill="none" stroke="#191970" d="M201.1798,-9.5C209.9284,-9.5 218.7463,-9.5 226.5503,-9.5"/>
<polygon fill="#191970" stroke="#191970" points="201.0065,-6.0001 191.0065,-9.5 201.0064,-13.0001 201.0065,-6.0001"/>
</g>
</g>
</svg>
