<?xml version="1.0" encoding="UTF-8" standalone="no"?>
<!DOCTYPE svg PUBLIC "-//W3C//DTD SVG 1.1//EN"
 "http://www.w3.org/Graphics/SVG/1.1/DTD/svg11.dtd">
<!-- Generated by graphviz version 2.40.1 (20161225.0304)
 -->
<!-- Title: printf Pages: 1 -->
<svg width="505pt" height="478pt"
 viewBox="0.00 0.00 505.19 478.33" xmlns="http://www.w3.org/2000/svg" xmlns:xlink="http://www.w3.org/1999/xlink">
<g id="graph0" class="graph" transform="scale(1 1) rotate(0) translate(4 474.328)">
<title>printf</title>
<!-- Node560 -->
<g id="node1" class="node">
<title>Node560</title>
<polygon fill="#bfbfbf" stroke="#000000" points="0,-217.828 0,-235.828 38.2314,-235.828 38.2314,-217.828 0,-217.828"/>
<text text-anchor="middle" x="19.1157" y="-223.828" font-family="Helvetica,sans-Serif" font-size="10.00" fill="#000000">printf</text>
</g>
<!-- Node561 -->
<g id="node2" class="node">
<title>Node561</title>
<g id="a_node2"><a xlink:href="lifter_8c.html#a8a64fa88b389b39c236c5c57a7fb5c67" target="_top" xlink:title="Autostacks a cone once picked up. ">
<polygon fill="none" stroke="#000000" points="98.9678,-217.828 98.9678,-235.828 193.9082,-235.828 193.9082,-217.828 98.9678,-217.828"/>
<text text-anchor="middle" x="146.438" y="-223.828" font-family="Helvetica,sans-Serif" font-size="10.00" fill="#000000">autostack_routine</text>
</a>
</g>
</g>
<!-- Node560&#45;&gt;Node561 -->
<g id="edge1" class="edge">
<title>Node560&#45;&gt;Node561</title>
<path fill="none" stroke="#191970" d="M48.6034,-226.828C63.506,-226.828 81.9595,-226.828 98.81,-226.828"/>
<polygon fill="#191970" stroke="#191970" points="48.4533,-223.3281 38.4532,-226.828 48.4532,-230.3281 48.4533,-223.3281"/>
</g>
<!-- Node563 -->
<g id="node4" class="node">
<title>Node563</title>
<g id="a_node4"><a xlink:href="localization_8c.html#a6785e4b3b61887f28028f05019b9b39d" target="_top" xlink:title="calculats the robot&#39;s position using the accelerometer ">
<polygon fill="none" stroke="#000000" points="84.2437,-441.828 84.2437,-469.828 208.6323,-469.828 208.6323,-441.828 84.2437,-441.828"/>
<text text-anchor="start" x="92.2437" y="-457.828" font-family="Helvetica,sans-Serif" font-size="10.00" fill="#000000">calculate_accelerometer</text>
<text text-anchor="middle" x="146.438" y="-447.828" font-family="Helvetica,sans-Serif" font-size="10.00" fill="#000000">_odemetry</text>
</a>
</g>
</g>
<!-- Node560&#45;&gt;Node563 -->
<g id="edge3" class="edge">
<title>Node560&#45;&gt;Node563</title>
<path fill="none" stroke="#191970" d="M22.2162,-246.2213C29.7159,-290.9749 50.016,-399.709 74.2314,-426.828 79.72,-432.9748 86.6927,-437.8387 94.1306,-441.6823"/>
<polygon fill="#191970" stroke="#191970" points="25.6632,-245.6121 20.5908,-236.3104 18.7555,-246.7451 25.6632,-245.6121"/>
</g>
<!-- Node566 -->
<g id="node6" class="node">
<title>Node566</title>
<g id="a_node6"><a xlink:href="menu_8c.html#a0fb55c1213b23963d509b974d1254567" target="_top" xlink:title="Static function that calculates the string from menu. ">
<polygon fill="none" stroke="#000000" points="254.6445,-50.828 254.6445,-68.828 383.4863,-68.828 383.4863,-50.828 254.6445,-50.828"/>
<text text-anchor="middle" x="319.0654" y="-56.828" font-family="Helvetica,sans-Serif" font-size="10.00" fill="#000000">calculate_current_display</text>
</a>
</g>
</g>
<!-- Node560&#45;&gt;Node566 -->
<g id="edge5" class="edge">
<title>Node560&#45;&gt;Node566</title>
<path fill="none" stroke="#191970" d="M21.3593,-207.6315C27.2075,-161.3099 44.559,-45.5476 74.2314,-22.828 145.2265,31.5314 262.4833,-26.869 303.9586,-50.6803"/>
<polygon fill="#191970" stroke="#191970" points="17.854,-207.4635 20.1198,-217.8132 24.8027,-208.3095 17.854,-207.4635"/>
</g>
<!-- Node567 -->
<g id="node7" class="node">
<title>Node567</title>
<g id="a_node7"><a xlink:href="menu_8c.html#abfadedb104f89f672dd3045499975a71" target="_top" xlink:title="Displays a menu contex. ">
<polygon fill="none" stroke="#000000" points="419.4863,-365.828 419.4863,-383.828 497.1904,-383.828 497.1904,-365.828 419.4863,-365.828"/>
<text text-anchor="middle" x="458.3384" y="-371.828" font-family="Helvetica,sans-Serif" font-size="10.00" fill="#000000">display_menu</text>
</a>
</g>
</g>
<!-- Node560&#45;&gt;Node567 -->
<g id="edge11" class="edge">
<title>Node560&#45;&gt;Node567</title>
<path fill="none" stroke="#191970" d="M22.5576,-245.977C30.1762,-285.9688 49.7461,-376.1247 74.2314,-393.828 129.9229,-434.0941 315.2932,-402.3478 383.4863,-393.828 399.0518,-391.8834 416.0244,-387.7476 429.8666,-383.8297"/>
<polygon fill="#191970" stroke="#191970" points="25.9581,-245.118 20.6944,-235.9233 19.0753,-246.3936 25.9581,-245.118"/>
</g>
<!-- Node568 -->
<g id="node8" class="node">
<title>Node568</title>
<g id="a_node8"><a xlink:href="localization_8c.html#a1cb0c9fa1e6ff2079deb836569d75d87" target="_top" xlink:title="calculates the x y posistion of the robot based upon the IMEs ">
<polygon fill="none" stroke="#000000" points="74.2314,-291.828 74.2314,-309.828 218.6445,-309.828 218.6445,-291.828 74.2314,-291.828"/>
<text text-anchor="middle" x="146.438" y="-297.828" font-family="Helvetica,sans-Serif" font-size="10.00" fill="#000000">calculate_encoder_odemetry</text>
</a>
</g>
</g>
<!-- Node560&#45;&gt;Node568 -->
<g id="edge7" class="edge">
<title>Node560&#45;&gt;Node568</title>
<path fill="none" stroke="#191970" d="M31.6067,-243.8488C41.7337,-256.4431 57.0992,-273.0453 74.2314,-282.828 80.6264,-286.4797 87.7534,-289.3975 94.9692,-291.7274"/>
<polygon fill="#191970" stroke="#191970" points="34.3554,-241.6817 25.4752,-235.903 28.8135,-245.9582 34.3554,-241.6817"/>
</g>
<!-- Node569 -->
<g id="node9" class="node">
<title>Node569</title>
<g id="a_node9"><a xlink:href="log_8c.html#af3668f40d1ad1b4f3418869ac9a31f34" target="_top" xlink:title="prints a info message ">
<polygon fill="none" stroke="#000000" points="124.5342,-328.828 124.5342,-346.828 168.3418,-346.828 168.3418,-328.828 124.5342,-328.828"/>
<text text-anchor="middle" x="146.438" y="-334.828" font-family="Helvetica,sans-Serif" font-size="10.00" fill="#000000">debug</text>
</a>
</g>
</g>
<!-- Node560&#45;&gt;Node569 -->
<g id="edge8" class="edge">
<title>Node560&#45;&gt;Node569</title>
<path fill="none" stroke="#191970" d="M25.1372,-245.3653C33.0092,-266.6151 48.8625,-300.9376 74.2314,-319.828 88.7386,-330.6305 108.9735,-335.0011 124.3328,-336.7439"/>
<polygon fill="#191970" stroke="#191970" points="28.4181,-244.1439 21.8234,-235.8517 21.8077,-246.4465 28.4181,-244.1439"/>
</g>
<!-- Node598 -->
<g id="node12" class="node">
<title>Node598</title>
<g id="a_node12"><a xlink:href="encoders_8c.html#aa6ec1ca17e907babd52803ecba451cd3" target="_top" xlink:title="Initializes all motor encoders. ">
<polygon fill="none" stroke="#000000" points="108.6968,-106.828 108.6968,-124.828 184.1792,-124.828 184.1792,-106.828 108.6968,-106.828"/>
<text text-anchor="middle" x="146.438" y="-112.828" font-family="Helvetica,sans-Serif" font-size="10.00" fill="#000000">init_encoders</text>
</a>
</g>
</g>
<!-- Node560&#45;&gt;Node598 -->
<g id="edge12" class="edge">
<title>Node560&#45;&gt;Node598</title>
<path fill="none" stroke="#191970" d="M25.1372,-208.2908C33.0092,-187.041 48.8625,-152.7185 74.2314,-133.828 84.0756,-126.4978 96.5571,-122.1292 108.363,-119.5336"/>
<polygon fill="#191970" stroke="#191970" points="21.8077,-207.2095 21.8234,-217.8044 28.4181,-209.5122 21.8077,-207.2095"/>
</g>
<!-- Node600 -->
<g id="node14" class="node">
<title>Node600</title>
<g id="a_node14"><a xlink:href="log_8c.html#a163f389b4f5cf440a807d8fb48aaa006" target="_top" xlink:title="Initializes the error lcd system Only required if using lcd. ">
<polygon fill="none" stroke="#000000" points="118.709,-180.828 118.709,-198.828 174.167,-198.828 174.167,-180.828 118.709,-180.828"/>
<text text-anchor="middle" x="146.438" y="-186.828" font-family="Helvetica,sans-Serif" font-size="10.00" fill="#000000">init_error</text>
</a>
</g>
</g>
<!-- Node560&#45;&gt;Node600 -->
<g id="edge14" class="edge">
<title>Node560&#45;&gt;Node600</title>
<path fill="none" stroke="#191970" d="M48.148,-216.9953C56.5337,-214.2507 65.7192,-211.3356 74.2314,-208.828 88.7795,-204.5424 105.1121,-200.2054 118.5592,-196.7592"/>
<polygon fill="#191970" stroke="#191970" points="46.807,-213.7524 38.415,-220.2196 49.0084,-220.3972 46.807,-213.7524"/>
</g>
<!-- Node601 -->
<g id="node15" class="node">
<title>Node601</title>
<g id="a_node15"><a xlink:href="menu_8c.html#af1bb786cb6014dcbfdb146878e713a3d" target="_top" xlink:title="Creates a menu context, but does not display. ">
<polygon fill="none" stroke="#000000" points="107.0317,-143.828 107.0317,-161.828 185.8442,-161.828 185.8442,-143.828 107.0317,-143.828"/>
<text text-anchor="middle" x="146.438" y="-149.828" font-family="Helvetica,sans-Serif" font-size="10.00" fill="#000000">init_menu_var</text>
</a>
</g>
</g>
<!-- Node560&#45;&gt;Node601 -->
<g id="edge16" class="edge">
<title>Node560&#45;&gt;Node601</title>
<path fill="none" stroke="#191970" d="M32.3457,-209.407C42.5242,-197.1734 57.625,-181.3544 74.2314,-171.828 84.126,-166.1519 95.7503,-162.133 106.7459,-159.3027"/>
<polygon fill="#191970" stroke="#191970" points="29.3566,-207.5413 25.8529,-217.54 34.8272,-211.9086 29.3566,-207.5413"/>
</g>
<!-- Node602 -->
<g id="node16" class="node">
<title>Node602</title>
<g id="a_node16"><a xlink:href="lcd_8c.html#aa03fd2deaeec8fc3f42a0975d587bad8" target="_top" xlink:title="Asserts the lcd is initialized Works by checking is the File *lcd_port is the default NULL value and ...">
<polygon fill="none" stroke="#ff0000" points="115.6499,-365.828 115.6499,-383.828 177.2261,-383.828 177.2261,-365.828 115.6499,-365.828"/>
<text text-anchor="middle" x="146.438" y="-371.828" font-family="Helvetica,sans-Serif" font-size="10.00" fill="#000000">lcd_assert</text>
</a>
</g>
</g>
<!-- Node560&#45;&gt;Node602 -->
<g id="edge18" class="edge">
<title>Node560&#45;&gt;Node602</title>
<path fill="none" stroke="#191970" d="M21.778,-245.9366C26.7849,-274.4492 40.3373,-327.8683 74.2314,-356.828 85.6255,-366.5633 101.5193,-371.1718 115.4955,-373.3008"/>
<polygon fill="#191970" stroke="#191970" points="25.2279,-245.3443 20.2082,-236.0141 18.3139,-246.4382 25.2279,-245.3443"/>
</g>
<!-- Node610 -->
<g id="node18" class="node">
<title>Node610</title>
<g id="a_node18"><a xlink:href="log_8c.html#afff22aff6749311a684a559cac3ac8bd" target="_top" xlink:title="prints a log info message to the lcd ">
<polygon fill="none" stroke="#ff0000" points="120.9233,-69.828 120.9233,-87.828 171.9526,-87.828 171.9526,-69.828 120.9233,-69.828"/>
<text text-anchor="middle" x="146.438" y="-75.828" font-family="Helvetica,sans-Serif" font-size="10.00" fill="#000000">log_info</text>
</a>
</g>
</g>
<!-- Node560&#45;&gt;Node610 -->
<g id="edge21" class="edge">
<title>Node560&#45;&gt;Node610</title>
<path fill="none" stroke="#191970" d="M21.778,-207.7195C26.7849,-179.2069 40.3373,-125.7878 74.2314,-96.828 87.0988,-85.8339 105.705,-81.3782 120.8072,-79.6481"/>
<polygon fill="#191970" stroke="#191970" points="18.3139,-207.2179 20.2082,-217.642 25.2279,-208.3118 18.3139,-207.2179"/>
</g>
<!-- Node634 -->
<g id="node19" class="node">
<title>Node634</title>
<g id="a_node19"><a xlink:href="matrix_8c.html#a50ab2b1ac33d6993d93522fc4f30a051" target="_top" xlink:title="Prints a matrix. ">
<polygon fill="none" stroke="#000000" points="115.1006,-32.828 115.1006,-50.828 177.7754,-50.828 177.7754,-32.828 115.1006,-32.828"/>
<text text-anchor="middle" x="146.438" y="-38.828" font-family="Helvetica,sans-Serif" font-size="10.00" fill="#000000">printMatrix</text>
</a>
</g>
</g>
<!-- Node560&#45;&gt;Node634 -->
<g id="edge22" class="edge">
<title>Node560&#45;&gt;Node634</title>
<path fill="none" stroke="#191970" d="M23.0345,-207.5751C31.4299,-168.1659 52.1878,-80.2883 74.2314,-59.828 85.1211,-49.7207 100.7981,-45.0618 114.7639,-42.9959"/>
<polygon fill="#191970" stroke="#191970" points="19.5772,-207.0097 20.9619,-217.5137 26.4298,-208.4388 19.5772,-207.0097"/>
</g>
<!-- Node582 -->
<g id="node20" class="node">
<title>Node582</title>
<g id="a_node20"><a xlink:href="lifter_8c.html#a59bb7413777ca16aba124aaedf95c79b" target="_top" xlink:title="Updates the lifter in teleop. ">
<polygon fill="none" stroke="#000000" points="110.9185,-254.828 110.9185,-272.828 181.9575,-272.828 181.9575,-254.828 110.9185,-254.828"/>
<text text-anchor="middle" x="146.438" y="-260.828" font-family="Helvetica,sans-Serif" font-size="10.00" fill="#000000">update_lifter</text>
</a>
</g>
</g>
<!-- Node560&#45;&gt;Node582 -->
<g id="edge23" class="edge">
<title>Node560&#45;&gt;Node582</title>
<path fill="none" stroke="#191970" d="M47.8171,-237.2552C56.2757,-240.1833 65.5827,-243.2647 74.2314,-245.828 85.999,-249.3158 98.9764,-252.6938 110.6452,-255.5631"/>
<polygon fill="#191970" stroke="#191970" points="48.9621,-233.9478 38.3673,-233.9286 46.6377,-240.5506 48.9621,-233.9478"/>
</g>
<!-- Node562 -->
<g id="node3" class="node">
<title>Node562</title>
<g id="a_node3"><a xlink:href="opcontrol_8c.html#ac71a94af413917f27d108e95c4d6f6a7" target="_top" xlink:title="Runs the user operator control code. ">
<polygon fill="none" stroke="#000000" points="276.3242,-235.828 276.3242,-253.828 361.8066,-253.828 361.8066,-235.828 276.3242,-235.828"/>
<text text-anchor="middle" x="319.0654" y="-241.828" font-family="Helvetica,sans-Serif" font-size="10.00" fill="#000000">operatorControl</text>
</a>
</g>
</g>
<!-- Node561&#45;&gt;Node562 -->
<g id="edge2" class="edge">
<title>Node561&#45;&gt;Node562</title>
<path fill="none" stroke="#191970" d="M204.2856,-232.8599C227.8358,-235.3155 254.5699,-238.103 276.3086,-240.3698"/>
<polygon fill="#191970" stroke="#191970" points="204.3753,-229.3503 194.0662,-231.7943 203.6492,-236.3126 204.3753,-229.3503"/>
</g>
<!-- Node564 -->
<g id="node5" class="node">
<title>Node564</title>
<g id="a_node5"><a xlink:href="localization_8c.html#afacd5e0b3d5e677df26a4402bbd9ec9e" target="_top" xlink:title="Updates the position from the localization. ">
<polygon fill="none" stroke="#ff0000" points="275.7578,-446.828 275.7578,-464.828 362.373,-464.828 362.373,-446.828 275.7578,-446.828"/>
<text text-anchor="middle" x="319.0654" y="-452.828" font-family="Helvetica,sans-Serif" font-size="10.00" fill="#000000">update_position</text>
</a>
</g>
</g>
<!-- Node563&#45;&gt;Node564 -->
<g id="edge4" class="edge">
<title>Node563&#45;&gt;Node564</title>
<path fill="none" stroke="#191970" d="M218.7828,-455.828C238.1573,-455.828 258.4966,-455.828 275.7549,-455.828"/>
<polygon fill="#191970" stroke="#191970" points="218.7605,-452.3281 208.7605,-455.828 218.7604,-459.3281 218.7605,-452.3281"/>
</g>
<!-- Node566&#45;&gt;Node567 -->
<g id="edge6" class="edge">
<title>Node566&#45;&gt;Node567</title>
<path fill="none" stroke="#191970" d="M336.5986,-75.8529C351.0136,-89.8889 371.0262,-111.4855 383.4863,-133.828 429.7924,-216.8606 451.378,-332.2906 456.8801,-365.5336"/>
<polygon fill="#191970" stroke="#191970" points="338.9119,-73.223 329.2497,-68.8763 334.0923,-78.2996 338.9119,-73.223"/>
</g>
<!-- Node570 -->
<g id="node10" class="node">
<title>Node570</title>
<g id="a_node10"><a xlink:href="slew_8c.html#a7dff2b79dffe55fb936d977594d7c01d" target="_top" xlink:title="Sets motor speed wrapped inside the slew rate controller. ">
<polygon fill="none" stroke="#ff0000" points="276.0508,-328.828 276.0508,-346.828 362.0801,-346.828 362.0801,-328.828 276.0508,-328.828"/>
<text text-anchor="middle" x="319.0654" y="-334.828" font-family="Helvetica,sans-Serif" font-size="10.00" fill="#000000">set_motor_slew</text>
</a>
</g>
</g>
<!-- Node569&#45;&gt;Node570 -->
<g id="edge9" class="edge">
<title>Node569&#45;&gt;Node570</title>
<path fill="none" stroke="#191970" d="M178.8659,-337.828C206.2378,-337.828 245.6598,-337.828 275.734,-337.828"/>
<polygon fill="#191970" stroke="#191970" points="178.6526,-334.3281 168.6526,-337.828 178.6526,-341.3281 178.6526,-334.3281"/>
</g>
<!-- Node583 -->
<g id="node11" class="node">
<title>Node583</title>
<g id="a_node11"><a xlink:href="slew_8c.html#a9f8b8ae577ef938622024545711f0151" target="_top" xlink:title="Sets the motor speed ignoring the slew controller. ">
<polygon fill="none" stroke="#ff0000" points="262.9893,-291.828 262.9893,-309.828 375.1416,-309.828 375.1416,-291.828 262.9893,-291.828"/>
<text text-anchor="middle" x="319.0654" y="-297.828" font-family="Helvetica,sans-Serif" font-size="10.00" fill="#000000">set_motor_immediate</text>
</a>
</g>
</g>
<!-- Node569&#45;&gt;Node583 -->
<g id="edge10" class="edge">
<title>Node569&#45;&gt;Node583</title>
<path fill="none" stroke="#191970" d="M178.6097,-330.9325C206.3048,-324.9965 246.4733,-316.387 276.7661,-309.8942"/>
<polygon fill="#191970" stroke="#191970" points="177.697,-327.5486 168.6526,-333.0667 179.1641,-334.3931 177.697,-327.5486"/>
</g>
<!-- Node599 -->
<g id="node13" class="node">
<title>Node599</title>
<g id="a_node13"><a xlink:href="init_8c.html#a25a40b6614565f755233080a384c35f1" target="_top" xlink:title="Runs user initialization code. ">
<polygon fill="none" stroke="#000000" points="293.2798,-143.828 293.2798,-161.828 344.8511,-161.828 344.8511,-143.828 293.2798,-143.828"/>
<text text-anchor="middle" x="319.0654" y="-149.828" font-family="Helvetica,sans-Serif" font-size="10.00" fill="#000000">initialize</text>
</a>
</g>
</g>
<!-- Node598&#45;&gt;Node599 -->
<g id="edge13" class="edge">
<title>Node598&#45;&gt;Node599</title>
<path fill="none" stroke="#191970" d="M194.344,-126.0959C226.2561,-132.9358 266.967,-141.6616 293.0315,-147.2481"/>
<polygon fill="#191970" stroke="#191970" points="194.8333,-122.6214 184.3218,-123.9479 193.3662,-129.4659 194.8333,-122.6214"/>
</g>
<!-- Node600&#45;&gt;Node599 -->
<g id="edge15" class="edge">
<title>Node600&#45;&gt;Node599</title>
<path fill="none" stroke="#191970" d="M184.3492,-181.7024C217.3219,-174.6352 264.2206,-164.5832 293.0929,-158.3948"/>
<polygon fill="#191970" stroke="#191970" points="183.218,-178.3653 174.1736,-183.8834 184.685,-185.2098 183.218,-178.3653"/>
</g>
<!-- Node601&#45;&gt;Node599 -->
<g id="edge17" class="edge">
<title>Node601&#45;&gt;Node599</title>
<path fill="none" stroke="#191970" d="M196.4188,-152.828C228.0079,-152.828 267.5392,-152.828 293.0418,-152.828"/>
<polygon fill="#191970" stroke="#191970" points="196.0422,-149.3281 186.0422,-152.828 196.0422,-156.3281 196.0422,-149.3281"/>
</g>
<!-- Node603 -->
<g id="node17" class="node">
<title>Node603</title>
<g id="a_node17"><a xlink:href="lcd_8c.html#ac7b3225ccc82fcbe067ba9da934f010d" target="_top" xlink:title="Returns the pressed buttons. ">
<polygon fill="none" stroke="#ff0000" points="255.1914,-365.828 255.1914,-383.828 382.9395,-383.828 382.9395,-365.828 255.1914,-365.828"/>
<text text-anchor="middle" x="319.0654" y="-371.828" font-family="Helvetica,sans-Serif" font-size="10.00" fill="#000000">lcd_get_pressed_buttons</text>
</a>
</g>
</g>
<!-- Node602&#45;&gt;Node603 -->
<g id="edge19" class="edge">
<title>Node602&#45;&gt;Node603</title>
<path fill="none" stroke="#191970" d="M187.3795,-374.828C207.5254,-374.828 232.2788,-374.828 254.8659,-374.828"/>
<polygon fill="#191970" stroke="#191970" points="187.3004,-371.3281 177.3003,-374.828 187.3003,-378.3281 187.3004,-371.3281"/>
</g>
<!-- Node603&#45;&gt;Node567 -->
<g id="edge20" class="edge">
<title>Node603&#45;&gt;Node567</title>
<path fill="none" stroke="#191970" d="M393.2241,-374.828C402.2745,-374.828 411.2226,-374.828 419.4534,-374.828"/>
<polygon fill="#191970" stroke="#191970" points="392.9953,-371.3281 382.9952,-374.828 392.9952,-378.3281 392.9953,-371.3281"/>
</g>
<!-- Node582&#45;&gt;Node562 -->
<g id="edge24" class="edge">
<title>Node582&#45;&gt;Node562</title>
<path fill="none" stroke="#191970" d="M192.186,-258.7928C218.1655,-255.9335 250.4913,-252.3756 276.012,-249.5667"/>
<polygon fill="#191970" stroke="#191970" points="191.7635,-255.3181 182.2065,-259.8912 192.5294,-262.2761 191.7635,-255.3181"/>
</g>
</g>
</svg>
