<?xml version="1.0" encoding="UTF-8" standalone="no"?>
<!DOCTYPE svg PUBLIC "-//W3C//DTD SVG 1.1//EN"
 "http://www.w3.org/Graphics/SVG/1.1/DTD/svg11.dtd">
<!-- Generated by graphviz version 2.40.1 (20161225.0304)
 -->
<!-- Title: imeGet Pages: 1 -->
<svg width="622pt" height="169pt"
 viewBox="0.00 0.00 621.68 169.00" xmlns="http://www.w3.org/2000/svg" xmlns:xlink="http://www.w3.org/1999/xlink">
<g id="graph0" class="graph" transform="scale(1 1) rotate(0) translate(4 165)">
<title>imeGet</title>
<!-- Node101 -->
<g id="node1" class="node">
<title>Node101</title>
<polygon fill="#bfbfbf" stroke="#000000" points="0,-75.5 0,-93.5 48.2314,-93.5 48.2314,-75.5 0,-75.5"/>
<text text-anchor="middle" x="24.1157" y="-81.5" font-family="Helvetica,sans-Serif" font-size="10.00" fill="#000000">imeGet</text>
</g>
<!-- Node102 -->
<g id="node2" class="node">
<title>Node102</title>
<g id="a_node2"><a xlink:href="auto_8c.html#a42084538c07a7089a1fe425c4f97650a" target="_top" xlink:title="Drives the robot forward until it reaches the mobile goal. ">
<polygon fill="none" stroke="#000000" points="397.8066,-132.5 397.8066,-160.5 506.6436,-160.5 506.6436,-132.5 397.8066,-132.5"/>
<text text-anchor="start" x="405.8066" y="-148.5" font-family="Helvetica,sans-Serif" font-size="10.00" fill="#000000">auton_drive_towards</text>
<text text-anchor="middle" x="452.2251" y="-138.5" font-family="Helvetica,sans-Serif" font-size="10.00" fill="#000000">_mobile_goal</text>
</a>
</g>
</g>
<!-- Node101&#45;&gt;Node102 -->
<g id="edge1" class="edge">
<title>Node101&#45;&gt;Node102</title>
<path fill="none" stroke="#191970" d="M45.3111,-99.0287C56.4045,-105.8643 70.5067,-113.3993 84.2314,-117.5 191.8415,-149.6517 324.5735,-151.3736 397.602,-149.261"/>
<polygon fill="#191970" stroke="#191970" points="47.0793,-96.0045 36.7746,-93.542 43.2945,-101.8932 47.0793,-96.0045"/>
</g>
<!-- Node103 -->
<g id="node3" class="node">
<title>Node103</title>
<g id="a_node3"><a xlink:href="auto_8c.html#a3c7ca506bbc071fa740de13805b7f376" target="_top" xlink:title="Runs the user autonomous code. ">
<polygon fill="none" stroke="#000000" points="542.6436,-75.5 542.6436,-93.5 613.6826,-93.5 613.6826,-75.5 542.6436,-75.5"/>
<text text-anchor="middle" x="578.1631" y="-81.5" font-family="Helvetica,sans-Serif" font-size="10.00" fill="#000000">autonomous</text>
</a>
</g>
</g>
<!-- Node101&#45;&gt;Node103 -->
<g id="edge3" class="edge">
<title>Node101&#45;&gt;Node103</title>
<path fill="none" stroke="#191970" d="M58.3154,-84.5C157.0827,-84.5 442.0923,-84.5 542.5781,-84.5"/>
<polygon fill="#191970" stroke="#191970" points="58.2787,-81.0001 48.2787,-84.5 58.2787,-88.0001 58.2787,-81.0001"/>
</g>
<!-- Node104 -->
<g id="node4" class="node">
<title>Node104</title>
<g id="a_node4"><a xlink:href="encoders_8c.html#aed261dd4dae33a48c42f2e363c84760f" target="_top" xlink:title="Gets the encoder ticks since last reset. ">
<polygon fill="none" stroke="#000000" points="84.2314,-56.5 84.2314,-74.5 181.3936,-74.5 181.3936,-56.5 84.2314,-56.5"/>
<text text-anchor="middle" x="132.8125" y="-62.5" font-family="Helvetica,sans-Serif" font-size="10.00" fill="#000000">get_encoder_ticks</text>
</a>
</g>
</g>
<!-- Node101&#45;&gt;Node104 -->
<g id="edge4" class="edge">
<title>Node101&#45;&gt;Node104</title>
<path fill="none" stroke="#191970" d="M58.1141,-78.5571C66.2649,-77.1324 75.1295,-75.5829 83.8103,-74.0655"/>
<polygon fill="#191970" stroke="#191970" points="57.487,-75.1136 48.2391,-80.2833 58.6924,-82.0091 57.487,-75.1136"/>
</g>
<!-- Node108 -->
<g id="node8" class="node">
<title>Node108</title>
<g id="a_node8"><a xlink:href="auto_8c.html#ac033c02ada6071c5f064cac73bead0fd" target="_top" xlink:title="sets up the IMEs for the autonomous portion. ">
<polygon fill="none" stroke="#000000" points="86.4507,-.5 86.4507,-18.5 179.1743,-18.5 179.1743,-.5 86.4507,-.5"/>
<text text-anchor="middle" x="132.8125" y="-6.5" font-family="Helvetica,sans-Serif" font-size="10.00" fill="#000000">setup_ime_auton</text>
</a>
</g>
</g>
<!-- Node101&#45;&gt;Node108 -->
<g id="edge9" class="edge">
<title>Node101&#45;&gt;Node108</title>
<path fill="none" stroke="#191970" d="M45.8518,-69.5022C67.9313,-54.2676 101.4058,-31.1704 119.7146,-18.5374"/>
<polygon fill="#191970" stroke="#191970" points="43.6872,-66.7435 37.4441,-75.3035 47.6627,-72.5051 43.6872,-66.7435"/>
</g>
<!-- Node102&#45;&gt;Node103 -->
<g id="edge2" class="edge">
<title>Node102&#45;&gt;Node103</title>
<path fill="none" stroke="#191970" d="M489.9984,-127.904C513.0921,-116.5348 541.6001,-102.5002 559.8317,-93.5247"/>
<polygon fill="#191970" stroke="#191970" points="488.2282,-124.8743 480.8024,-132.4312 491.32,-131.1545 488.2282,-124.8743"/>
</g>
<!-- Node105 -->
<g id="node5" class="node">
<title>Node105</title>
<g id="a_node5"><a xlink:href="localization_8c.html#a5dd17937f5561711cd12cdefa8d31869" target="_top" xlink:title="calculates the current angle using the IMEs ">
<polygon fill="none" stroke="#000000" points="226.002,-56.5 226.002,-74.5 353.1982,-74.5 353.1982,-56.5 226.002,-56.5"/>
<text text-anchor="middle" x="289.6001" y="-62.5" font-family="Helvetica,sans-Serif" font-size="10.00" fill="#000000">calculate_encoder_angle</text>
</a>
</g>
</g>
<!-- Node104&#45;&gt;Node105 -->
<g id="edge5" class="edge">
<title>Node104&#45;&gt;Node105</title>
<path fill="none" stroke="#191970" d="M191.638,-65.5C202.8145,-65.5 214.5579,-65.5 225.878,-65.5"/>
<polygon fill="#191970" stroke="#191970" points="191.5617,-62.0001 181.5616,-65.5 191.5616,-69.0001 191.5617,-62.0001"/>
</g>
<!-- Node107 -->
<g id="node7" class="node">
<title>Node107</title>
<g id="a_node7"><a xlink:href="localization_8c.html#a1cb0c9fa1e6ff2079deb836569d75d87" target="_top" xlink:title="calculates the x y posistion of the robot based upon the IMEs ">
<polygon fill="none" stroke="#000000" points="217.3936,-19.5 217.3936,-37.5 361.8066,-37.5 361.8066,-19.5 217.3936,-19.5"/>
<text text-anchor="middle" x="289.6001" y="-25.5" font-family="Helvetica,sans-Serif" font-size="10.00" fill="#000000">calculate_encoder_odemetry</text>
</a>
</g>
</g>
<!-- Node104&#45;&gt;Node107 -->
<g id="edge8" class="edge">
<title>Node104&#45;&gt;Node107</title>
<path fill="none" stroke="#191970" d="M180.9199,-54.1472C203.5452,-48.8079 230.1478,-42.53 251.3701,-37.5218"/>
<polygon fill="#191970" stroke="#191970" points="180.0958,-50.7455 171.1671,-56.4488 181.7036,-57.5583 180.0958,-50.7455"/>
</g>
<!-- Node106 -->
<g id="node6" class="node">
<title>Node106</title>
<g id="a_node6"><a xlink:href="auto_8c.html#a8141105864165fcb16d70f7cc72a1b6f" target="_top" xlink:title="Rotates the robot 180 degrees clockwise. ">
<polygon fill="none" stroke="#000000" points="409.1934,-56.5 409.1934,-74.5 495.2568,-74.5 495.2568,-56.5 409.1934,-56.5"/>
<text text-anchor="middle" x="452.2251" y="-62.5" font-family="Helvetica,sans-Serif" font-size="10.00" fill="#000000">auton_turn_180</text>
</a>
</g>
</g>
<!-- Node105&#45;&gt;Node106 -->
<g id="edge6" class="edge">
<title>Node105&#45;&gt;Node106</title>
<path fill="none" stroke="#191970" d="M363.5815,-65.5C379.1809,-65.5 395.1431,-65.5 409.1465,-65.5"/>
<polygon fill="#191970" stroke="#191970" points="363.4071,-62.0001 353.407,-65.5 363.407,-69.0001 363.4071,-62.0001"/>
</g>
<!-- Node106&#45;&gt;Node103 -->
<g id="edge7" class="edge">
<title>Node106&#45;&gt;Node103</title>
<path fill="none" stroke="#191970" d="M505.7596,-73.5766C518.0841,-75.436 530.9019,-77.3698 542.2665,-79.0844"/>
<polygon fill="#191970" stroke="#191970" points="505.9761,-70.0698 495.5658,-72.0387 504.9318,-76.9914 505.9761,-70.0698"/>
</g>
<!-- Node108&#45;&gt;Node103 -->
<g id="edge10" class="edge">
<title>Node108&#45;&gt;Node103</title>
<path fill="none" stroke="#191970" d="M189.7042,-5.4722C236.1967,-3.1456 303.5223,-1.9814 361.8066,-9.5 427.8103,-18.0144 444.5247,-23.6204 506.6436,-47.5 526.8692,-55.2751 548.8214,-67.199 562.9948,-75.3974"/>
<polygon fill="#191970" stroke="#191970" points="189.3246,-1.9874 179.5259,-6.0167 189.6987,-8.9774 189.3246,-1.9874"/>
</g>
</g>
</svg>
