<?xml version="1.0" encoding="UTF-8" standalone="no"?>
<!DOCTYPE svg PUBLIC "-//W3C//DTD SVG 1.1//EN"
 "http://www.w3.org/Graphics/SVG/1.1/DTD/svg11.dtd">
<!-- Generated by graphviz version 2.40.1 (20161225.0304)
 -->
<!-- Title: display_menu Pages: 1 -->
<svg width="348pt" height="175pt"
 viewBox="0.00 0.00 348.12 175.00" xmlns="http://www.w3.org/2000/svg" xmlns:xlink="http://www.w3.org/1999/xlink">
<g id="graph0" class="graph" transform="scale(1 1) rotate(0) translate(4 171)">
<title>display_menu</title>
<!-- Node2 -->
<g id="node1" class="node">
<title>Node2</title>
<polygon fill="#bfbfbf" stroke="#000000" points="0,-55.5 0,-73.5 77.7041,-73.5 77.7041,-55.5 0,-55.5"/>
<text text-anchor="middle" x="38.8521" y="-61.5" font-family="Helvetica,sans-Serif" font-size="10.00" fill="#000000">display_menu</text>
</g>
<!-- Node3 -->
<g id="node2" class="node">
<title>Node3</title>
<g id="a_node2"><a xlink:href="a00128.html#a0fb55c1213b23963d509b974d1254567" target="_top" xlink:title="Static function that calculates the string from menu. ">
<polygon fill="none" stroke="#000000" points="113.7041,-111.5 113.7041,-129.5 242.5459,-129.5 242.5459,-111.5 113.7041,-111.5"/>
<text text-anchor="middle" x="178.125" y="-117.5" font-family="Helvetica,sans-Serif" font-size="10.00" fill="#000000">calculate_current_display</text>
</a>
</g>
</g>
<!-- Node2&#45;&gt;Node3 -->
<g id="edge1" class="edge">
<title>Node2&#45;&gt;Node3</title>
<path fill="none" stroke="#191970" d="M54.4947,-73.5908C69.356,-81.9478 92.5166,-94.255 113.7041,-102.5 119.2504,-104.6583 125.1579,-106.6739 131.0596,-108.5173"/>
<polygon fill="#191970" stroke="#191970" points="130.3388,-111.9544 140.9217,-111.452 132.3354,-105.2452 130.3388,-111.9544"/>
</g>
<!-- Node9 -->
<g id="node6" class="node">
<title>Node9</title>
<g id="a_node6"><a xlink:href="a00023.html#a35c08b1fa742e650f4873939707b893b" target="_top" xlink:title="Clears the lcd. ">
<polygon fill="none" stroke="#000000" points="150.1152,-74.5 150.1152,-92.5 206.1348,-92.5 206.1348,-74.5 150.1152,-74.5"/>
<text text-anchor="middle" x="178.125" y="-80.5" font-family="Helvetica,sans-Serif" font-size="10.00" fill="#000000">lcd_clear</text>
</a>
</g>
</g>
<!-- Node2&#45;&gt;Node9 -->
<g id="edge5" class="edge">
<title>Node2&#45;&gt;Node9</title>
<path fill="none" stroke="#191970" d="M78.018,-69.8431C97.3865,-72.4854 120.6725,-75.6622 139.9102,-78.2866"/>
<polygon fill="#191970" stroke="#191970" points="139.4627,-81.7579 149.844,-79.6418 140.4089,-74.8222 139.4627,-81.7579"/>
</g>
<!-- Node11 -->
<g id="node8" class="node">
<title>Node11</title>
<g id="a_node8"><a xlink:href="a00023.html#ac7b3225ccc82fcbe067ba9da934f010d" target="_top" xlink:title="Returns the pressed buttons. ">
<polygon fill="none" stroke="#000000" points="114.251,-37.5 114.251,-55.5 241.999,-55.5 241.999,-37.5 114.251,-37.5"/>
<text text-anchor="middle" x="178.125" y="-43.5" font-family="Helvetica,sans-Serif" font-size="10.00" fill="#000000">lcd_get_pressed_buttons</text>
</a>
</g>
</g>
<!-- Node2&#45;&gt;Node11 -->
<g id="edge7" class="edge">
<title>Node2&#45;&gt;Node11</title>
<path fill="none" stroke="#191970" d="M78.018,-59.4381C86.2018,-58.3804 95.0851,-57.2323 104.0669,-56.0715"/>
<polygon fill="#191970" stroke="#191970" points="104.7486,-59.5126 114.2174,-54.7596 103.8513,-52.5703 104.7486,-59.5126"/>
</g>
<!-- Node12 -->
<g id="node9" class="node">
<title>Node12</title>
<g id="a_node9"><a xlink:href="a00023.html#adabd3f7cdda45119604b488caf22bba8" target="_top" xlink:title="prints a string to a line on the lcd ">
<polygon fill="none" stroke="#000000" points="151.2261,-.5 151.2261,-18.5 205.0239,-18.5 205.0239,-.5 151.2261,-.5"/>
<text text-anchor="middle" x="178.125" y="-6.5" font-family="Helvetica,sans-Serif" font-size="10.00" fill="#000000">lcd_print</text>
</a>
</g>
</g>
<!-- Node2&#45;&gt;Node12 -->
<g id="edge9" class="edge">
<title>Node2&#45;&gt;Node12</title>
<path fill="none" stroke="#191970" d="M55.748,-55.4027C70.6965,-47.5906 93.2496,-36.3759 113.7041,-28.5 122.5744,-25.0845 132.3274,-21.9178 141.5017,-19.1876"/>
<polygon fill="#191970" stroke="#191970" points="142.52,-22.5366 151.1605,-16.4053 140.5824,-15.8101 142.52,-22.5366"/>
</g>
<!-- Node4 -->
<g id="node3" class="node">
<title>Node4</title>
<g id="a_node3"><a xlink:href="a00074.html#abd8bbcfabb3ddef2ccaafb9928a37b95" target="_top" xlink:title="the min of two values ">
<polygon fill="none" stroke="#000000" points="293.2773,-148.5 293.2773,-166.5 325.3906,-166.5 325.3906,-148.5 293.2773,-148.5"/>
<text text-anchor="middle" x="309.334" y="-154.5" font-family="Helvetica,sans-Serif" font-size="10.00" fill="#000000">min</text>
</a>
</g>
</g>
<!-- Node3&#45;&gt;Node4 -->
<g id="edge2" class="edge">
<title>Node3&#45;&gt;Node4</title>
<path fill="none" stroke="#191970" d="M210.2223,-129.5512C232.6786,-135.8837 262.2947,-144.2352 283.2871,-150.155"/>
<polygon fill="#191970" stroke="#191970" points="282.538,-153.5801 293.1126,-152.9257 284.4379,-146.8429 282.538,-153.5801"/>
</g>
<!-- Node5 -->
<g id="node4" class="node">
<title>Node5</title>
<g id="a_node4"><a xlink:href="a00074.html#af082905f7eac6d03e92015146bbc1925" target="_top" xlink:title="the min of two values ">
<polygon fill="none" stroke="#000000" points="291.8882,-111.5 291.8882,-129.5 326.7798,-129.5 326.7798,-111.5 291.8882,-111.5"/>
<text text-anchor="middle" x="309.334" y="-117.5" font-family="Helvetica,sans-Serif" font-size="10.00" fill="#000000">max</text>
</a>
</g>
</g>
<!-- Node3&#45;&gt;Node5 -->
<g id="edge3" class="edge">
<title>Node3&#45;&gt;Node5</title>
<path fill="none" stroke="#191970" d="M242.5763,-120.5C256.328,-120.5 270.1471,-120.5 281.616,-120.5"/>
<polygon fill="#191970" stroke="#191970" points="281.813,-124.0001 291.8129,-120.5 281.8129,-117.0001 281.813,-124.0001"/>
</g>
<!-- Node6 -->
<g id="node5" class="node">
<title>Node6</title>
<g id="a_node5"><a xlink:href="a00071.html#a4d26b0ac2f26341d827e0a13a0bd49b6" target="_top" xlink:title="converts a float to string. ">
<polygon fill="none" stroke="#ff0000" points="290.2134,-74.5 290.2134,-92.5 328.4546,-92.5 328.4546,-74.5 290.2134,-74.5"/>
<text text-anchor="middle" x="309.334" y="-80.5" font-family="Helvetica,sans-Serif" font-size="10.00" fill="#000000">ftoaa</text>
</a>
</g>
</g>
<!-- Node3&#45;&gt;Node6 -->
<g id="edge4" class="edge">
<title>Node3&#45;&gt;Node6</title>
<path fill="none" stroke="#191970" d="M210.5755,-111.465C220.8074,-108.6075 232.1515,-105.4307 242.5459,-102.5 254.9301,-99.0083 268.5975,-95.1254 280.3253,-91.7845"/>
<polygon fill="#191970" stroke="#191970" points="281.3941,-95.1193 290.0512,-89.0115 279.4748,-88.3876 281.3941,-95.1193"/>
</g>
<!-- Node10 -->
<g id="node7" class="node">
<title>Node10</title>
<g id="a_node7"><a xlink:href="a00104.html#aa03fd2deaeec8fc3f42a0975d587bad8" target="_top" xlink:title="Asserts the lcd is initialized Works by checking is the File *lcd_port is the default NULL value and ...">
<polygon fill="none" stroke="#000000" points="278.5459,-37.5 278.5459,-55.5 340.1221,-55.5 340.1221,-37.5 278.5459,-37.5"/>
<text text-anchor="middle" x="309.334" y="-43.5" font-family="Helvetica,sans-Serif" font-size="10.00" fill="#000000">lcd_assert</text>
</a>
</g>
</g>
<!-- Node9&#45;&gt;Node10 -->
<g id="edge6" class="edge">
<title>Node9&#45;&gt;Node10</title>
<path fill="none" stroke="#191970" d="M206.3555,-75.643C217.6174,-72.5005 230.6985,-68.8403 242.5459,-65.5 250.9689,-63.1252 259.9854,-60.5694 268.5815,-58.1262"/>
<polygon fill="#191970" stroke="#191970" points="269.7582,-61.4304 278.4187,-55.3275 267.8427,-54.6976 269.7582,-61.4304"/>
</g>
<!-- Node11&#45;&gt;Node10 -->
<g id="edge8" class="edge">
<title>Node11&#45;&gt;Node10</title>
<path fill="none" stroke="#191970" d="M242.192,-46.5C251.0655,-46.5 259.9765,-46.5 268.2753,-46.5"/>
<polygon fill="#191970" stroke="#191970" points="268.4107,-50.0001 278.4106,-46.5 268.4106,-43.0001 268.4107,-50.0001"/>
</g>
<!-- Node12&#45;&gt;Node10 -->
<g id="edge10" class="edge">
<title>Node12&#45;&gt;Node10</title>
<path fill="none" stroke="#191970" d="M205.3116,-17.1664C223.6315,-22.3325 248.1226,-29.2388 268.7386,-35.0524"/>
<polygon fill="#191970" stroke="#191970" points="267.9294,-38.4606 278.504,-37.8062 269.8293,-31.7234 267.9294,-38.4606"/>
</g>
</g>
</svg>
