<?xml version="1.0" encoding="UTF-8" standalone="no"?>
<!DOCTYPE svg PUBLIC "-//W3C//DTD SVG 1.1//EN"
 "http://www.w3.org/Graphics/SVG/1.1/DTD/svg11.dtd">
<!-- Generated by graphviz version 2.40.1 (20161225.0304)
 -->
<!-- Title: operatorControl Pages: 1 -->
<svg width="346pt" height="249pt"
 viewBox="0.00 0.00 345.91 249.00" xmlns="http://www.w3.org/2000/svg" xmlns:xlink="http://www.w3.org/1999/xlink">
<g id="graph0" class="graph" transform="scale(1 1) rotate(0) translate(4 245)">
<title>operatorControl</title>
<!-- Node37 -->
<g id="node1" class="node">
<title>Node37</title>
<polygon fill="#bfbfbf" stroke="#000000" points="0,-111.5 0,-129.5 85.4824,-129.5 85.4824,-111.5 0,-111.5"/>
<text text-anchor="middle" x="42.7412" y="-117.5" font-family="Helvetica,sans-Serif" font-size="10.00" fill="#000000">operatorControl</text>
</g>
<!-- Node38 -->
<g id="node2" class="node">
<title>Node38</title>
<g id="a_node2"><a xlink:href="a00068.html#a2b3d226371575c894979ab84bce95626" target="_top" xlink:title="Initializes the buttons. ">
<polygon fill="none" stroke="#000000" points="147.8838,-222.5 147.8838,-240.5 205.0264,-240.5 205.0264,-222.5 147.8838,-222.5"/>
<text text-anchor="middle" x="176.4551" y="-228.5" font-family="Helvetica,sans-Serif" font-size="10.00" fill="#000000">buttonInit</text>
</a>
</g>
</g>
<!-- Node37&#45;&gt;Node38 -->
<g id="edge1" class="edge">
<title>Node37&#45;&gt;Node38</title>
<path fill="none" stroke="#191970" d="M48.0207,-129.6162C59.2002,-148.1335 87.0811,-190.35 121.4824,-213.5 126.4996,-216.8763 132.1982,-219.6601 137.9801,-221.9435"/>
<polygon fill="#191970" stroke="#191970" points="137.0886,-225.3393 147.6834,-225.3299 139.3952,-218.7303 137.0886,-225.3393"/>
</g>
<!-- Node39 -->
<g id="node3" class="node">
<title>Node39</title>
<g id="a_node3"><a xlink:href="a00059.html#ab873e24fcc59a2bf7844618b664a5d26" target="_top" xlink:title="init_routine">
<polygon fill="none" stroke="#000000" points="143.9946,-185.5 143.9946,-203.5 208.9155,-203.5 208.9155,-185.5 143.9946,-185.5"/>
<text text-anchor="middle" x="176.4551" y="-191.5" font-family="Helvetica,sans-Serif" font-size="10.00" fill="#000000">init_routine</text>
</a>
</g>
</g>
<!-- Node37&#45;&gt;Node39 -->
<g id="edge2" class="edge">
<title>Node37&#45;&gt;Node39</title>
<path fill="none" stroke="#191970" d="M53.2817,-129.5917C67.7909,-141.7186 95.124,-163.1997 121.4824,-176.5 125.5254,-178.5401 129.8497,-180.4199 134.2309,-182.1327"/>
<polygon fill="#191970" stroke="#191970" points="133.2313,-185.4932 143.8255,-185.6128 135.6182,-178.9127 133.2313,-185.4932"/>
</g>
<!-- Node48 -->
<g id="node6" class="node">
<title>Node48</title>
<g id="a_node6"><a xlink:href="a00065.html#a321758941d88b75783955c819bb75005" target="_top" xlink:title="Initializes the slew rate controller. ">
<polygon fill="none" stroke="#ff0000" points="149.2803,-148.5 149.2803,-166.5 203.6299,-166.5 203.6299,-148.5 149.2803,-148.5"/>
<text text-anchor="middle" x="176.4551" y="-154.5" font-family="Helvetica,sans-Serif" font-size="10.00" fill="#000000">init_slew</text>
</a>
</g>
</g>
<!-- Node37&#45;&gt;Node48 -->
<g id="edge5" class="edge">
<title>Node37&#45;&gt;Node48</title>
<path fill="none" stroke="#191970" d="M75.4513,-129.5512C94.7646,-134.8954 119.2746,-141.6776 139.3134,-147.2225"/>
<polygon fill="#191970" stroke="#191970" points="138.4693,-150.6204 149.0406,-149.9141 140.3362,-143.8739 138.4693,-150.6204"/>
</g>
<!-- Node52 -->
<g id="node7" class="node">
<title>Node52</title>
<g id="a_node7"><a xlink:href="a00008.html#a0122b78972344264b8a276a559cfce4a" target="_top" xlink:title="Updates the claw motor values. ">
<polygon fill="none" stroke="#ff0000" points="140.3789,-111.5 140.3789,-129.5 212.5313,-129.5 212.5313,-111.5 140.3789,-111.5"/>
<text text-anchor="middle" x="176.4551" y="-117.5" font-family="Helvetica,sans-Serif" font-size="10.00" fill="#000000">update_claw</text>
</a>
</g>
</g>
<!-- Node37&#45;&gt;Node52 -->
<g id="edge6" class="edge">
<title>Node37&#45;&gt;Node52</title>
<path fill="none" stroke="#191970" d="M85.7851,-120.5C99.915,-120.5 115.6772,-120.5 130.0453,-120.5"/>
<polygon fill="#191970" stroke="#191970" points="130.2179,-124.0001 140.2178,-120.5 130.2178,-117.0001 130.2179,-124.0001"/>
</g>
<!-- Node57 -->
<g id="node8" class="node">
<title>Node57</title>
<g id="a_node8"><a xlink:href="a00014.html#a8224a4626a934d30ed587671b7004bf8" target="_top" xlink:title="Updates the drive motors during teleop. ">
<polygon fill="none" stroke="#ff0000" points="121.4824,-74.5 121.4824,-92.5 231.4277,-92.5 231.4277,-74.5 121.4824,-74.5"/>
<text text-anchor="middle" x="176.4551" y="-80.5" font-family="Helvetica,sans-Serif" font-size="10.00" fill="#000000">update_drive_motors</text>
</a>
</g>
</g>
<!-- Node37&#45;&gt;Node57 -->
<g id="edge7" class="edge">
<title>Node37&#45;&gt;Node57</title>
<path fill="none" stroke="#191970" d="M75.4513,-111.4488C93.0153,-106.5886 114.8774,-100.5392 133.7656,-95.3126"/>
<polygon fill="#191970" stroke="#191970" points="134.9149,-98.6262 143.6192,-92.586 133.048,-91.8797 134.9149,-98.6262"/>
</g>
<!-- Node61 -->
<g id="node9" class="node">
<title>Node61</title>
<g id="a_node9"><a xlink:href="a00047.html#a5d7bad8a208988af743fd2e68f111286" target="_top" xlink:title="updates the mobile goal intake in teleop. ">
<polygon fill="none" stroke="#ff0000" points="137.0391,-37.5 137.0391,-55.5 215.8711,-55.5 215.8711,-37.5 137.0391,-37.5"/>
<text text-anchor="middle" x="176.4551" y="-43.5" font-family="Helvetica,sans-Serif" font-size="10.00" fill="#000000">update_intake</text>
</a>
</g>
</g>
<!-- Node37&#45;&gt;Node61 -->
<g id="edge8" class="edge">
<title>Node37&#45;&gt;Node61</title>
<path fill="none" stroke="#191970" d="M53.5928,-111.4447C68.2331,-99.5851 95.4818,-78.7481 121.4824,-65.5 126.033,-63.1813 130.9313,-61.0372 135.8623,-59.0892"/>
<polygon fill="#191970" stroke="#191970" points="137.1419,-62.3476 145.3022,-55.5903 134.7091,-55.784 137.1419,-62.3476"/>
</g>
<!-- Node65 -->
<g id="node10" class="node">
<title>Node65</title>
<g id="a_node10"><a xlink:href="a00026.html#a59bb7413777ca16aba124aaedf95c79b" target="_top" xlink:title="Updates the lifter in teleop. ">
<polygon fill="none" stroke="#ff0000" points="140.9355,-.5 140.9355,-18.5 211.9746,-18.5 211.9746,-.5 140.9355,-.5"/>
<text text-anchor="middle" x="176.4551" y="-6.5" font-family="Helvetica,sans-Serif" font-size="10.00" fill="#000000">update_lifter</text>
</a>
</g>
</g>
<!-- Node37&#45;&gt;Node65 -->
<g id="edge9" class="edge">
<title>Node37&#45;&gt;Node65</title>
<path fill="none" stroke="#191970" d="M48.2511,-111.2491C59.647,-92.8764 87.597,-51.5748 121.4824,-28.5 124.7232,-26.2932 128.2455,-24.3187 131.8894,-22.5568"/>
<polygon fill="#191970" stroke="#191970" points="133.2955,-25.7621 141.1065,-18.6041 130.5365,-19.3288 133.2955,-25.7621"/>
</g>
<!-- Node40 -->
<g id="node4" class="node">
<title>Node40</title>
<g id="a_node4"><a xlink:href="a00029.html#a9dd3eafdb56dcc64689f78fb4acdff3f" target="_top" xlink:title="list_new">
<polygon fill="none" stroke="#000000" points="276.6025,-203.5 276.6025,-221.5 328.7305,-221.5 328.7305,-203.5 276.6025,-203.5"/>
<text text-anchor="middle" x="302.6665" y="-209.5" font-family="Helvetica,sans-Serif" font-size="10.00" fill="#000000">list_new</text>
</a>
</g>
</g>
<!-- Node39&#45;&gt;Node40 -->
<g id="edge3" class="edge">
<title>Node39&#45;&gt;Node40</title>
<path fill="none" stroke="#191970" d="M208.9577,-199.1354C226.5011,-201.6375 248.208,-204.7332 266.311,-207.3151"/>
<polygon fill="#191970" stroke="#191970" points="265.8264,-210.7813 276.2205,-208.7283 266.8148,-203.8514 265.8264,-210.7813"/>
</g>
<!-- Node41 -->
<g id="node5" class="node">
<title>Node41</title>
<g id="a_node5"><a xlink:href="a00140.html#a230cdcefb410a429fb6baba1f88fc9ba" target="_top" xlink:title="routine_task">
<polygon fill="none" stroke="#ff0000" points="267.4277,-166.5 267.4277,-184.5 337.9053,-184.5 337.9053,-166.5 267.4277,-166.5"/>
<text text-anchor="middle" x="302.6665" y="-172.5" font-family="Helvetica,sans-Serif" font-size="10.00" fill="#000000">routine_task</text>
</a>
</g>
</g>
<!-- Node39&#45;&gt;Node41 -->
<g id="edge4" class="edge">
<title>Node39&#45;&gt;Node41</title>
<path fill="none" stroke="#191970" d="M208.9577,-189.607C223.5767,-187.4063 241.0869,-184.7703 256.9936,-182.3757"/>
<polygon fill="#191970" stroke="#191970" points="257.8009,-185.7936 267.1685,-180.8439 256.7588,-178.8716 257.8009,-185.7936"/>
</g>
</g>
</svg>
