<?xml version="1.0" encoding="UTF-8" standalone="no"?>
<!DOCTYPE svg PUBLIC "-//W3C//DTD SVG 1.1//EN"
 "http://www.w3.org/Graphics/SVG/1.1/DTD/svg11.dtd">
<!-- Generated by graphviz version 2.40.1 (20161225.0304)
 -->
<!-- Title: include/encoders.h Pages: 1 -->
<svg width="373pt" height="137pt"
 viewBox="0.00 0.00 373.47 137.00" xmlns="http://www.w3.org/2000/svg" xmlns:xlink="http://www.w3.org/1999/xlink">
<g id="graph0" class="graph" transform="scale(1 1) rotate(0) translate(4 133)">
<title>include/encoders.h</title>
<!-- Node2 -->
<g id="node1" class="node">
<title>Node2</title>
<polygon fill="#bfbfbf" stroke="#000000" points="204.1626,-110.5 204.1626,-128.5 304.1079,-128.5 304.1079,-110.5 204.1626,-110.5"/>
<text text-anchor="middle" x="254.1353" y="-116.5" font-family="Helvetica,sans-Serif" font-size="10.00" fill="#000000">include/encoders.h</text>
</g>
<!-- Node3 -->
<g id="node2" class="node">
<title>Node3</title>
<g id="a_node2"><a xlink:href="a00032.html" target="_top" xlink:title="Declarations and macros for determining the location of the robot. [WIP]. ">
<polygon fill="none" stroke="#000000" points="86.9951,-55.5 86.9951,-73.5 195.2754,-73.5 195.2754,-55.5 86.9951,-55.5"/>
<text text-anchor="middle" x="141.1353" y="-61.5" font-family="Helvetica,sans-Serif" font-size="10.00" fill="#000000">include/localization.h</text>
</a>
</g>
</g>
<!-- Node2&#45;&gt;Node3 -->
<g id="edge1" class="edge">
<title>Node2&#45;&gt;Node3</title>
<path fill="none" stroke="#191970" d="M226.2342,-105.9198C205.5448,-95.8498 177.907,-82.3977 159.8226,-73.5956"/>
<polygon fill="#191970" stroke="#191970" points="224.9523,-109.1884 235.4756,-110.4179 228.0158,-102.8944 224.9523,-109.1884"/>
</g>
<!-- Node8 -->
<g id="node6" class="node">
<title>Node8</title>
<g id="a_node6"><a xlink:href="a00095.html" target="_top" xlink:title="src/encoders.c">
<polygon fill="none" stroke="#000000" points="213.623,-55.5 213.623,-73.5 294.6475,-73.5 294.6475,-55.5 213.623,-55.5"/>
<text text-anchor="middle" x="254.1353" y="-61.5" font-family="Helvetica,sans-Serif" font-size="10.00" fill="#000000">src/encoders.c</text>
</a>
</g>
</g>
<!-- Node2&#45;&gt;Node8 -->
<g id="edge5" class="edge">
<title>Node2&#45;&gt;Node8</title>
<path fill="none" stroke="#191970" d="M254.1353,-100.383C254.1353,-91.3738 254.1353,-81.0373 254.1353,-73.7795"/>
<polygon fill="#191970" stroke="#191970" points="250.6354,-100.4178 254.1353,-110.4179 257.6354,-100.4179 250.6354,-100.4178"/>
</g>
<!-- Node9 -->
<g id="node7" class="node">
<title>Node9</title>
<g id="a_node7"><a xlink:href="a00101.html" target="_top" xlink:title="File for initialization code. ">
<polygon fill="none" stroke="#000000" points="312.8003,-55.5 312.8003,-73.5 365.4702,-73.5 365.4702,-55.5 312.8003,-55.5"/>
<text text-anchor="middle" x="339.1353" y="-61.5" font-family="Helvetica,sans-Serif" font-size="10.00" fill="#000000">src/init.c</text>
</a>
</g>
</g>
<!-- Node2&#45;&gt;Node9 -->
<g id="edge6" class="edge">
<title>Node2&#45;&gt;Node9</title>
<path fill="none" stroke="#191970" d="M276.6169,-104.953C291.9953,-95.0023 311.906,-82.1189 325.0784,-73.5956"/>
<polygon fill="#191970" stroke="#191970" points="274.6656,-102.0468 268.1713,-110.4179 278.4684,-107.9238 274.6656,-102.0468"/>
</g>
<!-- Node4 -->
<g id="node3" class="node">
<title>Node4</title>
<g id="a_node3"><a xlink:href="a00002.html" target="_top" xlink:title="Autonomous declarations and macros. ">
<polygon fill="none" stroke="#ff0000" points="0,-.5 0,-18.5 78.2705,-18.5 78.2705,-.5 0,-.5"/>
<text text-anchor="middle" x="39.1353" y="-6.5" font-family="Helvetica,sans-Serif" font-size="10.00" fill="#000000">include/auto.h</text>
</a>
</g>
</g>
<!-- Node3&#45;&gt;Node4 -->
<g id="edge2" class="edge">
<title>Node3&#45;&gt;Node4</title>
<path fill="none" stroke="#191970" d="M115.4417,-50.6456C96.824,-40.6067 72.1797,-27.3181 56.0035,-18.5956"/>
<polygon fill="#191970" stroke="#191970" points="113.8289,-53.7524 124.292,-55.4179 117.1512,-47.591 113.8289,-53.7524"/>
</g>
<!-- Node6 -->
<g id="node4" class="node">
<title>Node6</title>
<g id="a_node4"><a xlink:href="a00119.html" target="_top" xlink:title="src/localization.c">
<polygon fill="none" stroke="#000000" points="96.4556,-.5 96.4556,-18.5 185.8149,-18.5 185.8149,-.5 96.4556,-.5"/>
<text text-anchor="middle" x="141.1353" y="-6.5" font-family="Helvetica,sans-Serif" font-size="10.00" fill="#000000">src/localization.c</text>
</a>
</g>
</g>
<!-- Node3&#45;&gt;Node6 -->
<g id="edge3" class="edge">
<title>Node3&#45;&gt;Node6</title>
<path fill="none" stroke="#191970" d="M141.1353,-45.383C141.1353,-36.3738 141.1353,-26.0373 141.1353,-18.7795"/>
<polygon fill="#191970" stroke="#191970" points="137.6354,-45.4178 141.1353,-55.4179 144.6354,-45.4179 137.6354,-45.4178"/>
</g>
<!-- Node7 -->
<g id="node5" class="node">
<title>Node7</title>
<g id="a_node5"><a xlink:href="a00134.html" target="_top" xlink:title="File for operator control code. ">
<polygon fill="none" stroke="#000000" points="203.623,-.5 203.623,-18.5 284.6475,-18.5 284.6475,-.5 203.623,-.5"/>
<text text-anchor="middle" x="244.1353" y="-6.5" font-family="Helvetica,sans-Serif" font-size="10.00" fill="#000000">src/opcontrol.c</text>
</a>
</g>
</g>
<!-- Node3&#45;&gt;Node7 -->
<g id="edge4" class="edge">
<title>Node3&#45;&gt;Node7</title>
<path fill="none" stroke="#191970" d="M167.0807,-50.6456C185.8809,-40.6067 210.7668,-27.3181 227.1016,-18.5956"/>
<polygon fill="#191970" stroke="#191970" points="165.3161,-47.6201 158.1436,-55.4179 168.6134,-53.7949 165.3161,-47.6201"/>
</g>
</g>
</svg>
