<?xml version="1.0" encoding="UTF-8" standalone="no"?>
<!DOCTYPE svg PUBLIC "-//W3C//DTD SVG 1.1//EN"
 "http://www.w3.org/Graphics/SVG/1.1/DTD/svg11.dtd">
<!-- Generated by graphviz version 2.40.1 (20161225.0304)
 -->
<!-- Title: buttonGetState Pages: 1 -->
<svg width="331pt" height="27pt"
 viewBox="0.00 0.00 330.90 27.00" xmlns="http://www.w3.org/2000/svg" xmlns:xlink="http://www.w3.org/1999/xlink">
<g id="graph0" class="graph" transform="scale(1 1) rotate(0) translate(4 23)">
<title>buttonGetState</title>
<!-- Node1 -->
<g id="node1" class="node">
<title>Node1</title>
<polygon fill="#bfbfbf" stroke="#000000" points="0,-.5 0,-18.5 83.2705,-18.5 83.2705,-.5 0,-.5"/>
<text text-anchor="middle" x="41.6353" y="-6.5" font-family="Helvetica,sans-Serif" font-size="10.00" fill="#000000">buttonGetState</text>
</g>
<!-- Node2 -->
<g id="node2" class="node">
<title>Node2</title>
<g id="a_node2"><a xlink:href="a00146.html#a07c56bf50097f5bf35c5e8c9067800e1" target="_top" xlink:title="Detects if button is a new press from most recent check by comparing previous value to current value...">
<polygon fill="none" stroke="#000000" points="119.2705,-.5 119.2705,-18.5 216.418,-18.5 216.418,-.5 119.2705,-.5"/>
<text text-anchor="middle" x="167.8442" y="-6.5" font-family="Helvetica,sans-Serif" font-size="10.00" fill="#000000">buttonIsNewPress</text>
</a>
</g>
</g>
<!-- Node1&#45;&gt;Node2 -->
<g id="edge1" class="edge">
<title>Node1&#45;&gt;Node2</title>
<path fill="none" stroke="#191970" d="M93.4991,-9.5C102.0018,-9.5 110.7858,-9.5 119.2065,-9.5"/>
<polygon fill="#191970" stroke="#191970" points="93.3106,-6.0001 83.3106,-9.5 93.3105,-13.0001 93.3106,-6.0001"/>
</g>
<!-- Node3 -->
<g id="node3" class="node">
<title>Node3</title>
<g id="a_node3"><a xlink:href="a00140.html#a230cdcefb410a429fb6baba1f88fc9ba" target="_top" xlink:title="routine_task">
<polygon fill="none" stroke="#ff0000" points="252.418,-.5 252.418,-18.5 322.8955,-18.5 322.8955,-.5 252.418,-.5"/>
<text text-anchor="middle" x="287.6567" y="-6.5" font-family="Helvetica,sans-Serif" font-size="10.00" fill="#000000">routine_task</text>
</a>
</g>
</g>
<!-- Node2&#45;&gt;Node3 -->
<g id="edge2" class="edge">
<title>Node2&#45;&gt;Node3</title>
<path fill="none" stroke="#191970" d="M226.7359,-9.5C235.4388,-9.5 244.1703,-9.5 252.1953,-9.5"/>
<polygon fill="#191970" stroke="#191970" points="226.5766,-6.0001 216.5766,-9.5 226.5765,-13.0001 226.5766,-6.0001"/>
</g>
</g>
</svg>
