<?xml version="1.0" encoding="UTF-8" standalone="no"?>
<!DOCTYPE svg PUBLIC "-//W3C//DTD SVG 1.1//EN"
 "http://www.w3.org/Graphics/SVG/1.1/DTD/svg11.dtd">
<!-- Generated by graphviz version 2.40.1 (20161225.0304)
 -->
<!-- Title: set_intake_motor Pages: 1 -->
<svg width="339pt" height="64pt"
 viewBox="0.00 0.00 339.21 64.00" xmlns="http://www.w3.org/2000/svg" xmlns:xlink="http://www.w3.org/1999/xlink">
<g id="graph0" class="graph" transform="scale(1 1) rotate(0) translate(4 60)">
<title>set_intake_motor</title>
<!-- Node24 -->
<g id="node1" class="node">
<title>Node24</title>
<polygon fill="#bfbfbf" stroke="#000000" points="0,-18.5 0,-36.5 92.709,-36.5 92.709,-18.5 0,-18.5"/>
<text text-anchor="middle" x="46.3545" y="-24.5" font-family="Helvetica,sans-Serif" font-size="10.00" fill="#000000">set_intake_motor</text>
</g>
<!-- Node25 -->
<g id="node2" class="node">
<title>Node25</title>
<g id="a_node2"><a xlink:href="a00065.html#a9f8b8ae577ef938622024545711f0151" target="_top" xlink:title="Sets the motor speed ignoring the slew controller. ">
<polygon fill="none" stroke="#000000" points="128.709,-18.5 128.709,-36.5 240.8613,-36.5 240.8613,-18.5 128.709,-18.5"/>
<text text-anchor="middle" x="184.7852" y="-24.5" font-family="Helvetica,sans-Serif" font-size="10.00" fill="#000000">set_motor_immediate</text>
</a>
</g>
</g>
<!-- Node24&#45;&gt;Node25 -->
<g id="edge1" class="edge">
<title>Node24&#45;&gt;Node25</title>
<path fill="none" stroke="#191970" d="M92.835,-27.5C101.0774,-27.5 109.8037,-27.5 118.4693,-27.5"/>
<polygon fill="#191970" stroke="#191970" points="118.5815,-31.0001 128.5815,-27.5 118.5814,-24.0001 118.5815,-31.0001"/>
</g>
<!-- Node26 -->
<g id="node3" class="node">
<title>Node26</title>
<g id="a_node3"><a xlink:href="a00035.html#af3668f40d1ad1b4f3418869ac9a31f34" target="_top" xlink:title="prints a info message ">
<polygon fill="none" stroke="#000000" points="282.1323,-37.5 282.1323,-55.5 325.9399,-55.5 325.9399,-37.5 282.1323,-37.5"/>
<text text-anchor="middle" x="304.0361" y="-43.5" font-family="Helvetica,sans-Serif" font-size="10.00" fill="#000000">debug</text>
</a>
</g>
</g>
<!-- Node25&#45;&gt;Node26 -->
<g id="edge2" class="edge">
<title>Node25&#45;&gt;Node26</title>
<path fill="none" stroke="#191970" d="M240.9187,-36.4436C251.6548,-38.1542 262.5423,-39.8889 272.1826,-41.4248"/>
<polygon fill="#191970" stroke="#191970" points="271.6615,-44.8859 282.0877,-43.003 272.763,-37.9731 271.6615,-44.8859"/>
</g>
<!-- Node27 -->
<g id="node4" class="node">
<title>Node27</title>
<g id="a_node4"><a xlink:href="a00143.html#a321758941d88b75783955c819bb75005" target="_top" xlink:title="Initializes the slew rate controller. ">
<polygon fill="none" stroke="#ff0000" points="276.8613,-.5 276.8613,-18.5 331.2109,-18.5 331.2109,-.5 276.8613,-.5"/>
<text text-anchor="middle" x="304.0361" y="-6.5" font-family="Helvetica,sans-Serif" font-size="10.00" fill="#000000">init_slew</text>
</a>
</g>
</g>
<!-- Node25&#45;&gt;Node27 -->
<g id="edge3" class="edge">
<title>Node25&#45;&gt;Node27</title>
<path fill="none" stroke="#191970" d="M240.9187,-19.0271C249.6688,-17.7063 258.5195,-16.3704 266.7135,-15.1336"/>
<polygon fill="#191970" stroke="#191970" points="267.319,-18.5819 276.6846,-13.6285 266.2742,-11.6603 267.319,-18.5819"/>
</g>
</g>
</svg>
