<?xml version="1.0" encoding="UTF-8" standalone="no"?>
<!DOCTYPE svg PUBLIC "-//W3C//DTD SVG 1.1//EN"
 "http://www.w3.org/Graphics/SVG/1.1/DTD/svg11.dtd">
<!-- Generated by graphviz version 2.40.1 (20161225.0304)
 -->
<!-- Title: meanMatrix Pages: 1 -->
<svg width="259pt" height="46pt"
 viewBox="0.00 0.00 259.14 46.00" xmlns="http://www.w3.org/2000/svg" xmlns:xlink="http://www.w3.org/1999/xlink">
<g id="graph0" class="graph" transform="scale(1 1) rotate(0) translate(4 42)">
<title>meanMatrix</title>
<!-- Node53 -->
<g id="node1" class="node">
<title>Node53</title>
<polygon fill="#bfbfbf" stroke="#000000" points="0,-19.5 0,-37.5 68.2363,-37.5 68.2363,-19.5 0,-19.5"/>
<text text-anchor="middle" x="34.1182" y="-25.5" font-family="Helvetica,sans-Serif" font-size="10.00" fill="#000000">meanMatrix</text>
</g>
<!-- Node54 -->
<g id="node2" class="node">
<title>Node54</title>
<g id="a_node2"><a xlink:href="a00125.html#a8e41e30382335ea89f90b72db0b44d6f" target="_top" xlink:title="Asserts a condition is true. ">
<polygon fill="none" stroke="#000000" points="207.9111,-19.5 207.9111,-37.5 251.1426,-37.5 251.1426,-19.5 207.9111,-19.5"/>
<text text-anchor="middle" x="229.5269" y="-25.5" font-family="Helvetica,sans-Serif" font-size="10.00" fill="#000000">assert</text>
</a>
</g>
</g>
<!-- Node53&#45;&gt;Node54 -->
<g id="edge1" class="edge">
<title>Node53&#45;&gt;Node54</title>
<path fill="none" stroke="#191970" d="M68.6035,-28.5C105.0446,-28.5 162.0475,-28.5 197.5211,-28.5"/>
<polygon fill="#191970" stroke="#191970" points="197.7924,-32.0001 207.7924,-28.5 197.7924,-25.0001 197.7924,-32.0001"/>
</g>
<!-- Node55 -->
<g id="node3" class="node">
<title>Node55</title>
<g id="a_node3"><a xlink:href="a00125.html#aae8b56c6fb44d9147b835f4006ca872c" target="_top" xlink:title="Makes a matrix with a width and height parameters. ">
<polygon fill="none" stroke="#000000" points="104.2363,-.5 104.2363,-18.5 171.9111,-18.5 171.9111,-.5 104.2363,-.5"/>
<text text-anchor="middle" x="138.0737" y="-6.5" font-family="Helvetica,sans-Serif" font-size="10.00" fill="#000000">makeMatrix</text>
</a>
</g>
</g>
<!-- Node53&#45;&gt;Node55 -->
<g id="edge2" class="edge">
<title>Node53&#45;&gt;Node55</title>
<path fill="none" stroke="#191970" d="M68.4452,-22.226C76.6916,-20.7188 85.6106,-19.0887 94.2243,-17.5144"/>
<polygon fill="#191970" stroke="#191970" points="94.9293,-20.9436 104.1371,-15.7026 93.6707,-14.0577 94.9293,-20.9436"/>
</g>
<!-- Node55&#45;&gt;Node54 -->
<g id="edge3" class="edge">
<title>Node55&#45;&gt;Node54</title>
<path fill="none" stroke="#191970" d="M172.1275,-16.5749C180.4831,-18.3108 189.3959,-20.1625 197.645,-21.8763"/>
<polygon fill="#191970" stroke="#191970" points="197.1441,-25.3469 207.647,-23.9543 198.568,-18.4933 197.1441,-25.3469"/>
</g>
</g>
</svg>
