<?xml version="1.0" encoding="UTF-8" standalone="no"?>
<!DOCTYPE svg PUBLIC "-//W3C//DTD SVG 1.1//EN"
 "http://www.w3.org/Graphics/SVG/1.1/DTD/svg11.dtd">
<!-- Generated by graphviz version 2.40.1 (20161225.0304)
 -->
<!-- Title: routine_task Pages: 1 -->
<svg width="301pt" height="27pt"
 viewBox="0.00 0.00 300.88 27.00" xmlns="http://www.w3.org/2000/svg" xmlns:xlink="http://www.w3.org/1999/xlink">
<g id="graph0" class="graph" transform="scale(1 1) rotate(0) translate(4 23)">
<title>routine_task</title>
<!-- Node25 -->
<g id="node1" class="node">
<title>Node25</title>
<polygon fill="#bfbfbf" stroke="#000000" points="0,-.5 0,-18.5 70.4775,-18.5 70.4775,-.5 0,-.5"/>
<text text-anchor="middle" x="35.2388" y="-6.5" font-family="Helvetica,sans-Serif" font-size="10.00" fill="#000000">routine_task</text>
</g>
<!-- Node26 -->
<g id="node2" class="node">
<title>Node26</title>
<g id="a_node2"><a xlink:href="a00140.html#ab873e24fcc59a2bf7844618b664a5d26" target="_top" xlink:title="init_routine">
<polygon fill="none" stroke="#000000" points="106.4775,-.5 106.4775,-18.5 171.3984,-18.5 171.3984,-.5 106.4775,-.5"/>
<text text-anchor="middle" x="138.938" y="-6.5" font-family="Helvetica,sans-Serif" font-size="10.00" fill="#000000">init_routine</text>
</a>
</g>
</g>
<!-- Node25&#45;&gt;Node26 -->
<g id="edge1" class="edge">
<title>Node25&#45;&gt;Node26</title>
<path fill="none" stroke="#191970" d="M80.8478,-9.5C89.3638,-9.5 98.1077,-9.5 106.1425,-9.5"/>
<polygon fill="#191970" stroke="#191970" points="80.6362,-6.0001 70.6361,-9.5 80.6361,-13.0001 80.6362,-6.0001"/>
</g>
<!-- Node27 -->
<g id="node3" class="node">
<title>Node27</title>
<g id="a_node3"><a xlink:href="a00134.html#ac71a94af413917f27d108e95c4d6f6a7" target="_top" xlink:title="Runs the user operator control code. ">
<polygon fill="none" stroke="#000000" points="207.3984,-.5 207.3984,-18.5 292.8809,-18.5 292.8809,-.5 207.3984,-.5"/>
<text text-anchor="middle" x="250.1396" y="-6.5" font-family="Helvetica,sans-Serif" font-size="10.00" fill="#000000">operatorControl</text>
</a>
</g>
</g>
<!-- Node26&#45;&gt;Node27 -->
<g id="edge2" class="edge">
<title>Node26&#45;&gt;Node27</title>
<path fill="none" stroke="#191970" d="M181.6748,-9.5C190.0057,-9.5 198.7442,-9.5 207.0853,-9.5"/>
<polygon fill="#191970" stroke="#191970" points="181.4011,-6.0001 171.401,-9.5 181.401,-13.0001 181.4011,-6.0001"/>
</g>
</g>
</svg>
