<?xml version="1.0" encoding="UTF-8" standalone="no"?>
<!DOCTYPE svg PUBLIC "-//W3C//DTD SVG 1.1//EN"
 "http://www.w3.org/Graphics/SVG/1.1/DTD/svg11.dtd">
<!-- Generated by graphviz version 2.40.1 (20161225.0304)
 -->
<!-- Title: include/vmath.h Pages: 1 -->
<svg width="552pt" height="257pt"
 viewBox="0.00 0.00 551.69 257.00" xmlns="http://www.w3.org/2000/svg" xmlns:xlink="http://www.w3.org/1999/xlink">
<g id="graph0" class="graph" transform="scale(1 1) rotate(0) translate(4 253)">
<title>include/vmath.h</title>
<!-- Node2 -->
<g id="node1" class="node">
<title>Node2</title>
<polygon fill="#bfbfbf" stroke="#000000" points="298.1133,-230.5 298.1133,-248.5 384.1523,-248.5 384.1523,-230.5 298.1133,-230.5"/>
<text text-anchor="middle" x="341.1328" y="-236.5" font-family="Helvetica,sans-Serif" font-size="10.00" fill="#000000">include/vmath.h</text>
</g>
<!-- Node3 -->
<g id="node2" class="node">
<title>Node3</title>
<g id="a_node2"><a xlink:href="a00011.html" target="_top" xlink:title="controller definitions, macros and functions to assist with usig the vex controllers. ">
<polygon fill="none" stroke="#ff0000" points="154.4385,-175.5 154.4385,-193.5 253.8271,-193.5 253.8271,-175.5 154.4385,-175.5"/>
<text text-anchor="middle" x="204.1328" y="-181.5" font-family="Helvetica,sans-Serif" font-size="10.00" fill="#000000">include/controller.h</text>
</a>
</g>
</g>
<!-- Node2&#45;&gt;Node3 -->
<g id="edge1" class="edge">
<title>Node2&#45;&gt;Node3</title>
<path fill="none" stroke="#191970" d="M308.9952,-226.598C283.7444,-216.4609 249.2105,-202.5969 226.7892,-193.5956"/>
<polygon fill="#191970" stroke="#191970" points="307.926,-229.9403 318.51,-230.4179 310.5339,-223.4442 307.926,-229.9403"/>
</g>
<!-- Node8 -->
<g id="node4" class="node">
<title>Node8</title>
<g id="a_node4"><a xlink:href="a00134.html" target="_top" xlink:title="File for operator control code. ">
<polygon fill="none" stroke="#000000" points="148.6206,-.5 148.6206,-18.5 229.645,-18.5 229.645,-.5 148.6206,-.5"/>
<text text-anchor="middle" x="189.1328" y="-6.5" font-family="Helvetica,sans-Serif" font-size="10.00" fill="#000000">src/opcontrol.c</text>
</a>
</g>
</g>
<!-- Node2&#45;&gt;Node8 -->
<g id="edge13" class="edge">
<title>Node2&#45;&gt;Node8</title>
<path fill="none" stroke="#191970" d="M343.2613,-220.0918C346.1838,-183.1257 346.9893,-102.1113 305.1328,-55 285.8077,-33.2488 254.769,-21.7937 229.6595,-15.8199"/>
<polygon fill="#191970" stroke="#191970" points="339.7393,-220.1638 342.2895,-230.4471 346.7086,-220.818 339.7393,-220.1638"/>
</g>
<!-- Node14 -->
<g id="node8" class="node">
<title>Node14</title>
<g id="a_node8"><a xlink:href="a00092.html" target="_top" xlink:title="src/drive.c">
<polygon fill="none" stroke="#000000" points="251.3521,-120.5 251.3521,-138.5 312.9136,-138.5 312.9136,-120.5 251.3521,-120.5"/>
<text text-anchor="middle" x="282.1328" y="-126.5" font-family="Helvetica,sans-Serif" font-size="10.00" fill="#000000">src/drive.c</text>
</a>
</g>
</g>
<!-- Node2&#45;&gt;Node14 -->
<g id="edge11" class="edge">
<title>Node2&#45;&gt;Node14</title>
<path fill="none" stroke="#191970" d="M331.4672,-221.4793C318.719,-197.7115 296.7645,-156.7793 287.0277,-138.6261"/>
<polygon fill="#191970" stroke="#191970" points="328.4935,-223.3402 336.3046,-230.4982 334.6622,-220.0315 328.4935,-223.3402"/>
</g>
<!-- Node23 -->
<g id="node9" class="node">
<title>Node23</title>
<g id="a_node9"><a xlink:href="a00119.html" target="_top" xlink:title="src/localization.c">
<polygon fill="none" stroke="#000000" points="369.4531,-175.5 369.4531,-193.5 458.8125,-193.5 458.8125,-175.5 369.4531,-175.5"/>
<text text-anchor="middle" x="414.1328" y="-181.5" font-family="Helvetica,sans-Serif" font-size="10.00" fill="#000000">src/localization.c</text>
</a>
</g>
</g>
<!-- Node2&#45;&gt;Node23 -->
<g id="edge12" class="edge">
<title>Node2&#45;&gt;Node23</title>
<path fill="none" stroke="#191970" d="M361.5064,-224.15C374.4607,-214.3899 390.8071,-202.0742 401.8164,-193.7795"/>
<polygon fill="#191970" stroke="#191970" points="359.068,-221.6049 353.1873,-230.4179 363.2803,-227.1957 359.068,-221.6049"/>
</g>
<!-- Node24 -->
<g id="node10" class="node">
<title>Node24</title>
<g id="a_node10"><a xlink:href="a00152.html" target="_top" xlink:title="src/vmath.c">
<polygon fill="none" stroke="#000000" points="476.5737,-175.5 476.5737,-193.5 543.6919,-193.5 543.6919,-175.5 476.5737,-175.5"/>
<text text-anchor="middle" x="510.1328" y="-181.5" font-family="Helvetica,sans-Serif" font-size="10.00" fill="#000000">src/vmath.c</text>
</a>
</g>
</g>
<!-- Node2&#45;&gt;Node24 -->
<g id="edge14" class="edge">
<title>Node2&#45;&gt;Node24</title>
<path fill="none" stroke="#191970" d="M378.7572,-227.2554C410.1658,-217.0336 454.2146,-202.6983 482.4653,-193.5042"/>
<polygon fill="#191970" stroke="#191970" points="377.4657,-223.9949 369.0397,-230.4179 379.632,-230.6513 377.4657,-223.9949"/>
</g>
<!-- Node4 -->
<g id="node3" class="node">
<title>Node4</title>
<g id="a_node3"><a xlink:href="a00008.html" target="_top" xlink:title="Code for controlling the claw that grabs the cones. ">
<polygon fill="none" stroke="#ff0000" points="0,-60.5 0,-78.5 78.2656,-78.5 78.2656,-60.5 0,-60.5"/>
<text text-anchor="middle" x="39.1328" y="-66.5" font-family="Helvetica,sans-Serif" font-size="10.00" fill="#000000">include/claw.h</text>
</a>
</g>
</g>
<!-- Node3&#45;&gt;Node4 -->
<g id="edge2" class="edge">
<title>Node3&#45;&gt;Node4</title>
<path fill="none" stroke="#191970" d="M149.2051,-173.149C113.405,-164.699 71.0269,-152.3567 58.1328,-139 42.1473,-122.4409 39.3255,-93.7817 39.0028,-78.9708"/>
<polygon fill="#191970" stroke="#191970" points="148.5679,-176.5938 159.0982,-175.4267 150.1385,-169.7722 148.5679,-176.5938"/>
</g>
<!-- Node9 -->
<g id="node5" class="node">
<title>Node9</title>
<g id="a_node5"><a xlink:href="a00053.html" target="_top" xlink:title="include/partner.h">
<polygon fill="none" stroke="#ff0000" points="67.1602,-120.5 67.1602,-138.5 157.1055,-138.5 157.1055,-120.5 67.1602,-120.5"/>
<text text-anchor="middle" x="112.1328" y="-126.5" font-family="Helvetica,sans-Serif" font-size="10.00" fill="#000000">include/partner.h</text>
</a>
</g>
</g>
<!-- Node3&#45;&gt;Node9 -->
<g id="edge4" class="edge">
<title>Node3&#45;&gt;Node9</title>
<path fill="none" stroke="#191970" d="M180.2651,-170.2313C163.5583,-160.2435 141.7377,-147.1986 127.3473,-138.5956"/>
<polygon fill="#191970" stroke="#191970" points="178.5618,-173.2907 188.9409,-175.4179 182.1537,-167.2825 178.5618,-173.2907"/>
</g>
<!-- Node11 -->
<g id="node6" class="node">
<title>Node11</title>
<g id="a_node6"><a xlink:href="a00026.html" target="_top" xlink:title="Declarations and macros for controlling and manipulating the lifter. ">
<polygon fill="none" stroke="#ff0000" points="96.5566,-60.5 96.5566,-78.5 173.709,-78.5 173.709,-60.5 96.5566,-60.5"/>
<text text-anchor="middle" x="135.1328" y="-66.5" font-family="Helvetica,sans-Serif" font-size="10.00" fill="#000000">include/lifter.h</text>
</a>
</g>
</g>
<!-- Node3&#45;&gt;Node11 -->
<g id="edge7" class="edge">
<title>Node3&#45;&gt;Node11</title>
<path fill="none" stroke="#191970" d="M193.6139,-166.4458C186.0338,-153.4847 175.5275,-135.6205 166.1328,-120 157.4373,-105.542 147.1605,-88.8831 140.8971,-78.7768"/>
<polygon fill="#191970" stroke="#191970" points="190.7088,-168.4117 198.7733,-175.2831 196.754,-164.8825 190.7088,-168.4117"/>
</g>
<!-- Node17 -->
<g id="node7" class="node">
<title>Node17</title>
<g id="a_node7"><a xlink:href="a00047.html" target="_top" xlink:title="include/mobile_goal\l_intake.h">
<polygon fill="none" stroke="#ff0000" points="191.936,-55.5 191.936,-83.5 296.3296,-83.5 296.3296,-55.5 191.936,-55.5"/>
<text text-anchor="start" x="199.936" y="-71.5" font-family="Helvetica,sans-Serif" font-size="10.00" fill="#000000">include/mobile_goal</text>
<text text-anchor="middle" x="244.1328" y="-61.5" font-family="Helvetica,sans-Serif" font-size="10.00" fill="#000000">_intake.h</text>
</a>
</g>
</g>
<!-- Node3&#45;&gt;Node17 -->
<g id="edge8" class="edge">
<title>Node3&#45;&gt;Node17</title>
<path fill="none" stroke="#191970" d="M210.6103,-165.8773C218.5898,-142.9362 231.9712,-104.4645 239.1779,-83.7455"/>
<polygon fill="#191970" stroke="#191970" points="207.2511,-164.8813 207.2715,-175.4761 213.8626,-167.181 207.2511,-164.8813"/>
</g>
<!-- Node3&#45;&gt;Node14 -->
<g id="edge10" class="edge">
<title>Node3&#45;&gt;Node14</title>
<path fill="none" stroke="#191970" d="M225.5587,-169.392C239.5559,-159.5222 257.3719,-146.9596 269.2336,-138.5956"/>
<polygon fill="#191970" stroke="#191970" points="223.1686,-166.7947 217.0129,-175.4179 227.2025,-172.5155 223.1686,-166.7947"/>
</g>
<!-- Node4&#45;&gt;Node8 -->
<g id="edge3" class="edge">
<title>Node4&#45;&gt;Node8</title>
<path fill="none" stroke="#191970" d="M71.5002,-56.553C100.2025,-45.0721 141.3776,-28.6021 166.6281,-18.5019"/>
<polygon fill="#191970" stroke="#191970" points="69.8995,-53.4237 61.9146,-60.3873 72.4992,-59.923 69.8995,-53.4237"/>
</g>
<!-- Node9&#45;&gt;Node11 -->
<g id="edge5" class="edge">
<title>Node9&#45;&gt;Node11</title>
<path fill="none" stroke="#191970" d="M119.2093,-111.0396C123.3196,-100.3172 128.3193,-87.2744 131.6067,-78.6985"/>
<polygon fill="#191970" stroke="#191970" points="115.9373,-109.797 115.626,-120.3873 122.4736,-112.3026 115.9373,-109.797"/>
</g>
<!-- Node11&#45;&gt;Node8 -->
<g id="edge6" class="edge">
<title>Node11&#45;&gt;Node8</title>
<path fill="none" stroke="#191970" d="M150.2724,-52.6783C160.1765,-41.6737 172.738,-27.7165 180.8542,-18.6985"/>
<polygon fill="#191970" stroke="#191970" points="147.4224,-50.6129 143.3343,-60.3873 152.6255,-55.2957 147.4224,-50.6129"/>
</g>
<!-- Node17&#45;&gt;Node8 -->
<g id="edge9" class="edge">
<title>Node17&#45;&gt;Node8</title>
<path fill="none" stroke="#191970" d="M224.0748,-47.6186C214.8884,-37.5971 204.5039,-26.2685 197.46,-18.5842"/>
<polygon fill="#191970" stroke="#191970" points="221.7613,-50.2743 231.0986,-55.2808 226.9214,-45.5442 221.7613,-50.2743"/>
</g>
</g>
</svg>
