<?xml version="1.0" encoding="UTF-8" standalone="no"?>
<!DOCTYPE svg PUBLIC "-//W3C//DTD SVG 1.1//EN"
 "http://www.w3.org/Graphics/SVG/1.1/DTD/svg11.dtd">
<!-- Generated by graphviz version 2.40.1 (20161225.0304)
 -->
<!-- Title: get_mode Pages: 1 -->
<svg width="336pt" height="27pt"
 viewBox="0.00 0.00 335.91 27.00" xmlns="http://www.w3.org/2000/svg" xmlns:xlink="http://www.w3.org/1999/xlink">
<g id="graph0" class="graph" transform="scale(1 1) rotate(0) translate(4 23)">
<title>get_mode</title>
<!-- Node1 -->
<g id="node1" class="node">
<title>Node1</title>
<polygon fill="#bfbfbf" stroke="#000000" points="0,-.5 0,-18.5 60.4775,-18.5 60.4775,-.5 0,-.5"/>
<text text-anchor="middle" x="30.2388" y="-6.5" font-family="Helvetica,sans-Serif" font-size="10.00" fill="#000000">get_mode</text>
</g>
<!-- Node2 -->
<g id="node2" class="node">
<title>Node2</title>
<g id="a_node2"><a xlink:href="a00092.html#a8224a4626a934d30ed587671b7004bf8" target="_top" xlink:title="Updates the drive motors during teleop. ">
<polygon fill="none" stroke="#000000" points="96.4775,-.5 96.4775,-18.5 206.4229,-18.5 206.4229,-.5 96.4775,-.5"/>
<text text-anchor="middle" x="151.4502" y="-6.5" font-family="Helvetica,sans-Serif" font-size="10.00" fill="#000000">update_drive_motors</text>
</a>
</g>
</g>
<!-- Node1&#45;&gt;Node2 -->
<g id="edge1" class="edge">
<title>Node1&#45;&gt;Node2</title>
<path fill="none" stroke="#191970" d="M70.5353,-9.5C78.7256,-9.5 87.4756,-9.5 96.0835,-9.5"/>
<polygon fill="#191970" stroke="#191970" points="70.5129,-6.0001 60.5129,-9.5 70.5128,-13.0001 70.5129,-6.0001"/>
</g>
<!-- Node3 -->
<g id="node3" class="node">
<title>Node3</title>
<g id="a_node3"><a xlink:href="a00134.html#ac71a94af413917f27d108e95c4d6f6a7" target="_top" xlink:title="Runs the user operator control code. ">
<polygon fill="none" stroke="#000000" points="242.4229,-.5 242.4229,-18.5 327.9053,-18.5 327.9053,-.5 242.4229,-.5"/>
<text text-anchor="middle" x="285.1641" y="-6.5" font-family="Helvetica,sans-Serif" font-size="10.00" fill="#000000">operatorControl</text>
</a>
</g>
</g>
<!-- Node2&#45;&gt;Node3 -->
<g id="edge2" class="edge">
<title>Node2&#45;&gt;Node3</title>
<path fill="none" stroke="#191970" d="M216.7714,-9.5C225.4721,-9.5 234.2076,-9.5 242.3879,-9.5"/>
<polygon fill="#191970" stroke="#191970" points="216.6088,-6.0001 206.6087,-9.5 216.6087,-13.0001 216.6088,-6.0001"/>
</g>
</g>
</svg>
