<?xml version="1.0" encoding="UTF-8" standalone="no"?>
<!DOCTYPE svg PUBLIC "-//W3C//DTD SVG 1.1//EN"
 "http://www.w3.org/Graphics/SVG/1.1/DTD/svg11.dtd">
<!-- Generated by graphviz version 2.40.1 (20161225.0304)
 -->
<!-- Title: include/controller.h Pages: 1 -->
<svg width="118pt" height="137pt"
 viewBox="0.00 0.00 118.01 137.00" xmlns="http://www.w3.org/2000/svg" xmlns:xlink="http://www.w3.org/1999/xlink">
<g id="graph0" class="graph" transform="scale(1 1) rotate(0) translate(4 133)">
<title>include/controller.h</title>
<!-- Node0 -->
<g id="node1" class="node">
<title>Node0</title>
<polygon fill="#bfbfbf" stroke="#000000" points="8.0913,-110.5 8.0913,-128.5 107.48,-128.5 107.48,-110.5 8.0913,-110.5"/>
<text text-anchor="middle" x="57.7856" y="-116.5" font-family="Helvetica,sans-Serif" font-size="10.00" fill="#000000">include/controller.h</text>
</g>
<!-- Node1 -->
<g id="node2" class="node">
<title>Node1</title>
<g id="a_node2"><a xlink:href="a00074.html" target="_top" xlink:title="Vex Specific Math Functions, includes: Cartesian to polar cordinates. ">
<polygon fill="none" stroke="#000000" points="0,-55.5 0,-73.5 51.5713,-73.5 51.5713,-55.5 0,-55.5"/>
<text text-anchor="middle" x="25.7856" y="-61.5" font-family="Helvetica,sans-Serif" font-size="10.00" fill="#000000">vmath.h</text>
</a>
</g>
</g>
<!-- Node0&#45;&gt;Node1 -->
<g id="edge1" class="edge">
<title>Node0&#45;&gt;Node1</title>
<path fill="none" stroke="#191970" d="M52.5015,-110.4179C48.1274,-102.8998 41.7757,-91.9829 36.363,-82.6799"/>
<polygon fill="#191970" stroke="#191970" points="39.2388,-80.6628 31.1846,-73.7795 33.1884,-84.1831 39.2388,-80.6628"/>
</g>
<!-- Node3 -->
<g id="node4" class="node">
<title>Node3</title>
<polygon fill="none" stroke="#bfbfbf" points="69.5566,-55.5 69.5566,-73.5 110.0146,-73.5 110.0146,-55.5 69.5566,-55.5"/>
<text text-anchor="middle" x="89.7856" y="-61.5" font-family="Helvetica,sans-Serif" font-size="10.00" fill="#000000">API.h</text>
</g>
<!-- Node0&#45;&gt;Node3 -->
<g id="edge3" class="edge">
<title>Node0&#45;&gt;Node3</title>
<path fill="none" stroke="#191970" d="M63.0698,-110.4179C67.4439,-102.8998 73.7956,-91.9829 79.2083,-82.6799"/>
<polygon fill="#191970" stroke="#191970" points="82.3829,-84.1831 84.3867,-73.7795 76.3325,-80.6628 82.3829,-84.1831"/>
</g>
<!-- Node2 -->
<g id="node3" class="node">
<title>Node2</title>
<polygon fill="none" stroke="#bfbfbf" points="2.5,-.5 2.5,-18.5 49.0713,-18.5 49.0713,-.5 2.5,-.5"/>
<text text-anchor="middle" x="25.7856" y="-6.5" font-family="Helvetica,sans-Serif" font-size="10.00" fill="#000000">math.h</text>
</g>
<!-- Node1&#45;&gt;Node2 -->
<g id="edge2" class="edge">
<title>Node1&#45;&gt;Node2</title>
<path fill="none" stroke="#191970" d="M25.7856,-55.4179C25.7856,-48.2164 25.7856,-37.8962 25.7856,-28.8632"/>
<polygon fill="#191970" stroke="#191970" points="29.2857,-28.7794 25.7856,-18.7795 22.2857,-28.7795 29.2857,-28.7794"/>
</g>
</g>
</svg>
