<?xml version="1.0" encoding="UTF-8" standalone="no"?>
<!DOCTYPE svg PUBLIC "-//W3C//DTD SVG 1.1//EN"
 "http://www.w3.org/Graphics/SVG/1.1/DTD/svg11.dtd">
<!-- Generated by graphviz version 2.40.1 (20161225.0304)
 -->
<!-- Title: include/claw.h Pages: 1 -->
<svg width="263pt" height="137pt"
 viewBox="0.00 0.00 262.65 137.00" xmlns="http://www.w3.org/2000/svg" xmlns:xlink="http://www.w3.org/1999/xlink">
<g id="graph0" class="graph" transform="scale(1 1) rotate(0) translate(4 133)">
<title>include/claw.h</title>
<!-- Node10 -->
<g id="node1" class="node">
<title>Node10</title>
<polygon fill="#bfbfbf" stroke="#000000" points="87.0024,-110.5 87.0024,-128.5 165.2681,-128.5 165.2681,-110.5 87.0024,-110.5"/>
<text text-anchor="middle" x="126.1353" y="-116.5" font-family="Helvetica,sans-Serif" font-size="10.00" fill="#000000">include/claw.h</text>
</g>
<!-- Node11 -->
<g id="node2" class="node">
<title>Node11</title>
<g id="a_node2"><a xlink:href="a00002.html" target="_top" xlink:title="Autonomous declarations and macros. ">
<polygon fill="none" stroke="#000000" points="0,-55.5 0,-73.5 78.2705,-73.5 78.2705,-55.5 0,-55.5"/>
<text text-anchor="middle" x="39.1353" y="-61.5" font-family="Helvetica,sans-Serif" font-size="10.00" fill="#000000">include/auto.h</text>
</a>
</g>
</g>
<!-- Node10&#45;&gt;Node11 -->
<g id="edge1" class="edge">
<title>Node10&#45;&gt;Node11</title>
<path fill="none" stroke="#191970" d="M103.1246,-104.953C87.3843,-95.0023 67.0052,-82.1189 53.5229,-73.5956"/>
<polygon fill="#191970" stroke="#191970" points="101.4461,-108.0326 111.769,-110.4179 105.1866,-102.1158 101.4461,-108.0326"/>
</g>
<!-- Node13 -->
<g id="node4" class="node">
<title>Node13</title>
<g id="a_node4"><a xlink:href="a00086.html" target="_top" xlink:title="src/claw.c">
<polygon fill="none" stroke="#000000" points="96.4629,-55.5 96.4629,-73.5 155.8076,-73.5 155.8076,-55.5 96.4629,-55.5"/>
<text text-anchor="middle" x="126.1353" y="-61.5" font-family="Helvetica,sans-Serif" font-size="10.00" fill="#000000">src/claw.c</text>
</a>
</g>
</g>
<!-- Node10&#45;&gt;Node13 -->
<g id="edge3" class="edge">
<title>Node10&#45;&gt;Node13</title>
<path fill="none" stroke="#191970" d="M126.1353,-100.383C126.1353,-91.3738 126.1353,-81.0373 126.1353,-73.7795"/>
<polygon fill="#191970" stroke="#191970" points="122.6354,-100.4178 126.1353,-110.4179 129.6354,-100.4179 122.6354,-100.4178"/>
</g>
<!-- Node14 -->
<g id="node5" class="node">
<title>Node14</title>
<g id="a_node5"><a xlink:href="a00134.html" target="_top" xlink:title="File for operator control code. ">
<polygon fill="none" stroke="#000000" points="173.623,-55.5 173.623,-73.5 254.6475,-73.5 254.6475,-55.5 173.623,-55.5"/>
<text text-anchor="middle" x="214.1353" y="-61.5" font-family="Helvetica,sans-Serif" font-size="10.00" fill="#000000">src/opcontrol.c</text>
</a>
</g>
</g>
<!-- Node10&#45;&gt;Node14 -->
<g id="edge4" class="edge">
<title>Node10&#45;&gt;Node14</title>
<path fill="none" stroke="#191970" d="M149.4104,-104.953C165.3316,-95.0023 185.9449,-82.1189 199.5823,-73.5956"/>
<polygon fill="#191970" stroke="#191970" points="147.2916,-102.1498 140.6667,-110.4179 151.0017,-108.0858 147.2916,-102.1498"/>
</g>
<!-- Node12 -->
<g id="node3" class="node">
<title>Node12</title>
<g id="a_node3"><a xlink:href="a00080.html" target="_top" xlink:title="File for autonomous code. ">
<polygon fill="none" stroke="#000000" points="9.4604,-.5 9.4604,-18.5 68.8101,-18.5 68.8101,-.5 9.4604,-.5"/>
<text text-anchor="middle" x="39.1353" y="-6.5" font-family="Helvetica,sans-Serif" font-size="10.00" fill="#000000">src/auto.c</text>
</a>
</g>
</g>
<!-- Node11&#45;&gt;Node12 -->
<g id="edge2" class="edge">
<title>Node11&#45;&gt;Node12</title>
<path fill="none" stroke="#191970" d="M39.1353,-45.383C39.1353,-36.3738 39.1353,-26.0373 39.1353,-18.7795"/>
<polygon fill="#191970" stroke="#191970" points="35.6354,-45.4178 39.1353,-55.4179 42.6354,-45.4179 35.6354,-45.4178"/>
</g>
</g>
</svg>
