<?xml version="1.0" encoding="UTF-8" standalone="no"?>
<!DOCTYPE svg PUBLIC "-//W3C//DTD SVG 1.1//EN"
 "http://www.w3.org/Graphics/SVG/1.1/DTD/svg11.dtd">
<!-- Generated by graphviz version 2.40.1 (20161225.0304)
 -->
<!-- Title: set_motor_slew Pages: 1 -->
<svg width="524pt" height="197pt"
 viewBox="0.00 0.00 524.07 197.28" xmlns="http://www.w3.org/2000/svg" xmlns:xlink="http://www.w3.org/1999/xlink">
<g id="graph0" class="graph" transform="scale(1 1) rotate(0) translate(4 193.2801)">
<title>set_motor_slew</title>
<!-- Node60 -->
<g id="node1" class="node">
<title>Node60</title>
<polygon fill="#bfbfbf" stroke="#000000" points="0,-55.5 0,-73.5 86.0293,-73.5 86.0293,-55.5 0,-55.5"/>
<text text-anchor="middle" x="43.0146" y="-61.5" font-family="Helvetica,sans-Serif" font-size="10.00" fill="#000000">set_motor_slew</text>
</g>
<!-- Node61 -->
<g id="node2" class="node">
<title>Node61</title>
<g id="a_node2"><a xlink:href="a00107.html#ad00a195af30f246924d6e1a30095b882" target="_top" xlink:title="Sets the main lifter motors to the given value. ">
<polygon fill="none" stroke="#000000" points="122.0293,-92.5 122.0293,-110.5 239.1816,-110.5 239.1816,-92.5 122.0293,-92.5"/>
<text text-anchor="middle" x="180.6055" y="-98.5" font-family="Helvetica,sans-Serif" font-size="10.00" fill="#000000">set_main_lifter_motors</text>
</a>
</g>
</g>
<!-- Node60&#45;&gt;Node61 -->
<g id="edge1" class="edge">
<title>Node60&#45;&gt;Node61</title>
<path fill="none" stroke="#191970" d="M86.5346,-76.2031C106.0167,-81.4421 128.6399,-87.5258 146.8176,-92.414"/>
<polygon fill="#191970" stroke="#191970" points="87.239,-72.7682 76.6731,-73.5512 85.4211,-79.5281 87.239,-72.7682"/>
</g>
<!-- Node69 -->
<g id="node8" class="node">
<title>Node69</title>
<g id="a_node8"><a xlink:href="a00092.html#a8df41fd50094c065eedc81fc5e6595d1" target="_top" xlink:title="sets the speed of one side of the robot. ">
<polygon fill="none" stroke="#000000" points="137.5786,-37.5 137.5786,-55.5 223.6323,-55.5 223.6323,-37.5 137.5786,-37.5"/>
<text text-anchor="middle" x="180.6055" y="-43.5" font-family="Helvetica,sans-Serif" font-size="10.00" fill="#000000">set_side_speed</text>
</a>
</g>
</g>
<!-- Node60&#45;&gt;Node69 -->
<g id="edge8" class="edge">
<title>Node60&#45;&gt;Node69</title>
<path fill="none" stroke="#191970" d="M96.303,-57.5287C109.8146,-55.761 124.1681,-53.8833 137.1284,-52.1878"/>
<polygon fill="#191970" stroke="#191970" points="95.6332,-54.0864 86.1717,-58.8541 96.5413,-61.0272 95.6332,-54.0864"/>
</g>
<!-- Node62 -->
<g id="node3" class="node">
<title>Node62</title>
<g id="a_node3"><a xlink:href="a00080.html#a3c7ca506bbc071fa740de13805b7f376" target="_top" xlink:title="Runs the user autonomous code. ">
<polygon fill="none" stroke="#000000" points="294.6348,-37.5 294.6348,-55.5 365.6738,-55.5 365.6738,-37.5 294.6348,-37.5"/>
<text text-anchor="middle" x="330.1543" y="-43.5" font-family="Helvetica,sans-Serif" font-size="10.00" fill="#000000">autonomous</text>
</a>
</g>
</g>
<!-- Node61&#45;&gt;Node62 -->
<g id="edge2" class="edge">
<title>Node61&#45;&gt;Node62</title>
<path fill="none" stroke="#191970" d="M213.394,-88.7334C231.5524,-81.7353 254.5596,-72.9866 275.1816,-65.5 284.3886,-62.1575 294.5108,-58.6202 303.5329,-55.5155"/>
<polygon fill="#191970" stroke="#191970" points="211.9164,-85.5521 203.8507,-92.422 214.4401,-92.0814 211.9164,-85.5521"/>
</g>
<!-- Node63 -->
<g id="node4" class="node">
<title>Node63</title>
<g id="a_node4"><a xlink:href="a00107.html#a453a3fb02960a7b90435e942bbe90d7a" target="_top" xlink:title="autostack_routine">
<polygon fill="none" stroke="#000000" points="421.127,-167.5 421.127,-185.5 516.0674,-185.5 516.0674,-167.5 421.127,-167.5"/>
<text text-anchor="middle" x="468.5972" y="-173.5" font-family="Helvetica,sans-Serif" font-size="10.00" fill="#000000">autostack_routine</text>
</a>
</g>
</g>
<!-- Node61&#45;&gt;Node63 -->
<g id="edge3" class="edge">
<title>Node61&#45;&gt;Node63</title>
<path fill="none" stroke="#191970" d="M195.1202,-118.3822C212.1366,-136.7482 242.2327,-165.0212 275.1816,-176.5 322.7464,-193.0707 380.9752,-190.2226 421.041,-185.023"/>
<polygon fill="#191970" stroke="#191970" points="197.5429,-115.8416 188.2589,-110.7368 192.3332,-120.517 197.5429,-115.8416"/>
</g>
<!-- Node64 -->
<g id="node5" class="node">
<title>Node64</title>
<g id="a_node5"><a xlink:href="a00107.html#a2e2bd38b5b8b52378f3510368bf8aa0a" target="_top" xlink:title="Raises the main lifter. ">
<polygon fill="none" stroke="#000000" points="285.4722,-148.5 285.4722,-166.5 374.8364,-166.5 374.8364,-148.5 285.4722,-148.5"/>
<text text-anchor="middle" x="330.1543" y="-154.5" font-family="Helvetica,sans-Serif" font-size="10.00" fill="#000000">raise_main_lifter</text>
</a>
</g>
</g>
<!-- Node61&#45;&gt;Node64 -->
<g id="edge4" class="edge">
<title>Node61&#45;&gt;Node64</title>
<path fill="none" stroke="#191970" d="M211.208,-114.3884C229.6297,-121.9981 253.6178,-131.6471 275.1816,-139.5 283.5799,-142.5584 292.783,-145.6658 301.2163,-148.4185"/>
<polygon fill="#191970" stroke="#191970" points="212.4389,-111.1098 201.8614,-110.5053 209.7533,-117.5741 212.4389,-111.1098"/>
</g>
<!-- Node65 -->
<g id="node6" class="node">
<title>Node65</title>
<g id="a_node6"><a xlink:href="a00107.html#ad36c37086a91046af4e6f619618b7719" target="_top" xlink:title="Lowers the main lifter. ">
<polygon fill="none" stroke="#000000" points="284.3613,-111.5 284.3613,-129.5 375.9473,-129.5 375.9473,-111.5 284.3613,-111.5"/>
<text text-anchor="middle" x="330.1543" y="-117.5" font-family="Helvetica,sans-Serif" font-size="10.00" fill="#000000">lower_main_lifter</text>
</a>
</g>
</g>
<!-- Node61&#45;&gt;Node65 -->
<g id="edge6" class="edge">
<title>Node61&#45;&gt;Node65</title>
<path fill="none" stroke="#191970" d="M249.513,-110.2546C261.2453,-111.7452 273.1715,-113.2604 284.1266,-114.6522"/>
<polygon fill="#191970" stroke="#191970" points="249.6433,-106.7431 239.2819,-108.9548 248.761,-113.6873 249.6433,-106.7431"/>
</g>
<!-- Node66 -->
<g id="node7" class="node">
<title>Node66</title>
<g id="a_node7"><a xlink:href="a00107.html#adfb6207ee1f20953058c8de81ec3386a" target="_top" xlink:title="main_lifter_update">
<polygon fill="none" stroke="#ff0000" points="281.0166,-74.5 281.0166,-92.5 379.292,-92.5 379.292,-74.5 281.0166,-74.5"/>
<text text-anchor="middle" x="330.1543" y="-80.5" font-family="Helvetica,sans-Serif" font-size="10.00" fill="#000000">main_lifter_update</text>
</a>
</g>
</g>
<!-- Node61&#45;&gt;Node66 -->
<g id="edge7" class="edge">
<title>Node61&#45;&gt;Node66</title>
<path fill="none" stroke="#191970" d="M249.3762,-93.2226C259.986,-91.9456 270.7579,-90.6491 280.8303,-89.4367"/>
<polygon fill="#191970" stroke="#191970" points="248.792,-89.7676 239.2819,-94.4376 249.6285,-96.7174 248.792,-89.7676"/>
</g>
<!-- Node64&#45;&gt;Node63 -->
<g id="edge5" class="edge">
<title>Node64&#45;&gt;Node63</title>
<path fill="none" stroke="#191970" d="M385.3046,-165.0689C397.1227,-166.6908 409.512,-168.3911 421.015,-169.9698"/>
<polygon fill="#191970" stroke="#191970" points="385.4858,-161.561 375.1027,-163.6688 384.534,-168.496 385.4858,-161.561"/>
</g>
<!-- Node69&#45;&gt;Node62 -->
<g id="edge9" class="edge">
<title>Node69&#45;&gt;Node62</title>
<path fill="none" stroke="#191970" d="M234.1208,-46.5C254.1943,-46.5 276.4971,-46.5 294.5533,-46.5"/>
<polygon fill="#191970" stroke="#191970" points="233.8612,-43.0001 223.8612,-46.5 233.8612,-50.0001 233.8612,-43.0001"/>
</g>
<!-- Node70 -->
<g id="node9" class="node">
<title>Node70</title>
<g id="a_node9"><a xlink:href="a00092.html#a8224a4626a934d30ed587671b7004bf8" target="_top" xlink:title="Updates the drive motors during teleop. ">
<polygon fill="none" stroke="#ff0000" points="275.1816,-.5 275.1816,-18.5 385.127,-18.5 385.127,-.5 275.1816,-.5"/>
<text text-anchor="middle" x="330.1543" y="-6.5" font-family="Helvetica,sans-Serif" font-size="10.00" fill="#000000">update_drive_motors</text>
</a>
</g>
</g>
<!-- Node69&#45;&gt;Node70 -->
<g id="edge10" class="edge">
<title>Node69&#45;&gt;Node70</title>
<path fill="none" stroke="#191970" d="M227.0733,-35.0033C248.5272,-29.6954 273.6284,-23.4851 293.6893,-18.5218"/>
<polygon fill="#191970" stroke="#191970" points="226.0559,-31.6495 217.1892,-37.4488 227.7372,-38.4446 226.0559,-31.6495"/>
</g>
</g>
</svg>
