<?xml version="1.0" encoding="UTF-8" standalone="no"?>
<!DOCTYPE svg PUBLIC "-//W3C//DTD SVG 1.1//EN"
 "http://www.w3.org/Graphics/SVG/1.1/DTD/svg11.dtd">
<!-- Generated by graphviz version 2.40.1 (20161225.0304)
 -->
<!-- Title: include/routines.h Pages: 1 -->
<svg width="118pt" height="137pt"
 viewBox="0.00 0.00 118.01 137.00" xmlns="http://www.w3.org/2000/svg" xmlns:xlink="http://www.w3.org/1999/xlink">
<g id="graph0" class="graph" transform="scale(1 1) rotate(0) translate(4 133)">
<title>include/routines.h</title>
<!-- Node0 -->
<g id="node1" class="node">
<title>Node0</title>
<polygon fill="#bfbfbf" stroke="#000000" points="10.5938,-110.5 10.5938,-128.5 104.9775,-128.5 104.9775,-110.5 10.5938,-110.5"/>
<text text-anchor="middle" x="57.7856" y="-116.5" font-family="Helvetica,sans-Serif" font-size="10.00" fill="#000000">include/routines.h</text>
</g>
<!-- Node1 -->
<g id="node2" class="node">
<title>Node1</title>
<g id="a_node2"><a xlink:href="a00011.html" target="_top" xlink:title="controller definitions, macros and functions to assist with usig the vex controllers. ">
<polygon fill="none" stroke="#000000" points="25.3252,-55.5 25.3252,-73.5 90.2461,-73.5 90.2461,-55.5 25.3252,-55.5"/>
<text text-anchor="middle" x="57.7856" y="-61.5" font-family="Helvetica,sans-Serif" font-size="10.00" fill="#000000">controller.h</text>
</a>
</g>
</g>
<!-- Node0&#45;&gt;Node1 -->
<g id="edge1" class="edge">
<title>Node0&#45;&gt;Node1</title>
<path fill="none" stroke="#191970" d="M57.7856,-110.4179C57.7856,-103.2164 57.7856,-92.8962 57.7856,-83.8632"/>
<polygon fill="#191970" stroke="#191970" points="61.2857,-83.7794 57.7856,-73.7795 54.2857,-83.7795 61.2857,-83.7794"/>
</g>
<!-- Node2 -->
<g id="node3" class="node">
<title>Node2</title>
<g id="a_node3"><a xlink:href="a00074.html" target="_top" xlink:title="Vex Specific Math Functions, includes: Cartesian to polar cordinates. ">
<polygon fill="none" stroke="#ff0000" points="0,-.5 0,-18.5 51.5713,-18.5 51.5713,-.5 0,-.5"/>
<text text-anchor="middle" x="25.7856" y="-6.5" font-family="Helvetica,sans-Serif" font-size="10.00" fill="#000000">vmath.h</text>
</a>
</g>
</g>
<!-- Node1&#45;&gt;Node2 -->
<g id="edge2" class="edge">
<title>Node1&#45;&gt;Node2</title>
<path fill="none" stroke="#191970" d="M52.5015,-55.4179C48.1274,-47.8998 41.7757,-36.9829 36.363,-27.6799"/>
<polygon fill="#191970" stroke="#191970" points="39.2388,-25.6628 31.1846,-18.7795 33.1884,-29.1831 39.2388,-25.6628"/>
</g>
<!-- Node4 -->
<g id="node4" class="node">
<title>Node4</title>
<polygon fill="none" stroke="#bfbfbf" points="69.5566,-.5 69.5566,-18.5 110.0146,-18.5 110.0146,-.5 69.5566,-.5"/>
<text text-anchor="middle" x="89.7856" y="-6.5" font-family="Helvetica,sans-Serif" font-size="10.00" fill="#000000">API.h</text>
</g>
<!-- Node1&#45;&gt;Node4 -->
<g id="edge3" class="edge">
<title>Node1&#45;&gt;Node4</title>
<path fill="none" stroke="#191970" d="M63.0698,-55.4179C67.4439,-47.8998 73.7956,-36.9829 79.2083,-27.6799"/>
<polygon fill="#191970" stroke="#191970" points="82.3829,-29.1831 84.3867,-18.7795 76.3325,-25.6628 82.3829,-29.1831"/>
</g>
</g>
</svg>
