<?xml version="1.0" encoding="UTF-8" standalone="no"?>
<!DOCTYPE svg PUBLIC "-//W3C//DTD SVG 1.1//EN"
 "http://www.w3.org/Graphics/SVG/1.1/DTD/svg11.dtd">
<!-- Generated by graphviz version 2.40.1 (20161225.0304)
 -->
<!-- Title: include/lcd.h Pages: 1 -->
<svg width="642pt" height="192pt"
 viewBox="0.00 0.00 642.25 192.00" xmlns="http://www.w3.org/2000/svg" xmlns:xlink="http://www.w3.org/1999/xlink">
<g id="graph0" class="graph" transform="scale(1 1) rotate(0) translate(4 188)">
<title>include/lcd.h</title>
<!-- Node2 -->
<g id="node1" class="node">
<title>Node2</title>
<polygon fill="#bfbfbf" stroke="#000000" points="409.1157,-165.5 409.1157,-183.5 480.7065,-183.5 480.7065,-165.5 409.1157,-165.5"/>
<text text-anchor="middle" x="444.9111" y="-171.5" font-family="Helvetica,sans-Serif" font-size="10.00" fill="#000000">include/lcd.h</text>
</g>
<!-- Node3 -->
<g id="node2" class="node">
<title>Node3</title>
<g id="a_node2"><a xlink:href="a00035.html" target="_top" xlink:title="Contains logging functions. ">
<polygon fill="none" stroke="#ff0000" points="255.835,-110.5 255.835,-128.5 327.9873,-128.5 327.9873,-110.5 255.835,-110.5"/>
<text text-anchor="middle" x="291.9111" y="-116.5" font-family="Helvetica,sans-Serif" font-size="10.00" fill="#000000">include/log.h</text>
</a>
</g>
</g>
<!-- Node2&#45;&gt;Node3 -->
<g id="edge1" class="edge">
<title>Node2&#45;&gt;Node3</title>
<path fill="none" stroke="#191970" d="M410.1077,-161.989C381.7243,-151.7858 342.3139,-137.6186 316.9592,-128.5042"/>
<polygon fill="#191970" stroke="#191970" points="409.0518,-165.3286 419.6463,-165.4179 411.4199,-158.7413 409.0518,-165.3286"/>
</g>
<!-- Node4 -->
<g id="node3" class="node">
<title>Node4</title>
<g id="a_node3"><a xlink:href="a00044.html" target="_top" xlink:title="Contains menu functionality and abstraction. ">
<polygon fill="none" stroke="#ff0000" points="0,-55.5 0,-73.5 83.8223,-73.5 83.8223,-55.5 0,-55.5"/>
<text text-anchor="middle" x="41.9111" y="-61.5" font-family="Helvetica,sans-Serif" font-size="10.00" fill="#000000">include/menu.h</text>
</a>
</g>
</g>
<!-- Node2&#45;&gt;Node4 -->
<g id="edge10" class="edge">
<title>Node2&#45;&gt;Node4</title>
<path fill="none" stroke="#191970" d="M399.1306,-165.0531C358.8354,-156.4833 298.6838,-143.0698 246.9111,-129 182.1031,-111.3877 107.0825,-86.6549 68.2508,-73.522"/>
<polygon fill="#191970" stroke="#191970" points="398.4225,-168.4807 408.9302,-167.125 399.8705,-161.6321 398.4225,-168.4807"/>
</g>
<!-- Node5 -->
<g id="node4" class="node">
<title>Node5</title>
<g id="a_node4"><a xlink:href="a00101.html" target="_top" xlink:title="File for initialization code. ">
<polygon fill="none" stroke="#000000" points="85.5762,-.5 85.5762,-18.5 138.2461,-18.5 138.2461,-.5 85.5762,-.5"/>
<text text-anchor="middle" x="111.9111" y="-6.5" font-family="Helvetica,sans-Serif" font-size="10.00" fill="#000000">src/init.c</text>
</a>
</g>
</g>
<!-- Node2&#45;&gt;Node5 -->
<g id="edge11" class="edge">
<title>Node2&#45;&gt;Node5</title>
<path fill="none" stroke="#191970" d="M469.619,-160.0374C506.1329,-136.9207 566.9101,-90.6255 534.9111,-55 508.3206,-25.3959 226.7506,-13.3908 138.3256,-10.3332"/>
<polygon fill="#191970" stroke="#191970" points="467.6052,-157.1672 460.9298,-165.3946 471.2789,-163.1258 467.6052,-157.1672"/>
</g>
<!-- Node16 -->
<g id="node10" class="node">
<title>Node16</title>
<g id="a_node10"><a xlink:href="a00104.html" target="_top" xlink:title="src/lcd.c">
<polygon fill="none" stroke="#000000" points="581.5762,-110.5 581.5762,-128.5 634.2461,-128.5 634.2461,-110.5 581.5762,-110.5"/>
<text text-anchor="middle" x="607.9111" y="-116.5" font-family="Helvetica,sans-Serif" font-size="10.00" fill="#000000">src/lcd.c</text>
</a>
</g>
</g>
<!-- Node2&#45;&gt;Node16 -->
<g id="edge12" class="edge">
<title>Node2&#45;&gt;Node16</title>
<path fill="none" stroke="#191970" d="M481.6245,-162.1121C511.9899,-151.866 554.386,-137.5606 581.4958,-128.4131"/>
<polygon fill="#191970" stroke="#191970" points="480.1834,-158.9044 471.8273,-165.4179 482.4214,-165.537 480.1834,-158.9044"/>
</g>
<!-- Node3&#45;&gt;Node4 -->
<g id="edge2" class="edge">
<title>Node3&#45;&gt;Node4</title>
<path fill="none" stroke="#191970" d="M245.982,-109.3956C199.3411,-99.1346 127.7827,-83.3917 82.9742,-73.5339"/>
<polygon fill="#191970" stroke="#191970" points="245.3075,-112.8308 255.826,-111.5613 246.8116,-105.9943 245.3075,-112.8308"/>
</g>
<!-- Node3&#45;&gt;Node5 -->
<g id="edge7" class="edge">
<title>Node3&#45;&gt;Node5</title>
<path fill="none" stroke="#191970" d="M245.6142,-111.5505C204.041,-103.5229 147.1281,-90.0388 130.9111,-74 115.8052,-59.06 112.5748,-32.7624 111.9694,-18.8075"/>
<polygon fill="#191970" stroke="#191970" points="245.0782,-115.011 255.5534,-113.4233 246.3744,-108.1321 245.0782,-115.011"/>
</g>
<!-- Node7 -->
<g id="node5" class="node">
<title>Node7</title>
<g id="a_node5"><a xlink:href="a00086.html" target="_top" xlink:title="src/claw.c">
<polygon fill="none" stroke="#000000" points="140.2388,-55.5 140.2388,-73.5 199.5835,-73.5 199.5835,-55.5 140.2388,-55.5"/>
<text text-anchor="middle" x="169.9111" y="-61.5" font-family="Helvetica,sans-Serif" font-size="10.00" fill="#000000">src/claw.c</text>
</a>
</g>
</g>
<!-- Node3&#45;&gt;Node7 -->
<g id="edge4" class="edge">
<title>Node3&#45;&gt;Node7</title>
<path fill="none" stroke="#191970" d="M262.3925,-106.1924C239.9916,-96.0937 209.7883,-82.4774 190.0869,-73.5956"/>
<polygon fill="#191970" stroke="#191970" points="261.2104,-109.4987 271.7653,-110.4179 264.0874,-103.1172 261.2104,-109.4987"/>
</g>
<!-- Node8 -->
<g id="node6" class="node">
<title>Node8</title>
<g id="a_node6"><a xlink:href="a00092.html" target="_top" xlink:title="src/drive.c">
<polygon fill="none" stroke="#000000" points="217.1304,-55.5 217.1304,-73.5 278.6919,-73.5 278.6919,-55.5 217.1304,-55.5"/>
<text text-anchor="middle" x="247.9111" y="-61.5" font-family="Helvetica,sans-Serif" font-size="10.00" fill="#000000">src/drive.c</text>
</a>
</g>
</g>
<!-- Node3&#45;&gt;Node8 -->
<g id="edge5" class="edge">
<title>Node3&#45;&gt;Node8</title>
<path fill="none" stroke="#191970" d="M278.2603,-102.4365C270.697,-92.9823 261.5876,-81.5956 255.3347,-73.7795"/>
<polygon fill="#191970" stroke="#191970" points="275.6654,-104.7956 284.6454,-110.4179 281.1315,-100.4227 275.6654,-104.7956"/>
</g>
<!-- Node9 -->
<g id="node7" class="node">
<title>Node9</title>
<g id="a_node7"><a xlink:href="a00095.html" target="_top" xlink:title="src/encoders.c">
<polygon fill="none" stroke="#000000" points="296.3989,-55.5 296.3989,-73.5 377.4233,-73.5 377.4233,-55.5 296.3989,-55.5"/>
<text text-anchor="middle" x="336.9111" y="-61.5" font-family="Helvetica,sans-Serif" font-size="10.00" fill="#000000">src/encoders.c</text>
</a>
</g>
</g>
<!-- Node3&#45;&gt;Node9 -->
<g id="edge6" class="edge">
<title>Node3&#45;&gt;Node9</title>
<path fill="none" stroke="#191970" d="M305.8722,-102.4365C313.6075,-92.9823 322.9238,-81.5956 329.3189,-73.7795"/>
<polygon fill="#191970" stroke="#191970" points="302.9655,-100.4619 299.342,-110.4179 308.3832,-104.8946 302.9655,-100.4619"/>
</g>
<!-- Node10 -->
<g id="node8" class="node">
<title>Node10</title>
<g id="a_node8"><a xlink:href="a00107.html" target="_top" xlink:title="src/lifter.c">
<polygon fill="none" stroke="#000000" points="395.7954,-55.5 395.7954,-73.5 454.0269,-73.5 454.0269,-55.5 395.7954,-55.5"/>
<text text-anchor="middle" x="424.9111" y="-61.5" font-family="Helvetica,sans-Serif" font-size="10.00" fill="#000000">src/lifter.c</text>
</a>
</g>
</g>
<!-- Node3&#45;&gt;Node10 -->
<g id="edge8" class="edge">
<title>Node3&#45;&gt;Node10</title>
<path fill="none" stroke="#191970" d="M323.4363,-106.4633C347.9204,-96.3383 381.2459,-82.5571 402.9163,-73.5956"/>
<polygon fill="#191970" stroke="#191970" points="321.7769,-103.362 313.8734,-110.4179 324.4519,-109.8307 321.7769,-103.362"/>
</g>
<!-- Node11 -->
<g id="node9" class="node">
<title>Node11</title>
<g id="a_node9"><a xlink:href="a00122.html" target="_top" xlink:title="src/log.c">
<polygon fill="none" stroke="#000000" points="472.2954,-55.5 472.2954,-73.5 525.5269,-73.5 525.5269,-55.5 472.2954,-55.5"/>
<text text-anchor="middle" x="498.9111" y="-61.5" font-family="Helvetica,sans-Serif" font-size="10.00" fill="#000000">src/log.c</text>
</a>
</g>
</g>
<!-- Node3&#45;&gt;Node11 -->
<g id="edge9" class="edge">
<title>Node3&#45;&gt;Node11</title>
<path fill="none" stroke="#191970" d="M335.903,-107.8113C377.2468,-96.8263 437.7776,-80.7432 472.2568,-71.5821"/>
<polygon fill="#191970" stroke="#191970" points="334.8589,-104.4673 326.093,-110.4179 336.6564,-111.2325 334.8589,-104.4673"/>
</g>
<!-- Node4&#45;&gt;Node5 -->
<g id="edge3" class="edge">
<title>Node4&#45;&gt;Node5</title>
<path fill="none" stroke="#191970" d="M61.4475,-49.15C73.8694,-39.3899 89.544,-27.0742 100.1009,-18.7795"/>
<polygon fill="#191970" stroke="#191970" points="59.171,-46.4875 53.4702,-55.4179 63.4958,-51.9917 59.171,-46.4875"/>
</g>
</g>
</svg>
