<?xml version="1.0" encoding="UTF-8" standalone="no"?>
<!DOCTYPE svg PUBLIC "-//W3C//DTD SVG 1.1//EN"
 "http://www.w3.org/Graphics/SVG/1.1/DTD/svg11.dtd">
<!-- Generated by graphviz version 2.40.1 (20161225.0304)
 -->
<!-- Title: include/drive.h Pages: 1 -->
<svg width="121pt" height="192pt"
 viewBox="0.00 0.00 121.49 192.00" xmlns="http://www.w3.org/2000/svg" xmlns:xlink="http://www.w3.org/1999/xlink">
<g id="graph0" class="graph" transform="scale(1 1) rotate(0) translate(4 188)">
<title>include/drive.h</title>
<!-- Node0 -->
<g id="node1" class="node">
<title>Node0</title>
<polygon fill="#bfbfbf" stroke="#000000" points="33.0085,-165.5 33.0085,-183.5 113.4909,-183.5 113.4909,-165.5 33.0085,-165.5"/>
<text text-anchor="middle" x="73.2497" y="-171.5" font-family="Helvetica,sans-Serif" font-size="10.00" fill="#000000">include/drive.h</text>
</g>
<!-- Node1 -->
<g id="node2" class="node">
<title>Node1</title>
<g id="a_node2"><a xlink:href="a00053.html" target="_top" xlink:title="partner.h">
<polygon fill="none" stroke="#000000" points="15.511,-110.5 15.511,-128.5 70.9885,-128.5 70.9885,-110.5 15.511,-110.5"/>
<text text-anchor="middle" x="43.2497" y="-116.5" font-family="Helvetica,sans-Serif" font-size="10.00" fill="#000000">partner.h</text>
</a>
</g>
</g>
<!-- Node0&#45;&gt;Node1 -->
<g id="edge1" class="edge">
<title>Node0&#45;&gt;Node1</title>
<path fill="none" stroke="#191970" d="M68.2958,-165.4179C64.1951,-157.8998 58.2404,-146.9829 53.166,-137.6799"/>
<polygon fill="#191970" stroke="#191970" points="56.1725,-135.8824 48.3112,-128.7795 50.0272,-139.2344 56.1725,-135.8824"/>
</g>
<!-- Node2 -->
<g id="node3" class="node">
<title>Node2</title>
<polygon fill="none" stroke="#bfbfbf" points="23.0207,-.5 23.0207,-18.5 63.4787,-18.5 63.4787,-.5 23.0207,-.5"/>
<text text-anchor="middle" x="43.2497" y="-6.5" font-family="Helvetica,sans-Serif" font-size="10.00" fill="#000000">API.h</text>
</g>
<!-- Node0&#45;&gt;Node2 -->
<g id="edge5" class="edge">
<title>Node0&#45;&gt;Node2</title>
<path fill="none" stroke="#191970" d="M76.7433,-165.4309C84.0722,-144.9549 99.1898,-93.898 84.2497,-55 79.916,-43.7166 71.3472,-33.4827 63.1587,-25.5908"/>
<polygon fill="#191970" stroke="#191970" points="65.3551,-22.8591 55.5752,-18.7843 60.6794,-28.0686 65.3551,-22.8591"/>
</g>
<!-- Node1&#45;&gt;Node2 -->
<g id="edge2" class="edge">
<title>Node1&#45;&gt;Node2</title>
<path fill="none" stroke="#191970" d="M30.5194,-110.3138C15.6367,-98.3511 -5.9807,-76.4287 2.2497,-55 6.5835,-43.7166 15.1523,-33.4827 23.3407,-25.5908"/>
<polygon fill="#191970" stroke="#191970" points="25.8201,-28.0686 30.9243,-18.7843 21.1444,-22.8591 25.8201,-28.0686"/>
</g>
<!-- Node3 -->
<g id="node4" class="node">
<title>Node3</title>
<g id="a_node4"><a xlink:href="a00011.html" target="_top" xlink:title="controller definitions, macros and functions to assist with usig the vex controllers. ">
<polygon fill="none" stroke="#ff0000" points="10.7893,-55.5 10.7893,-73.5 75.7102,-73.5 75.7102,-55.5 10.7893,-55.5"/>
<text text-anchor="middle" x="43.2497" y="-61.5" font-family="Helvetica,sans-Serif" font-size="10.00" fill="#000000">controller.h</text>
</a>
</g>
</g>
<!-- Node1&#45;&gt;Node3 -->
<g id="edge3" class="edge">
<title>Node1&#45;&gt;Node3</title>
<path fill="none" stroke="#191970" d="M43.2497,-110.4179C43.2497,-103.2164 43.2497,-92.8962 43.2497,-83.8632"/>
<polygon fill="#191970" stroke="#191970" points="46.7498,-83.7794 43.2497,-73.7795 39.7498,-83.7795 46.7498,-83.7794"/>
</g>
<!-- Node3&#45;&gt;Node2 -->
<g id="edge4" class="edge">
<title>Node3&#45;&gt;Node2</title>
<path fill="none" stroke="#191970" d="M43.2497,-55.4179C43.2497,-48.2164 43.2497,-37.8962 43.2497,-28.8632"/>
<polygon fill="#191970" stroke="#191970" points="46.7498,-28.7794 43.2497,-18.7795 39.7498,-28.7795 46.7498,-28.7794"/>
</g>
</g>
</svg>
