<?xml version="1.0" encoding="UTF-8" standalone="no"?>
<!DOCTYPE svg PUBLIC "-//W3C//DTD SVG 1.1//EN"
 "http://www.w3.org/Graphics/SVG/1.1/DTD/svg11.dtd">
<!-- Generated by graphviz version 2.40.1 (20161225.0304)
 -->
<!-- Title: itoaa Pages: 1 -->
<svg width="285pt" height="27pt"
 viewBox="0.00 0.00 284.77 27.00" xmlns="http://www.w3.org/2000/svg" xmlns:xlink="http://www.w3.org/1999/xlink">
<g id="graph0" class="graph" transform="scale(1 1) rotate(0) translate(4 23)">
<title>itoaa</title>
<!-- Node10 -->
<g id="node1" class="node">
<title>Node10</title>
<polygon fill="#bfbfbf" stroke="#000000" points="0,-.5 0,-18.5 37.6846,-18.5 37.6846,-.5 0,-.5"/>
<text text-anchor="middle" x="18.8423" y="-6.5" font-family="Helvetica,sans-Serif" font-size="10.00" fill="#000000">itoaa</text>
</g>
<!-- Node11 -->
<g id="node2" class="node">
<title>Node11</title>
<g id="a_node2"><a xlink:href="a00149.html#a4d26b0ac2f26341d827e0a13a0bd49b6" target="_top" xlink:title="converts a float to string. ">
<polygon fill="none" stroke="#000000" points="73.6846,-.5 73.6846,-18.5 111.9258,-18.5 111.9258,-.5 73.6846,-.5"/>
<text text-anchor="middle" x="92.8052" y="-6.5" font-family="Helvetica,sans-Serif" font-size="10.00" fill="#000000">ftoaa</text>
</a>
</g>
</g>
<!-- Node10&#45;&gt;Node11 -->
<g id="edge1" class="edge">
<title>Node10&#45;&gt;Node11</title>
<path fill="none" stroke="#191970" d="M47.9533,-9.5C56.555,-9.5 65.7525,-9.5 73.5654,-9.5"/>
<polygon fill="#191970" stroke="#191970" points="47.8896,-6.0001 37.8896,-9.5 47.8895,-13.0001 47.8896,-6.0001"/>
</g>
<!-- Node12 -->
<g id="node3" class="node">
<title>Node12</title>
<g id="a_node3"><a xlink:href="a00128.html#a0fb55c1213b23963d509b974d1254567" target="_top" xlink:title="Static function that calculates the string from menu. ">
<polygon fill="none" stroke="#ff0000" points="147.9258,-.5 147.9258,-18.5 276.7676,-18.5 276.7676,-.5 147.9258,-.5"/>
<text text-anchor="middle" x="212.3467" y="-6.5" font-family="Helvetica,sans-Serif" font-size="10.00" fill="#000000">calculate_current_display</text>
</a>
</g>
</g>
<!-- Node11&#45;&gt;Node12 -->
<g id="edge2" class="edge">
<title>Node11&#45;&gt;Node12</title>
<path fill="none" stroke="#191970" d="M122.1115,-9.5C130.0161,-9.5 138.8909,-9.5 147.9083,-9.5"/>
<polygon fill="#191970" stroke="#191970" points="122.0116,-6.0001 112.0116,-9.5 122.0116,-13.0001 122.0116,-6.0001"/>
</g>
</g>
</svg>
