<?xml version="1.0" encoding="UTF-8" standalone="no"?>
<!DOCTYPE svg PUBLIC "-//W3C//DTD SVG 1.1//EN"
 "http://www.w3.org/Graphics/SVG/1.1/DTD/svg11.dtd">
<!-- Generated by graphviz version 2.40.1 (20161225.0304)
 -->
<!-- Title: src/auto.c Pages: 1 -->
<svg width="426pt" height="192pt"
 viewBox="0.00 0.00 426.24 192.00" xmlns="http://www.w3.org/2000/svg" xmlns:xlink="http://www.w3.org/1999/xlink">
<g id="graph0" class="graph" transform="scale(1 1) rotate(0) translate(4 188)">
<title>src/auto.c</title>
<!-- Node0 -->
<g id="node1" class="node">
<title>Node0</title>
<polygon fill="#bfbfbf" stroke="#000000" points="195.2241,-165.5 195.2241,-183.5 254.5737,-183.5 254.5737,-165.5 195.2241,-165.5"/>
<text text-anchor="middle" x="224.8989" y="-171.5" font-family="Helvetica,sans-Serif" font-size="10.00" fill="#000000">src/auto.c</text>
</g>
<!-- Node1 -->
<g id="node2" class="node">
<title>Node1</title>
<g id="a_node2"><a xlink:href="a00002.html" target="_top" xlink:title="Autonomous declarations and macros. ">
<polygon fill="none" stroke="#ff0000" points="171.9976,-110.5 171.9976,-128.5 215.8003,-128.5 215.8003,-110.5 171.9976,-110.5"/>
<text text-anchor="middle" x="193.8989" y="-116.5" font-family="Helvetica,sans-Serif" font-size="10.00" fill="#000000">auto.h</text>
</a>
</g>
</g>
<!-- Node0&#45;&gt;Node1 -->
<g id="edge1" class="edge">
<title>Node0&#45;&gt;Node1</title>
<path fill="none" stroke="#191970" d="M219.7799,-165.4179C215.5425,-157.8998 209.3893,-146.9829 204.1458,-137.6799"/>
<polygon fill="#191970" stroke="#191970" points="207.0884,-135.7724 199.1292,-128.7795 200.9903,-139.2096 207.0884,-135.7724"/>
</g>
<!-- Node24 -->
<g id="node10" class="node">
<title>Node24</title>
<g id="a_node10"><a xlink:href="a00038.html" target="_top" xlink:title="Header file for global functions. ">
<polygon fill="none" stroke="#ff0000" points="233.8916,-110.5 233.8916,-128.5 279.9063,-128.5 279.9063,-110.5 233.8916,-110.5"/>
<text text-anchor="middle" x="256.8989" y="-116.5" font-family="Helvetica,sans-Serif" font-size="10.00" fill="#000000">main.h</text>
</a>
</g>
</g>
<!-- Node0&#45;&gt;Node24 -->
<g id="edge10" class="edge">
<title>Node0&#45;&gt;Node24</title>
<path fill="none" stroke="#191970" d="M230.1831,-165.4179C234.5572,-157.8998 240.9089,-146.9829 246.3216,-137.6799"/>
<polygon fill="#191970" stroke="#191970" points="249.4962,-139.1831 251.5,-128.7795 243.4458,-135.6628 249.4962,-139.1831"/>
</g>
<!-- Node2 -->
<g id="node3" class="node">
<title>Node2</title>
<g id="a_node3"><a xlink:href="a00008.html" target="_top" xlink:title="Code for controlling the claw that grabs the cones. ">
<polygon fill="none" stroke="#ff0000" points="0,-55.5 0,-73.5 43.7979,-73.5 43.7979,-55.5 0,-55.5"/>
<text text-anchor="middle" x="21.8989" y="-61.5" font-family="Helvetica,sans-Serif" font-size="10.00" fill="#000000">claw.h</text>
</a>
</g>
</g>
<!-- Node1&#45;&gt;Node2 -->
<g id="edge2" class="edge">
<title>Node1&#45;&gt;Node2</title>
<path fill="none" stroke="#191970" d="M171.7651,-112.4223C141.706,-102.8104 87.7995,-85.5729 53.4926,-74.6026"/>
<polygon fill="#191970" stroke="#191970" points="54.5388,-71.2626 43.9478,-71.5505 52.4067,-77.9301 54.5388,-71.2626"/>
</g>
<!-- Node12 -->
<g id="node4" class="node">
<title>Node12</title>
<g id="a_node4"><a xlink:href="a00014.html" target="_top" xlink:title="Drive base definitions and enumerations. ">
<polygon fill="none" stroke="#ff0000" points="210.8916,-.5 210.8916,-18.5 256.9063,-18.5 256.9063,-.5 210.8916,-.5"/>
<text text-anchor="middle" x="233.8989" y="-6.5" font-family="Helvetica,sans-Serif" font-size="10.00" fill="#000000">drive.h</text>
</a>
</g>
</g>
<!-- Node1&#45;&gt;Node12 -->
<g id="edge3" class="edge">
<title>Node1&#45;&gt;Node12</title>
<path fill="none" stroke="#191970" d="M171.8817,-115.2376C135.0768,-107.1101 67.2994,-87.2743 90.8989,-55 103.9712,-37.1226 162.7519,-22.9226 200.7632,-15.4005"/>
<polygon fill="#191970" stroke="#191970" points="201.7177,-18.7812 210.8784,-13.4584 200.3978,-11.9068 201.7177,-18.7812"/>
</g>
<!-- Node14 -->
<g id="node5" class="node">
<title>Node14</title>
<polygon fill="none" stroke="#bfbfbf" points="100.0566,-55.5 100.0566,-73.5 147.7412,-73.5 147.7412,-55.5 100.0566,-55.5"/>
<text text-anchor="middle" x="123.8989" y="-61.5" font-family="Helvetica,sans-Serif" font-size="10.00" fill="#000000">stdlib.h</text>
</g>
<!-- Node1&#45;&gt;Node14 -->
<g id="edge4" class="edge">
<title>Node1&#45;&gt;Node14</title>
<path fill="none" stroke="#191970" d="M182.3398,-110.4179C171.8649,-102.1876 156.2057,-89.8839 143.7325,-80.0836"/>
<polygon fill="#191970" stroke="#191970" points="145.7347,-77.2056 135.7091,-73.7795 141.41,-82.7098 145.7347,-77.2056"/>
</g>
<!-- Node15 -->
<g id="node6" class="node">
<title>Node15</title>
<polygon fill="none" stroke="#bfbfbf" points="165.606,-55.5 165.606,-73.5 222.1919,-73.5 222.1919,-55.5 165.606,-55.5"/>
<text text-anchor="middle" x="193.8989" y="-61.5" font-family="Helvetica,sans-Serif" font-size="10.00" fill="#000000">stdbool.h</text>
</g>
<!-- Node1&#45;&gt;Node15 -->
<g id="edge5" class="edge">
<title>Node1&#45;&gt;Node15</title>
<path fill="none" stroke="#191970" d="M193.8989,-110.4179C193.8989,-103.2164 193.8989,-92.8962 193.8989,-83.8632"/>
<polygon fill="#191970" stroke="#191970" points="197.399,-83.7794 193.8989,-73.7795 190.399,-83.7795 197.399,-83.7794"/>
</g>
<!-- Node16 -->
<g id="node7" class="node">
<title>Node16</title>
<polygon fill="none" stroke="#bfbfbf" points="239.8325,-55.5 239.8325,-73.5 291.9653,-73.5 291.9653,-55.5 239.8325,-55.5"/>
<text text-anchor="middle" x="265.8989" y="-61.5" font-family="Helvetica,sans-Serif" font-size="10.00" fill="#000000">stdarg.h</text>
</g>
<!-- Node1&#45;&gt;Node16 -->
<g id="edge6" class="edge">
<title>Node1&#45;&gt;Node16</title>
<path fill="none" stroke="#191970" d="M205.7883,-110.4179C216.5625,-102.1876 232.6691,-89.8839 245.4986,-80.0836"/>
<polygon fill="#191970" stroke="#191970" points="247.9292,-82.6313 253.7513,-73.7795 243.6799,-77.0685 247.9292,-82.6313"/>
</g>
<!-- Node17 -->
<g id="node8" class="node">
<title>Node17</title>
<polygon fill="none" stroke="#bfbfbf" points="309.7783,-55.5 309.7783,-73.5 358.0195,-73.5 358.0195,-55.5 309.7783,-55.5"/>
<text text-anchor="middle" x="333.8989" y="-61.5" font-family="Helvetica,sans-Serif" font-size="10.00" fill="#000000">stdint.h</text>
</g>
<!-- Node1&#45;&gt;Node17 -->
<g id="edge7" class="edge">
<title>Node1&#45;&gt;Node17</title>
<path fill="none" stroke="#191970" d="M216.0823,-110.7851C239.0539,-101.7605 275.1856,-87.566 301.3828,-77.2742"/>
<polygon fill="#191970" stroke="#191970" points="302.8609,-80.454 310.8886,-73.5398 300.3013,-73.9387 302.8609,-80.454"/>
</g>
<!-- Node18 -->
<g id="node9" class="node">
<title>Node18</title>
<g id="a_node9"><a xlink:href="a00026.html" target="_top" xlink:title="Declarations and macros for controlling and manipulating the lifter. ">
<polygon fill="none" stroke="#ff0000" points="375.5566,-55.5 375.5566,-73.5 418.2412,-73.5 418.2412,-55.5 375.5566,-55.5"/>
<text text-anchor="middle" x="396.8989" y="-61.5" font-family="Helvetica,sans-Serif" font-size="10.00" fill="#000000">lifter.h</text>
</a>
</g>
</g>
<!-- Node1&#45;&gt;Node18 -->
<g id="edge8" class="edge">
<title>Node1&#45;&gt;Node18</title>
<path fill="none" stroke="#191970" d="M215.8752,-112.6196C218.9001,-111.7153 221.9717,-110.8191 224.8989,-110 284.6594,-93.2787 302.6166,-91.9307 365.6734,-74.2342"/>
<polygon fill="#191970" stroke="#191970" points="366.6483,-77.5958 375.3144,-71.5008 364.7389,-70.8612 366.6483,-77.5958"/>
</g>
<!-- Node18&#45;&gt;Node12 -->
<g id="edge9" class="edge">
<title>Node18&#45;&gt;Node12</title>
<path fill="none" stroke="#191970" d="M375.2538,-57.1964C347.513,-47.836 299.1528,-31.5182 266.8329,-20.6127"/>
<polygon fill="#191970" stroke="#191970" points="267.5437,-17.1587 256.9496,-17.2778 265.3057,-23.7913 267.5437,-17.1587"/>
</g>
</g>
</svg>
