<?xml version="1.0" encoding="UTF-8" standalone="no"?>
<!DOCTYPE svg PUBLIC "-//W3C//DTD SVG 1.1//EN"
 "http://www.w3.org/Graphics/SVG/1.1/DTD/svg11.dtd">
<!-- Generated by graphviz version 2.40.1 (20161225.0304)
 -->
<!-- Title: set_claw_motor Pages: 1 -->
<svg width="324pt" height="64pt"
 viewBox="0.00 0.00 323.66 64.00" xmlns="http://www.w3.org/2000/svg" xmlns:xlink="http://www.w3.org/1999/xlink">
<g id="graph0" class="graph" transform="scale(1 1) rotate(0) translate(4 60)">
<title>set_claw_motor</title>
<!-- Node27 -->
<g id="node1" class="node">
<title>Node27</title>
<polygon fill="#bfbfbf" stroke="#000000" points="0,-18.5 0,-36.5 86.0293,-36.5 86.0293,-18.5 0,-18.5"/>
<text text-anchor="middle" x="43.0146" y="-24.5" font-family="Helvetica,sans-Serif" font-size="10.00" fill="#000000">set_claw_motor</text>
</g>
<!-- Node28 -->
<g id="node2" class="node">
<title>Node28</title>
<g id="a_node2"><a xlink:href="a00080.html#a3c7ca506bbc071fa740de13805b7f376" target="_top" xlink:title="Runs the user autonomous code. ">
<polygon fill="none" stroke="#000000" points="122.5859,-37.5 122.5859,-55.5 193.625,-55.5 193.625,-37.5 122.5859,-37.5"/>
<text text-anchor="middle" x="158.1055" y="-43.5" font-family="Helvetica,sans-Serif" font-size="10.00" fill="#000000">autonomous</text>
</a>
</g>
</g>
<!-- Node27&#45;&gt;Node28 -->
<g id="edge1" class="edge">
<title>Node27&#45;&gt;Node28</title>
<path fill="none" stroke="#191970" d="M96.1874,-36.2781C105.1298,-37.7544 114.2138,-39.2541 122.5691,-40.6334"/>
<polygon fill="#191970" stroke="#191970" points="96.6342,-32.8046 86.1977,-34.629 95.494,-39.7111 96.6342,-32.8046"/>
</g>
<!-- Node29 -->
<g id="node3" class="node">
<title>Node29</title>
<g id="a_node3"><a xlink:href="a00086.html#a0122b78972344264b8a276a559cfce4a" target="_top" xlink:title="Updates the claw motor values. ">
<polygon fill="none" stroke="#000000" points="122.0293,-.5 122.0293,-18.5 194.1816,-18.5 194.1816,-.5 122.0293,-.5"/>
<text text-anchor="middle" x="158.1055" y="-6.5" font-family="Helvetica,sans-Serif" font-size="10.00" fill="#000000">update_claw</text>
</a>
</g>
</g>
<!-- Node27&#45;&gt;Node29 -->
<g id="edge2" class="edge">
<title>Node27&#45;&gt;Node29</title>
<path fill="none" stroke="#191970" d="M96.2549,-19.1733C104.9136,-17.8191 113.7031,-16.4445 121.8332,-15.1729"/>
<polygon fill="#191970" stroke="#191970" points="95.5367,-15.743 86.1977,-20.7463 96.6184,-22.6589 95.5367,-15.743"/>
</g>
<!-- Node30 -->
<g id="node4" class="node">
<title>Node30</title>
<g id="a_node4"><a xlink:href="a00134.html#ac71a94af413917f27d108e95c4d6f6a7" target="_top" xlink:title="Runs the user operator control code. ">
<polygon fill="none" stroke="#000000" points="230.1816,-.5 230.1816,-18.5 315.6641,-18.5 315.6641,-.5 230.1816,-.5"/>
<text text-anchor="middle" x="272.9229" y="-6.5" font-family="Helvetica,sans-Serif" font-size="10.00" fill="#000000">operatorControl</text>
</a>
</g>
</g>
<!-- Node29&#45;&gt;Node30 -->
<g id="edge3" class="edge">
<title>Node29&#45;&gt;Node30</title>
<path fill="none" stroke="#191970" d="M204.4997,-9.5C212.9273,-9.5 221.6839,-9.5 230.0058,-9.5"/>
<polygon fill="#191970" stroke="#191970" points="204.4344,-6.0001 194.4344,-9.5 204.4344,-13.0001 204.4344,-6.0001"/>
</g>
</g>
</svg>
