<?xml version="1.0" encoding="UTF-8" standalone="no"?>
<!DOCTYPE svg PUBLIC "-//W3C//DTD SVG 1.1//EN"
 "http://www.w3.org/Graphics/SVG/1.1/DTD/svg11.dtd">
<!-- Generated by graphviz version 2.40.1 (20161225.0304)
 -->
<!-- Title: list_iterator_new Pages: 1 -->
<svg width="304pt" height="101pt"
 viewBox="0.00 0.00 304.21 101.00" xmlns="http://www.w3.org/2000/svg" xmlns:xlink="http://www.w3.org/1999/xlink">
<g id="graph0" class="graph" transform="scale(1 1) rotate(0) translate(4 97)">
<title>list_iterator_new</title>
<!-- Node24 -->
<g id="node1" class="node">
<title>Node24</title>
<polygon fill="#bfbfbf" stroke="#000000" points="0,-37.5 0,-55.5 88.8125,-55.5 88.8125,-37.5 0,-37.5"/>
<text text-anchor="middle" x="44.4063" y="-43.5" font-family="Helvetica,sans-Serif" font-size="10.00" fill="#000000">list_iterator_new</text>
</g>
<!-- Node25 -->
<g id="node2" class="node">
<title>Node25</title>
<g id="a_node2"><a xlink:href="a00110.html#ab3dacc64ceb63b0a0849312b0a14c91c" target="_top" xlink:title="list_at">
<polygon fill="none" stroke="#000000" points="138.9897,-74.5 138.9897,-92.5 181.1128,-92.5 181.1128,-74.5 138.9897,-74.5"/>
<text text-anchor="middle" x="160.0513" y="-80.5" font-family="Helvetica,sans-Serif" font-size="10.00" fill="#000000">list_at</text>
</a>
</g>
</g>
<!-- Node24&#45;&gt;Node25 -->
<g id="edge1" class="edge">
<title>Node24&#45;&gt;Node25</title>
<path fill="none" stroke="#191970" d="M82.4631,-58.6761C101.2471,-64.6859 123.1947,-71.7079 138.9442,-76.7469"/>
<polygon fill="#191970" stroke="#191970" points="83.2872,-55.265 72.6962,-55.5512 81.154,-61.9321 83.2872,-55.265"/>
</g>
<!-- Node26 -->
<g id="node3" class="node">
<title>Node26</title>
<g id="a_node3"><a xlink:href="a00110.html#a5d73352b7bfa0c5a8b33289d7b27a374" target="_top" xlink:title="list_find">
<polygon fill="none" stroke="#000000" points="135.0981,-37.5 135.0981,-55.5 185.0044,-55.5 185.0044,-37.5 135.0981,-37.5"/>
<text text-anchor="middle" x="160.0513" y="-43.5" font-family="Helvetica,sans-Serif" font-size="10.00" fill="#000000">list_find</text>
</a>
</g>
</g>
<!-- Node24&#45;&gt;Node26 -->
<g id="edge2" class="edge">
<title>Node24&#45;&gt;Node26</title>
<path fill="none" stroke="#191970" d="M99.4357,-46.5C111.8267,-46.5 124.3892,-46.5 134.8399,-46.5"/>
<polygon fill="#191970" stroke="#191970" points="99.1177,-43.0001 89.1176,-46.5 99.1176,-50.0001 99.1177,-43.0001"/>
</g>
<!-- Node27 -->
<g id="node4" class="node">
<title>Node27</title>
<g id="a_node4"><a xlink:href="a00140.html#a230cdcefb410a429fb6baba1f88fc9ba" target="_top" xlink:title="routine_task">
<polygon fill="none" stroke="#000000" points="124.8125,-.5 124.8125,-18.5 195.29,-18.5 195.29,-.5 124.8125,-.5"/>
<text text-anchor="middle" x="160.0513" y="-6.5" font-family="Helvetica,sans-Serif" font-size="10.00" fill="#000000">routine_task</text>
</a>
</g>
</g>
<!-- Node24&#45;&gt;Node27 -->
<g id="edge3" class="edge">
<title>Node24&#45;&gt;Node27</title>
<path fill="none" stroke="#191970" d="M82.3426,-34.3625C98.4033,-29.2239 116.7947,-23.3397 131.6526,-18.586"/>
<polygon fill="#191970" stroke="#191970" points="81.154,-31.0679 72.6962,-37.4488 83.2872,-37.735 81.154,-31.0679"/>
</g>
<!-- Node28 -->
<g id="node5" class="node">
<title>Node28</title>
<g id="a_node5"><a xlink:href="a00140.html#ab873e24fcc59a2bf7844618b664a5d26" target="_top" xlink:title="init_routine">
<polygon fill="none" stroke="#ff0000" points="231.29,-.5 231.29,-18.5 296.2109,-18.5 296.2109,-.5 231.29,-.5"/>
<text text-anchor="middle" x="263.7505" y="-6.5" font-family="Helvetica,sans-Serif" font-size="10.00" fill="#000000">init_routine</text>
</a>
</g>
</g>
<!-- Node27&#45;&gt;Node28 -->
<g id="edge4" class="edge">
<title>Node27&#45;&gt;Node28</title>
<path fill="none" stroke="#191970" d="M205.6603,-9.5C214.1763,-9.5 222.9202,-9.5 230.955,-9.5"/>
<polygon fill="#191970" stroke="#191970" points="205.4487,-6.0001 195.4486,-9.5 205.4486,-13.0001 205.4487,-6.0001"/>
</g>
</g>
</svg>
