<?xml version="1.0" encoding="UTF-8" standalone="no"?>
<!DOCTYPE svg PUBLIC "-//W3C//DTD SVG 1.1//EN"
 "http://www.w3.org/Graphics/SVG/1.1/DTD/svg11.dtd">
<!-- Generated by graphviz version 2.40.1 (20161225.0304)
 -->
<!-- Title: raise_intake Pages: 1 -->
<svg width="355pt" height="27pt"
 viewBox="0.00 0.00 354.78 27.00" xmlns="http://www.w3.org/2000/svg" xmlns:xlink="http://www.w3.org/1999/xlink">
<g id="graph0" class="graph" transform="scale(1 1) rotate(0) translate(4 23)">
<title>raise_intake</title>
<!-- Node12 -->
<g id="node1" class="node">
<title>Node12</title>
<polygon fill="#bfbfbf" stroke="#000000" points="0,-.5 0,-18.5 69.9209,-18.5 69.9209,-.5 0,-.5"/>
<text text-anchor="middle" x="34.9604" y="-6.5" font-family="Helvetica,sans-Serif" font-size="10.00" fill="#000000">raise_intake</text>
</g>
<!-- Node13 -->
<g id="node2" class="node">
<title>Node13</title>
<g id="a_node2"><a xlink:href="a00131.html#ab31e12bb0fa46c77906a048666b699d5" target="_top" xlink:title="sets the intake motor ">
<polygon fill="none" stroke="#000000" points="105.9209,-.5 105.9209,-18.5 198.6299,-18.5 198.6299,-.5 105.9209,-.5"/>
<text text-anchor="middle" x="152.2754" y="-6.5" font-family="Helvetica,sans-Serif" font-size="10.00" fill="#000000">set_intake_motor</text>
</a>
</g>
</g>
<!-- Node12&#45;&gt;Node13 -->
<g id="edge1" class="edge">
<title>Node12&#45;&gt;Node13</title>
<path fill="none" stroke="#191970" d="M70.1588,-9.5C78.2114,-9.5 86.9703,-9.5 95.6689,-9.5"/>
<polygon fill="#191970" stroke="#191970" points="95.8068,-13.0001 105.8068,-9.5 95.8067,-6.0001 95.8068,-13.0001"/>
</g>
<!-- Node14 -->
<g id="node3" class="node">
<title>Node14</title>
<g id="a_node3"><a xlink:href="a00065.html#a9f8b8ae577ef938622024545711f0151" target="_top" xlink:title="Sets the motor speed ignoring the slew controller. ">
<polygon fill="none" stroke="#ff0000" points="234.6299,-.5 234.6299,-18.5 346.7822,-18.5 346.7822,-.5 234.6299,-.5"/>
<text text-anchor="middle" x="290.7061" y="-6.5" font-family="Helvetica,sans-Serif" font-size="10.00" fill="#000000">set_motor_immediate</text>
</a>
</g>
</g>
<!-- Node13&#45;&gt;Node14 -->
<g id="edge2" class="edge">
<title>Node13&#45;&gt;Node14</title>
<path fill="none" stroke="#191970" d="M198.7559,-9.5C206.9983,-9.5 215.7246,-9.5 224.3902,-9.5"/>
<polygon fill="#191970" stroke="#191970" points="224.5024,-13.0001 234.5024,-9.5 224.5023,-6.0001 224.5024,-13.0001"/>
</g>
</g>
</svg>
