<?xml version="1.0" encoding="UTF-8" standalone="no"?>
<!DOCTYPE svg PUBLIC "-//W3C//DTD SVG 1.1//EN"
 "http://www.w3.org/Graphics/SVG/1.1/DTD/svg11.dtd">
<!-- Generated by graphviz version 2.40.1 (20161225.0304)
 -->
<!-- Title: include/drive.h Pages: 1 -->
<svg width="332pt" height="192pt"
 viewBox="0.00 0.00 331.65 192.00" xmlns="http://www.w3.org/2000/svg" xmlns:xlink="http://www.w3.org/1999/xlink">
<g id="graph0" class="graph" transform="scale(1 1) rotate(0) translate(4 188)">
<title>include/drive.h</title>
<!-- Node6 -->
<g id="node1" class="node">
<title>Node6</title>
<polygon fill="#bfbfbf" stroke="#000000" points="150.894,-165.5 150.894,-183.5 231.3765,-183.5 231.3765,-165.5 150.894,-165.5"/>
<text text-anchor="middle" x="191.1353" y="-171.5" font-family="Helvetica,sans-Serif" font-size="10.00" fill="#000000">include/drive.h</text>
</g>
<!-- Node7 -->
<g id="node2" class="node">
<title>Node7</title>
<g id="a_node2"><a xlink:href="a00002.html" target="_top" xlink:title="Autonomous declarations and macros. ">
<polygon fill="none" stroke="#000000" points="0,-55.5 0,-73.5 78.2705,-73.5 78.2705,-55.5 0,-55.5"/>
<text text-anchor="middle" x="39.1353" y="-61.5" font-family="Helvetica,sans-Serif" font-size="10.00" fill="#000000">include/auto.h</text>
</a>
</g>
</g>
<!-- Node6&#45;&gt;Node7 -->
<g id="edge1" class="edge">
<title>Node6&#45;&gt;Node7</title>
<path fill="none" stroke="#191970" d="M163.1573,-160.7852C147.1002,-152.4304 126.8691,-141.0639 110.1353,-129 85.8194,-111.47 60.5964,-86.7038 47.7633,-73.5438"/>
<polygon fill="#191970" stroke="#191970" points="161.5736,-163.9064 172.0712,-165.3389 164.7582,-157.6727 161.5736,-163.9064"/>
</g>
<!-- Node9 -->
<g id="node4" class="node">
<title>Node9</title>
<g id="a_node4"><a xlink:href="a00026.html" target="_top" xlink:title="Declarations and macros for controlling and manipulating the lifter. ">
<polygon fill="none" stroke="#000000" points="119.5591,-110.5 119.5591,-128.5 196.7114,-128.5 196.7114,-110.5 119.5591,-110.5"/>
<text text-anchor="middle" x="158.1353" y="-116.5" font-family="Helvetica,sans-Serif" font-size="10.00" fill="#000000">include/lifter.h</text>
</a>
</g>
</g>
<!-- Node6&#45;&gt;Node9 -->
<g id="edge3" class="edge">
<title>Node6&#45;&gt;Node9</title>
<path fill="none" stroke="#191970" d="M180.3731,-156.563C174.8083,-147.2885 168.2491,-136.3564 163.7029,-128.7795"/>
<polygon fill="#191970" stroke="#191970" points="177.5397,-158.6437 185.686,-165.4179 183.5422,-155.0422 177.5397,-158.6437"/>
</g>
<!-- Node12 -->
<g id="node7" class="node">
<title>Node12</title>
<g id="a_node7"><a xlink:href="a00134.html" target="_top" xlink:title="File for operator control code. ">
<polygon fill="none" stroke="#000000" points="242.623,-55.5 242.623,-73.5 323.6475,-73.5 323.6475,-55.5 242.623,-55.5"/>
<text text-anchor="middle" x="283.1353" y="-61.5" font-family="Helvetica,sans-Serif" font-size="10.00" fill="#000000">src/opcontrol.c</text>
</a>
</g>
</g>
<!-- Node6&#45;&gt;Node12 -->
<g id="edge9" class="edge">
<title>Node6&#45;&gt;Node12</title>
<path fill="none" stroke="#191970" d="M205.2104,-157.1724C215.8355,-144.1407 230.8115,-125.8754 244.1353,-110 254.8366,-97.2492 267.3957,-82.6635 275.3101,-73.5172"/>
<polygon fill="#191970" stroke="#191970" points="202.222,-155.2996 198.6235,-165.2646 207.6508,-159.7186 202.222,-155.2996"/>
</g>
<!-- Node13 -->
<g id="node8" class="node">
<title>Node13</title>
<g id="a_node8"><a xlink:href="a00092.html" target="_top" xlink:title="src/drive.c">
<polygon fill="none" stroke="#000000" points="253.3545,-110.5 253.3545,-128.5 314.916,-128.5 314.916,-110.5 253.3545,-110.5"/>
<text text-anchor="middle" x="284.1353" y="-116.5" font-family="Helvetica,sans-Serif" font-size="10.00" fill="#000000">src/drive.c</text>
</a>
</g>
</g>
<!-- Node6&#45;&gt;Node13 -->
<g id="edge8" class="edge">
<title>Node6&#45;&gt;Node13</title>
<path fill="none" stroke="#191970" d="M215.2624,-160.2313C232.1508,-150.2435 254.2085,-137.1986 268.7554,-128.5956"/>
<polygon fill="#191970" stroke="#191970" points="213.3181,-157.3148 206.4923,-165.4179 216.8814,-163.34 213.3181,-157.3148"/>
</g>
<!-- Node8 -->
<g id="node3" class="node">
<title>Node8</title>
<g id="a_node3"><a xlink:href="a00080.html" target="_top" xlink:title="File for autonomous code. ">
<polygon fill="none" stroke="#000000" points="9.4604,-.5 9.4604,-18.5 68.8101,-18.5 68.8101,-.5 9.4604,-.5"/>
<text text-anchor="middle" x="39.1353" y="-6.5" font-family="Helvetica,sans-Serif" font-size="10.00" fill="#000000">src/auto.c</text>
</a>
</g>
</g>
<!-- Node7&#45;&gt;Node8 -->
<g id="edge2" class="edge">
<title>Node7&#45;&gt;Node8</title>
<path fill="none" stroke="#191970" d="M39.1353,-45.383C39.1353,-36.3738 39.1353,-26.0373 39.1353,-18.7795"/>
<polygon fill="#191970" stroke="#191970" points="35.6354,-45.4178 39.1353,-55.4179 42.6354,-45.4179 35.6354,-45.4178"/>
</g>
<!-- Node9&#45;&gt;Node7 -->
<g id="edge4" class="edge">
<title>Node9&#45;&gt;Node7</title>
<path fill="none" stroke="#191970" d="M129.3424,-106.1924C107.4924,-96.0937 78.0318,-82.4774 58.8149,-73.5956"/>
<polygon fill="#191970" stroke="#191970" points="127.939,-109.3995 138.4848,-110.4179 130.8759,-103.0453 127.939,-109.3995"/>
</g>
<!-- Node10 -->
<g id="node5" class="node">
<title>Node10</title>
<g id="a_node5"><a xlink:href="a00101.html" target="_top" xlink:title="File for initialization code. ">
<polygon fill="none" stroke="#000000" points="95.8003,-55.5 95.8003,-73.5 148.4702,-73.5 148.4702,-55.5 95.8003,-55.5"/>
<text text-anchor="middle" x="122.1353" y="-61.5" font-family="Helvetica,sans-Serif" font-size="10.00" fill="#000000">src/init.c</text>
</a>
</g>
</g>
<!-- Node9&#45;&gt;Node10 -->
<g id="edge5" class="edge">
<title>Node9&#45;&gt;Node10</title>
<path fill="none" stroke="#191970" d="M146.586,-101.8553C140.475,-92.519 133.2207,-81.4361 128.2091,-73.7795"/>
<polygon fill="#191970" stroke="#191970" points="143.7855,-103.9677 152.1906,-110.4179 149.6424,-100.134 143.7855,-103.9677"/>
</g>
<!-- Node11 -->
<g id="node6" class="node">
<title>Node11</title>
<g id="a_node6"><a xlink:href="a00107.html" target="_top" xlink:title="src/lifter.c">
<polygon fill="none" stroke="#000000" points="166.0195,-55.5 166.0195,-73.5 224.251,-73.5 224.251,-55.5 166.0195,-55.5"/>
<text text-anchor="middle" x="195.1353" y="-61.5" font-family="Helvetica,sans-Serif" font-size="10.00" fill="#000000">src/lifter.c</text>
</a>
</g>
</g>
<!-- Node9&#45;&gt;Node11 -->
<g id="edge6" class="edge">
<title>Node9&#45;&gt;Node11</title>
<path fill="none" stroke="#191970" d="M170.0053,-101.8553C176.2861,-92.519 183.7419,-81.4361 188.8927,-73.7795"/>
<polygon fill="#191970" stroke="#191970" points="166.9228,-100.167 164.2451,-110.4179 172.7309,-104.0743 166.9228,-100.167"/>
</g>
<!-- Node9&#45;&gt;Node12 -->
<g id="edge7" class="edge">
<title>Node9&#45;&gt;Node12</title>
<path fill="none" stroke="#191970" d="M188.0715,-106.328C211.0537,-96.2159 242.187,-82.5172 262.4634,-73.5956"/>
<polygon fill="#191970" stroke="#191970" points="186.52,-103.1868 178.7765,-110.4179 189.3392,-109.594 186.52,-103.1868"/>
</g>
</g>
</svg>
