<?xml version="1.0" encoding="UTF-8" standalone="no"?>
<!DOCTYPE svg PUBLIC "-//W3C//DTD SVG 1.1//EN"
 "http://www.w3.org/Graphics/SVG/1.1/DTD/svg11.dtd">
<!-- Generated by graphviz version 2.40.1 (20161225.0304)
 -->
<!-- Title: open_claw Pages: 1 -->
<svg width="310pt" height="64pt"
 viewBox="0.00 0.00 310.31 64.00" xmlns="http://www.w3.org/2000/svg" xmlns:xlink="http://www.w3.org/1999/xlink">
<g id="graph0" class="graph" transform="scale(1 1) rotate(0) translate(4 60)">
<title>open_claw</title>
<!-- Node9 -->
<g id="node1" class="node">
<title>Node9</title>
<polygon fill="#bfbfbf" stroke="#000000" points="0,-18.5 0,-36.5 63.8125,-36.5 63.8125,-18.5 0,-18.5"/>
<text text-anchor="middle" x="31.9063" y="-24.5" font-family="Helvetica,sans-Serif" font-size="10.00" fill="#000000">open_claw</text>
</g>
<!-- Node10 -->
<g id="node2" class="node">
<title>Node10</title>
<g id="a_node2"><a xlink:href="a00065.html#a9f8b8ae577ef938622024545711f0151" target="_top" xlink:title="Sets the motor speed ignoring the slew controller. ">
<polygon fill="none" stroke="#000000" points="99.8125,-18.5 99.8125,-36.5 211.9648,-36.5 211.9648,-18.5 99.8125,-18.5"/>
<text text-anchor="middle" x="155.8887" y="-24.5" font-family="Helvetica,sans-Serif" font-size="10.00" fill="#000000">set_motor_immediate</text>
</a>
</g>
</g>
<!-- Node9&#45;&gt;Node10 -->
<g id="edge1" class="edge">
<title>Node9&#45;&gt;Node10</title>
<path fill="none" stroke="#191970" d="M63.8348,-27.5C71.7585,-27.5 80.5468,-27.5 89.4581,-27.5"/>
<polygon fill="#191970" stroke="#191970" points="89.532,-31.0001 99.532,-27.5 89.5319,-24.0001 89.532,-31.0001"/>
</g>
<!-- Node11 -->
<g id="node3" class="node">
<title>Node11</title>
<g id="a_node3"><a xlink:href="a00035.html#af3668f40d1ad1b4f3418869ac9a31f34" target="_top" xlink:title="prints a info message ">
<polygon fill="none" stroke="#000000" points="253.2358,-37.5 253.2358,-55.5 297.0435,-55.5 297.0435,-37.5 253.2358,-37.5"/>
<text text-anchor="middle" x="275.1396" y="-43.5" font-family="Helvetica,sans-Serif" font-size="10.00" fill="#000000">debug</text>
</a>
</g>
</g>
<!-- Node10&#45;&gt;Node11 -->
<g id="edge2" class="edge">
<title>Node10&#45;&gt;Node11</title>
<path fill="none" stroke="#191970" d="M212.0223,-36.4436C222.7583,-38.1542 233.6458,-39.8889 243.2861,-41.4248"/>
<polygon fill="#191970" stroke="#191970" points="242.765,-44.8859 253.1912,-43.003 243.8665,-37.9731 242.765,-44.8859"/>
</g>
<!-- Node12 -->
<g id="node4" class="node">
<title>Node12</title>
<g id="a_node4"><a xlink:href="a00143.html#a321758941d88b75783955c819bb75005" target="_top" xlink:title="Initializes the slew rate controller. ">
<polygon fill="none" stroke="#ff0000" points="247.9648,-.5 247.9648,-18.5 302.3145,-18.5 302.3145,-.5 247.9648,-.5"/>
<text text-anchor="middle" x="275.1396" y="-6.5" font-family="Helvetica,sans-Serif" font-size="10.00" fill="#000000">init_slew</text>
</a>
</g>
</g>
<!-- Node10&#45;&gt;Node12 -->
<g id="edge3" class="edge">
<title>Node10&#45;&gt;Node12</title>
<path fill="none" stroke="#191970" d="M212.0223,-19.0271C220.7723,-17.7063 229.623,-16.3704 237.8171,-15.1336"/>
<polygon fill="#191970" stroke="#191970" points="238.4225,-18.5819 247.7881,-13.6285 237.3777,-11.6603 238.4225,-18.5819"/>
</g>
</g>
</svg>
