<?xml version="1.0" encoding="UTF-8" standalone="no"?>
<!DOCTYPE svg PUBLIC "-//W3C//DTD SVG 1.1//EN"
 "http://www.w3.org/Graphics/SVG/1.1/DTD/svg11.dtd">
<!-- Generated by graphviz version 2.40.1 (20161225.0304)
 -->
<!-- Title: raise_secondary_lifter Pages: 1 -->
<svg width="411pt" height="37pt"
 viewBox="0.00 0.00 411.47 37.00" xmlns="http://www.w3.org/2000/svg" xmlns:xlink="http://www.w3.org/1999/xlink">
<g id="graph0" class="graph" transform="scale(1 1) rotate(0) translate(4 33)">
<title>raise_secondary_lifter</title>
<!-- Node36 -->
<g id="node1" class="node">
<title>Node36</title>
<polygon fill="#bfbfbf" stroke="#000000" points="0,-5.5 0,-23.5 113.8271,-23.5 113.8271,-5.5 0,-5.5"/>
<text text-anchor="middle" x="56.9136" y="-11.5" font-family="Helvetica,sans-Serif" font-size="10.00" fill="#000000">raise_secondary_lifter</text>
</g>
<!-- Node37 -->
<g id="node2" class="node">
<title>Node37</title>
<g id="a_node2"><a xlink:href="a00107.html#a78640d547d9361951a92d0bc00939536" target="_top" xlink:title="Sets the secondary lifter motors to the given value. ">
<polygon fill="none" stroke="#000000" points="149.8271,-.5 149.8271,-28.5 255.3193,-28.5 255.3193,-.5 149.8271,-.5"/>
<text text-anchor="start" x="157.8271" y="-16.5" font-family="Helvetica,sans-Serif" font-size="10.00" fill="#000000">set_secondary_lifter</text>
<text text-anchor="middle" x="202.5732" y="-6.5" font-family="Helvetica,sans-Serif" font-size="10.00" fill="#000000">_motors</text>
</a>
</g>
</g>
<!-- Node36&#45;&gt;Node37 -->
<g id="edge1" class="edge">
<title>Node36&#45;&gt;Node37</title>
<path fill="none" stroke="#191970" d="M114.0641,-14.5C122.3369,-14.5 130.893,-14.5 139.2777,-14.5"/>
<polygon fill="#191970" stroke="#191970" points="139.3895,-18.0001 149.3894,-14.5 139.3894,-11.0001 139.3895,-18.0001"/>
</g>
<!-- Node38 -->
<g id="node3" class="node">
<title>Node38</title>
<g id="a_node3"><a xlink:href="a00065.html#a9f8b8ae577ef938622024545711f0151" target="_top" xlink:title="Sets the motor speed ignoring the slew controller. ">
<polygon fill="none" stroke="#ff0000" points="291.3193,-5.5 291.3193,-23.5 403.4717,-23.5 403.4717,-5.5 291.3193,-5.5"/>
<text text-anchor="middle" x="347.3955" y="-11.5" font-family="Helvetica,sans-Serif" font-size="10.00" fill="#000000">set_motor_immediate</text>
</a>
</g>
</g>
<!-- Node37&#45;&gt;Node38 -->
<g id="edge2" class="edge">
<title>Node37&#45;&gt;Node38</title>
<path fill="none" stroke="#191970" d="M255.6774,-14.5C263.827,-14.5 272.3286,-14.5 280.7266,-14.5"/>
<polygon fill="#191970" stroke="#191970" points="280.8883,-18.0001 290.8882,-14.5 280.8882,-11.0001 280.8883,-18.0001"/>
</g>
</g>
</svg>
