<?xml version="1.0" encoding="UTF-8" standalone="no"?>
<!DOCTYPE svg PUBLIC "-//W3C//DTD SVG 1.1//EN"
 "http://www.w3.org/Graphics/SVG/1.1/DTD/svg11.dtd">
<!-- Generated by graphviz version 2.40.1 (20161225.0304)
 -->
<!-- Title: include/log.h Pages: 1 -->
<svg width="86pt" height="137pt"
 viewBox="0.00 0.00 85.64 137.00" xmlns="http://www.w3.org/2000/svg" xmlns:xlink="http://www.w3.org/1999/xlink">
<g id="graph0" class="graph" transform="scale(1 1) rotate(0) translate(4 133)">
<title>include/log.h</title>
<!-- Node0 -->
<g id="node1" class="node">
<title>Node0</title>
<polygon fill="#bfbfbf" stroke="#000000" points="5.4854,-110.5 5.4854,-128.5 77.6377,-128.5 77.6377,-110.5 5.4854,-110.5"/>
<text text-anchor="middle" x="41.5615" y="-116.5" font-family="Helvetica,sans-Serif" font-size="10.00" fill="#000000">include/log.h</text>
</g>
<!-- Node1 -->
<g id="node2" class="node">
<title>Node1</title>
<g id="a_node2"><a xlink:href="a00023.html" target="_top" xlink:title="LCD wrapper functions and macros. ">
<polygon fill="none" stroke="#000000" points="0,-55.5 0,-73.5 37.123,-73.5 37.123,-55.5 0,-55.5"/>
<text text-anchor="middle" x="18.5615" y="-61.5" font-family="Helvetica,sans-Serif" font-size="10.00" fill="#000000">lcd.h</text>
</a>
</g>
</g>
<!-- Node0&#45;&gt;Node1 -->
<g id="edge1" class="edge">
<title>Node0&#45;&gt;Node1</title>
<path fill="none" stroke="#191970" d="M37.7635,-110.4179C34.6858,-103.0581 30.246,-92.441 26.4106,-83.2695"/>
<polygon fill="#191970" stroke="#191970" points="29.5292,-81.6549 22.442,-73.7795 23.0711,-84.3556 29.5292,-81.6549"/>
</g>
<!-- Node2 -->
<g id="node3" class="node">
<title>Node2</title>
<polygon fill="none" stroke="#bfbfbf" points="21.3325,-.5 21.3325,-18.5 61.7905,-18.5 61.7905,-.5 21.3325,-.5"/>
<text text-anchor="middle" x="41.5615" y="-6.5" font-family="Helvetica,sans-Serif" font-size="10.00" fill="#000000">API.h</text>
</g>
<!-- Node0&#45;&gt;Node2 -->
<g id="edge3" class="edge">
<title>Node0&#45;&gt;Node2</title>
<path fill="none" stroke="#191970" d="M42.8501,-110.4596C44.0868,-101.2954 45.866,-86.6959 46.5615,-74 47.3978,-58.734 45.931,-41.4659 44.3739,-28.6414"/>
<polygon fill="#191970" stroke="#191970" points="47.8359,-28.1233 43.038,-18.6771 40.8979,-29.0536 47.8359,-28.1233"/>
</g>
<!-- Node1&#45;&gt;Node2 -->
<g id="edge2" class="edge">
<title>Node1&#45;&gt;Node2</title>
<path fill="none" stroke="#191970" d="M22.3595,-55.4179C25.4372,-48.0581 29.8771,-37.441 33.7125,-28.2695"/>
<polygon fill="#191970" stroke="#191970" points="37.0519,-29.3556 37.681,-18.7795 30.5939,-26.6549 37.0519,-29.3556"/>
</g>
</g>
</svg>
