<?xml version="1.0" encoding="UTF-8" standalone="no"?>
<!DOCTYPE svg PUBLIC "-//W3C//DTD SVG 1.1//EN"
 "http://www.w3.org/Graphics/SVG/1.1/DTD/svg11.dtd">
<!-- Generated by graphviz version 2.40.1 (20161225.0304)
 -->
<!-- Title: init_slew Pages: 1 -->
<svg width="263pt" height="64pt"
 viewBox="0.00 0.00 262.53 64.00" xmlns="http://www.w3.org/2000/svg" xmlns:xlink="http://www.w3.org/1999/xlink">
<g id="graph0" class="graph" transform="scale(1 1) rotate(0) translate(4 60)">
<title>init_slew</title>
<!-- Node3 -->
<g id="node1" class="node">
<title>Node3</title>
<polygon fill="#bfbfbf" stroke="#000000" points="0,-18.5 0,-36.5 54.3496,-36.5 54.3496,-18.5 0,-18.5"/>
<text text-anchor="middle" x="27.1748" y="-24.5" font-family="Helvetica,sans-Serif" font-size="10.00" fill="#000000">init_slew</text>
</g>
<!-- Node4 -->
<g id="node2" class="node">
<title>Node4</title>
<g id="a_node2"><a xlink:href="a00143.html#a807a87c5df438fde21c1e8213906695b" target="_top" xlink:title="Closes the distance between the desired motor value and the current motor value by half for each moto...">
<polygon fill="none" stroke="#000000" points="90.3496,-37.5 90.3496,-55.5 167.4971,-55.5 167.4971,-37.5 90.3496,-37.5"/>
<text text-anchor="middle" x="128.9233" y="-43.5" font-family="Helvetica,sans-Serif" font-size="10.00" fill="#000000">updateMotors</text>
</a>
</g>
</g>
<!-- Node3&#45;&gt;Node4 -->
<g id="edge1" class="edge">
<title>Node3&#45;&gt;Node4</title>
<path fill="none" stroke="#191970" d="M54.4415,-32.5917C62.3967,-34.0772 71.3413,-35.7474 80.1989,-37.4015"/>
<polygon fill="#191970" stroke="#191970" points="79.6325,-40.8561 90.105,-39.2513 80.9175,-33.975 79.6325,-40.8561"/>
</g>
<!-- Node5 -->
<g id="node3" class="node">
<title>Node5</title>
<g id="a_node3"><a xlink:href="a00035.html#a0bec2cf5fff7f607bc510b74aba9887c" target="_top" xlink:title="prints a warning message and displays on lcd. ">
<polygon fill="none" stroke="#000000" points="103.4136,-.5 103.4136,-18.5 154.4331,-18.5 154.4331,-.5 103.4136,-.5"/>
<text text-anchor="middle" x="128.9233" y="-6.5" font-family="Helvetica,sans-Serif" font-size="10.00" fill="#000000">warning</text>
</a>
</g>
</g>
<!-- Node3&#45;&gt;Node5 -->
<g id="edge2" class="edge">
<title>Node3&#45;&gt;Node5</title>
<path fill="none" stroke="#191970" d="M54.4415,-22.6763C66.4253,-20.5563 80.6545,-18.0391 93.449,-15.7756"/>
<polygon fill="#191970" stroke="#191970" points="94.0947,-19.2159 103.332,-14.0273 92.8752,-12.3229 94.0947,-19.2159"/>
</g>
<!-- Node6 -->
<g id="node4" class="node">
<title>Node6</title>
<g id="a_node4"><a xlink:href="a00122.html#afff22aff6749311a684a559cac3ac8bd" target="_top" xlink:title="log_info">
<polygon fill="none" stroke="#000000" points="203.4971,-.5 203.4971,-18.5 254.5264,-18.5 254.5264,-.5 203.4971,-.5"/>
<text text-anchor="middle" x="229.0117" y="-6.5" font-family="Helvetica,sans-Serif" font-size="10.00" fill="#000000">log_info</text>
</a>
</g>
</g>
<!-- Node5&#45;&gt;Node6 -->
<g id="edge3" class="edge">
<title>Node5&#45;&gt;Node6</title>
<path fill="none" stroke="#191970" d="M154.4388,-9.5C166.1128,-9.5 180.1526,-9.5 192.8863,-9.5"/>
<polygon fill="#191970" stroke="#191970" points="193.1948,-13.0001 203.1948,-9.5 193.1948,-6.0001 193.1948,-13.0001"/>
</g>
</g>
</svg>
