<?xml version="1.0" encoding="UTF-8" standalone="no"?>
<!DOCTYPE svg PUBLIC "-//W3C//DTD SVG 1.1//EN"
 "http://www.w3.org/Graphics/SVG/1.1/DTD/svg11.dtd">
<!-- Generated by graphviz version 2.40.1 (20161225.0304)
 -->
<!-- Title: get_encoder_ticks Pages: 1 -->
<svg width="393pt" height="64pt"
 viewBox="0.00 0.00 392.61 64.00" xmlns="http://www.w3.org/2000/svg" xmlns:xlink="http://www.w3.org/1999/xlink">
<g id="graph0" class="graph" transform="scale(1 1) rotate(0) translate(4 60)">
<title>get_encoder_ticks</title>
<!-- Node1 -->
<g id="node1" class="node">
<title>Node1</title>
<polygon fill="#bfbfbf" stroke="#000000" points="0,-18.5 0,-36.5 97.1621,-36.5 97.1621,-18.5 0,-18.5"/>
<text text-anchor="middle" x="48.5811" y="-24.5" font-family="Helvetica,sans-Serif" font-size="10.00" fill="#000000">get_encoder_ticks</text>
</g>
<!-- Node2 -->
<g id="node2" class="node">
<title>Node2</title>
<g id="a_node2"><a xlink:href="a00119.html#a5dd17937f5561711cd12cdefa8d31869" target="_top" xlink:title="calculate_encoder_angle">
<polygon fill="none" stroke="#000000" points="141.7705,-37.5 141.7705,-55.5 268.9668,-55.5 268.9668,-37.5 141.7705,-37.5"/>
<text text-anchor="middle" x="205.3687" y="-43.5" font-family="Helvetica,sans-Serif" font-size="10.00" fill="#000000">calculate_encoder_angle</text>
</a>
</g>
</g>
<!-- Node1&#45;&gt;Node2 -->
<g id="edge1" class="edge">
<title>Node1&#45;&gt;Node2</title>
<path fill="none" stroke="#191970" d="M107.4065,-34.6287C118.583,-35.9831 130.3264,-37.4062 141.6466,-38.778"/>
<polygon fill="#191970" stroke="#191970" points="107.6786,-31.1361 97.3302,-33.4076 106.8365,-38.0853 107.6786,-31.1361"/>
</g>
<!-- Node4 -->
<g id="node4" class="node">
<title>Node4</title>
<g id="a_node4"><a xlink:href="a00119.html#a1cb0c9fa1e6ff2079deb836569d75d87" target="_top" xlink:title="calculate_encoder_odemetry">
<polygon fill="none" stroke="#000000" points="133.1621,-.5 133.1621,-18.5 277.5752,-18.5 277.5752,-.5 133.1621,-.5"/>
<text text-anchor="middle" x="205.3687" y="-6.5" font-family="Helvetica,sans-Serif" font-size="10.00" fill="#000000">calculate_encoder_odemetry</text>
</a>
</g>
</g>
<!-- Node1&#45;&gt;Node4 -->
<g id="edge3" class="edge">
<title>Node1&#45;&gt;Node4</title>
<path fill="none" stroke="#191970" d="M107.3671,-20.7511C115.7484,-19.7888 124.4494,-18.7899 133.0521,-17.8023"/>
<polygon fill="#191970" stroke="#191970" points="106.8657,-17.2855 97.3302,-21.9034 107.6642,-24.2399 106.8657,-17.2855"/>
</g>
<!-- Node3 -->
<g id="node3" class="node">
<title>Node3</title>
<g id="a_node3"><a xlink:href="a00080.html#a3c7ca506bbc071fa740de13805b7f376" target="_top" xlink:title="Runs the user autonomous code. ">
<polygon fill="none" stroke="#000000" points="313.5752,-37.5 313.5752,-55.5 384.6143,-55.5 384.6143,-37.5 313.5752,-37.5"/>
<text text-anchor="middle" x="349.0947" y="-43.5" font-family="Helvetica,sans-Serif" font-size="10.00" fill="#000000">autonomous</text>
</a>
</g>
</g>
<!-- Node2&#45;&gt;Node3 -->
<g id="edge2" class="edge">
<title>Node2&#45;&gt;Node3</title>
<path fill="none" stroke="#191970" d="M279.5814,-46.5C291.3539,-46.5 303.0422,-46.5 313.3808,-46.5"/>
<polygon fill="#191970" stroke="#191970" points="279.246,-43.0001 269.246,-46.5 279.246,-50.0001 279.246,-43.0001"/>
</g>
</g>
</svg>
