<?xml version="1.0" encoding="UTF-8" standalone="no"?>
<!DOCTYPE svg PUBLIC "-//W3C//DTD SVG 1.1//EN"
 "http://www.w3.org/Graphics/SVG/1.1/DTD/svg11.dtd">
<!-- Generated by graphviz version 2.40.1 (20161225.0304)
 -->
<!-- Title: include/partner.h Pages: 1 -->
<svg width="446pt" height="192pt"
 viewBox="0.00 0.00 446.29 192.00" xmlns="http://www.w3.org/2000/svg" xmlns:xlink="http://www.w3.org/1999/xlink">
<g id="graph0" class="graph" transform="scale(1 1) rotate(0) translate(4 188)">
<title>include/partner.h</title>
<!-- Node5 -->
<g id="node1" class="node">
<title>Node5</title>
<polygon fill="#bfbfbf" stroke="#000000" points="194.8081,-165.5 194.8081,-183.5 284.7534,-183.5 284.7534,-165.5 194.8081,-165.5"/>
<text text-anchor="middle" x="239.7808" y="-171.5" font-family="Helvetica,sans-Serif" font-size="10.00" fill="#000000">include/partner.h</text>
</g>
<!-- Node6 -->
<g id="node2" class="node">
<title>Node6</title>
<g id="a_node2"><a xlink:href="a00014.html" target="_top" xlink:title="Drive base definitions and enumerations. ">
<polygon fill="none" stroke="#000000" points="86.5396,-110.5 86.5396,-128.5 167.022,-128.5 167.022,-110.5 86.5396,-110.5"/>
<text text-anchor="middle" x="126.7808" y="-116.5" font-family="Helvetica,sans-Serif" font-size="10.00" fill="#000000">include/drive.h</text>
</a>
</g>
</g>
<!-- Node5&#45;&gt;Node6 -->
<g id="edge1" class="edge">
<title>Node5&#45;&gt;Node6</title>
<path fill="none" stroke="#191970" d="M211.8797,-160.9198C191.1903,-150.8498 163.5525,-137.3977 145.4681,-128.5956"/>
<polygon fill="#191970" stroke="#191970" points="210.5978,-164.1884 221.1211,-165.4179 213.6614,-157.8944 210.5978,-164.1884"/>
</g>
<!-- Node9 -->
<g id="node4" class="node">
<title>Node9</title>
<g id="a_node4"><a xlink:href="a00026.html" target="_top" xlink:title="Declarations and macros for controlling and manipulating the lifter. ">
<polygon fill="none" stroke="#ff0000" points="156.2046,-55.5 156.2046,-73.5 233.3569,-73.5 233.3569,-55.5 156.2046,-55.5"/>
<text text-anchor="middle" x="194.7808" y="-61.5" font-family="Helvetica,sans-Serif" font-size="10.00" fill="#000000">include/lifter.h</text>
</a>
</g>
</g>
<!-- Node5&#45;&gt;Node9 -->
<g id="edge8" class="edge">
<title>Node5&#45;&gt;Node9</title>
<path fill="none" stroke="#191970" d="M228.3521,-156.7449C223.4041,-148.5308 217.8309,-138.505 213.7808,-129 205.7268,-110.0988 199.7666,-86.7004 196.8279,-73.9222"/>
<polygon fill="#191970" stroke="#191970" points="225.4913,-158.7723 233.7447,-165.4155 231.4355,-155.0754 225.4913,-158.7723"/>
</g>
<!-- Node14 -->
<g id="node7" class="node">
<title>Node14</title>
<g id="a_node7"><a xlink:href="a00131.html" target="_top" xlink:title="src/mobile_goal_intake.c">
<polygon fill="none" stroke="#000000" points="222.7515,-110.5 222.7515,-128.5 348.8101,-128.5 348.8101,-110.5 222.7515,-110.5"/>
<text text-anchor="middle" x="285.7808" y="-116.5" font-family="Helvetica,sans-Serif" font-size="10.00" fill="#000000">src/mobile_goal_intake.c</text>
</a>
</g>
</g>
<!-- Node5&#45;&gt;Node14 -->
<g id="edge9" class="edge">
<title>Node5&#45;&gt;Node14</title>
<path fill="none" stroke="#191970" d="M253.8105,-157.7253C261.7646,-148.215 271.4159,-136.6754 278.0198,-128.7795"/>
<polygon fill="#191970" stroke="#191970" points="251.1075,-155.5016 247.3767,-165.4179 256.4771,-159.9925 251.1075,-155.5016"/>
</g>
<!-- Node15 -->
<g id="node8" class="node">
<title>Node15</title>
<g id="a_node8"><a xlink:href="a00137.html" target="_top" xlink:title="src/partner.c">
<polygon fill="none" stroke="#000000" points="367.2686,-110.5 367.2686,-128.5 438.293,-128.5 438.293,-110.5 367.2686,-110.5"/>
<text text-anchor="middle" x="402.7808" y="-116.5" font-family="Helvetica,sans-Serif" font-size="10.00" fill="#000000">src/partner.c</text>
</a>
</g>
</g>
<!-- Node5&#45;&gt;Node15 -->
<g id="edge10" class="edge">
<title>Node5&#45;&gt;Node15</title>
<path fill="none" stroke="#191970" d="M276.4634,-162.1224C306.7305,-151.9096 348.9657,-137.6584 376.0956,-128.5042"/>
<polygon fill="#191970" stroke="#191970" points="275.053,-158.9044 266.6969,-165.4179 277.2911,-165.537 275.053,-158.9044"/>
</g>
<!-- Node7 -->
<g id="node3" class="node">
<title>Node7</title>
<g id="a_node3"><a xlink:href="a00002.html" target="_top" xlink:title="Autonomous declarations and macros. ">
<polygon fill="none" stroke="#ff0000" points="153.6455,-.5 153.6455,-18.5 231.916,-18.5 231.916,-.5 153.6455,-.5"/>
<text text-anchor="middle" x="192.7808" y="-6.5" font-family="Helvetica,sans-Serif" font-size="10.00" fill="#000000">include/auto.h</text>
</a>
</g>
</g>
<!-- Node6&#45;&gt;Node7 -->
<g id="edge2" class="edge">
<title>Node6&#45;&gt;Node7</title>
<path fill="none" stroke="#191970" d="M130.1902,-100.1433C133.1478,-86.7634 138.318,-68.9351 146.7808,-55 155.6434,-40.4064 170.1985,-27.1022 180.5618,-18.701"/>
<polygon fill="#191970" stroke="#191970" points="126.7174,-99.6628 128.2026,-110.153 133.5833,-101.0262 126.7174,-99.6628"/>
</g>
<!-- Node6&#45;&gt;Node9 -->
<g id="edge3" class="edge">
<title>Node6&#45;&gt;Node9</title>
<path fill="none" stroke="#191970" d="M146.1079,-103.8678C158.1183,-94.1535 173.1513,-81.9944 183.308,-73.7795"/>
<polygon fill="#191970" stroke="#191970" points="143.5837,-101.4078 138.0096,-110.4179 147.9858,-106.8504 143.5837,-101.4078"/>
</g>
<!-- Node12 -->
<g id="node5" class="node">
<title>Node12</title>
<g id="a_node5"><a xlink:href="a00134.html" target="_top" xlink:title="File for operator control code. ">
<polygon fill="none" stroke="#000000" points="52.2686,-.5 52.2686,-18.5 133.293,-18.5 133.293,-.5 52.2686,-.5"/>
<text text-anchor="middle" x="92.7808" y="-6.5" font-family="Helvetica,sans-Serif" font-size="10.00" fill="#000000">src/opcontrol.c</text>
</a>
</g>
</g>
<!-- Node6&#45;&gt;Node12 -->
<g id="edge7" class="edge">
<title>Node6&#45;&gt;Node12</title>
<path fill="none" stroke="#191970" d="M121.0127,-100.8386C113.6389,-76.9823 101.1625,-36.6173 95.6016,-18.6261"/>
<polygon fill="#191970" stroke="#191970" points="117.7014,-101.9778 123.9984,-110.4982 124.3892,-99.9106 117.7014,-101.9778"/>
</g>
<!-- Node13 -->
<g id="node6" class="node">
<title>Node13</title>
<g id="a_node6"><a xlink:href="a00092.html" target="_top" xlink:title="src/drive.c">
<polygon fill="none" stroke="#000000" points="0,-55.5 0,-73.5 61.5615,-73.5 61.5615,-55.5 0,-55.5"/>
<text text-anchor="middle" x="30.7808" y="-61.5" font-family="Helvetica,sans-Serif" font-size="10.00" fill="#000000">src/drive.c</text>
</a>
</g>
</g>
<!-- Node6&#45;&gt;Node13 -->
<g id="edge6" class="edge">
<title>Node6&#45;&gt;Node13</title>
<path fill="none" stroke="#191970" d="M101.8753,-105.2313C84.4421,-95.2435 61.6729,-82.1986 46.6568,-73.5956"/>
<polygon fill="#191970" stroke="#191970" points="100.5115,-108.4836 110.9283,-110.4179 103.9913,-102.4098 100.5115,-108.4836"/>
</g>
<!-- Node9&#45;&gt;Node7 -->
<g id="edge4" class="edge">
<title>Node9&#45;&gt;Node7</title>
<path fill="none" stroke="#191970" d="M194.0856,-45.383C193.758,-36.3738 193.3821,-26.0373 193.1182,-18.7795"/>
<polygon fill="#191970" stroke="#191970" points="190.5893,-45.5517 194.4505,-55.4179 197.5847,-45.2973 190.5893,-45.5517"/>
</g>
<!-- Node9&#45;&gt;Node12 -->
<g id="edge5" class="edge">
<title>Node9&#45;&gt;Node12</title>
<path fill="none" stroke="#191970" d="M169.0872,-50.6456C150.4696,-40.6067 125.8252,-27.3181 109.649,-18.5956"/>
<polygon fill="#191970" stroke="#191970" points="167.4744,-53.7524 177.9375,-55.4179 170.7968,-47.591 167.4744,-53.7524"/>
</g>
</g>
</svg>
