<?xml version="1.0" encoding="UTF-8" standalone="no"?>
<!DOCTYPE svg PUBLIC "-//W3C//DTD SVG 1.1//EN"
 "http://www.w3.org/Graphics/SVG/1.1/DTD/svg11.dtd">
<!-- Generated by graphviz version 2.40.1 (20161225.0304)
 -->
<!-- Title: list_iterator_new_from_node Pages: 1 -->
<svg width="381pt" height="101pt"
 viewBox="0.00 0.00 381.47 101.00" xmlns="http://www.w3.org/2000/svg" xmlns:xlink="http://www.w3.org/1999/xlink">
<g id="graph0" class="graph" transform="scale(1 1) rotate(0) translate(4 97)">
<title>list_iterator_new_from_node</title>
<!-- Node31 -->
<g id="node1" class="node">
<title>Node31</title>
<polygon fill="#bfbfbf" stroke="#000000" points="0,-37.5 0,-55.5 142.1816,-55.5 142.1816,-37.5 0,-37.5"/>
<text text-anchor="middle" x="71.0908" y="-43.5" font-family="Helvetica,sans-Serif" font-size="10.00" fill="#000000">list_iterator_new_from_node</text>
</g>
<!-- Node32 -->
<g id="node2" class="node">
<title>Node32</title>
<g id="a_node2"><a xlink:href="a00113.html#a3c956afda343b4a6aaf68fbd4b446733" target="_top" xlink:title="list_iterator_new">
<polygon fill="none" stroke="#000000" points="178.1816,-37.5 178.1816,-55.5 266.9941,-55.5 266.9941,-37.5 178.1816,-37.5"/>
<text text-anchor="middle" x="222.5879" y="-43.5" font-family="Helvetica,sans-Serif" font-size="10.00" fill="#000000">list_iterator_new</text>
</a>
</g>
</g>
<!-- Node31&#45;&gt;Node32 -->
<g id="edge1" class="edge">
<title>Node31&#45;&gt;Node32</title>
<path fill="none" stroke="#191970" d="M152.6427,-46.5C161.3486,-46.5 169.9517,-46.5 177.9883,-46.5"/>
<polygon fill="#191970" stroke="#191970" points="152.4033,-43.0001 142.4032,-46.5 152.4032,-50.0001 152.4033,-43.0001"/>
</g>
<!-- Node33 -->
<g id="node3" class="node">
<title>Node33</title>
<g id="a_node3"><a xlink:href="a00110.html#a5d73352b7bfa0c5a8b33289d7b27a374" target="_top" xlink:title="list_find">
<polygon fill="none" stroke="#000000" points="313.2798,-74.5 313.2798,-92.5 363.186,-92.5 363.186,-74.5 313.2798,-74.5"/>
<text text-anchor="middle" x="338.2329" y="-80.5" font-family="Helvetica,sans-Serif" font-size="10.00" fill="#000000">list_find</text>
</a>
</g>
</g>
<!-- Node32&#45;&gt;Node33 -->
<g id="edge2" class="edge">
<title>Node32&#45;&gt;Node33</title>
<path fill="none" stroke="#191970" d="M260.6396,-58.6744C277.8316,-64.1749 297.6745,-70.5236 312.9903,-75.4238"/>
<polygon fill="#191970" stroke="#191970" points="261.4688,-55.265 250.8778,-55.5512 259.3357,-61.9321 261.4688,-55.265"/>
</g>
<!-- Node34 -->
<g id="node4" class="node">
<title>Node34</title>
<g id="a_node4"><a xlink:href="a00110.html#ab3dacc64ceb63b0a0849312b0a14c91c" target="_top" xlink:title="list_at">
<polygon fill="none" stroke="#000000" points="317.1714,-37.5 317.1714,-55.5 359.2944,-55.5 359.2944,-37.5 317.1714,-37.5"/>
<text text-anchor="middle" x="338.2329" y="-43.5" font-family="Helvetica,sans-Serif" font-size="10.00" fill="#000000">list_at</text>
</a>
</g>
</g>
<!-- Node32&#45;&gt;Node34 -->
<g id="edge3" class="edge">
<title>Node32&#45;&gt;Node34</title>
<path fill="none" stroke="#191970" d="M277.4162,-46.5C291.4322,-46.5 305.6834,-46.5 316.8639,-46.5"/>
<polygon fill="#191970" stroke="#191970" points="277.2993,-43.0001 267.2993,-46.5 277.2992,-50.0001 277.2993,-43.0001"/>
</g>
<!-- Node35 -->
<g id="node5" class="node">
<title>Node35</title>
<g id="a_node5"><a xlink:href="a00140.html#a230cdcefb410a429fb6baba1f88fc9ba" target="_top" xlink:title="routine_task">
<polygon fill="none" stroke="#ff0000" points="302.9941,-.5 302.9941,-18.5 373.4717,-18.5 373.4717,-.5 302.9941,-.5"/>
<text text-anchor="middle" x="338.2329" y="-6.5" font-family="Helvetica,sans-Serif" font-size="10.00" fill="#000000">routine_task</text>
</a>
</g>
</g>
<!-- Node32&#45;&gt;Node35 -->
<g id="edge4" class="edge">
<title>Node32&#45;&gt;Node35</title>
<path fill="none" stroke="#191970" d="M260.5243,-34.3625C276.5849,-29.2239 294.9763,-23.3397 309.8342,-18.586"/>
<polygon fill="#191970" stroke="#191970" points="259.3357,-31.0679 250.8778,-37.4488 261.4688,-37.735 259.3357,-31.0679"/>
</g>
</g>
</svg>
