<?xml version="1.0" encoding="UTF-8" standalone="no"?>
<!DOCTYPE svg PUBLIC "-//W3C//DTD SVG 1.1//EN"
 "http://www.w3.org/Graphics/SVG/1.1/DTD/svg11.dtd">
<!-- Generated by graphviz version 2.40.1 (20161225.0304)
 -->
<!-- Title: include/lifter.h Pages: 1 -->
<svg width="524pt" height="247pt"
 viewBox="0.00 0.00 523.53 247.00" xmlns="http://www.w3.org/2000/svg" xmlns:xlink="http://www.w3.org/1999/xlink">
<g id="graph0" class="graph" transform="scale(1 1) rotate(0) translate(4 243)">
<title>include/lifter.h</title>
<!-- Node0 -->
<g id="node1" class="node">
<title>Node0</title>
<polygon fill="#bfbfbf" stroke="#000000" points="148.8843,-220.5 148.8843,-238.5 226.0366,-238.5 226.0366,-220.5 148.8843,-220.5"/>
<text text-anchor="middle" x="187.4604" y="-226.5" font-family="Helvetica,sans-Serif" font-size="10.00" fill="#000000">include/lifter.h</text>
</g>
<!-- Node1 -->
<g id="node2" class="node">
<title>Node1</title>
<g id="a_node2"><a xlink:href="a00011.html" target="_top" xlink:title="controller definitions, macros and functions to assist with usig the vex controllers. ">
<polygon fill="none" stroke="#000000" points="0,-55.5 0,-73.5 64.9209,-73.5 64.9209,-55.5 0,-55.5"/>
<text text-anchor="middle" x="32.4604" y="-61.5" font-family="Helvetica,sans-Serif" font-size="10.00" fill="#000000">controller.h</text>
</a>
</g>
</g>
<!-- Node0&#45;&gt;Node1 -->
<g id="edge1" class="edge">
<title>Node0&#45;&gt;Node1</title>
<path fill="none" stroke="#191970" d="M148.8451,-220.7552C124.8842,-213.8439 94.56,-202.2548 72.4604,-184 50.1217,-165.5477 46.6311,-156.4847 37.4604,-129 32.5664,-114.3323 31.4901,-96.7867 31.5408,-83.7006"/>
<polygon fill="#191970" stroke="#191970" points="35.044,-83.6215 31.8078,-73.533 28.0464,-83.4377 35.044,-83.6215"/>
</g>
<!-- Node4 -->
<g id="node4" class="node">
<title>Node4</title>
<polygon fill="none" stroke="#bfbfbf" points="110.2314,-.5 110.2314,-18.5 150.6895,-18.5 150.6895,-.5 110.2314,-.5"/>
<text text-anchor="middle" x="130.4604" y="-6.5" font-family="Helvetica,sans-Serif" font-size="10.00" fill="#000000">API.h</text>
</g>
<!-- Node0&#45;&gt;Node4 -->
<g id="edge15" class="edge">
<title>Node0&#45;&gt;Node4</title>
<path fill="none" stroke="#191970" d="M185.0838,-220.327C176.5193,-187.271 147.1246,-73.8179 135.3728,-28.4598"/>
<polygon fill="#191970" stroke="#191970" points="138.7435,-27.5147 132.8472,-18.7122 131.9673,-29.2704 138.7435,-27.5147"/>
</g>
<!-- Node5 -->
<g id="node5" class="node">
<title>Node5</title>
<g id="a_node5"><a xlink:href="a00014.html" target="_top" xlink:title="Drive base definitions and enumerations. ">
<polygon fill="none" stroke="#000000" points="94.4531,-165.5 94.4531,-183.5 140.4678,-183.5 140.4678,-165.5 94.4531,-165.5"/>
<text text-anchor="middle" x="117.4604" y="-171.5" font-family="Helvetica,sans-Serif" font-size="10.00" fill="#000000">drive.h</text>
</a>
</g>
</g>
<!-- Node0&#45;&gt;Node5 -->
<g id="edge4" class="edge">
<title>Node0&#45;&gt;Node5</title>
<path fill="none" stroke="#191970" d="M175.9014,-220.4179C165.4265,-212.1876 149.7672,-199.8839 137.2941,-190.0836"/>
<polygon fill="#191970" stroke="#191970" points="139.2963,-187.2056 129.2707,-183.7795 134.9715,-192.7098 139.2963,-187.2056"/>
</g>
<!-- Node6 -->
<g id="node6" class="node">
<title>Node6</title>
<g id="a_node6"><a xlink:href="a00053.html" target="_top" xlink:title="partner.h">
<polygon fill="none" stroke="#000000" points="46.7217,-110.5 46.7217,-128.5 102.1992,-128.5 102.1992,-110.5 46.7217,-110.5"/>
<text text-anchor="middle" x="74.4604" y="-116.5" font-family="Helvetica,sans-Serif" font-size="10.00" fill="#000000">partner.h</text>
</a>
</g>
</g>
<!-- Node0&#45;&gt;Node6 -->
<g id="edge10" class="edge">
<title>Node0&#45;&gt;Node6</title>
<path fill="none" stroke="#191970" d="M148.6355,-221.6803C126.7781,-215.2468 100.8573,-203.8361 85.4604,-184 75.6655,-171.3809 73.3123,-153.1628 73.1808,-139.3047"/>
<polygon fill="#191970" stroke="#191970" points="76.6908,-139.0041 73.4783,-128.908 69.6936,-138.8038 76.6908,-139.0041"/>
</g>
<!-- Node7 -->
<g id="node7" class="node">
<title>Node7</title>
<g id="a_node7"><a xlink:href="a00050.html" target="_top" xlink:title="The motor port definitionsMacros for the different motors ports. ">
<polygon fill="none" stroke="#000000" points="234.6133,-165.5 234.6133,-183.5 312.3076,-183.5 312.3076,-165.5 234.6133,-165.5"/>
<text text-anchor="middle" x="273.4604" y="-171.5" font-family="Helvetica,sans-Serif" font-size="10.00" fill="#000000">motor_ports.h</text>
</a>
</g>
</g>
<!-- Node0&#45;&gt;Node7 -->
<g id="edge9" class="edge">
<title>Node0&#45;&gt;Node7</title>
<path fill="none" stroke="#191970" d="M201.6616,-220.4179C214.9818,-211.8992 235.1255,-199.0166 250.6896,-189.0627"/>
<polygon fill="#191970" stroke="#191970" points="252.6994,-191.932 259.2382,-183.5956 248.928,-186.0348 252.6994,-191.932"/>
</g>
<!-- Node8 -->
<g id="node8" class="node">
<title>Node8</title>
<g id="a_node8"><a xlink:href="a00056.html" target="_top" xlink:title="potentiometer.h">
<polygon fill="none" stroke="#000000" points="329.9902,-165.5 329.9902,-183.5 414.9307,-183.5 414.9307,-165.5 329.9902,-165.5"/>
<text text-anchor="middle" x="372.4604" y="-171.5" font-family="Helvetica,sans-Serif" font-size="10.00" fill="#000000">potentiometer.h</text>
</a>
</g>
</g>
<!-- Node0&#45;&gt;Node8 -->
<g id="edge11" class="edge">
<title>Node0&#45;&gt;Node8</title>
<path fill="none" stroke="#191970" d="M218.0094,-220.4179C249.3007,-211.115 298.0971,-196.608 332.4525,-186.3943"/>
<polygon fill="#191970" stroke="#191970" points="333.5856,-189.7089 342.1736,-183.5042 331.5908,-182.9991 333.5856,-189.7089"/>
</g>
<!-- Node9 -->
<g id="node9" class="node">
<title>Node9</title>
<g id="a_node9"><a xlink:href="a00062.html" target="_top" xlink:title="sensor_ports.h">
<polygon fill="none" stroke="#000000" points="433.3867,-165.5 433.3867,-183.5 515.5342,-183.5 515.5342,-165.5 433.3867,-165.5"/>
<text text-anchor="middle" x="474.4604" y="-171.5" font-family="Helvetica,sans-Serif" font-size="10.00" fill="#000000">sensor_ports.h</text>
</a>
</g>
</g>
<!-- Node0&#45;&gt;Node9 -->
<g id="edge12" class="edge">
<title>Node0&#45;&gt;Node9</title>
<path fill="none" stroke="#191970" d="M226.1665,-222.0825C277.0127,-212.3384 366.4544,-195.198 422.9703,-184.3675"/>
<polygon fill="#191970" stroke="#191970" points="423.9606,-187.7414 433.1231,-182.4218 422.6431,-180.8665 423.9606,-187.7414"/>
</g>
<!-- Node10 -->
<g id="node10" class="node">
<title>Node10</title>
<g id="a_node10"><a xlink:href="a00065.html" target="_top" xlink:title="Contains the slew rate controller wrapper for the motors. ">
<polygon fill="none" stroke="#ff0000" points="196.5615,-110.5 196.5615,-128.5 240.3594,-128.5 240.3594,-110.5 196.5615,-110.5"/>
<text text-anchor="middle" x="218.4604" y="-116.5" font-family="Helvetica,sans-Serif" font-size="10.00" fill="#000000">slew.h</text>
</a>
</g>
</g>
<!-- Node0&#45;&gt;Node10 -->
<g id="edge13" class="edge">
<title>Node0&#45;&gt;Node10</title>
<path fill="none" stroke="#191970" d="M189.9973,-220.4982C195.0383,-202.6108 206.4101,-162.2594 213.1546,-138.3271"/>
<polygon fill="#191970" stroke="#191970" points="216.5447,-139.2006 215.8885,-128.6261 209.8072,-137.3018 216.5447,-139.2006"/>
</g>
<!-- Node2 -->
<g id="node3" class="node">
<title>Node2</title>
<g id="a_node3"><a xlink:href="a00074.html" target="_top" xlink:title="Vex Specific Math Functions, includes: Cartesian to polar cordinates. ">
<polygon fill="none" stroke="#ff0000" points="6.6748,-.5 6.6748,-18.5 58.2461,-18.5 58.2461,-.5 6.6748,-.5"/>
<text text-anchor="middle" x="32.4604" y="-6.5" font-family="Helvetica,sans-Serif" font-size="10.00" fill="#000000">vmath.h</text>
</a>
</g>
</g>
<!-- Node1&#45;&gt;Node2 -->
<g id="edge2" class="edge">
<title>Node1&#45;&gt;Node2</title>
<path fill="none" stroke="#191970" d="M32.4604,-55.4179C32.4604,-48.2164 32.4604,-37.8962 32.4604,-28.8632"/>
<polygon fill="#191970" stroke="#191970" points="35.9605,-28.7794 32.4604,-18.7795 28.9605,-28.7795 35.9605,-28.7794"/>
</g>
<!-- Node1&#45;&gt;Node4 -->
<g id="edge3" class="edge">
<title>Node1&#45;&gt;Node4</title>
<path fill="none" stroke="#191970" d="M48.6432,-55.4179C64.1057,-46.7399 87.6372,-33.5334 105.5013,-23.5077"/>
<polygon fill="#191970" stroke="#191970" points="107.2462,-26.542 114.2537,-18.5956 103.8202,-20.4377 107.2462,-26.542"/>
</g>
<!-- Node5&#45;&gt;Node4 -->
<g id="edge8" class="edge">
<title>Node5&#45;&gt;Node4</title>
<path fill="none" stroke="#191970" d="M118.1966,-165.1561C120.2613,-138.9504 126.1385,-64.3557 128.9397,-28.8021"/>
<polygon fill="#191970" stroke="#191970" points="132.436,-28.9854 129.7323,-18.7414 125.4576,-28.4356 132.436,-28.9854"/>
</g>
<!-- Node5&#45;&gt;Node6 -->
<g id="edge5" class="edge">
<title>Node5&#45;&gt;Node6</title>
<path fill="none" stroke="#191970" d="M110.3599,-165.4179C104.2965,-157.6624 95.4054,-146.29 87.9886,-136.8035"/>
<polygon fill="#191970" stroke="#191970" points="90.6319,-134.5018 81.7153,-128.7795 85.1172,-138.8133 90.6319,-134.5018"/>
</g>
<!-- Node6&#45;&gt;Node1 -->
<g id="edge7" class="edge">
<title>Node6&#45;&gt;Node1</title>
<path fill="none" stroke="#191970" d="M67.525,-110.4179C61.6026,-102.6624 52.9183,-91.29 45.674,-81.8035"/>
<polygon fill="#191970" stroke="#191970" points="48.3974,-79.6029 39.5466,-73.7795 42.8341,-83.8514 48.3974,-79.6029"/>
</g>
<!-- Node6&#45;&gt;Node4 -->
<g id="edge6" class="edge">
<title>Node6&#45;&gt;Node4</title>
<path fill="none" stroke="#191970" d="M79.0432,-110.4982C88.2316,-92.4496 109.0631,-51.5306 121.203,-27.6843"/>
<polygon fill="#191970" stroke="#191970" points="124.3966,-29.1257 125.8144,-18.6261 118.1585,-25.9499 124.3966,-29.1257"/>
</g>
<!-- Node10&#45;&gt;Node4 -->
<g id="edge14" class="edge">
<title>Node10&#45;&gt;Node4</title>
<path fill="none" stroke="#191970" d="M214.4709,-110.1266C208.6172,-96.9947 196.823,-72.742 182.4604,-55 173.3796,-43.7824 161.3488,-33.059 151.1466,-24.8429"/>
<polygon fill="#191970" stroke="#191970" points="153.1493,-21.9662 143.1117,-18.5753 148.8439,-27.4856 153.1493,-21.9662"/>
</g>
</g>
</svg>
