<?xml version="1.0" encoding="UTF-8" standalone="no"?>
<!DOCTYPE svg PUBLIC "-//W3C//DTD SVG 1.1//EN"
 "http://www.w3.org/Graphics/SVG/1.1/DTD/svg11.dtd">
<!-- Generated by graphviz version 2.40.1 (20161225.0304)
 -->
<!-- Title: include/partner.h Pages: 1 -->
<svg width="121pt" height="137pt"
 viewBox="0.00 0.00 120.69 137.00" xmlns="http://www.w3.org/2000/svg" xmlns:xlink="http://www.w3.org/1999/xlink">
<g id="graph0" class="graph" transform="scale(1 1) rotate(0) translate(4 133)">
<title>include/partner.h</title>
<!-- Node0 -->
<g id="node1" class="node">
<title>Node0</title>
<polygon fill="#bfbfbf" stroke="#000000" points="5.2563,-110.5 5.2563,-128.5 95.2017,-128.5 95.2017,-110.5 5.2563,-110.5"/>
<text text-anchor="middle" x="50.229" y="-116.5" font-family="Helvetica,sans-Serif" font-size="10.00" fill="#000000">include/partner.h</text>
</g>
<!-- Node1 -->
<g id="node2" class="node">
<title>Node1</title>
<polygon fill="none" stroke="#bfbfbf" points="0,-.5 0,-18.5 40.458,-18.5 40.458,-.5 0,-.5"/>
<text text-anchor="middle" x="20.229" y="-6.5" font-family="Helvetica,sans-Serif" font-size="10.00" fill="#000000">API.h</text>
</g>
<!-- Node0&#45;&gt;Node1 -->
<g id="edge1" class="edge">
<title>Node0&#45;&gt;Node1</title>
<path fill="none" stroke="#191970" d="M47.774,-110.4982C42.8956,-92.6108 31.8907,-52.2594 25.3637,-28.3271"/>
<polygon fill="#191970" stroke="#191970" points="28.7259,-27.3528 22.718,-18.6261 21.9725,-29.1947 28.7259,-27.3528"/>
</g>
<!-- Node2 -->
<g id="node3" class="node">
<title>Node2</title>
<g id="a_node3"><a xlink:href="a00011.html" target="_top" xlink:title="controller definitions, macros and functions to assist with usig the vex controllers. ">
<polygon fill="none" stroke="#000000" points="47.7686,-55.5 47.7686,-73.5 112.6895,-73.5 112.6895,-55.5 47.7686,-55.5"/>
<text text-anchor="middle" x="80.229" y="-61.5" font-family="Helvetica,sans-Serif" font-size="10.00" fill="#000000">controller.h</text>
</a>
</g>
</g>
<!-- Node0&#45;&gt;Node2 -->
<g id="edge2" class="edge">
<title>Node0&#45;&gt;Node2</title>
<path fill="none" stroke="#191970" d="M55.1829,-110.4179C59.2837,-102.8998 65.2383,-91.9829 70.3127,-82.6799"/>
<polygon fill="#191970" stroke="#191970" points="73.4515,-84.2344 75.1675,-73.7795 67.3063,-80.8824 73.4515,-84.2344"/>
</g>
<!-- Node2&#45;&gt;Node1 -->
<g id="edge4" class="edge">
<title>Node2&#45;&gt;Node1</title>
<path fill="none" stroke="#191970" d="M70.3212,-55.4179C61.5154,-47.3458 48.4351,-35.3556 37.849,-25.6517"/>
<polygon fill="#191970" stroke="#191970" points="40.0887,-22.9567 30.352,-18.7795 35.3586,-28.1168 40.0887,-22.9567"/>
</g>
<!-- Node3 -->
<g id="node4" class="node">
<title>Node3</title>
<g id="a_node4"><a xlink:href="a00074.html" target="_top" xlink:title="Vex Specific Math Functions, includes: Cartesian to polar cordinates. ">
<polygon fill="none" stroke="#ff0000" points="58.4434,-.5 58.4434,-18.5 110.0146,-18.5 110.0146,-.5 58.4434,-.5"/>
<text text-anchor="middle" x="84.229" y="-6.5" font-family="Helvetica,sans-Serif" font-size="10.00" fill="#000000">vmath.h</text>
</a>
</g>
</g>
<!-- Node2&#45;&gt;Node3 -->
<g id="edge3" class="edge">
<title>Node2&#45;&gt;Node3</title>
<path fill="none" stroke="#191970" d="M80.8895,-55.4179C81.4133,-48.2164 82.1638,-37.8962 82.8208,-28.8632"/>
<polygon fill="#191970" stroke="#191970" points="86.3195,-29.007 83.5541,-18.7795 79.3379,-28.4992 86.3195,-29.007"/>
</g>
</g>
</svg>
