<?xml version="1.0" encoding="UTF-8" standalone="no"?>
<!DOCTYPE svg PUBLIC "-//W3C//DTD SVG 1.1//EN"
 "http://www.w3.org/Graphics/SVG/1.1/DTD/svg11.dtd">
<!-- Generated by graphviz version 2.40.1 (20161225.0304)
 -->
<!-- Title: include/motor_ports.h Pages: 1 -->
<svg width="428pt" height="147pt"
 viewBox="0.00 0.00 428.45 147.00" xmlns="http://www.w3.org/2000/svg" xmlns:xlink="http://www.w3.org/1999/xlink">
<g id="graph0" class="graph" transform="scale(1 1) rotate(0) translate(4 143)">
<title>include/motor_ports.h</title>
<!-- Node1 -->
<g id="node1" class="node">
<title>Node1</title>
<polygon fill="#bfbfbf" stroke="#000000" points="191.5913,-120.5 191.5913,-138.5 303.7534,-138.5 303.7534,-120.5 191.5913,-120.5"/>
<text text-anchor="middle" x="247.6724" y="-126.5" font-family="Helvetica,sans-Serif" font-size="10.00" fill="#000000">include/motor_ports.h</text>
</g>
<!-- Node2 -->
<g id="node2" class="node">
<title>Node2</title>
<g id="a_node2"><a xlink:href="a00008.html" target="_top" xlink:title="Code for controlling the claw that grabs the cones. ">
<polygon fill="none" stroke="#000000" points="45.5396,-60.5 45.5396,-78.5 123.8052,-78.5 123.8052,-60.5 45.5396,-60.5"/>
<text text-anchor="middle" x="84.6724" y="-66.5" font-family="Helvetica,sans-Serif" font-size="10.00" fill="#000000">include/claw.h</text>
</a>
</g>
</g>
<!-- Node1&#45;&gt;Node2 -->
<g id="edge1" class="edge">
<title>Node1&#45;&gt;Node2</title>
<path fill="none" stroke="#191970" d="M213.3139,-116.8527C182.0928,-105.3603 136.806,-88.6903 109.1275,-78.5019"/>
<polygon fill="#191970" stroke="#191970" points="212.3227,-120.2174 222.9162,-120.3873 214.7408,-113.6483 212.3227,-120.2174"/>
</g>
<!-- Node7 -->
<g id="node6" class="node">
<title>Node7</title>
<g id="a_node6"><a xlink:href="a00026.html" target="_top" xlink:title="Declarations and macros for controlling and manipulating the lifter. ">
<polygon fill="none" stroke="#000000" points="264.0962,-60.5 264.0962,-78.5 341.2485,-78.5 341.2485,-60.5 264.0962,-60.5"/>
<text text-anchor="middle" x="302.6724" y="-66.5" font-family="Helvetica,sans-Serif" font-size="10.00" fill="#000000">include/lifter.h</text>
</a>
</g>
</g>
<!-- Node1&#45;&gt;Node7 -->
<g id="edge5" class="edge">
<title>Node1&#45;&gt;Node7</title>
<path fill="none" stroke="#191970" d="M262.7964,-113.0011C272.9285,-101.9478 285.8929,-87.8049 294.2404,-78.6985"/>
<polygon fill="#191970" stroke="#191970" points="260.2029,-110.6507 256.0257,-120.3873 265.363,-115.3808 260.2029,-110.6507"/>
</g>
<!-- Node10 -->
<g id="node9" class="node">
<title>Node10</title>
<g id="a_node9"><a xlink:href="a00047.html" target="_top" xlink:title="include/mobile_goal\l_intake.h">
<polygon fill="none" stroke="#ff0000" points="141.4756,-55.5 141.4756,-83.5 245.8691,-83.5 245.8691,-55.5 141.4756,-55.5"/>
<text text-anchor="start" x="149.4756" y="-71.5" font-family="Helvetica,sans-Serif" font-size="10.00" fill="#000000">include/mobile_goal</text>
<text text-anchor="middle" x="193.6724" y="-61.5" font-family="Helvetica,sans-Serif" font-size="10.00" fill="#000000">_intake.h</text>
</a>
</g>
</g>
<!-- Node1&#45;&gt;Node10 -->
<g id="edge10" class="edge">
<title>Node1&#45;&gt;Node10</title>
<path fill="none" stroke="#191970" d="M232.587,-112.7384C224.407,-103.6496 214.4021,-92.533 206.5853,-83.8477"/>
<polygon fill="#191970" stroke="#191970" points="230.1797,-115.2957 239.4709,-120.3873 235.3828,-110.6129 230.1797,-115.2957"/>
</g>
<!-- Node12 -->
<g id="node10" class="node">
<title>Node12</title>
<g id="a_node10"><a xlink:href="a00092.html" target="_top" xlink:title="src/drive.c">
<polygon fill="none" stroke="#000000" points="358.8916,-60.5 358.8916,-78.5 420.4531,-78.5 420.4531,-60.5 358.8916,-60.5"/>
<text text-anchor="middle" x="389.6724" y="-66.5" font-family="Helvetica,sans-Serif" font-size="10.00" fill="#000000">src/drive.c</text>
</a>
</g>
</g>
<!-- Node1&#45;&gt;Node12 -->
<g id="edge13" class="edge">
<title>Node1&#45;&gt;Node12</title>
<path fill="none" stroke="#191970" d="M278.6701,-116.4023C305.8252,-104.9284 344.5685,-88.558 368.3679,-78.5019"/>
<polygon fill="#191970" stroke="#191970" points="277.0883,-113.2711 269.2391,-120.3873 279.8129,-119.7191 277.0883,-113.2711"/>
</g>
<!-- Node3 -->
<g id="node3" class="node">
<title>Node3</title>
<g id="a_node3"><a xlink:href="a00002.html" target="_top" xlink:title="Autonomous declarations and macros. ">
<polygon fill="none" stroke="#ff0000" points="77.5371,-.5 77.5371,-18.5 155.8076,-18.5 155.8076,-.5 77.5371,-.5"/>
<text text-anchor="middle" x="116.6724" y="-6.5" font-family="Helvetica,sans-Serif" font-size="10.00" fill="#000000">include/auto.h</text>
</a>
</g>
</g>
<!-- Node2&#45;&gt;Node3 -->
<g id="edge2" class="edge">
<title>Node2&#45;&gt;Node3</title>
<path fill="none" stroke="#191970" d="M94.3415,-51.3704C100.0929,-40.5866 107.1455,-27.3629 111.7665,-18.6985"/>
<polygon fill="#191970" stroke="#191970" points="91.1502,-49.9167 89.5325,-60.3873 97.3266,-53.2108 91.1502,-49.9167"/>
</g>
<!-- Node5 -->
<g id="node4" class="node">
<title>Node5</title>
<g id="a_node4"><a xlink:href="a00086.html" target="_top" xlink:title="src/claw.c">
<polygon fill="none" stroke="#000000" points="0,-.5 0,-18.5 59.3447,-18.5 59.3447,-.5 0,-.5"/>
<text text-anchor="middle" x="29.6724" y="-6.5" font-family="Helvetica,sans-Serif" font-size="10.00" fill="#000000">src/claw.c</text>
</a>
</g>
</g>
<!-- Node2&#45;&gt;Node5 -->
<g id="edge3" class="edge">
<title>Node2&#45;&gt;Node5</title>
<path fill="none" stroke="#191970" d="M69.5483,-53.0011C59.4162,-41.9478 46.4519,-27.8049 38.1043,-18.6985"/>
<polygon fill="#191970" stroke="#191970" points="66.9817,-55.3808 76.319,-60.3873 72.1418,-50.6507 66.9817,-55.3808"/>
</g>
<!-- Node6 -->
<g id="node5" class="node">
<title>Node6</title>
<g id="a_node5"><a xlink:href="a00134.html" target="_top" xlink:title="File for operator control code. ">
<polygon fill="none" stroke="#000000" points="174.1602,-.5 174.1602,-18.5 255.1846,-18.5 255.1846,-.5 174.1602,-.5"/>
<text text-anchor="middle" x="214.6724" y="-6.5" font-family="Helvetica,sans-Serif" font-size="10.00" fill="#000000">src/opcontrol.c</text>
</a>
</g>
</g>
<!-- Node2&#45;&gt;Node6 -->
<g id="edge4" class="edge">
<title>Node2&#45;&gt;Node6</title>
<path fill="none" stroke="#191970" d="M113.7073,-56.0993C138.5321,-44.6417 173.5712,-28.4698 195.1683,-18.5019"/>
<polygon fill="#191970" stroke="#191970" points="112.0294,-53.0188 104.4166,-60.3873 114.9629,-59.3745 112.0294,-53.0188"/>
</g>
<!-- Node7&#45;&gt;Node3 -->
<g id="edge6" class="edge">
<title>Node7&#45;&gt;Node3</title>
<path fill="none" stroke="#191970" d="M264.8456,-57.2978C229.1849,-45.7944 176.5724,-28.8226 144.5782,-18.5019"/>
<polygon fill="#191970" stroke="#191970" points="263.8313,-60.6482 274.423,-60.3873 265.9804,-53.9862 263.8313,-60.6482"/>
</g>
<!-- Node7&#45;&gt;Node6 -->
<g id="edge9" class="edge">
<title>Node7&#45;&gt;Node6</title>
<path fill="none" stroke="#191970" d="M280.7481,-54.5516C264.1323,-43.2227 241.8478,-28.0287 227.8751,-18.5019"/>
<polygon fill="#191970" stroke="#191970" points="279.0731,-57.6457 289.3071,-60.3873 283.0165,-51.8621 279.0731,-57.6457"/>
</g>
<!-- Node8 -->
<g id="node7" class="node">
<title>Node8</title>
<g id="a_node7"><a xlink:href="a00101.html" target="_top" xlink:title="File for initialization code. ">
<polygon fill="none" stroke="#000000" points="349.3374,-.5 349.3374,-18.5 402.0073,-18.5 402.0073,-.5 349.3374,-.5"/>
<text text-anchor="middle" x="375.6724" y="-6.5" font-family="Helvetica,sans-Serif" font-size="10.00" fill="#000000">src/init.c</text>
</a>
</g>
</g>
<!-- Node7&#45;&gt;Node8 -->
<g id="edge7" class="edge">
<title>Node7&#45;&gt;Node8</title>
<path fill="none" stroke="#191970" d="M321.5808,-53.9588C335.1866,-42.7759 353.0787,-28.0702 364.4809,-18.6985"/>
<polygon fill="#191970" stroke="#191970" points="319.2625,-51.3337 313.7595,-60.3873 323.7073,-56.7415 319.2625,-51.3337"/>
</g>
<!-- Node9 -->
<g id="node8" class="node">
<title>Node9</title>
<g id="a_node8"><a xlink:href="a00107.html" target="_top" xlink:title="src/lifter.c">
<polygon fill="none" stroke="#000000" points="273.5566,-.5 273.5566,-18.5 331.7881,-18.5 331.7881,-.5 273.5566,-.5"/>
<text text-anchor="middle" x="302.6724" y="-6.5" font-family="Helvetica,sans-Serif" font-size="10.00" fill="#000000">src/lifter.c</text>
</a>
</g>
</g>
<!-- Node7&#45;&gt;Node9 -->
<g id="edge8" class="edge">
<title>Node7&#45;&gt;Node9</title>
<path fill="none" stroke="#191970" d="M302.6724,-50.3734C302.6724,-39.7812 302.6724,-27.0976 302.6724,-18.6985"/>
<polygon fill="#191970" stroke="#191970" points="299.1725,-50.3873 302.6724,-60.3873 306.1725,-50.3873 299.1725,-50.3873"/>
</g>
<!-- Node10&#45;&gt;Node3 -->
<g id="edge11" class="edge">
<title>Node10&#45;&gt;Node3</title>
<path fill="none" stroke="#191970" d="M167.4881,-49.0967C154.1812,-38.7276 138.6801,-26.6489 128.3304,-18.5842"/>
<polygon fill="#191970" stroke="#191970" points="165.3851,-51.8951 175.4244,-55.2808 169.6877,-46.3735 165.3851,-51.8951"/>
</g>
<!-- Node10&#45;&gt;Node6 -->
<g id="edge12" class="edge">
<title>Node10&#45;&gt;Node6</title>
<path fill="none" stroke="#191970" d="M201.9604,-45.8198C205.305,-36.2639 208.9632,-25.812 211.4929,-18.5842"/>
<polygon fill="#191970" stroke="#191970" points="198.6491,-44.686 198.6491,-55.2808 205.2561,-46.9985 198.6491,-44.686"/>
</g>
</g>
</svg>
