<?xml version="1.0" encoding="UTF-8" standalone="no"?>
<!DOCTYPE svg PUBLIC "-//W3C//DTD SVG 1.1//EN"
 "http://www.w3.org/Graphics/SVG/1.1/DTD/svg11.dtd">
<!-- Generated by graphviz version 2.40.1 (20161225.0304)
 -->
<!-- Title: update_drive_motors Pages: 1 -->
<svg width="362pt" height="64pt"
 viewBox="0.00 0.00 362.03 64.00" xmlns="http://www.w3.org/2000/svg" xmlns:xlink="http://www.w3.org/1999/xlink">
<g id="graph0" class="graph" transform="scale(1 1) rotate(0) translate(4 60)">
<title>update_drive_motors</title>
<!-- Node17 -->
<g id="node1" class="node">
<title>Node17</title>
<polygon fill="#bfbfbf" stroke="#000000" points="0,-18.5 0,-36.5 109.9453,-36.5 109.9453,-18.5 0,-18.5"/>
<text text-anchor="middle" x="54.9727" y="-24.5" font-family="Helvetica,sans-Serif" font-size="10.00" fill="#000000">update_drive_motors</text>
</g>
<!-- Node18 -->
<g id="node2" class="node">
<title>Node18</title>
<g id="a_node2"><a xlink:href="a00053.html#aacc86d07e59d3b919f5c5eae2ce5d404" target="_top" xlink:title="get_mode">
<polygon fill="none" stroke="#000000" points="158.7334,-37.5 158.7334,-55.5 219.2109,-55.5 219.2109,-37.5 158.7334,-37.5"/>
<text text-anchor="middle" x="188.9722" y="-43.5" font-family="Helvetica,sans-Serif" font-size="10.00" fill="#000000">get_mode</text>
</a>
</g>
</g>
<!-- Node17&#45;&gt;Node18 -->
<g id="edge1" class="edge">
<title>Node17&#45;&gt;Node18</title>
<path fill="none" stroke="#191970" d="M110.249,-35.3377C123.0737,-37.1562 136.4899,-39.0585 148.5384,-40.7668"/>
<polygon fill="#191970" stroke="#191970" points="148.3328,-44.2726 158.7251,-42.2112 149.3156,-37.3419 148.3328,-44.2726"/>
</g>
<!-- Node19 -->
<g id="node3" class="node">
<title>Node19</title>
<g id="a_node3"><a xlink:href="a00092.html#a8df41fd50094c065eedc81fc5e6595d1" target="_top" xlink:title="sets the speed of one side of the robot. ">
<polygon fill="none" stroke="#000000" points="145.9453,-.5 145.9453,-18.5 231.999,-18.5 231.999,-.5 145.9453,-.5"/>
<text text-anchor="middle" x="188.9722" y="-6.5" font-family="Helvetica,sans-Serif" font-size="10.00" fill="#000000">set_side_speed</text>
</a>
</g>
</g>
<!-- Node17&#45;&gt;Node19 -->
<g id="edge2" class="edge">
<title>Node17&#45;&gt;Node19</title>
<path fill="none" stroke="#191970" d="M110.249,-20.0748C118.6546,-18.9457 127.3143,-17.7824 135.6765,-16.6591"/>
<polygon fill="#191970" stroke="#191970" points="136.2469,-20.1141 145.6919,-15.3138 135.3149,-13.1764 136.2469,-20.1141"/>
</g>
<!-- Node20 -->
<g id="node4" class="node">
<title>Node20</title>
<g id="a_node4"><a xlink:href="a00065.html#a7dff2b79dffe55fb936d977594d7c01d" target="_top" xlink:title="Sets motor speed wrapped inside the slew rate controller. ">
<polygon fill="none" stroke="#ff0000" points="267.999,-.5 267.999,-18.5 354.0283,-18.5 354.0283,-.5 267.999,-.5"/>
<text text-anchor="middle" x="311.0137" y="-6.5" font-family="Helvetica,sans-Serif" font-size="10.00" fill="#000000">set_motor_slew</text>
</a>
</g>
</g>
<!-- Node19&#45;&gt;Node20 -->
<g id="edge3" class="edge">
<title>Node19&#45;&gt;Node20</title>
<path fill="none" stroke="#191970" d="M231.9994,-9.5C240.3847,-9.5 249.2677,-9.5 257.9335,-9.5"/>
<polygon fill="#191970" stroke="#191970" points="257.9636,-13.0001 267.9636,-9.5 257.9636,-6.0001 257.9636,-13.0001"/>
</g>
</g>
</svg>
