<?xml version="1.0" encoding="UTF-8" standalone="no"?>
<!DOCTYPE svg PUBLIC "-//W3C//DTD SVG 1.1//EN"
 "http://www.w3.org/Graphics/SVG/1.1/DTD/svg11.dtd">
<!-- Generated by graphviz version 2.40.1 (20161225.0304)
 -->
<!-- Title: set_motor_immediate Pages: 1 -->
<svg width="477pt" height="279pt"
 viewBox="0.00 0.00 476.84 279.00" xmlns="http://www.w3.org/2000/svg" xmlns:xlink="http://www.w3.org/1999/xlink">
<g id="graph0" class="graph" transform="scale(1 1) rotate(0) translate(4 275)">
<title>set_motor_immediate</title>
<!-- Node38 -->
<g id="node1" class="node">
<title>Node38</title>
<polygon fill="#bfbfbf" stroke="#000000" points="0,-143.5 0,-161.5 112.1523,-161.5 112.1523,-143.5 0,-143.5"/>
<text text-anchor="middle" x="56.0762" y="-149.5" font-family="Helvetica,sans-Serif" font-size="10.00" fill="#000000">set_motor_immediate</text>
</g>
<!-- Node39 -->
<g id="node2" class="node">
<title>Node39</title>
<g id="a_node2"><a xlink:href="a00086.html#ac42dd40dbb37219295286859c6b068c2" target="_top" xlink:title="Drives the motors to close the claw. ">
<polygon fill="none" stroke="#000000" points="293.2651,-252.5 293.2651,-270.5 358.1763,-270.5 358.1763,-252.5 293.2651,-252.5"/>
<text text-anchor="middle" x="325.7207" y="-258.5" font-family="Helvetica,sans-Serif" font-size="10.00" fill="#000000">close_claw</text>
</a>
</g>
</g>
<!-- Node38&#45;&gt;Node39 -->
<g id="edge1" class="edge">
<title>Node38&#45;&gt;Node39</title>
<path fill="none" stroke="#191970" d="M71.5553,-169.289C88.5945,-186.6828 117.6426,-213.2718 148.1523,-227.5 195.516,-249.588 256.3827,-257.3266 293.1528,-260.0378"/>
<polygon fill="#191970" stroke="#191970" points="73.6375,-166.4013 64.2015,-161.5833 68.5735,-171.2341 73.6375,-166.4013"/>
</g>
<!-- Node41 -->
<g id="node4" class="node">
<title>Node41</title>
<g id="a_node4"><a xlink:href="a00086.html#a03023ca28f671b9fa7bac07782ccd8c1" target="_top" xlink:title="Drives the motors to open the claw. ">
<polygon fill="none" stroke="#000000" points="168.9922,-199.5 168.9922,-217.5 232.8047,-217.5 232.8047,-199.5 168.9922,-199.5"/>
<text text-anchor="middle" x="200.8984" y="-205.5" font-family="Helvetica,sans-Serif" font-size="10.00" fill="#000000">open_claw</text>
</a>
</g>
</g>
<!-- Node38&#45;&gt;Node41 -->
<g id="edge3" class="edge">
<title>Node38&#45;&gt;Node41</title>
<path fill="none" stroke="#191970" d="M89.0644,-165.2559C115.9755,-175.6619 153.3367,-190.1088 177.318,-199.3819"/>
<polygon fill="#191970" stroke="#191970" points="90.256,-161.9642 79.6667,-161.622 87.7314,-168.4931 90.256,-161.9642"/>
</g>
<!-- Node42 -->
<g id="node5" class="node">
<title>Node42</title>
<g id="a_node5"><a xlink:href="a00086.html#a3a57f998b1884d39b0cc786689f7086f" target="_top" xlink:title="sets the claw motor speed ">
<polygon fill="none" stroke="#000000" points="157.8838,-143.5 157.8838,-161.5 243.9131,-161.5 243.9131,-143.5 157.8838,-143.5"/>
<text text-anchor="middle" x="200.8984" y="-149.5" font-family="Helvetica,sans-Serif" font-size="10.00" fill="#000000">set_claw_motor</text>
</a>
</g>
</g>
<!-- Node38&#45;&gt;Node42 -->
<g id="edge5" class="edge">
<title>Node38&#45;&gt;Node42</title>
<path fill="none" stroke="#191970" d="M122.4966,-152.5C134.5145,-152.5 146.7541,-152.5 157.8789,-152.5"/>
<polygon fill="#191970" stroke="#191970" points="122.483,-149.0001 112.4829,-152.5 122.4829,-156.0001 122.483,-149.0001"/>
</g>
<!-- Node45 -->
<g id="node7" class="node">
<title>Node45</title>
<g id="a_node7"><a xlink:href="a00131.html#ab31e12bb0fa46c77906a048666b699d5" target="_top" xlink:title="sets the intake motor ">
<polygon fill="none" stroke="#ff0000" points="154.5439,-82.5 154.5439,-100.5 247.2529,-100.5 247.2529,-82.5 154.5439,-82.5"/>
<text text-anchor="middle" x="200.8984" y="-88.5" font-family="Helvetica,sans-Serif" font-size="10.00" fill="#000000">set_intake_motor</text>
</a>
</g>
</g>
<!-- Node38&#45;&gt;Node45 -->
<g id="edge8" class="edge">
<title>Node38&#45;&gt;Node45</title>
<path fill="none" stroke="#191970" d="M86.7234,-139.5912C114.5609,-127.8659 154.9108,-110.8703 179.4417,-100.5377"/>
<polygon fill="#191970" stroke="#191970" points="85.3024,-136.3919 77.4452,-143.4992 88.0197,-142.843 85.3024,-136.3919"/>
</g>
<!-- Node49 -->
<g id="node10" class="node">
<title>Node49</title>
<g id="a_node10"><a xlink:href="a00107.html#a78640d547d9361951a92d0bc00939536" target="_top" xlink:title="Sets the secondary lifter motors to the given value. ">
<polygon fill="none" stroke="#ff0000" points="148.1523,-.5 148.1523,-28.5 253.6445,-28.5 253.6445,-.5 148.1523,-.5"/>
<text text-anchor="start" x="156.1523" y="-16.5" font-family="Helvetica,sans-Serif" font-size="10.00" fill="#000000">set_secondary_lifter</text>
<text text-anchor="middle" x="200.8984" y="-6.5" font-family="Helvetica,sans-Serif" font-size="10.00" fill="#000000">_motors</text>
</a>
</g>
</g>
<!-- Node38&#45;&gt;Node49 -->
<g id="edge14" class="edge">
<title>Node38&#45;&gt;Node49</title>
<path fill="none" stroke="#191970" d="M73.1766,-136.2051C101.8496,-108.8828 159.1305,-54.3004 186.1479,-28.5557"/>
<polygon fill="#191970" stroke="#191970" points="70.4034,-134.0131 65.5784,-143.4454 75.2324,-139.0808 70.4034,-134.0131"/>
</g>
<!-- Node40 -->
<g id="node3" class="node">
<title>Node40</title>
<g id="a_node3"><a xlink:href="a00080.html#a3c7ca506bbc071fa740de13805b7f376" target="_top" xlink:title="Runs the user autonomous code. ">
<polygon fill="none" stroke="#000000" points="397.7969,-100.5 397.7969,-118.5 468.8359,-118.5 468.8359,-100.5 397.7969,-100.5"/>
<text text-anchor="middle" x="433.3164" y="-106.5" font-family="Helvetica,sans-Serif" font-size="10.00" fill="#000000">autonomous</text>
</a>
</g>
</g>
<!-- Node39&#45;&gt;Node40 -->
<g id="edge2" class="edge">
<title>Node39&#45;&gt;Node40</title>
<path fill="none" stroke="#191970" d="M351.1506,-246.8399C354.9666,-244.0224 358.6659,-240.8835 361.7969,-237.5 396.894,-199.572 421.3007,-141.3091 429.9023,-118.8103"/>
<polygon fill="#191970" stroke="#191970" points="349.1309,-243.9803 342.7854,-252.4647 353.0368,-249.7892 349.1309,-243.9803"/>
</g>
<!-- Node41&#45;&gt;Node40 -->
<g id="edge4" class="edge">
<title>Node41&#45;&gt;Node40</title>
<path fill="none" stroke="#191970" d="M243.0071,-209.1814C276.8629,-208.0831 324.7244,-202.72 361.7969,-183.5 391.9343,-167.8754 416.7325,-134.6812 427.5159,-118.604"/>
<polygon fill="#191970" stroke="#191970" points="242.9,-205.6828 232.9772,-209.3959 243.0498,-212.6812 242.9,-205.6828"/>
</g>
<!-- Node42&#45;&gt;Node40 -->
<g id="edge6" class="edge">
<title>Node42&#45;&gt;Node40</title>
<path fill="none" stroke="#191970" d="M237.7203,-164.1753C271.0506,-172.7871 321.0208,-180.7613 361.7969,-166.5 389.074,-156.9599 413.7147,-132.175 425.6809,-118.6434"/>
<polygon fill="#191970" stroke="#191970" points="238.508,-160.7624 227.9393,-161.5062 236.665,-167.5154 238.508,-160.7624"/>
</g>
<!-- Node43 -->
<g id="node6" class="node">
<title>Node43</title>
<g id="a_node6"><a xlink:href="a00086.html#a0122b78972344264b8a276a559cfce4a" target="_top" xlink:title="Updates the claw motor values. ">
<polygon fill="none" stroke="#ff0000" points="289.6445,-138.5 289.6445,-156.5 361.7969,-156.5 361.7969,-138.5 289.6445,-138.5"/>
<text text-anchor="middle" x="325.7207" y="-144.5" font-family="Helvetica,sans-Serif" font-size="10.00" fill="#000000">update_claw</text>
</a>
</g>
</g>
<!-- Node42&#45;&gt;Node43 -->
<g id="edge7" class="edge">
<title>Node42&#45;&gt;Node43</title>
<path fill="none" stroke="#191970" d="M254.4551,-150.3547C266.2964,-149.8804 278.5717,-149.3886 289.5292,-148.9497"/>
<polygon fill="#191970" stroke="#191970" points="254.0568,-146.8677 244.2049,-150.7653 254.337,-153.8621 254.0568,-146.8677"/>
</g>
<!-- Node45&#45;&gt;Node40 -->
<g id="edge9" class="edge">
<title>Node45&#45;&gt;Node40</title>
<path fill="none" stroke="#191970" d="M257.5592,-95.8882C301.2235,-99.2698 360.257,-103.8418 397.564,-106.7311"/>
<polygon fill="#191970" stroke="#191970" points="257.6135,-92.382 247.3731,-95.0993 257.0729,-99.3611 257.6135,-92.382"/>
</g>
<!-- Node46 -->
<g id="node8" class="node">
<title>Node46</title>
<g id="a_node8"><a xlink:href="a00131.html#aef03134014e51a6a90dd3824f09f4d6c" target="_top" xlink:title="lowers the intake ">
<polygon fill="none" stroke="#ff0000" points="289.6494,-62.5 289.6494,-80.5 361.792,-80.5 361.792,-62.5 289.6494,-62.5"/>
<text text-anchor="middle" x="325.7207" y="-68.5" font-family="Helvetica,sans-Serif" font-size="10.00" fill="#000000">lower_intake</text>
</a>
</g>
</g>
<!-- Node45&#45;&gt;Node46 -->
<g id="edge10" class="edge">
<title>Node45&#45;&gt;Node46</title>
<path fill="none" stroke="#191970" d="M257.2716,-82.4675C268.1627,-80.7224 279.3015,-78.9377 289.3444,-77.3285"/>
<polygon fill="#191970" stroke="#191970" points="256.6979,-79.0146 247.3776,-84.0527 257.8055,-85.9265 256.6979,-79.0146"/>
</g>
<!-- Node48 -->
<g id="node9" class="node">
<title>Node48</title>
<g id="a_node9"><a xlink:href="a00131.html#aa46a9341d1eb7b39a2ef4cc5079ee3ca" target="_top" xlink:title="raises the intake ">
<polygon fill="none" stroke="#ff0000" points="290.7603,-25.5 290.7603,-43.5 360.6812,-43.5 360.6812,-25.5 290.7603,-25.5"/>
<text text-anchor="middle" x="325.7207" y="-31.5" font-family="Helvetica,sans-Serif" font-size="10.00" fill="#000000">raise_intake</text>
</a>
</g>
</g>
<!-- Node45&#45;&gt;Node48 -->
<g id="edge12" class="edge">
<title>Node45&#45;&gt;Node48</title>
<path fill="none" stroke="#191970" d="M230.0392,-78.1929C253.2623,-67.5881 285.17,-53.0175 305.6214,-43.6783"/>
<polygon fill="#191970" stroke="#191970" points="228.3195,-75.1305 220.6769,-82.4682 231.2272,-81.498 228.3195,-75.1305"/>
</g>
<!-- Node46&#45;&gt;Node40 -->
<g id="edge11" class="edge">
<title>Node46&#45;&gt;Node40</title>
<path fill="none" stroke="#191970" d="M360.8492,-83.9065C376.0966,-89.2915 393.6281,-95.4831 407.6279,-100.4275"/>
<polygon fill="#191970" stroke="#191970" points="361.8142,-80.5355 351.2194,-80.5055 359.483,-87.1359 361.8142,-80.5355"/>
</g>
<!-- Node48&#45;&gt;Node40 -->
<g id="edge13" class="edge">
<title>Node48&#45;&gt;Node40</title>
<path fill="none" stroke="#191970" d="M353.4789,-48.4651C356.3296,-50.0926 359.1488,-51.7858 361.7969,-53.5 384.5665,-68.2403 409.0245,-88.4526 422.6236,-100.1299"/>
<polygon fill="#191970" stroke="#191970" points="354.8938,-45.2504 344.4371,-43.5448 351.5478,-51.399 354.8938,-45.2504"/>
</g>
<!-- Node49&#45;&gt;Node40 -->
<g id="edge15" class="edge">
<title>Node49&#45;&gt;Node40</title>
<path fill="none" stroke="#191970" d="M264.2353,-2.2919C295.1749,.6175 332.0486,-.6387 361.7969,-15.5 398.302,-33.7368 421.2697,-80.4218 429.6877,-100.3071"/>
<polygon fill="#191970" stroke="#191970" points="263.5439,1.153 253.989,-3.4247 264.3131,-5.8046 263.5439,1.153"/>
</g>
</g>
</svg>
