<?xml version="1.0" encoding="UTF-8" standalone="no"?>
<!DOCTYPE svg PUBLIC "-//W3C//DTD SVG 1.1//EN"
 "http://www.w3.org/Graphics/SVG/1.1/DTD/svg11.dtd">
<!-- Generated by graphviz version 2.40.1 (20161225.0304)
 -->
<!-- Title: include/routines.h Pages: 1 -->
<svg width="182pt" height="82pt"
 viewBox="0.00 0.00 182.24 82.00" xmlns="http://www.w3.org/2000/svg" xmlns:xlink="http://www.w3.org/1999/xlink">
<g id="graph0" class="graph" transform="scale(1 1) rotate(0) translate(4 78)">
<title>include/routines.h</title>
<!-- Node5 -->
<g id="node1" class="node">
<title>Node5</title>
<polygon fill="#bfbfbf" stroke="#000000" points="41.3203,-55.5 41.3203,-73.5 135.7041,-73.5 135.7041,-55.5 41.3203,-55.5"/>
<text text-anchor="middle" x="88.5122" y="-61.5" font-family="Helvetica,sans-Serif" font-size="10.00" fill="#000000">include/routines.h</text>
</g>
<!-- Node6 -->
<g id="node2" class="node">
<title>Node6</title>
<g id="a_node2"><a xlink:href="a00134.html" target="_top" xlink:title="File for operator control code. ">
<polygon fill="none" stroke="#000000" points="0,-.5 0,-18.5 81.0244,-18.5 81.0244,-.5 0,-.5"/>
<text text-anchor="middle" x="40.5122" y="-6.5" font-family="Helvetica,sans-Serif" font-size="10.00" fill="#000000">src/opcontrol.c</text>
</a>
</g>
</g>
<!-- Node5&#45;&gt;Node6 -->
<g id="edge1" class="edge">
<title>Node5&#45;&gt;Node6</title>
<path fill="none" stroke="#191970" d="M73.8725,-47.7253C65.5726,-38.215 55.5016,-26.6754 48.6106,-18.7795"/>
<polygon fill="#191970" stroke="#191970" points="71.3736,-50.185 80.586,-55.4179 76.6476,-45.5822 71.3736,-50.185"/>
</g>
<!-- Node7 -->
<g id="node3" class="node">
<title>Node7</title>
<g id="a_node3"><a xlink:href="a00140.html" target="_top" xlink:title="src/routines.c">
<polygon fill="none" stroke="#000000" points="98.7808,-.5 98.7808,-18.5 174.2437,-18.5 174.2437,-.5 98.7808,-.5"/>
<text text-anchor="middle" x="136.5122" y="-6.5" font-family="Helvetica,sans-Serif" font-size="10.00" fill="#000000">src/routines.c</text>
</a>
</g>
</g>
<!-- Node5&#45;&gt;Node7 -->
<g id="edge2" class="edge">
<title>Node5&#45;&gt;Node7</title>
<path fill="none" stroke="#191970" d="M103.1519,-47.7253C111.4518,-38.215 121.5228,-26.6754 128.4138,-18.7795"/>
<polygon fill="#191970" stroke="#191970" points="100.3768,-45.5822 96.4384,-55.4179 105.6508,-50.185 100.3768,-45.5822"/>
</g>
</g>
</svg>
