<?xml version="1.0" encoding="UTF-8" standalone="no"?>
<!DOCTYPE svg PUBLIC "-//W3C//DTD SVG 1.1//EN"
 "http://www.w3.org/Graphics/SVG/1.1/DTD/svg11.dtd">
<!-- Generated by graphviz version 2.40.1 (20161225.0304)
 -->
<!-- Title: list_iterator_next Pages: 1 -->
<svg width="305pt" height="101pt"
 viewBox="0.00 0.00 304.77 101.00" xmlns="http://www.w3.org/2000/svg" xmlns:xlink="http://www.w3.org/1999/xlink">
<g id="graph0" class="graph" transform="scale(1 1) rotate(0) translate(4 97)">
<title>list_iterator_next</title>
<!-- Node39 -->
<g id="node1" class="node">
<title>Node39</title>
<polygon fill="#bfbfbf" stroke="#000000" points="0,-37.5 0,-55.5 89.3691,-55.5 89.3691,-37.5 0,-37.5"/>
<text text-anchor="middle" x="44.6846" y="-43.5" font-family="Helvetica,sans-Serif" font-size="10.00" fill="#000000">list_iterator_next</text>
</g>
<!-- Node40 -->
<g id="node2" class="node">
<title>Node40</title>
<g id="a_node2"><a xlink:href="a00110.html#ab3dacc64ceb63b0a0849312b0a14c91c" target="_top" xlink:title="list_at">
<polygon fill="none" stroke="#000000" points="139.5464,-74.5 139.5464,-92.5 181.6694,-92.5 181.6694,-74.5 139.5464,-74.5"/>
<text text-anchor="middle" x="160.6079" y="-80.5" font-family="Helvetica,sans-Serif" font-size="10.00" fill="#000000">list_at</text>
</a>
</g>
</g>
<!-- Node39&#45;&gt;Node40 -->
<g id="edge1" class="edge">
<title>Node39&#45;&gt;Node40</title>
<path fill="none" stroke="#191970" d="M82.5729,-58.5931C101.4593,-64.6212 123.5898,-71.6847 139.4501,-76.7469"/>
<polygon fill="#191970" stroke="#191970" points="83.6334,-55.2576 73.0426,-55.5512 81.5049,-61.9262 83.6334,-55.2576"/>
</g>
<!-- Node41 -->
<g id="node3" class="node">
<title>Node41</title>
<g id="a_node3"><a xlink:href="a00110.html#a5d73352b7bfa0c5a8b33289d7b27a374" target="_top" xlink:title="list_find">
<polygon fill="none" stroke="#000000" points="135.6548,-37.5 135.6548,-55.5 185.561,-55.5 185.561,-37.5 135.6548,-37.5"/>
<text text-anchor="middle" x="160.6079" y="-43.5" font-family="Helvetica,sans-Serif" font-size="10.00" fill="#000000">list_find</text>
</a>
</g>
</g>
<!-- Node39&#45;&gt;Node41 -->
<g id="edge2" class="edge">
<title>Node39&#45;&gt;Node41</title>
<path fill="none" stroke="#191970" d="M99.8464,-46.5C112.2673,-46.5 124.86,-46.5 135.3359,-46.5"/>
<polygon fill="#191970" stroke="#191970" points="99.5036,-43.0001 89.5036,-46.5 99.5035,-50.0001 99.5036,-43.0001"/>
</g>
<!-- Node42 -->
<g id="node4" class="node">
<title>Node42</title>
<g id="a_node4"><a xlink:href="a00140.html#a230cdcefb410a429fb6baba1f88fc9ba" target="_top" xlink:title="routine_task">
<polygon fill="none" stroke="#000000" points="125.3691,-.5 125.3691,-18.5 195.8467,-18.5 195.8467,-.5 125.3691,-.5"/>
<text text-anchor="middle" x="160.6079" y="-6.5" font-family="Helvetica,sans-Serif" font-size="10.00" fill="#000000">routine_task</text>
</a>
</g>
</g>
<!-- Node39&#45;&gt;Node42 -->
<g id="edge3" class="edge">
<title>Node39&#45;&gt;Node42</title>
<path fill="none" stroke="#191970" d="M82.7122,-34.3625C98.8116,-29.2239 117.2472,-23.3397 132.1409,-18.586"/>
<polygon fill="#191970" stroke="#191970" points="81.5049,-31.0738 73.0426,-37.4488 83.6334,-37.7424 81.5049,-31.0738"/>
</g>
<!-- Node43 -->
<g id="node5" class="node">
<title>Node43</title>
<g id="a_node5"><a xlink:href="a00140.html#ab873e24fcc59a2bf7844618b664a5d26" target="_top" xlink:title="init_routine">
<polygon fill="none" stroke="#ff0000" points="231.8467,-.5 231.8467,-18.5 296.7676,-18.5 296.7676,-.5 231.8467,-.5"/>
<text text-anchor="middle" x="264.3071" y="-6.5" font-family="Helvetica,sans-Serif" font-size="10.00" fill="#000000">init_routine</text>
</a>
</g>
</g>
<!-- Node42&#45;&gt;Node43 -->
<g id="edge4" class="edge">
<title>Node42&#45;&gt;Node43</title>
<path fill="none" stroke="#191970" d="M206.2169,-9.5C214.7329,-9.5 223.4768,-9.5 231.5116,-9.5"/>
<polygon fill="#191970" stroke="#191970" points="206.0053,-6.0001 196.0053,-9.5 206.0052,-13.0001 206.0053,-6.0001"/>
</g>
</g>
</svg>
