<?xml version="1.0" encoding="UTF-8" standalone="no"?>
<!DOCTYPE svg PUBLIC "-//W3C//DTD SVG 1.1//EN"
 "http://www.w3.org/Graphics/SVG/1.1/DTD/svg11.dtd">
<!-- Generated by graphviz version 2.40.1 (20161225.0304)
 -->
<!-- Title: include/potentiometer.h Pages: 1 -->
<svg width="332pt" height="137pt"
 viewBox="0.00 0.00 331.65 137.00" xmlns="http://www.w3.org/2000/svg" xmlns:xlink="http://www.w3.org/1999/xlink">
<g id="graph0" class="graph" transform="scale(1 1) rotate(0) translate(4 133)">
<title>include/potentiometer.h</title>
<!-- Node1 -->
<g id="node1" class="node">
<title>Node1</title>
<polygon fill="#bfbfbf" stroke="#000000" points="98.4312,-110.5 98.4312,-128.5 217.8394,-128.5 217.8394,-110.5 98.4312,-110.5"/>
<text text-anchor="middle" x="158.1353" y="-116.5" font-family="Helvetica,sans-Serif" font-size="10.00" fill="#000000">include/potentiometer.h</text>
</g>
<!-- Node2 -->
<g id="node2" class="node">
<title>Node2</title>
<g id="a_node2"><a xlink:href="a00026.html" target="_top" xlink:title="Declarations and macros for controlling and manipulating the lifter. ">
<polygon fill="none" stroke="#000000" points="119.5591,-55.5 119.5591,-73.5 196.7114,-73.5 196.7114,-55.5 119.5591,-55.5"/>
<text text-anchor="middle" x="158.1353" y="-61.5" font-family="Helvetica,sans-Serif" font-size="10.00" fill="#000000">include/lifter.h</text>
</a>
</g>
</g>
<!-- Node1&#45;&gt;Node2 -->
<g id="edge1" class="edge">
<title>Node1&#45;&gt;Node2</title>
<path fill="none" stroke="#191970" d="M158.1353,-100.383C158.1353,-91.3738 158.1353,-81.0373 158.1353,-73.7795"/>
<polygon fill="#191970" stroke="#191970" points="154.6354,-100.4178 158.1353,-110.4179 161.6354,-100.4179 154.6354,-100.4178"/>
</g>
<!-- Node3 -->
<g id="node3" class="node">
<title>Node3</title>
<g id="a_node3"><a xlink:href="a00002.html" target="_top" xlink:title="Autonomous declarations and macros. ">
<polygon fill="none" stroke="#ff0000" points="0,-.5 0,-18.5 78.2705,-18.5 78.2705,-.5 0,-.5"/>
<text text-anchor="middle" x="39.1353" y="-6.5" font-family="Helvetica,sans-Serif" font-size="10.00" fill="#000000">include/auto.h</text>
</a>
</g>
</g>
<!-- Node2&#45;&gt;Node3 -->
<g id="edge2" class="edge">
<title>Node2&#45;&gt;Node3</title>
<path fill="none" stroke="#191970" d="M129.3424,-51.1924C107.4924,-41.0937 78.0318,-27.4774 58.8149,-18.5956"/>
<polygon fill="#191970" stroke="#191970" points="127.939,-54.3995 138.4848,-55.4179 130.8759,-48.0453 127.939,-54.3995"/>
</g>
<!-- Node5 -->
<g id="node4" class="node">
<title>Node5</title>
<g id="a_node4"><a xlink:href="a00101.html" target="_top" xlink:title="File for initialization code. ">
<polygon fill="none" stroke="#000000" points="95.8003,-.5 95.8003,-18.5 148.4702,-18.5 148.4702,-.5 95.8003,-.5"/>
<text text-anchor="middle" x="122.1353" y="-6.5" font-family="Helvetica,sans-Serif" font-size="10.00" fill="#000000">src/init.c</text>
</a>
</g>
</g>
<!-- Node2&#45;&gt;Node5 -->
<g id="edge3" class="edge">
<title>Node2&#45;&gt;Node5</title>
<path fill="none" stroke="#191970" d="M146.586,-46.8553C140.475,-37.519 133.2207,-26.4361 128.2091,-18.7795"/>
<polygon fill="#191970" stroke="#191970" points="143.7855,-48.9677 152.1906,-55.4179 149.6424,-45.134 143.7855,-48.9677"/>
</g>
<!-- Node6 -->
<g id="node5" class="node">
<title>Node6</title>
<g id="a_node5"><a xlink:href="a00107.html" target="_top" xlink:title="src/lifter.c">
<polygon fill="none" stroke="#000000" points="166.0195,-.5 166.0195,-18.5 224.251,-18.5 224.251,-.5 166.0195,-.5"/>
<text text-anchor="middle" x="195.1353" y="-6.5" font-family="Helvetica,sans-Serif" font-size="10.00" fill="#000000">src/lifter.c</text>
</a>
</g>
</g>
<!-- Node2&#45;&gt;Node6 -->
<g id="edge4" class="edge">
<title>Node2&#45;&gt;Node6</title>
<path fill="none" stroke="#191970" d="M170.0053,-46.8553C176.2861,-37.519 183.7419,-26.4361 188.8927,-18.7795"/>
<polygon fill="#191970" stroke="#191970" points="166.9228,-45.167 164.2451,-55.4179 172.7309,-49.0743 166.9228,-45.167"/>
</g>
<!-- Node7 -->
<g id="node6" class="node">
<title>Node7</title>
<g id="a_node6"><a xlink:href="a00134.html" target="_top" xlink:title="File for operator control code. ">
<polygon fill="none" stroke="#000000" points="242.623,-.5 242.623,-18.5 323.6475,-18.5 323.6475,-.5 242.623,-.5"/>
<text text-anchor="middle" x="283.1353" y="-6.5" font-family="Helvetica,sans-Serif" font-size="10.00" fill="#000000">src/opcontrol.c</text>
</a>
</g>
</g>
<!-- Node2&#45;&gt;Node7 -->
<g id="edge5" class="edge">
<title>Node2&#45;&gt;Node7</title>
<path fill="none" stroke="#191970" d="M188.0715,-51.328C211.0537,-41.2159 242.187,-27.5172 262.4634,-18.5956"/>
<polygon fill="#191970" stroke="#191970" points="186.52,-48.1868 178.7765,-55.4179 189.3392,-54.594 186.52,-48.1868"/>
</g>
</g>
</svg>
