<?xml version="1.0" encoding="UTF-8" standalone="no"?>
<!DOCTYPE svg PUBLIC "-//W3C//DTD SVG 1.1//EN"
 "http://www.w3.org/Graphics/SVG/1.1/DTD/svg11.dtd">
<!-- Generated by graphviz version 2.40.1 (20161225.0304)
 -->
<!-- Title: init_localization Pages: 1 -->
<svg width="375pt" height="74pt"
 viewBox="0.00 0.00 374.82 74.00" xmlns="http://www.w3.org/2000/svg" xmlns:xlink="http://www.w3.org/1999/xlink">
<g id="graph0" class="graph" transform="scale(1 1) rotate(0) translate(4 70)">
<title>init_localization</title>
<!-- Node6 -->
<g id="node1" class="node">
<title>Node6</title>
<polygon fill="#bfbfbf" stroke="#000000" points="0,-25.5 0,-43.5 83.8174,-43.5 83.8174,-25.5 0,-25.5"/>
<text text-anchor="middle" x="41.9087" y="-31.5" font-family="Helvetica,sans-Serif" font-size="10.00" fill="#000000">init_localization</text>
</g>
<!-- Node7 -->
<g id="node2" class="node">
<title>Node7</title>
<g id="a_node2"><a xlink:href="a00041.html#aae8b56c6fb44d9147b835f4006ca872c" target="_top" xlink:title="Makes a matrix with a width and height parameters. ">
<polygon fill="none" stroke="#000000" points="129.2876,-45.5 129.2876,-63.5 196.9624,-63.5 196.9624,-45.5 129.2876,-45.5"/>
<text text-anchor="middle" x="163.125" y="-51.5" font-family="Helvetica,sans-Serif" font-size="10.00" fill="#000000">makeMatrix</text>
</a>
</g>
</g>
<!-- Node6&#45;&gt;Node7 -->
<g id="edge1" class="edge">
<title>Node6&#45;&gt;Node7</title>
<path fill="none" stroke="#191970" d="M83.9641,-41.4389C95.2723,-43.3047 107.5341,-45.3278 118.9538,-47.212"/>
<polygon fill="#191970" stroke="#191970" points="118.7165,-50.7201 129.1529,-48.8948 119.8561,-43.8135 118.7165,-50.7201"/>
</g>
<!-- Node9 -->
<g id="node4" class="node">
<title>Node9</title>
<g id="a_node4"><a xlink:href="a00119.html#afacd5e0b3d5e677df26a4402bbd9ec9e" target="_top" xlink:title="Updates the position from the localization. ">
<polygon fill="none" stroke="#000000" points="119.8174,-7.5 119.8174,-25.5 206.4326,-25.5 206.4326,-7.5 119.8174,-7.5"/>
<text text-anchor="middle" x="163.125" y="-13.5" font-family="Helvetica,sans-Serif" font-size="10.00" fill="#000000">update_position</text>
</a>
</g>
</g>
<!-- Node6&#45;&gt;Node9 -->
<g id="edge3" class="edge">
<title>Node6&#45;&gt;Node9</title>
<path fill="none" stroke="#191970" d="M83.9641,-28.255C92.2209,-27.0289 100.9861,-25.7273 109.5606,-24.454"/>
<polygon fill="#191970" stroke="#191970" points="110.1195,-27.9095 119.4969,-22.9785 109.0913,-20.9854 110.1195,-27.9095"/>
</g>
<!-- Node8 -->
<g id="node3" class="node">
<title>Node8</title>
<g id="a_node3"><a xlink:href="a00125.html#a8e41e30382335ea89f90b72db0b44d6f" target="_top" xlink:title="Asserts a condition is true. ">
<polygon fill="none" stroke="#000000" points="283.0112,-47.5 283.0112,-65.5 326.2427,-65.5 326.2427,-47.5 283.0112,-47.5"/>
<text text-anchor="middle" x="304.627" y="-53.5" font-family="Helvetica,sans-Serif" font-size="10.00" fill="#000000">assert</text>
</a>
</g>
</g>
<!-- Node7&#45;&gt;Node8 -->
<g id="edge2" class="edge">
<title>Node7&#45;&gt;Node8</title>
<path fill="none" stroke="#191970" d="M197.0182,-54.979C220.0285,-55.3043 250.255,-55.7315 272.8126,-56.0503"/>
<polygon fill="#191970" stroke="#191970" points="272.8453,-59.551 282.8938,-56.1928 272.9443,-52.5517 272.8453,-59.551"/>
</g>
<!-- Node10 -->
<g id="node5" class="node">
<title>Node10</title>
<g id="a_node5"><a xlink:href="a00119.html#a6785e4b3b61887f28028f05019b9b39d" target="_top" xlink:title="calculate_accelerometer\l_odemetry">
<polygon fill="none" stroke="#000000" points="242.4326,-.5 242.4326,-28.5 366.8213,-28.5 366.8213,-.5 242.4326,-.5"/>
<text text-anchor="start" x="250.4326" y="-16.5" font-family="Helvetica,sans-Serif" font-size="10.00" fill="#000000">calculate_accelerometer</text>
<text text-anchor="middle" x="304.627" y="-6.5" font-family="Helvetica,sans-Serif" font-size="10.00" fill="#000000">_odemetry</text>
</a>
</g>
</g>
<!-- Node9&#45;&gt;Node10 -->
<g id="edge4" class="edge">
<title>Node9&#45;&gt;Node10</title>
<path fill="none" stroke="#191970" d="M206.7349,-15.8836C214.7893,-15.7698 223.3969,-15.6481 232.0411,-15.5259"/>
<polygon fill="#191970" stroke="#191970" points="232.2249,-19.0238 242.1744,-15.3827 232.1259,-12.0245 232.2249,-19.0238"/>
</g>
</g>
</svg>
