<?xml version="1.0" encoding="UTF-8" standalone="no"?>
<!DOCTYPE svg PUBLIC "-//W3C//DTD SVG 1.1//EN"
 "http://www.w3.org/Graphics/SVG/1.1/DTD/svg11.dtd">
<!-- Generated by graphviz version 2.40.1 (20161225.0304)
 -->
<!-- Title: set_motor_immediate Pages: 1 -->
<svg width="324pt" height="82pt"
 viewBox="0.00 0.00 323.65 82.00" xmlns="http://www.w3.org/2000/svg" xmlns:xlink="http://www.w3.org/1999/xlink">
<g id="graph0" class="graph" transform="scale(1 1) rotate(0) translate(4 78)">
<title>set_motor_immediate</title>
<!-- Node32 -->
<g id="node1" class="node">
<title>Node32</title>
<polygon fill="#bfbfbf" stroke="#000000" points="0,-36.5 0,-54.5 112.1523,-54.5 112.1523,-36.5 0,-36.5"/>
<text text-anchor="middle" x="56.0762" y="-42.5" font-family="Helvetica,sans-Serif" font-size="10.00" fill="#000000">set_motor_immediate</text>
</g>
<!-- Node33 -->
<g id="node2" class="node">
<title>Node33</title>
<g id="a_node2"><a xlink:href="a00035.html#af3668f40d1ad1b4f3418869ac9a31f34" target="_top" xlink:title="prints a info message ">
<polygon fill="none" stroke="#000000" points="153.4233,-55.5 153.4233,-73.5 197.231,-73.5 197.231,-55.5 153.4233,-55.5"/>
<text text-anchor="middle" x="175.3271" y="-61.5" font-family="Helvetica,sans-Serif" font-size="10.00" fill="#000000">debug</text>
</a>
</g>
</g>
<!-- Node32&#45;&gt;Node33 -->
<g id="edge1" class="edge">
<title>Node32&#45;&gt;Node33</title>
<path fill="none" stroke="#191970" d="M112.2098,-54.4436C122.9458,-56.1542 133.8333,-57.8889 143.4736,-59.4248"/>
<polygon fill="#191970" stroke="#191970" points="142.9525,-62.8859 153.3787,-61.003 144.054,-55.9731 142.9525,-62.8859"/>
</g>
<!-- Node34 -->
<g id="node3" class="node">
<title>Node34</title>
<g id="a_node3"><a xlink:href="a00143.html#a321758941d88b75783955c819bb75005" target="_top" xlink:title="Initializes the slew rate controller. ">
<polygon fill="none" stroke="#000000" points="148.1523,-18.5 148.1523,-36.5 202.502,-36.5 202.502,-18.5 148.1523,-18.5"/>
<text text-anchor="middle" x="175.3271" y="-24.5" font-family="Helvetica,sans-Serif" font-size="10.00" fill="#000000">init_slew</text>
</a>
</g>
</g>
<!-- Node32&#45;&gt;Node34 -->
<g id="edge2" class="edge">
<title>Node32&#45;&gt;Node34</title>
<path fill="none" stroke="#191970" d="M112.2098,-37.0271C120.9598,-35.7063 129.8105,-34.3704 138.0046,-33.1336"/>
<polygon fill="#191970" stroke="#191970" points="138.61,-36.5819 147.9756,-31.6285 137.5652,-29.6603 138.61,-36.5819"/>
</g>
<!-- Node35 -->
<g id="node4" class="node">
<title>Node35</title>
<g id="a_node4"><a xlink:href="a00035.html#a0bec2cf5fff7f607bc510b74aba9887c" target="_top" xlink:title="prints a warning message and displays on lcd. ">
<polygon fill="none" stroke="#ff0000" points="251.5659,-37.5 251.5659,-55.5 302.5854,-55.5 302.5854,-37.5 251.5659,-37.5"/>
<text text-anchor="middle" x="277.0757" y="-43.5" font-family="Helvetica,sans-Serif" font-size="10.00" fill="#000000">warning</text>
</a>
</g>
</g>
<!-- Node34&#45;&gt;Node35 -->
<g id="edge3" class="edge">
<title>Node34&#45;&gt;Node35</title>
<path fill="none" stroke="#191970" d="M202.5939,-32.5917C214.5776,-34.8294 228.8069,-37.4865 241.6014,-39.8757"/>
<polygon fill="#191970" stroke="#191970" points="241.0118,-43.326 251.4844,-41.7212 242.2968,-36.445 241.0118,-43.326"/>
</g>
<!-- Node37 -->
<g id="node5" class="node">
<title>Node37</title>
<g id="a_node5"><a xlink:href="a00143.html#a807a87c5df438fde21c1e8213906695b" target="_top" xlink:title="Closes the distance between the desired motor value and the current motor value by half for each moto...">
<polygon fill="none" stroke="#000000" points="238.502,-.5 238.502,-18.5 315.6494,-18.5 315.6494,-.5 238.502,-.5"/>
<text text-anchor="middle" x="277.0757" y="-6.5" font-family="Helvetica,sans-Serif" font-size="10.00" fill="#000000">updateMotors</text>
</a>
</g>
</g>
<!-- Node34&#45;&gt;Node37 -->
<g id="edge4" class="edge">
<title>Node34&#45;&gt;Node37</title>
<path fill="none" stroke="#191970" d="M202.5939,-22.6763C210.549,-21.269 219.4937,-19.6866 228.3513,-18.1197"/>
<polygon fill="#191970" stroke="#191970" points="229.02,-21.5558 238.2574,-16.3672 227.8006,-14.6628 229.02,-21.5558"/>
</g>
</g>
</svg>
