<?xml version="1.0" encoding="UTF-8" standalone="no"?>
<!DOCTYPE svg PUBLIC "-//W3C//DTD SVG 1.1//EN"
 "http://www.w3.org/Graphics/SVG/1.1/DTD/svg11.dtd">
<!-- Generated by graphviz version 2.40.1 (20161225.0304)
 -->
<!-- Title: src/partner.c Pages: 1 -->
<svg width="106pt" height="192pt"
 viewBox="0.00 0.00 105.97 192.00" xmlns="http://www.w3.org/2000/svg" xmlns:xlink="http://www.w3.org/1999/xlink">
<g id="graph0" class="graph" transform="scale(1 1) rotate(0) translate(4 188)">
<title>src/partner.c</title>
<!-- Node0 -->
<g id="node1" class="node">
<title>Node0</title>
<polygon fill="#bfbfbf" stroke="#000000" points="0,-165.5 0,-183.5 71.0244,-183.5 71.0244,-165.5 0,-165.5"/>
<text text-anchor="middle" x="35.5122" y="-171.5" font-family="Helvetica,sans-Serif" font-size="10.00" fill="#000000">src/partner.c</text>
</g>
<!-- Node1 -->
<g id="node2" class="node">
<title>Node1</title>
<g id="a_node2"><a xlink:href="a00053.html" target="_top" xlink:title="partner.h">
<polygon fill="none" stroke="#000000" points="7.7734,-110.5 7.7734,-128.5 63.251,-128.5 63.251,-110.5 7.7734,-110.5"/>
<text text-anchor="middle" x="35.5122" y="-116.5" font-family="Helvetica,sans-Serif" font-size="10.00" fill="#000000">partner.h</text>
</a>
</g>
</g>
<!-- Node0&#45;&gt;Node1 -->
<g id="edge1" class="edge">
<title>Node0&#45;&gt;Node1</title>
<path fill="none" stroke="#191970" d="M35.5122,-165.4179C35.5122,-158.2164 35.5122,-147.8962 35.5122,-138.8632"/>
<polygon fill="#191970" stroke="#191970" points="39.0123,-138.7794 35.5122,-128.7795 32.0123,-138.7795 39.0123,-138.7794"/>
</g>
<!-- Node2 -->
<g id="node3" class="node">
<title>Node2</title>
<polygon fill="none" stroke="#bfbfbf" points="15.2832,-.5 15.2832,-18.5 55.7412,-18.5 55.7412,-.5 15.2832,-.5"/>
<text text-anchor="middle" x="35.5122" y="-6.5" font-family="Helvetica,sans-Serif" font-size="10.00" fill="#000000">API.h</text>
</g>
<!-- Node1&#45;&gt;Node2 -->
<g id="edge2" class="edge">
<title>Node1&#45;&gt;Node2</title>
<path fill="none" stroke="#191970" d="M32.5784,-110.2071C29.8656,-101.0938 26.0316,-86.7503 24.5122,-74 22.6825,-58.6454 25.9089,-41.383 29.3316,-28.5831"/>
<polygon fill="#191970" stroke="#191970" points="32.7913,-29.2255 32.2679,-18.6436 26.0781,-27.2422 32.7913,-29.2255"/>
</g>
<!-- Node3 -->
<g id="node4" class="node">
<title>Node3</title>
<g id="a_node4"><a xlink:href="a00011.html" target="_top" xlink:title="controller definitions, macros and functions to assist with usig the vex controllers. ">
<polygon fill="none" stroke="#ff0000" points="33.0518,-55.5 33.0518,-73.5 97.9727,-73.5 97.9727,-55.5 33.0518,-55.5"/>
<text text-anchor="middle" x="65.5122" y="-61.5" font-family="Helvetica,sans-Serif" font-size="10.00" fill="#000000">controller.h</text>
</a>
</g>
</g>
<!-- Node1&#45;&gt;Node3 -->
<g id="edge3" class="edge">
<title>Node1&#45;&gt;Node3</title>
<path fill="none" stroke="#191970" d="M40.4661,-110.4179C44.5669,-102.8998 50.5215,-91.9829 55.5959,-82.6799"/>
<polygon fill="#191970" stroke="#191970" points="58.7348,-84.2344 60.4507,-73.7795 52.5895,-80.8824 58.7348,-84.2344"/>
</g>
<!-- Node3&#45;&gt;Node2 -->
<g id="edge4" class="edge">
<title>Node3&#45;&gt;Node2</title>
<path fill="none" stroke="#191970" d="M60.5583,-55.4179C56.4576,-47.8998 50.5029,-36.9829 45.4285,-27.6799"/>
<polygon fill="#191970" stroke="#191970" points="48.4349,-25.8824 40.5737,-18.7795 42.2897,-29.2344 48.4349,-25.8824"/>
</g>
</g>
</svg>
