<?xml version="1.0" encoding="UTF-8" standalone="no"?>
<!DOCTYPE svg PUBLIC "-//W3C//DTD SVG 1.1//EN"
 "http://www.w3.org/Graphics/SVG/1.1/DTD/svg11.dtd">
<!-- Generated by graphviz version 2.40.1 (20161225.0304)
 -->
<!-- Title: src/vlib.c Pages: 1 -->
<svg width="181pt" height="137pt"
 viewBox="0.00 0.00 180.63 137.00" xmlns="http://www.w3.org/2000/svg" xmlns:xlink="http://www.w3.org/1999/xlink">
<g id="graph0" class="graph" transform="scale(1 1) rotate(0) translate(4 133)">
<title>src/vlib.c</title>
<!-- Node0 -->
<g id="node1" class="node">
<title>Node0</title>
<polygon fill="#bfbfbf" stroke="#000000" points="54.7832,-110.5 54.7832,-128.5 109.6748,-128.5 109.6748,-110.5 54.7832,-110.5"/>
<text text-anchor="middle" x="82.229" y="-116.5" font-family="Helvetica,sans-Serif" font-size="10.00" fill="#000000">src/vlib.c</text>
</g>
<!-- Node1 -->
<g id="node2" class="node">
<title>Node1</title>
<g id="a_node2"><a xlink:href="a00071.html" target="_top" xlink:title="Contains misc helpful functions. ">
<polygon fill="none" stroke="#000000" points="62.5566,-55.5 62.5566,-73.5 101.9014,-73.5 101.9014,-55.5 62.5566,-55.5"/>
<text text-anchor="middle" x="82.229" y="-61.5" font-family="Helvetica,sans-Serif" font-size="10.00" fill="#000000">vlib.h</text>
</a>
</g>
</g>
<!-- Node0&#45;&gt;Node1 -->
<g id="edge1" class="edge">
<title>Node0&#45;&gt;Node1</title>
<path fill="none" stroke="#191970" d="M82.229,-110.4179C82.229,-103.2164 82.229,-92.8962 82.229,-83.8632"/>
<polygon fill="#191970" stroke="#191970" points="85.7291,-83.7794 82.229,-73.7795 78.7291,-83.7795 85.7291,-83.7794"/>
</g>
<!-- Node2 -->
<g id="node3" class="node">
<title>Node2</title>
<polygon fill="none" stroke="#bfbfbf" points="0,-.5 0,-18.5 40.458,-18.5 40.458,-.5 0,-.5"/>
<text text-anchor="middle" x="20.229" y="-6.5" font-family="Helvetica,sans-Serif" font-size="10.00" fill="#000000">API.h</text>
</g>
<!-- Node1&#45;&gt;Node2 -->
<g id="edge2" class="edge">
<title>Node1&#45;&gt;Node2</title>
<path fill="none" stroke="#191970" d="M71.991,-55.4179C62.8916,-47.3458 49.3753,-35.3556 38.4364,-25.6517"/>
<polygon fill="#191970" stroke="#191970" points="40.4929,-22.7974 30.6895,-18.7795 35.8476,-28.0339 40.4929,-22.7974"/>
</g>
<!-- Node3 -->
<g id="node4" class="node">
<title>Node3</title>
<polygon fill="none" stroke="#bfbfbf" points="58.9434,-.5 58.9434,-18.5 105.5146,-18.5 105.5146,-.5 58.9434,-.5"/>
<text text-anchor="middle" x="82.229" y="-6.5" font-family="Helvetica,sans-Serif" font-size="10.00" fill="#000000">math.h</text>
</g>
<!-- Node1&#45;&gt;Node3 -->
<g id="edge3" class="edge">
<title>Node1&#45;&gt;Node3</title>
<path fill="none" stroke="#191970" d="M82.229,-55.4179C82.229,-48.2164 82.229,-37.8962 82.229,-28.8632"/>
<polygon fill="#191970" stroke="#191970" points="85.7291,-28.7794 82.229,-18.7795 78.7291,-28.7795 85.7291,-28.7794"/>
</g>
<!-- Node4 -->
<g id="node5" class="node">
<title>Node4</title>
<polygon fill="none" stroke="#bfbfbf" points="123.8325,-.5 123.8325,-18.5 172.6255,-18.5 172.6255,-.5 123.8325,-.5"/>
<text text-anchor="middle" x="148.229" y="-6.5" font-family="Helvetica,sans-Serif" font-size="10.00" fill="#000000">string.h</text>
</g>
<!-- Node1&#45;&gt;Node4 -->
<g id="edge4" class="edge">
<title>Node1&#45;&gt;Node4</title>
<path fill="none" stroke="#191970" d="M93.1276,-55.4179C102.909,-47.2667 117.4848,-35.1201 129.1887,-25.3669"/>
<polygon fill="#191970" stroke="#191970" points="131.6521,-27.8701 137.0937,-18.7795 127.1708,-22.4926 131.6521,-27.8701"/>
</g>
</g>
</svg>
