<?xml version="1.0" encoding="UTF-8" standalone="no"?>
<!DOCTYPE svg PUBLIC "-//W3C//DTD SVG 1.1//EN"
 "http://www.w3.org/Graphics/SVG/1.1/DTD/svg11.dtd">
<!-- Generated by graphviz version 2.40.1 (20161225.0304)
 -->
<!-- Title: secondary_lifter_update Pages: 1 -->
<svg width="420pt" height="37pt"
 viewBox="0.00 0.00 420.38 37.00" xmlns="http://www.w3.org/2000/svg" xmlns:xlink="http://www.w3.org/1999/xlink">
<g id="graph0" class="graph" transform="scale(1 1) rotate(0) translate(4 33)">
<title>secondary_lifter_update</title>
<!-- Node66 -->
<g id="node1" class="node">
<title>Node66</title>
<polygon fill="#bfbfbf" stroke="#000000" points="0,-5.5 0,-23.5 122.7383,-23.5 122.7383,-5.5 0,-5.5"/>
<text text-anchor="middle" x="61.3691" y="-11.5" font-family="Helvetica,sans-Serif" font-size="10.00" fill="#000000">secondary_lifter_update</text>
</g>
<!-- Node67 -->
<g id="node2" class="node">
<title>Node67</title>
<g id="a_node2"><a xlink:href="a00107.html#a78640d547d9361951a92d0bc00939536" target="_top" xlink:title="Sets the secondary lifter motors to the given value. ">
<polygon fill="none" stroke="#000000" points="158.7383,-.5 158.7383,-28.5 264.2305,-28.5 264.2305,-.5 158.7383,-.5"/>
<text text-anchor="start" x="166.7383" y="-16.5" font-family="Helvetica,sans-Serif" font-size="10.00" fill="#000000">set_secondary_lifter</text>
<text text-anchor="middle" x="211.4844" y="-6.5" font-family="Helvetica,sans-Serif" font-size="10.00" fill="#000000">_motors</text>
</a>
</g>
</g>
<!-- Node66&#45;&gt;Node67 -->
<g id="edge1" class="edge">
<title>Node66&#45;&gt;Node67</title>
<path fill="none" stroke="#191970" d="M122.8599,-14.5C131.2643,-14.5 139.9034,-14.5 148.3367,-14.5"/>
<polygon fill="#191970" stroke="#191970" points="148.4917,-18.0001 158.4917,-14.5 148.4917,-11.0001 148.4917,-18.0001"/>
</g>
<!-- Node68 -->
<g id="node3" class="node">
<title>Node68</title>
<g id="a_node3"><a xlink:href="a00065.html#a9f8b8ae577ef938622024545711f0151" target="_top" xlink:title="Sets the motor speed ignoring the slew controller. ">
<polygon fill="none" stroke="#ff0000" points="300.2305,-5.5 300.2305,-23.5 412.3828,-23.5 412.3828,-5.5 300.2305,-5.5"/>
<text text-anchor="middle" x="356.3066" y="-11.5" font-family="Helvetica,sans-Serif" font-size="10.00" fill="#000000">set_motor_immediate</text>
</a>
</g>
</g>
<!-- Node67&#45;&gt;Node68 -->
<g id="edge2" class="edge">
<title>Node67&#45;&gt;Node68</title>
<path fill="none" stroke="#191970" d="M264.5885,-14.5C272.7381,-14.5 281.2398,-14.5 289.6377,-14.5"/>
<polygon fill="#191970" stroke="#191970" points="289.7994,-18.0001 299.7994,-14.5 289.7993,-11.0001 289.7994,-18.0001"/>
</g>
</g>
</svg>
