<?xml version="1.0" encoding="UTF-8" standalone="no"?>
<!DOCTYPE svg PUBLIC "-//W3C//DTD SVG 1.1//EN"
 "http://www.w3.org/Graphics/SVG/1.1/DTD/svg11.dtd">
<!-- Generated by graphviz version 2.40.1 (20161225.0304)
 -->
<!-- Title: create_menu Pages: 1 -->
<svg width="243pt" height="27pt"
 viewBox="0.00 0.00 242.51 27.00" xmlns="http://www.w3.org/2000/svg" xmlns:xlink="http://www.w3.org/1999/xlink">
<g id="graph0" class="graph" transform="scale(1 1) rotate(0) translate(4 23)">
<title>create_menu</title>
<!-- Node8 -->
<g id="node1" class="node">
<title>Node8</title>
<polygon fill="#bfbfbf" stroke="#000000" points="0,-.5 0,-18.5 74.3691,-18.5 74.3691,-.5 0,-.5"/>
<text text-anchor="middle" x="37.1846" y="-6.5" font-family="Helvetica,sans-Serif" font-size="10.00" fill="#000000">create_menu</text>
</g>
<!-- Node9 -->
<g id="node2" class="node">
<title>Node9</title>
<g id="a_node2"><a xlink:href="a00035.html#a8e5bb8a2a372f5b066ff7af7044584c1" target="_top" xlink:title="prints a error message and displays on lcd. ">
<polygon fill="none" stroke="#000000" points="110.3691,-.5 110.3691,-18.5 147.4824,-18.5 147.4824,-.5 110.3691,-.5"/>
<text text-anchor="middle" x="128.9258" y="-6.5" font-family="Helvetica,sans-Serif" font-size="10.00" fill="#000000">error</text>
</a>
</g>
</g>
<!-- Node8&#45;&gt;Node9 -->
<g id="edge1" class="edge">
<title>Node8&#45;&gt;Node9</title>
<path fill="none" stroke="#191970" d="M74.4992,-9.5C83.0534,-9.5 92.0192,-9.5 100.149,-9.5"/>
<polygon fill="#191970" stroke="#191970" points="100.25,-13.0001 110.25,-9.5 100.25,-6.0001 100.25,-13.0001"/>
</g>
<!-- Node10 -->
<g id="node3" class="node">
<title>Node10</title>
<g id="a_node3"><a xlink:href="a00122.html#afff22aff6749311a684a559cac3ac8bd" target="_top" xlink:title="log_info">
<polygon fill="none" stroke="#000000" points="183.4824,-.5 183.4824,-18.5 234.5117,-18.5 234.5117,-.5 183.4824,-.5"/>
<text text-anchor="middle" x="208.9971" y="-6.5" font-family="Helvetica,sans-Serif" font-size="10.00" fill="#000000">log_info</text>
</a>
</g>
</g>
<!-- Node9&#45;&gt;Node10 -->
<g id="edge2" class="edge">
<title>Node9&#45;&gt;Node10</title>
<path fill="none" stroke="#191970" d="M147.497,-9.5C155.1343,-9.5 164.2511,-9.5 173.0958,-9.5"/>
<polygon fill="#191970" stroke="#191970" points="173.2489,-13.0001 183.2489,-9.5 173.2488,-6.0001 173.2489,-13.0001"/>
</g>
</g>
</svg>
