<?xml version="1.0" encoding="UTF-8" standalone="no"?>
<!DOCTYPE svg PUBLIC "-//W3C//DTD SVG 1.1//EN"
 "http://www.w3.org/Graphics/SVG/1.1/DTD/svg11.dtd">
<!-- Generated by graphviz version 2.40.1 (20161225.0304)
 -->
<!-- Title: error Pages: 1 -->
<svg width="364pt" height="120pt"
 viewBox="0.00 0.00 363.99 120.00" xmlns="http://www.w3.org/2000/svg" xmlns:xlink="http://www.w3.org/1999/xlink">
<g id="graph0" class="graph" transform="scale(1 1) rotate(0) translate(4 116)">
<title>error</title>
<!-- Node28 -->
<g id="node1" class="node">
<title>Node28</title>
<polygon fill="#bfbfbf" stroke="#000000" points="0,-18.5 0,-36.5 37.1133,-36.5 37.1133,-18.5 0,-18.5"/>
<text text-anchor="middle" x="18.5566" y="-24.5" font-family="Helvetica,sans-Serif" font-size="10.00" fill="#000000">error</text>
</g>
<!-- Node29 -->
<g id="node2" class="node">
<title>Node29</title>
<g id="a_node2"><a xlink:href="a00128.html#aff4fd27ff7707295d91c67fa52a6b021" target="_top" xlink:title="Static function that handles creation of menu. ">
<polygon fill="none" stroke="#000000" points="73.6699,-37.5 73.6699,-55.5 148.0391,-55.5 148.0391,-37.5 73.6699,-37.5"/>
<text text-anchor="middle" x="110.8545" y="-43.5" font-family="Helvetica,sans-Serif" font-size="10.00" fill="#000000">create_menu</text>
</a>
</g>
</g>
<!-- Node28&#45;&gt;Node29 -->
<g id="edge1" class="edge">
<title>Node28&#45;&gt;Node29</title>
<path fill="none" stroke="#191970" d="M47.2013,-33.3966C55.5257,-35.1103 64.7421,-37.0075 73.5171,-38.8139"/>
<polygon fill="#191970" stroke="#191970" points="47.7348,-29.9332 37.2345,-31.3449 46.3234,-36.7894 47.7348,-29.9332"/>
</g>
<!-- Node34 -->
<g id="node7" class="node">
<title>Node34</title>
<g id="a_node7"><a xlink:href="a00095.html#aa6ec1ca17e907babd52803ecba451cd3" target="_top" xlink:title="Initializes all motor encoders. ">
<polygon fill="none" stroke="#000000" points="73.1133,-.5 73.1133,-18.5 148.5957,-18.5 148.5957,-.5 73.1133,-.5"/>
<text text-anchor="middle" x="110.8545" y="-6.5" font-family="Helvetica,sans-Serif" font-size="10.00" fill="#000000">init_encoders</text>
</a>
</g>
</g>
<!-- Node28&#45;&gt;Node34 -->
<g id="edge6" class="edge">
<title>Node28&#45;&gt;Node34</title>
<path fill="none" stroke="#191970" d="M47.2601,-21.9022C55.3298,-20.3285 64.234,-18.592 72.7597,-16.9293"/>
<polygon fill="#191970" stroke="#191970" points="46.3796,-18.5079 37.2345,-23.8574 47.7196,-25.3785 46.3796,-18.5079"/>
</g>
<!-- Node30 -->
<g id="node3" class="node">
<title>Node30</title>
<g id="a_node3"><a xlink:href="a00128.html#af1bb786cb6014dcbfdb146878e713a3d" target="_top" xlink:title="Creates a menu context, but does not display. ">
<polygon fill="none" stroke="#000000" points="187.1006,-93.5 187.1006,-111.5 265.9131,-111.5 265.9131,-93.5 187.1006,-93.5"/>
<text text-anchor="middle" x="226.5068" y="-99.5" font-family="Helvetica,sans-Serif" font-size="10.00" fill="#000000">init_menu_var</text>
</a>
</g>
</g>
<!-- Node29&#45;&gt;Node30 -->
<g id="edge2" class="edge">
<title>Node29&#45;&gt;Node30</title>
<path fill="none" stroke="#191970" d="M136.7402,-60.4034C150.7814,-67.8015 168.5088,-76.912 184.5957,-84.5 191.0416,-87.5405 198.1353,-90.6678 204.6246,-93.4452"/>
<polygon fill="#191970" stroke="#191970" points="138.1482,-57.1883 127.6738,-55.5949 134.8684,-63.3724 138.1482,-57.1883"/>
</g>
<!-- Node32 -->
<g id="node5" class="node">
<title>Node32</title>
<g id="a_node5"><a xlink:href="a00128.html#ac8efedba760ec35ebf841ab19543ba5a" target="_top" xlink:title="Creates a menu context, but does not display. ">
<polygon fill="none" stroke="#000000" points="188.7656,-56.5 188.7656,-74.5 264.248,-74.5 264.248,-56.5 188.7656,-56.5"/>
<text text-anchor="middle" x="226.5068" y="-62.5" font-family="Helvetica,sans-Serif" font-size="10.00" fill="#000000">init_menu_int</text>
</a>
</g>
</g>
<!-- Node29&#45;&gt;Node32 -->
<g id="edge4" class="edge">
<title>Node29&#45;&gt;Node32</title>
<path fill="none" stroke="#191970" d="M158.0394,-54.2518C168.1943,-55.9201 178.8026,-57.6629 188.5529,-59.2647"/>
<polygon fill="#191970" stroke="#191970" points="158.5194,-50.7838 148.0842,-52.6163 157.3845,-57.6912 158.5194,-50.7838"/>
</g>
<!-- Node33 -->
<g id="node6" class="node">
<title>Node33</title>
<g id="a_node6"><a xlink:href="a00128.html#a5abb752733423805f59ef3b92e3c2e57" target="_top" xlink:title="Creates a menu context, but does not display. ">
<polygon fill="none" stroke="#000000" points="184.5957,-19.5 184.5957,-37.5 268.418,-37.5 268.418,-19.5 184.5957,-19.5"/>
<text text-anchor="middle" x="226.5068" y="-25.5" font-family="Helvetica,sans-Serif" font-size="10.00" fill="#000000">init_menu_float</text>
</a>
</g>
</g>
<!-- Node29&#45;&gt;Node33 -->
<g id="edge5" class="edge">
<title>Node29&#45;&gt;Node33</title>
<path fill="none" stroke="#191970" d="M158.143,-39.1401C166.8844,-37.7796 175.9583,-36.3673 184.5288,-35.0334"/>
<polygon fill="#191970" stroke="#191970" points="157.427,-35.7093 148.0842,-40.7056 158.5035,-42.626 157.427,-35.7093"/>
</g>
<!-- Node31 -->
<g id="node4" class="node">
<title>Node31</title>
<g id="a_node4"><a xlink:href="a00101.html#a25a40b6614565f755233080a384c35f1" target="_top" xlink:title="Runs user initialization code. ">
<polygon fill="none" stroke="#000000" points="304.418,-37.5 304.418,-55.5 355.9893,-55.5 355.9893,-37.5 304.418,-37.5"/>
<text text-anchor="middle" x="330.2036" y="-43.5" font-family="Helvetica,sans-Serif" font-size="10.00" fill="#000000">initialize</text>
</a>
</g>
</g>
<!-- Node30&#45;&gt;Node31 -->
<g id="edge3" class="edge">
<title>Node30&#45;&gt;Node31</title>
<path fill="none" stroke="#191970" d="M258.6888,-89.2491C262.0061,-87.7138 265.3009,-86.117 268.418,-84.5 285.6329,-75.5699 304.4949,-63.6325 316.7927,-55.5375"/>
<polygon fill="#191970" stroke="#191970" points="257.1225,-86.1151 249.4088,-93.3779 259.9681,-92.5106 257.1225,-86.1151"/>
</g>
<!-- Node34&#45;&gt;Node31 -->
<g id="edge7" class="edge">
<title>Node34&#45;&gt;Node31</title>
<path fill="none" stroke="#191970" d="M159.1742,-2.9164C190.821,-.1976 232.7682,.3581 268.418,-9.5 287.9401,-14.8984 307.4967,-28.2812 319.2265,-37.3813"/>
<polygon fill="#191970" stroke="#191970" points="158.4792,.5329 148.8607,-3.9095 159.1502,-6.4348 158.4792,.5329"/>
</g>
</g>
</svg>
