<?xml version="1.0" encoding="UTF-8" standalone="no"?>
<!DOCTYPE svg PUBLIC "-//W3C//DTD SVG 1.1//EN"
 "http://www.w3.org/Graphics/SVG/1.1/DTD/svg11.dtd">
<!-- Generated by graphviz version 2.40.1 (20161225.0304)
 -->
<!-- Title: set_secondary_lifter_motors Pages: 1 -->
<svg width="352pt" height="64pt"
 viewBox="0.00 0.00 351.99 64.00" xmlns="http://www.w3.org/2000/svg" xmlns:xlink="http://www.w3.org/1999/xlink">
<g id="graph0" class="graph" transform="scale(1 1) rotate(0) translate(4 60)">
<title>set_secondary_lifter_motors</title>
<!-- Node94 -->
<g id="node1" class="node">
<title>Node94</title>
<polygon fill="#bfbfbf" stroke="#000000" points="0,-13.5 0,-41.5 105.4922,-41.5 105.4922,-13.5 0,-13.5"/>
<text text-anchor="start" x="8" y="-29.5" font-family="Helvetica,sans-Serif" font-size="10.00" fill="#000000">set_secondary_lifter</text>
<text text-anchor="middle" x="52.7461" y="-19.5" font-family="Helvetica,sans-Serif" font-size="10.00" fill="#000000">_motors</text>
</g>
<!-- Node95 -->
<g id="node2" class="node">
<title>Node95</title>
<g id="a_node2"><a xlink:href="a00065.html#a9f8b8ae577ef938622024545711f0151" target="_top" xlink:title="Sets the motor speed ignoring the slew controller. ">
<polygon fill="none" stroke="#000000" points="141.4922,-18.5 141.4922,-36.5 253.6445,-36.5 253.6445,-18.5 141.4922,-18.5"/>
<text text-anchor="middle" x="197.5684" y="-24.5" font-family="Helvetica,sans-Serif" font-size="10.00" fill="#000000">set_motor_immediate</text>
</a>
</g>
</g>
<!-- Node94&#45;&gt;Node95 -->
<g id="edge1" class="edge">
<title>Node94&#45;&gt;Node95</title>
<path fill="none" stroke="#191970" d="M105.8502,-27.5C113.9999,-27.5 122.5015,-27.5 130.8995,-27.5"/>
<polygon fill="#191970" stroke="#191970" points="131.0611,-31.0001 141.0611,-27.5 131.0611,-24.0001 131.0611,-31.0001"/>
</g>
<!-- Node96 -->
<g id="node3" class="node">
<title>Node96</title>
<g id="a_node3"><a xlink:href="a00035.html#af3668f40d1ad1b4f3418869ac9a31f34" target="_top" xlink:title="prints a info message ">
<polygon fill="none" stroke="#000000" points="294.9155,-37.5 294.9155,-55.5 338.7231,-55.5 338.7231,-37.5 294.9155,-37.5"/>
<text text-anchor="middle" x="316.8193" y="-43.5" font-family="Helvetica,sans-Serif" font-size="10.00" fill="#000000">debug</text>
</a>
</g>
</g>
<!-- Node95&#45;&gt;Node96 -->
<g id="edge2" class="edge">
<title>Node95&#45;&gt;Node96</title>
<path fill="none" stroke="#191970" d="M253.7019,-36.4436C264.438,-38.1542 275.3255,-39.8889 284.9658,-41.4248"/>
<polygon fill="#191970" stroke="#191970" points="284.4447,-44.8859 294.8709,-43.003 285.5462,-37.9731 284.4447,-44.8859"/>
</g>
<!-- Node97 -->
<g id="node4" class="node">
<title>Node97</title>
<g id="a_node4"><a xlink:href="a00143.html#a321758941d88b75783955c819bb75005" target="_top" xlink:title="Initializes the slew rate controller. ">
<polygon fill="none" stroke="#ff0000" points="289.6445,-.5 289.6445,-18.5 343.9941,-18.5 343.9941,-.5 289.6445,-.5"/>
<text text-anchor="middle" x="316.8193" y="-6.5" font-family="Helvetica,sans-Serif" font-size="10.00" fill="#000000">init_slew</text>
</a>
</g>
</g>
<!-- Node95&#45;&gt;Node97 -->
<g id="edge3" class="edge">
<title>Node95&#45;&gt;Node97</title>
<path fill="none" stroke="#191970" d="M253.7019,-19.0271C262.452,-17.7063 271.3027,-16.3704 279.4967,-15.1336"/>
<polygon fill="#191970" stroke="#191970" points="280.1022,-18.5819 289.4678,-13.6285 279.0574,-11.6603 280.1022,-18.5819"/>
</g>
</g>
</svg>
