<?xml version="1.0" encoding="UTF-8" standalone="no"?>
<!DOCTYPE svg PUBLIC "-//W3C//DTD SVG 1.1//EN"
 "http://www.w3.org/Graphics/SVG/1.1/DTD/svg11.dtd">
<!-- Generated by graphviz version 2.40.1 (20161225.0304)
 -->
<!-- Title: lower_secondary_lifter Pages: 1 -->
<svg width="414pt" height="37pt"
 viewBox="0.00 0.00 413.69 37.00" xmlns="http://www.w3.org/2000/svg" xmlns:xlink="http://www.w3.org/1999/xlink">
<g id="graph0" class="graph" transform="scale(1 1) rotate(0) translate(4 33)">
<title>lower_secondary_lifter</title>
<!-- Node27 -->
<g id="node1" class="node">
<title>Node27</title>
<polygon fill="#bfbfbf" stroke="#000000" points="0,-5.5 0,-23.5 116.0488,-23.5 116.0488,-5.5 0,-5.5"/>
<text text-anchor="middle" x="58.0244" y="-11.5" font-family="Helvetica,sans-Serif" font-size="10.00" fill="#000000">lower_secondary_lifter</text>
</g>
<!-- Node28 -->
<g id="node2" class="node">
<title>Node28</title>
<g id="a_node2"><a xlink:href="a00107.html#a78640d547d9361951a92d0bc00939536" target="_top" xlink:title="Sets the secondary lifter motors to the given value. ">
<polygon fill="none" stroke="#000000" points="152.0488,-.5 152.0488,-28.5 257.541,-28.5 257.541,-.5 152.0488,-.5"/>
<text text-anchor="start" x="160.0488" y="-16.5" font-family="Helvetica,sans-Serif" font-size="10.00" fill="#000000">set_secondary_lifter</text>
<text text-anchor="middle" x="204.7949" y="-6.5" font-family="Helvetica,sans-Serif" font-size="10.00" fill="#000000">_motors</text>
</a>
</g>
</g>
<!-- Node27&#45;&gt;Node28 -->
<g id="edge1" class="edge">
<title>Node27&#45;&gt;Node28</title>
<path fill="none" stroke="#191970" d="M116.4537,-14.5C124.7513,-14.5 133.3153,-14.5 141.6966,-14.5"/>
<polygon fill="#191970" stroke="#191970" points="141.7993,-18.0001 151.7993,-14.5 141.7993,-11.0001 141.7993,-18.0001"/>
</g>
<!-- Node29 -->
<g id="node3" class="node">
<title>Node29</title>
<g id="a_node3"><a xlink:href="a00065.html#a9f8b8ae577ef938622024545711f0151" target="_top" xlink:title="Sets the motor speed ignoring the slew controller. ">
<polygon fill="none" stroke="#ff0000" points="293.541,-5.5 293.541,-23.5 405.6934,-23.5 405.6934,-5.5 293.541,-5.5"/>
<text text-anchor="middle" x="349.6172" y="-11.5" font-family="Helvetica,sans-Serif" font-size="10.00" fill="#000000">set_motor_immediate</text>
</a>
</g>
</g>
<!-- Node28&#45;&gt;Node29 -->
<g id="edge2" class="edge">
<title>Node28&#45;&gt;Node29</title>
<path fill="none" stroke="#191970" d="M257.899,-14.5C266.0487,-14.5 274.5503,-14.5 282.9483,-14.5"/>
<polygon fill="#191970" stroke="#191970" points="283.11,-18.0001 293.1099,-14.5 283.1099,-11.0001 283.11,-18.0001"/>
</g>
</g>
</svg>
