<?xml version="1.0" encoding="UTF-8" standalone="no"?>
<!DOCTYPE svg PUBLIC "-//W3C//DTD SVG 1.1//EN"
 "http://www.w3.org/Graphics/SVG/1.1/DTD/svg11.dtd">
<!-- Generated by graphviz version 2.40.1 (20161225.0304)
 -->
<!-- Title: src/slew.c Pages: 1 -->
<svg width="199pt" height="192pt"
 viewBox="0.00 0.00 198.85 192.00" xmlns="http://www.w3.org/2000/svg" xmlns:xlink="http://www.w3.org/1999/xlink">
<g id="graph0" class="graph" transform="scale(1 1) rotate(0) translate(4 188)">
<title>src/slew.c</title>
<!-- Node0 -->
<g id="node1" class="node">
<title>Node0</title>
<polygon fill="#bfbfbf" stroke="#000000" points="52.6133,-165.5 52.6133,-183.5 111.958,-183.5 111.958,-165.5 52.6133,-165.5"/>
<text text-anchor="middle" x="82.2856" y="-171.5" font-family="Helvetica,sans-Serif" font-size="10.00" fill="#000000">src/slew.c</text>
</g>
<!-- Node1 -->
<g id="node2" class="node">
<title>Node1</title>
<g id="a_node2"><a xlink:href="a00065.html" target="_top" xlink:title="Contains the slew rate controller wrapper for the motors. ">
<polygon fill="none" stroke="#000000" points="31.3867,-110.5 31.3867,-128.5 75.1846,-128.5 75.1846,-110.5 31.3867,-110.5"/>
<text text-anchor="middle" x="53.2856" y="-116.5" font-family="Helvetica,sans-Serif" font-size="10.00" fill="#000000">slew.h</text>
</a>
</g>
</g>
<!-- Node0&#45;&gt;Node1 -->
<g id="edge1" class="edge">
<title>Node0&#45;&gt;Node1</title>
<path fill="none" stroke="#191970" d="M77.4969,-165.4179C73.5328,-157.8998 67.7766,-146.9829 62.8714,-137.6799"/>
<polygon fill="#191970" stroke="#191970" points="65.9386,-135.9927 58.1784,-128.7795 59.7466,-139.2576 65.9386,-135.9927"/>
</g>
<!-- Node6 -->
<g id="node6" class="node">
<title>Node6</title>
<g id="a_node6"><a xlink:href="a00035.html" target="_top" xlink:title="Contains logging functions. ">
<polygon fill="none" stroke="#000000" points="106.4434,-110.5 106.4434,-128.5 144.1279,-128.5 144.1279,-110.5 106.4434,-110.5"/>
<text text-anchor="middle" x="125.2856" y="-116.5" font-family="Helvetica,sans-Serif" font-size="10.00" fill="#000000">log.h</text>
</a>
</g>
</g>
<!-- Node0&#45;&gt;Node6 -->
<g id="edge7" class="edge">
<title>Node0&#45;&gt;Node6</title>
<path fill="none" stroke="#191970" d="M89.3862,-165.4179C95.4496,-157.6624 104.3407,-146.29 111.7575,-136.8035"/>
<polygon fill="#191970" stroke="#191970" points="114.6289,-138.8133 118.0308,-128.7795 109.1142,-134.5018 114.6289,-138.8133"/>
</g>
<!-- Node2 -->
<g id="node3" class="node">
<title>Node2</title>
<polygon fill="none" stroke="#bfbfbf" points="82.0566,-.5 82.0566,-18.5 122.5146,-18.5 122.5146,-.5 82.0566,-.5"/>
<text text-anchor="middle" x="102.2856" y="-6.5" font-family="Helvetica,sans-Serif" font-size="10.00" fill="#000000">API.h</text>
</g>
<!-- Node1&#45;&gt;Node2 -->
<g id="edge2" class="edge">
<title>Node1&#45;&gt;Node2</title>
<path fill="none" stroke="#191970" d="M57.2955,-110.4982C65.2995,-92.5302 83.4004,-51.8954 94.0427,-28.0046"/>
<polygon fill="#191970" stroke="#191970" points="97.3484,-29.185 98.2204,-18.6261 90.9541,-26.3366 97.3484,-29.185"/>
</g>
<!-- Node3 -->
<g id="node4" class="node">
<title>Node3</title>
<polygon fill="none" stroke="#bfbfbf" points="0,-.5 0,-18.5 46.5713,-18.5 46.5713,-.5 0,-.5"/>
<text text-anchor="middle" x="23.2856" y="-6.5" font-family="Helvetica,sans-Serif" font-size="10.00" fill="#000000">math.h</text>
</g>
<!-- Node1&#45;&gt;Node3 -->
<g id="edge3" class="edge">
<title>Node1&#45;&gt;Node3</title>
<path fill="none" stroke="#191970" d="M40.3733,-110.3491C30.0385,-102.1662 16.3113,-89.1487 10.2856,-74 4.3557,-59.092 8.8458,-41.1271 14.1071,-27.9472"/>
<polygon fill="#191970" stroke="#191970" points="17.4209,-29.1105 18.3075,-18.5528 11.0305,-26.2532 17.4209,-29.1105"/>
</g>
<!-- Node4 -->
<g id="node5" class="node">
<title>Node4</title>
<g id="a_node5"><a xlink:href="a00071.html" target="_top" xlink:title="Contains misc helpful functions. ">
<polygon fill="none" stroke="#ff0000" points="19.6133,-55.5 19.6133,-73.5 58.958,-73.5 58.958,-55.5 19.6133,-55.5"/>
<text text-anchor="middle" x="39.2856" y="-61.5" font-family="Helvetica,sans-Serif" font-size="10.00" fill="#000000">vlib.h</text>
</a>
</g>
</g>
<!-- Node1&#45;&gt;Node4 -->
<g id="edge4" class="edge">
<title>Node1&#45;&gt;Node4</title>
<path fill="none" stroke="#191970" d="M50.9738,-110.4179C49.1206,-103.1372 46.4559,-92.669 44.1388,-83.5659"/>
<polygon fill="#191970" stroke="#191970" points="47.5064,-82.607 41.6477,-73.7795 40.7227,-84.3338 47.5064,-82.607"/>
</g>
<!-- Node4&#45;&gt;Node2 -->
<g id="edge5" class="edge">
<title>Node4&#45;&gt;Node2</title>
<path fill="none" stroke="#191970" d="M49.6888,-55.4179C59.0256,-47.2667 72.9389,-35.1201 84.1108,-25.3669"/>
<polygon fill="#191970" stroke="#191970" points="86.4251,-27.9927 91.6564,-18.7795 81.8214,-22.7194 86.4251,-27.9927"/>
</g>
<!-- Node4&#45;&gt;Node3 -->
<g id="edge6" class="edge">
<title>Node4&#45;&gt;Node3</title>
<path fill="none" stroke="#191970" d="M36.6436,-55.4179C34.5256,-48.1372 31.4803,-37.669 28.8321,-28.5659"/>
<polygon fill="#191970" stroke="#191970" points="32.1392,-27.4037 25.9851,-18.7795 25.4178,-29.3591 32.1392,-27.4037"/>
</g>
<!-- Node6&#45;&gt;Node2 -->
<g id="edge10" class="edge">
<title>Node6&#45;&gt;Node2</title>
<path fill="none" stroke="#191970" d="M123.4035,-110.4982C119.6802,-92.6913 111.3022,-52.6225 106.29,-28.6515"/>
<polygon fill="#191970" stroke="#191970" points="109.6665,-27.6981 104.1938,-18.6261 102.8147,-29.1308 109.6665,-27.6981"/>
</g>
<!-- Node7 -->
<g id="node7" class="node">
<title>Node7</title>
<g id="a_node7"><a xlink:href="a00023.html" target="_top" xlink:title="LCD wrapper functions and macros. ">
<polygon fill="none" stroke="#000000" points="153.7241,-55.5 153.7241,-73.5 190.8472,-73.5 190.8472,-55.5 153.7241,-55.5"/>
<text text-anchor="middle" x="172.2856" y="-61.5" font-family="Helvetica,sans-Serif" font-size="10.00" fill="#000000">lcd.h</text>
</a>
</g>
</g>
<!-- Node6&#45;&gt;Node7 -->
<g id="edge8" class="edge">
<title>Node6&#45;&gt;Node7</title>
<path fill="none" stroke="#191970" d="M133.0467,-110.4179C139.7418,-102.5833 149.591,-91.0575 157.7467,-81.5137"/>
<polygon fill="#191970" stroke="#191970" points="160.5202,-83.6556 164.3559,-73.7795 155.1986,-79.108 160.5202,-83.6556"/>
</g>
<!-- Node7&#45;&gt;Node2 -->
<g id="edge9" class="edge">
<title>Node7&#45;&gt;Node2</title>
<path fill="none" stroke="#191970" d="M160.7266,-55.4179C150.2516,-47.1876 134.5924,-34.8839 122.1193,-25.0836"/>
<polygon fill="#191970" stroke="#191970" points="124.1215,-22.2056 114.0959,-18.7795 119.7967,-27.7098 124.1215,-22.2056"/>
</g>
</g>
</svg>
