<?xml version="1.0" encoding="UTF-8" standalone="no"?>
<!DOCTYPE svg PUBLIC "-//W3C//DTD SVG 1.1//EN"
 "http://www.w3.org/Graphics/SVG/1.1/DTD/svg11.dtd">
<!-- Generated by graphviz version 2.40.1 (20161225.0304)
 -->
<!-- Title: warning Pages: 1 -->
<svg width="298pt" height="138pt"
 viewBox="0.00 0.00 297.52 138.00" xmlns="http://www.w3.org/2000/svg" xmlns:xlink="http://www.w3.org/1999/xlink">
<g id="graph0" class="graph" transform="scale(1 1) rotate(0) translate(4 134)">
<title>warning</title>
<!-- Node80 -->
<g id="node1" class="node">
<title>Node80</title>
<polygon fill="#bfbfbf" stroke="#000000" points="0,-55.5 0,-73.5 51.0195,-73.5 51.0195,-55.5 0,-55.5"/>
<text text-anchor="middle" x="25.5098" y="-61.5" font-family="Helvetica,sans-Serif" font-size="10.00" fill="#000000">warning</text>
</g>
<!-- Node81 -->
<g id="node2" class="node">
<title>Node81</title>
<g id="a_node2"><a xlink:href="a00143.html#a321758941d88b75783955c819bb75005" target="_top" xlink:title="Initializes the slew rate controller. ">
<polygon fill="none" stroke="#000000" points="87.0195,-55.5 87.0195,-73.5 141.3691,-73.5 141.3691,-55.5 87.0195,-55.5"/>
<text text-anchor="middle" x="114.1943" y="-61.5" font-family="Helvetica,sans-Serif" font-size="10.00" fill="#000000">init_slew</text>
</a>
</g>
</g>
<!-- Node80&#45;&gt;Node81 -->
<g id="edge1" class="edge">
<title>Node80&#45;&gt;Node81</title>
<path fill="none" stroke="#191970" d="M61.2273,-64.5C69.7315,-64.5 78.6759,-64.5 86.7432,-64.5"/>
<polygon fill="#191970" stroke="#191970" points="61.1611,-61.0001 51.161,-64.5 61.161,-68.0001 61.1611,-61.0001"/>
</g>
<!-- Node82 -->
<g id="node3" class="node">
<title>Node82</title>
<g id="a_node3"><a xlink:href="a00080.html#a3c7ca506bbc071fa740de13805b7f376" target="_top" xlink:title="Runs the user autonomous code. ">
<polygon fill="none" stroke="#000000" points="197.9258,-111.5 197.9258,-129.5 268.9648,-129.5 268.9648,-111.5 197.9258,-111.5"/>
<text text-anchor="middle" x="233.4453" y="-117.5" font-family="Helvetica,sans-Serif" font-size="10.00" fill="#000000">autonomous</text>
</a>
</g>
</g>
<!-- Node81&#45;&gt;Node82 -->
<g id="edge2" class="edge">
<title>Node81&#45;&gt;Node82</title>
<path fill="none" stroke="#191970" d="M135.6449,-79.1007C147.5665,-86.7742 162.8807,-95.9242 177.3691,-102.5 184.8176,-105.8806 193.087,-108.9062 200.9368,-111.4684"/>
<polygon fill="#191970" stroke="#191970" points="137.5382,-76.1568 127.2596,-73.5876 133.6926,-82.0059 137.5382,-76.1568"/>
</g>
<!-- Node83 -->
<g id="node4" class="node">
<title>Node83</title>
<g id="a_node4"><a xlink:href="a00134.html#ac71a94af413917f27d108e95c4d6f6a7" target="_top" xlink:title="Runs the user operator control code. ">
<polygon fill="none" stroke="#000000" points="190.7041,-74.5 190.7041,-92.5 276.1865,-92.5 276.1865,-74.5 190.7041,-74.5"/>
<text text-anchor="middle" x="233.4453" y="-80.5" font-family="Helvetica,sans-Serif" font-size="10.00" fill="#000000">operatorControl</text>
</a>
</g>
</g>
<!-- Node81&#45;&gt;Node83 -->
<g id="edge3" class="edge">
<title>Node81&#45;&gt;Node83</title>
<path fill="none" stroke="#191970" d="M151.4917,-70.4425C163.8066,-72.4046 177.6068,-74.6034 190.3205,-76.629"/>
<polygon fill="#191970" stroke="#191970" points="151.9791,-66.9761 141.5529,-68.859 150.8776,-73.8889 151.9791,-66.9761"/>
</g>
<!-- Node84 -->
<g id="node5" class="node">
<title>Node84</title>
<g id="a_node5"><a xlink:href="a00143.html#a7dff2b79dffe55fb936d977594d7c01d" target="_top" xlink:title="Sets motor speed wrapped inside the slew rate controller. ">
<polygon fill="none" stroke="#ff0000" points="190.4307,-37.5 190.4307,-55.5 276.46,-55.5 276.46,-37.5 190.4307,-37.5"/>
<text text-anchor="middle" x="233.4453" y="-43.5" font-family="Helvetica,sans-Serif" font-size="10.00" fill="#000000">set_motor_slew</text>
</a>
</g>
</g>
<!-- Node81&#45;&gt;Node84 -->
<g id="edge4" class="edge">
<title>Node81&#45;&gt;Node84</title>
<path fill="none" stroke="#191970" d="M151.4917,-58.8703C163.8066,-57.0114 177.6068,-54.9284 190.3205,-53.0093"/>
<polygon fill="#191970" stroke="#191970" points="150.9185,-55.417 141.5529,-60.3704 151.9633,-62.3386 150.9185,-55.417"/>
</g>
<!-- Node93 -->
<g id="node6" class="node">
<title>Node93</title>
<g id="a_node6"><a xlink:href="a00143.html#a9f8b8ae577ef938622024545711f0151" target="_top" xlink:title="Sets the motor speed ignoring the slew controller. ">
<polygon fill="none" stroke="#ff0000" points="177.3691,-.5 177.3691,-18.5 289.5215,-18.5 289.5215,-.5 177.3691,-.5"/>
<text text-anchor="middle" x="233.4453" y="-6.5" font-family="Helvetica,sans-Serif" font-size="10.00" fill="#000000">set_motor_immediate</text>
</a>
</g>
</g>
<!-- Node81&#45;&gt;Node93 -->
<g id="edge5" class="edge">
<title>Node81&#45;&gt;Node93</title>
<path fill="none" stroke="#191970" d="M137.0586,-50.0607C148.8223,-42.9985 163.5589,-34.7057 177.3691,-28.5 185.62,-24.7924 194.8246,-21.3887 203.3523,-18.518"/>
<polygon fill="#191970" stroke="#191970" points="135.0398,-47.1926 128.3363,-55.3971 138.6931,-53.1638 135.0398,-47.1926"/>
</g>
</g>
</svg>
