<?xml version="1.0" encoding="UTF-8" standalone="no"?>
<!DOCTYPE svg PUBLIC "-//W3C//DTD SVG 1.1//EN"
 "http://www.w3.org/Graphics/SVG/1.1/DTD/svg11.dtd">
<!-- Generated by graphviz version 2.40.1 (20161225.0304)
 -->
<!-- Title: list_iterator_destroy Pages: 1 -->
<svg width="319pt" height="101pt"
 viewBox="0.00 0.00 318.66 101.00" xmlns="http://www.w3.org/2000/svg" xmlns:xlink="http://www.w3.org/1999/xlink">
<g id="graph0" class="graph" transform="scale(1 1) rotate(0) translate(4 97)">
<title>list_iterator_destroy</title>
<!-- Node1 -->
<g id="node1" class="node">
<title>Node1</title>
<polygon fill="#bfbfbf" stroke="#000000" points="0,-37.5 0,-55.5 103.2607,-55.5 103.2607,-37.5 0,-37.5"/>
<text text-anchor="middle" x="51.6304" y="-43.5" font-family="Helvetica,sans-Serif" font-size="10.00" fill="#000000">list_iterator_destroy</text>
</g>
<!-- Node2 -->
<g id="node2" class="node">
<title>Node2</title>
<g id="a_node2"><a xlink:href="a00110.html#ab3dacc64ceb63b0a0849312b0a14c91c" target="_top" xlink:title="list_at">
<polygon fill="none" stroke="#000000" points="153.438,-74.5 153.438,-92.5 195.561,-92.5 195.561,-74.5 153.438,-74.5"/>
<text text-anchor="middle" x="174.4995" y="-80.5" font-family="Helvetica,sans-Serif" font-size="10.00" fill="#000000">list_at</text>
</a>
</g>
</g>
<!-- Node1&#45;&gt;Node2 -->
<g id="edge1" class="edge">
<title>Node1&#45;&gt;Node2</title>
<path fill="none" stroke="#191970" d="M91.4327,-58.4858C111.9881,-64.6757 136.2475,-71.981 153.2245,-77.0934"/>
<polygon fill="#191970" stroke="#191970" points="92.272,-55.0834 81.6875,-55.5512 90.2536,-61.7861 92.272,-55.0834"/>
</g>
<!-- Node3 -->
<g id="node3" class="node">
<title>Node3</title>
<g id="a_node3"><a xlink:href="a00110.html#a5d73352b7bfa0c5a8b33289d7b27a374" target="_top" xlink:title="list_find">
<polygon fill="none" stroke="#000000" points="149.5464,-37.5 149.5464,-55.5 199.4526,-55.5 199.4526,-37.5 149.5464,-37.5"/>
<text text-anchor="middle" x="174.4995" y="-43.5" font-family="Helvetica,sans-Serif" font-size="10.00" fill="#000000">list_find</text>
</a>
</g>
</g>
<!-- Node1&#45;&gt;Node3 -->
<g id="edge2" class="edge">
<title>Node1&#45;&gt;Node3</title>
<path fill="none" stroke="#191970" d="M113.5024,-46.5C126.1666,-46.5 138.806,-46.5 149.2678,-46.5"/>
<polygon fill="#191970" stroke="#191970" points="113.3819,-43.0001 103.3818,-46.5 113.3818,-50.0001 113.3819,-43.0001"/>
</g>
<!-- Node4 -->
<g id="node4" class="node">
<title>Node4</title>
<g id="a_node4"><a xlink:href="a00140.html#a230cdcefb410a429fb6baba1f88fc9ba" target="_top" xlink:title="routine_task">
<polygon fill="none" stroke="#000000" points="139.2607,-.5 139.2607,-18.5 209.7383,-18.5 209.7383,-.5 139.2607,-.5"/>
<text text-anchor="middle" x="174.4995" y="-6.5" font-family="Helvetica,sans-Serif" font-size="10.00" fill="#000000">routine_task</text>
</a>
</g>
</g>
<!-- Node1&#45;&gt;Node4 -->
<g id="edge3" class="edge">
<title>Node1&#45;&gt;Node4</title>
<path fill="none" stroke="#191970" d="M91.4543,-34.5077C108.6315,-29.3351 128.3919,-23.3845 144.3268,-18.586"/>
<polygon fill="#191970" stroke="#191970" points="90.2536,-31.2139 81.6875,-37.4488 92.272,-37.9166 90.2536,-31.2139"/>
</g>
<!-- Node5 -->
<g id="node5" class="node">
<title>Node5</title>
<g id="a_node5"><a xlink:href="a00140.html#ab873e24fcc59a2bf7844618b664a5d26" target="_top" xlink:title="init_routine">
<polygon fill="none" stroke="#ff0000" points="245.7383,-.5 245.7383,-18.5 310.6592,-18.5 310.6592,-.5 245.7383,-.5"/>
<text text-anchor="middle" x="278.1987" y="-6.5" font-family="Helvetica,sans-Serif" font-size="10.00" fill="#000000">init_routine</text>
</a>
</g>
</g>
<!-- Node4&#45;&gt;Node5 -->
<g id="edge4" class="edge">
<title>Node4&#45;&gt;Node5</title>
<path fill="none" stroke="#191970" d="M220.1085,-9.5C228.6245,-9.5 237.3684,-9.5 245.4032,-9.5"/>
<polygon fill="#191970" stroke="#191970" points="219.8969,-6.0001 209.8969,-9.5 219.8968,-13.0001 219.8969,-6.0001"/>
</g>
</g>
</svg>
