<?xml version="1.0" encoding="UTF-8" standalone="no"?>
<!DOCTYPE svg PUBLIC "-//W3C//DTD SVG 1.1//EN"
 "http://www.w3.org/Graphics/SVG/1.1/DTD/svg11.dtd">
<!-- Generated by graphviz version 2.40.1 (20161225.0304)
 -->
<!-- Title: reverse Pages: 1 -->
<svg width="205pt" height="27pt"
 viewBox="0.00 0.00 205.27 27.00" xmlns="http://www.w3.org/2000/svg" xmlns:xlink="http://www.w3.org/1999/xlink">
<g id="graph0" class="graph" transform="scale(1 1) rotate(0) translate(4 23)">
<title>reverse</title>
<!-- Node13 -->
<g id="node1" class="node">
<title>Node13</title>
<polygon fill="#bfbfbf" stroke="#000000" points="0,-.5 0,-18.5 49.3447,-18.5 49.3447,-.5 0,-.5"/>
<text text-anchor="middle" x="24.6724" y="-6.5" font-family="Helvetica,sans-Serif" font-size="10.00" fill="#000000">reverse</text>
</g>
<!-- Node14 -->
<g id="node2" class="node">
<title>Node14</title>
<g id="a_node2"><a xlink:href="a00149.html#a28dc918c0df16add26908891a4aa190e" target="_top" xlink:title="converts a int to string. ">
<polygon fill="none" stroke="#000000" points="85.3447,-.5 85.3447,-18.5 123.0293,-18.5 123.0293,-.5 85.3447,-.5"/>
<text text-anchor="middle" x="104.187" y="-6.5" font-family="Helvetica,sans-Serif" font-size="10.00" fill="#000000">itoaa</text>
</a>
</g>
</g>
<!-- Node13&#45;&gt;Node14 -->
<g id="edge1" class="edge">
<title>Node13&#45;&gt;Node14</title>
<path fill="none" stroke="#191970" d="M59.5319,-9.5C68.3869,-9.5 77.5711,-9.5 85.2912,-9.5"/>
<polygon fill="#191970" stroke="#191970" points="59.3955,-6.0001 49.3954,-9.5 59.3954,-13.0001 59.3955,-6.0001"/>
</g>
<!-- Node15 -->
<g id="node3" class="node">
<title>Node15</title>
<g id="a_node3"><a xlink:href="a00149.html#a4d26b0ac2f26341d827e0a13a0bd49b6" target="_top" xlink:title="converts a float to string. ">
<polygon fill="none" stroke="#ff0000" points="159.0293,-.5 159.0293,-18.5 197.2705,-18.5 197.2705,-.5 159.0293,-.5"/>
<text text-anchor="middle" x="178.1499" y="-6.5" font-family="Helvetica,sans-Serif" font-size="10.00" fill="#000000">ftoaa</text>
</a>
</g>
</g>
<!-- Node14&#45;&gt;Node15 -->
<g id="edge2" class="edge">
<title>Node14&#45;&gt;Node15</title>
<path fill="none" stroke="#191970" d="M133.298,-9.5C141.8998,-9.5 151.0972,-9.5 158.9101,-9.5"/>
<polygon fill="#191970" stroke="#191970" points="133.2343,-6.0001 123.2343,-9.5 133.2343,-13.0001 133.2343,-6.0001"/>
</g>
</g>
</svg>
