<?xml version="1.0" encoding="UTF-8" standalone="no"?>
<!DOCTYPE svg PUBLIC "-//W3C//DTD SVG 1.1//EN"
 "http://www.w3.org/Graphics/SVG/1.1/DTD/svg11.dtd">
<!-- Generated by graphviz version 2.40.1 (20161225.0304)
 -->
<!-- Title: autostack_routine Pages: 1 -->
<svg width="381pt" height="46pt"
 viewBox="0.00 0.00 381.46 46.00" xmlns="http://www.w3.org/2000/svg" xmlns:xlink="http://www.w3.org/1999/xlink">
<g id="graph0" class="graph" transform="scale(1 1) rotate(0) translate(4 42)">
<title>autostack_routine</title>
<!-- Node0 -->
<g id="node1" class="node">
<title>Node0</title>
<polygon fill="#bfbfbf" stroke="#000000" points="0,-.5 0,-18.5 94.9404,-18.5 94.9404,-.5 0,-.5"/>
<text text-anchor="middle" x="47.4702" y="-6.5" font-family="Helvetica,sans-Serif" font-size="10.00" fill="#000000">autostack_routine</text>
</g>
<!-- Node1 -->
<g id="node2" class="node">
<title>Node1</title>
<g id="a_node2"><a xlink:href="a00107.html#a2e2bd38b5b8b52378f3510368bf8aa0a" target="_top" xlink:title="Raises the main lifter. ">
<polygon fill="none" stroke="#000000" points="130.9404,-19.5 130.9404,-37.5 220.3047,-37.5 220.3047,-19.5 130.9404,-19.5"/>
<text text-anchor="middle" x="175.6226" y="-25.5" font-family="Helvetica,sans-Serif" font-size="10.00" fill="#000000">raise_main_lifter</text>
</a>
</g>
</g>
<!-- Node0&#45;&gt;Node1 -->
<g id="edge1" class="edge">
<title>Node0&#45;&gt;Node1</title>
<path fill="none" stroke="#191970" d="M95.1894,-16.5749C103.5778,-17.8186 112.3669,-19.1217 120.9278,-20.3909"/>
<polygon fill="#191970" stroke="#191970" points="120.4296,-23.8552 130.8348,-21.8597 121.4563,-16.9309 120.4296,-23.8552"/>
</g>
<!-- Node2 -->
<g id="node3" class="node">
<title>Node2</title>
<g id="a_node3"><a xlink:href="a00107.html#ad00a195af30f246924d6e1a30095b882" target="_top" xlink:title="Sets the main lifter motors to the given value. ">
<polygon fill="none" stroke="#ff0000" points="256.3047,-.5 256.3047,-18.5 373.457,-18.5 373.457,-.5 256.3047,-.5"/>
<text text-anchor="middle" x="314.8809" y="-6.5" font-family="Helvetica,sans-Serif" font-size="10.00" fill="#000000">set_main_lifter_motors</text>
</a>
</g>
</g>
<!-- Node0&#45;&gt;Node2 -->
<g id="edge3" class="edge">
<title>Node0&#45;&gt;Node2</title>
<path fill="none" stroke="#191970" d="M94.9697,-9.5C136.9171,-9.5 198.5987,-9.5 245.9696,-9.5"/>
<polygon fill="#191970" stroke="#191970" points="246.1526,-13.0001 256.1525,-9.5 246.1525,-6.0001 246.1526,-13.0001"/>
</g>
<!-- Node1&#45;&gt;Node2 -->
<g id="edge2" class="edge">
<title>Node1&#45;&gt;Node2</title>
<path fill="none" stroke="#191970" d="M220.4513,-22.3837C228.6235,-21.2687 237.3201,-20.0822 246.0011,-18.8978"/>
<polygon fill="#191970" stroke="#191970" points="246.7173,-22.3326 256.1523,-17.5127 245.771,-15.3968 246.7173,-22.3326"/>
</g>
</g>
</svg>
