<?xml version="1.0" encoding="UTF-8" standalone="no"?>
<!DOCTYPE svg PUBLIC "-//W3C//DTD SVG 1.1//EN"
 "http://www.w3.org/Graphics/SVG/1.1/DTD/svg11.dtd">
<!-- Generated by graphviz version 2.40.1 (20161225.0304)
 -->
<!-- Title: routine_task Pages: 1 -->
<svg width="396pt" height="138pt"
 viewBox="0.00 0.00 395.92 138.00" xmlns="http://www.w3.org/2000/svg" xmlns:xlink="http://www.w3.org/1999/xlink">
<g id="graph0" class="graph" transform="scale(1 1) rotate(0) translate(4 134)">
<title>routine_task</title>
<!-- Node18 -->
<g id="node1" class="node">
<title>Node18</title>
<polygon fill="#bfbfbf" stroke="#000000" points="0,-55.5 0,-73.5 70.4775,-73.5 70.4775,-55.5 0,-55.5"/>
<text text-anchor="middle" x="35.2388" y="-61.5" font-family="Helvetica,sans-Serif" font-size="10.00" fill="#000000">routine_task</text>
</g>
<!-- Node19 -->
<g id="node2" class="node">
<title>Node19</title>
<g id="a_node2"><a xlink:href="a00068.html#ae819f86fad1b51d66f4294140b53ff77" target="_top" xlink:title="Detects if button is a new press from most recent check by comparing previous value to current value...">
<polygon fill="none" stroke="#000000" points="109.5342,-111.5 109.5342,-129.5 206.6816,-129.5 206.6816,-111.5 109.5342,-111.5"/>
<text text-anchor="middle" x="158.1079" y="-117.5" font-family="Helvetica,sans-Serif" font-size="10.00" fill="#000000">buttonIsNewPress</text>
</a>
</g>
</g>
<!-- Node18&#45;&gt;Node19 -->
<g id="edge1" class="edge">
<title>Node18&#45;&gt;Node19</title>
<path fill="none" stroke="#191970" d="M50.4614,-73.5078C64.6577,-81.6927 86.5751,-93.7849 106.4775,-102.5 110.8661,-104.4217 115.5309,-106.2853 120.1926,-108.039"/>
<polygon fill="#191970" stroke="#191970" points="119.0729,-111.3559 129.6672,-111.4677 121.455,-104.7736 119.0729,-111.3559"/>
</g>
<!-- Node21 -->
<g id="node4" class="node">
<title>Node21</title>
<g id="a_node4"><a xlink:href="a00029.html#ad16fa29ddbb444070ea65f871e1c0ba2" target="_top" xlink:title="list_iterator_destroy">
<polygon fill="none" stroke="#000000" points="106.4775,-74.5 106.4775,-92.5 209.7383,-92.5 209.7383,-74.5 106.4775,-74.5"/>
<text text-anchor="middle" x="158.1079" y="-80.5" font-family="Helvetica,sans-Serif" font-size="10.00" fill="#000000">list_iterator_destroy</text>
</a>
</g>
</g>
<!-- Node18&#45;&gt;Node21 -->
<g id="edge3" class="edge">
<title>Node18&#45;&gt;Node21</title>
<path fill="none" stroke="#191970" d="M70.7776,-69.9956C78.7245,-71.2245 87.3789,-72.5627 96.0499,-73.9036"/>
<polygon fill="#191970" stroke="#191970" points="95.7777,-77.403 106.1951,-75.4724 96.8475,-70.4852 95.7777,-77.403"/>
</g>
<!-- Node22 -->
<g id="node5" class="node">
<title>Node22</title>
<g id="a_node5"><a xlink:href="a00029.html#a3c956afda343b4a6aaf68fbd4b446733" target="_top" xlink:title="list_iterator_new">
<polygon fill="none" stroke="#000000" points="113.7017,-37.5 113.7017,-55.5 202.5142,-55.5 202.5142,-37.5 113.7017,-37.5"/>
<text text-anchor="middle" x="158.1079" y="-43.5" font-family="Helvetica,sans-Serif" font-size="10.00" fill="#000000">list_iterator_new</text>
</a>
</g>
</g>
<!-- Node18&#45;&gt;Node22 -->
<g id="edge4" class="edge">
<title>Node18&#45;&gt;Node22</title>
<path fill="none" stroke="#191970" d="M70.7776,-59.2937C80.9792,-57.7992 92.3468,-56.1338 103.4186,-54.5118"/>
<polygon fill="#191970" stroke="#191970" points="104.0745,-57.9532 113.4615,-53.0406 103.0598,-51.0271 104.0745,-57.9532"/>
</g>
<!-- Node24 -->
<g id="node7" class="node">
<title>Node24</title>
<g id="a_node7"><a xlink:href="a00029.html#a2e5db981e32d3aef49ea79505a0615a6" target="_top" xlink:title="list_iterator_next">
<polygon fill="none" stroke="#000000" points="113.4233,-.5 113.4233,-18.5 202.7925,-18.5 202.7925,-.5 113.4233,-.5"/>
<text text-anchor="middle" x="158.1079" y="-6.5" font-family="Helvetica,sans-Serif" font-size="10.00" fill="#000000">list_iterator_next</text>
</a>
</g>
</g>
<!-- Node18&#45;&gt;Node24 -->
<g id="edge6" class="edge">
<title>Node18&#45;&gt;Node24</title>
<path fill="none" stroke="#191970" d="M51.9615,-55.3591C66.2347,-47.7253 87.4165,-36.7906 106.4775,-28.5 111.5138,-26.3095 116.8924,-24.1445 122.2054,-22.104"/>
<polygon fill="#191970" stroke="#191970" points="123.4696,-25.3681 131.6101,-18.587 121.0176,-18.8115 123.4696,-25.3681"/>
</g>
<!-- Node20 -->
<g id="node3" class="node">
<title>Node20</title>
<g id="a_node3"><a xlink:href="a00146.html#ad2b7c969a01f85d57bdca0bc7f5cff81" target="_top" xlink:title="Returns the current status of a button (pressed or not pressed) ">
<polygon fill="none" stroke="#000000" points="275.1938,-111.5 275.1938,-129.5 358.4644,-129.5 358.4644,-111.5 275.1938,-111.5"/>
<text text-anchor="middle" x="316.8291" y="-117.5" font-family="Helvetica,sans-Serif" font-size="10.00" fill="#000000">buttonGetState</text>
</a>
</g>
</g>
<!-- Node19&#45;&gt;Node20 -->
<g id="edge2" class="edge">
<title>Node19&#45;&gt;Node20</title>
<path fill="none" stroke="#191970" d="M207.0246,-120.5C225.3927,-120.5 246.3254,-120.5 264.9531,-120.5"/>
<polygon fill="#191970" stroke="#191970" points="265.0338,-124.0001 275.0337,-120.5 265.0337,-117.0001 265.0338,-124.0001"/>
</g>
<!-- Node23 -->
<g id="node6" class="node">
<title>Node23</title>
<g id="a_node6"><a xlink:href="a00113.html#af4136a8a27bdc8c0f967a708dd03d575" target="_top" xlink:title="list_iterator_new_from_node">
<polygon fill="none" stroke="#000000" points="245.7383,-37.5 245.7383,-55.5 387.9199,-55.5 387.9199,-37.5 245.7383,-37.5"/>
<text text-anchor="middle" x="316.8291" y="-43.5" font-family="Helvetica,sans-Serif" font-size="10.00" fill="#000000">list_iterator_new_from_node</text>
</a>
</g>
</g>
<!-- Node22&#45;&gt;Node23 -->
<g id="edge5" class="edge">
<title>Node22&#45;&gt;Node23</title>
<path fill="none" stroke="#191970" d="M202.743,-46.5C212.9221,-46.5 224.0507,-46.5 235.2384,-46.5"/>
<polygon fill="#191970" stroke="#191970" points="235.5039,-50.0001 245.5039,-46.5 235.5039,-43.0001 235.5039,-50.0001"/>
</g>
</g>
</svg>
