<?xml version="1.0" encoding="UTF-8" standalone="no"?>
<!DOCTYPE svg PUBLIC "-//W3C//DTD SVG 1.1//EN"
 "http://www.w3.org/Graphics/SVG/1.1/DTD/svg11.dtd">
<!-- Generated by graphviz version 2.40.1 (20161225.0304)
 -->
<!-- Title: src/lifter.c Pages: 1 -->
<svg width="485pt" height="247pt"
 viewBox="0.00 0.00 485.36 247.00" xmlns="http://www.w3.org/2000/svg" xmlns:xlink="http://www.w3.org/1999/xlink">
<g id="graph0" class="graph" transform="scale(1 1) rotate(0) translate(4 243)">
<title>src/lifter.c</title>
<!-- Node0 -->
<g id="node1" class="node">
<title>Node0</title>
<polygon fill="#bfbfbf" stroke="#000000" points="173.3447,-220.5 173.3447,-238.5 231.5762,-238.5 231.5762,-220.5 173.3447,-220.5"/>
<text text-anchor="middle" x="202.4604" y="-226.5" font-family="Helvetica,sans-Serif" font-size="10.00" fill="#000000">src/lifter.c</text>
</g>
<!-- Node1 -->
<g id="node2" class="node">
<title>Node1</title>
<g id="a_node2"><a xlink:href="a00026.html" target="_top" xlink:title="Declarations and macros for controlling and manipulating the lifter. ">
<polygon fill="none" stroke="#ff0000" points="152.1182,-165.5 152.1182,-183.5 194.8027,-183.5 194.8027,-165.5 152.1182,-165.5"/>
<text text-anchor="middle" x="173.4604" y="-171.5" font-family="Helvetica,sans-Serif" font-size="10.00" fill="#000000">lifter.h</text>
</a>
</g>
</g>
<!-- Node0&#45;&gt;Node1 -->
<g id="edge1" class="edge">
<title>Node0&#45;&gt;Node1</title>
<path fill="none" stroke="#191970" d="M197.6717,-220.4179C193.7076,-212.8998 187.9514,-201.9829 183.0462,-192.6799"/>
<polygon fill="#191970" stroke="#191970" points="186.1134,-190.9927 178.3533,-183.7795 179.9214,-194.2576 186.1134,-190.9927"/>
</g>
<!-- Node14 -->
<g id="node10" class="node">
<title>Node14</title>
<g id="a_node10"><a xlink:href="a00035.html" target="_top" xlink:title="Contains logging functions. ">
<polygon fill="none" stroke="#ff0000" points="212.6182,-165.5 212.6182,-183.5 250.3027,-183.5 250.3027,-165.5 212.6182,-165.5"/>
<text text-anchor="middle" x="231.4604" y="-171.5" font-family="Helvetica,sans-Serif" font-size="10.00" fill="#000000">log.h</text>
</a>
</g>
</g>
<!-- Node0&#45;&gt;Node14 -->
<g id="edge11" class="edge">
<title>Node0&#45;&gt;Node14</title>
<path fill="none" stroke="#191970" d="M207.2492,-220.4179C211.2133,-212.8998 216.9695,-201.9829 221.8747,-192.6799"/>
<polygon fill="#191970" stroke="#191970" points="224.9995,-194.2576 226.5676,-183.7795 218.8075,-190.9927 224.9995,-194.2576"/>
</g>
<!-- Node2 -->
<g id="node3" class="node">
<title>Node2</title>
<g id="a_node3"><a xlink:href="a00011.html" target="_top" xlink:title="controller definitions, macros and functions to assist with usig the vex controllers. ">
<polygon fill="none" stroke="#ff0000" points="0,-.5 0,-18.5 64.9209,-18.5 64.9209,-.5 0,-.5"/>
<text text-anchor="middle" x="32.4604" y="-6.5" font-family="Helvetica,sans-Serif" font-size="10.00" fill="#000000">controller.h</text>
</a>
</g>
</g>
<!-- Node1&#45;&gt;Node2 -->
<g id="edge2" class="edge">
<title>Node1&#45;&gt;Node2</title>
<path fill="none" stroke="#191970" d="M152.059,-171.1772C114.4237,-164.8492 38.9015,-149.8196 23.4604,-129 1.4566,-99.3317 14.3013,-53.3394 24.2416,-27.9342"/>
<polygon fill="#191970" stroke="#191970" points="27.4728,-29.2794 28.0862,-18.7023 21.0107,-26.5882 27.4728,-29.2794"/>
</g>
<!-- Node6 -->
<g id="node4" class="node">
<title>Node6</title>
<g id="a_node4"><a xlink:href="a00014.html" target="_top" xlink:title="Drive base definitions and enumerations. ">
<polygon fill="none" stroke="#ff0000" points="32.4531,-110.5 32.4531,-128.5 78.4678,-128.5 78.4678,-110.5 32.4531,-110.5"/>
<text text-anchor="middle" x="55.4604" y="-116.5" font-family="Helvetica,sans-Serif" font-size="10.00" fill="#000000">drive.h</text>
</a>
</g>
</g>
<!-- Node1&#45;&gt;Node6 -->
<g id="edge3" class="edge">
<title>Node1&#45;&gt;Node6</title>
<path fill="none" stroke="#191970" d="M153.9751,-165.4179C134.93,-156.5409 105.7183,-142.9253 84.0442,-132.823"/>
<polygon fill="#191970" stroke="#191970" points="85.5171,-129.648 74.9747,-128.5956 82.5599,-135.9927 85.5171,-129.648"/>
</g>
<!-- Node7 -->
<g id="node5" class="node">
<title>Node7</title>
<g id="a_node5"><a xlink:href="a00053.html" target="_top" xlink:title="partner.h">
<polygon fill="none" stroke="#ff0000" points="32.7217,-55.5 32.7217,-73.5 88.1992,-73.5 88.1992,-55.5 32.7217,-55.5"/>
<text text-anchor="middle" x="60.4604" y="-61.5" font-family="Helvetica,sans-Serif" font-size="10.00" fill="#000000">partner.h</text>
</a>
</g>
</g>
<!-- Node1&#45;&gt;Node7 -->
<g id="edge7" class="edge">
<title>Node1&#45;&gt;Node7</title>
<path fill="none" stroke="#191970" d="M163.8366,-165.4995C154.1014,-156.3663 138.6484,-141.7905 125.4604,-129 108.8274,-112.8682 90.0646,-94.198 76.9887,-81.1088"/>
<polygon fill="#191970" stroke="#191970" points="79.1918,-78.3614 69.6518,-73.7527 74.2355,-83.3047 79.1918,-78.3614"/>
</g>
<!-- Node8 -->
<g id="node6" class="node">
<title>Node8</title>
<g id="a_node6"><a xlink:href="a00050.html" target="_top" xlink:title="The motor port definitionsMacros for the different motors ports. ">
<polygon fill="none" stroke="#000000" points="134.6133,-110.5 134.6133,-128.5 212.3076,-128.5 212.3076,-110.5 134.6133,-110.5"/>
<text text-anchor="middle" x="173.4604" y="-116.5" font-family="Helvetica,sans-Serif" font-size="10.00" fill="#000000">motor_ports.h</text>
</a>
</g>
</g>
<!-- Node1&#45;&gt;Node8 -->
<g id="edge6" class="edge">
<title>Node1&#45;&gt;Node8</title>
<path fill="none" stroke="#191970" d="M173.4604,-165.4179C173.4604,-158.2164 173.4604,-147.8962 173.4604,-138.8632"/>
<polygon fill="#191970" stroke="#191970" points="176.9605,-138.7794 173.4604,-128.7795 169.9605,-138.7795 176.9605,-138.7794"/>
</g>
<!-- Node9 -->
<g id="node7" class="node">
<title>Node9</title>
<g id="a_node7"><a xlink:href="a00056.html" target="_top" xlink:title="potentiometer.h">
<polygon fill="none" stroke="#000000" points="229.9902,-110.5 229.9902,-128.5 314.9307,-128.5 314.9307,-110.5 229.9902,-110.5"/>
<text text-anchor="middle" x="272.4604" y="-116.5" font-family="Helvetica,sans-Serif" font-size="10.00" fill="#000000">potentiometer.h</text>
</a>
</g>
</g>
<!-- Node1&#45;&gt;Node9 -->
<g id="edge8" class="edge">
<title>Node1&#45;&gt;Node9</title>
<path fill="none" stroke="#191970" d="M189.8083,-165.4179C205.4286,-156.7399 229.2003,-143.5334 247.2466,-133.5077"/>
<polygon fill="#191970" stroke="#191970" points="249.0465,-136.5117 256.0883,-128.5956 245.647,-130.3925 249.0465,-136.5117"/>
</g>
<!-- Node10 -->
<g id="node8" class="node">
<title>Node10</title>
<g id="a_node8"><a xlink:href="a00062.html" target="_top" xlink:title="sensor_ports.h">
<polygon fill="none" stroke="#000000" points="333.3867,-110.5 333.3867,-128.5 415.5342,-128.5 415.5342,-110.5 333.3867,-110.5"/>
<text text-anchor="middle" x="374.4604" y="-116.5" font-family="Helvetica,sans-Serif" font-size="10.00" fill="#000000">sensor_ports.h</text>
</a>
</g>
</g>
<!-- Node1&#45;&gt;Node10 -->
<g id="edge9" class="edge">
<title>Node1&#45;&gt;Node10</title>
<path fill="none" stroke="#191970" d="M195.0538,-167.5298C197.8756,-166.6579 200.7329,-165.7943 203.4604,-165 245.7419,-152.6875 294.2894,-139.8973 328.8279,-131.025"/>
<polygon fill="#191970" stroke="#191970" points="329.8075,-134.3872 338.627,-128.5163 328.0714,-127.6059 329.8075,-134.3872"/>
</g>
<!-- Node11 -->
<g id="node9" class="node">
<title>Node11</title>
<g id="a_node9"><a xlink:href="a00065.html" target="_top" xlink:title="Contains the slew rate controller wrapper for the motors. ">
<polygon fill="none" stroke="#ff0000" points="433.5615,-110.5 433.5615,-128.5 477.3594,-128.5 477.3594,-110.5 433.5615,-110.5"/>
<text text-anchor="middle" x="455.4604" y="-116.5" font-family="Helvetica,sans-Serif" font-size="10.00" fill="#000000">slew.h</text>
</a>
</g>
</g>
<!-- Node1&#45;&gt;Node11 -->
<g id="edge10" class="edge">
<title>Node1&#45;&gt;Node11</title>
<path fill="none" stroke="#191970" d="M194.9855,-167.2719C197.8185,-166.4421 200.697,-165.6589 203.4604,-165 297.1437,-142.6614 325.7201,-151.0395 423.5382,-128.9313"/>
<polygon fill="#191970" stroke="#191970" points="424.5901,-132.2806 433.5454,-126.6191 423.0142,-125.4603 424.5901,-132.2806"/>
</g>
<!-- Node6&#45;&gt;Node7 -->
<g id="edge4" class="edge">
<title>Node6&#45;&gt;Node7</title>
<path fill="none" stroke="#191970" d="M56.2861,-110.4179C56.9408,-103.2164 57.879,-92.8962 58.7002,-83.8632"/>
<polygon fill="#191970" stroke="#191970" points="62.197,-84.0553 59.6169,-73.7795 55.2258,-83.4215 62.197,-84.0553"/>
</g>
<!-- Node7&#45;&gt;Node2 -->
<g id="edge5" class="edge">
<title>Node7&#45;&gt;Node2</title>
<path fill="none" stroke="#191970" d="M55.8368,-55.4179C52.0497,-47.9789 46.5685,-37.2123 41.8655,-27.9742"/>
<polygon fill="#191970" stroke="#191970" points="44.8405,-26.1032 37.1845,-18.7795 38.6023,-29.279 44.8405,-26.1032"/>
</g>
</g>
</svg>
