<?xml version="1.0" encoding="UTF-8" standalone="no"?>
<!DOCTYPE svg PUBLIC "-//W3C//DTD SVG 1.1//EN"
 "http://www.w3.org/Graphics/SVG/1.1/DTD/svg11.dtd">
<!-- Generated by graphviz version 2.40.1 (20161225.0304)
 -->
<!-- Title: log_info Pages: 1 -->
<svg width="345pt" height="140pt"
 viewBox="0.00 0.00 345.10 140.00" xmlns="http://www.w3.org/2000/svg" xmlns:xlink="http://www.w3.org/1999/xlink">
<g id="graph0" class="graph" transform="scale(1 1) rotate(0) translate(4 136)">
<title>log_info</title>
<!-- Node43 -->
<g id="node1" class="node">
<title>Node43</title>
<polygon fill="#bfbfbf" stroke="#000000" points="0,-38.5 0,-56.5 51.0293,-56.5 51.0293,-38.5 0,-38.5"/>
<text text-anchor="middle" x="25.5146" y="-44.5" font-family="Helvetica,sans-Serif" font-size="10.00" fill="#000000">log_info</text>
</g>
<!-- Node44 -->
<g id="node2" class="node">
<title>Node44</title>
<g id="a_node2"><a xlink:href="a00122.html#a8e5bb8a2a372f5b066ff7af7044584c1" target="_top" xlink:title="prints a error message and displays on lcd. ">
<polygon fill="none" stroke="#000000" points="93.9824,-76.5 93.9824,-94.5 131.0957,-94.5 131.0957,-76.5 93.9824,-76.5"/>
<text text-anchor="middle" x="112.5391" y="-82.5" font-family="Helvetica,sans-Serif" font-size="10.00" fill="#000000">error</text>
</a>
</g>
</g>
<!-- Node43&#45;&gt;Node44 -->
<g id="edge1" class="edge">
<title>Node43&#45;&gt;Node44</title>
<path fill="none" stroke="#191970" d="M55.4611,-60.5764C68.2005,-66.1392 82.6637,-72.4547 93.8434,-77.3364"/>
<polygon fill="#191970" stroke="#191970" points="56.7033,-57.2997 46.1382,-56.5055 53.902,-63.7148 56.7033,-57.2997"/>
</g>
<!-- Node51 -->
<g id="node6" class="node">
<title>Node51</title>
<g id="a_node6"><a xlink:href="a00122.html#a1606d750e1bb8de9f9e917172bba3382" target="_top" xlink:title="prints a info message ">
<polygon fill="none" stroke="#000000" points="96.4775,-38.5 96.4775,-56.5 128.6006,-56.5 128.6006,-38.5 96.4775,-38.5"/>
<text text-anchor="middle" x="112.5391" y="-44.5" font-family="Helvetica,sans-Serif" font-size="10.00" fill="#000000">info</text>
</a>
</g>
</g>
<!-- Node43&#45;&gt;Node51 -->
<g id="edge5" class="edge">
<title>Node43&#45;&gt;Node51</title>
<path fill="none" stroke="#191970" d="M61.5091,-47.5C73.6403,-47.5 86.5753,-47.5 96.3871,-47.5"/>
<polygon fill="#191970" stroke="#191970" points="61.1542,-44.0001 51.1542,-47.5 61.1541,-51.0001 61.1542,-44.0001"/>
</g>
<!-- Node52 -->
<g id="node7" class="node">
<title>Node52</title>
<g id="a_node7"><a xlink:href="a00122.html#a0bec2cf5fff7f607bc510b74aba9887c" target="_top" xlink:title="prints a warning message and displays on lcd. ">
<polygon fill="none" stroke="#000000" points="87.0293,-1.5 87.0293,-19.5 138.0488,-19.5 138.0488,-1.5 87.0293,-1.5"/>
<text text-anchor="middle" x="112.5391" y="-7.5" font-family="Helvetica,sans-Serif" font-size="10.00" fill="#000000">warning</text>
</a>
</g>
</g>
<!-- Node43&#45;&gt;Node52 -->
<g id="edge7" class="edge">
<title>Node43&#45;&gt;Node52</title>
<path fill="none" stroke="#191970" d="M56.3475,-34.3909C67.9064,-29.4764 80.7733,-24.0058 91.2749,-19.5409"/>
<polygon fill="#191970" stroke="#191970" points="54.8596,-31.2202 47.0263,-38.3539 57.5985,-37.6621 54.8596,-31.2202"/>
</g>
<!-- Node45 -->
<g id="node3" class="node">
<title>Node45</title>
<g id="a_node3"><a xlink:href="a00128.html#aff4fd27ff7707295d91c67fa52a6b021" target="_top" xlink:title="Static function that handles creation of menu. ">
<polygon fill="none" stroke="#ff0000" points="174.6055,-113.5 174.6055,-131.5 248.9746,-131.5 248.9746,-113.5 174.6055,-113.5"/>
<text text-anchor="middle" x="211.79" y="-119.5" font-family="Helvetica,sans-Serif" font-size="10.00" fill="#000000">create_menu</text>
</a>
</g>
</g>
<!-- Node44&#45;&gt;Node45 -->
<g id="edge2" class="edge">
<title>Node44&#45;&gt;Node45</title>
<path fill="none" stroke="#191970" d="M140.8427,-96.0514C155.5987,-101.5523 173.4603,-108.211 187.57,-113.471"/>
<polygon fill="#191970" stroke="#191970" points="141.8001,-92.673 131.2074,-92.4594 139.3549,-99.2321 141.8001,-92.673"/>
</g>
<!-- Node50 -->
<g id="node4" class="node">
<title>Node50</title>
<g id="a_node4"><a xlink:href="a00095.html#aa6ec1ca17e907babd52803ecba451cd3" target="_top" xlink:title="Initializes all motor encoders. ">
<polygon fill="none" stroke="#000000" points="174.0488,-76.5 174.0488,-94.5 249.5313,-94.5 249.5313,-76.5 174.0488,-76.5"/>
<text text-anchor="middle" x="211.79" y="-82.5" font-family="Helvetica,sans-Serif" font-size="10.00" fill="#000000">init_encoders</text>
</a>
</g>
</g>
<!-- Node44&#45;&gt;Node50 -->
<g id="edge3" class="edge">
<title>Node44&#45;&gt;Node50</title>
<path fill="none" stroke="#191970" d="M141.212,-85.5C151.404,-85.5 163.0404,-85.5 173.8847,-85.5"/>
<polygon fill="#191970" stroke="#191970" points="141.2074,-82.0001 131.2074,-85.5 141.2074,-89.0001 141.2074,-82.0001"/>
</g>
<!-- Node47 -->
<g id="node5" class="node">
<title>Node47</title>
<g id="a_node5"><a xlink:href="a00101.html#a25a40b6614565f755233080a384c35f1" target="_top" xlink:title="Runs user initialization code. ">
<polygon fill="none" stroke="#000000" points="285.5313,-57.5 285.5313,-75.5 337.1025,-75.5 337.1025,-57.5 285.5313,-57.5"/>
<text text-anchor="middle" x="311.3169" y="-63.5" font-family="Helvetica,sans-Serif" font-size="10.00" fill="#000000">initialize</text>
</a>
</g>
</g>
<!-- Node50&#45;&gt;Node47 -->
<g id="edge4" class="edge">
<title>Node50&#45;&gt;Node47</title>
<path fill="none" stroke="#191970" d="M259.5889,-76.375C268.4309,-74.6871 277.3558,-72.9833 285.2446,-71.4773"/>
<polygon fill="#191970" stroke="#191970" points="258.8671,-72.9495 249.7008,-78.2627 260.1797,-79.8254 258.8671,-72.9495"/>
</g>
<!-- Node51&#45;&gt;Node47 -->
<g id="edge6" class="edge">
<title>Node51&#45;&gt;Node47</title>
<path fill="none" stroke="#191970" d="M139.1297,-50.0416C177.336,-53.6936 247.3248,-60.3834 285.2424,-64.0077"/>
<polygon fill="#191970" stroke="#191970" points="139.0936,-46.5223 128.8059,-49.0548 138.4275,-53.4906 139.0936,-46.5223"/>
</g>
<!-- Node53 -->
<g id="node8" class="node">
<title>Node53</title>
<g id="a_node8"><a xlink:href="a00143.html#a321758941d88b75783955c819bb75005" target="_top" xlink:title="Initializes the slew rate controller. ">
<polygon fill="none" stroke="#ff0000" points="184.6152,-.5 184.6152,-18.5 238.9648,-18.5 238.9648,-.5 184.6152,-.5"/>
<text text-anchor="middle" x="211.79" y="-6.5" font-family="Helvetica,sans-Serif" font-size="10.00" fill="#000000">init_slew</text>
</a>
</g>
</g>
<!-- Node52&#45;&gt;Node53 -->
<g id="edge8" class="edge">
<title>Node52&#45;&gt;Node53</title>
<path fill="none" stroke="#191970" d="M148.2395,-10.1403C160.2129,-10.0197 173.3629,-9.8872 184.579,-9.7742"/>
<polygon fill="#191970" stroke="#191970" points="148.0629,-6.6418 138.0987,-10.2425 148.1334,-13.6415 148.0629,-6.6418"/>
</g>
</g>
</svg>
