<?xml version="1.0" encoding="UTF-8" standalone="no"?>
<!DOCTYPE svg PUBLIC "-//W3C//DTD SVG 1.1//EN"
 "http://www.w3.org/Graphics/SVG/1.1/DTD/svg11.dtd">
<!-- Generated by graphviz version 2.40.1 (20161225.0304)
 -->
<!-- Title: src/lcd.c Pages: 1 -->
<svg width="61pt" height="137pt"
 viewBox="0.00 0.00 60.67 137.00" xmlns="http://www.w3.org/2000/svg" xmlns:xlink="http://www.w3.org/1999/xlink">
<g id="graph0" class="graph" transform="scale(1 1) rotate(0) translate(4 133)">
<title>src/lcd.c</title>
<!-- Node0 -->
<g id="node1" class="node">
<title>Node0</title>
<polygon fill="#bfbfbf" stroke="#000000" points="0,-110.5 0,-128.5 52.6699,-128.5 52.6699,-110.5 0,-110.5"/>
<text text-anchor="middle" x="26.335" y="-116.5" font-family="Helvetica,sans-Serif" font-size="10.00" fill="#000000">src/lcd.c</text>
</g>
<!-- Node1 -->
<g id="node2" class="node">
<title>Node1</title>
<g id="a_node2"><a xlink:href="a00023.html" target="_top" xlink:title="LCD wrapper functions and macros. ">
<polygon fill="none" stroke="#000000" points="7.7734,-55.5 7.7734,-73.5 44.8965,-73.5 44.8965,-55.5 7.7734,-55.5"/>
<text text-anchor="middle" x="26.335" y="-61.5" font-family="Helvetica,sans-Serif" font-size="10.00" fill="#000000">lcd.h</text>
</a>
</g>
</g>
<!-- Node0&#45;&gt;Node1 -->
<g id="edge1" class="edge">
<title>Node0&#45;&gt;Node1</title>
<path fill="none" stroke="#191970" d="M26.335,-110.4179C26.335,-103.2164 26.335,-92.8962 26.335,-83.8632"/>
<polygon fill="#191970" stroke="#191970" points="29.8351,-83.7794 26.335,-73.7795 22.8351,-83.7795 29.8351,-83.7794"/>
</g>
<!-- Node2 -->
<g id="node3" class="node">
<title>Node2</title>
<polygon fill="none" stroke="#bfbfbf" points="6.106,-.5 6.106,-18.5 46.564,-18.5 46.564,-.5 6.106,-.5"/>
<text text-anchor="middle" x="26.335" y="-6.5" font-family="Helvetica,sans-Serif" font-size="10.00" fill="#000000">API.h</text>
</g>
<!-- Node1&#45;&gt;Node2 -->
<g id="edge2" class="edge">
<title>Node1&#45;&gt;Node2</title>
<path fill="none" stroke="#191970" d="M26.335,-55.4179C26.335,-48.2164 26.335,-37.8962 26.335,-28.8632"/>
<polygon fill="#191970" stroke="#191970" points="29.8351,-28.7794 26.335,-18.7795 22.8351,-28.7795 29.8351,-28.7794"/>
</g>
</g>
</svg>
