<?xml version="1.0" encoding="UTF-8" standalone="no"?>
<!DOCTYPE svg PUBLIC "-//W3C//DTD SVG 1.1//EN"
 "http://www.w3.org/Graphics/SVG/1.1/DTD/svg11.dtd">
<!-- Generated by graphviz version 2.40.1 (20161225.0304)
 -->
<!-- Title: main_lifter_update Pages: 1 -->
<svg width="381pt" height="27pt"
 viewBox="0.00 0.00 381.46 27.00" xmlns="http://www.w3.org/2000/svg" xmlns:xlink="http://www.w3.org/1999/xlink">
<g id="graph0" class="graph" transform="scale(1 1) rotate(0) translate(4 23)">
<title>main_lifter_update</title>
<!-- Node36 -->
<g id="node1" class="node">
<title>Node36</title>
<polygon fill="#bfbfbf" stroke="#000000" points="0,-.5 0,-18.5 98.2754,-18.5 98.2754,-.5 0,-.5"/>
<text text-anchor="middle" x="49.1377" y="-6.5" font-family="Helvetica,sans-Serif" font-size="10.00" fill="#000000">main_lifter_update</text>
</g>
<!-- Node37 -->
<g id="node2" class="node">
<title>Node37</title>
<g id="a_node2"><a xlink:href="a00107.html#ad00a195af30f246924d6e1a30095b882" target="_top" xlink:title="Sets the main lifter motors to the given value. ">
<polygon fill="none" stroke="#000000" points="134.2754,-.5 134.2754,-18.5 251.4277,-18.5 251.4277,-.5 134.2754,-.5"/>
<text text-anchor="middle" x="192.8516" y="-6.5" font-family="Helvetica,sans-Serif" font-size="10.00" fill="#000000">set_main_lifter_motors</text>
</a>
</g>
</g>
<!-- Node36&#45;&gt;Node37 -->
<g id="edge1" class="edge">
<title>Node36&#45;&gt;Node37</title>
<path fill="none" stroke="#191970" d="M98.5959,-9.5C106.8244,-9.5 115.4883,-9.5 124.0928,-9.5"/>
<polygon fill="#191970" stroke="#191970" points="124.1369,-13.0001 134.1369,-9.5 124.1369,-6.0001 124.1369,-13.0001"/>
</g>
<!-- Node38 -->
<g id="node3" class="node">
<title>Node38</title>
<g id="a_node3"><a xlink:href="a00065.html#a7dff2b79dffe55fb936d977594d7c01d" target="_top" xlink:title="Sets motor speed wrapped inside the slew rate controller. ">
<polygon fill="none" stroke="#ff0000" points="287.4277,-.5 287.4277,-18.5 373.457,-18.5 373.457,-.5 287.4277,-.5"/>
<text text-anchor="middle" x="330.4424" y="-6.5" font-family="Helvetica,sans-Serif" font-size="10.00" fill="#000000">set_motor_slew</text>
</a>
</g>
</g>
<!-- Node37&#45;&gt;Node38 -->
<g id="edge2" class="edge">
<title>Node37&#45;&gt;Node38</title>
<path fill="none" stroke="#191970" d="M251.6016,-9.5C260.1176,-9.5 268.8436,-9.5 277.2422,-9.5"/>
<polygon fill="#191970" stroke="#191970" points="277.2883,-13.0001 287.2882,-9.5 277.2882,-6.0001 277.2883,-13.0001"/>
</g>
</g>
</svg>
