<?xml version="1.0" encoding="UTF-8" standalone="no"?>
<!DOCTYPE svg PUBLIC "-//W3C//DTD SVG 1.1//EN"
 "http://www.w3.org/Graphics/SVG/1.1/DTD/svg11.dtd">
<!-- Generated by graphviz version 2.40.1 (20161225.0304)
 -->
<!-- Title: multiplyMatrix Pages: 1 -->
<svg width="268pt" height="46pt"
 viewBox="0.00 0.00 268.02 46.00" xmlns="http://www.w3.org/2000/svg" xmlns:xlink="http://www.w3.org/1999/xlink">
<g id="graph0" class="graph" transform="scale(1 1) rotate(0) translate(4 42)">
<title>multiplyMatrix</title>
<!-- Node58 -->
<g id="node1" class="node">
<title>Node58</title>
<polygon fill="#bfbfbf" stroke="#000000" points="0,-19.5 0,-37.5 77.1182,-37.5 77.1182,-19.5 0,-19.5"/>
<text text-anchor="middle" x="38.5591" y="-25.5" font-family="Helvetica,sans-Serif" font-size="10.00" fill="#000000">multiplyMatrix</text>
</g>
<!-- Node59 -->
<g id="node2" class="node">
<title>Node59</title>
<g id="a_node2"><a xlink:href="a00125.html#a8e41e30382335ea89f90b72db0b44d6f" target="_top" xlink:title="Asserts a condition is true. ">
<polygon fill="none" stroke="#000000" points="216.793,-19.5 216.793,-37.5 260.0244,-37.5 260.0244,-19.5 216.793,-19.5"/>
<text text-anchor="middle" x="238.4087" y="-25.5" font-family="Helvetica,sans-Serif" font-size="10.00" fill="#000000">assert</text>
</a>
</g>
</g>
<!-- Node58&#45;&gt;Node59 -->
<g id="edge1" class="edge">
<title>Node58&#45;&gt;Node59</title>
<path fill="none" stroke="#191970" d="M77.5665,-28.5C115.2441,-28.5 171.6068,-28.5 206.6326,-28.5"/>
<polygon fill="#191970" stroke="#191970" points="206.7734,-32.0001 216.7734,-28.5 206.7734,-25.0001 206.7734,-32.0001"/>
</g>
<!-- Node60 -->
<g id="node3" class="node">
<title>Node60</title>
<g id="a_node3"><a xlink:href="a00125.html#aae8b56c6fb44d9147b835f4006ca872c" target="_top" xlink:title="Makes a matrix with a width and height parameters. ">
<polygon fill="none" stroke="#000000" points="113.1182,-.5 113.1182,-18.5 180.793,-18.5 180.793,-.5 113.1182,-.5"/>
<text text-anchor="middle" x="146.9556" y="-6.5" font-family="Helvetica,sans-Serif" font-size="10.00" fill="#000000">makeMatrix</text>
</a>
</g>
</g>
<!-- Node58&#45;&gt;Node60 -->
<g id="edge2" class="edge">
<title>Node58&#45;&gt;Node60</title>
<path fill="none" stroke="#191970" d="M77.3865,-21.6942C85.6787,-20.2408 94.4942,-18.6956 102.9645,-17.2109"/>
<polygon fill="#191970" stroke="#191970" points="103.8215,-20.6141 113.067,-15.4401 102.6129,-13.7192 103.8215,-20.6141"/>
</g>
<!-- Node60&#45;&gt;Node59 -->
<g id="edge3" class="edge">
<title>Node60&#45;&gt;Node59</title>
<path fill="none" stroke="#191970" d="M181.0093,-16.5749C189.3649,-18.3108 198.2777,-20.1625 206.5268,-21.8763"/>
<polygon fill="#191970" stroke="#191970" points="206.0259,-25.3469 216.5288,-23.9543 207.4499,-18.4933 206.0259,-25.3469"/>
</g>
</g>
</svg>
