<?xml version="1.0" encoding="UTF-8" standalone="no"?>
<!DOCTYPE svg PUBLIC "-//W3C//DTD SVG 1.1//EN"
 "http://www.w3.org/Graphics/SVG/1.1/DTD/svg11.dtd">
<!-- Generated by graphviz version 2.40.1 (20161225.0304)
 -->
<!-- Title: lower_intake Pages: 1 -->
<svg width="357pt" height="27pt"
 viewBox="0.00 0.00 357.00 27.00" xmlns="http://www.w3.org/2000/svg" xmlns:xlink="http://www.w3.org/1999/xlink">
<g id="graph0" class="graph" transform="scale(1 1) rotate(0) translate(4 23)">
<title>lower_intake</title>
<!-- Node0 -->
<g id="node1" class="node">
<title>Node0</title>
<polygon fill="#bfbfbf" stroke="#000000" points="0,-.5 0,-18.5 72.1426,-18.5 72.1426,-.5 0,-.5"/>
<text text-anchor="middle" x="36.0713" y="-6.5" font-family="Helvetica,sans-Serif" font-size="10.00" fill="#000000">lower_intake</text>
</g>
<!-- Node1 -->
<g id="node2" class="node">
<title>Node1</title>
<g id="a_node2"><a xlink:href="a00131.html#ab31e12bb0fa46c77906a048666b699d5" target="_top" xlink:title="sets the intake motor ">
<polygon fill="none" stroke="#000000" points="108.1426,-.5 108.1426,-18.5 200.8516,-18.5 200.8516,-.5 108.1426,-.5"/>
<text text-anchor="middle" x="154.4971" y="-6.5" font-family="Helvetica,sans-Serif" font-size="10.00" fill="#000000">set_intake_motor</text>
</a>
</g>
</g>
<!-- Node0&#45;&gt;Node1 -->
<g id="edge1" class="edge">
<title>Node0&#45;&gt;Node1</title>
<path fill="none" stroke="#191970" d="M72.2464,-9.5C80.3622,-9.5 89.162,-9.5 97.8864,-9.5"/>
<polygon fill="#191970" stroke="#191970" points="98.0479,-13.0001 108.0479,-9.5 98.0479,-6.0001 98.0479,-13.0001"/>
</g>
<!-- Node2 -->
<g id="node3" class="node">
<title>Node2</title>
<g id="a_node3"><a xlink:href="a00065.html#a9f8b8ae577ef938622024545711f0151" target="_top" xlink:title="Sets the motor speed ignoring the slew controller. ">
<polygon fill="none" stroke="#ff0000" points="236.8516,-.5 236.8516,-18.5 349.0039,-18.5 349.0039,-.5 236.8516,-.5"/>
<text text-anchor="middle" x="292.9277" y="-6.5" font-family="Helvetica,sans-Serif" font-size="10.00" fill="#000000">set_motor_immediate</text>
</a>
</g>
</g>
<!-- Node1&#45;&gt;Node2 -->
<g id="edge2" class="edge">
<title>Node1&#45;&gt;Node2</title>
<path fill="none" stroke="#191970" d="M200.9776,-9.5C209.22,-9.5 217.9463,-9.5 226.6119,-9.5"/>
<polygon fill="#191970" stroke="#191970" points="226.7241,-13.0001 236.724,-9.5 226.724,-6.0001 226.7241,-13.0001"/>
</g>
</g>
</svg>
