<?xml version="1.0" encoding="UTF-8" standalone="no"?>
<!DOCTYPE svg PUBLIC "-//W3C//DTD SVG 1.1//EN"
 "http://www.w3.org/Graphics/SVG/1.1/DTD/svg11.dtd">
<!-- Generated by graphviz version 2.40.1 (20161225.0304)
 -->
<!-- Title: init_main_lcd Pages: 1 -->
<svg width="272pt" height="27pt"
 viewBox="0.00 0.00 271.96 27.00" xmlns="http://www.w3.org/2000/svg" xmlns:xlink="http://www.w3.org/1999/xlink">
<g id="graph0" class="graph" transform="scale(1 1) rotate(0) translate(4 23)">
<title>init_main_lcd</title>
<!-- Node0 -->
<g id="node1" class="node">
<title>Node0</title>
<polygon fill="#bfbfbf" stroke="#000000" points="0,-.5 0,-18.5 74.3643,-18.5 74.3643,-.5 0,-.5"/>
<text text-anchor="middle" x="37.1821" y="-6.5" font-family="Helvetica,sans-Serif" font-size="10.00" fill="#000000">init_main_lcd</text>
</g>
<!-- Node1 -->
<g id="node2" class="node">
<title>Node1</title>
<g id="a_node2"><a xlink:href="a00104.html#a35c08b1fa742e650f4873939707b893b" target="_top" xlink:title="Clears the lcd. ">
<polygon fill="none" stroke="#000000" points="110.3643,-.5 110.3643,-18.5 166.3838,-18.5 166.3838,-.5 110.3643,-.5"/>
<text text-anchor="middle" x="138.374" y="-6.5" font-family="Helvetica,sans-Serif" font-size="10.00" fill="#000000">lcd_clear</text>
</a>
</g>
</g>
<!-- Node0&#45;&gt;Node1 -->
<g id="edge1" class="edge">
<title>Node0&#45;&gt;Node1</title>
<path fill="none" stroke="#191970" d="M74.5748,-9.5C82.8879,-9.5 91.7123,-9.5 100.0617,-9.5"/>
<polygon fill="#191970" stroke="#191970" points="100.3093,-13.0001 110.3093,-9.5 100.3092,-6.0001 100.3093,-13.0001"/>
</g>
<!-- Node2 -->
<g id="node3" class="node">
<title>Node2</title>
<g id="a_node3"><a xlink:href="a00104.html#aa03fd2deaeec8fc3f42a0975d587bad8" target="_top" xlink:title="Asserts the lcd is initialized Works by checking is the File *lcd_port is the default NULL value and ...">
<polygon fill="none" stroke="#000000" points="202.3838,-.5 202.3838,-18.5 263.96,-18.5 263.96,-.5 202.3838,-.5"/>
<text text-anchor="middle" x="233.1719" y="-6.5" font-family="Helvetica,sans-Serif" font-size="10.00" fill="#000000">lcd_assert</text>
</a>
</g>
</g>
<!-- Node1&#45;&gt;Node2 -->
<g id="edge2" class="edge">
<title>Node1&#45;&gt;Node2</title>
<path fill="none" stroke="#191970" d="M166.5598,-9.5C174.5529,-9.5 183.4235,-9.5 192.0155,-9.5"/>
<polygon fill="#191970" stroke="#191970" points="192.2801,-13.0001 202.2801,-9.5 192.2801,-6.0001 192.2801,-13.0001"/>
</g>
</g>
</svg>
