<?xml version="1.0" encoding="UTF-8" standalone="no"?>
<!DOCTYPE svg PUBLIC "-//W3C//DTD SVG 1.1//EN"
 "http://www.w3.org/Graphics/SVG/1.1/DTD/svg11.dtd">
<!-- Generated by graphviz version 2.40.1 (20161225.0304)
 -->
<!-- Title: init_menu_float Pages: 1 -->
<svg width="275pt" height="101pt"
 viewBox="0.00 0.00 275.30 101.00" xmlns="http://www.w3.org/2000/svg" xmlns:xlink="http://www.w3.org/1999/xlink">
<g id="graph0" class="graph" transform="scale(1 1) rotate(0) translate(4 97)">
<title>init_menu_float</title>
<!-- Node30 -->
<g id="node1" class="node">
<title>Node30</title>
<polygon fill="#bfbfbf" stroke="#000000" points="0,-37.5 0,-55.5 83.8223,-55.5 83.8223,-37.5 0,-37.5"/>
<text text-anchor="middle" x="41.9111" y="-43.5" font-family="Helvetica,sans-Serif" font-size="10.00" fill="#000000">init_menu_float</text>
</g>
<!-- Node31 -->
<g id="node2" class="node">
<title>Node31</title>
<g id="a_node2"><a xlink:href="a00128.html#aff4fd27ff7707295d91c67fa52a6b021" target="_top" xlink:title="Static function that handles creation of menu. ">
<polygon fill="none" stroke="#000000" points="119.8223,-74.5 119.8223,-92.5 194.1914,-92.5 194.1914,-74.5 119.8223,-74.5"/>
<text text-anchor="middle" x="157.0068" y="-80.5" font-family="Helvetica,sans-Serif" font-size="10.00" fill="#000000">create_menu</text>
</a>
</g>
</g>
<!-- Node30&#45;&gt;Node31 -->
<g id="edge1" class="edge">
<title>Node30&#45;&gt;Node31</title>
<path fill="none" stroke="#191970" d="M70.0667,-55.5512C84.8368,-60.2994 103.1379,-66.1827 119.1336,-71.3248"/>
<polygon fill="#191970" stroke="#191970" points="118.1517,-74.6855 128.743,-74.414 120.294,-68.0214 118.1517,-74.6855"/>
</g>
<!-- Node34 -->
<g id="node4" class="node">
<title>Node34</title>
<g id="a_node4"><a xlink:href="a00074.html#af082905f7eac6d03e92015146bbc1925" target="_top" xlink:title="the min of two values ">
<polygon fill="none" stroke="#000000" points="139.561,-37.5 139.561,-55.5 174.4526,-55.5 174.4526,-37.5 139.561,-37.5"/>
<text text-anchor="middle" x="157.0068" y="-43.5" font-family="Helvetica,sans-Serif" font-size="10.00" fill="#000000">max</text>
</a>
</g>
</g>
<!-- Node30&#45;&gt;Node34 -->
<g id="edge3" class="edge">
<title>Node30&#45;&gt;Node34</title>
<path fill="none" stroke="#191970" d="M84.115,-46.5C99.2008,-46.5 115.8043,-46.5 129.3496,-46.5"/>
<polygon fill="#191970" stroke="#191970" points="129.4696,-50.0001 139.4695,-46.5 129.4695,-43.0001 129.4696,-50.0001"/>
</g>
<!-- Node35 -->
<g id="node5" class="node">
<title>Node35</title>
<g id="a_node5"><a xlink:href="a00074.html#abd8bbcfabb3ddef2ccaafb9928a37b95" target="_top" xlink:title="the min of two values ">
<polygon fill="none" stroke="#000000" points="140.9502,-.5 140.9502,-18.5 173.0635,-18.5 173.0635,-.5 140.9502,-.5"/>
<text text-anchor="middle" x="157.0068" y="-6.5" font-family="Helvetica,sans-Serif" font-size="10.00" fill="#000000">min</text>
</a>
</g>
</g>
<!-- Node30&#45;&gt;Node35 -->
<g id="edge4" class="edge">
<title>Node30&#45;&gt;Node35</title>
<path fill="none" stroke="#191970" d="M70.0667,-37.4488C88.7347,-31.4476 113.0433,-23.633 131.2086,-17.7934"/>
<polygon fill="#191970" stroke="#191970" points="132.3999,-21.0869 140.8489,-14.6943 130.2575,-14.4228 132.3999,-21.0869"/>
</g>
<!-- Node32 -->
<g id="node3" class="node">
<title>Node32</title>
<g id="a_node3"><a xlink:href="a00035.html#a8e5bb8a2a372f5b066ff7af7044584c1" target="_top" xlink:title="prints a error message and displays on lcd. ">
<polygon fill="none" stroke="#ff0000" points="230.1914,-74.5 230.1914,-92.5 267.3047,-92.5 267.3047,-74.5 230.1914,-74.5"/>
<text text-anchor="middle" x="248.748" y="-80.5" font-family="Helvetica,sans-Serif" font-size="10.00" fill="#000000">error</text>
</a>
</g>
</g>
<!-- Node31&#45;&gt;Node32 -->
<g id="edge2" class="edge">
<title>Node31&#45;&gt;Node32</title>
<path fill="none" stroke="#191970" d="M194.3215,-83.5C202.8757,-83.5 211.8415,-83.5 219.9713,-83.5"/>
<polygon fill="#191970" stroke="#191970" points="220.0723,-87.0001 230.0723,-83.5 220.0722,-80.0001 220.0723,-87.0001"/>
</g>
</g>
</svg>
