<?xml version="1.0" encoding="UTF-8" standalone="no"?>
<!DOCTYPE svg PUBLIC "-//W3C//DTD SVG 1.1//EN"
 "http://www.w3.org/Graphics/SVG/1.1/DTD/svg11.dtd">
<!-- Generated by graphviz version 2.40.1 (20161225.0304)
 -->
<!-- Title: list_t Pages: 1 -->
<svg width="104pt" height="103pt"
 viewBox="0.00 0.00 104.26 103.00" xmlns="http://www.w3.org/2000/svg" xmlns:xlink="http://www.w3.org/1999/xlink">
<g id="graph0" class="graph" transform="scale(1 1) rotate(0) translate(4 99)">
<title>list_t</title>
<!-- Node1 -->
<g id="node1" class="node">
<title>Node1</title>
<polygon fill="#bfbfbf" stroke="#000000" points="9.7339,-.5 9.7339,-18.5 46.2954,-18.5 46.2954,-.5 9.7339,-.5"/>
<text text-anchor="middle" x="28.0146" y="-6.5" font-family="Helvetica,sans-Serif" font-size="10.00" fill="#000000">list_t</text>
</g>
<!-- Node2 -->
<g id="node2" class="node">
<title>Node2</title>
<g id="a_node2"><a xlink:href="a00167.html" target="_top" xlink:title="list_node">
<polygon fill="none" stroke="#000000" points="0,-76 0,-94 56.0293,-94 56.0293,-76 0,-76"/>
<text text-anchor="middle" x="28.0146" y="-82" font-family="Helvetica,sans-Serif" font-size="10.00" fill="#000000">list_node</text>
</a>
</g>
</g>
<!-- Node2&#45;&gt;Node1 -->
<g id="edge1" class="edge">
<title>Node2&#45;&gt;Node1</title>
<path fill="none" stroke="#9a32cd" stroke-dasharray="5,2" d="M28.0146,-65.4786C28.0146,-50.4756 28.0146,-30.4177 28.0146,-18.8335"/>
<polygon fill="#9a32cd" stroke="#9a32cd" points="24.5147,-65.7422 28.0146,-75.7422 31.5147,-65.7423 24.5147,-65.7422"/>
<text text-anchor="middle" x="40.5269" y="-49" font-family="Helvetica,sans-Serif" font-size="10.00" fill="#000000"> head</text>
<text text-anchor="middle" x="40.5269" y="-39" font-family="Helvetica,sans-Serif" font-size="10.00" fill="#000000">tail</text>
</g>
<!-- Node2&#45;&gt;Node2 -->
<g id="edge2" class="edge">
<title>Node2&#45;&gt;Node2</title>
<path fill="none" stroke="#9a32cd" stroke-dasharray="5,2" d="M66.5803,-91.0902C71.0918,-89.9698 74.0293,-87.9398 74.0293,-85 74.0293,-80.1758 66.1187,-77.8014 56.3231,-77.8767"/>
<polygon fill="#9a32cd" stroke="#9a32cd" points="65.9219,-87.6387 56.3231,-92.1233 66.6235,-94.6034 65.9219,-87.6387"/>
<text text-anchor="middle" x="85.145" y="-87" font-family="Helvetica,sans-Serif" font-size="10.00" fill="#000000"> prev</text>
<text text-anchor="middle" x="85.145" y="-77" font-family="Helvetica,sans-Serif" font-size="10.00" fill="#000000">next</text>
</g>
</g>
</svg>
