<?xml version="1.0" encoding="UTF-8" standalone="no"?>
<!DOCTYPE svg PUBLIC "-//W3C//DTD SVG 1.1//EN"
 "http://www.w3.org/Graphics/SVG/1.1/DTD/svg11.dtd">
<!-- Generated by graphviz version 2.40.1 (20161225.0304)
 -->
<!-- Title: src/menu.c Pages: 1 -->
<svg width="285pt" height="247pt"
 viewBox="0.00 0.00 285.24 247.00" xmlns="http://www.w3.org/2000/svg" xmlns:xlink="http://www.w3.org/1999/xlink">
<g id="graph0" class="graph" transform="scale(1 1) rotate(0) translate(4 243)">
<title>src/menu.c</title>
<!-- Node0 -->
<g id="node1" class="node">
<title>Node0</title>
<polygon fill="#bfbfbf" stroke="#000000" points="121.1587,-220.5 121.1587,-238.5 186.06,-238.5 186.06,-220.5 121.1587,-220.5"/>
<text text-anchor="middle" x="153.6093" y="-226.5" font-family="Helvetica,sans-Serif" font-size="10.00" fill="#000000">src/menu.c</text>
</g>
<!-- Node1 -->
<g id="node2" class="node">
<title>Node1</title>
<g id="a_node2"><a xlink:href="a00044.html" target="_top" xlink:title="Contains menu functionality and abstraction. ">
<polygon fill="none" stroke="#000000" points="128.9321,-165.5 128.9321,-183.5 178.2866,-183.5 178.2866,-165.5 128.9321,-165.5"/>
<text text-anchor="middle" x="153.6093" y="-171.5" font-family="Helvetica,sans-Serif" font-size="10.00" fill="#000000">menu.h</text>
</a>
</g>
</g>
<!-- Node0&#45;&gt;Node1 -->
<g id="edge1" class="edge">
<title>Node0&#45;&gt;Node1</title>
<path fill="none" stroke="#191970" d="M153.6093,-220.4179C153.6093,-213.2164 153.6093,-202.8962 153.6093,-193.8632"/>
<polygon fill="#191970" stroke="#191970" points="157.1094,-193.7794 153.6093,-183.7795 150.1094,-193.7795 157.1094,-193.7794"/>
</g>
<!-- Node2 -->
<g id="node3" class="node">
<title>Node2</title>
<polygon fill="none" stroke="#bfbfbf" points="106.3803,-.5 106.3803,-18.5 146.8383,-18.5 146.8383,-.5 106.3803,-.5"/>
<text text-anchor="middle" x="126.6093" y="-6.5" font-family="Helvetica,sans-Serif" font-size="10.00" fill="#000000">API.h</text>
</g>
<!-- Node1&#45;&gt;Node2 -->
<g id="edge2" class="edge">
<title>Node1&#45;&gt;Node2</title>
<path fill="none" stroke="#191970" d="M178.7412,-171.1319C203.6243,-166.3607 240.6659,-155.091 259.6093,-129 278.9765,-102.3254 283.9273,-81.7102 264.6093,-55 251.8601,-37.3722 193.6503,-22.8442 157.0231,-15.2406"/>
<polygon fill="#191970" stroke="#191970" points="157.3662,-11.7394 146.8718,-13.1949 155.9833,-18.6015 157.3662,-11.7394"/>
</g>
<!-- Node3 -->
<g id="node4" class="node">
<title>Node3</title>
<g id="a_node4"><a xlink:href="a00023.html" target="_top" xlink:title="LCD wrapper functions and macros. ">
<polygon fill="none" stroke="#000000" points="14.0478,-55.5 14.0478,-73.5 51.1709,-73.5 51.1709,-55.5 14.0478,-55.5"/>
<text text-anchor="middle" x="32.6093" y="-61.5" font-family="Helvetica,sans-Serif" font-size="10.00" fill="#000000">lcd.h</text>
</a>
</g>
</g>
<!-- Node1&#45;&gt;Node3 -->
<g id="edge3" class="edge">
<title>Node1&#45;&gt;Node3</title>
<path fill="none" stroke="#191970" d="M128.7068,-170.5279C90.2941,-163.8357 19.4541,-149.0547 4.6093,-129 -6.217,-114.3741 5.0578,-94.9124 16.3663,-81.2053"/>
<polygon fill="#191970" stroke="#191970" points="19.1818,-83.3063 23.2146,-73.509 13.9524,-78.6531 19.1818,-83.3063"/>
</g>
<!-- Node4 -->
<g id="node5" class="node">
<title>Node4</title>
<polygon fill="none" stroke="#bfbfbf" points="68.9887,-110.5 68.9887,-128.5 112.2299,-128.5 112.2299,-110.5 68.9887,-110.5"/>
<text text-anchor="middle" x="90.6093" y="-116.5" font-family="Helvetica,sans-Serif" font-size="10.00" fill="#000000">float.h</text>
</g>
<!-- Node1&#45;&gt;Node4 -->
<g id="edge5" class="edge">
<title>Node1&#45;&gt;Node4</title>
<path fill="none" stroke="#191970" d="M143.2062,-165.4179C133.8694,-157.2667 119.956,-145.1201 108.7842,-135.3669"/>
<polygon fill="#191970" stroke="#191970" points="111.0735,-132.7194 101.2385,-128.7795 106.4699,-137.9927 111.0735,-132.7194"/>
</g>
<!-- Node5 -->
<g id="node6" class="node">
<title>Node5</title>
<polygon fill="none" stroke="#bfbfbf" points="130.0527,-110.5 130.0527,-128.5 177.166,-128.5 177.166,-110.5 130.0527,-110.5"/>
<text text-anchor="middle" x="153.6093" y="-116.5" font-family="Helvetica,sans-Serif" font-size="10.00" fill="#000000">limits.h</text>
</g>
<!-- Node1&#45;&gt;Node5 -->
<g id="edge6" class="edge">
<title>Node1&#45;&gt;Node5</title>
<path fill="none" stroke="#191970" d="M153.6093,-165.4179C153.6093,-158.2164 153.6093,-147.8962 153.6093,-138.8632"/>
<polygon fill="#191970" stroke="#191970" points="157.1094,-138.7794 153.6093,-128.7795 150.1094,-138.7795 157.1094,-138.7794"/>
</g>
<!-- Node6 -->
<g id="node7" class="node">
<title>Node6</title>
<polygon fill="none" stroke="#bfbfbf" points="207.2129,-55.5 207.2129,-73.5 256.0058,-73.5 256.0058,-55.5 207.2129,-55.5"/>
<text text-anchor="middle" x="231.6093" y="-61.5" font-family="Helvetica,sans-Serif" font-size="10.00" fill="#000000">string.h</text>
</g>
<!-- Node1&#45;&gt;Node6 -->
<g id="edge7" class="edge">
<title>Node1&#45;&gt;Node6</title>
<path fill="none" stroke="#191970" d="M178.3602,-169.5246C199.7851,-163.7675 229.4851,-151.9673 243.6093,-129 252.1677,-115.0834 247.3682,-96.5127 241.493,-82.8723"/>
<polygon fill="#191970" stroke="#191970" points="244.4961,-81.0424 236.9939,-73.5612 238.1933,-84.088 244.4961,-81.0424"/>
</g>
<!-- Node7 -->
<g id="node8" class="node">
<title>Node7</title>
<g id="a_node8"><a xlink:href="a00071.html" target="_top" xlink:title="Contains misc helpful functions. ">
<polygon fill="none" stroke="#ff0000" points="194.937,-110.5 194.937,-128.5 234.2817,-128.5 234.2817,-110.5 194.937,-110.5"/>
<text text-anchor="middle" x="214.6093" y="-116.5" font-family="Helvetica,sans-Serif" font-size="10.00" fill="#000000">vlib.h</text>
</a>
</g>
</g>
<!-- Node1&#45;&gt;Node7 -->
<g id="edge8" class="edge">
<title>Node1&#45;&gt;Node7</title>
<path fill="none" stroke="#191970" d="M163.6822,-165.4179C172.6349,-157.3458 185.9331,-145.3556 196.6957,-135.6517"/>
<polygon fill="#191970" stroke="#191970" points="199.2344,-138.0753 204.3176,-128.7795 194.5469,-132.8764 199.2344,-138.0753"/>
</g>
<!-- Node9 -->
<g id="node9" class="node">
<title>Node9</title>
<g id="a_node9"><a xlink:href="a00035.html" target="_top" xlink:title="Contains logging functions. ">
<polygon fill="none" stroke="#000000" points="13.7671,-110.5 13.7671,-128.5 51.4516,-128.5 51.4516,-110.5 13.7671,-110.5"/>
<text text-anchor="middle" x="32.6093" y="-116.5" font-family="Helvetica,sans-Serif" font-size="10.00" fill="#000000">log.h</text>
</a>
</g>
</g>
<!-- Node1&#45;&gt;Node9 -->
<g id="edge11" class="edge">
<title>Node1&#45;&gt;Node9</title>
<path fill="none" stroke="#191970" d="M133.6287,-165.4179C113.8654,-156.4346 83.4259,-142.5985 61.1247,-132.4615"/>
<polygon fill="#191970" stroke="#191970" points="62.3717,-129.1838 51.8197,-128.232 59.4751,-135.5564 62.3717,-129.1838"/>
</g>
<!-- Node3&#45;&gt;Node2 -->
<g id="edge4" class="edge">
<title>Node3&#45;&gt;Node2</title>
<path fill="none" stroke="#191970" d="M48.1315,-55.4179C62.8269,-46.8195 85.1205,-33.7754 102.196,-23.7844"/>
<polygon fill="#191970" stroke="#191970" points="104.2005,-26.6667 111.0641,-18.5956 100.6654,-20.6249 104.2005,-26.6667"/>
</g>
<!-- Node7&#45;&gt;Node2 -->
<g id="edge9" class="edge">
<title>Node7&#45;&gt;Node2</title>
<path fill="none" stroke="#191970" d="M207.4079,-110.4982C192.7756,-92.2079 159.3537,-50.4304 140.3977,-26.7354"/>
<polygon fill="#191970" stroke="#191970" points="142.8903,-24.2484 133.9103,-18.6261 137.4242,-28.6213 142.8903,-24.2484"/>
</g>
<!-- Node7&#45;&gt;Node6 -->
<g id="edge10" class="edge">
<title>Node7&#45;&gt;Node6</title>
<path fill="none" stroke="#191970" d="M217.4165,-110.4179C219.6669,-103.1372 222.9026,-92.669 225.7163,-83.5659"/>
<polygon fill="#191970" stroke="#191970" points="229.1319,-84.3671 228.7411,-73.7795 222.4441,-82.2999 229.1319,-84.3671"/>
</g>
<!-- Node9&#45;&gt;Node2 -->
<g id="edge13" class="edge">
<title>Node9&#45;&gt;Node2</title>
<path fill="none" stroke="#191970" d="M40.3018,-110.4982C56.0006,-92.1273 91.9474,-50.0619 112.1476,-26.4233"/>
<polygon fill="#191970" stroke="#191970" points="114.9749,-28.5023 118.8106,-18.6261 109.6533,-23.9547 114.9749,-28.5023"/>
</g>
<!-- Node9&#45;&gt;Node3 -->
<g id="edge12" class="edge">
<title>Node9&#45;&gt;Node3</title>
<path fill="none" stroke="#191970" d="M32.6093,-110.4179C32.6093,-103.2164 32.6093,-92.8962 32.6093,-83.8632"/>
<polygon fill="#191970" stroke="#191970" points="36.1094,-83.7794 32.6093,-73.7795 29.1094,-83.7795 36.1094,-83.7794"/>
</g>
</g>
</svg>
