<?xml version="1.0" encoding="UTF-8" standalone="no"?>
<!DOCTYPE svg PUBLIC "-//W3C//DTD SVG 1.1//EN"
 "http://www.w3.org/Graphics/SVG/1.1/DTD/svg11.dtd">
<!-- Generated by graphviz version 2.40.1 (20161225.0304)
 -->
<!-- Title: list_find Pages: 1 -->
<svg width="375pt" height="101pt"
 viewBox="0.00 0.00 375.35 101.00" xmlns="http://www.w3.org/2000/svg" xmlns:xlink="http://www.w3.org/1999/xlink">
<g id="graph0" class="graph" transform="scale(1 1) rotate(0) translate(4 97)">
<title>list_find</title>
<!-- Node9 -->
<g id="node1" class="node">
<title>Node9</title>
<polygon fill="#bfbfbf" stroke="#000000" points="0,-37.5 0,-55.5 49.9063,-55.5 49.9063,-37.5 0,-37.5"/>
<text text-anchor="middle" x="24.9531" y="-43.5" font-family="Helvetica,sans-Serif" font-size="10.00" fill="#000000">list_find</text>
</g>
<!-- Node10 -->
<g id="node2" class="node">
<title>Node10</title>
<g id="a_node2"><a xlink:href="a00029.html#ad16fa29ddbb444070ea65f871e1c0ba2" target="_top" xlink:title="list_iterator_destroy">
<polygon fill="none" stroke="#000000" points="85.9063,-74.5 85.9063,-92.5 189.167,-92.5 189.167,-74.5 85.9063,-74.5"/>
<text text-anchor="middle" x="137.5366" y="-80.5" font-family="Helvetica,sans-Serif" font-size="10.00" fill="#000000">list_iterator_destroy</text>
</a>
</g>
</g>
<!-- Node9&#45;&gt;Node10 -->
<g id="edge1" class="edge">
<title>Node9&#45;&gt;Node10</title>
<path fill="none" stroke="#191970" d="M49.9391,-54.7115C64.6383,-59.5423 83.5135,-65.7456 99.9762,-71.156"/>
<polygon fill="#191970" stroke="#191970" points="99.263,-74.6057 109.8559,-74.4029 101.4486,-67.9556 99.263,-74.6057"/>
</g>
<!-- Node11 -->
<g id="node3" class="node">
<title>Node11</title>
<g id="a_node3"><a xlink:href="a00029.html#a3c956afda343b4a6aaf68fbd4b446733" target="_top" xlink:title="list_iterator_new">
<polygon fill="none" stroke="#000000" points="93.1304,-37.5 93.1304,-55.5 181.9429,-55.5 181.9429,-37.5 93.1304,-37.5"/>
<text text-anchor="middle" x="137.5366" y="-43.5" font-family="Helvetica,sans-Serif" font-size="10.00" fill="#000000">list_iterator_new</text>
</a>
</g>
</g>
<!-- Node9&#45;&gt;Node11 -->
<g id="edge2" class="edge">
<title>Node9&#45;&gt;Node11</title>
<path fill="none" stroke="#191970" d="M49.9391,-46.5C59.6593,-46.5 71.2055,-46.5 82.6727,-46.5"/>
<polygon fill="#191970" stroke="#191970" points="82.6818,-50.0001 92.6817,-46.5 82.6817,-43.0001 82.6818,-50.0001"/>
</g>
<!-- Node13 -->
<g id="node5" class="node">
<title>Node13</title>
<g id="a_node5"><a xlink:href="a00029.html#a2e5db981e32d3aef49ea79505a0615a6" target="_top" xlink:title="list_iterator_next">
<polygon fill="none" stroke="#000000" points="92.8521,-.5 92.8521,-18.5 182.2212,-18.5 182.2212,-.5 92.8521,-.5"/>
<text text-anchor="middle" x="137.5366" y="-6.5" font-family="Helvetica,sans-Serif" font-size="10.00" fill="#000000">list_iterator_next</text>
</a>
</g>
</g>
<!-- Node9&#45;&gt;Node13 -->
<g id="edge4" class="edge">
<title>Node9&#45;&gt;Node13</title>
<path fill="none" stroke="#191970" d="M49.9391,-38.2885C64.6383,-33.4577 83.5135,-27.2544 99.9762,-21.844"/>
<polygon fill="#191970" stroke="#191970" points="101.4486,-25.0444 109.8559,-18.5971 99.263,-18.3943 101.4486,-25.0444"/>
</g>
<!-- Node12 -->
<g id="node4" class="node">
<title>Node12</title>
<g id="a_node4"><a xlink:href="a00113.html#af4136a8a27bdc8c0f967a708dd03d575" target="_top" xlink:title="list_iterator_new_from_node">
<polygon fill="none" stroke="#000000" points="225.167,-37.5 225.167,-55.5 367.3486,-55.5 367.3486,-37.5 225.167,-37.5"/>
<text text-anchor="middle" x="296.2578" y="-43.5" font-family="Helvetica,sans-Serif" font-size="10.00" fill="#000000">list_iterator_new_from_node</text>
</a>
</g>
</g>
<!-- Node11&#45;&gt;Node12 -->
<g id="edge3" class="edge">
<title>Node11&#45;&gt;Node12</title>
<path fill="none" stroke="#191970" d="M182.1717,-46.5C192.3508,-46.5 203.4794,-46.5 214.6671,-46.5"/>
<polygon fill="#191970" stroke="#191970" points="214.9326,-50.0001 224.9326,-46.5 214.9326,-43.0001 214.9326,-50.0001"/>
</g>
</g>
</svg>
