<?xml version="1.0" encoding="UTF-8" standalone="no"?>
<!DOCTYPE svg PUBLIC "-//W3C//DTD SVG 1.1//EN"
 "http://www.w3.org/Graphics/SVG/1.1/DTD/svg11.dtd">
<!-- Generated by graphviz version 2.40.1 (20161225.0304)
 -->
<!-- Title: set_main_lifter_motors Pages: 1 -->
<svg width="338pt" height="64pt"
 viewBox="0.00 0.00 337.53 64.00" xmlns="http://www.w3.org/2000/svg" xmlns:xlink="http://www.w3.org/1999/xlink">
<g id="graph0" class="graph" transform="scale(1 1) rotate(0) translate(4 60)">
<title>set_main_lifter_motors</title>
<!-- Node79 -->
<g id="node1" class="node">
<title>Node79</title>
<polygon fill="#bfbfbf" stroke="#000000" points="0,-18.5 0,-36.5 117.1523,-36.5 117.1523,-18.5 0,-18.5"/>
<text text-anchor="middle" x="58.5762" y="-24.5" font-family="Helvetica,sans-Serif" font-size="10.00" fill="#000000">set_main_lifter_motors</text>
</g>
<!-- Node80 -->
<g id="node2" class="node">
<title>Node80</title>
<g id="a_node2"><a xlink:href="a00065.html#a7dff2b79dffe55fb936d977594d7c01d" target="_top" xlink:title="Sets motor speed wrapped inside the slew rate controller. ">
<polygon fill="none" stroke="#000000" points="153.1523,-18.5 153.1523,-36.5 239.1816,-36.5 239.1816,-18.5 153.1523,-18.5"/>
<text text-anchor="middle" x="196.167" y="-24.5" font-family="Helvetica,sans-Serif" font-size="10.00" fill="#000000">set_motor_slew</text>
</a>
</g>
</g>
<!-- Node79&#45;&gt;Node80 -->
<g id="edge1" class="edge">
<title>Node79&#45;&gt;Node80</title>
<path fill="none" stroke="#191970" d="M117.3262,-27.5C125.8422,-27.5 134.5682,-27.5 142.9668,-27.5"/>
<polygon fill="#191970" stroke="#191970" points="143.0129,-31.0001 153.0129,-27.5 143.0128,-24.0001 143.0129,-31.0001"/>
</g>
<!-- Node81 -->
<g id="node3" class="node">
<title>Node81</title>
<g id="a_node3"><a xlink:href="a00035.html#af3668f40d1ad1b4f3418869ac9a31f34" target="_top" xlink:title="prints a info message ">
<polygon fill="none" stroke="#000000" points="280.4526,-37.5 280.4526,-55.5 324.2603,-55.5 324.2603,-37.5 280.4526,-37.5"/>
<text text-anchor="middle" x="302.3564" y="-43.5" font-family="Helvetica,sans-Serif" font-size="10.00" fill="#000000">debug</text>
</a>
</g>
</g>
<!-- Node80&#45;&gt;Node81 -->
<g id="edge2" class="edge">
<title>Node80&#45;&gt;Node81</title>
<path fill="none" stroke="#191970" d="M239.3583,-35.228C249.7316,-37.0841 260.6278,-39.0337 270.3864,-40.7797"/>
<polygon fill="#191970" stroke="#191970" points="269.9904,-44.2644 280.4505,-42.5805 271.2233,-37.3738 269.9904,-44.2644"/>
</g>
<!-- Node82 -->
<g id="node4" class="node">
<title>Node82</title>
<g id="a_node4"><a xlink:href="a00143.html#a321758941d88b75783955c819bb75005" target="_top" xlink:title="Initializes the slew rate controller. ">
<polygon fill="none" stroke="#ff0000" points="275.1816,-.5 275.1816,-18.5 329.5313,-18.5 329.5313,-.5 275.1816,-.5"/>
<text text-anchor="middle" x="302.3564" y="-6.5" font-family="Helvetica,sans-Serif" font-size="10.00" fill="#000000">init_slew</text>
</a>
</g>
</g>
<!-- Node80&#45;&gt;Node82 -->
<g id="edge3" class="edge">
<title>Node80&#45;&gt;Node82</title>
<path fill="none" stroke="#191970" d="M239.3583,-20.1787C247.8368,-18.7415 256.6645,-17.2452 264.9349,-15.8433"/>
<polygon fill="#191970" stroke="#191970" points="265.7701,-19.2517 275.0445,-14.1296 264.6002,-12.3501 265.7701,-19.2517"/>
</g>
</g>
</svg>
