<?xml version="1.0" encoding="UTF-8" standalone="no"?>
<!DOCTYPE svg PUBLIC "-//W3C//DTD SVG 1.1//EN"
 "http://www.w3.org/Graphics/SVG/1.1/DTD/svg11.dtd">
<!-- Generated by graphviz version 2.40.1 (20161225.0304)
 -->
<!-- Title: src/auto.c Pages: 1 -->
<!--zoomable 412 -->
<svg id="main" version="1.1" xmlns="http://www.w3.org/2000/svg" xmlns:xlink="http://www.w3.org/1999/xlink" xml:space="preserve" onload="init(evt)">
<style type="text/css"><![CDATA[
.edge:hover path { stroke: red; }
.edge:hover polygon { stroke: red; fill: red; }
]]></style>
<script type="text/javascript"><![CDATA[
var edges = document.getElementsByTagName('g');
if (edges && edges.length) {
  for (var i=0;i<edges.length;i++) {
    if (edges[i].id.substr(0,4)=='edge') {
      edges[i].setAttribute('class','edge');
    }
  }
}
]]></script>
        <defs>
                <circle id="rim" cx="0" cy="0" r="7"/>
                <circle id="rim2" cx="0" cy="0" r="3.5"/>
                <g id="zoomPlus">
                        <use xlink:href="#rim" fill="#404040">
                                <set attributeName="fill" to="#808080" begin="zoomplus.mouseover" end="zoomplus.mouseout"/>
                        </use>
                        <path d="M-4,0h8M0,-4v8" fill="none" stroke="white" stroke-width="1.5" pointer-events="none"/>
                </g>
                <g id="zoomMin">
                        <use xlink:href="#rim" fill="#404040">
                                <set attributeName="fill" to="#808080" begin="zoomminus.mouseover" end="zoomminus.mouseout"/>
                        </use>
                        <path d="M-4,0h8" fill="none" stroke="white" stroke-width="1.5" pointer-events="none"/>
                </g>
                <g id="dirArrow">
                        <path fill="none" stroke="white" stroke-width="1.5" d="M0,-3.0v7 M-2.5,-0.5L0,-3.0L2.5,-0.5"/>
                </g>
               <g id="resetDef">
                       <use xlink:href="#rim2" fill="#404040">
                               <set attributeName="fill" to="#808080" begin="reset.mouseover" end="reset.mouseout"/>
                       </use>
               </g>
        </defs>

<script type="text/javascript">
var viewWidth = 713;
var viewHeight = 412;
var sectionId = 'dynsection-0';
</script>
<script xlink:href="svgpan.js"/>
<svg id="graph" class="graph">
<g id="viewport">
<title>src/auto.c</title>
<!-- Node0 -->
<g id="node1" class="node">
<title>Node0</title>
<polygon fill="#bfbfbf" stroke="#000000" points="374.3325,-385.5 374.3325,-403.5 433.6821,-403.5 433.6821,-385.5 374.3325,-385.5"/>
<text text-anchor="middle" x="404.0073" y="-391.5" font-family="Helvetica,sans-Serif" font-size="10.00" fill="#000000">src/auto.c</text>
</g>
<!-- Node1 -->
<g id="node2" class="node">
<title>Node1</title>
<g id="a_node2"><a xlink:href="main_8h.html" target="_top" xlink:title="Header file for global functions. ">
<polygon fill="none" stroke="#000000" points="523,-330.5 523,-348.5 569.0146,-348.5 569.0146,-330.5 523,-330.5"/>
<text text-anchor="middle" x="546.0073" y="-336.5" font-family="Helvetica,sans-Serif" font-size="10.00" fill="#000000">main.h</text>
</a>
</g>
</g>
<!-- Node0&#45;&gt;Node1 -->
<g id="edge1" class="edge">
<title>Node0&#45;&gt;Node1</title>
<path fill="none" stroke="#191970" d="M427.4557,-385.4179C450.9253,-376.3275 487.2243,-362.2681 513.4744,-352.1008"/>
<polygon fill="#191970" stroke="#191970" points="514.9344,-355.2887 522.9952,-348.4131 512.4061,-348.7612 514.9344,-355.2887"/>
</g>
<!-- Node3 -->
<g id="node4" class="node">
<title>Node3</title>
<g id="a_node4"><a xlink:href="auto_8h.html" target="_top" xlink:title="Autonomous declarations and macros. ">
<polygon fill="none" stroke="#000000" points="351.106,-330.5 351.106,-348.5 394.9087,-348.5 394.9087,-330.5 351.106,-330.5"/>
<text text-anchor="middle" x="373.0073" y="-336.5" font-family="Helvetica,sans-Serif" font-size="10.00" fill="#000000">auto.h</text>
</a>
</g>
</g>
<!-- Node0&#45;&gt;Node3 -->
<g id="edge3" class="edge">
<title>Node0&#45;&gt;Node3</title>
<path fill="none" stroke="#191970" d="M398.8883,-385.4179C394.6509,-377.8998 388.4977,-366.9829 383.2541,-357.6799"/>
<polygon fill="#191970" stroke="#191970" points="386.1968,-355.7724 378.2376,-348.7795 380.0987,-359.2096 386.1968,-355.7724"/>
</g>
<!-- Node2 -->
<g id="node3" class="node">
<title>Node2</title>
<polygon fill="none" stroke="#bfbfbf" points="499.7783,-55.5 499.7783,-73.5 540.2363,-73.5 540.2363,-55.5 499.7783,-55.5"/>
<text text-anchor="middle" x="520.0073" y="-61.5" font-family="Helvetica,sans-Serif" font-size="10.00" fill="#000000">API.h</text>
</g>
<!-- Node1&#45;&gt;Node2 -->
<g id="edge2" class="edge">
<title>Node1&#45;&gt;Node2</title>
<path fill="none" stroke="#191970" d="M555.2737,-330.1417C579.8098,-304.181 642.991,-228.9565 619.0073,-165 604.8382,-127.2156 567.8981,-96.4372 543.368,-79.2983"/>
<polygon fill="#191970" stroke="#191970" points="545.2023,-76.3136 534.9573,-73.6134 541.2823,-82.1131 545.2023,-76.3136"/>
</g>
<!-- Node4 -->
<g id="node5" class="node">
<title>Node4</title>
<g id="a_node5"><a xlink:href="drive_8h.html" target="_top" xlink:title="Drive base definitions and enumerations. ">
<polygon fill="none" stroke="#000000" points="0,-220.5 0,-238.5 46.0146,-238.5 46.0146,-220.5 0,-220.5"/>
<text text-anchor="middle" x="23.0073" y="-226.5" font-family="Helvetica,sans-Serif" font-size="10.00" fill="#000000">drive.h</text>
</a>
</g>
</g>
<!-- Node3&#45;&gt;Node4 -->
<g id="edge4" class="edge">
<title>Node3&#45;&gt;Node4</title>
<path fill="none" stroke="#191970" d="M350.9983,-337.6026C308.641,-333.4415 213.3154,-321.5921 138.0073,-294 103.4366,-281.3336 66.9114,-259.1228 44.534,-244.3606"/>
<polygon fill="#191970" stroke="#191970" points="46.3874,-241.3895 36.1324,-238.7276 42.4892,-247.2036 46.3874,-241.3895"/>
</g>
<!-- Node9 -->
<g id="node10" class="node">
<title>Node9</title>
<polygon fill="none" stroke="#bfbfbf" points="207.165,-275.5 207.165,-293.5 254.8496,-293.5 254.8496,-275.5 207.165,-275.5"/>
<text text-anchor="middle" x="231.0073" y="-281.5" font-family="Helvetica,sans-Serif" font-size="10.00" fill="#000000">stdlib.h</text>
</g>
<!-- Node3&#45;&gt;Node9 -->
<g id="edge12" class="edge">
<title>Node3&#45;&gt;Node9</title>
<path fill="none" stroke="#191970" d="M350.8198,-330.9063C327.4774,-321.8652 290.4921,-307.5399 263.7856,-297.1958"/>
<polygon fill="#191970" stroke="#191970" points="265.0449,-293.9302 254.4557,-293.5821 262.5166,-300.4577 265.0449,-293.9302"/>
</g>
<!-- Node10 -->
<g id="node11" class="node">
<title>Node10</title>
<polygon fill="none" stroke="#bfbfbf" points="272.7144,-275.5 272.7144,-293.5 329.3003,-293.5 329.3003,-275.5 272.7144,-275.5"/>
<text text-anchor="middle" x="301.0073" y="-281.5" font-family="Helvetica,sans-Serif" font-size="10.00" fill="#000000">stdbool.h</text>
</g>
<!-- Node3&#45;&gt;Node10 -->
<g id="edge13" class="edge">
<title>Node3&#45;&gt;Node10</title>
<path fill="none" stroke="#191970" d="M361.118,-330.4179C350.3438,-322.1876 334.2372,-309.8839 321.4076,-300.0836"/>
<polygon fill="#191970" stroke="#191970" points="323.2264,-297.0685 313.155,-293.7795 318.9771,-302.6313 323.2264,-297.0685"/>
</g>
<!-- Node11 -->
<g id="node12" class="node">
<title>Node11</title>
<polygon fill="none" stroke="#bfbfbf" points="346.9409,-275.5 346.9409,-293.5 399.0737,-293.5 399.0737,-275.5 346.9409,-275.5"/>
<text text-anchor="middle" x="373.0073" y="-281.5" font-family="Helvetica,sans-Serif" font-size="10.00" fill="#000000">stdarg.h</text>
</g>
<!-- Node3&#45;&gt;Node11 -->
<g id="edge14" class="edge">
<title>Node3&#45;&gt;Node11</title>
<path fill="none" stroke="#191970" d="M373.0073,-330.4179C373.0073,-323.2164 373.0073,-312.8962 373.0073,-303.8632"/>
<polygon fill="#191970" stroke="#191970" points="376.5074,-303.7794 373.0073,-293.7795 369.5074,-303.7795 376.5074,-303.7794"/>
</g>
<!-- Node12 -->
<g id="node13" class="node">
<title>Node12</title>
<polygon fill="none" stroke="#bfbfbf" points="416.8867,-275.5 416.8867,-293.5 465.1279,-293.5 465.1279,-275.5 416.8867,-275.5"/>
<text text-anchor="middle" x="441.0073" y="-281.5" font-family="Helvetica,sans-Serif" font-size="10.00" fill="#000000">stdint.h</text>
</g>
<!-- Node3&#45;&gt;Node12 -->
<g id="edge15" class="edge">
<title>Node3&#45;&gt;Node12</title>
<path fill="none" stroke="#191970" d="M384.2361,-330.4179C394.4118,-322.1876 409.6236,-309.8839 421.7404,-300.0836"/>
<polygon fill="#191970" stroke="#191970" points="423.9605,-302.7895 429.5345,-293.7795 419.5584,-297.3469 423.9605,-302.7895"/>
</g>
<!-- Node13 -->
<g id="node14" class="node">
<title>Node13</title>
<g id="a_node14"><a xlink:href="sensor__ports_8h.html" target="_top" xlink:title="sensor_ports.h">
<polygon fill="none" stroke="#000000" points="317.9336,-220.5 317.9336,-238.5 400.0811,-238.5 400.0811,-220.5 317.9336,-220.5"/>
<text text-anchor="middle" x="359.0073" y="-226.5" font-family="Helvetica,sans-Serif" font-size="10.00" fill="#000000">sensor_ports.h</text>
</a>
</g>
</g>
<!-- Node3&#45;&gt;Node13 -->
<g id="edge16" class="edge">
<title>Node3&#45;&gt;Node13</title>
<path fill="none" stroke="#191970" d="M394.9683,-335.1767C430.8739,-327.0743 496.055,-307.4338 474.0073,-275 465.5852,-262.6104 432.1739,-250.2082 403.5194,-241.4886"/>
<polygon fill="#191970" stroke="#191970" points="404.2132,-238.044 393.6312,-238.564 402.2279,-244.7565 404.2132,-238.044"/>
</g>
<!-- Node14 -->
<g id="node15" class="node">
<title>Node14</title>
<g id="a_node15"><a xlink:href="lifter_8h.html" target="_top" xlink:title="Declarations and macros for controlling and manipulating the lifter. ">
<polygon fill="none" stroke="#000000" points="146.665,-275.5 146.665,-293.5 189.3496,-293.5 189.3496,-275.5 146.665,-275.5"/>
<text text-anchor="middle" x="168.0073" y="-281.5" font-family="Helvetica,sans-Serif" font-size="10.00" fill="#000000">lifter.h</text>
</a>
</g>
</g>
<!-- Node3&#45;&gt;Node14 -->
<g id="edge17" class="edge">
<title>Node3&#45;&gt;Node14</title>
<path fill="none" stroke="#191970" d="M351.0814,-334.1904C319.5266,-326.4654 259.2845,-311.4066 199.2289,-294.2549"/>
<polygon fill="#191970" stroke="#191970" points="200.1742,-290.885 189.5964,-291.485 198.2396,-297.6123 200.1742,-290.885"/>
</g>
<!-- Node20 -->
<g id="node21" class="node">
<title>Node20</title>
<g id="a_node21"><a xlink:href="claw_8h.html" target="_top" xlink:title="Code for controlling the claw that grabs the cones. ">
<polygon fill="none" stroke="#000000" points="521.1084,-275.5 521.1084,-293.5 564.9063,-293.5 564.9063,-275.5 521.1084,-275.5"/>
<text text-anchor="middle" x="543.0073" y="-281.5" font-family="Helvetica,sans-Serif" font-size="10.00" fill="#000000">claw.h</text>
</a>
</g>
</g>
<!-- Node3&#45;&gt;Node20 -->
<g id="edge32" class="edge">
<title>Node3&#45;&gt;Node20</title>
<path fill="none" stroke="#191970" d="M395.2319,-332.3097C424.8394,-322.7308 477.4061,-305.7239 511.2059,-294.7887"/>
<polygon fill="#191970" stroke="#191970" points="512.6097,-298.0132 521.0467,-291.6049 510.4549,-291.3531 512.6097,-298.0132"/>
</g>
<!-- Node4&#45;&gt;Node2 -->
<g id="edge5" class="edge">
<title>Node4&#45;&gt;Node2</title>
<path fill="none" stroke="#191970" d="M37.9163,-220.4774C60.8736,-206.8947 106.5722,-181.0766 148.0073,-165 271.1886,-117.2064 425.7213,-83.3393 489.9102,-70.3576"/>
<polygon fill="#191970" stroke="#191970" points="490.6506,-73.7789 499.7695,-68.3849 489.2771,-66.915 490.6506,-73.7789"/>
</g>
<!-- Node5 -->
<g id="node6" class="node">
<title>Node5</title>
<g id="a_node6"><a xlink:href="partner_8h.html" target="_top" xlink:title="partner.h">
<polygon fill="none" stroke="#000000" points="280.2686,-165.5 280.2686,-183.5 335.7461,-183.5 335.7461,-165.5 280.2686,-165.5"/>
<text text-anchor="middle" x="308.0073" y="-171.5" font-family="Helvetica,sans-Serif" font-size="10.00" fill="#000000">partner.h</text>
</a>
</g>
</g>
<!-- Node4&#45;&gt;Node5 -->
<g id="edge6" class="edge">
<title>Node4&#45;&gt;Node5</title>
<path fill="none" stroke="#191970" d="M46.3301,-224.9991C95.4916,-215.5118 210.1446,-193.3858 270.0399,-181.8271"/>
<polygon fill="#191970" stroke="#191970" points="271.0546,-185.1959 280.2102,-179.8644 269.7282,-178.3227 271.0546,-185.1959"/>
</g>
<!-- Node5&#45;&gt;Node2 -->
<g id="edge11" class="edge">
<title>Node5&#45;&gt;Node2</title>
<path fill="none" stroke="#191970" d="M335.8975,-168.336C364.1118,-161.3737 408.3856,-148.4198 443.0073,-129 466.3629,-115.8995 489.4051,-95.3071 504.106,-80.9248"/>
<polygon fill="#191970" stroke="#191970" points="506.7719,-83.2085 511.364,-73.6605 501.82,-78.2608 506.7719,-83.2085"/>
</g>
<!-- Node6 -->
<g id="node7" class="node">
<title>Node6</title>
<g id="a_node7"><a xlink:href="controller_8h.html" target="_top" xlink:title="controller definitions, macros and functions to assist with usig the vex controllers. ">
<polygon fill="none" stroke="#000000" points="369.5469,-110.5 369.5469,-128.5 434.4678,-128.5 434.4678,-110.5 369.5469,-110.5"/>
<text text-anchor="middle" x="402.0073" y="-116.5" font-family="Helvetica,sans-Serif" font-size="10.00" fill="#000000">controller.h</text>
</a>
</g>
</g>
<!-- Node5&#45;&gt;Node6 -->
<g id="edge7" class="edge">
<title>Node5&#45;&gt;Node6</title>
<path fill="none" stroke="#191970" d="M323.5295,-165.4179C338.2248,-156.8195 360.5185,-143.7754 377.594,-133.7844"/>
<polygon fill="#191970" stroke="#191970" points="379.5985,-136.6667 386.4621,-128.5956 376.0634,-130.6249 379.5985,-136.6667"/>
</g>
<!-- Node6&#45;&gt;Node2 -->
<g id="edge10" class="edge">
<title>Node6&#45;&gt;Node2</title>
<path fill="none" stroke="#191970" d="M421.4926,-110.4179C440.5378,-101.5409 469.7495,-87.9253 491.4235,-77.823"/>
<polygon fill="#191970" stroke="#191970" points="492.9079,-80.9927 500.4931,-73.5956 489.9506,-74.648 492.9079,-80.9927"/>
</g>
<!-- Node7 -->
<g id="node8" class="node">
<title>Node7</title>
<g id="a_node8"><a xlink:href="vmath_8h.html" target="_top" xlink:title="Vex Specific Math Functions, includes: Cartesian to polar cordinates. ">
<polygon fill="none" stroke="#000000" points="394.2217,-55.5 394.2217,-73.5 445.793,-73.5 445.793,-55.5 394.2217,-55.5"/>
<text text-anchor="middle" x="420.0073" y="-61.5" font-family="Helvetica,sans-Serif" font-size="10.00" fill="#000000">vmath.h</text>
</a>
</g>
</g>
<!-- Node6&#45;&gt;Node7 -->
<g id="edge8" class="edge">
<title>Node6&#45;&gt;Node7</title>
<path fill="none" stroke="#191970" d="M404.9797,-110.4179C407.3624,-103.1372 410.7884,-92.669 413.7676,-83.5659"/>
<polygon fill="#191970" stroke="#191970" points="417.1863,-84.3721 416.9704,-73.7795 410.5336,-82.1948 417.1863,-84.3721"/>
</g>
<!-- Node8 -->
<g id="node9" class="node">
<title>Node8</title>
<polygon fill="none" stroke="#bfbfbf" points="584.7217,-.5 584.7217,-18.5 631.293,-18.5 631.293,-.5 584.7217,-.5"/>
<text text-anchor="middle" x="608.0073" y="-6.5" font-family="Helvetica,sans-Serif" font-size="10.00" fill="#000000">math.h</text>
</g>
<!-- Node7&#45;&gt;Node8 -->
<g id="edge9" class="edge">
<title>Node7&#45;&gt;Node8</title>
<path fill="none" stroke="#191970" d="M446.1479,-56.8525C479.7169,-47.0318 538.0091,-29.9782 574.7162,-19.2394"/>
<polygon fill="#191970" stroke="#191970" points="575.8436,-22.5564 584.4586,-16.3893 573.8781,-15.838 575.8436,-22.5564"/>
</g>
<!-- Node14&#45;&gt;Node2 -->
<g id="edge18" class="edge">
<title>Node14&#45;&gt;Node2</title>
<path fill="none" stroke="#191970" d="M182.2725,-275.345C196.4562,-266.2147 218.8098,-251.7508 238.0073,-239 250.5349,-230.6793 252.8666,-227.3141 266.0073,-220 352.7539,-171.7172 391.9127,-190.2979 470.0073,-129 486.4883,-116.0638 500.6125,-96.5511 509.6035,-82.3759"/>
<polygon fill="#191970" stroke="#191970" points="512.7597,-83.9224 514.9738,-73.5615 506.7818,-80.2802 512.7597,-83.9224"/>
</g>
<!-- Node14&#45;&gt;Node4 -->
<g id="edge31" class="edge">
<title>Node14&#45;&gt;Node4</title>
<path fill="none" stroke="#191970" d="M146.6121,-276.3846C122.7572,-267.3362 83.8836,-252.591 56.1005,-242.0526"/>
<polygon fill="#191970" stroke="#191970" points="57.0061,-238.6528 46.4148,-238.3787 54.5235,-245.1978 57.0061,-238.6528"/>
</g>
<!-- Node14&#45;&gt;Node5 -->
<g id="edge30" class="edge">
<title>Node14&#45;&gt;Node5</title>
<path fill="none" stroke="#191970" d="M177.0731,-275.211C190.0097,-262.1795 214.7779,-238.0453 238.0073,-220 252.5157,-208.7294 269.8173,-197.4655 283.5895,-188.9644"/>
<polygon fill="#191970" stroke="#191970" points="285.7583,-191.7419 292.4826,-183.5544 282.1202,-185.7615 285.7583,-191.7419"/>
</g>
<!-- Node14&#45;&gt;Node6 -->
<g id="edge28" class="edge">
<title>Node14&#45;&gt;Node6</title>
<path fill="none" stroke="#191970" d="M146.3592,-277.0737C118.3197,-266.2552 75.0428,-244.7336 93.0073,-220 124.8136,-176.209 282.543,-141.6016 359.5547,-127.0136"/>
<polygon fill="#191970" stroke="#191970" points="360.2335,-130.4475 369.4208,-125.1708 358.9482,-123.5665 360.2335,-130.4475"/>
</g>
<!-- Node14&#45;&gt;Node13 -->
<g id="edge20" class="edge">
<title>Node14&#45;&gt;Node13</title>
<path fill="none" stroke="#191970" d="M189.6124,-277.5697C192.4323,-276.6912 195.2859,-275.8152 198.0073,-275 237.9747,-263.0275 283.7784,-250.1657 316.2861,-241.1819"/>
<polygon fill="#191970" stroke="#191970" points="317.2169,-244.556 325.9267,-238.5236 315.3561,-237.8078 317.2169,-244.556"/>
</g>
<!-- Node15 -->
<g id="node16" class="node">
<title>Node15</title>
<g id="a_node16"><a xlink:href="motor__ports_8h.html" target="_top" xlink:title="The motor port definitionsMacros for the different motors ports. ">
<polygon fill="none" stroke="#000000" points="418.1602,-220.5 418.1602,-238.5 495.8545,-238.5 495.8545,-220.5 418.1602,-220.5"/>
<text text-anchor="middle" x="457.0073" y="-226.5" font-family="Helvetica,sans-Serif" font-size="10.00" fill="#000000">motor_ports.h</text>
</a>
</g>
</g>
<!-- Node14&#45;&gt;Node15 -->
<g id="edge19" class="edge">
<title>Node14&#45;&gt;Node15</title>
<path fill="none" stroke="#191970" d="M189.5372,-277.2917C192.3693,-276.4587 195.2464,-275.6693 198.0073,-275 287.3925,-253.3312 313.7153,-256.0229 408.0281,-239.1237"/>
<polygon fill="#191970" stroke="#191970" points="408.7789,-242.5446 417.9911,-237.3114 407.5261,-235.6576 408.7789,-242.5446"/>
</g>
<!-- Node16 -->
<g id="node17" class="node">
<title>Node16</title>
<g id="a_node17"><a xlink:href="slew_8h.html" target="_top" xlink:title="Contains the slew rate controller wrapper for the motors. ">
<polygon fill="none" stroke="#000000" points="566.1084,-165.5 566.1084,-183.5 609.9063,-183.5 609.9063,-165.5 566.1084,-165.5"/>
<text text-anchor="middle" x="588.0073" y="-171.5" font-family="Helvetica,sans-Serif" font-size="10.00" fill="#000000">slew.h</text>
</a>
</g>
</g>
<!-- Node14&#45;&gt;Node16 -->
<g id="edge21" class="edge">
<title>Node14&#45;&gt;Node16</title>
<path fill="none" stroke="#191970" d="M187.4259,-275.451C224.6076,-258.1475 302.7461,-221.9049 309.0073,-220 354.7236,-206.0912 492.3282,-187.0148 555.5727,-178.6807"/>
<polygon fill="#191970" stroke="#191970" points="556.3094,-182.1142 565.7702,-177.3452 555.4004,-175.1735 556.3094,-182.1142"/>
</g>
<!-- Node19 -->
<g id="node20" class="node">
<title>Node19</title>
<g id="a_node20"><a xlink:href="potentiometer_8h.html" target="_top" xlink:title="potentiometer.h">
<polygon fill="none" stroke="#000000" points="101.5371,-220.5 101.5371,-238.5 186.4775,-238.5 186.4775,-220.5 101.5371,-220.5"/>
<text text-anchor="middle" x="144.0073" y="-226.5" font-family="Helvetica,sans-Serif" font-size="10.00" fill="#000000">potentiometer.h</text>
</a>
</g>
</g>
<!-- Node14&#45;&gt;Node19 -->
<g id="edge29" class="edge">
<title>Node14&#45;&gt;Node19</title>
<path fill="none" stroke="#191970" d="M164.0442,-275.4179C160.7981,-267.9789 156.1,-257.2123 152.0688,-247.9742"/>
<polygon fill="#191970" stroke="#191970" points="155.2639,-246.545 148.0565,-238.7795 148.8482,-249.3447 155.2639,-246.545"/>
</g>
<!-- Node16&#45;&gt;Node2 -->
<g id="edge22" class="edge">
<title>Node16&#45;&gt;Node2</title>
<path fill="none" stroke="#191970" d="M583.1757,-165.1391C576.5281,-152.4306 564.0155,-129.1108 552.0073,-110 546.0456,-100.5121 538.9143,-90.2777 532.8984,-81.9227"/>
<polygon fill="#191970" stroke="#191970" points="535.636,-79.7366 526.9163,-73.7184 529.9799,-83.8607 535.636,-79.7366"/>
</g>
<!-- Node16&#45;&gt;Node8 -->
<g id="edge23" class="edge">
<title>Node16&#45;&gt;Node8</title>
<path fill="none" stroke="#191970" d="M610.0578,-171.6251C634.441,-167.1539 672.6926,-156.0257 691.0073,-129 709.4646,-101.764 709.9132,-83.2252 693.0073,-55 681.78,-36.2553 659.9013,-24.7964 641.1531,-18.0669"/>
<polygon fill="#191970" stroke="#191970" points="642.0208,-14.6682 631.4281,-14.882 639.8421,-21.3205 642.0208,-14.6682"/>
</g>
<!-- Node17 -->
<g id="node18" class="node">
<title>Node17</title>
<g id="a_node18"><a xlink:href="vlib_8h.html" target="_top" xlink:title="Contains misc helpful functions. ">
<polygon fill="none" stroke="#000000" points="642.335,-110.5 642.335,-128.5 681.6797,-128.5 681.6797,-110.5 642.335,-110.5"/>
<text text-anchor="middle" x="662.0073" y="-116.5" font-family="Helvetica,sans-Serif" font-size="10.00" fill="#000000">vlib.h</text>
</a>
</g>
</g>
<!-- Node16&#45;&gt;Node17 -->
<g id="edge24" class="edge">
<title>Node16&#45;&gt;Node17</title>
<path fill="none" stroke="#191970" d="M600.2269,-165.4179C611.4742,-157.0584 628.3755,-144.4966 641.6588,-134.6239"/>
<polygon fill="#191970" stroke="#191970" points="643.8314,-137.37 649.7696,-128.5956 639.6558,-131.7518 643.8314,-137.37"/>
</g>
<!-- Node17&#45;&gt;Node2 -->
<g id="edge26" class="edge">
<title>Node17&#45;&gt;Node2</title>
<path fill="none" stroke="#191970" d="M642.2628,-111.8525C618.3721,-102.599 577.9025,-86.9242 550.1137,-76.1609"/>
<polygon fill="#191970" stroke="#191970" points="551.0928,-72.7868 540.5037,-72.4387 548.5645,-79.3143 551.0928,-72.7868"/>
</g>
<!-- Node17&#45;&gt;Node8 -->
<g id="edge25" class="edge">
<title>Node17&#45;&gt;Node8</title>
<path fill="none" stroke="#191970" d="M653.3879,-110.4374C645.5167,-101.719 634.0634,-87.8536 627.0073,-74 619.6396,-59.5345 614.6699,-41.7521 611.6669,-28.5247"/>
<polygon fill="#191970" stroke="#191970" points="615.0758,-27.7266 609.5976,-18.6579 608.2248,-29.1635 615.0758,-27.7266"/>
</g>
<!-- Node18 -->
<g id="node19" class="node">
<title>Node18</title>
<polygon fill="none" stroke="#bfbfbf" points="635.6108,-55.5 635.6108,-73.5 684.4038,-73.5 684.4038,-55.5 635.6108,-55.5"/>
<text text-anchor="middle" x="660.0073" y="-61.5" font-family="Helvetica,sans-Serif" font-size="10.00" fill="#000000">string.h</text>
</g>
<!-- Node17&#45;&gt;Node18 -->
<g id="edge27" class="edge">
<title>Node17&#45;&gt;Node18</title>
<path fill="none" stroke="#191970" d="M661.6771,-110.4179C661.4152,-103.2164 661.0399,-92.8962 660.7114,-83.8632"/>
<polygon fill="#191970" stroke="#191970" points="664.2059,-83.6456 660.3448,-73.7795 657.2106,-83.9001 664.2059,-83.6456"/>
</g>
<!-- Node20&#45;&gt;Node2 -->
<g id="edge34" class="edge">
<title>Node20&#45;&gt;Node2</title>
<path fill="none" stroke="#191970" d="M542.0483,-275.327C538.5998,-242.3409 526.7816,-129.2972 522.0197,-83.7484"/>
<polygon fill="#191970" stroke="#191970" points="525.4913,-83.294 520.9704,-73.7122 518.5293,-84.0219 525.4913,-83.294"/>
</g>
<!-- Node20&#45;&gt;Node6 -->
<g id="edge35" class="edge">
<title>Node20&#45;&gt;Node6</title>
<path fill="none" stroke="#191970" d="M538.5498,-275.2553C532.0782,-262.2763 519.2833,-238.2042 505.0073,-220 479.1471,-187.0241 442.9565,-154.1157 421.0746,-135.3429"/>
<polygon fill="#191970" stroke="#191970" points="423.0662,-132.4429 413.1746,-128.6472 418.5402,-137.7829 423.0662,-132.4429"/>
</g>
<!-- Node20&#45;&gt;Node13 -->
<g id="edge37" class="edge">
<title>Node20&#45;&gt;Node13</title>
<path fill="none" stroke="#191970" d="M520.8126,-277.8657C490.7578,-268.8819 436.5915,-252.6909 399.2648,-241.5335"/>
<polygon fill="#191970" stroke="#191970" points="399.8008,-238.0408 389.2173,-238.5302 397.796,-244.7475 399.8008,-238.0408"/>
</g>
<!-- Node20&#45;&gt;Node15 -->
<g id="edge36" class="edge">
<title>Node20&#45;&gt;Node15</title>
<path fill="none" stroke="#191970" d="M528.8062,-275.4179C515.486,-266.8992 495.3423,-254.0166 479.7781,-244.0627"/>
<polygon fill="#191970" stroke="#191970" points="481.5398,-241.0348 471.2296,-238.5956 477.7684,-246.932 481.5398,-241.0348"/>
</g>
<!-- Node20&#45;&gt;Node16 -->
<g id="edge33" class="edge">
<title>Node20&#45;&gt;Node16</title>
<path fill="none" stroke="#191970" d="M551.4293,-275.4985C559.0594,-266.8232 569.9992,-252.987 576.0073,-239 582.1962,-224.5921 585.1991,-207.0268 586.6528,-193.867"/>
<polygon fill="#191970" stroke="#191970" points="590.1639,-193.8996 587.5727,-183.6266 583.1919,-193.2733 590.1639,-193.8996"/>
</g>
</g>
</svg>
        <g id="navigator" transform="translate(0 0)" fill="#404254">
                <rect fill="#f2f5e9" fill-opacity="0.5" stroke="#606060" stroke-width=".5" x="0" y="0" width="60" height="60"/>
                <use id="zoomplus" xlink:href="#zoomPlus" x="17" y="9" onmousedown="handleZoom(evt,'in')"/>
                <use id="zoomminus" xlink:href="#zoomMin" x="42" y="9" onmousedown="handleZoom(evt,'out')"/>
                <use id="reset" xlink:href="#resetDef" x="30" y="36" onmousedown="handleReset()"/>
                <g id="arrowUp" xlink:href="#dirArrow" transform="translate(30 24)" onmousedown="handlePan(0,-1)">
                  <use xlink:href="#rim" fill="#404040">
                        <set attributeName="fill" to="#808080" begin="arrowUp.mouseover" end="arrowUp.mouseout"/>
                  </use>
                  <path fill="none" stroke="white" stroke-width="1.5" d="M0,-3.0v7 M-2.5,-0.5L0,-3.0L2.5,-0.5"/>
                </g>
                <g id="arrowRight" xlink:href="#dirArrow" transform="rotate(90) translate(36 -43)" onmousedown="handlePan(1,0)">
                  <use xlink:href="#rim" fill="#404040">
                        <set attributeName="fill" to="#808080" begin="arrowRight.mouseover" end="arrowRight.mouseout"/>
                  </use>
                  <path fill="none" stroke="white" stroke-width="1.5" d="M0,-3.0v7 M-2.5,-0.5L0,-3.0L2.5,-0.5"/>
                </g>
                <g id="arrowDown" xlink:href="#dirArrow" transform="rotate(180) translate(-30 -48)" onmousedown="handlePan(0,1)">
                  <use xlink:href="#rim" fill="#404040">
                        <set attributeName="fill" to="#808080" begin="arrowDown.mouseover" end="arrowDown.mouseout"/>
                  </use>
                  <path fill="none" stroke="white" stroke-width="1.5" d="M0,-3.0v7 M-2.5,-0.5L0,-3.0L2.5,-0.5"/>
                </g>
                <g id="arrowLeft" xlink:href="#dirArrow" transform="rotate(270) translate(-36 17)" onmousedown="handlePan(-1,0)">
                  <use xlink:href="#rim" fill="#404040">
                        <set attributeName="fill" to="#808080" begin="arrowLeft.mouseover" end="arrowLeft.mouseout"/>
                  </use>
                  <path fill="none" stroke="white" stroke-width="1.5" d="M0,-3.0v7 M-2.5,-0.5L0,-3.0L2.5,-0.5"/>
                </g>
        </g>
        <svg viewBox="0 0 15 15" width="100%" height="30px" preserveAspectRatio="xMaxYMin meet">
         <g id="arrow_out" transform="scale(0.3 0.3)">
          <a xlink:href="auto_8c__incl_org.svg" target="_base">
           <rect id="button" ry="5" rx="5" y="6" x="6" height="38" width="38"
                fill="#f2f5e9" fill-opacity="0.5" stroke="#606060" stroke-width="1.0"/>
           <path id="arrow"
             d="M 11.500037,31.436501 C 11.940474,20.09759 22.043105,11.32322 32.158766,21.979434 L 37.068811,17.246167 C 37.068811,17.246167 37.088388,32 37.088388,32 L 22.160133,31.978069 C 22.160133,31.978069 26.997745,27.140456 26.997745,27.140456 C 18.528582,18.264221 13.291696,25.230495 11.500037,31.436501 z"
             style="fill:#404040;"/>
          </a>
         </g>
        </svg>
</svg>
