<?xml version="1.0" encoding="UTF-8" standalone="no"?>
<!DOCTYPE svg PUBLIC "-//W3C//DTD SVG 1.1//EN"
 "http://www.w3.org/Graphics/SVG/1.1/DTD/svg11.dtd">
<!-- Generated by graphviz version 2.40.1 (20161225.0304)
 -->
<!-- Title: deploy_seoncdary_lifter Pages: 1 -->
<svg width="843pt" height="316pt"
 viewBox="0.00 0.00 843.49 316.00" xmlns="http://www.w3.org/2000/svg" xmlns:xlink="http://www.w3.org/1999/xlink">
<g id="graph0" class="graph" transform="scale(1 1) rotate(0) translate(4 312)">
<title>deploy_seoncdary_lifter</title>
<!-- Node130 -->
<g id="node1" class="node">
<title>Node130</title>
<polygon fill="#bfbfbf" stroke="#000000" points="0,-124.5 0,-142.5 121.6201,-142.5 121.6201,-124.5 0,-124.5"/>
<text text-anchor="middle" x="60.8101" y="-130.5" font-family="Helvetica,sans-Serif" font-size="10.00" fill="#000000">deploy_seoncdary_lifter</text>
</g>
<!-- Node131 -->
<g id="node2" class="node">
<title>Node131</title>
<g id="a_node2"><a xlink:href="_a_p_i_8h.html#a5da86064604c539c2b6a5e2993289108" target="_top" xlink:title="Reads an analog input channel and returns the 12&#45;bit value. ">
<polygon fill="none" stroke="#000000" points="175.3984,-145.5 175.3984,-163.5 245.334,-163.5 245.334,-145.5 175.3984,-145.5"/>
<text text-anchor="middle" x="210.3662" y="-151.5" font-family="Helvetica,sans-Serif" font-size="10.00" fill="#000000">analogRead</text>
</a>
</g>
</g>
<!-- Node130&#45;&gt;Node131 -->
<g id="edge1" class="edge">
<title>Node130&#45;&gt;Node131</title>
<path fill="none" stroke="#191970" d="M121.6403,-142.0415C136.2045,-144.0865 151.5005,-146.2343 165.2115,-148.1596"/>
<polygon fill="#191970" stroke="#191970" points="164.9596,-151.6585 175.3492,-149.5831 165.933,-144.7265 164.9596,-151.6585"/>
</g>
<!-- Node132 -->
<g id="node3" class="node">
<title>Node132</title>
<g id="a_node3"><a xlink:href="lifter_8h.html#a78640d547d9361951a92d0bc00939536" target="_top" xlink:title="Sets the secondary lifter motors to the given value. ">
<polygon fill="none" stroke="#000000" points="157.6201,-98.5 157.6201,-126.5 263.1123,-126.5 263.1123,-98.5 157.6201,-98.5"/>
<text text-anchor="start" x="165.6201" y="-114.5" font-family="Helvetica,sans-Serif" font-size="10.00" fill="#000000">set_secondary_lifter</text>
<text text-anchor="middle" x="210.3662" y="-104.5" font-family="Helvetica,sans-Serif" font-size="10.00" fill="#000000">_motors</text>
</a>
</g>
</g>
<!-- Node130&#45;&gt;Node132 -->
<g id="edge2" class="edge">
<title>Node130&#45;&gt;Node132</title>
<path fill="none" stroke="#191970" d="M121.6403,-124.9585C130.0343,-123.7798 138.6715,-122.5671 147.1082,-121.3824"/>
<polygon fill="#191970" stroke="#191970" points="147.8537,-124.8121 157.2699,-119.9555 146.8803,-117.8801 147.8537,-124.8121"/>
</g>
<!-- Node133 -->
<g id="node4" class="node">
<title>Node133</title>
<g id="a_node4"><a xlink:href="slew_8h.html#a9f8b8ae577ef938622024545711f0151" target="_top" xlink:title="Sets the motor speed ignoring the slew controller. ">
<polygon fill="none" stroke="#000000" points="299.1123,-103.5 299.1123,-121.5 411.2646,-121.5 411.2646,-103.5 299.1123,-103.5"/>
<text text-anchor="middle" x="355.1885" y="-109.5" font-family="Helvetica,sans-Serif" font-size="10.00" fill="#000000">set_motor_immediate</text>
</a>
</g>
</g>
<!-- Node132&#45;&gt;Node133 -->
<g id="edge3" class="edge">
<title>Node132&#45;&gt;Node133</title>
<path fill="none" stroke="#191970" d="M263.4703,-112.5C271.62,-112.5 280.1216,-112.5 288.5196,-112.5"/>
<polygon fill="#191970" stroke="#191970" points="288.6812,-116.0001 298.6812,-112.5 288.6812,-109.0001 288.6812,-116.0001"/>
</g>
<!-- Node134 -->
<g id="node5" class="node">
<title>Node134</title>
<g id="a_node5"><a xlink:href="log_8h.html#af3668f40d1ad1b4f3418869ac9a31f34" target="_top" xlink:title="prints a info message ">
<polygon fill="none" stroke="#000000" points="452.5356,-243.5 452.5356,-261.5 496.3433,-261.5 496.3433,-243.5 452.5356,-243.5"/>
<text text-anchor="middle" x="474.4395" y="-249.5" font-family="Helvetica,sans-Serif" font-size="10.00" fill="#000000">debug</text>
</a>
</g>
</g>
<!-- Node133&#45;&gt;Node134 -->
<g id="edge4" class="edge">
<title>Node133&#45;&gt;Node134</title>
<path fill="none" stroke="#191970" d="M363.0129,-121.6858C382.7263,-144.8292 434.6657,-205.8059 460.0552,-235.6129"/>
<polygon fill="#191970" stroke="#191970" points="457.5924,-238.1193 466.7413,-243.4624 462.9213,-233.5802 457.5924,-238.1193"/>
</g>
<!-- Node136 -->
<g id="node7" class="node">
<title>Node136</title>
<g id="a_node7"><a xlink:href="slew_8c.html#a321758941d88b75783955c819bb75005" target="_top" xlink:title="Initializes the slew rate controller. ">
<polygon fill="none" stroke="#000000" points="447.2646,-159.5 447.2646,-177.5 501.6143,-177.5 501.6143,-159.5 447.2646,-159.5"/>
<text text-anchor="middle" x="474.4395" y="-165.5" font-family="Helvetica,sans-Serif" font-size="10.00" fill="#000000">init_slew</text>
</a>
</g>
</g>
<!-- Node133&#45;&gt;Node136 -->
<g id="edge6" class="edge">
<title>Node133&#45;&gt;Node136</title>
<path fill="none" stroke="#191970" d="M374.6136,-121.622C393.9305,-130.6932 423.7843,-144.7124 445.8154,-155.0582"/>
<polygon fill="#191970" stroke="#191970" points="444.4832,-158.2993 455.0226,-159.3819 447.4587,-151.9631 444.4832,-158.2993"/>
</g>
<!-- Node146 -->
<g id="node17" class="node">
<title>Node146</title>
<g id="a_node17"><a xlink:href="_a_p_i_8h.html#a8b51124628d2a7741738d48551d1e8ee" target="_top" xlink:title="Requests a mutex so that other tasks cannot simultaneously use the resource it guards. ">
<polygon fill="none" stroke="#000000" points="650.7617,-84.5 650.7617,-102.5 715.1162,-102.5 715.1162,-84.5 650.7617,-84.5"/>
<text text-anchor="middle" x="682.939" y="-90.5" font-family="Helvetica,sans-Serif" font-size="10.00" fill="#000000">mutexTake</text>
</a>
</g>
</g>
<!-- Node133&#45;&gt;Node146 -->
<g id="edge22" class="edge">
<title>Node133&#45;&gt;Node146</title>
<path fill="none" stroke="#191970" d="M411.5308,-109.2338C476.6229,-105.4603 582.2406,-99.3376 640.677,-95.95"/>
<polygon fill="#191970" stroke="#191970" points="640.8929,-99.4434 650.6735,-95.3705 640.4877,-92.4552 640.8929,-99.4434"/>
</g>
<!-- Node147 -->
<g id="node18" class="node">
<title>Node147</title>
<g id="a_node18"><a xlink:href="_a_p_i_8h.html#afe171a08d22de18fc2ab604b2364959f" target="_top" xlink:title="Relinquishes a mutex so that other tasks can use the resource it guards. ">
<polygon fill="none" stroke="#000000" points="651.0425,-37.5 651.0425,-55.5 714.8354,-55.5 714.8354,-37.5 651.0425,-37.5"/>
<text text-anchor="middle" x="682.939" y="-43.5" font-family="Helvetica,sans-Serif" font-size="10.00" fill="#000000">mutexGive</text>
</a>
</g>
</g>
<!-- Node133&#45;&gt;Node147 -->
<g id="edge21" class="edge">
<title>Node133&#45;&gt;Node147</title>
<path fill="none" stroke="#191970" d="M378.373,-103.4974C412.6113,-90.6385 478.9794,-67.3681 537.6143,-56.5 571.9411,-50.1374 611.5051,-47.729 640.6763,-46.8603"/>
<polygon fill="#191970" stroke="#191970" points="641.0145,-50.3531 650.9244,-46.6055 640.8405,-43.3552 641.0145,-50.3531"/>
</g>
<!-- Node148 -->
<g id="node19" class="node">
<title>Node148</title>
<g id="a_node19"><a xlink:href="_a_p_i_8h.html#a03c5b04b472d024281f62d7af8854a8e" target="_top" xlink:title="Sets the speed of the specified motor channel. ">
<polygon fill="none" stroke="#000000" points="654.6533,-.5 654.6533,-18.5 711.2246,-18.5 711.2246,-.5 654.6533,-.5"/>
<text text-anchor="middle" x="682.939" y="-6.5" font-family="Helvetica,sans-Serif" font-size="10.00" fill="#000000">motorSet</text>
</a>
</g>
</g>
<!-- Node133&#45;&gt;Node148 -->
<g id="edge20" class="edge">
<title>Node133&#45;&gt;Node148</title>
<path fill="none" stroke="#191970" d="M367.9559,-103.4062C385.1621,-91.5708 417.1209,-71.0419 447.2646,-59.5 514.0832,-33.9154 596.8343,-20.1973 644.3902,-13.9107"/>
<polygon fill="#191970" stroke="#191970" points="645.0794,-17.3512 654.5542,-12.61 644.1907,-10.4078 645.0794,-17.3512"/>
</g>
<!-- Node135 -->
<g id="node6" class="node">
<title>Node135</title>
<g id="a_node6"><a xlink:href="_a_p_i_8h.html#a403c82418e475fa4a8273719e6a7f3e6" target="_top" xlink:title="Prints the formatted string to the debug stream (the PC terminal). ">
<polygon fill="none" stroke="#000000" points="774.1851,-289.5 774.1851,-307.5 812.4165,-307.5 812.4165,-289.5 774.1851,-289.5"/>
<text text-anchor="middle" x="793.3008" y="-295.5" font-family="Helvetica,sans-Serif" font-size="10.00" fill="#000000">printf</text>
</a>
</g>
</g>
<!-- Node134&#45;&gt;Node135 -->
<g id="edge5" class="edge">
<title>Node134&#45;&gt;Node135</title>
<path fill="none" stroke="#191970" d="M490.7685,-261.6303C503.2046,-268.1082 520.9659,-276.3598 537.6143,-280.5 617.7098,-300.4185 715.9574,-300.9233 764.0121,-299.6896"/>
<polygon fill="#191970" stroke="#191970" points="764.1346,-303.1876 774.0244,-299.3875 763.9234,-296.1908 764.1346,-303.1876"/>
</g>
<!-- Node137 -->
<g id="node8" class="node">
<title>Node137</title>
<g id="a_node8"><a xlink:href="log_8h.html#a0bec2cf5fff7f607bc510b74aba9887c" target="_top" xlink:title="prints a warning message and displays on lcd. ">
<polygon fill="none" stroke="#000000" points="550.6782,-215.5 550.6782,-233.5 601.6978,-233.5 601.6978,-215.5 550.6782,-215.5"/>
<text text-anchor="middle" x="576.188" y="-221.5" font-family="Helvetica,sans-Serif" font-size="10.00" fill="#000000">warning</text>
</a>
</g>
</g>
<!-- Node136&#45;&gt;Node137 -->
<g id="edge7" class="edge">
<title>Node136&#45;&gt;Node137</title>
<path fill="none" stroke="#191970" d="M488.7439,-177.6936C501.3888,-185.6774 520.4402,-197.3602 537.6143,-206.5 540.4847,-208.0276 543.5079,-209.5619 546.5467,-211.0553"/>
<polygon fill="#191970" stroke="#191970" points="545.0398,-214.2143 555.5719,-215.3659 548.0567,-207.8978 545.0398,-214.2143"/>
</g>
<!-- Node142 -->
<g id="node13" class="node">
<title>Node142</title>
<g id="a_node13"><a xlink:href="_a_p_i_8h.html#a8966c541f3e9565aea1289f0d2f2cf43" target="_top" xlink:title="Stops all motors; significantly faster than looping through all motor ports and calling motorSet(chan...">
<polygon fill="none" stroke="#000000" points="539.5649,-178.5 539.5649,-196.5 612.811,-196.5 612.811,-178.5 539.5649,-178.5"/>
<text text-anchor="middle" x="576.188" y="-184.5" font-family="Helvetica,sans-Serif" font-size="10.00" fill="#000000">motorStopAll</text>
</a>
</g>
</g>
<!-- Node136&#45;&gt;Node142 -->
<g id="edge13" class="edge">
<title>Node136&#45;&gt;Node142</title>
<path fill="none" stroke="#191970" d="M501.7062,-173.5917C510.1791,-175.1738 519.7746,-176.9657 529.1919,-178.7242"/>
<polygon fill="#191970" stroke="#191970" points="528.8065,-182.2127 539.2791,-180.6078 530.0915,-175.3316 528.8065,-182.2127"/>
</g>
<!-- Node143 -->
<g id="node14" class="node">
<title>Node143</title>
<g id="a_node14"><a xlink:href="_a_p_i_8h.html#aecd027ce8f8b52a765735e9eb5b202b3" target="_top" xlink:title="Creates a mutex intended to allow only one task to use a resource at a time. ">
<polygon fill="none" stroke="#000000" points="539.5649,-141.5 539.5649,-159.5 612.811,-159.5 612.811,-141.5 539.5649,-141.5"/>
<text text-anchor="middle" x="576.188" y="-147.5" font-family="Helvetica,sans-Serif" font-size="10.00" fill="#000000">mutexCreate</text>
</a>
</g>
</g>
<!-- Node136&#45;&gt;Node143 -->
<g id="edge14" class="edge">
<title>Node136&#45;&gt;Node143</title>
<path fill="none" stroke="#191970" d="M501.7062,-163.6763C510.1791,-162.1774 519.7746,-160.4799 529.1919,-158.8139"/>
<polygon fill="#191970" stroke="#191970" points="530.0417,-162.218 539.2791,-157.0294 528.8223,-155.325 530.0417,-162.218"/>
</g>
<!-- Node144 -->
<g id="node15" class="node">
<title>Node144</title>
<g id="a_node15"><a xlink:href="_a_p_i_8h.html#ab05a241d6d1fd98b1ceb4665db678156" target="_top" xlink:title="Starts a task which will periodically call the specified function. ">
<polygon fill="none" stroke="#000000" points="538.7227,-252.5 538.7227,-270.5 613.6533,-270.5 613.6533,-252.5 538.7227,-252.5"/>
<text text-anchor="middle" x="576.188" y="-258.5" font-family="Helvetica,sans-Serif" font-size="10.00" fill="#000000">taskRunLoop</text>
</a>
</g>
</g>
<!-- Node136&#45;&gt;Node144 -->
<g id="edge15" class="edge">
<title>Node136&#45;&gt;Node144</title>
<path fill="none" stroke="#191970" d="M480.3882,-177.9368C490.5175,-193.3771 512.4766,-224.2435 537.6143,-243.5 539.4256,-244.8875 541.361,-246.2022 543.3644,-247.4414"/>
<polygon fill="#191970" stroke="#191970" points="541.9539,-250.6591 552.4075,-252.383 545.3106,-244.5164 541.9539,-250.6591"/>
</g>
<!-- Node145 -->
<g id="node16" class="node">
<title>Node145</title>
<g id="a_node16"><a xlink:href="slew_8c.html#a807a87c5df438fde21c1e8213906695b" target="_top" xlink:title="Closes the distance between the desired motor value and the current motor value by half for each moto...">
<polygon fill="none" stroke="#000000" points="537.6143,-65.5 537.6143,-83.5 614.7617,-83.5 614.7617,-65.5 537.6143,-65.5"/>
<text text-anchor="middle" x="576.188" y="-71.5" font-family="Helvetica,sans-Serif" font-size="10.00" fill="#000000">updateMotors</text>
</a>
</g>
</g>
<!-- Node136&#45;&gt;Node145 -->
<g id="edge16" class="edge">
<title>Node136&#45;&gt;Node145</title>
<path fill="none" stroke="#191970" d="M484.1955,-159.4869C501.3966,-143.5957 537.3289,-110.3998 558.842,-90.525"/>
<polygon fill="#191970" stroke="#191970" points="561.3418,-92.9807 566.3119,-83.6239 556.5916,-87.839 561.3418,-92.9807"/>
</g>
<!-- Node138 -->
<g id="node9" class="node">
<title>Node138</title>
<g id="a_node9"><a xlink:href="log_8c.html#afff22aff6749311a684a559cac3ac8bd" target="_top" xlink:title="prints a log info message to the lcd ">
<polygon fill="none" stroke="#000000" points="657.4243,-215.5 657.4243,-233.5 708.4536,-233.5 708.4536,-215.5 657.4243,-215.5"/>
<text text-anchor="middle" x="682.939" y="-221.5" font-family="Helvetica,sans-Serif" font-size="10.00" fill="#000000">log_info</text>
</a>
</g>
</g>
<!-- Node137&#45;&gt;Node138 -->
<g id="edge8" class="edge">
<title>Node137&#45;&gt;Node138</title>
<path fill="none" stroke="#191970" d="M601.7575,-224.5C615.2582,-224.5 632.0518,-224.5 646.8557,-224.5"/>
<polygon fill="#191970" stroke="#191970" points="647.2081,-228.0001 657.2081,-224.5 647.2081,-221.0001 647.2081,-228.0001"/>
</g>
<!-- Node138&#45;&gt;Node135 -->
<g id="edge9" class="edge">
<title>Node138&#45;&gt;Node135</title>
<path fill="none" stroke="#191970" d="M692.4297,-233.7998C705.0238,-245.7709 728.3318,-266.6722 751.1162,-280.5 755.3196,-283.051 759.9495,-285.4186 764.5557,-287.5429"/>
<polygon fill="#191970" stroke="#191970" points="763.2644,-290.7976 773.833,-291.5424 766.0356,-284.3695 763.2644,-290.7976"/>
</g>
<!-- Node139 -->
<g id="node10" class="node">
<title>Node139</title>
<g id="a_node10"><a xlink:href="_a_p_i_8h.html#aab53a247d88151a6623c20fa1ea940b0" target="_top" xlink:title="Sets the specified LCD backlight to be on or off. ">
<polygon fill="none" stroke="#000000" points="751.1162,-252.5 751.1162,-270.5 835.4854,-270.5 835.4854,-252.5 751.1162,-252.5"/>
<text text-anchor="middle" x="793.3008" y="-258.5" font-family="Helvetica,sans-Serif" font-size="10.00" fill="#000000">lcdSetBacklight</text>
</a>
</g>
</g>
<!-- Node138&#45;&gt;Node139 -->
<g id="edge10" class="edge">
<title>Node138&#45;&gt;Node139</title>
<path fill="none" stroke="#191970" d="M708.5356,-233.0815C722.8785,-237.8902 741.0076,-243.9681 756.8153,-249.2678"/>
<polygon fill="#191970" stroke="#191970" points="755.7093,-252.5885 766.3032,-252.4488 757.9345,-245.9515 755.7093,-252.5885"/>
</g>
<!-- Node140 -->
<g id="node11" class="node">
<title>Node140</title>
<g id="a_node11"><a xlink:href="_a_p_i_8h.html#a5fa1d119fe3e836b5519f97eae7a1272" target="_top" xlink:title="Clears the LCD screen on the specified port. ">
<polygon fill="none" stroke="#000000" points="766.9609,-215.5 766.9609,-233.5 819.6406,-233.5 819.6406,-215.5 766.9609,-215.5"/>
<text text-anchor="middle" x="793.3008" y="-221.5" font-family="Helvetica,sans-Serif" font-size="10.00" fill="#000000">lcdClear</text>
</a>
</g>
</g>
<!-- Node138&#45;&gt;Node140 -->
<g id="edge11" class="edge">
<title>Node138&#45;&gt;Node140</title>
<path fill="none" stroke="#191970" d="M708.5356,-224.5C722.7114,-224.5 740.5855,-224.5 756.2617,-224.5"/>
<polygon fill="#191970" stroke="#191970" points="756.6908,-228.0001 766.6908,-224.5 756.6908,-221.0001 756.6908,-228.0001"/>
</g>
<!-- Node141 -->
<g id="node12" class="node">
<title>Node141</title>
<g id="a_node12"><a xlink:href="_a_p_i_8h.html#a6cfad8271c6a566a2f51ca318f819a80" target="_top" xlink:title="Prints the formatted string to the attached LCD. ">
<polygon fill="none" stroke="#000000" points="768.6284,-178.5 768.6284,-196.5 817.9731,-196.5 817.9731,-178.5 768.6284,-178.5"/>
<text text-anchor="middle" x="793.3008" y="-184.5" font-family="Helvetica,sans-Serif" font-size="10.00" fill="#000000">lcdPrint</text>
</a>
</g>
</g>
<!-- Node138&#45;&gt;Node141 -->
<g id="edge12" class="edge">
<title>Node138&#45;&gt;Node141</title>
<path fill="none" stroke="#191970" d="M708.5356,-215.9185C723.5113,-210.8977 742.6145,-204.4931 758.8934,-199.0355"/>
<polygon fill="#191970" stroke="#191970" points="760.2334,-202.2777 768.6021,-195.7805 758.0082,-195.6408 760.2334,-202.2777"/>
</g>
<!-- Node145&#45;&gt;Node146 -->
<g id="edge17" class="edge">
<title>Node145&#45;&gt;Node146</title>
<path fill="none" stroke="#191970" d="M615.0295,-81.4132C623.3365,-82.8917 632.1518,-84.4607 640.5835,-85.9614"/>
<polygon fill="#191970" stroke="#191970" points="640.1596,-89.4409 650.6182,-87.7474 641.3862,-82.5492 640.1596,-89.4409"/>
</g>
<!-- Node145&#45;&gt;Node147 -->
<g id="edge18" class="edge">
<title>Node145&#45;&gt;Node147</title>
<path fill="none" stroke="#191970" d="M610.5523,-65.4865C620.2434,-62.9446 630.8964,-60.1504 640.9792,-57.5057"/>
<polygon fill="#191970" stroke="#191970" points="642.0304,-60.8485 650.8152,-54.9258 640.2544,-54.0775 642.0304,-60.8485"/>
</g>
<!-- Node145&#45;&gt;Node148 -->
<g id="edge19" class="edge">
<title>Node145&#45;&gt;Node148</title>
<path fill="none" stroke="#191970" d="M590.0724,-65.4439C604.9483,-55.8134 629.3176,-40.2437 650.7617,-27.5 652.7736,-26.3044 654.8672,-25.0831 656.9781,-23.8679"/>
<polygon fill="#191970" stroke="#191970" points="659.1665,-26.6509 666.1434,-18.6776 655.717,-20.5598 659.1665,-26.6509"/>
</g>
</g>
</svg>
