<?xml version="1.0" encoding="UTF-8" standalone="no"?>
<!DOCTYPE svg PUBLIC "-//W3C//DTD SVG 1.1//EN"
 "http://www.w3.org/Graphics/SVG/1.1/DTD/svg11.dtd">
<!-- Generated by graphviz version 2.40.1 (20161225.0304)
 -->
<!-- Title: src/auto.c Pages: 1 -->
<!--zoomable 412 -->
<svg id="main" version="1.1" xmlns="http://www.w3.org/2000/svg" xmlns:xlink="http://www.w3.org/1999/xlink" xml:space="preserve" onload="init(evt)">
<style type="text/css"><![CDATA[
.edge:hover path { stroke: red; }
.edge:hover polygon { stroke: red; fill: red; }
]]></style>
<script type="text/javascript"><![CDATA[
var edges = document.getElementsByTagName('g');
if (edges && edges.length) {
  for (var i=0;i<edges.length;i++) {
    if (edges[i].id.substr(0,4)=='edge') {
      edges[i].setAttribute('class','edge');
    }
  }
}
]]></script>
        <defs>
                <circle id="rim" cx="0" cy="0" r="7"/>
                <circle id="rim2" cx="0" cy="0" r="3.5"/>
                <g id="zoomPlus">
                        <use xlink:href="#rim" fill="#404040">
                                <set attributeName="fill" to="#808080" begin="zoomplus.mouseover" end="zoomplus.mouseout"/>
                        </use>
                        <path d="M-4,0h8M0,-4v8" fill="none" stroke="white" stroke-width="1.5" pointer-events="none"/>
                </g>
                <g id="zoomMin">
                        <use xlink:href="#rim" fill="#404040">
                                <set attributeName="fill" to="#808080" begin="zoomminus.mouseover" end="zoomminus.mouseout"/>
                        </use>
                        <path d="M-4,0h8" fill="none" stroke="white" stroke-width="1.5" pointer-events="none"/>
                </g>
                <g id="dirArrow">
                        <path fill="none" stroke="white" stroke-width="1.5" d="M0,-3.0v7 M-2.5,-0.5L0,-3.0L2.5,-0.5"/>
                </g>
               <g id="resetDef">
                       <use xlink:href="#rim2" fill="#404040">
                               <set attributeName="fill" to="#808080" begin="reset.mouseover" end="reset.mouseout"/>
                       </use>
               </g>
        </defs>

<script type="text/javascript">
var viewWidth = 932;
var viewHeight = 412;
var sectionId = 'dynsection-0';
</script>
<script xlink:href="svgpan.js"/>
<svg id="graph" class="graph">
<g id="viewport">
<title>src/auto.c</title>
<!-- Node0 -->
<g id="node1" class="node">
<title>Node0</title>
<polygon fill="#bfbfbf" stroke="#000000" points="325.1675,-385.5 325.1675,-403.5 384.5171,-403.5 384.5171,-385.5 325.1675,-385.5"/>
<text text-anchor="middle" x="354.8423" y="-391.5" font-family="Helvetica,sans-Serif" font-size="10.00" fill="#000000">src/auto.c</text>
</g>
<!-- Node1 -->
<g id="node2" class="node">
<title>Node1</title>
<g id="a_node2"><a xlink:href="auto_8h.html" target="_top" xlink:title="Autonomous declarations and macros. ">
<polygon fill="none" stroke="#000000" points="301.9409,-330.5 301.9409,-348.5 345.7437,-348.5 345.7437,-330.5 301.9409,-330.5"/>
<text text-anchor="middle" x="323.8423" y="-336.5" font-family="Helvetica,sans-Serif" font-size="10.00" fill="#000000">auto.h</text>
</a>
</g>
</g>
<!-- Node0&#45;&gt;Node1 -->
<g id="edge1" class="edge">
<title>Node0&#45;&gt;Node1</title>
<path fill="none" stroke="#191970" d="M349.7233,-385.4179C345.4858,-377.8998 339.3326,-366.9829 334.0891,-357.6799"/>
<polygon fill="#191970" stroke="#191970" points="337.0317,-355.7724 329.0725,-348.7795 330.9337,-359.2096 337.0317,-355.7724"/>
</g>
<!-- Node24 -->
<g id="node25" class="node">
<title>Node24</title>
<g id="a_node25"><a xlink:href="main_8h.html" target="_top" xlink:title="Header file for global functions. ">
<polygon fill="none" stroke="#000000" points="623.835,-330.5 623.835,-348.5 669.8496,-348.5 669.8496,-330.5 623.835,-330.5"/>
<text text-anchor="middle" x="646.8423" y="-336.5" font-family="Helvetica,sans-Serif" font-size="10.00" fill="#000000">main.h</text>
</a>
</g>
</g>
<!-- Node0&#45;&gt;Node24 -->
<g id="edge46" class="edge">
<title>Node0&#45;&gt;Node24</title>
<path fill="none" stroke="#191970" d="M384.7192,-388.8725C439.5907,-378.5371 556.0451,-356.6022 613.4411,-345.7913"/>
<polygon fill="#191970" stroke="#191970" points="614.2634,-349.1981 623.4427,-343.9075 612.9676,-342.319 614.2634,-349.1981"/>
</g>
<!-- Node2 -->
<g id="node3" class="node">
<title>Node2</title>
<g id="a_node3"><a xlink:href="claw_8h.html" target="_top" xlink:title="Code for controlling the claw that grabs the cones. ">
<polygon fill="none" stroke="#000000" points="631.9434,-220.5 631.9434,-238.5 675.7412,-238.5 675.7412,-220.5 631.9434,-220.5"/>
<text text-anchor="middle" x="653.8423" y="-226.5" font-family="Helvetica,sans-Serif" font-size="10.00" fill="#000000">claw.h</text>
</a>
</g>
</g>
<!-- Node1&#45;&gt;Node2 -->
<g id="edge2" class="edge">
<title>Node1&#45;&gt;Node2</title>
<path fill="none" stroke="#191970" d="M345.8621,-336.3551C383.5253,-330.5786 462.3921,-316.742 525.8423,-294 563.6461,-280.4502 604.6547,-258.3514 629.8041,-243.8669"/>
<polygon fill="#191970" stroke="#191970" points="631.7512,-246.7831 638.6265,-238.7221 628.2249,-240.7362 631.7512,-246.7831"/>
</g>
<!-- Node8 -->
<g id="node9" class="node">
<title>Node8</title>
<g id="a_node9"><a xlink:href="sensor__ports_8h.html" target="_top" xlink:title="sensor_ports.h">
<polygon fill="none" stroke="#000000" points="330.7686,-165.5 330.7686,-183.5 412.916,-183.5 412.916,-165.5 330.7686,-165.5"/>
<text text-anchor="middle" x="371.8423" y="-171.5" font-family="Helvetica,sans-Serif" font-size="10.00" fill="#000000">sensor_ports.h</text>
</a>
</g>
</g>
<!-- Node1&#45;&gt;Node8 -->
<g id="edge35" class="edge">
<title>Node1&#45;&gt;Node8</title>
<path fill="none" stroke="#191970" d="M326.5605,-330.1561C334.184,-303.9504 355.8843,-229.3557 366.2271,-193.8021"/>
<polygon fill="#191970" stroke="#191970" points="369.7212,-194.321 369.1539,-183.7414 362.9998,-192.3657 369.7212,-194.321"/>
</g>
<!-- Node12 -->
<g id="node13" class="node">
<title>Node12</title>
<g id="a_node13"><a xlink:href="drive_8h.html" target="_top" xlink:title="Drive base definitions and enumerations. ">
<polygon fill="none" stroke="#000000" points="389.835,-220.5 389.835,-238.5 435.8496,-238.5 435.8496,-220.5 389.835,-220.5"/>
<text text-anchor="middle" x="412.8423" y="-226.5" font-family="Helvetica,sans-Serif" font-size="10.00" fill="#000000">drive.h</text>
</a>
</g>
</g>
<!-- Node1&#45;&gt;Node12 -->
<g id="edge17" class="edge">
<title>Node1&#45;&gt;Node12</title>
<path fill="none" stroke="#191970" d="M331.1255,-330.4982C345.9893,-312.1273 380.024,-270.0619 399.1498,-246.4233"/>
<polygon fill="#191970" stroke="#191970" points="401.8894,-248.6018 405.4584,-238.6261 396.4475,-244.1988 401.8894,-248.6018"/>
</g>
<!-- Node14 -->
<g id="node15" class="node">
<title>Node14</title>
<polygon fill="none" stroke="#bfbfbf" points="0,-275.5 0,-293.5 47.6846,-293.5 47.6846,-275.5 0,-275.5"/>
<text text-anchor="middle" x="23.8423" y="-281.5" font-family="Helvetica,sans-Serif" font-size="10.00" fill="#000000">stdlib.h</text>
</g>
<!-- Node1&#45;&gt;Node14 -->
<g id="edge22" class="edge">
<title>Node1&#45;&gt;Node14</title>
<path fill="none" stroke="#191970" d="M301.8752,-336.603C257.5475,-330.5781 154.0971,-315.6123 57.8052,-294.0137"/>
<polygon fill="#191970" stroke="#191970" points="58.4393,-290.5686 47.9122,-291.765 56.8877,-297.3945 58.4393,-290.5686"/>
</g>
<!-- Node15 -->
<g id="node16" class="node">
<title>Node15</title>
<polygon fill="none" stroke="#bfbfbf" points="65.5493,-275.5 65.5493,-293.5 122.1353,-293.5 122.1353,-275.5 65.5493,-275.5"/>
<text text-anchor="middle" x="93.8423" y="-281.5" font-family="Helvetica,sans-Serif" font-size="10.00" fill="#000000">stdbool.h</text>
</g>
<!-- Node1&#45;&gt;Node15 -->
<g id="edge23" class="edge">
<title>Node1&#45;&gt;Node15</title>
<path fill="none" stroke="#191970" d="M301.8106,-334.4555C267.6167,-326.5943 199.4677,-310.7996 132.3953,-294.3513"/>
<polygon fill="#191970" stroke="#191970" points="133.0579,-290.9101 122.5114,-291.9207 131.3862,-297.7075 133.0579,-290.9101"/>
</g>
<!-- Node16 -->
<g id="node17" class="node">
<title>Node16</title>
<polygon fill="none" stroke="#bfbfbf" points="139.7759,-275.5 139.7759,-293.5 191.9087,-293.5 191.9087,-275.5 139.7759,-275.5"/>
<text text-anchor="middle" x="165.8423" y="-281.5" font-family="Helvetica,sans-Serif" font-size="10.00" fill="#000000">stdarg.h</text>
</g>
<!-- Node1&#45;&gt;Node16 -->
<g id="edge24" class="edge">
<title>Node1&#45;&gt;Node16</title>
<path fill="none" stroke="#191970" d="M301.8731,-331.8525C275.8588,-322.7969 232.178,-307.5916 201.3433,-296.858"/>
<polygon fill="#191970" stroke="#191970" points="202.417,-293.5258 191.8221,-293.5436 200.1157,-300.1367 202.417,-293.5258"/>
</g>
<!-- Node17 -->
<g id="node18" class="node">
<title>Node17</title>
<polygon fill="none" stroke="#bfbfbf" points="209.7217,-275.5 209.7217,-293.5 257.9629,-293.5 257.9629,-275.5 209.7217,-275.5"/>
<text text-anchor="middle" x="233.8423" y="-281.5" font-family="Helvetica,sans-Serif" font-size="10.00" fill="#000000">stdint.h</text>
</g>
<!-- Node1&#45;&gt;Node17 -->
<g id="edge25" class="edge">
<title>Node1&#45;&gt;Node17</title>
<path fill="none" stroke="#191970" d="M308.9806,-330.4179C295.0409,-321.8992 273.9603,-309.0166 257.6722,-299.0627"/>
<polygon fill="#191970" stroke="#191970" points="259.084,-295.8237 248.726,-293.5956 255.4338,-301.7967 259.084,-295.8237"/>
</g>
<!-- Node18 -->
<g id="node19" class="node">
<title>Node18</title>
<g id="a_node19"><a xlink:href="lifter_8h.html" target="_top" xlink:title="Declarations and macros for controlling and manipulating the lifter. ">
<polygon fill="none" stroke="#000000" points="474.5,-275.5 474.5,-293.5 517.1846,-293.5 517.1846,-275.5 474.5,-275.5"/>
<text text-anchor="middle" x="495.8423" y="-281.5" font-family="Helvetica,sans-Serif" font-size="10.00" fill="#000000">lifter.h</text>
</a>
</g>
</g>
<!-- Node1&#45;&gt;Node18 -->
<g id="edge26" class="edge">
<title>Node1&#45;&gt;Node18</title>
<path fill="none" stroke="#191970" d="M345.9762,-332.4223C376.0706,-322.7991 430.0689,-305.5322 464.3698,-294.5639"/>
<polygon fill="#191970" stroke="#191970" points="465.8755,-297.7571 474.3343,-291.3775 463.7434,-291.0897 465.8755,-297.7571"/>
</g>
<!-- Node20 -->
<g id="node21" class="node">
<title>Node20</title>
<g id="a_node21"><a xlink:href="mobile__goal__intake_8h.html" target="_top" xlink:title="mobile_goal_intake.h">
<polygon fill="none" stroke="#000000" points="731.5864,-220.5 731.5864,-238.5 842.0981,-238.5 842.0981,-220.5 731.5864,-220.5"/>
<text text-anchor="middle" x="786.8423" y="-226.5" font-family="Helvetica,sans-Serif" font-size="10.00" fill="#000000">mobile_goal_intake.h</text>
</a>
</g>
</g>
<!-- Node1&#45;&gt;Node20 -->
<g id="edge36" class="edge">
<title>Node1&#45;&gt;Node20</title>
<path fill="none" stroke="#191970" d="M345.9682,-335.9568C388.1905,-329.0439 483.0696,-312.78 561.8423,-294 628.0344,-278.2193 703.9036,-255.4855 748.4676,-241.6472"/>
<polygon fill="#191970" stroke="#191970" points="749.788,-244.9017 758.2922,-238.5828 747.7037,-238.2192 749.788,-244.9017"/>
</g>
<!-- Node21 -->
<g id="node22" class="node">
<title>Node21</title>
<g id="a_node22"><a xlink:href="localization_8h.html" target="_top" xlink:title="Declarations and macros for determining the location of the robot. [WIP]. ">
<polygon fill="none" stroke="#000000" points="200.936,-165.5 200.936,-183.5 274.7485,-183.5 274.7485,-165.5 200.936,-165.5"/>
<text text-anchor="middle" x="237.8423" y="-171.5" font-family="Helvetica,sans-Serif" font-size="10.00" fill="#000000">localization.h</text>
</a>
</g>
</g>
<!-- Node1&#45;&gt;Node21 -->
<g id="edge40" class="edge">
<title>Node1&#45;&gt;Node21</title>
<path fill="none" stroke="#191970" d="M318.9721,-330.1561C305.1952,-303.7235 265.7586,-228.0604 247.4261,-192.8875"/>
<polygon fill="#191970" stroke="#191970" points="250.3848,-190.9915 242.659,-183.7414 244.1773,-194.2269 250.3848,-190.9915"/>
</g>
<!-- Node3 -->
<g id="node4" class="node">
<title>Node3</title>
<g id="a_node4"><a xlink:href="controller_8h.html" target="_top" xlink:title="controller definitions, macros and functions to assist with usig the vex controllers. ">
<polygon fill="none" stroke="#000000" points="648.3818,-110.5 648.3818,-128.5 713.3027,-128.5 713.3027,-110.5 648.3818,-110.5"/>
<text text-anchor="middle" x="680.8423" y="-116.5" font-family="Helvetica,sans-Serif" font-size="10.00" fill="#000000">controller.h</text>
</a>
</g>
</g>
<!-- Node2&#45;&gt;Node3 -->
<g id="edge3" class="edge">
<title>Node2&#45;&gt;Node3</title>
<path fill="none" stroke="#191970" d="M656.0518,-220.4982C660.4226,-202.6913 670.2577,-162.6225 676.1415,-138.6515"/>
<polygon fill="#191970" stroke="#191970" points="679.6175,-139.1722 678.6022,-128.6261 672.8193,-137.5035 679.6175,-139.1722"/>
</g>
<!-- Node6 -->
<g id="node7" class="node">
<title>Node6</title>
<polygon fill="none" stroke="#bfbfbf" points="567.6133,-55.5 567.6133,-73.5 608.0713,-73.5 608.0713,-55.5 567.6133,-55.5"/>
<text text-anchor="middle" x="587.8423" y="-61.5" font-family="Helvetica,sans-Serif" font-size="10.00" fill="#000000">API.h</text>
</g>
<!-- Node2&#45;&gt;Node6 -->
<g id="edge16" class="edge">
<title>Node2&#45;&gt;Node6</title>
<path fill="none" stroke="#191970" d="M650.1047,-220.1561C639.5771,-193.837 609.5259,-118.709 595.3793,-83.3426"/>
<polygon fill="#191970" stroke="#191970" points="598.5025,-81.7263 591.5388,-73.7414 592.0031,-84.3261 598.5025,-81.7263"/>
</g>
<!-- Node7 -->
<g id="node8" class="node">
<title>Node7</title>
<g id="a_node8"><a xlink:href="motor__ports_8h.html" target="_top" xlink:title="The motor port definitionsMacros for the different motors ports. ">
<polygon fill="none" stroke="#000000" points="686.9951,-165.5 686.9951,-183.5 764.6895,-183.5 764.6895,-165.5 686.9951,-165.5"/>
<text text-anchor="middle" x="725.8423" y="-171.5" font-family="Helvetica,sans-Serif" font-size="10.00" fill="#000000">motor_ports.h</text>
</a>
</g>
</g>
<!-- Node2&#45;&gt;Node7 -->
<g id="edge7" class="edge">
<title>Node2&#45;&gt;Node7</title>
<path fill="none" stroke="#191970" d="M665.7316,-220.4179C676.5058,-212.1876 692.6125,-199.8839 705.442,-190.0836"/>
<polygon fill="#191970" stroke="#191970" points="707.8726,-192.6313 713.6946,-183.7795 703.6232,-187.0685 707.8726,-192.6313"/>
</g>
<!-- Node2&#45;&gt;Node8 -->
<g id="edge8" class="edge">
<title>Node2&#45;&gt;Node8</title>
<path fill="none" stroke="#191970" d="M631.7142,-225.1842C587.0672,-216.4765 485.1766,-196.6042 423.0693,-184.4911"/>
<polygon fill="#191970" stroke="#191970" points="423.5685,-181.0226 413.0834,-182.5435 422.2284,-187.8931 423.5685,-181.0226"/>
</g>
<!-- Node9 -->
<g id="node10" class="node">
<title>Node9</title>
<g id="a_node10"><a xlink:href="slew_8h.html" target="_top" xlink:title="Contains the slew rate controller wrapper for the motors. ">
<polygon fill="none" stroke="#000000" points="820.9434,-165.5 820.9434,-183.5 864.7412,-183.5 864.7412,-165.5 820.9434,-165.5"/>
<text text-anchor="middle" x="842.8423" y="-171.5" font-family="Helvetica,sans-Serif" font-size="10.00" fill="#000000">slew.h</text>
</a>
</g>
</g>
<!-- Node2&#45;&gt;Node9 -->
<g id="edge9" class="edge">
<title>Node2&#45;&gt;Node9</title>
<path fill="none" stroke="#191970" d="M675.8929,-223.0832C709.3238,-213.3546 772.9868,-194.8283 811.3061,-183.6772"/>
<polygon fill="#191970" stroke="#191970" points="812.3084,-187.0308 820.9321,-180.876 810.3525,-180.3096 812.3084,-187.0308"/>
</g>
<!-- Node4 -->
<g id="node5" class="node">
<title>Node4</title>
<g id="a_node5"><a xlink:href="vmath_8h.html" target="_top" xlink:title="Vex Specific Math Functions, includes: Cartesian to polar cordinates. ">
<polygon fill="none" stroke="#000000" points="698.0566,-55.5 698.0566,-73.5 749.6279,-73.5 749.6279,-55.5 698.0566,-55.5"/>
<text text-anchor="middle" x="723.8423" y="-61.5" font-family="Helvetica,sans-Serif" font-size="10.00" fill="#000000">vmath.h</text>
</a>
</g>
</g>
<!-- Node3&#45;&gt;Node4 -->
<g id="edge4" class="edge">
<title>Node3&#45;&gt;Node4</title>
<path fill="none" stroke="#191970" d="M687.9429,-110.4179C694.0062,-102.6624 702.8974,-91.29 710.3141,-81.8035"/>
<polygon fill="#191970" stroke="#191970" points="713.1855,-83.8133 716.5874,-73.7795 707.6708,-79.5018 713.1855,-83.8133"/>
</g>
<!-- Node3&#45;&gt;Node6 -->
<g id="edge6" class="edge">
<title>Node3&#45;&gt;Node6</title>
<path fill="none" stroke="#191970" d="M665.4852,-110.4179C650.9462,-101.8195 628.8897,-88.7754 611.9959,-78.7844"/>
<polygon fill="#191970" stroke="#191970" points="613.6113,-75.6735 603.2222,-73.5956 610.0479,-81.6987 613.6113,-75.6735"/>
</g>
<!-- Node5 -->
<g id="node6" class="node">
<title>Node5</title>
<polygon fill="none" stroke="#bfbfbf" points="766.5566,-.5 766.5566,-18.5 813.1279,-18.5 813.1279,-.5 766.5566,-.5"/>
<text text-anchor="middle" x="789.8423" y="-6.5" font-family="Helvetica,sans-Serif" font-size="10.00" fill="#000000">math.h</text>
</g>
<!-- Node4&#45;&gt;Node5 -->
<g id="edge5" class="edge">
<title>Node4&#45;&gt;Node5</title>
<path fill="none" stroke="#191970" d="M734.7408,-55.4179C744.5222,-47.2667 759.0981,-35.1201 770.802,-25.3669"/>
<polygon fill="#191970" stroke="#191970" points="773.2654,-27.8701 778.7069,-18.7795 768.784,-22.4926 773.2654,-27.8701"/>
</g>
<!-- Node9&#45;&gt;Node5 -->
<g id="edge11" class="edge">
<title>Node9&#45;&gt;Node5</title>
<path fill="none" stroke="#191970" d="M839.8409,-165.1561C831.3869,-138.837 807.2549,-63.709 795.8948,-28.3426"/>
<polygon fill="#191970" stroke="#191970" points="799.2013,-27.1919 792.8107,-18.7414 792.5367,-29.3327 799.2013,-27.1919"/>
</g>
<!-- Node9&#45;&gt;Node6 -->
<g id="edge10" class="edge">
<title>Node9&#45;&gt;Node6</title>
<path fill="none" stroke="#191970" d="M827.5784,-165.3221C805.0108,-151.9951 761.1651,-127.0227 721.8423,-110 687.0555,-94.9409 645.5264,-81.5065 618.0178,-73.2084"/>
<polygon fill="#191970" stroke="#191970" points="618.7876,-69.7859 608.2047,-70.2869 616.7902,-76.4949 618.7876,-69.7859"/>
</g>
<!-- Node10 -->
<g id="node11" class="node">
<title>Node10</title>
<g id="a_node11"><a xlink:href="vlib_8h.html" target="_top" xlink:title="Contains misc helpful functions. ">
<polygon fill="none" stroke="#000000" points="866.1699,-110.5 866.1699,-128.5 905.5146,-128.5 905.5146,-110.5 866.1699,-110.5"/>
<text text-anchor="middle" x="885.8423" y="-116.5" font-family="Helvetica,sans-Serif" font-size="10.00" fill="#000000">vlib.h</text>
</a>
</g>
</g>
<!-- Node9&#45;&gt;Node10 -->
<g id="edge12" class="edge">
<title>Node9&#45;&gt;Node10</title>
<path fill="none" stroke="#191970" d="M849.9429,-165.4179C856.0062,-157.6624 864.8974,-146.29 872.3141,-136.8035"/>
<polygon fill="#191970" stroke="#191970" points="875.1855,-138.8133 878.5874,-128.7795 869.6708,-134.5018 875.1855,-138.8133"/>
</g>
<!-- Node10&#45;&gt;Node5 -->
<g id="edge14" class="edge">
<title>Node10&#45;&gt;Node5</title>
<path fill="none" stroke="#191970" d="M897.0191,-110.3033C911.3497,-97.3815 932.8802,-73.3767 919.8423,-55 908.4629,-38.961 858.0388,-24.749 823.4414,-16.6376"/>
<polygon fill="#191970" stroke="#191970" points="823.8009,-13.1298 813.2732,-14.3208 822.2458,-19.9549 823.8009,-13.1298"/>
</g>
<!-- Node10&#45;&gt;Node6 -->
<g id="edge13" class="edge">
<title>Node10&#45;&gt;Node6</title>
<path fill="none" stroke="#191970" d="M865.8269,-115.8059C814.7375,-106.3766 679.2486,-81.3703 618.3006,-70.1215"/>
<polygon fill="#191970" stroke="#191970" points="618.6321,-66.6236 608.1629,-68.2505 617.3616,-73.5074 618.6321,-66.6236"/>
</g>
<!-- Node11 -->
<g id="node12" class="node">
<title>Node11</title>
<polygon fill="none" stroke="#bfbfbf" points="862.4458,-55.5 862.4458,-73.5 911.2388,-73.5 911.2388,-55.5 862.4458,-55.5"/>
<text text-anchor="middle" x="886.8423" y="-61.5" font-family="Helvetica,sans-Serif" font-size="10.00" fill="#000000">string.h</text>
</g>
<!-- Node10&#45;&gt;Node11 -->
<g id="edge15" class="edge">
<title>Node10&#45;&gt;Node11</title>
<path fill="none" stroke="#191970" d="M886.0074,-110.4179C886.1384,-103.2164 886.326,-92.8962 886.4902,-83.8632"/>
<polygon fill="#191970" stroke="#191970" points="889.9911,-83.8415 886.6736,-73.7795 882.9923,-83.7141 889.9911,-83.8415"/>
</g>
<!-- Node12&#45;&gt;Node6 -->
<g id="edge21" class="edge">
<title>Node12&#45;&gt;Node6</title>
<path fill="none" stroke="#191970" d="M422.5003,-220.3939C450.8786,-193.6372 534.286,-114.996 570.6091,-80.7484"/>
<polygon fill="#191970" stroke="#191970" points="573.1235,-83.1881 577.9984,-73.7814 568.3214,-78.095 573.1235,-83.1881"/>
</g>
<!-- Node13 -->
<g id="node14" class="node">
<title>Node13</title>
<g id="a_node14"><a xlink:href="partner_8h.html" target="_top" xlink:title="partner.h">
<polygon fill="none" stroke="#000000" points="499.1035,-165.5 499.1035,-183.5 554.5811,-183.5 554.5811,-165.5 499.1035,-165.5"/>
<text text-anchor="middle" x="526.8423" y="-171.5" font-family="Helvetica,sans-Serif" font-size="10.00" fill="#000000">partner.h</text>
</a>
</g>
</g>
<!-- Node12&#45;&gt;Node13 -->
<g id="edge18" class="edge">
<title>Node12&#45;&gt;Node13</title>
<path fill="none" stroke="#191970" d="M431.6671,-220.4179C449.9841,-211.5807 478.0352,-198.0473 498.9453,-187.9591"/>
<polygon fill="#191970" stroke="#191970" points="500.5038,-191.0933 507.9895,-183.5956 497.4621,-184.7887 500.5038,-191.0933"/>
</g>
<!-- Node13&#45;&gt;Node3 -->
<g id="edge20" class="edge">
<title>Node13&#45;&gt;Node3</title>
<path fill="none" stroke="#191970" d="M552.2723,-165.4179C577.873,-156.2748 617.5494,-142.1046 646.055,-131.924"/>
<polygon fill="#191970" stroke="#191970" points="647.3903,-135.1637 655.6305,-128.5042 645.0359,-128.5715 647.3903,-135.1637"/>
</g>
<!-- Node13&#45;&gt;Node6 -->
<g id="edge19" class="edge">
<title>Node13&#45;&gt;Node6</title>
<path fill="none" stroke="#191970" d="M531.8342,-165.4982C541.843,-147.4496 564.5344,-106.5306 577.7583,-82.6843"/>
<polygon fill="#191970" stroke="#191970" points="580.9926,-84.0689 582.7814,-73.6261 574.8708,-80.6741 580.9926,-84.0689"/>
</g>
<!-- Node18&#45;&gt;Node3 -->
<g id="edge27" class="edge">
<title>Node18&#45;&gt;Node3</title>
<path fill="none" stroke="#191970" d="M511.0778,-275.352C525.063,-266.6812 546.0913,-252.9421 562.8423,-239 602.9348,-205.6303 644.6204,-160.5384 666.0914,-136.4061"/>
<polygon fill="#191970" stroke="#191970" points="668.8135,-138.6112 672.8072,-128.7979 663.5655,-133.9788 668.8135,-138.6112"/>
</g>
<!-- Node18&#45;&gt;Node6 -->
<g id="edge34" class="edge">
<title>Node18&#45;&gt;Node6</title>
<path fill="none" stroke="#191970" d="M474.4179,-279.9005C419.0964,-267.0206 278.7109,-227.4031 321.8423,-165 349.694,-124.7038 494.2144,-86.4886 557.7823,-71.3436"/>
<polygon fill="#191970" stroke="#191970" points="558.6787,-74.7284 567.6121,-69.0324 557.0764,-67.9142 558.6787,-74.7284"/>
</g>
<!-- Node18&#45;&gt;Node7 -->
<g id="edge29" class="edge">
<title>Node18&#45;&gt;Node7</title>
<path fill="none" stroke="#191970" d="M517.3533,-281.393C560.9466,-274.7686 657.8625,-258.2777 684.8423,-239 700.8271,-227.5784 712.0366,-207.7927 718.6475,-193.1386"/>
<polygon fill="#191970" stroke="#191970" points="722.0207,-194.1441 722.6511,-183.568 715.563,-191.4426 722.0207,-194.1441"/>
</g>
<!-- Node18&#45;&gt;Node8 -->
<g id="edge32" class="edge">
<title>Node18&#45;&gt;Node8</title>
<path fill="none" stroke="#191970" d="M474.1961,-282.3952C447.7355,-278.5907 403.6695,-268.0306 380.8423,-239 370.9162,-226.3765 369.234,-207.9063 369.7034,-193.9627"/>
<polygon fill="#191970" stroke="#191970" points="373.1972,-194.1745 370.4249,-183.9488 366.2153,-193.6714 373.1972,-194.1745"/>
</g>
<!-- Node18&#45;&gt;Node9 -->
<g id="edge33" class="edge">
<title>Node18&#45;&gt;Node9</title>
<path fill="none" stroke="#191970" d="M517.2561,-283.3737C590.6357,-279.2985 828.6501,-264.2181 850.8423,-239 861.7595,-226.5943 857.5674,-207.2733 851.9805,-193.0094"/>
<polygon fill="#191970" stroke="#191970" points="855.105,-191.4204 847.8621,-183.688 848.7021,-194.2495 855.105,-191.4204"/>
</g>
<!-- Node18&#45;&gt;Node12 -->
<g id="edge28" class="edge">
<title>Node18&#45;&gt;Node12</title>
<path fill="none" stroke="#191970" d="M482.1365,-275.4179C469.4011,-266.9788 450.2028,-254.257 435.2411,-244.3426"/>
<polygon fill="#191970" stroke="#191970" points="436.8377,-241.2019 426.5684,-238.5956 432.971,-247.037 436.8377,-241.2019"/>
</g>
<!-- Node18&#45;&gt;Node13 -->
<g id="edge30" class="edge">
<title>Node18&#45;&gt;Node13</title>
<path fill="none" stroke="#191970" d="M512.0759,-275.2743C524.1677,-267.3859 539.7598,-254.8101 546.8423,-239 553.7075,-223.6748 546.6294,-205.307 539.0617,-192.0989"/>
<polygon fill="#191970" stroke="#191970" points="541.9455,-190.11 533.657,-183.5106 536.0209,-193.8383 541.9455,-190.11"/>
</g>
<!-- Node19 -->
<g id="node20" class="node">
<title>Node19</title>
<g id="a_node20"><a xlink:href="potentiometer_8h.html" target="_top" xlink:title="potentiometer.h">
<polygon fill="none" stroke="#000000" points="453.3721,-220.5 453.3721,-238.5 538.3125,-238.5 538.3125,-220.5 453.3721,-220.5"/>
<text text-anchor="middle" x="495.8423" y="-226.5" font-family="Helvetica,sans-Serif" font-size="10.00" fill="#000000">potentiometer.h</text>
</a>
</g>
</g>
<!-- Node18&#45;&gt;Node19 -->
<g id="edge31" class="edge">
<title>Node18&#45;&gt;Node19</title>
<path fill="none" stroke="#191970" d="M495.8423,-275.4179C495.8423,-268.2164 495.8423,-257.8962 495.8423,-248.8632"/>
<polygon fill="#191970" stroke="#191970" points="499.3424,-248.7794 495.8423,-238.7795 492.3424,-248.7795 499.3424,-248.7794"/>
</g>
<!-- Node20&#45;&gt;Node3 -->
<g id="edge37" class="edge">
<title>Node20&#45;&gt;Node3</title>
<path fill="none" stroke="#191970" d="M787.4071,-220.1249C787.7288,-206.5523 786.4056,-181.277 773.8423,-165 761.2744,-148.7171 741.3596,-137.8998 723.1774,-130.9153"/>
<polygon fill="#191970" stroke="#191970" points="724.1894,-127.5605 713.5947,-127.5114 721.8463,-134.1568 724.1894,-127.5605"/>
</g>
<!-- Node20&#45;&gt;Node7 -->
<g id="edge38" class="edge">
<title>Node20&#45;&gt;Node7</title>
<path fill="none" stroke="#191970" d="M776.7694,-220.4179C767.8168,-212.3458 754.5185,-200.3556 743.756,-190.6517"/>
<polygon fill="#191970" stroke="#191970" points="745.9047,-187.8764 736.134,-183.7795 741.2172,-193.0753 745.9047,-187.8764"/>
</g>
<!-- Node20&#45;&gt;Node9 -->
<g id="edge39" class="edge">
<title>Node20&#45;&gt;Node9</title>
<path fill="none" stroke="#191970" d="M796.0895,-220.4179C804.2278,-212.425 816.2776,-200.5903 826.1057,-190.9377"/>
<polygon fill="#191970" stroke="#191970" points="828.7121,-193.2836 833.3941,-183.7795 823.8071,-188.2895 828.7121,-193.2836"/>
</g>
<!-- Node21&#45;&gt;Node5 -->
<g id="edge45" class="edge">
<title>Node21&#45;&gt;Node5</title>
<path fill="none" stroke="#191970" d="M210.4236,-165.4641C180.1373,-154.0652 138.0942,-133.1366 157.8423,-110 197.3091,-63.7613 631.2597,-23.1256 756.3061,-12.311"/>
<polygon fill="#191970" stroke="#191970" points="756.771,-15.7841 766.4352,-11.442 756.1726,-8.8097 756.771,-15.7841"/>
</g>
<!-- Node21&#45;&gt;Node6 -->
<g id="edge44" class="edge">
<title>Node21&#45;&gt;Node6</title>
<path fill="none" stroke="#191970" d="M251.2252,-165.2912C272.3014,-151.2226 314.9454,-124.4885 354.8423,-110 424.7787,-84.6027 511.9465,-72.3985 557.2647,-67.4099"/>
<polygon fill="#191970" stroke="#191970" points="557.75,-70.8782 567.3266,-66.3462 557.014,-63.917 557.75,-70.8782"/>
</g>
<!-- Node22 -->
<g id="node23" class="node">
<title>Node22</title>
<g id="a_node23"><a xlink:href="encoders_8h.html" target="_top" xlink:title="wrapper around encoder functions ">
<polygon fill="none" stroke="#000000" points="167.1035,-110.5 167.1035,-128.5 232.5811,-128.5 232.5811,-110.5 167.1035,-110.5"/>
<text text-anchor="middle" x="199.8423" y="-116.5" font-family="Helvetica,sans-Serif" font-size="10.00" fill="#000000">encoders.h</text>
</a>
</g>
</g>
<!-- Node21&#45;&gt;Node22 -->
<g id="edge41" class="edge">
<title>Node21&#45;&gt;Node22</title>
<path fill="none" stroke="#191970" d="M231.5674,-165.4179C226.2637,-157.7415 218.5118,-146.5217 211.9985,-137.0945"/>
<polygon fill="#191970" stroke="#191970" points="214.8175,-135.0173 206.2535,-128.7795 209.0583,-138.9963 214.8175,-135.0173"/>
</g>
<!-- Node23 -->
<g id="node24" class="node">
<title>Node23</title>
<g id="a_node24"><a xlink:href="matrix_8h.html" target="_top" xlink:title="Various Matrix operations.None of the matrix operations below change the input matrices if an input i...">
<polygon fill="none" stroke="#000000" points="251.0615,-110.5 251.0615,-128.5 302.623,-128.5 302.623,-110.5 251.0615,-110.5"/>
<text text-anchor="middle" x="276.8423" y="-116.5" font-family="Helvetica,sans-Serif" font-size="10.00" fill="#000000">matrix.h</text>
</a>
</g>
</g>
<!-- Node21&#45;&gt;Node23 -->
<g id="edge43" class="edge">
<title>Node21&#45;&gt;Node23</title>
<path fill="none" stroke="#191970" d="M244.2823,-165.4179C249.7256,-157.7415 257.6814,-146.5217 264.3662,-137.0945"/>
<polygon fill="#191970" stroke="#191970" points="267.333,-138.9613 270.2623,-128.7795 261.6229,-134.9123 267.333,-138.9613"/>
</g>
<!-- Node22&#45;&gt;Node6 -->
<g id="edge42" class="edge">
<title>Node22&#45;&gt;Node6</title>
<path fill="none" stroke="#191970" d="M232.7993,-111.7453C235.8492,-111.1185 238.8984,-110.5254 241.8423,-110 357.7502,-89.3152 497.0661,-73.8152 557.4599,-67.5479"/>
<polygon fill="#191970" stroke="#191970" points="557.8729,-71.024 567.4626,-66.5197 557.1571,-64.0607 557.8729,-71.024"/>
</g>
<!-- Node24&#45;&gt;Node6 -->
<g id="edge47" class="edge">
<title>Node24&#45;&gt;Node6</title>
<path fill="none" stroke="#191970" d="M670.147,-336.6076C716.7163,-329.4698 820.9074,-306.4036 868.8423,-239 887.9466,-212.1366 891.6009,-192.7714 873.8423,-165 845.449,-120.5978 686.4248,-84.1576 618.5509,-70.3993"/>
<polygon fill="#191970" stroke="#191970" points="618.9657,-66.9132 608.4741,-68.3882 617.5956,-73.7778 618.9657,-66.9132"/>
</g>
</g>
</svg>
        <g id="navigator" transform="translate(0 0)" fill="#404254">
                <rect fill="#f2f5e9" fill-opacity="0.5" stroke="#606060" stroke-width=".5" x="0" y="0" width="60" height="60"/>
                <use id="zoomplus" xlink:href="#zoomPlus" x="17" y="9" onmousedown="handleZoom(evt,'in')"/>
                <use id="zoomminus" xlink:href="#zoomMin" x="42" y="9" onmousedown="handleZoom(evt,'out')"/>
                <use id="reset" xlink:href="#resetDef" x="30" y="36" onmousedown="handleReset()"/>
                <g id="arrowUp" xlink:href="#dirArrow" transform="translate(30 24)" onmousedown="handlePan(0,-1)">
                  <use xlink:href="#rim" fill="#404040">
                        <set attributeName="fill" to="#808080" begin="arrowUp.mouseover" end="arrowUp.mouseout"/>
                  </use>
                  <path fill="none" stroke="white" stroke-width="1.5" d="M0,-3.0v7 M-2.5,-0.5L0,-3.0L2.5,-0.5"/>
                </g>
                <g id="arrowRight" xlink:href="#dirArrow" transform="rotate(90) translate(36 -43)" onmousedown="handlePan(1,0)">
                  <use xlink:href="#rim" fill="#404040">
                        <set attributeName="fill" to="#808080" begin="arrowRight.mouseover" end="arrowRight.mouseout"/>
                  </use>
                  <path fill="none" stroke="white" stroke-width="1.5" d="M0,-3.0v7 M-2.5,-0.5L0,-3.0L2.5,-0.5"/>
                </g>
                <g id="arrowDown" xlink:href="#dirArrow" transform="rotate(180) translate(-30 -48)" onmousedown="handlePan(0,1)">
                  <use xlink:href="#rim" fill="#404040">
                        <set attributeName="fill" to="#808080" begin="arrowDown.mouseover" end="arrowDown.mouseout"/>
                  </use>
                  <path fill="none" stroke="white" stroke-width="1.5" d="M0,-3.0v7 M-2.5,-0.5L0,-3.0L2.5,-0.5"/>
                </g>
                <g id="arrowLeft" xlink:href="#dirArrow" transform="rotate(270) translate(-36 17)" onmousedown="handlePan(-1,0)">
                  <use xlink:href="#rim" fill="#404040">
                        <set attributeName="fill" to="#808080" begin="arrowLeft.mouseover" end="arrowLeft.mouseout"/>
                  </use>
                  <path fill="none" stroke="white" stroke-width="1.5" d="M0,-3.0v7 M-2.5,-0.5L0,-3.0L2.5,-0.5"/>
                </g>
        </g>
        <svg viewBox="0 0 15 15" width="100%" height="30px" preserveAspectRatio="xMaxYMin meet">
         <g id="arrow_out" transform="scale(0.3 0.3)">
          <a xlink:href="auto_8c__incl_org.svg" target="_base">
           <rect id="button" ry="5" rx="5" y="6" x="6" height="38" width="38"
                fill="#f2f5e9" fill-opacity="0.5" stroke="#606060" stroke-width="1.0"/>
           <path id="arrow"
             d="M 11.500037,31.436501 C 11.940474,20.09759 22.043105,11.32322 32.158766,21.979434 L 37.068811,17.246167 C 37.068811,17.246167 37.088388,32 37.088388,32 L 22.160133,31.978069 C 22.160133,31.978069 26.997745,27.140456 26.997745,27.140456 C 18.528582,18.264221 13.291696,25.230495 11.500037,31.436501 z"
             style="fill:#404040;"/>
          </a>
         </g>
        </svg>
</svg>
