<?xml version="1.0" encoding="UTF-8" standalone="no"?>
<!DOCTYPE svg PUBLIC "-//W3C//DTD SVG 1.1//EN"
 "http://www.w3.org/Graphics/SVG/1.1/DTD/svg11.dtd">
<!-- Generated by graphviz version 2.40.1 (20161225.0304)
 -->
<!-- Title: include/auto.h Pages: 1 -->
<!--zoomable 357 -->
<svg id="main" version="1.1" xmlns="http://www.w3.org/2000/svg" xmlns:xlink="http://www.w3.org/1999/xlink" xml:space="preserve" onload="init(evt)">
<style type="text/css"><![CDATA[
.edge:hover path { stroke: red; }
.edge:hover polygon { stroke: red; fill: red; }
]]></style>
<script type="text/javascript"><![CDATA[
var edges = document.getElementsByTagName('g');
if (edges && edges.length) {
  for (var i=0;i<edges.length;i++) {
    if (edges[i].id.substr(0,4)=='edge') {
      edges[i].setAttribute('class','edge');
    }
  }
}
]]></script>
        <defs>
                <circle id="rim" cx="0" cy="0" r="7"/>
                <circle id="rim2" cx="0" cy="0" r="3.5"/>
                <g id="zoomPlus">
                        <use xlink:href="#rim" fill="#404040">
                                <set attributeName="fill" to="#808080" begin="zoomplus.mouseover" end="zoomplus.mouseout"/>
                        </use>
                        <path d="M-4,0h8M0,-4v8" fill="none" stroke="white" stroke-width="1.5" pointer-events="none"/>
                </g>
                <g id="zoomMin">
                        <use xlink:href="#rim" fill="#404040">
                                <set attributeName="fill" to="#808080" begin="zoomminus.mouseover" end="zoomminus.mouseout"/>
                        </use>
                        <path d="M-4,0h8" fill="none" stroke="white" stroke-width="1.5" pointer-events="none"/>
                </g>
                <g id="dirArrow">
                        <path fill="none" stroke="white" stroke-width="1.5" d="M0,-3.0v7 M-2.5,-0.5L0,-3.0L2.5,-0.5"/>
                </g>
               <g id="resetDef">
                       <use xlink:href="#rim2" fill="#404040">
                               <set attributeName="fill" to="#808080" begin="reset.mouseover" end="reset.mouseout"/>
                       </use>
               </g>
        </defs>

<script type="text/javascript">
var viewWidth = 661;
var viewHeight = 357;
var sectionId = 'dynsection-0';
</script>
<script xlink:href="svgpan.js"/>
<svg id="graph" class="graph">
<g id="viewport">
<title>include/auto.h</title>
<!-- Node0 -->
<g id="node1" class="node">
<title>Node0</title>
<polygon fill="#bfbfbf" stroke="#000000" points="265.8721,-330.5 265.8721,-348.5 344.1426,-348.5 344.1426,-330.5 265.8721,-330.5"/>
<text text-anchor="middle" x="305.0073" y="-336.5" font-family="Helvetica,sans-Serif" font-size="10.00" fill="#000000">include/auto.h</text>
</g>
<!-- Node1 -->
<g id="node2" class="node">
<title>Node1</title>
<g id="a_node2"><a xlink:href="drive_8h.html" target="_top" xlink:title="Drive base definitions and enumerations. ">
<polygon fill="none" stroke="#000000" points="0,-220.5 0,-238.5 46.0146,-238.5 46.0146,-220.5 0,-220.5"/>
<text text-anchor="middle" x="23.0073" y="-226.5" font-family="Helvetica,sans-Serif" font-size="10.00" fill="#000000">drive.h</text>
</a>
</g>
</g>
<!-- Node0&#45;&gt;Node1 -->
<g id="edge1" class="edge">
<title>Node0&#45;&gt;Node1</title>
<path fill="none" stroke="#191970" d="M281.9301,-330.4982C231.9418,-310.9993 113.5206,-264.8066 55.7887,-242.2871"/>
<polygon fill="#191970" stroke="#191970" points="56.9917,-238.9995 46.4034,-238.6261 54.4478,-245.5209 56.9917,-238.9995"/>
</g>
<!-- Node11 -->
<g id="node12" class="node">
<title>Node11</title>
<g id="a_node12"><a xlink:href="sensor__ports_8h.html" target="_top" xlink:title="sensor_ports.h">
<polygon fill="none" stroke="#000000" points="317.9336,-220.5 317.9336,-238.5 400.0811,-238.5 400.0811,-220.5 317.9336,-220.5"/>
<text text-anchor="middle" x="359.0073" y="-226.5" font-family="Helvetica,sans-Serif" font-size="10.00" fill="#000000">sensor_ports.h</text>
</a>
</g>
</g>
<!-- Node0&#45;&gt;Node11 -->
<g id="edge13" class="edge">
<title>Node0&#45;&gt;Node11</title>
<path fill="none" stroke="#191970" d="M309.4264,-330.4982C318.2866,-312.4496 338.3741,-271.5306 350.0805,-247.6843"/>
<polygon fill="#191970" stroke="#191970" points="353.2623,-249.1452 354.5272,-238.6261 346.9786,-246.0605 353.2623,-249.1452"/>
</g>
<!-- Node12 -->
<g id="node13" class="node">
<title>Node12</title>
<g id="a_node13"><a xlink:href="lifter_8h.html" target="_top" xlink:title="Declarations and macros for controlling and manipulating the lifter. ">
<polygon fill="none" stroke="#000000" points="230.665,-275.5 230.665,-293.5 273.3496,-293.5 273.3496,-275.5 230.665,-275.5"/>
<text text-anchor="middle" x="252.0073" y="-281.5" font-family="Helvetica,sans-Serif" font-size="10.00" fill="#000000">lifter.h</text>
</a>
</g>
</g>
<!-- Node0&#45;&gt;Node12 -->
<g id="edge14" class="edge">
<title>Node0&#45;&gt;Node12</title>
<path fill="none" stroke="#191970" d="M296.2555,-330.4179C288.6295,-322.5041 277.3744,-310.8243 268.1242,-301.2251"/>
<polygon fill="#191970" stroke="#191970" points="270.4086,-298.5516 260.9493,-293.7795 265.368,-303.4089 270.4086,-298.5516"/>
</g>
<!-- Node18 -->
<g id="node19" class="node">
<title>Node18</title>
<g id="a_node19"><a xlink:href="claw_8h.html" target="_top" xlink:title="Code for controlling the claw that grabs the cones. ">
<polygon fill="none" stroke="#000000" points="468.1084,-275.5 468.1084,-293.5 511.9063,-293.5 511.9063,-275.5 468.1084,-275.5"/>
<text text-anchor="middle" x="490.0073" y="-281.5" font-family="Helvetica,sans-Serif" font-size="10.00" fill="#000000">claw.h</text>
</a>
</g>
</g>
<!-- Node0&#45;&gt;Node18 -->
<g id="edge29" class="edge">
<title>Node0&#45;&gt;Node18</title>
<path fill="none" stroke="#191970" d="M335.5563,-330.4179C369.3175,-320.3808 423.4561,-304.2855 457.8489,-294.0606"/>
<polygon fill="#191970" stroke="#191970" points="459.2563,-297.2937 467.8442,-291.089 457.2614,-290.5839 459.2563,-297.2937"/>
</g>
<!-- Node2 -->
<g id="node3" class="node">
<title>Node2</title>
<g id="a_node3"><a xlink:href="_a_p_i_8h.html" target="_top" xlink:title="Provides the high&#45;level user functionality intended for use by typical VEX Cortex programmers...">
<polygon fill="none" stroke="#000000" points="256.7783,-55.5 256.7783,-73.5 297.2363,-73.5 297.2363,-55.5 256.7783,-55.5"/>
<text text-anchor="middle" x="277.0073" y="-61.5" font-family="Helvetica,sans-Serif" font-size="10.00" fill="#000000">API.h</text>
</a>
</g>
</g>
<!-- Node1&#45;&gt;Node2 -->
<g id="edge2" class="edge">
<title>Node1&#45;&gt;Node2</title>
<path fill="none" stroke="#191970" d="M22.912,-220.4036C23.2034,-198.0017 27.2478,-139.8289 60.0073,-110 87.0341,-85.391 193.3879,-72.2537 246.4953,-67.111"/>
<polygon fill="#191970" stroke="#191970" points="247.0389,-70.5755 256.6701,-66.1608 246.388,-63.6058 247.0389,-70.5755"/>
</g>
<!-- Node7 -->
<g id="node8" class="node">
<title>Node7</title>
<g id="a_node8"><a xlink:href="partner_8h.html" target="_top" xlink:title="partner.h">
<polygon fill="none" stroke="#000000" points="143.2686,-165.5 143.2686,-183.5 198.7461,-183.5 198.7461,-165.5 143.2686,-165.5"/>
<text text-anchor="middle" x="171.0073" y="-171.5" font-family="Helvetica,sans-Serif" font-size="10.00" fill="#000000">partner.h</text>
</a>
</g>
</g>
<!-- Node1&#45;&gt;Node7 -->
<g id="edge7" class="edge">
<title>Node1&#45;&gt;Node7</title>
<path fill="none" stroke="#191970" d="M46.1323,-220.9063C70.461,-211.8652 109.0091,-197.5399 136.8441,-187.1958"/>
<polygon fill="#191970" stroke="#191970" points="138.4137,-190.3464 146.5681,-183.5821 135.9752,-183.7849 138.4137,-190.3464"/>
</g>
<!-- Node3 -->
<g id="node4" class="node">
<title>Node3</title>
<polygon fill="none" stroke="#bfbfbf" points="353.165,-.5 353.165,-18.5 400.8496,-18.5 400.8496,-.5 353.165,-.5"/>
<text text-anchor="middle" x="377.0073" y="-6.5" font-family="Helvetica,sans-Serif" font-size="10.00" fill="#000000">stdlib.h</text>
</g>
<!-- Node2&#45;&gt;Node3 -->
<g id="edge3" class="edge">
<title>Node2&#45;&gt;Node3</title>
<path fill="none" stroke="#191970" d="M293.5203,-55.4179C309.2984,-46.7399 333.3102,-33.5334 351.5388,-23.5077"/>
<polygon fill="#191970" stroke="#191970" points="353.3944,-26.4816 360.4698,-18.5956 350.0209,-20.3481 353.3944,-26.4816"/>
</g>
<!-- Node4 -->
<g id="node5" class="node">
<title>Node4</title>
<polygon fill="none" stroke="#bfbfbf" points="142.7144,-.5 142.7144,-18.5 199.3003,-18.5 199.3003,-.5 142.7144,-.5"/>
<text text-anchor="middle" x="171.0073" y="-6.5" font-family="Helvetica,sans-Serif" font-size="10.00" fill="#000000">stdbool.h</text>
</g>
<!-- Node2&#45;&gt;Node4 -->
<g id="edge4" class="edge">
<title>Node2&#45;&gt;Node4</title>
<path fill="none" stroke="#191970" d="M259.5036,-55.4179C242.6254,-46.6603 216.8586,-33.2907 197.4737,-23.2326"/>
<polygon fill="#191970" stroke="#191970" points="199.0253,-20.0946 188.5371,-18.5956 195.8014,-26.308 199.0253,-20.0946"/>
</g>
<!-- Node5 -->
<g id="node6" class="node">
<title>Node5</title>
<polygon fill="none" stroke="#bfbfbf" points="216.9409,-.5 216.9409,-18.5 269.0737,-18.5 269.0737,-.5 216.9409,-.5"/>
<text text-anchor="middle" x="243.0073" y="-6.5" font-family="Helvetica,sans-Serif" font-size="10.00" fill="#000000">stdarg.h</text>
</g>
<!-- Node2&#45;&gt;Node5 -->
<g id="edge5" class="edge">
<title>Node2&#45;&gt;Node5</title>
<path fill="none" stroke="#191970" d="M271.3929,-55.4179C266.6965,-47.8207 259.8544,-36.7527 254.0645,-27.3866"/>
<polygon fill="#191970" stroke="#191970" points="256.9791,-25.445 248.7437,-18.7795 251.0249,-29.1258 256.9791,-25.445"/>
</g>
<!-- Node6 -->
<g id="node7" class="node">
<title>Node6</title>
<polygon fill="none" stroke="#bfbfbf" points="286.8867,-.5 286.8867,-18.5 335.1279,-18.5 335.1279,-.5 286.8867,-.5"/>
<text text-anchor="middle" x="311.0073" y="-6.5" font-family="Helvetica,sans-Serif" font-size="10.00" fill="#000000">stdint.h</text>
</g>
<!-- Node2&#45;&gt;Node6 -->
<g id="edge6" class="edge">
<title>Node2&#45;&gt;Node6</title>
<path fill="none" stroke="#191970" d="M282.6217,-55.4179C287.3182,-47.8207 294.1602,-36.7527 299.9501,-27.3866"/>
<polygon fill="#191970" stroke="#191970" points="302.9898,-29.1258 305.2709,-18.7795 297.0356,-25.445 302.9898,-29.1258"/>
</g>
<!-- Node7&#45;&gt;Node2 -->
<g id="edge12" class="edge">
<title>Node7&#45;&gt;Node2</title>
<path fill="none" stroke="#191970" d="M179.6817,-165.4982C197.4623,-147.0467 238.2765,-104.6924 260.9981,-81.1134"/>
<polygon fill="#191970" stroke="#191970" points="263.7944,-83.2556 268.213,-73.6261 258.7538,-78.3983 263.7944,-83.2556"/>
</g>
<!-- Node8 -->
<g id="node9" class="node">
<title>Node8</title>
<g id="a_node9"><a xlink:href="controller_8h.html" target="_top" xlink:title="controller definitions, macros and functions to assist with usig the vex controllers. ">
<polygon fill="none" stroke="#000000" points="244.5469,-110.5 244.5469,-128.5 309.4678,-128.5 309.4678,-110.5 244.5469,-110.5"/>
<text text-anchor="middle" x="277.0073" y="-116.5" font-family="Helvetica,sans-Serif" font-size="10.00" fill="#000000">controller.h</text>
</a>
</g>
</g>
<!-- Node7&#45;&gt;Node8 -->
<g id="edge8" class="edge">
<title>Node7&#45;&gt;Node8</title>
<path fill="none" stroke="#191970" d="M188.5111,-165.4179C205.3893,-156.6603 231.1561,-143.2907 250.5409,-133.2326"/>
<polygon fill="#191970" stroke="#191970" points="252.2133,-136.308 259.4776,-128.5956 248.9893,-130.0946 252.2133,-136.308"/>
</g>
<!-- Node8&#45;&gt;Node2 -->
<g id="edge11" class="edge">
<title>Node8&#45;&gt;Node2</title>
<path fill="none" stroke="#191970" d="M277.0073,-110.4179C277.0073,-103.2164 277.0073,-92.8962 277.0073,-83.8632"/>
<polygon fill="#191970" stroke="#191970" points="280.5074,-83.7794 277.0073,-73.7795 273.5074,-83.7795 280.5074,-83.7794"/>
</g>
<!-- Node9 -->
<g id="node10" class="node">
<title>Node9</title>
<g id="a_node10"><a xlink:href="vmath_8h.html" target="_top" xlink:title="Vex Specific Math Functions, includes: Cartesian to polar cordinates. ">
<polygon fill="none" stroke="#000000" points="408.2217,-55.5 408.2217,-73.5 459.793,-73.5 459.793,-55.5 408.2217,-55.5"/>
<text text-anchor="middle" x="434.0073" y="-61.5" font-family="Helvetica,sans-Serif" font-size="10.00" fill="#000000">vmath.h</text>
</a>
</g>
</g>
<!-- Node8&#45;&gt;Node9 -->
<g id="edge9" class="edge">
<title>Node8&#45;&gt;Node9</title>
<path fill="none" stroke="#191970" d="M302.9327,-110.4179C329.0321,-101.2748 369.4815,-87.1046 398.5424,-76.924"/>
<polygon fill="#191970" stroke="#191970" points="400.0239,-80.1136 408.3044,-73.5042 397.7096,-73.5073 400.0239,-80.1136"/>
</g>
<!-- Node10 -->
<g id="node11" class="node">
<title>Node10</title>
<polygon fill="none" stroke="#bfbfbf" points="534.7217,-.5 534.7217,-18.5 581.293,-18.5 581.293,-.5 534.7217,-.5"/>
<text text-anchor="middle" x="558.0073" y="-6.5" font-family="Helvetica,sans-Serif" font-size="10.00" fill="#000000">math.h</text>
</g>
<!-- Node9&#45;&gt;Node10 -->
<g id="edge10" class="edge">
<title>Node9&#45;&gt;Node10</title>
<path fill="none" stroke="#191970" d="M454.4834,-55.4179C474.5867,-46.5011 505.4695,-32.803 528.2761,-22.6873"/>
<polygon fill="#191970" stroke="#191970" points="529.7788,-25.8496 537.5008,-18.5956 526.9406,-19.4508 529.7788,-25.8496"/>
</g>
<!-- Node12&#45;&gt;Node1 -->
<g id="edge28" class="edge">
<title>Node12&#45;&gt;Node1</title>
<path fill="none" stroke="#191970" d="M230.3802,-279.5133C194.7985,-271.278 121.7014,-254.2289 60.0073,-239 58.7397,-238.6871 57.4482,-238.3661 56.1441,-238.0402"/>
<polygon fill="#191970" stroke="#191970" points="56.6361,-234.5545 46.0832,-235.4956 54.9197,-241.3408 56.6361,-234.5545"/>
</g>
<!-- Node12&#45;&gt;Node2 -->
<g id="edge15" class="edge">
<title>Node12&#45;&gt;Node2</title>
<path fill="none" stroke="#191970" d="M230.5663,-279.9944C197.5004,-272.5622 136.5534,-256.7749 124.0073,-239 119.1378,-232.101 123.249,-228.4103 124.0073,-220 126.2386,-195.2552 120.6205,-185.9303 134.0073,-165 161.3882,-122.1901 214.1414,-92.3821 247.3536,-76.8852"/>
<polygon fill="#191970" stroke="#191970" points="248.9048,-80.025 256.5745,-72.7156 246.0207,-73.6468 248.9048,-80.025"/>
</g>
<!-- Node12&#45;&gt;Node7 -->
<g id="edge27" class="edge">
<title>Node12&#45;&gt;Node7</title>
<path fill="none" stroke="#191970" d="M230.4353,-279.5016C198.8855,-271.7048 142.6327,-255.7916 131.0073,-239 119.806,-222.8209 135.2869,-203.5678 150.1305,-190.3334"/>
<polygon fill="#191970" stroke="#191970" points="152.6982,-192.7496 158.138,-183.6579 148.2158,-187.3729 152.6982,-192.7496"/>
</g>
<!-- Node12&#45;&gt;Node8 -->
<g id="edge25" class="edge">
<title>Node12&#45;&gt;Node8</title>
<path fill="none" stroke="#191970" d="M253.4231,-275.1561C257.3936,-248.9504 268.6959,-174.3557 274.0828,-138.8021"/>
<polygon fill="#191970" stroke="#191970" points="277.5695,-139.1529 275.6071,-128.7414 270.6485,-138.1042 277.5695,-139.1529"/>
</g>
<!-- Node12&#45;&gt;Node11 -->
<g id="edge17" class="edge">
<title>Node12&#45;&gt;Node11</title>
<path fill="none" stroke="#191970" d="M269.6762,-275.4179C286.7136,-266.6603 312.7235,-253.2907 332.2913,-243.2326"/>
<polygon fill="#191970" stroke="#191970" points="334.0184,-246.2801 341.3122,-238.5956 330.8183,-240.0544 334.0184,-246.2801"/>
</g>
<!-- Node13 -->
<g id="node14" class="node">
<title>Node13</title>
<g id="a_node14"><a xlink:href="motor__ports_8h.html" target="_top" xlink:title="The motor port definitionsMacros for the different motors ports. ">
<polygon fill="none" stroke="#000000" points="418.1602,-220.5 418.1602,-238.5 495.8545,-238.5 495.8545,-220.5 418.1602,-220.5"/>
<text text-anchor="middle" x="457.0073" y="-226.5" font-family="Helvetica,sans-Serif" font-size="10.00" fill="#000000">motor_ports.h</text>
</a>
</g>
</g>
<!-- Node12&#45;&gt;Node13 -->
<g id="edge16" class="edge">
<title>Node12&#45;&gt;Node13</title>
<path fill="none" stroke="#191970" d="M273.5585,-278.718C306.5822,-269.858 370.3844,-252.7403 413.3416,-241.2152"/>
<polygon fill="#191970" stroke="#191970" points="414.4931,-244.5301 423.2446,-238.5583 412.6792,-237.7692 414.4931,-244.5301"/>
</g>
<!-- Node14 -->
<g id="node15" class="node">
<title>Node14</title>
<g id="a_node15"><a xlink:href="slew_8h.html" target="_top" xlink:title="Contains the slew rate controller wrapper for the motors. ">
<polygon fill="none" stroke="#000000" points="590.1084,-165.5 590.1084,-183.5 633.9063,-183.5 633.9063,-165.5 590.1084,-165.5"/>
<text text-anchor="middle" x="612.0073" y="-171.5" font-family="Helvetica,sans-Serif" font-size="10.00" fill="#000000">slew.h</text>
</a>
</g>
</g>
<!-- Node12&#45;&gt;Node14 -->
<g id="edge18" class="edge">
<title>Node12&#45;&gt;Node14</title>
<path fill="none" stroke="#191970" d="M257.2651,-275.1809C265.9731,-260.7096 284.8509,-233.1356 309.0073,-220 355.3621,-194.7935 511.8368,-181.3297 579.9188,-176.5462"/>
<polygon fill="#191970" stroke="#191970" points="580.3185,-180.0272 590.0563,-175.8526 579.8406,-173.0435 580.3185,-180.0272"/>
</g>
<!-- Node17 -->
<g id="node18" class="node">
<title>Node17</title>
<g id="a_node18"><a xlink:href="potentiometer_8h.html" target="_top" xlink:title="potentiometer.h">
<polygon fill="none" stroke="#000000" points="139.5371,-220.5 139.5371,-238.5 224.4775,-238.5 224.4775,-220.5 139.5371,-220.5"/>
<text text-anchor="middle" x="182.0073" y="-226.5" font-family="Helvetica,sans-Serif" font-size="10.00" fill="#000000">potentiometer.h</text>
</a>
</g>
</g>
<!-- Node12&#45;&gt;Node17 -->
<g id="edge26" class="edge">
<title>Node12&#45;&gt;Node17</title>
<path fill="none" stroke="#191970" d="M240.4482,-275.4179C229.9733,-267.1876 214.3141,-254.8839 201.8409,-245.0836"/>
<polygon fill="#191970" stroke="#191970" points="203.8431,-242.2056 193.8175,-238.7795 199.5184,-247.7098 203.8431,-242.2056"/>
</g>
<!-- Node14&#45;&gt;Node2 -->
<g id="edge19" class="edge">
<title>Node14&#45;&gt;Node2</title>
<path fill="none" stroke="#191970" d="M604.7204,-165.2571C592.8362,-150.8902 567.8003,-123.4567 540.0073,-110 499.286,-90.2837 367.6607,-74.172 307.5074,-67.6377"/>
<polygon fill="#191970" stroke="#191970" points="307.796,-64.1487 297.4805,-66.5656 307.0517,-71.109 307.796,-64.1487"/>
</g>
<!-- Node14&#45;&gt;Node10 -->
<g id="edge20" class="edge">
<title>Node14&#45;&gt;Node10</title>
<path fill="none" stroke="#191970" d="M619.8365,-165.4826C626.8441,-156.796 636.6624,-142.9522 641.0073,-129 650.7897,-97.587 659.9132,-83.2252 643.0073,-55 631.78,-36.2553 609.9013,-24.7964 591.1531,-18.0669"/>
<polygon fill="#191970" stroke="#191970" points="592.0208,-14.6682 581.4281,-14.882 589.8421,-21.3205 592.0208,-14.6682"/>
</g>
<!-- Node15 -->
<g id="node16" class="node">
<title>Node15</title>
<g id="a_node16"><a xlink:href="vlib_8h.html" target="_top" xlink:title="Contains misc helpful functions. ">
<polygon fill="none" stroke="#000000" points="592.335,-110.5 592.335,-128.5 631.6797,-128.5 631.6797,-110.5 592.335,-110.5"/>
<text text-anchor="middle" x="612.0073" y="-116.5" font-family="Helvetica,sans-Serif" font-size="10.00" fill="#000000">vlib.h</text>
</a>
</g>
</g>
<!-- Node14&#45;&gt;Node15 -->
<g id="edge21" class="edge">
<title>Node14&#45;&gt;Node15</title>
<path fill="none" stroke="#191970" d="M612.0073,-165.4179C612.0073,-158.2164 612.0073,-147.8962 612.0073,-138.8632"/>
<polygon fill="#191970" stroke="#191970" points="615.5074,-138.7794 612.0073,-128.7795 608.5074,-138.7795 615.5074,-138.7794"/>
</g>
<!-- Node15&#45;&gt;Node2 -->
<g id="edge23" class="edge">
<title>Node15&#45;&gt;Node2</title>
<path fill="none" stroke="#191970" d="M592.3325,-113.5622C587.6638,-112.2758 582.6816,-111.0024 578.0073,-110 479.9041,-88.9623 361.7722,-74.1046 307.2677,-67.8305"/>
<polygon fill="#191970" stroke="#191970" points="307.5713,-64.3425 297.24,-66.6908 306.7808,-71.2977 307.5713,-64.3425"/>
</g>
<!-- Node15&#45;&gt;Node10 -->
<g id="edge22" class="edge">
<title>Node15&#45;&gt;Node10</title>
<path fill="none" stroke="#191970" d="M603.3879,-110.4374C595.5167,-101.719 584.0634,-87.8536 577.0073,-74 569.6396,-59.5345 564.6699,-41.7521 561.6669,-28.5247"/>
<polygon fill="#191970" stroke="#191970" points="565.0758,-27.7266 559.5976,-18.6579 558.2248,-29.1635 565.0758,-27.7266"/>
</g>
<!-- Node16 -->
<g id="node17" class="node">
<title>Node16</title>
<polygon fill="none" stroke="#bfbfbf" points="585.6108,-55.5 585.6108,-73.5 634.4038,-73.5 634.4038,-55.5 585.6108,-55.5"/>
<text text-anchor="middle" x="610.0073" y="-61.5" font-family="Helvetica,sans-Serif" font-size="10.00" fill="#000000">string.h</text>
</g>
<!-- Node15&#45;&gt;Node16 -->
<g id="edge24" class="edge">
<title>Node15&#45;&gt;Node16</title>
<path fill="none" stroke="#191970" d="M611.6771,-110.4179C611.4152,-103.2164 611.0399,-92.8962 610.7114,-83.8632"/>
<polygon fill="#191970" stroke="#191970" points="614.2059,-83.6456 610.3448,-73.7795 607.2106,-83.9001 614.2059,-83.6456"/>
</g>
<!-- Node18&#45;&gt;Node2 -->
<g id="edge31" class="edge">
<title>Node18&#45;&gt;Node2</title>
<path fill="none" stroke="#191970" d="M499.8798,-275.1047C511.6151,-262.7396 528.7013,-240.2024 521.0073,-220 509.3555,-189.4053 497.8814,-185.0583 472.0073,-165 419.146,-124.0204 347.0434,-91.9696 306.9755,-75.8824"/>
<polygon fill="#191970" stroke="#191970" points="308.0966,-72.5621 297.5101,-72.1406 305.5231,-79.0719 308.0966,-72.5621"/>
</g>
<!-- Node18&#45;&gt;Node8 -->
<g id="edge32" class="edge">
<title>Node18&#45;&gt;Node8</title>
<path fill="none" stroke="#191970" d="M496.177,-275.4046C504.3027,-262.1802 516.3103,-237.3346 505.0073,-220 463.9432,-157.023 373.5492,-133.2352 319.7323,-124.4519"/>
<polygon fill="#191970" stroke="#191970" points="320.2199,-120.9859 309.8058,-122.9342 319.1619,-127.9054 320.2199,-120.9859"/>
</g>
<!-- Node18&#45;&gt;Node11 -->
<g id="edge34" class="edge">
<title>Node18&#45;&gt;Node11</title>
<path fill="none" stroke="#191970" d="M468.3753,-275.4179C447.0424,-266.4613 414.2194,-252.6806 390.0948,-242.552"/>
<polygon fill="#191970" stroke="#191970" points="391.2467,-239.2397 380.6714,-238.5956 388.5369,-245.6939 391.2467,-239.2397"/>
</g>
<!-- Node18&#45;&gt;Node13 -->
<g id="edge33" class="edge">
<title>Node18&#45;&gt;Node13</title>
<path fill="none" stroke="#191970" d="M484.558,-275.4179C479.9997,-267.8207 473.3589,-256.7527 467.7393,-247.3866"/>
<polygon fill="#191970" stroke="#191970" points="470.7212,-245.5536 462.575,-238.7795 464.7188,-249.1552 470.7212,-245.5536"/>
</g>
<!-- Node18&#45;&gt;Node14 -->
<g id="edge30" class="edge">
<title>Node18&#45;&gt;Node14</title>
<path fill="none" stroke="#191970" d="M511.9662,-276.9609C530.7735,-269.625 557.6498,-256.9501 576.0073,-239 589.1593,-226.1399 598.8749,-207.4418 604.876,-193.4851"/>
<polygon fill="#191970" stroke="#191970" points="608.2426,-194.4951 608.7365,-183.9118 601.7505,-191.8771 608.2426,-194.4951"/>
</g>
</g>
</svg>
        <g id="navigator" transform="translate(0 0)" fill="#404254">
                <rect fill="#f2f5e9" fill-opacity="0.5" stroke="#606060" stroke-width=".5" x="0" y="0" width="60" height="60"/>
                <use id="zoomplus" xlink:href="#zoomPlus" x="17" y="9" onmousedown="handleZoom(evt,'in')"/>
                <use id="zoomminus" xlink:href="#zoomMin" x="42" y="9" onmousedown="handleZoom(evt,'out')"/>
                <use id="reset" xlink:href="#resetDef" x="30" y="36" onmousedown="handleReset()"/>
                <g id="arrowUp" xlink:href="#dirArrow" transform="translate(30 24)" onmousedown="handlePan(0,-1)">
                  <use xlink:href="#rim" fill="#404040">
                        <set attributeName="fill" to="#808080" begin="arrowUp.mouseover" end="arrowUp.mouseout"/>
                  </use>
                  <path fill="none" stroke="white" stroke-width="1.5" d="M0,-3.0v7 M-2.5,-0.5L0,-3.0L2.5,-0.5"/>
                </g>
                <g id="arrowRight" xlink:href="#dirArrow" transform="rotate(90) translate(36 -43)" onmousedown="handlePan(1,0)">
                  <use xlink:href="#rim" fill="#404040">
                        <set attributeName="fill" to="#808080" begin="arrowRight.mouseover" end="arrowRight.mouseout"/>
                  </use>
                  <path fill="none" stroke="white" stroke-width="1.5" d="M0,-3.0v7 M-2.5,-0.5L0,-3.0L2.5,-0.5"/>
                </g>
                <g id="arrowDown" xlink:href="#dirArrow" transform="rotate(180) translate(-30 -48)" onmousedown="handlePan(0,1)">
                  <use xlink:href="#rim" fill="#404040">
                        <set attributeName="fill" to="#808080" begin="arrowDown.mouseover" end="arrowDown.mouseout"/>
                  </use>
                  <path fill="none" stroke="white" stroke-width="1.5" d="M0,-3.0v7 M-2.5,-0.5L0,-3.0L2.5,-0.5"/>
                </g>
                <g id="arrowLeft" xlink:href="#dirArrow" transform="rotate(270) translate(-36 17)" onmousedown="handlePan(-1,0)">
                  <use xlink:href="#rim" fill="#404040">
                        <set attributeName="fill" to="#808080" begin="arrowLeft.mouseover" end="arrowLeft.mouseout"/>
                  </use>
                  <path fill="none" stroke="white" stroke-width="1.5" d="M0,-3.0v7 M-2.5,-0.5L0,-3.0L2.5,-0.5"/>
                </g>
        </g>
        <svg viewBox="0 0 15 15" width="100%" height="30px" preserveAspectRatio="xMaxYMin meet">
         <g id="arrow_out" transform="scale(0.3 0.3)">
          <a xlink:href="auto_8h__incl_org.svg" target="_base">
           <rect id="button" ry="5" rx="5" y="6" x="6" height="38" width="38"
                fill="#f2f5e9" fill-opacity="0.5" stroke="#606060" stroke-width="1.0"/>
           <path id="arrow"
             d="M 11.500037,31.436501 C 11.940474,20.09759 22.043105,11.32322 32.158766,21.979434 L 37.068811,17.246167 C 37.068811,17.246167 37.088388,32 37.088388,32 L 22.160133,31.978069 C 22.160133,31.978069 26.997745,27.140456 26.997745,27.140456 C 18.528582,18.264221 13.291696,25.230495 11.500037,31.436501 z"
             style="fill:#404040;"/>
          </a>
         </g>
        </svg>
</svg>
