<?xml version="1.0" encoding="UTF-8" standalone="no"?>
<!DOCTYPE svg PUBLIC "-//W3C//DTD SVG 1.1//EN"
 "http://www.w3.org/Graphics/SVG/1.1/DTD/svg11.dtd">
<!-- Generated by graphviz version 2.40.1 (20161225.0304)
 -->
<!-- Title: auton_turn_180 Pages: 1 -->
<!--zoomable 289 -->
<svg id="main" version="1.1" xmlns="http://www.w3.org/2000/svg" xmlns:xlink="http://www.w3.org/1999/xlink" xml:space="preserve" onload="init(evt)">
<style type="text/css"><![CDATA[
.edge:hover path { stroke: red; }
.edge:hover polygon { stroke: red; fill: red; }
]]></style>
<script type="text/javascript"><![CDATA[
var edges = document.getElementsByTagName('g');
if (edges && edges.length) {
  for (var i=0;i<edges.length;i++) {
    if (edges[i].id.substr(0,4)=='edge') {
      edges[i].setAttribute('class','edge');
    }
  }
}
]]></script>
        <defs>
                <circle id="rim" cx="0" cy="0" r="7"/>
                <circle id="rim2" cx="0" cy="0" r="3.5"/>
                <g id="zoomPlus">
                        <use xlink:href="#rim" fill="#404040">
                                <set attributeName="fill" to="#808080" begin="zoomplus.mouseover" end="zoomplus.mouseout"/>
                        </use>
                        <path d="M-4,0h8M0,-4v8" fill="none" stroke="white" stroke-width="1.5" pointer-events="none"/>
                </g>
                <g id="zoomMin">
                        <use xlink:href="#rim" fill="#404040">
                                <set attributeName="fill" to="#808080" begin="zoomminus.mouseover" end="zoomminus.mouseout"/>
                        </use>
                        <path d="M-4,0h8" fill="none" stroke="white" stroke-width="1.5" pointer-events="none"/>
                </g>
                <g id="dirArrow">
                        <path fill="none" stroke="white" stroke-width="1.5" d="M0,-3.0v7 M-2.5,-0.5L0,-3.0L2.5,-0.5"/>
                </g>
               <g id="resetDef">
                       <use xlink:href="#rim2" fill="#404040">
                               <set attributeName="fill" to="#808080" begin="reset.mouseover" end="reset.mouseout"/>
                       </use>
               </g>
        </defs>

<script type="text/javascript">
var viewWidth = 815;
var viewHeight = 289;
var sectionId = 'dynsection-6';
</script>
<script xlink:href="svgpan.js"/>
<svg id="graph" class="graph">
<g id="viewport">
<title>auton_turn_180</title>
<!-- Node63 -->
<g id="node1" class="node">
<title>Node63</title>
<polygon fill="#bfbfbf" stroke="#000000" points="0,-94.5 0,-112.5 86.0635,-112.5 86.0635,-94.5 0,-94.5"/>
<text text-anchor="middle" x="43.0317" y="-100.5" font-family="Helvetica,sans-Serif" font-size="10.00" fill="#000000">auton_turn_180</text>
</g>
<!-- Node64 -->
<g id="node2" class="node">
<title>Node64</title>
<g id="a_node2"><a xlink:href="localization_8h.html#a5dd17937f5561711cd12cdefa8d31869" target="_top" xlink:title="Calculates the angle using the encoders. ">
<polygon fill="none" stroke="#000000" points="122.0635,-113.5 122.0635,-131.5 249.2598,-131.5 249.2598,-113.5 122.0635,-113.5"/>
<text text-anchor="middle" x="185.6616" y="-119.5" font-family="Helvetica,sans-Serif" font-size="10.00" fill="#000000">calculate_encoder_angle</text>
</a>
</g>
</g>
<!-- Node63&#45;&gt;Node64 -->
<g id="edge1" class="edge">
<title>Node63&#45;&gt;Node64</title>
<path fill="none" stroke="#191970" d="M86.2125,-109.2522C94.3738,-110.3394 103.1206,-111.5046 111.9168,-112.6763"/>
<polygon fill="#191970" stroke="#191970" points="111.4657,-116.1471 121.8404,-113.9982 112.3901,-109.2084 111.4657,-116.1471"/>
</g>
<!-- Node67 -->
<g id="node5" class="node">
<title>Node67</title>
<g id="a_node5"><a xlink:href="drive_8h.html#a8df41fd50094c065eedc81fc5e6595d1" target="_top" xlink:title="sets the speed of one side of the robot. ">
<polygon fill="none" stroke="#000000" points="142.6348,-76.5 142.6348,-94.5 228.6885,-94.5 228.6885,-76.5 142.6348,-76.5"/>
<text text-anchor="middle" x="185.6616" y="-82.5" font-family="Helvetica,sans-Serif" font-size="10.00" fill="#000000">set_side_speed</text>
</a>
</g>
</g>
<!-- Node63&#45;&gt;Node67 -->
<g id="edge4" class="edge">
<title>Node63&#45;&gt;Node67</title>
<path fill="none" stroke="#191970" d="M86.2125,-98.0506C100.7352,-96.2178 117.1118,-94.151 132.3214,-92.2316"/>
<polygon fill="#191970" stroke="#191970" points="133.1446,-95.6555 142.6277,-90.9309 132.2681,-88.7106 133.1446,-95.6555"/>
</g>
<!-- Node65 -->
<g id="node3" class="node">
<title>Node65</title>
<g id="a_node3"><a xlink:href="encoders_8h.html#aed261dd4dae33a48c42f2e363c84760f" target="_top" xlink:title="Gets the encoder ticks since last reset. ">
<polygon fill="none" stroke="#000000" points="285.2598,-150.5 285.2598,-168.5 382.4219,-168.5 382.4219,-150.5 285.2598,-150.5"/>
<text text-anchor="middle" x="333.8408" y="-156.5" font-family="Helvetica,sans-Serif" font-size="10.00" fill="#000000">get_encoder_ticks</text>
</a>
</g>
</g>
<!-- Node64&#45;&gt;Node65 -->
<g id="edge2" class="edge">
<title>Node64&#45;&gt;Node65</title>
<path fill="none" stroke="#191970" d="M221.9103,-131.5512C241.8072,-136.5194 266.6812,-142.7304 287.9243,-148.0348"/>
<polygon fill="#191970" stroke="#191970" points="287.1598,-151.4512 297.7098,-150.4782 288.8556,-144.6598 287.1598,-151.4512"/>
</g>
<!-- Node66 -->
<g id="node4" class="node">
<title>Node66</title>
<g id="a_node4"><a xlink:href="_a_p_i_8h.html#ac4f1500418a729ac3ee95bce9768b20c" target="_top" xlink:title="Gets the current 32&#45;bit count of the specified IME. ">
<polygon fill="none" stroke="#000000" points="421.481,-188.5 421.481,-206.5 469.7124,-206.5 469.7124,-188.5 421.481,-188.5"/>
<text text-anchor="middle" x="445.5967" y="-194.5" font-family="Helvetica,sans-Serif" font-size="10.00" fill="#000000">imeGet</text>
</a>
</g>
</g>
<!-- Node65&#45;&gt;Node66 -->
<g id="edge3" class="edge">
<title>Node65&#45;&gt;Node66</title>
<path fill="none" stroke="#191970" d="M360.3254,-168.5055C375.6128,-173.7036 395.0035,-180.297 411.4301,-185.8824"/>
<polygon fill="#191970" stroke="#191970" points="410.6172,-189.3028 421.2116,-189.2084 412.8707,-182.6754 410.6172,-189.3028"/>
</g>
<!-- Node68 -->
<g id="node6" class="node">
<title>Node68</title>
<g id="a_node6"><a xlink:href="slew_8h.html#a7dff2b79dffe55fb936d977594d7c01d" target="_top" xlink:title="Sets motor speed wrapped inside the slew rate controller. ">
<polygon fill="none" stroke="#000000" points="290.8262,-76.5 290.8262,-94.5 376.8555,-94.5 376.8555,-76.5 290.8262,-76.5"/>
<text text-anchor="middle" x="333.8408" y="-82.5" font-family="Helvetica,sans-Serif" font-size="10.00" fill="#000000">set_motor_slew</text>
</a>
</g>
</g>
<!-- Node67&#45;&gt;Node68 -->
<g id="edge5" class="edge">
<title>Node67&#45;&gt;Node68</title>
<path fill="none" stroke="#191970" d="M228.9195,-85.5C245.0487,-85.5 263.5505,-85.5 280.4816,-85.5"/>
<polygon fill="#191970" stroke="#191970" points="280.7854,-89.0001 290.7853,-85.5 280.7853,-82.0001 280.7854,-89.0001"/>
</g>
<!-- Node69 -->
<g id="node7" class="node">
<title>Node69</title>
<g id="a_node7"><a xlink:href="log_8h.html#af3668f40d1ad1b4f3418869ac9a31f34" target="_top" xlink:title="prints a info message ">
<polygon fill="none" stroke="#000000" points="423.6929,-.5 423.6929,-18.5 467.5005,-18.5 467.5005,-.5 423.6929,-.5"/>
<text text-anchor="middle" x="445.5967" y="-6.5" font-family="Helvetica,sans-Serif" font-size="10.00" fill="#000000">debug</text>
</a>
</g>
</g>
<!-- Node68&#45;&gt;Node69 -->
<g id="edge6" class="edge">
<title>Node68&#45;&gt;Node69</title>
<path fill="none" stroke="#191970" d="M347.0995,-76.4834C366.0874,-63.5706 401.2404,-39.6646 424.0094,-24.1805"/>
<polygon fill="#191970" stroke="#191970" points="426.0543,-27.0225 432.3552,-18.5049 422.1179,-21.2342 426.0543,-27.0225"/>
</g>
<!-- Node71 -->
<g id="node9" class="node">
<title>Node71</title>
<g id="a_node9"><a xlink:href="slew_8c.html#a321758941d88b75783955c819bb75005" target="_top" xlink:title="Initializes the slew rate controller. ">
<polygon fill="none" stroke="#000000" points="418.4219,-151.5 418.4219,-169.5 472.7715,-169.5 472.7715,-151.5 418.4219,-151.5"/>
<text text-anchor="middle" x="445.5967" y="-157.5" font-family="Helvetica,sans-Serif" font-size="10.00" fill="#000000">init_slew</text>
</a>
</g>
</g>
<!-- Node68&#45;&gt;Node71 -->
<g id="edge8" class="edge">
<title>Node68&#45;&gt;Node71</title>
<path fill="none" stroke="#191970" d="M347.5443,-94.6965C366.4984,-107.4167 400.9307,-130.5244 423.533,-145.693"/>
<polygon fill="#191970" stroke="#191970" points="421.8764,-148.7962 432.1302,-151.4626 425.7771,-142.9838 421.8764,-148.7962"/>
</g>
<!-- Node81 -->
<g id="node18" class="node">
<title>Node81</title>
<g id="a_node18"><a xlink:href="_a_p_i_8h.html#a8b51124628d2a7741738d48551d1e8ee" target="_top" xlink:title="Requests a mutex so that other tasks cannot simultaneously use the resource it guards. ">
<polygon fill="none" stroke="#000000" points="621.9189,-113.5 621.9189,-131.5 686.2734,-131.5 686.2734,-113.5 621.9189,-113.5"/>
<text text-anchor="middle" x="654.0962" y="-119.5" font-family="Helvetica,sans-Serif" font-size="10.00" fill="#000000">mutexTake</text>
</a>
</g>
</g>
<!-- Node68&#45;&gt;Node81 -->
<g id="edge22" class="edge">
<title>Node68&#45;&gt;Node81</title>
<path fill="none" stroke="#191970" d="M376.9185,-86.754C427.3142,-88.7197 513.1281,-93.6208 585.9189,-105.5 594.5723,-106.9122 603.7408,-108.8715 612.4531,-110.9593"/>
<polygon fill="#191970" stroke="#191970" points="611.8629,-114.4193 622.4128,-113.4442 613.5575,-107.6275 611.8629,-114.4193"/>
</g>
<!-- Node82 -->
<g id="node19" class="node">
<title>Node82</title>
<g id="a_node19"><a xlink:href="_a_p_i_8h.html#afe171a08d22de18fc2ab604b2364959f" target="_top" xlink:title="Relinquishes a mutex so that other tasks can use the resource it guards. ">
<polygon fill="none" stroke="#000000" points="622.1997,-76.5 622.1997,-94.5 685.9927,-94.5 685.9927,-76.5 622.1997,-76.5"/>
<text text-anchor="middle" x="654.0962" y="-82.5" font-family="Helvetica,sans-Serif" font-size="10.00" fill="#000000">mutexGive</text>
</a>
</g>
</g>
<!-- Node68&#45;&gt;Node82 -->
<g id="edge21" class="edge">
<title>Node68&#45;&gt;Node82</title>
<path fill="none" stroke="#191970" d="M377.1343,-76.9323C390.3334,-74.6994 404.923,-72.6096 418.4219,-71.5 492.6148,-65.4012 511.8572,-63.9743 585.9189,-71.5 594.4729,-72.3692 603.5389,-73.8368 612.1715,-75.503"/>
<polygon fill="#191970" stroke="#191970" points="611.5506,-78.9485 622.0496,-77.5263 612.9553,-72.0908 611.5506,-78.9485"/>
</g>
<!-- Node70 -->
<g id="node8" class="node">
<title>Node70</title>
<g id="a_node8"><a xlink:href="_a_p_i_8h.html#a403c82418e475fa4a8273719e6a7f3e6" target="_top" xlink:title="Prints the formatted string to the debug stream (the PC terminal). ">
<polygon fill="none" stroke="#000000" points="745.3423,-94.5 745.3423,-112.5 783.5737,-112.5 783.5737,-94.5 745.3423,-94.5"/>
<text text-anchor="middle" x="764.458" y="-100.5" font-family="Helvetica,sans-Serif" font-size="10.00" fill="#000000">printf</text>
</a>
</g>
</g>
<!-- Node69&#45;&gt;Node70 -->
<g id="edge7" class="edge">
<title>Node69&#45;&gt;Node70</title>
<path fill="none" stroke="#191970" d="M467.5788,-13.3081C510.4043,-21.0509 607.7022,-40.2363 686.2734,-67.5 703.9923,-73.6483 723.1297,-82.421 738.0358,-89.7669"/>
<polygon fill="#191970" stroke="#191970" points="736.6552,-92.99 747.1628,-94.3463 739.7944,-86.7334 736.6552,-92.99"/>
</g>
<!-- Node72 -->
<g id="node10" class="node">
<title>Node72</title>
<g id="a_node10"><a xlink:href="log_8h.html#a0bec2cf5fff7f607bc510b74aba9887c" target="_top" xlink:title="prints a warning message and displays on lcd. ">
<polygon fill="none" stroke="#000000" points="521.8354,-225.5 521.8354,-243.5 572.855,-243.5 572.855,-225.5 521.8354,-225.5"/>
<text text-anchor="middle" x="547.3452" y="-231.5" font-family="Helvetica,sans-Serif" font-size="10.00" fill="#000000">warning</text>
</a>
</g>
</g>
<!-- Node71&#45;&gt;Node72 -->
<g id="edge9" class="edge">
<title>Node71&#45;&gt;Node72</title>
<path fill="none" stroke="#191970" d="M459.7974,-169.6784C464.0922,-172.6507 468.7367,-176.0694 472.7715,-179.5 490.2512,-194.362 490.0694,-203.209 508.7715,-216.5 510.8271,-217.9609 513.0201,-219.3521 515.2774,-220.6663"/>
<polygon fill="#191970" stroke="#191970" points="513.6681,-223.7745 524.147,-225.3378 516.9301,-217.581 513.6681,-223.7745"/>
</g>
<!-- Node77 -->
<g id="node14" class="node">
<title>Node77</title>
<g id="a_node14"><a xlink:href="_a_p_i_8h.html#a8966c541f3e9565aea1289f0d2f2cf43" target="_top" xlink:title="Stops all motors; significantly faster than looping through all motor ports and calling motorSet(chan...">
<polygon fill="none" stroke="#000000" points="510.7222,-151.5 510.7222,-169.5 583.9683,-169.5 583.9683,-151.5 510.7222,-151.5"/>
<text text-anchor="middle" x="547.3452" y="-157.5" font-family="Helvetica,sans-Serif" font-size="10.00" fill="#000000">motorStopAll</text>
</a>
</g>
</g>
<!-- Node71&#45;&gt;Node77 -->
<g id="edge14" class="edge">
<title>Node71&#45;&gt;Node77</title>
<path fill="none" stroke="#191970" d="M472.8634,-160.5C481.3364,-160.5 490.9319,-160.5 500.3491,-160.5"/>
<polygon fill="#191970" stroke="#191970" points="500.4363,-164.0001 510.4363,-160.5 500.4363,-157.0001 500.4363,-164.0001"/>
</g>
<!-- Node78 -->
<g id="node15" class="node">
<title>Node78</title>
<g id="a_node15"><a xlink:href="_a_p_i_8h.html#aecd027ce8f8b52a765735e9eb5b202b3" target="_top" xlink:title="Creates a mutex intended to allow only one task to use a resource at a time. ">
<polygon fill="none" stroke="#000000" points="510.7222,-114.5 510.7222,-132.5 583.9683,-132.5 583.9683,-114.5 510.7222,-114.5"/>
<text text-anchor="middle" x="547.3452" y="-120.5" font-family="Helvetica,sans-Serif" font-size="10.00" fill="#000000">mutexCreate</text>
</a>
</g>
</g>
<!-- Node71&#45;&gt;Node78 -->
<g id="edge15" class="edge">
<title>Node71&#45;&gt;Node78</title>
<path fill="none" stroke="#191970" d="M470.4872,-151.4488C483.1749,-146.835 498.8099,-141.1494 512.6585,-136.1135"/>
<polygon fill="#191970" stroke="#191970" points="514.1573,-139.2928 522.359,-132.586 511.765,-132.7143 514.1573,-139.2928"/>
</g>
<!-- Node79 -->
<g id="node16" class="node">
<title>Node79</title>
<g id="a_node16"><a xlink:href="_a_p_i_8h.html#ab05a241d6d1fd98b1ceb4665db678156" target="_top" xlink:title="Starts a task which will periodically call the specified function. ">
<polygon fill="none" stroke="#000000" points="509.8799,-262.5 509.8799,-280.5 584.8105,-280.5 584.8105,-262.5 509.8799,-262.5"/>
<text text-anchor="middle" x="547.3452" y="-268.5" font-family="Helvetica,sans-Serif" font-size="10.00" fill="#000000">taskRunLoop</text>
</a>
</g>
</g>
<!-- Node71&#45;&gt;Node79 -->
<g id="edge16" class="edge">
<title>Node71&#45;&gt;Node79</title>
<path fill="none" stroke="#191970" d="M461.3789,-169.527C465.4353,-172.3553 469.5568,-175.7349 472.7715,-179.5 496.5202,-207.3151 482.7013,-227.8481 508.7715,-253.5 510.0028,-254.7116 511.3309,-255.8519 512.7277,-256.924"/>
<polygon fill="#191970" stroke="#191970" points="510.9637,-259.9496 521.2859,-262.3378 514.7059,-254.0339 510.9637,-259.9496"/>
</g>
<!-- Node80 -->
<g id="node17" class="node">
<title>Node80</title>
<g id="a_node17"><a xlink:href="slew_8c.html#a807a87c5df438fde21c1e8213906695b" target="_top" xlink:title="Closes the distance between the desired motor value and the current motor value by half for each moto...">
<polygon fill="none" stroke="#000000" points="508.7715,-188.5 508.7715,-206.5 585.9189,-206.5 585.9189,-188.5 508.7715,-188.5"/>
<text text-anchor="middle" x="547.3452" y="-194.5" font-family="Helvetica,sans-Serif" font-size="10.00" fill="#000000">updateMotors</text>
</a>
</g>
</g>
<!-- Node71&#45;&gt;Node80 -->
<g id="edge17" class="edge">
<title>Node71&#45;&gt;Node80</title>
<path fill="none" stroke="#191970" d="M470.4872,-169.5512C483.1749,-174.165 498.8099,-179.8506 512.6585,-184.8865"/>
<polygon fill="#191970" stroke="#191970" points="511.765,-188.2857 522.359,-188.414 514.1573,-181.7072 511.765,-188.2857"/>
</g>
<!-- Node73 -->
<g id="node11" class="node">
<title>Node73</title>
<g id="a_node11"><a xlink:href="log_8c.html#afff22aff6749311a684a559cac3ac8bd" target="_top" xlink:title="prints a log info message to the lcd ">
<polygon fill="none" stroke="#ff0000" points="628.5815,-225.5 628.5815,-243.5 679.6108,-243.5 679.6108,-225.5 628.5815,-225.5"/>
<text text-anchor="middle" x="654.0962" y="-231.5" font-family="Helvetica,sans-Serif" font-size="10.00" fill="#000000">log_info</text>
</a>
</g>
</g>
<!-- Node72&#45;&gt;Node73 -->
<g id="edge10" class="edge">
<title>Node72&#45;&gt;Node73</title>
<path fill="none" stroke="#191970" d="M572.9147,-234.5C586.4154,-234.5 603.2091,-234.5 618.013,-234.5"/>
<polygon fill="#191970" stroke="#191970" points="618.3654,-238.0001 628.3653,-234.5 618.3653,-231.0001 618.3654,-238.0001"/>
</g>
<!-- Node73&#45;&gt;Node70 -->
<g id="edge11" class="edge">
<title>Node73&#45;&gt;Node70</title>
<path fill="none" stroke="#191970" d="M673.7739,-225.3657C678.1487,-222.8413 682.579,-219.8584 686.2734,-216.5 717.1656,-188.4182 742.358,-145.9245 755.2075,-121.8454"/>
<polygon fill="#191970" stroke="#191970" points="758.4295,-123.2356 759.9393,-112.7488 752.2194,-120.0052 758.4295,-123.2356"/>
</g>
<!-- Node74 -->
<g id="node12" class="node">
<title>Node74</title>
<g id="a_node12"><a xlink:href="_a_p_i_8h.html#aab53a247d88151a6623c20fa1ea940b0" target="_top" xlink:title="Sets the specified LCD backlight to be on or off. ">
<polygon fill="none" stroke="#000000" points="722.2734,-206.5 722.2734,-224.5 806.6426,-224.5 806.6426,-206.5 722.2734,-206.5"/>
<text text-anchor="middle" x="764.458" y="-212.5" font-family="Helvetica,sans-Serif" font-size="10.00" fill="#000000">lcdSetBacklight</text>
</a>
</g>
</g>
<!-- Node73&#45;&gt;Node74 -->
<g id="edge12" class="edge">
<title>Node73&#45;&gt;Node74</title>
<path fill="none" stroke="#191970" d="M679.6928,-230.0933C689.4442,-228.4145 700.9455,-226.4344 712.2776,-224.4834"/>
<polygon fill="#191970" stroke="#191970" points="712.8831,-227.9308 722.1443,-222.7848 711.6954,-221.0322 712.8831,-227.9308"/>
</g>
<!-- Node75 -->
<g id="node13" class="node">
<title>Node75</title>
<g id="a_node13"><a xlink:href="_a_p_i_8h.html#a5fa1d119fe3e836b5519f97eae7a1272" target="_top" xlink:title="Clears the LCD screen on the specified port. ">
<polygon fill="none" stroke="#000000" points="738.1182,-243.5 738.1182,-261.5 790.7979,-261.5 790.7979,-243.5 738.1182,-243.5"/>
<text text-anchor="middle" x="764.458" y="-249.5" font-family="Helvetica,sans-Serif" font-size="10.00" fill="#000000">lcdClear</text>
</a>
</g>
</g>
<!-- Node73&#45;&gt;Node75 -->
<g id="edge13" class="edge">
<title>Node73&#45;&gt;Node75</title>
<path fill="none" stroke="#191970" d="M679.6928,-238.6748C694.0049,-241.0091 712.0868,-243.9583 727.8705,-246.5326"/>
<polygon fill="#191970" stroke="#191970" points="727.415,-250.0045 737.848,-248.1599 728.5419,-243.0957 727.415,-250.0045"/>
</g>
<!-- Node80&#45;&gt;Node81 -->
<g id="edge18" class="edge">
<title>Node80&#45;&gt;Node81</title>
<path fill="none" stroke="#191970" d="M569.4947,-188.3644C575.0104,-185.7676 580.8056,-182.7521 585.9189,-179.5 604.6774,-167.5696 623.9186,-151.011 637.1562,-138.814"/>
<polygon fill="#191970" stroke="#191970" points="639.6663,-141.2583 644.5646,-131.8638 634.8769,-136.1532 639.6663,-141.2583"/>
</g>
<!-- Node80&#45;&gt;Node82 -->
<g id="edge19" class="edge">
<title>Node80&#45;&gt;Node82</title>
<path fill="none" stroke="#191970" d="M573.4195,-188.353C577.9499,-185.9605 582.3462,-183.0339 585.9189,-179.5 612.2061,-153.4982 596.9203,-131.743 621.9189,-104.5 623.1252,-103.1855 624.4435,-101.9341 625.8361,-100.7476"/>
<polygon fill="#191970" stroke="#191970" points="628.2477,-103.3266 634.3576,-94.6709 624.1835,-97.6272 628.2477,-103.3266"/>
</g>
<!-- Node83 -->
<g id="node20" class="node">
<title>Node83</title>
<g id="a_node20"><a xlink:href="_a_p_i_8h.html#a03c5b04b472d024281f62d7af8854a8e" target="_top" xlink:title="Sets the speed of the specified motor channel. ">
<polygon fill="none" stroke="#000000" points="625.8105,-188.5 625.8105,-206.5 682.3818,-206.5 682.3818,-188.5 625.8105,-188.5"/>
<text text-anchor="middle" x="654.0962" y="-194.5" font-family="Helvetica,sans-Serif" font-size="10.00" fill="#000000">motorSet</text>
</a>
</g>
</g>
<!-- Node80&#45;&gt;Node83 -->
<g id="edge20" class="edge">
<title>Node80&#45;&gt;Node83</title>
<path fill="none" stroke="#191970" d="M586.1867,-197.5C595.7307,-197.5 605.9457,-197.5 615.4791,-197.5"/>
<polygon fill="#191970" stroke="#191970" points="615.4922,-201.0001 625.4922,-197.5 615.4921,-194.0001 615.4922,-201.0001"/>
</g>
</g>
</svg>
        <g id="navigator" transform="translate(0 0)" fill="#404254">
                <rect fill="#f2f5e9" fill-opacity="0.5" stroke="#606060" stroke-width=".5" x="0" y="0" width="60" height="60"/>
                <use id="zoomplus" xlink:href="#zoomPlus" x="17" y="9" onmousedown="handleZoom(evt,'in')"/>
                <use id="zoomminus" xlink:href="#zoomMin" x="42" y="9" onmousedown="handleZoom(evt,'out')"/>
                <use id="reset" xlink:href="#resetDef" x="30" y="36" onmousedown="handleReset()"/>
                <g id="arrowUp" xlink:href="#dirArrow" transform="translate(30 24)" onmousedown="handlePan(0,-1)">
                  <use xlink:href="#rim" fill="#404040">
                        <set attributeName="fill" to="#808080" begin="arrowUp.mouseover" end="arrowUp.mouseout"/>
                  </use>
                  <path fill="none" stroke="white" stroke-width="1.5" d="M0,-3.0v7 M-2.5,-0.5L0,-3.0L2.5,-0.5"/>
                </g>
                <g id="arrowRight" xlink:href="#dirArrow" transform="rotate(90) translate(36 -43)" onmousedown="handlePan(1,0)">
                  <use xlink:href="#rim" fill="#404040">
                        <set attributeName="fill" to="#808080" begin="arrowRight.mouseover" end="arrowRight.mouseout"/>
                  </use>
                  <path fill="none" stroke="white" stroke-width="1.5" d="M0,-3.0v7 M-2.5,-0.5L0,-3.0L2.5,-0.5"/>
                </g>
                <g id="arrowDown" xlink:href="#dirArrow" transform="rotate(180) translate(-30 -48)" onmousedown="handlePan(0,1)">
                  <use xlink:href="#rim" fill="#404040">
                        <set attributeName="fill" to="#808080" begin="arrowDown.mouseover" end="arrowDown.mouseout"/>
                  </use>
                  <path fill="none" stroke="white" stroke-width="1.5" d="M0,-3.0v7 M-2.5,-0.5L0,-3.0L2.5,-0.5"/>
                </g>
                <g id="arrowLeft" xlink:href="#dirArrow" transform="rotate(270) translate(-36 17)" onmousedown="handlePan(-1,0)">
                  <use xlink:href="#rim" fill="#404040">
                        <set attributeName="fill" to="#808080" begin="arrowLeft.mouseover" end="arrowLeft.mouseout"/>
                  </use>
                  <path fill="none" stroke="white" stroke-width="1.5" d="M0,-3.0v7 M-2.5,-0.5L0,-3.0L2.5,-0.5"/>
                </g>
        </g>
        <svg viewBox="0 0 15 15" width="100%" height="30px" preserveAspectRatio="xMaxYMin meet">
         <g id="arrow_out" transform="scale(0.3 0.3)">
          <a xlink:href="auto_8c_a8141105864165fcb16d70f7cc72a1b6f_cgraph_org.svg" target="_base">
           <rect id="button" ry="5" rx="5" y="6" x="6" height="38" width="38"
                fill="#f2f5e9" fill-opacity="0.5" stroke="#606060" stroke-width="1.0"/>
           <path id="arrow"
             d="M 11.500037,31.436501 C 11.940474,20.09759 22.043105,11.32322 32.158766,21.979434 L 37.068811,17.246167 C 37.068811,17.246167 37.088388,32 37.088388,32 L 22.160133,31.978069 C 22.160133,31.978069 26.997745,27.140456 26.997745,27.140456 C 18.528582,18.264221 13.291696,25.230495 11.500037,31.436501 z"
             style="fill:#404040;"/>
          </a>
         </g>
        </svg>
</svg>
