<?xml version="1.0" encoding="UTF-8" standalone="no"?>
<!DOCTYPE svg PUBLIC "-//W3C//DTD SVG 1.1//EN"
 "http://www.w3.org/Graphics/SVG/1.1/DTD/svg11.dtd">
<!-- Generated by graphviz version 2.40.1 (20161225.0304)
 -->
<!-- Title: src/auto.c Pages: 1 -->
<!--zoomable 412 -->
<svg id="main" version="1.1" xmlns="http://www.w3.org/2000/svg" xmlns:xlink="http://www.w3.org/1999/xlink" xml:space="preserve" onload="init(evt)">
<style type="text/css"><![CDATA[
.edge:hover path { stroke: red; }
.edge:hover polygon { stroke: red; fill: red; }
]]></style>
<script type="text/javascript"><![CDATA[
var edges = document.getElementsByTagName('g');
if (edges && edges.length) {
  for (var i=0;i<edges.length;i++) {
    if (edges[i].id.substr(0,4)=='edge') {
      edges[i].setAttribute('class','edge');
    }
  }
}
]]></script>
        <defs>
                <circle id="rim" cx="0" cy="0" r="7"/>
                <circle id="rim2" cx="0" cy="0" r="3.5"/>
                <g id="zoomPlus">
                        <use xlink:href="#rim" fill="#404040">
                                <set attributeName="fill" to="#808080" begin="zoomplus.mouseover" end="zoomplus.mouseout"/>
                        </use>
                        <path d="M-4,0h8M0,-4v8" fill="none" stroke="white" stroke-width="1.5" pointer-events="none"/>
                </g>
                <g id="zoomMin">
                        <use xlink:href="#rim" fill="#404040">
                                <set attributeName="fill" to="#808080" begin="zoomminus.mouseover" end="zoomminus.mouseout"/>
                        </use>
                        <path d="M-4,0h8" fill="none" stroke="white" stroke-width="1.5" pointer-events="none"/>
                </g>
                <g id="dirArrow">
                        <path fill="none" stroke="white" stroke-width="1.5" d="M0,-3.0v7 M-2.5,-0.5L0,-3.0L2.5,-0.5"/>
                </g>
               <g id="resetDef">
                       <use xlink:href="#rim2" fill="#404040">
                               <set attributeName="fill" to="#808080" begin="reset.mouseover" end="reset.mouseout"/>
                       </use>
               </g>
        </defs>

<script type="text/javascript">
var viewWidth = 737;
var viewHeight = 412;
var sectionId = 'dynsection-0';
</script>
<script xlink:href="svgpan.js"/>
<svg id="graph" class="graph">
<g id="viewport">
<title>src/auto.c</title>
<!-- Node0 -->
<g id="node1" class="node">
<title>Node0</title>
<polygon fill="#bfbfbf" stroke="#000000" points="110.3252,-385.5 110.3252,-403.5 169.6748,-403.5 169.6748,-385.5 110.3252,-385.5"/>
<text text-anchor="middle" x="140" y="-391.5" font-family="Helvetica,sans-Serif" font-size="10.00" fill="#000000">src/auto.c</text>
</g>
<!-- Node1 -->
<g id="node2" class="node">
<title>Node1</title>
<g id="a_node2"><a xlink:href="main_8h.html" target="_top" xlink:title="Header file for global functions. ">
<polygon fill="none" stroke="#000000" points="85.9927,-330.5 85.9927,-348.5 132.0073,-348.5 132.0073,-330.5 85.9927,-330.5"/>
<text text-anchor="middle" x="109" y="-336.5" font-family="Helvetica,sans-Serif" font-size="10.00" fill="#000000">main.h</text>
</a>
</g>
</g>
<!-- Node0&#45;&gt;Node1 -->
<g id="edge1" class="edge">
<title>Node0&#45;&gt;Node1</title>
<path fill="none" stroke="#191970" d="M134.881,-385.4179C130.6435,-377.8998 124.4903,-366.9829 119.2468,-357.6799"/>
<polygon fill="#191970" stroke="#191970" points="122.1895,-355.7724 114.2302,-348.7795 116.0914,-359.2096 122.1895,-355.7724"/>
</g>
<!-- Node7 -->
<g id="node8" class="node">
<title>Node7</title>
<g id="a_node8"><a xlink:href="auto_8h.html" target="_top" xlink:title="auto.h">
<polygon fill="none" stroke="#000000" points="239.0986,-330.5 239.0986,-348.5 282.9014,-348.5 282.9014,-330.5 239.0986,-330.5"/>
<text text-anchor="middle" x="261" y="-336.5" font-family="Helvetica,sans-Serif" font-size="10.00" fill="#000000">auto.h</text>
</a>
</g>
</g>
<!-- Node0&#45;&gt;Node7 -->
<g id="edge7" class="edge">
<title>Node0&#45;&gt;Node7</title>
<path fill="none" stroke="#191970" d="M159.9807,-385.4179C179.51,-376.5409 209.4644,-362.9253 231.6895,-352.823"/>
<polygon fill="#191970" stroke="#191970" points="233.3343,-355.92 240.9896,-348.5956 230.4376,-349.5474 233.3343,-355.92"/>
</g>
<!-- Node2 -->
<g id="node3" class="node">
<title>Node2</title>
<g id="a_node3"><a xlink:href="_a_p_i_8h.html" target="_top" xlink:title="Provides the high&#45;level user functionality intended for use by typical VEX Cortex programmers...">
<polygon fill="none" stroke="#000000" points="233.771,-55.5 233.771,-73.5 274.229,-73.5 274.229,-55.5 233.771,-55.5"/>
<text text-anchor="middle" x="254" y="-61.5" font-family="Helvetica,sans-Serif" font-size="10.00" fill="#000000">API.h</text>
</a>
</g>
</g>
<!-- Node1&#45;&gt;Node2 -->
<g id="edge2" class="edge">
<title>Node1&#45;&gt;Node2</title>
<path fill="none" stroke="#191970" d="M88.7534,-330.4145C57.2314,-314.7249 0,-279.3718 0,-229.5 0,-229.5 0,-229.5 0,-174.5 0,-132.1954 32.7427,-130.0392 70,-110 119.7205,-83.2574 185.4387,-71.9236 223.381,-67.3565"/>
<polygon fill="#191970" stroke="#191970" points="224.2149,-70.7851 233.7631,-66.1935 223.4355,-63.8286 224.2149,-70.7851"/>
</g>
<!-- Node3 -->
<g id="node4" class="node">
<title>Node3</title>
<polygon fill="none" stroke="#bfbfbf" points="330.1577,-.5 330.1577,-18.5 377.8423,-18.5 377.8423,-.5 330.1577,-.5"/>
<text text-anchor="middle" x="354" y="-6.5" font-family="Helvetica,sans-Serif" font-size="10.00" fill="#000000">stdlib.h</text>
</g>
<!-- Node2&#45;&gt;Node3 -->
<g id="edge3" class="edge">
<title>Node2&#45;&gt;Node3</title>
<path fill="none" stroke="#191970" d="M270.513,-55.4179C286.2911,-46.7399 310.3028,-33.5334 328.5315,-23.5077"/>
<polygon fill="#191970" stroke="#191970" points="330.3871,-26.4816 337.4625,-18.5956 327.0136,-20.3481 330.3871,-26.4816"/>
</g>
<!-- Node4 -->
<g id="node5" class="node">
<title>Node4</title>
<polygon fill="none" stroke="#bfbfbf" points="119.707,-.5 119.707,-18.5 176.293,-18.5 176.293,-.5 119.707,-.5"/>
<text text-anchor="middle" x="148" y="-6.5" font-family="Helvetica,sans-Serif" font-size="10.00" fill="#000000">stdbool.h</text>
</g>
<!-- Node2&#45;&gt;Node4 -->
<g id="edge4" class="edge">
<title>Node2&#45;&gt;Node4</title>
<path fill="none" stroke="#191970" d="M236.4963,-55.4179C219.618,-46.6603 193.8512,-33.2907 174.4664,-23.2326"/>
<polygon fill="#191970" stroke="#191970" points="176.018,-20.0946 165.5297,-18.5956 172.7941,-26.308 176.018,-20.0946"/>
</g>
<!-- Node5 -->
<g id="node6" class="node">
<title>Node5</title>
<polygon fill="none" stroke="#bfbfbf" points="193.9336,-.5 193.9336,-18.5 246.0664,-18.5 246.0664,-.5 193.9336,-.5"/>
<text text-anchor="middle" x="220" y="-6.5" font-family="Helvetica,sans-Serif" font-size="10.00" fill="#000000">stdarg.h</text>
</g>
<!-- Node2&#45;&gt;Node5 -->
<g id="edge5" class="edge">
<title>Node2&#45;&gt;Node5</title>
<path fill="none" stroke="#191970" d="M248.3856,-55.4179C243.6891,-47.8207 236.8471,-36.7527 231.0572,-27.3866"/>
<polygon fill="#191970" stroke="#191970" points="233.9717,-25.445 225.7364,-18.7795 228.0176,-29.1258 233.9717,-25.445"/>
</g>
<!-- Node6 -->
<g id="node7" class="node">
<title>Node6</title>
<polygon fill="none" stroke="#bfbfbf" points="263.8794,-.5 263.8794,-18.5 312.1206,-18.5 312.1206,-.5 263.8794,-.5"/>
<text text-anchor="middle" x="288" y="-6.5" font-family="Helvetica,sans-Serif" font-size="10.00" fill="#000000">stdint.h</text>
</g>
<!-- Node2&#45;&gt;Node6 -->
<g id="edge6" class="edge">
<title>Node2&#45;&gt;Node6</title>
<path fill="none" stroke="#191970" d="M259.6144,-55.4179C264.3109,-47.8207 271.1529,-36.7527 276.9428,-27.3866"/>
<polygon fill="#191970" stroke="#191970" points="279.9824,-29.1258 282.2636,-18.7795 274.0283,-25.445 279.9824,-29.1258"/>
</g>
<!-- Node8 -->
<g id="node9" class="node">
<title>Node8</title>
<g id="a_node9"><a xlink:href="drive_8h.html" target="_top" xlink:title="Drive base definitions and enumerations. ">
<polygon fill="none" stroke="#000000" points="27.9927,-220.5 27.9927,-238.5 74.0073,-238.5 74.0073,-220.5 27.9927,-220.5"/>
<text text-anchor="middle" x="51" y="-226.5" font-family="Helvetica,sans-Serif" font-size="10.00" fill="#000000">drive.h</text>
</a>
</g>
</g>
<!-- Node7&#45;&gt;Node8 -->
<g id="edge8" class="edge">
<title>Node7&#45;&gt;Node8</title>
<path fill="none" stroke="#191970" d="M243.8148,-330.4982C207.1279,-311.2813 120.9437,-266.1372 77.3051,-243.2788"/>
<polygon fill="#191970" stroke="#191970" points="78.905,-240.1659 68.4226,-238.6261 75.6569,-246.3667 78.905,-240.1659"/>
</g>
<!-- Node13 -->
<g id="node14" class="node">
<title>Node13</title>
<g id="a_node14"><a xlink:href="sensor__ports_8h.html" target="_top" xlink:title="sensor_ports.h">
<polygon fill="none" stroke="#000000" points="345.9263,-220.5 345.9263,-238.5 428.0737,-238.5 428.0737,-220.5 345.9263,-220.5"/>
<text text-anchor="middle" x="387" y="-226.5" font-family="Helvetica,sans-Serif" font-size="10.00" fill="#000000">sensor_ports.h</text>
</a>
</g>
</g>
<!-- Node7&#45;&gt;Node13 -->
<g id="edge16" class="edge">
<title>Node7&#45;&gt;Node13</title>
<path fill="none" stroke="#191970" d="M271.3111,-330.4982C292.6311,-311.8856 341.8109,-268.9508 368.6728,-245.4999"/>
<polygon fill="#191970" stroke="#191970" points="371.315,-247.8394 376.5464,-238.6261 366.7114,-242.5661 371.315,-247.8394"/>
</g>
<!-- Node14 -->
<g id="node15" class="node">
<title>Node14</title>
<g id="a_node15"><a xlink:href="lifter_8h.html" target="_top" xlink:title="lifter.h">
<polygon fill="none" stroke="#000000" points="239.6577,-275.5 239.6577,-293.5 282.3423,-293.5 282.3423,-275.5 239.6577,-275.5"/>
<text text-anchor="middle" x="261" y="-281.5" font-family="Helvetica,sans-Serif" font-size="10.00" fill="#000000">lifter.h</text>
</a>
</g>
</g>
<!-- Node7&#45;&gt;Node14 -->
<g id="edge17" class="edge">
<title>Node7&#45;&gt;Node14</title>
<path fill="none" stroke="#191970" d="M261,-330.4179C261,-323.2164 261,-312.8962 261,-303.8632"/>
<polygon fill="#191970" stroke="#191970" points="264.5001,-303.7794 261,-293.7795 257.5001,-303.7795 264.5001,-303.7794"/>
</g>
<!-- Node20 -->
<g id="node21" class="node">
<title>Node20</title>
<g id="a_node21"><a xlink:href="claw_8h.html" target="_top" xlink:title="claw.h">
<polygon fill="none" stroke="#000000" points="496.1011,-275.5 496.1011,-293.5 539.8989,-293.5 539.8989,-275.5 496.1011,-275.5"/>
<text text-anchor="middle" x="518" y="-281.5" font-family="Helvetica,sans-Serif" font-size="10.00" fill="#000000">claw.h</text>
</a>
</g>
</g>
<!-- Node7&#45;&gt;Node20 -->
<g id="edge32" class="edge">
<title>Node7&#45;&gt;Node20</title>
<path fill="none" stroke="#191970" d="M282.9117,-334.8107C328.3177,-325.0935 432.8587,-302.7209 485.8917,-291.3714"/>
<polygon fill="#191970" stroke="#191970" points="486.7326,-294.7708 495.7787,-289.2555 485.2677,-287.9258 486.7326,-294.7708"/>
</g>
<!-- Node8&#45;&gt;Node2 -->
<g id="edge9" class="edge">
<title>Node8&#45;&gt;Node2</title>
<path fill="none" stroke="#191970" d="M51.0273,-220.1973C51.6165,-197.8369 56.319,-140.6605 88,-110 107.2511,-91.369 180.97,-76.5156 223.4131,-69.2879"/>
<polygon fill="#191970" stroke="#191970" points="224.186,-72.7076 233.4777,-67.617 223.0395,-65.8021 224.186,-72.7076"/>
</g>
<!-- Node9 -->
<g id="node10" class="node">
<title>Node9</title>
<g id="a_node10"><a xlink:href="partner_8h.html" target="_top" xlink:title="partner.h">
<polygon fill="none" stroke="#000000" points="196.2612,-165.5 196.2612,-183.5 251.7388,-183.5 251.7388,-165.5 196.2612,-165.5"/>
<text text-anchor="middle" x="224" y="-171.5" font-family="Helvetica,sans-Serif" font-size="10.00" fill="#000000">partner.h</text>
</a>
</g>
</g>
<!-- Node8&#45;&gt;Node9 -->
<g id="edge10" class="edge">
<title>Node8&#45;&gt;Node9</title>
<path fill="none" stroke="#191970" d="M74.3315,-222.0825C103.1241,-212.9287 152.4481,-197.2477 186.5617,-186.4023"/>
<polygon fill="#191970" stroke="#191970" points="187.7155,-189.7082 196.1851,-183.3429 185.5946,-183.0372 187.7155,-189.7082"/>
</g>
<!-- Node9&#45;&gt;Node2 -->
<g id="edge15" class="edge">
<title>Node9&#45;&gt;Node2</title>
<path fill="none" stroke="#191970" d="M226.455,-165.4982C231.3334,-147.6108 242.3383,-107.2594 248.8653,-83.3271"/>
<polygon fill="#191970" stroke="#191970" points="252.2565,-84.1947 251.5111,-73.6261 245.5031,-82.3528 252.2565,-84.1947"/>
</g>
<!-- Node10 -->
<g id="node11" class="node">
<title>Node10</title>
<g id="a_node11"><a xlink:href="controller_8h.html" target="_top" xlink:title="controller definitions, macros ">
<polygon fill="none" stroke="#000000" points="251.5396,-110.5 251.5396,-128.5 316.4604,-128.5 316.4604,-110.5 251.5396,-110.5"/>
<text text-anchor="middle" x="284" y="-116.5" font-family="Helvetica,sans-Serif" font-size="10.00" fill="#000000">controller.h</text>
</a>
</g>
</g>
<!-- Node9&#45;&gt;Node10 -->
<g id="edge11" class="edge">
<title>Node9&#45;&gt;Node10</title>
<path fill="none" stroke="#191970" d="M233.9078,-165.4179C242.7136,-157.3458 255.7939,-145.3556 266.38,-135.6517"/>
<polygon fill="#191970" stroke="#191970" points="268.8704,-138.1168 273.877,-128.7795 264.1403,-132.9567 268.8704,-138.1168"/>
</g>
<!-- Node10&#45;&gt;Node2 -->
<g id="edge14" class="edge">
<title>Node10&#45;&gt;Node2</title>
<path fill="none" stroke="#191970" d="M279.0461,-110.4179C274.9454,-102.8998 268.9907,-91.9829 263.9163,-82.6799"/>
<polygon fill="#191970" stroke="#191970" points="266.9227,-80.8824 259.0615,-73.7795 260.7775,-84.2344 266.9227,-80.8824"/>
</g>
<!-- Node11 -->
<g id="node12" class="node">
<title>Node11</title>
<g id="a_node12"><a xlink:href="vmath_8h.html" target="_top" xlink:title="Vex Specific Math Functions, includes: Cartesian to polar cordinates. ">
<polygon fill="none" stroke="#000000" points="426.2144,-55.5 426.2144,-73.5 477.7856,-73.5 477.7856,-55.5 426.2144,-55.5"/>
<text text-anchor="middle" x="452" y="-61.5" font-family="Helvetica,sans-Serif" font-size="10.00" fill="#000000">vmath.h</text>
</a>
</g>
</g>
<!-- Node10&#45;&gt;Node11 -->
<g id="edge12" class="edge">
<title>Node10&#45;&gt;Node11</title>
<path fill="none" stroke="#191970" d="M311.7418,-110.4179C340.4183,-101.0297 385.2843,-86.3414 416.5237,-76.1143"/>
<polygon fill="#191970" stroke="#191970" points="417.735,-79.4006 426.1497,-72.9629 415.5571,-72.748 417.735,-79.4006"/>
</g>
<!-- Node12 -->
<g id="node13" class="node">
<title>Node12</title>
<polygon fill="none" stroke="#bfbfbf" points="616.7144,-.5 616.7144,-18.5 663.2856,-18.5 663.2856,-.5 616.7144,-.5"/>
<text text-anchor="middle" x="640" y="-6.5" font-family="Helvetica,sans-Serif" font-size="10.00" fill="#000000">math.h</text>
</g>
<!-- Node11&#45;&gt;Node12 -->
<g id="edge13" class="edge">
<title>Node11&#45;&gt;Node12</title>
<path fill="none" stroke="#191970" d="M478.1406,-56.8525C511.7096,-47.0318 570.0018,-29.9782 606.7089,-19.2394"/>
<polygon fill="#191970" stroke="#191970" points="607.8363,-22.5564 616.4513,-16.3893 605.8708,-15.838 607.8363,-22.5564"/>
</g>
<!-- Node14&#45;&gt;Node2 -->
<g id="edge18" class="edge">
<title>Node14&#45;&gt;Node2</title>
<path fill="none" stroke="#191970" d="M239.6026,-280.6885C204.0042,-273.8638 135.12,-258.436 121,-239 77.0552,-178.5106 178.6857,-108.1949 228.4914,-78.6815"/>
<polygon fill="#191970" stroke="#191970" points="230.2522,-81.7064 237.1413,-73.6571 226.7363,-75.6534 230.2522,-81.7064"/>
</g>
<!-- Node14&#45;&gt;Node8 -->
<g id="edge31" class="edge">
<title>Node14&#45;&gt;Node8</title>
<path fill="none" stroke="#191970" d="M239.3173,-278.8212C202.451,-269.1657 127.34,-249.4938 83.9453,-238.1285"/>
<polygon fill="#191970" stroke="#191970" points="84.7167,-234.7126 74.1562,-235.5647 82.9432,-241.4842 84.7167,-234.7126"/>
</g>
<!-- Node14&#45;&gt;Node9 -->
<g id="edge30" class="edge">
<title>Node14&#45;&gt;Node9</title>
<path fill="none" stroke="#191970" d="M257.9721,-275.4982C251.9554,-257.6108 238.3827,-217.2594 230.3327,-193.3271"/>
<polygon fill="#191970" stroke="#191970" points="233.5752,-191.9885 227.0697,-183.6261 226.9405,-194.2202 233.5752,-191.9885"/>
</g>
<!-- Node14&#45;&gt;Node10 -->
<g id="edge28" class="edge">
<title>Node14&#45;&gt;Node10</title>
<path fill="none" stroke="#191970" d="M262.3025,-275.1561C265.9554,-248.9504 276.3534,-174.3557 281.3094,-138.8021"/>
<polygon fill="#191970" stroke="#191970" points="284.7976,-139.1289 282.7118,-128.7414 277.8646,-138.1624 284.7976,-139.1289"/>
</g>
<!-- Node14&#45;&gt;Node13 -->
<g id="edge20" class="edge">
<title>Node14&#45;&gt;Node13</title>
<path fill="none" stroke="#191970" d="M281.8063,-275.4179C302.2339,-266.5011 333.6148,-252.803 356.7892,-242.6873"/>
<polygon fill="#191970" stroke="#191970" points="358.3981,-245.804 366.1628,-238.5956 355.5976,-239.3885 358.3981,-245.804"/>
</g>
<!-- Node15 -->
<g id="node16" class="node">
<title>Node15</title>
<g id="a_node16"><a xlink:href="motor__ports_8h.html" target="_top" xlink:title="motor_ports.h">
<polygon fill="none" stroke="#000000" points="446.1528,-220.5 446.1528,-238.5 523.8472,-238.5 523.8472,-220.5 446.1528,-220.5"/>
<text text-anchor="middle" x="485" y="-226.5" font-family="Helvetica,sans-Serif" font-size="10.00" fill="#000000">motor_ports.h</text>
</a>
</g>
</g>
<!-- Node14&#45;&gt;Node15 -->
<g id="edge19" class="edge">
<title>Node14&#45;&gt;Node15</title>
<path fill="none" stroke="#191970" d="M282.4781,-279.2264C318.1567,-270.466 390.4414,-252.7175 438.2928,-240.9683"/>
<polygon fill="#191970" stroke="#191970" points="439.234,-244.3412 448.111,-238.5576 437.5648,-237.5431 439.234,-244.3412"/>
</g>
<!-- Node16 -->
<g id="node17" class="node">
<title>Node16</title>
<g id="a_node17"><a xlink:href="slew_8h.html" target="_top" xlink:title="Contains the slew rate controller wrapper for the motors. ">
<polygon fill="none" stroke="#000000" points="618.1011,-165.5 618.1011,-183.5 661.8989,-183.5 661.8989,-165.5 618.1011,-165.5"/>
<text text-anchor="middle" x="640" y="-171.5" font-family="Helvetica,sans-Serif" font-size="10.00" fill="#000000">slew.h</text>
</a>
</g>
</g>
<!-- Node14&#45;&gt;Node16 -->
<g id="edge21" class="edge">
<title>Node14&#45;&gt;Node16</title>
<path fill="none" stroke="#191970" d="M268.7738,-275.189C281.4306,-260.7287 308.0086,-233.1696 337,-220 384.9256,-198.2293 539.8446,-182.926 607.6811,-177.1021"/>
<polygon fill="#191970" stroke="#191970" points="608.1207,-180.5775 617.7911,-176.2492 607.5322,-173.6023 608.1207,-180.5775"/>
</g>
<!-- Node19 -->
<g id="node20" class="node">
<title>Node19</title>
<g id="a_node20"><a xlink:href="potentiometer_8h.html" target="_top" xlink:title="potentiometer.h">
<polygon fill="none" stroke="#000000" points="129.5298,-220.5 129.5298,-238.5 214.4702,-238.5 214.4702,-220.5 129.5298,-220.5"/>
<text text-anchor="middle" x="172" y="-226.5" font-family="Helvetica,sans-Serif" font-size="10.00" fill="#000000">potentiometer.h</text>
</a>
</g>
</g>
<!-- Node14&#45;&gt;Node19 -->
<g id="edge29" class="edge">
<title>Node14&#45;&gt;Node19</title>
<path fill="none" stroke="#191970" d="M246.3035,-275.4179C232.5186,-266.8992 211.6722,-254.0166 195.5651,-244.0627"/>
<polygon fill="#191970" stroke="#191970" points="197.0651,-240.8753 186.7184,-238.5956 193.3852,-246.83 197.0651,-240.8753"/>
</g>
<!-- Node16&#45;&gt;Node2 -->
<g id="edge22" class="edge">
<title>Node16&#45;&gt;Node2</title>
<path fill="none" stroke="#191970" d="M634.0852,-165.1494C624.3451,-150.6349 603.4503,-123.0029 578,-110 526.8803,-83.8823 354.5069,-70.6429 284.2179,-66.2271"/>
<polygon fill="#191970" stroke="#191970" points="284.4255,-62.7334 274.2304,-65.6163 283.9981,-69.7203 284.4255,-62.7334"/>
</g>
<!-- Node16&#45;&gt;Node12 -->
<g id="edge23" class="edge">
<title>Node16&#45;&gt;Node12</title>
<path fill="none" stroke="#191970" d="M640,-165.1561C640,-138.9504 640,-64.3557 640,-28.8021"/>
<polygon fill="#191970" stroke="#191970" points="643.5001,-28.7414 640,-18.7414 636.5001,-28.7414 643.5001,-28.7414"/>
</g>
<!-- Node17 -->
<g id="node18" class="node">
<title>Node17</title>
<g id="a_node18"><a xlink:href="vlib_8h.html" target="_top" xlink:title="Contains misc helpful functions. ">
<polygon fill="none" stroke="#000000" points="670.3276,-110.5 670.3276,-128.5 709.6724,-128.5 709.6724,-110.5 670.3276,-110.5"/>
<text text-anchor="middle" x="690" y="-116.5" font-family="Helvetica,sans-Serif" font-size="10.00" fill="#000000">vlib.h</text>
</a>
</g>
</g>
<!-- Node16&#45;&gt;Node17 -->
<g id="edge24" class="edge">
<title>Node16&#45;&gt;Node17</title>
<path fill="none" stroke="#191970" d="M648.2565,-165.4179C655.4508,-157.5041 666.0688,-145.8243 674.7954,-136.2251"/>
<polygon fill="#191970" stroke="#191970" points="677.4272,-138.5332 681.5641,-128.7795 672.2476,-133.8245 677.4272,-138.5332"/>
</g>
<!-- Node17&#45;&gt;Node2 -->
<g id="edge26" class="edge">
<title>Node17&#45;&gt;Node2</title>
<path fill="none" stroke="#191970" d="M670.2144,-116.9455C655.3114,-115.0249 634.3746,-112.3342 616,-110 493.0413,-94.38 346.5507,-76.0549 284.3432,-68.2863"/>
<polygon fill="#191970" stroke="#191970" points="284.7706,-64.8126 274.414,-67.0466 283.9033,-71.7587 284.7706,-64.8126"/>
</g>
<!-- Node17&#45;&gt;Node12 -->
<g id="edge25" class="edge">
<title>Node17&#45;&gt;Node12</title>
<path fill="none" stroke="#191970" d="M701.4932,-110.1759C715.6582,-97.509 736.5219,-74.2363 725,-55 713.7726,-36.2553 691.8939,-24.7964 673.1458,-18.0669"/>
<polygon fill="#191970" stroke="#191970" points="674.0134,-14.6682 663.4208,-14.882 671.8348,-21.3205 674.0134,-14.6682"/>
</g>
<!-- Node18 -->
<g id="node19" class="node">
<title>Node18</title>
<polygon fill="none" stroke="#bfbfbf" points="667.6035,-55.5 667.6035,-73.5 716.3965,-73.5 716.3965,-55.5 667.6035,-55.5"/>
<text text-anchor="middle" x="692" y="-61.5" font-family="Helvetica,sans-Serif" font-size="10.00" fill="#000000">string.h</text>
</g>
<!-- Node17&#45;&gt;Node18 -->
<g id="edge27" class="edge">
<title>Node17&#45;&gt;Node18</title>
<path fill="none" stroke="#191970" d="M690.3303,-110.4179C690.5921,-103.2164 690.9674,-92.8962 691.2959,-83.8632"/>
<polygon fill="#191970" stroke="#191970" points="694.7968,-83.9001 691.6626,-73.7795 687.8014,-83.6456 694.7968,-83.9001"/>
</g>
<!-- Node20&#45;&gt;Node2 -->
<g id="edge34" class="edge">
<title>Node20&#45;&gt;Node2</title>
<path fill="none" stroke="#191970" d="M527.8724,-275.1047C539.6077,-262.7396 556.694,-240.2024 549,-220 537.3482,-189.4053 526.7316,-183.9003 500,-165 430.3363,-115.7449 332.9478,-85.2072 284.2439,-72.0478"/>
<polygon fill="#191970" stroke="#191970" points="284.9018,-68.6016 274.3395,-69.4312 283.1138,-75.3694 284.9018,-68.6016"/>
</g>
<!-- Node20&#45;&gt;Node10 -->
<g id="edge35" class="edge">
<title>Node20&#45;&gt;Node10</title>
<path fill="none" stroke="#191970" d="M524.2416,-275.3568C532.4569,-262.0731 544.575,-237.1542 533,-220 486.6326,-151.2837 384.5384,-129.5399 326.5078,-122.6679"/>
<polygon fill="#191970" stroke="#191970" points="326.8733,-119.1871 316.5532,-121.584 326.1155,-126.146 326.8733,-119.1871"/>
</g>
<!-- Node20&#45;&gt;Node13 -->
<g id="edge37" class="edge">
<title>Node20&#45;&gt;Node13</title>
<path fill="none" stroke="#191970" d="M496.368,-275.4179C475.035,-266.4613 442.2121,-252.6806 418.0875,-242.552"/>
<polygon fill="#191970" stroke="#191970" points="419.2394,-239.2397 408.6641,-238.5956 416.5295,-245.6939 419.2394,-239.2397"/>
</g>
<!-- Node20&#45;&gt;Node15 -->
<g id="edge36" class="edge">
<title>Node20&#45;&gt;Node15</title>
<path fill="none" stroke="#191970" d="M512.5507,-275.4179C507.9924,-267.8207 501.3516,-256.7527 495.732,-247.3866"/>
<polygon fill="#191970" stroke="#191970" points="498.7139,-245.5536 490.5677,-238.7795 492.7114,-249.1552 498.7139,-245.5536"/>
</g>
<!-- Node20&#45;&gt;Node16 -->
<g id="edge33" class="edge">
<title>Node20&#45;&gt;Node16</title>
<path fill="none" stroke="#191970" d="M539.9589,-276.9609C558.7662,-269.625 585.6425,-256.9501 604,-239 617.152,-226.1399 626.8676,-207.4418 632.8687,-193.4851"/>
<polygon fill="#191970" stroke="#191970" points="636.2352,-194.4951 636.7292,-183.9118 629.7432,-191.8771 636.2352,-194.4951"/>
</g>
</g>
</svg>
        <g id="navigator" transform="translate(0 0)" fill="#404254">
                <rect fill="#f2f5e9" fill-opacity="0.5" stroke="#606060" stroke-width=".5" x="0" y="0" width="60" height="60"/>
                <use id="zoomplus" xlink:href="#zoomPlus" x="17" y="9" onmousedown="handleZoom(evt,'in')"/>
                <use id="zoomminus" xlink:href="#zoomMin" x="42" y="9" onmousedown="handleZoom(evt,'out')"/>
                <use id="reset" xlink:href="#resetDef" x="30" y="36" onmousedown="handleReset()"/>
                <g id="arrowUp" xlink:href="#dirArrow" transform="translate(30 24)" onmousedown="handlePan(0,-1)">
                  <use xlink:href="#rim" fill="#404040">
                        <set attributeName="fill" to="#808080" begin="arrowUp.mouseover" end="arrowUp.mouseout"/>
                  </use>
                  <path fill="none" stroke="white" stroke-width="1.5" d="M0,-3.0v7 M-2.5,-0.5L0,-3.0L2.5,-0.5"/>
                </g>
                <g id="arrowRight" xlink:href="#dirArrow" transform="rotate(90) translate(36 -43)" onmousedown="handlePan(1,0)">
                  <use xlink:href="#rim" fill="#404040">
                        <set attributeName="fill" to="#808080" begin="arrowRight.mouseover" end="arrowRight.mouseout"/>
                  </use>
                  <path fill="none" stroke="white" stroke-width="1.5" d="M0,-3.0v7 M-2.5,-0.5L0,-3.0L2.5,-0.5"/>
                </g>
                <g id="arrowDown" xlink:href="#dirArrow" transform="rotate(180) translate(-30 -48)" onmousedown="handlePan(0,1)">
                  <use xlink:href="#rim" fill="#404040">
                        <set attributeName="fill" to="#808080" begin="arrowDown.mouseover" end="arrowDown.mouseout"/>
                  </use>
                  <path fill="none" stroke="white" stroke-width="1.5" d="M0,-3.0v7 M-2.5,-0.5L0,-3.0L2.5,-0.5"/>
                </g>
                <g id="arrowLeft" xlink:href="#dirArrow" transform="rotate(270) translate(-36 17)" onmousedown="handlePan(-1,0)">
                  <use xlink:href="#rim" fill="#404040">
                        <set attributeName="fill" to="#808080" begin="arrowLeft.mouseover" end="arrowLeft.mouseout"/>
                  </use>
                  <path fill="none" stroke="white" stroke-width="1.5" d="M0,-3.0v7 M-2.5,-0.5L0,-3.0L2.5,-0.5"/>
                </g>
        </g>
        <svg viewBox="0 0 15 15" width="100%" height="30px" preserveAspectRatio="xMaxYMin meet">
         <g id="arrow_out" transform="scale(0.3 0.3)">
          <a xlink:href="auto_8c__incl_org.svg" target="_base">
           <rect id="button" ry="5" rx="5" y="6" x="6" height="38" width="38"
                fill="#f2f5e9" fill-opacity="0.5" stroke="#606060" stroke-width="1.0"/>
           <path id="arrow"
             d="M 11.500037,31.436501 C 11.940474,20.09759 22.043105,11.32322 32.158766,21.979434 L 37.068811,17.246167 C 37.068811,17.246167 37.088388,32 37.088388,32 L 22.160133,31.978069 C 22.160133,31.978069 26.997745,27.140456 26.997745,27.140456 C 18.528582,18.264221 13.291696,25.230495 11.500037,31.436501 z"
             style="fill:#404040;"/>
          </a>
         </g>
        </svg>
</svg>
