<?xml version="1.0" encoding="UTF-8" standalone="no"?>
<!DOCTYPE svg PUBLIC "-//W3C//DTD SVG 1.1//EN"
 "http://www.w3.org/Graphics/SVG/1.1/DTD/svg11.dtd">
<!-- Generated by graphviz version 2.40.1 (20161225.0304)
 -->
<!-- Title: auton_drive_towards_mobile_goal Pages: 1 -->
<svg width="785pt" height="269pt"
 viewBox="0.00 0.00 785.14 269.00" xmlns="http://www.w3.org/2000/svg" xmlns:xlink="http://www.w3.org/1999/xlink">
<g id="graph0" class="graph" transform="scale(1 1) rotate(0) translate(4 265)">
<title>auton_drive_towards_mobile_goal</title>
<!-- Node0 -->
<g id="node1" class="node">
<title>Node0</title>
<polygon fill="#bfbfbf" stroke="#000000" points="0,-87.5 0,-115.5 108.8369,-115.5 108.8369,-87.5 0,-87.5"/>
<text text-anchor="start" x="8" y="-103.5" font-family="Helvetica,sans-Serif" font-size="10.00" fill="#000000">auton_drive_towards</text>
<text text-anchor="middle" x="54.4185" y="-93.5" font-family="Helvetica,sans-Serif" font-size="10.00" fill="#000000">_mobile_goal</text>
</g>
<!-- Node1 -->
<g id="node2" class="node">
<title>Node1</title>
<g id="a_node2"><a xlink:href="_a_p_i_8h.html#ac4f1500418a729ac3ee95bce9768b20c" target="_top" xlink:title="Gets the current 32&#45;bit count of the specified IME. ">
<polygon fill="none" stroke="#000000" points="163.748,-111.5 163.748,-129.5 211.9795,-129.5 211.9795,-111.5 163.748,-111.5"/>
<text text-anchor="middle" x="187.8638" y="-117.5" font-family="Helvetica,sans-Serif" font-size="10.00" fill="#000000">imeGet</text>
</a>
</g>
</g>
<!-- Node0&#45;&gt;Node1 -->
<g id="edge1" class="edge">
<title>Node0&#45;&gt;Node1</title>
<path fill="none" stroke="#191970" d="M109.0808,-109.2828C124.0747,-111.4177 139.9091,-113.6722 153.4181,-115.5956"/>
<polygon fill="#191970" stroke="#191970" points="153.2995,-119.1139 163.693,-117.0586 154.2862,-112.1838 153.2995,-119.1139"/>
</g>
<!-- Node2 -->
<g id="node3" class="node">
<title>Node2</title>
<g id="a_node3"><a xlink:href="drive_8h.html#a8df41fd50094c065eedc81fc5e6595d1" target="_top" xlink:title="sets the speed of one side of the robot. ">
<polygon fill="none" stroke="#000000" points="144.8369,-74.5 144.8369,-92.5 230.8906,-92.5 230.8906,-74.5 144.8369,-74.5"/>
<text text-anchor="middle" x="187.8638" y="-80.5" font-family="Helvetica,sans-Serif" font-size="10.00" fill="#000000">set_side_speed</text>
</a>
</g>
</g>
<!-- Node0&#45;&gt;Node2 -->
<g id="edge2" class="edge">
<title>Node0&#45;&gt;Node2</title>
<path fill="none" stroke="#191970" d="M109.0808,-94.1268C117.473,-92.9948 126.1285,-91.8273 134.4922,-90.6991"/>
<polygon fill="#191970" stroke="#191970" points="135.0696,-94.153 144.512,-89.3476 134.1338,-87.2158 135.0696,-94.153"/>
</g>
<!-- Node3 -->
<g id="node4" class="node">
<title>Node3</title>
<g id="a_node4"><a xlink:href="slew_8h.html#a7dff2b79dffe55fb936d977594d7c01d" target="_top" xlink:title="Sets motor speed wrapped inside the slew rate controller. ">
<polygon fill="none" stroke="#000000" points="266.8906,-74.5 266.8906,-92.5 352.9199,-92.5 352.9199,-74.5 266.8906,-74.5"/>
<text text-anchor="middle" x="309.9053" y="-80.5" font-family="Helvetica,sans-Serif" font-size="10.00" fill="#000000">set_motor_slew</text>
</a>
</g>
</g>
<!-- Node2&#45;&gt;Node3 -->
<g id="edge3" class="edge">
<title>Node2&#45;&gt;Node3</title>
<path fill="none" stroke="#191970" d="M230.891,-83.5C239.2763,-83.5 248.1593,-83.5 256.8251,-83.5"/>
<polygon fill="#191970" stroke="#191970" points="256.8552,-87.0001 266.8552,-83.5 256.8552,-80.0001 256.8552,-87.0001"/>
</g>
<!-- Node4 -->
<g id="node5" class="node">
<title>Node4</title>
<g id="a_node5"><a xlink:href="log_8h.html#af3668f40d1ad1b4f3418869ac9a31f34" target="_top" xlink:title="prints a info message ">
<polygon fill="none" stroke="#000000" points="394.1909,-223.5 394.1909,-241.5 437.9985,-241.5 437.9985,-223.5 394.1909,-223.5"/>
<text text-anchor="middle" x="416.0947" y="-229.5" font-family="Helvetica,sans-Serif" font-size="10.00" fill="#000000">debug</text>
</a>
</g>
</g>
<!-- Node3&#45;&gt;Node4 -->
<g id="edge4" class="edge">
<title>Node3&#45;&gt;Node4</title>
<path fill="none" stroke="#191970" d="M316.5479,-92.8206C333.9047,-117.1749 380.8343,-183.0243 403.5027,-214.8314"/>
<polygon fill="#191970" stroke="#191970" points="400.8006,-217.0707 409.4546,-223.1829 406.5011,-213.0081 400.8006,-217.0707"/>
</g>
<!-- Node6 -->
<g id="node7" class="node">
<title>Node6</title>
<g id="a_node7"><a xlink:href="slew_8c.html#a321758941d88b75783955c819bb75005" target="_top" xlink:title="Initializes the slew rate controller. ">
<polygon fill="none" stroke="#000000" points="388.9199,-130.5 388.9199,-148.5 443.2695,-148.5 443.2695,-130.5 388.9199,-130.5"/>
<text text-anchor="middle" x="416.0947" y="-136.5" font-family="Helvetica,sans-Serif" font-size="10.00" fill="#000000">init_slew</text>
</a>
</g>
</g>
<!-- Node3&#45;&gt;Node6 -->
<g id="edge6" class="edge">
<title>Node3&#45;&gt;Node6</title>
<path fill="none" stroke="#191970" d="M327.4403,-92.7473C344.4499,-101.7174 370.471,-115.4399 389.9292,-125.7014"/>
<polygon fill="#191970" stroke="#191970" points="388.4079,-128.856 398.886,-130.4248 391.6733,-122.6642 388.4079,-128.856"/>
</g>
<!-- Node16 -->
<g id="node17" class="node">
<title>Node16</title>
<g id="a_node17"><a xlink:href="_a_p_i_8h.html#a8b51124628d2a7741738d48551d1e8ee" target="_top" xlink:title="Requests a mutex so that other tasks cannot simultaneously use the resource it guards. ">
<polygon fill="none" stroke="#000000" points="592.417,-37.5 592.417,-55.5 656.7715,-55.5 656.7715,-37.5 592.417,-37.5"/>
<text text-anchor="middle" x="624.5942" y="-43.5" font-family="Helvetica,sans-Serif" font-size="10.00" fill="#000000">mutexTake</text>
</a>
</g>
</g>
<!-- Node3&#45;&gt;Node16 -->
<g id="edge21" class="edge">
<title>Node3&#45;&gt;Node16</title>
<path fill="none" stroke="#191970" d="M353.0016,-78.4329C413.1855,-71.3567 521.7532,-58.5917 581.7835,-51.5335"/>
<polygon fill="#191970" stroke="#191970" points="582.5277,-54.9702 592.0505,-50.3264 581.7102,-48.0181 582.5277,-54.9702"/>
</g>
<!-- Node17 -->
<g id="node18" class="node">
<title>Node17</title>
<g id="a_node18"><a xlink:href="_a_p_i_8h.html#afe171a08d22de18fc2ab604b2364959f" target="_top" xlink:title="Relinquishes a mutex so that other tasks can use the resource it guards. ">
<polygon fill="none" stroke="#000000" points="592.6978,-.5 592.6978,-18.5 656.4907,-18.5 656.4907,-.5 592.6978,-.5"/>
<text text-anchor="middle" x="624.5942" y="-6.5" font-family="Helvetica,sans-Serif" font-size="10.00" fill="#000000">mutexGive</text>
</a>
</g>
</g>
<!-- Node3&#45;&gt;Node17 -->
<g id="edge20" class="edge">
<title>Node3&#45;&gt;Node17</title>
<path fill="none" stroke="#191970" d="M344.8705,-74.4684C358.5879,-70.9726 374.4758,-66.9823 388.9199,-63.5 456.5907,-47.1852 535.4835,-29.3477 582.6635,-18.8063"/>
<polygon fill="#191970" stroke="#191970" points="583.522,-22.2009 592.5199,-16.6072 581.9977,-15.3689 583.522,-22.2009"/>
</g>
<!-- Node5 -->
<g id="node6" class="node">
<title>Node5</title>
<g id="a_node6"><a xlink:href="_a_p_i_8h.html#a403c82418e475fa4a8273719e6a7f3e6" target="_top" xlink:title="Prints the formatted string to the debug stream (the PC terminal). ">
<polygon fill="none" stroke="#000000" points="715.8403,-242.5 715.8403,-260.5 754.0718,-260.5 754.0718,-242.5 715.8403,-242.5"/>
<text text-anchor="middle" x="734.9561" y="-248.5" font-family="Helvetica,sans-Serif" font-size="10.00" fill="#000000">printf</text>
</a>
</g>
</g>
<!-- Node4&#45;&gt;Node5 -->
<g id="edge5" class="edge">
<title>Node4&#45;&gt;Node5</title>
<path fill="none" stroke="#191970" d="M438.2464,-240.896C450.2038,-244.9833 465.3322,-249.4495 479.2695,-251.5 560.3492,-263.4286 657.4632,-258.1521 705.3163,-254.2822"/>
<polygon fill="#191970" stroke="#191970" points="705.9029,-257.7451 715.5713,-253.4123 705.3112,-250.7702 705.9029,-257.7451"/>
</g>
<!-- Node7 -->
<g id="node8" class="node">
<title>Node7</title>
<g id="a_node8"><a xlink:href="log_8h.html#a0bec2cf5fff7f607bc510b74aba9887c" target="_top" xlink:title="prints a warning message and displays on lcd. ">
<polygon fill="none" stroke="#000000" points="492.3335,-112.5 492.3335,-130.5 543.353,-130.5 543.353,-112.5 492.3335,-112.5"/>
<text text-anchor="middle" x="517.8433" y="-118.5" font-family="Helvetica,sans-Serif" font-size="10.00" fill="#000000">warning</text>
</a>
</g>
</g>
<!-- Node6&#45;&gt;Node7 -->
<g id="edge7" class="edge">
<title>Node6&#45;&gt;Node7</title>
<path fill="none" stroke="#191970" d="M443.3615,-134.6763C455.3452,-132.5563 469.5745,-130.0391 482.3689,-127.7756"/>
<polygon fill="#191970" stroke="#191970" points="483.0146,-131.2159 492.252,-126.0273 481.7951,-124.3229 483.0146,-131.2159"/>
</g>
<!-- Node12 -->
<g id="node13" class="node">
<title>Node12</title>
<g id="a_node13"><a xlink:href="_a_p_i_8h.html#a8966c541f3e9565aea1289f0d2f2cf43" target="_top" xlink:title="Stops all motors; significantly faster than looping through all motor ports and calling motorSet(chan...">
<polygon fill="none" stroke="#000000" points="481.2202,-223.5 481.2202,-241.5 554.4663,-241.5 554.4663,-223.5 481.2202,-223.5"/>
<text text-anchor="middle" x="517.8433" y="-229.5" font-family="Helvetica,sans-Serif" font-size="10.00" fill="#000000">motorStopAll</text>
</a>
</g>
</g>
<!-- Node6&#45;&gt;Node12 -->
<g id="edge13" class="edge">
<title>Node6&#45;&gt;Node12</title>
<path fill="none" stroke="#191970" d="M422.0435,-148.9368C432.1728,-164.3771 454.1318,-195.2435 479.2695,-214.5 481.0808,-215.8875 483.0163,-217.2022 485.0197,-218.4414"/>
<polygon fill="#191970" stroke="#191970" points="483.6092,-221.6591 494.0628,-223.383 486.9659,-215.5164 483.6092,-221.6591"/>
</g>
<!-- Node13 -->
<g id="node14" class="node">
<title>Node13</title>
<g id="a_node14"><a xlink:href="_a_p_i_8h.html#aecd027ce8f8b52a765735e9eb5b202b3" target="_top" xlink:title="Creates a mutex intended to allow only one task to use a resource at a time. ">
<polygon fill="none" stroke="#000000" points="481.2202,-186.5 481.2202,-204.5 554.4663,-204.5 554.4663,-186.5 481.2202,-186.5"/>
<text text-anchor="middle" x="517.8433" y="-192.5" font-family="Helvetica,sans-Serif" font-size="10.00" fill="#000000">mutexCreate</text>
</a>
</g>
</g>
<!-- Node6&#45;&gt;Node13 -->
<g id="edge14" class="edge">
<title>Node6&#45;&gt;Node13</title>
<path fill="none" stroke="#191970" d="M430.3991,-148.6936C443.0441,-156.6774 462.0955,-168.3602 479.2695,-177.5 482.14,-179.0276 485.1632,-180.5619 488.2019,-182.0553"/>
<polygon fill="#191970" stroke="#191970" points="486.6951,-185.2143 497.2272,-186.3659 489.712,-178.8978 486.6951,-185.2143"/>
</g>
<!-- Node14 -->
<g id="node15" class="node">
<title>Node14</title>
<g id="a_node15"><a xlink:href="_a_p_i_8h.html#ab05a241d6d1fd98b1ceb4665db678156" target="_top" xlink:title="Starts a task which will periodically call the specified function. ">
<polygon fill="none" stroke="#000000" points="480.3779,-149.5 480.3779,-167.5 555.3086,-167.5 555.3086,-149.5 480.3779,-149.5"/>
<text text-anchor="middle" x="517.8433" y="-155.5" font-family="Helvetica,sans-Serif" font-size="10.00" fill="#000000">taskRunLoop</text>
</a>
</g>
</g>
<!-- Node6&#45;&gt;Node14 -->
<g id="edge15" class="edge">
<title>Node6&#45;&gt;Node14</title>
<path fill="none" stroke="#191970" d="M443.3615,-144.5917C451.6615,-146.1416 461.0387,-147.8926 470.2704,-149.6165"/>
<polygon fill="#191970" stroke="#191970" points="469.7001,-153.0704 480.1727,-151.4656 470.9851,-146.1894 469.7001,-153.0704"/>
</g>
<!-- Node15 -->
<g id="node16" class="node">
<title>Node15</title>
<g id="a_node16"><a xlink:href="slew_8c.html#a807a87c5df438fde21c1e8213906695b" target="_top" xlink:title="Closes the distance between the desired motor value and the current motor value by half for each moto...">
<polygon fill="none" stroke="#000000" points="479.2695,-75.5 479.2695,-93.5 556.417,-93.5 556.417,-75.5 479.2695,-75.5"/>
<text text-anchor="middle" x="517.8433" y="-81.5" font-family="Helvetica,sans-Serif" font-size="10.00" fill="#000000">updateMotors</text>
</a>
</g>
</g>
<!-- Node6&#45;&gt;Node15 -->
<g id="edge16" class="edge">
<title>Node6&#45;&gt;Node15</title>
<path fill="none" stroke="#191970" d="M431.5271,-130.3599C444.2297,-122.9207 462.7658,-112.2567 479.2695,-103.5 482.6327,-101.7156 486.1867,-99.888 489.7222,-98.1054"/>
<polygon fill="#191970" stroke="#191970" points="491.4929,-101.134 498.8932,-93.552 488.3799,-94.8642 491.4929,-101.134"/>
</g>
<!-- Node8 -->
<g id="node9" class="node">
<title>Node8</title>
<g id="a_node9"><a xlink:href="log_8c.html#afff22aff6749311a684a559cac3ac8bd" target="_top" xlink:title="prints a log info message to the lcd ">
<polygon fill="none" stroke="#000000" points="599.0796,-131.5 599.0796,-149.5 650.1089,-149.5 650.1089,-131.5 599.0796,-131.5"/>
<text text-anchor="middle" x="624.5942" y="-137.5" font-family="Helvetica,sans-Serif" font-size="10.00" fill="#000000">log_info</text>
</a>
</g>
</g>
<!-- Node7&#45;&gt;Node8 -->
<g id="edge8" class="edge">
<title>Node7&#45;&gt;Node8</title>
<path fill="none" stroke="#191970" d="M543.4128,-126.051C557.0446,-128.4772 574.0335,-131.501 588.9416,-134.1544"/>
<polygon fill="#191970" stroke="#191970" points="588.4048,-137.6138 598.8634,-135.9203 589.6314,-130.7221 588.4048,-137.6138"/>
</g>
<!-- Node8&#45;&gt;Node5 -->
<g id="edge9" class="edge">
<title>Node8&#45;&gt;Node5</title>
<path fill="none" stroke="#191970" d="M633.6256,-149.5836C652.2186,-168.2841 695.003,-211.3159 718.5969,-235.0462"/>
<polygon fill="#191970" stroke="#191970" points="716.2672,-237.6672 725.7999,-242.2909 721.2312,-232.7317 716.2672,-237.6672"/>
</g>
<!-- Node9 -->
<g id="node10" class="node">
<title>Node9</title>
<g id="a_node10"><a xlink:href="_a_p_i_8h.html#aab53a247d88151a6623c20fa1ea940b0" target="_top" xlink:title="Sets the specified LCD backlight to be on or off. ">
<polygon fill="none" stroke="#000000" points="692.7715,-168.5 692.7715,-186.5 777.1406,-186.5 777.1406,-168.5 692.7715,-168.5"/>
<text text-anchor="middle" x="734.9561" y="-174.5" font-family="Helvetica,sans-Serif" font-size="10.00" fill="#000000">lcdSetBacklight</text>
</a>
</g>
</g>
<!-- Node8&#45;&gt;Node9 -->
<g id="edge10" class="edge">
<title>Node8&#45;&gt;Node9</title>
<path fill="none" stroke="#191970" d="M650.1909,-149.0815C664.5338,-153.8902 682.6628,-159.9681 698.4706,-165.2678"/>
<polygon fill="#191970" stroke="#191970" points="697.3646,-168.5885 707.9585,-168.4488 699.5898,-161.9515 697.3646,-168.5885"/>
</g>
<!-- Node10 -->
<g id="node11" class="node">
<title>Node10</title>
<g id="a_node11"><a xlink:href="_a_p_i_8h.html#a5fa1d119fe3e836b5519f97eae7a1272" target="_top" xlink:title="Clears the LCD screen on the specified port. ">
<polygon fill="none" stroke="#000000" points="708.6162,-131.5 708.6162,-149.5 761.2959,-149.5 761.2959,-131.5 708.6162,-131.5"/>
<text text-anchor="middle" x="734.9561" y="-137.5" font-family="Helvetica,sans-Serif" font-size="10.00" fill="#000000">lcdClear</text>
</a>
</g>
</g>
<!-- Node8&#45;&gt;Node10 -->
<g id="edge11" class="edge">
<title>Node8&#45;&gt;Node10</title>
<path fill="none" stroke="#191970" d="M650.1909,-140.5C664.3667,-140.5 682.2408,-140.5 697.917,-140.5"/>
<polygon fill="#191970" stroke="#191970" points="698.3461,-144.0001 708.3461,-140.5 698.346,-137.0001 698.3461,-144.0001"/>
</g>
<!-- Node11 -->
<g id="node12" class="node">
<title>Node11</title>
<g id="a_node12"><a xlink:href="_a_p_i_8h.html#a6cfad8271c6a566a2f51ca318f819a80" target="_top" xlink:title="Prints the formatted string to the attached LCD. ">
<polygon fill="none" stroke="#000000" points="710.2837,-94.5 710.2837,-112.5 759.6284,-112.5 759.6284,-94.5 710.2837,-94.5"/>
<text text-anchor="middle" x="734.9561" y="-100.5" font-family="Helvetica,sans-Serif" font-size="10.00" fill="#000000">lcdPrint</text>
</a>
</g>
</g>
<!-- Node8&#45;&gt;Node11 -->
<g id="edge12" class="edge">
<title>Node8&#45;&gt;Node11</title>
<path fill="none" stroke="#191970" d="M650.1909,-131.9185C665.1666,-126.8977 684.2698,-120.4931 700.5487,-115.0355"/>
<polygon fill="#191970" stroke="#191970" points="701.8887,-118.2777 710.2574,-111.7805 699.6635,-111.6408 701.8887,-118.2777"/>
</g>
<!-- Node15&#45;&gt;Node16 -->
<g id="edge17" class="edge">
<title>Node15&#45;&gt;Node16</title>
<path fill="none" stroke="#191970" d="M543.1418,-75.4945C556.9998,-70.5615 574.3879,-64.3719 589.536,-58.9796"/>
<polygon fill="#191970" stroke="#191970" points="590.8602,-62.2235 599.1074,-55.5725 588.5127,-55.6288 590.8602,-62.2235"/>
</g>
<!-- Node15&#45;&gt;Node17 -->
<g id="edge18" class="edge">
<title>Node15&#45;&gt;Node17</title>
<path fill="none" stroke="#191970" d="M528.6016,-75.4944C542.785,-63.8073 568.7202,-43.0703 592.417,-27.5 594.3295,-26.2434 596.3353,-24.9867 598.3711,-23.7545"/>
<polygon fill="#191970" stroke="#191970" points="600.3944,-26.6273 607.2917,-18.585 596.8846,-20.5707 600.3944,-26.6273"/>
</g>
<!-- Node18 -->
<g id="node19" class="node">
<title>Node18</title>
<g id="a_node19"><a xlink:href="_a_p_i_8h.html#a03c5b04b472d024281f62d7af8854a8e" target="_top" xlink:title="Sets the speed of the specified motor channel. ">
<polygon fill="none" stroke="#000000" points="596.3086,-75.5 596.3086,-93.5 652.8799,-93.5 652.8799,-75.5 596.3086,-75.5"/>
<text text-anchor="middle" x="624.5942" y="-81.5" font-family="Helvetica,sans-Serif" font-size="10.00" fill="#000000">motorSet</text>
</a>
</g>
</g>
<!-- Node15&#45;&gt;Node18 -->
<g id="edge19" class="edge">
<title>Node15&#45;&gt;Node18</title>
<path fill="none" stroke="#191970" d="M556.6848,-84.5C566.2287,-84.5 576.4438,-84.5 585.9771,-84.5"/>
<polygon fill="#191970" stroke="#191970" points="585.9903,-88.0001 595.9902,-84.5 585.9902,-81.0001 585.9903,-88.0001"/>
</g>
</g>
</svg>
