<?xml version="1.0" encoding="UTF-8" standalone="no"?>
<!DOCTYPE svg PUBLIC "-//W3C//DTD SVG 1.1//EN"
 "http://www.w3.org/Graphics/SVG/1.1/DTD/svg11.dtd">
<!-- Generated by graphviz version 2.40.1 (20161225.0304)
 -->
<!-- Title: battery_level_acceptable Pages: 1 -->
<svg width="293pt" height="64pt"
 viewBox="0.00 0.00 292.82 64.00" xmlns="http://www.w3.org/2000/svg" xmlns:xlink="http://www.w3.org/1999/xlink">
<g id="graph0" class="graph" transform="scale(1 1) rotate(0) translate(4 60)">
<title>battery_level_acceptable</title>
<!-- Node3 -->
<g id="node1" class="node">
<title>Node3</title>
<polygon fill="#bfbfbf" stroke="#000000" points="0,-18.5 0,-36.5 126.6299,-36.5 126.6299,-18.5 0,-18.5"/>
<text text-anchor="middle" x="63.3149" y="-24.5" font-family="Helvetica,sans-Serif" font-size="10.00" fill="#000000">battery_level_acceptable</text>
</g>
<!-- Node4 -->
<g id="node2" class="node">
<title>Node4</title>
<g id="a_node2"><a xlink:href="$battery_8c.html#a9b1c5cf7ddddebf63796050a1d4a9969" xlink:title="gets the backup battery voltage ">
<polygon fill="none" stroke="#000000" points="162.6299,-37.5 162.6299,-55.5 284.8164,-55.5 284.8164,-37.5 162.6299,-37.5"/>
<text text-anchor="middle" x="223.7231" y="-43.5" font-family="Helvetica,sans-Serif" font-size="10.00" fill="#000000">backup_battery_voltage</text>
</a>
</g>
</g>
<!-- Node3&#45;&gt;Node4 -->
<g id="edge1" class="edge">
<title>Node3&#45;&gt;Node4</title>
<path fill="none" stroke="#191970" d="M126.7125,-35.0093C135.2097,-36.0158 143.9705,-37.0535 152.5896,-38.0744"/>
<polygon fill="#191970" stroke="#191970" points="152.2762,-41.5617 162.6185,-39.2623 153.0996,-34.6102 152.2762,-41.5617"/>
</g>
<!-- Node5 -->
<g id="node3" class="node">
<title>Node5</title>
<g id="a_node3"><a xlink:href="$battery_8c.html#a8c92c389534fdb079698cdebeb7f2efa" xlink:title="gets the main battery voltage ">
<polygon fill="none" stroke="#000000" points="167.9155,-.5 167.9155,-18.5 279.5308,-18.5 279.5308,-.5 167.9155,-.5"/>
<text text-anchor="middle" x="223.7231" y="-6.5" font-family="Helvetica,sans-Serif" font-size="10.00" fill="#000000">main_battery_voltage</text>
</a>
</g>
</g>
<!-- Node3&#45;&gt;Node5 -->
<g id="edge2" class="edge">
<title>Node3&#45;&gt;Node5</title>
<path fill="none" stroke="#191970" d="M126.7125,-20.3859C136.8928,-19.2436 147.4512,-18.0588 157.6914,-16.9097"/>
<polygon fill="#191970" stroke="#191970" points="158.2523,-20.3688 167.7996,-15.7754 157.4716,-13.4124 158.2523,-20.3688"/>
</g>
</g>
</svg>
