<?xml version="1.0" encoding="UTF-8" standalone="no"?>
<!DOCTYPE svg PUBLIC "-//W3C//DTD SVG 1.1//EN"
 "http://www.w3.org/Graphics/SVG/1.1/DTD/svg11.dtd">
<!-- Generated by graphviz version 2.40.1 (20161225.0304)
 -->
<!-- Title: set_claw_motor Pages: 1 -->
<svg width="469pt" height="77pt"
 viewBox="0.00 0.00 468.50 76.82" xmlns="http://www.w3.org/2000/svg" xmlns:xlink="http://www.w3.org/1999/xlink">
<g id="graph0" class="graph" transform="scale(1 1) rotate(0) translate(4 72.8187)">
<title>set_claw_motor</title>
<!-- Node57 -->
<g id="node1" class="node">
<title>Node57</title>
<polygon fill="#bfbfbf" stroke="#000000" points="0,-37.5 0,-55.5 86.0293,-55.5 86.0293,-37.5 0,-37.5"/>
<text text-anchor="middle" x="43.0146" y="-43.5" font-family="Helvetica,sans-Serif" font-size="10.00" fill="#000000">set_claw_motor</text>
</g>
<!-- Node58 -->
<g id="node2" class="node">
<title>Node58</title>
<g id="a_node2"><a xlink:href="lifter_8c.html#a8a64fa88b389b39c236c5c57a7fb5c67" target="_top" xlink:title="Autostacks a cone once picked up. ">
<polygon fill="none" stroke="#000000" points="244.0781,-37.5 244.0781,-55.5 339.0186,-55.5 339.0186,-37.5 244.0781,-37.5"/>
<text text-anchor="middle" x="291.5483" y="-43.5" font-family="Helvetica,sans-Serif" font-size="10.00" fill="#000000">autostack_routine</text>
</a>
</g>
</g>
<!-- Node57&#45;&gt;Node58 -->
<g id="edge1" class="edge">
<title>Node57&#45;&gt;Node58</title>
<path fill="none" stroke="#191970" d="M83.1204,-58.0802C95.4878,-61.1256 109.2226,-63.9819 122.0293,-65.5 160.0073,-70.002 170.0734,-69.7708 208.0781,-65.5 225.3579,-63.5582 244.278,-59.4226 259.7296,-55.5041"/>
<polygon fill="#191970" stroke="#191970" points="83.6606,-54.6053 73.1038,-55.5029 81.9162,-61.3845 83.6606,-54.6053"/>
</g>
<!-- Node60 -->
<g id="node4" class="node">
<title>Node60</title>
<g id="a_node4"><a xlink:href="lifter_8c.html#aa4d172cbde795bc13fe6baabd074717e" target="_top" xlink:title="quit_auto_static">
<polygon fill="none" stroke="#000000" points="122.0293,-37.5 122.0293,-55.5 208.0781,-55.5 208.0781,-37.5 122.0293,-37.5"/>
<text text-anchor="middle" x="165.0537" y="-43.5" font-family="Helvetica,sans-Serif" font-size="10.00" fill="#000000">quit_auto_static</text>
</a>
</g>
</g>
<!-- Node57&#45;&gt;Node60 -->
<g id="edge3" class="edge">
<title>Node57&#45;&gt;Node60</title>
<path fill="none" stroke="#191970" d="M96.0702,-46.5C104.7354,-46.5 113.6185,-46.5 122.0045,-46.5"/>
<polygon fill="#191970" stroke="#191970" points="96.0411,-43.0001 86.0411,-46.5 96.041,-50.0001 96.0411,-43.0001"/>
</g>
<!-- Node61 -->
<g id="node5" class="node">
<title>Node61</title>
<g id="a_node5"><a xlink:href="claw_8c.html#a0122b78972344264b8a276a559cfce4a" target="_top" xlink:title="Updates the claw motor values. ">
<polygon fill="none" stroke="#000000" points="255.4722,-.5 255.4722,-18.5 327.6245,-18.5 327.6245,-.5 255.4722,-.5"/>
<text text-anchor="middle" x="291.5483" y="-6.5" font-family="Helvetica,sans-Serif" font-size="10.00" fill="#000000">update_claw</text>
</a>
</g>
</g>
<!-- Node57&#45;&gt;Node61 -->
<g id="edge5" class="edge">
<title>Node57&#45;&gt;Node61</title>
<path fill="none" stroke="#191970" d="M88.4422,-35.2335C99.3927,-32.7724 111.0902,-30.353 122.0293,-28.5 167.7253,-20.7594 220.9038,-15.3822 255.3387,-12.3716"/>
<polygon fill="#191970" stroke="#191970" points="87.5986,-31.8361 78.6387,-37.4903 89.169,-38.6576 87.5986,-31.8361"/>
</g>
<!-- Node59 -->
<g id="node3" class="node">
<title>Node59</title>
<g id="a_node3"><a xlink:href="opcontrol_8c.html#ac71a94af413917f27d108e95c4d6f6a7" target="_top" xlink:title="Runs the user operator control code. ">
<polygon fill="none" stroke="#000000" points="375.0186,-18.5 375.0186,-36.5 460.501,-36.5 460.501,-18.5 375.0186,-18.5"/>
<text text-anchor="middle" x="417.7598" y="-24.5" font-family="Helvetica,sans-Serif" font-size="10.00" fill="#000000">operatorControl</text>
</a>
</g>
</g>
<!-- Node58&#45;&gt;Node59 -->
<g id="edge2" class="edge">
<title>Node58&#45;&gt;Node59</title>
<path fill="none" stroke="#191970" d="M349.2986,-37.8062C357.9331,-36.5064 366.7023,-35.1862 374.9533,-33.9441"/>
<polygon fill="#191970" stroke="#191970" points="348.631,-34.3672 339.2635,-39.3169 349.6731,-41.2892 348.631,-34.3672"/>
</g>
<!-- Node60&#45;&gt;Node58 -->
<g id="edge4" class="edge">
<title>Node60&#45;&gt;Node58</title>
<path fill="none" stroke="#191970" d="M218.3664,-46.5C226.8073,-46.5 235.4903,-46.5 243.7938,-46.5"/>
<polygon fill="#191970" stroke="#191970" points="218.2322,-43.0001 208.2322,-46.5 218.2322,-50.0001 218.2322,-43.0001"/>
</g>
<!-- Node61&#45;&gt;Node59 -->
<g id="edge6" class="edge">
<title>Node61&#45;&gt;Node59</title>
<path fill="none" stroke="#191970" d="M337.6731,-16.0782C349.8341,-17.8126 362.9041,-19.6766 374.8859,-21.3854"/>
<polygon fill="#191970" stroke="#191970" points="338.1095,-12.6051 327.7155,-14.6581 337.1211,-19.535 338.1095,-12.6051"/>
</g>
</g>
</svg>
