<?xml version="1.0" encoding="UTF-8" standalone="no"?>
<!DOCTYPE svg PUBLIC "-//W3C//DTD SVG 1.1//EN"
 "http://www.w3.org/Graphics/SVG/1.1/DTD/svg11.dtd">
<!-- Generated by graphviz version 2.40.1 (20161225.0304)
 -->
<!-- Title: open_claw Pages: 1 -->
<!--zoomable 347 -->
<svg id="main" version="1.1" xmlns="http://www.w3.org/2000/svg" xmlns:xlink="http://www.w3.org/1999/xlink" xml:space="preserve" onload="init(evt)">
<style type="text/css"><![CDATA[
.edge:hover path { stroke: red; }
.edge:hover polygon { stroke: red; fill: red; }
]]></style>
<script type="text/javascript"><![CDATA[
var edges = document.getElementsByTagName('g');
if (edges && edges.length) {
  for (var i=0;i<edges.length;i++) {
    if (edges[i].id.substr(0,4)=='edge') {
      edges[i].setAttribute('class','edge');
    }
  }
}
]]></script>
        <defs>
                <circle id="rim" cx="0" cy="0" r="7"/>
                <circle id="rim2" cx="0" cy="0" r="3.5"/>
                <g id="zoomPlus">
                        <use xlink:href="#rim" fill="#404040">
                                <set attributeName="fill" to="#808080" begin="zoomplus.mouseover" end="zoomplus.mouseout"/>
                        </use>
                        <path d="M-4,0h8M0,-4v8" fill="none" stroke="white" stroke-width="1.5" pointer-events="none"/>
                </g>
                <g id="zoomMin">
                        <use xlink:href="#rim" fill="#404040">
                                <set attributeName="fill" to="#808080" begin="zoomminus.mouseover" end="zoomminus.mouseout"/>
                        </use>
                        <path d="M-4,0h8" fill="none" stroke="white" stroke-width="1.5" pointer-events="none"/>
                </g>
                <g id="dirArrow">
                        <path fill="none" stroke="white" stroke-width="1.5" d="M0,-3.0v7 M-2.5,-0.5L0,-3.0L2.5,-0.5"/>
                </g>
               <g id="resetDef">
                       <use xlink:href="#rim2" fill="#404040">
                               <set attributeName="fill" to="#808080" begin="reset.mouseover" end="reset.mouseout"/>
                       </use>
               </g>
        </defs>

<script type="text/javascript">
var viewWidth = 644;
var viewHeight = 347;
var sectionId = 'dynsection-3';
</script>
<script xlink:href="svgpan.js"/>
<svg id="graph" class="graph">
<g id="viewport">
<title>open_claw</title>
<!-- Node20 -->
<g id="node1" class="node">
<title>Node20</title>
<polygon fill="#bfbfbf" stroke="#000000" points="0,-150.6309 0,-168.6309 63.8125,-168.6309 63.8125,-150.6309 0,-150.6309"/>
<text text-anchor="middle" x="31.9063" y="-156.6309" font-family="Helvetica,sans-Serif" font-size="10.00" fill="#000000">open_claw</text>
</g>
<!-- Node21 -->
<g id="node2" class="node">
<title>Node21</title>
<g id="a_node2"><a xlink:href="slew_8h.html#a9f8b8ae577ef938622024545711f0151" target="_top" xlink:title="set_motor_immediate">
<polygon fill="none" stroke="#000000" points="99.8125,-150.6309 99.8125,-168.6309 211.9648,-168.6309 211.9648,-150.6309 99.8125,-150.6309"/>
<text text-anchor="middle" x="155.8887" y="-156.6309" font-family="Helvetica,sans-Serif" font-size="10.00" fill="#000000">set_motor_immediate</text>
</a>
</g>
</g>
<!-- Node20&#45;&gt;Node21 -->
<g id="edge1" class="edge">
<title>Node20&#45;&gt;Node21</title>
<path fill="none" stroke="#191970" d="M63.8348,-159.6309C71.7585,-159.6309 80.5468,-159.6309 89.4581,-159.6309"/>
<polygon fill="#191970" stroke="#191970" points="89.532,-163.131 99.532,-159.6309 89.5319,-156.131 89.532,-163.131"/>
</g>
<!-- Node22 -->
<g id="node3" class="node">
<title>Node22</title>
<g id="a_node3"><a xlink:href="log_8h.html#af3668f40d1ad1b4f3418869ac9a31f34" target="_top" xlink:title="prints a info message ">
<polygon fill="none" stroke="#000000" points="253.2358,-320.6309 253.2358,-338.6309 297.0435,-338.6309 297.0435,-320.6309 253.2358,-320.6309"/>
<text text-anchor="middle" x="275.1396" y="-326.6309" font-family="Helvetica,sans-Serif" font-size="10.00" fill="#000000">debug</text>
</a>
</g>
</g>
<!-- Node21&#45;&gt;Node22 -->
<g id="edge2" class="edge">
<title>Node21&#45;&gt;Node22</title>
<path fill="none" stroke="#191970" d="M160.4757,-168.7833C172.7167,-192.7274 207.9602,-258.6156 247.9648,-305.6309 250.2491,-308.3155 252.8343,-310.974 255.4796,-313.4894"/>
<polygon fill="#191970" stroke="#191970" points="253.5549,-316.4614 263.3544,-320.4891 258.2055,-311.2295 253.5549,-316.4614"/>
</g>
<!-- Node24 -->
<g id="node5" class="node">
<title>Node24</title>
<g id="a_node5"><a xlink:href="slew_8c.html#a321758941d88b75783955c819bb75005" target="_top" xlink:title="Initializes the slew rate controller. ">
<polygon fill="none" stroke="#000000" points="247.9648,-150.6309 247.9648,-168.6309 302.3145,-168.6309 302.3145,-150.6309 247.9648,-150.6309"/>
<text text-anchor="middle" x="275.1396" y="-156.6309" font-family="Helvetica,sans-Serif" font-size="10.00" fill="#000000">init_slew</text>
</a>
</g>
</g>
<!-- Node21&#45;&gt;Node24 -->
<g id="edge4" class="edge">
<title>Node21&#45;&gt;Node24</title>
<path fill="none" stroke="#191970" d="M212.0223,-159.6309C220.6751,-159.6309 229.4263,-159.6309 237.5437,-159.6309"/>
<polygon fill="#191970" stroke="#191970" points="237.7881,-163.131 247.7881,-159.6309 237.788,-156.131 237.7881,-163.131"/>
</g>
<!-- Node34 -->
<g id="node15" class="node">
<title>Node34</title>
<g id="a_node15"><a xlink:href="_a_p_i_8h.html#a8b51124628d2a7741738d48551d1e8ee" target="_top" xlink:title="mutexTake">
<polygon fill="none" stroke="#000000" points="451.4619,-193.6309 451.4619,-211.6309 515.8164,-211.6309 515.8164,-193.6309 451.4619,-193.6309"/>
<text text-anchor="middle" x="483.6392" y="-199.6309" font-family="Helvetica,sans-Serif" font-size="10.00" fill="#000000">mutexTake</text>
</a>
</g>
</g>
<!-- Node21&#45;&gt;Node34 -->
<g id="edge22" class="edge">
<title>Node21&#45;&gt;Node34</title>
<path fill="none" stroke="#191970" d="M171.8153,-168.6948C202.7165,-185.699 273.4778,-221.823 338.3145,-234.6309 371.9522,-241.2758 381.9962,-242.0942 415.4619,-234.6309 431.123,-231.1384 447.436,-223.6408 460.1771,-216.7806"/>
<polygon fill="#191970" stroke="#191970" points="462.1511,-219.6861 469.154,-211.7356 458.7216,-213.5837 462.1511,-219.6861"/>
</g>
<!-- Node35 -->
<g id="node16" class="node">
<title>Node35</title>
<g id="a_node16"><a xlink:href="_a_p_i_8h.html#afe171a08d22de18fc2ab604b2364959f" target="_top" xlink:title="mutexGive">
<polygon fill="none" stroke="#000000" points="451.7427,-94.6309 451.7427,-112.6309 515.5356,-112.6309 515.5356,-94.6309 451.7427,-94.6309"/>
<text text-anchor="middle" x="483.6392" y="-100.6309" font-family="Helvetica,sans-Serif" font-size="10.00" fill="#000000">mutexGive</text>
</a>
</g>
</g>
<!-- Node21&#45;&gt;Node35 -->
<g id="edge21" class="edge">
<title>Node21&#45;&gt;Node35</title>
<path fill="none" stroke="#191970" d="M172.3338,-150.5479C203.543,-133.8886 274.0006,-99.0213 338.3145,-86.6309 371.9831,-80.1445 381.4298,-82.452 415.4619,-86.6309 424.8871,-87.7883 434.8842,-89.8137 444.2339,-92.0722"/>
<polygon fill="#191970" stroke="#191970" points="443.5123,-95.5002 454.0675,-94.5843 445.245,-88.718 443.5123,-95.5002"/>
</g>
<!-- Node36 -->
<g id="node17" class="node">
<title>Node36</title>
<g id="a_node17"><a xlink:href="_a_p_i_8h.html#a03c5b04b472d024281f62d7af8854a8e" target="_top" xlink:title="motorSet">
<polygon fill="none" stroke="#000000" points="455.3535,-57.6309 455.3535,-75.6309 511.9248,-75.6309 511.9248,-57.6309 455.3535,-57.6309"/>
<text text-anchor="middle" x="483.6392" y="-63.6309" font-family="Helvetica,sans-Serif" font-size="10.00" fill="#000000">motorSet</text>
</a>
</g>
</g>
<!-- Node21&#45;&gt;Node36 -->
<g id="edge20" class="edge">
<title>Node21&#45;&gt;Node36</title>
<path fill="none" stroke="#191970" d="M162.9512,-150.4594C185.0791,-122.5794 256.4836,-38.9539 338.3145,-9.6309 370.5925,1.9354 384.0528,4.121 415.4619,-9.6309 437.0706,-19.0919 432.9387,-34.0249 451.4619,-48.6309 453.0075,-49.8497 454.6461,-51.0354 456.3329,-52.1783"/>
<polygon fill="#191970" stroke="#191970" points="454.613,-55.2295 464.9634,-57.4925 458.2833,-49.2689 454.613,-55.2295"/>
</g>
<!-- Node23 -->
<g id="node4" class="node">
<title>Node23</title>
<g id="a_node4"><a xlink:href="_a_p_i_8h.html#a403c82418e475fa4a8273719e6a7f3e6" target="_top" xlink:title="printf">
<polygon fill="none" stroke="#000000" points="574.8853,-192.6309 574.8853,-210.6309 613.1167,-210.6309 613.1167,-192.6309 574.8853,-192.6309"/>
<text text-anchor="middle" x="594.001" y="-198.6309" font-family="Helvetica,sans-Serif" font-size="10.00" fill="#000000">printf</text>
</a>
</g>
</g>
<!-- Node22&#45;&gt;Node23 -->
<g id="edge3" class="edge">
<title>Node22&#45;&gt;Node23</title>
<path fill="none" stroke="#191970" d="M297.1215,-326.6294C340.7708,-320.0319 440.6473,-301.7246 515.8164,-263.6309 539.285,-251.7377 562.4254,-232.1346 577.367,-218.1555"/>
<polygon fill="#191970" stroke="#191970" points="579.9789,-220.5 584.7744,-211.0526 575.1341,-215.4475 579.9789,-220.5"/>
</g>
<!-- Node25 -->
<g id="node6" class="node">
<title>Node25</title>
<g id="a_node6"><a xlink:href="log_8h.html#a0bec2cf5fff7f607bc510b74aba9887c" target="_top" xlink:title="prints a warning message and displays on lcd. Only will print and display if log_level is greater tha...">
<polygon fill="none" stroke="#000000" points="351.3784,-19.6309 351.3784,-37.6309 402.3979,-37.6309 402.3979,-19.6309 351.3784,-19.6309"/>
<text text-anchor="middle" x="376.8882" y="-25.6309" font-family="Helvetica,sans-Serif" font-size="10.00" fill="#000000">warning</text>
</a>
</g>
</g>
<!-- Node24&#45;&gt;Node25 -->
<g id="edge5" class="edge">
<title>Node24&#45;&gt;Node25</title>
<path fill="none" stroke="#191970" d="M282.1332,-150.6268C298.9059,-129.0322 341.6466,-74.0041 363.5321,-45.8267"/>
<polygon fill="#191970" stroke="#191970" points="366.4757,-47.7427 369.8457,-37.6981 360.9473,-43.4488 366.4757,-47.7427"/>
</g>
<!-- Node29 -->
<g id="node10" class="node">
<title>Node29</title>
<g id="a_node10"><a xlink:href="_a_p_i_8h.html#a8966c541f3e9565aea1289f0d2f2cf43" target="_top" xlink:title="motorStopAll">
<polygon fill="none" stroke="#000000" points="340.2651,-132.6309 340.2651,-150.6309 413.5112,-150.6309 413.5112,-132.6309 340.2651,-132.6309"/>
<text text-anchor="middle" x="376.8882" y="-138.6309" font-family="Helvetica,sans-Serif" font-size="10.00" fill="#000000">motorStopAll</text>
</a>
</g>
</g>
<!-- Node24&#45;&gt;Node29 -->
<g id="edge10" class="edge">
<title>Node24&#45;&gt;Node29</title>
<path fill="none" stroke="#191970" d="M302.4064,-154.8073C310.8793,-153.3084 320.4748,-151.6108 329.8921,-149.9449"/>
<polygon fill="#191970" stroke="#191970" points="330.7419,-153.349 339.9793,-148.1604 329.5224,-146.456 330.7419,-153.349"/>
</g>
<!-- Node30 -->
<g id="node11" class="node">
<title>Node30</title>
<g id="a_node11"><a xlink:href="log_8h.html#a1606d750e1bb8de9f9e917172bba3382" target="_top" xlink:title="prints a info message ">
<polygon fill="none" stroke="#000000" points="467.5776,-235.6309 467.5776,-253.6309 499.7007,-253.6309 499.7007,-235.6309 467.5776,-235.6309"/>
<text text-anchor="middle" x="483.6392" y="-241.6309" font-family="Helvetica,sans-Serif" font-size="10.00" fill="#000000">info</text>
</a>
</g>
</g>
<!-- Node24&#45;&gt;Node30 -->
<g id="edge11" class="edge">
<title>Node24&#45;&gt;Node30</title>
<path fill="none" stroke="#191970" d="M279.682,-168.8343C288.4238,-185.4073 309.3195,-219.9121 338.3145,-234.6309 376.0724,-253.7982 426.6067,-252.1705 457.0522,-248.7504"/>
<polygon fill="#191970" stroke="#191970" points="457.822,-252.1807 467.2992,-247.4445 456.937,-245.2369 457.822,-252.1807"/>
</g>
<!-- Node31 -->
<g id="node12" class="node">
<title>Node31</title>
<g id="a_node12"><a xlink:href="_a_p_i_8h.html#aecd027ce8f8b52a765735e9eb5b202b3" target="_top" xlink:title="mutexCreate">
<polygon fill="none" stroke="#000000" points="340.2651,-206.6309 340.2651,-224.6309 413.5112,-224.6309 413.5112,-206.6309 340.2651,-206.6309"/>
<text text-anchor="middle" x="376.8882" y="-212.6309" font-family="Helvetica,sans-Serif" font-size="10.00" fill="#000000">mutexCreate</text>
</a>
</g>
</g>
<!-- Node24&#45;&gt;Node31 -->
<g id="edge13" class="edge">
<title>Node24&#45;&gt;Node31</title>
<path fill="none" stroke="#191970" d="M289.4441,-168.8245C302.089,-176.8084 321.1404,-188.4911 338.3145,-197.6309 341.1849,-199.1586 344.2081,-200.6928 347.2469,-202.1863"/>
<polygon fill="#191970" stroke="#191970" points="345.74,-205.3452 356.2721,-206.4969 348.7569,-199.0287 345.74,-205.3452"/>
</g>
<!-- Node32 -->
<g id="node13" class="node">
<title>Node32</title>
<g id="a_node13"><a xlink:href="_a_p_i_8h.html#ab05a241d6d1fd98b1ceb4665db678156" target="_top" xlink:title="taskRunLoop">
<polygon fill="none" stroke="#000000" points="339.4229,-169.6309 339.4229,-187.6309 414.3535,-187.6309 414.3535,-169.6309 339.4229,-169.6309"/>
<text text-anchor="middle" x="376.8882" y="-175.6309" font-family="Helvetica,sans-Serif" font-size="10.00" fill="#000000">taskRunLoop</text>
</a>
</g>
</g>
<!-- Node24&#45;&gt;Node32 -->
<g id="edge14" class="edge">
<title>Node24&#45;&gt;Node32</title>
<path fill="none" stroke="#191970" d="M302.4064,-164.7226C310.7064,-166.2725 320.0837,-168.0236 329.3153,-169.7474"/>
<polygon fill="#191970" stroke="#191970" points="328.7451,-173.2014 339.2176,-171.5965 330.03,-166.3203 328.7451,-173.2014"/>
</g>
<!-- Node33 -->
<g id="node14" class="node">
<title>Node33</title>
<g id="a_node14"><a xlink:href="slew_8c.html#a807a87c5df438fde21c1e8213906695b" target="_top" xlink:title="Closes the distance between the desired motor value and the current motor value by half for each moto...">
<polygon fill="none" stroke="#000000" points="338.3145,-95.6309 338.3145,-113.6309 415.4619,-113.6309 415.4619,-95.6309 338.3145,-95.6309"/>
<text text-anchor="middle" x="376.8882" y="-101.6309" font-family="Helvetica,sans-Serif" font-size="10.00" fill="#000000">updateMotors</text>
</a>
</g>
</g>
<!-- Node24&#45;&gt;Node33 -->
<g id="edge15" class="edge">
<title>Node24&#45;&gt;Node33</title>
<path fill="none" stroke="#191970" d="M290.5721,-150.4909C303.2746,-143.0516 321.8107,-132.3876 338.3145,-123.6309 341.6776,-121.8465 345.2317,-120.019 348.7671,-118.2364"/>
<polygon fill="#191970" stroke="#191970" points="350.5378,-121.2649 357.9381,-113.683 347.4248,-114.9952 350.5378,-121.2649"/>
</g>
<!-- Node26 -->
<g id="node7" class="node">
<title>Node26</title>
<g id="a_node7"><a xlink:href="log_8c.html#afff22aff6749311a684a559cac3ac8bd" target="_top" xlink:title="log_info">
<polygon fill="none" stroke="#000000" points="458.1245,-20.6309 458.1245,-38.6309 509.1538,-38.6309 509.1538,-20.6309 458.1245,-20.6309"/>
<text text-anchor="middle" x="483.6392" y="-26.6309" font-family="Helvetica,sans-Serif" font-size="10.00" fill="#000000">log_info</text>
</a>
</g>
</g>
<!-- Node25&#45;&gt;Node26 -->
<g id="edge6" class="edge">
<title>Node25&#45;&gt;Node26</title>
<path fill="none" stroke="#191970" d="M402.4577,-28.8705C415.9584,-28.9969 432.752,-29.1543 447.5559,-29.2929"/>
<polygon fill="#191970" stroke="#191970" points="447.8759,-32.796 457.9083,-29.3899 447.9416,-25.7963 447.8759,-32.796"/>
</g>
<!-- Node26&#45;&gt;Node23 -->
<g id="edge7" class="edge">
<title>Node26&#45;&gt;Node23</title>
<path fill="none" stroke="#191970" d="M502.9752,-38.6617C507.5598,-41.4146 512.1712,-44.7564 515.8164,-48.6309 553.8477,-89.0548 577.897,-151.5399 588.1988,-182.664"/>
<polygon fill="#191970" stroke="#191970" points="584.8927,-183.8167 591.2697,-192.2774 591.5608,-181.6866 584.8927,-183.8167"/>
</g>
<!-- Node27 -->
<g id="node8" class="node">
<title>Node27</title>
<g id="a_node8"><a xlink:href="_a_p_i_8h.html#aab53a247d88151a6623c20fa1ea940b0" target="_top" xlink:title="lcdSetBacklight">
<polygon fill="none" stroke="#000000" points="551.8164,-39.6309 551.8164,-57.6309 636.1855,-57.6309 636.1855,-39.6309 551.8164,-39.6309"/>
<text text-anchor="middle" x="594.001" y="-45.6309" font-family="Helvetica,sans-Serif" font-size="10.00" fill="#000000">lcdSetBacklight</text>
</a>
</g>
</g>
<!-- Node26&#45;&gt;Node27 -->
<g id="edge8" class="edge">
<title>Node26&#45;&gt;Node27</title>
<path fill="none" stroke="#191970" d="M509.2358,-34.0377C518.9871,-35.7165 530.4885,-37.6966 541.8206,-39.6475"/>
<polygon fill="#191970" stroke="#191970" points="541.2384,-43.0987 551.6873,-41.3462 542.4261,-36.2002 541.2384,-43.0987"/>
</g>
<!-- Node28 -->
<g id="node9" class="node">
<title>Node28</title>
<g id="a_node9"><a xlink:href="_a_p_i_8h.html#a5fa1d119fe3e836b5519f97eae7a1272" target="_top" xlink:title="lcdClear">
<polygon fill="none" stroke="#000000" points="567.6611,-2.6309 567.6611,-20.6309 620.3408,-20.6309 620.3408,-2.6309 567.6611,-2.6309"/>
<text text-anchor="middle" x="594.001" y="-8.6309" font-family="Helvetica,sans-Serif" font-size="10.00" fill="#000000">lcdClear</text>
</a>
</g>
</g>
<!-- Node26&#45;&gt;Node28 -->
<g id="edge9" class="edge">
<title>Node26&#45;&gt;Node28</title>
<path fill="none" stroke="#191970" d="M509.2358,-25.4561C523.5479,-23.1218 541.6298,-20.1727 557.4135,-17.5984"/>
<polygon fill="#191970" stroke="#191970" points="558.0848,-21.0352 567.391,-15.971 556.958,-14.1265 558.0848,-21.0352"/>
</g>
<!-- Node30&#45;&gt;Node23 -->
<g id="edge12" class="edge">
<title>Node30&#45;&gt;Node23</title>
<path fill="none" stroke="#191970" d="M499.9234,-238.2862C517.1082,-231.5905 544.5334,-220.9049 565.3492,-212.7945"/>
<polygon fill="#191970" stroke="#191970" points="566.6278,-216.0527 574.6748,-209.1609 564.0864,-209.5302 566.6278,-216.0527"/>
</g>
<!-- Node33&#45;&gt;Node23 -->
<g id="edge18" class="edge">
<title>Node33&#45;&gt;Node23</title>
<path fill="none" stroke="#191970" d="M397.3136,-113.7565C436.1766,-131.1194 520.8456,-168.9472 565.3528,-188.8317"/>
<polygon fill="#191970" stroke="#191970" points="564.1668,-192.1352 574.7247,-193.0189 567.0222,-185.7441 564.1668,-192.1352"/>
</g>
<!-- Node33&#45;&gt;Node34 -->
<g id="edge16" class="edge">
<title>Node33&#45;&gt;Node34</title>
<path fill="none" stroke="#191970" d="M400.0506,-113.7544C405.4261,-116.4714 410.9028,-119.7734 415.4619,-123.6309 436.3662,-141.3181 433.1877,-153.2378 451.4619,-173.6309 455.4769,-178.1115 460.1249,-182.6237 464.618,-186.7103"/>
<polygon fill="#191970" stroke="#191970" points="462.5425,-189.5453 472.3685,-193.5076 467.158,-184.2825 462.5425,-189.5453"/>
</g>
<!-- Node33&#45;&gt;Node35 -->
<g id="edge17" class="edge">
<title>Node33&#45;&gt;Node35</title>
<path fill="none" stroke="#191970" d="M415.7297,-104.2671C424.1214,-104.1885 433.032,-104.105 441.5417,-104.0253"/>
<polygon fill="#191970" stroke="#191970" points="441.6945,-107.5241 451.6612,-103.9305 441.6288,-100.5244 441.6945,-107.5241"/>
</g>
<!-- Node33&#45;&gt;Node36 -->
<g id="edge19" class="edge">
<title>Node33&#45;&gt;Node36</title>
<path fill="none" stroke="#191970" d="M402.1867,-95.6255C416.0448,-90.6924 433.4328,-84.5028 448.5809,-79.1106"/>
<polygon fill="#191970" stroke="#191970" points="449.9052,-82.3544 458.1523,-75.7035 447.5576,-75.7598 449.9052,-82.3544"/>
</g>
</g>
</svg>
        <g id="navigator" transform="translate(0 0)" fill="#404254">
                <rect fill="#f2f5e9" fill-opacity="0.5" stroke="#606060" stroke-width=".5" x="0" y="0" width="60" height="60"/>
                <use id="zoomplus" xlink:href="#zoomPlus" x="17" y="9" onmousedown="handleZoom(evt,'in')"/>
                <use id="zoomminus" xlink:href="#zoomMin" x="42" y="9" onmousedown="handleZoom(evt,'out')"/>
                <use id="reset" xlink:href="#resetDef" x="30" y="36" onmousedown="handleReset()"/>
                <g id="arrowUp" xlink:href="#dirArrow" transform="translate(30 24)" onmousedown="handlePan(0,-1)">
                  <use xlink:href="#rim" fill="#404040">
                        <set attributeName="fill" to="#808080" begin="arrowUp.mouseover" end="arrowUp.mouseout"/>
                  </use>
                  <path fill="none" stroke="white" stroke-width="1.5" d="M0,-3.0v7 M-2.5,-0.5L0,-3.0L2.5,-0.5"/>
                </g>
                <g id="arrowRight" xlink:href="#dirArrow" transform="rotate(90) translate(36 -43)" onmousedown="handlePan(1,0)">
                  <use xlink:href="#rim" fill="#404040">
                        <set attributeName="fill" to="#808080" begin="arrowRight.mouseover" end="arrowRight.mouseout"/>
                  </use>
                  <path fill="none" stroke="white" stroke-width="1.5" d="M0,-3.0v7 M-2.5,-0.5L0,-3.0L2.5,-0.5"/>
                </g>
                <g id="arrowDown" xlink:href="#dirArrow" transform="rotate(180) translate(-30 -48)" onmousedown="handlePan(0,1)">
                  <use xlink:href="#rim" fill="#404040">
                        <set attributeName="fill" to="#808080" begin="arrowDown.mouseover" end="arrowDown.mouseout"/>
                  </use>
                  <path fill="none" stroke="white" stroke-width="1.5" d="M0,-3.0v7 M-2.5,-0.5L0,-3.0L2.5,-0.5"/>
                </g>
                <g id="arrowLeft" xlink:href="#dirArrow" transform="rotate(270) translate(-36 17)" onmousedown="handlePan(-1,0)">
                  <use xlink:href="#rim" fill="#404040">
                        <set attributeName="fill" to="#808080" begin="arrowLeft.mouseover" end="arrowLeft.mouseout"/>
                  </use>
                  <path fill="none" stroke="white" stroke-width="1.5" d="M0,-3.0v7 M-2.5,-0.5L0,-3.0L2.5,-0.5"/>
                </g>
        </g>
        <svg viewBox="0 0 15 15" width="100%" height="30px" preserveAspectRatio="xMaxYMin meet">
         <g id="arrow_out" transform="scale(0.3 0.3)">
          <a xlink:href="claw_8c_a03023ca28f671b9fa7bac07782ccd8c1_cgraph_org.svg" target="_base">
           <rect id="button" ry="5" rx="5" y="6" x="6" height="38" width="38"
                fill="#f2f5e9" fill-opacity="0.5" stroke="#606060" stroke-width="1.0"/>
           <path id="arrow"
             d="M 11.500037,31.436501 C 11.940474,20.09759 22.043105,11.32322 32.158766,21.979434 L 37.068811,17.246167 C 37.068811,17.246167 37.088388,32 37.088388,32 L 22.160133,31.978069 C 22.160133,31.978069 26.997745,27.140456 26.997745,27.140456 C 18.528582,18.264221 13.291696,25.230495 11.500037,31.436501 z"
             style="fill:#404040;"/>
          </a>
         </g>
        </svg>
</svg>
