<?xml version="1.0" encoding="UTF-8" standalone="no"?>
<!DOCTYPE svg PUBLIC "-//W3C//DTD SVG 1.1//EN"
 "http://www.w3.org/Graphics/SVG/1.1/DTD/svg11.dtd">
<!-- Generated by graphviz version 2.40.1 (20161225.0304)
 -->
<!-- Title: close_claw Pages: 1 -->
<svg width="512pt" height="101pt"
 viewBox="0.00 0.00 511.59 101.00" xmlns="http://www.w3.org/2000/svg" xmlns:xlink="http://www.w3.org/1999/xlink">
<g id="graph0" class="graph" transform="scale(1 1) rotate(0) translate(4 97)">
<title>close_claw</title>
<!-- Node0 -->
<g id="node1" class="node">
<title>Node0</title>
<polygon fill="#bfbfbf" stroke="#000000" points="0,-55.5 0,-73.5 64.9111,-73.5 64.9111,-55.5 0,-55.5"/>
<text text-anchor="middle" x="32.4556" y="-61.5" font-family="Helvetica,sans-Serif" font-size="10.00" fill="#000000">close_claw</text>
</g>
<!-- Node1 -->
<g id="node2" class="node">
<title>Node1</title>
<g id="a_node2"><a xlink:href="$slew_8h.html#a9f8b8ae577ef938622024545711f0151" xlink:title="Sets the motor speed ignoring the slew controller. ">
<polygon fill="none" stroke="#000000" points="100.9111,-55.5 100.9111,-73.5 213.0635,-73.5 213.0635,-55.5 100.9111,-55.5"/>
<text text-anchor="middle" x="156.9873" y="-61.5" font-family="Helvetica,sans-Serif" font-size="10.00" fill="#000000">set_motor_immediate</text>
</a>
</g>
</g>
<!-- Node0&#45;&gt;Node1 -->
<g id="edge1" class="edge">
<title>Node0&#45;&gt;Node1</title>
<path fill="none" stroke="#191970" d="M65.1748,-64.5C73.1333,-64.5 81.9302,-64.5 90.8336,-64.5"/>
<polygon fill="#191970" stroke="#191970" points="90.8919,-68.0001 100.8919,-64.5 90.8918,-61.0001 90.8919,-68.0001"/>
</g>
<!-- Node2 -->
<g id="node3" class="node">
<title>Node2</title>
<g id="a_node3"><a xlink:href="$log_8h.html#af3668f40d1ad1b4f3418869ac9a31f34" xlink:title="prints a info message ">
<polygon fill="none" stroke="#000000" points="254.3345,-74.5 254.3345,-92.5 298.1421,-92.5 298.1421,-74.5 254.3345,-74.5"/>
<text text-anchor="middle" x="276.2383" y="-80.5" font-family="Helvetica,sans-Serif" font-size="10.00" fill="#000000">debug</text>
</a>
</g>
</g>
<!-- Node1&#45;&gt;Node2 -->
<g id="edge2" class="edge">
<title>Node1&#45;&gt;Node2</title>
<path fill="none" stroke="#191970" d="M213.1209,-73.4436C223.8569,-75.1542 234.7444,-76.8889 244.3848,-78.4248"/>
<polygon fill="#191970" stroke="#191970" points="243.8637,-81.8859 254.2899,-80.003 244.9651,-74.9731 243.8637,-81.8859"/>
</g>
<!-- Node3 -->
<g id="node4" class="node">
<title>Node3</title>
<g id="a_node4"><a xlink:href="$slew_8c.html#a321758941d88b75783955c819bb75005" xlink:title="Initializes the slew rate controller. ">
<polygon fill="none" stroke="#000000" points="249.0635,-37.5 249.0635,-55.5 303.4131,-55.5 303.4131,-37.5 249.0635,-37.5"/>
<text text-anchor="middle" x="276.2383" y="-43.5" font-family="Helvetica,sans-Serif" font-size="10.00" fill="#000000">init_slew</text>
</a>
</g>
</g>
<!-- Node1&#45;&gt;Node3 -->
<g id="edge3" class="edge">
<title>Node1&#45;&gt;Node3</title>
<path fill="none" stroke="#191970" d="M213.1209,-56.0271C221.8709,-54.7063 230.7216,-53.3704 238.9157,-52.1336"/>
<polygon fill="#191970" stroke="#191970" points="239.5211,-55.5819 248.8867,-50.6285 238.4763,-48.6603 239.5211,-55.5819"/>
</g>
<!-- Node4 -->
<g id="node5" class="node">
<title>Node4</title>
<g id="a_node5"><a xlink:href="$log_8h.html#a0bec2cf5fff7f607bc510b74aba9887c" xlink:title="prints a warning message and displays on lcd. Only will print and display if log_level is greater tha...">
<polygon fill="none" stroke="#000000" points="352.4771,-74.5 352.4771,-92.5 403.4966,-92.5 403.4966,-74.5 352.4771,-74.5"/>
<text text-anchor="middle" x="377.9868" y="-80.5" font-family="Helvetica,sans-Serif" font-size="10.00" fill="#000000">warning</text>
</a>
</g>
</g>
<!-- Node3&#45;&gt;Node4 -->
<g id="edge4" class="edge">
<title>Node3&#45;&gt;Node4</title>
<path fill="none" stroke="#191970" d="M301.1288,-55.5512C313.8165,-60.165 329.4516,-65.8506 343.3001,-70.8865"/>
<polygon fill="#191970" stroke="#191970" points="342.4066,-74.2857 353.0006,-74.414 344.7989,-67.7072 342.4066,-74.2857"/>
</g>
<!-- Node6 -->
<g id="node7" class="node">
<title>Node6</title>
<g id="a_node7"><a xlink:href="$log_8h.html#a1606d750e1bb8de9f9e917172bba3382" xlink:title="prints a info message ">
<polygon fill="none" stroke="#000000" points="361.9253,-37.5 361.9253,-55.5 394.0483,-55.5 394.0483,-37.5 361.9253,-37.5"/>
<text text-anchor="middle" x="377.9868" y="-43.5" font-family="Helvetica,sans-Serif" font-size="10.00" fill="#000000">info</text>
</a>
</g>
</g>
<!-- Node3&#45;&gt;Node6 -->
<g id="edge6" class="edge">
<title>Node3&#45;&gt;Node6</title>
<path fill="none" stroke="#191970" d="M303.505,-46.5C318.4734,-46.5 336.9452,-46.5 351.7484,-46.5"/>
<polygon fill="#191970" stroke="#191970" points="351.7766,-50.0001 361.7766,-46.5 351.7766,-43.0001 351.7766,-50.0001"/>
</g>
<!-- Node7 -->
<g id="node8" class="node">
<title>Node7</title>
<g id="a_node8"><a xlink:href="$slew_8c.html#a807a87c5df438fde21c1e8213906695b" xlink:title="Closes the distance between the desired motor value and the current motor value by half for each moto...">
<polygon fill="none" stroke="#000000" points="339.4131,-.5 339.4131,-18.5 416.5605,-18.5 416.5605,-.5 339.4131,-.5"/>
<text text-anchor="middle" x="377.9868" y="-6.5" font-family="Helvetica,sans-Serif" font-size="10.00" fill="#000000">updateMotors</text>
</a>
</g>
</g>
<!-- Node3&#45;&gt;Node7 -->
<g id="edge7" class="edge">
<title>Node3&#45;&gt;Node7</title>
<path fill="none" stroke="#191970" d="M301.1288,-37.4488C313.8165,-32.835 329.4516,-27.1494 343.3001,-22.1135"/>
<polygon fill="#191970" stroke="#191970" points="344.7989,-25.2928 353.0006,-18.586 342.4066,-18.7143 344.7989,-25.2928"/>
</g>
<!-- Node5 -->
<g id="node6" class="node">
<title>Node5</title>
<g id="a_node6"><a xlink:href="$log_8c.html#afff22aff6749311a684a559cac3ac8bd" xlink:title="log_info">
<polygon fill="none" stroke="#000000" points="452.5605,-74.5 452.5605,-92.5 503.5898,-92.5 503.5898,-74.5 452.5605,-74.5"/>
<text text-anchor="middle" x="478.0752" y="-80.5" font-family="Helvetica,sans-Serif" font-size="10.00" fill="#000000">log_info</text>
</a>
</g>
</g>
<!-- Node4&#45;&gt;Node5 -->
<g id="edge5" class="edge">
<title>Node4&#45;&gt;Node5</title>
<path fill="none" stroke="#191970" d="M403.5023,-83.5C415.1763,-83.5 429.2161,-83.5 441.9498,-83.5"/>
<polygon fill="#191970" stroke="#191970" points="442.2583,-87.0001 452.2583,-83.5 442.2582,-80.0001 442.2583,-87.0001"/>
</g>
</g>
</svg>
