<?xml version="1.0" encoding="UTF-8" standalone="no"?>
<!DOCTYPE svg PUBLIC "-//W3C//DTD SVG 1.1//EN"
 "http://www.w3.org/Graphics/SVG/1.1/DTD/svg11.dtd">
<!-- Generated by graphviz version 2.40.1 (20161225.0304)
 -->
<!-- Title: close_claw Pages: 1 -->
<svg width="645pt" height="334pt"
 viewBox="0.00 0.00 645.28 334.39" xmlns="http://www.w3.org/2000/svg" xmlns:xlink="http://www.w3.org/1999/xlink">
<g id="graph0" class="graph" transform="scale(1 1) rotate(0) translate(4 330.3943)">
<title>close_claw</title>
<!-- Node0 -->
<g id="node1" class="node">
<title>Node0</title>
<polygon fill="#bfbfbf" stroke="#000000" points="0,-103.5 0,-121.5 64.9111,-121.5 64.9111,-103.5 0,-103.5"/>
<text text-anchor="middle" x="32.4556" y="-109.5" font-family="Helvetica,sans-Serif" font-size="10.00" fill="#000000">close_claw</text>
</g>
<!-- Node1 -->
<g id="node2" class="node">
<title>Node1</title>
<g id="a_node2"><a xlink:href="slew_8h.html#a9f8b8ae577ef938622024545711f0151" target="_top" xlink:title="set_motor_immediate">
<polygon fill="none" stroke="#000000" points="100.9111,-103.5 100.9111,-121.5 213.0635,-121.5 213.0635,-103.5 100.9111,-103.5"/>
<text text-anchor="middle" x="156.9873" y="-109.5" font-family="Helvetica,sans-Serif" font-size="10.00" fill="#000000">set_motor_immediate</text>
</a>
</g>
</g>
<!-- Node0&#45;&gt;Node1 -->
<g id="edge1" class="edge">
<title>Node0&#45;&gt;Node1</title>
<path fill="none" stroke="#191970" d="M65.1748,-112.5C73.1333,-112.5 81.9302,-112.5 90.8336,-112.5"/>
<polygon fill="#191970" stroke="#191970" points="90.8919,-116.0001 100.8919,-112.5 90.8918,-109.0001 90.8919,-116.0001"/>
</g>
<!-- Node2 -->
<g id="node3" class="node">
<title>Node2</title>
<g id="a_node3"><a xlink:href="log_8h.html#af3668f40d1ad1b4f3418869ac9a31f34" target="_top" xlink:title="prints a info message ">
<polygon fill="none" stroke="#000000" points="254.3345,-272.5 254.3345,-290.5 298.1421,-290.5 298.1421,-272.5 254.3345,-272.5"/>
<text text-anchor="middle" x="276.2383" y="-278.5" font-family="Helvetica,sans-Serif" font-size="10.00" fill="#000000">debug</text>
</a>
</g>
</g>
<!-- Node1&#45;&gt;Node2 -->
<g id="edge2" class="edge">
<title>Node1&#45;&gt;Node2</title>
<path fill="none" stroke="#191970" d="M163.3988,-121.5862C182.4061,-148.523 238.6877,-228.2841 263.8452,-263.9368"/>
<polygon fill="#191970" stroke="#191970" points="261.1699,-266.2161 269.7951,-272.3689 266.8894,-262.1803 261.1699,-266.2161"/>
</g>
<!-- Node4 -->
<g id="node5" class="node">
<title>Node4</title>
<g id="a_node5"><a xlink:href="slew_8c.html#a321758941d88b75783955c819bb75005" target="_top" xlink:title="Initializes the slew rate controller. ">
<polygon fill="none" stroke="#000000" points="249.0635,-178.5 249.0635,-196.5 303.4131,-196.5 303.4131,-178.5 249.0635,-178.5"/>
<text text-anchor="middle" x="276.2383" y="-184.5" font-family="Helvetica,sans-Serif" font-size="10.00" fill="#000000">init_slew</text>
</a>
</g>
</g>
<!-- Node1&#45;&gt;Node4 -->
<g id="edge4" class="edge">
<title>Node1&#45;&gt;Node4</title>
<path fill="none" stroke="#191970" d="M171.6098,-121.6965C192.0149,-134.5297 229.2312,-157.936 253.335,-173.0956"/>
<polygon fill="#191970" stroke="#191970" points="251.5403,-176.1014 261.8687,-178.4626 255.267,-170.1759 251.5403,-176.1014"/>
</g>
<!-- Node14 -->
<g id="node15" class="node">
<title>Node14</title>
<g id="a_node15"><a xlink:href="_a_p_i_8h.html#a8b51124628d2a7741738d48551d1e8ee" target="_top" xlink:title="mutexTake">
<polygon fill="none" stroke="#000000" points="452.5605,-84.5 452.5605,-102.5 516.915,-102.5 516.915,-84.5 452.5605,-84.5"/>
<text text-anchor="middle" x="484.7378" y="-90.5" font-family="Helvetica,sans-Serif" font-size="10.00" fill="#000000">mutexTake</text>
</a>
</g>
</g>
<!-- Node1&#45;&gt;Node14 -->
<g id="edge20" class="edge">
<title>Node1&#45;&gt;Node14</title>
<path fill="none" stroke="#191970" d="M213.3296,-109.2338C278.4218,-105.4603 384.0394,-99.3376 442.4758,-95.95"/>
<polygon fill="#191970" stroke="#191970" points="442.6917,-99.4434 452.4724,-95.3705 442.2865,-92.4552 442.6917,-99.4434"/>
</g>
<!-- Node15 -->
<g id="node16" class="node">
<title>Node15</title>
<g id="a_node16"><a xlink:href="_a_p_i_8h.html#afe171a08d22de18fc2ab604b2364959f" target="_top" xlink:title="mutexGive">
<polygon fill="none" stroke="#000000" points="452.8413,-37.5 452.8413,-55.5 516.6343,-55.5 516.6343,-37.5 452.8413,-37.5"/>
<text text-anchor="middle" x="484.7378" y="-43.5" font-family="Helvetica,sans-Serif" font-size="10.00" fill="#000000">mutexGive</text>
</a>
</g>
</g>
<!-- Node1&#45;&gt;Node15 -->
<g id="edge21" class="edge">
<title>Node1&#45;&gt;Node15</title>
<path fill="none" stroke="#191970" d="M180.1718,-103.4974C214.4101,-90.6385 280.7782,-67.3681 339.4131,-56.5 373.74,-50.1374 413.304,-47.729 442.4751,-46.8603"/>
<polygon fill="#191970" stroke="#191970" points="442.8134,-50.3531 452.7232,-46.6055 442.6393,-43.3552 442.8134,-50.3531"/>
</g>
<!-- Node16 -->
<g id="node17" class="node">
<title>Node16</title>
<g id="a_node17"><a xlink:href="_a_p_i_8h.html#a03c5b04b472d024281f62d7af8854a8e" target="_top" xlink:title="motorSet">
<polygon fill="none" stroke="#000000" points="456.4521,-.5 456.4521,-18.5 513.0234,-18.5 513.0234,-.5 456.4521,-.5"/>
<text text-anchor="middle" x="484.7378" y="-6.5" font-family="Helvetica,sans-Serif" font-size="10.00" fill="#000000">motorSet</text>
</a>
</g>
</g>
<!-- Node1&#45;&gt;Node16 -->
<g id="edge19" class="edge">
<title>Node1&#45;&gt;Node16</title>
<path fill="none" stroke="#191970" d="M169.7547,-103.4062C186.9609,-91.5708 218.9197,-71.0419 249.0635,-59.5 315.8821,-33.9154 398.6331,-20.1973 446.1891,-13.9107"/>
<polygon fill="#191970" stroke="#191970" points="446.8782,-17.3512 456.353,-12.61 445.9896,-10.4078 446.8782,-17.3512"/>
</g>
<!-- Node3 -->
<g id="node4" class="node">
<title>Node3</title>
<g id="a_node4"><a xlink:href="_a_p_i_8h.html#a403c82418e475fa4a8273719e6a7f3e6" target="_top" xlink:title="printf">
<polygon fill="none" stroke="#000000" points="575.9839,-253.5 575.9839,-271.5 614.2153,-271.5 614.2153,-253.5 575.9839,-253.5"/>
<text text-anchor="middle" x="595.0996" y="-259.5" font-family="Helvetica,sans-Serif" font-size="10.00" fill="#000000">printf</text>
</a>
</g>
</g>
<!-- Node2&#45;&gt;Node3 -->
<g id="edge3" class="edge">
<title>Node2&#45;&gt;Node3</title>
<path fill="none" stroke="#191970" d="M287.0146,-290.5205C298.9488,-299.8695 319.1873,-313.8857 339.4131,-319.5 423.0794,-342.7241 524.1623,-299.6052 570.1496,-276.181"/>
<polygon fill="#191970" stroke="#191970" points="571.8526,-279.2403 579.1004,-271.5125 568.6154,-273.0338 571.8526,-279.2403"/>
</g>
<!-- Node5 -->
<g id="node6" class="node">
<title>Node5</title>
<g id="a_node6"><a xlink:href="log_8h.html#a0bec2cf5fff7f607bc510b74aba9887c" target="_top" xlink:title="prints a warning message and displays on lcd. Only will print and display if log_level is greater tha...">
<polygon fill="none" stroke="#000000" points="352.4771,-215.5 352.4771,-233.5 403.4966,-233.5 403.4966,-215.5 352.4771,-215.5"/>
<text text-anchor="middle" x="377.9868" y="-221.5" font-family="Helvetica,sans-Serif" font-size="10.00" fill="#000000">warning</text>
</a>
</g>
</g>
<!-- Node4&#45;&gt;Node5 -->
<g id="edge5" class="edge">
<title>Node4&#45;&gt;Node5</title>
<path fill="none" stroke="#191970" d="M301.1288,-196.5512C313.8165,-201.165 329.4516,-206.8506 343.3001,-211.8865"/>
<polygon fill="#191970" stroke="#191970" points="342.4066,-215.2857 353.0006,-215.414 344.7989,-208.7072 342.4066,-215.2857"/>
</g>
<!-- Node9 -->
<g id="node10" class="node">
<title>Node9</title>
<g id="a_node10"><a xlink:href="_a_p_i_8h.html#a8966c541f3e9565aea1289f0d2f2cf43" target="_top" xlink:title="motorStopAll">
<polygon fill="none" stroke="#000000" points="341.3638,-178.5 341.3638,-196.5 414.6099,-196.5 414.6099,-178.5 341.3638,-178.5"/>
<text text-anchor="middle" x="377.9868" y="-184.5" font-family="Helvetica,sans-Serif" font-size="10.00" fill="#000000">motorStopAll</text>
</a>
</g>
</g>
<!-- Node4&#45;&gt;Node9 -->
<g id="edge10" class="edge">
<title>Node4&#45;&gt;Node9</title>
<path fill="none" stroke="#191970" d="M303.505,-187.5C311.978,-187.5 321.5735,-187.5 330.9907,-187.5"/>
<polygon fill="#191970" stroke="#191970" points="331.078,-191.0001 341.0779,-187.5 331.0779,-184.0001 331.078,-191.0001"/>
</g>
<!-- Node10 -->
<g id="node11" class="node">
<title>Node10</title>
<g id="a_node11"><a xlink:href="log_8h.html#a1606d750e1bb8de9f9e917172bba3382" target="_top" xlink:title="prints a info message ">
<polygon fill="none" stroke="#000000" points="468.6763,-253.5 468.6763,-271.5 500.7993,-271.5 500.7993,-253.5 468.6763,-253.5"/>
<text text-anchor="middle" x="484.7378" y="-259.5" font-family="Helvetica,sans-Serif" font-size="10.00" fill="#000000">info</text>
</a>
</g>
</g>
<!-- Node4&#45;&gt;Node10 -->
<g id="edge11" class="edge">
<title>Node4&#45;&gt;Node10</title>
<path fill="none" stroke="#191970" d="M283.6473,-196.9149C294.4044,-209.8331 315.6737,-232.6805 339.4131,-243.5 378.1805,-261.1687 428.4038,-263.8528 458.5133,-263.5953"/>
<polygon fill="#191970" stroke="#191970" points="458.711,-267.0921 468.6378,-263.3897 458.5688,-260.0936 458.711,-267.0921"/>
</g>
<!-- Node11 -->
<g id="node12" class="node">
<title>Node11</title>
<g id="a_node12"><a xlink:href="_a_p_i_8h.html#aecd027ce8f8b52a765735e9eb5b202b3" target="_top" xlink:title="mutexCreate">
<polygon fill="none" stroke="#000000" points="341.3638,-141.5 341.3638,-159.5 414.6099,-159.5 414.6099,-141.5 341.3638,-141.5"/>
<text text-anchor="middle" x="377.9868" y="-147.5" font-family="Helvetica,sans-Serif" font-size="10.00" fill="#000000">mutexCreate</text>
</a>
</g>
</g>
<!-- Node4&#45;&gt;Node11 -->
<g id="edge13" class="edge">
<title>Node4&#45;&gt;Node11</title>
<path fill="none" stroke="#191970" d="M301.1288,-178.4488C313.8165,-173.835 329.4516,-168.1494 343.3001,-163.1135"/>
<polygon fill="#191970" stroke="#191970" points="344.7989,-166.2928 353.0006,-159.586 342.4066,-159.7143 344.7989,-166.2928"/>
</g>
<!-- Node12 -->
<g id="node13" class="node">
<title>Node12</title>
<g id="a_node13"><a xlink:href="_a_p_i_8h.html#ab05a241d6d1fd98b1ceb4665db678156" target="_top" xlink:title="taskRunLoop">
<polygon fill="none" stroke="#000000" points="340.5215,-291.5 340.5215,-309.5 415.4521,-309.5 415.4521,-291.5 340.5215,-291.5"/>
<text text-anchor="middle" x="377.9868" y="-297.5" font-family="Helvetica,sans-Serif" font-size="10.00" fill="#000000">taskRunLoop</text>
</a>
</g>
</g>
<!-- Node4&#45;&gt;Node12 -->
<g id="edge14" class="edge">
<title>Node4&#45;&gt;Node12</title>
<path fill="none" stroke="#191970" d="M281.1417,-196.7314C290.6302,-213.9713 312.9189,-251.5676 339.4131,-276.5 343.0281,-279.9019 347.1971,-283.0817 351.4292,-285.943"/>
<polygon fill="#191970" stroke="#191970" points="349.7141,-288.9986 360.0475,-291.338 353.4284,-283.0652 349.7141,-288.9986"/>
</g>
<!-- Node13 -->
<g id="node14" class="node">
<title>Node13</title>
<g id="a_node14"><a xlink:href="slew_8c.html#a807a87c5df438fde21c1e8213906695b" target="_top" xlink:title="Closes the distance between the desired motor value and the current motor value by half for each moto...">
<polygon fill="none" stroke="#000000" points="339.4131,-65.5 339.4131,-83.5 416.5605,-83.5 416.5605,-65.5 339.4131,-65.5"/>
<text text-anchor="middle" x="377.9868" y="-71.5" font-family="Helvetica,sans-Serif" font-size="10.00" fill="#000000">updateMotors</text>
</a>
</g>
</g>
<!-- Node4&#45;&gt;Node13 -->
<g id="edge15" class="edge">
<title>Node4&#45;&gt;Node13</title>
<path fill="none" stroke="#191970" d="M284.5648,-178.2527C301.7171,-159.2037 341.1997,-115.355 362.9439,-91.2064"/>
<polygon fill="#191970" stroke="#191970" points="365.7392,-93.3326 369.8296,-83.5592 360.5372,-88.6486 365.7392,-93.3326"/>
</g>
<!-- Node6 -->
<g id="node7" class="node">
<title>Node6</title>
<g id="a_node7"><a xlink:href="log_8c.html#afff22aff6749311a684a559cac3ac8bd" target="_top" xlink:title="log_info">
<polygon fill="none" stroke="#000000" points="459.2231,-216.5 459.2231,-234.5 510.2524,-234.5 510.2524,-216.5 459.2231,-216.5"/>
<text text-anchor="middle" x="484.7378" y="-222.5" font-family="Helvetica,sans-Serif" font-size="10.00" fill="#000000">log_info</text>
</a>
</g>
</g>
<!-- Node5&#45;&gt;Node6 -->
<g id="edge6" class="edge">
<title>Node5&#45;&gt;Node6</title>
<path fill="none" stroke="#191970" d="M403.5563,-224.7395C417.057,-224.866 433.8507,-225.0233 448.6546,-225.162"/>
<polygon fill="#191970" stroke="#191970" points="448.9746,-228.665 459.0069,-225.259 449.0402,-221.6653 448.9746,-228.665"/>
</g>
<!-- Node6&#45;&gt;Node3 -->
<g id="edge7" class="edge">
<title>Node6&#45;&gt;Node3</title>
<path fill="none" stroke="#191970" d="M510.3344,-234.0815C527.0483,-239.6851 548.9034,-247.0122 566.2354,-252.823"/>
<polygon fill="#191970" stroke="#191970" points="565.2506,-256.1842 575.8445,-256.0445 567.4757,-249.5473 565.2506,-256.1842"/>
</g>
<!-- Node7 -->
<g id="node8" class="node">
<title>Node7</title>
<g id="a_node8"><a xlink:href="_a_p_i_8h.html#aab53a247d88151a6623c20fa1ea940b0" target="_top" xlink:title="lcdSetBacklight">
<polygon fill="none" stroke="#000000" points="552.915,-216.5 552.915,-234.5 637.2842,-234.5 637.2842,-216.5 552.915,-216.5"/>
<text text-anchor="middle" x="595.0996" y="-222.5" font-family="Helvetica,sans-Serif" font-size="10.00" fill="#000000">lcdSetBacklight</text>
</a>
</g>
</g>
<!-- Node6&#45;&gt;Node7 -->
<g id="edge8" class="edge">
<title>Node6&#45;&gt;Node7</title>
<path fill="none" stroke="#191970" d="M510.3344,-225.5C519.9873,-225.5 531.3549,-225.5 542.5758,-225.5"/>
<polygon fill="#191970" stroke="#191970" points="542.7859,-229.0001 552.7859,-225.5 542.7859,-222.0001 542.7859,-229.0001"/>
</g>
<!-- Node8 -->
<g id="node9" class="node">
<title>Node8</title>
<g id="a_node9"><a xlink:href="_a_p_i_8h.html#a5fa1d119fe3e836b5519f97eae7a1272" target="_top" xlink:title="lcdClear">
<polygon fill="none" stroke="#000000" points="568.7598,-179.5 568.7598,-197.5 621.4395,-197.5 621.4395,-179.5 568.7598,-179.5"/>
<text text-anchor="middle" x="595.0996" y="-185.5" font-family="Helvetica,sans-Serif" font-size="10.00" fill="#000000">lcdClear</text>
</a>
</g>
</g>
<!-- Node6&#45;&gt;Node8 -->
<g id="edge9" class="edge">
<title>Node6&#45;&gt;Node8</title>
<path fill="none" stroke="#191970" d="M510.3344,-216.9185C524.7828,-212.0745 543.0732,-205.9424 558.9624,-200.6154"/>
<polygon fill="#191970" stroke="#191970" points="560.1209,-203.9185 568.4896,-197.4213 557.8957,-197.2816 560.1209,-203.9185"/>
</g>
<!-- Node10&#45;&gt;Node3 -->
<g id="edge12" class="edge">
<title>Node10&#45;&gt;Node3</title>
<path fill="none" stroke="#191970" d="M501.0221,-262.5C517.9736,-262.5 544.8894,-262.5 565.5965,-262.5"/>
<polygon fill="#191970" stroke="#191970" points="565.7735,-266.0001 575.7735,-262.5 565.7734,-259.0001 565.7735,-266.0001"/>
</g>
<!-- Node13&#45;&gt;Node14 -->
<g id="edge16" class="edge">
<title>Node13&#45;&gt;Node14</title>
<path fill="none" stroke="#191970" d="M416.8283,-81.4132C425.1353,-82.8917 433.9506,-84.4607 442.3824,-85.9614"/>
<polygon fill="#191970" stroke="#191970" points="441.9584,-89.4409 452.417,-87.7474 443.1851,-82.5492 441.9584,-89.4409"/>
</g>
<!-- Node13&#45;&gt;Node15 -->
<g id="edge17" class="edge">
<title>Node13&#45;&gt;Node15</title>
<path fill="none" stroke="#191970" d="M412.3511,-65.4865C422.0422,-62.9446 432.6952,-60.1504 442.778,-57.5057"/>
<polygon fill="#191970" stroke="#191970" points="443.8292,-60.8485 452.614,-54.9258 442.0532,-54.0775 443.8292,-60.8485"/>
</g>
<!-- Node13&#45;&gt;Node16 -->
<g id="edge18" class="edge">
<title>Node13&#45;&gt;Node16</title>
<path fill="none" stroke="#191970" d="M391.8713,-65.4439C406.7471,-55.8134 431.1165,-40.2437 452.5605,-27.5 454.5725,-26.3044 456.666,-25.0831 458.7769,-23.8679"/>
<polygon fill="#191970" stroke="#191970" points="460.9653,-26.6509 467.9422,-18.6776 457.5159,-20.5598 460.9653,-26.6509"/>
</g>
</g>
</svg>
