<?xml version="1.0" encoding="UTF-8" standalone="no"?>
<!DOCTYPE svg PUBLIC "-//W3C//DTD SVG 1.1//EN"
 "http://www.w3.org/Graphics/SVG/1.1/DTD/svg11.dtd">
<!-- Generated by graphviz version 2.40.1 (20161225.0304)
 -->
<!-- Title: getClawTicks Pages: 1 -->
<svg width="313pt" height="27pt"
 viewBox="0.00 0.00 312.73 27.00" xmlns="http://www.w3.org/2000/svg" xmlns:xlink="http://www.w3.org/1999/xlink">
<g id="graph0" class="graph" transform="scale(1 1) rotate(0) translate(4 23)">
<title>getClawTicks</title>
<!-- Node21 -->
<g id="node1" class="node">
<title>Node21</title>
<polygon fill="#bfbfbf" stroke="#000000" points="0,-.5 0,-18.5 75.0918,-18.5 75.0918,-.5 0,-.5"/>
<text text-anchor="middle" x="37.5459" y="-6.5" font-family="Helvetica,sans-Serif" font-size="10.00" fill="#000000">getClawTicks</text>
</g>
<!-- Node22 -->
<g id="node2" class="node">
<title>Node22</title>
<g id="a_node2"><a xlink:href="claw_8c.html#a0122b78972344264b8a276a559cfce4a" target="_top" xlink:title="Updates the claw motor values. ">
<polygon fill="none" stroke="#000000" points="111.0918,-.5 111.0918,-18.5 183.2441,-18.5 183.2441,-.5 111.0918,-.5"/>
<text text-anchor="middle" x="147.168" y="-6.5" font-family="Helvetica,sans-Serif" font-size="10.00" fill="#000000">update_claw</text>
</a>
</g>
</g>
<!-- Node21&#45;&gt;Node22 -->
<g id="edge1" class="edge">
<title>Node21&#45;&gt;Node22</title>
<path fill="none" stroke="#191970" d="M85.4853,-9.5C93.9962,-9.5 102.7317,-9.5 110.8533,-9.5"/>
<polygon fill="#191970" stroke="#191970" points="85.2716,-6.0001 75.2716,-9.5 85.2716,-13.0001 85.2716,-6.0001"/>
</g>
<!-- Node23 -->
<g id="node3" class="node">
<title>Node23</title>
<g id="a_node3"><a xlink:href="opcontrol_8c.html#ac71a94af413917f27d108e95c4d6f6a7" target="_top" xlink:title="operatorControl">
<polygon fill="none" stroke="#000000" points="219.2441,-.5 219.2441,-18.5 304.7266,-18.5 304.7266,-.5 219.2441,-.5"/>
<text text-anchor="middle" x="261.9854" y="-6.5" font-family="Helvetica,sans-Serif" font-size="10.00" fill="#000000">operatorControl</text>
</a>
</g>
</g>
<!-- Node22&#45;&gt;Node23 -->
<g id="edge2" class="edge">
<title>Node22&#45;&gt;Node23</title>
<path fill="none" stroke="#191970" d="M193.5622,-9.5C201.9898,-9.5 210.7464,-9.5 219.0683,-9.5"/>
<polygon fill="#191970" stroke="#191970" points="193.4969,-6.0001 183.4969,-9.5 193.4969,-13.0001 193.4969,-6.0001"/>
</g>
</g>
</svg>
