<?xml version="1.0" encoding="UTF-8" standalone="no"?>
<!DOCTYPE svg PUBLIC "-//W3C//DTD SVG 1.1//EN"
 "http://www.w3.org/Graphics/SVG/1.1/DTD/svg11.dtd">
<!-- Generated by graphviz version 2.40.1 (20161225.0304)
 -->
<!-- Title: include/claw.h Pages: 1 -->
<svg width="335pt" height="247pt"
 viewBox="0.00 0.00 334.69 247.00" xmlns="http://www.w3.org/2000/svg" xmlns:xlink="http://www.w3.org/1999/xlink">
<g id="graph0" class="graph" transform="scale(1 1) rotate(0) translate(4 243)">
<title>include/claw.h</title>
<!-- Node0 -->
<g id="node1" class="node">
<title>Node0</title>
<polygon fill="#bfbfbf" stroke="#000000" points="133.7095,-220.5 133.7095,-238.5 211.9751,-238.5 211.9751,-220.5 133.7095,-220.5"/>
<text text-anchor="middle" x="172.8423" y="-226.5" font-family="Helvetica,sans-Serif" font-size="10.00" fill="#000000">include/claw.h</text>
</g>
<!-- Node1 -->
<g id="node2" class="node">
<title>Node1</title>
<g id="a_node2"><a xlink:href="slew_8h.html" target="_top" xlink:title="Contains the slew rate controller wrapper for the motors. ">
<polygon fill="none" stroke="#000000" points="186.9434,-165.5 186.9434,-183.5 230.7412,-183.5 230.7412,-165.5 186.9434,-165.5"/>
<text text-anchor="middle" x="208.8423" y="-171.5" font-family="Helvetica,sans-Serif" font-size="10.00" fill="#000000">slew.h</text>
</a>
</g>
</g>
<!-- Node0&#45;&gt;Node1 -->
<g id="edge1" class="edge">
<title>Node0&#45;&gt;Node1</title>
<path fill="none" stroke="#191970" d="M178.787,-220.4179C183.7597,-212.8207 191.0042,-201.7527 197.1347,-192.3866"/>
<polygon fill="#191970" stroke="#191970" points="200.2203,-194.0633 202.7685,-183.7795 194.3634,-190.2297 200.2203,-194.0633"/>
</g>
<!-- Node2 -->
<g id="node3" class="node">
<title>Node2</title>
<g id="a_node3"><a xlink:href="_a_p_i_8h.html" target="_top" xlink:title="Provides the high&#45;level user functionality intended for use by typical VEX Cortex programmers...">
<polygon fill="none" stroke="#000000" points="109.6133,-55.5 109.6133,-73.5 150.0713,-73.5 150.0713,-55.5 109.6133,-55.5"/>
<text text-anchor="middle" x="129.8423" y="-61.5" font-family="Helvetica,sans-Serif" font-size="10.00" fill="#000000">API.h</text>
</a>
</g>
</g>
<!-- Node0&#45;&gt;Node2 -->
<g id="edge12" class="edge">
<title>Node0&#45;&gt;Node2</title>
<path fill="none" stroke="#191970" d="M143.2964,-220.3461C126.1551,-213.3427 106.0006,-201.8019 95.8423,-184 76.8835,-150.7758 100.5087,-106.2354 116.8162,-82.0018"/>
<polygon fill="#191970" stroke="#191970" points="119.713,-83.9671 122.6039,-73.7742 113.9877,-79.9395 119.713,-83.9671"/>
</g>
<!-- Node10 -->
<g id="node11" class="node">
<title>Node10</title>
<g id="a_node11"><a xlink:href="controller_8h.html" target="_top" xlink:title="controller definitions, macros ">
<polygon fill="none" stroke="#000000" points="104.3818,-165.5 104.3818,-183.5 169.3027,-183.5 169.3027,-165.5 104.3818,-165.5"/>
<text text-anchor="middle" x="136.8423" y="-171.5" font-family="Helvetica,sans-Serif" font-size="10.00" fill="#000000">controller.h</text>
</a>
</g>
</g>
<!-- Node0&#45;&gt;Node10 -->
<g id="edge13" class="edge">
<title>Node0&#45;&gt;Node10</title>
<path fill="none" stroke="#191970" d="M166.8976,-220.4179C161.9249,-212.8207 154.6804,-201.7527 148.5499,-192.3866"/>
<polygon fill="#191970" stroke="#191970" points="151.3212,-190.2297 142.9161,-183.7795 145.4643,-194.0633 151.3212,-190.2297"/>
</g>
<!-- Node12 -->
<g id="node13" class="node">
<title>Node12</title>
<g id="a_node13"><a xlink:href="motor__ports_8h.html" target="_top" xlink:title="motor_ports.h">
<polygon fill="none" stroke="#000000" points="248.9951,-165.5 248.9951,-183.5 326.6895,-183.5 326.6895,-165.5 248.9951,-165.5"/>
<text text-anchor="middle" x="287.8423" y="-171.5" font-family="Helvetica,sans-Serif" font-size="10.00" fill="#000000">motor_ports.h</text>
</a>
</g>
</g>
<!-- Node0&#45;&gt;Node12 -->
<g id="edge17" class="edge">
<title>Node0&#45;&gt;Node12</title>
<path fill="none" stroke="#191970" d="M191.8322,-220.4179C210.3099,-211.5807 238.6071,-198.0473 259.7006,-187.9591"/>
<polygon fill="#191970" stroke="#191970" points="261.3129,-191.0677 268.8242,-183.5956 258.2927,-184.7528 261.3129,-191.0677"/>
</g>
<!-- Node1&#45;&gt;Node2 -->
<g id="edge2" class="edge">
<title>Node1&#45;&gt;Node2</title>
<path fill="none" stroke="#191970" d="M202.2468,-165.4509C195.5701,-156.2799 184.9585,-141.6753 175.8423,-129 164.4688,-113.1862 151.6009,-95.1289 142.373,-82.1504"/>
<polygon fill="#191970" stroke="#191970" points="145.0157,-79.8268 136.3704,-73.7023 139.3094,-83.8813 145.0157,-79.8268"/>
</g>
<!-- Node7 -->
<g id="node8" class="node">
<title>Node7</title>
<polygon fill="none" stroke="#bfbfbf" points="245.5566,-55.5 245.5566,-73.5 292.1279,-73.5 292.1279,-55.5 245.5566,-55.5"/>
<text text-anchor="middle" x="268.8423" y="-61.5" font-family="Helvetica,sans-Serif" font-size="10.00" fill="#000000">math.h</text>
</g>
<!-- Node1&#45;&gt;Node7 -->
<g id="edge7" class="edge">
<title>Node1&#45;&gt;Node7</title>
<path fill="none" stroke="#191970" d="M230.7682,-166.9661C255.8902,-157.8373 294.6561,-142.0572 302.8423,-129 312.7349,-113.2209 300.027,-94.275 287.4285,-81.0138"/>
<polygon fill="#191970" stroke="#191970" points="289.7885,-78.4261 280.1951,-73.9297 284.8906,-83.4272 289.7885,-78.4261"/>
</g>
<!-- Node8 -->
<g id="node9" class="node">
<title>Node8</title>
<g id="a_node9"><a xlink:href="vlib_8h.html" target="_top" xlink:title="Contains misc helpful functions. ">
<polygon fill="none" stroke="#000000" points="185.1699,-110.5 185.1699,-128.5 224.5146,-128.5 224.5146,-110.5 185.1699,-110.5"/>
<text text-anchor="middle" x="204.8423" y="-116.5" font-family="Helvetica,sans-Serif" font-size="10.00" fill="#000000">vlib.h</text>
</a>
</g>
</g>
<!-- Node1&#45;&gt;Node8 -->
<g id="edge8" class="edge">
<title>Node1&#45;&gt;Node8</title>
<path fill="none" stroke="#191970" d="M208.1818,-165.4179C207.658,-158.2164 206.9075,-147.8962 206.2505,-138.8632"/>
<polygon fill="#191970" stroke="#191970" points="209.7334,-138.4992 205.5172,-128.7795 202.7518,-139.007 209.7334,-138.4992"/>
</g>
<!-- Node3 -->
<g id="node4" class="node">
<title>Node3</title>
<polygon fill="none" stroke="#bfbfbf" points="0,-.5 0,-18.5 47.6846,-18.5 47.6846,-.5 0,-.5"/>
<text text-anchor="middle" x="23.8423" y="-6.5" font-family="Helvetica,sans-Serif" font-size="10.00" fill="#000000">stdlib.h</text>
</g>
<!-- Node2&#45;&gt;Node3 -->
<g id="edge3" class="edge">
<title>Node2&#45;&gt;Node3</title>
<path fill="none" stroke="#191970" d="M112.3385,-55.4179C95.4603,-46.6603 69.6935,-33.2907 50.3087,-23.2326"/>
<polygon fill="#191970" stroke="#191970" points="51.8603,-20.0946 41.372,-18.5956 48.6363,-26.308 51.8603,-20.0946"/>
</g>
<!-- Node4 -->
<g id="node5" class="node">
<title>Node4</title>
<polygon fill="none" stroke="#bfbfbf" points="65.5493,-.5 65.5493,-18.5 122.1353,-18.5 122.1353,-.5 65.5493,-.5"/>
<text text-anchor="middle" x="93.8423" y="-6.5" font-family="Helvetica,sans-Serif" font-size="10.00" fill="#000000">stdbool.h</text>
</g>
<!-- Node2&#45;&gt;Node4 -->
<g id="edge4" class="edge">
<title>Node2&#45;&gt;Node4</title>
<path fill="none" stroke="#191970" d="M123.8976,-55.4179C118.9249,-47.8207 111.6804,-36.7527 105.5499,-27.3866"/>
<polygon fill="#191970" stroke="#191970" points="108.3212,-25.2297 99.9161,-18.7795 102.4643,-29.0633 108.3212,-25.2297"/>
</g>
<!-- Node5 -->
<g id="node6" class="node">
<title>Node5</title>
<polygon fill="none" stroke="#bfbfbf" points="139.7759,-.5 139.7759,-18.5 191.9087,-18.5 191.9087,-.5 139.7759,-.5"/>
<text text-anchor="middle" x="165.8423" y="-6.5" font-family="Helvetica,sans-Serif" font-size="10.00" fill="#000000">stdarg.h</text>
</g>
<!-- Node2&#45;&gt;Node5 -->
<g id="edge5" class="edge">
<title>Node2&#45;&gt;Node5</title>
<path fill="none" stroke="#191970" d="M135.787,-55.4179C140.7597,-47.8207 148.0042,-36.7527 154.1347,-27.3866"/>
<polygon fill="#191970" stroke="#191970" points="157.2203,-29.0633 159.7685,-18.7795 151.3634,-25.2297 157.2203,-29.0633"/>
</g>
<!-- Node6 -->
<g id="node7" class="node">
<title>Node6</title>
<polygon fill="none" stroke="#bfbfbf" points="209.7217,-.5 209.7217,-18.5 257.9629,-18.5 257.9629,-.5 209.7217,-.5"/>
<text text-anchor="middle" x="233.8423" y="-6.5" font-family="Helvetica,sans-Serif" font-size="10.00" fill="#000000">stdint.h</text>
</g>
<!-- Node2&#45;&gt;Node6 -->
<g id="edge6" class="edge">
<title>Node2&#45;&gt;Node6</title>
<path fill="none" stroke="#191970" d="M147.0158,-55.4179C163.5002,-46.7001 188.6265,-33.4122 207.6155,-23.3699"/>
<polygon fill="#191970" stroke="#191970" points="209.4396,-26.3646 216.6433,-18.5956 206.1671,-20.1767 209.4396,-26.3646"/>
</g>
<!-- Node8&#45;&gt;Node2 -->
<g id="edge10" class="edge">
<title>Node8&#45;&gt;Node2</title>
<path fill="none" stroke="#191970" d="M192.4576,-110.4179C181.0583,-102.0584 163.9286,-89.4966 150.4658,-79.6239"/>
<polygon fill="#191970" stroke="#191970" points="152.3793,-76.6869 142.2454,-73.5956 148.2397,-82.3317 152.3793,-76.6869"/>
</g>
<!-- Node8&#45;&gt;Node7 -->
<g id="edge9" class="edge">
<title>Node8&#45;&gt;Node7</title>
<path fill="none" stroke="#191970" d="M215.4106,-110.4179C224.8956,-102.2667 239.0298,-90.1201 250.3789,-80.3669"/>
<polygon fill="#191970" stroke="#191970" points="252.7413,-82.9516 258.0444,-73.7795 248.179,-77.6427 252.7413,-82.9516"/>
</g>
<!-- Node9 -->
<g id="node10" class="node">
<title>Node9</title>
<polygon fill="none" stroke="#bfbfbf" points="178.4458,-55.5 178.4458,-73.5 227.2388,-73.5 227.2388,-55.5 178.4458,-55.5"/>
<text text-anchor="middle" x="202.8423" y="-61.5" font-family="Helvetica,sans-Serif" font-size="10.00" fill="#000000">string.h</text>
</g>
<!-- Node8&#45;&gt;Node9 -->
<g id="edge11" class="edge">
<title>Node8&#45;&gt;Node9</title>
<path fill="none" stroke="#191970" d="M204.512,-110.4179C204.2502,-103.2164 203.8749,-92.8962 203.5464,-83.8632"/>
<polygon fill="#191970" stroke="#191970" points="207.0409,-83.6456 203.1797,-73.7795 200.0455,-83.9001 207.0409,-83.6456"/>
</g>
<!-- Node10&#45;&gt;Node2 -->
<g id="edge16" class="edge">
<title>Node10&#45;&gt;Node2</title>
<path fill="none" stroke="#191970" d="M136.2694,-165.4982C135.1363,-147.6913 132.5864,-107.6225 131.061,-83.6515"/>
<polygon fill="#191970" stroke="#191970" points="134.5511,-83.3836 130.423,-73.6261 127.5653,-83.8283 134.5511,-83.3836"/>
</g>
<!-- Node11 -->
<g id="node12" class="node">
<title>Node11</title>
<g id="a_node12"><a xlink:href="vmath_8h.html" target="_top" xlink:title="Vex Specific Math Functions, includes: Cartesian to polar cordinates. ">
<polygon fill="none" stroke="#000000" points="242.0566,-110.5 242.0566,-128.5 293.6279,-128.5 293.6279,-110.5 242.0566,-110.5"/>
<text text-anchor="middle" x="267.8423" y="-116.5" font-family="Helvetica,sans-Serif" font-size="10.00" fill="#000000">vmath.h</text>
</a>
</g>
</g>
<!-- Node10&#45;&gt;Node11 -->
<g id="edge14" class="edge">
<title>Node10&#45;&gt;Node11</title>
<path fill="none" stroke="#191970" d="M158.4743,-165.4179C179.8073,-156.4613 212.6302,-142.6806 236.7548,-132.552"/>
<polygon fill="#191970" stroke="#191970" points="238.3127,-135.6939 246.1782,-128.5956 235.6029,-129.2397 238.3127,-135.6939"/>
</g>
<!-- Node11&#45;&gt;Node7 -->
<g id="edge15" class="edge">
<title>Node11&#45;&gt;Node7</title>
<path fill="none" stroke="#191970" d="M268.0074,-110.4179C268.1384,-103.2164 268.326,-92.8962 268.4902,-83.8632"/>
<polygon fill="#191970" stroke="#191970" points="271.9911,-83.8415 268.6736,-73.7795 264.9923,-83.7141 271.9911,-83.8415"/>
</g>
</g>
</svg>
