<?xml version="1.0" encoding="UTF-8" standalone="no"?>
<!DOCTYPE svg PUBLIC "-//W3C//DTD SVG 1.1//EN"
 "http://www.w3.org/Graphics/SVG/1.1/DTD/svg11.dtd">
<!-- Generated by graphviz version 2.40.1 (20161225.0304)
 -->
<!-- Title: update_claw Pages: 1 -->
<svg width="641pt" height="119pt"
 viewBox="0.00 0.00 640.86 119.00" xmlns="http://www.w3.org/2000/svg" xmlns:xlink="http://www.w3.org/1999/xlink">
<g id="graph0" class="graph" transform="scale(1 1) rotate(0) translate(4 115)">
<title>update_claw</title>
<!-- Node35 -->
<g id="node1" class="node">
<title>Node35</title>
<polygon fill="#bfbfbf" stroke="#000000" points="0,-73.5 0,-91.5 72.1523,-91.5 72.1523,-73.5 0,-73.5"/>
<text text-anchor="middle" x="36.0762" y="-79.5" font-family="Helvetica,sans-Serif" font-size="10.00" fill="#000000">update_claw</text>
</g>
<!-- Node36 -->
<g id="node2" class="node">
<title>Node36</title>
<g id="a_node2"><a xlink:href="$claw_8c.html#addd2004effae7c94400aed1fe6a90ead" xlink:title="Gets the claw position in potentiometer ticks. ">
<polygon fill="none" stroke="#000000" points="113.6211,-92.5 113.6211,-110.5 188.7129,-110.5 188.7129,-92.5 113.6211,-92.5"/>
<text text-anchor="middle" x="151.167" y="-98.5" font-family="Helvetica,sans-Serif" font-size="10.00" fill="#000000">getClawTicks</text>
</a>
</g>
</g>
<!-- Node35&#45;&gt;Node36 -->
<g id="edge1" class="edge">
<title>Node35&#45;&gt;Node36</title>
<path fill="none" stroke="#191970" d="M72.1759,-88.4596C82.1672,-90.109 93.1652,-91.9247 103.6982,-93.6635"/>
<polygon fill="#191970" stroke="#191970" points="103.1698,-97.1236 113.6064,-95.2992 104.31,-90.2171 103.1698,-97.1236"/>
</g>
<!-- Node37 -->
<g id="node3" class="node">
<title>Node37</title>
<g id="a_node3"><a xlink:href="$claw_8c.html#a3a57f998b1884d39b0cc786689f7086f" xlink:title="sets the claw motor speed ">
<polygon fill="none" stroke="#000000" points="108.1523,-55.5 108.1523,-73.5 194.1816,-73.5 194.1816,-55.5 108.1523,-55.5"/>
<text text-anchor="middle" x="151.167" y="-61.5" font-family="Helvetica,sans-Serif" font-size="10.00" fill="#000000">set_claw_motor</text>
</a>
</g>
</g>
<!-- Node35&#45;&gt;Node37 -->
<g id="edge2" class="edge">
<title>Node35&#45;&gt;Node37</title>
<path fill="none" stroke="#191970" d="M72.1759,-76.8541C80.3255,-75.5795 89.1449,-74.2001 97.8354,-72.841"/>
<polygon fill="#191970" stroke="#191970" points="98.5912,-76.2654 107.9302,-71.2622 97.5095,-69.3495 98.5912,-76.2654"/>
</g>
<!-- Node38 -->
<g id="node4" class="node">
<title>Node38</title>
<g id="a_node4"><a xlink:href="$slew_8h.html#a9f8b8ae577ef938622024545711f0151" xlink:title="Sets the motor speed ignoring the slew controller. ">
<polygon fill="none" stroke="#000000" points="230.1816,-55.5 230.1816,-73.5 342.334,-73.5 342.334,-55.5 230.1816,-55.5"/>
<text text-anchor="middle" x="286.2578" y="-61.5" font-family="Helvetica,sans-Serif" font-size="10.00" fill="#000000">set_motor_immediate</text>
</a>
</g>
</g>
<!-- Node37&#45;&gt;Node38 -->
<g id="edge3" class="edge">
<title>Node37&#45;&gt;Node38</title>
<path fill="none" stroke="#191970" d="M194.282,-64.5C202.385,-64.5 211.0301,-64.5 219.6547,-64.5"/>
<polygon fill="#191970" stroke="#191970" points="219.7362,-68.0001 229.7361,-64.5 219.7361,-61.0001 219.7362,-68.0001"/>
</g>
<!-- Node39 -->
<g id="node5" class="node">
<title>Node39</title>
<g id="a_node5"><a xlink:href="$log_8h.html#af3668f40d1ad1b4f3418869ac9a31f34" xlink:title="prints a info message ">
<polygon fill="none" stroke="#000000" points="383.605,-74.5 383.605,-92.5 427.4126,-92.5 427.4126,-74.5 383.605,-74.5"/>
<text text-anchor="middle" x="405.5088" y="-80.5" font-family="Helvetica,sans-Serif" font-size="10.00" fill="#000000">debug</text>
</a>
</g>
</g>
<!-- Node38&#45;&gt;Node39 -->
<g id="edge4" class="edge">
<title>Node38&#45;&gt;Node39</title>
<path fill="none" stroke="#191970" d="M342.3914,-73.4436C353.1274,-75.1542 364.0149,-76.8889 373.6553,-78.4248"/>
<polygon fill="#191970" stroke="#191970" points="373.1342,-81.8859 383.5604,-80.003 374.2356,-74.9731 373.1342,-81.8859"/>
</g>
<!-- Node40 -->
<g id="node6" class="node">
<title>Node40</title>
<g id="a_node6"><a xlink:href="$slew_8c.html#a321758941d88b75783955c819bb75005" xlink:title="Initializes the slew rate controller. ">
<polygon fill="none" stroke="#000000" points="378.334,-37.5 378.334,-55.5 432.6836,-55.5 432.6836,-37.5 378.334,-37.5"/>
<text text-anchor="middle" x="405.5088" y="-43.5" font-family="Helvetica,sans-Serif" font-size="10.00" fill="#000000">init_slew</text>
</a>
</g>
</g>
<!-- Node38&#45;&gt;Node40 -->
<g id="edge5" class="edge">
<title>Node38&#45;&gt;Node40</title>
<path fill="none" stroke="#191970" d="M342.3914,-56.0271C351.1414,-54.7063 359.9921,-53.3704 368.1862,-52.1336"/>
<polygon fill="#191970" stroke="#191970" points="368.7916,-55.5819 378.1572,-50.6285 367.7468,-48.6603 368.7916,-55.5819"/>
</g>
<!-- Node41 -->
<g id="node7" class="node">
<title>Node41</title>
<g id="a_node7"><a xlink:href="$log_8h.html#a0bec2cf5fff7f607bc510b74aba9887c" xlink:title="prints a warning message and displays on lcd. Only will print and display if log_level is greater tha...">
<polygon fill="none" stroke="#000000" points="481.7476,-74.5 481.7476,-92.5 532.7671,-92.5 532.7671,-74.5 481.7476,-74.5"/>
<text text-anchor="middle" x="507.2573" y="-80.5" font-family="Helvetica,sans-Serif" font-size="10.00" fill="#000000">warning</text>
</a>
</g>
</g>
<!-- Node40&#45;&gt;Node41 -->
<g id="edge6" class="edge">
<title>Node40&#45;&gt;Node41</title>
<path fill="none" stroke="#191970" d="M430.3993,-55.5512C443.087,-60.165 458.7221,-65.8506 472.5707,-70.8865"/>
<polygon fill="#191970" stroke="#191970" points="471.6771,-74.2857 482.2712,-74.414 474.0694,-67.7072 471.6771,-74.2857"/>
</g>
<!-- Node43 -->
<g id="node9" class="node">
<title>Node43</title>
<g id="a_node9"><a xlink:href="$log_8h.html#a1606d750e1bb8de9f9e917172bba3382" xlink:title="prints a info message ">
<polygon fill="none" stroke="#000000" points="491.1958,-37.5 491.1958,-55.5 523.3188,-55.5 523.3188,-37.5 491.1958,-37.5"/>
<text text-anchor="middle" x="507.2573" y="-43.5" font-family="Helvetica,sans-Serif" font-size="10.00" fill="#000000">info</text>
</a>
</g>
</g>
<!-- Node40&#45;&gt;Node43 -->
<g id="edge8" class="edge">
<title>Node40&#45;&gt;Node43</title>
<path fill="none" stroke="#191970" d="M432.7755,-46.5C447.7439,-46.5 466.2157,-46.5 481.0189,-46.5"/>
<polygon fill="#191970" stroke="#191970" points="481.0471,-50.0001 491.0471,-46.5 481.0471,-43.0001 481.0471,-50.0001"/>
</g>
<!-- Node44 -->
<g id="node10" class="node">
<title>Node44</title>
<g id="a_node10"><a xlink:href="$slew_8c.html#a807a87c5df438fde21c1e8213906695b" xlink:title="Closes the distance between the desired motor value and the current motor value by half for each moto...">
<polygon fill="none" stroke="#000000" points="468.6836,-.5 468.6836,-18.5 545.8311,-18.5 545.8311,-.5 468.6836,-.5"/>
<text text-anchor="middle" x="507.2573" y="-6.5" font-family="Helvetica,sans-Serif" font-size="10.00" fill="#000000">updateMotors</text>
</a>
</g>
</g>
<!-- Node40&#45;&gt;Node44 -->
<g id="edge9" class="edge">
<title>Node40&#45;&gt;Node44</title>
<path fill="none" stroke="#191970" d="M430.3993,-37.4488C443.087,-32.835 458.7221,-27.1494 472.5707,-22.1135"/>
<polygon fill="#191970" stroke="#191970" points="474.0694,-25.2928 482.2712,-18.586 471.6771,-18.7143 474.0694,-25.2928"/>
</g>
<!-- Node42 -->
<g id="node8" class="node">
<title>Node42</title>
<g id="a_node8"><a xlink:href="$log_8c.html#afff22aff6749311a684a559cac3ac8bd" xlink:title="log_info">
<polygon fill="none" stroke="#000000" points="581.8311,-74.5 581.8311,-92.5 632.8604,-92.5 632.8604,-74.5 581.8311,-74.5"/>
<text text-anchor="middle" x="607.3457" y="-80.5" font-family="Helvetica,sans-Serif" font-size="10.00" fill="#000000">log_info</text>
</a>
</g>
</g>
<!-- Node41&#45;&gt;Node42 -->
<g id="edge7" class="edge">
<title>Node41&#45;&gt;Node42</title>
<path fill="none" stroke="#191970" d="M532.7728,-83.5C544.4468,-83.5 558.4866,-83.5 571.2203,-83.5"/>
<polygon fill="#191970" stroke="#191970" points="571.5288,-87.0001 581.5288,-83.5 571.5288,-80.0001 571.5288,-87.0001"/>
</g>
</g>
</svg>
