<?xml version="1.0" encoding="UTF-8" standalone="no"?>
<!DOCTYPE svg PUBLIC "-//W3C//DTD SVG 1.1//EN"
 "http://www.w3.org/Graphics/SVG/1.1/DTD/svg11.dtd">
<!-- Generated by graphviz version 2.40.1 (20161225.0304)
 -->
<!-- Title: update_claw Pages: 1 -->
<!--zoomable 316 -->
<svg id="main" version="1.1" xmlns="http://www.w3.org/2000/svg" xmlns:xlink="http://www.w3.org/1999/xlink" xml:space="preserve" onload="init(evt)">
<style type="text/css"><![CDATA[
.edge:hover path { stroke: red; }
.edge:hover polygon { stroke: red; fill: red; }
]]></style>
<script type="text/javascript"><![CDATA[
var edges = document.getElementsByTagName('g');
if (edges && edges.length) {
  for (var i=0;i<edges.length;i++) {
    if (edges[i].id.substr(0,4)=='edge') {
      edges[i].setAttribute('class','edge');
    }
  }
}
]]></script>
        <defs>
                <circle id="rim" cx="0" cy="0" r="7"/>
                <circle id="rim2" cx="0" cy="0" r="3.5"/>
                <g id="zoomPlus">
                        <use xlink:href="#rim" fill="#404040">
                                <set attributeName="fill" to="#808080" begin="zoomplus.mouseover" end="zoomplus.mouseout"/>
                        </use>
                        <path d="M-4,0h8M0,-4v8" fill="none" stroke="white" stroke-width="1.5" pointer-events="none"/>
                </g>
                <g id="zoomMin">
                        <use xlink:href="#rim" fill="#404040">
                                <set attributeName="fill" to="#808080" begin="zoomminus.mouseover" end="zoomminus.mouseout"/>
                        </use>
                        <path d="M-4,0h8" fill="none" stroke="white" stroke-width="1.5" pointer-events="none"/>
                </g>
                <g id="dirArrow">
                        <path fill="none" stroke="white" stroke-width="1.5" d="M0,-3.0v7 M-2.5,-0.5L0,-3.0L2.5,-0.5"/>
                </g>
               <g id="resetDef">
                       <use xlink:href="#rim2" fill="#404040">
                               <set attributeName="fill" to="#808080" begin="reset.mouseover" end="reset.mouseout"/>
                       </use>
               </g>
        </defs>

<script type="text/javascript">
var viewWidth = 781;
var viewHeight = 316;
var sectionId = 'dynsection-5';
</script>
<script xlink:href="svgpan.js"/>
<svg id="graph" class="graph">
<g id="viewport">
<title>update_claw</title>
<!-- Node64 -->
<g id="node1" class="node">
<title>Node64</title>
<polygon fill="#bfbfbf" stroke="#000000" points="0,-121.5 0,-139.5 72.1523,-139.5 72.1523,-121.5 0,-121.5"/>
<text text-anchor="middle" x="36.0762" y="-127.5" font-family="Helvetica,sans-Serif" font-size="10.00" fill="#000000">update_claw</text>
</g>
<!-- Node65 -->
<g id="node2" class="node">
<title>Node65</title>
<g id="a_node2"><a xlink:href="_a_p_i_8h.html#a792f1a80c62a63e764cf64aabf95db92" target="_top" xlink:title="Gets the value of a button on the VEX joystick. ">
<polygon fill="none" stroke="#000000" points="108.1523,-140.5 108.1523,-158.5 200.8418,-158.5 200.8418,-140.5 108.1523,-140.5"/>
<text text-anchor="middle" x="154.4971" y="-146.5" font-family="Helvetica,sans-Serif" font-size="10.00" fill="#000000">joystickGetDigital</text>
</a>
</g>
</g>
<!-- Node64&#45;&gt;Node65 -->
<g id="edge1" class="edge">
<title>Node64&#45;&gt;Node65</title>
<path fill="none" stroke="#191970" d="M72.2498,-136.3039C80.4535,-137.6201 89.3561,-139.0485 98.1732,-140.4631"/>
<polygon fill="#191970" stroke="#191970" points="97.6216,-143.9193 108.0498,-142.0478 98.7306,-137.0077 97.6216,-143.9193"/>
</g>
<!-- Node66 -->
<g id="node3" class="node">
<title>Node66</title>
<g id="a_node3"><a xlink:href="claw_8c.html#a3a57f998b1884d39b0cc786689f7086f" target="_top" xlink:title="sets the claw motor speed ">
<polygon fill="none" stroke="#000000" points="111.4824,-103.5 111.4824,-121.5 197.5117,-121.5 197.5117,-103.5 111.4824,-103.5"/>
<text text-anchor="middle" x="154.4971" y="-109.5" font-family="Helvetica,sans-Serif" font-size="10.00" fill="#000000">set_claw_motor</text>
</a>
</g>
</g>
<!-- Node64&#45;&gt;Node66 -->
<g id="edge2" class="edge">
<title>Node64&#45;&gt;Node66</title>
<path fill="none" stroke="#191970" d="M72.2498,-125.0016C81.4376,-123.6051 91.5022,-122.0752 101.3413,-120.5797"/>
<polygon fill="#191970" stroke="#191970" points="102.1066,-124.0037 111.467,-119.0406 101.0546,-117.0831 102.1066,-124.0037"/>
</g>
<!-- Node67 -->
<g id="node4" class="node">
<title>Node67</title>
<g id="a_node4"><a xlink:href="slew_8h.html#a9f8b8ae577ef938622024545711f0151" target="_top" xlink:title="Sets the motor speed ignoring the slew controller. ">
<polygon fill="none" stroke="#000000" points="236.8418,-103.5 236.8418,-121.5 348.9941,-121.5 348.9941,-103.5 236.8418,-103.5"/>
<text text-anchor="middle" x="292.918" y="-109.5" font-family="Helvetica,sans-Serif" font-size="10.00" fill="#000000">set_motor_immediate</text>
</a>
</g>
</g>
<!-- Node66&#45;&gt;Node67 -->
<g id="edge3" class="edge">
<title>Node66&#45;&gt;Node67</title>
<path fill="none" stroke="#191970" d="M197.5355,-112.5C206.7243,-112.5 216.6348,-112.5 226.4708,-112.5"/>
<polygon fill="#191970" stroke="#191970" points="226.6606,-116.0001 236.6605,-112.5 226.6605,-109.0001 226.6606,-116.0001"/>
</g>
<!-- Node68 -->
<g id="node5" class="node">
<title>Node68</title>
<g id="a_node5"><a xlink:href="log_8h.html#af3668f40d1ad1b4f3418869ac9a31f34" target="_top" xlink:title="prints a info message ">
<polygon fill="none" stroke="#000000" points="390.2651,-243.5 390.2651,-261.5 434.0728,-261.5 434.0728,-243.5 390.2651,-243.5"/>
<text text-anchor="middle" x="412.1689" y="-249.5" font-family="Helvetica,sans-Serif" font-size="10.00" fill="#000000">debug</text>
</a>
</g>
</g>
<!-- Node67&#45;&gt;Node68 -->
<g id="edge4" class="edge">
<title>Node67&#45;&gt;Node68</title>
<path fill="none" stroke="#191970" d="M300.7424,-121.6858C320.4558,-144.8292 372.3952,-205.8059 397.7847,-235.6129"/>
<polygon fill="#191970" stroke="#191970" points="395.3219,-238.1193 404.4708,-243.4624 400.6508,-233.5802 395.3219,-238.1193"/>
</g>
<!-- Node70 -->
<g id="node7" class="node">
<title>Node70</title>
<g id="a_node7"><a xlink:href="slew_8c.html#a321758941d88b75783955c819bb75005" target="_top" xlink:title="Initializes the slew rate controller. ">
<polygon fill="none" stroke="#000000" points="384.9941,-159.5 384.9941,-177.5 439.3438,-177.5 439.3438,-159.5 384.9941,-159.5"/>
<text text-anchor="middle" x="412.1689" y="-165.5" font-family="Helvetica,sans-Serif" font-size="10.00" fill="#000000">init_slew</text>
</a>
</g>
</g>
<!-- Node67&#45;&gt;Node70 -->
<g id="edge6" class="edge">
<title>Node67&#45;&gt;Node70</title>
<path fill="none" stroke="#191970" d="M312.3431,-121.622C331.66,-130.6932 361.5138,-144.7124 383.5449,-155.0582"/>
<polygon fill="#191970" stroke="#191970" points="382.2127,-158.2993 392.7521,-159.3819 385.1882,-151.9631 382.2127,-158.2993"/>
</g>
<!-- Node80 -->
<g id="node17" class="node">
<title>Node80</title>
<g id="a_node17"><a xlink:href="_a_p_i_8h.html#a8b51124628d2a7741738d48551d1e8ee" target="_top" xlink:title="Requests a mutex so that other tasks cannot simultaneously use the resource it guards. ">
<polygon fill="none" stroke="#000000" points="588.4912,-84.5 588.4912,-102.5 652.8457,-102.5 652.8457,-84.5 588.4912,-84.5"/>
<text text-anchor="middle" x="620.6685" y="-90.5" font-family="Helvetica,sans-Serif" font-size="10.00" fill="#000000">mutexTake</text>
</a>
</g>
</g>
<!-- Node67&#45;&gt;Node80 -->
<g id="edge21" class="edge">
<title>Node67&#45;&gt;Node80</title>
<path fill="none" stroke="#191970" d="M349.2603,-109.2338C414.3524,-105.4603 519.9701,-99.3376 578.4065,-95.95"/>
<polygon fill="#191970" stroke="#191970" points="578.6224,-99.4434 588.403,-95.3705 578.2172,-92.4552 578.6224,-99.4434"/>
</g>
<!-- Node81 -->
<g id="node18" class="node">
<title>Node81</title>
<g id="a_node18"><a xlink:href="_a_p_i_8h.html#afe171a08d22de18fc2ab604b2364959f" target="_top" xlink:title="Relinquishes a mutex so that other tasks can use the resource it guards. ">
<polygon fill="none" stroke="#000000" points="588.772,-37.5 588.772,-55.5 652.5649,-55.5 652.5649,-37.5 588.772,-37.5"/>
<text text-anchor="middle" x="620.6685" y="-43.5" font-family="Helvetica,sans-Serif" font-size="10.00" fill="#000000">mutexGive</text>
</a>
</g>
</g>
<!-- Node67&#45;&gt;Node81 -->
<g id="edge22" class="edge">
<title>Node67&#45;&gt;Node81</title>
<path fill="none" stroke="#191970" d="M316.1025,-103.4974C350.3407,-90.6385 416.7088,-67.3681 475.3438,-56.5 509.6706,-50.1374 549.2346,-47.729 578.4058,-46.8603"/>
<polygon fill="#191970" stroke="#191970" points="578.744,-50.3531 588.6539,-46.6055 578.57,-43.3552 578.744,-50.3531"/>
</g>
<!-- Node82 -->
<g id="node19" class="node">
<title>Node82</title>
<g id="a_node19"><a xlink:href="_a_p_i_8h.html#a03c5b04b472d024281f62d7af8854a8e" target="_top" xlink:title="Sets the speed of the specified motor channel. ">
<polygon fill="none" stroke="#000000" points="592.3828,-.5 592.3828,-18.5 648.9541,-18.5 648.9541,-.5 592.3828,-.5"/>
<text text-anchor="middle" x="620.6685" y="-6.5" font-family="Helvetica,sans-Serif" font-size="10.00" fill="#000000">motorSet</text>
</a>
</g>
</g>
<!-- Node67&#45;&gt;Node82 -->
<g id="edge20" class="edge">
<title>Node67&#45;&gt;Node82</title>
<path fill="none" stroke="#191970" d="M305.6854,-103.4062C322.8916,-91.5708 354.8504,-71.0419 384.9941,-59.5 451.8127,-33.9154 534.5638,-20.1973 582.1197,-13.9107"/>
<polygon fill="#191970" stroke="#191970" points="582.8089,-17.3512 592.2837,-12.61 581.9202,-10.4078 582.8089,-17.3512"/>
</g>
<!-- Node69 -->
<g id="node6" class="node">
<title>Node69</title>
<g id="a_node6"><a xlink:href="_a_p_i_8h.html#a403c82418e475fa4a8273719e6a7f3e6" target="_top" xlink:title="Prints the formatted string to the debug stream (the PC terminal). ">
<polygon fill="none" stroke="#000000" points="711.9146,-289.5 711.9146,-307.5 750.146,-307.5 750.146,-289.5 711.9146,-289.5"/>
<text text-anchor="middle" x="731.0303" y="-295.5" font-family="Helvetica,sans-Serif" font-size="10.00" fill="#000000">printf</text>
</a>
</g>
</g>
<!-- Node68&#45;&gt;Node69 -->
<g id="edge5" class="edge">
<title>Node68&#45;&gt;Node69</title>
<path fill="none" stroke="#191970" d="M428.498,-261.6303C440.9341,-268.1082 458.6954,-276.3598 475.3438,-280.5 555.4393,-300.4185 653.6869,-300.9233 701.7416,-299.6896"/>
<polygon fill="#191970" stroke="#191970" points="701.864,-303.1876 711.7539,-299.3875 701.6529,-296.1908 701.864,-303.1876"/>
</g>
<!-- Node71 -->
<g id="node8" class="node">
<title>Node71</title>
<g id="a_node8"><a xlink:href="log_8h.html#a0bec2cf5fff7f607bc510b74aba9887c" target="_top" xlink:title="prints a warning message and displays on lcd. ">
<polygon fill="none" stroke="#000000" points="488.4077,-215.5 488.4077,-233.5 539.4272,-233.5 539.4272,-215.5 488.4077,-215.5"/>
<text text-anchor="middle" x="513.9175" y="-221.5" font-family="Helvetica,sans-Serif" font-size="10.00" fill="#000000">warning</text>
</a>
</g>
</g>
<!-- Node70&#45;&gt;Node71 -->
<g id="edge7" class="edge">
<title>Node70&#45;&gt;Node71</title>
<path fill="none" stroke="#191970" d="M426.4733,-177.6936C439.1183,-185.6774 458.1697,-197.3602 475.3438,-206.5 478.2142,-208.0276 481.2374,-209.5619 484.2762,-211.0553"/>
<polygon fill="#191970" stroke="#191970" points="482.7693,-214.2143 493.3014,-215.3659 485.7862,-207.8978 482.7693,-214.2143"/>
</g>
<!-- Node76 -->
<g id="node13" class="node">
<title>Node76</title>
<g id="a_node13"><a xlink:href="_a_p_i_8h.html#a8966c541f3e9565aea1289f0d2f2cf43" target="_top" xlink:title="Stops all motors; significantly faster than looping through all motor ports and calling motorSet(chan...">
<polygon fill="none" stroke="#000000" points="477.2944,-178.5 477.2944,-196.5 550.5405,-196.5 550.5405,-178.5 477.2944,-178.5"/>
<text text-anchor="middle" x="513.9175" y="-184.5" font-family="Helvetica,sans-Serif" font-size="10.00" fill="#000000">motorStopAll</text>
</a>
</g>
</g>
<!-- Node70&#45;&gt;Node76 -->
<g id="edge13" class="edge">
<title>Node70&#45;&gt;Node76</title>
<path fill="none" stroke="#191970" d="M439.4357,-173.5917C447.9086,-175.1738 457.5041,-176.9657 466.9214,-178.7242"/>
<polygon fill="#191970" stroke="#191970" points="466.536,-182.2127 477.0086,-180.6078 467.821,-175.3316 466.536,-182.2127"/>
</g>
<!-- Node77 -->
<g id="node14" class="node">
<title>Node77</title>
<g id="a_node14"><a xlink:href="_a_p_i_8h.html#aecd027ce8f8b52a765735e9eb5b202b3" target="_top" xlink:title="Creates a mutex intended to allow only one task to use a resource at a time. ">
<polygon fill="none" stroke="#000000" points="477.2944,-141.5 477.2944,-159.5 550.5405,-159.5 550.5405,-141.5 477.2944,-141.5"/>
<text text-anchor="middle" x="513.9175" y="-147.5" font-family="Helvetica,sans-Serif" font-size="10.00" fill="#000000">mutexCreate</text>
</a>
</g>
</g>
<!-- Node70&#45;&gt;Node77 -->
<g id="edge14" class="edge">
<title>Node70&#45;&gt;Node77</title>
<path fill="none" stroke="#191970" d="M439.4357,-163.6763C447.9086,-162.1774 457.5041,-160.4799 466.9214,-158.8139"/>
<polygon fill="#191970" stroke="#191970" points="467.7712,-162.218 477.0086,-157.0294 466.5517,-155.325 467.7712,-162.218"/>
</g>
<!-- Node78 -->
<g id="node15" class="node">
<title>Node78</title>
<g id="a_node15"><a xlink:href="_a_p_i_8h.html#ab05a241d6d1fd98b1ceb4665db678156" target="_top" xlink:title="Starts a task which will periodically call the specified function. ">
<polygon fill="none" stroke="#000000" points="476.4521,-252.5 476.4521,-270.5 551.3828,-270.5 551.3828,-252.5 476.4521,-252.5"/>
<text text-anchor="middle" x="513.9175" y="-258.5" font-family="Helvetica,sans-Serif" font-size="10.00" fill="#000000">taskRunLoop</text>
</a>
</g>
</g>
<!-- Node70&#45;&gt;Node78 -->
<g id="edge15" class="edge">
<title>Node70&#45;&gt;Node78</title>
<path fill="none" stroke="#191970" d="M418.1177,-177.9368C428.247,-193.3771 450.2061,-224.2435 475.3438,-243.5 477.1551,-244.8875 479.0905,-246.2022 481.0939,-247.4414"/>
<polygon fill="#191970" stroke="#191970" points="479.6834,-250.6591 490.137,-252.383 483.0401,-244.5164 479.6834,-250.6591"/>
</g>
<!-- Node79 -->
<g id="node16" class="node">
<title>Node79</title>
<g id="a_node16"><a xlink:href="slew_8c.html#a807a87c5df438fde21c1e8213906695b" target="_top" xlink:title="Closes the distance between the desired motor value and the current motor value by half for each moto...">
<polygon fill="none" stroke="#000000" points="475.3438,-65.5 475.3438,-83.5 552.4912,-83.5 552.4912,-65.5 475.3438,-65.5"/>
<text text-anchor="middle" x="513.9175" y="-71.5" font-family="Helvetica,sans-Serif" font-size="10.00" fill="#000000">updateMotors</text>
</a>
</g>
</g>
<!-- Node70&#45;&gt;Node79 -->
<g id="edge16" class="edge">
<title>Node70&#45;&gt;Node79</title>
<path fill="none" stroke="#191970" d="M421.925,-159.4869C439.1261,-143.5957 475.0584,-110.3998 496.5715,-90.525"/>
<polygon fill="#191970" stroke="#191970" points="499.0713,-92.9807 504.0414,-83.6239 494.3211,-87.839 499.0713,-92.9807"/>
</g>
<!-- Node72 -->
<g id="node9" class="node">
<title>Node72</title>
<g id="a_node9"><a xlink:href="log_8c.html#afff22aff6749311a684a559cac3ac8bd" target="_top" xlink:title="prints a log info message to the lcd ">
<polygon fill="none" stroke="#000000" points="595.1538,-215.5 595.1538,-233.5 646.1831,-233.5 646.1831,-215.5 595.1538,-215.5"/>
<text text-anchor="middle" x="620.6685" y="-221.5" font-family="Helvetica,sans-Serif" font-size="10.00" fill="#000000">log_info</text>
</a>
</g>
</g>
<!-- Node71&#45;&gt;Node72 -->
<g id="edge8" class="edge">
<title>Node71&#45;&gt;Node72</title>
<path fill="none" stroke="#191970" d="M539.487,-224.5C552.9877,-224.5 569.7813,-224.5 584.5852,-224.5"/>
<polygon fill="#191970" stroke="#191970" points="584.9376,-228.0001 594.9376,-224.5 584.9376,-221.0001 584.9376,-228.0001"/>
</g>
<!-- Node72&#45;&gt;Node69 -->
<g id="edge9" class="edge">
<title>Node72&#45;&gt;Node69</title>
<path fill="none" stroke="#191970" d="M630.1592,-233.7998C642.7533,-245.7709 666.0613,-266.6722 688.8457,-280.5 693.049,-283.051 697.679,-285.4186 702.2852,-287.5429"/>
<polygon fill="#191970" stroke="#191970" points="700.9939,-290.7976 711.5625,-291.5424 703.7651,-284.3695 700.9939,-290.7976"/>
</g>
<!-- Node73 -->
<g id="node10" class="node">
<title>Node73</title>
<g id="a_node10"><a xlink:href="_a_p_i_8h.html#aab53a247d88151a6623c20fa1ea940b0" target="_top" xlink:title="Sets the specified LCD backlight to be on or off. ">
<polygon fill="none" stroke="#000000" points="688.8457,-252.5 688.8457,-270.5 773.2148,-270.5 773.2148,-252.5 688.8457,-252.5"/>
<text text-anchor="middle" x="731.0303" y="-258.5" font-family="Helvetica,sans-Serif" font-size="10.00" fill="#000000">lcdSetBacklight</text>
</a>
</g>
</g>
<!-- Node72&#45;&gt;Node73 -->
<g id="edge10" class="edge">
<title>Node72&#45;&gt;Node73</title>
<path fill="none" stroke="#191970" d="M646.2651,-233.0815C660.608,-237.8902 678.7371,-243.9681 694.5448,-249.2678"/>
<polygon fill="#191970" stroke="#191970" points="693.4388,-252.5885 704.0327,-252.4488 695.664,-245.9515 693.4388,-252.5885"/>
</g>
<!-- Node74 -->
<g id="node11" class="node">
<title>Node74</title>
<g id="a_node11"><a xlink:href="_a_p_i_8h.html#a5fa1d119fe3e836b5519f97eae7a1272" target="_top" xlink:title="Clears the LCD screen on the specified port. ">
<polygon fill="none" stroke="#000000" points="704.6904,-215.5 704.6904,-233.5 757.3701,-233.5 757.3701,-215.5 704.6904,-215.5"/>
<text text-anchor="middle" x="731.0303" y="-221.5" font-family="Helvetica,sans-Serif" font-size="10.00" fill="#000000">lcdClear</text>
</a>
</g>
</g>
<!-- Node72&#45;&gt;Node74 -->
<g id="edge11" class="edge">
<title>Node72&#45;&gt;Node74</title>
<path fill="none" stroke="#191970" d="M646.2651,-224.5C660.4409,-224.5 678.315,-224.5 693.9912,-224.5"/>
<polygon fill="#191970" stroke="#191970" points="694.4203,-228.0001 704.4203,-224.5 694.4202,-221.0001 694.4203,-228.0001"/>
</g>
<!-- Node75 -->
<g id="node12" class="node">
<title>Node75</title>
<g id="a_node12"><a xlink:href="_a_p_i_8h.html#a6cfad8271c6a566a2f51ca318f819a80" target="_top" xlink:title="Prints the formatted string to the attached LCD. ">
<polygon fill="none" stroke="#000000" points="706.3579,-178.5 706.3579,-196.5 755.7026,-196.5 755.7026,-178.5 706.3579,-178.5"/>
<text text-anchor="middle" x="731.0303" y="-184.5" font-family="Helvetica,sans-Serif" font-size="10.00" fill="#000000">lcdPrint</text>
</a>
</g>
</g>
<!-- Node72&#45;&gt;Node75 -->
<g id="edge12" class="edge">
<title>Node72&#45;&gt;Node75</title>
<path fill="none" stroke="#191970" d="M646.2651,-215.9185C661.2408,-210.8977 680.344,-204.4931 696.6229,-199.0355"/>
<polygon fill="#191970" stroke="#191970" points="697.9629,-202.2777 706.3316,-195.7805 695.7377,-195.6408 697.9629,-202.2777"/>
</g>
<!-- Node79&#45;&gt;Node80 -->
<g id="edge17" class="edge">
<title>Node79&#45;&gt;Node80</title>
<path fill="none" stroke="#191970" d="M552.759,-81.4132C561.066,-82.8917 569.8813,-84.4607 578.313,-85.9614"/>
<polygon fill="#191970" stroke="#191970" points="577.8891,-89.4409 588.3477,-87.7474 579.1157,-82.5492 577.8891,-89.4409"/>
</g>
<!-- Node79&#45;&gt;Node81 -->
<g id="edge18" class="edge">
<title>Node79&#45;&gt;Node81</title>
<path fill="none" stroke="#191970" d="M548.2818,-65.4865C557.9729,-62.9446 568.6259,-60.1504 578.7087,-57.5057"/>
<polygon fill="#191970" stroke="#191970" points="579.7599,-60.8485 588.5447,-54.9258 577.9838,-54.0775 579.7599,-60.8485"/>
</g>
<!-- Node79&#45;&gt;Node82 -->
<g id="edge19" class="edge">
<title>Node79&#45;&gt;Node82</title>
<path fill="none" stroke="#191970" d="M527.8019,-65.4439C542.6778,-55.8134 567.0471,-40.2437 588.4912,-27.5 590.5031,-26.3044 592.5967,-25.0831 594.7076,-23.8679"/>
<polygon fill="#191970" stroke="#191970" points="596.896,-26.6509 603.8729,-18.6776 593.4465,-20.5598 596.896,-26.6509"/>
</g>
</g>
</svg>
        <g id="navigator" transform="translate(0 0)" fill="#404254">
                <rect fill="#f2f5e9" fill-opacity="0.5" stroke="#606060" stroke-width=".5" x="0" y="0" width="60" height="60"/>
                <use id="zoomplus" xlink:href="#zoomPlus" x="17" y="9" onmousedown="handleZoom(evt,'in')"/>
                <use id="zoomminus" xlink:href="#zoomMin" x="42" y="9" onmousedown="handleZoom(evt,'out')"/>
                <use id="reset" xlink:href="#resetDef" x="30" y="36" onmousedown="handleReset()"/>
                <g id="arrowUp" xlink:href="#dirArrow" transform="translate(30 24)" onmousedown="handlePan(0,-1)">
                  <use xlink:href="#rim" fill="#404040">
                        <set attributeName="fill" to="#808080" begin="arrowUp.mouseover" end="arrowUp.mouseout"/>
                  </use>
                  <path fill="none" stroke="white" stroke-width="1.5" d="M0,-3.0v7 M-2.5,-0.5L0,-3.0L2.5,-0.5"/>
                </g>
                <g id="arrowRight" xlink:href="#dirArrow" transform="rotate(90) translate(36 -43)" onmousedown="handlePan(1,0)">
                  <use xlink:href="#rim" fill="#404040">
                        <set attributeName="fill" to="#808080" begin="arrowRight.mouseover" end="arrowRight.mouseout"/>
                  </use>
                  <path fill="none" stroke="white" stroke-width="1.5" d="M0,-3.0v7 M-2.5,-0.5L0,-3.0L2.5,-0.5"/>
                </g>
                <g id="arrowDown" xlink:href="#dirArrow" transform="rotate(180) translate(-30 -48)" onmousedown="handlePan(0,1)">
                  <use xlink:href="#rim" fill="#404040">
                        <set attributeName="fill" to="#808080" begin="arrowDown.mouseover" end="arrowDown.mouseout"/>
                  </use>
                  <path fill="none" stroke="white" stroke-width="1.5" d="M0,-3.0v7 M-2.5,-0.5L0,-3.0L2.5,-0.5"/>
                </g>
                <g id="arrowLeft" xlink:href="#dirArrow" transform="rotate(270) translate(-36 17)" onmousedown="handlePan(-1,0)">
                  <use xlink:href="#rim" fill="#404040">
                        <set attributeName="fill" to="#808080" begin="arrowLeft.mouseover" end="arrowLeft.mouseout"/>
                  </use>
                  <path fill="none" stroke="white" stroke-width="1.5" d="M0,-3.0v7 M-2.5,-0.5L0,-3.0L2.5,-0.5"/>
                </g>
        </g>
        <svg viewBox="0 0 15 15" width="100%" height="30px" preserveAspectRatio="xMaxYMin meet">
         <g id="arrow_out" transform="scale(0.3 0.3)">
          <a xlink:href="claw_8h_a0122b78972344264b8a276a559cfce4a_cgraph_org.svg" target="_base">
           <rect id="button" ry="5" rx="5" y="6" x="6" height="38" width="38"
                fill="#f2f5e9" fill-opacity="0.5" stroke="#606060" stroke-width="1.0"/>
           <path id="arrow"
             d="M 11.500037,31.436501 C 11.940474,20.09759 22.043105,11.32322 32.158766,21.979434 L 37.068811,17.246167 C 37.068811,17.246167 37.088388,32 37.088388,32 L 22.160133,31.978069 C 22.160133,31.978069 26.997745,27.140456 26.997745,27.140456 C 18.528582,18.264221 13.291696,25.230495 11.500037,31.436501 z"
             style="fill:#404040;"/>
          </a>
         </g>
        </svg>
</svg>
