<?xml version="1.0" encoding="UTF-8" standalone="no"?>
<!DOCTYPE svg PUBLIC "-//W3C//DTD SVG 1.1//EN"
 "http://www.w3.org/Graphics/SVG/1.1/DTD/svg11.dtd">
<!-- Generated by graphviz version 2.40.1 (20161225.0304)
 -->
<!-- Title: open_claw Pages: 1 -->
<svg width="301pt" height="27pt"
 viewBox="0.00 0.00 301.45 27.00" xmlns="http://www.w3.org/2000/svg" xmlns:xlink="http://www.w3.org/1999/xlink">
<g id="graph0" class="graph" transform="scale(1 1) rotate(0) translate(4 23)">
<title>open_claw</title>
<!-- Node37 -->
<g id="node1" class="node">
<title>Node37</title>
<polygon fill="#bfbfbf" stroke="#000000" points="0,-.5 0,-18.5 63.8125,-18.5 63.8125,-.5 0,-.5"/>
<text text-anchor="middle" x="31.9063" y="-6.5" font-family="Helvetica,sans-Serif" font-size="10.00" fill="#000000">open_claw</text>
</g>
<!-- Node38 -->
<g id="node2" class="node">
<title>Node38</title>
<g id="a_node2"><a xlink:href="claw_8c.html#a0122b78972344264b8a276a559cfce4a" target="_top" xlink:title="update_claw">
<polygon fill="none" stroke="#000000" points="99.8125,-.5 99.8125,-18.5 171.9648,-18.5 171.9648,-.5 99.8125,-.5"/>
<text text-anchor="middle" x="135.8887" y="-6.5" font-family="Helvetica,sans-Serif" font-size="10.00" fill="#000000">update_claw</text>
</a>
</g>
</g>
<!-- Node37&#45;&gt;Node38 -->
<g id="edge1" class="edge">
<title>Node37&#45;&gt;Node38</title>
<path fill="none" stroke="#191970" d="M74.0943,-9.5C82.6094,-9.5 91.4884,-9.5 99.7726,-9.5"/>
<polygon fill="#191970" stroke="#191970" points="73.9529,-6.0001 63.9529,-9.5 73.9528,-13.0001 73.9529,-6.0001"/>
</g>
<!-- Node39 -->
<g id="node3" class="node">
<title>Node39</title>
<g id="a_node3"><a xlink:href="opcontrol_8c.html#ac71a94af413917f27d108e95c4d6f6a7" target="_top" xlink:title="operatorControl">
<polygon fill="none" stroke="#000000" points="207.9648,-.5 207.9648,-18.5 293.4473,-18.5 293.4473,-.5 207.9648,-.5"/>
<text text-anchor="middle" x="250.7061" y="-6.5" font-family="Helvetica,sans-Serif" font-size="10.00" fill="#000000">operatorControl</text>
</a>
</g>
</g>
<!-- Node38&#45;&gt;Node39 -->
<g id="edge2" class="edge">
<title>Node38&#45;&gt;Node39</title>
<path fill="none" stroke="#191970" d="M182.2829,-9.5C190.7105,-9.5 199.4671,-9.5 207.789,-9.5"/>
<polygon fill="#191970" stroke="#191970" points="182.2176,-6.0001 172.2176,-9.5 182.2176,-13.0001 182.2176,-6.0001"/>
</g>
</g>
</svg>
