<?xml version="1.0" encoding="UTF-8" standalone="no"?>
<!DOCTYPE svg PUBLIC "-//W3C//DTD SVG 1.1//EN"
 "http://www.w3.org/Graphics/SVG/1.1/DTD/svg11.dtd">
<!-- Generated by graphviz version 2.40.1 (20161225.0304)
 -->
<!-- Title: claw_grab_cone Pages: 1 -->
<!--zoomable 316 -->
<svg id="main" version="1.1" xmlns="http://www.w3.org/2000/svg" xmlns:xlink="http://www.w3.org/1999/xlink" xml:space="preserve" onload="init(evt)">
<style type="text/css"><![CDATA[
.edge:hover path { stroke: red; }
.edge:hover polygon { stroke: red; fill: red; }
]]></style>
<script type="text/javascript"><![CDATA[
var edges = document.getElementsByTagName('g');
if (edges && edges.length) {
  for (var i=0;i<edges.length;i++) {
    if (edges[i].id.substr(0,4)=='edge') {
      edges[i].setAttribute('class','edge');
    }
  }
}
]]></script>
        <defs>
                <circle id="rim" cx="0" cy="0" r="7"/>
                <circle id="rim2" cx="0" cy="0" r="3.5"/>
                <g id="zoomPlus">
                        <use xlink:href="#rim" fill="#404040">
                                <set attributeName="fill" to="#808080" begin="zoomplus.mouseover" end="zoomplus.mouseout"/>
                        </use>
                        <path d="M-4,0h8M0,-4v8" fill="none" stroke="white" stroke-width="1.5" pointer-events="none"/>
                </g>
                <g id="zoomMin">
                        <use xlink:href="#rim" fill="#404040">
                                <set attributeName="fill" to="#808080" begin="zoomminus.mouseover" end="zoomminus.mouseout"/>
                        </use>
                        <path d="M-4,0h8" fill="none" stroke="white" stroke-width="1.5" pointer-events="none"/>
                </g>
                <g id="dirArrow">
                        <path fill="none" stroke="white" stroke-width="1.5" d="M0,-3.0v7 M-2.5,-0.5L0,-3.0L2.5,-0.5"/>
                </g>
               <g id="resetDef">
                       <use xlink:href="#rim2" fill="#404040">
                               <set attributeName="fill" to="#808080" begin="reset.mouseover" end="reset.mouseout"/>
                       </use>
               </g>
        </defs>

<script type="text/javascript">
var viewWidth = 669;
var viewHeight = 316;
var sectionId = 'dynsection-0';
</script>
<script xlink:href="svgpan.js"/>
<svg id="graph" class="graph">
<g id="viewport">
<title>claw_grab_cone</title>
<!-- Node0 -->
<g id="node1" class="node">
<title>Node0</title>
<polygon fill="#bfbfbf" stroke="#000000" points="0,-103.5 0,-121.5 88.8271,-121.5 88.8271,-103.5 0,-103.5"/>
<text text-anchor="middle" x="44.4136" y="-109.5" font-family="Helvetica,sans-Serif" font-size="10.00" fill="#000000">claw_grab_cone</text>
</g>
<!-- Node1 -->
<g id="node2" class="node">
<title>Node1</title>
<g id="a_node2"><a xlink:href="slew_8h.html#a9f8b8ae577ef938622024545711f0151" target="_top" xlink:title="Sets the motor speed ignoring the slew controller. ">
<polygon fill="none" stroke="#000000" points="124.8271,-103.5 124.8271,-121.5 236.9795,-121.5 236.9795,-103.5 124.8271,-103.5"/>
<text text-anchor="middle" x="180.9033" y="-109.5" font-family="Helvetica,sans-Serif" font-size="10.00" fill="#000000">set_motor_immediate</text>
</a>
</g>
</g>
<!-- Node0&#45;&gt;Node1 -->
<g id="edge1" class="edge">
<title>Node0&#45;&gt;Node1</title>
<path fill="none" stroke="#191970" d="M89.1054,-112.5C97.2639,-112.5 105.9343,-112.5 114.5641,-112.5"/>
<polygon fill="#191970" stroke="#191970" points="114.6429,-116.0001 124.6428,-112.5 114.6428,-109.0001 114.6429,-116.0001"/>
</g>
<!-- Node2 -->
<g id="node3" class="node">
<title>Node2</title>
<g id="a_node3"><a xlink:href="log_8h.html#af3668f40d1ad1b4f3418869ac9a31f34" target="_top" xlink:title="prints a info message ">
<polygon fill="none" stroke="#000000" points="278.2505,-243.5 278.2505,-261.5 322.0581,-261.5 322.0581,-243.5 278.2505,-243.5"/>
<text text-anchor="middle" x="300.1543" y="-249.5" font-family="Helvetica,sans-Serif" font-size="10.00" fill="#000000">debug</text>
</a>
</g>
</g>
<!-- Node1&#45;&gt;Node2 -->
<g id="edge2" class="edge">
<title>Node1&#45;&gt;Node2</title>
<path fill="none" stroke="#191970" d="M188.7277,-121.6858C208.4411,-144.8292 260.3806,-205.8059 285.77,-235.6129"/>
<polygon fill="#191970" stroke="#191970" points="283.3073,-238.1193 292.4561,-243.4624 288.6361,-233.5802 283.3073,-238.1193"/>
</g>
<!-- Node4 -->
<g id="node5" class="node">
<title>Node4</title>
<g id="a_node5"><a xlink:href="slew_8c.html#a321758941d88b75783955c819bb75005" target="_top" xlink:title="Initializes the slew rate controller. ">
<polygon fill="none" stroke="#000000" points="272.9795,-159.5 272.9795,-177.5 327.3291,-177.5 327.3291,-159.5 272.9795,-159.5"/>
<text text-anchor="middle" x="300.1543" y="-165.5" font-family="Helvetica,sans-Serif" font-size="10.00" fill="#000000">init_slew</text>
</a>
</g>
</g>
<!-- Node1&#45;&gt;Node4 -->
<g id="edge4" class="edge">
<title>Node1&#45;&gt;Node4</title>
<path fill="none" stroke="#191970" d="M200.3285,-121.622C219.6454,-130.6932 249.4991,-144.7124 271.5302,-155.0582"/>
<polygon fill="#191970" stroke="#191970" points="270.1981,-158.2993 280.7375,-159.3819 273.1736,-151.9631 270.1981,-158.2993"/>
</g>
<!-- Node14 -->
<g id="node15" class="node">
<title>Node14</title>
<g id="a_node15"><a xlink:href="_a_p_i_8h.html#a8b51124628d2a7741738d48551d1e8ee" target="_top" xlink:title="Requests a mutex so that other tasks cannot simultaneously use the resource it guards. ">
<polygon fill="none" stroke="#000000" points="476.4766,-84.5 476.4766,-102.5 540.8311,-102.5 540.8311,-84.5 476.4766,-84.5"/>
<text text-anchor="middle" x="508.6538" y="-90.5" font-family="Helvetica,sans-Serif" font-size="10.00" fill="#000000">mutexTake</text>
</a>
</g>
</g>
<!-- Node1&#45;&gt;Node14 -->
<g id="edge19" class="edge">
<title>Node1&#45;&gt;Node14</title>
<path fill="none" stroke="#191970" d="M237.2456,-109.2338C302.3378,-105.4603 407.9554,-99.3376 466.3918,-95.95"/>
<polygon fill="#191970" stroke="#191970" points="466.6077,-99.4434 476.3884,-95.3705 466.2026,-92.4552 466.6077,-99.4434"/>
</g>
<!-- Node15 -->
<g id="node16" class="node">
<title>Node15</title>
<g id="a_node16"><a xlink:href="_a_p_i_8h.html#afe171a08d22de18fc2ab604b2364959f" target="_top" xlink:title="Relinquishes a mutex so that other tasks can use the resource it guards. ">
<polygon fill="none" stroke="#000000" points="476.7573,-37.5 476.7573,-55.5 540.5503,-55.5 540.5503,-37.5 476.7573,-37.5"/>
<text text-anchor="middle" x="508.6538" y="-43.5" font-family="Helvetica,sans-Serif" font-size="10.00" fill="#000000">mutexGive</text>
</a>
</g>
</g>
<!-- Node1&#45;&gt;Node15 -->
<g id="edge20" class="edge">
<title>Node1&#45;&gt;Node15</title>
<path fill="none" stroke="#191970" d="M204.0878,-103.4974C238.3261,-90.6385 304.6942,-67.3681 363.3291,-56.5 397.656,-50.1374 437.22,-47.729 466.3912,-46.8603"/>
<polygon fill="#191970" stroke="#191970" points="466.7294,-50.3531 476.6393,-46.6055 466.5553,-43.3552 466.7294,-50.3531"/>
</g>
<!-- Node16 -->
<g id="node17" class="node">
<title>Node16</title>
<g id="a_node17"><a xlink:href="_a_p_i_8h.html#a03c5b04b472d024281f62d7af8854a8e" target="_top" xlink:title="Sets the speed of the specified motor channel. ">
<polygon fill="none" stroke="#000000" points="480.3682,-.5 480.3682,-18.5 536.9395,-18.5 536.9395,-.5 480.3682,-.5"/>
<text text-anchor="middle" x="508.6538" y="-6.5" font-family="Helvetica,sans-Serif" font-size="10.00" fill="#000000">motorSet</text>
</a>
</g>
</g>
<!-- Node1&#45;&gt;Node16 -->
<g id="edge18" class="edge">
<title>Node1&#45;&gt;Node16</title>
<path fill="none" stroke="#191970" d="M193.6707,-103.4062C210.8769,-91.5708 242.8357,-71.0419 272.9795,-59.5 339.7981,-33.9154 422.5492,-20.1973 470.1051,-13.9107"/>
<polygon fill="#191970" stroke="#191970" points="470.7942,-17.3512 480.269,-12.61 469.9056,-10.4078 470.7942,-17.3512"/>
</g>
<!-- Node3 -->
<g id="node4" class="node">
<title>Node3</title>
<g id="a_node4"><a xlink:href="_a_p_i_8h.html#a403c82418e475fa4a8273719e6a7f3e6" target="_top" xlink:title="Prints the formatted string to the debug stream (the PC terminal). ">
<polygon fill="none" stroke="#000000" points="599.8999,-289.5 599.8999,-307.5 638.1313,-307.5 638.1313,-289.5 599.8999,-289.5"/>
<text text-anchor="middle" x="619.0156" y="-295.5" font-family="Helvetica,sans-Serif" font-size="10.00" fill="#000000">printf</text>
</a>
</g>
</g>
<!-- Node2&#45;&gt;Node3 -->
<g id="edge3" class="edge">
<title>Node2&#45;&gt;Node3</title>
<path fill="none" stroke="#191970" d="M316.4833,-261.6303C328.9194,-268.1082 346.6807,-276.3598 363.3291,-280.5 443.4247,-300.4185 541.6722,-300.9233 589.727,-299.6896"/>
<polygon fill="#191970" stroke="#191970" points="589.8494,-303.1876 599.7393,-299.3875 589.6382,-296.1908 589.8494,-303.1876"/>
</g>
<!-- Node5 -->
<g id="node6" class="node">
<title>Node5</title>
<g id="a_node6"><a xlink:href="log_8h.html#a0bec2cf5fff7f607bc510b74aba9887c" target="_top" xlink:title="prints a warning message and displays on lcd. ">
<polygon fill="none" stroke="#000000" points="376.3931,-215.5 376.3931,-233.5 427.4126,-233.5 427.4126,-215.5 376.3931,-215.5"/>
<text text-anchor="middle" x="401.9028" y="-221.5" font-family="Helvetica,sans-Serif" font-size="10.00" fill="#000000">warning</text>
</a>
</g>
</g>
<!-- Node4&#45;&gt;Node5 -->
<g id="edge5" class="edge">
<title>Node4&#45;&gt;Node5</title>
<path fill="none" stroke="#191970" d="M314.4587,-177.6936C327.1036,-185.6774 346.1551,-197.3602 363.3291,-206.5 366.1996,-208.0276 369.2228,-209.5619 372.2615,-211.0553"/>
<polygon fill="#191970" stroke="#191970" points="370.7547,-214.2143 381.2867,-215.3659 373.7716,-207.8978 370.7547,-214.2143"/>
</g>
<!-- Node10 -->
<g id="node11" class="node">
<title>Node10</title>
<g id="a_node11"><a xlink:href="_a_p_i_8h.html#a8966c541f3e9565aea1289f0d2f2cf43" target="_top" xlink:title="Stops all motors; significantly faster than looping through all motor ports and calling motorSet(chan...">
<polygon fill="none" stroke="#000000" points="365.2798,-178.5 365.2798,-196.5 438.5259,-196.5 438.5259,-178.5 365.2798,-178.5"/>
<text text-anchor="middle" x="401.9028" y="-184.5" font-family="Helvetica,sans-Serif" font-size="10.00" fill="#000000">motorStopAll</text>
</a>
</g>
</g>
<!-- Node4&#45;&gt;Node10 -->
<g id="edge11" class="edge">
<title>Node4&#45;&gt;Node10</title>
<path fill="none" stroke="#191970" d="M327.421,-173.5917C335.894,-175.1738 345.4895,-176.9657 354.9067,-178.7242"/>
<polygon fill="#191970" stroke="#191970" points="354.5214,-182.2127 364.9939,-180.6078 355.8063,-175.3316 354.5214,-182.2127"/>
</g>
<!-- Node11 -->
<g id="node12" class="node">
<title>Node11</title>
<g id="a_node12"><a xlink:href="_a_p_i_8h.html#aecd027ce8f8b52a765735e9eb5b202b3" target="_top" xlink:title="Creates a mutex intended to allow only one task to use a resource at a time. ">
<polygon fill="none" stroke="#000000" points="365.2798,-141.5 365.2798,-159.5 438.5259,-159.5 438.5259,-141.5 365.2798,-141.5"/>
<text text-anchor="middle" x="401.9028" y="-147.5" font-family="Helvetica,sans-Serif" font-size="10.00" fill="#000000">mutexCreate</text>
</a>
</g>
</g>
<!-- Node4&#45;&gt;Node11 -->
<g id="edge12" class="edge">
<title>Node4&#45;&gt;Node11</title>
<path fill="none" stroke="#191970" d="M327.421,-163.6763C335.894,-162.1774 345.4895,-160.4799 354.9067,-158.8139"/>
<polygon fill="#191970" stroke="#191970" points="355.7566,-162.218 364.9939,-157.0294 354.5371,-155.325 355.7566,-162.218"/>
</g>
<!-- Node12 -->
<g id="node13" class="node">
<title>Node12</title>
<g id="a_node13"><a xlink:href="_a_p_i_8h.html#ab05a241d6d1fd98b1ceb4665db678156" target="_top" xlink:title="Starts a task which will periodically call the specified function. ">
<polygon fill="none" stroke="#000000" points="364.4375,-252.5 364.4375,-270.5 439.3682,-270.5 439.3682,-252.5 364.4375,-252.5"/>
<text text-anchor="middle" x="401.9028" y="-258.5" font-family="Helvetica,sans-Serif" font-size="10.00" fill="#000000">taskRunLoop</text>
</a>
</g>
</g>
<!-- Node4&#45;&gt;Node12 -->
<g id="edge13" class="edge">
<title>Node4&#45;&gt;Node12</title>
<path fill="none" stroke="#191970" d="M306.103,-177.9368C316.2324,-193.3771 338.1914,-224.2435 363.3291,-243.5 365.1404,-244.8875 367.0759,-246.2022 369.0792,-247.4414"/>
<polygon fill="#191970" stroke="#191970" points="367.6687,-250.6591 378.1224,-252.383 371.0254,-244.5164 367.6687,-250.6591"/>
</g>
<!-- Node13 -->
<g id="node14" class="node">
<title>Node13</title>
<g id="a_node14"><a xlink:href="slew_8c.html#a807a87c5df438fde21c1e8213906695b" target="_top" xlink:title="Closes the distance between the desired motor value and the current motor value by half for each moto...">
<polygon fill="none" stroke="#000000" points="363.3291,-65.5 363.3291,-83.5 440.4766,-83.5 440.4766,-65.5 363.3291,-65.5"/>
<text text-anchor="middle" x="401.9028" y="-71.5" font-family="Helvetica,sans-Serif" font-size="10.00" fill="#000000">updateMotors</text>
</a>
</g>
</g>
<!-- Node4&#45;&gt;Node13 -->
<g id="edge14" class="edge">
<title>Node4&#45;&gt;Node13</title>
<path fill="none" stroke="#191970" d="M309.9104,-159.4869C327.1114,-143.5957 363.0438,-110.3998 384.5568,-90.525"/>
<polygon fill="#191970" stroke="#191970" points="387.0566,-92.9807 392.0268,-83.6239 382.3065,-87.839 387.0566,-92.9807"/>
</g>
<!-- Node6 -->
<g id="node7" class="node">
<title>Node6</title>
<g id="a_node7"><a xlink:href="log_8c.html#afff22aff6749311a684a559cac3ac8bd" target="_top" xlink:title="prints a log info message to the lcd ">
<polygon fill="none" stroke="#000000" points="483.1392,-215.5 483.1392,-233.5 534.1685,-233.5 534.1685,-215.5 483.1392,-215.5"/>
<text text-anchor="middle" x="508.6538" y="-221.5" font-family="Helvetica,sans-Serif" font-size="10.00" fill="#000000">log_info</text>
</a>
</g>
</g>
<!-- Node5&#45;&gt;Node6 -->
<g id="edge6" class="edge">
<title>Node5&#45;&gt;Node6</title>
<path fill="none" stroke="#191970" d="M427.4724,-224.5C440.9731,-224.5 457.7667,-224.5 472.5706,-224.5"/>
<polygon fill="#191970" stroke="#191970" points="472.923,-228.0001 482.9229,-224.5 472.9229,-221.0001 472.923,-228.0001"/>
</g>
<!-- Node6&#45;&gt;Node3 -->
<g id="edge7" class="edge">
<title>Node6&#45;&gt;Node3</title>
<path fill="none" stroke="#191970" d="M518.1446,-233.7998C530.7386,-245.7709 554.0467,-266.6722 576.8311,-280.5 581.0344,-283.051 585.6644,-285.4186 590.2706,-287.5429"/>
<polygon fill="#191970" stroke="#191970" points="588.9792,-290.7976 599.5479,-291.5424 591.7504,-284.3695 588.9792,-290.7976"/>
</g>
<!-- Node7 -->
<g id="node8" class="node">
<title>Node7</title>
<g id="a_node8"><a xlink:href="_a_p_i_8h.html#aab53a247d88151a6623c20fa1ea940b0" target="_top" xlink:title="Sets the specified LCD backlight to be on or off. ">
<polygon fill="none" stroke="#000000" points="576.8311,-252.5 576.8311,-270.5 661.2002,-270.5 661.2002,-252.5 576.8311,-252.5"/>
<text text-anchor="middle" x="619.0156" y="-258.5" font-family="Helvetica,sans-Serif" font-size="10.00" fill="#000000">lcdSetBacklight</text>
</a>
</g>
</g>
<!-- Node6&#45;&gt;Node7 -->
<g id="edge8" class="edge">
<title>Node6&#45;&gt;Node7</title>
<path fill="none" stroke="#191970" d="M534.2504,-233.0815C548.5934,-237.8902 566.7224,-243.9681 582.5301,-249.2678"/>
<polygon fill="#191970" stroke="#191970" points="581.4242,-252.5885 592.0181,-252.4488 583.6493,-245.9515 581.4242,-252.5885"/>
</g>
<!-- Node8 -->
<g id="node9" class="node">
<title>Node8</title>
<g id="a_node9"><a xlink:href="_a_p_i_8h.html#a5fa1d119fe3e836b5519f97eae7a1272" target="_top" xlink:title="Clears the LCD screen on the specified port. ">
<polygon fill="none" stroke="#000000" points="592.6758,-215.5 592.6758,-233.5 645.3555,-233.5 645.3555,-215.5 592.6758,-215.5"/>
<text text-anchor="middle" x="619.0156" y="-221.5" font-family="Helvetica,sans-Serif" font-size="10.00" fill="#000000">lcdClear</text>
</a>
</g>
</g>
<!-- Node6&#45;&gt;Node8 -->
<g id="edge9" class="edge">
<title>Node6&#45;&gt;Node8</title>
<path fill="none" stroke="#191970" d="M534.2504,-224.5C548.4262,-224.5 566.3004,-224.5 581.9765,-224.5"/>
<polygon fill="#191970" stroke="#191970" points="582.4057,-228.0001 592.4056,-224.5 582.4056,-221.0001 582.4057,-228.0001"/>
</g>
<!-- Node9 -->
<g id="node10" class="node">
<title>Node9</title>
<g id="a_node10"><a xlink:href="_a_p_i_8h.html#a6cfad8271c6a566a2f51ca318f819a80" target="_top" xlink:title="Prints the formatted string to the attached LCD. ">
<polygon fill="none" stroke="#000000" points="594.3433,-178.5 594.3433,-196.5 643.688,-196.5 643.688,-178.5 594.3433,-178.5"/>
<text text-anchor="middle" x="619.0156" y="-184.5" font-family="Helvetica,sans-Serif" font-size="10.00" fill="#000000">lcdPrint</text>
</a>
</g>
</g>
<!-- Node6&#45;&gt;Node9 -->
<g id="edge10" class="edge">
<title>Node6&#45;&gt;Node9</title>
<path fill="none" stroke="#191970" d="M534.2504,-215.9185C549.2262,-210.8977 568.3294,-204.4931 584.6082,-199.0355"/>
<polygon fill="#191970" stroke="#191970" points="585.9482,-202.2777 594.317,-195.7805 583.7231,-195.6408 585.9482,-202.2777"/>
</g>
<!-- Node13&#45;&gt;Node14 -->
<g id="edge15" class="edge">
<title>Node13&#45;&gt;Node14</title>
<path fill="none" stroke="#191970" d="M440.7444,-81.4132C449.0513,-82.8917 457.8666,-84.4607 466.2984,-85.9614"/>
<polygon fill="#191970" stroke="#191970" points="465.8744,-89.4409 476.333,-87.7474 467.1011,-82.5492 465.8744,-89.4409"/>
</g>
<!-- Node13&#45;&gt;Node15 -->
<g id="edge16" class="edge">
<title>Node13&#45;&gt;Node15</title>
<path fill="none" stroke="#191970" d="M436.2671,-65.4865C445.9583,-62.9446 456.6112,-60.1504 466.694,-57.5057"/>
<polygon fill="#191970" stroke="#191970" points="467.7452,-60.8485 476.53,-54.9258 465.9692,-54.0775 467.7452,-60.8485"/>
</g>
<!-- Node13&#45;&gt;Node16 -->
<g id="edge17" class="edge">
<title>Node13&#45;&gt;Node16</title>
<path fill="none" stroke="#191970" d="M415.7873,-65.4439C430.6631,-55.8134 455.0325,-40.2437 476.4766,-27.5 478.4885,-26.3044 480.582,-25.0831 482.6929,-23.8679"/>
<polygon fill="#191970" stroke="#191970" points="484.8813,-26.6509 491.8582,-18.6776 481.4319,-20.5598 484.8813,-26.6509"/>
</g>
</g>
</svg>
        <g id="navigator" transform="translate(0 0)" fill="#404254">
                <rect fill="#f2f5e9" fill-opacity="0.5" stroke="#606060" stroke-width=".5" x="0" y="0" width="60" height="60"/>
                <use id="zoomplus" xlink:href="#zoomPlus" x="17" y="9" onmousedown="handleZoom(evt,'in')"/>
                <use id="zoomminus" xlink:href="#zoomMin" x="42" y="9" onmousedown="handleZoom(evt,'out')"/>
                <use id="reset" xlink:href="#resetDef" x="30" y="36" onmousedown="handleReset()"/>
                <g id="arrowUp" xlink:href="#dirArrow" transform="translate(30 24)" onmousedown="handlePan(0,-1)">
                  <use xlink:href="#rim" fill="#404040">
                        <set attributeName="fill" to="#808080" begin="arrowUp.mouseover" end="arrowUp.mouseout"/>
                  </use>
                  <path fill="none" stroke="white" stroke-width="1.5" d="M0,-3.0v7 M-2.5,-0.5L0,-3.0L2.5,-0.5"/>
                </g>
                <g id="arrowRight" xlink:href="#dirArrow" transform="rotate(90) translate(36 -43)" onmousedown="handlePan(1,0)">
                  <use xlink:href="#rim" fill="#404040">
                        <set attributeName="fill" to="#808080" begin="arrowRight.mouseover" end="arrowRight.mouseout"/>
                  </use>
                  <path fill="none" stroke="white" stroke-width="1.5" d="M0,-3.0v7 M-2.5,-0.5L0,-3.0L2.5,-0.5"/>
                </g>
                <g id="arrowDown" xlink:href="#dirArrow" transform="rotate(180) translate(-30 -48)" onmousedown="handlePan(0,1)">
                  <use xlink:href="#rim" fill="#404040">
                        <set attributeName="fill" to="#808080" begin="arrowDown.mouseover" end="arrowDown.mouseout"/>
                  </use>
                  <path fill="none" stroke="white" stroke-width="1.5" d="M0,-3.0v7 M-2.5,-0.5L0,-3.0L2.5,-0.5"/>
                </g>
                <g id="arrowLeft" xlink:href="#dirArrow" transform="rotate(270) translate(-36 17)" onmousedown="handlePan(-1,0)">
                  <use xlink:href="#rim" fill="#404040">
                        <set attributeName="fill" to="#808080" begin="arrowLeft.mouseover" end="arrowLeft.mouseout"/>
                  </use>
                  <path fill="none" stroke="white" stroke-width="1.5" d="M0,-3.0v7 M-2.5,-0.5L0,-3.0L2.5,-0.5"/>
                </g>
        </g>
        <svg viewBox="0 0 15 15" width="100%" height="30px" preserveAspectRatio="xMaxYMin meet">
         <g id="arrow_out" transform="scale(0.3 0.3)">
          <a xlink:href="claw_8h_a3a6168bf4e2042115dd32542f1f6a2f5_cgraph_org.svg" target="_base">
           <rect id="button" ry="5" rx="5" y="6" x="6" height="38" width="38"
                fill="#f2f5e9" fill-opacity="0.5" stroke="#606060" stroke-width="1.0"/>
           <path id="arrow"
             d="M 11.500037,31.436501 C 11.940474,20.09759 22.043105,11.32322 32.158766,21.979434 L 37.068811,17.246167 C 37.068811,17.246167 37.088388,32 37.088388,32 L 22.160133,31.978069 C 22.160133,31.978069 26.997745,27.140456 26.997745,27.140456 C 18.528582,18.264221 13.291696,25.230495 11.500037,31.436501 z"
             style="fill:#404040;"/>
          </a>
         </g>
        </svg>
</svg>
