<?xml version="1.0" encoding="UTF-8" standalone="no"?>
<!DOCTYPE svg PUBLIC "-//W3C//DTD SVG 1.1//EN"
 "http://www.w3.org/Graphics/SVG/1.1/DTD/svg11.dtd">
<!-- Generated by graphviz version 2.40.1 (20161225.0304)
 -->
<!-- Title: set_claw_motor Pages: 1 -->
<!--zoomable 316 -->
<svg id="main" version="1.1" xmlns="http://www.w3.org/2000/svg" xmlns:xlink="http://www.w3.org/1999/xlink" xml:space="preserve" onload="init(evt)">
<style type="text/css"><![CDATA[
.edge:hover path { stroke: red; }
.edge:hover polygon { stroke: red; fill: red; }
]]></style>
<script type="text/javascript"><![CDATA[
var edges = document.getElementsByTagName('g');
if (edges && edges.length) {
  for (var i=0;i<edges.length;i++) {
    if (edges[i].id.substr(0,4)=='edge') {
      edges[i].setAttribute('class','edge');
    }
  }
}
]]></script>
        <defs>
                <circle id="rim" cx="0" cy="0" r="7"/>
                <circle id="rim2" cx="0" cy="0" r="3.5"/>
                <g id="zoomPlus">
                        <use xlink:href="#rim" fill="#404040">
                                <set attributeName="fill" to="#808080" begin="zoomplus.mouseover" end="zoomplus.mouseout"/>
                        </use>
                        <path d="M-4,0h8M0,-4v8" fill="none" stroke="white" stroke-width="1.5" pointer-events="none"/>
                </g>
                <g id="zoomMin">
                        <use xlink:href="#rim" fill="#404040">
                                <set attributeName="fill" to="#808080" begin="zoomminus.mouseover" end="zoomminus.mouseout"/>
                        </use>
                        <path d="M-4,0h8" fill="none" stroke="white" stroke-width="1.5" pointer-events="none"/>
                </g>
                <g id="dirArrow">
                        <path fill="none" stroke="white" stroke-width="1.5" d="M0,-3.0v7 M-2.5,-0.5L0,-3.0L2.5,-0.5"/>
                </g>
               <g id="resetDef">
                       <use xlink:href="#rim2" fill="#404040">
                               <set attributeName="fill" to="#808080" begin="reset.mouseover" end="reset.mouseout"/>
                       </use>
               </g>
        </defs>

<script type="text/javascript">
var viewWidth = 666;
var viewHeight = 316;
var sectionId = 'dynsection-3';
</script>
<script xlink:href="svgpan.js"/>
<svg id="graph" class="graph">
<g id="viewport">
<title>set_claw_motor</title>
<!-- Node42 -->
<g id="node1" class="node">
<title>Node42</title>
<polygon fill="#bfbfbf" stroke="#000000" points="0,-103.5 0,-121.5 86.0293,-121.5 86.0293,-103.5 0,-103.5"/>
<text text-anchor="middle" x="43.0146" y="-109.5" font-family="Helvetica,sans-Serif" font-size="10.00" fill="#000000">set_claw_motor</text>
</g>
<!-- Node43 -->
<g id="node2" class="node">
<title>Node43</title>
<g id="a_node2"><a xlink:href="slew_8h.html#a9f8b8ae577ef938622024545711f0151" target="_top" xlink:title="Sets the motor speed ignoring the slew controller. ">
<polygon fill="none" stroke="#000000" points="122.0293,-103.5 122.0293,-121.5 234.1816,-121.5 234.1816,-103.5 122.0293,-103.5"/>
<text text-anchor="middle" x="178.1055" y="-109.5" font-family="Helvetica,sans-Serif" font-size="10.00" fill="#000000">set_motor_immediate</text>
</a>
</g>
</g>
<!-- Node42&#45;&gt;Node43 -->
<g id="edge1" class="edge">
<title>Node42&#45;&gt;Node43</title>
<path fill="none" stroke="#191970" d="M86.1297,-112.5C94.2326,-112.5 102.8777,-112.5 111.5024,-112.5"/>
<polygon fill="#191970" stroke="#191970" points="111.5838,-116.0001 121.5838,-112.5 111.5838,-109.0001 111.5838,-116.0001"/>
</g>
<!-- Node44 -->
<g id="node3" class="node">
<title>Node44</title>
<g id="a_node3"><a xlink:href="log_8h.html#af3668f40d1ad1b4f3418869ac9a31f34" target="_top" xlink:title="prints a info message ">
<polygon fill="none" stroke="#000000" points="275.4526,-243.5 275.4526,-261.5 319.2603,-261.5 319.2603,-243.5 275.4526,-243.5"/>
<text text-anchor="middle" x="297.3564" y="-249.5" font-family="Helvetica,sans-Serif" font-size="10.00" fill="#000000">debug</text>
</a>
</g>
</g>
<!-- Node43&#45;&gt;Node44 -->
<g id="edge2" class="edge">
<title>Node43&#45;&gt;Node44</title>
<path fill="none" stroke="#191970" d="M185.9299,-121.6858C205.6433,-144.8292 257.5827,-205.8059 282.9722,-235.6129"/>
<polygon fill="#191970" stroke="#191970" points="280.5094,-238.1193 289.6583,-243.4624 285.8383,-233.5802 280.5094,-238.1193"/>
</g>
<!-- Node46 -->
<g id="node5" class="node">
<title>Node46</title>
<g id="a_node5"><a xlink:href="slew_8c.html#a321758941d88b75783955c819bb75005" target="_top" xlink:title="Initializes the slew rate controller. ">
<polygon fill="none" stroke="#000000" points="270.1816,-159.5 270.1816,-177.5 324.5313,-177.5 324.5313,-159.5 270.1816,-159.5"/>
<text text-anchor="middle" x="297.3564" y="-165.5" font-family="Helvetica,sans-Serif" font-size="10.00" fill="#000000">init_slew</text>
</a>
</g>
</g>
<!-- Node43&#45;&gt;Node46 -->
<g id="edge4" class="edge">
<title>Node43&#45;&gt;Node46</title>
<path fill="none" stroke="#191970" d="M197.5306,-121.622C216.8475,-130.6932 246.7013,-144.7124 268.7324,-155.0582"/>
<polygon fill="#191970" stroke="#191970" points="267.4002,-158.2993 277.9396,-159.3819 270.3757,-151.9631 267.4002,-158.2993"/>
</g>
<!-- Node56 -->
<g id="node15" class="node">
<title>Node56</title>
<g id="a_node15"><a xlink:href="_a_p_i_8h.html#a8b51124628d2a7741738d48551d1e8ee" target="_top" xlink:title="Requests a mutex so that other tasks cannot simultaneously use the resource it guards. ">
<polygon fill="none" stroke="#000000" points="473.6787,-84.5 473.6787,-102.5 538.0332,-102.5 538.0332,-84.5 473.6787,-84.5"/>
<text text-anchor="middle" x="505.856" y="-90.5" font-family="Helvetica,sans-Serif" font-size="10.00" fill="#000000">mutexTake</text>
</a>
</g>
</g>
<!-- Node43&#45;&gt;Node56 -->
<g id="edge19" class="edge">
<title>Node43&#45;&gt;Node56</title>
<path fill="none" stroke="#191970" d="M234.4478,-109.2338C299.5399,-105.4603 405.1576,-99.3376 463.594,-95.95"/>
<polygon fill="#191970" stroke="#191970" points="463.8099,-99.4434 473.5905,-95.3705 463.4047,-92.4552 463.8099,-99.4434"/>
</g>
<!-- Node57 -->
<g id="node16" class="node">
<title>Node57</title>
<g id="a_node16"><a xlink:href="_a_p_i_8h.html#afe171a08d22de18fc2ab604b2364959f" target="_top" xlink:title="Relinquishes a mutex so that other tasks can use the resource it guards. ">
<polygon fill="none" stroke="#000000" points="473.9595,-37.5 473.9595,-55.5 537.7524,-55.5 537.7524,-37.5 473.9595,-37.5"/>
<text text-anchor="middle" x="505.856" y="-43.5" font-family="Helvetica,sans-Serif" font-size="10.00" fill="#000000">mutexGive</text>
</a>
</g>
</g>
<!-- Node43&#45;&gt;Node57 -->
<g id="edge20" class="edge">
<title>Node43&#45;&gt;Node57</title>
<path fill="none" stroke="#191970" d="M201.29,-103.4974C235.5282,-90.6385 301.8963,-67.3681 360.5313,-56.5 394.8581,-50.1374 434.4221,-47.729 463.5933,-46.8603"/>
<polygon fill="#191970" stroke="#191970" points="463.9315,-50.3531 473.8414,-46.6055 463.7575,-43.3552 463.9315,-50.3531"/>
</g>
<!-- Node58 -->
<g id="node17" class="node">
<title>Node58</title>
<g id="a_node17"><a xlink:href="_a_p_i_8h.html#a03c5b04b472d024281f62d7af8854a8e" target="_top" xlink:title="Sets the speed of the specified motor channel. ">
<polygon fill="none" stroke="#000000" points="477.5703,-.5 477.5703,-18.5 534.1416,-18.5 534.1416,-.5 477.5703,-.5"/>
<text text-anchor="middle" x="505.856" y="-6.5" font-family="Helvetica,sans-Serif" font-size="10.00" fill="#000000">motorSet</text>
</a>
</g>
</g>
<!-- Node43&#45;&gt;Node58 -->
<g id="edge18" class="edge">
<title>Node43&#45;&gt;Node58</title>
<path fill="none" stroke="#191970" d="M190.8729,-103.4062C208.0791,-91.5708 240.0379,-71.0419 270.1816,-59.5 337.0002,-33.9154 419.7513,-20.1973 467.3072,-13.9107"/>
<polygon fill="#191970" stroke="#191970" points="467.9964,-17.3512 477.4712,-12.61 467.1077,-10.4078 467.9964,-17.3512"/>
</g>
<!-- Node45 -->
<g id="node4" class="node">
<title>Node45</title>
<g id="a_node4"><a xlink:href="_a_p_i_8h.html#a403c82418e475fa4a8273719e6a7f3e6" target="_top" xlink:title="Prints the formatted string to the debug stream (the PC terminal). ">
<polygon fill="none" stroke="#000000" points="597.1021,-289.5 597.1021,-307.5 635.3335,-307.5 635.3335,-289.5 597.1021,-289.5"/>
<text text-anchor="middle" x="616.2178" y="-295.5" font-family="Helvetica,sans-Serif" font-size="10.00" fill="#000000">printf</text>
</a>
</g>
</g>
<!-- Node44&#45;&gt;Node45 -->
<g id="edge3" class="edge">
<title>Node44&#45;&gt;Node45</title>
<path fill="none" stroke="#191970" d="M313.6855,-261.6303C326.1216,-268.1082 343.8829,-276.3598 360.5313,-280.5 440.6268,-300.4185 538.8744,-300.9233 586.9291,-299.6896"/>
<polygon fill="#191970" stroke="#191970" points="587.0515,-303.1876 596.9414,-299.3875 586.8404,-296.1908 587.0515,-303.1876"/>
</g>
<!-- Node47 -->
<g id="node6" class="node">
<title>Node47</title>
<g id="a_node6"><a xlink:href="log_8h.html#a0bec2cf5fff7f607bc510b74aba9887c" target="_top" xlink:title="prints a warning message and displays on lcd. ">
<polygon fill="none" stroke="#000000" points="373.5952,-215.5 373.5952,-233.5 424.6147,-233.5 424.6147,-215.5 373.5952,-215.5"/>
<text text-anchor="middle" x="399.105" y="-221.5" font-family="Helvetica,sans-Serif" font-size="10.00" fill="#000000">warning</text>
</a>
</g>
</g>
<!-- Node46&#45;&gt;Node47 -->
<g id="edge5" class="edge">
<title>Node46&#45;&gt;Node47</title>
<path fill="none" stroke="#191970" d="M311.6608,-177.6936C324.3058,-185.6774 343.3572,-197.3602 360.5313,-206.5 363.4017,-208.0276 366.4249,-209.5619 369.4637,-211.0553"/>
<polygon fill="#191970" stroke="#191970" points="367.9568,-214.2143 378.4889,-215.3659 370.9737,-207.8978 367.9568,-214.2143"/>
</g>
<!-- Node52 -->
<g id="node11" class="node">
<title>Node52</title>
<g id="a_node11"><a xlink:href="_a_p_i_8h.html#a8966c541f3e9565aea1289f0d2f2cf43" target="_top" xlink:title="Stops all motors; significantly faster than looping through all motor ports and calling motorSet(chan...">
<polygon fill="none" stroke="#000000" points="362.4819,-178.5 362.4819,-196.5 435.728,-196.5 435.728,-178.5 362.4819,-178.5"/>
<text text-anchor="middle" x="399.105" y="-184.5" font-family="Helvetica,sans-Serif" font-size="10.00" fill="#000000">motorStopAll</text>
</a>
</g>
</g>
<!-- Node46&#45;&gt;Node52 -->
<g id="edge11" class="edge">
<title>Node46&#45;&gt;Node52</title>
<path fill="none" stroke="#191970" d="M324.6232,-173.5917C333.0961,-175.1738 342.6916,-176.9657 352.1089,-178.7242"/>
<polygon fill="#191970" stroke="#191970" points="351.7235,-182.2127 362.1961,-180.6078 353.0085,-175.3316 351.7235,-182.2127"/>
</g>
<!-- Node53 -->
<g id="node12" class="node">
<title>Node53</title>
<g id="a_node12"><a xlink:href="_a_p_i_8h.html#aecd027ce8f8b52a765735e9eb5b202b3" target="_top" xlink:title="Creates a mutex intended to allow only one task to use a resource at a time. ">
<polygon fill="none" stroke="#000000" points="362.4819,-141.5 362.4819,-159.5 435.728,-159.5 435.728,-141.5 362.4819,-141.5"/>
<text text-anchor="middle" x="399.105" y="-147.5" font-family="Helvetica,sans-Serif" font-size="10.00" fill="#000000">mutexCreate</text>
</a>
</g>
</g>
<!-- Node46&#45;&gt;Node53 -->
<g id="edge12" class="edge">
<title>Node46&#45;&gt;Node53</title>
<path fill="none" stroke="#191970" d="M324.6232,-163.6763C333.0961,-162.1774 342.6916,-160.4799 352.1089,-158.8139"/>
<polygon fill="#191970" stroke="#191970" points="352.9587,-162.218 362.1961,-157.0294 351.7392,-155.325 352.9587,-162.218"/>
</g>
<!-- Node54 -->
<g id="node13" class="node">
<title>Node54</title>
<g id="a_node13"><a xlink:href="_a_p_i_8h.html#ab05a241d6d1fd98b1ceb4665db678156" target="_top" xlink:title="Starts a task which will periodically call the specified function. ">
<polygon fill="none" stroke="#000000" points="361.6396,-252.5 361.6396,-270.5 436.5703,-270.5 436.5703,-252.5 361.6396,-252.5"/>
<text text-anchor="middle" x="399.105" y="-258.5" font-family="Helvetica,sans-Serif" font-size="10.00" fill="#000000">taskRunLoop</text>
</a>
</g>
</g>
<!-- Node46&#45;&gt;Node54 -->
<g id="edge13" class="edge">
<title>Node46&#45;&gt;Node54</title>
<path fill="none" stroke="#191970" d="M303.3052,-177.9368C313.4345,-193.3771 335.3936,-224.2435 360.5313,-243.5 362.3426,-244.8875 364.278,-246.2022 366.2814,-247.4414"/>
<polygon fill="#191970" stroke="#191970" points="364.8709,-250.6591 375.3245,-252.383 368.2276,-244.5164 364.8709,-250.6591"/>
</g>
<!-- Node55 -->
<g id="node14" class="node">
<title>Node55</title>
<g id="a_node14"><a xlink:href="slew_8c.html#a807a87c5df438fde21c1e8213906695b" target="_top" xlink:title="Closes the distance between the desired motor value and the current motor value by half for each moto...">
<polygon fill="none" stroke="#000000" points="360.5313,-65.5 360.5313,-83.5 437.6787,-83.5 437.6787,-65.5 360.5313,-65.5"/>
<text text-anchor="middle" x="399.105" y="-71.5" font-family="Helvetica,sans-Serif" font-size="10.00" fill="#000000">updateMotors</text>
</a>
</g>
</g>
<!-- Node46&#45;&gt;Node55 -->
<g id="edge14" class="edge">
<title>Node46&#45;&gt;Node55</title>
<path fill="none" stroke="#191970" d="M307.1125,-159.4869C324.3136,-143.5957 360.2459,-110.3998 381.759,-90.525"/>
<polygon fill="#191970" stroke="#191970" points="384.2588,-92.9807 389.2289,-83.6239 379.5086,-87.839 384.2588,-92.9807"/>
</g>
<!-- Node48 -->
<g id="node7" class="node">
<title>Node48</title>
<g id="a_node7"><a xlink:href="log_8c.html#afff22aff6749311a684a559cac3ac8bd" target="_top" xlink:title="prints a log info message to the lcd ">
<polygon fill="none" stroke="#000000" points="480.3413,-215.5 480.3413,-233.5 531.3706,-233.5 531.3706,-215.5 480.3413,-215.5"/>
<text text-anchor="middle" x="505.856" y="-221.5" font-family="Helvetica,sans-Serif" font-size="10.00" fill="#000000">log_info</text>
</a>
</g>
</g>
<!-- Node47&#45;&gt;Node48 -->
<g id="edge6" class="edge">
<title>Node47&#45;&gt;Node48</title>
<path fill="none" stroke="#191970" d="M424.6745,-224.5C438.1752,-224.5 454.9688,-224.5 469.7727,-224.5"/>
<polygon fill="#191970" stroke="#191970" points="470.1251,-228.0001 480.1251,-224.5 470.1251,-221.0001 470.1251,-228.0001"/>
</g>
<!-- Node48&#45;&gt;Node45 -->
<g id="edge7" class="edge">
<title>Node48&#45;&gt;Node45</title>
<path fill="none" stroke="#191970" d="M515.3467,-233.7998C527.9408,-245.7709 551.2488,-266.6722 574.0332,-280.5 578.2365,-283.051 582.8665,-285.4186 587.4727,-287.5429"/>
<polygon fill="#191970" stroke="#191970" points="586.1814,-290.7976 596.75,-291.5424 588.9526,-284.3695 586.1814,-290.7976"/>
</g>
<!-- Node49 -->
<g id="node8" class="node">
<title>Node49</title>
<g id="a_node8"><a xlink:href="_a_p_i_8h.html#aab53a247d88151a6623c20fa1ea940b0" target="_top" xlink:title="Sets the specified LCD backlight to be on or off. ">
<polygon fill="none" stroke="#000000" points="574.0332,-252.5 574.0332,-270.5 658.4023,-270.5 658.4023,-252.5 574.0332,-252.5"/>
<text text-anchor="middle" x="616.2178" y="-258.5" font-family="Helvetica,sans-Serif" font-size="10.00" fill="#000000">lcdSetBacklight</text>
</a>
</g>
</g>
<!-- Node48&#45;&gt;Node49 -->
<g id="edge8" class="edge">
<title>Node48&#45;&gt;Node49</title>
<path fill="none" stroke="#191970" d="M531.4526,-233.0815C545.7955,-237.8902 563.9246,-243.9681 579.7323,-249.2678"/>
<polygon fill="#191970" stroke="#191970" points="578.6263,-252.5885 589.2202,-252.4488 580.8515,-245.9515 578.6263,-252.5885"/>
</g>
<!-- Node50 -->
<g id="node9" class="node">
<title>Node50</title>
<g id="a_node9"><a xlink:href="_a_p_i_8h.html#a5fa1d119fe3e836b5519f97eae7a1272" target="_top" xlink:title="Clears the LCD screen on the specified port. ">
<polygon fill="none" stroke="#000000" points="589.8779,-215.5 589.8779,-233.5 642.5576,-233.5 642.5576,-215.5 589.8779,-215.5"/>
<text text-anchor="middle" x="616.2178" y="-221.5" font-family="Helvetica,sans-Serif" font-size="10.00" fill="#000000">lcdClear</text>
</a>
</g>
</g>
<!-- Node48&#45;&gt;Node50 -->
<g id="edge9" class="edge">
<title>Node48&#45;&gt;Node50</title>
<path fill="none" stroke="#191970" d="M531.4526,-224.5C545.6284,-224.5 563.5025,-224.5 579.1787,-224.5"/>
<polygon fill="#191970" stroke="#191970" points="579.6078,-228.0001 589.6078,-224.5 579.6077,-221.0001 579.6078,-228.0001"/>
</g>
<!-- Node51 -->
<g id="node10" class="node">
<title>Node51</title>
<g id="a_node10"><a xlink:href="_a_p_i_8h.html#a6cfad8271c6a566a2f51ca318f819a80" target="_top" xlink:title="Prints the formatted string to the attached LCD. ">
<polygon fill="none" stroke="#000000" points="591.5454,-178.5 591.5454,-196.5 640.8901,-196.5 640.8901,-178.5 591.5454,-178.5"/>
<text text-anchor="middle" x="616.2178" y="-184.5" font-family="Helvetica,sans-Serif" font-size="10.00" fill="#000000">lcdPrint</text>
</a>
</g>
</g>
<!-- Node48&#45;&gt;Node51 -->
<g id="edge10" class="edge">
<title>Node48&#45;&gt;Node51</title>
<path fill="none" stroke="#191970" d="M531.4526,-215.9185C546.4283,-210.8977 565.5315,-204.4931 581.8104,-199.0355"/>
<polygon fill="#191970" stroke="#191970" points="583.1504,-202.2777 591.5191,-195.7805 580.9252,-195.6408 583.1504,-202.2777"/>
</g>
<!-- Node55&#45;&gt;Node56 -->
<g id="edge15" class="edge">
<title>Node55&#45;&gt;Node56</title>
<path fill="none" stroke="#191970" d="M437.9465,-81.4132C446.2535,-82.8917 455.0688,-84.4607 463.5005,-85.9614"/>
<polygon fill="#191970" stroke="#191970" points="463.0766,-89.4409 473.5352,-87.7474 464.3032,-82.5492 463.0766,-89.4409"/>
</g>
<!-- Node55&#45;&gt;Node57 -->
<g id="edge16" class="edge">
<title>Node55&#45;&gt;Node57</title>
<path fill="none" stroke="#191970" d="M433.4693,-65.4865C443.1604,-62.9446 453.8134,-60.1504 463.8962,-57.5057"/>
<polygon fill="#191970" stroke="#191970" points="464.9474,-60.8485 473.7322,-54.9258 463.1713,-54.0775 464.9474,-60.8485"/>
</g>
<!-- Node55&#45;&gt;Node58 -->
<g id="edge17" class="edge">
<title>Node55&#45;&gt;Node58</title>
<path fill="none" stroke="#191970" d="M412.9894,-65.4439C427.8653,-55.8134 452.2346,-40.2437 473.6787,-27.5 475.6906,-26.3044 477.7842,-25.0831 479.8951,-23.8679"/>
<polygon fill="#191970" stroke="#191970" points="482.0835,-26.6509 489.0604,-18.6776 478.634,-20.5598 482.0835,-26.6509"/>
</g>
</g>
</svg>
        <g id="navigator" transform="translate(0 0)" fill="#404254">
                <rect fill="#f2f5e9" fill-opacity="0.5" stroke="#606060" stroke-width=".5" x="0" y="0" width="60" height="60"/>
                <use id="zoomplus" xlink:href="#zoomPlus" x="17" y="9" onmousedown="handleZoom(evt,'in')"/>
                <use id="zoomminus" xlink:href="#zoomMin" x="42" y="9" onmousedown="handleZoom(evt,'out')"/>
                <use id="reset" xlink:href="#resetDef" x="30" y="36" onmousedown="handleReset()"/>
                <g id="arrowUp" xlink:href="#dirArrow" transform="translate(30 24)" onmousedown="handlePan(0,-1)">
                  <use xlink:href="#rim" fill="#404040">
                        <set attributeName="fill" to="#808080" begin="arrowUp.mouseover" end="arrowUp.mouseout"/>
                  </use>
                  <path fill="none" stroke="white" stroke-width="1.5" d="M0,-3.0v7 M-2.5,-0.5L0,-3.0L2.5,-0.5"/>
                </g>
                <g id="arrowRight" xlink:href="#dirArrow" transform="rotate(90) translate(36 -43)" onmousedown="handlePan(1,0)">
                  <use xlink:href="#rim" fill="#404040">
                        <set attributeName="fill" to="#808080" begin="arrowRight.mouseover" end="arrowRight.mouseout"/>
                  </use>
                  <path fill="none" stroke="white" stroke-width="1.5" d="M0,-3.0v7 M-2.5,-0.5L0,-3.0L2.5,-0.5"/>
                </g>
                <g id="arrowDown" xlink:href="#dirArrow" transform="rotate(180) translate(-30 -48)" onmousedown="handlePan(0,1)">
                  <use xlink:href="#rim" fill="#404040">
                        <set attributeName="fill" to="#808080" begin="arrowDown.mouseover" end="arrowDown.mouseout"/>
                  </use>
                  <path fill="none" stroke="white" stroke-width="1.5" d="M0,-3.0v7 M-2.5,-0.5L0,-3.0L2.5,-0.5"/>
                </g>
                <g id="arrowLeft" xlink:href="#dirArrow" transform="rotate(270) translate(-36 17)" onmousedown="handlePan(-1,0)">
                  <use xlink:href="#rim" fill="#404040">
                        <set attributeName="fill" to="#808080" begin="arrowLeft.mouseover" end="arrowLeft.mouseout"/>
                  </use>
                  <path fill="none" stroke="white" stroke-width="1.5" d="M0,-3.0v7 M-2.5,-0.5L0,-3.0L2.5,-0.5"/>
                </g>
        </g>
        <svg viewBox="0 0 15 15" width="100%" height="30px" preserveAspectRatio="xMaxYMin meet">
         <g id="arrow_out" transform="scale(0.3 0.3)">
          <a xlink:href="claw_8h_a3a57f998b1884d39b0cc786689f7086f_cgraph_org.svg" target="_base">
           <rect id="button" ry="5" rx="5" y="6" x="6" height="38" width="38"
                fill="#f2f5e9" fill-opacity="0.5" stroke="#606060" stroke-width="1.0"/>
           <path id="arrow"
             d="M 11.500037,31.436501 C 11.940474,20.09759 22.043105,11.32322 32.158766,21.979434 L 37.068811,17.246167 C 37.068811,17.246167 37.088388,32 37.088388,32 L 22.160133,31.978069 C 22.160133,31.978069 26.997745,27.140456 26.997745,27.140456 C 18.528582,18.264221 13.291696,25.230495 11.500037,31.436501 z"
             style="fill:#404040;"/>
          </a>
         </g>
        </svg>
</svg>
