<?xml version="1.0" encoding="UTF-8" standalone="no"?>
<!DOCTYPE svg PUBLIC "-//W3C//DTD SVG 1.1//EN"
 "http://www.w3.org/Graphics/SVG/1.1/DTD/svg11.dtd">
<!-- Generated by graphviz version 2.40.1 (20161225.0304)
 -->
<!-- Title: src/claw.c Pages: 1 -->
<svg width="495pt" height="247pt"
 viewBox="0.00 0.00 495.32 247.00" xmlns="http://www.w3.org/2000/svg" xmlns:xlink="http://www.w3.org/1999/xlink">
<g id="graph0" class="graph" transform="scale(1 1) rotate(0) translate(4 243)">
<title>src/claw.c</title>
<!-- Node0 -->
<g id="node1" class="node">
<title>Node0</title>
<polygon fill="#bfbfbf" stroke="#000000" points="110.1699,-220.5 110.1699,-238.5 169.5146,-238.5 169.5146,-220.5 110.1699,-220.5"/>
<text text-anchor="middle" x="139.8423" y="-226.5" font-family="Helvetica,sans-Serif" font-size="10.00" fill="#000000">src/claw.c</text>
</g>
<!-- Node1 -->
<g id="node2" class="node">
<title>Node1</title>
<g id="a_node2"><a xlink:href="claw_8h.html" target="_top" xlink:title="Code for controlling the claw that grabs the cones. ">
<polygon fill="none" stroke="#000000" points="204.9434,-165.5 204.9434,-183.5 248.7412,-183.5 248.7412,-165.5 204.9434,-165.5"/>
<text text-anchor="middle" x="226.8423" y="-171.5" font-family="Helvetica,sans-Serif" font-size="10.00" fill="#000000">claw.h</text>
</a>
</g>
</g>
<!-- Node0&#45;&gt;Node1 -->
<g id="edge1" class="edge">
<title>Node0&#45;&gt;Node1</title>
<path fill="none" stroke="#191970" d="M154.2086,-220.4179C167.6836,-211.8992 188.0615,-199.0166 203.8067,-189.0627"/>
<polygon fill="#191970" stroke="#191970" points="205.8723,-191.8977 212.4547,-183.5956 202.1318,-185.9808 205.8723,-191.8977"/>
</g>
<!-- Node11 -->
<g id="node12" class="node">
<title>Node11</title>
<g id="a_node12"><a xlink:href="log_8h.html" target="_top" xlink:title="Contains logging functions. ">
<polygon fill="none" stroke="#000000" points="0,-110.5 0,-128.5 37.6846,-128.5 37.6846,-110.5 0,-110.5"/>
<text text-anchor="middle" x="18.8423" y="-116.5" font-family="Helvetica,sans-Serif" font-size="10.00" fill="#000000">log.h</text>
</a>
</g>
</g>
<!-- Node0&#45;&gt;Node11 -->
<g id="edge16" class="edge">
<title>Node0&#45;&gt;Node11</title>
<path fill="none" stroke="#191970" d="M129.9403,-220.4982C109.4664,-201.8856 62.2381,-158.9508 36.4422,-135.4999"/>
<polygon fill="#191970" stroke="#191970" points="38.6348,-132.7631 28.881,-128.6261 33.9261,-137.9427 38.6348,-132.7631"/>
</g>
<!-- Node2 -->
<g id="node3" class="node">
<title>Node2</title>
<g id="a_node3"><a xlink:href="slew_8h.html" target="_top" xlink:title="Contains the slew rate controller wrapper for the motors. ">
<polygon fill="none" stroke="#000000" points="371.9434,-110.5 371.9434,-128.5 415.7412,-128.5 415.7412,-110.5 371.9434,-110.5"/>
<text text-anchor="middle" x="393.8423" y="-116.5" font-family="Helvetica,sans-Serif" font-size="10.00" fill="#000000">slew.h</text>
</a>
</g>
</g>
<!-- Node1&#45;&gt;Node2 -->
<g id="edge2" class="edge">
<title>Node1&#45;&gt;Node2</title>
<path fill="none" stroke="#191970" d="M249.0186,-167.1964C278.0456,-157.6366 329.1077,-140.8198 362.1936,-129.9232"/>
<polygon fill="#191970" stroke="#191970" points="363.437,-133.1987 371.8402,-126.7462 361.2472,-126.55 363.437,-133.1987"/>
</g>
<!-- Node3 -->
<g id="node4" class="node">
<title>Node3</title>
<polygon fill="none" stroke="#bfbfbf" points="260.6133,-.5 260.6133,-18.5 301.0713,-18.5 301.0713,-.5 260.6133,-.5"/>
<text text-anchor="middle" x="280.8423" y="-6.5" font-family="Helvetica,sans-Serif" font-size="10.00" fill="#000000">API.h</text>
</g>
<!-- Node1&#45;&gt;Node3 -->
<g id="edge9" class="edge">
<title>Node1&#45;&gt;Node3</title>
<path fill="none" stroke="#191970" d="M230.1107,-165.4633C233.4028,-156.302 238.5896,-141.7047 242.8423,-129 254.7138,-93.5345 267.7647,-51.854 275.066,-28.271"/>
<polygon fill="#191970" stroke="#191970" points="278.4692,-29.1122 278.0748,-18.5247 271.7807,-27.0473 278.4692,-29.1122"/>
</g>
<!-- Node7 -->
<g id="node8" class="node">
<title>Node7</title>
<g id="a_node8"><a xlink:href="controller_8h.html" target="_top" xlink:title="controller definitions, macros and functions to assist with usig the vex controllers. ">
<polygon fill="none" stroke="#000000" points="289.3818,-110.5 289.3818,-128.5 354.3027,-128.5 354.3027,-110.5 289.3818,-110.5"/>
<text text-anchor="middle" x="321.8423" y="-116.5" font-family="Helvetica,sans-Serif" font-size="10.00" fill="#000000">controller.h</text>
</a>
</g>
</g>
<!-- Node1&#45;&gt;Node7 -->
<g id="edge10" class="edge">
<title>Node1&#45;&gt;Node7</title>
<path fill="none" stroke="#191970" d="M242.5296,-165.4179C257.3813,-156.8195 279.9121,-143.7754 297.1692,-133.7844"/>
<polygon fill="#191970" stroke="#191970" points="299.231,-136.635 306.1317,-128.5956 295.7237,-130.577 299.231,-136.635"/>
</g>
<!-- Node9 -->
<g id="node10" class="node">
<title>Node9</title>
<g id="a_node10"><a xlink:href="motor__ports_8h.html" target="_top" xlink:title="The motor port definitionsMacros for the different motors ports. ">
<polygon fill="none" stroke="#000000" points="55.9951,-110.5 55.9951,-128.5 133.6895,-128.5 133.6895,-110.5 55.9951,-110.5"/>
<text text-anchor="middle" x="94.8423" y="-116.5" font-family="Helvetica,sans-Serif" font-size="10.00" fill="#000000">motor_ports.h</text>
</a>
</g>
</g>
<!-- Node1&#45;&gt;Node9 -->
<g id="edge14" class="edge">
<title>Node1&#45;&gt;Node9</title>
<path fill="none" stroke="#191970" d="M205.0452,-165.4179C183.5493,-156.4613 150.4758,-142.6806 126.1671,-132.552"/>
<polygon fill="#191970" stroke="#191970" points="127.2487,-129.2111 116.6718,-128.5956 124.5564,-135.6726 127.2487,-129.2111"/>
</g>
<!-- Node10 -->
<g id="node11" class="node">
<title>Node10</title>
<g id="a_node11"><a xlink:href="sensor__ports_8h.html" target="_top" xlink:title="sensor_ports.h">
<polygon fill="none" stroke="#000000" points="151.7686,-110.5 151.7686,-128.5 233.916,-128.5 233.916,-110.5 151.7686,-110.5"/>
<text text-anchor="middle" x="192.8423" y="-116.5" font-family="Helvetica,sans-Serif" font-size="10.00" fill="#000000">sensor_ports.h</text>
</a>
</g>
</g>
<!-- Node1&#45;&gt;Node10 -->
<g id="edge15" class="edge">
<title>Node1&#45;&gt;Node10</title>
<path fill="none" stroke="#191970" d="M221.2279,-165.4179C216.5314,-157.8207 209.6894,-146.7527 203.8995,-137.3866"/>
<polygon fill="#191970" stroke="#191970" points="206.814,-135.445 198.5787,-128.7795 200.8599,-139.1258 206.814,-135.445"/>
</g>
<!-- Node2&#45;&gt;Node3 -->
<g id="edge3" class="edge">
<title>Node2&#45;&gt;Node3</title>
<path fill="none" stroke="#191970" d="M384.595,-110.4982C365.5575,-91.9662 321.7504,-49.3221 297.5925,-25.8056"/>
<polygon fill="#191970" stroke="#191970" points="299.8243,-23.0935 290.2173,-18.6261 294.9415,-28.1094 299.8243,-23.0935"/>
</g>
<!-- Node4 -->
<g id="node5" class="node">
<title>Node4</title>
<polygon fill="none" stroke="#bfbfbf" points="426.5566,-.5 426.5566,-18.5 473.1279,-18.5 473.1279,-.5 426.5566,-.5"/>
<text text-anchor="middle" x="449.8423" y="-6.5" font-family="Helvetica,sans-Serif" font-size="10.00" fill="#000000">math.h</text>
</g>
<!-- Node2&#45;&gt;Node4 -->
<g id="edge4" class="edge">
<title>Node2&#45;&gt;Node4</title>
<path fill="none" stroke="#191970" d="M416.128,-115.1703C437.6801,-109.67 469.1677,-97.8621 483.8423,-74 493.5982,-58.136 480.9107,-39.2027 468.3544,-25.9677"/>
<polygon fill="#191970" stroke="#191970" points="470.7376,-23.4027 461.1472,-18.8999 465.8364,-28.4006 470.7376,-23.4027"/>
</g>
<!-- Node5 -->
<g id="node6" class="node">
<title>Node5</title>
<g id="a_node6"><a xlink:href="vlib_8h.html" target="_top" xlink:title="Contains misc helpful functions. ">
<polygon fill="none" stroke="#000000" points="366.1699,-55.5 366.1699,-73.5 405.5146,-73.5 405.5146,-55.5 366.1699,-55.5"/>
<text text-anchor="middle" x="385.8423" y="-61.5" font-family="Helvetica,sans-Serif" font-size="10.00" fill="#000000">vlib.h</text>
</a>
</g>
</g>
<!-- Node2&#45;&gt;Node5 -->
<g id="edge5" class="edge">
<title>Node2&#45;&gt;Node5</title>
<path fill="none" stroke="#191970" d="M392.5212,-110.4179C391.4738,-103.2164 389.9726,-92.8962 388.6587,-83.8632"/>
<polygon fill="#191970" stroke="#191970" points="392.0951,-83.1715 387.192,-73.7795 385.168,-84.1791 392.0951,-83.1715"/>
</g>
<!-- Node5&#45;&gt;Node3 -->
<g id="edge7" class="edge">
<title>Node5&#45;&gt;Node3</title>
<path fill="none" stroke="#191970" d="M368.5037,-55.4179C351.8607,-46.7001 326.4928,-33.4122 307.3212,-23.3699"/>
<polygon fill="#191970" stroke="#191970" points="308.689,-20.1353 298.2067,-18.5956 305.4409,-26.3362 308.689,-20.1353"/>
</g>
<!-- Node5&#45;&gt;Node4 -->
<g id="edge6" class="edge">
<title>Node5&#45;&gt;Node4</title>
<path fill="none" stroke="#191970" d="M396.4106,-55.4179C405.8956,-47.2667 420.0298,-35.1201 431.3789,-25.3669"/>
<polygon fill="#191970" stroke="#191970" points="433.7413,-27.9516 439.0444,-18.7795 429.179,-22.6427 433.7413,-27.9516"/>
</g>
<!-- Node6 -->
<g id="node7" class="node">
<title>Node6</title>
<polygon fill="none" stroke="#bfbfbf" points="359.4458,-.5 359.4458,-18.5 408.2388,-18.5 408.2388,-.5 359.4458,-.5"/>
<text text-anchor="middle" x="383.8423" y="-6.5" font-family="Helvetica,sans-Serif" font-size="10.00" fill="#000000">string.h</text>
</g>
<!-- Node5&#45;&gt;Node6 -->
<g id="edge8" class="edge">
<title>Node5&#45;&gt;Node6</title>
<path fill="none" stroke="#191970" d="M385.512,-55.4179C385.2502,-48.2164 384.8749,-37.8962 384.5464,-28.8632"/>
<polygon fill="#191970" stroke="#191970" points="388.0409,-28.6456 384.1797,-18.7795 381.0455,-28.9001 388.0409,-28.6456"/>
</g>
<!-- Node7&#45;&gt;Node3 -->
<g id="edge13" class="edge">
<title>Node7&#45;&gt;Node3</title>
<path fill="none" stroke="#191970" d="M318.4871,-110.4982C311.7899,-92.5302 296.6442,-51.8954 287.7395,-28.0046"/>
<polygon fill="#191970" stroke="#191970" points="291.0161,-26.774 284.2438,-18.6261 284.4569,-29.2188 291.0161,-26.774"/>
</g>
<!-- Node8 -->
<g id="node9" class="node">
<title>Node8</title>
<g id="a_node9"><a xlink:href="vmath_8h.html" target="_top" xlink:title="Vex Specific Math Functions, includes: Cartesian to polar cordinates. ">
<polygon fill="none" stroke="#000000" points="423.0566,-55.5 423.0566,-73.5 474.6279,-73.5 474.6279,-55.5 423.0566,-55.5"/>
<text text-anchor="middle" x="448.8423" y="-61.5" font-family="Helvetica,sans-Serif" font-size="10.00" fill="#000000">vmath.h</text>
</a>
</g>
</g>
<!-- Node7&#45;&gt;Node8 -->
<g id="edge11" class="edge">
<title>Node7&#45;&gt;Node8</title>
<path fill="none" stroke="#191970" d="M342.8138,-110.4179C363.4034,-101.5011 395.0334,-87.803 418.3917,-77.6873"/>
<polygon fill="#191970" stroke="#191970" points="420.0542,-80.7815 427.8397,-73.5956 417.2723,-74.358 420.0542,-80.7815"/>
</g>
<!-- Node8&#45;&gt;Node4 -->
<g id="edge12" class="edge">
<title>Node8&#45;&gt;Node4</title>
<path fill="none" stroke="#191970" d="M449.0074,-55.4179C449.1384,-48.2164 449.326,-37.8962 449.4902,-28.8632"/>
<polygon fill="#191970" stroke="#191970" points="452.9911,-28.8415 449.6736,-18.7795 445.9923,-28.7141 452.9911,-28.8415"/>
</g>
<!-- Node11&#45;&gt;Node3 -->
<g id="edge17" class="edge">
<title>Node11&#45;&gt;Node3</title>
<path fill="none" stroke="#191970" d="M35.4923,-110.474C60.0804,-97.3362 107.7413,-72.5972 149.8423,-55 183.9183,-40.757 224.1944,-27.2457 251.0043,-18.7035"/>
<polygon fill="#191970" stroke="#191970" points="252.0961,-22.0292 260.5791,-15.6818 249.9893,-15.3538 252.0961,-22.0292"/>
</g>
<!-- Node12 -->
<g id="node13" class="node">
<title>Node12</title>
<g id="a_node13"><a xlink:href="lcd_8h.html" target="_top" xlink:title="LCD wrapper functions and macros. ">
<polygon fill="none" stroke="#000000" points="159.2808,-55.5 159.2808,-73.5 196.4038,-73.5 196.4038,-55.5 159.2808,-55.5"/>
<text text-anchor="middle" x="177.8423" y="-61.5" font-family="Helvetica,sans-Serif" font-size="10.00" fill="#000000">lcd.h</text>
</a>
</g>
</g>
<!-- Node11&#45;&gt;Node12 -->
<g id="edge18" class="edge">
<title>Node11&#45;&gt;Node12</title>
<path fill="none" stroke="#191970" d="M37.7061,-112.9748C65.3186,-103.4233 116.9589,-85.5603 149.2528,-74.3894"/>
<polygon fill="#191970" stroke="#191970" points="150.6967,-77.5935 159.0031,-71.0167 148.4083,-70.9781 150.6967,-77.5935"/>
</g>
<!-- Node12&#45;&gt;Node3 -->
<g id="edge19" class="edge">
<title>Node12&#45;&gt;Node3</title>
<path fill="none" stroke="#191970" d="M194.8506,-55.4179C211.1766,-46.7001 236.0613,-33.4122 254.8677,-23.3699"/>
<polygon fill="#191970" stroke="#191970" points="256.6361,-26.3934 263.8087,-18.5956 253.3389,-20.2186 256.6361,-26.3934"/>
</g>
</g>
</svg>
