<?xml version="1.0" encoding="UTF-8" standalone="no"?>
<!DOCTYPE svg PUBLIC "-//W3C//DTD SVG 1.1//EN"
 "http://www.w3.org/Graphics/SVG/1.1/DTD/svg11.dtd">
<!-- Generated by graphviz version 2.40.1 (20161225.0304)
 -->
<!-- Title: update_claw Pages: 1 -->
<svg width="781pt" height="334pt"
 viewBox="0.00 0.00 781.21 334.39" xmlns="http://www.w3.org/2000/svg" xmlns:xlink="http://www.w3.org/1999/xlink">
<g id="graph0" class="graph" transform="scale(1 1) rotate(0) translate(4 330.3943)">
<title>update_claw</title>
<!-- Node63 -->
<g id="node1" class="node">
<title>Node63</title>
<polygon fill="#bfbfbf" stroke="#000000" points="0,-140.5 0,-158.5 72.1523,-158.5 72.1523,-140.5 0,-140.5"/>
<text text-anchor="middle" x="36.0762" y="-146.5" font-family="Helvetica,sans-Serif" font-size="10.00" fill="#000000">update_claw</text>
</g>
<!-- Node64 -->
<g id="node2" class="node">
<title>Node64</title>
<g id="a_node2"><a xlink:href="claw_8c.html#addd2004effae7c94400aed1fe6a90ead" target="_top" xlink:title="Gets the claw position in potentiometer ticks. ">
<polygon fill="none" stroke="#000000" points="116.9512,-177.5 116.9512,-195.5 192.043,-195.5 192.043,-177.5 116.9512,-177.5"/>
<text text-anchor="middle" x="154.4971" y="-183.5" font-family="Helvetica,sans-Serif" font-size="10.00" fill="#000000">getClawTicks</text>
</a>
</g>
</g>
<!-- Node63&#45;&gt;Node64 -->
<g id="edge1" class="edge">
<title>Node63&#45;&gt;Node64</title>
<path fill="none" stroke="#191970" d="M65.0452,-158.5512C80.242,-163.2994 99.0718,-169.1827 115.5296,-174.3248"/>
<polygon fill="#191970" stroke="#191970" points="114.8279,-177.7724 125.4167,-177.414 116.9156,-171.0909 114.8279,-177.7724"/>
</g>
<!-- Node66 -->
<g id="node4" class="node">
<title>Node66</title>
<g id="a_node4"><a xlink:href="_a_p_i_8h.html#a792f1a80c62a63e764cf64aabf95db92" target="_top" xlink:title="joystickGetDigital">
<polygon fill="none" stroke="#000000" points="108.1523,-140.5 108.1523,-158.5 200.8418,-158.5 200.8418,-140.5 108.1523,-140.5"/>
<text text-anchor="middle" x="154.4971" y="-146.5" font-family="Helvetica,sans-Serif" font-size="10.00" fill="#000000">joystickGetDigital</text>
</a>
</g>
</g>
<!-- Node63&#45;&gt;Node66 -->
<g id="edge3" class="edge">
<title>Node63&#45;&gt;Node66</title>
<path fill="none" stroke="#191970" d="M72.2498,-149.5C80.3653,-149.5 89.1647,-149.5 97.8887,-149.5"/>
<polygon fill="#191970" stroke="#191970" points="98.0498,-153.0001 108.0498,-149.5 98.0498,-146.0001 98.0498,-153.0001"/>
</g>
<!-- Node67 -->
<g id="node5" class="node">
<title>Node67</title>
<g id="a_node5"><a xlink:href="claw_8c.html#a3a57f998b1884d39b0cc786689f7086f" target="_top" xlink:title="sets the claw motor speed ">
<polygon fill="none" stroke="#000000" points="111.4824,-103.5 111.4824,-121.5 197.5117,-121.5 197.5117,-103.5 111.4824,-103.5"/>
<text text-anchor="middle" x="154.4971" y="-109.5" font-family="Helvetica,sans-Serif" font-size="10.00" fill="#000000">set_claw_motor</text>
</a>
</g>
</g>
<!-- Node63&#45;&gt;Node67 -->
<g id="edge4" class="edge">
<title>Node63&#45;&gt;Node67</title>
<path fill="none" stroke="#191970" d="M65.0452,-140.4488C80.242,-135.7006 99.0718,-129.8173 115.5296,-124.6752"/>
<polygon fill="#191970" stroke="#191970" points="116.9156,-127.9091 125.4167,-121.586 114.8279,-121.2276 116.9156,-127.9091"/>
</g>
<!-- Node65 -->
<g id="node3" class="node">
<title>Node65</title>
<g id="a_node3"><a xlink:href="_a_p_i_8h.html#a5da86064604c539c2b6a5e2993289108" target="_top" xlink:title="analogRead">
<polygon fill="none" stroke="#000000" points="257.9502,-177.5 257.9502,-195.5 327.8857,-195.5 327.8857,-177.5 257.9502,-177.5"/>
<text text-anchor="middle" x="292.918" y="-183.5" font-family="Helvetica,sans-Serif" font-size="10.00" fill="#000000">analogRead</text>
</a>
</g>
</g>
<!-- Node64&#45;&gt;Node65 -->
<g id="edge2" class="edge">
<title>Node64&#45;&gt;Node65</title>
<path fill="none" stroke="#191970" d="M192.3212,-186.5C209.3173,-186.5 229.5173,-186.5 247.3408,-186.5"/>
<polygon fill="#191970" stroke="#191970" points="247.5183,-190.0001 257.5182,-186.5 247.5182,-183.0001 247.5183,-190.0001"/>
</g>
<!-- Node68 -->
<g id="node6" class="node">
<title>Node68</title>
<g id="a_node6"><a xlink:href="slew_8h.html#a9f8b8ae577ef938622024545711f0151" target="_top" xlink:title="set_motor_immediate">
<polygon fill="none" stroke="#000000" points="236.8418,-103.5 236.8418,-121.5 348.9941,-121.5 348.9941,-103.5 236.8418,-103.5"/>
<text text-anchor="middle" x="292.918" y="-109.5" font-family="Helvetica,sans-Serif" font-size="10.00" fill="#000000">set_motor_immediate</text>
</a>
</g>
</g>
<!-- Node67&#45;&gt;Node68 -->
<g id="edge5" class="edge">
<title>Node67&#45;&gt;Node68</title>
<path fill="none" stroke="#191970" d="M197.5355,-112.5C206.7243,-112.5 216.6348,-112.5 226.4708,-112.5"/>
<polygon fill="#191970" stroke="#191970" points="226.6606,-116.0001 236.6605,-112.5 226.6605,-109.0001 226.6606,-116.0001"/>
</g>
<!-- Node69 -->
<g id="node7" class="node">
<title>Node69</title>
<g id="a_node7"><a xlink:href="log_8h.html#af3668f40d1ad1b4f3418869ac9a31f34" target="_top" xlink:title="prints a info message ">
<polygon fill="none" stroke="#000000" points="390.2651,-272.5 390.2651,-290.5 434.0728,-290.5 434.0728,-272.5 390.2651,-272.5"/>
<text text-anchor="middle" x="412.1689" y="-278.5" font-family="Helvetica,sans-Serif" font-size="10.00" fill="#000000">debug</text>
</a>
</g>
</g>
<!-- Node68&#45;&gt;Node69 -->
<g id="edge6" class="edge">
<title>Node68&#45;&gt;Node69</title>
<path fill="none" stroke="#191970" d="M303.7261,-121.6453C315.7236,-132.1493 335.2098,-150.2894 348.9941,-168.5 372.4032,-199.4259 392.9596,-240.0062 403.8719,-263.1716"/>
<polygon fill="#191970" stroke="#191970" points="400.8082,-264.8853 408.1826,-272.4924 407.1616,-261.9469 400.8082,-264.8853"/>
</g>
<!-- Node71 -->
<g id="node9" class="node">
<title>Node71</title>
<g id="a_node9"><a xlink:href="slew_8c.html#a321758941d88b75783955c819bb75005" target="_top" xlink:title="Initializes the slew rate controller. ">
<polygon fill="none" stroke="#000000" points="384.9941,-178.5 384.9941,-196.5 439.3438,-196.5 439.3438,-178.5 384.9941,-178.5"/>
<text text-anchor="middle" x="412.1689" y="-184.5" font-family="Helvetica,sans-Serif" font-size="10.00" fill="#000000">init_slew</text>
</a>
</g>
</g>
<!-- Node68&#45;&gt;Node71 -->
<g id="edge8" class="edge">
<title>Node68&#45;&gt;Node71</title>
<path fill="none" stroke="#191970" d="M307.5405,-121.6965C327.9455,-134.5297 365.1618,-157.936 389.2657,-173.0956"/>
<polygon fill="#191970" stroke="#191970" points="387.4709,-176.1014 397.7993,-178.4626 391.1977,-170.1759 387.4709,-176.1014"/>
</g>
<!-- Node81 -->
<g id="node19" class="node">
<title>Node81</title>
<g id="a_node19"><a xlink:href="_a_p_i_8h.html#a8b51124628d2a7741738d48551d1e8ee" target="_top" xlink:title="mutexTake">
<polygon fill="none" stroke="#000000" points="588.4912,-84.5 588.4912,-102.5 652.8457,-102.5 652.8457,-84.5 588.4912,-84.5"/>
<text text-anchor="middle" x="620.6685" y="-90.5" font-family="Helvetica,sans-Serif" font-size="10.00" fill="#000000">mutexTake</text>
</a>
</g>
</g>
<!-- Node68&#45;&gt;Node81 -->
<g id="edge24" class="edge">
<title>Node68&#45;&gt;Node81</title>
<path fill="none" stroke="#191970" d="M349.2603,-109.2338C414.3524,-105.4603 519.9701,-99.3376 578.4065,-95.95"/>
<polygon fill="#191970" stroke="#191970" points="578.6224,-99.4434 588.403,-95.3705 578.2172,-92.4552 578.6224,-99.4434"/>
</g>
<!-- Node82 -->
<g id="node20" class="node">
<title>Node82</title>
<g id="a_node20"><a xlink:href="_a_p_i_8h.html#afe171a08d22de18fc2ab604b2364959f" target="_top" xlink:title="mutexGive">
<polygon fill="none" stroke="#000000" points="588.772,-37.5 588.772,-55.5 652.5649,-55.5 652.5649,-37.5 588.772,-37.5"/>
<text text-anchor="middle" x="620.6685" y="-43.5" font-family="Helvetica,sans-Serif" font-size="10.00" fill="#000000">mutexGive</text>
</a>
</g>
</g>
<!-- Node68&#45;&gt;Node82 -->
<g id="edge25" class="edge">
<title>Node68&#45;&gt;Node82</title>
<path fill="none" stroke="#191970" d="M316.1025,-103.4974C350.3407,-90.6385 416.7088,-67.3681 475.3438,-56.5 509.6706,-50.1374 549.2346,-47.729 578.4058,-46.8603"/>
<polygon fill="#191970" stroke="#191970" points="578.744,-50.3531 588.6539,-46.6055 578.57,-43.3552 578.744,-50.3531"/>
</g>
<!-- Node83 -->
<g id="node21" class="node">
<title>Node83</title>
<g id="a_node21"><a xlink:href="_a_p_i_8h.html#a03c5b04b472d024281f62d7af8854a8e" target="_top" xlink:title="motorSet">
<polygon fill="none" stroke="#000000" points="592.3828,-.5 592.3828,-18.5 648.9541,-18.5 648.9541,-.5 592.3828,-.5"/>
<text text-anchor="middle" x="620.6685" y="-6.5" font-family="Helvetica,sans-Serif" font-size="10.00" fill="#000000">motorSet</text>
</a>
</g>
</g>
<!-- Node68&#45;&gt;Node83 -->
<g id="edge23" class="edge">
<title>Node68&#45;&gt;Node83</title>
<path fill="none" stroke="#191970" d="M305.6854,-103.4062C322.8916,-91.5708 354.8504,-71.0419 384.9941,-59.5 451.8127,-33.9154 534.5638,-20.1973 582.1197,-13.9107"/>
<polygon fill="#191970" stroke="#191970" points="582.8089,-17.3512 592.2837,-12.61 581.9202,-10.4078 582.8089,-17.3512"/>
</g>
<!-- Node70 -->
<g id="node8" class="node">
<title>Node70</title>
<g id="a_node8"><a xlink:href="_a_p_i_8h.html#a403c82418e475fa4a8273719e6a7f3e6" target="_top" xlink:title="printf">
<polygon fill="none" stroke="#000000" points="711.9146,-253.5 711.9146,-271.5 750.146,-271.5 750.146,-253.5 711.9146,-253.5"/>
<text text-anchor="middle" x="731.0303" y="-259.5" font-family="Helvetica,sans-Serif" font-size="10.00" fill="#000000">printf</text>
</a>
</g>
</g>
<!-- Node69&#45;&gt;Node70 -->
<g id="edge7" class="edge">
<title>Node69&#45;&gt;Node70</title>
<path fill="none" stroke="#191970" d="M422.9453,-290.5205C434.8795,-299.8695 455.118,-313.8857 475.3438,-319.5 559.0101,-342.7241 660.093,-299.6052 706.0803,-276.181"/>
<polygon fill="#191970" stroke="#191970" points="707.7833,-279.2403 715.0311,-271.5125 704.546,-273.0338 707.7833,-279.2403"/>
</g>
<!-- Node72 -->
<g id="node10" class="node">
<title>Node72</title>
<g id="a_node10"><a xlink:href="log_8h.html#a0bec2cf5fff7f607bc510b74aba9887c" target="_top" xlink:title="prints a warning message and displays on lcd. Only will print and display if log_level is greater tha...">
<polygon fill="none" stroke="#000000" points="488.4077,-215.5 488.4077,-233.5 539.4272,-233.5 539.4272,-215.5 488.4077,-215.5"/>
<text text-anchor="middle" x="513.9175" y="-221.5" font-family="Helvetica,sans-Serif" font-size="10.00" fill="#000000">warning</text>
</a>
</g>
</g>
<!-- Node71&#45;&gt;Node72 -->
<g id="edge9" class="edge">
<title>Node71&#45;&gt;Node72</title>
<path fill="none" stroke="#191970" d="M437.0594,-196.5512C449.7471,-201.165 465.3822,-206.8506 479.2308,-211.8865"/>
<polygon fill="#191970" stroke="#191970" points="478.3372,-215.2857 488.9313,-215.414 480.7295,-208.7072 478.3372,-215.2857"/>
</g>
<!-- Node76 -->
<g id="node14" class="node">
<title>Node76</title>
<g id="a_node14"><a xlink:href="_a_p_i_8h.html#a8966c541f3e9565aea1289f0d2f2cf43" target="_top" xlink:title="motorStopAll">
<polygon fill="none" stroke="#000000" points="477.2944,-178.5 477.2944,-196.5 550.5405,-196.5 550.5405,-178.5 477.2944,-178.5"/>
<text text-anchor="middle" x="513.9175" y="-184.5" font-family="Helvetica,sans-Serif" font-size="10.00" fill="#000000">motorStopAll</text>
</a>
</g>
</g>
<!-- Node71&#45;&gt;Node76 -->
<g id="edge14" class="edge">
<title>Node71&#45;&gt;Node76</title>
<path fill="none" stroke="#191970" d="M439.4357,-187.5C447.9086,-187.5 457.5041,-187.5 466.9214,-187.5"/>
<polygon fill="#191970" stroke="#191970" points="467.0086,-191.0001 477.0086,-187.5 467.0085,-184.0001 467.0086,-191.0001"/>
</g>
<!-- Node77 -->
<g id="node15" class="node">
<title>Node77</title>
<g id="a_node15"><a xlink:href="log_8h.html#a1606d750e1bb8de9f9e917172bba3382" target="_top" xlink:title="prints a info message ">
<polygon fill="none" stroke="#000000" points="604.6069,-253.5 604.6069,-271.5 636.73,-271.5 636.73,-253.5 604.6069,-253.5"/>
<text text-anchor="middle" x="620.6685" y="-259.5" font-family="Helvetica,sans-Serif" font-size="10.00" fill="#000000">info</text>
</a>
</g>
</g>
<!-- Node71&#45;&gt;Node77 -->
<g id="edge15" class="edge">
<title>Node71&#45;&gt;Node77</title>
<path fill="none" stroke="#191970" d="M419.578,-196.9149C430.3351,-209.8331 451.6044,-232.6805 475.3438,-243.5 514.1112,-261.1687 564.3345,-263.8528 594.444,-263.5953"/>
<polygon fill="#191970" stroke="#191970" points="594.6416,-267.0921 604.5685,-263.3897 594.4994,-260.0936 594.6416,-267.0921"/>
</g>
<!-- Node78 -->
<g id="node16" class="node">
<title>Node78</title>
<g id="a_node16"><a xlink:href="_a_p_i_8h.html#aecd027ce8f8b52a765735e9eb5b202b3" target="_top" xlink:title="mutexCreate">
<polygon fill="none" stroke="#000000" points="477.2944,-141.5 477.2944,-159.5 550.5405,-159.5 550.5405,-141.5 477.2944,-141.5"/>
<text text-anchor="middle" x="513.9175" y="-147.5" font-family="Helvetica,sans-Serif" font-size="10.00" fill="#000000">mutexCreate</text>
</a>
</g>
</g>
<!-- Node71&#45;&gt;Node78 -->
<g id="edge17" class="edge">
<title>Node71&#45;&gt;Node78</title>
<path fill="none" stroke="#191970" d="M437.0594,-178.4488C449.7471,-173.835 465.3822,-168.1494 479.2308,-163.1135"/>
<polygon fill="#191970" stroke="#191970" points="480.7295,-166.2928 488.9313,-159.586 478.3372,-159.7143 480.7295,-166.2928"/>
</g>
<!-- Node79 -->
<g id="node17" class="node">
<title>Node79</title>
<g id="a_node17"><a xlink:href="_a_p_i_8h.html#ab05a241d6d1fd98b1ceb4665db678156" target="_top" xlink:title="taskRunLoop">
<polygon fill="none" stroke="#000000" points="476.4521,-291.5 476.4521,-309.5 551.3828,-309.5 551.3828,-291.5 476.4521,-291.5"/>
<text text-anchor="middle" x="513.9175" y="-297.5" font-family="Helvetica,sans-Serif" font-size="10.00" fill="#000000">taskRunLoop</text>
</a>
</g>
</g>
<!-- Node71&#45;&gt;Node79 -->
<g id="edge18" class="edge">
<title>Node71&#45;&gt;Node79</title>
<path fill="none" stroke="#191970" d="M417.0724,-196.7314C426.5609,-213.9713 448.8496,-251.5676 475.3438,-276.5 478.9588,-279.9019 483.1278,-283.0817 487.3599,-285.943"/>
<polygon fill="#191970" stroke="#191970" points="485.6448,-288.9986 495.9781,-291.338 489.359,-283.0652 485.6448,-288.9986"/>
</g>
<!-- Node80 -->
<g id="node18" class="node">
<title>Node80</title>
<g id="a_node18"><a xlink:href="slew_8c.html#a807a87c5df438fde21c1e8213906695b" target="_top" xlink:title="Closes the distance between the desired motor value and the current motor value by half for each moto...">
<polygon fill="none" stroke="#000000" points="475.3438,-65.5 475.3438,-83.5 552.4912,-83.5 552.4912,-65.5 475.3438,-65.5"/>
<text text-anchor="middle" x="513.9175" y="-71.5" font-family="Helvetica,sans-Serif" font-size="10.00" fill="#000000">updateMotors</text>
</a>
</g>
</g>
<!-- Node71&#45;&gt;Node80 -->
<g id="edge19" class="edge">
<title>Node71&#45;&gt;Node80</title>
<path fill="none" stroke="#191970" d="M420.4955,-178.2527C437.6478,-159.2037 477.1304,-115.355 498.8746,-91.2064"/>
<polygon fill="#191970" stroke="#191970" points="501.6698,-93.3326 505.7603,-83.5592 496.4679,-88.6486 501.6698,-93.3326"/>
</g>
<!-- Node73 -->
<g id="node11" class="node">
<title>Node73</title>
<g id="a_node11"><a xlink:href="log_8c.html#afff22aff6749311a684a559cac3ac8bd" target="_top" xlink:title="log_info">
<polygon fill="none" stroke="#000000" points="595.1538,-216.5 595.1538,-234.5 646.1831,-234.5 646.1831,-216.5 595.1538,-216.5"/>
<text text-anchor="middle" x="620.6685" y="-222.5" font-family="Helvetica,sans-Serif" font-size="10.00" fill="#000000">log_info</text>
</a>
</g>
</g>
<!-- Node72&#45;&gt;Node73 -->
<g id="edge10" class="edge">
<title>Node72&#45;&gt;Node73</title>
<path fill="none" stroke="#191970" d="M539.487,-224.7395C552.9877,-224.866 569.7813,-225.0233 584.5852,-225.162"/>
<polygon fill="#191970" stroke="#191970" points="584.9052,-228.665 594.9376,-225.259 584.9709,-221.6653 584.9052,-228.665"/>
</g>
<!-- Node73&#45;&gt;Node70 -->
<g id="edge11" class="edge">
<title>Node73&#45;&gt;Node70</title>
<path fill="none" stroke="#191970" d="M646.2651,-234.0815C662.979,-239.6851 684.834,-247.0122 702.1661,-252.823"/>
<polygon fill="#191970" stroke="#191970" points="701.1813,-256.1842 711.7752,-256.0445 703.4064,-249.5473 701.1813,-256.1842"/>
</g>
<!-- Node74 -->
<g id="node12" class="node">
<title>Node74</title>
<g id="a_node12"><a xlink:href="_a_p_i_8h.html#aab53a247d88151a6623c20fa1ea940b0" target="_top" xlink:title="lcdSetBacklight">
<polygon fill="none" stroke="#000000" points="688.8457,-216.5 688.8457,-234.5 773.2148,-234.5 773.2148,-216.5 688.8457,-216.5"/>
<text text-anchor="middle" x="731.0303" y="-222.5" font-family="Helvetica,sans-Serif" font-size="10.00" fill="#000000">lcdSetBacklight</text>
</a>
</g>
</g>
<!-- Node73&#45;&gt;Node74 -->
<g id="edge12" class="edge">
<title>Node73&#45;&gt;Node74</title>
<path fill="none" stroke="#191970" d="M646.2651,-225.5C655.9179,-225.5 667.2856,-225.5 678.5064,-225.5"/>
<polygon fill="#191970" stroke="#191970" points="678.7166,-229.0001 688.7166,-225.5 678.7165,-222.0001 678.7166,-229.0001"/>
</g>
<!-- Node75 -->
<g id="node13" class="node">
<title>Node75</title>
<g id="a_node13"><a xlink:href="_a_p_i_8h.html#a5fa1d119fe3e836b5519f97eae7a1272" target="_top" xlink:title="lcdClear">
<polygon fill="none" stroke="#000000" points="704.6904,-179.5 704.6904,-197.5 757.3701,-197.5 757.3701,-179.5 704.6904,-179.5"/>
<text text-anchor="middle" x="731.0303" y="-185.5" font-family="Helvetica,sans-Serif" font-size="10.00" fill="#000000">lcdClear</text>
</a>
</g>
</g>
<!-- Node73&#45;&gt;Node75 -->
<g id="edge13" class="edge">
<title>Node73&#45;&gt;Node75</title>
<path fill="none" stroke="#191970" d="M646.2651,-216.9185C660.7135,-212.0745 679.0039,-205.9424 694.8931,-200.6154"/>
<polygon fill="#191970" stroke="#191970" points="696.0515,-203.9185 704.4203,-197.4213 693.8264,-197.2816 696.0515,-203.9185"/>
</g>
<!-- Node77&#45;&gt;Node70 -->
<g id="edge16" class="edge">
<title>Node77&#45;&gt;Node70</title>
<path fill="none" stroke="#191970" d="M636.9527,-262.5C653.9042,-262.5 680.82,-262.5 701.5272,-262.5"/>
<polygon fill="#191970" stroke="#191970" points="701.7042,-266.0001 711.7041,-262.5 701.7041,-259.0001 701.7042,-266.0001"/>
</g>
<!-- Node80&#45;&gt;Node81 -->
<g id="edge20" class="edge">
<title>Node80&#45;&gt;Node81</title>
<path fill="none" stroke="#191970" d="M552.759,-81.4132C561.066,-82.8917 569.8813,-84.4607 578.313,-85.9614"/>
<polygon fill="#191970" stroke="#191970" points="577.8891,-89.4409 588.3477,-87.7474 579.1157,-82.5492 577.8891,-89.4409"/>
</g>
<!-- Node80&#45;&gt;Node82 -->
<g id="edge21" class="edge">
<title>Node80&#45;&gt;Node82</title>
<path fill="none" stroke="#191970" d="M548.2818,-65.4865C557.9729,-62.9446 568.6259,-60.1504 578.7087,-57.5057"/>
<polygon fill="#191970" stroke="#191970" points="579.7599,-60.8485 588.5447,-54.9258 577.9838,-54.0775 579.7599,-60.8485"/>
</g>
<!-- Node80&#45;&gt;Node83 -->
<g id="edge22" class="edge">
<title>Node80&#45;&gt;Node83</title>
<path fill="none" stroke="#191970" d="M527.8019,-65.4439C542.6778,-55.8134 567.0471,-40.2437 588.4912,-27.5 590.5031,-26.3044 592.5967,-25.0831 594.7076,-23.8679"/>
<polygon fill="#191970" stroke="#191970" points="596.896,-26.6509 603.8729,-18.6776 593.4465,-20.5598 596.896,-26.6509"/>
</g>
</g>
</svg>
