<?xml version="1.0" encoding="UTF-8" standalone="no"?>
<!DOCTYPE svg PUBLIC "-//W3C//DTD SVG 1.1//EN"
 "http://www.w3.org/Graphics/SVG/1.1/DTD/svg11.dtd">
<!-- Generated by graphviz version 2.40.1 (20161225.0304)
 -->
<!-- Title: claw_release_cone Pages: 1 -->
<svg width="682pt" height="316pt"
 viewBox="0.00 0.00 681.98 316.00" xmlns="http://www.w3.org/2000/svg" xmlns:xlink="http://www.w3.org/1999/xlink">
<g id="graph0" class="graph" transform="scale(1 1) rotate(0) translate(4 312)">
<title>claw_release_cone</title>
<!-- Node22 -->
<g id="node1" class="node">
<title>Node22</title>
<polygon fill="#bfbfbf" stroke="#000000" points="0,-103.5 0,-121.5 101.6104,-121.5 101.6104,-103.5 0,-103.5"/>
<text text-anchor="middle" x="50.8052" y="-109.5" font-family="Helvetica,sans-Serif" font-size="10.00" fill="#000000">claw_release_cone</text>
</g>
<!-- Node23 -->
<g id="node2" class="node">
<title>Node23</title>
<g id="a_node2"><a xlink:href="slew_8h.html#a9f8b8ae577ef938622024545711f0151" target="_top" xlink:title="Sets the motor speed ignoring the slew controller. ">
<polygon fill="none" stroke="#000000" points="137.6104,-103.5 137.6104,-121.5 249.7627,-121.5 249.7627,-103.5 137.6104,-103.5"/>
<text text-anchor="middle" x="193.6865" y="-109.5" font-family="Helvetica,sans-Serif" font-size="10.00" fill="#000000">set_motor_immediate</text>
</a>
</g>
</g>
<!-- Node22&#45;&gt;Node23 -->
<g id="edge1" class="edge">
<title>Node22&#45;&gt;Node23</title>
<path fill="none" stroke="#191970" d="M101.985,-112.5C110.1827,-112.5 118.7684,-112.5 127.2591,-112.5"/>
<polygon fill="#191970" stroke="#191970" points="127.5365,-116.0001 137.5365,-112.5 127.5364,-109.0001 127.5365,-116.0001"/>
</g>
<!-- Node24 -->
<g id="node3" class="node">
<title>Node24</title>
<g id="a_node3"><a xlink:href="log_8h.html#af3668f40d1ad1b4f3418869ac9a31f34" target="_top" xlink:title="prints a info message ">
<polygon fill="none" stroke="#000000" points="291.0337,-243.5 291.0337,-261.5 334.8413,-261.5 334.8413,-243.5 291.0337,-243.5"/>
<text text-anchor="middle" x="312.9375" y="-249.5" font-family="Helvetica,sans-Serif" font-size="10.00" fill="#000000">debug</text>
</a>
</g>
</g>
<!-- Node23&#45;&gt;Node24 -->
<g id="edge2" class="edge">
<title>Node23&#45;&gt;Node24</title>
<path fill="none" stroke="#191970" d="M201.5109,-121.6858C221.2243,-144.8292 273.1638,-205.8059 298.5532,-235.6129"/>
<polygon fill="#191970" stroke="#191970" points="296.0905,-238.1193 305.2393,-243.4624 301.4193,-233.5802 296.0905,-238.1193"/>
</g>
<!-- Node26 -->
<g id="node5" class="node">
<title>Node26</title>
<g id="a_node5"><a xlink:href="slew_8c.html#a321758941d88b75783955c819bb75005" target="_top" xlink:title="Initializes the slew rate controller. ">
<polygon fill="none" stroke="#000000" points="285.7627,-159.5 285.7627,-177.5 340.1123,-177.5 340.1123,-159.5 285.7627,-159.5"/>
<text text-anchor="middle" x="312.9375" y="-165.5" font-family="Helvetica,sans-Serif" font-size="10.00" fill="#000000">init_slew</text>
</a>
</g>
</g>
<!-- Node23&#45;&gt;Node26 -->
<g id="edge4" class="edge">
<title>Node23&#45;&gt;Node26</title>
<path fill="none" stroke="#191970" d="M213.1117,-121.622C232.4286,-130.6932 262.2823,-144.7124 284.3134,-155.0582"/>
<polygon fill="#191970" stroke="#191970" points="282.9813,-158.2993 293.5207,-159.3819 285.9568,-151.9631 282.9813,-158.2993"/>
</g>
<!-- Node36 -->
<g id="node15" class="node">
<title>Node36</title>
<g id="a_node15"><a xlink:href="_a_p_i_8h.html#a8b51124628d2a7741738d48551d1e8ee" target="_top" xlink:title="Requests a mutex so that other tasks cannot simultaneously use the resource it guards. ">
<polygon fill="none" stroke="#000000" points="489.2598,-84.5 489.2598,-102.5 553.6143,-102.5 553.6143,-84.5 489.2598,-84.5"/>
<text text-anchor="middle" x="521.437" y="-90.5" font-family="Helvetica,sans-Serif" font-size="10.00" fill="#000000">mutexTake</text>
</a>
</g>
</g>
<!-- Node23&#45;&gt;Node36 -->
<g id="edge19" class="edge">
<title>Node23&#45;&gt;Node36</title>
<path fill="none" stroke="#191970" d="M250.0288,-109.2338C315.121,-105.4603 420.7386,-99.3376 479.175,-95.95"/>
<polygon fill="#191970" stroke="#191970" points="479.3909,-99.4434 489.1716,-95.3705 478.9858,-92.4552 479.3909,-99.4434"/>
</g>
<!-- Node37 -->
<g id="node16" class="node">
<title>Node37</title>
<g id="a_node16"><a xlink:href="_a_p_i_8h.html#afe171a08d22de18fc2ab604b2364959f" target="_top" xlink:title="Relinquishes a mutex so that other tasks can use the resource it guards. ">
<polygon fill="none" stroke="#000000" points="489.5405,-37.5 489.5405,-55.5 553.3335,-55.5 553.3335,-37.5 489.5405,-37.5"/>
<text text-anchor="middle" x="521.437" y="-43.5" font-family="Helvetica,sans-Serif" font-size="10.00" fill="#000000">mutexGive</text>
</a>
</g>
</g>
<!-- Node23&#45;&gt;Node37 -->
<g id="edge20" class="edge">
<title>Node23&#45;&gt;Node37</title>
<path fill="none" stroke="#191970" d="M216.871,-103.4974C251.1093,-90.6385 317.4774,-67.3681 376.1123,-56.5 410.4392,-50.1374 450.0032,-47.729 479.1744,-46.8603"/>
<polygon fill="#191970" stroke="#191970" points="479.5126,-50.3531 489.4225,-46.6055 479.3385,-43.3552 479.5126,-50.3531"/>
</g>
<!-- Node38 -->
<g id="node17" class="node">
<title>Node38</title>
<g id="a_node17"><a xlink:href="_a_p_i_8h.html#a03c5b04b472d024281f62d7af8854a8e" target="_top" xlink:title="Sets the speed of the specified motor channel. ">
<polygon fill="none" stroke="#000000" points="493.1514,-.5 493.1514,-18.5 549.7227,-18.5 549.7227,-.5 493.1514,-.5"/>
<text text-anchor="middle" x="521.437" y="-6.5" font-family="Helvetica,sans-Serif" font-size="10.00" fill="#000000">motorSet</text>
</a>
</g>
</g>
<!-- Node23&#45;&gt;Node38 -->
<g id="edge18" class="edge">
<title>Node23&#45;&gt;Node38</title>
<path fill="none" stroke="#191970" d="M206.454,-103.4062C223.6601,-91.5708 255.6189,-71.0419 285.7627,-59.5 352.5813,-33.9154 435.3324,-20.1973 482.8883,-13.9107"/>
<polygon fill="#191970" stroke="#191970" points="483.5774,-17.3512 493.0522,-12.61 482.6888,-10.4078 483.5774,-17.3512"/>
</g>
<!-- Node25 -->
<g id="node4" class="node">
<title>Node25</title>
<g id="a_node4"><a xlink:href="_a_p_i_8h.html#a403c82418e475fa4a8273719e6a7f3e6" target="_top" xlink:title="Prints the formatted string to the debug stream (the PC terminal). ">
<polygon fill="none" stroke="#000000" points="612.6831,-289.5 612.6831,-307.5 650.9146,-307.5 650.9146,-289.5 612.6831,-289.5"/>
<text text-anchor="middle" x="631.7988" y="-295.5" font-family="Helvetica,sans-Serif" font-size="10.00" fill="#000000">printf</text>
</a>
</g>
</g>
<!-- Node24&#45;&gt;Node25 -->
<g id="edge3" class="edge">
<title>Node24&#45;&gt;Node25</title>
<path fill="none" stroke="#191970" d="M329.2666,-261.6303C341.7026,-268.1082 359.4639,-276.3598 376.1123,-280.5 456.2079,-300.4185 554.4554,-300.9233 602.5102,-299.6896"/>
<polygon fill="#191970" stroke="#191970" points="602.6326,-303.1876 612.5225,-299.3875 602.4214,-296.1908 602.6326,-303.1876"/>
</g>
<!-- Node27 -->
<g id="node6" class="node">
<title>Node27</title>
<g id="a_node6"><a xlink:href="log_8h.html#a0bec2cf5fff7f607bc510b74aba9887c" target="_top" xlink:title="prints a warning message and displays on lcd. ">
<polygon fill="none" stroke="#000000" points="389.1763,-215.5 389.1763,-233.5 440.1958,-233.5 440.1958,-215.5 389.1763,-215.5"/>
<text text-anchor="middle" x="414.686" y="-221.5" font-family="Helvetica,sans-Serif" font-size="10.00" fill="#000000">warning</text>
</a>
</g>
</g>
<!-- Node26&#45;&gt;Node27 -->
<g id="edge5" class="edge">
<title>Node26&#45;&gt;Node27</title>
<path fill="none" stroke="#191970" d="M327.2419,-177.6936C339.8868,-185.6774 358.9383,-197.3602 376.1123,-206.5 378.9828,-208.0276 382.006,-209.5619 385.0447,-211.0553"/>
<polygon fill="#191970" stroke="#191970" points="383.5379,-214.2143 394.0699,-215.3659 386.5548,-207.8978 383.5379,-214.2143"/>
</g>
<!-- Node32 -->
<g id="node11" class="node">
<title>Node32</title>
<g id="a_node11"><a xlink:href="_a_p_i_8h.html#a8966c541f3e9565aea1289f0d2f2cf43" target="_top" xlink:title="Stops all motors; significantly faster than looping through all motor ports and calling motorSet(chan...">
<polygon fill="none" stroke="#000000" points="378.063,-178.5 378.063,-196.5 451.3091,-196.5 451.3091,-178.5 378.063,-178.5"/>
<text text-anchor="middle" x="414.686" y="-184.5" font-family="Helvetica,sans-Serif" font-size="10.00" fill="#000000">motorStopAll</text>
</a>
</g>
</g>
<!-- Node26&#45;&gt;Node32 -->
<g id="edge11" class="edge">
<title>Node26&#45;&gt;Node32</title>
<path fill="none" stroke="#191970" d="M340.2042,-173.5917C348.6772,-175.1738 358.2727,-176.9657 367.6899,-178.7242"/>
<polygon fill="#191970" stroke="#191970" points="367.3046,-182.2127 377.7771,-180.6078 368.5895,-175.3316 367.3046,-182.2127"/>
</g>
<!-- Node33 -->
<g id="node12" class="node">
<title>Node33</title>
<g id="a_node12"><a xlink:href="_a_p_i_8h.html#aecd027ce8f8b52a765735e9eb5b202b3" target="_top" xlink:title="Creates a mutex intended to allow only one task to use a resource at a time. ">
<polygon fill="none" stroke="#000000" points="378.063,-141.5 378.063,-159.5 451.3091,-159.5 451.3091,-141.5 378.063,-141.5"/>
<text text-anchor="middle" x="414.686" y="-147.5" font-family="Helvetica,sans-Serif" font-size="10.00" fill="#000000">mutexCreate</text>
</a>
</g>
</g>
<!-- Node26&#45;&gt;Node33 -->
<g id="edge12" class="edge">
<title>Node26&#45;&gt;Node33</title>
<path fill="none" stroke="#191970" d="M340.2042,-163.6763C348.6772,-162.1774 358.2727,-160.4799 367.6899,-158.8139"/>
<polygon fill="#191970" stroke="#191970" points="368.5398,-162.218 377.7771,-157.0294 367.3203,-155.325 368.5398,-162.218"/>
</g>
<!-- Node34 -->
<g id="node13" class="node">
<title>Node34</title>
<g id="a_node13"><a xlink:href="_a_p_i_8h.html#ab05a241d6d1fd98b1ceb4665db678156" target="_top" xlink:title="Starts a task which will periodically call the specified function. ">
<polygon fill="none" stroke="#000000" points="377.2207,-252.5 377.2207,-270.5 452.1514,-270.5 452.1514,-252.5 377.2207,-252.5"/>
<text text-anchor="middle" x="414.686" y="-258.5" font-family="Helvetica,sans-Serif" font-size="10.00" fill="#000000">taskRunLoop</text>
</a>
</g>
</g>
<!-- Node26&#45;&gt;Node34 -->
<g id="edge13" class="edge">
<title>Node26&#45;&gt;Node34</title>
<path fill="none" stroke="#191970" d="M318.8862,-177.9368C329.0156,-193.3771 350.9746,-224.2435 376.1123,-243.5 377.9236,-244.8875 379.8591,-246.2022 381.8624,-247.4414"/>
<polygon fill="#191970" stroke="#191970" points="380.4519,-250.6591 390.9056,-252.383 383.8086,-244.5164 380.4519,-250.6591"/>
</g>
<!-- Node35 -->
<g id="node14" class="node">
<title>Node35</title>
<g id="a_node14"><a xlink:href="slew_8c.html#a807a87c5df438fde21c1e8213906695b" target="_top" xlink:title="Closes the distance between the desired motor value and the current motor value by half for each moto...">
<polygon fill="none" stroke="#000000" points="376.1123,-65.5 376.1123,-83.5 453.2598,-83.5 453.2598,-65.5 376.1123,-65.5"/>
<text text-anchor="middle" x="414.686" y="-71.5" font-family="Helvetica,sans-Serif" font-size="10.00" fill="#000000">updateMotors</text>
</a>
</g>
</g>
<!-- Node26&#45;&gt;Node35 -->
<g id="edge14" class="edge">
<title>Node26&#45;&gt;Node35</title>
<path fill="none" stroke="#191970" d="M322.6936,-159.4869C339.8947,-143.5957 375.827,-110.3998 397.34,-90.525"/>
<polygon fill="#191970" stroke="#191970" points="399.8398,-92.9807 404.81,-83.6239 395.0897,-87.839 399.8398,-92.9807"/>
</g>
<!-- Node28 -->
<g id="node7" class="node">
<title>Node28</title>
<g id="a_node7"><a xlink:href="log_8c.html#afff22aff6749311a684a559cac3ac8bd" target="_top" xlink:title="prints a log info message to the lcd ">
<polygon fill="none" stroke="#000000" points="495.9224,-215.5 495.9224,-233.5 546.9517,-233.5 546.9517,-215.5 495.9224,-215.5"/>
<text text-anchor="middle" x="521.437" y="-221.5" font-family="Helvetica,sans-Serif" font-size="10.00" fill="#000000">log_info</text>
</a>
</g>
</g>
<!-- Node27&#45;&gt;Node28 -->
<g id="edge6" class="edge">
<title>Node27&#45;&gt;Node28</title>
<path fill="none" stroke="#191970" d="M440.2556,-224.5C453.7563,-224.5 470.5499,-224.5 485.3538,-224.5"/>
<polygon fill="#191970" stroke="#191970" points="485.7062,-228.0001 495.7061,-224.5 485.7061,-221.0001 485.7062,-228.0001"/>
</g>
<!-- Node28&#45;&gt;Node25 -->
<g id="edge7" class="edge">
<title>Node28&#45;&gt;Node25</title>
<path fill="none" stroke="#191970" d="M530.9278,-233.7998C543.5218,-245.7709 566.8299,-266.6722 589.6143,-280.5 593.8176,-283.051 598.4476,-285.4186 603.0538,-287.5429"/>
<polygon fill="#191970" stroke="#191970" points="601.7624,-290.7976 612.3311,-291.5424 604.5336,-284.3695 601.7624,-290.7976"/>
</g>
<!-- Node29 -->
<g id="node8" class="node">
<title>Node29</title>
<g id="a_node8"><a xlink:href="_a_p_i_8h.html#aab53a247d88151a6623c20fa1ea940b0" target="_top" xlink:title="Sets the specified LCD backlight to be on or off. ">
<polygon fill="none" stroke="#000000" points="589.6143,-252.5 589.6143,-270.5 673.9834,-270.5 673.9834,-252.5 589.6143,-252.5"/>
<text text-anchor="middle" x="631.7988" y="-258.5" font-family="Helvetica,sans-Serif" font-size="10.00" fill="#000000">lcdSetBacklight</text>
</a>
</g>
</g>
<!-- Node28&#45;&gt;Node29 -->
<g id="edge8" class="edge">
<title>Node28&#45;&gt;Node29</title>
<path fill="none" stroke="#191970" d="M547.0336,-233.0815C561.3766,-237.8902 579.5056,-243.9681 595.3133,-249.2678"/>
<polygon fill="#191970" stroke="#191970" points="594.2074,-252.5885 604.8013,-252.4488 596.4325,-245.9515 594.2074,-252.5885"/>
</g>
<!-- Node30 -->
<g id="node9" class="node">
<title>Node30</title>
<g id="a_node9"><a xlink:href="_a_p_i_8h.html#a5fa1d119fe3e836b5519f97eae7a1272" target="_top" xlink:title="Clears the LCD screen on the specified port. ">
<polygon fill="none" stroke="#000000" points="605.459,-215.5 605.459,-233.5 658.1387,-233.5 658.1387,-215.5 605.459,-215.5"/>
<text text-anchor="middle" x="631.7988" y="-221.5" font-family="Helvetica,sans-Serif" font-size="10.00" fill="#000000">lcdClear</text>
</a>
</g>
</g>
<!-- Node28&#45;&gt;Node30 -->
<g id="edge9" class="edge">
<title>Node28&#45;&gt;Node30</title>
<path fill="none" stroke="#191970" d="M547.0336,-224.5C561.2094,-224.5 579.0836,-224.5 594.7597,-224.5"/>
<polygon fill="#191970" stroke="#191970" points="595.1889,-228.0001 605.1888,-224.5 595.1888,-221.0001 595.1889,-228.0001"/>
</g>
<!-- Node31 -->
<g id="node10" class="node">
<title>Node31</title>
<g id="a_node10"><a xlink:href="_a_p_i_8h.html#a6cfad8271c6a566a2f51ca318f819a80" target="_top" xlink:title="Prints the formatted string to the attached LCD. ">
<polygon fill="none" stroke="#000000" points="607.1265,-178.5 607.1265,-196.5 656.4712,-196.5 656.4712,-178.5 607.1265,-178.5"/>
<text text-anchor="middle" x="631.7988" y="-184.5" font-family="Helvetica,sans-Serif" font-size="10.00" fill="#000000">lcdPrint</text>
</a>
</g>
</g>
<!-- Node28&#45;&gt;Node31 -->
<g id="edge10" class="edge">
<title>Node28&#45;&gt;Node31</title>
<path fill="none" stroke="#191970" d="M547.0336,-215.9185C562.0094,-210.8977 581.1126,-204.4931 597.3914,-199.0355"/>
<polygon fill="#191970" stroke="#191970" points="598.7314,-202.2777 607.1002,-195.7805 596.5063,-195.6408 598.7314,-202.2777"/>
</g>
<!-- Node35&#45;&gt;Node36 -->
<g id="edge15" class="edge">
<title>Node35&#45;&gt;Node36</title>
<path fill="none" stroke="#191970" d="M453.5276,-81.4132C461.8345,-82.8917 470.6499,-84.4607 479.0816,-85.9614"/>
<polygon fill="#191970" stroke="#191970" points="478.6576,-89.4409 489.1162,-87.7474 479.8843,-82.5492 478.6576,-89.4409"/>
</g>
<!-- Node35&#45;&gt;Node37 -->
<g id="edge16" class="edge">
<title>Node35&#45;&gt;Node37</title>
<path fill="none" stroke="#191970" d="M449.0503,-65.4865C458.7415,-62.9446 469.3944,-60.1504 479.4772,-57.5057"/>
<polygon fill="#191970" stroke="#191970" points="480.5284,-60.8485 489.3132,-54.9258 478.7524,-54.0775 480.5284,-60.8485"/>
</g>
<!-- Node35&#45;&gt;Node38 -->
<g id="edge17" class="edge">
<title>Node35&#45;&gt;Node38</title>
<path fill="none" stroke="#191970" d="M428.5705,-65.4439C443.4463,-55.8134 467.8157,-40.2437 489.2598,-27.5 491.2717,-26.3044 493.3652,-25.0831 495.4761,-23.8679"/>
<polygon fill="#191970" stroke="#191970" points="497.6645,-26.6509 504.6414,-18.6776 494.2151,-20.5598 497.6645,-26.6509"/>
</g>
</g>
</svg>
