<?xml version="1.0" encoding="UTF-8" standalone="no"?>
<!DOCTYPE svg PUBLIC "-//W3C//DTD SVG 1.1//EN"
 "http://www.w3.org/Graphics/SVG/1.1/DTD/svg11.dtd">
<!-- Generated by graphviz version 2.40.1 (20161225.0304)
 -->
<!-- Title: claw_grab_cone Pages: 1 -->
<svg width="484pt" height="64pt"
 viewBox="0.00 0.00 484.09 64.00" xmlns="http://www.w3.org/2000/svg" xmlns:xlink="http://www.w3.org/1999/xlink">
<g id="graph0" class="graph" transform="scale(1 1) rotate(0) translate(4 60)">
<title>claw_grab_cone</title>
<!-- Node17 -->
<g id="node1" class="node">
<title>Node17</title>
<polygon fill="#bfbfbf" stroke="#000000" points="0,-18.5 0,-36.5 88.8271,-36.5 88.8271,-18.5 0,-18.5"/>
<text text-anchor="middle" x="44.4136" y="-24.5" font-family="Helvetica,sans-Serif" font-size="10.00" fill="#000000">claw_grab_cone</text>
</g>
<!-- Node18 -->
<g id="node2" class="node">
<title>Node18</title>
<g id="a_node2"><a xlink:href="auto_8c.html#a3c7ca506bbc071fa740de13805b7f376" target="_top" xlink:title="Runs the user autonomous code. ">
<polygon fill="none" stroke="#000000" points="150.6768,-37.5 150.6768,-55.5 221.7158,-55.5 221.7158,-37.5 150.6768,-37.5"/>
<text text-anchor="middle" x="186.1963" y="-43.5" font-family="Helvetica,sans-Serif" font-size="10.00" fill="#000000">autonomous</text>
</a>
</g>
</g>
<!-- Node17&#45;&gt;Node18 -->
<g id="edge1" class="edge">
<title>Node17&#45;&gt;Node18</title>
<path fill="none" stroke="#191970" d="M98.8646,-34.7969C116.1405,-37.112 134.795,-39.6118 150.4099,-41.7043"/>
<polygon fill="#191970" stroke="#191970" points="99.2618,-31.3189 88.8855,-33.4596 98.332,-38.2569 99.2618,-31.3189"/>
</g>
<!-- Node19 -->
<g id="node3" class="node">
<title>Node19</title>
<g id="a_node3"><a xlink:href="lifter_8c.html#ac59fe6ffc80bab7f117ec0a8e482277b" target="_top" xlink:title="secondary_lifter_update">
<polygon fill="none" stroke="#000000" points="124.8271,-.5 124.8271,-18.5 247.5654,-18.5 247.5654,-.5 124.8271,-.5"/>
<text text-anchor="middle" x="186.1963" y="-6.5" font-family="Helvetica,sans-Serif" font-size="10.00" fill="#000000">secondary_lifter_update</text>
</a>
</g>
</g>
<!-- Node17&#45;&gt;Node19 -->
<g id="edge2" class="edge">
<title>Node17&#45;&gt;Node19</title>
<path fill="none" stroke="#191970" d="M98.9758,-20.5731C107.4088,-19.5024 116.1679,-18.3904 124.7396,-17.3022"/>
<polygon fill="#191970" stroke="#191970" points="98.365,-17.1224 88.8855,-21.8541 99.2467,-24.0667 98.365,-17.1224"/>
</g>
<!-- Node20 -->
<g id="node4" class="node">
<title>Node20</title>
<g id="a_node4"><a xlink:href="lifter_8c.html#a59bb7413777ca16aba124aaedf95c79b" target="_top" xlink:title="Updates the lifter in teleop. ">
<polygon fill="none" stroke="#000000" points="283.5654,-.5 283.5654,-18.5 354.6045,-18.5 354.6045,-.5 283.5654,-.5"/>
<text text-anchor="middle" x="319.085" y="-6.5" font-family="Helvetica,sans-Serif" font-size="10.00" fill="#000000">update_lifter</text>
</a>
</g>
</g>
<!-- Node19&#45;&gt;Node20 -->
<g id="edge3" class="edge">
<title>Node19&#45;&gt;Node20</title>
<path fill="none" stroke="#191970" d="M257.6427,-9.5C266.5372,-9.5 275.3114,-9.5 283.323,-9.5"/>
<polygon fill="#191970" stroke="#191970" points="257.5838,-6.0001 247.5838,-9.5 257.5838,-13.0001 257.5838,-6.0001"/>
</g>
<!-- Node21 -->
<g id="node5" class="node">
<title>Node21</title>
<g id="a_node5"><a xlink:href="opcontrol_8c.html#ac71a94af413917f27d108e95c4d6f6a7" target="_top" xlink:title="Runs the user operator control code. ">
<polygon fill="none" stroke="#000000" points="390.6045,-.5 390.6045,-18.5 476.0869,-18.5 476.0869,-.5 390.6045,-.5"/>
<text text-anchor="middle" x="433.3457" y="-6.5" font-family="Helvetica,sans-Serif" font-size="10.00" fill="#000000">operatorControl</text>
</a>
</g>
</g>
<!-- Node20&#45;&gt;Node21 -->
<g id="edge4" class="edge">
<title>Node20&#45;&gt;Node21</title>
<path fill="none" stroke="#191970" d="M364.6603,-9.5C373.0835,-9.5 381.8564,-9.5 390.2046,-9.5"/>
<polygon fill="#191970" stroke="#191970" points="364.6115,-6.0001 354.6114,-9.5 364.6114,-13.0001 364.6115,-6.0001"/>
</g>
</g>
</svg>
