<?xml version="1.0" encoding="UTF-8" standalone="no"?>
<!DOCTYPE svg PUBLIC "-//W3C//DTD SVG 1.1//EN"
 "http://www.w3.org/Graphics/SVG/1.1/DTD/svg11.dtd">
<!-- Generated by graphviz version 2.40.1 (20161225.0304)
 -->
<!-- Title: include/controller.h Pages: 1 -->
<svg width="936pt" height="312pt"
 viewBox="0.00 0.00 936.41 312.00" xmlns="http://www.w3.org/2000/svg" xmlns:xlink="http://www.w3.org/1999/xlink">
<g id="graph0" class="graph" transform="scale(1 1) rotate(0) translate(4 308)">
<title>include/controller.h</title>
<!-- Node4 -->
<g id="node1" class="node">
<title>Node4</title>
<polygon fill="#bfbfbf" stroke="#000000" points="466.4831,-285.5 466.4831,-303.5 565.8718,-303.5 565.8718,-285.5 466.4831,-285.5"/>
<text text-anchor="middle" x="516.1775" y="-291.5" font-family="Helvetica,sans-Serif" font-size="10.00" fill="#000000">include/controller.h</text>
</g>
<!-- Node5 -->
<g id="node2" class="node">
<title>Node5</title>
<g id="a_node2"><a xlink:href="claw_8h.html" target="_top" xlink:title="Code for controlling the claw that grabs the cones. ">
<polygon fill="none" stroke="#000000" points="477.0447,-225.5 477.0447,-243.5 555.3103,-243.5 555.3103,-225.5 477.0447,-225.5"/>
<text text-anchor="middle" x="516.1775" y="-231.5" font-family="Helvetica,sans-Serif" font-size="10.00" fill="#000000">include/claw.h</text>
</a>
</g>
</g>
<!-- Node4&#45;&gt;Node5 -->
<g id="edge1" class="edge">
<title>Node4&#45;&gt;Node5</title>
<path fill="none" stroke="#191970" d="M516.1775,-275.3734C516.1775,-264.7812 516.1775,-252.0976 516.1775,-243.6985"/>
<polygon fill="#191970" stroke="#191970" points="512.6776,-275.3873 516.1775,-285.3873 519.6776,-275.3873 512.6776,-275.3873"/>
</g>
<!-- Node10 -->
<g id="node7" class="node">
<title>Node10</title>
<g id="a_node7"><a xlink:href="partner_8h.html" target="_top" xlink:title="include/partner.h">
<polygon fill="none" stroke="#000000" points="107.2048,-225.5 107.2048,-243.5 197.1501,-243.5 197.1501,-225.5 107.2048,-225.5"/>
<text text-anchor="middle" x="152.1775" y="-231.5" font-family="Helvetica,sans-Serif" font-size="10.00" fill="#000000">include/partner.h</text>
</a>
</g>
</g>
<!-- Node4&#45;&gt;Node10 -->
<g id="edge6" class="edge">
<title>Node4&#45;&gt;Node10</title>
<path fill="none" stroke="#191970" d="M456.4082,-284.6479C383.7573,-272.6725 262.7892,-252.7327 197.4206,-241.9577"/>
<polygon fill="#191970" stroke="#191970" points="455.8919,-288.11 466.3281,-286.2831 457.0305,-281.2032 455.8919,-288.11"/>
</g>
<!-- Node12 -->
<g id="node9" class="node">
<title>Node12</title>
<g id="a_node9"><a xlink:href="lifter_8h.html" target="_top" xlink:title="Declarations and macros for controlling and manipulating the lifter. ">
<polygon fill="none" stroke="#000000" points="113.6013,-110.5 113.6013,-128.5 190.7537,-128.5 190.7537,-110.5 113.6013,-110.5"/>
<text text-anchor="middle" x="152.1775" y="-116.5" font-family="Helvetica,sans-Serif" font-size="10.00" fill="#000000">include/lifter.h</text>
</a>
</g>
</g>
<!-- Node4&#45;&gt;Node12 -->
<g id="edge19" class="edge">
<title>Node4&#45;&gt;Node12</title>
<path fill="none" stroke="#191970" d="M455.9756,-291.5919C356.4572,-286.1782 162.2605,-272.8805 98.1775,-249 50.5816,-231.2634 27.7634,-228.9851 4.1775,-184 -19.0545,-139.6901 62.0658,-125.8132 113.3108,-121.472"/>
<polygon fill="#191970" stroke="#191970" points="456.0029,-295.0983 466.1755,-292.1371 456.3767,-288.1082 456.0029,-295.0983"/>
</g>
<!-- Node15 -->
<g id="node12" class="node">
<title>Node15</title>
<g id="a_node12"><a xlink:href="drive_8c.html" target="_top" xlink:title="src/drive.c">
<polygon fill="none" stroke="#000000" points="350.3967,-110.5 350.3967,-128.5 411.9582,-128.5 411.9582,-110.5 350.3967,-110.5"/>
<text text-anchor="middle" x="381.1775" y="-116.5" font-family="Helvetica,sans-Serif" font-size="10.00" fill="#000000">src/drive.c</text>
</a>
</g>
</g>
<!-- Node4&#45;&gt;Node15 -->
<g id="edge33" class="edge">
<title>Node4&#45;&gt;Node15</title>
<path fill="none" stroke="#191970" d="M497.6146,-278.6657C488.2978,-270.2939 477.1221,-259.5797 468.1775,-249 432.8539,-207.219 399.1075,-150.7444 386.4424,-128.7782"/>
<polygon fill="#191970" stroke="#191970" points="495.4009,-281.3799 505.2208,-285.3575 500.0247,-276.1243 495.4009,-281.3799"/>
</g>
<!-- Node18 -->
<g id="node15" class="node">
<title>Node18</title>
<g id="a_node15"><a xlink:href="mobile__goal__intake_8h.html" target="_top" xlink:title="include/mobile_goal\l_intake.h">
<polygon fill="none" stroke="#000000" points="269.9807,-220.5 269.9807,-248.5 374.3743,-248.5 374.3743,-220.5 269.9807,-220.5"/>
<text text-anchor="start" x="277.9807" y="-236.5" font-family="Helvetica,sans-Serif" font-size="10.00" fill="#000000">include/mobile_goal</text>
<text text-anchor="middle" x="322.1775" y="-226.5" font-family="Helvetica,sans-Serif" font-size="10.00" fill="#000000">_intake.h</text>
</a>
</g>
</g>
<!-- Node4&#45;&gt;Node18 -->
<g id="edge20" class="edge">
<title>Node4&#45;&gt;Node18</title>
<path fill="none" stroke="#191970" d="M476.9124,-282.3562C445.2336,-272.5586 400.6392,-258.7665 367.4572,-248.504"/>
<polygon fill="#191970" stroke="#191970" points="476.1254,-285.7763 486.7131,-285.3873 478.1937,-279.0888 476.1254,-285.7763"/>
</g>
<!-- Node19 -->
<g id="node16" class="node">
<title>Node19</title>
<g id="a_node16"><a xlink:href="routines_8h.html" target="_top" xlink:title="include/routines.h">
<polygon fill="none" stroke="#000000" points="735.9856,-225.5 735.9856,-243.5 830.3694,-243.5 830.3694,-225.5 735.9856,-225.5"/>
<text text-anchor="middle" x="783.1775" y="-231.5" font-family="Helvetica,sans-Serif" font-size="10.00" fill="#000000">include/routines.h</text>
</a>
</g>
</g>
<!-- Node4&#45;&gt;Node19 -->
<g id="edge24" class="edge">
<title>Node4&#45;&gt;Node19</title>
<path fill="none" stroke="#191970" d="M567.9657,-283.3014C609.6561,-274.2285 669.7388,-261.0228 722.1775,-249 729.7106,-247.2728 737.7573,-245.3884 745.4533,-243.5667"/>
<polygon fill="#191970" stroke="#191970" points="567.0713,-279.914 558.043,-285.4584 568.5583,-286.7543 567.0713,-279.914"/>
</g>
<!-- Node20 -->
<g id="node17" class="node">
<title>Node20</title>
<g id="a_node17"><a xlink:href="routines_8c.html" target="_top" xlink:title="src/routines.c">
<polygon fill="none" stroke="#000000" points="745.446,-165.5 745.446,-183.5 820.9089,-183.5 820.9089,-165.5 745.446,-165.5"/>
<text text-anchor="middle" x="783.1775" y="-171.5" font-family="Helvetica,sans-Serif" font-size="10.00" fill="#000000">src/routines.c</text>
</a>
</g>
</g>
<!-- Node4&#45;&gt;Node20 -->
<g id="edge34" class="edge">
<title>Node4&#45;&gt;Node20</title>
<path fill="none" stroke="#191970" d="M576.1107,-285.0641C610.4561,-278.1319 653.6571,-266.7617 689.1775,-249 693.8104,-246.6834 748.0413,-202.9508 771.9614,-183.5909"/>
<polygon fill="#191970" stroke="#191970" points="575.3622,-281.644 566.2145,-286.9891 576.6989,-288.5152 575.3622,-281.644"/>
</g>
<!-- Node21 -->
<g id="node18" class="node">
<title>Node21</title>
<g id="a_node18"><a xlink:href="toggle_8h.html" target="_top" xlink:title="include/toggle.h">
<polygon fill="none" stroke="#000000" points="594.1506,-225.5 594.1506,-243.5 680.2043,-243.5 680.2043,-225.5 594.1506,-225.5"/>
<text text-anchor="middle" x="637.1775" y="-231.5" font-family="Helvetica,sans-Serif" font-size="10.00" fill="#000000">include/toggle.h</text>
</a>
</g>
</g>
<!-- Node4&#45;&gt;Node21 -->
<g id="edge27" class="edge">
<title>Node4&#45;&gt;Node21</title>
<path fill="none" stroke="#191970" d="M543.8179,-280.794C566.8847,-269.3559 599.0997,-253.3815 619.0237,-243.5019"/>
<polygon fill="#191970" stroke="#191970" points="541.9589,-277.8091 534.5548,-285.3873 545.0687,-284.0804 541.9589,-277.8091"/>
</g>
<!-- Node23 -->
<g id="node20" class="node">
<title>Node23</title>
<g id="a_node20"><a xlink:href="controller_8c.html" target="_top" xlink:title="src/controller.c">
<polygon fill="none" stroke="#000000" points="847.9436,-225.5 847.9436,-243.5 928.4114,-243.5 928.4114,-225.5 847.9436,-225.5"/>
<text text-anchor="middle" x="888.1775" y="-231.5" font-family="Helvetica,sans-Serif" font-size="10.00" fill="#000000">src/controller.c</text>
</a>
</g>
</g>
<!-- Node4&#45;&gt;Node23 -->
<g id="edge32" class="edge">
<title>Node4&#45;&gt;Node23</title>
<path fill="none" stroke="#191970" d="M576.2036,-288.7276C641.4151,-281.8346 748.4318,-268.7051 839.1775,-249 846.1131,-247.4939 853.4991,-245.5132 860.3768,-243.5014"/>
<polygon fill="#191970" stroke="#191970" points="575.6885,-285.2622 566.1054,-289.7804 576.4144,-292.2245 575.6885,-285.2622"/>
</g>
<!-- Node6 -->
<g id="node3" class="node">
<title>Node6</title>
<g id="a_node3"><a xlink:href="auto_8h.html" target="_top" xlink:title="Autonomous declarations and macros. ">
<polygon fill="none" stroke="#000000" points="233.0422,-55.5 233.0422,-73.5 311.3127,-73.5 311.3127,-55.5 233.0422,-55.5"/>
<text text-anchor="middle" x="272.1775" y="-61.5" font-family="Helvetica,sans-Serif" font-size="10.00" fill="#000000">include/auto.h</text>
</a>
</g>
</g>
<!-- Node5&#45;&gt;Node6 -->
<g id="edge2" class="edge">
<title>Node5&#45;&gt;Node6</title>
<path fill="none" stroke="#191970" d="M507.083,-216.2882C492.6038,-189.1354 461.7519,-138.2186 421.1775,-110 388.203,-87.0669 343.3469,-75.4295 311.4894,-69.6997"/>
<polygon fill="#191970" stroke="#191970" points="504.1118,-218.1621 511.8168,-225.4343 510.3285,-214.9445 504.1118,-218.1621"/>
</g>
<!-- Node8 -->
<g id="node5" class="node">
<title>Node8</title>
<g id="a_node5"><a xlink:href="claw_8c.html" target="_top" xlink:title="src/claw.c">
<polygon fill="none" stroke="#000000" points="544.5051,-165.5 544.5051,-183.5 603.8498,-183.5 603.8498,-165.5 544.5051,-165.5"/>
<text text-anchor="middle" x="574.1775" y="-171.5" font-family="Helvetica,sans-Serif" font-size="10.00" fill="#000000">src/claw.c</text>
</a>
</g>
</g>
<!-- Node5&#45;&gt;Node8 -->
<g id="edge4" class="edge">
<title>Node5&#45;&gt;Node8</title>
<path fill="none" stroke="#191970" d="M532.1265,-218.0011C542.8113,-206.9478 556.4827,-192.8049 565.2856,-183.6985"/>
<polygon fill="#191970" stroke="#191970" points="529.4202,-215.7648 524.9864,-225.3873 534.4532,-220.63 529.4202,-215.7648"/>
</g>
<!-- Node9 -->
<g id="node6" class="node">
<title>Node9</title>
<g id="a_node6"><a xlink:href="opcontrol_8c.html" target="_top" xlink:title="File for operator control code. ">
<polygon fill="none" stroke="#000000" points="437.6653,-55.5 437.6653,-73.5 518.6897,-73.5 518.6897,-55.5 437.6653,-55.5"/>
<text text-anchor="middle" x="478.1775" y="-61.5" font-family="Helvetica,sans-Serif" font-size="10.00" fill="#000000">src/opcontrol.c</text>
</a>
</g>
</g>
<!-- Node5&#45;&gt;Node9 -->
<g id="edge5" class="edge">
<title>Node5&#45;&gt;Node9</title>
<path fill="none" stroke="#191970" d="M513.1275,-215.2302C509.0839,-190.6418 501.3764,-146.8759 492.1775,-110 489.0168,-97.3299 484.4247,-82.9676 481.3721,-73.8282"/>
<polygon fill="#191970" stroke="#191970" points="509.7147,-216.0519 514.7643,-225.3659 516.6252,-214.9358 509.7147,-216.0519"/>
</g>
<!-- Node7 -->
<g id="node4" class="node">
<title>Node7</title>
<g id="a_node4"><a xlink:href="auto_8c.html" target="_top" xlink:title="File for autonomous code. ">
<polygon fill="none" stroke="#000000" points="242.5027,-.5 242.5027,-18.5 301.8523,-18.5 301.8523,-.5 242.5027,-.5"/>
<text text-anchor="middle" x="272.1775" y="-6.5" font-family="Helvetica,sans-Serif" font-size="10.00" fill="#000000">src/auto.c</text>
</a>
</g>
</g>
<!-- Node6&#45;&gt;Node7 -->
<g id="edge3" class="edge">
<title>Node6&#45;&gt;Node7</title>
<path fill="none" stroke="#191970" d="M272.1775,-45.383C272.1775,-36.3738 272.1775,-26.0373 272.1775,-18.7795"/>
<polygon fill="#191970" stroke="#191970" points="268.6776,-45.4178 272.1775,-55.4179 275.6776,-45.4179 268.6776,-45.4178"/>
</g>
<!-- Node11 -->
<g id="node8" class="node">
<title>Node11</title>
<g id="a_node8"><a xlink:href="drive_8h.html" target="_top" xlink:title="Drive base definitions and enumerations. ">
<polygon fill="none" stroke="#000000" points="111.9363,-165.5 111.9363,-183.5 192.4187,-183.5 192.4187,-165.5 111.9363,-165.5"/>
<text text-anchor="middle" x="152.1775" y="-171.5" font-family="Helvetica,sans-Serif" font-size="10.00" fill="#000000">include/drive.h</text>
</a>
</g>
</g>
<!-- Node10&#45;&gt;Node11 -->
<g id="edge7" class="edge">
<title>Node10&#45;&gt;Node11</title>
<path fill="none" stroke="#191970" d="M152.1775,-215.3734C152.1775,-204.7812 152.1775,-192.0976 152.1775,-183.6985"/>
<polygon fill="#191970" stroke="#191970" points="148.6776,-215.3873 152.1775,-225.3873 155.6776,-215.3873 148.6776,-215.3873"/>
</g>
<!-- Node10&#45;&gt;Node12 -->
<g id="edge16" class="edge">
<title>Node10&#45;&gt;Node12</title>
<path fill="none" stroke="#191970" d="M97.0584,-227.1732C48.1026,-218.2495 -12.0807,-199.8449 13.1775,-165 25.1368,-148.5016 76.737,-134.8059 113.5713,-126.8837"/>
<polygon fill="#191970" stroke="#191970" points="96.5358,-230.6347 106.9851,-228.8848 97.7253,-223.7365 96.5358,-230.6347"/>
</g>
<!-- Node16 -->
<g id="node13" class="node">
<title>Node16</title>
<g id="a_node13"><a xlink:href="mobile__goal__intake_8c.html" target="_top" xlink:title="src/mobile_goal_intake.c">
<polygon fill="none" stroke="#000000" points="210.1482,-165.5 210.1482,-183.5 336.2068,-183.5 336.2068,-165.5 210.1482,-165.5"/>
<text text-anchor="middle" x="273.1775" y="-171.5" font-family="Helvetica,sans-Serif" font-size="10.00" fill="#000000">src/mobile_goal_intake.c</text>
</a>
</g>
</g>
<!-- Node10&#45;&gt;Node16 -->
<g id="edge17" class="edge">
<title>Node10&#45;&gt;Node16</title>
<path fill="none" stroke="#191970" d="M179.8179,-220.794C202.8847,-209.3559 235.0997,-193.3815 255.0237,-183.5019"/>
<polygon fill="#191970" stroke="#191970" points="177.9589,-217.8091 170.5548,-225.3873 181.0687,-224.0804 177.9589,-217.8091"/>
</g>
<!-- Node17 -->
<g id="node14" class="node">
<title>Node17</title>
<g id="a_node14"><a xlink:href="partner_8c.html" target="_top" xlink:title="src/partner.c">
<polygon fill="none" stroke="#000000" points="22.6653,-165.5 22.6653,-183.5 93.6897,-183.5 93.6897,-165.5 22.6653,-165.5"/>
<text text-anchor="middle" x="58.1775" y="-171.5" font-family="Helvetica,sans-Serif" font-size="10.00" fill="#000000">src/partner.c</text>
</a>
</g>
</g>
<!-- Node10&#45;&gt;Node17 -->
<g id="edge18" class="edge">
<title>Node10&#45;&gt;Node17</title>
<path fill="none" stroke="#191970" d="M129.2498,-219.8653C111.4513,-208.5045 87.344,-193.1169 72.2804,-183.5019"/>
<polygon fill="#191970" stroke="#191970" points="127.5885,-222.9571 137.9009,-225.3873 131.3548,-217.0567 127.5885,-222.9571"/>
</g>
<!-- Node11&#45;&gt;Node6 -->
<g id="edge8" class="edge">
<title>Node11&#45;&gt;Node6</title>
<path fill="none" stroke="#191970" d="M169.4618,-158.6561C194.9499,-135.292 241.7993,-92.3466 262.2217,-73.6261"/>
<polygon fill="#191970" stroke="#191970" points="167.0041,-156.1609 161.9976,-165.4982 171.7342,-161.321 167.0041,-156.1609"/>
</g>
<!-- Node11&#45;&gt;Node9 -->
<g id="edge15" class="edge">
<title>Node11&#45;&gt;Node9</title>
<path fill="none" stroke="#191970" d="M188.0424,-162.1624C226.0359,-149.1156 287.7892,-127.9751 341.1775,-110 379.062,-97.2448 422.9205,-82.7212 450.6026,-73.5843"/>
<polygon fill="#191970" stroke="#191970" points="186.7693,-158.8989 178.449,-165.4582 189.0437,-165.5192 186.7693,-158.8989"/>
</g>
<!-- Node11&#45;&gt;Node12 -->
<g id="edge9" class="edge">
<title>Node11&#45;&gt;Node12</title>
<path fill="none" stroke="#191970" d="M152.1775,-155.383C152.1775,-146.3738 152.1775,-136.0373 152.1775,-128.7795"/>
<polygon fill="#191970" stroke="#191970" points="148.6776,-155.4178 152.1775,-165.4179 155.6776,-155.4179 148.6776,-155.4178"/>
</g>
<!-- Node11&#45;&gt;Node15 -->
<g id="edge14" class="edge">
<title>Node11&#45;&gt;Node15</title>
<path fill="none" stroke="#191970" d="M199.5962,-163.1112C244.7776,-152.2598 311.4856,-136.2382 350.2159,-126.9362"/>
<polygon fill="#191970" stroke="#191970" points="198.6418,-159.7408 189.7357,-165.4795 200.2766,-166.5473 198.6418,-159.7408"/>
</g>
<!-- Node12&#45;&gt;Node6 -->
<g id="edge10" class="edge">
<title>Node12&#45;&gt;Node6</title>
<path fill="none" stroke="#191970" d="M181.2123,-106.1924C203.2459,-96.0937 232.9541,-82.4774 252.3325,-73.5956"/>
<polygon fill="#191970" stroke="#191970" points="179.6254,-103.0695 171.993,-110.4179 182.542,-109.433 179.6254,-103.0695"/>
</g>
<!-- Node12&#45;&gt;Node9 -->
<g id="edge13" class="edge">
<title>Node12&#45;&gt;Node9</title>
<path fill="none" stroke="#191970" d="M200.7524,-111.3048C265.0888,-100.4505 377.4134,-81.5001 437.5074,-71.3615"/>
<polygon fill="#191970" stroke="#191970" points="200.1325,-107.8599 190.8541,-112.9748 201.2971,-114.7623 200.1325,-107.8599"/>
</g>
<!-- Node13 -->
<g id="node10" class="node">
<title>Node13</title>
<g id="a_node10"><a xlink:href="init_8c.html" target="_top" xlink:title="File for initialization code. ">
<polygon fill="none" stroke="#000000" points="138.8425,-55.5 138.8425,-73.5 191.5124,-73.5 191.5124,-55.5 138.8425,-55.5"/>
<text text-anchor="middle" x="165.1775" y="-61.5" font-family="Helvetica,sans-Serif" font-size="10.00" fill="#000000">src/init.c</text>
</a>
</g>
</g>
<!-- Node12&#45;&gt;Node13 -->
<g id="edge11" class="edge">
<title>Node12&#45;&gt;Node13</title>
<path fill="none" stroke="#191970" d="M156.6259,-100.6796C158.7717,-91.6014 161.2498,-81.1171 162.9842,-73.7795"/>
<polygon fill="#191970" stroke="#191970" points="153.2184,-99.8809 154.3242,-110.4179 160.0306,-101.4911 153.2184,-99.8809"/>
</g>
<!-- Node14 -->
<g id="node11" class="node">
<title>Node14</title>
<g id="a_node11"><a xlink:href="lifter_8c.html" target="_top" xlink:title="src/lifter.c">
<polygon fill="none" stroke="#000000" points="63.0618,-55.5 63.0618,-73.5 121.2932,-73.5 121.2932,-55.5 63.0618,-55.5"/>
<text text-anchor="middle" x="92.1775" y="-61.5" font-family="Helvetica,sans-Serif" font-size="10.00" fill="#000000">src/lifter.c</text>
</a>
</g>
</g>
<!-- Node12&#45;&gt;Node14 -->
<g id="edge12" class="edge">
<title>Node12&#45;&gt;Node14</title>
<path fill="none" stroke="#191970" d="M134.8147,-103.5841C124.2696,-93.9177 111.1753,-81.9147 102.3005,-73.7795"/>
<polygon fill="#191970" stroke="#191970" points="132.5331,-106.2406 142.2697,-110.4179 137.2632,-101.0805 132.5331,-106.2406"/>
</g>
<!-- Node18&#45;&gt;Node6 -->
<g id="edge21" class="edge">
<title>Node18&#45;&gt;Node6</title>
<path fill="none" stroke="#191970" d="M337.2519,-211.7291C344.3461,-198.1698 350.2504,-180.6158 345.1775,-165 332.5848,-126.2362 298.7967,-89.9311 281.9733,-73.5829"/>
<polygon fill="#191970" stroke="#191970" points="334.2144,-209.9902 332.2706,-220.4052 340.285,-213.4756 334.2144,-209.9902"/>
</g>
<!-- Node18&#45;&gt;Node9 -->
<g id="edge23" class="edge">
<title>Node18&#45;&gt;Node9</title>
<path fill="none" stroke="#191970" d="M342.9091,-212.7889C363.0734,-191.5826 394.4843,-158.3112 421.1775,-129 438.8866,-109.554 459.1871,-86.3599 470.1455,-73.7627"/>
<polygon fill="#191970" stroke="#191970" points="340.1258,-210.6365 335.7649,-220.2923 345.1954,-215.4635 340.1258,-210.6365"/>
</g>
<!-- Node18&#45;&gt;Node16 -->
<g id="edge22" class="edge">
<title>Node18&#45;&gt;Node16</title>
<path fill="none" stroke="#191970" d="M304.0642,-212.3205C295.9405,-202.3731 286.8096,-191.1924 280.5962,-183.5842"/>
<polygon fill="#191970" stroke="#191970" points="301.5289,-214.7494 310.5652,-220.2808 306.9507,-210.3216 301.5289,-214.7494"/>
</g>
<!-- Node19&#45;&gt;Node9 -->
<g id="edge25" class="edge">
<title>Node19&#45;&gt;Node9</title>
<path fill="none" stroke="#191970" d="M805.6168,-219.0545C823.4315,-204.8528 843.3353,-183.2908 830.1775,-165 793.482,-113.9895 603.4412,-81.8183 518.8577,-69.8189"/>
<polygon fill="#191970" stroke="#191970" points="803.0824,-216.5811 797.1933,-225.3884 807.2893,-222.1759 803.0824,-216.5811"/>
</g>
<!-- Node19&#45;&gt;Node20 -->
<g id="edge26" class="edge">
<title>Node19&#45;&gt;Node20</title>
<path fill="none" stroke="#191970" d="M783.1775,-215.3734C783.1775,-204.7812 783.1775,-192.0976 783.1775,-183.6985"/>
<polygon fill="#191970" stroke="#191970" points="779.6776,-215.3873 783.1775,-225.3873 786.6776,-215.3873 779.6776,-215.3873"/>
</g>
<!-- Node21&#45;&gt;Node8 -->
<g id="edge28" class="edge">
<title>Node21&#45;&gt;Node8</title>
<path fill="none" stroke="#191970" d="M620.1907,-218.3221C608.5365,-207.2229 593.4905,-192.8933 583.8359,-183.6985"/>
<polygon fill="#191970" stroke="#191970" points="617.9539,-221.0252 627.6091,-225.3873 622.7815,-215.9562 617.9539,-221.0252"/>
</g>
<!-- Node21&#45;&gt;Node9 -->
<g id="edge29" class="edge">
<title>Node21&#45;&gt;Node9</title>
<path fill="none" stroke="#191970" d="M664.5849,-220.2769C686.5315,-206.912 711.6026,-185.8925 698.1775,-165 658.5658,-103.3555 570.7365,-79.0541 518.8287,-69.8288"/>
<polygon fill="#191970" stroke="#191970" points="662.7134,-217.3159 655.8005,-225.3448 666.2114,-223.3792 662.7134,-217.3159"/>
</g>
<!-- Node21&#45;&gt;Node20 -->
<g id="edge30" class="edge">
<title>Node21&#45;&gt;Node20</title>
<path fill="none" stroke="#191970" d="M668.6818,-221.553C696.6187,-210.0721 736.6958,-193.6021 761.2729,-183.5019"/>
<polygon fill="#191970" stroke="#191970" points="667.2707,-218.3488 659.3517,-225.3873 669.9316,-224.8234 667.2707,-218.3488"/>
</g>
<!-- Node22 -->
<g id="node19" class="node">
<title>Node22</title>
<g id="a_node19"><a xlink:href="toggle_8c.html" target="_top" xlink:title="src/toggle.c">
<polygon fill="none" stroke="#000000" points="621.6111,-165.5 621.6111,-183.5 688.7439,-183.5 688.7439,-165.5 621.6111,-165.5"/>
<text text-anchor="middle" x="655.1775" y="-171.5" font-family="Helvetica,sans-Serif" font-size="10.00" fill="#000000">src/toggle.c</text>
</a>
</g>
</g>
<!-- Node21&#45;&gt;Node22 -->
<g id="edge31" class="edge">
<title>Node21&#45;&gt;Node22</title>
<path fill="none" stroke="#191970" d="M642.8153,-215.7072C646.0129,-205.0487 649.8717,-192.186 652.4179,-183.6985"/>
<polygon fill="#191970" stroke="#191970" points="639.4324,-214.8033 639.9113,-225.3873 646.1372,-216.8148 639.4324,-214.8033"/>
</g>
</g>
</svg>
