<?xml version="1.0" encoding="UTF-8" standalone="no"?>
<!DOCTYPE svg PUBLIC "-//W3C//DTD SVG 1.1//EN"
 "http://www.w3.org/Graphics/SVG/1.1/DTD/svg11.dtd">
<!-- Generated by graphviz version 2.40.1 (20161225.0304)
 -->
<!-- Title: include/controller.h Pages: 1 -->
<svg width="330pt" height="137pt"
 viewBox="0.00 0.00 330.41 137.00" xmlns="http://www.w3.org/2000/svg" xmlns:xlink="http://www.w3.org/1999/xlink">
<g id="graph0" class="graph" transform="scale(1 1) rotate(0) translate(4 133)">
<title>include/controller.h</title>
<!-- Node0 -->
<g id="node1" class="node">
<title>Node0</title>
<polygon fill="#bfbfbf" stroke="#000000" points="74.5913,-110.5 74.5913,-128.5 173.98,-128.5 173.98,-110.5 74.5913,-110.5"/>
<text text-anchor="middle" x="124.2856" y="-116.5" font-family="Helvetica,sans-Serif" font-size="10.00" fill="#000000">include/controller.h</text>
</g>
<!-- Node1 -->
<g id="node2" class="node">
<title>Node1</title>
<g id="a_node2"><a xlink:href="vmath_8h.html" target="_top" xlink:title="Vex Specific Math Functions, includes: Cartesian to polar cordinates. ">
<polygon fill="none" stroke="#000000" points="31.5,-55.5 31.5,-73.5 83.0713,-73.5 83.0713,-55.5 31.5,-55.5"/>
<text text-anchor="middle" x="57.2856" y="-61.5" font-family="Helvetica,sans-Serif" font-size="10.00" fill="#000000">vmath.h</text>
</a>
</g>
</g>
<!-- Node0&#45;&gt;Node1 -->
<g id="edge1" class="edge">
<title>Node0&#45;&gt;Node1</title>
<path fill="none" stroke="#191970" d="M113.222,-110.4179C103.2924,-102.2667 88.4956,-90.1201 76.6145,-80.3669"/>
<polygon fill="#191970" stroke="#191970" points="78.5398,-77.4192 68.5897,-73.7795 74.0983,-82.8297 78.5398,-77.4192"/>
</g>
<!-- Node3 -->
<g id="node4" class="node">
<title>Node3</title>
<g id="a_node4"><a xlink:href="_a_p_i_8h.html" target="_top" xlink:title="Provides the high&#45;level user functionality intended for use by typical VEX Cortex programmers...">
<polygon fill="none" stroke="#000000" points="138.0566,-55.5 138.0566,-73.5 178.5146,-73.5 178.5146,-55.5 138.0566,-55.5"/>
<text text-anchor="middle" x="158.2856" y="-61.5" font-family="Helvetica,sans-Serif" font-size="10.00" fill="#000000">API.h</text>
</a>
</g>
</g>
<!-- Node0&#45;&gt;Node3 -->
<g id="edge3" class="edge">
<title>Node0&#45;&gt;Node3</title>
<path fill="none" stroke="#191970" d="M129.9001,-110.4179C134.5965,-102.8207 141.4385,-91.7527 147.2285,-82.3866"/>
<polygon fill="#191970" stroke="#191970" points="150.2681,-84.1258 152.5493,-73.7795 144.3139,-80.445 150.2681,-84.1258"/>
</g>
<!-- Node2 -->
<g id="node3" class="node">
<title>Node2</title>
<polygon fill="none" stroke="#bfbfbf" points="0,-.5 0,-18.5 46.5713,-18.5 46.5713,-.5 0,-.5"/>
<text text-anchor="middle" x="23.2856" y="-6.5" font-family="Helvetica,sans-Serif" font-size="10.00" fill="#000000">math.h</text>
</g>
<!-- Node1&#45;&gt;Node2 -->
<g id="edge2" class="edge">
<title>Node1&#45;&gt;Node2</title>
<path fill="none" stroke="#191970" d="M51.6712,-55.4179C46.9748,-47.8207 40.1327,-36.7527 34.3428,-27.3866"/>
<polygon fill="#191970" stroke="#191970" points="37.2574,-25.445 29.022,-18.7795 31.3032,-29.1258 37.2574,-25.445"/>
</g>
<!-- Node4 -->
<g id="node5" class="node">
<title>Node4</title>
<polygon fill="none" stroke="#bfbfbf" points="64.4434,-.5 64.4434,-18.5 112.1279,-18.5 112.1279,-.5 64.4434,-.5"/>
<text text-anchor="middle" x="88.2856" y="-6.5" font-family="Helvetica,sans-Serif" font-size="10.00" fill="#000000">stdlib.h</text>
</g>
<!-- Node3&#45;&gt;Node4 -->
<g id="edge4" class="edge">
<title>Node3&#45;&gt;Node4</title>
<path fill="none" stroke="#191970" d="M146.7266,-55.4179C136.2516,-47.1876 120.5924,-34.8839 108.1193,-25.0836"/>
<polygon fill="#191970" stroke="#191970" points="110.1215,-22.2056 100.0959,-18.7795 105.7967,-27.7098 110.1215,-22.2056"/>
</g>
<!-- Node5 -->
<g id="node6" class="node">
<title>Node5</title>
<polygon fill="none" stroke="#bfbfbf" points="129.9927,-.5 129.9927,-18.5 186.5786,-18.5 186.5786,-.5 129.9927,-.5"/>
<text text-anchor="middle" x="158.2856" y="-6.5" font-family="Helvetica,sans-Serif" font-size="10.00" fill="#000000">stdbool.h</text>
</g>
<!-- Node3&#45;&gt;Node5 -->
<g id="edge5" class="edge">
<title>Node3&#45;&gt;Node5</title>
<path fill="none" stroke="#191970" d="M158.2856,-55.4179C158.2856,-48.2164 158.2856,-37.8962 158.2856,-28.8632"/>
<polygon fill="#191970" stroke="#191970" points="161.7857,-28.7794 158.2856,-18.7795 154.7857,-28.7795 161.7857,-28.7794"/>
</g>
<!-- Node6 -->
<g id="node7" class="node">
<title>Node6</title>
<polygon fill="none" stroke="#bfbfbf" points="204.2192,-.5 204.2192,-18.5 256.3521,-18.5 256.3521,-.5 204.2192,-.5"/>
<text text-anchor="middle" x="230.2856" y="-6.5" font-family="Helvetica,sans-Serif" font-size="10.00" fill="#000000">stdarg.h</text>
</g>
<!-- Node3&#45;&gt;Node6 -->
<g id="edge6" class="edge">
<title>Node3&#45;&gt;Node6</title>
<path fill="none" stroke="#191970" d="M170.175,-55.4179C180.9492,-47.1876 197.0558,-34.8839 209.8854,-25.0836"/>
<polygon fill="#191970" stroke="#191970" points="212.3159,-27.6313 218.138,-18.7795 208.0666,-22.0685 212.3159,-27.6313"/>
</g>
<!-- Node7 -->
<g id="node8" class="node">
<title>Node7</title>
<polygon fill="none" stroke="#bfbfbf" points="274.165,-.5 274.165,-18.5 322.4063,-18.5 322.4063,-.5 274.165,-.5"/>
<text text-anchor="middle" x="298.2856" y="-6.5" font-family="Helvetica,sans-Serif" font-size="10.00" fill="#000000">stdint.h</text>
</g>
<!-- Node3&#45;&gt;Node7 -->
<g id="edge7" class="edge">
<title>Node3&#45;&gt;Node7</title>
<path fill="none" stroke="#191970" d="M178.6428,-56.5025C201.4722,-47.5338 238.8154,-32.8633 265.7138,-22.2961"/>
<polygon fill="#191970" stroke="#191970" points="267.0772,-25.5209 275.1049,-18.6067 264.5176,-19.0057 267.0772,-25.5209"/>
</g>
</g>
</svg>
