<?xml version="1.0" encoding="UTF-8" standalone="no"?>
<!DOCTYPE svg PUBLIC "-//W3C//DTD SVG 1.1//EN"
 "http://www.w3.org/Graphics/SVG/1.1/DTD/svg11.dtd">
<!-- Generated by graphviz version 2.40.1 (20161225.0304)
 -->
<!-- Title: update_drive_motors Pages: 1 -->
<!--zoomable 304 -->
<svg id="main" version="1.1" xmlns="http://www.w3.org/2000/svg" xmlns:xlink="http://www.w3.org/1999/xlink" xml:space="preserve" onload="init(evt)">
<style type="text/css"><![CDATA[
.edge:hover path { stroke: red; }
.edge:hover polygon { stroke: red; fill: red; }
]]></style>
<script type="text/javascript"><![CDATA[
var edges = document.getElementsByTagName('g');
if (edges && edges.length) {
  for (var i=0;i<edges.length;i++) {
    if (edges[i].id.substr(0,4)=='edge') {
      edges[i].setAttribute('class','edge');
    }
  }
}
]]></script>
        <defs>
                <circle id="rim" cx="0" cy="0" r="7"/>
                <circle id="rim2" cx="0" cy="0" r="3.5"/>
                <g id="zoomPlus">
                        <use xlink:href="#rim" fill="#404040">
                                <set attributeName="fill" to="#808080" begin="zoomplus.mouseover" end="zoomplus.mouseout"/>
                        </use>
                        <path d="M-4,0h8M0,-4v8" fill="none" stroke="white" stroke-width="1.5" pointer-events="none"/>
                </g>
                <g id="zoomMin">
                        <use xlink:href="#rim" fill="#404040">
                                <set attributeName="fill" to="#808080" begin="zoomminus.mouseover" end="zoomminus.mouseout"/>
                        </use>
                        <path d="M-4,0h8" fill="none" stroke="white" stroke-width="1.5" pointer-events="none"/>
                </g>
                <g id="dirArrow">
                        <path fill="none" stroke="white" stroke-width="1.5" d="M0,-3.0v7 M-2.5,-0.5L0,-3.0L2.5,-0.5"/>
                </g>
               <g id="resetDef">
                       <use xlink:href="#rim2" fill="#404040">
                               <set attributeName="fill" to="#808080" begin="reset.mouseover" end="reset.mouseout"/>
                       </use>
               </g>
        </defs>

<script type="text/javascript">
var viewWidth = 796;
var viewHeight = 304;
var sectionId = 'dynsection-3';
</script>
<script xlink:href="svgpan.js"/>
<svg id="graph" class="graph">
<g id="viewport">
<title>update_drive_motors</title>
<!-- Node27 -->
<g id="node1" class="node">
<title>Node27</title>
<polygon fill="#bfbfbf" stroke="#000000" points="0,-149.5 0,-167.5 109.9453,-167.5 109.9453,-149.5 0,-149.5"/>
<text text-anchor="middle" x="54.9727" y="-155.5" font-family="Helvetica,sans-Serif" font-size="10.00" fill="#000000">update_drive_motors</text>
</g>
<!-- Node28 -->
<g id="node2" class="node">
<title>Node28</title>
<g id="a_node2"><a xlink:href="partner_8h.html#aacc86d07e59d3b919f5c5eae2ce5d404" target="_top" xlink:title="get_mode">
<polygon fill="none" stroke="#000000" points="163.7261,-186.5 163.7261,-204.5 224.2036,-204.5 224.2036,-186.5 163.7261,-186.5"/>
<text text-anchor="middle" x="193.9648" y="-192.5" font-family="Helvetica,sans-Serif" font-size="10.00" fill="#000000">get_mode</text>
</a>
</g>
</g>
<!-- Node27&#45;&gt;Node28 -->
<g id="edge1" class="edge">
<title>Node27&#45;&gt;Node28</title>
<path fill="none" stroke="#191970" d="M88.974,-167.5512C108.5888,-172.7727 133.3603,-179.367 153.9153,-184.8387"/>
<polygon fill="#191970" stroke="#191970" points="153.0623,-188.2335 163.6261,-187.4238 154.863,-181.4691 153.0623,-188.2335"/>
</g>
<!-- Node29 -->
<g id="node3" class="node">
<title>Node29</title>
<g id="a_node3"><a xlink:href="_a_p_i_8h.html#ad56fcec15d1a48deb8780bb0fc38be4d" target="_top" xlink:title="joystickGetAnalog">
<polygon fill="none" stroke="#000000" points="145.9453,-149.5 145.9453,-167.5 241.9844,-167.5 241.9844,-149.5 145.9453,-149.5"/>
<text text-anchor="middle" x="193.9648" y="-155.5" font-family="Helvetica,sans-Serif" font-size="10.00" fill="#000000">joystickGetAnalog</text>
</a>
</g>
</g>
<!-- Node27&#45;&gt;Node29 -->
<g id="edge2" class="edge">
<title>Node27&#45;&gt;Node29</title>
<path fill="none" stroke="#191970" d="M110.3054,-158.5C118.5938,-158.5 127.1629,-158.5 135.5137,-158.5"/>
<polygon fill="#191970" stroke="#191970" points="135.5579,-162.0001 145.5579,-158.5 135.5579,-155.0001 135.5579,-162.0001"/>
</g>
<!-- Node30 -->
<g id="node4" class="node">
<title>Node30</title>
<g id="a_node4"><a xlink:href="drive_8c.html#a8df41fd50094c065eedc81fc5e6595d1" target="_top" xlink:title="sets the speed of one side of the robot. ">
<polygon fill="none" stroke="#000000" points="150.938,-112.5 150.938,-130.5 236.9917,-130.5 236.9917,-112.5 150.938,-112.5"/>
<text text-anchor="middle" x="193.9648" y="-118.5" font-family="Helvetica,sans-Serif" font-size="10.00" fill="#000000">set_side_speed</text>
</a>
</g>
</g>
<!-- Node27&#45;&gt;Node30 -->
<g id="edge3" class="edge">
<title>Node27&#45;&gt;Node30</title>
<path fill="none" stroke="#191970" d="M88.974,-149.4488C107.3996,-144.5438 130.3756,-138.4276 150.1323,-133.1683"/>
<polygon fill="#191970" stroke="#191970" points="151.0697,-136.5407 159.8328,-130.586 149.269,-129.7763 151.0697,-136.5407"/>
</g>
<!-- Node31 -->
<g id="node5" class="node">
<title>Node31</title>
<g id="a_node5"><a xlink:href="slew_8h.html#a7dff2b79dffe55fb936d977594d7c01d" target="_top" xlink:title="Sets motor speed wrapped inside the slew rate controller. ">
<polygon fill="none" stroke="#000000" points="277.9844,-112.5 277.9844,-130.5 364.0137,-130.5 364.0137,-112.5 277.9844,-112.5"/>
<text text-anchor="middle" x="320.999" y="-118.5" font-family="Helvetica,sans-Serif" font-size="10.00" fill="#000000">set_motor_slew</text>
</a>
</g>
</g>
<!-- Node30&#45;&gt;Node31 -->
<g id="edge4" class="edge">
<title>Node30&#45;&gt;Node31</title>
<path fill="none" stroke="#191970" d="M237.3275,-121.5C247.1387,-121.5 257.6655,-121.5 267.8292,-121.5"/>
<polygon fill="#191970" stroke="#191970" points="267.8318,-125.0001 277.8318,-121.5 267.8318,-118.0001 267.8318,-125.0001"/>
</g>
<!-- Node32 -->
<g id="node6" class="node">
<title>Node32</title>
<g id="a_node6"><a xlink:href="log_8h.html#af3668f40d1ad1b4f3418869ac9a31f34" target="_top" xlink:title="prints a info message ">
<polygon fill="none" stroke="#000000" points="405.2847,-243.5 405.2847,-261.5 449.0923,-261.5 449.0923,-243.5 405.2847,-243.5"/>
<text text-anchor="middle" x="427.1885" y="-249.5" font-family="Helvetica,sans-Serif" font-size="10.00" fill="#000000">debug</text>
</a>
</g>
</g>
<!-- Node31&#45;&gt;Node32 -->
<g id="edge5" class="edge">
<title>Node31&#45;&gt;Node32</title>
<path fill="none" stroke="#191970" d="M328.2979,-130.5042C345.8026,-152.0987 390.4087,-207.1268 413.2495,-235.3042"/>
<polygon fill="#191970" stroke="#191970" points="410.8225,-237.8685 419.8386,-243.4328 416.2604,-233.4605 410.8225,-237.8685"/>
</g>
<!-- Node34 -->
<g id="node8" class="node">
<title>Node34</title>
<g id="a_node8"><a xlink:href="slew_8c.html#a321758941d88b75783955c819bb75005" target="_top" xlink:title="Initializes the slew rate controller. ">
<polygon fill="none" stroke="#000000" points="400.0137,-150.5 400.0137,-168.5 454.3633,-168.5 454.3633,-150.5 400.0137,-150.5"/>
<text text-anchor="middle" x="427.1885" y="-156.5" font-family="Helvetica,sans-Serif" font-size="10.00" fill="#000000">init_slew</text>
</a>
</g>
</g>
<!-- Node31&#45;&gt;Node34 -->
<g id="edge7" class="edge">
<title>Node31&#45;&gt;Node34</title>
<path fill="none" stroke="#191970" d="M346.1644,-130.5055C359.9496,-135.4385 377.2462,-141.6281 392.3147,-147.0204"/>
<polygon fill="#191970" stroke="#191970" points="391.2411,-150.3535 401.8357,-150.4275 393.5997,-143.7628 391.2411,-150.3535"/>
</g>
<!-- Node44 -->
<g id="node18" class="node">
<title>Node44</title>
<g id="a_node18"><a xlink:href="_a_p_i_8h.html#a8b51124628d2a7741738d48551d1e8ee" target="_top" xlink:title="mutexTake">
<polygon fill="none" stroke="#000000" points="603.5107,-75.5 603.5107,-93.5 667.8652,-93.5 667.8652,-75.5 603.5107,-75.5"/>
<text text-anchor="middle" x="635.688" y="-81.5" font-family="Helvetica,sans-Serif" font-size="10.00" fill="#000000">mutexTake</text>
</a>
</g>
</g>
<!-- Node31&#45;&gt;Node44 -->
<g id="edge23" class="edge">
<title>Node31&#45;&gt;Node44</title>
<path fill="none" stroke="#191970" d="M364.0953,-116.4329C424.2792,-109.3567 532.8469,-96.5917 592.8773,-89.5335"/>
<polygon fill="#191970" stroke="#191970" points="593.6214,-92.9702 603.1443,-88.3264 592.804,-86.0181 593.6214,-92.9702"/>
</g>
<!-- Node45 -->
<g id="node19" class="node">
<title>Node45</title>
<g id="a_node19"><a xlink:href="_a_p_i_8h.html#afe171a08d22de18fc2ab604b2364959f" target="_top" xlink:title="mutexGive">
<polygon fill="none" stroke="#000000" points="603.7915,-.5 603.7915,-18.5 667.5845,-18.5 667.5845,-.5 603.7915,-.5"/>
<text text-anchor="middle" x="635.688" y="-6.5" font-family="Helvetica,sans-Serif" font-size="10.00" fill="#000000">mutexGive</text>
</a>
</g>
</g>
<!-- Node31&#45;&gt;Node45 -->
<g id="edge22" class="edge">
<title>Node31&#45;&gt;Node45</title>
<path fill="none" stroke="#191970" d="M333.3913,-112.3875C360.3615,-93.0777 427.0538,-48.1265 490.3633,-27.5 523.9475,-16.5581 563.8832,-12.1912 593.3839,-10.4854"/>
<polygon fill="#191970" stroke="#191970" points="593.9355,-13.9623 603.7493,-9.97 593.5878,-6.971 593.9355,-13.9623"/>
</g>
<!-- Node33 -->
<g id="node7" class="node">
<title>Node33</title>
<g id="a_node7"><a xlink:href="_a_p_i_8h.html#a403c82418e475fa4a8273719e6a7f3e6" target="_top" xlink:title="printf">
<polygon fill="none" stroke="#000000" points="726.9341,-262.5 726.9341,-280.5 765.1655,-280.5 765.1655,-262.5 726.9341,-262.5"/>
<text text-anchor="middle" x="746.0498" y="-268.5" font-family="Helvetica,sans-Serif" font-size="10.00" fill="#000000">printf</text>
</a>
</g>
</g>
<!-- Node32&#45;&gt;Node33 -->
<g id="edge6" class="edge">
<title>Node32&#45;&gt;Node33</title>
<path fill="none" stroke="#191970" d="M447.2769,-261.5508C459.4995,-266.6972 475.5593,-272.8288 490.3633,-276.5 567.1715,-295.5474 589.292,-299.9103 667.8652,-290.5 684.2715,-288.5351 702.209,-284.3294 716.7599,-280.3733"/>
<polygon fill="#191970" stroke="#191970" points="718.0127,-283.6565 726.6863,-277.5723 716.1116,-276.9196 718.0127,-283.6565"/>
</g>
<!-- Node35 -->
<g id="node9" class="node">
<title>Node35</title>
<g id="a_node9"><a xlink:href="log_8h.html#a0bec2cf5fff7f607bc510b74aba9887c" target="_top" xlink:title="prints a warning message and displays on lcd. Only will print and display if log_level is greater tha...">
<polygon fill="none" stroke="#000000" points="503.4272,-224.5 503.4272,-242.5 554.4468,-242.5 554.4468,-224.5 503.4272,-224.5"/>
<text text-anchor="middle" x="528.937" y="-230.5" font-family="Helvetica,sans-Serif" font-size="10.00" fill="#000000">warning</text>
</a>
</g>
</g>
<!-- Node34&#45;&gt;Node35 -->
<g id="edge8" class="edge">
<title>Node34&#45;&gt;Node35</title>
<path fill="none" stroke="#191970" d="M435.9194,-168.7481C447.5208,-180.6633 469.0445,-201.5041 490.3633,-215.5 492.6587,-217.007 495.1004,-218.4557 497.5975,-219.8313"/>
<polygon fill="#191970" stroke="#191970" points="496.2209,-223.0576 506.7216,-224.4665 499.3914,-216.8168 496.2209,-223.0576"/>
</g>
<!-- Node39 -->
<g id="node13" class="node">
<title>Node39</title>
<g id="a_node13"><a xlink:href="_a_p_i_8h.html#a8966c541f3e9565aea1289f0d2f2cf43" target="_top" xlink:title="motorStopAll">
<polygon fill="none" stroke="#000000" points="492.314,-187.5 492.314,-205.5 565.5601,-205.5 565.5601,-187.5 492.314,-187.5"/>
<text text-anchor="middle" x="528.937" y="-193.5" font-family="Helvetica,sans-Serif" font-size="10.00" fill="#000000">motorStopAll</text>
</a>
</g>
</g>
<!-- Node34&#45;&gt;Node39 -->
<g id="edge13" class="edge">
<title>Node34&#45;&gt;Node39</title>
<path fill="none" stroke="#191970" d="M452.079,-168.5512C464.7667,-173.165 480.4017,-178.8506 494.2503,-183.8865"/>
<polygon fill="#191970" stroke="#191970" points="493.3568,-187.2857 503.9508,-187.414 495.7491,-180.7072 493.3568,-187.2857"/>
</g>
<!-- Node40 -->
<g id="node14" class="node">
<title>Node40</title>
<g id="a_node14"><a xlink:href="log_8h.html#a1606d750e1bb8de9f9e917172bba3382" target="_top" xlink:title="prints a info message ">
<polygon fill="none" stroke="#000000" points="619.6265,-262.5 619.6265,-280.5 651.7495,-280.5 651.7495,-262.5 619.6265,-262.5"/>
<text text-anchor="middle" x="635.688" y="-268.5" font-family="Helvetica,sans-Serif" font-size="10.00" fill="#000000">info</text>
</a>
</g>
</g>
<!-- Node34&#45;&gt;Node40 -->
<g id="edge14" class="edge">
<title>Node34&#45;&gt;Node40</title>
<path fill="none" stroke="#191970" d="M430.3802,-168.537C437.6612,-187.683 457.4572,-232.2321 490.3633,-252.5 526.9913,-275.0604 578.6231,-276.1091 609.4659,-274.2198"/>
<polygon fill="#191970" stroke="#191970" points="609.7445,-277.7088 619.4498,-273.4594 609.2128,-270.729 609.7445,-277.7088"/>
</g>
<!-- Node41 -->
<g id="node15" class="node">
<title>Node41</title>
<g id="a_node15"><a xlink:href="_a_p_i_8h.html#aecd027ce8f8b52a765735e9eb5b202b3" target="_top" xlink:title="mutexCreate">
<polygon fill="none" stroke="#000000" points="492.314,-150.5 492.314,-168.5 565.5601,-168.5 565.5601,-150.5 492.314,-150.5"/>
<text text-anchor="middle" x="528.937" y="-156.5" font-family="Helvetica,sans-Serif" font-size="10.00" fill="#000000">mutexCreate</text>
</a>
</g>
</g>
<!-- Node34&#45;&gt;Node41 -->
<g id="edge16" class="edge">
<title>Node34&#45;&gt;Node41</title>
<path fill="none" stroke="#191970" d="M454.4552,-159.5C462.9282,-159.5 472.5237,-159.5 481.9409,-159.5"/>
<polygon fill="#191970" stroke="#191970" points="482.0281,-163.0001 492.0281,-159.5 482.0281,-156.0001 482.0281,-163.0001"/>
</g>
<!-- Node42 -->
<g id="node16" class="node">
<title>Node42</title>
<g id="a_node16"><a xlink:href="_a_p_i_8h.html#ab05a241d6d1fd98b1ceb4665db678156" target="_top" xlink:title="taskRunLoop">
<polygon fill="none" stroke="#000000" points="491.4717,-113.5 491.4717,-131.5 566.4023,-131.5 566.4023,-113.5 491.4717,-113.5"/>
<text text-anchor="middle" x="528.937" y="-119.5" font-family="Helvetica,sans-Serif" font-size="10.00" fill="#000000">taskRunLoop</text>
</a>
</g>
</g>
<!-- Node34&#45;&gt;Node42 -->
<g id="edge17" class="edge">
<title>Node34&#45;&gt;Node42</title>
<path fill="none" stroke="#191970" d="M452.079,-150.4488C464.7667,-145.835 480.4017,-140.1494 494.2503,-135.1135"/>
<polygon fill="#191970" stroke="#191970" points="495.7491,-138.2928 503.9508,-131.586 493.3568,-131.7143 495.7491,-138.2928"/>
</g>
<!-- Node43 -->
<g id="node17" class="node">
<title>Node43</title>
<g id="a_node17"><a xlink:href="slew_8c.html#a807a87c5df438fde21c1e8213906695b" target="_top" xlink:title="Closes the distance between the desired motor value and the current motor value by half for each moto...">
<polygon fill="none" stroke="#000000" points="490.3633,-37.5 490.3633,-55.5 567.5107,-55.5 567.5107,-37.5 490.3633,-37.5"/>
<text text-anchor="middle" x="528.937" y="-43.5" font-family="Helvetica,sans-Serif" font-size="10.00" fill="#000000">updateMotors</text>
</a>
</g>
</g>
<!-- Node34&#45;&gt;Node43 -->
<g id="edge18" class="edge">
<title>Node34&#45;&gt;Node43</title>
<path fill="none" stroke="#191970" d="M435.515,-150.2527C452.6673,-131.2037 492.1499,-87.355 513.8941,-63.2064"/>
<polygon fill="#191970" stroke="#191970" points="516.6894,-65.3326 520.7798,-55.5592 511.4874,-60.6486 516.6894,-65.3326"/>
</g>
<!-- Node36 -->
<g id="node10" class="node">
<title>Node36</title>
<g id="a_node10"><a xlink:href="log_8c.html#afff22aff6749311a684a559cac3ac8bd" target="_top" xlink:title="log_info">
<polygon fill="none" stroke="#000000" points="610.1733,-225.5 610.1733,-243.5 661.2026,-243.5 661.2026,-225.5 610.1733,-225.5"/>
<text text-anchor="middle" x="635.688" y="-231.5" font-family="Helvetica,sans-Serif" font-size="10.00" fill="#000000">log_info</text>
</a>
</g>
</g>
<!-- Node35&#45;&gt;Node36 -->
<g id="edge9" class="edge">
<title>Node35&#45;&gt;Node36</title>
<path fill="none" stroke="#191970" d="M554.5065,-233.7395C568.0072,-233.866 584.8008,-234.0233 599.6048,-234.162"/>
<polygon fill="#191970" stroke="#191970" points="599.9247,-237.665 609.9571,-234.259 599.9904,-230.6653 599.9247,-237.665"/>
</g>
<!-- Node36&#45;&gt;Node33 -->
<g id="edge10" class="edge">
<title>Node36&#45;&gt;Node33</title>
<path fill="none" stroke="#191970" d="M661.2846,-243.0815C677.9985,-248.6851 699.8536,-256.0122 717.1856,-261.823"/>
<polygon fill="#191970" stroke="#191970" points="716.2008,-265.1842 726.7947,-265.0445 718.4259,-258.5473 716.2008,-265.1842"/>
</g>
<!-- Node37 -->
<g id="node11" class="node">
<title>Node37</title>
<g id="a_node11"><a xlink:href="_a_p_i_8h.html#aab53a247d88151a6623c20fa1ea940b0" target="_top" xlink:title="lcdSetBacklight">
<polygon fill="none" stroke="#000000" points="703.8652,-225.5 703.8652,-243.5 788.2344,-243.5 788.2344,-225.5 703.8652,-225.5"/>
<text text-anchor="middle" x="746.0498" y="-231.5" font-family="Helvetica,sans-Serif" font-size="10.00" fill="#000000">lcdSetBacklight</text>
</a>
</g>
</g>
<!-- Node36&#45;&gt;Node37 -->
<g id="edge11" class="edge">
<title>Node36&#45;&gt;Node37</title>
<path fill="none" stroke="#191970" d="M661.2846,-234.5C670.9375,-234.5 682.3051,-234.5 693.5259,-234.5"/>
<polygon fill="#191970" stroke="#191970" points="693.7361,-238.0001 703.7361,-234.5 693.7361,-231.0001 693.7361,-238.0001"/>
</g>
<!-- Node38 -->
<g id="node12" class="node">
<title>Node38</title>
<g id="a_node12"><a xlink:href="_a_p_i_8h.html#a5fa1d119fe3e836b5519f97eae7a1272" target="_top" xlink:title="lcdClear">
<polygon fill="none" stroke="#000000" points="719.71,-188.5 719.71,-206.5 772.3896,-206.5 772.3896,-188.5 719.71,-188.5"/>
<text text-anchor="middle" x="746.0498" y="-194.5" font-family="Helvetica,sans-Serif" font-size="10.00" fill="#000000">lcdClear</text>
</a>
</g>
</g>
<!-- Node36&#45;&gt;Node38 -->
<g id="edge12" class="edge">
<title>Node36&#45;&gt;Node38</title>
<path fill="none" stroke="#191970" d="M661.2846,-225.9185C675.733,-221.0745 694.0234,-214.9424 709.9126,-209.6154"/>
<polygon fill="#191970" stroke="#191970" points="711.071,-212.9185 719.4398,-206.4213 708.8459,-206.2816 711.071,-212.9185"/>
</g>
<!-- Node40&#45;&gt;Node33 -->
<g id="edge15" class="edge">
<title>Node40&#45;&gt;Node33</title>
<path fill="none" stroke="#191970" d="M651.9723,-271.5C668.9238,-271.5 695.8396,-271.5 716.5467,-271.5"/>
<polygon fill="#191970" stroke="#191970" points="716.7237,-275.0001 726.7237,-271.5 716.7236,-268.0001 716.7237,-275.0001"/>
</g>
<!-- Node43&#45;&gt;Node44 -->
<g id="edge19" class="edge">
<title>Node43&#45;&gt;Node44</title>
<path fill="none" stroke="#191970" d="M554.2355,-55.5055C568.0936,-60.4385 585.4817,-66.6281 600.6298,-72.0204"/>
<polygon fill="#191970" stroke="#191970" points="599.6065,-75.3712 610.2011,-75.4275 601.954,-68.7765 599.6065,-75.3712"/>
</g>
<!-- Node43&#45;&gt;Node45 -->
<g id="edge20" class="edge">
<title>Node43&#45;&gt;Node45</title>
<path fill="none" stroke="#191970" d="M555.0512,-37.4488C568.492,-32.7902 585.0853,-27.0389 599.7186,-21.967"/>
<polygon fill="#191970" stroke="#191970" points="601.171,-25.168 609.4734,-18.586 598.8786,-18.554 601.171,-25.168"/>
</g>
<!-- Node46 -->
<g id="node20" class="node">
<title>Node46</title>
<g id="a_node20"><a xlink:href="_a_p_i_8h.html#a03c5b04b472d024281f62d7af8854a8e" target="_top" xlink:title="motorSet">
<polygon fill="none" stroke="#000000" points="607.4023,-37.5 607.4023,-55.5 663.9736,-55.5 663.9736,-37.5 607.4023,-37.5"/>
<text text-anchor="middle" x="635.688" y="-43.5" font-family="Helvetica,sans-Serif" font-size="10.00" fill="#000000">motorSet</text>
</a>
</g>
</g>
<!-- Node43&#45;&gt;Node46 -->
<g id="edge21" class="edge">
<title>Node43&#45;&gt;Node46</title>
<path fill="none" stroke="#191970" d="M567.7785,-46.5C577.3225,-46.5 587.5375,-46.5 597.0709,-46.5"/>
<polygon fill="#191970" stroke="#191970" points="597.084,-50.0001 607.084,-46.5 597.0839,-43.0001 597.084,-50.0001"/>
</g>
</g>
</svg>
        <g id="navigator" transform="translate(0 0)" fill="#404254">
                <rect fill="#f2f5e9" fill-opacity="0.5" stroke="#606060" stroke-width=".5" x="0" y="0" width="60" height="60"/>
                <use id="zoomplus" xlink:href="#zoomPlus" x="17" y="9" onmousedown="handleZoom(evt,'in')"/>
                <use id="zoomminus" xlink:href="#zoomMin" x="42" y="9" onmousedown="handleZoom(evt,'out')"/>
                <use id="reset" xlink:href="#resetDef" x="30" y="36" onmousedown="handleReset()"/>
                <g id="arrowUp" xlink:href="#dirArrow" transform="translate(30 24)" onmousedown="handlePan(0,-1)">
                  <use xlink:href="#rim" fill="#404040">
                        <set attributeName="fill" to="#808080" begin="arrowUp.mouseover" end="arrowUp.mouseout"/>
                  </use>
                  <path fill="none" stroke="white" stroke-width="1.5" d="M0,-3.0v7 M-2.5,-0.5L0,-3.0L2.5,-0.5"/>
                </g>
                <g id="arrowRight" xlink:href="#dirArrow" transform="rotate(90) translate(36 -43)" onmousedown="handlePan(1,0)">
                  <use xlink:href="#rim" fill="#404040">
                        <set attributeName="fill" to="#808080" begin="arrowRight.mouseover" end="arrowRight.mouseout"/>
                  </use>
                  <path fill="none" stroke="white" stroke-width="1.5" d="M0,-3.0v7 M-2.5,-0.5L0,-3.0L2.5,-0.5"/>
                </g>
                <g id="arrowDown" xlink:href="#dirArrow" transform="rotate(180) translate(-30 -48)" onmousedown="handlePan(0,1)">
                  <use xlink:href="#rim" fill="#404040">
                        <set attributeName="fill" to="#808080" begin="arrowDown.mouseover" end="arrowDown.mouseout"/>
                  </use>
                  <path fill="none" stroke="white" stroke-width="1.5" d="M0,-3.0v7 M-2.5,-0.5L0,-3.0L2.5,-0.5"/>
                </g>
                <g id="arrowLeft" xlink:href="#dirArrow" transform="rotate(270) translate(-36 17)" onmousedown="handlePan(-1,0)">
                  <use xlink:href="#rim" fill="#404040">
                        <set attributeName="fill" to="#808080" begin="arrowLeft.mouseover" end="arrowLeft.mouseout"/>
                  </use>
                  <path fill="none" stroke="white" stroke-width="1.5" d="M0,-3.0v7 M-2.5,-0.5L0,-3.0L2.5,-0.5"/>
                </g>
        </g>
        <svg viewBox="0 0 15 15" width="100%" height="30px" preserveAspectRatio="xMaxYMin meet">
         <g id="arrow_out" transform="scale(0.3 0.3)">
          <a xlink:href="drive_8c_a8224a4626a934d30ed587671b7004bf8_cgraph_org.svg" target="_base">
           <rect id="button" ry="5" rx="5" y="6" x="6" height="38" width="38"
                fill="#f2f5e9" fill-opacity="0.5" stroke="#606060" stroke-width="1.0"/>
           <path id="arrow"
             d="M 11.500037,31.436501 C 11.940474,20.09759 22.043105,11.32322 32.158766,21.979434 L 37.068811,17.246167 C 37.068811,17.246167 37.088388,32 37.088388,32 L 22.160133,31.978069 C 22.160133,31.978069 26.997745,27.140456 26.997745,27.140456 C 18.528582,18.264221 13.291696,25.230495 11.500037,31.436501 z"
             style="fill:#404040;"/>
          </a>
         </g>
        </svg>
</svg>
