<?xml version="1.0" encoding="UTF-8" standalone="no"?>
<!DOCTYPE svg PUBLIC "-//W3C//DTD SVG 1.1//EN"
 "http://www.w3.org/Graphics/SVG/1.1/DTD/svg11.dtd">
<!-- Generated by graphviz version 2.40.1 (20161225.0304)
 -->
<!-- Title: src/drive.c Pages: 1 -->
<svg width="431pt" height="302pt"
 viewBox="0.00 0.00 430.98 302.00" xmlns="http://www.w3.org/2000/svg" xmlns:xlink="http://www.w3.org/1999/xlink">
<g id="graph0" class="graph" transform="scale(1 1) rotate(0) translate(4 298)">
<title>src/drive.c</title>
<!-- Node0 -->
<g id="node1" class="node">
<title>Node0</title>
<polygon fill="#bfbfbf" stroke="#000000" points="241.0484,-275.5 241.0484,-293.5 302.6099,-293.5 302.6099,-275.5 241.0484,-275.5"/>
<text text-anchor="middle" x="271.8291" y="-281.5" font-family="Helvetica,sans-Serif" font-size="10.00" fill="#000000">src/drive.c</text>
</g>
<!-- Node1 -->
<g id="node2" class="node">
<title>Node1</title>
<g id="a_node2"><a xlink:href="drive_8h.html" target="_top" xlink:title="Drive base definitions and enumerations. ">
<polygon fill="none" stroke="#000000" points="159.8218,-220.5 159.8218,-238.5 205.8365,-238.5 205.8365,-220.5 159.8218,-220.5"/>
<text text-anchor="middle" x="182.8291" y="-226.5" font-family="Helvetica,sans-Serif" font-size="10.00" fill="#000000">drive.h</text>
</a>
</g>
</g>
<!-- Node0&#45;&gt;Node1 -->
<g id="edge1" class="edge">
<title>Node0&#45;&gt;Node1</title>
<path fill="none" stroke="#191970" d="M257.1326,-275.4179C243.3478,-266.8992 222.5014,-254.0166 206.3943,-244.0627"/>
<polygon fill="#191970" stroke="#191970" points="207.8942,-240.8753 197.5475,-238.5956 204.2143,-246.83 207.8942,-240.8753"/>
</g>
<!-- Node2 -->
<g id="node3" class="node">
<title>Node2</title>
<polygon fill="none" stroke="#bfbfbf" points="168.6001,-55.5 168.6001,-73.5 209.0581,-73.5 209.0581,-55.5 168.6001,-55.5"/>
<text text-anchor="middle" x="188.8291" y="-61.5" font-family="Helvetica,sans-Serif" font-size="10.00" fill="#000000">API.h</text>
</g>
<!-- Node0&#45;&gt;Node2 -->
<g id="edge19" class="edge">
<title>Node0&#45;&gt;Node2</title>
<path fill="none" stroke="#191970" d="M273.8789,-275.4051C278.082,-255.2937 286.6499,-205.6101 278.8291,-165 273.8504,-139.1476 273.4001,-130.4582 256.8291,-110 246.2233,-96.9063 230.8456,-86.1775 217.3956,-78.4334"/>
<polygon fill="#191970" stroke="#191970" points="218.9278,-75.2822 208.4744,-73.5566 215.5701,-81.4244 218.9278,-75.2822"/>
</g>
<!-- Node4 -->
<g id="node5" class="node">
<title>Node4</title>
<g id="a_node5"><a xlink:href="controller_8h.html" target="_top" xlink:title="controller definitions, macros and functions to assist with usig the vex controllers. ">
<polygon fill="none" stroke="#000000" points="325.3687,-110.5 325.3687,-128.5 390.2896,-128.5 390.2896,-110.5 325.3687,-110.5"/>
<text text-anchor="middle" x="357.8291" y="-116.5" font-family="Helvetica,sans-Serif" font-size="10.00" fill="#000000">controller.h</text>
</a>
</g>
</g>
<!-- Node0&#45;&gt;Node4 -->
<g id="edge11" class="edge">
<title>Node0&#45;&gt;Node4</title>
<path fill="none" stroke="#191970" d="M302.6689,-281.6939C329.908,-277.3975 368.1195,-266.5233 386.8291,-239 408.2201,-207.5322 385.7691,-161.9579 370.1543,-137.1721"/>
<polygon fill="#191970" stroke="#191970" points="373.0368,-135.1855 364.6102,-128.7634 367.1927,-139.0386 373.0368,-135.1855"/>
</g>
<!-- Node5 -->
<g id="node6" class="node">
<title>Node5</title>
<g id="a_node6"><a xlink:href="vmath_8h.html" target="_top" xlink:title="Vex Specific Math Functions, includes: Cartesian to polar cordinates. ">
<polygon fill="none" stroke="#000000" points="332.0435,-55.5 332.0435,-73.5 383.6148,-73.5 383.6148,-55.5 332.0435,-55.5"/>
<text text-anchor="middle" x="357.8291" y="-61.5" font-family="Helvetica,sans-Serif" font-size="10.00" fill="#000000">vmath.h</text>
</a>
</g>
</g>
<!-- Node0&#45;&gt;Node5 -->
<g id="edge10" class="edge">
<title>Node0&#45;&gt;Node5</title>
<path fill="none" stroke="#191970" d="M302.7711,-278.1553C337.9019,-270.2502 391.9023,-255.7266 403.8291,-239 437.1401,-192.2835 420.8528,-162.9812 398.8291,-110 394.1277,-98.6901 385.3564,-88.3462 377.1296,-80.3888"/>
<polygon fill="#191970" stroke="#191970" points="379.3223,-77.6527 369.5594,-73.5372 374.6249,-82.8427 379.3223,-77.6527"/>
</g>
<!-- Node7 -->
<g id="node8" class="node">
<title>Node7</title>
<g id="a_node8"><a xlink:href="motor__ports_8h.html" target="_top" xlink:title="The motor port definitionsMacros for the different motors ports. ">
<polygon fill="none" stroke="#000000" points="299.982,-220.5 299.982,-238.5 377.6763,-238.5 377.6763,-220.5 299.982,-220.5"/>
<text text-anchor="middle" x="338.8291" y="-226.5" font-family="Helvetica,sans-Serif" font-size="10.00" fill="#000000">motor_ports.h</text>
</a>
</g>
</g>
<!-- Node0&#45;&gt;Node7 -->
<g id="edge9" class="edge">
<title>Node0&#45;&gt;Node7</title>
<path fill="none" stroke="#191970" d="M282.8928,-275.4179C292.8224,-267.2667 307.6192,-255.1201 319.5003,-245.3669"/>
<polygon fill="#191970" stroke="#191970" points="322.0165,-247.8297 327.5251,-238.7795 317.575,-242.4192 322.0165,-247.8297"/>
</g>
<!-- Node8 -->
<g id="node9" class="node">
<title>Node8</title>
<g id="a_node9"><a xlink:href="slew_8h.html" target="_top" xlink:title="Contains the slew rate controller wrapper for the motors. ">
<polygon fill="none" stroke="#000000" points="37.9302,-165.5 37.9302,-183.5 81.7281,-183.5 81.7281,-165.5 37.9302,-165.5"/>
<text text-anchor="middle" x="59.8291" y="-171.5" font-family="Helvetica,sans-Serif" font-size="10.00" fill="#000000">slew.h</text>
</a>
</g>
</g>
<!-- Node0&#45;&gt;Node8 -->
<g id="edge12" class="edge">
<title>Node0&#45;&gt;Node8</title>
<path fill="none" stroke="#191970" d="M241.3105,-275.437C216.2657,-267.4373 180.2646,-254.6302 150.8291,-239 124.226,-224.8737 96.3555,-204.1015 78.5792,-189.9747"/>
<polygon fill="#191970" stroke="#191970" points="80.6948,-187.1845 70.7134,-183.6318 76.3008,-192.6336 80.6948,-187.1845"/>
</g>
<!-- Node11 -->
<g id="node12" class="node">
<title>Node11</title>
<g id="a_node12"><a xlink:href="log_8h.html" target="_top" xlink:title="Contains logging functions. ">
<polygon fill="none" stroke="#000000" points="157.9869,-165.5 157.9869,-183.5 195.6714,-183.5 195.6714,-165.5 157.9869,-165.5"/>
<text text-anchor="middle" x="176.8291" y="-171.5" font-family="Helvetica,sans-Serif" font-size="10.00" fill="#000000">log.h</text>
</a>
</g>
</g>
<!-- Node0&#45;&gt;Node11 -->
<g id="edge20" class="edge">
<title>Node0&#45;&gt;Node11</title>
<path fill="none" stroke="#191970" d="M264.0549,-275.4982C248.1891,-257.1273 211.8598,-215.0619 191.4447,-191.4233"/>
<polygon fill="#191970" stroke="#191970" points="193.8959,-188.9067 184.7108,-183.6261 188.5981,-193.4821 193.8959,-188.9067"/>
</g>
<!-- Node1&#45;&gt;Node2 -->
<g id="edge2" class="edge">
<title>Node1&#45;&gt;Node2</title>
<path fill="none" stroke="#191970" d="M173.2187,-220.4497C164.9497,-211.9492 153.6187,-198.4111 148.8291,-184 146.1658,-175.9865 147.2393,-173.2934 148.8291,-165 154.6096,-134.8452 169.3225,-102.2143 179.2002,-82.5704"/>
<polygon fill="#191970" stroke="#191970" points="182.3728,-84.0546 183.8519,-73.5635 176.1533,-80.8424 182.3728,-84.0546"/>
</g>
<!-- Node3 -->
<g id="node4" class="node">
<title>Node3</title>
<g id="a_node4"><a xlink:href="partner_8h.html" target="_top" xlink:title="partner.h">
<polygon fill="none" stroke="#000000" points="214.0904,-165.5 214.0904,-183.5 269.5679,-183.5 269.5679,-165.5 214.0904,-165.5"/>
<text text-anchor="middle" x="241.8291" y="-171.5" font-family="Helvetica,sans-Serif" font-size="10.00" fill="#000000">partner.h</text>
</a>
</g>
</g>
<!-- Node1&#45;&gt;Node3 -->
<g id="edge3" class="edge">
<title>Node1&#45;&gt;Node3</title>
<path fill="none" stroke="#191970" d="M192.5718,-220.4179C201.2309,-212.3458 214.0931,-200.3556 224.5028,-190.6517"/>
<polygon fill="#191970" stroke="#191970" points="226.9467,-193.1584 231.8748,-183.7795 222.1735,-188.0381 226.9467,-193.1584"/>
</g>
<!-- Node3&#45;&gt;Node2 -->
<g id="edge8" class="edge">
<title>Node3&#45;&gt;Node2</title>
<path fill="none" stroke="#191970" d="M243.9404,-165.2231C246.4178,-152.206 249.2069,-128.0888 240.8291,-110 235.0394,-97.4992 223.9794,-87.0575 213.5428,-79.3432"/>
<polygon fill="#191970" stroke="#191970" points="215.2784,-76.2894 205.0521,-73.5193 211.3189,-82.062 215.2784,-76.2894"/>
</g>
<!-- Node3&#45;&gt;Node4 -->
<g id="edge4" class="edge">
<title>Node3&#45;&gt;Node4</title>
<path fill="none" stroke="#191970" d="M260.9842,-165.4179C279.6226,-156.5807 308.1658,-143.0473 329.4427,-132.9591"/>
<polygon fill="#191970" stroke="#191970" points="331.1093,-136.0424 338.6456,-128.5956 328.1103,-129.7174 331.1093,-136.0424"/>
</g>
<!-- Node4&#45;&gt;Node2 -->
<g id="edge7" class="edge">
<title>Node4&#45;&gt;Node2</title>
<path fill="none" stroke="#191970" d="M329.9222,-110.4179C299.2985,-100.4516 250.3213,-84.5122 218.8737,-74.2778"/>
<polygon fill="#191970" stroke="#191970" points="219.9172,-70.9368 209.3249,-71.1702 217.7509,-77.5932 219.9172,-70.9368"/>
</g>
<!-- Node4&#45;&gt;Node5 -->
<g id="edge5" class="edge">
<title>Node4&#45;&gt;Node5</title>
<path fill="none" stroke="#191970" d="M357.8291,-110.4179C357.8291,-103.2164 357.8291,-92.8962 357.8291,-83.8632"/>
<polygon fill="#191970" stroke="#191970" points="361.3292,-83.7794 357.8291,-73.7795 354.3292,-83.7795 361.3292,-83.7794"/>
</g>
<!-- Node6 -->
<g id="node7" class="node">
<title>Node6</title>
<polygon fill="none" stroke="#bfbfbf" points="72.5435,-.5 72.5435,-18.5 119.1148,-18.5 119.1148,-.5 72.5435,-.5"/>
<text text-anchor="middle" x="95.8291" y="-6.5" font-family="Helvetica,sans-Serif" font-size="10.00" fill="#000000">math.h</text>
</g>
<!-- Node5&#45;&gt;Node6 -->
<g id="edge6" class="edge">
<title>Node5&#45;&gt;Node6</title>
<path fill="none" stroke="#191970" d="M331.7497,-59.0253C283.819,-48.9635 181.8081,-27.549 129.0191,-16.4674"/>
<polygon fill="#191970" stroke="#191970" points="129.654,-13.0244 119.1482,-14.3952 128.2158,-19.8751 129.654,-13.0244"/>
</g>
<!-- Node8&#45;&gt;Node2 -->
<g id="edge13" class="edge">
<title>Node8&#45;&gt;Node2</title>
<path fill="none" stroke="#191970" d="M66.008,-165.3494C75.291,-152.0564 93.8857,-127.126 113.8291,-110 128.1409,-97.7101 146.1617,-86.6609 160.9517,-78.5291"/>
<polygon fill="#191970" stroke="#191970" points="162.9627,-81.423 170.1329,-73.623 159.6636,-75.2492 162.9627,-81.423"/>
</g>
<!-- Node8&#45;&gt;Node6 -->
<g id="edge14" class="edge">
<title>Node8&#45;&gt;Node6</title>
<path fill="none" stroke="#191970" d="M45.4432,-165.2369C34.3075,-157.1627 19.6672,-144.3544 12.8291,-129 -.5559,-98.9449 -6.0767,-83.2252 10.8291,-55 22.0565,-36.2553 43.9352,-24.7964 62.6833,-18.0669"/>
<polygon fill="#191970" stroke="#191970" points="63.9944,-21.3205 72.4084,-14.882 61.8157,-14.6682 63.9944,-21.3205"/>
</g>
<!-- Node9 -->
<g id="node10" class="node">
<title>Node9</title>
<g id="a_node10"><a xlink:href="vlib_8h.html" target="_top" xlink:title="Contains misc helpful functions. ">
<polygon fill="none" stroke="#000000" points="22.1568,-110.5 22.1568,-128.5 61.5015,-128.5 61.5015,-110.5 22.1568,-110.5"/>
<text text-anchor="middle" x="41.8291" y="-116.5" font-family="Helvetica,sans-Serif" font-size="10.00" fill="#000000">vlib.h</text>
</a>
</g>
</g>
<!-- Node8&#45;&gt;Node9 -->
<g id="edge15" class="edge">
<title>Node8&#45;&gt;Node9</title>
<path fill="none" stroke="#191970" d="M56.8568,-165.4179C54.474,-158.1372 51.0481,-147.669 48.0689,-138.5659"/>
<polygon fill="#191970" stroke="#191970" points="51.3029,-137.1948 44.866,-128.7795 44.6501,-139.3721 51.3029,-137.1948"/>
</g>
<!-- Node9&#45;&gt;Node2 -->
<g id="edge17" class="edge">
<title>Node9&#45;&gt;Node2</title>
<path fill="none" stroke="#191970" d="M61.6542,-112.0825C86.6109,-102.7449 129.7211,-86.6152 158.748,-75.7549"/>
<polygon fill="#191970" stroke="#191970" points="160.2355,-78.9353 168.3749,-72.1529 157.7825,-72.3792 160.2355,-78.9353"/>
</g>
<!-- Node9&#45;&gt;Node6 -->
<g id="edge16" class="edge">
<title>Node9&#45;&gt;Node6</title>
<path fill="none" stroke="#191970" d="M50.4485,-110.4374C58.3198,-101.719 69.7731,-87.8536 76.8291,-74 84.1968,-59.5345 89.1666,-41.7521 92.1695,-28.5247"/>
<polygon fill="#191970" stroke="#191970" points="95.6117,-29.1635 94.2389,-18.6579 88.7607,-27.7266 95.6117,-29.1635"/>
</g>
<!-- Node10 -->
<g id="node11" class="node">
<title>Node10</title>
<polygon fill="none" stroke="#bfbfbf" points="19.4327,-55.5 19.4327,-73.5 68.2256,-73.5 68.2256,-55.5 19.4327,-55.5"/>
<text text-anchor="middle" x="43.8291" y="-61.5" font-family="Helvetica,sans-Serif" font-size="10.00" fill="#000000">string.h</text>
</g>
<!-- Node9&#45;&gt;Node10 -->
<g id="edge18" class="edge">
<title>Node9&#45;&gt;Node10</title>
<path fill="none" stroke="#191970" d="M42.1594,-110.4179C42.4213,-103.2164 42.7965,-92.8962 43.125,-83.8632"/>
<polygon fill="#191970" stroke="#191970" points="46.6259,-83.9001 43.4917,-73.7795 39.6305,-83.6456 46.6259,-83.9001"/>
</g>
<!-- Node11&#45;&gt;Node2 -->
<g id="edge21" class="edge">
<title>Node11&#45;&gt;Node2</title>
<path fill="none" stroke="#191970" d="M177.8111,-165.4982C179.7537,-147.6913 184.1249,-107.6225 186.7399,-83.6515"/>
<polygon fill="#191970" stroke="#191970" points="190.2284,-83.9468 187.8336,-73.6261 183.2696,-83.1876 190.2284,-83.9468"/>
</g>
<!-- Node12 -->
<g id="node13" class="node">
<title>Node12</title>
<g id="a_node13"><a xlink:href="lcd_8h.html" target="_top" xlink:title="LCD wrapper functions and macros. ">
<polygon fill="none" stroke="#000000" points="194.2676,-110.5 194.2676,-128.5 231.3907,-128.5 231.3907,-110.5 194.2676,-110.5"/>
<text text-anchor="middle" x="212.8291" y="-116.5" font-family="Helvetica,sans-Serif" font-size="10.00" fill="#000000">lcd.h</text>
</a>
</g>
</g>
<!-- Node11&#45;&gt;Node12 -->
<g id="edge22" class="edge">
<title>Node11&#45;&gt;Node12</title>
<path fill="none" stroke="#191970" d="M182.7738,-165.4179C187.7465,-157.8207 194.991,-146.7527 201.1215,-137.3866"/>
<polygon fill="#191970" stroke="#191970" points="204.2071,-139.0633 206.7553,-128.7795 198.3502,-135.2297 204.2071,-139.0633"/>
</g>
<!-- Node12&#45;&gt;Node2 -->
<g id="edge23" class="edge">
<title>Node12&#45;&gt;Node2</title>
<path fill="none" stroke="#191970" d="M208.866,-110.4179C205.62,-102.9789 200.9218,-92.2123 196.8906,-82.9742"/>
<polygon fill="#191970" stroke="#191970" points="200.0857,-81.545 192.8784,-73.7795 193.67,-84.3447 200.0857,-81.545"/>
</g>
</g>
</svg>
