<?xml version="1.0" encoding="UTF-8" standalone="no"?>
<!DOCTYPE svg PUBLIC "-//W3C//DTD SVG 1.1//EN"
 "http://www.w3.org/Graphics/SVG/1.1/DTD/svg11.dtd">
<!-- Generated by graphviz version 2.40.1 (20161225.0304)
 -->
<!-- Title: set_side_speed Pages: 1 -->
<svg width="361pt" height="150pt"
 viewBox="0.00 0.00 361.48 150.00" xmlns="http://www.w3.org/2000/svg" xmlns:xlink="http://www.w3.org/1999/xlink">
<g id="graph0" class="graph" transform="scale(1 1) rotate(0) translate(4 146)">
<title>set_side_speed</title>
<!-- Node21 -->
<g id="node1" class="node">
<title>Node21</title>
<polygon fill="#bfbfbf" stroke="#000000" points="0,-56.5 0,-74.5 86.0537,-74.5 86.0537,-56.5 0,-56.5"/>
<text text-anchor="middle" x="43.0269" y="-62.5" font-family="Helvetica,sans-Serif" font-size="10.00" fill="#000000">set_side_speed</text>
</g>
<!-- Node22 -->
<g id="node2" class="node">
<title>Node22</title>
<g id="a_node2"><a xlink:href="auto_8c.html#a42084538c07a7089a1fe425c4f97650a" target="_top" xlink:title="Drives the robot forward until it reaches the mobile goal. ">
<polygon fill="none" stroke="#000000" points="122.6079,-113.5 122.6079,-141.5 231.4448,-141.5 231.4448,-113.5 122.6079,-113.5"/>
<text text-anchor="start" x="130.6079" y="-129.5" font-family="Helvetica,sans-Serif" font-size="10.00" fill="#000000">auton_drive_towards</text>
<text text-anchor="middle" x="177.0264" y="-119.5" font-family="Helvetica,sans-Serif" font-size="10.00" fill="#000000">_mobile_goal</text>
</a>
</g>
</g>
<!-- Node21&#45;&gt;Node22 -->
<g id="edge1" class="edge">
<title>Node21&#45;&gt;Node22</title>
<path fill="none" stroke="#191970" d="M71.6986,-78.7661C93.746,-88.9671 124.1369,-103.0287 146.6093,-113.4264"/>
<polygon fill="#191970" stroke="#191970" points="73.0569,-75.5381 62.5115,-74.5153 70.1174,-81.891 73.0569,-75.5381"/>
</g>
<!-- Node23 -->
<g id="node3" class="node">
<title>Node23</title>
<g id="a_node3"><a xlink:href="auto_8c.html#a3c7ca506bbc071fa740de13805b7f376" target="_top" xlink:title="Runs the user autonomous code. ">
<polygon fill="none" stroke="#000000" points="275.2207,-75.5 275.2207,-93.5 346.2598,-93.5 346.2598,-75.5 275.2207,-75.5"/>
<text text-anchor="middle" x="310.7402" y="-81.5" font-family="Helvetica,sans-Serif" font-size="10.00" fill="#000000">autonomous</text>
</a>
</g>
</g>
<!-- Node21&#45;&gt;Node23 -->
<g id="edge5" class="edge">
<title>Node21&#45;&gt;Node23</title>
<path fill="none" stroke="#191970" d="M96.58,-69.3007C149.6661,-73.0683 229.4846,-78.7332 275.1991,-81.9776"/>
<polygon fill="#191970" stroke="#191970" points="96.5599,-65.7906 86.3372,-68.5738 96.0643,-72.773 96.5599,-65.7906"/>
</g>
<!-- Node24 -->
<g id="node4" class="node">
<title>Node24</title>
<g id="a_node4"><a xlink:href="auto_8c.html#a8141105864165fcb16d70f7cc72a1b6f" target="_top" xlink:title="Rotates the robot 180 degrees clockwise. ">
<polygon fill="none" stroke="#000000" points="133.9946,-37.5 133.9946,-55.5 220.0581,-55.5 220.0581,-37.5 133.9946,-37.5"/>
<text text-anchor="middle" x="177.0264" y="-43.5" font-family="Helvetica,sans-Serif" font-size="10.00" fill="#000000">auton_turn_180</text>
</a>
</g>
</g>
<!-- Node21&#45;&gt;Node24 -->
<g id="edge3" class="edge">
<title>Node21&#45;&gt;Node24</title>
<path fill="none" stroke="#191970" d="M96.0649,-57.9797C108.6404,-56.1966 121.9026,-54.3161 133.9713,-52.6048"/>
<polygon fill="#191970" stroke="#191970" points="95.5723,-54.5144 86.1627,-59.3837 96.5551,-61.4451 95.5723,-54.5144"/>
</g>
<!-- Node25 -->
<g id="node5" class="node">
<title>Node25</title>
<g id="a_node5"><a xlink:href="drive_8c.html#a8224a4626a934d30ed587671b7004bf8" target="_top" xlink:title="Updates the drive motors during teleop. ">
<polygon fill="none" stroke="#000000" points="122.0537,-.5 122.0537,-18.5 231.999,-18.5 231.999,-.5 122.0537,-.5"/>
<text text-anchor="middle" x="177.0264" y="-6.5" font-family="Helvetica,sans-Serif" font-size="10.00" fill="#000000">update_drive_motors</text>
</a>
</g>
</g>
<!-- Node21&#45;&gt;Node25 -->
<g id="edge6" class="edge">
<title>Node21&#45;&gt;Node25</title>
<path fill="none" stroke="#191970" d="M69.5801,-51.6504C84.7334,-44.0221 104.2104,-34.6749 122.0537,-27.5 130.0667,-24.2779 138.8998,-21.1893 147.0978,-18.5081"/>
<polygon fill="#191970" stroke="#191970" points="67.6284,-48.7167 60.3072,-56.3751 70.8062,-54.9538 67.6284,-48.7167"/>
</g>
<!-- Node22&#45;&gt;Node23 -->
<g id="edge2" class="edge">
<title>Node22&#45;&gt;Node23</title>
<path fill="none" stroke="#191970" d="M230.5085,-110.3011C248.2708,-104.5891 267.3463,-98.4547 282.4392,-93.6011"/>
<polygon fill="#191970" stroke="#191970" points="229.2576,-107.0268 220.8093,-113.4202 231.4007,-113.6907 229.2576,-107.0268"/>
</g>
<!-- Node24&#45;&gt;Node23 -->
<g id="edge4" class="edge">
<title>Node24&#45;&gt;Node23</title>
<path fill="none" stroke="#191970" d="M218.5293,-58.2947C237.9644,-63.8179 260.755,-70.2948 278.816,-75.4275"/>
<polygon fill="#191970" stroke="#191970" points="219.2906,-54.8725 208.7147,-55.5055 217.377,-61.6059 219.2906,-54.8725"/>
</g>
<!-- Node26 -->
<g id="node6" class="node">
<title>Node26</title>
<g id="a_node6"><a xlink:href="opcontrol_8c.html#ac71a94af413917f27d108e95c4d6f6a7" target="_top" xlink:title="Runs the user operator control code. ">
<polygon fill="none" stroke="#000000" points="267.999,-.5 267.999,-18.5 353.4814,-18.5 353.4814,-.5 267.999,-.5"/>
<text text-anchor="middle" x="310.7402" y="-6.5" font-family="Helvetica,sans-Serif" font-size="10.00" fill="#000000">operatorControl</text>
</a>
</g>
</g>
<!-- Node25&#45;&gt;Node26 -->
<g id="edge7" class="edge">
<title>Node25&#45;&gt;Node26</title>
<path fill="none" stroke="#191970" d="M242.3475,-9.5C251.0483,-9.5 259.7837,-9.5 267.964,-9.5"/>
<polygon fill="#191970" stroke="#191970" points="242.1849,-6.0001 232.1849,-9.5 242.1849,-13.0001 242.1849,-6.0001"/>
</g>
</g>
</svg>
