<?xml version="1.0" encoding="UTF-8" standalone="no"?>
<!DOCTYPE svg PUBLIC "-//W3C//DTD SVG 1.1//EN"
 "http://www.w3.org/Graphics/SVG/1.1/DTD/svg11.dtd">
<!-- Generated by graphviz version 2.40.1 (20161225.0304)
 -->
<!-- Title: update_drive_motors Pages: 1 -->
<svg width="343pt" height="101pt"
 viewBox="0.00 0.00 342.56 101.00" xmlns="http://www.w3.org/2000/svg" xmlns:xlink="http://www.w3.org/1999/xlink">
<g id="graph0" class="graph" transform="scale(1 1) rotate(0) translate(4 97)">
<title>update_drive_motors</title>
<!-- Node5 -->
<g id="node1" class="node">
<title>Node5</title>
<polygon fill="#bfbfbf" stroke="#000000" points="0,-37.5 0,-55.5 109.9453,-55.5 109.9453,-37.5 0,-37.5"/>
<text text-anchor="middle" x="54.9727" y="-43.5" font-family="Helvetica,sans-Serif" font-size="10.00" fill="#000000">update_drive_motors</text>
</g>
<!-- Node6 -->
<g id="node2" class="node">
<title>Node6</title>
<g id="a_node2"><a xlink:href="drive_8c.html#a6de4fbb9197f2f350c53a9f8bf23a8f1" target="_top" xlink:title="Applies exponential scale to a joystick value. ">
<polygon fill="none" stroke="#000000" points="160.9575,-74.5 160.9575,-92.5 226.9722,-92.5 226.9722,-74.5 160.9575,-74.5"/>
<text text-anchor="middle" x="193.9648" y="-80.5" font-family="Helvetica,sans-Serif" font-size="10.00" fill="#000000">joystickExp</text>
</a>
</g>
</g>
<!-- Node5&#45;&gt;Node6 -->
<g id="edge1" class="edge">
<title>Node5&#45;&gt;Node6</title>
<path fill="none" stroke="#191970" d="M88.974,-55.5512C107.6746,-60.5294 131.0625,-66.7553 151.0148,-72.0666"/>
<polygon fill="#191970" stroke="#191970" points="150.2303,-75.4796 160.7942,-74.6699 152.0311,-68.7152 150.2303,-75.4796"/>
</g>
<!-- Node7 -->
<g id="node3" class="node">
<title>Node7</title>
<g id="a_node3"><a xlink:href="_a_p_i_8h.html#ad56fcec15d1a48deb8780bb0fc38be4d" target="_top" xlink:title="joystickGetAnalog">
<polygon fill="none" stroke="#000000" points="145.9453,-37.5 145.9453,-55.5 241.9844,-55.5 241.9844,-37.5 145.9453,-37.5"/>
<text text-anchor="middle" x="193.9648" y="-43.5" font-family="Helvetica,sans-Serif" font-size="10.00" fill="#000000">joystickGetAnalog</text>
</a>
</g>
</g>
<!-- Node5&#45;&gt;Node7 -->
<g id="edge2" class="edge">
<title>Node5&#45;&gt;Node7</title>
<path fill="none" stroke="#191970" d="M110.3054,-46.5C118.5938,-46.5 127.1629,-46.5 135.5137,-46.5"/>
<polygon fill="#191970" stroke="#191970" points="135.5579,-50.0001 145.5579,-46.5 135.5579,-43.0001 135.5579,-50.0001"/>
</g>
<!-- Node8 -->
<g id="node4" class="node">
<title>Node8</title>
<g id="a_node4"><a xlink:href="drive_8c.html#a8df41fd50094c065eedc81fc5e6595d1" target="_top" xlink:title="sets the speed of one side of the robot. ">
<polygon fill="none" stroke="#000000" points="150.938,-.5 150.938,-18.5 236.9917,-18.5 236.9917,-.5 150.938,-.5"/>
<text text-anchor="middle" x="193.9648" y="-6.5" font-family="Helvetica,sans-Serif" font-size="10.00" fill="#000000">set_side_speed</text>
</a>
</g>
</g>
<!-- Node5&#45;&gt;Node8 -->
<g id="edge3" class="edge">
<title>Node5&#45;&gt;Node8</title>
<path fill="none" stroke="#191970" d="M88.974,-37.4488C107.3996,-32.5438 130.3756,-26.4276 150.1323,-21.1683"/>
<polygon fill="#191970" stroke="#191970" points="151.0697,-24.5407 159.8328,-18.586 149.269,-17.7763 151.0697,-24.5407"/>
</g>
<!-- Node9 -->
<g id="node5" class="node">
<title>Node9</title>
<g id="a_node5"><a xlink:href="_a_p_i_8h.html#a03c5b04b472d024281f62d7af8854a8e" target="_top" xlink:title="motorSet">
<polygon fill="none" stroke="#000000" points="277.9844,-.5 277.9844,-18.5 334.5557,-18.5 334.5557,-.5 277.9844,-.5"/>
<text text-anchor="middle" x="306.27" y="-6.5" font-family="Helvetica,sans-Serif" font-size="10.00" fill="#000000">motorSet</text>
</a>
</g>
</g>
<!-- Node8&#45;&gt;Node9 -->
<g id="edge4" class="edge">
<title>Node8&#45;&gt;Node9</title>
<path fill="none" stroke="#191970" d="M237.0638,-9.5C247.0575,-9.5 257.6352,-9.5 267.4333,-9.5"/>
<polygon fill="#191970" stroke="#191970" points="267.6947,-13.0001 277.6947,-9.5 267.6946,-6.0001 267.6947,-13.0001"/>
</g>
</g>
</svg>
