<?xml version="1.0" encoding="UTF-8" standalone="no"?>
<!DOCTYPE svg PUBLIC "-//W3C//DTD SVG 1.1//EN"
 "http://www.w3.org/Graphics/SVG/1.1/DTD/svg11.dtd">
<!-- Generated by graphviz version 2.40.1 (20161225.0304)
 -->
<!-- Title: update_drive_motors Pages: 1 -->
<!--zoomable 269 -->
<svg id="main" version="1.1" xmlns="http://www.w3.org/2000/svg" xmlns:xlink="http://www.w3.org/1999/xlink" xml:space="preserve" onload="init(evt)">
<style type="text/css"><![CDATA[
.edge:hover path { stroke: red; }
.edge:hover polygon { stroke: red; fill: red; }
]]></style>
<script type="text/javascript"><![CDATA[
var edges = document.getElementsByTagName('g');
if (edges && edges.length) {
  for (var i=0;i<edges.length;i++) {
    if (edges[i].id.substr(0,4)=='edge') {
      edges[i].setAttribute('class','edge');
    }
  }
}
]]></script>
        <defs>
                <circle id="rim" cx="0" cy="0" r="7"/>
                <circle id="rim2" cx="0" cy="0" r="3.5"/>
                <g id="zoomPlus">
                        <use xlink:href="#rim" fill="#404040">
                                <set attributeName="fill" to="#808080" begin="zoomplus.mouseover" end="zoomplus.mouseout"/>
                        </use>
                        <path d="M-4,0h8M0,-4v8" fill="none" stroke="white" stroke-width="1.5" pointer-events="none"/>
                </g>
                <g id="zoomMin">
                        <use xlink:href="#rim" fill="#404040">
                                <set attributeName="fill" to="#808080" begin="zoomminus.mouseover" end="zoomminus.mouseout"/>
                        </use>
                        <path d="M-4,0h8" fill="none" stroke="white" stroke-width="1.5" pointer-events="none"/>
                </g>
                <g id="dirArrow">
                        <path fill="none" stroke="white" stroke-width="1.5" d="M0,-3.0v7 M-2.5,-0.5L0,-3.0L2.5,-0.5"/>
                </g>
               <g id="resetDef">
                       <use xlink:href="#rim2" fill="#404040">
                               <set attributeName="fill" to="#808080" begin="reset.mouseover" end="reset.mouseout"/>
                       </use>
               </g>
        </defs>

<script type="text/javascript">
var viewWidth = 796;
var viewHeight = 269;
var sectionId = 'dynsection-2';
</script>
<script xlink:href="svgpan.js"/>
<svg id="graph" class="graph">
<g id="viewport">
<title>update_drive_motors</title>
<!-- Node29 -->
<g id="node1" class="node">
<title>Node29</title>
<polygon fill="#bfbfbf" stroke="#000000" points="0,-92.5 0,-110.5 109.9453,-110.5 109.9453,-92.5 0,-92.5"/>
<text text-anchor="middle" x="54.9727" y="-98.5" font-family="Helvetica,sans-Serif" font-size="10.00" fill="#000000">update_drive_motors</text>
</g>
<!-- Node30 -->
<g id="node2" class="node">
<title>Node30</title>
<g id="a_node2"><a xlink:href="_a_p_i_8h.html#ad56fcec15d1a48deb8780bb0fc38be4d" target="_top" xlink:title="Gets the value of a control axis on the VEX joystick. ">
<polygon fill="none" stroke="#000000" points="145.9453,-111.5 145.9453,-129.5 241.9844,-129.5 241.9844,-111.5 145.9453,-111.5"/>
<text text-anchor="middle" x="193.9648" y="-117.5" font-family="Helvetica,sans-Serif" font-size="10.00" fill="#000000">joystickGetAnalog</text>
</a>
</g>
</g>
<!-- Node29&#45;&gt;Node30 -->
<g id="edge1" class="edge">
<title>Node29&#45;&gt;Node30</title>
<path fill="none" stroke="#191970" d="M110.3054,-109.0639C118.5938,-110.1969 127.1629,-111.3683 135.5137,-112.5098"/>
<polygon fill="#191970" stroke="#191970" points="135.176,-115.9961 145.5579,-113.8829 136.1241,-109.0606 135.176,-115.9961"/>
</g>
<!-- Node31 -->
<g id="node3" class="node">
<title>Node31</title>
<g id="a_node3"><a xlink:href="drive_8c.html#a8df41fd50094c065eedc81fc5e6595d1" target="_top" xlink:title="sets the speed of one side of the robot. ">
<polygon fill="none" stroke="#000000" points="150.938,-74.5 150.938,-92.5 236.9917,-92.5 236.9917,-74.5 150.938,-74.5"/>
<text text-anchor="middle" x="193.9648" y="-80.5" font-family="Helvetica,sans-Serif" font-size="10.00" fill="#000000">set_side_speed</text>
</a>
</g>
</g>
<!-- Node29&#45;&gt;Node31 -->
<g id="edge2" class="edge">
<title>Node29&#45;&gt;Node31</title>
<path fill="none" stroke="#191970" d="M110.3054,-94.3342C120.3066,-93.039 130.7165,-91.6909 140.6583,-90.4034"/>
<polygon fill="#191970" stroke="#191970" points="141.3449,-93.8438 150.8126,-89.0884 140.4459,-86.9018 141.3449,-93.8438"/>
</g>
<!-- Node32 -->
<g id="node4" class="node">
<title>Node32</title>
<g id="a_node4"><a xlink:href="slew_8h.html#a7dff2b79dffe55fb936d977594d7c01d" target="_top" xlink:title="Sets motor speed wrapped inside the slew rate controller. ">
<polygon fill="none" stroke="#000000" points="277.9844,-74.5 277.9844,-92.5 364.0137,-92.5 364.0137,-74.5 277.9844,-74.5"/>
<text text-anchor="middle" x="320.999" y="-80.5" font-family="Helvetica,sans-Serif" font-size="10.00" fill="#000000">set_motor_slew</text>
</a>
</g>
</g>
<!-- Node31&#45;&gt;Node32 -->
<g id="edge3" class="edge">
<title>Node31&#45;&gt;Node32</title>
<path fill="none" stroke="#191970" d="M237.3275,-83.5C247.1387,-83.5 257.6655,-83.5 267.8292,-83.5"/>
<polygon fill="#191970" stroke="#191970" points="267.8318,-87.0001 277.8318,-83.5 267.8318,-80.0001 267.8318,-87.0001"/>
</g>
<!-- Node33 -->
<g id="node5" class="node">
<title>Node33</title>
<g id="a_node5"><a xlink:href="log_8h.html#af3668f40d1ad1b4f3418869ac9a31f34" target="_top" xlink:title="prints a info message ">
<polygon fill="none" stroke="#000000" points="405.2847,-223.5 405.2847,-241.5 449.0923,-241.5 449.0923,-223.5 405.2847,-223.5"/>
<text text-anchor="middle" x="427.1885" y="-229.5" font-family="Helvetica,sans-Serif" font-size="10.00" fill="#000000">debug</text>
</a>
</g>
</g>
<!-- Node32&#45;&gt;Node33 -->
<g id="edge4" class="edge">
<title>Node32&#45;&gt;Node33</title>
<path fill="none" stroke="#191970" d="M327.6416,-92.8206C344.9985,-117.1749 391.9281,-183.0243 414.5964,-214.8314"/>
<polygon fill="#191970" stroke="#191970" points="411.8944,-217.0707 420.5484,-223.1829 417.5948,-213.0081 411.8944,-217.0707"/>
</g>
<!-- Node35 -->
<g id="node7" class="node">
<title>Node35</title>
<g id="a_node7"><a xlink:href="slew_8c.html#a321758941d88b75783955c819bb75005" target="_top" xlink:title="Initializes the slew rate controller. ">
<polygon fill="none" stroke="#000000" points="400.0137,-130.5 400.0137,-148.5 454.3633,-148.5 454.3633,-130.5 400.0137,-130.5"/>
<text text-anchor="middle" x="427.1885" y="-136.5" font-family="Helvetica,sans-Serif" font-size="10.00" fill="#000000">init_slew</text>
</a>
</g>
</g>
<!-- Node32&#45;&gt;Node35 -->
<g id="edge6" class="edge">
<title>Node32&#45;&gt;Node35</title>
<path fill="none" stroke="#191970" d="M338.5341,-92.7473C355.5437,-101.7174 381.5647,-115.4399 401.023,-125.7014"/>
<polygon fill="#191970" stroke="#191970" points="399.5017,-128.856 409.9797,-130.4248 402.767,-122.6642 399.5017,-128.856"/>
</g>
<!-- Node45 -->
<g id="node17" class="node">
<title>Node45</title>
<g id="a_node17"><a xlink:href="_a_p_i_8h.html#a8b51124628d2a7741738d48551d1e8ee" target="_top" xlink:title="Requests a mutex so that other tasks cannot simultaneously use the resource it guards. ">
<polygon fill="none" stroke="#000000" points="603.5107,-37.5 603.5107,-55.5 667.8652,-55.5 667.8652,-37.5 603.5107,-37.5"/>
<text text-anchor="middle" x="635.688" y="-43.5" font-family="Helvetica,sans-Serif" font-size="10.00" fill="#000000">mutexTake</text>
</a>
</g>
</g>
<!-- Node32&#45;&gt;Node45 -->
<g id="edge21" class="edge">
<title>Node32&#45;&gt;Node45</title>
<path fill="none" stroke="#191970" d="M364.0953,-78.4329C424.2792,-71.3567 532.8469,-58.5917 592.8773,-51.5335"/>
<polygon fill="#191970" stroke="#191970" points="593.6214,-54.9702 603.1443,-50.3264 592.804,-48.0181 593.6214,-54.9702"/>
</g>
<!-- Node46 -->
<g id="node18" class="node">
<title>Node46</title>
<g id="a_node18"><a xlink:href="_a_p_i_8h.html#afe171a08d22de18fc2ab604b2364959f" target="_top" xlink:title="Relinquishes a mutex so that other tasks can use the resource it guards. ">
<polygon fill="none" stroke="#000000" points="603.7915,-.5 603.7915,-18.5 667.5845,-18.5 667.5845,-.5 603.7915,-.5"/>
<text text-anchor="middle" x="635.688" y="-6.5" font-family="Helvetica,sans-Serif" font-size="10.00" fill="#000000">mutexGive</text>
</a>
</g>
</g>
<!-- Node32&#45;&gt;Node46 -->
<g id="edge20" class="edge">
<title>Node32&#45;&gt;Node46</title>
<path fill="none" stroke="#191970" d="M355.9642,-74.4684C369.6816,-70.9726 385.5696,-66.9823 400.0137,-63.5 467.6844,-47.1852 546.5773,-29.3477 593.7573,-18.8063"/>
<polygon fill="#191970" stroke="#191970" points="594.6158,-22.2009 603.6136,-16.6072 593.0914,-15.3689 594.6158,-22.2009"/>
</g>
<!-- Node34 -->
<g id="node6" class="node">
<title>Node34</title>
<g id="a_node6"><a xlink:href="_a_p_i_8h.html#a403c82418e475fa4a8273719e6a7f3e6" target="_top" xlink:title="Prints the formatted string to the debug stream (the PC terminal). ">
<polygon fill="none" stroke="#000000" points="726.9341,-242.5 726.9341,-260.5 765.1655,-260.5 765.1655,-242.5 726.9341,-242.5"/>
<text text-anchor="middle" x="746.0498" y="-248.5" font-family="Helvetica,sans-Serif" font-size="10.00" fill="#000000">printf</text>
</a>
</g>
</g>
<!-- Node33&#45;&gt;Node34 -->
<g id="edge5" class="edge">
<title>Node33&#45;&gt;Node34</title>
<path fill="none" stroke="#191970" d="M449.3402,-240.896C461.2976,-244.9833 476.4259,-249.4495 490.3633,-251.5 571.443,-263.4286 668.5569,-258.1521 716.41,-254.2822"/>
<polygon fill="#191970" stroke="#191970" points="716.9967,-257.7451 726.665,-253.4123 716.4049,-250.7702 716.9967,-257.7451"/>
</g>
<!-- Node36 -->
<g id="node8" class="node">
<title>Node36</title>
<g id="a_node8"><a xlink:href="log_8h.html#a0bec2cf5fff7f607bc510b74aba9887c" target="_top" xlink:title="prints a warning message and displays on lcd. ">
<polygon fill="none" stroke="#000000" points="503.4272,-112.5 503.4272,-130.5 554.4468,-130.5 554.4468,-112.5 503.4272,-112.5"/>
<text text-anchor="middle" x="528.937" y="-118.5" font-family="Helvetica,sans-Serif" font-size="10.00" fill="#000000">warning</text>
</a>
</g>
</g>
<!-- Node35&#45;&gt;Node36 -->
<g id="edge7" class="edge">
<title>Node35&#45;&gt;Node36</title>
<path fill="none" stroke="#191970" d="M454.4552,-134.6763C466.4389,-132.5563 480.6682,-130.0391 493.4627,-127.7756"/>
<polygon fill="#191970" stroke="#191970" points="494.1084,-131.2159 503.3457,-126.0273 492.8889,-124.3229 494.1084,-131.2159"/>
</g>
<!-- Node41 -->
<g id="node13" class="node">
<title>Node41</title>
<g id="a_node13"><a xlink:href="_a_p_i_8h.html#a8966c541f3e9565aea1289f0d2f2cf43" target="_top" xlink:title="Stops all motors; significantly faster than looping through all motor ports and calling motorSet(chan...">
<polygon fill="none" stroke="#000000" points="492.314,-223.5 492.314,-241.5 565.5601,-241.5 565.5601,-223.5 492.314,-223.5"/>
<text text-anchor="middle" x="528.937" y="-229.5" font-family="Helvetica,sans-Serif" font-size="10.00" fill="#000000">motorStopAll</text>
</a>
</g>
</g>
<!-- Node35&#45;&gt;Node41 -->
<g id="edge13" class="edge">
<title>Node35&#45;&gt;Node41</title>
<path fill="none" stroke="#191970" d="M433.1372,-148.9368C443.2666,-164.3771 465.2256,-195.2435 490.3633,-214.5 492.1746,-215.8875 494.1101,-217.2022 496.1134,-218.4414"/>
<polygon fill="#191970" stroke="#191970" points="494.7029,-221.6591 505.1566,-223.383 498.0596,-215.5164 494.7029,-221.6591"/>
</g>
<!-- Node42 -->
<g id="node14" class="node">
<title>Node42</title>
<g id="a_node14"><a xlink:href="_a_p_i_8h.html#aecd027ce8f8b52a765735e9eb5b202b3" target="_top" xlink:title="Creates a mutex intended to allow only one task to use a resource at a time. ">
<polygon fill="none" stroke="#000000" points="492.314,-186.5 492.314,-204.5 565.5601,-204.5 565.5601,-186.5 492.314,-186.5"/>
<text text-anchor="middle" x="528.937" y="-192.5" font-family="Helvetica,sans-Serif" font-size="10.00" fill="#000000">mutexCreate</text>
</a>
</g>
</g>
<!-- Node35&#45;&gt;Node42 -->
<g id="edge14" class="edge">
<title>Node35&#45;&gt;Node42</title>
<path fill="none" stroke="#191970" d="M441.4929,-148.6936C454.1378,-156.6774 473.1893,-168.3602 490.3633,-177.5 493.2337,-179.0276 496.257,-180.5619 499.2957,-182.0553"/>
<polygon fill="#191970" stroke="#191970" points="497.7889,-185.2143 508.3209,-186.3659 500.8058,-178.8978 497.7889,-185.2143"/>
</g>
<!-- Node43 -->
<g id="node15" class="node">
<title>Node43</title>
<g id="a_node15"><a xlink:href="_a_p_i_8h.html#ab05a241d6d1fd98b1ceb4665db678156" target="_top" xlink:title="Starts a task which will periodically call the specified function. ">
<polygon fill="none" stroke="#000000" points="491.4717,-149.5 491.4717,-167.5 566.4023,-167.5 566.4023,-149.5 491.4717,-149.5"/>
<text text-anchor="middle" x="528.937" y="-155.5" font-family="Helvetica,sans-Serif" font-size="10.00" fill="#000000">taskRunLoop</text>
</a>
</g>
</g>
<!-- Node35&#45;&gt;Node43 -->
<g id="edge15" class="edge">
<title>Node35&#45;&gt;Node43</title>
<path fill="none" stroke="#191970" d="M454.4552,-144.5917C462.7553,-146.1416 472.1325,-147.8926 481.3641,-149.6165"/>
<polygon fill="#191970" stroke="#191970" points="480.7939,-153.0704 491.2665,-151.4656 482.0789,-146.1894 480.7939,-153.0704"/>
</g>
<!-- Node44 -->
<g id="node16" class="node">
<title>Node44</title>
<g id="a_node16"><a xlink:href="slew_8c.html#a807a87c5df438fde21c1e8213906695b" target="_top" xlink:title="Closes the distance between the desired motor value and the current motor value by half for each moto...">
<polygon fill="none" stroke="#000000" points="490.3633,-75.5 490.3633,-93.5 567.5107,-93.5 567.5107,-75.5 490.3633,-75.5"/>
<text text-anchor="middle" x="528.937" y="-81.5" font-family="Helvetica,sans-Serif" font-size="10.00" fill="#000000">updateMotors</text>
</a>
</g>
</g>
<!-- Node35&#45;&gt;Node44 -->
<g id="edge16" class="edge">
<title>Node35&#45;&gt;Node44</title>
<path fill="none" stroke="#191970" d="M442.6209,-130.3599C455.3234,-122.9207 473.8595,-112.2567 490.3633,-103.5 493.7264,-101.7156 497.2805,-99.888 500.8159,-98.1054"/>
<polygon fill="#191970" stroke="#191970" points="502.5866,-101.134 509.9869,-93.552 499.4737,-94.8642 502.5866,-101.134"/>
</g>
<!-- Node37 -->
<g id="node9" class="node">
<title>Node37</title>
<g id="a_node9"><a xlink:href="log_8c.html#afff22aff6749311a684a559cac3ac8bd" target="_top" xlink:title="prints a log info message to the lcd ">
<polygon fill="none" stroke="#000000" points="610.1733,-131.5 610.1733,-149.5 661.2026,-149.5 661.2026,-131.5 610.1733,-131.5"/>
<text text-anchor="middle" x="635.688" y="-137.5" font-family="Helvetica,sans-Serif" font-size="10.00" fill="#000000">log_info</text>
</a>
</g>
</g>
<!-- Node36&#45;&gt;Node37 -->
<g id="edge8" class="edge">
<title>Node36&#45;&gt;Node37</title>
<path fill="none" stroke="#191970" d="M554.5065,-126.051C568.1383,-128.4772 585.1272,-131.501 600.0354,-134.1544"/>
<polygon fill="#191970" stroke="#191970" points="599.4985,-137.6138 609.9571,-135.9203 600.7252,-130.7221 599.4985,-137.6138"/>
</g>
<!-- Node37&#45;&gt;Node34 -->
<g id="edge9" class="edge">
<title>Node37&#45;&gt;Node34</title>
<path fill="none" stroke="#191970" d="M644.7194,-149.5836C663.3124,-168.2841 706.0968,-211.3159 729.6906,-235.0462"/>
<polygon fill="#191970" stroke="#191970" points="727.361,-237.6672 736.8936,-242.2909 732.325,-232.7317 727.361,-237.6672"/>
</g>
<!-- Node38 -->
<g id="node10" class="node">
<title>Node38</title>
<g id="a_node10"><a xlink:href="_a_p_i_8h.html#aab53a247d88151a6623c20fa1ea940b0" target="_top" xlink:title="Sets the specified LCD backlight to be on or off. ">
<polygon fill="none" stroke="#000000" points="703.8652,-168.5 703.8652,-186.5 788.2344,-186.5 788.2344,-168.5 703.8652,-168.5"/>
<text text-anchor="middle" x="746.0498" y="-174.5" font-family="Helvetica,sans-Serif" font-size="10.00" fill="#000000">lcdSetBacklight</text>
</a>
</g>
</g>
<!-- Node37&#45;&gt;Node38 -->
<g id="edge10" class="edge">
<title>Node37&#45;&gt;Node38</title>
<path fill="none" stroke="#191970" d="M661.2846,-149.0815C675.6276,-153.8902 693.7566,-159.9681 709.5643,-165.2678"/>
<polygon fill="#191970" stroke="#191970" points="708.4583,-168.5885 719.0523,-168.4488 710.6835,-161.9515 708.4583,-168.5885"/>
</g>
<!-- Node39 -->
<g id="node11" class="node">
<title>Node39</title>
<g id="a_node11"><a xlink:href="_a_p_i_8h.html#a5fa1d119fe3e836b5519f97eae7a1272" target="_top" xlink:title="Clears the LCD screen on the specified port. ">
<polygon fill="none" stroke="#000000" points="719.71,-131.5 719.71,-149.5 772.3896,-149.5 772.3896,-131.5 719.71,-131.5"/>
<text text-anchor="middle" x="746.0498" y="-137.5" font-family="Helvetica,sans-Serif" font-size="10.00" fill="#000000">lcdClear</text>
</a>
</g>
</g>
<!-- Node37&#45;&gt;Node39 -->
<g id="edge11" class="edge">
<title>Node37&#45;&gt;Node39</title>
<path fill="none" stroke="#191970" d="M661.2846,-140.5C675.4604,-140.5 693.3346,-140.5 709.0107,-140.5"/>
<polygon fill="#191970" stroke="#191970" points="709.4398,-144.0001 719.4398,-140.5 709.4398,-137.0001 709.4398,-144.0001"/>
</g>
<!-- Node40 -->
<g id="node12" class="node">
<title>Node40</title>
<g id="a_node12"><a xlink:href="_a_p_i_8h.html#a6cfad8271c6a566a2f51ca318f819a80" target="_top" xlink:title="Prints the formatted string to the attached LCD. ">
<polygon fill="none" stroke="#000000" points="721.3774,-94.5 721.3774,-112.5 770.7222,-112.5 770.7222,-94.5 721.3774,-94.5"/>
<text text-anchor="middle" x="746.0498" y="-100.5" font-family="Helvetica,sans-Serif" font-size="10.00" fill="#000000">lcdPrint</text>
</a>
</g>
</g>
<!-- Node37&#45;&gt;Node40 -->
<g id="edge12" class="edge">
<title>Node37&#45;&gt;Node40</title>
<path fill="none" stroke="#191970" d="M661.2846,-131.9185C676.2603,-126.8977 695.3636,-120.4931 711.6424,-115.0355"/>
<polygon fill="#191970" stroke="#191970" points="712.9824,-118.2777 721.3512,-111.7805 710.7573,-111.6408 712.9824,-118.2777"/>
</g>
<!-- Node44&#45;&gt;Node45 -->
<g id="edge17" class="edge">
<title>Node44&#45;&gt;Node45</title>
<path fill="none" stroke="#191970" d="M554.2355,-75.4945C568.0936,-70.5615 585.4817,-64.3719 600.6298,-58.9796"/>
<polygon fill="#191970" stroke="#191970" points="601.954,-62.2235 610.2011,-55.5725 599.6065,-55.6288 601.954,-62.2235"/>
</g>
<!-- Node44&#45;&gt;Node46 -->
<g id="edge18" class="edge">
<title>Node44&#45;&gt;Node46</title>
<path fill="none" stroke="#191970" d="M539.6954,-75.4944C553.8788,-63.8073 579.814,-43.0703 603.5107,-27.5 605.4232,-26.2434 607.429,-24.9867 609.4648,-23.7545"/>
<polygon fill="#191970" stroke="#191970" points="611.4882,-26.6273 618.3855,-18.585 607.9784,-20.5707 611.4882,-26.6273"/>
</g>
<!-- Node47 -->
<g id="node19" class="node">
<title>Node47</title>
<g id="a_node19"><a xlink:href="_a_p_i_8h.html#a03c5b04b472d024281f62d7af8854a8e" target="_top" xlink:title="Sets the speed of the specified motor channel. ">
<polygon fill="none" stroke="#000000" points="607.4023,-75.5 607.4023,-93.5 663.9736,-93.5 663.9736,-75.5 607.4023,-75.5"/>
<text text-anchor="middle" x="635.688" y="-81.5" font-family="Helvetica,sans-Serif" font-size="10.00" fill="#000000">motorSet</text>
</a>
</g>
</g>
<!-- Node44&#45;&gt;Node47 -->
<g id="edge19" class="edge">
<title>Node44&#45;&gt;Node47</title>
<path fill="none" stroke="#191970" d="M567.7785,-84.5C577.3225,-84.5 587.5375,-84.5 597.0709,-84.5"/>
<polygon fill="#191970" stroke="#191970" points="597.084,-88.0001 607.084,-84.5 597.0839,-81.0001 597.084,-88.0001"/>
</g>
</g>
</svg>
        <g id="navigator" transform="translate(0 0)" fill="#404254">
                <rect fill="#f2f5e9" fill-opacity="0.5" stroke="#606060" stroke-width=".5" x="0" y="0" width="60" height="60"/>
                <use id="zoomplus" xlink:href="#zoomPlus" x="17" y="9" onmousedown="handleZoom(evt,'in')"/>
                <use id="zoomminus" xlink:href="#zoomMin" x="42" y="9" onmousedown="handleZoom(evt,'out')"/>
                <use id="reset" xlink:href="#resetDef" x="30" y="36" onmousedown="handleReset()"/>
                <g id="arrowUp" xlink:href="#dirArrow" transform="translate(30 24)" onmousedown="handlePan(0,-1)">
                  <use xlink:href="#rim" fill="#404040">
                        <set attributeName="fill" to="#808080" begin="arrowUp.mouseover" end="arrowUp.mouseout"/>
                  </use>
                  <path fill="none" stroke="white" stroke-width="1.5" d="M0,-3.0v7 M-2.5,-0.5L0,-3.0L2.5,-0.5"/>
                </g>
                <g id="arrowRight" xlink:href="#dirArrow" transform="rotate(90) translate(36 -43)" onmousedown="handlePan(1,0)">
                  <use xlink:href="#rim" fill="#404040">
                        <set attributeName="fill" to="#808080" begin="arrowRight.mouseover" end="arrowRight.mouseout"/>
                  </use>
                  <path fill="none" stroke="white" stroke-width="1.5" d="M0,-3.0v7 M-2.5,-0.5L0,-3.0L2.5,-0.5"/>
                </g>
                <g id="arrowDown" xlink:href="#dirArrow" transform="rotate(180) translate(-30 -48)" onmousedown="handlePan(0,1)">
                  <use xlink:href="#rim" fill="#404040">
                        <set attributeName="fill" to="#808080" begin="arrowDown.mouseover" end="arrowDown.mouseout"/>
                  </use>
                  <path fill="none" stroke="white" stroke-width="1.5" d="M0,-3.0v7 M-2.5,-0.5L0,-3.0L2.5,-0.5"/>
                </g>
                <g id="arrowLeft" xlink:href="#dirArrow" transform="rotate(270) translate(-36 17)" onmousedown="handlePan(-1,0)">
                  <use xlink:href="#rim" fill="#404040">
                        <set attributeName="fill" to="#808080" begin="arrowLeft.mouseover" end="arrowLeft.mouseout"/>
                  </use>
                  <path fill="none" stroke="white" stroke-width="1.5" d="M0,-3.0v7 M-2.5,-0.5L0,-3.0L2.5,-0.5"/>
                </g>
        </g>
        <svg viewBox="0 0 15 15" width="100%" height="30px" preserveAspectRatio="xMaxYMin meet">
         <g id="arrow_out" transform="scale(0.3 0.3)">
          <a xlink:href="drive_8c_a8224a4626a934d30ed587671b7004bf8_cgraph_org.svg" target="_base">
           <rect id="button" ry="5" rx="5" y="6" x="6" height="38" width="38"
                fill="#f2f5e9" fill-opacity="0.5" stroke="#606060" stroke-width="1.0"/>
           <path id="arrow"
             d="M 11.500037,31.436501 C 11.940474,20.09759 22.043105,11.32322 32.158766,21.979434 L 37.068811,17.246167 C 37.068811,17.246167 37.088388,32 37.088388,32 L 22.160133,31.978069 C 22.160133,31.978069 26.997745,27.140456 26.997745,27.140456 C 18.528582,18.264221 13.291696,25.230495 11.500037,31.436501 z"
             style="fill:#404040;"/>
          </a>
         </g>
        </svg>
</svg>
