<?xml version="1.0" encoding="UTF-8" standalone="no"?>
<!DOCTYPE svg PUBLIC "-//W3C//DTD SVG 1.1//EN"
 "http://www.w3.org/Graphics/SVG/1.1/DTD/svg11.dtd">
<!-- Generated by graphviz version 2.40.1 (20161225.0304)
 -->
<!-- Title: set_side_speed Pages: 1 -->
<svg width="640pt" height="269pt"
 viewBox="0.00 0.00 640.30 269.00" xmlns="http://www.w3.org/2000/svg" xmlns:xlink="http://www.w3.org/1999/xlink">
<g id="graph0" class="graph" transform="scale(1 1) rotate(0) translate(4 265)">
<title>set_side_speed</title>
<!-- Node4 -->
<g id="node1" class="node">
<title>Node4</title>
<polygon fill="#bfbfbf" stroke="#000000" points="0,-74.5 0,-92.5 86.0537,-92.5 86.0537,-74.5 0,-74.5"/>
<text text-anchor="middle" x="43.0269" y="-80.5" font-family="Helvetica,sans-Serif" font-size="10.00" fill="#000000">set_side_speed</text>
</g>
<!-- Node5 -->
<g id="node2" class="node">
<title>Node5</title>
<g id="a_node2"><a xlink:href="slew_8h.html#a7dff2b79dffe55fb936d977594d7c01d" target="_top" xlink:title="Sets motor speed wrapped inside the slew rate controller. ">
<polygon fill="none" stroke="#000000" points="122.0537,-74.5 122.0537,-92.5 208.083,-92.5 208.083,-74.5 122.0537,-74.5"/>
<text text-anchor="middle" x="165.0684" y="-80.5" font-family="Helvetica,sans-Serif" font-size="10.00" fill="#000000">set_motor_slew</text>
</a>
</g>
</g>
<!-- Node4&#45;&gt;Node5 -->
<g id="edge1" class="edge">
<title>Node4&#45;&gt;Node5</title>
<path fill="none" stroke="#191970" d="M86.0541,-83.5C94.4394,-83.5 103.3224,-83.5 111.9882,-83.5"/>
<polygon fill="#191970" stroke="#191970" points="112.0183,-87.0001 122.0183,-83.5 112.0183,-80.0001 112.0183,-87.0001"/>
</g>
<!-- Node6 -->
<g id="node3" class="node">
<title>Node6</title>
<g id="a_node3"><a xlink:href="log_8h.html#af3668f40d1ad1b4f3418869ac9a31f34" target="_top" xlink:title="prints a info message ">
<polygon fill="none" stroke="#000000" points="249.354,-223.5 249.354,-241.5 293.1616,-241.5 293.1616,-223.5 249.354,-223.5"/>
<text text-anchor="middle" x="271.2578" y="-229.5" font-family="Helvetica,sans-Serif" font-size="10.00" fill="#000000">debug</text>
</a>
</g>
</g>
<!-- Node5&#45;&gt;Node6 -->
<g id="edge2" class="edge">
<title>Node5&#45;&gt;Node6</title>
<path fill="none" stroke="#191970" d="M171.711,-92.8206C189.0678,-117.1749 235.9974,-183.0243 258.6658,-214.8314"/>
<polygon fill="#191970" stroke="#191970" points="255.9637,-217.0707 264.6177,-223.1829 261.6642,-213.0081 255.9637,-217.0707"/>
</g>
<!-- Node8 -->
<g id="node5" class="node">
<title>Node8</title>
<g id="a_node5"><a xlink:href="slew_8c.html#a321758941d88b75783955c819bb75005" target="_top" xlink:title="Initializes the slew rate controller. ">
<polygon fill="none" stroke="#000000" points="244.083,-130.5 244.083,-148.5 298.4326,-148.5 298.4326,-130.5 244.083,-130.5"/>
<text text-anchor="middle" x="271.2578" y="-136.5" font-family="Helvetica,sans-Serif" font-size="10.00" fill="#000000">init_slew</text>
</a>
</g>
</g>
<!-- Node5&#45;&gt;Node8 -->
<g id="edge4" class="edge">
<title>Node5&#45;&gt;Node8</title>
<path fill="none" stroke="#191970" d="M182.6034,-92.7473C199.613,-101.7174 225.6341,-115.4399 245.0923,-125.7014"/>
<polygon fill="#191970" stroke="#191970" points="243.571,-128.856 254.0491,-130.4248 246.8363,-122.6642 243.571,-128.856"/>
</g>
<!-- Node18 -->
<g id="node15" class="node">
<title>Node18</title>
<g id="a_node15"><a xlink:href="_a_p_i_8h.html#a8b51124628d2a7741738d48551d1e8ee" target="_top" xlink:title="Requests a mutex so that other tasks cannot simultaneously use the resource it guards. ">
<polygon fill="none" stroke="#000000" points="447.5801,-37.5 447.5801,-55.5 511.9346,-55.5 511.9346,-37.5 447.5801,-37.5"/>
<text text-anchor="middle" x="479.7573" y="-43.5" font-family="Helvetica,sans-Serif" font-size="10.00" fill="#000000">mutexTake</text>
</a>
</g>
</g>
<!-- Node5&#45;&gt;Node18 -->
<g id="edge19" class="edge">
<title>Node5&#45;&gt;Node18</title>
<path fill="none" stroke="#191970" d="M208.1647,-78.4329C268.3486,-71.3567 376.9162,-58.5917 436.9466,-51.5335"/>
<polygon fill="#191970" stroke="#191970" points="437.6908,-54.9702 447.2136,-50.3264 436.8733,-48.0181 437.6908,-54.9702"/>
</g>
<!-- Node19 -->
<g id="node16" class="node">
<title>Node19</title>
<g id="a_node16"><a xlink:href="_a_p_i_8h.html#afe171a08d22de18fc2ab604b2364959f" target="_top" xlink:title="Relinquishes a mutex so that other tasks can use the resource it guards. ">
<polygon fill="none" stroke="#000000" points="447.8608,-.5 447.8608,-18.5 511.6538,-18.5 511.6538,-.5 447.8608,-.5"/>
<text text-anchor="middle" x="479.7573" y="-6.5" font-family="Helvetica,sans-Serif" font-size="10.00" fill="#000000">mutexGive</text>
</a>
</g>
</g>
<!-- Node5&#45;&gt;Node19 -->
<g id="edge18" class="edge">
<title>Node5&#45;&gt;Node19</title>
<path fill="none" stroke="#191970" d="M200.0335,-74.4684C213.751,-70.9726 229.6389,-66.9823 244.083,-63.5 311.7537,-47.1852 390.6466,-29.3477 437.8266,-18.8063"/>
<polygon fill="#191970" stroke="#191970" points="438.6851,-22.2009 447.683,-16.6072 437.1607,-15.3689 438.6851,-22.2009"/>
</g>
<!-- Node7 -->
<g id="node4" class="node">
<title>Node7</title>
<g id="a_node4"><a xlink:href="_a_p_i_8h.html#a403c82418e475fa4a8273719e6a7f3e6" target="_top" xlink:title="Prints the formatted string to the debug stream (the PC terminal). ">
<polygon fill="none" stroke="#000000" points="571.0034,-242.5 571.0034,-260.5 609.2349,-260.5 609.2349,-242.5 571.0034,-242.5"/>
<text text-anchor="middle" x="590.1191" y="-248.5" font-family="Helvetica,sans-Serif" font-size="10.00" fill="#000000">printf</text>
</a>
</g>
</g>
<!-- Node6&#45;&gt;Node7 -->
<g id="edge3" class="edge">
<title>Node6&#45;&gt;Node7</title>
<path fill="none" stroke="#191970" d="M293.4095,-240.896C305.3669,-244.9833 320.4953,-249.4495 334.4326,-251.5 415.5123,-263.4286 512.6262,-258.1521 560.4794,-254.2822"/>
<polygon fill="#191970" stroke="#191970" points="561.066,-257.7451 570.7344,-253.4123 560.4743,-250.7702 561.066,-257.7451"/>
</g>
<!-- Node9 -->
<g id="node6" class="node">
<title>Node9</title>
<g id="a_node6"><a xlink:href="log_8h.html#a0bec2cf5fff7f607bc510b74aba9887c" target="_top" xlink:title="prints a warning message and displays on lcd. ">
<polygon fill="none" stroke="#000000" points="347.4966,-112.5 347.4966,-130.5 398.5161,-130.5 398.5161,-112.5 347.4966,-112.5"/>
<text text-anchor="middle" x="373.0063" y="-118.5" font-family="Helvetica,sans-Serif" font-size="10.00" fill="#000000">warning</text>
</a>
</g>
</g>
<!-- Node8&#45;&gt;Node9 -->
<g id="edge5" class="edge">
<title>Node8&#45;&gt;Node9</title>
<path fill="none" stroke="#191970" d="M298.5246,-134.6763C310.5083,-132.5563 324.7375,-130.0391 337.532,-127.7756"/>
<polygon fill="#191970" stroke="#191970" points="338.1777,-131.2159 347.4151,-126.0273 336.9582,-124.3229 338.1777,-131.2159"/>
</g>
<!-- Node14 -->
<g id="node11" class="node">
<title>Node14</title>
<g id="a_node11"><a xlink:href="_a_p_i_8h.html#a8966c541f3e9565aea1289f0d2f2cf43" target="_top" xlink:title="Stops all motors; significantly faster than looping through all motor ports and calling motorSet(chan...">
<polygon fill="none" stroke="#000000" points="336.3833,-223.5 336.3833,-241.5 409.6294,-241.5 409.6294,-223.5 336.3833,-223.5"/>
<text text-anchor="middle" x="373.0063" y="-229.5" font-family="Helvetica,sans-Serif" font-size="10.00" fill="#000000">motorStopAll</text>
</a>
</g>
</g>
<!-- Node8&#45;&gt;Node14 -->
<g id="edge11" class="edge">
<title>Node8&#45;&gt;Node14</title>
<path fill="none" stroke="#191970" d="M277.2066,-148.9368C287.3359,-164.3771 309.2949,-195.2435 334.4326,-214.5 336.2439,-215.8875 338.1794,-217.2022 340.1828,-218.4414"/>
<polygon fill="#191970" stroke="#191970" points="338.7723,-221.6591 349.2259,-223.383 342.129,-215.5164 338.7723,-221.6591"/>
</g>
<!-- Node15 -->
<g id="node12" class="node">
<title>Node15</title>
<g id="a_node12"><a xlink:href="_a_p_i_8h.html#aecd027ce8f8b52a765735e9eb5b202b3" target="_top" xlink:title="Creates a mutex intended to allow only one task to use a resource at a time. ">
<polygon fill="none" stroke="#000000" points="336.3833,-186.5 336.3833,-204.5 409.6294,-204.5 409.6294,-186.5 336.3833,-186.5"/>
<text text-anchor="middle" x="373.0063" y="-192.5" font-family="Helvetica,sans-Serif" font-size="10.00" fill="#000000">mutexCreate</text>
</a>
</g>
</g>
<!-- Node8&#45;&gt;Node15 -->
<g id="edge12" class="edge">
<title>Node8&#45;&gt;Node15</title>
<path fill="none" stroke="#191970" d="M285.5622,-148.6936C298.2071,-156.6774 317.2586,-168.3602 334.4326,-177.5 337.3031,-179.0276 340.3263,-180.5619 343.365,-182.0553"/>
<polygon fill="#191970" stroke="#191970" points="341.8582,-185.2143 352.3903,-186.3659 344.8751,-178.8978 341.8582,-185.2143"/>
</g>
<!-- Node16 -->
<g id="node13" class="node">
<title>Node16</title>
<g id="a_node13"><a xlink:href="_a_p_i_8h.html#ab05a241d6d1fd98b1ceb4665db678156" target="_top" xlink:title="Starts a task which will periodically call the specified function. ">
<polygon fill="none" stroke="#000000" points="335.541,-149.5 335.541,-167.5 410.4717,-167.5 410.4717,-149.5 335.541,-149.5"/>
<text text-anchor="middle" x="373.0063" y="-155.5" font-family="Helvetica,sans-Serif" font-size="10.00" fill="#000000">taskRunLoop</text>
</a>
</g>
</g>
<!-- Node8&#45;&gt;Node16 -->
<g id="edge13" class="edge">
<title>Node8&#45;&gt;Node16</title>
<path fill="none" stroke="#191970" d="M298.5246,-144.5917C306.8246,-146.1416 316.2018,-147.8926 325.4335,-149.6165"/>
<polygon fill="#191970" stroke="#191970" points="324.8632,-153.0704 335.3358,-151.4656 326.1482,-146.1894 324.8632,-153.0704"/>
</g>
<!-- Node17 -->
<g id="node14" class="node">
<title>Node17</title>
<g id="a_node14"><a xlink:href="slew_8c.html#a807a87c5df438fde21c1e8213906695b" target="_top" xlink:title="Closes the distance between the desired motor value and the current motor value by half for each moto...">
<polygon fill="none" stroke="#000000" points="334.4326,-75.5 334.4326,-93.5 411.5801,-93.5 411.5801,-75.5 334.4326,-75.5"/>
<text text-anchor="middle" x="373.0063" y="-81.5" font-family="Helvetica,sans-Serif" font-size="10.00" fill="#000000">updateMotors</text>
</a>
</g>
</g>
<!-- Node8&#45;&gt;Node17 -->
<g id="edge14" class="edge">
<title>Node8&#45;&gt;Node17</title>
<path fill="none" stroke="#191970" d="M286.6902,-130.3599C299.3927,-122.9207 317.9289,-112.2567 334.4326,-103.5 337.7958,-101.7156 341.3498,-99.888 344.8852,-98.1054"/>
<polygon fill="#191970" stroke="#191970" points="346.656,-101.134 354.0563,-93.552 343.543,-94.8642 346.656,-101.134"/>
</g>
<!-- Node10 -->
<g id="node7" class="node">
<title>Node10</title>
<g id="a_node7"><a xlink:href="log_8c.html#afff22aff6749311a684a559cac3ac8bd" target="_top" xlink:title="prints a log info message to the lcd ">
<polygon fill="none" stroke="#000000" points="454.2427,-131.5 454.2427,-149.5 505.272,-149.5 505.272,-131.5 454.2427,-131.5"/>
<text text-anchor="middle" x="479.7573" y="-137.5" font-family="Helvetica,sans-Serif" font-size="10.00" fill="#000000">log_info</text>
</a>
</g>
</g>
<!-- Node9&#45;&gt;Node10 -->
<g id="edge6" class="edge">
<title>Node9&#45;&gt;Node10</title>
<path fill="none" stroke="#191970" d="M398.5759,-126.051C412.2077,-128.4772 429.1966,-131.501 444.1047,-134.1544"/>
<polygon fill="#191970" stroke="#191970" points="443.5679,-137.6138 454.0265,-135.9203 444.7945,-130.7221 443.5679,-137.6138"/>
</g>
<!-- Node10&#45;&gt;Node7 -->
<g id="edge7" class="edge">
<title>Node10&#45;&gt;Node7</title>
<path fill="none" stroke="#191970" d="M488.7887,-149.5836C507.3817,-168.2841 550.1661,-211.3159 573.76,-235.0462"/>
<polygon fill="#191970" stroke="#191970" points="571.4303,-237.6672 580.963,-242.2909 576.3943,-232.7317 571.4303,-237.6672"/>
</g>
<!-- Node11 -->
<g id="node8" class="node">
<title>Node11</title>
<g id="a_node8"><a xlink:href="_a_p_i_8h.html#aab53a247d88151a6623c20fa1ea940b0" target="_top" xlink:title="Sets the specified LCD backlight to be on or off. ">
<polygon fill="none" stroke="#000000" points="547.9346,-168.5 547.9346,-186.5 632.3037,-186.5 632.3037,-168.5 547.9346,-168.5"/>
<text text-anchor="middle" x="590.1191" y="-174.5" font-family="Helvetica,sans-Serif" font-size="10.00" fill="#000000">lcdSetBacklight</text>
</a>
</g>
</g>
<!-- Node10&#45;&gt;Node11 -->
<g id="edge8" class="edge">
<title>Node10&#45;&gt;Node11</title>
<path fill="none" stroke="#191970" d="M505.3539,-149.0815C519.6969,-153.8902 537.8259,-159.9681 553.6336,-165.2678"/>
<polygon fill="#191970" stroke="#191970" points="552.5277,-168.5885 563.1216,-168.4488 554.7528,-161.9515 552.5277,-168.5885"/>
</g>
<!-- Node12 -->
<g id="node9" class="node">
<title>Node12</title>
<g id="a_node9"><a xlink:href="_a_p_i_8h.html#a5fa1d119fe3e836b5519f97eae7a1272" target="_top" xlink:title="Clears the LCD screen on the specified port. ">
<polygon fill="none" stroke="#000000" points="563.7793,-131.5 563.7793,-149.5 616.459,-149.5 616.459,-131.5 563.7793,-131.5"/>
<text text-anchor="middle" x="590.1191" y="-137.5" font-family="Helvetica,sans-Serif" font-size="10.00" fill="#000000">lcdClear</text>
</a>
</g>
</g>
<!-- Node10&#45;&gt;Node12 -->
<g id="edge9" class="edge">
<title>Node10&#45;&gt;Node12</title>
<path fill="none" stroke="#191970" d="M505.3539,-140.5C519.5298,-140.5 537.4039,-140.5 553.08,-140.5"/>
<polygon fill="#191970" stroke="#191970" points="553.5092,-144.0001 563.5091,-140.5 553.5091,-137.0001 553.5092,-144.0001"/>
</g>
<!-- Node13 -->
<g id="node10" class="node">
<title>Node13</title>
<g id="a_node10"><a xlink:href="_a_p_i_8h.html#a6cfad8271c6a566a2f51ca318f819a80" target="_top" xlink:title="Prints the formatted string to the attached LCD. ">
<polygon fill="none" stroke="#000000" points="565.4468,-94.5 565.4468,-112.5 614.7915,-112.5 614.7915,-94.5 565.4468,-94.5"/>
<text text-anchor="middle" x="590.1191" y="-100.5" font-family="Helvetica,sans-Serif" font-size="10.00" fill="#000000">lcdPrint</text>
</a>
</g>
</g>
<!-- Node10&#45;&gt;Node13 -->
<g id="edge10" class="edge">
<title>Node10&#45;&gt;Node13</title>
<path fill="none" stroke="#191970" d="M505.3539,-131.9185C520.3297,-126.8977 539.4329,-120.4931 555.7118,-115.0355"/>
<polygon fill="#191970" stroke="#191970" points="557.0517,-118.2777 565.4205,-111.7805 554.8266,-111.6408 557.0517,-118.2777"/>
</g>
<!-- Node17&#45;&gt;Node18 -->
<g id="edge15" class="edge">
<title>Node17&#45;&gt;Node18</title>
<path fill="none" stroke="#191970" d="M398.3048,-75.4945C412.1629,-70.5615 429.551,-64.3719 444.6991,-58.9796"/>
<polygon fill="#191970" stroke="#191970" points="446.0233,-62.2235 454.2705,-55.5725 443.6758,-55.6288 446.0233,-62.2235"/>
</g>
<!-- Node17&#45;&gt;Node19 -->
<g id="edge16" class="edge">
<title>Node17&#45;&gt;Node19</title>
<path fill="none" stroke="#191970" d="M383.7647,-75.4944C397.9481,-63.8073 423.8833,-43.0703 447.5801,-27.5 449.4925,-26.2434 451.4984,-24.9867 453.5342,-23.7545"/>
<polygon fill="#191970" stroke="#191970" points="455.5575,-26.6273 462.4548,-18.585 452.0477,-20.5707 455.5575,-26.6273"/>
</g>
<!-- Node20 -->
<g id="node17" class="node">
<title>Node20</title>
<g id="a_node17"><a xlink:href="_a_p_i_8h.html#a03c5b04b472d024281f62d7af8854a8e" target="_top" xlink:title="Sets the speed of the specified motor channel. ">
<polygon fill="none" stroke="#000000" points="451.4717,-75.5 451.4717,-93.5 508.043,-93.5 508.043,-75.5 451.4717,-75.5"/>
<text text-anchor="middle" x="479.7573" y="-81.5" font-family="Helvetica,sans-Serif" font-size="10.00" fill="#000000">motorSet</text>
</a>
</g>
</g>
<!-- Node17&#45;&gt;Node20 -->
<g id="edge17" class="edge">
<title>Node17&#45;&gt;Node20</title>
<path fill="none" stroke="#191970" d="M411.8479,-84.5C421.3918,-84.5 431.6069,-84.5 441.1402,-84.5"/>
<polygon fill="#191970" stroke="#191970" points="441.1533,-88.0001 451.1533,-84.5 441.1533,-81.0001 441.1533,-88.0001"/>
</g>
</g>
</svg>
