<?xml version="1.0" encoding="UTF-8" standalone="no"?>
<!DOCTYPE svg PUBLIC "-//W3C//DTD SVG 1.1//EN"
 "http://www.w3.org/Graphics/SVG/1.1/DTD/svg11.dtd">
<!-- Generated by graphviz version 2.40.1 (20161225.0304)
 -->
<!-- Title: src/drive.c Pages: 1 -->
<svg width="371pt" height="137pt"
 viewBox="0.00 0.00 370.63 137.00" xmlns="http://www.w3.org/2000/svg" xmlns:xlink="http://www.w3.org/1999/xlink">
<g id="graph0" class="graph" transform="scale(1 1) rotate(0) translate(4 133)">
<title>src/drive.c</title>
<polygon fill="#ffffff" stroke="transparent" points="-4,4 -4,-133 366.6279,-133 366.6279,4 -4,4"/>
<!-- Node0 -->
<g id="node1" class="node">
<title>Node0</title>
<polygon fill="#bfbfbf" stroke="#000000" points="170.0615,-110.5 170.0615,-128.5 231.623,-128.5 231.623,-110.5 170.0615,-110.5"/>
<text text-anchor="middle" x="200.8423" y="-116.5" font-family="Helvetica,sans-Serif" font-size="10.00" fill="#000000">src/drive.c</text>
</g>
<!-- Node1 -->
<g id="node2" class="node">
<title>Node1</title>
<g id="a_node2"><a xlink:href="drive_8h.html" target="_top" xlink:title="Drive base definitions and eumerations. ">
<polygon fill="#ffffff" stroke="#000000" points="68.835,-55.5 68.835,-73.5 114.8496,-73.5 114.8496,-55.5 68.835,-55.5"/>
<text text-anchor="middle" x="91.8423" y="-61.5" font-family="Helvetica,sans-Serif" font-size="10.00" fill="#000000">drive.h</text>
</a>
</g>
</g>
<!-- Node0&#45;&gt;Node1 -->
<g id="edge1" class="edge">
<title>Node0&#45;&gt;Node1</title>
<path fill="none" stroke="#191970" d="M182.8432,-110.4179C165.4873,-101.6603 138.9912,-88.2907 119.0577,-78.2326"/>
<polygon fill="#191970" stroke="#191970" points="120.3727,-74.9758 109.8682,-73.5956 117.2193,-81.2253 120.3727,-74.9758"/>
</g>
<!-- Node2 -->
<g id="node3" class="node">
<title>Node2</title>
<polygon fill="#ffffff" stroke="#bfbfbf" points="288.5566,-.5 288.5566,-18.5 335.1279,-18.5 335.1279,-.5 288.5566,-.5"/>
<text text-anchor="middle" x="311.8423" y="-6.5" font-family="Helvetica,sans-Serif" font-size="10.00" fill="#000000">math.h</text>
</g>
<!-- Node0&#45;&gt;Node2 -->
<g id="edge2" class="edge">
<title>Node0&#45;&gt;Node2</title>
<path fill="none" stroke="#191970" d="M201.2968,-110.0741C202.4212,-96.4383 206.3219,-71.085 219.8423,-55 235.0452,-36.9134 259.181,-25.3562 278.9174,-18.4168"/>
<polygon fill="#191970" stroke="#191970" points="280.0653,-21.7239 288.4797,-15.2858 277.8871,-15.0714 280.0653,-21.7239"/>
</g>
<!-- Node3 -->
<g id="node4" class="node">
<title>Node3</title>
<g id="a_node4"><a xlink:href="_a_p_i_8h.html" target="_top" xlink:title="Provides the high&#45;level user functionality intended for use by typical VEX Cortex programmers...">
<polygon fill="#ffffff" stroke="#000000" points="132.6133,-55.5 132.6133,-73.5 173.0713,-73.5 173.0713,-55.5 132.6133,-55.5"/>
<text text-anchor="middle" x="152.8423" y="-61.5" font-family="Helvetica,sans-Serif" font-size="10.00" fill="#000000">API.h</text>
</a>
</g>
</g>
<!-- Node0&#45;&gt;Node3 -->
<g id="edge3" class="edge">
<title>Node0&#45;&gt;Node3</title>
<path fill="none" stroke="#191970" d="M192.9161,-110.4179C186.0786,-102.5833 176.0198,-91.0575 167.6906,-81.5137"/>
<polygon fill="#191970" stroke="#191970" points="170.1531,-79.0123 160.9407,-73.7795 164.8791,-83.6151 170.1531,-79.0123"/>
</g>
<!-- Node8 -->
<g id="node9" class="node">
<title>Node8</title>
<g id="a_node9"><a xlink:href="controller_8h.html" target="_top" xlink:title="controller definitions, macros ">
<polygon fill="#ffffff" stroke="#000000" points="228.3818,-55.5 228.3818,-73.5 293.3027,-73.5 293.3027,-55.5 228.3818,-55.5"/>
<text text-anchor="middle" x="260.8423" y="-61.5" font-family="Helvetica,sans-Serif" font-size="10.00" fill="#000000">controller.h</text>
</a>
</g>
</g>
<!-- Node0&#45;&gt;Node8 -->
<g id="edge8" class="edge">
<title>Node0&#45;&gt;Node8</title>
<path fill="none" stroke="#191970" d="M210.7501,-110.4179C219.5559,-102.3458 232.6362,-90.3556 243.2223,-80.6517"/>
<polygon fill="#191970" stroke="#191970" points="245.7127,-83.1168 250.7192,-73.7795 240.9826,-77.9567 245.7127,-83.1168"/>
</g>
<!-- Node9 -->
<g id="node10" class="node">
<title>Node9</title>
<g id="a_node10"><a xlink:href="vmath_8h.html" target="_top" xlink:title="Vex Specific Math Functions, includes: Cartesian to polar cordinates. ">
<polygon fill="#ffffff" stroke="#000000" points="311.0566,-55.5 311.0566,-73.5 362.6279,-73.5 362.6279,-55.5 311.0566,-55.5"/>
<text text-anchor="middle" x="336.8423" y="-61.5" font-family="Helvetica,sans-Serif" font-size="10.00" fill="#000000">vmath.h</text>
</a>
</g>
</g>
<!-- Node0&#45;&gt;Node9 -->
<g id="edge9" class="edge">
<title>Node0&#45;&gt;Node9</title>
<path fill="none" stroke="#191970" d="M223.2999,-110.4179C245.5456,-101.4215 279.826,-87.5581 304.9017,-77.4172"/>
<polygon fill="#191970" stroke="#191970" points="306.3929,-80.5895 314.3513,-73.5956 303.7685,-74.1001 306.3929,-80.5895"/>
</g>
<!-- Node4 -->
<g id="node5" class="node">
<title>Node4</title>
<polygon fill="#ffffff" stroke="#bfbfbf" points="0,-.5 0,-18.5 47.6846,-18.5 47.6846,-.5 0,-.5"/>
<text text-anchor="middle" x="23.8423" y="-6.5" font-family="Helvetica,sans-Serif" font-size="10.00" fill="#000000">stdlib.h</text>
</g>
<!-- Node3&#45;&gt;Node4 -->
<g id="edge4" class="edge">
<title>Node3&#45;&gt;Node4</title>
<path fill="none" stroke="#191970" d="M132.4019,-55.7851C111.4217,-46.8401 78.5281,-32.8157 54.4437,-22.5471"/>
<polygon fill="#191970" stroke="#191970" points="55.6162,-19.2422 45.0447,-18.5398 52.8708,-25.6814 55.6162,-19.2422"/>
</g>
<!-- Node5 -->
<g id="node6" class="node">
<title>Node5</title>
<polygon fill="#ffffff" stroke="#bfbfbf" points="65.5493,-.5 65.5493,-18.5 122.1353,-18.5 122.1353,-.5 65.5493,-.5"/>
<text text-anchor="middle" x="93.8423" y="-6.5" font-family="Helvetica,sans-Serif" font-size="10.00" fill="#000000">stdbool.h</text>
</g>
<!-- Node3&#45;&gt;Node5 -->
<g id="edge5" class="edge">
<title>Node3&#45;&gt;Node5</title>
<path fill="none" stroke="#191970" d="M143.0996,-55.4179C134.4406,-47.3458 121.5783,-35.3556 111.1686,-25.6517"/>
<polygon fill="#191970" stroke="#191970" points="113.4979,-23.0381 103.7966,-18.7795 108.7247,-28.1584 113.4979,-23.0381"/>
</g>
<!-- Node6 -->
<g id="node7" class="node">
<title>Node6</title>
<polygon fill="#ffffff" stroke="#bfbfbf" points="139.7759,-.5 139.7759,-18.5 191.9087,-18.5 191.9087,-.5 139.7759,-.5"/>
<text text-anchor="middle" x="165.8423" y="-6.5" font-family="Helvetica,sans-Serif" font-size="10.00" fill="#000000">stdarg.h</text>
</g>
<!-- Node3&#45;&gt;Node6 -->
<g id="edge6" class="edge">
<title>Node3&#45;&gt;Node6</title>
<path fill="none" stroke="#191970" d="M154.989,-55.4179C156.7099,-48.1372 159.1842,-37.669 161.3358,-28.5659"/>
<polygon fill="#191970" stroke="#191970" points="164.7548,-29.3164 163.649,-18.7795 157.9425,-27.7062 164.7548,-29.3164"/>
</g>
<!-- Node7 -->
<g id="node8" class="node">
<title>Node7</title>
<polygon fill="#ffffff" stroke="#bfbfbf" points="209.7217,-.5 209.7217,-18.5 257.9629,-18.5 257.9629,-.5 209.7217,-.5"/>
<text text-anchor="middle" x="233.8423" y="-6.5" font-family="Helvetica,sans-Serif" font-size="10.00" fill="#000000">stdint.h</text>
</g>
<!-- Node3&#45;&gt;Node7 -->
<g id="edge7" class="edge">
<title>Node3&#45;&gt;Node7</title>
<path fill="none" stroke="#191970" d="M166.2178,-55.4179C178.6463,-46.9788 197.382,-34.257 211.9832,-24.3426"/>
<polygon fill="#191970" stroke="#191970" points="214.14,-27.1088 220.4469,-18.5956 210.2077,-21.3176 214.14,-27.1088"/>
</g>
<!-- Node9&#45;&gt;Node2 -->
<g id="edge10" class="edge">
<title>Node9&#45;&gt;Node2</title>
<path fill="none" stroke="#191970" d="M332.714,-55.4179C329.3327,-47.9789 324.4388,-37.2123 320.2396,-27.9742"/>
<polygon fill="#191970" stroke="#191970" points="323.3846,-26.4348 316.0602,-18.7795 317.012,-29.3315 323.3846,-26.4348"/>
</g>
</g>
</svg>
