<?xml version="1.0" encoding="UTF-8" standalone="no"?>
<!DOCTYPE svg PUBLIC "-//W3C//DTD SVG 1.1//EN"
 "http://www.w3.org/Graphics/SVG/1.1/DTD/svg11.dtd">
<!-- Generated by graphviz version 2.40.1 (20161225.0304)
 -->
<!-- Title: set_side_speed Pages: 1 -->
<!--zoomable 304 -->
<svg id="main" version="1.1" xmlns="http://www.w3.org/2000/svg" xmlns:xlink="http://www.w3.org/1999/xlink" xml:space="preserve" onload="init(evt)">
<style type="text/css"><![CDATA[
.edge:hover path { stroke: red; }
.edge:hover polygon { stroke: red; fill: red; }
]]></style>
<script type="text/javascript"><![CDATA[
var edges = document.getElementsByTagName('g');
if (edges && edges.length) {
  for (var i=0;i<edges.length;i++) {
    if (edges[i].id.substr(0,4)=='edge') {
      edges[i].setAttribute('class','edge');
    }
  }
}
]]></script>
        <defs>
                <circle id="rim" cx="0" cy="0" r="7"/>
                <circle id="rim2" cx="0" cy="0" r="3.5"/>
                <g id="zoomPlus">
                        <use xlink:href="#rim" fill="#404040">
                                <set attributeName="fill" to="#808080" begin="zoomplus.mouseover" end="zoomplus.mouseout"/>
                        </use>
                        <path d="M-4,0h8M0,-4v8" fill="none" stroke="white" stroke-width="1.5" pointer-events="none"/>
                </g>
                <g id="zoomMin">
                        <use xlink:href="#rim" fill="#404040">
                                <set attributeName="fill" to="#808080" begin="zoomminus.mouseover" end="zoomminus.mouseout"/>
                        </use>
                        <path d="M-4,0h8" fill="none" stroke="white" stroke-width="1.5" pointer-events="none"/>
                </g>
                <g id="dirArrow">
                        <path fill="none" stroke="white" stroke-width="1.5" d="M0,-3.0v7 M-2.5,-0.5L0,-3.0L2.5,-0.5"/>
                </g>
               <g id="resetDef">
                       <use xlink:href="#rim2" fill="#404040">
                               <set attributeName="fill" to="#808080" begin="reset.mouseover" end="reset.mouseout"/>
                       </use>
               </g>
        </defs>

<script type="text/javascript">
var viewWidth = 640;
var viewHeight = 304;
var sectionId = 'dynsection-1';
</script>
<script xlink:href="svgpan.js"/>
<svg id="graph" class="graph">
<g id="viewport">
<title>set_side_speed</title>
<!-- Node4 -->
<g id="node1" class="node">
<title>Node4</title>
<polygon fill="#bfbfbf" stroke="#000000" points="0,-112.5 0,-130.5 86.0537,-130.5 86.0537,-112.5 0,-112.5"/>
<text text-anchor="middle" x="43.0269" y="-118.5" font-family="Helvetica,sans-Serif" font-size="10.00" fill="#000000">set_side_speed</text>
</g>
<!-- Node5 -->
<g id="node2" class="node">
<title>Node5</title>
<g id="a_node2"><a xlink:href="slew_8h.html#a7dff2b79dffe55fb936d977594d7c01d" target="_top" xlink:title="Sets motor speed wrapped inside the slew rate controller. ">
<polygon fill="none" stroke="#000000" points="122.0537,-112.5 122.0537,-130.5 208.083,-130.5 208.083,-112.5 122.0537,-112.5"/>
<text text-anchor="middle" x="165.0684" y="-118.5" font-family="Helvetica,sans-Serif" font-size="10.00" fill="#000000">set_motor_slew</text>
</a>
</g>
</g>
<!-- Node4&#45;&gt;Node5 -->
<g id="edge1" class="edge">
<title>Node4&#45;&gt;Node5</title>
<path fill="none" stroke="#191970" d="M86.0541,-121.5C94.4394,-121.5 103.3224,-121.5 111.9882,-121.5"/>
<polygon fill="#191970" stroke="#191970" points="112.0183,-125.0001 122.0183,-121.5 112.0183,-118.0001 112.0183,-125.0001"/>
</g>
<!-- Node6 -->
<g id="node3" class="node">
<title>Node6</title>
<g id="a_node3"><a xlink:href="log_8h.html#af3668f40d1ad1b4f3418869ac9a31f34" target="_top" xlink:title="prints a info message ">
<polygon fill="none" stroke="#000000" points="249.354,-243.5 249.354,-261.5 293.1616,-261.5 293.1616,-243.5 249.354,-243.5"/>
<text text-anchor="middle" x="271.2578" y="-249.5" font-family="Helvetica,sans-Serif" font-size="10.00" fill="#000000">debug</text>
</a>
</g>
</g>
<!-- Node5&#45;&gt;Node6 -->
<g id="edge2" class="edge">
<title>Node5&#45;&gt;Node6</title>
<path fill="none" stroke="#191970" d="M172.3672,-130.5042C189.8719,-152.0987 234.478,-207.1268 257.3188,-235.3042"/>
<polygon fill="#191970" stroke="#191970" points="254.8919,-237.8685 263.9079,-243.4328 260.3297,-233.4605 254.8919,-237.8685"/>
</g>
<!-- Node8 -->
<g id="node5" class="node">
<title>Node8</title>
<g id="a_node5"><a xlink:href="slew_8c.html#a321758941d88b75783955c819bb75005" target="_top" xlink:title="Initializes the slew rate controller. ">
<polygon fill="none" stroke="#000000" points="244.083,-150.5 244.083,-168.5 298.4326,-168.5 298.4326,-150.5 244.083,-150.5"/>
<text text-anchor="middle" x="271.2578" y="-156.5" font-family="Helvetica,sans-Serif" font-size="10.00" fill="#000000">init_slew</text>
</a>
</g>
</g>
<!-- Node5&#45;&gt;Node8 -->
<g id="edge4" class="edge">
<title>Node5&#45;&gt;Node8</title>
<path fill="none" stroke="#191970" d="M190.2338,-130.5055C204.019,-135.4385 221.3156,-141.6281 236.384,-147.0204"/>
<polygon fill="#191970" stroke="#191970" points="235.3105,-150.3535 245.905,-150.4275 237.669,-143.7628 235.3105,-150.3535"/>
</g>
<!-- Node18 -->
<g id="node15" class="node">
<title>Node18</title>
<g id="a_node15"><a xlink:href="_a_p_i_8h.html#a8b51124628d2a7741738d48551d1e8ee" target="_top" xlink:title="mutexTake">
<polygon fill="none" stroke="#000000" points="447.5801,-75.5 447.5801,-93.5 511.9346,-93.5 511.9346,-75.5 447.5801,-75.5"/>
<text text-anchor="middle" x="479.7573" y="-81.5" font-family="Helvetica,sans-Serif" font-size="10.00" fill="#000000">mutexTake</text>
</a>
</g>
</g>
<!-- Node5&#45;&gt;Node18 -->
<g id="edge20" class="edge">
<title>Node5&#45;&gt;Node18</title>
<path fill="none" stroke="#191970" d="M208.1647,-116.4329C268.3486,-109.3567 376.9162,-96.5917 436.9466,-89.5335"/>
<polygon fill="#191970" stroke="#191970" points="437.6908,-92.9702 447.2136,-88.3264 436.8733,-86.0181 437.6908,-92.9702"/>
</g>
<!-- Node19 -->
<g id="node16" class="node">
<title>Node19</title>
<g id="a_node16"><a xlink:href="_a_p_i_8h.html#afe171a08d22de18fc2ab604b2364959f" target="_top" xlink:title="mutexGive">
<polygon fill="none" stroke="#000000" points="447.8608,-.5 447.8608,-18.5 511.6538,-18.5 511.6538,-.5 447.8608,-.5"/>
<text text-anchor="middle" x="479.7573" y="-6.5" font-family="Helvetica,sans-Serif" font-size="10.00" fill="#000000">mutexGive</text>
</a>
</g>
</g>
<!-- Node5&#45;&gt;Node19 -->
<g id="edge19" class="edge">
<title>Node5&#45;&gt;Node19</title>
<path fill="none" stroke="#191970" d="M177.4606,-112.3875C204.4309,-93.0777 271.1231,-48.1265 334.4326,-27.5 368.0169,-16.5581 407.9525,-12.1912 437.4532,-10.4854"/>
<polygon fill="#191970" stroke="#191970" points="438.0048,-13.9623 447.8187,-9.97 437.6572,-6.971 438.0048,-13.9623"/>
</g>
<!-- Node7 -->
<g id="node4" class="node">
<title>Node7</title>
<g id="a_node4"><a xlink:href="_a_p_i_8h.html#a403c82418e475fa4a8273719e6a7f3e6" target="_top" xlink:title="printf">
<polygon fill="none" stroke="#000000" points="571.0034,-262.5 571.0034,-280.5 609.2349,-280.5 609.2349,-262.5 571.0034,-262.5"/>
<text text-anchor="middle" x="590.1191" y="-268.5" font-family="Helvetica,sans-Serif" font-size="10.00" fill="#000000">printf</text>
</a>
</g>
</g>
<!-- Node6&#45;&gt;Node7 -->
<g id="edge3" class="edge">
<title>Node6&#45;&gt;Node7</title>
<path fill="none" stroke="#191970" d="M291.3462,-261.5508C303.5688,-266.6972 319.6286,-272.8288 334.4326,-276.5 411.2409,-295.5474 433.3613,-299.9103 511.9346,-290.5 528.3409,-288.5351 546.2784,-284.3294 560.8293,-280.3733"/>
<polygon fill="#191970" stroke="#191970" points="562.082,-283.6565 570.7557,-277.5723 560.181,-276.9196 562.082,-283.6565"/>
</g>
<!-- Node9 -->
<g id="node6" class="node">
<title>Node9</title>
<g id="a_node6"><a xlink:href="log_8h.html#a0bec2cf5fff7f607bc510b74aba9887c" target="_top" xlink:title="prints a warning message and displays on lcd. Only will print and display if log_level is greater tha...">
<polygon fill="none" stroke="#000000" points="347.4966,-224.5 347.4966,-242.5 398.5161,-242.5 398.5161,-224.5 347.4966,-224.5"/>
<text text-anchor="middle" x="373.0063" y="-230.5" font-family="Helvetica,sans-Serif" font-size="10.00" fill="#000000">warning</text>
</a>
</g>
</g>
<!-- Node8&#45;&gt;Node9 -->
<g id="edge5" class="edge">
<title>Node8&#45;&gt;Node9</title>
<path fill="none" stroke="#191970" d="M279.9887,-168.7481C291.5901,-180.6633 313.1139,-201.5041 334.4326,-215.5 336.728,-217.007 339.1697,-218.4557 341.6669,-219.8313"/>
<polygon fill="#191970" stroke="#191970" points="340.2902,-223.0576 350.791,-224.4665 343.4607,-216.8168 340.2902,-223.0576"/>
</g>
<!-- Node13 -->
<g id="node10" class="node">
<title>Node13</title>
<g id="a_node10"><a xlink:href="_a_p_i_8h.html#a8966c541f3e9565aea1289f0d2f2cf43" target="_top" xlink:title="motorStopAll">
<polygon fill="none" stroke="#000000" points="336.3833,-187.5 336.3833,-205.5 409.6294,-205.5 409.6294,-187.5 336.3833,-187.5"/>
<text text-anchor="middle" x="373.0063" y="-193.5" font-family="Helvetica,sans-Serif" font-size="10.00" fill="#000000">motorStopAll</text>
</a>
</g>
</g>
<!-- Node8&#45;&gt;Node13 -->
<g id="edge10" class="edge">
<title>Node8&#45;&gt;Node13</title>
<path fill="none" stroke="#191970" d="M296.1483,-168.5512C308.836,-173.165 324.4711,-178.8506 338.3197,-183.8865"/>
<polygon fill="#191970" stroke="#191970" points="337.4261,-187.2857 348.0202,-187.414 339.8184,-180.7072 337.4261,-187.2857"/>
</g>
<!-- Node14 -->
<g id="node11" class="node">
<title>Node14</title>
<g id="a_node11"><a xlink:href="log_8h.html#a1606d750e1bb8de9f9e917172bba3382" target="_top" xlink:title="prints a info message ">
<polygon fill="none" stroke="#000000" points="463.6958,-262.5 463.6958,-280.5 495.8188,-280.5 495.8188,-262.5 463.6958,-262.5"/>
<text text-anchor="middle" x="479.7573" y="-268.5" font-family="Helvetica,sans-Serif" font-size="10.00" fill="#000000">info</text>
</a>
</g>
</g>
<!-- Node8&#45;&gt;Node14 -->
<g id="edge11" class="edge">
<title>Node8&#45;&gt;Node14</title>
<path fill="none" stroke="#191970" d="M274.4495,-168.537C281.7305,-187.683 301.5265,-232.2321 334.4326,-252.5 371.0607,-275.0604 422.6925,-276.1091 453.5353,-274.2198"/>
<polygon fill="#191970" stroke="#191970" points="453.8138,-277.7088 463.5191,-273.4594 453.2822,-270.729 453.8138,-277.7088"/>
</g>
<!-- Node15 -->
<g id="node12" class="node">
<title>Node15</title>
<g id="a_node12"><a xlink:href="_a_p_i_8h.html#aecd027ce8f8b52a765735e9eb5b202b3" target="_top" xlink:title="mutexCreate">
<polygon fill="none" stroke="#000000" points="336.3833,-150.5 336.3833,-168.5 409.6294,-168.5 409.6294,-150.5 336.3833,-150.5"/>
<text text-anchor="middle" x="373.0063" y="-156.5" font-family="Helvetica,sans-Serif" font-size="10.00" fill="#000000">mutexCreate</text>
</a>
</g>
</g>
<!-- Node8&#45;&gt;Node15 -->
<g id="edge13" class="edge">
<title>Node8&#45;&gt;Node15</title>
<path fill="none" stroke="#191970" d="M298.5246,-159.5C306.9975,-159.5 316.593,-159.5 326.0103,-159.5"/>
<polygon fill="#191970" stroke="#191970" points="326.0975,-163.0001 336.0974,-159.5 326.0974,-156.0001 326.0975,-163.0001"/>
</g>
<!-- Node16 -->
<g id="node13" class="node">
<title>Node16</title>
<g id="a_node13"><a xlink:href="_a_p_i_8h.html#ab05a241d6d1fd98b1ceb4665db678156" target="_top" xlink:title="taskRunLoop">
<polygon fill="none" stroke="#000000" points="335.541,-113.5 335.541,-131.5 410.4717,-131.5 410.4717,-113.5 335.541,-113.5"/>
<text text-anchor="middle" x="373.0063" y="-119.5" font-family="Helvetica,sans-Serif" font-size="10.00" fill="#000000">taskRunLoop</text>
</a>
</g>
</g>
<!-- Node8&#45;&gt;Node16 -->
<g id="edge14" class="edge">
<title>Node8&#45;&gt;Node16</title>
<path fill="none" stroke="#191970" d="M296.1483,-150.4488C308.836,-145.835 324.4711,-140.1494 338.3197,-135.1135"/>
<polygon fill="#191970" stroke="#191970" points="339.8184,-138.2928 348.0202,-131.586 337.4261,-131.7143 339.8184,-138.2928"/>
</g>
<!-- Node17 -->
<g id="node14" class="node">
<title>Node17</title>
<g id="a_node14"><a xlink:href="slew_8c.html#a807a87c5df438fde21c1e8213906695b" target="_top" xlink:title="Closes the distance between the desired motor value and the current motor value by half for each moto...">
<polygon fill="none" stroke="#000000" points="334.4326,-37.5 334.4326,-55.5 411.5801,-55.5 411.5801,-37.5 334.4326,-37.5"/>
<text text-anchor="middle" x="373.0063" y="-43.5" font-family="Helvetica,sans-Serif" font-size="10.00" fill="#000000">updateMotors</text>
</a>
</g>
</g>
<!-- Node8&#45;&gt;Node17 -->
<g id="edge15" class="edge">
<title>Node8&#45;&gt;Node17</title>
<path fill="none" stroke="#191970" d="M279.5843,-150.2527C296.7366,-131.2037 336.2193,-87.355 357.9634,-63.2064"/>
<polygon fill="#191970" stroke="#191970" points="360.7587,-65.3326 364.8492,-55.5592 355.5567,-60.6486 360.7587,-65.3326"/>
</g>
<!-- Node10 -->
<g id="node7" class="node">
<title>Node10</title>
<g id="a_node7"><a xlink:href="log_8c.html#afff22aff6749311a684a559cac3ac8bd" target="_top" xlink:title="log_info">
<polygon fill="none" stroke="#000000" points="454.2427,-225.5 454.2427,-243.5 505.272,-243.5 505.272,-225.5 454.2427,-225.5"/>
<text text-anchor="middle" x="479.7573" y="-231.5" font-family="Helvetica,sans-Serif" font-size="10.00" fill="#000000">log_info</text>
</a>
</g>
</g>
<!-- Node9&#45;&gt;Node10 -->
<g id="edge6" class="edge">
<title>Node9&#45;&gt;Node10</title>
<path fill="none" stroke="#191970" d="M398.5759,-233.7395C412.0766,-233.866 428.8702,-234.0233 443.6741,-234.162"/>
<polygon fill="#191970" stroke="#191970" points="443.9941,-237.665 454.0265,-234.259 444.0597,-230.6653 443.9941,-237.665"/>
</g>
<!-- Node10&#45;&gt;Node7 -->
<g id="edge7" class="edge">
<title>Node10&#45;&gt;Node7</title>
<path fill="none" stroke="#191970" d="M505.3539,-243.0815C522.0678,-248.6851 543.9229,-256.0122 561.2549,-261.823"/>
<polygon fill="#191970" stroke="#191970" points="560.2701,-265.1842 570.864,-265.0445 562.4953,-258.5473 560.2701,-265.1842"/>
</g>
<!-- Node11 -->
<g id="node8" class="node">
<title>Node11</title>
<g id="a_node8"><a xlink:href="_a_p_i_8h.html#aab53a247d88151a6623c20fa1ea940b0" target="_top" xlink:title="lcdSetBacklight">
<polygon fill="none" stroke="#000000" points="547.9346,-225.5 547.9346,-243.5 632.3037,-243.5 632.3037,-225.5 547.9346,-225.5"/>
<text text-anchor="middle" x="590.1191" y="-231.5" font-family="Helvetica,sans-Serif" font-size="10.00" fill="#000000">lcdSetBacklight</text>
</a>
</g>
</g>
<!-- Node10&#45;&gt;Node11 -->
<g id="edge8" class="edge">
<title>Node10&#45;&gt;Node11</title>
<path fill="none" stroke="#191970" d="M505.3539,-234.5C515.0068,-234.5 526.3745,-234.5 537.5953,-234.5"/>
<polygon fill="#191970" stroke="#191970" points="537.8055,-238.0001 547.8054,-234.5 537.8054,-231.0001 537.8055,-238.0001"/>
</g>
<!-- Node12 -->
<g id="node9" class="node">
<title>Node12</title>
<g id="a_node9"><a xlink:href="_a_p_i_8h.html#a5fa1d119fe3e836b5519f97eae7a1272" target="_top" xlink:title="lcdClear">
<polygon fill="none" stroke="#000000" points="563.7793,-188.5 563.7793,-206.5 616.459,-206.5 616.459,-188.5 563.7793,-188.5"/>
<text text-anchor="middle" x="590.1191" y="-194.5" font-family="Helvetica,sans-Serif" font-size="10.00" fill="#000000">lcdClear</text>
</a>
</g>
</g>
<!-- Node10&#45;&gt;Node12 -->
<g id="edge9" class="edge">
<title>Node10&#45;&gt;Node12</title>
<path fill="none" stroke="#191970" d="M505.3539,-225.9185C519.8024,-221.0745 538.0927,-214.9424 553.982,-209.6154"/>
<polygon fill="#191970" stroke="#191970" points="555.1404,-212.9185 563.5091,-206.4213 552.9152,-206.2816 555.1404,-212.9185"/>
</g>
<!-- Node14&#45;&gt;Node7 -->
<g id="edge12" class="edge">
<title>Node14&#45;&gt;Node7</title>
<path fill="none" stroke="#191970" d="M496.0416,-271.5C512.9931,-271.5 539.9089,-271.5 560.6161,-271.5"/>
<polygon fill="#191970" stroke="#191970" points="560.793,-275.0001 570.793,-271.5 560.793,-268.0001 560.793,-275.0001"/>
</g>
<!-- Node17&#45;&gt;Node18 -->
<g id="edge16" class="edge">
<title>Node17&#45;&gt;Node18</title>
<path fill="none" stroke="#191970" d="M398.3048,-55.5055C412.1629,-60.4385 429.551,-66.6281 444.6991,-72.0204"/>
<polygon fill="#191970" stroke="#191970" points="443.6758,-75.3712 454.2705,-75.4275 446.0233,-68.7765 443.6758,-75.3712"/>
</g>
<!-- Node17&#45;&gt;Node19 -->
<g id="edge17" class="edge">
<title>Node17&#45;&gt;Node19</title>
<path fill="none" stroke="#191970" d="M399.1206,-37.4488C412.5613,-32.7902 429.1546,-27.0389 443.7879,-21.967"/>
<polygon fill="#191970" stroke="#191970" points="445.2404,-25.168 453.5427,-18.586 442.9479,-18.554 445.2404,-25.168"/>
</g>
<!-- Node20 -->
<g id="node17" class="node">
<title>Node20</title>
<g id="a_node17"><a xlink:href="_a_p_i_8h.html#a03c5b04b472d024281f62d7af8854a8e" target="_top" xlink:title="motorSet">
<polygon fill="none" stroke="#000000" points="451.4717,-37.5 451.4717,-55.5 508.043,-55.5 508.043,-37.5 451.4717,-37.5"/>
<text text-anchor="middle" x="479.7573" y="-43.5" font-family="Helvetica,sans-Serif" font-size="10.00" fill="#000000">motorSet</text>
</a>
</g>
</g>
<!-- Node17&#45;&gt;Node20 -->
<g id="edge18" class="edge">
<title>Node17&#45;&gt;Node20</title>
<path fill="none" stroke="#191970" d="M411.8479,-46.5C421.3918,-46.5 431.6069,-46.5 441.1402,-46.5"/>
<polygon fill="#191970" stroke="#191970" points="441.1533,-50.0001 451.1533,-46.5 441.1533,-43.0001 441.1533,-50.0001"/>
</g>
</g>
</svg>
        <g id="navigator" transform="translate(0 0)" fill="#404254">
                <rect fill="#f2f5e9" fill-opacity="0.5" stroke="#606060" stroke-width=".5" x="0" y="0" width="60" height="60"/>
                <use id="zoomplus" xlink:href="#zoomPlus" x="17" y="9" onmousedown="handleZoom(evt,'in')"/>
                <use id="zoomminus" xlink:href="#zoomMin" x="42" y="9" onmousedown="handleZoom(evt,'out')"/>
                <use id="reset" xlink:href="#resetDef" x="30" y="36" onmousedown="handleReset()"/>
                <g id="arrowUp" xlink:href="#dirArrow" transform="translate(30 24)" onmousedown="handlePan(0,-1)">
                  <use xlink:href="#rim" fill="#404040">
                        <set attributeName="fill" to="#808080" begin="arrowUp.mouseover" end="arrowUp.mouseout"/>
                  </use>
                  <path fill="none" stroke="white" stroke-width="1.5" d="M0,-3.0v7 M-2.5,-0.5L0,-3.0L2.5,-0.5"/>
                </g>
                <g id="arrowRight" xlink:href="#dirArrow" transform="rotate(90) translate(36 -43)" onmousedown="handlePan(1,0)">
                  <use xlink:href="#rim" fill="#404040">
                        <set attributeName="fill" to="#808080" begin="arrowRight.mouseover" end="arrowRight.mouseout"/>
                  </use>
                  <path fill="none" stroke="white" stroke-width="1.5" d="M0,-3.0v7 M-2.5,-0.5L0,-3.0L2.5,-0.5"/>
                </g>
                <g id="arrowDown" xlink:href="#dirArrow" transform="rotate(180) translate(-30 -48)" onmousedown="handlePan(0,1)">
                  <use xlink:href="#rim" fill="#404040">
                        <set attributeName="fill" to="#808080" begin="arrowDown.mouseover" end="arrowDown.mouseout"/>
                  </use>
                  <path fill="none" stroke="white" stroke-width="1.5" d="M0,-3.0v7 M-2.5,-0.5L0,-3.0L2.5,-0.5"/>
                </g>
                <g id="arrowLeft" xlink:href="#dirArrow" transform="rotate(270) translate(-36 17)" onmousedown="handlePan(-1,0)">
                  <use xlink:href="#rim" fill="#404040">
                        <set attributeName="fill" to="#808080" begin="arrowLeft.mouseover" end="arrowLeft.mouseout"/>
                  </use>
                  <path fill="none" stroke="white" stroke-width="1.5" d="M0,-3.0v7 M-2.5,-0.5L0,-3.0L2.5,-0.5"/>
                </g>
        </g>
        <svg viewBox="0 0 15 15" width="100%" height="30px" preserveAspectRatio="xMaxYMin meet">
         <g id="arrow_out" transform="scale(0.3 0.3)">
          <a xlink:href="drive_8c_a8df41fd50094c065eedc81fc5e6595d1_cgraph_org.svg" target="_base">
           <rect id="button" ry="5" rx="5" y="6" x="6" height="38" width="38"
                fill="#f2f5e9" fill-opacity="0.5" stroke="#606060" stroke-width="1.0"/>
           <path id="arrow"
             d="M 11.500037,31.436501 C 11.940474,20.09759 22.043105,11.32322 32.158766,21.979434 L 37.068811,17.246167 C 37.068811,17.246167 37.088388,32 37.088388,32 L 22.160133,31.978069 C 22.160133,31.978069 26.997745,27.140456 26.997745,27.140456 C 18.528582,18.264221 13.291696,25.230495 11.500037,31.436501 z"
             style="fill:#404040;"/>
          </a>
         </g>
        </svg>
</svg>
