<?xml version="1.0" encoding="UTF-8" standalone="no"?>
<!DOCTYPE svg PUBLIC "-//W3C//DTD SVG 1.1//EN"
 "http://www.w3.org/Graphics/SVG/1.1/DTD/svg11.dtd">
<!-- Generated by graphviz version 2.40.1 (20161225.0304)
 -->
<!-- Title: set_side_speed Pages: 1 -->
<svg width="507pt" height="101pt"
 viewBox="0.00 0.00 506.61 101.00" xmlns="http://www.w3.org/2000/svg" xmlns:xlink="http://www.w3.org/1999/xlink">
<g id="graph0" class="graph" transform="scale(1 1) rotate(0) translate(4 97)">
<title>set_side_speed</title>
<!-- Node0 -->
<g id="node1" class="node">
<title>Node0</title>
<polygon fill="#bfbfbf" stroke="#000000" points="0,-55.5 0,-73.5 86.0537,-73.5 86.0537,-55.5 0,-55.5"/>
<text text-anchor="middle" x="43.0269" y="-61.5" font-family="Helvetica,sans-Serif" font-size="10.00" fill="#000000">set_side_speed</text>
</g>
<!-- Node1 -->
<g id="node2" class="node">
<title>Node1</title>
<g id="a_node2"><a xlink:href="$slew_8h.html#a7dff2b79dffe55fb936d977594d7c01d" xlink:title="Sets motor speed wrapped inside the slew rate controller. ">
<polygon fill="none" stroke="#000000" points="122.0537,-55.5 122.0537,-73.5 208.083,-73.5 208.083,-55.5 122.0537,-55.5"/>
<text text-anchor="middle" x="165.0684" y="-61.5" font-family="Helvetica,sans-Serif" font-size="10.00" fill="#000000">set_motor_slew</text>
</a>
</g>
</g>
<!-- Node0&#45;&gt;Node1 -->
<g id="edge1" class="edge">
<title>Node0&#45;&gt;Node1</title>
<path fill="none" stroke="#191970" d="M86.0541,-64.5C94.4394,-64.5 103.3224,-64.5 111.9882,-64.5"/>
<polygon fill="#191970" stroke="#191970" points="112.0183,-68.0001 122.0183,-64.5 112.0183,-61.0001 112.0183,-68.0001"/>
</g>
<!-- Node2 -->
<g id="node3" class="node">
<title>Node2</title>
<g id="a_node3"><a xlink:href="$log_8h.html#af3668f40d1ad1b4f3418869ac9a31f34" xlink:title="prints a info message ">
<polygon fill="none" stroke="#000000" points="249.354,-74.5 249.354,-92.5 293.1616,-92.5 293.1616,-74.5 249.354,-74.5"/>
<text text-anchor="middle" x="271.2578" y="-80.5" font-family="Helvetica,sans-Serif" font-size="10.00" fill="#000000">debug</text>
</a>
</g>
</g>
<!-- Node1&#45;&gt;Node2 -->
<g id="edge2" class="edge">
<title>Node1&#45;&gt;Node2</title>
<path fill="none" stroke="#191970" d="M208.2597,-72.228C218.633,-74.0841 229.5292,-76.0337 239.2878,-77.7797"/>
<polygon fill="#191970" stroke="#191970" points="238.8917,-81.2644 249.3519,-79.5805 240.1247,-74.3738 238.8917,-81.2644"/>
</g>
<!-- Node3 -->
<g id="node4" class="node">
<title>Node3</title>
<g id="a_node4"><a xlink:href="$slew_8c.html#a321758941d88b75783955c819bb75005" xlink:title="Initializes the slew rate controller. ">
<polygon fill="none" stroke="#000000" points="244.083,-37.5 244.083,-55.5 298.4326,-55.5 298.4326,-37.5 244.083,-37.5"/>
<text text-anchor="middle" x="271.2578" y="-43.5" font-family="Helvetica,sans-Serif" font-size="10.00" fill="#000000">init_slew</text>
</a>
</g>
</g>
<!-- Node1&#45;&gt;Node3 -->
<g id="edge3" class="edge">
<title>Node1&#45;&gt;Node3</title>
<path fill="none" stroke="#191970" d="M208.2597,-57.1787C216.7381,-55.7415 225.5659,-54.2452 233.8363,-52.8433"/>
<polygon fill="#191970" stroke="#191970" points="234.6715,-56.2517 243.9459,-51.1296 233.5016,-49.3501 234.6715,-56.2517"/>
</g>
<!-- Node4 -->
<g id="node5" class="node">
<title>Node4</title>
<g id="a_node5"><a xlink:href="$log_8h.html#a0bec2cf5fff7f607bc510b74aba9887c" xlink:title="prints a warning message and displays on lcd. Only will print and display if log_level is greater tha...">
<polygon fill="none" stroke="#000000" points="347.4966,-74.5 347.4966,-92.5 398.5161,-92.5 398.5161,-74.5 347.4966,-74.5"/>
<text text-anchor="middle" x="373.0063" y="-80.5" font-family="Helvetica,sans-Serif" font-size="10.00" fill="#000000">warning</text>
</a>
</g>
</g>
<!-- Node3&#45;&gt;Node4 -->
<g id="edge4" class="edge">
<title>Node3&#45;&gt;Node4</title>
<path fill="none" stroke="#191970" d="M296.1483,-55.5512C308.836,-60.165 324.4711,-65.8506 338.3197,-70.8865"/>
<polygon fill="#191970" stroke="#191970" points="337.4261,-74.2857 348.0202,-74.414 339.8184,-67.7072 337.4261,-74.2857"/>
</g>
<!-- Node6 -->
<g id="node7" class="node">
<title>Node6</title>
<g id="a_node7"><a xlink:href="$log_8h.html#a1606d750e1bb8de9f9e917172bba3382" xlink:title="prints a info message ">
<polygon fill="none" stroke="#000000" points="356.9448,-37.5 356.9448,-55.5 389.0679,-55.5 389.0679,-37.5 356.9448,-37.5"/>
<text text-anchor="middle" x="373.0063" y="-43.5" font-family="Helvetica,sans-Serif" font-size="10.00" fill="#000000">info</text>
</a>
</g>
</g>
<!-- Node3&#45;&gt;Node6 -->
<g id="edge6" class="edge">
<title>Node3&#45;&gt;Node6</title>
<path fill="none" stroke="#191970" d="M298.5246,-46.5C313.493,-46.5 331.9647,-46.5 346.768,-46.5"/>
<polygon fill="#191970" stroke="#191970" points="346.7962,-50.0001 356.7961,-46.5 346.7961,-43.0001 346.7962,-50.0001"/>
</g>
<!-- Node7 -->
<g id="node8" class="node">
<title>Node7</title>
<g id="a_node8"><a xlink:href="$slew_8c.html#a807a87c5df438fde21c1e8213906695b" xlink:title="Closes the distance between the desired motor value and the current motor value by half for each moto...">
<polygon fill="none" stroke="#000000" points="334.4326,-.5 334.4326,-18.5 411.5801,-18.5 411.5801,-.5 334.4326,-.5"/>
<text text-anchor="middle" x="373.0063" y="-6.5" font-family="Helvetica,sans-Serif" font-size="10.00" fill="#000000">updateMotors</text>
</a>
</g>
</g>
<!-- Node3&#45;&gt;Node7 -->
<g id="edge7" class="edge">
<title>Node3&#45;&gt;Node7</title>
<path fill="none" stroke="#191970" d="M296.1483,-37.4488C308.836,-32.835 324.4711,-27.1494 338.3197,-22.1135"/>
<polygon fill="#191970" stroke="#191970" points="339.8184,-25.2928 348.0202,-18.586 337.4261,-18.7143 339.8184,-25.2928"/>
</g>
<!-- Node5 -->
<g id="node6" class="node">
<title>Node5</title>
<g id="a_node6"><a xlink:href="$log_8c.html#afff22aff6749311a684a559cac3ac8bd" xlink:title="log_info">
<polygon fill="none" stroke="#000000" points="447.5801,-74.5 447.5801,-92.5 498.6094,-92.5 498.6094,-74.5 447.5801,-74.5"/>
<text text-anchor="middle" x="473.0947" y="-80.5" font-family="Helvetica,sans-Serif" font-size="10.00" fill="#000000">log_info</text>
</a>
</g>
</g>
<!-- Node4&#45;&gt;Node5 -->
<g id="edge5" class="edge">
<title>Node4&#45;&gt;Node5</title>
<path fill="none" stroke="#191970" d="M398.5218,-83.5C410.1958,-83.5 424.2356,-83.5 436.9693,-83.5"/>
<polygon fill="#191970" stroke="#191970" points="437.2778,-87.0001 447.2778,-83.5 437.2778,-80.0001 437.2778,-87.0001"/>
</g>
</g>
</svg>
