<?xml version="1.0" encoding="UTF-8" standalone="no"?>
<!DOCTYPE svg PUBLIC "-//W3C//DTD SVG 1.1//EN"
 "http://www.w3.org/Graphics/SVG/1.1/DTD/svg11.dtd">
<!-- Generated by graphviz version 2.40.1 (20161225.0304)
 -->
<!-- Title: src/drive.c Pages: 1 -->
<svg width="480pt" height="302pt"
 viewBox="0.00 0.00 479.97 302.00" xmlns="http://www.w3.org/2000/svg" xmlns:xlink="http://www.w3.org/1999/xlink">
<g id="graph0" class="graph" transform="scale(1 1) rotate(0) translate(4 298)">
<title>src/drive.c</title>
<!-- Node0 -->
<g id="node1" class="node">
<title>Node0</title>
<polygon fill="#bfbfbf" stroke="#000000" points="214.3398,-275.5 214.3398,-293.5 275.9014,-293.5 275.9014,-275.5 214.3398,-275.5"/>
<text text-anchor="middle" x="245.1206" y="-281.5" font-family="Helvetica,sans-Serif" font-size="10.00" fill="#000000">src/drive.c</text>
</g>
<!-- Node1 -->
<g id="node2" class="node">
<title>Node1</title>
<g id="a_node2"><a xlink:href="drive_8h.html" target="_top" xlink:title="Drive base definitions and enumerations. ">
<polygon fill="none" stroke="#000000" points="166.1133,-220.5 166.1133,-238.5 212.1279,-238.5 212.1279,-220.5 166.1133,-220.5"/>
<text text-anchor="middle" x="189.1206" y="-226.5" font-family="Helvetica,sans-Serif" font-size="10.00" fill="#000000">drive.h</text>
</a>
</g>
</g>
<!-- Node0&#45;&gt;Node1 -->
<g id="edge1" class="edge">
<title>Node0&#45;&gt;Node1</title>
<path fill="none" stroke="#191970" d="M235.8733,-275.4179C227.7351,-267.425 215.6853,-255.5903 205.8572,-245.9377"/>
<polygon fill="#191970" stroke="#191970" points="208.1558,-243.2895 198.5688,-238.7795 203.2508,-248.2836 208.1558,-243.2895"/>
</g>
<!-- Node2 -->
<g id="node3" class="node">
<title>Node2</title>
<g id="a_node3"><a xlink:href="_a_p_i_8h.html" target="_top" xlink:title="Provides the high&#45;level user functionality intended for use by typical VEX Cortex programmers...">
<polygon fill="none" stroke="#000000" points="125.8916,-55.5 125.8916,-73.5 166.3496,-73.5 166.3496,-55.5 125.8916,-55.5"/>
<text text-anchor="middle" x="146.1206" y="-61.5" font-family="Helvetica,sans-Serif" font-size="10.00" fill="#000000">API.h</text>
</a>
</g>
</g>
<!-- Node0&#45;&gt;Node2 -->
<g id="edge23" class="edge">
<title>Node0&#45;&gt;Node2</title>
<path fill="none" stroke="#191970" d="M214.2787,-276.8194C194.5496,-270.2074 170.2717,-258.5513 157.1206,-239 125.0031,-191.2523 134.4203,-118.5321 141.4703,-84.0067"/>
<polygon fill="#191970" stroke="#191970" points="144.9736,-84.3725 143.707,-73.8536 138.1375,-82.8665 144.9736,-84.3725"/>
</g>
<!-- Node8 -->
<g id="node9" class="node">
<title>Node8</title>
<g id="a_node9"><a xlink:href="controller_8h.html" target="_top" xlink:title="controller definitions, macros ">
<polygon fill="none" stroke="#000000" points="198.6602,-110.5 198.6602,-128.5 263.5811,-128.5 263.5811,-110.5 198.6602,-110.5"/>
<text text-anchor="middle" x="231.1206" y="-116.5" font-family="Helvetica,sans-Serif" font-size="10.00" fill="#000000">controller.h</text>
</a>
</g>
</g>
<!-- Node0&#45;&gt;Node8 -->
<g id="edge15" class="edge">
<title>Node0&#45;&gt;Node8</title>
<path fill="none" stroke="#191970" d="M244.3278,-275.1561C242.1043,-248.9504 235.775,-174.3557 232.7584,-138.8021"/>
<polygon fill="#191970" stroke="#191970" points="236.2377,-138.4097 231.9047,-128.7414 229.2628,-139.0015 236.2377,-138.4097"/>
</g>
<!-- Node9 -->
<g id="node10" class="node">
<title>Node9</title>
<g id="a_node10"><a xlink:href="vmath_8h.html" target="_top" xlink:title="Vex Specific Math Functions, includes: Cartesian to polar cordinates. ">
<polygon fill="none" stroke="#000000" points="245.335,-55.5 245.335,-73.5 296.9063,-73.5 296.9063,-55.5 245.335,-55.5"/>
<text text-anchor="middle" x="271.1206" y="-61.5" font-family="Helvetica,sans-Serif" font-size="10.00" fill="#000000">vmath.h</text>
</a>
</g>
</g>
<!-- Node0&#45;&gt;Node9 -->
<g id="edge14" class="edge">
<title>Node0&#45;&gt;Node9</title>
<path fill="none" stroke="#191970" d="M247.0019,-275.4523C248.887,-266.2823 251.83,-251.6785 254.1206,-239 262.9282,-190.2501 268.1074,-178.3763 272.1206,-129 272.8047,-120.5833 272.2134,-118.4439 272.1206,-110 272.0262,-101.4079 271.8315,-91.9049 271.6388,-83.8154"/>
<polygon fill="#191970" stroke="#191970" points="275.1313,-83.4713 271.3784,-73.5635 268.1336,-83.6492 275.1313,-83.4713"/>
</g>
<!-- Node11 -->
<g id="node12" class="node">
<title>Node11</title>
<g id="a_node12"><a xlink:href="motor__ports_8h.html" target="_top" xlink:title="motor_ports.h">
<polygon fill="none" stroke="#000000" points="394.2734,-220.5 394.2734,-238.5 471.9678,-238.5 471.9678,-220.5 394.2734,-220.5"/>
<text text-anchor="middle" x="433.1206" y="-226.5" font-family="Helvetica,sans-Serif" font-size="10.00" fill="#000000">motor_ports.h</text>
</a>
</g>
</g>
<!-- Node0&#45;&gt;Node11 -->
<g id="edge13" class="edge">
<title>Node0&#45;&gt;Node11</title>
<path fill="none" stroke="#191970" d="M276.165,-275.4179C307.9637,-266.115 357.5513,-251.608 392.4639,-241.3943"/>
<polygon fill="#191970" stroke="#191970" points="393.7276,-244.6713 402.3426,-238.5042 391.7621,-237.9529 393.7276,-244.6713"/>
</g>
<!-- Node12 -->
<g id="node13" class="node">
<title>Node12</title>
<g id="a_node13"><a xlink:href="slew_8h.html" target="_top" xlink:title="Contains the slew rate controller wrapper for the motors. ">
<polygon fill="none" stroke="#000000" points="356.2217,-165.5 356.2217,-183.5 400.0195,-183.5 400.0195,-165.5 356.2217,-165.5"/>
<text text-anchor="middle" x="378.1206" y="-171.5" font-family="Helvetica,sans-Serif" font-size="10.00" fill="#000000">slew.h</text>
</a>
</g>
</g>
<!-- Node0&#45;&gt;Node12 -->
<g id="edge16" class="edge">
<title>Node0&#45;&gt;Node12</title>
<path fill="none" stroke="#191970" d="M275.979,-275.5651C296.6216,-268.3548 323.3415,-256.5002 342.1206,-239 355.7271,-226.3201 365.471,-207.3057 371.3618,-193.2038"/>
<polygon fill="#191970" stroke="#191970" points="374.7484,-194.1523 375.1156,-183.5638 368.2255,-191.6122 374.7484,-194.1523"/>
</g>
<!-- Node15 -->
<g id="node16" class="node">
<title>Node15</title>
<g id="a_node16"><a xlink:href="log_8h.html" target="_top" xlink:title="Contains logging functions. ">
<polygon fill="none" stroke="#000000" points="29.2783,-165.5 29.2783,-183.5 66.9629,-183.5 66.9629,-165.5 29.2783,-165.5"/>
<text text-anchor="middle" x="48.1206" y="-171.5" font-family="Helvetica,sans-Serif" font-size="10.00" fill="#000000">log.h</text>
</a>
</g>
</g>
<!-- Node0&#45;&gt;Node15 -->
<g id="edge24" class="edge">
<title>Node0&#45;&gt;Node15</title>
<path fill="none" stroke="#191970" d="M214.1021,-276.9588C187.6376,-269.6911 149.2062,-257.1162 119.1206,-239 97.4154,-225.9301 76.4324,-205.6142 62.9792,-191.2811"/>
<polygon fill="#191970" stroke="#191970" points="65.3132,-188.6472 55.9798,-183.6333 60.1494,-193.3732 65.3132,-188.6472"/>
</g>
<!-- Node1&#45;&gt;Node2 -->
<g id="edge2" class="edge">
<title>Node1&#45;&gt;Node2</title>
<path fill="none" stroke="#191970" d="M178.5082,-220.2271C169.6699,-211.7798 157.6656,-198.4483 152.1206,-184 139.27,-150.516 141.0241,-107.8411 143.5282,-83.6035"/>
<polygon fill="#191970" stroke="#191970" points="147.0142,-83.9283 144.7194,-73.585 140.0631,-83.1018 147.0142,-83.9283"/>
</g>
<!-- Node7 -->
<g id="node8" class="node">
<title>Node7</title>
<g id="a_node8"><a xlink:href="partner_8h.html" target="_top" xlink:title="partner.h">
<polygon fill="none" stroke="#000000" points="161.3818,-165.5 161.3818,-183.5 216.8594,-183.5 216.8594,-165.5 161.3818,-165.5"/>
<text text-anchor="middle" x="189.1206" y="-171.5" font-family="Helvetica,sans-Serif" font-size="10.00" fill="#000000">partner.h</text>
</a>
</g>
</g>
<!-- Node1&#45;&gt;Node7 -->
<g id="edge7" class="edge">
<title>Node1&#45;&gt;Node7</title>
<path fill="none" stroke="#191970" d="M189.1206,-220.4179C189.1206,-213.2164 189.1206,-202.8962 189.1206,-193.8632"/>
<polygon fill="#191970" stroke="#191970" points="192.6207,-193.7794 189.1206,-183.7795 185.6207,-193.7795 192.6207,-193.7794"/>
</g>
<!-- Node3 -->
<g id="node4" class="node">
<title>Node3</title>
<polygon fill="none" stroke="#bfbfbf" points="66.2783,-.5 66.2783,-18.5 113.9629,-18.5 113.9629,-.5 66.2783,-.5"/>
<text text-anchor="middle" x="90.1206" y="-6.5" font-family="Helvetica,sans-Serif" font-size="10.00" fill="#000000">stdlib.h</text>
</g>
<!-- Node2&#45;&gt;Node3 -->
<g id="edge3" class="edge">
<title>Node2&#45;&gt;Node3</title>
<path fill="none" stroke="#191970" d="M136.8733,-55.4179C128.7351,-47.425 116.6853,-35.5903 106.8572,-25.9377"/>
<polygon fill="#191970" stroke="#191970" points="109.1558,-23.2895 99.5688,-18.7795 104.2508,-28.2836 109.1558,-23.2895"/>
</g>
<!-- Node4 -->
<g id="node5" class="node">
<title>Node4</title>
<polygon fill="none" stroke="#bfbfbf" points="131.8276,-.5 131.8276,-18.5 188.4136,-18.5 188.4136,-.5 131.8276,-.5"/>
<text text-anchor="middle" x="160.1206" y="-6.5" font-family="Helvetica,sans-Serif" font-size="10.00" fill="#000000">stdbool.h</text>
</g>
<!-- Node2&#45;&gt;Node4 -->
<g id="edge4" class="edge">
<title>Node2&#45;&gt;Node4</title>
<path fill="none" stroke="#191970" d="M148.4324,-55.4179C150.2857,-48.1372 152.9503,-37.669 155.2675,-28.5659"/>
<polygon fill="#191970" stroke="#191970" points="158.6835,-29.3338 157.7586,-18.7795 151.8999,-27.607 158.6835,-29.3338"/>
</g>
<!-- Node5 -->
<g id="node6" class="node">
<title>Node5</title>
<polygon fill="none" stroke="#bfbfbf" points="206.0542,-.5 206.0542,-18.5 258.187,-18.5 258.187,-.5 206.0542,-.5"/>
<text text-anchor="middle" x="232.1206" y="-6.5" font-family="Helvetica,sans-Serif" font-size="10.00" fill="#000000">stdarg.h</text>
</g>
<!-- Node2&#45;&gt;Node5 -->
<g id="edge5" class="edge">
<title>Node2&#45;&gt;Node5</title>
<path fill="none" stroke="#191970" d="M160.3218,-55.4179C173.6419,-46.8992 193.7856,-34.0166 209.3498,-24.0627"/>
<polygon fill="#191970" stroke="#191970" points="211.3596,-26.932 217.8984,-18.5956 207.5881,-21.0348 211.3596,-26.932"/>
</g>
<!-- Node6 -->
<g id="node7" class="node">
<title>Node6</title>
<polygon fill="none" stroke="#bfbfbf" points="0,-.5 0,-18.5 48.2412,-18.5 48.2412,-.5 0,-.5"/>
<text text-anchor="middle" x="24.1206" y="-6.5" font-family="Helvetica,sans-Serif" font-size="10.00" fill="#000000">stdint.h</text>
</g>
<!-- Node2&#45;&gt;Node6 -->
<g id="edge6" class="edge">
<title>Node2&#45;&gt;Node6</title>
<path fill="none" stroke="#191970" d="M125.9748,-55.4179C106.284,-46.5409 76.0821,-32.9253 53.6733,-22.823"/>
<polygon fill="#191970" stroke="#191970" points="54.8512,-19.5148 44.2964,-18.5956 51.9743,-25.8963 54.8512,-19.5148"/>
</g>
<!-- Node7&#45;&gt;Node2 -->
<g id="edge12" class="edge">
<title>Node7&#45;&gt;Node2</title>
<path fill="none" stroke="#191970" d="M185.6017,-165.4982C178.5779,-147.5302 162.6934,-106.8954 153.3542,-83.0046"/>
<polygon fill="#191970" stroke="#191970" points="156.5888,-81.6655 149.6881,-73.6261 150.0692,-84.2141 156.5888,-81.6655"/>
</g>
<!-- Node7&#45;&gt;Node8 -->
<g id="edge8" class="edge">
<title>Node7&#45;&gt;Node8</title>
<path fill="none" stroke="#191970" d="M196.0561,-165.4179C201.9784,-157.6624 210.6628,-146.29 217.907,-136.8035"/>
<polygon fill="#191970" stroke="#191970" points="220.747,-138.8514 224.0345,-128.7795 215.1836,-134.6029 220.747,-138.8514"/>
</g>
<!-- Node8&#45;&gt;Node2 -->
<g id="edge11" class="edge">
<title>Node8&#45;&gt;Node2</title>
<path fill="none" stroke="#191970" d="M217.0846,-110.4179C203.9193,-101.8992 184.0098,-89.0166 168.6266,-79.0627"/>
<polygon fill="#191970" stroke="#191970" points="170.4746,-76.0897 160.1775,-73.5956 166.6718,-81.9667 170.4746,-76.0897"/>
</g>
<!-- Node8&#45;&gt;Node9 -->
<g id="edge9" class="edge">
<title>Node8&#45;&gt;Node9</title>
<path fill="none" stroke="#191970" d="M237.7258,-110.4179C243.3086,-102.7415 251.4685,-91.5217 258.3246,-82.0945"/>
<polygon fill="#191970" stroke="#191970" points="261.3207,-83.9255 264.3719,-73.7795 255.6596,-79.8082 261.3207,-83.9255"/>
</g>
<!-- Node10 -->
<g id="node11" class="node">
<title>Node10</title>
<polygon fill="none" stroke="#bfbfbf" points="301.835,-.5 301.835,-18.5 348.4063,-18.5 348.4063,-.5 301.835,-.5"/>
<text text-anchor="middle" x="325.1206" y="-6.5" font-family="Helvetica,sans-Serif" font-size="10.00" fill="#000000">math.h</text>
</g>
<!-- Node9&#45;&gt;Node10 -->
<g id="edge10" class="edge">
<title>Node9&#45;&gt;Node10</title>
<path fill="none" stroke="#191970" d="M280.0376,-55.4179C287.8852,-47.425 299.5046,-35.5903 308.9817,-25.9377"/>
<polygon fill="#191970" stroke="#191970" points="311.5014,-28.3672 316.0099,-18.7795 306.5065,-23.463 311.5014,-28.3672"/>
</g>
<!-- Node12&#45;&gt;Node2 -->
<g id="edge17" class="edge">
<title>Node12&#45;&gt;Node2</title>
<path fill="none" stroke="#191970" d="M365.2125,-165.4717C345.7149,-152.1102 307.2875,-126.8399 272.1206,-110 240.4541,-94.8364 202.3198,-81.7345 176.3573,-73.5357"/>
<polygon fill="#191970" stroke="#191970" points="177.2935,-70.1616 166.7053,-70.5365 175.2163,-76.8463 177.2935,-70.1616"/>
</g>
<!-- Node12&#45;&gt;Node10 -->
<g id="edge18" class="edge">
<title>Node12&#45;&gt;Node10</title>
<path fill="none" stroke="#191970" d="M384.9888,-165.4508C399.9251,-144.5815 432.303,-92.0347 410.1206,-55 398.8932,-36.2553 377.0145,-24.7964 358.2664,-18.0669"/>
<polygon fill="#191970" stroke="#191970" points="359.134,-14.6682 348.5414,-14.882 356.9554,-21.3205 359.134,-14.6682"/>
</g>
<!-- Node13 -->
<g id="node14" class="node">
<title>Node13</title>
<g id="a_node14"><a xlink:href="vlib_8h.html" target="_top" xlink:title="Contains misc helpful functions. ">
<polygon fill="none" stroke="#000000" points="357.4482,-110.5 357.4482,-128.5 396.793,-128.5 396.793,-110.5 357.4482,-110.5"/>
<text text-anchor="middle" x="377.1206" y="-116.5" font-family="Helvetica,sans-Serif" font-size="10.00" fill="#000000">vlib.h</text>
</a>
</g>
</g>
<!-- Node12&#45;&gt;Node13 -->
<g id="edge19" class="edge">
<title>Node12&#45;&gt;Node13</title>
<path fill="none" stroke="#191970" d="M377.9555,-165.4179C377.8245,-158.2164 377.6369,-147.8962 377.4727,-138.8632"/>
<polygon fill="#191970" stroke="#191970" points="380.9706,-138.7141 377.2893,-128.7795 373.9718,-138.8415 380.9706,-138.7141"/>
</g>
<!-- Node13&#45;&gt;Node2 -->
<g id="edge21" class="edge">
<title>Node13&#45;&gt;Node2</title>
<path fill="none" stroke="#191970" d="M357.4257,-114.8107C316.9699,-105.1784 224.2869,-83.111 176.2411,-71.6715"/>
<polygon fill="#191970" stroke="#191970" points="176.9629,-68.2456 166.4242,-69.3342 175.3415,-75.0553 176.9629,-68.2456"/>
</g>
<!-- Node13&#45;&gt;Node10 -->
<g id="edge20" class="edge">
<title>Node13&#45;&gt;Node10</title>
<path fill="none" stroke="#191970" d="M369.0231,-110.3492C361.6223,-101.5683 350.8375,-87.6608 344.1206,-74 336.9577,-59.4321 331.9702,-41.6584 328.9084,-28.4606"/>
<polygon fill="#191970" stroke="#191970" points="332.3157,-27.6574 326.7838,-18.6214 325.4734,-29.1349 332.3157,-27.6574"/>
</g>
<!-- Node14 -->
<g id="node15" class="node">
<title>Node14</title>
<polygon fill="none" stroke="#bfbfbf" points="352.7241,-55.5 352.7241,-73.5 401.5171,-73.5 401.5171,-55.5 352.7241,-55.5"/>
<text text-anchor="middle" x="377.1206" y="-61.5" font-family="Helvetica,sans-Serif" font-size="10.00" fill="#000000">string.h</text>
</g>
<!-- Node13&#45;&gt;Node14 -->
<g id="edge22" class="edge">
<title>Node13&#45;&gt;Node14</title>
<path fill="none" stroke="#191970" d="M377.1206,-110.4179C377.1206,-103.2164 377.1206,-92.8962 377.1206,-83.8632"/>
<polygon fill="#191970" stroke="#191970" points="380.6207,-83.7794 377.1206,-73.7795 373.6207,-83.7795 380.6207,-83.7794"/>
</g>
<!-- Node15&#45;&gt;Node2 -->
<g id="edge25" class="edge">
<title>Node15&#45;&gt;Node2</title>
<path fill="none" stroke="#191970" d="M38.4291,-165.1382C26.0488,-152.0202 7.6347,-127.7839 20.1206,-110 31.384,-93.9574 82.4423,-79.3146 116.0066,-71.1835"/>
<polygon fill="#191970" stroke="#191970" points="116.8682,-74.5764 125.798,-68.8747 115.2617,-67.7632 116.8682,-74.5764"/>
</g>
<!-- Node16 -->
<g id="node17" class="node">
<title>Node16</title>
<g id="a_node17"><a xlink:href="lcd_8h.html" target="_top" xlink:title="LCD wrapper functions and macros. ">
<polygon fill="none" stroke="#000000" points="29.5591,-110.5 29.5591,-128.5 66.6821,-128.5 66.6821,-110.5 29.5591,-110.5"/>
<text text-anchor="middle" x="48.1206" y="-116.5" font-family="Helvetica,sans-Serif" font-size="10.00" fill="#000000">lcd.h</text>
</a>
</g>
</g>
<!-- Node15&#45;&gt;Node16 -->
<g id="edge26" class="edge">
<title>Node15&#45;&gt;Node16</title>
<path fill="none" stroke="#191970" d="M48.1206,-165.4179C48.1206,-158.2164 48.1206,-147.8962 48.1206,-138.8632"/>
<polygon fill="#191970" stroke="#191970" points="51.6207,-138.7794 48.1206,-128.7795 44.6207,-138.7795 51.6207,-138.7794"/>
</g>
<!-- Node16&#45;&gt;Node2 -->
<g id="edge27" class="edge">
<title>Node16&#45;&gt;Node2</title>
<path fill="none" stroke="#191970" d="M64.3033,-110.4179C79.7658,-101.7399 103.2974,-88.5334 121.1615,-78.5077"/>
<polygon fill="#191970" stroke="#191970" points="122.9063,-81.542 129.9139,-73.5956 119.4804,-75.4377 122.9063,-81.542"/>
</g>
</g>
</svg>
