<?xml version="1.0" encoding="UTF-8" standalone="no"?>
<!DOCTYPE svg PUBLIC "-//W3C//DTD SVG 1.1//EN"
 "http://www.w3.org/Graphics/SVG/1.1/DTD/svg11.dtd">
<!-- Generated by graphviz version 2.40.1 (20161225.0304)
 -->
<!-- Title: set_side_speed Pages: 1 -->
<svg width="361pt" height="64pt"
 viewBox="0.00 0.00 361.48 64.00" xmlns="http://www.w3.org/2000/svg" xmlns:xlink="http://www.w3.org/1999/xlink">
<g id="graph0" class="graph" transform="scale(1 1) rotate(0) translate(4 60)">
<title>set_side_speed</title>
<!-- Node21 -->
<g id="node1" class="node">
<title>Node21</title>
<polygon fill="#bfbfbf" stroke="#000000" points="0,-18.5 0,-36.5 86.0537,-36.5 86.0537,-18.5 0,-18.5"/>
<text text-anchor="middle" x="43.0269" y="-24.5" font-family="Helvetica,sans-Serif" font-size="10.00" fill="#000000">set_side_speed</text>
</g>
<!-- Node22 -->
<g id="node2" class="node">
<title>Node22</title>
<g id="a_node2"><a xlink:href="auto_8c.html#a3c7ca506bbc071fa740de13805b7f376" target="_top" xlink:title="autonomous">
<polygon fill="none" stroke="#000000" points="141.5068,-37.5 141.5068,-55.5 212.5459,-55.5 212.5459,-37.5 141.5068,-37.5"/>
<text text-anchor="middle" x="177.0264" y="-43.5" font-family="Helvetica,sans-Serif" font-size="10.00" fill="#000000">autonomous</text>
</a>
</g>
</g>
<!-- Node21&#45;&gt;Node22 -->
<g id="edge1" class="edge">
<title>Node21&#45;&gt;Node22</title>
<path fill="none" stroke="#191970" d="M96.3788,-35.0649C111.4132,-37.1966 127.405,-39.4641 141.15,-41.413"/>
<polygon fill="#191970" stroke="#191970" points="96.5551,-31.5549 86.1627,-33.6163 95.5723,-38.4856 96.5551,-31.5549"/>
</g>
<!-- Node23 -->
<g id="node3" class="node">
<title>Node23</title>
<g id="a_node3"><a xlink:href="drive_8c.html#a8224a4626a934d30ed587671b7004bf8" target="_top" xlink:title="Updates the drive motors during teleop. ">
<polygon fill="none" stroke="#000000" points="122.0537,-.5 122.0537,-18.5 231.999,-18.5 231.999,-.5 122.0537,-.5"/>
<text text-anchor="middle" x="177.0264" y="-6.5" font-family="Helvetica,sans-Serif" font-size="10.00" fill="#000000">update_drive_motors</text>
</a>
</g>
</g>
<!-- Node21&#45;&gt;Node23 -->
<g id="edge2" class="edge">
<title>Node21&#45;&gt;Node23</title>
<path fill="none" stroke="#191970" d="M96.2069,-20.3564C104.5948,-19.2296 113.2849,-18.0623 121.7197,-16.9293"/>
<polygon fill="#191970" stroke="#191970" points="95.6077,-16.9053 86.1627,-21.7056 96.5397,-23.843 95.6077,-16.9053"/>
</g>
<!-- Node24 -->
<g id="node4" class="node">
<title>Node24</title>
<g id="a_node4"><a xlink:href="opcontrol_8c.html#ac71a94af413917f27d108e95c4d6f6a7" target="_top" xlink:title="operatorControl">
<polygon fill="none" stroke="#000000" points="267.999,-.5 267.999,-18.5 353.4814,-18.5 353.4814,-.5 267.999,-.5"/>
<text text-anchor="middle" x="310.7402" y="-6.5" font-family="Helvetica,sans-Serif" font-size="10.00" fill="#000000">operatorControl</text>
</a>
</g>
</g>
<!-- Node23&#45;&gt;Node24 -->
<g id="edge3" class="edge">
<title>Node23&#45;&gt;Node24</title>
<path fill="none" stroke="#191970" d="M242.3475,-9.5C251.0483,-9.5 259.7837,-9.5 267.964,-9.5"/>
<polygon fill="#191970" stroke="#191970" points="242.1849,-6.0001 232.1849,-9.5 242.1849,-13.0001 242.1849,-6.0001"/>
</g>
</g>
</svg>
