<?xml version="1.0" encoding="UTF-8" standalone="no"?>
<!DOCTYPE svg PUBLIC "-//W3C//DTD SVG 1.1//EN"
 "http://www.w3.org/Graphics/SVG/1.1/DTD/svg11.dtd">
<!-- Generated by graphviz version 2.40.1 (20161225.0304)
 -->
<!-- Title: include/drive.h Pages: 1 -->
<svg width="151pt" height="247pt"
 viewBox="0.00 0.00 150.70 247.00" xmlns="http://www.w3.org/2000/svg" xmlns:xlink="http://www.w3.org/1999/xlink">
<g id="graph0" class="graph" transform="scale(1 1) rotate(0) translate(4 243)">
<title>include/drive.h</title>
<!-- Node0 -->
<g id="node1" class="node">
<title>Node0</title>
<polygon fill="#bfbfbf" stroke="#000000" points="62.2192,-220.5 62.2192,-238.5 142.7017,-238.5 142.7017,-220.5 62.2192,-220.5"/>
<text text-anchor="middle" x="102.4604" y="-226.5" font-family="Helvetica,sans-Serif" font-size="10.00" fill="#000000">include/drive.h</text>
</g>
<!-- Node1 -->
<g id="node2" class="node">
<title>Node1</title>
<g id="a_node2"><a xlink:href="partner_8h.html" target="_top" xlink:title="partner.h">
<polygon fill="none" stroke="#000000" points="46.7217,-165.5 46.7217,-183.5 102.1992,-183.5 102.1992,-165.5 46.7217,-165.5"/>
<text text-anchor="middle" x="74.4604" y="-171.5" font-family="Helvetica,sans-Serif" font-size="10.00" fill="#000000">partner.h</text>
</a>
</g>
</g>
<!-- Node0&#45;&gt;Node1 -->
<g id="edge1" class="edge">
<title>Node0&#45;&gt;Node1</title>
<path fill="none" stroke="#191970" d="M97.8368,-220.4179C94.0497,-212.9789 88.5685,-202.2123 83.8655,-192.9742"/>
<polygon fill="#191970" stroke="#191970" points="86.8405,-191.1032 79.1845,-183.7795 80.6023,-194.279 86.8405,-191.1032"/>
</g>
<!-- Node2 -->
<g id="node3" class="node">
<title>Node2</title>
<polygon fill="none" stroke="#bfbfbf" points="74.2314,-55.5 74.2314,-73.5 114.6895,-73.5 114.6895,-55.5 74.2314,-55.5"/>
<text text-anchor="middle" x="94.4604" y="-61.5" font-family="Helvetica,sans-Serif" font-size="10.00" fill="#000000">API.h</text>
</g>
<!-- Node0&#45;&gt;Node2 -->
<g id="edge7" class="edge">
<title>Node0&#45;&gt;Node2</title>
<path fill="none" stroke="#191970" d="M104.8621,-220.1683C107.0826,-211.0263 110.2202,-196.6621 111.4604,-184 114.9523,-148.3516 106.2023,-107.0327 100.0014,-83.5082"/>
<polygon fill="#191970" stroke="#191970" points="103.3453,-82.4685 97.3058,-73.7636 96.5986,-84.3348 103.3453,-82.4685"/>
</g>
<!-- Node1&#45;&gt;Node2 -->
<g id="edge2" class="edge">
<title>Node1&#45;&gt;Node2</title>
<path fill="none" stroke="#191970" d="M76.0971,-165.4982C79.3348,-147.6913 86.62,-107.6225 90.9784,-83.6515"/>
<polygon fill="#191970" stroke="#191970" points="94.4558,-84.091 92.8012,-73.6261 87.5687,-82.8387 94.4558,-84.091"/>
</g>
<!-- Node3 -->
<g id="node4" class="node">
<title>Node3</title>
<g id="a_node4"><a xlink:href="controller_8h.html" target="_top" xlink:title="controller definitions, macros and functions to assist with usig the vex controllers. ">
<polygon fill="none" stroke="#000000" points="0,-110.5 0,-128.5 64.9209,-128.5 64.9209,-110.5 0,-110.5"/>
<text text-anchor="middle" x="32.4604" y="-116.5" font-family="Helvetica,sans-Serif" font-size="10.00" fill="#000000">controller.h</text>
</a>
</g>
</g>
<!-- Node1&#45;&gt;Node3 -->
<g id="edge3" class="edge">
<title>Node1&#45;&gt;Node3</title>
<path fill="none" stroke="#191970" d="M67.525,-165.4179C61.6026,-157.6624 52.9183,-146.29 45.674,-136.8035"/>
<polygon fill="#191970" stroke="#191970" points="48.3974,-134.6029 39.5466,-128.7795 42.8341,-138.8514 48.3974,-134.6029"/>
</g>
<!-- Node3&#45;&gt;Node2 -->
<g id="edge6" class="edge">
<title>Node3&#45;&gt;Node2</title>
<path fill="none" stroke="#191970" d="M42.6985,-110.4179C51.7979,-102.3458 65.3141,-90.3556 76.2531,-80.6517"/>
<polygon fill="#191970" stroke="#191970" points="78.8419,-83.0339 84,-73.7795 74.1965,-77.7974 78.8419,-83.0339"/>
</g>
<!-- Node4 -->
<g id="node5" class="node">
<title>Node4</title>
<g id="a_node5"><a xlink:href="vmath_8h.html" target="_top" xlink:title="Vex Specific Math Functions, includes: Cartesian to polar cordinates. ">
<polygon fill="none" stroke="#000000" points="4.6748,-55.5 4.6748,-73.5 56.2461,-73.5 56.2461,-55.5 4.6748,-55.5"/>
<text text-anchor="middle" x="30.4604" y="-61.5" font-family="Helvetica,sans-Serif" font-size="10.00" fill="#000000">vmath.h</text>
</a>
</g>
</g>
<!-- Node3&#45;&gt;Node4 -->
<g id="edge4" class="edge">
<title>Node3&#45;&gt;Node4</title>
<path fill="none" stroke="#191970" d="M32.1302,-110.4179C31.8683,-103.2164 31.493,-92.8962 31.1646,-83.8632"/>
<polygon fill="#191970" stroke="#191970" points="34.6591,-83.6456 30.7979,-73.7795 27.6637,-83.9001 34.6591,-83.6456"/>
</g>
<!-- Node5 -->
<g id="node6" class="node">
<title>Node5</title>
<polygon fill="none" stroke="#bfbfbf" points="7.1748,-.5 7.1748,-18.5 53.7461,-18.5 53.7461,-.5 7.1748,-.5"/>
<text text-anchor="middle" x="30.4604" y="-6.5" font-family="Helvetica,sans-Serif" font-size="10.00" fill="#000000">math.h</text>
</g>
<!-- Node4&#45;&gt;Node5 -->
<g id="edge5" class="edge">
<title>Node4&#45;&gt;Node5</title>
<path fill="none" stroke="#191970" d="M30.4604,-55.4179C30.4604,-48.2164 30.4604,-37.8962 30.4604,-28.8632"/>
<polygon fill="#191970" stroke="#191970" points="33.9605,-28.7794 30.4604,-18.7795 26.9605,-28.7795 33.9605,-28.7794"/>
</g>
</g>
</svg>
