<?xml version="1.0" encoding="UTF-8" standalone="no"?>
<!DOCTYPE svg PUBLIC "-//W3C//DTD SVG 1.1//EN"
 "http://www.w3.org/Graphics/SVG/1.1/DTD/svg11.dtd">
<!-- Generated by graphviz version 2.40.1 (20161225.0304)
 -->
<!-- Title: set_side_speed Pages: 1 -->
<svg width="361pt" height="27pt"
 viewBox="0.00 0.00 361.48 27.00" xmlns="http://www.w3.org/2000/svg" xmlns:xlink="http://www.w3.org/1999/xlink">
<g id="graph0" class="graph" transform="scale(1 1) rotate(0) translate(4 23)">
<title>set_side_speed</title>
<!-- Node2 -->
<g id="node1" class="node">
<title>Node2</title>
<polygon fill="#bfbfbf" stroke="#000000" points="0,-.5 0,-18.5 86.0537,-18.5 86.0537,-.5 0,-.5"/>
<text text-anchor="middle" x="43.0269" y="-6.5" font-family="Helvetica,sans-Serif" font-size="10.00" fill="#000000">set_side_speed</text>
</g>
<!-- Node3 -->
<g id="node2" class="node">
<title>Node3</title>
<g id="a_node2"><a xlink:href="drive_8c.html#a8224a4626a934d30ed587671b7004bf8" target="_top" xlink:title="Updates the drive motors during teleop. ">
<polygon fill="none" stroke="#000000" points="122.0537,-.5 122.0537,-18.5 231.999,-18.5 231.999,-.5 122.0537,-.5"/>
<text text-anchor="middle" x="177.0264" y="-6.5" font-family="Helvetica,sans-Serif" font-size="10.00" fill="#000000">update_drive_motors</text>
</a>
</g>
</g>
<!-- Node2&#45;&gt;Node3 -->
<g id="edge1" class="edge">
<title>Node2&#45;&gt;Node3</title>
<path fill="none" stroke="#191970" d="M96.2069,-9.5C104.5948,-9.5 113.2849,-9.5 121.7197,-9.5"/>
<polygon fill="#191970" stroke="#191970" points="96.1628,-6.0001 86.1627,-9.5 96.1627,-13.0001 96.1628,-6.0001"/>
</g>
<!-- Node4 -->
<g id="node3" class="node">
<title>Node4</title>
<g id="a_node3"><a xlink:href="opcontrol_8c.html#ac71a94af413917f27d108e95c4d6f6a7" target="_top" xlink:title="operatorControl">
<polygon fill="none" stroke="#000000" points="267.999,-.5 267.999,-18.5 353.4814,-18.5 353.4814,-.5 267.999,-.5"/>
<text text-anchor="middle" x="310.7402" y="-6.5" font-family="Helvetica,sans-Serif" font-size="10.00" fill="#000000">operatorControl</text>
</a>
</g>
</g>
<!-- Node3&#45;&gt;Node4 -->
<g id="edge2" class="edge">
<title>Node3&#45;&gt;Node4</title>
<path fill="none" stroke="#191970" d="M242.3475,-9.5C251.0483,-9.5 259.7837,-9.5 267.964,-9.5"/>
<polygon fill="#191970" stroke="#191970" points="242.1849,-6.0001 232.1849,-9.5 242.1849,-13.0001 242.1849,-6.0001"/>
</g>
</g>
</svg>
