<?xml version="1.0" encoding="UTF-8" standalone="no"?>
<!DOCTYPE svg PUBLIC "-//W3C//DTD SVG 1.1//EN"
 "http://www.w3.org/Graphics/SVG/1.1/DTD/svg11.dtd">
<!-- Generated by graphviz version 2.40.1 (20161225.0304)
 -->
<!-- Title: src/drive.c Pages: 1 -->
<svg width="359pt" height="192pt"
 viewBox="0.00 0.00 358.63 192.00" xmlns="http://www.w3.org/2000/svg" xmlns:xlink="http://www.w3.org/1999/xlink">
<g id="graph0" class="graph" transform="scale(1 1) rotate(0) translate(4 188)">
<title>src/drive.c</title>
<!-- Node0 -->
<g id="node1" class="node">
<title>Node0</title>
<polygon fill="#bfbfbf" stroke="#000000" points="173.0615,-165.5 173.0615,-183.5 234.623,-183.5 234.623,-165.5 173.0615,-165.5"/>
<text text-anchor="middle" x="203.8423" y="-171.5" font-family="Helvetica,sans-Serif" font-size="10.00" fill="#000000">src/drive.c</text>
</g>
<!-- Node1 -->
<g id="node2" class="node">
<title>Node1</title>
<g id="a_node2"><a xlink:href="drive_8h.html" target="_top" xlink:title="Drive base definitions and enumerations. ">
<polygon fill="none" stroke="#000000" points="78.835,-110.5 78.835,-128.5 124.8496,-128.5 124.8496,-110.5 78.835,-110.5"/>
<text text-anchor="middle" x="101.8423" y="-116.5" font-family="Helvetica,sans-Serif" font-size="10.00" fill="#000000">drive.h</text>
</a>
</g>
</g>
<!-- Node0&#45;&gt;Node1 -->
<g id="edge1" class="edge">
<title>Node0&#45;&gt;Node1</title>
<path fill="none" stroke="#191970" d="M186.9991,-165.4179C170.8316,-156.7001 146.1885,-143.4122 127.5647,-133.3699"/>
<polygon fill="#191970" stroke="#191970" points="129.1737,-130.2611 118.7105,-128.5956 125.8513,-136.4225 129.1737,-130.2611"/>
</g>
<!-- Node2 -->
<g id="node3" class="node">
<title>Node2</title>
<g id="a_node3"><a xlink:href="_a_p_i_8h.html" target="_top" xlink:title="Provides the high&#45;level user functionality intended for use by typical VEX Cortex programmers...">
<polygon fill="none" stroke="#000000" points="132.6133,-55.5 132.6133,-73.5 173.0713,-73.5 173.0713,-55.5 132.6133,-55.5"/>
<text text-anchor="middle" x="152.8423" y="-61.5" font-family="Helvetica,sans-Serif" font-size="10.00" fill="#000000">API.h</text>
</a>
</g>
</g>
<!-- Node0&#45;&gt;Node2 -->
<g id="edge13" class="edge">
<title>Node0&#45;&gt;Node2</title>
<path fill="none" stroke="#191970" d="M196.0064,-165.3065C188.8414,-156.4955 178.3912,-142.5675 171.8423,-129 164.7855,-114.3803 159.7889,-96.6112 156.6965,-83.4282"/>
<polygon fill="#191970" stroke="#191970" points="160.103,-82.6219 154.5434,-73.603 153.2652,-84.1204 160.103,-82.6219"/>
</g>
<!-- Node7 -->
<g id="node8" class="node">
<title>Node7</title>
<g id="a_node8"><a xlink:href="ports_8h.html" target="_top" xlink:title="contains port macros for sensors ">
<polygon fill="none" stroke="#000000" points="180.5566,-110.5 180.5566,-128.5 227.1279,-128.5 227.1279,-110.5 180.5566,-110.5"/>
<text text-anchor="middle" x="203.8423" y="-116.5" font-family="Helvetica,sans-Serif" font-size="10.00" fill="#000000">ports.h</text>
</a>
</g>
</g>
<!-- Node0&#45;&gt;Node7 -->
<g id="edge7" class="edge">
<title>Node0&#45;&gt;Node7</title>
<path fill="none" stroke="#191970" d="M203.8423,-165.4179C203.8423,-158.2164 203.8423,-147.8962 203.8423,-138.8632"/>
<polygon fill="#191970" stroke="#191970" points="207.3424,-138.7794 203.8423,-128.7795 200.3424,-138.7795 207.3424,-138.7794"/>
</g>
<!-- Node8 -->
<g id="node9" class="node">
<title>Node8</title>
<g id="a_node9"><a xlink:href="vmath_8h.html" target="_top" xlink:title="Vex Specific Math Functions, includes: Cartesian to polar cordinates. ">
<polygon fill="none" stroke="#000000" points="299.0566,-55.5 299.0566,-73.5 350.6279,-73.5 350.6279,-55.5 299.0566,-55.5"/>
<text text-anchor="middle" x="324.8423" y="-61.5" font-family="Helvetica,sans-Serif" font-size="10.00" fill="#000000">vmath.h</text>
</a>
</g>
</g>
<!-- Node0&#45;&gt;Node8 -->
<g id="edge8" class="edge">
<title>Node0&#45;&gt;Node8</title>
<path fill="none" stroke="#191970" d="M234.8777,-171.1401C261.6629,-166.4742 299.07,-155.3686 318.8423,-129 328.4249,-116.2205 329.2214,-97.7674 328.0313,-83.8699"/>
<polygon fill="#191970" stroke="#191970" points="331.4978,-83.3834 326.7809,-73.8965 324.5521,-84.2543 331.4978,-83.3834"/>
</g>
<!-- Node10 -->
<g id="node11" class="node">
<title>Node10</title>
<g id="a_node11"><a xlink:href="controller_8h.html" target="_top" xlink:title="controller definitions, macros ">
<polygon fill="none" stroke="#000000" points="245.3818,-110.5 245.3818,-128.5 310.3027,-128.5 310.3027,-110.5 245.3818,-110.5"/>
<text text-anchor="middle" x="277.8423" y="-116.5" font-family="Helvetica,sans-Serif" font-size="10.00" fill="#000000">controller.h</text>
</a>
</g>
</g>
<!-- Node0&#45;&gt;Node10 -->
<g id="edge10" class="edge">
<title>Node0&#45;&gt;Node10</title>
<path fill="none" stroke="#191970" d="M216.0619,-165.4179C227.3092,-157.0584 244.2105,-144.4966 257.4938,-134.6239"/>
<polygon fill="#191970" stroke="#191970" points="259.6664,-137.37 265.6045,-128.5956 255.4907,-131.7518 259.6664,-137.37"/>
</g>
<!-- Node1&#45;&gt;Node2 -->
<g id="edge2" class="edge">
<title>Node1&#45;&gt;Node2</title>
<path fill="none" stroke="#191970" d="M110.2639,-110.4179C117.6021,-102.5041 128.4325,-90.8243 137.3336,-81.2251"/>
<polygon fill="#191970" stroke="#191970" points="140.0047,-83.492 144.2377,-73.7795 134.8718,-78.7324 140.0047,-83.492"/>
</g>
<!-- Node3 -->
<g id="node4" class="node">
<title>Node3</title>
<polygon fill="none" stroke="#bfbfbf" points="0,-.5 0,-18.5 47.6846,-18.5 47.6846,-.5 0,-.5"/>
<text text-anchor="middle" x="23.8423" y="-6.5" font-family="Helvetica,sans-Serif" font-size="10.00" fill="#000000">stdlib.h</text>
</g>
<!-- Node2&#45;&gt;Node3 -->
<g id="edge3" class="edge">
<title>Node2&#45;&gt;Node3</title>
<path fill="none" stroke="#191970" d="M132.4019,-55.7851C111.4217,-46.8401 78.5281,-32.8157 54.4437,-22.5471"/>
<polygon fill="#191970" stroke="#191970" points="55.6162,-19.2422 45.0447,-18.5398 52.8708,-25.6814 55.6162,-19.2422"/>
</g>
<!-- Node4 -->
<g id="node5" class="node">
<title>Node4</title>
<polygon fill="none" stroke="#bfbfbf" points="65.5493,-.5 65.5493,-18.5 122.1353,-18.5 122.1353,-.5 65.5493,-.5"/>
<text text-anchor="middle" x="93.8423" y="-6.5" font-family="Helvetica,sans-Serif" font-size="10.00" fill="#000000">stdbool.h</text>
</g>
<!-- Node2&#45;&gt;Node4 -->
<g id="edge4" class="edge">
<title>Node2&#45;&gt;Node4</title>
<path fill="none" stroke="#191970" d="M143.0996,-55.4179C134.4406,-47.3458 121.5783,-35.3556 111.1686,-25.6517"/>
<polygon fill="#191970" stroke="#191970" points="113.4979,-23.0381 103.7966,-18.7795 108.7247,-28.1584 113.4979,-23.0381"/>
</g>
<!-- Node5 -->
<g id="node6" class="node">
<title>Node5</title>
<polygon fill="none" stroke="#bfbfbf" points="139.7759,-.5 139.7759,-18.5 191.9087,-18.5 191.9087,-.5 139.7759,-.5"/>
<text text-anchor="middle" x="165.8423" y="-6.5" font-family="Helvetica,sans-Serif" font-size="10.00" fill="#000000">stdarg.h</text>
</g>
<!-- Node2&#45;&gt;Node5 -->
<g id="edge5" class="edge">
<title>Node2&#45;&gt;Node5</title>
<path fill="none" stroke="#191970" d="M154.989,-55.4179C156.7099,-48.1372 159.1842,-37.669 161.3358,-28.5659"/>
<polygon fill="#191970" stroke="#191970" points="164.7548,-29.3164 163.649,-18.7795 157.9425,-27.7062 164.7548,-29.3164"/>
</g>
<!-- Node6 -->
<g id="node7" class="node">
<title>Node6</title>
<polygon fill="none" stroke="#bfbfbf" points="209.7217,-.5 209.7217,-18.5 257.9629,-18.5 257.9629,-.5 209.7217,-.5"/>
<text text-anchor="middle" x="233.8423" y="-6.5" font-family="Helvetica,sans-Serif" font-size="10.00" fill="#000000">stdint.h</text>
</g>
<!-- Node2&#45;&gt;Node6 -->
<g id="edge6" class="edge">
<title>Node2&#45;&gt;Node6</title>
<path fill="none" stroke="#191970" d="M166.2178,-55.4179C178.6463,-46.9788 197.382,-34.257 211.9832,-24.3426"/>
<polygon fill="#191970" stroke="#191970" points="214.14,-27.1088 220.4469,-18.5956 210.2077,-21.3176 214.14,-27.1088"/>
</g>
<!-- Node9 -->
<g id="node10" class="node">
<title>Node9</title>
<polygon fill="none" stroke="#bfbfbf" points="301.5566,-.5 301.5566,-18.5 348.1279,-18.5 348.1279,-.5 301.5566,-.5"/>
<text text-anchor="middle" x="324.8423" y="-6.5" font-family="Helvetica,sans-Serif" font-size="10.00" fill="#000000">math.h</text>
</g>
<!-- Node8&#45;&gt;Node9 -->
<g id="edge9" class="edge">
<title>Node8&#45;&gt;Node9</title>
<path fill="none" stroke="#191970" d="M324.8423,-55.4179C324.8423,-48.2164 324.8423,-37.8962 324.8423,-28.8632"/>
<polygon fill="#191970" stroke="#191970" points="328.3424,-28.7794 324.8423,-18.7795 321.3424,-28.7795 328.3424,-28.7794"/>
</g>
<!-- Node10&#45;&gt;Node2 -->
<g id="edge12" class="edge">
<title>Node10&#45;&gt;Node2</title>
<path fill="none" stroke="#191970" d="M257.2011,-110.4179C236.8143,-101.4477 205.4305,-87.6388 182.4012,-77.5059"/>
<polygon fill="#191970" stroke="#191970" points="183.6622,-74.237 173.0994,-73.4131 180.843,-80.6442 183.6622,-74.237"/>
</g>
<!-- Node10&#45;&gt;Node8 -->
<g id="edge11" class="edge">
<title>Node10&#45;&gt;Node8</title>
<path fill="none" stroke="#191970" d="M285.6034,-110.4179C292.2984,-102.5833 302.1477,-91.0575 310.3033,-81.5137"/>
<polygon fill="#191970" stroke="#191970" points="313.0768,-83.6556 316.9126,-73.7795 307.7552,-79.108 313.0768,-83.6556"/>
</g>
</g>
</svg>
