<?xml version="1.0" encoding="UTF-8" standalone="no"?>
<!DOCTYPE svg PUBLIC "-//W3C//DTD SVG 1.1//EN"
 "http://www.w3.org/Graphics/SVG/1.1/DTD/svg11.dtd">
<!-- Generated by graphviz version 2.40.1 (20161225.0304)
 -->
<!-- Title: include/drive.h Pages: 1 -->
<svg width="330pt" height="247pt"
 viewBox="0.00 0.00 330.13 247.00" xmlns="http://www.w3.org/2000/svg" xmlns:xlink="http://www.w3.org/1999/xlink">
<g id="graph0" class="graph" transform="scale(1 1) rotate(0) translate(4 243)">
<title>include/drive.h</title>
<!-- Node0 -->
<g id="node1" class="node">
<title>Node0</title>
<polygon fill="#bfbfbf" stroke="#000000" points="126.6011,-220.5 126.6011,-238.5 207.0835,-238.5 207.0835,-220.5 126.6011,-220.5"/>
<text text-anchor="middle" x="166.8423" y="-226.5" font-family="Helvetica,sans-Serif" font-size="10.00" fill="#000000">include/drive.h</text>
</g>
<!-- Node1 -->
<g id="node2" class="node">
<title>Node1</title>
<g id="a_node2"><a xlink:href="_a_p_i_8h.html" target="_top" xlink:title="Provides the high&#45;level user functionality intended for use by typical VEX Cortex programmers...">
<polygon fill="none" stroke="#000000" points="145.6133,-55.5 145.6133,-73.5 186.0713,-73.5 186.0713,-55.5 145.6133,-55.5"/>
<text text-anchor="middle" x="165.8423" y="-61.5" font-family="Helvetica,sans-Serif" font-size="10.00" fill="#000000">API.h</text>
</a>
</g>
</g>
<!-- Node0&#45;&gt;Node1 -->
<g id="edge1" class="edge">
<title>Node0&#45;&gt;Node1</title>
<path fill="none" stroke="#191970" d="M164.4406,-220.1683C162.2202,-211.0263 159.0826,-196.6621 157.8423,-184 154.3758,-148.6102 159.1108,-107.1747 162.6367,-83.5642"/>
<polygon fill="#191970" stroke="#191970" points="166.1216,-83.9345 164.2291,-73.51 159.2078,-82.8393 166.1216,-83.9345"/>
</g>
<!-- Node6 -->
<g id="node7" class="node">
<title>Node6</title>
<g id="a_node7"><a xlink:href="partner_8h.html" target="_top" xlink:title="partner.h">
<polygon fill="none" stroke="#000000" points="167.1035,-165.5 167.1035,-183.5 222.5811,-183.5 222.5811,-165.5 167.1035,-165.5"/>
<text text-anchor="middle" x="194.8423" y="-171.5" font-family="Helvetica,sans-Serif" font-size="10.00" fill="#000000">partner.h</text>
</a>
</g>
</g>
<!-- Node0&#45;&gt;Node6 -->
<g id="edge6" class="edge">
<title>Node0&#45;&gt;Node6</title>
<path fill="none" stroke="#191970" d="M171.4659,-220.4179C175.253,-212.9789 180.7342,-202.2123 185.4373,-192.9742"/>
<polygon fill="#191970" stroke="#191970" points="188.7004,-194.279 190.1182,-183.7795 182.4622,-191.1032 188.7004,-194.279"/>
</g>
<!-- Node2 -->
<g id="node3" class="node">
<title>Node2</title>
<polygon fill="none" stroke="#bfbfbf" points="0,-.5 0,-18.5 47.6846,-18.5 47.6846,-.5 0,-.5"/>
<text text-anchor="middle" x="23.8423" y="-6.5" font-family="Helvetica,sans-Serif" font-size="10.00" fill="#000000">stdlib.h</text>
</g>
<!-- Node1&#45;&gt;Node2 -->
<g id="edge2" class="edge">
<title>Node1&#45;&gt;Node2</title>
<path fill="none" stroke="#191970" d="M145.4971,-56.6198C122.4117,-47.6783 84.4179,-32.9624 57.027,-22.3532"/>
<polygon fill="#191970" stroke="#191970" points="58.0517,-18.9968 47.4626,-18.6487 55.5234,-25.5243 58.0517,-18.9968"/>
</g>
<!-- Node3 -->
<g id="node4" class="node">
<title>Node3</title>
<polygon fill="none" stroke="#bfbfbf" points="65.5493,-.5 65.5493,-18.5 122.1353,-18.5 122.1353,-.5 65.5493,-.5"/>
<text text-anchor="middle" x="93.8423" y="-6.5" font-family="Helvetica,sans-Serif" font-size="10.00" fill="#000000">stdbool.h</text>
</g>
<!-- Node1&#45;&gt;Node3 -->
<g id="edge3" class="edge">
<title>Node1&#45;&gt;Node3</title>
<path fill="none" stroke="#191970" d="M153.9529,-55.4179C143.1787,-47.1876 127.0721,-34.8839 114.2426,-25.0836"/>
<polygon fill="#191970" stroke="#191970" points="116.0613,-22.0685 105.9899,-18.7795 111.812,-27.6313 116.0613,-22.0685"/>
</g>
<!-- Node4 -->
<g id="node5" class="node">
<title>Node4</title>
<polygon fill="none" stroke="#bfbfbf" points="139.7759,-.5 139.7759,-18.5 191.9087,-18.5 191.9087,-.5 139.7759,-.5"/>
<text text-anchor="middle" x="165.8423" y="-6.5" font-family="Helvetica,sans-Serif" font-size="10.00" fill="#000000">stdarg.h</text>
</g>
<!-- Node1&#45;&gt;Node4 -->
<g id="edge4" class="edge">
<title>Node1&#45;&gt;Node4</title>
<path fill="none" stroke="#191970" d="M165.8423,-55.4179C165.8423,-48.2164 165.8423,-37.8962 165.8423,-28.8632"/>
<polygon fill="#191970" stroke="#191970" points="169.3424,-28.7794 165.8423,-18.7795 162.3424,-28.7795 169.3424,-28.7794"/>
</g>
<!-- Node5 -->
<g id="node6" class="node">
<title>Node5</title>
<polygon fill="none" stroke="#bfbfbf" points="209.7217,-.5 209.7217,-18.5 257.9629,-18.5 257.9629,-.5 209.7217,-.5"/>
<text text-anchor="middle" x="233.8423" y="-6.5" font-family="Helvetica,sans-Serif" font-size="10.00" fill="#000000">stdint.h</text>
</g>
<!-- Node1&#45;&gt;Node5 -->
<g id="edge5" class="edge">
<title>Node1&#45;&gt;Node5</title>
<path fill="none" stroke="#191970" d="M177.0711,-55.4179C187.2467,-47.1876 202.4586,-34.8839 214.5753,-25.0836"/>
<polygon fill="#191970" stroke="#191970" points="216.7954,-27.7895 222.3695,-18.7795 212.3933,-22.3469 216.7954,-27.7895"/>
</g>
<!-- Node6&#45;&gt;Node1 -->
<g id="edge11" class="edge">
<title>Node6&#45;&gt;Node1</title>
<path fill="none" stroke="#191970" d="M192.4691,-165.4982C187.7533,-147.6108 177.1152,-107.2594 170.8058,-83.3271"/>
<polygon fill="#191970" stroke="#191970" points="174.182,-82.4035 168.2483,-73.6261 167.4132,-84.188 174.182,-82.4035"/>
</g>
<!-- Node7 -->
<g id="node8" class="node">
<title>Node7</title>
<g id="a_node8"><a xlink:href="controller_8h.html" target="_top" xlink:title="controller definitions, macros ">
<polygon fill="none" stroke="#000000" points="204.3818,-110.5 204.3818,-128.5 269.3027,-128.5 269.3027,-110.5 204.3818,-110.5"/>
<text text-anchor="middle" x="236.8423" y="-116.5" font-family="Helvetica,sans-Serif" font-size="10.00" fill="#000000">controller.h</text>
</a>
</g>
</g>
<!-- Node6&#45;&gt;Node7 -->
<g id="edge7" class="edge">
<title>Node6&#45;&gt;Node7</title>
<path fill="none" stroke="#191970" d="M201.7777,-165.4179C207.7001,-157.6624 216.3845,-146.29 223.6287,-136.8035"/>
<polygon fill="#191970" stroke="#191970" points="226.4687,-138.8514 229.7562,-128.7795 220.9053,-134.6029 226.4687,-138.8514"/>
</g>
<!-- Node7&#45;&gt;Node1 -->
<g id="edge10" class="edge">
<title>Node7&#45;&gt;Node1</title>
<path fill="none" stroke="#191970" d="M225.1181,-110.4179C214.4935,-102.1876 198.6106,-89.8839 185.9592,-80.0836"/>
<polygon fill="#191970" stroke="#191970" points="187.8701,-77.1365 177.8212,-73.7795 183.5833,-82.6704 187.8701,-77.1365"/>
</g>
<!-- Node8 -->
<g id="node9" class="node">
<title>Node8</title>
<g id="a_node9"><a xlink:href="vmath_8h.html" target="_top" xlink:title="Vex Specific Math Functions, includes: Cartesian to polar cordinates. ">
<polygon fill="none" stroke="#000000" points="221.0566,-55.5 221.0566,-73.5 272.6279,-73.5 272.6279,-55.5 221.0566,-55.5"/>
<text text-anchor="middle" x="246.8423" y="-61.5" font-family="Helvetica,sans-Serif" font-size="10.00" fill="#000000">vmath.h</text>
</a>
</g>
</g>
<!-- Node7&#45;&gt;Node8 -->
<g id="edge8" class="edge">
<title>Node7&#45;&gt;Node8</title>
<path fill="none" stroke="#191970" d="M238.4936,-110.4179C239.8029,-103.2164 241.6793,-92.8962 243.3217,-83.8632"/>
<polygon fill="#191970" stroke="#191970" points="246.8097,-84.2443 245.1551,-73.7795 239.9226,-82.992 246.8097,-84.2443"/>
</g>
<!-- Node9 -->
<g id="node10" class="node">
<title>Node9</title>
<polygon fill="none" stroke="#bfbfbf" points="275.5566,-.5 275.5566,-18.5 322.1279,-18.5 322.1279,-.5 275.5566,-.5"/>
<text text-anchor="middle" x="298.8423" y="-6.5" font-family="Helvetica,sans-Serif" font-size="10.00" fill="#000000">math.h</text>
</g>
<!-- Node8&#45;&gt;Node9 -->
<g id="edge9" class="edge">
<title>Node8&#45;&gt;Node9</title>
<path fill="none" stroke="#191970" d="M255.429,-55.4179C262.9111,-47.5041 273.9538,-35.8243 283.0295,-26.2251"/>
<polygon fill="#191970" stroke="#191970" points="285.7421,-28.4505 290.069,-18.7795 280.6556,-23.6414 285.7421,-28.4505"/>
</g>
</g>
</svg>
