<?xml version="1.0" encoding="UTF-8" standalone="no"?>
<!DOCTYPE svg PUBLIC "-//W3C//DTD SVG 1.1//EN"
 "http://www.w3.org/Graphics/SVG/1.1/DTD/svg11.dtd">
<!-- Generated by graphviz version 2.40.1 (20161225.0304)
 -->
<!-- Title: updateDriveMotors Pages: 1 -->
<svg width="243pt" height="64pt"
 viewBox="0.00 0.00 242.76 64.00" xmlns="http://www.w3.org/2000/svg" xmlns:xlink="http://www.w3.org/1999/xlink">
<g id="graph0" class="graph" transform="scale(1 1) rotate(0) translate(4 60)">
<title>updateDriveMotors</title>
<polygon fill="#ffffff" stroke="transparent" points="-4,4 -4,-60 238.7578,-60 238.7578,4 -4,4"/>
<!-- Node3 -->
<g id="node1" class="node">
<title>Node3</title>
<polygon fill="#bfbfbf" stroke="#000000" points="0,-18.5 0,-36.5 100.4824,-36.5 100.4824,-18.5 0,-18.5"/>
<text text-anchor="middle" x="50.2412" y="-24.5" font-family="Helvetica,sans-Serif" font-size="10.00" fill="#000000">updateDriveMotors</text>
</g>
<!-- Node4 -->
<g id="node2" class="node">
<title>Node4</title>
<g id="a_node2"><a xlink:href="_a_p_i_8h.html#ad56fcec15d1a48deb8780bb0fc38be4d" target="_top" xlink:title="joystickGetAnalog">
<polygon fill="#ffffff" stroke="#000000" points="137.6006,-37.5 137.6006,-55.5 233.6396,-55.5 233.6396,-37.5 137.6006,-37.5"/>
<text text-anchor="middle" x="185.6201" y="-43.5" font-family="Helvetica,sans-Serif" font-size="10.00" fill="#000000">joystickGetAnalog</text>
</a>
</g>
</g>
<!-- Node3&#45;&gt;Node4 -->
<g id="edge1" class="edge">
<title>Node3&#45;&gt;Node4</title>
<path fill="none" stroke="#191970" d="M100.6513,-34.5749C109.3905,-35.8014 118.5416,-37.0857 127.4669,-38.3384"/>
<polygon fill="#191970" stroke="#191970" points="127.0246,-41.8105 137.414,-39.7344 127.9975,-34.8785 127.0246,-41.8105"/>
</g>
<!-- Node5 -->
<g id="node3" class="node">
<title>Node5</title>
<g id="a_node3"><a xlink:href="vmath_8h.html#a1c4a1747b714f5d4654f0614193f9e49" target="_top" xlink:title="Function to convert x and y 2 dimensional cartesian cordinated to polar pordinates. ">
<polygon fill="#ffffff" stroke="#000000" points="136.4824,-.5 136.4824,-18.5 234.7578,-18.5 234.7578,-.5 136.4824,-.5"/>
<text text-anchor="middle" x="185.6201" y="-6.5" font-family="Helvetica,sans-Serif" font-size="10.00" fill="#000000">cartesian_to_polar</text>
</a>
</g>
</g>
<!-- Node3&#45;&gt;Node5 -->
<g id="edge2" class="edge">
<title>Node3&#45;&gt;Node5</title>
<path fill="none" stroke="#191970" d="M100.6513,-20.7975C108.8819,-19.7031 117.4778,-18.5602 125.9064,-17.4395"/>
<polygon fill="#191970" stroke="#191970" points="126.6172,-20.8759 136.0687,-16.0884 125.6946,-13.937 126.6172,-20.8759"/>
</g>
</g>
</svg>
