<?xml version="1.0" encoding="UTF-8" standalone="no"?>
<!DOCTYPE svg PUBLIC "-//W3C//DTD SVG 1.1//EN"
 "http://www.w3.org/Graphics/SVG/1.1/DTD/svg11.dtd">
<!-- Generated by graphviz version 2.40.1 (20161225.0304)
 -->
<!-- Title: joystickExp Pages: 1 -->
<svg width="341pt" height="27pt"
 viewBox="0.00 0.00 341.44 27.00" xmlns="http://www.w3.org/2000/svg" xmlns:xlink="http://www.w3.org/1999/xlink">
<g id="graph0" class="graph" transform="scale(1 1) rotate(0) translate(4 23)">
<title>joystickExp</title>
<!-- Node1 -->
<g id="node1" class="node">
<title>Node1</title>
<polygon fill="#bfbfbf" stroke="#000000" points="0,-.5 0,-18.5 66.0146,-18.5 66.0146,-.5 0,-.5"/>
<text text-anchor="middle" x="33.0073" y="-6.5" font-family="Helvetica,sans-Serif" font-size="10.00" fill="#000000">joystickExp</text>
</g>
<!-- Node2 -->
<g id="node2" class="node">
<title>Node2</title>
<g id="a_node2"><a xlink:href="drive_8c.html#a8224a4626a934d30ed587671b7004bf8" target="_top" xlink:title="Updates the drive motors during teleop. ">
<polygon fill="none" stroke="#000000" points="102.0146,-.5 102.0146,-18.5 211.96,-18.5 211.96,-.5 102.0146,-.5"/>
<text text-anchor="middle" x="156.9873" y="-6.5" font-family="Helvetica,sans-Serif" font-size="10.00" fill="#000000">update_drive_motors</text>
</a>
</g>
</g>
<!-- Node1&#45;&gt;Node2 -->
<g id="edge1" class="edge">
<title>Node1&#45;&gt;Node2</title>
<path fill="none" stroke="#191970" d="M76.2962,-9.5C84.4832,-9.5 93.1503,-9.5 101.6488,-9.5"/>
<polygon fill="#191970" stroke="#191970" points="76.2317,-6.0001 66.2317,-9.5 76.2316,-13.0001 76.2317,-6.0001"/>
</g>
<!-- Node3 -->
<g id="node3" class="node">
<title>Node3</title>
<g id="a_node3"><a xlink:href="opcontrol_8c.html#ac71a94af413917f27d108e95c4d6f6a7" target="_top" xlink:title="operatorControl">
<polygon fill="none" stroke="#000000" points="247.96,-.5 247.96,-18.5 333.4424,-18.5 333.4424,-.5 247.96,-.5"/>
<text text-anchor="middle" x="290.7012" y="-6.5" font-family="Helvetica,sans-Serif" font-size="10.00" fill="#000000">operatorControl</text>
</a>
</g>
</g>
<!-- Node2&#45;&gt;Node3 -->
<g id="edge2" class="edge">
<title>Node2&#45;&gt;Node3</title>
<path fill="none" stroke="#191970" d="M222.3085,-9.5C231.0092,-9.5 239.7447,-9.5 247.925,-9.5"/>
<polygon fill="#191970" stroke="#191970" points="222.1459,-6.0001 212.1458,-9.5 222.1458,-13.0001 222.1459,-6.0001"/>
</g>
</g>
</svg>
