<?xml version="1.0" encoding="UTF-8" standalone="no"?>
<!DOCTYPE svg PUBLIC "-//W3C//DTD SVG 1.1//EN"
 "http://www.w3.org/Graphics/SVG/1.1/DTD/svg11.dtd">
<!-- Generated by graphviz version 2.40.1 (20161225.0304)
 -->
<!-- Title: src/drive.c Pages: 1 -->
<svg width="415pt" height="247pt"
 viewBox="0.00 0.00 415.09 247.00" xmlns="http://www.w3.org/2000/svg" xmlns:xlink="http://www.w3.org/1999/xlink">
<g id="graph0" class="graph" transform="scale(1 1) rotate(0) translate(4 243)">
<title>src/drive.c</title>
<!-- Node0 -->
<g id="node1" class="node">
<title>Node0</title>
<polygon fill="#bfbfbf" stroke="#000000" points="148.4612,-220.5 148.4612,-238.5 210.0227,-238.5 210.0227,-220.5 148.4612,-220.5"/>
<text text-anchor="middle" x="179.2419" y="-226.5" font-family="Helvetica,sans-Serif" font-size="10.00" fill="#000000">src/drive.c</text>
</g>
<!-- Node1 -->
<g id="node2" class="node">
<title>Node1</title>
<g id="a_node2"><a xlink:href="drive_8h.html" target="_top" xlink:title="Drive base definitions and enumerations. ">
<polygon fill="none" stroke="#000000" points="12.2346,-110.5 12.2346,-128.5 58.2492,-128.5 58.2492,-110.5 12.2346,-110.5"/>
<text text-anchor="middle" x="35.2419" y="-116.5" font-family="Helvetica,sans-Serif" font-size="10.00" fill="#000000">drive.h</text>
</a>
</g>
</g>
<!-- Node0&#45;&gt;Node1 -->
<g id="edge1" class="edge">
<title>Node0&#45;&gt;Node1</title>
<path fill="none" stroke="#191970" d="M150.7878,-220.4678C130.2322,-212.9706 102.6158,-200.8098 82.2419,-184 66.4379,-170.9607 53.2096,-151.464 44.8547,-137.3207"/>
<polygon fill="#191970" stroke="#191970" points="47.85,-135.5072 39.8772,-128.5297 41.7586,-138.9561 47.85,-135.5072"/>
</g>
<!-- Node2 -->
<g id="node3" class="node">
<title>Node2</title>
<g id="a_node3"><a xlink:href="_a_p_i_8h.html" target="_top" xlink:title="Provides the high&#45;level user functionality intended for use by typical VEX Cortex programmers...">
<polygon fill="none" stroke="#000000" points="122.0129,-55.5 122.0129,-73.5 162.4709,-73.5 162.4709,-55.5 122.0129,-55.5"/>
<text text-anchor="middle" x="142.2419" y="-61.5" font-family="Helvetica,sans-Serif" font-size="10.00" fill="#000000">API.h</text>
</a>
</g>
</g>
<!-- Node0&#45;&gt;Node2 -->
<g id="edge20" class="edge">
<title>Node0&#45;&gt;Node2</title>
<path fill="none" stroke="#191970" d="M148.0998,-223.5139C104.527,-213.1539 27.9319,-187.1335 3.2419,-129 -16.0062,-83.6796 65.2331,-70.1765 111.72,-66.1732"/>
<polygon fill="#191970" stroke="#191970" points="112.1809,-69.6483 121.8867,-65.4 111.6501,-62.6685 112.1809,-69.6483"/>
</g>
<!-- Node7 -->
<g id="node8" class="node">
<title>Node7</title>
<g id="a_node8"><a xlink:href="motor__ports_8h.html" target="_top" xlink:title="motor_ports.h">
<polygon fill="none" stroke="#000000" points="329.3947,-165.5 329.3947,-183.5 407.0891,-183.5 407.0891,-165.5 329.3947,-165.5"/>
<text text-anchor="middle" x="368.2419" y="-171.5" font-family="Helvetica,sans-Serif" font-size="10.00" fill="#000000">motor_ports.h</text>
</a>
</g>
</g>
<!-- Node0&#45;&gt;Node7 -->
<g id="edge7" class="edge">
<title>Node0&#45;&gt;Node7</title>
<path fill="none" stroke="#191970" d="M210.0287,-220.5409C241.9216,-211.2599 291.9372,-196.7051 327.1806,-186.4491"/>
<polygon fill="#191970" stroke="#191970" points="328.5303,-189.7016 337.154,-183.5467 326.5743,-182.9804 328.5303,-189.7016"/>
</g>
<!-- Node8 -->
<g id="node9" class="node">
<title>Node8</title>
<g id="a_node9"><a xlink:href="vmath_8h.html" target="_top" xlink:title="Vex Specific Math Functions, includes: Cartesian to polar cordinates. ">
<polygon fill="none" stroke="#000000" points="208.4563,-110.5 208.4563,-128.5 260.0276,-128.5 260.0276,-110.5 208.4563,-110.5"/>
<text text-anchor="middle" x="234.2419" y="-116.5" font-family="Helvetica,sans-Serif" font-size="10.00" fill="#000000">vmath.h</text>
</a>
</g>
</g>
<!-- Node0&#45;&gt;Node8 -->
<g id="edge8" class="edge">
<title>Node0&#45;&gt;Node8</title>
<path fill="none" stroke="#191970" d="M190.3942,-220.1951C199.7986,-211.7273 212.8706,-198.3837 220.2419,-184 227.4367,-169.9609 230.9419,-152.3678 232.6452,-139.1034"/>
<polygon fill="#191970" stroke="#191970" points="236.1678,-139.0689 233.7256,-128.7594 229.2056,-138.3416 236.1678,-139.0689"/>
</g>
<!-- Node10 -->
<g id="node11" class="node">
<title>Node10</title>
<g id="a_node11"><a xlink:href="controller_8h.html" target="_top" xlink:title="controller definitions, macros ">
<polygon fill="none" stroke="#000000" points="146.7815,-165.5 146.7815,-183.5 211.7024,-183.5 211.7024,-165.5 146.7815,-165.5"/>
<text text-anchor="middle" x="179.2419" y="-171.5" font-family="Helvetica,sans-Serif" font-size="10.00" fill="#000000">controller.h</text>
</a>
</g>
</g>
<!-- Node0&#45;&gt;Node10 -->
<g id="edge10" class="edge">
<title>Node0&#45;&gt;Node10</title>
<path fill="none" stroke="#191970" d="M179.2419,-220.4179C179.2419,-213.2164 179.2419,-202.8962 179.2419,-193.8632"/>
<polygon fill="#191970" stroke="#191970" points="182.742,-193.7794 179.2419,-183.7795 175.742,-193.7795 182.742,-193.7794"/>
</g>
<!-- Node11 -->
<g id="node12" class="node">
<title>Node11</title>
<g id="a_node12"><a xlink:href="slew_8h.html" target="_top" xlink:title="Contains the slew rate controller wrapper for the motors. ">
<polygon fill="none" stroke="#000000" points="267.343,-165.5 267.343,-183.5 311.1408,-183.5 311.1408,-165.5 267.343,-165.5"/>
<text text-anchor="middle" x="289.2419" y="-171.5" font-family="Helvetica,sans-Serif" font-size="10.00" fill="#000000">slew.h</text>
</a>
</g>
</g>
<!-- Node0&#45;&gt;Node11 -->
<g id="edge13" class="edge">
<title>Node0&#45;&gt;Node11</title>
<path fill="none" stroke="#191970" d="M197.4062,-220.4179C215.0009,-211.6205 241.9037,-198.1691 262.0507,-188.0956"/>
<polygon fill="#191970" stroke="#191970" points="263.6716,-191.1983 271.0507,-183.5956 260.5411,-184.9373 263.6716,-191.1983"/>
</g>
<!-- Node14 -->
<g id="node15" class="node">
<title>Node14</title>
<g id="a_node15"><a xlink:href="log_8h.html" target="_top" xlink:title="Contains logging functions. ">
<polygon fill="none" stroke="#000000" points="91.3996,-165.5 91.3996,-183.5 129.0842,-183.5 129.0842,-165.5 91.3996,-165.5"/>
<text text-anchor="middle" x="110.2419" y="-171.5" font-family="Helvetica,sans-Serif" font-size="10.00" fill="#000000">log.h</text>
</a>
</g>
</g>
<!-- Node0&#45;&gt;Node14 -->
<g id="edge21" class="edge">
<title>Node0&#45;&gt;Node14</title>
<path fill="none" stroke="#191970" d="M167.848,-220.4179C157.5227,-212.1876 142.0872,-199.8839 129.7922,-190.0836"/>
<polygon fill="#191970" stroke="#191970" points="131.8848,-187.2757 121.8834,-183.7795 127.5216,-192.7495 131.8848,-187.2757"/>
</g>
<!-- Node1&#45;&gt;Node2 -->
<g id="edge2" class="edge">
<title>Node1&#45;&gt;Node2</title>
<path fill="none" stroke="#191970" d="M52.9108,-110.4179C69.9482,-101.6603 95.9581,-88.2907 115.5259,-78.2326"/>
<polygon fill="#191970" stroke="#191970" points="117.253,-81.2801 124.5468,-73.5956 114.0529,-75.0544 117.253,-81.2801"/>
</g>
<!-- Node3 -->
<g id="node4" class="node">
<title>Node3</title>
<polygon fill="none" stroke="#bfbfbf" points="12.3996,-.5 12.3996,-18.5 60.0842,-18.5 60.0842,-.5 12.3996,-.5"/>
<text text-anchor="middle" x="36.2419" y="-6.5" font-family="Helvetica,sans-Serif" font-size="10.00" fill="#000000">stdlib.h</text>
</g>
<!-- Node2&#45;&gt;Node3 -->
<g id="edge3" class="edge">
<title>Node2&#45;&gt;Node3</title>
<path fill="none" stroke="#191970" d="M124.7382,-55.4179C107.86,-46.6603 82.0932,-33.2907 62.7083,-23.2326"/>
<polygon fill="#191970" stroke="#191970" points="64.2599,-20.0946 53.7717,-18.5956 61.036,-26.308 64.2599,-20.0946"/>
</g>
<!-- Node4 -->
<g id="node5" class="node">
<title>Node4</title>
<polygon fill="none" stroke="#bfbfbf" points="77.9489,-.5 77.9489,-18.5 134.5349,-18.5 134.5349,-.5 77.9489,-.5"/>
<text text-anchor="middle" x="106.2419" y="-6.5" font-family="Helvetica,sans-Serif" font-size="10.00" fill="#000000">stdbool.h</text>
</g>
<!-- Node2&#45;&gt;Node4 -->
<g id="edge4" class="edge">
<title>Node2&#45;&gt;Node4</title>
<path fill="none" stroke="#191970" d="M136.2972,-55.4179C131.3245,-47.8207 124.08,-36.7527 117.9495,-27.3866"/>
<polygon fill="#191970" stroke="#191970" points="120.7208,-25.2297 112.3157,-18.7795 114.8639,-29.0633 120.7208,-25.2297"/>
</g>
<!-- Node5 -->
<g id="node6" class="node">
<title>Node5</title>
<polygon fill="none" stroke="#bfbfbf" points="152.1755,-.5 152.1755,-18.5 204.3083,-18.5 204.3083,-.5 152.1755,-.5"/>
<text text-anchor="middle" x="178.2419" y="-6.5" font-family="Helvetica,sans-Serif" font-size="10.00" fill="#000000">stdarg.h</text>
</g>
<!-- Node2&#45;&gt;Node5 -->
<g id="edge5" class="edge">
<title>Node2&#45;&gt;Node5</title>
<path fill="none" stroke="#191970" d="M148.1866,-55.4179C153.1593,-47.8207 160.4038,-36.7527 166.5343,-27.3866"/>
<polygon fill="#191970" stroke="#191970" points="169.6199,-29.0633 172.1681,-18.7795 163.763,-25.2297 169.6199,-29.0633"/>
</g>
<!-- Node6 -->
<g id="node7" class="node">
<title>Node6</title>
<polygon fill="none" stroke="#bfbfbf" points="222.1213,-.5 222.1213,-18.5 270.3625,-18.5 270.3625,-.5 222.1213,-.5"/>
<text text-anchor="middle" x="246.2419" y="-6.5" font-family="Helvetica,sans-Serif" font-size="10.00" fill="#000000">stdint.h</text>
</g>
<!-- Node2&#45;&gt;Node6 -->
<g id="edge6" class="edge">
<title>Node2&#45;&gt;Node6</title>
<path fill="none" stroke="#191970" d="M159.4154,-55.4179C175.8999,-46.7001 201.0261,-33.4122 220.0152,-23.3699"/>
<polygon fill="#191970" stroke="#191970" points="221.8392,-26.3646 229.0429,-18.5956 218.5667,-20.1767 221.8392,-26.3646"/>
</g>
<!-- Node9 -->
<g id="node10" class="node">
<title>Node9</title>
<polygon fill="none" stroke="#bfbfbf" points="279.9563,-55.5 279.9563,-73.5 326.5276,-73.5 326.5276,-55.5 279.9563,-55.5"/>
<text text-anchor="middle" x="303.2419" y="-61.5" font-family="Helvetica,sans-Serif" font-size="10.00" fill="#000000">math.h</text>
</g>
<!-- Node8&#45;&gt;Node9 -->
<g id="edge9" class="edge">
<title>Node8&#45;&gt;Node9</title>
<path fill="none" stroke="#191970" d="M245.6359,-110.4179C255.9611,-102.1876 271.3967,-89.8839 283.6916,-80.0836"/>
<polygon fill="#191970" stroke="#191970" points="285.9623,-82.7495 291.6004,-73.7795 281.5991,-77.2757 285.9623,-82.7495"/>
</g>
<!-- Node10&#45;&gt;Node2 -->
<g id="edge12" class="edge">
<title>Node10&#45;&gt;Node2</title>
<path fill="none" stroke="#191970" d="M176.214,-165.4982C170.1973,-147.6108 156.6246,-107.2594 148.5746,-83.3271"/>
<polygon fill="#191970" stroke="#191970" points="151.8172,-81.9885 145.3116,-73.6261 145.1824,-84.2202 151.8172,-81.9885"/>
</g>
<!-- Node10&#45;&gt;Node8 -->
<g id="edge11" class="edge">
<title>Node10&#45;&gt;Node8</title>
<path fill="none" stroke="#191970" d="M188.324,-165.4179C196.3169,-157.425 208.1516,-145.5903 217.8042,-135.9377"/>
<polygon fill="#191970" stroke="#191970" points="220.3662,-138.3254 224.9625,-128.7795 215.4165,-133.3757 220.3662,-138.3254"/>
</g>
<!-- Node11&#45;&gt;Node2 -->
<g id="edge14" class="edge">
<title>Node11&#45;&gt;Node2</title>
<path fill="none" stroke="#191970" d="M288.8939,-165.3106C287.8822,-151.51 283.9993,-125.4113 269.2419,-110 243.7068,-83.3333 201.4628,-72.2553 172.7707,-67.6792"/>
<polygon fill="#191970" stroke="#191970" points="173.2624,-64.214 162.8691,-66.2707 172.2765,-71.1443 173.2624,-64.214"/>
</g>
<!-- Node11&#45;&gt;Node9 -->
<g id="edge15" class="edge">
<title>Node11&#45;&gt;Node9</title>
<path fill="none" stroke="#191970" d="M311.3309,-168.0113C329.407,-161.4018 353.7911,-149.2016 365.2419,-129 376.6352,-108.9001 353.8555,-90.3817 332.7689,-78.3931"/>
<polygon fill="#191970" stroke="#191970" points="334.4085,-75.3009 323.94,-73.6694 331.1062,-81.473 334.4085,-75.3009"/>
</g>
<!-- Node12 -->
<g id="node13" class="node">
<title>Node12</title>
<g id="a_node13"><a xlink:href="vlib_8h.html" target="_top" xlink:title="Contains misc helpful functions. ">
<polygon fill="none" stroke="#000000" points="316.5695,-110.5 316.5695,-128.5 355.9143,-128.5 355.9143,-110.5 316.5695,-110.5"/>
<text text-anchor="middle" x="336.2419" y="-116.5" font-family="Helvetica,sans-Serif" font-size="10.00" fill="#000000">vlib.h</text>
</a>
</g>
</g>
<!-- Node11&#45;&gt;Node12 -->
<g id="edge16" class="edge">
<title>Node11&#45;&gt;Node12</title>
<path fill="none" stroke="#191970" d="M297.003,-165.4179C303.698,-157.5833 313.5473,-146.0575 321.7029,-136.5137"/>
<polygon fill="#191970" stroke="#191970" points="324.4765,-138.6556 328.3122,-128.7795 319.1548,-134.108 324.4765,-138.6556"/>
</g>
<!-- Node12&#45;&gt;Node2 -->
<g id="edge18" class="edge">
<title>Node12&#45;&gt;Node2</title>
<path fill="none" stroke="#191970" d="M316.2112,-113.8212C282.1022,-104.1511 212.5551,-84.4341 172.495,-73.0769"/>
<polygon fill="#191970" stroke="#191970" points="173.3222,-69.6735 162.7467,-70.3132 171.4128,-76.4081 173.3222,-69.6735"/>
</g>
<!-- Node12&#45;&gt;Node9 -->
<g id="edge17" class="edge">
<title>Node12&#45;&gt;Node9</title>
<path fill="none" stroke="#191970" d="M330.7926,-110.4179C326.2343,-102.8207 319.5935,-91.7527 313.9739,-82.3866"/>
<polygon fill="#191970" stroke="#191970" points="316.9558,-80.5536 308.8096,-73.7795 310.9534,-84.1552 316.9558,-80.5536"/>
</g>
<!-- Node13 -->
<g id="node14" class="node">
<title>Node13</title>
<polygon fill="none" stroke="#bfbfbf" points="344.8454,-55.5 344.8454,-73.5 393.6384,-73.5 393.6384,-55.5 344.8454,-55.5"/>
<text text-anchor="middle" x="369.2419" y="-61.5" font-family="Helvetica,sans-Serif" font-size="10.00" fill="#000000">string.h</text>
</g>
<!-- Node12&#45;&gt;Node13 -->
<g id="edge19" class="edge">
<title>Node12&#45;&gt;Node13</title>
<path fill="none" stroke="#191970" d="M341.6912,-110.4179C346.2495,-102.8207 352.8903,-91.7527 358.5099,-82.3866"/>
<polygon fill="#191970" stroke="#191970" points="361.5305,-84.1552 363.6742,-73.7795 355.528,-80.5536 361.5305,-84.1552"/>
</g>
<!-- Node14&#45;&gt;Node2 -->
<g id="edge22" class="edge">
<title>Node14&#45;&gt;Node2</title>
<path fill="none" stroke="#191970" d="M112.8606,-165.4982C118.0642,-147.6108 129.8028,-107.2594 136.765,-83.3271"/>
<polygon fill="#191970" stroke="#191970" points="140.1544,-84.2058 139.587,-73.6261 133.433,-82.2504 140.1544,-84.2058"/>
</g>
<!-- Node15 -->
<g id="node16" class="node">
<title>Node15</title>
<g id="a_node16"><a xlink:href="lcd_8h.html" target="_top" xlink:title="LCD wrapper functions and macros. ">
<polygon fill="none" stroke="#000000" points="76.6804,-110.5 76.6804,-128.5 113.8034,-128.5 113.8034,-110.5 76.6804,-110.5"/>
<text text-anchor="middle" x="95.2419" y="-116.5" font-family="Helvetica,sans-Serif" font-size="10.00" fill="#000000">lcd.h</text>
</a>
</g>
</g>
<!-- Node14&#45;&gt;Node15 -->
<g id="edge23" class="edge">
<title>Node14&#45;&gt;Node15</title>
<path fill="none" stroke="#191970" d="M107.765,-165.4179C105.7793,-158.1372 102.9244,-147.669 100.4417,-138.5659"/>
<polygon fill="#191970" stroke="#191970" points="103.7806,-137.5062 97.7727,-128.7795 97.0272,-139.348 103.7806,-137.5062"/>
</g>
<!-- Node15&#45;&gt;Node2 -->
<g id="edge24" class="edge">
<title>Node15&#45;&gt;Node2</title>
<path fill="none" stroke="#191970" d="M103.003,-110.4179C109.698,-102.5833 119.5473,-91.0575 127.7029,-81.5137"/>
<polygon fill="#191970" stroke="#191970" points="130.4765,-83.6556 134.3122,-73.7795 125.1548,-79.108 130.4765,-83.6556"/>
</g>
</g>
</svg>
