<?xml version="1.0" encoding="UTF-8" standalone="no"?>
<!DOCTYPE svg PUBLIC "-//W3C//DTD SVG 1.1//EN"
 "http://www.w3.org/Graphics/SVG/1.1/DTD/svg11.dtd">
<!-- Generated by graphviz version 2.40.1 (20161225.0304)
 -->
<!-- Title: src/encoders.c Pages: 1 -->
<svg width="111pt" height="137pt"
 viewBox="0.00 0.00 111.25 137.00" xmlns="http://www.w3.org/2000/svg" xmlns:xlink="http://www.w3.org/1999/xlink">
<g id="graph0" class="graph" transform="scale(1 1) rotate(0) translate(4 133)">
<title>src/encoders.c</title>
<!-- Node0 -->
<g id="node1" class="node">
<title>Node0</title>
<polygon fill="#bfbfbf" stroke="#000000" points="22.2266,-110.5 22.2266,-128.5 103.251,-128.5 103.251,-110.5 22.2266,-110.5"/>
<text text-anchor="middle" x="62.7388" y="-116.5" font-family="Helvetica,sans-Serif" font-size="10.00" fill="#000000">src/encoders.c</text>
</g>
<!-- Node1 -->
<g id="node2" class="node">
<title>Node1</title>
<g id="a_node2"><a xlink:href="encoders_8h.html" target="_top" xlink:title="wrapper around encoder functions ">
<polygon fill="none" stroke="#000000" points="0,-55.5 0,-73.5 65.4775,-73.5 65.4775,-55.5 0,-55.5"/>
<text text-anchor="middle" x="32.7388" y="-61.5" font-family="Helvetica,sans-Serif" font-size="10.00" fill="#000000">encoders.h</text>
</a>
</g>
</g>
<!-- Node0&#45;&gt;Node1 -->
<g id="edge1" class="edge">
<title>Node0&#45;&gt;Node1</title>
<path fill="none" stroke="#191970" d="M57.7849,-110.4179C53.6841,-102.8998 47.7294,-91.9829 42.6551,-82.6799"/>
<polygon fill="#191970" stroke="#191970" points="45.6615,-80.8824 37.8003,-73.7795 39.5162,-84.2344 45.6615,-80.8824"/>
</g>
<!-- Node2 -->
<g id="node3" class="node">
<title>Node2</title>
<polygon fill="none" stroke="#bfbfbf" points="42.5098,-.5 42.5098,-18.5 82.9678,-18.5 82.9678,-.5 42.5098,-.5"/>
<text text-anchor="middle" x="62.7388" y="-6.5" font-family="Helvetica,sans-Serif" font-size="10.00" fill="#000000">API.h</text>
</g>
<!-- Node0&#45;&gt;Node2 -->
<g id="edge3" class="edge">
<title>Node0&#45;&gt;Node2</title>
<path fill="none" stroke="#191970" d="M65.9384,-110.2292C68.8971,-101.1323 73.0792,-86.8005 74.7388,-74 76.7524,-58.4687 73.1411,-41.014 69.3664,-28.1827"/>
<polygon fill="#191970" stroke="#191970" points="72.6858,-27.0722 66.2771,-18.6355 66.0258,-29.2273 72.6858,-27.0722"/>
</g>
<!-- Node1&#45;&gt;Node2 -->
<g id="edge2" class="edge">
<title>Node1&#45;&gt;Node2</title>
<path fill="none" stroke="#191970" d="M37.6927,-55.4179C41.7934,-47.8998 47.7481,-36.9829 52.8225,-27.6799"/>
<polygon fill="#191970" stroke="#191970" points="55.9613,-29.2344 57.6772,-18.7795 49.816,-25.8824 55.9613,-29.2344"/>
</g>
</g>
</svg>
