<?xml version="1.0" encoding="UTF-8" standalone="no"?>
<!DOCTYPE svg PUBLIC "-//W3C//DTD SVG 1.1//EN"
 "http://www.w3.org/Graphics/SVG/1.1/DTD/svg11.dtd">
<!-- Generated by graphviz version 2.40.1 (20161225.0304)
 -->
<!-- Title: get_encoder_ticks Pages: 1 -->
<svg width="515pt" height="64pt"
 viewBox="0.00 0.00 514.68 64.00" xmlns="http://www.w3.org/2000/svg" xmlns:xlink="http://www.w3.org/1999/xlink">
<g id="graph0" class="graph" transform="scale(1 1) rotate(0) translate(4 60)">
<title>get_encoder_ticks</title>
<!-- Node2 -->
<g id="node1" class="node">
<title>Node2</title>
<polygon fill="#bfbfbf" stroke="#000000" points="0,-18.5 0,-36.5 97.1621,-36.5 97.1621,-18.5 0,-18.5"/>
<text text-anchor="middle" x="48.5811" y="-24.5" font-family="Helvetica,sans-Serif" font-size="10.00" fill="#000000">get_encoder_ticks</text>
</g>
<!-- Node3 -->
<g id="node2" class="node">
<title>Node3</title>
<g id="a_node2"><a xlink:href="localization_8c.html#a5dd17937f5561711cd12cdefa8d31869" target="_top" xlink:title="calculates the current angle using the IMEs ">
<polygon fill="none" stroke="#000000" points="141.7705,-37.5 141.7705,-55.5 268.9668,-55.5 268.9668,-37.5 141.7705,-37.5"/>
<text text-anchor="middle" x="205.3687" y="-43.5" font-family="Helvetica,sans-Serif" font-size="10.00" fill="#000000">calculate_encoder_angle</text>
</a>
</g>
</g>
<!-- Node2&#45;&gt;Node3 -->
<g id="edge1" class="edge">
<title>Node2&#45;&gt;Node3</title>
<path fill="none" stroke="#191970" d="M107.4065,-34.6287C118.583,-35.9831 130.3264,-37.4062 141.6466,-38.778"/>
<polygon fill="#191970" stroke="#191970" points="107.6786,-31.1361 97.3302,-33.4076 106.8365,-38.0853 107.6786,-31.1361"/>
</g>
<!-- Node6 -->
<g id="node5" class="node">
<title>Node6</title>
<g id="a_node5"><a xlink:href="localization_8c.html#a1cb0c9fa1e6ff2079deb836569d75d87" target="_top" xlink:title="calculates the x y posistion of the robot based upon the IMEs ">
<polygon fill="none" stroke="#000000" points="133.1621,-.5 133.1621,-18.5 277.5752,-18.5 277.5752,-.5 133.1621,-.5"/>
<text text-anchor="middle" x="205.3687" y="-6.5" font-family="Helvetica,sans-Serif" font-size="10.00" fill="#000000">calculate_encoder_odemetry</text>
</a>
</g>
</g>
<!-- Node2&#45;&gt;Node6 -->
<g id="edge4" class="edge">
<title>Node2&#45;&gt;Node6</title>
<path fill="none" stroke="#191970" d="M107.3671,-20.7511C115.7484,-19.7888 124.4494,-18.7899 133.0521,-17.8023"/>
<polygon fill="#191970" stroke="#191970" points="106.8657,-17.2855 97.3302,-21.9034 107.6642,-24.2399 106.8657,-17.2855"/>
</g>
<!-- Node4 -->
<g id="node3" class="node">
<title>Node4</title>
<g id="a_node3"><a xlink:href="auto_8c.html#a8141105864165fcb16d70f7cc72a1b6f" target="_top" xlink:title="Rotates the robot 180 degrees clockwise. ">
<polygon fill="none" stroke="#000000" points="313.5752,-37.5 313.5752,-55.5 399.6387,-55.5 399.6387,-37.5 313.5752,-37.5"/>
<text text-anchor="middle" x="356.6069" y="-43.5" font-family="Helvetica,sans-Serif" font-size="10.00" fill="#000000">auton_turn_180</text>
</a>
</g>
</g>
<!-- Node3&#45;&gt;Node4 -->
<g id="edge2" class="edge">
<title>Node3&#45;&gt;Node4</title>
<path fill="none" stroke="#191970" d="M279.2343,-46.5C290.8492,-46.5 302.5194,-46.5 313.1478,-46.5"/>
<polygon fill="#191970" stroke="#191970" points="279.069,-43.0001 269.069,-46.5 279.0689,-50.0001 279.069,-43.0001"/>
</g>
<!-- Node5 -->
<g id="node4" class="node">
<title>Node5</title>
<g id="a_node4"><a xlink:href="auto_8c.html#a3c7ca506bbc071fa740de13805b7f376" target="_top" xlink:title="Runs the user autonomous code. ">
<polygon fill="none" stroke="#000000" points="435.6387,-37.5 435.6387,-55.5 506.6777,-55.5 506.6777,-37.5 435.6387,-37.5"/>
<text text-anchor="middle" x="471.1582" y="-43.5" font-family="Helvetica,sans-Serif" font-size="10.00" fill="#000000">autonomous</text>
</a>
</g>
</g>
<!-- Node4&#45;&gt;Node5 -->
<g id="edge3" class="edge">
<title>Node4&#45;&gt;Node5</title>
<path fill="none" stroke="#191970" d="M410.0082,-46.5C418.6948,-46.5 427.5009,-46.5 435.6221,-46.5"/>
<polygon fill="#191970" stroke="#191970" points="409.9139,-43.0001 399.9139,-46.5 409.9138,-50.0001 409.9139,-43.0001"/>
</g>
</g>
</svg>
