<?xml version="1.0" encoding="UTF-8" standalone="no"?>
<!DOCTYPE svg PUBLIC "-//W3C//DTD SVG 1.1//EN"
 "http://www.w3.org/Graphics/SVG/1.1/DTD/svg11.dtd">
<!-- Generated by graphviz version 2.40.1 (20161225.0304)
 -->
<!-- Title: src/encoders.c Pages: 1 -->
<svg width="205pt" height="192pt"
 viewBox="0.00 0.00 205.30 192.00" xmlns="http://www.w3.org/2000/svg" xmlns:xlink="http://www.w3.org/1999/xlink">
<g id="graph0" class="graph" transform="scale(1 1) rotate(0) translate(4 188)">
<title>src/encoders.c</title>
<!-- Node0 -->
<g id="node1" class="node">
<title>Node0</title>
<polygon fill="#bfbfbf" stroke="#000000" points="53.2266,-165.5 53.2266,-183.5 134.251,-183.5 134.251,-165.5 53.2266,-165.5"/>
<text text-anchor="middle" x="93.7388" y="-171.5" font-family="Helvetica,sans-Serif" font-size="10.00" fill="#000000">src/encoders.c</text>
</g>
<!-- Node1 -->
<g id="node2" class="node">
<title>Node1</title>
<g id="a_node2"><a xlink:href="encoders_8h.html" target="_top" xlink:title="wrapper around encoder functions ">
<polygon fill="none" stroke="#000000" points="0,-55.5 0,-73.5 65.4775,-73.5 65.4775,-55.5 0,-55.5"/>
<text text-anchor="middle" x="32.7388" y="-61.5" font-family="Helvetica,sans-Serif" font-size="10.00" fill="#000000">encoders.h</text>
</a>
</g>
</g>
<!-- Node0&#45;&gt;Node1 -->
<g id="edge1" class="edge">
<title>Node0&#45;&gt;Node1</title>
<path fill="none" stroke="#191970" d="M88.7469,-165.4982C78.7381,-147.4496 56.0466,-106.5306 42.8228,-82.6843"/>
<polygon fill="#191970" stroke="#191970" points="45.7102,-80.6741 37.7996,-73.6261 39.5885,-84.0689 45.7102,-80.6741"/>
</g>
<!-- Node2 -->
<g id="node3" class="node">
<title>Node2</title>
<polygon fill="none" stroke="#bfbfbf" points="92.5098,-.5 92.5098,-18.5 132.9678,-18.5 132.9678,-.5 92.5098,-.5"/>
<text text-anchor="middle" x="112.7388" y="-6.5" font-family="Helvetica,sans-Serif" font-size="10.00" fill="#000000">API.h</text>
</g>
<!-- Node0&#45;&gt;Node2 -->
<g id="edge7" class="edge">
<title>Node0&#45;&gt;Node2</title>
<path fill="none" stroke="#191970" d="M94.8147,-165.1561C97.8324,-138.9504 106.4221,-64.3557 110.5161,-28.8021"/>
<polygon fill="#191970" stroke="#191970" points="114.0076,-29.0762 111.6746,-18.7414 107.0535,-28.2753 114.0076,-29.0762"/>
</g>
<!-- Node3 -->
<g id="node4" class="node">
<title>Node3</title>
<g id="a_node4"><a xlink:href="log_8h.html" target="_top" xlink:title="Contains logging functions. ">
<polygon fill="none" stroke="#000000" points="121.8965,-110.5 121.8965,-128.5 159.5811,-128.5 159.5811,-110.5 121.8965,-110.5"/>
<text text-anchor="middle" x="140.7388" y="-116.5" font-family="Helvetica,sans-Serif" font-size="10.00" fill="#000000">log.h</text>
</a>
</g>
</g>
<!-- Node0&#45;&gt;Node3 -->
<g id="edge3" class="edge">
<title>Node0&#45;&gt;Node3</title>
<path fill="none" stroke="#191970" d="M101.4999,-165.4179C108.1949,-157.5833 118.0442,-146.0575 126.1998,-136.5137"/>
<polygon fill="#191970" stroke="#191970" points="128.9733,-138.6556 132.8091,-128.7795 123.6517,-134.108 128.9733,-138.6556"/>
</g>
<!-- Node1&#45;&gt;Node2 -->
<g id="edge2" class="edge">
<title>Node1&#45;&gt;Node2</title>
<path fill="none" stroke="#191970" d="M45.9491,-55.4179C58.2242,-46.9788 76.7286,-34.257 91.1496,-24.3426"/>
<polygon fill="#191970" stroke="#191970" points="93.2512,-27.1451 99.5088,-18.5956 89.2855,-21.3768 93.2512,-27.1451"/>
</g>
<!-- Node3&#45;&gt;Node2 -->
<g id="edge6" class="edge">
<title>Node3&#45;&gt;Node2</title>
<path fill="none" stroke="#191970" d="M138.4474,-110.4982C133.8942,-92.6108 123.623,-52.2594 117.5311,-28.3271"/>
<polygon fill="#191970" stroke="#191970" points="120.9205,-27.4537 115.0618,-18.6261 114.1368,-29.1805 120.9205,-27.4537"/>
</g>
<!-- Node4 -->
<g id="node5" class="node">
<title>Node4</title>
<g id="a_node5"><a xlink:href="lcd_8h.html" target="_top" xlink:title="LCD wrapper functions and macros. ">
<polygon fill="none" stroke="#000000" points="160.1772,-55.5 160.1772,-73.5 197.3003,-73.5 197.3003,-55.5 160.1772,-55.5"/>
<text text-anchor="middle" x="178.7388" y="-61.5" font-family="Helvetica,sans-Serif" font-size="10.00" fill="#000000">lcd.h</text>
</a>
</g>
</g>
<!-- Node3&#45;&gt;Node4 -->
<g id="edge4" class="edge">
<title>Node3&#45;&gt;Node4</title>
<path fill="none" stroke="#191970" d="M147.0137,-110.4179C152.3173,-102.7415 160.0692,-91.5217 166.5826,-82.0945"/>
<polygon fill="#191970" stroke="#191970" points="169.5227,-83.9963 172.3275,-73.7795 163.7636,-80.0173 169.5227,-83.9963"/>
</g>
<!-- Node4&#45;&gt;Node2 -->
<g id="edge5" class="edge">
<title>Node4&#45;&gt;Node2</title>
<path fill="none" stroke="#191970" d="M167.8402,-55.4179C158.0588,-47.2667 143.4829,-35.1201 131.7791,-25.3669"/>
<polygon fill="#191970" stroke="#191970" points="133.797,-22.4926 123.8741,-18.7795 129.3157,-27.8701 133.797,-22.4926"/>
</g>
</g>
</svg>
