<?xml version="1.0" encoding="UTF-8" standalone="no"?>
<!DOCTYPE svg PUBLIC "-//W3C//DTD SVG 1.1//EN"
 "http://www.w3.org/Graphics/SVG/1.1/DTD/svg11.dtd">
<!-- Generated by graphviz version 2.40.1 (20161225.0304)
 -->
<!-- Title: src/gyro.c Pages: 1 -->
<svg width="67pt" height="137pt"
 viewBox="0.00 0.00 67.34 137.00" xmlns="http://www.w3.org/2000/svg" xmlns:xlink="http://www.w3.org/1999/xlink">
<g id="graph0" class="graph" transform="scale(1 1) rotate(0) translate(4 133)">
<title>src/gyro.c</title>
<!-- Node0 -->
<g id="node1" class="node">
<title>Node0</title>
<polygon fill="#bfbfbf" stroke="#000000" points="0,-110.5 0,-128.5 59.3398,-128.5 59.3398,-110.5 0,-110.5"/>
<text text-anchor="middle" x="29.6699" y="-116.5" font-family="Helvetica,sans-Serif" font-size="10.00" fill="#000000">src/gyro.c</text>
</g>
<!-- Node1 -->
<g id="node2" class="node">
<title>Node1</title>
<g id="a_node2"><a xlink:href="gyro_8h.html" target="_top" xlink:title="gyro.h">
<polygon fill="none" stroke="#000000" points="7.7734,-55.5 7.7734,-73.5 51.5664,-73.5 51.5664,-55.5 7.7734,-55.5"/>
<text text-anchor="middle" x="29.6699" y="-61.5" font-family="Helvetica,sans-Serif" font-size="10.00" fill="#000000">gyro.h</text>
</a>
</g>
</g>
<!-- Node0&#45;&gt;Node1 -->
<g id="edge1" class="edge">
<title>Node0&#45;&gt;Node1</title>
<path fill="none" stroke="#191970" d="M29.6699,-110.4179C29.6699,-103.2164 29.6699,-92.8962 29.6699,-83.8632"/>
<polygon fill="#191970" stroke="#191970" points="33.17,-83.7794 29.6699,-73.7795 26.17,-83.7795 33.17,-83.7794"/>
</g>
<!-- Node2 -->
<g id="node3" class="node">
<title>Node2</title>
<polygon fill="none" stroke="#bfbfbf" points="9.4409,-.5 9.4409,-18.5 49.8989,-18.5 49.8989,-.5 9.4409,-.5"/>
<text text-anchor="middle" x="29.6699" y="-6.5" font-family="Helvetica,sans-Serif" font-size="10.00" fill="#000000">API.h</text>
</g>
<!-- Node1&#45;&gt;Node2 -->
<g id="edge2" class="edge">
<title>Node1&#45;&gt;Node2</title>
<path fill="none" stroke="#191970" d="M29.6699,-55.4179C29.6699,-48.2164 29.6699,-37.8962 29.6699,-28.8632"/>
<polygon fill="#191970" stroke="#191970" points="33.17,-28.7794 29.6699,-18.7795 26.17,-28.7795 33.17,-28.7794"/>
</g>
</g>
</svg>
