<?xml version="1.0" encoding="UTF-8" standalone="no"?>
<!DOCTYPE svg PUBLIC "-//W3C//DTD SVG 1.1//EN"
 "http://www.w3.org/Graphics/SVG/1.1/DTD/svg11.dtd">
<!-- Generated by graphviz version 2.40.1 (20161225.0304)
 -->
<!-- Title: initialize Pages: 1 -->
<!--zoomable 510 -->
<svg id="main" version="1.1" xmlns="http://www.w3.org/2000/svg" xmlns:xlink="http://www.w3.org/1999/xlink" xml:space="preserve" onload="init(evt)">
<style type="text/css"><![CDATA[
.edge:hover path { stroke: red; }
.edge:hover polygon { stroke: red; fill: red; }
]]></style>
<script type="text/javascript"><![CDATA[
var edges = document.getElementsByTagName('g');
if (edges && edges.length) {
  for (var i=0;i<edges.length;i++) {
    if (edges[i].id.substr(0,4)=='edge') {
      edges[i].setAttribute('class','edge');
    }
  }
}
]]></script>
        <defs>
                <circle id="rim" cx="0" cy="0" r="7"/>
                <circle id="rim2" cx="0" cy="0" r="3.5"/>
                <g id="zoomPlus">
                        <use xlink:href="#rim" fill="#404040">
                                <set attributeName="fill" to="#808080" begin="zoomplus.mouseover" end="zoomplus.mouseout"/>
                        </use>
                        <path d="M-4,0h8M0,-4v8" fill="none" stroke="white" stroke-width="1.5" pointer-events="none"/>
                </g>
                <g id="zoomMin">
                        <use xlink:href="#rim" fill="#404040">
                                <set attributeName="fill" to="#808080" begin="zoomminus.mouseover" end="zoomminus.mouseout"/>
                        </use>
                        <path d="M-4,0h8" fill="none" stroke="white" stroke-width="1.5" pointer-events="none"/>
                </g>
                <g id="dirArrow">
                        <path fill="none" stroke="white" stroke-width="1.5" d="M0,-3.0v7 M-2.5,-0.5L0,-3.0L2.5,-0.5"/>
                </g>
               <g id="resetDef">
                       <use xlink:href="#rim2" fill="#404040">
                               <set attributeName="fill" to="#808080" begin="reset.mouseover" end="reset.mouseout"/>
                       </use>
               </g>
        </defs>

<script type="text/javascript">
var viewWidth = 558;
var viewHeight = 510;
var sectionId = 'dynsection-1';
</script>
<script xlink:href="svgpan.js"/>
<svg id="graph" class="graph">
<g id="viewport">
<title>initialize</title>
<!-- Node0 -->
<g id="node1" class="node">
<title>Node0</title>
<polygon fill="#bfbfbf" stroke="#000000" points="0,-316.5 0,-334.5 51.5713,-334.5 51.5713,-316.5 0,-316.5"/>
<text text-anchor="middle" x="25.7856" y="-322.5" font-family="Helvetica,sans-Serif" font-size="10.00" fill="#000000">initialize</text>
</g>
<!-- Node1 -->
<g id="node2" class="node">
<title>Node1</title>
<g id="a_node2"><a xlink:href="encoders_8h.html#aa6ec1ca17e907babd52803ecba451cd3" target="_top" xlink:title="Initializes all motor encoders. ">
<polygon fill="none" stroke="#000000" points="100.6255,-478.5 100.6255,-496.5 176.1079,-496.5 176.1079,-478.5 100.6255,-478.5"/>
<text text-anchor="middle" x="138.3667" y="-484.5" font-family="Helvetica,sans-Serif" font-size="10.00" fill="#000000">init_encoders</text>
</a>
</g>
</g>
<!-- Node0&#45;&gt;Node1 -->
<g id="edge1" class="edge">
<title>Node0&#45;&gt;Node1</title>
<path fill="none" stroke="#191970" d="M27.4761,-334.5648C32.4281,-358.7701 49.0505,-425.7123 87.5713,-464.5 91.1878,-468.1415 95.4848,-471.2612 100.0255,-473.919"/>
<polygon fill="#191970" stroke="#191970" points="98.4454,-477.042 108.9427,-478.4765 101.6311,-470.8089 98.4454,-477.042"/>
</g>
<!-- Node3 -->
<g id="node4" class="node">
<title>Node3</title>
<g id="a_node4"><a xlink:href="log_8h.html#a163f389b4f5cf440a807d8fb48aaa006" target="_top" xlink:title="Initializes the error lcd system Only required if using lcd. ">
<polygon fill="none" stroke="#000000" points="110.6377,-436.5 110.6377,-454.5 166.0957,-454.5 166.0957,-436.5 110.6377,-436.5"/>
<text text-anchor="middle" x="138.3667" y="-442.5" font-family="Helvetica,sans-Serif" font-size="10.00" fill="#000000">init_error</text>
</a>
</g>
</g>
<!-- Node0&#45;&gt;Node3 -->
<g id="edge3" class="edge">
<title>Node0&#45;&gt;Node3</title>
<path fill="none" stroke="#191970" d="M29.8681,-334.5C38.377,-352.4405 59.5681,-393.1109 87.5713,-418.5 93.2175,-423.6191 100.0112,-428.0855 106.7666,-431.8335"/>
<polygon fill="#191970" stroke="#191970" points="105.3486,-435.0397 115.8433,-436.4928 108.5453,-428.8123 105.3486,-435.0397"/>
</g>
<!-- Node5 -->
<g id="node6" class="node">
<title>Node5</title>
<g id="a_node6"><a xlink:href="lcd_8h.html#a93b26f37d6b1687ad54c90feedfd29ca" target="_top" xlink:title="Initializes the lcd screen. Also will initialize the lcd_port var. Must be called before any lcd func...">
<polygon fill="none" stroke="#000000" points="101.1846,-390.5 101.1846,-408.5 175.5488,-408.5 175.5488,-390.5 101.1846,-390.5"/>
<text text-anchor="middle" x="138.3667" y="-396.5" font-family="Helvetica,sans-Serif" font-size="10.00" fill="#000000">init_main_lcd</text>
</a>
</g>
</g>
<!-- Node0&#45;&gt;Node5 -->
<g id="edge5" class="edge">
<title>Node0&#45;&gt;Node5</title>
<path fill="none" stroke="#191970" d="M39.5903,-334.5739C58.6655,-347.1121 93.3026,-369.8792 116.0728,-384.8461"/>
<polygon fill="#191970" stroke="#191970" points="114.1702,-387.7839 124.4491,-390.3519 118.0152,-381.9344 114.1702,-387.7839"/>
</g>
<!-- Node6 -->
<g id="node7" class="node">
<title>Node6</title>
<g id="a_node7"><a xlink:href="slew_8h.html#a321758941d88b75783955c819bb75005" target="_top" xlink:title="Initializes the slew rate controller. ">
<polygon fill="none" stroke="#000000" points="111.1919,-335.5 111.1919,-353.5 165.5415,-353.5 165.5415,-335.5 111.1919,-335.5"/>
<text text-anchor="middle" x="138.3667" y="-341.5" font-family="Helvetica,sans-Serif" font-size="10.00" fill="#000000">init_slew</text>
</a>
</g>
</g>
<!-- Node0&#45;&gt;Node6 -->
<g id="edge7" class="edge">
<title>Node0&#45;&gt;Node6</title>
<path fill="none" stroke="#191970" d="M51.614,-329.859C66.2052,-332.3215 84.7042,-335.4435 100.868,-338.1714"/>
<polygon fill="#191970" stroke="#191970" points="100.6451,-341.6833 111.0882,-339.8963 101.8101,-334.7809 100.6451,-341.6833"/>
</g>
<!-- Node19 -->
<g id="node20" class="node">
<title>Node19</title>
<g id="a_node20"><a xlink:href="_a_p_i_8h.html#a91ac9eacbf0930cd5f26bc12b90b9efd" target="_top" xlink:title="powerLevelBackup">
<polygon fill="none" stroke="#000000" points="88.1182,-298.5 88.1182,-316.5 188.6152,-316.5 188.6152,-298.5 88.1182,-298.5"/>
<text text-anchor="middle" x="138.3667" y="-304.5" font-family="Helvetica,sans-Serif" font-size="10.00" fill="#000000">powerLevelBackup</text>
</a>
</g>
</g>
<!-- Node0&#45;&gt;Node19 -->
<g id="edge21" class="edge">
<title>Node0&#45;&gt;Node19</title>
<path fill="none" stroke="#191970" d="M51.614,-321.3704C59.5279,-320.1051 68.5912,-318.656 77.8081,-317.1824"/>
<polygon fill="#191970" stroke="#191970" points="78.5005,-320.6162 87.8225,-315.5813 77.3953,-313.704 78.5005,-320.6162"/>
</g>
<!-- Node20 -->
<g id="node21" class="node">
<title>Node20</title>
<g id="a_node21"><a xlink:href="lcd_8h.html#a99f4683e1990edf624ab216bf327cba4" target="_top" xlink:title="Prompts the user to confirm a string. User must press middle button to confirm. Function is not threa...">
<polygon fill="none" stroke="#000000" points="87.5713,-206.5 87.5713,-224.5 189.1621,-224.5 189.1621,-206.5 87.5713,-206.5"/>
<text text-anchor="middle" x="138.3667" y="-212.5" font-family="Helvetica,sans-Serif" font-size="10.00" fill="#000000">promt_confirmation</text>
</a>
</g>
</g>
<!-- Node0&#45;&gt;Node20 -->
<g id="edge22" class="edge">
<title>Node0&#45;&gt;Node20</title>
<path fill="none" stroke="#191970" d="M34.9986,-316.4982C53.9655,-297.9662 97.6103,-255.3221 121.6785,-231.8056"/>
<polygon fill="#191970" stroke="#191970" points="124.3198,-234.1182 129.0264,-224.6261 119.4278,-229.1114 124.3198,-234.1182"/>
</g>
<!-- Node27 -->
<g id="node28" class="node">
<title>Node27</title>
<g id="a_node28"><a xlink:href="_a_p_i_8h.html#a22269cefc22e487f7acdcc4737d58c4a" target="_top" xlink:title="setTeamName">
<polygon fill="none" stroke="#000000" points="98.1328,-169.5 98.1328,-187.5 178.6006,-187.5 178.6006,-169.5 98.1328,-169.5"/>
<text text-anchor="middle" x="138.3667" y="-175.5" font-family="Helvetica,sans-Serif" font-size="10.00" fill="#000000">setTeamName</text>
</a>
</g>
</g>
<!-- Node0&#45;&gt;Node27 -->
<g id="edge32" class="edge">
<title>Node0&#45;&gt;Node27</title>
<path fill="none" stroke="#191970" d="M27.7154,-316.3428C33.0607,-293.1631 50.1991,-231.5907 87.5713,-197.5 89.5494,-195.6956 91.7149,-194.0576 94.0016,-192.5713"/>
<polygon fill="#191970" stroke="#191970" points="96.1468,-195.3906 103.2831,-187.5597 92.821,-189.2312 96.1468,-195.3906"/>
</g>
<!-- Node28 -->
<g id="node29" class="node">
<title>Node28</title>
<g id="a_node29"><a xlink:href="log_8h.html#a0bec2cf5fff7f607bc510b74aba9887c" target="_top" xlink:title="prints a warning message and displays on lcd. Only will print and display if log_level is greater tha...">
<polygon fill="none" stroke="#000000" points="112.8569,-94.5 112.8569,-112.5 163.8765,-112.5 163.8765,-94.5 112.8569,-94.5"/>
<text text-anchor="middle" x="138.3667" y="-100.5" font-family="Helvetica,sans-Serif" font-size="10.00" fill="#000000">warning</text>
</a>
</g>
</g>
<!-- Node0&#45;&gt;Node28 -->
<g id="edge33" class="edge">
<title>Node0&#45;&gt;Node28</title>
<path fill="none" stroke="#191970" d="M27.9279,-316.3917C34.2587,-290.5721 54.533,-215.2308 87.5713,-160.5 96.7215,-145.3418 110.1525,-130.4834 120.9057,-119.7388"/>
<polygon fill="#191970" stroke="#191970" points="123.4236,-122.1725 128.1629,-112.6968 118.5489,-117.1488 123.4236,-122.1725"/>
</g>
<!-- Node2 -->
<g id="node3" class="node">
<title>Node2</title>
<g id="a_node3"><a xlink:href="_a_p_i_8h.html#a868ab46aa5992e60829936c0109160bf" target="_top" xlink:title="imeInitializeAll">
<polygon fill="none" stroke="#000000" points="249.3589,-483.5 249.3589,-501.5 328.7134,-501.5 328.7134,-483.5 249.3589,-483.5"/>
<text text-anchor="middle" x="289.0361" y="-489.5" font-family="Helvetica,sans-Serif" font-size="10.00" fill="#000000">imeInitializeAll</text>
</a>
</g>
</g>
<!-- Node1&#45;&gt;Node2 -->
<g id="edge2" class="edge">
<title>Node1&#45;&gt;Node2</title>
<path fill="none" stroke="#191970" d="M176.387,-488.7617C195.4041,-489.3928 218.6655,-490.1647 239.1022,-490.8429"/>
<polygon fill="#191970" stroke="#191970" points="239.074,-494.3438 249.1846,-491.1775 239.3062,-487.3477 239.074,-494.3438"/>
</g>
<!-- Node4 -->
<g id="node5" class="node">
<title>Node4</title>
<g id="a_node5"><a xlink:href="_a_p_i_8h.html#a51af160afcbfb860dfff75d91ffb3824" target="_top" xlink:title="lcdInit">
<polygon fill="none" stroke="#000000" points="267.9746,-446.5 267.9746,-464.5 310.0977,-464.5 310.0977,-446.5 267.9746,-446.5"/>
<text text-anchor="middle" x="289.0361" y="-452.5" font-family="Helvetica,sans-Serif" font-size="10.00" fill="#000000">lcdInit</text>
</a>
</g>
</g>
<!-- Node3&#45;&gt;Node4 -->
<g id="edge4" class="edge">
<title>Node3&#45;&gt;Node4</title>
<path fill="none" stroke="#191970" d="M166.3534,-447.3575C192.1979,-449.0728 230.5452,-451.6179 257.471,-453.405"/>
<polygon fill="#191970" stroke="#191970" points="257.3241,-456.9029 267.5339,-454.0729 257.7877,-449.9182 257.3241,-456.9029"/>
</g>
<!-- Node5&#45;&gt;Node4 -->
<g id="edge6" class="edge">
<title>Node5&#45;&gt;Node4</title>
<path fill="none" stroke="#191970" d="M157.0269,-408.5657C174.4015,-416.7905 201.1563,-428.9088 225.1621,-437.5 235.657,-441.2559 247.3424,-444.7438 257.8195,-447.6299"/>
<polygon fill="#191970" stroke="#191970" points="257.2399,-451.0979 267.8049,-450.3029 259.0501,-444.336 257.2399,-451.0979"/>
</g>
<!-- Node7 -->
<g id="node8" class="node">
<title>Node7</title>
<g id="a_node8"><a xlink:href="vlib_8h.html#a1115803c6996aebfbf67434810df7b4b" target="_top" xlink:title="calloc_real">
<polygon fill="none" stroke="#000000" points="257.1348,-335.5 257.1348,-353.5 320.9375,-353.5 320.9375,-335.5 257.1348,-335.5"/>
<text text-anchor="middle" x="289.0361" y="-341.5" font-family="Helvetica,sans-Serif" font-size="10.00" fill="#000000">calloc_real</text>
</a>
</g>
</g>
<!-- Node6&#45;&gt;Node7 -->
<g id="edge8" class="edge">
<title>Node6&#45;&gt;Node7</title>
<path fill="none" stroke="#191970" d="M165.6518,-344.5C188.2354,-344.5 220.7063,-344.5 246.6693,-344.5"/>
<polygon fill="#191970" stroke="#191970" points="246.9873,-348.0001 256.9872,-344.5 246.9872,-341.0001 246.9873,-348.0001"/>
</g>
<!-- Node8 -->
<g id="node9" class="node">
<title>Node8</title>
<g id="a_node9"><a xlink:href="log_8h.html#a1606d750e1bb8de9f9e917172bba3382" target="_top" xlink:title="prints a info message ">
<polygon fill="none" stroke="#000000" points="272.9746,-298.5 272.9746,-316.5 305.0977,-316.5 305.0977,-298.5 272.9746,-298.5"/>
<text text-anchor="middle" x="289.0361" y="-304.5" font-family="Helvetica,sans-Serif" font-size="10.00" fill="#000000">info</text>
</a>
</g>
</g>
<!-- Node6&#45;&gt;Node8 -->
<g id="edge9" class="edge">
<title>Node6&#45;&gt;Node8</title>
<path fill="none" stroke="#191970" d="M165.6518,-337.7996C193.202,-331.0341 235.4665,-320.6551 262.68,-313.9723"/>
<polygon fill="#191970" stroke="#191970" points="263.7753,-317.3074 272.652,-311.5235 262.1058,-310.5094 263.7753,-317.3074"/>
</g>
<!-- Node10 -->
<g id="node11" class="node">
<title>Node10</title>
<g id="a_node11"><a xlink:href="_a_p_i_8h.html#aecd027ce8f8b52a765735e9eb5b202b3" target="_top" xlink:title="mutexCreate">
<polygon fill="none" stroke="#000000" points="252.4131,-261.5 252.4131,-279.5 325.6592,-279.5 325.6592,-261.5 252.4131,-261.5"/>
<text text-anchor="middle" x="289.0361" y="-267.5" font-family="Helvetica,sans-Serif" font-size="10.00" fill="#000000">mutexCreate</text>
</a>
</g>
</g>
<!-- Node6&#45;&gt;Node10 -->
<g id="edge11" class="edge">
<title>Node6&#45;&gt;Node10</title>
<path fill="none" stroke="#191970" d="M165.7987,-337.3401C173.6893,-334.616 182.0722,-331.0427 189.1621,-326.5 208.4807,-314.1221 205.5316,-301.377 225.1621,-289.5 230.5538,-286.2379 236.5427,-283.5037 242.6307,-281.2206"/>
<polygon fill="#191970" stroke="#191970" points="243.8489,-284.5036 252.2073,-277.9931 241.6132,-277.8702 243.8489,-284.5036"/>
</g>
<!-- Node11 -->
<g id="node12" class="node">
<title>Node11</title>
<g id="a_node12"><a xlink:href="_a_p_i_8h.html#ab05a241d6d1fd98b1ceb4665db678156" target="_top" xlink:title="taskRunLoop">
<polygon fill="none" stroke="#000000" points="251.5708,-409.5 251.5708,-427.5 326.5015,-427.5 326.5015,-409.5 251.5708,-409.5"/>
<text text-anchor="middle" x="289.0361" y="-415.5" font-family="Helvetica,sans-Serif" font-size="10.00" fill="#000000">taskRunLoop</text>
</a>
</g>
</g>
<!-- Node6&#45;&gt;Node11 -->
<g id="edge12" class="edge">
<title>Node6&#45;&gt;Node11</title>
<path fill="none" stroke="#191970" d="M150.069,-353.6855C166.157,-365.9187 196.393,-387.5199 225.1621,-400.5 230.477,-402.898 236.1868,-405.0513 241.9276,-406.963"/>
<polygon fill="#191970" stroke="#191970" points="240.966,-410.3292 251.5542,-409.9527 243.0422,-403.6442 240.966,-410.3292"/>
</g>
<!-- Node12 -->
<g id="node13" class="node">
<title>Node12</title>
<g id="a_node13"><a xlink:href="slew_8c.html#a807a87c5df438fde21c1e8213906695b" target="_top" xlink:title="Closes the distance between the desired motor value and the current motor value by half for each moto...">
<polygon fill="none" stroke="#000000" points="250.4624,-372.5 250.4624,-390.5 327.6099,-390.5 327.6099,-372.5 250.4624,-372.5"/>
<text text-anchor="middle" x="289.0361" y="-378.5" font-family="Helvetica,sans-Serif" font-size="10.00" fill="#000000">updateMotors</text>
</a>
</g>
</g>
<!-- Node6&#45;&gt;Node12 -->
<g id="edge13" class="edge">
<title>Node6&#45;&gt;Node12</title>
<path fill="none" stroke="#191970" d="M165.6518,-351.2004C187.0631,-356.4584 217.3618,-363.8989 242.5758,-370.0907"/>
<polygon fill="#191970" stroke="#191970" points="241.7691,-373.4965 252.3152,-372.4824 243.4385,-366.6985 241.7691,-373.4965"/>
</g>
<!-- Node9 -->
<g id="node10" class="node">
<title>Node9</title>
<g id="a_node10"><a xlink:href="_a_p_i_8h.html#a403c82418e475fa4a8273719e6a7f3e6" target="_top" xlink:title="printf">
<polygon fill="none" stroke="#000000" points="511.5107,-187.5 511.5107,-205.5 549.7422,-205.5 549.7422,-187.5 511.5107,-187.5"/>
<text text-anchor="middle" x="530.6265" y="-193.5" font-family="Helvetica,sans-Serif" font-size="10.00" fill="#000000">printf</text>
</a>
</g>
</g>
<!-- Node8&#45;&gt;Node9 -->
<g id="edge10" class="edge">
<title>Node8&#45;&gt;Node9</title>
<path fill="none" stroke="#191970" d="M305.1199,-305.2372C318.5824,-302.8281 337.9386,-298.1319 352.9102,-289.5 372.2425,-278.3539 370.2429,-266.7273 388.9102,-254.5 408.1385,-241.9051 466.0556,-219.8602 501.6183,-206.8795"/>
<polygon fill="#191970" stroke="#191970" points="503.2301,-210.018 511.4376,-203.3182 500.8434,-203.4375 503.2301,-210.018"/>
</g>
<!-- Node13 -->
<g id="node14" class="node">
<title>Node13</title>
<g id="a_node14"><a xlink:href="_a_p_i_8h.html#a8b51124628d2a7741738d48551d1e8ee" target="_top" xlink:title="mutexTake">
<polygon fill="none" stroke="#000000" points="400.0332,-411.5 400.0332,-429.5 464.3877,-429.5 464.3877,-411.5 400.0332,-411.5"/>
<text text-anchor="middle" x="432.2104" y="-417.5" font-family="Helvetica,sans-Serif" font-size="10.00" fill="#000000">mutexTake</text>
</a>
</g>
</g>
<!-- Node12&#45;&gt;Node13 -->
<g id="edge14" class="edge">
<title>Node12&#45;&gt;Node13</title>
<path fill="none" stroke="#191970" d="M322.2431,-390.5454C342.3535,-396.0234 368.2012,-403.0642 389.7838,-408.9432"/>
<polygon fill="#191970" stroke="#191970" points="389.1089,-412.3868 399.6772,-411.6381 390.9487,-405.6329 389.1089,-412.3868"/>
</g>
<!-- Node14 -->
<g id="node15" class="node">
<title>Node14</title>
<g id="a_node15"><a xlink:href="_a_p_i_8h.html#a4805c8fd29f9221d28ed2e673c06e6c4" target="_top" xlink:title="motorGet">
<polygon fill="none" stroke="#000000" points="403.3706,-374.5 403.3706,-392.5 461.0503,-392.5 461.0503,-374.5 403.3706,-374.5"/>
<text text-anchor="middle" x="432.2104" y="-380.5" font-family="Helvetica,sans-Serif" font-size="10.00" fill="#000000">motorGet</text>
</a>
</g>
</g>
<!-- Node12&#45;&gt;Node14 -->
<g id="edge15" class="edge">
<title>Node12&#45;&gt;Node14</title>
<path fill="none" stroke="#191970" d="M327.7812,-382.0412C347.9507,-382.323 372.561,-382.6668 392.8235,-382.9498"/>
<polygon fill="#191970" stroke="#191970" points="392.9287,-386.4515 402.9766,-383.0916 393.0265,-379.4522 392.9287,-386.4515"/>
</g>
<!-- Node15 -->
<g id="node16" class="node">
<title>Node15</title>
<g id="a_node16"><a xlink:href="_a_p_i_8h.html#acbfbfc380f865613ad5ff3cae256bdc4" target="_top" xlink:title="sprintf">
<polygon fill="none" stroke="#000000" points="410.5947,-337.5 410.5947,-355.5 453.8262,-355.5 453.8262,-337.5 410.5947,-337.5"/>
<text text-anchor="middle" x="432.2104" y="-343.5" font-family="Helvetica,sans-Serif" font-size="10.00" fill="#000000">sprintf</text>
</a>
</g>
</g>
<!-- Node12&#45;&gt;Node15 -->
<g id="edge16" class="edge">
<title>Node12&#45;&gt;Node15</title>
<path fill="none" stroke="#191970" d="M325.9071,-372.4866C348.9387,-366.8564 378.2961,-359.6798 400.3215,-354.2955"/>
<polygon fill="#191970" stroke="#191970" points="401.2973,-357.6601 410.1801,-351.8855 399.635,-350.8603 401.2973,-357.6601"/>
</g>
<!-- Node16 -->
<g id="node17" class="node">
<title>Node16</title>
<g id="a_node17"><a xlink:href="log_8h.html#af3668f40d1ad1b4f3418869ac9a31f34" target="_top" xlink:title="prints a info message ">
<polygon fill="none" stroke="#000000" points="410.3066,-300.5 410.3066,-318.5 454.1143,-318.5 454.1143,-300.5 410.3066,-300.5"/>
<text text-anchor="middle" x="432.2104" y="-306.5" font-family="Helvetica,sans-Serif" font-size="10.00" fill="#000000">debug</text>
</a>
</g>
</g>
<!-- Node12&#45;&gt;Node16 -->
<g id="edge17" class="edge">
<title>Node12&#45;&gt;Node16</title>
<path fill="none" stroke="#191970" d="M327.7781,-373.9048C336.3839,-371.325 345.2247,-367.931 352.9102,-363.5 372.2425,-352.3539 370.3973,-340.96 388.9102,-328.5 392.6899,-325.956 396.866,-323.6221 401.0888,-321.5267"/>
<polygon fill="#191970" stroke="#191970" points="402.6307,-324.6703 410.2724,-317.3316 399.7222,-318.3031 402.6307,-324.6703"/>
</g>
<!-- Node17 -->
<g id="node18" class="node">
<title>Node17</title>
<g id="a_node18"><a xlink:href="_a_p_i_8h.html#a03c5b04b472d024281f62d7af8854a8e" target="_top" xlink:title="motorSet">
<polygon fill="none" stroke="#000000" points="403.9248,-263.5 403.9248,-281.5 460.4961,-281.5 460.4961,-263.5 403.9248,-263.5"/>
<text text-anchor="middle" x="432.2104" y="-269.5" font-family="Helvetica,sans-Serif" font-size="10.00" fill="#000000">motorSet</text>
</a>
</g>
</g>
<!-- Node12&#45;&gt;Node17 -->
<g id="edge19" class="edge">
<title>Node12&#45;&gt;Node17</title>
<path fill="none" stroke="#191970" d="M327.6905,-376.1026C336.6828,-373.4325 345.7182,-369.4468 352.9102,-363.5 380.4822,-340.7013 362.9856,-316.156 388.9102,-291.5 390.784,-289.7179 392.8522,-288.0867 395.0387,-286.5962"/>
<polygon fill="#191970" stroke="#191970" points="396.9581,-289.5304 403.8966,-281.5237 393.4795,-283.4559 396.9581,-289.5304"/>
</g>
<!-- Node18 -->
<g id="node19" class="node">
<title>Node18</title>
<g id="a_node19"><a xlink:href="_a_p_i_8h.html#afe171a08d22de18fc2ab604b2364959f" target="_top" xlink:title="mutexGive">
<polygon fill="none" stroke="#000000" points="400.314,-448.5 400.314,-466.5 464.1069,-466.5 464.1069,-448.5 400.314,-448.5"/>
<text text-anchor="middle" x="432.2104" y="-454.5" font-family="Helvetica,sans-Serif" font-size="10.00" fill="#000000">mutexGive</text>
</a>
</g>
</g>
<!-- Node12&#45;&gt;Node18 -->
<g id="edge20" class="edge">
<title>Node12&#45;&gt;Node18</title>
<path fill="none" stroke="#191970" d="M327.6261,-389.3614C336.3298,-392.0994 345.2512,-395.7275 352.9102,-400.5 372.9305,-412.9752 369.571,-425.9929 388.9102,-439.5 391.1481,-441.0631 393.5427,-442.5255 396.0145,-443.8868"/>
<polygon fill="#191970" stroke="#191970" points="394.6421,-447.112 405.1616,-448.3731 397.7246,-440.8272 394.6421,-447.112"/>
</g>
<!-- Node16&#45;&gt;Node9 -->
<g id="edge18" class="edge">
<title>Node16&#45;&gt;Node9</title>
<path fill="none" stroke="#191970" d="M454.4754,-303.4024C461.7583,-300.6281 469.5102,-296.7579 475.5107,-291.5 499.5569,-270.4299 515.7479,-236.2069 524.058,-215.0991"/>
<polygon fill="#191970" stroke="#191970" points="527.367,-216.2429 527.595,-205.6505 520.8113,-213.7887 527.367,-216.2429"/>
</g>
<!-- Node21 -->
<g id="node22" class="node">
<title>Node21</title>
<g id="a_node22"><a xlink:href="_a_p_i_8h.html#a1c59207742a1acf45a8957d7f04f9dfe" target="_top" xlink:title="delay">
<polygon fill="none" stroke="#000000" points="269.083,-224.5 269.083,-242.5 308.9893,-242.5 308.9893,-224.5 269.083,-224.5"/>
<text text-anchor="middle" x="289.0361" y="-230.5" font-family="Helvetica,sans-Serif" font-size="10.00" fill="#000000">delay</text>
</a>
</g>
</g>
<!-- Node20&#45;&gt;Node21 -->
<g id="edge23" class="edge">
<title>Node20&#45;&gt;Node21</title>
<path fill="none" stroke="#191970" d="M189.3765,-221.594C212.5336,-224.3605 239.1258,-227.5374 259.0139,-229.9133"/>
<polygon fill="#191970" stroke="#191970" points="258.6838,-233.3987 269.0284,-231.1097 259.5142,-226.4481 258.6838,-233.3987"/>
</g>
<!-- Node22 -->
<g id="node23" class="node">
<title>Node22</title>
<g id="a_node23"><a xlink:href="lcd_8c.html#a07f04b524b5ded617d5f193db05ba0ad" target="_top" xlink:title="Asserts the lcd is initialized Works by checking is the File *lcd_port is the default NULL value and ...">
<polygon fill="none" stroke="#000000" points="401.4224,-150.5 401.4224,-168.5 462.9985,-168.5 462.9985,-150.5 401.4224,-150.5"/>
<text text-anchor="middle" x="432.2104" y="-156.5" font-family="Helvetica,sans-Serif" font-size="10.00" fill="#000000">lcd_assert</text>
</a>
</g>
</g>
<!-- Node20&#45;&gt;Node22 -->
<g id="edge24" class="edge">
<title>Node20&#45;&gt;Node22</title>
<path fill="none" stroke="#191970" d="M166.3315,-206.4087C173.8317,-203.7494 181.8785,-200.6925 189.1621,-197.5 205.732,-190.2373 207.8185,-183.6485 225.1621,-178.5 280.9888,-161.9278 348.6794,-158.6972 391.1101,-158.5742"/>
<polygon fill="#191970" stroke="#191970" points="391.3206,-162.0747 401.3307,-158.6036 391.3409,-155.0747 391.3206,-162.0747"/>
</g>
<!-- Node23 -->
<g id="node24" class="node">
<title>Node23</title>
<g id="a_node24"><a xlink:href="lcd_8c.html#ac7b3225ccc82fcbe067ba9da934f010d" target="_top" xlink:title="Returns the pressed buttons. ">
<polygon fill="none" stroke="#000000" points="225.1621,-187.5 225.1621,-205.5 352.9102,-205.5 352.9102,-187.5 225.1621,-187.5"/>
<text text-anchor="middle" x="289.0361" y="-193.5" font-family="Helvetica,sans-Serif" font-size="10.00" fill="#000000">lcd_get_pressed_buttons</text>
</a>
</g>
</g>
<!-- Node20&#45;&gt;Node23 -->
<g id="edge26" class="edge">
<title>Node20&#45;&gt;Node23</title>
<path fill="none" stroke="#191970" d="M189.3765,-209.0675C197.5989,-208.0306 206.2543,-206.9391 214.889,-205.8502"/>
<polygon fill="#191970" stroke="#191970" points="215.505,-209.3004 224.9885,-204.5767 214.6292,-202.3554 215.505,-209.3004"/>
</g>
<!-- Node25 -->
<g id="node26" class="node">
<title>Node25</title>
<g id="a_node26"><a xlink:href="lcd_8c.html#adabd3f7cdda45119604b488caf22bba8" target="_top" xlink:title="prints a string to a line on the lcd ">
<polygon fill="none" stroke="#000000" points="262.1372,-111.5 262.1372,-129.5 315.9351,-129.5 315.9351,-111.5 262.1372,-111.5"/>
<text text-anchor="middle" x="289.0361" y="-117.5" font-family="Helvetica,sans-Serif" font-size="10.00" fill="#000000">lcd_print</text>
</a>
</g>
</g>
<!-- Node20&#45;&gt;Node25 -->
<g id="edge29" class="edge">
<title>Node20&#45;&gt;Node25</title>
<path fill="none" stroke="#191970" d="M173.2265,-206.4865C178.8773,-204.113 184.4221,-201.1587 189.1621,-197.5 211.7039,-180.1008 202.7854,-162.111 225.1621,-144.5 233.1075,-138.2468 242.8549,-133.4955 252.3196,-129.9397"/>
<polygon fill="#191970" stroke="#191970" points="253.65,-133.1843 261.9931,-126.6541 251.3987,-126.5562 253.65,-133.1843"/>
</g>
<!-- Node22&#45;&gt;Node9 -->
<g id="edge25" class="edge">
<title>Node22&#45;&gt;Node9</title>
<path fill="none" stroke="#191970" d="M456.2857,-168.5512C470.0641,-173.7313 487.4361,-180.2623 501.9215,-185.7082"/>
<polygon fill="#191970" stroke="#191970" points="500.817,-189.0321 511.409,-189.2751 503.2803,-182.4798 500.817,-189.0321"/>
</g>
<!-- Node23&#45;&gt;Node22 -->
<g id="edge27" class="edge">
<title>Node23&#45;&gt;Node22</title>
<path fill="none" stroke="#191970" d="M324.0605,-187.4488C344.3574,-182.2035 370.0145,-175.5731 391.2443,-170.0867"/>
<polygon fill="#191970" stroke="#191970" points="392.1527,-173.467 400.9589,-167.5762 390.4012,-166.6897 392.1527,-173.467"/>
</g>
<!-- Node24 -->
<g id="node25" class="node">
<title>Node24</title>
<g id="a_node25"><a xlink:href="_a_p_i_8h.html#a040d36e5c81594fd05d5042f3e540aed" target="_top" xlink:title="lcdReadButtons">
<polygon fill="none" stroke="#000000" points="388.9102,-187.5 388.9102,-205.5 475.5107,-205.5 475.5107,-187.5 388.9102,-187.5"/>
<text text-anchor="middle" x="432.2104" y="-193.5" font-family="Helvetica,sans-Serif" font-size="10.00" fill="#000000">lcdReadButtons</text>
</a>
</g>
</g>
<!-- Node23&#45;&gt;Node24 -->
<g id="edge28" class="edge">
<title>Node23&#45;&gt;Node24</title>
<path fill="none" stroke="#191970" d="M353.0855,-196.5C361.5664,-196.5 370.19,-196.5 378.473,-196.5"/>
<polygon fill="#191970" stroke="#191970" points="378.7464,-200.0001 388.7463,-196.5 378.7463,-193.0001 378.7464,-200.0001"/>
</g>
<!-- Node25&#45;&gt;Node22 -->
<g id="edge30" class="edge">
<title>Node25&#45;&gt;Node22</title>
<path fill="none" stroke="#191970" d="M315.9661,-127.8356C337.1588,-133.6084 367.0454,-141.7493 391.2073,-148.3309"/>
<polygon fill="#191970" stroke="#191970" points="390.6016,-151.7934 401.1699,-151.0447 392.4414,-145.0395 390.6016,-151.7934"/>
</g>
<!-- Node26 -->
<g id="node27" class="node">
<title>Node26</title>
<g id="a_node27"><a xlink:href="_a_p_i_8h.html#aae51423c0e108729bbb4d26a1b265eb3" target="_top" xlink:title="lcdSetText">
<polygon fill="none" stroke="#000000" points="401.144,-113.5 401.144,-131.5 463.2769,-131.5 463.2769,-113.5 401.144,-113.5"/>
<text text-anchor="middle" x="432.2104" y="-119.5" font-family="Helvetica,sans-Serif" font-size="10.00" fill="#000000">lcdSetText</text>
</a>
</g>
</g>
<!-- Node25&#45;&gt;Node26 -->
<g id="edge31" class="edge">
<title>Node25&#45;&gt;Node26</title>
<path fill="none" stroke="#191970" d="M315.9661,-120.8762C336.9937,-121.1699 366.58,-121.5832 390.6414,-121.9193"/>
<polygon fill="#191970" stroke="#191970" points="390.8667,-125.4227 400.9147,-122.0628 390.9646,-118.4234 390.8667,-125.4227"/>
</g>
<!-- Node29 -->
<g id="node30" class="node">
<title>Node29</title>
<g id="a_node30"><a xlink:href="log_8c.html#afff22aff6749311a684a559cac3ac8bd" target="_top" xlink:title="log_info">
<polygon fill="none" stroke="#000000" points="263.5215,-56.5 263.5215,-74.5 314.5508,-74.5 314.5508,-56.5 263.5215,-56.5"/>
<text text-anchor="middle" x="289.0361" y="-62.5" font-family="Helvetica,sans-Serif" font-size="10.00" fill="#000000">log_info</text>
</a>
</g>
</g>
<!-- Node28&#45;&gt;Node29 -->
<g id="edge34" class="edge">
<title>Node28&#45;&gt;Node29</title>
<path fill="none" stroke="#191970" d="M163.9257,-97.0538C188.4934,-90.8577 225.8445,-81.4374 253.3425,-74.5022"/>
<polygon fill="#191970" stroke="#191970" points="254.5113,-77.8171 263.3517,-71.9778 252.7994,-71.0296 254.5113,-77.8171"/>
</g>
<!-- Node29&#45;&gt;Node9 -->
<g id="edge35" class="edge">
<title>Node29&#45;&gt;Node9</title>
<path fill="none" stroke="#191970" d="M314.7968,-57.4288C353.3135,-47.0386 426.6059,-33.9265 475.5107,-66.5 512.9751,-91.4535 525.0512,-147.4942 528.8848,-177.1868"/>
<polygon fill="#191970" stroke="#191970" points="525.4449,-177.9261 530.0159,-187.4841 532.4031,-177.1617 525.4449,-177.9261"/>
</g>
<!-- Node30 -->
<g id="node31" class="node">
<title>Node30</title>
<g id="a_node31"><a xlink:href="_a_p_i_8h.html#aeafd247b27813122cfee95e0cecf188b" target="_top" xlink:title="lcdSetBacklight">
<polygon fill="none" stroke="#000000" points="390.0259,-.5 390.0259,-18.5 474.395,-18.5 474.395,-.5 390.0259,-.5"/>
<text text-anchor="middle" x="432.2104" y="-6.5" font-family="Helvetica,sans-Serif" font-size="10.00" fill="#000000">lcdSetBacklight</text>
</a>
</g>
</g>
<!-- Node29&#45;&gt;Node30 -->
<g id="edge36" class="edge">
<title>Node29&#45;&gt;Node30</title>
<path fill="none" stroke="#191970" d="M312.3582,-56.378C335.9663,-47.1441 372.6831,-32.783 399.2582,-22.3887"/>
<polygon fill="#191970" stroke="#191970" points="400.8603,-25.5203 408.8984,-18.6181 398.3104,-19.0012 400.8603,-25.5203"/>
</g>
<!-- Node31 -->
<g id="node32" class="node">
<title>Node31</title>
<g id="a_node32"><a xlink:href="_a_p_i_8h.html#aa53f19724bcf9f7bf1b4468b5982553b" target="_top" xlink:title="lcdClear">
<polygon fill="none" stroke="#000000" points="405.8706,-76.5 405.8706,-94.5 458.5503,-94.5 458.5503,-76.5 405.8706,-76.5"/>
<text text-anchor="middle" x="432.2104" y="-82.5" font-family="Helvetica,sans-Serif" font-size="10.00" fill="#000000">lcdClear</text>
</a>
</g>
</g>
<!-- Node29&#45;&gt;Node31 -->
<g id="edge37" class="edge">
<title>Node29&#45;&gt;Node31</title>
<path fill="none" stroke="#191970" d="M314.6328,-69.0756C337.2548,-72.2357 370.5024,-76.88 395.8758,-80.4244"/>
<polygon fill="#191970" stroke="#191970" points="395.4786,-83.9028 405.8667,-81.82 396.4471,-76.9701 395.4786,-83.9028"/>
</g>
</g>
</svg>
        <g id="navigator" transform="translate(0 0)" fill="#404254">
                <rect fill="#f2f5e9" fill-opacity="0.5" stroke="#606060" stroke-width=".5" x="0" y="0" width="60" height="60"/>
                <use id="zoomplus" xlink:href="#zoomPlus" x="17" y="9" onmousedown="handleZoom(evt,'in')"/>
                <use id="zoomminus" xlink:href="#zoomMin" x="42" y="9" onmousedown="handleZoom(evt,'out')"/>
                <use id="reset" xlink:href="#resetDef" x="30" y="36" onmousedown="handleReset()"/>
                <g id="arrowUp" xlink:href="#dirArrow" transform="translate(30 24)" onmousedown="handlePan(0,-1)">
                  <use xlink:href="#rim" fill="#404040">
                        <set attributeName="fill" to="#808080" begin="arrowUp.mouseover" end="arrowUp.mouseout"/>
                  </use>
                  <path fill="none" stroke="white" stroke-width="1.5" d="M0,-3.0v7 M-2.5,-0.5L0,-3.0L2.5,-0.5"/>
                </g>
                <g id="arrowRight" xlink:href="#dirArrow" transform="rotate(90) translate(36 -43)" onmousedown="handlePan(1,0)">
                  <use xlink:href="#rim" fill="#404040">
                        <set attributeName="fill" to="#808080" begin="arrowRight.mouseover" end="arrowRight.mouseout"/>
                  </use>
                  <path fill="none" stroke="white" stroke-width="1.5" d="M0,-3.0v7 M-2.5,-0.5L0,-3.0L2.5,-0.5"/>
                </g>
                <g id="arrowDown" xlink:href="#dirArrow" transform="rotate(180) translate(-30 -48)" onmousedown="handlePan(0,1)">
                  <use xlink:href="#rim" fill="#404040">
                        <set attributeName="fill" to="#808080" begin="arrowDown.mouseover" end="arrowDown.mouseout"/>
                  </use>
                  <path fill="none" stroke="white" stroke-width="1.5" d="M0,-3.0v7 M-2.5,-0.5L0,-3.0L2.5,-0.5"/>
                </g>
                <g id="arrowLeft" xlink:href="#dirArrow" transform="rotate(270) translate(-36 17)" onmousedown="handlePan(-1,0)">
                  <use xlink:href="#rim" fill="#404040">
                        <set attributeName="fill" to="#808080" begin="arrowLeft.mouseover" end="arrowLeft.mouseout"/>
                  </use>
                  <path fill="none" stroke="white" stroke-width="1.5" d="M0,-3.0v7 M-2.5,-0.5L0,-3.0L2.5,-0.5"/>
                </g>
        </g>
        <svg viewBox="0 0 15 15" width="100%" height="30px" preserveAspectRatio="xMaxYMin meet">
         <g id="arrow_out" transform="scale(0.3 0.3)">
          <a xlink:href="init_8c_a25a40b6614565f755233080a384c35f1_cgraph_org.svg" target="_base">
           <rect id="button" ry="5" rx="5" y="6" x="6" height="38" width="38"
                fill="#f2f5e9" fill-opacity="0.5" stroke="#606060" stroke-width="1.0"/>
           <path id="arrow"
             d="M 11.500037,31.436501 C 11.940474,20.09759 22.043105,11.32322 32.158766,21.979434 L 37.068811,17.246167 C 37.068811,17.246167 37.088388,32 37.088388,32 L 22.160133,31.978069 C 22.160133,31.978069 26.997745,27.140456 26.997745,27.140456 C 18.528582,18.264221 13.291696,25.230495 11.500037,31.436501 z"
             style="fill:#404040;"/>
          </a>
         </g>
        </svg>
</svg>
