<?xml version="1.0" encoding="UTF-8" standalone="no"?>
<!DOCTYPE svg PUBLIC "-//W3C//DTD SVG 1.1//EN"
 "http://www.w3.org/Graphics/SVG/1.1/DTD/svg11.dtd">
<!-- Generated by graphviz version 2.40.1 (20161225.0304)
 -->
<!-- Title: src/init.c Pages: 1 -->
<svg width="649pt" height="302pt"
 viewBox="0.00 0.00 649.46 302.00" xmlns="http://www.w3.org/2000/svg" xmlns:xlink="http://www.w3.org/1999/xlink">
<g id="graph0" class="graph" transform="scale(1 1) rotate(0) translate(4 298)">
<title>src/init.c</title>
<!-- Node0 -->
<g id="node1" class="node">
<title>Node0</title>
<polygon fill="#bfbfbf" stroke="#000000" points="205.3924,-275.5 205.3924,-293.5 258.0623,-293.5 258.0623,-275.5 205.3924,-275.5"/>
<text text-anchor="middle" x="231.7274" y="-281.5" font-family="Helvetica,sans-Serif" font-size="10.00" fill="#000000">src/init.c</text>
</g>
<!-- Node1 -->
<g id="node2" class="node">
<title>Node1</title>
<g id="a_node2"><a xlink:href="main_8h.html" target="_top" xlink:title="Header file for global functions. ">
<polygon fill="none" stroke="#000000" points="557.7201,-110.5 557.7201,-128.5 603.7347,-128.5 603.7347,-110.5 557.7201,-110.5"/>
<text text-anchor="middle" x="580.7274" y="-116.5" font-family="Helvetica,sans-Serif" font-size="10.00" fill="#000000">main.h</text>
</a>
</g>
</g>
<!-- Node0&#45;&gt;Node1 -->
<g id="edge1" class="edge">
<title>Node0&#45;&gt;Node1</title>
<path fill="none" stroke="#191970" d="M258.3346,-282.5934C317.7296,-277.9243 459.0172,-264.4023 498.7274,-239 537.0863,-214.4621 562.191,-164.8961 573.6109,-137.9518"/>
<polygon fill="#191970" stroke="#191970" points="576.9175,-139.1113 577.4342,-128.5291 570.4311,-136.4794 576.9175,-139.1113"/>
</g>
<!-- Node5 -->
<g id="node6" class="node">
<title>Node5</title>
<polygon fill="none" stroke="#bfbfbf" points="81.661,-.5 81.661,-18.5 133.7938,-18.5 133.7938,-.5 81.661,-.5"/>
<text text-anchor="middle" x="107.7274" y="-6.5" font-family="Helvetica,sans-Serif" font-size="10.00" fill="#000000">stdarg.h</text>
</g>
<!-- Node0&#45;&gt;Node5 -->
<g id="edge29" class="edge">
<title>Node0&#45;&gt;Node5</title>
<path fill="none" stroke="#191970" d="M205.1566,-282.156C154.4415,-277.1581 46.4975,-263.8327 19.7274,-239 -2.1821,-218.6761 .7274,-204.3846 .7274,-174.5 .7274,-174.5 .7274,-174.5 .7274,-119.5 .7274,-74.3983 47.5183,-40.844 79.2158,-23.2877"/>
<polygon fill="#191970" stroke="#191970" points="80.9172,-26.3471 88.1019,-18.5606 77.6296,-20.1671 80.9172,-26.3471"/>
</g>
<!-- Node7 -->
<g id="node8" class="node">
<title>Node7</title>
<g id="a_node8"><a xlink:href="slew_8h.html" target="_top" xlink:title="Contains the slew rate controller wrapper for the motors. ">
<polygon fill="none" stroke="#000000" points="445.8285,-220.5 445.8285,-238.5 489.6263,-238.5 489.6263,-220.5 445.8285,-220.5"/>
<text text-anchor="middle" x="467.7274" y="-226.5" font-family="Helvetica,sans-Serif" font-size="10.00" fill="#000000">slew.h</text>
</a>
</g>
</g>
<!-- Node0&#45;&gt;Node7 -->
<g id="edge7" class="edge">
<title>Node0&#45;&gt;Node7</title>
<path fill="none" stroke="#191970" d="M258.3408,-278.2977C302.0485,-268.1116 388.8576,-247.8807 435.8037,-236.9399"/>
<polygon fill="#191970" stroke="#191970" points="436.7907,-240.3037 445.7353,-234.6253 435.2019,-233.4864 436.7907,-240.3037"/>
</g>
<!-- Node11 -->
<g id="node12" class="node">
<title>Node11</title>
<g id="a_node12"><a xlink:href="lcd_8h.html" target="_top" xlink:title="LCD wrapper functions and macros. ">
<polygon fill="none" stroke="#000000" points="217.1659,-110.5 217.1659,-128.5 254.2889,-128.5 254.2889,-110.5 217.1659,-110.5"/>
<text text-anchor="middle" x="235.7274" y="-116.5" font-family="Helvetica,sans-Serif" font-size="10.00" fill="#000000">lcd.h</text>
</a>
</g>
</g>
<!-- Node0&#45;&gt;Node11 -->
<g id="edge14" class="edge">
<title>Node0&#45;&gt;Node11</title>
<path fill="none" stroke="#191970" d="M210.8081,-275.4961C170.1545,-256.7007 87.1297,-211.1908 118.7274,-165 129.009,-149.9699 175.7224,-135.1742 206.9232,-126.7114"/>
<polygon fill="#191970" stroke="#191970" points="208.0604,-130.0312 216.8347,-124.093 206.2724,-123.2633 208.0604,-130.0312"/>
</g>
<!-- Node12 -->
<g id="node13" class="node">
<title>Node12</title>
<g id="a_node13"><a xlink:href="log_8h.html" target="_top" xlink:title="Contains logging functions. ">
<polygon fill="none" stroke="#000000" points="127.8851,-165.5 127.8851,-183.5 165.5697,-183.5 165.5697,-165.5 127.8851,-165.5"/>
<text text-anchor="middle" x="146.7274" y="-171.5" font-family="Helvetica,sans-Serif" font-size="10.00" fill="#000000">log.h</text>
</a>
</g>
</g>
<!-- Node0&#45;&gt;Node12 -->
<g id="edge16" class="edge">
<title>Node0&#45;&gt;Node12</title>
<path fill="none" stroke="#191970" d="M224.7715,-275.4982C210.638,-257.2079 178.3554,-215.4304 160.0457,-191.7354"/>
<polygon fill="#191970" stroke="#191970" points="162.6634,-189.3989 153.7794,-183.6261 157.1244,-193.6791 162.6634,-189.3989"/>
</g>
<!-- Node13 -->
<g id="node14" class="node">
<title>Node13</title>
<g id="a_node14"><a xlink:href="encoders_8h.html" target="_top" xlink:title="wrapper around encoder functions ">
<polygon fill="none" stroke="#000000" points="28.9886,-220.5 28.9886,-238.5 94.4662,-238.5 94.4662,-220.5 28.9886,-220.5"/>
<text text-anchor="middle" x="61.7274" y="-226.5" font-family="Helvetica,sans-Serif" font-size="10.00" fill="#000000">encoders.h</text>
</a>
</g>
</g>
<!-- Node0&#45;&gt;Node13 -->
<g id="edge19" class="edge">
<title>Node0&#45;&gt;Node13</title>
<path fill="none" stroke="#191970" d="M205.1649,-275.9063C176.8521,-266.7462 131.7735,-252.162 99.7134,-241.7896"/>
<polygon fill="#191970" stroke="#191970" points="100.3913,-238.3303 89.7994,-238.5821 98.2365,-244.9905 100.3913,-238.3303"/>
</g>
<!-- Node14 -->
<g id="node15" class="node">
<title>Node14</title>
<g id="a_node15"><a xlink:href="menu_8h.html" target="_top" xlink:title="Contains menu functionality and abstraction. ">
<polygon fill="none" stroke="#000000" points="253.0501,-220.5 253.0501,-238.5 302.4046,-238.5 302.4046,-220.5 253.0501,-220.5"/>
<text text-anchor="middle" x="277.7274" y="-226.5" font-family="Helvetica,sans-Serif" font-size="10.00" fill="#000000">menu.h</text>
</a>
</g>
</g>
<!-- Node0&#45;&gt;Node14 -->
<g id="edge21" class="edge">
<title>Node0&#45;&gt;Node14</title>
<path fill="none" stroke="#191970" d="M239.3233,-275.4179C245.8759,-267.5833 255.5156,-256.0575 263.4977,-246.5137"/>
<polygon fill="#191970" stroke="#191970" points="266.2356,-248.6957 269.9664,-238.7795 260.866,-244.2048 266.2356,-248.6957"/>
</g>
<!-- Node17 -->
<g id="node18" class="node">
<title>Node17</title>
<polygon fill="none" stroke="#bfbfbf" points="595.9959,-220.5 595.9959,-238.5 641.4588,-238.5 641.4588,-220.5 595.9959,-220.5"/>
<text text-anchor="middle" x="618.7274" y="-226.5" font-family="Helvetica,sans-Serif" font-size="10.00" fill="#000000">stdio.h</text>
</g>
<!-- Node0&#45;&gt;Node17 -->
<g id="edge30" class="edge">
<title>Node0&#45;&gt;Node17</title>
<path fill="none" stroke="#191970" d="M258.247,-282.1678C316.9151,-276.7652 461.9911,-262.0651 581.7274,-239 583.0095,-238.753 584.3132,-238.4879 585.6277,-238.2087"/>
<polygon fill="#191970" stroke="#191970" points="586.7814,-241.5342 595.7331,-235.8669 585.201,-234.7149 586.7814,-241.5342"/>
</g>
<!-- Node2 -->
<g id="node3" class="node">
<title>Node2</title>
<g id="a_node3"><a xlink:href="_a_p_i_8h.html" target="_top" xlink:title="Provides the high&#45;level user functionality intended for use by typical VEX Cortex programmers...">
<polygon fill="none" stroke="#000000" points="252.4984,-55.5 252.4984,-73.5 292.9564,-73.5 292.9564,-55.5 252.4984,-55.5"/>
<text text-anchor="middle" x="272.7274" y="-61.5" font-family="Helvetica,sans-Serif" font-size="10.00" fill="#000000">API.h</text>
</a>
</g>
</g>
<!-- Node1&#45;&gt;Node2 -->
<g id="edge2" class="edge">
<title>Node1&#45;&gt;Node2</title>
<path fill="none" stroke="#191970" d="M557.706,-113.2667C553.0932,-112.1089 548.2689,-110.9625 543.7274,-110 457.2017,-91.6629 353.8685,-76.0219 303.4524,-68.7893"/>
<polygon fill="#191970" stroke="#191970" points="303.6302,-65.2794 293.2367,-67.3353 302.6437,-72.2096 303.6302,-65.2794"/>
</g>
<!-- Node3 -->
<g id="node4" class="node">
<title>Node3</title>
<polygon fill="none" stroke="#bfbfbf" points="178.8851,-.5 178.8851,-18.5 226.5697,-18.5 226.5697,-.5 178.8851,-.5"/>
<text text-anchor="middle" x="202.7274" y="-6.5" font-family="Helvetica,sans-Serif" font-size="10.00" fill="#000000">stdlib.h</text>
</g>
<!-- Node2&#45;&gt;Node3 -->
<g id="edge3" class="edge">
<title>Node2&#45;&gt;Node3</title>
<path fill="none" stroke="#191970" d="M261.1683,-55.4179C250.6934,-47.1876 235.0342,-34.8839 222.561,-25.0836"/>
<polygon fill="#191970" stroke="#191970" points="224.5632,-22.2056 214.5376,-18.7795 220.2384,-27.7098 224.5632,-22.2056"/>
</g>
<!-- Node4 -->
<g id="node5" class="node">
<title>Node4</title>
<polygon fill="none" stroke="#bfbfbf" points="244.4344,-.5 244.4344,-18.5 301.0204,-18.5 301.0204,-.5 244.4344,-.5"/>
<text text-anchor="middle" x="272.7274" y="-6.5" font-family="Helvetica,sans-Serif" font-size="10.00" fill="#000000">stdbool.h</text>
</g>
<!-- Node2&#45;&gt;Node4 -->
<g id="edge4" class="edge">
<title>Node2&#45;&gt;Node4</title>
<path fill="none" stroke="#191970" d="M272.7274,-55.4179C272.7274,-48.2164 272.7274,-37.8962 272.7274,-28.8632"/>
<polygon fill="#191970" stroke="#191970" points="276.2275,-28.7794 272.7274,-18.7795 269.2275,-28.7795 276.2275,-28.7794"/>
</g>
<!-- Node2&#45;&gt;Node5 -->
<g id="edge5" class="edge">
<title>Node2&#45;&gt;Node5</title>
<path fill="none" stroke="#191970" d="M252.4951,-57.7559C225.4338,-48.7355 177.0026,-32.5917 143.6607,-21.4778"/>
<polygon fill="#191970" stroke="#191970" points="144.4316,-18.0455 133.838,-18.2035 142.218,-24.6863 144.4316,-18.0455"/>
</g>
<!-- Node6 -->
<g id="node7" class="node">
<title>Node6</title>
<polygon fill="none" stroke="#bfbfbf" points="318.6068,-.5 318.6068,-18.5 366.848,-18.5 366.848,-.5 318.6068,-.5"/>
<text text-anchor="middle" x="342.7274" y="-6.5" font-family="Helvetica,sans-Serif" font-size="10.00" fill="#000000">stdint.h</text>
</g>
<!-- Node2&#45;&gt;Node6 -->
<g id="edge6" class="edge">
<title>Node2&#45;&gt;Node6</title>
<path fill="none" stroke="#191970" d="M284.2865,-55.4179C294.7614,-47.1876 310.4206,-34.8839 322.8938,-25.0836"/>
<polygon fill="#191970" stroke="#191970" points="325.2163,-27.7098 330.9172,-18.7795 320.8916,-22.2056 325.2163,-27.7098"/>
</g>
<!-- Node7&#45;&gt;Node2 -->
<g id="edge8" class="edge">
<title>Node7&#45;&gt;Node2</title>
<path fill="none" stroke="#191970" d="M476.0699,-220.3423C494.687,-198.7849 535.8504,-144.0904 507.7274,-110 482.1384,-78.9813 360.9393,-68.8582 303.3098,-65.7647"/>
<polygon fill="#191970" stroke="#191970" points="303.1641,-62.2532 293.0021,-65.2505 302.8152,-69.2445 303.1641,-62.2532"/>
</g>
<!-- Node8 -->
<g id="node9" class="node">
<title>Node8</title>
<polygon fill="none" stroke="#bfbfbf" points="452.4417,-110.5 452.4417,-128.5 499.013,-128.5 499.013,-110.5 452.4417,-110.5"/>
<text text-anchor="middle" x="475.7274" y="-116.5" font-family="Helvetica,sans-Serif" font-size="10.00" fill="#000000">math.h</text>
</g>
<!-- Node7&#45;&gt;Node8 -->
<g id="edge9" class="edge">
<title>Node7&#45;&gt;Node8</title>
<path fill="none" stroke="#191970" d="M468.8916,-220.4514C470.0315,-211.2807 471.7371,-196.6763 472.7274,-184 473.9039,-168.9404 474.673,-151.864 475.1377,-139.0665"/>
<polygon fill="#191970" stroke="#191970" points="478.6481,-138.8077 475.4818,-128.6971 471.652,-138.5755 478.6481,-138.8077"/>
</g>
<!-- Node9 -->
<g id="node10" class="node">
<title>Node9</title>
<g id="a_node10"><a xlink:href="vlib_8h.html" target="_top" xlink:title="Contains misc helpful functions. ">
<polygon fill="none" stroke="#000000" points="424.055,-165.5 424.055,-183.5 463.3997,-183.5 463.3997,-165.5 424.055,-165.5"/>
<text text-anchor="middle" x="443.7274" y="-171.5" font-family="Helvetica,sans-Serif" font-size="10.00" fill="#000000">vlib.h</text>
</a>
</g>
</g>
<!-- Node7&#45;&gt;Node9 -->
<g id="edge10" class="edge">
<title>Node7&#45;&gt;Node9</title>
<path fill="none" stroke="#191970" d="M463.7643,-220.4179C460.5182,-212.9789 455.82,-202.2123 451.7888,-192.9742"/>
<polygon fill="#191970" stroke="#191970" points="454.984,-191.545 447.7766,-183.7795 448.5682,-194.3447 454.984,-191.545"/>
</g>
<!-- Node9&#45;&gt;Node2 -->
<g id="edge12" class="edge">
<title>Node9&#45;&gt;Node2</title>
<path fill="none" stroke="#191970" d="M437.6192,-165.3867C428.0246,-151.6855 408.183,-125.7148 385.7274,-110 360.2564,-92.175 326.7781,-79.8184 302.8868,-72.5273"/>
<polygon fill="#191970" stroke="#191970" points="303.8668,-69.1674 293.286,-69.7116 301.8968,-75.8845 303.8668,-69.1674"/>
</g>
<!-- Node9&#45;&gt;Node8 -->
<g id="edge11" class="edge">
<title>Node9&#45;&gt;Node8</title>
<path fill="none" stroke="#191970" d="M449.0115,-165.4179C453.3857,-157.8998 459.7373,-146.9829 465.15,-137.6799"/>
<polygon fill="#191970" stroke="#191970" points="468.3247,-139.1831 470.3284,-128.7795 462.2742,-135.6628 468.3247,-139.1831"/>
</g>
<!-- Node10 -->
<g id="node11" class="node">
<title>Node10</title>
<polygon fill="none" stroke="#bfbfbf" points="328.3309,-110.5 328.3309,-128.5 377.1239,-128.5 377.1239,-110.5 328.3309,-110.5"/>
<text text-anchor="middle" x="352.7274" y="-116.5" font-family="Helvetica,sans-Serif" font-size="10.00" fill="#000000">string.h</text>
</g>
<!-- Node9&#45;&gt;Node10 -->
<g id="edge13" class="edge">
<title>Node9&#45;&gt;Node10</title>
<path fill="none" stroke="#191970" d="M428.7006,-165.4179C414.4743,-156.8195 392.8921,-143.7754 376.3616,-133.7844"/>
<polygon fill="#191970" stroke="#191970" points="378.1452,-130.7729 367.7765,-128.5956 374.5244,-136.7637 378.1452,-130.7729"/>
</g>
<!-- Node11&#45;&gt;Node2 -->
<g id="edge15" class="edge">
<title>Node11&#45;&gt;Node2</title>
<path fill="none" stroke="#191970" d="M241.8372,-110.4179C247.0013,-102.7415 254.5491,-91.5217 260.8911,-82.0945"/>
<polygon fill="#191970" stroke="#191970" points="263.8071,-84.0303 266.4848,-73.7795 257.999,-80.1231 263.8071,-84.0303"/>
</g>
<!-- Node12&#45;&gt;Node2 -->
<g id="edge17" class="edge">
<title>Node12&#45;&gt;Node2</title>
<path fill="none" stroke="#191970" d="M154.4809,-165.1773C165.58,-152.1057 186.9581,-127.9243 207.7274,-110 220.7342,-98.7749 236.4963,-87.6872 249.2414,-79.2676"/>
<polygon fill="#191970" stroke="#191970" points="251.4229,-82.0243 257.906,-73.6445 247.6122,-76.1524 251.4229,-82.0243"/>
</g>
<!-- Node12&#45;&gt;Node11 -->
<g id="edge18" class="edge">
<title>Node12&#45;&gt;Node11</title>
<path fill="none" stroke="#191970" d="M161.4239,-165.4179C175.2088,-156.8992 196.0551,-144.0166 212.1622,-134.0627"/>
<polygon fill="#191970" stroke="#191970" points="214.3422,-136.83 221.009,-128.5956 210.6623,-130.8753 214.3422,-136.83"/>
</g>
<!-- Node13&#45;&gt;Node2 -->
<g id="edge20" class="edge">
<title>Node13&#45;&gt;Node2</title>
<path fill="none" stroke="#191970" d="M66.8702,-220.4659C74.6276,-207.3179 90.2822,-182.5665 107.7274,-165 147.9104,-124.5375 207.4954,-93.4927 242.9886,-77.2029"/>
<polygon fill="#191970" stroke="#191970" points="244.64,-80.2979 252.3245,-73.0041 241.7688,-73.9139 244.64,-80.2979"/>
</g>
<!-- Node14&#45;&gt;Node2 -->
<g id="edge23" class="edge">
<title>Node14&#45;&gt;Node2</title>
<path fill="none" stroke="#191970" d="M277.4442,-220.1561C276.6501,-193.9504 274.3897,-119.3557 273.3123,-83.8021"/>
<polygon fill="#191970" stroke="#191970" points="276.8088,-83.6308 273.0074,-73.7414 269.812,-83.8429 276.8088,-83.6308"/>
</g>
<!-- Node14&#45;&gt;Node9 -->
<g id="edge27" class="edge">
<title>Node14&#45;&gt;Node9</title>
<path fill="none" stroke="#191970" d="M302.4279,-221.427C328.1682,-212.9987 369.9197,-199.2849 414.0923,-184.5307"/>
<polygon fill="#191970" stroke="#191970" points="415.4758,-187.7586 423.8496,-181.2678 413.2558,-181.12 415.4758,-187.7586"/>
</g>
<!-- Node14&#45;&gt;Node10 -->
<g id="edge24" class="edge">
<title>Node14&#45;&gt;Node10</title>
<path fill="none" stroke="#191970" d="M284.6924,-220.187C291.469,-211.0588 301.992,-196.7046 310.7274,-184 321.4497,-168.4056 333.1627,-150.325 341.4886,-137.2818"/>
<polygon fill="#191970" stroke="#191970" points="344.4805,-139.0994 346.8899,-128.7822 338.5724,-135.3449 344.4805,-139.0994"/>
</g>
<!-- Node14&#45;&gt;Node11 -->
<g id="edge22" class="edge">
<title>Node14&#45;&gt;Node11</title>
<path fill="none" stroke="#191970" d="M274.2903,-220.4982C267.4298,-202.5302 251.9147,-161.8954 242.7928,-138.0046"/>
<polygon fill="#191970" stroke="#191970" points="246.0488,-136.7199 239.2119,-128.6261 239.5092,-139.2168 246.0488,-136.7199"/>
</g>
<!-- Node14&#45;&gt;Node12 -->
<g id="edge28" class="edge">
<title>Node14&#45;&gt;Node12</title>
<path fill="none" stroke="#191970" d="M256.0954,-220.4179C233.996,-211.1395 199.5661,-196.6842 175.2492,-186.4748"/>
<polygon fill="#191970" stroke="#191970" points="176.4081,-183.1655 165.8329,-182.5214 173.6983,-189.6197 176.4081,-183.1655"/>
</g>
<!-- Node15 -->
<g id="node16" class="node">
<title>Node15</title>
<polygon fill="none" stroke="#bfbfbf" points="183.1707,-165.5 183.1707,-183.5 230.284,-183.5 230.284,-165.5 183.1707,-165.5"/>
<text text-anchor="middle" x="206.7274" y="-171.5" font-family="Helvetica,sans-Serif" font-size="10.00" fill="#000000">limits.h</text>
</g>
<!-- Node14&#45;&gt;Node15 -->
<g id="edge25" class="edge">
<title>Node14&#45;&gt;Node15</title>
<path fill="none" stroke="#191970" d="M266.0032,-220.4179C255.3786,-212.1876 239.4957,-199.8839 226.8443,-190.0836"/>
<polygon fill="#191970" stroke="#191970" points="228.7552,-187.1365 218.7063,-183.7795 224.4684,-192.6704 228.7552,-187.1365"/>
</g>
<!-- Node16 -->
<g id="node17" class="node">
<title>Node16</title>
<polygon fill="none" stroke="#bfbfbf" points="363.1068,-165.5 363.1068,-183.5 406.348,-183.5 406.348,-165.5 363.1068,-165.5"/>
<text text-anchor="middle" x="384.7274" y="-171.5" font-family="Helvetica,sans-Serif" font-size="10.00" fill="#000000">float.h</text>
</g>
<!-- Node14&#45;&gt;Node16 -->
<g id="edge26" class="edge">
<title>Node14&#45;&gt;Node16</title>
<path fill="none" stroke="#191970" d="M295.3963,-220.4179C312.4337,-211.6603 338.4436,-198.2907 358.0113,-188.2326"/>
<polygon fill="#191970" stroke="#191970" points="359.7385,-191.2801 367.0323,-183.5956 356.5383,-185.0544 359.7385,-191.2801"/>
</g>
</g>
</svg>
