<?xml version="1.0" encoding="UTF-8" standalone="no"?>
<!DOCTYPE svg PUBLIC "-//W3C//DTD SVG 1.1//EN"
 "http://www.w3.org/Graphics/SVG/1.1/DTD/svg11.dtd">
<!-- Generated by graphviz version 2.40.1 (20161225.0304)
 -->
<!-- Title: src/init.c Pages: 1 -->
<!--zoomable 302 -->
<svg id="main" version="1.1" xmlns="http://www.w3.org/2000/svg" xmlns:xlink="http://www.w3.org/1999/xlink" xml:space="preserve" onload="init(evt)">
<style type="text/css"><![CDATA[
.edge:hover path { stroke: red; }
.edge:hover polygon { stroke: red; fill: red; }
]]></style>
<script type="text/javascript"><![CDATA[
var edges = document.getElementsByTagName('g');
if (edges && edges.length) {
  for (var i=0;i<edges.length;i++) {
    if (edges[i].id.substr(0,4)=='edge') {
      edges[i].setAttribute('class','edge');
    }
  }
}
]]></script>
        <defs>
                <circle id="rim" cx="0" cy="0" r="7"/>
                <circle id="rim2" cx="0" cy="0" r="3.5"/>
                <g id="zoomPlus">
                        <use xlink:href="#rim" fill="#404040">
                                <set attributeName="fill" to="#808080" begin="zoomplus.mouseover" end="zoomplus.mouseout"/>
                        </use>
                        <path d="M-4,0h8M0,-4v8" fill="none" stroke="white" stroke-width="1.5" pointer-events="none"/>
                </g>
                <g id="zoomMin">
                        <use xlink:href="#rim" fill="#404040">
                                <set attributeName="fill" to="#808080" begin="zoomminus.mouseover" end="zoomminus.mouseout"/>
                        </use>
                        <path d="M-4,0h8" fill="none" stroke="white" stroke-width="1.5" pointer-events="none"/>
                </g>
                <g id="dirArrow">
                        <path fill="none" stroke="white" stroke-width="1.5" d="M0,-3.0v7 M-2.5,-0.5L0,-3.0L2.5,-0.5"/>
                </g>
               <g id="resetDef">
                       <use xlink:href="#rim2" fill="#404040">
                               <set attributeName="fill" to="#808080" begin="reset.mouseover" end="reset.mouseout"/>
                       </use>
               </g>
        </defs>

<script type="text/javascript">
var viewWidth = 560;
var viewHeight = 302;
var sectionId = 'dynsection-0';
</script>
<script xlink:href="svgpan.js"/>
<svg id="graph" class="graph">
<g id="viewport">
<title>src/init.c</title>
<!-- Node0 -->
<g id="node1" class="node">
<title>Node0</title>
<polygon fill="#bfbfbf" stroke="#000000" points="265.5073,-275.5 265.5073,-293.5 318.1772,-293.5 318.1772,-275.5 265.5073,-275.5"/>
<text text-anchor="middle" x="291.8423" y="-281.5" font-family="Helvetica,sans-Serif" font-size="10.00" fill="#000000">src/init.c</text>
</g>
<!-- Node1 -->
<g id="node2" class="node">
<title>Node1</title>
<g id="a_node2"><a xlink:href="main_8h.html" target="_top" xlink:title="Header file for global functions. ">
<polygon fill="none" stroke="#000000" points="505.835,-110.5 505.835,-128.5 551.8496,-128.5 551.8496,-110.5 505.835,-110.5"/>
<text text-anchor="middle" x="528.8423" y="-116.5" font-family="Helvetica,sans-Serif" font-size="10.00" fill="#000000">main.h</text>
</a>
</g>
</g>
<!-- Node0&#45;&gt;Node1 -->
<g id="edge1" class="edge">
<title>Node0&#45;&gt;Node1</title>
<path fill="none" stroke="#191970" d="M318.3195,-281.594C366.0695,-275.8478 463.9633,-261.5979 488.8423,-239 517.6207,-212.8603 525.7198,-165.4296 527.982,-138.8617"/>
<polygon fill="#191970" stroke="#191970" points="531.4946,-138.7803 528.6509,-128.5742 524.5093,-138.326 531.4946,-138.7803"/>
</g>
<!-- Node7 -->
<g id="node8" class="node">
<title>Node7</title>
<g id="a_node8"><a xlink:href="slew_8h.html" target="_top" xlink:title="Contains the slew rate controller wrapper for the motors. ">
<polygon fill="none" stroke="#000000" points="341.9434,-220.5 341.9434,-238.5 385.7412,-238.5 385.7412,-220.5 341.9434,-220.5"/>
<text text-anchor="middle" x="363.8423" y="-226.5" font-family="Helvetica,sans-Serif" font-size="10.00" fill="#000000">slew.h</text>
</a>
</g>
</g>
<!-- Node0&#45;&gt;Node7 -->
<g id="edge7" class="edge">
<title>Node0&#45;&gt;Node7</title>
<path fill="none" stroke="#191970" d="M303.7316,-275.4179C314.5058,-267.1876 330.6125,-254.8839 343.442,-245.0836"/>
<polygon fill="#191970" stroke="#191970" points="345.8726,-247.6313 351.6946,-238.7795 341.6232,-242.0685 345.8726,-247.6313"/>
</g>
<!-- Node11 -->
<g id="node12" class="node">
<title>Node11</title>
<g id="a_node12"><a xlink:href="lcd_8h.html" target="_top" xlink:title="LCD wrapper functions and macros. ">
<polygon fill="none" stroke="#000000" points="69.2808,-110.5 69.2808,-128.5 106.4038,-128.5 106.4038,-110.5 69.2808,-110.5"/>
<text text-anchor="middle" x="87.8423" y="-116.5" font-family="Helvetica,sans-Serif" font-size="10.00" fill="#000000">lcd.h</text>
</a>
</g>
</g>
<!-- Node0&#45;&gt;Node11 -->
<g id="edge14" class="edge">
<title>Node0&#45;&gt;Node11</title>
<path fill="none" stroke="#191970" d="M265.0555,-277.5676C239.6324,-270.2809 200.9421,-257.3179 170.8423,-239 139.6589,-220.0227 129.9356,-214.4762 109.8423,-184 100.7859,-170.2638 95.0768,-152.4183 91.7508,-138.9812"/>
<polygon fill="#191970" stroke="#191970" points="95.0979,-137.9109 89.4963,-128.9179 88.2672,-139.4412 95.0979,-137.9109"/>
</g>
<!-- Node12 -->
<g id="node13" class="node">
<title>Node12</title>
<g id="a_node13"><a xlink:href="log_8h.html" target="_top" xlink:title="Contains logging functions. ">
<polygon fill="none" stroke="#000000" points="0,-165.5 0,-183.5 37.6846,-183.5 37.6846,-165.5 0,-165.5"/>
<text text-anchor="middle" x="18.8423" y="-171.5" font-family="Helvetica,sans-Serif" font-size="10.00" fill="#000000">log.h</text>
</a>
</g>
</g>
<!-- Node0&#45;&gt;Node12 -->
<g id="edge16" class="edge">
<title>Node0&#45;&gt;Node12</title>
<path fill="none" stroke="#191970" d="M265.2241,-282.3897C210.0094,-277.5516 85.3673,-264.0979 51.8423,-239 36.9334,-227.8387 28.2313,-208.0122 23.5436,-193.2774"/>
<polygon fill="#191970" stroke="#191970" points="26.9069,-192.3084 20.8083,-183.6448 20.1731,-194.2205 26.9069,-192.3084"/>
</g>
<!-- Node13 -->
<g id="node14" class="node">
<title>Node13</title>
<g id="a_node14"><a xlink:href="encoders_8h.html" target="_top" xlink:title="wrapper around encoder functions ">
<polygon fill="none" stroke="#000000" points="414.1035,-220.5 414.1035,-238.5 479.5811,-238.5 479.5811,-220.5 414.1035,-220.5"/>
<text text-anchor="middle" x="446.8423" y="-226.5" font-family="Helvetica,sans-Serif" font-size="10.00" fill="#000000">encoders.h</text>
</a>
</g>
</g>
<!-- Node0&#45;&gt;Node13 -->
<g id="edge19" class="edge">
<title>Node0&#45;&gt;Node13</title>
<path fill="none" stroke="#191970" d="M317.4374,-275.4179C343.2043,-266.2748 383.1384,-252.1046 411.8291,-241.924"/>
<polygon fill="#191970" stroke="#191970" points="413.213,-245.1469 421.4668,-238.5042 410.872,-238.5499 413.213,-245.1469"/>
</g>
<!-- Node14 -->
<g id="node15" class="node">
<title>Node14</title>
<g id="a_node15"><a xlink:href="menu_8h.html" target="_top" xlink:title="Contains menu functionality and abstraction. ">
<polygon fill="none" stroke="#000000" points="180.165,-220.5 180.165,-238.5 229.5195,-238.5 229.5195,-220.5 180.165,-220.5"/>
<text text-anchor="middle" x="204.8423" y="-226.5" font-family="Helvetica,sans-Serif" font-size="10.00" fill="#000000">menu.h</text>
</a>
</g>
</g>
<!-- Node0&#45;&gt;Node14 -->
<g id="edge21" class="edge">
<title>Node0&#45;&gt;Node14</title>
<path fill="none" stroke="#191970" d="M277.476,-275.4179C264.0009,-266.8992 243.623,-254.0166 227.8779,-244.0627"/>
<polygon fill="#191970" stroke="#191970" points="229.5528,-240.9808 219.2299,-238.5956 225.8122,-246.8977 229.5528,-240.9808"/>
</g>
<!-- Node2 -->
<g id="node3" class="node">
<title>Node2</title>
<g id="a_node3"><a xlink:href="_a_p_i_8h.html" target="_top" xlink:title="Provides the high&#45;level user functionality intended for use by typical VEX Cortex programmers...">
<polygon fill="none" stroke="#000000" points="317.6133,-55.5 317.6133,-73.5 358.0713,-73.5 358.0713,-55.5 317.6133,-55.5"/>
<text text-anchor="middle" x="337.8423" y="-61.5" font-family="Helvetica,sans-Serif" font-size="10.00" fill="#000000">API.h</text>
</a>
</g>
</g>
<!-- Node1&#45;&gt;Node2 -->
<g id="edge2" class="edge">
<title>Node1&#45;&gt;Node2</title>
<path fill="none" stroke="#191970" d="M505.8032,-112.8657C471.4308,-102.9679 406.6775,-84.3216 368.3921,-73.2971"/>
<polygon fill="#191970" stroke="#191970" points="368.9209,-69.8072 358.3428,-70.4033 366.9838,-76.5338 368.9209,-69.8072"/>
</g>
<!-- Node3 -->
<g id="node4" class="node">
<title>Node3</title>
<polygon fill="none" stroke="#bfbfbf" points="208,-.5 208,-18.5 255.6846,-18.5 255.6846,-.5 208,-.5"/>
<text text-anchor="middle" x="231.8423" y="-6.5" font-family="Helvetica,sans-Serif" font-size="10.00" fill="#000000">stdlib.h</text>
</g>
<!-- Node2&#45;&gt;Node3 -->
<g id="edge3" class="edge">
<title>Node2&#45;&gt;Node3</title>
<path fill="none" stroke="#191970" d="M320.3385,-55.4179C303.4603,-46.6603 277.6935,-33.2907 258.3087,-23.2326"/>
<polygon fill="#191970" stroke="#191970" points="259.8603,-20.0946 249.372,-18.5956 256.6363,-26.308 259.8603,-20.0946"/>
</g>
<!-- Node4 -->
<g id="node5" class="node">
<title>Node4</title>
<polygon fill="none" stroke="#bfbfbf" points="273.5493,-.5 273.5493,-18.5 330.1353,-18.5 330.1353,-.5 273.5493,-.5"/>
<text text-anchor="middle" x="301.8423" y="-6.5" font-family="Helvetica,sans-Serif" font-size="10.00" fill="#000000">stdbool.h</text>
</g>
<!-- Node2&#45;&gt;Node4 -->
<g id="edge4" class="edge">
<title>Node2&#45;&gt;Node4</title>
<path fill="none" stroke="#191970" d="M331.8976,-55.4179C326.9249,-47.8207 319.6804,-36.7527 313.5499,-27.3866"/>
<polygon fill="#191970" stroke="#191970" points="316.3212,-25.2297 307.9161,-18.7795 310.4643,-29.0633 316.3212,-25.2297"/>
</g>
<!-- Node5 -->
<g id="node6" class="node">
<title>Node5</title>
<polygon fill="none" stroke="#bfbfbf" points="347.7759,-.5 347.7759,-18.5 399.9087,-18.5 399.9087,-.5 347.7759,-.5"/>
<text text-anchor="middle" x="373.8423" y="-6.5" font-family="Helvetica,sans-Serif" font-size="10.00" fill="#000000">stdarg.h</text>
</g>
<!-- Node2&#45;&gt;Node5 -->
<g id="edge5" class="edge">
<title>Node2&#45;&gt;Node5</title>
<path fill="none" stroke="#191970" d="M343.787,-55.4179C348.7597,-47.8207 356.0042,-36.7527 362.1347,-27.3866"/>
<polygon fill="#191970" stroke="#191970" points="365.2203,-29.0633 367.7685,-18.7795 359.3634,-25.2297 365.2203,-29.0633"/>
</g>
<!-- Node6 -->
<g id="node7" class="node">
<title>Node6</title>
<polygon fill="none" stroke="#bfbfbf" points="417.7217,-.5 417.7217,-18.5 465.9629,-18.5 465.9629,-.5 417.7217,-.5"/>
<text text-anchor="middle" x="441.8423" y="-6.5" font-family="Helvetica,sans-Serif" font-size="10.00" fill="#000000">stdint.h</text>
</g>
<!-- Node2&#45;&gt;Node6 -->
<g id="edge6" class="edge">
<title>Node2&#45;&gt;Node6</title>
<path fill="none" stroke="#191970" d="M355.0158,-55.4179C371.5002,-46.7001 396.6265,-33.4122 415.6155,-23.3699"/>
<polygon fill="#191970" stroke="#191970" points="417.4396,-26.3646 424.6433,-18.5956 414.1671,-20.1767 417.4396,-26.3646"/>
</g>
<!-- Node7&#45;&gt;Node2 -->
<g id="edge8" class="edge">
<title>Node7&#45;&gt;Node2</title>
<path fill="none" stroke="#191970" d="M374.5279,-220.2188C396.7786,-199.736 444.1503,-149.3578 420.8423,-110 409.4148,-90.7035 386.5833,-79.0501 367.7542,-72.3746"/>
<polygon fill="#191970" stroke="#191970" points="368.6714,-68.9928 358.0795,-69.2423 366.5152,-75.6524 368.6714,-68.9928"/>
</g>
<!-- Node8 -->
<g id="node9" class="node">
<title>Node8</title>
<polygon fill="none" stroke="#bfbfbf" points="365.5566,-110.5 365.5566,-128.5 412.1279,-128.5 412.1279,-110.5 365.5566,-110.5"/>
<text text-anchor="middle" x="388.8423" y="-116.5" font-family="Helvetica,sans-Serif" font-size="10.00" fill="#000000">math.h</text>
</g>
<!-- Node7&#45;&gt;Node8 -->
<g id="edge9" class="edge">
<title>Node7&#45;&gt;Node8</title>
<path fill="none" stroke="#191970" d="M368.6261,-220.3715C373.1014,-211.3801 379.5726,-197.1242 382.8423,-184 386.5432,-169.1451 388.0047,-151.8509 388.562,-138.9118"/>
<polygon fill="#191970" stroke="#191970" points="392.0628,-138.9296 388.8525,-128.8329 385.0658,-138.7278 392.0628,-138.9296"/>
</g>
<!-- Node9 -->
<g id="node10" class="node">
<title>Node9</title>
<g id="a_node10"><a xlink:href="vlib_8h.html" target="_top" xlink:title="Contains misc helpful functions. ">
<polygon fill="none" stroke="#000000" points="334.1699,-165.5 334.1699,-183.5 373.5146,-183.5 373.5146,-165.5 334.1699,-165.5"/>
<text text-anchor="middle" x="353.8423" y="-171.5" font-family="Helvetica,sans-Serif" font-size="10.00" fill="#000000">vlib.h</text>
</a>
</g>
</g>
<!-- Node7&#45;&gt;Node9 -->
<g id="edge10" class="edge">
<title>Node7&#45;&gt;Node9</title>
<path fill="none" stroke="#191970" d="M362.191,-220.4179C360.8816,-213.2164 359.0052,-202.8962 357.3629,-193.8632"/>
<polygon fill="#191970" stroke="#191970" points="360.7619,-192.992 355.5295,-183.7795 353.8748,-194.2443 360.7619,-192.992"/>
</g>
<!-- Node9&#45;&gt;Node2 -->
<g id="edge12" class="edge">
<title>Node9&#45;&gt;Node2</title>
<path fill="none" stroke="#191970" d="M352.5329,-165.4982C349.9428,-147.6913 344.1146,-107.6225 340.628,-83.6515"/>
<polygon fill="#191970" stroke="#191970" points="344.0728,-83.0182 339.1697,-73.6261 337.1457,-84.0258 344.0728,-83.0182"/>
</g>
<!-- Node9&#45;&gt;Node8 -->
<g id="edge11" class="edge">
<title>Node9&#45;&gt;Node8</title>
<path fill="none" stroke="#191970" d="M359.6218,-165.4179C364.4564,-157.8207 371.4997,-146.7527 377.4599,-137.3866"/>
<polygon fill="#191970" stroke="#191970" points="380.5212,-139.0952 382.9372,-128.7795 374.6156,-135.337 380.5212,-139.0952"/>
</g>
<!-- Node10 -->
<g id="node11" class="node">
<title>Node10</title>
<polygon fill="none" stroke="#bfbfbf" points="215.4458,-110.5 215.4458,-128.5 264.2388,-128.5 264.2388,-110.5 215.4458,-110.5"/>
<text text-anchor="middle" x="239.8423" y="-116.5" font-family="Helvetica,sans-Serif" font-size="10.00" fill="#000000">string.h</text>
</g>
<!-- Node9&#45;&gt;Node10 -->
<g id="edge13" class="edge">
<title>Node9&#45;&gt;Node10</title>
<path fill="none" stroke="#191970" d="M335.0175,-165.4179C316.7005,-156.5807 288.6494,-143.0473 267.7393,-132.9591"/>
<polygon fill="#191970" stroke="#191970" points="269.2225,-129.7887 258.695,-128.5956 266.1808,-136.0933 269.2225,-129.7887"/>
</g>
<!-- Node11&#45;&gt;Node2 -->
<g id="edge15" class="edge">
<title>Node11&#45;&gt;Node2</title>
<path fill="none" stroke="#191970" d="M106.5461,-114.9769C113.2557,-113.3757 120.8818,-111.5804 127.8423,-110 191.7608,-95.4867 266.8641,-79.4619 307.6885,-70.8373"/>
<polygon fill="#191970" stroke="#191970" points="308.4782,-74.2478 317.5404,-68.7591 307.0333,-67.3985 308.4782,-74.2478"/>
</g>
<!-- Node12&#45;&gt;Node2 -->
<g id="edge17" class="edge">
<title>Node12&#45;&gt;Node2</title>
<path fill="none" stroke="#191970" d="M21.9121,-165.2553C27.2,-150.8859 39.4661,-123.4491 59.8423,-110 100.1632,-83.3867 243.8282,-70.7512 307.3082,-66.3697"/>
<polygon fill="#191970" stroke="#191970" points="307.7398,-69.8487 317.4848,-65.691 307.274,-62.8643 307.7398,-69.8487"/>
</g>
<!-- Node12&#45;&gt;Node11 -->
<g id="edge18" class="edge">
<title>Node12&#45;&gt;Node11</title>
<path fill="none" stroke="#191970" d="M30.2362,-165.4179C40.5615,-157.1876 55.997,-144.8839 68.292,-135.0836"/>
<polygon fill="#191970" stroke="#191970" points="70.5626,-137.7495 76.2008,-128.7795 66.1994,-132.2757 70.5626,-137.7495"/>
</g>
<!-- Node13&#45;&gt;Node2 -->
<g id="edge20" class="edge">
<title>Node13&#45;&gt;Node2</title>
<path fill="none" stroke="#191970" d="M449.1235,-220.3963C453.9333,-198.9553 462.8069,-144.4942 438.8423,-110 422.6885,-86.7485 391.7135,-75.1924 368.3055,-69.5698"/>
<polygon fill="#191970" stroke="#191970" points="368.9972,-66.1385 358.4832,-67.4448 367.5169,-72.9802 368.9972,-66.1385"/>
</g>
<!-- Node14&#45;&gt;Node2 -->
<g id="edge23" class="edge">
<title>Node14&#45;&gt;Node2</title>
<path fill="none" stroke="#191970" d="M201.3771,-220.2531C198.1727,-211.1739 193.6427,-196.8549 191.8423,-184 187.1878,-150.7666 183.9342,-134.5223 206.8423,-110 233.0437,-81.9523 277.4144,-71.1923 307.1638,-67.0656"/>
<polygon fill="#191970" stroke="#191970" points="307.8952,-70.5027 317.4018,-65.8256 307.0535,-63.5534 307.8952,-70.5027"/>
</g>
<!-- Node14&#45;&gt;Node9 -->
<g id="edge27" class="edge">
<title>Node14&#45;&gt;Node9</title>
<path fill="none" stroke="#191970" d="M229.4466,-220.4179C255.5067,-210.7984 296.6416,-195.6144 324.4039,-185.3665"/>
<polygon fill="#191970" stroke="#191970" points="325.8052,-188.5802 333.9744,-181.8338 323.3811,-182.0133 325.8052,-188.5802"/>
</g>
<!-- Node14&#45;&gt;Node10 -->
<g id="edge24" class="edge">
<title>Node14&#45;&gt;Node10</title>
<path fill="none" stroke="#191970" d="M201.5117,-220.3899C197.3692,-207.5707 191.6648,-183.6874 198.8423,-165 203.176,-153.7166 211.7449,-143.4827 219.9333,-135.5908"/>
<polygon fill="#191970" stroke="#191970" points="222.4126,-138.0686 227.5168,-128.7843 217.7369,-132.8591 222.4126,-138.0686"/>
</g>
<!-- Node14&#45;&gt;Node11 -->
<g id="edge22" class="edge">
<title>Node14&#45;&gt;Node11</title>
<path fill="none" stroke="#191970" d="M183.7231,-220.4619C167.1218,-212.599 144.1541,-199.9664 127.8423,-184 114.2034,-170.6499 103.1931,-151.7586 96.2031,-137.8702"/>
<polygon fill="#191970" stroke="#191970" points="99.3278,-136.2916 91.8438,-128.7922 93.0176,-139.3218 99.3278,-136.2916"/>
</g>
<!-- Node14&#45;&gt;Node12 -->
<g id="edge28" class="edge">
<title>Node14&#45;&gt;Node12</title>
<path fill="none" stroke="#191970" d="M180.1429,-222.1964C145.8753,-212.0635 84.0347,-193.7773 47.6896,-183.0301"/>
<polygon fill="#191970" stroke="#191970" points="48.3048,-179.5623 37.7228,-180.0829 46.3199,-186.275 48.3048,-179.5623"/>
</g>
<!-- Node15 -->
<g id="node16" class="node">
<title>Node15</title>
<polygon fill="none" stroke="#bfbfbf" points="269.2856,-165.5 269.2856,-183.5 316.3989,-183.5 316.3989,-165.5 269.2856,-165.5"/>
<text text-anchor="middle" x="292.8423" y="-171.5" font-family="Helvetica,sans-Serif" font-size="10.00" fill="#000000">limits.h</text>
</g>
<!-- Node14&#45;&gt;Node15 -->
<g id="edge25" class="edge">
<title>Node14&#45;&gt;Node15</title>
<path fill="none" stroke="#191970" d="M219.3737,-220.4179C233.0036,-211.8992 253.6158,-199.0166 269.5419,-189.0627"/>
<polygon fill="#191970" stroke="#191970" points="271.6643,-191.8637 278.2893,-183.5956 267.9543,-185.9277 271.6643,-191.8637"/>
</g>
<!-- Node16 -->
<g id="node17" class="node">
<title>Node16</title>
<polygon fill="none" stroke="#bfbfbf" points="208.2217,-165.5 208.2217,-183.5 251.4629,-183.5 251.4629,-165.5 208.2217,-165.5"/>
<text text-anchor="middle" x="229.8423" y="-171.5" font-family="Helvetica,sans-Serif" font-size="10.00" fill="#000000">float.h</text>
</g>
<!-- Node14&#45;&gt;Node16 -->
<g id="edge26" class="edge">
<title>Node14&#45;&gt;Node16</title>
<path fill="none" stroke="#191970" d="M208.9705,-220.4179C212.3519,-212.9789 217.2458,-202.2123 221.4449,-192.9742"/>
<polygon fill="#191970" stroke="#191970" points="224.6725,-194.3315 225.6244,-183.7795 218.3,-191.4348 224.6725,-194.3315"/>
</g>
</g>
</svg>
        <g id="navigator" transform="translate(0 0)" fill="#404254">
                <rect fill="#f2f5e9" fill-opacity="0.5" stroke="#606060" stroke-width=".5" x="0" y="0" width="60" height="60"/>
                <use id="zoomplus" xlink:href="#zoomPlus" x="17" y="9" onmousedown="handleZoom(evt,'in')"/>
                <use id="zoomminus" xlink:href="#zoomMin" x="42" y="9" onmousedown="handleZoom(evt,'out')"/>
                <use id="reset" xlink:href="#resetDef" x="30" y="36" onmousedown="handleReset()"/>
                <g id="arrowUp" xlink:href="#dirArrow" transform="translate(30 24)" onmousedown="handlePan(0,-1)">
                  <use xlink:href="#rim" fill="#404040">
                        <set attributeName="fill" to="#808080" begin="arrowUp.mouseover" end="arrowUp.mouseout"/>
                  </use>
                  <path fill="none" stroke="white" stroke-width="1.5" d="M0,-3.0v7 M-2.5,-0.5L0,-3.0L2.5,-0.5"/>
                </g>
                <g id="arrowRight" xlink:href="#dirArrow" transform="rotate(90) translate(36 -43)" onmousedown="handlePan(1,0)">
                  <use xlink:href="#rim" fill="#404040">
                        <set attributeName="fill" to="#808080" begin="arrowRight.mouseover" end="arrowRight.mouseout"/>
                  </use>
                  <path fill="none" stroke="white" stroke-width="1.5" d="M0,-3.0v7 M-2.5,-0.5L0,-3.0L2.5,-0.5"/>
                </g>
                <g id="arrowDown" xlink:href="#dirArrow" transform="rotate(180) translate(-30 -48)" onmousedown="handlePan(0,1)">
                  <use xlink:href="#rim" fill="#404040">
                        <set attributeName="fill" to="#808080" begin="arrowDown.mouseover" end="arrowDown.mouseout"/>
                  </use>
                  <path fill="none" stroke="white" stroke-width="1.5" d="M0,-3.0v7 M-2.5,-0.5L0,-3.0L2.5,-0.5"/>
                </g>
                <g id="arrowLeft" xlink:href="#dirArrow" transform="rotate(270) translate(-36 17)" onmousedown="handlePan(-1,0)">
                  <use xlink:href="#rim" fill="#404040">
                        <set attributeName="fill" to="#808080" begin="arrowLeft.mouseover" end="arrowLeft.mouseout"/>
                  </use>
                  <path fill="none" stroke="white" stroke-width="1.5" d="M0,-3.0v7 M-2.5,-0.5L0,-3.0L2.5,-0.5"/>
                </g>
        </g>
        <svg viewBox="0 0 15 15" width="100%" height="30px" preserveAspectRatio="xMaxYMin meet">
         <g id="arrow_out" transform="scale(0.3 0.3)">
          <a xlink:href="init_8c__incl_org.svg" target="_base">
           <rect id="button" ry="5" rx="5" y="6" x="6" height="38" width="38"
                fill="#f2f5e9" fill-opacity="0.5" stroke="#606060" stroke-width="1.0"/>
           <path id="arrow"
             d="M 11.500037,31.436501 C 11.940474,20.09759 22.043105,11.32322 32.158766,21.979434 L 37.068811,17.246167 C 37.068811,17.246167 37.088388,32 37.088388,32 L 22.160133,31.978069 C 22.160133,31.978069 26.997745,27.140456 26.997745,27.140456 C 18.528582,18.264221 13.291696,25.230495 11.500037,31.436501 z"
             style="fill:#404040;"/>
          </a>
         </g>
        </svg>
</svg>
