<?xml version="1.0" encoding="UTF-8" standalone="no"?>
<!DOCTYPE svg PUBLIC "-//W3C//DTD SVG 1.1//EN"
 "http://www.w3.org/Graphics/SVG/1.1/DTD/svg11.dtd">
<!-- Generated by graphviz version 2.40.1 (20161225.0304)
 -->
<!-- Title: src/init.c Pages: 1 -->
<svg width="338pt" height="247pt"
 viewBox="0.00 0.00 338.29 247.00" xmlns="http://www.w3.org/2000/svg" xmlns:xlink="http://www.w3.org/1999/xlink">
<g id="graph0" class="graph" transform="scale(1 1) rotate(0) translate(4 243)">
<title>src/init.c</title>
<!-- Node0 -->
<g id="node1" class="node">
<title>Node0</title>
<polygon fill="#bfbfbf" stroke="#000000" points="151.9507,-220.5 151.9507,-238.5 204.6206,-238.5 204.6206,-220.5 151.9507,-220.5"/>
<text text-anchor="middle" x="178.2856" y="-226.5" font-family="Helvetica,sans-Serif" font-size="10.00" fill="#000000">src/init.c</text>
</g>
<!-- Node1 -->
<g id="node2" class="node">
<title>Node1</title>
<g id="a_node2"><a xlink:href="main_8h.html" target="_top" xlink:title="Header file for global functions. ">
<polygon fill="none" stroke="#000000" points="284.2783,-110.5 284.2783,-128.5 330.293,-128.5 330.293,-110.5 284.2783,-110.5"/>
<text text-anchor="middle" x="307.2856" y="-116.5" font-family="Helvetica,sans-Serif" font-size="10.00" fill="#000000">main.h</text>
</a>
</g>
</g>
<!-- Node0&#45;&gt;Node1 -->
<g id="edge1" class="edge">
<title>Node0&#45;&gt;Node1</title>
<path fill="none" stroke="#191970" d="M204.8482,-225.6464C230.381,-220.5422 268.2488,-209.0593 290.2856,-184 301.2679,-171.5115 305.2784,-152.7368 306.683,-138.6588"/>
<polygon fill="#191970" stroke="#191970" points="310.1818,-138.7902 307.3343,-128.5852 303.1963,-138.3385 310.1818,-138.7902"/>
</g>
<!-- Node7 -->
<g id="node8" class="node">
<title>Node7</title>
<g id="a_node8"><a xlink:href="slew_8h.html" target="_top" xlink:title="Contains the slew rate controller wrapper for the motors. ">
<polygon fill="none" stroke="#000000" points="58.3867,-165.5 58.3867,-183.5 102.1846,-183.5 102.1846,-165.5 58.3867,-165.5"/>
<text text-anchor="middle" x="80.2856" y="-171.5" font-family="Helvetica,sans-Serif" font-size="10.00" fill="#000000">slew.h</text>
</a>
</g>
</g>
<!-- Node0&#45;&gt;Node7 -->
<g id="edge7" class="edge">
<title>Node0&#45;&gt;Node7</title>
<path fill="none" stroke="#191970" d="M162.1029,-220.4179C146.6404,-211.7399 123.1089,-198.5334 105.2448,-188.5077"/>
<polygon fill="#191970" stroke="#191970" points="106.9259,-185.4377 96.4924,-183.5956 103.4999,-191.542 106.9259,-185.4377"/>
</g>
<!-- Node11 -->
<g id="node12" class="node">
<title>Node11</title>
<g id="a_node12"><a xlink:href="lcd_8h.html" target="_top" xlink:title="LCD wrapper functions and macros. ">
<polygon fill="none" stroke="#000000" points="147.7241,-110.5 147.7241,-128.5 184.8472,-128.5 184.8472,-110.5 147.7241,-110.5"/>
<text text-anchor="middle" x="166.2856" y="-116.5" font-family="Helvetica,sans-Serif" font-size="10.00" fill="#000000">lcd.h</text>
</a>
</g>
</g>
<!-- Node0&#45;&gt;Node11 -->
<g id="edge14" class="edge">
<title>Node0&#45;&gt;Node11</title>
<path fill="none" stroke="#191970" d="M170.61,-220.4689C163.7617,-211.7727 154.2263,-197.9224 150.2856,-184 145.922,-168.5832 151.0013,-150.9117 156.5625,-137.9686"/>
<polygon fill="#191970" stroke="#191970" points="159.8194,-139.2695 160.9546,-128.7357 153.4982,-136.2625 159.8194,-139.2695"/>
</g>
<!-- Node12 -->
<g id="node13" class="node">
<title>Node12</title>
<g id="a_node13"><a xlink:href="log_8h.html" target="_top" xlink:title="Contains logging functions. ">
<polygon fill="none" stroke="#000000" points="159.4434,-165.5 159.4434,-183.5 197.1279,-183.5 197.1279,-165.5 159.4434,-165.5"/>
<text text-anchor="middle" x="178.2856" y="-171.5" font-family="Helvetica,sans-Serif" font-size="10.00" fill="#000000">log.h</text>
</a>
</g>
</g>
<!-- Node0&#45;&gt;Node12 -->
<g id="edge16" class="edge">
<title>Node0&#45;&gt;Node12</title>
<path fill="none" stroke="#191970" d="M178.2856,-220.4179C178.2856,-213.2164 178.2856,-202.8962 178.2856,-193.8632"/>
<polygon fill="#191970" stroke="#191970" points="181.7857,-193.7794 178.2856,-183.7795 174.7857,-193.7795 181.7857,-193.7794"/>
</g>
<!-- Node13 -->
<g id="node14" class="node">
<title>Node13</title>
<g id="a_node14"><a xlink:href="encoders_8h.html" target="_top" xlink:title="wrapper around encoder functions ">
<polygon fill="none" stroke="#000000" points="215.5469,-165.5 215.5469,-183.5 281.0244,-183.5 281.0244,-165.5 215.5469,-165.5"/>
<text text-anchor="middle" x="248.2856" y="-171.5" font-family="Helvetica,sans-Serif" font-size="10.00" fill="#000000">encoders.h</text>
</a>
</g>
</g>
<!-- Node0&#45;&gt;Node13 -->
<g id="edge19" class="edge">
<title>Node0&#45;&gt;Node13</title>
<path fill="none" stroke="#191970" d="M189.8447,-220.4179C200.3196,-212.1876 215.9789,-199.8839 228.452,-190.0836"/>
<polygon fill="#191970" stroke="#191970" points="230.7746,-192.7098 236.4754,-183.7795 226.4498,-187.2056 230.7746,-192.7098"/>
</g>
<!-- Node2 -->
<g id="node3" class="node">
<title>Node2</title>
<g id="a_node3"><a xlink:href="_a_p_i_8h.html" target="_top" xlink:title="Provides the high&#45;level user functionality intended for use by typical VEX Cortex programmers...">
<polygon fill="none" stroke="#000000" points="169.0566,-55.5 169.0566,-73.5 209.5146,-73.5 209.5146,-55.5 169.0566,-55.5"/>
<text text-anchor="middle" x="189.2856" y="-61.5" font-family="Helvetica,sans-Serif" font-size="10.00" fill="#000000">API.h</text>
</a>
</g>
</g>
<!-- Node1&#45;&gt;Node2 -->
<g id="edge2" class="edge">
<title>Node1&#45;&gt;Node2</title>
<path fill="none" stroke="#191970" d="M287.8003,-110.4179C268.7552,-101.5409 239.5435,-87.9253 217.8694,-77.823"/>
<polygon fill="#191970" stroke="#191970" points="219.3423,-74.648 208.7999,-73.5956 216.385,-80.9927 219.3423,-74.648"/>
</g>
<!-- Node3 -->
<g id="node4" class="node">
<title>Node3</title>
<polygon fill="none" stroke="#bfbfbf" points="59.4434,-.5 59.4434,-18.5 107.1279,-18.5 107.1279,-.5 59.4434,-.5"/>
<text text-anchor="middle" x="83.2856" y="-6.5" font-family="Helvetica,sans-Serif" font-size="10.00" fill="#000000">stdlib.h</text>
</g>
<!-- Node2&#45;&gt;Node3 -->
<g id="edge3" class="edge">
<title>Node2&#45;&gt;Node3</title>
<path fill="none" stroke="#191970" d="M171.7819,-55.4179C154.9037,-46.6603 129.1369,-33.2907 109.752,-23.2326"/>
<polygon fill="#191970" stroke="#191970" points="111.3037,-20.0946 100.8154,-18.5956 108.0797,-26.308 111.3037,-20.0946"/>
</g>
<!-- Node4 -->
<g id="node5" class="node">
<title>Node4</title>
<polygon fill="none" stroke="#bfbfbf" points="124.9927,-.5 124.9927,-18.5 181.5786,-18.5 181.5786,-.5 124.9927,-.5"/>
<text text-anchor="middle" x="153.2856" y="-6.5" font-family="Helvetica,sans-Serif" font-size="10.00" fill="#000000">stdbool.h</text>
</g>
<!-- Node2&#45;&gt;Node4 -->
<g id="edge4" class="edge">
<title>Node2&#45;&gt;Node4</title>
<path fill="none" stroke="#191970" d="M183.341,-55.4179C178.3683,-47.8207 171.1238,-36.7527 164.9932,-27.3866"/>
<polygon fill="#191970" stroke="#191970" points="167.7646,-25.2297 159.3595,-18.7795 161.9076,-29.0633 167.7646,-25.2297"/>
</g>
<!-- Node5 -->
<g id="node6" class="node">
<title>Node5</title>
<polygon fill="none" stroke="#bfbfbf" points="199.2192,-.5 199.2192,-18.5 251.3521,-18.5 251.3521,-.5 199.2192,-.5"/>
<text text-anchor="middle" x="225.2856" y="-6.5" font-family="Helvetica,sans-Serif" font-size="10.00" fill="#000000">stdarg.h</text>
</g>
<!-- Node2&#45;&gt;Node5 -->
<g id="edge5" class="edge">
<title>Node2&#45;&gt;Node5</title>
<path fill="none" stroke="#191970" d="M195.2303,-55.4179C200.203,-47.8207 207.4475,-36.7527 213.578,-27.3866"/>
<polygon fill="#191970" stroke="#191970" points="216.6636,-29.0633 219.2118,-18.7795 210.8067,-25.2297 216.6636,-29.0633"/>
</g>
<!-- Node6 -->
<g id="node7" class="node">
<title>Node6</title>
<polygon fill="none" stroke="#bfbfbf" points="269.165,-.5 269.165,-18.5 317.4063,-18.5 317.4063,-.5 269.165,-.5"/>
<text text-anchor="middle" x="293.2856" y="-6.5" font-family="Helvetica,sans-Serif" font-size="10.00" fill="#000000">stdint.h</text>
</g>
<!-- Node2&#45;&gt;Node6 -->
<g id="edge6" class="edge">
<title>Node2&#45;&gt;Node6</title>
<path fill="none" stroke="#191970" d="M206.4591,-55.4179C222.9436,-46.7001 248.0699,-33.4122 267.0589,-23.3699"/>
<polygon fill="#191970" stroke="#191970" points="268.8829,-26.3646 276.0866,-18.5956 265.6104,-20.1767 268.8829,-26.3646"/>
</g>
<!-- Node7&#45;&gt;Node2 -->
<g id="edge8" class="edge">
<title>Node7&#45;&gt;Node2</title>
<path fill="none" stroke="#191970" d="M87.8685,-165.4539C98.6719,-152.7109 119.2939,-128.9174 138.2856,-110 148.6627,-99.6635 160.8899,-88.7165 170.7704,-80.151"/>
<polygon fill="#191970" stroke="#191970" points="173.1162,-82.75 178.4259,-73.5817 168.5577,-77.4377 173.1162,-82.75"/>
</g>
<!-- Node8 -->
<g id="node9" class="node">
<title>Node8</title>
<polygon fill="none" stroke="#bfbfbf" points="0,-55.5 0,-73.5 46.5713,-73.5 46.5713,-55.5 0,-55.5"/>
<text text-anchor="middle" x="23.2856" y="-61.5" font-family="Helvetica,sans-Serif" font-size="10.00" fill="#000000">math.h</text>
</g>
<!-- Node7&#45;&gt;Node8 -->
<g id="edge9" class="edge">
<title>Node7&#45;&gt;Node8</title>
<path fill="none" stroke="#191970" d="M70.5552,-165.2425C61.9938,-156.6025 49.7608,-142.976 42.2856,-129 34.6293,-114.6853 29.6845,-96.8897 26.7645,-83.6191"/>
<polygon fill="#191970" stroke="#191970" points="30.1752,-82.8258 24.773,-73.7117 23.3124,-84.2053 30.1752,-82.8258"/>
</g>
<!-- Node9 -->
<g id="node10" class="node">
<title>Node9</title>
<g id="a_node10"><a xlink:href="vlib_8h.html" target="_top" xlink:title="Contains misc helpful functions. ">
<polygon fill="none" stroke="#000000" points="51.6133,-110.5 51.6133,-128.5 90.958,-128.5 90.958,-110.5 51.6133,-110.5"/>
<text text-anchor="middle" x="71.2856" y="-116.5" font-family="Helvetica,sans-Serif" font-size="10.00" fill="#000000">vlib.h</text>
</a>
</g>
</g>
<!-- Node7&#45;&gt;Node9 -->
<g id="edge10" class="edge">
<title>Node7&#45;&gt;Node9</title>
<path fill="none" stroke="#191970" d="M78.7995,-165.4179C77.621,-158.2164 75.9323,-147.8962 74.4542,-138.8632"/>
<polygon fill="#191970" stroke="#191970" points="77.8731,-138.083 72.8041,-128.7795 70.965,-139.2134 77.8731,-138.083"/>
</g>
<!-- Node9&#45;&gt;Node2 -->
<g id="edge12" class="edge">
<title>Node9&#45;&gt;Node2</title>
<path fill="none" stroke="#191970" d="M90.7709,-110.4179C109.8161,-101.5409 139.0278,-87.9253 160.7019,-77.823"/>
<polygon fill="#191970" stroke="#191970" points="162.1862,-80.9927 169.7714,-73.5956 159.2289,-74.648 162.1862,-80.9927"/>
</g>
<!-- Node9&#45;&gt;Node8 -->
<g id="edge11" class="edge">
<title>Node9&#45;&gt;Node8</title>
<path fill="none" stroke="#191970" d="M63.3594,-110.4179C56.5219,-102.5833 46.4631,-91.0575 38.134,-81.5137"/>
<polygon fill="#191970" stroke="#191970" points="40.5964,-79.0123 31.3841,-73.7795 35.3225,-83.6151 40.5964,-79.0123"/>
</g>
<!-- Node10 -->
<g id="node11" class="node">
<title>Node10</title>
<polygon fill="none" stroke="#bfbfbf" points="64.8892,-55.5 64.8892,-73.5 113.6821,-73.5 113.6821,-55.5 64.8892,-55.5"/>
<text text-anchor="middle" x="89.2856" y="-61.5" font-family="Helvetica,sans-Serif" font-size="10.00" fill="#000000">string.h</text>
</g>
<!-- Node9&#45;&gt;Node10 -->
<g id="edge13" class="edge">
<title>Node9&#45;&gt;Node10</title>
<path fill="none" stroke="#191970" d="M74.258,-110.4179C76.6407,-103.1372 80.0667,-92.669 83.0459,-83.5659"/>
<polygon fill="#191970" stroke="#191970" points="86.4647,-84.3721 86.2487,-73.7795 79.8119,-82.1948 86.4647,-84.3721"/>
</g>
<!-- Node11&#45;&gt;Node2 -->
<g id="edge15" class="edge">
<title>Node11&#45;&gt;Node2</title>
<path fill="none" stroke="#191970" d="M170.0836,-110.4179C173.1614,-103.0581 177.6012,-92.441 181.4366,-83.2695"/>
<polygon fill="#191970" stroke="#191970" points="184.7761,-84.3556 185.4051,-73.7795 178.318,-81.6549 184.7761,-84.3556"/>
</g>
<!-- Node12&#45;&gt;Node2 -->
<g id="edge17" class="edge">
<title>Node12&#45;&gt;Node2</title>
<path fill="none" stroke="#191970" d="M182.5459,-165.3351C186.4865,-156.3167 192.0595,-142.0414 194.2856,-129 196.8583,-113.9291 195.2812,-96.6487 193.2402,-83.7697"/>
<polygon fill="#191970" stroke="#191970" points="196.6512,-82.9642 191.4198,-73.751 189.764,-84.2157 196.6512,-82.9642"/>
</g>
<!-- Node12&#45;&gt;Node11 -->
<g id="edge18" class="edge">
<title>Node12&#45;&gt;Node11</title>
<path fill="none" stroke="#191970" d="M176.3041,-165.4179C174.7156,-158.1372 172.4316,-147.669 170.4455,-138.5659"/>
<polygon fill="#191970" stroke="#191970" points="173.8616,-137.8035 168.3103,-128.7795 167.0224,-139.2957 173.8616,-137.8035"/>
</g>
<!-- Node13&#45;&gt;Node2 -->
<g id="edge20" class="edge">
<title>Node13&#45;&gt;Node2</title>
<path fill="none" stroke="#191970" d="M243.4574,-165.4982C233.7768,-147.4496 211.8293,-106.5306 199.039,-82.6843"/>
<polygon fill="#191970" stroke="#191970" points="201.9916,-80.7842 194.1806,-73.6261 195.8229,-84.0929 201.9916,-80.7842"/>
</g>
</g>
</svg>
