<?xml version="1.0" encoding="UTF-8" standalone="no"?>
<!DOCTYPE svg PUBLIC "-//W3C//DTD SVG 1.1//EN"
 "http://www.w3.org/Graphics/SVG/1.1/DTD/svg11.dtd">
<!-- Generated by graphviz version 2.40.1 (20161225.0304)
 -->
<!-- Title: initialize Pages: 1 -->
<svg width="458pt" height="288pt"
 viewBox="0.00 0.00 458.49 288.00" xmlns="http://www.w3.org/2000/svg" xmlns:xlink="http://www.w3.org/1999/xlink">
<g id="graph0" class="graph" transform="scale(1 1) rotate(0) translate(4 284)">
<title>initialize</title>
<!-- Node0 -->
<g id="node1" class="node">
<title>Node0</title>
<polygon fill="#bfbfbf" stroke="#000000" points="0,-168.5 0,-186.5 51.5713,-186.5 51.5713,-168.5 0,-168.5"/>
<text text-anchor="middle" x="25.7856" y="-174.5" font-family="Helvetica,sans-Serif" font-size="10.00" fill="#000000">initialize</text>
</g>
<!-- Node1 -->
<g id="node2" class="node">
<title>Node1</title>
<g id="a_node2"><a xlink:href="encoders_8h.html#aa6ec1ca17e907babd52803ecba451cd3" target="_top" xlink:title="Initializes all motor encoders. ">
<polygon fill="none" stroke="#000000" points="100.6255,-261.5 100.6255,-279.5 176.1079,-279.5 176.1079,-261.5 100.6255,-261.5"/>
<text text-anchor="middle" x="138.3667" y="-267.5" font-family="Helvetica,sans-Serif" font-size="10.00" fill="#000000">init_encoders</text>
</a>
</g>
</g>
<!-- Node0&#45;&gt;Node1 -->
<g id="edge1" class="edge">
<title>Node0&#45;&gt;Node1</title>
<path fill="none" stroke="#191970" d="M31.0497,-186.7119C40.4505,-202.3841 61.5959,-234.3016 87.5713,-252.5 89.9778,-254.186 92.5584,-255.7293 95.234,-257.1394"/>
<polygon fill="#191970" stroke="#191970" points="94.0348,-260.4401 104.5829,-261.4349 96.9574,-254.0794 94.0348,-260.4401"/>
</g>
<!-- Node2 -->
<g id="node3" class="node">
<title>Node2</title>
<g id="a_node3"><a xlink:href="log_8h.html#a163f389b4f5cf440a807d8fb48aaa006" target="_top" xlink:title="Initializes the error lcd system Only required if using lcd. ">
<polygon fill="none" stroke="#000000" points="110.6377,-224.5 110.6377,-242.5 166.0957,-242.5 166.0957,-224.5 110.6377,-224.5"/>
<text text-anchor="middle" x="138.3667" y="-230.5" font-family="Helvetica,sans-Serif" font-size="10.00" fill="#000000">init_error</text>
</a>
</g>
</g>
<!-- Node0&#45;&gt;Node2 -->
<g id="edge2" class="edge">
<title>Node0&#45;&gt;Node2</title>
<path fill="none" stroke="#191970" d="M39.0625,-186.8066C51.27,-195.0827 70.0749,-207.1349 87.5713,-215.5 91.8814,-217.5607 96.493,-219.5154 101.1144,-221.3245"/>
<polygon fill="#191970" stroke="#191970" points="99.9277,-224.6174 110.5206,-224.8207 102.3665,-218.0559 99.9277,-224.6174"/>
</g>
<!-- Node3 -->
<g id="node4" class="node">
<title>Node3</title>
<g id="a_node4"><a xlink:href="lcd_8h.html#a93b26f37d6b1687ad54c90feedfd29ca" target="_top" xlink:title="Initializes the lcd screen. Also will initialize the lcd_port var. Must be called before any lcd func...">
<polygon fill="none" stroke="#000000" points="101.1846,-187.5 101.1846,-205.5 175.5488,-205.5 175.5488,-187.5 101.1846,-187.5"/>
<text text-anchor="middle" x="138.3667" y="-193.5" font-family="Helvetica,sans-Serif" font-size="10.00" fill="#000000">init_main_lcd</text>
</a>
</g>
</g>
<!-- Node0&#45;&gt;Node3 -->
<g id="edge3" class="edge">
<title>Node0&#45;&gt;Node3</title>
<path fill="none" stroke="#191970" d="M51.614,-181.859C63.3053,-183.8321 77.5053,-186.2286 91.0027,-188.5065"/>
<polygon fill="#191970" stroke="#191970" points="90.6911,-192.0033 101.1341,-190.2164 91.856,-185.1009 90.6911,-192.0033"/>
</g>
<!-- Node4 -->
<g id="node5" class="node">
<title>Node4</title>
<g id="a_node5"><a xlink:href="slew_8h.html#a321758941d88b75783955c819bb75005" target="_top" xlink:title="Initializes the slew rate controller. ">
<polygon fill="none" stroke="#000000" points="111.1919,-150.5 111.1919,-168.5 165.5415,-168.5 165.5415,-150.5 111.1919,-150.5"/>
<text text-anchor="middle" x="138.3667" y="-156.5" font-family="Helvetica,sans-Serif" font-size="10.00" fill="#000000">init_slew</text>
</a>
</g>
</g>
<!-- Node0&#45;&gt;Node4 -->
<g id="edge4" class="edge">
<title>Node0&#45;&gt;Node4</title>
<path fill="none" stroke="#191970" d="M51.614,-173.3704C66.2052,-171.0375 84.7042,-168.0798 100.868,-165.4955"/>
<polygon fill="#191970" stroke="#191970" points="101.7662,-168.8964 111.0882,-163.8614 100.661,-161.9842 101.7662,-168.8964"/>
</g>
<!-- Node9 -->
<g id="node10" class="node">
<title>Node9</title>
<g id="a_node10"><a xlink:href="lcd_8h.html#a99f4683e1990edf624ab216bf327cba4" target="_top" xlink:title="Prompts the user to confirm a string. User must press middle button to confirm. Function is not threa...">
<polygon fill="none" stroke="#000000" points="87.5713,-93.5 87.5713,-111.5 189.1621,-111.5 189.1621,-93.5 87.5713,-93.5"/>
<text text-anchor="middle" x="138.3667" y="-99.5" font-family="Helvetica,sans-Serif" font-size="10.00" fill="#000000">promt_confirmation</text>
</a>
</g>
</g>
<!-- Node0&#45;&gt;Node9 -->
<g id="edge9" class="edge">
<title>Node0&#45;&gt;Node9</title>
<path fill="none" stroke="#191970" d="M39.5903,-168.3035C58.7692,-155.5268 93.6795,-132.27 116.443,-117.1053"/>
<polygon fill="#191970" stroke="#191970" points="118.4189,-119.9945 124.8008,-111.5374 114.5379,-114.1689 118.4189,-119.9945"/>
</g>
<!-- Node13 -->
<g id="node14" class="node">
<title>Node13</title>
<g id="a_node14"><a xlink:href="log_8h.html#a0bec2cf5fff7f607bc510b74aba9887c" target="_top" xlink:title="prints a warning message and displays on lcd. Only will print and display if log_level is greater tha...">
<polygon fill="none" stroke="#000000" points="112.8569,-38.5 112.8569,-56.5 163.8765,-56.5 163.8765,-38.5 112.8569,-38.5"/>
<text text-anchor="middle" x="138.3667" y="-44.5" font-family="Helvetica,sans-Serif" font-size="10.00" fill="#000000">warning</text>
</a>
</g>
</g>
<!-- Node0&#45;&gt;Node13 -->
<g id="edge15" class="edge">
<title>Node0&#45;&gt;Node13</title>
<path fill="none" stroke="#191970" d="M30.468,-168.2842C39.7174,-150.6569 61.6939,-111.5184 87.5713,-84.5 95.4951,-76.2268 105.4641,-68.5158 114.4676,-62.2976"/>
<polygon fill="#191970" stroke="#191970" points="116.6401,-65.0565 123.0378,-56.6114 112.77,-59.2236 116.6401,-65.0565"/>
</g>
<!-- Node5 -->
<g id="node6" class="node">
<title>Node5</title>
<g id="a_node6"><a xlink:href="vlib_8h.html#a1115803c6996aebfbf67434810df7b4b" target="_top" xlink:title="calloc_real">
<polygon fill="none" stroke="#000000" points="257.1348,-224.5 257.1348,-242.5 320.9375,-242.5 320.9375,-224.5 257.1348,-224.5"/>
<text text-anchor="middle" x="289.0361" y="-230.5" font-family="Helvetica,sans-Serif" font-size="10.00" fill="#000000">calloc_real</text>
</a>
</g>
</g>
<!-- Node4&#45;&gt;Node5 -->
<g id="edge5" class="edge">
<title>Node4&#45;&gt;Node5</title>
<path fill="none" stroke="#191970" d="M165.7924,-167.2616C173.6827,-170.1428 182.0672,-173.8667 189.1621,-178.5 208.3724,-191.0453 205.4464,-203.765 225.1621,-215.5 231.8393,-219.4743 239.4317,-222.6039 246.9936,-225.058"/>
<polygon fill="#191970" stroke="#191970" points="246.2584,-228.4888 256.8373,-227.9092 248.2059,-221.7652 246.2584,-228.4888"/>
</g>
<!-- Node6 -->
<g id="node7" class="node">
<title>Node6</title>
<g id="a_node7"><a xlink:href="log_8h.html#a1606d750e1bb8de9f9e917172bba3382" target="_top" xlink:title="prints a info message ">
<polygon fill="none" stroke="#000000" points="272.9746,-187.5 272.9746,-205.5 305.0977,-205.5 305.0977,-187.5 272.9746,-187.5"/>
<text text-anchor="middle" x="289.0361" y="-193.5" font-family="Helvetica,sans-Serif" font-size="10.00" fill="#000000">info</text>
</a>
</g>
</g>
<!-- Node4&#45;&gt;Node6 -->
<g id="edge6" class="edge">
<title>Node4&#45;&gt;Node6</title>
<path fill="none" stroke="#191970" d="M165.6518,-166.2004C193.202,-172.9659 235.4665,-183.3449 262.68,-190.0277"/>
<polygon fill="#191970" stroke="#191970" points="262.1058,-193.4906 272.652,-192.4765 263.7753,-186.6926 262.1058,-193.4906"/>
</g>
<!-- Node7 -->
<g id="node8" class="node">
<title>Node7</title>
<g id="a_node8"><a xlink:href="slew_8c.html#a807a87c5df438fde21c1e8213906695b" target="_top" xlink:title="Closes the distance between the desired motor value and the current motor value by half for each moto...">
<polygon fill="none" stroke="#000000" points="250.4624,-150.5 250.4624,-168.5 327.6099,-168.5 327.6099,-150.5 250.4624,-150.5"/>
<text text-anchor="middle" x="289.0361" y="-156.5" font-family="Helvetica,sans-Serif" font-size="10.00" fill="#000000">updateMotors</text>
</a>
</g>
</g>
<!-- Node4&#45;&gt;Node7 -->
<g id="edge7" class="edge">
<title>Node4&#45;&gt;Node7</title>
<path fill="none" stroke="#191970" d="M165.6518,-159.5C186.3542,-159.5 215.3652,-159.5 240.0552,-159.5"/>
<polygon fill="#191970" stroke="#191970" points="240.3352,-163.0001 250.3352,-159.5 240.3351,-156.0001 240.3352,-163.0001"/>
</g>
<!-- Node8 -->
<g id="node9" class="node">
<title>Node8</title>
<g id="a_node9"><a xlink:href="log_8h.html#af3668f40d1ad1b4f3418869ac9a31f34" target="_top" xlink:title="prints a info message ">
<polygon fill="none" stroke="#000000" points="397.7944,-150.5 397.7944,-168.5 441.6021,-168.5 441.6021,-150.5 397.7944,-150.5"/>
<text text-anchor="middle" x="419.6982" y="-156.5" font-family="Helvetica,sans-Serif" font-size="10.00" fill="#000000">debug</text>
</a>
</g>
</g>
<!-- Node7&#45;&gt;Node8 -->
<g id="edge8" class="edge">
<title>Node7&#45;&gt;Node8</title>
<path fill="none" stroke="#191970" d="M327.8853,-159.5C346.8763,-159.5 369.461,-159.5 387.4784,-159.5"/>
<polygon fill="#191970" stroke="#191970" points="387.4974,-163.0001 397.4974,-159.5 387.4973,-156.0001 387.4974,-163.0001"/>
</g>
<!-- Node10 -->
<g id="node11" class="node">
<title>Node10</title>
<g id="a_node11"><a xlink:href="lcd_8c.html#a07f04b524b5ded617d5f193db05ba0ad" target="_top" xlink:title="Asserts the lcd is initialized Works by checking is the File *lcd_port is the default NULL value and ...">
<polygon fill="none" stroke="#000000" points="388.9102,-74.5 388.9102,-92.5 450.4863,-92.5 450.4863,-74.5 388.9102,-74.5"/>
<text text-anchor="middle" x="419.6982" y="-80.5" font-family="Helvetica,sans-Serif" font-size="10.00" fill="#000000">lcd_assert</text>
</a>
</g>
</g>
<!-- Node9&#45;&gt;Node10 -->
<g id="edge10" class="edge">
<title>Node9&#45;&gt;Node10</title>
<path fill="none" stroke="#191970" d="M189.3579,-106.4453C233.0004,-108.8824 297.3906,-110.2435 352.9102,-102.5 363.2977,-101.0512 374.3385,-98.3928 384.3889,-95.5142"/>
<polygon fill="#191970" stroke="#191970" points="385.4862,-98.839 394.0484,-92.5989 383.4636,-92.1376 385.4862,-98.839"/>
</g>
<!-- Node11 -->
<g id="node12" class="node">
<title>Node11</title>
<g id="a_node12"><a xlink:href="lcd_8c.html#ac7b3225ccc82fcbe067ba9da934f010d" target="_top" xlink:title="Returns the pressed buttons. ">
<polygon fill="none" stroke="#000000" points="225.1621,-74.5 225.1621,-92.5 352.9102,-92.5 352.9102,-74.5 225.1621,-74.5"/>
<text text-anchor="middle" x="289.0361" y="-80.5" font-family="Helvetica,sans-Serif" font-size="10.00" fill="#000000">lcd_get_pressed_buttons</text>
</a>
</g>
</g>
<!-- Node9&#45;&gt;Node11 -->
<g id="edge11" class="edge">
<title>Node9&#45;&gt;Node11</title>
<path fill="none" stroke="#191970" d="M189.3765,-96.0675C197.5989,-95.0306 206.2543,-93.9391 214.889,-92.8502"/>
<polygon fill="#191970" stroke="#191970" points="215.505,-96.3004 224.9885,-91.5767 214.6292,-89.3554 215.505,-96.3004"/>
</g>
<!-- Node12 -->
<g id="node13" class="node">
<title>Node12</title>
<g id="a_node13"><a xlink:href="lcd_8c.html#adabd3f7cdda45119604b488caf22bba8" target="_top" xlink:title="prints a string to a line on the lcd ">
<polygon fill="none" stroke="#000000" points="262.1372,-37.5 262.1372,-55.5 315.9351,-55.5 315.9351,-37.5 262.1372,-37.5"/>
<text text-anchor="middle" x="289.0361" y="-43.5" font-family="Helvetica,sans-Serif" font-size="10.00" fill="#000000">lcd_print</text>
</a>
</g>
</g>
<!-- Node9&#45;&gt;Node12 -->
<g id="edge13" class="edge">
<title>Node9&#45;&gt;Node12</title>
<path fill="none" stroke="#191970" d="M157.762,-93.4793C175.1874,-85.5565 201.5853,-74.0007 225.1621,-65.5 233.8605,-62.3638 243.3532,-59.3339 252.2965,-56.6497"/>
<polygon fill="#191970" stroke="#191970" points="253.4774,-59.9509 262.0887,-53.7788 251.5079,-53.2337 253.4774,-59.9509"/>
</g>
<!-- Node11&#45;&gt;Node10 -->
<g id="edge12" class="edge">
<title>Node11&#45;&gt;Node10</title>
<path fill="none" stroke="#191970" d="M353.2188,-83.5C361.8348,-83.5 370.4773,-83.5 378.5468,-83.5"/>
<polygon fill="#191970" stroke="#191970" points="378.7746,-87.0001 388.7745,-83.5 378.7745,-80.0001 378.7746,-87.0001"/>
</g>
<!-- Node12&#45;&gt;Node10 -->
<g id="edge14" class="edge">
<title>Node12&#45;&gt;Node10</title>
<path fill="none" stroke="#191970" d="M316.1094,-54.1664C334.2245,-59.2961 358.3988,-66.1416 378.8378,-71.9294"/>
<polygon fill="#191970" stroke="#191970" points="377.9532,-75.3165 388.5285,-74.6736 379.8605,-68.5813 377.9532,-75.3165"/>
</g>
<!-- Node14 -->
<g id="node15" class="node">
<title>Node14</title>
<g id="a_node15"><a xlink:href="log_8c.html#afff22aff6749311a684a559cac3ac8bd" target="_top" xlink:title="log_info">
<polygon fill="none" stroke="#000000" points="263.5215,-.5 263.5215,-18.5 314.5508,-18.5 314.5508,-.5 263.5215,-.5"/>
<text text-anchor="middle" x="289.0361" y="-6.5" font-family="Helvetica,sans-Serif" font-size="10.00" fill="#000000">log_info</text>
</a>
</g>
</g>
<!-- Node13&#45;&gt;Node14 -->
<g id="edge16" class="edge">
<title>Node13&#45;&gt;Node14</title>
<path fill="none" stroke="#191970" d="M163.9257,-41.0538C188.4934,-34.8577 225.8445,-25.4374 253.3425,-18.5022"/>
<polygon fill="#191970" stroke="#191970" points="254.5113,-21.8171 263.3517,-15.9778 252.7994,-15.0296 254.5113,-21.8171"/>
</g>
</g>
</svg>
