<?xml version="1.0" encoding="UTF-8" standalone="no"?>
<!DOCTYPE svg PUBLIC "-//W3C//DTD SVG 1.1//EN"
 "http://www.w3.org/Graphics/SVG/1.1/DTD/svg11.dtd">
<!-- Generated by graphviz version 2.40.1 (20161225.0304)
 -->
<!-- Title: src/init.c Pages: 1 -->
<!--zoomable 357 -->
<svg id="main" version="1.1" xmlns="http://www.w3.org/2000/svg" xmlns:xlink="http://www.w3.org/1999/xlink" xml:space="preserve" onload="init(evt)">
<style type="text/css"><![CDATA[
.edge:hover path { stroke: red; }
.edge:hover polygon { stroke: red; fill: red; }
]]></style>
<script type="text/javascript"><![CDATA[
var edges = document.getElementsByTagName('g');
if (edges && edges.length) {
  for (var i=0;i<edges.length;i++) {
    if (edges[i].id.substr(0,4)=='edge') {
      edges[i].setAttribute('class','edge');
    }
  }
}
]]></script>
        <defs>
                <circle id="rim" cx="0" cy="0" r="7"/>
                <circle id="rim2" cx="0" cy="0" r="3.5"/>
                <g id="zoomPlus">
                        <use xlink:href="#rim" fill="#404040">
                                <set attributeName="fill" to="#808080" begin="zoomplus.mouseover" end="zoomplus.mouseout"/>
                        </use>
                        <path d="M-4,0h8M0,-4v8" fill="none" stroke="white" stroke-width="1.5" pointer-events="none"/>
                </g>
                <g id="zoomMin">
                        <use xlink:href="#rim" fill="#404040">
                                <set attributeName="fill" to="#808080" begin="zoomminus.mouseover" end="zoomminus.mouseout"/>
                        </use>
                        <path d="M-4,0h8" fill="none" stroke="white" stroke-width="1.5" pointer-events="none"/>
                </g>
                <g id="dirArrow">
                        <path fill="none" stroke="white" stroke-width="1.5" d="M0,-3.0v7 M-2.5,-0.5L0,-3.0L2.5,-0.5"/>
                </g>
               <g id="resetDef">
                       <use xlink:href="#rim2" fill="#404040">
                               <set attributeName="fill" to="#808080" begin="reset.mouseover" end="reset.mouseout"/>
                       </use>
               </g>
        </defs>

<script type="text/javascript">
var viewWidth = 891;
var viewHeight = 357;
var sectionId = 'dynsection-0';
</script>
<script xlink:href="svgpan.js"/>
<svg id="graph" class="graph">
<g id="viewport">
<title>src/init.c</title>
<!-- Node0 -->
<g id="node1" class="node">
<title>Node0</title>
<polygon fill="#bfbfbf" stroke="#000000" points="331.3869,-330.5 331.3869,-348.5 384.0568,-348.5 384.0568,-330.5 331.3869,-330.5"/>
<text text-anchor="middle" x="357.7218" y="-336.5" font-family="Helvetica,sans-Serif" font-size="10.00" fill="#000000">src/init.c</text>
</g>
<!-- Node1 -->
<g id="node2" class="node">
<title>Node1</title>
<g id="a_node2"><a xlink:href="encoders_8h.html" target="_top" xlink:title="wrapper around encoder functions ">
<polygon fill="none" stroke="#000000" points="701.9831,-275.5 701.9831,-293.5 767.4606,-293.5 767.4606,-275.5 701.9831,-275.5"/>
<text text-anchor="middle" x="734.7218" y="-281.5" font-family="Helvetica,sans-Serif" font-size="10.00" fill="#000000">encoders.h</text>
</a>
</g>
</g>
<!-- Node0&#45;&gt;Node1 -->
<g id="edge1" class="edge">
<title>Node0&#45;&gt;Node1</title>
<path fill="none" stroke="#191970" d="M384.2317,-335.6325C448.553,-326.2488 613.3644,-302.2047 691.8839,-290.7496"/>
<polygon fill="#191970" stroke="#191970" points="692.5312,-294.1923 701.9212,-289.2852 691.5207,-287.2656 692.5312,-294.1923"/>
</g>
<!-- Node3 -->
<g id="node4" class="node">
<title>Node3</title>
<g id="a_node4"><a xlink:href="lcd_8h.html" target="_top" xlink:title="LCD wrapper functions and macros. ">
<polygon fill="none" stroke="#000000" points="350.1603,-110.5 350.1603,-128.5 387.2834,-128.5 387.2834,-110.5 350.1603,-110.5"/>
<text text-anchor="middle" x="368.7218" y="-116.5" font-family="Helvetica,sans-Serif" font-size="10.00" fill="#000000">lcd.h</text>
</a>
</g>
</g>
<!-- Node0&#45;&gt;Node3 -->
<g id="edge3" class="edge">
<title>Node0&#45;&gt;Node3</title>
<path fill="none" stroke="#191970" d="M354.4612,-330.204C345.6909,-303.7838 323.3963,-226.2119 340.7218,-165 343.5849,-154.8845 349.4015,-144.8071 354.995,-136.7169"/>
<polygon fill="#191970" stroke="#191970" points="357.9162,-138.653 361.0462,-128.5311 352.2872,-134.4919 357.9162,-138.653"/>
</g>
<!-- Node4 -->
<g id="node5" class="node">
<title>Node4</title>
<g id="a_node5"><a xlink:href="lifter_8h.html" target="_top" xlink:title="Declarations and macros for controlling and manipulating the lifter. ">
<polygon fill="none" stroke="#000000" points="540.3795,-275.5 540.3795,-293.5 583.0641,-293.5 583.0641,-275.5 540.3795,-275.5"/>
<text text-anchor="middle" x="561.7218" y="-281.5" font-family="Helvetica,sans-Serif" font-size="10.00" fill="#000000">lifter.h</text>
</a>
</g>
</g>
<!-- Node0&#45;&gt;Node4 -->
<g id="edge5" class="edge">
<title>Node0&#45;&gt;Node4</title>
<path fill="none" stroke="#191970" d="M384.3913,-332.3097C422.0459,-322.1577 490.6469,-303.6624 530.5874,-292.8941"/>
<polygon fill="#191970" stroke="#191970" points="531.5827,-296.2508 540.3268,-290.2683 529.7605,-289.4921 531.5827,-296.2508"/>
</g>
<!-- Node13 -->
<g id="node14" class="node">
<title>Node13</title>
<g id="a_node14"><a xlink:href="slew_8h.html" target="_top" xlink:title="Contains the slew rate controller wrapper for the motors. ">
<polygon fill="none" stroke="#000000" points="247.8229,-220.5 247.8229,-238.5 291.6208,-238.5 291.6208,-220.5 247.8229,-220.5"/>
<text text-anchor="middle" x="269.7218" y="-226.5" font-family="Helvetica,sans-Serif" font-size="10.00" fill="#000000">slew.h</text>
</a>
</g>
</g>
<!-- Node0&#45;&gt;Node13 -->
<g id="edge40" class="edge">
<title>Node0&#45;&gt;Node13</title>
<path fill="none" stroke="#191970" d="M345.0705,-330.4247C333.8019,-321.9074 317.3453,-308.3585 305.7218,-294 294.2767,-279.8618 284.4625,-261.5893 277.9856,-248.1044"/>
<polygon fill="#191970" stroke="#191970" points="281.0892,-246.4773 273.7114,-238.8734 274.7371,-249.4185 281.0892,-246.4773"/>
</g>
<!-- Node16 -->
<g id="node17" class="node">
<title>Node16</title>
<g id="a_node17"><a xlink:href="log_8h.html" target="_top" xlink:title="Contains logging functions. ">
<polygon fill="none" stroke="#000000" points="349.8795,-165.5 349.8795,-183.5 387.5641,-183.5 387.5641,-165.5 349.8795,-165.5"/>
<text text-anchor="middle" x="368.7218" y="-171.5" font-family="Helvetica,sans-Serif" font-size="10.00" fill="#000000">log.h</text>
</a>
</g>
</g>
<!-- Node0&#45;&gt;Node16 -->
<g id="edge27" class="edge">
<title>Node0&#45;&gt;Node16</title>
<path fill="none" stroke="#191970" d="M358.3448,-330.1561C360.0918,-303.9504 365.0648,-229.3557 367.435,-193.8021"/>
<polygon fill="#191970" stroke="#191970" points="370.9327,-193.9521 368.1057,-183.7414 363.9482,-193.4864 370.9327,-193.9521"/>
</g>
<!-- Node17 -->
<g id="node18" class="node">
<title>Node17</title>
<g id="a_node18"><a xlink:href="main_8h.html" target="_top" xlink:title="Header file for global functions. ">
<polygon fill="none" stroke="#000000" points="836.7145,-275.5 836.7145,-293.5 882.7292,-293.5 882.7292,-275.5 836.7145,-275.5"/>
<text text-anchor="middle" x="859.7218" y="-281.5" font-family="Helvetica,sans-Serif" font-size="10.00" fill="#000000">main.h</text>
</a>
</g>
</g>
<!-- Node0&#45;&gt;Node17 -->
<g id="edge30" class="edge">
<title>Node0&#45;&gt;Node17</title>
<path fill="none" stroke="#191970" d="M384.1997,-336.6786C450.3862,-329.6141 628.3733,-310.5444 776.7218,-294 793.1183,-292.1714 811.3307,-290.0922 826.5081,-288.3461"/>
<polygon fill="#191970" stroke="#191970" points="826.9376,-291.8199 836.471,-287.1977 826.136,-284.8659 826.9376,-291.8199"/>
</g>
<!-- Node18 -->
<g id="node19" class="node">
<title>Node18</title>
<g id="a_node19"><a xlink:href="menu_8h.html" target="_top" xlink:title="Contains menu functionality and abstraction. ">
<polygon fill="none" stroke="#000000" points="149.0446,-220.5 149.0446,-238.5 198.3991,-238.5 198.3991,-220.5 149.0446,-220.5"/>
<text text-anchor="middle" x="173.7218" y="-226.5" font-family="Helvetica,sans-Serif" font-size="10.00" fill="#000000">menu.h</text>
</a>
</g>
</g>
<!-- Node0&#45;&gt;Node18 -->
<g id="edge32" class="edge">
<title>Node0&#45;&gt;Node18</title>
<path fill="none" stroke="#191970" d="M342.6643,-330.4982C310.8566,-311.4827 236.5841,-267.0807 197.9847,-244.005"/>
<polygon fill="#191970" stroke="#191970" points="199.3665,-240.7533 188.9874,-238.6261 195.7746,-246.7615 199.3665,-240.7533"/>
</g>
<!-- Node2 -->
<g id="node3" class="node">
<title>Node2</title>
<polygon fill="none" stroke="#bfbfbf" points="471.4928,-55.5 471.4928,-73.5 511.9508,-73.5 511.9508,-55.5 471.4928,-55.5"/>
<text text-anchor="middle" x="491.7218" y="-61.5" font-family="Helvetica,sans-Serif" font-size="10.00" fill="#000000">API.h</text>
</g>
<!-- Node1&#45;&gt;Node2 -->
<g id="edge2" class="edge">
<title>Node1&#45;&gt;Node2</title>
<path fill="none" stroke="#191970" d="M764.6398,-275.4465C781.9993,-268.4809 802.415,-256.9446 812.7218,-239 843.1901,-185.9537 815.515,-144.0922 764.7218,-110 725.4047,-83.6105 584.8041,-70.8854 522.1847,-66.4267"/>
<polygon fill="#191970" stroke="#191970" points="522.3513,-62.93 512.1345,-65.7348 521.8705,-69.9134 522.3513,-62.93"/>
</g>
<!-- Node3&#45;&gt;Node2 -->
<g id="edge4" class="edge">
<title>Node3&#45;&gt;Node2</title>
<path fill="none" stroke="#191970" d="M387.4029,-111.1467C407.1611,-102.3117 438.625,-88.2425 461.8366,-77.8633"/>
<polygon fill="#191970" stroke="#191970" points="463.5208,-80.9443 471.2209,-73.6671 460.6633,-74.554 463.5208,-80.9443"/>
</g>
<!-- Node4&#45;&gt;Node2 -->
<g id="edge26" class="edge">
<title>Node4&#45;&gt;Node2</title>
<path fill="none" stroke="#191970" d="M546.4413,-275.3755C534.5492,-267.3817 518.7594,-254.6139 510.7218,-239 484.5209,-188.1016 486.5416,-117.9408 489.4741,-84.1933"/>
<polygon fill="#191970" stroke="#191970" points="492.9943,-84.1645 490.5046,-73.8663 486.0289,-83.4693 492.9943,-84.1645"/>
</g>
<!-- Node5 -->
<g id="node6" class="node">
<title>Node5</title>
<g id="a_node6"><a xlink:href="controller_8h.html" target="_top" xlink:title="controller definitions, macros and functions to assist with usig the vex controllers. ">
<polygon fill="none" stroke="#000000" points="691.2614,-110.5 691.2614,-128.5 756.1823,-128.5 756.1823,-110.5 691.2614,-110.5"/>
<text text-anchor="middle" x="723.7218" y="-116.5" font-family="Helvetica,sans-Serif" font-size="10.00" fill="#000000">controller.h</text>
</a>
</g>
</g>
<!-- Node4&#45;&gt;Node5 -->
<g id="edge6" class="edge">
<title>Node4&#45;&gt;Node5</title>
<path fill="none" stroke="#191970" d="M583.3487,-283.6474C635.9069,-281.076 767.9953,-271.4505 794.7218,-239 822.6488,-205.092 774.9623,-158.9853 745.0736,-135.172"/>
<polygon fill="#191970" stroke="#191970" points="746.8858,-132.1492 736.8326,-128.8049 742.606,-137.6885 746.8858,-132.1492"/>
</g>
<!-- Node8 -->
<g id="node9" class="node">
<title>Node8</title>
<g id="a_node9"><a xlink:href="drive_8h.html" target="_top" xlink:title="Drive base definitions and enumerations. ">
<polygon fill="none" stroke="#000000" points="722.7145,-220.5 722.7145,-238.5 768.7292,-238.5 768.7292,-220.5 722.7145,-220.5"/>
<text text-anchor="middle" x="745.7218" y="-226.5" font-family="Helvetica,sans-Serif" font-size="10.00" fill="#000000">drive.h</text>
</a>
</g>
</g>
<!-- Node4&#45;&gt;Node8 -->
<g id="edge10" class="edge">
<title>Node4&#45;&gt;Node8</title>
<path fill="none" stroke="#191970" d="M583.1891,-278.0832C615.0772,-268.5514 675.2188,-250.5743 712.726,-239.3629"/>
<polygon fill="#191970" stroke="#191970" points="714.0838,-242.6101 722.6625,-236.3927 712.079,-235.9033 714.0838,-242.6101"/>
</g>
<!-- Node9 -->
<g id="node10" class="node">
<title>Node9</title>
<g id="a_node10"><a xlink:href="partner_8h.html" target="_top" xlink:title="partner.h">
<polygon fill="none" stroke="#000000" points="710.9831,-165.5 710.9831,-183.5 766.4606,-183.5 766.4606,-165.5 710.9831,-165.5"/>
<text text-anchor="middle" x="738.7218" y="-171.5" font-family="Helvetica,sans-Serif" font-size="10.00" fill="#000000">partner.h</text>
</a>
</g>
</g>
<!-- Node4&#45;&gt;Node9 -->
<g id="edge16" class="edge">
<title>Node4&#45;&gt;Node9</title>
<path fill="none" stroke="#191970" d="M583.2446,-283.2928C632.9481,-280.01 753.3358,-269.0581 777.7218,-239 790.2888,-223.51 774.0634,-203.5989 758.8779,-190.0233"/>
<polygon fill="#191970" stroke="#191970" points="761.096,-187.3155 751.1896,-183.5586 756.5909,-192.6732 761.096,-187.3155"/>
</g>
<!-- Node10 -->
<g id="node11" class="node">
<title>Node10</title>
<g id="a_node11"><a xlink:href="motor__ports_8h.html" target="_top" xlink:title="The motor port definitionsMacros for the different motors ports. ">
<polygon fill="none" stroke="#000000" points="385.8747,-220.5 385.8747,-238.5 463.569,-238.5 463.569,-220.5 385.8747,-220.5"/>
<text text-anchor="middle" x="424.7218" y="-226.5" font-family="Helvetica,sans-Serif" font-size="10.00" fill="#000000">motor_ports.h</text>
</a>
</g>
</g>
<!-- Node4&#45;&gt;Node10 -->
<g id="edge15" class="edge">
<title>Node4&#45;&gt;Node10</title>
<path fill="none" stroke="#191970" d="M540.3156,-275.9063C517.8939,-266.9048 482.4248,-252.6654 456.6855,-242.3321"/>
<polygon fill="#191970" stroke="#191970" points="457.9287,-239.0597 447.3446,-238.5821 455.3207,-245.5558 457.9287,-239.0597"/>
</g>
<!-- Node11 -->
<g id="node12" class="node">
<title>Node11</title>
<g id="a_node12"><a xlink:href="potentiometer_8h.html" target="_top" xlink:title="potentiometer.h">
<polygon fill="none" stroke="#000000" points="519.2516,-220.5 519.2516,-238.5 604.192,-238.5 604.192,-220.5 519.2516,-220.5"/>
<text text-anchor="middle" x="561.7218" y="-226.5" font-family="Helvetica,sans-Serif" font-size="10.00" fill="#000000">potentiometer.h</text>
</a>
</g>
</g>
<!-- Node4&#45;&gt;Node11 -->
<g id="edge17" class="edge">
<title>Node4&#45;&gt;Node11</title>
<path fill="none" stroke="#191970" d="M561.7218,-275.4179C561.7218,-268.2164 561.7218,-257.8962 561.7218,-248.8632"/>
<polygon fill="#191970" stroke="#191970" points="565.2219,-248.7794 561.7218,-238.7795 558.2219,-248.7795 565.2219,-248.7794"/>
</g>
<!-- Node12 -->
<g id="node13" class="node">
<title>Node12</title>
<g id="a_node13"><a xlink:href="sensor__ports_8h.html" target="_top" xlink:title="sensor_ports.h">
<polygon fill="none" stroke="#000000" points="622.6481,-220.5 622.6481,-238.5 704.7956,-238.5 704.7956,-220.5 622.6481,-220.5"/>
<text text-anchor="middle" x="663.7218" y="-226.5" font-family="Helvetica,sans-Serif" font-size="10.00" fill="#000000">sensor_ports.h</text>
</a>
</g>
</g>
<!-- Node4&#45;&gt;Node12 -->
<g id="edge18" class="edge">
<title>Node4&#45;&gt;Node12</title>
<path fill="none" stroke="#191970" d="M578.5651,-275.4179C594.7325,-266.7001 619.3756,-253.4122 637.9994,-243.3699"/>
<polygon fill="#191970" stroke="#191970" points="639.7128,-246.4225 646.8536,-238.5956 636.3905,-240.2611 639.7128,-246.4225"/>
</g>
<!-- Node4&#45;&gt;Node13 -->
<g id="edge19" class="edge">
<title>Node4&#45;&gt;Node13</title>
<path fill="none" stroke="#191970" d="M540.2504,-280.4557C489.4335,-270.884 361.5767,-246.8014 301.6499,-235.5138"/>
<polygon fill="#191970" stroke="#191970" points="302.0968,-232.0365 291.6217,-233.625 300.801,-238.9156 302.0968,-232.0365"/>
</g>
<!-- Node5&#45;&gt;Node2 -->
<g id="edge9" class="edge">
<title>Node5&#45;&gt;Node2</title>
<path fill="none" stroke="#191970" d="M690.974,-111.7365C645.8767,-101.0453 565.298,-81.9426 521.7061,-71.6083"/>
<polygon fill="#191970" stroke="#191970" points="522.5101,-68.202 511.9724,-69.3008 520.8953,-75.0132 522.5101,-68.202"/>
</g>
<!-- Node6 -->
<g id="node7" class="node">
<title>Node6</title>
<g id="a_node7"><a xlink:href="vmath_8h.html" target="_top" xlink:title="Vex Specific Math Functions, includes: Cartesian to polar cordinates. ">
<polygon fill="none" stroke="#000000" points="624.9362,-55.5 624.9362,-73.5 676.5075,-73.5 676.5075,-55.5 624.9362,-55.5"/>
<text text-anchor="middle" x="650.7218" y="-61.5" font-family="Helvetica,sans-Serif" font-size="10.00" fill="#000000">vmath.h</text>
</a>
</g>
</g>
<!-- Node5&#45;&gt;Node6 -->
<g id="edge7" class="edge">
<title>Node5&#45;&gt;Node6</title>
<path fill="none" stroke="#191970" d="M711.6674,-110.4179C700.6385,-102.1084 684.0986,-89.6469 671.0312,-79.8015"/>
<polygon fill="#191970" stroke="#191970" points="673.1312,-77.0016 663.0382,-73.7795 668.9189,-82.5924 673.1312,-77.0016"/>
</g>
<!-- Node7 -->
<g id="node8" class="node">
<title>Node7</title>
<polygon fill="none" stroke="#bfbfbf" points="260.4362,-.5 260.4362,-18.5 307.0075,-18.5 307.0075,-.5 260.4362,-.5"/>
<text text-anchor="middle" x="283.7218" y="-6.5" font-family="Helvetica,sans-Serif" font-size="10.00" fill="#000000">math.h</text>
</g>
<!-- Node6&#45;&gt;Node7 -->
<g id="edge8" class="edge">
<title>Node6&#45;&gt;Node7</title>
<path fill="none" stroke="#191970" d="M624.9151,-60.6325C559.9119,-50.8909 389.4798,-25.3493 317.0544,-14.4953"/>
<polygon fill="#191970" stroke="#191970" points="317.5124,-11.025 307.1041,-13.0041 316.4749,-17.9477 317.5124,-11.025"/>
</g>
<!-- Node8&#45;&gt;Node2 -->
<g id="edge14" class="edge">
<title>Node8&#45;&gt;Node2</title>
<path fill="none" stroke="#191970" d="M731.7039,-220.3939C689.811,-193.1799 565.2944,-112.2932 514.0925,-79.0321"/>
<polygon fill="#191970" stroke="#191970" points="515.9891,-76.0905 505.6965,-73.578 512.1758,-81.9607 515.9891,-76.0905"/>
</g>
<!-- Node8&#45;&gt;Node9 -->
<g id="edge11" class="edge">
<title>Node8&#45;&gt;Node9</title>
<path fill="none" stroke="#191970" d="M744.5659,-220.4179C743.6494,-213.2164 742.3359,-202.8962 741.1862,-193.8632"/>
<polygon fill="#191970" stroke="#191970" points="744.6375,-193.2575 739.9029,-183.7795 737.6935,-194.1414 744.6375,-193.2575"/>
</g>
<!-- Node9&#45;&gt;Node2 -->
<g id="edge12" class="edge">
<title>Node9&#45;&gt;Node2</title>
<path fill="none" stroke="#191970" d="M718.5088,-165.4982C674.9961,-146.1201 572.2847,-100.3782 521.381,-77.7085"/>
<polygon fill="#191970" stroke="#191970" points="522.7732,-74.4972 512.2142,-73.6261 519.9253,-80.8917 522.7732,-74.4972"/>
</g>
<!-- Node9&#45;&gt;Node5 -->
<g id="edge13" class="edge">
<title>Node9&#45;&gt;Node5</title>
<path fill="none" stroke="#191970" d="M736.2449,-165.4179C734.2593,-158.1372 731.4043,-147.669 728.9216,-138.5659"/>
<polygon fill="#191970" stroke="#191970" points="732.2605,-137.5062 726.2526,-128.7795 725.5072,-139.348 732.2605,-137.5062"/>
</g>
<!-- Node13&#45;&gt;Node2 -->
<g id="edge20" class="edge">
<title>Node13&#45;&gt;Node2</title>
<path fill="none" stroke="#191970" d="M291.6591,-225.4959C318.4355,-219.7883 364.1628,-207.3216 396.7218,-184 435.5063,-156.2193 466.7175,-108.4245 481.8303,-82.496"/>
<polygon fill="#191970" stroke="#191970" points="484.9213,-84.1406 486.8164,-73.7166 478.8345,-80.6836 484.9213,-84.1406"/>
</g>
<!-- Node13&#45;&gt;Node7 -->
<g id="edge21" class="edge">
<title>Node13&#45;&gt;Node7</title>
<path fill="none" stroke="#191970" d="M270.3056,-220.327C272.4047,-187.3409 279.5984,-74.2972 282.4969,-28.7484"/>
<polygon fill="#191970" stroke="#191970" points="285.9934,-28.9143 283.1356,-18.7122 279.0075,-28.4697 285.9934,-28.9143"/>
</g>
<!-- Node14 -->
<g id="node15" class="node">
<title>Node14</title>
<g id="a_node15"><a xlink:href="vlib_8h.html" target="_top" xlink:title="Contains misc helpful functions. ">
<polygon fill="none" stroke="#000000" points="178.0495,-165.5 178.0495,-183.5 217.3942,-183.5 217.3942,-165.5 178.0495,-165.5"/>
<text text-anchor="middle" x="197.7218" y="-171.5" font-family="Helvetica,sans-Serif" font-size="10.00" fill="#000000">vlib.h</text>
</a>
</g>
</g>
<!-- Node13&#45;&gt;Node14 -->
<g id="edge22" class="edge">
<title>Node13&#45;&gt;Node14</title>
<path fill="none" stroke="#191970" d="M257.8325,-220.4179C247.0583,-212.1876 230.9517,-199.8839 218.1221,-190.0836"/>
<polygon fill="#191970" stroke="#191970" points="219.9409,-187.0685 209.8695,-183.7795 215.6916,-192.6313 219.9409,-187.0685"/>
</g>
<!-- Node14&#45;&gt;Node2 -->
<g id="edge23" class="edge">
<title>Node14&#45;&gt;Node2</title>
<path fill="none" stroke="#191970" d="M215.9093,-165.3655C242.7649,-152.0925 294.8104,-127.1868 340.7218,-110 381.959,-94.563 430.9762,-80.565 461.7246,-72.2901"/>
<polygon fill="#191970" stroke="#191970" points="462.652,-75.6652 471.4144,-69.7095 460.8504,-68.901 462.652,-75.6652"/>
</g>
<!-- Node14&#45;&gt;Node7 -->
<g id="edge24" class="edge">
<title>Node14&#45;&gt;Node7</title>
<path fill="none" stroke="#191970" d="M202.592,-165.1561C216.369,-138.7235 255.8055,-63.0604 274.1381,-27.8875"/>
<polygon fill="#191970" stroke="#191970" points="277.3868,-29.2269 278.9051,-18.7414 271.1793,-25.9915 277.3868,-29.2269"/>
</g>
<!-- Node15 -->
<g id="node16" class="node">
<title>Node15</title>
<polygon fill="none" stroke="#bfbfbf" points="136.3253,-110.5 136.3253,-128.5 185.1183,-128.5 185.1183,-110.5 136.3253,-110.5"/>
<text text-anchor="middle" x="160.7218" y="-116.5" font-family="Helvetica,sans-Serif" font-size="10.00" fill="#000000">string.h</text>
</g>
<!-- Node14&#45;&gt;Node15 -->
<g id="edge25" class="edge">
<title>Node14&#45;&gt;Node15</title>
<path fill="none" stroke="#191970" d="M191.612,-165.4179C186.448,-157.7415 178.9001,-146.5217 172.5581,-137.0945"/>
<polygon fill="#191970" stroke="#191970" points="175.4502,-135.1231 166.9644,-128.7795 169.6422,-139.0303 175.4502,-135.1231"/>
</g>
<!-- Node16&#45;&gt;Node2 -->
<g id="edge29" class="edge">
<title>Node16&#45;&gt;Node2</title>
<path fill="none" stroke="#191970" d="M378.7798,-165.2547C392.49,-152.6772 417.8447,-129.5053 439.7218,-110 450.9141,-100.0212 463.5742,-88.9392 473.6002,-80.2106"/>
<polygon fill="#191970" stroke="#191970" points="476.0606,-82.7094 481.3125,-73.5079 471.4687,-77.4259 476.0606,-82.7094"/>
</g>
<!-- Node16&#45;&gt;Node3 -->
<g id="edge28" class="edge">
<title>Node16&#45;&gt;Node3</title>
<path fill="none" stroke="#191970" d="M368.7218,-165.4179C368.7218,-158.2164 368.7218,-147.8962 368.7218,-138.8632"/>
<polygon fill="#191970" stroke="#191970" points="372.2219,-138.7794 368.7218,-128.7795 365.2219,-138.7795 372.2219,-138.7794"/>
</g>
<!-- Node17&#45;&gt;Node2 -->
<g id="edge31" class="edge">
<title>Node17&#45;&gt;Node2</title>
<path fill="none" stroke="#191970" d="M859.7073,-275.1941C859.0799,-244.2711 852.2725,-144.9338 791.7218,-110 746.2293,-83.7538 589.598,-70.7897 522.5607,-66.3401"/>
<polygon fill="#191970" stroke="#191970" points="522.4366,-62.8249 512.2324,-65.6753 521.9869,-69.8105 522.4366,-62.8249"/>
</g>
<!-- Node18&#45;&gt;Node2 -->
<g id="edge33" class="edge">
<title>Node18&#45;&gt;Node2</title>
<path fill="none" stroke="#191970" d="M148.8358,-226.533C106.0301,-220.8621 21.3479,-206.9641 3.7218,-184 -1.4198,-177.3013 -.8823,-172.0789 3.7218,-165 54.2372,-87.3325 361.9207,-69.2758 461.0062,-65.4507"/>
<polygon fill="#191970" stroke="#191970" points="461.3795,-68.9395 471.2456,-65.0781 461.1249,-61.9442 461.3795,-68.9395"/>
</g>
<!-- Node18&#45;&gt;Node3 -->
<g id="edge34" class="edge">
<title>Node18&#45;&gt;Node3</title>
<path fill="none" stroke="#191970" d="M189.6795,-220.4982C223.6031,-201.3619 303.1038,-156.5153 343.7839,-133.5675"/>
<polygon fill="#191970" stroke="#191970" points="345.5535,-136.5878 352.5437,-128.6261 342.1142,-130.491 345.5535,-136.5878"/>
</g>
<!-- Node18&#45;&gt;Node14 -->
<g id="edge38" class="edge">
<title>Node18&#45;&gt;Node14</title>
<path fill="none" stroke="#191970" d="M177.6849,-220.4179C180.931,-212.9789 185.6292,-202.2123 189.6604,-192.9742"/>
<polygon fill="#191970" stroke="#191970" points="192.881,-194.3447 193.6726,-183.7795 186.4652,-191.545 192.881,-194.3447"/>
</g>
<!-- Node18&#45;&gt;Node15 -->
<g id="edge37" class="edge">
<title>Node18&#45;&gt;Node15</title>
<path fill="none" stroke="#191970" d="M172.658,-220.4982C170.5535,-202.6913 165.8181,-162.6225 162.9852,-138.6515"/>
<polygon fill="#191970" stroke="#191970" points="166.4499,-138.1462 161.8004,-128.6261 159.4983,-138.9678 166.4499,-138.1462"/>
</g>
<!-- Node18&#45;&gt;Node16 -->
<g id="edge39" class="edge">
<title>Node18&#45;&gt;Node16</title>
<path fill="none" stroke="#191970" d="M198.4187,-222.5342C234.4843,-212.3619 301.4273,-193.4805 339.7634,-182.6678"/>
<polygon fill="#191970" stroke="#191970" points="341.0937,-185.9292 349.7681,-179.8459 339.1935,-179.192 341.0937,-185.9292"/>
</g>
<!-- Node19 -->
<g id="node20" class="node">
<title>Node19</title>
<polygon fill="none" stroke="#bfbfbf" points="13.1012,-165.5 13.1012,-183.5 56.3424,-183.5 56.3424,-165.5 13.1012,-165.5"/>
<text text-anchor="middle" x="34.7218" y="-171.5" font-family="Helvetica,sans-Serif" font-size="10.00" fill="#000000">float.h</text>
</g>
<!-- Node18&#45;&gt;Node19 -->
<g id="edge35" class="edge">
<title>Node18&#45;&gt;Node19</title>
<path fill="none" stroke="#191970" d="M150.7688,-220.4179C127.6583,-211.2734 91.8395,-197.1005 66.1097,-186.9197"/>
<polygon fill="#191970" stroke="#191970" points="67.3763,-183.6569 56.79,-183.232 64.8008,-190.1658 67.3763,-183.6569"/>
</g>
<!-- Node20 -->
<g id="node21" class="node">
<title>Node20</title>
<polygon fill="none" stroke="#bfbfbf" points="74.1652,-165.5 74.1652,-183.5 121.2785,-183.5 121.2785,-165.5 74.1652,-165.5"/>
<text text-anchor="middle" x="97.7218" y="-171.5" font-family="Helvetica,sans-Serif" font-size="10.00" fill="#000000">limits.h</text>
</g>
<!-- Node18&#45;&gt;Node20 -->
<g id="edge36" class="edge">
<title>Node18&#45;&gt;Node20</title>
<path fill="none" stroke="#191970" d="M161.172,-220.4179C149.6207,-212.0584 132.2626,-199.4966 118.6203,-189.6239"/>
<polygon fill="#191970" stroke="#191970" points="120.4435,-186.6229 110.2903,-183.5956 116.3396,-192.2938 120.4435,-186.6229"/>
</g>
</g>
</svg>
        <g id="navigator" transform="translate(0 0)" fill="#404254">
                <rect fill="#f2f5e9" fill-opacity="0.5" stroke="#606060" stroke-width=".5" x="0" y="0" width="60" height="60"/>
                <use id="zoomplus" xlink:href="#zoomPlus" x="17" y="9" onmousedown="handleZoom(evt,'in')"/>
                <use id="zoomminus" xlink:href="#zoomMin" x="42" y="9" onmousedown="handleZoom(evt,'out')"/>
                <use id="reset" xlink:href="#resetDef" x="30" y="36" onmousedown="handleReset()"/>
                <g id="arrowUp" xlink:href="#dirArrow" transform="translate(30 24)" onmousedown="handlePan(0,-1)">
                  <use xlink:href="#rim" fill="#404040">
                        <set attributeName="fill" to="#808080" begin="arrowUp.mouseover" end="arrowUp.mouseout"/>
                  </use>
                  <path fill="none" stroke="white" stroke-width="1.5" d="M0,-3.0v7 M-2.5,-0.5L0,-3.0L2.5,-0.5"/>
                </g>
                <g id="arrowRight" xlink:href="#dirArrow" transform="rotate(90) translate(36 -43)" onmousedown="handlePan(1,0)">
                  <use xlink:href="#rim" fill="#404040">
                        <set attributeName="fill" to="#808080" begin="arrowRight.mouseover" end="arrowRight.mouseout"/>
                  </use>
                  <path fill="none" stroke="white" stroke-width="1.5" d="M0,-3.0v7 M-2.5,-0.5L0,-3.0L2.5,-0.5"/>
                </g>
                <g id="arrowDown" xlink:href="#dirArrow" transform="rotate(180) translate(-30 -48)" onmousedown="handlePan(0,1)">
                  <use xlink:href="#rim" fill="#404040">
                        <set attributeName="fill" to="#808080" begin="arrowDown.mouseover" end="arrowDown.mouseout"/>
                  </use>
                  <path fill="none" stroke="white" stroke-width="1.5" d="M0,-3.0v7 M-2.5,-0.5L0,-3.0L2.5,-0.5"/>
                </g>
                <g id="arrowLeft" xlink:href="#dirArrow" transform="rotate(270) translate(-36 17)" onmousedown="handlePan(-1,0)">
                  <use xlink:href="#rim" fill="#404040">
                        <set attributeName="fill" to="#808080" begin="arrowLeft.mouseover" end="arrowLeft.mouseout"/>
                  </use>
                  <path fill="none" stroke="white" stroke-width="1.5" d="M0,-3.0v7 M-2.5,-0.5L0,-3.0L2.5,-0.5"/>
                </g>
        </g>
        <svg viewBox="0 0 15 15" width="100%" height="30px" preserveAspectRatio="xMaxYMin meet">
         <g id="arrow_out" transform="scale(0.3 0.3)">
          <a xlink:href="init_8c__incl_org.svg" target="_base">
           <rect id="button" ry="5" rx="5" y="6" x="6" height="38" width="38"
                fill="#f2f5e9" fill-opacity="0.5" stroke="#606060" stroke-width="1.0"/>
           <path id="arrow"
             d="M 11.500037,31.436501 C 11.940474,20.09759 22.043105,11.32322 32.158766,21.979434 L 37.068811,17.246167 C 37.068811,17.246167 37.088388,32 37.088388,32 L 22.160133,31.978069 C 22.160133,31.978069 26.997745,27.140456 26.997745,27.140456 C 18.528582,18.264221 13.291696,25.230495 11.500037,31.436501 z"
             style="fill:#404040;"/>
          </a>
         </g>
        </svg>
</svg>
