<?xml version="1.0" encoding="UTF-8" standalone="no"?>
<!DOCTYPE svg PUBLIC "-//W3C//DTD SVG 1.1//EN"
 "http://www.w3.org/Graphics/SVG/1.1/DTD/svg11.dtd">
<!-- Generated by graphviz version 2.40.1 (20161225.0304)
 -->
<!-- Title: initialize Pages: 1 -->
<svg width="311pt" height="138pt"
 viewBox="0.00 0.00 311.42 138.00" xmlns="http://www.w3.org/2000/svg" xmlns:xlink="http://www.w3.org/1999/xlink">
<g id="graph0" class="graph" transform="scale(1 1) rotate(0) translate(4 134)">
<title>initialize</title>
<polygon fill="#ffffff" stroke="transparent" points="-4,4 -4,-134 307.4229,-134 307.4229,4 -4,4"/>
<!-- Node0 -->
<g id="node1" class="node">
<title>Node0</title>
<polygon fill="#bfbfbf" stroke="#000000" points="0,-55.5 0,-73.5 51.5713,-73.5 51.5713,-55.5 0,-55.5"/>
<text text-anchor="middle" x="25.7856" y="-61.5" font-family="Helvetica,sans-Serif" font-size="10.00" fill="#000000">initialize</text>
</g>
<!-- Node1 -->
<g id="node2" class="node">
<title>Node1</title>
<g id="a_node2"><a xlink:href="_a_p_i_8h.html#a51af160afcbfb860dfff75d91ffb3824" target="_top" xlink:title="lcdInit">
<polygon fill="#ffffff" stroke="#000000" points="116.7583,-111.5 116.7583,-129.5 158.8813,-129.5 158.8813,-111.5 116.7583,-111.5"/>
<text text-anchor="middle" x="137.8198" y="-117.5" font-family="Helvetica,sans-Serif" font-size="10.00" fill="#000000">lcdInit</text>
</a>
</g>
</g>
<!-- Node0&#45;&gt;Node1 -->
<g id="edge1" class="edge">
<title>Node0&#45;&gt;Node1</title>
<path fill="none" stroke="#191970" d="M39.0693,-73.7924C51.2814,-82.0589 70.0892,-94.105 87.5713,-102.5 93.6013,-105.3957 100.2261,-108.0895 106.6308,-110.4652"/>
<polygon fill="#191970" stroke="#191970" points="105.8021,-113.8845 116.3968,-113.9196 108.1364,-107.2852 105.8021,-113.8845"/>
</g>
<!-- Node2 -->
<g id="node3" class="node">
<title>Node2</title>
<g id="a_node3"><a xlink:href="encoders_8h.html#aa6ec1ca17e907babd52803ecba451cd3" target="_top" xlink:title="init_encoders">
<polygon fill="#ffffff" stroke="#000000" points="100.0786,-74.5 100.0786,-92.5 175.561,-92.5 175.561,-74.5 100.0786,-74.5"/>
<text text-anchor="middle" x="137.8198" y="-80.5" font-family="Helvetica,sans-Serif" font-size="10.00" fill="#000000">init_encoders</text>
</a>
</g>
</g>
<!-- Node0&#45;&gt;Node2 -->
<g id="edge2" class="edge">
<title>Node0&#45;&gt;Node2</title>
<path fill="none" stroke="#191970" d="M51.7701,-68.9067C62.9914,-70.8098 76.4953,-73.0999 89.4441,-75.2959"/>
<polygon fill="#191970" stroke="#191970" points="89.2111,-78.8063 99.6556,-77.0277 90.3816,-71.9048 89.2111,-78.8063"/>
</g>
<!-- Node4 -->
<g id="node5" class="node">
<title>Node4</title>
<g id="a_node5"><a xlink:href="_a_p_i_8h.html#aeafd247b27813122cfee95e0cecf188b" target="_top" xlink:title="lcdSetBacklight">
<polygon fill="#ffffff" stroke="#000000" points="95.6353,-37.5 95.6353,-55.5 180.0044,-55.5 180.0044,-37.5 95.6353,-37.5"/>
<text text-anchor="middle" x="137.8198" y="-43.5" font-family="Helvetica,sans-Serif" font-size="10.00" fill="#000000">lcdSetBacklight</text>
</a>
</g>
</g>
<!-- Node0&#45;&gt;Node4 -->
<g id="edge4" class="edge">
<title>Node0&#45;&gt;Node4</title>
<path fill="none" stroke="#191970" d="M51.7701,-60.3252C61.7692,-58.7187 73.5809,-56.821 85.1972,-54.9546"/>
<polygon fill="#191970" stroke="#191970" points="85.9866,-58.3728 95.3048,-53.3307 84.8761,-51.4614 85.9866,-58.3728"/>
</g>
<!-- Node5 -->
<g id="node6" class="node">
<title>Node5</title>
<g id="a_node6"><a xlink:href="_a_p_i_8h.html#a91ac9eacbf0930cd5f26bc12b90b9efd" target="_top" xlink:title="powerLevelBackup">
<polygon fill="#ffffff" stroke="#000000" points="87.5713,-.5 87.5713,-18.5 188.0684,-18.5 188.0684,-.5 87.5713,-.5"/>
<text text-anchor="middle" x="137.8198" y="-6.5" font-family="Helvetica,sans-Serif" font-size="10.00" fill="#000000">powerLevelBackup</text>
</a>
</g>
</g>
<!-- Node0&#45;&gt;Node5 -->
<g id="edge5" class="edge">
<title>Node0&#45;&gt;Node5</title>
<path fill="none" stroke="#191970" d="M40.1451,-55.2139C52.4363,-47.4914 70.7592,-36.5082 87.5713,-28.5 92.1892,-26.3003 97.1346,-24.1711 102.0554,-22.1832"/>
<polygon fill="#191970" stroke="#191970" points="103.3425,-25.438 111.3952,-18.5529 100.8065,-18.9136 103.3425,-25.438"/>
</g>
<!-- Node3 -->
<g id="node4" class="node">
<title>Node3</title>
<g id="a_node4"><a xlink:href="_a_p_i_8h.html#a868ab46aa5992e60829936c0109160bf" target="_top" xlink:title="imeInitializeAll">
<polygon fill="#ffffff" stroke="#000000" points="224.0684,-74.5 224.0684,-92.5 303.4229,-92.5 303.4229,-74.5 224.0684,-74.5"/>
<text text-anchor="middle" x="263.7456" y="-80.5" font-family="Helvetica,sans-Serif" font-size="10.00" fill="#000000">imeInitializeAll</text>
</a>
</g>
</g>
<!-- Node2&#45;&gt;Node3 -->
<g id="edge3" class="edge">
<title>Node2&#45;&gt;Node3</title>
<path fill="none" stroke="#191970" d="M175.6017,-83.5C187.6062,-83.5 201.0728,-83.5 213.7978,-83.5"/>
<polygon fill="#191970" stroke="#191970" points="213.8019,-87.0001 223.8019,-83.5 213.8019,-80.0001 213.8019,-87.0001"/>
</g>
</g>
</svg>
