<?xml version="1.0" encoding="UTF-8" standalone="no"?>
<!DOCTYPE svg PUBLIC "-//W3C//DTD SVG 1.1//EN"
 "http://www.w3.org/Graphics/SVG/1.1/DTD/svg11.dtd">
<!-- Generated by graphviz version 2.40.1 (20161225.0304)
 -->
<!-- Title: src/init.c Pages: 1 -->
<!--zoomable 247 -->
<svg id="main" version="1.1" xmlns="http://www.w3.org/2000/svg" xmlns:xlink="http://www.w3.org/1999/xlink" xml:space="preserve" onload="init(evt)">
<style type="text/css"><![CDATA[
.edge:hover path { stroke: red; }
.edge:hover polygon { stroke: red; fill: red; }
]]></style>
<script type="text/javascript"><![CDATA[
var edges = document.getElementsByTagName('g');
if (edges && edges.length) {
  for (var i=0;i<edges.length;i++) {
    if (edges[i].id.substr(0,4)=='edge') {
      edges[i].setAttribute('class','edge');
    }
  }
}
]]></script>
        <defs>
                <circle id="rim" cx="0" cy="0" r="7"/>
                <circle id="rim2" cx="0" cy="0" r="3.5"/>
                <g id="zoomPlus">
                        <use xlink:href="#rim" fill="#404040">
                                <set attributeName="fill" to="#808080" begin="zoomplus.mouseover" end="zoomplus.mouseout"/>
                        </use>
                        <path d="M-4,0h8M0,-4v8" fill="none" stroke="white" stroke-width="1.5" pointer-events="none"/>
                </g>
                <g id="zoomMin">
                        <use xlink:href="#rim" fill="#404040">
                                <set attributeName="fill" to="#808080" begin="zoomminus.mouseover" end="zoomminus.mouseout"/>
                        </use>
                        <path d="M-4,0h8" fill="none" stroke="white" stroke-width="1.5" pointer-events="none"/>
                </g>
                <g id="dirArrow">
                        <path fill="none" stroke="white" stroke-width="1.5" d="M0,-3.0v7 M-2.5,-0.5L0,-3.0L2.5,-0.5"/>
                </g>
               <g id="resetDef">
                       <use xlink:href="#rim2" fill="#404040">
                               <set attributeName="fill" to="#808080" begin="reset.mouseover" end="reset.mouseout"/>
                       </use>
               </g>
        </defs>

<script type="text/javascript">
var viewWidth = 560;
var viewHeight = 247;
var sectionId = 'dynsection-0';
</script>
<script xlink:href="svgpan.js"/>
<svg id="graph" class="graph">
<g id="viewport">
<title>src/init.c</title>
<!-- Node0 -->
<g id="node1" class="node">
<title>Node0</title>
<polygon fill="#bfbfbf" stroke="#000000" points="265.5073,-220.5 265.5073,-238.5 318.1772,-238.5 318.1772,-220.5 265.5073,-220.5"/>
<text text-anchor="middle" x="291.8423" y="-226.5" font-family="Helvetica,sans-Serif" font-size="10.00" fill="#000000">src/init.c</text>
</g>
<!-- Node1 -->
<g id="node2" class="node">
<title>Node1</title>
<g id="a_node2"><a xlink:href="main_8h.html" target="_top" xlink:title="Header file for global functions. ">
<polygon fill="none" stroke="#000000" points="505.835,-55.5 505.835,-73.5 551.8496,-73.5 551.8496,-55.5 505.835,-55.5"/>
<text text-anchor="middle" x="528.8423" y="-61.5" font-family="Helvetica,sans-Serif" font-size="10.00" fill="#000000">main.h</text>
</a>
</g>
</g>
<!-- Node0&#45;&gt;Node1 -->
<g id="edge1" class="edge">
<title>Node0&#45;&gt;Node1</title>
<path fill="none" stroke="#191970" d="M318.3195,-226.594C366.0695,-220.8478 463.9633,-206.5979 488.8423,-184 517.6207,-157.8603 525.7198,-110.4296 527.982,-83.8617"/>
<polygon fill="#191970" stroke="#191970" points="531.4946,-83.7803 528.6509,-73.5742 524.5093,-83.326 531.4946,-83.7803"/>
</g>
<!-- Node3 -->
<g id="node4" class="node">
<title>Node3</title>
<g id="a_node4"><a xlink:href="slew_8h.html" target="_top" xlink:title="Contains the slew rate controller wrapper for the motors. ">
<polygon fill="none" stroke="#000000" points="341.9434,-165.5 341.9434,-183.5 385.7412,-183.5 385.7412,-165.5 341.9434,-165.5"/>
<text text-anchor="middle" x="363.8423" y="-171.5" font-family="Helvetica,sans-Serif" font-size="10.00" fill="#000000">slew.h</text>
</a>
</g>
</g>
<!-- Node0&#45;&gt;Node3 -->
<g id="edge3" class="edge">
<title>Node0&#45;&gt;Node3</title>
<path fill="none" stroke="#191970" d="M303.7316,-220.4179C314.5058,-212.1876 330.6125,-199.8839 343.442,-190.0836"/>
<polygon fill="#191970" stroke="#191970" points="345.8726,-192.6313 351.6946,-183.7795 341.6232,-187.0685 345.8726,-192.6313"/>
</g>
<!-- Node7 -->
<g id="node8" class="node">
<title>Node7</title>
<g id="a_node8"><a xlink:href="lcd_8h.html" target="_top" xlink:title="LCD wrapper functions and macros. ">
<polygon fill="none" stroke="#000000" points="69.2808,-55.5 69.2808,-73.5 106.4038,-73.5 106.4038,-55.5 69.2808,-55.5"/>
<text text-anchor="middle" x="87.8423" y="-61.5" font-family="Helvetica,sans-Serif" font-size="10.00" fill="#000000">lcd.h</text>
</a>
</g>
</g>
<!-- Node0&#45;&gt;Node7 -->
<g id="edge10" class="edge">
<title>Node0&#45;&gt;Node7</title>
<path fill="none" stroke="#191970" d="M265.0555,-222.5676C239.6324,-215.2809 200.9421,-202.3179 170.8423,-184 139.6589,-165.0227 129.9356,-159.4762 109.8423,-129 100.7859,-115.2638 95.0768,-97.4183 91.7508,-83.9812"/>
<polygon fill="#191970" stroke="#191970" points="95.0979,-82.9109 89.4963,-73.9179 88.2672,-84.4412 95.0979,-82.9109"/>
</g>
<!-- Node8 -->
<g id="node9" class="node">
<title>Node8</title>
<g id="a_node9"><a xlink:href="log_8h.html" target="_top" xlink:title="Contains logging functions. ">
<polygon fill="none" stroke="#000000" points="0,-110.5 0,-128.5 37.6846,-128.5 37.6846,-110.5 0,-110.5"/>
<text text-anchor="middle" x="18.8423" y="-116.5" font-family="Helvetica,sans-Serif" font-size="10.00" fill="#000000">log.h</text>
</a>
</g>
</g>
<!-- Node0&#45;&gt;Node8 -->
<g id="edge12" class="edge">
<title>Node0&#45;&gt;Node8</title>
<path fill="none" stroke="#191970" d="M265.2241,-227.3897C210.0094,-222.5516 85.3673,-209.0979 51.8423,-184 36.9334,-172.8387 28.2313,-153.0122 23.5436,-138.2774"/>
<polygon fill="#191970" stroke="#191970" points="26.9069,-137.3084 20.8083,-128.6448 20.1731,-139.2205 26.9069,-137.3084"/>
</g>
<!-- Node9 -->
<g id="node10" class="node">
<title>Node9</title>
<g id="a_node10"><a xlink:href="encoders_8h.html" target="_top" xlink:title="wrapper around encoder functions ">
<polygon fill="none" stroke="#000000" points="414.1035,-165.5 414.1035,-183.5 479.5811,-183.5 479.5811,-165.5 414.1035,-165.5"/>
<text text-anchor="middle" x="446.8423" y="-171.5" font-family="Helvetica,sans-Serif" font-size="10.00" fill="#000000">encoders.h</text>
</a>
</g>
</g>
<!-- Node0&#45;&gt;Node9 -->
<g id="edge15" class="edge">
<title>Node0&#45;&gt;Node9</title>
<path fill="none" stroke="#191970" d="M317.4374,-220.4179C343.2043,-211.2748 383.1384,-197.1046 411.8291,-186.924"/>
<polygon fill="#191970" stroke="#191970" points="413.213,-190.1469 421.4668,-183.5042 410.872,-183.5499 413.213,-190.1469"/>
</g>
<!-- Node10 -->
<g id="node11" class="node">
<title>Node10</title>
<g id="a_node11"><a xlink:href="menu_8h.html" target="_top" xlink:title="Contains menu functionality and abstraction. ">
<polygon fill="none" stroke="#000000" points="180.165,-165.5 180.165,-183.5 229.5195,-183.5 229.5195,-165.5 180.165,-165.5"/>
<text text-anchor="middle" x="204.8423" y="-171.5" font-family="Helvetica,sans-Serif" font-size="10.00" fill="#000000">menu.h</text>
</a>
</g>
</g>
<!-- Node0&#45;&gt;Node10 -->
<g id="edge17" class="edge">
<title>Node0&#45;&gt;Node10</title>
<path fill="none" stroke="#191970" d="M277.476,-220.4179C264.0009,-211.8992 243.623,-199.0166 227.8779,-189.0627"/>
<polygon fill="#191970" stroke="#191970" points="229.5528,-185.9808 219.2299,-183.5956 225.8122,-191.8977 229.5528,-185.9808"/>
</g>
<!-- Node2 -->
<g id="node3" class="node">
<title>Node2</title>
<polygon fill="none" stroke="#bfbfbf" points="317.6133,-.5 317.6133,-18.5 358.0713,-18.5 358.0713,-.5 317.6133,-.5"/>
<text text-anchor="middle" x="337.8423" y="-6.5" font-family="Helvetica,sans-Serif" font-size="10.00" fill="#000000">API.h</text>
</g>
<!-- Node1&#45;&gt;Node2 -->
<g id="edge2" class="edge">
<title>Node1&#45;&gt;Node2</title>
<path fill="none" stroke="#191970" d="M505.8032,-57.8657C471.4308,-47.9679 406.6775,-29.3216 368.3921,-18.2971"/>
<polygon fill="#191970" stroke="#191970" points="368.9209,-14.8072 358.3428,-15.4033 366.9838,-21.5338 368.9209,-14.8072"/>
</g>
<!-- Node3&#45;&gt;Node2 -->
<g id="edge4" class="edge">
<title>Node3&#45;&gt;Node2</title>
<path fill="none" stroke="#191970" d="M374.5279,-165.2188C396.7786,-144.736 444.1503,-94.3578 420.8423,-55 409.4148,-35.7035 386.5833,-24.0501 367.7542,-17.3746"/>
<polygon fill="#191970" stroke="#191970" points="368.6714,-13.9928 358.0795,-14.2423 366.5152,-20.6524 368.6714,-13.9928"/>
</g>
<!-- Node4 -->
<g id="node5" class="node">
<title>Node4</title>
<polygon fill="none" stroke="#bfbfbf" points="365.5566,-55.5 365.5566,-73.5 412.1279,-73.5 412.1279,-55.5 365.5566,-55.5"/>
<text text-anchor="middle" x="388.8423" y="-61.5" font-family="Helvetica,sans-Serif" font-size="10.00" fill="#000000">math.h</text>
</g>
<!-- Node3&#45;&gt;Node4 -->
<g id="edge5" class="edge">
<title>Node3&#45;&gt;Node4</title>
<path fill="none" stroke="#191970" d="M368.6261,-165.3715C373.1014,-156.3801 379.5726,-142.1242 382.8423,-129 386.5432,-114.1451 388.0047,-96.8509 388.562,-83.9118"/>
<polygon fill="#191970" stroke="#191970" points="392.0628,-83.9296 388.8525,-73.8329 385.0658,-83.7278 392.0628,-83.9296"/>
</g>
<!-- Node5 -->
<g id="node6" class="node">
<title>Node5</title>
<g id="a_node6"><a xlink:href="vlib_8h.html" target="_top" xlink:title="Contains misc helpful functions. ">
<polygon fill="none" stroke="#000000" points="334.1699,-110.5 334.1699,-128.5 373.5146,-128.5 373.5146,-110.5 334.1699,-110.5"/>
<text text-anchor="middle" x="353.8423" y="-116.5" font-family="Helvetica,sans-Serif" font-size="10.00" fill="#000000">vlib.h</text>
</a>
</g>
</g>
<!-- Node3&#45;&gt;Node5 -->
<g id="edge6" class="edge">
<title>Node3&#45;&gt;Node5</title>
<path fill="none" stroke="#191970" d="M362.191,-165.4179C360.8816,-158.2164 359.0052,-147.8962 357.3629,-138.8632"/>
<polygon fill="#191970" stroke="#191970" points="360.7619,-137.992 355.5295,-128.7795 353.8748,-139.2443 360.7619,-137.992"/>
</g>
<!-- Node5&#45;&gt;Node2 -->
<g id="edge8" class="edge">
<title>Node5&#45;&gt;Node2</title>
<path fill="none" stroke="#191970" d="M352.5329,-110.4982C349.9428,-92.6913 344.1146,-52.6225 340.628,-28.6515"/>
<polygon fill="#191970" stroke="#191970" points="344.0728,-28.0182 339.1697,-18.6261 337.1457,-29.0258 344.0728,-28.0182"/>
</g>
<!-- Node5&#45;&gt;Node4 -->
<g id="edge7" class="edge">
<title>Node5&#45;&gt;Node4</title>
<path fill="none" stroke="#191970" d="M359.6218,-110.4179C364.4564,-102.8207 371.4997,-91.7527 377.4599,-82.3866"/>
<polygon fill="#191970" stroke="#191970" points="380.5212,-84.0952 382.9372,-73.7795 374.6156,-80.337 380.5212,-84.0952"/>
</g>
<!-- Node6 -->
<g id="node7" class="node">
<title>Node6</title>
<polygon fill="none" stroke="#bfbfbf" points="215.4458,-55.5 215.4458,-73.5 264.2388,-73.5 264.2388,-55.5 215.4458,-55.5"/>
<text text-anchor="middle" x="239.8423" y="-61.5" font-family="Helvetica,sans-Serif" font-size="10.00" fill="#000000">string.h</text>
</g>
<!-- Node5&#45;&gt;Node6 -->
<g id="edge9" class="edge">
<title>Node5&#45;&gt;Node6</title>
<path fill="none" stroke="#191970" d="M335.0175,-110.4179C316.7005,-101.5807 288.6494,-88.0473 267.7393,-77.9591"/>
<polygon fill="#191970" stroke="#191970" points="269.2225,-74.7887 258.695,-73.5956 266.1808,-81.0933 269.2225,-74.7887"/>
</g>
<!-- Node7&#45;&gt;Node2 -->
<g id="edge11" class="edge">
<title>Node7&#45;&gt;Node2</title>
<path fill="none" stroke="#191970" d="M106.5461,-59.9769C113.2557,-58.3757 120.8818,-56.5804 127.8423,-55 191.7608,-40.4867 266.8641,-24.4619 307.6885,-15.8373"/>
<polygon fill="#191970" stroke="#191970" points="308.4782,-19.2478 317.5404,-13.7591 307.0333,-12.3985 308.4782,-19.2478"/>
</g>
<!-- Node8&#45;&gt;Node2 -->
<g id="edge13" class="edge">
<title>Node8&#45;&gt;Node2</title>
<path fill="none" stroke="#191970" d="M21.9121,-110.2553C27.2,-95.8859 39.4661,-68.4491 59.8423,-55 100.1632,-28.3867 243.8282,-15.7512 307.3082,-11.3697"/>
<polygon fill="#191970" stroke="#191970" points="307.7398,-14.8487 317.4848,-10.691 307.274,-7.8643 307.7398,-14.8487"/>
</g>
<!-- Node8&#45;&gt;Node7 -->
<g id="edge14" class="edge">
<title>Node8&#45;&gt;Node7</title>
<path fill="none" stroke="#191970" d="M30.2362,-110.4179C40.5615,-102.1876 55.997,-89.8839 68.292,-80.0836"/>
<polygon fill="#191970" stroke="#191970" points="70.5626,-82.7495 76.2008,-73.7795 66.1994,-77.2757 70.5626,-82.7495"/>
</g>
<!-- Node9&#45;&gt;Node2 -->
<g id="edge16" class="edge">
<title>Node9&#45;&gt;Node2</title>
<path fill="none" stroke="#191970" d="M449.1235,-165.3963C453.9333,-143.9553 462.8069,-89.4942 438.8423,-55 422.6885,-31.7485 391.7135,-20.1924 368.3055,-14.5698"/>
<polygon fill="#191970" stroke="#191970" points="368.9972,-11.1385 358.4832,-12.4448 367.5169,-17.9802 368.9972,-11.1385"/>
</g>
<!-- Node10&#45;&gt;Node2 -->
<g id="edge19" class="edge">
<title>Node10&#45;&gt;Node2</title>
<path fill="none" stroke="#191970" d="M201.3771,-165.2531C198.1727,-156.1739 193.6427,-141.8549 191.8423,-129 187.1878,-95.7666 183.9342,-79.5223 206.8423,-55 233.0437,-26.9523 277.4144,-16.1923 307.1638,-12.0656"/>
<polygon fill="#191970" stroke="#191970" points="307.8952,-15.5027 317.4018,-10.8256 307.0535,-8.5534 307.8952,-15.5027"/>
</g>
<!-- Node10&#45;&gt;Node5 -->
<g id="edge23" class="edge">
<title>Node10&#45;&gt;Node5</title>
<path fill="none" stroke="#191970" d="M229.4466,-165.4179C255.5067,-155.7984 296.6416,-140.6144 324.4039,-130.3665"/>
<polygon fill="#191970" stroke="#191970" points="325.8052,-133.5802 333.9744,-126.8338 323.3811,-127.0133 325.8052,-133.5802"/>
</g>
<!-- Node10&#45;&gt;Node6 -->
<g id="edge20" class="edge">
<title>Node10&#45;&gt;Node6</title>
<path fill="none" stroke="#191970" d="M201.5117,-165.3899C197.3692,-152.5707 191.6648,-128.6874 198.8423,-110 203.176,-98.7166 211.7449,-88.4827 219.9333,-80.5908"/>
<polygon fill="#191970" stroke="#191970" points="222.4126,-83.0686 227.5168,-73.7843 217.7369,-77.8591 222.4126,-83.0686"/>
</g>
<!-- Node10&#45;&gt;Node7 -->
<g id="edge18" class="edge">
<title>Node10&#45;&gt;Node7</title>
<path fill="none" stroke="#191970" d="M183.7231,-165.4619C167.1218,-157.599 144.1541,-144.9664 127.8423,-129 114.2034,-115.6499 103.1931,-96.7586 96.2031,-82.8702"/>
<polygon fill="#191970" stroke="#191970" points="99.3278,-81.2916 91.8438,-73.7922 93.0176,-84.3218 99.3278,-81.2916"/>
</g>
<!-- Node10&#45;&gt;Node8 -->
<g id="edge24" class="edge">
<title>Node10&#45;&gt;Node8</title>
<path fill="none" stroke="#191970" d="M180.1429,-167.1964C145.8753,-157.0635 84.0347,-138.7773 47.6896,-128.0301"/>
<polygon fill="#191970" stroke="#191970" points="48.3048,-124.5623 37.7228,-125.0829 46.3199,-131.275 48.3048,-124.5623"/>
</g>
<!-- Node11 -->
<g id="node12" class="node">
<title>Node11</title>
<polygon fill="none" stroke="#bfbfbf" points="269.2856,-110.5 269.2856,-128.5 316.3989,-128.5 316.3989,-110.5 269.2856,-110.5"/>
<text text-anchor="middle" x="292.8423" y="-116.5" font-family="Helvetica,sans-Serif" font-size="10.00" fill="#000000">limits.h</text>
</g>
<!-- Node10&#45;&gt;Node11 -->
<g id="edge21" class="edge">
<title>Node10&#45;&gt;Node11</title>
<path fill="none" stroke="#191970" d="M219.3737,-165.4179C233.0036,-156.8992 253.6158,-144.0166 269.5419,-134.0627"/>
<polygon fill="#191970" stroke="#191970" points="271.6643,-136.8637 278.2893,-128.5956 267.9543,-130.9277 271.6643,-136.8637"/>
</g>
<!-- Node12 -->
<g id="node13" class="node">
<title>Node12</title>
<polygon fill="none" stroke="#bfbfbf" points="208.2217,-110.5 208.2217,-128.5 251.4629,-128.5 251.4629,-110.5 208.2217,-110.5"/>
<text text-anchor="middle" x="229.8423" y="-116.5" font-family="Helvetica,sans-Serif" font-size="10.00" fill="#000000">float.h</text>
</g>
<!-- Node10&#45;&gt;Node12 -->
<g id="edge22" class="edge">
<title>Node10&#45;&gt;Node12</title>
<path fill="none" stroke="#191970" d="M208.9705,-165.4179C212.3519,-157.9789 217.2458,-147.2123 221.4449,-137.9742"/>
<polygon fill="#191970" stroke="#191970" points="224.6725,-139.3315 225.6244,-128.7795 218.3,-136.4348 224.6725,-139.3315"/>
</g>
</g>
</svg>
        <g id="navigator" transform="translate(0 0)" fill="#404254">
                <rect fill="#f2f5e9" fill-opacity="0.5" stroke="#606060" stroke-width=".5" x="0" y="0" width="60" height="60"/>
                <use id="zoomplus" xlink:href="#zoomPlus" x="17" y="9" onmousedown="handleZoom(evt,'in')"/>
                <use id="zoomminus" xlink:href="#zoomMin" x="42" y="9" onmousedown="handleZoom(evt,'out')"/>
                <use id="reset" xlink:href="#resetDef" x="30" y="36" onmousedown="handleReset()"/>
                <g id="arrowUp" xlink:href="#dirArrow" transform="translate(30 24)" onmousedown="handlePan(0,-1)">
                  <use xlink:href="#rim" fill="#404040">
                        <set attributeName="fill" to="#808080" begin="arrowUp.mouseover" end="arrowUp.mouseout"/>
                  </use>
                  <path fill="none" stroke="white" stroke-width="1.5" d="M0,-3.0v7 M-2.5,-0.5L0,-3.0L2.5,-0.5"/>
                </g>
                <g id="arrowRight" xlink:href="#dirArrow" transform="rotate(90) translate(36 -43)" onmousedown="handlePan(1,0)">
                  <use xlink:href="#rim" fill="#404040">
                        <set attributeName="fill" to="#808080" begin="arrowRight.mouseover" end="arrowRight.mouseout"/>
                  </use>
                  <path fill="none" stroke="white" stroke-width="1.5" d="M0,-3.0v7 M-2.5,-0.5L0,-3.0L2.5,-0.5"/>
                </g>
                <g id="arrowDown" xlink:href="#dirArrow" transform="rotate(180) translate(-30 -48)" onmousedown="handlePan(0,1)">
                  <use xlink:href="#rim" fill="#404040">
                        <set attributeName="fill" to="#808080" begin="arrowDown.mouseover" end="arrowDown.mouseout"/>
                  </use>
                  <path fill="none" stroke="white" stroke-width="1.5" d="M0,-3.0v7 M-2.5,-0.5L0,-3.0L2.5,-0.5"/>
                </g>
                <g id="arrowLeft" xlink:href="#dirArrow" transform="rotate(270) translate(-36 17)" onmousedown="handlePan(-1,0)">
                  <use xlink:href="#rim" fill="#404040">
                        <set attributeName="fill" to="#808080" begin="arrowLeft.mouseover" end="arrowLeft.mouseout"/>
                  </use>
                  <path fill="none" stroke="white" stroke-width="1.5" d="M0,-3.0v7 M-2.5,-0.5L0,-3.0L2.5,-0.5"/>
                </g>
        </g>
        <svg viewBox="0 0 15 15" width="100%" height="30px" preserveAspectRatio="xMaxYMin meet">
         <g id="arrow_out" transform="scale(0.3 0.3)">
          <a xlink:href="init_8c__incl_org.svg" target="_base">
           <rect id="button" ry="5" rx="5" y="6" x="6" height="38" width="38"
                fill="#f2f5e9" fill-opacity="0.5" stroke="#606060" stroke-width="1.0"/>
           <path id="arrow"
             d="M 11.500037,31.436501 C 11.940474,20.09759 22.043105,11.32322 32.158766,21.979434 L 37.068811,17.246167 C 37.068811,17.246167 37.088388,32 37.088388,32 L 22.160133,31.978069 C 22.160133,31.978069 26.997745,27.140456 26.997745,27.140456 C 18.528582,18.264221 13.291696,25.230495 11.500037,31.436501 z"
             style="fill:#404040;"/>
          </a>
         </g>
        </svg>
</svg>
