<?xml version="1.0" encoding="UTF-8" standalone="no"?>
<!DOCTYPE svg PUBLIC "-//W3C//DTD SVG 1.1//EN"
 "http://www.w3.org/Graphics/SVG/1.1/DTD/svg11.dtd">
<!-- Generated by graphviz version 2.40.1 (20161225.0304)
 -->
<!-- Title: initialize Pages: 1 -->
<svg width="363pt" height="193pt"
 viewBox="0.00 0.00 363.42 193.00" xmlns="http://www.w3.org/2000/svg" xmlns:xlink="http://www.w3.org/1999/xlink">
<g id="graph0" class="graph" transform="scale(1 1) rotate(0) translate(4 189)">
<title>initialize</title>
<!-- Node0 -->
<g id="node1" class="node">
<title>Node0</title>
<polygon fill="#bfbfbf" stroke="#000000" points="0,-110.5 0,-128.5 51.5713,-128.5 51.5713,-110.5 0,-110.5"/>
<text text-anchor="middle" x="25.7856" y="-116.5" font-family="Helvetica,sans-Serif" font-size="10.00" fill="#000000">initialize</text>
</g>
<!-- Node1 -->
<g id="node2" class="node">
<title>Node1</title>
<g id="a_node2"><a xlink:href="slew_8h.html#a321758941d88b75783955c819bb75005" target="_top" xlink:title="Initializes the slew rate controller. ">
<polygon fill="none" stroke="#000000" points="87.5713,-110.5 87.5713,-128.5 141.9209,-128.5 141.9209,-110.5 87.5713,-110.5"/>
<text text-anchor="middle" x="114.7461" y="-116.5" font-family="Helvetica,sans-Serif" font-size="10.00" fill="#000000">init_slew</text>
</a>
</g>
</g>
<!-- Node0&#45;&gt;Node1 -->
<g id="edge1" class="edge">
<title>Node0&#45;&gt;Node1</title>
<path fill="none" stroke="#191970" d="M51.9956,-119.5C59.9388,-119.5 68.823,-119.5 77.3506,-119.5"/>
<polygon fill="#191970" stroke="#191970" points="77.4884,-123.0001 87.4883,-119.5 77.4883,-116.0001 77.4884,-123.0001"/>
</g>
<!-- Node2 -->
<g id="node3" class="node">
<title>Node2</title>
<g id="a_node3"><a xlink:href="vlib_8h.html#a1115803c6996aebfbf67434810df7b4b" target="_top" xlink:title="calloc_real">
<polygon fill="none" stroke="#000000" points="184.5933,-166.5 184.5933,-184.5 248.396,-184.5 248.396,-166.5 184.5933,-166.5"/>
<text text-anchor="middle" x="216.4946" y="-172.5" font-family="Helvetica,sans-Serif" font-size="10.00" fill="#000000">calloc_real</text>
</a>
</g>
</g>
<!-- Node1&#45;&gt;Node2 -->
<g id="edge2" class="edge">
<title>Node1&#45;&gt;Node2</title>
<path fill="none" stroke="#191970" d="M129.0505,-128.6936C141.6954,-136.6774 160.7469,-148.3602 177.9209,-157.5 180.7913,-159.0276 183.8146,-160.5619 186.8533,-162.0553"/>
<polygon fill="#191970" stroke="#191970" points="185.3465,-165.2143 195.8785,-166.3659 188.3634,-158.8978 185.3465,-165.2143"/>
</g>
<!-- Node3 -->
<g id="node4" class="node">
<title>Node3</title>
<g id="a_node4"><a xlink:href="_a_p_i_8h.html#aecd027ce8f8b52a765735e9eb5b202b3" target="_top" xlink:title="mutexCreate">
<polygon fill="none" stroke="#000000" points="179.8716,-129.5 179.8716,-147.5 253.1177,-147.5 253.1177,-129.5 179.8716,-129.5"/>
<text text-anchor="middle" x="216.4946" y="-135.5" font-family="Helvetica,sans-Serif" font-size="10.00" fill="#000000">mutexCreate</text>
</a>
</g>
</g>
<!-- Node1&#45;&gt;Node3 -->
<g id="edge3" class="edge">
<title>Node1&#45;&gt;Node3</title>
<path fill="none" stroke="#191970" d="M142.0128,-124.5917C150.4858,-126.1738 160.0813,-127.9657 169.4985,-129.7242"/>
<polygon fill="#191970" stroke="#191970" points="169.1132,-133.2127 179.5857,-131.6078 170.3981,-126.3316 169.1132,-133.2127"/>
</g>
<!-- Node4 -->
<g id="node5" class="node">
<title>Node4</title>
<g id="a_node5"><a xlink:href="_a_p_i_8h.html#ab05a241d6d1fd98b1ceb4665db678156" target="_top" xlink:title="taskRunLoop">
<polygon fill="none" stroke="#000000" points="179.0293,-92.5 179.0293,-110.5 253.96,-110.5 253.96,-92.5 179.0293,-92.5"/>
<text text-anchor="middle" x="216.4946" y="-98.5" font-family="Helvetica,sans-Serif" font-size="10.00" fill="#000000">taskRunLoop</text>
</a>
</g>
</g>
<!-- Node1&#45;&gt;Node4 -->
<g id="edge4" class="edge">
<title>Node1&#45;&gt;Node4</title>
<path fill="none" stroke="#191970" d="M142.0128,-114.6763C150.3129,-113.208 159.6901,-111.5491 168.9218,-109.916"/>
<polygon fill="#191970" stroke="#191970" points="169.5867,-113.3528 178.8241,-108.1642 168.3672,-106.4598 169.5867,-113.3528"/>
</g>
<!-- Node5 -->
<g id="node6" class="node">
<title>Node5</title>
<g id="a_node6"><a xlink:href="slew_8c.html#a807a87c5df438fde21c1e8213906695b" target="_top" xlink:title="Closes the distance between the desired motor value and the current motor value by half for each moto...">
<polygon fill="none" stroke="#000000" points="177.9209,-55.5 177.9209,-73.5 255.0684,-73.5 255.0684,-55.5 177.9209,-55.5"/>
<text text-anchor="middle" x="216.4946" y="-61.5" font-family="Helvetica,sans-Serif" font-size="10.00" fill="#000000">updateMotors</text>
</a>
</g>
</g>
<!-- Node1&#45;&gt;Node5 -->
<g id="edge5" class="edge">
<title>Node1&#45;&gt;Node5</title>
<path fill="none" stroke="#191970" d="M130.1785,-110.3599C142.881,-102.9207 161.4171,-92.2567 177.9209,-83.5 181.284,-81.7156 184.8381,-79.888 188.3735,-78.1054"/>
<polygon fill="#191970" stroke="#191970" points="190.1442,-81.134 197.5446,-73.552 187.0313,-74.8642 190.1442,-81.134"/>
</g>
<!-- Node6 -->
<g id="node7" class="node">
<title>Node6</title>
<g id="a_node7"><a xlink:href="_a_p_i_8h.html#a8b51124628d2a7741738d48551d1e8ee" target="_top" xlink:title="mutexTake">
<polygon fill="none" stroke="#000000" points="291.0684,-111.5 291.0684,-129.5 355.4229,-129.5 355.4229,-111.5 291.0684,-111.5"/>
<text text-anchor="middle" x="323.2456" y="-117.5" font-family="Helvetica,sans-Serif" font-size="10.00" fill="#000000">mutexTake</text>
</a>
</g>
</g>
<!-- Node5&#45;&gt;Node6 -->
<g id="edge6" class="edge">
<title>Node5&#45;&gt;Node6</title>
<path fill="none" stroke="#191970" d="M235.4043,-73.6291C241.6876,-76.7117 248.7033,-80.2068 255.0684,-83.5 269.3655,-90.897 285.175,-99.4529 297.9675,-106.4728"/>
<polygon fill="#191970" stroke="#191970" points="296.6394,-109.7371 307.087,-111.497 300.0172,-103.6059 296.6394,-109.7371"/>
</g>
<!-- Node7 -->
<g id="node8" class="node">
<title>Node7</title>
<g id="a_node8"><a xlink:href="_a_p_i_8h.html#a4805c8fd29f9221d28ed2e673c06e6c4" target="_top" xlink:title="motorGet">
<polygon fill="none" stroke="#000000" points="294.4058,-74.5 294.4058,-92.5 352.0854,-92.5 352.0854,-74.5 294.4058,-74.5"/>
<text text-anchor="middle" x="323.2456" y="-80.5" font-family="Helvetica,sans-Serif" font-size="10.00" fill="#000000">motorGet</text>
</a>
</g>
</g>
<!-- Node5&#45;&gt;Node7 -->
<g id="edge7" class="edge">
<title>Node5&#45;&gt;Node7</title>
<path fill="none" stroke="#191970" d="M255.3362,-71.4132C264.7925,-73.0963 274.9078,-74.8966 284.3659,-76.58"/>
<polygon fill="#191970" stroke="#191970" points="283.8503,-80.0432 294.3089,-78.3497 285.0769,-73.1515 283.8503,-80.0432"/>
</g>
<!-- Node8 -->
<g id="node9" class="node">
<title>Node8</title>
<g id="a_node9"><a xlink:href="_a_p_i_8h.html#a03c5b04b472d024281f62d7af8854a8e" target="_top" xlink:title="motorSet">
<polygon fill="none" stroke="#000000" points="294.96,-37.5 294.96,-55.5 351.5313,-55.5 351.5313,-37.5 294.96,-37.5"/>
<text text-anchor="middle" x="323.2456" y="-43.5" font-family="Helvetica,sans-Serif" font-size="10.00" fill="#000000">motorSet</text>
</a>
</g>
</g>
<!-- Node5&#45;&gt;Node8 -->
<g id="edge8" class="edge">
<title>Node5&#45;&gt;Node8</title>
<path fill="none" stroke="#191970" d="M255.3362,-57.9507C264.8801,-56.3414 275.0951,-54.619 284.6285,-53.0115"/>
<polygon fill="#191970" stroke="#191970" points="285.3628,-56.4372 294.6416,-51.3231 284.1988,-49.5346 285.3628,-56.4372"/>
</g>
<!-- Node9 -->
<g id="node10" class="node">
<title>Node9</title>
<g id="a_node10"><a xlink:href="_a_p_i_8h.html#afe171a08d22de18fc2ab604b2364959f" target="_top" xlink:title="mutexGive">
<polygon fill="none" stroke="#000000" points="291.3491,-.5 291.3491,-18.5 355.1421,-18.5 355.1421,-.5 291.3491,-.5"/>
<text text-anchor="middle" x="323.2456" y="-6.5" font-family="Helvetica,sans-Serif" font-size="10.00" fill="#000000">mutexGive</text>
</a>
</g>
</g>
<!-- Node5&#45;&gt;Node9 -->
<g id="edge9" class="edge">
<title>Node5&#45;&gt;Node9</title>
<path fill="none" stroke="#191970" d="M234.1224,-55.4179C251.1202,-46.6603 277.0695,-33.2907 296.5917,-23.2326"/>
<polygon fill="#191970" stroke="#191970" points="298.3052,-26.287 305.5917,-18.5956 295.0991,-20.0644 298.3052,-26.287"/>
</g>
</g>
</svg>
