<?xml version="1.0" encoding="UTF-8" standalone="no"?>
<!DOCTYPE svg PUBLIC "-//W3C//DTD SVG 1.1//EN"
 "http://www.w3.org/Graphics/SVG/1.1/DTD/svg11.dtd">
<!-- Generated by graphviz version 2.40.1 (20161225.0304)
 -->
<!-- Title: include/lcd.h Pages: 1 -->
<svg width="314pt" height="137pt"
 viewBox="0.00 0.00 313.67 137.00" xmlns="http://www.w3.org/2000/svg" xmlns:xlink="http://www.w3.org/1999/xlink">
<g id="graph0" class="graph" transform="scale(1 1) rotate(0) translate(4 133)">
<title>include/lcd.h</title>
<!-- Node2 -->
<g id="node1" class="node">
<title>Node2</title>
<polygon fill="#bfbfbf" stroke="#000000" points="109.5396,-110.5 109.5396,-128.5 181.1304,-128.5 181.1304,-110.5 109.5396,-110.5"/>
<text text-anchor="middle" x="145.335" y="-116.5" font-family="Helvetica,sans-Serif" font-size="10.00" fill="#000000">include/lcd.h</text>
</g>
<!-- Node3 -->
<g id="node2" class="node">
<title>Node3</title>
<g id="a_node2"><a xlink:href="log_8h.html" target="_top" xlink:title="Contains logging functions. ">
<polygon fill="none" stroke="#000000" points="61.2588,-55.5 61.2588,-73.5 133.4111,-73.5 133.4111,-55.5 61.2588,-55.5"/>
<text text-anchor="middle" x="97.335" y="-61.5" font-family="Helvetica,sans-Serif" font-size="10.00" fill="#000000">include/log.h</text>
</a>
</g>
</g>
<!-- Node2&#45;&gt;Node3 -->
<g id="edge1" class="edge">
<title>Node2&#45;&gt;Node3</title>
<path fill="none" stroke="#191970" d="M130.6952,-102.7253C122.3954,-93.215 112.3244,-81.6754 105.4334,-73.7795"/>
<polygon fill="#191970" stroke="#191970" points="128.1964,-105.185 137.4087,-110.4179 133.4704,-100.5822 128.1964,-105.185"/>
</g>
<!-- Node4 -->
<g id="node3" class="node">
<title>Node4</title>
<g id="a_node3"><a xlink:href="init_8c.html" target="_top" xlink:title="File for initialization code. ">
<polygon fill="none" stroke="#000000" points="0,-.5 0,-18.5 52.6699,-18.5 52.6699,-.5 0,-.5"/>
<text text-anchor="middle" x="26.335" y="-6.5" font-family="Helvetica,sans-Serif" font-size="10.00" fill="#000000">src/init.c</text>
</a>
</g>
</g>
<!-- Node2&#45;&gt;Node4 -->
<g id="edge7" class="edge">
<title>Node2&#45;&gt;Node4</title>
<path fill="none" stroke="#191970" d="M103.6808,-106.6996C85.9357,-99.4881 66.1799,-88.877 52.335,-74 37.3652,-57.9143 30.5393,-32.1001 27.8439,-18.5203"/>
<polygon fill="#191970" stroke="#191970" points="102.6912,-110.068 113.282,-110.3617 105.1859,-103.5277 102.6912,-110.068"/>
</g>
<!-- Node7 -->
<g id="node6" class="node">
<title>Node7</title>
<g id="a_node6"><a xlink:href="menu_8h.html" target="_top" xlink:title="Contains menu functionality and abstraction. ">
<polygon fill="none" stroke="#000000" points="151.4238,-55.5 151.4238,-73.5 235.2461,-73.5 235.2461,-55.5 151.4238,-55.5"/>
<text text-anchor="middle" x="193.335" y="-61.5" font-family="Helvetica,sans-Serif" font-size="10.00" fill="#000000">include/menu.h</text>
</a>
</g>
</g>
<!-- Node2&#45;&gt;Node7 -->
<g id="edge5" class="edge">
<title>Node2&#45;&gt;Node7</title>
<path fill="none" stroke="#191970" d="M159.9747,-102.7253C168.2746,-93.215 178.3455,-81.6754 185.2365,-73.7795"/>
<polygon fill="#191970" stroke="#191970" points="157.1996,-100.5822 153.2612,-110.4179 162.4736,-105.185 157.1996,-100.5822"/>
</g>
<!-- Node9 -->
<g id="node8" class="node">
<title>Node9</title>
<g id="a_node8"><a xlink:href="lcd_8c.html" target="_top" xlink:title="src/lcd.c">
<polygon fill="none" stroke="#000000" points="253,-55.5 253,-73.5 305.6699,-73.5 305.6699,-55.5 253,-55.5"/>
<text text-anchor="middle" x="279.335" y="-61.5" font-family="Helvetica,sans-Serif" font-size="10.00" fill="#000000">src/lcd.c</text>
</a>
</g>
</g>
<!-- Node2&#45;&gt;Node9 -->
<g id="edge8" class="edge">
<title>Node2&#45;&gt;Node9</title>
<path fill="none" stroke="#191970" d="M176.7688,-106.598C201.4667,-96.4609 235.2444,-82.5969 257.1747,-73.5956"/>
<polygon fill="#191970" stroke="#191970" points="175.3844,-103.3829 167.4623,-110.4179 178.0424,-109.8586 175.3844,-103.3829"/>
</g>
<!-- Node3&#45;&gt;Node4 -->
<g id="edge2" class="edge">
<title>Node3&#45;&gt;Node4</title>
<path fill="none" stroke="#191970" d="M77.5195,-49.15C64.9202,-39.3899 49.0216,-27.0742 38.3139,-18.7795"/>
<polygon fill="#191970" stroke="#191970" points="75.5618,-52.0608 85.6108,-55.4179 79.8486,-46.5269 75.5618,-52.0608"/>
</g>
<!-- Node5 -->
<g id="node4" class="node">
<title>Node5</title>
<g id="a_node4"><a xlink:href="log_8c.html" target="_top" xlink:title="src/log.c">
<polygon fill="none" stroke="#000000" points="70.7192,-.5 70.7192,-18.5 123.9507,-18.5 123.9507,-.5 70.7192,-.5"/>
<text text-anchor="middle" x="97.335" y="-6.5" font-family="Helvetica,sans-Serif" font-size="10.00" fill="#000000">src/log.c</text>
</a>
</g>
</g>
<!-- Node3&#45;&gt;Node5 -->
<g id="edge3" class="edge">
<title>Node3&#45;&gt;Node5</title>
<path fill="none" stroke="#191970" d="M97.335,-45.383C97.335,-36.3738 97.335,-26.0373 97.335,-18.7795"/>
<polygon fill="#191970" stroke="#191970" points="93.8351,-45.4178 97.335,-55.4179 100.8351,-45.4179 93.8351,-45.4178"/>
</g>
<!-- Node6 -->
<g id="node5" class="node">
<title>Node6</title>
<g id="a_node5"><a xlink:href="slew_8c.html" target="_top" xlink:title="src/slew.c">
<polygon fill="none" stroke="#000000" points="141.6626,-.5 141.6626,-18.5 201.0073,-18.5 201.0073,-.5 141.6626,-.5"/>
<text text-anchor="middle" x="171.335" y="-6.5" font-family="Helvetica,sans-Serif" font-size="10.00" fill="#000000">src/slew.c</text>
</a>
</g>
</g>
<!-- Node3&#45;&gt;Node6 -->
<g id="edge4" class="edge">
<title>Node3&#45;&gt;Node6</title>
<path fill="none" stroke="#191970" d="M117.6621,-49.392C130.9415,-39.5222 147.8438,-26.9596 159.0972,-18.5956"/>
<polygon fill="#191970" stroke="#191970" points="115.4927,-46.6435 109.5546,-55.4179 119.6684,-52.2617 115.4927,-46.6435"/>
</g>
<!-- Node8 -->
<g id="node7" class="node">
<title>Node8</title>
<g id="a_node7"><a xlink:href="menu_8c.html" target="_top" xlink:title="src/menu.c">
<polygon fill="none" stroke="#000000" points="218.8843,-.5 218.8843,-18.5 283.7856,-18.5 283.7856,-.5 218.8843,-.5"/>
<text text-anchor="middle" x="251.335" y="-6.5" font-family="Helvetica,sans-Serif" font-size="10.00" fill="#000000">src/menu.c</text>
</a>
</g>
</g>
<!-- Node7&#45;&gt;Node8 -->
<g id="edge6" class="edge">
<title>Node7&#45;&gt;Node8</title>
<path fill="none" stroke="#191970" d="M210.4195,-48.2992C220.5604,-38.6828 233.0545,-26.8349 241.5494,-18.7795"/>
<polygon fill="#191970" stroke="#191970" points="207.7604,-45.9972 202.9125,-55.4179 212.5771,-51.0766 207.7604,-45.9972"/>
</g>
</g>
</svg>
