<?xml version="1.0" encoding="UTF-8" standalone="no"?>
<!DOCTYPE svg PUBLIC "-//W3C//DTD SVG 1.1//EN"
 "http://www.w3.org/Graphics/SVG/1.1/DTD/svg11.dtd">
<!-- Generated by graphviz version 2.40.1 (20161225.0304)
 -->
<!-- Title: lcd_print Pages: 1 -->
<svg width="287pt" height="64pt"
 viewBox="0.00 0.00 286.96 64.00" xmlns="http://www.w3.org/2000/svg" xmlns:xlink="http://www.w3.org/1999/xlink">
<g id="graph0" class="graph" transform="scale(1 1) rotate(0) translate(4 60)">
<title>lcd_print</title>
<!-- Node22 -->
<g id="node1" class="node">
<title>Node22</title>
<polygon fill="#bfbfbf" stroke="#000000" points="0,-18.5 0,-36.5 53.7979,-36.5 53.7979,-18.5 0,-18.5"/>
<text text-anchor="middle" x="26.8989" y="-24.5" font-family="Helvetica,sans-Serif" font-size="10.00" fill="#000000">lcd_print</text>
</g>
<!-- Node23 -->
<g id="node2" class="node">
<title>Node23</title>
<g id="a_node2"><a xlink:href="menu_8c.html#abfadedb104f89f672dd3045499975a71" target="_top" xlink:title="Displays a menu context, but does not display. &#160;Menu must be freed or will cause memory leak! &#160;Will e...">
<polygon fill="none" stroke="#000000" points="101.7412,-37.5 101.7412,-55.5 179.4453,-55.5 179.4453,-37.5 101.7412,-37.5"/>
<text text-anchor="middle" x="140.5933" y="-43.5" font-family="Helvetica,sans-Serif" font-size="10.00" fill="#000000">display_menu</text>
</a>
</g>
</g>
<!-- Node22&#45;&gt;Node23 -->
<g id="edge1" class="edge">
<title>Node22&#45;&gt;Node23</title>
<path fill="none" stroke="#191970" d="M63.9547,-33.6926C75.9253,-35.693 89.2338,-37.9171 101.3567,-39.943"/>
<polygon fill="#191970" stroke="#191970" points="64.283,-30.199 53.8429,-32.0027 63.1292,-37.1032 64.283,-30.199"/>
</g>
<!-- Node25 -->
<g id="node4" class="node">
<title>Node25</title>
<g id="a_node4"><a xlink:href="lcd_8c.html#a99f4683e1990edf624ab216bf327cba4" target="_top" xlink:title="Prompts the user to confirm a string. User must press middle button to confirm. Function is not threa...">
<polygon fill="none" stroke="#000000" points="89.7979,-.5 89.7979,-18.5 191.3887,-18.5 191.3887,-.5 89.7979,-.5"/>
<text text-anchor="middle" x="140.5933" y="-6.5" font-family="Helvetica,sans-Serif" font-size="10.00" fill="#000000">promt_confirmation</text>
</a>
</g>
</g>
<!-- Node22&#45;&gt;Node25 -->
<g id="edge3" class="edge">
<title>Node22&#45;&gt;Node25</title>
<path fill="none" stroke="#191970" d="M63.901,-21.6419C72.1608,-20.3342 81.0597,-18.9253 89.7681,-17.5466"/>
<polygon fill="#191970" stroke="#191970" points="63.1726,-18.2135 53.8429,-23.2343 64.2672,-25.1274 63.1726,-18.2135"/>
</g>
<!-- Node24 -->
<g id="node3" class="node">
<title>Node24</title>
<g id="a_node3"><a xlink:href="init_8c.html#a25a40b6614565f755233080a384c35f1" target="_top" xlink:title="initialize">
<polygon fill="none" stroke="#000000" points="227.3887,-18.5 227.3887,-36.5 278.96,-36.5 278.96,-18.5 227.3887,-18.5"/>
<text text-anchor="middle" x="253.1743" y="-24.5" font-family="Helvetica,sans-Serif" font-size="10.00" fill="#000000">initialize</text>
</a>
</g>
</g>
<!-- Node23&#45;&gt;Node24 -->
<g id="edge2" class="edge">
<title>Node23&#45;&gt;Node24</title>
<path fill="none" stroke="#191970" d="M189.8326,-38.19C202.7258,-36.0141 216.1205,-33.7535 227.2532,-31.8746"/>
<polygon fill="#191970" stroke="#191970" points="188.9308,-34.7926 179.6527,-39.908 190.0957,-41.695 188.9308,-34.7926"/>
</g>
<!-- Node25&#45;&gt;Node24 -->
<g id="edge4" class="edge">
<title>Node25&#45;&gt;Node24</title>
<path fill="none" stroke="#191970" d="M201.7584,-19.2794C210.7249,-20.713 219.5251,-22.12 227.24,-23.3535"/>
<polygon fill="#191970" stroke="#191970" points="202.0406,-15.7801 191.6134,-17.6573 200.9354,-22.6923 202.0406,-15.7801"/>
</g>
</g>
</svg>
