<?xml version="1.0" encoding="UTF-8" standalone="no"?>
<!DOCTYPE svg PUBLIC "-//W3C//DTD SVG 1.1//EN"
 "http://www.w3.org/Graphics/SVG/1.1/DTD/svg11.dtd">
<!-- Generated by graphviz version 2.40.1 (20161225.0304)
 -->
<!-- Title: lcd_get_pressed_buttons Pages: 1 -->
<svg width="361pt" height="64pt"
 viewBox="0.00 0.00 360.91 64.00" xmlns="http://www.w3.org/2000/svg" xmlns:xlink="http://www.w3.org/1999/xlink">
<g id="graph0" class="graph" transform="scale(1 1) rotate(0) translate(4 60)">
<title>lcd_get_pressed_buttons</title>
<polygon fill="#ffffff" stroke="transparent" points="-4,4 -4,-60 356.9102,-60 356.9102,4 -4,4"/>
<!-- Node23 -->
<g id="node1" class="node">
<title>Node23</title>
<polygon fill="#bfbfbf" stroke="#000000" points="0,-18.5 0,-36.5 127.748,-36.5 127.748,-18.5 0,-18.5"/>
<text text-anchor="middle" x="63.874" y="-24.5" font-family="Helvetica,sans-Serif" font-size="10.00" fill="#000000">lcd_get_pressed_buttons</text>
</g>
<!-- Node24 -->
<g id="node2" class="node">
<title>Node24</title>
<g id="a_node2"><a xlink:href="menu_8h.html#aee3e9f838cdbb1745c68974490aabb99" target="_top" xlink:title="display_menu">
<polygon fill="#ffffff" stroke="#000000" points="175.6914,-37.5 175.6914,-55.5 253.3955,-55.5 253.3955,-37.5 175.6914,-37.5"/>
<text text-anchor="middle" x="214.5435" y="-43.5" font-family="Helvetica,sans-Serif" font-size="10.00" fill="#000000">display_menu</text>
</a>
</g>
</g>
<!-- Node23&#45;&gt;Node24 -->
<g id="edge1" class="edge">
<title>Node23&#45;&gt;Node24</title>
<path fill="none" stroke="#191970" d="M137.7077,-36.8107C150.7504,-38.4555 163.8532,-40.1078 175.4514,-41.5703"/>
<polygon fill="#191970" stroke="#191970" points="138.1308,-33.3364 127.7714,-35.5577 137.2549,-40.2814 138.1308,-33.3364"/>
</g>
<!-- Node25 -->
<g id="node3" class="node">
<title>Node25</title>
<g id="a_node3"><a xlink:href="lcd_8h.html#a99f4683e1990edf624ab216bf327cba4" target="_top" xlink:title="Prompts the user to confirm a string. User must press middle button to confirm. Function is not threa...">
<polygon fill="#ffffff" stroke="#000000" points="163.748,-.5 163.748,-18.5 265.3389,-18.5 265.3389,-.5 163.748,-.5"/>
<text text-anchor="middle" x="214.5435" y="-6.5" font-family="Helvetica,sans-Serif" font-size="10.00" fill="#000000">promt_confirmation</text>
</a>
</g>
</g>
<!-- Node23&#45;&gt;Node25 -->
<g id="edge2" class="edge">
<title>Node23&#45;&gt;Node25</title>
<path fill="none" stroke="#191970" d="M137.852,-18.6621C146.4715,-17.6323 155.1147,-16.5998 163.33,-15.6183"/>
<polygon fill="#191970" stroke="#191970" points="137.2856,-15.2048 127.7714,-19.8664 138.116,-22.1553 137.2856,-15.2048"/>
</g>
<!-- Node26 -->
<g id="node4" class="node">
<title>Node26</title>
<g id="a_node4"><a xlink:href="init_8c.html#a25a40b6614565f755233080a384c35f1" target="_top" xlink:title="initialize">
<polygon fill="#ffffff" stroke="#000000" points="301.3389,-.5 301.3389,-18.5 352.9102,-18.5 352.9102,-.5 301.3389,-.5"/>
<text text-anchor="middle" x="327.1245" y="-6.5" font-family="Helvetica,sans-Serif" font-size="10.00" fill="#000000">initialize</text>
</a>
</g>
</g>
<!-- Node25&#45;&gt;Node26 -->
<g id="edge3" class="edge">
<title>Node25&#45;&gt;Node26</title>
<path fill="none" stroke="#191970" d="M275.7086,-9.5C284.6751,-9.5 293.4753,-9.5 301.1901,-9.5"/>
<polygon fill="#191970" stroke="#191970" points="275.5637,-6.0001 265.5636,-9.5 275.5636,-13.0001 275.5637,-6.0001"/>
</g>
</g>
</svg>
