<?xml version="1.0" encoding="UTF-8" standalone="no"?>
<!DOCTYPE svg PUBLIC "-//W3C//DTD SVG 1.1//EN"
 "http://www.w3.org/Graphics/SVG/1.1/DTD/svg11.dtd">
<!-- Generated by graphviz version 2.40.1 (20161225.0304)
 -->
<!-- Title: include/lcd.h Pages: 1 -->
<svg width="252pt" height="137pt"
 viewBox="0.00 0.00 252.41 137.00" xmlns="http://www.w3.org/2000/svg" xmlns:xlink="http://www.w3.org/1999/xlink">
<g id="graph0" class="graph" transform="scale(1 1) rotate(0) translate(4 133)">
<title>include/lcd.h</title>
<!-- Node6 -->
<g id="node1" class="node">
<title>Node6</title>
<polygon fill="#bfbfbf" stroke="#000000" points="96.2808,-110.5 96.2808,-128.5 167.8716,-128.5 167.8716,-110.5 96.2808,-110.5"/>
<text text-anchor="middle" x="132.0762" y="-116.5" font-family="Helvetica,sans-Serif" font-size="10.00" fill="#000000">include/lcd.h</text>
</g>
<!-- Node7 -->
<g id="node2" class="node">
<title>Node7</title>
<g id="a_node2"><a xlink:href="log_8h.html" target="_top" xlink:title="include/log.h">
<polygon fill="none" stroke="#000000" points="0,-55.5 0,-73.5 72.1523,-73.5 72.1523,-55.5 0,-55.5"/>
<text text-anchor="middle" x="36.0762" y="-61.5" font-family="Helvetica,sans-Serif" font-size="10.00" fill="#000000">include/log.h</text>
</a>
</g>
</g>
<!-- Node6&#45;&gt;Node7 -->
<g id="edge1" class="edge">
<title>Node6&#45;&gt;Node7</title>
<path fill="none" stroke="#191970" d="M107.1707,-105.2313C89.7375,-95.2435 66.9683,-82.1986 51.9522,-73.5956"/>
<polygon fill="#191970" stroke="#191970" points="105.8069,-108.4836 116.2237,-110.4179 109.2868,-102.4098 105.8069,-108.4836"/>
</g>
<!-- Node9 -->
<g id="node4" class="node">
<title>Node9</title>
<g id="a_node4"><a xlink:href="menu_8h.html" target="_top" xlink:title="Contains menu functionality and abstraction. ">
<polygon fill="none" stroke="#000000" points="90.165,-55.5 90.165,-73.5 173.9873,-73.5 173.9873,-55.5 90.165,-55.5"/>
<text text-anchor="middle" x="132.0762" y="-61.5" font-family="Helvetica,sans-Serif" font-size="10.00" fill="#000000">include/menu.h</text>
</a>
</g>
</g>
<!-- Node6&#45;&gt;Node9 -->
<g id="edge3" class="edge">
<title>Node6&#45;&gt;Node9</title>
<path fill="none" stroke="#191970" d="M132.0762,-100.383C132.0762,-91.3738 132.0762,-81.0373 132.0762,-73.7795"/>
<polygon fill="#191970" stroke="#191970" points="128.5763,-100.4178 132.0762,-110.4179 135.5763,-100.4179 128.5763,-100.4178"/>
</g>
<!-- Node11 -->
<g id="node6" class="node">
<title>Node11</title>
<g id="a_node6"><a xlink:href="lcd_8c.html" target="_top" xlink:title="src/lcd.c">
<polygon fill="none" stroke="#000000" points="191.7412,-55.5 191.7412,-73.5 244.4111,-73.5 244.4111,-55.5 191.7412,-55.5"/>
<text text-anchor="middle" x="218.0762" y="-61.5" font-family="Helvetica,sans-Serif" font-size="10.00" fill="#000000">src/lcd.c</text>
</a>
</g>
</g>
<!-- Node6&#45;&gt;Node11 -->
<g id="edge5" class="edge">
<title>Node6&#45;&gt;Node11</title>
<path fill="none" stroke="#191970" d="M154.8223,-104.953C170.3817,-95.0023 190.5265,-82.1189 203.8539,-73.5956"/>
<polygon fill="#191970" stroke="#191970" points="152.8161,-102.0815 146.2773,-110.4179 156.5876,-107.9786 152.8161,-102.0815"/>
</g>
<!-- Node8 -->
<g id="node3" class="node">
<title>Node8</title>
<g id="a_node3"><a xlink:href="log_8c.html" target="_top" xlink:title="src/log.c">
<polygon fill="none" stroke="#000000" points="9.4604,-.5 9.4604,-18.5 62.6919,-18.5 62.6919,-.5 9.4604,-.5"/>
<text text-anchor="middle" x="36.0762" y="-6.5" font-family="Helvetica,sans-Serif" font-size="10.00" fill="#000000">src/log.c</text>
</a>
</g>
</g>
<!-- Node7&#45;&gt;Node8 -->
<g id="edge2" class="edge">
<title>Node7&#45;&gt;Node8</title>
<path fill="none" stroke="#191970" d="M36.0762,-45.383C36.0762,-36.3738 36.0762,-26.0373 36.0762,-18.7795"/>
<polygon fill="#191970" stroke="#191970" points="32.5763,-45.4178 36.0762,-55.4179 39.5763,-45.4179 32.5763,-45.4178"/>
</g>
<!-- Node10 -->
<g id="node5" class="node">
<title>Node10</title>
<g id="a_node5"><a xlink:href="menu_8c.html" target="_top" xlink:title="src/menu.c">
<polygon fill="none" stroke="#000000" points="99.6255,-.5 99.6255,-18.5 164.5269,-18.5 164.5269,-.5 99.6255,-.5"/>
<text text-anchor="middle" x="132.0762" y="-6.5" font-family="Helvetica,sans-Serif" font-size="10.00" fill="#000000">src/menu.c</text>
</a>
</g>
</g>
<!-- Node9&#45;&gt;Node10 -->
<g id="edge4" class="edge">
<title>Node9&#45;&gt;Node10</title>
<path fill="none" stroke="#191970" d="M132.0762,-45.383C132.0762,-36.3738 132.0762,-26.0373 132.0762,-18.7795"/>
<polygon fill="#191970" stroke="#191970" points="128.5763,-45.4178 132.0762,-55.4179 135.5763,-45.4179 128.5763,-45.4178"/>
</g>
</g>
</svg>
