<?xml version="1.0" encoding="UTF-8" standalone="no"?>
<!DOCTYPE svg PUBLIC "-//W3C//DTD SVG 1.1//EN"
 "http://www.w3.org/Graphics/SVG/1.1/DTD/svg11.dtd">
<!-- Generated by graphviz version 2.40.1 (20161225.0304)
 -->
<!-- Title: lcd_assert Pages: 1 -->
<svg width="371pt" height="214pt"
 viewBox="0.00 0.00 370.92 214.00" xmlns="http://www.w3.org/2000/svg" xmlns:xlink="http://www.w3.org/1999/xlink">
<g id="graph0" class="graph" transform="scale(1 1) rotate(0) translate(4 210)">
<title>lcd_assert</title>
<!-- Node5 -->
<g id="node1" class="node">
<title>Node5</title>
<polygon fill="#bfbfbf" stroke="#000000" points="0,-92.5 0,-110.5 61.5762,-110.5 61.5762,-92.5 0,-92.5"/>
<text text-anchor="middle" x="30.7881" y="-98.5" font-family="Helvetica,sans-Serif" font-size="10.00" fill="#000000">lcd_assert</text>
</g>
<!-- Node6 -->
<g id="node2" class="node">
<title>Node6</title>
<g id="a_node2"><a xlink:href="lcd_8c.html#a35c08b1fa742e650f4873939707b893b" target="_top" xlink:title="Clears the lcd. ">
<polygon fill="none" stroke="#000000" points="133.4404,-187.5 133.4404,-205.5 189.46,-205.5 189.46,-187.5 133.4404,-187.5"/>
<text text-anchor="middle" x="161.4502" y="-193.5" font-family="Helvetica,sans-Serif" font-size="10.00" fill="#000000">lcd_clear</text>
</a>
</g>
</g>
<!-- Node5&#45;&gt;Node6 -->
<g id="edge1" class="edge">
<title>Node5&#45;&gt;Node6</title>
<path fill="none" stroke="#191970" d="M43.464,-118.9946C55.7429,-134.8528 75.6782,-157.9113 97.5762,-172.5 108.4207,-179.7248 121.7389,-185.1719 133.4027,-189.0352"/>
<polygon fill="#191970" stroke="#191970" points="45.9676,-116.5 37.1622,-110.608 40.3714,-120.7051 45.9676,-116.5"/>
</g>
<!-- Node7 -->
<g id="node3" class="node">
<title>Node7</title>
<g id="a_node3"><a xlink:href="lcd_8c.html#ac7b3225ccc82fcbe067ba9da934f010d" target="_top" xlink:title="Returns the pressed buttons. ">
<polygon fill="none" stroke="#000000" points="97.5762,-111.5 97.5762,-129.5 225.3242,-129.5 225.3242,-111.5 97.5762,-111.5"/>
<text text-anchor="middle" x="161.4502" y="-117.5" font-family="Helvetica,sans-Serif" font-size="10.00" fill="#000000">lcd_get_pressed_buttons</text>
</a>
</g>
</g>
<!-- Node5&#45;&gt;Node7 -->
<g id="edge2" class="edge">
<title>Node5&#45;&gt;Node7</title>
<path fill="none" stroke="#191970" d="M71.7143,-107.4512C80.5091,-108.7301 89.993,-110.1092 99.3867,-111.4751"/>
<polygon fill="#191970" stroke="#191970" points="72.1528,-103.9782 61.7532,-106.0027 71.1454,-110.9054 72.1528,-103.9782"/>
</g>
<!-- Node8 -->
<g id="node4" class="node">
<title>Node8</title>
<g id="a_node4"><a xlink:href="lcd_8c.html#a99f4683e1990edf624ab216bf327cba4" target="_top" xlink:title="Prompts the user to confirm a string. User must press middle button to confirm. Function is not threa...">
<polygon fill="none" stroke="#000000" points="261.3242,-111.5 261.3242,-129.5 362.915,-129.5 362.915,-111.5 261.3242,-111.5"/>
<text text-anchor="middle" x="312.1196" y="-117.5" font-family="Helvetica,sans-Serif" font-size="10.00" fill="#000000">promt_confirmation</text>
</a>
</g>
</g>
<!-- Node5&#45;&gt;Node8 -->
<g id="edge10" class="edge">
<title>Node5&#45;&gt;Node8</title>
<path fill="none" stroke="#191970" d="M50.644,-116.4456C63.3356,-125.0385 80.5564,-134.9971 97.5762,-139.5 161.7409,-156.476 240.0684,-140.7769 282.0718,-129.5527"/>
<polygon fill="#191970" stroke="#191970" points="52.457,-113.4411 42.2706,-110.5276 48.4168,-119.1575 52.457,-113.4411"/>
</g>
<!-- Node10 -->
<g id="node6" class="node">
<title>Node10</title>
<g id="a_node6"><a xlink:href="lcd_8c.html#adabd3f7cdda45119604b488caf22bba8" target="_top" xlink:title="prints a string to a line on the lcd ">
<polygon fill="none" stroke="#000000" points="134.5513,-74.5 134.5513,-92.5 188.3491,-92.5 188.3491,-74.5 134.5513,-74.5"/>
<text text-anchor="middle" x="161.4502" y="-80.5" font-family="Helvetica,sans-Serif" font-size="10.00" fill="#000000">lcd_print</text>
</a>
</g>
</g>
<!-- Node5&#45;&gt;Node10 -->
<g id="edge5" class="edge">
<title>Node5&#45;&gt;Node10</title>
<path fill="none" stroke="#191970" d="M71.7181,-95.8615C92.0958,-93.0543 116.1722,-89.7375 134.2529,-87.2467"/>
<polygon fill="#191970" stroke="#191970" points="71.1819,-92.4022 61.7532,-97.2343 72.1373,-99.3367 71.1819,-92.4022"/>
</g>
<!-- Node11 -->
<g id="node7" class="node">
<title>Node11</title>
<g id="a_node7"><a xlink:href="lcd_8c.html#aa0d4ca88701dfecf98796e2028482b69" target="_top" xlink:title="prints a formated string to a line on the lcd. Smilar to printf ">
<polygon fill="none" stroke="#000000" points="133.1621,-37.5 133.1621,-55.5 189.7383,-55.5 189.7383,-37.5 133.1621,-37.5"/>
<text text-anchor="middle" x="161.4502" y="-43.5" font-family="Helvetica,sans-Serif" font-size="10.00" fill="#000000">lcd_printf</text>
</a>
</g>
</g>
<!-- Node5&#45;&gt;Node11 -->
<g id="edge8" class="edge">
<title>Node5&#45;&gt;Node11</title>
<path fill="none" stroke="#191970" d="M53.7706,-87.0331C66.3567,-79.5606 82.4347,-70.7291 97.5762,-64.5 108.8702,-59.8537 121.7624,-55.969 132.993,-53.0119"/>
<polygon fill="#191970" stroke="#191970" points="51.6327,-84.2364 44.8999,-92.4169 55.2646,-90.2205 51.6327,-84.2364"/>
</g>
<!-- Node12 -->
<g id="node8" class="node">
<title>Node12</title>
<g id="a_node8"><a xlink:href="lcd_8c.html#a245902a4d48a6d9bd1ab308bf9b7e6b5" target="_top" xlink:title="sets the backlight of the lcd ">
<polygon fill="none" stroke="#000000" points="115.0933,-.5 115.0933,-18.5 207.8071,-18.5 207.8071,-.5 115.0933,-.5"/>
<text text-anchor="middle" x="161.4502" y="-6.5" font-family="Helvetica,sans-Serif" font-size="10.00" fill="#000000">lcd_set_backlight</text>
</a>
</g>
</g>
<!-- Node5&#45;&gt;Node12 -->
<g id="edge9" class="edge">
<title>Node5&#45;&gt;Node12</title>
<path fill="none" stroke="#191970" d="M42.3033,-83.8105C54.1915,-66.9272 74.2541,-41.9802 97.5762,-27.5 103.449,-23.8537 110.0776,-20.9278 116.7852,-18.585"/>
<polygon fill="#191970" stroke="#191970" points="39.2985,-82.0051 36.5709,-92.2428 45.0875,-85.9405 39.2985,-82.0051"/>
</g>
<!-- Node7&#45;&gt;Node8 -->
<g id="edge3" class="edge">
<title>Node7&#45;&gt;Node8</title>
<path fill="none" stroke="#191970" d="M235.4282,-120.5C244.0477,-120.5 252.6908,-120.5 260.9062,-120.5"/>
<polygon fill="#191970" stroke="#191970" points="235.3476,-117.0001 225.3476,-120.5 235.3476,-124.0001 235.3476,-117.0001"/>
</g>
<!-- Node9 -->
<g id="node5" class="node">
<title>Node9</title>
<g id="a_node5"><a xlink:href="menu_8c.html#abfadedb104f89f672dd3045499975a71" target="_top" xlink:title="Displays a menu context, but does not display. &#160;Menu must be freed or will cause memory leak! &#160;Will e...">
<polygon fill="none" stroke="#000000" points="273.2676,-74.5 273.2676,-92.5 350.9717,-92.5 350.9717,-74.5 273.2676,-74.5"/>
<text text-anchor="middle" x="312.1196" y="-80.5" font-family="Helvetica,sans-Serif" font-size="10.00" fill="#000000">display_menu</text>
</a>
</g>
</g>
<!-- Node7&#45;&gt;Node9 -->
<g id="edge4" class="edge">
<title>Node7&#45;&gt;Node9</title>
<path fill="none" stroke="#191970" d="M208.2662,-109.0033C229.8809,-103.6954 255.1702,-97.4851 275.3814,-92.5218"/>
<polygon fill="#191970" stroke="#191970" points="207.1848,-105.6648 198.3081,-111.4488 208.8543,-112.4629 207.1848,-105.6648"/>
</g>
<!-- Node10&#45;&gt;Node8 -->
<g id="edge6" class="edge">
<title>Node10&#45;&gt;Node8</title>
<path fill="none" stroke="#191970" d="M198.2812,-92.5446C221.6693,-98.2881 251.8289,-105.6944 275.2286,-111.4406"/>
<polygon fill="#191970" stroke="#191970" points="198.9331,-89.1008 188.3869,-90.1149 197.2636,-95.8988 198.9331,-89.1008"/>
</g>
<!-- Node10&#45;&gt;Node9 -->
<g id="edge7" class="edge">
<title>Node10&#45;&gt;Node9</title>
<path fill="none" stroke="#191970" d="M198.6415,-83.5C221.3193,-83.5 250.2613,-83.5 273.2405,-83.5"/>
<polygon fill="#191970" stroke="#191970" points="198.3869,-80.0001 188.3869,-83.5 198.3868,-87.0001 198.3869,-80.0001"/>
</g>
</g>
</svg>
