<?xml version="1.0" encoding="UTF-8" standalone="no"?>
<!DOCTYPE svg PUBLIC "-//W3C//DTD SVG 1.1//EN"
 "http://www.w3.org/Graphics/SVG/1.1/DTD/svg11.dtd">
<!-- Generated by graphviz version 2.40.1 (20161225.0304)
 -->
<!-- Title: lcd_assert Pages: 1 -->
<svg width="371pt" height="214pt"
 viewBox="0.00 0.00 370.92 214.00" xmlns="http://www.w3.org/2000/svg" xmlns:xlink="http://www.w3.org/1999/xlink">
<g id="graph0" class="graph" transform="scale(1 1) rotate(0) translate(4 210)">
<title>lcd_assert</title>
<polygon fill="#ffffff" stroke="transparent" points="-4,4 -4,-210 366.915,-210 366.915,4 -4,4"/>
<!-- Node4 -->
<g id="node1" class="node">
<title>Node4</title>
<polygon fill="#bfbfbf" stroke="#000000" points="0,-92.5 0,-110.5 61.5762,-110.5 61.5762,-92.5 0,-92.5"/>
<text text-anchor="middle" x="30.7881" y="-98.5" font-family="Helvetica,sans-Serif" font-size="10.00" fill="#000000">lcd_assert</text>
</g>
<!-- Node5 -->
<g id="node2" class="node">
<title>Node5</title>
<g id="a_node2"><a xlink:href="lcd_8h.html#ac7b3225ccc82fcbe067ba9da934f010d" target="_top" xlink:title="Returns the pressed buttons. ">
<polygon fill="#ffffff" stroke="#000000" points="97.5762,-187.5 97.5762,-205.5 225.3242,-205.5 225.3242,-187.5 97.5762,-187.5"/>
<text text-anchor="middle" x="161.4502" y="-193.5" font-family="Helvetica,sans-Serif" font-size="10.00" fill="#000000">lcd_get_pressed_buttons</text>
</a>
</g>
</g>
<!-- Node4&#45;&gt;Node5 -->
<g id="edge1" class="edge">
<title>Node4&#45;&gt;Node5</title>
<path fill="none" stroke="#191970" d="M43.464,-118.9946C55.7429,-134.8528 75.6782,-157.9113 97.5762,-172.5 107.0405,-178.8053 118.3889,-183.7566 128.8773,-187.4827"/>
<polygon fill="#191970" stroke="#191970" points="45.9676,-116.5 37.1622,-110.608 40.3714,-120.7051 45.9676,-116.5"/>
</g>
<!-- Node6 -->
<g id="node3" class="node">
<title>Node6</title>
<g id="a_node3"><a xlink:href="lcd_8h.html#a99f4683e1990edf624ab216bf327cba4" target="_top" xlink:title="Prompts the user to confirm a string. User must press middle button to confirm. Function is not threa...">
<polygon fill="#ffffff" stroke="#000000" points="261.3242,-149.5 261.3242,-167.5 362.915,-167.5 362.915,-149.5 261.3242,-149.5"/>
<text text-anchor="middle" x="312.1196" y="-155.5" font-family="Helvetica,sans-Serif" font-size="10.00" fill="#000000">promt_confirmation</text>
</a>
</g>
</g>
<!-- Node4&#45;&gt;Node6 -->
<g id="edge8" class="edge">
<title>Node4&#45;&gt;Node6</title>
<path fill="none" stroke="#191970" d="M51.2641,-116.2273C63.9644,-124.5562 80.9767,-134.3141 97.5762,-139.5 151.649,-156.3932 216.8597,-159.946 261.088,-160.0315"/>
<polygon fill="#191970" stroke="#191970" points="53.0828,-113.2315 42.8458,-110.501 49.1457,-119.0194 53.0828,-113.2315"/>
</g>
<!-- Node7 -->
<g id="node4" class="node">
<title>Node7</title>
<g id="a_node4"><a xlink:href="lcd_8h.html#a35c08b1fa742e650f4873939707b893b" target="_top" xlink:title="Clears the lcd. ">
<polygon fill="#ffffff" stroke="#000000" points="133.4404,-111.5 133.4404,-129.5 189.46,-129.5 189.46,-111.5 133.4404,-111.5"/>
<text text-anchor="middle" x="161.4502" y="-117.5" font-family="Helvetica,sans-Serif" font-size="10.00" fill="#000000">lcd_clear</text>
</a>
</g>
</g>
<!-- Node4&#45;&gt;Node7 -->
<g id="edge3" class="edge">
<title>Node4&#45;&gt;Node7</title>
<path fill="none" stroke="#191970" d="M71.852,-107.4712C91.8746,-110.3828 115.4421,-113.8098 133.3798,-116.4182"/>
<polygon fill="#191970" stroke="#191970" points="72.1528,-103.9782 61.7532,-106.0027 71.1454,-110.9054 72.1528,-103.9782"/>
</g>
<!-- Node8 -->
<g id="node5" class="node">
<title>Node8</title>
<g id="a_node5"><a xlink:href="lcd_8h.html#adabd3f7cdda45119604b488caf22bba8" target="_top" xlink:title="prints a string to a line on the lcd ">
<polygon fill="#ffffff" stroke="#000000" points="134.5513,-74.5 134.5513,-92.5 188.3491,-92.5 188.3491,-74.5 134.5513,-74.5"/>
<text text-anchor="middle" x="161.4502" y="-80.5" font-family="Helvetica,sans-Serif" font-size="10.00" fill="#000000">lcd_print</text>
</a>
</g>
</g>
<!-- Node4&#45;&gt;Node8 -->
<g id="edge4" class="edge">
<title>Node4&#45;&gt;Node8</title>
<path fill="none" stroke="#191970" d="M71.7181,-95.8615C92.0958,-93.0543 116.1722,-89.7375 134.2529,-87.2467"/>
<polygon fill="#191970" stroke="#191970" points="71.1819,-92.4022 61.7532,-97.2343 72.1373,-99.3367 71.1819,-92.4022"/>
</g>
<!-- Node9 -->
<g id="node6" class="node">
<title>Node9</title>
<g id="a_node6"><a xlink:href="lcd_8h.html#aa0d4ca88701dfecf98796e2028482b69" target="_top" xlink:title="prints a formated string to a line on the lcd. Smilar to printf ">
<polygon fill="#ffffff" stroke="#000000" points="133.1621,-37.5 133.1621,-55.5 189.7383,-55.5 189.7383,-37.5 133.1621,-37.5"/>
<text text-anchor="middle" x="161.4502" y="-43.5" font-family="Helvetica,sans-Serif" font-size="10.00" fill="#000000">lcd_printf</text>
</a>
</g>
</g>
<!-- Node4&#45;&gt;Node9 -->
<g id="edge6" class="edge">
<title>Node4&#45;&gt;Node9</title>
<path fill="none" stroke="#191970" d="M54.3441,-87.2648C66.8791,-80.0885 82.7329,-71.6318 97.5762,-65.5 108.9107,-60.8177 121.8099,-56.7554 133.0347,-53.6025"/>
<polygon fill="#191970" stroke="#191970" points="52.3473,-84.3778 45.4771,-92.4433 55.8775,-90.4224 52.3473,-84.3778"/>
</g>
<!-- Node10 -->
<g id="node7" class="node">
<title>Node10</title>
<g id="a_node7"><a xlink:href="lcd_8h.html#a245902a4d48a6d9bd1ab308bf9b7e6b5" target="_top" xlink:title="sets the backlight of the lcd ">
<polygon fill="#ffffff" stroke="#000000" points="115.0933,-.5 115.0933,-18.5 207.8071,-18.5 207.8071,-.5 115.0933,-.5"/>
<text text-anchor="middle" x="161.4502" y="-6.5" font-family="Helvetica,sans-Serif" font-size="10.00" fill="#000000">lcd_set_backlight</text>
</a>
</g>
</g>
<!-- Node4&#45;&gt;Node10 -->
<g id="edge7" class="edge">
<title>Node4&#45;&gt;Node10</title>
<path fill="none" stroke="#191970" d="M42.4024,-84.1263C54.3653,-67.529 74.4825,-42.9614 97.5762,-28.5 104.1459,-24.386 111.6519,-21.124 119.1542,-18.5498"/>
<polygon fill="#191970" stroke="#191970" points="39.4741,-82.2068 36.6282,-92.4123 45.2172,-86.209 39.4741,-82.2068"/>
</g>
<!-- Node5&#45;&gt;Node6 -->
<g id="edge2" class="edge">
<title>Node5&#45;&gt;Node6</title>
<path fill="none" stroke="#191970" d="M207.0514,-184.999C229.2938,-179.3893 255.6552,-172.7408 276.4086,-167.5066"/>
<polygon fill="#191970" stroke="#191970" points="205.9972,-181.6552 197.1567,-187.4945 207.7091,-188.4427 205.9972,-181.6552"/>
</g>
<!-- Node8&#45;&gt;Node6 -->
<g id="edge5" class="edge">
<title>Node8&#45;&gt;Node6</title>
<path fill="none" stroke="#191970" d="M198.3689,-92.5436C207.372,-95.2735 216.8472,-98.6014 225.3242,-102.5 253.9988,-115.6875 284.2702,-137.2109 300.3896,-149.3752"/>
<polygon fill="#191970" stroke="#191970" points="199.0599,-89.101 188.483,-89.7171 197.1356,-95.8313 199.0599,-89.101"/>
</g>
</g>
</svg>
