<?xml version="1.0" encoding="UTF-8" standalone="no"?>
<!DOCTYPE svg PUBLIC "-//W3C//DTD SVG 1.1//EN"
 "http://www.w3.org/Graphics/SVG/1.1/DTD/svg11.dtd">
<!-- Generated by graphviz version 2.40.1 (20161225.0304)
 -->
<!-- Title: lcd_assert Pages: 1 -->
<svg width="458pt" height="214pt"
 viewBox="0.00 0.00 458.49 214.00" xmlns="http://www.w3.org/2000/svg" xmlns:xlink="http://www.w3.org/1999/xlink">
<g id="graph0" class="graph" transform="scale(1 1) rotate(0) translate(4 210)">
<title>lcd_assert</title>
<!-- Node10 -->
<g id="node1" class="node">
<title>Node10</title>
<polygon fill="#bfbfbf" stroke="#000000" points="0,-94.5 0,-112.5 61.5762,-112.5 61.5762,-94.5 0,-94.5"/>
<text text-anchor="middle" x="30.7881" y="-100.5" font-family="Helvetica,sans-Serif" font-size="10.00" fill="#000000">lcd_assert</text>
</g>
<!-- Node11 -->
<g id="node2" class="node">
<title>Node11</title>
<g id="a_node2"><a xlink:href="lcd_8c.html#a35c08b1fa742e650f4873939707b893b" target="_top" xlink:title="Clears the lcd. ">
<polygon fill="none" stroke="#000000" points="133.4404,-187.5 133.4404,-205.5 189.46,-205.5 189.46,-187.5 133.4404,-187.5"/>
<text text-anchor="middle" x="161.4502" y="-193.5" font-family="Helvetica,sans-Serif" font-size="10.00" fill="#000000">lcd_clear</text>
</a>
</g>
</g>
<!-- Node10&#45;&gt;Node11 -->
<g id="edge1" class="edge">
<title>Node10&#45;&gt;Node11</title>
<path fill="none" stroke="#191970" d="M42.0605,-121.1601C53.883,-138.2777 74.004,-163.7553 97.5762,-178.5 108.3206,-185.2208 121.6247,-189.4892 133.305,-192.172"/>
<polygon fill="#191970" stroke="#191970" points="44.8351,-119.0122 36.3769,-112.6318 39.0101,-122.8942 44.8351,-119.0122"/>
</g>
<!-- Node15 -->
<g id="node6" class="node">
<title>Node15</title>
<g id="a_node6"><a xlink:href="lcd_8c.html#ac7b3225ccc82fcbe067ba9da934f010d" target="_top" xlink:title="Returns the pressed buttons. ">
<polygon fill="none" stroke="#000000" points="97.5762,-150.5 97.5762,-168.5 225.3242,-168.5 225.3242,-150.5 97.5762,-150.5"/>
<text text-anchor="middle" x="161.4502" y="-156.5" font-family="Helvetica,sans-Serif" font-size="10.00" fill="#000000">lcd_get_pressed_buttons</text>
</a>
</g>
</g>
<!-- Node10&#45;&gt;Node15 -->
<g id="edge5" class="edge">
<title>Node10&#45;&gt;Node15</title>
<path fill="none" stroke="#191970" d="M53.807,-117.8791C66.4036,-125.3264 82.4801,-134.1617 97.5762,-140.5 106.6434,-144.307 116.7312,-147.6806 126.1622,-150.4888"/>
<polygon fill="#191970" stroke="#191970" points="55.2966,-114.6901 44.9265,-112.5191 51.6793,-120.6831 55.2966,-114.6901"/>
</g>
<!-- Node16 -->
<g id="node7" class="node">
<title>Node16</title>
<g id="a_node7"><a xlink:href="lcd_8c.html#a99f4683e1990edf624ab216bf327cba4" target="_top" xlink:title="Prompts the user to confirm a string. ">
<polygon fill="none" stroke="#000000" points="261.3242,-113.5 261.3242,-131.5 362.915,-131.5 362.915,-113.5 261.3242,-113.5"/>
<text text-anchor="middle" x="312.1196" y="-119.5" font-family="Helvetica,sans-Serif" font-size="10.00" fill="#000000">promt_confirmation</text>
</a>
</g>
</g>
<!-- Node10&#45;&gt;Node16 -->
<g id="edge13" class="edge">
<title>Node10&#45;&gt;Node16</title>
<path fill="none" stroke="#191970" d="M71.9347,-100.9406C111.4044,-99.089 172.6163,-97.7985 225.3242,-103.5 243.2673,-105.4409 262.9389,-109.5764 279.0112,-113.4951"/>
<polygon fill="#191970" stroke="#191970" points="71.7073,-97.4475 61.8959,-101.4458 72.0592,-104.4386 71.7073,-97.4475"/>
</g>
<!-- Node17 -->
<g id="node8" class="node">
<title>Node17</title>
<g id="a_node8"><a xlink:href="lcd_8c.html#adabd3f7cdda45119604b488caf22bba8" target="_top" xlink:title="prints a string to a line on the lcd ">
<polygon fill="none" stroke="#000000" points="134.5513,-113.5 134.5513,-131.5 188.3491,-131.5 188.3491,-113.5 134.5513,-113.5"/>
<text text-anchor="middle" x="161.4502" y="-119.5" font-family="Helvetica,sans-Serif" font-size="10.00" fill="#000000">lcd_print</text>
</a>
</g>
</g>
<!-- Node10&#45;&gt;Node17 -->
<g id="edge8" class="edge">
<title>Node10&#45;&gt;Node17</title>
<path fill="none" stroke="#191970" d="M71.7181,-109.4518C92.0958,-112.415 116.1722,-115.916 134.2529,-118.5452"/>
<polygon fill="#191970" stroke="#191970" points="72.1528,-105.9782 61.7532,-108.0027 71.1454,-112.9054 72.1528,-105.9782"/>
</g>
<!-- Node18 -->
<g id="node9" class="node">
<title>Node18</title>
<g id="a_node9"><a xlink:href="lcd_8c.html#aa0d4ca88701dfecf98796e2028482b69" target="_top" xlink:title="prints a formated string to a line on the lcd. ">
<polygon fill="none" stroke="#000000" points="133.1621,-37.5 133.1621,-55.5 189.7383,-55.5 189.7383,-37.5 133.1621,-37.5"/>
<text text-anchor="middle" x="161.4502" y="-43.5" font-family="Helvetica,sans-Serif" font-size="10.00" fill="#000000">lcd_printf</text>
</a>
</g>
</g>
<!-- Node10&#45;&gt;Node18 -->
<g id="edge11" class="edge">
<title>Node10&#45;&gt;Node18</title>
<path fill="none" stroke="#191970" d="M57.0207,-89.7853C69.2185,-83.6036 84.0001,-76.3871 97.5762,-70.5 109.9661,-65.1272 123.9876,-59.7803 135.7307,-55.5016"/>
<polygon fill="#191970" stroke="#191970" points="55.1689,-86.8013 47.8646,-94.4758 58.3605,-93.0314 55.1689,-86.8013"/>
</g>
<!-- Node19 -->
<g id="node10" class="node">
<title>Node19</title>
<g id="a_node10"><a xlink:href="lcd_8c.html#a245902a4d48a6d9bd1ab308bf9b7e6b5" target="_top" xlink:title="sets the backlight of the lcd ">
<polygon fill="none" stroke="#000000" points="115.0933,-.5 115.0933,-18.5 207.8071,-18.5 207.8071,-.5 115.0933,-.5"/>
<text text-anchor="middle" x="161.4502" y="-6.5" font-family="Helvetica,sans-Serif" font-size="10.00" fill="#000000">lcd_set_backlight</text>
</a>
</g>
</g>
<!-- Node10&#45;&gt;Node19 -->
<g id="edge12" class="edge">
<title>Node10&#45;&gt;Node19</title>
<path fill="none" stroke="#191970" d="M41.8201,-85.8754C53.5749,-68.5256 73.7517,-42.5116 97.5762,-27.5 103.4247,-23.8149 110.0404,-20.8684 116.7425,-18.5167"/>
<polygon fill="#191970" stroke="#191970" points="38.7261,-84.2119 36.1864,-94.4978 44.5862,-88.0407 38.7261,-84.2119"/>
</g>
<!-- Node12 -->
<g id="node3" class="node">
<title>Node12</title>
<g id="a_node3"><a xlink:href="lcd_8c.html#a93b26f37d6b1687ad54c90feedfd29ca" target="_top" xlink:title="Initializes the lcd screen. ">
<polygon fill="none" stroke="#000000" points="274.9375,-187.5 274.9375,-205.5 349.3018,-205.5 349.3018,-187.5 274.9375,-187.5"/>
<text text-anchor="middle" x="312.1196" y="-193.5" font-family="Helvetica,sans-Serif" font-size="10.00" fill="#000000">init_main_lcd</text>
</a>
</g>
</g>
<!-- Node11&#45;&gt;Node12 -->
<g id="edge2" class="edge">
<title>Node11&#45;&gt;Node12</title>
<path fill="none" stroke="#191970" d="M199.886,-196.5C222.8901,-196.5 251.9899,-196.5 274.7939,-196.5"/>
<polygon fill="#191970" stroke="#191970" points="199.79,-193.0001 189.79,-196.5 199.7899,-200.0001 199.79,-193.0001"/>
</g>
<!-- Node14 -->
<g id="node5" class="node">
<title>Node14</title>
<g id="a_node5"><a xlink:href="menu_8c.html#abfadedb104f89f672dd3045499975a71" target="_top" xlink:title="Displays a menu contex. ">
<polygon fill="none" stroke="#000000" points="273.2676,-150.5 273.2676,-168.5 350.9717,-168.5 350.9717,-150.5 273.2676,-150.5"/>
<text text-anchor="middle" x="312.1196" y="-156.5" font-family="Helvetica,sans-Serif" font-size="10.00" fill="#000000">display_menu</text>
</a>
</g>
</g>
<!-- Node11&#45;&gt;Node14 -->
<g id="edge4" class="edge">
<title>Node11&#45;&gt;Node14</title>
<path fill="none" stroke="#191970" d="M199.6481,-187.1197C222.877,-181.4154 252.388,-174.1683 275.3521,-168.529"/>
<polygon fill="#191970" stroke="#191970" points="198.6667,-183.7566 189.79,-189.5406 200.3362,-190.5547 198.6667,-183.7566"/>
</g>
<!-- Node13 -->
<g id="node4" class="node">
<title>Node13</title>
<g id="a_node4"><a xlink:href="init_8c.html#a25a40b6614565f755233080a384c35f1" target="_top" xlink:title="Runs user initialization code. ">
<polygon fill="none" stroke="#000000" points="398.915,-187.5 398.915,-205.5 450.4863,-205.5 450.4863,-187.5 398.915,-187.5"/>
<text text-anchor="middle" x="424.7007" y="-193.5" font-family="Helvetica,sans-Serif" font-size="10.00" fill="#000000">initialize</text>
</a>
</g>
</g>
<!-- Node12&#45;&gt;Node13 -->
<g id="edge3" class="edge">
<title>Node12&#45;&gt;Node13</title>
<path fill="none" stroke="#191970" d="M359.6658,-196.5C373.0595,-196.5 387.1301,-196.5 398.7442,-196.5"/>
<polygon fill="#191970" stroke="#191970" points="359.6075,-193.0001 349.6075,-196.5 359.6075,-200.0001 359.6075,-193.0001"/>
</g>
<!-- Node15&#45;&gt;Node14 -->
<g id="edge7" class="edge">
<title>Node15&#45;&gt;Node14</title>
<path fill="none" stroke="#191970" d="M235.6675,-159.5C248.5834,-159.5 261.5431,-159.5 273.0275,-159.5"/>
<polygon fill="#191970" stroke="#191970" points="235.3476,-156.0001 225.3476,-159.5 235.3476,-163.0001 235.3476,-156.0001"/>
</g>
<!-- Node15&#45;&gt;Node16 -->
<g id="edge6" class="edge">
<title>Node15&#45;&gt;Node16</title>
<path fill="none" stroke="#191970" d="M208.2662,-148.0033C229.8809,-142.6954 255.1702,-136.4851 275.3814,-131.5218"/>
<polygon fill="#191970" stroke="#191970" points="207.1848,-144.6648 198.3081,-150.4488 208.8543,-151.4629 207.1848,-144.6648"/>
</g>
<!-- Node17&#45;&gt;Node14 -->
<g id="edge10" class="edge">
<title>Node17&#45;&gt;Node14</title>
<path fill="none" stroke="#191970" d="M198.2812,-131.5446C221.6693,-137.2881 251.8289,-144.6944 275.2286,-150.4406"/>
<polygon fill="#191970" stroke="#191970" points="198.9331,-128.1008 188.3869,-129.1149 197.2636,-134.8988 198.9331,-128.1008"/>
</g>
<!-- Node17&#45;&gt;Node16 -->
<g id="edge9" class="edge">
<title>Node17&#45;&gt;Node16</title>
<path fill="none" stroke="#191970" d="M198.6338,-122.5C217.4526,-122.5 240.5866,-122.5 261.0474,-122.5"/>
<polygon fill="#191970" stroke="#191970" points="198.3869,-119.0001 188.3869,-122.5 198.3868,-126.0001 198.3869,-119.0001"/>
</g>
</g>
</svg>
