<?xml version="1.0" encoding="UTF-8" standalone="no"?>
<!DOCTYPE svg PUBLIC "-//W3C//DTD SVG 1.1//EN"
 "http://www.w3.org/Graphics/SVG/1.1/DTD/svg11.dtd">
<!-- Generated by graphviz version 2.40.1 (20161225.0304)
 -->
<!-- Title: promt_confirmation Pages: 1 -->
<svg width="396pt" height="140pt"
 viewBox="0.00 0.00 395.94 140.00" xmlns="http://www.w3.org/2000/svg" xmlns:xlink="http://www.w3.org/1999/xlink">
<g id="graph0" class="graph" transform="scale(1 1) rotate(0) translate(4 136)">
<title>promt_confirmation</title>
<polygon fill="#ffffff" stroke="transparent" points="-4,4 -4,-136 391.9395,-136 391.9395,4 -4,4"/>
<!-- Node32 -->
<g id="node1" class="node">
<title>Node32</title>
<polygon fill="#bfbfbf" stroke="#000000" points="0,-56.5 0,-74.5 101.5908,-74.5 101.5908,-56.5 0,-56.5"/>
<text text-anchor="middle" x="50.7954" y="-62.5" font-family="Helvetica,sans-Serif" font-size="10.00" fill="#000000">promt_confirmation</text>
</g>
<!-- Node33 -->
<g id="node2" class="node">
<title>Node33</title>
<g id="a_node2"><a xlink:href="lcd_8h.html#a07f04b524b5ded617d5f193db05ba0ad" target="_top" xlink:title="Asserts the lcd is initialized Works by chekcing is the File *lcd_port is the default NULL value and ...">
<polygon fill="#ffffff" stroke="#000000" points="313.8511,-75.5 313.8511,-93.5 375.4272,-93.5 375.4272,-75.5 313.8511,-75.5"/>
<text text-anchor="middle" x="344.6392" y="-81.5" font-family="Helvetica,sans-Serif" font-size="10.00" fill="#000000">lcd_assert</text>
</a>
</g>
</g>
<!-- Node32&#45;&gt;Node33 -->
<g id="edge1" class="edge">
<title>Node32&#45;&gt;Node33</title>
<path fill="none" stroke="#191970" d="M101.6436,-68.7879C158.9298,-72.492 250.917,-78.4399 303.7529,-81.8563"/>
<polygon fill="#191970" stroke="#191970" points="303.5712,-85.3518 313.7762,-82.5044 304.0229,-78.3663 303.5712,-85.3518"/>
</g>
<!-- Node34 -->
<g id="node3" class="node">
<title>Node34</title>
<g id="a_node3"><a xlink:href="lcd_8h.html#adabd3f7cdda45119604b488caf22bba8" target="_top" xlink:title="prints a string to a line on the lcd ">
<polygon fill="#ffffff" stroke="#000000" points="174.5659,-113.5 174.5659,-131.5 228.3638,-131.5 228.3638,-113.5 174.5659,-113.5"/>
<text text-anchor="middle" x="201.4648" y="-119.5" font-family="Helvetica,sans-Serif" font-size="10.00" fill="#000000">lcd_print</text>
</a>
</g>
</g>
<!-- Node32&#45;&gt;Node34 -->
<g id="edge2" class="edge">
<title>Node32&#45;&gt;Node34</title>
<path fill="none" stroke="#191970" d="M74.7323,-74.6297C92.1575,-81.2687 116.3283,-90.4634 137.5908,-98.5 147.3976,-102.2067 158.0575,-106.2188 167.8087,-109.8822"/>
<polygon fill="#191970" stroke="#191970" points="166.5996,-113.1667 177.1917,-113.4051 169.0601,-106.6134 166.5996,-113.1667"/>
</g>
<!-- Node36 -->
<g id="node5" class="node">
<title>Node36</title>
<g id="a_node5"><a xlink:href="lcd_8h.html#ac7b3225ccc82fcbe067ba9da934f010d" target="_top" xlink:title="Returns the pressed buttons. ">
<polygon fill="#ffffff" stroke="#000000" points="137.5908,-37.5 137.5908,-55.5 265.3389,-55.5 265.3389,-37.5 137.5908,-37.5"/>
<text text-anchor="middle" x="201.4648" y="-43.5" font-family="Helvetica,sans-Serif" font-size="10.00" fill="#000000">lcd_get_pressed_buttons</text>
</a>
</g>
</g>
<!-- Node32&#45;&gt;Node36 -->
<g id="edge5" class="edge">
<title>Node32&#45;&gt;Node36</title>
<path fill="none" stroke="#191970" d="M101.8052,-59.0675C110.0276,-58.0306 118.683,-56.9391 127.3177,-55.8502"/>
<polygon fill="#191970" stroke="#191970" points="127.9337,-59.3004 137.4172,-54.5767 127.0579,-52.3554 127.9337,-59.3004"/>
</g>
<!-- Node38 -->
<g id="node7" class="node">
<title>Node38</title>
<g id="a_node7"><a xlink:href="_a_p_i_8h.html#a1c59207742a1acf45a8957d7f04f9dfe" target="_top" xlink:title="delay">
<polygon fill="#ffffff" stroke="#000000" points="181.5117,-.5 181.5117,-18.5 221.418,-18.5 221.418,-.5 181.5117,-.5"/>
<text text-anchor="middle" x="201.4648" y="-6.5" font-family="Helvetica,sans-Serif" font-size="10.00" fill="#000000">delay</text>
</a>
</g>
</g>
<!-- Node32&#45;&gt;Node38 -->
<g id="edge8" class="edge">
<title>Node32&#45;&gt;Node38</title>
<path fill="none" stroke="#191970" d="M69.4556,-56.4343C86.8302,-48.2095 113.585,-36.0912 137.5908,-27.5 148.5238,-23.5873 160.7488,-19.9654 171.5539,-17.0119"/>
<polygon fill="#191970" stroke="#191970" points="172.6245,-20.3489 181.3897,-14.3972 170.8261,-13.5838 172.6245,-20.3489"/>
</g>
<!-- Node34&#45;&gt;Node33 -->
<g id="edge3" class="edge">
<title>Node34&#45;&gt;Node33</title>
<path fill="none" stroke="#191970" d="M228.3948,-115.3525C249.5875,-109.7277 279.4741,-101.7955 303.636,-95.3827"/>
<polygon fill="#191970" stroke="#191970" points="304.8312,-98.6867 313.5987,-92.7385 303.0354,-91.921 304.8312,-98.6867"/>
</g>
<!-- Node35 -->
<g id="node4" class="node">
<title>Node35</title>
<g id="a_node4"><a xlink:href="_a_p_i_8h.html#aae51423c0e108729bbb4d26a1b265eb3" target="_top" xlink:title="lcdSetText">
<polygon fill="#ffffff" stroke="#000000" points="313.5728,-113.5 313.5728,-131.5 375.7056,-131.5 375.7056,-113.5 313.5728,-113.5"/>
<text text-anchor="middle" x="344.6392" y="-119.5" font-family="Helvetica,sans-Serif" font-size="10.00" fill="#000000">lcdSetText</text>
</a>
</g>
</g>
<!-- Node34&#45;&gt;Node35 -->
<g id="edge4" class="edge">
<title>Node34&#45;&gt;Node35</title>
<path fill="none" stroke="#191970" d="M228.3948,-122.5C249.4224,-122.5 279.0088,-122.5 303.0701,-122.5"/>
<polygon fill="#191970" stroke="#191970" points="303.3434,-126.0001 313.3434,-122.5 303.3433,-119.0001 303.3434,-126.0001"/>
</g>
<!-- Node36&#45;&gt;Node33 -->
<g id="edge6" class="edge">
<title>Node36&#45;&gt;Node33</title>
<path fill="none" stroke="#191970" d="M235.3952,-55.5055C255.8118,-60.9243 281.9412,-67.8593 303.5261,-73.5881"/>
<polygon fill="#191970" stroke="#191970" points="302.8354,-77.0259 313.3986,-76.2084 304.6311,-70.2602 302.8354,-77.0259"/>
</g>
<!-- Node37 -->
<g id="node6" class="node">
<title>Node37</title>
<g id="a_node6"><a xlink:href="_a_p_i_8h.html#a040d36e5c81594fd05d5042f3e540aed" target="_top" xlink:title="lcdReadButtons">
<polygon fill="#ffffff" stroke="#000000" points="301.3389,-37.5 301.3389,-55.5 387.9395,-55.5 387.9395,-37.5 301.3389,-37.5"/>
<text text-anchor="middle" x="344.6392" y="-43.5" font-family="Helvetica,sans-Serif" font-size="10.00" fill="#000000">lcdReadButtons</text>
</a>
</g>
</g>
<!-- Node36&#45;&gt;Node37 -->
<g id="edge7" class="edge">
<title>Node36&#45;&gt;Node37</title>
<path fill="none" stroke="#191970" d="M265.5142,-46.5C273.9951,-46.5 282.6187,-46.5 290.9017,-46.5"/>
<polygon fill="#191970" stroke="#191970" points="291.1751,-50.0001 301.175,-46.5 291.175,-43.0001 291.1751,-50.0001"/>
</g>
</g>
</svg>
