<?xml version="1.0" encoding="UTF-8" standalone="no"?>
<!DOCTYPE svg PUBLIC "-//W3C//DTD SVG 1.1//EN"
 "http://www.w3.org/Graphics/SVG/1.1/DTD/svg11.dtd">
<!-- Generated by graphviz version 2.40.1 (20161225.0304)
 -->
<!-- Title: init_main_lcd Pages: 1 -->
<svg width="346pt" height="82pt"
 viewBox="0.00 0.00 346.19 82.00" xmlns="http://www.w3.org/2000/svg" xmlns:xlink="http://www.w3.org/1999/xlink">
<g id="graph0" class="graph" transform="scale(1 1) rotate(0) translate(4 78)">
<title>init_main_lcd</title>
<!-- Node0 -->
<g id="node1" class="node">
<title>Node0</title>
<polygon fill="#bfbfbf" stroke="#000000" points="0,-18.5 0,-36.5 74.3643,-36.5 74.3643,-18.5 0,-18.5"/>
<text text-anchor="middle" x="37.1821" y="-24.5" font-family="Helvetica,sans-Serif" font-size="10.00" fill="#000000">init_main_lcd</text>
</g>
<!-- Node1 -->
<g id="node2" class="node">
<title>Node1</title>
<g id="a_node2"><a xlink:href="lcd_8c.html#a35c08b1fa742e650f4873939707b893b" target="_top" xlink:title="Clears the lcd. ">
<polygon fill="none" stroke="#000000" points="110.3643,-37.5 110.3643,-55.5 166.3838,-55.5 166.3838,-37.5 110.3643,-37.5"/>
<text text-anchor="middle" x="138.374" y="-43.5" font-family="Helvetica,sans-Serif" font-size="10.00" fill="#000000">lcd_clear</text>
</a>
</g>
</g>
<!-- Node0&#45;&gt;Node1 -->
<g id="edge1" class="edge">
<title>Node0&#45;&gt;Node1</title>
<path fill="none" stroke="#191970" d="M74.5748,-34.5209C82.9802,-36.0991 91.9084,-37.7755 100.3398,-39.3586"/>
<polygon fill="#191970" stroke="#191970" points="99.8351,-42.8249 110.3093,-41.2305 101.1269,-35.9452 99.8351,-42.8249"/>
</g>
<!-- Node5 -->
<g id="node6" class="node">
<title>Node5</title>
<g id="a_node6"><a xlink:href="_a_p_i_8h.html#a43dc11a67b697c0d32315ea5a9af85f9" target="_top" xlink:title="Initializes the LCD port, but does not change the text or settings. ">
<polygon fill="none" stroke="#000000" points="117.3125,-.5 117.3125,-18.5 159.4355,-18.5 159.4355,-.5 117.3125,-.5"/>
<text text-anchor="middle" x="138.374" y="-6.5" font-family="Helvetica,sans-Serif" font-size="10.00" fill="#000000">lcdInit</text>
</a>
</g>
</g>
<!-- Node0&#45;&gt;Node5 -->
<g id="edge5" class="edge">
<title>Node0&#45;&gt;Node5</title>
<path fill="none" stroke="#191970" d="M74.5748,-20.8486C85.3844,-18.9258 97.0586,-16.8492 107.4288,-15.0045"/>
<polygon fill="#191970" stroke="#191970" points="108.0516,-18.4488 117.2841,-13.2515 106.8256,-11.557 108.0516,-18.4488"/>
</g>
<!-- Node2 -->
<g id="node3" class="node">
<title>Node2</title>
<g id="a_node3"><a xlink:href="lcd_8c.html#aa03fd2deaeec8fc3f42a0975d587bad8" target="_top" xlink:title="Asserts the lcd is initialized Works by checking is the File *lcd_port is the default NULL value and ...">
<polygon fill="none" stroke="#000000" points="202.3838,-55.5 202.3838,-73.5 263.96,-73.5 263.96,-55.5 202.3838,-55.5"/>
<text text-anchor="middle" x="233.1719" y="-61.5" font-family="Helvetica,sans-Serif" font-size="10.00" fill="#000000">lcd_assert</text>
</a>
</g>
</g>
<!-- Node1&#45;&gt;Node2 -->
<g id="edge2" class="edge">
<title>Node1&#45;&gt;Node2</title>
<path fill="none" stroke="#191970" d="M166.5598,-51.8519C174.6408,-53.3862 183.6185,-55.0909 192.2987,-56.7391"/>
<polygon fill="#191970" stroke="#191970" points="191.8027,-60.2074 202.2801,-58.6343 193.1086,-53.3302 191.8027,-60.2074"/>
</g>
<!-- Node4 -->
<g id="node5" class="node">
<title>Node4</title>
<g id="a_node5"><a xlink:href="_a_p_i_8h.html#a5fa1d119fe3e836b5519f97eae7a1272" target="_top" xlink:title="Clears the LCD screen on the specified port. ">
<polygon fill="none" stroke="#000000" points="206.832,-18.5 206.832,-36.5 259.5117,-36.5 259.5117,-18.5 206.832,-18.5"/>
<text text-anchor="middle" x="233.1719" y="-24.5" font-family="Helvetica,sans-Serif" font-size="10.00" fill="#000000">lcdClear</text>
</a>
</g>
</g>
<!-- Node1&#45;&gt;Node4 -->
<g id="edge4" class="edge">
<title>Node1&#45;&gt;Node4</title>
<path fill="none" stroke="#191970" d="M166.5598,-40.8508C175.9575,-38.9673 186.568,-36.8407 196.5128,-34.8475"/>
<polygon fill="#191970" stroke="#191970" points="197.4394,-38.2314 206.5565,-32.8344 196.0637,-31.3679 197.4394,-38.2314"/>
</g>
<!-- Node3 -->
<g id="node4" class="node">
<title>Node3</title>
<g id="a_node4"><a xlink:href="_a_p_i_8h.html#a403c82418e475fa4a8273719e6a7f3e6" target="_top" xlink:title="Prints the formatted string to the debug stream (the PC terminal). ">
<polygon fill="none" stroke="#000000" points="299.96,-55.5 299.96,-73.5 338.1914,-73.5 338.1914,-55.5 299.96,-55.5"/>
<text text-anchor="middle" x="319.0757" y="-61.5" font-family="Helvetica,sans-Serif" font-size="10.00" fill="#000000">printf</text>
</a>
</g>
</g>
<!-- Node2&#45;&gt;Node3 -->
<g id="edge3" class="edge">
<title>Node2&#45;&gt;Node3</title>
<path fill="none" stroke="#191970" d="M264.1851,-64.5C272.4723,-64.5 281.4035,-64.5 289.605,-64.5"/>
<polygon fill="#191970" stroke="#191970" points="289.8507,-68.0001 299.8507,-64.5 289.8506,-61.0001 289.8507,-68.0001"/>
</g>
</g>
</svg>
