<?xml version="1.0" encoding="UTF-8" standalone="no"?>
<!DOCTYPE svg PUBLIC "-//W3C//DTD SVG 1.1//EN"
 "http://www.w3.org/Graphics/SVG/1.1/DTD/svg11.dtd">
<!-- Generated by graphviz version 2.40.1 (20161225.0304)
 -->
<!-- Title: lcd_clear Pages: 1 -->
<svg width="265pt" height="64pt"
 viewBox="0.00 0.00 265.29 64.00" xmlns="http://www.w3.org/2000/svg" xmlns:xlink="http://www.w3.org/1999/xlink">
<g id="graph0" class="graph" transform="scale(1 1) rotate(0) translate(4 60)">
<title>lcd_clear</title>
<!-- Node24 -->
<g id="node1" class="node">
<title>Node24</title>
<polygon fill="#bfbfbf" stroke="#000000" points="0,-18.5 0,-36.5 56.0195,-36.5 56.0195,-18.5 0,-18.5"/>
<text text-anchor="middle" x="28.0098" y="-24.5" font-family="Helvetica,sans-Serif" font-size="10.00" fill="#000000">lcd_clear</text>
</g>
<!-- Node25 -->
<g id="node2" class="node">
<title>Node25</title>
<g id="a_node2"><a xlink:href="menu_8c.html#abfadedb104f89f672dd3045499975a71" target="_top" xlink:title="Displays a menu contex. ">
<polygon fill="none" stroke="#000000" points="92.0195,-37.5 92.0195,-55.5 169.7236,-55.5 169.7236,-37.5 92.0195,-37.5"/>
<text text-anchor="middle" x="130.8716" y="-43.5" font-family="Helvetica,sans-Serif" font-size="10.00" fill="#000000">display_menu</text>
</a>
</g>
</g>
<!-- Node24&#45;&gt;Node25 -->
<g id="edge1" class="edge">
<title>Node24&#45;&gt;Node25</title>
<path fill="none" stroke="#191970" d="M66.1023,-34.5362C74.5534,-36.0973 83.5206,-37.7536 92.0023,-39.3203"/>
<polygon fill="#191970" stroke="#191970" points="66.5866,-31.0665 56.1172,-32.6918 65.3151,-37.9501 66.5866,-31.0665"/>
</g>
<!-- Node26 -->
<g id="node3" class="node">
<title>Node26</title>
<g id="a_node3"><a xlink:href="lcd_8c.html#a93b26f37d6b1687ad54c90feedfd29ca" target="_top" xlink:title="Initializes the lcd screen. ">
<polygon fill="none" stroke="#000000" points="93.6895,-.5 93.6895,-18.5 168.0537,-18.5 168.0537,-.5 93.6895,-.5"/>
<text text-anchor="middle" x="130.8716" y="-6.5" font-family="Helvetica,sans-Serif" font-size="10.00" fill="#000000">init_main_lcd</text>
</a>
</g>
</g>
<!-- Node24&#45;&gt;Node26 -->
<g id="edge2" class="edge">
<title>Node24&#45;&gt;Node26</title>
<path fill="none" stroke="#191970" d="M66.2552,-20.8074C75.1731,-19.2468 84.6582,-17.587 93.5361,-16.0334"/>
<polygon fill="#191970" stroke="#191970" points="65.3642,-17.41 56.1172,-22.5814 66.5709,-24.3052 65.3642,-17.41"/>
</g>
<!-- Node27 -->
<g id="node4" class="node">
<title>Node27</title>
<g id="a_node4"><a xlink:href="init_8c.html#a25a40b6614565f755233080a384c35f1" target="_top" xlink:title="Runs user initialization code. ">
<polygon fill="none" stroke="#000000" points="205.7236,-.5 205.7236,-18.5 257.2949,-18.5 257.2949,-.5 205.7236,-.5"/>
<text text-anchor="middle" x="231.5093" y="-6.5" font-family="Helvetica,sans-Serif" font-size="10.00" fill="#000000">initialize</text>
</a>
</g>
</g>
<!-- Node26&#45;&gt;Node27 -->
<g id="edge3" class="edge">
<title>Node26&#45;&gt;Node27</title>
<path fill="none" stroke="#191970" d="M178.1456,-9.5C187.5497,-9.5 197.0962,-9.5 205.4648,-9.5"/>
<polygon fill="#191970" stroke="#191970" points="178.0595,-6.0001 168.0594,-9.5 178.0594,-13.0001 178.0595,-6.0001"/>
</g>
</g>
</svg>
