<?xml version="1.0" encoding="UTF-8" standalone="no"?>
<!DOCTYPE svg PUBLIC "-//W3C//DTD SVG 1.1//EN"
 "http://www.w3.org/Graphics/SVG/1.1/DTD/svg11.dtd">
<!-- Generated by graphviz version 2.40.1 (20161225.0304)
 -->
<!-- Title: init_main_lcd Pages: 1 -->
<svg width="171pt" height="64pt"
 viewBox="0.00 0.00 171.04 64.00" xmlns="http://www.w3.org/2000/svg" xmlns:xlink="http://www.w3.org/1999/xlink">
<g id="graph0" class="graph" transform="scale(1 1) rotate(0) translate(4 60)">
<title>init_main_lcd</title>
<!-- Node0 -->
<g id="node1" class="node">
<title>Node0</title>
<polygon fill="#bfbfbf" stroke="#000000" points="0,-18.5 0,-36.5 74.3643,-36.5 74.3643,-18.5 0,-18.5"/>
<text text-anchor="middle" x="37.1821" y="-24.5" font-family="Helvetica,sans-Serif" font-size="10.00" fill="#000000">init_main_lcd</text>
</g>
<!-- Node1 -->
<g id="node2" class="node">
<title>Node1</title>
<g id="a_node2"><a xlink:href="_a_p_i_8h.html#a5fa1d119fe3e836b5519f97eae7a1272" target="_top" xlink:title="lcdClear">
<polygon fill="none" stroke="#000000" points="110.3643,-37.5 110.3643,-55.5 163.0439,-55.5 163.0439,-37.5 110.3643,-37.5"/>
<text text-anchor="middle" x="136.7041" y="-43.5" font-family="Helvetica,sans-Serif" font-size="10.00" fill="#000000">lcdClear</text>
</a>
</g>
</g>
<!-- Node0&#45;&gt;Node1 -->
<g id="edge1" class="edge">
<title>Node0&#45;&gt;Node1</title>
<path fill="none" stroke="#191970" d="M74.5236,-34.629C82.9934,-36.246 91.9761,-37.9609 100.4021,-39.5695"/>
<polygon fill="#191970" stroke="#191970" points="99.853,-43.0278 110.332,-41.4652 101.1658,-36.152 99.853,-43.0278"/>
</g>
<!-- Node2 -->
<g id="node3" class="node">
<title>Node2</title>
<g id="a_node3"><a xlink:href="_a_p_i_8h.html#a43dc11a67b697c0d32315ea5a9af85f9" target="_top" xlink:title="lcdInit">
<polygon fill="none" stroke="#000000" points="115.6426,-.5 115.6426,-18.5 157.7656,-18.5 157.7656,-.5 115.6426,-.5"/>
<text text-anchor="middle" x="136.7041" y="-6.5" font-family="Helvetica,sans-Serif" font-size="10.00" fill="#000000">lcdInit</text>
</a>
</g>
</g>
<!-- Node0&#45;&gt;Node2 -->
<g id="edge2" class="edge">
<title>Node0&#45;&gt;Node2</title>
<path fill="none" stroke="#191970" d="M74.5236,-20.7463C84.7309,-18.9001 95.6829,-16.9193 105.5079,-15.1423"/>
<polygon fill="#191970" stroke="#191970" points="106.4206,-18.5341 115.638,-13.3101 105.1747,-11.6458 106.4206,-18.5341"/>
</g>
</g>
</svg>
