<?xml version="1.0" encoding="UTF-8" standalone="no"?>
<!DOCTYPE svg PUBLIC "-//W3C//DTD SVG 1.1//EN"
 "http://www.w3.org/Graphics/SVG/1.1/DTD/svg11.dtd">
<!-- Generated by graphviz version 2.40.1 (20161225.0304)
 -->
<!-- Title: lcd_clear Pages: 1 -->
<svg width="236pt" height="64pt"
 viewBox="0.00 0.00 235.83 64.00" xmlns="http://www.w3.org/2000/svg" xmlns:xlink="http://www.w3.org/1999/xlink">
<g id="graph0" class="graph" transform="scale(1 1) rotate(0) translate(4 60)">
<title>lcd_clear</title>
<!-- Node8 -->
<g id="node1" class="node">
<title>Node8</title>
<polygon fill="#bfbfbf" stroke="#000000" points="0,-18.5 0,-36.5 56.0195,-36.5 56.0195,-18.5 0,-18.5"/>
<text text-anchor="middle" x="28.0098" y="-24.5" font-family="Helvetica,sans-Serif" font-size="10.00" fill="#000000">lcd_clear</text>
</g>
<!-- Node9 -->
<g id="node2" class="node">
<title>Node9</title>
<g id="a_node2"><a xlink:href="lcd_8c.html#aa03fd2deaeec8fc3f42a0975d587bad8" target="_top" xlink:title="Asserts the lcd is initialized Works by checking is the File *lcd_port is the default NULL value and ...">
<polygon fill="none" stroke="#000000" points="92.0195,-37.5 92.0195,-55.5 153.5957,-55.5 153.5957,-37.5 92.0195,-37.5"/>
<text text-anchor="middle" x="122.8076" y="-43.5" font-family="Helvetica,sans-Serif" font-size="10.00" fill="#000000">lcd_assert</text>
</a>
</g>
</g>
<!-- Node8&#45;&gt;Node9 -->
<g id="edge1" class="edge">
<title>Node8&#45;&gt;Node9</title>
<path fill="none" stroke="#191970" d="M56.1956,-33.1492C64.2765,-34.7688 73.2543,-36.5682 81.9344,-38.3079"/>
<polygon fill="#191970" stroke="#191970" points="81.423,-41.775 91.9158,-40.3085 82.7987,-34.9115 81.423,-41.775"/>
</g>
<!-- Node11 -->
<g id="node4" class="node">
<title>Node11</title>
<g id="a_node4"><a xlink:href="_a_p_i_8h.html#a5fa1d119fe3e836b5519f97eae7a1272" target="_top" xlink:title="Clears the LCD screen on the specified port. ">
<polygon fill="none" stroke="#000000" points="96.4678,-.5 96.4678,-18.5 149.1475,-18.5 149.1475,-.5 96.4678,-.5"/>
<text text-anchor="middle" x="122.8076" y="-6.5" font-family="Helvetica,sans-Serif" font-size="10.00" fill="#000000">lcdClear</text>
</a>
</g>
</g>
<!-- Node8&#45;&gt;Node11 -->
<g id="edge3" class="edge">
<title>Node8&#45;&gt;Node11</title>
<path fill="none" stroke="#191970" d="M56.1956,-22.1481C65.5932,-20.3637 76.2037,-18.349 86.1485,-16.4607"/>
<polygon fill="#191970" stroke="#191970" points="87.0207,-19.8578 96.1923,-14.5537 85.7149,-12.9806 87.0207,-19.8578"/>
</g>
<!-- Node10 -->
<g id="node3" class="node">
<title>Node10</title>
<g id="a_node3"><a xlink:href="_a_p_i_8h.html#a403c82418e475fa4a8273719e6a7f3e6" target="_top" xlink:title="Prints the formatted string to the debug stream (the PC terminal). ">
<polygon fill="none" stroke="#000000" points="189.5957,-37.5 189.5957,-55.5 227.8271,-55.5 227.8271,-37.5 189.5957,-37.5"/>
<text text-anchor="middle" x="208.7114" y="-43.5" font-family="Helvetica,sans-Serif" font-size="10.00" fill="#000000">printf</text>
</a>
</g>
</g>
<!-- Node9&#45;&gt;Node10 -->
<g id="edge2" class="edge">
<title>Node9&#45;&gt;Node10</title>
<path fill="none" stroke="#191970" d="M153.8209,-46.5C162.108,-46.5 171.0392,-46.5 179.2407,-46.5"/>
<polygon fill="#191970" stroke="#191970" points="179.4865,-50.0001 189.4864,-46.5 179.4864,-43.0001 179.4865,-50.0001"/>
</g>
</g>
</svg>
