<?xml version="1.0" encoding="UTF-8" standalone="no"?>
<!DOCTYPE svg PUBLIC "-//W3C//DTD SVG 1.1//EN"
 "http://www.w3.org/Graphics/SVG/1.1/DTD/svg11.dtd">
<!-- Generated by graphviz version 2.40.1 (20161225.0304)
 -->
<!-- Title: lcd_print Pages: 1 -->
<svg width="234pt" height="64pt"
 viewBox="0.00 0.00 234.16 64.00" xmlns="http://www.w3.org/2000/svg" xmlns:xlink="http://www.w3.org/1999/xlink">
<g id="graph0" class="graph" transform="scale(1 1) rotate(0) translate(4 60)">
<title>lcd_print</title>
<!-- Node25 -->
<g id="node1" class="node">
<title>Node25</title>
<polygon fill="#bfbfbf" stroke="#000000" points="0,-18.5 0,-36.5 53.7979,-36.5 53.7979,-18.5 0,-18.5"/>
<text text-anchor="middle" x="26.8989" y="-24.5" font-family="Helvetica,sans-Serif" font-size="10.00" fill="#000000">lcd_print</text>
</g>
<!-- Node26 -->
<g id="node2" class="node">
<title>Node26</title>
<g id="a_node2"><a xlink:href="lcd_8c.html#a07f04b524b5ded617d5f193db05ba0ad" target="_top" xlink:title="lcd_assert">
<polygon fill="none" stroke="#000000" points="90.0762,-37.5 90.0762,-55.5 151.6523,-55.5 151.6523,-37.5 90.0762,-37.5"/>
<text text-anchor="middle" x="120.8643" y="-43.5" font-family="Helvetica,sans-Serif" font-size="10.00" fill="#000000">lcd_assert</text>
</a>
</g>
</g>
<!-- Node25&#45;&gt;Node26 -->
<g id="edge1" class="edge">
<title>Node25&#45;&gt;Node26</title>
<path fill="none" stroke="#191970" d="M53.8256,-32.9446C62.0214,-34.6018 71.2195,-36.4617 80.1143,-38.2603"/>
<polygon fill="#191970" stroke="#191970" points="79.4629,-41.6993 89.9582,-40.2507 80.8503,-34.8382 79.4629,-41.6993"/>
</g>
<!-- Node28 -->
<g id="node4" class="node">
<title>Node28</title>
<g id="a_node4"><a xlink:href="_a_p_i_8h.html#aae51423c0e108729bbb4d26a1b265eb3" target="_top" xlink:title="lcdSetText">
<polygon fill="none" stroke="#000000" points="89.7979,-.5 89.7979,-18.5 151.9307,-18.5 151.9307,-.5 89.7979,-.5"/>
<text text-anchor="middle" x="120.8643" y="-6.5" font-family="Helvetica,sans-Serif" font-size="10.00" fill="#000000">lcdSetText</text>
</a>
</g>
</g>
<!-- Node25&#45;&gt;Node28 -->
<g id="edge3" class="edge">
<title>Node25&#45;&gt;Node28</title>
<path fill="none" stroke="#191970" d="M53.8256,-22.3419C61.8553,-20.8038 70.8471,-19.0813 79.5732,-17.4097"/>
<polygon fill="#191970" stroke="#191970" points="80.4582,-20.8039 89.6211,-15.4849 79.1411,-13.9289 80.4582,-20.8039"/>
</g>
<!-- Node27 -->
<g id="node3" class="node">
<title>Node27</title>
<g id="a_node3"><a xlink:href="_a_p_i_8h.html#a403c82418e475fa4a8273719e6a7f3e6" target="_top" xlink:title="printf">
<polygon fill="none" stroke="#000000" points="187.9307,-37.5 187.9307,-55.5 226.1621,-55.5 226.1621,-37.5 187.9307,-37.5"/>
<text text-anchor="middle" x="207.0464" y="-43.5" font-family="Helvetica,sans-Serif" font-size="10.00" fill="#000000">printf</text>
</a>
</g>
</g>
<!-- Node26&#45;&gt;Node27 -->
<g id="edge2" class="edge">
<title>Node26&#45;&gt;Node27</title>
<path fill="none" stroke="#191970" d="M151.978,-46.5C160.3854,-46.5 169.4536,-46.5 177.7573,-46.5"/>
<polygon fill="#191970" stroke="#191970" points="177.7591,-50.0001 187.7591,-46.5 177.7591,-43.0001 177.7591,-50.0001"/>
</g>
</g>
</svg>
