<?xml version="1.0" encoding="UTF-8" standalone="no"?>
<!DOCTYPE svg PUBLIC "-//W3C//DTD SVG 1.1//EN"
 "http://www.w3.org/Graphics/SVG/1.1/DTD/svg11.dtd">
<!-- Generated by graphviz version 2.40.1 (20161225.0304)
 -->
<!-- Title: include/lcd.h Pages: 1 -->
<svg width="387pt" height="192pt"
 viewBox="0.00 0.00 387.25 192.00" xmlns="http://www.w3.org/2000/svg" xmlns:xlink="http://www.w3.org/1999/xlink">
<g id="graph0" class="graph" transform="scale(1 1) rotate(0) translate(4 188)">
<title>include/lcd.h</title>
<!-- Node6 -->
<g id="node1" class="node">
<title>Node6</title>
<polygon fill="#bfbfbf" stroke="#000000" points="197.1157,-165.5 197.1157,-183.5 268.7065,-183.5 268.7065,-165.5 197.1157,-165.5"/>
<text text-anchor="middle" x="232.9111" y="-171.5" font-family="Helvetica,sans-Serif" font-size="10.00" fill="#000000">include/lcd.h</text>
</g>
<!-- Node7 -->
<g id="node2" class="node">
<title>Node7</title>
<g id="a_node2"><a xlink:href="log_8h.html" target="_top" xlink:title="Contains logging functions. ">
<polygon fill="none" stroke="#000000" points="130.835,-110.5 130.835,-128.5 202.9873,-128.5 202.9873,-110.5 130.835,-110.5"/>
<text text-anchor="middle" x="166.9111" y="-116.5" font-family="Helvetica,sans-Serif" font-size="10.00" fill="#000000">include/log.h</text>
</a>
</g>
</g>
<!-- Node6&#45;&gt;Node7 -->
<g id="edge1" class="edge">
<title>Node6&#45;&gt;Node7</title>
<path fill="none" stroke="#191970" d="M214.1525,-158.8678C202.4953,-149.1535 187.9044,-136.9944 178.0465,-128.7795"/>
<polygon fill="#191970" stroke="#191970" points="212.0897,-161.7048 222.0126,-165.4179 216.571,-156.3272 212.0897,-161.7048"/>
</g>
<!-- Node8 -->
<g id="node3" class="node">
<title>Node8</title>
<g id="a_node3"><a xlink:href="menu_8h.html" target="_top" xlink:title="Contains menu functionality and abstraction. ">
<polygon fill="none" stroke="#000000" points="0,-55.5 0,-73.5 83.8223,-73.5 83.8223,-55.5 0,-55.5"/>
<text text-anchor="middle" x="41.9111" y="-61.5" font-family="Helvetica,sans-Serif" font-size="10.00" fill="#000000">include/menu.h</text>
</a>
</g>
</g>
<!-- Node6&#45;&gt;Node8 -->
<g id="edge8" class="edge">
<title>Node6&#45;&gt;Node8</title>
<path fill="none" stroke="#191970" d="M194.8009,-161.987C172.7603,-153.9997 144.9229,-142.6001 121.9111,-129 94.265,-112.6609 65.9454,-87.4109 51.5673,-73.8587"/>
<polygon fill="#191970" stroke="#191970" points="193.8868,-165.3761 204.4816,-165.4123 196.2219,-158.7771 193.8868,-165.3761"/>
</g>
<!-- Node9 -->
<g id="node4" class="node">
<title>Node9</title>
<g id="a_node4"><a xlink:href="init_8c.html" target="_top" xlink:title="File for initialization code. ">
<polygon fill="none" stroke="#000000" points="89.5762,-.5 89.5762,-18.5 142.2461,-18.5 142.2461,-.5 89.5762,-.5"/>
<text text-anchor="middle" x="115.9111" y="-6.5" font-family="Helvetica,sans-Serif" font-size="10.00" fill="#000000">src/init.c</text>
</a>
</g>
</g>
<!-- Node6&#45;&gt;Node9 -->
<g id="edge9" class="edge">
<title>Node6&#45;&gt;Node9</title>
<path fill="none" stroke="#191970" d="M249.0879,-157.8423C270.8798,-133.3457 304.2779,-87.0475 279.9111,-55 263.2792,-33.1255 184.2411,-19.0182 142.2606,-12.9389"/>
<polygon fill="#191970" stroke="#191970" points="246.4511,-155.5387 242.2428,-165.2619 251.5961,-160.2852 246.4511,-155.5387"/>
</g>
<!-- Node13 -->
<g id="node8" class="node">
<title>Node13</title>
<g id="a_node8"><a xlink:href="lcd_8c.html" target="_top" xlink:title="src/lcd.c">
<polygon fill="none" stroke="#000000" points="326.5762,-110.5 326.5762,-128.5 379.2461,-128.5 379.2461,-110.5 326.5762,-110.5"/>
<text text-anchor="middle" x="352.9111" y="-116.5" font-family="Helvetica,sans-Serif" font-size="10.00" fill="#000000">src/lcd.c</text>
</a>
</g>
</g>
<!-- Node6&#45;&gt;Node13 -->
<g id="edge10" class="edge">
<title>Node6&#45;&gt;Node13</title>
<path fill="none" stroke="#191970" d="M261.9459,-161.1924C283.9795,-151.0937 313.6877,-137.4774 333.0661,-128.5956"/>
<polygon fill="#191970" stroke="#191970" points="260.359,-158.0695 252.7267,-165.4179 263.2757,-164.433 260.359,-158.0695"/>
</g>
<!-- Node7&#45;&gt;Node8 -->
<g id="edge2" class="edge">
<title>Node7&#45;&gt;Node8</title>
<path fill="none" stroke="#191970" d="M136.9749,-106.328C113.9926,-96.2159 82.8594,-82.5172 62.583,-73.5956"/>
<polygon fill="#191970" stroke="#191970" points="135.7072,-109.594 146.2699,-110.4179 138.5264,-103.1868 135.7072,-109.594"/>
</g>
<!-- Node7&#45;&gt;Node9 -->
<g id="edge5" class="edge">
<title>Node7&#45;&gt;Node9</title>
<path fill="none" stroke="#191970" d="M150.6244,-102.6445C143.6188,-94.5524 135.9077,-84.3721 130.9111,-74 122.0297,-55.5635 118.2471,-31.5821 116.7666,-18.68"/>
<polygon fill="#191970" stroke="#191970" points="148.2116,-105.1937 157.5264,-110.242 153.3929,-100.4868 148.2116,-105.1937"/>
</g>
<!-- Node11 -->
<g id="node6" class="node">
<title>Node11</title>
<g id="a_node6"><a xlink:href="log_8c.html" target="_top" xlink:title="src/log.c">
<polygon fill="none" stroke="#000000" points="140.2954,-55.5 140.2954,-73.5 193.5269,-73.5 193.5269,-55.5 140.2954,-55.5"/>
<text text-anchor="middle" x="166.9111" y="-61.5" font-family="Helvetica,sans-Serif" font-size="10.00" fill="#000000">src/log.c</text>
</a>
</g>
</g>
<!-- Node7&#45;&gt;Node11 -->
<g id="edge6" class="edge">
<title>Node7&#45;&gt;Node11</title>
<path fill="none" stroke="#191970" d="M166.9111,-100.383C166.9111,-91.3738 166.9111,-81.0373 166.9111,-73.7795"/>
<polygon fill="#191970" stroke="#191970" points="163.4112,-100.4178 166.9111,-110.4179 170.4112,-100.4179 163.4112,-100.4178"/>
</g>
<!-- Node12 -->
<g id="node7" class="node">
<title>Node12</title>
<g id="a_node7"><a xlink:href="slew_8c.html" target="_top" xlink:title="src/slew.c">
<polygon fill="none" stroke="#000000" points="211.2388,-55.5 211.2388,-73.5 270.5835,-73.5 270.5835,-55.5 211.2388,-55.5"/>
<text text-anchor="middle" x="240.9111" y="-61.5" font-family="Helvetica,sans-Serif" font-size="10.00" fill="#000000">src/slew.c</text>
</a>
</g>
</g>
<!-- Node7&#45;&gt;Node12 -->
<g id="edge7" class="edge">
<title>Node7&#45;&gt;Node12</title>
<path fill="none" stroke="#191970" d="M187.2382,-104.392C200.5176,-94.5222 217.42,-81.9596 228.6734,-73.5956"/>
<polygon fill="#191970" stroke="#191970" points="185.0689,-101.6435 179.1307,-110.4179 189.2445,-107.2617 185.0689,-101.6435"/>
</g>
<!-- Node8&#45;&gt;Node9 -->
<g id="edge3" class="edge">
<title>Node8&#45;&gt;Node9</title>
<path fill="none" stroke="#191970" d="M62.2382,-49.392C75.5176,-39.5222 92.42,-26.9596 103.6734,-18.5956"/>
<polygon fill="#191970" stroke="#191970" points="60.0689,-46.6435 54.1307,-55.4179 64.2445,-52.2617 60.0689,-46.6435"/>
</g>
<!-- Node10 -->
<g id="node5" class="node">
<title>Node10</title>
<g id="a_node5"><a xlink:href="menu_8c.html" target="_top" xlink:title="src/menu.c">
<polygon fill="none" stroke="#000000" points="6.4604,-.5 6.4604,-18.5 71.3618,-18.5 71.3618,-.5 6.4604,-.5"/>
<text text-anchor="middle" x="38.9111" y="-6.5" font-family="Helvetica,sans-Serif" font-size="10.00" fill="#000000">src/menu.c</text>
</a>
</g>
</g>
<!-- Node8&#45;&gt;Node10 -->
<g id="edge4" class="edge">
<title>Node8&#45;&gt;Node10</title>
<path fill="none" stroke="#191970" d="M40.8684,-45.383C40.377,-36.3738 39.8132,-26.0373 39.4173,-18.7795"/>
<polygon fill="#191970" stroke="#191970" points="37.3762,-45.6234 41.4157,-55.4179 44.3658,-45.2421 37.3762,-45.6234"/>
</g>
</g>
</svg>
