<?xml version="1.0" encoding="UTF-8" standalone="no"?>
<!DOCTYPE svg PUBLIC "-//W3C//DTD SVG 1.1//EN"
 "http://www.w3.org/Graphics/SVG/1.1/DTD/svg11.dtd">
<!-- Generated by graphviz version 2.40.1 (20161225.0304)
 -->
<!-- Title: include/lcd.h Pages: 1 -->
<svg width="306pt" height="137pt"
 viewBox="0.00 0.00 306.24 137.00" xmlns="http://www.w3.org/2000/svg" xmlns:xlink="http://www.w3.org/1999/xlink">
<g id="graph0" class="graph" transform="scale(1 1) rotate(0) translate(4 133)">
<title>include/lcd.h</title>
<polygon fill="#ffffff" stroke="transparent" points="-4,4 -4,-133 302.2388,-133 302.2388,4 -4,4"/>
<!-- Node0 -->
<g id="node1" class="node">
<title>Node0</title>
<polygon fill="#bfbfbf" stroke="#000000" points="186.0469,-110.5 186.0469,-128.5 257.6377,-128.5 257.6377,-110.5 186.0469,-110.5"/>
<text text-anchor="middle" x="221.8423" y="-116.5" font-family="Helvetica,sans-Serif" font-size="10.00" fill="#000000">include/lcd.h</text>
</g>
<!-- Node1 -->
<g id="node2" class="node">
<title>Node1</title>
<g id="a_node2"><a xlink:href="_a_p_i_8h.html" target="_top" xlink:title="Provides the high&#45;level user functionality intended for use by typical VEX Cortex programmers...">
<polygon fill="#ffffff" stroke="#000000" points="143.6133,-55.5 143.6133,-73.5 184.0713,-73.5 184.0713,-55.5 143.6133,-55.5"/>
<text text-anchor="middle" x="163.8423" y="-61.5" font-family="Helvetica,sans-Serif" font-size="10.00" fill="#000000">API.h</text>
</a>
</g>
</g>
<!-- Node0&#45;&gt;Node1 -->
<g id="edge1" class="edge">
<title>Node0&#45;&gt;Node1</title>
<path fill="none" stroke="#191970" d="M212.2648,-110.4179C203.8359,-102.425 191.3557,-90.5903 181.1766,-80.9377"/>
<polygon fill="#191970" stroke="#191970" points="183.2925,-78.1207 173.6279,-73.7795 178.4758,-83.2001 183.2925,-78.1207"/>
</g>
<!-- Node4 -->
<g id="node5" class="node">
<title>Node4</title>
<polygon fill="#ffffff" stroke="#bfbfbf" points="205.7759,-.5 205.7759,-18.5 257.9087,-18.5 257.9087,-.5 205.7759,-.5"/>
<text text-anchor="middle" x="231.8423" y="-6.5" font-family="Helvetica,sans-Serif" font-size="10.00" fill="#000000">stdarg.h</text>
</g>
<!-- Node0&#45;&gt;Node4 -->
<g id="edge7" class="edge">
<title>Node0&#45;&gt;Node4</title>
<path fill="none" stroke="#191970" d="M222.6606,-110.4982C224.2794,-92.6913 227.9221,-52.6225 230.1012,-28.6515"/>
<polygon fill="#191970" stroke="#191970" points="233.5928,-28.902 231.0126,-18.6261 226.6216,-28.2682 233.5928,-28.902"/>
</g>
<!-- Node6 -->
<g id="node7" class="node">
<title>Node6</title>
<polygon fill="#ffffff" stroke="#bfbfbf" points="249.4458,-55.5 249.4458,-73.5 298.2388,-73.5 298.2388,-55.5 249.4458,-55.5"/>
<text text-anchor="middle" x="273.8423" y="-61.5" font-family="Helvetica,sans-Serif" font-size="10.00" fill="#000000">string.h</text>
</g>
<!-- Node0&#45;&gt;Node6 -->
<g id="edge6" class="edge">
<title>Node0&#45;&gt;Node6</title>
<path fill="none" stroke="#191970" d="M230.429,-110.4179C237.9111,-102.5041 248.9538,-90.8243 258.0295,-81.2251"/>
<polygon fill="#191970" stroke="#191970" points="260.7421,-83.4505 265.069,-73.7795 255.6556,-78.6414 260.7421,-83.4505"/>
</g>
<!-- Node2 -->
<g id="node3" class="node">
<title>Node2</title>
<polygon fill="#ffffff" stroke="#bfbfbf" points="0,-.5 0,-18.5 47.6846,-18.5 47.6846,-.5 0,-.5"/>
<text text-anchor="middle" x="23.8423" y="-6.5" font-family="Helvetica,sans-Serif" font-size="10.00" fill="#000000">stdlib.h</text>
</g>
<!-- Node1&#45;&gt;Node2 -->
<g id="edge2" class="edge">
<title>Node1&#45;&gt;Node2</title>
<path fill="none" stroke="#191970" d="M143.4851,-56.5025C120.6557,-47.5338 83.3125,-32.8633 56.4141,-22.2961"/>
<polygon fill="#191970" stroke="#191970" points="57.6103,-19.0057 47.023,-18.6067 55.0507,-25.5209 57.6103,-19.0057"/>
</g>
<!-- Node3 -->
<g id="node4" class="node">
<title>Node3</title>
<polygon fill="#ffffff" stroke="#bfbfbf" points="65.5493,-.5 65.5493,-18.5 122.1353,-18.5 122.1353,-.5 65.5493,-.5"/>
<text text-anchor="middle" x="93.8423" y="-6.5" font-family="Helvetica,sans-Serif" font-size="10.00" fill="#000000">stdbool.h</text>
</g>
<!-- Node1&#45;&gt;Node3 -->
<g id="edge3" class="edge">
<title>Node1&#45;&gt;Node3</title>
<path fill="none" stroke="#191970" d="M152.2832,-55.4179C141.8083,-47.1876 126.1491,-34.8839 113.6759,-25.0836"/>
<polygon fill="#191970" stroke="#191970" points="115.6781,-22.2056 105.6525,-18.7795 111.3533,-27.7098 115.6781,-22.2056"/>
</g>
<!-- Node1&#45;&gt;Node4 -->
<g id="edge4" class="edge">
<title>Node1&#45;&gt;Node4</title>
<path fill="none" stroke="#191970" d="M175.0711,-55.4179C185.2467,-47.1876 200.4586,-34.8839 212.5753,-25.0836"/>
<polygon fill="#191970" stroke="#191970" points="214.7954,-27.7895 220.3695,-18.7795 210.3933,-22.3469 214.7954,-27.7895"/>
</g>
<!-- Node5 -->
<g id="node6" class="node">
<title>Node5</title>
<polygon fill="#ffffff" stroke="#bfbfbf" points="139.7217,-.5 139.7217,-18.5 187.9629,-18.5 187.9629,-.5 139.7217,-.5"/>
<text text-anchor="middle" x="163.8423" y="-6.5" font-family="Helvetica,sans-Serif" font-size="10.00" fill="#000000">stdint.h</text>
</g>
<!-- Node1&#45;&gt;Node5 -->
<g id="edge5" class="edge">
<title>Node1&#45;&gt;Node5</title>
<path fill="none" stroke="#191970" d="M163.8423,-55.4179C163.8423,-48.2164 163.8423,-37.8962 163.8423,-28.8632"/>
<polygon fill="#191970" stroke="#191970" points="167.3424,-28.7794 163.8423,-18.7795 160.3424,-28.7795 167.3424,-28.7794"/>
</g>
</g>
</svg>
