<?xml version="1.0" encoding="UTF-8" standalone="no"?>
<!DOCTYPE svg PUBLIC "-//W3C//DTD SVG 1.1//EN"
 "http://www.w3.org/Graphics/SVG/1.1/DTD/svg11.dtd">
<!-- Generated by graphviz version 2.40.1 (20161225.0304)
 -->
<!-- Title: lcd_get_pressed_buttons Pages: 1 -->
<svg width="258pt" height="64pt"
 viewBox="0.00 0.00 258.35 64.00" xmlns="http://www.w3.org/2000/svg" xmlns:xlink="http://www.w3.org/1999/xlink">
<g id="graph0" class="graph" transform="scale(1 1) rotate(0) translate(4 60)">
<title>lcd_get_pressed_buttons</title>
<polygon fill="#ffffff" stroke="transparent" points="-4,4 -4,-60 254.3486,-60 254.3486,4 -4,4"/>
<!-- Node15 -->
<g id="node1" class="node">
<title>Node15</title>
<polygon fill="#bfbfbf" stroke="#000000" points="0,-18.5 0,-36.5 127.748,-36.5 127.748,-18.5 0,-18.5"/>
<text text-anchor="middle" x="63.874" y="-24.5" font-family="Helvetica,sans-Serif" font-size="10.00" fill="#000000">lcd_get_pressed_buttons</text>
</g>
<!-- Node16 -->
<g id="node2" class="node">
<title>Node16</title>
<g id="a_node2"><a xlink:href="lcd_8h.html#a07f04b524b5ded617d5f193db05ba0ad" target="_top" xlink:title="Asserts the lcd is initialized Works by chekcing is the File *lcd_port is the default NULL value and ...">
<polygon fill="#ffffff" stroke="#000000" points="176.2603,-37.5 176.2603,-55.5 237.8364,-55.5 237.8364,-37.5 176.2603,-37.5"/>
<text text-anchor="middle" x="207.0483" y="-43.5" font-family="Helvetica,sans-Serif" font-size="10.00" fill="#000000">lcd_assert</text>
</a>
</g>
</g>
<!-- Node15&#45;&gt;Node16 -->
<g id="edge1" class="edge">
<title>Node15&#45;&gt;Node16</title>
<path fill="none" stroke="#191970" d="M127.9234,-35.9997C140.8227,-37.7115 154.0522,-39.4671 165.9113,-41.0409"/>
<polygon fill="#191970" stroke="#191970" points="165.564,-44.5254 175.9375,-42.3714 166.4849,-37.5862 165.564,-44.5254"/>
</g>
<!-- Node17 -->
<g id="node3" class="node">
<title>Node17</title>
<g id="a_node3"><a xlink:href="_a_p_i_8h.html#a040d36e5c81594fd05d5042f3e540aed" target="_top" xlink:title="lcdReadButtons">
<polygon fill="#ffffff" stroke="#000000" points="163.748,-.5 163.748,-18.5 250.3486,-18.5 250.3486,-.5 163.748,-.5"/>
<text text-anchor="middle" x="207.0483" y="-6.5" font-family="Helvetica,sans-Serif" font-size="10.00" fill="#000000">lcdReadButtons</text>
</a>
</g>
</g>
<!-- Node15&#45;&gt;Node17 -->
<g id="edge2" class="edge">
<title>Node15&#45;&gt;Node17</title>
<path fill="none" stroke="#191970" d="M127.9234,-19.4477C136.4985,-18.3696 145.2195,-17.2732 153.5869,-16.2212"/>
<polygon fill="#191970" stroke="#191970" points="154.0989,-19.6845 163.5842,-14.9643 153.2257,-12.7392 154.0989,-19.6845"/>
</g>
</g>
</svg>
