<?xml version="1.0" encoding="UTF-8" standalone="no"?>
<!DOCTYPE svg PUBLIC "-//W3C//DTD SVG 1.1//EN"
 "http://www.w3.org/Graphics/SVG/1.1/DTD/svg11.dtd">
<!-- Generated by graphviz version 2.40.1 (20161225.0304)
 -->
<!-- Title: promt_confirmation Pages: 1 -->
<svg width="371pt" height="79pt"
 viewBox="0.00 0.00 370.92 78.95" xmlns="http://www.w3.org/2000/svg" xmlns:xlink="http://www.w3.org/1999/xlink">
<g id="graph0" class="graph" transform="scale(1 1) rotate(0) translate(4 74.948)">
<title>promt_confirmation</title>
<!-- Node24 -->
<g id="node1" class="node">
<title>Node24</title>
<polygon fill="#bfbfbf" stroke="#000000" points="0,-37.5 0,-55.5 101.5908,-55.5 101.5908,-37.5 0,-37.5"/>
<text text-anchor="middle" x="50.7954" y="-43.5" font-family="Helvetica,sans-Serif" font-size="10.00" fill="#000000">promt_confirmation</text>
</g>
<!-- Node25 -->
<g id="node2" class="node">
<title>Node25</title>
<g id="a_node2"><a xlink:href="lcd_8c.html#a07f04b524b5ded617d5f193db05ba0ad" target="_top" xlink:title="Asserts the lcd is initialized Works by checking is the File *lcd_port is the default NULL value and ...">
<polygon fill="none" stroke="#000000" points="301.3389,-37.5 301.3389,-55.5 362.915,-55.5 362.915,-37.5 301.3389,-37.5"/>
<text text-anchor="middle" x="332.127" y="-43.5" font-family="Helvetica,sans-Serif" font-size="10.00" fill="#000000">lcd_assert</text>
</a>
</g>
</g>
<!-- Node24&#45;&gt;Node25 -->
<g id="edge1" class="edge">
<title>Node24&#45;&gt;Node25</title>
<path fill="none" stroke="#191970" d="M83.9039,-55.5049C99.9761,-59.4236 119.6477,-63.5591 137.5908,-65.5 194.0384,-71.6061 209.1063,-73.343 265.3389,-65.5 275.7264,-64.0512 286.7672,-61.3928 296.8177,-58.5142"/>
<polygon fill="#191970" stroke="#191970" points="297.9149,-61.839 306.4771,-55.5989 295.8923,-55.1376 297.9149,-61.839"/>
</g>
<!-- Node26 -->
<g id="node3" class="node">
<title>Node26</title>
<g id="a_node3"><a xlink:href="lcd_8c.html#ac7b3225ccc82fcbe067ba9da934f010d" target="_top" xlink:title="Returns the pressed buttons. ">
<polygon fill="none" stroke="#000000" points="137.5908,-37.5 137.5908,-55.5 265.3389,-55.5 265.3389,-37.5 137.5908,-37.5"/>
<text text-anchor="middle" x="201.4648" y="-43.5" font-family="Helvetica,sans-Serif" font-size="10.00" fill="#000000">lcd_get_pressed_buttons</text>
</a>
</g>
</g>
<!-- Node24&#45;&gt;Node26 -->
<g id="edge2" class="edge">
<title>Node24&#45;&gt;Node26</title>
<path fill="none" stroke="#191970" d="M101.8052,-46.5C110.0276,-46.5 118.683,-46.5 127.3177,-46.5"/>
<polygon fill="#191970" stroke="#191970" points="127.4173,-50.0001 137.4172,-46.5 127.4172,-43.0001 127.4173,-50.0001"/>
</g>
<!-- Node27 -->
<g id="node4" class="node">
<title>Node27</title>
<g id="a_node4"><a xlink:href="lcd_8c.html#adabd3f7cdda45119604b488caf22bba8" target="_top" xlink:title="prints a string to a line on the lcd ">
<polygon fill="none" stroke="#000000" points="174.5659,-.5 174.5659,-18.5 228.3638,-18.5 228.3638,-.5 174.5659,-.5"/>
<text text-anchor="middle" x="201.4648" y="-6.5" font-family="Helvetica,sans-Serif" font-size="10.00" fill="#000000">lcd_print</text>
</a>
</g>
</g>
<!-- Node24&#45;&gt;Node27 -->
<g id="edge4" class="edge">
<title>Node24&#45;&gt;Node27</title>
<path fill="none" stroke="#191970" d="M87.6533,-37.4488C111.0273,-31.7088 141.1566,-24.3099 164.5429,-18.5669"/>
<polygon fill="#191970" stroke="#191970" points="165.5618,-21.9208 174.4385,-16.1369 163.8923,-15.1228 165.5618,-21.9208"/>
</g>
<!-- Node26&#45;&gt;Node25 -->
<g id="edge3" class="edge">
<title>Node26&#45;&gt;Node25</title>
<path fill="none" stroke="#191970" d="M265.6476,-46.5C274.2635,-46.5 282.906,-46.5 290.9755,-46.5"/>
<polygon fill="#191970" stroke="#191970" points="291.2033,-50.0001 301.2032,-46.5 291.2032,-43.0001 291.2033,-50.0001"/>
</g>
<!-- Node27&#45;&gt;Node25 -->
<g id="edge5" class="edge">
<title>Node27&#45;&gt;Node25</title>
<path fill="none" stroke="#191970" d="M228.5381,-17.1664C246.6532,-22.2961 270.8275,-29.1416 291.2665,-34.9294"/>
<polygon fill="#191970" stroke="#191970" points="290.3819,-38.3165 300.9572,-37.6736 292.2892,-31.5813 290.3819,-38.3165"/>
</g>
</g>
</svg>
