<?xml version="1.0" encoding="UTF-8" standalone="no"?>
<!DOCTYPE svg PUBLIC "-//W3C//DTD SVG 1.1//EN"
 "http://www.w3.org/Graphics/SVG/1.1/DTD/svg11.dtd">
<!-- Generated by graphviz version 2.40.1 (20161225.0304)
 -->
<!-- Title: lcd_print Pages: 1 -->
<svg width="160pt" height="64pt"
 viewBox="0.00 0.00 159.93 64.00" xmlns="http://www.w3.org/2000/svg" xmlns:xlink="http://www.w3.org/1999/xlink">
<g id="graph0" class="graph" transform="scale(1 1) rotate(0) translate(4 60)">
<title>lcd_print</title>
<polygon fill="#ffffff" stroke="transparent" points="-4,4 -4,-60 155.9307,-60 155.9307,4 -4,4"/>
<!-- Node20 -->
<g id="node1" class="node">
<title>Node20</title>
<polygon fill="#bfbfbf" stroke="#000000" points="0,-18.5 0,-36.5 53.7979,-36.5 53.7979,-18.5 0,-18.5"/>
<text text-anchor="middle" x="26.8989" y="-24.5" font-family="Helvetica,sans-Serif" font-size="10.00" fill="#000000">lcd_print</text>
</g>
<!-- Node21 -->
<g id="node2" class="node">
<title>Node21</title>
<g id="a_node2"><a xlink:href="lcd_8h.html#a07f04b524b5ded617d5f193db05ba0ad" target="_top" xlink:title="Asserts the lcd is initialized Works by chekcing is the File *lcd_port is the default NULL value and ...">
<polygon fill="#ffffff" stroke="#000000" points="90.0762,-37.5 90.0762,-55.5 151.6523,-55.5 151.6523,-37.5 90.0762,-37.5"/>
<text text-anchor="middle" x="120.8643" y="-43.5" font-family="Helvetica,sans-Serif" font-size="10.00" fill="#000000">lcd_assert</text>
</a>
</g>
</g>
<!-- Node20&#45;&gt;Node21 -->
<g id="edge1" class="edge">
<title>Node20&#45;&gt;Node21</title>
<path fill="none" stroke="#191970" d="M53.8256,-32.9446C62.0214,-34.6018 71.2195,-36.4617 80.1143,-38.2603"/>
<polygon fill="#191970" stroke="#191970" points="79.4629,-41.6993 89.9582,-40.2507 80.8503,-34.8382 79.4629,-41.6993"/>
</g>
<!-- Node22 -->
<g id="node3" class="node">
<title>Node22</title>
<g id="a_node3"><a xlink:href="_a_p_i_8h.html#aae51423c0e108729bbb4d26a1b265eb3" target="_top" xlink:title="lcdSetText">
<polygon fill="#ffffff" stroke="#000000" points="89.7979,-.5 89.7979,-18.5 151.9307,-18.5 151.9307,-.5 89.7979,-.5"/>
<text text-anchor="middle" x="120.8643" y="-6.5" font-family="Helvetica,sans-Serif" font-size="10.00" fill="#000000">lcdSetText</text>
</a>
</g>
</g>
<!-- Node20&#45;&gt;Node22 -->
<g id="edge2" class="edge">
<title>Node20&#45;&gt;Node22</title>
<path fill="none" stroke="#191970" d="M53.8256,-22.3419C61.8553,-20.8038 70.8471,-19.0813 79.5732,-17.4097"/>
<polygon fill="#191970" stroke="#191970" points="80.4582,-20.8039 89.6211,-15.4849 79.1411,-13.9289 80.4582,-20.8039"/>
</g>
</g>
</svg>
