<?xml version="1.0" encoding="UTF-8" standalone="no"?>
<!DOCTYPE svg PUBLIC "-//W3C//DTD SVG 1.1//EN"
 "http://www.w3.org/Graphics/SVG/1.1/DTD/svg11.dtd">
<!-- Generated by graphviz version 2.40.1 (20161225.0304)
 -->
<!-- Title: lcd_assert Pages: 1 -->
<svg width="371pt" height="214pt"
 viewBox="0.00 0.00 370.92 214.00" xmlns="http://www.w3.org/2000/svg" xmlns:xlink="http://www.w3.org/1999/xlink">
<g id="graph0" class="graph" transform="scale(1 1) rotate(0) translate(4 210)">
<title>lcd_assert</title>
<polygon fill="#ffffff" stroke="transparent" points="-4,4 -4,-210 366.915,-210 366.915,4 -4,4"/>
<!-- Node4 -->
<g id="node1" class="node">
<title>Node4</title>
<polygon fill="#bfbfbf" stroke="#000000" points="0,-93.5 0,-111.5 61.5762,-111.5 61.5762,-93.5 0,-93.5"/>
<text text-anchor="middle" x="30.7881" y="-99.5" font-family="Helvetica,sans-Serif" font-size="10.00" fill="#000000">lcd_assert</text>
</g>
<!-- Node5 -->
<g id="node2" class="node">
<title>Node5</title>
<g id="a_node2"><a xlink:href="lcd_8h.html#a35c08b1fa742e650f4873939707b893b" target="_top" xlink:title="Clears the lcd. ">
<polygon fill="#ffffff" stroke="#000000" points="133.4404,-187.5 133.4404,-205.5 189.46,-205.5 189.46,-187.5 133.4404,-187.5"/>
<text text-anchor="middle" x="161.4502" y="-193.5" font-family="Helvetica,sans-Serif" font-size="10.00" fill="#000000">lcd_clear</text>
</a>
</g>
</g>
<!-- Node4&#45;&gt;Node5 -->
<g id="edge1" class="edge">
<title>Node4&#45;&gt;Node5</title>
<path fill="none" stroke="#191970" d="M41.8201,-120.1246C53.5749,-137.4744 73.7517,-163.4884 97.5762,-178.5 108.2985,-185.256 121.5994,-189.5295 133.2834,-192.2064"/>
<polygon fill="#191970" stroke="#191970" points="44.5862,-117.9593 36.1864,-111.5022 38.7261,-121.7881 44.5862,-117.9593"/>
</g>
<!-- Node6 -->
<g id="node3" class="node">
<title>Node6</title>
<g id="a_node3"><a xlink:href="lcd_8h.html#ac7b3225ccc82fcbe067ba9da934f010d" target="_top" xlink:title="Returns the pressed buttons. ">
<polygon fill="#ffffff" stroke="#000000" points="97.5762,-150.5 97.5762,-168.5 225.3242,-168.5 225.3242,-150.5 97.5762,-150.5"/>
<text text-anchor="middle" x="161.4502" y="-156.5" font-family="Helvetica,sans-Serif" font-size="10.00" fill="#000000">lcd_get_pressed_buttons</text>
</a>
</g>
</g>
<!-- Node4&#45;&gt;Node6 -->
<g id="edge2" class="edge">
<title>Node4&#45;&gt;Node6</title>
<path fill="none" stroke="#191970" d="M57.0207,-116.2147C69.2185,-122.3964 84.0001,-129.6129 97.5762,-135.5 109.9661,-140.8728 123.9876,-146.2197 135.7307,-150.4984"/>
<polygon fill="#191970" stroke="#191970" points="58.3605,-112.9686 47.8646,-111.5242 55.1689,-119.1987 58.3605,-112.9686"/>
</g>
<!-- Node7 -->
<g id="node4" class="node">
<title>Node7</title>
<g id="a_node4"><a xlink:href="lcd_8h.html#a99f4683e1990edf624ab216bf327cba4" target="_top" xlink:title="Prompts the user to confirm a string. User must press middle button to confirm. Function is not threa...">
<polygon fill="#ffffff" stroke="#000000" points="261.3242,-112.5 261.3242,-130.5 362.915,-130.5 362.915,-112.5 261.3242,-112.5"/>
<text text-anchor="middle" x="312.1196" y="-118.5" font-family="Helvetica,sans-Serif" font-size="10.00" fill="#000000">promt_confirmation</text>
</a>
</g>
</g>
<!-- Node4&#45;&gt;Node7 -->
<g id="edge8" class="edge">
<title>Node4&#45;&gt;Node7</title>
<path fill="none" stroke="#191970" d="M71.8573,-105.2736C122.0357,-108.6625 206.9335,-114.3961 261.2114,-118.0619"/>
<polygon fill="#191970" stroke="#191970" points="71.9134,-101.7696 61.7002,-104.5877 71.4416,-108.7536 71.9134,-101.7696"/>
</g>
<!-- Node8 -->
<g id="node5" class="node">
<title>Node8</title>
<g id="a_node5"><a xlink:href="lcd_8h.html#adabd3f7cdda45119604b488caf22bba8" target="_top" xlink:title="prints a string to a line on the lcd ">
<polygon fill="#ffffff" stroke="#000000" points="134.5513,-74.5 134.5513,-92.5 188.3491,-92.5 188.3491,-74.5 134.5513,-74.5"/>
<text text-anchor="middle" x="161.4502" y="-80.5" font-family="Helvetica,sans-Serif" font-size="10.00" fill="#000000">lcd_print</text>
</a>
</g>
</g>
<!-- Node4&#45;&gt;Node8 -->
<g id="edge4" class="edge">
<title>Node4&#45;&gt;Node8</title>
<path fill="none" stroke="#191970" d="M71.7181,-96.5482C92.0958,-93.585 116.1722,-90.084 134.2529,-87.4548"/>
<polygon fill="#191970" stroke="#191970" points="71.1454,-93.0946 61.7532,-97.9973 72.1528,-100.0218 71.1454,-93.0946"/>
</g>
<!-- Node9 -->
<g id="node6" class="node">
<title>Node9</title>
<g id="a_node6"><a xlink:href="lcd_8h.html#aa0d4ca88701dfecf98796e2028482b69" target="_top" xlink:title="prints a formated string to a line on the lcd. Smilar to printf ">
<polygon fill="#ffffff" stroke="#000000" points="133.1621,-37.5 133.1621,-55.5 189.7383,-55.5 189.7383,-37.5 133.1621,-37.5"/>
<text text-anchor="middle" x="161.4502" y="-43.5" font-family="Helvetica,sans-Serif" font-size="10.00" fill="#000000">lcd_printf</text>
</a>
</g>
</g>
<!-- Node4&#45;&gt;Node9 -->
<g id="edge6" class="edge">
<title>Node4&#45;&gt;Node9</title>
<path fill="none" stroke="#191970" d="M53.807,-88.1209C66.4036,-80.6736 82.4801,-71.8383 97.5762,-65.5 108.8835,-60.7524 121.7781,-56.6789 133.0067,-53.5352"/>
<polygon fill="#191970" stroke="#191970" points="51.6793,-85.3169 44.9265,-93.4809 55.2966,-91.3099 51.6793,-85.3169"/>
</g>
<!-- Node10 -->
<g id="node7" class="node">
<title>Node10</title>
<g id="a_node7"><a xlink:href="lcd_8h.html#a245902a4d48a6d9bd1ab308bf9b7e6b5" target="_top" xlink:title="sets the backlight of the lcd ">
<polygon fill="#ffffff" stroke="#000000" points="115.0933,-.5 115.0933,-18.5 207.8071,-18.5 207.8071,-.5 115.0933,-.5"/>
<text text-anchor="middle" x="161.4502" y="-6.5" font-family="Helvetica,sans-Serif" font-size="10.00" fill="#000000">lcd_set_backlight</text>
</a>
</g>
</g>
<!-- Node4&#45;&gt;Node10 -->
<g id="edge7" class="edge">
<title>Node4&#45;&gt;Node10</title>
<path fill="none" stroke="#191970" d="M42.3489,-84.8834C54.2715,-68.0551 74.3593,-43.1482 97.5762,-28.5 104.1319,-24.3638 111.6313,-21.0912 119.1313,-18.5135"/>
<polygon fill="#191970" stroke="#191970" points="39.3583,-83.0562 36.5973,-93.285 45.1344,-87.0105 39.3583,-83.0562"/>
</g>
<!-- Node6&#45;&gt;Node7 -->
<g id="edge3" class="edge">
<title>Node6&#45;&gt;Node7</title>
<path fill="none" stroke="#191970" d="M207.0514,-147.999C229.2938,-142.3893 255.6552,-135.7408 276.4086,-130.5066"/>
<polygon fill="#191970" stroke="#191970" points="205.9972,-144.6552 197.1567,-150.4945 207.7091,-151.4427 205.9972,-144.6552"/>
</g>
<!-- Node8&#45;&gt;Node7 -->
<g id="edge5" class="edge">
<title>Node8&#45;&gt;Node7</title>
<path fill="none" stroke="#191970" d="M198.1075,-92.7453C221.8948,-98.7446 252.7417,-106.5244 276.3504,-112.4787"/>
<polygon fill="#191970" stroke="#191970" points="198.9392,-89.3455 188.3869,-90.2936 197.2273,-96.1329 198.9392,-89.3455"/>
</g>
</g>
</svg>
