<?xml version="1.0" encoding="UTF-8" standalone="no"?>
<!DOCTYPE svg PUBLIC "-//W3C//DTD SVG 1.1//EN"
 "http://www.w3.org/Graphics/SVG/1.1/DTD/svg11.dtd">
<!-- Generated by graphviz version 2.40.1 (20161225.0304)
 -->
<!-- Title: lower_lifter Pages: 1 -->
<svg width="745pt" height="306pt"
 viewBox="0.00 0.00 744.52 305.51" xmlns="http://www.w3.org/2000/svg" xmlns:xlink="http://www.w3.org/1999/xlink">
<g id="graph0" class="graph" transform="scale(1 1) rotate(0) translate(4 301.5134)">
<title>lower_lifter</title>
<!-- Node0 -->
<g id="node1" class="node">
<title>Node0</title>
<polygon fill="#bfbfbf" stroke="#000000" points="0,-93.5 0,-111.5 64.3496,-111.5 64.3496,-93.5 0,-93.5"/>
<text text-anchor="middle" x="32.1748" y="-99.5" font-family="Helvetica,sans-Serif" font-size="10.00" fill="#000000">lower_lifter</text>
</g>
<!-- Node1 -->
<g id="node2" class="node">
<title>Node1</title>
<g id="a_node2"><a xlink:href="lifter_8c.html#aa62603df4d54dff2d7fd472d699e9b2e" target="_top" xlink:title="set_lifter_motors">
<polygon fill="none" stroke="#000000" points="100.3496,-93.5 100.3496,-111.5 190.2656,-111.5 190.2656,-93.5 100.3496,-93.5"/>
<text text-anchor="middle" x="145.3076" y="-99.5" font-family="Helvetica,sans-Serif" font-size="10.00" fill="#000000">set_lifter_motors</text>
</a>
</g>
</g>
<!-- Node0&#45;&gt;Node1 -->
<g id="edge1" class="edge">
<title>Node0&#45;&gt;Node1</title>
<path fill="none" stroke="#191970" d="M64.5941,-102.5C72.5722,-102.5 81.3393,-102.5 90.0643,-102.5"/>
<polygon fill="#191970" stroke="#191970" points="90.2377,-106.0001 100.2377,-102.5 90.2377,-99.0001 90.2377,-106.0001"/>
</g>
<!-- Node2 -->
<g id="node3" class="node">
<title>Node2</title>
<g id="a_node3"><a xlink:href="slew_8h.html#a7dff2b79dffe55fb936d977594d7c01d" target="_top" xlink:title="Sets motor speed wrapped inside the slew rate controller. ">
<polygon fill="none" stroke="#000000" points="226.2656,-93.5 226.2656,-111.5 312.2949,-111.5 312.2949,-93.5 226.2656,-93.5"/>
<text text-anchor="middle" x="269.2803" y="-99.5" font-family="Helvetica,sans-Serif" font-size="10.00" fill="#000000">set_motor_slew</text>
</a>
</g>
</g>
<!-- Node1&#45;&gt;Node2 -->
<g id="edge2" class="edge">
<title>Node1&#45;&gt;Node2</title>
<path fill="none" stroke="#191970" d="M190.4153,-102.5C198.6842,-102.5 207.3869,-102.5 215.871,-102.5"/>
<polygon fill="#191970" stroke="#191970" points="216.0675,-106.0001 226.0675,-102.5 216.0675,-99.0001 216.0675,-106.0001"/>
</g>
<!-- Node3 -->
<g id="node4" class="node">
<title>Node3</title>
<g id="a_node4"><a xlink:href="log_8h.html#af3668f40d1ad1b4f3418869ac9a31f34" target="_top" xlink:title="prints a info message ">
<polygon fill="none" stroke="#000000" points="353.5659,-243.5 353.5659,-261.5 397.3735,-261.5 397.3735,-243.5 353.5659,-243.5"/>
<text text-anchor="middle" x="375.4697" y="-249.5" font-family="Helvetica,sans-Serif" font-size="10.00" fill="#000000">debug</text>
</a>
</g>
</g>
<!-- Node2&#45;&gt;Node3 -->
<g id="edge3" class="edge">
<title>Node2&#45;&gt;Node3</title>
<path fill="none" stroke="#191970" d="M275.9229,-111.8832C293.2797,-136.4009 340.2093,-202.6922 362.8777,-234.7128"/>
<polygon fill="#191970" stroke="#191970" points="360.195,-236.9809 368.8296,-243.1204 365.9082,-232.9363 360.195,-236.9809"/>
</g>
<!-- Node5 -->
<g id="node6" class="node">
<title>Node5</title>
<g id="a_node6"><a xlink:href="slew_8c.html#a321758941d88b75783955c819bb75005" target="_top" xlink:title="Initializes the slew rate controller. ">
<polygon fill="none" stroke="#000000" points="348.2949,-150.5 348.2949,-168.5 402.6445,-168.5 402.6445,-150.5 348.2949,-150.5"/>
<text text-anchor="middle" x="375.4697" y="-156.5" font-family="Helvetica,sans-Serif" font-size="10.00" fill="#000000">init_slew</text>
</a>
</g>
</g>
<!-- Node2&#45;&gt;Node5 -->
<g id="edge5" class="edge">
<title>Node2&#45;&gt;Node5</title>
<path fill="none" stroke="#191970" d="M286.3414,-111.658C303.3709,-120.7991 329.7643,-134.9664 349.4159,-145.5149"/>
<polygon fill="#191970" stroke="#191970" points="347.9846,-148.719 358.4509,-150.3647 351.2953,-142.5513 347.9846,-148.719"/>
</g>
<!-- Node15 -->
<g id="node16" class="node">
<title>Node15</title>
<g id="a_node16"><a xlink:href="_a_p_i_8h.html#a8b51124628d2a7741738d48551d1e8ee" target="_top" xlink:title="mutexTake">
<polygon fill="none" stroke="#000000" points="551.792,-37.5 551.792,-55.5 616.1465,-55.5 616.1465,-37.5 551.792,-37.5"/>
<text text-anchor="middle" x="583.9692" y="-43.5" font-family="Helvetica,sans-Serif" font-size="10.00" fill="#000000">mutexTake</text>
</a>
</g>
</g>
<!-- Node2&#45;&gt;Node15 -->
<g id="edge22" class="edge">
<title>Node2&#45;&gt;Node15</title>
<path fill="none" stroke="#191970" d="M307.8027,-93.4767C342.0299,-85.6596 393.4875,-74.3958 438.6445,-66.5 473.0532,-60.4835 512.3067,-55.173 541.3367,-51.539"/>
<polygon fill="#191970" stroke="#191970" points="542.0464,-54.978 551.5416,-50.2778 541.1877,-48.0308 542.0464,-54.978"/>
</g>
<!-- Node16 -->
<g id="node17" class="node">
<title>Node16</title>
<g id="a_node17"><a xlink:href="_a_p_i_8h.html#afe171a08d22de18fc2ab604b2364959f" target="_top" xlink:title="mutexGive">
<polygon fill="none" stroke="#000000" points="552.0728,-.5 552.0728,-18.5 615.8657,-18.5 615.8657,-.5 552.0728,-.5"/>
<text text-anchor="middle" x="583.9692" y="-6.5" font-family="Helvetica,sans-Serif" font-size="10.00" fill="#000000">mutexGive</text>
</a>
</g>
</g>
<!-- Node2&#45;&gt;Node16 -->
<g id="edge21" class="edge">
<title>Node2&#45;&gt;Node16</title>
<path fill="none" stroke="#191970" d="M288.104,-93.3789C303.9057,-85.9719 327.2141,-75.6225 348.2949,-68.5 414.7462,-46.0481 494.314,-27.8689 541.9162,-17.8855"/>
<polygon fill="#191970" stroke="#191970" points="542.7803,-21.2808 551.8605,-15.8218 541.3579,-14.4269 542.7803,-21.2808"/>
</g>
<!-- Node4 -->
<g id="node5" class="node">
<title>Node4</title>
<g id="a_node5"><a xlink:href="_a_p_i_8h.html#a403c82418e475fa4a8273719e6a7f3e6" target="_top" xlink:title="printf">
<polygon fill="none" stroke="#000000" points="675.2153,-169.5 675.2153,-187.5 713.4468,-187.5 713.4468,-169.5 675.2153,-169.5"/>
<text text-anchor="middle" x="694.3311" y="-175.5" font-family="Helvetica,sans-Serif" font-size="10.00" fill="#000000">printf</text>
</a>
</g>
</g>
<!-- Node3&#45;&gt;Node4 -->
<g id="edge4" class="edge">
<title>Node3&#45;&gt;Node4</title>
<path fill="none" stroke="#191970" d="M386.2461,-261.5205C398.1803,-270.8695 418.4187,-284.8857 438.6445,-290.5 471.6831,-299.6708 482.8408,-299.9799 515.792,-290.5 581.6835,-271.5433 646.7707,-220.3314 676.9283,-194.2401"/>
<polygon fill="#191970" stroke="#191970" points="679.2847,-196.8287 684.4796,-187.5949 674.6603,-191.5737 679.2847,-196.8287"/>
</g>
<!-- Node6 -->
<g id="node7" class="node">
<title>Node6</title>
<g id="a_node7"><a xlink:href="log_8h.html#a0bec2cf5fff7f607bc510b74aba9887c" target="_top" xlink:title="prints a warning message and displays on lcd. Only will print and display if log_level is greater tha...">
<polygon fill="none" stroke="#000000" points="451.7085,-112.5 451.7085,-130.5 502.728,-130.5 502.728,-112.5 451.7085,-112.5"/>
<text text-anchor="middle" x="477.2183" y="-118.5" font-family="Helvetica,sans-Serif" font-size="10.00" fill="#000000">warning</text>
</a>
</g>
</g>
<!-- Node5&#45;&gt;Node6 -->
<g id="edge6" class="edge">
<title>Node5&#45;&gt;Node6</title>
<path fill="none" stroke="#191970" d="M399.5827,-150.4945C412.6656,-145.6085 429.0493,-139.4897 443.3898,-134.1339"/>
<polygon fill="#191970" stroke="#191970" points="444.7823,-137.35 452.9258,-130.5725 442.3332,-130.7924 444.7823,-137.35"/>
</g>
<!-- Node10 -->
<g id="node11" class="node">
<title>Node10</title>
<g id="a_node11"><a xlink:href="_a_p_i_8h.html#a8966c541f3e9565aea1289f0d2f2cf43" target="_top" xlink:title="motorStopAll">
<polygon fill="none" stroke="#000000" points="440.5952,-262.5 440.5952,-280.5 513.8413,-280.5 513.8413,-262.5 440.5952,-262.5"/>
<text text-anchor="middle" x="477.2183" y="-268.5" font-family="Helvetica,sans-Serif" font-size="10.00" fill="#000000">motorStopAll</text>
</a>
</g>
</g>
<!-- Node5&#45;&gt;Node10 -->
<g id="edge11" class="edge">
<title>Node5&#45;&gt;Node10</title>
<path fill="none" stroke="#191970" d="M379.5591,-168.7216C388.1067,-187.0792 409.5133,-228.5704 438.6445,-253.5 440.1605,-254.7973 441.7858,-256.0212 443.4805,-257.1728"/>
<polygon fill="#191970" stroke="#191970" points="441.9437,-260.3279 452.3472,-262.3322 445.4643,-254.2777 441.9437,-260.3279"/>
</g>
<!-- Node11 -->
<g id="node12" class="node">
<title>Node11</title>
<g id="a_node12"><a xlink:href="log_8h.html#a1606d750e1bb8de9f9e917172bba3382" target="_top" xlink:title="prints a info message ">
<polygon fill="none" stroke="#000000" points="567.9077,-188.5 567.9077,-206.5 600.0308,-206.5 600.0308,-188.5 567.9077,-188.5"/>
<text text-anchor="middle" x="583.9692" y="-194.5" font-family="Helvetica,sans-Serif" font-size="10.00" fill="#000000">info</text>
</a>
</g>
</g>
<!-- Node5&#45;&gt;Node11 -->
<g id="edge12" class="edge">
<title>Node5&#45;&gt;Node11</title>
<path fill="none" stroke="#191970" d="M402.7933,-162.4386C431.1897,-165.7156 476.8416,-171.6104 515.792,-179.5 529.8524,-182.348 545.3265,-186.3605 557.9737,-189.8745"/>
<polygon fill="#191970" stroke="#191970" points="557.2638,-193.3111 567.8394,-192.6725 559.1738,-186.5767 557.2638,-193.3111"/>
</g>
<!-- Node12 -->
<g id="node13" class="node">
<title>Node12</title>
<g id="a_node13"><a xlink:href="_a_p_i_8h.html#aecd027ce8f8b52a765735e9eb5b202b3" target="_top" xlink:title="mutexCreate">
<polygon fill="none" stroke="#000000" points="440.5952,-225.5 440.5952,-243.5 513.8413,-243.5 513.8413,-225.5 440.5952,-225.5"/>
<text text-anchor="middle" x="477.2183" y="-231.5" font-family="Helvetica,sans-Serif" font-size="10.00" fill="#000000">mutexCreate</text>
</a>
</g>
</g>
<!-- Node5&#45;&gt;Node12 -->
<g id="edge14" class="edge">
<title>Node5&#45;&gt;Node12</title>
<path fill="none" stroke="#191970" d="M383.7731,-168.512C395.2401,-180.5811 416.9734,-202.136 438.6445,-216.5 440.9333,-218.017 443.3703,-219.4729 445.8642,-220.8534"/>
<polygon fill="#191970" stroke="#191970" points="444.4832,-224.0778 454.9826,-225.4973 447.6601,-217.8401 444.4832,-224.0778"/>
</g>
<!-- Node13 -->
<g id="node14" class="node">
<title>Node13</title>
<g id="a_node14"><a xlink:href="_a_p_i_8h.html#ab05a241d6d1fd98b1ceb4665db678156" target="_top" xlink:title="taskRunLoop">
<polygon fill="none" stroke="#000000" points="439.7529,-188.5 439.7529,-206.5 514.6836,-206.5 514.6836,-188.5 439.7529,-188.5"/>
<text text-anchor="middle" x="477.2183" y="-194.5" font-family="Helvetica,sans-Serif" font-size="10.00" fill="#000000">taskRunLoop</text>
</a>
</g>
</g>
<!-- Node5&#45;&gt;Node13 -->
<g id="edge15" class="edge">
<title>Node5&#45;&gt;Node13</title>
<path fill="none" stroke="#191970" d="M399.5827,-168.5055C412.6656,-173.3915 429.0493,-179.5103 443.3898,-184.8661"/>
<polygon fill="#191970" stroke="#191970" points="442.3332,-188.2076 452.9258,-188.4275 444.7823,-181.65 442.3332,-188.2076"/>
</g>
<!-- Node14 -->
<g id="node15" class="node">
<title>Node14</title>
<g id="a_node15"><a xlink:href="slew_8c.html#a807a87c5df438fde21c1e8213906695b" target="_top" xlink:title="Closes the distance between the desired motor value and the current motor value by half for each moto...">
<polygon fill="none" stroke="#000000" points="438.6445,-75.5 438.6445,-93.5 515.792,-93.5 515.792,-75.5 438.6445,-75.5"/>
<text text-anchor="middle" x="477.2183" y="-81.5" font-family="Helvetica,sans-Serif" font-size="10.00" fill="#000000">updateMotors</text>
</a>
</g>
</g>
<!-- Node5&#45;&gt;Node14 -->
<g id="edge16" class="edge">
<title>Node5&#45;&gt;Node14</title>
<path fill="none" stroke="#191970" d="M384.2464,-150.3208C395.8973,-138.4802 417.4744,-117.7198 438.6445,-103.5 441.3712,-101.6685 444.3001,-99.9053 447.2811,-98.2411"/>
<polygon fill="#191970" stroke="#191970" points="448.9811,-101.3019 456.2306,-93.5757 445.7452,-95.0947 448.9811,-101.3019"/>
</g>
<!-- Node7 -->
<g id="node8" class="node">
<title>Node7</title>
<g id="a_node8"><a xlink:href="log_8c.html#afff22aff6749311a684a559cac3ac8bd" target="_top" xlink:title="log_info">
<polygon fill="none" stroke="#000000" points="558.4546,-112.5 558.4546,-130.5 609.4839,-130.5 609.4839,-112.5 558.4546,-112.5"/>
<text text-anchor="middle" x="583.9692" y="-118.5" font-family="Helvetica,sans-Serif" font-size="10.00" fill="#000000">log_info</text>
</a>
</g>
</g>
<!-- Node6&#45;&gt;Node7 -->
<g id="edge7" class="edge">
<title>Node6&#45;&gt;Node7</title>
<path fill="none" stroke="#191970" d="M502.7878,-121.5C516.2885,-121.5 533.0821,-121.5 547.886,-121.5"/>
<polygon fill="#191970" stroke="#191970" points="548.2384,-125.0001 558.2384,-121.5 548.2383,-118.0001 548.2384,-125.0001"/>
</g>
<!-- Node7&#45;&gt;Node4 -->
<g id="edge8" class="edge">
<title>Node7&#45;&gt;Node4</title>
<path fill="none" stroke="#191970" d="M601.7008,-130.658C619.4798,-139.8406 647.0794,-154.0953 667.5316,-164.6585"/>
<polygon fill="#191970" stroke="#191970" points="666.1524,-167.8855 676.6435,-169.3647 669.3647,-161.666 666.1524,-167.8855"/>
</g>
<!-- Node8 -->
<g id="node9" class="node">
<title>Node8</title>
<g id="a_node9"><a xlink:href="_a_p_i_8h.html#aab53a247d88151a6623c20fa1ea940b0" target="_top" xlink:title="lcdSetBacklight">
<polygon fill="none" stroke="#000000" points="652.1465,-75.5 652.1465,-93.5 736.5156,-93.5 736.5156,-75.5 652.1465,-75.5"/>
<text text-anchor="middle" x="694.3311" y="-81.5" font-family="Helvetica,sans-Serif" font-size="10.00" fill="#000000">lcdSetBacklight</text>
</a>
</g>
</g>
<!-- Node7&#45;&gt;Node8 -->
<g id="edge9" class="edge">
<title>Node7&#45;&gt;Node8</title>
<path fill="none" stroke="#191970" d="M609.5659,-112.9185C623.9088,-108.1098 642.0378,-102.0319 657.8456,-96.7322"/>
<polygon fill="#191970" stroke="#191970" points="658.9648,-100.0485 667.3335,-93.5512 656.7396,-93.4115 658.9648,-100.0485"/>
</g>
<!-- Node9 -->
<g id="node10" class="node">
<title>Node9</title>
<g id="a_node10"><a xlink:href="_a_p_i_8h.html#a5fa1d119fe3e836b5519f97eae7a1272" target="_top" xlink:title="lcdClear">
<polygon fill="none" stroke="#000000" points="667.9912,-112.5 667.9912,-130.5 720.6709,-130.5 720.6709,-112.5 667.9912,-112.5"/>
<text text-anchor="middle" x="694.3311" y="-118.5" font-family="Helvetica,sans-Serif" font-size="10.00" fill="#000000">lcdClear</text>
</a>
</g>
</g>
<!-- Node7&#45;&gt;Node9 -->
<g id="edge10" class="edge">
<title>Node7&#45;&gt;Node9</title>
<path fill="none" stroke="#191970" d="M609.5659,-121.5C623.7417,-121.5 641.6158,-121.5 657.292,-121.5"/>
<polygon fill="#191970" stroke="#191970" points="657.7211,-125.0001 667.7211,-121.5 657.721,-118.0001 657.7211,-125.0001"/>
</g>
<!-- Node11&#45;&gt;Node4 -->
<g id="edge13" class="edge">
<title>Node11&#45;&gt;Node4</title>
<path fill="none" stroke="#191970" d="M600.2535,-194.6965C617.2828,-191.7647 644.368,-187.1017 665.1126,-183.5303"/>
<polygon fill="#191970" stroke="#191970" points="665.7437,-186.9732 675.0049,-181.8272 664.556,-180.0747 665.7437,-186.9732"/>
</g>
<!-- Node14&#45;&gt;Node4 -->
<g id="edge19" class="edge">
<title>Node14&#45;&gt;Node4</title>
<path fill="none" stroke="#191970" d="M498.7863,-93.5153C504.541,-96.3435 510.5983,-99.726 515.792,-103.5 534.353,-116.9873 531.9937,-128.9048 551.792,-140.5 587.417,-161.3644 634.6957,-171.02 664.8254,-175.31"/>
<polygon fill="#191970" stroke="#191970" points="664.726,-178.8269 675.0966,-176.6586 665.6373,-171.8865 664.726,-178.8269"/>
</g>
<!-- Node14&#45;&gt;Node15 -->
<g id="edge17" class="edge">
<title>Node14&#45;&gt;Node15</title>
<path fill="none" stroke="#191970" d="M502.5168,-75.4945C516.3748,-70.5615 533.7629,-64.3719 548.911,-58.9796"/>
<polygon fill="#191970" stroke="#191970" points="550.2352,-62.2235 558.4824,-55.5725 547.8877,-55.6288 550.2352,-62.2235"/>
</g>
<!-- Node14&#45;&gt;Node16 -->
<g id="edge18" class="edge">
<title>Node14&#45;&gt;Node16</title>
<path fill="none" stroke="#191970" d="M487.9766,-75.4944C502.16,-63.8073 528.0952,-43.0703 551.792,-27.5 553.7045,-26.2434 555.7103,-24.9867 557.7461,-23.7545"/>
<polygon fill="#191970" stroke="#191970" points="559.7694,-26.6273 566.6667,-18.585 556.2596,-20.5707 559.7694,-26.6273"/>
</g>
<!-- Node17 -->
<g id="node18" class="node">
<title>Node17</title>
<g id="a_node18"><a xlink:href="_a_p_i_8h.html#a03c5b04b472d024281f62d7af8854a8e" target="_top" xlink:title="motorSet">
<polygon fill="none" stroke="#000000" points="555.6836,-75.5 555.6836,-93.5 612.2549,-93.5 612.2549,-75.5 555.6836,-75.5"/>
<text text-anchor="middle" x="583.9692" y="-81.5" font-family="Helvetica,sans-Serif" font-size="10.00" fill="#000000">motorSet</text>
</a>
</g>
</g>
<!-- Node14&#45;&gt;Node17 -->
<g id="edge20" class="edge">
<title>Node14&#45;&gt;Node17</title>
<path fill="none" stroke="#191970" d="M516.0598,-84.5C525.6037,-84.5 535.8188,-84.5 545.3521,-84.5"/>
<polygon fill="#191970" stroke="#191970" points="545.3653,-88.0001 555.3652,-84.5 545.3652,-81.0001 545.3653,-88.0001"/>
</g>
</g>
</svg>
