<?xml version="1.0" encoding="UTF-8" standalone="no"?>
<!DOCTYPE svg PUBLIC "-//W3C//DTD SVG 1.1//EN"
 "http://www.w3.org/Graphics/SVG/1.1/DTD/svg11.dtd">
<!-- Generated by graphviz version 2.40.1 (20161225.0304)
 -->
<!-- Title: main_lifter_update Pages: 1 -->
<!--zoomable 242 -->
<svg id="main" version="1.1" xmlns="http://www.w3.org/2000/svg" xmlns:xlink="http://www.w3.org/1999/xlink" xml:space="preserve" onload="init(evt)">
<style type="text/css"><![CDATA[
.edge:hover path { stroke: red; }
.edge:hover polygon { stroke: red; fill: red; }
]]></style>
<script type="text/javascript"><![CDATA[
var edges = document.getElementsByTagName('g');
if (edges && edges.length) {
  for (var i=0;i<edges.length;i++) {
    if (edges[i].id.substr(0,4)=='edge') {
      edges[i].setAttribute('class','edge');
    }
  }
}
]]></script>
        <defs>
                <circle id="rim" cx="0" cy="0" r="7"/>
                <circle id="rim2" cx="0" cy="0" r="3.5"/>
                <g id="zoomPlus">
                        <use xlink:href="#rim" fill="#404040">
                                <set attributeName="fill" to="#808080" begin="zoomplus.mouseover" end="zoomplus.mouseout"/>
                        </use>
                        <path d="M-4,0h8M0,-4v8" fill="none" stroke="white" stroke-width="1.5" pointer-events="none"/>
                </g>
                <g id="zoomMin">
                        <use xlink:href="#rim" fill="#404040">
                                <set attributeName="fill" to="#808080" begin="zoomminus.mouseover" end="zoomminus.mouseout"/>
                        </use>
                        <path d="M-4,0h8" fill="none" stroke="white" stroke-width="1.5" pointer-events="none"/>
                </g>
                <g id="dirArrow">
                        <path fill="none" stroke="white" stroke-width="1.5" d="M0,-3.0v7 M-2.5,-0.5L0,-3.0L2.5,-0.5"/>
                </g>
               <g id="resetDef">
                       <use xlink:href="#rim2" fill="#404040">
                               <set attributeName="fill" to="#808080" begin="reset.mouseover" end="reset.mouseout"/>
                       </use>
               </g>
        </defs>

<script type="text/javascript">
var viewWidth = 800;
var viewHeight = 242;
var sectionId = 'dynsection-9';
</script>
<script xlink:href="svgpan.js"/>
<svg id="graph" class="graph">
<g id="viewport">
<title>main_lifter_update</title>
<!-- Node86 -->
<g id="node1" class="node">
<title>Node86</title>
<polygon fill="#bfbfbf" stroke="#000000" points="0,-76.5 0,-94.5 98.2754,-94.5 98.2754,-76.5 0,-76.5"/>
<text text-anchor="middle" x="49.1377" y="-82.5" font-family="Helvetica,sans-Serif" font-size="10.00" fill="#000000">main_lifter_update</text>
</g>
<!-- Node87 -->
<g id="node2" class="node">
<title>Node87</title>
<g id="a_node2"><a xlink:href="_a_p_i_8h.html#a5da86064604c539c2b6a5e2993289108" target="_top" xlink:title="Reads an analog input channel and returns the 12&#45;bit value. ">
<polygon fill="none" stroke="#000000" points="157.8838,-150.5 157.8838,-168.5 227.8193,-168.5 227.8193,-150.5 157.8838,-150.5"/>
<text text-anchor="middle" x="192.8516" y="-156.5" font-family="Helvetica,sans-Serif" font-size="10.00" fill="#000000">analogRead</text>
</a>
</g>
</g>
<!-- Node86&#45;&gt;Node87 -->
<g id="edge1" class="edge">
<title>Node86&#45;&gt;Node87</title>
<path fill="none" stroke="#191970" d="M60.6305,-94.603C76.4271,-106.7426 106.1035,-128.2382 134.2754,-141.5 138.6761,-143.5716 143.3732,-145.4774 148.1205,-147.2105"/>
<polygon fill="#191970" stroke="#191970" points="147.262,-150.6154 157.8564,-150.5232 149.5169,-143.9885 147.262,-150.6154"/>
</g>
<!-- Node88 -->
<g id="node3" class="node">
<title>Node88</title>
<g id="a_node3"><a xlink:href="log_8h.html#a8e5bb8a2a372f5b066ff7af7044584c1" target="_top" xlink:title="prints a error message and displays on lcd. ">
<polygon fill="none" stroke="#000000" points="311.8857,-33.5 311.8857,-51.5 348.999,-51.5 348.999,-33.5 311.8857,-33.5"/>
<text text-anchor="middle" x="330.4424" y="-39.5" font-family="Helvetica,sans-Serif" font-size="10.00" fill="#000000">error</text>
</a>
</g>
</g>
<!-- Node86&#45;&gt;Node88 -->
<g id="edge2" class="edge">
<title>Node86&#45;&gt;Node88</title>
<path fill="none" stroke="#191970" d="M85.8593,-76.4799C100.8129,-73.0227 118.3062,-69.252 134.2754,-66.5 193.2085,-56.344 262.8254,-48.8922 301.2601,-45.1701"/>
<polygon fill="#191970" stroke="#191970" points="302.0668,-48.6092 311.6903,-44.1778 301.4038,-41.6407 302.0668,-48.6092"/>
</g>
<!-- Node94 -->
<g id="node9" class="node">
<title>Node94</title>
<g id="a_node9"><a xlink:href="_a_p_i_8h.html#a792f1a80c62a63e764cf64aabf95db92" target="_top" xlink:title="Gets the value of a button on the VEX joystick. ">
<polygon fill="none" stroke="#000000" points="146.5068,-76.5 146.5068,-94.5 239.1963,-94.5 239.1963,-76.5 146.5068,-76.5"/>
<text text-anchor="middle" x="192.8516" y="-82.5" font-family="Helvetica,sans-Serif" font-size="10.00" fill="#000000">joystickGetDigital</text>
</a>
</g>
</g>
<!-- Node86&#45;&gt;Node94 -->
<g id="edge8" class="edge">
<title>Node86&#45;&gt;Node94</title>
<path fill="none" stroke="#191970" d="M98.5959,-85.5C110.6481,-85.5 123.6344,-85.5 136.0001,-85.5"/>
<polygon fill="#191970" stroke="#191970" points="136.2073,-89.0001 146.2073,-85.5 136.2073,-82.0001 136.2073,-89.0001"/>
</g>
<!-- Node95 -->
<g id="node10" class="node">
<title>Node95</title>
<g id="a_node10"><a xlink:href="lifter_8c.html#ad00a195af30f246924d6e1a30095b882" target="_top" xlink:title="Sets the main lifter motors to the given value. ">
<polygon fill="none" stroke="#000000" points="134.2754,-113.5 134.2754,-131.5 251.4277,-131.5 251.4277,-113.5 134.2754,-113.5"/>
<text text-anchor="middle" x="192.8516" y="-119.5" font-family="Helvetica,sans-Serif" font-size="10.00" fill="#000000">set_main_lifter_motors</text>
</a>
</g>
</g>
<!-- Node86&#45;&gt;Node95 -->
<g id="edge9" class="edge">
<title>Node86&#45;&gt;Node95</title>
<path fill="none" stroke="#191970" d="M84.2941,-94.5512C103.4326,-99.4786 127.3192,-105.6283 147.8096,-110.9037"/>
<polygon fill="#191970" stroke="#191970" points="147.0032,-114.3101 157.5601,-113.414 148.7485,-107.5312 147.0032,-114.3101"/>
</g>
<!-- Node107 -->
<g id="node20" class="node">
<title>Node107</title>
<g id="a_node20"><a xlink:href="_a_p_i_8h.html#a435d7fc1c3c3da80ed64cf9dfed0bd42" target="_top" xlink:title="Gets the current ultrasonic sensor value in centimeters. ">
<polygon fill="none" stroke="#000000" points="155.3936,-.5 155.3936,-18.5 230.3096,-18.5 230.3096,-.5 155.3936,-.5"/>
<text text-anchor="middle" x="192.8516" y="-6.5" font-family="Helvetica,sans-Serif" font-size="10.00" fill="#000000">ultrasonicGet</text>
</a>
</g>
</g>
<!-- Node86&#45;&gt;Node107 -->
<g id="edge21" class="edge">
<title>Node86&#45;&gt;Node107</title>
<path fill="none" stroke="#191970" d="M62.6126,-76.3396C79.0814,-65.3651 108.0055,-46.7974 134.2754,-33.5 142.0982,-29.5402 150.7342,-25.7176 158.9168,-22.3312"/>
<polygon fill="#191970" stroke="#191970" points="160.2717,-25.5588 168.2383,-18.5742 157.6549,-19.0663 160.2717,-25.5588"/>
</g>
<!-- Node89 -->
<g id="node4" class="node">
<title>Node89</title>
<g id="a_node4"><a xlink:href="log_8c.html#afff22aff6749311a684a559cac3ac8bd" target="_top" xlink:title="prints a log info message to the lcd ">
<polygon fill="none" stroke="#000000" points="620.7422,-159.5 620.7422,-177.5 671.7715,-177.5 671.7715,-159.5 620.7422,-159.5"/>
<text text-anchor="middle" x="646.2568" y="-165.5" font-family="Helvetica,sans-Serif" font-size="10.00" fill="#000000">log_info</text>
</a>
</g>
</g>
<!-- Node88&#45;&gt;Node89 -->
<g id="edge3" class="edge">
<title>Node88&#45;&gt;Node89</title>
<path fill="none" stroke="#191970" d="M349.1909,-37.8296C393.9529,-27.805 508.9652,-8.8048 584.7422,-56.5 618.2553,-77.5937 634.9405,-123.7236 641.9714,-149.7207"/>
<polygon fill="#191970" stroke="#191970" points="638.5946,-150.6448 644.4145,-159.498 645.3858,-148.9478 638.5946,-150.6448"/>
</g>
<!-- Node90 -->
<g id="node5" class="node">
<title>Node90</title>
<g id="a_node5"><a xlink:href="_a_p_i_8h.html#a403c82418e475fa4a8273719e6a7f3e6" target="_top" xlink:title="Prints the formatted string to the debug stream (the PC terminal). ">
<polygon fill="none" stroke="#000000" points="730.8403,-215.5 730.8403,-233.5 769.0718,-233.5 769.0718,-215.5 730.8403,-215.5"/>
<text text-anchor="middle" x="749.9561" y="-221.5" font-family="Helvetica,sans-Serif" font-size="10.00" fill="#000000">printf</text>
</a>
</g>
</g>
<!-- Node89&#45;&gt;Node90 -->
<g id="edge4" class="edge">
<title>Node89&#45;&gt;Node90</title>
<path fill="none" stroke="#191970" d="M659.5982,-177.5526C671.8348,-185.6578 690.6096,-197.6016 707.7715,-206.5 712.1365,-208.7632 716.8502,-210.9819 721.4903,-213.0459"/>
<polygon fill="#191970" stroke="#191970" points="720.2064,-216.3035 730.7763,-217.0298 722.9663,-209.8706 720.2064,-216.3035"/>
</g>
<!-- Node91 -->
<g id="node6" class="node">
<title>Node91</title>
<g id="a_node6"><a xlink:href="_a_p_i_8h.html#aab53a247d88151a6623c20fa1ea940b0" target="_top" xlink:title="Sets the specified LCD backlight to be on or off. ">
<polygon fill="none" stroke="#000000" points="707.7715,-141.5 707.7715,-159.5 792.1406,-159.5 792.1406,-141.5 707.7715,-141.5"/>
<text text-anchor="middle" x="749.9561" y="-147.5" font-family="Helvetica,sans-Serif" font-size="10.00" fill="#000000">lcdSetBacklight</text>
</a>
</g>
</g>
<!-- Node89&#45;&gt;Node91 -->
<g id="edge5" class="edge">
<title>Node89&#45;&gt;Node91</title>
<path fill="none" stroke="#191970" d="M671.8904,-164.0506C679.7342,-162.689 688.6644,-161.1389 697.6141,-159.5855"/>
<polygon fill="#191970" stroke="#191970" points="698.416,-162.9987 707.6701,-157.8399 697.2188,-156.1018 698.416,-162.9987"/>
</g>
<!-- Node92 -->
<g id="node7" class="node">
<title>Node92</title>
<g id="a_node7"><a xlink:href="_a_p_i_8h.html#a5fa1d119fe3e836b5519f97eae7a1272" target="_top" xlink:title="Clears the LCD screen on the specified port. ">
<polygon fill="none" stroke="#000000" points="723.6162,-104.5 723.6162,-122.5 776.2959,-122.5 776.2959,-104.5 723.6162,-104.5"/>
<text text-anchor="middle" x="749.9561" y="-110.5" font-family="Helvetica,sans-Serif" font-size="10.00" fill="#000000">lcdClear</text>
</a>
</g>
</g>
<!-- Node89&#45;&gt;Node92 -->
<g id="edge6" class="edge">
<title>Node89&#45;&gt;Node92</title>
<path fill="none" stroke="#191970" d="M660.6786,-159.4724C672.9923,-151.9076 691.2766,-141.0107 707.7715,-132.5 711.5458,-130.5526 715.5605,-128.5991 719.5555,-126.7251"/>
<polygon fill="#191970" stroke="#191970" points="721.0784,-129.8774 728.7184,-122.537 718.1684,-123.5109 721.0784,-129.8774"/>
</g>
<!-- Node93 -->
<g id="node8" class="node">
<title>Node93</title>
<g id="a_node8"><a xlink:href="_a_p_i_8h.html#a6cfad8271c6a566a2f51ca318f819a80" target="_top" xlink:title="Prints the formatted string to the attached LCD. ">
<polygon fill="none" stroke="#000000" points="725.2837,-178.5 725.2837,-196.5 774.6284,-196.5 774.6284,-178.5 725.2837,-178.5"/>
<text text-anchor="middle" x="749.9561" y="-184.5" font-family="Helvetica,sans-Serif" font-size="10.00" fill="#000000">lcdPrint</text>
</a>
</g>
</g>
<!-- Node89&#45;&gt;Node93 -->
<g id="edge7" class="edge">
<title>Node89&#45;&gt;Node93</title>
<path fill="none" stroke="#191970" d="M671.8904,-173.1966C684.9213,-175.5842 700.9503,-178.5211 715.0864,-181.1111"/>
<polygon fill="#191970" stroke="#191970" points="714.5082,-184.5633 724.9752,-182.923 715.7698,-177.678 714.5082,-184.5633"/>
</g>
<!-- Node96 -->
<g id="node11" class="node">
<title>Node96</title>
<g id="a_node11"><a xlink:href="slew_8h.html#a7dff2b79dffe55fb936d977594d7c01d" target="_top" xlink:title="Sets motor speed wrapped inside the slew rate controller. ">
<polygon fill="none" stroke="#000000" points="287.4277,-122.5 287.4277,-140.5 373.457,-140.5 373.457,-122.5 287.4277,-122.5"/>
<text text-anchor="middle" x="330.4424" y="-128.5" font-family="Helvetica,sans-Serif" font-size="10.00" fill="#000000">set_motor_slew</text>
</a>
</g>
</g>
<!-- Node95&#45;&gt;Node96 -->
<g id="edge10" class="edge">
<title>Node95&#45;&gt;Node96</title>
<path fill="none" stroke="#191970" d="M251.6016,-126.3429C260.1176,-126.9 268.8436,-127.4707 277.2422,-128.0201"/>
<polygon fill="#191970" stroke="#191970" points="277.0811,-131.517 287.2882,-128.6772 277.5381,-124.5319 277.0811,-131.517"/>
</g>
<!-- Node97 -->
<g id="node12" class="node">
<title>Node97</title>
<g id="a_node12"><a xlink:href="log_8h.html#af3668f40d1ad1b4f3418869ac9a31f34" target="_top" xlink:title="prints a info message ">
<polygon fill="none" stroke="#000000" points="624.353,-215.5 624.353,-233.5 668.1606,-233.5 668.1606,-215.5 624.353,-215.5"/>
<text text-anchor="middle" x="646.2568" y="-221.5" font-family="Helvetica,sans-Serif" font-size="10.00" fill="#000000">debug</text>
</a>
</g>
</g>
<!-- Node96&#45;&gt;Node97 -->
<g id="edge11" class="edge">
<title>Node96&#45;&gt;Node97</title>
<path fill="none" stroke="#191970" d="M340.2915,-140.7053C354.4376,-153.3743 381.8566,-175.9276 409.457,-187.5 478.3436,-216.383 567.0609,-222.9525 613.923,-224.2998"/>
<polygon fill="#191970" stroke="#191970" points="614.0069,-227.8025 624.0829,-224.5277 614.1639,-220.8043 614.0069,-227.8025"/>
</g>
<!-- Node98 -->
<g id="node13" class="node">
<title>Node98</title>
<g id="a_node13"><a xlink:href="slew_8c.html#a321758941d88b75783955c819bb75005" target="_top" xlink:title="Initializes the slew rate controller. ">
<polygon fill="none" stroke="#ff0000" points="414.4595,-122.5 414.4595,-140.5 468.8091,-140.5 468.8091,-122.5 414.4595,-122.5"/>
<text text-anchor="middle" x="441.6343" y="-128.5" font-family="Helvetica,sans-Serif" font-size="10.00" fill="#000000">init_slew</text>
</a>
</g>
</g>
<!-- Node96&#45;&gt;Node98 -->
<g id="edge13" class="edge">
<title>Node96&#45;&gt;Node98</title>
<path fill="none" stroke="#191970" d="M373.7505,-131.5C383.7814,-131.5 394.3741,-131.5 404.1321,-131.5"/>
<polygon fill="#191970" stroke="#191970" points="404.3269,-135.0001 414.3269,-131.5 404.3269,-128.0001 404.3269,-135.0001"/>
</g>
<!-- Node105 -->
<g id="node18" class="node">
<title>Node105</title>
<g id="a_node18"><a xlink:href="_a_p_i_8h.html#afe171a08d22de18fc2ab604b2364959f" target="_top" xlink:title="Relinquishes a mutex so that other tasks can use the resource it guards. ">
<polygon fill="none" stroke="#000000" points="409.7378,-85.5 409.7378,-103.5 473.5308,-103.5 473.5308,-85.5 409.7378,-85.5"/>
<text text-anchor="middle" x="441.6343" y="-91.5" font-family="Helvetica,sans-Serif" font-size="10.00" fill="#000000">mutexGive</text>
</a>
</g>
</g>
<!-- Node96&#45;&gt;Node105 -->
<g id="edge19" class="edge">
<title>Node96&#45;&gt;Node105</title>
<path fill="none" stroke="#191970" d="M357.643,-122.4488C371.7775,-117.7454 389.2592,-111.9282 404.6076,-106.8209"/>
<polygon fill="#191970" stroke="#191970" points="405.9457,-110.0644 414.3291,-103.586 403.7355,-103.4225 405.9457,-110.0644"/>
</g>
<!-- Node104 -->
<g id="node19" class="node">
<title>Node104</title>
<g id="a_node19"><a xlink:href="_a_p_i_8h.html#a8b51124628d2a7741738d48551d1e8ee" target="_top" xlink:title="Requests a mutex so that other tasks cannot simultaneously use the resource it guards. ">
<polygon fill="none" stroke="#000000" points="409.457,-159.5 409.457,-177.5 473.8115,-177.5 473.8115,-159.5 409.457,-159.5"/>
<text text-anchor="middle" x="441.6343" y="-165.5" font-family="Helvetica,sans-Serif" font-size="10.00" fill="#000000">mutexTake</text>
</a>
</g>
</g>
<!-- Node96&#45;&gt;Node104 -->
<g id="edge20" class="edge">
<title>Node96&#45;&gt;Node104</title>
<path fill="none" stroke="#191970" d="M357.643,-140.5512C371.7775,-145.2546 389.2592,-151.0718 404.6076,-156.1791"/>
<polygon fill="#191970" stroke="#191970" points="403.7355,-159.5775 414.3291,-159.414 405.9457,-152.9356 403.7355,-159.5775"/>
</g>
<!-- Node97&#45;&gt;Node90 -->
<g id="edge12" class="edge">
<title>Node97&#45;&gt;Node90</title>
<path fill="none" stroke="#191970" d="M668.2488,-224.5C683.465,-224.5 703.8856,-224.5 720.5052,-224.5"/>
<polygon fill="#191970" stroke="#191970" points="720.785,-228.0001 730.7849,-224.5 720.7849,-221.0001 720.785,-228.0001"/>
</g>
<!-- Node99 -->
<g id="node14" class="node">
<title>Node99</title>
<g id="a_node14"><a xlink:href="log_8h.html#a0bec2cf5fff7f607bc510b74aba9887c" target="_top" xlink:title="prints a warning message and displays on lcd. ">
<polygon fill="none" stroke="#000000" points="521.7671,-177.5 521.7671,-195.5 572.7866,-195.5 572.7866,-177.5 521.7671,-177.5"/>
<text text-anchor="middle" x="547.2769" y="-183.5" font-family="Helvetica,sans-Serif" font-size="10.00" fill="#000000">warning</text>
</a>
</g>
</g>
<!-- Node98&#45;&gt;Node99 -->
<g id="edge14" class="edge">
<title>Node98&#45;&gt;Node99</title>
<path fill="none" stroke="#191970" d="M457.7696,-140.5483C471.5094,-148.1829 491.8247,-159.3055 509.8115,-168.5 512.6126,-169.9318 515.5461,-171.398 518.4857,-172.8453"/>
<polygon fill="#191970" stroke="#191970" points="517.2173,-176.1201 527.7419,-177.3387 520.2744,-169.8229 517.2173,-176.1201"/>
</g>
<!-- Node100 -->
<g id="node15" class="node">
<title>Node100</title>
<g id="a_node15"><a xlink:href="_a_p_i_8h.html#a8966c541f3e9565aea1289f0d2f2cf43" target="_top" xlink:title="Stops all motors; significantly faster than looping through all motor ports and calling motorSet(chan...">
<polygon fill="none" stroke="#000000" points="510.6538,-66.5 510.6538,-84.5 583.8999,-84.5 583.8999,-66.5 510.6538,-66.5"/>
<text text-anchor="middle" x="547.2769" y="-72.5" font-family="Helvetica,sans-Serif" font-size="10.00" fill="#000000">motorStopAll</text>
</a>
</g>
</g>
<!-- Node98&#45;&gt;Node100 -->
<g id="edge16" class="edge">
<title>Node98&#45;&gt;Node100</title>
<path fill="none" stroke="#191970" d="M458.0972,-122.3987C471.863,-114.8287 492.0437,-103.8244 509.8115,-94.5 513.105,-92.7716 516.5731,-90.9778 520.0157,-89.2133"/>
<polygon fill="#191970" stroke="#191970" points="521.6064,-92.331 528.9308,-84.6757 518.4311,-86.0925 521.6064,-92.331"/>
</g>
<!-- Node101 -->
<g id="node16" class="node">
<title>Node101</title>
<g id="a_node16"><a xlink:href="_a_p_i_8h.html#aecd027ce8f8b52a765735e9eb5b202b3" target="_top" xlink:title="Creates a mutex intended to allow only one task to use a resource at a time. ">
<polygon fill="none" stroke="#000000" points="510.6538,-140.5 510.6538,-158.5 583.8999,-158.5 583.8999,-140.5 510.6538,-140.5"/>
<text text-anchor="middle" x="547.2769" y="-146.5" font-family="Helvetica,sans-Serif" font-size="10.00" fill="#000000">mutexCreate</text>
</a>
</g>
</g>
<!-- Node98&#45;&gt;Node101 -->
<g id="edge17" class="edge">
<title>Node98&#45;&gt;Node101</title>
<path fill="none" stroke="#191970" d="M468.8399,-136.1354C478.5756,-137.7943 489.8433,-139.7141 500.748,-141.5721"/>
<polygon fill="#191970" stroke="#191970" points="500.1603,-145.0224 510.6062,-143.2518 501.3362,-138.1218 500.1603,-145.0224"/>
</g>
<!-- Node102 -->
<g id="node17" class="node">
<title>Node102</title>
<g id="a_node17"><a xlink:href="_a_p_i_8h.html#ab05a241d6d1fd98b1ceb4665db678156" target="_top" xlink:title="Starts a task which will periodically call the specified function. ">
<polygon fill="none" stroke="#000000" points="509.8115,-103.5 509.8115,-121.5 584.7422,-121.5 584.7422,-103.5 509.8115,-103.5"/>
<text text-anchor="middle" x="547.2769" y="-109.5" font-family="Helvetica,sans-Serif" font-size="10.00" fill="#000000">taskRunLoop</text>
</a>
</g>
</g>
<!-- Node98&#45;&gt;Node102 -->
<g id="edge18" class="edge">
<title>Node98&#45;&gt;Node102</title>
<path fill="none" stroke="#191970" d="M468.8399,-126.607C478.1983,-124.9239 488.9722,-122.9862 499.4786,-121.0966"/>
<polygon fill="#191970" stroke="#191970" points="500.1924,-124.5245 509.4149,-119.3095 498.9532,-117.635 500.1924,-124.5245"/>
</g>
<!-- Node99&#45;&gt;Node89 -->
<g id="edge15" class="edge">
<title>Node99&#45;&gt;Node89</title>
<path fill="none" stroke="#191970" d="M573.0243,-181.8177C584.4803,-179.7344 598.1607,-177.2465 610.5796,-174.9881"/>
<polygon fill="#191970" stroke="#191970" points="611.4259,-178.3917 620.6383,-173.1589 610.1734,-171.5046 611.4259,-178.3917"/>
</g>
</g>
</svg>
        <g id="navigator" transform="translate(0 0)" fill="#404254">
                <rect fill="#f2f5e9" fill-opacity="0.5" stroke="#606060" stroke-width=".5" x="0" y="0" width="60" height="60"/>
                <use id="zoomplus" xlink:href="#zoomPlus" x="17" y="9" onmousedown="handleZoom(evt,'in')"/>
                <use id="zoomminus" xlink:href="#zoomMin" x="42" y="9" onmousedown="handleZoom(evt,'out')"/>
                <use id="reset" xlink:href="#resetDef" x="30" y="36" onmousedown="handleReset()"/>
                <g id="arrowUp" xlink:href="#dirArrow" transform="translate(30 24)" onmousedown="handlePan(0,-1)">
                  <use xlink:href="#rim" fill="#404040">
                        <set attributeName="fill" to="#808080" begin="arrowUp.mouseover" end="arrowUp.mouseout"/>
                  </use>
                  <path fill="none" stroke="white" stroke-width="1.5" d="M0,-3.0v7 M-2.5,-0.5L0,-3.0L2.5,-0.5"/>
                </g>
                <g id="arrowRight" xlink:href="#dirArrow" transform="rotate(90) translate(36 -43)" onmousedown="handlePan(1,0)">
                  <use xlink:href="#rim" fill="#404040">
                        <set attributeName="fill" to="#808080" begin="arrowRight.mouseover" end="arrowRight.mouseout"/>
                  </use>
                  <path fill="none" stroke="white" stroke-width="1.5" d="M0,-3.0v7 M-2.5,-0.5L0,-3.0L2.5,-0.5"/>
                </g>
                <g id="arrowDown" xlink:href="#dirArrow" transform="rotate(180) translate(-30 -48)" onmousedown="handlePan(0,1)">
                  <use xlink:href="#rim" fill="#404040">
                        <set attributeName="fill" to="#808080" begin="arrowDown.mouseover" end="arrowDown.mouseout"/>
                  </use>
                  <path fill="none" stroke="white" stroke-width="1.5" d="M0,-3.0v7 M-2.5,-0.5L0,-3.0L2.5,-0.5"/>
                </g>
                <g id="arrowLeft" xlink:href="#dirArrow" transform="rotate(270) translate(-36 17)" onmousedown="handlePan(-1,0)">
                  <use xlink:href="#rim" fill="#404040">
                        <set attributeName="fill" to="#808080" begin="arrowLeft.mouseover" end="arrowLeft.mouseout"/>
                  </use>
                  <path fill="none" stroke="white" stroke-width="1.5" d="M0,-3.0v7 M-2.5,-0.5L0,-3.0L2.5,-0.5"/>
                </g>
        </g>
        <svg viewBox="0 0 15 15" width="100%" height="30px" preserveAspectRatio="xMaxYMin meet">
         <g id="arrow_out" transform="scale(0.3 0.3)">
          <a xlink:href="lifter_8c_adfb6207ee1f20953058c8de81ec3386a_cgraph_org.svg" target="_base">
           <rect id="button" ry="5" rx="5" y="6" x="6" height="38" width="38"
                fill="#f2f5e9" fill-opacity="0.5" stroke="#606060" stroke-width="1.0"/>
           <path id="arrow"
             d="M 11.500037,31.436501 C 11.940474,20.09759 22.043105,11.32322 32.158766,21.979434 L 37.068811,17.246167 C 37.068811,17.246167 37.088388,32 37.088388,32 L 22.160133,31.978069 C 22.160133,31.978069 26.997745,27.140456 26.997745,27.140456 C 18.528582,18.264221 13.291696,25.230495 11.500037,31.436501 z"
             style="fill:#404040;"/>
          </a>
         </g>
        </svg>
</svg>
