<?xml version="1.0" encoding="UTF-8" standalone="no"?>
<!DOCTYPE svg PUBLIC "-//W3C//DTD SVG 1.1//EN"
 "http://www.w3.org/Graphics/SVG/1.1/DTD/svg11.dtd">
<!-- Generated by graphviz version 2.40.1 (20161225.0304)
 -->
<!-- Title: set_lifter_motors Pages: 1 -->
<!--zoomable 306 -->
<svg id="main" version="1.1" xmlns="http://www.w3.org/2000/svg" xmlns:xlink="http://www.w3.org/1999/xlink" xml:space="preserve" onload="init(evt)">
<style type="text/css"><![CDATA[
.edge:hover path { stroke: red; }
.edge:hover polygon { stroke: red; fill: red; }
]]></style>
<script type="text/javascript"><![CDATA[
var edges = document.getElementsByTagName('g');
if (edges && edges.length) {
  for (var i=0;i<edges.length;i++) {
    if (edges[i].id.substr(0,4)=='edge') {
      edges[i].setAttribute('class','edge');
    }
  }
}
]]></script>
        <defs>
                <circle id="rim" cx="0" cy="0" r="7"/>
                <circle id="rim2" cx="0" cy="0" r="3.5"/>
                <g id="zoomPlus">
                        <use xlink:href="#rim" fill="#404040">
                                <set attributeName="fill" to="#808080" begin="zoomplus.mouseover" end="zoomplus.mouseout"/>
                        </use>
                        <path d="M-4,0h8M0,-4v8" fill="none" stroke="white" stroke-width="1.5" pointer-events="none"/>
                </g>
                <g id="zoomMin">
                        <use xlink:href="#rim" fill="#404040">
                                <set attributeName="fill" to="#808080" begin="zoomminus.mouseover" end="zoomminus.mouseout"/>
                        </use>
                        <path d="M-4,0h8" fill="none" stroke="white" stroke-width="1.5" pointer-events="none"/>
                </g>
                <g id="dirArrow">
                        <path fill="none" stroke="white" stroke-width="1.5" d="M0,-3.0v7 M-2.5,-0.5L0,-3.0L2.5,-0.5"/>
                </g>
               <g id="resetDef">
                       <use xlink:href="#rim2" fill="#404040">
                               <set attributeName="fill" to="#808080" begin="reset.mouseover" end="reset.mouseout"/>
                       </use>
               </g>
        </defs>

<script type="text/javascript">
var viewWidth = 644;
var viewHeight = 306;
var sectionId = 'dynsection-5';
</script>
<script xlink:href="svgpan.js"/>
<svg id="graph" class="graph">
<g id="viewport">
<title>set_lifter_motors</title>
<!-- Node42 -->
<g id="node1" class="node">
<title>Node42</title>
<polygon fill="#bfbfbf" stroke="#000000" points="0,-93.5 0,-111.5 89.916,-111.5 89.916,-93.5 0,-93.5"/>
<text text-anchor="middle" x="44.958" y="-99.5" font-family="Helvetica,sans-Serif" font-size="10.00" fill="#000000">set_lifter_motors</text>
</g>
<!-- Node43 -->
<g id="node2" class="node">
<title>Node43</title>
<g id="a_node2"><a xlink:href="slew_8h.html#a7dff2b79dffe55fb936d977594d7c01d" target="_top" xlink:title="Sets motor speed wrapped inside the slew rate controller. ">
<polygon fill="none" stroke="#000000" points="125.916,-93.5 125.916,-111.5 211.9453,-111.5 211.9453,-93.5 125.916,-93.5"/>
<text text-anchor="middle" x="168.9307" y="-99.5" font-family="Helvetica,sans-Serif" font-size="10.00" fill="#000000">set_motor_slew</text>
</a>
</g>
</g>
<!-- Node42&#45;&gt;Node43 -->
<g id="edge1" class="edge">
<title>Node42&#45;&gt;Node43</title>
<path fill="none" stroke="#191970" d="M90.0657,-102.5C98.3346,-102.5 107.0373,-102.5 115.5214,-102.5"/>
<polygon fill="#191970" stroke="#191970" points="115.7179,-106.0001 125.7179,-102.5 115.7179,-99.0001 115.7179,-106.0001"/>
</g>
<!-- Node44 -->
<g id="node3" class="node">
<title>Node44</title>
<g id="a_node3"><a xlink:href="log_8h.html#af3668f40d1ad1b4f3418869ac9a31f34" target="_top" xlink:title="prints a info message ">
<polygon fill="none" stroke="#000000" points="253.2163,-243.5 253.2163,-261.5 297.0239,-261.5 297.0239,-243.5 253.2163,-243.5"/>
<text text-anchor="middle" x="275.1201" y="-249.5" font-family="Helvetica,sans-Serif" font-size="10.00" fill="#000000">debug</text>
</a>
</g>
</g>
<!-- Node43&#45;&gt;Node44 -->
<g id="edge2" class="edge">
<title>Node43&#45;&gt;Node44</title>
<path fill="none" stroke="#191970" d="M175.5733,-111.8832C192.9301,-136.4009 239.8597,-202.6922 262.5281,-234.7128"/>
<polygon fill="#191970" stroke="#191970" points="259.8453,-236.9809 268.48,-243.1204 265.5586,-232.9363 259.8453,-236.9809"/>
</g>
<!-- Node46 -->
<g id="node5" class="node">
<title>Node46</title>
<g id="a_node5"><a xlink:href="slew_8c.html#a321758941d88b75783955c819bb75005" target="_top" xlink:title="Initializes the slew rate controller. ">
<polygon fill="none" stroke="#000000" points="247.9453,-150.5 247.9453,-168.5 302.2949,-168.5 302.2949,-150.5 247.9453,-150.5"/>
<text text-anchor="middle" x="275.1201" y="-156.5" font-family="Helvetica,sans-Serif" font-size="10.00" fill="#000000">init_slew</text>
</a>
</g>
</g>
<!-- Node43&#45;&gt;Node46 -->
<g id="edge4" class="edge">
<title>Node43&#45;&gt;Node46</title>
<path fill="none" stroke="#191970" d="M185.9918,-111.658C203.0213,-120.7991 229.4147,-134.9664 249.0663,-145.5149"/>
<polygon fill="#191970" stroke="#191970" points="247.635,-148.719 258.1013,-150.3647 250.9457,-142.5513 247.635,-148.719"/>
</g>
<!-- Node56 -->
<g id="node15" class="node">
<title>Node56</title>
<g id="a_node15"><a xlink:href="_a_p_i_8h.html#a8b51124628d2a7741738d48551d1e8ee" target="_top" xlink:title="mutexTake">
<polygon fill="none" stroke="#000000" points="451.4424,-37.5 451.4424,-55.5 515.7969,-55.5 515.7969,-37.5 451.4424,-37.5"/>
<text text-anchor="middle" x="483.6196" y="-43.5" font-family="Helvetica,sans-Serif" font-size="10.00" fill="#000000">mutexTake</text>
</a>
</g>
</g>
<!-- Node43&#45;&gt;Node56 -->
<g id="edge21" class="edge">
<title>Node43&#45;&gt;Node56</title>
<path fill="none" stroke="#191970" d="M207.4531,-93.4767C241.6802,-85.6596 293.1379,-74.3958 338.2949,-66.5 372.7036,-60.4835 411.957,-55.173 440.9871,-51.539"/>
<polygon fill="#191970" stroke="#191970" points="441.6968,-54.978 451.1919,-50.2778 440.8381,-48.0308 441.6968,-54.978"/>
</g>
<!-- Node57 -->
<g id="node16" class="node">
<title>Node57</title>
<g id="a_node16"><a xlink:href="_a_p_i_8h.html#afe171a08d22de18fc2ab604b2364959f" target="_top" xlink:title="mutexGive">
<polygon fill="none" stroke="#000000" points="451.7231,-.5 451.7231,-18.5 515.5161,-18.5 515.5161,-.5 451.7231,-.5"/>
<text text-anchor="middle" x="483.6196" y="-6.5" font-family="Helvetica,sans-Serif" font-size="10.00" fill="#000000">mutexGive</text>
</a>
</g>
</g>
<!-- Node43&#45;&gt;Node57 -->
<g id="edge20" class="edge">
<title>Node43&#45;&gt;Node57</title>
<path fill="none" stroke="#191970" d="M187.7544,-93.3789C203.5561,-85.9719 226.8645,-75.6225 247.9453,-68.5 314.3966,-46.0481 393.9644,-27.8689 441.5665,-17.8855"/>
<polygon fill="#191970" stroke="#191970" points="442.4307,-21.2808 451.5109,-15.8218 441.0083,-14.4269 442.4307,-21.2808"/>
</g>
<!-- Node45 -->
<g id="node4" class="node">
<title>Node45</title>
<g id="a_node4"><a xlink:href="_a_p_i_8h.html#a403c82418e475fa4a8273719e6a7f3e6" target="_top" xlink:title="printf">
<polygon fill="none" stroke="#000000" points="574.8657,-169.5 574.8657,-187.5 613.0972,-187.5 613.0972,-169.5 574.8657,-169.5"/>
<text text-anchor="middle" x="593.9814" y="-175.5" font-family="Helvetica,sans-Serif" font-size="10.00" fill="#000000">printf</text>
</a>
</g>
</g>
<!-- Node44&#45;&gt;Node45 -->
<g id="edge3" class="edge">
<title>Node44&#45;&gt;Node45</title>
<path fill="none" stroke="#191970" d="M285.8964,-261.5205C297.8307,-270.8695 318.0691,-284.8857 338.2949,-290.5 371.3335,-299.6708 382.4912,-299.9799 415.4424,-290.5 481.3339,-271.5433 546.4211,-220.3314 576.5787,-194.2401"/>
<polygon fill="#191970" stroke="#191970" points="578.9351,-196.8287 584.13,-187.5949 574.3107,-191.5737 578.9351,-196.8287"/>
</g>
<!-- Node47 -->
<g id="node6" class="node">
<title>Node47</title>
<g id="a_node6"><a xlink:href="log_8h.html#a0bec2cf5fff7f607bc510b74aba9887c" target="_top" xlink:title="prints a warning message and displays on lcd. Only will print and display if log_level is greater tha...">
<polygon fill="none" stroke="#000000" points="351.3589,-112.5 351.3589,-130.5 402.3784,-130.5 402.3784,-112.5 351.3589,-112.5"/>
<text text-anchor="middle" x="376.8687" y="-118.5" font-family="Helvetica,sans-Serif" font-size="10.00" fill="#000000">warning</text>
</a>
</g>
</g>
<!-- Node46&#45;&gt;Node47 -->
<g id="edge5" class="edge">
<title>Node46&#45;&gt;Node47</title>
<path fill="none" stroke="#191970" d="M299.2331,-150.4945C312.316,-145.6085 328.6997,-139.4897 343.0402,-134.1339"/>
<polygon fill="#191970" stroke="#191970" points="344.4327,-137.35 352.5761,-130.5725 341.9836,-130.7924 344.4327,-137.35"/>
</g>
<!-- Node51 -->
<g id="node10" class="node">
<title>Node51</title>
<g id="a_node10"><a xlink:href="_a_p_i_8h.html#a8966c541f3e9565aea1289f0d2f2cf43" target="_top" xlink:title="motorStopAll">
<polygon fill="none" stroke="#000000" points="340.2456,-262.5 340.2456,-280.5 413.4917,-280.5 413.4917,-262.5 340.2456,-262.5"/>
<text text-anchor="middle" x="376.8687" y="-268.5" font-family="Helvetica,sans-Serif" font-size="10.00" fill="#000000">motorStopAll</text>
</a>
</g>
</g>
<!-- Node46&#45;&gt;Node51 -->
<g id="edge10" class="edge">
<title>Node46&#45;&gt;Node51</title>
<path fill="none" stroke="#191970" d="M279.2095,-168.7216C287.7571,-187.0792 309.1636,-228.5704 338.2949,-253.5 339.8109,-254.7973 341.4362,-256.0212 343.1309,-257.1728"/>
<polygon fill="#191970" stroke="#191970" points="341.5941,-260.3279 351.9976,-262.3322 345.1147,-254.2777 341.5941,-260.3279"/>
</g>
<!-- Node52 -->
<g id="node11" class="node">
<title>Node52</title>
<g id="a_node11"><a xlink:href="log_8h.html#a1606d750e1bb8de9f9e917172bba3382" target="_top" xlink:title="prints a info message ">
<polygon fill="none" stroke="#000000" points="467.5581,-188.5 467.5581,-206.5 499.6812,-206.5 499.6812,-188.5 467.5581,-188.5"/>
<text text-anchor="middle" x="483.6196" y="-194.5" font-family="Helvetica,sans-Serif" font-size="10.00" fill="#000000">info</text>
</a>
</g>
</g>
<!-- Node46&#45;&gt;Node52 -->
<g id="edge11" class="edge">
<title>Node46&#45;&gt;Node52</title>
<path fill="none" stroke="#191970" d="M302.4437,-162.4386C330.8401,-165.7156 376.4919,-171.6104 415.4424,-179.5 429.5028,-182.348 444.9769,-186.3605 457.6241,-189.8745"/>
<polygon fill="#191970" stroke="#191970" points="456.9142,-193.3111 467.4898,-192.6725 458.8242,-186.5767 456.9142,-193.3111"/>
</g>
<!-- Node53 -->
<g id="node12" class="node">
<title>Node53</title>
<g id="a_node12"><a xlink:href="_a_p_i_8h.html#aecd027ce8f8b52a765735e9eb5b202b3" target="_top" xlink:title="mutexCreate">
<polygon fill="none" stroke="#000000" points="340.2456,-225.5 340.2456,-243.5 413.4917,-243.5 413.4917,-225.5 340.2456,-225.5"/>
<text text-anchor="middle" x="376.8687" y="-231.5" font-family="Helvetica,sans-Serif" font-size="10.00" fill="#000000">mutexCreate</text>
</a>
</g>
</g>
<!-- Node46&#45;&gt;Node53 -->
<g id="edge13" class="edge">
<title>Node46&#45;&gt;Node53</title>
<path fill="none" stroke="#191970" d="M283.4235,-168.512C294.8905,-180.5811 316.6238,-202.136 338.2949,-216.5 340.5837,-218.017 343.0207,-219.4729 345.5146,-220.8534"/>
<polygon fill="#191970" stroke="#191970" points="344.1336,-224.0778 354.6329,-225.4973 347.3104,-217.8401 344.1336,-224.0778"/>
</g>
<!-- Node54 -->
<g id="node13" class="node">
<title>Node54</title>
<g id="a_node13"><a xlink:href="_a_p_i_8h.html#ab05a241d6d1fd98b1ceb4665db678156" target="_top" xlink:title="taskRunLoop">
<polygon fill="none" stroke="#000000" points="339.4033,-188.5 339.4033,-206.5 414.334,-206.5 414.334,-188.5 339.4033,-188.5"/>
<text text-anchor="middle" x="376.8687" y="-194.5" font-family="Helvetica,sans-Serif" font-size="10.00" fill="#000000">taskRunLoop</text>
</a>
</g>
</g>
<!-- Node46&#45;&gt;Node54 -->
<g id="edge14" class="edge">
<title>Node46&#45;&gt;Node54</title>
<path fill="none" stroke="#191970" d="M299.2331,-168.5055C312.316,-173.3915 328.6997,-179.5103 343.0402,-184.8661"/>
<polygon fill="#191970" stroke="#191970" points="341.9836,-188.2076 352.5761,-188.4275 344.4327,-181.65 341.9836,-188.2076"/>
</g>
<!-- Node55 -->
<g id="node14" class="node">
<title>Node55</title>
<g id="a_node14"><a xlink:href="slew_8c.html#a807a87c5df438fde21c1e8213906695b" target="_top" xlink:title="Closes the distance between the desired motor value and the current motor value by half for each moto...">
<polygon fill="none" stroke="#000000" points="338.2949,-75.5 338.2949,-93.5 415.4424,-93.5 415.4424,-75.5 338.2949,-75.5"/>
<text text-anchor="middle" x="376.8687" y="-81.5" font-family="Helvetica,sans-Serif" font-size="10.00" fill="#000000">updateMotors</text>
</a>
</g>
</g>
<!-- Node46&#45;&gt;Node55 -->
<g id="edge15" class="edge">
<title>Node46&#45;&gt;Node55</title>
<path fill="none" stroke="#191970" d="M283.8968,-150.3208C295.5476,-138.4802 317.1248,-117.7198 338.2949,-103.5 341.0216,-101.6685 343.9505,-99.9053 346.9315,-98.2411"/>
<polygon fill="#191970" stroke="#191970" points="348.6315,-101.3019 355.881,-93.5757 345.3956,-95.0947 348.6315,-101.3019"/>
</g>
<!-- Node48 -->
<g id="node7" class="node">
<title>Node48</title>
<g id="a_node7"><a xlink:href="log_8c.html#afff22aff6749311a684a559cac3ac8bd" target="_top" xlink:title="log_info">
<polygon fill="none" stroke="#000000" points="458.105,-112.5 458.105,-130.5 509.1343,-130.5 509.1343,-112.5 458.105,-112.5"/>
<text text-anchor="middle" x="483.6196" y="-118.5" font-family="Helvetica,sans-Serif" font-size="10.00" fill="#000000">log_info</text>
</a>
</g>
</g>
<!-- Node47&#45;&gt;Node48 -->
<g id="edge6" class="edge">
<title>Node47&#45;&gt;Node48</title>
<path fill="none" stroke="#191970" d="M402.4382,-121.5C415.9389,-121.5 432.7325,-121.5 447.5364,-121.5"/>
<polygon fill="#191970" stroke="#191970" points="447.8888,-125.0001 457.8888,-121.5 447.8887,-118.0001 447.8888,-125.0001"/>
</g>
<!-- Node48&#45;&gt;Node45 -->
<g id="edge7" class="edge">
<title>Node48&#45;&gt;Node45</title>
<path fill="none" stroke="#191970" d="M501.3512,-130.658C519.1302,-139.8406 546.7297,-154.0953 567.182,-164.6585"/>
<polygon fill="#191970" stroke="#191970" points="565.8028,-167.8855 576.2939,-169.3647 569.0151,-161.666 565.8028,-167.8855"/>
</g>
<!-- Node49 -->
<g id="node8" class="node">
<title>Node49</title>
<g id="a_node8"><a xlink:href="_a_p_i_8h.html#aab53a247d88151a6623c20fa1ea940b0" target="_top" xlink:title="lcdSetBacklight">
<polygon fill="none" stroke="#000000" points="551.7969,-75.5 551.7969,-93.5 636.166,-93.5 636.166,-75.5 551.7969,-75.5"/>
<text text-anchor="middle" x="593.9814" y="-81.5" font-family="Helvetica,sans-Serif" font-size="10.00" fill="#000000">lcdSetBacklight</text>
</a>
</g>
</g>
<!-- Node48&#45;&gt;Node49 -->
<g id="edge8" class="edge">
<title>Node48&#45;&gt;Node49</title>
<path fill="none" stroke="#191970" d="M509.2162,-112.9185C523.5592,-108.1098 541.6882,-102.0319 557.4959,-96.7322"/>
<polygon fill="#191970" stroke="#191970" points="558.6151,-100.0485 566.9839,-93.5512 556.39,-93.4115 558.6151,-100.0485"/>
</g>
<!-- Node50 -->
<g id="node9" class="node">
<title>Node50</title>
<g id="a_node9"><a xlink:href="_a_p_i_8h.html#a5fa1d119fe3e836b5519f97eae7a1272" target="_top" xlink:title="lcdClear">
<polygon fill="none" stroke="#000000" points="567.6416,-112.5 567.6416,-130.5 620.3213,-130.5 620.3213,-112.5 567.6416,-112.5"/>
<text text-anchor="middle" x="593.9814" y="-118.5" font-family="Helvetica,sans-Serif" font-size="10.00" fill="#000000">lcdClear</text>
</a>
</g>
</g>
<!-- Node48&#45;&gt;Node50 -->
<g id="edge9" class="edge">
<title>Node48&#45;&gt;Node50</title>
<path fill="none" stroke="#191970" d="M509.2162,-121.5C523.3921,-121.5 541.2662,-121.5 556.9423,-121.5"/>
<polygon fill="#191970" stroke="#191970" points="557.3715,-125.0001 567.3715,-121.5 557.3714,-118.0001 557.3715,-125.0001"/>
</g>
<!-- Node52&#45;&gt;Node45 -->
<g id="edge12" class="edge">
<title>Node52&#45;&gt;Node45</title>
<path fill="none" stroke="#191970" d="M499.9039,-194.6965C516.9332,-191.7647 544.0184,-187.1017 564.7629,-183.5303"/>
<polygon fill="#191970" stroke="#191970" points="565.3941,-186.9732 574.6553,-181.8272 564.2064,-180.0747 565.3941,-186.9732"/>
</g>
<!-- Node55&#45;&gt;Node45 -->
<g id="edge18" class="edge">
<title>Node55&#45;&gt;Node45</title>
<path fill="none" stroke="#191970" d="M398.4367,-93.5153C404.1914,-96.3435 410.2487,-99.726 415.4424,-103.5 434.0034,-116.9873 431.6441,-128.9048 451.4424,-140.5 487.0674,-161.3644 534.3461,-171.02 564.4758,-175.31"/>
<polygon fill="#191970" stroke="#191970" points="564.3764,-178.8269 574.7469,-176.6586 565.2877,-171.8865 564.3764,-178.8269"/>
</g>
<!-- Node55&#45;&gt;Node56 -->
<g id="edge16" class="edge">
<title>Node55&#45;&gt;Node56</title>
<path fill="none" stroke="#191970" d="M402.1671,-75.4945C416.0252,-70.5615 433.4133,-64.3719 448.5614,-58.9796"/>
<polygon fill="#191970" stroke="#191970" points="449.8856,-62.2235 458.1328,-55.5725 447.5381,-55.6288 449.8856,-62.2235"/>
</g>
<!-- Node55&#45;&gt;Node57 -->
<g id="edge17" class="edge">
<title>Node55&#45;&gt;Node57</title>
<path fill="none" stroke="#191970" d="M387.627,-75.4944C401.8104,-63.8073 427.7456,-43.0703 451.4424,-27.5 453.3548,-26.2434 455.3607,-24.9867 457.3965,-23.7545"/>
<polygon fill="#191970" stroke="#191970" points="459.4198,-26.6273 466.3171,-18.585 455.91,-20.5707 459.4198,-26.6273"/>
</g>
<!-- Node58 -->
<g id="node17" class="node">
<title>Node58</title>
<g id="a_node17"><a xlink:href="_a_p_i_8h.html#a03c5b04b472d024281f62d7af8854a8e" target="_top" xlink:title="motorSet">
<polygon fill="none" stroke="#000000" points="455.334,-75.5 455.334,-93.5 511.9053,-93.5 511.9053,-75.5 455.334,-75.5"/>
<text text-anchor="middle" x="483.6196" y="-81.5" font-family="Helvetica,sans-Serif" font-size="10.00" fill="#000000">motorSet</text>
</a>
</g>
</g>
<!-- Node55&#45;&gt;Node58 -->
<g id="edge19" class="edge">
<title>Node55&#45;&gt;Node58</title>
<path fill="none" stroke="#191970" d="M415.7102,-84.5C425.2541,-84.5 435.4692,-84.5 445.0025,-84.5"/>
<polygon fill="#191970" stroke="#191970" points="445.0157,-88.0001 455.0156,-84.5 445.0156,-81.0001 445.0157,-88.0001"/>
</g>
</g>
</svg>
        <g id="navigator" transform="translate(0 0)" fill="#404254">
                <rect fill="#f2f5e9" fill-opacity="0.5" stroke="#606060" stroke-width=".5" x="0" y="0" width="60" height="60"/>
                <use id="zoomplus" xlink:href="#zoomPlus" x="17" y="9" onmousedown="handleZoom(evt,'in')"/>
                <use id="zoomminus" xlink:href="#zoomMin" x="42" y="9" onmousedown="handleZoom(evt,'out')"/>
                <use id="reset" xlink:href="#resetDef" x="30" y="36" onmousedown="handleReset()"/>
                <g id="arrowUp" xlink:href="#dirArrow" transform="translate(30 24)" onmousedown="handlePan(0,-1)">
                  <use xlink:href="#rim" fill="#404040">
                        <set attributeName="fill" to="#808080" begin="arrowUp.mouseover" end="arrowUp.mouseout"/>
                  </use>
                  <path fill="none" stroke="white" stroke-width="1.5" d="M0,-3.0v7 M-2.5,-0.5L0,-3.0L2.5,-0.5"/>
                </g>
                <g id="arrowRight" xlink:href="#dirArrow" transform="rotate(90) translate(36 -43)" onmousedown="handlePan(1,0)">
                  <use xlink:href="#rim" fill="#404040">
                        <set attributeName="fill" to="#808080" begin="arrowRight.mouseover" end="arrowRight.mouseout"/>
                  </use>
                  <path fill="none" stroke="white" stroke-width="1.5" d="M0,-3.0v7 M-2.5,-0.5L0,-3.0L2.5,-0.5"/>
                </g>
                <g id="arrowDown" xlink:href="#dirArrow" transform="rotate(180) translate(-30 -48)" onmousedown="handlePan(0,1)">
                  <use xlink:href="#rim" fill="#404040">
                        <set attributeName="fill" to="#808080" begin="arrowDown.mouseover" end="arrowDown.mouseout"/>
                  </use>
                  <path fill="none" stroke="white" stroke-width="1.5" d="M0,-3.0v7 M-2.5,-0.5L0,-3.0L2.5,-0.5"/>
                </g>
                <g id="arrowLeft" xlink:href="#dirArrow" transform="rotate(270) translate(-36 17)" onmousedown="handlePan(-1,0)">
                  <use xlink:href="#rim" fill="#404040">
                        <set attributeName="fill" to="#808080" begin="arrowLeft.mouseover" end="arrowLeft.mouseout"/>
                  </use>
                  <path fill="none" stroke="white" stroke-width="1.5" d="M0,-3.0v7 M-2.5,-0.5L0,-3.0L2.5,-0.5"/>
                </g>
        </g>
        <svg viewBox="0 0 15 15" width="100%" height="30px" preserveAspectRatio="xMaxYMin meet">
         <g id="arrow_out" transform="scale(0.3 0.3)">
          <a xlink:href="lifter_8c_aa62603df4d54dff2d7fd472d699e9b2e_cgraph_org.svg" target="_base">
           <rect id="button" ry="5" rx="5" y="6" x="6" height="38" width="38"
                fill="#f2f5e9" fill-opacity="0.5" stroke="#606060" stroke-width="1.0"/>
           <path id="arrow"
             d="M 11.500037,31.436501 C 11.940474,20.09759 22.043105,11.32322 32.158766,21.979434 L 37.068811,17.246167 C 37.068811,17.246167 37.088388,32 37.088388,32 L 22.160133,31.978069 C 22.160133,31.978069 26.997745,27.140456 26.997745,27.140456 C 18.528582,18.264221 13.291696,25.230495 11.500037,31.436501 z"
             style="fill:#404040;"/>
          </a>
         </g>
        </svg>
</svg>
