<?xml version="1.0" encoding="UTF-8" standalone="no"?>
<!DOCTYPE svg PUBLIC "-//W3C//DTD SVG 1.1//EN"
 "http://www.w3.org/Graphics/SVG/1.1/DTD/svg11.dtd">
<!-- Generated by graphviz version 2.40.1 (20161225.0304)
 -->
<!-- Title: update_lifter Pages: 1 -->
<svg width="734pt" height="296pt"
 viewBox="0.00 0.00 733.68 295.95" xmlns="http://www.w3.org/2000/svg" xmlns:xlink="http://www.w3.org/1999/xlink">
<g id="graph0" class="graph" transform="scale(1 1) rotate(0) translate(4 291.9457)">
<title>update_lifter</title>
<!-- Node256 -->
<g id="node1" class="node">
<title>Node256</title>
<polygon fill="#bfbfbf" stroke="#000000" points="0,-140.5 0,-158.5 71.0391,-158.5 71.0391,-140.5 0,-140.5"/>
<text text-anchor="middle" x="35.5195" y="-146.5" font-family="Helvetica,sans-Serif" font-size="10.00" fill="#000000">update_lifter</text>
</g>
<!-- Node257 -->
<g id="node2" class="node">
<title>Node257</title>
<g id="a_node2"><a xlink:href="_a_p_i_8h.html#a5da86064604c539c2b6a5e2993289108" target="_top" xlink:title="Reads an analog input channel and returns the 12&#45;bit value. ">
<polygon fill="none" stroke="#000000" points="289.3857,-121.5 289.3857,-139.5 359.3213,-139.5 359.3213,-121.5 289.3857,-121.5"/>
<text text-anchor="middle" x="324.3535" y="-127.5" font-family="Helvetica,sans-Serif" font-size="10.00" fill="#000000">analogRead</text>
</a>
</g>
</g>
<!-- Node256&#45;&gt;Node257 -->
<g id="edge1" class="edge">
<title>Node256&#45;&gt;Node257</title>
<path fill="none" stroke="#191970" d="M71.2259,-147.1512C123.6569,-143.7022 221.4633,-137.2683 278.9376,-133.4875"/>
<polygon fill="#191970" stroke="#191970" points="279.4313,-136.9627 289.1799,-132.8138 278.9717,-129.9778 279.4313,-136.9627"/>
</g>
<!-- Node258 -->
<g id="node3" class="node">
<title>Node258</title>
<g id="a_node3"><a xlink:href="lifter_8c.html#adfb6207ee1f20953058c8de81ec3386a" target="_top" xlink:title="main_lifter_update">
<polygon fill="none" stroke="#000000" points="119.2705,-159.5 119.2705,-177.5 217.5459,-177.5 217.5459,-159.5 119.2705,-159.5"/>
<text text-anchor="middle" x="168.4082" y="-165.5" font-family="Helvetica,sans-Serif" font-size="10.00" fill="#000000">main_lifter_update</text>
</a>
</g>
</g>
<!-- Node256&#45;&gt;Node258 -->
<g id="edge2" class="edge">
<title>Node256&#45;&gt;Node258</title>
<path fill="none" stroke="#191970" d="M71.1313,-154.5917C82.7788,-156.257 96.0505,-158.1545 108.9654,-160.0011"/>
<polygon fill="#191970" stroke="#191970" points="108.8138,-163.5149 119.2086,-161.4656 109.8047,-156.5854 108.8138,-163.5149"/>
</g>
<!-- Node261 -->
<g id="node6" class="node">
<title>Node261</title>
<g id="a_node6"><a xlink:href="_a_p_i_8h.html#a403c82418e475fa4a8273719e6a7f3e6" target="_top" xlink:title="Prints the formatted string to the debug stream (the PC terminal). ">
<polygon fill="none" stroke="#000000" points="687.4512,-120.5 687.4512,-138.5 725.6826,-138.5 725.6826,-120.5 687.4512,-120.5"/>
<text text-anchor="middle" x="706.5669" y="-126.5" font-family="Helvetica,sans-Serif" font-size="10.00" fill="#000000">printf</text>
</a>
</g>
</g>
<!-- Node256&#45;&gt;Node261 -->
<g id="edge18" class="edge">
<title>Node256&#45;&gt;Node261</title>
<path fill="none" stroke="#191970" d="M46.5305,-158.6413C83.3319,-188.2321 206.4004,-279.5 324.3535,-279.5 324.3535,-279.5 324.3535,-279.5 475.0059,-279.5 553.8793,-279.5 588.1828,-307.5971 651.4512,-260.5 687.62,-233.5759 700.2365,-178.3379 704.4954,-148.9285"/>
<polygon fill="#191970" stroke="#191970" points="708.0054,-149.0684 705.7851,-138.7088 701.0605,-148.1918 708.0054,-149.0684"/>
</g>
<!-- Node279 -->
<g id="node17" class="node">
<title>Node279</title>
<g id="a_node17"><a xlink:href="lifter_8c.html#ac59fe6ffc80bab7f117ec0a8e482277b" target="_top" xlink:title="secondary_lifter_update">
<polygon fill="none" stroke="#000000" points="107.0391,-83.5 107.0391,-101.5 229.7773,-101.5 229.7773,-83.5 107.0391,-83.5"/>
<text text-anchor="middle" x="168.4082" y="-89.5" font-family="Helvetica,sans-Serif" font-size="10.00" fill="#000000">secondary_lifter_update</text>
</a>
</g>
</g>
<!-- Node256&#45;&gt;Node279 -->
<g id="edge19" class="edge">
<title>Node256&#45;&gt;Node279</title>
<path fill="none" stroke="#191970" d="M54.5057,-140.365C68.8398,-133.5599 89.0475,-124.1608 107.0391,-116.5 116.0056,-112.6821 125.8002,-108.7475 134.8788,-105.1967"/>
<polygon fill="#191970" stroke="#191970" points="136.3154,-108.3937 144.3761,-101.518 133.787,-101.8663 136.3154,-108.3937"/>
</g>
<!-- Node258&#45;&gt;Node257 -->
<g id="edge3" class="edge">
<title>Node258&#45;&gt;Node257</title>
<path fill="none" stroke="#191970" d="M205.3651,-159.4945C227.5895,-154.079 256.0288,-147.149 279.5308,-141.4222"/>
<polygon fill="#191970" stroke="#191970" points="280.3812,-144.8175 289.2683,-139.0494 278.7239,-138.0165 280.3812,-144.8175"/>
</g>
<!-- Node259 -->
<g id="node4" class="node">
<title>Node259</title>
<g id="a_node4"><a xlink:href="log_8h.html#a8e5bb8a2a372f5b066ff7af7044584c1" target="_top" xlink:title="prints a error message and displays on lcd. ">
<polygon fill="none" stroke="#000000" points="305.7969,-195.5 305.7969,-213.5 342.9102,-213.5 342.9102,-195.5 305.7969,-195.5"/>
<text text-anchor="middle" x="324.3535" y="-201.5" font-family="Helvetica,sans-Serif" font-size="10.00" fill="#000000">error</text>
</a>
</g>
</g>
<!-- Node258&#45;&gt;Node259 -->
<g id="edge4" class="edge">
<title>Node258&#45;&gt;Node259</title>
<path fill="none" stroke="#191970" d="M207.7598,-177.5843C235.2347,-183.9269 271.2686,-192.2453 295.9632,-197.9461"/>
<polygon fill="#191970" stroke="#191970" points="295.2633,-201.3765 305.7943,-200.2156 296.8379,-194.5559 295.2633,-201.3765"/>
</g>
<!-- Node265 -->
<g id="node10" class="node">
<title>Node265</title>
<g id="a_node10"><a xlink:href="_a_p_i_8h.html#a792f1a80c62a63e764cf64aabf95db92" target="_top" xlink:title="Gets the value of a button on the VEX joystick. ">
<polygon fill="none" stroke="#000000" points="278.0088,-84.5 278.0088,-102.5 370.6982,-102.5 370.6982,-84.5 278.0088,-84.5"/>
<text text-anchor="middle" x="324.3535" y="-90.5" font-family="Helvetica,sans-Serif" font-size="10.00" fill="#000000">joystickGetDigital</text>
</a>
</g>
</g>
<!-- Node258&#45;&gt;Node265 -->
<g id="edge10" class="edge">
<title>Node258&#45;&gt;Node265</title>
<path fill="none" stroke="#191970" d="M182.1155,-159.3875C200.5387,-147.4311 234.5864,-126.3466 265.7773,-112.5 271.1608,-110.1101 276.9401,-107.8689 282.6955,-105.823"/>
<polygon fill="#191970" stroke="#191970" points="283.9377,-109.0977 292.2848,-102.5727 281.6905,-102.4682 283.9377,-109.0977"/>
</g>
<!-- Node266 -->
<g id="node11" class="node">
<title>Node266</title>
<g id="a_node11"><a xlink:href="lifter_8c.html#ad00a195af30f246924d6e1a30095b882" target="_top" xlink:title="Sets the main lifter motors to the given value. ">
<polygon fill="none" stroke="#000000" points="265.7773,-158.5 265.7773,-176.5 382.9297,-176.5 382.9297,-158.5 265.7773,-158.5"/>
<text text-anchor="middle" x="324.3535" y="-164.5" font-family="Helvetica,sans-Serif" font-size="10.00" fill="#000000">set_main_lifter_motors</text>
</a>
</g>
</g>
<!-- Node258&#45;&gt;Node266 -->
<g id="edge11" class="edge">
<title>Node258&#45;&gt;Node266</title>
<path fill="none" stroke="#191970" d="M217.7503,-168.1836C229.72,-168.1068 242.735,-168.0234 255.4261,-167.942"/>
<polygon fill="#191970" stroke="#191970" points="255.5311,-171.4415 265.5084,-167.8773 255.4861,-164.4416 255.5311,-171.4415"/>
</g>
<!-- Node278 -->
<g id="node16" class="node">
<title>Node278</title>
<g id="a_node16"><a xlink:href="_a_p_i_8h.html#a435d7fc1c3c3da80ed64cf9dfed0bd42" target="_top" xlink:title="Gets the current ultrasonic sensor value in centimeters. ">
<polygon fill="none" stroke="#000000" points="286.8955,-232.5 286.8955,-250.5 361.8115,-250.5 361.8115,-232.5 286.8955,-232.5"/>
<text text-anchor="middle" x="324.3535" y="-238.5" font-family="Helvetica,sans-Serif" font-size="10.00" fill="#000000">ultrasonicGet</text>
</a>
</g>
</g>
<!-- Node258&#45;&gt;Node278 -->
<g id="edge17" class="edge">
<title>Node258&#45;&gt;Node278</title>
<path fill="none" stroke="#191970" d="M182.1092,-177.5027C200.5255,-189.3041 234.5656,-210.0767 265.7773,-223.5 270.5418,-225.5491 275.6159,-227.4705 280.7088,-229.2385"/>
<polygon fill="#191970" stroke="#191970" points="279.8567,-232.6427 290.4497,-232.4428 282.0442,-225.9932 279.8567,-232.6427"/>
</g>
<!-- Node260 -->
<g id="node5" class="node">
<title>Node260</title>
<g id="a_node5"><a xlink:href="log_8c.html#afff22aff6749311a684a559cac3ac8bd" target="_top" xlink:title="prints a log info message to the lcd ">
<polygon fill="none" stroke="#000000" points="449.4912,-195.5 449.4912,-213.5 500.5205,-213.5 500.5205,-195.5 449.4912,-195.5"/>
<text text-anchor="middle" x="475.0059" y="-201.5" font-family="Helvetica,sans-Serif" font-size="10.00" fill="#000000">log_info</text>
</a>
</g>
</g>
<!-- Node259&#45;&gt;Node260 -->
<g id="edge5" class="edge">
<title>Node259&#45;&gt;Node260</title>
<path fill="none" stroke="#191970" d="M343.1291,-204.5C367.1188,-204.5 409.1423,-204.5 439.3094,-204.5"/>
<polygon fill="#191970" stroke="#191970" points="439.4365,-208.0001 449.4364,-204.5 439.4364,-201.0001 439.4365,-208.0001"/>
</g>
<!-- Node260&#45;&gt;Node261 -->
<g id="edge6" class="edge">
<title>Node260&#45;&gt;Node261</title>
<path fill="none" stroke="#191970" d="M486.7396,-195.3758C503.529,-182.834 535.8403,-160.5666 567.082,-149.5 603.4787,-136.6074 648.0172,-132.01 676.8225,-130.3799"/>
<polygon fill="#191970" stroke="#191970" points="677.2216,-133.8648 687.0423,-129.8893 676.8859,-126.8729 677.2216,-133.8648"/>
</g>
<!-- Node262 -->
<g id="node7" class="node">
<title>Node262</title>
<g id="a_node7"><a xlink:href="_a_p_i_8h.html#aab53a247d88151a6623c20fa1ea940b0" target="_top" xlink:title="Sets the specified LCD backlight to be on or off. ">
<polygon fill="none" stroke="#000000" points="567.082,-232.5 567.082,-250.5 651.4512,-250.5 651.4512,-232.5 567.082,-232.5"/>
<text text-anchor="middle" x="609.2666" y="-238.5" font-family="Helvetica,sans-Serif" font-size="10.00" fill="#000000">lcdSetBacklight</text>
</a>
</g>
</g>
<!-- Node260&#45;&gt;Node262 -->
<g id="edge7" class="edge">
<title>Node260&#45;&gt;Node262</title>
<path fill="none" stroke="#191970" d="M500.5753,-211.5465C519.1812,-216.674 544.8094,-223.7367 566.5073,-229.7163"/>
<polygon fill="#191970" stroke="#191970" points="565.5901,-233.0939 576.1607,-232.3766 567.4499,-226.3455 565.5901,-233.0939"/>
</g>
<!-- Node263 -->
<g id="node8" class="node">
<title>Node263</title>
<g id="a_node8"><a xlink:href="_a_p_i_8h.html#a5fa1d119fe3e836b5519f97eae7a1272" target="_top" xlink:title="Clears the LCD screen on the specified port. ">
<polygon fill="none" stroke="#000000" points="582.9268,-195.5 582.9268,-213.5 635.6064,-213.5 635.6064,-195.5 582.9268,-195.5"/>
<text text-anchor="middle" x="609.2666" y="-201.5" font-family="Helvetica,sans-Serif" font-size="10.00" fill="#000000">lcdClear</text>
</a>
</g>
</g>
<!-- Node260&#45;&gt;Node263 -->
<g id="edge8" class="edge">
<title>Node260&#45;&gt;Node263</title>
<path fill="none" stroke="#191970" d="M500.5753,-204.5C521.0286,-204.5 549.968,-204.5 572.8435,-204.5"/>
<polygon fill="#191970" stroke="#191970" points="572.875,-208.0001 582.8749,-204.5 572.8749,-201.0001 572.875,-208.0001"/>
</g>
<!-- Node264 -->
<g id="node9" class="node">
<title>Node264</title>
<g id="a_node9"><a xlink:href="_a_p_i_8h.html#a6cfad8271c6a566a2f51ca318f819a80" target="_top" xlink:title="Prints the formatted string to the attached LCD. ">
<polygon fill="none" stroke="#000000" points="584.5942,-158.5 584.5942,-176.5 633.939,-176.5 633.939,-158.5 584.5942,-158.5"/>
<text text-anchor="middle" x="609.2666" y="-164.5" font-family="Helvetica,sans-Serif" font-size="10.00" fill="#000000">lcdPrint</text>
</a>
</g>
</g>
<!-- Node260&#45;&gt;Node264 -->
<g id="edge9" class="edge">
<title>Node260&#45;&gt;Node264</title>
<path fill="none" stroke="#191970" d="M500.5753,-197.4535C521.5184,-191.6819 551.3588,-183.4584 574.4763,-177.0876"/>
<polygon fill="#191970" stroke="#191970" points="575.5361,-180.4261 584.2468,-174.395 573.6763,-173.6777 575.5361,-180.4261"/>
</g>
<!-- Node267 -->
<g id="node12" class="node">
<title>Node267</title>
<g id="a_node12"><a xlink:href="slew_8h.html#a7dff2b79dffe55fb936d977594d7c01d" target="_top" xlink:title="Sets motor speed wrapped inside the slew rate controller. ">
<polygon fill="none" stroke="#ff0000" points="431.9912,-80.5 431.9912,-98.5 518.0205,-98.5 518.0205,-80.5 431.9912,-80.5"/>
<text text-anchor="middle" x="475.0059" y="-86.5" font-family="Helvetica,sans-Serif" font-size="10.00" fill="#000000">set_motor_slew</text>
</a>
</g>
</g>
<!-- Node266&#45;&gt;Node267 -->
<g id="edge12" class="edge">
<title>Node266&#45;&gt;Node267</title>
<path fill="none" stroke="#191970" d="M359.3377,-158.4999C367.2551,-155.9854 375.5105,-152.9731 382.9297,-149.5 409.5114,-137.0563 437.3937,-117.903 455.4156,-104.5966"/>
<polygon fill="#191970" stroke="#191970" points="457.5238,-107.3905 463.4218,-98.5891 453.3225,-101.7915 457.5238,-107.3905"/>
</g>
<!-- Node268 -->
<g id="node13" class="node">
<title>Node268</title>
<g id="a_node13"><a xlink:href="log_8h.html#af3668f40d1ad1b4f3418869ac9a31f34" target="_top" xlink:title="prints a info message ">
<polygon fill="none" stroke="#000000" points="587.3628,-8.5 587.3628,-26.5 631.1704,-26.5 631.1704,-8.5 587.3628,-8.5"/>
<text text-anchor="middle" x="609.2666" y="-14.5" font-family="Helvetica,sans-Serif" font-size="10.00" fill="#000000">debug</text>
</a>
</g>
</g>
<!-- Node267&#45;&gt;Node268 -->
<g id="edge13" class="edge">
<title>Node267&#45;&gt;Node268</title>
<path fill="none" stroke="#191970" d="M509.6005,-80.47C516.9695,-77.8195 524.5056,-74.523 531.082,-70.5 550.1181,-58.8551 548.506,-47.8655 567.082,-35.5 570.4169,-33.2801 574.0703,-31.2375 577.7883,-29.3883"/>
<polygon fill="#191970" stroke="#191970" points="579.3591,-32.519 587.0185,-25.199 576.466,-26.1448 579.3591,-32.519"/>
</g>
<!-- Node269 -->
<g id="node14" class="node">
<title>Node269</title>
<g id="a_node14"><a xlink:href="slew_8c.html#a321758941d88b75783955c819bb75005" target="_top" xlink:title="Initializes the slew rate controller. ">
<polygon fill="none" stroke="#ff0000" points="582.0918,-82.5 582.0918,-100.5 636.4414,-100.5 636.4414,-82.5 582.0918,-82.5"/>
<text text-anchor="middle" x="609.2666" y="-88.5" font-family="Helvetica,sans-Serif" font-size="10.00" fill="#000000">init_slew</text>
</a>
</g>
</g>
<!-- Node267&#45;&gt;Node269 -->
<g id="edge15" class="edge">
<title>Node267&#45;&gt;Node269</title>
<path fill="none" stroke="#191970" d="M518.2258,-90.1438C535.3301,-90.3986 554.8164,-90.6889 571.3604,-90.9353"/>
<polygon fill="#191970" stroke="#191970" points="571.7016,-94.4407 581.7527,-91.0901 571.8059,-87.4415 571.7016,-94.4407"/>
</g>
<!-- Node276 -->
<g id="node15" class="node">
<title>Node276</title>
<g id="a_node15"><a xlink:href="_a_p_i_8h.html#afe171a08d22de18fc2ab604b2364959f" target="_top" xlink:title="Relinquishes a mutex so that other tasks can use the resource it guards. ">
<polygon fill="none" stroke="#000000" points="577.3701,-45.5 577.3701,-63.5 641.1631,-63.5 641.1631,-45.5 577.3701,-45.5"/>
<text text-anchor="middle" x="609.2666" y="-51.5" font-family="Helvetica,sans-Serif" font-size="10.00" fill="#000000">mutexGive</text>
</a>
</g>
</g>
<!-- Node267&#45;&gt;Node276 -->
<g id="edge16" class="edge">
<title>Node267&#45;&gt;Node276</title>
<path fill="none" stroke="#191970" d="M509.5813,-80.4866C527.2318,-75.8854 548.8439,-70.2514 567.4275,-65.4069"/>
<polygon fill="#191970" stroke="#191970" points="568.3195,-68.7914 577.1131,-62.882 566.5536,-62.0178 568.3195,-68.7914"/>
</g>
<!-- Node268&#45;&gt;Node261 -->
<g id="edge14" class="edge">
<title>Node268&#45;&gt;Node261</title>
<path fill="none" stroke="#191970" d="M631.3803,-23.8852C638.3474,-26.6547 645.7139,-30.4487 651.4512,-35.5 675.15,-56.365 691.3749,-89.98 699.7978,-110.8504"/>
<polygon fill="#191970" stroke="#191970" points="696.6382,-112.386 703.4895,-120.4675 703.1732,-109.8774 696.6382,-112.386"/>
</g>
<!-- Node279&#45;&gt;Node257 -->
<g id="edge20" class="edge">
<title>Node279&#45;&gt;Node257</title>
<path fill="none" stroke="#191970" d="M205.3651,-101.5055C227.5895,-106.921 256.0288,-113.851 279.5308,-119.5778"/>
<polygon fill="#191970" stroke="#191970" points="278.7239,-122.9835 289.2683,-121.9506 280.3812,-116.1825 278.7239,-122.9835"/>
</g>
<!-- Node279&#45;&gt;Node265 -->
<g id="edge26" class="edge">
<title>Node279&#45;&gt;Node265</title>
<path fill="none" stroke="#191970" d="M230.0419,-92.8952C242.4132,-92.9746 255.359,-93.0576 267.5567,-93.1358"/>
<polygon fill="#191970" stroke="#191970" points="267.5755,-96.6359 277.5978,-93.2002 267.6205,-89.636 267.5755,-96.6359"/>
</g>
<!-- Node280 -->
<g id="node18" class="node">
<title>Node280</title>
<g id="a_node18"><a xlink:href="claw_8h.html#a3a6168bf4e2042115dd32542f1f6a2f5" target="_top" xlink:title="Drives the motors to open the claw. ">
<polygon fill="none" stroke="#000000" points="279.9399,-.5 279.9399,-18.5 368.7671,-18.5 368.7671,-.5 279.9399,-.5"/>
<text text-anchor="middle" x="324.3535" y="-6.5" font-family="Helvetica,sans-Serif" font-size="10.00" fill="#000000">claw_grab_cone</text>
</a>
</g>
</g>
<!-- Node279&#45;&gt;Node280 -->
<g id="edge21" class="edge">
<title>Node279&#45;&gt;Node280</title>
<path fill="none" stroke="#191970" d="M179.7362,-83.3242C197.246,-69.5274 232.3628,-43.369 265.7773,-27.5 270.1139,-25.4405 274.7417,-23.5478 279.4232,-21.827"/>
<polygon fill="#191970" stroke="#191970" points="280.7046,-25.0879 289.0323,-18.5382 278.4377,-18.4651 280.7046,-25.0879"/>
</g>
<!-- Node282 -->
<g id="node20" class="node">
<title>Node282</title>
<g id="a_node20"><a xlink:href="lifter_8c.html#a78640d547d9361951a92d0bc00939536" target="_top" xlink:title="Sets the secondary lifter motors to the given value. ">
<polygon fill="none" stroke="#000000" points="271.6074,-37.5 271.6074,-65.5 377.0996,-65.5 377.0996,-37.5 271.6074,-37.5"/>
<text text-anchor="start" x="279.6074" y="-53.5" font-family="Helvetica,sans-Serif" font-size="10.00" fill="#000000">set_secondary_lifter</text>
<text text-anchor="middle" x="324.3535" y="-43.5" font-family="Helvetica,sans-Serif" font-size="10.00" fill="#000000">_motors</text>
</a>
</g>
</g>
<!-- Node279&#45;&gt;Node282 -->
<g id="edge27" class="edge">
<title>Node279&#45;&gt;Node282</title>
<path fill="none" stroke="#191970" d="M203.0175,-83.4008C220.2909,-78.8594 241.7274,-73.2235 261.7548,-67.958"/>
<polygon fill="#191970" stroke="#191970" points="262.6674,-71.3371 271.4488,-65.4093 260.8875,-64.5672 262.6674,-71.3371"/>
</g>
<!-- Node281 -->
<g id="node19" class="node">
<title>Node281</title>
<g id="a_node19"><a xlink:href="slew_8h.html#a9f8b8ae577ef938622024545711f0151" target="_top" xlink:title="Sets the motor speed ignoring the slew controller. ">
<polygon fill="none" stroke="#ff0000" points="418.9297,-42.5 418.9297,-60.5 531.082,-60.5 531.082,-42.5 418.9297,-42.5"/>
<text text-anchor="middle" x="475.0059" y="-48.5" font-family="Helvetica,sans-Serif" font-size="10.00" fill="#000000">set_motor_immediate</text>
</a>
</g>
</g>
<!-- Node280&#45;&gt;Node281 -->
<g id="edge22" class="edge">
<title>Node280&#45;&gt;Node281</title>
<path fill="none" stroke="#191970" d="M356.6722,-18.5101C378.838,-24.6896 408.4756,-32.9522 432.5447,-39.6624"/>
<polygon fill="#191970" stroke="#191970" points="431.9084,-43.1184 442.481,-42.4325 433.7883,-36.3755 431.9084,-43.1184"/>
</g>
<!-- Node281&#45;&gt;Node268 -->
<g id="edge23" class="edge">
<title>Node281&#45;&gt;Node268</title>
<path fill="none" stroke="#191970" d="M510.6328,-42.4779C531.2731,-37.251 557.052,-30.7227 577.0785,-25.6513"/>
<polygon fill="#191970" stroke="#191970" points="578.1343,-28.9945 586.969,-23.1466 576.4158,-22.2087 578.1343,-28.9945"/>
</g>
<!-- Node281&#45;&gt;Node269 -->
<g id="edge24" class="edge">
<title>Node281&#45;&gt;Node269</title>
<path fill="none" stroke="#191970" d="M505.4717,-60.5766C525.1523,-66.44 550.8975,-74.1102 571.8234,-80.3446"/>
<polygon fill="#191970" stroke="#191970" points="571.0782,-83.7746 581.6613,-83.2756 573.0769,-77.066 571.0782,-83.7746"/>
</g>
<!-- Node281&#45;&gt;Node276 -->
<g id="edge25" class="edge">
<title>Node281&#45;&gt;Node276</title>
<path fill="none" stroke="#191970" d="M531.1666,-52.7549C543.16,-53.0229 555.6336,-53.3016 566.9997,-53.5556"/>
<polygon fill="#191970" stroke="#191970" points="567.0054,-57.0565 577.0811,-53.7808 567.1618,-50.0582 567.0054,-57.0565"/>
</g>
<!-- Node282&#45;&gt;Node281 -->
<g id="edge28" class="edge">
<title>Node282&#45;&gt;Node281</title>
<path fill="none" stroke="#191970" d="M377.4679,-51.5C387.5065,-51.5 398.1232,-51.5 408.5126,-51.5"/>
<polygon fill="#191970" stroke="#191970" points="408.7964,-55.0001 418.7964,-51.5 408.7963,-48.0001 408.7964,-55.0001"/>
</g>
</g>
</svg>
