<?xml version="1.0" encoding="UTF-8" standalone="no"?>
<!DOCTYPE svg PUBLIC "-//W3C//DTD SVG 1.1//EN"
 "http://www.w3.org/Graphics/SVG/1.1/DTD/svg11.dtd">
<!-- Generated by graphviz version 2.40.1 (20161225.0304)
 -->
<!-- Title: set_secondary_lifter_motors Pages: 1 -->
<svg width="540pt" height="290pt"
 viewBox="0.00 0.00 540.21 290.00" xmlns="http://www.w3.org/2000/svg" xmlns:xlink="http://www.w3.org/1999/xlink">
<g id="graph0" class="graph" transform="scale(1 1) rotate(0) translate(4 286)">
<title>set_secondary_lifter_motors</title>
<!-- Node245 -->
<g id="node1" class="node">
<title>Node245</title>
<polygon fill="#bfbfbf" stroke="#000000" points="0,-125.5 0,-153.5 105.4922,-153.5 105.4922,-125.5 0,-125.5"/>
<text text-anchor="start" x="8" y="-141.5" font-family="Helvetica,sans-Serif" font-size="10.00" fill="#000000">set_secondary_lifter</text>
<text text-anchor="middle" x="52.7461" y="-131.5" font-family="Helvetica,sans-Serif" font-size="10.00" fill="#000000">_motors</text>
</g>
<!-- Node246 -->
<g id="node2" class="node">
<title>Node246</title>
<g id="a_node2"><a xlink:href="auto_8c.html#a55085901854f29969753bfd62c70049c" target="_top" xlink:title="utility function which raises the second lifter to its maximum height ">
<polygon fill="none" stroke="#000000" points="141.4922,-263.5 141.4922,-281.5 279.7822,-281.5 279.7822,-263.5 141.4922,-263.5"/>
<text text-anchor="middle" x="210.6372" y="-269.5" font-family="Helvetica,sans-Serif" font-size="10.00" fill="#000000">auton_raise_sec_lifter_max</text>
</a>
</g>
</g>
<!-- Node245&#45;&gt;Node246 -->
<g id="edge1" class="edge">
<title>Node245&#45;&gt;Node246</title>
<path fill="none" stroke="#191970" d="M65.931,-162.3052C81.1985,-186.8353 108.5216,-225.4181 141.4922,-248.5 150.7567,-254.9858 161.9367,-259.8627 172.5805,-263.4655"/>
<polygon fill="#191970" stroke="#191970" points="68.862,-160.3884 60.6833,-153.6535 62.8769,-164.0188 68.862,-160.3884"/>
</g>
<!-- Node247 -->
<g id="node3" class="node">
<title>Node247</title>
<g id="a_node3"><a xlink:href="auto_8c.html#a3c7ca506bbc071fa740de13805b7f376" target="_top" xlink:title="Runs the user autonomous code. ">
<polygon fill="none" stroke="#000000" points="327.7329,-225.5 327.7329,-243.5 398.772,-243.5 398.772,-225.5 327.7329,-225.5"/>
<text text-anchor="middle" x="363.2524" y="-231.5" font-family="Helvetica,sans-Serif" font-size="10.00" fill="#000000">autonomous</text>
</a>
</g>
</g>
<!-- Node245&#45;&gt;Node247 -->
<g id="edge3" class="edge">
<title>Node245&#45;&gt;Node247</title>
<path fill="none" stroke="#191970" d="M71.0663,-161.4324C87.4796,-179.3824 113.2626,-203.6702 141.4922,-215.5 202.9684,-241.2621 282.2848,-240.9326 327.486,-237.9768"/>
<polygon fill="#191970" stroke="#191970" points="73.4623,-158.8591 64.2092,-153.6986 68.2246,-163.5031 73.4623,-158.8591"/>
</g>
<!-- Node248 -->
<g id="node4" class="node">
<title>Node248</title>
<g id="a_node4"><a xlink:href="lifter_8c.html#a8a64fa88b389b39c236c5c57a7fb5c67" target="_top" xlink:title="Autostacks a cone once picked up. ">
<polygon fill="none" stroke="#000000" points="315.7822,-56.5 315.7822,-74.5 410.7227,-74.5 410.7227,-56.5 315.7822,-56.5"/>
<text text-anchor="middle" x="363.2524" y="-62.5" font-family="Helvetica,sans-Serif" font-size="10.00" fill="#000000">autostack_routine</text>
</a>
</g>
</g>
<!-- Node245&#45;&gt;Node248 -->
<g id="edge4" class="edge">
<title>Node245&#45;&gt;Node248</title>
<path fill="none" stroke="#191970" d="M115.5911,-151.1874C162.4117,-157.1529 227.0811,-159.4974 279.7822,-139.5 314.5468,-126.3086 344.1165,-91.2793 356.7286,-74.5891"/>
<polygon fill="#191970" stroke="#191970" points="115.966,-147.7062 105.5848,-149.8232 115.0203,-154.6421 115.966,-147.7062"/>
</g>
<!-- Node250 -->
<g id="node6" class="node">
<title>Node250</title>
<g id="a_node6"><a xlink:href="auto_8c.html#a64bd65456b81f16eb4ff67237159f984" target="_top" xlink:title="utility function which deploys the secondary lifter at the start of autonomous. ">
<polygon fill="none" stroke="#000000" points="149.8271,-187.5 149.8271,-205.5 271.4473,-205.5 271.4473,-187.5 149.8271,-187.5"/>
<text text-anchor="middle" x="210.6372" y="-193.5" font-family="Helvetica,sans-Serif" font-size="10.00" fill="#000000">deploy_seoncdary_lifter</text>
</a>
</g>
</g>
<!-- Node245&#45;&gt;Node250 -->
<g id="edge6" class="edge">
<title>Node245&#45;&gt;Node250</title>
<path fill="none" stroke="#191970" d="M99.7871,-157.2106C113.2355,-162.2145 127.924,-167.6233 141.4922,-172.5 155.483,-177.5286 171.1282,-182.9738 183.9932,-187.4045"/>
<polygon fill="#191970" stroke="#191970" points="100.8402,-153.8679 90.2475,-153.652 98.3936,-160.4264 100.8402,-153.8679"/>
</g>
<!-- Node251 -->
<g id="node7" class="node">
<title>Node251</title>
<g id="a_node7"><a xlink:href="lifter_8c.html#af76abbd394bf206ab56fa237d776f2b3" target="_top" xlink:title="Lowers the secondary lifter. ">
<polygon fill="none" stroke="#000000" points="152.6128,-111.5 152.6128,-129.5 268.6616,-129.5 268.6616,-111.5 152.6128,-111.5"/>
<text text-anchor="middle" x="210.6372" y="-117.5" font-family="Helvetica,sans-Serif" font-size="10.00" fill="#000000">lower_secondary_lifter</text>
</a>
</g>
</g>
<!-- Node245&#45;&gt;Node251 -->
<g id="edge8" class="edge">
<title>Node245&#45;&gt;Node251</title>
<path fill="none" stroke="#191970" d="M115.8142,-131.9106C127.9609,-130.4489 140.6306,-128.9243 152.608,-127.483"/>
<polygon fill="#191970" stroke="#191970" points="115.271,-128.4507 105.7608,-133.1204 116.1073,-135.4005 115.271,-128.4507"/>
</g>
<!-- Node252 -->
<g id="node8" class="node">
<title>Node252</title>
<g id="a_node8"><a xlink:href="lifter_8c.html#aa4d172cbde795bc13fe6baabd074717e" target="_top" xlink:title="quit_auto_static">
<polygon fill="none" stroke="#000000" points="167.6128,-74.5 167.6128,-92.5 253.6616,-92.5 253.6616,-74.5 167.6128,-74.5"/>
<text text-anchor="middle" x="210.6372" y="-80.5" font-family="Helvetica,sans-Serif" font-size="10.00" fill="#000000">quit_auto_static</text>
</a>
</g>
</g>
<!-- Node245&#45;&gt;Node252 -->
<g id="edge9" class="edge">
<title>Node245&#45;&gt;Node252</title>
<path fill="none" stroke="#191970" d="M93.4641,-121.2503C108.4091,-114.8916 125.5669,-107.983 141.4922,-102.5 152.0862,-98.8525 163.7774,-95.4213 174.4849,-92.5052"/>
<polygon fill="#191970" stroke="#191970" points="91.7967,-118.1576 83.9978,-125.3289 94.5666,-124.5863 91.7967,-118.1576"/>
</g>
<!-- Node253 -->
<g id="node9" class="node">
<title>Node253</title>
<g id="a_node9"><a xlink:href="lifter_8c.html#a786f679ea48bb8c80e00fbac9a69911b" target="_top" xlink:title="Raises the main lifter. ">
<polygon fill="none" stroke="#000000" points="153.7236,-37.5 153.7236,-55.5 267.5508,-55.5 267.5508,-37.5 153.7236,-37.5"/>
<text text-anchor="middle" x="210.6372" y="-43.5" font-family="Helvetica,sans-Serif" font-size="10.00" fill="#000000">raise_secondary_lifter</text>
</a>
</g>
</g>
<!-- Node245&#45;&gt;Node253 -->
<g id="edge11" class="edge">
<title>Node245&#45;&gt;Node253</title>
<path fill="none" stroke="#191970" d="M72.9526,-118.2493C89.8288,-101.6602 115.2821,-79.1987 141.4922,-65.5 149.3258,-61.4058 158.1328,-58.1211 166.7707,-55.5118"/>
<polygon fill="#191970" stroke="#191970" points="70.4038,-115.8486 65.8303,-125.4055 75.3653,-120.7866 70.4038,-115.8486"/>
</g>
<!-- Node254 -->
<g id="node10" class="node">
<title>Node254</title>
<g id="a_node10"><a xlink:href="lifter_8c.html#ac59fe6ffc80bab7f117ec0a8e482277b" target="_top" xlink:title="secondary_lifter_update">
<polygon fill="none" stroke="#000000" points="149.2681,-.5 149.2681,-18.5 272.0063,-18.5 272.0063,-.5 149.2681,-.5"/>
<text text-anchor="middle" x="210.6372" y="-6.5" font-family="Helvetica,sans-Serif" font-size="10.00" fill="#000000">secondary_lifter_update</text>
</a>
</g>
</g>
<!-- Node245&#45;&gt;Node254 -->
<g id="edge13" class="edge">
<title>Node245&#45;&gt;Node254</title>
<path fill="none" stroke="#191970" d="M64.9607,-116.3687C79.6903,-90.7484 106.8466,-50.0848 141.4922,-27.5 147.1036,-23.842 153.4243,-20.9264 159.9053,-18.6026"/>
<polygon fill="#191970" stroke="#191970" points="61.7479,-114.9439 59.9342,-125.3823 67.8615,-118.3533 61.7479,-114.9439"/>
</g>
<!-- Node246&#45;&gt;Node247 -->
<g id="edge2" class="edge">
<title>Node246&#45;&gt;Node247</title>
<path fill="none" stroke="#191970" d="M256.5961,-261.0566C279.3628,-255.3879 306.4354,-248.647 327.6079,-243.3752"/>
<polygon fill="#191970" stroke="#191970" points="255.6629,-257.682 246.8049,-263.4945 257.3543,-264.4746 255.6629,-257.682"/>
</g>
<!-- Node249 -->
<g id="node5" class="node">
<title>Node249</title>
<g id="a_node5"><a xlink:href="opcontrol_8c.html#ac71a94af413917f27d108e95c4d6f6a7" target="_top" xlink:title="Runs the user operator control code. ">
<polygon fill="none" stroke="#000000" points="446.7227,-28.5 446.7227,-46.5 532.2051,-46.5 532.2051,-28.5 446.7227,-28.5"/>
<text text-anchor="middle" x="489.4639" y="-34.5" font-family="Helvetica,sans-Serif" font-size="10.00" fill="#000000">operatorControl</text>
</a>
</g>
</g>
<!-- Node248&#45;&gt;Node249 -->
<g id="edge5" class="edge">
<title>Node248&#45;&gt;Node249</title>
<path fill="none" stroke="#191970" d="M413.8101,-54.2838C425.3248,-51.7293 437.4204,-49.0458 448.4785,-46.5926"/>
<polygon fill="#191970" stroke="#191970" points="412.8858,-50.9037 403.8813,-56.4865 414.402,-57.7375 412.8858,-50.9037"/>
</g>
<!-- Node250&#45;&gt;Node247 -->
<g id="edge7" class="edge">
<title>Node250&#45;&gt;Node247</title>
<path fill="none" stroke="#191970" d="M256.5961,-207.9434C279.3628,-213.6121 306.4354,-220.353 327.6079,-225.6248"/>
<polygon fill="#191970" stroke="#191970" points="257.3543,-204.5254 246.8049,-205.5055 255.6629,-211.318 257.3543,-204.5254"/>
</g>
<!-- Node252&#45;&gt;Node248 -->
<g id="edge10" class="edge">
<title>Node252&#45;&gt;Node248</title>
<path fill="none" stroke="#191970" d="M264.1416,-77.1895C280.8768,-75.2157 299.2234,-73.0518 315.533,-71.1282"/>
<polygon fill="#191970" stroke="#191970" points="263.4836,-73.7428 253.9624,-78.3901 264.3035,-80.6946 263.4836,-73.7428"/>
</g>
<!-- Node253&#45;&gt;Node248 -->
<g id="edge12" class="edge">
<title>Node253&#45;&gt;Node248</title>
<path fill="none" stroke="#191970" d="M277.9817,-54.8841C290.677,-56.4646 303.7078,-58.0869 315.6424,-59.5727"/>
<polygon fill="#191970" stroke="#191970" points="278.2555,-51.3913 267.8997,-53.629 277.3907,-58.3377 278.2555,-51.3913"/>
</g>
<!-- Node255 -->
<g id="node11" class="node">
<title>Node255</title>
<g id="a_node11"><a xlink:href="lifter_8c.html#a59bb7413777ca16aba124aaedf95c79b" target="_top" xlink:title="Updates the lifter in teleop. ">
<polygon fill="none" stroke="#000000" points="327.7329,-10.5 327.7329,-28.5 398.772,-28.5 398.772,-10.5 327.7329,-10.5"/>
<text text-anchor="middle" x="363.2524" y="-16.5" font-family="Helvetica,sans-Serif" font-size="10.00" fill="#000000">update_lifter</text>
</a>
</g>
</g>
<!-- Node254&#45;&gt;Node255 -->
<g id="edge14" class="edge">
<title>Node254&#45;&gt;Node255</title>
<path fill="none" stroke="#191970" d="M282.4412,-14.2049C298.013,-15.2252 313.8358,-16.262 327.3037,-17.1445"/>
<polygon fill="#191970" stroke="#191970" points="282.4792,-10.7 272.2718,-13.5386 282.0215,-17.685 282.4792,-10.7"/>
</g>
<!-- Node255&#45;&gt;Node249 -->
<g id="edge15" class="edge">
<title>Node255&#45;&gt;Node249</title>
<path fill="none" stroke="#191970" d="M409.0507,-26.0316C421.232,-27.7689 434.3457,-29.6392 446.3765,-31.355"/>
<polygon fill="#191970" stroke="#191970" points="409.476,-22.557 399.082,-24.6099 408.4876,-29.4868 409.476,-22.557"/>
</g>
</g>
</svg>
