<?xml version="1.0" encoding="UTF-8" standalone="no"?>
<!DOCTYPE svg PUBLIC "-//W3C//DTD SVG 1.1//EN"
 "http://www.w3.org/Graphics/SVG/1.1/DTD/svg11.dtd">
<!-- Generated by graphviz version 2.40.1 (20161225.0304)
 -->
<!-- Title: src/lifter.c Pages: 1 -->
<!--zoomable 357 -->
<svg id="main" version="1.1" xmlns="http://www.w3.org/2000/svg" xmlns:xlink="http://www.w3.org/1999/xlink" xml:space="preserve" onload="init(evt)">
<style type="text/css"><![CDATA[
.edge:hover path { stroke: red; }
.edge:hover polygon { stroke: red; fill: red; }
]]></style>
<script type="text/javascript"><![CDATA[
var edges = document.getElementsByTagName('g');
if (edges && edges.length) {
  for (var i=0;i<edges.length;i++) {
    if (edges[i].id.substr(0,4)=='edge') {
      edges[i].setAttribute('class','edge');
    }
  }
}
]]></script>
        <defs>
                <circle id="rim" cx="0" cy="0" r="7"/>
                <circle id="rim2" cx="0" cy="0" r="3.5"/>
                <g id="zoomPlus">
                        <use xlink:href="#rim" fill="#404040">
                                <set attributeName="fill" to="#808080" begin="zoomplus.mouseover" end="zoomplus.mouseout"/>
                        </use>
                        <path d="M-4,0h8M0,-4v8" fill="none" stroke="white" stroke-width="1.5" pointer-events="none"/>
                </g>
                <g id="zoomMin">
                        <use xlink:href="#rim" fill="#404040">
                                <set attributeName="fill" to="#808080" begin="zoomminus.mouseover" end="zoomminus.mouseout"/>
                        </use>
                        <path d="M-4,0h8" fill="none" stroke="white" stroke-width="1.5" pointer-events="none"/>
                </g>
                <g id="dirArrow">
                        <path fill="none" stroke="white" stroke-width="1.5" d="M0,-3.0v7 M-2.5,-0.5L0,-3.0L2.5,-0.5"/>
                </g>
               <g id="resetDef">
                       <use xlink:href="#rim2" fill="#404040">
                               <set attributeName="fill" to="#808080" begin="reset.mouseover" end="reset.mouseout"/>
                       </use>
               </g>
        </defs>

<script type="text/javascript">
var viewWidth = 515;
var viewHeight = 357;
var sectionId = 'dynsection-0';
</script>
<script xlink:href="svgpan.js"/>
<svg id="graph" class="graph">
<g id="viewport">
<title>src/lifter.c</title>
<!-- Node0 -->
<g id="node1" class="node">
<title>Node0</title>
<polygon fill="#bfbfbf" stroke="#000000" points="94.5876,-330.5 94.5876,-348.5 152.819,-348.5 152.819,-330.5 94.5876,-330.5"/>
<text text-anchor="middle" x="123.7033" y="-336.5" font-family="Helvetica,sans-Serif" font-size="10.00" fill="#000000">src/lifter.c</text>
</g>
<!-- Node1 -->
<g id="node2" class="node">
<title>Node1</title>
<g id="a_node2"><a xlink:href="lifter_8h.html" target="_top" xlink:title="Declarations and macros for controlling and manipulating the lifter. ">
<polygon fill="none" stroke="#000000" points="223.361,-275.5 223.361,-293.5 266.0456,-293.5 266.0456,-275.5 223.361,-275.5"/>
<text text-anchor="middle" x="244.7033" y="-281.5" font-family="Helvetica,sans-Serif" font-size="10.00" fill="#000000">lifter.h</text>
</a>
</g>
</g>
<!-- Node0&#45;&gt;Node1 -->
<g id="edge1" class="edge">
<title>Node0&#45;&gt;Node1</title>
<path fill="none" stroke="#191970" d="M143.684,-330.4179C163.2134,-321.5409 193.1677,-307.9253 215.3928,-297.823"/>
<polygon fill="#191970" stroke="#191970" points="217.0376,-300.92 224.6929,-293.5956 214.1409,-294.5474 217.0376,-300.92"/>
</g>
<!-- Node14 -->
<g id="node15" class="node">
<title>Node14</title>
<g id="a_node15"><a xlink:href="log_8h.html" target="_top" xlink:title="Contains logging functions. ">
<polygon fill="none" stroke="#000000" points="116.861,-165.5 116.861,-183.5 154.5456,-183.5 154.5456,-165.5 116.861,-165.5"/>
<text text-anchor="middle" x="135.7033" y="-171.5" font-family="Helvetica,sans-Serif" font-size="10.00" fill="#000000">log.h</text>
</a>
</g>
</g>
<!-- Node0&#45;&gt;Node14 -->
<g id="edge23" class="edge">
<title>Node0&#45;&gt;Node14</title>
<path fill="none" stroke="#191970" d="M112.1629,-330.4249C88.0918,-310.3531 36.6086,-260.7436 59.7033,-220 69.846,-202.1062 90.1358,-190.4901 107.2011,-183.4764"/>
<polygon fill="#191970" stroke="#191970" points="108.6534,-186.6694 116.7752,-179.866 106.1834,-180.1196 108.6534,-186.6694"/>
</g>
<!-- Node2 -->
<g id="node3" class="node">
<title>Node2</title>
<polygon fill="none" stroke="#bfbfbf" points="181.4743,-55.5 181.4743,-73.5 221.9323,-73.5 221.9323,-55.5 181.4743,-55.5"/>
<text text-anchor="middle" x="201.7033" y="-61.5" font-family="Helvetica,sans-Serif" font-size="10.00" fill="#000000">API.h</text>
</g>
<!-- Node1&#45;&gt;Node2 -->
<g id="edge2" class="edge">
<title>Node1&#45;&gt;Node2</title>
<path fill="none" stroke="#191970" d="M266.0658,-282.0854C303.2649,-276.7741 374.6241,-261.0974 359.7033,-220 335.6687,-153.7998 265.2632,-102.7872 227.0606,-79.0751"/>
<polygon fill="#191970" stroke="#191970" points="228.4565,-75.8287 218.0897,-73.6422 224.8303,-81.8163 228.4565,-75.8287"/>
</g>
<!-- Node3 -->
<g id="node4" class="node">
<title>Node3</title>
<g id="a_node4"><a xlink:href="motor__ports_8h.html" target="_top" xlink:title="The motor port definitionsMacros for the different motors ports. ">
<polygon fill="none" stroke="#000000" points="272.8561,-220.5 272.8561,-238.5 350.5505,-238.5 350.5505,-220.5 272.8561,-220.5"/>
<text text-anchor="middle" x="311.7033" y="-226.5" font-family="Helvetica,sans-Serif" font-size="10.00" fill="#000000">motor_ports.h</text>
</a>
</g>
</g>
<!-- Node1&#45;&gt;Node3 -->
<g id="edge3" class="edge">
<title>Node1&#45;&gt;Node3</title>
<path fill="none" stroke="#191970" d="M255.767,-275.4179C265.6966,-267.2667 280.4933,-255.1201 292.3745,-245.3669"/>
<polygon fill="#191970" stroke="#191970" points="294.8907,-247.8297 300.3992,-238.7795 290.4492,-242.4192 294.8907,-247.8297"/>
</g>
<!-- Node4 -->
<g id="node5" class="node">
<title>Node4</title>
<g id="a_node5"><a xlink:href="sensor__ports_8h.html" target="_top" xlink:title="sensor_ports.h">
<polygon fill="none" stroke="#000000" points="406.6296,-220.5 406.6296,-238.5 488.777,-238.5 488.777,-220.5 406.6296,-220.5"/>
<text text-anchor="middle" x="447.7033" y="-226.5" font-family="Helvetica,sans-Serif" font-size="10.00" fill="#000000">sensor_ports.h</text>
</a>
</g>
</g>
<!-- Node1&#45;&gt;Node4 -->
<g id="edge4" class="edge">
<title>Node1&#45;&gt;Node4</title>
<path fill="none" stroke="#191970" d="M266.4279,-278.614C299.2856,-269.7117 362.2745,-252.6457 404.6487,-241.165"/>
<polygon fill="#191970" stroke="#191970" points="405.6797,-244.512 414.4164,-238.5186 403.8491,-237.7556 405.6797,-244.512"/>
</g>
<!-- Node5 -->
<g id="node6" class="node">
<title>Node5</title>
<g id="a_node6"><a xlink:href="slew_8h.html" target="_top" xlink:title="Contains the slew rate controller wrapper for the motors. ">
<polygon fill="none" stroke="#000000" points="18.8044,-165.5 18.8044,-183.5 62.6022,-183.5 62.6022,-165.5 18.8044,-165.5"/>
<text text-anchor="middle" x="40.7033" y="-171.5" font-family="Helvetica,sans-Serif" font-size="10.00" fill="#000000">slew.h</text>
</a>
</g>
</g>
<!-- Node1&#45;&gt;Node5 -->
<g id="edge5" class="edge">
<title>Node1&#45;&gt;Node5</title>
<path fill="none" stroke="#191970" d="M223.175,-281.9074C179.6215,-276.2442 83.1964,-261.452 59.7033,-239 47.5835,-227.4173 43.0824,-208.5322 41.4661,-194.1825"/>
<polygon fill="#191970" stroke="#191970" points="44.9314,-193.5852 40.698,-183.8729 37.9508,-194.1054 44.9314,-193.5852"/>
</g>
<!-- Node9 -->
<g id="node10" class="node">
<title>Node9</title>
<g id="a_node10"><a xlink:href="controller_8h.html" target="_top" xlink:title="controller definitions, macros and functions to assist with usig the vex controllers. ">
<polygon fill="none" stroke="#000000" points="406.2429,-110.5 406.2429,-128.5 471.1638,-128.5 471.1638,-110.5 406.2429,-110.5"/>
<text text-anchor="middle" x="438.7033" y="-116.5" font-family="Helvetica,sans-Serif" font-size="10.00" fill="#000000">controller.h</text>
</a>
</g>
</g>
<!-- Node1&#45;&gt;Node9 -->
<g id="edge12" class="edge">
<title>Node1&#45;&gt;Node9</title>
<path fill="none" stroke="#191970" d="M266.1073,-284.0193C321.6531,-282.2755 468.1447,-274.3487 497.7033,-239 524.7393,-206.668 483.4288,-159.8447 457.347,-135.5222"/>
<polygon fill="#191970" stroke="#191970" points="459.6014,-132.8421 449.8341,-128.7372 454.9097,-138.0372 459.6014,-132.8421"/>
</g>
<!-- Node11 -->
<g id="node12" class="node">
<title>Node11</title>
<g id="a_node12"><a xlink:href="potentiometer_8h.html" target="_top" xlink:title="potentiometer.h">
<polygon fill="none" stroke="#000000" points="132.2331,-220.5 132.2331,-238.5 217.1735,-238.5 217.1735,-220.5 132.2331,-220.5"/>
<text text-anchor="middle" x="174.7033" y="-226.5" font-family="Helvetica,sans-Serif" font-size="10.00" fill="#000000">potentiometer.h</text>
</a>
</g>
</g>
<!-- Node1&#45;&gt;Node11 -->
<g id="edge16" class="edge">
<title>Node1&#45;&gt;Node11</title>
<path fill="none" stroke="#191970" d="M233.1442,-275.4179C222.6693,-267.1876 207.0101,-254.8839 194.5369,-245.0836"/>
<polygon fill="#191970" stroke="#191970" points="196.5391,-242.2056 186.5135,-238.7795 192.2143,-247.7098 196.5391,-242.2056"/>
</g>
<!-- Node12 -->
<g id="node13" class="node">
<title>Node12</title>
<g id="a_node13"><a xlink:href="partner_8h.html" target="_top" xlink:title="partner.h">
<polygon fill="none" stroke="#000000" points="248.9645,-165.5 248.9645,-183.5 304.4421,-183.5 304.4421,-165.5 248.9645,-165.5"/>
<text text-anchor="middle" x="276.7033" y="-171.5" font-family="Helvetica,sans-Serif" font-size="10.00" fill="#000000">partner.h</text>
</a>
</g>
</g>
<!-- Node1&#45;&gt;Node12 -->
<g id="edge17" class="edge">
<title>Node1&#45;&gt;Node12</title>
<path fill="none" stroke="#191970" d="M247.322,-275.4982C252.5256,-257.6108 264.2642,-217.2594 271.2263,-193.3271"/>
<polygon fill="#191970" stroke="#191970" points="274.6157,-194.2058 274.0484,-183.6261 267.8944,-192.2504 274.6157,-194.2058"/>
</g>
<!-- Node13 -->
<g id="node14" class="node">
<title>Node13</title>
<g id="a_node14"><a xlink:href="drive_8h.html" target="_top" xlink:title="Drive base definitions and enumerations. ">
<polygon fill="none" stroke="#000000" points="68.696,-220.5 68.696,-238.5 114.7106,-238.5 114.7106,-220.5 68.696,-220.5"/>
<text text-anchor="middle" x="91.7033" y="-226.5" font-family="Helvetica,sans-Serif" font-size="10.00" fill="#000000">drive.h</text>
</a>
</g>
</g>
<!-- Node1&#45;&gt;Node13 -->
<g id="edge20" class="edge">
<title>Node1&#45;&gt;Node13</title>
<path fill="none" stroke="#191970" d="M223.1066,-276.7365C197.4265,-267.5051 154.3004,-252.0022 124.4953,-241.288"/>
<polygon fill="#191970" stroke="#191970" points="125.5371,-237.9433 114.9427,-237.854 123.1691,-244.5306 125.5371,-237.9433"/>
</g>
<!-- Node5&#45;&gt;Node2 -->
<g id="edge6" class="edge">
<title>Node5&#45;&gt;Node2</title>
<path fill="none" stroke="#191970" d="M48.6076,-165.2145C60.4217,-151.7534 83.8586,-126.6157 107.7033,-110 127.7177,-96.0534 152.6594,-84.1984 171.8206,-76.0888"/>
<polygon fill="#191970" stroke="#191970" points="173.3461,-79.2457 181.257,-72.1982 170.6778,-72.7742 173.3461,-79.2457"/>
</g>
<!-- Node6 -->
<g id="node7" class="node">
<title>Node6</title>
<polygon fill="none" stroke="#bfbfbf" points="71.4177,-.5 71.4177,-18.5 117.989,-18.5 117.989,-.5 71.4177,-.5"/>
<text text-anchor="middle" x="94.7033" y="-6.5" font-family="Helvetica,sans-Serif" font-size="10.00" fill="#000000">math.h</text>
</g>
<!-- Node5&#45;&gt;Node6 -->
<g id="edge7" class="edge">
<title>Node5&#45;&gt;Node6</title>
<path fill="none" stroke="#191970" d="M32.8742,-165.4826C25.8666,-156.796 16.0482,-142.9522 11.7033,-129 1.9209,-97.587 -7.2025,-83.2252 9.7033,-55 20.9307,-36.2553 42.8094,-24.7964 61.5575,-18.0669"/>
<polygon fill="#191970" stroke="#191970" points="62.8685,-21.3205 71.2825,-14.882 60.6899,-14.6682 62.8685,-21.3205"/>
</g>
<!-- Node7 -->
<g id="node8" class="node">
<title>Node7</title>
<g id="a_node8"><a xlink:href="vlib_8h.html" target="_top" xlink:title="Contains misc helpful functions. ">
<polygon fill="none" stroke="#000000" points="21.0309,-110.5 21.0309,-128.5 60.3757,-128.5 60.3757,-110.5 21.0309,-110.5"/>
<text text-anchor="middle" x="40.7033" y="-116.5" font-family="Helvetica,sans-Serif" font-size="10.00" fill="#000000">vlib.h</text>
</a>
</g>
</g>
<!-- Node5&#45;&gt;Node7 -->
<g id="edge8" class="edge">
<title>Node5&#45;&gt;Node7</title>
<path fill="none" stroke="#191970" d="M40.7033,-165.4179C40.7033,-158.2164 40.7033,-147.8962 40.7033,-138.8632"/>
<polygon fill="#191970" stroke="#191970" points="44.2034,-138.7794 40.7033,-128.7795 37.2034,-138.7795 44.2034,-138.7794"/>
</g>
<!-- Node7&#45;&gt;Node2 -->
<g id="edge10" class="edge">
<title>Node7&#45;&gt;Node2</title>
<path fill="none" stroke="#191970" d="M60.4451,-112.7559C88.1762,-103.2826 138.9055,-85.9527 171.4257,-74.8433"/>
<polygon fill="#191970" stroke="#191970" points="172.9605,-78.0176 181.2921,-71.4728 170.6976,-71.3935 172.9605,-78.0176"/>
</g>
<!-- Node7&#45;&gt;Node6 -->
<g id="edge9" class="edge">
<title>Node7&#45;&gt;Node6</title>
<path fill="none" stroke="#191970" d="M49.3227,-110.4374C57.194,-101.719 68.6473,-87.8536 75.7033,-74 83.071,-59.5345 88.0408,-41.7521 91.0437,-28.5247"/>
<polygon fill="#191970" stroke="#191970" points="94.4858,-29.1635 93.1131,-18.6579 87.6349,-27.7266 94.4858,-29.1635"/>
</g>
<!-- Node8 -->
<g id="node9" class="node">
<title>Node8</title>
<polygon fill="none" stroke="#bfbfbf" points="18.3068,-55.5 18.3068,-73.5 67.0998,-73.5 67.0998,-55.5 18.3068,-55.5"/>
<text text-anchor="middle" x="42.7033" y="-61.5" font-family="Helvetica,sans-Serif" font-size="10.00" fill="#000000">string.h</text>
</g>
<!-- Node7&#45;&gt;Node8 -->
<g id="edge11" class="edge">
<title>Node7&#45;&gt;Node8</title>
<path fill="none" stroke="#191970" d="M41.0336,-110.4179C41.2954,-103.2164 41.6707,-92.8962 41.9992,-83.8632"/>
<polygon fill="#191970" stroke="#191970" points="45.5001,-83.9001 42.3659,-73.7795 38.5047,-83.6456 45.5001,-83.9001"/>
</g>
<!-- Node9&#45;&gt;Node2 -->
<g id="edge15" class="edge">
<title>Node9&#45;&gt;Node2</title>
<path fill="none" stroke="#191970" d="M405.7495,-111.8525C359.7093,-101.1681 276.779,-81.9226 232.1334,-71.5618"/>
<polygon fill="#191970" stroke="#191970" points="232.7051,-68.1016 222.1728,-69.2503 231.1227,-74.9204 232.7051,-68.1016"/>
</g>
<!-- Node10 -->
<g id="node11" class="node">
<title>Node10</title>
<g id="a_node11"><a xlink:href="vmath_8h.html" target="_top" xlink:title="Vex Specific Math Functions, includes: Cartesian to polar cordinates. ">
<polygon fill="none" stroke="#000000" points="335.9177,-55.5 335.9177,-73.5 387.489,-73.5 387.489,-55.5 335.9177,-55.5"/>
<text text-anchor="middle" x="361.7033" y="-61.5" font-family="Helvetica,sans-Serif" font-size="10.00" fill="#000000">vmath.h</text>
</a>
</g>
</g>
<!-- Node9&#45;&gt;Node10 -->
<g id="edge13" class="edge">
<title>Node9&#45;&gt;Node10</title>
<path fill="none" stroke="#191970" d="M425.9883,-110.4179C414.285,-102.0584 396.6986,-89.4966 382.8768,-79.6239"/>
<polygon fill="#191970" stroke="#191970" points="384.6089,-76.56 374.4372,-73.5956 380.5402,-82.2561 384.6089,-76.56"/>
</g>
<!-- Node10&#45;&gt;Node6 -->
<g id="edge14" class="edge">
<title>Node10&#45;&gt;Node6</title>
<path fill="none" stroke="#191970" d="M335.6161,-59.1262C286.901,-49.0913 182.1684,-27.5172 128.2674,-16.414"/>
<polygon fill="#191970" stroke="#191970" points="128.6972,-12.9291 118.1966,-14.3394 127.2848,-19.7851 128.6972,-12.9291"/>
</g>
<!-- Node12&#45;&gt;Node2 -->
<g id="edge19" class="edge">
<title>Node12&#45;&gt;Node2</title>
<path fill="none" stroke="#191970" d="M270.8659,-165.2178C262.8829,-152.5985 248.0282,-129.3794 234.7033,-110 228.2883,-100.6701 220.9091,-90.4505 214.7577,-82.0644"/>
<polygon fill="#191970" stroke="#191970" points="217.4225,-79.7809 208.6683,-73.813 211.7902,-83.9375 217.4225,-79.7809"/>
</g>
<!-- Node12&#45;&gt;Node9 -->
<g id="edge18" class="edge">
<title>Node12&#45;&gt;Node9</title>
<path fill="none" stroke="#191970" d="M303.4543,-165.4179C330.5025,-156.2348 372.4873,-141.9807 402.501,-131.7909"/>
<polygon fill="#191970" stroke="#191970" points="403.8379,-135.0333 412.1818,-128.5042 401.5874,-128.4049 403.8379,-135.0333"/>
</g>
<!-- Node13&#45;&gt;Node2 -->
<g id="edge21" class="edge">
<title>Node13&#45;&gt;Node2</title>
<path fill="none" stroke="#191970" d="M113.6517,-220.3568C129.5287,-212.7358 150.4404,-200.4685 163.7033,-184 187.623,-154.299 196.6002,-109.2926 199.8845,-83.8332"/>
<polygon fill="#191970" stroke="#191970" points="203.3917,-83.9637 201.0261,-73.6364 196.4351,-83.1848 203.3917,-83.9637"/>
</g>
<!-- Node13&#45;&gt;Node12 -->
<g id="edge22" class="edge">
<title>Node13&#45;&gt;Node12</title>
<path fill="none" stroke="#191970" d="M114.7596,-222.6454C145.8359,-213.4065 201.5556,-196.8412 238.8312,-185.7593"/>
<polygon fill="#191970" stroke="#191970" points="240.232,-188.9943 248.82,-182.7896 238.2372,-182.2845 240.232,-188.9943"/>
</g>
<!-- Node14&#45;&gt;Node2 -->
<g id="edge24" class="edge">
<title>Node14&#45;&gt;Node2</title>
<path fill="none" stroke="#191970" d="M141.3329,-165.4669C147.024,-156.3083 156.0476,-141.7132 163.7033,-129 173.1067,-113.3847 183.6121,-95.52 191.1897,-82.5574"/>
<polygon fill="#191970" stroke="#191970" points="194.3302,-84.1199 196.3469,-73.7188 188.2842,-80.5921 194.3302,-84.1199"/>
</g>
<!-- Node15 -->
<g id="node16" class="node">
<title>Node15</title>
<g id="a_node16"><a xlink:href="lcd_8h.html" target="_top" xlink:title="LCD wrapper functions and macros. ">
<polygon fill="none" stroke="#000000" points="117.1418,-110.5 117.1418,-128.5 154.2648,-128.5 154.2648,-110.5 117.1418,-110.5"/>
<text text-anchor="middle" x="135.7033" y="-116.5" font-family="Helvetica,sans-Serif" font-size="10.00" fill="#000000">lcd.h</text>
</a>
</g>
</g>
<!-- Node14&#45;&gt;Node15 -->
<g id="edge25" class="edge">
<title>Node14&#45;&gt;Node15</title>
<path fill="none" stroke="#191970" d="M135.7033,-165.4179C135.7033,-158.2164 135.7033,-147.8962 135.7033,-138.8632"/>
<polygon fill="#191970" stroke="#191970" points="139.2034,-138.7794 135.7033,-128.7795 132.2034,-138.7795 139.2034,-138.7794"/>
</g>
<!-- Node15&#45;&gt;Node2 -->
<g id="edge26" class="edge">
<title>Node15&#45;&gt;Node2</title>
<path fill="none" stroke="#191970" d="M146.6019,-110.4179C156.3833,-102.2667 170.9591,-90.1201 182.663,-80.3669"/>
<polygon fill="#191970" stroke="#191970" points="185.1264,-82.8701 190.568,-73.7795 180.6451,-77.4926 185.1264,-82.8701"/>
</g>
</g>
</svg>
        <g id="navigator" transform="translate(0 0)" fill="#404254">
                <rect fill="#f2f5e9" fill-opacity="0.5" stroke="#606060" stroke-width=".5" x="0" y="0" width="60" height="60"/>
                <use id="zoomplus" xlink:href="#zoomPlus" x="17" y="9" onmousedown="handleZoom(evt,'in')"/>
                <use id="zoomminus" xlink:href="#zoomMin" x="42" y="9" onmousedown="handleZoom(evt,'out')"/>
                <use id="reset" xlink:href="#resetDef" x="30" y="36" onmousedown="handleReset()"/>
                <g id="arrowUp" xlink:href="#dirArrow" transform="translate(30 24)" onmousedown="handlePan(0,-1)">
                  <use xlink:href="#rim" fill="#404040">
                        <set attributeName="fill" to="#808080" begin="arrowUp.mouseover" end="arrowUp.mouseout"/>
                  </use>
                  <path fill="none" stroke="white" stroke-width="1.5" d="M0,-3.0v7 M-2.5,-0.5L0,-3.0L2.5,-0.5"/>
                </g>
                <g id="arrowRight" xlink:href="#dirArrow" transform="rotate(90) translate(36 -43)" onmousedown="handlePan(1,0)">
                  <use xlink:href="#rim" fill="#404040">
                        <set attributeName="fill" to="#808080" begin="arrowRight.mouseover" end="arrowRight.mouseout"/>
                  </use>
                  <path fill="none" stroke="white" stroke-width="1.5" d="M0,-3.0v7 M-2.5,-0.5L0,-3.0L2.5,-0.5"/>
                </g>
                <g id="arrowDown" xlink:href="#dirArrow" transform="rotate(180) translate(-30 -48)" onmousedown="handlePan(0,1)">
                  <use xlink:href="#rim" fill="#404040">
                        <set attributeName="fill" to="#808080" begin="arrowDown.mouseover" end="arrowDown.mouseout"/>
                  </use>
                  <path fill="none" stroke="white" stroke-width="1.5" d="M0,-3.0v7 M-2.5,-0.5L0,-3.0L2.5,-0.5"/>
                </g>
                <g id="arrowLeft" xlink:href="#dirArrow" transform="rotate(270) translate(-36 17)" onmousedown="handlePan(-1,0)">
                  <use xlink:href="#rim" fill="#404040">
                        <set attributeName="fill" to="#808080" begin="arrowLeft.mouseover" end="arrowLeft.mouseout"/>
                  </use>
                  <path fill="none" stroke="white" stroke-width="1.5" d="M0,-3.0v7 M-2.5,-0.5L0,-3.0L2.5,-0.5"/>
                </g>
        </g>
        <svg viewBox="0 0 15 15" width="100%" height="30px" preserveAspectRatio="xMaxYMin meet">
         <g id="arrow_out" transform="scale(0.3 0.3)">
          <a xlink:href="lifter_8c__incl_org.svg" target="_base">
           <rect id="button" ry="5" rx="5" y="6" x="6" height="38" width="38"
                fill="#f2f5e9" fill-opacity="0.5" stroke="#606060" stroke-width="1.0"/>
           <path id="arrow"
             d="M 11.500037,31.436501 C 11.940474,20.09759 22.043105,11.32322 32.158766,21.979434 L 37.068811,17.246167 C 37.068811,17.246167 37.088388,32 37.088388,32 L 22.160133,31.978069 C 22.160133,31.978069 26.997745,27.140456 26.997745,27.140456 C 18.528582,18.264221 13.291696,25.230495 11.500037,31.436501 z"
             style="fill:#404040;"/>
          </a>
         </g>
        </svg>
</svg>
