<?xml version="1.0" encoding="UTF-8" standalone="no"?>
<!DOCTYPE svg PUBLIC "-//W3C//DTD SVG 1.1//EN"
 "http://www.w3.org/Graphics/SVG/1.1/DTD/svg11.dtd">
<!-- Generated by graphviz version 2.40.1 (20161225.0304)
 -->
<!-- Title: raise_main_lifter Pages: 1 -->
<!--zoomable 269 -->
<svg id="main" version="1.1" xmlns="http://www.w3.org/2000/svg" xmlns:xlink="http://www.w3.org/1999/xlink" xml:space="preserve" onload="init(evt)">
<style type="text/css"><![CDATA[
.edge:hover path { stroke: red; }
.edge:hover polygon { stroke: red; fill: red; }
]]></style>
<script type="text/javascript"><![CDATA[
var edges = document.getElementsByTagName('g');
if (edges && edges.length) {
  for (var i=0;i<edges.length;i++) {
    if (edges[i].id.substr(0,4)=='edge') {
      edges[i].setAttribute('class','edge');
    }
  }
}
]]></script>
        <defs>
                <circle id="rim" cx="0" cy="0" r="7"/>
                <circle id="rim2" cx="0" cy="0" r="3.5"/>
                <g id="zoomPlus">
                        <use xlink:href="#rim" fill="#404040">
                                <set attributeName="fill" to="#808080" begin="zoomplus.mouseover" end="zoomplus.mouseout"/>
                        </use>
                        <path d="M-4,0h8M0,-4v8" fill="none" stroke="white" stroke-width="1.5" pointer-events="none"/>
                </g>
                <g id="zoomMin">
                        <use xlink:href="#rim" fill="#404040">
                                <set attributeName="fill" to="#808080" begin="zoomminus.mouseover" end="zoomminus.mouseout"/>
                        </use>
                        <path d="M-4,0h8" fill="none" stroke="white" stroke-width="1.5" pointer-events="none"/>
                </g>
                <g id="dirArrow">
                        <path fill="none" stroke="white" stroke-width="1.5" d="M0,-3.0v7 M-2.5,-0.5L0,-3.0L2.5,-0.5"/>
                </g>
               <g id="resetDef">
                       <use xlink:href="#rim2" fill="#404040">
                               <set attributeName="fill" to="#808080" begin="reset.mouseover" end="reset.mouseout"/>
                       </use>
               </g>
        </defs>

<script type="text/javascript">
var viewWidth = 797;
var viewHeight = 269;
var sectionId = 'dynsection-9';
</script>
<script xlink:href="svgpan.js"/>
<svg id="graph" class="graph">
<g id="viewport">
<title>raise_main_lifter</title>
<!-- Node86 -->
<g id="node1" class="node">
<title>Node86</title>
<polygon fill="#bfbfbf" stroke="#000000" points="0,-74.5 0,-92.5 89.3643,-92.5 89.3643,-74.5 0,-74.5"/>
<text text-anchor="middle" x="44.6821" y="-80.5" font-family="Helvetica,sans-Serif" font-size="10.00" fill="#000000">raise_main_lifter</text>
</g>
<!-- Node87 -->
<g id="node2" class="node">
<title>Node87</title>
<g id="a_node2"><a xlink:href="lifter_8c.html#ad00a195af30f246924d6e1a30095b882" target="_top" xlink:title="Sets the main lifter motors to the given value. ">
<polygon fill="none" stroke="#000000" points="125.3643,-74.5 125.3643,-92.5 242.5166,-92.5 242.5166,-74.5 125.3643,-74.5"/>
<text text-anchor="middle" x="183.9404" y="-80.5" font-family="Helvetica,sans-Serif" font-size="10.00" fill="#000000">set_main_lifter_motors</text>
</a>
</g>
</g>
<!-- Node86&#45;&gt;Node87 -->
<g id="edge1" class="edge">
<title>Node86&#45;&gt;Node87</title>
<path fill="none" stroke="#191970" d="M89.5109,-83.5C97.6831,-83.5 106.3796,-83.5 115.0606,-83.5"/>
<polygon fill="#191970" stroke="#191970" points="115.2119,-87.0001 125.2119,-83.5 115.2119,-80.0001 115.2119,-87.0001"/>
</g>
<!-- Node88 -->
<g id="node3" class="node">
<title>Node88</title>
<g id="a_node3"><a xlink:href="slew_8h.html#a7dff2b79dffe55fb936d977594d7c01d" target="_top" xlink:title="Sets motor speed wrapped inside the slew rate controller. ">
<polygon fill="none" stroke="#000000" points="278.5166,-74.5 278.5166,-92.5 364.5459,-92.5 364.5459,-74.5 278.5166,-74.5"/>
<text text-anchor="middle" x="321.5313" y="-80.5" font-family="Helvetica,sans-Serif" font-size="10.00" fill="#000000">set_motor_slew</text>
</a>
</g>
</g>
<!-- Node87&#45;&gt;Node88 -->
<g id="edge2" class="edge">
<title>Node87&#45;&gt;Node88</title>
<path fill="none" stroke="#191970" d="M242.6904,-83.5C251.2065,-83.5 259.9325,-83.5 268.3311,-83.5"/>
<polygon fill="#191970" stroke="#191970" points="268.3771,-87.0001 278.3771,-83.5 268.3771,-80.0001 268.3771,-87.0001"/>
</g>
<!-- Node89 -->
<g id="node4" class="node">
<title>Node89</title>
<g id="a_node4"><a xlink:href="log_8h.html#af3668f40d1ad1b4f3418869ac9a31f34" target="_top" xlink:title="prints a info message ">
<polygon fill="none" stroke="#000000" points="405.8169,-223.5 405.8169,-241.5 449.6245,-241.5 449.6245,-223.5 405.8169,-223.5"/>
<text text-anchor="middle" x="427.7207" y="-229.5" font-family="Helvetica,sans-Serif" font-size="10.00" fill="#000000">debug</text>
</a>
</g>
</g>
<!-- Node88&#45;&gt;Node89 -->
<g id="edge3" class="edge">
<title>Node88&#45;&gt;Node89</title>
<path fill="none" stroke="#191970" d="M328.1739,-92.8206C345.5307,-117.1749 392.4603,-183.0243 415.1286,-214.8314"/>
<polygon fill="#191970" stroke="#191970" points="412.4266,-217.0707 421.0806,-223.1829 418.1271,-213.0081 412.4266,-217.0707"/>
</g>
<!-- Node91 -->
<g id="node6" class="node">
<title>Node91</title>
<g id="a_node6"><a xlink:href="slew_8c.html#a321758941d88b75783955c819bb75005" target="_top" xlink:title="Initializes the slew rate controller. ">
<polygon fill="none" stroke="#000000" points="400.5459,-130.5 400.5459,-148.5 454.8955,-148.5 454.8955,-130.5 400.5459,-130.5"/>
<text text-anchor="middle" x="427.7207" y="-136.5" font-family="Helvetica,sans-Serif" font-size="10.00" fill="#000000">init_slew</text>
</a>
</g>
</g>
<!-- Node88&#45;&gt;Node91 -->
<g id="edge5" class="edge">
<title>Node88&#45;&gt;Node91</title>
<path fill="none" stroke="#191970" d="M339.0663,-92.7473C356.0759,-101.7174 382.097,-115.4399 401.5552,-125.7014"/>
<polygon fill="#191970" stroke="#191970" points="400.0339,-128.856 410.512,-130.4248 403.2992,-122.6642 400.0339,-128.856"/>
</g>
<!-- Node101 -->
<g id="node16" class="node">
<title>Node101</title>
<g id="a_node16"><a xlink:href="_a_p_i_8h.html#a8b51124628d2a7741738d48551d1e8ee" target="_top" xlink:title="Requests a mutex so that other tasks cannot simultaneously use the resource it guards. ">
<polygon fill="none" stroke="#000000" points="604.043,-37.5 604.043,-55.5 668.3975,-55.5 668.3975,-37.5 604.043,-37.5"/>
<text text-anchor="middle" x="636.2202" y="-43.5" font-family="Helvetica,sans-Serif" font-size="10.00" fill="#000000">mutexTake</text>
</a>
</g>
</g>
<!-- Node88&#45;&gt;Node101 -->
<g id="edge19" class="edge">
<title>Node88&#45;&gt;Node101</title>
<path fill="none" stroke="#191970" d="M364.6276,-78.4329C424.8114,-71.3567 533.3791,-58.5917 593.4095,-51.5335"/>
<polygon fill="#191970" stroke="#191970" points="594.1537,-54.9702 603.6765,-50.3264 593.3362,-48.0181 594.1537,-54.9702"/>
</g>
<!-- Node102 -->
<g id="node17" class="node">
<title>Node102</title>
<g id="a_node17"><a xlink:href="_a_p_i_8h.html#afe171a08d22de18fc2ab604b2364959f" target="_top" xlink:title="Relinquishes a mutex so that other tasks can use the resource it guards. ">
<polygon fill="none" stroke="#000000" points="604.3237,-.5 604.3237,-18.5 668.1167,-18.5 668.1167,-.5 604.3237,-.5"/>
<text text-anchor="middle" x="636.2202" y="-6.5" font-family="Helvetica,sans-Serif" font-size="10.00" fill="#000000">mutexGive</text>
</a>
</g>
</g>
<!-- Node88&#45;&gt;Node102 -->
<g id="edge20" class="edge">
<title>Node88&#45;&gt;Node102</title>
<path fill="none" stroke="#191970" d="M356.4964,-74.4684C370.2139,-70.9726 386.1018,-66.9823 400.5459,-63.5 468.2166,-47.1852 547.1095,-29.3477 594.2895,-18.8063"/>
<polygon fill="#191970" stroke="#191970" points="595.148,-22.2009 604.1458,-16.6072 593.6236,-15.3689 595.148,-22.2009"/>
</g>
<!-- Node90 -->
<g id="node5" class="node">
<title>Node90</title>
<g id="a_node5"><a xlink:href="_a_p_i_8h.html#a403c82418e475fa4a8273719e6a7f3e6" target="_top" xlink:title="Prints the formatted string to the debug stream (the PC terminal). ">
<polygon fill="none" stroke="#000000" points="727.4663,-242.5 727.4663,-260.5 765.6978,-260.5 765.6978,-242.5 727.4663,-242.5"/>
<text text-anchor="middle" x="746.582" y="-248.5" font-family="Helvetica,sans-Serif" font-size="10.00" fill="#000000">printf</text>
</a>
</g>
</g>
<!-- Node89&#45;&gt;Node90 -->
<g id="edge4" class="edge">
<title>Node89&#45;&gt;Node90</title>
<path fill="none" stroke="#191970" d="M449.8724,-240.896C461.8298,-244.9833 476.9582,-249.4495 490.8955,-251.5 571.9752,-263.4286 669.0891,-258.1521 716.9423,-254.2822"/>
<polygon fill="#191970" stroke="#191970" points="717.5289,-257.7451 727.1972,-253.4123 716.9372,-250.7702 717.5289,-257.7451"/>
</g>
<!-- Node92 -->
<g id="node7" class="node">
<title>Node92</title>
<g id="a_node7"><a xlink:href="log_8h.html#a0bec2cf5fff7f607bc510b74aba9887c" target="_top" xlink:title="prints a warning message and displays on lcd. ">
<polygon fill="none" stroke="#000000" points="503.9595,-112.5 503.9595,-130.5 554.979,-130.5 554.979,-112.5 503.9595,-112.5"/>
<text text-anchor="middle" x="529.4692" y="-118.5" font-family="Helvetica,sans-Serif" font-size="10.00" fill="#000000">warning</text>
</a>
</g>
</g>
<!-- Node91&#45;&gt;Node92 -->
<g id="edge6" class="edge">
<title>Node91&#45;&gt;Node92</title>
<path fill="none" stroke="#191970" d="M454.9874,-134.6763C466.9712,-132.5563 481.2004,-130.0391 493.9949,-127.7756"/>
<polygon fill="#191970" stroke="#191970" points="494.6406,-131.2159 503.8779,-126.0273 493.4211,-124.3229 494.6406,-131.2159"/>
</g>
<!-- Node97 -->
<g id="node12" class="node">
<title>Node97</title>
<g id="a_node12"><a xlink:href="_a_p_i_8h.html#a8966c541f3e9565aea1289f0d2f2cf43" target="_top" xlink:title="Stops all motors; significantly faster than looping through all motor ports and calling motorSet(chan...">
<polygon fill="none" stroke="#000000" points="492.8462,-223.5 492.8462,-241.5 566.0923,-241.5 566.0923,-223.5 492.8462,-223.5"/>
<text text-anchor="middle" x="529.4692" y="-229.5" font-family="Helvetica,sans-Serif" font-size="10.00" fill="#000000">motorStopAll</text>
</a>
</g>
</g>
<!-- Node91&#45;&gt;Node97 -->
<g id="edge12" class="edge">
<title>Node91&#45;&gt;Node97</title>
<path fill="none" stroke="#191970" d="M433.6694,-148.9368C443.7988,-164.3771 465.7578,-195.2435 490.8955,-214.5 492.7068,-215.8875 494.6423,-217.2022 496.6457,-218.4414"/>
<polygon fill="#191970" stroke="#191970" points="495.2351,-221.6591 505.6888,-223.383 498.5918,-215.5164 495.2351,-221.6591"/>
</g>
<!-- Node98 -->
<g id="node13" class="node">
<title>Node98</title>
<g id="a_node13"><a xlink:href="_a_p_i_8h.html#aecd027ce8f8b52a765735e9eb5b202b3" target="_top" xlink:title="Creates a mutex intended to allow only one task to use a resource at a time. ">
<polygon fill="none" stroke="#000000" points="492.8462,-186.5 492.8462,-204.5 566.0923,-204.5 566.0923,-186.5 492.8462,-186.5"/>
<text text-anchor="middle" x="529.4692" y="-192.5" font-family="Helvetica,sans-Serif" font-size="10.00" fill="#000000">mutexCreate</text>
</a>
</g>
</g>
<!-- Node91&#45;&gt;Node98 -->
<g id="edge13" class="edge">
<title>Node91&#45;&gt;Node98</title>
<path fill="none" stroke="#191970" d="M442.0251,-148.6936C454.67,-156.6774 473.7215,-168.3602 490.8955,-177.5 493.766,-179.0276 496.7892,-180.5619 499.8279,-182.0553"/>
<polygon fill="#191970" stroke="#191970" points="498.3211,-185.2143 508.8531,-186.3659 501.338,-178.8978 498.3211,-185.2143"/>
</g>
<!-- Node99 -->
<g id="node14" class="node">
<title>Node99</title>
<g id="a_node14"><a xlink:href="_a_p_i_8h.html#ab05a241d6d1fd98b1ceb4665db678156" target="_top" xlink:title="Starts a task which will periodically call the specified function. ">
<polygon fill="none" stroke="#000000" points="492.0039,-149.5 492.0039,-167.5 566.9346,-167.5 566.9346,-149.5 492.0039,-149.5"/>
<text text-anchor="middle" x="529.4692" y="-155.5" font-family="Helvetica,sans-Serif" font-size="10.00" fill="#000000">taskRunLoop</text>
</a>
</g>
</g>
<!-- Node91&#45;&gt;Node99 -->
<g id="edge14" class="edge">
<title>Node91&#45;&gt;Node99</title>
<path fill="none" stroke="#191970" d="M454.9874,-144.5917C463.2875,-146.1416 472.6647,-147.8926 481.8964,-149.6165"/>
<polygon fill="#191970" stroke="#191970" points="481.3261,-153.0704 491.7987,-151.4656 482.6111,-146.1894 481.3261,-153.0704"/>
</g>
<!-- Node100 -->
<g id="node15" class="node">
<title>Node100</title>
<g id="a_node15"><a xlink:href="slew_8c.html#a807a87c5df438fde21c1e8213906695b" target="_top" xlink:title="Closes the distance between the desired motor value and the current motor value by half for each moto...">
<polygon fill="none" stroke="#000000" points="490.8955,-75.5 490.8955,-93.5 568.043,-93.5 568.043,-75.5 490.8955,-75.5"/>
<text text-anchor="middle" x="529.4692" y="-81.5" font-family="Helvetica,sans-Serif" font-size="10.00" fill="#000000">updateMotors</text>
</a>
</g>
</g>
<!-- Node91&#45;&gt;Node100 -->
<g id="edge15" class="edge">
<title>Node91&#45;&gt;Node100</title>
<path fill="none" stroke="#191970" d="M443.1531,-130.3599C455.8556,-122.9207 474.3917,-112.2567 490.8955,-103.5 494.2586,-101.7156 497.8127,-99.888 501.3481,-98.1054"/>
<polygon fill="#191970" stroke="#191970" points="503.1188,-101.134 510.5192,-93.552 500.0059,-94.8642 503.1188,-101.134"/>
</g>
<!-- Node93 -->
<g id="node8" class="node">
<title>Node93</title>
<g id="a_node8"><a xlink:href="log_8c.html#afff22aff6749311a684a559cac3ac8bd" target="_top" xlink:title="prints a log info message to the lcd ">
<polygon fill="none" stroke="#000000" points="610.7056,-131.5 610.7056,-149.5 661.7349,-149.5 661.7349,-131.5 610.7056,-131.5"/>
<text text-anchor="middle" x="636.2202" y="-137.5" font-family="Helvetica,sans-Serif" font-size="10.00" fill="#000000">log_info</text>
</a>
</g>
</g>
<!-- Node92&#45;&gt;Node93 -->
<g id="edge7" class="edge">
<title>Node92&#45;&gt;Node93</title>
<path fill="none" stroke="#191970" d="M555.0388,-126.051C568.6705,-128.4772 585.6595,-131.501 600.5676,-134.1544"/>
<polygon fill="#191970" stroke="#191970" points="600.0307,-137.6138 610.4894,-135.9203 601.2574,-130.7221 600.0307,-137.6138"/>
</g>
<!-- Node93&#45;&gt;Node90 -->
<g id="edge8" class="edge">
<title>Node93&#45;&gt;Node90</title>
<path fill="none" stroke="#191970" d="M645.2516,-149.5836C663.8446,-168.2841 706.629,-211.3159 730.2228,-235.0462"/>
<polygon fill="#191970" stroke="#191970" points="727.8932,-237.6672 737.4259,-242.2909 732.8572,-232.7317 727.8932,-237.6672"/>
</g>
<!-- Node94 -->
<g id="node9" class="node">
<title>Node94</title>
<g id="a_node9"><a xlink:href="_a_p_i_8h.html#aab53a247d88151a6623c20fa1ea940b0" target="_top" xlink:title="Sets the specified LCD backlight to be on or off. ">
<polygon fill="none" stroke="#000000" points="704.3975,-168.5 704.3975,-186.5 788.7666,-186.5 788.7666,-168.5 704.3975,-168.5"/>
<text text-anchor="middle" x="746.582" y="-174.5" font-family="Helvetica,sans-Serif" font-size="10.00" fill="#000000">lcdSetBacklight</text>
</a>
</g>
</g>
<!-- Node93&#45;&gt;Node94 -->
<g id="edge9" class="edge">
<title>Node93&#45;&gt;Node94</title>
<path fill="none" stroke="#191970" d="M661.8168,-149.0815C676.1598,-153.8902 694.2888,-159.9681 710.0965,-165.2678"/>
<polygon fill="#191970" stroke="#191970" points="708.9906,-168.5885 719.5845,-168.4488 711.2157,-161.9515 708.9906,-168.5885"/>
</g>
<!-- Node95 -->
<g id="node10" class="node">
<title>Node95</title>
<g id="a_node10"><a xlink:href="_a_p_i_8h.html#a5fa1d119fe3e836b5519f97eae7a1272" target="_top" xlink:title="Clears the LCD screen on the specified port. ">
<polygon fill="none" stroke="#000000" points="720.2422,-131.5 720.2422,-149.5 772.9219,-149.5 772.9219,-131.5 720.2422,-131.5"/>
<text text-anchor="middle" x="746.582" y="-137.5" font-family="Helvetica,sans-Serif" font-size="10.00" fill="#000000">lcdClear</text>
</a>
</g>
</g>
<!-- Node93&#45;&gt;Node95 -->
<g id="edge10" class="edge">
<title>Node93&#45;&gt;Node95</title>
<path fill="none" stroke="#191970" d="M661.8168,-140.5C675.9926,-140.5 693.8668,-140.5 709.5429,-140.5"/>
<polygon fill="#191970" stroke="#191970" points="709.9721,-144.0001 719.972,-140.5 709.972,-137.0001 709.9721,-144.0001"/>
</g>
<!-- Node96 -->
<g id="node11" class="node">
<title>Node96</title>
<g id="a_node11"><a xlink:href="_a_p_i_8h.html#a6cfad8271c6a566a2f51ca318f819a80" target="_top" xlink:title="Prints the formatted string to the attached LCD. ">
<polygon fill="none" stroke="#000000" points="721.9097,-94.5 721.9097,-112.5 771.2544,-112.5 771.2544,-94.5 721.9097,-94.5"/>
<text text-anchor="middle" x="746.582" y="-100.5" font-family="Helvetica,sans-Serif" font-size="10.00" fill="#000000">lcdPrint</text>
</a>
</g>
</g>
<!-- Node93&#45;&gt;Node96 -->
<g id="edge11" class="edge">
<title>Node93&#45;&gt;Node96</title>
<path fill="none" stroke="#191970" d="M661.8168,-131.9185C676.7926,-126.8977 695.8958,-120.4931 712.1746,-115.0355"/>
<polygon fill="#191970" stroke="#191970" points="713.5146,-118.2777 721.8834,-111.7805 711.2895,-111.6408 713.5146,-118.2777"/>
</g>
<!-- Node100&#45;&gt;Node101 -->
<g id="edge16" class="edge">
<title>Node100&#45;&gt;Node101</title>
<path fill="none" stroke="#191970" d="M554.7677,-75.4945C568.6258,-70.5615 586.0139,-64.3719 601.162,-58.9796"/>
<polygon fill="#191970" stroke="#191970" points="602.4862,-62.2235 610.7334,-55.5725 600.1387,-55.6288 602.4862,-62.2235"/>
</g>
<!-- Node100&#45;&gt;Node102 -->
<g id="edge17" class="edge">
<title>Node100&#45;&gt;Node102</title>
<path fill="none" stroke="#191970" d="M540.2276,-75.4944C554.411,-63.8073 580.3462,-43.0703 604.043,-27.5 605.9554,-26.2434 607.9613,-24.9867 609.9971,-23.7545"/>
<polygon fill="#191970" stroke="#191970" points="612.0204,-26.6273 618.9177,-18.585 608.5106,-20.5707 612.0204,-26.6273"/>
</g>
<!-- Node103 -->
<g id="node18" class="node">
<title>Node103</title>
<g id="a_node18"><a xlink:href="_a_p_i_8h.html#a03c5b04b472d024281f62d7af8854a8e" target="_top" xlink:title="Sets the speed of the specified motor channel. ">
<polygon fill="none" stroke="#000000" points="607.9346,-75.5 607.9346,-93.5 664.5059,-93.5 664.5059,-75.5 607.9346,-75.5"/>
<text text-anchor="middle" x="636.2202" y="-81.5" font-family="Helvetica,sans-Serif" font-size="10.00" fill="#000000">motorSet</text>
</a>
</g>
</g>
<!-- Node100&#45;&gt;Node103 -->
<g id="edge18" class="edge">
<title>Node100&#45;&gt;Node103</title>
<path fill="none" stroke="#191970" d="M568.3108,-84.5C577.8547,-84.5 588.0698,-84.5 597.6031,-84.5"/>
<polygon fill="#191970" stroke="#191970" points="597.6162,-88.0001 607.6162,-84.5 597.6162,-81.0001 597.6162,-88.0001"/>
</g>
</g>
</svg>
        <g id="navigator" transform="translate(0 0)" fill="#404254">
                <rect fill="#f2f5e9" fill-opacity="0.5" stroke="#606060" stroke-width=".5" x="0" y="0" width="60" height="60"/>
                <use id="zoomplus" xlink:href="#zoomPlus" x="17" y="9" onmousedown="handleZoom(evt,'in')"/>
                <use id="zoomminus" xlink:href="#zoomMin" x="42" y="9" onmousedown="handleZoom(evt,'out')"/>
                <use id="reset" xlink:href="#resetDef" x="30" y="36" onmousedown="handleReset()"/>
                <g id="arrowUp" xlink:href="#dirArrow" transform="translate(30 24)" onmousedown="handlePan(0,-1)">
                  <use xlink:href="#rim" fill="#404040">
                        <set attributeName="fill" to="#808080" begin="arrowUp.mouseover" end="arrowUp.mouseout"/>
                  </use>
                  <path fill="none" stroke="white" stroke-width="1.5" d="M0,-3.0v7 M-2.5,-0.5L0,-3.0L2.5,-0.5"/>
                </g>
                <g id="arrowRight" xlink:href="#dirArrow" transform="rotate(90) translate(36 -43)" onmousedown="handlePan(1,0)">
                  <use xlink:href="#rim" fill="#404040">
                        <set attributeName="fill" to="#808080" begin="arrowRight.mouseover" end="arrowRight.mouseout"/>
                  </use>
                  <path fill="none" stroke="white" stroke-width="1.5" d="M0,-3.0v7 M-2.5,-0.5L0,-3.0L2.5,-0.5"/>
                </g>
                <g id="arrowDown" xlink:href="#dirArrow" transform="rotate(180) translate(-30 -48)" onmousedown="handlePan(0,1)">
                  <use xlink:href="#rim" fill="#404040">
                        <set attributeName="fill" to="#808080" begin="arrowDown.mouseover" end="arrowDown.mouseout"/>
                  </use>
                  <path fill="none" stroke="white" stroke-width="1.5" d="M0,-3.0v7 M-2.5,-0.5L0,-3.0L2.5,-0.5"/>
                </g>
                <g id="arrowLeft" xlink:href="#dirArrow" transform="rotate(270) translate(-36 17)" onmousedown="handlePan(-1,0)">
                  <use xlink:href="#rim" fill="#404040">
                        <set attributeName="fill" to="#808080" begin="arrowLeft.mouseover" end="arrowLeft.mouseout"/>
                  </use>
                  <path fill="none" stroke="white" stroke-width="1.5" d="M0,-3.0v7 M-2.5,-0.5L0,-3.0L2.5,-0.5"/>
                </g>
        </g>
        <svg viewBox="0 0 15 15" width="100%" height="30px" preserveAspectRatio="xMaxYMin meet">
         <g id="arrow_out" transform="scale(0.3 0.3)">
          <a xlink:href="lifter_8h_a2e2bd38b5b8b52378f3510368bf8aa0a_cgraph_org.svg" target="_base">
           <rect id="button" ry="5" rx="5" y="6" x="6" height="38" width="38"
                fill="#f2f5e9" fill-opacity="0.5" stroke="#606060" stroke-width="1.0"/>
           <path id="arrow"
             d="M 11.500037,31.436501 C 11.940474,20.09759 22.043105,11.32322 32.158766,21.979434 L 37.068811,17.246167 C 37.068811,17.246167 37.088388,32 37.088388,32 L 22.160133,31.978069 C 22.160133,31.978069 26.997745,27.140456 26.997745,27.140456 C 18.528582,18.264221 13.291696,25.230495 11.500037,31.436501 z"
             style="fill:#404040;"/>
          </a>
         </g>
        </svg>
</svg>
