<?xml version="1.0" encoding="UTF-8" standalone="no"?>
<!DOCTYPE svg PUBLIC "-//W3C//DTD SVG 1.1//EN"
 "http://www.w3.org/Graphics/SVG/1.1/DTD/svg11.dtd">
<!-- Generated by graphviz version 2.40.1 (20161225.0304)
 -->
<!-- Title: set_lifter_motors Pages: 1 -->
<svg width="537pt" height="101pt"
 viewBox="0.00 0.00 536.59 101.00" xmlns="http://www.w3.org/2000/svg" xmlns:xlink="http://www.w3.org/1999/xlink">
<g id="graph0" class="graph" transform="scale(1 1) rotate(0) translate(4 97)">
<title>set_lifter_motors</title>
<!-- Node34 -->
<g id="node1" class="node">
<title>Node34</title>
<polygon fill="#bfbfbf" stroke="#000000" points="0,-55.5 0,-73.5 89.916,-73.5 89.916,-55.5 0,-55.5"/>
<text text-anchor="middle" x="44.958" y="-61.5" font-family="Helvetica,sans-Serif" font-size="10.00" fill="#000000">set_lifter_motors</text>
</g>
<!-- Node35 -->
<g id="node2" class="node">
<title>Node35</title>
<g id="a_node2"><a xlink:href="$slew_8h.html#a9f8b8ae577ef938622024545711f0151" xlink:title="Sets the motor speed ignoring the slew controller. ">
<polygon fill="none" stroke="#000000" points="125.916,-55.5 125.916,-73.5 238.0684,-73.5 238.0684,-55.5 125.916,-55.5"/>
<text text-anchor="middle" x="181.9922" y="-61.5" font-family="Helvetica,sans-Serif" font-size="10.00" fill="#000000">set_motor_immediate</text>
</a>
</g>
</g>
<!-- Node34&#45;&gt;Node35 -->
<g id="edge1" class="edge">
<title>Node34&#45;&gt;Node35</title>
<path fill="none" stroke="#191970" d="M90.2079,-64.5C98.3887,-64.5 107.0717,-64.5 115.7074,-64.5"/>
<polygon fill="#191970" stroke="#191970" points="115.7902,-68.0001 125.7902,-64.5 115.7902,-61.0001 115.7902,-68.0001"/>
</g>
<!-- Node36 -->
<g id="node3" class="node">
<title>Node36</title>
<g id="a_node3"><a xlink:href="$log_8h.html#af3668f40d1ad1b4f3418869ac9a31f34" xlink:title="prints a info message ">
<polygon fill="none" stroke="#000000" points="279.3394,-74.5 279.3394,-92.5 323.147,-92.5 323.147,-74.5 279.3394,-74.5"/>
<text text-anchor="middle" x="301.2432" y="-80.5" font-family="Helvetica,sans-Serif" font-size="10.00" fill="#000000">debug</text>
</a>
</g>
</g>
<!-- Node35&#45;&gt;Node36 -->
<g id="edge2" class="edge">
<title>Node35&#45;&gt;Node36</title>
<path fill="none" stroke="#191970" d="M238.1258,-73.4436C248.8618,-75.1542 259.7493,-76.8889 269.3896,-78.4248"/>
<polygon fill="#191970" stroke="#191970" points="268.8686,-81.8859 279.2947,-80.003 269.97,-74.9731 268.8686,-81.8859"/>
</g>
<!-- Node37 -->
<g id="node4" class="node">
<title>Node37</title>
<g id="a_node4"><a xlink:href="$slew_8c.html#a321758941d88b75783955c819bb75005" xlink:title="Initializes the slew rate controller. ">
<polygon fill="none" stroke="#000000" points="274.0684,-37.5 274.0684,-55.5 328.418,-55.5 328.418,-37.5 274.0684,-37.5"/>
<text text-anchor="middle" x="301.2432" y="-43.5" font-family="Helvetica,sans-Serif" font-size="10.00" fill="#000000">init_slew</text>
</a>
</g>
</g>
<!-- Node35&#45;&gt;Node37 -->
<g id="edge3" class="edge">
<title>Node35&#45;&gt;Node37</title>
<path fill="none" stroke="#191970" d="M238.1258,-56.0271C246.8758,-54.7063 255.7265,-53.3704 263.9206,-52.1336"/>
<polygon fill="#191970" stroke="#191970" points="264.526,-55.5819 273.8916,-50.6285 263.4812,-48.6603 264.526,-55.5819"/>
</g>
<!-- Node38 -->
<g id="node5" class="node">
<title>Node38</title>
<g id="a_node5"><a xlink:href="$log_8h.html#a0bec2cf5fff7f607bc510b74aba9887c" xlink:title="prints a warning message and displays on lcd. Only will print and display if log_level is greater tha...">
<polygon fill="none" stroke="#000000" points="377.4819,-74.5 377.4819,-92.5 428.5015,-92.5 428.5015,-74.5 377.4819,-74.5"/>
<text text-anchor="middle" x="402.9917" y="-80.5" font-family="Helvetica,sans-Serif" font-size="10.00" fill="#000000">warning</text>
</a>
</g>
</g>
<!-- Node37&#45;&gt;Node38 -->
<g id="edge4" class="edge">
<title>Node37&#45;&gt;Node38</title>
<path fill="none" stroke="#191970" d="M326.1337,-55.5512C338.8214,-60.165 354.4564,-65.8506 368.305,-70.8865"/>
<polygon fill="#191970" stroke="#191970" points="367.4115,-74.2857 378.0055,-74.414 369.8037,-67.7072 367.4115,-74.2857"/>
</g>
<!-- Node40 -->
<g id="node7" class="node">
<title>Node40</title>
<g id="a_node7"><a xlink:href="$log_8h.html#a1606d750e1bb8de9f9e917172bba3382" xlink:title="prints a info message ">
<polygon fill="none" stroke="#000000" points="386.9302,-37.5 386.9302,-55.5 419.0532,-55.5 419.0532,-37.5 386.9302,-37.5"/>
<text text-anchor="middle" x="402.9917" y="-43.5" font-family="Helvetica,sans-Serif" font-size="10.00" fill="#000000">info</text>
</a>
</g>
</g>
<!-- Node37&#45;&gt;Node40 -->
<g id="edge6" class="edge">
<title>Node37&#45;&gt;Node40</title>
<path fill="none" stroke="#191970" d="M328.5099,-46.5C343.4783,-46.5 361.9501,-46.5 376.7533,-46.5"/>
<polygon fill="#191970" stroke="#191970" points="376.7815,-50.0001 386.7815,-46.5 376.7814,-43.0001 376.7815,-50.0001"/>
</g>
<!-- Node41 -->
<g id="node8" class="node">
<title>Node41</title>
<g id="a_node8"><a xlink:href="$slew_8c.html#a807a87c5df438fde21c1e8213906695b" xlink:title="Closes the distance between the desired motor value and the current motor value by half for each moto...">
<polygon fill="none" stroke="#000000" points="364.418,-.5 364.418,-18.5 441.5654,-18.5 441.5654,-.5 364.418,-.5"/>
<text text-anchor="middle" x="402.9917" y="-6.5" font-family="Helvetica,sans-Serif" font-size="10.00" fill="#000000">updateMotors</text>
</a>
</g>
</g>
<!-- Node37&#45;&gt;Node41 -->
<g id="edge7" class="edge">
<title>Node37&#45;&gt;Node41</title>
<path fill="none" stroke="#191970" d="M326.1337,-37.4488C338.8214,-32.835 354.4564,-27.1494 368.305,-22.1135"/>
<polygon fill="#191970" stroke="#191970" points="369.8037,-25.2928 378.0055,-18.586 367.4115,-18.7143 369.8037,-25.2928"/>
</g>
<!-- Node39 -->
<g id="node6" class="node">
<title>Node39</title>
<g id="a_node6"><a xlink:href="$log_8c.html#afff22aff6749311a684a559cac3ac8bd" xlink:title="log_info">
<polygon fill="none" stroke="#000000" points="477.5654,-74.5 477.5654,-92.5 528.5947,-92.5 528.5947,-74.5 477.5654,-74.5"/>
<text text-anchor="middle" x="503.0801" y="-80.5" font-family="Helvetica,sans-Serif" font-size="10.00" fill="#000000">log_info</text>
</a>
</g>
</g>
<!-- Node38&#45;&gt;Node39 -->
<g id="edge5" class="edge">
<title>Node38&#45;&gt;Node39</title>
<path fill="none" stroke="#191970" d="M428.5072,-83.5C440.1812,-83.5 454.221,-83.5 466.9547,-83.5"/>
<polygon fill="#191970" stroke="#191970" points="467.2632,-87.0001 477.2632,-83.5 467.2631,-80.0001 467.2632,-87.0001"/>
</g>
</g>
</svg>
