<?xml version="1.0" encoding="UTF-8" standalone="no"?>
<!DOCTYPE svg PUBLIC "-//W3C//DTD SVG 1.1//EN"
 "http://www.w3.org/Graphics/SVG/1.1/DTD/svg11.dtd">
<!-- Generated by graphviz version 2.40.1 (20161225.0304)
 -->
<!-- Title: raise_lifter Pages: 1 -->
<svg width="768pt" height="334pt"
 viewBox="0.00 0.00 768.42 334.39" xmlns="http://www.w3.org/2000/svg" xmlns:xlink="http://www.w3.org/1999/xlink">
<g id="graph0" class="graph" transform="scale(1 1) rotate(0) translate(4 330.3943)">
<title>raise_lifter</title>
<!-- Node33 -->
<g id="node1" class="node">
<title>Node33</title>
<polygon fill="#bfbfbf" stroke="#000000" points="0,-103.5 0,-121.5 62.1279,-121.5 62.1279,-103.5 0,-103.5"/>
<text text-anchor="middle" x="31.064" y="-109.5" font-family="Helvetica,sans-Serif" font-size="10.00" fill="#000000">raise_lifter</text>
</g>
<!-- Node34 -->
<g id="node2" class="node">
<title>Node34</title>
<g id="a_node2"><a xlink:href="lifter_8c.html#a2cfc188f60f945c824dd7fe7b0b5f4e4" target="_top" xlink:title="Sets the lifter motors to the given value. ">
<polygon fill="none" stroke="#000000" points="98.1279,-103.5 98.1279,-121.5 188.0439,-121.5 188.0439,-103.5 98.1279,-103.5"/>
<text text-anchor="middle" x="143.0859" y="-109.5" font-family="Helvetica,sans-Serif" font-size="10.00" fill="#000000">set_lifter_motors</text>
</a>
</g>
</g>
<!-- Node33&#45;&gt;Node34 -->
<g id="edge1" class="edge">
<title>Node33&#45;&gt;Node34</title>
<path fill="none" stroke="#191970" d="M62.2683,-112.5C70.1786,-112.5 78.9162,-112.5 87.6356,-112.5"/>
<polygon fill="#191970" stroke="#191970" points="87.8125,-116.0001 97.8124,-112.5 87.8124,-109.0001 87.8125,-116.0001"/>
</g>
<!-- Node35 -->
<g id="node3" class="node">
<title>Node35</title>
<g id="a_node3"><a xlink:href="slew_8h.html#a9f8b8ae577ef938622024545711f0151" target="_top" xlink:title="set_motor_immediate">
<polygon fill="none" stroke="#000000" points="224.0439,-103.5 224.0439,-121.5 336.1963,-121.5 336.1963,-103.5 224.0439,-103.5"/>
<text text-anchor="middle" x="280.1201" y="-109.5" font-family="Helvetica,sans-Serif" font-size="10.00" fill="#000000">set_motor_immediate</text>
</a>
</g>
</g>
<!-- Node34&#45;&gt;Node35 -->
<g id="edge2" class="edge">
<title>Node34&#45;&gt;Node35</title>
<path fill="none" stroke="#191970" d="M188.3358,-112.5C196.5167,-112.5 205.1996,-112.5 213.8353,-112.5"/>
<polygon fill="#191970" stroke="#191970" points="213.9182,-116.0001 223.9181,-112.5 213.9181,-109.0001 213.9182,-116.0001"/>
</g>
<!-- Node36 -->
<g id="node4" class="node">
<title>Node36</title>
<g id="a_node4"><a xlink:href="log_8h.html#af3668f40d1ad1b4f3418869ac9a31f34" target="_top" xlink:title="prints a info message ">
<polygon fill="none" stroke="#000000" points="377.4673,-272.5 377.4673,-290.5 421.2749,-290.5 421.2749,-272.5 377.4673,-272.5"/>
<text text-anchor="middle" x="399.3711" y="-278.5" font-family="Helvetica,sans-Serif" font-size="10.00" fill="#000000">debug</text>
</a>
</g>
</g>
<!-- Node35&#45;&gt;Node36 -->
<g id="edge3" class="edge">
<title>Node35&#45;&gt;Node36</title>
<path fill="none" stroke="#191970" d="M286.5316,-121.5862C305.5389,-148.523 361.8205,-228.2841 386.978,-263.9368"/>
<polygon fill="#191970" stroke="#191970" points="384.3027,-266.2161 392.9279,-272.3689 390.0222,-262.1803 384.3027,-266.2161"/>
</g>
<!-- Node38 -->
<g id="node6" class="node">
<title>Node38</title>
<g id="a_node6"><a xlink:href="slew_8c.html#a321758941d88b75783955c819bb75005" target="_top" xlink:title="Initializes the slew rate controller. ">
<polygon fill="none" stroke="#000000" points="372.1963,-178.5 372.1963,-196.5 426.5459,-196.5 426.5459,-178.5 372.1963,-178.5"/>
<text text-anchor="middle" x="399.3711" y="-184.5" font-family="Helvetica,sans-Serif" font-size="10.00" fill="#000000">init_slew</text>
</a>
</g>
</g>
<!-- Node35&#45;&gt;Node38 -->
<g id="edge5" class="edge">
<title>Node35&#45;&gt;Node38</title>
<path fill="none" stroke="#191970" d="M294.7426,-121.6965C315.1477,-134.5297 352.364,-157.936 376.4678,-173.0956"/>
<polygon fill="#191970" stroke="#191970" points="374.6731,-176.1014 385.0015,-178.4626 378.3998,-170.1759 374.6731,-176.1014"/>
</g>
<!-- Node48 -->
<g id="node16" class="node">
<title>Node48</title>
<g id="a_node16"><a xlink:href="_a_p_i_8h.html#a8b51124628d2a7741738d48551d1e8ee" target="_top" xlink:title="mutexTake">
<polygon fill="none" stroke="#000000" points="575.6934,-84.5 575.6934,-102.5 640.0479,-102.5 640.0479,-84.5 575.6934,-84.5"/>
<text text-anchor="middle" x="607.8706" y="-90.5" font-family="Helvetica,sans-Serif" font-size="10.00" fill="#000000">mutexTake</text>
</a>
</g>
</g>
<!-- Node35&#45;&gt;Node48 -->
<g id="edge22" class="edge">
<title>Node35&#45;&gt;Node48</title>
<path fill="none" stroke="#191970" d="M336.4624,-109.2338C401.5546,-105.4603 507.1722,-99.3376 565.6086,-95.95"/>
<polygon fill="#191970" stroke="#191970" points="565.8245,-99.4434 575.6052,-95.3705 565.4194,-92.4552 565.8245,-99.4434"/>
</g>
<!-- Node49 -->
<g id="node17" class="node">
<title>Node49</title>
<g id="a_node17"><a xlink:href="_a_p_i_8h.html#afe171a08d22de18fc2ab604b2364959f" target="_top" xlink:title="mutexGive">
<polygon fill="none" stroke="#000000" points="575.9741,-37.5 575.9741,-55.5 639.7671,-55.5 639.7671,-37.5 575.9741,-37.5"/>
<text text-anchor="middle" x="607.8706" y="-43.5" font-family="Helvetica,sans-Serif" font-size="10.00" fill="#000000">mutexGive</text>
</a>
</g>
</g>
<!-- Node35&#45;&gt;Node49 -->
<g id="edge21" class="edge">
<title>Node35&#45;&gt;Node49</title>
<path fill="none" stroke="#191970" d="M303.3046,-103.4974C337.5429,-90.6385 403.911,-67.3681 462.5459,-56.5 496.8728,-50.1374 536.4368,-47.729 565.608,-46.8603"/>
<polygon fill="#191970" stroke="#191970" points="565.9462,-50.3531 575.8561,-46.6055 565.7721,-43.3552 565.9462,-50.3531"/>
</g>
<!-- Node50 -->
<g id="node18" class="node">
<title>Node50</title>
<g id="a_node18"><a xlink:href="_a_p_i_8h.html#a03c5b04b472d024281f62d7af8854a8e" target="_top" xlink:title="motorSet">
<polygon fill="none" stroke="#000000" points="579.585,-.5 579.585,-18.5 636.1563,-18.5 636.1563,-.5 579.585,-.5"/>
<text text-anchor="middle" x="607.8706" y="-6.5" font-family="Helvetica,sans-Serif" font-size="10.00" fill="#000000">motorSet</text>
</a>
</g>
</g>
<!-- Node35&#45;&gt;Node50 -->
<g id="edge20" class="edge">
<title>Node35&#45;&gt;Node50</title>
<path fill="none" stroke="#191970" d="M292.8875,-103.4062C310.0937,-91.5708 342.0525,-71.0419 372.1963,-59.5 439.0149,-33.9154 521.766,-20.1973 569.3219,-13.9107"/>
<polygon fill="#191970" stroke="#191970" points="570.011,-17.3512 579.4858,-12.61 569.1224,-10.4078 570.011,-17.3512"/>
</g>
<!-- Node37 -->
<g id="node5" class="node">
<title>Node37</title>
<g id="a_node5"><a xlink:href="_a_p_i_8h.html#a403c82418e475fa4a8273719e6a7f3e6" target="_top" xlink:title="printf">
<polygon fill="none" stroke="#000000" points="699.1167,-253.5 699.1167,-271.5 737.3481,-271.5 737.3481,-253.5 699.1167,-253.5"/>
<text text-anchor="middle" x="718.2324" y="-259.5" font-family="Helvetica,sans-Serif" font-size="10.00" fill="#000000">printf</text>
</a>
</g>
</g>
<!-- Node36&#45;&gt;Node37 -->
<g id="edge4" class="edge">
<title>Node36&#45;&gt;Node37</title>
<path fill="none" stroke="#191970" d="M410.1474,-290.5205C422.0817,-299.8695 442.3201,-313.8857 462.5459,-319.5 546.2122,-342.7241 647.2951,-299.6052 693.2824,-276.181"/>
<polygon fill="#191970" stroke="#191970" points="694.9854,-279.2403 702.2332,-271.5125 691.7482,-273.0338 694.9854,-279.2403"/>
</g>
<!-- Node39 -->
<g id="node7" class="node">
<title>Node39</title>
<g id="a_node7"><a xlink:href="log_8h.html#a0bec2cf5fff7f607bc510b74aba9887c" target="_top" xlink:title="prints a warning message and displays on lcd. Only will print and display if log_level is greater tha...">
<polygon fill="none" stroke="#000000" points="475.6099,-215.5 475.6099,-233.5 526.6294,-233.5 526.6294,-215.5 475.6099,-215.5"/>
<text text-anchor="middle" x="501.1196" y="-221.5" font-family="Helvetica,sans-Serif" font-size="10.00" fill="#000000">warning</text>
</a>
</g>
</g>
<!-- Node38&#45;&gt;Node39 -->
<g id="edge6" class="edge">
<title>Node38&#45;&gt;Node39</title>
<path fill="none" stroke="#191970" d="M424.2616,-196.5512C436.9493,-201.165 452.5844,-206.8506 466.433,-211.8865"/>
<polygon fill="#191970" stroke="#191970" points="465.5394,-215.2857 476.1335,-215.414 467.9317,-208.7072 465.5394,-215.2857"/>
</g>
<!-- Node43 -->
<g id="node11" class="node">
<title>Node43</title>
<g id="a_node11"><a xlink:href="_a_p_i_8h.html#a8966c541f3e9565aea1289f0d2f2cf43" target="_top" xlink:title="motorStopAll">
<polygon fill="none" stroke="#000000" points="464.4966,-178.5 464.4966,-196.5 537.7427,-196.5 537.7427,-178.5 464.4966,-178.5"/>
<text text-anchor="middle" x="501.1196" y="-184.5" font-family="Helvetica,sans-Serif" font-size="10.00" fill="#000000">motorStopAll</text>
</a>
</g>
</g>
<!-- Node38&#45;&gt;Node43 -->
<g id="edge11" class="edge">
<title>Node38&#45;&gt;Node43</title>
<path fill="none" stroke="#191970" d="M426.6378,-187.5C435.1108,-187.5 444.7063,-187.5 454.1235,-187.5"/>
<polygon fill="#191970" stroke="#191970" points="454.2108,-191.0001 464.2107,-187.5 454.2107,-184.0001 454.2108,-191.0001"/>
</g>
<!-- Node44 -->
<g id="node12" class="node">
<title>Node44</title>
<g id="a_node12"><a xlink:href="log_8h.html#a1606d750e1bb8de9f9e917172bba3382" target="_top" xlink:title="prints a info message ">
<polygon fill="none" stroke="#000000" points="591.8091,-253.5 591.8091,-271.5 623.9321,-271.5 623.9321,-253.5 591.8091,-253.5"/>
<text text-anchor="middle" x="607.8706" y="-259.5" font-family="Helvetica,sans-Serif" font-size="10.00" fill="#000000">info</text>
</a>
</g>
</g>
<!-- Node38&#45;&gt;Node44 -->
<g id="edge12" class="edge">
<title>Node38&#45;&gt;Node44</title>
<path fill="none" stroke="#191970" d="M406.7801,-196.9149C417.5372,-209.8331 438.8065,-232.6805 462.5459,-243.5 501.3133,-261.1687 551.5366,-263.8528 581.6461,-263.5953"/>
<polygon fill="#191970" stroke="#191970" points="581.8438,-267.0921 591.7706,-263.3897 581.7016,-260.0936 581.8438,-267.0921"/>
</g>
<!-- Node45 -->
<g id="node13" class="node">
<title>Node45</title>
<g id="a_node13"><a xlink:href="_a_p_i_8h.html#aecd027ce8f8b52a765735e9eb5b202b3" target="_top" xlink:title="mutexCreate">
<polygon fill="none" stroke="#000000" points="464.4966,-141.5 464.4966,-159.5 537.7427,-159.5 537.7427,-141.5 464.4966,-141.5"/>
<text text-anchor="middle" x="501.1196" y="-147.5" font-family="Helvetica,sans-Serif" font-size="10.00" fill="#000000">mutexCreate</text>
</a>
</g>
</g>
<!-- Node38&#45;&gt;Node45 -->
<g id="edge14" class="edge">
<title>Node38&#45;&gt;Node45</title>
<path fill="none" stroke="#191970" d="M424.2616,-178.4488C436.9493,-173.835 452.5844,-168.1494 466.433,-163.1135"/>
<polygon fill="#191970" stroke="#191970" points="467.9317,-166.2928 476.1335,-159.586 465.5394,-159.7143 467.9317,-166.2928"/>
</g>
<!-- Node46 -->
<g id="node14" class="node">
<title>Node46</title>
<g id="a_node14"><a xlink:href="_a_p_i_8h.html#ab05a241d6d1fd98b1ceb4665db678156" target="_top" xlink:title="taskRunLoop">
<polygon fill="none" stroke="#000000" points="463.6543,-291.5 463.6543,-309.5 538.585,-309.5 538.585,-291.5 463.6543,-291.5"/>
<text text-anchor="middle" x="501.1196" y="-297.5" font-family="Helvetica,sans-Serif" font-size="10.00" fill="#000000">taskRunLoop</text>
</a>
</g>
</g>
<!-- Node38&#45;&gt;Node46 -->
<g id="edge15" class="edge">
<title>Node38&#45;&gt;Node46</title>
<path fill="none" stroke="#191970" d="M404.2745,-196.7314C413.763,-213.9713 436.0518,-251.5676 462.5459,-276.5 466.1609,-279.9019 470.3299,-283.0817 474.562,-285.943"/>
<polygon fill="#191970" stroke="#191970" points="472.8469,-288.9986 483.1803,-291.338 476.5612,-283.0652 472.8469,-288.9986"/>
</g>
<!-- Node47 -->
<g id="node15" class="node">
<title>Node47</title>
<g id="a_node15"><a xlink:href="slew_8c.html#a807a87c5df438fde21c1e8213906695b" target="_top" xlink:title="Closes the distance between the desired motor value and the current motor value by half for each moto...">
<polygon fill="none" stroke="#000000" points="462.5459,-65.5 462.5459,-83.5 539.6934,-83.5 539.6934,-65.5 462.5459,-65.5"/>
<text text-anchor="middle" x="501.1196" y="-71.5" font-family="Helvetica,sans-Serif" font-size="10.00" fill="#000000">updateMotors</text>
</a>
</g>
</g>
<!-- Node38&#45;&gt;Node47 -->
<g id="edge16" class="edge">
<title>Node38&#45;&gt;Node47</title>
<path fill="none" stroke="#191970" d="M407.6976,-178.2527C424.8499,-159.2037 464.3326,-115.355 486.0767,-91.2064"/>
<polygon fill="#191970" stroke="#191970" points="488.872,-93.3326 492.9624,-83.5592 483.67,-88.6486 488.872,-93.3326"/>
</g>
<!-- Node40 -->
<g id="node8" class="node">
<title>Node40</title>
<g id="a_node8"><a xlink:href="log_8c.html#afff22aff6749311a684a559cac3ac8bd" target="_top" xlink:title="log_info">
<polygon fill="none" stroke="#000000" points="582.356,-216.5 582.356,-234.5 633.3853,-234.5 633.3853,-216.5 582.356,-216.5"/>
<text text-anchor="middle" x="607.8706" y="-222.5" font-family="Helvetica,sans-Serif" font-size="10.00" fill="#000000">log_info</text>
</a>
</g>
</g>
<!-- Node39&#45;&gt;Node40 -->
<g id="edge7" class="edge">
<title>Node39&#45;&gt;Node40</title>
<path fill="none" stroke="#191970" d="M526.6891,-224.7395C540.1899,-224.866 556.9835,-225.0233 571.7874,-225.162"/>
<polygon fill="#191970" stroke="#191970" points="572.1074,-228.665 582.1397,-225.259 572.173,-221.6653 572.1074,-228.665"/>
</g>
<!-- Node40&#45;&gt;Node37 -->
<g id="edge8" class="edge">
<title>Node40&#45;&gt;Node37</title>
<path fill="none" stroke="#191970" d="M633.4672,-234.0815C650.1811,-239.6851 672.0362,-247.0122 689.3682,-252.823"/>
<polygon fill="#191970" stroke="#191970" points="688.3834,-256.1842 698.9773,-256.0445 690.6086,-249.5473 688.3834,-256.1842"/>
</g>
<!-- Node41 -->
<g id="node9" class="node">
<title>Node41</title>
<g id="a_node9"><a xlink:href="_a_p_i_8h.html#aab53a247d88151a6623c20fa1ea940b0" target="_top" xlink:title="lcdSetBacklight">
<polygon fill="none" stroke="#000000" points="676.0479,-216.5 676.0479,-234.5 760.417,-234.5 760.417,-216.5 676.0479,-216.5"/>
<text text-anchor="middle" x="718.2324" y="-222.5" font-family="Helvetica,sans-Serif" font-size="10.00" fill="#000000">lcdSetBacklight</text>
</a>
</g>
</g>
<!-- Node40&#45;&gt;Node41 -->
<g id="edge9" class="edge">
<title>Node40&#45;&gt;Node41</title>
<path fill="none" stroke="#191970" d="M633.4672,-225.5C643.1201,-225.5 654.4877,-225.5 665.7086,-225.5"/>
<polygon fill="#191970" stroke="#191970" points="665.9187,-229.0001 675.9187,-225.5 665.9187,-222.0001 665.9187,-229.0001"/>
</g>
<!-- Node42 -->
<g id="node10" class="node">
<title>Node42</title>
<g id="a_node10"><a xlink:href="_a_p_i_8h.html#a5fa1d119fe3e836b5519f97eae7a1272" target="_top" xlink:title="lcdClear">
<polygon fill="none" stroke="#000000" points="691.8926,-179.5 691.8926,-197.5 744.5723,-197.5 744.5723,-179.5 691.8926,-179.5"/>
<text text-anchor="middle" x="718.2324" y="-185.5" font-family="Helvetica,sans-Serif" font-size="10.00" fill="#000000">lcdClear</text>
</a>
</g>
</g>
<!-- Node40&#45;&gt;Node42 -->
<g id="edge10" class="edge">
<title>Node40&#45;&gt;Node42</title>
<path fill="none" stroke="#191970" d="M633.4672,-216.9185C647.9157,-212.0745 666.206,-205.9424 682.0952,-200.6154"/>
<polygon fill="#191970" stroke="#191970" points="683.2537,-203.9185 691.6224,-197.4213 681.0285,-197.2816 683.2537,-203.9185"/>
</g>
<!-- Node44&#45;&gt;Node37 -->
<g id="edge13" class="edge">
<title>Node44&#45;&gt;Node37</title>
<path fill="none" stroke="#191970" d="M624.1549,-262.5C641.1064,-262.5 668.0222,-262.5 688.7294,-262.5"/>
<polygon fill="#191970" stroke="#191970" points="688.9063,-266.0001 698.9063,-262.5 688.9062,-259.0001 688.9063,-266.0001"/>
</g>
<!-- Node47&#45;&gt;Node48 -->
<g id="edge17" class="edge">
<title>Node47&#45;&gt;Node48</title>
<path fill="none" stroke="#191970" d="M539.9612,-81.4132C548.2681,-82.8917 557.0834,-84.4607 565.5152,-85.9614"/>
<polygon fill="#191970" stroke="#191970" points="565.0912,-89.4409 575.5498,-87.7474 566.3179,-82.5492 565.0912,-89.4409"/>
</g>
<!-- Node47&#45;&gt;Node49 -->
<g id="edge18" class="edge">
<title>Node47&#45;&gt;Node49</title>
<path fill="none" stroke="#191970" d="M535.4839,-65.4865C545.1751,-62.9446 555.828,-60.1504 565.9108,-57.5057"/>
<polygon fill="#191970" stroke="#191970" points="566.962,-60.8485 575.7468,-54.9258 565.186,-54.0775 566.962,-60.8485"/>
</g>
<!-- Node47&#45;&gt;Node50 -->
<g id="edge19" class="edge">
<title>Node47&#45;&gt;Node50</title>
<path fill="none" stroke="#191970" d="M515.0041,-65.4439C529.8799,-55.8134 554.2493,-40.2437 575.6934,-27.5 577.7053,-26.3044 579.7988,-25.0831 581.9097,-23.8679"/>
<polygon fill="#191970" stroke="#191970" points="584.0981,-26.6509 591.075,-18.6776 580.6487,-20.5598 584.0981,-26.6509"/>
</g>
</g>
</svg>
