<?xml version="1.0" encoding="UTF-8" standalone="no"?>
<!DOCTYPE svg PUBLIC "-//W3C//DTD SVG 1.1//EN"
 "http://www.w3.org/Graphics/SVG/1.1/DTD/svg11.dtd">
<!-- Generated by graphviz version 2.40.1 (20161225.0304)
 -->
<!-- Title: lower_lifter Pages: 1 -->
<!--zoomable 334 -->
<svg id="main" version="1.1" xmlns="http://www.w3.org/2000/svg" xmlns:xlink="http://www.w3.org/1999/xlink" xml:space="preserve" onload="init(evt)">
<style type="text/css"><![CDATA[
.edge:hover path { stroke: red; }
.edge:hover polygon { stroke: red; fill: red; }
]]></style>
<script type="text/javascript"><![CDATA[
var edges = document.getElementsByTagName('g');
if (edges && edges.length) {
  for (var i=0;i<edges.length;i++) {
    if (edges[i].id.substr(0,4)=='edge') {
      edges[i].setAttribute('class','edge');
    }
  }
}
]]></script>
        <defs>
                <circle id="rim" cx="0" cy="0" r="7"/>
                <circle id="rim2" cx="0" cy="0" r="3.5"/>
                <g id="zoomPlus">
                        <use xlink:href="#rim" fill="#404040">
                                <set attributeName="fill" to="#808080" begin="zoomplus.mouseover" end="zoomplus.mouseout"/>
                        </use>
                        <path d="M-4,0h8M0,-4v8" fill="none" stroke="white" stroke-width="1.5" pointer-events="none"/>
                </g>
                <g id="zoomMin">
                        <use xlink:href="#rim" fill="#404040">
                                <set attributeName="fill" to="#808080" begin="zoomminus.mouseover" end="zoomminus.mouseout"/>
                        </use>
                        <path d="M-4,0h8" fill="none" stroke="white" stroke-width="1.5" pointer-events="none"/>
                </g>
                <g id="dirArrow">
                        <path fill="none" stroke="white" stroke-width="1.5" d="M0,-3.0v7 M-2.5,-0.5L0,-3.0L2.5,-0.5"/>
                </g>
               <g id="resetDef">
                       <use xlink:href="#rim2" fill="#404040">
                               <set attributeName="fill" to="#808080" begin="reset.mouseover" end="reset.mouseout"/>
                       </use>
               </g>
        </defs>

<script type="text/javascript">
var viewWidth = 771;
var viewHeight = 334;
var sectionId = 'dynsection-4';
</script>
<script xlink:href="svgpan.js"/>
<svg id="graph" class="graph">
<g id="viewport">
<title>lower_lifter</title>
<!-- Node12 -->
<g id="node1" class="node">
<title>Node12</title>
<polygon fill="#bfbfbf" stroke="#000000" points="0,-103.5 0,-121.5 64.3496,-121.5 64.3496,-103.5 0,-103.5"/>
<text text-anchor="middle" x="32.1748" y="-109.5" font-family="Helvetica,sans-Serif" font-size="10.00" fill="#000000">lower_lifter</text>
</g>
<!-- Node13 -->
<g id="node2" class="node">
<title>Node13</title>
<g id="a_node2"><a xlink:href="lifter_8c.html#a2cfc188f60f945c824dd7fe7b0b5f4e4" target="_top" xlink:title="Sets the lifter motors to the given value. ">
<polygon fill="none" stroke="#000000" points="100.3496,-103.5 100.3496,-121.5 190.2656,-121.5 190.2656,-103.5 100.3496,-103.5"/>
<text text-anchor="middle" x="145.3076" y="-109.5" font-family="Helvetica,sans-Serif" font-size="10.00" fill="#000000">set_lifter_motors</text>
</a>
</g>
</g>
<!-- Node12&#45;&gt;Node13 -->
<g id="edge1" class="edge">
<title>Node12&#45;&gt;Node13</title>
<path fill="none" stroke="#191970" d="M64.5941,-112.5C72.5722,-112.5 81.3393,-112.5 90.0643,-112.5"/>
<polygon fill="#191970" stroke="#191970" points="90.2377,-116.0001 100.2377,-112.5 90.2377,-109.0001 90.2377,-116.0001"/>
</g>
<!-- Node14 -->
<g id="node3" class="node">
<title>Node14</title>
<g id="a_node3"><a xlink:href="slew_8h.html#a9f8b8ae577ef938622024545711f0151" target="_top" xlink:title="set_motor_immediate">
<polygon fill="none" stroke="#000000" points="226.2656,-103.5 226.2656,-121.5 338.418,-121.5 338.418,-103.5 226.2656,-103.5"/>
<text text-anchor="middle" x="282.3418" y="-109.5" font-family="Helvetica,sans-Serif" font-size="10.00" fill="#000000">set_motor_immediate</text>
</a>
</g>
</g>
<!-- Node13&#45;&gt;Node14 -->
<g id="edge2" class="edge">
<title>Node13&#45;&gt;Node14</title>
<path fill="none" stroke="#191970" d="M190.5575,-112.5C198.7383,-112.5 207.4213,-112.5 216.057,-112.5"/>
<polygon fill="#191970" stroke="#191970" points="216.1399,-116.0001 226.1398,-112.5 216.1398,-109.0001 216.1399,-116.0001"/>
</g>
<!-- Node15 -->
<g id="node4" class="node">
<title>Node15</title>
<g id="a_node4"><a xlink:href="log_8h.html#af3668f40d1ad1b4f3418869ac9a31f34" target="_top" xlink:title="prints a info message ">
<polygon fill="none" stroke="#000000" points="379.689,-272.5 379.689,-290.5 423.4966,-290.5 423.4966,-272.5 379.689,-272.5"/>
<text text-anchor="middle" x="401.5928" y="-278.5" font-family="Helvetica,sans-Serif" font-size="10.00" fill="#000000">debug</text>
</a>
</g>
</g>
<!-- Node14&#45;&gt;Node15 -->
<g id="edge3" class="edge">
<title>Node14&#45;&gt;Node15</title>
<path fill="none" stroke="#191970" d="M288.7532,-121.5862C307.7606,-148.523 364.0422,-228.2841 389.1997,-263.9368"/>
<polygon fill="#191970" stroke="#191970" points="386.5244,-266.2161 395.1496,-272.3689 392.2439,-262.1803 386.5244,-266.2161"/>
</g>
<!-- Node17 -->
<g id="node6" class="node">
<title>Node17</title>
<g id="a_node6"><a xlink:href="slew_8c.html#a321758941d88b75783955c819bb75005" target="_top" xlink:title="Initializes the slew rate controller. ">
<polygon fill="none" stroke="#000000" points="374.418,-178.5 374.418,-196.5 428.7676,-196.5 428.7676,-178.5 374.418,-178.5"/>
<text text-anchor="middle" x="401.5928" y="-184.5" font-family="Helvetica,sans-Serif" font-size="10.00" fill="#000000">init_slew</text>
</a>
</g>
</g>
<!-- Node14&#45;&gt;Node17 -->
<g id="edge5" class="edge">
<title>Node14&#45;&gt;Node17</title>
<path fill="none" stroke="#191970" d="M296.9643,-121.6965C317.3694,-134.5297 354.5857,-157.936 378.6895,-173.0956"/>
<polygon fill="#191970" stroke="#191970" points="376.8947,-176.1014 387.2231,-178.4626 380.6215,-170.1759 376.8947,-176.1014"/>
</g>
<!-- Node27 -->
<g id="node16" class="node">
<title>Node27</title>
<g id="a_node16"><a xlink:href="_a_p_i_8h.html#a8b51124628d2a7741738d48551d1e8ee" target="_top" xlink:title="mutexTake">
<polygon fill="none" stroke="#000000" points="577.915,-84.5 577.915,-102.5 642.2695,-102.5 642.2695,-84.5 577.915,-84.5"/>
<text text-anchor="middle" x="610.0923" y="-90.5" font-family="Helvetica,sans-Serif" font-size="10.00" fill="#000000">mutexTake</text>
</a>
</g>
</g>
<!-- Node14&#45;&gt;Node27 -->
<g id="edge22" class="edge">
<title>Node14&#45;&gt;Node27</title>
<path fill="none" stroke="#191970" d="M338.6841,-109.2338C403.7762,-105.4603 509.3939,-99.3376 567.8303,-95.95"/>
<polygon fill="#191970" stroke="#191970" points="568.0462,-99.4434 577.8269,-95.3705 567.641,-92.4552 568.0462,-99.4434"/>
</g>
<!-- Node28 -->
<g id="node17" class="node">
<title>Node28</title>
<g id="a_node17"><a xlink:href="_a_p_i_8h.html#afe171a08d22de18fc2ab604b2364959f" target="_top" xlink:title="mutexGive">
<polygon fill="none" stroke="#000000" points="578.1958,-37.5 578.1958,-55.5 641.9888,-55.5 641.9888,-37.5 578.1958,-37.5"/>
<text text-anchor="middle" x="610.0923" y="-43.5" font-family="Helvetica,sans-Serif" font-size="10.00" fill="#000000">mutexGive</text>
</a>
</g>
</g>
<!-- Node14&#45;&gt;Node28 -->
<g id="edge21" class="edge">
<title>Node14&#45;&gt;Node28</title>
<path fill="none" stroke="#191970" d="M305.5263,-103.4974C339.7646,-90.6385 406.1327,-67.3681 464.7676,-56.5 499.0945,-50.1374 538.6585,-47.729 567.8296,-46.8603"/>
<polygon fill="#191970" stroke="#191970" points="568.1679,-50.3531 578.0777,-46.6055 567.9938,-43.3552 568.1679,-50.3531"/>
</g>
<!-- Node29 -->
<g id="node18" class="node">
<title>Node29</title>
<g id="a_node18"><a xlink:href="_a_p_i_8h.html#a03c5b04b472d024281f62d7af8854a8e" target="_top" xlink:title="motorSet">
<polygon fill="none" stroke="#000000" points="581.8066,-.5 581.8066,-18.5 638.3779,-18.5 638.3779,-.5 581.8066,-.5"/>
<text text-anchor="middle" x="610.0923" y="-6.5" font-family="Helvetica,sans-Serif" font-size="10.00" fill="#000000">motorSet</text>
</a>
</g>
</g>
<!-- Node14&#45;&gt;Node29 -->
<g id="edge20" class="edge">
<title>Node14&#45;&gt;Node29</title>
<path fill="none" stroke="#191970" d="M295.1092,-103.4062C312.3154,-91.5708 344.2742,-71.0419 374.418,-59.5 441.2365,-33.9154 523.9876,-20.1973 571.5435,-13.9107"/>
<polygon fill="#191970" stroke="#191970" points="572.2327,-17.3512 581.7075,-12.61 571.3441,-10.4078 572.2327,-17.3512"/>
</g>
<!-- Node16 -->
<g id="node5" class="node">
<title>Node16</title>
<g id="a_node5"><a xlink:href="_a_p_i_8h.html#a403c82418e475fa4a8273719e6a7f3e6" target="_top" xlink:title="printf">
<polygon fill="none" stroke="#000000" points="701.3384,-253.5 701.3384,-271.5 739.5698,-271.5 739.5698,-253.5 701.3384,-253.5"/>
<text text-anchor="middle" x="720.4541" y="-259.5" font-family="Helvetica,sans-Serif" font-size="10.00" fill="#000000">printf</text>
</a>
</g>
</g>
<!-- Node15&#45;&gt;Node16 -->
<g id="edge4" class="edge">
<title>Node15&#45;&gt;Node16</title>
<path fill="none" stroke="#191970" d="M412.3691,-290.5205C424.3033,-299.8695 444.5418,-313.8857 464.7676,-319.5 548.4339,-342.7241 649.5168,-299.6052 695.5041,-276.181"/>
<polygon fill="#191970" stroke="#191970" points="697.2071,-279.2403 704.4549,-271.5125 693.9699,-273.0338 697.2071,-279.2403"/>
</g>
<!-- Node18 -->
<g id="node7" class="node">
<title>Node18</title>
<g id="a_node7"><a xlink:href="log_8h.html#a0bec2cf5fff7f607bc510b74aba9887c" target="_top" xlink:title="prints a warning message and displays on lcd. Only will print and display if log_level is greater tha...">
<polygon fill="none" stroke="#000000" points="477.8315,-215.5 477.8315,-233.5 528.8511,-233.5 528.8511,-215.5 477.8315,-215.5"/>
<text text-anchor="middle" x="503.3413" y="-221.5" font-family="Helvetica,sans-Serif" font-size="10.00" fill="#000000">warning</text>
</a>
</g>
</g>
<!-- Node17&#45;&gt;Node18 -->
<g id="edge6" class="edge">
<title>Node17&#45;&gt;Node18</title>
<path fill="none" stroke="#191970" d="M426.4833,-196.5512C439.171,-201.165 454.806,-206.8506 468.6546,-211.8865"/>
<polygon fill="#191970" stroke="#191970" points="467.7611,-215.2857 478.3551,-215.414 470.1534,-208.7072 467.7611,-215.2857"/>
</g>
<!-- Node22 -->
<g id="node11" class="node">
<title>Node22</title>
<g id="a_node11"><a xlink:href="_a_p_i_8h.html#a8966c541f3e9565aea1289f0d2f2cf43" target="_top" xlink:title="motorStopAll">
<polygon fill="none" stroke="#000000" points="466.7183,-178.5 466.7183,-196.5 539.9644,-196.5 539.9644,-178.5 466.7183,-178.5"/>
<text text-anchor="middle" x="503.3413" y="-184.5" font-family="Helvetica,sans-Serif" font-size="10.00" fill="#000000">motorStopAll</text>
</a>
</g>
</g>
<!-- Node17&#45;&gt;Node22 -->
<g id="edge11" class="edge">
<title>Node17&#45;&gt;Node22</title>
<path fill="none" stroke="#191970" d="M428.8595,-187.5C437.3325,-187.5 446.928,-187.5 456.3452,-187.5"/>
<polygon fill="#191970" stroke="#191970" points="456.4324,-191.0001 466.4324,-187.5 456.4324,-184.0001 456.4324,-191.0001"/>
</g>
<!-- Node23 -->
<g id="node12" class="node">
<title>Node23</title>
<g id="a_node12"><a xlink:href="log_8h.html#a1606d750e1bb8de9f9e917172bba3382" target="_top" xlink:title="prints a info message ">
<polygon fill="none" stroke="#000000" points="594.0308,-253.5 594.0308,-271.5 626.1538,-271.5 626.1538,-253.5 594.0308,-253.5"/>
<text text-anchor="middle" x="610.0923" y="-259.5" font-family="Helvetica,sans-Serif" font-size="10.00" fill="#000000">info</text>
</a>
</g>
</g>
<!-- Node17&#45;&gt;Node23 -->
<g id="edge12" class="edge">
<title>Node17&#45;&gt;Node23</title>
<path fill="none" stroke="#191970" d="M409.0018,-196.9149C419.7589,-209.8331 441.0282,-232.6805 464.7676,-243.5 503.535,-261.1687 553.7583,-263.8528 583.8678,-263.5953"/>
<polygon fill="#191970" stroke="#191970" points="584.0655,-267.0921 593.9923,-263.3897 583.9232,-260.0936 584.0655,-267.0921"/>
</g>
<!-- Node24 -->
<g id="node13" class="node">
<title>Node24</title>
<g id="a_node13"><a xlink:href="_a_p_i_8h.html#aecd027ce8f8b52a765735e9eb5b202b3" target="_top" xlink:title="mutexCreate">
<polygon fill="none" stroke="#000000" points="466.7183,-141.5 466.7183,-159.5 539.9644,-159.5 539.9644,-141.5 466.7183,-141.5"/>
<text text-anchor="middle" x="503.3413" y="-147.5" font-family="Helvetica,sans-Serif" font-size="10.00" fill="#000000">mutexCreate</text>
</a>
</g>
</g>
<!-- Node17&#45;&gt;Node24 -->
<g id="edge14" class="edge">
<title>Node17&#45;&gt;Node24</title>
<path fill="none" stroke="#191970" d="M426.4833,-178.4488C439.171,-173.835 454.806,-168.1494 468.6546,-163.1135"/>
<polygon fill="#191970" stroke="#191970" points="470.1534,-166.2928 478.3551,-159.586 467.7611,-159.7143 470.1534,-166.2928"/>
</g>
<!-- Node25 -->
<g id="node14" class="node">
<title>Node25</title>
<g id="a_node14"><a xlink:href="_a_p_i_8h.html#ab05a241d6d1fd98b1ceb4665db678156" target="_top" xlink:title="taskRunLoop">
<polygon fill="none" stroke="#000000" points="465.876,-291.5 465.876,-309.5 540.8066,-309.5 540.8066,-291.5 465.876,-291.5"/>
<text text-anchor="middle" x="503.3413" y="-297.5" font-family="Helvetica,sans-Serif" font-size="10.00" fill="#000000">taskRunLoop</text>
</a>
</g>
</g>
<!-- Node17&#45;&gt;Node25 -->
<g id="edge15" class="edge">
<title>Node17&#45;&gt;Node25</title>
<path fill="none" stroke="#191970" d="M406.4962,-196.7314C415.9847,-213.9713 438.2734,-251.5676 464.7676,-276.5 468.3826,-279.9019 472.5516,-283.0817 476.7837,-285.943"/>
<polygon fill="#191970" stroke="#191970" points="475.0686,-288.9986 485.402,-291.338 478.7829,-283.0652 475.0686,-288.9986"/>
</g>
<!-- Node26 -->
<g id="node15" class="node">
<title>Node26</title>
<g id="a_node15"><a xlink:href="slew_8c.html#a807a87c5df438fde21c1e8213906695b" target="_top" xlink:title="Closes the distance between the desired motor value and the current motor value by half for each moto...">
<polygon fill="none" stroke="#000000" points="464.7676,-65.5 464.7676,-83.5 541.915,-83.5 541.915,-65.5 464.7676,-65.5"/>
<text text-anchor="middle" x="503.3413" y="-71.5" font-family="Helvetica,sans-Serif" font-size="10.00" fill="#000000">updateMotors</text>
</a>
</g>
</g>
<!-- Node17&#45;&gt;Node26 -->
<g id="edge16" class="edge">
<title>Node17&#45;&gt;Node26</title>
<path fill="none" stroke="#191970" d="M409.9193,-178.2527C427.0716,-159.2037 466.5542,-115.355 488.2984,-91.2064"/>
<polygon fill="#191970" stroke="#191970" points="491.0937,-93.3326 495.1841,-83.5592 485.8917,-88.6486 491.0937,-93.3326"/>
</g>
<!-- Node19 -->
<g id="node8" class="node">
<title>Node19</title>
<g id="a_node8"><a xlink:href="log_8c.html#afff22aff6749311a684a559cac3ac8bd" target="_top" xlink:title="log_info">
<polygon fill="none" stroke="#000000" points="584.5776,-216.5 584.5776,-234.5 635.6069,-234.5 635.6069,-216.5 584.5776,-216.5"/>
<text text-anchor="middle" x="610.0923" y="-222.5" font-family="Helvetica,sans-Serif" font-size="10.00" fill="#000000">log_info</text>
</a>
</g>
</g>
<!-- Node18&#45;&gt;Node19 -->
<g id="edge7" class="edge">
<title>Node18&#45;&gt;Node19</title>
<path fill="none" stroke="#191970" d="M528.9108,-224.7395C542.4115,-224.866 559.2051,-225.0233 574.0091,-225.162"/>
<polygon fill="#191970" stroke="#191970" points="574.329,-228.665 584.3614,-225.259 574.3947,-221.6653 574.329,-228.665"/>
</g>
<!-- Node19&#45;&gt;Node16 -->
<g id="edge8" class="edge">
<title>Node19&#45;&gt;Node16</title>
<path fill="none" stroke="#191970" d="M635.6889,-234.0815C652.4028,-239.6851 674.2579,-247.0122 691.5899,-252.823"/>
<polygon fill="#191970" stroke="#191970" points="690.6051,-256.1842 701.199,-256.0445 692.8302,-249.5473 690.6051,-256.1842"/>
</g>
<!-- Node20 -->
<g id="node9" class="node">
<title>Node20</title>
<g id="a_node9"><a xlink:href="_a_p_i_8h.html#aab53a247d88151a6623c20fa1ea940b0" target="_top" xlink:title="lcdSetBacklight">
<polygon fill="none" stroke="#000000" points="678.2695,-216.5 678.2695,-234.5 762.6387,-234.5 762.6387,-216.5 678.2695,-216.5"/>
<text text-anchor="middle" x="720.4541" y="-222.5" font-family="Helvetica,sans-Serif" font-size="10.00" fill="#000000">lcdSetBacklight</text>
</a>
</g>
</g>
<!-- Node19&#45;&gt;Node20 -->
<g id="edge9" class="edge">
<title>Node19&#45;&gt;Node20</title>
<path fill="none" stroke="#191970" d="M635.6889,-225.5C645.3417,-225.5 656.7094,-225.5 667.9302,-225.5"/>
<polygon fill="#191970" stroke="#191970" points="668.1404,-229.0001 678.1404,-225.5 668.1404,-222.0001 668.1404,-229.0001"/>
</g>
<!-- Node21 -->
<g id="node10" class="node">
<title>Node21</title>
<g id="a_node10"><a xlink:href="_a_p_i_8h.html#a5fa1d119fe3e836b5519f97eae7a1272" target="_top" xlink:title="lcdClear">
<polygon fill="none" stroke="#000000" points="694.1143,-179.5 694.1143,-197.5 746.7939,-197.5 746.7939,-179.5 694.1143,-179.5"/>
<text text-anchor="middle" x="720.4541" y="-185.5" font-family="Helvetica,sans-Serif" font-size="10.00" fill="#000000">lcdClear</text>
</a>
</g>
</g>
<!-- Node19&#45;&gt;Node21 -->
<g id="edge10" class="edge">
<title>Node19&#45;&gt;Node21</title>
<path fill="none" stroke="#191970" d="M635.6889,-216.9185C650.1373,-212.0745 668.4277,-205.9424 684.3169,-200.6154"/>
<polygon fill="#191970" stroke="#191970" points="685.4753,-203.9185 693.8441,-197.4213 683.2502,-197.2816 685.4753,-203.9185"/>
</g>
<!-- Node23&#45;&gt;Node16 -->
<g id="edge13" class="edge">
<title>Node23&#45;&gt;Node16</title>
<path fill="none" stroke="#191970" d="M626.3766,-262.5C643.3281,-262.5 670.2439,-262.5 690.951,-262.5"/>
<polygon fill="#191970" stroke="#191970" points="691.128,-266.0001 701.128,-262.5 691.1279,-259.0001 691.128,-266.0001"/>
</g>
<!-- Node26&#45;&gt;Node27 -->
<g id="edge17" class="edge">
<title>Node26&#45;&gt;Node27</title>
<path fill="none" stroke="#191970" d="M542.1828,-81.4132C550.4898,-82.8917 559.3051,-84.4607 567.7369,-85.9614"/>
<polygon fill="#191970" stroke="#191970" points="567.3129,-89.4409 577.7715,-87.7474 568.5396,-82.5492 567.3129,-89.4409"/>
</g>
<!-- Node26&#45;&gt;Node28 -->
<g id="edge18" class="edge">
<title>Node26&#45;&gt;Node28</title>
<path fill="none" stroke="#191970" d="M537.7056,-65.4865C547.3967,-62.9446 558.0497,-60.1504 568.1325,-57.5057"/>
<polygon fill="#191970" stroke="#191970" points="569.1837,-60.8485 577.9685,-54.9258 567.4077,-54.0775 569.1837,-60.8485"/>
</g>
<!-- Node26&#45;&gt;Node29 -->
<g id="edge19" class="edge">
<title>Node26&#45;&gt;Node29</title>
<path fill="none" stroke="#191970" d="M517.2257,-65.4439C532.1016,-55.8134 556.471,-40.2437 577.915,-27.5 579.9269,-26.3044 582.0205,-25.0831 584.1314,-23.8679"/>
<polygon fill="#191970" stroke="#191970" points="586.3198,-26.6509 593.2967,-18.6776 582.8704,-20.5598 586.3198,-26.6509"/>
</g>
</g>
</svg>
        <g id="navigator" transform="translate(0 0)" fill="#404254">
                <rect fill="#f2f5e9" fill-opacity="0.5" stroke="#606060" stroke-width=".5" x="0" y="0" width="60" height="60"/>
                <use id="zoomplus" xlink:href="#zoomPlus" x="17" y="9" onmousedown="handleZoom(evt,'in')"/>
                <use id="zoomminus" xlink:href="#zoomMin" x="42" y="9" onmousedown="handleZoom(evt,'out')"/>
                <use id="reset" xlink:href="#resetDef" x="30" y="36" onmousedown="handleReset()"/>
                <g id="arrowUp" xlink:href="#dirArrow" transform="translate(30 24)" onmousedown="handlePan(0,-1)">
                  <use xlink:href="#rim" fill="#404040">
                        <set attributeName="fill" to="#808080" begin="arrowUp.mouseover" end="arrowUp.mouseout"/>
                  </use>
                  <path fill="none" stroke="white" stroke-width="1.5" d="M0,-3.0v7 M-2.5,-0.5L0,-3.0L2.5,-0.5"/>
                </g>
                <g id="arrowRight" xlink:href="#dirArrow" transform="rotate(90) translate(36 -43)" onmousedown="handlePan(1,0)">
                  <use xlink:href="#rim" fill="#404040">
                        <set attributeName="fill" to="#808080" begin="arrowRight.mouseover" end="arrowRight.mouseout"/>
                  </use>
                  <path fill="none" stroke="white" stroke-width="1.5" d="M0,-3.0v7 M-2.5,-0.5L0,-3.0L2.5,-0.5"/>
                </g>
                <g id="arrowDown" xlink:href="#dirArrow" transform="rotate(180) translate(-30 -48)" onmousedown="handlePan(0,1)">
                  <use xlink:href="#rim" fill="#404040">
                        <set attributeName="fill" to="#808080" begin="arrowDown.mouseover" end="arrowDown.mouseout"/>
                  </use>
                  <path fill="none" stroke="white" stroke-width="1.5" d="M0,-3.0v7 M-2.5,-0.5L0,-3.0L2.5,-0.5"/>
                </g>
                <g id="arrowLeft" xlink:href="#dirArrow" transform="rotate(270) translate(-36 17)" onmousedown="handlePan(-1,0)">
                  <use xlink:href="#rim" fill="#404040">
                        <set attributeName="fill" to="#808080" begin="arrowLeft.mouseover" end="arrowLeft.mouseout"/>
                  </use>
                  <path fill="none" stroke="white" stroke-width="1.5" d="M0,-3.0v7 M-2.5,-0.5L0,-3.0L2.5,-0.5"/>
                </g>
        </g>
        <svg viewBox="0 0 15 15" width="100%" height="30px" preserveAspectRatio="xMaxYMin meet">
         <g id="arrow_out" transform="scale(0.3 0.3)">
          <a xlink:href="lifter_8c_aa7d2d04059f57cc5b8582f6fd0726dc1_cgraph_org.svg" target="_base">
           <rect id="button" ry="5" rx="5" y="6" x="6" height="38" width="38"
                fill="#f2f5e9" fill-opacity="0.5" stroke="#606060" stroke-width="1.0"/>
           <path id="arrow"
             d="M 11.500037,31.436501 C 11.940474,20.09759 22.043105,11.32322 32.158766,21.979434 L 37.068811,17.246167 C 37.068811,17.246167 37.088388,32 37.088388,32 L 22.160133,31.978069 C 22.160133,31.978069 26.997745,27.140456 26.997745,27.140456 C 18.528582,18.264221 13.291696,25.230495 11.500037,31.436501 z"
             style="fill:#404040;"/>
          </a>
         </g>
        </svg>
</svg>
