<?xml version="1.0" encoding="UTF-8" standalone="no"?>
<!DOCTYPE svg PUBLIC "-//W3C//DTD SVG 1.1//EN"
 "http://www.w3.org/Graphics/SVG/1.1/DTD/svg11.dtd">
<!-- Generated by graphviz version 2.40.1 (20161225.0304)
 -->
<!-- Title: src/lifter.c Pages: 1 -->
<!--zoomable 357 -->
<svg id="main" version="1.1" xmlns="http://www.w3.org/2000/svg" xmlns:xlink="http://www.w3.org/1999/xlink" xml:space="preserve" onload="init(evt)">
<style type="text/css"><![CDATA[
.edge:hover path { stroke: red; }
.edge:hover polygon { stroke: red; fill: red; }
]]></style>
<script type="text/javascript"><![CDATA[
var edges = document.getElementsByTagName('g');
if (edges && edges.length) {
  for (var i=0;i<edges.length;i++) {
    if (edges[i].id.substr(0,4)=='edge') {
      edges[i].setAttribute('class','edge');
    }
  }
}
]]></script>
        <defs>
                <circle id="rim" cx="0" cy="0" r="7"/>
                <circle id="rim2" cx="0" cy="0" r="3.5"/>
                <g id="zoomPlus">
                        <use xlink:href="#rim" fill="#404040">
                                <set attributeName="fill" to="#808080" begin="zoomplus.mouseover" end="zoomplus.mouseout"/>
                        </use>
                        <path d="M-4,0h8M0,-4v8" fill="none" stroke="white" stroke-width="1.5" pointer-events="none"/>
                </g>
                <g id="zoomMin">
                        <use xlink:href="#rim" fill="#404040">
                                <set attributeName="fill" to="#808080" begin="zoomminus.mouseover" end="zoomminus.mouseout"/>
                        </use>
                        <path d="M-4,0h8" fill="none" stroke="white" stroke-width="1.5" pointer-events="none"/>
                </g>
                <g id="dirArrow">
                        <path fill="none" stroke="white" stroke-width="1.5" d="M0,-3.0v7 M-2.5,-0.5L0,-3.0L2.5,-0.5"/>
                </g>
               <g id="resetDef">
                       <use xlink:href="#rim2" fill="#404040">
                               <set attributeName="fill" to="#808080" begin="reset.mouseover" end="reset.mouseout"/>
                       </use>
               </g>
        </defs>

<script type="text/javascript">
var viewWidth = 599;
var viewHeight = 357;
var sectionId = 'dynsection-0';
</script>
<script xlink:href="svgpan.js"/>
<svg id="graph" class="graph">
<g id="viewport">
<title>src/lifter.c</title>
<!-- Node0 -->
<g id="node1" class="node">
<title>Node0</title>
<polygon fill="#bfbfbf" stroke="#000000" points="226.1699,-330.5 226.1699,-348.5 284.4014,-348.5 284.4014,-330.5 226.1699,-330.5"/>
<text text-anchor="middle" x="255.2856" y="-336.5" font-family="Helvetica,sans-Serif" font-size="10.00" fill="#000000">src/lifter.c</text>
</g>
<!-- Node1 -->
<g id="node2" class="node">
<title>Node1</title>
<g id="a_node2"><a xlink:href="lifter_8h.html" target="_top" xlink:title="lifter.h">
<polygon fill="none" stroke="#000000" points="233.9434,-275.5 233.9434,-293.5 276.6279,-293.5 276.6279,-275.5 233.9434,-275.5"/>
<text text-anchor="middle" x="255.2856" y="-281.5" font-family="Helvetica,sans-Serif" font-size="10.00" fill="#000000">lifter.h</text>
</a>
</g>
</g>
<!-- Node0&#45;&gt;Node1 -->
<g id="edge1" class="edge">
<title>Node0&#45;&gt;Node1</title>
<path fill="none" stroke="#191970" d="M255.2856,-330.4179C255.2856,-323.2164 255.2856,-312.8962 255.2856,-303.8632"/>
<polygon fill="#191970" stroke="#191970" points="258.7857,-303.7794 255.2856,-293.7795 251.7857,-303.7795 258.7857,-303.7794"/>
</g>
<!-- Node2 -->
<g id="node3" class="node">
<title>Node2</title>
<g id="a_node3"><a xlink:href="_a_p_i_8h.html" target="_top" xlink:title="Provides the high&#45;level user functionality intended for use by typical VEX Cortex programmers...">
<polygon fill="none" stroke="#000000" points="187.0566,-55.5 187.0566,-73.5 227.5146,-73.5 227.5146,-55.5 187.0566,-55.5"/>
<text text-anchor="middle" x="207.2856" y="-61.5" font-family="Helvetica,sans-Serif" font-size="10.00" fill="#000000">API.h</text>
</a>
</g>
</g>
<!-- Node1&#45;&gt;Node2 -->
<g id="edge2" class="edge">
<title>Node1&#45;&gt;Node2</title>
<path fill="none" stroke="#191970" d="M257.7044,-275.2934C260.6734,-262.7597 264.9999,-239.6374 262.2856,-220 255.3313,-169.6851 250.1277,-157.1691 231.2856,-110 227.5234,-100.5815 222.3762,-90.5655 217.8132,-82.3355"/>
<polygon fill="#191970" stroke="#191970" points="220.8431,-80.5834 212.8429,-73.6374 214.7654,-84.0564 220.8431,-80.5834"/>
</g>
<!-- Node7 -->
<g id="node8" class="node">
<title>Node7</title>
<g id="a_node8"><a xlink:href="motor__ports_8h.html" target="_top" xlink:title="motor_ports.h">
<polygon fill="none" stroke="#000000" points="309.4385,-220.5 309.4385,-238.5 387.1328,-238.5 387.1328,-220.5 309.4385,-220.5"/>
<text text-anchor="middle" x="348.2856" y="-226.5" font-family="Helvetica,sans-Serif" font-size="10.00" fill="#000000">motor_ports.h</text>
</a>
</g>
</g>
<!-- Node1&#45;&gt;Node7 -->
<g id="edge7" class="edge">
<title>Node1&#45;&gt;Node7</title>
<path fill="none" stroke="#191970" d="M270.6427,-275.4179C285.1817,-266.8195 307.2382,-253.7754 324.132,-243.7844"/>
<polygon fill="#191970" stroke="#191970" points="326.08,-246.6987 332.9058,-238.5956 322.5167,-240.6735 326.08,-246.6987"/>
</g>
<!-- Node8 -->
<g id="node9" class="node">
<title>Node8</title>
<g id="a_node9"><a xlink:href="sensor__ports_8h.html" target="_top" xlink:title="sensor_ports.h">
<polygon fill="none" stroke="#000000" points="405.2119,-220.5 405.2119,-238.5 487.3594,-238.5 487.3594,-220.5 405.2119,-220.5"/>
<text text-anchor="middle" x="446.2856" y="-226.5" font-family="Helvetica,sans-Serif" font-size="10.00" fill="#000000">sensor_ports.h</text>
</a>
</g>
</g>
<!-- Node1&#45;&gt;Node8 -->
<g id="edge8" class="edge">
<title>Node1&#45;&gt;Node8</title>
<path fill="none" stroke="#191970" d="M276.8245,-278.2977C307.7878,-269.3816 365.4781,-252.7692 404.8636,-241.4278"/>
<polygon fill="#191970" stroke="#191970" points="406.0622,-244.725 414.7032,-238.5944 404.1252,-237.9983 406.0622,-244.725"/>
</g>
<!-- Node9 -->
<g id="node10" class="node">
<title>Node9</title>
<g id="a_node10"><a xlink:href="slew_8h.html" target="_top" xlink:title="Contains the slew rate controller wrapper for the motors. ">
<polygon fill="none" stroke="#000000" points="37.3867,-165.5 37.3867,-183.5 81.1846,-183.5 81.1846,-165.5 37.3867,-165.5"/>
<text text-anchor="middle" x="59.2856" y="-171.5" font-family="Helvetica,sans-Serif" font-size="10.00" fill="#000000">slew.h</text>
</a>
</g>
</g>
<!-- Node1&#45;&gt;Node9 -->
<g id="edge9" class="edge">
<title>Node1&#45;&gt;Node9</title>
<path fill="none" stroke="#191970" d="M233.6836,-280.9662C205.165,-275.536 154.2507,-263.1364 117.2856,-239 98.4601,-226.7078 81.8659,-206.8158 71.3032,-192.369"/>
<polygon fill="#191970" stroke="#191970" points="73.8876,-189.9599 65.2701,-183.7963 68.1631,-193.9885 73.8876,-189.9599"/>
</g>
<!-- Node13 -->
<g id="node14" class="node">
<title>Node13</title>
<g id="a_node14"><a xlink:href="controller_8h.html" target="_top" xlink:title="controller definitions, macros ">
<polygon fill="none" stroke="#000000" points="112.8252,-110.5 112.8252,-128.5 177.7461,-128.5 177.7461,-110.5 112.8252,-110.5"/>
<text text-anchor="middle" x="145.2856" y="-116.5" font-family="Helvetica,sans-Serif" font-size="10.00" fill="#000000">controller.h</text>
</a>
</g>
</g>
<!-- Node1&#45;&gt;Node13 -->
<g id="edge16" class="edge">
<title>Node1&#45;&gt;Node13</title>
<path fill="none" stroke="#191970" d="M238.015,-275.4607C223.4008,-267.2561 202.4712,-254.1478 187.2856,-239 166.4277,-218.1939 159.9653,-211.8254 150.2856,-184 145.2053,-169.3958 144.1431,-151.8454 144.2466,-138.7412"/>
<polygon fill="#191970" stroke="#191970" points="147.7508,-138.6607 144.5659,-128.5559 140.7542,-138.4413 147.7508,-138.6607"/>
</g>
<!-- Node15 -->
<g id="node16" class="node">
<title>Node15</title>
<g id="a_node16"><a xlink:href="potentiometer_8h.html" target="_top" xlink:title="potentiometer.h">
<polygon fill="none" stroke="#000000" points="505.8154,-220.5 505.8154,-238.5 590.7559,-238.5 590.7559,-220.5 505.8154,-220.5"/>
<text text-anchor="middle" x="548.2856" y="-226.5" font-family="Helvetica,sans-Serif" font-size="10.00" fill="#000000">potentiometer.h</text>
</a>
</g>
</g>
<!-- Node1&#45;&gt;Node15 -->
<g id="edge20" class="edge">
<title>Node1&#45;&gt;Node15</title>
<path fill="none" stroke="#191970" d="M276.8306,-280.4557C322.5559,-271.8725 430.4435,-251.6205 495.5989,-239.39"/>
<polygon fill="#191970" stroke="#191970" points="496.4904,-242.7839 505.673,-237.499 495.1989,-235.904 496.4904,-242.7839"/>
</g>
<!-- Node16 -->
<g id="node17" class="node">
<title>Node16</title>
<g id="a_node17"><a xlink:href="partner_8h.html" target="_top" xlink:title="partner.h">
<polygon fill="none" stroke="#000000" points="159.5469,-165.5 159.5469,-183.5 215.0244,-183.5 215.0244,-165.5 159.5469,-165.5"/>
<text text-anchor="middle" x="187.2856" y="-171.5" font-family="Helvetica,sans-Serif" font-size="10.00" fill="#000000">partner.h</text>
</a>
</g>
</g>
<!-- Node1&#45;&gt;Node16 -->
<g id="edge21" class="edge">
<title>Node1&#45;&gt;Node16</title>
<path fill="none" stroke="#191970" d="M238.2287,-275.497C225.1342,-267.654 207.7437,-255.0311 198.2856,-239 190.1684,-225.2416 187.6498,-207.1359 187.0284,-193.6105"/>
<polygon fill="#191970" stroke="#191970" points="190.5266,-193.4667 186.8713,-183.5224 183.5275,-193.5757 190.5266,-193.4667"/>
</g>
<!-- Node17 -->
<g id="node18" class="node">
<title>Node17</title>
<g id="a_node18"><a xlink:href="drive_8h.html" target="_top" xlink:title="Drive base definitions and enumerations. ">
<polygon fill="none" stroke="#000000" points="207.2783,-220.5 207.2783,-238.5 253.293,-238.5 253.293,-220.5 207.2783,-220.5"/>
<text text-anchor="middle" x="230.2856" y="-226.5" font-family="Helvetica,sans-Serif" font-size="10.00" fill="#000000">drive.h</text>
</a>
</g>
</g>
<!-- Node1&#45;&gt;Node17 -->
<g id="edge24" class="edge">
<title>Node1&#45;&gt;Node17</title>
<path fill="none" stroke="#191970" d="M251.1574,-275.4179C247.7761,-267.9789 242.8822,-257.2123 238.683,-247.9742"/>
<polygon fill="#191970" stroke="#191970" points="241.828,-246.4348 234.5036,-238.7795 235.4554,-249.3315 241.828,-246.4348"/>
</g>
<!-- Node3 -->
<g id="node4" class="node">
<title>Node3</title>
<polygon fill="none" stroke="#bfbfbf" points="156.4434,-.5 156.4434,-18.5 204.1279,-18.5 204.1279,-.5 156.4434,-.5"/>
<text text-anchor="middle" x="180.2856" y="-6.5" font-family="Helvetica,sans-Serif" font-size="10.00" fill="#000000">stdlib.h</text>
</g>
<!-- Node2&#45;&gt;Node3 -->
<g id="edge3" class="edge">
<title>Node2&#45;&gt;Node3</title>
<path fill="none" stroke="#191970" d="M202.8271,-55.4179C199.1753,-47.9789 193.8899,-37.2123 189.3548,-27.9742"/>
<polygon fill="#191970" stroke="#191970" points="192.3896,-26.2138 184.841,-18.7795 186.106,-29.2985 192.3896,-26.2138"/>
</g>
<!-- Node4 -->
<g id="node5" class="node">
<title>Node4</title>
<polygon fill="none" stroke="#bfbfbf" points="221.9927,-.5 221.9927,-18.5 278.5786,-18.5 278.5786,-.5 221.9927,-.5"/>
<text text-anchor="middle" x="250.2856" y="-6.5" font-family="Helvetica,sans-Serif" font-size="10.00" fill="#000000">stdbool.h</text>
</g>
<!-- Node2&#45;&gt;Node4 -->
<g id="edge4" class="edge">
<title>Node2&#45;&gt;Node4</title>
<path fill="none" stroke="#191970" d="M214.3862,-55.4179C220.4496,-47.6624 229.3407,-36.29 236.7575,-26.8035"/>
<polygon fill="#191970" stroke="#191970" points="239.6289,-28.8133 243.0308,-18.7795 234.1142,-24.5018 239.6289,-28.8133"/>
</g>
<!-- Node5 -->
<g id="node6" class="node">
<title>Node5</title>
<polygon fill="none" stroke="#bfbfbf" points="296.2192,-.5 296.2192,-18.5 348.3521,-18.5 348.3521,-.5 296.2192,-.5"/>
<text text-anchor="middle" x="322.2856" y="-6.5" font-family="Helvetica,sans-Serif" font-size="10.00" fill="#000000">stdarg.h</text>
</g>
<!-- Node2&#45;&gt;Node5 -->
<g id="edge5" class="edge">
<title>Node2&#45;&gt;Node5</title>
<path fill="none" stroke="#191970" d="M226.2756,-55.4179C244.7533,-46.5807 273.0504,-33.0473 294.144,-22.9591"/>
<polygon fill="#191970" stroke="#191970" points="295.7563,-26.0677 303.2675,-18.5956 292.7361,-19.7528 295.7563,-26.0677"/>
</g>
<!-- Node6 -->
<g id="node7" class="node">
<title>Node6</title>
<polygon fill="none" stroke="#bfbfbf" points="90.165,-.5 90.165,-18.5 138.4063,-18.5 138.4063,-.5 90.165,-.5"/>
<text text-anchor="middle" x="114.2856" y="-6.5" font-family="Helvetica,sans-Serif" font-size="10.00" fill="#000000">stdint.h</text>
</g>
<!-- Node2&#45;&gt;Node6 -->
<g id="edge6" class="edge">
<title>Node2&#45;&gt;Node6</title>
<path fill="none" stroke="#191970" d="M191.9286,-55.4179C177.3896,-46.8195 155.3331,-33.7754 138.4393,-23.7844"/>
<polygon fill="#191970" stroke="#191970" points="140.0546,-20.6735 129.6655,-18.5956 136.4913,-26.6987 140.0546,-20.6735"/>
</g>
<!-- Node9&#45;&gt;Node2 -->
<g id="edge10" class="edge">
<title>Node9&#45;&gt;Node2</title>
<path fill="none" stroke="#191970" d="M63.5831,-165.4068C70.4502,-151.7319 85.1012,-125.795 104.2856,-110 115.9952,-100.3593 151.3538,-85.6883 177.3892,-75.6275"/>
<polygon fill="#191970" stroke="#191970" points="178.7489,-78.8548 186.8422,-72.0175 176.2516,-72.3155 178.7489,-78.8548"/>
</g>
<!-- Node10 -->
<g id="node11" class="node">
<title>Node10</title>
<polygon fill="none" stroke="#bfbfbf" points="0,-.5 0,-18.5 46.5713,-18.5 46.5713,-.5 0,-.5"/>
<text text-anchor="middle" x="23.2856" y="-6.5" font-family="Helvetica,sans-Serif" font-size="10.00" fill="#000000">math.h</text>
</g>
<!-- Node9&#45;&gt;Node10 -->
<g id="edge11" class="edge">
<title>Node9&#45;&gt;Node10</title>
<path fill="none" stroke="#191970" d="M43.052,-165.2743C30.9602,-157.3859 15.3681,-144.8101 8.2856,-129 -6.607,-95.7554 5.7176,-52.4145 15.1118,-28.1161"/>
<polygon fill="#191970" stroke="#191970" points="18.428,-29.2542 18.9921,-18.6744 11.9535,-26.5933 18.428,-29.2542"/>
</g>
<!-- Node11 -->
<g id="node12" class="node">
<title>Node11</title>
<g id="a_node12"><a xlink:href="vlib_8h.html" target="_top" xlink:title="Contains misc helpful functions. ">
<polygon fill="none" stroke="#000000" points="17.6133,-110.5 17.6133,-128.5 56.958,-128.5 56.958,-110.5 17.6133,-110.5"/>
<text text-anchor="middle" x="37.2856" y="-116.5" font-family="Helvetica,sans-Serif" font-size="10.00" fill="#000000">vlib.h</text>
</a>
</g>
</g>
<!-- Node9&#45;&gt;Node11 -->
<g id="edge12" class="edge">
<title>Node9&#45;&gt;Node11</title>
<path fill="none" stroke="#191970" d="M55.6528,-165.4179C52.7089,-158.0581 48.4621,-147.441 44.7934,-138.2695"/>
<polygon fill="#191970" stroke="#191970" points="47.9611,-136.7643 40.9974,-128.7795 41.4617,-139.3641 47.9611,-136.7643"/>
</g>
<!-- Node11&#45;&gt;Node2 -->
<g id="edge14" class="edge">
<title>Node11&#45;&gt;Node2</title>
<path fill="none" stroke="#191970" d="M57.3753,-113.048C83.0234,-104.8042 129.0111,-90.001 177.3204,-74.3048"/>
<polygon fill="#191970" stroke="#191970" points="178.58,-77.5757 187.0079,-71.1554 176.4157,-70.9187 178.58,-77.5757"/>
</g>
<!-- Node11&#45;&gt;Node10 -->
<g id="edge13" class="edge">
<title>Node11&#45;&gt;Node10</title>
<path fill="none" stroke="#191970" d="M36.14,-110.4982C33.8736,-92.6913 28.774,-52.6225 25.7231,-28.6515"/>
<polygon fill="#191970" stroke="#191970" points="29.1818,-28.1042 24.4472,-18.6261 22.2378,-28.988 29.1818,-28.1042"/>
</g>
<!-- Node12 -->
<g id="node13" class="node">
<title>Node12</title>
<polygon fill="none" stroke="#bfbfbf" points="50.8892,-55.5 50.8892,-73.5 99.6821,-73.5 99.6821,-55.5 50.8892,-55.5"/>
<text text-anchor="middle" x="75.2856" y="-61.5" font-family="Helvetica,sans-Serif" font-size="10.00" fill="#000000">string.h</text>
</g>
<!-- Node11&#45;&gt;Node12 -->
<g id="edge15" class="edge">
<title>Node11&#45;&gt;Node12</title>
<path fill="none" stroke="#191970" d="M43.5606,-110.4179C48.8642,-102.7415 56.6161,-91.5217 63.1295,-82.0945"/>
<polygon fill="#191970" stroke="#191970" points="66.0696,-83.9963 68.8744,-73.7795 60.3105,-80.0173 66.0696,-83.9963"/>
</g>
<!-- Node13&#45;&gt;Node2 -->
<g id="edge19" class="edge">
<title>Node13&#45;&gt;Node2</title>
<path fill="none" stroke="#191970" d="M155.5237,-110.4179C164.6231,-102.3458 178.1393,-90.3556 189.0783,-80.6517"/>
<polygon fill="#191970" stroke="#191970" points="191.6671,-83.0339 196.8252,-73.7795 187.0217,-77.7974 191.6671,-83.0339"/>
</g>
<!-- Node14 -->
<g id="node15" class="node">
<title>Node14</title>
<g id="a_node15"><a xlink:href="vmath_8h.html" target="_top" xlink:title="Vex Specific Math Functions, includes: Cartesian to polar cordinates. ">
<polygon fill="none" stroke="#000000" points="117.5,-55.5 117.5,-73.5 169.0713,-73.5 169.0713,-55.5 117.5,-55.5"/>
<text text-anchor="middle" x="143.2856" y="-61.5" font-family="Helvetica,sans-Serif" font-size="10.00" fill="#000000">vmath.h</text>
</a>
</g>
</g>
<!-- Node13&#45;&gt;Node14 -->
<g id="edge17" class="edge">
<title>Node13&#45;&gt;Node14</title>
<path fill="none" stroke="#191970" d="M144.9554,-110.4179C144.6935,-103.2164 144.3182,-92.8962 143.9898,-83.8632"/>
<polygon fill="#191970" stroke="#191970" points="147.4843,-83.6456 143.6231,-73.7795 140.4889,-83.9001 147.4843,-83.6456"/>
</g>
<!-- Node14&#45;&gt;Node10 -->
<g id="edge18" class="edge">
<title>Node14&#45;&gt;Node10</title>
<path fill="none" stroke="#191970" d="M123.4701,-55.4179C104.1021,-46.5409 74.3953,-32.9253 52.3539,-22.823"/>
<polygon fill="#191970" stroke="#191970" points="53.6796,-19.5805 43.1306,-18.5956 50.763,-25.944 53.6796,-19.5805"/>
</g>
<!-- Node16&#45;&gt;Node2 -->
<g id="edge23" class="edge">
<title>Node16&#45;&gt;Node2</title>
<path fill="none" stroke="#191970" d="M188.9223,-165.4982C192.1599,-147.6913 199.4452,-107.6225 203.8036,-83.6515"/>
<polygon fill="#191970" stroke="#191970" points="207.281,-84.091 205.6263,-73.6261 200.3939,-82.8387 207.281,-84.091"/>
</g>
<!-- Node16&#45;&gt;Node13 -->
<g id="edge22" class="edge">
<title>Node16&#45;&gt;Node13</title>
<path fill="none" stroke="#191970" d="M180.3502,-165.4179C174.4278,-157.6624 165.7435,-146.29 158.4992,-136.8035"/>
<polygon fill="#191970" stroke="#191970" points="161.2226,-134.6029 152.3718,-128.7795 155.6593,-138.8514 161.2226,-134.6029"/>
</g>
<!-- Node17&#45;&gt;Node2 -->
<g id="edge25" class="edge">
<title>Node17&#45;&gt;Node2</title>
<path fill="none" stroke="#191970" d="M229.6467,-220.2901C228.7273,-207.7526 226.8547,-184.626 224.2856,-165 220.5627,-136.5596 214.739,-103.844 210.9673,-83.6686"/>
<polygon fill="#191970" stroke="#191970" points="214.3622,-82.785 209.0622,-73.6112 207.4845,-84.0879 214.3622,-82.785"/>
</g>
<!-- Node17&#45;&gt;Node16 -->
<g id="edge26" class="edge">
<title>Node17&#45;&gt;Node16</title>
<path fill="none" stroke="#191970" d="M223.1851,-220.4179C217.1217,-212.6624 208.2306,-201.29 200.8138,-191.8035"/>
<polygon fill="#191970" stroke="#191970" points="203.4571,-189.5018 194.5405,-183.7795 197.9424,-193.8133 203.4571,-189.5018"/>
</g>
</g>
</svg>
        <g id="navigator" transform="translate(0 0)" fill="#404254">
                <rect fill="#f2f5e9" fill-opacity="0.5" stroke="#606060" stroke-width=".5" x="0" y="0" width="60" height="60"/>
                <use id="zoomplus" xlink:href="#zoomPlus" x="17" y="9" onmousedown="handleZoom(evt,'in')"/>
                <use id="zoomminus" xlink:href="#zoomMin" x="42" y="9" onmousedown="handleZoom(evt,'out')"/>
                <use id="reset" xlink:href="#resetDef" x="30" y="36" onmousedown="handleReset()"/>
                <g id="arrowUp" xlink:href="#dirArrow" transform="translate(30 24)" onmousedown="handlePan(0,-1)">
                  <use xlink:href="#rim" fill="#404040">
                        <set attributeName="fill" to="#808080" begin="arrowUp.mouseover" end="arrowUp.mouseout"/>
                  </use>
                  <path fill="none" stroke="white" stroke-width="1.5" d="M0,-3.0v7 M-2.5,-0.5L0,-3.0L2.5,-0.5"/>
                </g>
                <g id="arrowRight" xlink:href="#dirArrow" transform="rotate(90) translate(36 -43)" onmousedown="handlePan(1,0)">
                  <use xlink:href="#rim" fill="#404040">
                        <set attributeName="fill" to="#808080" begin="arrowRight.mouseover" end="arrowRight.mouseout"/>
                  </use>
                  <path fill="none" stroke="white" stroke-width="1.5" d="M0,-3.0v7 M-2.5,-0.5L0,-3.0L2.5,-0.5"/>
                </g>
                <g id="arrowDown" xlink:href="#dirArrow" transform="rotate(180) translate(-30 -48)" onmousedown="handlePan(0,1)">
                  <use xlink:href="#rim" fill="#404040">
                        <set attributeName="fill" to="#808080" begin="arrowDown.mouseover" end="arrowDown.mouseout"/>
                  </use>
                  <path fill="none" stroke="white" stroke-width="1.5" d="M0,-3.0v7 M-2.5,-0.5L0,-3.0L2.5,-0.5"/>
                </g>
                <g id="arrowLeft" xlink:href="#dirArrow" transform="rotate(270) translate(-36 17)" onmousedown="handlePan(-1,0)">
                  <use xlink:href="#rim" fill="#404040">
                        <set attributeName="fill" to="#808080" begin="arrowLeft.mouseover" end="arrowLeft.mouseout"/>
                  </use>
                  <path fill="none" stroke="white" stroke-width="1.5" d="M0,-3.0v7 M-2.5,-0.5L0,-3.0L2.5,-0.5"/>
                </g>
        </g>
        <svg viewBox="0 0 15 15" width="100%" height="30px" preserveAspectRatio="xMaxYMin meet">
         <g id="arrow_out" transform="scale(0.3 0.3)">
          <a xlink:href="lifter_8c__incl_org.svg" target="_base">
           <rect id="button" ry="5" rx="5" y="6" x="6" height="38" width="38"
                fill="#f2f5e9" fill-opacity="0.5" stroke="#606060" stroke-width="1.0"/>
           <path id="arrow"
             d="M 11.500037,31.436501 C 11.940474,20.09759 22.043105,11.32322 32.158766,21.979434 L 37.068811,17.246167 C 37.068811,17.246167 37.088388,32 37.088388,32 L 22.160133,31.978069 C 22.160133,31.978069 26.997745,27.140456 26.997745,27.140456 C 18.528582,18.264221 13.291696,25.230495 11.500037,31.436501 z"
             style="fill:#404040;"/>
          </a>
         </g>
        </svg>
</svg>
