<?xml version="1.0" encoding="UTF-8" standalone="no"?>
<!DOCTYPE svg PUBLIC "-//W3C//DTD SVG 1.1//EN"
 "http://www.w3.org/Graphics/SVG/1.1/DTD/svg11.dtd">
<!-- Generated by graphviz version 2.40.1 (20161225.0304)
 -->
<!-- Title: raise_lifter Pages: 1 -->
<svg width="289pt" height="27pt"
 viewBox="0.00 0.00 288.62 27.00" xmlns="http://www.w3.org/2000/svg" xmlns:xlink="http://www.w3.org/1999/xlink">
<g id="graph0" class="graph" transform="scale(1 1) rotate(0) translate(4 23)">
<title>raise_lifter</title>
<!-- Node6 -->
<g id="node1" class="node">
<title>Node6</title>
<polygon fill="#bfbfbf" stroke="#000000" points="0,-.5 0,-18.5 62.1279,-18.5 62.1279,-.5 0,-.5"/>
<text text-anchor="middle" x="31.064" y="-6.5" font-family="Helvetica,sans-Serif" font-size="10.00" fill="#000000">raise_lifter</text>
</g>
<!-- Node7 -->
<g id="node2" class="node">
<title>Node7</title>
<g id="a_node2"><a xlink:href="lifter_8c.html#aa62603df4d54dff2d7fd472d699e9b2e" target="_top" xlink:title="set_lifter_motors">
<polygon fill="none" stroke="#000000" points="98.1279,-.5 98.1279,-18.5 188.0439,-18.5 188.0439,-.5 98.1279,-.5"/>
<text text-anchor="middle" x="143.0859" y="-6.5" font-family="Helvetica,sans-Serif" font-size="10.00" fill="#000000">set_lifter_motors</text>
</a>
</g>
</g>
<!-- Node6&#45;&gt;Node7 -->
<g id="edge1" class="edge">
<title>Node6&#45;&gt;Node7</title>
<path fill="none" stroke="#191970" d="M62.2683,-9.5C70.1786,-9.5 78.9162,-9.5 87.6356,-9.5"/>
<polygon fill="#191970" stroke="#191970" points="87.8125,-13.0001 97.8124,-9.5 87.8124,-6.0001 87.8125,-13.0001"/>
</g>
<!-- Node8 -->
<g id="node3" class="node">
<title>Node8</title>
<g id="a_node3"><a xlink:href="_a_p_i_8h.html#a03c5b04b472d024281f62d7af8854a8e" target="_top" xlink:title="motorSet">
<polygon fill="none" stroke="#000000" points="224.0439,-.5 224.0439,-18.5 280.6152,-18.5 280.6152,-.5 224.0439,-.5"/>
<text text-anchor="middle" x="252.3296" y="-6.5" font-family="Helvetica,sans-Serif" font-size="10.00" fill="#000000">motorSet</text>
</a>
</g>
</g>
<!-- Node7&#45;&gt;Node8 -->
<g id="edge2" class="edge">
<title>Node7&#45;&gt;Node8</title>
<path fill="none" stroke="#191970" d="M188.1502,-9.5C196.6633,-9.5 205.4961,-9.5 213.7863,-9.5"/>
<polygon fill="#191970" stroke="#191970" points="213.9323,-13.0001 223.9323,-9.5 213.9323,-6.0001 213.9323,-13.0001"/>
</g>
</g>
</svg>
