<?xml version="1.0" encoding="UTF-8" standalone="no"?>
<!DOCTYPE svg PUBLIC "-//W3C//DTD SVG 1.1//EN"
 "http://www.w3.org/Graphics/SVG/1.1/DTD/svg11.dtd">
<!-- Generated by graphviz version 2.40.1 (20161225.0304)
 -->
<!-- Title: quit_auto_static Pages: 1 -->
<svg width="346pt" height="27pt"
 viewBox="0.00 0.00 346.47 27.00" xmlns="http://www.w3.org/2000/svg" xmlns:xlink="http://www.w3.org/1999/xlink">
<g id="graph0" class="graph" transform="scale(1 1) rotate(0) translate(4 23)">
<title>quit_auto_static</title>
<!-- Node132 -->
<g id="node1" class="node">
<title>Node132</title>
<polygon fill="#bfbfbf" stroke="#000000" points="0,-.5 0,-18.5 86.0488,-18.5 86.0488,-.5 0,-.5"/>
<text text-anchor="middle" x="43.0244" y="-6.5" font-family="Helvetica,sans-Serif" font-size="10.00" fill="#000000">quit_auto_static</text>
</g>
<!-- Node133 -->
<g id="node2" class="node">
<title>Node133</title>
<g id="a_node2"><a xlink:href="lifter_8c.html#a8a64fa88b389b39c236c5c57a7fb5c67" target="_top" xlink:title="Autostacks a cone once picked up. ">
<polygon fill="none" stroke="#000000" points="122.0488,-.5 122.0488,-18.5 216.9893,-18.5 216.9893,-.5 122.0488,-.5"/>
<text text-anchor="middle" x="169.519" y="-6.5" font-family="Helvetica,sans-Serif" font-size="10.00" fill="#000000">autostack_routine</text>
</a>
</g>
</g>
<!-- Node132&#45;&gt;Node133 -->
<g id="edge1" class="edge">
<title>Node132&#45;&gt;Node133</title>
<path fill="none" stroke="#191970" d="M96.3371,-9.5C104.778,-9.5 113.461,-9.5 121.7645,-9.5"/>
<polygon fill="#191970" stroke="#191970" points="96.2029,-6.0001 86.2029,-9.5 96.2029,-13.0001 96.2029,-6.0001"/>
</g>
<!-- Node134 -->
<g id="node3" class="node">
<title>Node134</title>
<g id="a_node3"><a xlink:href="opcontrol_8c.html#ac71a94af413917f27d108e95c4d6f6a7" target="_top" xlink:title="Runs the user operator control code. ">
<polygon fill="none" stroke="#000000" points="252.9893,-.5 252.9893,-18.5 338.4717,-18.5 338.4717,-.5 252.9893,-.5"/>
<text text-anchor="middle" x="295.7305" y="-6.5" font-family="Helvetica,sans-Serif" font-size="10.00" fill="#000000">operatorControl</text>
</a>
</g>
</g>
<!-- Node133&#45;&gt;Node134 -->
<g id="edge2" class="edge">
<title>Node133&#45;&gt;Node134</title>
<path fill="none" stroke="#191970" d="M227.2693,-9.5C235.9038,-9.5 244.673,-9.5 252.924,-9.5"/>
<polygon fill="#191970" stroke="#191970" points="227.2342,-6.0001 217.2342,-9.5 227.2341,-13.0001 227.2342,-6.0001"/>
</g>
</g>
</svg>
