<?xml version="1.0" encoding="UTF-8" standalone="no"?>
<!DOCTYPE svg PUBLIC "-//W3C//DTD SVG 1.1//EN"
 "http://www.w3.org/Graphics/SVG/1.1/DTD/svg11.dtd">
<!-- Generated by graphviz version 2.40.1 (20161225.0304)
 -->
<!-- Title: update_lifter Pages: 1 -->
<svg width="426pt" height="140pt"
 viewBox="0.00 0.00 426.22 140.00" xmlns="http://www.w3.org/2000/svg" xmlns:xlink="http://www.w3.org/1999/xlink">
<g id="graph0" class="graph" transform="scale(1 1) rotate(0) translate(4 136)">
<title>update_lifter</title>
<!-- Node21 -->
<g id="node1" class="node">
<title>Node21</title>
<polygon fill="#bfbfbf" stroke="#000000" points="0,-57.5 0,-75.5 71.0391,-75.5 71.0391,-57.5 0,-57.5"/>
<text text-anchor="middle" x="35.5195" y="-63.5" font-family="Helvetica,sans-Serif" font-size="10.00" fill="#000000">update_lifter</text>
</g>
<!-- Node22 -->
<g id="node2" class="node">
<title>Node22</title>
<g id="a_node2"><a xlink:href="_a_p_i_8h.html#a792f1a80c62a63e764cf64aabf95db92" target="_top" xlink:title="joystickGetDigital">
<polygon fill="none" stroke="#000000" points="107.0391,-113.5 107.0391,-131.5 199.7285,-131.5 199.7285,-113.5 107.0391,-113.5"/>
<text text-anchor="middle" x="153.3838" y="-119.5" font-family="Helvetica,sans-Serif" font-size="10.00" fill="#000000">joystickGetDigital</text>
</a>
</g>
</g>
<!-- Node21&#45;&gt;Node22 -->
<g id="edge1" class="edge">
<title>Node21&#45;&gt;Node22</title>
<path fill="none" stroke="#191970" d="M51.4373,-75.6546C65.7537,-83.7193 87.4799,-95.5433 107.0391,-104.5 110.73,-106.1902 114.629,-107.8669 118.5349,-109.4779"/>
<polygon fill="#191970" stroke="#191970" points="117.5594,-112.8572 128.1443,-113.318 120.1571,-106.357 117.5594,-112.8572"/>
</g>
<!-- Node23 -->
<g id="node3" class="node">
<title>Node23</title>
<g id="a_node3"><a xlink:href="lifter_8c.html#aa7d2d04059f57cc5b8582f6fd0726dc1" target="_top" xlink:title="lower_lifter">
<polygon fill="none" stroke="#000000" points="121.209,-76.5 121.209,-94.5 185.5586,-94.5 185.5586,-76.5 121.209,-76.5"/>
<text text-anchor="middle" x="153.3838" y="-82.5" font-family="Helvetica,sans-Serif" font-size="10.00" fill="#000000">lower_lifter</text>
</a>
</g>
</g>
<!-- Node21&#45;&gt;Node23 -->
<g id="edge2" class="edge">
<title>Node21&#45;&gt;Node23</title>
<path fill="none" stroke="#191970" d="M71.2025,-72.2522C83.7129,-74.2689 97.8878,-76.5539 110.8999,-78.6515"/>
<polygon fill="#191970" stroke="#191970" points="110.6023,-82.1486 121.0319,-80.2848 111.7164,-75.2379 110.6023,-82.1486"/>
</g>
<!-- Node24 -->
<g id="node4" class="node">
<title>Node24</title>
<g id="a_node4"><a xlink:href="lifter_8c.html#aa62603df4d54dff2d7fd472d699e9b2e" target="_top" xlink:title="set_lifter_motors">
<polygon fill="none" stroke="#000000" points="235.7285,-38.5 235.7285,-56.5 325.6445,-56.5 325.6445,-38.5 235.7285,-38.5"/>
<text text-anchor="middle" x="280.6865" y="-44.5" font-family="Helvetica,sans-Serif" font-size="10.00" fill="#000000">set_lifter_motors</text>
</a>
</g>
</g>
<!-- Node21&#45;&gt;Node24 -->
<g id="edge7" class="edge">
<title>Node21&#45;&gt;Node24</title>
<path fill="none" stroke="#191970" d="M71.1689,-63.7372C111.6277,-60.6018 178.1171,-55.4489 225.336,-51.7896"/>
<polygon fill="#191970" stroke="#191970" points="225.7014,-55.2718 235.401,-51.0095 225.1604,-48.2928 225.7014,-55.2718"/>
</g>
<!-- Node26 -->
<g id="node6" class="node">
<title>Node26</title>
<g id="a_node6"><a xlink:href="lifter_8c.html#a7452163ed7946b6262f41de51c62dfd4" target="_top" xlink:title="raise_lifter">
<polygon fill="none" stroke="#000000" points="122.3198,-.5 122.3198,-18.5 184.4478,-18.5 184.4478,-.5 122.3198,-.5"/>
<text text-anchor="middle" x="153.3838" y="-6.5" font-family="Helvetica,sans-Serif" font-size="10.00" fill="#000000">raise_lifter</text>
</a>
</g>
</g>
<!-- Node21&#45;&gt;Node26 -->
<g id="edge5" class="edge">
<title>Node21&#45;&gt;Node26</title>
<path fill="none" stroke="#191970" d="M54.1955,-57.4682C73.3073,-48.2256 103.239,-33.7504 125.2264,-23.1171"/>
<polygon fill="#191970" stroke="#191970" points="126.9262,-26.1829 134.4049,-18.6783 123.8786,-19.8812 126.9262,-26.1829"/>
</g>
<!-- Node23&#45;&gt;Node24 -->
<g id="edge3" class="edge">
<title>Node23&#45;&gt;Node24</title>
<path fill="none" stroke="#191970" d="M183.5528,-76.4945C200.6297,-71.3971 222.2015,-64.9578 240.6762,-59.4431"/>
<polygon fill="#191970" stroke="#191970" points="241.7119,-62.7867 250.2929,-56.5725 239.7096,-56.0791 241.7119,-62.7867"/>
</g>
<!-- Node25 -->
<g id="node5" class="node">
<title>Node25</title>
<g id="a_node5"><a xlink:href="_a_p_i_8h.html#a03c5b04b472d024281f62d7af8854a8e" target="_top" xlink:title="motorSet">
<polygon fill="none" stroke="#000000" points="361.6445,-38.5 361.6445,-56.5 418.2158,-56.5 418.2158,-38.5 361.6445,-38.5"/>
<text text-anchor="middle" x="389.9302" y="-44.5" font-family="Helvetica,sans-Serif" font-size="10.00" fill="#000000">motorSet</text>
</a>
</g>
</g>
<!-- Node24&#45;&gt;Node25 -->
<g id="edge4" class="edge">
<title>Node24&#45;&gt;Node25</title>
<path fill="none" stroke="#191970" d="M325.7508,-47.5C334.2639,-47.5 343.0967,-47.5 351.3869,-47.5"/>
<polygon fill="#191970" stroke="#191970" points="351.5329,-51.0001 361.5329,-47.5 351.5329,-44.0001 351.5329,-51.0001"/>
</g>
<!-- Node26&#45;&gt;Node24 -->
<g id="edge6" class="edge">
<title>Node26&#45;&gt;Node24</title>
<path fill="none" stroke="#191970" d="M183.5528,-18.5055C200.6297,-23.6029 222.2015,-30.0422 240.6762,-35.5569"/>
<polygon fill="#191970" stroke="#191970" points="239.7096,-38.9209 250.2929,-38.4275 241.7119,-32.2133 239.7096,-38.9209"/>
</g>
</g>
</svg>
