<?xml version="1.0" encoding="UTF-8" standalone="no"?>
<!DOCTYPE svg PUBLIC "-//W3C//DTD SVG 1.1//EN"
 "http://www.w3.org/Graphics/SVG/1.1/DTD/svg11.dtd">
<!-- Generated by graphviz version 2.40.1 (20161225.0304)
 -->
<!-- Title: raise_lifter Pages: 1 -->
<svg width="299pt" height="27pt"
 viewBox="0.00 0.00 298.65 27.00" xmlns="http://www.w3.org/2000/svg" xmlns:xlink="http://www.w3.org/1999/xlink">
<g id="graph0" class="graph" transform="scale(1 1) rotate(0) translate(4 23)">
<title>raise_lifter</title>
<!-- Node39 -->
<g id="node1" class="node">
<title>Node39</title>
<polygon fill="#bfbfbf" stroke="#000000" points="0,-.5 0,-18.5 62.1279,-18.5 62.1279,-.5 0,-.5"/>
<text text-anchor="middle" x="31.064" y="-6.5" font-family="Helvetica,sans-Serif" font-size="10.00" fill="#000000">raise_lifter</text>
</g>
<!-- Node40 -->
<g id="node2" class="node">
<title>Node40</title>
<g id="a_node2"><a xlink:href="lifter_8c.html#a59bb7413777ca16aba124aaedf95c79b" target="_top" xlink:title="update_lifter">
<polygon fill="none" stroke="#000000" points="98.1279,-.5 98.1279,-18.5 169.167,-18.5 169.167,-.5 98.1279,-.5"/>
<text text-anchor="middle" x="133.6475" y="-6.5" font-family="Helvetica,sans-Serif" font-size="10.00" fill="#000000">update_lifter</text>
</a>
</g>
</g>
<!-- Node39&#45;&gt;Node40 -->
<g id="edge1" class="edge">
<title>Node39&#45;&gt;Node40</title>
<path fill="none" stroke="#191970" d="M72.4206,-9.5C80.8394,-9.5 89.6295,-9.5 97.8363,-9.5"/>
<polygon fill="#191970" stroke="#191970" points="72.3998,-6.0001 62.3998,-9.5 72.3998,-13.0001 72.3998,-6.0001"/>
</g>
<!-- Node41 -->
<g id="node3" class="node">
<title>Node41</title>
<g id="a_node3"><a xlink:href="opcontrol_8c.html#ac71a94af413917f27d108e95c4d6f6a7" target="_top" xlink:title="operatorControl">
<polygon fill="none" stroke="#000000" points="205.167,-.5 205.167,-18.5 290.6494,-18.5 290.6494,-.5 205.167,-.5"/>
<text text-anchor="middle" x="247.9082" y="-6.5" font-family="Helvetica,sans-Serif" font-size="10.00" fill="#000000">operatorControl</text>
</a>
</g>
</g>
<!-- Node40&#45;&gt;Node41 -->
<g id="edge2" class="edge">
<title>Node40&#45;&gt;Node41</title>
<path fill="none" stroke="#191970" d="M179.2228,-9.5C187.646,-9.5 196.4189,-9.5 204.7671,-9.5"/>
<polygon fill="#191970" stroke="#191970" points="179.174,-6.0001 169.1739,-9.5 179.1739,-13.0001 179.174,-6.0001"/>
</g>
</g>
</svg>
