<?xml version="1.0" encoding="UTF-8" standalone="no"?>
<!DOCTYPE svg PUBLIC "-//W3C//DTD SVG 1.1//EN"
 "http://www.w3.org/Graphics/SVG/1.1/DTD/svg11.dtd">
<!-- Generated by graphviz version 2.40.1 (20161225.0304)
 -->
<!-- Title: raise_secondary_lifter Pages: 1 -->
<!--zoomable 316 -->
<svg id="main" version="1.1" xmlns="http://www.w3.org/2000/svg" xmlns:xlink="http://www.w3.org/1999/xlink" xml:space="preserve" onload="init(evt)">
<style type="text/css"><![CDATA[
.edge:hover path { stroke: red; }
.edge:hover polygon { stroke: red; fill: red; }
]]></style>
<script type="text/javascript"><![CDATA[
var edges = document.getElementsByTagName('g');
if (edges && edges.length) {
  for (var i=0;i<edges.length;i++) {
    if (edges[i].id.substr(0,4)=='edge') {
      edges[i].setAttribute('class','edge');
    }
  }
}
]]></script>
        <defs>
                <circle id="rim" cx="0" cy="0" r="7"/>
                <circle id="rim2" cx="0" cy="0" r="3.5"/>
                <g id="zoomPlus">
                        <use xlink:href="#rim" fill="#404040">
                                <set attributeName="fill" to="#808080" begin="zoomplus.mouseover" end="zoomplus.mouseout"/>
                        </use>
                        <path d="M-4,0h8M0,-4v8" fill="none" stroke="white" stroke-width="1.5" pointer-events="none"/>
                </g>
                <g id="zoomMin">
                        <use xlink:href="#rim" fill="#404040">
                                <set attributeName="fill" to="#808080" begin="zoomminus.mouseover" end="zoomminus.mouseout"/>
                        </use>
                        <path d="M-4,0h8" fill="none" stroke="white" stroke-width="1.5" pointer-events="none"/>
                </g>
                <g id="dirArrow">
                        <path fill="none" stroke="white" stroke-width="1.5" d="M0,-3.0v7 M-2.5,-0.5L0,-3.0L2.5,-0.5"/>
                </g>
               <g id="resetDef">
                       <use xlink:href="#rim2" fill="#404040">
                               <set attributeName="fill" to="#808080" begin="reset.mouseover" end="reset.mouseout"/>
                       </use>
               </g>
        </defs>

<script type="text/javascript">
var viewWidth = 836;
var viewHeight = 316;
var sectionId = 'dynsection-14';
</script>
<script xlink:href="svgpan.js"/>
<svg id="graph" class="graph">
<g id="viewport">
<title>raise_secondary_lifter</title>
<!-- Node154 -->
<g id="node1" class="node">
<title>Node154</title>
<polygon fill="#bfbfbf" stroke="#000000" points="0,-103.5 0,-121.5 113.8271,-121.5 113.8271,-103.5 0,-103.5"/>
<text text-anchor="middle" x="56.9136" y="-109.5" font-family="Helvetica,sans-Serif" font-size="10.00" fill="#000000">raise_secondary_lifter</text>
</g>
<!-- Node155 -->
<g id="node2" class="node">
<title>Node155</title>
<g id="a_node2"><a xlink:href="lifter_8c.html#a78640d547d9361951a92d0bc00939536" target="_top" xlink:title="Sets the secondary lifter motors to the given value. ">
<polygon fill="none" stroke="#000000" points="149.8271,-98.5 149.8271,-126.5 255.3193,-126.5 255.3193,-98.5 149.8271,-98.5"/>
<text text-anchor="start" x="157.8271" y="-114.5" font-family="Helvetica,sans-Serif" font-size="10.00" fill="#000000">set_secondary_lifter</text>
<text text-anchor="middle" x="202.5732" y="-104.5" font-family="Helvetica,sans-Serif" font-size="10.00" fill="#000000">_motors</text>
</a>
</g>
</g>
<!-- Node154&#45;&gt;Node155 -->
<g id="edge1" class="edge">
<title>Node154&#45;&gt;Node155</title>
<path fill="none" stroke="#191970" d="M114.0641,-112.5C122.3369,-112.5 130.893,-112.5 139.2777,-112.5"/>
<polygon fill="#191970" stroke="#191970" points="139.3895,-116.0001 149.3894,-112.5 139.3894,-109.0001 139.3895,-116.0001"/>
</g>
<!-- Node156 -->
<g id="node3" class="node">
<title>Node156</title>
<g id="a_node3"><a xlink:href="slew_8h.html#a9f8b8ae577ef938622024545711f0151" target="_top" xlink:title="Sets the motor speed ignoring the slew controller. ">
<polygon fill="none" stroke="#000000" points="291.3193,-103.5 291.3193,-121.5 403.4717,-121.5 403.4717,-103.5 291.3193,-103.5"/>
<text text-anchor="middle" x="347.3955" y="-109.5" font-family="Helvetica,sans-Serif" font-size="10.00" fill="#000000">set_motor_immediate</text>
</a>
</g>
</g>
<!-- Node155&#45;&gt;Node156 -->
<g id="edge2" class="edge">
<title>Node155&#45;&gt;Node156</title>
<path fill="none" stroke="#191970" d="M255.6774,-112.5C263.827,-112.5 272.3286,-112.5 280.7266,-112.5"/>
<polygon fill="#191970" stroke="#191970" points="280.8883,-116.0001 290.8882,-112.5 280.8882,-109.0001 280.8883,-116.0001"/>
</g>
<!-- Node157 -->
<g id="node4" class="node">
<title>Node157</title>
<g id="a_node4"><a xlink:href="log_8h.html#af3668f40d1ad1b4f3418869ac9a31f34" target="_top" xlink:title="prints a info message ">
<polygon fill="none" stroke="#000000" points="444.7427,-243.5 444.7427,-261.5 488.5503,-261.5 488.5503,-243.5 444.7427,-243.5"/>
<text text-anchor="middle" x="466.6465" y="-249.5" font-family="Helvetica,sans-Serif" font-size="10.00" fill="#000000">debug</text>
</a>
</g>
</g>
<!-- Node156&#45;&gt;Node157 -->
<g id="edge3" class="edge">
<title>Node156&#45;&gt;Node157</title>
<path fill="none" stroke="#191970" d="M355.2199,-121.6858C374.9333,-144.8292 426.8728,-205.8059 452.2622,-235.6129"/>
<polygon fill="#191970" stroke="#191970" points="449.7994,-238.1193 458.9483,-243.4624 455.1283,-233.5802 449.7994,-238.1193"/>
</g>
<!-- Node159 -->
<g id="node6" class="node">
<title>Node159</title>
<g id="a_node6"><a xlink:href="slew_8c.html#a321758941d88b75783955c819bb75005" target="_top" xlink:title="Initializes the slew rate controller. ">
<polygon fill="none" stroke="#000000" points="439.4717,-159.5 439.4717,-177.5 493.8213,-177.5 493.8213,-159.5 439.4717,-159.5"/>
<text text-anchor="middle" x="466.6465" y="-165.5" font-family="Helvetica,sans-Serif" font-size="10.00" fill="#000000">init_slew</text>
</a>
</g>
</g>
<!-- Node156&#45;&gt;Node159 -->
<g id="edge5" class="edge">
<title>Node156&#45;&gt;Node159</title>
<path fill="none" stroke="#191970" d="M366.8206,-121.622C386.1375,-130.6932 415.9913,-144.7124 438.0224,-155.0582"/>
<polygon fill="#191970" stroke="#191970" points="436.6903,-158.2993 447.2297,-159.3819 439.6658,-151.9631 436.6903,-158.2993"/>
</g>
<!-- Node169 -->
<g id="node16" class="node">
<title>Node169</title>
<g id="a_node16"><a xlink:href="_a_p_i_8h.html#a8b51124628d2a7741738d48551d1e8ee" target="_top" xlink:title="Requests a mutex so that other tasks cannot simultaneously use the resource it guards. ">
<polygon fill="none" stroke="#000000" points="642.9688,-84.5 642.9688,-102.5 707.3232,-102.5 707.3232,-84.5 642.9688,-84.5"/>
<text text-anchor="middle" x="675.146" y="-90.5" font-family="Helvetica,sans-Serif" font-size="10.00" fill="#000000">mutexTake</text>
</a>
</g>
</g>
<!-- Node156&#45;&gt;Node169 -->
<g id="edge21" class="edge">
<title>Node156&#45;&gt;Node169</title>
<path fill="none" stroke="#191970" d="M403.7378,-109.2338C468.83,-105.4603 574.4476,-99.3376 632.884,-95.95"/>
<polygon fill="#191970" stroke="#191970" points="633.0999,-99.4434 642.8806,-95.3705 632.6947,-92.4552 633.0999,-99.4434"/>
</g>
<!-- Node170 -->
<g id="node17" class="node">
<title>Node170</title>
<g id="a_node17"><a xlink:href="_a_p_i_8h.html#afe171a08d22de18fc2ab604b2364959f" target="_top" xlink:title="Relinquishes a mutex so that other tasks can use the resource it guards. ">
<polygon fill="none" stroke="#000000" points="643.2495,-37.5 643.2495,-55.5 707.0425,-55.5 707.0425,-37.5 643.2495,-37.5"/>
<text text-anchor="middle" x="675.146" y="-43.5" font-family="Helvetica,sans-Serif" font-size="10.00" fill="#000000">mutexGive</text>
</a>
</g>
</g>
<!-- Node156&#45;&gt;Node170 -->
<g id="edge20" class="edge">
<title>Node156&#45;&gt;Node170</title>
<path fill="none" stroke="#191970" d="M370.58,-103.4974C404.8183,-90.6385 471.1864,-67.3681 529.8213,-56.5 564.1482,-50.1374 603.7122,-47.729 632.8833,-46.8603"/>
<polygon fill="#191970" stroke="#191970" points="633.2216,-50.3531 643.1314,-46.6055 633.0475,-43.3552 633.2216,-50.3531"/>
</g>
<!-- Node171 -->
<g id="node18" class="node">
<title>Node171</title>
<g id="a_node18"><a xlink:href="_a_p_i_8h.html#a03c5b04b472d024281f62d7af8854a8e" target="_top" xlink:title="Sets the speed of the specified motor channel. ">
<polygon fill="none" stroke="#000000" points="646.8604,-.5 646.8604,-18.5 703.4316,-18.5 703.4316,-.5 646.8604,-.5"/>
<text text-anchor="middle" x="675.146" y="-6.5" font-family="Helvetica,sans-Serif" font-size="10.00" fill="#000000">motorSet</text>
</a>
</g>
</g>
<!-- Node156&#45;&gt;Node171 -->
<g id="edge19" class="edge">
<title>Node156&#45;&gt;Node171</title>
<path fill="none" stroke="#191970" d="M360.1629,-103.4062C377.3691,-91.5708 409.3279,-71.0419 439.4717,-59.5 506.2903,-33.9154 589.0413,-20.1973 636.5973,-13.9107"/>
<polygon fill="#191970" stroke="#191970" points="637.2864,-17.3512 646.7612,-12.61 636.3978,-10.4078 637.2864,-17.3512"/>
</g>
<!-- Node158 -->
<g id="node5" class="node">
<title>Node158</title>
<g id="a_node5"><a xlink:href="_a_p_i_8h.html#a403c82418e475fa4a8273719e6a7f3e6" target="_top" xlink:title="Prints the formatted string to the debug stream (the PC terminal). ">
<polygon fill="none" stroke="#000000" points="766.3921,-289.5 766.3921,-307.5 804.6235,-307.5 804.6235,-289.5 766.3921,-289.5"/>
<text text-anchor="middle" x="785.5078" y="-295.5" font-family="Helvetica,sans-Serif" font-size="10.00" fill="#000000">printf</text>
</a>
</g>
</g>
<!-- Node157&#45;&gt;Node158 -->
<g id="edge4" class="edge">
<title>Node157&#45;&gt;Node158</title>
<path fill="none" stroke="#191970" d="M482.9755,-261.6303C495.4116,-268.1082 513.1729,-276.3598 529.8213,-280.5 609.9168,-300.4185 708.1644,-300.9233 756.2191,-299.6896"/>
<polygon fill="#191970" stroke="#191970" points="756.3416,-303.1876 766.2315,-299.3875 756.1304,-296.1908 756.3416,-303.1876"/>
</g>
<!-- Node160 -->
<g id="node7" class="node">
<title>Node160</title>
<g id="a_node7"><a xlink:href="log_8h.html#a0bec2cf5fff7f607bc510b74aba9887c" target="_top" xlink:title="prints a warning message and displays on lcd. ">
<polygon fill="none" stroke="#000000" points="542.8853,-215.5 542.8853,-233.5 593.9048,-233.5 593.9048,-215.5 542.8853,-215.5"/>
<text text-anchor="middle" x="568.395" y="-221.5" font-family="Helvetica,sans-Serif" font-size="10.00" fill="#000000">warning</text>
</a>
</g>
</g>
<!-- Node159&#45;&gt;Node160 -->
<g id="edge6" class="edge">
<title>Node159&#45;&gt;Node160</title>
<path fill="none" stroke="#191970" d="M480.9509,-177.6936C493.5958,-185.6774 512.6473,-197.3602 529.8213,-206.5 532.6917,-208.0276 535.715,-209.5619 538.7537,-211.0553"/>
<polygon fill="#191970" stroke="#191970" points="537.2469,-214.2143 547.7789,-215.3659 540.2638,-207.8978 537.2469,-214.2143"/>
</g>
<!-- Node165 -->
<g id="node12" class="node">
<title>Node165</title>
<g id="a_node12"><a xlink:href="_a_p_i_8h.html#a8966c541f3e9565aea1289f0d2f2cf43" target="_top" xlink:title="Stops all motors; significantly faster than looping through all motor ports and calling motorSet(chan...">
<polygon fill="none" stroke="#000000" points="531.772,-178.5 531.772,-196.5 605.0181,-196.5 605.0181,-178.5 531.772,-178.5"/>
<text text-anchor="middle" x="568.395" y="-184.5" font-family="Helvetica,sans-Serif" font-size="10.00" fill="#000000">motorStopAll</text>
</a>
</g>
</g>
<!-- Node159&#45;&gt;Node165 -->
<g id="edge12" class="edge">
<title>Node159&#45;&gt;Node165</title>
<path fill="none" stroke="#191970" d="M493.9132,-173.5917C502.3862,-175.1738 511.9817,-176.9657 521.3989,-178.7242"/>
<polygon fill="#191970" stroke="#191970" points="521.0135,-182.2127 531.4861,-180.6078 522.2985,-175.3316 521.0135,-182.2127"/>
</g>
<!-- Node166 -->
<g id="node13" class="node">
<title>Node166</title>
<g id="a_node13"><a xlink:href="_a_p_i_8h.html#aecd027ce8f8b52a765735e9eb5b202b3" target="_top" xlink:title="Creates a mutex intended to allow only one task to use a resource at a time. ">
<polygon fill="none" stroke="#000000" points="531.772,-141.5 531.772,-159.5 605.0181,-159.5 605.0181,-141.5 531.772,-141.5"/>
<text text-anchor="middle" x="568.395" y="-147.5" font-family="Helvetica,sans-Serif" font-size="10.00" fill="#000000">mutexCreate</text>
</a>
</g>
</g>
<!-- Node159&#45;&gt;Node166 -->
<g id="edge13" class="edge">
<title>Node159&#45;&gt;Node166</title>
<path fill="none" stroke="#191970" d="M493.9132,-163.6763C502.3862,-162.1774 511.9817,-160.4799 521.3989,-158.8139"/>
<polygon fill="#191970" stroke="#191970" points="522.2488,-162.218 531.4861,-157.0294 521.0293,-155.325 522.2488,-162.218"/>
</g>
<!-- Node167 -->
<g id="node14" class="node">
<title>Node167</title>
<g id="a_node14"><a xlink:href="_a_p_i_8h.html#ab05a241d6d1fd98b1ceb4665db678156" target="_top" xlink:title="Starts a task which will periodically call the specified function. ">
<polygon fill="none" stroke="#000000" points="530.9297,-252.5 530.9297,-270.5 605.8604,-270.5 605.8604,-252.5 530.9297,-252.5"/>
<text text-anchor="middle" x="568.395" y="-258.5" font-family="Helvetica,sans-Serif" font-size="10.00" fill="#000000">taskRunLoop</text>
</a>
</g>
</g>
<!-- Node159&#45;&gt;Node167 -->
<g id="edge14" class="edge">
<title>Node159&#45;&gt;Node167</title>
<path fill="none" stroke="#191970" d="M472.5952,-177.9368C482.7246,-193.3771 504.6836,-224.2435 529.8213,-243.5 531.6326,-244.8875 533.5681,-246.2022 535.5714,-247.4414"/>
<polygon fill="#191970" stroke="#191970" points="534.1609,-250.6591 544.6146,-252.383 537.5176,-244.5164 534.1609,-250.6591"/>
</g>
<!-- Node168 -->
<g id="node15" class="node">
<title>Node168</title>
<g id="a_node15"><a xlink:href="slew_8c.html#a807a87c5df438fde21c1e8213906695b" target="_top" xlink:title="Closes the distance between the desired motor value and the current motor value by half for each moto...">
<polygon fill="none" stroke="#000000" points="529.8213,-65.5 529.8213,-83.5 606.9688,-83.5 606.9688,-65.5 529.8213,-65.5"/>
<text text-anchor="middle" x="568.395" y="-71.5" font-family="Helvetica,sans-Serif" font-size="10.00" fill="#000000">updateMotors</text>
</a>
</g>
</g>
<!-- Node159&#45;&gt;Node168 -->
<g id="edge15" class="edge">
<title>Node159&#45;&gt;Node168</title>
<path fill="none" stroke="#191970" d="M476.4026,-159.4869C493.6036,-143.5957 529.536,-110.3998 551.049,-90.525"/>
<polygon fill="#191970" stroke="#191970" points="553.5488,-92.9807 558.519,-83.6239 548.7987,-87.839 553.5488,-92.9807"/>
</g>
<!-- Node161 -->
<g id="node8" class="node">
<title>Node161</title>
<g id="a_node8"><a xlink:href="log_8c.html#afff22aff6749311a684a559cac3ac8bd" target="_top" xlink:title="prints a log info message to the lcd ">
<polygon fill="none" stroke="#000000" points="649.6313,-215.5 649.6313,-233.5 700.6606,-233.5 700.6606,-215.5 649.6313,-215.5"/>
<text text-anchor="middle" x="675.146" y="-221.5" font-family="Helvetica,sans-Serif" font-size="10.00" fill="#000000">log_info</text>
</a>
</g>
</g>
<!-- Node160&#45;&gt;Node161 -->
<g id="edge7" class="edge">
<title>Node160&#45;&gt;Node161</title>
<path fill="none" stroke="#191970" d="M593.9645,-224.5C607.4652,-224.5 624.2589,-224.5 639.0628,-224.5"/>
<polygon fill="#191970" stroke="#191970" points="639.4152,-228.0001 649.4151,-224.5 639.4151,-221.0001 639.4152,-228.0001"/>
</g>
<!-- Node161&#45;&gt;Node158 -->
<g id="edge8" class="edge">
<title>Node161&#45;&gt;Node158</title>
<path fill="none" stroke="#191970" d="M684.6368,-233.7998C697.2308,-245.7709 720.5389,-266.6722 743.3232,-280.5 747.5266,-283.051 752.1566,-285.4186 756.7628,-287.5429"/>
<polygon fill="#191970" stroke="#191970" points="755.4714,-290.7976 766.04,-291.5424 758.2426,-284.3695 755.4714,-290.7976"/>
</g>
<!-- Node162 -->
<g id="node9" class="node">
<title>Node162</title>
<g id="a_node9"><a xlink:href="_a_p_i_8h.html#aab53a247d88151a6623c20fa1ea940b0" target="_top" xlink:title="Sets the specified LCD backlight to be on or off. ">
<polygon fill="none" stroke="#000000" points="743.3232,-252.5 743.3232,-270.5 827.6924,-270.5 827.6924,-252.5 743.3232,-252.5"/>
<text text-anchor="middle" x="785.5078" y="-258.5" font-family="Helvetica,sans-Serif" font-size="10.00" fill="#000000">lcdSetBacklight</text>
</a>
</g>
</g>
<!-- Node161&#45;&gt;Node162 -->
<g id="edge9" class="edge">
<title>Node161&#45;&gt;Node162</title>
<path fill="none" stroke="#191970" d="M700.7426,-233.0815C715.0856,-237.8902 733.2146,-243.9681 749.0223,-249.2678"/>
<polygon fill="#191970" stroke="#191970" points="747.9164,-252.5885 758.5103,-252.4488 750.1415,-245.9515 747.9164,-252.5885"/>
</g>
<!-- Node163 -->
<g id="node10" class="node">
<title>Node163</title>
<g id="a_node10"><a xlink:href="_a_p_i_8h.html#a5fa1d119fe3e836b5519f97eae7a1272" target="_top" xlink:title="Clears the LCD screen on the specified port. ">
<polygon fill="none" stroke="#000000" points="759.168,-215.5 759.168,-233.5 811.8477,-233.5 811.8477,-215.5 759.168,-215.5"/>
<text text-anchor="middle" x="785.5078" y="-221.5" font-family="Helvetica,sans-Serif" font-size="10.00" fill="#000000">lcdClear</text>
</a>
</g>
</g>
<!-- Node161&#45;&gt;Node163 -->
<g id="edge10" class="edge">
<title>Node161&#45;&gt;Node163</title>
<path fill="none" stroke="#191970" d="M700.7426,-224.5C714.9184,-224.5 732.7926,-224.5 748.4687,-224.5"/>
<polygon fill="#191970" stroke="#191970" points="748.8979,-228.0001 758.8978,-224.5 748.8978,-221.0001 748.8979,-228.0001"/>
</g>
<!-- Node164 -->
<g id="node11" class="node">
<title>Node164</title>
<g id="a_node11"><a xlink:href="_a_p_i_8h.html#a6cfad8271c6a566a2f51ca318f819a80" target="_top" xlink:title="Prints the formatted string to the attached LCD. ">
<polygon fill="none" stroke="#000000" points="760.8354,-178.5 760.8354,-196.5 810.1802,-196.5 810.1802,-178.5 760.8354,-178.5"/>
<text text-anchor="middle" x="785.5078" y="-184.5" font-family="Helvetica,sans-Serif" font-size="10.00" fill="#000000">lcdPrint</text>
</a>
</g>
</g>
<!-- Node161&#45;&gt;Node164 -->
<g id="edge11" class="edge">
<title>Node161&#45;&gt;Node164</title>
<path fill="none" stroke="#191970" d="M700.7426,-215.9185C715.7184,-210.8977 734.8216,-204.4931 751.1004,-199.0355"/>
<polygon fill="#191970" stroke="#191970" points="752.4404,-202.2777 760.8092,-195.7805 750.2153,-195.6408 752.4404,-202.2777"/>
</g>
<!-- Node168&#45;&gt;Node169 -->
<g id="edge16" class="edge">
<title>Node168&#45;&gt;Node169</title>
<path fill="none" stroke="#191970" d="M607.2366,-81.4132C615.5435,-82.8917 624.3588,-84.4607 632.7906,-85.9614"/>
<polygon fill="#191970" stroke="#191970" points="632.3666,-89.4409 642.8252,-87.7474 633.5933,-82.5492 632.3666,-89.4409"/>
</g>
<!-- Node168&#45;&gt;Node170 -->
<g id="edge17" class="edge">
<title>Node168&#45;&gt;Node170</title>
<path fill="none" stroke="#191970" d="M602.7593,-65.4865C612.4505,-62.9446 623.1034,-60.1504 633.1862,-57.5057"/>
<polygon fill="#191970" stroke="#191970" points="634.2374,-60.8485 643.0222,-54.9258 632.4614,-54.0775 634.2374,-60.8485"/>
</g>
<!-- Node168&#45;&gt;Node171 -->
<g id="edge18" class="edge">
<title>Node168&#45;&gt;Node171</title>
<path fill="none" stroke="#191970" d="M582.2795,-65.4439C597.1553,-55.8134 621.5247,-40.2437 642.9688,-27.5 644.9807,-26.3044 647.0742,-25.0831 649.1851,-23.8679"/>
<polygon fill="#191970" stroke="#191970" points="651.3735,-26.6509 658.3504,-18.6776 647.9241,-20.5598 651.3735,-26.6509"/>
</g>
</g>
</svg>
        <g id="navigator" transform="translate(0 0)" fill="#404254">
                <rect fill="#f2f5e9" fill-opacity="0.5" stroke="#606060" stroke-width=".5" x="0" y="0" width="60" height="60"/>
                <use id="zoomplus" xlink:href="#zoomPlus" x="17" y="9" onmousedown="handleZoom(evt,'in')"/>
                <use id="zoomminus" xlink:href="#zoomMin" x="42" y="9" onmousedown="handleZoom(evt,'out')"/>
                <use id="reset" xlink:href="#resetDef" x="30" y="36" onmousedown="handleReset()"/>
                <g id="arrowUp" xlink:href="#dirArrow" transform="translate(30 24)" onmousedown="handlePan(0,-1)">
                  <use xlink:href="#rim" fill="#404040">
                        <set attributeName="fill" to="#808080" begin="arrowUp.mouseover" end="arrowUp.mouseout"/>
                  </use>
                  <path fill="none" stroke="white" stroke-width="1.5" d="M0,-3.0v7 M-2.5,-0.5L0,-3.0L2.5,-0.5"/>
                </g>
                <g id="arrowRight" xlink:href="#dirArrow" transform="rotate(90) translate(36 -43)" onmousedown="handlePan(1,0)">
                  <use xlink:href="#rim" fill="#404040">
                        <set attributeName="fill" to="#808080" begin="arrowRight.mouseover" end="arrowRight.mouseout"/>
                  </use>
                  <path fill="none" stroke="white" stroke-width="1.5" d="M0,-3.0v7 M-2.5,-0.5L0,-3.0L2.5,-0.5"/>
                </g>
                <g id="arrowDown" xlink:href="#dirArrow" transform="rotate(180) translate(-30 -48)" onmousedown="handlePan(0,1)">
                  <use xlink:href="#rim" fill="#404040">
                        <set attributeName="fill" to="#808080" begin="arrowDown.mouseover" end="arrowDown.mouseout"/>
                  </use>
                  <path fill="none" stroke="white" stroke-width="1.5" d="M0,-3.0v7 M-2.5,-0.5L0,-3.0L2.5,-0.5"/>
                </g>
                <g id="arrowLeft" xlink:href="#dirArrow" transform="rotate(270) translate(-36 17)" onmousedown="handlePan(-1,0)">
                  <use xlink:href="#rim" fill="#404040">
                        <set attributeName="fill" to="#808080" begin="arrowLeft.mouseover" end="arrowLeft.mouseout"/>
                  </use>
                  <path fill="none" stroke="white" stroke-width="1.5" d="M0,-3.0v7 M-2.5,-0.5L0,-3.0L2.5,-0.5"/>
                </g>
        </g>
        <svg viewBox="0 0 15 15" width="100%" height="30px" preserveAspectRatio="xMaxYMin meet">
         <g id="arrow_out" transform="scale(0.3 0.3)">
          <a xlink:href="lifter_8c_a786f679ea48bb8c80e00fbac9a69911b_cgraph_org.svg" target="_base">
           <rect id="button" ry="5" rx="5" y="6" x="6" height="38" width="38"
                fill="#f2f5e9" fill-opacity="0.5" stroke="#606060" stroke-width="1.0"/>
           <path id="arrow"
             d="M 11.500037,31.436501 C 11.940474,20.09759 22.043105,11.32322 32.158766,21.979434 L 37.068811,17.246167 C 37.068811,17.246167 37.088388,32 37.088388,32 L 22.160133,31.978069 C 22.160133,31.978069 26.997745,27.140456 26.997745,27.140456 C 18.528582,18.264221 13.291696,25.230495 11.500037,31.436501 z"
             style="fill:#404040;"/>
          </a>
         </g>
        </svg>
</svg>
