<?xml version="1.0" encoding="UTF-8" standalone="no"?>
<!DOCTYPE svg PUBLIC "-//W3C//DTD SVG 1.1//EN"
 "http://www.w3.org/Graphics/SVG/1.1/DTD/svg11.dtd">
<!-- Generated by graphviz version 2.40.1 (20161225.0304)
 -->
<!-- Title: include/lifter.h Pages: 1 -->
<svg width="166pt" height="82pt"
 viewBox="0.00 0.00 165.63 82.00" xmlns="http://www.w3.org/2000/svg" xmlns:xlink="http://www.w3.org/1999/xlink">
<g id="graph0" class="graph" transform="scale(1 1) rotate(0) translate(4 78)">
<title>include/lifter.h</title>
<!-- Node13 -->
<g id="node1" class="node">
<title>Node13</title>
<polygon fill="#bfbfbf" stroke="#000000" points="34.5396,-55.5 34.5396,-73.5 111.6919,-73.5 111.6919,-55.5 34.5396,-55.5"/>
<text text-anchor="middle" x="73.1157" y="-61.5" font-family="Helvetica,sans-Serif" font-size="10.00" fill="#000000">include/lifter.h</text>
</g>
<!-- Node14 -->
<g id="node2" class="node">
<title>Node14</title>
<g id="a_node2"><a xlink:href="lifter_8c.html" target="_top" xlink:title="src/lifter.c">
<polygon fill="none" stroke="#000000" points="0,-.5 0,-18.5 58.2314,-18.5 58.2314,-.5 0,-.5"/>
<text text-anchor="middle" x="29.1157" y="-6.5" font-family="Helvetica,sans-Serif" font-size="10.00" fill="#000000">src/lifter.c</text>
</a>
</g>
</g>
<!-- Node13&#45;&gt;Node14 -->
<g id="edge1" class="edge">
<title>Node13&#45;&gt;Node14</title>
<path fill="none" stroke="#191970" d="M59.4649,-47.4365C51.9015,-37.9823 42.7922,-26.5956 36.5393,-18.7795"/>
<polygon fill="#191970" stroke="#191970" points="56.87,-49.7956 65.85,-55.4179 62.3361,-45.4227 56.87,-49.7956"/>
</g>
<!-- Node15 -->
<g id="node3" class="node">
<title>Node15</title>
<g id="a_node3"><a xlink:href="opcontrol_8c.html" target="_top" xlink:title="File for operator control code. ">
<polygon fill="none" stroke="#000000" points="76.6035,-.5 76.6035,-18.5 157.6279,-18.5 157.6279,-.5 76.6035,-.5"/>
<text text-anchor="middle" x="117.1157" y="-6.5" font-family="Helvetica,sans-Serif" font-size="10.00" fill="#000000">src/opcontrol.c</text>
</a>
</g>
</g>
<!-- Node13&#45;&gt;Node15 -->
<g id="edge2" class="edge">
<title>Node13&#45;&gt;Node15</title>
<path fill="none" stroke="#191970" d="M86.7665,-47.4365C94.3299,-37.9823 103.4392,-26.5956 109.6922,-18.7795"/>
<polygon fill="#191970" stroke="#191970" points="83.8954,-45.4227 80.3814,-55.4179 89.3615,-49.7956 83.8954,-45.4227"/>
</g>
</g>
</svg>
