<?xml version="1.0" encoding="UTF-8" standalone="no"?>
<!DOCTYPE svg PUBLIC "-//W3C//DTD SVG 1.1//EN"
 "http://www.w3.org/Graphics/SVG/1.1/DTD/svg11.dtd">
<!-- Generated by graphviz version 2.40.1 (20161225.0304)
 -->
<!-- Title: include/lifter.h Pages: 1 -->
<!--zoomable 302 -->
<svg id="main" version="1.1" xmlns="http://www.w3.org/2000/svg" xmlns:xlink="http://www.w3.org/1999/xlink" xml:space="preserve" onload="init(evt)">
<style type="text/css"><![CDATA[
.edge:hover path { stroke: red; }
.edge:hover polygon { stroke: red; fill: red; }
]]></style>
<script type="text/javascript"><![CDATA[
var edges = document.getElementsByTagName('g');
if (edges && edges.length) {
  for (var i=0;i<edges.length;i++) {
    if (edges[i].id.substr(0,4)=='edge') {
      edges[i].setAttribute('class','edge');
    }
  }
}
]]></script>
        <defs>
                <circle id="rim" cx="0" cy="0" r="7"/>
                <circle id="rim2" cx="0" cy="0" r="3.5"/>
                <g id="zoomPlus">
                        <use xlink:href="#rim" fill="#404040">
                                <set attributeName="fill" to="#808080" begin="zoomplus.mouseover" end="zoomplus.mouseout"/>
                        </use>
                        <path d="M-4,0h8M0,-4v8" fill="none" stroke="white" stroke-width="1.5" pointer-events="none"/>
                </g>
                <g id="zoomMin">
                        <use xlink:href="#rim" fill="#404040">
                                <set attributeName="fill" to="#808080" begin="zoomminus.mouseover" end="zoomminus.mouseout"/>
                        </use>
                        <path d="M-4,0h8" fill="none" stroke="white" stroke-width="1.5" pointer-events="none"/>
                </g>
                <g id="dirArrow">
                        <path fill="none" stroke="white" stroke-width="1.5" d="M0,-3.0v7 M-2.5,-0.5L0,-3.0L2.5,-0.5"/>
                </g>
               <g id="resetDef">
                       <use xlink:href="#rim2" fill="#404040">
                               <set attributeName="fill" to="#808080" begin="reset.mouseover" end="reset.mouseout"/>
                       </use>
               </g>
        </defs>

<script type="text/javascript">
var viewWidth = 524;
var viewHeight = 302;
var sectionId = 'dynsection-0';
</script>
<script xlink:href="svgpan.js"/>
<svg id="graph" class="graph">
<g id="viewport">
<title>include/lifter.h</title>
<!-- Node0 -->
<g id="node1" class="node">
<title>Node0</title>
<polygon fill="#bfbfbf" stroke="#000000" points="148.8843,-275.5 148.8843,-293.5 226.0366,-293.5 226.0366,-275.5 148.8843,-275.5"/>
<text text-anchor="middle" x="187.4604" y="-281.5" font-family="Helvetica,sans-Serif" font-size="10.00" fill="#000000">include/lifter.h</text>
</g>
<!-- Node1 -->
<g id="node2" class="node">
<title>Node1</title>
<g id="a_node2"><a xlink:href="controller_8h.html" target="_top" xlink:title="controller definitions, macros and functions to assist with usig the vex controllers. ">
<polygon fill="none" stroke="#000000" points="0,-110.5 0,-128.5 64.9209,-128.5 64.9209,-110.5 0,-110.5"/>
<text text-anchor="middle" x="32.4604" y="-116.5" font-family="Helvetica,sans-Serif" font-size="10.00" fill="#000000">controller.h</text>
</a>
</g>
</g>
<!-- Node0&#45;&gt;Node1 -->
<g id="edge1" class="edge">
<title>Node0&#45;&gt;Node1</title>
<path fill="none" stroke="#191970" d="M148.6992,-276.0033C124.4554,-269.1693 93.7162,-257.5736 71.4604,-239 49.3965,-220.5865 46.3783,-211.3194 37.4604,-184 32.6622,-169.3007 31.5787,-151.7575 31.6022,-138.6803"/>
<polygon fill="#191970" stroke="#191970" points="35.105,-138.6016 31.8423,-128.5216 28.1069,-138.4361 35.105,-138.6016"/>
</g>
<!-- Node4 -->
<g id="node5" class="node">
<title>Node4</title>
<polygon fill="none" stroke="#bfbfbf" points="120.2314,-55.5 120.2314,-73.5 160.6895,-73.5 160.6895,-55.5 120.2314,-55.5"/>
<text text-anchor="middle" x="140.4604" y="-61.5" font-family="Helvetica,sans-Serif" font-size="10.00" fill="#000000">API.h</text>
</g>
<!-- Node0&#45;&gt;Node4 -->
<g id="edge21" class="edge">
<title>Node0&#45;&gt;Node4</title>
<path fill="none" stroke="#191970" d="M185.5008,-275.327C178.4537,-242.3409 154.3035,-129.2972 144.5726,-83.7484"/>
<polygon fill="#191970" stroke="#191970" points="147.9406,-82.7603 142.4285,-73.7122 141.095,-84.2228 147.9406,-82.7603"/>
</g>
<!-- Node5 -->
<g id="node6" class="node">
<title>Node5</title>
<g id="a_node6"><a xlink:href="drive_8h.html" target="_top" xlink:title="Drive base definitions and enumerations. ">
<polygon fill="none" stroke="#000000" points="94.4531,-220.5 94.4531,-238.5 140.4678,-238.5 140.4678,-220.5 94.4531,-220.5"/>
<text text-anchor="middle" x="117.4604" y="-226.5" font-family="Helvetica,sans-Serif" font-size="10.00" fill="#000000">drive.h</text>
</a>
</g>
</g>
<!-- Node0&#45;&gt;Node5 -->
<g id="edge5" class="edge">
<title>Node0&#45;&gt;Node5</title>
<path fill="none" stroke="#191970" d="M175.9014,-275.4179C165.4265,-267.1876 149.7672,-254.8839 137.2941,-245.0836"/>
<polygon fill="#191970" stroke="#191970" points="139.2963,-242.2056 129.2707,-238.7795 134.9715,-247.7098 139.2963,-242.2056"/>
</g>
<!-- Node6 -->
<g id="node7" class="node">
<title>Node6</title>
<g id="a_node7"><a xlink:href="partner_8h.html" target="_top" xlink:title="partner.h">
<polygon fill="none" stroke="#000000" points="46.7217,-165.5 46.7217,-183.5 102.1992,-183.5 102.1992,-165.5 46.7217,-165.5"/>
<text text-anchor="middle" x="74.4604" y="-171.5" font-family="Helvetica,sans-Serif" font-size="10.00" fill="#000000">partner.h</text>
</a>
</g>
</g>
<!-- Node0&#45;&gt;Node6 -->
<g id="edge11" class="edge">
<title>Node0&#45;&gt;Node6</title>
<path fill="none" stroke="#191970" d="M148.6355,-276.6803C126.7781,-270.2468 100.8573,-258.8361 85.4604,-239 75.6655,-226.3809 73.3123,-208.1628 73.1808,-194.3047"/>
<polygon fill="#191970" stroke="#191970" points="76.6908,-194.0041 73.4783,-183.908 69.6936,-193.8038 76.6908,-194.0041"/>
</g>
<!-- Node7 -->
<g id="node8" class="node">
<title>Node7</title>
<g id="a_node8"><a xlink:href="motor__ports_8h.html" target="_top" xlink:title="The motor port definitionsMacros for the different motors ports. ">
<polygon fill="none" stroke="#000000" points="234.6133,-220.5 234.6133,-238.5 312.3076,-238.5 312.3076,-220.5 234.6133,-220.5"/>
<text text-anchor="middle" x="273.4604" y="-226.5" font-family="Helvetica,sans-Serif" font-size="10.00" fill="#000000">motor_ports.h</text>
</a>
</g>
</g>
<!-- Node0&#45;&gt;Node7 -->
<g id="edge10" class="edge">
<title>Node0&#45;&gt;Node7</title>
<path fill="none" stroke="#191970" d="M201.6616,-275.4179C214.9818,-266.8992 235.1255,-254.0166 250.6896,-244.0627"/>
<polygon fill="#191970" stroke="#191970" points="252.6994,-246.932 259.2382,-238.5956 248.928,-241.0348 252.6994,-246.932"/>
</g>
<!-- Node8 -->
<g id="node9" class="node">
<title>Node8</title>
<g id="a_node9"><a xlink:href="potentiometer_8h.html" target="_top" xlink:title="potentiometer.h">
<polygon fill="none" stroke="#000000" points="329.9902,-220.5 329.9902,-238.5 414.9307,-238.5 414.9307,-220.5 329.9902,-220.5"/>
<text text-anchor="middle" x="372.4604" y="-226.5" font-family="Helvetica,sans-Serif" font-size="10.00" fill="#000000">potentiometer.h</text>
</a>
</g>
</g>
<!-- Node0&#45;&gt;Node8 -->
<g id="edge12" class="edge">
<title>Node0&#45;&gt;Node8</title>
<path fill="none" stroke="#191970" d="M218.0094,-275.4179C249.3007,-266.115 298.0971,-251.608 332.4525,-241.3943"/>
<polygon fill="#191970" stroke="#191970" points="333.5856,-244.7089 342.1736,-238.5042 331.5908,-237.9991 333.5856,-244.7089"/>
</g>
<!-- Node9 -->
<g id="node10" class="node">
<title>Node9</title>
<g id="a_node10"><a xlink:href="sensor__ports_8h.html" target="_top" xlink:title="sensor_ports.h">
<polygon fill="none" stroke="#000000" points="433.3867,-220.5 433.3867,-238.5 515.5342,-238.5 515.5342,-220.5 433.3867,-220.5"/>
<text text-anchor="middle" x="474.4604" y="-226.5" font-family="Helvetica,sans-Serif" font-size="10.00" fill="#000000">sensor_ports.h</text>
</a>
</g>
</g>
<!-- Node0&#45;&gt;Node9 -->
<g id="edge13" class="edge">
<title>Node0&#45;&gt;Node9</title>
<path fill="none" stroke="#191970" d="M226.1665,-277.0825C277.0127,-267.3384 366.4544,-250.198 422.9703,-239.3675"/>
<polygon fill="#191970" stroke="#191970" points="423.9606,-242.7414 433.1231,-237.4218 422.6431,-235.8665 423.9606,-242.7414"/>
</g>
<!-- Node10 -->
<g id="node11" class="node">
<title>Node10</title>
<g id="a_node11"><a xlink:href="slew_8h.html" target="_top" xlink:title="Contains the slew rate controller wrapper for the motors. ">
<polygon fill="none" stroke="#000000" points="214.5615,-165.5 214.5615,-183.5 258.3594,-183.5 258.3594,-165.5 214.5615,-165.5"/>
<text text-anchor="middle" x="236.4604" y="-171.5" font-family="Helvetica,sans-Serif" font-size="10.00" fill="#000000">slew.h</text>
</a>
</g>
</g>
<!-- Node0&#45;&gt;Node10 -->
<g id="edge14" class="edge">
<title>Node0&#45;&gt;Node10</title>
<path fill="none" stroke="#191970" d="M191.4703,-275.4982C199.4743,-257.5302 217.5752,-216.8954 228.2175,-193.0046"/>
<polygon fill="#191970" stroke="#191970" points="231.5232,-194.185 232.3952,-183.6261 225.1289,-191.3366 231.5232,-194.185"/>
</g>
<!-- Node2 -->
<g id="node3" class="node">
<title>Node2</title>
<g id="a_node3"><a xlink:href="vmath_8h.html" target="_top" xlink:title="Vex Specific Math Functions, includes: Cartesian to polar cordinates. ">
<polygon fill="none" stroke="#000000" points="29.6748,-55.5 29.6748,-73.5 81.2461,-73.5 81.2461,-55.5 29.6748,-55.5"/>
<text text-anchor="middle" x="55.4604" y="-61.5" font-family="Helvetica,sans-Serif" font-size="10.00" fill="#000000">vmath.h</text>
</a>
</g>
</g>
<!-- Node1&#45;&gt;Node2 -->
<g id="edge2" class="edge">
<title>Node1&#45;&gt;Node2</title>
<path fill="none" stroke="#191970" d="M36.2584,-110.4179C39.3362,-103.0581 43.776,-92.441 47.6114,-83.2695"/>
<polygon fill="#191970" stroke="#191970" points="50.9509,-84.3556 51.5799,-73.7795 44.4928,-81.6549 50.9509,-84.3556"/>
</g>
<!-- Node1&#45;&gt;Node4 -->
<g id="edge4" class="edge">
<title>Node1&#45;&gt;Node4</title>
<path fill="none" stroke="#191970" d="M50.2945,-110.4179C67.4911,-101.6603 93.7441,-88.2907 113.4947,-78.2326"/>
<polygon fill="#191970" stroke="#191970" points="115.2772,-81.2526 122.6,-73.5956 112.1006,-75.0148 115.2772,-81.2526"/>
</g>
<!-- Node3 -->
<g id="node4" class="node">
<title>Node3</title>
<polygon fill="none" stroke="#bfbfbf" points="236.1748,-.5 236.1748,-18.5 282.7461,-18.5 282.7461,-.5 236.1748,-.5"/>
<text text-anchor="middle" x="259.4604" y="-6.5" font-family="Helvetica,sans-Serif" font-size="10.00" fill="#000000">math.h</text>
</g>
<!-- Node2&#45;&gt;Node3 -->
<g id="edge3" class="edge">
<title>Node2&#45;&gt;Node3</title>
<path fill="none" stroke="#191970" d="M81.2972,-57.5342C118.1637,-47.5947 185.8711,-29.3403 226.3654,-18.4227"/>
<polygon fill="#191970" stroke="#191970" points="227.2947,-21.7972 236.0388,-15.8146 225.4725,-15.0385 227.2947,-21.7972"/>
</g>
<!-- Node5&#45;&gt;Node4 -->
<g id="edge9" class="edge">
<title>Node5&#45;&gt;Node4</title>
<path fill="none" stroke="#191970" d="M118.7629,-220.1561C122.4158,-193.9504 132.8139,-119.3557 137.7699,-83.8021"/>
<polygon fill="#191970" stroke="#191970" points="141.2581,-84.1289 139.1723,-73.7414 134.3251,-83.1624 141.2581,-84.1289"/>
</g>
<!-- Node5&#45;&gt;Node6 -->
<g id="edge6" class="edge">
<title>Node5&#45;&gt;Node6</title>
<path fill="none" stroke="#191970" d="M110.3599,-220.4179C104.2965,-212.6624 95.4054,-201.29 87.9886,-191.8035"/>
<polygon fill="#191970" stroke="#191970" points="90.6319,-189.5018 81.7153,-183.7795 85.1172,-193.8133 90.6319,-189.5018"/>
</g>
<!-- Node6&#45;&gt;Node1 -->
<g id="edge8" class="edge">
<title>Node6&#45;&gt;Node1</title>
<path fill="none" stroke="#191970" d="M67.525,-165.4179C61.6026,-157.6624 52.9183,-146.29 45.674,-136.8035"/>
<polygon fill="#191970" stroke="#191970" points="48.3974,-134.6029 39.5466,-128.7795 42.8341,-138.8514 48.3974,-134.6029"/>
</g>
<!-- Node6&#45;&gt;Node4 -->
<g id="edge7" class="edge">
<title>Node6&#45;&gt;Node4</title>
<path fill="none" stroke="#191970" d="M79.8615,-165.4982C90.739,-147.369 115.4616,-106.1647 129.7409,-82.3659"/>
<polygon fill="#191970" stroke="#191970" points="132.841,-84.0018 134.9848,-73.6261 126.8385,-80.4003 132.841,-84.0018"/>
</g>
<!-- Node10&#45;&gt;Node3 -->
<g id="edge16" class="edge">
<title>Node10&#45;&gt;Node3</title>
<path fill="none" stroke="#191970" d="M250.9959,-165.3019C262.2185,-157.2654 276.9025,-144.4762 283.4604,-129 297.9087,-94.9035 281.3882,-51.5809 269.4875,-27.5793"/>
<polygon fill="#191970" stroke="#191970" points="272.5072,-25.8009 264.7737,-18.5591 266.3033,-29.0429 272.5072,-25.8009"/>
</g>
<!-- Node10&#45;&gt;Node4 -->
<g id="edge15" class="edge">
<title>Node10&#45;&gt;Node4</title>
<path fill="none" stroke="#191970" d="M228.9083,-165.1956C218.5914,-152.5509 199.4325,-129.3033 182.4604,-110 173.9612,-100.3333 164.2247,-89.7558 156.2675,-81.234"/>
<polygon fill="#191970" stroke="#191970" points="158.6774,-78.6873 149.2821,-73.7904 153.573,-83.4774 158.6774,-78.6873"/>
</g>
<!-- Node11 -->
<g id="node12" class="node">
<title>Node11</title>
<g id="a_node12"><a xlink:href="vlib_8h.html" target="_top" xlink:title="Contains misc helpful functions. ">
<polygon fill="none" stroke="#000000" points="234.7881,-110.5 234.7881,-128.5 274.1328,-128.5 274.1328,-110.5 234.7881,-110.5"/>
<text text-anchor="middle" x="254.4604" y="-116.5" font-family="Helvetica,sans-Serif" font-size="10.00" fill="#000000">vlib.h</text>
</a>
</g>
</g>
<!-- Node10&#45;&gt;Node11 -->
<g id="edge17" class="edge">
<title>Node10&#45;&gt;Node11</title>
<path fill="none" stroke="#191970" d="M239.4328,-165.4179C241.8155,-158.1372 245.2415,-147.669 248.2207,-138.5659"/>
<polygon fill="#191970" stroke="#191970" points="251.6395,-139.3721 251.4235,-128.7795 244.9867,-137.1948 251.6395,-139.3721"/>
</g>
<!-- Node11&#45;&gt;Node3 -->
<g id="edge19" class="edge">
<title>Node11&#45;&gt;Node3</title>
<path fill="none" stroke="#191970" d="M254.8696,-110.4982C255.679,-92.6913 257.5003,-52.6225 258.5899,-28.6515"/>
<polygon fill="#191970" stroke="#191970" points="262.0878,-28.7748 259.0456,-18.6261 255.0951,-28.4569 262.0878,-28.7748"/>
</g>
<!-- Node11&#45;&gt;Node4 -->
<g id="edge18" class="edge">
<title>Node11&#45;&gt;Node4</title>
<path fill="none" stroke="#191970" d="M235.6357,-110.4179C217.3186,-101.5807 189.2675,-88.0473 168.3574,-77.9591"/>
<polygon fill="#191970" stroke="#191970" points="169.8407,-74.7887 159.3132,-73.5956 166.7989,-81.0933 169.8407,-74.7887"/>
</g>
<!-- Node12 -->
<g id="node13" class="node">
<title>Node12</title>
<polygon fill="none" stroke="#bfbfbf" points="183.064,-55.5 183.064,-73.5 231.8569,-73.5 231.8569,-55.5 183.064,-55.5"/>
<text text-anchor="middle" x="207.4604" y="-61.5" font-family="Helvetica,sans-Serif" font-size="10.00" fill="#000000">string.h</text>
</g>
<!-- Node11&#45;&gt;Node12 -->
<g id="edge20" class="edge">
<title>Node11&#45;&gt;Node12</title>
<path fill="none" stroke="#191970" d="M246.6994,-110.4179C240.0043,-102.5833 230.1551,-91.0575 221.9994,-81.5137"/>
<polygon fill="#191970" stroke="#191970" points="224.5475,-79.108 215.3902,-73.7795 219.2259,-83.6556 224.5475,-79.108"/>
</g>
</g>
</svg>
        <g id="navigator" transform="translate(0 0)" fill="#404254">
                <rect fill="#f2f5e9" fill-opacity="0.5" stroke="#606060" stroke-width=".5" x="0" y="0" width="60" height="60"/>
                <use id="zoomplus" xlink:href="#zoomPlus" x="17" y="9" onmousedown="handleZoom(evt,'in')"/>
                <use id="zoomminus" xlink:href="#zoomMin" x="42" y="9" onmousedown="handleZoom(evt,'out')"/>
                <use id="reset" xlink:href="#resetDef" x="30" y="36" onmousedown="handleReset()"/>
                <g id="arrowUp" xlink:href="#dirArrow" transform="translate(30 24)" onmousedown="handlePan(0,-1)">
                  <use xlink:href="#rim" fill="#404040">
                        <set attributeName="fill" to="#808080" begin="arrowUp.mouseover" end="arrowUp.mouseout"/>
                  </use>
                  <path fill="none" stroke="white" stroke-width="1.5" d="M0,-3.0v7 M-2.5,-0.5L0,-3.0L2.5,-0.5"/>
                </g>
                <g id="arrowRight" xlink:href="#dirArrow" transform="rotate(90) translate(36 -43)" onmousedown="handlePan(1,0)">
                  <use xlink:href="#rim" fill="#404040">
                        <set attributeName="fill" to="#808080" begin="arrowRight.mouseover" end="arrowRight.mouseout"/>
                  </use>
                  <path fill="none" stroke="white" stroke-width="1.5" d="M0,-3.0v7 M-2.5,-0.5L0,-3.0L2.5,-0.5"/>
                </g>
                <g id="arrowDown" xlink:href="#dirArrow" transform="rotate(180) translate(-30 -48)" onmousedown="handlePan(0,1)">
                  <use xlink:href="#rim" fill="#404040">
                        <set attributeName="fill" to="#808080" begin="arrowDown.mouseover" end="arrowDown.mouseout"/>
                  </use>
                  <path fill="none" stroke="white" stroke-width="1.5" d="M0,-3.0v7 M-2.5,-0.5L0,-3.0L2.5,-0.5"/>
                </g>
                <g id="arrowLeft" xlink:href="#dirArrow" transform="rotate(270) translate(-36 17)" onmousedown="handlePan(-1,0)">
                  <use xlink:href="#rim" fill="#404040">
                        <set attributeName="fill" to="#808080" begin="arrowLeft.mouseover" end="arrowLeft.mouseout"/>
                  </use>
                  <path fill="none" stroke="white" stroke-width="1.5" d="M0,-3.0v7 M-2.5,-0.5L0,-3.0L2.5,-0.5"/>
                </g>
        </g>
        <svg viewBox="0 0 15 15" width="100%" height="30px" preserveAspectRatio="xMaxYMin meet">
         <g id="arrow_out" transform="scale(0.3 0.3)">
          <a xlink:href="lifter_8h__incl_org.svg" target="_base">
           <rect id="button" ry="5" rx="5" y="6" x="6" height="38" width="38"
                fill="#f2f5e9" fill-opacity="0.5" stroke="#606060" stroke-width="1.0"/>
           <path id="arrow"
             d="M 11.500037,31.436501 C 11.940474,20.09759 22.043105,11.32322 32.158766,21.979434 L 37.068811,17.246167 C 37.068811,17.246167 37.088388,32 37.088388,32 L 22.160133,31.978069 C 22.160133,31.978069 26.997745,27.140456 26.997745,27.140456 C 18.528582,18.264221 13.291696,25.230495 11.500037,31.436501 z"
             style="fill:#404040;"/>
          </a>
         </g>
        </svg>
</svg>
