<?xml version="1.0" encoding="UTF-8" standalone="no"?>
<!DOCTYPE svg PUBLIC "-//W3C//DTD SVG 1.1//EN"
 "http://www.w3.org/Graphics/SVG/1.1/DTD/svg11.dtd">
<!-- Generated by graphviz version 2.40.1 (20161225.0304)
 -->
<!-- Title: src/lifter.c Pages: 1 -->
<svg width="556pt" height="357pt"
 viewBox="0.00 0.00 555.56 357.00" xmlns="http://www.w3.org/2000/svg" xmlns:xlink="http://www.w3.org/1999/xlink">
<g id="graph0" class="graph" transform="scale(1 1) rotate(0) translate(4 353)">
<title>src/lifter.c</title>
<!-- Node0 -->
<g id="node1" class="node">
<title>Node0</title>
<polygon fill="#bfbfbf" stroke="#000000" points="299.2704,-330.5 299.2704,-348.5 357.5019,-348.5 357.5019,-330.5 299.2704,-330.5"/>
<text text-anchor="middle" x="328.3862" y="-336.5" font-family="Helvetica,sans-Serif" font-size="10.00" fill="#000000">src/lifter.c</text>
</g>
<!-- Node1 -->
<g id="node2" class="node">
<title>Node1</title>
<g id="a_node2"><a xlink:href="lifter_8h.html" target="_top" xlink:title="Declarations and macros for controlling and manipulating the lifter. ">
<polygon fill="none" stroke="#000000" points="203.0439,-275.5 203.0439,-293.5 245.7284,-293.5 245.7284,-275.5 203.0439,-275.5"/>
<text text-anchor="middle" x="224.3862" y="-281.5" font-family="Helvetica,sans-Serif" font-size="10.00" fill="#000000">lifter.h</text>
</a>
</g>
</g>
<!-- Node0&#45;&gt;Node1 -->
<g id="edge1" class="edge">
<title>Node0&#45;&gt;Node1</title>
<path fill="none" stroke="#191970" d="M311.2127,-330.4179C294.7282,-321.7001 269.6019,-308.4122 250.6129,-298.3699"/>
<polygon fill="#191970" stroke="#191970" points="252.0614,-295.1767 241.5852,-293.5956 248.7889,-301.3646 252.0614,-295.1767"/>
</g>
<!-- Node14 -->
<g id="node15" class="node">
<title>Node14</title>
<g id="a_node15"><a xlink:href="log_8h.html" target="_top" xlink:title="Contains logging functions. ">
<polygon fill="none" stroke="#000000" points="408.5439,-165.5 408.5439,-183.5 446.2284,-183.5 446.2284,-165.5 408.5439,-165.5"/>
<text text-anchor="middle" x="427.3862" y="-171.5" font-family="Helvetica,sans-Serif" font-size="10.00" fill="#000000">log.h</text>
</a>
</g>
</g>
<!-- Node0&#45;&gt;Node14 -->
<g id="edge23" class="edge">
<title>Node0&#45;&gt;Node14</title>
<path fill="none" stroke="#191970" d="M337.8768,-330.4537C354.7224,-313.8808 389.9038,-276.8592 409.3862,-239 416.7837,-224.6246 421.4558,-206.8343 424.1806,-193.5811"/>
<polygon fill="#191970" stroke="#191970" points="427.6324,-194.1628 426.0285,-183.69 420.7515,-192.8772 427.6324,-194.1628"/>
</g>
<!-- Node2 -->
<g id="node3" class="node">
<title>Node2</title>
<g id="a_node3"><a xlink:href="controller_8h.html" target="_top" xlink:title="controller definitions, macros and functions to assist with usig the vex controllers. ">
<polygon fill="none" stroke="#000000" points="37.9257,-110.5 37.9257,-128.5 102.8466,-128.5 102.8466,-110.5 37.9257,-110.5"/>
<text text-anchor="middle" x="70.3862" y="-116.5" font-family="Helvetica,sans-Serif" font-size="10.00" fill="#000000">controller.h</text>
</a>
</g>
</g>
<!-- Node1&#45;&gt;Node2 -->
<g id="edge2" class="edge">
<title>Node1&#45;&gt;Node2</title>
<path fill="none" stroke="#191970" d="M202.941,-283.3651C152.7871,-280.2173 30.2,-269.4991 5.3862,-239 -7.0547,-223.7088 5.2798,-189.6741 20.3862,-165 27.496,-153.3871 38.4305,-142.9552 48.263,-135.0188"/>
<polygon fill="#191970" stroke="#191970" points="50.6806,-137.576 56.4961,-128.7199 46.4272,-132.0165 50.6806,-137.576"/>
</g>
<!-- Node5 -->
<g id="node6" class="node">
<title>Node5</title>
<polygon fill="none" stroke="#bfbfbf" points="337.1572,-55.5 337.1572,-73.5 377.6152,-73.5 377.6152,-55.5 337.1572,-55.5"/>
<text text-anchor="middle" x="357.3862" y="-61.5" font-family="Helvetica,sans-Serif" font-size="10.00" fill="#000000">API.h</text>
</g>
<!-- Node1&#45;&gt;Node5 -->
<g id="edge22" class="edge">
<title>Node1&#45;&gt;Node5</title>
<path fill="none" stroke="#191970" d="M245.7693,-281.2706C283.797,-275.043 360.6768,-260.1006 376.3862,-239 381.4289,-232.2266 377.4719,-228.3744 376.3862,-220 371.0082,-178.5198 357.7641,-170.4802 352.3862,-129 351.3004,-120.6256 351.9243,-118.4318 352.3862,-110 352.8643,-101.2715 353.8547,-91.6434 354.8288,-83.5002"/>
<polygon fill="#191970" stroke="#191970" points="358.3058,-83.9025 356.0975,-73.5404 351.3619,-83.0179 358.3058,-83.9025"/>
</g>
<!-- Node6 -->
<g id="node7" class="node">
<title>Node6</title>
<g id="a_node7"><a xlink:href="drive_8h.html" target="_top" xlink:title="Drive base definitions and enumerations. ">
<polygon fill="none" stroke="#000000" points="22.3788,-220.5 22.3788,-238.5 68.3935,-238.5 68.3935,-220.5 22.3788,-220.5"/>
<text text-anchor="middle" x="45.3862" y="-226.5" font-family="Helvetica,sans-Serif" font-size="10.00" fill="#000000">drive.h</text>
</a>
</g>
</g>
<!-- Node1&#45;&gt;Node6 -->
<g id="edge6" class="edge">
<title>Node1&#45;&gt;Node6</title>
<path fill="none" stroke="#191970" d="M202.7946,-277.8657C171.7716,-268.3335 114.3411,-250.6873 78.0916,-239.5492"/>
<polygon fill="#191970" stroke="#191970" points="79.0556,-236.1839 68.4687,-236.5924 76.9996,-242.8752 79.0556,-236.1839"/>
</g>
<!-- Node7 -->
<g id="node8" class="node">
<title>Node7</title>
<g id="a_node8"><a xlink:href="partner_8h.html" target="_top" xlink:title="partner.h">
<polygon fill="none" stroke="#000000" points="29.6474,-165.5 29.6474,-183.5 85.1249,-183.5 85.1249,-165.5 29.6474,-165.5"/>
<text text-anchor="middle" x="57.3862" y="-171.5" font-family="Helvetica,sans-Serif" font-size="10.00" fill="#000000">partner.h</text>
</a>
</g>
</g>
<!-- Node1&#45;&gt;Node7 -->
<g id="edge12" class="edge">
<title>Node1&#45;&gt;Node7</title>
<path fill="none" stroke="#191970" d="M202.9935,-283.1857C154.2075,-279.6969 37.1029,-268.3762 13.3862,-239 .4791,-223.013 18.2824,-203.3452 34.9537,-189.9601"/>
<polygon fill="#191970" stroke="#191970" points="37.5261,-192.4037 43.3999,-183.5861 33.3094,-186.8162 37.5261,-192.4037"/>
</g>
<!-- Node8 -->
<g id="node9" class="node">
<title>Node8</title>
<g id="a_node9"><a xlink:href="motor__ports_8h.html" target="_top" xlink:title="The motor port definitionsMacros for the different motors ports. ">
<polygon fill="none" stroke="#000000" points="86.539,-220.5 86.539,-238.5 164.2333,-238.5 164.2333,-220.5 86.539,-220.5"/>
<text text-anchor="middle" x="125.3862" y="-226.5" font-family="Helvetica,sans-Serif" font-size="10.00" fill="#000000">motor_ports.h</text>
</a>
</g>
</g>
<!-- Node1&#45;&gt;Node8 -->
<g id="edge11" class="edge">
<title>Node1&#45;&gt;Node8</title>
<path fill="none" stroke="#191970" d="M208.0383,-275.4179C192.418,-266.7399 168.6463,-253.5334 150.6,-243.5077"/>
<polygon fill="#191970" stroke="#191970" points="152.1996,-240.3925 141.7583,-238.5956 148.8001,-246.5117 152.1996,-240.3925"/>
</g>
<!-- Node9 -->
<g id="node10" class="node">
<title>Node9</title>
<g id="a_node10"><a xlink:href="potentiometer_8h.html" target="_top" xlink:title="potentiometer.h">
<polygon fill="none" stroke="#000000" points="181.9159,-220.5 181.9159,-238.5 266.8564,-238.5 266.8564,-220.5 181.9159,-220.5"/>
<text text-anchor="middle" x="224.3862" y="-226.5" font-family="Helvetica,sans-Serif" font-size="10.00" fill="#000000">potentiometer.h</text>
</a>
</g>
</g>
<!-- Node1&#45;&gt;Node9 -->
<g id="edge13" class="edge">
<title>Node1&#45;&gt;Node9</title>
<path fill="none" stroke="#191970" d="M224.3862,-275.4179C224.3862,-268.2164 224.3862,-257.8962 224.3862,-248.8632"/>
<polygon fill="#191970" stroke="#191970" points="227.8863,-248.7794 224.3862,-238.7795 220.8863,-248.7795 227.8863,-248.7794"/>
</g>
<!-- Node10 -->
<g id="node11" class="node">
<title>Node10</title>
<g id="a_node11"><a xlink:href="sensor__ports_8h.html" target="_top" xlink:title="sensor_ports.h">
<polygon fill="none" stroke="#000000" points="285.3124,-220.5 285.3124,-238.5 367.4599,-238.5 367.4599,-220.5 285.3124,-220.5"/>
<text text-anchor="middle" x="326.3862" y="-226.5" font-family="Helvetica,sans-Serif" font-size="10.00" fill="#000000">sensor_ports.h</text>
</a>
</g>
</g>
<!-- Node1&#45;&gt;Node10 -->
<g id="edge14" class="edge">
<title>Node1&#45;&gt;Node10</title>
<path fill="none" stroke="#191970" d="M241.2294,-275.4179C257.3969,-266.7001 282.0399,-253.4122 300.6638,-243.3699"/>
<polygon fill="#191970" stroke="#191970" points="302.3771,-246.4225 309.5179,-238.5956 299.0548,-240.2611 302.3771,-246.4225"/>
</g>
<!-- Node11 -->
<g id="node12" class="node">
<title>Node11</title>
<g id="a_node12"><a xlink:href="slew_8h.html" target="_top" xlink:title="Contains the slew rate controller wrapper for the motors. ">
<polygon fill="none" stroke="#000000" points="479.4872,-165.5 479.4872,-183.5 523.2851,-183.5 523.2851,-165.5 479.4872,-165.5"/>
<text text-anchor="middle" x="501.3862" y="-171.5" font-family="Helvetica,sans-Serif" font-size="10.00" fill="#000000">slew.h</text>
</a>
</g>
</g>
<!-- Node1&#45;&gt;Node11 -->
<g id="edge15" class="edge">
<title>Node1&#45;&gt;Node11</title>
<path fill="none" stroke="#191970" d="M245.7539,-281.8607C281.0934,-276.9312 353.3724,-264.4392 409.3862,-239 437.3176,-226.3147 465.6511,-204.8735 483.3517,-190.2216"/>
<polygon fill="#191970" stroke="#191970" points="485.7589,-192.7697 491.1385,-183.6423 481.2411,-187.4227 485.7589,-192.7697"/>
</g>
<!-- Node3 -->
<g id="node4" class="node">
<title>Node3</title>
<g id="a_node4"><a xlink:href="vmath_8h.html" target="_top" xlink:title="Vex Specific Math Functions, includes: Cartesian to polar cordinates. ">
<polygon fill="none" stroke="#000000" points="144.6005,-55.5 144.6005,-73.5 196.1718,-73.5 196.1718,-55.5 144.6005,-55.5"/>
<text text-anchor="middle" x="170.3862" y="-61.5" font-family="Helvetica,sans-Serif" font-size="10.00" fill="#000000">vmath.h</text>
</a>
</g>
</g>
<!-- Node2&#45;&gt;Node3 -->
<g id="edge3" class="edge">
<title>Node2&#45;&gt;Node3</title>
<path fill="none" stroke="#191970" d="M86.8991,-110.4179C102.6772,-101.7399 126.689,-88.5334 144.9176,-78.5077"/>
<polygon fill="#191970" stroke="#191970" points="146.7732,-81.4816 153.8487,-73.5956 143.3998,-75.3481 146.7732,-81.4816"/>
</g>
<!-- Node2&#45;&gt;Node5 -->
<g id="edge5" class="edge">
<title>Node2&#45;&gt;Node5</title>
<path fill="none" stroke="#191970" d="M103.0293,-113.2443C158.9503,-102.5278 272.2988,-80.8059 326.7856,-70.3642"/>
<polygon fill="#191970" stroke="#191970" points="327.7012,-73.7525 336.8637,-68.4329 326.3836,-66.8776 327.7012,-73.7525"/>
</g>
<!-- Node4 -->
<g id="node5" class="node">
<title>Node4</title>
<polygon fill="none" stroke="#bfbfbf" points="495.1005,-.5 495.1005,-18.5 541.6718,-18.5 541.6718,-.5 495.1005,-.5"/>
<text text-anchor="middle" x="518.3862" y="-6.5" font-family="Helvetica,sans-Serif" font-size="10.00" fill="#000000">math.h</text>
</g>
<!-- Node3&#45;&gt;Node4 -->
<g id="edge4" class="edge">
<title>Node3&#45;&gt;Node4</title>
<path fill="none" stroke="#191970" d="M196.2584,-60.411C258.2871,-50.6076 415.4509,-25.7685 484.7188,-14.821"/>
<polygon fill="#191970" stroke="#191970" points="485.3357,-18.267 494.6667,-13.2488 484.2429,-11.3528 485.3357,-18.267"/>
</g>
<!-- Node6&#45;&gt;Node5 -->
<g id="edge10" class="edge">
<title>Node6&#45;&gt;Node5</title>
<path fill="none" stroke="#191970" d="M62.605,-220.3939C114.3837,-193.0109 268.9174,-111.2863 331.0687,-78.4179"/>
<polygon fill="#191970" stroke="#191970" points="333.0168,-81.347 340.2205,-73.578 329.7443,-75.159 333.0168,-81.347"/>
</g>
<!-- Node6&#45;&gt;Node7 -->
<g id="edge7" class="edge">
<title>Node6&#45;&gt;Node7</title>
<path fill="none" stroke="#191970" d="M47.3677,-220.4179C48.9562,-213.1372 51.2402,-202.669 53.2263,-193.5659"/>
<polygon fill="#191970" stroke="#191970" points="56.6494,-194.2957 55.3615,-183.7795 49.8102,-192.8035 56.6494,-194.2957"/>
</g>
<!-- Node7&#45;&gt;Node2 -->
<g id="edge9" class="edge">
<title>Node7&#45;&gt;Node2</title>
<path fill="none" stroke="#191970" d="M59.5328,-165.4179C61.2537,-158.1372 63.728,-147.669 65.8797,-138.5659"/>
<polygon fill="#191970" stroke="#191970" points="69.2986,-139.3164 68.1928,-128.7795 62.4864,-137.7062 69.2986,-139.3164"/>
</g>
<!-- Node7&#45;&gt;Node5 -->
<g id="edge8" class="edge">
<title>Node7&#45;&gt;Node5</title>
<path fill="none" stroke="#191970" d="M81.9364,-165.4982C136.5706,-145.4657 268.0444,-97.2587 327.4062,-75.4926"/>
<polygon fill="#191970" stroke="#191970" points="328.772,-78.7198 336.9558,-71.9911 326.3621,-72.1477 328.772,-78.7198"/>
</g>
<!-- Node11&#45;&gt;Node4 -->
<g id="edge17" class="edge">
<title>Node11&#45;&gt;Node4</title>
<path fill="none" stroke="#191970" d="M513.7116,-165.2157C523.5741,-156.9515 536.6674,-143.8894 542.3862,-129 555.5973,-94.6036 539.7333,-51.713 528.2346,-27.7965"/>
<polygon fill="#191970" stroke="#191970" points="531.3126,-26.1273 523.6713,-18.7883 525.0681,-29.2906 531.3126,-26.1273"/>
</g>
<!-- Node11&#45;&gt;Node5 -->
<g id="edge16" class="edge">
<title>Node11&#45;&gt;Node5</title>
<path fill="none" stroke="#191970" d="M491.5362,-165.3147C477.5131,-152.4064 450.7842,-128.4177 426.3862,-110 411.7771,-98.9719 394.5949,-87.6368 381.0312,-79.0389"/>
<polygon fill="#191970" stroke="#191970" points="382.6268,-75.9083 372.2952,-73.5612 378.9082,-81.8389 382.6268,-75.9083"/>
</g>
<!-- Node12 -->
<g id="node13" class="node">
<title>Node12</title>
<g id="a_node13"><a xlink:href="vlib_8h.html" target="_top" xlink:title="Contains misc helpful functions. ">
<polygon fill="none" stroke="#000000" points="493.7138,-110.5 493.7138,-128.5 533.0585,-128.5 533.0585,-110.5 493.7138,-110.5"/>
<text text-anchor="middle" x="513.3862" y="-116.5" font-family="Helvetica,sans-Serif" font-size="10.00" fill="#000000">vlib.h</text>
</a>
</g>
</g>
<!-- Node11&#45;&gt;Node12 -->
<g id="edge18" class="edge">
<title>Node11&#45;&gt;Node12</title>
<path fill="none" stroke="#191970" d="M503.3677,-165.4179C504.9562,-158.1372 507.2402,-147.669 509.2263,-138.5659"/>
<polygon fill="#191970" stroke="#191970" points="512.6494,-139.2957 511.3615,-128.7795 505.8102,-137.8035 512.6494,-139.2957"/>
</g>
<!-- Node12&#45;&gt;Node4 -->
<g id="edge20" class="edge">
<title>Node12&#45;&gt;Node4</title>
<path fill="none" stroke="#191970" d="M513.7953,-110.4982C514.6047,-92.6913 516.426,-52.6225 517.5156,-28.6515"/>
<polygon fill="#191970" stroke="#191970" points="521.0135,-28.7748 517.9713,-18.6261 514.0208,-28.4569 521.0135,-28.7748"/>
</g>
<!-- Node12&#45;&gt;Node5 -->
<g id="edge19" class="edge">
<title>Node12&#45;&gt;Node5</title>
<path fill="none" stroke="#191970" d="M493.6286,-112.5342C466.8477,-103.0922 418.7843,-86.1468 387.4948,-75.1152"/>
<polygon fill="#191970" stroke="#191970" points="388.5683,-71.7826 377.9735,-71.7584 386.2407,-78.3843 388.5683,-71.7826"/>
</g>
<!-- Node13 -->
<g id="node14" class="node">
<title>Node13</title>
<polygon fill="none" stroke="#bfbfbf" points="441.9897,-55.5 441.9897,-73.5 490.7826,-73.5 490.7826,-55.5 441.9897,-55.5"/>
<text text-anchor="middle" x="466.3862" y="-61.5" font-family="Helvetica,sans-Serif" font-size="10.00" fill="#000000">string.h</text>
</g>
<!-- Node12&#45;&gt;Node13 -->
<g id="edge21" class="edge">
<title>Node12&#45;&gt;Node13</title>
<path fill="none" stroke="#191970" d="M505.6251,-110.4179C498.93,-102.5833 489.0808,-91.0575 480.9251,-81.5137"/>
<polygon fill="#191970" stroke="#191970" points="483.4732,-79.108 474.3159,-73.7795 478.1516,-83.6556 483.4732,-79.108"/>
</g>
<!-- Node14&#45;&gt;Node5 -->
<g id="edge26" class="edge">
<title>Node14&#45;&gt;Node5</title>
<path fill="none" stroke="#191970" d="M426.265,-165.0749C424.3451,-151.8816 419.5011,-127.5565 408.3862,-110 400.9482,-98.2514 389.6329,-87.7246 379.5488,-79.7628"/>
<polygon fill="#191970" stroke="#191970" points="381.579,-76.9104 371.4798,-73.7077 377.3775,-82.5093 381.579,-76.9104"/>
</g>
<!-- Node15 -->
<g id="node16" class="node">
<title>Node15</title>
<g id="a_node16"><a xlink:href="lcd_8h.html" target="_top" xlink:title="LCD wrapper functions and macros. ">
<polygon fill="none" stroke="#000000" points="361.8246,-110.5 361.8246,-128.5 398.9477,-128.5 398.9477,-110.5 361.8246,-110.5"/>
<text text-anchor="middle" x="380.3862" y="-116.5" font-family="Helvetica,sans-Serif" font-size="10.00" fill="#000000">lcd.h</text>
</a>
</g>
</g>
<!-- Node14&#45;&gt;Node15 -->
<g id="edge24" class="edge">
<title>Node14&#45;&gt;Node15</title>
<path fill="none" stroke="#191970" d="M419.6251,-165.4179C412.93,-157.5833 403.0808,-146.0575 394.9251,-136.5137"/>
<polygon fill="#191970" stroke="#191970" points="397.4732,-134.108 388.3159,-128.7795 392.1516,-138.6556 397.4732,-134.108"/>
</g>
<!-- Node15&#45;&gt;Node5 -->
<g id="edge25" class="edge">
<title>Node15&#45;&gt;Node5</title>
<path fill="none" stroke="#191970" d="M376.5882,-110.4179C373.5104,-103.0581 369.0706,-92.441 365.2352,-83.2695"/>
<polygon fill="#191970" stroke="#191970" points="368.3538,-81.6549 361.2667,-73.7795 361.8957,-84.3556 368.3538,-81.6549"/>
</g>
</g>
</svg>
