<?xml version="1.0" encoding="UTF-8" standalone="no"?>
<!DOCTYPE svg PUBLIC "-//W3C//DTD SVG 1.1//EN"
 "http://www.w3.org/Graphics/SVG/1.1/DTD/svg11.dtd">
<!-- Generated by graphviz version 2.40.1 (20161225.0304)
 -->
<!-- Title: include/lifter.h Pages: 1 -->
<svg width="535pt" height="302pt"
 viewBox="0.00 0.00 534.99 302.00" xmlns="http://www.w3.org/2000/svg" xmlns:xlink="http://www.w3.org/1999/xlink">
<g id="graph0" class="graph" transform="scale(1 1) rotate(0) translate(4 298)">
<title>include/lifter.h</title>
<!-- Node0 -->
<g id="node1" class="node">
<title>Node0</title>
<polygon fill="#bfbfbf" stroke="#000000" points="205.3174,-275.5 205.3174,-293.5 282.4697,-293.5 282.4697,-275.5 205.3174,-275.5"/>
<text text-anchor="middle" x="243.8935" y="-281.5" font-family="Helvetica,sans-Serif" font-size="10.00" fill="#000000">include/lifter.h</text>
</g>
<!-- Node1 -->
<g id="node2" class="node">
<title>Node1</title>
<polygon fill="none" stroke="#bfbfbf" points="357.6645,-55.5 357.6645,-73.5 398.1225,-73.5 398.1225,-55.5 357.6645,-55.5"/>
<text text-anchor="middle" x="377.8935" y="-61.5" font-family="Helvetica,sans-Serif" font-size="10.00" fill="#000000">API.h</text>
</g>
<!-- Node0&#45;&gt;Node1 -->
<g id="edge1" class="edge">
<title>Node0&#45;&gt;Node1</title>
<path fill="none" stroke="#191970" d="M282.8115,-278.8662C325.3183,-271.8229 389.3167,-258.3001 403.8935,-239 439.5129,-191.8391 406.6674,-116.6375 388.3289,-82.4571"/>
<polygon fill="#191970" stroke="#191970" points="391.322,-80.6379 383.402,-73.6006 385.2049,-84.0409 391.322,-80.6379"/>
</g>
<!-- Node2 -->
<g id="node3" class="node">
<title>Node2</title>
<g id="a_node3"><a xlink:href="motor__ports_8h.html" target="_top" xlink:title="The motor port definitionsMacros for the different motors ports. ">
<polygon fill="none" stroke="#000000" points="13.0464,-220.5 13.0464,-238.5 90.7407,-238.5 90.7407,-220.5 13.0464,-220.5"/>
<text text-anchor="middle" x="51.8935" y="-226.5" font-family="Helvetica,sans-Serif" font-size="10.00" fill="#000000">motor_ports.h</text>
</a>
</g>
</g>
<!-- Node0&#45;&gt;Node2 -->
<g id="edge2" class="edge">
<title>Node0&#45;&gt;Node2</title>
<path fill="none" stroke="#191970" d="M212.1886,-275.4179C179.5739,-266.0751 128.6356,-251.4834 92.957,-241.263"/>
<polygon fill="#191970" stroke="#191970" points="93.9036,-237.8934 83.3264,-238.5042 91.9759,-244.6228 93.9036,-237.8934"/>
</g>
<!-- Node3 -->
<g id="node4" class="node">
<title>Node3</title>
<g id="a_node4"><a xlink:href="sensor__ports_8h.html" target="_top" xlink:title="sensor_ports.h">
<polygon fill="none" stroke="#000000" points="108.8198,-220.5 108.8198,-238.5 190.9673,-238.5 190.9673,-220.5 108.8198,-220.5"/>
<text text-anchor="middle" x="149.8935" y="-226.5" font-family="Helvetica,sans-Serif" font-size="10.00" fill="#000000">sensor_ports.h</text>
</a>
</g>
</g>
<!-- Node0&#45;&gt;Node3 -->
<g id="edge3" class="edge">
<title>Node0&#45;&gt;Node3</title>
<path fill="none" stroke="#191970" d="M228.3713,-275.4179C213.676,-266.8195 191.3824,-253.7754 174.3069,-243.7844"/>
<polygon fill="#191970" stroke="#191970" points="175.8375,-240.6249 165.4388,-238.5956 172.3023,-246.6667 175.8375,-240.6249"/>
</g>
<!-- Node4 -->
<g id="node5" class="node">
<title>Node4</title>
<g id="a_node5"><a xlink:href="slew_8h.html" target="_top" xlink:title="Contains the slew rate controller wrapper for the motors. ">
<polygon fill="none" stroke="#000000" points="449.9946,-165.5 449.9946,-183.5 493.7925,-183.5 493.7925,-165.5 449.9946,-165.5"/>
<text text-anchor="middle" x="471.8935" y="-171.5" font-family="Helvetica,sans-Serif" font-size="10.00" fill="#000000">slew.h</text>
</a>
</g>
</g>
<!-- Node0&#45;&gt;Node4 -->
<g id="edge4" class="edge">
<title>Node0&#45;&gt;Node4</title>
<path fill="none" stroke="#191970" d="M282.8656,-279.1473C332.0242,-271.754 413.029,-257.239 436.8935,-239 451.8811,-227.5454 461.2399,-207.7648 466.4674,-193.1209"/>
<polygon fill="#191970" stroke="#191970" points="469.8129,-194.1502 469.5651,-183.5582 463.1536,-191.9929 469.8129,-194.1502"/>
</g>
<!-- Node8 -->
<g id="node9" class="node">
<title>Node8</title>
<g id="a_node9"><a xlink:href="controller_8h.html" target="_top" xlink:title="controller definitions, macros and functions to assist with usig the vex controllers. ">
<polygon fill="none" stroke="#000000" points="237.4331,-110.5 237.4331,-128.5 302.354,-128.5 302.354,-110.5 237.4331,-110.5"/>
<text text-anchor="middle" x="269.8935" y="-116.5" font-family="Helvetica,sans-Serif" font-size="10.00" fill="#000000">controller.h</text>
</a>
</g>
</g>
<!-- Node0&#45;&gt;Node8 -->
<g id="edge11" class="edge">
<title>Node0&#45;&gt;Node8</title>
<path fill="none" stroke="#191970" d="M205.0223,-282.9408C143.7266,-279.5751 28.9833,-269.2933 3.8935,-239 -1.4929,-232.4965 -.9078,-226.9466 3.8935,-220 29.9912,-182.2416 158.5253,-146.3103 226.9097,-129.4743"/>
<polygon fill="#191970" stroke="#191970" points="228.0535,-132.7982 236.9436,-127.0347 226.3998,-125.9963 228.0535,-132.7982"/>
</g>
<!-- Node10 -->
<g id="node11" class="node">
<title>Node10</title>
<g id="a_node11"><a xlink:href="potentiometer_8h.html" target="_top" xlink:title="potentiometer.h">
<polygon fill="none" stroke="#000000" points="310.4233,-220.5 310.4233,-238.5 395.3637,-238.5 395.3637,-220.5 310.4233,-220.5"/>
<text text-anchor="middle" x="352.8935" y="-226.5" font-family="Helvetica,sans-Serif" font-size="10.00" fill="#000000">potentiometer.h</text>
</a>
</g>
</g>
<!-- Node0&#45;&gt;Node10 -->
<g id="edge15" class="edge">
<title>Node0&#45;&gt;Node10</title>
<path fill="none" stroke="#191970" d="M261.8927,-275.4179C279.2486,-266.6603 305.7446,-253.2907 325.6781,-243.2326"/>
<polygon fill="#191970" stroke="#191970" points="327.5165,-246.2253 334.8677,-238.5956 324.3631,-239.9758 327.5165,-246.2253"/>
</g>
<!-- Node11 -->
<g id="node12" class="node">
<title>Node11</title>
<g id="a_node12"><a xlink:href="partner_8h.html" target="_top" xlink:title="partner.h">
<polygon fill="none" stroke="#000000" points="242.1548,-165.5 242.1548,-183.5 297.6323,-183.5 297.6323,-165.5 242.1548,-165.5"/>
<text text-anchor="middle" x="269.8935" y="-171.5" font-family="Helvetica,sans-Serif" font-size="10.00" fill="#000000">partner.h</text>
</a>
</g>
</g>
<!-- Node0&#45;&gt;Node11 -->
<g id="edge16" class="edge">
<title>Node0&#45;&gt;Node11</title>
<path fill="none" stroke="#191970" d="M240.7525,-275.0689C236.9973,-262.2808 231.922,-238.8712 237.8935,-220 241.1886,-209.5871 247.8175,-199.4946 254.1916,-191.4715"/>
<polygon fill="#191970" stroke="#191970" points="257.0231,-193.5448 260.8384,-183.6607 251.692,-189.0082 257.0231,-193.5448"/>
</g>
<!-- Node12 -->
<g id="node13" class="node">
<title>Node12</title>
<g id="a_node13"><a xlink:href="drive_8h.html" target="_top" xlink:title="Drive base definitions and enumerations. ">
<polygon fill="none" stroke="#000000" points="246.8862,-220.5 246.8862,-238.5 292.9009,-238.5 292.9009,-220.5 246.8862,-220.5"/>
<text text-anchor="middle" x="269.8935" y="-226.5" font-family="Helvetica,sans-Serif" font-size="10.00" fill="#000000">drive.h</text>
</a>
</g>
</g>
<!-- Node0&#45;&gt;Node12 -->
<g id="edge19" class="edge">
<title>Node0&#45;&gt;Node12</title>
<path fill="none" stroke="#191970" d="M248.1869,-275.4179C251.7035,-267.9789 256.7932,-257.2123 261.1603,-247.9742"/>
<polygon fill="#191970" stroke="#191970" points="264.3973,-249.316 265.5069,-238.7795 258.0688,-246.3243 264.3973,-249.316"/>
</g>
<!-- Node4&#45;&gt;Node1 -->
<g id="edge5" class="edge">
<title>Node4&#45;&gt;Node1</title>
<path fill="none" stroke="#191970" d="M464.6785,-165.1553C454.8087,-152.465 436.4327,-129.1659 419.8935,-110 411.4841,-100.2551 401.7534,-89.6725 393.7769,-81.1675"/>
<polygon fill="#191970" stroke="#191970" points="396.1779,-78.6123 386.7673,-73.745 391.0887,-83.4185 396.1779,-78.6123"/>
</g>
<!-- Node5 -->
<g id="node6" class="node">
<title>Node5</title>
<polygon fill="none" stroke="#bfbfbf" points="473.6079,-.5 473.6079,-18.5 520.1792,-18.5 520.1792,-.5 473.6079,-.5"/>
<text text-anchor="middle" x="496.8935" y="-6.5" font-family="Helvetica,sans-Serif" font-size="10.00" fill="#000000">math.h</text>
</g>
<!-- Node4&#45;&gt;Node5 -->
<g id="edge6" class="edge">
<title>Node4&#45;&gt;Node5</title>
<path fill="none" stroke="#191970" d="M487.0312,-165.4476C498.7218,-157.4956 514.0259,-144.749 520.8935,-129 535.6956,-95.0556 519.0453,-51.6772 507.0268,-27.625"/>
<polygon fill="#191970" stroke="#191970" points="510.0218,-25.8007 502.2649,-18.584 503.8284,-29.0629 510.0218,-25.8007"/>
</g>
<!-- Node6 -->
<g id="node7" class="node">
<title>Node6</title>
<g id="a_node7"><a xlink:href="vlib_8h.html" target="_top" xlink:title="Contains misc helpful functions. ">
<polygon fill="none" stroke="#000000" points="472.2212,-110.5 472.2212,-128.5 511.5659,-128.5 511.5659,-110.5 472.2212,-110.5"/>
<text text-anchor="middle" x="491.8935" y="-116.5" font-family="Helvetica,sans-Serif" font-size="10.00" fill="#000000">vlib.h</text>
</a>
</g>
</g>
<!-- Node4&#45;&gt;Node6 -->
<g id="edge7" class="edge">
<title>Node4&#45;&gt;Node6</title>
<path fill="none" stroke="#191970" d="M475.1961,-165.4179C477.8724,-158.0581 481.7332,-147.441 485.0683,-138.2695"/>
<polygon fill="#191970" stroke="#191970" points="488.391,-139.3735 488.5192,-128.7795 481.8124,-136.9813 488.391,-139.3735"/>
</g>
<!-- Node6&#45;&gt;Node1 -->
<g id="edge9" class="edge">
<title>Node6&#45;&gt;Node1</title>
<path fill="none" stroke="#191970" d="M473.0687,-110.4179C454.7517,-101.5807 426.7006,-88.0473 405.7905,-77.9591"/>
<polygon fill="#191970" stroke="#191970" points="407.2737,-74.7887 396.7463,-73.5956 404.232,-81.0933 407.2737,-74.7887"/>
</g>
<!-- Node6&#45;&gt;Node5 -->
<g id="edge8" class="edge">
<title>Node6&#45;&gt;Node5</title>
<path fill="none" stroke="#191970" d="M492.3027,-110.4982C493.1121,-92.6913 494.9334,-52.6225 496.023,-28.6515"/>
<polygon fill="#191970" stroke="#191970" points="499.5209,-28.7748 496.4787,-18.6261 492.5281,-28.4569 499.5209,-28.7748"/>
</g>
<!-- Node7 -->
<g id="node8" class="node">
<title>Node7</title>
<polygon fill="none" stroke="#bfbfbf" points="420.497,-55.5 420.497,-73.5 469.29,-73.5 469.29,-55.5 420.497,-55.5"/>
<text text-anchor="middle" x="444.8935" y="-61.5" font-family="Helvetica,sans-Serif" font-size="10.00" fill="#000000">string.h</text>
</g>
<!-- Node6&#45;&gt;Node7 -->
<g id="edge10" class="edge">
<title>Node6&#45;&gt;Node7</title>
<path fill="none" stroke="#191970" d="M484.1324,-110.4179C477.4374,-102.5833 467.5881,-91.0575 459.4325,-81.5137"/>
<polygon fill="#191970" stroke="#191970" points="461.9806,-79.108 452.8232,-73.7795 456.659,-83.6556 461.9806,-79.108"/>
</g>
<!-- Node8&#45;&gt;Node1 -->
<g id="edge14" class="edge">
<title>Node8&#45;&gt;Node1</title>
<path fill="none" stroke="#191970" d="M287.7275,-110.4179C304.9242,-101.6603 331.1772,-88.2907 350.9278,-78.2326"/>
<polygon fill="#191970" stroke="#191970" points="352.7103,-81.2526 360.033,-73.5956 349.5337,-75.0148 352.7103,-81.2526"/>
</g>
<!-- Node9 -->
<g id="node10" class="node">
<title>Node9</title>
<g id="a_node10"><a xlink:href="vmath_8h.html" target="_top" xlink:title="Vex Specific Math Functions, includes: Cartesian to polar cordinates. ">
<polygon fill="none" stroke="#000000" points="267.1079,-55.5 267.1079,-73.5 318.6792,-73.5 318.6792,-55.5 267.1079,-55.5"/>
<text text-anchor="middle" x="292.8935" y="-61.5" font-family="Helvetica,sans-Serif" font-size="10.00" fill="#000000">vmath.h</text>
</a>
</g>
</g>
<!-- Node8&#45;&gt;Node9 -->
<g id="edge12" class="edge">
<title>Node8&#45;&gt;Node9</title>
<path fill="none" stroke="#191970" d="M273.6915,-110.4179C276.7692,-103.0581 281.2091,-92.441 285.0445,-83.2695"/>
<polygon fill="#191970" stroke="#191970" points="288.3839,-84.3556 289.013,-73.7795 281.9259,-81.6549 288.3839,-84.3556"/>
</g>
<!-- Node9&#45;&gt;Node5 -->
<g id="edge13" class="edge">
<title>Node9&#45;&gt;Node5</title>
<path fill="none" stroke="#191970" d="M318.7303,-57.5342C355.5968,-47.5947 423.3042,-29.3403 463.7984,-18.4227"/>
<polygon fill="#191970" stroke="#191970" points="464.7278,-21.7972 473.4719,-15.8146 462.9056,-15.0385 464.7278,-21.7972"/>
</g>
<!-- Node11&#45;&gt;Node1 -->
<g id="edge18" class="edge">
<title>Node11&#45;&gt;Node1</title>
<path fill="none" stroke="#191970" d="M278.7316,-165.4982C296.9268,-146.9662 338.7955,-104.3221 361.8844,-80.8056"/>
<polygon fill="#191970" stroke="#191970" points="364.4249,-83.2139 368.9333,-73.6261 359.4299,-78.3097 364.4249,-83.2139"/>
</g>
<!-- Node11&#45;&gt;Node8 -->
<g id="edge17" class="edge">
<title>Node11&#45;&gt;Node8</title>
<path fill="none" stroke="#191970" d="M269.8935,-165.4179C269.8935,-158.2164 269.8935,-147.8962 269.8935,-138.8632"/>
<polygon fill="#191970" stroke="#191970" points="273.3936,-138.7794 269.8935,-128.7795 266.3936,-138.7795 273.3936,-138.7794"/>
</g>
<!-- Node12&#45;&gt;Node1 -->
<g id="edge20" class="edge">
<title>Node12&#45;&gt;Node1</title>
<path fill="none" stroke="#191970" d="M277.9606,-220.4008C285.7497,-211.4311 297.6857,-197.1908 306.8935,-184 330.9453,-149.5443 355.1256,-106.6751 368.1323,-82.7783"/>
<polygon fill="#191970" stroke="#191970" points="371.3202,-84.2407 372.9895,-73.7782 365.16,-80.9161 371.3202,-84.2407"/>
</g>
<!-- Node12&#45;&gt;Node11 -->
<g id="edge21" class="edge">
<title>Node12&#45;&gt;Node11</title>
<path fill="none" stroke="#191970" d="M269.8935,-220.4179C269.8935,-213.2164 269.8935,-202.8962 269.8935,-193.8632"/>
<polygon fill="#191970" stroke="#191970" points="273.3936,-193.7794 269.8935,-183.7795 266.3936,-193.7795 273.3936,-193.7794"/>
</g>
</g>
</svg>
