<?xml version="1.0" encoding="UTF-8" standalone="no"?>
<!DOCTYPE svg PUBLIC "-//W3C//DTD SVG 1.1//EN"
 "http://www.w3.org/Graphics/SVG/1.1/DTD/svg11.dtd">
<!-- Generated by graphviz version 2.40.1 (20161225.0304)
 -->
<!-- Title: raise_lifter Pages: 1 -->
<svg width="635pt" height="101pt"
 viewBox="0.00 0.00 634.72 101.00" xmlns="http://www.w3.org/2000/svg" xmlns:xlink="http://www.w3.org/1999/xlink">
<g id="graph0" class="graph" transform="scale(1 1) rotate(0) translate(4 97)">
<title>raise_lifter</title>
<!-- Node22 -->
<g id="node1" class="node">
<title>Node22</title>
<polygon fill="#bfbfbf" stroke="#000000" points="0,-55.5 0,-73.5 62.1279,-73.5 62.1279,-55.5 0,-55.5"/>
<text text-anchor="middle" x="31.064" y="-61.5" font-family="Helvetica,sans-Serif" font-size="10.00" fill="#000000">raise_lifter</text>
</g>
<!-- Node23 -->
<g id="node2" class="node">
<title>Node23</title>
<g id="a_node2"><a xlink:href="$lifter_8c.html#a2cfc188f60f945c824dd7fe7b0b5f4e4" xlink:title="Sets the lifter motors to the given value. ">
<polygon fill="none" stroke="#000000" points="98.1279,-55.5 98.1279,-73.5 188.0439,-73.5 188.0439,-55.5 98.1279,-55.5"/>
<text text-anchor="middle" x="143.0859" y="-61.5" font-family="Helvetica,sans-Serif" font-size="10.00" fill="#000000">set_lifter_motors</text>
</a>
</g>
</g>
<!-- Node22&#45;&gt;Node23 -->
<g id="edge1" class="edge">
<title>Node22&#45;&gt;Node23</title>
<path fill="none" stroke="#191970" d="M62.2683,-64.5C70.1786,-64.5 78.9162,-64.5 87.6356,-64.5"/>
<polygon fill="#191970" stroke="#191970" points="87.8125,-68.0001 97.8124,-64.5 87.8124,-61.0001 87.8125,-68.0001"/>
</g>
<!-- Node24 -->
<g id="node3" class="node">
<title>Node24</title>
<g id="a_node3"><a xlink:href="$slew_8h.html#a9f8b8ae577ef938622024545711f0151" xlink:title="Sets the motor speed ignoring the slew controller. ">
<polygon fill="none" stroke="#000000" points="224.0439,-55.5 224.0439,-73.5 336.1963,-73.5 336.1963,-55.5 224.0439,-55.5"/>
<text text-anchor="middle" x="280.1201" y="-61.5" font-family="Helvetica,sans-Serif" font-size="10.00" fill="#000000">set_motor_immediate</text>
</a>
</g>
</g>
<!-- Node23&#45;&gt;Node24 -->
<g id="edge2" class="edge">
<title>Node23&#45;&gt;Node24</title>
<path fill="none" stroke="#191970" d="M188.3358,-64.5C196.5167,-64.5 205.1996,-64.5 213.8353,-64.5"/>
<polygon fill="#191970" stroke="#191970" points="213.9182,-68.0001 223.9181,-64.5 213.9181,-61.0001 213.9182,-68.0001"/>
</g>
<!-- Node25 -->
<g id="node4" class="node">
<title>Node25</title>
<g id="a_node4"><a xlink:href="$log_8h.html#af3668f40d1ad1b4f3418869ac9a31f34" xlink:title="prints a info message ">
<polygon fill="none" stroke="#000000" points="377.4673,-74.5 377.4673,-92.5 421.2749,-92.5 421.2749,-74.5 377.4673,-74.5"/>
<text text-anchor="middle" x="399.3711" y="-80.5" font-family="Helvetica,sans-Serif" font-size="10.00" fill="#000000">debug</text>
</a>
</g>
</g>
<!-- Node24&#45;&gt;Node25 -->
<g id="edge3" class="edge">
<title>Node24&#45;&gt;Node25</title>
<path fill="none" stroke="#191970" d="M336.2537,-73.4436C346.9897,-75.1542 357.8772,-76.8889 367.5176,-78.4248"/>
<polygon fill="#191970" stroke="#191970" points="366.9965,-81.8859 377.4227,-80.003 368.098,-74.9731 366.9965,-81.8859"/>
</g>
<!-- Node26 -->
<g id="node5" class="node">
<title>Node26</title>
<g id="a_node5"><a xlink:href="$slew_8c.html#a321758941d88b75783955c819bb75005" xlink:title="Initializes the slew rate controller. ">
<polygon fill="none" stroke="#000000" points="372.1963,-37.5 372.1963,-55.5 426.5459,-55.5 426.5459,-37.5 372.1963,-37.5"/>
<text text-anchor="middle" x="399.3711" y="-43.5" font-family="Helvetica,sans-Serif" font-size="10.00" fill="#000000">init_slew</text>
</a>
</g>
</g>
<!-- Node24&#45;&gt;Node26 -->
<g id="edge4" class="edge">
<title>Node24&#45;&gt;Node26</title>
<path fill="none" stroke="#191970" d="M336.2537,-56.0271C345.0037,-54.7063 353.8544,-53.3704 362.0485,-52.1336"/>
<polygon fill="#191970" stroke="#191970" points="362.6539,-55.5819 372.0195,-50.6285 361.6091,-48.6603 362.6539,-55.5819"/>
</g>
<!-- Node27 -->
<g id="node6" class="node">
<title>Node27</title>
<g id="a_node6"><a xlink:href="$log_8h.html#a0bec2cf5fff7f607bc510b74aba9887c" xlink:title="prints a warning message and displays on lcd. Only will print and display if log_level is greater tha...">
<polygon fill="none" stroke="#000000" points="475.6099,-74.5 475.6099,-92.5 526.6294,-92.5 526.6294,-74.5 475.6099,-74.5"/>
<text text-anchor="middle" x="501.1196" y="-80.5" font-family="Helvetica,sans-Serif" font-size="10.00" fill="#000000">warning</text>
</a>
</g>
</g>
<!-- Node26&#45;&gt;Node27 -->
<g id="edge5" class="edge">
<title>Node26&#45;&gt;Node27</title>
<path fill="none" stroke="#191970" d="M424.2616,-55.5512C436.9493,-60.165 452.5844,-65.8506 466.433,-70.8865"/>
<polygon fill="#191970" stroke="#191970" points="465.5394,-74.2857 476.1335,-74.414 467.9317,-67.7072 465.5394,-74.2857"/>
</g>
<!-- Node29 -->
<g id="node8" class="node">
<title>Node29</title>
<g id="a_node8"><a xlink:href="$log_8h.html#a1606d750e1bb8de9f9e917172bba3382" xlink:title="prints a info message ">
<polygon fill="none" stroke="#000000" points="485.0581,-37.5 485.0581,-55.5 517.1812,-55.5 517.1812,-37.5 485.0581,-37.5"/>
<text text-anchor="middle" x="501.1196" y="-43.5" font-family="Helvetica,sans-Serif" font-size="10.00" fill="#000000">info</text>
</a>
</g>
</g>
<!-- Node26&#45;&gt;Node29 -->
<g id="edge7" class="edge">
<title>Node26&#45;&gt;Node29</title>
<path fill="none" stroke="#191970" d="M426.6378,-46.5C441.6062,-46.5 460.078,-46.5 474.8812,-46.5"/>
<polygon fill="#191970" stroke="#191970" points="474.9094,-50.0001 484.9094,-46.5 474.9094,-43.0001 474.9094,-50.0001"/>
</g>
<!-- Node30 -->
<g id="node9" class="node">
<title>Node30</title>
<g id="a_node9"><a xlink:href="$slew_8c.html#a807a87c5df438fde21c1e8213906695b" xlink:title="Closes the distance between the desired motor value and the current motor value by half for each moto...">
<polygon fill="none" stroke="#000000" points="462.5459,-.5 462.5459,-18.5 539.6934,-18.5 539.6934,-.5 462.5459,-.5"/>
<text text-anchor="middle" x="501.1196" y="-6.5" font-family="Helvetica,sans-Serif" font-size="10.00" fill="#000000">updateMotors</text>
</a>
</g>
</g>
<!-- Node26&#45;&gt;Node30 -->
<g id="edge8" class="edge">
<title>Node26&#45;&gt;Node30</title>
<path fill="none" stroke="#191970" d="M424.2616,-37.4488C436.9493,-32.835 452.5844,-27.1494 466.433,-22.1135"/>
<polygon fill="#191970" stroke="#191970" points="467.9317,-25.2928 476.1335,-18.586 465.5394,-18.7143 467.9317,-25.2928"/>
</g>
<!-- Node28 -->
<g id="node7" class="node">
<title>Node28</title>
<g id="a_node7"><a xlink:href="$log_8c.html#afff22aff6749311a684a559cac3ac8bd" xlink:title="log_info">
<polygon fill="none" stroke="#000000" points="575.6934,-74.5 575.6934,-92.5 626.7227,-92.5 626.7227,-74.5 575.6934,-74.5"/>
<text text-anchor="middle" x="601.208" y="-80.5" font-family="Helvetica,sans-Serif" font-size="10.00" fill="#000000">log_info</text>
</a>
</g>
</g>
<!-- Node27&#45;&gt;Node28 -->
<g id="edge6" class="edge">
<title>Node27&#45;&gt;Node28</title>
<path fill="none" stroke="#191970" d="M526.6351,-83.5C538.3091,-83.5 552.3489,-83.5 565.0826,-83.5"/>
<polygon fill="#191970" stroke="#191970" points="565.3911,-87.0001 575.3911,-83.5 565.3911,-80.0001 565.3911,-87.0001"/>
</g>
</g>
</svg>
