<?xml version="1.0" encoding="UTF-8" standalone="no"?>
<!DOCTYPE svg PUBLIC "-//W3C//DTD SVG 1.1//EN"
 "http://www.w3.org/Graphics/SVG/1.1/DTD/svg11.dtd">
<!-- Generated by graphviz version 2.40.1 (20161225.0304)
 -->
<!-- Title: lower_lifter Pages: 1 -->
<svg width="301pt" height="27pt"
 viewBox="0.00 0.00 300.87 27.00" xmlns="http://www.w3.org/2000/svg" xmlns:xlink="http://www.w3.org/1999/xlink">
<g id="graph0" class="graph" transform="scale(1 1) rotate(0) translate(4 23)">
<title>lower_lifter</title>
<!-- Node3 -->
<g id="node1" class="node">
<title>Node3</title>
<polygon fill="#bfbfbf" stroke="#000000" points="0,-.5 0,-18.5 64.3496,-18.5 64.3496,-.5 0,-.5"/>
<text text-anchor="middle" x="32.1748" y="-6.5" font-family="Helvetica,sans-Serif" font-size="10.00" fill="#000000">lower_lifter</text>
</g>
<!-- Node4 -->
<g id="node2" class="node">
<title>Node4</title>
<g id="a_node2"><a xlink:href="lifter_8c.html#a59bb7413777ca16aba124aaedf95c79b" target="_top" xlink:title="update_lifter">
<polygon fill="none" stroke="#000000" points="100.3496,-.5 100.3496,-18.5 171.3887,-18.5 171.3887,-.5 100.3496,-.5"/>
<text text-anchor="middle" x="135.8691" y="-6.5" font-family="Helvetica,sans-Serif" font-size="10.00" fill="#000000">update_lifter</text>
</a>
</g>
</g>
<!-- Node3&#45;&gt;Node4 -->
<g id="edge1" class="edge">
<title>Node3&#45;&gt;Node4</title>
<path fill="none" stroke="#191970" d="M74.513,-9.5C82.9856,-9.5 91.809,-9.5 100.036,-9.5"/>
<polygon fill="#191970" stroke="#191970" points="74.416,-6.0001 64.4159,-9.5 74.4159,-13.0001 74.416,-6.0001"/>
</g>
<!-- Node5 -->
<g id="node3" class="node">
<title>Node5</title>
<g id="a_node3"><a xlink:href="opcontrol_8c.html#ac71a94af413917f27d108e95c4d6f6a7" target="_top" xlink:title="operatorControl">
<polygon fill="none" stroke="#000000" points="207.3887,-.5 207.3887,-18.5 292.8711,-18.5 292.8711,-.5 207.3887,-.5"/>
<text text-anchor="middle" x="250.1299" y="-6.5" font-family="Helvetica,sans-Serif" font-size="10.00" fill="#000000">operatorControl</text>
</a>
</g>
</g>
<!-- Node4&#45;&gt;Node5 -->
<g id="edge2" class="edge">
<title>Node4&#45;&gt;Node5</title>
<path fill="none" stroke="#191970" d="M181.4445,-9.5C189.8677,-9.5 198.6405,-9.5 206.9888,-9.5"/>
<polygon fill="#191970" stroke="#191970" points="181.3957,-6.0001 171.3956,-9.5 181.3956,-13.0001 181.3957,-6.0001"/>
</g>
</g>
</svg>
