<?xml version="1.0" encoding="UTF-8" standalone="no"?>
<!DOCTYPE svg PUBLIC "-//W3C//DTD SVG 1.1//EN"
 "http://www.w3.org/Graphics/SVG/1.1/DTD/svg11.dtd">
<!-- Generated by graphviz version 2.40.1 (20161225.0304)
 -->
<!-- Title: update_lifter Pages: 1 -->
<svg width="755pt" height="194pt"
 viewBox="0.00 0.00 754.73 194.00" xmlns="http://www.w3.org/2000/svg" xmlns:xlink="http://www.w3.org/1999/xlink">
<g id="graph0" class="graph" transform="scale(1 1) rotate(0) translate(4 190)">
<title>update_lifter</title>
<!-- Node50 -->
<g id="node1" class="node">
<title>Node50</title>
<polygon fill="#bfbfbf" stroke="#000000" points="0,-93.5 0,-111.5 71.0391,-111.5 71.0391,-93.5 0,-93.5"/>
<text text-anchor="middle" x="35.5195" y="-99.5" font-family="Helvetica,sans-Serif" font-size="10.00" fill="#000000">update_lifter</text>
</g>
<!-- Node51 -->
<g id="node2" class="node">
<title>Node51</title>
<g id="a_node2"><a xlink:href="$partner_8h.html#aacc86d07e59d3b919f5c5eae2ce5d404" xlink:title="get_mode">
<polygon fill="none" stroke="#000000" points="114.3486,-167.5 114.3486,-185.5 174.8262,-185.5 174.8262,-167.5 114.3486,-167.5"/>
<text text-anchor="middle" x="144.5874" y="-173.5" font-family="Helvetica,sans-Serif" font-size="10.00" fill="#000000">get_mode</text>
</a>
</g>
</g>
<!-- Node50&#45;&gt;Node51 -->
<g id="edge1" class="edge">
<title>Node50&#45;&gt;Node51</title>
<path fill="none" stroke="#191970" d="M45.6571,-111.6008C59.0648,-123.3567 83.7274,-144.0255 107.0391,-158.5 109.3767,-159.9515 111.8493,-161.3692 114.3649,-162.7312"/>
<polygon fill="#191970" stroke="#191970" points="113.0007,-165.9641 123.5005,-167.3801 116.1755,-159.7254 113.0007,-165.9641"/>
</g>
<!-- Node52 -->
<g id="node3" class="node">
<title>Node52</title>
<g id="a_node3"><a xlink:href="$lifter_8c.html#acdf909159b0406c48099843f2306be78" xlink:title="Gets the value of the lifter pot. ">
<polygon fill="none" stroke="#000000" points="107.0391,-130.5 107.0391,-148.5 182.1357,-148.5 182.1357,-130.5 107.0391,-130.5"/>
<text text-anchor="middle" x="144.5874" y="-136.5" font-family="Helvetica,sans-Serif" font-size="10.00" fill="#000000">getLifterTicks</text>
</a>
</g>
</g>
<!-- Node50&#45;&gt;Node52 -->
<g id="edge2" class="edge">
<title>Node50&#45;&gt;Node52</title>
<path fill="none" stroke="#191970" d="M62.2005,-111.5512C76.065,-116.2546 93.2128,-122.0718 108.2681,-127.1791"/>
<polygon fill="#191970" stroke="#191970" points="107.2095,-130.5158 117.8038,-130.414 109.4583,-123.8869 107.2095,-130.5158"/>
</g>
<!-- Node53 -->
<g id="node4" class="node">
<title>Node53</title>
<g id="a_node4"><a xlink:href="$lifter_8c.html#aa7d2d04059f57cc5b8582f6fd0726dc1" xlink:title="Lowers the lifter. ">
<polygon fill="none" stroke="#000000" points="112.4126,-93.5 112.4126,-111.5 176.7622,-111.5 176.7622,-93.5 112.4126,-93.5"/>
<text text-anchor="middle" x="144.5874" y="-99.5" font-family="Helvetica,sans-Serif" font-size="10.00" fill="#000000">lower_lifter</text>
</a>
</g>
</g>
<!-- Node50&#45;&gt;Node53 -->
<g id="edge3" class="edge">
<title>Node50&#45;&gt;Node53</title>
<path fill="none" stroke="#191970" d="M71.2324,-102.5C81.0077,-102.5 91.7025,-102.5 101.8285,-102.5"/>
<polygon fill="#191970" stroke="#191970" points="102.1127,-106.0001 112.1127,-102.5 102.1126,-99.0001 102.1127,-106.0001"/>
</g>
<!-- Node54 -->
<g id="node5" class="node">
<title>Node54</title>
<g id="a_node5"><a xlink:href="$lifter_8c.html#a2cfc188f60f945c824dd7fe7b0b5f4e4" xlink:title="Sets the lifter motors to the given value. ">
<polygon fill="none" stroke="#000000" points="218.1357,-55.5 218.1357,-73.5 308.0518,-73.5 308.0518,-55.5 218.1357,-55.5"/>
<text text-anchor="middle" x="263.0938" y="-61.5" font-family="Helvetica,sans-Serif" font-size="10.00" fill="#000000">set_lifter_motors</text>
</a>
</g>
</g>
<!-- Node50&#45;&gt;Node54 -->
<g id="edge14" class="edge">
<title>Node50&#45;&gt;Node54</title>
<path fill="none" stroke="#191970" d="M65.9314,-93.4246C78.557,-89.9179 93.4148,-86.126 107.0391,-83.5 140.2418,-77.1003 177.8573,-72.4449 207.8378,-69.3444"/>
<polygon fill="#191970" stroke="#191970" points="208.5045,-72.7951 218.1041,-68.3122 207.8041,-65.8302 208.5045,-72.7951"/>
</g>
<!-- Node62 -->
<g id="node13" class="node">
<title>Node62</title>
<g id="a_node13"><a xlink:href="$lifter_8c.html#a7452163ed7946b6262f41de51c62dfd4" xlink:title="Raises the lifter. ">
<polygon fill="none" stroke="#000000" points="113.5234,-17.5 113.5234,-35.5 175.6514,-35.5 175.6514,-17.5 113.5234,-17.5"/>
<text text-anchor="middle" x="144.5874" y="-23.5" font-family="Helvetica,sans-Serif" font-size="10.00" fill="#000000">raise_lifter</text>
</a>
</g>
</g>
<!-- Node50&#45;&gt;Node62 -->
<g id="edge12" class="edge">
<title>Node50&#45;&gt;Node62</title>
<path fill="none" stroke="#191970" d="M47.5101,-93.4432C61.591,-82.8872 85.7341,-65.0348 107.0391,-50.5 111.5567,-47.4179 116.4424,-44.2081 121.1483,-41.176"/>
<polygon fill="#191970" stroke="#191970" points="123.2783,-43.969 129.8325,-35.6447 119.5177,-38.0649 123.2783,-43.969"/>
</g>
<!-- Node53&#45;&gt;Node54 -->
<g id="edge4" class="edge">
<title>Node53&#45;&gt;Node54</title>
<path fill="none" stroke="#191970" d="M172.6718,-93.4945C188.3489,-88.4675 208.0955,-82.1356 225.1331,-76.6724"/>
<polygon fill="#191970" stroke="#191970" points="226.3466,-79.9589 234.8003,-73.5725 224.2092,-73.2932 226.3466,-79.9589"/>
</g>
<!-- Node55 -->
<g id="node6" class="node">
<title>Node55</title>
<g id="a_node6"><a xlink:href="$slew_8h.html#a9f8b8ae577ef938622024545711f0151" xlink:title="Sets the motor speed ignoring the slew controller. ">
<polygon fill="none" stroke="#000000" points="344.0518,-55.5 344.0518,-73.5 456.2041,-73.5 456.2041,-55.5 344.0518,-55.5"/>
<text text-anchor="middle" x="400.1279" y="-61.5" font-family="Helvetica,sans-Serif" font-size="10.00" fill="#000000">set_motor_immediate</text>
</a>
</g>
</g>
<!-- Node54&#45;&gt;Node55 -->
<g id="edge5" class="edge">
<title>Node54&#45;&gt;Node55</title>
<path fill="none" stroke="#191970" d="M308.3436,-64.5C316.5245,-64.5 325.2075,-64.5 333.8431,-64.5"/>
<polygon fill="#191970" stroke="#191970" points="333.926,-68.0001 343.926,-64.5 333.9259,-61.0001 333.926,-68.0001"/>
</g>
<!-- Node56 -->
<g id="node7" class="node">
<title>Node56</title>
<g id="a_node7"><a xlink:href="$log_8h.html#af3668f40d1ad1b4f3418869ac9a31f34" xlink:title="prints a info message ">
<polygon fill="none" stroke="#000000" points="497.4751,-74.5 497.4751,-92.5 541.2827,-92.5 541.2827,-74.5 497.4751,-74.5"/>
<text text-anchor="middle" x="519.3789" y="-80.5" font-family="Helvetica,sans-Serif" font-size="10.00" fill="#000000">debug</text>
</a>
</g>
</g>
<!-- Node55&#45;&gt;Node56 -->
<g id="edge6" class="edge">
<title>Node55&#45;&gt;Node56</title>
<path fill="none" stroke="#191970" d="M456.2615,-73.4436C466.9975,-75.1542 477.8851,-76.8889 487.5254,-78.4248"/>
<polygon fill="#191970" stroke="#191970" points="487.0043,-81.8859 497.4305,-80.003 488.1058,-74.9731 487.0043,-81.8859"/>
</g>
<!-- Node57 -->
<g id="node8" class="node">
<title>Node57</title>
<g id="a_node8"><a xlink:href="$slew_8c.html#a321758941d88b75783955c819bb75005" xlink:title="Initializes the slew rate controller. ">
<polygon fill="none" stroke="#000000" points="492.2041,-37.5 492.2041,-55.5 546.5537,-55.5 546.5537,-37.5 492.2041,-37.5"/>
<text text-anchor="middle" x="519.3789" y="-43.5" font-family="Helvetica,sans-Serif" font-size="10.00" fill="#000000">init_slew</text>
</a>
</g>
</g>
<!-- Node55&#45;&gt;Node57 -->
<g id="edge7" class="edge">
<title>Node55&#45;&gt;Node57</title>
<path fill="none" stroke="#191970" d="M456.2615,-56.0271C465.0116,-54.7063 473.8622,-53.3704 482.0563,-52.1336"/>
<polygon fill="#191970" stroke="#191970" points="482.6618,-55.5819 492.0273,-50.6285 481.6169,-48.6603 482.6618,-55.5819"/>
</g>
<!-- Node58 -->
<g id="node9" class="node">
<title>Node58</title>
<g id="a_node9"><a xlink:href="$log_8h.html#a0bec2cf5fff7f607bc510b74aba9887c" xlink:title="prints a warning message and displays on lcd. Only will print and display if log_level is greater tha...">
<polygon fill="none" stroke="#000000" points="595.6177,-74.5 595.6177,-92.5 646.6372,-92.5 646.6372,-74.5 595.6177,-74.5"/>
<text text-anchor="middle" x="621.1274" y="-80.5" font-family="Helvetica,sans-Serif" font-size="10.00" fill="#000000">warning</text>
</a>
</g>
</g>
<!-- Node57&#45;&gt;Node58 -->
<g id="edge8" class="edge">
<title>Node57&#45;&gt;Node58</title>
<path fill="none" stroke="#191970" d="M544.2694,-55.5512C556.9571,-60.165 572.5922,-65.8506 586.4408,-70.8865"/>
<polygon fill="#191970" stroke="#191970" points="585.5472,-74.2857 596.1413,-74.414 587.9395,-67.7072 585.5472,-74.2857"/>
</g>
<!-- Node60 -->
<g id="node11" class="node">
<title>Node60</title>
<g id="a_node11"><a xlink:href="$log_8h.html#a1606d750e1bb8de9f9e917172bba3382" xlink:title="prints a info message ">
<polygon fill="none" stroke="#000000" points="605.0659,-37.5 605.0659,-55.5 637.189,-55.5 637.189,-37.5 605.0659,-37.5"/>
<text text-anchor="middle" x="621.1274" y="-43.5" font-family="Helvetica,sans-Serif" font-size="10.00" fill="#000000">info</text>
</a>
</g>
</g>
<!-- Node57&#45;&gt;Node60 -->
<g id="edge10" class="edge">
<title>Node57&#45;&gt;Node60</title>
<path fill="none" stroke="#191970" d="M546.6456,-46.5C561.614,-46.5 580.0858,-46.5 594.8891,-46.5"/>
<polygon fill="#191970" stroke="#191970" points="594.9172,-50.0001 604.9172,-46.5 594.9172,-43.0001 594.9172,-50.0001"/>
</g>
<!-- Node61 -->
<g id="node12" class="node">
<title>Node61</title>
<g id="a_node12"><a xlink:href="$slew_8c.html#a807a87c5df438fde21c1e8213906695b" xlink:title="Closes the distance between the desired motor value and the current motor value by half for each moto...">
<polygon fill="none" stroke="#000000" points="582.5537,-.5 582.5537,-18.5 659.7012,-18.5 659.7012,-.5 582.5537,-.5"/>
<text text-anchor="middle" x="621.1274" y="-6.5" font-family="Helvetica,sans-Serif" font-size="10.00" fill="#000000">updateMotors</text>
</a>
</g>
</g>
<!-- Node57&#45;&gt;Node61 -->
<g id="edge11" class="edge">
<title>Node57&#45;&gt;Node61</title>
<path fill="none" stroke="#191970" d="M544.2694,-37.4488C556.9571,-32.835 572.5922,-27.1494 586.4408,-22.1135"/>
<polygon fill="#191970" stroke="#191970" points="587.9395,-25.2928 596.1413,-18.586 585.5472,-18.7143 587.9395,-25.2928"/>
</g>
<!-- Node59 -->
<g id="node10" class="node">
<title>Node59</title>
<g id="a_node10"><a xlink:href="$log_8c.html#afff22aff6749311a684a559cac3ac8bd" xlink:title="log_info">
<polygon fill="none" stroke="#000000" points="695.7012,-74.5 695.7012,-92.5 746.7305,-92.5 746.7305,-74.5 695.7012,-74.5"/>
<text text-anchor="middle" x="721.2158" y="-80.5" font-family="Helvetica,sans-Serif" font-size="10.00" fill="#000000">log_info</text>
</a>
</g>
</g>
<!-- Node58&#45;&gt;Node59 -->
<g id="edge9" class="edge">
<title>Node58&#45;&gt;Node59</title>
<path fill="none" stroke="#191970" d="M646.6429,-83.5C658.3169,-83.5 672.3567,-83.5 685.0904,-83.5"/>
<polygon fill="#191970" stroke="#191970" points="685.3989,-87.0001 695.3989,-83.5 685.3989,-80.0001 685.3989,-87.0001"/>
</g>
<!-- Node62&#45;&gt;Node54 -->
<g id="edge13" class="edge">
<title>Node62&#45;&gt;Node54</title>
<path fill="none" stroke="#191970" d="M172.6718,-35.5055C188.3489,-40.5325 208.0955,-46.8644 225.1331,-52.3276"/>
<polygon fill="#191970" stroke="#191970" points="224.2092,-55.7068 234.8003,-55.4275 226.3466,-49.0411 224.2092,-55.7068"/>
</g>
</g>
</svg>
