<?xml version="1.0" encoding="UTF-8" standalone="no"?>
<!DOCTYPE svg PUBLIC "-//W3C//DTD SVG 1.1//EN"
 "http://www.w3.org/Graphics/SVG/1.1/DTD/svg11.dtd">
<!-- Generated by graphviz version 2.40.1 (20161225.0304)
 -->
<!-- Title: set_lifter_motors Pages: 1 -->
<svg width="433pt" height="140pt"
 viewBox="0.00 0.00 433.48 140.00" xmlns="http://www.w3.org/2000/svg" xmlns:xlink="http://www.w3.org/1999/xlink">
<g id="graph0" class="graph" transform="scale(1 1) rotate(0) translate(4 136)">
<title>set_lifter_motors</title>
<!-- Node71 -->
<g id="node1" class="node">
<title>Node71</title>
<polygon fill="#bfbfbf" stroke="#000000" points="0,-57.5 0,-75.5 89.916,-75.5 89.916,-57.5 0,-57.5"/>
<text text-anchor="middle" x="44.958" y="-63.5" font-family="Helvetica,sans-Serif" font-size="10.00" fill="#000000">set_lifter_motors</text>
</g>
<!-- Node72 -->
<g id="node2" class="node">
<title>Node72</title>
<g id="a_node2"><a xlink:href="auto_8c.html#a3c7ca506bbc071fa740de13805b7f376" target="_top" xlink:title="autonomous">
<polygon fill="none" stroke="#000000" points="125.916,-113.5 125.916,-131.5 196.9551,-131.5 196.9551,-113.5 125.916,-113.5"/>
<text text-anchor="middle" x="161.4355" y="-119.5" font-family="Helvetica,sans-Serif" font-size="10.00" fill="#000000">autonomous</text>
</a>
</g>
</g>
<!-- Node71&#45;&gt;Node72 -->
<g id="edge1" class="edge">
<title>Node71&#45;&gt;Node72</title>
<path fill="none" stroke="#191970" d="M73.2156,-80.0857C94.7079,-90.4187 123.6902,-104.3528 142.4703,-113.3819"/>
<polygon fill="#191970" stroke="#191970" points="74.4604,-76.8007 63.9314,-75.622 71.4273,-83.1095 74.4604,-76.8007"/>
</g>
<!-- Node73 -->
<g id="node3" class="node">
<title>Node73</title>
<g id="a_node3"><a xlink:href="lifter_8c.html#aa7d2d04059f57cc5b8582f6fd0726dc1" target="_top" xlink:title="lower_lifter">
<polygon fill="none" stroke="#000000" points="129.2607,-76.5 129.2607,-94.5 193.6104,-94.5 193.6104,-76.5 129.2607,-76.5"/>
<text text-anchor="middle" x="161.4355" y="-82.5" font-family="Helvetica,sans-Serif" font-size="10.00" fill="#000000">lower_lifter</text>
</a>
</g>
</g>
<!-- Node71&#45;&gt;Node73 -->
<g id="edge2" class="edge">
<title>Node71&#45;&gt;Node73</title>
<path fill="none" stroke="#191970" d="M99.9172,-75.465C109.9304,-77.0984 120.0733,-78.7529 129.1568,-80.2346"/>
<polygon fill="#191970" stroke="#191970" points="100.4243,-72.0016 89.9913,-73.8459 99.2973,-78.9103 100.4243,-72.0016"/>
</g>
<!-- Node74 -->
<g id="node4" class="node">
<title>Node74</title>
<g id="a_node4"><a xlink:href="lifter_8c.html#a59bb7413777ca16aba124aaedf95c79b" target="_top" xlink:title="Updates the lifter in teleop. ">
<polygon fill="none" stroke="#000000" points="232.9551,-38.5 232.9551,-56.5 303.9941,-56.5 303.9941,-38.5 232.9551,-38.5"/>
<text text-anchor="middle" x="268.4746" y="-44.5" font-family="Helvetica,sans-Serif" font-size="10.00" fill="#000000">update_lifter</text>
</a>
</g>
</g>
<!-- Node71&#45;&gt;Node74 -->
<g id="edge7" class="edge">
<title>Node71&#45;&gt;Node74</title>
<path fill="none" stroke="#191970" d="M100.1256,-61.8105C141.5378,-58.2902 197.0333,-53.5729 232.7767,-50.5345"/>
<polygon fill="#191970" stroke="#191970" points="99.5886,-58.3434 89.9211,-62.6779 100.1816,-65.3183 99.5886,-58.3434"/>
</g>
<!-- Node76 -->
<g id="node6" class="node">
<title>Node76</title>
<g id="a_node6"><a xlink:href="lifter_8c.html#a7452163ed7946b6262f41de51c62dfd4" target="_top" xlink:title="raise_lifter">
<polygon fill="none" stroke="#000000" points="130.3716,-.5 130.3716,-18.5 192.4995,-18.5 192.4995,-.5 130.3716,-.5"/>
<text text-anchor="middle" x="161.4355" y="-6.5" font-family="Helvetica,sans-Serif" font-size="10.00" fill="#000000">raise_lifter</text>
</a>
</g>
</g>
<!-- Node71&#45;&gt;Node76 -->
<g id="edge5" class="edge">
<title>Node71&#45;&gt;Node76</title>
<path fill="none" stroke="#191970" d="M72.4414,-53.0506C94.0869,-42.4581 123.6809,-27.9758 142.68,-18.6783"/>
<polygon fill="#191970" stroke="#191970" points="70.8579,-49.9288 63.4142,-57.4682 73.9348,-56.2163 70.8579,-49.9288"/>
</g>
<!-- Node73&#45;&gt;Node74 -->
<g id="edge3" class="edge">
<title>Node73&#45;&gt;Node74</title>
<path fill="none" stroke="#191970" d="M196.3823,-73.0935C211.5508,-67.7085 228.9916,-61.5169 242.919,-56.5725"/>
<polygon fill="#191970" stroke="#191970" points="195.0551,-69.8506 186.8023,-76.4945 197.397,-76.4472 195.0551,-69.8506"/>
</g>
<!-- Node75 -->
<g id="node5" class="node">
<title>Node75</title>
<g id="a_node5"><a xlink:href="opcontrol_8c.html#ac71a94af413917f27d108e95c4d6f6a7" target="_top" xlink:title="operatorControl">
<polygon fill="none" stroke="#000000" points="339.9941,-38.5 339.9941,-56.5 425.4766,-56.5 425.4766,-38.5 339.9941,-38.5"/>
<text text-anchor="middle" x="382.7354" y="-44.5" font-family="Helvetica,sans-Serif" font-size="10.00" fill="#000000">operatorControl</text>
</a>
</g>
</g>
<!-- Node74&#45;&gt;Node75 -->
<g id="edge4" class="edge">
<title>Node74&#45;&gt;Node75</title>
<path fill="none" stroke="#191970" d="M314.05,-47.5C322.4731,-47.5 331.246,-47.5 339.5942,-47.5"/>
<polygon fill="#191970" stroke="#191970" points="314.0011,-44.0001 304.0011,-47.5 314.0011,-51.0001 314.0011,-44.0001"/>
</g>
<!-- Node76&#45;&gt;Node74 -->
<g id="edge6" class="edge">
<title>Node76&#45;&gt;Node74</title>
<path fill="none" stroke="#191970" d="M196.3823,-21.9065C211.5508,-27.2915 228.9916,-33.4831 242.919,-38.4275"/>
<polygon fill="#191970" stroke="#191970" points="197.397,-18.5528 186.8023,-18.5055 195.0551,-25.1494 197.397,-18.5528"/>
</g>
</g>
</svg>
