<?xml version="1.0" encoding="UTF-8" standalone="no"?>
<!DOCTYPE svg PUBLIC "-//W3C//DTD SVG 1.1//EN"
 "http://www.w3.org/Graphics/SVG/1.1/DTD/svg11.dtd">
<!-- Generated by graphviz version 2.40.1 (20161225.0304)
 -->
<!-- Title: update_lifter Pages: 1 -->
<svg width="880pt" height="306pt"
 viewBox="0.00 0.00 879.89 305.51" xmlns="http://www.w3.org/2000/svg" xmlns:xlink="http://www.w3.org/1999/xlink">
<g id="graph0" class="graph" transform="scale(1 1) rotate(0) translate(4 301.5134)">
<title>update_lifter</title>
<!-- Node66 -->
<g id="node1" class="node">
<title>Node66</title>
<polygon fill="#bfbfbf" stroke="#000000" points="0,-112.5 0,-130.5 71.0391,-130.5 71.0391,-112.5 0,-112.5"/>
<text text-anchor="middle" x="35.5195" y="-118.5" font-family="Helvetica,sans-Serif" font-size="10.00" fill="#000000">update_lifter</text>
</g>
<!-- Node67 -->
<g id="node2" class="node">
<title>Node67</title>
<g id="a_node2"><a xlink:href="_a_p_i_8h.html#a792f1a80c62a63e764cf64aabf95db92" target="_top" xlink:title="joystickGetDigital">
<polygon fill="none" stroke="#000000" points="107.0391,-169.5 107.0391,-187.5 199.7285,-187.5 199.7285,-169.5 107.0391,-169.5"/>
<text text-anchor="middle" x="153.3838" y="-175.5" font-family="Helvetica,sans-Serif" font-size="10.00" fill="#000000">joystickGetDigital</text>
</a>
</g>
</g>
<!-- Node66&#45;&gt;Node67 -->
<g id="edge1" class="edge">
<title>Node66&#45;&gt;Node67</title>
<path fill="none" stroke="#191970" d="M54.1955,-130.5318C73.3073,-139.7744 103.239,-154.2496 125.2264,-164.8829"/>
<polygon fill="#191970" stroke="#191970" points="123.8786,-168.1188 134.4049,-169.3217 126.9262,-161.8171 123.8786,-168.1188"/>
</g>
<!-- Node68 -->
<g id="node3" class="node">
<title>Node68</title>
<g id="a_node3"><a xlink:href="lifter_8c.html#aa7d2d04059f57cc5b8582f6fd0726dc1" target="_top" xlink:title="lower_lifter">
<polygon fill="none" stroke="#000000" points="121.209,-93.5 121.209,-111.5 185.5586,-111.5 185.5586,-93.5 121.209,-93.5"/>
<text text-anchor="middle" x="153.3838" y="-99.5" font-family="Helvetica,sans-Serif" font-size="10.00" fill="#000000">lower_lifter</text>
</a>
</g>
</g>
<!-- Node66&#45;&gt;Node68 -->
<g id="edge2" class="edge">
<title>Node66&#45;&gt;Node68</title>
<path fill="none" stroke="#191970" d="M71.2025,-115.7478C83.7129,-113.7311 97.8878,-111.4461 110.8999,-109.3485"/>
<polygon fill="#191970" stroke="#191970" points="111.7164,-112.7621 121.0319,-107.7152 110.6023,-105.8514 111.7164,-112.7621"/>
</g>
<!-- Node69 -->
<g id="node4" class="node">
<title>Node69</title>
<g id="a_node4"><a xlink:href="lifter_8c.html#aa62603df4d54dff2d7fd472d699e9b2e" target="_top" xlink:title="set_lifter_motors">
<polygon fill="none" stroke="#000000" points="235.7285,-93.5 235.7285,-111.5 325.6445,-111.5 325.6445,-93.5 235.7285,-93.5"/>
<text text-anchor="middle" x="280.6865" y="-99.5" font-family="Helvetica,sans-Serif" font-size="10.00" fill="#000000">set_lifter_motors</text>
</a>
</g>
</g>
<!-- Node66&#45;&gt;Node69 -->
<g id="edge27" class="edge">
<title>Node66&#45;&gt;Node69</title>
<path fill="none" stroke="#191970" d="M71.2112,-123.8572C104.5661,-125.5029 155.6919,-126.5982 199.7285,-121.5 212.9685,-119.9672 227.1877,-117.0689 239.9582,-113.9894"/>
<polygon fill="#191970" stroke="#191970" points="240.9984,-117.3369 249.8428,-111.5035 239.2911,-110.5483 240.9984,-117.3369"/>
</g>
<!-- Node86 -->
<g id="node21" class="node">
<title>Node86</title>
<g id="a_node21"><a xlink:href="lifter_8c.html#a7452163ed7946b6262f41de51c62dfd4" target="_top" xlink:title="raise_lifter">
<polygon fill="none" stroke="#000000" points="122.3198,-56.5 122.3198,-74.5 184.4478,-74.5 184.4478,-56.5 122.3198,-56.5"/>
<text text-anchor="middle" x="153.3838" y="-62.5" font-family="Helvetica,sans-Serif" font-size="10.00" fill="#000000">raise_lifter</text>
</a>
</g>
</g>
<!-- Node66&#45;&gt;Node86 -->
<g id="edge25" class="edge">
<title>Node66&#45;&gt;Node86</title>
<path fill="none" stroke="#191970" d="M51.4373,-112.3454C65.7537,-104.2807 87.4799,-92.4567 107.0391,-83.5 110.73,-81.8098 114.629,-80.1331 118.5349,-78.5221"/>
<polygon fill="#191970" stroke="#191970" points="120.1571,-81.643 128.1443,-74.682 117.5594,-75.1428 120.1571,-81.643"/>
</g>
<!-- Node68&#45;&gt;Node69 -->
<g id="edge3" class="edge">
<title>Node68&#45;&gt;Node69</title>
<path fill="none" stroke="#191970" d="M185.837,-102.5C197.8122,-102.5 211.7448,-102.5 225.1845,-102.5"/>
<polygon fill="#191970" stroke="#191970" points="225.3254,-106.0001 235.3254,-102.5 225.3253,-99.0001 225.3254,-106.0001"/>
</g>
<!-- Node70 -->
<g id="node5" class="node">
<title>Node70</title>
<g id="a_node5"><a xlink:href="slew_8h.html#a7dff2b79dffe55fb936d977594d7c01d" target="_top" xlink:title="Sets motor speed wrapped inside the slew rate controller. ">
<polygon fill="none" stroke="#000000" points="361.6445,-93.5 361.6445,-111.5 447.6738,-111.5 447.6738,-93.5 361.6445,-93.5"/>
<text text-anchor="middle" x="404.6592" y="-99.5" font-family="Helvetica,sans-Serif" font-size="10.00" fill="#000000">set_motor_slew</text>
</a>
</g>
</g>
<!-- Node69&#45;&gt;Node70 -->
<g id="edge4" class="edge">
<title>Node69&#45;&gt;Node70</title>
<path fill="none" stroke="#191970" d="M325.7942,-102.5C334.0631,-102.5 342.7658,-102.5 351.2499,-102.5"/>
<polygon fill="#191970" stroke="#191970" points="351.4464,-106.0001 361.4464,-102.5 351.4464,-99.0001 351.4464,-106.0001"/>
</g>
<!-- Node71 -->
<g id="node6" class="node">
<title>Node71</title>
<g id="a_node6"><a xlink:href="log_8h.html#af3668f40d1ad1b4f3418869ac9a31f34" target="_top" xlink:title="prints a info message ">
<polygon fill="none" stroke="#000000" points="488.9448,-243.5 488.9448,-261.5 532.7524,-261.5 532.7524,-243.5 488.9448,-243.5"/>
<text text-anchor="middle" x="510.8486" y="-249.5" font-family="Helvetica,sans-Serif" font-size="10.00" fill="#000000">debug</text>
</a>
</g>
</g>
<!-- Node70&#45;&gt;Node71 -->
<g id="edge5" class="edge">
<title>Node70&#45;&gt;Node71</title>
<path fill="none" stroke="#191970" d="M411.3018,-111.8832C428.6587,-136.4009 475.5882,-202.6922 498.2566,-234.7128"/>
<polygon fill="#191970" stroke="#191970" points="495.5739,-236.9809 504.2085,-243.1204 501.2871,-232.9363 495.5739,-236.9809"/>
</g>
<!-- Node73 -->
<g id="node8" class="node">
<title>Node73</title>
<g id="a_node8"><a xlink:href="slew_8c.html#a321758941d88b75783955c819bb75005" target="_top" xlink:title="Initializes the slew rate controller. ">
<polygon fill="none" stroke="#000000" points="483.6738,-150.5 483.6738,-168.5 538.0234,-168.5 538.0234,-150.5 483.6738,-150.5"/>
<text text-anchor="middle" x="510.8486" y="-156.5" font-family="Helvetica,sans-Serif" font-size="10.00" fill="#000000">init_slew</text>
</a>
</g>
</g>
<!-- Node70&#45;&gt;Node73 -->
<g id="edge7" class="edge">
<title>Node70&#45;&gt;Node73</title>
<path fill="none" stroke="#191970" d="M421.7204,-111.658C438.7498,-120.7991 465.1432,-134.9664 484.7948,-145.5149"/>
<polygon fill="#191970" stroke="#191970" points="483.3635,-148.719 493.8298,-150.3647 486.6742,-142.5513 483.3635,-148.719"/>
</g>
<!-- Node83 -->
<g id="node18" class="node">
<title>Node83</title>
<g id="a_node18"><a xlink:href="_a_p_i_8h.html#a8b51124628d2a7741738d48551d1e8ee" target="_top" xlink:title="mutexTake">
<polygon fill="none" stroke="#000000" points="687.1709,-37.5 687.1709,-55.5 751.5254,-55.5 751.5254,-37.5 687.1709,-37.5"/>
<text text-anchor="middle" x="719.3481" y="-43.5" font-family="Helvetica,sans-Serif" font-size="10.00" fill="#000000">mutexTake</text>
</a>
</g>
</g>
<!-- Node70&#45;&gt;Node83 -->
<g id="edge24" class="edge">
<title>Node70&#45;&gt;Node83</title>
<path fill="none" stroke="#191970" d="M441.8156,-93.4281C476.0103,-85.3073 528.214,-73.4835 574.0234,-65.5 608.4042,-59.5082 647.6597,-54.4829 676.6976,-51.1085"/>
<polygon fill="#191970" stroke="#191970" points="677.368,-54.5547 686.9056,-49.9412 676.5727,-47.6 677.368,-54.5547"/>
</g>
<!-- Node84 -->
<g id="node19" class="node">
<title>Node84</title>
<g id="a_node19"><a xlink:href="_a_p_i_8h.html#afe171a08d22de18fc2ab604b2364959f" target="_top" xlink:title="mutexGive">
<polygon fill="none" stroke="#000000" points="687.4517,-.5 687.4517,-18.5 751.2446,-18.5 751.2446,-.5 687.4517,-.5"/>
<text text-anchor="middle" x="719.3481" y="-6.5" font-family="Helvetica,sans-Serif" font-size="10.00" fill="#000000">mutexGive</text>
</a>
</g>
</g>
<!-- Node70&#45;&gt;Node84 -->
<g id="edge23" class="edge">
<title>Node70&#45;&gt;Node84</title>
<path fill="none" stroke="#191970" d="M423.4829,-93.3789C439.2846,-85.9719 462.5931,-75.6225 483.6738,-68.5 550.1251,-46.0481 629.6929,-27.8689 677.2951,-17.8855"/>
<polygon fill="#191970" stroke="#191970" points="678.1592,-21.2808 687.2394,-15.8218 676.7368,-14.4269 678.1592,-21.2808"/>
</g>
<!-- Node72 -->
<g id="node7" class="node">
<title>Node72</title>
<g id="a_node7"><a xlink:href="_a_p_i_8h.html#a403c82418e475fa4a8273719e6a7f3e6" target="_top" xlink:title="printf">
<polygon fill="none" stroke="#000000" points="810.5942,-169.5 810.5942,-187.5 848.8257,-187.5 848.8257,-169.5 810.5942,-169.5"/>
<text text-anchor="middle" x="829.71" y="-175.5" font-family="Helvetica,sans-Serif" font-size="10.00" fill="#000000">printf</text>
</a>
</g>
</g>
<!-- Node71&#45;&gt;Node72 -->
<g id="edge6" class="edge">
<title>Node71&#45;&gt;Node72</title>
<path fill="none" stroke="#191970" d="M521.625,-261.5205C533.5592,-270.8695 553.7977,-284.8857 574.0234,-290.5 607.062,-299.6708 618.2197,-299.9799 651.1709,-290.5 717.0624,-271.5433 782.1496,-220.3314 812.3072,-194.2401"/>
<polygon fill="#191970" stroke="#191970" points="814.6636,-196.8287 819.8585,-187.5949 810.0392,-191.5737 814.6636,-196.8287"/>
</g>
<!-- Node74 -->
<g id="node9" class="node">
<title>Node74</title>
<g id="a_node9"><a xlink:href="log_8h.html#a0bec2cf5fff7f607bc510b74aba9887c" target="_top" xlink:title="prints a warning message and displays on lcd. Only will print and display if log_level is greater tha...">
<polygon fill="none" stroke="#000000" points="587.0874,-112.5 587.0874,-130.5 638.1069,-130.5 638.1069,-112.5 587.0874,-112.5"/>
<text text-anchor="middle" x="612.5972" y="-118.5" font-family="Helvetica,sans-Serif" font-size="10.00" fill="#000000">warning</text>
</a>
</g>
</g>
<!-- Node73&#45;&gt;Node74 -->
<g id="edge8" class="edge">
<title>Node73&#45;&gt;Node74</title>
<path fill="none" stroke="#191970" d="M534.9616,-150.4945C548.0445,-145.6085 564.4282,-139.4897 578.7687,-134.1339"/>
<polygon fill="#191970" stroke="#191970" points="580.1612,-137.35 588.3047,-130.5725 577.7121,-130.7924 580.1612,-137.35"/>
</g>
<!-- Node78 -->
<g id="node13" class="node">
<title>Node78</title>
<g id="a_node13"><a xlink:href="_a_p_i_8h.html#a8966c541f3e9565aea1289f0d2f2cf43" target="_top" xlink:title="motorStopAll">
<polygon fill="none" stroke="#000000" points="575.9741,-262.5 575.9741,-280.5 649.2202,-280.5 649.2202,-262.5 575.9741,-262.5"/>
<text text-anchor="middle" x="612.5972" y="-268.5" font-family="Helvetica,sans-Serif" font-size="10.00" fill="#000000">motorStopAll</text>
</a>
</g>
</g>
<!-- Node73&#45;&gt;Node78 -->
<g id="edge13" class="edge">
<title>Node73&#45;&gt;Node78</title>
<path fill="none" stroke="#191970" d="M514.938,-168.7216C523.4856,-187.0792 544.8922,-228.5704 574.0234,-253.5 575.5394,-254.7973 577.1647,-256.0212 578.8594,-257.1728"/>
<polygon fill="#191970" stroke="#191970" points="577.3226,-260.3279 587.7261,-262.3322 580.8432,-254.2777 577.3226,-260.3279"/>
</g>
<!-- Node79 -->
<g id="node14" class="node">
<title>Node79</title>
<g id="a_node14"><a xlink:href="log_8h.html#a1606d750e1bb8de9f9e917172bba3382" target="_top" xlink:title="prints a info message ">
<polygon fill="none" stroke="#000000" points="703.2866,-188.5 703.2866,-206.5 735.4097,-206.5 735.4097,-188.5 703.2866,-188.5"/>
<text text-anchor="middle" x="719.3481" y="-194.5" font-family="Helvetica,sans-Serif" font-size="10.00" fill="#000000">info</text>
</a>
</g>
</g>
<!-- Node73&#45;&gt;Node79 -->
<g id="edge14" class="edge">
<title>Node73&#45;&gt;Node79</title>
<path fill="none" stroke="#191970" d="M538.1722,-162.4386C566.5686,-165.7156 612.2205,-171.6104 651.1709,-179.5 665.2313,-182.348 680.7054,-186.3605 693.3526,-189.8745"/>
<polygon fill="#191970" stroke="#191970" points="692.6427,-193.3111 703.2183,-192.6725 694.5527,-186.5767 692.6427,-193.3111"/>
</g>
<!-- Node80 -->
<g id="node15" class="node">
<title>Node80</title>
<g id="a_node15"><a xlink:href="_a_p_i_8h.html#aecd027ce8f8b52a765735e9eb5b202b3" target="_top" xlink:title="mutexCreate">
<polygon fill="none" stroke="#000000" points="575.9741,-225.5 575.9741,-243.5 649.2202,-243.5 649.2202,-225.5 575.9741,-225.5"/>
<text text-anchor="middle" x="612.5972" y="-231.5" font-family="Helvetica,sans-Serif" font-size="10.00" fill="#000000">mutexCreate</text>
</a>
</g>
</g>
<!-- Node73&#45;&gt;Node80 -->
<g id="edge16" class="edge">
<title>Node73&#45;&gt;Node80</title>
<path fill="none" stroke="#191970" d="M519.152,-168.512C530.619,-180.5811 552.3523,-202.136 574.0234,-216.5 576.3122,-218.017 578.7492,-219.4729 581.2431,-220.8534"/>
<polygon fill="#191970" stroke="#191970" points="579.8621,-224.0778 590.3615,-225.4973 583.039,-217.8401 579.8621,-224.0778"/>
</g>
<!-- Node81 -->
<g id="node16" class="node">
<title>Node81</title>
<g id="a_node16"><a xlink:href="_a_p_i_8h.html#ab05a241d6d1fd98b1ceb4665db678156" target="_top" xlink:title="taskRunLoop">
<polygon fill="none" stroke="#000000" points="575.1318,-188.5 575.1318,-206.5 650.0625,-206.5 650.0625,-188.5 575.1318,-188.5"/>
<text text-anchor="middle" x="612.5972" y="-194.5" font-family="Helvetica,sans-Serif" font-size="10.00" fill="#000000">taskRunLoop</text>
</a>
</g>
</g>
<!-- Node73&#45;&gt;Node81 -->
<g id="edge17" class="edge">
<title>Node73&#45;&gt;Node81</title>
<path fill="none" stroke="#191970" d="M534.9616,-168.5055C548.0445,-173.3915 564.4282,-179.5103 578.7687,-184.8661"/>
<polygon fill="#191970" stroke="#191970" points="577.7121,-188.2076 588.3047,-188.4275 580.1612,-181.65 577.7121,-188.2076"/>
</g>
<!-- Node82 -->
<g id="node17" class="node">
<title>Node82</title>
<g id="a_node17"><a xlink:href="slew_8c.html#a807a87c5df438fde21c1e8213906695b" target="_top" xlink:title="Closes the distance between the desired motor value and the current motor value by half for each moto...">
<polygon fill="none" stroke="#000000" points="574.0234,-75.5 574.0234,-93.5 651.1709,-93.5 651.1709,-75.5 574.0234,-75.5"/>
<text text-anchor="middle" x="612.5972" y="-81.5" font-family="Helvetica,sans-Serif" font-size="10.00" fill="#000000">updateMotors</text>
</a>
</g>
</g>
<!-- Node73&#45;&gt;Node82 -->
<g id="edge18" class="edge">
<title>Node73&#45;&gt;Node82</title>
<path fill="none" stroke="#191970" d="M519.6253,-150.3208C531.2762,-138.4802 552.8533,-117.7198 574.0234,-103.5 576.7501,-101.6685 579.679,-99.9053 582.66,-98.2411"/>
<polygon fill="#191970" stroke="#191970" points="584.36,-101.3019 591.6095,-93.5757 581.1242,-95.0947 584.36,-101.3019"/>
</g>
<!-- Node75 -->
<g id="node10" class="node">
<title>Node75</title>
<g id="a_node10"><a xlink:href="log_8c.html#afff22aff6749311a684a559cac3ac8bd" target="_top" xlink:title="log_info">
<polygon fill="none" stroke="#000000" points="693.8335,-112.5 693.8335,-130.5 744.8628,-130.5 744.8628,-112.5 693.8335,-112.5"/>
<text text-anchor="middle" x="719.3481" y="-118.5" font-family="Helvetica,sans-Serif" font-size="10.00" fill="#000000">log_info</text>
</a>
</g>
</g>
<!-- Node74&#45;&gt;Node75 -->
<g id="edge9" class="edge">
<title>Node74&#45;&gt;Node75</title>
<path fill="none" stroke="#191970" d="M638.1667,-121.5C651.6674,-121.5 668.461,-121.5 683.2649,-121.5"/>
<polygon fill="#191970" stroke="#191970" points="683.6173,-125.0001 693.6173,-121.5 683.6172,-118.0001 683.6173,-125.0001"/>
</g>
<!-- Node75&#45;&gt;Node72 -->
<g id="edge10" class="edge">
<title>Node75&#45;&gt;Node72</title>
<path fill="none" stroke="#191970" d="M737.0797,-130.658C754.8587,-139.8406 782.4583,-154.0953 802.9105,-164.6585"/>
<polygon fill="#191970" stroke="#191970" points="801.5314,-167.8855 812.0224,-169.3647 804.7436,-161.666 801.5314,-167.8855"/>
</g>
<!-- Node76 -->
<g id="node11" class="node">
<title>Node76</title>
<g id="a_node11"><a xlink:href="_a_p_i_8h.html#aab53a247d88151a6623c20fa1ea940b0" target="_top" xlink:title="lcdSetBacklight">
<polygon fill="none" stroke="#000000" points="787.5254,-75.5 787.5254,-93.5 871.8945,-93.5 871.8945,-75.5 787.5254,-75.5"/>
<text text-anchor="middle" x="829.71" y="-81.5" font-family="Helvetica,sans-Serif" font-size="10.00" fill="#000000">lcdSetBacklight</text>
</a>
</g>
</g>
<!-- Node75&#45;&gt;Node76 -->
<g id="edge11" class="edge">
<title>Node75&#45;&gt;Node76</title>
<path fill="none" stroke="#191970" d="M744.9448,-112.9185C759.2877,-108.1098 777.4167,-102.0319 793.2245,-96.7322"/>
<polygon fill="#191970" stroke="#191970" points="794.3437,-100.0485 802.7124,-93.5512 792.1185,-93.4115 794.3437,-100.0485"/>
</g>
<!-- Node77 -->
<g id="node12" class="node">
<title>Node77</title>
<g id="a_node12"><a xlink:href="_a_p_i_8h.html#a5fa1d119fe3e836b5519f97eae7a1272" target="_top" xlink:title="lcdClear">
<polygon fill="none" stroke="#000000" points="803.3701,-112.5 803.3701,-130.5 856.0498,-130.5 856.0498,-112.5 803.3701,-112.5"/>
<text text-anchor="middle" x="829.71" y="-118.5" font-family="Helvetica,sans-Serif" font-size="10.00" fill="#000000">lcdClear</text>
</a>
</g>
</g>
<!-- Node75&#45;&gt;Node77 -->
<g id="edge12" class="edge">
<title>Node75&#45;&gt;Node77</title>
<path fill="none" stroke="#191970" d="M744.9448,-121.5C759.1206,-121.5 776.9947,-121.5 792.6709,-121.5"/>
<polygon fill="#191970" stroke="#191970" points="793.1,-125.0001 803.1,-121.5 793.0999,-118.0001 793.1,-125.0001"/>
</g>
<!-- Node79&#45;&gt;Node72 -->
<g id="edge15" class="edge">
<title>Node79&#45;&gt;Node72</title>
<path fill="none" stroke="#191970" d="M735.6324,-194.6965C752.6617,-191.7647 779.7469,-187.1017 800.4915,-183.5303"/>
<polygon fill="#191970" stroke="#191970" points="801.1226,-186.9732 810.3838,-181.8272 799.9349,-180.0747 801.1226,-186.9732"/>
</g>
<!-- Node82&#45;&gt;Node72 -->
<g id="edge21" class="edge">
<title>Node82&#45;&gt;Node72</title>
<path fill="none" stroke="#191970" d="M634.1652,-93.5153C639.9199,-96.3435 645.9773,-99.726 651.1709,-103.5 669.7319,-116.9873 667.3726,-128.9048 687.1709,-140.5 722.7959,-161.3644 770.0746,-171.02 800.2043,-175.31"/>
<polygon fill="#191970" stroke="#191970" points="800.1049,-178.8269 810.4755,-176.6586 801.0162,-171.8865 800.1049,-178.8269"/>
</g>
<!-- Node82&#45;&gt;Node83 -->
<g id="edge19" class="edge">
<title>Node82&#45;&gt;Node83</title>
<path fill="none" stroke="#191970" d="M637.8957,-75.4945C651.7537,-70.5615 669.1418,-64.3719 684.2899,-58.9796"/>
<polygon fill="#191970" stroke="#191970" points="685.6141,-62.2235 693.8613,-55.5725 683.2666,-55.6288 685.6141,-62.2235"/>
</g>
<!-- Node82&#45;&gt;Node84 -->
<g id="edge20" class="edge">
<title>Node82&#45;&gt;Node84</title>
<path fill="none" stroke="#191970" d="M623.3555,-75.4944C637.5389,-63.8073 663.4741,-43.0703 687.1709,-27.5 689.0834,-26.2434 691.0892,-24.9867 693.125,-23.7545"/>
<polygon fill="#191970" stroke="#191970" points="695.1483,-26.6273 702.0456,-18.585 691.6385,-20.5707 695.1483,-26.6273"/>
</g>
<!-- Node85 -->
<g id="node20" class="node">
<title>Node85</title>
<g id="a_node20"><a xlink:href="_a_p_i_8h.html#a03c5b04b472d024281f62d7af8854a8e" target="_top" xlink:title="motorSet">
<polygon fill="none" stroke="#000000" points="691.0625,-75.5 691.0625,-93.5 747.6338,-93.5 747.6338,-75.5 691.0625,-75.5"/>
<text text-anchor="middle" x="719.3481" y="-81.5" font-family="Helvetica,sans-Serif" font-size="10.00" fill="#000000">motorSet</text>
</a>
</g>
</g>
<!-- Node82&#45;&gt;Node85 -->
<g id="edge22" class="edge">
<title>Node82&#45;&gt;Node85</title>
<path fill="none" stroke="#191970" d="M651.4387,-84.5C660.9826,-84.5 671.1977,-84.5 680.731,-84.5"/>
<polygon fill="#191970" stroke="#191970" points="680.7442,-88.0001 690.7441,-84.5 680.7441,-81.0001 680.7442,-88.0001"/>
</g>
<!-- Node86&#45;&gt;Node69 -->
<g id="edge26" class="edge">
<title>Node86&#45;&gt;Node69</title>
<path fill="none" stroke="#191970" d="M184.5255,-74.5512C201.1704,-79.389 221.8695,-85.4051 239.7951,-90.6151"/>
<polygon fill="#191970" stroke="#191970" points="238.8456,-93.9839 249.4251,-93.414 240.7993,-87.262 238.8456,-93.9839"/>
</g>
</g>
</svg>
