<?xml version="1.0" encoding="UTF-8" standalone="no"?>
<!DOCTYPE svg PUBLIC "-//W3C//DTD SVG 1.1//EN"
 "http://www.w3.org/Graphics/SVG/1.1/DTD/svg11.dtd">
<!-- Generated by graphviz version 2.40.1 (20161225.0304)
 -->
<!-- Title: quit_auto_static Pages: 1 -->
<svg width="820pt" height="379pt"
 viewBox="0.00 0.00 819.57 378.76" xmlns="http://www.w3.org/2000/svg" xmlns:xlink="http://www.w3.org/1999/xlink">
<g id="graph0" class="graph" transform="scale(1 1) rotate(0) translate(4 374.7578)">
<title>quit_auto_static</title>
<!-- Node111 -->
<g id="node1" class="node">
<title>Node111</title>
<polygon fill="#bfbfbf" stroke="#000000" points="0,-268.755 0,-286.755 86.0488,-286.755 86.0488,-268.755 0,-268.755"/>
<text text-anchor="middle" x="43.0244" y="-274.755" font-family="Helvetica,sans-Serif" font-size="10.00" fill="#000000">quit_auto_static</text>
</g>
<!-- Node112 -->
<g id="node2" class="node">
<title>Node112</title>
<g id="a_node2"><a xlink:href="claw_8h.html#a3a57f998b1884d39b0cc786689f7086f" target="_top" xlink:title="sets the claw motor speed ">
<polygon fill="none" stroke="#000000" points="137.6104,-268.755 137.6104,-286.755 223.6396,-286.755 223.6396,-268.755 137.6104,-268.755"/>
<text text-anchor="middle" x="180.625" y="-274.755" font-family="Helvetica,sans-Serif" font-size="10.00" fill="#000000">set_claw_motor</text>
</a>
</g>
</g>
<!-- Node111&#45;&gt;Node112 -->
<g id="edge1" class="edge">
<title>Node111&#45;&gt;Node112</title>
<path fill="none" stroke="#191970" d="M86.1846,-277.755C99.1227,-277.755 113.4725,-277.755 126.9988,-277.755"/>
<polygon fill="#191970" stroke="#191970" points="127.1449,-281.2551 137.1449,-277.755 127.1448,-274.2551 127.1449,-281.2551"/>
</g>
<!-- Node129 -->
<g id="node18" class="node">
<title>Node129</title>
<g id="a_node18"><a xlink:href="lifter_8c.html#ad00a195af30f246924d6e1a30095b882" target="_top" xlink:title="Sets the main lifter motors to the given value. ">
<polygon fill="none" stroke="#000000" points="122.0488,-231.755 122.0488,-249.755 239.2012,-249.755 239.2012,-231.755 122.0488,-231.755"/>
<text text-anchor="middle" x="180.625" y="-237.755" font-family="Helvetica,sans-Serif" font-size="10.00" fill="#000000">set_main_lifter_motors</text>
</a>
</g>
</g>
<!-- Node111&#45;&gt;Node129 -->
<g id="edge21" class="edge">
<title>Node111&#45;&gt;Node129</title>
<path fill="none" stroke="#191970" d="M76.6853,-268.7038C94.8432,-263.8212 117.4648,-257.7384 136.9632,-252.4954"/>
<polygon fill="#191970" stroke="#191970" points="138.0866,-255.8177 146.8347,-249.841 136.2689,-249.0578 138.0866,-255.8177"/>
</g>
<!-- Node131 -->
<g id="node20" class="node">
<title>Node131</title>
<g id="a_node20"><a xlink:href="lifter_8c.html#a78640d547d9361951a92d0bc00939536" target="_top" xlink:title="Sets the secondary lifter motors to the given value. ">
<polygon fill="none" stroke="#000000" points="127.8789,-305.755 127.8789,-333.755 233.3711,-333.755 233.3711,-305.755 127.8789,-305.755"/>
<text text-anchor="start" x="135.8789" y="-321.755" font-family="Helvetica,sans-Serif" font-size="10.00" fill="#000000">set_secondary_lifter</text>
<text text-anchor="middle" x="180.625" y="-311.755" font-family="Helvetica,sans-Serif" font-size="10.00" fill="#000000">_motors</text>
</a>
</g>
</g>
<!-- Node111&#45;&gt;Node131 -->
<g id="edge27" class="edge">
<title>Node111&#45;&gt;Node131</title>
<path fill="none" stroke="#191970" d="M72.5432,-286.765C87.8013,-291.4223 106.9357,-297.2627 124.8478,-302.7301"/>
<polygon fill="#191970" stroke="#191970" points="124.0547,-306.1473 134.6409,-305.7192 126.0983,-299.4522 124.0547,-306.1473"/>
</g>
<!-- Node113 -->
<g id="node3" class="node">
<title>Node113</title>
<g id="a_node3"><a xlink:href="slew_8h.html#a9f8b8ae577ef938622024545711f0151" target="_top" xlink:title="Sets the motor speed ignoring the slew controller. ">
<polygon fill="none" stroke="#000000" points="275.2012,-289.755 275.2012,-307.755 387.3535,-307.755 387.3535,-289.755 275.2012,-289.755"/>
<text text-anchor="middle" x="331.2773" y="-295.755" font-family="Helvetica,sans-Serif" font-size="10.00" fill="#000000">set_motor_immediate</text>
</a>
</g>
</g>
<!-- Node112&#45;&gt;Node113 -->
<g id="edge2" class="edge">
<title>Node112&#45;&gt;Node113</title>
<path fill="none" stroke="#191970" d="M223.7959,-283.7727C236.6697,-285.5673 251.0861,-287.5768 265.0763,-289.527"/>
<polygon fill="#191970" stroke="#191970" points="264.7724,-293.0184 275.1599,-290.9326 265.7389,-286.0854 264.7724,-293.0184"/>
</g>
<!-- Node114 -->
<g id="node4" class="node">
<title>Node114</title>
<g id="a_node4"><a xlink:href="log_8h.html#af3668f40d1ad1b4f3418869ac9a31f34" target="_top" xlink:title="prints a info message ">
<polygon fill="none" stroke="#000000" points="428.6245,-289.755 428.6245,-307.755 472.4321,-307.755 472.4321,-289.755 428.6245,-289.755"/>
<text text-anchor="middle" x="450.5283" y="-295.755" font-family="Helvetica,sans-Serif" font-size="10.00" fill="#000000">debug</text>
</a>
</g>
</g>
<!-- Node113&#45;&gt;Node114 -->
<g id="edge3" class="edge">
<title>Node113&#45;&gt;Node114</title>
<path fill="none" stroke="#191970" d="M387.4109,-298.755C398.0327,-298.755 408.8028,-298.755 418.3667,-298.755"/>
<polygon fill="#191970" stroke="#191970" points="418.5799,-302.2551 428.5799,-298.755 418.5799,-295.2551 418.5799,-302.2551"/>
</g>
<!-- Node116 -->
<g id="node6" class="node">
<title>Node116</title>
<g id="a_node6"><a xlink:href="slew_8c.html#a321758941d88b75783955c819bb75005" target="_top" xlink:title="Initializes the slew rate controller. ">
<polygon fill="none" stroke="#000000" points="423.3535,-176.755 423.3535,-194.755 477.7031,-194.755 477.7031,-176.755 423.3535,-176.755"/>
<text text-anchor="middle" x="450.5283" y="-182.755" font-family="Helvetica,sans-Serif" font-size="10.00" fill="#000000">init_slew</text>
</a>
</g>
</g>
<!-- Node113&#45;&gt;Node116 -->
<g id="edge5" class="edge">
<title>Node113&#45;&gt;Node116</title>
<path fill="none" stroke="#191970" d="M346.289,-289.4561C358.0193,-281.8659 374.4429,-270.5084 387.3535,-258.755 406.4168,-241.4003 425.3784,-218.5473 437.4787,-203.0681"/>
<polygon fill="#191970" stroke="#191970" points="440.4362,-204.9637 443.7592,-194.9035 434.8879,-200.6957 440.4362,-204.9637"/>
</g>
<!-- Node126 -->
<g id="node15" class="node">
<title>Node126</title>
<g id="a_node15"><a xlink:href="_a_p_i_8h.html#a8b51124628d2a7741738d48551d1e8ee" target="_top" xlink:title="Requests a mutex so that other tasks cannot simultaneously use the resource it guards. ">
<polygon fill="none" stroke="#000000" points="626.8506,-214.755 626.8506,-232.755 691.2051,-232.755 691.2051,-214.755 626.8506,-214.755"/>
<text text-anchor="middle" x="659.0278" y="-220.755" font-family="Helvetica,sans-Serif" font-size="10.00" fill="#000000">mutexTake</text>
</a>
</g>
</g>
<!-- Node113&#45;&gt;Node126 -->
<g id="edge20" class="edge">
<title>Node113&#45;&gt;Node126</title>
<path fill="none" stroke="#191970" d="M358.3272,-307.8002C387.9663,-316.3927 436.7479,-326.6453 477.7031,-316.755 494.1578,-312.7813 587.3539,-262.7703 633.3503,-237.7783"/>
<polygon fill="#191970" stroke="#191970" points="635.2941,-240.7052 642.4044,-232.8506 631.9478,-234.5568 635.2941,-240.7052"/>
</g>
<!-- Node127 -->
<g id="node16" class="node">
<title>Node127</title>
<g id="a_node16"><a xlink:href="_a_p_i_8h.html#afe171a08d22de18fc2ab604b2364959f" target="_top" xlink:title="Relinquishes a mutex so that other tasks can use the resource it guards. ">
<polygon fill="none" stroke="#000000" points="627.1313,-27.755 627.1313,-45.755 690.9243,-45.755 690.9243,-27.755 627.1313,-27.755"/>
<text text-anchor="middle" x="659.0278" y="-33.755" font-family="Helvetica,sans-Serif" font-size="10.00" fill="#000000">mutexGive</text>
</a>
</g>
</g>
<!-- Node113&#45;&gt;Node127 -->
<g id="edge19" class="edge">
<title>Node113&#45;&gt;Node127</title>
<path fill="none" stroke="#191970" d="M349.0444,-289.6927C361.2553,-282.6844 377.0612,-271.9594 387.3535,-258.755 414.3466,-224.1244 401.229,-204.6813 423.3535,-166.755 455.4057,-111.8106 458.1507,-86.7414 513.7031,-55.755 545.1102,-38.2365 586.134,-34.2704 616.5828,-34.232"/>
<polygon fill="#191970" stroke="#191970" points="616.8339,-37.7355 626.8788,-34.3665 616.9254,-30.7361 616.8339,-37.7355"/>
</g>
<!-- Node128 -->
<g id="node17" class="node">
<title>Node128</title>
<g id="a_node17"><a xlink:href="_a_p_i_8h.html#a03c5b04b472d024281f62d7af8854a8e" target="_top" xlink:title="Sets the speed of the specified motor channel. ">
<polygon fill="none" stroke="#000000" points="630.7422,-251.755 630.7422,-269.755 687.3135,-269.755 687.3135,-251.755 630.7422,-251.755"/>
<text text-anchor="middle" x="659.0278" y="-257.755" font-family="Helvetica,sans-Serif" font-size="10.00" fill="#000000">motorSet</text>
</a>
</g>
</g>
<!-- Node113&#45;&gt;Node128 -->
<g id="edge18" class="edge">
<title>Node113&#45;&gt;Node128</title>
<path fill="none" stroke="#191970" d="M342.6306,-307.7708C359.2179,-320.3062 391.5715,-342.4006 423.3535,-350.755 495.3508,-369.6805 524.1869,-383.8871 590.8506,-350.755 620.8548,-335.8427 641.1862,-300.7207 651.3854,-279.025"/>
<polygon fill="#191970" stroke="#191970" points="654.5956,-280.4198 655.467,-269.8609 648.2011,-277.5718 654.5956,-280.4198"/>
</g>
<!-- Node115 -->
<g id="node5" class="node">
<title>Node115</title>
<g id="a_node5"><a xlink:href="_a_p_i_8h.html#a403c82418e475fa4a8273719e6a7f3e6" target="_top" xlink:title="Prints the formatted string to the debug stream (the PC terminal). ">
<polygon fill="none" stroke="#000000" points="750.2739,-242.755 750.2739,-260.755 788.5054,-260.755 788.5054,-242.755 750.2739,-242.755"/>
<text text-anchor="middle" x="769.3896" y="-248.755" font-family="Helvetica,sans-Serif" font-size="10.00" fill="#000000">printf</text>
</a>
</g>
</g>
<!-- Node114&#45;&gt;Node115 -->
<g id="edge4" class="edge">
<title>Node114&#45;&gt;Node115</title>
<path fill="none" stroke="#191970" d="M472.6956,-298.7493C515.4381,-298.336 612.0231,-295.4427 691.2051,-278.755 707.988,-275.218 726.1292,-269.1042 740.7082,-263.588"/>
<polygon fill="#191970" stroke="#191970" points="742.1229,-266.7932 750.1717,-259.9036 739.5832,-260.2702 742.1229,-266.7932"/>
</g>
<!-- Node117 -->
<g id="node7" class="node">
<title>Node117</title>
<g id="a_node7"><a xlink:href="log_8h.html#a0bec2cf5fff7f607bc510b74aba9887c" target="_top" xlink:title="prints a warning message and displays on lcd. ">
<polygon fill="none" stroke="#000000" points="526.7671,-65.755 526.7671,-83.755 577.7866,-83.755 577.7866,-65.755 526.7671,-65.755"/>
<text text-anchor="middle" x="552.2769" y="-71.755" font-family="Helvetica,sans-Serif" font-size="10.00" fill="#000000">warning</text>
</a>
</g>
</g>
<!-- Node116&#45;&gt;Node117 -->
<g id="edge6" class="edge">
<title>Node116&#45;&gt;Node117</title>
<path fill="none" stroke="#191970" d="M454.6435,-176.6334C463.2376,-158.4744 484.7237,-117.4304 513.7031,-92.755 515.2223,-91.4614 516.8502,-90.2405 518.5468,-89.0913"/>
<polygon fill="#191970" stroke="#191970" points="520.5296,-91.9872 527.4191,-83.9383 517.0139,-85.9341 520.5296,-91.9872"/>
</g>
<!-- Node122 -->
<g id="node11" class="node">
<title>Node122</title>
<g id="a_node11"><a xlink:href="_a_p_i_8h.html#a8966c541f3e9565aea1289f0d2f2cf43" target="_top" xlink:title="Stops all motors; significantly faster than looping through all motor ports and calling motorSet(chan...">
<polygon fill="none" stroke="#000000" points="515.6538,-102.755 515.6538,-120.755 588.8999,-120.755 588.8999,-102.755 515.6538,-102.755"/>
<text text-anchor="middle" x="552.2769" y="-108.755" font-family="Helvetica,sans-Serif" font-size="10.00" fill="#000000">motorStopAll</text>
</a>
</g>
</g>
<!-- Node116&#45;&gt;Node122 -->
<g id="edge11" class="edge">
<title>Node116&#45;&gt;Node122</title>
<path fill="none" stroke="#191970" d="M459.2593,-176.5069C470.8606,-164.5917 492.3844,-143.7509 513.7031,-129.755 515.9985,-128.248 518.4402,-126.7993 520.9374,-125.4237"/>
<polygon fill="#191970" stroke="#191970" points="522.7312,-128.4382 530.0615,-120.7885 519.5607,-122.1974 522.7312,-128.4382"/>
</g>
<!-- Node123 -->
<g id="node12" class="node">
<title>Node123</title>
<g id="a_node12"><a xlink:href="_a_p_i_8h.html#aecd027ce8f8b52a765735e9eb5b202b3" target="_top" xlink:title="Creates a mutex intended to allow only one task to use a resource at a time. ">
<polygon fill="none" stroke="#000000" points="515.6538,-176.755 515.6538,-194.755 588.8999,-194.755 588.8999,-176.755 515.6538,-176.755"/>
<text text-anchor="middle" x="552.2769" y="-182.755" font-family="Helvetica,sans-Serif" font-size="10.00" fill="#000000">mutexCreate</text>
</a>
</g>
</g>
<!-- Node116&#45;&gt;Node123 -->
<g id="edge12" class="edge">
<title>Node116&#45;&gt;Node123</title>
<path fill="none" stroke="#191970" d="M477.7951,-185.755C486.268,-185.755 495.8635,-185.755 505.2808,-185.755"/>
<polygon fill="#191970" stroke="#191970" points="505.368,-189.2551 515.368,-185.755 505.3679,-182.2551 505.368,-189.2551"/>
</g>
<!-- Node124 -->
<g id="node13" class="node">
<title>Node124</title>
<g id="a_node13"><a xlink:href="_a_p_i_8h.html#ab05a241d6d1fd98b1ceb4665db678156" target="_top" xlink:title="Starts a task which will periodically call the specified function. ">
<polygon fill="none" stroke="#000000" points="514.8115,-139.755 514.8115,-157.755 589.7422,-157.755 589.7422,-139.755 514.8115,-139.755"/>
<text text-anchor="middle" x="552.2769" y="-145.755" font-family="Helvetica,sans-Serif" font-size="10.00" fill="#000000">taskRunLoop</text>
</a>
</g>
</g>
<!-- Node116&#45;&gt;Node124 -->
<g id="edge13" class="edge">
<title>Node116&#45;&gt;Node124</title>
<path fill="none" stroke="#191970" d="M475.4188,-176.7038C488.1065,-172.09 503.7416,-166.4044 517.5902,-161.3685"/>
<polygon fill="#191970" stroke="#191970" points="519.0889,-164.5478 527.2907,-157.841 516.6966,-157.9693 519.0889,-164.5478"/>
</g>
<!-- Node125 -->
<g id="node14" class="node">
<title>Node125</title>
<g id="a_node14"><a xlink:href="slew_8c.html#a807a87c5df438fde21c1e8213906695b" target="_top" xlink:title="Closes the distance between the desired motor value and the current motor value by half for each moto...">
<polygon fill="none" stroke="#000000" points="513.7031,-213.755 513.7031,-231.755 590.8506,-231.755 590.8506,-213.755 513.7031,-213.755"/>
<text text-anchor="middle" x="552.2769" y="-219.755" font-family="Helvetica,sans-Serif" font-size="10.00" fill="#000000">updateMotors</text>
</a>
</g>
</g>
<!-- Node116&#45;&gt;Node125 -->
<g id="edge14" class="edge">
<title>Node116&#45;&gt;Node125</title>
<path fill="none" stroke="#191970" d="M475.4188,-194.8062C488.1065,-199.42 503.7416,-205.1055 517.5902,-210.1415"/>
<polygon fill="#191970" stroke="#191970" points="516.6966,-213.5407 527.2907,-213.669 519.0889,-206.9622 516.6966,-213.5407"/>
</g>
<!-- Node118 -->
<g id="node8" class="node">
<title>Node118</title>
<g id="a_node8"><a xlink:href="log_8c.html#afff22aff6749311a684a559cac3ac8bd" target="_top" xlink:title="prints a log info message to the lcd ">
<polygon fill="none" stroke="#ff0000" points="633.5132,-111.755 633.5132,-129.755 684.5425,-129.755 684.5425,-111.755 633.5132,-111.755"/>
<text text-anchor="middle" x="659.0278" y="-117.755" font-family="Helvetica,sans-Serif" font-size="10.00" fill="#000000">log_info</text>
</a>
</g>
</g>
<!-- Node117&#45;&gt;Node118 -->
<g id="edge7" class="edge">
<title>Node117&#45;&gt;Node118</title>
<path fill="none" stroke="#191970" d="M573.3674,-83.8431C589.1581,-90.6475 610.9874,-100.0539 628.6572,-107.668"/>
<polygon fill="#191970" stroke="#191970" points="627.4123,-110.9426 637.9811,-111.6857 630.1825,-104.5141 627.4123,-110.9426"/>
</g>
<!-- Node118&#45;&gt;Node115 -->
<g id="edge8" class="edge">
<title>Node118&#45;&gt;Node115</title>
<path fill="none" stroke="#191970" d="M666.6134,-129.7592C684.8847,-151.4472 731.5666,-206.8589 755.21,-234.9236"/>
<polygon fill="#191970" stroke="#191970" points="752.6313,-237.295 761.751,-242.6878 757.9847,-232.785 752.6313,-237.295"/>
</g>
<!-- Node119 -->
<g id="node9" class="node">
<title>Node119</title>
<g id="a_node9"><a xlink:href="_a_p_i_8h.html#aab53a247d88151a6623c20fa1ea940b0" target="_top" xlink:title="Sets the specified LCD backlight to be on or off. ">
<polygon fill="none" stroke="#000000" points="727.2051,-93.755 727.2051,-111.755 811.5742,-111.755 811.5742,-93.755 727.2051,-93.755"/>
<text text-anchor="middle" x="769.3896" y="-99.755" font-family="Helvetica,sans-Serif" font-size="10.00" fill="#000000">lcdSetBacklight</text>
</a>
</g>
</g>
<!-- Node118&#45;&gt;Node119 -->
<g id="edge9" class="edge">
<title>Node118&#45;&gt;Node119</title>
<path fill="none" stroke="#191970" d="M684.6244,-116.5802C694.2773,-115.0058 705.645,-113.1517 716.8658,-111.3216"/>
<polygon fill="#191970" stroke="#191970" points="717.7698,-114.7205 727.0759,-109.6564 716.6429,-107.8118 717.7698,-114.7205"/>
</g>
<!-- Node120 -->
<g id="node10" class="node">
<title>Node120</title>
<g id="a_node10"><a xlink:href="_a_p_i_8h.html#a5fa1d119fe3e836b5519f97eae7a1272" target="_top" xlink:title="Clears the LCD screen on the specified port. ">
<polygon fill="none" stroke="#000000" points="743.0498,-130.755 743.0498,-148.755 795.7295,-148.755 795.7295,-130.755 743.0498,-130.755"/>
<text text-anchor="middle" x="769.3896" y="-136.755" font-family="Helvetica,sans-Serif" font-size="10.00" fill="#000000">lcdClear</text>
</a>
</g>
</g>
<!-- Node118&#45;&gt;Node120 -->
<g id="edge10" class="edge">
<title>Node118&#45;&gt;Node120</title>
<path fill="none" stroke="#191970" d="M684.6244,-125.1617C698.9366,-127.6257 717.0185,-130.7387 732.8021,-133.456"/>
<polygon fill="#191970" stroke="#191970" points="732.3308,-136.9263 742.7797,-135.1738 733.5185,-130.0278 732.3308,-136.9263"/>
</g>
<!-- Node125&#45;&gt;Node126 -->
<g id="edge15" class="edge">
<title>Node125&#45;&gt;Node126</title>
<path fill="none" stroke="#191970" d="M591.1184,-223.1188C599.4253,-223.1967 608.2407,-223.2792 616.6724,-223.3582"/>
<polygon fill="#191970" stroke="#191970" points="616.6747,-226.8583 626.7071,-223.4522 616.7403,-219.8586 616.6747,-226.8583"/>
</g>
<!-- Node125&#45;&gt;Node127 -->
<g id="edge16" class="edge">
<title>Node125&#45;&gt;Node127</title>
<path fill="none" stroke="#191970" d="M577.8817,-213.6468C582.6687,-211.035 587.2815,-207.7738 590.8506,-203.755 622.7735,-167.81 608.1527,-146.0438 626.8506,-101.755 633.6519,-85.6451 642.5433,-67.8852 649.2557,-55.0065"/>
<polygon fill="#191970" stroke="#191970" points="652.5165,-56.3266 654.0901,-45.8493 646.3262,-53.0585 652.5165,-56.3266"/>
</g>
<!-- Node125&#45;&gt;Node128 -->
<g id="edge17" class="edge">
<title>Node125&#45;&gt;Node128</title>
<path fill="none" stroke="#191970" d="M577.5753,-231.7605C591.4334,-236.6935 608.8215,-242.8831 623.9696,-248.2754"/>
<polygon fill="#191970" stroke="#191970" points="622.9463,-251.6262 633.541,-251.6825 625.2938,-245.0315 622.9463,-251.6262"/>
</g>
<!-- Node130 -->
<g id="node19" class="node">
<title>Node130</title>
<g id="a_node19"><a xlink:href="slew_8h.html#a7dff2b79dffe55fb936d977594d7c01d" target="_top" xlink:title="Sets motor speed wrapped inside the slew rate controller. ">
<polygon fill="none" stroke="#000000" points="288.2627,-231.755 288.2627,-249.755 374.292,-249.755 374.292,-231.755 288.2627,-231.755"/>
<text text-anchor="middle" x="331.2773" y="-237.755" font-family="Helvetica,sans-Serif" font-size="10.00" fill="#000000">set_motor_slew</text>
</a>
</g>
</g>
<!-- Node129&#45;&gt;Node130 -->
<g id="edge22" class="edge">
<title>Node129&#45;&gt;Node130</title>
<path fill="none" stroke="#191970" d="M239.3025,-240.755C251.9535,-240.755 265.2639,-240.755 277.7079,-240.755"/>
<polygon fill="#191970" stroke="#191970" points="277.9235,-244.2551 287.9235,-240.755 277.9235,-237.2551 277.9235,-244.2551"/>
</g>
<!-- Node130&#45;&gt;Node114 -->
<g id="edge23" class="edge">
<title>Node130&#45;&gt;Node114</title>
<path fill="none" stroke="#191970" d="M349.9103,-249.8175C369.3985,-259.2959 400.2104,-274.2819 422.6069,-285.1749"/>
<polygon fill="#191970" stroke="#191970" points="421.109,-288.3383 431.6326,-289.5647 424.1707,-282.0434 421.109,-288.3383"/>
</g>
<!-- Node130&#45;&gt;Node116 -->
<g id="edge24" class="edge">
<title>Node130&#45;&gt;Node116</title>
<path fill="none" stroke="#191970" d="M350.9692,-231.6729C370.2163,-222.7959 399.7377,-209.1802 421.6415,-199.0779"/>
<polygon fill="#191970" stroke="#191970" points="423.1923,-202.2171 430.8072,-194.8506 420.2606,-195.8606 423.1923,-202.2171"/>
</g>
<!-- Node130&#45;&gt;Node126 -->
<g id="edge26" class="edge">
<title>Node130&#45;&gt;Node126</title>
<path fill="none" stroke="#191970" d="M374.6471,-243.9711C426.3482,-247.064 515.2589,-250.0373 590.8506,-240.755 600.2758,-239.5976 610.2728,-237.5722 619.6225,-235.3138"/>
<polygon fill="#191970" stroke="#191970" points="620.6337,-238.6679 629.4562,-232.8016 618.901,-231.8857 620.6337,-238.6679"/>
</g>
<!-- Node130&#45;&gt;Node127 -->
<g id="edge25" class="edge">
<title>Node130&#45;&gt;Node127</title>
<path fill="none" stroke="#191970" d="M331.7924,-231.5261C334.2944,-196.6676 348.3688,-72.4827 423.3535,-22.755 486.0185,18.8026 579.8957,-6.39 628.0715,-24.0064"/>
<polygon fill="#191970" stroke="#191970" points="627.0388,-27.3578 637.6303,-27.6238 629.5164,-20.8109 627.0388,-27.3578"/>
</g>
<!-- Node131&#45;&gt;Node113 -->
<g id="edge28" class="edge">
<title>Node131&#45;&gt;Node113</title>
<path fill="none" stroke="#191970" d="M233.7394,-312.3512C243.8826,-310.9373 254.6159,-309.4411 265.1087,-307.9785"/>
<polygon fill="#191970" stroke="#191970" points="265.6468,-311.4374 275.0679,-306.5902 264.6804,-304.5044 265.6468,-311.4374"/>
</g>
</g>
</svg>
