<?xml version="1.0" encoding="UTF-8" standalone="no"?>
<!DOCTYPE svg PUBLIC "-//W3C//DTD SVG 1.1//EN"
 "http://www.w3.org/Graphics/SVG/1.1/DTD/svg11.dtd">
<!-- Generated by graphviz version 2.40.1 (20161225.0304)
 -->
<!-- Title: list_iterator_next Pages: 1 -->
<svg width="426pt" height="101pt"
 viewBox="0.00 0.00 426.25 101.00" xmlns="http://www.w3.org/2000/svg" xmlns:xlink="http://www.w3.org/1999/xlink">
<g id="graph0" class="graph" transform="scale(1 1) rotate(0) translate(4 97)">
<title>list_iterator_next</title>
<!-- Node24 -->
<g id="node1" class="node">
<title>Node24</title>
<polygon fill="#bfbfbf" stroke="#000000" points="0,-37.5 0,-55.5 89.3691,-55.5 89.3691,-37.5 0,-37.5"/>
<text text-anchor="middle" x="44.6846" y="-43.5" font-family="Helvetica,sans-Serif" font-size="10.00" fill="#000000">list_iterator_next</text>
</g>
<!-- Node25 -->
<g id="node2" class="node">
<title>Node25</title>
<g id="a_node2"><a xlink:href="list_8c.html#ab3dacc64ceb63b0a0849312b0a14c91c" target="_top" xlink:title="Finds a node a given index. ">
<polygon fill="none" stroke="#000000" points="139.5464,-74.5 139.5464,-92.5 181.6694,-92.5 181.6694,-74.5 139.5464,-74.5"/>
<text text-anchor="middle" x="160.6079" y="-80.5" font-family="Helvetica,sans-Serif" font-size="10.00" fill="#000000">list_at</text>
</a>
</g>
</g>
<!-- Node24&#45;&gt;Node25 -->
<g id="edge1" class="edge">
<title>Node24&#45;&gt;Node25</title>
<path fill="none" stroke="#191970" d="M82.5729,-58.5931C101.4593,-64.6212 123.5898,-71.6847 139.4501,-76.7469"/>
<polygon fill="#191970" stroke="#191970" points="83.6334,-55.2576 73.0426,-55.5512 81.5049,-61.9262 83.6334,-55.2576"/>
</g>
<!-- Node26 -->
<g id="node3" class="node">
<title>Node26</title>
<g id="a_node3"><a xlink:href="list_8c.html#a5d73352b7bfa0c5a8b33289d7b27a374" target="_top" xlink:title="Finds a node in a list with a given value. ">
<polygon fill="none" stroke="#000000" points="135.6548,-37.5 135.6548,-55.5 185.561,-55.5 185.561,-37.5 135.6548,-37.5"/>
<text text-anchor="middle" x="160.6079" y="-43.5" font-family="Helvetica,sans-Serif" font-size="10.00" fill="#000000">list_find</text>
</a>
</g>
</g>
<!-- Node24&#45;&gt;Node26 -->
<g id="edge2" class="edge">
<title>Node24&#45;&gt;Node26</title>
<path fill="none" stroke="#191970" d="M99.8464,-46.5C112.2673,-46.5 124.86,-46.5 135.3359,-46.5"/>
<polygon fill="#191970" stroke="#191970" points="99.5036,-43.0001 89.5036,-46.5 99.5035,-50.0001 99.5036,-43.0001"/>
</g>
<!-- Node27 -->
<g id="node4" class="node">
<title>Node27</title>
<g id="a_node4"><a xlink:href="routines_8c.html#a230cdcefb410a429fb6baba1f88fc9ba" target="_top" xlink:title="Task that manages routines. ">
<polygon fill="none" stroke="#000000" points="125.3691,-.5 125.3691,-18.5 195.8467,-18.5 195.8467,-.5 125.3691,-.5"/>
<text text-anchor="middle" x="160.6079" y="-6.5" font-family="Helvetica,sans-Serif" font-size="10.00" fill="#000000">routine_task</text>
</a>
</g>
</g>
<!-- Node24&#45;&gt;Node27 -->
<g id="edge3" class="edge">
<title>Node24&#45;&gt;Node27</title>
<path fill="none" stroke="#191970" d="M82.7122,-34.3625C98.8116,-29.2239 117.2472,-23.3397 132.1409,-18.586"/>
<polygon fill="#191970" stroke="#191970" points="81.5049,-31.0738 73.0426,-37.4488 83.6334,-37.7424 81.5049,-31.0738"/>
</g>
<!-- Node28 -->
<g id="node5" class="node">
<title>Node28</title>
<g id="a_node5"><a xlink:href="routines_8c.html#ab873e24fcc59a2bf7844618b664a5d26" target="_top" xlink:title="Starts the routine system. ">
<polygon fill="none" stroke="#000000" points="231.8467,-.5 231.8467,-18.5 296.7676,-18.5 296.7676,-.5 231.8467,-.5"/>
<text text-anchor="middle" x="264.3071" y="-6.5" font-family="Helvetica,sans-Serif" font-size="10.00" fill="#000000">init_routine</text>
</a>
</g>
</g>
<!-- Node27&#45;&gt;Node28 -->
<g id="edge4" class="edge">
<title>Node27&#45;&gt;Node28</title>
<path fill="none" stroke="#191970" d="M206.2169,-9.5C214.7329,-9.5 223.4768,-9.5 231.5116,-9.5"/>
<polygon fill="#191970" stroke="#191970" points="206.0053,-6.0001 196.0053,-9.5 206.0052,-13.0001 206.0053,-6.0001"/>
</g>
<!-- Node29 -->
<g id="node6" class="node">
<title>Node29</title>
<g id="a_node6"><a xlink:href="opcontrol_8c.html#ac71a94af413917f27d108e95c4d6f6a7" target="_top" xlink:title="Runs the user operator control code. ">
<polygon fill="none" stroke="#000000" points="332.7676,-.5 332.7676,-18.5 418.25,-18.5 418.25,-.5 332.7676,-.5"/>
<text text-anchor="middle" x="375.5088" y="-6.5" font-family="Helvetica,sans-Serif" font-size="10.00" fill="#000000">operatorControl</text>
</a>
</g>
</g>
<!-- Node28&#45;&gt;Node29 -->
<g id="edge5" class="edge">
<title>Node28&#45;&gt;Node29</title>
<path fill="none" stroke="#191970" d="M307.044,-9.5C315.3748,-9.5 324.1133,-9.5 332.4544,-9.5"/>
<polygon fill="#191970" stroke="#191970" points="306.7702,-6.0001 296.7702,-9.5 306.7702,-13.0001 306.7702,-6.0001"/>
</g>
</g>
</svg>
