<?xml version="1.0" encoding="UTF-8" standalone="no"?>
<!DOCTYPE svg PUBLIC "-//W3C//DTD SVG 1.1//EN"
 "http://www.w3.org/Graphics/SVG/1.1/DTD/svg11.dtd">
<!-- Generated by graphviz version 2.40.1 (20161225.0304)
 -->
<!-- Title: list_iterator_new_from_node Pages: 1 -->
<svg width="604pt" height="101pt"
 viewBox="0.00 0.00 603.88 101.00" xmlns="http://www.w3.org/2000/svg" xmlns:xlink="http://www.w3.org/1999/xlink">
<g id="graph0" class="graph" transform="scale(1 1) rotate(0) translate(4 97)">
<title>list_iterator_new_from_node</title>
<!-- Node16 -->
<g id="node1" class="node">
<title>Node16</title>
<polygon fill="#bfbfbf" stroke="#000000" points="0,-37.5 0,-55.5 142.1816,-55.5 142.1816,-37.5 0,-37.5"/>
<text text-anchor="middle" x="71.0908" y="-43.5" font-family="Helvetica,sans-Serif" font-size="10.00" fill="#000000">list_iterator_new_from_node</text>
</g>
<!-- Node17 -->
<g id="node2" class="node">
<title>Node17</title>
<g id="a_node2"><a xlink:href="list__iterator_8c.html#a3c956afda343b4a6aaf68fbd4b446733" target="_top" xlink:title="Creates a new iterator. ">
<polygon fill="none" stroke="#000000" points="178.1816,-37.5 178.1816,-55.5 266.9941,-55.5 266.9941,-37.5 178.1816,-37.5"/>
<text text-anchor="middle" x="222.5879" y="-43.5" font-family="Helvetica,sans-Serif" font-size="10.00" fill="#000000">list_iterator_new</text>
</a>
</g>
</g>
<!-- Node16&#45;&gt;Node17 -->
<g id="edge1" class="edge">
<title>Node16&#45;&gt;Node17</title>
<path fill="none" stroke="#191970" d="M152.6427,-46.5C161.3486,-46.5 169.9517,-46.5 177.9883,-46.5"/>
<polygon fill="#191970" stroke="#191970" points="152.4033,-43.0001 142.4032,-46.5 152.4032,-50.0001 152.4033,-43.0001"/>
</g>
<!-- Node18 -->
<g id="node3" class="node">
<title>Node18</title>
<g id="a_node3"><a xlink:href="list_8c.html#ab3dacc64ceb63b0a0849312b0a14c91c" target="_top" xlink:title="Finds a node a given index. ">
<polygon fill="none" stroke="#000000" points="317.1714,-74.5 317.1714,-92.5 359.2944,-92.5 359.2944,-74.5 317.1714,-74.5"/>
<text text-anchor="middle" x="338.2329" y="-80.5" font-family="Helvetica,sans-Serif" font-size="10.00" fill="#000000">list_at</text>
</a>
</g>
</g>
<!-- Node17&#45;&gt;Node18 -->
<g id="edge2" class="edge">
<title>Node17&#45;&gt;Node18</title>
<path fill="none" stroke="#191970" d="M260.6447,-58.6761C279.4287,-64.6859 301.3763,-71.7079 317.1259,-76.7469"/>
<polygon fill="#191970" stroke="#191970" points="261.4688,-55.265 250.8778,-55.5512 259.3357,-61.9321 261.4688,-55.265"/>
</g>
<!-- Node19 -->
<g id="node4" class="node">
<title>Node19</title>
<g id="a_node4"><a xlink:href="list_8c.html#a5d73352b7bfa0c5a8b33289d7b27a374" target="_top" xlink:title="Finds a node in a list with a given value. ">
<polygon fill="none" stroke="#000000" points="313.2798,-37.5 313.2798,-55.5 363.186,-55.5 363.186,-37.5 313.2798,-37.5"/>
<text text-anchor="middle" x="338.2329" y="-43.5" font-family="Helvetica,sans-Serif" font-size="10.00" fill="#000000">list_find</text>
</a>
</g>
</g>
<!-- Node17&#45;&gt;Node19 -->
<g id="edge3" class="edge">
<title>Node17&#45;&gt;Node19</title>
<path fill="none" stroke="#191970" d="M277.6173,-46.5C290.0084,-46.5 302.5708,-46.5 313.0216,-46.5"/>
<polygon fill="#191970" stroke="#191970" points="277.2993,-43.0001 267.2993,-46.5 277.2992,-50.0001 277.2993,-43.0001"/>
</g>
<!-- Node20 -->
<g id="node5" class="node">
<title>Node20</title>
<g id="a_node5"><a xlink:href="routines_8c.html#a230cdcefb410a429fb6baba1f88fc9ba" target="_top" xlink:title="Task that manages routines. ">
<polygon fill="none" stroke="#000000" points="302.9941,-.5 302.9941,-18.5 373.4717,-18.5 373.4717,-.5 302.9941,-.5"/>
<text text-anchor="middle" x="338.2329" y="-6.5" font-family="Helvetica,sans-Serif" font-size="10.00" fill="#000000">routine_task</text>
</a>
</g>
</g>
<!-- Node17&#45;&gt;Node20 -->
<g id="edge4" class="edge">
<title>Node17&#45;&gt;Node20</title>
<path fill="none" stroke="#191970" d="M260.5243,-34.3625C276.5849,-29.2239 294.9763,-23.3397 309.8342,-18.586"/>
<polygon fill="#191970" stroke="#191970" points="259.3357,-31.0679 250.8778,-37.4488 261.4688,-37.735 259.3357,-31.0679"/>
</g>
<!-- Node21 -->
<g id="node6" class="node">
<title>Node21</title>
<g id="a_node6"><a xlink:href="routines_8c.html#ab873e24fcc59a2bf7844618b664a5d26" target="_top" xlink:title="Starts the routine system. ">
<polygon fill="none" stroke="#000000" points="409.4717,-.5 409.4717,-18.5 474.3926,-18.5 474.3926,-.5 409.4717,-.5"/>
<text text-anchor="middle" x="441.9321" y="-6.5" font-family="Helvetica,sans-Serif" font-size="10.00" fill="#000000">init_routine</text>
</a>
</g>
</g>
<!-- Node20&#45;&gt;Node21 -->
<g id="edge5" class="edge">
<title>Node20&#45;&gt;Node21</title>
<path fill="none" stroke="#191970" d="M383.8419,-9.5C392.3579,-9.5 401.1018,-9.5 409.1366,-9.5"/>
<polygon fill="#191970" stroke="#191970" points="383.6303,-6.0001 373.6303,-9.5 383.6302,-13.0001 383.6303,-6.0001"/>
</g>
<!-- Node22 -->
<g id="node7" class="node">
<title>Node22</title>
<g id="a_node7"><a xlink:href="opcontrol_8c.html#ac71a94af413917f27d108e95c4d6f6a7" target="_top" xlink:title="Runs the user operator control code. ">
<polygon fill="none" stroke="#000000" points="510.3926,-.5 510.3926,-18.5 595.875,-18.5 595.875,-.5 510.3926,-.5"/>
<text text-anchor="middle" x="553.1338" y="-6.5" font-family="Helvetica,sans-Serif" font-size="10.00" fill="#000000">operatorControl</text>
</a>
</g>
</g>
<!-- Node21&#45;&gt;Node22 -->
<g id="edge6" class="edge">
<title>Node21&#45;&gt;Node22</title>
<path fill="none" stroke="#191970" d="M484.669,-9.5C492.9998,-9.5 501.7383,-9.5 510.0794,-9.5"/>
<polygon fill="#191970" stroke="#191970" points="484.3952,-6.0001 474.3952,-9.5 484.3952,-13.0001 484.3952,-6.0001"/>
</g>
</g>
</svg>
