<?xml version="1.0" encoding="UTF-8" standalone="no"?>
<!DOCTYPE svg PUBLIC "-//W3C//DTD SVG 1.1//EN"
 "http://www.w3.org/Graphics/SVG/1.1/DTD/svg11.dtd">
<!-- Generated by graphviz version 2.40.1 (20161225.0304)
 -->
<!-- Title: include/list.h Pages: 1 -->
<svg width="358pt" height="82pt"
 viewBox="0.00 0.00 357.79 82.00" xmlns="http://www.w3.org/2000/svg" xmlns:xlink="http://www.w3.org/1999/xlink">
<g id="graph0" class="graph" transform="scale(1 1) rotate(0) translate(4 78)">
<title>include/list.h</title>
<!-- Node2 -->
<g id="node1" class="node">
<title>Node2</title>
<polygon fill="#bfbfbf" stroke="#000000" points="129.5396,-55.5 129.5396,-73.5 200.5688,-73.5 200.5688,-55.5 129.5396,-55.5"/>
<text text-anchor="middle" x="165.0542" y="-61.5" font-family="Helvetica,sans-Serif" font-size="10.00" fill="#000000">include/list.h</text>
</g>
<!-- Node3 -->
<g id="node2" class="node">
<title>Node3</title>
<g id="a_node2"><a xlink:href="list_8c.html" target="_top" xlink:title="src/list.c">
<polygon fill="none" stroke="#000000" points="0,-.5 0,-18.5 52.1084,-18.5 52.1084,-.5 0,-.5"/>
<text text-anchor="middle" x="26.0542" y="-6.5" font-family="Helvetica,sans-Serif" font-size="10.00" fill="#000000">src/list.c</text>
</a>
</g>
</g>
<!-- Node2&#45;&gt;Node3 -->
<g id="edge1" class="edge">
<title>Node2&#45;&gt;Node3</title>
<path fill="none" stroke="#191970" d="M132.787,-51.7324C107.1383,-41.5837 71.8906,-27.6367 49.0413,-18.5956"/>
<polygon fill="#191970" stroke="#191970" points="131.5149,-54.993 142.1012,-55.4179 134.0904,-48.484 131.5149,-54.993"/>
</g>
<!-- Node4 -->
<g id="node3" class="node">
<title>Node4</title>
<g id="a_node3"><a xlink:href="list__iterator_8c.html" target="_top" xlink:title="src/list_iterator.c">
<polygon fill="none" stroke="#000000" points="69.9312,-.5 69.9312,-18.5 158.1772,-18.5 158.1772,-.5 69.9312,-.5"/>
<text text-anchor="middle" x="114.0542" y="-6.5" font-family="Helvetica,sans-Serif" font-size="10.00" fill="#000000">src/list_iterator.c</text>
</a>
</g>
</g>
<!-- Node2&#45;&gt;Node4 -->
<g id="edge2" class="edge">
<title>Node2&#45;&gt;Node4</title>
<path fill="none" stroke="#191970" d="M149.7662,-48.0129C140.8974,-38.4485 130.0544,-26.7552 122.6588,-18.7795"/>
<polygon fill="#191970" stroke="#191970" points="147.2667,-50.465 156.6326,-55.4179 152.3996,-45.7054 147.2667,-50.465"/>
</g>
<!-- Node5 -->
<g id="node4" class="node">
<title>Node5</title>
<g id="a_node4"><a xlink:href="list__node_8c.html" target="_top" xlink:title="src/list_node.c">
<polygon fill="none" stroke="#000000" points="176.0962,-.5 176.0962,-18.5 256.0122,-18.5 256.0122,-.5 176.0962,-.5"/>
<text text-anchor="middle" x="216.0542" y="-6.5" font-family="Helvetica,sans-Serif" font-size="10.00" fill="#000000">src/list_node.c</text>
</a>
</g>
</g>
<!-- Node2&#45;&gt;Node5 -->
<g id="edge3" class="edge">
<title>Node2&#45;&gt;Node5</title>
<path fill="none" stroke="#191970" d="M180.3422,-48.0129C189.211,-38.4485 200.054,-26.7552 207.4496,-18.7795"/>
<polygon fill="#191970" stroke="#191970" points="177.7088,-45.7054 173.4758,-55.4179 182.8417,-50.465 177.7088,-45.7054"/>
</g>
<!-- Node6 -->
<g id="node5" class="node">
<title>Node6</title>
<g id="a_node5"><a xlink:href="routines_8c.html" target="_top" xlink:title="src/routines.c">
<polygon fill="none" stroke="#000000" points="274.3228,-.5 274.3228,-18.5 349.7856,-18.5 349.7856,-.5 274.3228,-.5"/>
<text text-anchor="middle" x="312.0542" y="-6.5" font-family="Helvetica,sans-Serif" font-size="10.00" fill="#000000">src/routines.c</text>
</a>
</g>
</g>
<!-- Node2&#45;&gt;Node6 -->
<g id="edge4" class="edge">
<title>Node2&#45;&gt;Node6</title>
<path fill="none" stroke="#191970" d="M198.8207,-51.8663C225.9747,-41.7066 263.4732,-27.6765 287.7441,-18.5956"/>
<polygon fill="#191970" stroke="#191970" points="197.4677,-48.6355 189.3283,-55.4179 199.9207,-55.1916 197.4677,-48.6355"/>
</g>
</g>
</svg>
