<?xml version="1.0" encoding="UTF-8" standalone="no"?>
<!DOCTYPE svg PUBLIC "-//W3C//DTD SVG 1.1//EN"
 "http://www.w3.org/Graphics/SVG/1.1/DTD/svg11.dtd">
<!-- Generated by graphviz version 2.40.1 (20161225.0304)
 -->
<!-- Title: list_node_new Pages: 1 -->
<svg width="331pt" height="27pt"
 viewBox="0.00 0.00 330.90 27.00" xmlns="http://www.w3.org/2000/svg" xmlns:xlink="http://www.w3.org/1999/xlink">
<g id="graph0" class="graph" transform="scale(1 1) rotate(0) translate(4 23)">
<title>list_node_new</title>
<!-- Node54 -->
<g id="node1" class="node">
<title>Node54</title>
<polygon fill="#bfbfbf" stroke="#000000" points="0,-.5 0,-18.5 79.9355,-18.5 79.9355,-.5 0,-.5"/>
<text text-anchor="middle" x="39.9678" y="-6.5" font-family="Helvetica,sans-Serif" font-size="10.00" fill="#000000">list_node_new</text>
</g>
<!-- Node55 -->
<g id="node2" class="node">
<title>Node55</title>
<g id="a_node2"><a xlink:href="routines_8c.html#a9486ebd51b8c3d966619cf4617e6a930" target="_top" xlink:title="Registers a routine for the system to use. ">
<polygon fill="none" stroke="#000000" points="115.9355,-.5 115.9355,-18.5 201.418,-18.5 201.418,-.5 115.9355,-.5"/>
<text text-anchor="middle" x="158.6768" y="-6.5" font-family="Helvetica,sans-Serif" font-size="10.00" fill="#000000">register_routine</text>
</a>
</g>
</g>
<!-- Node54&#45;&gt;Node55 -->
<g id="edge1" class="edge">
<title>Node54&#45;&gt;Node55</title>
<path fill="none" stroke="#191970" d="M90.2922,-9.5C98.7416,-9.5 107.441,-9.5 115.6837,-9.5"/>
<polygon fill="#191970" stroke="#191970" points="90.1573,-6.0001 80.1572,-9.5 90.1572,-13.0001 90.1573,-6.0001"/>
</g>
<!-- Node56 -->
<g id="node3" class="node">
<title>Node56</title>
<g id="a_node3"><a xlink:href="opcontrol_8c.html#ac71a94af413917f27d108e95c4d6f6a7" target="_top" xlink:title="Runs the user operator control code. ">
<polygon fill="none" stroke="#000000" points="237.418,-.5 237.418,-18.5 322.9004,-18.5 322.9004,-.5 237.418,-.5"/>
<text text-anchor="middle" x="280.1592" y="-6.5" font-family="Helvetica,sans-Serif" font-size="10.00" fill="#000000">operatorControl</text>
</a>
</g>
</g>
<!-- Node55&#45;&gt;Node56 -->
<g id="edge2" class="edge">
<title>Node55&#45;&gt;Node56</title>
<path fill="none" stroke="#191970" d="M211.7717,-9.5C220.3082,-9.5 229.0493,-9.5 237.3063,-9.5"/>
<polygon fill="#191970" stroke="#191970" points="211.5069,-6.0001 201.5069,-9.5 211.5069,-13.0001 211.5069,-6.0001"/>
</g>
</g>
</svg>
