<?xml version="1.0" encoding="UTF-8" standalone="no"?>
<!DOCTYPE svg PUBLIC "-//W3C//DTD SVG 1.1//EN"
 "http://www.w3.org/Graphics/SVG/1.1/DTD/svg11.dtd">
<!-- Generated by graphviz version 2.40.1 (20161225.0304)
 -->
<!-- Title: list_new Pages: 1 -->
<svg width="283pt" height="27pt"
 viewBox="0.00 0.00 282.53 27.00" xmlns="http://www.w3.org/2000/svg" xmlns:xlink="http://www.w3.org/1999/xlink">
<g id="graph0" class="graph" transform="scale(1 1) rotate(0) translate(4 23)">
<title>list_new</title>
<!-- Node50 -->
<g id="node1" class="node">
<title>Node50</title>
<polygon fill="#bfbfbf" stroke="#000000" points="0,-.5 0,-18.5 52.1279,-18.5 52.1279,-.5 0,-.5"/>
<text text-anchor="middle" x="26.064" y="-6.5" font-family="Helvetica,sans-Serif" font-size="10.00" fill="#000000">list_new</text>
</g>
<!-- Node51 -->
<g id="node2" class="node">
<title>Node51</title>
<g id="a_node2"><a xlink:href="routines_8c.html#ab873e24fcc59a2bf7844618b664a5d26" target="_top" xlink:title="Starts the routine system. ">
<polygon fill="none" stroke="#000000" points="88.1279,-.5 88.1279,-18.5 153.0488,-18.5 153.0488,-.5 88.1279,-.5"/>
<text text-anchor="middle" x="120.5884" y="-6.5" font-family="Helvetica,sans-Serif" font-size="10.00" fill="#000000">init_routine</text>
</a>
</g>
</g>
<!-- Node50&#45;&gt;Node51 -->
<g id="edge1" class="edge">
<title>Node50&#45;&gt;Node51</title>
<path fill="none" stroke="#191970" d="M62.4034,-9.5C70.7748,-9.5 79.6298,-9.5 87.8381,-9.5"/>
<polygon fill="#191970" stroke="#191970" points="62.1434,-6.0001 52.1434,-9.5 62.1434,-13.0001 62.1434,-6.0001"/>
</g>
<!-- Node52 -->
<g id="node3" class="node">
<title>Node52</title>
<g id="a_node3"><a xlink:href="opcontrol_8c.html#ac71a94af413917f27d108e95c4d6f6a7" target="_top" xlink:title="Runs the user operator control code. ">
<polygon fill="none" stroke="#000000" points="189.0488,-.5 189.0488,-18.5 274.5313,-18.5 274.5313,-.5 189.0488,-.5"/>
<text text-anchor="middle" x="231.79" y="-6.5" font-family="Helvetica,sans-Serif" font-size="10.00" fill="#000000">operatorControl</text>
</a>
</g>
</g>
<!-- Node51&#45;&gt;Node52 -->
<g id="edge2" class="edge">
<title>Node51&#45;&gt;Node52</title>
<path fill="none" stroke="#191970" d="M163.3252,-9.5C171.6561,-9.5 180.3946,-9.5 188.7357,-9.5"/>
<polygon fill="#191970" stroke="#191970" points="163.0515,-6.0001 153.0514,-9.5 163.0514,-13.0001 163.0515,-6.0001"/>
</g>
</g>
</svg>
