<?xml version="1.0" encoding="UTF-8" standalone="no"?>
<!DOCTYPE svg PUBLIC "-//W3C//DTD SVG 1.1//EN"
 "http://www.w3.org/Graphics/SVG/1.1/DTD/svg11.dtd">
<!-- Generated by graphviz version 2.40.1 (20161225.0304)
 -->
<!-- Title: list_at Pages: 1 -->
<svg width="368pt" height="101pt"
 viewBox="0.00 0.00 367.57 101.00" xmlns="http://www.w3.org/2000/svg" xmlns:xlink="http://www.w3.org/1999/xlink">
<g id="graph0" class="graph" transform="scale(1 1) rotate(0) translate(4 97)">
<title>list_at</title>
<!-- Node0 -->
<g id="node1" class="node">
<title>Node0</title>
<polygon fill="#bfbfbf" stroke="#000000" points="0,-37.5 0,-55.5 42.123,-55.5 42.123,-37.5 0,-37.5"/>
<text text-anchor="middle" x="21.0615" y="-43.5" font-family="Helvetica,sans-Serif" font-size="10.00" fill="#000000">list_at</text>
</g>
<!-- Node1 -->
<g id="node2" class="node">
<title>Node1</title>
<g id="a_node2"><a xlink:href="list_8h.html#ad16fa29ddbb444070ea65f871e1c0ba2" target="_top" xlink:title="Destroys the iterator. ">
<polygon fill="none" stroke="#000000" points="78.123,-74.5 78.123,-92.5 181.3838,-92.5 181.3838,-74.5 78.123,-74.5"/>
<text text-anchor="middle" x="129.7534" y="-80.5" font-family="Helvetica,sans-Serif" font-size="10.00" fill="#000000">list_iterator_destroy</text>
</a>
</g>
</g>
<!-- Node0&#45;&gt;Node1 -->
<g id="edge1" class="edge">
<title>Node0&#45;&gt;Node1</title>
<path fill="none" stroke="#191970" d="M42.2764,-53.7218C56.8401,-58.6794 76.5368,-65.3844 93.5526,-71.1768"/>
<polygon fill="#191970" stroke="#191970" points="92.608,-74.5524 103.2024,-74.4617 94.8638,-67.9258 92.608,-74.5524"/>
</g>
<!-- Node2 -->
<g id="node3" class="node">
<title>Node2</title>
<g id="a_node3"><a xlink:href="list_8h.html#a3c956afda343b4a6aaf68fbd4b446733" target="_top" xlink:title="Creates a new iterator. ">
<polygon fill="none" stroke="#000000" points="85.3472,-37.5 85.3472,-55.5 174.1597,-55.5 174.1597,-37.5 85.3472,-37.5"/>
<text text-anchor="middle" x="129.7534" y="-43.5" font-family="Helvetica,sans-Serif" font-size="10.00" fill="#000000">list_iterator_new</text>
</a>
</g>
</g>
<!-- Node0&#45;&gt;Node2 -->
<g id="edge2" class="edge">
<title>Node0&#45;&gt;Node2</title>
<path fill="none" stroke="#191970" d="M42.2764,-46.5C51.7375,-46.5 63.3647,-46.5 75.016,-46.5"/>
<polygon fill="#191970" stroke="#191970" points="75.2074,-50.0001 85.2074,-46.5 75.2073,-43.0001 75.2074,-50.0001"/>
</g>
<!-- Node4 -->
<g id="node5" class="node">
<title>Node4</title>
<g id="a_node5"><a xlink:href="list_8h.html#a2e5db981e32d3aef49ea79505a0615a6" target="_top" xlink:title="The next node in the iterator and advances the iterator. ">
<polygon fill="none" stroke="#000000" points="85.0688,-.5 85.0688,-18.5 174.438,-18.5 174.438,-.5 85.0688,-.5"/>
<text text-anchor="middle" x="129.7534" y="-6.5" font-family="Helvetica,sans-Serif" font-size="10.00" fill="#000000">list_iterator_next</text>
</a>
</g>
</g>
<!-- Node0&#45;&gt;Node4 -->
<g id="edge4" class="edge">
<title>Node0&#45;&gt;Node4</title>
<path fill="none" stroke="#191970" d="M42.2764,-39.2782C56.8401,-34.3206 76.5368,-27.6156 93.5526,-21.8232"/>
<polygon fill="#191970" stroke="#191970" points="94.8638,-25.0742 103.2024,-18.5383 92.608,-18.4476 94.8638,-25.0742"/>
</g>
<!-- Node3 -->
<g id="node4" class="node">
<title>Node3</title>
<g id="a_node4"><a xlink:href="list__iterator_8c.html#af4136a8a27bdc8c0f967a708dd03d575" target="_top" xlink:title="Creates a new iterator by using the node to start at. ">
<polygon fill="none" stroke="#000000" points="217.3838,-37.5 217.3838,-55.5 359.5654,-55.5 359.5654,-37.5 217.3838,-37.5"/>
<text text-anchor="middle" x="288.4746" y="-43.5" font-family="Helvetica,sans-Serif" font-size="10.00" fill="#000000">list_iterator_new_from_node</text>
</a>
</g>
</g>
<!-- Node2&#45;&gt;Node3 -->
<g id="edge3" class="edge">
<title>Node2&#45;&gt;Node3</title>
<path fill="none" stroke="#191970" d="M174.3885,-46.5C184.5676,-46.5 195.6962,-46.5 206.8839,-46.5"/>
<polygon fill="#191970" stroke="#191970" points="207.1494,-50.0001 217.1494,-46.5 207.1494,-43.0001 207.1494,-50.0001"/>
</g>
</g>
</svg>
