<?xml version="1.0" encoding="UTF-8" standalone="no"?>
<!DOCTYPE svg PUBLIC "-//W3C//DTD SVG 1.1//EN"
 "http://www.w3.org/Graphics/SVG/1.1/DTD/svg11.dtd">
<!-- Generated by graphviz version 2.40.1 (20161225.0304)
 -->
<!-- Title: list_rpush Pages: 1 -->
<svg width="310pt" height="27pt"
 viewBox="0.00 0.00 309.76 27.00" xmlns="http://www.w3.org/2000/svg" xmlns:xlink="http://www.w3.org/1999/xlink">
<g id="graph0" class="graph" transform="scale(1 1) rotate(0) translate(4 23)">
<title>list_rpush</title>
<!-- Node28 -->
<g id="node1" class="node">
<title>Node28</title>
<polygon fill="#bfbfbf" stroke="#000000" points="0,-.5 0,-18.5 58.7979,-18.5 58.7979,-.5 0,-.5"/>
<text text-anchor="middle" x="29.3989" y="-6.5" font-family="Helvetica,sans-Serif" font-size="10.00" fill="#000000">list_rpush</text>
</g>
<!-- Node29 -->
<g id="node2" class="node">
<title>Node29</title>
<g id="a_node2"><a xlink:href="routines_8c.html#a9486ebd51b8c3d966619cf4617e6a930" target="_top" xlink:title="Registers a routine for the system to use. ">
<polygon fill="none" stroke="#000000" points="94.7979,-.5 94.7979,-18.5 180.2803,-18.5 180.2803,-.5 94.7979,-.5"/>
<text text-anchor="middle" x="137.5391" y="-6.5" font-family="Helvetica,sans-Serif" font-size="10.00" fill="#000000">register_routine</text>
</a>
</g>
</g>
<!-- Node28&#45;&gt;Node29 -->
<g id="edge1" class="edge">
<title>Node28&#45;&gt;Node29</title>
<path fill="none" stroke="#191970" d="M69.1409,-9.5C77.4438,-9.5 86.2325,-9.5 94.6439,-9.5"/>
<polygon fill="#191970" stroke="#191970" points="68.9487,-6.0001 58.9487,-9.5 68.9487,-13.0001 68.9487,-6.0001"/>
</g>
<!-- Node30 -->
<g id="node3" class="node">
<title>Node30</title>
<g id="a_node3"><a xlink:href="opcontrol_8c.html#ac71a94af413917f27d108e95c4d6f6a7" target="_top" xlink:title="Runs the user operator control code. ">
<polygon fill="none" stroke="#000000" points="216.2803,-.5 216.2803,-18.5 301.7627,-18.5 301.7627,-.5 216.2803,-.5"/>
<text text-anchor="middle" x="259.0215" y="-6.5" font-family="Helvetica,sans-Serif" font-size="10.00" fill="#000000">operatorControl</text>
</a>
</g>
</g>
<!-- Node29&#45;&gt;Node30 -->
<g id="edge2" class="edge">
<title>Node29&#45;&gt;Node30</title>
<path fill="none" stroke="#191970" d="M190.634,-9.5C199.1705,-9.5 207.9116,-9.5 216.1686,-9.5"/>
<polygon fill="#191970" stroke="#191970" points="190.3693,-6.0001 180.3692,-9.5 190.3692,-13.0001 190.3693,-6.0001"/>
</g>
</g>
</svg>
