<?xml version="1.0" encoding="UTF-8" standalone="no"?>
<!DOCTYPE svg PUBLIC "-//W3C//DTD SVG 1.1//EN"
 "http://www.w3.org/Graphics/SVG/1.1/DTD/svg11.dtd">
<!-- Generated by graphviz version 2.40.1 (20161225.0304)
 -->
<!-- Title: update_position Pages: 1 -->
<svg width="336pt" height="27pt"
 viewBox="0.00 0.00 335.92 27.00" xmlns="http://www.w3.org/2000/svg" xmlns:xlink="http://www.w3.org/1999/xlink">
<g id="graph0" class="graph" transform="scale(1 1) rotate(0) translate(4 23)">
<title>update_position</title>
<!-- Node32 -->
<g id="node1" class="node">
<title>Node32</title>
<polygon fill="#bfbfbf" stroke="#000000" points="0,-.5 0,-18.5 86.6152,-18.5 86.6152,-.5 0,-.5"/>
<text text-anchor="middle" x="43.3076" y="-6.5" font-family="Helvetica,sans-Serif" font-size="10.00" fill="#000000">update_position</text>
</g>
<!-- Node33 -->
<g id="node2" class="node">
<title>Node33</title>
<g id="a_node2"><a xlink:href="localization_8c.html#afdd0147de6aa15957e9a125f9cd20578" target="_top" xlink:title="Starts the localization process. ">
<polygon fill="none" stroke="#000000" points="122.6152,-.5 122.6152,-18.5 206.4326,-18.5 206.4326,-.5 122.6152,-.5"/>
<text text-anchor="middle" x="164.5239" y="-6.5" font-family="Helvetica,sans-Serif" font-size="10.00" fill="#000000">init_localization</text>
</a>
</g>
</g>
<!-- Node32&#45;&gt;Node33 -->
<g id="edge1" class="edge">
<title>Node32&#45;&gt;Node33</title>
<path fill="none" stroke="#191970" d="M96.9241,-9.5C105.3961,-9.5 114.0528,-9.5 122.2201,-9.5"/>
<polygon fill="#191970" stroke="#191970" points="96.7271,-6.0001 86.7271,-9.5 96.7271,-13.0001 96.7271,-6.0001"/>
</g>
<!-- Node34 -->
<g id="node3" class="node">
<title>Node34</title>
<g id="a_node3"><a xlink:href="opcontrol_8c.html#ac71a94af413917f27d108e95c4d6f6a7" target="_top" xlink:title="operatorControl">
<polygon fill="none" stroke="#000000" points="242.4326,-.5 242.4326,-18.5 327.915,-18.5 327.915,-.5 242.4326,-.5"/>
<text text-anchor="middle" x="285.1738" y="-6.5" font-family="Helvetica,sans-Serif" font-size="10.00" fill="#000000">operatorControl</text>
</a>
</g>
</g>
<!-- Node33&#45;&gt;Node34 -->
<g id="edge2" class="edge">
<title>Node33&#45;&gt;Node34</title>
<path fill="none" stroke="#191970" d="M216.9378,-9.5C225.4382,-9.5 234.1518,-9.5 242.3878,-9.5"/>
<polygon fill="#191970" stroke="#191970" points="216.7214,-6.0001 206.7214,-9.5 216.7214,-13.0001 216.7214,-6.0001"/>
</g>
</g>
</svg>
