<?xml version="1.0" encoding="UTF-8" standalone="no"?>
<!DOCTYPE svg PUBLIC "-//W3C//DTD SVG 1.1//EN"
 "http://www.w3.org/Graphics/SVG/1.1/DTD/svg11.dtd">
<!-- Generated by graphviz version 2.40.1 (20161225.0304)
 -->
<!-- Title: src/localization.c Pages: 1 -->
<svg width="325pt" height="192pt"
 viewBox="0.00 0.00 325.14 192.00" xmlns="http://www.w3.org/2000/svg" xmlns:xlink="http://www.w3.org/1999/xlink">
<g id="graph0" class="graph" transform="scale(1 1) rotate(0) translate(4 188)">
<title>src/localization.c</title>
<!-- Node0 -->
<g id="node1" class="node">
<title>Node0</title>
<polygon fill="#bfbfbf" stroke="#000000" points="170.0591,-165.5 170.0591,-183.5 259.4185,-183.5 259.4185,-165.5 170.0591,-165.5"/>
<text text-anchor="middle" x="214.7388" y="-171.5" font-family="Helvetica,sans-Serif" font-size="10.00" fill="#000000">src/localization.c</text>
</g>
<!-- Node1 -->
<g id="node2" class="node">
<title>Node1</title>
<g id="a_node2"><a xlink:href="localization_8h.html" target="_top" xlink:title="Declarations and macros for determining the location of the robot. [WIP]. ">
<polygon fill="none" stroke="#000000" points="96.8325,-110.5 96.8325,-128.5 170.645,-128.5 170.645,-110.5 96.8325,-110.5"/>
<text text-anchor="middle" x="133.7388" y="-116.5" font-family="Helvetica,sans-Serif" font-size="10.00" fill="#000000">localization.h</text>
</a>
</g>
</g>
<!-- Node0&#45;&gt;Node1 -->
<g id="edge1" class="edge">
<title>Node0&#45;&gt;Node1</title>
<path fill="none" stroke="#191970" d="M201.3633,-165.4179C188.9348,-156.9788 170.199,-144.257 155.5978,-134.3426"/>
<polygon fill="#191970" stroke="#191970" points="157.3734,-131.3176 147.1341,-128.5956 153.4411,-137.1088 157.3734,-131.3176"/>
</g>
<!-- Node6 -->
<g id="node7" class="node">
<title>Node6</title>
<g id="a_node7"><a xlink:href="vmath_8h.html" target="_top" xlink:title="Vex Specific Math Functions, includes: Cartesian to polar cordinates. ">
<polygon fill="none" stroke="#000000" points="188.9531,-110.5 188.9531,-128.5 240.5244,-128.5 240.5244,-110.5 188.9531,-110.5"/>
<text text-anchor="middle" x="214.7388" y="-116.5" font-family="Helvetica,sans-Serif" font-size="10.00" fill="#000000">vmath.h</text>
</a>
</g>
</g>
<!-- Node0&#45;&gt;Node6 -->
<g id="edge7" class="edge">
<title>Node0&#45;&gt;Node6</title>
<path fill="none" stroke="#191970" d="M214.7388,-165.4179C214.7388,-158.2164 214.7388,-147.8962 214.7388,-138.8632"/>
<polygon fill="#191970" stroke="#191970" points="218.2389,-138.7794 214.7388,-128.7795 211.2389,-138.7795 218.2389,-138.7794"/>
</g>
<!-- Node7 -->
<g id="node8" class="node">
<title>Node7</title>
<polygon fill="none" stroke="#bfbfbf" points="258.3374,-110.5 258.3374,-128.5 317.1401,-128.5 317.1401,-110.5 258.3374,-110.5"/>
<text text-anchor="middle" x="287.7388" y="-116.5" font-family="Helvetica,sans-Serif" font-size="10.00" fill="#000000">inttypes.h</text>
</g>
<!-- Node0&#45;&gt;Node7 -->
<g id="edge9" class="edge">
<title>Node0&#45;&gt;Node7</title>
<path fill="none" stroke="#191970" d="M226.7932,-165.4179C237.8221,-157.1084 254.362,-144.6469 267.4294,-134.8015"/>
<polygon fill="#191970" stroke="#191970" points="269.5417,-137.5924 275.4224,-128.7795 265.3294,-132.0016 269.5417,-137.5924"/>
</g>
<!-- Node2 -->
<g id="node3" class="node">
<title>Node2</title>
<g id="a_node3"><a xlink:href="encoders_8h.html" target="_top" xlink:title="wrapper around encoder functions ">
<polygon fill="none" stroke="#000000" points="0,-55.5 0,-73.5 65.4775,-73.5 65.4775,-55.5 0,-55.5"/>
<text text-anchor="middle" x="32.7388" y="-61.5" font-family="Helvetica,sans-Serif" font-size="10.00" fill="#000000">encoders.h</text>
</a>
</g>
</g>
<!-- Node1&#45;&gt;Node2 -->
<g id="edge2" class="edge">
<title>Node1&#45;&gt;Node2</title>
<path fill="none" stroke="#191970" d="M117.0607,-110.4179C101.1248,-101.7399 76.8729,-88.5334 58.462,-78.5077"/>
<polygon fill="#191970" stroke="#191970" points="59.8978,-75.3043 49.4416,-73.5956 56.5501,-81.4519 59.8978,-75.3043"/>
</g>
<!-- Node3 -->
<g id="node4" class="node">
<title>Node3</title>
<polygon fill="none" stroke="#bfbfbf" points="42.5098,-.5 42.5098,-18.5 82.9678,-18.5 82.9678,-.5 42.5098,-.5"/>
<text text-anchor="middle" x="62.7388" y="-6.5" font-family="Helvetica,sans-Serif" font-size="10.00" fill="#000000">API.h</text>
</g>
<!-- Node1&#45;&gt;Node3 -->
<g id="edge5" class="edge">
<title>Node1&#45;&gt;Node3</title>
<path fill="none" stroke="#191970" d="M127.9285,-110.4982C116.175,-92.2885 89.3948,-50.798 74.0663,-27.0496"/>
<polygon fill="#191970" stroke="#191970" points="76.993,-25.1299 68.6293,-18.6261 71.1117,-28.9261 76.993,-25.1299"/>
</g>
<!-- Node4 -->
<g id="node5" class="node">
<title>Node4</title>
<g id="a_node5"><a xlink:href="matrix_8h.html" target="_top" xlink:title="Various Matrix operations.None of the matrix operations below change the input matrices if an input i...">
<polygon fill="none" stroke="#000000" points="121.958,-55.5 121.958,-73.5 173.5195,-73.5 173.5195,-55.5 121.958,-55.5"/>
<text text-anchor="middle" x="147.7388" y="-61.5" font-family="Helvetica,sans-Serif" font-size="10.00" fill="#000000">matrix.h</text>
</a>
</g>
</g>
<!-- Node1&#45;&gt;Node4 -->
<g id="edge4" class="edge">
<title>Node1&#45;&gt;Node4</title>
<path fill="none" stroke="#191970" d="M136.0506,-110.4179C137.9038,-103.1372 140.5685,-92.669 142.8856,-83.5659"/>
<polygon fill="#191970" stroke="#191970" points="146.3017,-84.3338 145.3767,-73.7795 139.518,-82.607 146.3017,-84.3338"/>
</g>
<!-- Node5 -->
<g id="node6" class="node">
<title>Node5</title>
<polygon fill="none" stroke="#bfbfbf" points="191.4531,-55.5 191.4531,-73.5 238.0244,-73.5 238.0244,-55.5 191.4531,-55.5"/>
<text text-anchor="middle" x="214.7388" y="-61.5" font-family="Helvetica,sans-Serif" font-size="10.00" fill="#000000">math.h</text>
</g>
<!-- Node1&#45;&gt;Node5 -->
<g id="edge6" class="edge">
<title>Node1&#45;&gt;Node5</title>
<path fill="none" stroke="#191970" d="M147.1143,-110.4179C159.5428,-101.9788 178.2785,-89.257 192.8797,-79.3426"/>
<polygon fill="#191970" stroke="#191970" points="195.0365,-82.1088 201.3434,-73.5956 191.1042,-76.3176 195.0365,-82.1088"/>
</g>
<!-- Node2&#45;&gt;Node3 -->
<g id="edge3" class="edge">
<title>Node2&#45;&gt;Node3</title>
<path fill="none" stroke="#191970" d="M37.6927,-55.4179C41.7934,-47.8998 47.7481,-36.9829 52.8225,-27.6799"/>
<polygon fill="#191970" stroke="#191970" points="55.9613,-29.2344 57.6772,-18.7795 49.816,-25.8824 55.9613,-29.2344"/>
</g>
<!-- Node6&#45;&gt;Node5 -->
<g id="edge8" class="edge">
<title>Node6&#45;&gt;Node5</title>
<path fill="none" stroke="#191970" d="M214.7388,-110.4179C214.7388,-103.2164 214.7388,-92.8962 214.7388,-83.8632"/>
<polygon fill="#191970" stroke="#191970" points="218.2389,-83.7794 214.7388,-73.7795 211.2389,-83.7795 218.2389,-83.7794"/>
</g>
</g>
</svg>
