<?xml version="1.0" encoding="UTF-8" standalone="no"?>
<!DOCTYPE svg PUBLIC "-//W3C//DTD SVG 1.1//EN"
 "http://www.w3.org/Graphics/SVG/1.1/DTD/svg11.dtd">
<!-- Generated by graphviz version 2.40.1 (20161225.0304)
 -->
<!-- Title: src/localization.c Pages: 1 -->
<svg width="226pt" height="192pt"
 viewBox="0.00 0.00 226.01 192.00" xmlns="http://www.w3.org/2000/svg" xmlns:xlink="http://www.w3.org/1999/xlink">
<g id="graph0" class="graph" transform="scale(1 1) rotate(0) translate(4 188)">
<title>src/localization.c</title>
<!-- Node0 -->
<g id="node1" class="node">
<title>Node0</title>
<polygon fill="#bfbfbf" stroke="#000000" points="85.5493,-165.5 85.5493,-183.5 174.9087,-183.5 174.9087,-165.5 85.5493,-165.5"/>
<text text-anchor="middle" x="130.229" y="-171.5" font-family="Helvetica,sans-Serif" font-size="10.00" fill="#000000">src/localization.c</text>
</g>
<!-- Node1 -->
<g id="node2" class="node">
<title>Node1</title>
<g id="a_node2"><a xlink:href="localization_8h.html" target="_top" xlink:title="Declarations and macros for determining the location of the robot. [WIP]. ">
<polygon fill="none" stroke="#000000" points="51.3228,-110.5 51.3228,-128.5 125.1353,-128.5 125.1353,-110.5 51.3228,-110.5"/>
<text text-anchor="middle" x="88.229" y="-116.5" font-family="Helvetica,sans-Serif" font-size="10.00" fill="#000000">localization.h</text>
</a>
</g>
</g>
<!-- Node0&#45;&gt;Node1 -->
<g id="edge1" class="edge">
<title>Node0&#45;&gt;Node1</title>
<path fill="none" stroke="#191970" d="M123.2936,-165.4179C117.3712,-157.6624 108.6868,-146.29 101.4426,-136.8035"/>
<polygon fill="#191970" stroke="#191970" points="104.166,-134.6029 95.3151,-128.7795 98.6026,-138.8514 104.166,-134.6029"/>
</g>
<!-- Node6 -->
<g id="node7" class="node">
<title>Node6</title>
<polygon fill="none" stroke="#bfbfbf" points="142.8276,-110.5 142.8276,-128.5 201.6304,-128.5 201.6304,-110.5 142.8276,-110.5"/>
<text text-anchor="middle" x="172.229" y="-116.5" font-family="Helvetica,sans-Serif" font-size="10.00" fill="#000000">inttypes.h</text>
</g>
<!-- Node0&#45;&gt;Node6 -->
<g id="edge7" class="edge">
<title>Node0&#45;&gt;Node6</title>
<path fill="none" stroke="#191970" d="M137.1644,-165.4179C143.0868,-157.6624 151.7712,-146.29 159.0154,-136.8035"/>
<polygon fill="#191970" stroke="#191970" points="161.8554,-138.8514 165.1429,-128.7795 156.292,-134.6029 161.8554,-138.8514"/>
</g>
<!-- Node2 -->
<g id="node3" class="node">
<title>Node2</title>
<polygon fill="none" stroke="#bfbfbf" points="0,-.5 0,-18.5 40.458,-18.5 40.458,-.5 0,-.5"/>
<text text-anchor="middle" x="20.229" y="-6.5" font-family="Helvetica,sans-Serif" font-size="10.00" fill="#000000">API.h</text>
</g>
<!-- Node1&#45;&gt;Node2 -->
<g id="edge2" class="edge">
<title>Node1&#45;&gt;Node2</title>
<path fill="none" stroke="#191970" d="M57.5392,-110.389C40.0488,-103.4444 19.6054,-91.9507 9.229,-74 1.1652,-60.0501 5.4144,-41.7572 10.8074,-28.2167"/>
<polygon fill="#191970" stroke="#191970" points="14.0696,-29.4958 14.9695,-18.9392 7.6829,-26.6305 14.0696,-29.4958"/>
</g>
<!-- Node3 -->
<g id="node4" class="node">
<title>Node3</title>
<g id="a_node4"><a xlink:href="encoders_8h.html" target="_top" xlink:title="wrapper around encoder functions ">
<polygon fill="none" stroke="#000000" points="18.4902,-55.5 18.4902,-73.5 83.9678,-73.5 83.9678,-55.5 18.4902,-55.5"/>
<text text-anchor="middle" x="51.229" y="-61.5" font-family="Helvetica,sans-Serif" font-size="10.00" fill="#000000">encoders.h</text>
</a>
</g>
</g>
<!-- Node1&#45;&gt;Node3 -->
<g id="edge3" class="edge">
<title>Node1&#45;&gt;Node3</title>
<path fill="none" stroke="#191970" d="M82.1192,-110.4179C76.9551,-102.7415 69.4072,-91.5217 63.0653,-82.0945"/>
<polygon fill="#191970" stroke="#191970" points="65.9574,-80.1231 57.4715,-73.7795 60.1493,-84.0303 65.9574,-80.1231"/>
</g>
<!-- Node4 -->
<g id="node5" class="node">
<title>Node4</title>
<polygon fill="none" stroke="#bfbfbf" points="101.9434,-55.5 101.9434,-73.5 148.5146,-73.5 148.5146,-55.5 101.9434,-55.5"/>
<text text-anchor="middle" x="125.229" y="-61.5" font-family="Helvetica,sans-Serif" font-size="10.00" fill="#000000">math.h</text>
</g>
<!-- Node1&#45;&gt;Node4 -->
<g id="edge5" class="edge">
<title>Node1&#45;&gt;Node4</title>
<path fill="none" stroke="#191970" d="M94.3388,-110.4179C99.5029,-102.7415 107.0508,-91.5217 113.3927,-82.0945"/>
<polygon fill="#191970" stroke="#191970" points="116.3087,-84.0303 118.9865,-73.7795 110.5006,-80.1231 116.3087,-84.0303"/>
</g>
<!-- Node5 -->
<g id="node6" class="node">
<title>Node5</title>
<g id="a_node6"><a xlink:href="matrix_8h.html" target="_top" xlink:title="Various Matrix operations.None of the matrix operations below change the input matrices if an input i...">
<polygon fill="none" stroke="#000000" points="166.4482,-55.5 166.4482,-73.5 218.0098,-73.5 218.0098,-55.5 166.4482,-55.5"/>
<text text-anchor="middle" x="192.229" y="-61.5" font-family="Helvetica,sans-Serif" font-size="10.00" fill="#000000">matrix.h</text>
</a>
</g>
</g>
<!-- Node1&#45;&gt;Node5 -->
<g id="edge6" class="edge">
<title>Node1&#45;&gt;Node5</title>
<path fill="none" stroke="#191970" d="M105.4025,-110.4179C121.887,-101.7001 147.0132,-88.4122 166.0023,-78.3699"/>
<polygon fill="#191970" stroke="#191970" points="167.8263,-81.3646 175.03,-73.5956 164.5538,-75.1767 167.8263,-81.3646"/>
</g>
<!-- Node3&#45;&gt;Node2 -->
<g id="edge4" class="edge">
<title>Node3&#45;&gt;Node2</title>
<path fill="none" stroke="#191970" d="M46.11,-55.4179C41.8725,-47.8998 35.7194,-36.9829 30.4758,-27.6799"/>
<polygon fill="#191970" stroke="#191970" points="33.4185,-25.7724 25.4592,-18.7795 27.3204,-29.2096 33.4185,-25.7724"/>
</g>
</g>
</svg>
