<?xml version="1.0" encoding="UTF-8" standalone="no"?>
<!DOCTYPE svg PUBLIC "-//W3C//DTD SVG 1.1//EN"
 "http://www.w3.org/Graphics/SVG/1.1/DTD/svg11.dtd">
<!-- Generated by graphviz version 2.40.1 (20161225.0304)
 -->
<!-- Title: include/localization.h Pages: 1 -->
<svg width="246pt" height="137pt"
 viewBox="0.00 0.00 246.02 137.00" xmlns="http://www.w3.org/2000/svg" xmlns:xlink="http://www.w3.org/1999/xlink">
<g id="graph0" class="graph" transform="scale(1 1) rotate(0) translate(4 133)">
<title>include/localization.h</title>
<!-- Node0 -->
<g id="node1" class="node">
<title>Node0</title>
<polygon fill="#bfbfbf" stroke="#000000" points="66.5986,-110.5 66.5986,-128.5 174.8789,-128.5 174.8789,-110.5 66.5986,-110.5"/>
<text text-anchor="middle" x="120.7388" y="-116.5" font-family="Helvetica,sans-Serif" font-size="10.00" fill="#000000">include/localization.h</text>
</g>
<!-- Node1 -->
<g id="node2" class="node">
<title>Node1</title>
<g id="a_node2"><a xlink:href="encoders_8h.html" target="_top" xlink:title="wrapper around encoder functions ">
<polygon fill="none" stroke="#000000" points="0,-55.5 0,-73.5 65.4775,-73.5 65.4775,-55.5 0,-55.5"/>
<text text-anchor="middle" x="32.7388" y="-61.5" font-family="Helvetica,sans-Serif" font-size="10.00" fill="#000000">encoders.h</text>
</a>
</g>
</g>
<!-- Node0&#45;&gt;Node1 -->
<g id="edge1" class="edge">
<title>Node0&#45;&gt;Node1</title>
<path fill="none" stroke="#191970" d="M106.2074,-110.4179C92.5774,-101.8992 71.9653,-89.0166 56.0391,-79.0627"/>
<polygon fill="#191970" stroke="#191970" points="57.6268,-75.9277 47.2918,-73.5956 53.9168,-81.8637 57.6268,-75.9277"/>
</g>
<!-- Node2 -->
<g id="node3" class="node">
<title>Node2</title>
<polygon fill="none" stroke="#bfbfbf" points="42.5098,-.5 42.5098,-18.5 82.9678,-18.5 82.9678,-.5 42.5098,-.5"/>
<text text-anchor="middle" x="62.7388" y="-6.5" font-family="Helvetica,sans-Serif" font-size="10.00" fill="#000000">API.h</text>
</g>
<!-- Node0&#45;&gt;Node2 -->
<g id="edge4" class="edge">
<title>Node0&#45;&gt;Node2</title>
<path fill="none" stroke="#191970" d="M115.9924,-110.4982C106.4758,-92.4496 84.9003,-51.5306 72.3268,-27.6843"/>
<polygon fill="#191970" stroke="#191970" points="75.3109,-25.8394 67.5507,-18.6261 69.1189,-29.1043 75.3109,-25.8394"/>
</g>
<!-- Node3 -->
<g id="node4" class="node">
<title>Node3</title>
<g id="a_node4"><a xlink:href="matrix_8h.html" target="_top" xlink:title="Various Matrix operations.None of the matrix operations below change the input matrices if an input i...">
<polygon fill="none" stroke="#000000" points="121.958,-55.5 121.958,-73.5 173.5195,-73.5 173.5195,-55.5 121.958,-55.5"/>
<text text-anchor="middle" x="147.7388" y="-61.5" font-family="Helvetica,sans-Serif" font-size="10.00" fill="#000000">matrix.h</text>
</a>
</g>
</g>
<!-- Node0&#45;&gt;Node3 -->
<g id="edge3" class="edge">
<title>Node0&#45;&gt;Node3</title>
<path fill="none" stroke="#191970" d="M125.1973,-110.4179C128.8491,-102.9789 134.1345,-92.2123 138.6696,-82.9742"/>
<polygon fill="#191970" stroke="#191970" points="141.9185,-84.2985 143.1834,-73.7795 135.6348,-81.2138 141.9185,-84.2985"/>
</g>
<!-- Node4 -->
<g id="node5" class="node">
<title>Node4</title>
<polygon fill="none" stroke="#bfbfbf" points="191.4531,-55.5 191.4531,-73.5 238.0244,-73.5 238.0244,-55.5 191.4531,-55.5"/>
<text text-anchor="middle" x="214.7388" y="-61.5" font-family="Helvetica,sans-Serif" font-size="10.00" fill="#000000">math.h</text>
</g>
<!-- Node0&#45;&gt;Node4 -->
<g id="edge5" class="edge">
<title>Node0&#45;&gt;Node4</title>
<path fill="none" stroke="#191970" d="M136.261,-110.4179C150.9563,-101.8195 173.2499,-88.7754 190.3254,-78.7844"/>
<polygon fill="#191970" stroke="#191970" points="192.3299,-81.6667 199.1935,-73.5956 188.7948,-75.6249 192.3299,-81.6667"/>
</g>
<!-- Node1&#45;&gt;Node2 -->
<g id="edge2" class="edge">
<title>Node1&#45;&gt;Node2</title>
<path fill="none" stroke="#191970" d="M37.6927,-55.4179C41.7934,-47.8998 47.7481,-36.9829 52.8225,-27.6799"/>
<polygon fill="#191970" stroke="#191970" points="55.9613,-29.2344 57.6772,-18.7795 49.816,-25.8824 55.9613,-29.2344"/>
</g>
</g>
</svg>
