<?xml version="1.0" encoding="UTF-8" standalone="no"?>
<!DOCTYPE svg PUBLIC "-//W3C//DTD SVG 1.1//EN"
 "http://www.w3.org/Graphics/SVG/1.1/DTD/svg11.dtd">
<!-- Generated by graphviz version 2.40.1 (20161225.0304)
 -->
<!-- Title: include/localization.h Pages: 1 -->
<svg width="293pt" height="137pt"
 viewBox="0.00 0.00 292.65 137.00" xmlns="http://www.w3.org/2000/svg" xmlns:xlink="http://www.w3.org/1999/xlink">
<g id="graph0" class="graph" transform="scale(1 1) rotate(0) translate(4 133)">
<title>include/localization.h</title>
<!-- Node5 -->
<g id="node1" class="node">
<title>Node5</title>
<polygon fill="#bfbfbf" stroke="#000000" points="86.9951,-110.5 86.9951,-128.5 195.2754,-128.5 195.2754,-110.5 86.9951,-110.5"/>
<text text-anchor="middle" x="141.1353" y="-116.5" font-family="Helvetica,sans-Serif" font-size="10.00" fill="#000000">include/localization.h</text>
</g>
<!-- Node6 -->
<g id="node2" class="node">
<title>Node6</title>
<g id="a_node2"><a xlink:href="auto_8h.html" target="_top" xlink:title="Autonomous declarations and macros. ">
<polygon fill="none" stroke="#000000" points="0,-55.5 0,-73.5 78.2705,-73.5 78.2705,-55.5 0,-55.5"/>
<text text-anchor="middle" x="39.1353" y="-61.5" font-family="Helvetica,sans-Serif" font-size="10.00" fill="#000000">include/auto.h</text>
</a>
</g>
</g>
<!-- Node5&#45;&gt;Node6 -->
<g id="edge1" class="edge">
<title>Node5&#45;&gt;Node6</title>
<path fill="none" stroke="#191970" d="M115.4417,-105.6456C96.824,-95.6067 72.1797,-82.3181 56.0035,-73.5956"/>
<polygon fill="#191970" stroke="#191970" points="113.8289,-108.7524 124.292,-110.4179 117.1512,-102.591 113.8289,-108.7524"/>
</g>
<!-- Node8 -->
<g id="node4" class="node">
<title>Node8</title>
<g id="a_node4"><a xlink:href="localization_8c.html" target="_top" xlink:title="src/localization.c">
<polygon fill="none" stroke="#000000" points="96.4556,-55.5 96.4556,-73.5 185.8149,-73.5 185.8149,-55.5 96.4556,-55.5"/>
<text text-anchor="middle" x="141.1353" y="-61.5" font-family="Helvetica,sans-Serif" font-size="10.00" fill="#000000">src/localization.c</text>
</a>
</g>
</g>
<!-- Node5&#45;&gt;Node8 -->
<g id="edge3" class="edge">
<title>Node5&#45;&gt;Node8</title>
<path fill="none" stroke="#191970" d="M141.1353,-100.383C141.1353,-91.3738 141.1353,-81.0373 141.1353,-73.7795"/>
<polygon fill="#191970" stroke="#191970" points="137.6354,-100.4178 141.1353,-110.4179 144.6354,-100.4179 137.6354,-100.4178"/>
</g>
<!-- Node9 -->
<g id="node5" class="node">
<title>Node9</title>
<g id="a_node5"><a xlink:href="opcontrol_8c.html" target="_top" xlink:title="File for operator control code. ">
<polygon fill="none" stroke="#000000" points="203.623,-55.5 203.623,-73.5 284.6475,-73.5 284.6475,-55.5 203.623,-55.5"/>
<text text-anchor="middle" x="244.1353" y="-61.5" font-family="Helvetica,sans-Serif" font-size="10.00" fill="#000000">src/opcontrol.c</text>
</a>
</g>
</g>
<!-- Node5&#45;&gt;Node9 -->
<g id="edge4" class="edge">
<title>Node5&#45;&gt;Node9</title>
<path fill="none" stroke="#191970" d="M167.0807,-105.6456C185.8809,-95.6067 210.7668,-82.3181 227.1016,-73.5956"/>
<polygon fill="#191970" stroke="#191970" points="165.3161,-102.6201 158.1436,-110.4179 168.6134,-108.7949 165.3161,-102.6201"/>
</g>
<!-- Node7 -->
<g id="node3" class="node">
<title>Node7</title>
<g id="a_node3"><a xlink:href="auto_8c.html" target="_top" xlink:title="File for autonomous code. ">
<polygon fill="none" stroke="#000000" points="9.4604,-.5 9.4604,-18.5 68.8101,-18.5 68.8101,-.5 9.4604,-.5"/>
<text text-anchor="middle" x="39.1353" y="-6.5" font-family="Helvetica,sans-Serif" font-size="10.00" fill="#000000">src/auto.c</text>
</a>
</g>
</g>
<!-- Node6&#45;&gt;Node7 -->
<g id="edge2" class="edge">
<title>Node6&#45;&gt;Node7</title>
<path fill="none" stroke="#191970" d="M39.1353,-45.383C39.1353,-36.3738 39.1353,-26.0373 39.1353,-18.7795"/>
<polygon fill="#191970" stroke="#191970" points="35.6354,-45.4178 39.1353,-55.4179 42.6354,-45.4179 35.6354,-45.4178"/>
</g>
</g>
</svg>
