<?xml version="1.0" encoding="UTF-8" standalone="no"?>
<!DOCTYPE svg PUBLIC "-//W3C//DTD SVG 1.1//EN"
 "http://www.w3.org/Graphics/SVG/1.1/DTD/svg11.dtd">
<!-- Generated by graphviz version 2.40.1 (20161225.0304)
 -->
<!-- Title: calculate_accelerometer_odemetry Pages: 1 -->
<svg width="375pt" height="37pt"
 viewBox="0.00 0.00 374.82 37.00" xmlns="http://www.w3.org/2000/svg" xmlns:xlink="http://www.w3.org/1999/xlink">
<g id="graph0" class="graph" transform="scale(1 1) rotate(0) translate(4 33)">
<title>calculate_accelerometer_odemetry</title>
<!-- Node4 -->
<g id="node1" class="node">
<title>Node4</title>
<polygon fill="#bfbfbf" stroke="#000000" points="0,-.5 0,-28.5 124.3887,-28.5 124.3887,-.5 0,-.5"/>
<text text-anchor="start" x="8" y="-16.5" font-family="Helvetica,sans-Serif" font-size="10.00" fill="#000000">calculate_accelerometer</text>
<text text-anchor="middle" x="62.1943" y="-6.5" font-family="Helvetica,sans-Serif" font-size="10.00" fill="#000000">_odemetry</text>
</g>
<!-- Node5 -->
<g id="node2" class="node">
<title>Node5</title>
<g id="a_node2"><a xlink:href="localization_8c.html#afacd5e0b3d5e677df26a4402bbd9ec9e" target="_top" xlink:title="update_position">
<polygon fill="none" stroke="#000000" points="160.3887,-5.5 160.3887,-23.5 247.0039,-23.5 247.0039,-5.5 160.3887,-5.5"/>
<text text-anchor="middle" x="203.6963" y="-11.5" font-family="Helvetica,sans-Serif" font-size="10.00" fill="#000000">update_position</text>
</a>
</g>
</g>
<!-- Node4&#45;&gt;Node5 -->
<g id="edge1" class="edge">
<title>Node4&#45;&gt;Node5</title>
<path fill="none" stroke="#191970" d="M134.8359,-14.5C143.5067,-14.5 152.1395,-14.5 160.2131,-14.5"/>
<polygon fill="#191970" stroke="#191970" points="134.6711,-11.0001 124.6711,-14.5 134.671,-18.0001 134.6711,-11.0001"/>
</g>
<!-- Node6 -->
<g id="node3" class="node">
<title>Node6</title>
<g id="a_node3"><a xlink:href="localization_8c.html#afdd0147de6aa15957e9a125f9cd20578" target="_top" xlink:title="Starts the localization process. ">
<polygon fill="none" stroke="#000000" points="283.0039,-5.5 283.0039,-23.5 366.8213,-23.5 366.8213,-5.5 283.0039,-5.5"/>
<text text-anchor="middle" x="324.9126" y="-11.5" font-family="Helvetica,sans-Serif" font-size="10.00" fill="#000000">init_localization</text>
</a>
</g>
</g>
<!-- Node5&#45;&gt;Node6 -->
<g id="edge2" class="edge">
<title>Node5&#45;&gt;Node6</title>
<path fill="none" stroke="#191970" d="M257.3128,-14.5C265.7848,-14.5 274.4415,-14.5 282.6088,-14.5"/>
<polygon fill="#191970" stroke="#191970" points="257.1158,-11.0001 247.1158,-14.5 257.1157,-18.0001 257.1158,-11.0001"/>
</g>
</g>
</svg>
