<?xml version="1.0" encoding="UTF-8" standalone="no"?>
<!DOCTYPE svg PUBLIC "-//W3C//DTD SVG 1.1//EN"
 "http://www.w3.org/Graphics/SVG/1.1/DTD/svg11.dtd">
<!-- Generated by graphviz version 2.40.1 (20161225.0304)
 -->
<!-- Title: calculate_encoder_angle Pages: 1 -->
<svg width="353pt" height="27pt"
 viewBox="0.00 0.00 352.59 27.00" xmlns="http://www.w3.org/2000/svg" xmlns:xlink="http://www.w3.org/1999/xlink">
<g id="graph0" class="graph" transform="scale(1 1) rotate(0) translate(4 23)">
<title>calculate_encoder_angle</title>
<!-- Node9 -->
<g id="node1" class="node">
<title>Node9</title>
<polygon fill="#bfbfbf" stroke="#000000" points="0,-.5 0,-18.5 127.1963,-18.5 127.1963,-.5 0,-.5"/>
<text text-anchor="middle" x="63.5981" y="-6.5" font-family="Helvetica,sans-Serif" font-size="10.00" fill="#000000">calculate_encoder_angle</text>
</g>
<!-- Node10 -->
<g id="node2" class="node">
<title>Node10</title>
<g id="a_node2"><a xlink:href="encoders_8h.html#aed261dd4dae33a48c42f2e363c84760f" target="_top" xlink:title="Gets the encoder ticks since last reset. ">
<polygon fill="none" stroke="#000000" points="163.1963,-.5 163.1963,-18.5 260.3584,-18.5 260.3584,-.5 163.1963,-.5"/>
<text text-anchor="middle" x="211.7773" y="-6.5" font-family="Helvetica,sans-Serif" font-size="10.00" fill="#000000">get_encoder_ticks</text>
</a>
</g>
</g>
<!-- Node9&#45;&gt;Node10 -->
<g id="edge1" class="edge">
<title>Node9&#45;&gt;Node10</title>
<path fill="none" stroke="#191970" d="M127.2994,-9.5C135.7759,-9.5 144.4375,-9.5 152.8284,-9.5"/>
<polygon fill="#191970" stroke="#191970" points="152.8987,-13.0001 162.8986,-9.5 152.8986,-6.0001 152.8987,-13.0001"/>
</g>
<!-- Node11 -->
<g id="node3" class="node">
<title>Node11</title>
<g id="a_node3"><a xlink:href="_a_p_i_8h.html#ac4f1500418a729ac3ee95bce9768b20c" target="_top" xlink:title="Gets the current 32&#45;bit count of the specified IME. ">
<polygon fill="none" stroke="#000000" points="296.3584,-.5 296.3584,-18.5 344.5898,-18.5 344.5898,-.5 296.3584,-.5"/>
<text text-anchor="middle" x="320.4741" y="-6.5" font-family="Helvetica,sans-Serif" font-size="10.00" fill="#000000">imeGet</text>
</a>
</g>
</g>
<!-- Node10&#45;&gt;Node11 -->
<g id="edge2" class="edge">
<title>Node10&#45;&gt;Node11</title>
<path fill="none" stroke="#191970" d="M260.4031,-9.5C269.0498,-9.5 277.8918,-9.5 286.0406,-9.5"/>
<polygon fill="#191970" stroke="#191970" points="286.2791,-13.0001 296.2791,-9.5 286.279,-6.0001 286.2791,-13.0001"/>
</g>
</g>
</svg>
