<?xml version="1.0" encoding="UTF-8" standalone="no"?>
<!DOCTYPE svg PUBLIC "-//W3C//DTD SVG 1.1//EN"
 "http://www.w3.org/Graphics/SVG/1.1/DTD/svg11.dtd">
<!-- Generated by graphviz version 2.40.1 (20161225.0304)
 -->
<!-- Title: update_position Pages: 1 -->
<svg width="421pt" height="102pt"
 viewBox="0.00 0.00 420.96 102.00" xmlns="http://www.w3.org/2000/svg" xmlns:xlink="http://www.w3.org/1999/xlink">
<g id="graph0" class="graph" transform="scale(1 1) rotate(0) translate(4 98)">
<title>update_position</title>
<!-- Node28 -->
<g id="node1" class="node">
<title>Node28</title>
<polygon fill="#bfbfbf" stroke="#000000" points="0,-18.5 0,-36.5 86.6152,-36.5 86.6152,-18.5 0,-18.5"/>
<text text-anchor="middle" x="43.3076" y="-24.5" font-family="Helvetica,sans-Serif" font-size="10.00" fill="#000000">update_position</text>
</g>
<!-- Node29 -->
<g id="node2" class="node">
<title>Node29</title>
<g id="a_node2"><a xlink:href="localization_8c.html#a6785e4b3b61887f28028f05019b9b39d" target="_top" xlink:title="calculate_accelerometer\l_odemetry">
<polygon fill="none" stroke="#000000" points="122.6152,-35.5 122.6152,-63.5 247.0039,-63.5 247.0039,-35.5 122.6152,-35.5"/>
<text text-anchor="start" x="130.6152" y="-51.5" font-family="Helvetica,sans-Serif" font-size="10.00" fill="#000000">calculate_accelerometer</text>
<text text-anchor="middle" x="184.8096" y="-41.5" font-family="Helvetica,sans-Serif" font-size="10.00" fill="#000000">_odemetry</text>
</a>
</g>
</g>
<!-- Node28&#45;&gt;Node29 -->
<g id="edge1" class="edge">
<title>Node28&#45;&gt;Node29</title>
<path fill="none" stroke="#191970" d="M86.9175,-34.2802C94.9719,-35.5325 103.5795,-36.8708 112.2237,-38.2147"/>
<polygon fill="#191970" stroke="#191970" points="111.938,-41.7123 122.357,-39.7902 113.0134,-34.7954 111.938,-41.7123"/>
</g>
<!-- Node31 -->
<g id="node4" class="node">
<title>Node31</title>
<g id="a_node4"><a xlink:href="_a_p_i_8h.html#a6ff7f2532a22366f0013bc41397129fd" target="_top" xlink:title="millis">
<polygon fill="none" stroke="#000000" points="328.8755,-.5 328.8755,-18.5 367.0923,-18.5 367.0923,-.5 328.8755,-.5"/>
<text text-anchor="middle" x="347.9839" y="-6.5" font-family="Helvetica,sans-Serif" font-size="10.00" fill="#000000">millis</text>
</a>
</g>
</g>
<!-- Node28&#45;&gt;Node31 -->
<g id="edge5" class="edge">
<title>Node28&#45;&gt;Node31</title>
<path fill="none" stroke="#191970" d="M86.6367,-24.9402C149.4999,-21.2263 264.3699,-14.4398 318.4028,-11.2476"/>
<polygon fill="#191970" stroke="#191970" points="318.891,-14.725 328.6672,-10.6412 318.4781,-7.7372 318.891,-14.725"/>
</g>
<!-- Node30 -->
<g id="node3" class="node">
<title>Node30</title>
<g id="a_node3"><a xlink:href="_a_p_i_8h.html#a68b2c3e0863b8f4cb022fcdd77d2f5fd" target="_top" xlink:title="analogReadCalibratedHR">
<polygon fill="none" stroke="#000000" points="283.0039,-75.5 283.0039,-93.5 412.9639,-93.5 412.9639,-75.5 283.0039,-75.5"/>
<text text-anchor="middle" x="347.9839" y="-81.5" font-family="Helvetica,sans-Serif" font-size="10.00" fill="#000000">analogReadCalibratedHR</text>
</a>
</g>
</g>
<!-- Node29&#45;&gt;Node30 -->
<g id="edge2" class="edge">
<title>Node29&#45;&gt;Node30</title>
<path fill="none" stroke="#191970" d="M247.4304,-62.9318C263.5025,-66.3792 280.6143,-70.0496 296.0787,-73.3666"/>
<polygon fill="#191970" stroke="#191970" points="295.464,-76.8143 305.9757,-75.4895 296.9322,-69.97 295.464,-76.8143"/>
</g>
<!-- Node29&#45;&gt;Node31 -->
<g id="edge3" class="edge">
<title>Node29&#45;&gt;Node31</title>
<path fill="none" stroke="#191970" d="M242.3387,-35.3975C268.0848,-29.0862 297.341,-21.9144 318.5275,-16.7208"/>
<polygon fill="#191970" stroke="#191970" points="319.6398,-20.0519 328.5189,-14.2716 317.9731,-13.2532 319.6398,-20.0519"/>
</g>
<!-- Node32 -->
<g id="node5" class="node">
<title>Node32</title>
<g id="a_node5"><a xlink:href="_a_p_i_8h.html#a403c82418e475fa4a8273719e6a7f3e6" target="_top" xlink:title="printf">
<polygon fill="none" stroke="#000000" points="328.8682,-38.5 328.8682,-56.5 367.0996,-56.5 367.0996,-38.5 328.8682,-38.5"/>
<text text-anchor="middle" x="347.9839" y="-44.5" font-family="Helvetica,sans-Serif" font-size="10.00" fill="#000000">printf</text>
</a>
</g>
</g>
<!-- Node29&#45;&gt;Node32 -->
<g id="edge4" class="edge">
<title>Node29&#45;&gt;Node32</title>
<path fill="none" stroke="#191970" d="M247.4304,-48.7325C271.8483,-48.4332 298.6657,-48.1045 318.4605,-47.8619"/>
<polygon fill="#191970" stroke="#191970" points="318.7189,-51.3591 328.6752,-47.7367 318.6331,-44.3596 318.7189,-51.3591"/>
</g>
</g>
</svg>
