<?xml version="1.0" encoding="UTF-8" standalone="no"?>
<!DOCTYPE svg PUBLIC "-//W3C//DTD SVG 1.1//EN"
 "http://www.w3.org/Graphics/SVG/1.1/DTD/svg11.dtd">
<!-- Generated by graphviz version 2.40.1 (20161225.0304)
 -->
<!-- Title: init_localization Pages: 1 -->
<!--zoomable 180 -->
<svg id="main" version="1.1" xmlns="http://www.w3.org/2000/svg" xmlns:xlink="http://www.w3.org/1999/xlink" xml:space="preserve" onload="init(evt)">
<style type="text/css"><![CDATA[
.edge:hover path { stroke: red; }
.edge:hover polygon { stroke: red; fill: red; }
]]></style>
<script type="text/javascript"><![CDATA[
var edges = document.getElementsByTagName('g');
if (edges && edges.length) {
  for (var i=0;i<edges.length;i++) {
    if (edges[i].id.substr(0,4)=='edge') {
      edges[i].setAttribute('class','edge');
    }
  }
}
]]></script>
        <defs>
                <circle id="rim" cx="0" cy="0" r="7"/>
                <circle id="rim2" cx="0" cy="0" r="3.5"/>
                <g id="zoomPlus">
                        <use xlink:href="#rim" fill="#404040">
                                <set attributeName="fill" to="#808080" begin="zoomplus.mouseover" end="zoomplus.mouseout"/>
                        </use>
                        <path d="M-4,0h8M0,-4v8" fill="none" stroke="white" stroke-width="1.5" pointer-events="none"/>
                </g>
                <g id="zoomMin">
                        <use xlink:href="#rim" fill="#404040">
                                <set attributeName="fill" to="#808080" begin="zoomminus.mouseover" end="zoomminus.mouseout"/>
                        </use>
                        <path d="M-4,0h8" fill="none" stroke="white" stroke-width="1.5" pointer-events="none"/>
                </g>
                <g id="dirArrow">
                        <path fill="none" stroke="white" stroke-width="1.5" d="M0,-3.0v7 M-2.5,-0.5L0,-3.0L2.5,-0.5"/>
                </g>
               <g id="resetDef">
                       <use xlink:href="#rim2" fill="#404040">
                               <set attributeName="fill" to="#808080" begin="reset.mouseover" end="reset.mouseout"/>
                       </use>
               </g>
        </defs>

<script type="text/javascript">
var viewWidth = 541;
var viewHeight = 180;
var sectionId = 'dynsection-2';
</script>
<script xlink:href="svgpan.js"/>
<svg id="graph" class="graph">
<g id="viewport">
<title>init_localization</title>
<!-- Node2 -->
<g id="node1" class="node">
<title>Node2</title>
<polygon fill="#bfbfbf" stroke="#000000" points="0,-96.5 0,-114.5 83.8174,-114.5 83.8174,-96.5 0,-96.5"/>
<text text-anchor="middle" x="41.9087" y="-102.5" font-family="Helvetica,sans-Serif" font-size="10.00" fill="#000000">init_localization</text>
</g>
<!-- Node3 -->
<g id="node2" class="node">
<title>Node3</title>
<g id="a_node2"><a xlink:href="_a_p_i_8h.html#a17270080a32b64937a3669089a80120f" target="_top" xlink:title="gyroInit">
<polygon fill="none" stroke="#000000" points="138.7285,-153.5 138.7285,-171.5 187.5215,-171.5 187.5215,-153.5 138.7285,-153.5"/>
<text text-anchor="middle" x="163.125" y="-159.5" font-family="Helvetica,sans-Serif" font-size="10.00" fill="#000000">gyroInit</text>
</a>
</g>
</g>
<!-- Node2&#45;&gt;Node3 -->
<g id="edge1" class="edge">
<title>Node2&#45;&gt;Node3</title>
<path fill="none" stroke="#191970" d="M61.1158,-114.5318C80.8592,-123.8159 111.8304,-138.3796 134.4706,-149.0257"/>
<polygon fill="#191970" stroke="#191970" points="133.0676,-152.2336 143.6064,-153.3217 136.0463,-145.899 133.0676,-152.2336"/>
</g>
<!-- Node4 -->
<g id="node3" class="node">
<title>Node4</title>
<g id="a_node3"><a xlink:href="_a_p_i_8h.html#a6ff7f2532a22366f0013bc41397129fd" target="_top" xlink:title="millis">
<polygon fill="none" stroke="#000000" points="448.6929,-77.5 448.6929,-95.5 486.9097,-95.5 486.9097,-77.5 448.6929,-77.5"/>
<text text-anchor="middle" x="467.8013" y="-83.5" font-family="Helvetica,sans-Serif" font-size="10.00" fill="#000000">millis</text>
</a>
</g>
</g>
<!-- Node2&#45;&gt;Node4 -->
<g id="edge2" class="edge">
<title>Node2&#45;&gt;Node4</title>
<path fill="none" stroke="#191970" d="M83.8495,-106.3379C117.1059,-106.8 164.7578,-107.0128 206.4326,-105.5 290.7602,-102.439 390.0901,-93.8402 438.42,-89.3347"/>
<polygon fill="#191970" stroke="#191970" points="438.8543,-92.8093 448.4819,-88.3868 438.1977,-85.8402 438.8543,-92.8093"/>
</g>
<!-- Node5 -->
<g id="node4" class="node">
<title>Node5</title>
<g id="a_node4"><a xlink:href="_a_p_i_8h.html#ab05a241d6d1fd98b1ceb4665db678156" target="_top" xlink:title="taskRunLoop">
<polygon fill="none" stroke="#000000" points="125.6597,-77.5 125.6597,-95.5 200.5903,-95.5 200.5903,-77.5 125.6597,-77.5"/>
<text text-anchor="middle" x="163.125" y="-83.5" font-family="Helvetica,sans-Serif" font-size="10.00" fill="#000000">taskRunLoop</text>
</a>
</g>
</g>
<!-- Node2&#45;&gt;Node5 -->
<g id="edge3" class="edge">
<title>Node2&#45;&gt;Node5</title>
<path fill="none" stroke="#191970" d="M83.9641,-98.908C94.1184,-97.3164 105.0416,-95.6043 115.4336,-93.9754"/>
<polygon fill="#191970" stroke="#191970" points="116.2629,-97.3882 125.6002,-92.3818 115.1788,-90.4726 116.2629,-97.3882"/>
</g>
<!-- Node6 -->
<g id="node5" class="node">
<title>Node6</title>
<g id="a_node5"><a xlink:href="localization_8c.html#afacd5e0b3d5e677df26a4402bbd9ec9e" target="_top" xlink:title="update_position">
<polygon fill="none" stroke="#000000" points="119.8174,-40.5 119.8174,-58.5 206.4326,-58.5 206.4326,-40.5 119.8174,-40.5"/>
<text text-anchor="middle" x="163.125" y="-46.5" font-family="Helvetica,sans-Serif" font-size="10.00" fill="#000000">update_position</text>
</a>
</g>
</g>
<!-- Node2&#45;&gt;Node6 -->
<g id="edge4" class="edge">
<title>Node2&#45;&gt;Node6</title>
<path fill="none" stroke="#191970" d="M60.7264,-96.3694C76.4601,-88.7819 99.5229,-77.7684 119.8174,-68.5 123.9624,-66.607 128.3456,-64.6418 132.669,-62.7246"/>
<polygon fill="#191970" stroke="#191970" points="134.18,-65.8836 141.9222,-58.6511 131.3596,-59.477 134.18,-65.8836"/>
</g>
<!-- Node6&#45;&gt;Node4 -->
<g id="edge9" class="edge">
<title>Node6&#45;&gt;Node4</title>
<path fill="none" stroke="#191970" d="M198.0607,-58.5316C211.8082,-61.7954 227.7825,-65.2312 242.4326,-67.5 312.1866,-78.3025 395.1056,-83.3026 438.3049,-85.3227"/>
<polygon fill="#191970" stroke="#191970" points="438.2535,-88.8238 448.3998,-85.7737 438.566,-81.8307 438.2535,-88.8238"/>
</g>
<!-- Node7 -->
<g id="node6" class="node">
<title>Node7</title>
<g id="a_node6"><a xlink:href="localization_8c.html#a6785e4b3b61887f28028f05019b9b39d" target="_top" xlink:title="calculate_accelerometer\l_odemetry">
<polygon fill="none" stroke="#000000" points="242.4326,-29.5 242.4326,-57.5 366.8213,-57.5 366.8213,-29.5 242.4326,-29.5"/>
<text text-anchor="start" x="250.4326" y="-45.5" font-family="Helvetica,sans-Serif" font-size="10.00" fill="#000000">calculate_accelerometer</text>
<text text-anchor="middle" x="304.627" y="-35.5" font-family="Helvetica,sans-Serif" font-size="10.00" fill="#000000">_odemetry</text>
</a>
</g>
</g>
<!-- Node6&#45;&gt;Node7 -->
<g id="edge5" class="edge">
<title>Node6&#45;&gt;Node7</title>
<path fill="none" stroke="#191970" d="M206.7349,-47.6508C214.7893,-47.3093 223.3969,-46.9443 232.0411,-46.5778"/>
<polygon fill="#191970" stroke="#191970" points="232.3317,-50.0687 242.1744,-46.1481 232.035,-43.075 232.3317,-50.0687"/>
</g>
<!-- Node7&#45;&gt;Node4 -->
<g id="edge8" class="edge">
<title>Node7&#45;&gt;Node4</title>
<path fill="none" stroke="#191970" d="M358.0563,-57.5798C384.8561,-64.6421 416.276,-72.922 438.6129,-78.8082"/>
<polygon fill="#191970" stroke="#191970" points="437.9258,-82.2466 448.4876,-81.4104 439.7096,-75.4777 437.9258,-82.2466"/>
</g>
<!-- Node8 -->
<g id="node7" class="node">
<title>Node8</title>
<g id="a_node7"><a xlink:href="_a_p_i_8h.html#a68b2c3e0863b8f4cb022fcdd77d2f5fd" target="_top" xlink:title="analogReadCalibratedHR">
<polygon fill="none" stroke="#000000" points="402.8213,-37.5 402.8213,-55.5 532.7813,-55.5 532.7813,-37.5 402.8213,-37.5"/>
<text text-anchor="middle" x="467.8013" y="-43.5" font-family="Helvetica,sans-Serif" font-size="10.00" fill="#000000">analogReadCalibratedHR</text>
</a>
</g>
</g>
<!-- Node7&#45;&gt;Node8 -->
<g id="edge6" class="edge">
<title>Node7&#45;&gt;Node8</title>
<path fill="none" stroke="#191970" d="M367.2477,-44.6513C375.4903,-44.8028 384.0062,-44.9594 392.4331,-45.1143"/>
<polygon fill="#191970" stroke="#191970" points="392.581,-48.6176 402.6437,-45.3021 392.7097,-41.6187 392.581,-48.6176"/>
</g>
<!-- Node9 -->
<g id="node8" class="node">
<title>Node9</title>
<g id="a_node8"><a xlink:href="_a_p_i_8h.html#a403c82418e475fa4a8273719e6a7f3e6" target="_top" xlink:title="printf">
<polygon fill="none" stroke="#000000" points="448.6855,-.5 448.6855,-18.5 486.917,-18.5 486.917,-.5 448.6855,-.5"/>
<text text-anchor="middle" x="467.8013" y="-6.5" font-family="Helvetica,sans-Serif" font-size="10.00" fill="#000000">printf</text>
</a>
</g>
</g>
<!-- Node7&#45;&gt;Node9 -->
<g id="edge7" class="edge">
<title>Node7&#45;&gt;Node9</title>
<path fill="none" stroke="#191970" d="M367.2477,-30.452C391.7787,-25.3405 418.7314,-19.7245 438.5523,-15.5945"/>
<polygon fill="#191970" stroke="#191970" points="439.4169,-18.9896 448.4926,-13.5233 437.9889,-12.1368 439.4169,-18.9896"/>
</g>
</g>
</svg>
        <g id="navigator" transform="translate(0 0)" fill="#404254">
                <rect fill="#f2f5e9" fill-opacity="0.5" stroke="#606060" stroke-width=".5" x="0" y="0" width="60" height="60"/>
                <use id="zoomplus" xlink:href="#zoomPlus" x="17" y="9" onmousedown="handleZoom(evt,'in')"/>
                <use id="zoomminus" xlink:href="#zoomMin" x="42" y="9" onmousedown="handleZoom(evt,'out')"/>
                <use id="reset" xlink:href="#resetDef" x="30" y="36" onmousedown="handleReset()"/>
                <g id="arrowUp" xlink:href="#dirArrow" transform="translate(30 24)" onmousedown="handlePan(0,-1)">
                  <use xlink:href="#rim" fill="#404040">
                        <set attributeName="fill" to="#808080" begin="arrowUp.mouseover" end="arrowUp.mouseout"/>
                  </use>
                  <path fill="none" stroke="white" stroke-width="1.5" d="M0,-3.0v7 M-2.5,-0.5L0,-3.0L2.5,-0.5"/>
                </g>
                <g id="arrowRight" xlink:href="#dirArrow" transform="rotate(90) translate(36 -43)" onmousedown="handlePan(1,0)">
                  <use xlink:href="#rim" fill="#404040">
                        <set attributeName="fill" to="#808080" begin="arrowRight.mouseover" end="arrowRight.mouseout"/>
                  </use>
                  <path fill="none" stroke="white" stroke-width="1.5" d="M0,-3.0v7 M-2.5,-0.5L0,-3.0L2.5,-0.5"/>
                </g>
                <g id="arrowDown" xlink:href="#dirArrow" transform="rotate(180) translate(-30 -48)" onmousedown="handlePan(0,1)">
                  <use xlink:href="#rim" fill="#404040">
                        <set attributeName="fill" to="#808080" begin="arrowDown.mouseover" end="arrowDown.mouseout"/>
                  </use>
                  <path fill="none" stroke="white" stroke-width="1.5" d="M0,-3.0v7 M-2.5,-0.5L0,-3.0L2.5,-0.5"/>
                </g>
                <g id="arrowLeft" xlink:href="#dirArrow" transform="rotate(270) translate(-36 17)" onmousedown="handlePan(-1,0)">
                  <use xlink:href="#rim" fill="#404040">
                        <set attributeName="fill" to="#808080" begin="arrowLeft.mouseover" end="arrowLeft.mouseout"/>
                  </use>
                  <path fill="none" stroke="white" stroke-width="1.5" d="M0,-3.0v7 M-2.5,-0.5L0,-3.0L2.5,-0.5"/>
                </g>
        </g>
        <svg viewBox="0 0 15 15" width="100%" height="30px" preserveAspectRatio="xMaxYMin meet">
         <g id="arrow_out" transform="scale(0.3 0.3)">
          <a xlink:href="localization_8h_afdd0147de6aa15957e9a125f9cd20578_cgraph_org.svg" target="_base">
           <rect id="button" ry="5" rx="5" y="6" x="6" height="38" width="38"
                fill="#f2f5e9" fill-opacity="0.5" stroke="#606060" stroke-width="1.0"/>
           <path id="arrow"
             d="M 11.500037,31.436501 C 11.940474,20.09759 22.043105,11.32322 32.158766,21.979434 L 37.068811,17.246167 C 37.068811,17.246167 37.088388,32 37.088388,32 L 22.160133,31.978069 C 22.160133,31.978069 26.997745,27.140456 26.997745,27.140456 C 18.528582,18.264221 13.291696,25.230495 11.500037,31.436501 z"
             style="fill:#404040;"/>
          </a>
         </g>
        </svg>
</svg>
