<?xml version="1.0" encoding="UTF-8" standalone="no"?>
<!DOCTYPE svg PUBLIC "-//W3C//DTD SVG 1.1//EN"
 "http://www.w3.org/Graphics/SVG/1.1/DTD/svg11.dtd">
<!-- Generated by graphviz version 2.40.1 (20161225.0304)
 -->
<!-- Title: warning Pages: 1 -->
<svg width="874pt" height="473pt"
 viewBox="0.00 0.00 874.05 472.73" xmlns="http://www.w3.org/2000/svg" xmlns:xlink="http://www.w3.org/1999/xlink">
<g id="graph0" class="graph" transform="scale(1 1) rotate(0) translate(4 468.7279)">
<title>warning</title>
<!-- Node89 -->
<g id="node1" class="node">
<title>Node89</title>
<polygon fill="#bfbfbf" stroke="#000000" points="0,-282.7279 0,-300.7279 51.0195,-300.7279 51.0195,-282.7279 0,-282.7279"/>
<text text-anchor="middle" x="25.5098" y="-288.7279" font-family="Helvetica,sans-Serif" font-size="10.00" fill="#000000">warning</text>
</g>
<!-- Node90 -->
<g id="node2" class="node">
<title>Node90</title>
<g id="a_node2"><a xlink:href="slew_8c.html#a321758941d88b75783955c819bb75005" target="_top" xlink:title="Initializes the slew rate controller. ">
<polygon fill="none" stroke="#000000" points="87.0195,-282.7279 87.0195,-300.7279 141.3691,-300.7279 141.3691,-282.7279 87.0195,-282.7279"/>
<text text-anchor="middle" x="114.1943" y="-288.7279" font-family="Helvetica,sans-Serif" font-size="10.00" fill="#000000">init_slew</text>
</a>
</g>
</g>
<!-- Node89&#45;&gt;Node90 -->
<g id="edge1" class="edge">
<title>Node89&#45;&gt;Node90</title>
<path fill="none" stroke="#191970" d="M61.2273,-291.7279C69.7315,-291.7279 78.6759,-291.7279 86.7432,-291.7279"/>
<polygon fill="#191970" stroke="#191970" points="61.1611,-288.228 51.161,-291.7279 61.161,-295.228 61.1611,-288.228"/>
</g>
<!-- Node91 -->
<g id="node3" class="node">
<title>Node91</title>
<g id="a_node3"><a xlink:href="auto_8c.html#ae66ea80c777135c9f4d288a05f40ca86" target="_top" xlink:title="Starts the auntonomous program. ">
<polygon fill="none" stroke="#000000" points="200.4282,-89.7279 200.4282,-107.7279 266.4624,-107.7279 266.4624,-89.7279 200.4282,-89.7279"/>
<text text-anchor="middle" x="233.4453" y="-95.7279" font-family="Helvetica,sans-Serif" font-size="10.00" fill="#000000">start_auton</text>
</a>
</g>
</g>
<!-- Node90&#45;&gt;Node91 -->
<g id="edge2" class="edge">
<title>Node90&#45;&gt;Node91</title>
<path fill="none" stroke="#191970" d="M125.1426,-274.0089C149.8191,-234.0714 209.0793,-138.1628 227.7269,-107.9828"/>
<polygon fill="#191970" stroke="#191970" points="122.065,-272.3311 119.7861,-282.6779 128.02,-276.0106 122.065,-272.3311"/>
</g>
<!-- Node93 -->
<g id="node5" class="node">
<title>Node93</title>
<g id="a_node5"><a xlink:href="opcontrol_8c.html#ac71a94af413917f27d108e95c4d6f6a7" target="_top" xlink:title="Runs the user operator control code. ">
<polygon fill="none" stroke="#000000" points="780.5693,-360.7279 780.5693,-378.7279 866.0518,-378.7279 866.0518,-360.7279 780.5693,-360.7279"/>
<text text-anchor="middle" x="823.3105" y="-366.7279" font-family="Helvetica,sans-Serif" font-size="10.00" fill="#000000">operatorControl</text>
</a>
</g>
</g>
<!-- Node90&#45;&gt;Node93 -->
<g id="edge4" class="edge">
<title>Node90&#45;&gt;Node93</title>
<path fill="none" stroke="#191970" d="M127.8063,-308.7892C164.2877,-352.4345 269.3037,-464.7279 384.0977,-464.7279 384.0977,-464.7279 384.0977,-464.7279 538.6489,-464.7279 646.4957,-464.7279 766.0526,-402.6146 807.8693,-378.8369"/>
<polygon fill="#191970" stroke="#191970" points="130.4892,-306.5413 121.4412,-301.0291 125.0769,-310.9806 130.4892,-306.5413"/>
</g>
<!-- Node94 -->
<g id="node6" class="node">
<title>Node94</title>
<g id="a_node6"><a xlink:href="slew_8c.html#a7dff2b79dffe55fb936d977594d7c01d" target="_top" xlink:title="Sets motor speed wrapped inside the slew rate controller. ">
<polygon fill="none" stroke="#000000" points="190.4307,-261.7279 190.4307,-279.7279 276.46,-279.7279 276.46,-261.7279 190.4307,-261.7279"/>
<text text-anchor="middle" x="233.4453" y="-267.7279" font-family="Helvetica,sans-Serif" font-size="10.00" fill="#000000">set_motor_slew</text>
</a>
</g>
</g>
<!-- Node90&#45;&gt;Node94 -->
<g id="edge5" class="edge">
<title>Node90&#45;&gt;Node94</title>
<path fill="none" stroke="#191970" d="M151.4917,-285.1598C163.8066,-282.9912 177.6068,-280.561 190.3205,-278.3221"/>
<polygon fill="#191970" stroke="#191970" points="150.7943,-281.7287 141.5529,-286.91 152.0084,-288.6226 150.7943,-281.7287"/>
</g>
<!-- Node107 -->
<g id="node15" class="node">
<title>Node107</title>
<g id="a_node15"><a xlink:href="slew_8c.html#a9f8b8ae577ef938622024545711f0151" target="_top" xlink:title="Sets the motor speed ignoring the slew controller. ">
<polygon fill="none" stroke="#000000" points="177.3691,-301.7279 177.3691,-319.7279 289.5215,-319.7279 289.5215,-301.7279 177.3691,-301.7279"/>
<text text-anchor="middle" x="233.4453" y="-307.7279" font-family="Helvetica,sans-Serif" font-size="10.00" fill="#000000">set_motor_immediate</text>
</a>
</g>
</g>
<!-- Node90&#45;&gt;Node107 -->
<g id="edge21" class="edge">
<title>Node90&#45;&gt;Node107</title>
<path fill="none" stroke="#191970" d="M151.4424,-297.6625C159.5676,-298.9571 168.3413,-300.355 177.0242,-301.7384"/>
<polygon fill="#191970" stroke="#191970" points="151.9791,-294.204 141.5529,-296.0869 150.8776,-301.1168 151.9791,-294.204"/>
</g>
<!-- Node92 -->
<g id="node4" class="node">
<title>Node92</title>
<g id="a_node4"><a xlink:href="auto_8c.html#a3c7ca506bbc071fa740de13805b7f376" target="_top" xlink:title="Runs the user autonomous code. ">
<polygon fill="none" stroke="#000000" points="654.0771,-134.7279 654.0771,-152.7279 725.1162,-152.7279 725.1162,-134.7279 654.0771,-134.7279"/>
<text text-anchor="middle" x="689.5967" y="-140.7279" font-family="Helvetica,sans-Serif" font-size="10.00" fill="#000000">autonomous</text>
</a>
</g>
</g>
<!-- Node91&#45;&gt;Node92 -->
<g id="edge3" class="edge">
<title>Node91&#45;&gt;Node92</title>
<path fill="none" stroke="#191970" d="M255.7558,-84.3233C314.8573,-48.1347 479.1117,39.5281 598.624,-20.7279 611.1937,-27.0653 665.3331,-107.2587 683.5722,-134.6379"/>
<polygon fill="#191970" stroke="#191970" points="253.831,-81.3987 247.1962,-89.6588 257.534,-87.3391 253.831,-81.3987"/>
</g>
<!-- Node95 -->
<g id="node7" class="node">
<title>Node95</title>
<g id="a_node7"><a xlink:href="drive_8c.html#a8df41fd50094c065eedc81fc5e6595d1" target="_top" xlink:title="sets the speed of one side of the robot. ">
<polygon fill="none" stroke="#000000" points="341.0708,-72.7279 341.0708,-90.7279 427.1245,-90.7279 427.1245,-72.7279 341.0708,-72.7279"/>
<text text-anchor="middle" x="384.0977" y="-78.7279" font-family="Helvetica,sans-Serif" font-size="10.00" fill="#000000">set_side_speed</text>
</a>
</g>
</g>
<!-- Node94&#45;&gt;Node95 -->
<g id="edge6" class="edge">
<title>Node94&#45;&gt;Node95</title>
<path fill="none" stroke="#191970" d="M247.3303,-253.3086C278.5506,-214.1413 353.3945,-120.2464 376.9043,-90.7523"/>
<polygon fill="#191970" stroke="#191970" points="244.2078,-251.6107 240.7116,-261.612 249.6817,-255.9739 244.2078,-251.6107"/>
</g>
<!-- Node99 -->
<g id="node11" class="node">
<title>Node99</title>
<g id="a_node11"><a xlink:href="lifter_8c.html#ad00a195af30f246924d6e1a30095b882" target="_top" xlink:title="Sets the main lifter motors to the given value. ">
<polygon fill="none" stroke="#ff0000" points="325.5215,-261.7279 325.5215,-279.7279 442.6738,-279.7279 442.6738,-261.7279 325.5215,-261.7279"/>
<text text-anchor="middle" x="384.0977" y="-267.7279" font-family="Helvetica,sans-Serif" font-size="10.00" fill="#000000">set_main_lifter_motors</text>
</a>
</g>
</g>
<!-- Node94&#45;&gt;Node99 -->
<g id="edge14" class="edge">
<title>Node94&#45;&gt;Node99</title>
<path fill="none" stroke="#191970" d="M286.877,-270.7279C299.3795,-270.7279 312.7633,-270.7279 325.4783,-270.7279"/>
<polygon fill="#191970" stroke="#191970" points="286.6163,-267.228 276.6162,-270.7279 286.6162,-274.228 286.6163,-267.228"/>
</g>
<!-- Node95&#45;&gt;Node92 -->
<g id="edge11" class="edge">
<title>Node95&#45;&gt;Node92</title>
<path fill="none" stroke="#191970" d="M429.3835,-93.284C444.9627,-97.1148 462.5432,-101.278 478.6738,-104.7279 540.0343,-117.8512 611.9979,-130.5949 654.0233,-137.7733"/>
<polygon fill="#191970" stroke="#191970" points="430.0186,-89.8355 419.4701,-90.8254 428.3336,-96.6297 430.0186,-89.8355"/>
</g>
<!-- Node96 -->
<g id="node8" class="node">
<title>Node96</title>
<g id="a_node8"><a xlink:href="auto_8c.html#a42084538c07a7089a1fe425c4f97650a" target="_top" xlink:title="Drives the robot forward until it reaches the mobile goal. ">
<polygon fill="none" stroke="#000000" points="484.2305,-67.7279 484.2305,-95.7279 593.0674,-95.7279 593.0674,-67.7279 484.2305,-67.7279"/>
<text text-anchor="start" x="492.2305" y="-83.7279" font-family="Helvetica,sans-Serif" font-size="10.00" fill="#000000">auton_drive_towards</text>
<text text-anchor="middle" x="538.6489" y="-73.7279" font-family="Helvetica,sans-Serif" font-size="10.00" fill="#000000">_mobile_goal</text>
</a>
</g>
</g>
<!-- Node95&#45;&gt;Node96 -->
<g id="edge7" class="edge">
<title>Node95&#45;&gt;Node96</title>
<path fill="none" stroke="#191970" d="M437.3269,-81.7279C452.3876,-81.7279 468.8017,-81.7279 483.9475,-81.7279"/>
<polygon fill="#191970" stroke="#191970" points="437.1488,-78.228 427.1488,-81.7279 437.1488,-85.228 437.1488,-78.228"/>
</g>
<!-- Node97 -->
<g id="node9" class="node">
<title>Node97</title>
<g id="a_node9"><a xlink:href="auto_8c.html#a8141105864165fcb16d70f7cc72a1b6f" target="_top" xlink:title="Rotates the robot 180 degrees clockwise. ">
<polygon fill="none" stroke="#000000" points="495.6172,-30.7279 495.6172,-48.7279 581.6807,-48.7279 581.6807,-30.7279 495.6172,-30.7279"/>
<text text-anchor="middle" x="538.6489" y="-36.7279" font-family="Helvetica,sans-Serif" font-size="10.00" fill="#000000">auton_turn_180</text>
</a>
</g>
</g>
<!-- Node95&#45;&gt;Node97 -->
<g id="edge9" class="edge">
<title>Node95&#45;&gt;Node97</title>
<path fill="none" stroke="#191970" d="M427.0987,-70.0422C451.8133,-63.3258 482.3939,-55.0154 505.2823,-48.7954"/>
<polygon fill="#191970" stroke="#191970" points="425.9849,-66.7178 417.2528,-72.7178 427.8207,-73.4728 425.9849,-66.7178"/>
</g>
<!-- Node98 -->
<g id="node10" class="node">
<title>Node98</title>
<g id="a_node10"><a xlink:href="drive_8c.html#a8224a4626a934d30ed587671b7004bf8" target="_top" xlink:title="Updates the drive motors during teleop. ">
<polygon fill="none" stroke="#000000" points="634.624,-35.7279 634.624,-53.7279 744.5693,-53.7279 744.5693,-35.7279 634.624,-35.7279"/>
<text text-anchor="middle" x="689.5967" y="-41.7279" font-family="Helvetica,sans-Serif" font-size="10.00" fill="#000000">update_drive_motors</text>
</a>
</g>
</g>
<!-- Node95&#45;&gt;Node98 -->
<g id="edge12" class="edge">
<title>Node95&#45;&gt;Node98</title>
<path fill="none" stroke="#191970" d="M401.7126,-65.8672C419.6128,-50.9061 448.8761,-29.5038 478.6738,-20.7279 543.9009,-1.5173 624.6653,-22.4629 664.6917,-35.6615"/>
<polygon fill="#191970" stroke="#191970" points="399.1769,-63.4319 393.8855,-72.6108 403.746,-68.7351 399.1769,-63.4319"/>
</g>
<!-- Node96&#45;&gt;Node92 -->
<g id="edge8" class="edge">
<title>Node96&#45;&gt;Node92</title>
<path fill="none" stroke="#191970" d="M582.4536,-99.7201C610.3846,-111.1925 645.3843,-125.5682 667.6249,-134.7032"/>
<polygon fill="#191970" stroke="#191970" points="583.4812,-96.3585 572.9013,-95.7966 580.8216,-102.8336 583.4812,-96.3585"/>
</g>
<!-- Node97&#45;&gt;Node92 -->
<g id="edge10" class="edge">
<title>Node97&#45;&gt;Node92</title>
<path fill="none" stroke="#191970" d="M587.8648,-52.406C591.5966,-53.9946 595.2275,-55.7631 598.624,-57.7279 634.9333,-78.7317 668.2015,-116.9459 682.3768,-134.4824"/>
<polygon fill="#191970" stroke="#191970" points="589.0478,-49.1113 578.457,-48.8185 586.5536,-55.6519 589.0478,-49.1113"/>
</g>
<!-- Node98&#45;&gt;Node93 -->
<g id="edge13" class="edge">
<title>Node98&#45;&gt;Node93</title>
<path fill="none" stroke="#191970" d="M703.8187,-62.1827C715.983,-77.7997 733.2674,-101.7148 744.5693,-124.7279 787.3068,-211.75 814.1681,-327.2801 821.3606,-360.461"/>
<polygon fill="#191970" stroke="#191970" points="706.2924,-59.6698 697.3321,-54.0162 700.8111,-64.0235 706.2924,-59.6698"/>
</g>
<!-- Node100 -->
<g id="node12" class="node">
<title>Node100</title>
<g id="a_node12"><a xlink:href="auto_8c.html#a51a62a1a0851cc5939a2c6034849e380" target="_top" xlink:title="utility function to raise the mainlifter to the mobile goal height ">
<polygon fill="none" stroke="#000000" points="478.6738,-227.7279 478.6738,-245.7279 598.624,-245.7279 598.624,-227.7279 478.6738,-227.7279"/>
<text text-anchor="middle" x="538.6489" y="-233.7279" font-family="Helvetica,sans-Serif" font-size="10.00" fill="#000000">auton_rasie_main_lifter</text>
</a>
</g>
</g>
<!-- Node99&#45;&gt;Node100 -->
<g id="edge15" class="edge">
<title>Node99&#45;&gt;Node100</title>
<path fill="none" stroke="#191970" d="M435.1402,-259.4989C455.4588,-255.029 478.5229,-249.9551 497.7145,-245.7331"/>
<polygon fill="#191970" stroke="#191970" points="434.1232,-256.1389 425.1088,-261.7058 435.6273,-262.9754 434.1232,-256.1389"/>
</g>
<!-- Node101 -->
<g id="node13" class="node">
<title>Node101</title>
<g id="a_node13"><a xlink:href="lifter_8c.html#aa4d172cbde795bc13fe6baabd074717e" target="_top" xlink:title="quit_auto_static">
<polygon fill="none" stroke="#000000" points="495.6245,-341.7279 495.6245,-359.7279 581.6733,-359.7279 581.6733,-341.7279 495.6245,-341.7279"/>
<text text-anchor="middle" x="538.6489" y="-347.7279" font-family="Helvetica,sans-Serif" font-size="10.00" fill="#000000">quit_auto_static</text>
</a>
</g>
</g>
<!-- Node99&#45;&gt;Node101 -->
<g id="edge17" class="edge">
<title>Node99&#45;&gt;Node101</title>
<path fill="none" stroke="#191970" d="M426.6665,-283.1271C432.1364,-285.1286 437.5954,-287.3376 442.6738,-289.7279 474.6491,-304.7779 508.8318,-328.6047 526.5021,-341.5765"/>
<polygon fill="#191970" stroke="#191970" points="427.4834,-279.7066 416.8887,-279.7541 425.2006,-286.3239 427.4834,-279.7066"/>
</g>
<!-- Node102 -->
<g id="node14" class="node">
<title>Node102</title>
<g id="a_node14"><a xlink:href="lifter_8c.html#a8a64fa88b389b39c236c5c57a7fb5c67" target="_top" xlink:title="Autostacks a cone once picked up. ">
<polygon fill="none" stroke="#000000" points="642.1265,-360.7279 642.1265,-378.7279 737.0669,-378.7279 737.0669,-360.7279 642.1265,-360.7279"/>
<text text-anchor="middle" x="689.5967" y="-366.7279" font-family="Helvetica,sans-Serif" font-size="10.00" fill="#000000">autostack_routine</text>
</a>
</g>
</g>
<!-- Node99&#45;&gt;Node102 -->
<g id="edge20" class="edge">
<title>Node99&#45;&gt;Node102</title>
<path fill="none" stroke="#191970" d="M429.5217,-282.3702C473.2436,-293.9243 541.0255,-312.7533 598.624,-332.7279 623.1097,-341.2193 650.5901,-352.6711 668.8768,-360.5743"/>
<polygon fill="#191970" stroke="#191970" points="430.3199,-278.9612 419.7588,-279.8055 428.5413,-285.7315 430.3199,-278.9612"/>
</g>
<!-- Node100&#45;&gt;Node92 -->
<g id="edge16" class="edge">
<title>Node100&#45;&gt;Node92</title>
<path fill="none" stroke="#191970" d="M584.2929,-224.2789C589.2421,-222.3416 594.1138,-220.1617 598.624,-217.7279 632.3081,-199.5514 665.5808,-168.1629 680.8804,-152.7703"/>
<polygon fill="#191970" stroke="#191970" points="582.9805,-221.0314 574.7546,-227.7085 585.349,-227.6185 582.9805,-221.0314"/>
</g>
<!-- Node101&#45;&gt;Node102 -->
<g id="edge18" class="edge">
<title>Node101&#45;&gt;Node102</title>
<path fill="none" stroke="#191970" d="M591.8678,-357.4266C608.2377,-359.4871 626.1417,-361.7407 642.1013,-363.7496"/>
<polygon fill="#191970" stroke="#191970" points="592.2633,-353.9489 581.9045,-356.1725 591.3891,-360.8941 592.2633,-353.9489"/>
</g>
<!-- Node102&#45;&gt;Node93 -->
<g id="edge19" class="edge">
<title>Node102&#45;&gt;Node93</title>
<path fill="none" stroke="#191970" d="M747.2092,-369.7279C758.3464,-369.7279 769.8325,-369.7279 780.3991,-369.7279"/>
<polygon fill="#191970" stroke="#191970" points="747.1157,-366.228 737.1157,-369.7279 747.1156,-373.228 747.1157,-366.228"/>
</g>
<!-- Node108 -->
<g id="node16" class="node">
<title>Node108</title>
<g id="a_node16"><a xlink:href="claw_8c.html#a3a57f998b1884d39b0cc786689f7086f" target="_top" xlink:title="sets the claw motor speed ">
<polygon fill="none" stroke="#ff0000" points="341.083,-345.7279 341.083,-363.7279 427.1123,-363.7279 427.1123,-345.7279 341.083,-345.7279"/>
<text text-anchor="middle" x="384.0977" y="-351.7279" font-family="Helvetica,sans-Serif" font-size="10.00" fill="#000000">set_claw_motor</text>
</a>
</g>
</g>
<!-- Node107&#45;&gt;Node108 -->
<g id="edge22" class="edge">
<title>Node107&#45;&gt;Node108</title>
<path fill="none" stroke="#191970" d="M274.1512,-322.6166C298.9723,-329.8659 330.2028,-338.9872 353.0301,-345.6542"/>
<polygon fill="#191970" stroke="#191970" points="274.8758,-319.182 264.2956,-319.7381 272.9133,-325.9013 274.8758,-319.182"/>
</g>
<!-- Node110 -->
<g id="node17" class="node">
<title>Node110</title>
<g id="a_node17"><a xlink:href="claw_8c.html#a3a6168bf4e2042115dd32542f1f6a2f5" target="_top" xlink:title="Drives the motors to grab a cone. ">
<polygon fill="none" stroke="#ff0000" points="494.2354,-190.7279 494.2354,-208.7279 583.0625,-208.7279 583.0625,-190.7279 494.2354,-190.7279"/>
<text text-anchor="middle" x="538.6489" y="-196.7279" font-family="Helvetica,sans-Serif" font-size="10.00" fill="#000000">claw_grab_cone</text>
</a>
</g>
</g>
<!-- Node107&#45;&gt;Node110 -->
<g id="edge25" class="edge">
<title>Node107&#45;&gt;Node110</title>
<path fill="none" stroke="#191970" d="M274.6063,-297.8146C279.8107,-295.4685 284.9183,-292.7792 289.5215,-289.7279 308.9126,-276.8741 305.4003,-263.4057 325.5215,-251.7279 378.3915,-221.0434 448.7415,-208.3948 493.8716,-203.2278"/>
<polygon fill="#191970" stroke="#191970" points="273.141,-294.6326 265.2219,-301.6709 275.8017,-301.1073 273.141,-294.6326"/>
</g>
<!-- Node112 -->
<g id="node18" class="node">
<title>Node112</title>
<g id="a_node18"><a xlink:href="claw_8c.html#aecaa4eedc34d6b164ee17ed104914227" target="_top" xlink:title="Drives the motors to release a cone. ">
<polygon fill="none" stroke="#000000" points="333.2925,-382.7279 333.2925,-400.7279 434.9028,-400.7279 434.9028,-382.7279 333.2925,-382.7279"/>
<text text-anchor="middle" x="384.0977" y="-388.7279" font-family="Helvetica,sans-Serif" font-size="10.00" fill="#000000">claw_release_cone</text>
</a>
</g>
</g>
<!-- Node107&#45;&gt;Node112 -->
<g id="edge27" class="edge">
<title>Node107&#45;&gt;Node112</title>
<path fill="none" stroke="#191970" d="M252.3142,-326.1742C270.2288,-340.2042 298.3809,-360.6478 325.5215,-373.7279 332.7094,-377.192 340.7132,-380.1713 348.438,-382.6526"/>
<polygon fill="#191970" stroke="#191970" points="254.3938,-323.356 244.3915,-319.8624 250.032,-328.831 254.3938,-323.356"/>
</g>
<!-- Node113 -->
<g id="node19" class="node">
<title>Node113</title>
<g id="a_node19"><a xlink:href="lifter_8c.html#a78640d547d9361951a92d0bc00939536" target="_top" xlink:title="Sets the secondary lifter motors to the given value. ">
<polygon fill="none" stroke="#ff0000" points="331.3516,-298.7279 331.3516,-326.7279 436.8438,-326.7279 436.8438,-298.7279 331.3516,-298.7279"/>
<text text-anchor="start" x="339.3516" y="-314.7279" font-family="Helvetica,sans-Serif" font-size="10.00" fill="#000000">set_secondary_lifter</text>
<text text-anchor="middle" x="384.0977" y="-304.7279" font-family="Helvetica,sans-Serif" font-size="10.00" fill="#000000">_motors</text>
</a>
</g>
</g>
<!-- Node107&#45;&gt;Node113 -->
<g id="edge28" class="edge">
<title>Node107&#45;&gt;Node113</title>
<path fill="none" stroke="#191970" d="M299.8439,-311.6094C310.2521,-311.7475 320.8908,-311.8888 330.9502,-312.0223"/>
<polygon fill="#191970" stroke="#191970" points="299.5883,-308.1057 289.5427,-311.4726 299.4953,-315.1051 299.5883,-308.1057"/>
</g>
<!-- Node118 -->
<g id="node20" class="node">
<title>Node118</title>
<g id="a_node20"><a xlink:href="mobile__goal__intake_8c.html#ab31e12bb0fa46c77906a048666b699d5" target="_top" xlink:title="sets the intake motor ">
<polygon fill="none" stroke="#ff0000" points="492.2944,-153.7279 492.2944,-171.7279 585.0034,-171.7279 585.0034,-153.7279 492.2944,-153.7279"/>
<text text-anchor="middle" x="538.6489" y="-159.7279" font-family="Helvetica,sans-Serif" font-size="10.00" fill="#000000">set_intake_motor</text>
</a>
</g>
</g>
<!-- Node107&#45;&gt;Node118 -->
<g id="edge32" class="edge">
<title>Node107&#45;&gt;Node118</title>
<path fill="none" stroke="#191970" d="M279.7124,-297.0199C283.2567,-294.9177 286.5894,-292.502 289.5215,-289.7279 318.434,-262.3734 294.6376,-232.8353 325.5215,-207.7279 372.7648,-169.3207 444.8817,-161.424 491.9001,-160.8523"/>
<polygon fill="#191970" stroke="#191970" points="277.929,-293.9992 270.574,-301.6251 281.0793,-300.2503 277.929,-293.9992"/>
</g>
<!-- Node108&#45;&gt;Node101 -->
<g id="edge23" class="edge">
<title>Node108&#45;&gt;Node101</title>
<path fill="none" stroke="#191970" d="M437.1781,-353.3541C456.229,-352.861 477.4618,-352.3115 495.5609,-351.8431"/>
<polygon fill="#191970" stroke="#191970" points="437.0549,-349.856 427.1488,-353.6137 437.236,-356.8537 437.0549,-349.856"/>
</g>
<!-- Node108&#45;&gt;Node102 -->
<g id="edge24" class="edge">
<title>Node108&#45;&gt;Node102</title>
<path fill="none" stroke="#191970" d="M428.4741,-367.196C433.3752,-369.135 438.2043,-371.31 442.6738,-373.7279 460.7447,-383.5038 459.2979,-395.8944 478.6738,-402.7279 546.4844,-426.6432 632.6483,-395.3606 670.4065,-378.8054"/>
<polygon fill="#191970" stroke="#191970" points="429.6299,-363.8921 419.036,-363.7563 427.233,-370.4689 429.6299,-363.8921"/>
</g>
<!-- Node110&#45;&gt;Node92 -->
<g id="edge26" class="edge">
<title>Node110&#45;&gt;Node92</title>
<path fill="none" stroke="#191970" d="M578.4292,-187.615C585.1989,-185.4141 592.1359,-183.0708 598.624,-180.7279 622.8393,-171.9835 650.1389,-160.6818 668.4595,-152.882"/>
<polygon fill="#191970" stroke="#191970" points="577.1639,-184.3448 568.7025,-190.721 579.2933,-191.0131 577.1639,-184.3448"/>
</g>
<!-- Node113&#45;&gt;Node92 -->
<g id="edge29" class="edge">
<title>Node113&#45;&gt;Node92</title>
<path fill="none" stroke="#191970" d="M447.124,-306.0646C492.2392,-298.932 552.8456,-284.3386 598.624,-254.7279 640.8845,-227.3927 673.094,-174.085 684.802,-152.8122"/>
<polygon fill="#191970" stroke="#191970" points="446.5369,-302.6134 437.1667,-307.5581 447.5753,-309.536 446.5369,-302.6134"/>
</g>
<!-- Node113&#45;&gt;Node101 -->
<g id="edge30" class="edge">
<title>Node113&#45;&gt;Node101</title>
<path fill="none" stroke="#191970" d="M446.772,-328.1378C465.4294,-332.7252 485.2652,-337.6023 501.7129,-341.6463"/>
<polygon fill="#191970" stroke="#191970" points="447.3996,-324.688 436.8532,-325.699 445.7283,-331.4855 447.3996,-324.688"/>
</g>
<!-- Node113&#45;&gt;Node102 -->
<g id="edge31" class="edge">
<title>Node113&#45;&gt;Node102</title>
<path fill="none" stroke="#191970" d="M432.8917,-331.1374C436.2732,-332.8917 439.5681,-334.7573 442.6738,-336.7279 461.001,-348.3565 458.4452,-361.8593 478.6738,-369.7279 533.1073,-390.9016 601.5892,-385.6909 645.4834,-378.7538"/>
<polygon fill="#191970" stroke="#191970" points="434.3367,-327.9485 423.8089,-326.7578 431.2963,-334.2538 434.3367,-327.9485"/>
</g>
<!-- Node118&#45;&gt;Node92 -->
<g id="edge33" class="edge">
<title>Node118&#45;&gt;Node92</title>
<path fill="none" stroke="#191970" d="M595.274,-155.6004C614.9742,-153.1207 636.5049,-150.4106 654.0153,-148.2065"/>
<polygon fill="#191970" stroke="#191970" points="594.6545,-152.1507 585.1699,-156.8722 595.5288,-159.0959 594.6545,-152.1507"/>
</g>
</g>
</svg>
