<?xml version="1.0" encoding="UTF-8" standalone="no"?>
<!DOCTYPE svg PUBLIC "-//W3C//DTD SVG 1.1//EN"
 "http://www.w3.org/Graphics/SVG/1.1/DTD/svg11.dtd">
<!-- Generated by graphviz version 2.40.1 (20161225.0304)
 -->
<!-- Title: include/log.h Pages: 1 -->
<svg width="87pt" height="137pt"
 viewBox="0.00 0.00 86.64 137.00" xmlns="http://www.w3.org/2000/svg" xmlns:xlink="http://www.w3.org/1999/xlink">
<g id="graph0" class="graph" transform="scale(1 1) rotate(0) translate(4 133)">
<title>include/log.h</title>
<!-- Node0 -->
<g id="node1" class="node">
<title>Node0</title>
<polygon fill="#bfbfbf" stroke="#000000" points="0,-110.5 0,-128.5 72.1523,-128.5 72.1523,-110.5 0,-110.5"/>
<text text-anchor="middle" x="36.0762" y="-116.5" font-family="Helvetica,sans-Serif" font-size="10.00" fill="#000000">include/log.h</text>
</g>
<!-- Node1 -->
<g id="node2" class="node">
<title>Node1</title>
<polygon fill="none" stroke="#bfbfbf" points="15.8472,-.5 15.8472,-18.5 56.3052,-18.5 56.3052,-.5 15.8472,-.5"/>
<text text-anchor="middle" x="36.0762" y="-6.5" font-family="Helvetica,sans-Serif" font-size="10.00" fill="#000000">API.h</text>
</g>
<!-- Node0&#45;&gt;Node1 -->
<g id="edge1" class="edge">
<title>Node0&#45;&gt;Node1</title>
<path fill="none" stroke="#191970" d="M35.0451,-110.451C34.0557,-101.28 32.6323,-86.6754 32.0762,-74 31.4068,-58.7422 32.5803,-41.4736 33.826,-28.6468"/>
<polygon fill="#191970" stroke="#191970" points="37.3085,-28.9965 34.8949,-18.6803 30.3484,-28.25 37.3085,-28.9965"/>
</g>
<!-- Node2 -->
<g id="node3" class="node">
<title>Node2</title>
<g id="a_node3"><a xlink:href="lcd_8h.html" target="_top" xlink:title="LCD wrapper functions and macros. ">
<polygon fill="none" stroke="#000000" points="41.5146,-55.5 41.5146,-73.5 78.6377,-73.5 78.6377,-55.5 41.5146,-55.5"/>
<text text-anchor="middle" x="60.0762" y="-61.5" font-family="Helvetica,sans-Serif" font-size="10.00" fill="#000000">lcd.h</text>
</a>
</g>
</g>
<!-- Node0&#45;&gt;Node2 -->
<g id="edge2" class="edge">
<title>Node0&#45;&gt;Node2</title>
<path fill="none" stroke="#191970" d="M40.0393,-110.4179C43.2854,-102.9789 47.9835,-92.2123 52.0147,-82.9742"/>
<polygon fill="#191970" stroke="#191970" points="55.2353,-84.3447 56.027,-73.7795 48.8196,-81.545 55.2353,-84.3447"/>
</g>
<!-- Node2&#45;&gt;Node1 -->
<g id="edge3" class="edge">
<title>Node2&#45;&gt;Node1</title>
<path fill="none" stroke="#191970" d="M56.1131,-55.4179C52.867,-47.9789 48.1688,-37.2123 44.1376,-27.9742"/>
<polygon fill="#191970" stroke="#191970" points="47.3328,-26.545 40.1254,-18.7795 40.917,-29.3447 47.3328,-26.545"/>
</g>
</g>
</svg>
