<?xml version="1.0" encoding="UTF-8" standalone="no"?>
<!DOCTYPE svg PUBLIC "-//W3C//DTD SVG 1.1//EN"
 "http://www.w3.org/Graphics/SVG/1.1/DTD/svg11.dtd">
<!-- Generated by graphviz version 2.40.1 (20161225.0304)
 -->
<!-- Title: error Pages: 1 -->
<svg width="253pt" height="101pt"
 viewBox="0.00 0.00 252.51 101.00" xmlns="http://www.w3.org/2000/svg" xmlns:xlink="http://www.w3.org/1999/xlink">
<g id="graph0" class="graph" transform="scale(1 1) rotate(0) translate(4 97)">
<title>error</title>
<!-- Node5 -->
<g id="node1" class="node">
<title>Node5</title>
<polygon fill="#bfbfbf" stroke="#000000" points="0,-37.5 0,-55.5 37.1133,-55.5 37.1133,-37.5 0,-37.5"/>
<text text-anchor="middle" x="18.5566" y="-43.5" font-family="Helvetica,sans-Serif" font-size="10.00" fill="#000000">error</text>
</g>
<!-- Node6 -->
<g id="node2" class="node">
<title>Node6</title>
<g id="a_node2"><a xlink:href="log_8c.html#afff22aff6749311a684a559cac3ac8bd" target="_top" xlink:title="log_info">
<polygon fill="none" stroke="#000000" points="73.1133,-37.5 73.1133,-55.5 124.1426,-55.5 124.1426,-37.5 73.1133,-37.5"/>
<text text-anchor="middle" x="98.6279" y="-43.5" font-family="Helvetica,sans-Serif" font-size="10.00" fill="#000000">log_info</text>
</a>
</g>
</g>
<!-- Node5&#45;&gt;Node6 -->
<g id="edge1" class="edge">
<title>Node5&#45;&gt;Node6</title>
<path fill="none" stroke="#191970" d="M37.1279,-46.5C44.7651,-46.5 53.8819,-46.5 62.7267,-46.5"/>
<polygon fill="#191970" stroke="#191970" points="62.8798,-50.0001 72.8797,-46.5 62.8797,-43.0001 62.8798,-50.0001"/>
</g>
<!-- Node7 -->
<g id="node3" class="node">
<title>Node7</title>
<g id="a_node3"><a xlink:href="_a_p_i_8h.html#a403c82418e475fa4a8273719e6a7f3e6" target="_top" xlink:title="printf">
<polygon fill="none" stroke="#000000" points="183.2114,-74.5 183.2114,-92.5 221.4429,-92.5 221.4429,-74.5 183.2114,-74.5"/>
<text text-anchor="middle" x="202.3271" y="-80.5" font-family="Helvetica,sans-Serif" font-size="10.00" fill="#000000">printf</text>
</a>
</g>
</g>
<!-- Node6&#45;&gt;Node7 -->
<g id="edge2" class="edge">
<title>Node6&#45;&gt;Node7</title>
<path fill="none" stroke="#191970" d="M123.9956,-55.5512C138.9484,-60.8864 157.9178,-67.6547 173.4439,-73.1944"/>
<polygon fill="#191970" stroke="#191970" points="172.4781,-76.5659 183.0727,-76.63 174.8305,-69.973 172.4781,-76.5659"/>
</g>
<!-- Node8 -->
<g id="node4" class="node">
<title>Node8</title>
<g id="a_node4"><a xlink:href="_a_p_i_8h.html#aeafd247b27813122cfee95e0cecf188b" target="_top" xlink:title="lcdSetBacklight">
<polygon fill="none" stroke="#000000" points="160.1426,-37.5 160.1426,-55.5 244.5117,-55.5 244.5117,-37.5 160.1426,-37.5"/>
<text text-anchor="middle" x="202.3271" y="-43.5" font-family="Helvetica,sans-Serif" font-size="10.00" fill="#000000">lcdSetBacklight</text>
</a>
</g>
</g>
<!-- Node6&#45;&gt;Node8 -->
<g id="edge3" class="edge">
<title>Node6&#45;&gt;Node8</title>
<path fill="none" stroke="#191970" d="M124.2615,-46.5C132.1053,-46.5 141.0355,-46.5 149.9852,-46.5"/>
<polygon fill="#191970" stroke="#191970" points="150.0412,-50.0001 160.0412,-46.5 150.0412,-43.0001 150.0412,-50.0001"/>
</g>
<!-- Node9 -->
<g id="node5" class="node">
<title>Node9</title>
<g id="a_node5"><a xlink:href="_a_p_i_8h.html#aa53f19724bcf9f7bf1b4468b5982553b" target="_top" xlink:title="lcdClear">
<polygon fill="none" stroke="#000000" points="175.9873,-.5 175.9873,-18.5 228.667,-18.5 228.667,-.5 175.9873,-.5"/>
<text text-anchor="middle" x="202.3271" y="-6.5" font-family="Helvetica,sans-Serif" font-size="10.00" fill="#000000">lcdClear</text>
</a>
</g>
</g>
<!-- Node6&#45;&gt;Node9 -->
<g id="edge4" class="edge">
<title>Node6&#45;&gt;Node9</title>
<path fill="none" stroke="#191970" d="M123.9956,-37.4488C137.0521,-32.7902 153.1711,-27.0389 167.386,-21.967"/>
<polygon fill="#191970" stroke="#191970" points="168.6197,-25.243 176.862,-18.586 166.2673,-18.6501 168.6197,-25.243"/>
</g>
</g>
</svg>
