<?xml version="1.0" encoding="UTF-8" standalone="no"?>
<!DOCTYPE svg PUBLIC "-//W3C//DTD SVG 1.1//EN"
 "http://www.w3.org/Graphics/SVG/1.1/DTD/svg11.dtd">
<!-- Generated by graphviz version 2.40.1 (20161225.0304)
 -->
<!-- Title: warning Pages: 1 -->
<svg width="266pt" height="138pt"
 viewBox="0.00 0.00 266.42 138.00" xmlns="http://www.w3.org/2000/svg" xmlns:xlink="http://www.w3.org/1999/xlink">
<g id="graph0" class="graph" transform="scale(1 1) rotate(0) translate(4 134)">
<title>warning</title>
<!-- Node83 -->
<g id="node1" class="node">
<title>Node83</title>
<polygon fill="#bfbfbf" stroke="#000000" points="0,-55.5 0,-73.5 51.0195,-73.5 51.0195,-55.5 0,-55.5"/>
<text text-anchor="middle" x="25.5098" y="-61.5" font-family="Helvetica,sans-Serif" font-size="10.00" fill="#000000">warning</text>
</g>
<!-- Node84 -->
<g id="node2" class="node">
<title>Node84</title>
<g id="a_node2"><a xlink:href="log_8c.html#afff22aff6749311a684a559cac3ac8bd" target="_top" xlink:title="prints a log info message to the lcd ">
<polygon fill="none" stroke="#000000" points="87.0195,-55.5 87.0195,-73.5 138.0488,-73.5 138.0488,-55.5 87.0195,-55.5"/>
<text text-anchor="middle" x="112.5342" y="-61.5" font-family="Helvetica,sans-Serif" font-size="10.00" fill="#000000">log_info</text>
</a>
</g>
</g>
<!-- Node83&#45;&gt;Node84 -->
<g id="edge1" class="edge">
<title>Node83&#45;&gt;Node84</title>
<path fill="none" stroke="#191970" d="M51.1493,-64.5C59.1336,-64.5 68.0896,-64.5 76.6405,-64.5"/>
<polygon fill="#191970" stroke="#191970" points="76.7772,-68.0001 86.7772,-64.5 76.7772,-61.0001 76.7772,-68.0001"/>
</g>
<!-- Node85 -->
<g id="node3" class="node">
<title>Node85</title>
<g id="a_node3"><a xlink:href="_a_p_i_8h.html#a403c82418e475fa4a8273719e6a7f3e6" target="_top" xlink:title="Prints the formatted string to the debug stream (the PC terminal). ">
<polygon fill="none" stroke="#000000" points="197.1177,-111.5 197.1177,-129.5 235.3491,-129.5 235.3491,-111.5 197.1177,-111.5"/>
<text text-anchor="middle" x="216.2334" y="-117.5" font-family="Helvetica,sans-Serif" font-size="10.00" fill="#000000">printf</text>
</a>
</g>
</g>
<!-- Node84&#45;&gt;Node85 -->
<g id="edge2" class="edge">
<title>Node84&#45;&gt;Node85</title>
<path fill="none" stroke="#191970" d="M125.8755,-73.5526C138.1122,-81.6578 156.8869,-93.6016 174.0488,-102.5 178.4139,-104.7632 183.1275,-106.9819 187.7676,-109.0459"/>
<polygon fill="#191970" stroke="#191970" points="186.4837,-112.3035 197.0536,-113.0298 189.2437,-105.8706 186.4837,-112.3035"/>
</g>
<!-- Node86 -->
<g id="node4" class="node">
<title>Node86</title>
<g id="a_node4"><a xlink:href="_a_p_i_8h.html#aab53a247d88151a6623c20fa1ea940b0" target="_top" xlink:title="Sets the specified LCD backlight to be on or off. ">
<polygon fill="none" stroke="#000000" points="174.0488,-74.5 174.0488,-92.5 258.418,-92.5 258.418,-74.5 174.0488,-74.5"/>
<text text-anchor="middle" x="216.2334" y="-80.5" font-family="Helvetica,sans-Serif" font-size="10.00" fill="#000000">lcdSetBacklight</text>
</a>
</g>
</g>
<!-- Node84&#45;&gt;Node86 -->
<g id="edge3" class="edge">
<title>Node84&#45;&gt;Node86</title>
<path fill="none" stroke="#191970" d="M138.1677,-69.1966C146.0116,-70.6338 154.9418,-72.27 163.8915,-73.9098"/>
<polygon fill="#191970" stroke="#191970" points="163.4804,-77.3927 173.9475,-75.7523 164.742,-70.5073 163.4804,-77.3927"/>
</g>
<!-- Node87 -->
<g id="node5" class="node">
<title>Node87</title>
<g id="a_node5"><a xlink:href="_a_p_i_8h.html#a5fa1d119fe3e836b5519f97eae7a1272" target="_top" xlink:title="Clears the LCD screen on the specified port. ">
<polygon fill="none" stroke="#000000" points="189.8936,-37.5 189.8936,-55.5 242.5732,-55.5 242.5732,-37.5 189.8936,-37.5"/>
<text text-anchor="middle" x="216.2334" y="-43.5" font-family="Helvetica,sans-Serif" font-size="10.00" fill="#000000">lcdClear</text>
</a>
</g>
</g>
<!-- Node84&#45;&gt;Node87 -->
<g id="edge4" class="edge">
<title>Node84&#45;&gt;Node87</title>
<path fill="none" stroke="#191970" d="M138.1677,-60.0506C150.6898,-57.877 165.9803,-55.2229 179.6993,-52.8415"/>
<polygon fill="#191970" stroke="#191970" points="180.558,-56.2449 189.8121,-51.0862 179.3608,-49.348 180.558,-56.2449"/>
</g>
<!-- Node88 -->
<g id="node6" class="node">
<title>Node88</title>
<g id="a_node6"><a xlink:href="_a_p_i_8h.html#a6cfad8271c6a566a2f51ca318f819a80" target="_top" xlink:title="Prints the formatted string to the attached LCD. ">
<polygon fill="none" stroke="#000000" points="191.561,-.5 191.561,-18.5 240.9058,-18.5 240.9058,-.5 191.561,-.5"/>
<text text-anchor="middle" x="216.2334" y="-6.5" font-family="Helvetica,sans-Serif" font-size="10.00" fill="#000000">lcdPrint</text>
</a>
</g>
</g>
<!-- Node84&#45;&gt;Node88 -->
<g id="edge5" class="edge">
<title>Node84&#45;&gt;Node88</title>
<path fill="none" stroke="#191970" d="M126.9559,-55.4724C139.2696,-47.9076 157.554,-37.0107 174.0488,-28.5 177.8231,-26.5526 181.8379,-24.5991 185.8328,-22.7251"/>
<polygon fill="#191970" stroke="#191970" points="187.3557,-25.8774 194.9957,-18.537 184.4457,-19.5109 187.3557,-25.8774"/>
</g>
</g>
</svg>
