<?xml version="1.0" encoding="UTF-8" standalone="no"?>
<!DOCTYPE svg PUBLIC "-//W3C//DTD SVG 1.1//EN"
 "http://www.w3.org/Graphics/SVG/1.1/DTD/svg11.dtd">
<!-- Generated by graphviz version 2.40.1 (20161225.0304)
 -->
<!-- Title: log_info Pages: 1 -->
<!--zoomable 478 -->
<svg id="main" version="1.1" xmlns="http://www.w3.org/2000/svg" xmlns:xlink="http://www.w3.org/1999/xlink" xml:space="preserve" onload="init(evt)">
<style type="text/css"><![CDATA[
.edge:hover path { stroke: red; }
.edge:hover polygon { stroke: red; fill: red; }
]]></style>
<script type="text/javascript"><![CDATA[
var edges = document.getElementsByTagName('g');
if (edges && edges.length) {
  for (var i=0;i<edges.length;i++) {
    if (edges[i].id.substr(0,4)=='edge') {
      edges[i].setAttribute('class','edge');
    }
  }
}
]]></script>
        <defs>
                <circle id="rim" cx="0" cy="0" r="7"/>
                <circle id="rim2" cx="0" cy="0" r="3.5"/>
                <g id="zoomPlus">
                        <use xlink:href="#rim" fill="#404040">
                                <set attributeName="fill" to="#808080" begin="zoomplus.mouseover" end="zoomplus.mouseout"/>
                        </use>
                        <path d="M-4,0h8M0,-4v8" fill="none" stroke="white" stroke-width="1.5" pointer-events="none"/>
                </g>
                <g id="zoomMin">
                        <use xlink:href="#rim" fill="#404040">
                                <set attributeName="fill" to="#808080" begin="zoomminus.mouseover" end="zoomminus.mouseout"/>
                        </use>
                        <path d="M-4,0h8" fill="none" stroke="white" stroke-width="1.5" pointer-events="none"/>
                </g>
                <g id="dirArrow">
                        <path fill="none" stroke="white" stroke-width="1.5" d="M0,-3.0v7 M-2.5,-0.5L0,-3.0L2.5,-0.5"/>
                </g>
               <g id="resetDef">
                       <use xlink:href="#rim2" fill="#404040">
                               <set attributeName="fill" to="#808080" begin="reset.mouseover" end="reset.mouseout"/>
                       </use>
               </g>
        </defs>

<script type="text/javascript">
var viewWidth = 909;
var viewHeight = 478;
var sectionId = 'dynsection-9';
</script>
<script xlink:href="svgpan.js"/>
<svg id="graph" class="graph">
<g id="viewport">
<title>log_info</title>
<!-- Node57 -->
<g id="node1" class="node">
<title>Node57</title>
<polygon fill="#bfbfbf" stroke="#000000" points="0,-339.5 0,-357.5 51.0293,-357.5 51.0293,-339.5 0,-339.5"/>
<text text-anchor="middle" x="25.5146" y="-345.5" font-family="Helvetica,sans-Serif" font-size="10.00" fill="#000000">log_info</text>
</g>
<!-- Node58 -->
<g id="node2" class="node">
<title>Node58</title>
<g id="a_node2"><a xlink:href="log_8c.html#a8e5bb8a2a372f5b066ff7af7044584c1" target="_top" xlink:title="prints a error message and displays on lcd. Only will print and display if log_level is greater than ...">
<polygon fill="none" stroke="#000000" points="93.9824,-367.5 93.9824,-385.5 131.0957,-385.5 131.0957,-367.5 93.9824,-367.5"/>
<text text-anchor="middle" x="112.5391" y="-373.5" font-family="Helvetica,sans-Serif" font-size="10.00" fill="#000000">error</text>
</a>
</g>
</g>
<!-- Node57&#45;&gt;Node58 -->
<g id="edge1" class="edge">
<title>Node57&#45;&gt;Node58</title>
<path fill="none" stroke="#191970" d="M60.78,-359.8466C72.0486,-363.4723 84.0833,-367.3444 93.7097,-370.4417"/>
<polygon fill="#191970" stroke="#191970" points="61.7456,-356.4806 51.1542,-356.7495 59.6015,-363.1442 61.7456,-356.4806"/>
</g>
<!-- Node63 -->
<g id="node7" class="node">
<title>Node63</title>
<g id="a_node7"><a xlink:href="log_8c.html#a0bec2cf5fff7f607bc510b74aba9887c" target="_top" xlink:title="prints a warning message and displays on lcd. Only will print and display if log_level is greater tha...">
<polygon fill="none" stroke="#000000" points="87.0293,-321.5 87.0293,-339.5 138.0488,-339.5 138.0488,-321.5 87.0293,-321.5"/>
<text text-anchor="middle" x="112.5391" y="-327.5" font-family="Helvetica,sans-Serif" font-size="10.00" fill="#000000">warning</text>
</a>
</g>
</g>
<!-- Node57&#45;&gt;Node63 -->
<g id="edge6" class="edge">
<title>Node57&#45;&gt;Node63</title>
<path fill="none" stroke="#191970" d="M61.001,-341.1601C69.6325,-339.3747 78.7005,-337.4991 86.7821,-335.8275"/>
<polygon fill="#191970" stroke="#191970" points="60.2379,-337.7437 51.1542,-343.1968 61.6558,-344.5986 60.2379,-337.7437"/>
</g>
<!-- Node59 -->
<g id="node3" class="node">
<title>Node59</title>
<g id="a_node3"><a xlink:href="menu_8c.html#aff4fd27ff7707295d91c67fa52a6b021" target="_top" xlink:title="create_menu">
<polygon fill="none" stroke="#000000" points="174.0488,-395.5 174.0488,-413.5 248.418,-413.5 248.418,-395.5 174.0488,-395.5"/>
<text text-anchor="middle" x="211.2334" y="-401.5" font-family="Helvetica,sans-Serif" font-size="10.00" fill="#000000">create_menu</text>
</a>
</g>
</g>
<!-- Node58&#45;&gt;Node59 -->
<g id="edge2" class="edge">
<title>Node58&#45;&gt;Node59</title>
<path fill="none" stroke="#191970" d="M140.9854,-384.5703C152.9216,-387.9567 166.859,-391.9108 179.1582,-395.4001"/>
<polygon fill="#191970" stroke="#191970" points="141.6783,-381.1289 131.1027,-381.7666 139.7678,-387.8631 141.6783,-381.1289"/>
</g>
<!-- Node60 -->
<g id="node4" class="node">
<title>Node60</title>
<g id="a_node4"><a xlink:href="menu_8c.html#a3529988b0a7c12cb3f2ebb3cf5595594" target="_top" xlink:title="Creates a menu context, but does not display. &#160;Menu must be freed or will cause memory leak &#160;...">
<polygon fill="none" stroke="#000000" points="301.0879,-451.5 301.0879,-469.5 379.9004,-469.5 379.9004,-451.5 301.0879,-451.5"/>
<text text-anchor="middle" x="340.4941" y="-457.5" font-family="Helvetica,sans-Serif" font-size="10.00" fill="#000000">init_menu_var</text>
</a>
</g>
</g>
<!-- Node59&#45;&gt;Node60 -->
<g id="edge3" class="edge">
<title>Node59&#45;&gt;Node60</title>
<path fill="none" stroke="#191970" d="M235.8223,-418.5898C249.7956,-426.258 267.775,-435.5661 284.418,-442.5 292.2518,-445.7638 300.9004,-448.8033 309.0121,-451.421"/>
<polygon fill="#191970" stroke="#191970" points="237.2933,-415.4028 226.8542,-413.5923 233.8858,-421.5175 237.2933,-415.4028"/>
</g>
<!-- Node61 -->
<g id="node5" class="node">
<title>Node61</title>
<g id="a_node5"><a xlink:href="menu_8c.html#ac8efedba760ec35ebf841ab19543ba5a" target="_top" xlink:title="Creates a menu context, but does not display. &#160;Menu must be freed or will cause memory leak &#160;...">
<polygon fill="none" stroke="#000000" points="302.7529,-414.5 302.7529,-432.5 378.2354,-432.5 378.2354,-414.5 302.7529,-414.5"/>
<text text-anchor="middle" x="340.4941" y="-420.5" font-family="Helvetica,sans-Serif" font-size="10.00" fill="#000000">init_menu_int</text>
</a>
</g>
</g>
<!-- Node59&#45;&gt;Node61 -->
<g id="edge4" class="edge">
<title>Node59&#45;&gt;Node61</title>
<path fill="none" stroke="#191970" d="M258.8887,-411.5048C273.3483,-413.6303 289.028,-415.935 302.7428,-417.9509"/>
<polygon fill="#191970" stroke="#191970" points="259.0237,-407.9871 248.621,-409.9956 258.0056,-414.9127 259.0237,-407.9871"/>
</g>
<!-- Node62 -->
<g id="node6" class="node">
<title>Node62</title>
<g id="a_node6"><a xlink:href="menu_8c.html#a5abb752733423805f59ef3b92e3c2e57" target="_top" xlink:title="Creates a menu context, but does not display. &#160;Menu must be freed or will cause memory leak! &#160;...">
<polygon fill="none" stroke="#000000" points="298.583,-377.5 298.583,-395.5 382.4053,-395.5 382.4053,-377.5 298.583,-377.5"/>
<text text-anchor="middle" x="340.4941" y="-383.5" font-family="Helvetica,sans-Serif" font-size="10.00" fill="#000000">init_menu_float</text>
</a>
</g>
</g>
<!-- Node59&#45;&gt;Node62 -->
<g id="edge5" class="edge">
<title>Node59&#45;&gt;Node62</title>
<path fill="none" stroke="#191970" d="M258.7335,-397.8854C271.6608,-396.0853 285.5735,-394.1479 298.1917,-392.3908"/>
<polygon fill="#191970" stroke="#191970" points="258.0426,-394.4478 248.621,-399.2937 259.0082,-401.3809 258.0426,-394.4478"/>
</g>
<!-- Node64 -->
<g id="node8" class="node">
<title>Node64</title>
<g id="a_node8"><a xlink:href="slew_8c.html#a321758941d88b75783955c819bb75005" target="_top" xlink:title="Initializes the slew rate controller. ">
<polygon fill="none" stroke="#000000" points="184.0586,-302.5 184.0586,-320.5 238.4082,-320.5 238.4082,-302.5 184.0586,-302.5"/>
<text text-anchor="middle" x="211.2334" y="-308.5" font-family="Helvetica,sans-Serif" font-size="10.00" fill="#000000">init_slew</text>
</a>
</g>
</g>
<!-- Node63&#45;&gt;Node64 -->
<g id="edge7" class="edge">
<title>Node63&#45;&gt;Node64</title>
<path fill="none" stroke="#191970" d="M148.2035,-323.6341C159.9896,-321.3651 172.9065,-318.8784 183.9616,-316.7502"/>
<polygon fill="#191970" stroke="#191970" points="147.3702,-320.2302 138.2122,-325.5576 148.6936,-327.104 147.3702,-320.2302"/>
</g>
<!-- Node65 -->
<g id="node9" class="node">
<title>Node65</title>
<g id="a_node9"><a xlink:href="init_8c.html#a25a40b6614565f755233080a384c35f1" target="_top" xlink:title="initialize">
<polygon fill="none" stroke="#000000" points="314.7085,-340.5 314.7085,-358.5 366.2798,-358.5 366.2798,-340.5 314.7085,-340.5"/>
<text text-anchor="middle" x="340.4941" y="-346.5" font-family="Helvetica,sans-Serif" font-size="10.00" fill="#000000">initialize</text>
</a>
</g>
</g>
<!-- Node64&#45;&gt;Node65 -->
<g id="edge8" class="edge">
<title>Node64&#45;&gt;Node65</title>
<path fill="none" stroke="#191970" d="M248.2852,-322.3925C269.4405,-328.6117 295.4481,-336.2574 314.4432,-341.8416"/>
<polygon fill="#191970" stroke="#191970" points="249.2275,-319.0214 238.6463,-319.5588 247.2531,-325.7372 249.2275,-319.0214"/>
</g>
<!-- Node66 -->
<g id="node10" class="node">
<title>Node66</title>
<g id="a_node10"><a xlink:href="opcontrol_8c.html#ac71a94af413917f27d108e95c4d6f6a7" target="_top" xlink:title="operatorControl">
<polygon fill="none" stroke="#000000" points="815.377,-188.5 815.377,-206.5 900.8594,-206.5 900.8594,-188.5 815.377,-188.5"/>
<text text-anchor="middle" x="858.1182" y="-194.5" font-family="Helvetica,sans-Serif" font-size="10.00" fill="#000000">operatorControl</text>
</a>
</g>
</g>
<!-- Node64&#45;&gt;Node66 -->
<g id="edge9" class="edge">
<title>Node64&#45;&gt;Node66</title>
<path fill="none" stroke="#191970" d="M248.6354,-311.5C300.3855,-311.5 396.7499,-311.5 478.9248,-311.5 478.9248,-311.5 478.9248,-311.5 597.3555,-311.5 679.998,-311.5 706.3326,-312.1564 779.377,-273.5 811.283,-256.6147 839.2025,-222.9295 851.4778,-206.6829"/>
<polygon fill="#191970" stroke="#191970" points="248.5942,-308.0001 238.5941,-311.5 248.5941,-315.0001 248.5942,-308.0001"/>
</g>
<!-- Node67 -->
<g id="node11" class="node">
<title>Node67</title>
<g id="a_node11"><a xlink:href="slew_8c.html#a7dff2b79dffe55fb936d977594d7c01d" target="_top" xlink:title="Sets motor speed wrapped inside the slew rate controller. ">
<polygon fill="none" stroke="#000000" points="297.4795,-264.5 297.4795,-282.5 383.5088,-282.5 383.5088,-264.5 297.4795,-264.5"/>
<text text-anchor="middle" x="340.4941" y="-270.5" font-family="Helvetica,sans-Serif" font-size="10.00" fill="#000000">set_motor_slew</text>
</a>
</g>
</g>
<!-- Node64&#45;&gt;Node67 -->
<g id="edge10" class="edge">
<title>Node64&#45;&gt;Node67</title>
<path fill="none" stroke="#191970" d="M248.3518,-300.588C267.709,-294.8973 291.1145,-288.0166 309.4919,-282.614"/>
<polygon fill="#191970" stroke="#191970" points="247.2531,-297.2628 238.6463,-303.4412 249.2275,-303.9786 247.2531,-297.2628"/>
</g>
<!-- Node74 -->
<g id="node18" class="node">
<title>Node74</title>
<g id="a_node18"><a xlink:href="slew_8c.html#a9f8b8ae577ef938622024545711f0151" target="_top" xlink:title="set_motor_immediate">
<polygon fill="none" stroke="#000000" points="284.418,-113.5 284.418,-131.5 396.5703,-131.5 396.5703,-113.5 284.418,-113.5"/>
<text text-anchor="middle" x="340.4941" y="-119.5" font-family="Helvetica,sans-Serif" font-size="10.00" fill="#000000">set_motor_immediate</text>
</a>
</g>
</g>
<!-- Node64&#45;&gt;Node74 -->
<g id="edge21" class="edge">
<title>Node64&#45;&gt;Node74</title>
<path fill="none" stroke="#191970" d="M223.1468,-294.0807C249.9341,-254.9134 314.1506,-161.0185 334.3222,-131.5244"/>
<polygon fill="#191970" stroke="#191970" points="220.2242,-292.1541 217.4679,-302.3841 226.0021,-296.1058 220.2242,-292.1541"/>
</g>
<!-- Node68 -->
<g id="node12" class="node">
<title>Node68</title>
<g id="a_node12"><a xlink:href="drive_8c.html#a8df41fd50094c065eedc81fc5e6595d1" target="_top" xlink:title="sets the speed of one side of the robot. ">
<polygon fill="none" stroke="#000000" points="435.8979,-264.5 435.8979,-282.5 521.9517,-282.5 521.9517,-264.5 435.8979,-264.5"/>
<text text-anchor="middle" x="478.9248" y="-270.5" font-family="Helvetica,sans-Serif" font-size="10.00" fill="#000000">set_side_speed</text>
</a>
</g>
</g>
<!-- Node67&#45;&gt;Node68 -->
<g id="edge11" class="edge">
<title>Node67&#45;&gt;Node68</title>
<path fill="none" stroke="#191970" d="M393.8453,-273.5C407.6029,-273.5 422.2444,-273.5 435.4331,-273.5"/>
<polygon fill="#191970" stroke="#191970" points="393.5357,-270.0001 383.5356,-273.5 393.5356,-277.0001 393.5357,-270.0001"/>
</g>
<!-- Node70 -->
<g id="node14" class="node">
<title>Node70</title>
<g id="a_node14"><a xlink:href="lifter_8c.html#aa62603df4d54dff2d7fd472d699e9b2e" target="_top" xlink:title="set_lifter_motors">
<polygon fill="none" stroke="#000000" points="433.9668,-208.5 433.9668,-226.5 523.8828,-226.5 523.8828,-208.5 433.9668,-208.5"/>
<text text-anchor="middle" x="478.9248" y="-214.5" font-family="Helvetica,sans-Serif" font-size="10.00" fill="#000000">set_lifter_motors</text>
</a>
</g>
</g>
<!-- Node67&#45;&gt;Node70 -->
<g id="edge14" class="edge">
<title>Node67&#45;&gt;Node70</title>
<path fill="none" stroke="#191970" d="M372.3655,-260.6069C398.0629,-250.2114 433.5627,-235.8505 456.3851,-226.6181"/>
<polygon fill="#191970" stroke="#191970" points="371.0012,-257.3832 363.0435,-264.378 373.6263,-263.8724 371.0012,-257.3832"/>
</g>
<!-- Node69 -->
<g id="node13" class="node">
<title>Node69</title>
<g id="a_node13"><a xlink:href="drive_8c.html#a8224a4626a934d30ed587671b7004bf8" target="_top" xlink:title="Updates the drive motors during teleop. ">
<polygon fill="none" stroke="#000000" points="669.4316,-245.5 669.4316,-263.5 779.377,-263.5 779.377,-245.5 669.4316,-245.5"/>
<text text-anchor="middle" x="724.4043" y="-251.5" font-family="Helvetica,sans-Serif" font-size="10.00" fill="#000000">update_drive_motors</text>
</a>
</g>
</g>
<!-- Node68&#45;&gt;Node69 -->
<g id="edge12" class="edge">
<title>Node68&#45;&gt;Node69</title>
<path fill="none" stroke="#191970" d="M532.191,-269.3772C572.737,-266.239 628.3645,-261.9334 669.3462,-258.7615"/>
<polygon fill="#191970" stroke="#191970" points="531.665,-265.9074 521.965,-270.1687 532.2053,-272.8865 531.665,-265.9074"/>
</g>
<!-- Node69&#45;&gt;Node66 -->
<g id="edge13" class="edge">
<title>Node69&#45;&gt;Node66</title>
<path fill="none" stroke="#191970" d="M754.9568,-241.476C779.887,-230.8487 814.4832,-216.1009 836.5872,-206.6783"/>
<polygon fill="#191970" stroke="#191970" points="753.4182,-238.327 745.5917,-245.4682 756.1632,-244.7664 753.4182,-238.327"/>
</g>
<!-- Node71 -->
<g id="node15" class="node">
<title>Node71</title>
<g id="a_node15"><a xlink:href="lifter_8c.html#aa7d2d04059f57cc5b8582f6fd0726dc1" target="_top" xlink:title="lower_lifter">
<polygon fill="none" stroke="#000000" points="565.1807,-226.5 565.1807,-244.5 629.5303,-244.5 629.5303,-226.5 565.1807,-226.5"/>
<text text-anchor="middle" x="597.3555" y="-232.5" font-family="Helvetica,sans-Serif" font-size="10.00" fill="#000000">lower_lifter</text>
</a>
</g>
</g>
<!-- Node70&#45;&gt;Node71 -->
<g id="edge15" class="edge">
<title>Node70&#45;&gt;Node71</title>
<path fill="none" stroke="#191970" d="M534.0563,-225.8793C544.6088,-227.4832 555.3351,-229.1134 564.8861,-230.5651"/>
<polygon fill="#191970" stroke="#191970" points="534.4486,-222.3988 524.0362,-224.3564 533.3967,-229.3193 534.4486,-222.3988"/>
</g>
<!-- Node72 -->
<g id="node16" class="node">
<title>Node72</title>
<g id="a_node16"><a xlink:href="lifter_8c.html#a59bb7413777ca16aba124aaedf95c79b" target="_top" xlink:title="update_lifter">
<polygon fill="none" stroke="#000000" points="688.8848,-188.5 688.8848,-206.5 759.9238,-206.5 759.9238,-188.5 688.8848,-188.5"/>
<text text-anchor="middle" x="724.4043" y="-194.5" font-family="Helvetica,sans-Serif" font-size="10.00" fill="#000000">update_lifter</text>
</a>
</g>
</g>
<!-- Node70&#45;&gt;Node72 -->
<g id="edge20" class="edge">
<title>Node70&#45;&gt;Node72</title>
<path fill="none" stroke="#191970" d="M534.0372,-213.0098C581.3778,-209.1528 648.2324,-203.706 688.8202,-200.3992"/>
<polygon fill="#191970" stroke="#191970" points="533.6323,-209.5311 523.9495,-213.8317 534.2007,-216.508 533.6323,-209.5311"/>
</g>
<!-- Node73 -->
<g id="node17" class="node">
<title>Node73</title>
<g id="a_node17"><a xlink:href="lifter_8c.html#a7452163ed7946b6262f41de51c62dfd4" target="_top" xlink:title="raise_lifter">
<polygon fill="none" stroke="#000000" points="566.2915,-150.5 566.2915,-168.5 628.4194,-168.5 628.4194,-150.5 566.2915,-150.5"/>
<text text-anchor="middle" x="597.3555" y="-156.5" font-family="Helvetica,sans-Serif" font-size="10.00" fill="#000000">raise_lifter</text>
</a>
</g>
</g>
<!-- Node70&#45;&gt;Node73 -->
<g id="edge18" class="edge">
<title>Node70&#45;&gt;Node73</title>
<path fill="none" stroke="#191970" d="M506.653,-203.9205C528.7958,-193.0763 559.2221,-178.1754 578.5898,-168.6903"/>
<polygon fill="#191970" stroke="#191970" points="504.871,-200.8959 497.4296,-208.4375 507.9498,-207.1825 504.871,-200.8959"/>
</g>
<!-- Node71&#45;&gt;Node72 -->
<g id="edge16" class="edge">
<title>Node71&#45;&gt;Node72</title>
<path fill="none" stroke="#191970" d="M637.2987,-223.5531C655.6529,-218.0634 677.0681,-211.6582 694.0713,-206.5725"/>
<polygon fill="#191970" stroke="#191970" points="636.0419,-220.2757 627.4643,-226.4945 638.0479,-226.9821 636.0419,-220.2757"/>
</g>
<!-- Node72&#45;&gt;Node66 -->
<g id="edge17" class="edge">
<title>Node72&#45;&gt;Node66</title>
<path fill="none" stroke="#191970" d="M770.4615,-197.5C784.9133,-197.5 800.8051,-197.5 815.0425,-197.5"/>
<polygon fill="#191970" stroke="#191970" points="770.2372,-194.0001 760.2372,-197.5 770.2371,-201.0001 770.2372,-194.0001"/>
</g>
<!-- Node73&#45;&gt;Node72 -->
<g id="edge19" class="edge">
<title>Node73&#45;&gt;Node72</title>
<path fill="none" stroke="#191970" d="M637.2987,-171.4469C655.6529,-176.9366 677.0681,-183.3418 694.0713,-188.4275"/>
<polygon fill="#191970" stroke="#191970" points="638.0479,-168.0179 627.4643,-168.5055 636.0419,-174.7243 638.0479,-168.0179"/>
</g>
<!-- Node75 -->
<g id="node19" class="node">
<title>Node75</title>
<g id="a_node19"><a xlink:href="claw_8c.html#a0122b78972344264b8a276a559cfce4a" target="_top" xlink:title="update_claw">
<polygon fill="none" stroke="#000000" points="561.2793,-113.5 561.2793,-131.5 633.4316,-131.5 633.4316,-113.5 561.2793,-113.5"/>
<text text-anchor="middle" x="597.3555" y="-119.5" font-family="Helvetica,sans-Serif" font-size="10.00" fill="#000000">update_claw</text>
</a>
</g>
</g>
<!-- Node74&#45;&gt;Node75 -->
<g id="edge22" class="edge">
<title>Node74&#45;&gt;Node75</title>
<path fill="none" stroke="#191970" d="M385.6083,-133.7173C400.4656,-136.8985 417.1342,-139.924 432.5703,-141.5 473.5612,-145.6852 484.417,-146.7954 525.2793,-141.5 540.2944,-139.5542 556.6398,-135.4183 569.9633,-131.5006"/>
<polygon fill="#191970" stroke="#191970" points="386.1702,-130.2569 375.6493,-131.506 384.6529,-137.0905 386.1702,-130.2569"/>
</g>
<!-- Node76 -->
<g id="node20" class="node">
<title>Node76</title>
<g id="a_node20"><a xlink:href="claw_8c.html#a03023ca28f671b9fa7bac07782ccd8c1" target="_top" xlink:title="open_claw">
<polygon fill="none" stroke="#000000" points="447.0186,-113.5 447.0186,-131.5 510.8311,-131.5 510.8311,-113.5 447.0186,-113.5"/>
<text text-anchor="middle" x="478.9248" y="-119.5" font-family="Helvetica,sans-Serif" font-size="10.00" fill="#000000">open_claw</text>
</a>
</g>
</g>
<!-- Node74&#45;&gt;Node76 -->
<g id="edge24" class="edge">
<title>Node74&#45;&gt;Node76</title>
<path fill="none" stroke="#191970" d="M406.8911,-122.5C420.8321,-122.5 434.9259,-122.5 446.9052,-122.5"/>
<polygon fill="#191970" stroke="#191970" points="406.7992,-119.0001 396.7992,-122.5 406.7992,-126.0001 406.7992,-119.0001"/>
</g>
<!-- Node77 -->
<g id="node21" class="node">
<title>Node77</title>
<g id="a_node21"><a xlink:href="claw_8c.html#ac42dd40dbb37219295286859c6b068c2" target="_top" xlink:title="close_claw">
<polygon fill="none" stroke="#000000" points="446.4692,-76.5 446.4692,-94.5 511.3804,-94.5 511.3804,-76.5 446.4692,-76.5"/>
<text text-anchor="middle" x="478.9248" y="-82.5" font-family="Helvetica,sans-Serif" font-size="10.00" fill="#000000">close_claw</text>
</a>
</g>
</g>
<!-- Node74&#45;&gt;Node77 -->
<g id="edge26" class="edge">
<title>Node74&#45;&gt;Node77</title>
<path fill="none" stroke="#191970" d="M384.2334,-110.8093C404.3601,-105.4298 427.8268,-99.1576 446.3637,-94.203"/>
<polygon fill="#191970" stroke="#191970" points="383.1152,-107.4852 374.3581,-113.4488 384.9227,-114.2478 383.1152,-107.4852"/>
</g>
<!-- Node78 -->
<g id="node22" class="node">
<title>Node78</title>
<g id="a_node22"><a xlink:href="mobile__goal__intake_8c.html#a8f215023832ba515d7b4535e3ae07498" target="_top" xlink:title="set_intake_motor">
<polygon fill="none" stroke="#000000" points="432.5703,-39.5 432.5703,-57.5 525.2793,-57.5 525.2793,-39.5 432.5703,-39.5"/>
<text text-anchor="middle" x="478.9248" y="-45.5" font-family="Helvetica,sans-Serif" font-size="10.00" fill="#000000">set_intake_motor</text>
</a>
</g>
</g>
<!-- Node74&#45;&gt;Node78 -->
<g id="edge28" class="edge">
<title>Node74&#45;&gt;Node78</title>
<path fill="none" stroke="#191970" d="M362.6711,-107.9733C381.0009,-96.2819 407.9235,-79.8259 432.5703,-67.5 439.5713,-63.9988 447.379,-60.611 454.5609,-57.6897"/>
<polygon fill="#191970" stroke="#191970" points="360.6817,-105.0915 354.1689,-113.4482 364.4715,-110.9769 360.6817,-105.0915"/>
</g>
<!-- Node75&#45;&gt;Node66 -->
<g id="edge23" class="edge">
<title>Node75&#45;&gt;Node66</title>
<path fill="none" stroke="#191970" d="M638.7384,-134.4025C690.9239,-149.412 779.4995,-174.8879 826.5525,-188.4212"/>
<polygon fill="#191970" stroke="#191970" points="639.3874,-130.9473 628.8095,-131.5468 637.4525,-137.6746 639.3874,-130.9473"/>
</g>
<!-- Node76&#45;&gt;Node75 -->
<g id="edge25" class="edge">
<title>Node76&#45;&gt;Node75</title>
<path fill="none" stroke="#191970" d="M521.1386,-122.5C534.2037,-122.5 548.4752,-122.5 561.0995,-122.5"/>
<polygon fill="#191970" stroke="#191970" points="520.9739,-119.0001 510.9738,-122.5 520.9738,-126.0001 520.9739,-119.0001"/>
</g>
<!-- Node77&#45;&gt;Node75 -->
<g id="edge27" class="edge">
<title>Node77&#45;&gt;Node75</title>
<path fill="none" stroke="#191970" d="M517.775,-97.6375C534.2225,-102.7761 553.0569,-108.6603 568.2727,-113.414"/>
<polygon fill="#191970" stroke="#191970" points="518.485,-94.1926 507.8962,-94.5512 516.3975,-100.8741 518.485,-94.1926"/>
</g>
<!-- Node79 -->
<g id="node23" class="node">
<title>Node79</title>
<g id="a_node23"><a xlink:href="mobile__goal__intake_8c.html#afa91470a9891e48827fd62d18553c6ce" target="_top" xlink:title="lower_intake">
<polygon fill="none" stroke="#000000" points="561.2842,-76.5 561.2842,-94.5 633.4268,-94.5 633.4268,-76.5 561.2842,-76.5"/>
<text text-anchor="middle" x="597.3555" y="-82.5" font-family="Helvetica,sans-Serif" font-size="10.00" fill="#000000">lower_intake</text>
</a>
</g>
</g>
<!-- Node78&#45;&gt;Node79 -->
<g id="edge29" class="edge">
<title>Node78&#45;&gt;Node79</title>
<path fill="none" stroke="#191970" d="M517.775,-60.6375C534.2225,-65.7761 553.0569,-71.6603 568.2727,-76.414"/>
<polygon fill="#191970" stroke="#191970" points="518.485,-57.1926 507.8962,-57.5512 516.3975,-63.8741 518.485,-57.1926"/>
</g>
<!-- Node80 -->
<g id="node24" class="node">
<title>Node80</title>
<g id="a_node24"><a xlink:href="mobile__goal__intake_8c.html#ad0232c21c5c1ffda603d2b7d61034118" target="_top" xlink:title="updateIntake">
<polygon fill="none" stroke="#000000" points="687.4907,-57.5 687.4907,-75.5 761.3179,-75.5 761.3179,-57.5 687.4907,-57.5"/>
<text text-anchor="middle" x="724.4043" y="-63.5" font-family="Helvetica,sans-Serif" font-size="10.00" fill="#000000">updateIntake</text>
</a>
</g>
</g>
<!-- Node78&#45;&gt;Node80 -->
<g id="edge34" class="edge">
<title>Node78&#45;&gt;Node80</title>
<path fill="none" stroke="#191970" d="M535.6443,-52.659C582.3079,-56.0807 647.0965,-60.8313 687.3493,-63.7829"/>
<polygon fill="#191970" stroke="#191970" points="535.6154,-49.1476 525.3862,-51.9068 535.1035,-56.1288 535.6154,-49.1476"/>
</g>
<!-- Node81 -->
<g id="node25" class="node">
<title>Node81</title>
<g id="a_node25"><a xlink:href="mobile__goal__intake_8c.html#a4899f9a8621015313e6312ce085da979" target="_top" xlink:title="raise_intake">
<polygon fill="none" stroke="#000000" points="562.395,-.5 562.395,-18.5 632.3159,-18.5 632.3159,-.5 562.395,-.5"/>
<text text-anchor="middle" x="597.3555" y="-6.5" font-family="Helvetica,sans-Serif" font-size="10.00" fill="#000000">raise_intake</text>
</a>
</g>
</g>
<!-- Node78&#45;&gt;Node81 -->
<g id="edge32" class="edge">
<title>Node78&#45;&gt;Node81</title>
<path fill="none" stroke="#191970" d="M516.1878,-36.229C533.4876,-30.5321 553.6994,-23.8762 569.6261,-18.6315"/>
<polygon fill="#191970" stroke="#191970" points="514.7963,-33.0023 506.3929,-39.4546 516.9859,-39.6511 514.7963,-33.0023"/>
</g>
<!-- Node79&#45;&gt;Node80 -->
<g id="edge30" class="edge">
<title>Node79&#45;&gt;Node80</title>
<path fill="none" stroke="#191970" d="M643.8663,-78.5444C658.1028,-76.4153 673.5701,-74.1022 687.1091,-72.0774"/>
<polygon fill="#191970" stroke="#191970" points="643.1349,-75.1147 633.7626,-80.0554 644.1703,-82.0377 643.1349,-75.1147"/>
</g>
<!-- Node80&#45;&gt;Node66 -->
<g id="edge31" class="edge">
<title>Node80&#45;&gt;Node66</title>
<path fill="none" stroke="#191970" d="M740.7681,-82.5317C769.1156,-110.3038 826.4679,-166.4921 848.8632,-188.4328"/>
<polygon fill="#191970" stroke="#191970" points="743.1876,-80.0023 733.595,-75.5042 738.2888,-85.0025 743.1876,-80.0023"/>
</g>
<!-- Node81&#45;&gt;Node80 -->
<g id="edge33" class="edge">
<title>Node81&#45;&gt;Node80</title>
<path fill="none" stroke="#191970" d="M626.7,-22.6653C650.3632,-33.2817 683.0373,-47.9408 703.9465,-57.3217"/>
<polygon fill="#191970" stroke="#191970" points="628.0433,-19.4319 617.4867,-18.5318 625.1779,-25.8186 628.0433,-19.4319"/>
</g>
</g>
</svg>
        <g id="navigator" transform="translate(0 0)" fill="#404254">
                <rect fill="#f2f5e9" fill-opacity="0.5" stroke="#606060" stroke-width=".5" x="0" y="0" width="60" height="60"/>
                <use id="zoomplus" xlink:href="#zoomPlus" x="17" y="9" onmousedown="handleZoom(evt,'in')"/>
                <use id="zoomminus" xlink:href="#zoomMin" x="42" y="9" onmousedown="handleZoom(evt,'out')"/>
                <use id="reset" xlink:href="#resetDef" x="30" y="36" onmousedown="handleReset()"/>
                <g id="arrowUp" xlink:href="#dirArrow" transform="translate(30 24)" onmousedown="handlePan(0,-1)">
                  <use xlink:href="#rim" fill="#404040">
                        <set attributeName="fill" to="#808080" begin="arrowUp.mouseover" end="arrowUp.mouseout"/>
                  </use>
                  <path fill="none" stroke="white" stroke-width="1.5" d="M0,-3.0v7 M-2.5,-0.5L0,-3.0L2.5,-0.5"/>
                </g>
                <g id="arrowRight" xlink:href="#dirArrow" transform="rotate(90) translate(36 -43)" onmousedown="handlePan(1,0)">
                  <use xlink:href="#rim" fill="#404040">
                        <set attributeName="fill" to="#808080" begin="arrowRight.mouseover" end="arrowRight.mouseout"/>
                  </use>
                  <path fill="none" stroke="white" stroke-width="1.5" d="M0,-3.0v7 M-2.5,-0.5L0,-3.0L2.5,-0.5"/>
                </g>
                <g id="arrowDown" xlink:href="#dirArrow" transform="rotate(180) translate(-30 -48)" onmousedown="handlePan(0,1)">
                  <use xlink:href="#rim" fill="#404040">
                        <set attributeName="fill" to="#808080" begin="arrowDown.mouseover" end="arrowDown.mouseout"/>
                  </use>
                  <path fill="none" stroke="white" stroke-width="1.5" d="M0,-3.0v7 M-2.5,-0.5L0,-3.0L2.5,-0.5"/>
                </g>
                <g id="arrowLeft" xlink:href="#dirArrow" transform="rotate(270) translate(-36 17)" onmousedown="handlePan(-1,0)">
                  <use xlink:href="#rim" fill="#404040">
                        <set attributeName="fill" to="#808080" begin="arrowLeft.mouseover" end="arrowLeft.mouseout"/>
                  </use>
                  <path fill="none" stroke="white" stroke-width="1.5" d="M0,-3.0v7 M-2.5,-0.5L0,-3.0L2.5,-0.5"/>
                </g>
        </g>
        <svg viewBox="0 0 15 15" width="100%" height="30px" preserveAspectRatio="xMaxYMin meet">
         <g id="arrow_out" transform="scale(0.3 0.3)">
          <a xlink:href="log_8c_afff22aff6749311a684a559cac3ac8bd_icgraph_org.svg" target="_base">
           <rect id="button" ry="5" rx="5" y="6" x="6" height="38" width="38"
                fill="#f2f5e9" fill-opacity="0.5" stroke="#606060" stroke-width="1.0"/>
           <path id="arrow"
             d="M 11.500037,31.436501 C 11.940474,20.09759 22.043105,11.32322 32.158766,21.979434 L 37.068811,17.246167 C 37.068811,17.246167 37.088388,32 37.088388,32 L 22.160133,31.978069 C 22.160133,31.978069 26.997745,27.140456 26.997745,27.140456 C 18.528582,18.264221 13.291696,25.230495 11.500037,31.436501 z"
             style="fill:#404040;"/>
          </a>
         </g>
        </svg>
</svg>
