<?xml version="1.0" encoding="UTF-8" standalone="no"?>
<!DOCTYPE svg PUBLIC "-//W3C//DTD SVG 1.1//EN"
 "http://www.w3.org/Graphics/SVG/1.1/DTD/svg11.dtd">
<!-- Generated by graphviz version 2.40.1 (20161225.0304)
 -->
<!-- Title: debug Pages: 1 -->
<svg width="343pt" height="27pt"
 viewBox="0.00 0.00 342.88 27.00" xmlns="http://www.w3.org/2000/svg" xmlns:xlink="http://www.w3.org/1999/xlink">
<g id="graph0" class="graph" transform="scale(1 1) rotate(0) translate(4 23)">
<title>debug</title>
<!-- Node2 -->
<g id="node1" class="node">
<title>Node2</title>
<polygon fill="#bfbfbf" stroke="#000000" points="0,-.5 0,-18.5 43.8076,-18.5 43.8076,-.5 0,-.5"/>
<text text-anchor="middle" x="21.9038" y="-6.5" font-family="Helvetica,sans-Serif" font-size="10.00" fill="#000000">debug</text>
</g>
<!-- Node3 -->
<g id="node2" class="node">
<title>Node3</title>
<g id="a_node2"><a xlink:href="slew_8c.html#a807a87c5df438fde21c1e8213906695b" target="_top" xlink:title="Closes the distance between the desired motor value and the current motor value by half for each moto...">
<polygon fill="none" stroke="#000000" points="79.8076,-.5 79.8076,-18.5 156.9551,-18.5 156.9551,-.5 79.8076,-.5"/>
<text text-anchor="middle" x="118.3813" y="-6.5" font-family="Helvetica,sans-Serif" font-size="10.00" fill="#000000">updateMotors</text>
</a>
</g>
</g>
<!-- Node2&#45;&gt;Node3 -->
<g id="edge1" class="edge">
<title>Node2&#45;&gt;Node3</title>
<path fill="none" stroke="#191970" d="M54.4002,-9.5C62.4531,-9.5 71.1635,-9.5 79.4878,-9.5"/>
<polygon fill="#191970" stroke="#191970" points="54.2802,-6.0001 44.2802,-9.5 54.2802,-13.0001 54.2802,-6.0001"/>
</g>
<!-- Node4 -->
<g id="node3" class="node">
<title>Node4</title>
<g id="a_node3"><a xlink:href="slew_8c.html#a321758941d88b75783955c819bb75005" target="_top" xlink:title="Initializes the slew rate controller. ">
<polygon fill="none" stroke="#000000" points="192.9551,-.5 192.9551,-18.5 247.3047,-18.5 247.3047,-.5 192.9551,-.5"/>
<text text-anchor="middle" x="220.1299" y="-6.5" font-family="Helvetica,sans-Serif" font-size="10.00" fill="#000000">init_slew</text>
</a>
</g>
</g>
<!-- Node3&#45;&gt;Node4 -->
<g id="edge2" class="edge">
<title>Node3&#45;&gt;Node4</title>
<path fill="none" stroke="#191970" d="M167.3444,-9.5C176.1216,-9.5 184.9748,-9.5 192.8569,-9.5"/>
<polygon fill="#191970" stroke="#191970" points="167.1384,-6.0001 157.1384,-9.5 167.1383,-13.0001 167.1384,-6.0001"/>
</g>
<!-- Node5 -->
<g id="node4" class="node">
<title>Node5</title>
<g id="a_node4"><a xlink:href="init_8c.html#a25a40b6614565f755233080a384c35f1" target="_top" xlink:title="initialize">
<polygon fill="none" stroke="#000000" points="283.3047,-.5 283.3047,-18.5 334.876,-18.5 334.876,-.5 283.3047,-.5"/>
<text text-anchor="middle" x="309.0903" y="-6.5" font-family="Helvetica,sans-Serif" font-size="10.00" fill="#000000">initialize</text>
</a>
</g>
</g>
<!-- Node4&#45;&gt;Node5 -->
<g id="edge3" class="edge">
<title>Node4&#45;&gt;Node5</title>
<path fill="none" stroke="#191970" d="M257.9495,-9.5C266.4862,-9.5 275.3577,-9.5 283.2678,-9.5"/>
<polygon fill="#191970" stroke="#191970" points="257.7899,-6.0001 247.7899,-9.5 257.7898,-13.0001 257.7899,-6.0001"/>
</g>
</g>
</svg>
