<?xml version="1.0" encoding="UTF-8" standalone="no"?>
<!DOCTYPE svg PUBLIC "-//W3C//DTD SVG 1.1//EN"
 "http://www.w3.org/Graphics/SVG/1.1/DTD/svg11.dtd">
<!-- Generated by graphviz version 2.40.1 (20161225.0304)
 -->
<!-- Title: include/log.h Pages: 1 -->
<svg width="295pt" height="137pt"
 viewBox="0.00 0.00 295.01 137.00" xmlns="http://www.w3.org/2000/svg" xmlns:xlink="http://www.w3.org/1999/xlink">
<g id="graph0" class="graph" transform="scale(1 1) rotate(0) translate(4 133)">
<title>include/log.h</title>
<!-- Node7 -->
<g id="node1" class="node">
<title>Node7</title>
<polygon fill="#bfbfbf" stroke="#000000" points="103.2588,-110.5 103.2588,-128.5 175.4111,-128.5 175.4111,-110.5 103.2588,-110.5"/>
<text text-anchor="middle" x="139.335" y="-116.5" font-family="Helvetica,sans-Serif" font-size="10.00" fill="#000000">include/log.h</text>
</g>
<!-- Node8 -->
<g id="node2" class="node">
<title>Node8</title>
<g id="a_node2"><a xlink:href="menu_8h.html" target="_top" xlink:title="Contains menu functionality and abstraction. ">
<polygon fill="none" stroke="#000000" points="54.4238,-55.5 54.4238,-73.5 138.2461,-73.5 138.2461,-55.5 54.4238,-55.5"/>
<text text-anchor="middle" x="96.335" y="-61.5" font-family="Helvetica,sans-Serif" font-size="10.00" fill="#000000">include/menu.h</text>
</a>
</g>
</g>
<!-- Node7&#45;&gt;Node8 -->
<g id="edge1" class="edge">
<title>Node7&#45;&gt;Node8</title>
<path fill="none" stroke="#191970" d="M125.9944,-102.4365C118.6029,-92.9823 109.7006,-81.5956 103.5898,-73.7795"/>
<polygon fill="#191970" stroke="#191970" points="123.3178,-104.6955 132.2344,-110.4179 128.8325,-100.384 123.3178,-104.6955"/>
</g>
<!-- Node9 -->
<g id="node3" class="node">
<title>Node9</title>
<g id="a_node3"><a xlink:href="init_8c.html" target="_top" xlink:title="File for initialization code. ">
<polygon fill="none" stroke="#000000" points="0,-.5 0,-18.5 52.6699,-18.5 52.6699,-.5 0,-.5"/>
<text text-anchor="middle" x="26.335" y="-6.5" font-family="Helvetica,sans-Serif" font-size="10.00" fill="#000000">src/init.c</text>
</a>
</g>
</g>
<!-- Node7&#45;&gt;Node9 -->
<g id="edge4" class="edge">
<title>Node7&#45;&gt;Node9</title>
<path fill="none" stroke="#191970" d="M94.9205,-106.7661C77.2925,-99.6923 58.1957,-89.169 45.335,-74 31.7464,-57.9726 27.8734,-32.5959 26.7715,-18.9411"/>
<polygon fill="#191970" stroke="#191970" points="93.9212,-110.1289 104.5138,-110.3487 96.3702,-103.5713 93.9212,-110.1289"/>
</g>
<!-- Node11 -->
<g id="node5" class="node">
<title>Node11</title>
<g id="a_node5"><a xlink:href="log_8c.html" target="_top" xlink:title="src/log.c">
<polygon fill="none" stroke="#000000" points="156.7192,-55.5 156.7192,-73.5 209.9507,-73.5 209.9507,-55.5 156.7192,-55.5"/>
<text text-anchor="middle" x="183.335" y="-61.5" font-family="Helvetica,sans-Serif" font-size="10.00" fill="#000000">src/log.c</text>
</a>
</g>
</g>
<!-- Node7&#45;&gt;Node11 -->
<g id="edge5" class="edge">
<title>Node7&#45;&gt;Node11</title>
<path fill="none" stroke="#191970" d="M152.9857,-102.4365C160.5491,-92.9823 169.6584,-81.5956 175.9114,-73.7795"/>
<polygon fill="#191970" stroke="#191970" points="150.1146,-100.4227 146.6007,-110.4179 155.5807,-104.7956 150.1146,-100.4227"/>
</g>
<!-- Node12 -->
<g id="node6" class="node">
<title>Node12</title>
<g id="a_node6"><a xlink:href="slew_8c.html" target="_top" xlink:title="src/slew.c">
<polygon fill="none" stroke="#000000" points="227.6626,-55.5 227.6626,-73.5 287.0073,-73.5 287.0073,-55.5 227.6626,-55.5"/>
<text text-anchor="middle" x="257.335" y="-61.5" font-family="Helvetica,sans-Serif" font-size="10.00" fill="#000000">src/slew.c</text>
</a>
</g>
</g>
<!-- Node7&#45;&gt;Node12 -->
<g id="edge6" class="edge">
<title>Node7&#45;&gt;Node12</title>
<path fill="none" stroke="#191970" d="M167.8858,-106.1924C189.5522,-96.0937 218.7653,-82.4774 237.8207,-73.5956"/>
<polygon fill="#191970" stroke="#191970" points="166.4054,-103.0208 158.8203,-110.4179 169.3627,-109.3655 166.4054,-103.0208"/>
</g>
<!-- Node8&#45;&gt;Node9 -->
<g id="edge2" class="edge">
<title>Node8&#45;&gt;Node9</title>
<path fill="none" stroke="#191970" d="M76.7986,-49.15C64.3767,-39.3899 48.7021,-27.0742 38.1452,-18.7795"/>
<polygon fill="#191970" stroke="#191970" points="74.7503,-51.9917 84.7759,-55.4179 79.0751,-46.4875 74.7503,-51.9917"/>
</g>
<!-- Node10 -->
<g id="node4" class="node">
<title>Node10</title>
<g id="a_node4"><a xlink:href="menu_8c.html" target="_top" xlink:title="src/menu.c">
<polygon fill="none" stroke="#000000" points="70.8843,-.5 70.8843,-18.5 135.7856,-18.5 135.7856,-.5 70.8843,-.5"/>
<text text-anchor="middle" x="103.335" y="-6.5" font-family="Helvetica,sans-Serif" font-size="10.00" fill="#000000">src/menu.c</text>
</a>
</g>
</g>
<!-- Node8&#45;&gt;Node10 -->
<g id="edge3" class="edge">
<title>Node8&#45;&gt;Node10</title>
<path fill="none" stroke="#191970" d="M98.768,-45.383C99.9147,-36.3738 101.2302,-26.0373 102.1539,-18.7795"/>
<polygon fill="#191970" stroke="#191970" points="95.2815,-45.056 97.4909,-55.4179 102.2255,-45.9398 95.2815,-45.056"/>
</g>
</g>
</svg>
