<?xml version="1.0" encoding="UTF-8" standalone="no"?>
<!DOCTYPE svg PUBLIC "-//W3C//DTD SVG 1.1//EN"
 "http://www.w3.org/Graphics/SVG/1.1/DTD/svg11.dtd">
<!-- Generated by graphviz version 2.40.1 (20161225.0304)
 -->
<!-- Title: warning Pages: 1 -->
<svg width="266pt" height="138pt"
 viewBox="0.00 0.00 266.42 138.00" xmlns="http://www.w3.org/2000/svg" xmlns:xlink="http://www.w3.org/1999/xlink">
<g id="graph0" class="graph" transform="scale(1 1) rotate(0) translate(4 134)">
<title>warning</title>
<!-- Node146 -->
<g id="node1" class="node">
<title>Node146</title>
<polygon fill="#bfbfbf" stroke="#000000" points="0,-55.5 0,-73.5 51.0195,-73.5 51.0195,-55.5 0,-55.5"/>
<text text-anchor="middle" x="25.5098" y="-61.5" font-family="Helvetica,sans-Serif" font-size="10.00" fill="#000000">warning</text>
</g>
<!-- Node147 -->
<g id="node2" class="node">
<title>Node147</title>
<g id="a_node2"><a xlink:href="log_8c.html#afff22aff6749311a684a559cac3ac8bd" target="_top" xlink:title="prints a log info message to the lcd ">
<polygon fill="none" stroke="#000000" points="87.0195,-55.5 87.0195,-73.5 138.0488,-73.5 138.0488,-55.5 87.0195,-55.5"/>
<text text-anchor="middle" x="112.5342" y="-61.5" font-family="Helvetica,sans-Serif" font-size="10.00" fill="#000000">log_info</text>
</a>
</g>
</g>
<!-- Node146&#45;&gt;Node147 -->
<g id="edge1" class="edge">
<title>Node146&#45;&gt;Node147</title>
<path fill="none" stroke="#191970" d="M51.1493,-64.5C59.1336,-64.5 68.0896,-64.5 76.6405,-64.5"/>
<polygon fill="#191970" stroke="#191970" points="76.7772,-68.0001 86.7772,-64.5 76.7772,-61.0001 76.7772,-68.0001"/>
</g>
<!-- Node148 -->
<g id="node3" class="node">
<title>Node148</title>
<g id="a_node3"><a xlink:href="_a_p_i_8h.html#a5fa1d119fe3e836b5519f97eae7a1272" target="_top" xlink:title="Clears the LCD screen on the specified port. ">
<polygon fill="none" stroke="#000000" points="189.8936,-111.5 189.8936,-129.5 242.5732,-129.5 242.5732,-111.5 189.8936,-111.5"/>
<text text-anchor="middle" x="216.2334" y="-117.5" font-family="Helvetica,sans-Serif" font-size="10.00" fill="#000000">lcdClear</text>
</a>
</g>
</g>
<!-- Node147&#45;&gt;Node148 -->
<g id="edge2" class="edge">
<title>Node147&#45;&gt;Node148</title>
<path fill="none" stroke="#191970" d="M125.8755,-73.5526C138.1122,-81.6578 156.8869,-93.6016 174.0488,-102.5 177.1834,-104.1253 180.4978,-105.7276 183.8357,-107.2661"/>
<polygon fill="#191970" stroke="#191970" points="182.6138,-110.5527 193.1748,-111.3992 185.4467,-104.1516 182.6138,-110.5527"/>
</g>
<!-- Node149 -->
<g id="node4" class="node">
<title>Node149</title>
<g id="a_node4"><a xlink:href="_a_p_i_8h.html#a6cfad8271c6a566a2f51ca318f819a80" target="_top" xlink:title="Prints the formatted string to the attached LCD. ">
<polygon fill="none" stroke="#000000" points="191.561,-74.5 191.561,-92.5 240.9058,-92.5 240.9058,-74.5 191.561,-74.5"/>
<text text-anchor="middle" x="216.2334" y="-80.5" font-family="Helvetica,sans-Serif" font-size="10.00" fill="#000000">lcdPrint</text>
</a>
</g>
</g>
<!-- Node147&#45;&gt;Node149 -->
<g id="edge3" class="edge">
<title>Node147&#45;&gt;Node149</title>
<path fill="none" stroke="#191970" d="M138.1677,-69.1966C151.1987,-71.5842 167.2277,-74.5211 181.3638,-77.1111"/>
<polygon fill="#191970" stroke="#191970" points="180.7855,-80.5633 191.2526,-78.923 182.0471,-73.678 180.7855,-80.5633"/>
</g>
<!-- Node150 -->
<g id="node5" class="node">
<title>Node150</title>
<g id="a_node5"><a xlink:href="_a_p_i_8h.html#aab53a247d88151a6623c20fa1ea940b0" target="_top" xlink:title="Sets the specified LCD backlight to be on or off. ">
<polygon fill="none" stroke="#000000" points="174.0488,-37.5 174.0488,-55.5 258.418,-55.5 258.418,-37.5 174.0488,-37.5"/>
<text text-anchor="middle" x="216.2334" y="-43.5" font-family="Helvetica,sans-Serif" font-size="10.00" fill="#000000">lcdSetBacklight</text>
</a>
</g>
</g>
<!-- Node147&#45;&gt;Node150 -->
<g id="edge4" class="edge">
<title>Node147&#45;&gt;Node150</title>
<path fill="none" stroke="#191970" d="M138.1677,-60.0506C146.0116,-58.689 154.9418,-57.1389 163.8915,-55.5855"/>
<polygon fill="#191970" stroke="#191970" points="164.6934,-58.9987 173.9475,-53.8399 163.4962,-52.1018 164.6934,-58.9987"/>
</g>
<!-- Node151 -->
<g id="node6" class="node">
<title>Node151</title>
<g id="a_node6"><a xlink:href="_a_p_i_8h.html#a403c82418e475fa4a8273719e6a7f3e6" target="_top" xlink:title="Prints the formatted string to the debug stream (the PC terminal). ">
<polygon fill="none" stroke="#000000" points="197.1177,-.5 197.1177,-18.5 235.3491,-18.5 235.3491,-.5 197.1177,-.5"/>
<text text-anchor="middle" x="216.2334" y="-6.5" font-family="Helvetica,sans-Serif" font-size="10.00" fill="#000000">printf</text>
</a>
</g>
</g>
<!-- Node147&#45;&gt;Node151 -->
<g id="edge5" class="edge">
<title>Node147&#45;&gt;Node151</title>
<path fill="none" stroke="#191970" d="M126.9559,-55.4724C139.2696,-47.9076 157.554,-37.0107 174.0488,-28.5 178.3719,-26.2695 183.0104,-24.0309 187.5732,-21.913"/>
<polygon fill="#191970" stroke="#191970" points="189.0419,-25.0902 196.7073,-17.7764 186.154,-18.7136 189.0419,-25.0902"/>
</g>
</g>
</svg>
