<?xml version="1.0" encoding="UTF-8" standalone="no"?>
<!DOCTYPE svg PUBLIC "-//W3C//DTD SVG 1.1//EN"
 "http://www.w3.org/Graphics/SVG/1.1/DTD/svg11.dtd">
<!-- Generated by graphviz version 2.40.1 (20161225.0304)
 -->
<!-- Title: log_info Pages: 1 -->
<svg width="179pt" height="101pt"
 viewBox="0.00 0.00 179.40 101.00" xmlns="http://www.w3.org/2000/svg" xmlns:xlink="http://www.w3.org/1999/xlink">
<g id="graph0" class="graph" transform="scale(1 1) rotate(0) translate(4 97)">
<title>log_info</title>
<!-- Node21 -->
<g id="node1" class="node">
<title>Node21</title>
<polygon fill="#bfbfbf" stroke="#000000" points="0,-37.5 0,-55.5 51.0293,-55.5 51.0293,-37.5 0,-37.5"/>
<text text-anchor="middle" x="25.5146" y="-43.5" font-family="Helvetica,sans-Serif" font-size="10.00" fill="#000000">log_info</text>
</g>
<!-- Node22 -->
<g id="node2" class="node">
<title>Node22</title>
<g id="a_node2"><a xlink:href="_a_p_i_8h.html#aa53f19724bcf9f7bf1b4468b5982553b" target="_top" xlink:title="lcdClear">
<polygon fill="none" stroke="#000000" points="102.874,-74.5 102.874,-92.5 155.5537,-92.5 155.5537,-74.5 102.874,-74.5"/>
<text text-anchor="middle" x="129.2139" y="-80.5" font-family="Helvetica,sans-Serif" font-size="10.00" fill="#000000">lcdClear</text>
</a>
</g>
</g>
<!-- Node21&#45;&gt;Node22 -->
<g id="edge1" class="edge">
<title>Node21&#45;&gt;Node22</title>
<path fill="none" stroke="#191970" d="M50.8823,-55.5512C63.9388,-60.2098 80.0578,-65.9611 94.2728,-71.033"/>
<polygon fill="#191970" stroke="#191970" points="93.154,-74.3499 103.7487,-74.414 95.5064,-67.757 93.154,-74.3499"/>
</g>
<!-- Node23 -->
<g id="node3" class="node">
<title>Node23</title>
<g id="a_node3"><a xlink:href="_a_p_i_8h.html#aeafd247b27813122cfee95e0cecf188b" target="_top" xlink:title="lcdSetBacklight">
<polygon fill="none" stroke="#000000" points="87.0293,-37.5 87.0293,-55.5 171.3984,-55.5 171.3984,-37.5 87.0293,-37.5"/>
<text text-anchor="middle" x="129.2139" y="-43.5" font-family="Helvetica,sans-Serif" font-size="10.00" fill="#000000">lcdSetBacklight</text>
</a>
</g>
</g>
<!-- Node21&#45;&gt;Node23 -->
<g id="edge2" class="edge">
<title>Node21&#45;&gt;Node23</title>
<path fill="none" stroke="#191970" d="M51.1482,-46.5C58.9921,-46.5 67.9222,-46.5 76.872,-46.5"/>
<polygon fill="#191970" stroke="#191970" points="76.928,-50.0001 86.9279,-46.5 76.9279,-43.0001 76.928,-50.0001"/>
</g>
<!-- Node24 -->
<g id="node4" class="node">
<title>Node24</title>
<g id="a_node4"><a xlink:href="_a_p_i_8h.html#a403c82418e475fa4a8273719e6a7f3e6" target="_top" xlink:title="printf">
<polygon fill="none" stroke="#000000" points="110.0981,-.5 110.0981,-18.5 148.3296,-18.5 148.3296,-.5 110.0981,-.5"/>
<text text-anchor="middle" x="129.2139" y="-6.5" font-family="Helvetica,sans-Serif" font-size="10.00" fill="#000000">printf</text>
</a>
</g>
</g>
<!-- Node21&#45;&gt;Node24 -->
<g id="edge3" class="edge">
<title>Node21&#45;&gt;Node24</title>
<path fill="none" stroke="#191970" d="M50.8823,-37.4488C65.8351,-32.1136 84.8045,-25.3453 100.3306,-19.8056"/>
<polygon fill="#191970" stroke="#191970" points="101.7172,-23.027 109.9594,-16.37 99.3648,-16.4341 101.7172,-23.027"/>
</g>
</g>
</svg>
