<?xml version="1.0" encoding="UTF-8" standalone="no"?>
<!DOCTYPE svg PUBLIC "-//W3C//DTD SVG 1.1//EN"
 "http://www.w3.org/Graphics/SVG/1.1/DTD/svg11.dtd">
<!-- Generated by graphviz version 2.40.1 (20161225.0304)
 -->
<!-- Title: debug Pages: 1 -->
<!--zoomable 534 -->
<svg id="main" version="1.1" xmlns="http://www.w3.org/2000/svg" xmlns:xlink="http://www.w3.org/1999/xlink" xml:space="preserve" onload="init(evt)">
<style type="text/css"><![CDATA[
.edge:hover path { stroke: red; }
.edge:hover polygon { stroke: red; fill: red; }
]]></style>
<script type="text/javascript"><![CDATA[
var edges = document.getElementsByTagName('g');
if (edges && edges.length) {
  for (var i=0;i<edges.length;i++) {
    if (edges[i].id.substr(0,4)=='edge') {
      edges[i].setAttribute('class','edge');
    }
  }
}
]]></script>
        <defs>
                <circle id="rim" cx="0" cy="0" r="7"/>
                <circle id="rim2" cx="0" cy="0" r="3.5"/>
                <g id="zoomPlus">
                        <use xlink:href="#rim" fill="#404040">
                                <set attributeName="fill" to="#808080" begin="zoomplus.mouseover" end="zoomplus.mouseout"/>
                        </use>
                        <path d="M-4,0h8M0,-4v8" fill="none" stroke="white" stroke-width="1.5" pointer-events="none"/>
                </g>
                <g id="zoomMin">
                        <use xlink:href="#rim" fill="#404040">
                                <set attributeName="fill" to="#808080" begin="zoomminus.mouseover" end="zoomminus.mouseout"/>
                        </use>
                        <path d="M-4,0h8" fill="none" stroke="white" stroke-width="1.5" pointer-events="none"/>
                </g>
                <g id="dirArrow">
                        <path fill="none" stroke="white" stroke-width="1.5" d="M0,-3.0v7 M-2.5,-0.5L0,-3.0L2.5,-0.5"/>
                </g>
               <g id="resetDef">
                       <use xlink:href="#rim2" fill="#404040">
                               <set attributeName="fill" to="#808080" begin="reset.mouseover" end="reset.mouseout"/>
                       </use>
               </g>
        </defs>

<script type="text/javascript">
var viewWidth = 658;
var viewHeight = 534;
var sectionId = 'dynsection-1';
</script>
<script xlink:href="svgpan.js"/>
<svg id="graph" class="graph">
<g id="viewport">
<title>debug</title>
<!-- Node2 -->
<g id="node1" class="node">
<title>Node2</title>
<polygon fill="#bfbfbf" stroke="#000000" points="0,-254.8365 0,-272.8365 43.8076,-272.8365 43.8076,-254.8365 0,-254.8365"/>
<text text-anchor="middle" x="21.9038" y="-260.8365" font-family="Helvetica,sans-Serif" font-size="10.00" fill="#000000">debug</text>
</g>
<!-- Node3 -->
<g id="node2" class="node">
<title>Node3</title>
<g id="a_node2"><a xlink:href="slew_8c.html#a9f8b8ae577ef938622024545711f0151" target="_top" xlink:title="Sets the motor speed ignoring the slew controller. ">
<polygon fill="none" stroke="#000000" points="79.8076,-273.8365 79.8076,-291.8365 191.96,-291.8365 191.96,-273.8365 79.8076,-273.8365"/>
<text text-anchor="middle" x="135.8838" y="-279.8365" font-family="Helvetica,sans-Serif" font-size="10.00" fill="#000000">set_motor_immediate</text>
</a>
</g>
</g>
<!-- Node2&#45;&gt;Node3 -->
<g id="edge1" class="edge">
<title>Node2&#45;&gt;Node3</title>
<path fill="none" stroke="#191970" d="M53.9278,-269.1748C62.6166,-270.6232 72.2703,-272.2324 81.8145,-273.8234"/>
<polygon fill="#191970" stroke="#191970" points="54.3197,-265.6919 43.8803,-267.4999 53.1687,-272.5966 54.3197,-265.6919"/>
</g>
<!-- Node23 -->
<g id="node18" class="node">
<title>Node23</title>
<g id="a_node18"><a xlink:href="slew_8c.html#a7dff2b79dffe55fb936d977594d7c01d" target="_top" xlink:title="Sets motor speed wrapped inside the slew rate controller. ">
<polygon fill="none" stroke="#000000" points="92.8691,-236.8365 92.8691,-254.8365 178.8984,-254.8365 178.8984,-236.8365 92.8691,-236.8365"/>
<text text-anchor="middle" x="135.8838" y="-242.8365" font-family="Helvetica,sans-Serif" font-size="10.00" fill="#000000">set_motor_slew</text>
</a>
</g>
</g>
<!-- Node2&#45;&gt;Node23 -->
<g id="edge27" class="edge">
<title>Node2&#45;&gt;Node23</title>
<path fill="none" stroke="#191970" d="M53.9108,-258.7819C65.9498,-256.8807 79.8434,-254.6866 92.7319,-252.6512"/>
<polygon fill="#191970" stroke="#191970" points="53.2119,-255.3488 43.8803,-260.366 54.3039,-262.2631 53.2119,-255.3488"/>
</g>
<!-- Node4 -->
<g id="node3" class="node">
<title>Node4</title>
<g id="a_node3"><a xlink:href="claw_8c.html#a3a57f998b1884d39b0cc786689f7086f" target="_top" xlink:title="sets the claw motor speed ">
<polygon fill="none" stroke="#000000" points="243.5215,-443.8365 243.5215,-461.8365 329.5508,-461.8365 329.5508,-443.8365 243.5215,-443.8365"/>
<text text-anchor="middle" x="286.5361" y="-449.8365" font-family="Helvetica,sans-Serif" font-size="10.00" fill="#000000">set_claw_motor</text>
</a>
</g>
</g>
<!-- Node3&#45;&gt;Node4 -->
<g id="edge2" class="edge">
<title>Node3&#45;&gt;Node4</title>
<path fill="none" stroke="#191970" d="M144.9558,-301.0176C159.4959,-328.7994 190.2519,-382.3252 227.96,-417.8365 239.3439,-428.5573 254.5618,-437.5277 266.6332,-443.7025"/>
<polygon fill="#191970" stroke="#191970" points="148.0247,-299.3318 140.3497,-292.0281 141.7949,-302.5239 148.0247,-299.3318"/>
</g>
<!-- Node9 -->
<g id="node7" class="node">
<title>Node9</title>
<g id="a_node7"><a xlink:href="claw_8c.html#a3a6168bf4e2042115dd32542f1f6a2f5" target="_top" xlink:title="Drives the motors to grab a cone. ">
<polygon fill="none" stroke="#000000" points="242.1226,-142.8365 242.1226,-160.8365 330.9497,-160.8365 330.9497,-142.8365 242.1226,-142.8365"/>
<text text-anchor="middle" x="286.5361" y="-148.8365" font-family="Helvetica,sans-Serif" font-size="10.00" fill="#000000">claw_grab_cone</text>
</a>
</g>
</g>
<!-- Node3&#45;&gt;Node9 -->
<g id="edge7" class="edge">
<title>Node3&#45;&gt;Node9</title>
<path fill="none" stroke="#191970" d="M181.5171,-269.7919C185.1749,-268.0302 188.7081,-266.0523 191.96,-263.8365 234.2334,-235.0326 268.4277,-182.4151 281.1694,-161.1356"/>
<polygon fill="#191970" stroke="#191970" points="180.0851,-266.5975 172.2578,-273.7379 182.8294,-273.0371 180.0851,-266.5975"/>
</g>
<!-- Node13 -->
<g id="node10" class="node">
<title>Node13</title>
<g id="a_node10"><a xlink:href="claw_8c.html#aecaa4eedc34d6b164ee17ed104914227" target="_top" xlink:title="Drives the motors to release a cone. ">
<polygon fill="none" stroke="#000000" points="235.731,-389.8365 235.731,-407.8365 337.3413,-407.8365 337.3413,-389.8365 235.731,-389.8365"/>
<text text-anchor="middle" x="286.5361" y="-395.8365" font-family="Helvetica,sans-Serif" font-size="10.00" fill="#000000">claw_release_cone</text>
</a>
</g>
</g>
<!-- Node3&#45;&gt;Node13 -->
<g id="edge10" class="edge">
<title>Node3&#45;&gt;Node13</title>
<path fill="none" stroke="#191970" d="M147.7667,-300.2297C163.5984,-322.1221 193.635,-359.4434 227.96,-380.8365 233.7384,-384.438 240.2886,-387.3637 246.8635,-389.7264"/>
<polygon fill="#191970" stroke="#191970" points="150.504,-298.0382 141.8803,-291.8833 144.7836,-302.0726 150.504,-298.0382"/>
</g>
<!-- Node14 -->
<g id="node11" class="node">
<title>Node14</title>
<g id="a_node11"><a xlink:href="lifter_8c.html#a78640d547d9361951a92d0bc00939536" target="_top" xlink:title="Sets the secondary lifter motors to the given value. ">
<polygon fill="none" stroke="#000000" points="233.79,-268.8365 233.79,-296.8365 339.2822,-296.8365 339.2822,-268.8365 233.79,-268.8365"/>
<text text-anchor="start" x="241.79" y="-284.8365" font-family="Helvetica,sans-Serif" font-size="10.00" fill="#000000">set_secondary_lifter</text>
<text text-anchor="middle" x="286.5361" y="-274.8365" font-family="Helvetica,sans-Serif" font-size="10.00" fill="#000000">_motors</text>
</a>
</g>
</g>
<!-- Node3&#45;&gt;Node14 -->
<g id="edge11" class="edge">
<title>Node3&#45;&gt;Node14</title>
<path fill="none" stroke="#191970" d="M202.2824,-282.8365C212.6905,-282.8365 223.3293,-282.8365 233.3886,-282.8365"/>
<polygon fill="#191970" stroke="#191970" points="201.9812,-279.3366 191.9812,-282.8365 201.9811,-286.3366 201.9812,-279.3366"/>
</g>
<!-- Node19 -->
<g id="node16" class="node">
<title>Node19</title>
<g id="a_node16"><a xlink:href="mobile__goal__intake_8c.html#ab31e12bb0fa46c77906a048666b699d5" target="_top" xlink:title="sets the intake motor ">
<polygon fill="none" stroke="#ff0000" points="240.1816,-66.8365 240.1816,-84.8365 332.8906,-84.8365 332.8906,-66.8365 240.1816,-66.8365"/>
<text text-anchor="middle" x="286.5361" y="-72.8365" font-family="Helvetica,sans-Serif" font-size="10.00" fill="#000000">set_intake_motor</text>
</a>
</g>
</g>
<!-- Node3&#45;&gt;Node19 -->
<g id="edge23" class="edge">
<title>Node3&#45;&gt;Node19</title>
<path fill="none" stroke="#191970" d="M186.7141,-268.4969C188.5933,-267.0866 190.3555,-265.5377 191.96,-263.8365 233.3887,-219.9106 197.2475,-184.8228 227.96,-132.8365 239.7967,-112.8008 260.5073,-95.043 273.8643,-84.8672"/>
<polygon fill="#191970" stroke="#191970" points="184.6128,-265.6766 177.8521,-273.834 188.2242,-271.6731 184.6128,-265.6766"/>
</g>
<!-- Node5 -->
<g id="node4" class="node">
<title>Node5</title>
<g id="a_node4"><a xlink:href="lifter_8c.html#a8a64fa88b389b39c236c5c57a7fb5c67" target="_top" xlink:title="Autostacks a cone once picked up. ">
<polygon fill="none" stroke="#ff0000" points="555.4023,-405.8365 555.4023,-423.8365 650.3428,-423.8365 650.3428,-405.8365 555.4023,-405.8365"/>
<text text-anchor="middle" x="602.8726" y="-411.8365" font-family="Helvetica,sans-Serif" font-size="10.00" fill="#000000">autostack_routine</text>
</a>
</g>
</g>
<!-- Node4&#45;&gt;Node5 -->
<g id="edge3" class="edge">
<title>Node4&#45;&gt;Node5</title>
<path fill="none" stroke="#191970" d="M305.2241,-468.3579C323.3318,-482.31 352.2236,-501.8041 381.1123,-509.8365 440.3282,-526.3013 463.4067,-535.1762 519.4023,-509.8365 559.4068,-491.7333 587.8505,-443.933 598.3803,-423.8866"/>
<polygon fill="#191970" stroke="#191970" points="307.2573,-465.5032 297.2485,-462.0284 302.9058,-470.9863 307.2573,-465.5032"/>
</g>
<!-- Node7 -->
<g id="node5" class="node">
<title>Node7</title>
<g id="a_node5"><a xlink:href="lifter_8c.html#aa4d172cbde795bc13fe6baabd074717e" target="_top" xlink:title="quit_auto_static">
<polygon fill="none" stroke="#000000" points="407.2329,-405.8365 407.2329,-423.8365 493.2817,-423.8365 493.2817,-405.8365 407.2329,-405.8365"/>
<text text-anchor="middle" x="450.2573" y="-411.8365" font-family="Helvetica,sans-Serif" font-size="10.00" fill="#000000">quit_auto_static</text>
</a>
</g>
</g>
<!-- Node4&#45;&gt;Node7 -->
<g id="edge4" class="edge">
<title>Node4&#45;&gt;Node7</title>
<path fill="none" stroke="#191970" d="M335.1102,-441.5624C359.4814,-435.9058 388.5969,-429.148 411.4528,-423.8431"/>
<polygon fill="#191970" stroke="#191970" points="334.2855,-438.1607 325.3358,-443.8311 335.8682,-444.9794 334.2855,-438.1607"/>
</g>
<!-- Node8 -->
<g id="node6" class="node">
<title>Node8</title>
<g id="a_node6"><a xlink:href="claw_8c.html#a0122b78972344264b8a276a559cfce4a" target="_top" xlink:title="Updates the claw motor values. ">
<polygon fill="none" stroke="#ff0000" points="414.1812,-481.8365 414.1812,-499.8365 486.3335,-499.8365 486.3335,-481.8365 414.1812,-481.8365"/>
<text text-anchor="middle" x="450.2573" y="-487.8365" font-family="Helvetica,sans-Serif" font-size="10.00" fill="#000000">update_claw</text>
</a>
</g>
</g>
<!-- Node4&#45;&gt;Node8 -->
<g id="edge6" class="edge">
<title>Node4&#45;&gt;Node8</title>
<path fill="none" stroke="#191970" d="M335.1043,-464.1093C360.3842,-469.9768 390.77,-477.0294 413.9794,-482.4164"/>
<polygon fill="#191970" stroke="#191970" points="335.8682,-460.6936 325.3358,-461.842 334.2855,-467.5124 335.8682,-460.6936"/>
</g>
<!-- Node7&#45;&gt;Node5 -->
<g id="edge5" class="edge">
<title>Node7&#45;&gt;Node5</title>
<path fill="none" stroke="#191970" d="M503.7617,-414.8365C520.4969,-414.8365 538.8435,-414.8365 555.1531,-414.8365"/>
<polygon fill="#191970" stroke="#191970" points="503.5825,-411.3366 493.5825,-414.8365 503.5825,-418.3366 503.5825,-411.3366"/>
</g>
<!-- Node10 -->
<g id="node8" class="node">
<title>Node10</title>
<g id="a_node8"><a xlink:href="auto_8c.html#a3c7ca506bbc071fa740de13805b7f376" target="_top" xlink:title="Runs the user autonomous code. ">
<polygon fill="none" stroke="#000000" points="567.353,-104.8365 567.353,-122.8365 638.3921,-122.8365 638.3921,-104.8365 567.353,-104.8365"/>
<text text-anchor="middle" x="602.8726" y="-110.8365" font-family="Helvetica,sans-Serif" font-size="10.00" fill="#000000">autonomous</text>
</a>
</g>
</g>
<!-- Node9&#45;&gt;Node10 -->
<g id="edge8" class="edge">
<title>Node9&#45;&gt;Node10</title>
<path fill="none" stroke="#191970" d="M336.5607,-140.6919C350.8911,-137.7976 366.5704,-134.9134 381.1123,-132.8365 446.3335,-123.5215 523.0458,-118.1864 567.012,-115.6618"/>
<polygon fill="#191970" stroke="#191970" points="335.4856,-137.34 326.3999,-142.7899 336.9011,-144.1954 335.4856,-137.34"/>
</g>
<!-- Node11 -->
<g id="node9" class="node">
<title>Node11</title>
<g id="a_node9"><a xlink:href="lifter_8c.html#ac59fe6ffc80bab7f117ec0a8e482277b" target="_top" xlink:title="secondary_lifter_update">
<polygon fill="none" stroke="#ff0000" points="388.8882,-142.8365 388.8882,-160.8365 511.6265,-160.8365 511.6265,-142.8365 388.8882,-142.8365"/>
<text text-anchor="middle" x="450.2573" y="-148.8365" font-family="Helvetica,sans-Serif" font-size="10.00" fill="#000000">secondary_lifter_update</text>
</a>
</g>
</g>
<!-- Node9&#45;&gt;Node11 -->
<g id="edge9" class="edge">
<title>Node9&#45;&gt;Node11</title>
<path fill="none" stroke="#191970" d="M341.5128,-151.8365C356.6646,-151.8365 373.1987,-151.8365 388.6967,-151.8365"/>
<polygon fill="#191970" stroke="#191970" points="341.2737,-148.3366 331.2737,-151.8365 341.2736,-155.3366 341.2737,-148.3366"/>
</g>
<!-- Node14&#45;&gt;Node5 -->
<g id="edge15" class="edge">
<title>Node14&#45;&gt;Node5</title>
<path fill="none" stroke="#191970" d="M307.8947,-304.1533C325.9594,-321.0384 353.2816,-344.0123 381.1123,-357.8365 397.4889,-365.9712 504.8858,-391.8586 564.0012,-405.7768"/>
<polygon fill="#191970" stroke="#191970" points="309.9267,-301.2541 300.2776,-296.8785 305.092,-306.3163 309.9267,-301.2541"/>
</g>
<!-- Node14&#45;&gt;Node7 -->
<g id="edge19" class="edge">
<title>Node14&#45;&gt;Node7</title>
<path fill="none" stroke="#191970" d="M308.3265,-304.3431C319.6228,-315.784 333.4567,-330.2591 345.1123,-343.8365 362.2513,-363.8015 359.7835,-375.4279 381.1123,-390.8365 390.0735,-397.3104 400.9297,-402.1559 411.3579,-405.7321"/>
<polygon fill="#191970" stroke="#191970" points="310.5058,-301.5715 300.9693,-296.9557 305.5459,-306.5111 310.5058,-301.5715"/>
</g>
<!-- Node14&#45;&gt;Node10 -->
<g id="edge14" class="edge">
<title>Node14&#45;&gt;Node10</title>
<path fill="none" stroke="#191970" d="M329.9837,-264.8087C345.9371,-258.463 364.2254,-251.5058 381.1123,-245.8365 441.6514,-225.5125 465.1992,-240.6015 519.4023,-206.8365 555.4951,-184.3531 585.2495,-141.7825 597.2143,-123.0626"/>
<polygon fill="#191970" stroke="#191970" points="328.3606,-261.6888 320.3856,-268.6637 330.9696,-268.1844 328.3606,-261.6888"/>
</g>
<!-- Node14&#45;&gt;Node11 -->
<g id="edge22" class="edge">
<title>Node14&#45;&gt;Node11</title>
<path fill="none" stroke="#191970" d="M299.6662,-259.8474C315.6117,-234.0268 344.9184,-192.7455 381.1123,-169.8365 386.877,-166.1877 393.3563,-163.276 399.977,-160.9529"/>
<polygon fill="#191970" stroke="#191970" points="296.5586,-258.2238 294.408,-268.5981 302.5587,-261.8292 296.5586,-258.2238"/>
</g>
<!-- Node15 -->
<g id="node12" class="node">
<title>Node15</title>
<g id="a_node12"><a xlink:href="auto_8c.html#a55085901854f29969753bfd62c70049c" target="_top" xlink:title="utility function which raises the second lifter to its maximum height ">
<polygon fill="none" stroke="#000000" points="381.1123,-179.8365 381.1123,-197.8365 519.4023,-197.8365 519.4023,-179.8365 381.1123,-179.8365"/>
<text text-anchor="middle" x="450.2573" y="-185.8365" font-family="Helvetica,sans-Serif" font-size="10.00" fill="#000000">auton_raise_sec_lifter_max</text>
</a>
</g>
</g>
<!-- Node14&#45;&gt;Node15 -->
<g id="edge12" class="edge">
<title>Node14&#45;&gt;Node15</title>
<path fill="none" stroke="#191970" d="M310.0836,-262.2341C328.4422,-246.9856 355.1059,-226.5622 381.1123,-212.8365 392.5748,-206.7868 405.8801,-201.7479 417.74,-197.8747"/>
<polygon fill="#191970" stroke="#191970" points="307.6493,-259.7086 302.2652,-268.8334 312.1645,-265.0578 307.6493,-259.7086"/>
</g>
<!-- Node16 -->
<g id="node13" class="node">
<title>Node16</title>
<g id="a_node13"><a xlink:href="auto_8c.html#a64bd65456b81f16eb4ff67237159f984" target="_top" xlink:title="utility function which deploys the secondary lifter at the start of autonomous. ">
<polygon fill="none" stroke="#000000" points="389.4473,-255.8365 389.4473,-273.8365 511.0674,-273.8365 511.0674,-255.8365 389.4473,-255.8365"/>
<text text-anchor="middle" x="450.2573" y="-261.8365" font-family="Helvetica,sans-Serif" font-size="10.00" fill="#000000">deploy_seoncdary_lifter</text>
</a>
</g>
</g>
<!-- Node14&#45;&gt;Node16 -->
<g id="edge16" class="edge">
<title>Node14&#45;&gt;Node16</title>
<path fill="none" stroke="#191970" d="M349.9297,-275.8669C362.9033,-274.4405 376.5299,-272.9423 389.4118,-271.5261"/>
<polygon fill="#191970" stroke="#191970" points="349.2493,-272.4205 339.6917,-276.9925 350.0143,-279.3786 349.2493,-272.4205"/>
</g>
<!-- Node17 -->
<g id="node14" class="node">
<title>Node17</title>
<g id="a_node14"><a xlink:href="lifter_8c.html#af76abbd394bf206ab56fa237d776f2b3" target="_top" xlink:title="Lowers the secondary lifter. ">
<polygon fill="none" stroke="#000000" points="392.2329,-292.8365 392.2329,-310.8365 508.2817,-310.8365 508.2817,-292.8365 392.2329,-292.8365"/>
<text text-anchor="middle" x="450.2573" y="-298.8365" font-family="Helvetica,sans-Serif" font-size="10.00" fill="#000000">lower_secondary_lifter</text>
</a>
</g>
</g>
<!-- Node14&#45;&gt;Node17 -->
<g id="edge18" class="edge">
<title>Node14&#45;&gt;Node17</title>
<path fill="none" stroke="#191970" d="M349.6691,-290.1632C363.5906,-291.7788 378.2758,-293.483 391.9942,-295.075"/>
<polygon fill="#191970" stroke="#191970" points="350.0285,-286.6815 339.6917,-289.0053 349.2215,-293.6348 350.0285,-286.6815"/>
</g>
<!-- Node18 -->
<g id="node15" class="node">
<title>Node18</title>
<g id="a_node15"><a xlink:href="lifter_8c.html#a786f679ea48bb8c80e00fbac9a69911b" target="_top" xlink:title="Raises the main lifter. ">
<polygon fill="none" stroke="#000000" points="393.3438,-329.8365 393.3438,-347.8365 507.1709,-347.8365 507.1709,-329.8365 393.3438,-329.8365"/>
<text text-anchor="middle" x="450.2573" y="-335.8365" font-family="Helvetica,sans-Serif" font-size="10.00" fill="#000000">raise_secondary_lifter</text>
</a>
</g>
</g>
<!-- Node14&#45;&gt;Node18 -->
<g id="edge20" class="edge">
<title>Node14&#45;&gt;Node18</title>
<path fill="none" stroke="#191970" d="M329.5711,-300.7706C345.6142,-307.1647 364.0679,-314.178 381.1123,-319.8365 391.8641,-323.406 403.7091,-326.8386 414.5115,-329.7806"/>
<polygon fill="#191970" stroke="#191970" points="330.5112,-297.3761 319.9277,-296.8871 327.8962,-303.8694 330.5112,-297.3761"/>
</g>
<!-- Node15&#45;&gt;Node10 -->
<g id="edge13" class="edge">
<title>Node15&#45;&gt;Node10</title>
<path fill="none" stroke="#191970" d="M501.3309,-176.8281C507.5276,-174.7823 513.683,-172.4564 519.4023,-169.8365 547.4838,-156.9732 576.6362,-135.1271 591.9545,-122.8689"/>
<polygon fill="#191970" stroke="#191970" points="500.1463,-173.5306 491.6163,-179.8146 502.2033,-180.2216 500.1463,-173.5306"/>
</g>
<!-- Node16&#45;&gt;Node10 -->
<g id="edge17" class="edge">
<title>Node16&#45;&gt;Node10</title>
<path fill="none" stroke="#191970" d="M500.0177,-252.0621C506.9168,-249.0417 513.6129,-245.3457 519.4023,-240.8365 562.0746,-207.6009 589.9299,-146.1554 599.3349,-122.9922"/>
<polygon fill="#191970" stroke="#191970" points="498.582,-248.8656 490.55,-255.7749 501.1376,-255.3824 498.582,-248.8656"/>
</g>
<!-- Node18&#45;&gt;Node5 -->
<g id="edge21" class="edge">
<title>Node18&#45;&gt;Node5</title>
<path fill="none" stroke="#191970" d="M490.841,-351.2277C500.3754,-354.6008 510.3818,-358.5278 519.4023,-362.8365 545.9008,-375.4937 574.4718,-394.6165 590.3685,-405.803"/>
<polygon fill="#191970" stroke="#191970" points="491.7316,-347.8336 481.1371,-347.9204 489.4733,-354.4593 491.7316,-347.8336"/>
</g>
<!-- Node19&#45;&gt;Node10 -->
<g id="edge24" class="edge">
<title>Node19&#45;&gt;Node10</title>
<path fill="none" stroke="#191970" d="M343.2931,-82.6545C408.3018,-90.4637 512.832,-103.0204 567.2906,-109.5622"/>
<polygon fill="#191970" stroke="#191970" points="343.5588,-79.1613 333.2127,-81.4436 342.7238,-86.1113 343.5588,-79.1613"/>
</g>
<!-- Node20 -->
<g id="node17" class="node">
<title>Node20</title>
<g id="a_node17"><a xlink:href="mobile__goal__intake_8c.html#aef03134014e51a6a90dd3824f09f4d6c" target="_top" xlink:title="lowers the intake ">
<polygon fill="none" stroke="#ff0000" points="414.186,-28.8365 414.186,-46.8365 486.3286,-46.8365 486.3286,-28.8365 414.186,-28.8365"/>
<text text-anchor="middle" x="450.2573" y="-34.8365" font-family="Helvetica,sans-Serif" font-size="10.00" fill="#000000">lower_intake</text>
</a>
</g>
</g>
<!-- Node19&#45;&gt;Node20 -->
<g id="edge25" class="edge">
<title>Node19&#45;&gt;Node20</title>
<path fill="none" stroke="#191970" d="M335.1043,-64.5638C360.3842,-58.6963 390.77,-51.6437 413.9794,-46.2567"/>
<polygon fill="#191970" stroke="#191970" points="334.2855,-61.1607 325.3358,-66.8311 335.8682,-67.9794 334.2855,-61.1607"/>
</g>
<!-- Node20&#45;&gt;Node10 -->
<g id="edge26" class="edge">
<title>Node20&#45;&gt;Node10</title>
<path fill="none" stroke="#191970" d="M490.841,-50.2277C500.3754,-53.6008 510.3818,-57.5278 519.4023,-61.8365 545.9008,-74.4937 574.4718,-93.6165 590.3685,-104.803"/>
<polygon fill="#191970" stroke="#191970" points="491.7316,-46.8336 481.1371,-46.9204 489.4733,-53.4593 491.7316,-46.8336"/>
</g>
<!-- Node24 -->
<g id="node19" class="node">
<title>Node24</title>
<g id="a_node19"><a xlink:href="drive_8c.html#a8df41fd50094c065eedc81fc5e6595d1" target="_top" xlink:title="sets the speed of one side of the robot. ">
<polygon fill="none" stroke="#ff0000" points="243.5093,-10.8365 243.5093,-28.8365 329.563,-28.8365 329.563,-10.8365 243.5093,-10.8365"/>
<text text-anchor="middle" x="286.5361" y="-16.8365" font-family="Helvetica,sans-Serif" font-size="10.00" fill="#000000">set_side_speed</text>
</a>
</g>
</g>
<!-- Node23&#45;&gt;Node24 -->
<g id="edge28" class="edge">
<title>Node23&#45;&gt;Node24</title>
<path fill="none" stroke="#191970" d="M141.3241,-226.6832C152.4858,-190.113 180.9557,-109.3199 227.96,-56.8365 238.7131,-44.8299 254.2582,-35.2552 266.6324,-28.8562"/>
<polygon fill="#191970" stroke="#191970" points="137.8911,-225.9507 138.4144,-236.5326 144.6042,-227.9339 137.8911,-225.9507"/>
</g>
<!-- Node28 -->
<g id="node20" class="node">
<title>Node28</title>
<g id="a_node20"><a xlink:href="lifter_8c.html#ad00a195af30f246924d6e1a30095b882" target="_top" xlink:title="Sets the main lifter motors to the given value. ">
<polygon fill="none" stroke="#ff0000" points="227.96,-352.8365 227.96,-370.8365 345.1123,-370.8365 345.1123,-352.8365 227.96,-352.8365"/>
<text text-anchor="middle" x="286.5361" y="-358.8365" font-family="Helvetica,sans-Serif" font-size="10.00" fill="#000000">set_main_lifter_motors</text>
</a>
</g>
</g>
<!-- Node23&#45;&gt;Node28 -->
<g id="edge30" class="edge">
<title>Node23&#45;&gt;Node28</title>
<path fill="none" stroke="#191970" d="M183.2907,-258.9046C186.3145,-260.3869 189.2346,-262.026 191.96,-263.8365 212.4383,-277.441 211.0537,-287.9865 227.96,-305.8365 244.2134,-322.9973 264.3609,-341.7517 276.2917,-352.6176"/>
<polygon fill="#191970" stroke="#191970" points="184.5697,-255.6447 174.0001,-254.9135 181.8067,-262.0764 184.5697,-255.6447"/>
</g>
<!-- Node24&#45;&gt;Node10 -->
<g id="edge29" class="edge">
<title>Node24&#45;&gt;Node10</title>
<path fill="none" stroke="#191970" d="M332.7126,-8.7649C381.4591,.5062 459.3974,8.3175 519.4023,-18.8365 559.4068,-36.9397 587.8505,-84.7401 598.3803,-104.7865"/>
<polygon fill="#191970" stroke="#191970" points="331.89,-5.36 322.7707,-10.7533 333.2629,-12.2241 331.89,-5.36"/>
</g>
<!-- Node28&#45;&gt;Node5 -->
<g id="edge31" class="edge">
<title>Node28&#45;&gt;Node5</title>
<path fill="none" stroke="#191970" d="M336.0201,-375.1494C339.2232,-376.831 342.2907,-378.7186 345.1123,-380.8365 367.8861,-397.9309 355.9481,-420.5089 381.1123,-433.8365 447.1877,-468.8319 540.0725,-440.069 581.488,-423.9387"/>
<polygon fill="#191970" stroke="#191970" points="337.2784,-371.8771 326.7254,-370.9363 334.3884,-378.2527 337.2784,-371.8771"/>
</g>
<!-- Node28&#45;&gt;Node7 -->
<g id="edge32" class="edge">
<title>Node28&#45;&gt;Node7</title>
<path fill="none" stroke="#191970" d="M324.3453,-374.0762C354.2098,-383.7439 395.2145,-397.018 422.2064,-405.7559"/>
<polygon fill="#191970" stroke="#191970" points="325.2727,-370.6976 314.6808,-370.9476 323.1168,-377.3574 325.2727,-370.6976"/>
</g>
</g>
</svg>
        <g id="navigator" transform="translate(0 0)" fill="#404254">
                <rect fill="#f2f5e9" fill-opacity="0.5" stroke="#606060" stroke-width=".5" x="0" y="0" width="60" height="60"/>
                <use id="zoomplus" xlink:href="#zoomPlus" x="17" y="9" onmousedown="handleZoom(evt,'in')"/>
                <use id="zoomminus" xlink:href="#zoomMin" x="42" y="9" onmousedown="handleZoom(evt,'out')"/>
                <use id="reset" xlink:href="#resetDef" x="30" y="36" onmousedown="handleReset()"/>
                <g id="arrowUp" xlink:href="#dirArrow" transform="translate(30 24)" onmousedown="handlePan(0,-1)">
                  <use xlink:href="#rim" fill="#404040">
                        <set attributeName="fill" to="#808080" begin="arrowUp.mouseover" end="arrowUp.mouseout"/>
                  </use>
                  <path fill="none" stroke="white" stroke-width="1.5" d="M0,-3.0v7 M-2.5,-0.5L0,-3.0L2.5,-0.5"/>
                </g>
                <g id="arrowRight" xlink:href="#dirArrow" transform="rotate(90) translate(36 -43)" onmousedown="handlePan(1,0)">
                  <use xlink:href="#rim" fill="#404040">
                        <set attributeName="fill" to="#808080" begin="arrowRight.mouseover" end="arrowRight.mouseout"/>
                  </use>
                  <path fill="none" stroke="white" stroke-width="1.5" d="M0,-3.0v7 M-2.5,-0.5L0,-3.0L2.5,-0.5"/>
                </g>
                <g id="arrowDown" xlink:href="#dirArrow" transform="rotate(180) translate(-30 -48)" onmousedown="handlePan(0,1)">
                  <use xlink:href="#rim" fill="#404040">
                        <set attributeName="fill" to="#808080" begin="arrowDown.mouseover" end="arrowDown.mouseout"/>
                  </use>
                  <path fill="none" stroke="white" stroke-width="1.5" d="M0,-3.0v7 M-2.5,-0.5L0,-3.0L2.5,-0.5"/>
                </g>
                <g id="arrowLeft" xlink:href="#dirArrow" transform="rotate(270) translate(-36 17)" onmousedown="handlePan(-1,0)">
                  <use xlink:href="#rim" fill="#404040">
                        <set attributeName="fill" to="#808080" begin="arrowLeft.mouseover" end="arrowLeft.mouseout"/>
                  </use>
                  <path fill="none" stroke="white" stroke-width="1.5" d="M0,-3.0v7 M-2.5,-0.5L0,-3.0L2.5,-0.5"/>
                </g>
        </g>
        <svg viewBox="0 0 15 15" width="100%" height="30px" preserveAspectRatio="xMaxYMin meet">
         <g id="arrow_out" transform="scale(0.3 0.3)">
          <a xlink:href="log_8c_af3668f40d1ad1b4f3418869ac9a31f34_icgraph_org.svg" target="_base">
           <rect id="button" ry="5" rx="5" y="6" x="6" height="38" width="38"
                fill="#f2f5e9" fill-opacity="0.5" stroke="#606060" stroke-width="1.0"/>
           <path id="arrow"
             d="M 11.500037,31.436501 C 11.940474,20.09759 22.043105,11.32322 32.158766,21.979434 L 37.068811,17.246167 C 37.068811,17.246167 37.088388,32 37.088388,32 L 22.160133,31.978069 C 22.160133,31.978069 26.997745,27.140456 26.997745,27.140456 C 18.528582,18.264221 13.291696,25.230495 11.500037,31.436501 z"
             style="fill:#404040;"/>
          </a>
         </g>
        </svg>
</svg>
