<?xml version="1.0" encoding="UTF-8" standalone="no"?>
<!DOCTYPE svg PUBLIC "-//W3C//DTD SVG 1.1//EN"
 "http://www.w3.org/Graphics/SVG/1.1/DTD/svg11.dtd">
<!-- Generated by graphviz version 2.40.1 (20161225.0304)
 -->
<!-- Title: log_info Pages: 1 -->
<svg width="450pt" height="139pt"
 viewBox="0.00 0.00 449.91 139.00" xmlns="http://www.w3.org/2000/svg" xmlns:xlink="http://www.w3.org/1999/xlink">
<g id="graph0" class="graph" transform="scale(1 1) rotate(0) translate(4 135)">
<title>log_info</title>
<!-- Node30 -->
<g id="node1" class="node">
<title>Node30</title>
<polygon fill="#bfbfbf" stroke="#000000" points="0,-37.5 0,-55.5 51.0293,-55.5 51.0293,-37.5 0,-37.5"/>
<text text-anchor="middle" x="25.5146" y="-43.5" font-family="Helvetica,sans-Serif" font-size="10.00" fill="#000000">log_info</text>
</g>
<!-- Node31 -->
<g id="node2" class="node">
<title>Node31</title>
<g id="a_node2"><a xlink:href="log_8c.html#a8e5bb8a2a372f5b066ff7af7044584c1" target="_top" xlink:title="prints a error message and displays on lcd. Only will print and display if log_level is greater than ...">
<polygon fill="none" stroke="#000000" points="87.0293,-56.5 87.0293,-74.5 124.1426,-74.5 124.1426,-56.5 87.0293,-56.5"/>
<text text-anchor="middle" x="105.5859" y="-62.5" font-family="Helvetica,sans-Serif" font-size="10.00" fill="#000000">error</text>
</a>
</g>
</g>
<!-- Node30&#45;&gt;Node31 -->
<g id="edge1" class="edge">
<title>Node30&#45;&gt;Node31</title>
<path fill="none" stroke="#191970" d="M61.1333,-54.9519C70.0474,-57.0671 79.2572,-59.2525 86.9659,-61.0817"/>
<polygon fill="#191970" stroke="#191970" points="61.8284,-51.5197 51.2905,-52.6163 60.2122,-58.3306 61.8284,-51.5197"/>
</g>
<!-- Node37 -->
<g id="node8" class="node">
<title>Node37</title>
<g id="a_node8"><a xlink:href="log_8c.html#a0bec2cf5fff7f607bc510b74aba9887c" target="_top" xlink:title="prints a warning message and displays on lcd. Only will print and display if log_level is greater tha...">
<polygon fill="none" stroke="#000000" points="171.8174,-.5 171.8174,-18.5 222.8369,-18.5 222.8369,-.5 171.8174,-.5"/>
<text text-anchor="middle" x="197.3271" y="-6.5" font-family="Helvetica,sans-Serif" font-size="10.00" fill="#000000">warning</text>
</a>
</g>
</g>
<!-- Node30&#45;&gt;Node37 -->
<g id="edge7" class="edge">
<title>Node30&#45;&gt;Node37</title>
<path fill="none" stroke="#191970" d="M61.3705,-38.7784C94.3507,-31.6761 142.4437,-21.3192 171.7102,-15.0166"/>
<polygon fill="#191970" stroke="#191970" points="60.2757,-35.4338 51.2367,-40.9607 61.7495,-42.277 60.2757,-35.4338"/>
</g>
<!-- Node32 -->
<g id="node3" class="node">
<title>Node32</title>
<g id="a_node3"><a xlink:href="menu_8c.html#adcee778eac0edb821427d32949106dc5" target="_top" xlink:title="create_menu">
<polygon fill="none" stroke="#000000" points="160.1426,-56.5 160.1426,-74.5 234.5117,-74.5 234.5117,-56.5 160.1426,-56.5"/>
<text text-anchor="middle" x="197.3271" y="-62.5" font-family="Helvetica,sans-Serif" font-size="10.00" fill="#000000">create_menu</text>
</a>
</g>
</g>
<!-- Node31&#45;&gt;Node32 -->
<g id="edge2" class="edge">
<title>Node31&#45;&gt;Node32</title>
<path fill="none" stroke="#191970" d="M134.2251,-65.5C142.3363,-65.5 151.2887,-65.5 159.8388,-65.5"/>
<polygon fill="#191970" stroke="#191970" points="134.1512,-62.0001 124.1511,-65.5 134.1511,-69.0001 134.1512,-62.0001"/>
</g>
<!-- Node33 -->
<g id="node4" class="node">
<title>Node33</title>
<g id="a_node4"><a xlink:href="menu_8c.html#a3529988b0a7c12cb3f2ebb3cf5595594" target="_top" xlink:title="Creates a menu context, but does not display. &#160;Menu must be freed or will cause memory leak &#160;...">
<polygon fill="none" stroke="#000000" points="273.0166,-112.5 273.0166,-130.5 351.8291,-130.5 351.8291,-112.5 273.0166,-112.5"/>
<text text-anchor="middle" x="312.4229" y="-118.5" font-family="Helvetica,sans-Serif" font-size="10.00" fill="#000000">init_menu_var</text>
</a>
</g>
</g>
<!-- Node32&#45;&gt;Node33 -->
<g id="edge3" class="edge">
<title>Node32&#45;&gt;Node33</title>
<path fill="none" stroke="#191970" d="M223.0063,-79.4199C236.9383,-86.8227 254.5324,-95.9325 270.5117,-103.5 276.9529,-106.5504 284.0452,-109.6808 290.5347,-112.4578"/>
<polygon fill="#191970" stroke="#191970" points="224.4796,-76.2387 214.0111,-74.6074 221.1775,-82.4109 224.4796,-76.2387"/>
</g>
<!-- Node34 -->
<g id="node5" class="node">
<title>Node34</title>
<g id="a_node5"><a xlink:href="menu_8c.html#ac8efedba760ec35ebf841ab19543ba5a" target="_top" xlink:title="Creates a menu context, but does not display. &#160;Menu must be freed or will cause memory leak &#160;...">
<polygon fill="none" stroke="#000000" points="274.6816,-75.5 274.6816,-93.5 350.1641,-93.5 350.1641,-75.5 274.6816,-75.5"/>
<text text-anchor="middle" x="312.4229" y="-81.5" font-family="Helvetica,sans-Serif" font-size="10.00" fill="#000000">init_menu_int</text>
</a>
</g>
</g>
<!-- Node32&#45;&gt;Node34 -->
<g id="edge4" class="edge">
<title>Node32&#45;&gt;Node34</title>
<path fill="none" stroke="#191970" d="M244.7944,-73.3359C254.6764,-74.9672 264.9678,-76.6661 274.4534,-78.232"/>
<polygon fill="#191970" stroke="#191970" points="245.132,-69.8443 234.6954,-71.6688 243.9918,-76.7509 245.132,-69.8443"/>
</g>
<!-- Node36 -->
<g id="node7" class="node">
<title>Node36</title>
<g id="a_node7"><a xlink:href="menu_8c.html#a5abb752733423805f59ef3b92e3c2e57" target="_top" xlink:title="Creates a menu context, but does not display. &#160;Menu must be freed or will cause memory leak! &#160;...">
<polygon fill="none" stroke="#000000" points="270.5117,-38.5 270.5117,-56.5 354.334,-56.5 354.334,-38.5 270.5117,-38.5"/>
<text text-anchor="middle" x="312.4229" y="-44.5" font-family="Helvetica,sans-Serif" font-size="10.00" fill="#000000">init_menu_float</text>
</a>
</g>
</g>
<!-- Node32&#45;&gt;Node36 -->
<g id="edge6" class="edge">
<title>Node32&#45;&gt;Node36</title>
<path fill="none" stroke="#191970" d="M244.8523,-58.0675C253.3437,-56.7395 262.1356,-55.3645 270.4572,-54.0631"/>
<polygon fill="#191970" stroke="#191970" points="244.0345,-54.6527 234.6954,-59.6559 245.1162,-61.5687 244.0345,-54.6527"/>
</g>
<!-- Node35 -->
<g id="node6" class="node">
<title>Node35</title>
<g id="a_node6"><a xlink:href="init_8c.html#a25a40b6614565f755233080a384c35f1" target="_top" xlink:title="initialize">
<polygon fill="none" stroke="#000000" points="390.334,-37.5 390.334,-55.5 441.9053,-55.5 441.9053,-37.5 390.334,-37.5"/>
<text text-anchor="middle" x="416.1196" y="-43.5" font-family="Helvetica,sans-Serif" font-size="10.00" fill="#000000">initialize</text>
</a>
</g>
</g>
<!-- Node34&#45;&gt;Node35 -->
<g id="edge5" class="edge">
<title>Node34&#45;&gt;Node35</title>
<path fill="none" stroke="#191970" d="M346.6989,-71.9395C361.2948,-66.5907 377.998,-60.4698 391.362,-55.5725"/>
<polygon fill="#191970" stroke="#191970" points="345.1827,-68.7674 336.9975,-75.4945 347.5913,-75.34 345.1827,-68.7674"/>
</g>
<!-- Node37&#45;&gt;Node35 -->
<g id="edge8" class="edge">
<title>Node37&#45;&gt;Node35</title>
<path fill="none" stroke="#191970" d="M233.304,-12.1744C265.3018,-14.9505 313.25,-20.0882 354.334,-28.5 366.2646,-30.9428 379.2367,-34.5686 390.2004,-37.9271"/>
<polygon fill="#191970" stroke="#191970" points="233.3536,-8.6665 223.097,-11.3222 232.7711,-15.6422 233.3536,-8.6665"/>
</g>
</g>
</svg>
