<?xml version="1.0" encoding="UTF-8" standalone="no"?>
<!DOCTYPE svg PUBLIC "-//W3C//DTD SVG 1.1//EN"
 "http://www.w3.org/Graphics/SVG/1.1/DTD/svg11.dtd">
<!-- Generated by graphviz version 2.40.1 (20161225.0304)
 -->
<!-- Title: info Pages: 1 -->
<svg width="248pt" height="138pt"
 viewBox="0.00 0.00 247.52 138.00" xmlns="http://www.w3.org/2000/svg" xmlns:xlink="http://www.w3.org/1999/xlink">
<g id="graph0" class="graph" transform="scale(1 1) rotate(0) translate(4 134)">
<title>info</title>
<!-- Node64 -->
<g id="node1" class="node">
<title>Node64</title>
<polygon fill="#bfbfbf" stroke="#000000" points="0,-55.5 0,-73.5 32.123,-73.5 32.123,-55.5 0,-55.5"/>
<text text-anchor="middle" x="16.0615" y="-61.5" font-family="Helvetica,sans-Serif" font-size="10.00" fill="#000000">info</text>
</g>
<!-- Node65 -->
<g id="node2" class="node">
<title>Node65</title>
<g id="a_node2"><a xlink:href="log_8c.html#afff22aff6749311a684a559cac3ac8bd" target="_top" xlink:title="prints a log info message to the lcd ">
<polygon fill="none" stroke="#000000" points="68.123,-55.5 68.123,-73.5 119.1523,-73.5 119.1523,-55.5 68.123,-55.5"/>
<text text-anchor="middle" x="93.6377" y="-61.5" font-family="Helvetica,sans-Serif" font-size="10.00" fill="#000000">log_info</text>
</a>
</g>
</g>
<!-- Node64&#45;&gt;Node65 -->
<g id="edge1" class="edge">
<title>Node64&#45;&gt;Node65</title>
<path fill="none" stroke="#191970" d="M32.1354,-64.5C39.6806,-64.5 48.9965,-64.5 58.075,-64.5"/>
<polygon fill="#191970" stroke="#191970" points="58.1172,-68.0001 68.1172,-64.5 58.1171,-61.0001 58.1172,-68.0001"/>
</g>
<!-- Node66 -->
<g id="node3" class="node">
<title>Node66</title>
<g id="a_node3"><a xlink:href="_a_p_i_8h.html#a403c82418e475fa4a8273719e6a7f3e6" target="_top" xlink:title="Prints the formatted string to the debug stream (the PC terminal). ">
<polygon fill="none" stroke="#000000" points="178.2212,-111.5 178.2212,-129.5 216.4526,-129.5 216.4526,-111.5 178.2212,-111.5"/>
<text text-anchor="middle" x="197.3369" y="-117.5" font-family="Helvetica,sans-Serif" font-size="10.00" fill="#000000">printf</text>
</a>
</g>
</g>
<!-- Node65&#45;&gt;Node66 -->
<g id="edge2" class="edge">
<title>Node65&#45;&gt;Node66</title>
<path fill="none" stroke="#191970" d="M106.9791,-73.5526C119.2157,-81.6578 137.9904,-93.6016 155.1523,-102.5 159.5174,-104.7632 164.231,-106.9819 168.8712,-109.0459"/>
<polygon fill="#191970" stroke="#191970" points="167.5872,-112.3035 178.1571,-113.0298 170.3472,-105.8706 167.5872,-112.3035"/>
</g>
<!-- Node67 -->
<g id="node4" class="node">
<title>Node67</title>
<g id="a_node4"><a xlink:href="_a_p_i_8h.html#aab53a247d88151a6623c20fa1ea940b0" target="_top" xlink:title="Sets the specified LCD backlight to be on or off. ">
<polygon fill="none" stroke="#000000" points="155.1523,-74.5 155.1523,-92.5 239.5215,-92.5 239.5215,-74.5 155.1523,-74.5"/>
<text text-anchor="middle" x="197.3369" y="-80.5" font-family="Helvetica,sans-Serif" font-size="10.00" fill="#000000">lcdSetBacklight</text>
</a>
</g>
</g>
<!-- Node65&#45;&gt;Node67 -->
<g id="edge3" class="edge">
<title>Node65&#45;&gt;Node67</title>
<path fill="none" stroke="#191970" d="M119.2712,-69.1966C127.1151,-70.6338 136.0453,-72.27 144.995,-73.9098"/>
<polygon fill="#191970" stroke="#191970" points="144.5839,-77.3927 155.051,-75.7523 145.8455,-70.5073 144.5839,-77.3927"/>
</g>
<!-- Node68 -->
<g id="node5" class="node">
<title>Node68</title>
<g id="a_node5"><a xlink:href="_a_p_i_8h.html#a5fa1d119fe3e836b5519f97eae7a1272" target="_top" xlink:title="Clears the LCD screen on the specified port. ">
<polygon fill="none" stroke="#000000" points="170.9971,-37.5 170.9971,-55.5 223.6768,-55.5 223.6768,-37.5 170.9971,-37.5"/>
<text text-anchor="middle" x="197.3369" y="-43.5" font-family="Helvetica,sans-Serif" font-size="10.00" fill="#000000">lcdClear</text>
</a>
</g>
</g>
<!-- Node65&#45;&gt;Node68 -->
<g id="edge4" class="edge">
<title>Node65&#45;&gt;Node68</title>
<path fill="none" stroke="#191970" d="M119.2712,-60.0506C131.7933,-57.877 147.0839,-55.2229 160.8028,-52.8415"/>
<polygon fill="#191970" stroke="#191970" points="161.6615,-56.2449 170.9156,-51.0862 160.4643,-49.348 161.6615,-56.2449"/>
</g>
<!-- Node69 -->
<g id="node6" class="node">
<title>Node69</title>
<g id="a_node6"><a xlink:href="_a_p_i_8h.html#a6cfad8271c6a566a2f51ca318f819a80" target="_top" xlink:title="Prints the formatted string to the attached LCD. ">
<polygon fill="none" stroke="#000000" points="172.6646,-.5 172.6646,-18.5 222.0093,-18.5 222.0093,-.5 172.6646,-.5"/>
<text text-anchor="middle" x="197.3369" y="-6.5" font-family="Helvetica,sans-Serif" font-size="10.00" fill="#000000">lcdPrint</text>
</a>
</g>
</g>
<!-- Node65&#45;&gt;Node69 -->
<g id="edge5" class="edge">
<title>Node65&#45;&gt;Node69</title>
<path fill="none" stroke="#191970" d="M108.0595,-55.4724C120.3732,-47.9076 138.6575,-37.0107 155.1523,-28.5 158.9266,-26.5526 162.9414,-24.5991 166.9363,-22.7251"/>
<polygon fill="#191970" stroke="#191970" points="168.4592,-25.8774 176.0992,-18.537 165.5492,-19.5109 168.4592,-25.8774"/>
</g>
</g>
</svg>
