<?xml version="1.0" encoding="UTF-8" standalone="no"?>
<!DOCTYPE svg PUBLIC "-//W3C//DTD SVG 1.1//EN"
 "http://www.w3.org/Graphics/SVG/1.1/DTD/svg11.dtd">
<!-- Generated by graphviz version 2.40.1 (20161225.0304)
 -->
<!-- Title: log_info Pages: 1 -->
<svg width="923pt" height="516pt"
 viewBox="0.00 0.00 922.74 516.00" xmlns="http://www.w3.org/2000/svg" xmlns:xlink="http://www.w3.org/1999/xlink">
<g id="graph0" class="graph" transform="scale(1 1) rotate(0) translate(4 512)">
<title>log_info</title>
<!-- Node60 -->
<g id="node1" class="node">
<title>Node60</title>
<polygon fill="#bfbfbf" stroke="#000000" points="0,-376.5 0,-394.5 51.0293,-394.5 51.0293,-376.5 0,-376.5"/>
<text text-anchor="middle" x="25.5146" y="-382.5" font-family="Helvetica,sans-Serif" font-size="10.00" fill="#000000">log_info</text>
</g>
<!-- Node61 -->
<g id="node2" class="node">
<title>Node61</title>
<g id="a_node2"><a xlink:href="log_8c.html#a8e5bb8a2a372f5b066ff7af7044584c1" target="_top" xlink:title="prints a error message and displays on lcd. Only will print and display if log_level is greater than ...">
<polygon fill="none" stroke="#000000" points="93.9824,-405.5 93.9824,-423.5 131.0957,-423.5 131.0957,-405.5 93.9824,-405.5"/>
<text text-anchor="middle" x="112.5391" y="-411.5" font-family="Helvetica,sans-Serif" font-size="10.00" fill="#000000">error</text>
</a>
</g>
</g>
<!-- Node60&#45;&gt;Node61 -->
<g id="edge1" class="edge">
<title>Node60&#45;&gt;Node61</title>
<path fill="none" stroke="#191970" d="M60.78,-397.2518C72.0486,-401.007 84.0833,-405.0174 93.7097,-408.2253"/>
<polygon fill="#191970" stroke="#191970" points="61.7478,-393.8852 51.1542,-394.0441 59.5347,-400.5261 61.7478,-393.8852"/>
</g>
<!-- Node66 -->
<g id="node7" class="node">
<title>Node66</title>
<g id="a_node7"><a xlink:href="log_8c.html#a0bec2cf5fff7f607bc510b74aba9887c" target="_top" xlink:title="prints a warning message and displays on lcd. Only will print and display if log_level is greater tha...">
<polygon fill="none" stroke="#000000" points="87.0293,-358.5 87.0293,-376.5 138.0488,-376.5 138.0488,-358.5 87.0293,-358.5"/>
<text text-anchor="middle" x="112.5391" y="-364.5" font-family="Helvetica,sans-Serif" font-size="10.00" fill="#000000">warning</text>
</a>
</g>
</g>
<!-- Node60&#45;&gt;Node66 -->
<g id="edge6" class="edge">
<title>Node60&#45;&gt;Node66</title>
<path fill="none" stroke="#191970" d="M61.001,-378.1601C69.6325,-376.3747 78.7005,-374.4991 86.7821,-372.8275"/>
<polygon fill="#191970" stroke="#191970" points="60.2379,-374.7437 51.1542,-380.1968 61.6558,-381.5986 60.2379,-374.7437"/>
</g>
<!-- Node62 -->
<g id="node3" class="node">
<title>Node62</title>
<g id="a_node3"><a xlink:href="menu_8c.html#aff4fd27ff7707295d91c67fa52a6b021" target="_top" xlink:title="create_menu">
<polygon fill="none" stroke="#000000" points="174.0488,-433.5 174.0488,-451.5 248.418,-451.5 248.418,-433.5 174.0488,-433.5"/>
<text text-anchor="middle" x="211.2334" y="-439.5" font-family="Helvetica,sans-Serif" font-size="10.00" fill="#000000">create_menu</text>
</a>
</g>
</g>
<!-- Node61&#45;&gt;Node62 -->
<g id="edge2" class="edge">
<title>Node61&#45;&gt;Node62</title>
<path fill="none" stroke="#191970" d="M140.9854,-422.5703C152.9216,-425.9567 166.859,-429.9108 179.1582,-433.4001"/>
<polygon fill="#191970" stroke="#191970" points="141.6783,-419.1289 131.1027,-419.7666 139.7678,-425.8631 141.6783,-419.1289"/>
</g>
<!-- Node63 -->
<g id="node4" class="node">
<title>Node63</title>
<g id="a_node4"><a xlink:href="menu_8c.html#a3529988b0a7c12cb3f2ebb3cf5595594" target="_top" xlink:title="Creates a menu context, but does not display. &#160;Menu must be freed or will cause memory leak &#160;...">
<polygon fill="none" stroke="#000000" points="301.0879,-489.5 301.0879,-507.5 379.9004,-507.5 379.9004,-489.5 301.0879,-489.5"/>
<text text-anchor="middle" x="340.4941" y="-495.5" font-family="Helvetica,sans-Serif" font-size="10.00" fill="#000000">init_menu_var</text>
</a>
</g>
</g>
<!-- Node62&#45;&gt;Node63 -->
<g id="edge3" class="edge">
<title>Node62&#45;&gt;Node63</title>
<path fill="none" stroke="#191970" d="M235.8223,-456.5898C249.7956,-464.258 267.775,-473.5661 284.418,-480.5 292.2518,-483.7638 300.9004,-486.8033 309.0121,-489.421"/>
<polygon fill="#191970" stroke="#191970" points="237.2933,-453.4028 226.8542,-451.5923 233.8858,-459.5175 237.2933,-453.4028"/>
</g>
<!-- Node64 -->
<g id="node5" class="node">
<title>Node64</title>
<g id="a_node5"><a xlink:href="menu_8c.html#ac8efedba760ec35ebf841ab19543ba5a" target="_top" xlink:title="Creates a menu context, but does not display. &#160;Menu must be freed or will cause memory leak &#160;...">
<polygon fill="none" stroke="#000000" points="302.7529,-452.5 302.7529,-470.5 378.2354,-470.5 378.2354,-452.5 302.7529,-452.5"/>
<text text-anchor="middle" x="340.4941" y="-458.5" font-family="Helvetica,sans-Serif" font-size="10.00" fill="#000000">init_menu_int</text>
</a>
</g>
</g>
<!-- Node62&#45;&gt;Node64 -->
<g id="edge4" class="edge">
<title>Node62&#45;&gt;Node64</title>
<path fill="none" stroke="#191970" d="M258.8887,-449.5048C273.3483,-451.6303 289.028,-453.935 302.7428,-455.9509"/>
<polygon fill="#191970" stroke="#191970" points="259.0237,-445.9871 248.621,-447.9956 258.0056,-452.9127 259.0237,-445.9871"/>
</g>
<!-- Node65 -->
<g id="node6" class="node">
<title>Node65</title>
<g id="a_node6"><a xlink:href="menu_8c.html#a5abb752733423805f59ef3b92e3c2e57" target="_top" xlink:title="Creates a menu context, but does not display. &#160;Menu must be freed or will cause memory leak! &#160;...">
<polygon fill="none" stroke="#000000" points="298.583,-415.5 298.583,-433.5 382.4053,-433.5 382.4053,-415.5 298.583,-415.5"/>
<text text-anchor="middle" x="340.4941" y="-421.5" font-family="Helvetica,sans-Serif" font-size="10.00" fill="#000000">init_menu_float</text>
</a>
</g>
</g>
<!-- Node62&#45;&gt;Node65 -->
<g id="edge5" class="edge">
<title>Node62&#45;&gt;Node65</title>
<path fill="none" stroke="#191970" d="M258.7335,-435.8854C271.6608,-434.0853 285.5735,-432.1479 298.1917,-430.3908"/>
<polygon fill="#191970" stroke="#191970" points="258.0426,-432.4478 248.621,-437.2937 259.0082,-439.3809 258.0426,-432.4478"/>
</g>
<!-- Node67 -->
<g id="node8" class="node">
<title>Node67</title>
<g id="a_node8"><a xlink:href="slew_8c.html#a321758941d88b75783955c819bb75005" target="_top" xlink:title="Initializes the slew rate controller. ">
<polygon fill="none" stroke="#000000" points="184.0586,-339.5 184.0586,-357.5 238.4082,-357.5 238.4082,-339.5 184.0586,-339.5"/>
<text text-anchor="middle" x="211.2334" y="-345.5" font-family="Helvetica,sans-Serif" font-size="10.00" fill="#000000">init_slew</text>
</a>
</g>
</g>
<!-- Node66&#45;&gt;Node67 -->
<g id="edge7" class="edge">
<title>Node66&#45;&gt;Node67</title>
<path fill="none" stroke="#191970" d="M148.2035,-360.6341C159.9896,-358.3651 172.9065,-355.8784 183.9616,-353.7502"/>
<polygon fill="#191970" stroke="#191970" points="147.3702,-357.2302 138.2122,-362.5576 148.6936,-364.104 147.3702,-357.2302"/>
</g>
<!-- Node68 -->
<g id="node9" class="node">
<title>Node68</title>
<g id="a_node9"><a xlink:href="auto_8c.html#a3c7ca506bbc071fa740de13805b7f376" target="_top" xlink:title="autonomous">
<polygon fill="none" stroke="#000000" points="568.7744,-263.5 568.7744,-281.5 639.8135,-281.5 639.8135,-263.5 568.7744,-263.5"/>
<text text-anchor="middle" x="604.2939" y="-269.5" font-family="Helvetica,sans-Serif" font-size="10.00" fill="#000000">autonomous</text>
</a>
</g>
</g>
<!-- Node67&#45;&gt;Node68 -->
<g id="edge8" class="edge">
<title>Node67&#45;&gt;Node68</title>
<path fill="none" stroke="#191970" d="M248.9015,-352.8125C309.2358,-358.2882 430.3997,-363.3489 525.2793,-329.5 553.9555,-319.2696 581.3694,-295.2458 595.1191,-281.8833"/>
<polygon fill="#191970" stroke="#191970" points="249.0003,-349.3059 238.7106,-351.8301 248.3285,-356.2736 249.0003,-349.3059"/>
</g>
<!-- Node69 -->
<g id="node10" class="node">
<title>Node69</title>
<g id="a_node10"><a xlink:href="opcontrol_8c.html#ac71a94af413917f27d108e95c4d6f6a7" target="_top" xlink:title="operatorControl">
<polygon fill="none" stroke="#000000" points="829.2539,-226.5 829.2539,-244.5 914.7363,-244.5 914.7363,-226.5 829.2539,-226.5"/>
<text text-anchor="middle" x="871.9951" y="-232.5" font-family="Helvetica,sans-Serif" font-size="10.00" fill="#000000">operatorControl</text>
</a>
</g>
</g>
<!-- Node67&#45;&gt;Node69 -->
<g id="edge9" class="edge">
<title>Node67&#45;&gt;Node69</title>
<path fill="none" stroke="#191970" d="M248.6354,-348.5C300.3855,-348.5 396.7499,-348.5 478.9248,-348.5 478.9248,-348.5 478.9248,-348.5 604.2939,-348.5 689.9575,-348.5 717.2613,-350.0395 793.2539,-310.5 825.0746,-293.9434 853.0355,-260.6499 865.3377,-244.5833"/>
<polygon fill="#191970" stroke="#191970" points="248.5942,-345.0001 238.5941,-348.5 248.5941,-352.0001 248.5942,-345.0001"/>
</g>
<!-- Node70 -->
<g id="node11" class="node">
<title>Node70</title>
<g id="a_node11"><a xlink:href="slew_8c.html#a7dff2b79dffe55fb936d977594d7c01d" target="_top" xlink:title="Sets motor speed wrapped inside the slew rate controller. ">
<polygon fill="none" stroke="#000000" points="297.4795,-301.5 297.4795,-319.5 383.5088,-319.5 383.5088,-301.5 297.4795,-301.5"/>
<text text-anchor="middle" x="340.4941" y="-307.5" font-family="Helvetica,sans-Serif" font-size="10.00" fill="#000000">set_motor_slew</text>
</a>
</g>
</g>
<!-- Node67&#45;&gt;Node70 -->
<g id="edge10" class="edge">
<title>Node67&#45;&gt;Node70</title>
<path fill="none" stroke="#191970" d="M248.3518,-337.588C267.709,-331.8973 291.1145,-325.0166 309.4919,-319.614"/>
<polygon fill="#191970" stroke="#191970" points="247.2531,-334.2628 238.6463,-340.4412 249.2275,-340.9786 247.2531,-334.2628"/>
</g>
<!-- Node73 -->
<g id="node14" class="node">
<title>Node73</title>
<g id="a_node14"><a xlink:href="slew_8c.html#a9f8b8ae577ef938622024545711f0151" target="_top" xlink:title="set_motor_immediate">
<polygon fill="none" stroke="#000000" points="284.418,-208.5 284.418,-226.5 396.5703,-226.5 396.5703,-208.5 284.418,-208.5"/>
<text text-anchor="middle" x="340.4941" y="-214.5" font-family="Helvetica,sans-Serif" font-size="10.00" fill="#000000">set_motor_immediate</text>
</a>
</g>
</g>
<!-- Node67&#45;&gt;Node73 -->
<g id="edge15" class="edge">
<title>Node67&#45;&gt;Node73</title>
<path fill="none" stroke="#191970" d="M227.4051,-332.1107C254.9289,-304.2165 309.9904,-248.4141 331.5474,-226.5672"/>
<polygon fill="#191970" stroke="#191970" points="224.6503,-329.9194 220.118,-339.4958 229.6331,-334.8359 224.6503,-329.9194"/>
</g>
<!-- Node71 -->
<g id="node12" class="node">
<title>Node71</title>
<g id="a_node12"><a xlink:href="drive_8c.html#a8df41fd50094c065eedc81fc5e6595d1" target="_top" xlink:title="sets the speed of one side of the robot. ">
<polygon fill="none" stroke="#000000" points="435.8979,-301.5 435.8979,-319.5 521.9517,-319.5 521.9517,-301.5 435.8979,-301.5"/>
<text text-anchor="middle" x="478.9248" y="-307.5" font-family="Helvetica,sans-Serif" font-size="10.00" fill="#000000">set_side_speed</text>
</a>
</g>
</g>
<!-- Node70&#45;&gt;Node71 -->
<g id="edge11" class="edge">
<title>Node70&#45;&gt;Node71</title>
<path fill="none" stroke="#191970" d="M393.8453,-310.5C407.6029,-310.5 422.2444,-310.5 435.4331,-310.5"/>
<polygon fill="#191970" stroke="#191970" points="393.5357,-307.0001 383.5356,-310.5 393.5356,-314.0001 393.5357,-307.0001"/>
</g>
<!-- Node71&#45;&gt;Node68 -->
<g id="edge12" class="edge">
<title>Node71&#45;&gt;Node68</title>
<path fill="none" stroke="#191970" d="M518.34,-298.5531C536.4515,-293.0634 557.5835,-286.6582 574.362,-281.5725"/>
<polygon fill="#191970" stroke="#191970" points="517.1903,-295.2442 508.6355,-301.4945 519.2209,-301.9433 517.1903,-295.2442"/>
</g>
<!-- Node72 -->
<g id="node13" class="node">
<title>Node72</title>
<g id="a_node13"><a xlink:href="drive_8c.html#a8224a4626a934d30ed587671b7004bf8" target="_top" xlink:title="Updates the drive motors during teleop. ">
<polygon fill="none" stroke="#000000" points="683.3086,-282.5 683.3086,-300.5 793.2539,-300.5 793.2539,-282.5 683.3086,-282.5"/>
<text text-anchor="middle" x="738.2813" y="-288.5" font-family="Helvetica,sans-Serif" font-size="10.00" fill="#000000">update_drive_motors</text>
</a>
</g>
</g>
<!-- Node71&#45;&gt;Node72 -->
<g id="edge13" class="edge">
<title>Node71&#45;&gt;Node72</title>
<path fill="none" stroke="#191970" d="M532.2446,-306.5939C576.1941,-303.3742 638.3191,-298.823 682.8404,-295.5615"/>
<polygon fill="#191970" stroke="#191970" points="531.7609,-303.1198 522.0434,-307.3412 532.2724,-310.1011 531.7609,-303.1198"/>
</g>
<!-- Node72&#45;&gt;Node69 -->
<g id="edge14" class="edge">
<title>Node72&#45;&gt;Node69</title>
<path fill="none" stroke="#191970" d="M769.3952,-278.4693C794.1903,-268.085 828.2758,-253.8099 850.2234,-244.6181"/>
<polygon fill="#191970" stroke="#191970" points="767.934,-275.2867 760.0623,-282.378 770.6381,-281.7433 767.934,-275.2867"/>
</g>
<!-- Node74 -->
<g id="node15" class="node">
<title>Node74</title>
<g id="a_node15"><a xlink:href="claw_8c.html#a3a57f998b1884d39b0cc786689f7086f" target="_top" xlink:title="sets the claw motor speed ">
<polygon fill="none" stroke="#000000" points="561.2793,-226.5 561.2793,-244.5 647.3086,-244.5 647.3086,-226.5 561.2793,-226.5"/>
<text text-anchor="middle" x="604.2939" y="-232.5" font-family="Helvetica,sans-Serif" font-size="10.00" fill="#000000">set_claw_motor</text>
</a>
</g>
</g>
<!-- Node73&#45;&gt;Node74 -->
<g id="edge16" class="edge">
<title>Node73&#45;&gt;Node74</title>
<path fill="none" stroke="#191970" d="M407.0499,-213.9148C442.2972,-212.9196 486.2533,-213.111 525.2793,-217.5 540.9382,-219.261 558.0194,-222.9265 572.2813,-226.4929"/>
<polygon fill="#191970" stroke="#191970" points="406.762,-210.4222 396.8795,-214.2413 406.9867,-217.4186 406.762,-210.4222"/>
</g>
<!-- Node76 -->
<g id="node17" class="node">
<title>Node76</title>
<g id="a_node17"><a xlink:href="claw_8c.html#a03023ca28f671b9fa7bac07782ccd8c1" target="_top" xlink:title="Drives the motors to open the claw. ">
<polygon fill="none" stroke="#000000" points="447.0186,-264.5 447.0186,-282.5 510.8311,-282.5 510.8311,-264.5 447.0186,-264.5"/>
<text text-anchor="middle" x="478.9248" y="-270.5" font-family="Helvetica,sans-Serif" font-size="10.00" fill="#000000">open_claw</text>
</a>
</g>
</g>
<!-- Node73&#45;&gt;Node76 -->
<g id="edge19" class="edge">
<title>Node73&#45;&gt;Node76</title>
<path fill="none" stroke="#191970" d="M372.3655,-230.3931C398.0629,-240.7886 433.5627,-255.1495 456.3851,-264.3819"/>
<polygon fill="#191970" stroke="#191970" points="373.6263,-227.1276 363.0435,-226.622 371.0012,-233.6168 373.6263,-227.1276"/>
</g>
<!-- Node77 -->
<g id="node18" class="node">
<title>Node77</title>
<g id="a_node18"><a xlink:href="claw_8c.html#ac42dd40dbb37219295286859c6b068c2" target="_top" xlink:title="Drives the motors to close the claw. ">
<polygon fill="none" stroke="#000000" points="446.4692,-227.5 446.4692,-245.5 511.3804,-245.5 511.3804,-227.5 446.4692,-227.5"/>
<text text-anchor="middle" x="478.9248" y="-233.5" font-family="Helvetica,sans-Serif" font-size="10.00" fill="#000000">close_claw</text>
</a>
</g>
</g>
<!-- Node73&#45;&gt;Node77 -->
<g id="edge21" class="edge">
<title>Node73&#45;&gt;Node77</title>
<path fill="none" stroke="#191970" d="M406.713,-226.5887C420.4082,-228.4684 434.2601,-230.3696 446.1187,-231.9973"/>
<polygon fill="#191970" stroke="#191970" points="407.1823,-223.1204 396.7992,-225.228 406.2304,-230.0554 407.1823,-223.1204"/>
</g>
<!-- Node78 -->
<g id="node19" class="node">
<title>Node78</title>
<g id="a_node19"><a xlink:href="lifter_8c.html#a2cfc188f60f945c824dd7fe7b0b5f4e4" target="_top" xlink:title="set_lifter_motors">
<polygon fill="none" stroke="#000000" points="433.9668,-151.5 433.9668,-169.5 523.8828,-169.5 523.8828,-151.5 433.9668,-151.5"/>
<text text-anchor="middle" x="478.9248" y="-157.5" font-family="Helvetica,sans-Serif" font-size="10.00" fill="#000000">set_lifter_motors</text>
</a>
</g>
</g>
<!-- Node73&#45;&gt;Node78 -->
<g id="edge23" class="edge">
<title>Node73&#45;&gt;Node78</title>
<path fill="none" stroke="#191970" d="M371.7824,-204.6168C397.6167,-193.9793 433.6494,-179.1425 456.6343,-169.6783"/>
<polygon fill="#191970" stroke="#191970" points="370.3431,-201.4243 362.4289,-208.4682 373.0083,-207.8971 370.3431,-201.4243"/>
</g>
<!-- Node82 -->
<g id="node23" class="node">
<title>Node82</title>
<g id="a_node23"><a xlink:href="mobile__goal__intake_8c.html#a8f215023832ba515d7b4535e3ae07498" target="_top" xlink:title="set_intake_motor">
<polygon fill="none" stroke="#000000" points="432.5703,-57.5 432.5703,-75.5 525.2793,-75.5 525.2793,-57.5 432.5703,-57.5"/>
<text text-anchor="middle" x="478.9248" y="-63.5" font-family="Helvetica,sans-Serif" font-size="10.00" fill="#000000">set_intake_motor</text>
</a>
</g>
</g>
<!-- Node73&#45;&gt;Node82 -->
<g id="edge31" class="edge">
<title>Node73&#45;&gt;Node82</title>
<path fill="none" stroke="#191970" d="M356.197,-200.3713C385.6192,-168.2776 448.1055,-100.1177 470.6205,-75.5583"/>
<polygon fill="#191970" stroke="#191970" points="353.3313,-198.3179 349.1536,-208.0543 358.4912,-203.0482 353.3313,-198.3179"/>
</g>
<!-- Node75 -->
<g id="node16" class="node">
<title>Node75</title>
<g id="a_node16"><a xlink:href="claw_8c.html#a0122b78972344264b8a276a559cfce4a" target="_top" xlink:title="Updates the claw motor values. ">
<polygon fill="none" stroke="#000000" points="702.2051,-226.5 702.2051,-244.5 774.3574,-244.5 774.3574,-226.5 702.2051,-226.5"/>
<text text-anchor="middle" x="738.2813" y="-232.5" font-family="Helvetica,sans-Serif" font-size="10.00" fill="#000000">update_claw</text>
</a>
</g>
</g>
<!-- Node74&#45;&gt;Node75 -->
<g id="edge17" class="edge">
<title>Node74&#45;&gt;Node75</title>
<path fill="none" stroke="#191970" d="M657.5513,-235.5C672.451,-235.5 688.2978,-235.5 701.9699,-235.5"/>
<polygon fill="#191970" stroke="#191970" points="657.4259,-232.0001 647.4259,-235.5 657.4259,-239.0001 657.4259,-232.0001"/>
</g>
<!-- Node75&#45;&gt;Node69 -->
<g id="edge18" class="edge">
<title>Node75&#45;&gt;Node69</title>
<path fill="none" stroke="#191970" d="M784.682,-235.5C799.1136,-235.5 814.9523,-235.5 829.1312,-235.5"/>
<polygon fill="#191970" stroke="#191970" points="784.4662,-232.0001 774.4661,-235.5 784.4661,-239.0001 784.4662,-232.0001"/>
</g>
<!-- Node76&#45;&gt;Node68 -->
<g id="edge20" class="edge">
<title>Node76&#45;&gt;Node68</title>
<path fill="none" stroke="#191970" d="M521.1586,-273.1631C536.4972,-273.0408 553.6705,-272.9038 568.4088,-272.7862"/>
<polygon fill="#191970" stroke="#191970" points="520.8568,-269.6653 510.8851,-273.2451 520.9127,-276.6651 520.8568,-269.6653"/>
</g>
<!-- Node77&#45;&gt;Node68 -->
<g id="edge22" class="edge">
<title>Node77&#45;&gt;Node68</title>
<path fill="none" stroke="#191970" d="M520.2811,-248.3755C537.3361,-253.2729 556.7826,-258.857 572.6681,-263.4186"/>
<polygon fill="#191970" stroke="#191970" points="521.1383,-244.9803 510.5607,-245.5843 519.2063,-251.7084 521.1383,-244.9803"/>
</g>
<!-- Node78&#45;&gt;Node68 -->
<g id="edge24" class="edge">
<title>Node78&#45;&gt;Node68</title>
<path fill="none" stroke="#191970" d="M492.5595,-177.5829C511.6341,-201.1745 545.6926,-242.112 561.2793,-253.5 566.5528,-257.353 572.731,-260.6533 578.7335,-263.3701"/>
<polygon fill="#191970" stroke="#191970" points="495.2658,-175.3631 486.2719,-169.7629 489.8105,-179.7494 495.2658,-175.3631"/>
</g>
<!-- Node79 -->
<g id="node20" class="node">
<title>Node79</title>
<g id="a_node20"><a xlink:href="lifter_8c.html#aa7d2d04059f57cc5b8582f6fd0726dc1" target="_top" xlink:title="lower_lifter">
<polygon fill="none" stroke="#000000" points="572.1191,-189.5 572.1191,-207.5 636.4688,-207.5 636.4688,-189.5 572.1191,-189.5"/>
<text text-anchor="middle" x="604.2939" y="-195.5" font-family="Helvetica,sans-Serif" font-size="10.00" fill="#000000">lower_lifter</text>
</a>
</g>
</g>
<!-- Node78&#45;&gt;Node79 -->
<g id="edge25" class="edge">
<title>Node78&#45;&gt;Node79</title>
<path fill="none" stroke="#191970" d="M518.34,-172.4469C536.4515,-177.9366 557.5835,-184.3418 574.362,-189.4275"/>
<polygon fill="#191970" stroke="#191970" points="519.2209,-169.0567 508.6355,-169.5055 517.1903,-175.7558 519.2209,-169.0567"/>
</g>
<!-- Node80 -->
<g id="node21" class="node">
<title>Node80</title>
<g id="a_node21"><a xlink:href="lifter_8c.html#a59bb7413777ca16aba124aaedf95c79b" target="_top" xlink:title="update_lifter">
<polygon fill="none" stroke="#000000" points="702.7617,-170.5 702.7617,-188.5 773.8008,-188.5 773.8008,-170.5 702.7617,-170.5"/>
<text text-anchor="middle" x="738.2813" y="-176.5" font-family="Helvetica,sans-Serif" font-size="10.00" fill="#000000">update_lifter</text>
</a>
</g>
</g>
<!-- Node78&#45;&gt;Node80 -->
<g id="edge30" class="edge">
<title>Node78&#45;&gt;Node80</title>
<path fill="none" stroke="#191970" d="M534.2573,-164.5536C585.0646,-168.2756 658.8649,-173.6821 702.3806,-176.87"/>
<polygon fill="#191970" stroke="#191970" points="534.3303,-161.0496 524.1012,-163.8095 533.8188,-168.0309 534.3303,-161.0496"/>
</g>
<!-- Node81 -->
<g id="node22" class="node">
<title>Node81</title>
<g id="a_node22"><a xlink:href="lifter_8c.html#a7452163ed7946b6262f41de51c62dfd4" target="_top" xlink:title="raise_lifter">
<polygon fill="none" stroke="#000000" points="573.23,-113.5 573.23,-131.5 635.3579,-131.5 635.3579,-113.5 573.23,-113.5"/>
<text text-anchor="middle" x="604.2939" y="-119.5" font-family="Helvetica,sans-Serif" font-size="10.00" fill="#000000">raise_lifter</text>
</a>
</g>
</g>
<!-- Node78&#45;&gt;Node81 -->
<g id="edge28" class="edge">
<title>Node78&#45;&gt;Node81</title>
<path fill="none" stroke="#191970" d="M518.34,-148.5531C536.4515,-143.0634 557.5835,-136.6582 574.362,-131.5725"/>
<polygon fill="#191970" stroke="#191970" points="517.1903,-145.2442 508.6355,-151.4945 519.2209,-151.9433 517.1903,-145.2442"/>
</g>
<!-- Node79&#45;&gt;Node80 -->
<g id="edge26" class="edge">
<title>Node79&#45;&gt;Node80</title>
<path fill="none" stroke="#191970" d="M646.6395,-192.4952C664.5605,-189.9539 685.2159,-187.0249 702.3751,-184.5917"/>
<polygon fill="#191970" stroke="#191970" points="646.1381,-189.0312 636.7285,-193.9006 647.1209,-195.9619 646.1381,-189.0312"/>
</g>
<!-- Node80&#45;&gt;Node69 -->
<g id="edge27" class="edge">
<title>Node80&#45;&gt;Node69</title>
<path fill="none" stroke="#191970" d="M769.3952,-192.5307C794.1903,-202.915 828.2758,-217.1901 850.2234,-226.3819"/>
<polygon fill="#191970" stroke="#191970" points="770.6381,-189.2567 760.0623,-188.622 767.934,-195.7133 770.6381,-189.2567"/>
</g>
<!-- Node81&#45;&gt;Node80 -->
<g id="edge29" class="edge">
<title>Node81&#45;&gt;Node80</title>
<path fill="none" stroke="#191970" d="M634.9089,-135.524C659.8901,-146.1513 694.5571,-160.8991 716.7062,-170.3217"/>
<polygon fill="#191970" stroke="#191970" points="636.0967,-132.2258 625.5246,-131.5318 633.3564,-138.6672 636.0967,-132.2258"/>
</g>
<!-- Node83 -->
<g id="node24" class="node">
<title>Node83</title>
<g id="a_node24"><a xlink:href="mobile__goal__intake_8c.html#afa91470a9891e48827fd62d18553c6ce" target="_top" xlink:title="lower_intake">
<polygon fill="none" stroke="#000000" points="568.2227,-76.5 568.2227,-94.5 640.3652,-94.5 640.3652,-76.5 568.2227,-76.5"/>
<text text-anchor="middle" x="604.2939" y="-82.5" font-family="Helvetica,sans-Serif" font-size="10.00" fill="#000000">lower_intake</text>
</a>
</g>
</g>
<!-- Node82&#45;&gt;Node83 -->
<g id="edge32" class="edge">
<title>Node82&#45;&gt;Node83</title>
<path fill="none" stroke="#191970" d="M535.6454,-75.0961C546.6952,-76.7708 557.9944,-78.4832 568.1529,-80.0227"/>
<polygon fill="#191970" stroke="#191970" points="536.0192,-71.6129 525.6076,-73.5749 534.9703,-78.5339 536.0192,-71.6129"/>
</g>
<!-- Node84 -->
<g id="node25" class="node">
<title>Node84</title>
<g id="a_node25"><a xlink:href="mobile__goal__intake_8c.html#ad0232c21c5c1ffda603d2b7d61034118" target="_top" xlink:title="updateIntake">
<polygon fill="none" stroke="#000000" points="701.3677,-57.5 701.3677,-75.5 775.1948,-75.5 775.1948,-57.5 701.3677,-57.5"/>
<text text-anchor="middle" x="738.2813" y="-63.5" font-family="Helvetica,sans-Serif" font-size="10.00" fill="#000000">updateIntake</text>
</a>
</g>
</g>
<!-- Node82&#45;&gt;Node84 -->
<g id="edge37" class="edge">
<title>Node82&#45;&gt;Node84</title>
<path fill="none" stroke="#191970" d="M535.3567,-66.5C585.6368,-66.5 657.7772,-66.5 701.1283,-66.5"/>
<polygon fill="#191970" stroke="#191970" points="535.2926,-63.0001 525.2925,-66.5 535.2925,-70.0001 535.2926,-63.0001"/>
</g>
<!-- Node85 -->
<g id="node26" class="node">
<title>Node85</title>
<g id="a_node26"><a xlink:href="mobile__goal__intake_8c.html#a4899f9a8621015313e6312ce085da979" target="_top" xlink:title="raise_intake">
<polygon fill="none" stroke="#000000" points="569.3335,-.5 569.3335,-18.5 639.2544,-18.5 639.2544,-.5 569.3335,-.5"/>
<text text-anchor="middle" x="604.2939" y="-6.5" font-family="Helvetica,sans-Serif" font-size="10.00" fill="#000000">raise_intake</text>
</a>
</g>
</g>
<!-- Node82&#45;&gt;Node85 -->
<g id="edge35" class="edge">
<title>Node82&#45;&gt;Node85</title>
<path fill="none" stroke="#191970" d="M508.1933,-53.1929C531.5181,-42.5881 563.5655,-28.0175 584.1066,-18.6783"/>
<polygon fill="#191970" stroke="#191970" points="506.4446,-50.1431 498.7899,-57.4682 509.3418,-56.5154 506.4446,-50.1431"/>
</g>
<!-- Node83&#45;&gt;Node84 -->
<g id="edge33" class="edge">
<title>Node83&#45;&gt;Node84</title>
<path fill="none" stroke="#191970" d="M650.5463,-78.9412C667.0488,-76.6011 685.4141,-73.9968 701.0598,-71.7782"/>
<polygon fill="#191970" stroke="#191970" points="649.9624,-75.4889 640.5528,-80.3583 650.9452,-82.4196 649.9624,-75.4889"/>
</g>
<!-- Node84&#45;&gt;Node69 -->
<g id="edge34" class="edge">
<title>Node84&#45;&gt;Node69</title>
<path fill="none" stroke="#191970" d="M751.7727,-83.5517C779.7624,-118.9277 843.3207,-199.2586 864.7705,-226.3689"/>
<polygon fill="#191970" stroke="#191970" points="754.4199,-81.2567 745.4703,-75.5862 748.9304,-85.6001 754.4199,-81.2567"/>
</g>
<!-- Node85&#45;&gt;Node84 -->
<g id="edge36" class="edge">
<title>Node85&#45;&gt;Node84</title>
<path fill="none" stroke="#191970" d="M634.9089,-22.524C659.8901,-33.1513 694.5571,-47.8991 716.7062,-57.3217"/>
<polygon fill="#191970" stroke="#191970" points="636.0967,-19.2258 625.5246,-18.5318 633.3564,-25.6672 636.0967,-19.2258"/>
</g>
</g>
</svg>
