<?xml version="1.0" encoding="UTF-8" standalone="no"?>
<!DOCTYPE svg PUBLIC "-//W3C//DTD SVG 1.1//EN"
 "http://www.w3.org/Graphics/SVG/1.1/DTD/svg11.dtd">
<!-- Generated by graphviz version 2.40.1 (20161225.0304)
 -->
<!-- Title: include/log.h Pages: 1 -->
<svg width="266pt" height="192pt"
 viewBox="0.00 0.00 265.96 192.00" xmlns="http://www.w3.org/2000/svg" xmlns:xlink="http://www.w3.org/1999/xlink">
<g id="graph0" class="graph" transform="scale(1 1) rotate(0) translate(4 188)">
<title>include/log.h</title>
<!-- Node0 -->
<g id="node1" class="node">
<title>Node0</title>
<polygon fill="#bfbfbf" stroke="#000000" points="93.7661,-165.5 93.7661,-183.5 165.9185,-183.5 165.9185,-165.5 93.7661,-165.5"/>
<text text-anchor="middle" x="129.8423" y="-171.5" font-family="Helvetica,sans-Serif" font-size="10.00" fill="#000000">include/log.h</text>
</g>
<!-- Node1 -->
<g id="node2" class="node">
<title>Node1</title>
<g id="a_node2"><a xlink:href="_a_p_i_8h.html" target="_top" xlink:title="Provides the high&#45;level user functionality intended for use by typical VEX Cortex programmers...">
<polygon fill="none" stroke="#000000" points="109.6133,-55.5 109.6133,-73.5 150.0713,-73.5 150.0713,-55.5 109.6133,-55.5"/>
<text text-anchor="middle" x="129.8423" y="-61.5" font-family="Helvetica,sans-Serif" font-size="10.00" fill="#000000">API.h</text>
</a>
</g>
</g>
<!-- Node0&#45;&gt;Node1 -->
<g id="edge1" class="edge">
<title>Node0&#45;&gt;Node1</title>
<path fill="none" stroke="#191970" d="M128.8113,-165.451C127.8219,-156.28 126.3984,-141.6754 125.8423,-129 125.1729,-113.7422 126.3464,-96.4736 127.5921,-83.6468"/>
<polygon fill="#191970" stroke="#191970" points="131.0746,-83.9965 128.661,-73.6803 124.1145,-83.25 131.0746,-83.9965"/>
</g>
<!-- Node6 -->
<g id="node7" class="node">
<title>Node6</title>
<g id="a_node7"><a xlink:href="lcd_8h.html" target="_top" xlink:title="LCD wrapper functions and macros. ">
<polygon fill="none" stroke="#000000" points="135.2808,-110.5 135.2808,-128.5 172.4038,-128.5 172.4038,-110.5 135.2808,-110.5"/>
<text text-anchor="middle" x="153.8423" y="-116.5" font-family="Helvetica,sans-Serif" font-size="10.00" fill="#000000">lcd.h</text>
</a>
</g>
</g>
<!-- Node0&#45;&gt;Node6 -->
<g id="edge6" class="edge">
<title>Node0&#45;&gt;Node6</title>
<path fill="none" stroke="#191970" d="M133.8054,-165.4179C137.0515,-157.9789 141.7496,-147.2123 145.7808,-137.9742"/>
<polygon fill="#191970" stroke="#191970" points="149.0015,-139.3447 149.7931,-128.7795 142.5857,-136.545 149.0015,-139.3447"/>
</g>
<!-- Node2 -->
<g id="node3" class="node">
<title>Node2</title>
<polygon fill="none" stroke="#bfbfbf" points="0,-.5 0,-18.5 47.6846,-18.5 47.6846,-.5 0,-.5"/>
<text text-anchor="middle" x="23.8423" y="-6.5" font-family="Helvetica,sans-Serif" font-size="10.00" fill="#000000">stdlib.h</text>
</g>
<!-- Node1&#45;&gt;Node2 -->
<g id="edge2" class="edge">
<title>Node1&#45;&gt;Node2</title>
<path fill="none" stroke="#191970" d="M112.3385,-55.4179C95.4603,-46.6603 69.6935,-33.2907 50.3087,-23.2326"/>
<polygon fill="#191970" stroke="#191970" points="51.8603,-20.0946 41.372,-18.5956 48.6363,-26.308 51.8603,-20.0946"/>
</g>
<!-- Node3 -->
<g id="node4" class="node">
<title>Node3</title>
<polygon fill="none" stroke="#bfbfbf" points="65.5493,-.5 65.5493,-18.5 122.1353,-18.5 122.1353,-.5 65.5493,-.5"/>
<text text-anchor="middle" x="93.8423" y="-6.5" font-family="Helvetica,sans-Serif" font-size="10.00" fill="#000000">stdbool.h</text>
</g>
<!-- Node1&#45;&gt;Node3 -->
<g id="edge3" class="edge">
<title>Node1&#45;&gt;Node3</title>
<path fill="none" stroke="#191970" d="M123.8976,-55.4179C118.9249,-47.8207 111.6804,-36.7527 105.5499,-27.3866"/>
<polygon fill="#191970" stroke="#191970" points="108.3212,-25.2297 99.9161,-18.7795 102.4643,-29.0633 108.3212,-25.2297"/>
</g>
<!-- Node4 -->
<g id="node5" class="node">
<title>Node4</title>
<polygon fill="none" stroke="#bfbfbf" points="139.7759,-.5 139.7759,-18.5 191.9087,-18.5 191.9087,-.5 139.7759,-.5"/>
<text text-anchor="middle" x="165.8423" y="-6.5" font-family="Helvetica,sans-Serif" font-size="10.00" fill="#000000">stdarg.h</text>
</g>
<!-- Node1&#45;&gt;Node4 -->
<g id="edge4" class="edge">
<title>Node1&#45;&gt;Node4</title>
<path fill="none" stroke="#191970" d="M135.787,-55.4179C140.7597,-47.8207 148.0042,-36.7527 154.1347,-27.3866"/>
<polygon fill="#191970" stroke="#191970" points="157.2203,-29.0633 159.7685,-18.7795 151.3634,-25.2297 157.2203,-29.0633"/>
</g>
<!-- Node5 -->
<g id="node6" class="node">
<title>Node5</title>
<polygon fill="none" stroke="#bfbfbf" points="209.7217,-.5 209.7217,-18.5 257.9629,-18.5 257.9629,-.5 209.7217,-.5"/>
<text text-anchor="middle" x="233.8423" y="-6.5" font-family="Helvetica,sans-Serif" font-size="10.00" fill="#000000">stdint.h</text>
</g>
<!-- Node1&#45;&gt;Node5 -->
<g id="edge5" class="edge">
<title>Node1&#45;&gt;Node5</title>
<path fill="none" stroke="#191970" d="M147.0158,-55.4179C163.5002,-46.7001 188.6265,-33.4122 207.6155,-23.3699"/>
<polygon fill="#191970" stroke="#191970" points="209.4396,-26.3646 216.6433,-18.5956 206.1671,-20.1767 209.4396,-26.3646"/>
</g>
<!-- Node6&#45;&gt;Node1 -->
<g id="edge7" class="edge">
<title>Node6&#45;&gt;Node1</title>
<path fill="none" stroke="#191970" d="M149.8792,-110.4179C146.6331,-102.9789 141.9349,-92.2123 137.9037,-82.9742"/>
<polygon fill="#191970" stroke="#191970" points="141.0989,-81.545 133.8915,-73.7795 134.6831,-84.3447 141.0989,-81.545"/>
</g>
</g>
</svg>
