<?xml version="1.0" encoding="UTF-8" standalone="no"?>
<!DOCTYPE svg PUBLIC "-//W3C//DTD SVG 1.1//EN"
 "http://www.w3.org/Graphics/SVG/1.1/DTD/svg11.dtd">
<!-- Generated by graphviz version 2.40.1 (20161225.0304)
 -->
<!-- Title: warning Pages: 1 -->
<svg width="266pt" height="101pt"
 viewBox="0.00 0.00 266.42 101.00" xmlns="http://www.w3.org/2000/svg" xmlns:xlink="http://www.w3.org/1999/xlink">
<g id="graph0" class="graph" transform="scale(1 1) rotate(0) translate(4 97)">
<title>warning</title>
<!-- Node17 -->
<g id="node1" class="node">
<title>Node17</title>
<polygon fill="#bfbfbf" stroke="#000000" points="0,-37.5 0,-55.5 51.0195,-55.5 51.0195,-37.5 0,-37.5"/>
<text text-anchor="middle" x="25.5098" y="-43.5" font-family="Helvetica,sans-Serif" font-size="10.00" fill="#000000">warning</text>
</g>
<!-- Node18 -->
<g id="node2" class="node">
<title>Node18</title>
<g id="a_node2"><a xlink:href="log_8c.html#afff22aff6749311a684a559cac3ac8bd" target="_top" xlink:title="log_info">
<polygon fill="none" stroke="#000000" points="87.0195,-37.5 87.0195,-55.5 138.0488,-55.5 138.0488,-37.5 87.0195,-37.5"/>
<text text-anchor="middle" x="112.5342" y="-43.5" font-family="Helvetica,sans-Serif" font-size="10.00" fill="#000000">log_info</text>
</a>
</g>
</g>
<!-- Node17&#45;&gt;Node18 -->
<g id="edge1" class="edge">
<title>Node17&#45;&gt;Node18</title>
<path fill="none" stroke="#191970" d="M51.1493,-46.5C59.1336,-46.5 68.0896,-46.5 76.6405,-46.5"/>
<polygon fill="#191970" stroke="#191970" points="76.7772,-50.0001 86.7772,-46.5 76.7772,-43.0001 76.7772,-50.0001"/>
</g>
<!-- Node19 -->
<g id="node3" class="node">
<title>Node19</title>
<g id="a_node3"><a xlink:href="_a_p_i_8h.html#a403c82418e475fa4a8273719e6a7f3e6" target="_top" xlink:title="printf">
<polygon fill="none" stroke="#000000" points="197.1177,-74.5 197.1177,-92.5 235.3491,-92.5 235.3491,-74.5 197.1177,-74.5"/>
<text text-anchor="middle" x="216.2334" y="-80.5" font-family="Helvetica,sans-Serif" font-size="10.00" fill="#000000">printf</text>
</a>
</g>
</g>
<!-- Node18&#45;&gt;Node19 -->
<g id="edge2" class="edge">
<title>Node18&#45;&gt;Node19</title>
<path fill="none" stroke="#191970" d="M137.9019,-55.5512C152.8546,-60.8864 171.824,-67.6547 187.3501,-73.1944"/>
<polygon fill="#191970" stroke="#191970" points="186.3843,-76.5659 196.979,-76.63 188.7367,-69.973 186.3843,-76.5659"/>
</g>
<!-- Node20 -->
<g id="node4" class="node">
<title>Node20</title>
<g id="a_node4"><a xlink:href="_a_p_i_8h.html#aeafd247b27813122cfee95e0cecf188b" target="_top" xlink:title="lcdSetBacklight">
<polygon fill="none" stroke="#000000" points="174.0488,-37.5 174.0488,-55.5 258.418,-55.5 258.418,-37.5 174.0488,-37.5"/>
<text text-anchor="middle" x="216.2334" y="-43.5" font-family="Helvetica,sans-Serif" font-size="10.00" fill="#000000">lcdSetBacklight</text>
</a>
</g>
</g>
<!-- Node18&#45;&gt;Node20 -->
<g id="edge3" class="edge">
<title>Node18&#45;&gt;Node20</title>
<path fill="none" stroke="#191970" d="M138.1677,-46.5C146.0116,-46.5 154.9418,-46.5 163.8915,-46.5"/>
<polygon fill="#191970" stroke="#191970" points="163.9475,-50.0001 173.9475,-46.5 163.9474,-43.0001 163.9475,-50.0001"/>
</g>
<!-- Node21 -->
<g id="node5" class="node">
<title>Node21</title>
<g id="a_node5"><a xlink:href="_a_p_i_8h.html#aa53f19724bcf9f7bf1b4468b5982553b" target="_top" xlink:title="lcdClear">
<polygon fill="none" stroke="#000000" points="189.8936,-.5 189.8936,-18.5 242.5732,-18.5 242.5732,-.5 189.8936,-.5"/>
<text text-anchor="middle" x="216.2334" y="-6.5" font-family="Helvetica,sans-Serif" font-size="10.00" fill="#000000">lcdClear</text>
</a>
</g>
</g>
<!-- Node18&#45;&gt;Node21 -->
<g id="edge4" class="edge">
<title>Node18&#45;&gt;Node21</title>
<path fill="none" stroke="#191970" d="M137.9019,-37.4488C150.9584,-32.7902 167.0773,-27.0389 181.2923,-21.967"/>
<polygon fill="#191970" stroke="#191970" points="182.526,-25.243 190.7682,-18.586 180.1736,-18.6501 182.526,-25.243"/>
</g>
</g>
</svg>
