<?xml version="1.0" encoding="UTF-8" standalone="no"?>
<!DOCTYPE svg PUBLIC "-//W3C//DTD SVG 1.1//EN"
 "http://www.w3.org/Graphics/SVG/1.1/DTD/svg11.dtd">
<!-- Generated by graphviz version 2.40.1 (20161225.0304)
 -->
<!-- Title: info Pages: 1 -->
<svg width="218pt" height="27pt"
 viewBox="0.00 0.00 218.04 27.00" xmlns="http://www.w3.org/2000/svg" xmlns:xlink="http://www.w3.org/1999/xlink">
<g id="graph0" class="graph" transform="scale(1 1) rotate(0) translate(4 23)">
<title>info</title>
<!-- Node19 -->
<g id="node1" class="node">
<title>Node19</title>
<polygon fill="#bfbfbf" stroke="#000000" points="0,-.5 0,-18.5 32.123,-18.5 32.123,-.5 0,-.5"/>
<text text-anchor="middle" x="16.0615" y="-6.5" font-family="Helvetica,sans-Serif" font-size="10.00" fill="#000000">info</text>
</g>
<!-- Node20 -->
<g id="node2" class="node">
<title>Node20</title>
<g id="a_node2"><a xlink:href="slew_8c.html#a321758941d88b75783955c819bb75005" target="_top" xlink:title="Initializes the slew rate controller. ">
<polygon fill="none" stroke="#000000" points="68.123,-.5 68.123,-18.5 122.4727,-18.5 122.4727,-.5 68.123,-.5"/>
<text text-anchor="middle" x="95.2979" y="-6.5" font-family="Helvetica,sans-Serif" font-size="10.00" fill="#000000">init_slew</text>
</a>
</g>
</g>
<!-- Node19&#45;&gt;Node20 -->
<g id="edge1" class="edge">
<title>Node19&#45;&gt;Node20</title>
<path fill="none" stroke="#191970" d="M42.5972,-9.5C50.7634,-9.5 59.7649,-9.5 67.9824,-9.5"/>
<polygon fill="#191970" stroke="#191970" points="42.4794,-6.0001 32.4793,-9.5 42.4793,-13.0001 42.4794,-6.0001"/>
</g>
<!-- Node21 -->
<g id="node3" class="node">
<title>Node21</title>
<g id="a_node3"><a xlink:href="init_8c.html#a25a40b6614565f755233080a384c35f1" target="_top" xlink:title="initialize">
<polygon fill="none" stroke="#000000" points="158.4727,-.5 158.4727,-18.5 210.0439,-18.5 210.0439,-.5 158.4727,-.5"/>
<text text-anchor="middle" x="184.2583" y="-6.5" font-family="Helvetica,sans-Serif" font-size="10.00" fill="#000000">initialize</text>
</a>
</g>
</g>
<!-- Node20&#45;&gt;Node21 -->
<g id="edge2" class="edge">
<title>Node20&#45;&gt;Node21</title>
<path fill="none" stroke="#191970" d="M133.1175,-9.5C141.6541,-9.5 150.5257,-9.5 158.4358,-9.5"/>
<polygon fill="#191970" stroke="#191970" points="132.9579,-6.0001 122.9578,-9.5 132.9578,-13.0001 132.9579,-6.0001"/>
</g>
</g>
</svg>
