<?xml version="1.0" encoding="UTF-8" standalone="no"?>
<!DOCTYPE svg PUBLIC "-//W3C//DTD SVG 1.1//EN"
 "http://www.w3.org/Graphics/SVG/1.1/DTD/svg11.dtd">
<!-- Generated by graphviz version 2.40.1 (20161225.0304)
 -->
<!-- Title: warning Pages: 1 -->
<svg width="816pt" height="359pt"
 viewBox="0.00 0.00 815.69 358.57" xmlns="http://www.w3.org/2000/svg" xmlns:xlink="http://www.w3.org/1999/xlink">
<g id="graph0" class="graph" transform="scale(1 1) rotate(0) translate(4 354.5694)">
<title>warning</title>
<!-- Node91 -->
<g id="node1" class="node">
<title>Node91</title>
<polygon fill="#bfbfbf" stroke="#000000" points="0,-282.5 0,-300.5 51.0195,-300.5 51.0195,-282.5 0,-282.5"/>
<text text-anchor="middle" x="25.5098" y="-288.5" font-family="Helvetica,sans-Serif" font-size="10.00" fill="#000000">warning</text>
</g>
<!-- Node92 -->
<g id="node2" class="node">
<title>Node92</title>
<g id="a_node2"><a xlink:href="slew_8c.html#a321758941d88b75783955c819bb75005" target="_top" xlink:title="Initializes the slew rate controller. ">
<polygon fill="none" stroke="#000000" points="87.0195,-282.5 87.0195,-300.5 141.3691,-300.5 141.3691,-282.5 87.0195,-282.5"/>
<text text-anchor="middle" x="114.1943" y="-288.5" font-family="Helvetica,sans-Serif" font-size="10.00" fill="#000000">init_slew</text>
</a>
</g>
</g>
<!-- Node91&#45;&gt;Node92 -->
<g id="edge1" class="edge">
<title>Node91&#45;&gt;Node92</title>
<path fill="none" stroke="#191970" d="M61.2273,-291.5C69.7315,-291.5 78.6759,-291.5 86.7432,-291.5"/>
<polygon fill="#191970" stroke="#191970" points="61.1611,-288.0001 51.161,-291.5 61.161,-295.0001 61.1611,-288.0001"/>
</g>
<!-- Node93 -->
<g id="node3" class="node">
<title>Node93</title>
<g id="a_node3"><a xlink:href="auto_8c.html#a3c7ca506bbc071fa740de13805b7f376" target="_top" xlink:title="autonomous">
<polygon fill="none" stroke="#000000" points="461.7256,-263.5 461.7256,-281.5 532.7646,-281.5 532.7646,-263.5 461.7256,-263.5"/>
<text text-anchor="middle" x="497.2451" y="-269.5" font-family="Helvetica,sans-Serif" font-size="10.00" fill="#000000">autonomous</text>
</a>
</g>
</g>
<!-- Node92&#45;&gt;Node93 -->
<g id="edge2" class="edge">
<title>Node92&#45;&gt;Node93</title>
<path fill="none" stroke="#191970" d="M151.6587,-289.6417C225.5032,-285.9789 388.961,-277.8711 461.4402,-274.276"/>
<polygon fill="#191970" stroke="#191970" points="151.2496,-286.1576 141.4353,-290.1488 151.5965,-293.149 151.2496,-286.1576"/>
</g>
<!-- Node94 -->
<g id="node4" class="node">
<title>Node94</title>
<g id="a_node4"><a xlink:href="opcontrol_8c.html#ac71a94af413917f27d108e95c4d6f6a7" target="_top" xlink:title="operatorControl">
<polygon fill="none" stroke="#000000" points="722.2051,-188.5 722.2051,-206.5 807.6875,-206.5 807.6875,-188.5 722.2051,-188.5"/>
<text text-anchor="middle" x="764.9463" y="-194.5" font-family="Helvetica,sans-Serif" font-size="10.00" fill="#000000">operatorControl</text>
</a>
</g>
</g>
<!-- Node92&#45;&gt;Node94 -->
<g id="edge3" class="edge">
<title>Node92&#45;&gt;Node94</title>
<path fill="none" stroke="#191970" d="M134.2559,-306.7376C146.1448,-314.9292 161.8759,-324.3752 177.3691,-329.5 259.8337,-356.7776 285.017,-348.5 371.876,-348.5 371.876,-348.5 371.876,-348.5 497.2451,-348.5 585.0944,-348.5 612.8683,-338.8655 686.2051,-290.5 720.8204,-267.6712 748.5877,-225.2841 759.7021,-206.6692"/>
<polygon fill="#191970" stroke="#191970" points="136.1487,-303.7881 125.9809,-300.8103 132.0724,-309.4789 136.1487,-303.7881"/>
</g>
<!-- Node95 -->
<g id="node5" class="node">
<title>Node95</title>
<g id="a_node5"><a xlink:href="slew_8c.html#a7dff2b79dffe55fb936d977594d7c01d" target="_top" xlink:title="Sets motor speed wrapped inside the slew rate controller. ">
<polygon fill="none" stroke="#000000" points="190.4307,-301.5 190.4307,-319.5 276.46,-319.5 276.46,-301.5 190.4307,-301.5"/>
<text text-anchor="middle" x="233.4453" y="-307.5" font-family="Helvetica,sans-Serif" font-size="10.00" fill="#000000">set_motor_slew</text>
</a>
</g>
</g>
<!-- Node92&#45;&gt;Node95 -->
<g id="edge4" class="edge">
<title>Node92&#45;&gt;Node95</title>
<path fill="none" stroke="#191970" d="M151.4917,-297.4425C163.8066,-299.4046 177.6068,-301.6034 190.3205,-303.629"/>
<polygon fill="#191970" stroke="#191970" points="151.9791,-293.9761 141.5529,-295.859 150.8776,-300.8889 151.9791,-293.9761"/>
</g>
<!-- Node98 -->
<g id="node8" class="node">
<title>Node98</title>
<g id="a_node8"><a xlink:href="slew_8c.html#a9f8b8ae577ef938622024545711f0151" target="_top" xlink:title="set_motor_immediate">
<polygon fill="none" stroke="#000000" points="177.3691,-170.5 177.3691,-188.5 289.5215,-188.5 289.5215,-170.5 177.3691,-170.5"/>
<text text-anchor="middle" x="233.4453" y="-176.5" font-family="Helvetica,sans-Serif" font-size="10.00" fill="#000000">set_motor_immediate</text>
</a>
</g>
</g>
<!-- Node92&#45;&gt;Node98 -->
<g id="edge9" class="edge">
<title>Node92&#45;&gt;Node98</title>
<path fill="none" stroke="#191970" d="M131.3707,-275.368C156.6998,-251.5791 203.2568,-207.8529 223.5517,-188.7921"/>
<polygon fill="#191970" stroke="#191970" points="128.8463,-272.9373 123.9531,-282.3346 133.6385,-278.0398 128.8463,-272.9373"/>
</g>
<!-- Node96 -->
<g id="node6" class="node">
<title>Node96</title>
<g id="a_node6"><a xlink:href="drive_8c.html#a8df41fd50094c065eedc81fc5e6595d1" target="_top" xlink:title="sets the speed of one side of the robot. ">
<polygon fill="none" stroke="#000000" points="328.8491,-301.5 328.8491,-319.5 414.9028,-319.5 414.9028,-301.5 328.8491,-301.5"/>
<text text-anchor="middle" x="371.876" y="-307.5" font-family="Helvetica,sans-Serif" font-size="10.00" fill="#000000">set_side_speed</text>
</a>
</g>
</g>
<!-- Node95&#45;&gt;Node96 -->
<g id="edge5" class="edge">
<title>Node95&#45;&gt;Node96</title>
<path fill="none" stroke="#191970" d="M286.7964,-310.5C300.5541,-310.5 315.1956,-310.5 328.3843,-310.5"/>
<polygon fill="#191970" stroke="#191970" points="286.4869,-307.0001 276.4868,-310.5 286.4868,-314.0001 286.4869,-307.0001"/>
</g>
<!-- Node96&#45;&gt;Node93 -->
<g id="edge6" class="edge">
<title>Node96&#45;&gt;Node93</title>
<path fill="none" stroke="#191970" d="M411.2911,-298.5531C429.4027,-293.0634 450.5347,-286.6582 467.3132,-281.5725"/>
<polygon fill="#191970" stroke="#191970" points="410.1415,-295.2442 401.5867,-301.4945 412.172,-301.9433 410.1415,-295.2442"/>
</g>
<!-- Node97 -->
<g id="node7" class="node">
<title>Node97</title>
<g id="a_node7"><a xlink:href="drive_8c.html#a8224a4626a934d30ed587671b7004bf8" target="_top" xlink:title="Updates the drive motors during teleop. ">
<polygon fill="none" stroke="#000000" points="576.2598,-263.5 576.2598,-281.5 686.2051,-281.5 686.2051,-263.5 576.2598,-263.5"/>
<text text-anchor="middle" x="631.2324" y="-269.5" font-family="Helvetica,sans-Serif" font-size="10.00" fill="#000000">update_drive_motors</text>
</a>
</g>
</g>
<!-- Node96&#45;&gt;Node97 -->
<g id="edge7" class="edge">
<title>Node96&#45;&gt;Node97</title>
<path fill="none" stroke="#191970" d="M424.8712,-305.2644C458.1023,-301.7195 501.7863,-296.5818 540.2598,-290.5 556.3214,-287.961 573.8697,-284.6237 589.2316,-281.5131"/>
<polygon fill="#191970" stroke="#191970" points="424.4897,-301.7851 414.911,-306.3126 425.2224,-308.7466 424.4897,-301.7851"/>
</g>
<!-- Node97&#45;&gt;Node94 -->
<g id="edge8" class="edge">
<title>Node97&#45;&gt;Node94</title>
<path fill="none" stroke="#191970" d="M656.246,-258.4699C683.3312,-243.2778 725.7381,-219.4918 748.7601,-206.5788"/>
<polygon fill="#191970" stroke="#191970" points="654.3709,-255.5086 647.3614,-263.4532 657.7954,-261.6138 654.3709,-255.5086"/>
</g>
<!-- Node99 -->
<g id="node9" class="node">
<title>Node99</title>
<g id="a_node9"><a xlink:href="claw_8c.html#a3a57f998b1884d39b0cc786689f7086f" target="_top" xlink:title="sets the claw motor speed ">
<polygon fill="none" stroke="#000000" points="454.2305,-.5 454.2305,-18.5 540.2598,-18.5 540.2598,-.5 454.2305,-.5"/>
<text text-anchor="middle" x="497.2451" y="-6.5" font-family="Helvetica,sans-Serif" font-size="10.00" fill="#000000">set_claw_motor</text>
</a>
</g>
</g>
<!-- Node98&#45;&gt;Node99 -->
<g id="edge10" class="edge">
<title>Node98&#45;&gt;Node99</title>
<path fill="none" stroke="#191970" d="M251.0482,-163.2529C269.0187,-147.0892 298.0918,-122.0826 325.5215,-103.5 378.1401,-67.8529 445.5153,-34.127 478.0121,-18.5363"/>
<polygon fill="#191970" stroke="#191970" points="248.2196,-161.0943 243.1741,-170.4106 252.9281,-166.2741 248.2196,-161.0943"/>
</g>
<!-- Node101 -->
<g id="node11" class="node">
<title>Node101</title>
<g id="a_node11"><a xlink:href="claw_8c.html#a03023ca28f671b9fa7bac07782ccd8c1" target="_top" xlink:title="Drives the motors to open the claw. ">
<polygon fill="none" stroke="#000000" points="339.9697,-225.5 339.9697,-243.5 403.7822,-243.5 403.7822,-225.5 339.9697,-225.5"/>
<text text-anchor="middle" x="371.876" y="-231.5" font-family="Helvetica,sans-Serif" font-size="10.00" fill="#000000">open_claw</text>
</a>
</g>
</g>
<!-- Node98&#45;&gt;Node101 -->
<g id="edge13" class="edge">
<title>Node98&#45;&gt;Node101</title>
<path fill="none" stroke="#191970" d="M265.9185,-192.402C291.433,-202.5391 326.3275,-216.4031 348.983,-225.4044"/>
<polygon fill="#191970" stroke="#191970" points="266.89,-189.0219 256.3043,-188.5821 264.3053,-195.5272 266.89,-189.0219"/>
</g>
<!-- Node102 -->
<g id="node12" class="node">
<title>Node102</title>
<g id="a_node12"><a xlink:href="claw_8c.html#ac42dd40dbb37219295286859c6b068c2" target="_top" xlink:title="Drives the motors to close the claw. ">
<polygon fill="none" stroke="#000000" points="339.4204,-188.5 339.4204,-206.5 404.3315,-206.5 404.3315,-188.5 339.4204,-188.5"/>
<text text-anchor="middle" x="371.876" y="-194.5" font-family="Helvetica,sans-Serif" font-size="10.00" fill="#000000">close_claw</text>
</a>
</g>
</g>
<!-- Node98&#45;&gt;Node102 -->
<g id="edge15" class="edge">
<title>Node98&#45;&gt;Node102</title>
<path fill="none" stroke="#191970" d="M300.0631,-188.1622C313.6281,-189.9261 327.3264,-191.7073 339.0698,-193.2343"/>
<polygon fill="#191970" stroke="#191970" points="300.1182,-184.64 289.7504,-186.8213 299.2156,-191.5816 300.1182,-184.64"/>
</g>
<!-- Node103 -->
<g id="node13" class="node">
<title>Node103</title>
<g id="a_node13"><a xlink:href="lifter_8c.html#a2cfc188f60f945c824dd7fe7b0b5f4e4" target="_top" xlink:title="set_lifter_motors">
<polygon fill="none" stroke="#000000" points="326.918,-113.5 326.918,-131.5 416.834,-131.5 416.834,-113.5 326.918,-113.5"/>
<text text-anchor="middle" x="371.876" y="-119.5" font-family="Helvetica,sans-Serif" font-size="10.00" fill="#000000">set_lifter_motors</text>
</a>
</g>
</g>
<!-- Node98&#45;&gt;Node103 -->
<g id="edge17" class="edge">
<title>Node98&#45;&gt;Node103</title>
<path fill="none" stroke="#191970" d="M264.7348,-166.5649C282.5476,-159.2065 305.2799,-149.8252 325.5215,-141.5 333.4043,-138.2579 342.0449,-134.7136 349.7078,-131.5737"/>
<polygon fill="#191970" stroke="#191970" points="263.2976,-163.3717 255.3919,-170.4252 265.9707,-169.8412 263.2976,-163.3717"/>
</g>
<!-- Node107 -->
<g id="node17" class="node">
<title>Node107</title>
<g id="a_node17"><a xlink:href="mobile__goal__intake_8c.html#a8f215023832ba515d7b4535e3ae07498" target="_top" xlink:title="set_intake_motor">
<polygon fill="none" stroke="#000000" points="325.5215,-151.5 325.5215,-169.5 418.2305,-169.5 418.2305,-151.5 325.5215,-151.5"/>
<text text-anchor="middle" x="371.876" y="-157.5" font-family="Helvetica,sans-Serif" font-size="10.00" fill="#000000">set_intake_motor</text>
</a>
</g>
</g>
<!-- Node98&#45;&gt;Node107 -->
<g id="edge25" class="edge">
<title>Node98&#45;&gt;Node107</title>
<path fill="none" stroke="#191970" d="M299.8209,-170.3898C308.4499,-169.2054 317.138,-168.0129 325.3473,-166.8862"/>
<polygon fill="#191970" stroke="#191970" points="299.1815,-166.9446 289.7504,-171.772 300.1334,-173.8796 299.1815,-166.9446"/>
</g>
<!-- Node100 -->
<g id="node10" class="node">
<title>Node100</title>
<g id="a_node10"><a xlink:href="claw_8c.html#a0122b78972344264b8a276a559cfce4a" target="_top" xlink:title="Updates the claw motor values. ">
<polygon fill="none" stroke="#000000" points="595.1563,-20.5 595.1563,-38.5 667.3086,-38.5 667.3086,-20.5 595.1563,-20.5"/>
<text text-anchor="middle" x="631.2324" y="-26.5" font-family="Helvetica,sans-Serif" font-size="10.00" fill="#000000">update_claw</text>
</a>
</g>
</g>
<!-- Node99&#45;&gt;Node100 -->
<g id="edge11" class="edge">
<title>Node99&#45;&gt;Node100</title>
<path fill="none" stroke="#191970" d="M550.5025,-17.4496C565.4021,-19.6737 581.2489,-22.0391 594.9211,-24.0799"/>
<polygon fill="#191970" stroke="#191970" points="550.7842,-13.953 540.3771,-15.9382 549.7508,-20.8763 550.7842,-13.953"/>
</g>
<!-- Node100&#45;&gt;Node94 -->
<g id="edge12" class="edge">
<title>Node100&#45;&gt;Node94</title>
<path fill="none" stroke="#191970" d="M648.531,-45.6885C659.7503,-56.5261 674.4184,-71.3478 686.2051,-85.5 716.3235,-121.663 746.9559,-168.8854 759.2902,-188.4268"/>
<polygon fill="#191970" stroke="#191970" points="650.7146,-42.9346 641.0615,-38.5677 645.8845,-48.0012 650.7146,-42.9346"/>
</g>
<!-- Node101&#45;&gt;Node93 -->
<g id="edge14" class="edge">
<title>Node101&#45;&gt;Node93</title>
<path fill="none" stroke="#191970" d="M411.2911,-246.4469C429.4027,-251.9366 450.5347,-258.3418 467.3132,-263.4275"/>
<polygon fill="#191970" stroke="#191970" points="412.172,-243.0567 401.5867,-243.5055 410.1415,-249.7558 412.172,-243.0567"/>
</g>
<!-- Node102&#45;&gt;Node93 -->
<g id="edge16" class="edge">
<title>Node102&#45;&gt;Node93</title>
<path fill="none" stroke="#191970" d="M410.5566,-210.9708C413.2249,-212.3666 415.8117,-213.8755 418.2305,-215.5 437.5436,-228.4706 435.2177,-240.093 454.2305,-253.5 459.7014,-257.3579 466.0809,-260.6937 472.2255,-263.4461"/>
<polygon fill="#191970" stroke="#191970" points="411.8385,-207.7069 401.2957,-206.6586 408.8836,-214.0527 411.8385,-207.7069"/>
</g>
<!-- Node103&#45;&gt;Node93 -->
<g id="edge18" class="edge">
<title>Node103&#45;&gt;Node93</title>
<path fill="none" stroke="#191970" d="M413.175,-136.9317C414.9933,-138.321 416.695,-139.8399 418.2305,-141.5 453.7326,-179.8852 419.2486,-214.6401 454.2305,-253.5 457.9447,-257.6259 462.7207,-260.9006 467.7323,-263.485"/>
<polygon fill="#191970" stroke="#191970" points="414.9557,-133.9177 404.6096,-131.6353 411.2741,-139.8715 414.9557,-133.9177"/>
</g>
<!-- Node104 -->
<g id="node14" class="node">
<title>Node104</title>
<g id="a_node14"><a xlink:href="lifter_8c.html#aa7d2d04059f57cc5b8582f6fd0726dc1" target="_top" xlink:title="lower_lifter">
<polygon fill="none" stroke="#000000" points="465.0703,-76.5 465.0703,-94.5 529.4199,-94.5 529.4199,-76.5 465.0703,-76.5"/>
<text text-anchor="middle" x="497.2451" y="-82.5" font-family="Helvetica,sans-Serif" font-size="10.00" fill="#000000">lower_lifter</text>
</a>
</g>
</g>
<!-- Node103&#45;&gt;Node104 -->
<g id="edge19" class="edge">
<title>Node103&#45;&gt;Node104</title>
<path fill="none" stroke="#191970" d="M412.5102,-110.5077C430.0369,-105.3351 450.1993,-99.3845 466.4585,-94.586"/>
<polygon fill="#191970" stroke="#191970" points="411.145,-107.2613 402.5447,-113.4488 413.1265,-113.975 411.145,-107.2613"/>
</g>
<!-- Node105 -->
<g id="node15" class="node">
<title>Node105</title>
<g id="a_node15"><a xlink:href="lifter_8c.html#a59bb7413777ca16aba124aaedf95c79b" target="_top" xlink:title="update_lifter">
<polygon fill="none" stroke="#000000" points="595.7129,-95.5 595.7129,-113.5 666.752,-113.5 666.752,-95.5 595.7129,-95.5"/>
<text text-anchor="middle" x="631.2324" y="-101.5" font-family="Helvetica,sans-Serif" font-size="10.00" fill="#000000">update_lifter</text>
</a>
</g>
</g>
<!-- Node103&#45;&gt;Node105 -->
<g id="edge24" class="edge">
<title>Node103&#45;&gt;Node105</title>
<path fill="none" stroke="#191970" d="M388.6926,-106.5279C404.2889,-92.9008 428.8543,-74.3104 454.2305,-66.5 490.774,-55.2524 502.7704,-58.9848 540.2598,-66.5 567.783,-72.0173 597.3773,-86.0608 615.0936,-95.442"/>
<polygon fill="#191970" stroke="#191970" points="386.0682,-104.1826 381.0026,-113.488 390.7655,-109.3725 386.0682,-104.1826"/>
</g>
<!-- Node106 -->
<g id="node16" class="node">
<title>Node106</title>
<g id="a_node16"><a xlink:href="lifter_8c.html#a7452163ed7946b6262f41de51c62dfd4" target="_top" xlink:title="raise_lifter">
<polygon fill="none" stroke="#000000" points="466.1812,-113.5 466.1812,-131.5 528.3091,-131.5 528.3091,-113.5 466.1812,-113.5"/>
<text text-anchor="middle" x="497.2451" y="-119.5" font-family="Helvetica,sans-Serif" font-size="10.00" fill="#000000">raise_lifter</text>
</a>
</g>
</g>
<!-- Node103&#45;&gt;Node106 -->
<g id="edge22" class="edge">
<title>Node103&#45;&gt;Node106</title>
<path fill="none" stroke="#191970" d="M427.2225,-122.5C440.5795,-122.5 454.3871,-122.5 466.1745,-122.5"/>
<polygon fill="#191970" stroke="#191970" points="427.1371,-119.0001 417.1371,-122.5 427.1371,-126.0001 427.1371,-119.0001"/>
</g>
<!-- Node104&#45;&gt;Node105 -->
<g id="edge20" class="edge">
<title>Node104&#45;&gt;Node105</title>
<path fill="none" stroke="#191970" d="M539.5907,-91.5048C557.5117,-94.0461 578.1671,-96.9751 595.3263,-99.4083"/>
<polygon fill="#191970" stroke="#191970" points="540.0721,-88.0381 529.6797,-90.0994 539.0892,-94.9688 540.0721,-88.0381"/>
</g>
<!-- Node105&#45;&gt;Node94 -->
<g id="edge21" class="edge">
<title>Node105&#45;&gt;Node94</title>
<path fill="none" stroke="#191970" d="M652.8615,-119.5434C680.807,-138.9798 728.6013,-172.2215 751.6903,-188.2802"/>
<polygon fill="#191970" stroke="#191970" points="654.7503,-116.5938 644.5423,-113.7572 650.7534,-122.3405 654.7503,-116.5938"/>
</g>
<!-- Node106&#45;&gt;Node105 -->
<g id="edge23" class="edge">
<title>Node106&#45;&gt;Node105</title>
<path fill="none" stroke="#191970" d="M538.403,-116.9708C556.6856,-114.5147 577.9996,-111.6514 595.5902,-109.2882"/>
<polygon fill="#191970" stroke="#191970" points="537.7662,-113.5248 528.3213,-118.3252 538.6983,-120.4625 537.7662,-113.5248"/>
</g>
<!-- Node108 -->
<g id="node18" class="node">
<title>Node108</title>
<g id="a_node18"><a xlink:href="mobile__goal__intake_8c.html#afa91470a9891e48827fd62d18553c6ce" target="_top" xlink:title="lower_intake">
<polygon fill="none" stroke="#000000" points="461.1738,-226.5 461.1738,-244.5 533.3164,-244.5 533.3164,-226.5 461.1738,-226.5"/>
<text text-anchor="middle" x="497.2451" y="-232.5" font-family="Helvetica,sans-Serif" font-size="10.00" fill="#000000">lower_intake</text>
</a>
</g>
</g>
<!-- Node107&#45;&gt;Node108 -->
<g id="edge26" class="edge">
<title>Node107&#45;&gt;Node108</title>
<path fill="none" stroke="#191970" d="M409.4084,-173.6601C412.464,-175.1537 415.4443,-176.7681 418.2305,-178.5 436.6643,-189.9589 436.634,-198.7927 454.2305,-211.5 461.8566,-217.0072 470.8709,-222.2128 478.6723,-226.3592"/>
<polygon fill="#191970" stroke="#191970" points="410.6954,-170.4022 400.1353,-169.5452 407.8562,-176.8005 410.6954,-170.4022"/>
</g>
<!-- Node109 -->
<g id="node19" class="node">
<title>Node109</title>
<g id="a_node19"><a xlink:href="mobile__goal__intake_8c.html#ad0232c21c5c1ffda603d2b7d61034118" target="_top" xlink:title="updateIntake">
<polygon fill="none" stroke="#000000" points="594.3188,-188.5 594.3188,-206.5 668.146,-206.5 668.146,-188.5 594.3188,-188.5"/>
<text text-anchor="middle" x="631.2324" y="-194.5" font-family="Helvetica,sans-Serif" font-size="10.00" fill="#000000">updateIntake</text>
</a>
</g>
</g>
<!-- Node107&#45;&gt;Node109 -->
<g id="edge31" class="edge">
<title>Node107&#45;&gt;Node109</title>
<path fill="none" stroke="#191970" d="M421.9353,-171.5921C432.5639,-173.7341 443.742,-175.8285 454.2305,-177.5 502.3304,-185.1657 558.2425,-190.9692 594.1476,-194.3004"/>
<polygon fill="#191970" stroke="#191970" points="422.4542,-168.1256 411.9537,-169.5362 421.042,-174.9817 422.4542,-168.1256"/>
</g>
<!-- Node110 -->
<g id="node20" class="node">
<title>Node110</title>
<g id="a_node20"><a xlink:href="mobile__goal__intake_8c.html#a4899f9a8621015313e6312ce085da979" target="_top" xlink:title="raise_intake">
<polygon fill="none" stroke="#000000" points="462.2847,-150.5 462.2847,-168.5 532.2056,-168.5 532.2056,-150.5 462.2847,-150.5"/>
<text text-anchor="middle" x="497.2451" y="-156.5" font-family="Helvetica,sans-Serif" font-size="10.00" fill="#000000">raise_intake</text>
</a>
</g>
</g>
<!-- Node107&#45;&gt;Node110 -->
<g id="edge29" class="edge">
<title>Node107&#45;&gt;Node110</title>
<path fill="none" stroke="#191970" d="M428.8981,-160.0452C440.2806,-159.9544 451.9142,-159.8616 462.2812,-159.7789"/>
<polygon fill="#191970" stroke="#191970" points="428.5305,-156.5479 418.5588,-160.1276 428.5864,-163.5477 428.5305,-156.5479"/>
</g>
<!-- Node108&#45;&gt;Node109 -->
<g id="edge27" class="edge">
<title>Node108&#45;&gt;Node109</title>
<path fill="none" stroke="#191970" d="M538.8329,-223.7053C558.3077,-218.1821 581.145,-211.7052 599.2429,-206.5725"/>
<polygon fill="#191970" stroke="#191970" points="537.6638,-220.3988 528.9982,-226.4945 539.5738,-227.1332 537.6638,-220.3988"/>
</g>
<!-- Node109&#45;&gt;Node94 -->
<g id="edge28" class="edge">
<title>Node109&#45;&gt;Node94</title>
<path fill="none" stroke="#191970" d="M678.8858,-197.5C692.8659,-197.5 708.0701,-197.5 721.7554,-197.5"/>
<polygon fill="#191970" stroke="#191970" points="678.4792,-194.0001 668.4792,-197.5 678.4792,-201.0001 678.4792,-194.0001"/>
</g>
<!-- Node110&#45;&gt;Node109 -->
<g id="edge30" class="edge">
<title>Node110&#45;&gt;Node109</title>
<path fill="none" stroke="#191970" d="M538.8329,-171.2947C558.3077,-176.8179 581.145,-183.2948 599.2429,-188.4275"/>
<polygon fill="#191970" stroke="#191970" points="539.5738,-167.8668 528.9982,-168.5055 537.6638,-174.6012 539.5738,-167.8668"/>
</g>
</g>
</svg>
