<?xml version="1.0" encoding="UTF-8" standalone="no"?>
<!DOCTYPE svg PUBLIC "-//W3C//DTD SVG 1.1//EN"
 "http://www.w3.org/Graphics/SVG/1.1/DTD/svg11.dtd">
<!-- Generated by graphviz version 2.40.1 (20161225.0304)
 -->
<!-- Title: error Pages: 1 -->
<svg width="253pt" height="138pt"
 viewBox="0.00 0.00 252.51 138.00" xmlns="http://www.w3.org/2000/svg" xmlns:xlink="http://www.w3.org/1999/xlink">
<g id="graph0" class="graph" transform="scale(1 1) rotate(0) translate(4 134)">
<title>error</title>
<!-- Node33 -->
<g id="node1" class="node">
<title>Node33</title>
<polygon fill="#bfbfbf" stroke="#000000" points="0,-55.5 0,-73.5 37.1133,-73.5 37.1133,-55.5 0,-55.5"/>
<text text-anchor="middle" x="18.5566" y="-61.5" font-family="Helvetica,sans-Serif" font-size="10.00" fill="#000000">error</text>
</g>
<!-- Node34 -->
<g id="node2" class="node">
<title>Node34</title>
<g id="a_node2"><a xlink:href="log_8c.html#afff22aff6749311a684a559cac3ac8bd" target="_top" xlink:title="prints a log info message to the lcd ">
<polygon fill="none" stroke="#000000" points="73.1133,-55.5 73.1133,-73.5 124.1426,-73.5 124.1426,-55.5 73.1133,-55.5"/>
<text text-anchor="middle" x="98.6279" y="-61.5" font-family="Helvetica,sans-Serif" font-size="10.00" fill="#000000">log_info</text>
</a>
</g>
</g>
<!-- Node33&#45;&gt;Node34 -->
<g id="edge1" class="edge">
<title>Node33&#45;&gt;Node34</title>
<path fill="none" stroke="#191970" d="M37.1279,-64.5C44.7651,-64.5 53.8819,-64.5 62.7267,-64.5"/>
<polygon fill="#191970" stroke="#191970" points="62.8798,-68.0001 72.8797,-64.5 62.8797,-61.0001 62.8798,-68.0001"/>
</g>
<!-- Node35 -->
<g id="node3" class="node">
<title>Node35</title>
<g id="a_node3"><a xlink:href="_a_p_i_8h.html#a403c82418e475fa4a8273719e6a7f3e6" target="_top" xlink:title="Prints the formatted string to the debug stream (the PC terminal). ">
<polygon fill="none" stroke="#000000" points="183.2114,-111.5 183.2114,-129.5 221.4429,-129.5 221.4429,-111.5 183.2114,-111.5"/>
<text text-anchor="middle" x="202.3271" y="-117.5" font-family="Helvetica,sans-Serif" font-size="10.00" fill="#000000">printf</text>
</a>
</g>
</g>
<!-- Node34&#45;&gt;Node35 -->
<g id="edge2" class="edge">
<title>Node34&#45;&gt;Node35</title>
<path fill="none" stroke="#191970" d="M111.9693,-73.5526C124.2059,-81.6578 142.9807,-93.6016 160.1426,-102.5 164.5076,-104.7632 169.2213,-106.9819 173.8614,-109.0459"/>
<polygon fill="#191970" stroke="#191970" points="172.5775,-112.3035 183.1474,-113.0298 175.3374,-105.8706 172.5775,-112.3035"/>
</g>
<!-- Node36 -->
<g id="node4" class="node">
<title>Node36</title>
<g id="a_node4"><a xlink:href="_a_p_i_8h.html#aab53a247d88151a6623c20fa1ea940b0" target="_top" xlink:title="Sets the specified LCD backlight to be on or off. ">
<polygon fill="none" stroke="#000000" points="160.1426,-74.5 160.1426,-92.5 244.5117,-92.5 244.5117,-74.5 160.1426,-74.5"/>
<text text-anchor="middle" x="202.3271" y="-80.5" font-family="Helvetica,sans-Serif" font-size="10.00" fill="#000000">lcdSetBacklight</text>
</a>
</g>
</g>
<!-- Node34&#45;&gt;Node36 -->
<g id="edge3" class="edge">
<title>Node34&#45;&gt;Node36</title>
<path fill="none" stroke="#191970" d="M124.2615,-69.1966C132.1053,-70.6338 141.0355,-72.27 149.9852,-73.9098"/>
<polygon fill="#191970" stroke="#191970" points="149.5741,-77.3927 160.0412,-75.7523 150.8358,-70.5073 149.5741,-77.3927"/>
</g>
<!-- Node37 -->
<g id="node5" class="node">
<title>Node37</title>
<g id="a_node5"><a xlink:href="_a_p_i_8h.html#a5fa1d119fe3e836b5519f97eae7a1272" target="_top" xlink:title="Clears the LCD screen on the specified port. ">
<polygon fill="none" stroke="#000000" points="175.9873,-37.5 175.9873,-55.5 228.667,-55.5 228.667,-37.5 175.9873,-37.5"/>
<text text-anchor="middle" x="202.3271" y="-43.5" font-family="Helvetica,sans-Serif" font-size="10.00" fill="#000000">lcdClear</text>
</a>
</g>
</g>
<!-- Node34&#45;&gt;Node37 -->
<g id="edge4" class="edge">
<title>Node34&#45;&gt;Node37</title>
<path fill="none" stroke="#191970" d="M124.2615,-60.0506C136.7836,-57.877 152.0741,-55.2229 165.7931,-52.8415"/>
<polygon fill="#191970" stroke="#191970" points="166.6518,-56.2449 175.9058,-51.0862 165.4546,-49.348 166.6518,-56.2449"/>
</g>
<!-- Node38 -->
<g id="node6" class="node">
<title>Node38</title>
<g id="a_node6"><a xlink:href="_a_p_i_8h.html#a6cfad8271c6a566a2f51ca318f819a80" target="_top" xlink:title="Prints the formatted string to the attached LCD. ">
<polygon fill="none" stroke="#000000" points="177.6548,-.5 177.6548,-18.5 226.9995,-18.5 226.9995,-.5 177.6548,-.5"/>
<text text-anchor="middle" x="202.3271" y="-6.5" font-family="Helvetica,sans-Serif" font-size="10.00" fill="#000000">lcdPrint</text>
</a>
</g>
</g>
<!-- Node34&#45;&gt;Node38 -->
<g id="edge5" class="edge">
<title>Node34&#45;&gt;Node38</title>
<path fill="none" stroke="#191970" d="M113.0497,-55.4724C125.3634,-47.9076 143.6477,-37.0107 160.1426,-28.5 163.9169,-26.5526 167.9316,-24.5991 171.9266,-22.7251"/>
<polygon fill="#191970" stroke="#191970" points="173.4495,-25.8774 181.0895,-18.537 170.5395,-19.5109 173.4495,-25.8774"/>
</g>
</g>
</svg>
