<?xml version="1.0" encoding="UTF-8" standalone="no"?>
<!DOCTYPE svg PUBLIC "-//W3C//DTD SVG 1.1//EN"
 "http://www.w3.org/Graphics/SVG/1.1/DTD/svg11.dtd">
<!-- Generated by graphviz version 2.40.1 (20161225.0304)
 -->
<!-- Title: include/log.h Pages: 1 -->
<svg width="374pt" height="137pt"
 viewBox="0.00 0.00 374.01 137.00" xmlns="http://www.w3.org/2000/svg" xmlns:xlink="http://www.w3.org/1999/xlink">
<g id="graph0" class="graph" transform="scale(1 1) rotate(0) translate(4 133)">
<title>include/log.h</title>
<!-- Node3 -->
<g id="node1" class="node">
<title>Node3</title>
<polygon fill="#bfbfbf" stroke="#000000" points="151.2588,-110.5 151.2588,-128.5 223.4111,-128.5 223.4111,-110.5 151.2588,-110.5"/>
<text text-anchor="middle" x="187.335" y="-116.5" font-family="Helvetica,sans-Serif" font-size="10.00" fill="#000000">include/log.h</text>
</g>
<!-- Node4 -->
<g id="node2" class="node">
<title>Node4</title>
<g id="a_node2"><a xlink:href="$menu_8h.html" xlink:title="Contains menu functionality and abstraction. ">
<polygon fill="none" stroke="#000000" points="54.4238,-55.5 54.4238,-73.5 138.2461,-73.5 138.2461,-55.5 54.4238,-55.5"/>
<text text-anchor="middle" x="96.335" y="-61.5" font-family="Helvetica,sans-Serif" font-size="10.00" fill="#000000">include/menu.h</text>
</a>
</g>
</g>
<!-- Node3&#45;&gt;Node4 -->
<g id="edge1" class="edge">
<title>Node3&#45;&gt;Node4</title>
<path fill="none" stroke="#191970" d="M163.7267,-105.2313C147.2015,-95.2435 125.6181,-82.1986 111.3841,-73.5956"/>
<polygon fill="#191970" stroke="#191970" points="161.9394,-108.2406 172.3082,-110.4179 165.5603,-102.2498 161.9394,-108.2406"/>
</g>
<!-- Node5 -->
<g id="node3" class="node">
<title>Node5</title>
<g id="a_node3"><a xlink:href="$init_8c.html" xlink:title="File for initialization code. ">
<polygon fill="none" stroke="#000000" points="0,-.5 0,-18.5 52.6699,-18.5 52.6699,-.5 0,-.5"/>
<text text-anchor="middle" x="26.335" y="-6.5" font-family="Helvetica,sans-Serif" font-size="10.00" fill="#000000">src/init.c</text>
</a>
</g>
</g>
<!-- Node3&#45;&gt;Node5 -->
<g id="edge5" class="edge">
<title>Node3&#45;&gt;Node5</title>
<path fill="none" stroke="#191970" d="M141.3692,-109.6856C105.263,-101.1073 58.8923,-87.8813 45.335,-74 30.4902,-58.8004 27.1496,-32.6124 26.4587,-18.7424"/>
<polygon fill="#191970" stroke="#191970" points="140.7125,-113.1262 151.245,-111.9786 142.2957,-106.3076 140.7125,-113.1262"/>
</g>
<!-- Node7 -->
<g id="node5" class="node">
<title>Node7</title>
<g id="a_node5"><a xlink:href="$drive_8c.html" xlink:title="src/drive.c">
<polygon fill="none" stroke="#000000" points="156.5542,-55.5 156.5542,-73.5 218.1157,-73.5 218.1157,-55.5 156.5542,-55.5"/>
<text text-anchor="middle" x="187.335" y="-61.5" font-family="Helvetica,sans-Serif" font-size="10.00" fill="#000000">src/drive.c</text>
</a>
</g>
</g>
<!-- Node3&#45;&gt;Node7 -->
<g id="edge4" class="edge">
<title>Node3&#45;&gt;Node7</title>
<path fill="none" stroke="#191970" d="M187.335,-100.383C187.335,-91.3738 187.335,-81.0373 187.335,-73.7795"/>
<polygon fill="#191970" stroke="#191970" points="183.8351,-100.4178 187.335,-110.4179 190.8351,-100.4179 183.8351,-100.4178"/>
</g>
<!-- Node8 -->
<g id="node6" class="node">
<title>Node8</title>
<g id="a_node6"><a xlink:href="$log_8c.html" xlink:title="src/log.c">
<polygon fill="none" stroke="#000000" points="235.7192,-55.5 235.7192,-73.5 288.9507,-73.5 288.9507,-55.5 235.7192,-55.5"/>
<text text-anchor="middle" x="262.335" y="-61.5" font-family="Helvetica,sans-Serif" font-size="10.00" fill="#000000">src/log.c</text>
</a>
</g>
</g>
<!-- Node3&#45;&gt;Node8 -->
<g id="edge6" class="edge">
<title>Node3&#45;&gt;Node8</title>
<path fill="none" stroke="#191970" d="M207.9367,-104.392C221.3956,-94.5222 238.5264,-81.9596 249.9318,-73.5956"/>
<polygon fill="#191970" stroke="#191970" points="205.714,-101.6818 199.7197,-110.4179 209.8535,-107.3266 205.714,-101.6818"/>
</g>
<!-- Node9 -->
<g id="node7" class="node">
<title>Node9</title>
<g id="a_node7"><a xlink:href="$slew_8c.html" xlink:title="src/slew.c">
<polygon fill="none" stroke="#000000" points="306.6626,-55.5 306.6626,-73.5 366.0073,-73.5 366.0073,-55.5 306.6626,-55.5"/>
<text text-anchor="middle" x="336.335" y="-61.5" font-family="Helvetica,sans-Serif" font-size="10.00" fill="#000000">src/slew.c</text>
</a>
</g>
</g>
<!-- Node3&#45;&gt;Node9 -->
<g id="edge7" class="edge">
<title>Node3&#45;&gt;Node9</title>
<path fill="none" stroke="#191970" d="M221.5608,-106.8663C249.0843,-96.7066 287.093,-82.6765 311.6941,-73.5956"/>
<polygon fill="#191970" stroke="#191970" points="220.1085,-103.6715 211.9393,-110.4179 222.5326,-110.2384 220.1085,-103.6715"/>
</g>
<!-- Node4&#45;&gt;Node5 -->
<g id="edge2" class="edge">
<title>Node4&#45;&gt;Node5</title>
<path fill="none" stroke="#191970" d="M76.7986,-49.15C64.3767,-39.3899 48.7021,-27.0742 38.1452,-18.7795"/>
<polygon fill="#191970" stroke="#191970" points="74.7503,-51.9917 84.7759,-55.4179 79.0751,-46.4875 74.7503,-51.9917"/>
</g>
<!-- Node6 -->
<g id="node4" class="node">
<title>Node6</title>
<g id="a_node4"><a xlink:href="$menu_8c.html" xlink:title="src/menu.c">
<polygon fill="none" stroke="#000000" points="70.8843,-.5 70.8843,-18.5 135.7856,-18.5 135.7856,-.5 70.8843,-.5"/>
<text text-anchor="middle" x="103.335" y="-6.5" font-family="Helvetica,sans-Serif" font-size="10.00" fill="#000000">src/menu.c</text>
</a>
</g>
</g>
<!-- Node4&#45;&gt;Node6 -->
<g id="edge3" class="edge">
<title>Node4&#45;&gt;Node6</title>
<path fill="none" stroke="#191970" d="M98.768,-45.383C99.9147,-36.3738 101.2302,-26.0373 102.1539,-18.7795"/>
<polygon fill="#191970" stroke="#191970" points="95.2815,-45.056 97.4909,-55.4179 102.2255,-45.9398 95.2815,-45.056"/>
</g>
</g>
</svg>
