<?xml version="1.0" encoding="UTF-8" standalone="no"?>
<!DOCTYPE svg PUBLIC "-//W3C//DTD SVG 1.1//EN"
 "http://www.w3.org/Graphics/SVG/1.1/DTD/svg11.dtd">
<!-- Generated by graphviz version 2.40.1 (20161225.0304)
 -->
<!-- Title: operatorControl Pages: 1 -->
<!--zoomable 636 -->
<svg id="main" version="1.1" xmlns="http://www.w3.org/2000/svg" xmlns:xlink="http://www.w3.org/1999/xlink" xml:space="preserve" onload="init(evt)">
<style type="text/css"><![CDATA[
.edge:hover path { stroke: red; }
.edge:hover polygon { stroke: red; fill: red; }
]]></style>
<script type="text/javascript"><![CDATA[
var edges = document.getElementsByTagName('g');
if (edges && edges.length) {
  for (var i=0;i<edges.length;i++) {
    if (edges[i].id.substr(0,4)=='edge') {
      edges[i].setAttribute('class','edge');
    }
  }
}
]]></script>
        <defs>
                <circle id="rim" cx="0" cy="0" r="7"/>
                <circle id="rim2" cx="0" cy="0" r="3.5"/>
                <g id="zoomPlus">
                        <use xlink:href="#rim" fill="#404040">
                                <set attributeName="fill" to="#808080" begin="zoomplus.mouseover" end="zoomplus.mouseout"/>
                        </use>
                        <path d="M-4,0h8M0,-4v8" fill="none" stroke="white" stroke-width="1.5" pointer-events="none"/>
                </g>
                <g id="zoomMin">
                        <use xlink:href="#rim" fill="#404040">
                                <set attributeName="fill" to="#808080" begin="zoomminus.mouseover" end="zoomminus.mouseout"/>
                        </use>
                        <path d="M-4,0h8" fill="none" stroke="white" stroke-width="1.5" pointer-events="none"/>
                </g>
                <g id="dirArrow">
                        <path fill="none" stroke="white" stroke-width="1.5" d="M0,-3.0v7 M-2.5,-0.5L0,-3.0L2.5,-0.5"/>
                </g>
               <g id="resetDef">
                       <use xlink:href="#rim2" fill="#404040">
                               <set attributeName="fill" to="#808080" begin="reset.mouseover" end="reset.mouseout"/>
                       </use>
               </g>
        </defs>

<script type="text/javascript">
var viewWidth = 1073;
var viewHeight = 636;
var sectionId = 'dynsection-5';
</script>
<script xlink:href="svgpan.js"/>
<svg id="graph" class="graph">
<g id="viewport">
<title>operatorControl</title>
<!-- Node38 -->
<g id="node1" class="node">
<title>Node38</title>
<polygon fill="#bfbfbf" stroke="#000000" points="0,-403.5 0,-421.5 85.4824,-421.5 85.4824,-403.5 0,-403.5"/>
<text text-anchor="middle" x="42.7412" y="-409.5" font-family="Helvetica,sans-Serif" font-size="10.00" fill="#000000">operatorControl</text>
</g>
<!-- Node39 -->
<g id="node2" class="node">
<title>Node39</title>
<g id="a_node2"><a xlink:href="_a_p_i_8h.html#a1c59207742a1acf45a8957d7f04f9dfe" target="_top" xlink:title="delay">
<polygon fill="none" stroke="#000000" points="295.4941,-609.5 295.4941,-627.5 335.4004,-627.5 335.4004,-609.5 295.4941,-609.5"/>
<text text-anchor="middle" x="315.4473" y="-615.5" font-family="Helvetica,sans-Serif" font-size="10.00" fill="#000000">delay</text>
</a>
</g>
</g>
<!-- Node38&#45;&gt;Node39 -->
<g id="edge1" class="edge">
<title>Node38&#45;&gt;Node39</title>
<path fill="none" stroke="#191970" d="M44.9413,-421.8096C51.6149,-447.9791 74.1361,-522.8016 121.4824,-561.5 169.6066,-600.8342 243.9646,-613.025 285.2351,-616.8033"/>
<polygon fill="#191970" stroke="#191970" points="284.9718,-620.2933 295.2214,-617.611 285.5362,-613.3161 284.9718,-620.2933"/>
</g>
<!-- Node40 -->
<g id="node3" class="node">
<title>Node40</title>
<g id="a_node3"><a xlink:href="slew_8h.html#a321758941d88b75783955c819bb75005" target="_top" xlink:title="Initializes the slew rate controller. ">
<polygon fill="none" stroke="#000000" points="676.3281,-83.5 676.3281,-101.5 730.6777,-101.5 730.6777,-83.5 676.3281,-83.5"/>
<text text-anchor="middle" x="703.5029" y="-89.5" font-family="Helvetica,sans-Serif" font-size="10.00" fill="#000000">init_slew</text>
</a>
</g>
</g>
<!-- Node38&#45;&gt;Node40 -->
<g id="edge2" class="edge">
<title>Node38&#45;&gt;Node40</title>
<path fill="none" stroke="#191970" d="M43.5736,-403.1522C46.9932,-369.8527 62.6942,-255.3907 121.4824,-187.5 184.3191,-114.9339 219.4562,-92.5 315.4473,-92.5 315.4473,-92.5 315.4473,-92.5 445.8213,-92.5 524.1318,-92.5 615.8292,-92.5 665.9911,-92.5"/>
<polygon fill="#191970" stroke="#191970" points="666.0449,-96.0001 676.0449,-92.5 666.0448,-89.0001 666.0449,-96.0001"/>
</g>
<!-- Node54 -->
<g id="node17" class="node">
<title>Node54</title>
<g id="a_node17"><a xlink:href="claw_8h.html#a0122b78972344264b8a276a559cfce4a" target="_top" xlink:title="Updates the claw motor values. ">
<polygon fill="none" stroke="#000000" points="140.3789,-496.5 140.3789,-514.5 212.5313,-514.5 212.5313,-496.5 140.3789,-496.5"/>
<text text-anchor="middle" x="176.4551" y="-502.5" font-family="Helvetica,sans-Serif" font-size="10.00" fill="#000000">update_claw</text>
</a>
</g>
</g>
<!-- Node38&#45;&gt;Node54 -->
<g id="edge17" class="edge">
<title>Node38&#45;&gt;Node54</title>
<path fill="none" stroke="#191970" d="M56.0511,-421.7572C79.1783,-437.8426 126.9764,-471.0869 154.891,-490.5019"/>
<polygon fill="#191970" stroke="#191970" points="152.991,-493.4437 163.1991,-496.2802 156.9879,-487.697 152.991,-493.4437"/>
</g>
<!-- Node62 -->
<g id="node25" class="node">
<title>Node62</title>
<g id="a_node25"><a xlink:href="partner_8h.html#ab2c78903a76d2ed8969271803c78368a" target="_top" xlink:title="update_control">
<polygon fill="none" stroke="#000000" points="135.374,-533.5 135.374,-551.5 217.5361,-551.5 217.5361,-533.5 135.374,-533.5"/>
<text text-anchor="middle" x="176.4551" y="-539.5" font-family="Helvetica,sans-Serif" font-size="10.00" fill="#000000">update_control</text>
</a>
</g>
</g>
<!-- Node38&#45;&gt;Node62 -->
<g id="edge35" class="edge">
<title>Node38&#45;&gt;Node62</title>
<path fill="none" stroke="#191970" d="M46.6226,-421.5346C56.1762,-442.7151 82.8919,-495.9334 121.4824,-524.5 123.7904,-526.2085 126.2686,-527.7599 128.8502,-529.1679"/>
<polygon fill="#191970" stroke="#191970" points="127.3889,-532.3483 137.929,-533.4232 130.3597,-526.01 127.3889,-532.3483"/>
</g>
<!-- Node63 -->
<g id="node26" class="node">
<title>Node63</title>
<g id="a_node26"><a xlink:href="drive_8h.html#a8224a4626a934d30ed587671b7004bf8" target="_top" xlink:title="Updates the drive motors during teleop. ">
<polygon fill="none" stroke="#000000" points="121.4824,-197.5 121.4824,-215.5 231.4277,-215.5 231.4277,-197.5 121.4824,-197.5"/>
<text text-anchor="middle" x="176.4551" y="-203.5" font-family="Helvetica,sans-Serif" font-size="10.00" fill="#000000">update_drive_motors</text>
</a>
</g>
</g>
<!-- Node38&#45;&gt;Node63 -->
<g id="edge38" class="edge">
<title>Node38&#45;&gt;Node63</title>
<path fill="none" stroke="#191970" d="M47.7804,-403.343C59.8353,-381.6017 91.5653,-325.3378 121.4824,-280.5 134.7233,-260.6555 151.1827,-238.8316 162.6232,-224.0616"/>
<polygon fill="#191970" stroke="#191970" points="165.6323,-225.8947 169.0243,-215.8575 160.1134,-221.5886 165.6323,-225.8947"/>
</g>
<!-- Node68 -->
<g id="node31" class="node">
<title>Node68</title>
<g id="a_node31"><a xlink:href="lifter_8h.html#a59bb7413777ca16aba124aaedf95c79b" target="_top" xlink:title="update_lifter">
<polygon fill="none" stroke="#000000" points="140.9355,-403.5 140.9355,-421.5 211.9746,-421.5 211.9746,-403.5 140.9355,-403.5"/>
<text text-anchor="middle" x="176.4551" y="-409.5" font-family="Helvetica,sans-Serif" font-size="10.00" fill="#000000">update_lifter</text>
</a>
</g>
</g>
<!-- Node38&#45;&gt;Node68 -->
<g id="edge47" class="edge">
<title>Node38&#45;&gt;Node68</title>
<path fill="none" stroke="#191970" d="M85.7851,-412.5C100.0379,-412.5 115.9514,-412.5 130.4198,-412.5"/>
<polygon fill="#191970" stroke="#191970" points="130.6552,-416.0001 140.6552,-412.5 130.6551,-409.0001 130.6552,-416.0001"/>
</g>
<!-- Node73 -->
<g id="node36" class="node">
<title>Node73</title>
<g id="a_node36"><a xlink:href="mobile__goal__intake_8h.html#ad0232c21c5c1ffda603d2b7d61034118" target="_top" xlink:title="updateIntake">
<polygon fill="none" stroke="#000000" points="139.5415,-290.5 139.5415,-308.5 213.3687,-308.5 213.3687,-290.5 139.5415,-290.5"/>
<text text-anchor="middle" x="176.4551" y="-296.5" font-family="Helvetica,sans-Serif" font-size="10.00" fill="#000000">updateIntake</text>
</a>
</g>
</g>
<!-- Node38&#45;&gt;Node73 -->
<g id="edge58" class="edge">
<title>Node38&#45;&gt;Node73</title>
<path fill="none" stroke="#191970" d="M53.6836,-403.2527C76.5198,-383.9542 129.4755,-339.2019 157.7972,-315.2675"/>
<polygon fill="#191970" stroke="#191970" points="160.3565,-317.6872 165.7352,-308.5592 155.8382,-312.3407 160.3565,-317.6872"/>
</g>
<!-- Node41 -->
<g id="node4" class="node">
<title>Node41</title>
<g id="a_node4"><a xlink:href="log_8h.html#a0bec2cf5fff7f607bc510b74aba9887c" target="_top" xlink:title="prints a warning message and displays on lcd. Only will print and display if log_level is greater tha...">
<polygon fill="none" stroke="#000000" points="779.7417,-111.5 779.7417,-129.5 830.7612,-129.5 830.7612,-111.5 779.7417,-111.5"/>
<text text-anchor="middle" x="805.2515" y="-117.5" font-family="Helvetica,sans-Serif" font-size="10.00" fill="#000000">warning</text>
</a>
</g>
</g>
<!-- Node40&#45;&gt;Node41 -->
<g id="edge3" class="edge">
<title>Node40&#45;&gt;Node41</title>
<path fill="none" stroke="#191970" d="M730.7697,-100.0035C742.7534,-103.3013 756.9827,-107.217 769.7772,-110.7379"/>
<polygon fill="#191970" stroke="#191970" points="769.0899,-114.1788 779.6602,-113.4576 770.9472,-107.4297 769.0899,-114.1788"/>
</g>
<!-- Node46 -->
<g id="node9" class="node">
<title>Node46</title>
<g id="a_node9"><a xlink:href="_a_p_i_8h.html#a8966c541f3e9565aea1289f0d2f2cf43" target="_top" xlink:title="motorStopAll">
<polygon fill="none" stroke="#000000" points="768.6284,-74.5 768.6284,-92.5 841.8745,-92.5 841.8745,-74.5 768.6284,-74.5"/>
<text text-anchor="middle" x="805.2515" y="-80.5" font-family="Helvetica,sans-Serif" font-size="10.00" fill="#000000">motorStopAll</text>
</a>
</g>
</g>
<!-- Node40&#45;&gt;Node46 -->
<g id="edge8" class="edge">
<title>Node40&#45;&gt;Node46</title>
<path fill="none" stroke="#191970" d="M730.7697,-90.0882C739.2426,-89.3387 748.8381,-88.4899 758.2554,-87.657"/>
<polygon fill="#191970" stroke="#191970" points="758.6899,-91.1323 768.3426,-86.7647 758.073,-84.1595 758.6899,-91.1323"/>
</g>
<!-- Node47 -->
<g id="node10" class="node">
<title>Node47</title>
<g id="a_node10"><a xlink:href="log_8h.html#a1606d750e1bb8de9f9e917172bba3382" target="_top" xlink:title="prints a info message ">
<polygon fill="none" stroke="#000000" points="789.1899,-148.5 789.1899,-166.5 821.313,-166.5 821.313,-148.5 789.1899,-148.5"/>
<text text-anchor="middle" x="805.2515" y="-154.5" font-family="Helvetica,sans-Serif" font-size="10.00" fill="#000000">info</text>
</a>
</g>
</g>
<!-- Node40&#45;&gt;Node47 -->
<g id="edge9" class="edge">
<title>Node40&#45;&gt;Node47</title>
<path fill="none" stroke="#191970" d="M717.7458,-101.6414C721.955,-104.4212 726.5416,-107.5282 730.6777,-110.5 747.139,-122.3275 749.4972,-127.7439 766.6777,-138.5 770.8855,-141.1343 775.51,-143.6821 780.0509,-146.0105"/>
<polygon fill="#191970" stroke="#191970" points="778.5737,-149.1842 789.094,-150.4394 781.6527,-142.8977 778.5737,-149.1842"/>
</g>
<!-- Node48 -->
<g id="node11" class="node">
<title>Node48</title>
<g id="a_node11"><a xlink:href="_a_p_i_8h.html#aecd027ce8f8b52a765735e9eb5b202b3" target="_top" xlink:title="mutexCreate">
<polygon fill="none" stroke="#000000" points="768.6284,-.5 768.6284,-18.5 841.8745,-18.5 841.8745,-.5 768.6284,-.5"/>
<text text-anchor="middle" x="805.2515" y="-6.5" font-family="Helvetica,sans-Serif" font-size="10.00" fill="#000000">mutexCreate</text>
</a>
</g>
</g>
<!-- Node40&#45;&gt;Node48 -->
<g id="edge11" class="edge">
<title>Node40&#45;&gt;Node48</title>
<path fill="none" stroke="#191970" d="M710.797,-83.0553C721.7386,-69.3814 743.5931,-43.9149 766.6777,-27.5 768.733,-26.0386 770.9257,-24.6469 773.1827,-23.3324"/>
<polygon fill="#191970" stroke="#191970" points="774.8356,-26.4177 782.0519,-18.6604 771.5732,-20.2244 774.8356,-26.4177"/>
</g>
<!-- Node49 -->
<g id="node12" class="node">
<title>Node49</title>
<g id="a_node12"><a xlink:href="_a_p_i_8h.html#ab05a241d6d1fd98b1ceb4665db678156" target="_top" xlink:title="taskRunLoop">
<polygon fill="none" stroke="#000000" points="767.7861,-37.5 767.7861,-55.5 842.7168,-55.5 842.7168,-37.5 767.7861,-37.5"/>
<text text-anchor="middle" x="805.2515" y="-43.5" font-family="Helvetica,sans-Serif" font-size="10.00" fill="#000000">taskRunLoop</text>
</a>
</g>
</g>
<!-- Node40&#45;&gt;Node49 -->
<g id="edge12" class="edge">
<title>Node40&#45;&gt;Node49</title>
<path fill="none" stroke="#191970" d="M723.6052,-83.4119C738.5165,-76.6705 759.0775,-67.375 775.8352,-59.7989"/>
<polygon fill="#191970" stroke="#191970" points="777.5208,-62.878 785.191,-55.5692 774.6371,-56.4996 777.5208,-62.878"/>
</g>
<!-- Node50 -->
<g id="node13" class="node">
<title>Node50</title>
<g id="a_node13"><a xlink:href="slew_8c.html#a807a87c5df438fde21c1e8213906695b" target="_top" xlink:title="Closes the distance between the desired motor value and the current motor value by half for each moto...">
<polygon fill="none" stroke="#000000" points="766.6777,-224.5 766.6777,-242.5 843.8252,-242.5 843.8252,-224.5 766.6777,-224.5"/>
<text text-anchor="middle" x="805.2515" y="-230.5" font-family="Helvetica,sans-Serif" font-size="10.00" fill="#000000">updateMotors</text>
</a>
</g>
</g>
<!-- Node40&#45;&gt;Node50 -->
<g id="edge13" class="edge">
<title>Node40&#45;&gt;Node50</title>
<path fill="none" stroke="#191970" d="M720.0192,-101.6098C723.8001,-104.1697 727.6059,-107.1745 730.6777,-110.5 753.0858,-134.7579 749.5197,-147.2835 766.6777,-175.5 775.0225,-189.2231 785.091,-204.3179 792.8486,-215.6676"/>
<polygon fill="#191970" stroke="#191970" points="790.1772,-217.9593 798.733,-224.2082 795.9414,-213.9877 790.1772,-217.9593"/>
</g>
<!-- Node42 -->
<g id="node5" class="node">
<title>Node42</title>
<g id="a_node5"><a xlink:href="log_8c.html#afff22aff6749311a684a559cac3ac8bd" target="_top" xlink:title="log_info">
<polygon fill="none" stroke="#000000" points="886.4878,-111.5 886.4878,-129.5 937.5171,-129.5 937.5171,-111.5 886.4878,-111.5"/>
<text text-anchor="middle" x="912.0024" y="-117.5" font-family="Helvetica,sans-Serif" font-size="10.00" fill="#000000">log_info</text>
</a>
</g>
</g>
<!-- Node41&#45;&gt;Node42 -->
<g id="edge4" class="edge">
<title>Node41&#45;&gt;Node42</title>
<path fill="none" stroke="#191970" d="M830.821,-120.5C844.3217,-120.5 861.1153,-120.5 875.9192,-120.5"/>
<polygon fill="#191970" stroke="#191970" points="876.2716,-124.0001 886.2716,-120.5 876.2715,-117.0001 876.2716,-124.0001"/>
</g>
<!-- Node43 -->
<g id="node6" class="node">
<title>Node43</title>
<g id="a_node6"><a xlink:href="_a_p_i_8h.html#a403c82418e475fa4a8273719e6a7f3e6" target="_top" xlink:title="printf">
<polygon fill="none" stroke="#000000" points="1003.2485,-149.5 1003.2485,-167.5 1041.48,-167.5 1041.48,-149.5 1003.2485,-149.5"/>
<text text-anchor="middle" x="1022.3643" y="-155.5" font-family="Helvetica,sans-Serif" font-size="10.00" fill="#000000">printf</text>
</a>
</g>
</g>
<!-- Node42&#45;&gt;Node43 -->
<g id="edge5" class="edge">
<title>Node42&#45;&gt;Node43</title>
<path fill="none" stroke="#191970" d="M937.5991,-129.3135C954.313,-135.0684 976.168,-142.5936 993.5,-148.5614"/>
<polygon fill="#191970" stroke="#191970" points="992.5144,-151.9237 1003.1092,-151.87 994.7934,-145.305 992.5144,-151.9237"/>
</g>
<!-- Node44 -->
<g id="node7" class="node">
<title>Node44</title>
<g id="a_node7"><a xlink:href="_a_p_i_8h.html#aab53a247d88151a6623c20fa1ea940b0" target="_top" xlink:title="lcdSetBacklight">
<polygon fill="none" stroke="#000000" points="980.1797,-75.5 980.1797,-93.5 1064.5488,-93.5 1064.5488,-75.5 980.1797,-75.5"/>
<text text-anchor="middle" x="1022.3643" y="-81.5" font-family="Helvetica,sans-Serif" font-size="10.00" fill="#000000">lcdSetBacklight</text>
</a>
</g>
</g>
<!-- Node42&#45;&gt;Node44 -->
<g id="edge6" class="edge">
<title>Node42&#45;&gt;Node44</title>
<path fill="none" stroke="#191970" d="M937.5991,-112.1504C951.5978,-107.584 969.203,-101.8412 984.7366,-96.7741"/>
<polygon fill="#191970" stroke="#191970" points="986.165,-99.9898 994.5866,-93.5611 983.9941,-93.3349 986.165,-99.9898"/>
</g>
<!-- Node45 -->
<g id="node8" class="node">
<title>Node45</title>
<g id="a_node8"><a xlink:href="_a_p_i_8h.html#a5fa1d119fe3e836b5519f97eae7a1272" target="_top" xlink:title="lcdClear">
<polygon fill="none" stroke="#000000" points="996.0244,-112.5 996.0244,-130.5 1048.7041,-130.5 1048.7041,-112.5 996.0244,-112.5"/>
<text text-anchor="middle" x="1022.3643" y="-118.5" font-family="Helvetica,sans-Serif" font-size="10.00" fill="#000000">lcdClear</text>
</a>
</g>
</g>
<!-- Node42&#45;&gt;Node45 -->
<g id="edge7" class="edge">
<title>Node42&#45;&gt;Node45</title>
<path fill="none" stroke="#191970" d="M937.5991,-120.7319C951.7749,-120.8604 969.649,-121.0223 985.3252,-121.1644"/>
<polygon fill="#191970" stroke="#191970" points="985.7229,-124.668 995.7543,-121.2589 985.7864,-117.6683 985.7229,-124.668"/>
</g>
<!-- Node47&#45;&gt;Node43 -->
<g id="edge10" class="edge">
<title>Node47&#45;&gt;Node43</title>
<path fill="none" stroke="#191970" d="M821.5702,-157.5752C858.075,-157.7433 946.7505,-158.1517 993.0788,-158.3651"/>
<polygon fill="#191970" stroke="#191970" points="993.0734,-161.865 1003.0895,-158.4112 993.1058,-154.8651 993.0734,-161.865"/>
</g>
<!-- Node51 -->
<g id="node14" class="node">
<title>Node51</title>
<g id="a_node14"><a xlink:href="_a_p_i_8h.html#a8b51124628d2a7741738d48551d1e8ee" target="_top" xlink:title="mutexTake">
<polygon fill="none" stroke="#000000" points="879.8252,-224.5 879.8252,-242.5 944.1797,-242.5 944.1797,-224.5 879.8252,-224.5"/>
<text text-anchor="middle" x="912.0024" y="-230.5" font-family="Helvetica,sans-Serif" font-size="10.00" fill="#000000">mutexTake</text>
</a>
</g>
</g>
<!-- Node50&#45;&gt;Node51 -->
<g id="edge14" class="edge">
<title>Node50&#45;&gt;Node51</title>
<path fill="none" stroke="#191970" d="M844.093,-233.5C852.3999,-233.5 861.2153,-233.5 869.647,-233.5"/>
<polygon fill="#191970" stroke="#191970" points="869.6817,-237.0001 879.6817,-233.5 869.6816,-230.0001 869.6817,-237.0001"/>
</g>
<!-- Node52 -->
<g id="node15" class="node">
<title>Node52</title>
<g id="a_node15"><a xlink:href="_a_p_i_8h.html#afe171a08d22de18fc2ab604b2364959f" target="_top" xlink:title="mutexGive">
<polygon fill="none" stroke="#000000" points="880.106,-262.5 880.106,-280.5 943.8989,-280.5 943.8989,-262.5 880.106,-262.5"/>
<text text-anchor="middle" x="912.0024" y="-268.5" font-family="Helvetica,sans-Serif" font-size="10.00" fill="#000000">mutexGive</text>
</a>
</g>
</g>
<!-- Node50&#45;&gt;Node52 -->
<g id="edge15" class="edge">
<title>Node50&#45;&gt;Node52</title>
<path fill="none" stroke="#191970" d="M830.55,-242.5055C844.408,-247.4385 861.7961,-253.6281 876.9442,-259.0204"/>
<polygon fill="#191970" stroke="#191970" points="875.9209,-262.3712 886.5156,-262.4275 878.2684,-255.7765 875.9209,-262.3712"/>
</g>
<!-- Node53 -->
<g id="node16" class="node">
<title>Node53</title>
<g id="a_node16"><a xlink:href="_a_p_i_8h.html#a03c5b04b472d024281f62d7af8854a8e" target="_top" xlink:title="motorSet">
<polygon fill="none" stroke="#000000" points="883.7168,-414.5 883.7168,-432.5 940.2881,-432.5 940.2881,-414.5 883.7168,-414.5"/>
<text text-anchor="middle" x="912.0024" y="-420.5" font-family="Helvetica,sans-Serif" font-size="10.00" fill="#000000">motorSet</text>
</a>
</g>
</g>
<!-- Node50&#45;&gt;Node53 -->
<g id="edge16" class="edge">
<title>Node50&#45;&gt;Node53</title>
<path fill="none" stroke="#191970" d="M810.4003,-242.6641C827.0635,-272.322 879.7264,-366.0538 901.9512,-405.6103"/>
<polygon fill="#191970" stroke="#191970" points="898.9556,-407.4241 906.9053,-414.4279 905.0583,-403.9952 898.9556,-407.4241"/>
</g>
<!-- Node55 -->
<g id="node18" class="node">
<title>Node55</title>
<g id="a_node18"><a xlink:href="claw_8c.html#addd2004effae7c94400aed1fe6a90ead" target="_top" xlink:title="Gets the claw position in potentiometer ticks. ">
<polygon fill="none" stroke="#000000" points="277.9014,-533.5 277.9014,-551.5 352.9932,-551.5 352.9932,-533.5 277.9014,-533.5"/>
<text text-anchor="middle" x="315.4473" y="-539.5" font-family="Helvetica,sans-Serif" font-size="10.00" fill="#000000">getClawTicks</text>
</a>
</g>
</g>
<!-- Node54&#45;&gt;Node55 -->
<g id="edge18" class="edge">
<title>Node54&#45;&gt;Node55</title>
<path fill="none" stroke="#191970" d="M210.4564,-514.5512C228.882,-519.4562 251.858,-525.5724 271.6147,-530.8317"/>
<polygon fill="#191970" stroke="#191970" points="270.7514,-534.2237 281.3152,-533.414 272.5522,-527.4593 270.7514,-534.2237"/>
</g>
<!-- Node57 -->
<g id="node20" class="node">
<title>Node57</title>
<g id="a_node20"><a xlink:href="_a_p_i_8h.html#a792f1a80c62a63e764cf64aabf95db92" target="_top" xlink:title="joystickGetDigital">
<polygon fill="none" stroke="#000000" points="269.1025,-496.5 269.1025,-514.5 361.792,-514.5 361.792,-496.5 269.1025,-496.5"/>
<text text-anchor="middle" x="315.4473" y="-502.5" font-family="Helvetica,sans-Serif" font-size="10.00" fill="#000000">joystickGetDigital</text>
</a>
</g>
</g>
<!-- Node54&#45;&gt;Node57 -->
<g id="edge20" class="edge">
<title>Node54&#45;&gt;Node57</title>
<path fill="none" stroke="#191970" d="M212.6108,-505.5C226.7309,-505.5 243.2575,-505.5 258.8805,-505.5"/>
<polygon fill="#191970" stroke="#191970" points="258.9822,-509.0001 268.9822,-505.5 258.9822,-502.0001 258.9822,-509.0001"/>
</g>
<!-- Node58 -->
<g id="node21" class="node">
<title>Node58</title>
<g id="a_node21"><a xlink:href="claw_8c.html#a3a57f998b1884d39b0cc786689f7086f" target="_top" xlink:title="sets the claw motor speed ">
<polygon fill="none" stroke="#000000" points="402.8066,-552.5 402.8066,-570.5 488.8359,-570.5 488.8359,-552.5 402.8066,-552.5"/>
<text text-anchor="middle" x="445.8213" y="-558.5" font-family="Helvetica,sans-Serif" font-size="10.00" fill="#000000">set_claw_motor</text>
</a>
</g>
</g>
<!-- Node54&#45;&gt;Node58 -->
<g id="edge21" class="edge">
<title>Node54&#45;&gt;Node58</title>
<path fill="none" stroke="#191970" d="M210.7394,-514.5797C217.8661,-517.2153 225.1204,-520.4933 231.4277,-524.5 250.7944,-536.8026 246.291,-552.5748 267.4277,-561.5 307.1994,-578.294 356.551,-576.799 393.2579,-571.9528"/>
<polygon fill="#191970" stroke="#191970" points="393.8599,-575.4023 403.2573,-570.5095 392.8599,-568.4741 393.8599,-575.4023"/>
</g>
<!-- Node56 -->
<g id="node19" class="node">
<title>Node56</title>
<g id="a_node19"><a xlink:href="_a_p_i_8h.html#a5da86064604c539c2b6a5e2993289108" target="_top" xlink:title="analogRead">
<polygon fill="none" stroke="#000000" points="410.8535,-478.5 410.8535,-496.5 480.7891,-496.5 480.7891,-478.5 410.8535,-478.5"/>
<text text-anchor="middle" x="445.8213" y="-484.5" font-family="Helvetica,sans-Serif" font-size="10.00" fill="#000000">analogRead</text>
</a>
</g>
</g>
<!-- Node55&#45;&gt;Node56 -->
<g id="edge19" class="edge">
<title>Node55&#45;&gt;Node56</title>
<path fill="none" stroke="#191970" d="M340.4879,-533.4569C347.9222,-530.6798 356.057,-527.5497 363.4668,-524.5 381.592,-517.0401 401.6597,-508.0399 417.4477,-500.7841"/>
<polygon fill="#191970" stroke="#191970" points="419.0609,-503.8943 426.6692,-496.5211 416.1235,-497.5404 419.0609,-503.8943"/>
</g>
<!-- Node59 -->
<g id="node22" class="node">
<title>Node59</title>
<g id="a_node22"><a xlink:href="slew_8h.html#a9f8b8ae577ef938622024545711f0151" target="_top" xlink:title="set_motor_immediate">
<polygon fill="none" stroke="#000000" points="528.1758,-351.5 528.1758,-369.5 640.3281,-369.5 640.3281,-351.5 528.1758,-351.5"/>
<text text-anchor="middle" x="584.252" y="-357.5" font-family="Helvetica,sans-Serif" font-size="10.00" fill="#000000">set_motor_immediate</text>
</a>
</g>
</g>
<!-- Node58&#45;&gt;Node59 -->
<g id="edge22" class="edge">
<title>Node58&#45;&gt;Node59</title>
<path fill="none" stroke="#191970" d="M454.0975,-552.4738C463.698,-541.8283 479.7909,-523.4334 492.1758,-506.5 524.6168,-462.1445 557.8274,-406.4193 574.0589,-378.3729"/>
<polygon fill="#191970" stroke="#191970" points="577.112,-380.0845 579.063,-369.6708 571.0438,-376.5949 577.112,-380.0845"/>
</g>
<!-- Node59&#45;&gt;Node51 -->
<g id="edge33" class="edge">
<title>Node59&#45;&gt;Node51</title>
<path fill="none" stroke="#191970" d="M607.5602,-351.4683C664.8712,-329.2609 812.8027,-271.9389 879.059,-246.2652"/>
<polygon fill="#191970" stroke="#191970" points="880.5339,-249.4474 888.5937,-242.5706 878.0047,-242.9203 880.5339,-249.4474"/>
</g>
<!-- Node59&#45;&gt;Node52 -->
<g id="edge34" class="edge">
<title>Node59&#45;&gt;Node52</title>
<path fill="none" stroke="#191970" d="M640.3375,-360.5904C694.4207,-358.8404 777.5904,-351.2377 843.8252,-323.5 863.649,-315.1982 882.7972,-299.7213 895.7267,-287.8028"/>
<polygon fill="#191970" stroke="#191970" points="898.4574,-290.0345 903.2698,-280.5956 893.6216,-284.9733 898.4574,-290.0345"/>
</g>
<!-- Node59&#45;&gt;Node53 -->
<g id="edge32" class="edge">
<title>Node59&#45;&gt;Node53</title>
<path fill="none" stroke="#191970" d="M598.9095,-369.593C616.5503,-380.0315 647.4171,-396.7125 676.3281,-404.5 743.9458,-422.7134 826.1025,-425.0897 873.3926,-424.6482"/>
<polygon fill="#191970" stroke="#191970" points="873.5532,-428.1464 883.5027,-424.5053 873.4542,-421.1471 873.5532,-428.1464"/>
</g>
<!-- Node60 -->
<g id="node23" class="node">
<title>Node60</title>
<g id="a_node23"><a xlink:href="log_8h.html#af3668f40d1ad1b4f3418869ac9a31f34" target="_top" xlink:title="prints a info message ">
<polygon fill="none" stroke="#000000" points="681.5991,-376.5 681.5991,-394.5 725.4067,-394.5 725.4067,-376.5 681.5991,-376.5"/>
<text text-anchor="middle" x="703.5029" y="-382.5" font-family="Helvetica,sans-Serif" font-size="10.00" fill="#000000">debug</text>
</a>
</g>
</g>
<!-- Node59&#45;&gt;Node60 -->
<g id="edge23" class="edge">
<title>Node59&#45;&gt;Node60</title>
<path fill="none" stroke="#191970" d="M627.3043,-369.5256C641.9774,-372.6017 658.105,-375.9827 671.73,-378.8391"/>
<polygon fill="#191970" stroke="#191970" points="671.0903,-382.281 681.5957,-380.9073 672.5267,-375.4299 671.0903,-382.281"/>
</g>
<!-- Node61 -->
<g id="node24" class="node">
<title>Node61</title>
<g id="a_node24"><a xlink:href="slew_8c.html#a321758941d88b75783955c819bb75005" target="_top" xlink:title="Initializes the slew rate controller. ">
<polygon fill="none" stroke="#000000" points="676.3281,-120.5 676.3281,-138.5 730.6777,-138.5 730.6777,-120.5 676.3281,-120.5"/>
<text text-anchor="middle" x="703.5029" y="-126.5" font-family="Helvetica,sans-Serif" font-size="10.00" fill="#000000">init_slew</text>
</a>
</g>
</g>
<!-- Node59&#45;&gt;Node61 -->
<g id="edge25" class="edge">
<title>Node59&#45;&gt;Node61</title>
<path fill="none" stroke="#191970" d="M588.9267,-351.4445C606.6591,-317.0954 669.9816,-194.434 694.0907,-147.7323"/>
<polygon fill="#191970" stroke="#191970" points="697.2537,-149.2353 698.7309,-138.7439 691.0336,-146.0242 697.2537,-149.2353"/>
</g>
<!-- Node60&#45;&gt;Node43 -->
<g id="edge24" class="edge">
<title>Node60&#45;&gt;Node43</title>
<path fill="none" stroke="#191970" d="M725.5887,-382.5613C772.1247,-375.2556 881.1489,-352.1163 944.1797,-289.5 978.0191,-255.8831 1002.9406,-204.7327 1014.7444,-177.3551"/>
<polygon fill="#191970" stroke="#191970" points="1018.1089,-178.3818 1018.7418,-167.8059 1011.6518,-175.6788 1018.1089,-178.3818"/>
</g>
<!-- Node61&#45;&gt;Node41 -->
<g id="edge26" class="edge">
<title>Node61&#45;&gt;Node41</title>
<path fill="none" stroke="#191970" d="M730.7697,-127.0882C742.6348,-126.0387 756.7011,-124.7944 769.3967,-123.6715"/>
<polygon fill="#191970" stroke="#191970" points="770.0075,-127.1312 779.6602,-122.7636 769.3906,-120.1584 770.0075,-127.1312"/>
</g>
<!-- Node61&#45;&gt;Node46 -->
<g id="edge27" class="edge">
<title>Node61&#45;&gt;Node46</title>
<path fill="none" stroke="#191970" d="M723.6052,-120.4119C738.5165,-113.6705 759.0775,-104.375 775.8352,-96.7989"/>
<polygon fill="#191970" stroke="#191970" points="777.5208,-99.878 785.191,-92.5692 774.6371,-93.4996 777.5208,-99.878"/>
</g>
<!-- Node61&#45;&gt;Node47 -->
<g id="edge28" class="edge">
<title>Node61&#45;&gt;Node47</title>
<path fill="none" stroke="#191970" d="M730.7697,-137.0035C745.7381,-141.1226 764.2098,-146.2058 779.0131,-150.2795"/>
<polygon fill="#191970" stroke="#191970" points="778.471,-153.7604 789.0412,-153.0391 780.3283,-147.0113 778.471,-153.7604"/>
</g>
<!-- Node61&#45;&gt;Node48 -->
<g id="edge29" class="edge">
<title>Node61&#45;&gt;Node48</title>
<path fill="none" stroke="#191970" d="M719.6776,-120.3661C723.6413,-117.578 727.6186,-114.245 730.6777,-110.5 756.115,-79.3595 738.637,-56.3185 766.6777,-27.5 767.8824,-26.2619 769.1887,-25.0999 770.5679,-24.0103"/>
<polygon fill="#191970" stroke="#191970" points="772.5541,-26.8943 779.0667,-18.5374 768.7641,-21.009 772.5541,-26.8943"/>
</g>
<!-- Node61&#45;&gt;Node49 -->
<g id="edge30" class="edge">
<title>Node61&#45;&gt;Node49</title>
<path fill="none" stroke="#191970" d="M718.2192,-120.3889C722.4417,-117.4697 726.9169,-114.0635 730.6777,-110.5 749.5227,-92.6439 746.356,-80.6555 766.6777,-64.5 768.4168,-63.1175 770.2793,-61.8114 772.2124,-60.583"/>
<polygon fill="#191970" stroke="#191970" points="773.9451,-63.6242 780.9746,-55.6973 770.536,-57.5104 773.9451,-63.6242"/>
</g>
<!-- Node61&#45;&gt;Node50 -->
<g id="edge31" class="edge">
<title>Node61&#45;&gt;Node50</title>
<path fill="none" stroke="#191970" d="M712.5324,-138.7293C729.7724,-156.3508 767.5823,-194.9973 789.2168,-217.1105"/>
<polygon fill="#191970" stroke="#191970" points="786.8924,-219.7395 796.3875,-224.4399 791.896,-214.8442 786.8924,-219.7395"/>
</g>
<!-- Node62&#45;&gt;Node39 -->
<g id="edge36" class="edge">
<title>Node62&#45;&gt;Node39</title>
<path fill="none" stroke="#191970" d="M191.7615,-551.5972C209.7234,-562.1912 240.4813,-580.0793 267.4277,-594.5 273.8321,-597.9274 280.7876,-601.4923 287.3652,-604.7934"/>
<polygon fill="#191970" stroke="#191970" points="286.1105,-608.0782 296.6233,-609.3943 289.2258,-601.8096 286.1105,-608.0782"/>
</g>
<!-- Node62&#45;&gt;Node57 -->
<g id="edge37" class="edge">
<title>Node62&#45;&gt;Node57</title>
<path fill="none" stroke="#191970" d="M210.4564,-533.4488C228.882,-528.5438 251.858,-522.4276 271.6147,-517.1683"/>
<polygon fill="#191970" stroke="#191970" points="272.5522,-520.5407 281.3152,-514.586 270.7514,-513.7763 272.5522,-520.5407"/>
</g>
<!-- Node64 -->
<g id="node27" class="node">
<title>Node64</title>
<g id="a_node27"><a xlink:href="partner_8h.html#aacc86d07e59d3b919f5c5eae2ce5d404" target="_top" xlink:title="get_mode">
<polygon fill="none" stroke="#000000" points="285.2085,-235.5 285.2085,-253.5 345.686,-253.5 345.686,-235.5 285.2085,-235.5"/>
<text text-anchor="middle" x="315.4473" y="-241.5" font-family="Helvetica,sans-Serif" font-size="10.00" fill="#000000">get_mode</text>
</a>
</g>
</g>
<!-- Node63&#45;&gt;Node64 -->
<g id="edge39" class="edge">
<title>Node63&#45;&gt;Node64</title>
<path fill="none" stroke="#191970" d="M209.3943,-215.5055C229.1249,-220.8998 254.3513,-227.7966 275.2504,-233.5103"/>
<polygon fill="#191970" stroke="#191970" points="274.5502,-236.9473 285.1193,-236.2084 276.3963,-230.1951 274.5502,-236.9473"/>
</g>
<!-- Node65 -->
<g id="node28" class="node">
<title>Node65</title>
<g id="a_node28"><a xlink:href="_a_p_i_8h.html#ad56fcec15d1a48deb8780bb0fc38be4d" target="_top" xlink:title="joystickGetAnalog">
<polygon fill="none" stroke="#000000" points="267.4277,-121.5 267.4277,-139.5 363.4668,-139.5 363.4668,-121.5 267.4277,-121.5"/>
<text text-anchor="middle" x="315.4473" y="-127.5" font-family="Helvetica,sans-Serif" font-size="10.00" fill="#000000">joystickGetAnalog</text>
</a>
</g>
</g>
<!-- Node63&#45;&gt;Node65 -->
<g id="edge40" class="edge">
<title>Node63&#45;&gt;Node65</title>
<path fill="none" stroke="#191970" d="M191.7615,-197.4028C209.7234,-186.8088 240.4813,-168.9207 267.4277,-154.5 273.8321,-151.0726 280.7876,-147.5077 287.3652,-144.2066"/>
<polygon fill="#191970" stroke="#191970" points="289.2258,-147.1904 296.6233,-139.6057 286.1105,-140.9218 289.2258,-147.1904"/>
</g>
<!-- Node66 -->
<g id="node29" class="node">
<title>Node66</title>
<g id="a_node29"><a xlink:href="drive_8c.html#a8df41fd50094c065eedc81fc5e6595d1" target="_top" xlink:title="sets the speed of one side of the robot. ">
<polygon fill="none" stroke="#000000" points="402.7944,-168.5 402.7944,-186.5 488.8481,-186.5 488.8481,-168.5 402.7944,-168.5"/>
<text text-anchor="middle" x="445.8213" y="-174.5" font-family="Helvetica,sans-Serif" font-size="10.00" fill="#000000">set_side_speed</text>
</a>
</g>
</g>
<!-- Node63&#45;&gt;Node66 -->
<g id="edge41" class="edge">
<title>Node63&#45;&gt;Node66</title>
<path fill="none" stroke="#191970" d="M231.6154,-200.5614C278.6942,-195.4929 345.97,-188.25 392.5099,-183.2395"/>
<polygon fill="#191970" stroke="#191970" points="393.128,-186.6933 402.6958,-182.1429 392.3786,-179.7335 393.128,-186.6933"/>
</g>
<!-- Node67 -->
<g id="node30" class="node">
<title>Node67</title>
<g id="a_node30"><a xlink:href="slew_8h.html#a7dff2b79dffe55fb936d977594d7c01d" target="_top" xlink:title="Sets motor speed wrapped inside the slew rate controller. ">
<polygon fill="none" stroke="#000000" points="541.2373,-186.5 541.2373,-204.5 627.2666,-204.5 627.2666,-186.5 541.2373,-186.5"/>
<text text-anchor="middle" x="584.252" y="-192.5" font-family="Helvetica,sans-Serif" font-size="10.00" fill="#000000">set_motor_slew</text>
</a>
</g>
</g>
<!-- Node66&#45;&gt;Node67 -->
<g id="edge42" class="edge">
<title>Node66&#45;&gt;Node67</title>
<path fill="none" stroke="#191970" d="M488.8628,-183.0966C502.2748,-184.8406 517.2245,-186.7845 531.2359,-188.6064"/>
<polygon fill="#191970" stroke="#191970" points="530.8692,-192.0881 541.2371,-189.9068 531.7719,-185.1465 530.8692,-192.0881"/>
</g>
<!-- Node67&#45;&gt;Node51 -->
<g id="edge45" class="edge">
<title>Node67&#45;&gt;Node51</title>
<path fill="none" stroke="#191970" d="M627.2877,-196.0409C679.0412,-197.2903 768.3717,-201.3592 843.8252,-214.5 853.9935,-216.2709 864.8293,-218.9253 874.7996,-221.6927"/>
<polygon fill="#191970" stroke="#191970" points="873.8465,-225.0604 884.4248,-224.4693 875.7867,-218.3347 873.8465,-225.0604"/>
</g>
<!-- Node67&#45;&gt;Node52 -->
<g id="edge46" class="edge">
<title>Node67&#45;&gt;Node52</title>
<path fill="none" stroke="#191970" d="M609.2884,-204.5954C644.1299,-216.9268 709.4171,-238.8574 766.6777,-251.5 801.0084,-259.0799 840.5721,-264.3006 869.7422,-267.5024"/>
<polygon fill="#191970" stroke="#191970" points="869.676,-271.015 879.9899,-268.5913 870.4157,-264.0542 869.676,-271.015"/>
</g>
<!-- Node67&#45;&gt;Node60 -->
<g id="edge43" class="edge">
<title>Node67&#45;&gt;Node60</title>
<path fill="none" stroke="#191970" d="M590.0037,-204.6641C608.6181,-234.322 667.4476,-328.0538 692.2747,-367.6103"/>
<polygon fill="#191970" stroke="#191970" points="689.5284,-369.8185 697.8089,-376.4279 695.4573,-366.0973 689.5284,-369.8185"/>
</g>
<!-- Node67&#45;&gt;Node61 -->
<g id="edge44" class="edge">
<title>Node67&#45;&gt;Node61</title>
<path fill="none" stroke="#191970" d="M600.8333,-186.323C620.8576,-175.2404 654.7507,-156.4821 678.0835,-143.5685"/>
<polygon fill="#191970" stroke="#191970" points="680.0079,-146.5038 687.0624,-138.5991 676.6182,-140.3792 680.0079,-146.5038"/>
</g>
<!-- Node68&#45;&gt;Node57 -->
<g id="edge51" class="edge">
<title>Node68&#45;&gt;Node57</title>
<path fill="none" stroke="#191970" d="M185.747,-421.9829C201.377,-437.4894 234.4643,-468.4489 267.4277,-487.5 270.4882,-489.2688 273.7544,-490.9219 277.0889,-492.4526"/>
<polygon fill="#191970" stroke="#191970" points="275.9783,-495.7826 286.5529,-496.4371 278.6945,-489.331 275.9783,-495.7826"/>
</g>
<!-- Node68&#45;&gt;Node64 -->
<g id="edge48" class="edge">
<title>Node68&#45;&gt;Node64</title>
<path fill="none" stroke="#191970" d="M181.703,-403.4839C200.124,-371.8846 261.0674,-267.7722 267.4277,-262.5 269.9982,-260.3693 272.8459,-258.4766 275.8346,-256.7979"/>
<polygon fill="#191970" stroke="#191970" points="277.5713,-259.8472 285.087,-252.3797 274.5549,-253.5305 277.5713,-259.8472"/>
</g>
<!-- Node69 -->
<g id="node32" class="node">
<title>Node69</title>
<g id="a_node32"><a xlink:href="lifter_8c.html#acdf909159b0406c48099843f2306be78" target="_top" xlink:title="getLifterTicks">
<polygon fill="none" stroke="#000000" points="277.8989,-459.5 277.8989,-477.5 352.9956,-477.5 352.9956,-459.5 277.8989,-459.5"/>
<text text-anchor="middle" x="315.4473" y="-465.5" font-family="Helvetica,sans-Serif" font-size="10.00" fill="#000000">getLifterTicks</text>
</a>
</g>
</g>
<!-- Node68&#45;&gt;Node69 -->
<g id="edge49" class="edge">
<title>Node68&#45;&gt;Node69</title>
<path fill="none" stroke="#191970" d="M197.6862,-421.6302C216.0655,-429.4711 243.3986,-440.9816 267.4277,-450.5 271.7346,-452.206 276.2744,-453.9621 280.7745,-455.6775"/>
<polygon fill="#191970" stroke="#191970" points="279.8652,-459.0752 290.4569,-459.3323 282.3373,-452.5263 279.8652,-459.0752"/>
</g>
<!-- Node70 -->
<g id="node33" class="node">
<title>Node70</title>
<g id="a_node33"><a xlink:href="lifter_8c.html#aa7d2d04059f57cc5b8582f6fd0726dc1" target="_top" xlink:title="lower_lifter">
<polygon fill="none" stroke="#000000" points="283.2725,-346.5 283.2725,-364.5 347.6221,-364.5 347.6221,-346.5 283.2725,-346.5"/>
<text text-anchor="middle" x="315.4473" y="-352.5" font-family="Helvetica,sans-Serif" font-size="10.00" fill="#000000">lower_lifter</text>
</a>
</g>
</g>
<!-- Node68&#45;&gt;Node70 -->
<g id="edge52" class="edge">
<title>Node68&#45;&gt;Node70</title>
<path fill="none" stroke="#191970" d="M198.4788,-403.4682C221.4208,-394.0598 257.5841,-379.2294 283.6286,-368.5487"/>
<polygon fill="#191970" stroke="#191970" points="285.1421,-371.7109 293.0663,-364.6783 282.4861,-365.2344 285.1421,-371.7109"/>
</g>
<!-- Node71 -->
<g id="node34" class="node">
<title>Node71</title>
<g id="a_node34"><a xlink:href="lifter_8c.html#a2cfc188f60f945c824dd7fe7b0b5f4e4" target="_top" xlink:title="set_lifter_motors">
<polygon fill="none" stroke="#000000" points="400.8633,-365.5 400.8633,-383.5 490.7793,-383.5 490.7793,-365.5 400.8633,-365.5"/>
<text text-anchor="middle" x="445.8213" y="-371.5" font-family="Helvetica,sans-Serif" font-size="10.00" fill="#000000">set_lifter_motors</text>
</a>
</g>
</g>
<!-- Node68&#45;&gt;Node71 -->
<g id="edge57" class="edge">
<title>Node68&#45;&gt;Node71</title>
<path fill="none" stroke="#191970" d="M212.2248,-407.4539C257.8021,-401.0242 337.0601,-389.8431 390.4643,-382.3093"/>
<polygon fill="#191970" stroke="#191970" points="391.0388,-385.763 400.4518,-380.9004 390.0609,-378.8317 391.0388,-385.763"/>
</g>
<!-- Node72 -->
<g id="node35" class="node">
<title>Node72</title>
<g id="a_node35"><a xlink:href="lifter_8c.html#a7452163ed7946b6262f41de51c62dfd4" target="_top" xlink:title="raise_lifter">
<polygon fill="none" stroke="#000000" points="284.3833,-422.5 284.3833,-440.5 346.5112,-440.5 346.5112,-422.5 284.3833,-422.5"/>
<text text-anchor="middle" x="315.4473" y="-428.5" font-family="Helvetica,sans-Serif" font-size="10.00" fill="#000000">raise_lifter</text>
</a>
</g>
</g>
<!-- Node68&#45;&gt;Node72 -->
<g id="edge55" class="edge">
<title>Node68&#45;&gt;Node72</title>
<path fill="none" stroke="#191970" d="M212.249,-417.393C231.1536,-419.9772 254.4483,-423.1615 274.1189,-425.8505"/>
<polygon fill="#191970" stroke="#191970" points="273.6507,-429.3189 284.0326,-427.2057 274.5988,-422.3834 273.6507,-429.3189"/>
</g>
<!-- Node69&#45;&gt;Node56 -->
<g id="edge50" class="edge">
<title>Node69&#45;&gt;Node56</title>
<path fill="none" stroke="#191970" d="M353.1568,-473.9956C367.8216,-476.1328 384.7573,-478.6009 400.1069,-480.8378"/>
<polygon fill="#191970" stroke="#191970" points="400.0325,-484.3639 410.4327,-482.3427 401.042,-477.4371 400.0325,-484.3639"/>
</g>
<!-- Node70&#45;&gt;Node71 -->
<g id="edge53" class="edge">
<title>Node70&#45;&gt;Node71</title>
<path fill="none" stroke="#191970" d="M347.6746,-360.1966C360.6631,-362.0895 376.0208,-364.3277 390.6834,-366.4645"/>
<polygon fill="#191970" stroke="#191970" points="390.2855,-369.9434 400.6858,-367.9222 391.2951,-363.0166 390.2855,-369.9434"/>
</g>
<!-- Node71&#45;&gt;Node59 -->
<g id="edge54" class="edge">
<title>Node71&#45;&gt;Node59</title>
<path fill="none" stroke="#191970" d="M491.1487,-369.9159C499.6277,-369.0584 508.6519,-368.1457 517.6183,-367.2389"/>
<polygon fill="#191970" stroke="#191970" points="518.0878,-370.7094 527.6848,-366.2208 517.3834,-363.7449 518.0878,-370.7094"/>
</g>
<!-- Node72&#45;&gt;Node71 -->
<g id="edge56" class="edge">
<title>Node72&#45;&gt;Node71</title>
<path fill="none" stroke="#191970" d="M336.1054,-422.4682C357.5301,-413.1012 391.2473,-398.36 415.6521,-387.6901"/>
<polygon fill="#191970" stroke="#191970" points="417.0676,-390.8912 424.8281,-383.6783 414.2634,-384.4774 417.0676,-390.8912"/>
</g>
<!-- Node73&#45;&gt;Node57 -->
<g id="edge59" class="edge">
<title>Node73&#45;&gt;Node57</title>
<path fill="none" stroke="#191970" d="M182.4123,-308.6771C193.0776,-325.3355 215.779,-361.8514 231.4277,-394.5 250.5848,-434.4681 235.9201,-456.3276 267.4277,-487.5 268.6896,-488.7484 270.0462,-489.9116 271.475,-490.9952"/>
<polygon fill="#191970" stroke="#191970" points="269.9329,-494.1541 280.2932,-496.3709 273.5766,-488.1772 269.9329,-494.1541"/>
</g>
<!-- Node73&#45;&gt;Node64 -->
<g id="edge60" class="edge">
<title>Node73&#45;&gt;Node64</title>
<path fill="none" stroke="#191970" d="M198.4464,-290.3571C216.8291,-282.7624 243.7648,-271.745 267.4277,-262.5 271.9576,-260.7302 276.7407,-258.8961 281.4627,-257.1058"/>
<polygon fill="#191970" stroke="#191970" points="282.8432,-260.3259 290.9687,-253.5269 280.3767,-253.7748 282.8432,-260.3259"/>
</g>
<!-- Node74 -->
<g id="node37" class="node">
<title>Node74</title>
<g id="a_node37"><a xlink:href="mobile__goal__intake_8c.html#a4899f9a8621015313e6312ce085da979" target="_top" xlink:title="raise_intake">
<polygon fill="none" stroke="#000000" points="280.4868,-309.5 280.4868,-327.5 350.4077,-327.5 350.4077,-309.5 280.4868,-309.5"/>
<text text-anchor="middle" x="315.4473" y="-315.5" font-family="Helvetica,sans-Serif" font-size="10.00" fill="#000000">raise_intake</text>
</a>
</g>
</g>
<!-- Node73&#45;&gt;Node74 -->
<g id="edge61" class="edge">
<title>Node73&#45;&gt;Node74</title>
<path fill="none" stroke="#191970" d="M213.7024,-304.5917C230.9911,-306.955 251.7011,-309.786 269.9105,-312.2752"/>
<polygon fill="#191970" stroke="#191970" points="269.6321,-315.7696 280.014,-313.6563 270.5802,-308.8341 269.6321,-315.7696"/>
</g>
<!-- Node75 -->
<g id="node38" class="node">
<title>Node75</title>
<g id="a_node38"><a xlink:href="mobile__goal__intake_8c.html#a8f215023832ba515d7b4535e3ae07498" target="_top" xlink:title="set_intake_motor">
<polygon fill="none" stroke="#000000" points="399.4668,-291.5 399.4668,-309.5 492.1758,-309.5 492.1758,-291.5 399.4668,-291.5"/>
<text text-anchor="middle" x="445.8213" y="-297.5" font-family="Helvetica,sans-Serif" font-size="10.00" fill="#000000">set_intake_motor</text>
</a>
</g>
</g>
<!-- Node73&#45;&gt;Node75 -->
<g id="edge66" class="edge">
<title>Node73&#45;&gt;Node75</title>
<path fill="none" stroke="#191970" d="M183.7633,-290.3917C197.839,-273.6695 230.5946,-238.5889 267.4277,-225.5 307.6478,-211.2076 323.6612,-210.0908 363.4668,-225.5 393.223,-237.019 418.8334,-264.8458 433.2808,-283.1734"/>
<polygon fill="#191970" stroke="#191970" points="430.6115,-285.4458 439.4457,-291.2945 436.187,-281.2132 430.6115,-285.4458"/>
</g>
<!-- Node76 -->
<g id="node39" class="node">
<title>Node76</title>
<g id="a_node39"><a xlink:href="mobile__goal__intake_8c.html#afa91470a9891e48827fd62d18553c6ce" target="_top" xlink:title="lower_intake">
<polygon fill="none" stroke="#000000" points="279.376,-272.5 279.376,-290.5 351.5186,-290.5 351.5186,-272.5 279.376,-272.5"/>
<text text-anchor="middle" x="315.4473" y="-278.5" font-family="Helvetica,sans-Serif" font-size="10.00" fill="#000000">lower_intake</text>
</a>
</g>
</g>
<!-- Node73&#45;&gt;Node76 -->
<g id="edge64" class="edge">
<title>Node73&#45;&gt;Node76</title>
<path fill="none" stroke="#191970" d="M213.7024,-294.6763C230.721,-292.4724 251.0548,-289.8391 269.0551,-287.508"/>
<polygon fill="#191970" stroke="#191970" points="269.5916,-290.9678 279.0592,-286.2124 268.6925,-284.0258 269.5916,-290.9678"/>
</g>
<!-- Node74&#45;&gt;Node75 -->
<g id="edge62" class="edge">
<title>Node74&#45;&gt;Node75</title>
<path fill="none" stroke="#191970" d="M350.7284,-313.6289C362.5103,-312.0023 375.9562,-310.1459 388.9536,-308.3514"/>
<polygon fill="#191970" stroke="#191970" points="389.8135,-311.766 399.2408,-306.9311 388.856,-304.8317 389.8135,-311.766"/>
</g>
<!-- Node75&#45;&gt;Node59 -->
<g id="edge63" class="edge">
<title>Node75&#45;&gt;Node59</title>
<path fill="none" stroke="#191970" d="M466.8459,-309.6127C490.0514,-319.6706 527.6036,-335.9469 553.9761,-347.3775"/>
<polygon fill="#191970" stroke="#191970" points="552.9159,-350.7326 563.483,-351.4981 555.6997,-344.3099 552.9159,-350.7326"/>
</g>
<!-- Node76&#45;&gt;Node75 -->
<g id="edge65" class="edge">
<title>Node76&#45;&gt;Node75</title>
<path fill="none" stroke="#191970" d="M351.7637,-286.7926C363.4163,-288.4907 376.6112,-290.4137 389.3536,-292.2707"/>
<polygon fill="#191970" stroke="#191970" points="389.0373,-295.7615 399.4375,-293.7403 390.0468,-288.8347 389.0373,-295.7615"/>
</g>
</g>
</svg>
        <g id="navigator" transform="translate(0 0)" fill="#404254">
                <rect fill="#f2f5e9" fill-opacity="0.5" stroke="#606060" stroke-width=".5" x="0" y="0" width="60" height="60"/>
                <use id="zoomplus" xlink:href="#zoomPlus" x="17" y="9" onmousedown="handleZoom(evt,'in')"/>
                <use id="zoomminus" xlink:href="#zoomMin" x="42" y="9" onmousedown="handleZoom(evt,'out')"/>
                <use id="reset" xlink:href="#resetDef" x="30" y="36" onmousedown="handleReset()"/>
                <g id="arrowUp" xlink:href="#dirArrow" transform="translate(30 24)" onmousedown="handlePan(0,-1)">
                  <use xlink:href="#rim" fill="#404040">
                        <set attributeName="fill" to="#808080" begin="arrowUp.mouseover" end="arrowUp.mouseout"/>
                  </use>
                  <path fill="none" stroke="white" stroke-width="1.5" d="M0,-3.0v7 M-2.5,-0.5L0,-3.0L2.5,-0.5"/>
                </g>
                <g id="arrowRight" xlink:href="#dirArrow" transform="rotate(90) translate(36 -43)" onmousedown="handlePan(1,0)">
                  <use xlink:href="#rim" fill="#404040">
                        <set attributeName="fill" to="#808080" begin="arrowRight.mouseover" end="arrowRight.mouseout"/>
                  </use>
                  <path fill="none" stroke="white" stroke-width="1.5" d="M0,-3.0v7 M-2.5,-0.5L0,-3.0L2.5,-0.5"/>
                </g>
                <g id="arrowDown" xlink:href="#dirArrow" transform="rotate(180) translate(-30 -48)" onmousedown="handlePan(0,1)">
                  <use xlink:href="#rim" fill="#404040">
                        <set attributeName="fill" to="#808080" begin="arrowDown.mouseover" end="arrowDown.mouseout"/>
                  </use>
                  <path fill="none" stroke="white" stroke-width="1.5" d="M0,-3.0v7 M-2.5,-0.5L0,-3.0L2.5,-0.5"/>
                </g>
                <g id="arrowLeft" xlink:href="#dirArrow" transform="rotate(270) translate(-36 17)" onmousedown="handlePan(-1,0)">
                  <use xlink:href="#rim" fill="#404040">
                        <set attributeName="fill" to="#808080" begin="arrowLeft.mouseover" end="arrowLeft.mouseout"/>
                  </use>
                  <path fill="none" stroke="white" stroke-width="1.5" d="M0,-3.0v7 M-2.5,-0.5L0,-3.0L2.5,-0.5"/>
                </g>
        </g>
        <svg viewBox="0 0 15 15" width="100%" height="30px" preserveAspectRatio="xMaxYMin meet">
         <g id="arrow_out" transform="scale(0.3 0.3)">
          <a xlink:href="main_8h_ac71a94af413917f27d108e95c4d6f6a7_cgraph_org.svg" target="_base">
           <rect id="button" ry="5" rx="5" y="6" x="6" height="38" width="38"
                fill="#f2f5e9" fill-opacity="0.5" stroke="#606060" stroke-width="1.0"/>
           <path id="arrow"
             d="M 11.500037,31.436501 C 11.940474,20.09759 22.043105,11.32322 32.158766,21.979434 L 37.068811,17.246167 C 37.068811,17.246167 37.088388,32 37.088388,32 L 22.160133,31.978069 C 22.160133,31.978069 26.997745,27.140456 26.997745,27.140456 C 18.528582,18.264221 13.291696,25.230495 11.500037,31.436501 z"
             style="fill:#404040;"/>
          </a>
         </g>
        </svg>
</svg>
