<?xml version="1.0" encoding="UTF-8" standalone="no"?>
<!DOCTYPE svg PUBLIC "-//W3C//DTD SVG 1.1//EN"
 "http://www.w3.org/Graphics/SVG/1.1/DTD/svg11.dtd">
<!-- Generated by graphviz version 2.40.1 (20161225.0304)
 -->
<!-- Title: operatorControl Pages: 1 -->
<svg width="542pt" height="463pt"
 viewBox="0.00 0.00 542.41 463.00" xmlns="http://www.w3.org/2000/svg" xmlns:xlink="http://www.w3.org/1999/xlink">
<g id="graph0" class="graph" transform="scale(1 1) rotate(0) translate(4 459)">
<title>operatorControl</title>
<!-- Node72 -->
<g id="node1" class="node">
<title>Node72</title>
<polygon fill="#bfbfbf" stroke="#000000" points="0,-185.5 0,-203.5 85.4824,-203.5 85.4824,-185.5 0,-185.5"/>
<text text-anchor="middle" x="42.7412" y="-191.5" font-family="Helvetica,sans-Serif" font-size="10.00" fill="#000000">operatorControl</text>
</g>
<!-- Node73 -->
<g id="node2" class="node">
<title>Node73</title>
<g id="a_node2"><a xlink:href="lifter_8h.html#a8a64fa88b389b39c236c5c57a7fb5c67" target="_top" xlink:title="Autostacks a cone once picked up. ">
<polygon fill="none" stroke="#ff0000" points="128.9849,-296.5 128.9849,-314.5 223.9253,-314.5 223.9253,-296.5 128.9849,-296.5"/>
<text text-anchor="middle" x="176.4551" y="-302.5" font-family="Helvetica,sans-Serif" font-size="10.00" fill="#000000">autostack_routine</text>
</a>
</g>
</g>
<!-- Node72&#45;&gt;Node73 -->
<g id="edge1" class="edge">
<title>Node72&#45;&gt;Node73</title>
<path fill="none" stroke="#191970" d="M48.0207,-203.6162C59.2002,-222.1335 87.0811,-264.35 121.4824,-287.5 124.1902,-289.3222 127.0965,-290.9718 130.1072,-292.4633"/>
<polygon fill="#191970" stroke="#191970" points="128.7917,-295.7078 139.3585,-296.478 131.5784,-289.2863 128.7917,-295.7078"/>
</g>
<!-- Node75 -->
<g id="node4" class="node">
<title>Node75</title>
<g id="a_node4"><a xlink:href="_a_p_i_8h.html#a1c59207742a1acf45a8957d7f04f9dfe" target="_top" xlink:title="Wiring&#45;compatible alias of taskDelay(). ">
<polygon fill="none" stroke="#000000" points="304.3882,-362.5 304.3882,-380.5 344.2944,-380.5 344.2944,-362.5 304.3882,-362.5"/>
<text text-anchor="middle" x="324.3413" y="-368.5" font-family="Helvetica,sans-Serif" font-size="10.00" fill="#000000">delay</text>
</a>
</g>
</g>
<!-- Node72&#45;&gt;Node75 -->
<g id="edge16" class="edge">
<title>Node72&#45;&gt;Node75</title>
<path fill="none" stroke="#191970" d="M45.5414,-203.7908C53.3006,-227.8655 77.4628,-292.6109 121.4824,-324.5 173.5961,-362.2526 251.3166,-370.2279 293.8373,-371.5832"/>
<polygon fill="#191970" stroke="#191970" points="294.0288,-375.088 304.1011,-371.802 294.178,-368.0896 294.0288,-375.088"/>
</g>
<!-- Node100 -->
<g id="node12" class="node">
<title>Node100</title>
<g id="a_node12"><a xlink:href="toggle_8h.html#a2b3d226371575c894979ab84bce95626" target="_top" xlink:title="Initializes the buttons. ">
<polygon fill="none" stroke="#000000" points="147.8838,-222.5 147.8838,-240.5 205.0264,-240.5 205.0264,-222.5 147.8838,-222.5"/>
<text text-anchor="middle" x="176.4551" y="-228.5" font-family="Helvetica,sans-Serif" font-size="10.00" fill="#000000">buttonInit</text>
</a>
</g>
</g>
<!-- Node72&#45;&gt;Node100 -->
<g id="edge15" class="edge">
<title>Node72&#45;&gt;Node100</title>
<path fill="none" stroke="#191970" d="M75.4513,-203.5512C94.3678,-208.7856 118.2696,-215.3995 138.0726,-220.8792"/>
<polygon fill="#191970" stroke="#191970" points="137.1437,-224.2536 147.7149,-223.5473 139.0105,-217.5071 137.1437,-224.2536"/>
</g>
<!-- Node101 -->
<g id="node13" class="node">
<title>Node101</title>
<g id="a_node13"><a xlink:href="routines_8h.html#ab873e24fcc59a2bf7844618b664a5d26" target="_top" xlink:title="Starts the routine system. ">
<polygon fill="none" stroke="#ff0000" points="143.9946,-185.5 143.9946,-203.5 208.9155,-203.5 208.9155,-185.5 143.9946,-185.5"/>
<text text-anchor="middle" x="176.4551" y="-191.5" font-family="Helvetica,sans-Serif" font-size="10.00" fill="#000000">init_routine</text>
</a>
</g>
</g>
<!-- Node72&#45;&gt;Node101 -->
<g id="edge17" class="edge">
<title>Node72&#45;&gt;Node101</title>
<path fill="none" stroke="#191970" d="M85.7851,-194.5C101.0447,-194.5 118.208,-194.5 133.4632,-194.5"/>
<polygon fill="#191970" stroke="#191970" points="133.6728,-198.0001 143.6728,-194.5 133.6727,-191.0001 133.6728,-198.0001"/>
</g>
<!-- Node114 -->
<g id="node14" class="node">
<title>Node114</title>
<g id="a_node14"><a xlink:href="slew_8h.html#a321758941d88b75783955c819bb75005" target="_top" xlink:title="Initializes the slew rate controller. ">
<polygon fill="none" stroke="#ff0000" points="149.2803,-148.5 149.2803,-166.5 203.6299,-166.5 203.6299,-148.5 149.2803,-148.5"/>
<text text-anchor="middle" x="176.4551" y="-154.5" font-family="Helvetica,sans-Serif" font-size="10.00" fill="#000000">init_slew</text>
</a>
</g>
</g>
<!-- Node72&#45;&gt;Node114 -->
<g id="edge18" class="edge">
<title>Node72&#45;&gt;Node114</title>
<path fill="none" stroke="#191970" d="M75.4513,-185.4488C94.7646,-180.1046 119.2746,-173.3224 139.3134,-167.7775"/>
<polygon fill="#191970" stroke="#191970" points="140.3362,-171.1261 149.0406,-165.0859 138.4693,-164.3796 140.3362,-171.1261"/>
</g>
<!-- Node115 -->
<g id="node15" class="node">
<title>Node115</title>
<g id="a_node15"><a xlink:href="lifter_8h.html#a3738d33dc870f98243a93bddd855b43e" target="_top" xlink:title="Stpos an autostack in case of an error. ">
<polygon fill="none" stroke="#000000" points="123.1499,-259.5 123.1499,-277.5 229.7603,-277.5 229.7603,-259.5 123.1499,-259.5"/>
<text text-anchor="middle" x="176.4551" y="-265.5" font-family="Helvetica,sans-Serif" font-size="10.00" fill="#000000">interrupt_auto_stack</text>
</a>
</g>
</g>
<!-- Node72&#45;&gt;Node115 -->
<g id="edge19" class="edge">
<title>Node72&#45;&gt;Node115</title>
<path fill="none" stroke="#191970" d="M53.5928,-203.5553C68.2331,-215.4149 95.4818,-236.2519 121.4824,-249.5 126.033,-251.8187 130.9313,-253.9628 135.8623,-255.9108"/>
<polygon fill="#191970" stroke="#191970" points="134.7091,-259.216 145.3022,-259.4097 137.1419,-252.6524 134.7091,-259.216"/>
</g>
<!-- Node116 -->
<g id="node16" class="node">
<title>Node116</title>
<g id="a_node16"><a xlink:href="routines_8h.html#a9486ebd51b8c3d966619cf4617e6a930" target="_top" xlink:title="Registers a routine for the system to use. ">
<polygon fill="none" stroke="#ff0000" points="133.7139,-111.5 133.7139,-129.5 219.1963,-129.5 219.1963,-111.5 133.7139,-111.5"/>
<text text-anchor="middle" x="176.4551" y="-117.5" font-family="Helvetica,sans-Serif" font-size="10.00" fill="#000000">register_routine</text>
</a>
</g>
</g>
<!-- Node72&#45;&gt;Node116 -->
<g id="edge21" class="edge">
<title>Node72&#45;&gt;Node116</title>
<path fill="none" stroke="#191970" d="M53.2817,-185.4083C67.7909,-173.2814 95.124,-151.8003 121.4824,-138.5 125.3153,-136.566 129.401,-134.7759 133.5482,-133.1357"/>
<polygon fill="#191970" stroke="#191970" points="135.0608,-136.3092 143.2468,-129.5832 132.6531,-129.7362 135.0608,-136.3092"/>
</g>
<!-- Node119 -->
<g id="node17" class="node">
<title>Node119</title>
<g id="a_node17"><a xlink:href="claw_8h.html#a0122b78972344264b8a276a559cfce4a" target="_top" xlink:title="Updates the claw motor values. ">
<polygon fill="none" stroke="#ff0000" points="140.3789,-74.5 140.3789,-92.5 212.5313,-92.5 212.5313,-74.5 140.3789,-74.5"/>
<text text-anchor="middle" x="176.4551" y="-80.5" font-family="Helvetica,sans-Serif" font-size="10.00" fill="#000000">update_claw</text>
</a>
</g>
</g>
<!-- Node72&#45;&gt;Node119 -->
<g id="edge22" class="edge">
<title>Node72&#45;&gt;Node119</title>
<path fill="none" stroke="#191970" d="M48.0207,-185.3838C59.2002,-166.8665 87.0811,-124.65 121.4824,-101.5 124.4037,-99.5342 127.556,-97.7691 130.8212,-96.1868"/>
<polygon fill="#191970" stroke="#191970" points="132.3863,-99.3248 140.2243,-92.1962 129.6516,-92.8811 132.3863,-99.3248"/>
</g>
<!-- Node121 -->
<g id="node18" class="node">
<title>Node121</title>
<g id="a_node18"><a xlink:href="drive_8h.html#a8224a4626a934d30ed587671b7004bf8" target="_top" xlink:title="Updates the drive motors during teleop. ">
<polygon fill="none" stroke="#ff0000" points="121.4824,-37.5 121.4824,-55.5 231.4277,-55.5 231.4277,-37.5 121.4824,-37.5"/>
<text text-anchor="middle" x="176.4551" y="-43.5" font-family="Helvetica,sans-Serif" font-size="10.00" fill="#000000">update_drive_motors</text>
</a>
</g>
</g>
<!-- Node72&#45;&gt;Node121 -->
<g id="edge23" class="edge">
<title>Node72&#45;&gt;Node121</title>
<path fill="none" stroke="#191970" d="M45.7083,-185.4292C53.8702,-161.8851 78.9209,-98.3107 121.4824,-64.5 123.5121,-62.8876 125.6914,-61.4174 127.9695,-60.077"/>
<polygon fill="#191970" stroke="#191970" points="129.7377,-63.1068 137.1382,-55.5251 126.6249,-56.837 129.7377,-63.1068"/>
</g>
<!-- Node124 -->
<g id="node19" class="node">
<title>Node124</title>
<g id="a_node19"><a xlink:href="mobile__goal__intake_8h.html#a5d7bad8a208988af743fd2e68f111286" target="_top" xlink:title="updates the mobile goal intake in teleop. ">
<polygon fill="none" stroke="#ff0000" points="137.0391,-.5 137.0391,-18.5 215.8711,-18.5 215.8711,-.5 137.0391,-.5"/>
<text text-anchor="middle" x="176.4551" y="-6.5" font-family="Helvetica,sans-Serif" font-size="10.00" fill="#000000">update_intake</text>
</a>
</g>
</g>
<!-- Node72&#45;&gt;Node124 -->
<g id="edge24" class="edge">
<title>Node72&#45;&gt;Node124</title>
<path fill="none" stroke="#191970" d="M44.4054,-185.3819C49.9718,-157.4882 70.5424,-72.4778 121.4824,-27.5 123.4256,-25.7843 125.5358,-24.2315 127.7595,-22.8264"/>
<polygon fill="#191970" stroke="#191970" points="129.5473,-25.8412 136.7868,-18.1055 126.3034,-19.6382 129.5473,-25.8412"/>
</g>
<!-- Node128 -->
<g id="node20" class="node">
<title>Node128</title>
<g id="a_node20"><a xlink:href="lifter_8h.html#a59bb7413777ca16aba124aaedf95c79b" target="_top" xlink:title="Updates the lifter in teleop. ">
<polygon fill="none" stroke="#ff0000" points="140.9355,-399.5 140.9355,-417.5 211.9746,-417.5 211.9746,-399.5 140.9355,-399.5"/>
<text text-anchor="middle" x="176.4551" y="-405.5" font-family="Helvetica,sans-Serif" font-size="10.00" fill="#000000">update_lifter</text>
</a>
</g>
</g>
<!-- Node72&#45;&gt;Node128 -->
<g id="edge25" class="edge">
<title>Node72&#45;&gt;Node128</title>
<path fill="none" stroke="#191970" d="M45.1767,-203.556C52.7889,-230.6173 78.2419,-312.3508 121.4824,-366.5 130.031,-377.2052 141.875,-386.7087 152.3808,-393.9562"/>
<polygon fill="#191970" stroke="#191970" points="150.5118,-396.9161 160.7892,-399.4903 154.3603,-391.0689 150.5118,-396.9161"/>
</g>
<!-- Node74 -->
<g id="node3" class="node">
<title>Node74</title>
<g id="a_node3"><a xlink:href="_a_p_i_8h.html#a5da86064604c539c2b6a5e2993289108" target="_top" xlink:title="Reads an analog input channel and returns the 12&#45;bit value. ">
<polygon fill="none" stroke="#000000" points="289.3735,-399.5 289.3735,-417.5 359.3091,-417.5 359.3091,-399.5 289.3735,-399.5"/>
<text text-anchor="middle" x="324.3413" y="-405.5" font-family="Helvetica,sans-Serif" font-size="10.00" fill="#000000">analogRead</text>
</a>
</g>
</g>
<!-- Node73&#45;&gt;Node74 -->
<g id="edge2" class="edge">
<title>Node73&#45;&gt;Node74</title>
<path fill="none" stroke="#191970" d="M183.728,-314.5853C197.994,-331.8278 231.4105,-369.4504 267.4277,-390.5 271.3072,-392.7673 275.5052,-394.7829 279.8026,-396.5671"/>
<polygon fill="#191970" stroke="#191970" points="278.6913,-399.8881 289.2838,-400.111 281.1422,-393.3312 278.6913,-399.8881"/>
</g>
<!-- Node73&#45;&gt;Node75 -->
<g id="edge3" class="edge">
<title>Node73&#45;&gt;Node75</title>
<path fill="none" stroke="#191970" d="M191.5014,-314.5148C209.2191,-324.874 239.7478,-341.9303 267.4277,-353.5 276.1116,-357.1297 285.7971,-360.4495 294.6806,-363.2224"/>
<polygon fill="#191970" stroke="#191970" points="293.689,-366.579 304.2734,-366.1081 295.7055,-359.8757 293.689,-366.579"/>
</g>
<!-- Node76 -->
<g id="node5" class="node">
<title>Node76</title>
<g id="a_node5"><a xlink:href="log_8h.html#a1606d750e1bb8de9f9e917172bba3382" target="_top" xlink:title="prints a info message ">
<polygon fill="none" stroke="#ff0000" points="308.2798,-135.5 308.2798,-153.5 340.4028,-153.5 340.4028,-135.5 308.2798,-135.5"/>
<text text-anchor="middle" x="324.3413" y="-141.5" font-family="Helvetica,sans-Serif" font-size="10.00" fill="#000000">info</text>
</a>
</g>
</g>
<!-- Node73&#45;&gt;Node76 -->
<g id="edge4" class="edge">
<title>Node73&#45;&gt;Node76</title>
<path fill="none" stroke="#191970" d="M218.8642,-296.404C223.5119,-294.0799 227.8475,-291.1624 231.4277,-287.5 270.0544,-247.9878 230.4661,-209.5739 267.4277,-168.5 275.4728,-159.5599 287.3926,-153.8467 298.2479,-150.2489"/>
<polygon fill="#191970" stroke="#191970" points="299.5163,-153.5266 308.1681,-147.4114 297.5912,-146.7965 299.5163,-153.5266"/>
</g>
<!-- Node78 -->
<g id="node6" class="node">
<title>Node78</title>
<g id="a_node6"><a xlink:href="_a_p_i_8h.html#a403c82418e475fa4a8273719e6a7f3e6" target="_top" xlink:title="Prints the formatted string to the debug stream (the PC terminal). ">
<polygon fill="none" stroke="#000000" points="305.2256,-436.5 305.2256,-454.5 343.457,-454.5 343.457,-436.5 305.2256,-436.5"/>
<text text-anchor="middle" x="324.3413" y="-442.5" font-family="Helvetica,sans-Serif" font-size="10.00" fill="#000000">printf</text>
</a>
</g>
</g>
<!-- Node73&#45;&gt;Node78 -->
<g id="edge5" class="edge">
<title>Node73&#45;&gt;Node78</title>
<path fill="none" stroke="#191970" d="M182.2531,-314.7086C198.531,-340.3091 244.9277,-411.4984 267.4277,-427.5 275.6144,-433.3222 285.7616,-437.316 295.2108,-440.0313"/>
<polygon fill="#191970" stroke="#191970" points="294.5134,-443.4648 305.0644,-442.502 296.2159,-436.6749 294.5134,-443.4648"/>
</g>
<!-- Node82 -->
<g id="node7" class="node">
<title>Node82</title>
<g id="a_node7"><a xlink:href="lifter_8c.html#aa4d172cbde795bc13fe6baabd074717e" target="_top" xlink:title="quit_auto_static">
<polygon fill="none" stroke="#000000" points="281.3169,-211.5 281.3169,-229.5 367.3657,-229.5 367.3657,-211.5 281.3169,-211.5"/>
<text text-anchor="middle" x="324.3413" y="-217.5" font-family="Helvetica,sans-Serif" font-size="10.00" fill="#000000">quit_auto_static</text>
</a>
</g>
</g>
<!-- Node73&#45;&gt;Node82 -->
<g id="edge6" class="edge">
<title>Node73&#45;&gt;Node82</title>
<path fill="none" stroke="#191970" d="M213.8569,-296.3926C220.0085,-294.0296 226.1055,-291.103 231.4277,-287.5 252.0675,-273.5274 247.3827,-259.3132 267.4277,-244.5 273.1062,-240.3037 279.6286,-236.6783 286.1852,-233.6077"/>
<polygon fill="#191970" stroke="#191970" points="287.9193,-236.6719 295.7215,-229.5042 285.1524,-230.2419 287.9193,-236.6719"/>
</g>
<!-- Node83 -->
<g id="node8" class="node">
<title>Node83</title>
<g id="a_node8"><a xlink:href="lifter_8c.html#ad00a195af30f246924d6e1a30095b882" target="_top" xlink:title="Sets the main lifter motors to the given value. ">
<polygon fill="none" stroke="#ff0000" points="417.2549,-228.5 417.2549,-246.5 534.4072,-246.5 534.4072,-228.5 417.2549,-228.5"/>
<text text-anchor="middle" x="475.8311" y="-234.5" font-family="Helvetica,sans-Serif" font-size="10.00" fill="#000000">set_main_lifter_motors</text>
</a>
</g>
</g>
<!-- Node73&#45;&gt;Node83 -->
<g id="edge13" class="edge">
<title>Node73&#45;&gt;Node83</title>
<path fill="none" stroke="#191970" d="M216.2099,-296.4701C270.3383,-284.1755 367.2094,-262.1722 426.0899,-248.7982"/>
<polygon fill="#191970" stroke="#191970" points="426.9355,-252.1953 435.9118,-246.5672 425.3849,-245.3692 426.9355,-252.1953"/>
</g>
<!-- Node95 -->
<g id="node9" class="node">
<title>Node95</title>
<g id="a_node9"><a xlink:href="lifter_8c.html#a78640d547d9361951a92d0bc00939536" target="_top" xlink:title="Sets the secondary lifter motors to the given value. ">
<polygon fill="none" stroke="#ff0000" points="423.085,-282.5 423.085,-310.5 528.5771,-310.5 528.5771,-282.5 423.085,-282.5"/>
<text text-anchor="start" x="431.085" y="-298.5" font-family="Helvetica,sans-Serif" font-size="10.00" fill="#000000">set_secondary_lifter</text>
<text text-anchor="middle" x="475.8311" y="-288.5" font-family="Helvetica,sans-Serif" font-size="10.00" fill="#000000">_motors</text>
</a>
</g>
</g>
<!-- Node73&#45;&gt;Node95 -->
<g id="edge14" class="edge">
<title>Node73&#45;&gt;Node95</title>
<path fill="none" stroke="#191970" d="M224.2231,-304.064C275.2751,-302.5292 356.4484,-300.0889 412.731,-298.3969"/>
<polygon fill="#191970" stroke="#191970" points="413.0474,-301.8891 422.9377,-298.0901 412.837,-294.8923 413.0474,-301.8891"/>
</g>
<!-- Node97 -->
<g id="node10" class="node">
<title>Node97</title>
<g id="a_node10"><a xlink:href="claw_8h.html#a3a57f998b1884d39b0cc786689f7086f" target="_top" xlink:title="sets the claw motor speed ">
<polygon fill="none" stroke="#ff0000" points="432.8164,-191.5 432.8164,-209.5 518.8457,-209.5 518.8457,-191.5 432.8164,-191.5"/>
<text text-anchor="middle" x="475.8311" y="-197.5" font-family="Helvetica,sans-Serif" font-size="10.00" fill="#000000">set_claw_motor</text>
</a>
</g>
</g>
<!-- Node73&#45;&gt;Node97 -->
<g id="edge12" class="edge">
<title>Node73&#45;&gt;Node97</title>
<path fill="none" stroke="#191970" d="M217.6785,-296.4351C222.6931,-294.1055 227.4429,-291.1782 231.4277,-287.5 261.8757,-259.3956 232.9872,-224.5388 267.4277,-201.5 318.0662,-167.6258 392.2522,-177.8804 437.1011,-188.8676"/>
<polygon fill="#191970" stroke="#191970" points="436.4652,-192.3181 447.0225,-191.4279 438.2144,-185.5401 436.4652,-192.3181"/>
</g>
<!-- Node98 -->
<g id="node11" class="node">
<title>Node98</title>
<g id="a_node11"><a xlink:href="lifter_8c.html#a786f679ea48bb8c80e00fbac9a69911b" target="_top" xlink:title="Raises the main lifter. ">
<polygon fill="none" stroke="#000000" points="267.4277,-325.5 267.4277,-343.5 381.2549,-343.5 381.2549,-325.5 267.4277,-325.5"/>
<text text-anchor="middle" x="324.3413" y="-331.5" font-family="Helvetica,sans-Serif" font-size="10.00" fill="#000000">raise_secondary_lifter</text>
</a>
</g>
</g>
<!-- Node73&#45;&gt;Node98 -->
<g id="edge10" class="edge">
<title>Node73&#45;&gt;Node98</title>
<path fill="none" stroke="#191970" d="M222.4366,-314.5168C237.0429,-317.3811 253.3564,-320.5801 268.5747,-323.5644"/>
<polygon fill="#191970" stroke="#191970" points="267.9016,-326.999 278.3883,-325.4888 269.2487,-320.1298 267.9016,-326.999"/>
</g>
<!-- Node82&#45;&gt;Node83 -->
<g id="edge7" class="edge">
<title>Node82&#45;&gt;Node83</title>
<path fill="none" stroke="#191970" d="M367.7522,-225.3715C380.0145,-226.7476 393.6686,-228.2798 407.0319,-229.7794"/>
<polygon fill="#191970" stroke="#191970" points="406.8383,-233.2796 417.1663,-230.9167 407.619,-226.3233 406.8383,-233.2796"/>
</g>
<!-- Node82&#45;&gt;Node95 -->
<g id="edge8" class="edge">
<title>Node82&#45;&gt;Node95</title>
<path fill="none" stroke="#191970" d="M342.3141,-229.5166C365.9662,-241.3825 408.1218,-262.5313 438.7513,-277.8977"/>
<polygon fill="#191970" stroke="#191970" points="437.346,-281.1084 447.8538,-282.4642 440.485,-274.8516 437.346,-281.1084"/>
</g>
<!-- Node82&#45;&gt;Node97 -->
<g id="edge9" class="edge">
<title>Node82&#45;&gt;Node97</title>
<path fill="none" stroke="#191970" d="M367.7522,-214.7688C384.8611,-212.51 404.6795,-209.8936 422.6372,-207.5228"/>
<polygon fill="#191970" stroke="#191970" points="423.2201,-210.9763 432.6759,-206.1974 422.3038,-204.0365 423.2201,-210.9763"/>
</g>
<!-- Node98&#45;&gt;Node95 -->
<g id="edge11" class="edge">
<title>Node98&#45;&gt;Node95</title>
<path fill="none" stroke="#191970" d="M360.2423,-325.4945C376.0406,-321.5316 395.0718,-316.7578 413.0908,-312.2379"/>
<polygon fill="#191970" stroke="#191970" points="414.1223,-315.5877 422.9703,-309.7597 412.4192,-308.798 414.1223,-315.5877"/>
</g>
<!-- Node115&#45;&gt;Node76 -->
<g id="edge20" class="edge">
<title>Node115&#45;&gt;Node76</title>
<path fill="none" stroke="#191970" d="M215.6531,-259.473C221.3937,-256.9247 226.8901,-253.6655 231.4277,-249.5 260.4489,-222.8585 239.3054,-196.0886 267.4277,-168.5 275.8972,-160.1913 287.6766,-154.5816 298.3229,-150.8898"/>
<polygon fill="#191970" stroke="#191970" points="299.5024,-154.1891 308.038,-147.9125 297.4513,-147.4963 299.5024,-154.1891"/>
</g>
<!-- Node128&#45;&gt;Node74 -->
<g id="edge26" class="edge">
<title>Node128&#45;&gt;Node74</title>
<path fill="none" stroke="#191970" d="M212.2542,-408.5C232.3093,-408.5 257.5197,-408.5 278.9498,-408.5"/>
<polygon fill="#191970" stroke="#191970" points="279.1273,-412.0001 289.1273,-408.5 279.1273,-405.0001 279.1273,-412.0001"/>
</g>
<!-- Node128&#45;&gt;Node78 -->
<g id="edge27" class="edge">
<title>Node128&#45;&gt;Node78</title>
<path fill="none" stroke="#191970" d="M212.2542,-417.4567C237.7208,-423.8282 271.5,-432.2795 295.2961,-438.2331"/>
<polygon fill="#191970" stroke="#191970" points="294.5947,-441.6654 305.1452,-440.6973 296.2937,-434.8747 294.5947,-441.6654"/>
</g>
</g>
</svg>
