<?xml version="1.0" encoding="UTF-8" standalone="no"?>
<!DOCTYPE svg PUBLIC "-//W3C//DTD SVG 1.1//EN"
 "http://www.w3.org/Graphics/SVG/1.1/DTD/svg11.dtd">
<!-- Generated by graphviz version 2.40.1 (20161225.0304)
 -->
<!-- Title: operatorControl Pages: 1 -->
<!--zoomable 610 -->
<svg id="main" version="1.1" xmlns="http://www.w3.org/2000/svg" xmlns:xlink="http://www.w3.org/1999/xlink" xml:space="preserve" onload="init(evt)">
<style type="text/css"><![CDATA[
.edge:hover path { stroke: red; }
.edge:hover polygon { stroke: red; fill: red; }
]]></style>
<script type="text/javascript"><![CDATA[
var edges = document.getElementsByTagName('g');
if (edges && edges.length) {
  for (var i=0;i<edges.length;i++) {
    if (edges[i].id.substr(0,4)=='edge') {
      edges[i].setAttribute('class','edge');
    }
  }
}
]]></script>
        <defs>
                <circle id="rim" cx="0" cy="0" r="7"/>
                <circle id="rim2" cx="0" cy="0" r="3.5"/>
                <g id="zoomPlus">
                        <use xlink:href="#rim" fill="#404040">
                                <set attributeName="fill" to="#808080" begin="zoomplus.mouseover" end="zoomplus.mouseout"/>
                        </use>
                        <path d="M-4,0h8M0,-4v8" fill="none" stroke="white" stroke-width="1.5" pointer-events="none"/>
                </g>
                <g id="zoomMin">
                        <use xlink:href="#rim" fill="#404040">
                                <set attributeName="fill" to="#808080" begin="zoomminus.mouseover" end="zoomminus.mouseout"/>
                        </use>
                        <path d="M-4,0h8" fill="none" stroke="white" stroke-width="1.5" pointer-events="none"/>
                </g>
                <g id="dirArrow">
                        <path fill="none" stroke="white" stroke-width="1.5" d="M0,-3.0v7 M-2.5,-0.5L0,-3.0L2.5,-0.5"/>
                </g>
               <g id="resetDef">
                       <use xlink:href="#rim2" fill="#404040">
                               <set attributeName="fill" to="#808080" begin="reset.mouseover" end="reset.mouseout"/>
                       </use>
               </g>
        </defs>

<script type="text/javascript">
var viewWidth = 1073;
var viewHeight = 610;
var sectionId = 'dynsection-5';
</script>
<script xlink:href="svgpan.js"/>
<svg id="graph" class="graph">
<g id="viewport">
<title>operatorControl</title>
<!-- Node24 -->
<g id="node1" class="node">
<title>Node24</title>
<polygon fill="#bfbfbf" stroke="#000000" points="0,-338.5 0,-356.5 85.4824,-356.5 85.4824,-338.5 0,-338.5"/>
<text text-anchor="middle" x="42.7412" y="-344.5" font-family="Helvetica,sans-Serif" font-size="10.00" fill="#000000">operatorControl</text>
</g>
<!-- Node25 -->
<g id="node2" class="node">
<title>Node25</title>
<g id="a_node2"><a xlink:href="_a_p_i_8h.html#a1c59207742a1acf45a8957d7f04f9dfe" target="_top" xlink:title="delay">
<polygon fill="none" stroke="#000000" points="156.502,-566.5 156.502,-584.5 196.4082,-584.5 196.4082,-566.5 156.502,-566.5"/>
<text text-anchor="middle" x="176.4551" y="-572.5" font-family="Helvetica,sans-Serif" font-size="10.00" fill="#000000">delay</text>
</a>
</g>
</g>
<!-- Node24&#45;&gt;Node25 -->
<g id="edge1" class="edge">
<title>Node24&#45;&gt;Node25</title>
<path fill="none" stroke="#191970" d="M43.7537,-356.5473C47.7019,-387.762 64.767,-492.2758 121.4824,-551.5 128.3587,-558.6804 137.7515,-563.8431 146.8276,-567.4943"/>
<polygon fill="#191970" stroke="#191970" points="145.8229,-570.8514 156.4177,-570.887 148.1576,-564.2522 145.8229,-570.8514"/>
</g>
<!-- Node26 -->
<g id="node3" class="node">
<title>Node26</title>
<g id="a_node3"><a xlink:href="slew_8h.html#a321758941d88b75783955c819bb75005" target="_top" xlink:title="Initializes the slew rate controller. ">
<polygon fill="none" stroke="#000000" points="676.3281,-488.5 676.3281,-506.5 730.6777,-506.5 730.6777,-488.5 676.3281,-488.5"/>
<text text-anchor="middle" x="703.5029" y="-494.5" font-family="Helvetica,sans-Serif" font-size="10.00" fill="#000000">init_slew</text>
</a>
</g>
</g>
<!-- Node24&#45;&gt;Node26 -->
<g id="edge2" class="edge">
<title>Node24&#45;&gt;Node26</title>
<path fill="none" stroke="#191970" d="M49.1156,-356.6641C76.3418,-394.6173 187.347,-537.5 315.4473,-537.5 315.4473,-537.5 315.4473,-537.5 445.8213,-537.5 525.0697,-537.5 616.4224,-518.7976 666.2724,-506.9695"/>
<polygon fill="#191970" stroke="#191970" points="667.3608,-510.3074 676.2607,-504.5591 665.7186,-503.5028 667.3608,-510.3074"/>
</g>
<!-- Node40 -->
<g id="node17" class="node">
<title>Node40</title>
<g id="a_node17"><a xlink:href="claw_8h.html#a0122b78972344264b8a276a559cfce4a" target="_top" xlink:title="update_claw">
<polygon fill="none" stroke="#000000" points="140.3789,-395.5 140.3789,-413.5 212.5313,-413.5 212.5313,-395.5 140.3789,-395.5"/>
<text text-anchor="middle" x="176.4551" y="-401.5" font-family="Helvetica,sans-Serif" font-size="10.00" fill="#000000">update_claw</text>
</a>
</g>
</g>
<!-- Node24&#45;&gt;Node40 -->
<g id="edge18" class="edge">
<title>Node24&#45;&gt;Node40</title>
<path fill="none" stroke="#191970" d="M63.9286,-356.5318C85.9021,-365.8988 120.483,-380.64 145.5131,-391.3099"/>
<polygon fill="#191970" stroke="#191970" points="144.3525,-394.6199 154.9241,-395.3217 147.0975,-388.1806 144.3525,-394.6199"/>
</g>
<!-- Node48 -->
<g id="node25" class="node">
<title>Node48</title>
<g id="a_node25"><a xlink:href="drive_8h.html#a8224a4626a934d30ed587671b7004bf8" target="_top" xlink:title="Updates the drive motors during teleop. ">
<polygon fill="none" stroke="#000000" points="121.4824,-56.5 121.4824,-74.5 231.4277,-74.5 231.4277,-56.5 121.4824,-56.5"/>
<text text-anchor="middle" x="176.4551" y="-62.5" font-family="Helvetica,sans-Serif" font-size="10.00" fill="#000000">update_drive_motors</text>
</a>
</g>
</g>
<!-- Node24&#45;&gt;Node48 -->
<g id="edge38" class="edge">
<title>Node24&#45;&gt;Node48</title>
<path fill="none" stroke="#191970" d="M46.9551,-338.315C58.6467,-312.8617 92.5377,-239.2874 121.4824,-178.5 137.4332,-145.0014 156.4518,-106.141 167.4227,-83.8264"/>
<polygon fill="#191970" stroke="#191970" points="170.7095,-85.0741 171.9855,-74.5564 164.4291,-81.9828 170.7095,-85.0741"/>
</g>
<!-- Node53 -->
<g id="node30" class="node">
<title>Node53</title>
<g id="a_node30"><a xlink:href="lifter_8h.html#a59bb7413777ca16aba124aaedf95c79b" target="_top" xlink:title="update_lifter">
<polygon fill="none" stroke="#000000" points="140.9355,-188.5 140.9355,-206.5 211.9746,-206.5 211.9746,-188.5 140.9355,-188.5"/>
<text text-anchor="middle" x="176.4551" y="-194.5" font-family="Helvetica,sans-Serif" font-size="10.00" fill="#000000">update_lifter</text>
</a>
</g>
</g>
<!-- Node24&#45;&gt;Node53 -->
<g id="edge47" class="edge">
<title>Node24&#45;&gt;Node53</title>
<path fill="none" stroke="#191970" d="M51.1056,-338.1168C73.149,-313.3886 133.0724,-246.1666 161.3274,-214.4702"/>
<polygon fill="#191970" stroke="#191970" points="164.0522,-216.6733 168.0938,-206.8796 158.8269,-212.0153 164.0522,-216.6733"/>
</g>
<!-- Node57 -->
<g id="node34" class="node">
<title>Node57</title>
<g id="a_node34"><a xlink:href="mobile__goal__intake_8h.html#ad0232c21c5c1ffda603d2b7d61034118" target="_top" xlink:title="updateIntake">
<polygon fill="none" stroke="#000000" points="139.5415,-301.5 139.5415,-319.5 213.3687,-319.5 213.3687,-301.5 139.5415,-301.5"/>
<text text-anchor="middle" x="176.4551" y="-307.5" font-family="Helvetica,sans-Serif" font-size="10.00" fill="#000000">updateIntake</text>
</a>
</g>
</g>
<!-- Node24&#45;&gt;Node57 -->
<g id="edge55" class="edge">
<title>Node24&#45;&gt;Node57</title>
<path fill="none" stroke="#191970" d="M75.4513,-338.4488C93.0153,-333.5886 114.8774,-327.5392 133.7656,-322.3126"/>
<polygon fill="#191970" stroke="#191970" points="134.9149,-325.6262 143.6192,-319.586 133.048,-318.8797 134.9149,-325.6262"/>
</g>
<!-- Node27 -->
<g id="node4" class="node">
<title>Node27</title>
<g id="a_node4"><a xlink:href="log_8h.html#a0bec2cf5fff7f607bc510b74aba9887c" target="_top" xlink:title="prints a warning message and displays on lcd. Only will print and display if log_level is greater tha...">
<polygon fill="none" stroke="#000000" points="779.7417,-525.5 779.7417,-543.5 830.7612,-543.5 830.7612,-525.5 779.7417,-525.5"/>
<text text-anchor="middle" x="805.2515" y="-531.5" font-family="Helvetica,sans-Serif" font-size="10.00" fill="#000000">warning</text>
</a>
</g>
</g>
<!-- Node26&#45;&gt;Node27 -->
<g id="edge3" class="edge">
<title>Node26&#45;&gt;Node27</title>
<path fill="none" stroke="#191970" d="M728.3934,-506.5512C741.0811,-511.165 756.7162,-516.8506 770.5648,-521.8865"/>
<polygon fill="#191970" stroke="#191970" points="769.6712,-525.2857 780.2653,-525.414 772.0635,-518.7072 769.6712,-525.2857"/>
</g>
<!-- Node32 -->
<g id="node9" class="node">
<title>Node32</title>
<g id="a_node9"><a xlink:href="_a_p_i_8h.html#a8966c541f3e9565aea1289f0d2f2cf43" target="_top" xlink:title="motorStopAll">
<polygon fill="none" stroke="#000000" points="768.6284,-488.5 768.6284,-506.5 841.8745,-506.5 841.8745,-488.5 768.6284,-488.5"/>
<text text-anchor="middle" x="805.2515" y="-494.5" font-family="Helvetica,sans-Serif" font-size="10.00" fill="#000000">motorStopAll</text>
</a>
</g>
</g>
<!-- Node26&#45;&gt;Node32 -->
<g id="edge8" class="edge">
<title>Node26&#45;&gt;Node32</title>
<path fill="none" stroke="#191970" d="M730.7697,-497.5C739.2426,-497.5 748.8381,-497.5 758.2554,-497.5"/>
<polygon fill="#191970" stroke="#191970" points="758.3426,-501.0001 768.3426,-497.5 758.3425,-494.0001 758.3426,-501.0001"/>
</g>
<!-- Node33 -->
<g id="node10" class="node">
<title>Node33</title>
<g id="a_node10"><a xlink:href="log_8h.html#a1606d750e1bb8de9f9e917172bba3382" target="_top" xlink:title="prints a info message ">
<polygon fill="none" stroke="#000000" points="789.1899,-377.5 789.1899,-395.5 821.313,-395.5 821.313,-377.5 789.1899,-377.5"/>
<text text-anchor="middle" x="805.2515" y="-383.5" font-family="Helvetica,sans-Serif" font-size="10.00" fill="#000000">info</text>
</a>
</g>
</g>
<!-- Node26&#45;&gt;Node33 -->
<g id="edge9" class="edge">
<title>Node26&#45;&gt;Node33</title>
<path fill="none" stroke="#191970" d="M710.3118,-488.2059C715.8748,-480.5587 723.8981,-469.4058 730.6777,-459.5 747.1784,-435.3907 744.5968,-423.6302 766.6777,-404.5 770.5247,-401.1671 775.0938,-398.3247 779.718,-395.9501"/>
<polygon fill="#191970" stroke="#191970" points="781.4,-399.0309 789.0735,-391.7256 778.5192,-392.6512 781.4,-399.0309"/>
</g>
<!-- Node34 -->
<g id="node11" class="node">
<title>Node34</title>
<g id="a_node11"><a xlink:href="_a_p_i_8h.html#aecd027ce8f8b52a765735e9eb5b202b3" target="_top" xlink:title="mutexCreate">
<polygon fill="none" stroke="#000000" points="768.6284,-451.5 768.6284,-469.5 841.8745,-469.5 841.8745,-451.5 768.6284,-451.5"/>
<text text-anchor="middle" x="805.2515" y="-457.5" font-family="Helvetica,sans-Serif" font-size="10.00" fill="#000000">mutexCreate</text>
</a>
</g>
</g>
<!-- Node26&#45;&gt;Node34 -->
<g id="edge11" class="edge">
<title>Node26&#45;&gt;Node34</title>
<path fill="none" stroke="#191970" d="M728.3934,-488.4488C741.0811,-483.835 756.7162,-478.1494 770.5648,-473.1135"/>
<polygon fill="#191970" stroke="#191970" points="772.0635,-476.2928 780.2653,-469.586 769.6712,-469.7143 772.0635,-476.2928"/>
</g>
<!-- Node35 -->
<g id="node12" class="node">
<title>Node35</title>
<g id="a_node12"><a xlink:href="_a_p_i_8h.html#ab05a241d6d1fd98b1ceb4665db678156" target="_top" xlink:title="taskRunLoop">
<polygon fill="none" stroke="#000000" points="767.7861,-562.5 767.7861,-580.5 842.7168,-580.5 842.7168,-562.5 767.7861,-562.5"/>
<text text-anchor="middle" x="805.2515" y="-568.5" font-family="Helvetica,sans-Serif" font-size="10.00" fill="#000000">taskRunLoop</text>
</a>
</g>
</g>
<!-- Node26&#45;&gt;Node35 -->
<g id="edge12" class="edge">
<title>Node26&#45;&gt;Node35</title>
<path fill="none" stroke="#191970" d="M712.3112,-506.5003C723.9962,-518.1132 745.6103,-538.4854 766.6777,-552.5 769.4126,-554.3193 772.3468,-556.0745 775.3311,-557.7338"/>
<polygon fill="#191970" stroke="#191970" points="773.7984,-560.8817 784.2849,-562.3928 777.0295,-554.6721 773.7984,-560.8817"/>
</g>
<!-- Node36 -->
<g id="node13" class="node">
<title>Node36</title>
<g id="a_node13"><a xlink:href="slew_8c.html#a807a87c5df438fde21c1e8213906695b" target="_top" xlink:title="Closes the distance between the desired motor value and the current motor value by half for each moto...">
<polygon fill="none" stroke="#000000" points="766.6777,-414.5 766.6777,-432.5 843.8252,-432.5 843.8252,-414.5 766.6777,-414.5"/>
<text text-anchor="middle" x="805.2515" y="-420.5" font-family="Helvetica,sans-Serif" font-size="10.00" fill="#000000">updateMotors</text>
</a>
</g>
</g>
<!-- Node26&#45;&gt;Node36 -->
<g id="edge13" class="edge">
<title>Node26&#45;&gt;Node36</title>
<path fill="none" stroke="#191970" d="M712.2339,-488.2519C723.8352,-476.3367 745.359,-455.4959 766.6777,-441.5 768.9731,-439.993 771.4148,-438.5443 773.912,-437.1687"/>
<polygon fill="#191970" stroke="#191970" points="775.7058,-440.1832 783.0361,-432.5335 772.5353,-433.9424 775.7058,-440.1832"/>
</g>
<!-- Node28 -->
<g id="node5" class="node">
<title>Node28</title>
<g id="a_node5"><a xlink:href="log_8c.html#afff22aff6749311a684a559cac3ac8bd" target="_top" xlink:title="log_info">
<polygon fill="none" stroke="#000000" points="886.4878,-516.5 886.4878,-534.5 937.5171,-534.5 937.5171,-516.5 886.4878,-516.5"/>
<text text-anchor="middle" x="912.0024" y="-522.5" font-family="Helvetica,sans-Serif" font-size="10.00" fill="#000000">log_info</text>
</a>
</g>
</g>
<!-- Node27&#45;&gt;Node28 -->
<g id="edge4" class="edge">
<title>Node27&#45;&gt;Node28</title>
<path fill="none" stroke="#191970" d="M830.821,-532.3443C844.3217,-531.2061 861.1153,-529.7902 875.9192,-528.5421"/>
<polygon fill="#191970" stroke="#191970" points="876.601,-531.9971 886.2716,-527.6693 876.0129,-525.0219 876.601,-531.9971"/>
</g>
<!-- Node29 -->
<g id="node6" class="node">
<title>Node29</title>
<g id="a_node6"><a xlink:href="_a_p_i_8h.html#a403c82418e475fa4a8273719e6a7f3e6" target="_top" xlink:title="printf">
<polygon fill="none" stroke="#000000" points="1003.2485,-396.5 1003.2485,-414.5 1041.48,-414.5 1041.48,-396.5 1003.2485,-396.5"/>
<text text-anchor="middle" x="1022.3643" y="-402.5" font-family="Helvetica,sans-Serif" font-size="10.00" fill="#000000">printf</text>
</a>
</g>
</g>
<!-- Node28&#45;&gt;Node29 -->
<g id="edge5" class="edge">
<title>Node28&#45;&gt;Node29</title>
<path fill="none" stroke="#191970" d="M923.3939,-516.3058C929.7233,-511.0228 937.6207,-504.1362 944.1797,-497.5 968.6023,-472.79 994.175,-441.5106 1009.1703,-422.5272"/>
<polygon fill="#191970" stroke="#191970" points="1012.0407,-424.5386 1015.4524,-414.5081 1006.5302,-420.2218 1012.0407,-424.5386"/>
</g>
<!-- Node30 -->
<g id="node7" class="node">
<title>Node30</title>
<g id="a_node7"><a xlink:href="_a_p_i_8h.html#aab53a247d88151a6623c20fa1ea940b0" target="_top" xlink:title="lcdSetBacklight">
<polygon fill="none" stroke="#000000" points="980.1797,-497.5 980.1797,-515.5 1064.5488,-515.5 1064.5488,-497.5 980.1797,-497.5"/>
<text text-anchor="middle" x="1022.3643" y="-503.5" font-family="Helvetica,sans-Serif" font-size="10.00" fill="#000000">lcdSetBacklight</text>
</a>
</g>
</g>
<!-- Node28&#45;&gt;Node30 -->
<g id="edge6" class="edge">
<title>Node28&#45;&gt;Node30</title>
<path fill="none" stroke="#191970" d="M937.5991,-521.0933C947.3504,-519.4145 958.8517,-517.4344 970.1838,-515.4834"/>
<polygon fill="#191970" stroke="#191970" points="970.7894,-518.9308 980.0506,-513.7848 969.6017,-512.0322 970.7894,-518.9308"/>
</g>
<!-- Node31 -->
<g id="node8" class="node">
<title>Node31</title>
<g id="a_node8"><a xlink:href="_a_p_i_8h.html#a5fa1d119fe3e836b5519f97eae7a1272" target="_top" xlink:title="lcdClear">
<polygon fill="none" stroke="#000000" points="996.0244,-534.5 996.0244,-552.5 1048.7041,-552.5 1048.7041,-534.5 996.0244,-534.5"/>
<text text-anchor="middle" x="1022.3643" y="-540.5" font-family="Helvetica,sans-Serif" font-size="10.00" fill="#000000">lcdClear</text>
</a>
</g>
</g>
<!-- Node28&#45;&gt;Node31 -->
<g id="edge7" class="edge">
<title>Node28&#45;&gt;Node31</title>
<path fill="none" stroke="#191970" d="M937.5991,-529.6748C951.9112,-532.0091 969.9931,-534.9583 985.7767,-537.5326"/>
<polygon fill="#191970" stroke="#191970" points="985.3212,-541.0045 995.7543,-539.1599 986.4481,-534.0957 985.3212,-541.0045"/>
</g>
<!-- Node33&#45;&gt;Node29 -->
<g id="edge10" class="edge">
<title>Node33&#45;&gt;Node29</title>
<path fill="none" stroke="#191970" d="M821.5702,-387.9281C858.075,-391.1227 946.7505,-398.8829 993.0788,-402.9372"/>
<polygon fill="#191970" stroke="#191970" points="992.8224,-406.428 1003.0895,-403.8132 993.4327,-399.4547 992.8224,-406.428"/>
</g>
<!-- Node36&#45;&gt;Node29 -->
<g id="edge16" class="edge">
<title>Node36&#45;&gt;Node29</title>
<path fill="none" stroke="#191970" d="M844.0669,-420.282C886.7673,-416.7418 954.4333,-411.1319 992.9601,-407.9378"/>
<polygon fill="#191970" stroke="#191970" points="993.3324,-411.419 1003.009,-407.1047 992.754,-404.443 993.3324,-411.419"/>
</g>
<!-- Node37 -->
<g id="node14" class="node">
<title>Node37</title>
<g id="a_node14"><a xlink:href="_a_p_i_8h.html#a8b51124628d2a7741738d48551d1e8ee" target="_top" xlink:title="mutexTake">
<polygon fill="none" stroke="#000000" points="879.8252,-263.5 879.8252,-281.5 944.1797,-281.5 944.1797,-263.5 879.8252,-263.5"/>
<text text-anchor="middle" x="912.0024" y="-269.5" font-family="Helvetica,sans-Serif" font-size="10.00" fill="#000000">mutexTake</text>
</a>
</g>
</g>
<!-- Node36&#45;&gt;Node37 -->
<g id="edge14" class="edge">
<title>Node36&#45;&gt;Node37</title>
<path fill="none" stroke="#191970" d="M830.1264,-414.2979C835.0762,-411.6699 839.9389,-408.426 843.8252,-404.5 869.8369,-378.2226 862.7276,-362.2839 879.8252,-329.5 886.7344,-316.2519 895.0346,-301.5761 901.4742,-290.4341"/>
<polygon fill="#191970" stroke="#191970" points="904.5659,-292.08 906.5727,-281.6769 898.5165,-288.5579 904.5659,-292.08"/>
</g>
<!-- Node38 -->
<g id="node15" class="node">
<title>Node38</title>
<g id="a_node15"><a xlink:href="_a_p_i_8h.html#afe171a08d22de18fc2ab604b2364959f" target="_top" xlink:title="mutexGive">
<polygon fill="none" stroke="#000000" points="880.106,-339.5 880.106,-357.5 943.8989,-357.5 943.8989,-339.5 880.106,-339.5"/>
<text text-anchor="middle" x="912.0024" y="-345.5" font-family="Helvetica,sans-Serif" font-size="10.00" fill="#000000">mutexGive</text>
</a>
</g>
</g>
<!-- Node36&#45;&gt;Node38 -->
<g id="edge15" class="edge">
<title>Node36&#45;&gt;Node38</title>
<path fill="none" stroke="#191970" d="M825.7518,-414.4862C831.7345,-411.5698 838.1785,-408.1406 843.8252,-404.5 862.3752,-392.5402 881.6427,-376.3021 894.943,-364.391"/>
<polygon fill="#191970" stroke="#191970" points="897.3532,-366.93 902.3934,-357.6108 892.6418,-361.7528 897.3532,-366.93"/>
</g>
<!-- Node39 -->
<g id="node16" class="node">
<title>Node39</title>
<g id="a_node16"><a xlink:href="_a_p_i_8h.html#a03c5b04b472d024281f62d7af8854a8e" target="_top" xlink:title="motorSet">
<polygon fill="none" stroke="#000000" points="883.7168,-470.5 883.7168,-488.5 940.2881,-488.5 940.2881,-470.5 883.7168,-470.5"/>
<text text-anchor="middle" x="912.0024" y="-476.5" font-family="Helvetica,sans-Serif" font-size="10.00" fill="#000000">motorSet</text>
</a>
</g>
</g>
<!-- Node36&#45;&gt;Node39 -->
<g id="edge17" class="edge">
<title>Node36&#45;&gt;Node39</title>
<path fill="none" stroke="#191970" d="M825.4044,-432.5715C831.3773,-435.3493 837.903,-438.4727 843.8252,-441.5 858.5831,-449.0438 874.8021,-458.0535 887.7172,-465.4063"/>
<polygon fill="#191970" stroke="#191970" points="886.0529,-468.4865 896.4693,-470.4228 889.5339,-462.4134 886.0529,-468.4865"/>
</g>
<!-- Node41 -->
<g id="node18" class="node">
<title>Node41</title>
<g id="a_node18"><a xlink:href="_a_p_i_8h.html#a5da86064604c539c2b6a5e2993289108" target="_top" xlink:title="analogRead">
<polygon fill="none" stroke="#000000" points="280.4795,-414.5 280.4795,-432.5 350.415,-432.5 350.415,-414.5 280.4795,-414.5"/>
<text text-anchor="middle" x="315.4473" y="-420.5" font-family="Helvetica,sans-Serif" font-size="10.00" fill="#000000">analogRead</text>
</a>
</g>
</g>
<!-- Node40&#45;&gt;Node41 -->
<g id="edge19" class="edge">
<title>Node40&#45;&gt;Node41</title>
<path fill="none" stroke="#191970" d="M212.6108,-409.4424C230.2562,-411.8545 251.6598,-414.7804 270.3616,-417.3369"/>
<polygon fill="#191970" stroke="#191970" points="270.0506,-420.8268 280.4326,-418.7135 270.9988,-413.8913 270.0506,-420.8268"/>
</g>
<!-- Node42 -->
<g id="node19" class="node">
<title>Node42</title>
<g id="a_node19"><a xlink:href="claw_8c.html#ac42dd40dbb37219295286859c6b068c2" target="_top" xlink:title="close_claw">
<polygon fill="none" stroke="#000000" points="413.3657,-376.5 413.3657,-394.5 478.2769,-394.5 478.2769,-376.5 413.3657,-376.5"/>
<text text-anchor="middle" x="445.8213" y="-382.5" font-family="Helvetica,sans-Serif" font-size="10.00" fill="#000000">close_claw</text>
</a>
</g>
</g>
<!-- Node40&#45;&gt;Node42 -->
<g id="edge20" class="edge">
<title>Node40&#45;&gt;Node42</title>
<path fill="none" stroke="#191970" d="M212.783,-401.9376C262.1919,-398.4525 350.431,-392.2284 403.0006,-388.5204"/>
<polygon fill="#191970" stroke="#191970" points="403.288,-392.0089 413.0169,-387.8139 402.7954,-385.0263 403.288,-392.0089"/>
</g>
<!-- Node43 -->
<g id="node20" class="node">
<title>Node43</title>
<g id="a_node20"><a xlink:href="slew_8h.html#a9f8b8ae577ef938622024545711f0151" target="_top" xlink:title="set_motor_immediate">
<polygon fill="none" stroke="#000000" points="528.1758,-376.5 528.1758,-394.5 640.3281,-394.5 640.3281,-376.5 528.1758,-376.5"/>
<text text-anchor="middle" x="584.252" y="-382.5" font-family="Helvetica,sans-Serif" font-size="10.00" fill="#000000">set_motor_immediate</text>
</a>
</g>
</g>
<!-- Node40&#45;&gt;Node43 -->
<g id="edge37" class="edge">
<title>Node40&#45;&gt;Node43</title>
<path fill="none" stroke="#191970" d="M193.2797,-413.6578C211.0904,-422.7898 240.32,-436.1983 267.4277,-441.5 372.4057,-462.0315 497.6154,-420.5088 554.0439,-398.2827"/>
<polygon fill="#191970" stroke="#191970" points="555.4707,-401.4814 563.4449,-394.5055 552.8609,-394.9861 555.4707,-401.4814"/>
</g>
<!-- Node46 -->
<g id="node23" class="node">
<title>Node46</title>
<g id="a_node23"><a xlink:href="_a_p_i_8h.html#a792f1a80c62a63e764cf64aabf95db92" target="_top" xlink:title="joystickGetDigital">
<polygon fill="none" stroke="#000000" points="269.1025,-225.5 269.1025,-243.5 361.792,-243.5 361.792,-225.5 269.1025,-225.5"/>
<text text-anchor="middle" x="315.4473" y="-231.5" font-family="Helvetica,sans-Serif" font-size="10.00" fill="#000000">joystickGetDigital</text>
</a>
</g>
</g>
<!-- Node40&#45;&gt;Node46 -->
<g id="edge34" class="edge">
<title>Node40&#45;&gt;Node46</title>
<path fill="none" stroke="#191970" d="M183.6979,-395.3631C199.0167,-376.0695 235.8854,-329.7987 267.4277,-291.5 278.5714,-277.9693 291.3679,-262.7973 300.9474,-251.5101"/>
<polygon fill="#191970" stroke="#191970" points="303.7537,-253.6129 307.5652,-243.7274 298.4209,-249.0783 303.7537,-253.6129"/>
</g>
<!-- Node47 -->
<g id="node24" class="node">
<title>Node47</title>
<g id="a_node24"><a xlink:href="claw_8c.html#a03023ca28f671b9fa7bac07782ccd8c1" target="_top" xlink:title="open_claw">
<polygon fill="none" stroke="#000000" points="413.915,-490.5 413.915,-508.5 477.7275,-508.5 477.7275,-490.5 413.915,-490.5"/>
<text text-anchor="middle" x="445.8213" y="-496.5" font-family="Helvetica,sans-Serif" font-size="10.00" fill="#000000">open_claw</text>
</a>
</g>
</g>
<!-- Node40&#45;&gt;Node47 -->
<g id="edge35" class="edge">
<title>Node40&#45;&gt;Node47</title>
<path fill="none" stroke="#191970" d="M184.9526,-413.7757C199.9217,-429.45 232.7098,-460.8943 267.4277,-475.5 311.3411,-493.9742 366.2172,-498.9564 403.4259,-499.9643"/>
<polygon fill="#191970" stroke="#191970" points="403.8384,-503.4724 413.9007,-500.1558 403.9664,-496.4735 403.8384,-503.4724"/>
</g>
<!-- Node42&#45;&gt;Node43 -->
<g id="edge21" class="edge">
<title>Node42&#45;&gt;Node43</title>
<path fill="none" stroke="#191970" d="M478.2771,-385.5C490.238,-385.5 504.262,-385.5 518.1208,-385.5"/>
<polygon fill="#191970" stroke="#191970" points="518.1512,-389.0001 528.1511,-385.5 518.1511,-382.0001 518.1512,-389.0001"/>
</g>
<!-- Node43&#45;&gt;Node37 -->
<g id="edge32" class="edge">
<title>Node43&#45;&gt;Node37</title>
<path fill="none" stroke="#191970" d="M610.5191,-376.4438C668.8911,-356.3186 809.4687,-307.851 875.9747,-284.9214"/>
<polygon fill="#191970" stroke="#191970" points="877.2971,-288.1678 885.6102,-281.5994 875.0155,-281.55 877.2971,-288.1678"/>
</g>
<!-- Node43&#45;&gt;Node38 -->
<g id="edge33" class="edge">
<title>Node43&#45;&gt;Node38</title>
<path fill="none" stroke="#191970" d="M640.5943,-379.1395C705.6864,-371.7912 811.3041,-359.8679 869.7405,-353.271"/>
<polygon fill="#191970" stroke="#191970" points="870.1928,-356.7422 879.737,-352.1425 869.4075,-349.7864 870.1928,-356.7422"/>
</g>
<!-- Node43&#45;&gt;Node39 -->
<g id="edge31" class="edge">
<title>Node43&#45;&gt;Node39</title>
<path fill="none" stroke="#191970" d="M588.4326,-394.8891C604.8059,-430.2355 668.5404,-555.0752 766.6777,-590.5 798.9287,-602.1417 815.2004,-609.3751 843.8252,-590.5 877.7343,-568.1405 855.6085,-539.1087 879.8252,-506.5 882.8714,-502.3982 886.6604,-498.5192 890.5574,-495.0483"/>
<polygon fill="#191970" stroke="#191970" points="892.9744,-497.5932 898.5048,-488.5563 888.546,-492.172 892.9744,-497.5932"/>
</g>
<!-- Node44 -->
<g id="node21" class="node">
<title>Node44</title>
<g id="a_node21"><a xlink:href="log_8h.html#af3668f40d1ad1b4f3418869ac9a31f34" target="_top" xlink:title="prints a info message ">
<polygon fill="none" stroke="#000000" points="681.5991,-187.5 681.5991,-205.5 725.4067,-205.5 725.4067,-187.5 681.5991,-187.5"/>
<text text-anchor="middle" x="703.5029" y="-193.5" font-family="Helvetica,sans-Serif" font-size="10.00" fill="#000000">debug</text>
</a>
</g>
</g>
<!-- Node43&#45;&gt;Node44 -->
<g id="edge22" class="edge">
<title>Node43&#45;&gt;Node44</title>
<path fill="none" stroke="#191970" d="M590.0037,-376.3841C608.6181,-346.8823 667.4476,-253.6439 692.2747,-214.2955"/>
<polygon fill="#191970" stroke="#191970" points="695.4327,-215.8493 697.8089,-205.5244 689.5127,-212.114 695.4327,-215.8493"/>
</g>
<!-- Node45 -->
<g id="node22" class="node">
<title>Node45</title>
<g id="a_node22"><a xlink:href="slew_8c.html#a321758941d88b75783955c819bb75005" target="_top" xlink:title="Initializes the slew rate controller. ">
<polygon fill="none" stroke="#000000" points="676.3281,-432.5 676.3281,-450.5 730.6777,-450.5 730.6777,-432.5 676.3281,-432.5"/>
<text text-anchor="middle" x="703.5029" y="-438.5" font-family="Helvetica,sans-Serif" font-size="10.00" fill="#000000">init_slew</text>
</a>
</g>
</g>
<!-- Node43&#45;&gt;Node45 -->
<g id="edge24" class="edge">
<title>Node43&#45;&gt;Node45</title>
<path fill="none" stroke="#191970" d="M603.6771,-394.622C622.994,-403.6932 652.8477,-417.7124 674.8789,-428.0582"/>
<polygon fill="#191970" stroke="#191970" points="673.5467,-431.2993 684.0861,-432.3819 676.5222,-424.9631 673.5467,-431.2993"/>
</g>
<!-- Node44&#45;&gt;Node29 -->
<g id="edge23" class="edge">
<title>Node44&#45;&gt;Node29</title>
<path fill="none" stroke="#191970" d="M725.6956,-195.8777C771.4931,-195.7414 877.7368,-201.492 944.1797,-253.5 988.0765,-287.8601 1009.6497,-353.6389 1018.0247,-386.2252"/>
<polygon fill="#191970" stroke="#191970" points="1014.6991,-387.364 1020.4516,-396.2612 1021.503,-385.7187 1014.6991,-387.364"/>
</g>
<!-- Node45&#45;&gt;Node27 -->
<g id="edge25" class="edge">
<title>Node45&#45;&gt;Node27</title>
<path fill="none" stroke="#191970" d="M710.5485,-450.6491C724.1323,-468.1315 753.7426,-505.442 766.6777,-515.5 768.9429,-517.2614 771.3975,-518.9221 773.9335,-520.4728"/>
<polygon fill="#191970" stroke="#191970" points="772.2647,-523.5494 782.7128,-525.3071 775.6412,-517.4176 772.2647,-523.5494"/>
</g>
<!-- Node45&#45;&gt;Node32 -->
<g id="edge26" class="edge">
<title>Node45&#45;&gt;Node32</title>
<path fill="none" stroke="#191970" d="M718.3918,-450.6299C731.0854,-458.3142 749.8892,-469.4641 766.6777,-478.5 770.0302,-480.3044 773.5779,-482.1439 777.1099,-483.9329"/>
<polygon fill="#191970" stroke="#191970" points="775.7655,-487.1732 786.2779,-488.4919 778.8823,-480.9054 775.7655,-487.1732"/>
</g>
<!-- Node45&#45;&gt;Node33 -->
<g id="edge27" class="edge">
<title>Node45&#45;&gt;Node33</title>
<path fill="none" stroke="#191970" d="M718.0909,-432.4332C730.7567,-424.688 749.6823,-413.4175 766.6777,-404.5 770.8393,-402.3164 775.3136,-400.107 779.6885,-398.0192"/>
<polygon fill="#191970" stroke="#191970" points="781.364,-401.0997 788.947,-393.7005 778.4049,-394.7559 781.364,-401.0997"/>
</g>
<!-- Node45&#45;&gt;Node34 -->
<g id="edge28" class="edge">
<title>Node45&#45;&gt;Node34</title>
<path fill="none" stroke="#191970" d="M730.7697,-446.5917C739.2426,-448.1738 748.8381,-449.9657 758.2554,-451.7242"/>
<polygon fill="#191970" stroke="#191970" points="757.87,-455.2127 768.3426,-453.6078 759.155,-448.3316 757.87,-455.2127"/>
</g>
<!-- Node45&#45;&gt;Node35 -->
<g id="edge29" class="edge">
<title>Node45&#45;&gt;Node35</title>
<path fill="none" stroke="#191970" d="M710.9121,-450.6057C716.6709,-457.9047 724.664,-468.5383 730.6777,-478.5 749.5799,-509.8111 740.8793,-526.5748 766.6777,-552.5 768.3035,-554.1338 770.0982,-555.6498 771.9975,-557.0528"/>
<polygon fill="#191970" stroke="#191970" points="770.448,-560.2098 780.7937,-562.4941 774.1306,-554.2567 770.448,-560.2098"/>
</g>
<!-- Node45&#45;&gt;Node36 -->
<g id="edge30" class="edge">
<title>Node45&#45;&gt;Node36</title>
<path fill="none" stroke="#191970" d="M730.7697,-436.6763C738.7248,-435.269 747.6694,-433.6866 756.527,-432.1197"/>
<polygon fill="#191970" stroke="#191970" points="757.1958,-435.5558 766.4332,-430.3672 755.9763,-428.6628 757.1958,-435.5558"/>
</g>
<!-- Node47&#45;&gt;Node43 -->
<g id="edge36" class="edge">
<title>Node47&#45;&gt;Node43</title>
<path fill="none" stroke="#191970" d="M466.433,-490.4592C474.7541,-486.4008 484.2436,-481.2334 492.1758,-475.5 522.6333,-453.485 552.7976,-421.5699 569.9179,-402.2526"/>
<polygon fill="#191970" stroke="#191970" points="572.679,-404.4119 576.6202,-394.5773 567.4063,-399.8076 572.679,-404.4119"/>
</g>
<!-- Node49 -->
<g id="node26" class="node">
<title>Node49</title>
<g id="a_node26"><a xlink:href="drive_8c.html#a6de4fbb9197f2f350c53a9f8bf23a8f1" target="_top" xlink:title="Applies exponential scale to a joystick value. ">
<polygon fill="none" stroke="#000000" points="282.4399,-.5 282.4399,-18.5 348.4546,-18.5 348.4546,-.5 282.4399,-.5"/>
<text text-anchor="middle" x="315.4473" y="-6.5" font-family="Helvetica,sans-Serif" font-size="10.00" fill="#000000">joystickExp</text>
</a>
</g>
</g>
<!-- Node48&#45;&gt;Node49 -->
<g id="edge39" class="edge">
<title>Node48&#45;&gt;Node49</title>
<path fill="none" stroke="#191970" d="M197.6862,-56.3698C216.0655,-48.5289 243.3986,-37.0184 267.4277,-27.5 271.7346,-25.794 276.2744,-24.0379 280.7745,-22.3225"/>
<polygon fill="#191970" stroke="#191970" points="282.3373,-25.4737 290.4569,-18.6677 279.8652,-18.9248 282.3373,-25.4737"/>
</g>
<!-- Node50 -->
<g id="node27" class="node">
<title>Node50</title>
<g id="a_node27"><a xlink:href="_a_p_i_8h.html#ad56fcec15d1a48deb8780bb0fc38be4d" target="_top" xlink:title="joystickGetAnalog">
<polygon fill="none" stroke="#000000" points="267.4277,-37.5 267.4277,-55.5 363.4668,-55.5 363.4668,-37.5 267.4277,-37.5"/>
<text text-anchor="middle" x="315.4473" y="-43.5" font-family="Helvetica,sans-Serif" font-size="10.00" fill="#000000">joystickGetAnalog</text>
</a>
</g>
</g>
<!-- Node48&#45;&gt;Node50 -->
<g id="edge40" class="edge">
<title>Node48&#45;&gt;Node50</title>
<path fill="none" stroke="#191970" d="M231.7878,-57.9361C240.0762,-56.8031 248.6453,-55.6317 256.9961,-54.4902"/>
<polygon fill="#191970" stroke="#191970" points="257.6065,-57.9394 267.0403,-53.1171 256.6584,-51.0039 257.6065,-57.9394"/>
</g>
<!-- Node51 -->
<g id="node28" class="node">
<title>Node51</title>
<g id="a_node28"><a xlink:href="drive_8c.html#a8df41fd50094c065eedc81fc5e6595d1" target="_top" xlink:title="sets the speed of one side of the robot. ">
<polygon fill="none" stroke="#000000" points="402.7944,-113.5 402.7944,-131.5 488.8481,-131.5 488.8481,-113.5 402.7944,-113.5"/>
<text text-anchor="middle" x="445.8213" y="-119.5" font-family="Helvetica,sans-Serif" font-size="10.00" fill="#000000">set_side_speed</text>
</a>
</g>
</g>
<!-- Node48&#45;&gt;Node51 -->
<g id="edge41" class="edge">
<title>Node48&#45;&gt;Node51</title>
<path fill="none" stroke="#191970" d="M219.137,-74.5318C266.2837,-84.5084 342.2419,-100.5818 393.0778,-111.3391"/>
<polygon fill="#191970" stroke="#191970" points="392.386,-114.7701 402.894,-113.4162 393.8352,-107.9218 392.386,-114.7701"/>
</g>
<!-- Node52 -->
<g id="node29" class="node">
<title>Node52</title>
<g id="a_node29"><a xlink:href="slew_8h.html#a7dff2b79dffe55fb936d977594d7c01d" target="_top" xlink:title="Sets motor speed wrapped inside the slew rate controller. ">
<polygon fill="none" stroke="#000000" points="541.2373,-206.5 541.2373,-224.5 627.2666,-224.5 627.2666,-206.5 541.2373,-206.5"/>
<text text-anchor="middle" x="584.252" y="-212.5" font-family="Helvetica,sans-Serif" font-size="10.00" fill="#000000">set_motor_slew</text>
</a>
</g>
</g>
<!-- Node51&#45;&gt;Node52 -->
<g id="edge42" class="edge">
<title>Node51&#45;&gt;Node52</title>
<path fill="none" stroke="#191970" d="M459.3467,-131.5866C483.1655,-147.5885 532.8142,-180.9432 561.8298,-200.4365"/>
<polygon fill="#191970" stroke="#191970" points="560.2141,-203.5674 570.4666,-206.2388 564.1177,-197.7569 560.2141,-203.5674"/>
</g>
<!-- Node52&#45;&gt;Node37 -->
<g id="edge45" class="edge">
<title>Node52&#45;&gt;Node37</title>
<path fill="none" stroke="#191970" d="M627.5137,-222.1465C679.1109,-230.1938 767.9217,-244.4251 843.8252,-258.5 852.2791,-260.0676 861.3007,-261.8454 869.9212,-263.5954"/>
<polygon fill="#191970" stroke="#191970" points="869.2992,-267.0406 879.7987,-265.6228 870.7067,-260.1836 869.2992,-267.0406"/>
</g>
<!-- Node52&#45;&gt;Node38 -->
<g id="edge46" class="edge">
<title>Node52&#45;&gt;Node38</title>
<path fill="none" stroke="#191970" d="M606.5219,-224.5371C663.3947,-247.6158 814.1489,-308.7914 880.2202,-335.6029"/>
<polygon fill="#191970" stroke="#191970" points="879.1196,-338.9334 889.7019,-339.4505 881.7518,-332.4471 879.1196,-338.9334"/>
</g>
<!-- Node52&#45;&gt;Node44 -->
<g id="edge43" class="edge">
<title>Node52&#45;&gt;Node44</title>
<path fill="none" stroke="#191970" d="M627.3043,-208.6406C641.8335,-206.3257 657.789,-203.7835 671.3286,-201.6263"/>
<polygon fill="#191970" stroke="#191970" points="672.271,-205.0203 681.5957,-199.9904 671.1696,-198.1075 672.271,-205.0203"/>
</g>
<!-- Node52&#45;&gt;Node45 -->
<g id="edge44" class="edge">
<title>Node52&#45;&gt;Node45</title>
<path fill="none" stroke="#191970" d="M589.0744,-224.6394C606.98,-258.5733 669.8519,-377.7258 693.9782,-423.449"/>
<polygon fill="#191970" stroke="#191970" points="690.9888,-425.2836 698.7511,-432.4945 697.1798,-422.0168 690.9888,-425.2836"/>
</g>
<!-- Node53&#45;&gt;Node46 -->
<g id="edge48" class="edge">
<title>Node53&#45;&gt;Node46</title>
<path fill="none" stroke="#191970" d="M210.4564,-206.5512C228.882,-211.4562 251.858,-217.5724 271.6147,-222.8317"/>
<polygon fill="#191970" stroke="#191970" points="270.7514,-226.2237 281.3152,-225.414 272.5522,-219.4593 270.7514,-226.2237"/>
</g>
<!-- Node54 -->
<g id="node31" class="node">
<title>Node54</title>
<g id="a_node31"><a xlink:href="lifter_8c.html#aa7d2d04059f57cc5b8582f6fd0726dc1" target="_top" xlink:title="lower_lifter">
<polygon fill="none" stroke="#000000" points="283.2725,-188.5 283.2725,-206.5 347.6221,-206.5 347.6221,-188.5 283.2725,-188.5"/>
<text text-anchor="middle" x="315.4473" y="-194.5" font-family="Helvetica,sans-Serif" font-size="10.00" fill="#000000">lower_lifter</text>
</a>
</g>
</g>
<!-- Node53&#45;&gt;Node54 -->
<g id="edge49" class="edge">
<title>Node53&#45;&gt;Node54</title>
<path fill="none" stroke="#191970" d="M212.249,-197.5C230.7942,-197.5 253.564,-197.5 272.993,-197.5"/>
<polygon fill="#191970" stroke="#191970" points="273.1009,-201.0001 283.1009,-197.5 273.1009,-194.0001 273.1009,-201.0001"/>
</g>
<!-- Node55 -->
<g id="node32" class="node">
<title>Node55</title>
<g id="a_node32"><a xlink:href="lifter_8c.html#aa62603df4d54dff2d7fd472d699e9b2e" target="_top" xlink:title="set_lifter_motors">
<polygon fill="none" stroke="#000000" points="400.8633,-169.5 400.8633,-187.5 490.7793,-187.5 490.7793,-169.5 400.8633,-169.5"/>
<text text-anchor="middle" x="445.8213" y="-175.5" font-family="Helvetica,sans-Serif" font-size="10.00" fill="#000000">set_lifter_motors</text>
</a>
</g>
</g>
<!-- Node53&#45;&gt;Node55 -->
<g id="edge54" class="edge">
<title>Node53&#45;&gt;Node55</title>
<path fill="none" stroke="#191970" d="M186.7235,-188.4725C202.671,-175.12 234.9499,-150.695 267.4277,-141.5 308.4975,-129.8725 321.7305,-132.5551 363.4668,-141.5 384.028,-145.9067 405.6558,-155.8559 421.5857,-164.3284"/>
<polygon fill="#191970" stroke="#191970" points="420.2592,-167.5934 430.7074,-169.3501 423.6351,-161.4613 420.2592,-167.5934"/>
</g>
<!-- Node56 -->
<g id="node33" class="node">
<title>Node56</title>
<g id="a_node33"><a xlink:href="lifter_8c.html#a7452163ed7946b6262f41de51c62dfd4" target="_top" xlink:title="raise_lifter">
<polygon fill="none" stroke="#000000" points="284.3833,-151.5 284.3833,-169.5 346.5112,-169.5 346.5112,-151.5 284.3833,-151.5"/>
<text text-anchor="middle" x="315.4473" y="-157.5" font-family="Helvetica,sans-Serif" font-size="10.00" fill="#000000">raise_lifter</text>
</a>
</g>
</g>
<!-- Node53&#45;&gt;Node56 -->
<g id="edge52" class="edge">
<title>Node53&#45;&gt;Node56</title>
<path fill="none" stroke="#191970" d="M210.4564,-188.4488C229.7071,-183.3242 253.9247,-176.8774 274.2486,-171.4672"/>
<polygon fill="#191970" stroke="#191970" points="275.4104,-174.7799 284.1735,-168.8251 273.6097,-168.0154 275.4104,-174.7799"/>
</g>
<!-- Node54&#45;&gt;Node55 -->
<g id="edge50" class="edge">
<title>Node54&#45;&gt;Node55</title>
<path fill="none" stroke="#191970" d="M347.6746,-192.8034C360.6631,-190.9105 376.0208,-188.6723 390.6834,-186.5355"/>
<polygon fill="#191970" stroke="#191970" points="391.2951,-189.9834 400.6858,-185.0778 390.2855,-183.0566 391.2951,-189.9834"/>
</g>
<!-- Node55&#45;&gt;Node52 -->
<g id="edge51" class="edge">
<title>Node55&#45;&gt;Node52</title>
<path fill="none" stroke="#191970" d="M479.6852,-187.5512C498.0364,-192.4562 520.9196,-198.5724 540.5965,-203.8317"/>
<polygon fill="#191970" stroke="#191970" points="539.6932,-207.213 550.2578,-206.414 541.5007,-200.4504 539.6932,-207.213"/>
</g>
<!-- Node56&#45;&gt;Node55 -->
<g id="edge53" class="edge">
<title>Node56&#45;&gt;Node55</title>
<path fill="none" stroke="#191970" d="M346.6751,-164.8114C359.7734,-166.6199 375.4097,-168.7787 390.3496,-170.8413"/>
<polygon fill="#191970" stroke="#191970" points="390.1568,-174.3478 400.5415,-172.2485 391.1142,-167.4136 390.1568,-174.3478"/>
</g>
<!-- Node57&#45;&gt;Node46 -->
<g id="edge56" class="edge">
<title>Node57&#45;&gt;Node46</title>
<path fill="none" stroke="#191970" d="M191.7615,-301.4028C209.7234,-290.8088 240.4813,-272.9207 267.4277,-258.5 273.8321,-255.0726 280.7876,-251.5077 287.3652,-248.2066"/>
<polygon fill="#191970" stroke="#191970" points="289.2258,-251.1904 296.6233,-243.6057 286.1105,-244.9218 289.2258,-251.1904"/>
</g>
<!-- Node58 -->
<g id="node35" class="node">
<title>Node58</title>
<g id="a_node35"><a xlink:href="mobile__goal__intake_8c.html#a4899f9a8621015313e6312ce085da979" target="_top" xlink:title="raise_intake">
<polygon fill="none" stroke="#000000" points="280.4868,-338.5 280.4868,-356.5 350.4077,-356.5 350.4077,-338.5 280.4868,-338.5"/>
<text text-anchor="middle" x="315.4473" y="-344.5" font-family="Helvetica,sans-Serif" font-size="10.00" fill="#000000">raise_intake</text>
</a>
</g>
</g>
<!-- Node57&#45;&gt;Node58 -->
<g id="edge57" class="edge">
<title>Node57&#45;&gt;Node58</title>
<path fill="none" stroke="#191970" d="M210.4564,-319.5512C228.882,-324.4562 251.858,-330.5724 271.6147,-335.8317"/>
<polygon fill="#191970" stroke="#191970" points="270.7514,-339.2237 281.3152,-338.414 272.5522,-332.4593 270.7514,-339.2237"/>
</g>
<!-- Node59 -->
<g id="node36" class="node">
<title>Node59</title>
<g id="a_node36"><a xlink:href="mobile__goal__intake_8c.html#a8f215023832ba515d7b4535e3ae07498" target="_top" xlink:title="set_intake_motor">
<polygon fill="none" stroke="#000000" points="399.4668,-320.5 399.4668,-338.5 492.1758,-338.5 492.1758,-320.5 399.4668,-320.5"/>
<text text-anchor="middle" x="445.8213" y="-326.5" font-family="Helvetica,sans-Serif" font-size="10.00" fill="#000000">set_intake_motor</text>
</a>
</g>
</g>
<!-- Node57&#45;&gt;Node59 -->
<g id="edge62" class="edge">
<title>Node57&#45;&gt;Node59</title>
<path fill="none" stroke="#191970" d="M207.2444,-301.4795C244.5913,-291.8841 309.2793,-279.6012 363.4668,-291.5 384.3546,-296.0867 406.2583,-306.5018 422.2211,-315.2702"/>
<polygon fill="#191970" stroke="#191970" points="420.9074,-318.5495 431.3303,-320.4502 424.3677,-312.4645 420.9074,-318.5495"/>
</g>
<!-- Node60 -->
<g id="node37" class="node">
<title>Node60</title>
<g id="a_node37"><a xlink:href="mobile__goal__intake_8c.html#afa91470a9891e48827fd62d18553c6ce" target="_top" xlink:title="lower_intake">
<polygon fill="none" stroke="#000000" points="279.376,-301.5 279.376,-319.5 351.5186,-319.5 351.5186,-301.5 279.376,-301.5"/>
<text text-anchor="middle" x="315.4473" y="-307.5" font-family="Helvetica,sans-Serif" font-size="10.00" fill="#000000">lower_intake</text>
</a>
</g>
</g>
<!-- Node57&#45;&gt;Node60 -->
<g id="edge60" class="edge">
<title>Node57&#45;&gt;Node60</title>
<path fill="none" stroke="#191970" d="M213.7024,-310.5C230.721,-310.5 251.0548,-310.5 269.0551,-310.5"/>
<polygon fill="#191970" stroke="#191970" points="269.0593,-314.0001 279.0592,-310.5 269.0592,-307.0001 269.0593,-314.0001"/>
</g>
<!-- Node58&#45;&gt;Node59 -->
<g id="edge58" class="edge">
<title>Node58&#45;&gt;Node59</title>
<path fill="none" stroke="#191970" d="M350.7284,-342.6289C362.5103,-341.0023 375.9562,-339.1459 388.9536,-337.3514"/>
<polygon fill="#191970" stroke="#191970" points="389.8135,-340.766 399.2408,-335.9311 388.856,-333.8317 389.8135,-340.766"/>
</g>
<!-- Node59&#45;&gt;Node43 -->
<g id="edge59" class="edge">
<title>Node59&#45;&gt;Node43</title>
<path fill="none" stroke="#191970" d="M468.3707,-338.622C491.1966,-347.8559 526.6968,-362.217 552.3915,-372.6113"/>
<polygon fill="#191970" stroke="#191970" points="551.1295,-375.8763 561.7122,-376.3819 553.7546,-369.3872 551.1295,-375.8763"/>
</g>
<!-- Node60&#45;&gt;Node59 -->
<g id="edge61" class="edge">
<title>Node60&#45;&gt;Node59</title>
<path fill="none" stroke="#191970" d="M351.7637,-315.7926C363.4163,-317.4907 376.6112,-319.4137 389.3536,-321.2707"/>
<polygon fill="#191970" stroke="#191970" points="389.0373,-324.7615 399.4375,-322.7403 390.0468,-317.8347 389.0373,-324.7615"/>
</g>
</g>
</svg>
        <g id="navigator" transform="translate(0 0)" fill="#404254">
                <rect fill="#f2f5e9" fill-opacity="0.5" stroke="#606060" stroke-width=".5" x="0" y="0" width="60" height="60"/>
                <use id="zoomplus" xlink:href="#zoomPlus" x="17" y="9" onmousedown="handleZoom(evt,'in')"/>
                <use id="zoomminus" xlink:href="#zoomMin" x="42" y="9" onmousedown="handleZoom(evt,'out')"/>
                <use id="reset" xlink:href="#resetDef" x="30" y="36" onmousedown="handleReset()"/>
                <g id="arrowUp" xlink:href="#dirArrow" transform="translate(30 24)" onmousedown="handlePan(0,-1)">
                  <use xlink:href="#rim" fill="#404040">
                        <set attributeName="fill" to="#808080" begin="arrowUp.mouseover" end="arrowUp.mouseout"/>
                  </use>
                  <path fill="none" stroke="white" stroke-width="1.5" d="M0,-3.0v7 M-2.5,-0.5L0,-3.0L2.5,-0.5"/>
                </g>
                <g id="arrowRight" xlink:href="#dirArrow" transform="rotate(90) translate(36 -43)" onmousedown="handlePan(1,0)">
                  <use xlink:href="#rim" fill="#404040">
                        <set attributeName="fill" to="#808080" begin="arrowRight.mouseover" end="arrowRight.mouseout"/>
                  </use>
                  <path fill="none" stroke="white" stroke-width="1.5" d="M0,-3.0v7 M-2.5,-0.5L0,-3.0L2.5,-0.5"/>
                </g>
                <g id="arrowDown" xlink:href="#dirArrow" transform="rotate(180) translate(-30 -48)" onmousedown="handlePan(0,1)">
                  <use xlink:href="#rim" fill="#404040">
                        <set attributeName="fill" to="#808080" begin="arrowDown.mouseover" end="arrowDown.mouseout"/>
                  </use>
                  <path fill="none" stroke="white" stroke-width="1.5" d="M0,-3.0v7 M-2.5,-0.5L0,-3.0L2.5,-0.5"/>
                </g>
                <g id="arrowLeft" xlink:href="#dirArrow" transform="rotate(270) translate(-36 17)" onmousedown="handlePan(-1,0)">
                  <use xlink:href="#rim" fill="#404040">
                        <set attributeName="fill" to="#808080" begin="arrowLeft.mouseover" end="arrowLeft.mouseout"/>
                  </use>
                  <path fill="none" stroke="white" stroke-width="1.5" d="M0,-3.0v7 M-2.5,-0.5L0,-3.0L2.5,-0.5"/>
                </g>
        </g>
        <svg viewBox="0 0 15 15" width="100%" height="30px" preserveAspectRatio="xMaxYMin meet">
         <g id="arrow_out" transform="scale(0.3 0.3)">
          <a xlink:href="main_8h_ac71a94af413917f27d108e95c4d6f6a7_cgraph_org.svg" target="_base">
           <rect id="button" ry="5" rx="5" y="6" x="6" height="38" width="38"
                fill="#f2f5e9" fill-opacity="0.5" stroke="#606060" stroke-width="1.0"/>
           <path id="arrow"
             d="M 11.500037,31.436501 C 11.940474,20.09759 22.043105,11.32322 32.158766,21.979434 L 37.068811,17.246167 C 37.068811,17.246167 37.088388,32 37.088388,32 L 22.160133,31.978069 C 22.160133,31.978069 26.997745,27.140456 26.997745,27.140456 C 18.528582,18.264221 13.291696,25.230495 11.500037,31.436501 z"
             style="fill:#404040;"/>
          </a>
         </g>
        </svg>
</svg>
