<?xml version="1.0" encoding="UTF-8" standalone="no"?>
<!DOCTYPE svg PUBLIC "-//W3C//DTD SVG 1.1//EN"
 "http://www.w3.org/Graphics/SVG/1.1/DTD/svg11.dtd">
<!-- Generated by graphviz version 2.40.1 (20161225.0304)
 -->
<!-- Title: include/main.h Pages: 1 -->
<svg width="237pt" height="82pt"
 viewBox="0.00 0.00 237.19 82.00" xmlns="http://www.w3.org/2000/svg" xmlns:xlink="http://www.w3.org/1999/xlink">
<g id="graph0" class="graph" transform="scale(1 1) rotate(0) translate(4 78)">
<title>include/main.h</title>
<!-- Node2 -->
<g id="node1" class="node">
<title>Node2</title>
<polygon fill="#bfbfbf" stroke="#000000" points="63.4336,-55.5 63.4336,-73.5 143.916,-73.5 143.916,-55.5 63.4336,-55.5"/>
<text text-anchor="middle" x="103.6748" y="-61.5" font-family="Helvetica,sans-Serif" font-size="10.00" fill="#000000">include/main.h</text>
</g>
<!-- Node3 -->
<g id="node2" class="node">
<title>Node3</title>
<g id="a_node2"><a xlink:href="$auto_8c.html" xlink:title="File for autonomous code. ">
<polygon fill="none" stroke="#000000" points="0,-.5 0,-18.5 59.3496,-18.5 59.3496,-.5 0,-.5"/>
<text text-anchor="middle" x="29.6748" y="-6.5" font-family="Helvetica,sans-Serif" font-size="10.00" fill="#000000">src/auto.c</text>
</a>
</g>
</g>
<!-- Node2&#45;&gt;Node3 -->
<g id="edge1" class="edge">
<title>Node2&#45;&gt;Node3</title>
<path fill="none" stroke="#191970" d="M83.3477,-49.392C70.0683,-39.5222 53.1659,-26.9596 41.9126,-18.5956"/>
<polygon fill="#191970" stroke="#191970" points="81.3414,-52.2617 91.4552,-55.4179 85.5171,-46.6435 81.3414,-52.2617"/>
</g>
<!-- Node4 -->
<g id="node3" class="node">
<title>Node4</title>
<g id="a_node3"><a xlink:href="$init_8c.html" xlink:title="File for initialization code. ">
<polygon fill="none" stroke="#000000" points="77.3398,-.5 77.3398,-18.5 130.0098,-18.5 130.0098,-.5 77.3398,-.5"/>
<text text-anchor="middle" x="103.6748" y="-6.5" font-family="Helvetica,sans-Serif" font-size="10.00" fill="#000000">src/init.c</text>
</a>
</g>
</g>
<!-- Node2&#45;&gt;Node4 -->
<g id="edge2" class="edge">
<title>Node2&#45;&gt;Node4</title>
<path fill="none" stroke="#191970" d="M103.6748,-45.383C103.6748,-36.3738 103.6748,-26.0373 103.6748,-18.7795"/>
<polygon fill="#191970" stroke="#191970" points="100.1749,-45.4178 103.6748,-55.4179 107.1749,-45.4179 100.1749,-45.4178"/>
</g>
<!-- Node5 -->
<g id="node4" class="node">
<title>Node5</title>
<g id="a_node4"><a xlink:href="$opcontrol_8c.html" xlink:title="File for operator control code. ">
<polygon fill="none" stroke="#000000" points="148.1626,-.5 148.1626,-18.5 229.187,-18.5 229.187,-.5 148.1626,-.5"/>
<text text-anchor="middle" x="188.6748" y="-6.5" font-family="Helvetica,sans-Serif" font-size="10.00" fill="#000000">src/opcontrol.c</text>
</a>
</g>
</g>
<!-- Node2&#45;&gt;Node5 -->
<g id="edge3" class="edge">
<title>Node2&#45;&gt;Node5</title>
<path fill="none" stroke="#191970" d="M126.1565,-49.953C141.5349,-40.0023 161.4455,-27.1189 174.6179,-18.5956"/>
<polygon fill="#191970" stroke="#191970" points="124.2051,-47.0468 117.7108,-55.4179 128.0079,-52.9238 124.2051,-47.0468"/>
</g>
</g>
</svg>
