<?xml version="1.0" encoding="UTF-8" standalone="no"?>
<!DOCTYPE svg PUBLIC "-//W3C//DTD SVG 1.1//EN"
 "http://www.w3.org/Graphics/SVG/1.1/DTD/svg11.dtd">
<!-- Generated by graphviz version 2.40.1 (20161225.0304)
 -->
<!-- Title: autonomous Pages: 1 -->
<svg width="644pt" height="214pt"
 viewBox="0.00 0.00 643.63 214.00" xmlns="http://www.w3.org/2000/svg" xmlns:xlink="http://www.w3.org/1999/xlink">
<g id="graph0" class="graph" transform="scale(1 1) rotate(0) translate(4 210)">
<title>autonomous</title>
<!-- Node0 -->
<g id="node1" class="node">
<title>Node0</title>
<polygon fill="#bfbfbf" stroke="#000000" points="0,-94.5 0,-112.5 71.0391,-112.5 71.0391,-94.5 0,-94.5"/>
<text text-anchor="middle" x="35.5195" y="-100.5" font-family="Helvetica,sans-Serif" font-size="10.00" fill="#000000">autonomous</text>
</g>
<!-- Node1 -->
<g id="node2" class="node">
<title>Node1</title>
<g id="a_node2"><a xlink:href="$claw_8h.html#ac42dd40dbb37219295286859c6b068c2" xlink:title="Drives the motors to close the claw. ">
<polygon fill="none" stroke="#000000" points="119.5415,-113.5 119.5415,-131.5 184.4526,-131.5 184.4526,-113.5 119.5415,-113.5"/>
<text text-anchor="middle" x="151.9971" y="-119.5" font-family="Helvetica,sans-Serif" font-size="10.00" fill="#000000">close_claw</text>
</a>
</g>
</g>
<!-- Node0&#45;&gt;Node1 -->
<g id="edge1" class="edge">
<title>Node0&#45;&gt;Node1</title>
<path fill="none" stroke="#191970" d="M71.0995,-109.3039C83.121,-111.2648 96.6685,-113.4747 109.1902,-115.5173"/>
<polygon fill="#191970" stroke="#191970" points="108.9782,-119.0289 119.4112,-117.1845 110.1052,-112.1202 108.9782,-119.0289"/>
</g>
<!-- Node9 -->
<g id="node10" class="node">
<title>Node9</title>
<g id="a_node10"><a xlink:href="$slew_8h.html#a981c9990a969d2587e66e550737f7cd9" xlink:title="Deinitializes the slew rate controller and frees memory. ">
<polygon fill="none" stroke="#000000" points="122.0415,-.5 122.0415,-18.5 181.9526,-18.5 181.9526,-.5 122.0415,-.5"/>
<text text-anchor="middle" x="151.9971" y="-6.5" font-family="Helvetica,sans-Serif" font-size="10.00" fill="#000000">deinitslew</text>
</a>
</g>
</g>
<!-- Node0&#45;&gt;Node9 -->
<g id="edge9" class="edge">
<title>Node0&#45;&gt;Node9</title>
<path fill="none" stroke="#191970" d="M43.1905,-94.488C55.5884,-80.2926 81.2549,-52.3987 107.0391,-33.5 111.9764,-29.8812 117.5288,-26.4654 123.0032,-23.4072"/>
<polygon fill="#191970" stroke="#191970" points="124.8253,-26.4027 132.0202,-18.6255 121.5457,-20.2185 124.8253,-26.4027"/>
</g>
<!-- Node10 -->
<g id="node11" class="node">
<title>Node10</title>
<g id="a_node11"><a xlink:href="$slew_8h.html#a321758941d88b75783955c819bb75005" xlink:title="Initializes the slew rate controller. ">
<polygon fill="none" stroke="#000000" points="381.1074,-76.5 381.1074,-94.5 435.457,-94.5 435.457,-76.5 381.1074,-76.5"/>
<text text-anchor="middle" x="408.2822" y="-82.5" font-family="Helvetica,sans-Serif" font-size="10.00" fill="#000000">init_slew</text>
</a>
</g>
</g>
<!-- Node0&#45;&gt;Node10 -->
<g id="edge10" class="edge">
<title>Node0&#45;&gt;Node10</title>
<path fill="none" stroke="#191970" d="M48.4658,-94.3637C62.239,-85.2493 85.034,-71.855 107.0391,-66.5 199.7907,-43.9287 313.073,-63.0999 370.7047,-76.0367"/>
<polygon fill="#191970" stroke="#191970" points="370.2695,-79.5282 380.8007,-78.3682 371.8447,-72.7077 370.2695,-79.5282"/>
</g>
<!-- Node11 -->
<g id="node12" class="node">
<title>Node11</title>
<g id="a_node12"><a xlink:href="$claw_8h.html#a03023ca28f671b9fa7bac07782ccd8c1" xlink:title="Drives the motors to open the claw. ">
<polygon fill="none" stroke="#000000" points="120.0908,-76.5 120.0908,-94.5 183.9033,-94.5 183.9033,-76.5 120.0908,-76.5"/>
<text text-anchor="middle" x="151.9971" y="-82.5" font-family="Helvetica,sans-Serif" font-size="10.00" fill="#000000">open_claw</text>
</a>
</g>
</g>
<!-- Node0&#45;&gt;Node11 -->
<g id="edge14" class="edge">
<title>Node0&#45;&gt;Node11</title>
<path fill="none" stroke="#191970" d="M71.0995,-98.0016C83.3468,-96.109 97.178,-93.9715 109.8947,-92.0063"/>
<polygon fill="#191970" stroke="#191970" points="110.4547,-95.4614 119.8028,-90.4752 109.3856,-88.5436 110.4547,-95.4614"/>
</g>
<!-- Node12 -->
<g id="node13" class="node">
<title>Node12</title>
<g id="a_node13"><a xlink:href="$lifter_8h.html#a16ed2ef406519bbd4d091f6321f4ed8a" xlink:title="Sets the lifter motors to the given value. ">
<polygon fill="none" stroke="#000000" points="107.0391,-150.5 107.0391,-168.5 196.9551,-168.5 196.9551,-150.5 107.0391,-150.5"/>
<text text-anchor="middle" x="151.9971" y="-156.5" font-family="Helvetica,sans-Serif" font-size="10.00" fill="#000000">set_lifter_motors</text>
</a>
</g>
</g>
<!-- Node0&#45;&gt;Node12 -->
<g id="edge16" class="edge">
<title>Node0&#45;&gt;Node12</title>
<path fill="none" stroke="#191970" d="M51.4599,-112.6055C65.7913,-120.6379 87.5266,-132.4421 107.0391,-141.5 110.709,-143.2037 114.588,-144.9029 118.4677,-146.5391"/>
<polygon fill="#191970" stroke="#191970" points="117.414,-149.8898 127.9944,-150.4435 120.0686,-143.4126 117.414,-149.8898"/>
</g>
<!-- Node13 -->
<g id="node14" class="node">
<title>Node13</title>
<g id="a_node14"><a xlink:href="$drive_8h.html#a8df41fd50094c065eedc81fc5e6595d1" xlink:title="sets the speed of one side of the robot. ">
<polygon fill="none" stroke="#000000" points="108.9702,-187.5 108.9702,-205.5 195.0239,-205.5 195.0239,-187.5 108.9702,-187.5"/>
<text text-anchor="middle" x="151.9971" y="-193.5" font-family="Helvetica,sans-Serif" font-size="10.00" fill="#000000">set_side_speed</text>
</a>
</g>
</g>
<!-- Node0&#45;&gt;Node13 -->
<g id="edge18" class="edge">
<title>Node0&#45;&gt;Node13</title>
<path fill="none" stroke="#191970" d="M42.0479,-112.551C53.5865,-127.9801 79.0267,-159.5411 107.0391,-178.5 109.4543,-180.1346 112.0404,-181.6567 114.7067,-183.0668"/>
<polygon fill="#191970" stroke="#191970" points="113.4124,-186.3262 123.9496,-187.4302 116.4008,-179.9961 113.4124,-186.3262"/>
</g>
<!-- Node2 -->
<g id="node3" class="node">
<title>Node2</title>
<g id="a_node3"><a xlink:href="$slew_8h.html#a9f8b8ae577ef938622024545711f0151" xlink:title="Sets the motor speed ignoring the slew controller. ">
<polygon fill="none" stroke="#000000" points="232.9551,-113.5 232.9551,-131.5 345.1074,-131.5 345.1074,-113.5 232.9551,-113.5"/>
<text text-anchor="middle" x="289.0313" y="-119.5" font-family="Helvetica,sans-Serif" font-size="10.00" fill="#000000">set_motor_immediate</text>
</a>
</g>
</g>
<!-- Node1&#45;&gt;Node2 -->
<g id="edge2" class="edge">
<title>Node1&#45;&gt;Node2</title>
<path fill="none" stroke="#191970" d="M184.4723,-122.5C196.014,-122.5 209.4632,-122.5 222.797,-122.5"/>
<polygon fill="#191970" stroke="#191970" points="222.9375,-126.0001 232.9374,-122.5 222.9374,-119.0001 222.9375,-126.0001"/>
</g>
<!-- Node3 -->
<g id="node4" class="node">
<title>Node3</title>
<g id="a_node4"><a xlink:href="$log_8h.html#af3668f40d1ad1b4f3418869ac9a31f34" xlink:title="prints a info message ">
<polygon fill="none" stroke="#000000" points="386.3784,-113.5 386.3784,-131.5 430.186,-131.5 430.186,-113.5 386.3784,-113.5"/>
<text text-anchor="middle" x="408.2822" y="-119.5" font-family="Helvetica,sans-Serif" font-size="10.00" fill="#000000">debug</text>
</a>
</g>
</g>
<!-- Node2&#45;&gt;Node3 -->
<g id="edge3" class="edge">
<title>Node2&#45;&gt;Node3</title>
<path fill="none" stroke="#191970" d="M345.1648,-122.5C355.7867,-122.5 366.5567,-122.5 376.1206,-122.5"/>
<polygon fill="#191970" stroke="#191970" points="376.3338,-126.0001 386.3338,-122.5 376.3338,-119.0001 376.3338,-126.0001"/>
</g>
<!-- Node4 -->
<g id="node5" class="node">
<title>Node4</title>
<g id="a_node5"><a xlink:href="$slew_8c.html#a321758941d88b75783955c819bb75005" xlink:title="Initializes the slew rate controller. ">
<polygon fill="none" stroke="#000000" points="381.1074,-150.5 381.1074,-168.5 435.457,-168.5 435.457,-150.5 381.1074,-150.5"/>
<text text-anchor="middle" x="408.2822" y="-156.5" font-family="Helvetica,sans-Serif" font-size="10.00" fill="#000000">init_slew</text>
</a>
</g>
</g>
<!-- Node2&#45;&gt;Node4 -->
<g id="edge4" class="edge">
<title>Node2&#45;&gt;Node4</title>
<path fill="none" stroke="#191970" d="M318.2033,-131.5512C334.2274,-136.523 354.2628,-142.7394 371.3669,-148.0463"/>
<polygon fill="#191970" stroke="#191970" points="370.4582,-151.4289 381.0463,-151.0495 372.5326,-144.7433 370.4582,-151.4289"/>
</g>
<!-- Node5 -->
<g id="node6" class="node">
<title>Node5</title>
<g id="a_node6"><a xlink:href="$log_8h.html#a0bec2cf5fff7f607bc510b74aba9887c" xlink:title="prints a warning message and displays on lcd. Only will print and display if log_level is greater tha...">
<polygon fill="none" stroke="#000000" points="484.521,-150.5 484.521,-168.5 535.5405,-168.5 535.5405,-150.5 484.521,-150.5"/>
<text text-anchor="middle" x="510.0308" y="-156.5" font-family="Helvetica,sans-Serif" font-size="10.00" fill="#000000">warning</text>
</a>
</g>
</g>
<!-- Node4&#45;&gt;Node5 -->
<g id="edge5" class="edge">
<title>Node4&#45;&gt;Node5</title>
<path fill="none" stroke="#191970" d="M435.549,-159.5C447.414,-159.5 461.4804,-159.5 474.176,-159.5"/>
<polygon fill="#191970" stroke="#191970" points="474.4395,-163.0001 484.4395,-159.5 474.4394,-156.0001 474.4395,-163.0001"/>
</g>
<!-- Node7 -->
<g id="node8" class="node">
<title>Node7</title>
<g id="a_node8"><a xlink:href="$log_8h.html#a1606d750e1bb8de9f9e917172bba3382" xlink:title="prints a info message ">
<polygon fill="none" stroke="#000000" points="493.9692,-113.5 493.9692,-131.5 526.0923,-131.5 526.0923,-113.5 493.9692,-113.5"/>
<text text-anchor="middle" x="510.0308" y="-119.5" font-family="Helvetica,sans-Serif" font-size="10.00" fill="#000000">info</text>
</a>
</g>
</g>
<!-- Node4&#45;&gt;Node7 -->
<g id="edge7" class="edge">
<title>Node4&#45;&gt;Node7</title>
<path fill="none" stroke="#191970" d="M433.1727,-150.4488C448.7129,-144.7977 468.6747,-137.5388 484.3598,-131.835"/>
<polygon fill="#191970" stroke="#191970" points="485.7584,-135.0507 493.9602,-128.3439 483.3661,-128.4722 485.7584,-135.0507"/>
</g>
<!-- Node8 -->
<g id="node9" class="node">
<title>Node8</title>
<g id="a_node9"><a xlink:href="$slew_8c.html#a807a87c5df438fde21c1e8213906695b" xlink:title="Closes the distance between the desired motor value and the current motor value by half for each moto...">
<polygon fill="none" stroke="#000000" points="471.457,-76.5 471.457,-94.5 548.6045,-94.5 548.6045,-76.5 471.457,-76.5"/>
<text text-anchor="middle" x="510.0308" y="-82.5" font-family="Helvetica,sans-Serif" font-size="10.00" fill="#000000">updateMotors</text>
</a>
</g>
</g>
<!-- Node4&#45;&gt;Node8 -->
<g id="edge8" class="edge">
<title>Node4&#45;&gt;Node8</title>
<path fill="none" stroke="#191970" d="M423.3876,-150.3707C427.4413,-147.689 431.7308,-144.6305 435.457,-141.5 453.2698,-126.5354 452.5838,-117.1027 471.457,-103.5 473.5029,-102.0255 475.6887,-100.6242 477.9409,-99.3029"/>
<polygon fill="#191970" stroke="#191970" points="479.597,-102.3864 486.8001,-94.6169 476.324,-96.1987 479.597,-102.3864"/>
</g>
<!-- Node6 -->
<g id="node7" class="node">
<title>Node6</title>
<g id="a_node7"><a xlink:href="$log_8c.html#afff22aff6749311a684a559cac3ac8bd" xlink:title="log_info">
<polygon fill="none" stroke="#000000" points="584.6045,-150.5 584.6045,-168.5 635.6338,-168.5 635.6338,-150.5 584.6045,-150.5"/>
<text text-anchor="middle" x="610.1191" y="-156.5" font-family="Helvetica,sans-Serif" font-size="10.00" fill="#000000">log_info</text>
</a>
</g>
</g>
<!-- Node5&#45;&gt;Node6 -->
<g id="edge6" class="edge">
<title>Node5&#45;&gt;Node6</title>
<path fill="none" stroke="#191970" d="M535.5463,-159.5C547.2202,-159.5 561.2601,-159.5 573.9937,-159.5"/>
<polygon fill="#191970" stroke="#191970" points="574.3023,-163.0001 584.3022,-159.5 574.3022,-156.0001 574.3023,-163.0001"/>
</g>
<!-- Node10&#45;&gt;Node5 -->
<g id="edge11" class="edge">
<title>Node10&#45;&gt;Node5</title>
<path fill="none" stroke="#191970" d="M423.3876,-94.6293C427.4413,-97.311 431.7308,-100.3695 435.457,-103.5 453.2698,-118.4646 452.5838,-127.8973 471.457,-141.5 473.5029,-142.9745 475.6887,-144.3758 477.9409,-145.6971"/>
<polygon fill="#191970" stroke="#191970" points="476.324,-148.8013 486.8001,-150.3831 479.597,-142.6136 476.324,-148.8013"/>
</g>
<!-- Node10&#45;&gt;Node7 -->
<g id="edge12" class="edge">
<title>Node10&#45;&gt;Node7</title>
<path fill="none" stroke="#191970" d="M433.1727,-94.5512C448.7129,-100.2023 468.6747,-107.4612 484.3598,-113.165"/>
<polygon fill="#191970" stroke="#191970" points="483.3661,-116.5278 493.9602,-116.6561 485.7584,-109.9493 483.3661,-116.5278"/>
</g>
<!-- Node10&#45;&gt;Node8 -->
<g id="edge13" class="edge">
<title>Node10&#45;&gt;Node8</title>
<path fill="none" stroke="#191970" d="M435.549,-85.5C443.4186,-85.5 452.2565,-85.5 461.0206,-85.5"/>
<polygon fill="#191970" stroke="#191970" points="461.2125,-89.0001 471.2125,-85.5 461.2124,-82.0001 461.2125,-89.0001"/>
</g>
<!-- Node11&#45;&gt;Node2 -->
<g id="edge15" class="edge">
<title>Node11&#45;&gt;Node2</title>
<path fill="none" stroke="#191970" d="M184.1255,-94.1749C202.5329,-99.145 225.8765,-105.4479 245.8677,-110.8456"/>
<polygon fill="#191970" stroke="#191970" points="245.1066,-114.2654 255.6732,-113.4931 246.9313,-107.5074 245.1066,-114.2654"/>
</g>
<!-- Node12&#45;&gt;Node2 -->
<g id="edge17" class="edge">
<title>Node12&#45;&gt;Node2</title>
<path fill="none" stroke="#191970" d="M185.5194,-150.4488C203.6025,-145.5662 226.131,-139.4834 245.5492,-134.2404"/>
<polygon fill="#191970" stroke="#191970" points="246.6381,-137.5718 255.3801,-131.586 244.8134,-130.8138 246.6381,-137.5718"/>
</g>
<!-- Node14 -->
<g id="node15" class="node">
<title>Node14</title>
<g id="a_node15"><a xlink:href="$slew_8h.html#a7dff2b79dffe55fb936d977594d7c01d" xlink:title="Sets motor speed wrapped inside the slew rate controller. ">
<polygon fill="none" stroke="#000000" points="246.0166,-150.5 246.0166,-168.5 332.0459,-168.5 332.0459,-150.5 246.0166,-150.5"/>
<text text-anchor="middle" x="289.0313" y="-156.5" font-family="Helvetica,sans-Serif" font-size="10.00" fill="#000000">set_motor_slew</text>
</a>
</g>
</g>
<!-- Node13&#45;&gt;Node14 -->
<g id="edge19" class="edge">
<title>Node13&#45;&gt;Node14</title>
<path fill="none" stroke="#191970" d="M185.5194,-187.4488C203.6025,-182.5662 226.131,-176.4834 245.5492,-171.2404"/>
<polygon fill="#191970" stroke="#191970" points="246.6381,-174.5718 255.3801,-168.586 244.8134,-167.8138 246.6381,-174.5718"/>
</g>
<!-- Node14&#45;&gt;Node3 -->
<g id="edge20" class="edge">
<title>Node14&#45;&gt;Node3</title>
<path fill="none" stroke="#191970" d="M318.2033,-150.4488C335.8898,-144.9612 358.4631,-137.9574 376.5878,-132.3338"/>
<polygon fill="#191970" stroke="#191970" points="377.6266,-135.6762 386.1402,-129.37 375.5522,-128.9906 377.6266,-135.6762"/>
</g>
<!-- Node14&#45;&gt;Node4 -->
<g id="edge21" class="edge">
<title>Node14&#45;&gt;Node4</title>
<path fill="none" stroke="#191970" d="M332.0836,-159.5C344.6739,-159.5 358.3352,-159.5 370.5674,-159.5"/>
<polygon fill="#191970" stroke="#191970" points="370.8863,-163.0001 380.8862,-159.5 370.8862,-156.0001 370.8863,-163.0001"/>
</g>
</g>
</svg>
