<?xml version="1.0" encoding="UTF-8" standalone="no"?>
<!DOCTYPE svg PUBLIC "-//W3C//DTD SVG 1.1//EN"
 "http://www.w3.org/Graphics/SVG/1.1/DTD/svg11.dtd">
<!-- Generated by graphviz version 2.40.1 (20161225.0304)
 -->
<!-- Title: initialize Pages: 1 -->
<!--zoomable 404 -->
<svg id="main" version="1.1" xmlns="http://www.w3.org/2000/svg" xmlns:xlink="http://www.w3.org/1999/xlink" xml:space="preserve" onload="init(evt)">
<style type="text/css"><![CDATA[
.edge:hover path { stroke: red; }
.edge:hover polygon { stroke: red; fill: red; }
]]></style>
<script type="text/javascript"><![CDATA[
var edges = document.getElementsByTagName('g');
if (edges && edges.length) {
  for (var i=0;i<edges.length;i++) {
    if (edges[i].id.substr(0,4)=='edge') {
      edges[i].setAttribute('class','edge');
    }
  }
}
]]></script>
        <defs>
                <circle id="rim" cx="0" cy="0" r="7"/>
                <circle id="rim2" cx="0" cy="0" r="3.5"/>
                <g id="zoomPlus">
                        <use xlink:href="#rim" fill="#404040">
                                <set attributeName="fill" to="#808080" begin="zoomplus.mouseover" end="zoomplus.mouseout"/>
                        </use>
                        <path d="M-4,0h8M0,-4v8" fill="none" stroke="white" stroke-width="1.5" pointer-events="none"/>
                </g>
                <g id="zoomMin">
                        <use xlink:href="#rim" fill="#404040">
                                <set attributeName="fill" to="#808080" begin="zoomminus.mouseover" end="zoomminus.mouseout"/>
                        </use>
                        <path d="M-4,0h8" fill="none" stroke="white" stroke-width="1.5" pointer-events="none"/>
                </g>
                <g id="dirArrow">
                        <path fill="none" stroke="white" stroke-width="1.5" d="M0,-3.0v7 M-2.5,-0.5L0,-3.0L2.5,-0.5"/>
                </g>
               <g id="resetDef">
                       <use xlink:href="#rim2" fill="#404040">
                               <set attributeName="fill" to="#808080" begin="reset.mouseover" end="reset.mouseout"/>
                       </use>
               </g>
        </defs>

<script type="text/javascript">
var viewWidth = 698;
var viewHeight = 404;
var sectionId = 'dynsection-1';
</script>
<script xlink:href="svgpan.js"/>
<svg id="graph" class="graph">
<g id="viewport">
<title>initialize</title>
<!-- Node44 -->
<g id="node1" class="node">
<title>Node44</title>
<polygon fill="#bfbfbf" stroke="#000000" points="0,-151.5 0,-169.5 51.5713,-169.5 51.5713,-151.5 0,-151.5"/>
<text text-anchor="middle" x="25.7856" y="-157.5" font-family="Helvetica,sans-Serif" font-size="10.00" fill="#000000">initialize</text>
</g>
<!-- Node45 -->
<g id="node2" class="node">
<title>Node45</title>
<g id="a_node2"><a xlink:href="battery_8h.html#a1097bbb878f6e2690f8eea6cd231959a" target="_top" xlink:title="returns if the batteries are acceptable ">
<polygon fill="none" stroke="#000000" points="87.5713,-341.5 87.5713,-359.5 214.2012,-359.5 214.2012,-341.5 87.5713,-341.5"/>
<text text-anchor="middle" x="150.8862" y="-347.5" font-family="Helvetica,sans-Serif" font-size="10.00" fill="#000000">battery_level_acceptable</text>
</a>
</g>
</g>
<!-- Node44&#45;&gt;Node45 -->
<g id="edge1" class="edge">
<title>Node44&#45;&gt;Node45</title>
<path fill="none" stroke="#191970" d="M26.6016,-169.8187C29.5168,-197.552 41.829,-280.4821 87.5713,-326.5 91.7654,-330.7194 96.7758,-334.2085 102.1157,-337.0912"/>
<polygon fill="#191970" stroke="#191970" points="100.7858,-340.3329 111.3276,-341.3917 103.747,-333.99 100.7858,-340.3329"/>
</g>
<!-- Node50 -->
<g id="node6" class="node">
<title>Node50</title>
<g id="a_node6"><a xlink:href="log_8h.html#a8e5bb8a2a372f5b066ff7af7044584c1" target="_top" xlink:title="prints a error message and displays on lcd. ">
<polygon fill="none" stroke="#000000" points="440.0796,-228.5 440.0796,-246.5 477.1929,-246.5 477.1929,-228.5 440.0796,-228.5"/>
<text text-anchor="middle" x="458.6362" y="-234.5" font-family="Helvetica,sans-Serif" font-size="10.00" fill="#000000">error</text>
</a>
</g>
</g>
<!-- Node44&#45;&gt;Node50 -->
<g id="edge5" class="edge">
<title>Node44&#45;&gt;Node50</title>
<path fill="none" stroke="#191970" d="M33.1053,-169.7623C43.7132,-182.53 64.6179,-205.3354 87.5713,-217.5 200.4108,-277.3018 245.3561,-268.6144 372.3877,-255.5 391.9182,-253.4837 413.5467,-248.9641 430.2593,-244.9584"/>
<polygon fill="#191970" stroke="#191970" points="431.0999,-248.356 439.9673,-242.5576 429.4194,-241.5607 431.0999,-248.356"/>
</g>
<!-- Node56 -->
<g id="node10" class="node">
<title>Node56</title>
<g id="a_node10"><a xlink:href="log_8h.html#a1606d750e1bb8de9f9e917172bba3382" target="_top" xlink:title="prints a info message ">
<polygon fill="none" stroke="#000000" points="295.2329,-151.5 295.2329,-169.5 327.356,-169.5 327.356,-151.5 295.2329,-151.5"/>
<text text-anchor="middle" x="311.2944" y="-157.5" font-family="Helvetica,sans-Serif" font-size="10.00" fill="#000000">info</text>
</a>
</g>
</g>
<!-- Node44&#45;&gt;Node56 -->
<g id="edge9" class="edge">
<title>Node44&#45;&gt;Node56</title>
<path fill="none" stroke="#191970" d="M51.6262,-160.5C105.6908,-160.5 230.2398,-160.5 284.8364,-160.5"/>
<polygon fill="#191970" stroke="#191970" points="285.0785,-164.0001 295.0785,-160.5 285.0785,-157.0001 285.0785,-164.0001"/>
</g>
<!-- Node57 -->
<g id="node11" class="node">
<title>Node57</title>
<g id="a_node11"><a xlink:href="encoders_8h.html#aa6ec1ca17e907babd52803ecba451cd3" target="_top" xlink:title="Initializes all motor encoders. ">
<polygon fill="none" stroke="#000000" points="273.5532,-303.5 273.5532,-321.5 349.0356,-321.5 349.0356,-303.5 273.5532,-303.5"/>
<text text-anchor="middle" x="311.2944" y="-309.5" font-family="Helvetica,sans-Serif" font-size="10.00" fill="#000000">init_encoders</text>
</a>
</g>
</g>
<!-- Node44&#45;&gt;Node57 -->
<g id="edge11" class="edge">
<title>Node44&#45;&gt;Node57</title>
<path fill="none" stroke="#191970" d="M27.1212,-169.5388C31.192,-193.5453 45.8214,-259.0725 87.5713,-288.5 139.1408,-324.8489 214.6904,-324.8854 263.435,-319.9604"/>
<polygon fill="#191970" stroke="#191970" points="263.8621,-323.4346 273.4114,-318.8455 263.0845,-316.4779 263.8621,-323.4346"/>
</g>
<!-- Node59 -->
<g id="node13" class="node">
<title>Node59</title>
<g id="a_node13"><a xlink:href="log_8h.html#a163f389b4f5cf440a807d8fb48aaa006" target="_top" xlink:title="Initializes the error lcd system Only required if using lcd. ">
<polygon fill="none" stroke="#000000" points="430.9072,-94.5 430.9072,-112.5 486.3652,-112.5 486.3652,-94.5 430.9072,-94.5"/>
<text text-anchor="middle" x="458.6362" y="-100.5" font-family="Helvetica,sans-Serif" font-size="10.00" fill="#000000">init_error</text>
</a>
</g>
</g>
<!-- Node44&#45;&gt;Node59 -->
<g id="edge15" class="edge">
<title>Node44&#45;&gt;Node59</title>
<path fill="none" stroke="#191970" d="M51.8876,-157.0628C125.4056,-147.3815 334.4407,-119.8547 420.6982,-108.4959"/>
<polygon fill="#191970" stroke="#191970" points="421.3744,-111.9371 430.8318,-107.1614 420.4604,-104.9971 421.3744,-111.9371"/>
</g>
<!-- Node61 -->
<g id="node15" class="node">
<title>Node61</title>
<g id="a_node15"><a xlink:href="lcd_8h.html#a93b26f37d6b1687ad54c90feedfd29ca" target="_top" xlink:title="Initializes the lcd screen. ">
<polygon fill="none" stroke="#000000" points="421.4541,-37.5 421.4541,-55.5 495.8184,-55.5 495.8184,-37.5 421.4541,-37.5"/>
<text text-anchor="middle" x="458.6362" y="-43.5" font-family="Helvetica,sans-Serif" font-size="10.00" fill="#000000">init_main_lcd</text>
</a>
</g>
</g>
<!-- Node44&#45;&gt;Node61 -->
<g id="edge19" class="edge">
<title>Node44&#45;&gt;Node61</title>
<path fill="none" stroke="#191970" d="M44.0967,-151.4496C56.2139,-145.724 72.5759,-138.4883 87.5713,-133.5 201.4209,-95.6269 340.1587,-67.7566 411.4051,-54.7205"/>
<polygon fill="#191970" stroke="#191970" points="412.201,-58.1334 421.4161,-52.9054 410.9521,-51.2457 412.201,-58.1334"/>
</g>
<!-- Node64 -->
<g id="node17" class="node">
<title>Node64</title>
<g id="a_node17"><a xlink:href="menu_8h.html#af1bb786cb6014dcbfdb146878e713a3d" target="_top" xlink:title="Creates a menu context, but does not display. ">
<polygon fill="none" stroke="#000000" points="111.48,-189.5 111.48,-207.5 190.2925,-207.5 190.2925,-189.5 111.48,-189.5"/>
<text text-anchor="middle" x="150.8862" y="-195.5" font-family="Helvetica,sans-Serif" font-size="10.00" fill="#000000">init_menu_var</text>
</a>
</g>
</g>
<!-- Node44&#45;&gt;Node64 -->
<g id="edge23" class="edge">
<title>Node44&#45;&gt;Node64</title>
<path fill="none" stroke="#191970" d="M51.7066,-168.3736C68.8929,-173.5941 91.7756,-180.5448 111.2304,-186.4543"/>
<polygon fill="#191970" stroke="#191970" points="110.4576,-189.8774 121.0432,-189.435 112.4922,-183.1796 110.4576,-189.8774"/>
</g>
<!-- Node66 -->
<g id="node19" class="node">
<title>Node66</title>
<g id="a_node19"><a xlink:href="_a_p_i_8h.html#a22269cefc22e487f7acdcc4737d58c4a" target="_top" xlink:title="Sets the team name displayed to the VEX field control and VEX Firmware Upgrade. ">
<polygon fill="none" stroke="#000000" points="110.6523,-37.5 110.6523,-55.5 191.1201,-55.5 191.1201,-37.5 110.6523,-37.5"/>
<text text-anchor="middle" x="150.8862" y="-43.5" font-family="Helvetica,sans-Serif" font-size="10.00" fill="#000000">setTeamName</text>
</a>
</g>
</g>
<!-- Node44&#45;&gt;Node66 -->
<g id="edge27" class="edge">
<title>Node44&#45;&gt;Node66</title>
<path fill="none" stroke="#191970" d="M29.6872,-151.4934C37.8708,-133.5979 58.5059,-93.3269 87.5713,-70.5 93.0995,-66.1583 99.4997,-62.5354 106.0628,-59.5325"/>
<polygon fill="#191970" stroke="#191970" points="107.7947,-62.6047 115.7125,-55.5648 105.1328,-56.1306 107.7947,-62.6047"/>
</g>
<!-- Node67 -->
<g id="node20" class="node">
<title>Node67</title>
<g id="a_node20"><a xlink:href="_a_p_i_8h.html#aed267558847e901e3741bd031c4fc83d" target="_top" xlink:title="Initializes an ultrasonic sensor on the specified digital ports. ">
<polygon fill="none" stroke="#000000" points="114.8174,-.5 114.8174,-18.5 186.9551,-18.5 186.9551,-.5 114.8174,-.5"/>
<text text-anchor="middle" x="150.8862" y="-6.5" font-family="Helvetica,sans-Serif" font-size="10.00" fill="#000000">ultrasonicInit</text>
</a>
</g>
</g>
<!-- Node44&#45;&gt;Node67 -->
<g id="edge28" class="edge">
<title>Node44&#45;&gt;Node67</title>
<path fill="none" stroke="#191970" d="M27.3701,-151.1574C31.9794,-126.9196 47.6754,-61.5458 87.5713,-27.5 92.5914,-23.216 98.5686,-19.9489 104.8156,-17.4577"/>
<polygon fill="#191970" stroke="#191970" points="106.3739,-20.6278 114.7557,-14.1473 104.1621,-13.9865 106.3739,-20.6278"/>
</g>
<!-- Node46 -->
<g id="node3" class="node">
<title>Node46</title>
<g id="a_node3"><a xlink:href="battery_8c.html#a9b1c5cf7ddddebf63796050a1d4a9969" target="_top" xlink:title="gets the backup battery voltage ">
<polygon fill="none" stroke="#000000" points="250.2012,-377.5 250.2012,-395.5 372.3877,-395.5 372.3877,-377.5 250.2012,-377.5"/>
<text text-anchor="middle" x="311.2944" y="-383.5" font-family="Helvetica,sans-Serif" font-size="10.00" fill="#000000">backup_battery_voltage</text>
</a>
</g>
</g>
<!-- Node45&#45;&gt;Node46 -->
<g id="edge2" class="edge">
<title>Node45&#45;&gt;Node46</title>
<path fill="none" stroke="#191970" d="M191.364,-359.5843C212.5316,-364.3349 238.6383,-370.194 261.0836,-375.2313"/>
<polygon fill="#191970" stroke="#191970" points="260.584,-378.7062 271.1077,-377.481 262.1169,-371.8761 260.584,-378.7062"/>
</g>
<!-- Node48 -->
<g id="node5" class="node">
<title>Node48</title>
<g id="a_node5"><a xlink:href="battery_8c.html#a8c92c389534fdb079698cdebeb7f2efa" target="_top" xlink:title="gets the main battery voltage ">
<polygon fill="none" stroke="#ff0000" points="255.4868,-340.5 255.4868,-358.5 367.1021,-358.5 367.1021,-340.5 255.4868,-340.5"/>
<text text-anchor="middle" x="311.2944" y="-346.5" font-family="Helvetica,sans-Serif" font-size="10.00" fill="#000000">main_battery_voltage</text>
</a>
</g>
</g>
<!-- Node45&#45;&gt;Node48 -->
<g id="edge4" class="edge">
<title>Node45&#45;&gt;Node48</title>
<path fill="none" stroke="#191970" d="M214.2838,-350.1048C224.464,-350.0413 235.0225,-349.9755 245.2627,-349.9116"/>
<polygon fill="#191970" stroke="#191970" points="245.3929,-353.411 255.3709,-349.8486 245.3492,-346.4111 245.3929,-353.411"/>
</g>
<!-- Node47 -->
<g id="node4" class="node">
<title>Node47</title>
<g id="a_node4"><a xlink:href="_a_p_i_8h.html#a91ac9eacbf0930cd5f26bc12b90b9efd" target="_top" xlink:title="Returns the backup battery voltage in millivolts. ">
<polygon fill="none" stroke="#000000" points="408.3877,-377.5 408.3877,-395.5 508.8848,-395.5 508.8848,-377.5 408.3877,-377.5"/>
<text text-anchor="middle" x="458.6362" y="-383.5" font-family="Helvetica,sans-Serif" font-size="10.00" fill="#000000">powerLevelBackup</text>
</a>
</g>
</g>
<!-- Node46&#45;&gt;Node47 -->
<g id="edge3" class="edge">
<title>Node46&#45;&gt;Node47</title>
<path fill="none" stroke="#191970" d="M372.5006,-386.5C380.9323,-386.5 389.5883,-386.5 398.0095,-386.5"/>
<polygon fill="#191970" stroke="#191970" points="398.1341,-390.0001 408.1341,-386.5 398.134,-383.0001 398.1341,-390.0001"/>
</g>
<!-- Node51 -->
<g id="node7" class="node">
<title>Node51</title>
<g id="a_node7"><a xlink:href="log_8c.html#afff22aff6749311a684a559cac3ac8bd" target="_top" xlink:title="prints a log info message to the lcd ">
<polygon fill="none" stroke="#ff0000" points="547.3799,-151.5 547.3799,-169.5 598.4092,-169.5 598.4092,-151.5 547.3799,-151.5"/>
<text text-anchor="middle" x="572.8945" y="-157.5" font-family="Helvetica,sans-Serif" font-size="10.00" fill="#000000">log_info</text>
</a>
</g>
</g>
<!-- Node50&#45;&gt;Node51 -->
<g id="edge6" class="edge">
<title>Node50&#45;&gt;Node51</title>
<path fill="none" stroke="#191970" d="M472.1918,-228.3647C491.6049,-215.282 527.545,-191.0616 550.8238,-175.3737"/>
<polygon fill="#191970" stroke="#191970" points="553.0199,-178.1144 559.3566,-169.6234 549.1079,-172.3095 553.0199,-178.1144"/>
</g>
<!-- Node52 -->
<g id="node8" class="node">
<title>Node52</title>
<g id="a_node8"><a xlink:href="_a_p_i_8h.html#a403c82418e475fa4a8273719e6a7f3e6" target="_top" xlink:title="Prints the formatted string to the debug stream (the PC terminal). ">
<polygon fill="none" stroke="#000000" points="644.1284,-170.5 644.1284,-188.5 682.3599,-188.5 682.3599,-170.5 644.1284,-170.5"/>
<text text-anchor="middle" x="663.2441" y="-176.5" font-family="Helvetica,sans-Serif" font-size="10.00" fill="#000000">printf</text>
</a>
</g>
</g>
<!-- Node51&#45;&gt;Node52 -->
<g id="edge7" class="edge">
<title>Node51&#45;&gt;Node52</title>
<path fill="none" stroke="#191970" d="M598.5434,-165.8938C609.5677,-168.2122 622.5131,-170.9345 633.9159,-173.3324"/>
<polygon fill="#191970" stroke="#191970" points="633.3487,-176.7896 643.8549,-175.4226 634.7893,-169.9395 633.3487,-176.7896"/>
</g>
<!-- Node54 -->
<g id="node9" class="node">
<title>Node54</title>
<g id="a_node9"><a xlink:href="_a_p_i_8h.html#a5fa1d119fe3e836b5519f97eae7a1272" target="_top" xlink:title="Clears the LCD screen on the specified port. ">
<polygon fill="none" stroke="#000000" points="636.9043,-75.5 636.9043,-93.5 689.584,-93.5 689.584,-75.5 636.9043,-75.5"/>
<text text-anchor="middle" x="663.2441" y="-81.5" font-family="Helvetica,sans-Serif" font-size="10.00" fill="#000000">lcdClear</text>
</a>
</g>
</g>
<!-- Node51&#45;&gt;Node54 -->
<g id="edge8" class="edge">
<title>Node51&#45;&gt;Node54</title>
<path fill="none" stroke="#191970" d="M583.6136,-151.4834C598.6928,-138.7991 626.3822,-115.5074 644.8051,-100.0105"/>
<polygon fill="#191970" stroke="#191970" points="647.1394,-102.6206 652.539,-93.5049 642.6333,-97.2637 647.1394,-102.6206"/>
</g>
<!-- Node56&#45;&gt;Node51 -->
<g id="edge10" class="edge">
<title>Node56&#45;&gt;Node51</title>
<path fill="none" stroke="#191970" d="M327.6587,-160.5C369.2532,-160.5 479.7869,-160.5 537.1811,-160.5"/>
<polygon fill="#191970" stroke="#191970" points="537.2508,-164.0001 547.2508,-160.5 537.2508,-157.0001 537.2508,-164.0001"/>
</g>
<!-- Node57&#45;&gt;Node50 -->
<g id="edge12" class="edge">
<title>Node57&#45;&gt;Node50</title>
<path fill="none" stroke="#191970" d="M340.2656,-303.4949C350.7704,-299.6253 362.4813,-294.5802 372.3877,-288.5 390.6325,-277.3019 390.0715,-267.5809 408.3877,-256.5 415.0808,-252.4508 422.782,-249.0154 430.1124,-246.2262"/>
<polygon fill="#191970" stroke="#191970" points="431.483,-249.4541 439.7488,-242.8264 429.154,-242.8529 431.483,-249.4541"/>
</g>
<!-- Node57&#45;&gt;Node52 -->
<g id="edge14" class="edge">
<title>Node57&#45;&gt;Node52</title>
<path fill="none" stroke="#191970" d="M349.0618,-314.7389C389.8619,-315.8354 456.1102,-313.7265 508.8848,-293.5 566.3961,-271.4581 621.3443,-221.7981 647.4376,-195.9052"/>
<polygon fill="#191970" stroke="#191970" points="650.0327,-198.2588 654.5801,-188.6894 645.0577,-193.3343 650.0327,-198.2588"/>
</g>
<!-- Node58 -->
<g id="node12" class="node">
<title>Node58</title>
<g id="a_node12"><a xlink:href="_a_p_i_8h.html#a868ab46aa5992e60829936c0109160bf" target="_top" xlink:title="Initializes all IMEs. ">
<polygon fill="none" stroke="#000000" points="418.959,-265.5 418.959,-283.5 498.3135,-283.5 498.3135,-265.5 418.959,-265.5"/>
<text text-anchor="middle" x="458.6362" y="-271.5" font-family="Helvetica,sans-Serif" font-size="10.00" fill="#000000">imeInitializeAll</text>
</a>
</g>
</g>
<!-- Node57&#45;&gt;Node58 -->
<g id="edge13" class="edge">
<title>Node57&#45;&gt;Node58</title>
<path fill="none" stroke="#191970" d="M346.2124,-303.4945C366.4152,-298.2841 392.0536,-291.6719 413.7432,-286.0781"/>
<polygon fill="#191970" stroke="#191970" points="414.9048,-289.3931 423.7139,-283.5066 413.1567,-282.6149 414.9048,-289.3931"/>
</g>
<!-- Node59&#45;&gt;Node52 -->
<g id="edge18" class="edge">
<title>Node59&#45;&gt;Node52</title>
<path fill="none" stroke="#191970" d="M486.422,-108.4657C515.68,-114.2537 562.7088,-125.1611 600.9043,-141.5 615.2492,-147.6363 630.2122,-156.6572 641.8822,-164.3699"/>
<polygon fill="#191970" stroke="#191970" points="640.2215,-167.4729 650.4607,-170.1948 644.1538,-161.6817 640.2215,-167.4729"/>
</g>
<!-- Node59&#45;&gt;Node54 -->
<g id="edge16" class="edge">
<title>Node59&#45;&gt;Node54</title>
<path fill="none" stroke="#191970" d="M486.6571,-100.898C523.0269,-97.5206 586.5724,-91.6198 626.6973,-87.8938"/>
<polygon fill="#191970" stroke="#191970" points="627.2235,-91.36 636.857,-86.9503 626.5762,-84.39 627.2235,-91.36"/>
</g>
<!-- Node60 -->
<g id="node14" class="node">
<title>Node60</title>
<g id="a_node14"><a xlink:href="_a_p_i_8h.html#a43dc11a67b697c0d32315ea5a9af85f9" target="_top" xlink:title="Initializes the LCD port, but does not change the text or settings. ">
<polygon fill="none" stroke="#000000" points="551.833,-37.5 551.833,-55.5 593.9561,-55.5 593.9561,-37.5 551.833,-37.5"/>
<text text-anchor="middle" x="572.8945" y="-43.5" font-family="Helvetica,sans-Serif" font-size="10.00" fill="#000000">lcdInit</text>
</a>
</g>
</g>
<!-- Node59&#45;&gt;Node60 -->
<g id="edge17" class="edge">
<title>Node59&#45;&gt;Node60</title>
<path fill="none" stroke="#191970" d="M476.7408,-94.4682C495.1848,-85.267 524.0239,-70.8801 545.3114,-60.2604"/>
<polygon fill="#191970" stroke="#191970" points="547.1104,-63.2743 554.4963,-55.6783 543.9856,-57.0105 547.1104,-63.2743"/>
</g>
<!-- Node61&#45;&gt;Node60 -->
<g id="edge22" class="edge">
<title>Node61&#45;&gt;Node60</title>
<path fill="none" stroke="#191970" d="M496.0487,-46.5C510.7778,-46.5 527.4999,-46.5 541.5754,-46.5"/>
<polygon fill="#191970" stroke="#191970" points="541.7463,-50.0001 551.7463,-46.5 541.7463,-43.0001 541.7463,-50.0001"/>
</g>
<!-- Node62 -->
<g id="node16" class="node">
<title>Node62</title>
<g id="a_node16"><a xlink:href="lcd_8c.html#a35c08b1fa742e650f4873939707b893b" target="_top" xlink:title="Clears the lcd. ">
<polygon fill="none" stroke="#ff0000" points="544.8848,-.5 544.8848,-18.5 600.9043,-18.5 600.9043,-.5 544.8848,-.5"/>
<text text-anchor="middle" x="572.8945" y="-6.5" font-family="Helvetica,sans-Serif" font-size="10.00" fill="#000000">lcd_clear</text>
</a>
</g>
</g>
<!-- Node61&#45;&gt;Node62 -->
<g id="edge20" class="edge">
<title>Node61&#45;&gt;Node62</title>
<path fill="none" stroke="#191970" d="M486.587,-37.4488C501.2496,-32.7006 519.4175,-26.8173 535.2968,-21.6752"/>
<polygon fill="#191970" stroke="#191970" points="536.401,-24.9966 544.8364,-18.586 534.2444,-18.3371 536.401,-24.9966"/>
</g>
<!-- Node62&#45;&gt;Node54 -->
<g id="edge21" class="edge">
<title>Node62&#45;&gt;Node54</title>
<path fill="none" stroke="#191970" d="M588.0423,-18.5732C592.3037,-21.3012 596.8732,-24.3976 600.9043,-27.5 617.4925,-40.2664 634.9625,-56.5163 647.1743,-68.3966"/>
<polygon fill="#191970" stroke="#191970" points="644.7973,-70.9681 654.3777,-75.4921 649.7096,-65.9811 644.7973,-70.9681"/>
</g>
<!-- Node64&#45;&gt;Node52 -->
<g id="edge26" class="edge">
<title>Node64&#45;&gt;Node52</title>
<path fill="none" stroke="#191970" d="M190.6638,-197.0249C289.8728,-193.3459 546.5299,-183.8282 633.7393,-180.5941"/>
<polygon fill="#191970" stroke="#191970" points="634.1102,-184.0829 643.9736,-180.2146 633.8507,-177.0877 634.1102,-184.0829"/>
</g>
<!-- Node65 -->
<g id="node18" class="node">
<title>Node65</title>
<g id="a_node18"><a xlink:href="menu_8c.html#aff4fd27ff7707295d91c67fa52a6b021" target="_top" xlink:title="Static function that handles creation of menu. ">
<polygon fill="none" stroke="#000000" points="274.1099,-227.5 274.1099,-245.5 348.479,-245.5 348.479,-227.5 274.1099,-227.5"/>
<text text-anchor="middle" x="311.2944" y="-233.5" font-family="Helvetica,sans-Serif" font-size="10.00" fill="#000000">create_menu</text>
</a>
</g>
</g>
<!-- Node64&#45;&gt;Node65 -->
<g id="edge24" class="edge">
<title>Node64&#45;&gt;Node65</title>
<path fill="none" stroke="#191970" d="M188.9007,-207.5055C211.4369,-212.8442 240.1858,-219.6547 264.1572,-225.3334"/>
<polygon fill="#191970" stroke="#191970" points="263.5686,-228.7908 274.1062,-227.6903 265.1823,-221.9793 263.5686,-228.7908"/>
</g>
<!-- Node65&#45;&gt;Node50 -->
<g id="edge25" class="edge">
<title>Node65&#45;&gt;Node50</title>
<path fill="none" stroke="#191970" d="M348.8562,-236.7549C374.0289,-236.9258 406.6742,-237.1473 429.8036,-237.3043"/>
<polygon fill="#191970" stroke="#191970" points="429.9856,-240.8055 440.0091,-237.3736 430.0332,-233.8057 429.9856,-240.8055"/>
</g>
</g>
</svg>
        <g id="navigator" transform="translate(0 0)" fill="#404254">
                <rect fill="#f2f5e9" fill-opacity="0.5" stroke="#606060" stroke-width=".5" x="0" y="0" width="60" height="60"/>
                <use id="zoomplus" xlink:href="#zoomPlus" x="17" y="9" onmousedown="handleZoom(evt,'in')"/>
                <use id="zoomminus" xlink:href="#zoomMin" x="42" y="9" onmousedown="handleZoom(evt,'out')"/>
                <use id="reset" xlink:href="#resetDef" x="30" y="36" onmousedown="handleReset()"/>
                <g id="arrowUp" xlink:href="#dirArrow" transform="translate(30 24)" onmousedown="handlePan(0,-1)">
                  <use xlink:href="#rim" fill="#404040">
                        <set attributeName="fill" to="#808080" begin="arrowUp.mouseover" end="arrowUp.mouseout"/>
                  </use>
                  <path fill="none" stroke="white" stroke-width="1.5" d="M0,-3.0v7 M-2.5,-0.5L0,-3.0L2.5,-0.5"/>
                </g>
                <g id="arrowRight" xlink:href="#dirArrow" transform="rotate(90) translate(36 -43)" onmousedown="handlePan(1,0)">
                  <use xlink:href="#rim" fill="#404040">
                        <set attributeName="fill" to="#808080" begin="arrowRight.mouseover" end="arrowRight.mouseout"/>
                  </use>
                  <path fill="none" stroke="white" stroke-width="1.5" d="M0,-3.0v7 M-2.5,-0.5L0,-3.0L2.5,-0.5"/>
                </g>
                <g id="arrowDown" xlink:href="#dirArrow" transform="rotate(180) translate(-30 -48)" onmousedown="handlePan(0,1)">
                  <use xlink:href="#rim" fill="#404040">
                        <set attributeName="fill" to="#808080" begin="arrowDown.mouseover" end="arrowDown.mouseout"/>
                  </use>
                  <path fill="none" stroke="white" stroke-width="1.5" d="M0,-3.0v7 M-2.5,-0.5L0,-3.0L2.5,-0.5"/>
                </g>
                <g id="arrowLeft" xlink:href="#dirArrow" transform="rotate(270) translate(-36 17)" onmousedown="handlePan(-1,0)">
                  <use xlink:href="#rim" fill="#404040">
                        <set attributeName="fill" to="#808080" begin="arrowLeft.mouseover" end="arrowLeft.mouseout"/>
                  </use>
                  <path fill="none" stroke="white" stroke-width="1.5" d="M0,-3.0v7 M-2.5,-0.5L0,-3.0L2.5,-0.5"/>
                </g>
        </g>
        <svg viewBox="0 0 15 15" width="100%" height="30px" preserveAspectRatio="xMaxYMin meet">
         <g id="arrow_out" transform="scale(0.3 0.3)">
          <a xlink:href="main_8h_a25a40b6614565f755233080a384c35f1_cgraph_org.svg" target="_base">
           <rect id="button" ry="5" rx="5" y="6" x="6" height="38" width="38"
                fill="#f2f5e9" fill-opacity="0.5" stroke="#606060" stroke-width="1.0"/>
           <path id="arrow"
             d="M 11.500037,31.436501 C 11.940474,20.09759 22.043105,11.32322 32.158766,21.979434 L 37.068811,17.246167 C 37.068811,17.246167 37.088388,32 37.088388,32 L 22.160133,31.978069 C 22.160133,31.978069 26.997745,27.140456 26.997745,27.140456 C 18.528582,18.264221 13.291696,25.230495 11.500037,31.436501 z"
             style="fill:#404040;"/>
          </a>
         </g>
        </svg>
</svg>
