<?xml version="1.0" encoding="UTF-8" standalone="no"?>
<!DOCTYPE svg PUBLIC "-//W3C//DTD SVG 1.1//EN"
 "http://www.w3.org/Graphics/SVG/1.1/DTD/svg11.dtd">
<!-- Generated by graphviz version 2.40.1 (20161225.0304)
 -->
<!-- Title: initialize Pages: 1 -->
<svg width="297pt" height="212pt"
 viewBox="0.00 0.00 296.97 212.00" xmlns="http://www.w3.org/2000/svg" xmlns:xlink="http://www.w3.org/1999/xlink">
<g id="graph0" class="graph" transform="scale(1 1) rotate(0) translate(4 208)">
<title>initialize</title>
<!-- Node3 -->
<g id="node1" class="node">
<title>Node3</title>
<polygon fill="#bfbfbf" stroke="#000000" points="0,-92.5 0,-110.5 51.5713,-110.5 51.5713,-92.5 0,-92.5"/>
<text text-anchor="middle" x="25.7856" y="-98.5" font-family="Helvetica,sans-Serif" font-size="10.00" fill="#000000">initialize</text>
</g>
<!-- Node4 -->
<g id="node2" class="node">
<title>Node4</title>
<g id="a_node2"><a xlink:href="_a_p_i_8h.html#aab54c390b2ff91b5b7861db877136392" target="_top" xlink:title="analogCalibrate">
<polygon fill="none" stroke="#000000" points="87.5713,-185.5 87.5713,-203.5 173.6201,-203.5 173.6201,-185.5 87.5713,-185.5"/>
<text text-anchor="middle" x="130.5957" y="-191.5" font-family="Helvetica,sans-Serif" font-size="10.00" fill="#000000">analogCalibrate</text>
</a>
</g>
</g>
<!-- Node3&#45;&gt;Node4 -->
<g id="edge1" class="edge">
<title>Node3&#45;&gt;Node4</title>
<path fill="none" stroke="#191970" d="M31.159,-110.5604C40.7249,-126.0037 62.1126,-157.5855 87.5713,-176.5 89.6186,-178.0211 91.8135,-179.4403 94.0887,-180.7598"/>
<polygon fill="#191970" stroke="#191970" points="92.6199,-183.9395 103.1193,-185.3588 95.7966,-177.7018 92.6199,-183.9395"/>
</g>
<!-- Node5 -->
<g id="node3" class="node">
<title>Node5</title>
<g id="a_node3"><a xlink:href="encoders_8h.html#aa6ec1ca17e907babd52803ecba451cd3" target="_top" xlink:title="Initializes all motor encoders. ">
<polygon fill="none" stroke="#000000" points="92.8545,-148.5 92.8545,-166.5 168.3369,-166.5 168.3369,-148.5 92.8545,-148.5"/>
<text text-anchor="middle" x="130.5957" y="-154.5" font-family="Helvetica,sans-Serif" font-size="10.00" fill="#000000">init_encoders</text>
</a>
</g>
</g>
<!-- Node3&#45;&gt;Node5 -->
<g id="edge2" class="edge">
<title>Node3&#45;&gt;Node5</title>
<path fill="none" stroke="#191970" d="M39.1766,-110.5762C51.461,-118.6972 70.3145,-130.6511 87.5713,-139.5 90.863,-141.1879 94.3501,-142.8467 97.8581,-144.4329"/>
<polygon fill="#191970" stroke="#191970" points="96.5059,-147.6614 107.0726,-148.4326 99.2931,-141.2402 96.5059,-147.6614"/>
</g>
<!-- Node7 -->
<g id="node5" class="node">
<title>Node7</title>
<g id="a_node5"><a xlink:href="log_8h.html#a163f389b4f5cf440a807d8fb48aaa006" target="_top" xlink:title="Initializes the error lcd system Only required if using lcd. ">
<polygon fill="none" stroke="#000000" points="102.8667,-111.5 102.8667,-129.5 158.3247,-129.5 158.3247,-111.5 102.8667,-111.5"/>
<text text-anchor="middle" x="130.5957" y="-117.5" font-family="Helvetica,sans-Serif" font-size="10.00" fill="#000000">init_error</text>
</a>
</g>
</g>
<!-- Node3&#45;&gt;Node7 -->
<g id="edge4" class="edge">
<title>Node3&#45;&gt;Node7</title>
<path fill="none" stroke="#191970" d="M51.6938,-106.1966C64.0602,-108.4384 79.098,-111.1645 92.7152,-113.633"/>
<polygon fill="#191970" stroke="#191970" points="92.3197,-117.1183 102.7837,-115.4582 93.5684,-110.2305 92.3197,-117.1183"/>
</g>
<!-- Node9 -->
<g id="node7" class="node">
<title>Node9</title>
<g id="a_node7"><a xlink:href="lcd_8h.html#a93b26f37d6b1687ad54c90feedfd29ca" target="_top" xlink:title="Initializes the lcd screen. Also will initialize the lcd_port var. Must be called before any lcd func...">
<polygon fill="none" stroke="#000000" points="93.4136,-74.5 93.4136,-92.5 167.7778,-92.5 167.7778,-74.5 93.4136,-74.5"/>
<text text-anchor="middle" x="130.5957" y="-80.5" font-family="Helvetica,sans-Serif" font-size="10.00" fill="#000000">init_main_lcd</text>
</a>
</g>
</g>
<!-- Node3&#45;&gt;Node9 -->
<g id="edge6" class="edge">
<title>Node3&#45;&gt;Node9</title>
<path fill="none" stroke="#191970" d="M51.6938,-97.0506C61.1571,-95.4253 72.1847,-93.5315 82.943,-91.6838"/>
<polygon fill="#191970" stroke="#191970" points="83.852,-95.079 93.1153,-89.9369 82.6671,-88.1801 83.852,-95.079"/>
</g>
<!-- Node11 -->
<g id="node9" class="node">
<title>Node11</title>
<g id="a_node9"><a xlink:href="_a_p_i_8h.html#a403c82418e475fa4a8273719e6a7f3e6" target="_top" xlink:title="printf">
<polygon fill="none" stroke="#000000" points="111.48,-37.5 111.48,-55.5 149.7114,-55.5 149.7114,-37.5 111.48,-37.5"/>
<text text-anchor="middle" x="130.5957" y="-43.5" font-family="Helvetica,sans-Serif" font-size="10.00" fill="#000000">printf</text>
</a>
</g>
</g>
<!-- Node3&#45;&gt;Node11 -->
<g id="edge9" class="edge">
<title>Node3&#45;&gt;Node11</title>
<path fill="none" stroke="#191970" d="M40.2602,-92.4473C52.6217,-84.8673 70.983,-73.9621 87.5713,-65.5 92.0628,-63.2088 96.8908,-60.9174 101.6316,-58.7593"/>
<polygon fill="#191970" stroke="#191970" points="103.3814,-61.8121 111.1046,-54.5593 100.5442,-55.4129 103.3814,-61.8121"/>
</g>
<!-- Node12 -->
<g id="node10" class="node">
<title>Node12</title>
<g id="a_node10"><a xlink:href="_a_p_i_8h.html#a22269cefc22e487f7acdcc4737d58c4a" target="_top" xlink:title="setTeamName">
<polygon fill="none" stroke="#000000" points="90.3618,-.5 90.3618,-18.5 170.8296,-18.5 170.8296,-.5 90.3618,-.5"/>
<text text-anchor="middle" x="130.5957" y="-6.5" font-family="Helvetica,sans-Serif" font-size="10.00" fill="#000000">setTeamName</text>
</a>
</g>
</g>
<!-- Node3&#45;&gt;Node12 -->
<g id="edge10" class="edge">
<title>Node3&#45;&gt;Node12</title>
<path fill="none" stroke="#191970" d="M31.4994,-92.073C41.2562,-76.6717 62.5219,-45.9825 87.5713,-27.5 89.6236,-25.9857 91.8223,-24.5715 94.1002,-23.2558"/>
<polygon fill="#191970" stroke="#191970" points="95.8066,-26.3147 103.137,-18.6652 92.6362,-20.0738 95.8066,-26.3147"/>
</g>
<!-- Node6 -->
<g id="node4" class="node">
<title>Node6</title>
<g id="a_node4"><a xlink:href="_a_p_i_8h.html#a868ab46aa5992e60829936c0109160bf" target="_top" xlink:title="imeInitializeAll">
<polygon fill="none" stroke="#000000" points="209.6201,-148.5 209.6201,-166.5 288.9746,-166.5 288.9746,-148.5 209.6201,-148.5"/>
<text text-anchor="middle" x="249.2974" y="-154.5" font-family="Helvetica,sans-Serif" font-size="10.00" fill="#000000">imeInitializeAll</text>
</a>
</g>
</g>
<!-- Node5&#45;&gt;Node6 -->
<g id="edge3" class="edge">
<title>Node5&#45;&gt;Node6</title>
<path fill="none" stroke="#191970" d="M168.48,-157.5C178.2503,-157.5 188.9176,-157.5 199.2045,-157.5"/>
<polygon fill="#191970" stroke="#191970" points="199.3173,-161.0001 209.3172,-157.5 199.3172,-154.0001 199.3173,-161.0001"/>
</g>
<!-- Node8 -->
<g id="node6" class="node">
<title>Node8</title>
<g id="a_node6"><a xlink:href="_a_p_i_8h.html#a51af160afcbfb860dfff75d91ffb3824" target="_top" xlink:title="lcdInit">
<polygon fill="none" stroke="#000000" points="228.2358,-111.5 228.2358,-129.5 270.3589,-129.5 270.3589,-111.5 228.2358,-111.5"/>
<text text-anchor="middle" x="249.2974" y="-117.5" font-family="Helvetica,sans-Serif" font-size="10.00" fill="#000000">lcdInit</text>
</a>
</g>
</g>
<!-- Node7&#45;&gt;Node8 -->
<g id="edge5" class="edge">
<title>Node7&#45;&gt;Node8</title>
<path fill="none" stroke="#191970" d="M158.426,-120.5C176.1835,-120.5 199.2443,-120.5 217.6911,-120.5"/>
<polygon fill="#191970" stroke="#191970" points="217.9442,-124.0001 227.9442,-120.5 217.9441,-117.0001 217.9442,-124.0001"/>
</g>
<!-- Node9&#45;&gt;Node8 -->
<g id="edge8" class="edge">
<title>Node9&#45;&gt;Node8</title>
<path fill="none" stroke="#191970" d="M159.6334,-92.5512C177.3875,-98.0853 200.0886,-105.1613 218.2063,-110.8087"/>
<polygon fill="#191970" stroke="#191970" points="217.4167,-114.2286 228.0052,-113.8631 219.4998,-107.5458 217.4167,-114.2286"/>
</g>
<!-- Node10 -->
<g id="node8" class="node">
<title>Node10</title>
<g id="a_node8"><a xlink:href="_a_p_i_8h.html#aa53f19724bcf9f7bf1b4468b5982553b" target="_top" xlink:title="lcdClear">
<polygon fill="none" stroke="#000000" points="222.9575,-74.5 222.9575,-92.5 275.6372,-92.5 275.6372,-74.5 222.9575,-74.5"/>
<text text-anchor="middle" x="249.2974" y="-80.5" font-family="Helvetica,sans-Serif" font-size="10.00" fill="#000000">lcdClear</text>
</a>
</g>
</g>
<!-- Node9&#45;&gt;Node10 -->
<g id="edge7" class="edge">
<title>Node9&#45;&gt;Node10</title>
<path fill="none" stroke="#191970" d="M167.828,-83.5C182.0232,-83.5 198.1883,-83.5 212.3563,-83.5"/>
<polygon fill="#191970" stroke="#191970" points="212.7358,-87.0001 222.7358,-83.5 212.7357,-80.0001 212.7358,-87.0001"/>
</g>
</g>
</svg>
