<?xml version="1.0" encoding="UTF-8" standalone="no"?>
<!DOCTYPE svg PUBLIC "-//W3C//DTD SVG 1.1//EN"
 "http://www.w3.org/Graphics/SVG/1.1/DTD/svg11.dtd">
<!-- Generated by graphviz version 2.40.1 (20161225.0304)
 -->
<!-- Title: initializeIO Pages: 1 -->
<svg width="187pt" height="64pt"
 viewBox="0.00 0.00 186.60 64.00" xmlns="http://www.w3.org/2000/svg" xmlns:xlink="http://www.w3.org/1999/xlink">
<g id="graph0" class="graph" transform="scale(1 1) rotate(0) translate(4 60)">
<title>initializeIO</title>
<!-- Node13 -->
<g id="node1" class="node">
<title>Node13</title>
<polygon fill="#bfbfbf" stroke="#000000" points="0,-18.5 0,-36.5 62.1279,-36.5 62.1279,-18.5 0,-18.5"/>
<text text-anchor="middle" x="31.064" y="-24.5" font-family="Helvetica,sans-Serif" font-size="10.00" fill="#000000">initializeIO</text>
</g>
<!-- Node14 -->
<g id="node2" class="node">
<title>Node14</title>
<g id="a_node2"><a xlink:href="_a_p_i_8h.html#a22269cefc22e487f7acdcc4737d58c4a" target="_top" xlink:title="setTeamName">
<polygon fill="none" stroke="#000000" points="98.1279,-37.5 98.1279,-55.5 178.5957,-55.5 178.5957,-37.5 98.1279,-37.5"/>
<text text-anchor="middle" x="138.3618" y="-43.5" font-family="Helvetica,sans-Serif" font-size="10.00" fill="#000000">setTeamName</text>
</a>
</g>
</g>
<!-- Node13&#45;&gt;Node14 -->
<g id="edge1" class="edge">
<title>Node13&#45;&gt;Node14</title>
<path fill="none" stroke="#191970" d="M62.3874,-33.0467C70.39,-34.4638 79.1994,-36.0237 87.8967,-37.5638"/>
<polygon fill="#191970" stroke="#191970" points="87.543,-41.0555 98.0001,-39.3529 88.7636,-34.1628 87.543,-41.0555"/>
</g>
<!-- Node15 -->
<g id="node3" class="node">
<title>Node15</title>
<g id="a_node3"><a xlink:href="_a_p_i_8h.html#a8c2e4902f39a7abdea20cdf04007bb8e" target="_top" xlink:title="watchdogInit">
<polygon fill="none" stroke="#000000" points="102.2881,-.5 102.2881,-18.5 174.4355,-18.5 174.4355,-.5 102.2881,-.5"/>
<text text-anchor="middle" x="138.3618" y="-6.5" font-family="Helvetica,sans-Serif" font-size="10.00" fill="#000000">watchdogInit</text>
</a>
</g>
</g>
<!-- Node13&#45;&gt;Node15 -->
<g id="edge2" class="edge">
<title>Node13&#45;&gt;Node15</title>
<path fill="none" stroke="#191970" d="M62.3874,-22.2453C71.7586,-20.6732 82.236,-18.9155 92.3444,-17.2198"/>
<polygon fill="#191970" stroke="#191970" points="92.9921,-20.6601 102.2752,-15.5538 91.8339,-13.7566 92.9921,-20.6601"/>
</g>
</g>
</svg>
