<?xml version="1.0" encoding="UTF-8" standalone="no"?>
<!DOCTYPE svg PUBLIC "-//W3C//DTD SVG 1.1//EN"
 "http://www.w3.org/Graphics/SVG/1.1/DTD/svg11.dtd">
<!-- Generated by graphviz version 2.40.1 (20161225.0304)
 -->
<!-- Title: meanMatrix Pages: 1 -->
<!--zoomable 138 -->
<svg id="main" version="1.1" xmlns="http://www.w3.org/2000/svg" xmlns:xlink="http://www.w3.org/1999/xlink" xml:space="preserve" onload="init(evt)">
<style type="text/css"><![CDATA[
.edge:hover path { stroke: red; }
.edge:hover polygon { stroke: red; fill: red; }
]]></style>
<script type="text/javascript"><![CDATA[
var edges = document.getElementsByTagName('g');
if (edges && edges.length) {
  for (var i=0;i<edges.length;i++) {
    if (edges[i].id.substr(0,4)=='edge') {
      edges[i].setAttribute('class','edge');
    }
  }
}
]]></script>
        <defs>
                <circle id="rim" cx="0" cy="0" r="7"/>
                <circle id="rim2" cx="0" cy="0" r="3.5"/>
                <g id="zoomPlus">
                        <use xlink:href="#rim" fill="#404040">
                                <set attributeName="fill" to="#808080" begin="zoomplus.mouseover" end="zoomplus.mouseout"/>
                        </use>
                        <path d="M-4,0h8M0,-4v8" fill="none" stroke="white" stroke-width="1.5" pointer-events="none"/>
                </g>
                <g id="zoomMin">
                        <use xlink:href="#rim" fill="#404040">
                                <set attributeName="fill" to="#808080" begin="zoomminus.mouseover" end="zoomminus.mouseout"/>
                        </use>
                        <path d="M-4,0h8" fill="none" stroke="white" stroke-width="1.5" pointer-events="none"/>
                </g>
                <g id="dirArrow">
                        <path fill="none" stroke="white" stroke-width="1.5" d="M0,-3.0v7 M-2.5,-0.5L0,-3.0L2.5,-0.5"/>
                </g>
               <g id="resetDef">
                       <use xlink:href="#rim2" fill="#404040">
                               <set attributeName="fill" to="#808080" begin="reset.mouseover" end="reset.mouseout"/>
                       </use>
               </g>
        </defs>

<script type="text/javascript">
var viewWidth = 540;
var viewHeight = 138;
var sectionId = 'dynsection-10';
</script>
<script xlink:href="svgpan.js"/>
<svg id="graph" class="graph">
<g id="viewport">
<title>meanMatrix</title>
<!-- Node95 -->
<g id="node1" class="node">
<title>Node95</title>
<polygon fill="#bfbfbf" stroke="#000000" points="0,-55.5 0,-73.5 68.2363,-73.5 68.2363,-55.5 0,-55.5"/>
<text text-anchor="middle" x="34.1182" y="-61.5" font-family="Helvetica,sans-Serif" font-size="10.00" fill="#000000">meanMatrix</text>
</g>
<!-- Node96 -->
<g id="node2" class="node">
<title>Node96</title>
<g id="a_node2"><a xlink:href="matrix_8c.html#a8e41e30382335ea89f90b72db0b44d6f" target="_top" xlink:title="Asserts a condition is true. ">
<polygon fill="none" stroke="#000000" points="207.9111,-55.5 207.9111,-73.5 251.1426,-73.5 251.1426,-55.5 207.9111,-55.5"/>
<text text-anchor="middle" x="229.5269" y="-61.5" font-family="Helvetica,sans-Serif" font-size="10.00" fill="#000000">assert</text>
</a>
</g>
</g>
<!-- Node95&#45;&gt;Node96 -->
<g id="edge1" class="edge">
<title>Node95&#45;&gt;Node96</title>
<path fill="none" stroke="#191970" d="M68.6035,-64.5C105.0446,-64.5 162.0475,-64.5 197.5211,-64.5"/>
<polygon fill="#191970" stroke="#191970" points="197.7924,-68.0001 207.7924,-64.5 197.7924,-61.0001 197.7924,-68.0001"/>
</g>
<!-- Node103 -->
<g id="node9" class="node">
<title>Node103</title>
<g id="a_node9"><a xlink:href="matrix_8c.html#aae8b56c6fb44d9147b835f4006ca872c" target="_top" xlink:title="Makes a matrix with a width and height parameters. ">
<polygon fill="none" stroke="#000000" points="104.2363,-36.5 104.2363,-54.5 171.9111,-54.5 171.9111,-36.5 104.2363,-36.5"/>
<text text-anchor="middle" x="138.0737" y="-42.5" font-family="Helvetica,sans-Serif" font-size="10.00" fill="#000000">makeMatrix</text>
</a>
</g>
</g>
<!-- Node95&#45;&gt;Node103 -->
<g id="edge8" class="edge">
<title>Node95&#45;&gt;Node103</title>
<path fill="none" stroke="#191970" d="M68.4452,-58.226C76.6916,-56.7188 85.6106,-55.0887 94.2243,-53.5144"/>
<polygon fill="#191970" stroke="#191970" points="94.9293,-56.9436 104.1371,-51.7026 93.6707,-50.0577 94.9293,-56.9436"/>
</g>
<!-- Node97 -->
<g id="node3" class="node">
<title>Node97</title>
<g id="a_node3"><a xlink:href="log_8h.html#a8e5bb8a2a372f5b066ff7af7044584c1" target="_top" xlink:title="prints a error message and displays on lcd. ">
<polygon fill="none" stroke="#000000" points="287.1426,-55.5 287.1426,-73.5 324.2559,-73.5 324.2559,-55.5 287.1426,-55.5"/>
<text text-anchor="middle" x="305.6992" y="-61.5" font-family="Helvetica,sans-Serif" font-size="10.00" fill="#000000">error</text>
</a>
</g>
</g>
<!-- Node96&#45;&gt;Node97 -->
<g id="edge2" class="edge">
<title>Node96&#45;&gt;Node97</title>
<path fill="none" stroke="#191970" d="M251.151,-64.5C259.2187,-64.5 268.5067,-64.5 277.1052,-64.5"/>
<polygon fill="#191970" stroke="#191970" points="277.1232,-68.0001 287.1232,-64.5 277.1232,-61.0001 277.1232,-68.0001"/>
</g>
<!-- Node98 -->
<g id="node4" class="node">
<title>Node98</title>
<g id="a_node4"><a xlink:href="log_8c.html#afff22aff6749311a684a559cac3ac8bd" target="_top" xlink:title="prints a log info message to the lcd ">
<polygon fill="none" stroke="#000000" points="360.2559,-55.5 360.2559,-73.5 411.2852,-73.5 411.2852,-55.5 360.2559,-55.5"/>
<text text-anchor="middle" x="385.7705" y="-61.5" font-family="Helvetica,sans-Serif" font-size="10.00" fill="#000000">log_info</text>
</a>
</g>
</g>
<!-- Node97&#45;&gt;Node98 -->
<g id="edge3" class="edge">
<title>Node97&#45;&gt;Node98</title>
<path fill="none" stroke="#191970" d="M324.2704,-64.5C331.9077,-64.5 341.0245,-64.5 349.8693,-64.5"/>
<polygon fill="#191970" stroke="#191970" points="350.0223,-68.0001 360.0223,-64.5 350.0223,-61.0001 350.0223,-68.0001"/>
</g>
<!-- Node99 -->
<g id="node5" class="node">
<title>Node99</title>
<g id="a_node5"><a xlink:href="_a_p_i_8h.html#a5fa1d119fe3e836b5519f97eae7a1272" target="_top" xlink:title="Clears the LCD screen on the specified port. ">
<polygon fill="none" stroke="#000000" points="463.1299,-111.5 463.1299,-129.5 515.8096,-129.5 515.8096,-111.5 463.1299,-111.5"/>
<text text-anchor="middle" x="489.4697" y="-117.5" font-family="Helvetica,sans-Serif" font-size="10.00" fill="#000000">lcdClear</text>
</a>
</g>
</g>
<!-- Node98&#45;&gt;Node99 -->
<g id="edge4" class="edge">
<title>Node98&#45;&gt;Node99</title>
<path fill="none" stroke="#191970" d="M399.1119,-73.5526C411.3485,-81.6578 430.1233,-93.6016 447.2852,-102.5 450.4198,-104.1253 453.7341,-105.7276 457.072,-107.2661"/>
<polygon fill="#191970" stroke="#191970" points="455.8501,-110.5527 466.4111,-111.3992 458.6831,-104.1516 455.8501,-110.5527"/>
</g>
<!-- Node100 -->
<g id="node6" class="node">
<title>Node100</title>
<g id="a_node6"><a xlink:href="_a_p_i_8h.html#a6cfad8271c6a566a2f51ca318f819a80" target="_top" xlink:title="Prints the formatted string to the attached LCD. ">
<polygon fill="none" stroke="#000000" points="464.7974,-74.5 464.7974,-92.5 514.1421,-92.5 514.1421,-74.5 464.7974,-74.5"/>
<text text-anchor="middle" x="489.4697" y="-80.5" font-family="Helvetica,sans-Serif" font-size="10.00" fill="#000000">lcdPrint</text>
</a>
</g>
</g>
<!-- Node98&#45;&gt;Node100 -->
<g id="edge5" class="edge">
<title>Node98&#45;&gt;Node100</title>
<path fill="none" stroke="#191970" d="M411.404,-69.1966C424.435,-71.5842 440.464,-74.5211 454.6001,-77.1111"/>
<polygon fill="#191970" stroke="#191970" points="454.0218,-80.5633 464.4889,-78.923 455.2834,-73.678 454.0218,-80.5633"/>
</g>
<!-- Node101 -->
<g id="node7" class="node">
<title>Node101</title>
<g id="a_node7"><a xlink:href="_a_p_i_8h.html#aab53a247d88151a6623c20fa1ea940b0" target="_top" xlink:title="Sets the specified LCD backlight to be on or off. ">
<polygon fill="none" stroke="#000000" points="447.2852,-37.5 447.2852,-55.5 531.6543,-55.5 531.6543,-37.5 447.2852,-37.5"/>
<text text-anchor="middle" x="489.4697" y="-43.5" font-family="Helvetica,sans-Serif" font-size="10.00" fill="#000000">lcdSetBacklight</text>
</a>
</g>
</g>
<!-- Node98&#45;&gt;Node101 -->
<g id="edge6" class="edge">
<title>Node98&#45;&gt;Node101</title>
<path fill="none" stroke="#191970" d="M411.404,-60.0506C419.2479,-58.689 428.1781,-57.1389 437.1278,-55.5855"/>
<polygon fill="#191970" stroke="#191970" points="437.9297,-58.9987 447.1838,-53.8399 436.7325,-52.1018 437.9297,-58.9987"/>
</g>
<!-- Node102 -->
<g id="node8" class="node">
<title>Node102</title>
<g id="a_node8"><a xlink:href="_a_p_i_8h.html#a403c82418e475fa4a8273719e6a7f3e6" target="_top" xlink:title="Prints the formatted string to the debug stream (the PC terminal). ">
<polygon fill="none" stroke="#000000" points="470.354,-.5 470.354,-18.5 508.5854,-18.5 508.5854,-.5 470.354,-.5"/>
<text text-anchor="middle" x="489.4697" y="-6.5" font-family="Helvetica,sans-Serif" font-size="10.00" fill="#000000">printf</text>
</a>
</g>
</g>
<!-- Node98&#45;&gt;Node102 -->
<g id="edge7" class="edge">
<title>Node98&#45;&gt;Node102</title>
<path fill="none" stroke="#191970" d="M399.6268,-55.4099C411.8932,-47.5475 430.4167,-36.1198 447.2852,-27.5 451.6635,-25.2627 456.3841,-23.0574 461.027,-20.9989"/>
<polygon fill="#191970" stroke="#191970" points="462.5026,-24.1744 470.3137,-17.0163 459.7437,-17.741 462.5026,-24.1744"/>
</g>
<!-- Node103&#45;&gt;Node96 -->
<g id="edge9" class="edge">
<title>Node103&#45;&gt;Node96</title>
<path fill="none" stroke="#191970" d="M172.1275,-52.5749C180.4831,-54.3108 189.3959,-56.1625 197.645,-57.8763"/>
<polygon fill="#191970" stroke="#191970" points="197.1441,-61.3469 207.647,-59.9543 198.568,-54.4933 197.1441,-61.3469"/>
</g>
</g>
</svg>
        <g id="navigator" transform="translate(0 0)" fill="#404254">
                <rect fill="#f2f5e9" fill-opacity="0.5" stroke="#606060" stroke-width=".5" x="0" y="0" width="60" height="60"/>
                <use id="zoomplus" xlink:href="#zoomPlus" x="17" y="9" onmousedown="handleZoom(evt,'in')"/>
                <use id="zoomminus" xlink:href="#zoomMin" x="42" y="9" onmousedown="handleZoom(evt,'out')"/>
                <use id="reset" xlink:href="#resetDef" x="30" y="36" onmousedown="handleReset()"/>
                <g id="arrowUp" xlink:href="#dirArrow" transform="translate(30 24)" onmousedown="handlePan(0,-1)">
                  <use xlink:href="#rim" fill="#404040">
                        <set attributeName="fill" to="#808080" begin="arrowUp.mouseover" end="arrowUp.mouseout"/>
                  </use>
                  <path fill="none" stroke="white" stroke-width="1.5" d="M0,-3.0v7 M-2.5,-0.5L0,-3.0L2.5,-0.5"/>
                </g>
                <g id="arrowRight" xlink:href="#dirArrow" transform="rotate(90) translate(36 -43)" onmousedown="handlePan(1,0)">
                  <use xlink:href="#rim" fill="#404040">
                        <set attributeName="fill" to="#808080" begin="arrowRight.mouseover" end="arrowRight.mouseout"/>
                  </use>
                  <path fill="none" stroke="white" stroke-width="1.5" d="M0,-3.0v7 M-2.5,-0.5L0,-3.0L2.5,-0.5"/>
                </g>
                <g id="arrowDown" xlink:href="#dirArrow" transform="rotate(180) translate(-30 -48)" onmousedown="handlePan(0,1)">
                  <use xlink:href="#rim" fill="#404040">
                        <set attributeName="fill" to="#808080" begin="arrowDown.mouseover" end="arrowDown.mouseout"/>
                  </use>
                  <path fill="none" stroke="white" stroke-width="1.5" d="M0,-3.0v7 M-2.5,-0.5L0,-3.0L2.5,-0.5"/>
                </g>
                <g id="arrowLeft" xlink:href="#dirArrow" transform="rotate(270) translate(-36 17)" onmousedown="handlePan(-1,0)">
                  <use xlink:href="#rim" fill="#404040">
                        <set attributeName="fill" to="#808080" begin="arrowLeft.mouseover" end="arrowLeft.mouseout"/>
                  </use>
                  <path fill="none" stroke="white" stroke-width="1.5" d="M0,-3.0v7 M-2.5,-0.5L0,-3.0L2.5,-0.5"/>
                </g>
        </g>
        <svg viewBox="0 0 15 15" width="100%" height="30px" preserveAspectRatio="xMaxYMin meet">
         <g id="arrow_out" transform="scale(0.3 0.3)">
          <a xlink:href="matrix_8c_ae4babf9b518a2d5d6b12776191e3b7de_cgraph_org.svg" target="_base">
           <rect id="button" ry="5" rx="5" y="6" x="6" height="38" width="38"
                fill="#f2f5e9" fill-opacity="0.5" stroke="#606060" stroke-width="1.0"/>
           <path id="arrow"
             d="M 11.500037,31.436501 C 11.940474,20.09759 22.043105,11.32322 32.158766,21.979434 L 37.068811,17.246167 C 37.068811,17.246167 37.088388,32 37.088388,32 L 22.160133,31.978069 C 22.160133,31.978069 26.997745,27.140456 26.997745,27.140456 C 18.528582,18.264221 13.291696,25.230495 11.500037,31.436501 z"
             style="fill:#404040;"/>
          </a>
         </g>
        </svg>
</svg>
