<?xml version="1.0" encoding="UTF-8" standalone="no"?>
<!DOCTYPE svg PUBLIC "-//W3C//DTD SVG 1.1//EN"
 "http://www.w3.org/Graphics/SVG/1.1/DTD/svg11.dtd">
<!-- Generated by graphviz version 2.40.1 (20161225.0304)
 -->
<!-- Title: identityMatrix Pages: 1 -->
<svg width="343pt" height="46pt"
 viewBox="0.00 0.00 342.82 46.00" xmlns="http://www.w3.org/2000/svg" xmlns:xlink="http://www.w3.org/1999/xlink">
<g id="graph0" class="graph" transform="scale(1 1) rotate(0) translate(4 42)">
<title>identityMatrix</title>
<!-- Node41 -->
<g id="node1" class="node">
<title>Node41</title>
<polygon fill="#bfbfbf" stroke="#000000" points="0,-19.5 0,-37.5 74.9063,-37.5 74.9063,-19.5 0,-19.5"/>
<text text-anchor="middle" x="37.4531" y="-25.5" font-family="Helvetica,sans-Serif" font-size="10.00" fill="#000000">identityMatrix</text>
</g>
<!-- Node42 -->
<g id="node2" class="node">
<title>Node42</title>
<g id="a_node2"><a xlink:href="matrix_8c.html#a8e41e30382335ea89f90b72db0b44d6f" target="_top" xlink:title="Asserts a condition is true. ">
<polygon fill="none" stroke="#000000" points="214.5811,-19.5 214.5811,-37.5 257.8125,-37.5 257.8125,-19.5 214.5811,-19.5"/>
<text text-anchor="middle" x="236.1968" y="-25.5" font-family="Helvetica,sans-Serif" font-size="10.00" fill="#000000">assert</text>
</a>
</g>
</g>
<!-- Node41&#45;&gt;Node42 -->
<g id="edge1" class="edge">
<title>Node41&#45;&gt;Node42</title>
<path fill="none" stroke="#191970" d="M75.3031,-28.5C112.6592,-28.5 169.1385,-28.5 204.2864,-28.5"/>
<polygon fill="#191970" stroke="#191970" points="204.4648,-32.0001 214.4648,-28.5 204.4648,-25.0001 204.4648,-32.0001"/>
</g>
<!-- Node44 -->
<g id="node4" class="node">
<title>Node44</title>
<g id="a_node4"><a xlink:href="matrix_8c.html#aae8b56c6fb44d9147b835f4006ca872c" target="_top" xlink:title="Makes a matrix with a width and height parameters. ">
<polygon fill="none" stroke="#000000" points="110.9063,-.5 110.9063,-18.5 178.5811,-18.5 178.5811,-.5 110.9063,-.5"/>
<text text-anchor="middle" x="144.7437" y="-6.5" font-family="Helvetica,sans-Serif" font-size="10.00" fill="#000000">makeMatrix</text>
</a>
</g>
</g>
<!-- Node41&#45;&gt;Node44 -->
<g id="edge3" class="edge">
<title>Node41&#45;&gt;Node44</title>
<path fill="none" stroke="#191970" d="M74.9781,-21.8547C83.3173,-20.3779 92.2294,-18.7997 100.7998,-17.282"/>
<polygon fill="#191970" stroke="#191970" points="101.4124,-20.728 110.6488,-15.5378 100.1917,-13.8353 101.4124,-20.728"/>
</g>
<!-- Node43 -->
<g id="node3" class="node">
<title>Node43</title>
<g id="a_node3"><a xlink:href="_a_p_i_8h.html#ab9989f4619e4d3ccb13ed4c36d5f787a" target="_top" xlink:title="fprintf">
<polygon fill="none" stroke="#000000" points="293.8125,-19.5 293.8125,-37.5 334.8223,-37.5 334.8223,-19.5 293.8125,-19.5"/>
<text text-anchor="middle" x="314.3174" y="-25.5" font-family="Helvetica,sans-Serif" font-size="10.00" fill="#000000">fprintf</text>
</a>
</g>
</g>
<!-- Node42&#45;&gt;Node43 -->
<g id="edge2" class="edge">
<title>Node42&#45;&gt;Node43</title>
<path fill="none" stroke="#191970" d="M257.9577,-28.5C265.9177,-28.5 275.0788,-28.5 283.6699,-28.5"/>
<polygon fill="#191970" stroke="#191970" points="283.7475,-32.0001 293.7474,-28.5 283.7474,-25.0001 283.7475,-32.0001"/>
</g>
<!-- Node44&#45;&gt;Node42 -->
<g id="edge4" class="edge">
<title>Node44&#45;&gt;Node42</title>
<path fill="none" stroke="#191970" d="M178.7974,-16.5749C187.153,-18.3108 196.0658,-20.1625 204.3149,-21.8763"/>
<polygon fill="#191970" stroke="#191970" points="203.814,-25.3469 214.3169,-23.9543 205.2379,-18.4933 203.814,-25.3469"/>
</g>
</g>
</svg>
