<?xml version="1.0" encoding="UTF-8" standalone="no"?>
<!DOCTYPE svg PUBLIC "-//W3C//DTD SVG 1.1//EN"
 "http://www.w3.org/Graphics/SVG/1.1/DTD/svg11.dtd">
<!-- Generated by graphviz version 2.40.1 (20161225.0304)
 -->
<!-- Title: transposeMatrix Pages: 1 -->
<!--zoomable 138 -->
<svg id="main" version="1.1" xmlns="http://www.w3.org/2000/svg" xmlns:xlink="http://www.w3.org/1999/xlink" xml:space="preserve" onload="init(evt)">
<style type="text/css"><![CDATA[
.edge:hover path { stroke: red; }
.edge:hover polygon { stroke: red; fill: red; }
]]></style>
<script type="text/javascript"><![CDATA[
var edges = document.getElementsByTagName('g');
if (edges && edges.length) {
  for (var i=0;i<edges.length;i++) {
    if (edges[i].id.substr(0,4)=='edge') {
      edges[i].setAttribute('class','edge');
    }
  }
}
]]></script>
        <defs>
                <circle id="rim" cx="0" cy="0" r="7"/>
                <circle id="rim2" cx="0" cy="0" r="3.5"/>
                <g id="zoomPlus">
                        <use xlink:href="#rim" fill="#404040">
                                <set attributeName="fill" to="#808080" begin="zoomplus.mouseover" end="zoomplus.mouseout"/>
                        </use>
                        <path d="M-4,0h8M0,-4v8" fill="none" stroke="white" stroke-width="1.5" pointer-events="none"/>
                </g>
                <g id="zoomMin">
                        <use xlink:href="#rim" fill="#404040">
                                <set attributeName="fill" to="#808080" begin="zoomminus.mouseover" end="zoomminus.mouseout"/>
                        </use>
                        <path d="M-4,0h8" fill="none" stroke="white" stroke-width="1.5" pointer-events="none"/>
                </g>
                <g id="dirArrow">
                        <path fill="none" stroke="white" stroke-width="1.5" d="M0,-3.0v7 M-2.5,-0.5L0,-3.0L2.5,-0.5"/>
                </g>
               <g id="resetDef">
                       <use xlink:href="#rim2" fill="#404040">
                               <set attributeName="fill" to="#808080" begin="reset.mouseover" end="reset.mouseout"/>
                       </use>
               </g>
        </defs>

<script type="text/javascript">
var viewWidth = 559;
var viewHeight = 138;
var sectionId = 'dynsection-17';
</script>
<script xlink:href="svgpan.js"/>
<svg id="graph" class="graph">
<g id="viewport">
<title>transposeMatrix</title>
<!-- Node141 -->
<g id="node1" class="node">
<title>Node141</title>
<polygon fill="#bfbfbf" stroke="#000000" points="0,-55.5 0,-73.5 87.1377,-73.5 87.1377,-55.5 0,-55.5"/>
<text text-anchor="middle" x="43.5688" y="-61.5" font-family="Helvetica,sans-Serif" font-size="10.00" fill="#000000">transposeMatrix</text>
</g>
<!-- Node142 -->
<g id="node2" class="node">
<title>Node142</title>
<g id="a_node2"><a xlink:href="matrix_8c.html#aae8b56c6fb44d9147b835f4006ca872c" target="_top" xlink:title="Makes a matrix with a width and height parameters. ">
<polygon fill="none" stroke="#000000" points="123.1377,-55.5 123.1377,-73.5 190.8125,-73.5 190.8125,-55.5 123.1377,-55.5"/>
<text text-anchor="middle" x="156.9751" y="-61.5" font-family="Helvetica,sans-Serif" font-size="10.00" fill="#000000">makeMatrix</text>
</a>
</g>
</g>
<!-- Node141&#45;&gt;Node142 -->
<g id="edge1" class="edge">
<title>Node141&#45;&gt;Node142</title>
<path fill="none" stroke="#191970" d="M87.4147,-64.5C95.834,-64.5 104.6525,-64.5 113.0735,-64.5"/>
<polygon fill="#191970" stroke="#191970" points="113.0947,-68.0001 123.0947,-64.5 113.0947,-61.0001 113.0947,-68.0001"/>
</g>
<!-- Node143 -->
<g id="node3" class="node">
<title>Node143</title>
<g id="a_node3"><a xlink:href="matrix_8c.html#a8e41e30382335ea89f90b72db0b44d6f" target="_top" xlink:title="Asserts a condition is true. ">
<polygon fill="none" stroke="#000000" points="226.8125,-55.5 226.8125,-73.5 270.0439,-73.5 270.0439,-55.5 226.8125,-55.5"/>
<text text-anchor="middle" x="248.4282" y="-61.5" font-family="Helvetica,sans-Serif" font-size="10.00" fill="#000000">assert</text>
</a>
</g>
</g>
<!-- Node142&#45;&gt;Node143 -->
<g id="edge2" class="edge">
<title>Node142&#45;&gt;Node143</title>
<path fill="none" stroke="#191970" d="M191.0289,-64.5C199.3844,-64.5 208.2973,-64.5 216.5464,-64.5"/>
<polygon fill="#191970" stroke="#191970" points="216.5484,-68.0001 226.5484,-64.5 216.5483,-61.0001 216.5484,-68.0001"/>
</g>
<!-- Node144 -->
<g id="node4" class="node">
<title>Node144</title>
<g id="a_node4"><a xlink:href="log_8h.html#a8e5bb8a2a372f5b066ff7af7044584c1" target="_top" xlink:title="prints a error message and displays on lcd. ">
<polygon fill="none" stroke="#000000" points="306.0439,-55.5 306.0439,-73.5 343.1572,-73.5 343.1572,-55.5 306.0439,-55.5"/>
<text text-anchor="middle" x="324.6006" y="-61.5" font-family="Helvetica,sans-Serif" font-size="10.00" fill="#000000">error</text>
</a>
</g>
</g>
<!-- Node143&#45;&gt;Node144 -->
<g id="edge3" class="edge">
<title>Node143&#45;&gt;Node144</title>
<path fill="none" stroke="#191970" d="M270.0524,-64.5C278.1201,-64.5 287.408,-64.5 296.0066,-64.5"/>
<polygon fill="#191970" stroke="#191970" points="296.0246,-68.0001 306.0246,-64.5 296.0245,-61.0001 296.0246,-68.0001"/>
</g>
<!-- Node145 -->
<g id="node5" class="node">
<title>Node145</title>
<g id="a_node5"><a xlink:href="log_8c.html#afff22aff6749311a684a559cac3ac8bd" target="_top" xlink:title="prints a log info message to the lcd ">
<polygon fill="none" stroke="#000000" points="379.1572,-55.5 379.1572,-73.5 430.1865,-73.5 430.1865,-55.5 379.1572,-55.5"/>
<text text-anchor="middle" x="404.6719" y="-61.5" font-family="Helvetica,sans-Serif" font-size="10.00" fill="#000000">log_info</text>
</a>
</g>
</g>
<!-- Node144&#45;&gt;Node145 -->
<g id="edge4" class="edge">
<title>Node144&#45;&gt;Node145</title>
<path fill="none" stroke="#191970" d="M343.1718,-64.5C350.8091,-64.5 359.9259,-64.5 368.7706,-64.5"/>
<polygon fill="#191970" stroke="#191970" points="368.9237,-68.0001 378.9237,-64.5 368.9236,-61.0001 368.9237,-68.0001"/>
</g>
<!-- Node146 -->
<g id="node6" class="node">
<title>Node146</title>
<g id="a_node6"><a xlink:href="_a_p_i_8h.html#a5fa1d119fe3e836b5519f97eae7a1272" target="_top" xlink:title="Clears the LCD screen on the specified port. ">
<polygon fill="none" stroke="#000000" points="482.0313,-111.5 482.0313,-129.5 534.7109,-129.5 534.7109,-111.5 482.0313,-111.5"/>
<text text-anchor="middle" x="508.3711" y="-117.5" font-family="Helvetica,sans-Serif" font-size="10.00" fill="#000000">lcdClear</text>
</a>
</g>
</g>
<!-- Node145&#45;&gt;Node146 -->
<g id="edge5" class="edge">
<title>Node145&#45;&gt;Node146</title>
<path fill="none" stroke="#191970" d="M418.0132,-73.5526C430.2499,-81.6578 449.0246,-93.6016 466.1865,-102.5 469.3211,-104.1253 472.6355,-105.7276 475.9733,-107.2661"/>
<polygon fill="#191970" stroke="#191970" points="474.7515,-110.5527 485.3125,-111.3992 477.5844,-104.1516 474.7515,-110.5527"/>
</g>
<!-- Node147 -->
<g id="node7" class="node">
<title>Node147</title>
<g id="a_node7"><a xlink:href="_a_p_i_8h.html#a6cfad8271c6a566a2f51ca318f819a80" target="_top" xlink:title="Prints the formatted string to the attached LCD. ">
<polygon fill="none" stroke="#000000" points="483.6987,-74.5 483.6987,-92.5 533.0435,-92.5 533.0435,-74.5 483.6987,-74.5"/>
<text text-anchor="middle" x="508.3711" y="-80.5" font-family="Helvetica,sans-Serif" font-size="10.00" fill="#000000">lcdPrint</text>
</a>
</g>
</g>
<!-- Node145&#45;&gt;Node147 -->
<g id="edge6" class="edge">
<title>Node145&#45;&gt;Node147</title>
<path fill="none" stroke="#191970" d="M430.3054,-69.1966C443.3364,-71.5842 459.3654,-74.5211 473.5015,-77.1111"/>
<polygon fill="#191970" stroke="#191970" points="472.9232,-80.5633 483.3903,-78.923 474.1848,-73.678 472.9232,-80.5633"/>
</g>
<!-- Node148 -->
<g id="node8" class="node">
<title>Node148</title>
<g id="a_node8"><a xlink:href="_a_p_i_8h.html#aab53a247d88151a6623c20fa1ea940b0" target="_top" xlink:title="Sets the specified LCD backlight to be on or off. ">
<polygon fill="none" stroke="#000000" points="466.1865,-37.5 466.1865,-55.5 550.5557,-55.5 550.5557,-37.5 466.1865,-37.5"/>
<text text-anchor="middle" x="508.3711" y="-43.5" font-family="Helvetica,sans-Serif" font-size="10.00" fill="#000000">lcdSetBacklight</text>
</a>
</g>
</g>
<!-- Node145&#45;&gt;Node148 -->
<g id="edge7" class="edge">
<title>Node145&#45;&gt;Node148</title>
<path fill="none" stroke="#191970" d="M430.3054,-60.0506C438.1493,-58.689 447.0795,-57.1389 456.0292,-55.5855"/>
<polygon fill="#191970" stroke="#191970" points="456.8311,-58.9987 466.0852,-53.8399 455.6339,-52.1018 456.8311,-58.9987"/>
</g>
<!-- Node149 -->
<g id="node9" class="node">
<title>Node149</title>
<g id="a_node9"><a xlink:href="_a_p_i_8h.html#a403c82418e475fa4a8273719e6a7f3e6" target="_top" xlink:title="Prints the formatted string to the debug stream (the PC terminal). ">
<polygon fill="none" stroke="#000000" points="489.2554,-.5 489.2554,-18.5 527.4868,-18.5 527.4868,-.5 489.2554,-.5"/>
<text text-anchor="middle" x="508.3711" y="-6.5" font-family="Helvetica,sans-Serif" font-size="10.00" fill="#000000">printf</text>
</a>
</g>
</g>
<!-- Node145&#45;&gt;Node149 -->
<g id="edge8" class="edge">
<title>Node145&#45;&gt;Node149</title>
<path fill="none" stroke="#191970" d="M419.0936,-55.4724C431.4073,-47.9076 449.6917,-37.0107 466.1865,-28.5 470.5096,-26.2695 475.1481,-24.0309 479.7109,-21.913"/>
<polygon fill="#191970" stroke="#191970" points="481.1796,-25.0902 488.845,-17.7764 478.2917,-18.7136 481.1796,-25.0902"/>
</g>
</g>
</svg>
        <g id="navigator" transform="translate(0 0)" fill="#404254">
                <rect fill="#f2f5e9" fill-opacity="0.5" stroke="#606060" stroke-width=".5" x="0" y="0" width="60" height="60"/>
                <use id="zoomplus" xlink:href="#zoomPlus" x="17" y="9" onmousedown="handleZoom(evt,'in')"/>
                <use id="zoomminus" xlink:href="#zoomMin" x="42" y="9" onmousedown="handleZoom(evt,'out')"/>
                <use id="reset" xlink:href="#resetDef" x="30" y="36" onmousedown="handleReset()"/>
                <g id="arrowUp" xlink:href="#dirArrow" transform="translate(30 24)" onmousedown="handlePan(0,-1)">
                  <use xlink:href="#rim" fill="#404040">
                        <set attributeName="fill" to="#808080" begin="arrowUp.mouseover" end="arrowUp.mouseout"/>
                  </use>
                  <path fill="none" stroke="white" stroke-width="1.5" d="M0,-3.0v7 M-2.5,-0.5L0,-3.0L2.5,-0.5"/>
                </g>
                <g id="arrowRight" xlink:href="#dirArrow" transform="rotate(90) translate(36 -43)" onmousedown="handlePan(1,0)">
                  <use xlink:href="#rim" fill="#404040">
                        <set attributeName="fill" to="#808080" begin="arrowRight.mouseover" end="arrowRight.mouseout"/>
                  </use>
                  <path fill="none" stroke="white" stroke-width="1.5" d="M0,-3.0v7 M-2.5,-0.5L0,-3.0L2.5,-0.5"/>
                </g>
                <g id="arrowDown" xlink:href="#dirArrow" transform="rotate(180) translate(-30 -48)" onmousedown="handlePan(0,1)">
                  <use xlink:href="#rim" fill="#404040">
                        <set attributeName="fill" to="#808080" begin="arrowDown.mouseover" end="arrowDown.mouseout"/>
                  </use>
                  <path fill="none" stroke="white" stroke-width="1.5" d="M0,-3.0v7 M-2.5,-0.5L0,-3.0L2.5,-0.5"/>
                </g>
                <g id="arrowLeft" xlink:href="#dirArrow" transform="rotate(270) translate(-36 17)" onmousedown="handlePan(-1,0)">
                  <use xlink:href="#rim" fill="#404040">
                        <set attributeName="fill" to="#808080" begin="arrowLeft.mouseover" end="arrowLeft.mouseout"/>
                  </use>
                  <path fill="none" stroke="white" stroke-width="1.5" d="M0,-3.0v7 M-2.5,-0.5L0,-3.0L2.5,-0.5"/>
                </g>
        </g>
        <svg viewBox="0 0 15 15" width="100%" height="30px" preserveAspectRatio="xMaxYMin meet">
         <g id="arrow_out" transform="scale(0.3 0.3)">
          <a xlink:href="matrix_8c_a2936260302742748b0639e8ec71d4d9f_cgraph_org.svg" target="_base">
           <rect id="button" ry="5" rx="5" y="6" x="6" height="38" width="38"
                fill="#f2f5e9" fill-opacity="0.5" stroke="#606060" stroke-width="1.0"/>
           <path id="arrow"
             d="M 11.500037,31.436501 C 11.940474,20.09759 22.043105,11.32322 32.158766,21.979434 L 37.068811,17.246167 C 37.068811,17.246167 37.088388,32 37.088388,32 L 22.160133,31.978069 C 22.160133,31.978069 26.997745,27.140456 26.997745,27.140456 C 18.528582,18.264221 13.291696,25.230495 11.500037,31.436501 z"
             style="fill:#404040;"/>
          </a>
         </g>
        </svg>
</svg>
