<?xml version="1.0" encoding="UTF-8" standalone="no"?>
<!DOCTYPE svg PUBLIC "-//W3C//DTD SVG 1.1//EN"
 "http://www.w3.org/Graphics/SVG/1.1/DTD/svg11.dtd">
<!-- Generated by graphviz version 2.40.1 (20161225.0304)
 -->
<!-- Title: copyMatrix Pages: 1 -->
<svg width="435pt" height="27pt"
 viewBox="0.00 0.00 434.83 27.00" xmlns="http://www.w3.org/2000/svg" xmlns:xlink="http://www.w3.org/1999/xlink">
<g id="graph0" class="graph" transform="scale(1 1) rotate(0) translate(4 23)">
<title>copyMatrix</title>
<!-- Node15 -->
<g id="node1" class="node">
<title>Node15</title>
<polygon fill="#bfbfbf" stroke="#000000" points="0,-.5 0,-18.5 64.3447,-18.5 64.3447,-.5 0,-.5"/>
<text text-anchor="middle" x="32.1724" y="-6.5" font-family="Helvetica,sans-Serif" font-size="10.00" fill="#000000">copyMatrix</text>
</g>
<!-- Node16 -->
<g id="node2" class="node">
<title>Node16</title>
<g id="a_node2"><a xlink:href="matrix_8c.html#a6b7faa6ba9ee987d0777d9d0bd0e7b32" target="_top" xlink:title="scaleMatrix">
<polygon fill="none" stroke="#000000" points="100.3447,-.5 100.3447,-18.5 166.9111,-18.5 166.9111,-.5 100.3447,-.5"/>
<text text-anchor="middle" x="133.6279" y="-6.5" font-family="Helvetica,sans-Serif" font-size="10.00" fill="#000000">scaleMatrix</text>
</a>
</g>
</g>
<!-- Node15&#45;&gt;Node16 -->
<g id="edge1" class="edge">
<title>Node15&#45;&gt;Node16</title>
<path fill="none" stroke="#191970" d="M64.5525,-9.5C72.6332,-9.5 81.4319,-9.5 89.9591,-9.5"/>
<polygon fill="#191970" stroke="#191970" points="90.1594,-13.0001 100.1594,-9.5 90.1594,-6.0001 90.1594,-13.0001"/>
</g>
<!-- Node17 -->
<g id="node3" class="node">
<title>Node17</title>
<g id="a_node3"><a xlink:href="matrix_8c.html#aae8b56c6fb44d9147b835f4006ca872c" target="_top" xlink:title="makeMatrix">
<polygon fill="none" stroke="#000000" points="202.9111,-.5 202.9111,-18.5 270.5859,-18.5 270.5859,-.5 202.9111,-.5"/>
<text text-anchor="middle" x="236.7485" y="-6.5" font-family="Helvetica,sans-Serif" font-size="10.00" fill="#000000">makeMatrix</text>
</a>
</g>
</g>
<!-- Node16&#45;&gt;Node17 -->
<g id="edge2" class="edge">
<title>Node16&#45;&gt;Node17</title>
<path fill="none" stroke="#191970" d="M167.1082,-9.5C175.2194,-9.5 184.014,-9.5 192.5353,-9.5"/>
<polygon fill="#191970" stroke="#191970" points="192.7296,-13.0001 202.7296,-9.5 192.7296,-6.0001 192.7296,-13.0001"/>
</g>
<!-- Node18 -->
<g id="node4" class="node">
<title>Node18</title>
<g id="a_node4"><a xlink:href="matrix_8c.html#aa40f301fe71dfcea781169d3e6f14025" target="_top" xlink:title="assert">
<polygon fill="none" stroke="#000000" points="306.5859,-.5 306.5859,-18.5 349.8174,-18.5 349.8174,-.5 306.5859,-.5"/>
<text text-anchor="middle" x="328.2017" y="-6.5" font-family="Helvetica,sans-Serif" font-size="10.00" fill="#000000">assert</text>
</a>
</g>
</g>
<!-- Node17&#45;&gt;Node18 -->
<g id="edge3" class="edge">
<title>Node17&#45;&gt;Node18</title>
<path fill="none" stroke="#191970" d="M270.8023,-9.5C279.1579,-9.5 288.0707,-9.5 296.3198,-9.5"/>
<polygon fill="#191970" stroke="#191970" points="296.3218,-13.0001 306.3218,-9.5 296.3218,-6.0001 296.3218,-13.0001"/>
</g>
<!-- Node19 -->
<g id="node5" class="node">
<title>Node19</title>
<g id="a_node5"><a xlink:href="_a_p_i_8h.html#ab9989f4619e4d3ccb13ed4c36d5f787a" target="_top" xlink:title="fprintf">
<polygon fill="none" stroke="#000000" points="385.8174,-.5 385.8174,-18.5 426.8271,-18.5 426.8271,-.5 385.8174,-.5"/>
<text text-anchor="middle" x="406.3223" y="-6.5" font-family="Helvetica,sans-Serif" font-size="10.00" fill="#000000">fprintf</text>
</a>
</g>
</g>
<!-- Node18&#45;&gt;Node19 -->
<g id="edge4" class="edge">
<title>Node18&#45;&gt;Node19</title>
<path fill="none" stroke="#191970" d="M349.9626,-9.5C357.9226,-9.5 367.0837,-9.5 375.6748,-9.5"/>
<polygon fill="#191970" stroke="#191970" points="375.7523,-13.0001 385.7523,-9.5 375.7523,-6.0001 375.7523,-13.0001"/>
</g>
</g>
</svg>
