<?xml version="1.0" encoding="UTF-8" standalone="no"?>
<!DOCTYPE svg PUBLIC "-//W3C//DTD SVG 1.1//EN"
 "http://www.w3.org/Graphics/SVG/1.1/DTD/svg11.dtd">
<!-- Generated by graphviz version 2.40.1 (20161225.0304)
 -->
<!-- Title: dotProductMatrix Pages: 1 -->
<svg width="360pt" height="46pt"
 viewBox="0.00 0.00 359.50 46.00" xmlns="http://www.w3.org/2000/svg" xmlns:xlink="http://www.w3.org/1999/xlink">
<g id="graph0" class="graph" transform="scale(1 1) rotate(0) translate(4 42)">
<title>dotProductMatrix</title>
<!-- Node33 -->
<g id="node1" class="node">
<title>Node33</title>
<polygon fill="#bfbfbf" stroke="#000000" points="0,-19.5 0,-37.5 91.5859,-37.5 91.5859,-19.5 0,-19.5"/>
<text text-anchor="middle" x="45.793" y="-25.5" font-family="Helvetica,sans-Serif" font-size="10.00" fill="#000000">dotProductMatrix</text>
</g>
<!-- Node34 -->
<g id="node2" class="node">
<title>Node34</title>
<g id="a_node2"><a xlink:href="matrix_8c.html#aa40f301fe71dfcea781169d3e6f14025" target="_top" xlink:title="assert">
<polygon fill="none" stroke="#000000" points="231.2607,-19.5 231.2607,-37.5 274.4922,-37.5 274.4922,-19.5 231.2607,-19.5"/>
<text text-anchor="middle" x="252.8765" y="-25.5" font-family="Helvetica,sans-Serif" font-size="10.00" fill="#000000">assert</text>
</a>
</g>
</g>
<!-- Node33&#45;&gt;Node34 -->
<g id="edge1" class="edge">
<title>Node33&#45;&gt;Node34</title>
<path fill="none" stroke="#191970" d="M91.7515,-28.5C131.0585,-28.5 186.5994,-28.5 221.1391,-28.5"/>
<polygon fill="#191970" stroke="#191970" points="221.1429,-32.0001 231.1428,-28.5 221.1428,-25.0001 221.1429,-32.0001"/>
</g>
<!-- Node36 -->
<g id="node4" class="node">
<title>Node36</title>
<g id="a_node4"><a xlink:href="matrix_8c.html#aae8b56c6fb44d9147b835f4006ca872c" target="_top" xlink:title="makeMatrix">
<polygon fill="none" stroke="#000000" points="127.5859,-.5 127.5859,-18.5 195.2607,-18.5 195.2607,-.5 127.5859,-.5"/>
<text text-anchor="middle" x="161.4233" y="-6.5" font-family="Helvetica,sans-Serif" font-size="10.00" fill="#000000">makeMatrix</text>
</a>
</g>
</g>
<!-- Node33&#45;&gt;Node36 -->
<g id="edge3" class="edge">
<title>Node33&#45;&gt;Node36</title>
<path fill="none" stroke="#191970" d="M91.8254,-20.9361C100.243,-19.5529 109.0087,-18.1126 117.367,-16.7392"/>
<polygon fill="#191970" stroke="#191970" points="118.0094,-20.1807 127.3095,-15.1055 116.8743,-13.2733 118.0094,-20.1807"/>
</g>
<!-- Node35 -->
<g id="node3" class="node">
<title>Node35</title>
<g id="a_node3"><a xlink:href="_a_p_i_8h.html#ab9989f4619e4d3ccb13ed4c36d5f787a" target="_top" xlink:title="fprintf">
<polygon fill="none" stroke="#000000" points="310.4922,-19.5 310.4922,-37.5 351.502,-37.5 351.502,-19.5 310.4922,-19.5"/>
<text text-anchor="middle" x="330.9971" y="-25.5" font-family="Helvetica,sans-Serif" font-size="10.00" fill="#000000">fprintf</text>
</a>
</g>
</g>
<!-- Node34&#45;&gt;Node35 -->
<g id="edge2" class="edge">
<title>Node34&#45;&gt;Node35</title>
<path fill="none" stroke="#191970" d="M274.6374,-28.5C282.5974,-28.5 291.7585,-28.5 300.3496,-28.5"/>
<polygon fill="#191970" stroke="#191970" points="300.4271,-32.0001 310.4271,-28.5 300.4271,-25.0001 300.4271,-32.0001"/>
</g>
<!-- Node36&#45;&gt;Node34 -->
<g id="edge4" class="edge">
<title>Node36&#45;&gt;Node34</title>
<path fill="none" stroke="#191970" d="M195.4771,-16.5749C203.8327,-18.3108 212.7455,-20.1625 220.9946,-21.8763"/>
<polygon fill="#191970" stroke="#191970" points="220.4937,-25.3469 230.9966,-23.9543 221.9176,-18.4933 220.4937,-25.3469"/>
</g>
</g>
</svg>
