<?xml version="1.0" encoding="UTF-8" standalone="no"?>
<!DOCTYPE svg PUBLIC "-//W3C//DTD SVG 1.1//EN"
 "http://www.w3.org/Graphics/SVG/1.1/DTD/svg11.dtd">
<!-- Generated by graphviz version 2.40.1 (20161225.0304)
 -->
<!-- Title: multiplyMatrix Pages: 1 -->
<svg width="549pt" height="138pt"
 viewBox="0.00 0.00 548.54 138.00" xmlns="http://www.w3.org/2000/svg" xmlns:xlink="http://www.w3.org/1999/xlink">
<g id="graph0" class="graph" transform="scale(1 1) rotate(0) translate(4 134)">
<title>multiplyMatrix</title>
<!-- Node106 -->
<g id="node1" class="node">
<title>Node106</title>
<polygon fill="#bfbfbf" stroke="#000000" points="0,-55.5 0,-73.5 77.1182,-73.5 77.1182,-55.5 0,-55.5"/>
<text text-anchor="middle" x="38.5591" y="-61.5" font-family="Helvetica,sans-Serif" font-size="10.00" fill="#000000">multiplyMatrix</text>
</g>
<!-- Node107 -->
<g id="node2" class="node">
<title>Node107</title>
<g id="a_node2"><a xlink:href="matrix_8c.html#a8e41e30382335ea89f90b72db0b44d6f" target="_top" xlink:title="Asserts a condition is true. ">
<polygon fill="none" stroke="#000000" points="216.793,-55.5 216.793,-73.5 260.0244,-73.5 260.0244,-55.5 216.793,-55.5"/>
<text text-anchor="middle" x="238.4087" y="-61.5" font-family="Helvetica,sans-Serif" font-size="10.00" fill="#000000">assert</text>
</a>
</g>
</g>
<!-- Node106&#45;&gt;Node107 -->
<g id="edge1" class="edge">
<title>Node106&#45;&gt;Node107</title>
<path fill="none" stroke="#191970" d="M77.5665,-64.5C115.2441,-64.5 171.6068,-64.5 206.6326,-64.5"/>
<polygon fill="#191970" stroke="#191970" points="206.7734,-68.0001 216.7734,-64.5 206.7734,-61.0001 206.7734,-68.0001"/>
</g>
<!-- Node114 -->
<g id="node9" class="node">
<title>Node114</title>
<g id="a_node9"><a xlink:href="matrix_8c.html#aae8b56c6fb44d9147b835f4006ca872c" target="_top" xlink:title="Makes a matrix with a width and height parameters. ">
<polygon fill="none" stroke="#000000" points="113.1182,-36.5 113.1182,-54.5 180.793,-54.5 180.793,-36.5 113.1182,-36.5"/>
<text text-anchor="middle" x="146.9556" y="-42.5" font-family="Helvetica,sans-Serif" font-size="10.00" fill="#000000">makeMatrix</text>
</a>
</g>
</g>
<!-- Node106&#45;&gt;Node114 -->
<g id="edge8" class="edge">
<title>Node106&#45;&gt;Node114</title>
<path fill="none" stroke="#191970" d="M77.3865,-57.6942C85.6787,-56.2408 94.4942,-54.6956 102.9645,-53.2109"/>
<polygon fill="#191970" stroke="#191970" points="103.8215,-56.6141 113.067,-51.4401 102.6129,-49.7192 103.8215,-56.6141"/>
</g>
<!-- Node108 -->
<g id="node3" class="node">
<title>Node108</title>
<g id="a_node3"><a xlink:href="log_8h.html#a8e5bb8a2a372f5b066ff7af7044584c1" target="_top" xlink:title="prints a error message and displays on lcd. ">
<polygon fill="none" stroke="#000000" points="296.0244,-55.5 296.0244,-73.5 333.1377,-73.5 333.1377,-55.5 296.0244,-55.5"/>
<text text-anchor="middle" x="314.5811" y="-61.5" font-family="Helvetica,sans-Serif" font-size="10.00" fill="#000000">error</text>
</a>
</g>
</g>
<!-- Node107&#45;&gt;Node108 -->
<g id="edge2" class="edge">
<title>Node107&#45;&gt;Node108</title>
<path fill="none" stroke="#191970" d="M260.0329,-64.5C268.1005,-64.5 277.3885,-64.5 285.987,-64.5"/>
<polygon fill="#191970" stroke="#191970" points="286.0051,-68.0001 296.0051,-64.5 286.005,-61.0001 286.0051,-68.0001"/>
</g>
<!-- Node109 -->
<g id="node4" class="node">
<title>Node109</title>
<g id="a_node4"><a xlink:href="log_8c.html#afff22aff6749311a684a559cac3ac8bd" target="_top" xlink:title="prints a log info message to the lcd ">
<polygon fill="none" stroke="#000000" points="369.1377,-55.5 369.1377,-73.5 420.167,-73.5 420.167,-55.5 369.1377,-55.5"/>
<text text-anchor="middle" x="394.6523" y="-61.5" font-family="Helvetica,sans-Serif" font-size="10.00" fill="#000000">log_info</text>
</a>
</g>
</g>
<!-- Node108&#45;&gt;Node109 -->
<g id="edge3" class="edge">
<title>Node108&#45;&gt;Node109</title>
<path fill="none" stroke="#191970" d="M333.1523,-64.5C340.7895,-64.5 349.9063,-64.5 358.7511,-64.5"/>
<polygon fill="#191970" stroke="#191970" points="358.9042,-68.0001 368.9041,-64.5 358.9041,-61.0001 358.9042,-68.0001"/>
</g>
<!-- Node110 -->
<g id="node5" class="node">
<title>Node110</title>
<g id="a_node5"><a xlink:href="_a_p_i_8h.html#a403c82418e475fa4a8273719e6a7f3e6" target="_top" xlink:title="Prints the formatted string to the debug stream (the PC terminal). ">
<polygon fill="none" stroke="#000000" points="479.2358,-111.5 479.2358,-129.5 517.4673,-129.5 517.4673,-111.5 479.2358,-111.5"/>
<text text-anchor="middle" x="498.3516" y="-117.5" font-family="Helvetica,sans-Serif" font-size="10.00" fill="#000000">printf</text>
</a>
</g>
</g>
<!-- Node109&#45;&gt;Node110 -->
<g id="edge4" class="edge">
<title>Node109&#45;&gt;Node110</title>
<path fill="none" stroke="#191970" d="M407.9937,-73.5526C420.2303,-81.6578 439.0051,-93.6016 456.167,-102.5 460.532,-104.7632 465.2457,-106.9819 469.8858,-109.0459"/>
<polygon fill="#191970" stroke="#191970" points="468.6019,-112.3035 479.1718,-113.0298 471.3618,-105.8706 468.6019,-112.3035"/>
</g>
<!-- Node111 -->
<g id="node6" class="node">
<title>Node111</title>
<g id="a_node6"><a xlink:href="_a_p_i_8h.html#aab53a247d88151a6623c20fa1ea940b0" target="_top" xlink:title="Sets the specified LCD backlight to be on or off. ">
<polygon fill="none" stroke="#000000" points="456.167,-74.5 456.167,-92.5 540.5361,-92.5 540.5361,-74.5 456.167,-74.5"/>
<text text-anchor="middle" x="498.3516" y="-80.5" font-family="Helvetica,sans-Serif" font-size="10.00" fill="#000000">lcdSetBacklight</text>
</a>
</g>
</g>
<!-- Node109&#45;&gt;Node111 -->
<g id="edge5" class="edge">
<title>Node109&#45;&gt;Node111</title>
<path fill="none" stroke="#191970" d="M420.2859,-69.1966C428.1298,-70.6338 437.0599,-72.27 446.0096,-73.9098"/>
<polygon fill="#191970" stroke="#191970" points="445.5986,-77.3927 456.0656,-75.7523 446.8602,-70.5073 445.5986,-77.3927"/>
</g>
<!-- Node112 -->
<g id="node7" class="node">
<title>Node112</title>
<g id="a_node7"><a xlink:href="_a_p_i_8h.html#a5fa1d119fe3e836b5519f97eae7a1272" target="_top" xlink:title="Clears the LCD screen on the specified port. ">
<polygon fill="none" stroke="#000000" points="472.0117,-37.5 472.0117,-55.5 524.6914,-55.5 524.6914,-37.5 472.0117,-37.5"/>
<text text-anchor="middle" x="498.3516" y="-43.5" font-family="Helvetica,sans-Serif" font-size="10.00" fill="#000000">lcdClear</text>
</a>
</g>
</g>
<!-- Node109&#45;&gt;Node112 -->
<g id="edge6" class="edge">
<title>Node109&#45;&gt;Node112</title>
<path fill="none" stroke="#191970" d="M420.2859,-60.0506C432.808,-57.877 448.0985,-55.2229 461.8175,-52.8415"/>
<polygon fill="#191970" stroke="#191970" points="462.6762,-56.2449 471.9303,-51.0862 461.479,-49.348 462.6762,-56.2449"/>
</g>
<!-- Node113 -->
<g id="node8" class="node">
<title>Node113</title>
<g id="a_node8"><a xlink:href="_a_p_i_8h.html#a6cfad8271c6a566a2f51ca318f819a80" target="_top" xlink:title="Prints the formatted string to the attached LCD. ">
<polygon fill="none" stroke="#000000" points="473.6792,-.5 473.6792,-18.5 523.0239,-18.5 523.0239,-.5 473.6792,-.5"/>
<text text-anchor="middle" x="498.3516" y="-6.5" font-family="Helvetica,sans-Serif" font-size="10.00" fill="#000000">lcdPrint</text>
</a>
</g>
</g>
<!-- Node109&#45;&gt;Node113 -->
<g id="edge7" class="edge">
<title>Node109&#45;&gt;Node113</title>
<path fill="none" stroke="#191970" d="M408.5087,-55.4099C420.7751,-47.5475 439.2985,-36.1198 456.167,-27.5 459.3112,-25.8933 462.6318,-24.3032 465.9735,-22.7721"/>
<polygon fill="#191970" stroke="#191970" points="467.5818,-25.888 475.3175,-18.6485 464.7556,-19.4839 467.5818,-25.888"/>
</g>
<!-- Node114&#45;&gt;Node107 -->
<g id="edge9" class="edge">
<title>Node114&#45;&gt;Node107</title>
<path fill="none" stroke="#191970" d="M181.0093,-52.5749C189.3649,-54.3108 198.2777,-56.1625 206.5268,-57.8763"/>
<polygon fill="#191970" stroke="#191970" points="206.0259,-61.3469 216.5288,-59.9543 207.4499,-54.4933 206.0259,-61.3469"/>
</g>
</g>
</svg>
