<?xml version="1.0" encoding="UTF-8" standalone="no"?>
<!DOCTYPE svg PUBLIC "-//W3C//DTD SVG 1.1//EN"
 "http://www.w3.org/Graphics/SVG/1.1/DTD/svg11.dtd">
<!-- Generated by graphviz version 2.40.1 (20161225.0304)
 -->
<!-- Title: dotProductMatrix Pages: 1 -->
<!--zoomable 138 -->
<svg id="main" version="1.1" xmlns="http://www.w3.org/2000/svg" xmlns:xlink="http://www.w3.org/1999/xlink" xml:space="preserve" onload="init(evt)">
<style type="text/css"><![CDATA[
.edge:hover path { stroke: red; }
.edge:hover polygon { stroke: red; fill: red; }
]]></style>
<script type="text/javascript"><![CDATA[
var edges = document.getElementsByTagName('g');
if (edges && edges.length) {
  for (var i=0;i<edges.length;i++) {
    if (edges[i].id.substr(0,4)=='edge') {
      edges[i].setAttribute('class','edge');
    }
  }
}
]]></script>
        <defs>
                <circle id="rim" cx="0" cy="0" r="7"/>
                <circle id="rim2" cx="0" cy="0" r="3.5"/>
                <g id="zoomPlus">
                        <use xlink:href="#rim" fill="#404040">
                                <set attributeName="fill" to="#808080" begin="zoomplus.mouseover" end="zoomplus.mouseout"/>
                        </use>
                        <path d="M-4,0h8M0,-4v8" fill="none" stroke="white" stroke-width="1.5" pointer-events="none"/>
                </g>
                <g id="zoomMin">
                        <use xlink:href="#rim" fill="#404040">
                                <set attributeName="fill" to="#808080" begin="zoomminus.mouseover" end="zoomminus.mouseout"/>
                        </use>
                        <path d="M-4,0h8" fill="none" stroke="white" stroke-width="1.5" pointer-events="none"/>
                </g>
                <g id="dirArrow">
                        <path fill="none" stroke="white" stroke-width="1.5" d="M0,-3.0v7 M-2.5,-0.5L0,-3.0L2.5,-0.5"/>
                </g>
               <g id="resetDef">
                       <use xlink:href="#rim2" fill="#404040">
                               <set attributeName="fill" to="#808080" begin="reset.mouseover" end="reset.mouseout"/>
                       </use>
               </g>
        </defs>

<script type="text/javascript">
var viewWidth = 563;
var viewHeight = 138;
var sectionId = 'dynsection-5';
</script>
<script xlink:href="svgpan.js"/>
<svg id="graph" class="graph">
<g id="viewport">
<title>dotProductMatrix</title>
<!-- Node53 -->
<g id="node1" class="node">
<title>Node53</title>
<polygon fill="#bfbfbf" stroke="#000000" points="0,-55.5 0,-73.5 91.5859,-73.5 91.5859,-55.5 0,-55.5"/>
<text text-anchor="middle" x="45.793" y="-61.5" font-family="Helvetica,sans-Serif" font-size="10.00" fill="#000000">dotProductMatrix</text>
</g>
<!-- Node54 -->
<g id="node2" class="node">
<title>Node54</title>
<g id="a_node2"><a xlink:href="matrix_8c.html#a8e41e30382335ea89f90b72db0b44d6f" target="_top" xlink:title="Asserts a condition is true. ">
<polygon fill="none" stroke="#000000" points="231.2607,-55.5 231.2607,-73.5 274.4922,-73.5 274.4922,-55.5 231.2607,-55.5"/>
<text text-anchor="middle" x="252.8765" y="-61.5" font-family="Helvetica,sans-Serif" font-size="10.00" fill="#000000">assert</text>
</a>
</g>
</g>
<!-- Node53&#45;&gt;Node54 -->
<g id="edge1" class="edge">
<title>Node53&#45;&gt;Node54</title>
<path fill="none" stroke="#191970" d="M91.7515,-64.5C131.0585,-64.5 186.5994,-64.5 221.1391,-64.5"/>
<polygon fill="#191970" stroke="#191970" points="221.1429,-68.0001 231.1428,-64.5 221.1428,-61.0001 221.1429,-68.0001"/>
</g>
<!-- Node61 -->
<g id="node9" class="node">
<title>Node61</title>
<g id="a_node9"><a xlink:href="matrix_8c.html#aae8b56c6fb44d9147b835f4006ca872c" target="_top" xlink:title="Makes a matrix with a width and height parameters. ">
<polygon fill="none" stroke="#000000" points="127.5859,-36.5 127.5859,-54.5 195.2607,-54.5 195.2607,-36.5 127.5859,-36.5"/>
<text text-anchor="middle" x="161.4233" y="-42.5" font-family="Helvetica,sans-Serif" font-size="10.00" fill="#000000">makeMatrix</text>
</a>
</g>
</g>
<!-- Node53&#45;&gt;Node61 -->
<g id="edge8" class="edge">
<title>Node53&#45;&gt;Node61</title>
<path fill="none" stroke="#191970" d="M91.8254,-56.9361C100.243,-55.5529 109.0087,-54.1126 117.367,-52.7392"/>
<polygon fill="#191970" stroke="#191970" points="118.0094,-56.1807 127.3095,-51.1055 116.8743,-49.2733 118.0094,-56.1807"/>
</g>
<!-- Node55 -->
<g id="node3" class="node">
<title>Node55</title>
<g id="a_node3"><a xlink:href="log_8h.html#a8e5bb8a2a372f5b066ff7af7044584c1" target="_top" xlink:title="prints a error message and displays on lcd. ">
<polygon fill="none" stroke="#000000" points="310.4922,-55.5 310.4922,-73.5 347.6055,-73.5 347.6055,-55.5 310.4922,-55.5"/>
<text text-anchor="middle" x="329.0488" y="-61.5" font-family="Helvetica,sans-Serif" font-size="10.00" fill="#000000">error</text>
</a>
</g>
</g>
<!-- Node54&#45;&gt;Node55 -->
<g id="edge2" class="edge">
<title>Node54&#45;&gt;Node55</title>
<path fill="none" stroke="#191970" d="M274.5007,-64.5C282.5683,-64.5 291.8563,-64.5 300.4548,-64.5"/>
<polygon fill="#191970" stroke="#191970" points="300.4729,-68.0001 310.4728,-64.5 300.4728,-61.0001 300.4729,-68.0001"/>
</g>
<!-- Node56 -->
<g id="node4" class="node">
<title>Node56</title>
<g id="a_node4"><a xlink:href="log_8c.html#afff22aff6749311a684a559cac3ac8bd" target="_top" xlink:title="prints a log info message to the lcd ">
<polygon fill="none" stroke="#000000" points="383.6055,-55.5 383.6055,-73.5 434.6348,-73.5 434.6348,-55.5 383.6055,-55.5"/>
<text text-anchor="middle" x="409.1201" y="-61.5" font-family="Helvetica,sans-Serif" font-size="10.00" fill="#000000">log_info</text>
</a>
</g>
</g>
<!-- Node55&#45;&gt;Node56 -->
<g id="edge3" class="edge">
<title>Node55&#45;&gt;Node56</title>
<path fill="none" stroke="#191970" d="M347.62,-64.5C355.2573,-64.5 364.3741,-64.5 373.2189,-64.5"/>
<polygon fill="#191970" stroke="#191970" points="373.3719,-68.0001 383.3719,-64.5 373.3719,-61.0001 373.3719,-68.0001"/>
</g>
<!-- Node57 -->
<g id="node5" class="node">
<title>Node57</title>
<g id="a_node5"><a xlink:href="_a_p_i_8h.html#a5fa1d119fe3e836b5519f97eae7a1272" target="_top" xlink:title="Clears the LCD screen on the specified port. ">
<polygon fill="none" stroke="#000000" points="486.4795,-111.5 486.4795,-129.5 539.1592,-129.5 539.1592,-111.5 486.4795,-111.5"/>
<text text-anchor="middle" x="512.8193" y="-117.5" font-family="Helvetica,sans-Serif" font-size="10.00" fill="#000000">lcdClear</text>
</a>
</g>
</g>
<!-- Node56&#45;&gt;Node57 -->
<g id="edge4" class="edge">
<title>Node56&#45;&gt;Node57</title>
<path fill="none" stroke="#191970" d="M422.4615,-73.5526C434.6981,-81.6578 453.4729,-93.6016 470.6348,-102.5 473.7694,-104.1253 477.0838,-105.7276 480.4216,-107.2661"/>
<polygon fill="#191970" stroke="#191970" points="479.1997,-110.5527 489.7607,-111.3992 482.0327,-104.1516 479.1997,-110.5527"/>
</g>
<!-- Node58 -->
<g id="node6" class="node">
<title>Node58</title>
<g id="a_node6"><a xlink:href="_a_p_i_8h.html#a6cfad8271c6a566a2f51ca318f819a80" target="_top" xlink:title="Prints the formatted string to the attached LCD. ">
<polygon fill="none" stroke="#000000" points="488.147,-74.5 488.147,-92.5 537.4917,-92.5 537.4917,-74.5 488.147,-74.5"/>
<text text-anchor="middle" x="512.8193" y="-80.5" font-family="Helvetica,sans-Serif" font-size="10.00" fill="#000000">lcdPrint</text>
</a>
</g>
</g>
<!-- Node56&#45;&gt;Node58 -->
<g id="edge5" class="edge">
<title>Node56&#45;&gt;Node58</title>
<path fill="none" stroke="#191970" d="M434.7536,-69.1966C447.7846,-71.5842 463.8136,-74.5211 477.9497,-77.1111"/>
<polygon fill="#191970" stroke="#191970" points="477.3714,-80.5633 487.8385,-78.923 478.6331,-73.678 477.3714,-80.5633"/>
</g>
<!-- Node59 -->
<g id="node7" class="node">
<title>Node59</title>
<g id="a_node7"><a xlink:href="_a_p_i_8h.html#aab53a247d88151a6623c20fa1ea940b0" target="_top" xlink:title="Sets the specified LCD backlight to be on or off. ">
<polygon fill="none" stroke="#000000" points="470.6348,-37.5 470.6348,-55.5 555.0039,-55.5 555.0039,-37.5 470.6348,-37.5"/>
<text text-anchor="middle" x="512.8193" y="-43.5" font-family="Helvetica,sans-Serif" font-size="10.00" fill="#000000">lcdSetBacklight</text>
</a>
</g>
</g>
<!-- Node56&#45;&gt;Node59 -->
<g id="edge6" class="edge">
<title>Node56&#45;&gt;Node59</title>
<path fill="none" stroke="#191970" d="M434.7536,-60.0506C442.5975,-58.689 451.5277,-57.1389 460.4774,-55.5855"/>
<polygon fill="#191970" stroke="#191970" points="461.2793,-58.9987 470.5334,-53.8399 460.0821,-52.1018 461.2793,-58.9987"/>
</g>
<!-- Node60 -->
<g id="node8" class="node">
<title>Node60</title>
<g id="a_node8"><a xlink:href="_a_p_i_8h.html#a403c82418e475fa4a8273719e6a7f3e6" target="_top" xlink:title="Prints the formatted string to the debug stream (the PC terminal). ">
<polygon fill="none" stroke="#000000" points="493.7036,-.5 493.7036,-18.5 531.9351,-18.5 531.9351,-.5 493.7036,-.5"/>
<text text-anchor="middle" x="512.8193" y="-6.5" font-family="Helvetica,sans-Serif" font-size="10.00" fill="#000000">printf</text>
</a>
</g>
</g>
<!-- Node56&#45;&gt;Node60 -->
<g id="edge7" class="edge">
<title>Node56&#45;&gt;Node60</title>
<path fill="none" stroke="#191970" d="M422.9765,-55.4099C435.2428,-47.5475 453.7663,-36.1198 470.6348,-27.5 475.0131,-25.2627 479.7337,-23.0574 484.3766,-20.9989"/>
<polygon fill="#191970" stroke="#191970" points="485.8522,-24.1744 493.6633,-17.0163 483.0933,-17.741 485.8522,-24.1744"/>
</g>
<!-- Node61&#45;&gt;Node54 -->
<g id="edge9" class="edge">
<title>Node61&#45;&gt;Node54</title>
<path fill="none" stroke="#191970" d="M195.4771,-52.5749C203.8327,-54.3108 212.7455,-56.1625 220.9946,-57.8763"/>
<polygon fill="#191970" stroke="#191970" points="220.4937,-61.3469 230.9966,-59.9543 221.9176,-54.4933 220.4937,-61.3469"/>
</g>
</g>
</svg>
        <g id="navigator" transform="translate(0 0)" fill="#404254">
                <rect fill="#f2f5e9" fill-opacity="0.5" stroke="#606060" stroke-width=".5" x="0" y="0" width="60" height="60"/>
                <use id="zoomplus" xlink:href="#zoomPlus" x="17" y="9" onmousedown="handleZoom(evt,'in')"/>
                <use id="zoomminus" xlink:href="#zoomMin" x="42" y="9" onmousedown="handleZoom(evt,'out')"/>
                <use id="reset" xlink:href="#resetDef" x="30" y="36" onmousedown="handleReset()"/>
                <g id="arrowUp" xlink:href="#dirArrow" transform="translate(30 24)" onmousedown="handlePan(0,-1)">
                  <use xlink:href="#rim" fill="#404040">
                        <set attributeName="fill" to="#808080" begin="arrowUp.mouseover" end="arrowUp.mouseout"/>
                  </use>
                  <path fill="none" stroke="white" stroke-width="1.5" d="M0,-3.0v7 M-2.5,-0.5L0,-3.0L2.5,-0.5"/>
                </g>
                <g id="arrowRight" xlink:href="#dirArrow" transform="rotate(90) translate(36 -43)" onmousedown="handlePan(1,0)">
                  <use xlink:href="#rim" fill="#404040">
                        <set attributeName="fill" to="#808080" begin="arrowRight.mouseover" end="arrowRight.mouseout"/>
                  </use>
                  <path fill="none" stroke="white" stroke-width="1.5" d="M0,-3.0v7 M-2.5,-0.5L0,-3.0L2.5,-0.5"/>
                </g>
                <g id="arrowDown" xlink:href="#dirArrow" transform="rotate(180) translate(-30 -48)" onmousedown="handlePan(0,1)">
                  <use xlink:href="#rim" fill="#404040">
                        <set attributeName="fill" to="#808080" begin="arrowDown.mouseover" end="arrowDown.mouseout"/>
                  </use>
                  <path fill="none" stroke="white" stroke-width="1.5" d="M0,-3.0v7 M-2.5,-0.5L0,-3.0L2.5,-0.5"/>
                </g>
                <g id="arrowLeft" xlink:href="#dirArrow" transform="rotate(270) translate(-36 17)" onmousedown="handlePan(-1,0)">
                  <use xlink:href="#rim" fill="#404040">
                        <set attributeName="fill" to="#808080" begin="arrowLeft.mouseover" end="arrowLeft.mouseout"/>
                  </use>
                  <path fill="none" stroke="white" stroke-width="1.5" d="M0,-3.0v7 M-2.5,-0.5L0,-3.0L2.5,-0.5"/>
                </g>
        </g>
        <svg viewBox="0 0 15 15" width="100%" height="30px" preserveAspectRatio="xMaxYMin meet">
         <g id="arrow_out" transform="scale(0.3 0.3)">
          <a xlink:href="matrix_8c_a0b568a64e81a56779c2141b424475976_cgraph_org.svg" target="_base">
           <rect id="button" ry="5" rx="5" y="6" x="6" height="38" width="38"
                fill="#f2f5e9" fill-opacity="0.5" stroke="#606060" stroke-width="1.0"/>
           <path id="arrow"
             d="M 11.500037,31.436501 C 11.940474,20.09759 22.043105,11.32322 32.158766,21.979434 L 37.068811,17.246167 C 37.068811,17.246167 37.088388,32 37.088388,32 L 22.160133,31.978069 C 22.160133,31.978069 26.997745,27.140456 26.997745,27.140456 C 18.528582,18.264221 13.291696,25.230495 11.500037,31.436501 z"
             style="fill:#404040;"/>
          </a>
         </g>
        </svg>
</svg>
