<?xml version="1.0" encoding="UTF-8" standalone="no"?>
<!DOCTYPE svg PUBLIC "-//W3C//DTD SVG 1.1//EN"
 "http://www.w3.org/Graphics/SVG/1.1/DTD/svg11.dtd">
<!-- Generated by graphviz version 2.40.1 (20161225.0304)
 -->
<!-- Title: scaleMatrix Pages: 1 -->
<svg width="538pt" height="138pt"
 viewBox="0.00 0.00 537.98 138.00" xmlns="http://www.w3.org/2000/svg" xmlns:xlink="http://www.w3.org/1999/xlink">
<g id="graph0" class="graph" transform="scale(1 1) rotate(0) translate(4 134)">
<title>scaleMatrix</title>
<!-- Node128 -->
<g id="node1" class="node">
<title>Node128</title>
<polygon fill="#bfbfbf" stroke="#000000" points="0,-55.5 0,-73.5 66.5664,-73.5 66.5664,-55.5 0,-55.5"/>
<text text-anchor="middle" x="33.2832" y="-61.5" font-family="Helvetica,sans-Serif" font-size="10.00" fill="#000000">scaleMatrix</text>
</g>
<!-- Node129 -->
<g id="node2" class="node">
<title>Node129</title>
<g id="a_node2"><a xlink:href="matrix_8c.html#aae8b56c6fb44d9147b835f4006ca872c" target="_top" xlink:title="Makes a matrix with a width and height parameters. ">
<polygon fill="none" stroke="#000000" points="102.5664,-55.5 102.5664,-73.5 170.2412,-73.5 170.2412,-55.5 102.5664,-55.5"/>
<text text-anchor="middle" x="136.4038" y="-61.5" font-family="Helvetica,sans-Serif" font-size="10.00" fill="#000000">makeMatrix</text>
</a>
</g>
</g>
<!-- Node128&#45;&gt;Node129 -->
<g id="edge1" class="edge">
<title>Node128&#45;&gt;Node129</title>
<path fill="none" stroke="#191970" d="M66.7635,-64.5C74.8746,-64.5 83.6693,-64.5 92.1906,-64.5"/>
<polygon fill="#191970" stroke="#191970" points="92.3849,-68.0001 102.3849,-64.5 92.3848,-61.0001 92.3849,-68.0001"/>
</g>
<!-- Node130 -->
<g id="node3" class="node">
<title>Node130</title>
<g id="a_node3"><a xlink:href="matrix_8c.html#a8e41e30382335ea89f90b72db0b44d6f" target="_top" xlink:title="Asserts a condition is true. ">
<polygon fill="none" stroke="#000000" points="206.2412,-55.5 206.2412,-73.5 249.4727,-73.5 249.4727,-55.5 206.2412,-55.5"/>
<text text-anchor="middle" x="227.8569" y="-61.5" font-family="Helvetica,sans-Serif" font-size="10.00" fill="#000000">assert</text>
</a>
</g>
</g>
<!-- Node129&#45;&gt;Node130 -->
<g id="edge2" class="edge">
<title>Node129&#45;&gt;Node130</title>
<path fill="none" stroke="#191970" d="M170.4576,-64.5C178.8131,-64.5 187.726,-64.5 195.9751,-64.5"/>
<polygon fill="#191970" stroke="#191970" points="195.9771,-68.0001 205.9771,-64.5 195.977,-61.0001 195.9771,-68.0001"/>
</g>
<!-- Node131 -->
<g id="node4" class="node">
<title>Node131</title>
<g id="a_node4"><a xlink:href="log_8h.html#a8e5bb8a2a372f5b066ff7af7044584c1" target="_top" xlink:title="prints a error message and displays on lcd. ">
<polygon fill="none" stroke="#000000" points="285.4727,-55.5 285.4727,-73.5 322.5859,-73.5 322.5859,-55.5 285.4727,-55.5"/>
<text text-anchor="middle" x="304.0293" y="-61.5" font-family="Helvetica,sans-Serif" font-size="10.00" fill="#000000">error</text>
</a>
</g>
</g>
<!-- Node130&#45;&gt;Node131 -->
<g id="edge3" class="edge">
<title>Node130&#45;&gt;Node131</title>
<path fill="none" stroke="#191970" d="M249.4811,-64.5C257.5488,-64.5 266.8367,-64.5 275.4353,-64.5"/>
<polygon fill="#191970" stroke="#191970" points="275.4533,-68.0001 285.4533,-64.5 275.4533,-61.0001 275.4533,-68.0001"/>
</g>
<!-- Node132 -->
<g id="node5" class="node">
<title>Node132</title>
<g id="a_node5"><a xlink:href="log_8c.html#afff22aff6749311a684a559cac3ac8bd" target="_top" xlink:title="prints a log info message to the lcd ">
<polygon fill="none" stroke="#000000" points="358.5859,-55.5 358.5859,-73.5 409.6152,-73.5 409.6152,-55.5 358.5859,-55.5"/>
<text text-anchor="middle" x="384.1006" y="-61.5" font-family="Helvetica,sans-Serif" font-size="10.00" fill="#000000">log_info</text>
</a>
</g>
</g>
<!-- Node131&#45;&gt;Node132 -->
<g id="edge4" class="edge">
<title>Node131&#45;&gt;Node132</title>
<path fill="none" stroke="#191970" d="M322.6005,-64.5C330.2378,-64.5 339.3546,-64.5 348.1993,-64.5"/>
<polygon fill="#191970" stroke="#191970" points="348.3524,-68.0001 358.3524,-64.5 348.3523,-61.0001 348.3524,-68.0001"/>
</g>
<!-- Node133 -->
<g id="node6" class="node">
<title>Node133</title>
<g id="a_node6"><a xlink:href="_a_p_i_8h.html#a5fa1d119fe3e836b5519f97eae7a1272" target="_top" xlink:title="Clears the LCD screen on the specified port. ">
<polygon fill="none" stroke="#000000" points="461.46,-111.5 461.46,-129.5 514.1396,-129.5 514.1396,-111.5 461.46,-111.5"/>
<text text-anchor="middle" x="487.7998" y="-117.5" font-family="Helvetica,sans-Serif" font-size="10.00" fill="#000000">lcdClear</text>
</a>
</g>
</g>
<!-- Node132&#45;&gt;Node133 -->
<g id="edge5" class="edge">
<title>Node132&#45;&gt;Node133</title>
<path fill="none" stroke="#191970" d="M397.4419,-73.5526C409.6786,-81.6578 428.4533,-93.6016 445.6152,-102.5 448.7498,-104.1253 452.0642,-105.7276 455.4021,-107.2661"/>
<polygon fill="#191970" stroke="#191970" points="454.1802,-110.5527 464.7412,-111.3992 457.0131,-104.1516 454.1802,-110.5527"/>
</g>
<!-- Node134 -->
<g id="node7" class="node">
<title>Node134</title>
<g id="a_node7"><a xlink:href="_a_p_i_8h.html#a6cfad8271c6a566a2f51ca318f819a80" target="_top" xlink:title="Prints the formatted string to the attached LCD. ">
<polygon fill="none" stroke="#000000" points="463.1274,-74.5 463.1274,-92.5 512.4722,-92.5 512.4722,-74.5 463.1274,-74.5"/>
<text text-anchor="middle" x="487.7998" y="-80.5" font-family="Helvetica,sans-Serif" font-size="10.00" fill="#000000">lcdPrint</text>
</a>
</g>
</g>
<!-- Node132&#45;&gt;Node134 -->
<g id="edge6" class="edge">
<title>Node132&#45;&gt;Node134</title>
<path fill="none" stroke="#191970" d="M409.7341,-69.1966C422.7651,-71.5842 438.7941,-74.5211 452.9302,-77.1111"/>
<polygon fill="#191970" stroke="#191970" points="452.3519,-80.5633 462.819,-78.923 453.6135,-73.678 452.3519,-80.5633"/>
</g>
<!-- Node135 -->
<g id="node8" class="node">
<title>Node135</title>
<g id="a_node8"><a xlink:href="_a_p_i_8h.html#aab53a247d88151a6623c20fa1ea940b0" target="_top" xlink:title="Sets the specified LCD backlight to be on or off. ">
<polygon fill="none" stroke="#000000" points="445.6152,-37.5 445.6152,-55.5 529.9844,-55.5 529.9844,-37.5 445.6152,-37.5"/>
<text text-anchor="middle" x="487.7998" y="-43.5" font-family="Helvetica,sans-Serif" font-size="10.00" fill="#000000">lcdSetBacklight</text>
</a>
</g>
</g>
<!-- Node132&#45;&gt;Node135 -->
<g id="edge7" class="edge">
<title>Node132&#45;&gt;Node135</title>
<path fill="none" stroke="#191970" d="M409.7341,-60.0506C417.578,-58.689 426.5082,-57.1389 435.4579,-55.5855"/>
<polygon fill="#191970" stroke="#191970" points="436.2598,-58.9987 445.5139,-53.8399 435.0626,-52.1018 436.2598,-58.9987"/>
</g>
<!-- Node136 -->
<g id="node9" class="node">
<title>Node136</title>
<g id="a_node9"><a xlink:href="_a_p_i_8h.html#a403c82418e475fa4a8273719e6a7f3e6" target="_top" xlink:title="Prints the formatted string to the debug stream (the PC terminal). ">
<polygon fill="none" stroke="#000000" points="468.6841,-.5 468.6841,-18.5 506.9155,-18.5 506.9155,-.5 468.6841,-.5"/>
<text text-anchor="middle" x="487.7998" y="-6.5" font-family="Helvetica,sans-Serif" font-size="10.00" fill="#000000">printf</text>
</a>
</g>
</g>
<!-- Node132&#45;&gt;Node136 -->
<g id="edge8" class="edge">
<title>Node132&#45;&gt;Node136</title>
<path fill="none" stroke="#191970" d="M398.5224,-55.4724C410.8361,-47.9076 429.1204,-37.0107 445.6152,-28.5 449.9383,-26.2695 454.5768,-24.0309 459.1396,-21.913"/>
<polygon fill="#191970" stroke="#191970" points="460.6083,-25.0902 468.2737,-17.7764 457.7204,-18.7136 460.6083,-25.0902"/>
</g>
</g>
</svg>
