<?xml version="1.0" encoding="UTF-8" standalone="no"?>
<!DOCTYPE svg PUBLIC "-//W3C//DTD SVG 1.1//EN"
 "http://www.w3.org/Graphics/SVG/1.1/DTD/svg11.dtd">
<!-- Generated by graphviz version 2.40.1 (20161225.0304)
 -->
<!-- Title: identityMatrix Pages: 1 -->
<svg width="546pt" height="138pt"
 viewBox="0.00 0.00 546.32 138.00" xmlns="http://www.w3.org/2000/svg" xmlns:xlink="http://www.w3.org/1999/xlink">
<g id="graph0" class="graph" transform="scale(1 1) rotate(0) translate(4 134)">
<title>identityMatrix</title>
<!-- Node66 -->
<g id="node1" class="node">
<title>Node66</title>
<polygon fill="#bfbfbf" stroke="#000000" points="0,-55.5 0,-73.5 74.9063,-73.5 74.9063,-55.5 0,-55.5"/>
<text text-anchor="middle" x="37.4531" y="-61.5" font-family="Helvetica,sans-Serif" font-size="10.00" fill="#000000">identityMatrix</text>
</g>
<!-- Node67 -->
<g id="node2" class="node">
<title>Node67</title>
<g id="a_node2"><a xlink:href="matrix_8c.html#a8e41e30382335ea89f90b72db0b44d6f" target="_top" xlink:title="Asserts a condition is true. ">
<polygon fill="none" stroke="#000000" points="214.5811,-55.5 214.5811,-73.5 257.8125,-73.5 257.8125,-55.5 214.5811,-55.5"/>
<text text-anchor="middle" x="236.1968" y="-61.5" font-family="Helvetica,sans-Serif" font-size="10.00" fill="#000000">assert</text>
</a>
</g>
</g>
<!-- Node66&#45;&gt;Node67 -->
<g id="edge1" class="edge">
<title>Node66&#45;&gt;Node67</title>
<path fill="none" stroke="#191970" d="M75.3031,-64.5C112.6592,-64.5 169.1385,-64.5 204.2864,-64.5"/>
<polygon fill="#191970" stroke="#191970" points="204.4648,-68.0001 214.4648,-64.5 204.4648,-61.0001 204.4648,-68.0001"/>
</g>
<!-- Node74 -->
<g id="node9" class="node">
<title>Node74</title>
<g id="a_node9"><a xlink:href="matrix_8c.html#aae8b56c6fb44d9147b835f4006ca872c" target="_top" xlink:title="Makes a matrix with a width and height parameters. ">
<polygon fill="none" stroke="#000000" points="110.9063,-36.5 110.9063,-54.5 178.5811,-54.5 178.5811,-36.5 110.9063,-36.5"/>
<text text-anchor="middle" x="144.7437" y="-42.5" font-family="Helvetica,sans-Serif" font-size="10.00" fill="#000000">makeMatrix</text>
</a>
</g>
</g>
<!-- Node66&#45;&gt;Node74 -->
<g id="edge8" class="edge">
<title>Node66&#45;&gt;Node74</title>
<path fill="none" stroke="#191970" d="M74.9781,-57.8547C83.3173,-56.3779 92.2294,-54.7997 100.7998,-53.282"/>
<polygon fill="#191970" stroke="#191970" points="101.4124,-56.728 110.6488,-51.5378 100.1917,-49.8353 101.4124,-56.728"/>
</g>
<!-- Node68 -->
<g id="node3" class="node">
<title>Node68</title>
<g id="a_node3"><a xlink:href="log_8h.html#a8e5bb8a2a372f5b066ff7af7044584c1" target="_top" xlink:title="prints a error message and displays on lcd. ">
<polygon fill="none" stroke="#000000" points="293.8125,-55.5 293.8125,-73.5 330.9258,-73.5 330.9258,-55.5 293.8125,-55.5"/>
<text text-anchor="middle" x="312.3691" y="-61.5" font-family="Helvetica,sans-Serif" font-size="10.00" fill="#000000">error</text>
</a>
</g>
</g>
<!-- Node67&#45;&gt;Node68 -->
<g id="edge2" class="edge">
<title>Node67&#45;&gt;Node68</title>
<path fill="none" stroke="#191970" d="M257.821,-64.5C265.8886,-64.5 275.1766,-64.5 283.7751,-64.5"/>
<polygon fill="#191970" stroke="#191970" points="283.7932,-68.0001 293.7931,-64.5 283.7931,-61.0001 283.7932,-68.0001"/>
</g>
<!-- Node69 -->
<g id="node4" class="node">
<title>Node69</title>
<g id="a_node4"><a xlink:href="log_8c.html#afff22aff6749311a684a559cac3ac8bd" target="_top" xlink:title="prints a log info message to the lcd ">
<polygon fill="none" stroke="#000000" points="366.9258,-55.5 366.9258,-73.5 417.9551,-73.5 417.9551,-55.5 366.9258,-55.5"/>
<text text-anchor="middle" x="392.4404" y="-61.5" font-family="Helvetica,sans-Serif" font-size="10.00" fill="#000000">log_info</text>
</a>
</g>
</g>
<!-- Node68&#45;&gt;Node69 -->
<g id="edge3" class="edge">
<title>Node68&#45;&gt;Node69</title>
<path fill="none" stroke="#191970" d="M330.9404,-64.5C338.5776,-64.5 347.6944,-64.5 356.5392,-64.5"/>
<polygon fill="#191970" stroke="#191970" points="356.6923,-68.0001 366.6922,-64.5 356.6922,-61.0001 356.6923,-68.0001"/>
</g>
<!-- Node70 -->
<g id="node5" class="node">
<title>Node70</title>
<g id="a_node5"><a xlink:href="_a_p_i_8h.html#a5fa1d119fe3e836b5519f97eae7a1272" target="_top" xlink:title="Clears the LCD screen on the specified port. ">
<polygon fill="none" stroke="#000000" points="469.7998,-111.5 469.7998,-129.5 522.4795,-129.5 522.4795,-111.5 469.7998,-111.5"/>
<text text-anchor="middle" x="496.1396" y="-117.5" font-family="Helvetica,sans-Serif" font-size="10.00" fill="#000000">lcdClear</text>
</a>
</g>
</g>
<!-- Node69&#45;&gt;Node70 -->
<g id="edge4" class="edge">
<title>Node69&#45;&gt;Node70</title>
<path fill="none" stroke="#191970" d="M405.7818,-73.5526C418.0184,-81.6578 436.7932,-93.6016 453.9551,-102.5 457.0897,-104.1253 460.4041,-105.7276 463.7419,-107.2661"/>
<polygon fill="#191970" stroke="#191970" points="462.52,-110.5527 473.081,-111.3992 465.353,-104.1516 462.52,-110.5527"/>
</g>
<!-- Node71 -->
<g id="node6" class="node">
<title>Node71</title>
<g id="a_node6"><a xlink:href="_a_p_i_8h.html#a6cfad8271c6a566a2f51ca318f819a80" target="_top" xlink:title="Prints the formatted string to the attached LCD. ">
<polygon fill="none" stroke="#000000" points="471.4673,-74.5 471.4673,-92.5 520.812,-92.5 520.812,-74.5 471.4673,-74.5"/>
<text text-anchor="middle" x="496.1396" y="-80.5" font-family="Helvetica,sans-Serif" font-size="10.00" fill="#000000">lcdPrint</text>
</a>
</g>
</g>
<!-- Node69&#45;&gt;Node71 -->
<g id="edge5" class="edge">
<title>Node69&#45;&gt;Node71</title>
<path fill="none" stroke="#191970" d="M418.074,-69.1966C431.1049,-71.5842 447.1339,-74.5211 461.27,-77.1111"/>
<polygon fill="#191970" stroke="#191970" points="460.6918,-80.5633 471.1588,-78.923 461.9534,-73.678 460.6918,-80.5633"/>
</g>
<!-- Node72 -->
<g id="node7" class="node">
<title>Node72</title>
<g id="a_node7"><a xlink:href="_a_p_i_8h.html#aab53a247d88151a6623c20fa1ea940b0" target="_top" xlink:title="Sets the specified LCD backlight to be on or off. ">
<polygon fill="none" stroke="#000000" points="453.9551,-37.5 453.9551,-55.5 538.3242,-55.5 538.3242,-37.5 453.9551,-37.5"/>
<text text-anchor="middle" x="496.1396" y="-43.5" font-family="Helvetica,sans-Serif" font-size="10.00" fill="#000000">lcdSetBacklight</text>
</a>
</g>
</g>
<!-- Node69&#45;&gt;Node72 -->
<g id="edge6" class="edge">
<title>Node69&#45;&gt;Node72</title>
<path fill="none" stroke="#191970" d="M418.074,-60.0506C425.9178,-58.689 434.848,-57.1389 443.7977,-55.5855"/>
<polygon fill="#191970" stroke="#191970" points="444.5996,-58.9987 453.8537,-53.8399 443.4024,-52.1018 444.5996,-58.9987"/>
</g>
<!-- Node73 -->
<g id="node8" class="node">
<title>Node73</title>
<g id="a_node8"><a xlink:href="_a_p_i_8h.html#a403c82418e475fa4a8273719e6a7f3e6" target="_top" xlink:title="Prints the formatted string to the debug stream (the PC terminal). ">
<polygon fill="none" stroke="#000000" points="477.0239,-.5 477.0239,-18.5 515.2554,-18.5 515.2554,-.5 477.0239,-.5"/>
<text text-anchor="middle" x="496.1396" y="-6.5" font-family="Helvetica,sans-Serif" font-size="10.00" fill="#000000">printf</text>
</a>
</g>
</g>
<!-- Node69&#45;&gt;Node73 -->
<g id="edge7" class="edge">
<title>Node69&#45;&gt;Node73</title>
<path fill="none" stroke="#191970" d="M406.2968,-55.4099C418.5631,-47.5475 437.0866,-36.1198 453.9551,-27.5 458.3334,-25.2627 463.054,-23.0574 467.6969,-20.9989"/>
<polygon fill="#191970" stroke="#191970" points="469.1725,-24.1744 476.9836,-17.0163 466.4136,-17.741 469.1725,-24.1744"/>
</g>
<!-- Node74&#45;&gt;Node67 -->
<g id="edge9" class="edge">
<title>Node74&#45;&gt;Node67</title>
<path fill="none" stroke="#191970" d="M178.7974,-52.5749C187.153,-54.3108 196.0658,-56.1625 204.3149,-57.8763"/>
<polygon fill="#191970" stroke="#191970" points="203.814,-61.3469 214.3169,-59.9543 205.2379,-54.4933 203.814,-61.3469"/>
</g>
</g>
</svg>
