<?xml version="1.0" encoding="UTF-8" standalone="no"?>
<!DOCTYPE svg PUBLIC "-//W3C//DTD SVG 1.1//EN"
 "http://www.w3.org/Graphics/SVG/1.1/DTD/svg11.dtd">
<!-- Generated by graphviz version 2.40.1 (20161225.0304)
 -->
<!-- Title: makeMatrix Pages: 1 -->
<svg width="435pt" height="138pt"
 viewBox="0.00 0.00 435.42 138.00" xmlns="http://www.w3.org/2000/svg" xmlns:xlink="http://www.w3.org/1999/xlink">
<g id="graph0" class="graph" transform="scale(1 1) rotate(0) translate(4 134)">
<title>makeMatrix</title>
<!-- Node76 -->
<g id="node1" class="node">
<title>Node76</title>
<polygon fill="#bfbfbf" stroke="#000000" points="0,-55.5 0,-73.5 67.6748,-73.5 67.6748,-55.5 0,-55.5"/>
<text text-anchor="middle" x="33.8374" y="-61.5" font-family="Helvetica,sans-Serif" font-size="10.00" fill="#000000">makeMatrix</text>
</g>
<!-- Node77 -->
<g id="node2" class="node">
<title>Node77</title>
<g id="a_node2"><a xlink:href="matrix_8c.html#a8e41e30382335ea89f90b72db0b44d6f" target="_top" xlink:title="Asserts a condition is true. ">
<polygon fill="none" stroke="#000000" points="103.6748,-55.5 103.6748,-73.5 146.9063,-73.5 146.9063,-55.5 103.6748,-55.5"/>
<text text-anchor="middle" x="125.2905" y="-61.5" font-family="Helvetica,sans-Serif" font-size="10.00" fill="#000000">assert</text>
</a>
</g>
</g>
<!-- Node76&#45;&gt;Node77 -->
<g id="edge1" class="edge">
<title>Node76&#45;&gt;Node77</title>
<path fill="none" stroke="#191970" d="M67.8912,-64.5C76.2467,-64.5 85.1596,-64.5 93.4087,-64.5"/>
<polygon fill="#191970" stroke="#191970" points="93.4107,-68.0001 103.4107,-64.5 93.4106,-61.0001 93.4107,-68.0001"/>
</g>
<!-- Node78 -->
<g id="node3" class="node">
<title>Node78</title>
<g id="a_node3"><a xlink:href="log_8h.html#a8e5bb8a2a372f5b066ff7af7044584c1" target="_top" xlink:title="prints a error message and displays on lcd. ">
<polygon fill="none" stroke="#000000" points="182.9063,-55.5 182.9063,-73.5 220.0195,-73.5 220.0195,-55.5 182.9063,-55.5"/>
<text text-anchor="middle" x="201.4629" y="-61.5" font-family="Helvetica,sans-Serif" font-size="10.00" fill="#000000">error</text>
</a>
</g>
</g>
<!-- Node77&#45;&gt;Node78 -->
<g id="edge2" class="edge">
<title>Node77&#45;&gt;Node78</title>
<path fill="none" stroke="#191970" d="M146.9147,-64.5C154.9824,-64.5 164.2703,-64.5 172.8689,-64.5"/>
<polygon fill="#191970" stroke="#191970" points="172.8869,-68.0001 182.8869,-64.5 172.8869,-61.0001 172.8869,-68.0001"/>
</g>
<!-- Node79 -->
<g id="node4" class="node">
<title>Node79</title>
<g id="a_node4"><a xlink:href="log_8c.html#afff22aff6749311a684a559cac3ac8bd" target="_top" xlink:title="prints a log info message to the lcd ">
<polygon fill="none" stroke="#000000" points="256.0195,-55.5 256.0195,-73.5 307.0488,-73.5 307.0488,-55.5 256.0195,-55.5"/>
<text text-anchor="middle" x="281.5342" y="-61.5" font-family="Helvetica,sans-Serif" font-size="10.00" fill="#000000">log_info</text>
</a>
</g>
</g>
<!-- Node78&#45;&gt;Node79 -->
<g id="edge3" class="edge">
<title>Node78&#45;&gt;Node79</title>
<path fill="none" stroke="#191970" d="M220.0341,-64.5C227.6714,-64.5 236.7882,-64.5 245.6329,-64.5"/>
<polygon fill="#191970" stroke="#191970" points="245.786,-68.0001 255.786,-64.5 245.7859,-61.0001 245.786,-68.0001"/>
</g>
<!-- Node80 -->
<g id="node5" class="node">
<title>Node80</title>
<g id="a_node5"><a xlink:href="_a_p_i_8h.html#a403c82418e475fa4a8273719e6a7f3e6" target="_top" xlink:title="Prints the formatted string to the debug stream (the PC terminal). ">
<polygon fill="none" stroke="#000000" points="366.1177,-111.5 366.1177,-129.5 404.3491,-129.5 404.3491,-111.5 366.1177,-111.5"/>
<text text-anchor="middle" x="385.2334" y="-117.5" font-family="Helvetica,sans-Serif" font-size="10.00" fill="#000000">printf</text>
</a>
</g>
</g>
<!-- Node79&#45;&gt;Node80 -->
<g id="edge4" class="edge">
<title>Node79&#45;&gt;Node80</title>
<path fill="none" stroke="#191970" d="M294.8755,-73.5526C307.1122,-81.6578 325.8869,-93.6016 343.0488,-102.5 347.4139,-104.7632 352.1275,-106.9819 356.7676,-109.0459"/>
<polygon fill="#191970" stroke="#191970" points="355.4837,-112.3035 366.0536,-113.0298 358.2437,-105.8706 355.4837,-112.3035"/>
</g>
<!-- Node81 -->
<g id="node6" class="node">
<title>Node81</title>
<g id="a_node6"><a xlink:href="_a_p_i_8h.html#aab53a247d88151a6623c20fa1ea940b0" target="_top" xlink:title="Sets the specified LCD backlight to be on or off. ">
<polygon fill="none" stroke="#000000" points="343.0488,-74.5 343.0488,-92.5 427.418,-92.5 427.418,-74.5 343.0488,-74.5"/>
<text text-anchor="middle" x="385.2334" y="-80.5" font-family="Helvetica,sans-Serif" font-size="10.00" fill="#000000">lcdSetBacklight</text>
</a>
</g>
</g>
<!-- Node79&#45;&gt;Node81 -->
<g id="edge5" class="edge">
<title>Node79&#45;&gt;Node81</title>
<path fill="none" stroke="#191970" d="M307.1677,-69.1966C315.0116,-70.6338 323.9418,-72.27 332.8915,-73.9098"/>
<polygon fill="#191970" stroke="#191970" points="332.4804,-77.3927 342.9475,-75.7523 333.742,-70.5073 332.4804,-77.3927"/>
</g>
<!-- Node82 -->
<g id="node7" class="node">
<title>Node82</title>
<g id="a_node7"><a xlink:href="_a_p_i_8h.html#a5fa1d119fe3e836b5519f97eae7a1272" target="_top" xlink:title="Clears the LCD screen on the specified port. ">
<polygon fill="none" stroke="#000000" points="358.8936,-37.5 358.8936,-55.5 411.5732,-55.5 411.5732,-37.5 358.8936,-37.5"/>
<text text-anchor="middle" x="385.2334" y="-43.5" font-family="Helvetica,sans-Serif" font-size="10.00" fill="#000000">lcdClear</text>
</a>
</g>
</g>
<!-- Node79&#45;&gt;Node82 -->
<g id="edge6" class="edge">
<title>Node79&#45;&gt;Node82</title>
<path fill="none" stroke="#191970" d="M307.1677,-60.0506C319.6898,-57.877 334.9803,-55.2229 348.6993,-52.8415"/>
<polygon fill="#191970" stroke="#191970" points="349.558,-56.2449 358.8121,-51.0862 348.3608,-49.348 349.558,-56.2449"/>
</g>
<!-- Node83 -->
<g id="node8" class="node">
<title>Node83</title>
<g id="a_node8"><a xlink:href="_a_p_i_8h.html#a6cfad8271c6a566a2f51ca318f819a80" target="_top" xlink:title="Prints the formatted string to the attached LCD. ">
<polygon fill="none" stroke="#000000" points="360.561,-.5 360.561,-18.5 409.9058,-18.5 409.9058,-.5 360.561,-.5"/>
<text text-anchor="middle" x="385.2334" y="-6.5" font-family="Helvetica,sans-Serif" font-size="10.00" fill="#000000">lcdPrint</text>
</a>
</g>
</g>
<!-- Node79&#45;&gt;Node83 -->
<g id="edge7" class="edge">
<title>Node79&#45;&gt;Node83</title>
<path fill="none" stroke="#191970" d="M295.9559,-55.4724C308.2696,-47.9076 326.554,-37.0107 343.0488,-28.5 346.8231,-26.5526 350.8379,-24.5991 354.8328,-22.7251"/>
<polygon fill="#191970" stroke="#191970" points="356.3557,-25.8774 363.9957,-18.537 353.4457,-19.5109 356.3557,-25.8774"/>
</g>
</g>
</svg>
