<?xml version="1.0" encoding="UTF-8" standalone="no"?>
<!DOCTYPE svg PUBLIC "-//W3C//DTD SVG 1.1//EN"
 "http://www.w3.org/Graphics/SVG/1.1/DTD/svg11.dtd">
<!-- Generated by graphviz version 2.40.1 (20161225.0304)
 -->
<!-- Title: dotDiagonalMatrix Pages: 1 -->
<svg width="288pt" height="46pt"
 viewBox="0.00 0.00 287.50 46.00" xmlns="http://www.w3.org/2000/svg" xmlns:xlink="http://www.w3.org/1999/xlink">
<g id="graph0" class="graph" transform="scale(1 1) rotate(0) translate(4 42)">
<title>dotDiagonalMatrix</title>
<!-- Node25 -->
<g id="node1" class="node">
<title>Node25</title>
<polygon fill="#bfbfbf" stroke="#000000" points="0,-19.5 0,-37.5 96.5957,-37.5 96.5957,-19.5 0,-19.5"/>
<text text-anchor="middle" x="48.2979" y="-25.5" font-family="Helvetica,sans-Serif" font-size="10.00" fill="#000000">dotDiagonalMatrix</text>
</g>
<!-- Node26 -->
<g id="node2" class="node">
<title>Node26</title>
<g id="a_node2"><a xlink:href="$matrix_8c.html#a8e41e30382335ea89f90b72db0b44d6f" xlink:title="Asserts a condition is true. ">
<polygon fill="none" stroke="#000000" points="236.2705,-19.5 236.2705,-37.5 279.502,-37.5 279.502,-19.5 236.2705,-19.5"/>
<text text-anchor="middle" x="257.8862" y="-25.5" font-family="Helvetica,sans-Serif" font-size="10.00" fill="#000000">assert</text>
</a>
</g>
</g>
<!-- Node25&#45;&gt;Node26 -->
<g id="edge1" class="edge">
<title>Node25&#45;&gt;Node26</title>
<path fill="none" stroke="#191970" d="M96.6448,-28.5C136.243,-28.5 191.1679,-28.5 225.6024,-28.5"/>
<polygon fill="#191970" stroke="#191970" points="226.0171,-32.0001 236.0171,-28.5 226.017,-25.0001 226.0171,-32.0001"/>
</g>
<!-- Node27 -->
<g id="node3" class="node">
<title>Node27</title>
<g id="a_node3"><a xlink:href="$matrix_8c.html#aae8b56c6fb44d9147b835f4006ca872c" xlink:title="Makes a matrix with a width and height parameters. ">
<polygon fill="none" stroke="#000000" points="132.5957,-.5 132.5957,-18.5 200.2705,-18.5 200.2705,-.5 132.5957,-.5"/>
<text text-anchor="middle" x="166.4331" y="-6.5" font-family="Helvetica,sans-Serif" font-size="10.00" fill="#000000">makeMatrix</text>
</a>
</g>
</g>
<!-- Node25&#45;&gt;Node27 -->
<g id="edge2" class="edge">
<title>Node25&#45;&gt;Node27</title>
<path fill="none" stroke="#191970" d="M96.6888,-20.7172C105.2054,-19.3474 114.0283,-17.9284 122.4172,-16.5792"/>
<polygon fill="#191970" stroke="#191970" points="123.0675,-20.0197 132.3849,-14.9761 121.9559,-13.1085 123.0675,-20.0197"/>
</g>
<!-- Node27&#45;&gt;Node26 -->
<g id="edge3" class="edge">
<title>Node27&#45;&gt;Node26</title>
<path fill="none" stroke="#191970" d="M200.4869,-16.5749C208.8424,-18.3108 217.7553,-20.1625 226.0044,-21.8763"/>
<polygon fill="#191970" stroke="#191970" points="225.5035,-25.3469 236.0064,-23.9543 226.9274,-18.4933 225.5035,-25.3469"/>
</g>
</g>
</svg>
