<?xml version="1.0" encoding="UTF-8" standalone="no"?>
<!DOCTYPE svg PUBLIC "-//W3C//DTD SVG 1.1//EN"
 "http://www.w3.org/Graphics/SVG/1.1/DTD/svg11.dtd">
<!-- Generated by graphviz version 2.40.1 (20161225.0304)
 -->
<!-- Title: rowSwap Pages: 1 -->
<svg width="221pt" height="27pt"
 viewBox="0.00 0.00 221.37 27.00" xmlns="http://www.w3.org/2000/svg" xmlns:xlink="http://www.w3.org/1999/xlink">
<g id="graph0" class="graph" transform="scale(1 1) rotate(0) translate(4 23)">
<title>rowSwap</title>
<!-- Node74 -->
<g id="node1" class="node">
<title>Node74</title>
<polygon fill="#bfbfbf" stroke="#000000" points="0,-.5 0,-18.5 57.1279,-18.5 57.1279,-.5 0,-.5"/>
<text text-anchor="middle" x="28.564" y="-6.5" font-family="Helvetica,sans-Serif" font-size="10.00" fill="#000000">rowSwap</text>
</g>
<!-- Node75 -->
<g id="node2" class="node">
<title>Node75</title>
<g id="a_node2"><a xlink:href="matrix_8c.html#aa40f301fe71dfcea781169d3e6f14025" target="_top" xlink:title="assert">
<polygon fill="none" stroke="#000000" points="93.1279,-.5 93.1279,-18.5 136.3594,-18.5 136.3594,-.5 93.1279,-.5"/>
<text text-anchor="middle" x="114.7437" y="-6.5" font-family="Helvetica,sans-Serif" font-size="10.00" fill="#000000">assert</text>
</a>
</g>
</g>
<!-- Node74&#45;&gt;Node75 -->
<g id="edge1" class="edge">
<title>Node74&#45;&gt;Node75</title>
<path fill="none" stroke="#191970" d="M57.2606,-9.5C65.4544,-9.5 74.4328,-9.5 82.8075,-9.5"/>
<polygon fill="#191970" stroke="#191970" points="82.9882,-13.0001 92.9882,-9.5 82.9881,-6.0001 82.9882,-13.0001"/>
</g>
<!-- Node76 -->
<g id="node3" class="node">
<title>Node76</title>
<g id="a_node3"><a xlink:href="_a_p_i_8h.html#ab9989f4619e4d3ccb13ed4c36d5f787a" target="_top" xlink:title="fprintf">
<polygon fill="none" stroke="#000000" points="172.3594,-.5 172.3594,-18.5 213.3691,-18.5 213.3691,-.5 172.3594,-.5"/>
<text text-anchor="middle" x="192.8643" y="-6.5" font-family="Helvetica,sans-Serif" font-size="10.00" fill="#000000">fprintf</text>
</a>
</g>
</g>
<!-- Node75&#45;&gt;Node76 -->
<g id="edge2" class="edge">
<title>Node75&#45;&gt;Node76</title>
<path fill="none" stroke="#191970" d="M136.5046,-9.5C144.4646,-9.5 153.6257,-9.5 162.2168,-9.5"/>
<polygon fill="#191970" stroke="#191970" points="162.2943,-13.0001 172.2943,-9.5 162.2943,-6.0001 162.2943,-13.0001"/>
</g>
</g>
</svg>
