<?xml version="1.0" encoding="UTF-8" standalone="no"?>
<!DOCTYPE svg PUBLIC "-//W3C//DTD SVG 1.1//EN"
 "http://www.w3.org/Graphics/SVG/1.1/DTD/svg11.dtd">
<!-- Generated by graphviz version 2.40.1 (20161225.0304)
 -->
<!-- Title: assert Pages: 1 -->
<svg width="332pt" height="138pt"
 viewBox="0.00 0.00 331.74 138.00" xmlns="http://www.w3.org/2000/svg" xmlns:xlink="http://www.w3.org/1999/xlink">
<g id="graph0" class="graph" transform="scale(1 1) rotate(0) translate(4 134)">
<title>assert</title>
<!-- Node0 -->
<g id="node1" class="node">
<title>Node0</title>
<polygon fill="#bfbfbf" stroke="#000000" points="0,-55.5 0,-73.5 43.2314,-73.5 43.2314,-55.5 0,-55.5"/>
<text text-anchor="middle" x="21.6157" y="-61.5" font-family="Helvetica,sans-Serif" font-size="10.00" fill="#000000">assert</text>
</g>
<!-- Node1 -->
<g id="node2" class="node">
<title>Node1</title>
<g id="a_node2"><a xlink:href="log_8h.html#a8e5bb8a2a372f5b066ff7af7044584c1" target="_top" xlink:title="prints a error message and displays on lcd. ">
<polygon fill="none" stroke="#000000" points="79.2314,-55.5 79.2314,-73.5 116.3447,-73.5 116.3447,-55.5 79.2314,-55.5"/>
<text text-anchor="middle" x="97.7881" y="-61.5" font-family="Helvetica,sans-Serif" font-size="10.00" fill="#000000">error</text>
</a>
</g>
</g>
<!-- Node0&#45;&gt;Node1 -->
<g id="edge1" class="edge">
<title>Node0&#45;&gt;Node1</title>
<path fill="none" stroke="#191970" d="M43.2399,-64.5C51.3076,-64.5 60.5955,-64.5 69.1941,-64.5"/>
<polygon fill="#191970" stroke="#191970" points="69.2121,-68.0001 79.2121,-64.5 69.212,-61.0001 69.2121,-68.0001"/>
</g>
<!-- Node2 -->
<g id="node3" class="node">
<title>Node2</title>
<g id="a_node3"><a xlink:href="log_8c.html#afff22aff6749311a684a559cac3ac8bd" target="_top" xlink:title="prints a log info message to the lcd ">
<polygon fill="none" stroke="#000000" points="152.3447,-55.5 152.3447,-73.5 203.374,-73.5 203.374,-55.5 152.3447,-55.5"/>
<text text-anchor="middle" x="177.8594" y="-61.5" font-family="Helvetica,sans-Serif" font-size="10.00" fill="#000000">log_info</text>
</a>
</g>
</g>
<!-- Node1&#45;&gt;Node2 -->
<g id="edge2" class="edge">
<title>Node1&#45;&gt;Node2</title>
<path fill="none" stroke="#191970" d="M116.3593,-64.5C123.9966,-64.5 133.1134,-64.5 141.9581,-64.5"/>
<polygon fill="#191970" stroke="#191970" points="142.1112,-68.0001 152.1112,-64.5 142.1111,-61.0001 142.1112,-68.0001"/>
</g>
<!-- Node3 -->
<g id="node4" class="node">
<title>Node3</title>
<g id="a_node4"><a xlink:href="_a_p_i_8h.html#a5fa1d119fe3e836b5519f97eae7a1272" target="_top" xlink:title="Clears the LCD screen on the specified port. ">
<polygon fill="none" stroke="#000000" points="255.2188,-111.5 255.2188,-129.5 307.8984,-129.5 307.8984,-111.5 255.2188,-111.5"/>
<text text-anchor="middle" x="281.5586" y="-117.5" font-family="Helvetica,sans-Serif" font-size="10.00" fill="#000000">lcdClear</text>
</a>
</g>
</g>
<!-- Node2&#45;&gt;Node3 -->
<g id="edge3" class="edge">
<title>Node2&#45;&gt;Node3</title>
<path fill="none" stroke="#191970" d="M191.2007,-73.5526C203.4374,-81.6578 222.2121,-93.6016 239.374,-102.5 242.5086,-104.1253 245.823,-105.7276 249.1608,-107.2661"/>
<polygon fill="#191970" stroke="#191970" points="247.939,-110.5527 258.5,-111.3992 250.7719,-104.1516 247.939,-110.5527"/>
</g>
<!-- Node4 -->
<g id="node5" class="node">
<title>Node4</title>
<g id="a_node5"><a xlink:href="_a_p_i_8h.html#a6cfad8271c6a566a2f51ca318f819a80" target="_top" xlink:title="Prints the formatted string to the attached LCD. ">
<polygon fill="none" stroke="#000000" points="256.8862,-74.5 256.8862,-92.5 306.231,-92.5 306.231,-74.5 256.8862,-74.5"/>
<text text-anchor="middle" x="281.5586" y="-80.5" font-family="Helvetica,sans-Serif" font-size="10.00" fill="#000000">lcdPrint</text>
</a>
</g>
</g>
<!-- Node2&#45;&gt;Node4 -->
<g id="edge4" class="edge">
<title>Node2&#45;&gt;Node4</title>
<path fill="none" stroke="#191970" d="M203.4929,-69.1966C216.5239,-71.5842 232.5529,-74.5211 246.689,-77.1111"/>
<polygon fill="#191970" stroke="#191970" points="246.1107,-80.5633 256.5778,-78.923 247.3723,-73.678 246.1107,-80.5633"/>
</g>
<!-- Node5 -->
<g id="node6" class="node">
<title>Node5</title>
<g id="a_node6"><a xlink:href="_a_p_i_8h.html#aab53a247d88151a6623c20fa1ea940b0" target="_top" xlink:title="Sets the specified LCD backlight to be on or off. ">
<polygon fill="none" stroke="#000000" points="239.374,-37.5 239.374,-55.5 323.7432,-55.5 323.7432,-37.5 239.374,-37.5"/>
<text text-anchor="middle" x="281.5586" y="-43.5" font-family="Helvetica,sans-Serif" font-size="10.00" fill="#000000">lcdSetBacklight</text>
</a>
</g>
</g>
<!-- Node2&#45;&gt;Node5 -->
<g id="edge5" class="edge">
<title>Node2&#45;&gt;Node5</title>
<path fill="none" stroke="#191970" d="M203.4929,-60.0506C211.3368,-58.689 220.267,-57.1389 229.2167,-55.5855"/>
<polygon fill="#191970" stroke="#191970" points="230.0186,-58.9987 239.2727,-53.8399 228.8214,-52.1018 230.0186,-58.9987"/>
</g>
<!-- Node6 -->
<g id="node7" class="node">
<title>Node6</title>
<g id="a_node7"><a xlink:href="_a_p_i_8h.html#a403c82418e475fa4a8273719e6a7f3e6" target="_top" xlink:title="Prints the formatted string to the debug stream (the PC terminal). ">
<polygon fill="none" stroke="#000000" points="262.4429,-.5 262.4429,-18.5 300.6743,-18.5 300.6743,-.5 262.4429,-.5"/>
<text text-anchor="middle" x="281.5586" y="-6.5" font-family="Helvetica,sans-Serif" font-size="10.00" fill="#000000">printf</text>
</a>
</g>
</g>
<!-- Node2&#45;&gt;Node6 -->
<g id="edge6" class="edge">
<title>Node2&#45;&gt;Node6</title>
<path fill="none" stroke="#191970" d="M192.2811,-55.4724C204.5948,-47.9076 222.8792,-37.0107 239.374,-28.5 243.6971,-26.2695 248.3356,-24.0309 252.8984,-21.913"/>
<polygon fill="#191970" stroke="#191970" points="254.3671,-25.0902 262.0325,-17.7764 251.4792,-18.7136 254.3671,-25.0902"/>
</g>
</g>
</svg>
