<?xml version="1.0" encoding="UTF-8" standalone="no"?>
<!DOCTYPE svg PUBLIC "-//W3C//DTD SVG 1.1//EN"
 "http://www.w3.org/Graphics/SVG/1.1/DTD/svg11.dtd">
<!-- Generated by graphviz version 2.40.1 (20161225.0304)
 -->
<!-- Title: src/matrix.c Pages: 1 -->
<svg width="256pt" height="82pt"
 viewBox="0.00 0.00 256.18 82.00" xmlns="http://www.w3.org/2000/svg" xmlns:xlink="http://www.w3.org/1999/xlink">
<g id="graph0" class="graph" transform="scale(1 1) rotate(0) translate(4 78)">
<title>src/matrix.c</title>
<!-- Node0 -->
<g id="node1" class="node">
<title>Node0</title>
<polygon fill="#bfbfbf" stroke="#000000" points="91.2266,-55.5 91.2266,-73.5 158.335,-73.5 158.335,-55.5 91.2266,-55.5"/>
<text text-anchor="middle" x="124.7808" y="-61.5" font-family="Helvetica,sans-Serif" font-size="10.00" fill="#000000">src/matrix.c</text>
</g>
<!-- Node1 -->
<g id="node2" class="node">
<title>Node1</title>
<g id="a_node2"><a xlink:href="matrix_8h.html" target="_top" xlink:title="Various Matrix operations.None of the matrix operations below change the input matrices if an input i...">
<polygon fill="none" stroke="#000000" points="0,-.5 0,-18.5 51.5615,-18.5 51.5615,-.5 0,-.5"/>
<text text-anchor="middle" x="25.7808" y="-6.5" font-family="Helvetica,sans-Serif" font-size="10.00" fill="#000000">matrix.h</text>
</a>
</g>
</g>
<!-- Node0&#45;&gt;Node1 -->
<g id="edge1" class="edge">
<title>Node0&#45;&gt;Node1</title>
<path fill="none" stroke="#191970" d="M108.4329,-55.4179C92.8126,-46.7399 69.041,-33.5334 50.9946,-23.5077"/>
<polygon fill="#191970" stroke="#191970" points="52.5942,-20.3925 42.1529,-18.5956 49.1947,-26.5117 52.5942,-20.3925"/>
</g>
<!-- Node2 -->
<g id="node3" class="node">
<title>Node2</title>
<polygon fill="none" stroke="#bfbfbf" points="70.0493,-.5 70.0493,-18.5 115.5122,-18.5 115.5122,-.5 70.0493,-.5"/>
<text text-anchor="middle" x="92.7808" y="-6.5" font-family="Helvetica,sans-Serif" font-size="10.00" fill="#000000">stdio.h</text>
</g>
<!-- Node0&#45;&gt;Node2 -->
<g id="edge2" class="edge">
<title>Node0&#45;&gt;Node2</title>
<path fill="none" stroke="#191970" d="M119.4966,-55.4179C115.1225,-47.8998 108.7708,-36.9829 103.3581,-27.6799"/>
<polygon fill="#191970" stroke="#191970" points="106.2339,-25.6628 98.1797,-18.7795 100.1835,-29.1831 106.2339,-25.6628"/>
</g>
<!-- Node3 -->
<g id="node4" class="node">
<title>Node3</title>
<polygon fill="none" stroke="#bfbfbf" points="133.9385,-.5 133.9385,-18.5 181.623,-18.5 181.623,-.5 133.9385,-.5"/>
<text text-anchor="middle" x="157.7808" y="-6.5" font-family="Helvetica,sans-Serif" font-size="10.00" fill="#000000">stdlib.h</text>
</g>
<!-- Node0&#45;&gt;Node3 -->
<g id="edge3" class="edge">
<title>Node0&#45;&gt;Node3</title>
<path fill="none" stroke="#191970" d="M130.23,-55.4179C134.7884,-47.8207 141.4292,-36.7527 147.0488,-27.3866"/>
<polygon fill="#191970" stroke="#191970" points="150.0693,-29.1552 152.2131,-18.7795 144.0669,-25.5536 150.0693,-29.1552"/>
</g>
<!-- Node4 -->
<g id="node5" class="node">
<title>Node4</title>
<polygon fill="none" stroke="#bfbfbf" points="199.3843,-.5 199.3843,-18.5 248.1772,-18.5 248.1772,-.5 199.3843,-.5"/>
<text text-anchor="middle" x="223.7808" y="-6.5" font-family="Helvetica,sans-Serif" font-size="10.00" fill="#000000">string.h</text>
</g>
<!-- Node0&#45;&gt;Node4 -->
<g id="edge4" class="edge">
<title>Node0&#45;&gt;Node4</title>
<path fill="none" stroke="#191970" d="M141.1286,-55.4179C156.7489,-46.7399 180.5206,-33.5334 198.5669,-23.5077"/>
<polygon fill="#191970" stroke="#191970" points="200.3668,-26.5117 207.4086,-18.5956 196.9673,-20.3925 200.3668,-26.5117"/>
</g>
</g>
</svg>
