<?xml version="1.0" encoding="UTF-8" standalone="no"?>
<!DOCTYPE svg PUBLIC "-//W3C//DTD SVG 1.1//EN"
 "http://www.w3.org/Graphics/SVG/1.1/DTD/svg11.dtd">
<!-- Generated by graphviz version 2.40.1 (20161225.0304)
 -->
<!-- Title: create_menu Pages: 1 -->
<svg width="363pt" height="101pt"
 viewBox="0.00 0.00 362.88 101.00" xmlns="http://www.w3.org/2000/svg" xmlns:xlink="http://www.w3.org/1999/xlink">
<g id="graph0" class="graph" transform="scale(1 1) rotate(0) translate(4 97)">
<title>create_menu</title>
<!-- Node7 -->
<g id="node1" class="node">
<title>Node7</title>
<polygon fill="#bfbfbf" stroke="#000000" points="0,-37.5 0,-55.5 74.3691,-55.5 74.3691,-37.5 0,-37.5"/>
<text text-anchor="middle" x="37.1846" y="-43.5" font-family="Helvetica,sans-Serif" font-size="10.00" fill="#000000">create_menu</text>
</g>
<!-- Node8 -->
<g id="node2" class="node">
<title>Node8</title>
<g id="a_node2"><a xlink:href="log_8h.html#a8e5bb8a2a372f5b066ff7af7044584c1" target="_top" xlink:title="prints a error message and displays on lcd. Only will print and display if log_level is greater than ...">
<polygon fill="none" stroke="#000000" points="110.3691,-37.5 110.3691,-55.5 147.4824,-55.5 147.4824,-37.5 110.3691,-37.5"/>
<text text-anchor="middle" x="128.9258" y="-43.5" font-family="Helvetica,sans-Serif" font-size="10.00" fill="#000000">error</text>
</a>
</g>
</g>
<!-- Node7&#45;&gt;Node8 -->
<g id="edge1" class="edge">
<title>Node7&#45;&gt;Node8</title>
<path fill="none" stroke="#191970" d="M74.4992,-46.5C83.0534,-46.5 92.0192,-46.5 100.149,-46.5"/>
<polygon fill="#191970" stroke="#191970" points="100.25,-50.0001 110.25,-46.5 100.25,-43.0001 100.25,-50.0001"/>
</g>
<!-- Node9 -->
<g id="node3" class="node">
<title>Node9</title>
<g id="a_node3"><a xlink:href="log_8c.html#afff22aff6749311a684a559cac3ac8bd" target="_top" xlink:title="log_info">
<polygon fill="none" stroke="#000000" points="183.4824,-37.5 183.4824,-55.5 234.5117,-55.5 234.5117,-37.5 183.4824,-37.5"/>
<text text-anchor="middle" x="208.9971" y="-43.5" font-family="Helvetica,sans-Serif" font-size="10.00" fill="#000000">log_info</text>
</a>
</g>
</g>
<!-- Node8&#45;&gt;Node9 -->
<g id="edge2" class="edge">
<title>Node8&#45;&gt;Node9</title>
<path fill="none" stroke="#191970" d="M147.497,-46.5C155.1343,-46.5 164.2511,-46.5 173.0958,-46.5"/>
<polygon fill="#191970" stroke="#191970" points="173.2489,-50.0001 183.2489,-46.5 173.2488,-43.0001 173.2489,-50.0001"/>
</g>
<!-- Node10 -->
<g id="node4" class="node">
<title>Node10</title>
<g id="a_node4"><a xlink:href="_a_p_i_8h.html#aa53f19724bcf9f7bf1b4468b5982553b" target="_top" xlink:title="lcdClear">
<polygon fill="none" stroke="#000000" points="286.3564,-74.5 286.3564,-92.5 339.0361,-92.5 339.0361,-74.5 286.3564,-74.5"/>
<text text-anchor="middle" x="312.6963" y="-80.5" font-family="Helvetica,sans-Serif" font-size="10.00" fill="#000000">lcdClear</text>
</a>
</g>
</g>
<!-- Node9&#45;&gt;Node10 -->
<g id="edge3" class="edge">
<title>Node9&#45;&gt;Node10</title>
<path fill="none" stroke="#191970" d="M234.3648,-55.5512C247.4213,-60.2098 263.5402,-65.9611 277.7552,-71.033"/>
<polygon fill="#191970" stroke="#191970" points="276.6364,-74.3499 287.2311,-74.414 278.9888,-67.757 276.6364,-74.3499"/>
</g>
<!-- Node11 -->
<g id="node5" class="node">
<title>Node11</title>
<g id="a_node5"><a xlink:href="_a_p_i_8h.html#aeafd247b27813122cfee95e0cecf188b" target="_top" xlink:title="lcdSetBacklight">
<polygon fill="none" stroke="#000000" points="270.5117,-37.5 270.5117,-55.5 354.8809,-55.5 354.8809,-37.5 270.5117,-37.5"/>
<text text-anchor="middle" x="312.6963" y="-43.5" font-family="Helvetica,sans-Serif" font-size="10.00" fill="#000000">lcdSetBacklight</text>
</a>
</g>
</g>
<!-- Node9&#45;&gt;Node11 -->
<g id="edge4" class="edge">
<title>Node9&#45;&gt;Node11</title>
<path fill="none" stroke="#191970" d="M234.6306,-46.5C242.4745,-46.5 251.4046,-46.5 260.3544,-46.5"/>
<polygon fill="#191970" stroke="#191970" points="260.4104,-50.0001 270.4104,-46.5 260.4103,-43.0001 260.4104,-50.0001"/>
</g>
<!-- Node12 -->
<g id="node6" class="node">
<title>Node12</title>
<g id="a_node6"><a xlink:href="_a_p_i_8h.html#a403c82418e475fa4a8273719e6a7f3e6" target="_top" xlink:title="printf">
<polygon fill="none" stroke="#000000" points="293.5806,-.5 293.5806,-18.5 331.812,-18.5 331.812,-.5 293.5806,-.5"/>
<text text-anchor="middle" x="312.6963" y="-6.5" font-family="Helvetica,sans-Serif" font-size="10.00" fill="#000000">printf</text>
</a>
</g>
</g>
<!-- Node9&#45;&gt;Node12 -->
<g id="edge5" class="edge">
<title>Node9&#45;&gt;Node12</title>
<path fill="none" stroke="#191970" d="M234.3648,-37.4488C249.3175,-32.1136 268.2869,-25.3453 283.813,-19.8056"/>
<polygon fill="#191970" stroke="#191970" points="285.1996,-23.027 293.4419,-16.37 282.8472,-16.4341 285.1996,-23.027"/>
</g>
</g>
</svg>
