<?xml version="1.0" encoding="UTF-8" standalone="no"?>
<!DOCTYPE svg PUBLIC "-//W3C//DTD SVG 1.1//EN"
 "http://www.w3.org/Graphics/SVG/1.1/DTD/svg11.dtd">
<!-- Generated by graphviz version 2.40.1 (20161225.0304)
 -->
<!-- Title: init_menu_var Pages: 1 -->
<svg width="478pt" height="138pt"
 viewBox="0.00 0.00 477.69 138.00" xmlns="http://www.w3.org/2000/svg" xmlns:xlink="http://www.w3.org/1999/xlink">
<g id="graph0" class="graph" transform="scale(1 1) rotate(0) translate(4 134)">
<title>init_menu_var</title>
<!-- Node42 -->
<g id="node1" class="node">
<title>Node42</title>
<polygon fill="#bfbfbf" stroke="#000000" points="0,-19.5 0,-37.5 78.8125,-37.5 78.8125,-19.5 0,-19.5"/>
<text text-anchor="middle" x="39.4063" y="-25.5" font-family="Helvetica,sans-Serif" font-size="10.00" fill="#000000">init_menu_var</text>
</g>
<!-- Node43 -->
<g id="node2" class="node">
<title>Node43</title>
<g id="a_node2"><a xlink:href="menu_8c.html#aff4fd27ff7707295d91c67fa52a6b021" target="_top" xlink:title="Static function that handles creation of menu. ">
<polygon fill="none" stroke="#000000" points="114.8125,-38.5 114.8125,-56.5 189.1816,-56.5 189.1816,-38.5 114.8125,-38.5"/>
<text text-anchor="middle" x="151.9971" y="-44.5" font-family="Helvetica,sans-Serif" font-size="10.00" fill="#000000">create_menu</text>
</a>
</g>
</g>
<!-- Node42&#45;&gt;Node43 -->
<g id="edge1" class="edge">
<title>Node42&#45;&gt;Node43</title>
<path fill="none" stroke="#191970" d="M79.1016,-35.1987C87.2935,-36.5811 96.0005,-38.0504 104.439,-39.4744"/>
<polygon fill="#191970" stroke="#191970" points="104.1033,-42.9672 114.5463,-41.1801 105.2681,-36.0648 104.1033,-42.9672"/>
</g>
<!-- Node46 -->
<g id="node5" class="node">
<title>Node46</title>
<g id="a_node5"><a xlink:href="_a_p_i_8h.html#a403c82418e475fa4a8273719e6a7f3e6" target="_top" xlink:title="Prints the formatted string to the debug stream (the PC terminal). ">
<polygon fill="none" stroke="#000000" points="408.3931,-.5 408.3931,-18.5 446.6245,-18.5 446.6245,-.5 408.3931,-.5"/>
<text text-anchor="middle" x="427.5088" y="-6.5" font-family="Helvetica,sans-Serif" font-size="10.00" fill="#000000">printf</text>
</a>
</g>
</g>
<!-- Node42&#45;&gt;Node46 -->
<g id="edge8" class="edge">
<title>Node42&#45;&gt;Node46</title>
<path fill="none" stroke="#191970" d="M79.1162,-26.556C157.2366,-22.7315 329.2718,-14.3093 398.15,-10.9373"/>
<polygon fill="#191970" stroke="#191970" points="398.4717,-14.4258 408.2886,-10.4409 398.1294,-7.4342 398.4717,-14.4258"/>
</g>
<!-- Node44 -->
<g id="node3" class="node">
<title>Node44</title>
<g id="a_node3"><a xlink:href="log_8h.html#a8e5bb8a2a372f5b066ff7af7044584c1" target="_top" xlink:title="prints a error message and displays on lcd. ">
<polygon fill="none" stroke="#000000" points="225.1816,-38.5 225.1816,-56.5 262.2949,-56.5 262.2949,-38.5 225.1816,-38.5"/>
<text text-anchor="middle" x="243.7383" y="-44.5" font-family="Helvetica,sans-Serif" font-size="10.00" fill="#000000">error</text>
</a>
</g>
</g>
<!-- Node43&#45;&gt;Node44 -->
<g id="edge2" class="edge">
<title>Node43&#45;&gt;Node44</title>
<path fill="none" stroke="#191970" d="M189.3117,-47.5C197.8659,-47.5 206.8317,-47.5 214.9615,-47.5"/>
<polygon fill="#191970" stroke="#191970" points="215.0625,-51.0001 225.0625,-47.5 215.0625,-44.0001 215.0625,-51.0001"/>
</g>
<!-- Node45 -->
<g id="node4" class="node">
<title>Node45</title>
<g id="a_node4"><a xlink:href="log_8c.html#afff22aff6749311a684a559cac3ac8bd" target="_top" xlink:title="prints a log info message to the lcd ">
<polygon fill="none" stroke="#000000" points="298.2949,-38.5 298.2949,-56.5 349.3242,-56.5 349.3242,-38.5 298.2949,-38.5"/>
<text text-anchor="middle" x="323.8096" y="-44.5" font-family="Helvetica,sans-Serif" font-size="10.00" fill="#000000">log_info</text>
</a>
</g>
</g>
<!-- Node44&#45;&gt;Node45 -->
<g id="edge3" class="edge">
<title>Node44&#45;&gt;Node45</title>
<path fill="none" stroke="#191970" d="M262.3095,-47.5C269.9468,-47.5 279.0636,-47.5 287.9083,-47.5"/>
<polygon fill="#191970" stroke="#191970" points="288.0614,-51.0001 298.0614,-47.5 288.0613,-44.0001 288.0614,-51.0001"/>
</g>
<!-- Node45&#45;&gt;Node46 -->
<g id="edge4" class="edge">
<title>Node45&#45;&gt;Node46</title>
<path fill="none" stroke="#191970" d="M348.3848,-38.4945C363.4189,-32.9854 382.7299,-25.909 398.5105,-20.1263"/>
<polygon fill="#191970" stroke="#191970" points="400.1052,-23.2696 408.2903,-16.5425 397.6966,-16.697 400.1052,-23.2696"/>
</g>
<!-- Node47 -->
<g id="node6" class="node">
<title>Node47</title>
<g id="a_node6"><a xlink:href="_a_p_i_8h.html#aab53a247d88151a6623c20fa1ea940b0" target="_top" xlink:title="Sets the specified LCD backlight to be on or off. ">
<polygon fill="none" stroke="#000000" points="385.3242,-74.5 385.3242,-92.5 469.6934,-92.5 469.6934,-74.5 385.3242,-74.5"/>
<text text-anchor="middle" x="427.5088" y="-80.5" font-family="Helvetica,sans-Serif" font-size="10.00" fill="#000000">lcdSetBacklight</text>
</a>
</g>
</g>
<!-- Node45&#45;&gt;Node47 -->
<g id="edge5" class="edge">
<title>Node45&#45;&gt;Node47</title>
<path fill="none" stroke="#191970" d="M349.4431,-56.3989C362.1845,-60.8222 377.7921,-66.2405 391.694,-71.0666"/>
<polygon fill="#191970" stroke="#191970" points="390.8551,-74.4802 401.4499,-74.4534 393.1508,-67.8674 390.8551,-74.4802"/>
</g>
<!-- Node48 -->
<g id="node7" class="node">
<title>Node48</title>
<g id="a_node7"><a xlink:href="_a_p_i_8h.html#a5fa1d119fe3e836b5519f97eae7a1272" target="_top" xlink:title="Clears the LCD screen on the specified port. ">
<polygon fill="none" stroke="#000000" points="401.1689,-37.5 401.1689,-55.5 453.8486,-55.5 453.8486,-37.5 401.1689,-37.5"/>
<text text-anchor="middle" x="427.5088" y="-43.5" font-family="Helvetica,sans-Serif" font-size="10.00" fill="#000000">lcdClear</text>
</a>
</g>
</g>
<!-- Node45&#45;&gt;Node48 -->
<g id="edge6" class="edge">
<title>Node45&#45;&gt;Node48</title>
<path fill="none" stroke="#191970" d="M349.4431,-47.2528C361.9652,-47.1321 377.2557,-46.9846 390.9747,-46.8523"/>
<polygon fill="#191970" stroke="#191970" points="391.1217,-50.3512 401.0875,-46.7548 391.0542,-43.3515 391.1217,-50.3512"/>
</g>
<!-- Node49 -->
<g id="node8" class="node">
<title>Node49</title>
<g id="a_node8"><a xlink:href="_a_p_i_8h.html#a6cfad8271c6a566a2f51ca318f819a80" target="_top" xlink:title="Prints the formatted string to the attached LCD. ">
<polygon fill="none" stroke="#000000" points="402.8364,-111.5 402.8364,-129.5 452.1812,-129.5 452.1812,-111.5 402.8364,-111.5"/>
<text text-anchor="middle" x="427.5088" y="-117.5" font-family="Helvetica,sans-Serif" font-size="10.00" fill="#000000">lcdPrint</text>
</a>
</g>
</g>
<!-- Node45&#45;&gt;Node49 -->
<g id="edge7" class="edge">
<title>Node45&#45;&gt;Node49</title>
<path fill="none" stroke="#191970" d="M332.2263,-56.6967C343.4311,-68.5222 364.2902,-89.1237 385.3242,-102.5 387.9278,-104.1557 390.7098,-105.7226 393.5564,-107.1897"/>
<polygon fill="#191970" stroke="#191970" points="392.1931,-110.4164 402.7301,-111.5218 395.1822,-104.0867 392.1931,-110.4164"/>
</g>
</g>
</svg>
