<?xml version="1.0" encoding="UTF-8" standalone="no"?>
<!DOCTYPE svg PUBLIC "-//W3C//DTD SVG 1.1//EN"
 "http://www.w3.org/Graphics/SVG/1.1/DTD/svg11.dtd">
<!-- Generated by graphviz version 2.40.1 (20161225.0304)
 -->
<!-- Title: init_menu_var Pages: 1 -->
<svg width="357pt" height="27pt"
 viewBox="0.00 0.00 357.32 27.00" xmlns="http://www.w3.org/2000/svg" xmlns:xlink="http://www.w3.org/1999/xlink">
<g id="graph0" class="graph" transform="scale(1 1) rotate(0) translate(4 23)">
<title>init_menu_var</title>
<!-- Node31 -->
<g id="node1" class="node">
<title>Node31</title>
<polygon fill="#bfbfbf" stroke="#000000" points="0,-.5 0,-18.5 78.8125,-18.5 78.8125,-.5 0,-.5"/>
<text text-anchor="middle" x="39.4063" y="-6.5" font-family="Helvetica,sans-Serif" font-size="10.00" fill="#000000">init_menu_var</text>
</g>
<!-- Node32 -->
<g id="node2" class="node">
<title>Node32</title>
<g id="a_node2"><a xlink:href="$menu_8c.html#aff4fd27ff7707295d91c67fa52a6b021" xlink:title="Static function that handles creation of menu. &#160;Menu must be freed or will cause memory leak &#160;...">
<polygon fill="none" stroke="#000000" points="114.8125,-.5 114.8125,-18.5 189.1816,-18.5 189.1816,-.5 114.8125,-.5"/>
<text text-anchor="middle" x="151.9971" y="-6.5" font-family="Helvetica,sans-Serif" font-size="10.00" fill="#000000">create_menu</text>
</a>
</g>
</g>
<!-- Node31&#45;&gt;Node32 -->
<g id="edge1" class="edge">
<title>Node31&#45;&gt;Node32</title>
<path fill="none" stroke="#191970" d="M79.1016,-9.5C87.2935,-9.5 96.0005,-9.5 104.439,-9.5"/>
<polygon fill="#191970" stroke="#191970" points="104.5463,-13.0001 114.5463,-9.5 104.5463,-6.0001 104.5463,-13.0001"/>
</g>
<!-- Node33 -->
<g id="node3" class="node">
<title>Node33</title>
<g id="a_node3"><a xlink:href="$log_8h.html#a8e5bb8a2a372f5b066ff7af7044584c1" xlink:title="prints a error message and displays on lcd. Only will print and display if log_level is greater than ...">
<polygon fill="none" stroke="#000000" points="225.1816,-.5 225.1816,-18.5 262.2949,-18.5 262.2949,-.5 225.1816,-.5"/>
<text text-anchor="middle" x="243.7383" y="-6.5" font-family="Helvetica,sans-Serif" font-size="10.00" fill="#000000">error</text>
</a>
</g>
</g>
<!-- Node32&#45;&gt;Node33 -->
<g id="edge2" class="edge">
<title>Node32&#45;&gt;Node33</title>
<path fill="none" stroke="#191970" d="M189.3117,-9.5C197.8659,-9.5 206.8317,-9.5 214.9615,-9.5"/>
<polygon fill="#191970" stroke="#191970" points="215.0625,-13.0001 225.0625,-9.5 215.0625,-6.0001 215.0625,-13.0001"/>
</g>
<!-- Node34 -->
<g id="node4" class="node">
<title>Node34</title>
<g id="a_node4"><a xlink:href="$log_8c.html#afff22aff6749311a684a559cac3ac8bd" xlink:title="log_info">
<polygon fill="none" stroke="#000000" points="298.2949,-.5 298.2949,-18.5 349.3242,-18.5 349.3242,-.5 298.2949,-.5"/>
<text text-anchor="middle" x="323.8096" y="-6.5" font-family="Helvetica,sans-Serif" font-size="10.00" fill="#000000">log_info</text>
</a>
</g>
</g>
<!-- Node33&#45;&gt;Node34 -->
<g id="edge3" class="edge">
<title>Node33&#45;&gt;Node34</title>
<path fill="none" stroke="#191970" d="M262.3095,-9.5C269.9468,-9.5 279.0636,-9.5 287.9083,-9.5"/>
<polygon fill="#191970" stroke="#191970" points="288.0614,-13.0001 298.0614,-9.5 288.0613,-6.0001 288.0614,-13.0001"/>
</g>
</g>
</svg>
