<?xml version="1.0" encoding="UTF-8" standalone="no"?>
<!DOCTYPE svg PUBLIC "-//W3C//DTD SVG 1.1//EN"
 "http://www.w3.org/Graphics/SVG/1.1/DTD/svg11.dtd">
<!-- Generated by graphviz version 2.40.1 (20161225.0304)
 -->
<!-- Title: init_menu_int Pages: 1 -->
<svg width="474pt" height="138pt"
 viewBox="0.00 0.00 474.36 138.00" xmlns="http://www.w3.org/2000/svg" xmlns:xlink="http://www.w3.org/1999/xlink">
<g id="graph0" class="graph" transform="scale(1 1) rotate(0) translate(4 134)">
<title>init_menu_int</title>
<!-- Node48 -->
<g id="node1" class="node">
<title>Node48</title>
<polygon fill="#bfbfbf" stroke="#000000" points="0,-37.5 0,-55.5 75.4824,-55.5 75.4824,-37.5 0,-37.5"/>
<text text-anchor="middle" x="37.7412" y="-43.5" font-family="Helvetica,sans-Serif" font-size="10.00" fill="#000000">init_menu_int</text>
</g>
<!-- Node49 -->
<g id="node2" class="node">
<title>Node49</title>
<g id="a_node2"><a xlink:href="menu_8c.html#aff4fd27ff7707295d91c67fa52a6b021" target="_top" xlink:title="create_menu">
<polygon fill="none" stroke="#000000" points="111.4824,-74.5 111.4824,-92.5 185.8516,-92.5 185.8516,-74.5 111.4824,-74.5"/>
<text text-anchor="middle" x="148.667" y="-80.5" font-family="Helvetica,sans-Serif" font-size="10.00" fill="#000000">create_menu</text>
</a>
</g>
</g>
<!-- Node48&#45;&gt;Node49 -->
<g id="edge1" class="edge">
<title>Node48&#45;&gt;Node49</title>
<path fill="none" stroke="#191970" d="M64.8767,-55.5512C78.9774,-60.2546 96.4172,-66.0718 111.729,-71.1791"/>
<polygon fill="#191970" stroke="#191970" points="110.8335,-74.5699 121.4272,-74.414 113.0485,-67.9296 110.8335,-74.5699"/>
</g>
<!-- Node55 -->
<g id="node8" class="node">
<title>Node55</title>
<g id="a_node8"><a xlink:href="vmath_8h.html#af082905f7eac6d03e92015146bbc1925" target="_top" xlink:title="the min of two values ">
<polygon fill="none" stroke="#000000" points="131.2212,-37.5 131.2212,-55.5 166.1128,-55.5 166.1128,-37.5 131.2212,-37.5"/>
<text text-anchor="middle" x="148.667" y="-43.5" font-family="Helvetica,sans-Serif" font-size="10.00" fill="#000000">max</text>
</a>
</g>
</g>
<!-- Node48&#45;&gt;Node55 -->
<g id="edge7" class="edge">
<title>Node48&#45;&gt;Node55</title>
<path fill="none" stroke="#191970" d="M75.6053,-46.5C90.4624,-46.5 107.199,-46.5 120.9013,-46.5"/>
<polygon fill="#191970" stroke="#191970" points="121.146,-50.0001 131.1459,-46.5 121.1459,-43.0001 121.146,-50.0001"/>
</g>
<!-- Node56 -->
<g id="node9" class="node">
<title>Node56</title>
<g id="a_node9"><a xlink:href="vmath_8h.html#abd8bbcfabb3ddef2ccaafb9928a37b95" target="_top" xlink:title="the min of two values ">
<polygon fill="none" stroke="#000000" points="132.6104,-.5 132.6104,-18.5 164.7236,-18.5 164.7236,-.5 132.6104,-.5"/>
<text text-anchor="middle" x="148.667" y="-6.5" font-family="Helvetica,sans-Serif" font-size="10.00" fill="#000000">min</text>
</a>
</g>
</g>
<!-- Node48&#45;&gt;Node56 -->
<g id="edge8" class="edge">
<title>Node48&#45;&gt;Node56</title>
<path fill="none" stroke="#191970" d="M64.8767,-37.4488C82.5702,-31.547 105.5213,-23.8915 122.9282,-18.0853"/>
<polygon fill="#191970" stroke="#191970" points="124.0762,-21.3921 132.4549,-14.9077 121.8612,-14.7517 124.0762,-21.3921"/>
</g>
<!-- Node50 -->
<g id="node3" class="node">
<title>Node50</title>
<g id="a_node3"><a xlink:href="log_8h.html#a8e5bb8a2a372f5b066ff7af7044584c1" target="_top" xlink:title="prints a error message and displays on lcd. Only will print and display if log_level is greater than ...">
<polygon fill="none" stroke="#000000" points="221.8516,-74.5 221.8516,-92.5 258.9648,-92.5 258.9648,-74.5 221.8516,-74.5"/>
<text text-anchor="middle" x="240.4082" y="-80.5" font-family="Helvetica,sans-Serif" font-size="10.00" fill="#000000">error</text>
</a>
</g>
</g>
<!-- Node49&#45;&gt;Node50 -->
<g id="edge2" class="edge">
<title>Node49&#45;&gt;Node50</title>
<path fill="none" stroke="#191970" d="M185.9817,-83.5C194.5359,-83.5 203.5016,-83.5 211.6314,-83.5"/>
<polygon fill="#191970" stroke="#191970" points="211.7325,-87.0001 221.7324,-83.5 211.7324,-80.0001 211.7325,-87.0001"/>
</g>
<!-- Node51 -->
<g id="node4" class="node">
<title>Node51</title>
<g id="a_node4"><a xlink:href="log_8c.html#afff22aff6749311a684a559cac3ac8bd" target="_top" xlink:title="log_info">
<polygon fill="none" stroke="#000000" points="294.9648,-74.5 294.9648,-92.5 345.9941,-92.5 345.9941,-74.5 294.9648,-74.5"/>
<text text-anchor="middle" x="320.4795" y="-80.5" font-family="Helvetica,sans-Serif" font-size="10.00" fill="#000000">log_info</text>
</a>
</g>
</g>
<!-- Node50&#45;&gt;Node51 -->
<g id="edge3" class="edge">
<title>Node50&#45;&gt;Node51</title>
<path fill="none" stroke="#191970" d="M258.9794,-83.5C266.6167,-83.5 275.7335,-83.5 284.5782,-83.5"/>
<polygon fill="#191970" stroke="#191970" points="284.7313,-87.0001 294.7313,-83.5 284.7312,-80.0001 284.7313,-87.0001"/>
</g>
<!-- Node52 -->
<g id="node5" class="node">
<title>Node52</title>
<g id="a_node5"><a xlink:href="_a_p_i_8h.html#a5fa1d119fe3e836b5519f97eae7a1272" target="_top" xlink:title="lcdClear">
<polygon fill="none" stroke="#000000" points="397.8389,-111.5 397.8389,-129.5 450.5186,-129.5 450.5186,-111.5 397.8389,-111.5"/>
<text text-anchor="middle" x="424.1787" y="-117.5" font-family="Helvetica,sans-Serif" font-size="10.00" fill="#000000">lcdClear</text>
</a>
</g>
</g>
<!-- Node51&#45;&gt;Node52 -->
<g id="edge4" class="edge">
<title>Node51&#45;&gt;Node52</title>
<path fill="none" stroke="#191970" d="M345.8472,-92.5512C358.9037,-97.2098 375.0226,-102.9611 389.2376,-108.033"/>
<polygon fill="#191970" stroke="#191970" points="388.1189,-111.3499 398.7135,-111.414 390.4713,-104.757 388.1189,-111.3499"/>
</g>
<!-- Node53 -->
<g id="node6" class="node">
<title>Node53</title>
<g id="a_node6"><a xlink:href="_a_p_i_8h.html#aab53a247d88151a6623c20fa1ea940b0" target="_top" xlink:title="lcdSetBacklight">
<polygon fill="none" stroke="#000000" points="381.9941,-74.5 381.9941,-92.5 466.3633,-92.5 466.3633,-74.5 381.9941,-74.5"/>
<text text-anchor="middle" x="424.1787" y="-80.5" font-family="Helvetica,sans-Serif" font-size="10.00" fill="#000000">lcdSetBacklight</text>
</a>
</g>
</g>
<!-- Node51&#45;&gt;Node53 -->
<g id="edge5" class="edge">
<title>Node51&#45;&gt;Node53</title>
<path fill="none" stroke="#191970" d="M346.113,-83.5C353.9569,-83.5 362.8871,-83.5 371.8368,-83.5"/>
<polygon fill="#191970" stroke="#191970" points="371.8928,-87.0001 381.8928,-83.5 371.8927,-80.0001 371.8928,-87.0001"/>
</g>
<!-- Node54 -->
<g id="node7" class="node">
<title>Node54</title>
<g id="a_node7"><a xlink:href="_a_p_i_8h.html#a403c82418e475fa4a8273719e6a7f3e6" target="_top" xlink:title="printf">
<polygon fill="none" stroke="#000000" points="405.063,-37.5 405.063,-55.5 443.2944,-55.5 443.2944,-37.5 405.063,-37.5"/>
<text text-anchor="middle" x="424.1787" y="-43.5" font-family="Helvetica,sans-Serif" font-size="10.00" fill="#000000">printf</text>
</a>
</g>
</g>
<!-- Node51&#45;&gt;Node54 -->
<g id="edge6" class="edge">
<title>Node51&#45;&gt;Node54</title>
<path fill="none" stroke="#191970" d="M345.8472,-74.4488C360.7999,-69.1136 379.7693,-62.3453 395.2955,-56.8056"/>
<polygon fill="#191970" stroke="#191970" points="396.682,-60.027 404.9243,-53.37 394.3296,-53.4341 396.682,-60.027"/>
</g>
</g>
</svg>
