<?xml version="1.0" encoding="UTF-8" standalone="no"?>
<!DOCTYPE svg PUBLIC "-//W3C//DTD SVG 1.1//EN"
 "http://www.w3.org/Graphics/SVG/1.1/DTD/svg11.dtd">
<!-- Generated by graphviz version 2.40.1 (20161225.0304)
 -->
<!-- Title: init_menu_var Pages: 1 -->
<svg width="478pt" height="101pt"
 viewBox="0.00 0.00 477.69 101.00" xmlns="http://www.w3.org/2000/svg" xmlns:xlink="http://www.w3.org/1999/xlink">
<g id="graph0" class="graph" transform="scale(1 1) rotate(0) translate(4 97)">
<title>init_menu_var</title>
<!-- Node58 -->
<g id="node1" class="node">
<title>Node58</title>
<polygon fill="#bfbfbf" stroke="#000000" points="0,-37.5 0,-55.5 78.8125,-55.5 78.8125,-37.5 0,-37.5"/>
<text text-anchor="middle" x="39.4063" y="-43.5" font-family="Helvetica,sans-Serif" font-size="10.00" fill="#000000">init_menu_var</text>
</g>
<!-- Node59 -->
<g id="node2" class="node">
<title>Node59</title>
<g id="a_node2"><a xlink:href="menu_8c.html#aff4fd27ff7707295d91c67fa52a6b021" target="_top" xlink:title="create_menu">
<polygon fill="none" stroke="#000000" points="114.8125,-37.5 114.8125,-55.5 189.1816,-55.5 189.1816,-37.5 114.8125,-37.5"/>
<text text-anchor="middle" x="151.9971" y="-43.5" font-family="Helvetica,sans-Serif" font-size="10.00" fill="#000000">create_menu</text>
</a>
</g>
</g>
<!-- Node58&#45;&gt;Node59 -->
<g id="edge1" class="edge">
<title>Node58&#45;&gt;Node59</title>
<path fill="none" stroke="#191970" d="M79.1016,-46.5C87.2935,-46.5 96.0005,-46.5 104.439,-46.5"/>
<polygon fill="#191970" stroke="#191970" points="104.5463,-50.0001 114.5463,-46.5 104.5463,-43.0001 104.5463,-50.0001"/>
</g>
<!-- Node60 -->
<g id="node3" class="node">
<title>Node60</title>
<g id="a_node3"><a xlink:href="log_8h.html#a8e5bb8a2a372f5b066ff7af7044584c1" target="_top" xlink:title="prints a error message and displays on lcd. Only will print and display if log_level is greater than ...">
<polygon fill="none" stroke="#000000" points="225.1816,-37.5 225.1816,-55.5 262.2949,-55.5 262.2949,-37.5 225.1816,-37.5"/>
<text text-anchor="middle" x="243.7383" y="-43.5" font-family="Helvetica,sans-Serif" font-size="10.00" fill="#000000">error</text>
</a>
</g>
</g>
<!-- Node59&#45;&gt;Node60 -->
<g id="edge2" class="edge">
<title>Node59&#45;&gt;Node60</title>
<path fill="none" stroke="#191970" d="M189.3117,-46.5C197.8659,-46.5 206.8317,-46.5 214.9615,-46.5"/>
<polygon fill="#191970" stroke="#191970" points="215.0625,-50.0001 225.0625,-46.5 215.0625,-43.0001 215.0625,-50.0001"/>
</g>
<!-- Node61 -->
<g id="node4" class="node">
<title>Node61</title>
<g id="a_node4"><a xlink:href="log_8c.html#afff22aff6749311a684a559cac3ac8bd" target="_top" xlink:title="log_info">
<polygon fill="none" stroke="#000000" points="298.2949,-37.5 298.2949,-55.5 349.3242,-55.5 349.3242,-37.5 298.2949,-37.5"/>
<text text-anchor="middle" x="323.8096" y="-43.5" font-family="Helvetica,sans-Serif" font-size="10.00" fill="#000000">log_info</text>
</a>
</g>
</g>
<!-- Node60&#45;&gt;Node61 -->
<g id="edge3" class="edge">
<title>Node60&#45;&gt;Node61</title>
<path fill="none" stroke="#191970" d="M262.3095,-46.5C269.9468,-46.5 279.0636,-46.5 287.9083,-46.5"/>
<polygon fill="#191970" stroke="#191970" points="288.0614,-50.0001 298.0614,-46.5 288.0613,-43.0001 288.0614,-50.0001"/>
</g>
<!-- Node62 -->
<g id="node5" class="node">
<title>Node62</title>
<g id="a_node5"><a xlink:href="_a_p_i_8h.html#a5fa1d119fe3e836b5519f97eae7a1272" target="_top" xlink:title="lcdClear">
<polygon fill="none" stroke="#000000" points="401.1689,-74.5 401.1689,-92.5 453.8486,-92.5 453.8486,-74.5 401.1689,-74.5"/>
<text text-anchor="middle" x="427.5088" y="-80.5" font-family="Helvetica,sans-Serif" font-size="10.00" fill="#000000">lcdClear</text>
</a>
</g>
</g>
<!-- Node61&#45;&gt;Node62 -->
<g id="edge4" class="edge">
<title>Node61&#45;&gt;Node62</title>
<path fill="none" stroke="#191970" d="M349.1773,-55.5512C362.2338,-60.2098 378.3527,-65.9611 392.5677,-71.033"/>
<polygon fill="#191970" stroke="#191970" points="391.4489,-74.3499 402.0436,-74.414 393.8013,-67.757 391.4489,-74.3499"/>
</g>
<!-- Node63 -->
<g id="node6" class="node">
<title>Node63</title>
<g id="a_node6"><a xlink:href="_a_p_i_8h.html#aab53a247d88151a6623c20fa1ea940b0" target="_top" xlink:title="lcdSetBacklight">
<polygon fill="none" stroke="#000000" points="385.3242,-37.5 385.3242,-55.5 469.6934,-55.5 469.6934,-37.5 385.3242,-37.5"/>
<text text-anchor="middle" x="427.5088" y="-43.5" font-family="Helvetica,sans-Serif" font-size="10.00" fill="#000000">lcdSetBacklight</text>
</a>
</g>
</g>
<!-- Node61&#45;&gt;Node63 -->
<g id="edge5" class="edge">
<title>Node61&#45;&gt;Node63</title>
<path fill="none" stroke="#191970" d="M349.4431,-46.5C357.287,-46.5 366.2171,-46.5 375.1669,-46.5"/>
<polygon fill="#191970" stroke="#191970" points="375.2229,-50.0001 385.2229,-46.5 375.2228,-43.0001 375.2229,-50.0001"/>
</g>
<!-- Node64 -->
<g id="node7" class="node">
<title>Node64</title>
<g id="a_node7"><a xlink:href="_a_p_i_8h.html#a403c82418e475fa4a8273719e6a7f3e6" target="_top" xlink:title="printf">
<polygon fill="none" stroke="#000000" points="408.3931,-.5 408.3931,-18.5 446.6245,-18.5 446.6245,-.5 408.3931,-.5"/>
<text text-anchor="middle" x="427.5088" y="-6.5" font-family="Helvetica,sans-Serif" font-size="10.00" fill="#000000">printf</text>
</a>
</g>
</g>
<!-- Node61&#45;&gt;Node64 -->
<g id="edge6" class="edge">
<title>Node61&#45;&gt;Node64</title>
<path fill="none" stroke="#191970" d="M349.1773,-37.4488C364.13,-32.1136 383.0994,-25.3453 398.6255,-19.8056"/>
<polygon fill="#191970" stroke="#191970" points="400.0121,-23.027 408.2544,-16.37 397.6597,-16.4341 400.0121,-23.027"/>
</g>
</g>
</svg>
