<?xml version="1.0" encoding="UTF-8" standalone="no"?>
<!DOCTYPE svg PUBLIC "-//W3C//DTD SVG 1.1//EN"
 "http://www.w3.org/Graphics/SVG/1.1/DTD/svg11.dtd">
<!-- Generated by graphviz version 2.40.1 (20161225.0304)
 -->
<!-- Title: init_menu_var Pages: 1 -->
<svg width="478pt" height="138pt"
 viewBox="0.00 0.00 477.69 138.00" xmlns="http://www.w3.org/2000/svg" xmlns:xlink="http://www.w3.org/1999/xlink">
<g id="graph0" class="graph" transform="scale(1 1) rotate(0) translate(4 134)">
<title>init_menu_var</title>
<!-- Node64 -->
<g id="node1" class="node">
<title>Node64</title>
<polygon fill="#bfbfbf" stroke="#000000" points="0,-19.5 0,-37.5 78.8125,-37.5 78.8125,-19.5 0,-19.5"/>
<text text-anchor="middle" x="39.4063" y="-25.5" font-family="Helvetica,sans-Serif" font-size="10.00" fill="#000000">init_menu_var</text>
</g>
<!-- Node65 -->
<g id="node2" class="node">
<title>Node65</title>
<g id="a_node2"><a xlink:href="menu_8c.html#aff4fd27ff7707295d91c67fa52a6b021" target="_top" xlink:title="Static function that handles creation of menu. ">
<polygon fill="none" stroke="#000000" points="114.8125,-38.5 114.8125,-56.5 189.1816,-56.5 189.1816,-38.5 114.8125,-38.5"/>
<text text-anchor="middle" x="151.9971" y="-44.5" font-family="Helvetica,sans-Serif" font-size="10.00" fill="#000000">create_menu</text>
</a>
</g>
</g>
<!-- Node64&#45;&gt;Node65 -->
<g id="edge1" class="edge">
<title>Node64&#45;&gt;Node65</title>
<path fill="none" stroke="#191970" d="M79.1016,-35.1987C87.2935,-36.5811 96.0005,-38.0504 104.439,-39.4744"/>
<polygon fill="#191970" stroke="#191970" points="104.1033,-42.9672 114.5463,-41.1801 105.2681,-36.0648 104.1033,-42.9672"/>
</g>
<!-- Node71 -->
<g id="node8" class="node">
<title>Node71</title>
<g id="a_node8"><a xlink:href="_a_p_i_8h.html#a403c82418e475fa4a8273719e6a7f3e6" target="_top" xlink:title="Prints the formatted string to the debug stream (the PC terminal). ">
<polygon fill="none" stroke="#000000" points="408.3931,-.5 408.3931,-18.5 446.6245,-18.5 446.6245,-.5 408.3931,-.5"/>
<text text-anchor="middle" x="427.5088" y="-6.5" font-family="Helvetica,sans-Serif" font-size="10.00" fill="#000000">printf</text>
</a>
</g>
</g>
<!-- Node64&#45;&gt;Node71 -->
<g id="edge8" class="edge">
<title>Node64&#45;&gt;Node71</title>
<path fill="none" stroke="#191970" d="M79.1162,-26.556C157.2366,-22.7315 329.2718,-14.3093 398.15,-10.9373"/>
<polygon fill="#191970" stroke="#191970" points="398.4717,-14.4258 408.2886,-10.4409 398.1294,-7.4342 398.4717,-14.4258"/>
</g>
<!-- Node66 -->
<g id="node3" class="node">
<title>Node66</title>
<g id="a_node3"><a xlink:href="log_8h.html#a8e5bb8a2a372f5b066ff7af7044584c1" target="_top" xlink:title="prints a error message and displays on lcd. ">
<polygon fill="none" stroke="#000000" points="225.1816,-38.5 225.1816,-56.5 262.2949,-56.5 262.2949,-38.5 225.1816,-38.5"/>
<text text-anchor="middle" x="243.7383" y="-44.5" font-family="Helvetica,sans-Serif" font-size="10.00" fill="#000000">error</text>
</a>
</g>
</g>
<!-- Node65&#45;&gt;Node66 -->
<g id="edge2" class="edge">
<title>Node65&#45;&gt;Node66</title>
<path fill="none" stroke="#191970" d="M189.3117,-47.5C197.8659,-47.5 206.8317,-47.5 214.9615,-47.5"/>
<polygon fill="#191970" stroke="#191970" points="215.0625,-51.0001 225.0625,-47.5 215.0625,-44.0001 215.0625,-51.0001"/>
</g>
<!-- Node67 -->
<g id="node4" class="node">
<title>Node67</title>
<g id="a_node4"><a xlink:href="log_8c.html#afff22aff6749311a684a559cac3ac8bd" target="_top" xlink:title="prints a log info message to the lcd ">
<polygon fill="none" stroke="#000000" points="298.2949,-38.5 298.2949,-56.5 349.3242,-56.5 349.3242,-38.5 298.2949,-38.5"/>
<text text-anchor="middle" x="323.8096" y="-44.5" font-family="Helvetica,sans-Serif" font-size="10.00" fill="#000000">log_info</text>
</a>
</g>
</g>
<!-- Node66&#45;&gt;Node67 -->
<g id="edge3" class="edge">
<title>Node66&#45;&gt;Node67</title>
<path fill="none" stroke="#191970" d="M262.3095,-47.5C269.9468,-47.5 279.0636,-47.5 287.9083,-47.5"/>
<polygon fill="#191970" stroke="#191970" points="288.0614,-51.0001 298.0614,-47.5 288.0613,-44.0001 288.0614,-51.0001"/>
</g>
<!-- Node68 -->
<g id="node5" class="node">
<title>Node68</title>
<g id="a_node5"><a xlink:href="_a_p_i_8h.html#a5fa1d119fe3e836b5519f97eae7a1272" target="_top" xlink:title="Clears the LCD screen on the specified port. ">
<polygon fill="none" stroke="#000000" points="401.1689,-111.5 401.1689,-129.5 453.8486,-129.5 453.8486,-111.5 401.1689,-111.5"/>
<text text-anchor="middle" x="427.5088" y="-117.5" font-family="Helvetica,sans-Serif" font-size="10.00" fill="#000000">lcdClear</text>
</a>
</g>
</g>
<!-- Node67&#45;&gt;Node68 -->
<g id="edge4" class="edge">
<title>Node67&#45;&gt;Node68</title>
<path fill="none" stroke="#191970" d="M332.2263,-56.6967C343.4311,-68.5222 364.2902,-89.1237 385.3242,-102.5 387.7809,-104.0623 390.3963,-105.5454 393.075,-106.9403"/>
<polygon fill="#191970" stroke="#191970" points="391.7543,-110.1879 402.2875,-111.3286 394.7647,-103.8683 391.7543,-110.1879"/>
</g>
<!-- Node69 -->
<g id="node6" class="node">
<title>Node69</title>
<g id="a_node6"><a xlink:href="_a_p_i_8h.html#a6cfad8271c6a566a2f51ca318f819a80" target="_top" xlink:title="Prints the formatted string to the attached LCD. ">
<polygon fill="none" stroke="#000000" points="402.8364,-74.5 402.8364,-92.5 452.1812,-92.5 452.1812,-74.5 402.8364,-74.5"/>
<text text-anchor="middle" x="427.5088" y="-80.5" font-family="Helvetica,sans-Serif" font-size="10.00" fill="#000000">lcdPrint</text>
</a>
</g>
</g>
<!-- Node67&#45;&gt;Node69 -->
<g id="edge5" class="edge">
<title>Node67&#45;&gt;Node69</title>
<path fill="none" stroke="#191970" d="M349.4431,-56.3989C362.6006,-60.9666 378.8146,-66.5954 393.0503,-71.5375"/>
<polygon fill="#191970" stroke="#191970" points="391.9332,-74.8545 402.528,-74.8277 394.2289,-68.2416 391.9332,-74.8545"/>
</g>
<!-- Node70 -->
<g id="node7" class="node">
<title>Node70</title>
<g id="a_node7"><a xlink:href="_a_p_i_8h.html#aab53a247d88151a6623c20fa1ea940b0" target="_top" xlink:title="Sets the specified LCD backlight to be on or off. ">
<polygon fill="none" stroke="#000000" points="385.3242,-37.5 385.3242,-55.5 469.6934,-55.5 469.6934,-37.5 385.3242,-37.5"/>
<text text-anchor="middle" x="427.5088" y="-43.5" font-family="Helvetica,sans-Serif" font-size="10.00" fill="#000000">lcdSetBacklight</text>
</a>
</g>
</g>
<!-- Node67&#45;&gt;Node70 -->
<g id="edge6" class="edge">
<title>Node67&#45;&gt;Node70</title>
<path fill="none" stroke="#191970" d="M349.4431,-47.2528C357.287,-47.1772 366.2171,-47.0911 375.1669,-47.0047"/>
<polygon fill="#191970" stroke="#191970" points="375.2571,-50.5041 385.2229,-46.9078 375.1895,-43.5045 375.2571,-50.5041"/>
</g>
<!-- Node67&#45;&gt;Node71 -->
<g id="edge7" class="edge">
<title>Node67&#45;&gt;Node71</title>
<path fill="none" stroke="#191970" d="M348.3848,-38.4945C363.4189,-32.9854 382.7299,-25.909 398.5105,-20.1263"/>
<polygon fill="#191970" stroke="#191970" points="400.1052,-23.2696 408.2903,-16.5425 397.6966,-16.697 400.1052,-23.2696"/>
</g>
</g>
</svg>
