<?xml version="1.0" encoding="UTF-8" standalone="no"?>
<!DOCTYPE svg PUBLIC "-//W3C//DTD SVG 1.1//EN"
 "http://www.w3.org/Graphics/SVG/1.1/DTD/svg11.dtd">
<!-- Generated by graphviz version 2.40.1 (20161225.0304)
 -->
<!-- Title: init_menu_float Pages: 1 -->
<svg width="483pt" height="138pt"
 viewBox="0.00 0.00 482.70 138.00" xmlns="http://www.w3.org/2000/svg" xmlns:xlink="http://www.w3.org/1999/xlink">
<g id="graph0" class="graph" transform="scale(1 1) rotate(0) translate(4 134)">
<title>init_menu_float</title>
<!-- Node23 -->
<g id="node1" class="node">
<title>Node23</title>
<polygon fill="#bfbfbf" stroke="#000000" points="0,-37.5 0,-55.5 83.8223,-55.5 83.8223,-37.5 0,-37.5"/>
<text text-anchor="middle" x="41.9111" y="-43.5" font-family="Helvetica,sans-Serif" font-size="10.00" fill="#000000">init_menu_float</text>
</g>
<!-- Node24 -->
<g id="node2" class="node">
<title>Node24</title>
<g id="a_node2"><a xlink:href="menu_8c.html#aff4fd27ff7707295d91c67fa52a6b021" target="_top" xlink:title="create_menu">
<polygon fill="none" stroke="#000000" points="119.8223,-74.5 119.8223,-92.5 194.1914,-92.5 194.1914,-74.5 119.8223,-74.5"/>
<text text-anchor="middle" x="157.0068" y="-80.5" font-family="Helvetica,sans-Serif" font-size="10.00" fill="#000000">create_menu</text>
</a>
</g>
</g>
<!-- Node23&#45;&gt;Node24 -->
<g id="edge1" class="edge">
<title>Node23&#45;&gt;Node24</title>
<path fill="none" stroke="#191970" d="M70.0667,-55.5512C84.8368,-60.2994 103.1379,-66.1827 119.1336,-71.3248"/>
<polygon fill="#191970" stroke="#191970" points="118.1517,-74.6855 128.743,-74.414 120.294,-68.0214 118.1517,-74.6855"/>
</g>
<!-- Node30 -->
<g id="node8" class="node">
<title>Node30</title>
<g id="a_node8"><a xlink:href="vmath_8h.html#af082905f7eac6d03e92015146bbc1925" target="_top" xlink:title="the min of two values ">
<polygon fill="none" stroke="#000000" points="139.561,-37.5 139.561,-55.5 174.4526,-55.5 174.4526,-37.5 139.561,-37.5"/>
<text text-anchor="middle" x="157.0068" y="-43.5" font-family="Helvetica,sans-Serif" font-size="10.00" fill="#000000">max</text>
</a>
</g>
</g>
<!-- Node23&#45;&gt;Node30 -->
<g id="edge7" class="edge">
<title>Node23&#45;&gt;Node30</title>
<path fill="none" stroke="#191970" d="M84.115,-46.5C99.2008,-46.5 115.8043,-46.5 129.3496,-46.5"/>
<polygon fill="#191970" stroke="#191970" points="129.4696,-50.0001 139.4695,-46.5 129.4695,-43.0001 129.4696,-50.0001"/>
</g>
<!-- Node31 -->
<g id="node9" class="node">
<title>Node31</title>
<g id="a_node9"><a xlink:href="vmath_8h.html#abd8bbcfabb3ddef2ccaafb9928a37b95" target="_top" xlink:title="the min of two values ">
<polygon fill="none" stroke="#000000" points="140.9502,-.5 140.9502,-18.5 173.0635,-18.5 173.0635,-.5 140.9502,-.5"/>
<text text-anchor="middle" x="157.0068" y="-6.5" font-family="Helvetica,sans-Serif" font-size="10.00" fill="#000000">min</text>
</a>
</g>
</g>
<!-- Node23&#45;&gt;Node31 -->
<g id="edge8" class="edge">
<title>Node23&#45;&gt;Node31</title>
<path fill="none" stroke="#191970" d="M70.0667,-37.4488C88.7347,-31.4476 113.0433,-23.633 131.2086,-17.7934"/>
<polygon fill="#191970" stroke="#191970" points="132.3999,-21.0869 140.8489,-14.6943 130.2575,-14.4228 132.3999,-21.0869"/>
</g>
<!-- Node25 -->
<g id="node3" class="node">
<title>Node25</title>
<g id="a_node3"><a xlink:href="log_8h.html#a8e5bb8a2a372f5b066ff7af7044584c1" target="_top" xlink:title="prints a error message and displays on lcd. Only will print and display if log_level is greater than ...">
<polygon fill="none" stroke="#000000" points="230.1914,-74.5 230.1914,-92.5 267.3047,-92.5 267.3047,-74.5 230.1914,-74.5"/>
<text text-anchor="middle" x="248.748" y="-80.5" font-family="Helvetica,sans-Serif" font-size="10.00" fill="#000000">error</text>
</a>
</g>
</g>
<!-- Node24&#45;&gt;Node25 -->
<g id="edge2" class="edge">
<title>Node24&#45;&gt;Node25</title>
<path fill="none" stroke="#191970" d="M194.3215,-83.5C202.8757,-83.5 211.8415,-83.5 219.9713,-83.5"/>
<polygon fill="#191970" stroke="#191970" points="220.0723,-87.0001 230.0723,-83.5 220.0722,-80.0001 220.0723,-87.0001"/>
</g>
<!-- Node26 -->
<g id="node4" class="node">
<title>Node26</title>
<g id="a_node4"><a xlink:href="log_8c.html#afff22aff6749311a684a559cac3ac8bd" target="_top" xlink:title="log_info">
<polygon fill="none" stroke="#000000" points="303.3047,-74.5 303.3047,-92.5 354.334,-92.5 354.334,-74.5 303.3047,-74.5"/>
<text text-anchor="middle" x="328.8193" y="-80.5" font-family="Helvetica,sans-Serif" font-size="10.00" fill="#000000">log_info</text>
</a>
</g>
</g>
<!-- Node25&#45;&gt;Node26 -->
<g id="edge3" class="edge">
<title>Node25&#45;&gt;Node26</title>
<path fill="none" stroke="#191970" d="M267.3193,-83.5C274.9565,-83.5 284.0733,-83.5 292.9181,-83.5"/>
<polygon fill="#191970" stroke="#191970" points="293.0712,-87.0001 303.0711,-83.5 293.0711,-80.0001 293.0712,-87.0001"/>
</g>
<!-- Node27 -->
<g id="node5" class="node">
<title>Node27</title>
<g id="a_node5"><a xlink:href="_a_p_i_8h.html#a403c82418e475fa4a8273719e6a7f3e6" target="_top" xlink:title="printf">
<polygon fill="none" stroke="#000000" points="413.4028,-111.5 413.4028,-129.5 451.6343,-129.5 451.6343,-111.5 413.4028,-111.5"/>
<text text-anchor="middle" x="432.5186" y="-117.5" font-family="Helvetica,sans-Serif" font-size="10.00" fill="#000000">printf</text>
</a>
</g>
</g>
<!-- Node26&#45;&gt;Node27 -->
<g id="edge4" class="edge">
<title>Node26&#45;&gt;Node27</title>
<path fill="none" stroke="#191970" d="M354.187,-92.5512C369.1398,-97.8864 388.1092,-104.6547 403.6353,-110.1944"/>
<polygon fill="#191970" stroke="#191970" points="402.6695,-113.5659 413.2641,-113.63 405.0219,-106.973 402.6695,-113.5659"/>
</g>
<!-- Node28 -->
<g id="node6" class="node">
<title>Node28</title>
<g id="a_node6"><a xlink:href="_a_p_i_8h.html#aab53a247d88151a6623c20fa1ea940b0" target="_top" xlink:title="lcdSetBacklight">
<polygon fill="none" stroke="#000000" points="390.334,-74.5 390.334,-92.5 474.7031,-92.5 474.7031,-74.5 390.334,-74.5"/>
<text text-anchor="middle" x="432.5186" y="-80.5" font-family="Helvetica,sans-Serif" font-size="10.00" fill="#000000">lcdSetBacklight</text>
</a>
</g>
</g>
<!-- Node26&#45;&gt;Node28 -->
<g id="edge5" class="edge">
<title>Node26&#45;&gt;Node28</title>
<path fill="none" stroke="#191970" d="M354.4529,-83.5C362.2967,-83.5 371.2269,-83.5 380.1766,-83.5"/>
<polygon fill="#191970" stroke="#191970" points="380.2327,-87.0001 390.2326,-83.5 380.2326,-80.0001 380.2327,-87.0001"/>
</g>
<!-- Node29 -->
<g id="node7" class="node">
<title>Node29</title>
<g id="a_node7"><a xlink:href="_a_p_i_8h.html#a5fa1d119fe3e836b5519f97eae7a1272" target="_top" xlink:title="lcdClear">
<polygon fill="none" stroke="#000000" points="406.1787,-37.5 406.1787,-55.5 458.8584,-55.5 458.8584,-37.5 406.1787,-37.5"/>
<text text-anchor="middle" x="432.5186" y="-43.5" font-family="Helvetica,sans-Serif" font-size="10.00" fill="#000000">lcdClear</text>
</a>
</g>
</g>
<!-- Node26&#45;&gt;Node29 -->
<g id="edge6" class="edge">
<title>Node26&#45;&gt;Node29</title>
<path fill="none" stroke="#191970" d="M354.187,-74.4488C367.2435,-69.7902 383.3625,-64.0389 397.5775,-58.967"/>
<polygon fill="#191970" stroke="#191970" points="398.8111,-62.243 407.0534,-55.586 396.4587,-55.6501 398.8111,-62.243"/>
</g>
</g>
</svg>
