<?xml version="1.0" encoding="UTF-8" standalone="no"?>
<!DOCTYPE svg PUBLIC "-//W3C//DTD SVG 1.1//EN"
 "http://www.w3.org/Graphics/SVG/1.1/DTD/svg11.dtd">
<!-- Generated by graphviz version 2.40.1 (20161225.0304)
 -->
<!-- Title: calculate_current_display Pages: 1 -->
<svg width="359pt" height="65pt"
 viewBox="0.00 0.00 358.99 65.00" xmlns="http://www.w3.org/2000/svg" xmlns:xlink="http://www.w3.org/1999/xlink">
<g id="graph0" class="graph" transform="scale(1 1) rotate(0) translate(4 61)">
<title>calculate_current_display</title>
<!-- Node0 -->
<g id="node1" class="node">
<title>Node0</title>
<polygon fill="#bfbfbf" stroke="#000000" points="0,-19.5 0,-37.5 128.8418,-37.5 128.8418,-19.5 0,-19.5"/>
<text text-anchor="middle" x="64.4209" y="-25.5" font-family="Helvetica,sans-Serif" font-size="10.00" fill="#000000">calculate_current_display</text>
</g>
<!-- Node1 -->
<g id="node2" class="node">
<title>Node1</title>
<g id="a_node2"><a xlink:href="vlib_8h.html#a4124054db8f5e3246e321971f993b165" target="_top" xlink:title="converts a float to string. ">
<polygon fill="none" stroke="#000000" points="164.8418,-38.5 164.8418,-56.5 197.5215,-56.5 197.5215,-38.5 164.8418,-38.5"/>
<text text-anchor="middle" x="181.1816" y="-44.5" font-family="Helvetica,sans-Serif" font-size="10.00" fill="#000000">ftoa</text>
</a>
</g>
</g>
<!-- Node0&#45;&gt;Node1 -->
<g id="edge1" class="edge">
<title>Node0&#45;&gt;Node1</title>
<path fill="none" stroke="#191970" d="M120.0656,-37.5548C132.1845,-39.5269 144.461,-41.5246 154.8,-43.207"/>
<polygon fill="#191970" stroke="#191970" points="154.3528,-46.6802 164.7851,-44.8319 155.4771,-39.7711 154.3528,-46.6802"/>
</g>
<!-- Node4 -->
<g id="node5" class="node">
<title>Node4</title>
<g id="a_node5"><a xlink:href="vlib_8h.html#aa1986c48c027cf691df679c7a4968126" target="_top" xlink:title="converts a int to string. ">
<polygon fill="none" stroke="#000000" points="233.5215,-.5 233.5215,-18.5 265.6445,-18.5 265.6445,-.5 233.5215,-.5"/>
<text text-anchor="middle" x="249.583" y="-6.5" font-family="Helvetica,sans-Serif" font-size="10.00" fill="#000000">itoa</text>
</a>
</g>
</g>
<!-- Node0&#45;&gt;Node4 -->
<g id="edge4" class="edge">
<title>Node0&#45;&gt;Node4</title>
<path fill="none" stroke="#191970" d="M128.9217,-21.8814C161.2879,-18.5602 198.7116,-14.7201 223.1927,-12.208"/>
<polygon fill="#191970" stroke="#191970" points="223.5619,-15.6886 233.1524,-11.186 222.8473,-8.7251 223.5619,-15.6886"/>
</g>
<!-- Node2 -->
<g id="node3" class="node">
<title>Node2</title>
<g id="a_node3"><a xlink:href="vlib_8c.html#aa1986c48c027cf691df679c7a4968126" target="_top" xlink:title="converts a int to string. ">
<polygon fill="none" stroke="#000000" points="233.5215,-37.5 233.5215,-55.5 265.6445,-55.5 265.6445,-37.5 233.5215,-37.5"/>
<text text-anchor="middle" x="249.583" y="-43.5" font-family="Helvetica,sans-Serif" font-size="10.00" fill="#000000">itoa</text>
</a>
</g>
</g>
<!-- Node1&#45;&gt;Node2 -->
<g id="edge2" class="edge">
<title>Node1&#45;&gt;Node2</title>
<path fill="none" stroke="#191970" d="M197.7397,-47.2579C205.3014,-47.1474 214.4476,-47.0137 222.9395,-46.8895"/>
<polygon fill="#191970" stroke="#191970" points="223.2297,-50.3857 233.1774,-46.7398 223.1273,-43.3865 223.2297,-50.3857"/>
</g>
<!-- Node3 -->
<g id="node4" class="node">
<title>Node3</title>
<g id="a_node4"><a xlink:href="vlib_8c.html#aad7fea725cb4b198ace1aa3df5051244" target="_top" xlink:title="reverses a string &#39;str&#39; of length &#39;len&#39; ">
<polygon fill="none" stroke="#000000" points="301.6445,-18.5 301.6445,-36.5 350.9893,-36.5 350.9893,-18.5 301.6445,-18.5"/>
<text text-anchor="middle" x="326.3169" y="-24.5" font-family="Helvetica,sans-Serif" font-size="10.00" fill="#000000">reverse</text>
</a>
</g>
</g>
<!-- Node2&#45;&gt;Node3 -->
<g id="edge3" class="edge">
<title>Node2&#45;&gt;Node3</title>
<path fill="none" stroke="#191970" d="M265.8563,-42.4706C273.3998,-40.6028 282.6717,-38.3069 291.6684,-36.0793"/>
<polygon fill="#191970" stroke="#191970" points="292.7366,-39.4206 301.6022,-33.6196 291.0541,-32.6258 292.7366,-39.4206"/>
</g>
<!-- Node4&#45;&gt;Node3 -->
<g id="edge5" class="edge">
<title>Node4&#45;&gt;Node3</title>
<path fill="none" stroke="#191970" d="M265.8563,-13.3173C273.3998,-15.0869 282.6717,-17.2619 291.6684,-19.3723"/>
<polygon fill="#191970" stroke="#191970" points="291.0671,-22.8262 301.6022,-21.7025 292.6658,-16.0111 291.0671,-22.8262"/>
</g>
</g>
</svg>
