<?xml version="1.0" encoding="UTF-8" standalone="no"?>
<!DOCTYPE svg PUBLIC "-//W3C//DTD SVG 1.1//EN"
 "http://www.w3.org/Graphics/SVG/1.1/DTD/svg11.dtd">
<!-- Generated by graphviz version 2.40.1 (20161225.0304)
 -->
<!-- Title: display_menu Pages: 1 -->
<svg width="549pt" height="269pt"
 viewBox="0.00 0.00 548.86 269.00" xmlns="http://www.w3.org/2000/svg" xmlns:xlink="http://www.w3.org/1999/xlink">
<g id="graph0" class="graph" transform="scale(1 1) rotate(0) translate(4 265)">
<title>display_menu</title>
<!-- Node21 -->
<g id="node1" class="node">
<title>Node21</title>
<polygon fill="#bfbfbf" stroke="#000000" points="0,-92.5 0,-110.5 77.7041,-110.5 77.7041,-92.5 0,-92.5"/>
<text text-anchor="middle" x="38.8521" y="-98.5" font-family="Helvetica,sans-Serif" font-size="10.00" fill="#000000">display_menu</text>
</g>
<!-- Node22 -->
<g id="node2" class="node">
<title>Node22</title>
<g id="a_node2"><a xlink:href="menu_8c.html#a0fb55c1213b23963d509b974d1254567" target="_top" xlink:title="calculate_current_display">
<polygon fill="none" stroke="#000000" points="113.7041,-166.5 113.7041,-184.5 242.5459,-184.5 242.5459,-166.5 113.7041,-166.5"/>
<text text-anchor="middle" x="178.125" y="-172.5" font-family="Helvetica,sans-Serif" font-size="10.00" fill="#000000">calculate_current_display</text>
</a>
</g>
</g>
<!-- Node21&#45;&gt;Node22 -->
<g id="edge1" class="edge">
<title>Node21&#45;&gt;Node22</title>
<path fill="none" stroke="#191970" d="M48.7046,-110.7928C62.3075,-123.1475 88.0763,-144.886 113.7041,-157.5 118.0345,-159.6314 122.6568,-161.5452 127.3621,-163.2558"/>
<polygon fill="#191970" stroke="#191970" points="126.4764,-166.6497 137.07,-166.4864 128.6868,-160.0079 126.4764,-166.6497"/>
</g>
<!-- Node29 -->
<g id="node9" class="node">
<title>Node29</title>
<g id="a_node9"><a xlink:href="_a_p_i_8h.html#a1c59207742a1acf45a8957d7f04f9dfe" target="_top" xlink:title="delay">
<polygon fill="none" stroke="#000000" points="158.1719,-129.5 158.1719,-147.5 198.0781,-147.5 198.0781,-129.5 158.1719,-129.5"/>
<text text-anchor="middle" x="178.125" y="-135.5" font-family="Helvetica,sans-Serif" font-size="10.00" fill="#000000">delay</text>
</a>
</g>
</g>
<!-- Node21&#45;&gt;Node29 -->
<g id="edge9" class="edge">
<title>Node21&#45;&gt;Node29</title>
<path fill="none" stroke="#191970" d="M72.922,-110.5512C95.8638,-116.646 125.8456,-124.6112 147.9305,-130.4784"/>
<polygon fill="#191970" stroke="#191970" points="147.2064,-133.9073 157.7699,-133.0923 149.0038,-127.142 147.2064,-133.9073"/>
</g>
<!-- Node30 -->
<g id="node10" class="node">
<title>Node30</title>
<g id="a_node10"><a xlink:href="_a_p_i_8h.html#a56722b6f1c22da04885bc9853148bb71" target="_top" xlink:title="isEnabled">
<polygon fill="none" stroke="#000000" points="148.1646,-92.5 148.1646,-110.5 208.0854,-110.5 208.0854,-92.5 148.1646,-92.5"/>
<text text-anchor="middle" x="178.125" y="-98.5" font-family="Helvetica,sans-Serif" font-size="10.00" fill="#000000">isEnabled</text>
</a>
</g>
</g>
<!-- Node21&#45;&gt;Node30 -->
<g id="edge10" class="edge">
<title>Node21&#45;&gt;Node30</title>
<path fill="none" stroke="#191970" d="M78.018,-101.5C96.7542,-101.5 119.1562,-101.5 138.0133,-101.5"/>
<polygon fill="#191970" stroke="#191970" points="138.079,-105.0001 148.079,-101.5 138.079,-98.0001 138.079,-105.0001"/>
</g>
<!-- Node31 -->
<g id="node11" class="node">
<title>Node31</title>
<g id="a_node11"><a xlink:href="lcd_8h.html#ac7b3225ccc82fcbe067ba9da934f010d" target="_top" xlink:title="Returns the pressed buttons. ">
<polygon fill="none" stroke="#000000" points="114.251,-55.5 114.251,-73.5 241.999,-73.5 241.999,-55.5 114.251,-55.5"/>
<text text-anchor="middle" x="178.125" y="-61.5" font-family="Helvetica,sans-Serif" font-size="10.00" fill="#000000">lcd_get_pressed_buttons</text>
</a>
</g>
</g>
<!-- Node21&#45;&gt;Node31 -->
<g id="edge11" class="edge">
<title>Node21&#45;&gt;Node31</title>
<path fill="none" stroke="#191970" d="M72.922,-92.4488C91.3849,-87.5438 114.4073,-81.4276 134.2039,-76.1683"/>
<polygon fill="#191970" stroke="#191970" points="135.158,-79.5363 143.924,-73.586 133.3606,-72.771 135.158,-79.5363"/>
</g>
<!-- Node35 -->
<g id="node15" class="node">
<title>Node35</title>
<g id="a_node15"><a xlink:href="lcd_8h.html#adabd3f7cdda45119604b488caf22bba8" target="_top" xlink:title="prints a string to a line on the lcd ">
<polygon fill="none" stroke="#000000" points="151.2261,-18.5 151.2261,-36.5 205.0239,-36.5 205.0239,-18.5 151.2261,-18.5"/>
<text text-anchor="middle" x="178.125" y="-24.5" font-family="Helvetica,sans-Serif" font-size="10.00" fill="#000000">lcd_print</text>
</a>
</g>
</g>
<!-- Node21&#45;&gt;Node35 -->
<g id="edge15" class="edge">
<title>Node21&#45;&gt;Node35</title>
<path fill="none" stroke="#191970" d="M48.763,-92.4369C62.432,-80.3751 88.2756,-59.1064 113.7041,-46.5 122.2969,-42.2401 132.0181,-38.7562 141.2556,-35.9894"/>
<polygon fill="#191970" stroke="#191970" points="142.3223,-39.3255 151.0131,-33.2658 140.4403,-32.5832 142.3223,-39.3255"/>
</g>
<!-- Node23 -->
<g id="node3" class="node">
<title>Node23</title>
<g id="a_node3"><a xlink:href="vlib_8h.html#a8805990ed667939e615e4a98950b8bd1" target="_top" xlink:title="converts a float to string. ">
<polygon fill="none" stroke="#000000" points="294.3833,-242.5 294.3833,-260.5 349.3091,-260.5 349.3091,-242.5 294.3833,-242.5"/>
<text text-anchor="middle" x="321.8462" y="-248.5" font-family="Helvetica,sans-Serif" font-size="10.00" fill="#000000">ftoa_bad</text>
</a>
</g>
</g>
<!-- Node22&#45;&gt;Node23 -->
<g id="edge2" class="edge">
<title>Node22&#45;&gt;Node23</title>
<path fill="none" stroke="#191970" d="M195.1761,-184.5166C220.0272,-197.658 266.4096,-222.185 295.6239,-237.6336"/>
<polygon fill="#191970" stroke="#191970" points="294.341,-240.9144 304.8173,-242.4951 297.6133,-234.7263 294.341,-240.9144"/>
</g>
<!-- Node26 -->
<g id="node6" class="node">
<title>Node26</title>
<g id="a_node6"><a xlink:href="vlib_8h.html#a08fa7134f8b9a80eeba25f9feab22892" target="_top" xlink:title="converts a int to string. ">
<polygon fill="none" stroke="#000000" points="401.1465,-204.5 401.1465,-222.5 455.5156,-222.5 455.5156,-204.5 401.1465,-204.5"/>
<text text-anchor="middle" x="428.3311" y="-210.5" font-family="Helvetica,sans-Serif" font-size="10.00" fill="#000000">itoa_bad</text>
</a>
</g>
</g>
<!-- Node22&#45;&gt;Node26 -->
<g id="edge5" class="edge">
<title>Node22&#45;&gt;Node26</title>
<path fill="none" stroke="#191970" d="M222.5153,-184.5005C239.9428,-187.8763 260.1432,-191.5946 278.5459,-194.5 316.6462,-200.5151 360.4352,-205.8928 390.7848,-209.3785"/>
<polygon fill="#191970" stroke="#191970" points="390.5968,-212.8796 400.9279,-210.5304 391.3868,-205.9243 390.5968,-212.8796"/>
</g>
<!-- Node27 -->
<g id="node7" class="node">
<title>Node27</title>
<g id="a_node7"><a xlink:href="vmath_8h.html#af082905f7eac6d03e92015146bbc1925" target="_top" xlink:title="the min of two values ">
<polygon fill="none" stroke="#000000" points="304.4004,-166.5 304.4004,-184.5 339.292,-184.5 339.292,-166.5 304.4004,-166.5"/>
<text text-anchor="middle" x="321.8462" y="-172.5" font-family="Helvetica,sans-Serif" font-size="10.00" fill="#000000">max</text>
</a>
</g>
</g>
<!-- Node22&#45;&gt;Node27 -->
<g id="edge7" class="edge">
<title>Node22&#45;&gt;Node27</title>
<path fill="none" stroke="#191970" d="M242.8381,-175.5C260.7686,-175.5 279.2985,-175.5 293.903,-175.5"/>
<polygon fill="#191970" stroke="#191970" points="294.2311,-179.0001 304.231,-175.5 294.231,-172.0001 294.2311,-179.0001"/>
</g>
<!-- Node28 -->
<g id="node8" class="node">
<title>Node28</title>
<g id="a_node8"><a xlink:href="vmath_8h.html#abd8bbcfabb3ddef2ccaafb9928a37b95" target="_top" xlink:title="the min of two values ">
<polygon fill="none" stroke="#000000" points="305.7896,-129.5 305.7896,-147.5 337.9028,-147.5 337.9028,-129.5 305.7896,-129.5"/>
<text text-anchor="middle" x="321.8462" y="-135.5" font-family="Helvetica,sans-Serif" font-size="10.00" fill="#000000">min</text>
</a>
</g>
</g>
<!-- Node22&#45;&gt;Node28 -->
<g id="edge8" class="edge">
<title>Node22&#45;&gt;Node28</title>
<path fill="none" stroke="#191970" d="M213.2832,-166.4488C238.7943,-159.8811 272.7414,-151.1417 295.8373,-145.1958"/>
<polygon fill="#191970" stroke="#191970" points="296.8045,-148.561 305.6161,-142.6783 295.0592,-141.7821 296.8045,-148.561"/>
</g>
<!-- Node24 -->
<g id="node4" class="node">
<title>Node24</title>
<g id="a_node4"><a xlink:href="vlib_8c.html#a08fa7134f8b9a80eeba25f9feab22892" target="_top" xlink:title="converts a int to string. ">
<polygon fill="none" stroke="#000000" points="401.1465,-241.5 401.1465,-259.5 455.5156,-259.5 455.5156,-241.5 401.1465,-241.5"/>
<text text-anchor="middle" x="428.3311" y="-247.5" font-family="Helvetica,sans-Serif" font-size="10.00" fill="#000000">itoa_bad</text>
</a>
</g>
</g>
<!-- Node23&#45;&gt;Node24 -->
<g id="edge3" class="edge">
<title>Node23&#45;&gt;Node24</title>
<path fill="none" stroke="#191970" d="M349.5459,-251.2399C362.2152,-251.1209 377.4133,-250.9782 391.0665,-250.85"/>
<polygon fill="#191970" stroke="#191970" points="391.1719,-254.3492 401.1385,-250.7554 391.1061,-247.3495 391.1719,-254.3492"/>
</g>
<!-- Node25 -->
<g id="node5" class="node">
<title>Node25</title>
<g id="a_node5"><a xlink:href="vlib_8c.html#aad7fea725cb4b198ace1aa3df5051244" target="_top" xlink:title="reverses a string &#39;str&#39; of length &#39;len&#39; ">
<polygon fill="none" stroke="#000000" points="491.5156,-222.5 491.5156,-240.5 540.8604,-240.5 540.8604,-222.5 491.5156,-222.5"/>
<text text-anchor="middle" x="516.188" y="-228.5" font-family="Helvetica,sans-Serif" font-size="10.00" fill="#000000">reverse</text>
</a>
</g>
</g>
<!-- Node24&#45;&gt;Node25 -->
<g id="edge4" class="edge">
<title>Node24&#45;&gt;Node25</title>
<path fill="none" stroke="#191970" d="M455.6479,-244.5924C463.7413,-242.8421 472.717,-240.9011 481.2242,-239.0613"/>
<polygon fill="#191970" stroke="#191970" points="482.2437,-242.4218 491.2779,-236.8871 480.764,-235.58 482.2437,-242.4218"/>
</g>
<!-- Node26&#45;&gt;Node25 -->
<g id="edge6" class="edge">
<title>Node26&#45;&gt;Node25</title>
<path fill="none" stroke="#191970" d="M455.6479,-219.0966C463.7413,-220.7548 472.717,-222.5937 481.2242,-224.3367"/>
<polygon fill="#191970" stroke="#191970" points="480.7789,-227.8181 491.2779,-226.3965 482.1839,-220.9605 480.7789,-227.8181"/>
</g>
<!-- Node32 -->
<g id="node12" class="node">
<title>Node32</title>
<g id="a_node12"><a xlink:href="lcd_8c.html#a07f04b524b5ded617d5f193db05ba0ad" target="_top" xlink:title="Asserts the lcd is initialized Works by checking is the File *lcd_port is the default NULL value and ...">
<polygon fill="none" stroke="#000000" points="291.0581,-37.5 291.0581,-55.5 352.6343,-55.5 352.6343,-37.5 291.0581,-37.5"/>
<text text-anchor="middle" x="321.8462" y="-43.5" font-family="Helvetica,sans-Serif" font-size="10.00" fill="#000000">lcd_assert</text>
</a>
</g>
</g>
<!-- Node31&#45;&gt;Node32 -->
<g id="edge12" class="edge">
<title>Node31&#45;&gt;Node32</title>
<path fill="none" stroke="#191970" d="M242.0002,-56.5001C255.1046,-54.8589 268.5677,-53.1727 280.6172,-51.6636"/>
<polygon fill="#191970" stroke="#191970" points="281.3102,-55.1043 290.7977,-50.3886 280.4403,-48.1585 281.3102,-55.1043"/>
</g>
<!-- Node34 -->
<g id="node14" class="node">
<title>Node34</title>
<g id="a_node14"><a xlink:href="_a_p_i_8h.html#a04541d90f60b1ccd3d036656673c972d" target="_top" xlink:title="lcdReadButtons">
<polygon fill="none" stroke="#000000" points="278.5459,-74.5 278.5459,-92.5 365.1465,-92.5 365.1465,-74.5 278.5459,-74.5"/>
<text text-anchor="middle" x="321.8462" y="-80.5" font-family="Helvetica,sans-Serif" font-size="10.00" fill="#000000">lcdReadButtons</text>
</a>
</g>
</g>
<!-- Node31&#45;&gt;Node34 -->
<g id="edge14" class="edge">
<title>Node31&#45;&gt;Node34</title>
<path fill="none" stroke="#191970" d="M242.0002,-72.9443C250.7412,-74.0999 259.6417,-75.2765 268.1759,-76.4048"/>
<polygon fill="#191970" stroke="#191970" points="267.9961,-79.9114 278.3686,-77.7522 268.9136,-72.9718 267.9961,-79.9114"/>
</g>
<!-- Node33 -->
<g id="node13" class="node">
<title>Node33</title>
<g id="a_node13"><a xlink:href="_a_p_i_8h.html#a403c82418e475fa4a8273719e6a7f3e6" target="_top" xlink:title="printf">
<polygon fill="none" stroke="#000000" points="409.2153,-37.5 409.2153,-55.5 447.4468,-55.5 447.4468,-37.5 409.2153,-37.5"/>
<text text-anchor="middle" x="428.3311" y="-43.5" font-family="Helvetica,sans-Serif" font-size="10.00" fill="#000000">printf</text>
</a>
</g>
</g>
<!-- Node32&#45;&gt;Node33 -->
<g id="edge13" class="edge">
<title>Node32&#45;&gt;Node33</title>
<path fill="none" stroke="#191970" d="M352.646,-46.5C367.1344,-46.5 384.3366,-46.5 398.6772,-46.5"/>
<polygon fill="#191970" stroke="#191970" points="398.9935,-50.0001 408.9934,-46.5 398.9934,-43.0001 398.9935,-50.0001"/>
</g>
<!-- Node35&#45;&gt;Node32 -->
<g id="edge16" class="edge">
<title>Node35&#45;&gt;Node32</title>
<path fill="none" stroke="#191970" d="M205.1579,-31.0738C226.5027,-33.8955 256.633,-37.8788 280.9296,-41.0908"/>
<polygon fill="#191970" stroke="#191970" points="280.5702,-44.5737 290.9427,-42.4145 281.4877,-37.634 280.5702,-44.5737"/>
</g>
<!-- Node36 -->
<g id="node16" class="node">
<title>Node36</title>
<g id="a_node16"><a xlink:href="_a_p_i_8h.html#a5555228be96449af952aed5bcabb6d8d" target="_top" xlink:title="lcdSetText">
<polygon fill="none" stroke="#000000" points="290.7798,-.5 290.7798,-18.5 352.9126,-18.5 352.9126,-.5 290.7798,-.5"/>
<text text-anchor="middle" x="321.8462" y="-6.5" font-family="Helvetica,sans-Serif" font-size="10.00" fill="#000000">lcdSetText</text>
</a>
</g>
</g>
<!-- Node35&#45;&gt;Node36 -->
<g id="edge17" class="edge">
<title>Node35&#45;&gt;Node36</title>
<path fill="none" stroke="#191970" d="M205.1579,-24.1143C226.4315,-21.45 256.4322,-17.6926 280.6865,-14.6549"/>
<polygon fill="#191970" stroke="#191970" points="281.1996,-18.1181 290.6871,-13.4024 280.3297,-11.1724 281.1996,-18.1181"/>
</g>
</g>
</svg>
