<?xml version="1.0" encoding="UTF-8" standalone="no"?>
<!DOCTYPE svg PUBLIC "-//W3C//DTD SVG 1.1//EN"
 "http://www.w3.org/Graphics/SVG/1.1/DTD/svg11.dtd">
<!-- Generated by graphviz version 2.40.1 (20161225.0304)
 -->
<!-- Title: display_menu Pages: 1 -->
<svg width="533pt" height="193pt"
 viewBox="0.00 0.00 532.72 193.00" xmlns="http://www.w3.org/2000/svg" xmlns:xlink="http://www.w3.org/1999/xlink">
<g id="graph0" class="graph" transform="scale(1 1) rotate(0) translate(4 189)">
<title>display_menu</title>
<!-- Node6 -->
<g id="node1" class="node">
<title>Node6</title>
<polygon fill="#bfbfbf" stroke="#000000" points="0,-83.5 0,-101.5 77.7041,-101.5 77.7041,-83.5 0,-83.5"/>
<text text-anchor="middle" x="38.8521" y="-89.5" font-family="Helvetica,sans-Serif" font-size="10.00" fill="#000000">display_menu</text>
</g>
<!-- Node7 -->
<g id="node2" class="node">
<title>Node7</title>
<g id="a_node2"><a xlink:href="menu_8c.html#a0fb55c1213b23963d509b974d1254567" target="_top" xlink:title="calculate_current_display">
<polygon fill="none" stroke="#000000" points="113.7041,-157.5 113.7041,-175.5 242.5459,-175.5 242.5459,-157.5 113.7041,-157.5"/>
<text text-anchor="middle" x="178.125" y="-163.5" font-family="Helvetica,sans-Serif" font-size="10.00" fill="#000000">calculate_current_display</text>
</a>
</g>
</g>
<!-- Node6&#45;&gt;Node7 -->
<g id="edge1" class="edge">
<title>Node6&#45;&gt;Node7</title>
<path fill="none" stroke="#191970" d="M48.7046,-101.7928C62.3075,-114.1475 88.0763,-135.886 113.7041,-148.5 118.0345,-150.6314 122.6568,-152.5452 127.3621,-154.2558"/>
<polygon fill="#191970" stroke="#191970" points="126.4764,-157.6497 137.07,-157.4864 128.6868,-151.0079 126.4764,-157.6497"/>
</g>
<!-- Node12 -->
<g id="node7" class="node">
<title>Node12</title>
<g id="a_node7"><a xlink:href="_a_p_i_8h.html#a1c59207742a1acf45a8957d7f04f9dfe" target="_top" xlink:title="delay">
<polygon fill="none" stroke="#000000" points="158.1719,-120.5 158.1719,-138.5 198.0781,-138.5 198.0781,-120.5 158.1719,-120.5"/>
<text text-anchor="middle" x="178.125" y="-126.5" font-family="Helvetica,sans-Serif" font-size="10.00" fill="#000000">delay</text>
</a>
</g>
</g>
<!-- Node6&#45;&gt;Node12 -->
<g id="edge7" class="edge">
<title>Node6&#45;&gt;Node12</title>
<path fill="none" stroke="#191970" d="M72.922,-101.5512C95.8638,-107.646 125.8456,-115.6112 147.9305,-121.4784"/>
<polygon fill="#191970" stroke="#191970" points="147.2064,-124.9073 157.7699,-124.0923 149.0038,-118.142 147.2064,-124.9073"/>
</g>
<!-- Node13 -->
<g id="node8" class="node">
<title>Node13</title>
<g id="a_node8"><a xlink:href="_a_p_i_8h.html#a56722b6f1c22da04885bc9853148bb71" target="_top" xlink:title="isEnabled">
<polygon fill="none" stroke="#000000" points="148.1646,-83.5 148.1646,-101.5 208.0854,-101.5 208.0854,-83.5 148.1646,-83.5"/>
<text text-anchor="middle" x="178.125" y="-89.5" font-family="Helvetica,sans-Serif" font-size="10.00" fill="#000000">isEnabled</text>
</a>
</g>
</g>
<!-- Node6&#45;&gt;Node13 -->
<g id="edge8" class="edge">
<title>Node6&#45;&gt;Node13</title>
<path fill="none" stroke="#191970" d="M78.018,-92.5C96.7542,-92.5 119.1562,-92.5 138.0133,-92.5"/>
<polygon fill="#191970" stroke="#191970" points="138.079,-96.0001 148.079,-92.5 138.079,-89.0001 138.079,-96.0001"/>
</g>
<!-- Node14 -->
<g id="node9" class="node">
<title>Node14</title>
<g id="a_node9"><a xlink:href="lcd_8h.html#ac7b3225ccc82fcbe067ba9da934f010d" target="_top" xlink:title="Returns the pressed buttons. ">
<polygon fill="none" stroke="#000000" points="114.251,-46.5 114.251,-64.5 241.999,-64.5 241.999,-46.5 114.251,-46.5"/>
<text text-anchor="middle" x="178.125" y="-52.5" font-family="Helvetica,sans-Serif" font-size="10.00" fill="#000000">lcd_get_pressed_buttons</text>
</a>
</g>
</g>
<!-- Node6&#45;&gt;Node14 -->
<g id="edge9" class="edge">
<title>Node6&#45;&gt;Node14</title>
<path fill="none" stroke="#191970" d="M72.922,-83.4488C91.3849,-78.5438 114.4073,-72.4276 134.2039,-67.1683"/>
<polygon fill="#191970" stroke="#191970" points="135.158,-70.5363 143.924,-64.586 133.3606,-63.771 135.158,-70.5363"/>
</g>
<!-- Node18 -->
<g id="node13" class="node">
<title>Node18</title>
<g id="a_node13"><a xlink:href="lcd_8h.html#adabd3f7cdda45119604b488caf22bba8" target="_top" xlink:title="prints a string to a line on the lcd ">
<polygon fill="none" stroke="#000000" points="151.2261,-9.5 151.2261,-27.5 205.0239,-27.5 205.0239,-9.5 151.2261,-9.5"/>
<text text-anchor="middle" x="178.125" y="-15.5" font-family="Helvetica,sans-Serif" font-size="10.00" fill="#000000">lcd_print</text>
</a>
</g>
</g>
<!-- Node6&#45;&gt;Node18 -->
<g id="edge13" class="edge">
<title>Node6&#45;&gt;Node18</title>
<path fill="none" stroke="#191970" d="M48.7046,-83.2072C62.3075,-70.8525 88.0763,-49.114 113.7041,-36.5 122.2736,-32.2821 131.9865,-28.9164 141.2235,-26.2908"/>
<polygon fill="#191970" stroke="#191970" points="142.2007,-29.6529 150.9831,-23.7268 140.422,-22.8826 142.2007,-29.6529"/>
</g>
<!-- Node8 -->
<g id="node3" class="node">
<title>Node8</title>
<g id="a_node3"><a xlink:href="vlib_8h.html#aa1986c48c027cf691df679c7a4968126" target="_top" xlink:title="converts a int to string. ">
<polygon fill="none" stroke="#000000" points="404.2007,-166.5 404.2007,-184.5 436.3237,-184.5 436.3237,-166.5 404.2007,-166.5"/>
<text text-anchor="middle" x="420.2622" y="-172.5" font-family="Helvetica,sans-Serif" font-size="10.00" fill="#000000">itoa</text>
</a>
</g>
</g>
<!-- Node7&#45;&gt;Node8 -->
<g id="edge2" class="edge">
<title>Node7&#45;&gt;Node8</title>
<path fill="none" stroke="#191970" d="M242.6952,-168.9C292.2107,-170.7405 357.9794,-173.185 393.9665,-174.5226"/>
<polygon fill="#191970" stroke="#191970" points="394.0047,-178.0264 404.1279,-174.9003 394.2648,-171.0312 394.0047,-178.0264"/>
</g>
<!-- Node10 -->
<g id="node5" class="node">
<title>Node10</title>
<g id="a_node5"><a xlink:href="vlib_8h.html#a1c3b16ce8c66ade17aca0f267027b855" target="_top" xlink:title="converts a float to string. ">
<polygon fill="none" stroke="#000000" points="305.5063,-129.5 305.5063,-147.5 338.186,-147.5 338.186,-129.5 305.5063,-129.5"/>
<text text-anchor="middle" x="321.8462" y="-135.5" font-family="Helvetica,sans-Serif" font-size="10.00" fill="#000000">ftoa</text>
</a>
</g>
</g>
<!-- Node7&#45;&gt;Node10 -->
<g id="edge4" class="edge">
<title>Node7&#45;&gt;Node10</title>
<path fill="none" stroke="#191970" d="M224.3904,-157.4865C247.901,-152.9061 275.6161,-147.5066 295.4682,-143.639"/>
<polygon fill="#191970" stroke="#191970" points="296.1937,-147.0636 305.3398,-141.7158 294.855,-140.1927 296.1937,-147.0636"/>
</g>
<!-- Node9 -->
<g id="node4" class="node">
<title>Node9</title>
<g id="a_node4"><a xlink:href="vlib_8c.html#aad7fea725cb4b198ace1aa3df5051244" target="_top" xlink:title="reverses a string &#39;str&#39; of length &#39;len&#39; ">
<polygon fill="none" stroke="#000000" points="475.3779,-147.5 475.3779,-165.5 524.7227,-165.5 524.7227,-147.5 475.3779,-147.5"/>
<text text-anchor="middle" x="500.0503" y="-153.5" font-family="Helvetica,sans-Serif" font-size="10.00" fill="#000000">reverse</text>
</a>
</g>
</g>
<!-- Node8&#45;&gt;Node9 -->
<g id="edge3" class="edge">
<title>Node8&#45;&gt;Node9</title>
<path fill="none" stroke="#191970" d="M436.4085,-171.6551C444.7416,-169.6707 455.248,-167.1688 465.3097,-164.7728"/>
<polygon fill="#191970" stroke="#191970" points="466.209,-168.1566 475.1262,-162.4352 464.5874,-161.347 466.209,-168.1566"/>
</g>
<!-- Node11 -->
<g id="node6" class="node">
<title>Node11</title>
<g id="a_node6"><a xlink:href="vlib_8c.html#aa1986c48c027cf691df679c7a4968126" target="_top" xlink:title="converts a int to string. ">
<polygon fill="none" stroke="#000000" points="404.2007,-129.5 404.2007,-147.5 436.3237,-147.5 436.3237,-129.5 404.2007,-129.5"/>
<text text-anchor="middle" x="420.2622" y="-135.5" font-family="Helvetica,sans-Serif" font-size="10.00" fill="#000000">itoa</text>
</a>
</g>
</g>
<!-- Node10&#45;&gt;Node11 -->
<g id="edge5" class="edge">
<title>Node10&#45;&gt;Node11</title>
<path fill="none" stroke="#191970" d="M338.5411,-138.5C353.7098,-138.5 376.339,-138.5 393.9413,-138.5"/>
<polygon fill="#191970" stroke="#191970" points="394.14,-142.0001 404.1399,-138.5 394.1399,-135.0001 394.14,-142.0001"/>
</g>
<!-- Node11&#45;&gt;Node9 -->
<g id="edge6" class="edge">
<title>Node11&#45;&gt;Node9</title>
<path fill="none" stroke="#191970" d="M436.4085,-142.1426C444.7416,-144.0225 455.248,-146.3927 465.3097,-148.6626"/>
<polygon fill="#191970" stroke="#191970" points="464.6011,-152.0906 475.1262,-150.8772 466.1416,-145.2622 464.6011,-152.0906"/>
</g>
<!-- Node15 -->
<g id="node10" class="node">
<title>Node15</title>
<g id="a_node10"><a xlink:href="lcd_8c.html#a07f04b524b5ded617d5f193db05ba0ad" target="_top" xlink:title="Asserts the lcd is initialized Works by checking is the File *lcd_port is the default NULL value and ...">
<polygon fill="none" stroke="#000000" points="291.0581,-37.5 291.0581,-55.5 352.6343,-55.5 352.6343,-37.5 291.0581,-37.5"/>
<text text-anchor="middle" x="321.8462" y="-43.5" font-family="Helvetica,sans-Serif" font-size="10.00" fill="#000000">lcd_assert</text>
</a>
</g>
</g>
<!-- Node14&#45;&gt;Node15 -->
<g id="edge10" class="edge">
<title>Node14&#45;&gt;Node15</title>
<path fill="none" stroke="#191970" d="M242.0002,-51.5001C255.1046,-50.6794 268.5677,-49.8364 280.6172,-49.0818"/>
<polygon fill="#191970" stroke="#191970" points="281.036,-52.5625 290.7977,-48.4443 280.5985,-45.5762 281.036,-52.5625"/>
</g>
<!-- Node17 -->
<g id="node12" class="node">
<title>Node17</title>
<g id="a_node12"><a xlink:href="_a_p_i_8h.html#a040d36e5c81594fd05d5042f3e540aed" target="_top" xlink:title="lcdReadButtons">
<polygon fill="none" stroke="#000000" points="278.5459,-74.5 278.5459,-92.5 365.1465,-92.5 365.1465,-74.5 278.5459,-74.5"/>
<text text-anchor="middle" x="321.8462" y="-80.5" font-family="Helvetica,sans-Serif" font-size="10.00" fill="#000000">lcdReadButtons</text>
</a>
</g>
</g>
<!-- Node14&#45;&gt;Node17 -->
<g id="edge12" class="edge">
<title>Node14&#45;&gt;Node17</title>
<path fill="none" stroke="#191970" d="M224.3904,-64.5135C238.2571,-67.215 253.5865,-70.2015 267.9025,-72.9906"/>
<polygon fill="#191970" stroke="#191970" points="267.6275,-76.5027 278.1122,-74.9797 268.9661,-69.6319 267.6275,-76.5027"/>
</g>
<!-- Node16 -->
<g id="node11" class="node">
<title>Node16</title>
<g id="a_node11"><a xlink:href="_a_p_i_8h.html#a403c82418e475fa4a8273719e6a7f3e6" target="_top" xlink:title="printf">
<polygon fill="none" stroke="#000000" points="401.1465,-37.5 401.1465,-55.5 439.3779,-55.5 439.3779,-37.5 401.1465,-37.5"/>
<text text-anchor="middle" x="420.2622" y="-43.5" font-family="Helvetica,sans-Serif" font-size="10.00" fill="#000000">printf</text>
</a>
</g>
</g>
<!-- Node15&#45;&gt;Node16 -->
<g id="edge11" class="edge">
<title>Node15&#45;&gt;Node16</title>
<path fill="none" stroke="#191970" d="M352.7156,-46.5C364.9236,-46.5 378.8888,-46.5 390.9406,-46.5"/>
<polygon fill="#191970" stroke="#191970" points="390.9468,-50.0001 400.9468,-46.5 390.9468,-43.0001 390.9468,-50.0001"/>
</g>
<!-- Node18&#45;&gt;Node15 -->
<g id="edge14" class="edge">
<title>Node18&#45;&gt;Node15</title>
<path fill="none" stroke="#191970" d="M205.1579,-23.7666C226.5027,-27.925 256.633,-33.7951 280.9296,-38.5286"/>
<polygon fill="#191970" stroke="#191970" points="280.4579,-42.0024 290.9427,-40.4793 281.7965,-35.1316 280.4579,-42.0024"/>
</g>
<!-- Node19 -->
<g id="node14" class="node">
<title>Node19</title>
<g id="a_node14"><a xlink:href="_a_p_i_8h.html#aae51423c0e108729bbb4d26a1b265eb3" target="_top" xlink:title="lcdSetText">
<polygon fill="none" stroke="#000000" points="290.7798,-.5 290.7798,-18.5 352.9126,-18.5 352.9126,-.5 290.7798,-.5"/>
<text text-anchor="middle" x="321.8462" y="-6.5" font-family="Helvetica,sans-Serif" font-size="10.00" fill="#000000">lcdSetText</text>
</a>
</g>
</g>
<!-- Node18&#45;&gt;Node19 -->
<g id="edge15" class="edge">
<title>Node18&#45;&gt;Node19</title>
<path fill="none" stroke="#191970" d="M205.1579,-16.8072C226.4315,-15.475 256.4322,-13.5963 280.6865,-12.0775"/>
<polygon fill="#191970" stroke="#191970" points="280.9254,-15.5695 290.6871,-11.4512 280.4879,-8.5831 280.9254,-15.5695"/>
</g>
</g>
</svg>
