<?xml version="1.0" encoding="UTF-8" standalone="no"?>
<!DOCTYPE svg PUBLIC "-//W3C//DTD SVG 1.1//EN"
 "http://www.w3.org/Graphics/SVG/1.1/DTD/svg11.dtd">
<!-- Generated by graphviz version 2.40.1 (20161225.0304)
 -->
<!-- Title: init_menu_int Pages: 1 -->
<svg width="474pt" height="157pt"
 viewBox="0.00 0.00 474.36 157.00" xmlns="http://www.w3.org/2000/svg" xmlns:xlink="http://www.w3.org/1999/xlink">
<g id="graph0" class="graph" transform="scale(1 1) rotate(0) translate(4 153)">
<title>init_menu_int</title>
<!-- Node31 -->
<g id="node1" class="node">
<title>Node31</title>
<polygon fill="#bfbfbf" stroke="#000000" points="0,-37.5 0,-55.5 75.4824,-55.5 75.4824,-37.5 0,-37.5"/>
<text text-anchor="middle" x="37.7412" y="-43.5" font-family="Helvetica,sans-Serif" font-size="10.00" fill="#000000">init_menu_int</text>
</g>
<!-- Node32 -->
<g id="node2" class="node">
<title>Node32</title>
<g id="a_node2"><a xlink:href="menu_8c.html#aff4fd27ff7707295d91c67fa52a6b021" target="_top" xlink:title="Static function that handles creation of menu. ">
<polygon fill="none" stroke="#000000" points="111.4824,-74.5 111.4824,-92.5 185.8516,-92.5 185.8516,-74.5 111.4824,-74.5"/>
<text text-anchor="middle" x="148.667" y="-80.5" font-family="Helvetica,sans-Serif" font-size="10.00" fill="#000000">create_menu</text>
</a>
</g>
</g>
<!-- Node31&#45;&gt;Node32 -->
<g id="edge1" class="edge">
<title>Node31&#45;&gt;Node32</title>
<path fill="none" stroke="#191970" d="M64.8767,-55.5512C78.9774,-60.2546 96.4172,-66.0718 111.729,-71.1791"/>
<polygon fill="#191970" stroke="#191970" points="110.8335,-74.5699 121.4272,-74.414 113.0485,-67.9296 110.8335,-74.5699"/>
</g>
<!-- Node39 -->
<g id="node9" class="node">
<title>Node39</title>
<g id="a_node9"><a xlink:href="vmath_8h.html#af082905f7eac6d03e92015146bbc1925" target="_top" xlink:title="the min of two values ">
<polygon fill="none" stroke="#000000" points="131.2212,-37.5 131.2212,-55.5 166.1128,-55.5 166.1128,-37.5 131.2212,-37.5"/>
<text text-anchor="middle" x="148.667" y="-43.5" font-family="Helvetica,sans-Serif" font-size="10.00" fill="#000000">max</text>
</a>
</g>
</g>
<!-- Node31&#45;&gt;Node39 -->
<g id="edge8" class="edge">
<title>Node31&#45;&gt;Node39</title>
<path fill="none" stroke="#191970" d="M75.6053,-46.5C90.4624,-46.5 107.199,-46.5 120.9013,-46.5"/>
<polygon fill="#191970" stroke="#191970" points="121.146,-50.0001 131.1459,-46.5 121.1459,-43.0001 121.146,-50.0001"/>
</g>
<!-- Node40 -->
<g id="node10" class="node">
<title>Node40</title>
<g id="a_node10"><a xlink:href="vmath_8h.html#abd8bbcfabb3ddef2ccaafb9928a37b95" target="_top" xlink:title="the min of two values ">
<polygon fill="none" stroke="#000000" points="132.6104,-.5 132.6104,-18.5 164.7236,-18.5 164.7236,-.5 132.6104,-.5"/>
<text text-anchor="middle" x="148.667" y="-6.5" font-family="Helvetica,sans-Serif" font-size="10.00" fill="#000000">min</text>
</a>
</g>
</g>
<!-- Node31&#45;&gt;Node40 -->
<g id="edge9" class="edge">
<title>Node31&#45;&gt;Node40</title>
<path fill="none" stroke="#191970" d="M64.8767,-37.4488C82.5702,-31.547 105.5213,-23.8915 122.9282,-18.0853"/>
<polygon fill="#191970" stroke="#191970" points="124.0762,-21.3921 132.4549,-14.9077 121.8612,-14.7517 124.0762,-21.3921"/>
</g>
<!-- Node33 -->
<g id="node3" class="node">
<title>Node33</title>
<g id="a_node3"><a xlink:href="log_8h.html#a8e5bb8a2a372f5b066ff7af7044584c1" target="_top" xlink:title="prints a error message and displays on lcd. ">
<polygon fill="none" stroke="#000000" points="221.8516,-74.5 221.8516,-92.5 258.9648,-92.5 258.9648,-74.5 221.8516,-74.5"/>
<text text-anchor="middle" x="240.4082" y="-80.5" font-family="Helvetica,sans-Serif" font-size="10.00" fill="#000000">error</text>
</a>
</g>
</g>
<!-- Node32&#45;&gt;Node33 -->
<g id="edge2" class="edge">
<title>Node32&#45;&gt;Node33</title>
<path fill="none" stroke="#191970" d="M185.9817,-83.5C194.5359,-83.5 203.5016,-83.5 211.6314,-83.5"/>
<polygon fill="#191970" stroke="#191970" points="211.7325,-87.0001 221.7324,-83.5 211.7324,-80.0001 211.7325,-87.0001"/>
</g>
<!-- Node34 -->
<g id="node4" class="node">
<title>Node34</title>
<g id="a_node4"><a xlink:href="log_8c.html#afff22aff6749311a684a559cac3ac8bd" target="_top" xlink:title="prints a log info message to the lcd ">
<polygon fill="none" stroke="#000000" points="294.9648,-74.5 294.9648,-92.5 345.9941,-92.5 345.9941,-74.5 294.9648,-74.5"/>
<text text-anchor="middle" x="320.4795" y="-80.5" font-family="Helvetica,sans-Serif" font-size="10.00" fill="#000000">log_info</text>
</a>
</g>
</g>
<!-- Node33&#45;&gt;Node34 -->
<g id="edge3" class="edge">
<title>Node33&#45;&gt;Node34</title>
<path fill="none" stroke="#191970" d="M258.9794,-83.5C266.6167,-83.5 275.7335,-83.5 284.5782,-83.5"/>
<polygon fill="#191970" stroke="#191970" points="284.7313,-87.0001 294.7313,-83.5 284.7312,-80.0001 284.7313,-87.0001"/>
</g>
<!-- Node35 -->
<g id="node5" class="node">
<title>Node35</title>
<g id="a_node5"><a xlink:href="_a_p_i_8h.html#a403c82418e475fa4a8273719e6a7f3e6" target="_top" xlink:title="Prints the formatted string to the debug stream (the PC terminal). ">
<polygon fill="none" stroke="#000000" points="405.063,-130.5 405.063,-148.5 443.2944,-148.5 443.2944,-130.5 405.063,-130.5"/>
<text text-anchor="middle" x="424.1787" y="-136.5" font-family="Helvetica,sans-Serif" font-size="10.00" fill="#000000">printf</text>
</a>
</g>
</g>
<!-- Node34&#45;&gt;Node35 -->
<g id="edge4" class="edge">
<title>Node34&#45;&gt;Node35</title>
<path fill="none" stroke="#191970" d="M333.8209,-92.5526C346.0575,-100.6578 364.8322,-112.6016 381.9941,-121.5 386.3592,-123.7632 391.0728,-125.9819 395.7129,-128.0459"/>
<polygon fill="#191970" stroke="#191970" points="394.429,-131.3035 404.9989,-132.0298 397.189,-124.8706 394.429,-131.3035"/>
</g>
<!-- Node36 -->
<g id="node6" class="node">
<title>Node36</title>
<g id="a_node6"><a xlink:href="_a_p_i_8h.html#aab53a247d88151a6623c20fa1ea940b0" target="_top" xlink:title="Sets the specified LCD backlight to be on or off. ">
<polygon fill="none" stroke="#000000" points="381.9941,-93.5 381.9941,-111.5 466.3633,-111.5 466.3633,-93.5 381.9941,-93.5"/>
<text text-anchor="middle" x="424.1787" y="-99.5" font-family="Helvetica,sans-Serif" font-size="10.00" fill="#000000">lcdSetBacklight</text>
</a>
</g>
</g>
<!-- Node34&#45;&gt;Node36 -->
<g id="edge5" class="edge">
<title>Node34&#45;&gt;Node36</title>
<path fill="none" stroke="#191970" d="M346.113,-88.1966C353.9569,-89.6338 362.8871,-91.27 371.8368,-92.9098"/>
<polygon fill="#191970" stroke="#191970" points="371.4257,-96.3927 381.8928,-94.7523 372.6873,-89.5073 371.4257,-96.3927"/>
</g>
<!-- Node37 -->
<g id="node7" class="node">
<title>Node37</title>
<g id="a_node7"><a xlink:href="_a_p_i_8h.html#a5fa1d119fe3e836b5519f97eae7a1272" target="_top" xlink:title="Clears the LCD screen on the specified port. ">
<polygon fill="none" stroke="#000000" points="397.8389,-56.5 397.8389,-74.5 450.5186,-74.5 450.5186,-56.5 397.8389,-56.5"/>
<text text-anchor="middle" x="424.1787" y="-62.5" font-family="Helvetica,sans-Serif" font-size="10.00" fill="#000000">lcdClear</text>
</a>
</g>
</g>
<!-- Node34&#45;&gt;Node37 -->
<g id="edge6" class="edge">
<title>Node34&#45;&gt;Node37</title>
<path fill="none" stroke="#191970" d="M346.113,-79.0506C358.6351,-76.877 373.9257,-74.2229 387.6446,-71.8415"/>
<polygon fill="#191970" stroke="#191970" points="388.5033,-75.2449 397.7574,-70.0862 387.3061,-68.348 388.5033,-75.2449"/>
</g>
<!-- Node38 -->
<g id="node8" class="node">
<title>Node38</title>
<g id="a_node8"><a xlink:href="_a_p_i_8h.html#a6cfad8271c6a566a2f51ca318f819a80" target="_top" xlink:title="Prints the formatted string to the attached LCD. ">
<polygon fill="none" stroke="#000000" points="399.5063,-19.5 399.5063,-37.5 448.8511,-37.5 448.8511,-19.5 399.5063,-19.5"/>
<text text-anchor="middle" x="424.1787" y="-25.5" font-family="Helvetica,sans-Serif" font-size="10.00" fill="#000000">lcdPrint</text>
</a>
</g>
</g>
<!-- Node34&#45;&gt;Node38 -->
<g id="edge7" class="edge">
<title>Node34&#45;&gt;Node38</title>
<path fill="none" stroke="#191970" d="M334.9013,-74.4724C347.215,-66.9076 365.4993,-56.0107 381.9941,-47.5 385.7684,-45.5526 389.7832,-43.5991 393.7781,-41.7251"/>
<polygon fill="#191970" stroke="#191970" points="395.301,-44.8774 402.941,-37.537 392.391,-38.5109 395.301,-44.8774"/>
</g>
</g>
</svg>
