<?xml version="1.0" encoding="UTF-8" standalone="no"?>
<!DOCTYPE svg PUBLIC "-//W3C//DTD SVG 1.1//EN"
 "http://www.w3.org/Graphics/SVG/1.1/DTD/svg11.dtd">
<!-- Generated by graphviz version 2.40.1 (20161225.0304)
 -->
<!-- Title: init_menu_float Pages: 1 -->
<svg width="483pt" height="101pt"
 viewBox="0.00 0.00 482.70 101.00" xmlns="http://www.w3.org/2000/svg" xmlns:xlink="http://www.w3.org/1999/xlink">
<g id="graph0" class="graph" transform="scale(1 1) rotate(0) translate(4 97)">
<title>init_menu_float</title>
<!-- Node37 -->
<g id="node1" class="node">
<title>Node37</title>
<polygon fill="#bfbfbf" stroke="#000000" points="0,-37.5 0,-55.5 83.8223,-55.5 83.8223,-37.5 0,-37.5"/>
<text text-anchor="middle" x="41.9111" y="-43.5" font-family="Helvetica,sans-Serif" font-size="10.00" fill="#000000">init_menu_float</text>
</g>
<!-- Node38 -->
<g id="node2" class="node">
<title>Node38</title>
<g id="a_node2"><a xlink:href="menu_8c.html#adcee778eac0edb821427d32949106dc5" target="_top" xlink:title="create_menu">
<polygon fill="none" stroke="#000000" points="119.8223,-37.5 119.8223,-55.5 194.1914,-55.5 194.1914,-37.5 119.8223,-37.5"/>
<text text-anchor="middle" x="157.0068" y="-43.5" font-family="Helvetica,sans-Serif" font-size="10.00" fill="#000000">create_menu</text>
</a>
</g>
</g>
<!-- Node37&#45;&gt;Node38 -->
<g id="edge1" class="edge">
<title>Node37&#45;&gt;Node38</title>
<path fill="none" stroke="#191970" d="M84.115,-46.5C92.4163,-46.5 101.1771,-46.5 109.635,-46.5"/>
<polygon fill="#191970" stroke="#191970" points="109.7504,-50.0001 119.7503,-46.5 109.7503,-43.0001 109.7504,-50.0001"/>
</g>
<!-- Node39 -->
<g id="node3" class="node">
<title>Node39</title>
<g id="a_node3"><a xlink:href="log_8h.html#a8e5bb8a2a372f5b066ff7af7044584c1" target="_top" xlink:title="prints a error message and displays on lcd. Only will print and display if log_level is greater than ...">
<polygon fill="none" stroke="#000000" points="230.1914,-37.5 230.1914,-55.5 267.3047,-55.5 267.3047,-37.5 230.1914,-37.5"/>
<text text-anchor="middle" x="248.748" y="-43.5" font-family="Helvetica,sans-Serif" font-size="10.00" fill="#000000">error</text>
</a>
</g>
</g>
<!-- Node38&#45;&gt;Node39 -->
<g id="edge2" class="edge">
<title>Node38&#45;&gt;Node39</title>
<path fill="none" stroke="#191970" d="M194.3215,-46.5C202.8757,-46.5 211.8415,-46.5 219.9713,-46.5"/>
<polygon fill="#191970" stroke="#191970" points="220.0723,-50.0001 230.0723,-46.5 220.0722,-43.0001 220.0723,-50.0001"/>
</g>
<!-- Node40 -->
<g id="node4" class="node">
<title>Node40</title>
<g id="a_node4"><a xlink:href="log_8c.html#afff22aff6749311a684a559cac3ac8bd" target="_top" xlink:title="log_info">
<polygon fill="none" stroke="#000000" points="303.3047,-37.5 303.3047,-55.5 354.334,-55.5 354.334,-37.5 303.3047,-37.5"/>
<text text-anchor="middle" x="328.8193" y="-43.5" font-family="Helvetica,sans-Serif" font-size="10.00" fill="#000000">log_info</text>
</a>
</g>
</g>
<!-- Node39&#45;&gt;Node40 -->
<g id="edge3" class="edge">
<title>Node39&#45;&gt;Node40</title>
<path fill="none" stroke="#191970" d="M267.3193,-46.5C274.9565,-46.5 284.0733,-46.5 292.9181,-46.5"/>
<polygon fill="#191970" stroke="#191970" points="293.0712,-50.0001 303.0711,-46.5 293.0711,-43.0001 293.0712,-50.0001"/>
</g>
<!-- Node41 -->
<g id="node5" class="node">
<title>Node41</title>
<g id="a_node5"><a xlink:href="_a_p_i_8h.html#aa53f19724bcf9f7bf1b4468b5982553b" target="_top" xlink:title="lcdClear">
<polygon fill="none" stroke="#000000" points="406.1787,-74.5 406.1787,-92.5 458.8584,-92.5 458.8584,-74.5 406.1787,-74.5"/>
<text text-anchor="middle" x="432.5186" y="-80.5" font-family="Helvetica,sans-Serif" font-size="10.00" fill="#000000">lcdClear</text>
</a>
</g>
</g>
<!-- Node40&#45;&gt;Node41 -->
<g id="edge4" class="edge">
<title>Node40&#45;&gt;Node41</title>
<path fill="none" stroke="#191970" d="M354.187,-55.5512C367.2435,-60.2098 383.3625,-65.9611 397.5775,-71.033"/>
<polygon fill="#191970" stroke="#191970" points="396.4587,-74.3499 407.0534,-74.414 398.8111,-67.757 396.4587,-74.3499"/>
</g>
<!-- Node42 -->
<g id="node6" class="node">
<title>Node42</title>
<g id="a_node6"><a xlink:href="_a_p_i_8h.html#aeafd247b27813122cfee95e0cecf188b" target="_top" xlink:title="lcdSetBacklight">
<polygon fill="none" stroke="#000000" points="390.334,-37.5 390.334,-55.5 474.7031,-55.5 474.7031,-37.5 390.334,-37.5"/>
<text text-anchor="middle" x="432.5186" y="-43.5" font-family="Helvetica,sans-Serif" font-size="10.00" fill="#000000">lcdSetBacklight</text>
</a>
</g>
</g>
<!-- Node40&#45;&gt;Node42 -->
<g id="edge5" class="edge">
<title>Node40&#45;&gt;Node42</title>
<path fill="none" stroke="#191970" d="M354.4529,-46.5C362.2967,-46.5 371.2269,-46.5 380.1766,-46.5"/>
<polygon fill="#191970" stroke="#191970" points="380.2327,-50.0001 390.2326,-46.5 380.2326,-43.0001 380.2327,-50.0001"/>
</g>
<!-- Node43 -->
<g id="node7" class="node">
<title>Node43</title>
<g id="a_node7"><a xlink:href="_a_p_i_8h.html#a403c82418e475fa4a8273719e6a7f3e6" target="_top" xlink:title="printf">
<polygon fill="none" stroke="#000000" points="413.4028,-.5 413.4028,-18.5 451.6343,-18.5 451.6343,-.5 413.4028,-.5"/>
<text text-anchor="middle" x="432.5186" y="-6.5" font-family="Helvetica,sans-Serif" font-size="10.00" fill="#000000">printf</text>
</a>
</g>
</g>
<!-- Node40&#45;&gt;Node43 -->
<g id="edge6" class="edge">
<title>Node40&#45;&gt;Node43</title>
<path fill="none" stroke="#191970" d="M354.187,-37.4488C369.1398,-32.1136 388.1092,-25.3453 403.6353,-19.8056"/>
<polygon fill="#191970" stroke="#191970" points="405.0219,-23.027 413.2641,-16.37 402.6695,-16.4341 405.0219,-23.027"/>
</g>
</g>
</svg>
