<?xml version="1.0" encoding="UTF-8" standalone="no"?>
<!DOCTYPE svg PUBLIC "-//W3C//DTD SVG 1.1//EN"
 "http://www.w3.org/Graphics/SVG/1.1/DTD/svg11.dtd">
<!-- Generated by graphviz version 2.40.1 (20161225.0304)
 -->
<!-- Title: display_menu Pages: 1 -->
<!--zoomable 130 -->
<svg id="main" version="1.1" xmlns="http://www.w3.org/2000/svg" xmlns:xlink="http://www.w3.org/1999/xlink" xml:space="preserve" onload="init(evt)">
<style type="text/css"><![CDATA[
.edge:hover path { stroke: red; }
.edge:hover polygon { stroke: red; fill: red; }
]]></style>
<script type="text/javascript"><![CDATA[
var edges = document.getElementsByTagName('g');
if (edges && edges.length) {
  for (var i=0;i<edges.length;i++) {
    if (edges[i].id.substr(0,4)=='edge') {
      edges[i].setAttribute('class','edge');
    }
  }
}
]]></script>
        <defs>
                <circle id="rim" cx="0" cy="0" r="7"/>
                <circle id="rim2" cx="0" cy="0" r="3.5"/>
                <g id="zoomPlus">
                        <use xlink:href="#rim" fill="#404040">
                                <set attributeName="fill" to="#808080" begin="zoomplus.mouseover" end="zoomplus.mouseout"/>
                        </use>
                        <path d="M-4,0h8M0,-4v8" fill="none" stroke="white" stroke-width="1.5" pointer-events="none"/>
                </g>
                <g id="zoomMin">
                        <use xlink:href="#rim" fill="#404040">
                                <set attributeName="fill" to="#808080" begin="zoomminus.mouseover" end="zoomminus.mouseout"/>
                        </use>
                        <path d="M-4,0h8" fill="none" stroke="white" stroke-width="1.5" pointer-events="none"/>
                </g>
                <g id="dirArrow">
                        <path fill="none" stroke="white" stroke-width="1.5" d="M0,-3.0v7 M-2.5,-0.5L0,-3.0L2.5,-0.5"/>
                </g>
               <g id="resetDef">
                       <use xlink:href="#rim2" fill="#404040">
                               <set attributeName="fill" to="#808080" begin="reset.mouseover" end="reset.mouseout"/>
                       </use>
               </g>
        </defs>

<script type="text/javascript">
var viewWidth = 502;
var viewHeight = 130;
var sectionId = 'dynsection-4';
</script>
<script xlink:href="svgpan.js"/>
<svg id="graph" class="graph">
<g id="viewport">
<title>display_menu</title>
<!-- Node14 -->
<g id="node1" class="node">
<title>Node14</title>
<polygon fill="#bfbfbf" stroke="#000000" points="0,-37.5 0,-55.5 77.7041,-55.5 77.7041,-37.5 0,-37.5"/>
<text text-anchor="middle" x="38.8521" y="-43.5" font-family="Helvetica,sans-Serif" font-size="10.00" fill="#000000">display_menu</text>
</g>
<!-- Node15 -->
<g id="node2" class="node">
<title>Node15</title>
<g id="a_node2"><a xlink:href="menu_8c.html#a0fb55c1213b23963d509b974d1254567" target="_top" xlink:title="calculate_current_display">
<polygon fill="none" stroke="#000000" points="113.7041,-74.5 113.7041,-92.5 242.5459,-92.5 242.5459,-74.5 113.7041,-74.5"/>
<text text-anchor="middle" x="178.125" y="-80.5" font-family="Helvetica,sans-Serif" font-size="10.00" fill="#000000">calculate_current_display</text>
</a>
</g>
</g>
<!-- Node14&#45;&gt;Node15 -->
<g id="edge1" class="edge">
<title>Node14&#45;&gt;Node15</title>
<path fill="none" stroke="#191970" d="M72.922,-55.5512C91.3849,-60.4562 114.4073,-66.5724 134.2039,-71.8317"/>
<polygon fill="#191970" stroke="#191970" points="133.3606,-75.229 143.924,-74.414 135.158,-68.4637 133.3606,-75.229"/>
</g>
<!-- Node20 -->
<g id="node7" class="node">
<title>Node20</title>
<g id="a_node7"><a xlink:href="lcd_8h.html#ac7b3225ccc82fcbe067ba9da934f010d" target="_top" xlink:title="Returns the pressed buttons. ">
<polygon fill="none" stroke="#000000" points="114.251,-37.5 114.251,-55.5 241.999,-55.5 241.999,-37.5 114.251,-37.5"/>
<text text-anchor="middle" x="178.125" y="-43.5" font-family="Helvetica,sans-Serif" font-size="10.00" fill="#000000">lcd_get_pressed_buttons</text>
</a>
</g>
</g>
<!-- Node14&#45;&gt;Node20 -->
<g id="edge7" class="edge">
<title>Node14&#45;&gt;Node20</title>
<path fill="none" stroke="#191970" d="M78.018,-46.5C86.2018,-46.5 95.0851,-46.5 104.0669,-46.5"/>
<polygon fill="#191970" stroke="#191970" points="104.2175,-50.0001 114.2174,-46.5 104.2174,-43.0001 104.2175,-50.0001"/>
</g>
<!-- Node22 -->
<g id="node9" class="node">
<title>Node22</title>
<g id="a_node9"><a xlink:href="lcd_8h.html#adabd3f7cdda45119604b488caf22bba8" target="_top" xlink:title="prints a string to a line on the lcd ">
<polygon fill="none" stroke="#000000" points="151.2261,-.5 151.2261,-18.5 205.0239,-18.5 205.0239,-.5 151.2261,-.5"/>
<text text-anchor="middle" x="178.125" y="-6.5" font-family="Helvetica,sans-Serif" font-size="10.00" fill="#000000">lcd_print</text>
</a>
</g>
</g>
<!-- Node14&#45;&gt;Node22 -->
<g id="edge9" class="edge">
<title>Node14&#45;&gt;Node22</title>
<path fill="none" stroke="#191970" d="M72.922,-37.4488C93.5454,-31.9699 119.8578,-24.9796 141.0086,-19.3605"/>
<polygon fill="#191970" stroke="#191970" points="142.1634,-22.6752 150.9295,-16.7249 140.3661,-15.9099 142.1634,-22.6752"/>
</g>
<!-- Node16 -->
<g id="node3" class="node">
<title>Node16</title>
<g id="a_node3"><a xlink:href="vlib_8h.html#a1c3b16ce8c66ade17aca0f267027b855" target="_top" xlink:title="converts a float to string. ">
<polygon fill="none" stroke="#000000" points="292.9941,-103.5 292.9941,-121.5 325.6738,-121.5 325.6738,-103.5 292.9941,-103.5"/>
<text text-anchor="middle" x="309.334" y="-109.5" font-family="Helvetica,sans-Serif" font-size="10.00" fill="#000000">ftoa</text>
</a>
</g>
</g>
<!-- Node15&#45;&gt;Node16 -->
<g id="edge2" class="edge">
<title>Node15&#45;&gt;Node16</title>
<path fill="none" stroke="#191970" d="M218.9211,-92.5168C239.7992,-97.1313 264.6085,-102.6147 282.9527,-106.6692"/>
<polygon fill="#191970" stroke="#191970" points="282.4081,-110.1332 292.9278,-108.8739 283.9188,-103.2982 282.4081,-110.1332"/>
</g>
<!-- Node19 -->
<g id="node6" class="node">
<title>Node19</title>
<g id="a_node6"><a xlink:href="vlib_8h.html#aa1986c48c027cf691df679c7a4968126" target="_top" xlink:title="converts a int to string. ">
<polygon fill="none" stroke="#000000" points="376.1221,-65.5 376.1221,-83.5 408.2451,-83.5 408.2451,-65.5 376.1221,-65.5"/>
<text text-anchor="middle" x="392.1836" y="-71.5" font-family="Helvetica,sans-Serif" font-size="10.00" fill="#000000">itoa</text>
</a>
</g>
</g>
<!-- Node15&#45;&gt;Node19 -->
<g id="edge5" class="edge">
<title>Node15&#45;&gt;Node19</title>
<path fill="none" stroke="#191970" d="M242.6399,-80.7875C283.8636,-79.0543 335.1349,-76.8986 365.6756,-75.6145"/>
<polygon fill="#191970" stroke="#191970" points="366.0884,-79.1003 375.9325,-75.1833 365.7942,-72.1065 366.0884,-79.1003"/>
</g>
<!-- Node17 -->
<g id="node4" class="node">
<title>Node17</title>
<g id="a_node4"><a xlink:href="vlib_8c.html#aa1986c48c027cf691df679c7a4968126" target="_top" xlink:title="converts a int to string. ">
<polygon fill="none" stroke="#000000" points="376.1221,-102.5 376.1221,-120.5 408.2451,-120.5 408.2451,-102.5 376.1221,-102.5"/>
<text text-anchor="middle" x="392.1836" y="-108.5" font-family="Helvetica,sans-Serif" font-size="10.00" fill="#000000">itoa</text>
</a>
</g>
</g>
<!-- Node16&#45;&gt;Node17 -->
<g id="edge3" class="edge">
<title>Node16&#45;&gt;Node17</title>
<path fill="none" stroke="#191970" d="M325.7024,-112.3024C337.0498,-112.1655 352.4152,-111.98 365.5155,-111.8219"/>
<polygon fill="#191970" stroke="#191970" points="365.8922,-115.3177 375.8492,-111.6972 365.8076,-108.3182 365.8922,-115.3177"/>
</g>
<!-- Node18 -->
<g id="node5" class="node">
<title>Node18</title>
<g id="a_node5"><a xlink:href="vlib_8c.html#aad7fea725cb4b198ace1aa3df5051244" target="_top" xlink:title="reverses a string &#39;str&#39; of length &#39;len&#39; ">
<polygon fill="none" stroke="#000000" points="444.2451,-83.5 444.2451,-101.5 493.5898,-101.5 493.5898,-83.5 444.2451,-83.5"/>
<text text-anchor="middle" x="468.9175" y="-89.5" font-family="Helvetica,sans-Serif" font-size="10.00" fill="#000000">reverse</text>
</a>
</g>
</g>
<!-- Node17&#45;&gt;Node18 -->
<g id="edge4" class="edge">
<title>Node17&#45;&gt;Node18</title>
<path fill="none" stroke="#191970" d="M408.4569,-107.4706C416.0003,-105.6028 425.2723,-103.3069 434.269,-101.0793"/>
<polygon fill="#191970" stroke="#191970" points="435.3372,-104.4206 444.2028,-98.6196 433.6547,-97.6258 435.3372,-104.4206"/>
</g>
<!-- Node19&#45;&gt;Node18 -->
<g id="edge6" class="edge">
<title>Node19&#45;&gt;Node18</title>
<path fill="none" stroke="#191970" d="M408.4569,-78.3173C416.0003,-80.0869 425.2723,-82.2619 434.269,-84.3723"/>
<polygon fill="#191970" stroke="#191970" points="433.6677,-87.8262 444.2028,-86.7025 435.2664,-81.0111 433.6677,-87.8262"/>
</g>
<!-- Node21 -->
<g id="node8" class="node">
<title>Node21</title>
<g id="a_node8"><a xlink:href="lcd_8c.html#a07f04b524b5ded617d5f193db05ba0ad" target="_top" xlink:title="Asserts the lcd is initialized Works by checking is the File *lcd_port is the default NULL value and ...">
<polygon fill="none" stroke="#000000" points="278.5459,-18.5 278.5459,-36.5 340.1221,-36.5 340.1221,-18.5 278.5459,-18.5"/>
<text text-anchor="middle" x="309.334" y="-24.5" font-family="Helvetica,sans-Serif" font-size="10.00" fill="#000000">lcd_assert</text>
</a>
</g>
</g>
<!-- Node20&#45;&gt;Node21 -->
<g id="edge8" class="edge">
<title>Node20&#45;&gt;Node21</title>
<path fill="none" stroke="#191970" d="M240.6553,-37.4452C250.0485,-36.085 259.526,-34.7125 268.3152,-33.4398"/>
<polygon fill="#191970" stroke="#191970" points="268.8753,-36.8953 278.2705,-31.9982 267.8721,-29.9676 268.8753,-36.8953"/>
</g>
<!-- Node22&#45;&gt;Node21 -->
<g id="edge10" class="edge">
<title>Node22&#45;&gt;Node21</title>
<path fill="none" stroke="#191970" d="M205.3116,-13.2296C223.5482,-15.7314 247.9001,-19.0721 268.4573,-21.8923"/>
<polygon fill="#191970" stroke="#191970" points="268.121,-25.3789 278.504,-23.2706 269.0725,-18.4438 268.121,-25.3789"/>
</g>
</g>
</svg>
        <g id="navigator" transform="translate(0 0)" fill="#404254">
                <rect fill="#f2f5e9" fill-opacity="0.5" stroke="#606060" stroke-width=".5" x="0" y="0" width="60" height="60"/>
                <use id="zoomplus" xlink:href="#zoomPlus" x="17" y="9" onmousedown="handleZoom(evt,'in')"/>
                <use id="zoomminus" xlink:href="#zoomMin" x="42" y="9" onmousedown="handleZoom(evt,'out')"/>
                <use id="reset" xlink:href="#resetDef" x="30" y="36" onmousedown="handleReset()"/>
                <g id="arrowUp" xlink:href="#dirArrow" transform="translate(30 24)" onmousedown="handlePan(0,-1)">
                  <use xlink:href="#rim" fill="#404040">
                        <set attributeName="fill" to="#808080" begin="arrowUp.mouseover" end="arrowUp.mouseout"/>
                  </use>
                  <path fill="none" stroke="white" stroke-width="1.5" d="M0,-3.0v7 M-2.5,-0.5L0,-3.0L2.5,-0.5"/>
                </g>
                <g id="arrowRight" xlink:href="#dirArrow" transform="rotate(90) translate(36 -43)" onmousedown="handlePan(1,0)">
                  <use xlink:href="#rim" fill="#404040">
                        <set attributeName="fill" to="#808080" begin="arrowRight.mouseover" end="arrowRight.mouseout"/>
                  </use>
                  <path fill="none" stroke="white" stroke-width="1.5" d="M0,-3.0v7 M-2.5,-0.5L0,-3.0L2.5,-0.5"/>
                </g>
                <g id="arrowDown" xlink:href="#dirArrow" transform="rotate(180) translate(-30 -48)" onmousedown="handlePan(0,1)">
                  <use xlink:href="#rim" fill="#404040">
                        <set attributeName="fill" to="#808080" begin="arrowDown.mouseover" end="arrowDown.mouseout"/>
                  </use>
                  <path fill="none" stroke="white" stroke-width="1.5" d="M0,-3.0v7 M-2.5,-0.5L0,-3.0L2.5,-0.5"/>
                </g>
                <g id="arrowLeft" xlink:href="#dirArrow" transform="rotate(270) translate(-36 17)" onmousedown="handlePan(-1,0)">
                  <use xlink:href="#rim" fill="#404040">
                        <set attributeName="fill" to="#808080" begin="arrowLeft.mouseover" end="arrowLeft.mouseout"/>
                  </use>
                  <path fill="none" stroke="white" stroke-width="1.5" d="M0,-3.0v7 M-2.5,-0.5L0,-3.0L2.5,-0.5"/>
                </g>
        </g>
        <svg viewBox="0 0 15 15" width="100%" height="30px" preserveAspectRatio="xMaxYMin meet">
         <g id="arrow_out" transform="scale(0.3 0.3)">
          <a xlink:href="menu_8c_abfadedb104f89f672dd3045499975a71_cgraph_org.svg" target="_base">
           <rect id="button" ry="5" rx="5" y="6" x="6" height="38" width="38"
                fill="#f2f5e9" fill-opacity="0.5" stroke="#606060" stroke-width="1.0"/>
           <path id="arrow"
             d="M 11.500037,31.436501 C 11.940474,20.09759 22.043105,11.32322 32.158766,21.979434 L 37.068811,17.246167 C 37.068811,17.246167 37.088388,32 37.088388,32 L 22.160133,31.978069 C 22.160133,31.978069 26.997745,27.140456 26.997745,27.140456 C 18.528582,18.264221 13.291696,25.230495 11.500037,31.436501 z"
             style="fill:#404040;"/>
          </a>
         </g>
        </svg>
</svg>
