<?xml version="1.0" encoding="UTF-8" standalone="no"?>
<!DOCTYPE svg PUBLIC "-//W3C//DTD SVG 1.1//EN"
 "http://www.w3.org/Graphics/SVG/1.1/DTD/svg11.dtd">
<!-- Generated by graphviz version 2.40.1 (20161225.0304)
 -->
<!-- Title: display_menu Pages: 1 -->
<svg width="502pt" height="128pt"
 viewBox="0.00 0.00 501.59 128.00" xmlns="http://www.w3.org/2000/svg" xmlns:xlink="http://www.w3.org/1999/xlink">
<g id="graph0" class="graph" transform="scale(1 1) rotate(0) translate(4 124)">
<title>display_menu</title>
<!-- Node6 -->
<g id="node1" class="node">
<title>Node6</title>
<polygon fill="#bfbfbf" stroke="#000000" points="0,-37.5 0,-55.5 77.7041,-55.5 77.7041,-37.5 0,-37.5"/>
<text text-anchor="middle" x="38.8521" y="-43.5" font-family="Helvetica,sans-Serif" font-size="10.00" fill="#000000">display_menu</text>
</g>
<!-- Node7 -->
<g id="node2" class="node">
<title>Node7</title>
<g id="a_node2"><a xlink:href="menu_8c.html#a0fb55c1213b23963d509b974d1254567" target="_top" xlink:title="calculate_current_display">
<polygon fill="none" stroke="#000000" points="113.7041,-74.5 113.7041,-92.5 242.5459,-92.5 242.5459,-74.5 113.7041,-74.5"/>
<text text-anchor="middle" x="178.125" y="-80.5" font-family="Helvetica,sans-Serif" font-size="10.00" fill="#000000">calculate_current_display</text>
</a>
</g>
</g>
<!-- Node6&#45;&gt;Node7 -->
<g id="edge1" class="edge">
<title>Node6&#45;&gt;Node7</title>
<path fill="none" stroke="#191970" d="M72.922,-55.5512C91.3849,-60.4562 114.4073,-66.5724 134.2039,-71.8317"/>
<polygon fill="#191970" stroke="#191970" points="133.3606,-75.229 143.924,-74.414 135.158,-68.4637 133.3606,-75.229"/>
</g>
<!-- Node12 -->
<g id="node7" class="node">
<title>Node12</title>
<g id="a_node7"><a xlink:href="lcd_8h.html#ac7b3225ccc82fcbe067ba9da934f010d" target="_top" xlink:title="Returns the pressed buttons. ">
<polygon fill="none" stroke="#000000" points="114.251,-37.5 114.251,-55.5 241.999,-55.5 241.999,-37.5 114.251,-37.5"/>
<text text-anchor="middle" x="178.125" y="-43.5" font-family="Helvetica,sans-Serif" font-size="10.00" fill="#000000">lcd_get_pressed_buttons</text>
</a>
</g>
</g>
<!-- Node6&#45;&gt;Node12 -->
<g id="edge7" class="edge">
<title>Node6&#45;&gt;Node12</title>
<path fill="none" stroke="#191970" d="M78.018,-46.5C86.2018,-46.5 95.0851,-46.5 104.0669,-46.5"/>
<polygon fill="#191970" stroke="#191970" points="104.2175,-50.0001 114.2174,-46.5 104.2174,-43.0001 104.2175,-50.0001"/>
</g>
<!-- Node14 -->
<g id="node9" class="node">
<title>Node14</title>
<g id="a_node9"><a xlink:href="lcd_8h.html#adabd3f7cdda45119604b488caf22bba8" target="_top" xlink:title="prints a string to a line on the lcd ">
<polygon fill="none" stroke="#000000" points="151.2261,-.5 151.2261,-18.5 205.0239,-18.5 205.0239,-.5 151.2261,-.5"/>
<text text-anchor="middle" x="178.125" y="-6.5" font-family="Helvetica,sans-Serif" font-size="10.00" fill="#000000">lcd_print</text>
</a>
</g>
</g>
<!-- Node6&#45;&gt;Node14 -->
<g id="edge9" class="edge">
<title>Node6&#45;&gt;Node14</title>
<path fill="none" stroke="#191970" d="M72.922,-37.4488C93.5454,-31.9699 119.8578,-24.9796 141.0086,-19.3605"/>
<polygon fill="#191970" stroke="#191970" points="142.1634,-22.6752 150.9295,-16.7249 140.3661,-15.9099 142.1634,-22.6752"/>
</g>
<!-- Node8 -->
<g id="node3" class="node">
<title>Node8</title>
<g id="a_node3"><a xlink:href="vlib_8h.html#aa1986c48c027cf691df679c7a4968126" target="_top" xlink:title="converts a int to string. ">
<polygon fill="none" stroke="#000000" points="376.1221,-101.5 376.1221,-119.5 408.2451,-119.5 408.2451,-101.5 376.1221,-101.5"/>
<text text-anchor="middle" x="392.1836" y="-107.5" font-family="Helvetica,sans-Serif" font-size="10.00" fill="#000000">itoa</text>
</a>
</g>
</g>
<!-- Node7&#45;&gt;Node8 -->
<g id="edge2" class="edge">
<title>Node7&#45;&gt;Node8</title>
<path fill="none" stroke="#191970" d="M242.6399,-91.6375C283.8636,-96.8372 335.1349,-103.3042 365.6756,-107.1564"/>
<polygon fill="#191970" stroke="#191970" points="365.5731,-110.6712 375.9325,-108.4502 366.4491,-103.7262 365.5731,-110.6712"/>
</g>
<!-- Node10 -->
<g id="node5" class="node">
<title>Node10</title>
<g id="a_node5"><a xlink:href="vlib_8h.html#a1c3b16ce8c66ade17aca0f267027b855" target="_top" xlink:title="converts a float to string. ">
<polygon fill="none" stroke="#000000" points="292.9941,-64.5 292.9941,-82.5 325.6738,-82.5 325.6738,-64.5 292.9941,-64.5"/>
<text text-anchor="middle" x="309.334" y="-70.5" font-family="Helvetica,sans-Serif" font-size="10.00" fill="#000000">ftoa</text>
</a>
</g>
</g>
<!-- Node7&#45;&gt;Node10 -->
<g id="edge4" class="edge">
<title>Node7&#45;&gt;Node10</title>
<path fill="none" stroke="#191970" d="M242.5763,-78.5879C256.7209,-77.5099 270.9369,-76.4264 282.5933,-75.538"/>
<polygon fill="#191970" stroke="#191970" points="283.1938,-79.0025 292.8988,-74.7526 282.6618,-72.0227 283.1938,-79.0025"/>
</g>
<!-- Node9 -->
<g id="node4" class="node">
<title>Node9</title>
<g id="a_node4"><a xlink:href="vlib_8c.html#aad7fea725cb4b198ace1aa3df5051244" target="_top" xlink:title="reverses a string &#39;str&#39; of length &#39;len&#39; ">
<polygon fill="none" stroke="#000000" points="444.2451,-82.5 444.2451,-100.5 493.5898,-100.5 493.5898,-82.5 444.2451,-82.5"/>
<text text-anchor="middle" x="468.9175" y="-88.5" font-family="Helvetica,sans-Serif" font-size="10.00" fill="#000000">reverse</text>
</a>
</g>
</g>
<!-- Node8&#45;&gt;Node9 -->
<g id="edge3" class="edge">
<title>Node8&#45;&gt;Node9</title>
<path fill="none" stroke="#191970" d="M408.4569,-106.4706C416.0003,-104.6028 425.2723,-102.3069 434.269,-100.0793"/>
<polygon fill="#191970" stroke="#191970" points="435.3372,-103.4206 444.2028,-97.6196 433.6547,-96.6258 435.3372,-103.4206"/>
</g>
<!-- Node11 -->
<g id="node6" class="node">
<title>Node11</title>
<g id="a_node6"><a xlink:href="vlib_8c.html#aa1986c48c027cf691df679c7a4968126" target="_top" xlink:title="converts a int to string. ">
<polygon fill="none" stroke="#000000" points="376.1221,-64.5 376.1221,-82.5 408.2451,-82.5 408.2451,-64.5 376.1221,-64.5"/>
<text text-anchor="middle" x="392.1836" y="-70.5" font-family="Helvetica,sans-Serif" font-size="10.00" fill="#000000">itoa</text>
</a>
</g>
</g>
<!-- Node10&#45;&gt;Node11 -->
<g id="edge5" class="edge">
<title>Node10&#45;&gt;Node11</title>
<path fill="none" stroke="#191970" d="M325.7024,-73.5C337.0498,-73.5 352.4152,-73.5 365.5155,-73.5"/>
<polygon fill="#191970" stroke="#191970" points="365.8492,-77.0001 375.8492,-73.5 365.8491,-70.0001 365.8492,-77.0001"/>
</g>
<!-- Node11&#45;&gt;Node9 -->
<g id="edge6" class="edge">
<title>Node11&#45;&gt;Node9</title>
<path fill="none" stroke="#191970" d="M408.4569,-77.3173C416.0003,-79.0869 425.2723,-81.2619 434.269,-83.3723"/>
<polygon fill="#191970" stroke="#191970" points="433.6677,-86.8262 444.2028,-85.7025 435.2664,-80.0111 433.6677,-86.8262"/>
</g>
<!-- Node13 -->
<g id="node8" class="node">
<title>Node13</title>
<g id="a_node8"><a xlink:href="lcd_8c.html#a07f04b524b5ded617d5f193db05ba0ad" target="_top" xlink:title="Asserts the lcd is initialized Works by checking is the File *lcd_port is the default NULL value and ...">
<polygon fill="none" stroke="#000000" points="278.5459,-18.5 278.5459,-36.5 340.1221,-36.5 340.1221,-18.5 278.5459,-18.5"/>
<text text-anchor="middle" x="309.334" y="-24.5" font-family="Helvetica,sans-Serif" font-size="10.00" fill="#000000">lcd_assert</text>
</a>
</g>
</g>
<!-- Node12&#45;&gt;Node13 -->
<g id="edge8" class="edge">
<title>Node12&#45;&gt;Node13</title>
<path fill="none" stroke="#191970" d="M240.6553,-37.4452C250.0485,-36.085 259.526,-34.7125 268.3152,-33.4398"/>
<polygon fill="#191970" stroke="#191970" points="268.8753,-36.8953 278.2705,-31.9982 267.8721,-29.9676 268.8753,-36.8953"/>
</g>
<!-- Node14&#45;&gt;Node13 -->
<g id="edge10" class="edge">
<title>Node14&#45;&gt;Node13</title>
<path fill="none" stroke="#191970" d="M205.3116,-13.2296C223.5482,-15.7314 247.9001,-19.0721 268.4573,-21.8923"/>
<polygon fill="#191970" stroke="#191970" points="268.121,-25.3789 278.504,-23.2706 269.0725,-18.4438 268.121,-25.3789"/>
</g>
</g>
</svg>
