<?xml version="1.0" encoding="UTF-8" standalone="no"?>
<!DOCTYPE svg PUBLIC "-//W3C//DTD SVG 1.1//EN"
 "http://www.w3.org/Graphics/SVG/1.1/DTD/svg11.dtd">
<!-- Generated by graphviz version 2.40.1 (20161225.0304)
 -->
<!-- Title: src/menu.c Pages: 1 -->
<svg width="361pt" height="247pt"
 viewBox="0.00 0.00 361.44 247.00" xmlns="http://www.w3.org/2000/svg" xmlns:xlink="http://www.w3.org/1999/xlink">
<g id="graph0" class="graph" transform="scale(1 1) rotate(0) translate(4 243)">
<title>src/menu.c</title>
<!-- Node0 -->
<g id="node1" class="node">
<title>Node0</title>
<polygon fill="#bfbfbf" stroke="#000000" points="165.4256,-220.5 165.4256,-238.5 230.3269,-238.5 230.3269,-220.5 165.4256,-220.5"/>
<text text-anchor="middle" x="197.8763" y="-226.5" font-family="Helvetica,sans-Serif" font-size="10.00" fill="#000000">src/menu.c</text>
</g>
<!-- Node1 -->
<g id="node2" class="node">
<title>Node1</title>
<g id="a_node2"><a xlink:href="menu_8h.html" target="_top" xlink:title="Contains menu functionality and abstraction. ">
<polygon fill="none" stroke="#000000" points="173.199,-165.5 173.199,-183.5 222.5535,-183.5 222.5535,-165.5 173.199,-165.5"/>
<text text-anchor="middle" x="197.8763" y="-171.5" font-family="Helvetica,sans-Serif" font-size="10.00" fill="#000000">menu.h</text>
</a>
</g>
</g>
<!-- Node0&#45;&gt;Node1 -->
<g id="edge1" class="edge">
<title>Node0&#45;&gt;Node1</title>
<path fill="none" stroke="#191970" d="M197.8763,-220.4179C197.8763,-213.2164 197.8763,-202.8962 197.8763,-193.8632"/>
<polygon fill="#191970" stroke="#191970" points="201.3764,-193.7794 197.8763,-183.7795 194.3764,-193.7795 201.3764,-193.7794"/>
</g>
<!-- Node2 -->
<g id="node3" class="node">
<title>Node2</title>
<polygon fill="none" stroke="#bfbfbf" points="248.6473,-.5 248.6473,-18.5 289.1053,-18.5 289.1053,-.5 248.6473,-.5"/>
<text text-anchor="middle" x="268.8763" y="-6.5" font-family="Helvetica,sans-Serif" font-size="10.00" fill="#000000">API.h</text>
</g>
<!-- Node1&#45;&gt;Node2 -->
<g id="edge2" class="edge">
<title>Node1&#45;&gt;Node2</title>
<path fill="none" stroke="#191970" d="M205.907,-165.3159C213.2606,-156.5116 224.0135,-142.5881 230.8763,-129 247.8215,-95.4487 259.1947,-52.7974 264.8039,-28.5822"/>
<polygon fill="#191970" stroke="#191970" points="268.2753,-29.0957 267.0345,-18.5738 261.4429,-27.5729 268.2753,-29.0957"/>
</g>
<!-- Node3 -->
<g id="node4" class="node">
<title>Node3</title>
<g id="a_node4"><a xlink:href="lcd_8h.html" target="_top" xlink:title="LCD wrapper functions and macros. ">
<polygon fill="none" stroke="#000000" points="316.3147,-55.5 316.3147,-73.5 353.4378,-73.5 353.4378,-55.5 316.3147,-55.5"/>
<text text-anchor="middle" x="334.8763" y="-61.5" font-family="Helvetica,sans-Serif" font-size="10.00" fill="#000000">lcd.h</text>
</a>
</g>
</g>
<!-- Node1&#45;&gt;Node3 -->
<g id="edge3" class="edge">
<title>Node1&#45;&gt;Node3</title>
<path fill="none" stroke="#191970" d="M222.6439,-168.81C255.7041,-160.7032 311.6404,-145.0273 324.8763,-129 335.2386,-116.4523 337.1218,-97.6848 336.7781,-83.6245"/>
<polygon fill="#191970" stroke="#191970" points="340.2664,-83.3265 336.1445,-73.5663 333.2803,-83.7666 340.2664,-83.3265"/>
</g>
<!-- Node4 -->
<g id="node5" class="node">
<title>Node4</title>
<polygon fill="none" stroke="#bfbfbf" points="113.2557,-110.5 113.2557,-128.5 156.4969,-128.5 156.4969,-110.5 113.2557,-110.5"/>
<text text-anchor="middle" x="134.8763" y="-116.5" font-family="Helvetica,sans-Serif" font-size="10.00" fill="#000000">float.h</text>
</g>
<!-- Node1&#45;&gt;Node4 -->
<g id="edge5" class="edge">
<title>Node1&#45;&gt;Node4</title>
<path fill="none" stroke="#191970" d="M187.4731,-165.4179C178.1363,-157.2667 164.223,-145.1201 153.0511,-135.3669"/>
<polygon fill="#191970" stroke="#191970" points="155.3405,-132.7194 145.5055,-128.7795 150.7368,-137.9927 155.3405,-132.7194"/>
</g>
<!-- Node5 -->
<g id="node6" class="node">
<title>Node5</title>
<polygon fill="none" stroke="#bfbfbf" points="174.3196,-110.5 174.3196,-128.5 221.4329,-128.5 221.4329,-110.5 174.3196,-110.5"/>
<text text-anchor="middle" x="197.8763" y="-116.5" font-family="Helvetica,sans-Serif" font-size="10.00" fill="#000000">limits.h</text>
</g>
<!-- Node1&#45;&gt;Node5 -->
<g id="edge6" class="edge">
<title>Node1&#45;&gt;Node5</title>
<path fill="none" stroke="#191970" d="M197.8763,-165.4179C197.8763,-158.2164 197.8763,-147.8962 197.8763,-138.8632"/>
<polygon fill="#191970" stroke="#191970" points="201.3764,-138.7794 197.8763,-128.7795 194.3764,-138.7795 201.3764,-138.7794"/>
</g>
<!-- Node6 -->
<g id="node7" class="node">
<title>Node6</title>
<polygon fill="none" stroke="#bfbfbf" points="78.4798,-55.5 78.4798,-73.5 127.2727,-73.5 127.2727,-55.5 78.4798,-55.5"/>
<text text-anchor="middle" x="102.8763" y="-61.5" font-family="Helvetica,sans-Serif" font-size="10.00" fill="#000000">string.h</text>
</g>
<!-- Node1&#45;&gt;Node6 -->
<g id="edge7" class="edge">
<title>Node1&#45;&gt;Node6</title>
<path fill="none" stroke="#191970" d="M173.0144,-170.0119C150.6643,-164.526 119.0855,-152.8466 103.8763,-129 95.3228,-115.5891 95.9526,-97.2052 98.2086,-83.4945"/>
<polygon fill="#191970" stroke="#191970" points="101.6399,-84.1845 100.2222,-73.685 94.7828,-82.7769 101.6399,-84.1845"/>
</g>
<!-- Node7 -->
<g id="node8" class="node">
<title>Node7</title>
<g id="a_node8"><a xlink:href="vlib_8h.html" target="_top" xlink:title="Contains misc helpful functions. ">
<polygon fill="none" stroke="#000000" points="17.2039,-110.5 17.2039,-128.5 56.5486,-128.5 56.5486,-110.5 17.2039,-110.5"/>
<text text-anchor="middle" x="36.8763" y="-116.5" font-family="Helvetica,sans-Serif" font-size="10.00" fill="#000000">vlib.h</text>
</a>
</g>
</g>
<!-- Node1&#45;&gt;Node7 -->
<g id="edge8" class="edge">
<title>Node1&#45;&gt;Node7</title>
<path fill="none" stroke="#191970" d="M173.0728,-166.0268C144.385,-156.2266 97.187,-140.1031 66.5708,-129.6441"/>
<polygon fill="#191970" stroke="#191970" points="67.4689,-126.2524 56.8744,-126.3316 65.2059,-132.8765 67.4689,-126.2524"/>
</g>
<!-- Node9 -->
<g id="node10" class="node">
<title>Node9</title>
<g id="a_node10"><a xlink:href="log_8h.html" target="_top" xlink:title="Contains logging functions. ">
<polygon fill="none" stroke="#000000" points="278.034,-110.5 278.034,-128.5 315.7185,-128.5 315.7185,-110.5 278.034,-110.5"/>
<text text-anchor="middle" x="296.8763" y="-116.5" font-family="Helvetica,sans-Serif" font-size="10.00" fill="#000000">log.h</text>
</a>
</g>
</g>
<!-- Node1&#45;&gt;Node9 -->
<g id="edge12" class="edge">
<title>Node1&#45;&gt;Node9</title>
<path fill="none" stroke="#191970" d="M214.2241,-165.4179C229.8444,-156.7399 253.6161,-143.5334 271.6624,-133.5077"/>
<polygon fill="#191970" stroke="#191970" points="273.4623,-136.5117 280.5041,-128.5956 270.0628,-130.3925 273.4623,-136.5117"/>
</g>
<!-- Node3&#45;&gt;Node2 -->
<g id="edge4" class="edge">
<title>Node3&#45;&gt;Node2</title>
<path fill="none" stroke="#191970" d="M323.9777,-55.4179C314.1963,-47.2667 299.6204,-35.1201 287.9166,-25.3669"/>
<polygon fill="#191970" stroke="#191970" points="289.9345,-22.4926 280.0116,-18.7795 285.4532,-27.8701 289.9345,-22.4926"/>
</g>
<!-- Node7&#45;&gt;Node2 -->
<g id="edge9" class="edge">
<title>Node7&#45;&gt;Node2</title>
<path fill="none" stroke="#191970" d="M26.257,-110.3712C12.0894,-97.1053 -9.6201,-72.2085 4.8763,-55 19.8134,-37.2683 171.6478,-19.5547 238.0577,-12.5887"/>
<polygon fill="#191970" stroke="#191970" points="238.7296,-16.038 248.3162,-11.5271 238.009,-9.0751 238.7296,-16.038"/>
</g>
<!-- Node7&#45;&gt;Node6 -->
<g id="edge11" class="edge">
<title>Node7&#45;&gt;Node6</title>
<path fill="none" stroke="#191970" d="M47.7748,-110.4179C57.5562,-102.2667 72.1321,-90.1201 83.8359,-80.3669"/>
<polygon fill="#191970" stroke="#191970" points="86.2993,-82.8701 91.7409,-73.7795 81.818,-77.4926 86.2993,-82.8701"/>
</g>
<!-- Node8 -->
<g id="node9" class="node">
<title>Node8</title>
<polygon fill="none" stroke="#bfbfbf" points="13.5906,-55.5 13.5906,-73.5 60.1619,-73.5 60.1619,-55.5 13.5906,-55.5"/>
<text text-anchor="middle" x="36.8763" y="-61.5" font-family="Helvetica,sans-Serif" font-size="10.00" fill="#000000">math.h</text>
</g>
<!-- Node7&#45;&gt;Node8 -->
<g id="edge10" class="edge">
<title>Node7&#45;&gt;Node8</title>
<path fill="none" stroke="#191970" d="M36.8763,-110.4179C36.8763,-103.2164 36.8763,-92.8962 36.8763,-83.8632"/>
<polygon fill="#191970" stroke="#191970" points="40.3764,-83.7794 36.8763,-73.7795 33.3764,-83.7795 40.3764,-83.7794"/>
</g>
<!-- Node9&#45;&gt;Node2 -->
<g id="edge14" class="edge">
<title>Node9&#45;&gt;Node2</title>
<path fill="none" stroke="#191970" d="M294.5849,-110.4982C290.0317,-92.6108 279.7605,-52.2594 273.6686,-28.3271"/>
<polygon fill="#191970" stroke="#191970" points="277.058,-27.4537 271.1993,-18.6261 270.2743,-29.1805 277.058,-27.4537"/>
</g>
<!-- Node9&#45;&gt;Node3 -->
<g id="edge13" class="edge">
<title>Node9&#45;&gt;Node3</title>
<path fill="none" stroke="#191970" d="M303.1512,-110.4179C308.4548,-102.7415 316.2067,-91.5217 322.7201,-82.0945"/>
<polygon fill="#191970" stroke="#191970" points="325.6602,-83.9963 328.465,-73.7795 319.9011,-80.0173 325.6602,-83.9963"/>
</g>
</g>
</svg>
