<?xml version="1.0" encoding="UTF-8" standalone="no"?>
<!DOCTYPE svg PUBLIC "-//W3C//DTD SVG 1.1//EN"
 "http://www.w3.org/Graphics/SVG/1.1/DTD/svg11.dtd">
<!-- Generated by graphviz version 2.40.1 (20161225.0304)
 -->
<!-- Title: display_menu Pages: 1 -->
<!--zoomable 401 -->
<svg id="main" version="1.1" xmlns="http://www.w3.org/2000/svg" xmlns:xlink="http://www.w3.org/1999/xlink" xml:space="preserve" onload="init(evt)">
<style type="text/css"><![CDATA[
.edge:hover path { stroke: red; }
.edge:hover polygon { stroke: red; fill: red; }
]]></style>
<script type="text/javascript"><![CDATA[
var edges = document.getElementsByTagName('g');
if (edges && edges.length) {
  for (var i=0;i<edges.length;i++) {
    if (edges[i].id.substr(0,4)=='edge') {
      edges[i].setAttribute('class','edge');
    }
  }
}
]]></script>
        <defs>
                <circle id="rim" cx="0" cy="0" r="7"/>
                <circle id="rim2" cx="0" cy="0" r="3.5"/>
                <g id="zoomPlus">
                        <use xlink:href="#rim" fill="#404040">
                                <set attributeName="fill" to="#808080" begin="zoomplus.mouseover" end="zoomplus.mouseout"/>
                        </use>
                        <path d="M-4,0h8M0,-4v8" fill="none" stroke="white" stroke-width="1.5" pointer-events="none"/>
                </g>
                <g id="zoomMin">
                        <use xlink:href="#rim" fill="#404040">
                                <set attributeName="fill" to="#808080" begin="zoomminus.mouseover" end="zoomminus.mouseout"/>
                        </use>
                        <path d="M-4,0h8" fill="none" stroke="white" stroke-width="1.5" pointer-events="none"/>
                </g>
                <g id="dirArrow">
                        <path fill="none" stroke="white" stroke-width="1.5" d="M0,-3.0v7 M-2.5,-0.5L0,-3.0L2.5,-0.5"/>
                </g>
               <g id="resetDef">
                       <use xlink:href="#rim2" fill="#404040">
                               <set attributeName="fill" to="#808080" begin="reset.mouseover" end="reset.mouseout"/>
                       </use>
               </g>
        </defs>

<script type="text/javascript">
var viewWidth = 533;
var viewHeight = 401;
var sectionId = 'dynsection-4';
</script>
<script xlink:href="svgpan.js"/>
<svg id="graph" class="graph">
<g id="viewport">
<title>display_menu</title>
<!-- Node24 -->
<g id="node1" class="node">
<title>Node24</title>
<polygon fill="#bfbfbf" stroke="#000000" points="0,-94.5 0,-112.5 77.7041,-112.5 77.7041,-94.5 0,-94.5"/>
<text text-anchor="middle" x="38.8521" y="-100.5" font-family="Helvetica,sans-Serif" font-size="10.00" fill="#000000">display_menu</text>
</g>
<!-- Node25 -->
<g id="node2" class="node">
<title>Node25</title>
<g id="a_node2"><a xlink:href="menu_8c.html#a0fb55c1213b23963d509b974d1254567" target="_top" xlink:title="Static function that calculates the string from menu. ">
<polygon fill="none" stroke="#000000" points="113.7041,-281.5 113.7041,-299.5 242.5459,-299.5 242.5459,-281.5 113.7041,-281.5"/>
<text text-anchor="middle" x="178.125" y="-287.5" font-family="Helvetica,sans-Serif" font-size="10.00" fill="#000000">calculate_current_display</text>
</a>
</g>
</g>
<!-- Node24&#45;&gt;Node25 -->
<g id="edge1" class="edge">
<title>Node24&#45;&gt;Node25</title>
<path fill="none" stroke="#191970" d="M45.5695,-112.5194C67.3007,-141.6976 135.9624,-233.8888 164.9776,-272.8471"/>
<polygon fill="#191970" stroke="#191970" points="162.3667,-275.2011 171.1469,-281.1306 167.9807,-271.0199 162.3667,-275.2011"/>
</g>
<!-- Node31 -->
<g id="node8" class="node">
<title>Node31</title>
<g id="a_node8"><a xlink:href="_a_p_i_8h.html#a403c82418e475fa4a8273719e6a7f3e6" target="_top" xlink:title="Prints the formatted string to the debug stream (the PC terminal). ">
<polygon fill="none" stroke="#000000" points="401.1465,-150.5 401.1465,-168.5 439.3779,-168.5 439.3779,-150.5 401.1465,-150.5"/>
<text text-anchor="middle" x="420.2622" y="-156.5" font-family="Helvetica,sans-Serif" font-size="10.00" fill="#000000">printf</text>
</a>
</g>
</g>
<!-- Node24&#45;&gt;Node31 -->
<g id="edge20" class="edge">
<title>Node24&#45;&gt;Node31</title>
<path fill="none" stroke="#191970" d="M52.4673,-94.359C66.936,-85.2407 90.8364,-71.8433 113.7041,-66.5 222.5251,-41.0729 268.0495,-11.1761 365.1465,-66.5 393.034,-82.3897 408.2583,-118.5524 415.293,-140.8111"/>
<polygon fill="#191970" stroke="#191970" points="411.9501,-141.85 418.1081,-150.4714 418.6705,-139.8915 411.9501,-141.85"/>
</g>
<!-- Node33 -->
<g id="node10" class="node">
<title>Node33</title>
<g id="a_node10"><a xlink:href="_a_p_i_8h.html#a1c59207742a1acf45a8957d7f04f9dfe" target="_top" xlink:title="Wiring&#45;compatible alias of taskDelay(). ">
<polygon fill="none" stroke="#000000" points="158.1719,-.5 158.1719,-18.5 198.0781,-18.5 198.0781,-.5 158.1719,-.5"/>
<text text-anchor="middle" x="178.125" y="-6.5" font-family="Helvetica,sans-Serif" font-size="10.00" fill="#000000">delay</text>
</a>
</g>
</g>
<!-- Node24&#45;&gt;Node33 -->
<g id="edge9" class="edge">
<title>Node24&#45;&gt;Node33</title>
<path fill="none" stroke="#191970" d="M46.6786,-94.0922C59.3774,-79.3543 85.8677,-50.7305 113.7041,-33.5 124.271,-26.9592 136.8995,-21.7687 148.1644,-17.9122"/>
<polygon fill="#191970" stroke="#191970" points="149.5769,-21.1347 158.0281,-14.745 147.4368,-14.4698 149.5769,-21.1347"/>
</g>
<!-- Node34 -->
<g id="node11" class="node">
<title>Node34</title>
<g id="a_node11"><a xlink:href="lcd_8h.html#a35c08b1fa742e650f4873939707b893b" target="_top" xlink:title="Clears the lcd. ">
<polygon fill="none" stroke="#000000" points="150.1152,-150.5 150.1152,-168.5 206.1348,-168.5 206.1348,-150.5 150.1152,-150.5"/>
<text text-anchor="middle" x="178.125" y="-156.5" font-family="Helvetica,sans-Serif" font-size="10.00" fill="#000000">lcd_clear</text>
</a>
</g>
</g>
<!-- Node24&#45;&gt;Node34 -->
<g id="edge10" class="edge">
<title>Node24&#45;&gt;Node34</title>
<path fill="none" stroke="#191970" d="M54.4947,-112.5908C69.356,-120.9478 92.5166,-133.255 113.7041,-141.5 122.1174,-144.774 131.3618,-147.7195 140.1566,-150.234"/>
<polygon fill="#191970" stroke="#191970" points="139.2575,-153.6166 149.827,-152.8845 141.1079,-146.8656 139.2575,-153.6166"/>
</g>
<!-- Node37 -->
<g id="node14" class="node">
<title>Node37</title>
<g id="a_node14"><a xlink:href="lcd_8h.html#ac7b3225ccc82fcbe067ba9da934f010d" target="_top" xlink:title="Returns the pressed buttons. ">
<polygon fill="none" stroke="#000000" points="114.251,-113.5 114.251,-131.5 241.999,-131.5 241.999,-113.5 114.251,-113.5"/>
<text text-anchor="middle" x="178.125" y="-119.5" font-family="Helvetica,sans-Serif" font-size="10.00" fill="#000000">lcd_get_pressed_buttons</text>
</a>
</g>
</g>
<!-- Node24&#45;&gt;Node37 -->
<g id="edge14" class="edge">
<title>Node24&#45;&gt;Node37</title>
<path fill="none" stroke="#191970" d="M78.018,-108.8431C86.2018,-109.9596 95.0851,-111.1715 104.0669,-112.3968"/>
<polygon fill="#191970" stroke="#191970" points="103.8361,-115.8976 114.2174,-113.7816 104.7823,-108.9619 103.8361,-115.8976"/>
</g>
<!-- Node39 -->
<g id="node16" class="node">
<title>Node39</title>
<g id="a_node16"><a xlink:href="lcd_8h.html#adabd3f7cdda45119604b488caf22bba8" target="_top" xlink:title="prints a string to a line on the lcd ">
<polygon fill="none" stroke="#000000" points="151.2261,-76.5 151.2261,-94.5 205.0239,-94.5 205.0239,-76.5 151.2261,-76.5"/>
<text text-anchor="middle" x="178.125" y="-82.5" font-family="Helvetica,sans-Serif" font-size="10.00" fill="#000000">lcd_print</text>
</a>
</g>
</g>
<!-- Node24&#45;&gt;Node39 -->
<g id="edge17" class="edge">
<title>Node24&#45;&gt;Node39</title>
<path fill="none" stroke="#191970" d="M78.018,-98.4381C97.7957,-95.882 121.6581,-92.7979 141.1239,-90.2821"/>
<polygon fill="#191970" stroke="#191970" points="141.6752,-93.7401 151.1441,-88.9871 140.7779,-86.7978 141.6752,-93.7401"/>
</g>
<!-- Node26 -->
<g id="node3" class="node">
<title>Node26</title>
<g id="a_node3"><a xlink:href="vlib_8h.html#a4d26b0ac2f26341d827e0a13a0bd49b6" target="_top" xlink:title="converts a float to string. ">
<polygon fill="none" stroke="#000000" points="302.7256,-374.5 302.7256,-392.5 340.9668,-392.5 340.9668,-374.5 302.7256,-374.5"/>
<text text-anchor="middle" x="321.8462" y="-380.5" font-family="Helvetica,sans-Serif" font-size="10.00" fill="#000000">ftoaa</text>
</a>
</g>
</g>
<!-- Node25&#45;&gt;Node26 -->
<g id="edge2" class="edge">
<title>Node25&#45;&gt;Node26</title>
<path fill="none" stroke="#191970" d="M188.3722,-299.5195C205.9025,-314.6254 243.1876,-345.3618 278.5459,-365.5 283.1154,-368.1025 288.1356,-370.5377 293.0882,-372.7243"/>
<polygon fill="#191970" stroke="#191970" points="291.8157,-375.9857 302.3927,-376.6013 294.5082,-369.5242 291.8157,-375.9857"/>
</g>
<!-- Node29 -->
<g id="node6" class="node">
<title>Node29</title>
<g id="a_node6"><a xlink:href="vmath_8h.html#af082905f7eac6d03e92015146bbc1925" target="_top" xlink:title="the min of two values ">
<polygon fill="none" stroke="#000000" points="304.4004,-337.5 304.4004,-355.5 339.292,-355.5 339.292,-337.5 304.4004,-337.5"/>
<text text-anchor="middle" x="321.8462" y="-343.5" font-family="Helvetica,sans-Serif" font-size="10.00" fill="#000000">max</text>
</a>
</g>
</g>
<!-- Node25&#45;&gt;Node29 -->
<g id="edge5" class="edge">
<title>Node25&#45;&gt;Node29</title>
<path fill="none" stroke="#191970" d="M201.5362,-299.622C227.0683,-309.5704 267.8743,-325.4702 294.7672,-335.9488"/>
<polygon fill="#191970" stroke="#191970" points="293.7437,-339.3063 304.3321,-339.6757 296.2851,-332.7839 293.7437,-339.3063"/>
</g>
<!-- Node30 -->
<g id="node7" class="node">
<title>Node30</title>
<g id="a_node7"><a xlink:href="vmath_8h.html#abd8bbcfabb3ddef2ccaafb9928a37b95" target="_top" xlink:title="the min of two values ">
<polygon fill="none" stroke="#000000" points="305.7896,-300.5 305.7896,-318.5 337.9028,-318.5 337.9028,-300.5 305.7896,-300.5"/>
<text text-anchor="middle" x="321.8462" y="-306.5" font-family="Helvetica,sans-Serif" font-size="10.00" fill="#000000">min</text>
</a>
</g>
</g>
<!-- Node25&#45;&gt;Node30 -->
<g id="edge6" class="edge">
<title>Node25&#45;&gt;Node30</title>
<path fill="none" stroke="#191970" d="M242.8381,-299.0551C261.5439,-301.528 280.9021,-304.0872 295.7752,-306.0534"/>
<polygon fill="#191970" stroke="#191970" points="295.3664,-309.5297 305.7389,-307.3706 296.2838,-302.5901 295.3664,-309.5297"/>
</g>
<!-- Node25&#45;&gt;Node31 -->
<g id="edge7" class="edge">
<title>Node25&#45;&gt;Node31</title>
<path fill="none" stroke="#191970" d="M204.551,-281.418C249.2743,-265.7989 337.7014,-233.7718 365.1465,-215.5 381.2279,-204.7937 396.3845,-188.7942 406.7179,-176.6349"/>
<polygon fill="#191970" stroke="#191970" points="409.6851,-178.5371 413.3339,-168.5904 404.2787,-174.0907 409.6851,-178.5371"/>
</g>
<!-- Node32 -->
<g id="node9" class="node">
<title>Node32</title>
<g id="a_node9"><a xlink:href="_a_p_i_8h.html#acbfbfc380f865613ad5ff3cae256bdc4" target="_top" xlink:title="Prints the formatted string to the string buffer. ">
<polygon fill="none" stroke="#000000" points="300.2305,-263.5 300.2305,-281.5 343.4619,-281.5 343.4619,-263.5 300.2305,-263.5"/>
<text text-anchor="middle" x="321.8462" y="-269.5" font-family="Helvetica,sans-Serif" font-size="10.00" fill="#000000">sprintf</text>
</a>
</g>
</g>
<!-- Node25&#45;&gt;Node32 -->
<g id="edge8" class="edge">
<title>Node25&#45;&gt;Node32</title>
<path fill="none" stroke="#191970" d="M242.8381,-282.3952C259.2249,-280.3428 276.1124,-278.2278 290.0466,-276.4827"/>
<polygon fill="#191970" stroke="#191970" points="290.5818,-279.9431 300.0693,-275.2274 289.7118,-272.9973 290.5818,-279.9431"/>
</g>
<!-- Node27 -->
<g id="node4" class="node">
<title>Node27</title>
<g id="a_node4"><a xlink:href="vlib_8c.html#a28dc918c0df16add26908891a4aa190e" target="_top" xlink:title="converts a int to string. ">
<polygon fill="none" stroke="#000000" points="401.4199,-374.5 401.4199,-392.5 439.1045,-392.5 439.1045,-374.5 401.4199,-374.5"/>
<text text-anchor="middle" x="420.2622" y="-380.5" font-family="Helvetica,sans-Serif" font-size="10.00" fill="#000000">itoaa</text>
</a>
</g>
</g>
<!-- Node26&#45;&gt;Node27 -->
<g id="edge3" class="edge">
<title>Node26&#45;&gt;Node27</title>
<path fill="none" stroke="#191970" d="M341.29,-383.5C355.3997,-383.5 374.7389,-383.5 390.7478,-383.5"/>
<polygon fill="#191970" stroke="#191970" points="391.1937,-387.0001 401.1936,-383.5 391.1936,-380.0001 391.1937,-387.0001"/>
</g>
<!-- Node28 -->
<g id="node5" class="node">
<title>Node28</title>
<g id="a_node5"><a xlink:href="vlib_8c.html#aad7fea725cb4b198ace1aa3df5051244" target="_top" xlink:title="reverses a string &#39;str&#39; of length &#39;len&#39; ">
<polygon fill="none" stroke="#000000" points="475.3779,-374.5 475.3779,-392.5 524.7227,-392.5 524.7227,-374.5 475.3779,-374.5"/>
<text text-anchor="middle" x="500.0503" y="-380.5" font-family="Helvetica,sans-Serif" font-size="10.00" fill="#000000">reverse</text>
</a>
</g>
</g>
<!-- Node27&#45;&gt;Node28 -->
<g id="edge4" class="edge">
<title>Node27&#45;&gt;Node28</title>
<path fill="none" stroke="#191970" d="M439.1709,-383.5C446.9214,-383.5 456.1493,-383.5 465.0476,-383.5"/>
<polygon fill="#191970" stroke="#191970" points="465.2337,-387.0001 475.2337,-383.5 465.2337,-380.0001 465.2337,-387.0001"/>
</g>
<!-- Node35 -->
<g id="node12" class="node">
<title>Node35</title>
<g id="a_node12"><a xlink:href="lcd_8c.html#aa03fd2deaeec8fc3f42a0975d587bad8" target="_top" xlink:title="Asserts the lcd is initialized Works by checking is the File *lcd_port is the default NULL value and ...">
<polygon fill="none" stroke="#000000" points="291.0581,-150.5 291.0581,-168.5 352.6343,-168.5 352.6343,-150.5 291.0581,-150.5"/>
<text text-anchor="middle" x="321.8462" y="-156.5" font-family="Helvetica,sans-Serif" font-size="10.00" fill="#000000">lcd_assert</text>
</a>
</g>
</g>
<!-- Node34&#45;&gt;Node35 -->
<g id="edge11" class="edge">
<title>Node34&#45;&gt;Node35</title>
<path fill="none" stroke="#191970" d="M206.1771,-159.5C227.3828,-159.5 256.8188,-159.5 280.6886,-159.5"/>
<polygon fill="#191970" stroke="#191970" points="280.8751,-163.0001 290.8751,-159.5 280.875,-156.0001 280.8751,-163.0001"/>
</g>
<!-- Node36 -->
<g id="node13" class="node">
<title>Node36</title>
<g id="a_node13"><a xlink:href="_a_p_i_8h.html#a5fa1d119fe3e836b5519f97eae7a1272" target="_top" xlink:title="Clears the LCD screen on the specified port. ">
<polygon fill="none" stroke="#000000" points="295.5063,-187.5 295.5063,-205.5 348.186,-205.5 348.186,-187.5 295.5063,-187.5"/>
<text text-anchor="middle" x="321.8462" y="-193.5" font-family="Helvetica,sans-Serif" font-size="10.00" fill="#000000">lcdClear</text>
</a>
</g>
</g>
<!-- Node34&#45;&gt;Node36 -->
<g id="edge13" class="edge">
<title>Node34&#45;&gt;Node36</title>
<path fill="none" stroke="#191970" d="M206.1771,-166.7218C228.8653,-172.5627 260.9749,-180.8291 285.6086,-187.1709"/>
<polygon fill="#191970" stroke="#191970" points="284.7638,-190.5675 295.3206,-189.6712 286.509,-183.7885 284.7638,-190.5675"/>
</g>
<!-- Node35&#45;&gt;Node31 -->
<g id="edge12" class="edge">
<title>Node35&#45;&gt;Node31</title>
<path fill="none" stroke="#191970" d="M352.7156,-159.5C364.9236,-159.5 378.8888,-159.5 390.9406,-159.5"/>
<polygon fill="#191970" stroke="#191970" points="390.9468,-163.0001 400.9468,-159.5 390.9468,-156.0001 390.9468,-163.0001"/>
</g>
<!-- Node37&#45;&gt;Node35 -->
<g id="edge15" class="edge">
<title>Node37&#45;&gt;Node35</title>
<path fill="none" stroke="#191970" d="M213.2832,-131.5512C233.801,-136.8334 259.7757,-143.5204 281.1731,-149.029"/>
<polygon fill="#191970" stroke="#191970" points="280.3982,-152.4436 290.9551,-151.5473 282.1435,-145.6646 280.3982,-152.4436"/>
</g>
<!-- Node38 -->
<g id="node15" class="node">
<title>Node38</title>
<g id="a_node15"><a xlink:href="_a_p_i_8h.html#a04541d90f60b1ccd3d036656673c972d" target="_top" xlink:title="Reads the user button status from the LCD display. ">
<polygon fill="none" stroke="#000000" points="278.5459,-113.5 278.5459,-131.5 365.1465,-131.5 365.1465,-113.5 278.5459,-113.5"/>
<text text-anchor="middle" x="321.8462" y="-119.5" font-family="Helvetica,sans-Serif" font-size="10.00" fill="#000000">lcdReadButtons</text>
</a>
</g>
</g>
<!-- Node37&#45;&gt;Node38 -->
<g id="edge16" class="edge">
<title>Node37&#45;&gt;Node38</title>
<path fill="none" stroke="#191970" d="M242.0002,-122.5C250.7412,-122.5 259.6417,-122.5 268.1759,-122.5"/>
<polygon fill="#191970" stroke="#191970" points="268.3687,-126.0001 278.3686,-122.5 268.3686,-119.0001 268.3687,-126.0001"/>
</g>
<!-- Node39&#45;&gt;Node35 -->
<g id="edge18" class="edge">
<title>Node39&#45;&gt;Node35</title>
<path fill="none" stroke="#191970" d="M205.0936,-90.213C217.1449,-93.1131 231.1646,-97.632 242.5459,-104.5 262.1901,-116.3543 259.5647,-128.6107 278.5459,-141.5 280.9452,-143.1293 283.5153,-144.6537 286.1622,-146.0709"/>
<polygon fill="#191970" stroke="#191970" points="284.7912,-149.2952 295.3205,-150.4725 287.8236,-142.986 284.7912,-149.2952"/>
</g>
<!-- Node40 -->
<g id="node17" class="node">
<title>Node40</title>
<g id="a_node17"><a xlink:href="_a_p_i_8h.html#a5555228be96449af952aed5bcabb6d8d" target="_top" xlink:title="Prints the string buffer to the attached LCD. ">
<polygon fill="none" stroke="#000000" points="290.7798,-76.5 290.7798,-94.5 352.9126,-94.5 352.9126,-76.5 290.7798,-76.5"/>
<text text-anchor="middle" x="321.8462" y="-82.5" font-family="Helvetica,sans-Serif" font-size="10.00" fill="#000000">lcdSetText</text>
</a>
</g>
</g>
<!-- Node39&#45;&gt;Node40 -->
<g id="edge19" class="edge">
<title>Node39&#45;&gt;Node40</title>
<path fill="none" stroke="#191970" d="M205.1579,-85.5C226.4315,-85.5 256.4322,-85.5 280.6865,-85.5"/>
<polygon fill="#191970" stroke="#191970" points="280.6872,-89.0001 290.6871,-85.5 280.6871,-82.0001 280.6872,-89.0001"/>
</g>
</g>
</svg>
        <g id="navigator" transform="translate(0 0)" fill="#404254">
                <rect fill="#f2f5e9" fill-opacity="0.5" stroke="#606060" stroke-width=".5" x="0" y="0" width="60" height="60"/>
                <use id="zoomplus" xlink:href="#zoomPlus" x="17" y="9" onmousedown="handleZoom(evt,'in')"/>
                <use id="zoomminus" xlink:href="#zoomMin" x="42" y="9" onmousedown="handleZoom(evt,'out')"/>
                <use id="reset" xlink:href="#resetDef" x="30" y="36" onmousedown="handleReset()"/>
                <g id="arrowUp" xlink:href="#dirArrow" transform="translate(30 24)" onmousedown="handlePan(0,-1)">
                  <use xlink:href="#rim" fill="#404040">
                        <set attributeName="fill" to="#808080" begin="arrowUp.mouseover" end="arrowUp.mouseout"/>
                  </use>
                  <path fill="none" stroke="white" stroke-width="1.5" d="M0,-3.0v7 M-2.5,-0.5L0,-3.0L2.5,-0.5"/>
                </g>
                <g id="arrowRight" xlink:href="#dirArrow" transform="rotate(90) translate(36 -43)" onmousedown="handlePan(1,0)">
                  <use xlink:href="#rim" fill="#404040">
                        <set attributeName="fill" to="#808080" begin="arrowRight.mouseover" end="arrowRight.mouseout"/>
                  </use>
                  <path fill="none" stroke="white" stroke-width="1.5" d="M0,-3.0v7 M-2.5,-0.5L0,-3.0L2.5,-0.5"/>
                </g>
                <g id="arrowDown" xlink:href="#dirArrow" transform="rotate(180) translate(-30 -48)" onmousedown="handlePan(0,1)">
                  <use xlink:href="#rim" fill="#404040">
                        <set attributeName="fill" to="#808080" begin="arrowDown.mouseover" end="arrowDown.mouseout"/>
                  </use>
                  <path fill="none" stroke="white" stroke-width="1.5" d="M0,-3.0v7 M-2.5,-0.5L0,-3.0L2.5,-0.5"/>
                </g>
                <g id="arrowLeft" xlink:href="#dirArrow" transform="rotate(270) translate(-36 17)" onmousedown="handlePan(-1,0)">
                  <use xlink:href="#rim" fill="#404040">
                        <set attributeName="fill" to="#808080" begin="arrowLeft.mouseover" end="arrowLeft.mouseout"/>
                  </use>
                  <path fill="none" stroke="white" stroke-width="1.5" d="M0,-3.0v7 M-2.5,-0.5L0,-3.0L2.5,-0.5"/>
                </g>
        </g>
        <svg viewBox="0 0 15 15" width="100%" height="30px" preserveAspectRatio="xMaxYMin meet">
         <g id="arrow_out" transform="scale(0.3 0.3)">
          <a xlink:href="menu_8c_abfadedb104f89f672dd3045499975a71_cgraph_org.svg" target="_base">
           <rect id="button" ry="5" rx="5" y="6" x="6" height="38" width="38"
                fill="#f2f5e9" fill-opacity="0.5" stroke="#606060" stroke-width="1.0"/>
           <path id="arrow"
             d="M 11.500037,31.436501 C 11.940474,20.09759 22.043105,11.32322 32.158766,21.979434 L 37.068811,17.246167 C 37.068811,17.246167 37.088388,32 37.088388,32 L 22.160133,31.978069 C 22.160133,31.978069 26.997745,27.140456 26.997745,27.140456 C 18.528582,18.264221 13.291696,25.230495 11.500037,31.436501 z"
             style="fill:#404040;"/>
          </a>
         </g>
        </svg>
</svg>
