<?xml version="1.0" encoding="UTF-8" standalone="no"?>
<!DOCTYPE svg PUBLIC "-//W3C//DTD SVG 1.1//EN"
 "http://www.w3.org/Graphics/SVG/1.1/DTD/svg11.dtd">
<!-- Generated by graphviz version 2.40.1 (20161225.0304)
 -->
<!-- Title: create_menu Pages: 1 -->
<svg width="363pt" height="138pt"
 viewBox="0.00 0.00 362.88 138.00" xmlns="http://www.w3.org/2000/svg" xmlns:xlink="http://www.w3.org/1999/xlink">
<g id="graph0" class="graph" transform="scale(1 1) rotate(0) translate(4 134)">
<title>create_menu</title>
<!-- Node10 -->
<g id="node1" class="node">
<title>Node10</title>
<polygon fill="#bfbfbf" stroke="#000000" points="0,-55.5 0,-73.5 74.3691,-73.5 74.3691,-55.5 0,-55.5"/>
<text text-anchor="middle" x="37.1846" y="-61.5" font-family="Helvetica,sans-Serif" font-size="10.00" fill="#000000">create_menu</text>
</g>
<!-- Node11 -->
<g id="node2" class="node">
<title>Node11</title>
<g id="a_node2"><a xlink:href="log_8h.html#a8e5bb8a2a372f5b066ff7af7044584c1" target="_top" xlink:title="prints a error message and displays on lcd. ">
<polygon fill="none" stroke="#000000" points="110.3691,-55.5 110.3691,-73.5 147.4824,-73.5 147.4824,-55.5 110.3691,-55.5"/>
<text text-anchor="middle" x="128.9258" y="-61.5" font-family="Helvetica,sans-Serif" font-size="10.00" fill="#000000">error</text>
</a>
</g>
</g>
<!-- Node10&#45;&gt;Node11 -->
<g id="edge1" class="edge">
<title>Node10&#45;&gt;Node11</title>
<path fill="none" stroke="#191970" d="M74.4992,-64.5C83.0534,-64.5 92.0192,-64.5 100.149,-64.5"/>
<polygon fill="#191970" stroke="#191970" points="100.25,-68.0001 110.25,-64.5 100.25,-61.0001 100.25,-68.0001"/>
</g>
<!-- Node12 -->
<g id="node3" class="node">
<title>Node12</title>
<g id="a_node3"><a xlink:href="log_8c.html#afff22aff6749311a684a559cac3ac8bd" target="_top" xlink:title="prints a log info message to the lcd ">
<polygon fill="none" stroke="#000000" points="183.4824,-55.5 183.4824,-73.5 234.5117,-73.5 234.5117,-55.5 183.4824,-55.5"/>
<text text-anchor="middle" x="208.9971" y="-61.5" font-family="Helvetica,sans-Serif" font-size="10.00" fill="#000000">log_info</text>
</a>
</g>
</g>
<!-- Node11&#45;&gt;Node12 -->
<g id="edge2" class="edge">
<title>Node11&#45;&gt;Node12</title>
<path fill="none" stroke="#191970" d="M147.497,-64.5C155.1343,-64.5 164.2511,-64.5 173.0958,-64.5"/>
<polygon fill="#191970" stroke="#191970" points="173.2489,-68.0001 183.2489,-64.5 173.2488,-61.0001 173.2489,-68.0001"/>
</g>
<!-- Node13 -->
<g id="node4" class="node">
<title>Node13</title>
<g id="a_node4"><a xlink:href="_a_p_i_8h.html#a5fa1d119fe3e836b5519f97eae7a1272" target="_top" xlink:title="Clears the LCD screen on the specified port. ">
<polygon fill="none" stroke="#000000" points="286.3564,-111.5 286.3564,-129.5 339.0361,-129.5 339.0361,-111.5 286.3564,-111.5"/>
<text text-anchor="middle" x="312.6963" y="-117.5" font-family="Helvetica,sans-Serif" font-size="10.00" fill="#000000">lcdClear</text>
</a>
</g>
</g>
<!-- Node12&#45;&gt;Node13 -->
<g id="edge3" class="edge">
<title>Node12&#45;&gt;Node13</title>
<path fill="none" stroke="#191970" d="M222.3384,-73.5526C234.5751,-81.6578 253.3498,-93.6016 270.5117,-102.5 273.6463,-104.1253 276.9607,-105.7276 280.2985,-107.2661"/>
<polygon fill="#191970" stroke="#191970" points="279.0767,-110.5527 289.6377,-111.3992 281.9096,-104.1516 279.0767,-110.5527"/>
</g>
<!-- Node14 -->
<g id="node5" class="node">
<title>Node14</title>
<g id="a_node5"><a xlink:href="_a_p_i_8h.html#a6cfad8271c6a566a2f51ca318f819a80" target="_top" xlink:title="Prints the formatted string to the attached LCD. ">
<polygon fill="none" stroke="#000000" points="288.0239,-74.5 288.0239,-92.5 337.3687,-92.5 337.3687,-74.5 288.0239,-74.5"/>
<text text-anchor="middle" x="312.6963" y="-80.5" font-family="Helvetica,sans-Serif" font-size="10.00" fill="#000000">lcdPrint</text>
</a>
</g>
</g>
<!-- Node12&#45;&gt;Node14 -->
<g id="edge4" class="edge">
<title>Node12&#45;&gt;Node14</title>
<path fill="none" stroke="#191970" d="M234.6306,-69.1966C247.6616,-71.5842 263.6905,-74.5211 277.8267,-77.1111"/>
<polygon fill="#191970" stroke="#191970" points="277.2484,-80.5633 287.7155,-78.923 278.51,-73.678 277.2484,-80.5633"/>
</g>
<!-- Node15 -->
<g id="node6" class="node">
<title>Node15</title>
<g id="a_node6"><a xlink:href="_a_p_i_8h.html#aab53a247d88151a6623c20fa1ea940b0" target="_top" xlink:title="Sets the specified LCD backlight to be on or off. ">
<polygon fill="none" stroke="#000000" points="270.5117,-37.5 270.5117,-55.5 354.8809,-55.5 354.8809,-37.5 270.5117,-37.5"/>
<text text-anchor="middle" x="312.6963" y="-43.5" font-family="Helvetica,sans-Serif" font-size="10.00" fill="#000000">lcdSetBacklight</text>
</a>
</g>
</g>
<!-- Node12&#45;&gt;Node15 -->
<g id="edge5" class="edge">
<title>Node12&#45;&gt;Node15</title>
<path fill="none" stroke="#191970" d="M234.6306,-60.0506C242.4745,-58.689 251.4046,-57.1389 260.3544,-55.5855"/>
<polygon fill="#191970" stroke="#191970" points="261.1563,-58.9987 270.4104,-53.8399 259.9591,-52.1018 261.1563,-58.9987"/>
</g>
<!-- Node16 -->
<g id="node7" class="node">
<title>Node16</title>
<g id="a_node7"><a xlink:href="_a_p_i_8h.html#a403c82418e475fa4a8273719e6a7f3e6" target="_top" xlink:title="Prints the formatted string to the debug stream (the PC terminal). ">
<polygon fill="none" stroke="#000000" points="293.5806,-.5 293.5806,-18.5 331.812,-18.5 331.812,-.5 293.5806,-.5"/>
<text text-anchor="middle" x="312.6963" y="-6.5" font-family="Helvetica,sans-Serif" font-size="10.00" fill="#000000">printf</text>
</a>
</g>
</g>
<!-- Node12&#45;&gt;Node16 -->
<g id="edge6" class="edge">
<title>Node12&#45;&gt;Node16</title>
<path fill="none" stroke="#191970" d="M223.4188,-55.4724C235.7325,-47.9076 254.0169,-37.0107 270.5117,-28.5 274.8348,-26.2695 279.4733,-24.0309 284.0361,-21.913"/>
<polygon fill="#191970" stroke="#191970" points="285.5048,-25.0902 293.1702,-17.7764 282.6169,-18.7136 285.5048,-25.0902"/>
</g>
</g>
</svg>
