<?xml version="1.0" encoding="UTF-8" standalone="no"?>
<!DOCTYPE svg PUBLIC "-//W3C//DTD SVG 1.1//EN"
 "http://www.w3.org/Graphics/SVG/1.1/DTD/svg11.dtd">
<!-- Generated by graphviz version 2.40.1 (20161225.0304)
 -->
<!-- Title: display_menu Pages: 1 -->
<svg width="549pt" height="195pt"
 viewBox="0.00 0.00 548.86 195.00" xmlns="http://www.w3.org/2000/svg" xmlns:xlink="http://www.w3.org/1999/xlink">
<g id="graph0" class="graph" transform="scale(1 1) rotate(0) translate(4 191)">
<title>display_menu</title>
<!-- Node19 -->
<g id="node1" class="node">
<title>Node19</title>
<polygon fill="#bfbfbf" stroke="#000000" points="0,-84.5 0,-102.5 77.7041,-102.5 77.7041,-84.5 0,-84.5"/>
<text text-anchor="middle" x="38.8521" y="-90.5" font-family="Helvetica,sans-Serif" font-size="10.00" fill="#000000">display_menu</text>
</g>
<!-- Node20 -->
<g id="node2" class="node">
<title>Node20</title>
<g id="a_node2"><a xlink:href="menu_8c.html#a0fb55c1213b23963d509b974d1254567" target="_top" xlink:title="calculate_current_display">
<polygon fill="none" stroke="#000000" points="113.7041,-158.5 113.7041,-176.5 242.5459,-176.5 242.5459,-158.5 113.7041,-158.5"/>
<text text-anchor="middle" x="178.125" y="-164.5" font-family="Helvetica,sans-Serif" font-size="10.00" fill="#000000">calculate_current_display</text>
</a>
</g>
</g>
<!-- Node19&#45;&gt;Node20 -->
<g id="edge1" class="edge">
<title>Node19&#45;&gt;Node20</title>
<path fill="none" stroke="#191970" d="M48.7046,-102.7928C62.3075,-115.1475 88.0763,-136.886 113.7041,-149.5 118.0345,-151.6314 122.6568,-153.5452 127.3621,-155.2558"/>
<polygon fill="#191970" stroke="#191970" points="126.4764,-158.6497 137.07,-158.4864 128.6868,-152.0079 126.4764,-158.6497"/>
</g>
<!-- Node25 -->
<g id="node7" class="node">
<title>Node25</title>
<g id="a_node7"><a xlink:href="_a_p_i_8h.html#a1c59207742a1acf45a8957d7f04f9dfe" target="_top" xlink:title="delay">
<polygon fill="none" stroke="#000000" points="158.1719,-121.5 158.1719,-139.5 198.0781,-139.5 198.0781,-121.5 158.1719,-121.5"/>
<text text-anchor="middle" x="178.125" y="-127.5" font-family="Helvetica,sans-Serif" font-size="10.00" fill="#000000">delay</text>
</a>
</g>
</g>
<!-- Node19&#45;&gt;Node25 -->
<g id="edge7" class="edge">
<title>Node19&#45;&gt;Node25</title>
<path fill="none" stroke="#191970" d="M72.922,-102.5512C95.8638,-108.646 125.8456,-116.6112 147.9305,-122.4784"/>
<polygon fill="#191970" stroke="#191970" points="147.2064,-125.9073 157.7699,-125.0923 149.0038,-119.142 147.2064,-125.9073"/>
</g>
<!-- Node26 -->
<g id="node8" class="node">
<title>Node26</title>
<g id="a_node8"><a xlink:href="_a_p_i_8h.html#a56722b6f1c22da04885bc9853148bb71" target="_top" xlink:title="isEnabled">
<polygon fill="none" stroke="#000000" points="148.1646,-84.5 148.1646,-102.5 208.0854,-102.5 208.0854,-84.5 148.1646,-84.5"/>
<text text-anchor="middle" x="178.125" y="-90.5" font-family="Helvetica,sans-Serif" font-size="10.00" fill="#000000">isEnabled</text>
</a>
</g>
</g>
<!-- Node19&#45;&gt;Node26 -->
<g id="edge8" class="edge">
<title>Node19&#45;&gt;Node26</title>
<path fill="none" stroke="#191970" d="M78.018,-93.5C96.7542,-93.5 119.1562,-93.5 138.0133,-93.5"/>
<polygon fill="#191970" stroke="#191970" points="138.079,-97.0001 148.079,-93.5 138.079,-90.0001 138.079,-97.0001"/>
</g>
<!-- Node27 -->
<g id="node9" class="node">
<title>Node27</title>
<g id="a_node9"><a xlink:href="lcd_8h.html#ac7b3225ccc82fcbe067ba9da934f010d" target="_top" xlink:title="Returns the pressed buttons. ">
<polygon fill="none" stroke="#000000" points="114.251,-47.5 114.251,-65.5 241.999,-65.5 241.999,-47.5 114.251,-47.5"/>
<text text-anchor="middle" x="178.125" y="-53.5" font-family="Helvetica,sans-Serif" font-size="10.00" fill="#000000">lcd_get_pressed_buttons</text>
</a>
</g>
</g>
<!-- Node19&#45;&gt;Node27 -->
<g id="edge9" class="edge">
<title>Node19&#45;&gt;Node27</title>
<path fill="none" stroke="#191970" d="M72.922,-84.4488C91.3849,-79.5438 114.4073,-73.4276 134.2039,-68.1683"/>
<polygon fill="#191970" stroke="#191970" points="135.158,-71.5363 143.924,-65.586 133.3606,-64.771 135.158,-71.5363"/>
</g>
<!-- Node31 -->
<g id="node13" class="node">
<title>Node31</title>
<g id="a_node13"><a xlink:href="lcd_8h.html#adabd3f7cdda45119604b488caf22bba8" target="_top" xlink:title="prints a string to a line on the lcd ">
<polygon fill="none" stroke="#000000" points="151.2261,-10.5 151.2261,-28.5 205.0239,-28.5 205.0239,-10.5 151.2261,-10.5"/>
<text text-anchor="middle" x="178.125" y="-16.5" font-family="Helvetica,sans-Serif" font-size="10.00" fill="#000000">lcd_print</text>
</a>
</g>
</g>
<!-- Node19&#45;&gt;Node31 -->
<g id="edge13" class="edge">
<title>Node19&#45;&gt;Node31</title>
<path fill="none" stroke="#191970" d="M48.7046,-84.2072C62.3075,-71.8525 88.0763,-50.114 113.7041,-37.5 122.2736,-33.2821 131.9865,-29.9164 141.2235,-27.2908"/>
<polygon fill="#191970" stroke="#191970" points="142.2007,-30.6529 150.9831,-24.7268 140.422,-23.8826 142.2007,-30.6529"/>
</g>
<!-- Node21 -->
<g id="node3" class="node">
<title>Node21</title>
<g id="a_node3"><a xlink:href="vlib_8h.html#a8805990ed667939e615e4a98950b8bd1" target="_top" xlink:title="converts a float to string. ">
<polygon fill="none" stroke="#000000" points="294.3833,-168.5 294.3833,-186.5 349.3091,-186.5 349.3091,-168.5 294.3833,-168.5"/>
<text text-anchor="middle" x="321.8462" y="-174.5" font-family="Helvetica,sans-Serif" font-size="10.00" fill="#000000">ftoa_bad</text>
</a>
</g>
</g>
<!-- Node20&#45;&gt;Node21 -->
<g id="edge2" class="edge">
<title>Node20&#45;&gt;Node21</title>
<path fill="none" stroke="#191970" d="M242.8381,-172.0027C256.9245,-172.9828 271.3809,-173.9887 284.0133,-174.8676"/>
<polygon fill="#191970" stroke="#191970" points="283.9284,-178.3701 294.1473,-175.5727 284.4144,-171.387 283.9284,-178.3701"/>
</g>
<!-- Node24 -->
<g id="node6" class="node">
<title>Node24</title>
<g id="a_node6"><a xlink:href="vlib_8h.html#a08fa7134f8b9a80eeba25f9feab22892" target="_top" xlink:title="converts a int to string. ">
<polygon fill="none" stroke="#000000" points="401.1465,-130.5 401.1465,-148.5 455.5156,-148.5 455.5156,-130.5 401.1465,-130.5"/>
<text text-anchor="middle" x="428.3311" y="-136.5" font-family="Helvetica,sans-Serif" font-size="10.00" fill="#000000">itoa_bad</text>
</a>
</g>
</g>
<!-- Node20&#45;&gt;Node24 -->
<g id="edge5" class="edge">
<title>Node20&#45;&gt;Node24</title>
<path fill="none" stroke="#191970" d="M242.5593,-160.2893C289.644,-155.0202 351.8571,-148.058 390.9883,-143.6789"/>
<polygon fill="#191970" stroke="#191970" points="391.5912,-147.1334 401.1399,-142.5429 390.8127,-140.1768 391.5912,-147.1334"/>
</g>
<!-- Node22 -->
<g id="node4" class="node">
<title>Node22</title>
<g id="a_node4"><a xlink:href="vlib_8c.html#a08fa7134f8b9a80eeba25f9feab22892" target="_top" xlink:title="converts a int to string. ">
<polygon fill="none" stroke="#000000" points="401.1465,-167.5 401.1465,-185.5 455.5156,-185.5 455.5156,-167.5 401.1465,-167.5"/>
<text text-anchor="middle" x="428.3311" y="-173.5" font-family="Helvetica,sans-Serif" font-size="10.00" fill="#000000">itoa_bad</text>
</a>
</g>
</g>
<!-- Node21&#45;&gt;Node22 -->
<g id="edge3" class="edge">
<title>Node21&#45;&gt;Node22</title>
<path fill="none" stroke="#191970" d="M349.5459,-177.2399C362.2152,-177.1209 377.4133,-176.9782 391.0665,-176.85"/>
<polygon fill="#191970" stroke="#191970" points="391.1719,-180.3492 401.1385,-176.7554 391.1061,-173.3495 391.1719,-180.3492"/>
</g>
<!-- Node23 -->
<g id="node5" class="node">
<title>Node23</title>
<g id="a_node5"><a xlink:href="vlib_8c.html#aad7fea725cb4b198ace1aa3df5051244" target="_top" xlink:title="reverses a string &#39;str&#39; of length &#39;len&#39; ">
<polygon fill="none" stroke="#000000" points="491.5156,-148.5 491.5156,-166.5 540.8604,-166.5 540.8604,-148.5 491.5156,-148.5"/>
<text text-anchor="middle" x="516.188" y="-154.5" font-family="Helvetica,sans-Serif" font-size="10.00" fill="#000000">reverse</text>
</a>
</g>
</g>
<!-- Node22&#45;&gt;Node23 -->
<g id="edge4" class="edge">
<title>Node22&#45;&gt;Node23</title>
<path fill="none" stroke="#191970" d="M455.6479,-170.5924C463.7413,-168.8421 472.717,-166.9011 481.2242,-165.0613"/>
<polygon fill="#191970" stroke="#191970" points="482.2437,-168.4218 491.2779,-162.8871 480.764,-161.58 482.2437,-168.4218"/>
</g>
<!-- Node24&#45;&gt;Node23 -->
<g id="edge6" class="edge">
<title>Node24&#45;&gt;Node23</title>
<path fill="none" stroke="#191970" d="M455.6479,-145.0966C463.7413,-146.7548 472.717,-148.5937 481.2242,-150.3367"/>
<polygon fill="#191970" stroke="#191970" points="480.7789,-153.8181 491.2779,-152.3965 482.1839,-146.9605 480.7789,-153.8181"/>
</g>
<!-- Node28 -->
<g id="node10" class="node">
<title>Node28</title>
<g id="a_node10"><a xlink:href="lcd_8c.html#a07f04b524b5ded617d5f193db05ba0ad" target="_top" xlink:title="Asserts the lcd is initialized Works by checking is the File *lcd_port is the default NULL value and ...">
<polygon fill="none" stroke="#000000" points="291.0581,-37.5 291.0581,-55.5 352.6343,-55.5 352.6343,-37.5 291.0581,-37.5"/>
<text text-anchor="middle" x="321.8462" y="-43.5" font-family="Helvetica,sans-Serif" font-size="10.00" fill="#000000">lcd_assert</text>
</a>
</g>
</g>
<!-- Node27&#45;&gt;Node28 -->
<g id="edge10" class="edge">
<title>Node27&#45;&gt;Node28</title>
<path fill="none" stroke="#191970" d="M242.0002,-52.0556C255.1046,-51.1438 268.5677,-50.2071 280.6172,-49.3687"/>
<polygon fill="#191970" stroke="#191970" points="281.0648,-52.8461 290.7977,-48.6603 280.5789,-45.863 281.0648,-52.8461"/>
</g>
<!-- Node30 -->
<g id="node12" class="node">
<title>Node30</title>
<g id="a_node12"><a xlink:href="_a_p_i_8h.html#a040d36e5c81594fd05d5042f3e540aed" target="_top" xlink:title="lcdReadButtons">
<polygon fill="none" stroke="#000000" points="278.5459,-74.5 278.5459,-92.5 365.1465,-92.5 365.1465,-74.5 278.5459,-74.5"/>
<text text-anchor="middle" x="321.8462" y="-80.5" font-family="Helvetica,sans-Serif" font-size="10.00" fill="#000000">lcdReadButtons</text>
</a>
</g>
</g>
<!-- Node27&#45;&gt;Node30 -->
<g id="edge12" class="edge">
<title>Node27&#45;&gt;Node30</title>
<path fill="none" stroke="#191970" d="M226.3819,-65.5657C239.8997,-68.1052 254.6711,-70.8802 268.4675,-73.4721"/>
<polygon fill="#191970" stroke="#191970" points="267.8348,-76.9144 278.3091,-75.321 269.1273,-70.0347 267.8348,-76.9144"/>
</g>
<!-- Node29 -->
<g id="node11" class="node">
<title>Node29</title>
<g id="a_node11"><a xlink:href="_a_p_i_8h.html#a403c82418e475fa4a8273719e6a7f3e6" target="_top" xlink:title="printf">
<polygon fill="none" stroke="#000000" points="409.2153,-37.5 409.2153,-55.5 447.4468,-55.5 447.4468,-37.5 409.2153,-37.5"/>
<text text-anchor="middle" x="428.3311" y="-43.5" font-family="Helvetica,sans-Serif" font-size="10.00" fill="#000000">printf</text>
</a>
</g>
</g>
<!-- Node28&#45;&gt;Node29 -->
<g id="edge11" class="edge">
<title>Node28&#45;&gt;Node29</title>
<path fill="none" stroke="#191970" d="M352.646,-46.5C367.1344,-46.5 384.3366,-46.5 398.6772,-46.5"/>
<polygon fill="#191970" stroke="#191970" points="398.9935,-50.0001 408.9934,-46.5 398.9934,-43.0001 398.9935,-50.0001"/>
</g>
<!-- Node31&#45;&gt;Node28 -->
<g id="edge14" class="edge">
<title>Node31&#45;&gt;Node28</title>
<path fill="none" stroke="#191970" d="M205.1579,-24.5785C226.5027,-28.5884 256.633,-34.2488 280.9296,-38.8133"/>
<polygon fill="#191970" stroke="#191970" points="280.4684,-42.2878 290.9427,-40.6944 281.7609,-35.4081 280.4684,-42.2878"/>
</g>
<!-- Node32 -->
<g id="node14" class="node">
<title>Node32</title>
<g id="a_node14"><a xlink:href="_a_p_i_8h.html#aae51423c0e108729bbb4d26a1b265eb3" target="_top" xlink:title="lcdSetText">
<polygon fill="none" stroke="#000000" points="290.7798,-.5 290.7798,-18.5 352.9126,-18.5 352.9126,-.5 290.7798,-.5"/>
<text text-anchor="middle" x="321.8462" y="-6.5" font-family="Helvetica,sans-Serif" font-size="10.00" fill="#000000">lcdSetText</text>
</a>
</g>
</g>
<!-- Node31&#45;&gt;Node32 -->
<g id="edge15" class="edge">
<title>Node31&#45;&gt;Node32</title>
<path fill="none" stroke="#191970" d="M205.1579,-17.6191C226.4315,-16.1389 256.4322,-14.0514 280.6865,-12.3639"/>
<polygon fill="#191970" stroke="#191970" points="280.9542,-15.8538 290.6871,-11.668 280.4683,-8.8707 280.9542,-15.8538"/>
</g>
</g>
</svg>
