<?xml version="1.0" encoding="UTF-8" standalone="no"?>
<!DOCTYPE svg PUBLIC "-//W3C//DTD SVG 1.1//EN"
 "http://www.w3.org/Graphics/SVG/1.1/DTD/svg11.dtd">
<!-- Generated by graphviz version 2.40.1 (20161225.0304)
 -->
<!-- Title: init_menu_float Pages: 1 -->
<svg width="483pt" height="157pt"
 viewBox="0.00 0.00 482.70 157.00" xmlns="http://www.w3.org/2000/svg" xmlns:xlink="http://www.w3.org/1999/xlink">
<g id="graph0" class="graph" transform="scale(1 1) rotate(0) translate(4 153)">
<title>init_menu_float</title>
<!-- Node20 -->
<g id="node1" class="node">
<title>Node20</title>
<polygon fill="#bfbfbf" stroke="#000000" points="0,-37.5 0,-55.5 83.8223,-55.5 83.8223,-37.5 0,-37.5"/>
<text text-anchor="middle" x="41.9111" y="-43.5" font-family="Helvetica,sans-Serif" font-size="10.00" fill="#000000">init_menu_float</text>
</g>
<!-- Node21 -->
<g id="node2" class="node">
<title>Node21</title>
<g id="a_node2"><a xlink:href="menu_8c.html#aff4fd27ff7707295d91c67fa52a6b021" target="_top" xlink:title="Static function that handles creation of menu. ">
<polygon fill="none" stroke="#000000" points="119.8223,-74.5 119.8223,-92.5 194.1914,-92.5 194.1914,-74.5 119.8223,-74.5"/>
<text text-anchor="middle" x="157.0068" y="-80.5" font-family="Helvetica,sans-Serif" font-size="10.00" fill="#000000">create_menu</text>
</a>
</g>
</g>
<!-- Node20&#45;&gt;Node21 -->
<g id="edge1" class="edge">
<title>Node20&#45;&gt;Node21</title>
<path fill="none" stroke="#191970" d="M70.0667,-55.5512C84.8368,-60.2994 103.1379,-66.1827 119.1336,-71.3248"/>
<polygon fill="#191970" stroke="#191970" points="118.1517,-74.6855 128.743,-74.414 120.294,-68.0214 118.1517,-74.6855"/>
</g>
<!-- Node28 -->
<g id="node9" class="node">
<title>Node28</title>
<g id="a_node9"><a xlink:href="vmath_8h.html#af082905f7eac6d03e92015146bbc1925" target="_top" xlink:title="the min of two values ">
<polygon fill="none" stroke="#000000" points="139.561,-37.5 139.561,-55.5 174.4526,-55.5 174.4526,-37.5 139.561,-37.5"/>
<text text-anchor="middle" x="157.0068" y="-43.5" font-family="Helvetica,sans-Serif" font-size="10.00" fill="#000000">max</text>
</a>
</g>
</g>
<!-- Node20&#45;&gt;Node28 -->
<g id="edge8" class="edge">
<title>Node20&#45;&gt;Node28</title>
<path fill="none" stroke="#191970" d="M84.115,-46.5C99.2008,-46.5 115.8043,-46.5 129.3496,-46.5"/>
<polygon fill="#191970" stroke="#191970" points="129.4696,-50.0001 139.4695,-46.5 129.4695,-43.0001 129.4696,-50.0001"/>
</g>
<!-- Node29 -->
<g id="node10" class="node">
<title>Node29</title>
<g id="a_node10"><a xlink:href="vmath_8h.html#abd8bbcfabb3ddef2ccaafb9928a37b95" target="_top" xlink:title="the min of two values ">
<polygon fill="none" stroke="#000000" points="140.9502,-.5 140.9502,-18.5 173.0635,-18.5 173.0635,-.5 140.9502,-.5"/>
<text text-anchor="middle" x="157.0068" y="-6.5" font-family="Helvetica,sans-Serif" font-size="10.00" fill="#000000">min</text>
</a>
</g>
</g>
<!-- Node20&#45;&gt;Node29 -->
<g id="edge9" class="edge">
<title>Node20&#45;&gt;Node29</title>
<path fill="none" stroke="#191970" d="M70.0667,-37.4488C88.7347,-31.4476 113.0433,-23.633 131.2086,-17.7934"/>
<polygon fill="#191970" stroke="#191970" points="132.3999,-21.0869 140.8489,-14.6943 130.2575,-14.4228 132.3999,-21.0869"/>
</g>
<!-- Node22 -->
<g id="node3" class="node">
<title>Node22</title>
<g id="a_node3"><a xlink:href="log_8h.html#a8e5bb8a2a372f5b066ff7af7044584c1" target="_top" xlink:title="prints a error message and displays on lcd. ">
<polygon fill="none" stroke="#000000" points="230.1914,-74.5 230.1914,-92.5 267.3047,-92.5 267.3047,-74.5 230.1914,-74.5"/>
<text text-anchor="middle" x="248.748" y="-80.5" font-family="Helvetica,sans-Serif" font-size="10.00" fill="#000000">error</text>
</a>
</g>
</g>
<!-- Node21&#45;&gt;Node22 -->
<g id="edge2" class="edge">
<title>Node21&#45;&gt;Node22</title>
<path fill="none" stroke="#191970" d="M194.3215,-83.5C202.8757,-83.5 211.8415,-83.5 219.9713,-83.5"/>
<polygon fill="#191970" stroke="#191970" points="220.0723,-87.0001 230.0723,-83.5 220.0722,-80.0001 220.0723,-87.0001"/>
</g>
<!-- Node23 -->
<g id="node4" class="node">
<title>Node23</title>
<g id="a_node4"><a xlink:href="log_8c.html#afff22aff6749311a684a559cac3ac8bd" target="_top" xlink:title="prints a log info message to the lcd ">
<polygon fill="none" stroke="#000000" points="303.3047,-74.5 303.3047,-92.5 354.334,-92.5 354.334,-74.5 303.3047,-74.5"/>
<text text-anchor="middle" x="328.8193" y="-80.5" font-family="Helvetica,sans-Serif" font-size="10.00" fill="#000000">log_info</text>
</a>
</g>
</g>
<!-- Node22&#45;&gt;Node23 -->
<g id="edge3" class="edge">
<title>Node22&#45;&gt;Node23</title>
<path fill="none" stroke="#191970" d="M267.3193,-83.5C274.9565,-83.5 284.0733,-83.5 292.9181,-83.5"/>
<polygon fill="#191970" stroke="#191970" points="293.0712,-87.0001 303.0711,-83.5 293.0711,-80.0001 293.0712,-87.0001"/>
</g>
<!-- Node24 -->
<g id="node5" class="node">
<title>Node24</title>
<g id="a_node5"><a xlink:href="_a_p_i_8h.html#a403c82418e475fa4a8273719e6a7f3e6" target="_top" xlink:title="Prints the formatted string to the debug stream (the PC terminal). ">
<polygon fill="none" stroke="#000000" points="413.4028,-130.5 413.4028,-148.5 451.6343,-148.5 451.6343,-130.5 413.4028,-130.5"/>
<text text-anchor="middle" x="432.5186" y="-136.5" font-family="Helvetica,sans-Serif" font-size="10.00" fill="#000000">printf</text>
</a>
</g>
</g>
<!-- Node23&#45;&gt;Node24 -->
<g id="edge4" class="edge">
<title>Node23&#45;&gt;Node24</title>
<path fill="none" stroke="#191970" d="M342.1607,-92.5526C354.3973,-100.6578 373.1721,-112.6016 390.334,-121.5 394.699,-123.7632 399.4127,-125.9819 404.0528,-128.0459"/>
<polygon fill="#191970" stroke="#191970" points="402.7689,-131.3035 413.3388,-132.0298 405.5288,-124.8706 402.7689,-131.3035"/>
</g>
<!-- Node25 -->
<g id="node6" class="node">
<title>Node25</title>
<g id="a_node6"><a xlink:href="_a_p_i_8h.html#aab53a247d88151a6623c20fa1ea940b0" target="_top" xlink:title="Sets the specified LCD backlight to be on or off. ">
<polygon fill="none" stroke="#000000" points="390.334,-93.5 390.334,-111.5 474.7031,-111.5 474.7031,-93.5 390.334,-93.5"/>
<text text-anchor="middle" x="432.5186" y="-99.5" font-family="Helvetica,sans-Serif" font-size="10.00" fill="#000000">lcdSetBacklight</text>
</a>
</g>
</g>
<!-- Node23&#45;&gt;Node25 -->
<g id="edge5" class="edge">
<title>Node23&#45;&gt;Node25</title>
<path fill="none" stroke="#191970" d="M354.4529,-88.1966C362.2967,-89.6338 371.2269,-91.27 380.1766,-92.9098"/>
<polygon fill="#191970" stroke="#191970" points="379.7656,-96.3927 390.2326,-94.7523 381.0272,-89.5073 379.7656,-96.3927"/>
</g>
<!-- Node26 -->
<g id="node7" class="node">
<title>Node26</title>
<g id="a_node7"><a xlink:href="_a_p_i_8h.html#a5fa1d119fe3e836b5519f97eae7a1272" target="_top" xlink:title="Clears the LCD screen on the specified port. ">
<polygon fill="none" stroke="#000000" points="406.1787,-56.5 406.1787,-74.5 458.8584,-74.5 458.8584,-56.5 406.1787,-56.5"/>
<text text-anchor="middle" x="432.5186" y="-62.5" font-family="Helvetica,sans-Serif" font-size="10.00" fill="#000000">lcdClear</text>
</a>
</g>
</g>
<!-- Node23&#45;&gt;Node26 -->
<g id="edge6" class="edge">
<title>Node23&#45;&gt;Node26</title>
<path fill="none" stroke="#191970" d="M354.4529,-79.0506C366.975,-76.877 382.2655,-74.2229 395.9845,-71.8415"/>
<polygon fill="#191970" stroke="#191970" points="396.8432,-75.2449 406.0972,-70.0862 395.646,-68.348 396.8432,-75.2449"/>
</g>
<!-- Node27 -->
<g id="node8" class="node">
<title>Node27</title>
<g id="a_node8"><a xlink:href="_a_p_i_8h.html#a6cfad8271c6a566a2f51ca318f819a80" target="_top" xlink:title="Prints the formatted string to the attached LCD. ">
<polygon fill="none" stroke="#000000" points="407.8462,-19.5 407.8462,-37.5 457.1909,-37.5 457.1909,-19.5 407.8462,-19.5"/>
<text text-anchor="middle" x="432.5186" y="-25.5" font-family="Helvetica,sans-Serif" font-size="10.00" fill="#000000">lcdPrint</text>
</a>
</g>
</g>
<!-- Node23&#45;&gt;Node27 -->
<g id="edge7" class="edge">
<title>Node23&#45;&gt;Node27</title>
<path fill="none" stroke="#191970" d="M343.2411,-74.4724C355.5548,-66.9076 373.8391,-56.0107 390.334,-47.5 394.1083,-45.5526 398.123,-43.5991 402.118,-41.7251"/>
<polygon fill="#191970" stroke="#191970" points="403.6409,-44.8774 411.2809,-37.537 400.7309,-38.5109 403.6409,-44.8774"/>
</g>
</g>
</svg>
