<?xml version="1.0" encoding="UTF-8" standalone="no"?>
<!DOCTYPE svg PUBLIC "-//W3C//DTD SVG 1.1//EN"
 "http://www.w3.org/Graphics/SVG/1.1/DTD/svg11.dtd">
<!-- Generated by graphviz version 2.40.1 (20161225.0304)
 -->
<!-- Title: include/menu.h Pages: 1 -->
<svg width="560pt" height="137pt"
 viewBox="0.00 0.00 559.85 137.00" xmlns="http://www.w3.org/2000/svg" xmlns:xlink="http://www.w3.org/1999/xlink">
<g id="graph0" class="graph" transform="scale(1 1) rotate(0) translate(4 133)">
<title>include/menu.h</title>
<!-- Node0 -->
<g id="node1" class="node">
<title>Node0</title>
<polygon fill="#bfbfbf" stroke="#000000" points="184.3179,-110.5 184.3179,-128.5 268.1401,-128.5 268.1401,-110.5 184.3179,-110.5"/>
<text text-anchor="middle" x="226.229" y="-116.5" font-family="Helvetica,sans-Serif" font-size="10.00" fill="#000000">include/menu.h</text>
</g>
<!-- Node1 -->
<g id="node2" class="node">
<title>Node1</title>
<g id="a_node2"><a xlink:href="lcd_8h.html" target="_top" xlink:title="LCD wrapper functions and macros. ">
<polygon fill="none" stroke="#000000" points="16.6675,-55.5 16.6675,-73.5 53.7905,-73.5 53.7905,-55.5 16.6675,-55.5"/>
<text text-anchor="middle" x="35.229" y="-61.5" font-family="Helvetica,sans-Serif" font-size="10.00" fill="#000000">lcd.h</text>
</a>
</g>
</g>
<!-- Node0&#45;&gt;Node1 -->
<g id="edge1" class="edge">
<title>Node0&#45;&gt;Node1</title>
<path fill="none" stroke="#191970" d="M190.8359,-110.4216C159.5678,-102.2375 112.5432,-89.5329 63.8203,-74.3719"/>
<polygon fill="#191970" stroke="#191970" points="64.6465,-70.9629 54.0573,-71.3075 62.5502,-77.6417 64.6465,-70.9629"/>
</g>
<!-- Node2 -->
<g id="node3" class="node">
<title>Node2</title>
<polygon fill="none" stroke="#bfbfbf" points="0,-.5 0,-18.5 40.458,-18.5 40.458,-.5 0,-.5"/>
<text text-anchor="middle" x="20.229" y="-6.5" font-family="Helvetica,sans-Serif" font-size="10.00" fill="#000000">API.h</text>
</g>
<!-- Node0&#45;&gt;Node2 -->
<g id="edge3" class="edge">
<title>Node0&#45;&gt;Node2</title>
<path fill="none" stroke="#191970" d="M184.1824,-116.9065C126.9456,-112.3988 29.1019,-100.8844 7.229,-74 -3.329,-61.023 2.4477,-41.7843 9.3249,-27.6955"/>
<polygon fill="#191970" stroke="#191970" points="12.6161,-28.9687 14.3093,-18.51 6.4636,-25.6301 12.6161,-28.9687"/>
</g>
<!-- Node3 -->
<g id="node4" class="node">
<title>Node3</title>
<polygon fill="none" stroke="#bfbfbf" points="167.3867,-55.5 167.3867,-73.5 215.0713,-73.5 215.0713,-55.5 167.3867,-55.5"/>
<text text-anchor="middle" x="191.229" y="-61.5" font-family="Helvetica,sans-Serif" font-size="10.00" fill="#000000">stdlib.h</text>
</g>
<!-- Node0&#45;&gt;Node3 -->
<g id="edge4" class="edge">
<title>Node0&#45;&gt;Node3</title>
<path fill="none" stroke="#191970" d="M220.4495,-110.4179C215.6149,-102.8207 208.5716,-91.7527 202.6114,-82.3866"/>
<polygon fill="#191970" stroke="#191970" points="205.4557,-80.337 197.1341,-73.7795 199.5501,-84.0952 205.4557,-80.337"/>
</g>
<!-- Node4 -->
<g id="node5" class="node">
<title>Node4</title>
<polygon fill="none" stroke="#bfbfbf" points="232.936,-55.5 232.936,-73.5 289.522,-73.5 289.522,-55.5 232.936,-55.5"/>
<text text-anchor="middle" x="261.229" y="-61.5" font-family="Helvetica,sans-Serif" font-size="10.00" fill="#000000">stdbool.h</text>
</g>
<!-- Node0&#45;&gt;Node4 -->
<g id="edge5" class="edge">
<title>Node0&#45;&gt;Node4</title>
<path fill="none" stroke="#191970" d="M232.0085,-110.4179C236.8431,-102.8207 243.8864,-91.7527 249.8466,-82.3866"/>
<polygon fill="#191970" stroke="#191970" points="252.9079,-84.0952 255.3239,-73.7795 247.0023,-80.337 252.9079,-84.0952"/>
</g>
<!-- Node5 -->
<g id="node6" class="node">
<title>Node5</title>
<polygon fill="none" stroke="#bfbfbf" points="307.1626,-55.5 307.1626,-73.5 359.2954,-73.5 359.2954,-55.5 307.1626,-55.5"/>
<text text-anchor="middle" x="333.229" y="-61.5" font-family="Helvetica,sans-Serif" font-size="10.00" fill="#000000">stdarg.h</text>
</g>
<!-- Node0&#45;&gt;Node5 -->
<g id="edge6" class="edge">
<title>Node0&#45;&gt;Node5</title>
<path fill="none" stroke="#191970" d="M243.8979,-110.4179C260.9353,-101.6603 286.9452,-88.2907 306.5129,-78.2326"/>
<polygon fill="#191970" stroke="#191970" points="308.2401,-81.2801 315.5339,-73.5956 305.0399,-75.0544 308.2401,-81.2801"/>
</g>
<!-- Node6 -->
<g id="node7" class="node">
<title>Node6</title>
<polygon fill="none" stroke="#bfbfbf" points="377.1084,-55.5 377.1084,-73.5 425.3496,-73.5 425.3496,-55.5 377.1084,-55.5"/>
<text text-anchor="middle" x="401.229" y="-61.5" font-family="Helvetica,sans-Serif" font-size="10.00" fill="#000000">stdint.h</text>
</g>
<!-- Node0&#45;&gt;Node6 -->
<g id="edge7" class="edge">
<title>Node0&#45;&gt;Node6</title>
<path fill="none" stroke="#191970" d="M255.1267,-110.4179C286.0072,-100.7126 334.9103,-85.343 367.5226,-75.0935"/>
<polygon fill="#191970" stroke="#191970" points="368.5921,-78.4262 377.0826,-72.0889 366.4932,-71.7482 368.5921,-78.4262"/>
</g>
<!-- Node7 -->
<g id="node8" class="node">
<title>Node7</title>
<polygon fill="none" stroke="#bfbfbf" points="123.8325,-.5 123.8325,-18.5 172.6255,-18.5 172.6255,-.5 123.8325,-.5"/>
<text text-anchor="middle" x="148.229" y="-6.5" font-family="Helvetica,sans-Serif" font-size="10.00" fill="#000000">string.h</text>
</g>
<!-- Node0&#45;&gt;Node7 -->
<g id="edge8" class="edge">
<title>Node0&#45;&gt;Node7</title>
<path fill="none" stroke="#191970" d="M203.908,-110.4286C188.5292,-102.977 168.9941,-90.8894 158.229,-74 149.664,-60.5623 147.4913,-42.4249 147.2726,-28.8059"/>
<polygon fill="#191970" stroke="#191970" points="150.7751,-28.6908 147.451,-18.631 143.7761,-28.568 150.7751,-28.6908"/>
</g>
<!-- Node8 -->
<g id="node9" class="node">
<title>Node8</title>
<polygon fill="none" stroke="#bfbfbf" points="443.6724,-55.5 443.6724,-73.5 490.7856,-73.5 490.7856,-55.5 443.6724,-55.5"/>
<text text-anchor="middle" x="467.229" y="-61.5" font-family="Helvetica,sans-Serif" font-size="10.00" fill="#000000">limits.h</text>
</g>
<!-- Node0&#45;&gt;Node8 -->
<g id="edge9" class="edge">
<title>Node0&#45;&gt;Node8</title>
<path fill="none" stroke="#191970" d="M268.2481,-111.1436C308.3365,-102.9848 370.6183,-89.8268 433.7583,-73.9938"/>
<polygon fill="#191970" stroke="#191970" points="434.6489,-77.3789 443.486,-71.5346 432.9332,-70.5923 434.6489,-77.3789"/>
</g>
<!-- Node9 -->
<g id="node10" class="node">
<title>Node9</title>
<polygon fill="none" stroke="#bfbfbf" points="508.6084,-55.5 508.6084,-73.5 551.8496,-73.5 551.8496,-55.5 508.6084,-55.5"/>
<text text-anchor="middle" x="530.229" y="-61.5" font-family="Helvetica,sans-Serif" font-size="10.00" fill="#000000">float.h</text>
</g>
<!-- Node0&#45;&gt;Node9 -->
<g id="edge10" class="edge">
<title>Node0&#45;&gt;Node9</title>
<path fill="none" stroke="#191970" d="M268.3788,-114.3941C320.4908,-107.6661 411.9999,-94.4988 498.4096,-74.195"/>
<polygon fill="#191970" stroke="#191970" points="499.4612,-77.5424 508.3749,-71.8156 497.8355,-70.7337 499.4612,-77.5424"/>
</g>
<!-- Node10 -->
<g id="node11" class="node">
<title>Node10</title>
<g id="a_node11"><a xlink:href="vlib_8h.html" target="_top" xlink:title="Contains misc helpful functions. ">
<polygon fill="none" stroke="#000000" points="71.5566,-55.5 71.5566,-73.5 110.9014,-73.5 110.9014,-55.5 71.5566,-55.5"/>
<text text-anchor="middle" x="91.229" y="-61.5" font-family="Helvetica,sans-Serif" font-size="10.00" fill="#000000">vlib.h</text>
</a>
</g>
</g>
<!-- Node0&#45;&gt;Node10 -->
<g id="edge11" class="edge">
<title>Node0&#45;&gt;Node10</title>
<path fill="none" stroke="#191970" d="M203.9365,-110.4179C181.0611,-101.0982 145.3655,-86.5556 120.2882,-76.3389"/>
<polygon fill="#191970" stroke="#191970" points="121.4993,-73.0531 110.9178,-72.5214 118.8582,-79.5357 121.4993,-73.0531"/>
</g>
<!-- Node1&#45;&gt;Node2 -->
<g id="edge2" class="edge">
<title>Node1&#45;&gt;Node2</title>
<path fill="none" stroke="#191970" d="M32.7521,-55.4179C30.7664,-48.1372 27.9115,-37.669 25.4288,-28.5659"/>
<polygon fill="#191970" stroke="#191970" points="28.7677,-27.5062 22.7598,-18.7795 22.0143,-29.348 28.7677,-27.5062"/>
</g>
<!-- Node10&#45;&gt;Node2 -->
<g id="edge13" class="edge">
<title>Node10&#45;&gt;Node2</title>
<path fill="none" stroke="#191970" d="M79.5048,-55.4179C68.8802,-47.1876 52.9973,-34.8839 40.346,-25.0836"/>
<polygon fill="#191970" stroke="#191970" points="42.2569,-22.1365 32.2079,-18.7795 37.9701,-27.6704 42.2569,-22.1365"/>
</g>
<!-- Node10&#45;&gt;Node7 -->
<g id="edge14" class="edge">
<title>Node10&#45;&gt;Node7</title>
<path fill="none" stroke="#191970" d="M100.6414,-55.4179C108.9249,-47.425 121.1899,-35.5903 131.1935,-25.9377"/>
<polygon fill="#191970" stroke="#191970" points="133.8462,-28.2419 138.6121,-18.7795 128.9856,-23.2045 133.8462,-28.2419"/>
</g>
<!-- Node11 -->
<g id="node12" class="node">
<title>Node11</title>
<polygon fill="none" stroke="#bfbfbf" points="58.9434,-.5 58.9434,-18.5 105.5146,-18.5 105.5146,-.5 58.9434,-.5"/>
<text text-anchor="middle" x="82.229" y="-6.5" font-family="Helvetica,sans-Serif" font-size="10.00" fill="#000000">math.h</text>
</g>
<!-- Node10&#45;&gt;Node11 -->
<g id="edge12" class="edge">
<title>Node10&#45;&gt;Node11</title>
<path fill="none" stroke="#191970" d="M89.7428,-55.4179C88.5644,-48.2164 86.8757,-37.8962 85.3975,-28.8632"/>
<polygon fill="#191970" stroke="#191970" points="88.8165,-28.083 83.7475,-18.7795 81.9084,-29.2134 88.8165,-28.083"/>
</g>
</g>
</svg>
