<?xml version="1.0" encoding="UTF-8" standalone="no"?>
<!DOCTYPE svg PUBLIC "-//W3C//DTD SVG 1.1//EN"
 "http://www.w3.org/Graphics/SVG/1.1/DTD/svg11.dtd">
<!-- Generated by graphviz version 2.40.1 (20161225.0304)
 -->
<!-- Title: display_menu Pages: 1 -->
<svg width="433pt" height="175pt"
 viewBox="0.00 0.00 433.47 175.00" xmlns="http://www.w3.org/2000/svg" xmlns:xlink="http://www.w3.org/1999/xlink">
<g id="graph0" class="graph" transform="scale(1 1) rotate(0) translate(4 171)">
<title>display_menu</title>
<!-- Node6 -->
<g id="node1" class="node">
<title>Node6</title>
<polygon fill="#bfbfbf" stroke="#000000" points="0,-37.5 0,-55.5 77.7041,-55.5 77.7041,-37.5 0,-37.5"/>
<text text-anchor="middle" x="38.8521" y="-43.5" font-family="Helvetica,sans-Serif" font-size="10.00" fill="#000000">display_menu</text>
</g>
<!-- Node7 -->
<g id="node2" class="node">
<title>Node7</title>
<g id="a_node2"><a xlink:href="$menu_8c.html#a0fb55c1213b23963d509b974d1254567" xlink:title="calculate_current_display">
<polygon fill="none" stroke="#000000" points="113.7041,-74.5 113.7041,-92.5 242.5459,-92.5 242.5459,-74.5 113.7041,-74.5"/>
<text text-anchor="middle" x="178.125" y="-80.5" font-family="Helvetica,sans-Serif" font-size="10.00" fill="#000000">calculate_current_display</text>
</a>
</g>
</g>
<!-- Node6&#45;&gt;Node7 -->
<g id="edge1" class="edge">
<title>Node6&#45;&gt;Node7</title>
<path fill="none" stroke="#191970" d="M72.922,-55.5512C91.3849,-60.4562 114.4073,-66.5724 134.2039,-71.8317"/>
<polygon fill="#191970" stroke="#191970" points="133.3606,-75.229 143.924,-74.414 135.158,-68.4637 133.3606,-75.229"/>
</g>
<!-- Node13 -->
<g id="node8" class="node">
<title>Node13</title>
<g id="a_node8"><a xlink:href="$lcd_8h.html#ac7b3225ccc82fcbe067ba9da934f010d" xlink:title="Returns the pressed buttons. ">
<polygon fill="none" stroke="#000000" points="114.251,-37.5 114.251,-55.5 241.999,-55.5 241.999,-37.5 114.251,-37.5"/>
<text text-anchor="middle" x="178.125" y="-43.5" font-family="Helvetica,sans-Serif" font-size="10.00" fill="#000000">lcd_get_pressed_buttons</text>
</a>
</g>
</g>
<!-- Node6&#45;&gt;Node13 -->
<g id="edge7" class="edge">
<title>Node6&#45;&gt;Node13</title>
<path fill="none" stroke="#191970" d="M78.018,-46.5C86.2018,-46.5 95.0851,-46.5 104.0669,-46.5"/>
<polygon fill="#191970" stroke="#191970" points="104.2175,-50.0001 114.2174,-46.5 104.2174,-43.0001 104.2175,-50.0001"/>
</g>
<!-- Node15 -->
<g id="node10" class="node">
<title>Node15</title>
<g id="a_node10"><a xlink:href="$lcd_8h.html#adabd3f7cdda45119604b488caf22bba8" xlink:title="prints a string to a line on the lcd ">
<polygon fill="none" stroke="#000000" points="151.2261,-.5 151.2261,-18.5 205.0239,-18.5 205.0239,-.5 151.2261,-.5"/>
<text text-anchor="middle" x="178.125" y="-6.5" font-family="Helvetica,sans-Serif" font-size="10.00" fill="#000000">lcd_print</text>
</a>
</g>
</g>
<!-- Node6&#45;&gt;Node15 -->
<g id="edge9" class="edge">
<title>Node6&#45;&gt;Node15</title>
<path fill="none" stroke="#191970" d="M72.922,-37.4488C93.5454,-31.9699 119.8578,-24.9796 141.0086,-19.3605"/>
<polygon fill="#191970" stroke="#191970" points="142.1634,-22.6752 150.9295,-16.7249 140.3661,-15.9099 142.1634,-22.6752"/>
</g>
<!-- Node8 -->
<g id="node3" class="node">
<title>Node8</title>
<g id="a_node3"><a xlink:href="$vmath_8h.html#abd8bbcfabb3ddef2ccaafb9928a37b95" xlink:title="the min of two values ">
<polygon fill="none" stroke="#000000" points="293.2773,-148.5 293.2773,-166.5 325.3906,-166.5 325.3906,-148.5 293.2773,-148.5"/>
<text text-anchor="middle" x="309.334" y="-154.5" font-family="Helvetica,sans-Serif" font-size="10.00" fill="#000000">min</text>
</a>
</g>
</g>
<!-- Node7&#45;&gt;Node8 -->
<g id="edge2" class="edge">
<title>Node7&#45;&gt;Node8</title>
<path fill="none" stroke="#191970" d="M194.2138,-92.5739C216.7404,-105.2785 257.8884,-128.4854 284.4007,-143.438"/>
<polygon fill="#191970" stroke="#191970" points="282.684,-146.488 293.1136,-148.3519 286.1227,-140.3909 282.684,-146.488"/>
</g>
<!-- Node9 -->
<g id="node4" class="node">
<title>Node9</title>
<g id="a_node4"><a xlink:href="$vmath_8h.html#af082905f7eac6d03e92015146bbc1925" xlink:title="the min of two values ">
<polygon fill="none" stroke="#000000" points="291.8882,-111.5 291.8882,-129.5 326.7798,-129.5 326.7798,-111.5 291.8882,-111.5"/>
<text text-anchor="middle" x="309.334" y="-117.5" font-family="Helvetica,sans-Serif" font-size="10.00" fill="#000000">max</text>
</a>
</g>
</g>
<!-- Node7&#45;&gt;Node9 -->
<g id="edge3" class="edge">
<title>Node7&#45;&gt;Node9</title>
<path fill="none" stroke="#191970" d="M210.2223,-92.5512C232.1593,-98.7373 260.9289,-106.8501 281.8174,-112.7405"/>
<polygon fill="#191970" stroke="#191970" points="281.0842,-116.1702 291.6588,-115.5157 282.9841,-109.4329 281.0842,-116.1702"/>
</g>
<!-- Node10 -->
<g id="node5" class="node">
<title>Node10</title>
<g id="a_node5"><a xlink:href="$vlib_8h.html#a08fa7134f8b9a80eeba25f9feab22892" xlink:title="converts a int to string. ">
<polygon fill="none" stroke="#000000" points="282.1494,-74.5 282.1494,-92.5 336.5186,-92.5 336.5186,-74.5 282.1494,-74.5"/>
<text text-anchor="middle" x="309.334" y="-80.5" font-family="Helvetica,sans-Serif" font-size="10.00" fill="#000000">itoa_bad</text>
</a>
</g>
</g>
<!-- Node7&#45;&gt;Node10 -->
<g id="edge4" class="edge">
<title>Node7&#45;&gt;Node10</title>
<path fill="none" stroke="#191970" d="M242.5763,-83.5C252.5447,-83.5 262.5486,-83.5 271.6671,-83.5"/>
<polygon fill="#191970" stroke="#191970" points="271.9095,-87.0001 281.9094,-83.5 271.9094,-80.0001 271.9095,-87.0001"/>
</g>
<!-- Node12 -->
<g id="node7" class="node">
<title>Node12</title>
<g id="a_node7"><a xlink:href="$vlib_8h.html#a8805990ed667939e615e4a98950b8bd1" xlink:title="converts a float to string. ">
<polygon fill="none" stroke="#000000" points="281.8711,-37.5 281.8711,-55.5 336.7969,-55.5 336.7969,-37.5 281.8711,-37.5"/>
<text text-anchor="middle" x="309.334" y="-43.5" font-family="Helvetica,sans-Serif" font-size="10.00" fill="#000000">ftoa_bad</text>
</a>
</g>
</g>
<!-- Node7&#45;&gt;Node12 -->
<g id="edge6" class="edge">
<title>Node7&#45;&gt;Node12</title>
<path fill="none" stroke="#191970" d="M210.2223,-74.4488C228.8289,-69.2019 252.3508,-62.5688 271.8101,-57.0815"/>
<polygon fill="#191970" stroke="#191970" points="272.8934,-60.4126 281.5681,-54.3298 270.9935,-53.6753 272.8934,-60.4126"/>
</g>
<!-- Node11 -->
<g id="node6" class="node">
<title>Node11</title>
<g id="a_node6"><a xlink:href="$vlib_8c.html#aad7fea725cb4b198ace1aa3df5051244" xlink:title="reverses a string &#39;str&#39; of length &#39;len&#39; ">
<polygon fill="none" stroke="#000000" points="376.1221,-74.5 376.1221,-92.5 425.4668,-92.5 425.4668,-74.5 376.1221,-74.5"/>
<text text-anchor="middle" x="400.7944" y="-80.5" font-family="Helvetica,sans-Serif" font-size="10.00" fill="#000000">reverse</text>
</a>
</g>
</g>
<!-- Node10&#45;&gt;Node11 -->
<g id="edge5" class="edge">
<title>Node10&#45;&gt;Node11</title>
<path fill="none" stroke="#191970" d="M336.7751,-83.5C345.8944,-83.5 356.1755,-83.5 365.7868,-83.5"/>
<polygon fill="#191970" stroke="#191970" points="365.8667,-87.0001 375.8667,-83.5 365.8666,-80.0001 365.8667,-87.0001"/>
</g>
<!-- Node14 -->
<g id="node9" class="node">
<title>Node14</title>
<g id="a_node9"><a xlink:href="$lcd_8c.html#a07f04b524b5ded617d5f193db05ba0ad" xlink:title="Asserts the lcd is initialized Works by checking is the File *lcd_port is the default NULL value and ...">
<polygon fill="none" stroke="#000000" points="278.5459,-.5 278.5459,-18.5 340.1221,-18.5 340.1221,-.5 278.5459,-.5"/>
<text text-anchor="middle" x="309.334" y="-6.5" font-family="Helvetica,sans-Serif" font-size="10.00" fill="#000000">lcd_assert</text>
</a>
</g>
</g>
<!-- Node13&#45;&gt;Node14 -->
<g id="edge8" class="edge">
<title>Node13&#45;&gt;Node14</title>
<path fill="none" stroke="#191970" d="M210.2223,-37.4488C227.8432,-32.4798 249.8725,-26.2677 268.6846,-20.9628"/>
<polygon fill="#191970" stroke="#191970" points="269.7969,-24.2858 278.4716,-18.203 267.897,-17.5485 269.7969,-24.2858"/>
</g>
<!-- Node15&#45;&gt;Node14 -->
<g id="edge10" class="edge">
<title>Node15&#45;&gt;Node14</title>
<path fill="none" stroke="#191970" d="M205.3116,-9.5C223.5482,-9.5 247.9001,-9.5 268.4573,-9.5"/>
<polygon fill="#191970" stroke="#191970" points="268.504,-13.0001 278.504,-9.5 268.5039,-6.0001 268.504,-13.0001"/>
</g>
</g>
</svg>
