<?xml version="1.0" encoding="UTF-8" standalone="no"?>
<!DOCTYPE svg PUBLIC "-//W3C//DTD SVG 1.1//EN"
 "http://www.w3.org/Graphics/SVG/1.1/DTD/svg11.dtd">
<!-- Generated by graphviz version 2.40.1 (20161225.0304)
 -->
<!-- Title: raise_intake Pages: 1 -->
<svg width="309pt" height="27pt"
 viewBox="0.00 0.00 309.23 27.00" xmlns="http://www.w3.org/2000/svg" xmlns:xlink="http://www.w3.org/1999/xlink">
<g id="graph0" class="graph" transform="scale(1 1) rotate(0) translate(4 23)">
<title>raise_intake</title>
<!-- Node39 -->
<g id="node1" class="node">
<title>Node39</title>
<polygon fill="#bfbfbf" stroke="#000000" points="0,-.5 0,-18.5 69.9209,-18.5 69.9209,-.5 0,-.5"/>
<text text-anchor="middle" x="34.9604" y="-6.5" font-family="Helvetica,sans-Serif" font-size="10.00" fill="#000000">raise_intake</text>
</g>
<!-- Node40 -->
<g id="node2" class="node">
<title>Node40</title>
<g id="a_node2"><a xlink:href="mobile__goal__intake_8c.html#ad0232c21c5c1ffda603d2b7d61034118" target="_top" xlink:title="updateIntake">
<polygon fill="none" stroke="#000000" points="105.9209,-.5 105.9209,-18.5 179.748,-18.5 179.748,-.5 105.9209,-.5"/>
<text text-anchor="middle" x="142.8345" y="-6.5" font-family="Helvetica,sans-Serif" font-size="10.00" fill="#000000">updateIntake</text>
</a>
</g>
</g>
<!-- Node39&#45;&gt;Node40 -->
<g id="edge1" class="edge">
<title>Node39&#45;&gt;Node40</title>
<path fill="none" stroke="#191970" d="M80.1738,-9.5C88.6976,-9.5 97.5199,-9.5 105.7587,-9.5"/>
<polygon fill="#191970" stroke="#191970" points="79.9841,-6.0001 69.9841,-9.5 79.984,-13.0001 79.9841,-6.0001"/>
</g>
<!-- Node41 -->
<g id="node3" class="node">
<title>Node41</title>
<g id="a_node3"><a xlink:href="opcontrol_8c.html#ac71a94af413917f27d108e95c4d6f6a7" target="_top" xlink:title="operatorControl">
<polygon fill="none" stroke="#000000" points="215.748,-.5 215.748,-18.5 301.2305,-18.5 301.2305,-.5 215.748,-.5"/>
<text text-anchor="middle" x="258.4893" y="-6.5" font-family="Helvetica,sans-Serif" font-size="10.00" fill="#000000">operatorControl</text>
</a>
</g>
</g>
<!-- Node40&#45;&gt;Node41 -->
<g id="edge2" class="edge">
<title>Node40&#45;&gt;Node41</title>
<path fill="none" stroke="#191970" d="M190.1693,-9.5C198.6205,-9.5 207.381,-9.5 215.6958,-9.5"/>
<polygon fill="#191970" stroke="#191970" points="190.065,-6.0001 180.065,-9.5 190.065,-13.0001 190.065,-6.0001"/>
</g>
</g>
</svg>
