<?xml version="1.0" encoding="UTF-8" standalone="no"?>
<!DOCTYPE svg PUBLIC "-//W3C//DTD SVG 1.1//EN"
 "http://www.w3.org/Graphics/SVG/1.1/DTD/svg11.dtd">
<!-- Generated by graphviz version 2.40.1 (20161225.0304)
 -->
<!-- Title: lower_intake Pages: 1 -->
<!--zoomable 334 -->
<svg id="main" version="1.1" xmlns="http://www.w3.org/2000/svg" xmlns:xlink="http://www.w3.org/1999/xlink" xml:space="preserve" onload="init(evt)">
<style type="text/css"><![CDATA[
.edge:hover path { stroke: red; }
.edge:hover polygon { stroke: red; fill: red; }
]]></style>
<script type="text/javascript"><![CDATA[
var edges = document.getElementsByTagName('g');
if (edges && edges.length) {
  for (var i=0;i<edges.length;i++) {
    if (edges[i].id.substr(0,4)=='edge') {
      edges[i].setAttribute('class','edge');
    }
  }
}
]]></script>
        <defs>
                <circle id="rim" cx="0" cy="0" r="7"/>
                <circle id="rim2" cx="0" cy="0" r="3.5"/>
                <g id="zoomPlus">
                        <use xlink:href="#rim" fill="#404040">
                                <set attributeName="fill" to="#808080" begin="zoomplus.mouseover" end="zoomplus.mouseout"/>
                        </use>
                        <path d="M-4,0h8M0,-4v8" fill="none" stroke="white" stroke-width="1.5" pointer-events="none"/>
                </g>
                <g id="zoomMin">
                        <use xlink:href="#rim" fill="#404040">
                                <set attributeName="fill" to="#808080" begin="zoomminus.mouseover" end="zoomminus.mouseout"/>
                        </use>
                        <path d="M-4,0h8" fill="none" stroke="white" stroke-width="1.5" pointer-events="none"/>
                </g>
                <g id="dirArrow">
                        <path fill="none" stroke="white" stroke-width="1.5" d="M0,-3.0v7 M-2.5,-0.5L0,-3.0L2.5,-0.5"/>
                </g>
               <g id="resetDef">
                       <use xlink:href="#rim2" fill="#404040">
                               <set attributeName="fill" to="#808080" begin="reset.mouseover" end="reset.mouseout"/>
                       </use>
               </g>
        </defs>

<script type="text/javascript">
var viewWidth = 781;
var viewHeight = 334;
var sectionId = 'dynsection-1';
</script>
<script xlink:href="svgpan.js"/>
<svg id="graph" class="graph">
<g id="viewport">
<title>lower_intake</title>
<!-- Node0 -->
<g id="node1" class="node">
<title>Node0</title>
<polygon fill="#bfbfbf" stroke="#000000" points="0,-103.5 0,-121.5 72.1426,-121.5 72.1426,-103.5 0,-103.5"/>
<text text-anchor="middle" x="36.0713" y="-109.5" font-family="Helvetica,sans-Serif" font-size="10.00" fill="#000000">lower_intake</text>
</g>
<!-- Node1 -->
<g id="node2" class="node">
<title>Node1</title>
<g id="a_node2"><a xlink:href="mobile__goal__intake_8c.html#a8f215023832ba515d7b4535e3ae07498" target="_top" xlink:title="set_intake_motor">
<polygon fill="none" stroke="#000000" points="108.1426,-103.5 108.1426,-121.5 200.8516,-121.5 200.8516,-103.5 108.1426,-103.5"/>
<text text-anchor="middle" x="154.4971" y="-109.5" font-family="Helvetica,sans-Serif" font-size="10.00" fill="#000000">set_intake_motor</text>
</a>
</g>
</g>
<!-- Node0&#45;&gt;Node1 -->
<g id="edge1" class="edge">
<title>Node0&#45;&gt;Node1</title>
<path fill="none" stroke="#191970" d="M72.2464,-112.5C80.3622,-112.5 89.162,-112.5 97.8864,-112.5"/>
<polygon fill="#191970" stroke="#191970" points="98.0479,-116.0001 108.0479,-112.5 98.0479,-109.0001 98.0479,-116.0001"/>
</g>
<!-- Node2 -->
<g id="node3" class="node">
<title>Node2</title>
<g id="a_node3"><a xlink:href="slew_8h.html#a9f8b8ae577ef938622024545711f0151" target="_top" xlink:title="set_motor_immediate">
<polygon fill="none" stroke="#000000" points="236.8516,-103.5 236.8516,-121.5 349.0039,-121.5 349.0039,-103.5 236.8516,-103.5"/>
<text text-anchor="middle" x="292.9277" y="-109.5" font-family="Helvetica,sans-Serif" font-size="10.00" fill="#000000">set_motor_immediate</text>
</a>
</g>
</g>
<!-- Node1&#45;&gt;Node2 -->
<g id="edge2" class="edge">
<title>Node1&#45;&gt;Node2</title>
<path fill="none" stroke="#191970" d="M200.9776,-112.5C209.22,-112.5 217.9463,-112.5 226.6119,-112.5"/>
<polygon fill="#191970" stroke="#191970" points="226.7241,-116.0001 236.724,-112.5 226.724,-109.0001 226.7241,-116.0001"/>
</g>
<!-- Node3 -->
<g id="node4" class="node">
<title>Node3</title>
<g id="a_node4"><a xlink:href="log_8h.html#af3668f40d1ad1b4f3418869ac9a31f34" target="_top" xlink:title="prints a info message ">
<polygon fill="none" stroke="#000000" points="390.2749,-272.5 390.2749,-290.5 434.0825,-290.5 434.0825,-272.5 390.2749,-272.5"/>
<text text-anchor="middle" x="412.1787" y="-278.5" font-family="Helvetica,sans-Serif" font-size="10.00" fill="#000000">debug</text>
</a>
</g>
</g>
<!-- Node2&#45;&gt;Node3 -->
<g id="edge3" class="edge">
<title>Node2&#45;&gt;Node3</title>
<path fill="none" stroke="#191970" d="M299.3392,-121.5862C318.3465,-148.523 374.6281,-228.2841 399.7856,-263.9368"/>
<polygon fill="#191970" stroke="#191970" points="397.1103,-266.2161 405.7356,-272.3689 402.8298,-262.1803 397.1103,-266.2161"/>
</g>
<!-- Node5 -->
<g id="node6" class="node">
<title>Node5</title>
<g id="a_node6"><a xlink:href="slew_8c.html#a321758941d88b75783955c819bb75005" target="_top" xlink:title="Initializes the slew rate controller. ">
<polygon fill="none" stroke="#000000" points="385.0039,-178.5 385.0039,-196.5 439.3535,-196.5 439.3535,-178.5 385.0039,-178.5"/>
<text text-anchor="middle" x="412.1787" y="-184.5" font-family="Helvetica,sans-Serif" font-size="10.00" fill="#000000">init_slew</text>
</a>
</g>
</g>
<!-- Node2&#45;&gt;Node5 -->
<g id="edge5" class="edge">
<title>Node2&#45;&gt;Node5</title>
<path fill="none" stroke="#191970" d="M307.5502,-121.6965C327.9553,-134.5297 365.1716,-157.936 389.2755,-173.0956"/>
<polygon fill="#191970" stroke="#191970" points="387.4807,-176.1014 397.8091,-178.4626 391.2074,-170.1759 387.4807,-176.1014"/>
</g>
<!-- Node15 -->
<g id="node16" class="node">
<title>Node15</title>
<g id="a_node16"><a xlink:href="_a_p_i_8h.html#a8b51124628d2a7741738d48551d1e8ee" target="_top" xlink:title="mutexTake">
<polygon fill="none" stroke="#000000" points="588.501,-84.5 588.501,-102.5 652.8555,-102.5 652.8555,-84.5 588.501,-84.5"/>
<text text-anchor="middle" x="620.6782" y="-90.5" font-family="Helvetica,sans-Serif" font-size="10.00" fill="#000000">mutexTake</text>
</a>
</g>
</g>
<!-- Node2&#45;&gt;Node15 -->
<g id="edge22" class="edge">
<title>Node2&#45;&gt;Node15</title>
<path fill="none" stroke="#191970" d="M349.2701,-109.2338C414.3622,-105.4603 519.9798,-99.3376 578.4162,-95.95"/>
<polygon fill="#191970" stroke="#191970" points="578.6322,-99.4434 588.4128,-95.3705 578.227,-92.4552 578.6322,-99.4434"/>
</g>
<!-- Node16 -->
<g id="node17" class="node">
<title>Node16</title>
<g id="a_node17"><a xlink:href="_a_p_i_8h.html#afe171a08d22de18fc2ab604b2364959f" target="_top" xlink:title="mutexGive">
<polygon fill="none" stroke="#000000" points="588.7817,-37.5 588.7817,-55.5 652.5747,-55.5 652.5747,-37.5 588.7817,-37.5"/>
<text text-anchor="middle" x="620.6782" y="-43.5" font-family="Helvetica,sans-Serif" font-size="10.00" fill="#000000">mutexGive</text>
</a>
</g>
</g>
<!-- Node2&#45;&gt;Node16 -->
<g id="edge21" class="edge">
<title>Node2&#45;&gt;Node16</title>
<path fill="none" stroke="#191970" d="M316.1122,-103.4974C350.3505,-90.6385 416.7186,-67.3681 475.3535,-56.5 509.6804,-50.1374 549.2444,-47.729 578.4156,-46.8603"/>
<polygon fill="#191970" stroke="#191970" points="578.7538,-50.3531 588.6637,-46.6055 578.5797,-43.3552 578.7538,-50.3531"/>
</g>
<!-- Node17 -->
<g id="node18" class="node">
<title>Node17</title>
<g id="a_node18"><a xlink:href="_a_p_i_8h.html#a03c5b04b472d024281f62d7af8854a8e" target="_top" xlink:title="motorSet">
<polygon fill="none" stroke="#000000" points="592.3926,-.5 592.3926,-18.5 648.9639,-18.5 648.9639,-.5 592.3926,-.5"/>
<text text-anchor="middle" x="620.6782" y="-6.5" font-family="Helvetica,sans-Serif" font-size="10.00" fill="#000000">motorSet</text>
</a>
</g>
</g>
<!-- Node2&#45;&gt;Node17 -->
<g id="edge20" class="edge">
<title>Node2&#45;&gt;Node17</title>
<path fill="none" stroke="#191970" d="M305.6952,-103.4062C322.9013,-91.5708 354.8601,-71.0419 385.0039,-59.5 451.8225,-33.9154 534.5736,-20.1973 582.1295,-13.9107"/>
<polygon fill="#191970" stroke="#191970" points="582.8187,-17.3512 592.2934,-12.61 581.93,-10.4078 582.8187,-17.3512"/>
</g>
<!-- Node4 -->
<g id="node5" class="node">
<title>Node4</title>
<g id="a_node5"><a xlink:href="_a_p_i_8h.html#a403c82418e475fa4a8273719e6a7f3e6" target="_top" xlink:title="printf">
<polygon fill="none" stroke="#000000" points="711.9243,-253.5 711.9243,-271.5 750.1558,-271.5 750.1558,-253.5 711.9243,-253.5"/>
<text text-anchor="middle" x="731.04" y="-259.5" font-family="Helvetica,sans-Serif" font-size="10.00" fill="#000000">printf</text>
</a>
</g>
</g>
<!-- Node3&#45;&gt;Node4 -->
<g id="edge4" class="edge">
<title>Node3&#45;&gt;Node4</title>
<path fill="none" stroke="#191970" d="M422.955,-290.5205C434.8893,-299.8695 455.1277,-313.8857 475.3535,-319.5 559.0198,-342.7241 660.1027,-299.6052 706.09,-276.181"/>
<polygon fill="#191970" stroke="#191970" points="707.793,-279.2403 715.0409,-271.5125 704.5558,-273.0338 707.793,-279.2403"/>
</g>
<!-- Node6 -->
<g id="node7" class="node">
<title>Node6</title>
<g id="a_node7"><a xlink:href="log_8h.html#a0bec2cf5fff7f607bc510b74aba9887c" target="_top" xlink:title="prints a warning message and displays on lcd. Only will print and display if log_level is greater tha...">
<polygon fill="none" stroke="#000000" points="488.4175,-215.5 488.4175,-233.5 539.437,-233.5 539.437,-215.5 488.4175,-215.5"/>
<text text-anchor="middle" x="513.9272" y="-221.5" font-family="Helvetica,sans-Serif" font-size="10.00" fill="#000000">warning</text>
</a>
</g>
</g>
<!-- Node5&#45;&gt;Node6 -->
<g id="edge6" class="edge">
<title>Node5&#45;&gt;Node6</title>
<path fill="none" stroke="#191970" d="M437.0692,-196.5512C449.7569,-201.165 465.392,-206.8506 479.2406,-211.8865"/>
<polygon fill="#191970" stroke="#191970" points="478.347,-215.2857 488.9411,-215.414 480.7393,-208.7072 478.347,-215.2857"/>
</g>
<!-- Node10 -->
<g id="node11" class="node">
<title>Node10</title>
<g id="a_node11"><a xlink:href="_a_p_i_8h.html#a8966c541f3e9565aea1289f0d2f2cf43" target="_top" xlink:title="motorStopAll">
<polygon fill="none" stroke="#000000" points="477.3042,-178.5 477.3042,-196.5 550.5503,-196.5 550.5503,-178.5 477.3042,-178.5"/>
<text text-anchor="middle" x="513.9272" y="-184.5" font-family="Helvetica,sans-Serif" font-size="10.00" fill="#000000">motorStopAll</text>
</a>
</g>
</g>
<!-- Node5&#45;&gt;Node10 -->
<g id="edge11" class="edge">
<title>Node5&#45;&gt;Node10</title>
<path fill="none" stroke="#191970" d="M439.4455,-187.5C447.9184,-187.5 457.5139,-187.5 466.9312,-187.5"/>
<polygon fill="#191970" stroke="#191970" points="467.0184,-191.0001 477.0183,-187.5 467.0183,-184.0001 467.0184,-191.0001"/>
</g>
<!-- Node11 -->
<g id="node12" class="node">
<title>Node11</title>
<g id="a_node12"><a xlink:href="log_8h.html#a1606d750e1bb8de9f9e917172bba3382" target="_top" xlink:title="prints a info message ">
<polygon fill="none" stroke="#000000" points="604.6167,-253.5 604.6167,-271.5 636.7397,-271.5 636.7397,-253.5 604.6167,-253.5"/>
<text text-anchor="middle" x="620.6782" y="-259.5" font-family="Helvetica,sans-Serif" font-size="10.00" fill="#000000">info</text>
</a>
</g>
</g>
<!-- Node5&#45;&gt;Node11 -->
<g id="edge12" class="edge">
<title>Node5&#45;&gt;Node11</title>
<path fill="none" stroke="#191970" d="M419.5877,-196.9149C430.3449,-209.8331 451.6141,-232.6805 475.3535,-243.5 514.121,-261.1687 564.3442,-263.8528 594.4538,-263.5953"/>
<polygon fill="#191970" stroke="#191970" points="594.6514,-267.0921 604.5782,-263.3897 594.5092,-260.0936 594.6514,-267.0921"/>
</g>
<!-- Node12 -->
<g id="node13" class="node">
<title>Node12</title>
<g id="a_node13"><a xlink:href="_a_p_i_8h.html#aecd027ce8f8b52a765735e9eb5b202b3" target="_top" xlink:title="mutexCreate">
<polygon fill="none" stroke="#000000" points="477.3042,-141.5 477.3042,-159.5 550.5503,-159.5 550.5503,-141.5 477.3042,-141.5"/>
<text text-anchor="middle" x="513.9272" y="-147.5" font-family="Helvetica,sans-Serif" font-size="10.00" fill="#000000">mutexCreate</text>
</a>
</g>
</g>
<!-- Node5&#45;&gt;Node12 -->
<g id="edge14" class="edge">
<title>Node5&#45;&gt;Node12</title>
<path fill="none" stroke="#191970" d="M437.0692,-178.4488C449.7569,-173.835 465.392,-168.1494 479.2406,-163.1135"/>
<polygon fill="#191970" stroke="#191970" points="480.7393,-166.2928 488.9411,-159.586 478.347,-159.7143 480.7393,-166.2928"/>
</g>
<!-- Node13 -->
<g id="node14" class="node">
<title>Node13</title>
<g id="a_node14"><a xlink:href="_a_p_i_8h.html#ab05a241d6d1fd98b1ceb4665db678156" target="_top" xlink:title="taskRunLoop">
<polygon fill="none" stroke="#000000" points="476.4619,-291.5 476.4619,-309.5 551.3926,-309.5 551.3926,-291.5 476.4619,-291.5"/>
<text text-anchor="middle" x="513.9272" y="-297.5" font-family="Helvetica,sans-Serif" font-size="10.00" fill="#000000">taskRunLoop</text>
</a>
</g>
</g>
<!-- Node5&#45;&gt;Node13 -->
<g id="edge15" class="edge">
<title>Node5&#45;&gt;Node13</title>
<path fill="none" stroke="#191970" d="M417.0821,-196.7314C426.5706,-213.9713 448.8594,-251.5676 475.3535,-276.5 478.9686,-279.9019 483.1375,-283.0817 487.3696,-285.943"/>
<polygon fill="#191970" stroke="#191970" points="485.6545,-288.9986 495.9879,-291.338 489.3688,-283.0652 485.6545,-288.9986"/>
</g>
<!-- Node14 -->
<g id="node15" class="node">
<title>Node14</title>
<g id="a_node15"><a xlink:href="slew_8c.html#a807a87c5df438fde21c1e8213906695b" target="_top" xlink:title="Closes the distance between the desired motor value and the current motor value by half for each moto...">
<polygon fill="none" stroke="#000000" points="475.3535,-65.5 475.3535,-83.5 552.501,-83.5 552.501,-65.5 475.3535,-65.5"/>
<text text-anchor="middle" x="513.9272" y="-71.5" font-family="Helvetica,sans-Serif" font-size="10.00" fill="#000000">updateMotors</text>
</a>
</g>
</g>
<!-- Node5&#45;&gt;Node14 -->
<g id="edge16" class="edge">
<title>Node5&#45;&gt;Node14</title>
<path fill="none" stroke="#191970" d="M420.5052,-178.2527C437.6575,-159.2037 477.1402,-115.355 498.8843,-91.2064"/>
<polygon fill="#191970" stroke="#191970" points="501.6796,-93.3326 505.7701,-83.5592 496.4776,-88.6486 501.6796,-93.3326"/>
</g>
<!-- Node7 -->
<g id="node8" class="node">
<title>Node7</title>
<g id="a_node8"><a xlink:href="log_8c.html#afff22aff6749311a684a559cac3ac8bd" target="_top" xlink:title="log_info">
<polygon fill="none" stroke="#000000" points="595.1636,-216.5 595.1636,-234.5 646.1929,-234.5 646.1929,-216.5 595.1636,-216.5"/>
<text text-anchor="middle" x="620.6782" y="-222.5" font-family="Helvetica,sans-Serif" font-size="10.00" fill="#000000">log_info</text>
</a>
</g>
</g>
<!-- Node6&#45;&gt;Node7 -->
<g id="edge7" class="edge">
<title>Node6&#45;&gt;Node7</title>
<path fill="none" stroke="#191970" d="M539.4968,-224.7395C552.9975,-224.866 569.7911,-225.0233 584.595,-225.162"/>
<polygon fill="#191970" stroke="#191970" points="584.915,-228.665 594.9474,-225.259 584.9806,-221.6653 584.915,-228.665"/>
</g>
<!-- Node7&#45;&gt;Node4 -->
<g id="edge10" class="edge">
<title>Node7&#45;&gt;Node4</title>
<path fill="none" stroke="#191970" d="M646.2748,-234.0815C662.9887,-239.6851 684.8438,-247.0122 702.1758,-252.823"/>
<polygon fill="#191970" stroke="#191970" points="701.191,-256.1842 711.7849,-256.0445 703.4162,-249.5473 701.191,-256.1842"/>
</g>
<!-- Node8 -->
<g id="node9" class="node">
<title>Node8</title>
<g id="a_node9"><a xlink:href="_a_p_i_8h.html#a5fa1d119fe3e836b5519f97eae7a1272" target="_top" xlink:title="lcdClear">
<polygon fill="none" stroke="#000000" points="704.7002,-216.5 704.7002,-234.5 757.3799,-234.5 757.3799,-216.5 704.7002,-216.5"/>
<text text-anchor="middle" x="731.04" y="-222.5" font-family="Helvetica,sans-Serif" font-size="10.00" fill="#000000">lcdClear</text>
</a>
</g>
</g>
<!-- Node7&#45;&gt;Node8 -->
<g id="edge8" class="edge">
<title>Node7&#45;&gt;Node8</title>
<path fill="none" stroke="#191970" d="M646.2748,-225.5C660.4507,-225.5 678.3248,-225.5 694.0009,-225.5"/>
<polygon fill="#191970" stroke="#191970" points="694.4301,-229.0001 704.43,-225.5 694.43,-222.0001 694.4301,-229.0001"/>
</g>
<!-- Node9 -->
<g id="node10" class="node">
<title>Node9</title>
<g id="a_node10"><a xlink:href="_a_p_i_8h.html#aab53a247d88151a6623c20fa1ea940b0" target="_top" xlink:title="lcdSetBacklight">
<polygon fill="none" stroke="#000000" points="688.8555,-179.5 688.8555,-197.5 773.2246,-197.5 773.2246,-179.5 688.8555,-179.5"/>
<text text-anchor="middle" x="731.04" y="-185.5" font-family="Helvetica,sans-Serif" font-size="10.00" fill="#000000">lcdSetBacklight</text>
</a>
</g>
</g>
<!-- Node7&#45;&gt;Node9 -->
<g id="edge9" class="edge">
<title>Node7&#45;&gt;Node9</title>
<path fill="none" stroke="#191970" d="M646.2748,-216.9185C660.6178,-212.1098 678.7468,-206.0319 694.5545,-200.7322"/>
<polygon fill="#191970" stroke="#191970" points="695.6737,-204.0485 704.0425,-197.5512 693.4486,-197.4115 695.6737,-204.0485"/>
</g>
<!-- Node11&#45;&gt;Node4 -->
<g id="edge13" class="edge">
<title>Node11&#45;&gt;Node4</title>
<path fill="none" stroke="#191970" d="M636.9625,-262.5C653.914,-262.5 680.8298,-262.5 701.537,-262.5"/>
<polygon fill="#191970" stroke="#191970" points="701.7139,-266.0001 711.7139,-262.5 701.7139,-259.0001 701.7139,-266.0001"/>
</g>
<!-- Node14&#45;&gt;Node15 -->
<g id="edge17" class="edge">
<title>Node14&#45;&gt;Node15</title>
<path fill="none" stroke="#191970" d="M552.7688,-81.4132C561.0757,-82.8917 569.8911,-84.4607 578.3228,-85.9614"/>
<polygon fill="#191970" stroke="#191970" points="577.8988,-89.4409 588.3574,-87.7474 579.1255,-82.5492 577.8988,-89.4409"/>
</g>
<!-- Node14&#45;&gt;Node16 -->
<g id="edge18" class="edge">
<title>Node14&#45;&gt;Node16</title>
<path fill="none" stroke="#191970" d="M548.2915,-65.4865C557.9827,-62.9446 568.6356,-60.1504 578.7184,-57.5057"/>
<polygon fill="#191970" stroke="#191970" points="579.7696,-60.8485 588.5544,-54.9258 577.9936,-54.0775 579.7696,-60.8485"/>
</g>
<!-- Node14&#45;&gt;Node17 -->
<g id="edge19" class="edge">
<title>Node14&#45;&gt;Node17</title>
<path fill="none" stroke="#191970" d="M527.8117,-65.4439C542.6875,-55.8134 567.0569,-40.2437 588.501,-27.5 590.5129,-26.3044 592.6065,-25.0831 594.7173,-23.8679"/>
<polygon fill="#191970" stroke="#191970" points="596.9057,-26.6509 603.8826,-18.6776 593.4563,-20.5598 596.9057,-26.6509"/>
</g>
</g>
</svg>
        <g id="navigator" transform="translate(0 0)" fill="#404254">
                <rect fill="#f2f5e9" fill-opacity="0.5" stroke="#606060" stroke-width=".5" x="0" y="0" width="60" height="60"/>
                <use id="zoomplus" xlink:href="#zoomPlus" x="17" y="9" onmousedown="handleZoom(evt,'in')"/>
                <use id="zoomminus" xlink:href="#zoomMin" x="42" y="9" onmousedown="handleZoom(evt,'out')"/>
                <use id="reset" xlink:href="#resetDef" x="30" y="36" onmousedown="handleReset()"/>
                <g id="arrowUp" xlink:href="#dirArrow" transform="translate(30 24)" onmousedown="handlePan(0,-1)">
                  <use xlink:href="#rim" fill="#404040">
                        <set attributeName="fill" to="#808080" begin="arrowUp.mouseover" end="arrowUp.mouseout"/>
                  </use>
                  <path fill="none" stroke="white" stroke-width="1.5" d="M0,-3.0v7 M-2.5,-0.5L0,-3.0L2.5,-0.5"/>
                </g>
                <g id="arrowRight" xlink:href="#dirArrow" transform="rotate(90) translate(36 -43)" onmousedown="handlePan(1,0)">
                  <use xlink:href="#rim" fill="#404040">
                        <set attributeName="fill" to="#808080" begin="arrowRight.mouseover" end="arrowRight.mouseout"/>
                  </use>
                  <path fill="none" stroke="white" stroke-width="1.5" d="M0,-3.0v7 M-2.5,-0.5L0,-3.0L2.5,-0.5"/>
                </g>
                <g id="arrowDown" xlink:href="#dirArrow" transform="rotate(180) translate(-30 -48)" onmousedown="handlePan(0,1)">
                  <use xlink:href="#rim" fill="#404040">
                        <set attributeName="fill" to="#808080" begin="arrowDown.mouseover" end="arrowDown.mouseout"/>
                  </use>
                  <path fill="none" stroke="white" stroke-width="1.5" d="M0,-3.0v7 M-2.5,-0.5L0,-3.0L2.5,-0.5"/>
                </g>
                <g id="arrowLeft" xlink:href="#dirArrow" transform="rotate(270) translate(-36 17)" onmousedown="handlePan(-1,0)">
                  <use xlink:href="#rim" fill="#404040">
                        <set attributeName="fill" to="#808080" begin="arrowLeft.mouseover" end="arrowLeft.mouseout"/>
                  </use>
                  <path fill="none" stroke="white" stroke-width="1.5" d="M0,-3.0v7 M-2.5,-0.5L0,-3.0L2.5,-0.5"/>
                </g>
        </g>
        <svg viewBox="0 0 15 15" width="100%" height="30px" preserveAspectRatio="xMaxYMin meet">
         <g id="arrow_out" transform="scale(0.3 0.3)">
          <a xlink:href="mobile__goal__intake_8c_afa91470a9891e48827fd62d18553c6ce_cgraph_org.svg" target="_base">
           <rect id="button" ry="5" rx="5" y="6" x="6" height="38" width="38"
                fill="#f2f5e9" fill-opacity="0.5" stroke="#606060" stroke-width="1.0"/>
           <path id="arrow"
             d="M 11.500037,31.436501 C 11.940474,20.09759 22.043105,11.32322 32.158766,21.979434 L 37.068811,17.246167 C 37.068811,17.246167 37.088388,32 37.088388,32 L 22.160133,31.978069 C 22.160133,31.978069 26.997745,27.140456 26.997745,27.140456 C 18.528582,18.264221 13.291696,25.230495 11.500037,31.436501 z"
             style="fill:#404040;"/>
          </a>
         </g>
        </svg>
</svg>
