<?xml version="1.0" encoding="UTF-8" standalone="no"?>
<!DOCTYPE svg PUBLIC "-//W3C//DTD SVG 1.1//EN"
 "http://www.w3.org/Graphics/SVG/1.1/DTD/svg11.dtd">
<!-- Generated by graphviz version 2.40.1 (20161225.0304)
 -->
<!-- Title: set_intake_motor Pages: 1 -->
<svg width="673pt" height="316pt"
 viewBox="0.00 0.00 673.08 316.00" xmlns="http://www.w3.org/2000/svg" xmlns:xlink="http://www.w3.org/1999/xlink">
<g id="graph0" class="graph" transform="scale(1 1) rotate(0) translate(4 312)">
<title>set_intake_motor</title>
<!-- Node44 -->
<g id="node1" class="node">
<title>Node44</title>
<polygon fill="#bfbfbf" stroke="#000000" points="0,-103.5 0,-121.5 92.709,-121.5 92.709,-103.5 0,-103.5"/>
<text text-anchor="middle" x="46.3545" y="-109.5" font-family="Helvetica,sans-Serif" font-size="10.00" fill="#000000">set_intake_motor</text>
</g>
<!-- Node45 -->
<g id="node2" class="node">
<title>Node45</title>
<g id="a_node2"><a xlink:href="slew_8h.html#a9f8b8ae577ef938622024545711f0151" target="_top" xlink:title="Sets the motor speed ignoring the slew controller. ">
<polygon fill="none" stroke="#000000" points="128.709,-103.5 128.709,-121.5 240.8613,-121.5 240.8613,-103.5 128.709,-103.5"/>
<text text-anchor="middle" x="184.7852" y="-109.5" font-family="Helvetica,sans-Serif" font-size="10.00" fill="#000000">set_motor_immediate</text>
</a>
</g>
</g>
<!-- Node44&#45;&gt;Node45 -->
<g id="edge1" class="edge">
<title>Node44&#45;&gt;Node45</title>
<path fill="none" stroke="#191970" d="M92.835,-112.5C101.0774,-112.5 109.8037,-112.5 118.4693,-112.5"/>
<polygon fill="#191970" stroke="#191970" points="118.5815,-116.0001 128.5815,-112.5 118.5814,-109.0001 118.5815,-116.0001"/>
</g>
<!-- Node46 -->
<g id="node3" class="node">
<title>Node46</title>
<g id="a_node3"><a xlink:href="log_8h.html#af3668f40d1ad1b4f3418869ac9a31f34" target="_top" xlink:title="prints a info message ">
<polygon fill="none" stroke="#000000" points="282.1323,-243.5 282.1323,-261.5 325.9399,-261.5 325.9399,-243.5 282.1323,-243.5"/>
<text text-anchor="middle" x="304.0361" y="-249.5" font-family="Helvetica,sans-Serif" font-size="10.00" fill="#000000">debug</text>
</a>
</g>
</g>
<!-- Node45&#45;&gt;Node46 -->
<g id="edge2" class="edge">
<title>Node45&#45;&gt;Node46</title>
<path fill="none" stroke="#191970" d="M192.6095,-121.6858C212.323,-144.8292 264.2624,-205.8059 289.6519,-235.6129"/>
<polygon fill="#191970" stroke="#191970" points="287.1891,-238.1193 296.338,-243.4624 292.518,-233.5802 287.1891,-238.1193"/>
</g>
<!-- Node48 -->
<g id="node5" class="node">
<title>Node48</title>
<g id="a_node5"><a xlink:href="slew_8c.html#a321758941d88b75783955c819bb75005" target="_top" xlink:title="Initializes the slew rate controller. ">
<polygon fill="none" stroke="#000000" points="276.8613,-159.5 276.8613,-177.5 331.2109,-177.5 331.2109,-159.5 276.8613,-159.5"/>
<text text-anchor="middle" x="304.0361" y="-165.5" font-family="Helvetica,sans-Serif" font-size="10.00" fill="#000000">init_slew</text>
</a>
</g>
</g>
<!-- Node45&#45;&gt;Node48 -->
<g id="edge4" class="edge">
<title>Node45&#45;&gt;Node48</title>
<path fill="none" stroke="#191970" d="M204.2103,-121.622C223.5272,-130.6932 253.3809,-144.7124 275.4121,-155.0582"/>
<polygon fill="#191970" stroke="#191970" points="274.0799,-158.2993 284.6193,-159.3819 277.0554,-151.9631 274.0799,-158.2993"/>
</g>
<!-- Node58 -->
<g id="node15" class="node">
<title>Node58</title>
<g id="a_node15"><a xlink:href="_a_p_i_8h.html#a8b51124628d2a7741738d48551d1e8ee" target="_top" xlink:title="Requests a mutex so that other tasks cannot simultaneously use the resource it guards. ">
<polygon fill="none" stroke="#000000" points="480.3584,-84.5 480.3584,-102.5 544.7129,-102.5 544.7129,-84.5 480.3584,-84.5"/>
<text text-anchor="middle" x="512.5356" y="-90.5" font-family="Helvetica,sans-Serif" font-size="10.00" fill="#000000">mutexTake</text>
</a>
</g>
</g>
<!-- Node45&#45;&gt;Node58 -->
<g id="edge20" class="edge">
<title>Node45&#45;&gt;Node58</title>
<path fill="none" stroke="#191970" d="M241.1275,-109.2338C306.2196,-105.4603 411.8373,-99.3376 470.2737,-95.95"/>
<polygon fill="#191970" stroke="#191970" points="470.4896,-99.4434 480.2702,-95.3705 470.0844,-92.4552 470.4896,-99.4434"/>
</g>
<!-- Node59 -->
<g id="node16" class="node">
<title>Node59</title>
<g id="a_node16"><a xlink:href="_a_p_i_8h.html#afe171a08d22de18fc2ab604b2364959f" target="_top" xlink:title="Relinquishes a mutex so that other tasks can use the resource it guards. ">
<polygon fill="none" stroke="#000000" points="480.6392,-37.5 480.6392,-55.5 544.4321,-55.5 544.4321,-37.5 480.6392,-37.5"/>
<text text-anchor="middle" x="512.5356" y="-43.5" font-family="Helvetica,sans-Serif" font-size="10.00" fill="#000000">mutexGive</text>
</a>
</g>
</g>
<!-- Node45&#45;&gt;Node59 -->
<g id="edge19" class="edge">
<title>Node45&#45;&gt;Node59</title>
<path fill="none" stroke="#191970" d="M207.9697,-103.4974C242.2079,-90.6385 308.576,-67.3681 367.2109,-56.5 401.5378,-50.1374 441.1018,-47.729 470.273,-46.8603"/>
<polygon fill="#191970" stroke="#191970" points="470.6112,-50.3531 480.5211,-46.6055 470.4371,-43.3552 470.6112,-50.3531"/>
</g>
<!-- Node60 -->
<g id="node17" class="node">
<title>Node60</title>
<g id="a_node17"><a xlink:href="_a_p_i_8h.html#a03c5b04b472d024281f62d7af8854a8e" target="_top" xlink:title="Sets the speed of the specified motor channel. ">
<polygon fill="none" stroke="#000000" points="484.25,-.5 484.25,-18.5 540.8213,-18.5 540.8213,-.5 484.25,-.5"/>
<text text-anchor="middle" x="512.5356" y="-6.5" font-family="Helvetica,sans-Serif" font-size="10.00" fill="#000000">motorSet</text>
</a>
</g>
</g>
<!-- Node45&#45;&gt;Node60 -->
<g id="edge18" class="edge">
<title>Node45&#45;&gt;Node60</title>
<path fill="none" stroke="#191970" d="M197.5526,-103.4062C214.7587,-91.5708 246.7176,-71.0419 276.8613,-59.5 343.6799,-33.9154 426.431,-20.1973 473.9869,-13.9107"/>
<polygon fill="#191970" stroke="#191970" points="474.6761,-17.3512 484.1508,-12.61 473.7874,-10.4078 474.6761,-17.3512"/>
</g>
<!-- Node47 -->
<g id="node4" class="node">
<title>Node47</title>
<g id="a_node4"><a xlink:href="_a_p_i_8h.html#a403c82418e475fa4a8273719e6a7f3e6" target="_top" xlink:title="Prints the formatted string to the debug stream (the PC terminal). ">
<polygon fill="none" stroke="#000000" points="603.7817,-289.5 603.7817,-307.5 642.0132,-307.5 642.0132,-289.5 603.7817,-289.5"/>
<text text-anchor="middle" x="622.8975" y="-295.5" font-family="Helvetica,sans-Serif" font-size="10.00" fill="#000000">printf</text>
</a>
</g>
</g>
<!-- Node46&#45;&gt;Node47 -->
<g id="edge3" class="edge">
<title>Node46&#45;&gt;Node47</title>
<path fill="none" stroke="#191970" d="M320.3652,-261.6303C332.8013,-268.1082 350.5625,-276.3598 367.2109,-280.5 447.3065,-300.4185 545.5541,-300.9233 593.6088,-299.6896"/>
<polygon fill="#191970" stroke="#191970" points="593.7312,-303.1876 603.6211,-299.3875 593.5201,-296.1908 593.7312,-303.1876"/>
</g>
<!-- Node49 -->
<g id="node6" class="node">
<title>Node49</title>
<g id="a_node6"><a xlink:href="log_8h.html#a0bec2cf5fff7f607bc510b74aba9887c" target="_top" xlink:title="prints a warning message and displays on lcd. ">
<polygon fill="none" stroke="#000000" points="380.2749,-215.5 380.2749,-233.5 431.2944,-233.5 431.2944,-215.5 380.2749,-215.5"/>
<text text-anchor="middle" x="405.7847" y="-221.5" font-family="Helvetica,sans-Serif" font-size="10.00" fill="#000000">warning</text>
</a>
</g>
</g>
<!-- Node48&#45;&gt;Node49 -->
<g id="edge5" class="edge">
<title>Node48&#45;&gt;Node49</title>
<path fill="none" stroke="#191970" d="M318.3405,-177.6936C330.9855,-185.6774 350.0369,-197.3602 367.2109,-206.5 370.0814,-208.0276 373.1046,-209.5619 376.1433,-211.0553"/>
<polygon fill="#191970" stroke="#191970" points="374.6365,-214.2143 385.1686,-215.3659 377.6534,-207.8978 374.6365,-214.2143"/>
</g>
<!-- Node54 -->
<g id="node11" class="node">
<title>Node54</title>
<g id="a_node11"><a xlink:href="_a_p_i_8h.html#a8966c541f3e9565aea1289f0d2f2cf43" target="_top" xlink:title="Stops all motors; significantly faster than looping through all motor ports and calling motorSet(chan...">
<polygon fill="none" stroke="#000000" points="369.1616,-178.5 369.1616,-196.5 442.4077,-196.5 442.4077,-178.5 369.1616,-178.5"/>
<text text-anchor="middle" x="405.7847" y="-184.5" font-family="Helvetica,sans-Serif" font-size="10.00" fill="#000000">motorStopAll</text>
</a>
</g>
</g>
<!-- Node48&#45;&gt;Node54 -->
<g id="edge11" class="edge">
<title>Node48&#45;&gt;Node54</title>
<path fill="none" stroke="#191970" d="M331.3029,-173.5917C339.7758,-175.1738 349.3713,-176.9657 358.7886,-178.7242"/>
<polygon fill="#191970" stroke="#191970" points="358.4032,-182.2127 368.8758,-180.6078 359.6882,-175.3316 358.4032,-182.2127"/>
</g>
<!-- Node55 -->
<g id="node12" class="node">
<title>Node55</title>
<g id="a_node12"><a xlink:href="_a_p_i_8h.html#aecd027ce8f8b52a765735e9eb5b202b3" target="_top" xlink:title="Creates a mutex intended to allow only one task to use a resource at a time. ">
<polygon fill="none" stroke="#000000" points="369.1616,-141.5 369.1616,-159.5 442.4077,-159.5 442.4077,-141.5 369.1616,-141.5"/>
<text text-anchor="middle" x="405.7847" y="-147.5" font-family="Helvetica,sans-Serif" font-size="10.00" fill="#000000">mutexCreate</text>
</a>
</g>
</g>
<!-- Node48&#45;&gt;Node55 -->
<g id="edge12" class="edge">
<title>Node48&#45;&gt;Node55</title>
<path fill="none" stroke="#191970" d="M331.3029,-163.6763C339.7758,-162.1774 349.3713,-160.4799 358.7886,-158.8139"/>
<polygon fill="#191970" stroke="#191970" points="359.6384,-162.218 368.8758,-157.0294 358.4189,-155.325 359.6384,-162.218"/>
</g>
<!-- Node56 -->
<g id="node13" class="node">
<title>Node56</title>
<g id="a_node13"><a xlink:href="_a_p_i_8h.html#ab05a241d6d1fd98b1ceb4665db678156" target="_top" xlink:title="Starts a task which will periodically call the specified function. ">
<polygon fill="none" stroke="#000000" points="368.3193,-252.5 368.3193,-270.5 443.25,-270.5 443.25,-252.5 368.3193,-252.5"/>
<text text-anchor="middle" x="405.7847" y="-258.5" font-family="Helvetica,sans-Serif" font-size="10.00" fill="#000000">taskRunLoop</text>
</a>
</g>
</g>
<!-- Node48&#45;&gt;Node56 -->
<g id="edge13" class="edge">
<title>Node48&#45;&gt;Node56</title>
<path fill="none" stroke="#191970" d="M309.9849,-177.9368C320.1142,-193.3771 342.0732,-224.2435 367.2109,-243.5 369.0222,-244.8875 370.9577,-246.2022 372.9611,-247.4414"/>
<polygon fill="#191970" stroke="#191970" points="371.5506,-250.6591 382.0042,-252.383 374.9073,-244.5164 371.5506,-250.6591"/>
</g>
<!-- Node57 -->
<g id="node14" class="node">
<title>Node57</title>
<g id="a_node14"><a xlink:href="slew_8c.html#a807a87c5df438fde21c1e8213906695b" target="_top" xlink:title="Closes the distance between the desired motor value and the current motor value by half for each moto...">
<polygon fill="none" stroke="#000000" points="367.2109,-65.5 367.2109,-83.5 444.3584,-83.5 444.3584,-65.5 367.2109,-65.5"/>
<text text-anchor="middle" x="405.7847" y="-71.5" font-family="Helvetica,sans-Serif" font-size="10.00" fill="#000000">updateMotors</text>
</a>
</g>
</g>
<!-- Node48&#45;&gt;Node57 -->
<g id="edge14" class="edge">
<title>Node48&#45;&gt;Node57</title>
<path fill="none" stroke="#191970" d="M313.7922,-159.4869C330.9933,-143.5957 366.9256,-110.3998 388.4387,-90.525"/>
<polygon fill="#191970" stroke="#191970" points="390.9384,-92.9807 395.9086,-83.6239 386.1883,-87.839 390.9384,-92.9807"/>
</g>
<!-- Node50 -->
<g id="node7" class="node">
<title>Node50</title>
<g id="a_node7"><a xlink:href="log_8c.html#afff22aff6749311a684a559cac3ac8bd" target="_top" xlink:title="prints a log info message to the lcd ">
<polygon fill="none" stroke="#000000" points="487.021,-215.5 487.021,-233.5 538.0503,-233.5 538.0503,-215.5 487.021,-215.5"/>
<text text-anchor="middle" x="512.5356" y="-221.5" font-family="Helvetica,sans-Serif" font-size="10.00" fill="#000000">log_info</text>
</a>
</g>
</g>
<!-- Node49&#45;&gt;Node50 -->
<g id="edge6" class="edge">
<title>Node49&#45;&gt;Node50</title>
<path fill="none" stroke="#191970" d="M431.3542,-224.5C444.8549,-224.5 461.6485,-224.5 476.4524,-224.5"/>
<polygon fill="#191970" stroke="#191970" points="476.8048,-228.0001 486.8048,-224.5 476.8047,-221.0001 476.8048,-228.0001"/>
</g>
<!-- Node50&#45;&gt;Node47 -->
<g id="edge10" class="edge">
<title>Node50&#45;&gt;Node47</title>
<path fill="none" stroke="#191970" d="M522.0264,-233.7998C534.6205,-245.7709 557.9285,-266.6722 580.7129,-280.5 584.9162,-283.051 589.5462,-285.4186 594.1524,-287.5429"/>
<polygon fill="#191970" stroke="#191970" points="592.8611,-290.7976 603.4297,-291.5424 595.6323,-284.3695 592.8611,-290.7976"/>
</g>
<!-- Node51 -->
<g id="node8" class="node">
<title>Node51</title>
<g id="a_node8"><a xlink:href="_a_p_i_8h.html#a5fa1d119fe3e836b5519f97eae7a1272" target="_top" xlink:title="Clears the LCD screen on the specified port. ">
<polygon fill="none" stroke="#000000" points="596.5576,-252.5 596.5576,-270.5 649.2373,-270.5 649.2373,-252.5 596.5576,-252.5"/>
<text text-anchor="middle" x="622.8975" y="-258.5" font-family="Helvetica,sans-Serif" font-size="10.00" fill="#000000">lcdClear</text>
</a>
</g>
</g>
<!-- Node50&#45;&gt;Node51 -->
<g id="edge7" class="edge">
<title>Node50&#45;&gt;Node51</title>
<path fill="none" stroke="#191970" d="M538.1323,-233.0815C552.5807,-237.9255 570.871,-244.0576 586.7603,-249.3846"/>
<polygon fill="#191970" stroke="#191970" points="585.6936,-252.7184 596.2875,-252.5787 587.9187,-246.0815 585.6936,-252.7184"/>
</g>
<!-- Node52 -->
<g id="node9" class="node">
<title>Node52</title>
<g id="a_node9"><a xlink:href="_a_p_i_8h.html#a6cfad8271c6a566a2f51ca318f819a80" target="_top" xlink:title="Prints the formatted string to the attached LCD. ">
<polygon fill="none" stroke="#000000" points="598.2251,-215.5 598.2251,-233.5 647.5698,-233.5 647.5698,-215.5 598.2251,-215.5"/>
<text text-anchor="middle" x="622.8975" y="-221.5" font-family="Helvetica,sans-Serif" font-size="10.00" fill="#000000">lcdPrint</text>
</a>
</g>
</g>
<!-- Node50&#45;&gt;Node52 -->
<g id="edge8" class="edge">
<title>Node50&#45;&gt;Node52</title>
<path fill="none" stroke="#191970" d="M538.1323,-224.5C552.9667,-224.5 571.8512,-224.5 588.0286,-224.5"/>
<polygon fill="#191970" stroke="#191970" points="588.1989,-228.0001 598.1988,-224.5 588.1988,-221.0001 588.1989,-228.0001"/>
</g>
<!-- Node53 -->
<g id="node10" class="node">
<title>Node53</title>
<g id="a_node10"><a xlink:href="_a_p_i_8h.html#aab53a247d88151a6623c20fa1ea940b0" target="_top" xlink:title="Sets the specified LCD backlight to be on or off. ">
<polygon fill="none" stroke="#000000" points="580.7129,-178.5 580.7129,-196.5 665.082,-196.5 665.082,-178.5 580.7129,-178.5"/>
<text text-anchor="middle" x="622.8975" y="-184.5" font-family="Helvetica,sans-Serif" font-size="10.00" fill="#000000">lcdSetBacklight</text>
</a>
</g>
</g>
<!-- Node50&#45;&gt;Node53 -->
<g id="edge9" class="edge">
<title>Node50&#45;&gt;Node53</title>
<path fill="none" stroke="#191970" d="M538.1323,-215.9185C552.4752,-211.1098 570.6042,-205.0319 586.412,-199.7322"/>
<polygon fill="#191970" stroke="#191970" points="587.5312,-203.0485 595.8999,-196.5512 585.306,-196.4115 587.5312,-203.0485"/>
</g>
<!-- Node57&#45;&gt;Node58 -->
<g id="edge15" class="edge">
<title>Node57&#45;&gt;Node58</title>
<path fill="none" stroke="#191970" d="M444.6262,-81.4132C452.9331,-82.8917 461.7485,-84.4607 470.1802,-85.9614"/>
<polygon fill="#191970" stroke="#191970" points="469.7563,-89.4409 480.2149,-87.7474 470.9829,-82.5492 469.7563,-89.4409"/>
</g>
<!-- Node57&#45;&gt;Node59 -->
<g id="edge16" class="edge">
<title>Node57&#45;&gt;Node59</title>
<path fill="none" stroke="#191970" d="M440.149,-65.4865C449.8401,-62.9446 460.4931,-60.1504 470.5759,-57.5057"/>
<polygon fill="#191970" stroke="#191970" points="471.6271,-60.8485 480.4118,-54.9258 469.851,-54.0775 471.6271,-60.8485"/>
</g>
<!-- Node57&#45;&gt;Node60 -->
<g id="edge17" class="edge">
<title>Node57&#45;&gt;Node60</title>
<path fill="none" stroke="#191970" d="M419.6691,-65.4439C434.5449,-55.8134 458.9143,-40.2437 480.3584,-27.5 482.3703,-26.3044 484.4639,-25.0831 486.5748,-23.8679"/>
<polygon fill="#191970" stroke="#191970" points="488.7631,-26.6509 495.74,-18.6776 485.3137,-20.5598 488.7631,-26.6509"/>
</g>
</g>
</svg>
