<?xml version="1.0" encoding="UTF-8" standalone="no"?>
<!DOCTYPE svg PUBLIC "-//W3C//DTD SVG 1.1//EN"
 "http://www.w3.org/Graphics/SVG/1.1/DTD/svg11.dtd">
<!-- Generated by graphviz version 2.40.1 (20161225.0304)
 -->
<!-- Title: src/mobile_goal_intake.c Pages: 1 -->
<svg width="336pt" height="247pt"
 viewBox="0.00 0.00 335.72 247.00" xmlns="http://www.w3.org/2000/svg" xmlns:xlink="http://www.w3.org/1999/xlink">
<g id="graph0" class="graph" transform="scale(1 1) rotate(0) translate(4 243)">
<title>src/mobile_goal_intake.c</title>
<!-- Node0 -->
<g id="node1" class="node">
<title>Node0</title>
<polygon fill="#bfbfbf" stroke="#000000" points="180.9489,-220.5 180.9489,-238.5 307.0075,-238.5 307.0075,-220.5 180.9489,-220.5"/>
<text text-anchor="middle" x="243.9782" y="-226.5" font-family="Helvetica,sans-Serif" font-size="10.00" fill="#000000">src/mobile_goal_intake.c</text>
</g>
<!-- Node1 -->
<g id="node2" class="node">
<title>Node1</title>
<g id="a_node2"><a xlink:href="mobile__goal__intake_8h.html" target="_top" xlink:title="mobile_goal_intake.h">
<polygon fill="none" stroke="#000000" points="86.7224,-165.5 86.7224,-183.5 197.2341,-183.5 197.2341,-165.5 86.7224,-165.5"/>
<text text-anchor="middle" x="141.9782" y="-171.5" font-family="Helvetica,sans-Serif" font-size="10.00" fill="#000000">mobile_goal_intake.h</text>
</a>
</g>
</g>
<!-- Node0&#45;&gt;Node1 -->
<g id="edge1" class="edge">
<title>Node0&#45;&gt;Node1</title>
<path fill="none" stroke="#191970" d="M227.135,-220.4179C210.9675,-211.7001 186.3245,-198.4122 167.7006,-188.3699"/>
<polygon fill="#191970" stroke="#191970" points="169.3096,-185.2611 158.8465,-183.5956 165.9872,-191.4225 169.3096,-185.2611"/>
</g>
<!-- Node10 -->
<g id="node11" class="node">
<title>Node10</title>
<g id="a_node11"><a xlink:href="partner_8h.html" target="_top" xlink:title="partner.h">
<polygon fill="none" stroke="#000000" points="272.2394,-165.5 272.2394,-183.5 327.717,-183.5 327.717,-165.5 272.2394,-165.5"/>
<text text-anchor="middle" x="299.9782" y="-171.5" font-family="Helvetica,sans-Serif" font-size="10.00" fill="#000000">partner.h</text>
</a>
</g>
</g>
<!-- Node0&#45;&gt;Node10 -->
<g id="edge14" class="edge">
<title>Node0&#45;&gt;Node10</title>
<path fill="none" stroke="#191970" d="M253.2255,-220.4179C261.3637,-212.425 273.4135,-200.5903 283.2416,-190.9377"/>
<polygon fill="#191970" stroke="#191970" points="285.848,-193.2836 290.53,-183.7795 280.943,-188.2895 285.848,-193.2836"/>
</g>
<!-- Node11 -->
<g id="node12" class="node">
<title>Node11</title>
<g id="a_node12"><a xlink:href="log_8h.html" target="_top" xlink:title="Contains logging functions. ">
<polygon fill="none" stroke="#000000" points="244.1359,-110.5 244.1359,-128.5 281.8205,-128.5 281.8205,-110.5 244.1359,-110.5"/>
<text text-anchor="middle" x="262.9782" y="-116.5" font-family="Helvetica,sans-Serif" font-size="10.00" fill="#000000">log.h</text>
</a>
</g>
</g>
<!-- Node0&#45;&gt;Node11 -->
<g id="edge17" class="edge">
<title>Node0&#45;&gt;Node11</title>
<path fill="none" stroke="#191970" d="M245.5331,-220.4982C248.6088,-202.6913 255.5298,-162.6225 259.6702,-138.6515"/>
<polygon fill="#191970" stroke="#191970" points="263.1487,-139.076 261.4019,-128.6261 256.2508,-137.8845 263.1487,-139.076"/>
</g>
<!-- Node2 -->
<g id="node3" class="node">
<title>Node2</title>
<g id="a_node3"><a xlink:href="motor__ports_8h.html" target="_top" xlink:title="The motor port definitionsMacros for the different motors ports. ">
<polygon fill="none" stroke="#000000" points="66.1311,-110.5 66.1311,-128.5 143.8254,-128.5 143.8254,-110.5 66.1311,-110.5"/>
<text text-anchor="middle" x="104.9782" y="-116.5" font-family="Helvetica,sans-Serif" font-size="10.00" fill="#000000">motor_ports.h</text>
</a>
</g>
</g>
<!-- Node1&#45;&gt;Node2 -->
<g id="edge2" class="edge">
<title>Node1&#45;&gt;Node2</title>
<path fill="none" stroke="#191970" d="M135.8684,-165.4179C130.7043,-157.7415 123.1565,-146.5217 116.8145,-137.0945"/>
<polygon fill="#191970" stroke="#191970" points="119.7066,-135.1231 111.2208,-128.7795 113.8985,-139.0303 119.7066,-135.1231"/>
</g>
<!-- Node3 -->
<g id="node4" class="node">
<title>Node3</title>
<g id="a_node4"><a xlink:href="controller_8h.html" target="_top" xlink:title="controller definitions, macros and functions to assist with usig the vex controllers. ">
<polygon fill="none" stroke="#000000" points="161.5178,-110.5 161.5178,-128.5 226.4387,-128.5 226.4387,-110.5 161.5178,-110.5"/>
<text text-anchor="middle" x="193.9782" y="-116.5" font-family="Helvetica,sans-Serif" font-size="10.00" fill="#000000">controller.h</text>
</a>
</g>
</g>
<!-- Node1&#45;&gt;Node3 -->
<g id="edge3" class="edge">
<title>Node1&#45;&gt;Node3</title>
<path fill="none" stroke="#191970" d="M150.565,-165.4179C158.047,-157.5041 169.0898,-145.8243 178.1654,-136.2251"/>
<polygon fill="#191970" stroke="#191970" points="180.878,-138.4505 185.2049,-128.7795 175.7915,-133.6414 180.878,-138.4505"/>
</g>
<!-- Node7 -->
<g id="node8" class="node">
<title>Node7</title>
<g id="a_node8"><a xlink:href="slew_8h.html" target="_top" xlink:title="Contains the slew rate controller wrapper for the motors. ">
<polygon fill="none" stroke="#000000" points="4.0793,-110.5 4.0793,-128.5 47.8771,-128.5 47.8771,-110.5 4.0793,-110.5"/>
<text text-anchor="middle" x="25.9782" y="-116.5" font-family="Helvetica,sans-Serif" font-size="10.00" fill="#000000">slew.h</text>
</a>
</g>
</g>
<!-- Node1&#45;&gt;Node7 -->
<g id="edge7" class="edge">
<title>Node1&#45;&gt;Node7</title>
<path fill="none" stroke="#191970" d="M122.8232,-165.4179C104.1848,-156.5807 75.6416,-143.0473 54.3646,-132.9591"/>
<polygon fill="#191970" stroke="#191970" points="55.697,-129.7174 45.1617,-128.5956 52.698,-136.0424 55.697,-129.7174"/>
</g>
<!-- Node4 -->
<g id="node5" class="node">
<title>Node4</title>
<g id="a_node5"><a xlink:href="vmath_8h.html" target="_top" xlink:title="Vex Specific Math Functions, includes: Cartesian to polar cordinates. ">
<polygon fill="none" stroke="#000000" points="11.1926,-55.5 11.1926,-73.5 62.7639,-73.5 62.7639,-55.5 11.1926,-55.5"/>
<text text-anchor="middle" x="36.9782" y="-61.5" font-family="Helvetica,sans-Serif" font-size="10.00" fill="#000000">vmath.h</text>
</a>
</g>
</g>
<!-- Node3&#45;&gt;Node4 -->
<g id="edge4" class="edge">
<title>Node3&#45;&gt;Node4</title>
<path fill="none" stroke="#191970" d="M168.0529,-110.4179C141.9534,-101.2748 101.5041,-87.1046 72.4432,-76.924"/>
<polygon fill="#191970" stroke="#191970" points="73.276,-73.5073 62.6811,-73.5042 70.9616,-80.1136 73.276,-73.5073"/>
</g>
<!-- Node6 -->
<g id="node7" class="node">
<title>Node6</title>
<polygon fill="none" stroke="#bfbfbf" points="184.7492,-.5 184.7492,-18.5 225.2072,-18.5 225.2072,-.5 184.7492,-.5"/>
<text text-anchor="middle" x="204.9782" y="-6.5" font-family="Helvetica,sans-Serif" font-size="10.00" fill="#000000">API.h</text>
</g>
<!-- Node3&#45;&gt;Node6 -->
<g id="edge6" class="edge">
<title>Node3&#45;&gt;Node6</title>
<path fill="none" stroke="#191970" d="M194.8784,-110.4982C196.6591,-92.6913 200.666,-52.6225 203.0631,-28.6515"/>
<polygon fill="#191970" stroke="#191970" points="206.5531,-28.9248 204.0656,-18.6261 199.5878,-28.2282 206.5531,-28.9248"/>
</g>
<!-- Node5 -->
<g id="node6" class="node">
<title>Node5</title>
<polygon fill="none" stroke="#bfbfbf" points="11.6926,-.5 11.6926,-18.5 58.2639,-18.5 58.2639,-.5 11.6926,-.5"/>
<text text-anchor="middle" x="34.9782" y="-6.5" font-family="Helvetica,sans-Serif" font-size="10.00" fill="#000000">math.h</text>
</g>
<!-- Node4&#45;&gt;Node5 -->
<g id="edge5" class="edge">
<title>Node4&#45;&gt;Node5</title>
<path fill="none" stroke="#191970" d="M36.648,-55.4179C36.3861,-48.2164 36.0108,-37.8962 35.6823,-28.8632"/>
<polygon fill="#191970" stroke="#191970" points="39.1768,-28.6456 35.3157,-18.7795 32.1815,-28.9001 39.1768,-28.6456"/>
</g>
<!-- Node7&#45;&gt;Node5 -->
<g id="edge9" class="edge">
<title>Node7&#45;&gt;Node5</title>
<path fill="none" stroke="#191970" d="M18.5105,-110.4002C9.2658,-97.9875 -4.5116,-75.002 1.9782,-55 5.4204,-44.3911 12.367,-34.1855 19.0027,-26.1379"/>
<polygon fill="#191970" stroke="#191970" points="21.6557,-28.4211 25.6452,-18.606 16.4058,-23.791 21.6557,-28.4211"/>
</g>
<!-- Node7&#45;&gt;Node6 -->
<g id="edge8" class="edge">
<title>Node7&#45;&gt;Node6</title>
<path fill="none" stroke="#191970" d="M48.1981,-111.813C69.7055,-103.8905 102.8062,-90.403 128.9782,-74 151.2487,-60.0422 173.8437,-39.9442 188.5398,-25.9042"/>
<polygon fill="#191970" stroke="#191970" points="191.1109,-28.286 195.8394,-18.8049 186.2304,-23.2678 191.1109,-28.286"/>
</g>
<!-- Node8 -->
<g id="node9" class="node">
<title>Node8</title>
<g id="a_node9"><a xlink:href="vlib_8h.html" target="_top" xlink:title="Contains misc helpful functions. ">
<polygon fill="none" stroke="#000000" points="80.3059,-55.5 80.3059,-73.5 119.6506,-73.5 119.6506,-55.5 80.3059,-55.5"/>
<text text-anchor="middle" x="99.9782" y="-61.5" font-family="Helvetica,sans-Serif" font-size="10.00" fill="#000000">vlib.h</text>
</a>
</g>
</g>
<!-- Node7&#45;&gt;Node8 -->
<g id="edge10" class="edge">
<title>Node7&#45;&gt;Node8</title>
<path fill="none" stroke="#191970" d="M38.1978,-110.4179C49.4451,-102.0584 66.3464,-89.4966 79.6297,-79.6239"/>
<polygon fill="#191970" stroke="#191970" points="81.8023,-82.37 87.7405,-73.5956 77.6266,-76.7518 81.8023,-82.37"/>
</g>
<!-- Node8&#45;&gt;Node5 -->
<g id="edge11" class="edge">
<title>Node8&#45;&gt;Node5</title>
<path fill="none" stroke="#191970" d="M89.2448,-55.4179C79.6116,-47.2667 65.2566,-35.1201 53.7301,-25.3669"/>
<polygon fill="#191970" stroke="#191970" points="55.8395,-22.5671 45.9448,-18.7795 51.3179,-27.9108 55.8395,-22.5671"/>
</g>
<!-- Node8&#45;&gt;Node6 -->
<g id="edge12" class="edge">
<title>Node8&#45;&gt;Node6</title>
<path fill="none" stroke="#191970" d="M117.3168,-55.4179C133.9598,-46.7001 159.3277,-33.4122 178.4993,-23.3699"/>
<polygon fill="#191970" stroke="#191970" points="180.3796,-26.3362 187.6138,-18.5956 177.1315,-20.1353 180.3796,-26.3362"/>
</g>
<!-- Node9 -->
<g id="node10" class="node">
<title>Node9</title>
<polygon fill="none" stroke="#bfbfbf" points="76.5817,-.5 76.5817,-18.5 125.3747,-18.5 125.3747,-.5 76.5817,-.5"/>
<text text-anchor="middle" x="100.9782" y="-6.5" font-family="Helvetica,sans-Serif" font-size="10.00" fill="#000000">string.h</text>
</g>
<!-- Node8&#45;&gt;Node9 -->
<g id="edge13" class="edge">
<title>Node8&#45;&gt;Node9</title>
<path fill="none" stroke="#191970" d="M100.1433,-55.4179C100.2743,-48.2164 100.4619,-37.8962 100.6262,-28.8632"/>
<polygon fill="#191970" stroke="#191970" points="104.127,-28.8415 100.8095,-18.7795 97.1282,-28.7141 104.127,-28.8415"/>
</g>
<!-- Node10&#45;&gt;Node3 -->
<g id="edge15" class="edge">
<title>Node10&#45;&gt;Node3</title>
<path fill="none" stroke="#191970" d="M282.4745,-165.4179C265.5963,-156.6603 239.8295,-143.2907 220.4446,-133.2326"/>
<polygon fill="#191970" stroke="#191970" points="221.9962,-130.0946 211.508,-128.5956 218.7723,-136.308 221.9962,-130.0946"/>
</g>
<!-- Node10&#45;&gt;Node6 -->
<g id="edge16" class="edge">
<title>Node10&#45;&gt;Node6</title>
<path fill="none" stroke="#191970" d="M302.9474,-165.2022C309.1763,-143.8101 321.2773,-90.2393 298.9782,-55 285.0012,-32.9121 256.9551,-21.272 235.1188,-15.3173"/>
<polygon fill="#191970" stroke="#191970" points="235.8387,-11.89 225.2918,-12.897 234.1646,-18.6869 235.8387,-11.89"/>
</g>
<!-- Node11&#45;&gt;Node6 -->
<g id="edge18" class="edge">
<title>Node11&#45;&gt;Node6</title>
<path fill="none" stroke="#191970" d="M258.2318,-110.4982C248.7153,-92.4496 227.1398,-51.5306 214.5663,-27.6843"/>
<polygon fill="#191970" stroke="#191970" points="217.5503,-25.8394 209.7902,-18.6261 211.3583,-29.1043 217.5503,-25.8394"/>
</g>
<!-- Node12 -->
<g id="node13" class="node">
<title>Node12</title>
<g id="a_node13"><a xlink:href="lcd_8h.html" target="_top" xlink:title="LCD wrapper functions and macros. ">
<polygon fill="none" stroke="#000000" points="252.4167,-55.5 252.4167,-73.5 289.5397,-73.5 289.5397,-55.5 252.4167,-55.5"/>
<text text-anchor="middle" x="270.9782" y="-61.5" font-family="Helvetica,sans-Serif" font-size="10.00" fill="#000000">lcd.h</text>
</a>
</g>
</g>
<!-- Node11&#45;&gt;Node12 -->
<g id="edge19" class="edge">
<title>Node11&#45;&gt;Node12</title>
<path fill="none" stroke="#191970" d="M264.2993,-110.4179C265.3467,-103.2164 266.8479,-92.8962 268.1618,-83.8632"/>
<polygon fill="#191970" stroke="#191970" points="271.6525,-84.1791 269.6285,-73.7795 264.7254,-83.1715 271.6525,-84.1791"/>
</g>
<!-- Node12&#45;&gt;Node6 -->
<g id="edge20" class="edge">
<title>Node12&#45;&gt;Node6</title>
<path fill="none" stroke="#191970" d="M260.0797,-55.4179C250.2983,-47.2667 235.7224,-35.1201 224.0185,-25.3669"/>
<polygon fill="#191970" stroke="#191970" points="226.0365,-22.4926 216.1136,-18.7795 221.5551,-27.8701 226.0365,-22.4926"/>
</g>
</g>
</svg>
