<?xml version="1.0" encoding="UTF-8" standalone="no"?>
<!DOCTYPE svg PUBLIC "-//W3C//DTD SVG 1.1//EN"
 "http://www.w3.org/Graphics/SVG/1.1/DTD/svg11.dtd">
<!-- Generated by graphviz version 2.40.1 (20161225.0304)
 -->
<!-- Title: raise_intake Pages: 1 -->
<!--zoomable 334 -->
<svg id="main" version="1.1" xmlns="http://www.w3.org/2000/svg" xmlns:xlink="http://www.w3.org/1999/xlink" xml:space="preserve" onload="init(evt)">
<style type="text/css"><![CDATA[
.edge:hover path { stroke: red; }
.edge:hover polygon { stroke: red; fill: red; }
]]></style>
<script type="text/javascript"><![CDATA[
var edges = document.getElementsByTagName('g');
if (edges && edges.length) {
  for (var i=0;i<edges.length;i++) {
    if (edges[i].id.substr(0,4)=='edge') {
      edges[i].setAttribute('class','edge');
    }
  }
}
]]></script>
        <defs>
                <circle id="rim" cx="0" cy="0" r="7"/>
                <circle id="rim2" cx="0" cy="0" r="3.5"/>
                <g id="zoomPlus">
                        <use xlink:href="#rim" fill="#404040">
                                <set attributeName="fill" to="#808080" begin="zoomplus.mouseover" end="zoomplus.mouseout"/>
                        </use>
                        <path d="M-4,0h8M0,-4v8" fill="none" stroke="white" stroke-width="1.5" pointer-events="none"/>
                </g>
                <g id="zoomMin">
                        <use xlink:href="#rim" fill="#404040">
                                <set attributeName="fill" to="#808080" begin="zoomminus.mouseover" end="zoomminus.mouseout"/>
                        </use>
                        <path d="M-4,0h8" fill="none" stroke="white" stroke-width="1.5" pointer-events="none"/>
                </g>
                <g id="dirArrow">
                        <path fill="none" stroke="white" stroke-width="1.5" d="M0,-3.0v7 M-2.5,-0.5L0,-3.0L2.5,-0.5"/>
                </g>
               <g id="resetDef">
                       <use xlink:href="#rim2" fill="#404040">
                               <set attributeName="fill" to="#808080" begin="reset.mouseover" end="reset.mouseout"/>
                       </use>
               </g>
        </defs>

<script type="text/javascript">
var viewWidth = 779;
var viewHeight = 334;
var sectionId = 'dynsection-3';
</script>
<script xlink:href="svgpan.js"/>
<svg id="graph" class="graph">
<g id="viewport">
<title>raise_intake</title>
<!-- Node21 -->
<g id="node1" class="node">
<title>Node21</title>
<polygon fill="#bfbfbf" stroke="#000000" points="0,-103.5 0,-121.5 69.9209,-121.5 69.9209,-103.5 0,-103.5"/>
<text text-anchor="middle" x="34.9604" y="-109.5" font-family="Helvetica,sans-Serif" font-size="10.00" fill="#000000">raise_intake</text>
</g>
<!-- Node22 -->
<g id="node2" class="node">
<title>Node22</title>
<g id="a_node2"><a xlink:href="mobile__goal__intake_8c.html#a8f215023832ba515d7b4535e3ae07498" target="_top" xlink:title="set_intake_motor">
<polygon fill="none" stroke="#000000" points="105.9209,-103.5 105.9209,-121.5 198.6299,-121.5 198.6299,-103.5 105.9209,-103.5"/>
<text text-anchor="middle" x="152.2754" y="-109.5" font-family="Helvetica,sans-Serif" font-size="10.00" fill="#000000">set_intake_motor</text>
</a>
</g>
</g>
<!-- Node21&#45;&gt;Node22 -->
<g id="edge1" class="edge">
<title>Node21&#45;&gt;Node22</title>
<path fill="none" stroke="#191970" d="M70.1588,-112.5C78.2114,-112.5 86.9703,-112.5 95.6689,-112.5"/>
<polygon fill="#191970" stroke="#191970" points="95.8068,-116.0001 105.8068,-112.5 95.8067,-109.0001 95.8068,-116.0001"/>
</g>
<!-- Node23 -->
<g id="node3" class="node">
<title>Node23</title>
<g id="a_node3"><a xlink:href="slew_8h.html#a9f8b8ae577ef938622024545711f0151" target="_top" xlink:title="set_motor_immediate">
<polygon fill="none" stroke="#000000" points="234.6299,-103.5 234.6299,-121.5 346.7822,-121.5 346.7822,-103.5 234.6299,-103.5"/>
<text text-anchor="middle" x="290.7061" y="-109.5" font-family="Helvetica,sans-Serif" font-size="10.00" fill="#000000">set_motor_immediate</text>
</a>
</g>
</g>
<!-- Node22&#45;&gt;Node23 -->
<g id="edge2" class="edge">
<title>Node22&#45;&gt;Node23</title>
<path fill="none" stroke="#191970" d="M198.7559,-112.5C206.9983,-112.5 215.7246,-112.5 224.3902,-112.5"/>
<polygon fill="#191970" stroke="#191970" points="224.5024,-116.0001 234.5024,-112.5 224.5023,-109.0001 224.5024,-116.0001"/>
</g>
<!-- Node24 -->
<g id="node4" class="node">
<title>Node24</title>
<g id="a_node4"><a xlink:href="log_8h.html#af3668f40d1ad1b4f3418869ac9a31f34" target="_top" xlink:title="prints a info message ">
<polygon fill="none" stroke="#000000" points="388.0532,-272.5 388.0532,-290.5 431.8608,-290.5 431.8608,-272.5 388.0532,-272.5"/>
<text text-anchor="middle" x="409.957" y="-278.5" font-family="Helvetica,sans-Serif" font-size="10.00" fill="#000000">debug</text>
</a>
</g>
</g>
<!-- Node23&#45;&gt;Node24 -->
<g id="edge3" class="edge">
<title>Node23&#45;&gt;Node24</title>
<path fill="none" stroke="#191970" d="M297.1175,-121.5862C316.1249,-148.523 372.4064,-228.2841 397.564,-263.9368"/>
<polygon fill="#191970" stroke="#191970" points="394.8887,-266.2161 403.5139,-272.3689 400.6081,-262.1803 394.8887,-266.2161"/>
</g>
<!-- Node26 -->
<g id="node6" class="node">
<title>Node26</title>
<g id="a_node6"><a xlink:href="slew_8c.html#a321758941d88b75783955c819bb75005" target="_top" xlink:title="Initializes the slew rate controller. ">
<polygon fill="none" stroke="#000000" points="382.7822,-178.5 382.7822,-196.5 437.1318,-196.5 437.1318,-178.5 382.7822,-178.5"/>
<text text-anchor="middle" x="409.957" y="-184.5" font-family="Helvetica,sans-Serif" font-size="10.00" fill="#000000">init_slew</text>
</a>
</g>
</g>
<!-- Node23&#45;&gt;Node26 -->
<g id="edge5" class="edge">
<title>Node23&#45;&gt;Node26</title>
<path fill="none" stroke="#191970" d="M305.3286,-121.6965C325.7336,-134.5297 362.9499,-157.936 387.0538,-173.0956"/>
<polygon fill="#191970" stroke="#191970" points="385.259,-176.1014 395.5874,-178.4626 388.9857,-170.1759 385.259,-176.1014"/>
</g>
<!-- Node36 -->
<g id="node16" class="node">
<title>Node36</title>
<g id="a_node16"><a xlink:href="_a_p_i_8h.html#a8b51124628d2a7741738d48551d1e8ee" target="_top" xlink:title="mutexTake">
<polygon fill="none" stroke="#000000" points="586.2793,-84.5 586.2793,-102.5 650.6338,-102.5 650.6338,-84.5 586.2793,-84.5"/>
<text text-anchor="middle" x="618.4565" y="-90.5" font-family="Helvetica,sans-Serif" font-size="10.00" fill="#000000">mutexTake</text>
</a>
</g>
</g>
<!-- Node23&#45;&gt;Node36 -->
<g id="edge22" class="edge">
<title>Node23&#45;&gt;Node36</title>
<path fill="none" stroke="#191970" d="M347.0484,-109.2338C412.1405,-105.4603 517.7582,-99.3376 576.1946,-95.95"/>
<polygon fill="#191970" stroke="#191970" points="576.4105,-99.4434 586.1911,-95.3705 576.0053,-92.4552 576.4105,-99.4434"/>
</g>
<!-- Node37 -->
<g id="node17" class="node">
<title>Node37</title>
<g id="a_node17"><a xlink:href="_a_p_i_8h.html#afe171a08d22de18fc2ab604b2364959f" target="_top" xlink:title="mutexGive">
<polygon fill="none" stroke="#000000" points="586.5601,-37.5 586.5601,-55.5 650.353,-55.5 650.353,-37.5 586.5601,-37.5"/>
<text text-anchor="middle" x="618.4565" y="-43.5" font-family="Helvetica,sans-Serif" font-size="10.00" fill="#000000">mutexGive</text>
</a>
</g>
</g>
<!-- Node23&#45;&gt;Node37 -->
<g id="edge21" class="edge">
<title>Node23&#45;&gt;Node37</title>
<path fill="none" stroke="#191970" d="M313.8906,-103.4974C348.1288,-90.6385 414.4969,-67.3681 473.1318,-56.5 507.4587,-50.1374 547.0227,-47.729 576.1939,-46.8603"/>
<polygon fill="#191970" stroke="#191970" points="576.5321,-50.3531 586.442,-46.6055 576.358,-43.3552 576.5321,-50.3531"/>
</g>
<!-- Node38 -->
<g id="node18" class="node">
<title>Node38</title>
<g id="a_node18"><a xlink:href="_a_p_i_8h.html#a03c5b04b472d024281f62d7af8854a8e" target="_top" xlink:title="motorSet">
<polygon fill="none" stroke="#000000" points="590.1709,-.5 590.1709,-18.5 646.7422,-18.5 646.7422,-.5 590.1709,-.5"/>
<text text-anchor="middle" x="618.4565" y="-6.5" font-family="Helvetica,sans-Serif" font-size="10.00" fill="#000000">motorSet</text>
</a>
</g>
</g>
<!-- Node23&#45;&gt;Node38 -->
<g id="edge20" class="edge">
<title>Node23&#45;&gt;Node38</title>
<path fill="none" stroke="#191970" d="M303.4735,-103.4062C320.6796,-91.5708 352.6385,-71.0419 382.7822,-59.5 449.6008,-33.9154 532.3519,-20.1973 579.9078,-13.9107"/>
<polygon fill="#191970" stroke="#191970" points="580.597,-17.3512 590.0717,-12.61 579.7083,-10.4078 580.597,-17.3512"/>
</g>
<!-- Node25 -->
<g id="node5" class="node">
<title>Node25</title>
<g id="a_node5"><a xlink:href="_a_p_i_8h.html#a403c82418e475fa4a8273719e6a7f3e6" target="_top" xlink:title="printf">
<polygon fill="none" stroke="#000000" points="709.7026,-253.5 709.7026,-271.5 747.9341,-271.5 747.9341,-253.5 709.7026,-253.5"/>
<text text-anchor="middle" x="728.8184" y="-259.5" font-family="Helvetica,sans-Serif" font-size="10.00" fill="#000000">printf</text>
</a>
</g>
</g>
<!-- Node24&#45;&gt;Node25 -->
<g id="edge4" class="edge">
<title>Node24&#45;&gt;Node25</title>
<path fill="none" stroke="#191970" d="M420.7334,-290.5205C432.6676,-299.8695 452.9061,-313.8857 473.1318,-319.5 556.7982,-342.7241 657.8811,-299.6052 703.8683,-276.181"/>
<polygon fill="#191970" stroke="#191970" points="705.5713,-279.2403 712.8192,-271.5125 702.3341,-273.0338 705.5713,-279.2403"/>
</g>
<!-- Node27 -->
<g id="node7" class="node">
<title>Node27</title>
<g id="a_node7"><a xlink:href="log_8h.html#a0bec2cf5fff7f607bc510b74aba9887c" target="_top" xlink:title="prints a warning message and displays on lcd. Only will print and display if log_level is greater tha...">
<polygon fill="none" stroke="#000000" points="486.1958,-215.5 486.1958,-233.5 537.2153,-233.5 537.2153,-215.5 486.1958,-215.5"/>
<text text-anchor="middle" x="511.7056" y="-221.5" font-family="Helvetica,sans-Serif" font-size="10.00" fill="#000000">warning</text>
</a>
</g>
</g>
<!-- Node26&#45;&gt;Node27 -->
<g id="edge6" class="edge">
<title>Node26&#45;&gt;Node27</title>
<path fill="none" stroke="#191970" d="M434.8475,-196.5512C447.5352,-201.165 463.1703,-206.8506 477.0189,-211.8865"/>
<polygon fill="#191970" stroke="#191970" points="476.1253,-215.2857 486.7194,-215.414 478.5176,-208.7072 476.1253,-215.2857"/>
</g>
<!-- Node31 -->
<g id="node11" class="node">
<title>Node31</title>
<g id="a_node11"><a xlink:href="_a_p_i_8h.html#a8966c541f3e9565aea1289f0d2f2cf43" target="_top" xlink:title="motorStopAll">
<polygon fill="none" stroke="#000000" points="475.0825,-178.5 475.0825,-196.5 548.3286,-196.5 548.3286,-178.5 475.0825,-178.5"/>
<text text-anchor="middle" x="511.7056" y="-184.5" font-family="Helvetica,sans-Serif" font-size="10.00" fill="#000000">motorStopAll</text>
</a>
</g>
</g>
<!-- Node26&#45;&gt;Node31 -->
<g id="edge11" class="edge">
<title>Node26&#45;&gt;Node31</title>
<path fill="none" stroke="#191970" d="M437.2238,-187.5C445.6967,-187.5 455.2922,-187.5 464.7095,-187.5"/>
<polygon fill="#191970" stroke="#191970" points="464.7967,-191.0001 474.7967,-187.5 464.7966,-184.0001 464.7967,-191.0001"/>
</g>
<!-- Node32 -->
<g id="node12" class="node">
<title>Node32</title>
<g id="a_node12"><a xlink:href="log_8h.html#a1606d750e1bb8de9f9e917172bba3382" target="_top" xlink:title="prints a info message ">
<polygon fill="none" stroke="#000000" points="602.395,-253.5 602.395,-271.5 634.5181,-271.5 634.5181,-253.5 602.395,-253.5"/>
<text text-anchor="middle" x="618.4565" y="-259.5" font-family="Helvetica,sans-Serif" font-size="10.00" fill="#000000">info</text>
</a>
</g>
</g>
<!-- Node26&#45;&gt;Node32 -->
<g id="edge12" class="edge">
<title>Node26&#45;&gt;Node32</title>
<path fill="none" stroke="#191970" d="M417.3661,-196.9149C428.1232,-209.8331 449.3924,-232.6805 473.1318,-243.5 511.8993,-261.1687 562.1225,-263.8528 592.2321,-263.5953"/>
<polygon fill="#191970" stroke="#191970" points="592.4297,-267.0921 602.3566,-263.3897 592.2875,-260.0936 592.4297,-267.0921"/>
</g>
<!-- Node33 -->
<g id="node13" class="node">
<title>Node33</title>
<g id="a_node13"><a xlink:href="_a_p_i_8h.html#aecd027ce8f8b52a765735e9eb5b202b3" target="_top" xlink:title="mutexCreate">
<polygon fill="none" stroke="#000000" points="475.0825,-141.5 475.0825,-159.5 548.3286,-159.5 548.3286,-141.5 475.0825,-141.5"/>
<text text-anchor="middle" x="511.7056" y="-147.5" font-family="Helvetica,sans-Serif" font-size="10.00" fill="#000000">mutexCreate</text>
</a>
</g>
</g>
<!-- Node26&#45;&gt;Node33 -->
<g id="edge14" class="edge">
<title>Node26&#45;&gt;Node33</title>
<path fill="none" stroke="#191970" d="M434.8475,-178.4488C447.5352,-173.835 463.1703,-168.1494 477.0189,-163.1135"/>
<polygon fill="#191970" stroke="#191970" points="478.5176,-166.2928 486.7194,-159.586 476.1253,-159.7143 478.5176,-166.2928"/>
</g>
<!-- Node34 -->
<g id="node14" class="node">
<title>Node34</title>
<g id="a_node14"><a xlink:href="_a_p_i_8h.html#ab05a241d6d1fd98b1ceb4665db678156" target="_top" xlink:title="taskRunLoop">
<polygon fill="none" stroke="#000000" points="474.2402,-291.5 474.2402,-309.5 549.1709,-309.5 549.1709,-291.5 474.2402,-291.5"/>
<text text-anchor="middle" x="511.7056" y="-297.5" font-family="Helvetica,sans-Serif" font-size="10.00" fill="#000000">taskRunLoop</text>
</a>
</g>
</g>
<!-- Node26&#45;&gt;Node34 -->
<g id="edge15" class="edge">
<title>Node26&#45;&gt;Node34</title>
<path fill="none" stroke="#191970" d="M414.8604,-196.7314C424.3489,-213.9713 446.6377,-251.5676 473.1318,-276.5 476.7469,-279.9019 480.9159,-283.0817 485.148,-285.943"/>
<polygon fill="#191970" stroke="#191970" points="483.4329,-288.9986 493.7662,-291.338 487.1471,-283.0652 483.4329,-288.9986"/>
</g>
<!-- Node35 -->
<g id="node15" class="node">
<title>Node35</title>
<g id="a_node15"><a xlink:href="slew_8c.html#a807a87c5df438fde21c1e8213906695b" target="_top" xlink:title="Closes the distance between the desired motor value and the current motor value by half for each moto...">
<polygon fill="none" stroke="#000000" points="473.1318,-65.5 473.1318,-83.5 550.2793,-83.5 550.2793,-65.5 473.1318,-65.5"/>
<text text-anchor="middle" x="511.7056" y="-71.5" font-family="Helvetica,sans-Serif" font-size="10.00" fill="#000000">updateMotors</text>
</a>
</g>
</g>
<!-- Node26&#45;&gt;Node35 -->
<g id="edge16" class="edge">
<title>Node26&#45;&gt;Node35</title>
<path fill="none" stroke="#191970" d="M418.2835,-178.2527C435.4359,-159.2037 474.9185,-115.355 496.6627,-91.2064"/>
<polygon fill="#191970" stroke="#191970" points="499.4579,-93.3326 503.5484,-83.5592 494.256,-88.6486 499.4579,-93.3326"/>
</g>
<!-- Node28 -->
<g id="node8" class="node">
<title>Node28</title>
<g id="a_node8"><a xlink:href="log_8c.html#afff22aff6749311a684a559cac3ac8bd" target="_top" xlink:title="log_info">
<polygon fill="none" stroke="#000000" points="592.9419,-216.5 592.9419,-234.5 643.9712,-234.5 643.9712,-216.5 592.9419,-216.5"/>
<text text-anchor="middle" x="618.4565" y="-222.5" font-family="Helvetica,sans-Serif" font-size="10.00" fill="#000000">log_info</text>
</a>
</g>
</g>
<!-- Node27&#45;&gt;Node28 -->
<g id="edge7" class="edge">
<title>Node27&#45;&gt;Node28</title>
<path fill="none" stroke="#191970" d="M537.2751,-224.7395C550.7758,-224.866 567.5694,-225.0233 582.3733,-225.162"/>
<polygon fill="#191970" stroke="#191970" points="582.6933,-228.665 592.7257,-225.259 582.7589,-221.6653 582.6933,-228.665"/>
</g>
<!-- Node28&#45;&gt;Node25 -->
<g id="edge10" class="edge">
<title>Node28&#45;&gt;Node25</title>
<path fill="none" stroke="#191970" d="M644.0532,-234.0815C660.7671,-239.6851 682.6221,-247.0122 699.9541,-252.823"/>
<polygon fill="#191970" stroke="#191970" points="698.9693,-256.1842 709.5633,-256.0445 701.1945,-249.5473 698.9693,-256.1842"/>
</g>
<!-- Node29 -->
<g id="node9" class="node">
<title>Node29</title>
<g id="a_node9"><a xlink:href="_a_p_i_8h.html#a5fa1d119fe3e836b5519f97eae7a1272" target="_top" xlink:title="lcdClear">
<polygon fill="none" stroke="#000000" points="702.4785,-216.5 702.4785,-234.5 755.1582,-234.5 755.1582,-216.5 702.4785,-216.5"/>
<text text-anchor="middle" x="728.8184" y="-222.5" font-family="Helvetica,sans-Serif" font-size="10.00" fill="#000000">lcdClear</text>
</a>
</g>
</g>
<!-- Node28&#45;&gt;Node29 -->
<g id="edge8" class="edge">
<title>Node28&#45;&gt;Node29</title>
<path fill="none" stroke="#191970" d="M644.0532,-225.5C658.229,-225.5 676.1031,-225.5 691.7793,-225.5"/>
<polygon fill="#191970" stroke="#191970" points="692.2084,-229.0001 702.2084,-225.5 692.2083,-222.0001 692.2084,-229.0001"/>
</g>
<!-- Node30 -->
<g id="node10" class="node">
<title>Node30</title>
<g id="a_node10"><a xlink:href="_a_p_i_8h.html#aab53a247d88151a6623c20fa1ea940b0" target="_top" xlink:title="lcdSetBacklight">
<polygon fill="none" stroke="#000000" points="686.6338,-179.5 686.6338,-197.5 771.0029,-197.5 771.0029,-179.5 686.6338,-179.5"/>
<text text-anchor="middle" x="728.8184" y="-185.5" font-family="Helvetica,sans-Serif" font-size="10.00" fill="#000000">lcdSetBacklight</text>
</a>
</g>
</g>
<!-- Node28&#45;&gt;Node30 -->
<g id="edge9" class="edge">
<title>Node28&#45;&gt;Node30</title>
<path fill="none" stroke="#191970" d="M644.0532,-216.9185C658.3961,-212.1098 676.5251,-206.0319 692.3329,-200.7322"/>
<polygon fill="#191970" stroke="#191970" points="693.4521,-204.0485 701.8208,-197.5512 691.2269,-197.4115 693.4521,-204.0485"/>
</g>
<!-- Node32&#45;&gt;Node25 -->
<g id="edge13" class="edge">
<title>Node32&#45;&gt;Node25</title>
<path fill="none" stroke="#191970" d="M634.7408,-262.5C651.6923,-262.5 678.6081,-262.5 699.3153,-262.5"/>
<polygon fill="#191970" stroke="#191970" points="699.4922,-266.0001 709.4922,-262.5 699.4922,-259.0001 699.4922,-266.0001"/>
</g>
<!-- Node35&#45;&gt;Node36 -->
<g id="edge17" class="edge">
<title>Node35&#45;&gt;Node36</title>
<path fill="none" stroke="#191970" d="M550.5471,-81.4132C558.854,-82.8917 567.6694,-84.4607 576.1011,-85.9614"/>
<polygon fill="#191970" stroke="#191970" points="575.6772,-89.4409 586.1358,-87.7474 576.9038,-82.5492 575.6772,-89.4409"/>
</g>
<!-- Node35&#45;&gt;Node37 -->
<g id="edge18" class="edge">
<title>Node35&#45;&gt;Node37</title>
<path fill="none" stroke="#191970" d="M546.0699,-65.4865C555.761,-62.9446 566.414,-60.1504 576.4968,-57.5057"/>
<polygon fill="#191970" stroke="#191970" points="577.548,-60.8485 586.3327,-54.9258 575.7719,-54.0775 577.548,-60.8485"/>
</g>
<!-- Node35&#45;&gt;Node38 -->
<g id="edge19" class="edge">
<title>Node35&#45;&gt;Node38</title>
<path fill="none" stroke="#191970" d="M525.59,-65.4439C540.4658,-55.8134 564.8352,-40.2437 586.2793,-27.5 588.2912,-26.3044 590.3848,-25.0831 592.4957,-23.8679"/>
<polygon fill="#191970" stroke="#191970" points="594.684,-26.6509 601.6609,-18.6776 591.2346,-20.5598 594.684,-26.6509"/>
</g>
</g>
</svg>
        <g id="navigator" transform="translate(0 0)" fill="#404254">
                <rect fill="#f2f5e9" fill-opacity="0.5" stroke="#606060" stroke-width=".5" x="0" y="0" width="60" height="60"/>
                <use id="zoomplus" xlink:href="#zoomPlus" x="17" y="9" onmousedown="handleZoom(evt,'in')"/>
                <use id="zoomminus" xlink:href="#zoomMin" x="42" y="9" onmousedown="handleZoom(evt,'out')"/>
                <use id="reset" xlink:href="#resetDef" x="30" y="36" onmousedown="handleReset()"/>
                <g id="arrowUp" xlink:href="#dirArrow" transform="translate(30 24)" onmousedown="handlePan(0,-1)">
                  <use xlink:href="#rim" fill="#404040">
                        <set attributeName="fill" to="#808080" begin="arrowUp.mouseover" end="arrowUp.mouseout"/>
                  </use>
                  <path fill="none" stroke="white" stroke-width="1.5" d="M0,-3.0v7 M-2.5,-0.5L0,-3.0L2.5,-0.5"/>
                </g>
                <g id="arrowRight" xlink:href="#dirArrow" transform="rotate(90) translate(36 -43)" onmousedown="handlePan(1,0)">
                  <use xlink:href="#rim" fill="#404040">
                        <set attributeName="fill" to="#808080" begin="arrowRight.mouseover" end="arrowRight.mouseout"/>
                  </use>
                  <path fill="none" stroke="white" stroke-width="1.5" d="M0,-3.0v7 M-2.5,-0.5L0,-3.0L2.5,-0.5"/>
                </g>
                <g id="arrowDown" xlink:href="#dirArrow" transform="rotate(180) translate(-30 -48)" onmousedown="handlePan(0,1)">
                  <use xlink:href="#rim" fill="#404040">
                        <set attributeName="fill" to="#808080" begin="arrowDown.mouseover" end="arrowDown.mouseout"/>
                  </use>
                  <path fill="none" stroke="white" stroke-width="1.5" d="M0,-3.0v7 M-2.5,-0.5L0,-3.0L2.5,-0.5"/>
                </g>
                <g id="arrowLeft" xlink:href="#dirArrow" transform="rotate(270) translate(-36 17)" onmousedown="handlePan(-1,0)">
                  <use xlink:href="#rim" fill="#404040">
                        <set attributeName="fill" to="#808080" begin="arrowLeft.mouseover" end="arrowLeft.mouseout"/>
                  </use>
                  <path fill="none" stroke="white" stroke-width="1.5" d="M0,-3.0v7 M-2.5,-0.5L0,-3.0L2.5,-0.5"/>
                </g>
        </g>
        <svg viewBox="0 0 15 15" width="100%" height="30px" preserveAspectRatio="xMaxYMin meet">
         <g id="arrow_out" transform="scale(0.3 0.3)">
          <a xlink:href="mobile__goal__intake_8c_a4899f9a8621015313e6312ce085da979_cgraph_org.svg" target="_base">
           <rect id="button" ry="5" rx="5" y="6" x="6" height="38" width="38"
                fill="#f2f5e9" fill-opacity="0.5" stroke="#606060" stroke-width="1.0"/>
           <path id="arrow"
             d="M 11.500037,31.436501 C 11.940474,20.09759 22.043105,11.32322 32.158766,21.979434 L 37.068811,17.246167 C 37.068811,17.246167 37.088388,32 37.088388,32 L 22.160133,31.978069 C 22.160133,31.978069 26.997745,27.140456 26.997745,27.140456 C 18.528582,18.264221 13.291696,25.230495 11.500037,31.436501 z"
             style="fill:#404040;"/>
          </a>
         </g>
        </svg>
</svg>
