<?xml version="1.0" encoding="UTF-8" standalone="no"?>
<!DOCTYPE svg PUBLIC "-//W3C//DTD SVG 1.1//EN"
 "http://www.w3.org/Graphics/SVG/1.1/DTD/svg11.dtd">
<!-- Generated by graphviz version 2.40.1 (20161225.0304)
 -->
<!-- Title: raise_intake Pages: 1 -->
<svg width="314pt" height="64pt"
 viewBox="0.00 0.00 314.24 64.00" xmlns="http://www.w3.org/2000/svg" xmlns:xlink="http://www.w3.org/1999/xlink">
<g id="graph0" class="graph" transform="scale(1 1) rotate(0) translate(4 60)">
<title>raise_intake</title>
<!-- Node40 -->
<g id="node1" class="node">
<title>Node40</title>
<polygon fill="#bfbfbf" stroke="#000000" points="0,-18.5 0,-36.5 69.9209,-36.5 69.9209,-18.5 0,-18.5"/>
<text text-anchor="middle" x="34.9604" y="-24.5" font-family="Helvetica,sans-Serif" font-size="10.00" fill="#000000">raise_intake</text>
</g>
<!-- Node41 -->
<g id="node2" class="node">
<title>Node41</title>
<g id="a_node2"><a xlink:href="auto_8c.html#a3c7ca506bbc071fa740de13805b7f376" target="_top" xlink:title="Runs the user autonomous code. ">
<polygon fill="none" stroke="#000000" points="109.8174,-37.5 109.8174,-55.5 180.8564,-55.5 180.8564,-37.5 109.8174,-37.5"/>
<text text-anchor="middle" x="145.3369" y="-43.5" font-family="Helvetica,sans-Serif" font-size="10.00" fill="#000000">autonomous</text>
</a>
</g>
</g>
<!-- Node40&#45;&gt;Node41 -->
<g id="edge1" class="edge">
<title>Node40&#45;&gt;Node41</title>
<path fill="none" stroke="#191970" d="M80.2134,-35.2898C90.0371,-36.9808 100.2952,-38.7466 109.6866,-40.3632"/>
<polygon fill="#191970" stroke="#191970" points="80.6366,-31.8112 70.1877,-33.564 79.449,-38.7097 80.6366,-31.8112"/>
</g>
<!-- Node42 -->
<g id="node3" class="node">
<title>Node42</title>
<g id="a_node3"><a xlink:href="mobile__goal__intake_8c.html#a5d7bad8a208988af743fd2e68f111286" target="_top" xlink:title="updates the mobile goal intake in teleop. ">
<polygon fill="none" stroke="#000000" points="105.9209,-.5 105.9209,-18.5 184.7529,-18.5 184.7529,-.5 105.9209,-.5"/>
<text text-anchor="middle" x="145.3369" y="-6.5" font-family="Helvetica,sans-Serif" font-size="10.00" fill="#000000">update_intake</text>
</a>
</g>
</g>
<!-- Node40&#45;&gt;Node42 -->
<g id="edge2" class="edge">
<title>Node40&#45;&gt;Node42</title>
<path fill="none" stroke="#191970" d="M80.3064,-20.1051C88.7779,-18.7235 97.5691,-17.2899 105.8465,-15.94"/>
<polygon fill="#191970" stroke="#191970" points="79.494,-16.6912 70.1877,-21.7552 80.6207,-23.6 79.494,-16.6912"/>
</g>
<!-- Node43 -->
<g id="node4" class="node">
<title>Node43</title>
<g id="a_node4"><a xlink:href="opcontrol_8c.html#ac71a94af413917f27d108e95c4d6f6a7" target="_top" xlink:title="Runs the user operator control code. ">
<polygon fill="none" stroke="#000000" points="220.7529,-.5 220.7529,-18.5 306.2354,-18.5 306.2354,-.5 220.7529,-.5"/>
<text text-anchor="middle" x="263.4941" y="-6.5" font-family="Helvetica,sans-Serif" font-size="10.00" fill="#000000">operatorControl</text>
</a>
</g>
</g>
<!-- Node42&#45;&gt;Node43 -->
<g id="edge3" class="edge">
<title>Node42&#45;&gt;Node43</title>
<path fill="none" stroke="#191970" d="M195.1178,-9.5C203.5487,-9.5 212.2386,-9.5 220.4776,-9.5"/>
<polygon fill="#191970" stroke="#191970" points="195.0103,-6.0001 185.0103,-9.5 195.0102,-13.0001 195.0103,-6.0001"/>
</g>
</g>
</svg>
