<?xml version="1.0" encoding="UTF-8" standalone="no"?>
<!DOCTYPE svg PUBLIC "-//W3C//DTD SVG 1.1//EN"
 "http://www.w3.org/Graphics/SVG/1.1/DTD/svg11.dtd">
<!-- Generated by graphviz version 2.40.1 (20161225.0304)
 -->
<!-- Title: src/mobile_goal_intake.c Pages: 1 -->
<svg width="326pt" height="302pt"
 viewBox="0.00 0.00 326.02 302.00" xmlns="http://www.w3.org/2000/svg" xmlns:xlink="http://www.w3.org/1999/xlink">
<g id="graph0" class="graph" transform="scale(1 1) rotate(0) translate(4 298)">
<title>src/mobile_goal_intake.c</title>
<!-- Node0 -->
<g id="node1" class="node">
<title>Node0</title>
<polygon fill="#bfbfbf" stroke="#000000" points="87.8696,-275.5 87.8696,-293.5 213.9282,-293.5 213.9282,-275.5 87.8696,-275.5"/>
<text text-anchor="middle" x="150.8989" y="-281.5" font-family="Helvetica,sans-Serif" font-size="10.00" fill="#000000">src/mobile_goal_intake.c</text>
</g>
<!-- Node1 -->
<g id="node2" class="node">
<title>Node1</title>
<g id="a_node2"><a xlink:href="mobile__goal__intake_8h.html" target="_top" xlink:title="mobile_goal_intake.h">
<polygon fill="none" stroke="#000000" points="45.6431,-220.5 45.6431,-238.5 156.1548,-238.5 156.1548,-220.5 45.6431,-220.5"/>
<text text-anchor="middle" x="100.8989" y="-226.5" font-family="Helvetica,sans-Serif" font-size="10.00" fill="#000000">mobile_goal_intake.h</text>
</a>
</g>
</g>
<!-- Node0&#45;&gt;Node1 -->
<g id="edge1" class="edge">
<title>Node0&#45;&gt;Node1</title>
<path fill="none" stroke="#191970" d="M142.6424,-275.4179C135.4481,-267.5041 124.8301,-255.8243 116.1036,-246.2251"/>
<polygon fill="#191970" stroke="#191970" points="118.6514,-243.8245 109.3348,-238.7795 113.4718,-248.5332 118.6514,-243.8245"/>
</g>
<!-- Node14 -->
<g id="node15" class="node">
<title>Node14</title>
<g id="a_node15"><a xlink:href="partner_8h.html" target="_top" xlink:title="partner.h">
<polygon fill="none" stroke="#000000" points="174.1602,-220.5 174.1602,-238.5 229.6377,-238.5 229.6377,-220.5 174.1602,-220.5"/>
<text text-anchor="middle" x="201.8989" y="-226.5" font-family="Helvetica,sans-Serif" font-size="10.00" fill="#000000">partner.h</text>
</a>
</g>
</g>
<!-- Node0&#45;&gt;Node14 -->
<g id="edge18" class="edge">
<title>Node0&#45;&gt;Node14</title>
<path fill="none" stroke="#191970" d="M159.3205,-275.4179C166.6587,-267.5041 177.4891,-255.8243 186.3902,-246.2251"/>
<polygon fill="#191970" stroke="#191970" points="189.0614,-248.492 193.2943,-238.7795 183.9285,-243.7324 189.0614,-248.492"/>
</g>
<!-- Node2 -->
<g id="node3" class="node">
<title>Node2</title>
<g id="a_node3"><a xlink:href="motor__ports_8h.html" target="_top" xlink:title="motor_ports.h">
<polygon fill="none" stroke="#000000" points="62.0518,-165.5 62.0518,-183.5 139.7461,-183.5 139.7461,-165.5 62.0518,-165.5"/>
<text text-anchor="middle" x="100.8989" y="-171.5" font-family="Helvetica,sans-Serif" font-size="10.00" fill="#000000">motor_ports.h</text>
</a>
</g>
</g>
<!-- Node1&#45;&gt;Node2 -->
<g id="edge2" class="edge">
<title>Node1&#45;&gt;Node2</title>
<path fill="none" stroke="#191970" d="M100.8989,-220.4179C100.8989,-213.2164 100.8989,-202.8962 100.8989,-193.8632"/>
<polygon fill="#191970" stroke="#191970" points="104.399,-193.7794 100.8989,-183.7795 97.399,-193.7795 104.399,-193.7794"/>
</g>
<!-- Node3 -->
<g id="node4" class="node">
<title>Node3</title>
<g id="a_node4"><a xlink:href="controller_8h.html" target="_top" xlink:title="controller definitions, macros ">
<polygon fill="none" stroke="#000000" points="157.4385,-165.5 157.4385,-183.5 222.3594,-183.5 222.3594,-165.5 157.4385,-165.5"/>
<text text-anchor="middle" x="189.8989" y="-171.5" font-family="Helvetica,sans-Serif" font-size="10.00" fill="#000000">controller.h</text>
</a>
</g>
</g>
<!-- Node1&#45;&gt;Node3 -->
<g id="edge3" class="edge">
<title>Node1&#45;&gt;Node3</title>
<path fill="none" stroke="#191970" d="M115.5955,-220.4179C129.3803,-211.8992 150.2267,-199.0166 166.3338,-189.0627"/>
<polygon fill="#191970" stroke="#191970" points="168.5138,-191.83 175.1806,-183.5956 164.8339,-185.8753 168.5138,-191.83"/>
</g>
<!-- Node11 -->
<g id="node12" class="node">
<title>Node11</title>
<g id="a_node12"><a xlink:href="slew_8h.html" target="_top" xlink:title="Contains the slew rate controller wrapper for the motors. ">
<polygon fill="none" stroke="#000000" points="0,-165.5 0,-183.5 43.7979,-183.5 43.7979,-165.5 0,-165.5"/>
<text text-anchor="middle" x="21.8989" y="-171.5" font-family="Helvetica,sans-Serif" font-size="10.00" fill="#000000">slew.h</text>
</a>
</g>
</g>
<!-- Node1&#45;&gt;Node11 -->
<g id="edge11" class="edge">
<title>Node1&#45;&gt;Node11</title>
<path fill="none" stroke="#191970" d="M87.8537,-220.4179C75.7321,-211.9788 57.4589,-199.257 43.2182,-189.3426"/>
<polygon fill="#191970" stroke="#191970" points="45.1703,-186.4369 34.9635,-183.5956 41.1707,-192.1818 45.1703,-186.4369"/>
</g>
<!-- Node4 -->
<g id="node5" class="node">
<title>Node4</title>
<g id="a_node5"><a xlink:href="vmath_8h.html" target="_top" xlink:title="Vex Specific Math Functions, includes: Cartesian to polar cordinates. ">
<polygon fill="none" stroke="#000000" points="26.1133,-110.5 26.1133,-128.5 77.6846,-128.5 77.6846,-110.5 26.1133,-110.5"/>
<text text-anchor="middle" x="51.8989" y="-116.5" font-family="Helvetica,sans-Serif" font-size="10.00" fill="#000000">vmath.h</text>
</a>
</g>
</g>
<!-- Node3&#45;&gt;Node4 -->
<g id="edge4" class="edge">
<title>Node3&#45;&gt;Node4</title>
<path fill="none" stroke="#191970" d="M167.111,-165.4179C144.5382,-156.4215 109.7537,-142.5581 84.3093,-132.4172"/>
<polygon fill="#191970" stroke="#191970" points="85.3059,-129.0467 74.7207,-128.5956 82.7143,-135.5493 85.3059,-129.0467"/>
</g>
<!-- Node6 -->
<g id="node7" class="node">
<title>Node6</title>
<g id="a_node7"><a xlink:href="_a_p_i_8h.html" target="_top" xlink:title="Provides the high&#45;level user functionality intended for use by typical VEX Cortex programmers...">
<polygon fill="none" stroke="#000000" points="169.6699,-55.5 169.6699,-73.5 210.1279,-73.5 210.1279,-55.5 169.6699,-55.5"/>
<text text-anchor="middle" x="189.8989" y="-61.5" font-family="Helvetica,sans-Serif" font-size="10.00" fill="#000000">API.h</text>
</a>
</g>
</g>
<!-- Node3&#45;&gt;Node6 -->
<g id="edge6" class="edge">
<title>Node3&#45;&gt;Node6</title>
<path fill="none" stroke="#191970" d="M189.8989,-165.4982C189.8989,-147.6913 189.8989,-107.6225 189.8989,-83.6515"/>
<polygon fill="#191970" stroke="#191970" points="193.399,-83.6261 189.8989,-73.6261 186.399,-83.6262 193.399,-83.6261"/>
</g>
<!-- Node5 -->
<g id="node6" class="node">
<title>Node5</title>
<polygon fill="none" stroke="#bfbfbf" points="26.6133,-55.5 26.6133,-73.5 73.1846,-73.5 73.1846,-55.5 26.6133,-55.5"/>
<text text-anchor="middle" x="49.8989" y="-61.5" font-family="Helvetica,sans-Serif" font-size="10.00" fill="#000000">math.h</text>
</g>
<!-- Node4&#45;&gt;Node5 -->
<g id="edge5" class="edge">
<title>Node4&#45;&gt;Node5</title>
<path fill="none" stroke="#191970" d="M51.5687,-110.4179C51.3068,-103.2164 50.9315,-92.8962 50.603,-83.8632"/>
<polygon fill="#191970" stroke="#191970" points="54.0975,-83.6456 50.2364,-73.7795 47.1022,-83.9001 54.0975,-83.6456"/>
</g>
<!-- Node7 -->
<g id="node8" class="node">
<title>Node7</title>
<polygon fill="none" stroke="#bfbfbf" points="60.0566,-.5 60.0566,-18.5 107.7412,-18.5 107.7412,-.5 60.0566,-.5"/>
<text text-anchor="middle" x="83.8989" y="-6.5" font-family="Helvetica,sans-Serif" font-size="10.00" fill="#000000">stdlib.h</text>
</g>
<!-- Node6&#45;&gt;Node7 -->
<g id="edge7" class="edge">
<title>Node6&#45;&gt;Node7</title>
<path fill="none" stroke="#191970" d="M172.3952,-55.4179C155.517,-46.6603 129.7502,-33.2907 110.3653,-23.2326"/>
<polygon fill="#191970" stroke="#191970" points="111.9169,-20.0946 101.4287,-18.5956 108.693,-26.308 111.9169,-20.0946"/>
</g>
<!-- Node8 -->
<g id="node9" class="node">
<title>Node8</title>
<polygon fill="none" stroke="#bfbfbf" points="125.606,-.5 125.606,-18.5 182.1919,-18.5 182.1919,-.5 125.606,-.5"/>
<text text-anchor="middle" x="153.8989" y="-6.5" font-family="Helvetica,sans-Serif" font-size="10.00" fill="#000000">stdbool.h</text>
</g>
<!-- Node6&#45;&gt;Node8 -->
<g id="edge8" class="edge">
<title>Node6&#45;&gt;Node8</title>
<path fill="none" stroke="#191970" d="M183.9543,-55.4179C178.9815,-47.8207 171.737,-36.7527 165.6065,-27.3866"/>
<polygon fill="#191970" stroke="#191970" points="168.3778,-25.2297 159.9728,-18.7795 162.5209,-29.0633 168.3778,-25.2297"/>
</g>
<!-- Node9 -->
<g id="node10" class="node">
<title>Node9</title>
<polygon fill="none" stroke="#bfbfbf" points="199.8325,-.5 199.8325,-18.5 251.9653,-18.5 251.9653,-.5 199.8325,-.5"/>
<text text-anchor="middle" x="225.8989" y="-6.5" font-family="Helvetica,sans-Serif" font-size="10.00" fill="#000000">stdarg.h</text>
</g>
<!-- Node6&#45;&gt;Node9 -->
<g id="edge9" class="edge">
<title>Node6&#45;&gt;Node9</title>
<path fill="none" stroke="#191970" d="M195.8436,-55.4179C200.8163,-47.8207 208.0608,-36.7527 214.1913,-27.3866"/>
<polygon fill="#191970" stroke="#191970" points="217.2769,-29.0633 219.8251,-18.7795 211.42,-25.2297 217.2769,-29.0633"/>
</g>
<!-- Node10 -->
<g id="node11" class="node">
<title>Node10</title>
<polygon fill="none" stroke="#bfbfbf" points="269.7783,-.5 269.7783,-18.5 318.0195,-18.5 318.0195,-.5 269.7783,-.5"/>
<text text-anchor="middle" x="293.8989" y="-6.5" font-family="Helvetica,sans-Serif" font-size="10.00" fill="#000000">stdint.h</text>
</g>
<!-- Node6&#45;&gt;Node10 -->
<g id="edge10" class="edge">
<title>Node6&#45;&gt;Node10</title>
<path fill="none" stroke="#191970" d="M207.0724,-55.4179C223.5569,-46.7001 248.6832,-33.4122 267.6722,-23.3699"/>
<polygon fill="#191970" stroke="#191970" points="269.4962,-26.3646 276.6999,-18.5956 266.2237,-20.1767 269.4962,-26.3646"/>
</g>
<!-- Node11&#45;&gt;Node5 -->
<g id="edge13" class="edge">
<title>Node11&#45;&gt;Node5</title>
<path fill="none" stroke="#191970" d="M19.0709,-165.4814C15.5564,-152.7711 10.7289,-129.0162 16.8989,-110 20.3411,-99.3911 27.2877,-89.1855 33.9234,-81.1379"/>
<polygon fill="#191970" stroke="#191970" points="36.5765,-83.4211 40.5659,-73.606 31.3265,-78.791 36.5765,-83.4211"/>
</g>
<!-- Node11&#45;&gt;Node6 -->
<g id="edge12" class="edge">
<title>Node11&#45;&gt;Node6</title>
<path fill="none" stroke="#191970" d="M44.0001,-167.0457C76.876,-155.8394 135.6917,-135.2928 143.8989,-129 160.0393,-116.6246 172.8817,-97.0248 180.8507,-82.676"/>
<polygon fill="#191970" stroke="#191970" points="183.9975,-84.212 185.5697,-73.7345 177.8068,-80.9447 183.9975,-84.212"/>
</g>
<!-- Node12 -->
<g id="node13" class="node">
<title>Node12</title>
<g id="a_node13"><a xlink:href="vlib_8h.html" target="_top" xlink:title="Contains misc helpful functions. ">
<polygon fill="none" stroke="#000000" points="95.2266,-110.5 95.2266,-128.5 134.5713,-128.5 134.5713,-110.5 95.2266,-110.5"/>
<text text-anchor="middle" x="114.8989" y="-116.5" font-family="Helvetica,sans-Serif" font-size="10.00" fill="#000000">vlib.h</text>
</a>
</g>
</g>
<!-- Node11&#45;&gt;Node12 -->
<g id="edge14" class="edge">
<title>Node11&#45;&gt;Node12</title>
<path fill="none" stroke="#191970" d="M37.256,-165.4179C51.795,-156.8195 73.8515,-143.7754 90.7453,-133.7844"/>
<polygon fill="#191970" stroke="#191970" points="92.6933,-136.6987 99.5191,-128.5956 89.13,-130.6735 92.6933,-136.6987"/>
</g>
<!-- Node12&#45;&gt;Node5 -->
<g id="edge15" class="edge">
<title>Node12&#45;&gt;Node5</title>
<path fill="none" stroke="#191970" d="M104.1655,-110.4179C94.5323,-102.2667 80.1773,-90.1201 68.6508,-80.3669"/>
<polygon fill="#191970" stroke="#191970" points="70.7603,-77.5671 60.8656,-73.7795 66.2386,-82.9108 70.7603,-77.5671"/>
</g>
<!-- Node12&#45;&gt;Node6 -->
<g id="edge16" class="edge">
<title>Node12&#45;&gt;Node6</title>
<path fill="none" stroke="#191970" d="M127.2837,-110.4179C138.683,-102.0584 155.8126,-89.4966 169.2754,-79.6239"/>
<polygon fill="#191970" stroke="#191970" points="171.5015,-82.3317 177.4958,-73.5956 167.3619,-76.6869 171.5015,-82.3317"/>
</g>
<!-- Node13 -->
<g id="node14" class="node">
<title>Node13</title>
<polygon fill="none" stroke="#bfbfbf" points="91.5024,-55.5 91.5024,-73.5 140.2954,-73.5 140.2954,-55.5 91.5024,-55.5"/>
<text text-anchor="middle" x="115.8989" y="-61.5" font-family="Helvetica,sans-Serif" font-size="10.00" fill="#000000">string.h</text>
</g>
<!-- Node12&#45;&gt;Node13 -->
<g id="edge17" class="edge">
<title>Node12&#45;&gt;Node13</title>
<path fill="none" stroke="#191970" d="M115.0641,-110.4179C115.195,-103.2164 115.3826,-92.8962 115.5469,-83.8632"/>
<polygon fill="#191970" stroke="#191970" points="119.0477,-83.8415 115.7302,-73.7795 112.0489,-83.7141 119.0477,-83.8415"/>
</g>
<!-- Node14&#45;&gt;Node3 -->
<g id="edge19" class="edge">
<title>Node14&#45;&gt;Node3</title>
<path fill="none" stroke="#191970" d="M199.9174,-220.4179C198.3289,-213.1372 196.0449,-202.669 194.0588,-193.5659"/>
<polygon fill="#191970" stroke="#191970" points="197.4748,-192.8035 191.9235,-183.7795 190.6357,-194.2957 197.4748,-192.8035"/>
</g>
<!-- Node14&#45;&gt;Node6 -->
<g id="edge20" class="edge">
<title>Node14&#45;&gt;Node6</title>
<path fill="none" stroke="#191970" d="M210.1185,-220.182C217.1866,-211.5014 226.8607,-197.849 230.8989,-184 233.2628,-175.8932 232.5242,-173.2866 230.8989,-165 224.969,-134.7661 209.8897,-102.1571 199.7667,-82.5394"/>
<polygon fill="#191970" stroke="#191970" points="202.7755,-80.7423 194.9995,-73.5461 196.5907,-84.0208 202.7755,-80.7423"/>
</g>
</g>
</svg>
