<?xml version="1.0" encoding="UTF-8" standalone="no"?>
<!DOCTYPE svg PUBLIC "-//W3C//DTD SVG 1.1//EN"
 "http://www.w3.org/Graphics/SVG/1.1/DTD/svg11.dtd">
<!-- Generated by graphviz version 2.40.1 (20161225.0304)
 -->
<!-- Title: lower_intake Pages: 1 -->
<!--zoomable 316 -->
<svg id="main" version="1.1" xmlns="http://www.w3.org/2000/svg" xmlns:xlink="http://www.w3.org/1999/xlink" xml:space="preserve" onload="init(evt)">
<style type="text/css"><![CDATA[
.edge:hover path { stroke: red; }
.edge:hover polygon { stroke: red; fill: red; }
]]></style>
<script type="text/javascript"><![CDATA[
var edges = document.getElementsByTagName('g');
if (edges && edges.length) {
  for (var i=0;i<edges.length;i++) {
    if (edges[i].id.substr(0,4)=='edge') {
      edges[i].setAttribute('class','edge');
    }
  }
}
]]></script>
        <defs>
                <circle id="rim" cx="0" cy="0" r="7"/>
                <circle id="rim2" cx="0" cy="0" r="3.5"/>
                <g id="zoomPlus">
                        <use xlink:href="#rim" fill="#404040">
                                <set attributeName="fill" to="#808080" begin="zoomplus.mouseover" end="zoomplus.mouseout"/>
                        </use>
                        <path d="M-4,0h8M0,-4v8" fill="none" stroke="white" stroke-width="1.5" pointer-events="none"/>
                </g>
                <g id="zoomMin">
                        <use xlink:href="#rim" fill="#404040">
                                <set attributeName="fill" to="#808080" begin="zoomminus.mouseover" end="zoomminus.mouseout"/>
                        </use>
                        <path d="M-4,0h8" fill="none" stroke="white" stroke-width="1.5" pointer-events="none"/>
                </g>
                <g id="dirArrow">
                        <path fill="none" stroke="white" stroke-width="1.5" d="M0,-3.0v7 M-2.5,-0.5L0,-3.0L2.5,-0.5"/>
                </g>
               <g id="resetDef">
                       <use xlink:href="#rim2" fill="#404040">
                               <set attributeName="fill" to="#808080" begin="reset.mouseover" end="reset.mouseout"/>
                       </use>
               </g>
        </defs>

<script type="text/javascript">
var viewWidth = 781;
var viewHeight = 316;
var sectionId = 'dynsection-0';
</script>
<script xlink:href="svgpan.js"/>
<svg id="graph" class="graph">
<g id="viewport">
<title>lower_intake</title>
<!-- Node0 -->
<g id="node1" class="node">
<title>Node0</title>
<polygon fill="#bfbfbf" stroke="#000000" points="0,-103.5 0,-121.5 72.1426,-121.5 72.1426,-103.5 0,-103.5"/>
<text text-anchor="middle" x="36.0713" y="-109.5" font-family="Helvetica,sans-Serif" font-size="10.00" fill="#000000">lower_intake</text>
</g>
<!-- Node1 -->
<g id="node2" class="node">
<title>Node1</title>
<g id="a_node2"><a xlink:href="mobile__goal__intake_8c.html#ab31e12bb0fa46c77906a048666b699d5" target="_top" xlink:title="sets the intake motor ">
<polygon fill="none" stroke="#000000" points="108.1426,-103.5 108.1426,-121.5 200.8516,-121.5 200.8516,-103.5 108.1426,-103.5"/>
<text text-anchor="middle" x="154.4971" y="-109.5" font-family="Helvetica,sans-Serif" font-size="10.00" fill="#000000">set_intake_motor</text>
</a>
</g>
</g>
<!-- Node0&#45;&gt;Node1 -->
<g id="edge1" class="edge">
<title>Node0&#45;&gt;Node1</title>
<path fill="none" stroke="#191970" d="M72.2464,-112.5C80.3622,-112.5 89.162,-112.5 97.8864,-112.5"/>
<polygon fill="#191970" stroke="#191970" points="98.0479,-116.0001 108.0479,-112.5 98.0479,-109.0001 98.0479,-116.0001"/>
</g>
<!-- Node2 -->
<g id="node3" class="node">
<title>Node2</title>
<g id="a_node3"><a xlink:href="slew_8h.html#a9f8b8ae577ef938622024545711f0151" target="_top" xlink:title="Sets the motor speed ignoring the slew controller. ">
<polygon fill="none" stroke="#000000" points="236.8516,-103.5 236.8516,-121.5 349.0039,-121.5 349.0039,-103.5 236.8516,-103.5"/>
<text text-anchor="middle" x="292.9277" y="-109.5" font-family="Helvetica,sans-Serif" font-size="10.00" fill="#000000">set_motor_immediate</text>
</a>
</g>
</g>
<!-- Node1&#45;&gt;Node2 -->
<g id="edge2" class="edge">
<title>Node1&#45;&gt;Node2</title>
<path fill="none" stroke="#191970" d="M200.9776,-112.5C209.22,-112.5 217.9463,-112.5 226.6119,-112.5"/>
<polygon fill="#191970" stroke="#191970" points="226.7241,-116.0001 236.724,-112.5 226.724,-109.0001 226.7241,-116.0001"/>
</g>
<!-- Node3 -->
<g id="node4" class="node">
<title>Node3</title>
<g id="a_node4"><a xlink:href="log_8h.html#af3668f40d1ad1b4f3418869ac9a31f34" target="_top" xlink:title="prints a info message ">
<polygon fill="none" stroke="#000000" points="390.2749,-243.5 390.2749,-261.5 434.0825,-261.5 434.0825,-243.5 390.2749,-243.5"/>
<text text-anchor="middle" x="412.1787" y="-249.5" font-family="Helvetica,sans-Serif" font-size="10.00" fill="#000000">debug</text>
</a>
</g>
</g>
<!-- Node2&#45;&gt;Node3 -->
<g id="edge3" class="edge">
<title>Node2&#45;&gt;Node3</title>
<path fill="none" stroke="#191970" d="M300.7521,-121.6858C320.4655,-144.8292 372.405,-205.8059 397.7944,-235.6129"/>
<polygon fill="#191970" stroke="#191970" points="395.3317,-238.1193 404.4805,-243.4624 400.6605,-233.5802 395.3317,-238.1193"/>
</g>
<!-- Node5 -->
<g id="node6" class="node">
<title>Node5</title>
<g id="a_node6"><a xlink:href="slew_8c.html#a321758941d88b75783955c819bb75005" target="_top" xlink:title="Initializes the slew rate controller. ">
<polygon fill="none" stroke="#000000" points="385.0039,-159.5 385.0039,-177.5 439.3535,-177.5 439.3535,-159.5 385.0039,-159.5"/>
<text text-anchor="middle" x="412.1787" y="-165.5" font-family="Helvetica,sans-Serif" font-size="10.00" fill="#000000">init_slew</text>
</a>
</g>
</g>
<!-- Node2&#45;&gt;Node5 -->
<g id="edge5" class="edge">
<title>Node2&#45;&gt;Node5</title>
<path fill="none" stroke="#191970" d="M312.3529,-121.622C331.6698,-130.6932 361.5235,-144.7124 383.5547,-155.0582"/>
<polygon fill="#191970" stroke="#191970" points="382.2225,-158.2993 392.7619,-159.3819 385.198,-151.9631 382.2225,-158.2993"/>
</g>
<!-- Node15 -->
<g id="node16" class="node">
<title>Node15</title>
<g id="a_node16"><a xlink:href="_a_p_i_8h.html#a8b51124628d2a7741738d48551d1e8ee" target="_top" xlink:title="Requests a mutex so that other tasks cannot simultaneously use the resource it guards. ">
<polygon fill="none" stroke="#000000" points="588.501,-84.5 588.501,-102.5 652.8555,-102.5 652.8555,-84.5 588.501,-84.5"/>
<text text-anchor="middle" x="620.6782" y="-90.5" font-family="Helvetica,sans-Serif" font-size="10.00" fill="#000000">mutexTake</text>
</a>
</g>
</g>
<!-- Node2&#45;&gt;Node15 -->
<g id="edge21" class="edge">
<title>Node2&#45;&gt;Node15</title>
<path fill="none" stroke="#191970" d="M349.2701,-109.2338C414.3622,-105.4603 519.9798,-99.3376 578.4162,-95.95"/>
<polygon fill="#191970" stroke="#191970" points="578.6322,-99.4434 588.4128,-95.3705 578.227,-92.4552 578.6322,-99.4434"/>
</g>
<!-- Node16 -->
<g id="node17" class="node">
<title>Node16</title>
<g id="a_node17"><a xlink:href="_a_p_i_8h.html#afe171a08d22de18fc2ab604b2364959f" target="_top" xlink:title="Relinquishes a mutex so that other tasks can use the resource it guards. ">
<polygon fill="none" stroke="#000000" points="588.7817,-37.5 588.7817,-55.5 652.5747,-55.5 652.5747,-37.5 588.7817,-37.5"/>
<text text-anchor="middle" x="620.6782" y="-43.5" font-family="Helvetica,sans-Serif" font-size="10.00" fill="#000000">mutexGive</text>
</a>
</g>
</g>
<!-- Node2&#45;&gt;Node16 -->
<g id="edge20" class="edge">
<title>Node2&#45;&gt;Node16</title>
<path fill="none" stroke="#191970" d="M316.1122,-103.4974C350.3505,-90.6385 416.7186,-67.3681 475.3535,-56.5 509.6804,-50.1374 549.2444,-47.729 578.4156,-46.8603"/>
<polygon fill="#191970" stroke="#191970" points="578.7538,-50.3531 588.6637,-46.6055 578.5797,-43.3552 578.7538,-50.3531"/>
</g>
<!-- Node17 -->
<g id="node18" class="node">
<title>Node17</title>
<g id="a_node18"><a xlink:href="_a_p_i_8h.html#a03c5b04b472d024281f62d7af8854a8e" target="_top" xlink:title="Sets the speed of the specified motor channel. ">
<polygon fill="none" stroke="#000000" points="592.3926,-.5 592.3926,-18.5 648.9639,-18.5 648.9639,-.5 592.3926,-.5"/>
<text text-anchor="middle" x="620.6782" y="-6.5" font-family="Helvetica,sans-Serif" font-size="10.00" fill="#000000">motorSet</text>
</a>
</g>
</g>
<!-- Node2&#45;&gt;Node17 -->
<g id="edge19" class="edge">
<title>Node2&#45;&gt;Node17</title>
<path fill="none" stroke="#191970" d="M305.6952,-103.4062C322.9013,-91.5708 354.8601,-71.0419 385.0039,-59.5 451.8225,-33.9154 534.5736,-20.1973 582.1295,-13.9107"/>
<polygon fill="#191970" stroke="#191970" points="582.8187,-17.3512 592.2934,-12.61 581.93,-10.4078 582.8187,-17.3512"/>
</g>
<!-- Node4 -->
<g id="node5" class="node">
<title>Node4</title>
<g id="a_node5"><a xlink:href="_a_p_i_8h.html#a403c82418e475fa4a8273719e6a7f3e6" target="_top" xlink:title="Prints the formatted string to the debug stream (the PC terminal). ">
<polygon fill="none" stroke="#000000" points="711.9243,-289.5 711.9243,-307.5 750.1558,-307.5 750.1558,-289.5 711.9243,-289.5"/>
<text text-anchor="middle" x="731.04" y="-295.5" font-family="Helvetica,sans-Serif" font-size="10.00" fill="#000000">printf</text>
</a>
</g>
</g>
<!-- Node3&#45;&gt;Node4 -->
<g id="edge4" class="edge">
<title>Node3&#45;&gt;Node4</title>
<path fill="none" stroke="#191970" d="M428.5078,-261.6303C440.9439,-268.1082 458.7051,-276.3598 475.3535,-280.5 555.4491,-300.4185 653.6966,-300.9233 701.7514,-299.6896"/>
<polygon fill="#191970" stroke="#191970" points="701.8738,-303.1876 711.7637,-299.3875 701.6626,-296.1908 701.8738,-303.1876"/>
</g>
<!-- Node6 -->
<g id="node7" class="node">
<title>Node6</title>
<g id="a_node7"><a xlink:href="log_8h.html#a0bec2cf5fff7f607bc510b74aba9887c" target="_top" xlink:title="prints a warning message and displays on lcd. ">
<polygon fill="none" stroke="#000000" points="488.4175,-215.5 488.4175,-233.5 539.437,-233.5 539.437,-215.5 488.4175,-215.5"/>
<text text-anchor="middle" x="513.9272" y="-221.5" font-family="Helvetica,sans-Serif" font-size="10.00" fill="#000000">warning</text>
</a>
</g>
</g>
<!-- Node5&#45;&gt;Node6 -->
<g id="edge6" class="edge">
<title>Node5&#45;&gt;Node6</title>
<path fill="none" stroke="#191970" d="M426.4831,-177.6936C439.128,-185.6774 458.1795,-197.3602 475.3535,-206.5 478.224,-208.0276 481.2472,-209.5619 484.2859,-211.0553"/>
<polygon fill="#191970" stroke="#191970" points="482.7791,-214.2143 493.3112,-215.3659 485.796,-207.8978 482.7791,-214.2143"/>
</g>
<!-- Node11 -->
<g id="node12" class="node">
<title>Node11</title>
<g id="a_node12"><a xlink:href="_a_p_i_8h.html#a8966c541f3e9565aea1289f0d2f2cf43" target="_top" xlink:title="Stops all motors; significantly faster than looping through all motor ports and calling motorSet(chan...">
<polygon fill="none" stroke="#000000" points="477.3042,-178.5 477.3042,-196.5 550.5503,-196.5 550.5503,-178.5 477.3042,-178.5"/>
<text text-anchor="middle" x="513.9272" y="-184.5" font-family="Helvetica,sans-Serif" font-size="10.00" fill="#000000">motorStopAll</text>
</a>
</g>
</g>
<!-- Node5&#45;&gt;Node11 -->
<g id="edge12" class="edge">
<title>Node5&#45;&gt;Node11</title>
<path fill="none" stroke="#191970" d="M439.4455,-173.5917C447.9184,-175.1738 457.5139,-176.9657 466.9312,-178.7242"/>
<polygon fill="#191970" stroke="#191970" points="466.5458,-182.2127 477.0183,-180.6078 467.8308,-175.3316 466.5458,-182.2127"/>
</g>
<!-- Node12 -->
<g id="node13" class="node">
<title>Node12</title>
<g id="a_node13"><a xlink:href="_a_p_i_8h.html#aecd027ce8f8b52a765735e9eb5b202b3" target="_top" xlink:title="Creates a mutex intended to allow only one task to use a resource at a time. ">
<polygon fill="none" stroke="#000000" points="477.3042,-141.5 477.3042,-159.5 550.5503,-159.5 550.5503,-141.5 477.3042,-141.5"/>
<text text-anchor="middle" x="513.9272" y="-147.5" font-family="Helvetica,sans-Serif" font-size="10.00" fill="#000000">mutexCreate</text>
</a>
</g>
</g>
<!-- Node5&#45;&gt;Node12 -->
<g id="edge13" class="edge">
<title>Node5&#45;&gt;Node12</title>
<path fill="none" stroke="#191970" d="M439.4455,-163.6763C447.9184,-162.1774 457.5139,-160.4799 466.9312,-158.8139"/>
<polygon fill="#191970" stroke="#191970" points="467.781,-162.218 477.0183,-157.0294 466.5615,-155.325 467.781,-162.218"/>
</g>
<!-- Node13 -->
<g id="node14" class="node">
<title>Node13</title>
<g id="a_node14"><a xlink:href="_a_p_i_8h.html#ab05a241d6d1fd98b1ceb4665db678156" target="_top" xlink:title="Starts a task which will periodically call the specified function. ">
<polygon fill="none" stroke="#000000" points="476.4619,-252.5 476.4619,-270.5 551.3926,-270.5 551.3926,-252.5 476.4619,-252.5"/>
<text text-anchor="middle" x="513.9272" y="-258.5" font-family="Helvetica,sans-Serif" font-size="10.00" fill="#000000">taskRunLoop</text>
</a>
</g>
</g>
<!-- Node5&#45;&gt;Node13 -->
<g id="edge14" class="edge">
<title>Node5&#45;&gt;Node13</title>
<path fill="none" stroke="#191970" d="M418.1275,-177.9368C428.2568,-193.3771 450.2158,-224.2435 475.3535,-243.5 477.1648,-244.8875 479.1003,-246.2022 481.1037,-247.4414"/>
<polygon fill="#191970" stroke="#191970" points="479.6932,-250.6591 490.1468,-252.383 483.0499,-244.5164 479.6932,-250.6591"/>
</g>
<!-- Node14 -->
<g id="node15" class="node">
<title>Node14</title>
<g id="a_node15"><a xlink:href="slew_8c.html#a807a87c5df438fde21c1e8213906695b" target="_top" xlink:title="Closes the distance between the desired motor value and the current motor value by half for each moto...">
<polygon fill="none" stroke="#000000" points="475.3535,-65.5 475.3535,-83.5 552.501,-83.5 552.501,-65.5 475.3535,-65.5"/>
<text text-anchor="middle" x="513.9272" y="-71.5" font-family="Helvetica,sans-Serif" font-size="10.00" fill="#000000">updateMotors</text>
</a>
</g>
</g>
<!-- Node5&#45;&gt;Node14 -->
<g id="edge15" class="edge">
<title>Node5&#45;&gt;Node14</title>
<path fill="none" stroke="#191970" d="M421.9348,-159.4869C439.1359,-143.5957 475.0682,-110.3998 496.5812,-90.525"/>
<polygon fill="#191970" stroke="#191970" points="499.081,-92.9807 504.0512,-83.6239 494.3309,-87.839 499.081,-92.9807"/>
</g>
<!-- Node7 -->
<g id="node8" class="node">
<title>Node7</title>
<g id="a_node8"><a xlink:href="log_8c.html#afff22aff6749311a684a559cac3ac8bd" target="_top" xlink:title="prints a log info message to the lcd ">
<polygon fill="none" stroke="#000000" points="595.1636,-215.5 595.1636,-233.5 646.1929,-233.5 646.1929,-215.5 595.1636,-215.5"/>
<text text-anchor="middle" x="620.6782" y="-221.5" font-family="Helvetica,sans-Serif" font-size="10.00" fill="#000000">log_info</text>
</a>
</g>
</g>
<!-- Node6&#45;&gt;Node7 -->
<g id="edge7" class="edge">
<title>Node6&#45;&gt;Node7</title>
<path fill="none" stroke="#191970" d="M539.4968,-224.5C552.9975,-224.5 569.7911,-224.5 584.595,-224.5"/>
<polygon fill="#191970" stroke="#191970" points="584.9474,-228.0001 594.9474,-224.5 584.9473,-221.0001 584.9474,-228.0001"/>
</g>
<!-- Node7&#45;&gt;Node4 -->
<g id="edge11" class="edge">
<title>Node7&#45;&gt;Node4</title>
<path fill="none" stroke="#191970" d="M630.169,-233.7998C642.763,-245.7709 666.0711,-266.6722 688.8555,-280.5 693.0588,-283.051 697.6888,-285.4186 702.295,-287.5429"/>
<polygon fill="#191970" stroke="#191970" points="701.0036,-290.7976 711.5723,-291.5424 703.7749,-284.3695 701.0036,-290.7976"/>
</g>
<!-- Node8 -->
<g id="node9" class="node">
<title>Node8</title>
<g id="a_node9"><a xlink:href="_a_p_i_8h.html#a5fa1d119fe3e836b5519f97eae7a1272" target="_top" xlink:title="Clears the LCD screen on the specified port. ">
<polygon fill="none" stroke="#000000" points="704.7002,-252.5 704.7002,-270.5 757.3799,-270.5 757.3799,-252.5 704.7002,-252.5"/>
<text text-anchor="middle" x="731.04" y="-258.5" font-family="Helvetica,sans-Serif" font-size="10.00" fill="#000000">lcdClear</text>
</a>
</g>
</g>
<!-- Node7&#45;&gt;Node8 -->
<g id="edge8" class="edge">
<title>Node7&#45;&gt;Node8</title>
<path fill="none" stroke="#191970" d="M646.2748,-233.0815C660.7233,-237.9255 679.0136,-244.0576 694.9029,-249.3846"/>
<polygon fill="#191970" stroke="#191970" points="693.8361,-252.7184 704.43,-252.5787 696.0613,-246.0815 693.8361,-252.7184"/>
</g>
<!-- Node9 -->
<g id="node10" class="node">
<title>Node9</title>
<g id="a_node10"><a xlink:href="_a_p_i_8h.html#a6cfad8271c6a566a2f51ca318f819a80" target="_top" xlink:title="Prints the formatted string to the attached LCD. ">
<polygon fill="none" stroke="#000000" points="706.3677,-215.5 706.3677,-233.5 755.7124,-233.5 755.7124,-215.5 706.3677,-215.5"/>
<text text-anchor="middle" x="731.04" y="-221.5" font-family="Helvetica,sans-Serif" font-size="10.00" fill="#000000">lcdPrint</text>
</a>
</g>
</g>
<!-- Node7&#45;&gt;Node9 -->
<g id="edge9" class="edge">
<title>Node7&#45;&gt;Node9</title>
<path fill="none" stroke="#191970" d="M646.2748,-224.5C661.1093,-224.5 679.9937,-224.5 696.1712,-224.5"/>
<polygon fill="#191970" stroke="#191970" points="696.3414,-228.0001 706.3414,-224.5 696.3414,-221.0001 696.3414,-228.0001"/>
</g>
<!-- Node10 -->
<g id="node11" class="node">
<title>Node10</title>
<g id="a_node11"><a xlink:href="_a_p_i_8h.html#aab53a247d88151a6623c20fa1ea940b0" target="_top" xlink:title="Sets the specified LCD backlight to be on or off. ">
<polygon fill="none" stroke="#000000" points="688.8555,-178.5 688.8555,-196.5 773.2246,-196.5 773.2246,-178.5 688.8555,-178.5"/>
<text text-anchor="middle" x="731.04" y="-184.5" font-family="Helvetica,sans-Serif" font-size="10.00" fill="#000000">lcdSetBacklight</text>
</a>
</g>
</g>
<!-- Node7&#45;&gt;Node10 -->
<g id="edge10" class="edge">
<title>Node7&#45;&gt;Node10</title>
<path fill="none" stroke="#191970" d="M646.2748,-215.9185C660.6178,-211.1098 678.7468,-205.0319 694.5545,-199.7322"/>
<polygon fill="#191970" stroke="#191970" points="695.6737,-203.0485 704.0425,-196.5512 693.4486,-196.4115 695.6737,-203.0485"/>
</g>
<!-- Node14&#45;&gt;Node15 -->
<g id="edge16" class="edge">
<title>Node14&#45;&gt;Node15</title>
<path fill="none" stroke="#191970" d="M552.7688,-81.4132C561.0757,-82.8917 569.8911,-84.4607 578.3228,-85.9614"/>
<polygon fill="#191970" stroke="#191970" points="577.8988,-89.4409 588.3574,-87.7474 579.1255,-82.5492 577.8988,-89.4409"/>
</g>
<!-- Node14&#45;&gt;Node16 -->
<g id="edge17" class="edge">
<title>Node14&#45;&gt;Node16</title>
<path fill="none" stroke="#191970" d="M548.2915,-65.4865C557.9827,-62.9446 568.6356,-60.1504 578.7184,-57.5057"/>
<polygon fill="#191970" stroke="#191970" points="579.7696,-60.8485 588.5544,-54.9258 577.9936,-54.0775 579.7696,-60.8485"/>
</g>
<!-- Node14&#45;&gt;Node17 -->
<g id="edge18" class="edge">
<title>Node14&#45;&gt;Node17</title>
<path fill="none" stroke="#191970" d="M527.8117,-65.4439C542.6875,-55.8134 567.0569,-40.2437 588.501,-27.5 590.5129,-26.3044 592.6065,-25.0831 594.7173,-23.8679"/>
<polygon fill="#191970" stroke="#191970" points="596.9057,-26.6509 603.8826,-18.6776 593.4563,-20.5598 596.9057,-26.6509"/>
</g>
</g>
</svg>
        <g id="navigator" transform="translate(0 0)" fill="#404254">
                <rect fill="#f2f5e9" fill-opacity="0.5" stroke="#606060" stroke-width=".5" x="0" y="0" width="60" height="60"/>
                <use id="zoomplus" xlink:href="#zoomPlus" x="17" y="9" onmousedown="handleZoom(evt,'in')"/>
                <use id="zoomminus" xlink:href="#zoomMin" x="42" y="9" onmousedown="handleZoom(evt,'out')"/>
                <use id="reset" xlink:href="#resetDef" x="30" y="36" onmousedown="handleReset()"/>
                <g id="arrowUp" xlink:href="#dirArrow" transform="translate(30 24)" onmousedown="handlePan(0,-1)">
                  <use xlink:href="#rim" fill="#404040">
                        <set attributeName="fill" to="#808080" begin="arrowUp.mouseover" end="arrowUp.mouseout"/>
                  </use>
                  <path fill="none" stroke="white" stroke-width="1.5" d="M0,-3.0v7 M-2.5,-0.5L0,-3.0L2.5,-0.5"/>
                </g>
                <g id="arrowRight" xlink:href="#dirArrow" transform="rotate(90) translate(36 -43)" onmousedown="handlePan(1,0)">
                  <use xlink:href="#rim" fill="#404040">
                        <set attributeName="fill" to="#808080" begin="arrowRight.mouseover" end="arrowRight.mouseout"/>
                  </use>
                  <path fill="none" stroke="white" stroke-width="1.5" d="M0,-3.0v7 M-2.5,-0.5L0,-3.0L2.5,-0.5"/>
                </g>
                <g id="arrowDown" xlink:href="#dirArrow" transform="rotate(180) translate(-30 -48)" onmousedown="handlePan(0,1)">
                  <use xlink:href="#rim" fill="#404040">
                        <set attributeName="fill" to="#808080" begin="arrowDown.mouseover" end="arrowDown.mouseout"/>
                  </use>
                  <path fill="none" stroke="white" stroke-width="1.5" d="M0,-3.0v7 M-2.5,-0.5L0,-3.0L2.5,-0.5"/>
                </g>
                <g id="arrowLeft" xlink:href="#dirArrow" transform="rotate(270) translate(-36 17)" onmousedown="handlePan(-1,0)">
                  <use xlink:href="#rim" fill="#404040">
                        <set attributeName="fill" to="#808080" begin="arrowLeft.mouseover" end="arrowLeft.mouseout"/>
                  </use>
                  <path fill="none" stroke="white" stroke-width="1.5" d="M0,-3.0v7 M-2.5,-0.5L0,-3.0L2.5,-0.5"/>
                </g>
        </g>
        <svg viewBox="0 0 15 15" width="100%" height="30px" preserveAspectRatio="xMaxYMin meet">
         <g id="arrow_out" transform="scale(0.3 0.3)">
          <a xlink:href="mobile__goal__intake_8c_aef03134014e51a6a90dd3824f09f4d6c_cgraph_org.svg" target="_base">
           <rect id="button" ry="5" rx="5" y="6" x="6" height="38" width="38"
                fill="#f2f5e9" fill-opacity="0.5" stroke="#606060" stroke-width="1.0"/>
           <path id="arrow"
             d="M 11.500037,31.436501 C 11.940474,20.09759 22.043105,11.32322 32.158766,21.979434 L 37.068811,17.246167 C 37.068811,17.246167 37.088388,32 37.088388,32 L 22.160133,31.978069 C 22.160133,31.978069 26.997745,27.140456 26.997745,27.140456 C 18.528582,18.264221 13.291696,25.230495 11.500037,31.436501 z"
             style="fill:#404040;"/>
          </a>
         </g>
        </svg>
</svg>
