<?xml version="1.0" encoding="UTF-8" standalone="no"?>
<!DOCTYPE svg PUBLIC "-//W3C//DTD SVG 1.1//EN"
 "http://www.w3.org/Graphics/SVG/1.1/DTD/svg11.dtd">
<!-- Generated by graphviz version 2.40.1 (20161225.0304)
 -->
<!-- Title: src/mobile_goal_intake.c Pages: 1 -->
<svg width="361pt" height="247pt"
 viewBox="0.00 0.00 361.41 247.00" xmlns="http://www.w3.org/2000/svg" xmlns:xlink="http://www.w3.org/1999/xlink">
<g id="graph0" class="graph" transform="scale(1 1) rotate(0) translate(4 243)">
<title>src/mobile_goal_intake.c</title>
<!-- Node0 -->
<g id="node1" class="node">
<title>Node0</title>
<polygon fill="#bfbfbf" stroke="#000000" points="171.8179,-220.5 171.8179,-238.5 297.8765,-238.5 297.8765,-220.5 171.8179,-220.5"/>
<text text-anchor="middle" x="234.8472" y="-226.5" font-family="Helvetica,sans-Serif" font-size="10.00" fill="#000000">src/mobile_goal_intake.c</text>
</g>
<!-- Node1 -->
<g id="node2" class="node">
<title>Node1</title>
<g id="a_node2"><a xlink:href="mobile__goal__intake_8h.html" target="_top" xlink:title="mobile_goal_intake.h">
<polygon fill="none" stroke="#000000" points="73.5913,-165.5 73.5913,-183.5 184.103,-183.5 184.103,-165.5 73.5913,-165.5"/>
<text text-anchor="middle" x="128.8472" y="-171.5" font-family="Helvetica,sans-Serif" font-size="10.00" fill="#000000">mobile_goal_intake.h</text>
</a>
</g>
</g>
<!-- Node0&#45;&gt;Node1 -->
<g id="edge1" class="edge">
<title>Node0&#45;&gt;Node1</title>
<path fill="none" stroke="#191970" d="M217.3434,-220.4179C200.4652,-211.6603 174.6984,-198.2907 155.3135,-188.2326"/>
<polygon fill="#191970" stroke="#191970" points="156.8652,-185.0946 146.3769,-183.5956 153.6412,-191.308 156.8652,-185.0946"/>
</g>
<!-- Node10 -->
<g id="node11" class="node">
<title>Node10</title>
<g id="a_node11"><a xlink:href="log_8h.html" target="_top" xlink:title="Contains logging functions. ">
<polygon fill="none" stroke="#000000" points="278.0049,-110.5 278.0049,-128.5 315.6895,-128.5 315.6895,-110.5 278.0049,-110.5"/>
<text text-anchor="middle" x="296.8472" y="-116.5" font-family="Helvetica,sans-Serif" font-size="10.00" fill="#000000">log.h</text>
</a>
</g>
</g>
<!-- Node0&#45;&gt;Node10 -->
<g id="edge14" class="edge">
<title>Node0&#45;&gt;Node10</title>
<path fill="none" stroke="#191970" d="M243.7217,-220.3827C251.8749,-211.6256 263.8692,-197.734 271.8472,-184 280.2359,-169.5588 286.8879,-151.7742 291.2147,-138.5399"/>
<polygon fill="#191970" stroke="#191970" points="294.6577,-139.255 294.2893,-128.6666 287.9743,-137.1737 294.6577,-139.255"/>
</g>
<!-- Node12 -->
<g id="node13" class="node">
<title>Node12</title>
<g id="a_node13"><a xlink:href="partner_8h.html" target="_top" xlink:title="partner.h">
<polygon fill="none" stroke="#000000" points="207.1084,-165.5 207.1084,-183.5 262.5859,-183.5 262.5859,-165.5 207.1084,-165.5"/>
<text text-anchor="middle" x="234.8472" y="-171.5" font-family="Helvetica,sans-Serif" font-size="10.00" fill="#000000">partner.h</text>
</a>
</g>
</g>
<!-- Node0&#45;&gt;Node12 -->
<g id="edge18" class="edge">
<title>Node0&#45;&gt;Node12</title>
<path fill="none" stroke="#191970" d="M234.8472,-220.4179C234.8472,-213.2164 234.8472,-202.8962 234.8472,-193.8632"/>
<polygon fill="#191970" stroke="#191970" points="238.3473,-193.7794 234.8472,-183.7795 231.3473,-193.7795 238.3473,-193.7794"/>
</g>
<!-- Node2 -->
<g id="node3" class="node">
<title>Node2</title>
<g id="a_node3"><a xlink:href="controller_8h.html" target="_top" xlink:title="controller definitions, macros and functions to assist with usig the vex controllers. ">
<polygon fill="none" stroke="#000000" points="157.3867,-110.5 157.3867,-128.5 222.3076,-128.5 222.3076,-110.5 157.3867,-110.5"/>
<text text-anchor="middle" x="189.8472" y="-116.5" font-family="Helvetica,sans-Serif" font-size="10.00" fill="#000000">controller.h</text>
</a>
</g>
</g>
<!-- Node1&#45;&gt;Node2 -->
<g id="edge2" class="edge">
<title>Node1&#45;&gt;Node2</title>
<path fill="none" stroke="#191970" d="M138.9201,-165.4179C147.8727,-157.3458 161.1709,-145.3556 171.9335,-135.6517"/>
<polygon fill="#191970" stroke="#191970" points="174.4722,-138.0753 179.5554,-128.7795 169.7848,-132.8764 174.4722,-138.0753"/>
</g>
<!-- Node6 -->
<g id="node7" class="node">
<title>Node6</title>
<g id="a_node7"><a xlink:href="motor__ports_8h.html" target="_top" xlink:title="The motor port definitionsMacros for the different motors ports. ">
<polygon fill="none" stroke="#000000" points="0,-110.5 0,-128.5 77.6943,-128.5 77.6943,-110.5 0,-110.5"/>
<text text-anchor="middle" x="38.8472" y="-116.5" font-family="Helvetica,sans-Serif" font-size="10.00" fill="#000000">motor_ports.h</text>
</a>
</g>
</g>
<!-- Node1&#45;&gt;Node6 -->
<g id="edge6" class="edge">
<title>Node1&#45;&gt;Node6</title>
<path fill="none" stroke="#191970" d="M113.9855,-165.4179C100.0458,-156.8992 78.9652,-144.0166 62.6771,-134.0627"/>
<polygon fill="#191970" stroke="#191970" points="64.0888,-130.8237 53.7309,-128.5956 60.4387,-136.7967 64.0888,-130.8237"/>
</g>
<!-- Node7 -->
<g id="node8" class="node">
<title>Node7</title>
<g id="a_node8"><a xlink:href="slew_8h.html" target="_top" xlink:title="Contains the slew rate controller wrapper for the motors. ">
<polygon fill="none" stroke="#000000" points="95.9482,-110.5 95.9482,-128.5 139.7461,-128.5 139.7461,-110.5 95.9482,-110.5"/>
<text text-anchor="middle" x="117.8472" y="-116.5" font-family="Helvetica,sans-Serif" font-size="10.00" fill="#000000">slew.h</text>
</a>
</g>
</g>
<!-- Node1&#45;&gt;Node7 -->
<g id="edge7" class="edge">
<title>Node1&#45;&gt;Node7</title>
<path fill="none" stroke="#191970" d="M127.0307,-165.4179C125.5904,-158.2164 123.5264,-147.8962 121.7198,-138.8632"/>
<polygon fill="#191970" stroke="#191970" points="125.0963,-137.8988 119.7031,-128.7795 118.2323,-139.2717 125.0963,-137.8988"/>
</g>
<!-- Node3 -->
<g id="node4" class="node">
<title>Node3</title>
<g id="a_node4"><a xlink:href="vmath_8h.html" target="_top" xlink:title="Vex Specific Math Functions, includes: Cartesian to polar cordinates. ">
<polygon fill="none" stroke="#000000" points="37.0615,-55.5 37.0615,-73.5 88.6328,-73.5 88.6328,-55.5 37.0615,-55.5"/>
<text text-anchor="middle" x="62.8472" y="-61.5" font-family="Helvetica,sans-Serif" font-size="10.00" fill="#000000">vmath.h</text>
</a>
</g>
</g>
<!-- Node2&#45;&gt;Node3 -->
<g id="edge3" class="edge">
<title>Node2&#45;&gt;Node3</title>
<path fill="none" stroke="#191970" d="M168.8757,-110.4179C148.286,-101.5011 116.656,-87.803 93.2977,-77.6873"/>
<polygon fill="#191970" stroke="#191970" points="94.4172,-74.358 83.8498,-73.5956 91.6353,-80.7815 94.4172,-74.358"/>
</g>
<!-- Node5 -->
<g id="node6" class="node">
<title>Node5</title>
<polygon fill="none" stroke="#bfbfbf" points="210.6182,-.5 210.6182,-18.5 251.0762,-18.5 251.0762,-.5 210.6182,-.5"/>
<text text-anchor="middle" x="230.8472" y="-6.5" font-family="Helvetica,sans-Serif" font-size="10.00" fill="#000000">API.h</text>
</g>
<!-- Node2&#45;&gt;Node5 -->
<g id="edge5" class="edge">
<title>Node2&#45;&gt;Node5</title>
<path fill="none" stroke="#191970" d="M193.2024,-110.4982C199.8996,-92.5302 215.0452,-51.8954 223.95,-28.0046"/>
<polygon fill="#191970" stroke="#191970" points="227.2326,-29.2188 227.4456,-18.6261 220.6734,-26.774 227.2326,-29.2188"/>
</g>
<!-- Node4 -->
<g id="node5" class="node">
<title>Node4</title>
<polygon fill="none" stroke="#bfbfbf" points="37.5615,-.5 37.5615,-18.5 84.1328,-18.5 84.1328,-.5 37.5615,-.5"/>
<text text-anchor="middle" x="60.8472" y="-6.5" font-family="Helvetica,sans-Serif" font-size="10.00" fill="#000000">math.h</text>
</g>
<!-- Node3&#45;&gt;Node4 -->
<g id="edge4" class="edge">
<title>Node3&#45;&gt;Node4</title>
<path fill="none" stroke="#191970" d="M62.5169,-55.4179C62.255,-48.2164 61.8798,-37.8962 61.5513,-28.8632"/>
<polygon fill="#191970" stroke="#191970" points="65.0458,-28.6456 61.1846,-18.7795 58.0504,-28.9001 65.0458,-28.6456"/>
</g>
<!-- Node7&#45;&gt;Node4 -->
<g id="edge9" class="edge">
<title>Node7&#45;&gt;Node4</title>
<path fill="none" stroke="#191970" d="M95.554,-111.3411C71.4718,-102.0214 35.5055,-86.453 27.8472,-74 18.0428,-58.0572 30.7844,-38.857 43.1751,-25.5721"/>
<polygon fill="#191970" stroke="#191970" points="45.6521,-28.0449 50.2569,-18.5031 40.7068,-23.0907 45.6521,-28.0449"/>
</g>
<!-- Node7&#45;&gt;Node5 -->
<g id="edge8" class="edge">
<title>Node7&#45;&gt;Node5</title>
<path fill="none" stroke="#191970" d="M127.0944,-110.4982C146.1319,-91.9662 189.9391,-49.3221 214.0969,-25.8056"/>
<polygon fill="#191970" stroke="#191970" points="216.7479,-28.1094 221.4721,-18.6261 211.8652,-23.0935 216.7479,-28.1094"/>
</g>
<!-- Node8 -->
<g id="node9" class="node">
<title>Node8</title>
<g id="a_node9"><a xlink:href="vlib_8h.html" target="_top" xlink:title="Contains misc helpful functions. ">
<polygon fill="none" stroke="#000000" points="106.1748,-55.5 106.1748,-73.5 145.5195,-73.5 145.5195,-55.5 106.1748,-55.5"/>
<text text-anchor="middle" x="125.8472" y="-61.5" font-family="Helvetica,sans-Serif" font-size="10.00" fill="#000000">vlib.h</text>
</a>
</g>
</g>
<!-- Node7&#45;&gt;Node8 -->
<g id="edge10" class="edge">
<title>Node7&#45;&gt;Node8</title>
<path fill="none" stroke="#191970" d="M119.1682,-110.4179C120.2157,-103.2164 121.7168,-92.8962 123.0307,-83.8632"/>
<polygon fill="#191970" stroke="#191970" points="126.5215,-84.1791 124.4974,-73.7795 119.5944,-83.1715 126.5215,-84.1791"/>
</g>
<!-- Node8&#45;&gt;Node4 -->
<g id="edge12" class="edge">
<title>Node8&#45;&gt;Node4</title>
<path fill="none" stroke="#191970" d="M115.1137,-55.4179C105.4806,-47.2667 91.1255,-35.1201 79.599,-25.3669"/>
<polygon fill="#191970" stroke="#191970" points="81.7085,-22.5671 71.8138,-18.7795 77.1869,-27.9108 81.7085,-22.5671"/>
</g>
<!-- Node8&#45;&gt;Node5 -->
<g id="edge11" class="edge">
<title>Node8&#45;&gt;Node5</title>
<path fill="none" stroke="#191970" d="M143.1858,-55.4179C159.8288,-46.7001 185.1966,-33.4122 204.3682,-23.3699"/>
<polygon fill="#191970" stroke="#191970" points="206.2485,-26.3362 213.4828,-18.5956 203.0004,-20.1353 206.2485,-26.3362"/>
</g>
<!-- Node9 -->
<g id="node10" class="node">
<title>Node9</title>
<polygon fill="none" stroke="#bfbfbf" points="102.4507,-.5 102.4507,-18.5 151.2437,-18.5 151.2437,-.5 102.4507,-.5"/>
<text text-anchor="middle" x="126.8472" y="-6.5" font-family="Helvetica,sans-Serif" font-size="10.00" fill="#000000">string.h</text>
</g>
<!-- Node8&#45;&gt;Node9 -->
<g id="edge13" class="edge">
<title>Node8&#45;&gt;Node9</title>
<path fill="none" stroke="#191970" d="M126.0123,-55.4179C126.1432,-48.2164 126.3309,-37.8962 126.4951,-28.8632"/>
<polygon fill="#191970" stroke="#191970" points="129.996,-28.8415 126.6785,-18.7795 122.9971,-28.7141 129.996,-28.8415"/>
</g>
<!-- Node10&#45;&gt;Node5 -->
<g id="edge17" class="edge">
<title>Node10&#45;&gt;Node5</title>
<path fill="none" stroke="#191970" d="M292.5845,-110.0689C286.6792,-97.2807 275.4222,-73.8709 263.8472,-55 257.9271,-45.3484 250.5943,-35.0987 244.3455,-26.7759"/>
<polygon fill="#191970" stroke="#191970" points="246.9635,-24.4377 238.1085,-18.6204 241.4032,-28.69 246.9635,-24.4377"/>
</g>
<!-- Node11 -->
<g id="node12" class="node">
<title>Node11</title>
<g id="a_node12"><a xlink:href="lcd_8h.html" target="_top" xlink:title="LCD wrapper functions and macros. ">
<polygon fill="none" stroke="#000000" points="316.2856,-55.5 316.2856,-73.5 353.4087,-73.5 353.4087,-55.5 316.2856,-55.5"/>
<text text-anchor="middle" x="334.8472" y="-61.5" font-family="Helvetica,sans-Serif" font-size="10.00" fill="#000000">lcd.h</text>
</a>
</g>
</g>
<!-- Node10&#45;&gt;Node11 -->
<g id="edge15" class="edge">
<title>Node10&#45;&gt;Node11</title>
<path fill="none" stroke="#191970" d="M303.1221,-110.4179C308.4257,-102.7415 316.1776,-91.5217 322.691,-82.0945"/>
<polygon fill="#191970" stroke="#191970" points="325.6311,-83.9963 328.4359,-73.7795 319.872,-80.0173 325.6311,-83.9963"/>
</g>
<!-- Node11&#45;&gt;Node5 -->
<g id="edge16" class="edge">
<title>Node11&#45;&gt;Node5</title>
<path fill="none" stroke="#191970" d="M317.6737,-55.4179C301.1892,-46.7001 276.0629,-33.4122 257.0739,-23.3699"/>
<polygon fill="#191970" stroke="#191970" points="258.5224,-20.1767 248.0462,-18.5956 255.2499,-26.3646 258.5224,-20.1767"/>
</g>
<!-- Node12&#45;&gt;Node2 -->
<g id="edge20" class="edge">
<title>Node12&#45;&gt;Node2</title>
<path fill="none" stroke="#191970" d="M227.4163,-165.4179C221.0709,-157.6624 211.7663,-146.29 204.0046,-136.8035"/>
<polygon fill="#191970" stroke="#191970" points="206.4807,-134.3027 197.4395,-128.7795 201.063,-138.7354 206.4807,-134.3027"/>
</g>
<!-- Node12&#45;&gt;Node5 -->
<g id="edge19" class="edge">
<title>Node12&#45;&gt;Node5</title>
<path fill="none" stroke="#191970" d="M234.6206,-165.1561C233.9854,-138.9504 232.177,-64.3557 231.3151,-28.8021"/>
<polygon fill="#191970" stroke="#191970" points="234.8126,-28.6536 231.0712,-18.7414 227.8147,-28.8233 234.8126,-28.6536"/>
</g>
</g>
</svg>
