<?xml version="1.0" encoding="UTF-8" standalone="no"?>
<!DOCTYPE svg PUBLIC "-//W3C//DTD SVG 1.1//EN"
 "http://www.w3.org/Graphics/SVG/1.1/DTD/svg11.dtd">
<!-- Generated by graphviz version 2.40.1 (20161225.0304)
 -->
<!-- Title: set_intake_motor Pages: 1 -->
<svg width="440pt" height="103pt"
 viewBox="0.00 0.00 440.16 103.00" xmlns="http://www.w3.org/2000/svg" xmlns:xlink="http://www.w3.org/1999/xlink">
<g id="graph0" class="graph" transform="scale(1 1) rotate(0) translate(4 99)">
<title>set_intake_motor</title>
<!-- Node59 -->
<g id="node1" class="node">
<title>Node59</title>
<polygon fill="#bfbfbf" stroke="#000000" points="0,-38.5 0,-56.5 92.709,-56.5 92.709,-38.5 0,-38.5"/>
<text text-anchor="middle" x="46.3545" y="-44.5" font-family="Helvetica,sans-Serif" font-size="10.00" fill="#000000">set_intake_motor</text>
</g>
<!-- Node60 -->
<g id="node2" class="node">
<title>Node60</title>
<g id="a_node2"><a xlink:href="mobile__goal__intake_8c.html#afa91470a9891e48827fd62d18553c6ce" target="_top" xlink:title="lower_intake">
<polygon fill="none" stroke="#000000" points="128.709,-76.5 128.709,-94.5 200.8516,-94.5 200.8516,-76.5 128.709,-76.5"/>
<text text-anchor="middle" x="164.7803" y="-82.5" font-family="Helvetica,sans-Serif" font-size="10.00" fill="#000000">lower_intake</text>
</a>
</g>
</g>
<!-- Node59&#45;&gt;Node60 -->
<g id="edge1" class="edge">
<title>Node59&#45;&gt;Node60</title>
<path fill="none" stroke="#191970" d="M84.0627,-59.5997C101.0645,-65.0551 120.8036,-71.3889 136.5061,-76.4275"/>
<polygon fill="#191970" stroke="#191970" points="85.011,-56.2282 74.4197,-56.5055 82.8722,-62.8935 85.011,-56.2282"/>
</g>
<!-- Node61 -->
<g id="node3" class="node">
<title>Node61</title>
<g id="a_node3"><a xlink:href="mobile__goal__intake_8c.html#ad0232c21c5c1ffda603d2b7d61034118" target="_top" xlink:title="updates the mobile goal intake in teleop. ">
<polygon fill="none" stroke="#000000" points="236.8516,-38.5 236.8516,-56.5 310.6787,-56.5 310.6787,-38.5 236.8516,-38.5"/>
<text text-anchor="middle" x="273.7651" y="-44.5" font-family="Helvetica,sans-Serif" font-size="10.00" fill="#000000">updateIntake</text>
</a>
</g>
</g>
<!-- Node59&#45;&gt;Node61 -->
<g id="edge6" class="edge">
<title>Node59&#45;&gt;Node61</title>
<path fill="none" stroke="#191970" d="M102.9539,-47.5C144.7258,-47.5 200.3853,-47.5 236.6393,-47.5"/>
<polygon fill="#191970" stroke="#191970" points="102.9232,-44.0001 92.9232,-47.5 102.9232,-51.0001 102.9232,-44.0001"/>
</g>
<!-- Node63 -->
<g id="node5" class="node">
<title>Node63</title>
<g id="a_node5"><a xlink:href="mobile__goal__intake_8c.html#a4899f9a8621015313e6312ce085da979" target="_top" xlink:title="raise_intake">
<polygon fill="none" stroke="#000000" points="129.8198,-.5 129.8198,-18.5 199.7407,-18.5 199.7407,-.5 129.8198,-.5"/>
<text text-anchor="middle" x="164.7803" y="-6.5" font-family="Helvetica,sans-Serif" font-size="10.00" fill="#000000">raise_intake</text>
</a>
</g>
</g>
<!-- Node59&#45;&gt;Node63 -->
<g id="edge4" class="edge">
<title>Node59&#45;&gt;Node63</title>
<path fill="none" stroke="#191970" d="M84.0627,-35.4003C101.0645,-29.9449 120.8036,-23.6111 136.5061,-18.5725"/>
<polygon fill="#191970" stroke="#191970" points="82.8722,-32.1065 74.4197,-38.4945 85.011,-38.7718 82.8722,-32.1065"/>
</g>
<!-- Node60&#45;&gt;Node61 -->
<g id="edge2" class="edge">
<title>Node60&#45;&gt;Node61</title>
<path fill="none" stroke="#191970" d="M200.3623,-73.0935C215.8066,-67.7085 233.5644,-61.5169 247.7449,-56.5725"/>
<polygon fill="#191970" stroke="#191970" points="198.8983,-69.8973 190.6082,-76.4945 201.203,-76.507 198.8983,-69.8973"/>
</g>
<!-- Node62 -->
<g id="node4" class="node">
<title>Node62</title>
<g id="a_node4"><a xlink:href="opcontrol_8c.html#ac71a94af413917f27d108e95c4d6f6a7" target="_top" xlink:title="operatorControl">
<polygon fill="none" stroke="#000000" points="346.6787,-38.5 346.6787,-56.5 432.1611,-56.5 432.1611,-38.5 346.6787,-38.5"/>
<text text-anchor="middle" x="389.4199" y="-44.5" font-family="Helvetica,sans-Serif" font-size="10.00" fill="#000000">operatorControl</text>
</a>
</g>
</g>
<!-- Node61&#45;&gt;Node62 -->
<g id="edge3" class="edge">
<title>Node61&#45;&gt;Node62</title>
<path fill="none" stroke="#191970" d="M321.1,-47.5C329.5511,-47.5 338.3116,-47.5 346.6265,-47.5"/>
<polygon fill="#191970" stroke="#191970" points="320.9957,-44.0001 310.9957,-47.5 320.9956,-51.0001 320.9957,-44.0001"/>
</g>
<!-- Node63&#45;&gt;Node61 -->
<g id="edge5" class="edge">
<title>Node63&#45;&gt;Node61</title>
<path fill="none" stroke="#191970" d="M200.3623,-21.9065C215.8066,-27.2915 233.5644,-33.4831 247.7449,-38.4275"/>
<polygon fill="#191970" stroke="#191970" points="201.203,-18.493 190.6082,-18.5055 198.8983,-25.1027 201.203,-18.493"/>
</g>
</g>
</svg>
