<?xml version="1.0" encoding="UTF-8" standalone="no"?>
<!DOCTYPE svg PUBLIC "-//W3C//DTD SVG 1.1//EN"
 "http://www.w3.org/Graphics/SVG/1.1/DTD/svg11.dtd">
<!-- Generated by graphviz version 2.40.1 (20161225.0304)
 -->
<!-- Title: include/mobile_goal_intake.h Pages: 1 -->
<svg width="291pt" height="202pt"
 viewBox="0.00 0.00 291.08 202.00" xmlns="http://www.w3.org/2000/svg" xmlns:xlink="http://www.w3.org/1999/xlink">
<g id="graph0" class="graph" transform="scale(1 1) rotate(0) translate(4 198)">
<title>include/mobile_goal_intake.h</title>
<!-- Node0 -->
<g id="node1" class="node">
<title>Node0</title>
<polygon fill="#bfbfbf" stroke="#000000" points="75.6504,-165.5 75.6504,-193.5 180.0439,-193.5 180.0439,-165.5 75.6504,-165.5"/>
<text text-anchor="start" x="83.6504" y="-181.5" font-family="Helvetica,sans-Serif" font-size="10.00" fill="#000000">include/mobile_goal</text>
<text text-anchor="middle" x="127.8472" y="-171.5" font-family="Helvetica,sans-Serif" font-size="10.00" fill="#000000">_intake.h</text>
</g>
<!-- Node1 -->
<g id="node2" class="node">
<title>Node1</title>
<g id="a_node2"><a xlink:href="$motor__ports_8h.html" xlink:title="The motor port definitionsMacros for the different motors ports. ">
<polygon fill="none" stroke="#000000" points="0,-110.5 0,-128.5 77.6943,-128.5 77.6943,-110.5 0,-110.5"/>
<text text-anchor="middle" x="38.8472" y="-116.5" font-family="Helvetica,sans-Serif" font-size="10.00" fill="#000000">motor_ports.h</text>
</a>
</g>
</g>
<!-- Node0&#45;&gt;Node1 -->
<g id="edge1" class="edge">
<title>Node0&#45;&gt;Node1</title>
<path fill="none" stroke="#191970" d="M106.7554,-165.2808C92.9247,-155.9568 74.8766,-143.7895 60.8633,-134.3423"/>
<polygon fill="#191970" stroke="#191970" points="62.5703,-131.272 52.322,-128.5842 58.6573,-137.0763 62.5703,-131.272"/>
</g>
<!-- Node2 -->
<g id="node3" class="node">
<title>Node2</title>
<g id="a_node3"><a xlink:href="$controller_8h.html" xlink:title="controller definitions, macros and functions to assist with usig the vex controllers. ">
<polygon fill="none" stroke="#000000" points="95.3867,-110.5 95.3867,-128.5 160.3076,-128.5 160.3076,-110.5 95.3867,-110.5"/>
<text text-anchor="middle" x="127.8472" y="-116.5" font-family="Helvetica,sans-Serif" font-size="10.00" fill="#000000">controller.h</text>
</a>
</g>
</g>
<!-- Node0&#45;&gt;Node2 -->
<g id="edge2" class="edge">
<title>Node0&#45;&gt;Node2</title>
<path fill="none" stroke="#191970" d="M127.8472,-165.2808C127.8472,-157.3776 127.8472,-147.4316 127.8472,-138.8308"/>
<polygon fill="#191970" stroke="#191970" points="131.3473,-138.5842 127.8472,-128.5842 124.3473,-138.5842 131.3473,-138.5842"/>
</g>
<!-- Node6 -->
<g id="node7" class="node">
<title>Node6</title>
<g id="a_node7"><a xlink:href="$slew_8h.html" xlink:title="Contains the slew rate controller wrapper for the motors. ">
<polygon fill="none" stroke="#000000" points="177.9482,-110.5 177.9482,-128.5 221.7461,-128.5 221.7461,-110.5 177.9482,-110.5"/>
<text text-anchor="middle" x="199.8472" y="-116.5" font-family="Helvetica,sans-Serif" font-size="10.00" fill="#000000">slew.h</text>
</a>
</g>
</g>
<!-- Node0&#45;&gt;Node6 -->
<g id="edge6" class="edge">
<title>Node0&#45;&gt;Node6</title>
<path fill="none" stroke="#191970" d="M144.9102,-165.2808C155.7794,-156.2232 169.8682,-144.4825 181.0568,-135.1586"/>
<polygon fill="#191970" stroke="#191970" points="183.5046,-137.6749 188.9461,-128.5842 179.0232,-132.2973 183.5046,-137.6749"/>
</g>
<!-- Node3 -->
<g id="node4" class="node">
<title>Node3</title>
<g id="a_node4"><a xlink:href="$vmath_8h.html" xlink:title="Vex Specific Math Functions, includes: Cartesian to polar cordinates. ">
<polygon fill="none" stroke="#000000" points="72.0615,-55.5 72.0615,-73.5 123.6328,-73.5 123.6328,-55.5 72.0615,-55.5"/>
<text text-anchor="middle" x="97.8472" y="-61.5" font-family="Helvetica,sans-Serif" font-size="10.00" fill="#000000">vmath.h</text>
</a>
</g>
</g>
<!-- Node2&#45;&gt;Node3 -->
<g id="edge3" class="edge">
<title>Node2&#45;&gt;Node3</title>
<path fill="none" stroke="#191970" d="M122.8933,-110.4179C118.7925,-102.8998 112.8378,-91.9829 107.7635,-82.6799"/>
<polygon fill="#191970" stroke="#191970" points="110.7699,-80.8824 102.9087,-73.7795 104.6246,-84.2344 110.7699,-80.8824"/>
</g>
<!-- Node5 -->
<g id="node6" class="node">
<title>Node5</title>
<polygon fill="none" stroke="#bfbfbf" points="242.6182,-.5 242.6182,-18.5 283.0762,-18.5 283.0762,-.5 242.6182,-.5"/>
<text text-anchor="middle" x="262.8472" y="-6.5" font-family="Helvetica,sans-Serif" font-size="10.00" fill="#000000">API.h</text>
</g>
<!-- Node2&#45;&gt;Node5 -->
<g id="edge5" class="edge">
<title>Node2&#45;&gt;Node5</title>
<path fill="none" stroke="#191970" d="M160.585,-110.8434C182.0736,-103.8077 209.6494,-92.0456 228.8472,-74 242.2239,-61.426 251.3565,-42.3975 256.7605,-28.2635"/>
<polygon fill="#191970" stroke="#191970" points="260.1444,-29.192 260.1747,-18.5972 253.544,-26.8606 260.1444,-29.192"/>
</g>
<!-- Node4 -->
<g id="node5" class="node">
<title>Node4</title>
<polygon fill="none" stroke="#bfbfbf" points="110.5615,-.5 110.5615,-18.5 157.1328,-18.5 157.1328,-.5 110.5615,-.5"/>
<text text-anchor="middle" x="133.8472" y="-6.5" font-family="Helvetica,sans-Serif" font-size="10.00" fill="#000000">math.h</text>
</g>
<!-- Node3&#45;&gt;Node4 -->
<g id="edge4" class="edge">
<title>Node3&#45;&gt;Node4</title>
<path fill="none" stroke="#191970" d="M103.7918,-55.4179C108.7645,-47.8207 116.0091,-36.7527 122.1396,-27.3866"/>
<polygon fill="#191970" stroke="#191970" points="125.2252,-29.0633 127.7733,-18.7795 119.3682,-25.2297 125.2252,-29.0633"/>
</g>
<!-- Node6&#45;&gt;Node4 -->
<g id="edge8" class="edge">
<title>Node6&#45;&gt;Node4</title>
<path fill="none" stroke="#191970" d="M193.7199,-110.1687C187.7599,-101.0269 178.5089,-86.6629 170.8472,-74 161.4744,-58.5092 151.2662,-40.6326 143.9511,-27.6338"/>
<polygon fill="#191970" stroke="#191970" points="146.9236,-25.7785 138.9828,-18.7646 140.8165,-29.1995 146.9236,-25.7785"/>
</g>
<!-- Node6&#45;&gt;Node5 -->
<g id="edge7" class="edge">
<title>Node6&#45;&gt;Node5</title>
<path fill="none" stroke="#191970" d="M220.6072,-110.4895C235.0248,-103.003 253.1495,-90.8462 261.8472,-74 268.9919,-60.1616 268.6695,-42.3249 266.8842,-28.9172"/>
<polygon fill="#191970" stroke="#191970" points="270.304,-28.1505 265.1722,-18.8815 263.4037,-29.3276 270.304,-28.1505"/>
</g>
<!-- Node7 -->
<g id="node8" class="node">
<title>Node7</title>
<g id="a_node8"><a xlink:href="$vlib_8h.html" xlink:title="Contains misc helpful functions. ">
<polygon fill="none" stroke="#000000" points="180.1748,-55.5 180.1748,-73.5 219.5195,-73.5 219.5195,-55.5 180.1748,-55.5"/>
<text text-anchor="middle" x="199.8472" y="-61.5" font-family="Helvetica,sans-Serif" font-size="10.00" fill="#000000">vlib.h</text>
</a>
</g>
</g>
<!-- Node6&#45;&gt;Node7 -->
<g id="edge9" class="edge">
<title>Node6&#45;&gt;Node7</title>
<path fill="none" stroke="#191970" d="M199.8472,-110.4179C199.8472,-103.2164 199.8472,-92.8962 199.8472,-83.8632"/>
<polygon fill="#191970" stroke="#191970" points="203.3473,-83.7794 199.8472,-73.7795 196.3473,-83.7795 203.3473,-83.7794"/>
</g>
<!-- Node7&#45;&gt;Node4 -->
<g id="edge10" class="edge">
<title>Node7&#45;&gt;Node4</title>
<path fill="none" stroke="#191970" d="M188.9486,-55.4179C179.1672,-47.2667 164.5913,-35.1201 152.8875,-25.3669"/>
<polygon fill="#191970" stroke="#191970" points="154.9054,-22.4926 144.9825,-18.7795 150.4241,-27.8701 154.9054,-22.4926"/>
</g>
<!-- Node7&#45;&gt;Node5 -->
<g id="edge11" class="edge">
<title>Node7&#45;&gt;Node5</title>
<path fill="none" stroke="#191970" d="M210.2503,-55.4179C219.5871,-47.2667 233.5005,-35.1201 244.6723,-25.3669"/>
<polygon fill="#191970" stroke="#191970" points="246.9866,-27.9927 252.218,-18.7795 242.383,-22.7194 246.9866,-27.9927"/>
</g>
<!-- Node8 -->
<g id="node9" class="node">
<title>Node8</title>
<polygon fill="none" stroke="#bfbfbf" points="175.4507,-.5 175.4507,-18.5 224.2437,-18.5 224.2437,-.5 175.4507,-.5"/>
<text text-anchor="middle" x="199.8472" y="-6.5" font-family="Helvetica,sans-Serif" font-size="10.00" fill="#000000">string.h</text>
</g>
<!-- Node7&#45;&gt;Node8 -->
<g id="edge12" class="edge">
<title>Node7&#45;&gt;Node8</title>
<path fill="none" stroke="#191970" d="M199.8472,-55.4179C199.8472,-48.2164 199.8472,-37.8962 199.8472,-28.8632"/>
<polygon fill="#191970" stroke="#191970" points="203.3473,-28.7794 199.8472,-18.7795 196.3473,-28.7795 203.3473,-28.7794"/>
</g>
</g>
</svg>
