<?xml version="1.0" encoding="UTF-8" standalone="no"?>
<!DOCTYPE svg PUBLIC "-//W3C//DTD SVG 1.1//EN"
 "http://www.w3.org/Graphics/SVG/1.1/DTD/svg11.dtd">
<!-- Generated by graphviz version 2.40.1 (20161225.0304)
 -->
<!-- Title: raise_intake Pages: 1 -->
<!--zoomable 347 -->
<svg id="main" version="1.1" xmlns="http://www.w3.org/2000/svg" xmlns:xlink="http://www.w3.org/1999/xlink" xml:space="preserve" onload="init(evt)">
<style type="text/css"><![CDATA[
.edge:hover path { stroke: red; }
.edge:hover polygon { stroke: red; fill: red; }
]]></style>
<script type="text/javascript"><![CDATA[
var edges = document.getElementsByTagName('g');
if (edges && edges.length) {
  for (var i=0;i<edges.length;i++) {
    if (edges[i].id.substr(0,4)=='edge') {
      edges[i].setAttribute('class','edge');
    }
  }
}
]]></script>
        <defs>
                <circle id="rim" cx="0" cy="0" r="7"/>
                <circle id="rim2" cx="0" cy="0" r="3.5"/>
                <g id="zoomPlus">
                        <use xlink:href="#rim" fill="#404040">
                                <set attributeName="fill" to="#808080" begin="zoomplus.mouseover" end="zoomplus.mouseout"/>
                        </use>
                        <path d="M-4,0h8M0,-4v8" fill="none" stroke="white" stroke-width="1.5" pointer-events="none"/>
                </g>
                <g id="zoomMin">
                        <use xlink:href="#rim" fill="#404040">
                                <set attributeName="fill" to="#808080" begin="zoomminus.mouseover" end="zoomminus.mouseout"/>
                        </use>
                        <path d="M-4,0h8" fill="none" stroke="white" stroke-width="1.5" pointer-events="none"/>
                </g>
                <g id="dirArrow">
                        <path fill="none" stroke="white" stroke-width="1.5" d="M0,-3.0v7 M-2.5,-0.5L0,-3.0L2.5,-0.5"/>
                </g>
               <g id="resetDef">
                       <use xlink:href="#rim2" fill="#404040">
                               <set attributeName="fill" to="#808080" begin="reset.mouseover" end="reset.mouseout"/>
                       </use>
               </g>
        </defs>

<script type="text/javascript">
var viewWidth = 779;
var viewHeight = 347;
var sectionId = 'dynsection-3';
</script>
<script xlink:href="svgpan.js"/>
<svg id="graph" class="graph">
<g id="viewport">
<title>raise_intake</title>
<!-- Node21 -->
<g id="node1" class="node">
<title>Node21</title>
<polygon fill="#bfbfbf" stroke="#000000" points="0,-150.6309 0,-168.6309 69.9209,-168.6309 69.9209,-150.6309 0,-150.6309"/>
<text text-anchor="middle" x="34.9604" y="-156.6309" font-family="Helvetica,sans-Serif" font-size="10.00" fill="#000000">raise_intake</text>
</g>
<!-- Node22 -->
<g id="node2" class="node">
<title>Node22</title>
<g id="a_node2"><a xlink:href="mobile__goal__intake_8c.html#a8f215023832ba515d7b4535e3ae07498" target="_top" xlink:title="set_intake_motor">
<polygon fill="none" stroke="#000000" points="105.9209,-150.6309 105.9209,-168.6309 198.6299,-168.6309 198.6299,-150.6309 105.9209,-150.6309"/>
<text text-anchor="middle" x="152.2754" y="-156.6309" font-family="Helvetica,sans-Serif" font-size="10.00" fill="#000000">set_intake_motor</text>
</a>
</g>
</g>
<!-- Node21&#45;&gt;Node22 -->
<g id="edge1" class="edge">
<title>Node21&#45;&gt;Node22</title>
<path fill="none" stroke="#191970" d="M70.1588,-159.6309C78.2114,-159.6309 86.9703,-159.6309 95.6689,-159.6309"/>
<polygon fill="#191970" stroke="#191970" points="95.8068,-163.131 105.8068,-159.6309 95.8067,-156.131 95.8068,-163.131"/>
</g>
<!-- Node23 -->
<g id="node3" class="node">
<title>Node23</title>
<g id="a_node3"><a xlink:href="slew_8h.html#a9f8b8ae577ef938622024545711f0151" target="_top" xlink:title="set_motor_immediate">
<polygon fill="none" stroke="#000000" points="234.6299,-150.6309 234.6299,-168.6309 346.7822,-168.6309 346.7822,-150.6309 234.6299,-150.6309"/>
<text text-anchor="middle" x="290.7061" y="-156.6309" font-family="Helvetica,sans-Serif" font-size="10.00" fill="#000000">set_motor_immediate</text>
</a>
</g>
</g>
<!-- Node22&#45;&gt;Node23 -->
<g id="edge2" class="edge">
<title>Node22&#45;&gt;Node23</title>
<path fill="none" stroke="#191970" d="M198.7559,-159.6309C206.9983,-159.6309 215.7246,-159.6309 224.3902,-159.6309"/>
<polygon fill="#191970" stroke="#191970" points="224.5024,-163.131 234.5024,-159.6309 224.5023,-156.131 224.5024,-163.131"/>
</g>
<!-- Node24 -->
<g id="node4" class="node">
<title>Node24</title>
<g id="a_node4"><a xlink:href="log_8h.html#af3668f40d1ad1b4f3418869ac9a31f34" target="_top" xlink:title="prints a info message ">
<polygon fill="none" stroke="#000000" points="388.0532,-320.6309 388.0532,-338.6309 431.8608,-338.6309 431.8608,-320.6309 388.0532,-320.6309"/>
<text text-anchor="middle" x="409.957" y="-326.6309" font-family="Helvetica,sans-Serif" font-size="10.00" fill="#000000">debug</text>
</a>
</g>
</g>
<!-- Node23&#45;&gt;Node24 -->
<g id="edge3" class="edge">
<title>Node23&#45;&gt;Node24</title>
<path fill="none" stroke="#191970" d="M295.2931,-168.7833C307.5341,-192.7274 342.7775,-258.6156 382.7822,-305.6309 385.0665,-308.3155 387.6517,-310.974 390.297,-313.4894"/>
<polygon fill="#191970" stroke="#191970" points="388.3723,-316.4614 398.1718,-320.4891 393.0229,-311.2295 388.3723,-316.4614"/>
</g>
<!-- Node26 -->
<g id="node6" class="node">
<title>Node26</title>
<g id="a_node6"><a xlink:href="slew_8c.html#a321758941d88b75783955c819bb75005" target="_top" xlink:title="Initializes the slew rate controller. ">
<polygon fill="none" stroke="#000000" points="382.7822,-150.6309 382.7822,-168.6309 437.1318,-168.6309 437.1318,-150.6309 382.7822,-150.6309"/>
<text text-anchor="middle" x="409.957" y="-156.6309" font-family="Helvetica,sans-Serif" font-size="10.00" fill="#000000">init_slew</text>
</a>
</g>
</g>
<!-- Node23&#45;&gt;Node26 -->
<g id="edge5" class="edge">
<title>Node23&#45;&gt;Node26</title>
<path fill="none" stroke="#191970" d="M346.8396,-159.6309C355.4925,-159.6309 364.2437,-159.6309 372.3611,-159.6309"/>
<polygon fill="#191970" stroke="#191970" points="372.6055,-163.131 382.6055,-159.6309 372.6054,-156.131 372.6055,-163.131"/>
</g>
<!-- Node36 -->
<g id="node16" class="node">
<title>Node36</title>
<g id="a_node16"><a xlink:href="_a_p_i_8h.html#a8b51124628d2a7741738d48551d1e8ee" target="_top" xlink:title="mutexTake">
<polygon fill="none" stroke="#000000" points="586.2793,-193.6309 586.2793,-211.6309 650.6338,-211.6309 650.6338,-193.6309 586.2793,-193.6309"/>
<text text-anchor="middle" x="618.4565" y="-199.6309" font-family="Helvetica,sans-Serif" font-size="10.00" fill="#000000">mutexTake</text>
</a>
</g>
</g>
<!-- Node23&#45;&gt;Node36 -->
<g id="edge23" class="edge">
<title>Node23&#45;&gt;Node36</title>
<path fill="none" stroke="#191970" d="M306.6327,-168.6948C337.5339,-185.699 408.2952,-221.823 473.1318,-234.6309 506.7696,-241.2758 516.8136,-242.0942 550.2793,-234.6309 565.9404,-231.1384 582.2534,-223.6408 594.9945,-216.7806"/>
<polygon fill="#191970" stroke="#191970" points="596.9685,-219.6861 603.9714,-211.7356 593.539,-213.5837 596.9685,-219.6861"/>
</g>
<!-- Node37 -->
<g id="node17" class="node">
<title>Node37</title>
<g id="a_node17"><a xlink:href="_a_p_i_8h.html#afe171a08d22de18fc2ab604b2364959f" target="_top" xlink:title="mutexGive">
<polygon fill="none" stroke="#000000" points="586.5601,-94.6309 586.5601,-112.6309 650.353,-112.6309 650.353,-94.6309 586.5601,-94.6309"/>
<text text-anchor="middle" x="618.4565" y="-100.6309" font-family="Helvetica,sans-Serif" font-size="10.00" fill="#000000">mutexGive</text>
</a>
</g>
</g>
<!-- Node23&#45;&gt;Node37 -->
<g id="edge22" class="edge">
<title>Node23&#45;&gt;Node37</title>
<path fill="none" stroke="#191970" d="M307.1512,-150.5479C338.3604,-133.8886 408.818,-99.0213 473.1318,-86.6309 506.8005,-80.1445 516.2472,-82.452 550.2793,-86.6309 559.7045,-87.7883 569.7015,-89.8137 579.0512,-92.0722"/>
<polygon fill="#191970" stroke="#191970" points="578.3297,-95.5002 588.8849,-94.5843 580.0624,-88.718 578.3297,-95.5002"/>
</g>
<!-- Node38 -->
<g id="node18" class="node">
<title>Node38</title>
<g id="a_node18"><a xlink:href="_a_p_i_8h.html#a03c5b04b472d024281f62d7af8854a8e" target="_top" xlink:title="motorSet">
<polygon fill="none" stroke="#000000" points="590.1709,-57.6309 590.1709,-75.6309 646.7422,-75.6309 646.7422,-57.6309 590.1709,-57.6309"/>
<text text-anchor="middle" x="618.4565" y="-63.6309" font-family="Helvetica,sans-Serif" font-size="10.00" fill="#000000">motorSet</text>
</a>
</g>
</g>
<!-- Node23&#45;&gt;Node38 -->
<g id="edge21" class="edge">
<title>Node23&#45;&gt;Node38</title>
<path fill="none" stroke="#191970" d="M297.7686,-150.4594C319.8965,-122.5794 391.301,-38.9539 473.1318,-9.6309 505.4098,1.9354 518.8701,4.121 550.2793,-9.6309 571.888,-19.0919 567.7561,-34.0249 586.2793,-48.6309 587.8249,-49.8497 589.4635,-51.0354 591.1503,-52.1783"/>
<polygon fill="#191970" stroke="#191970" points="589.4304,-55.2295 599.7807,-57.4925 593.1007,-49.2689 589.4304,-55.2295"/>
</g>
<!-- Node25 -->
<g id="node5" class="node">
<title>Node25</title>
<g id="a_node5"><a xlink:href="_a_p_i_8h.html#a403c82418e475fa4a8273719e6a7f3e6" target="_top" xlink:title="printf">
<polygon fill="none" stroke="#000000" points="709.7026,-192.6309 709.7026,-210.6309 747.9341,-210.6309 747.9341,-192.6309 709.7026,-192.6309"/>
<text text-anchor="middle" x="728.8184" y="-198.6309" font-family="Helvetica,sans-Serif" font-size="10.00" fill="#000000">printf</text>
</a>
</g>
</g>
<!-- Node24&#45;&gt;Node25 -->
<g id="edge4" class="edge">
<title>Node24&#45;&gt;Node25</title>
<path fill="none" stroke="#191970" d="M431.9389,-326.6294C475.5882,-320.0319 575.4646,-301.7246 650.6338,-263.6309 674.1024,-251.7377 697.2428,-232.1346 712.1844,-218.1555"/>
<polygon fill="#191970" stroke="#191970" points="714.7963,-220.5 719.5917,-211.0526 709.9514,-215.4475 714.7963,-220.5"/>
</g>
<!-- Node27 -->
<g id="node7" class="node">
<title>Node27</title>
<g id="a_node7"><a xlink:href="log_8h.html#a0bec2cf5fff7f607bc510b74aba9887c" target="_top" xlink:title="prints a warning message and displays on lcd. Only will print and display if log_level is greater tha...">
<polygon fill="none" stroke="#000000" points="486.1958,-19.6309 486.1958,-37.6309 537.2153,-37.6309 537.2153,-19.6309 486.1958,-19.6309"/>
<text text-anchor="middle" x="511.7056" y="-25.6309" font-family="Helvetica,sans-Serif" font-size="10.00" fill="#000000">warning</text>
</a>
</g>
</g>
<!-- Node26&#45;&gt;Node27 -->
<g id="edge6" class="edge">
<title>Node26&#45;&gt;Node27</title>
<path fill="none" stroke="#191970" d="M416.9506,-150.6268C433.7233,-129.0322 476.4639,-74.0041 498.3495,-45.8267"/>
<polygon fill="#191970" stroke="#191970" points="501.293,-47.7427 504.663,-37.6981 495.7647,-43.4488 501.293,-47.7427"/>
</g>
<!-- Node31 -->
<g id="node11" class="node">
<title>Node31</title>
<g id="a_node11"><a xlink:href="_a_p_i_8h.html#a8966c541f3e9565aea1289f0d2f2cf43" target="_top" xlink:title="motorStopAll">
<polygon fill="none" stroke="#000000" points="475.0825,-132.6309 475.0825,-150.6309 548.3286,-150.6309 548.3286,-132.6309 475.0825,-132.6309"/>
<text text-anchor="middle" x="511.7056" y="-138.6309" font-family="Helvetica,sans-Serif" font-size="10.00" fill="#000000">motorStopAll</text>
</a>
</g>
</g>
<!-- Node26&#45;&gt;Node31 -->
<g id="edge11" class="edge">
<title>Node26&#45;&gt;Node31</title>
<path fill="none" stroke="#191970" d="M437.2238,-154.8073C445.6967,-153.3084 455.2922,-151.6108 464.7095,-149.9449"/>
<polygon fill="#191970" stroke="#191970" points="465.5593,-153.349 474.7967,-148.1604 464.3398,-146.456 465.5593,-153.349"/>
</g>
<!-- Node32 -->
<g id="node12" class="node">
<title>Node32</title>
<g id="a_node12"><a xlink:href="log_8h.html#a1606d750e1bb8de9f9e917172bba3382" target="_top" xlink:title="prints a info message ">
<polygon fill="none" stroke="#000000" points="602.395,-235.6309 602.395,-253.6309 634.5181,-253.6309 634.5181,-235.6309 602.395,-235.6309"/>
<text text-anchor="middle" x="618.4565" y="-241.6309" font-family="Helvetica,sans-Serif" font-size="10.00" fill="#000000">info</text>
</a>
</g>
</g>
<!-- Node26&#45;&gt;Node32 -->
<g id="edge12" class="edge">
<title>Node26&#45;&gt;Node32</title>
<path fill="none" stroke="#191970" d="M414.4994,-168.8343C423.2412,-185.4073 444.1369,-219.9121 473.1318,-234.6309 510.8898,-253.7982 561.4241,-252.1705 591.8696,-248.7504"/>
<polygon fill="#191970" stroke="#191970" points="592.6394,-252.1807 602.1166,-247.4445 591.7543,-245.2369 592.6394,-252.1807"/>
</g>
<!-- Node33 -->
<g id="node13" class="node">
<title>Node33</title>
<g id="a_node13"><a xlink:href="_a_p_i_8h.html#aecd027ce8f8b52a765735e9eb5b202b3" target="_top" xlink:title="mutexCreate">
<polygon fill="none" stroke="#000000" points="475.0825,-206.6309 475.0825,-224.6309 548.3286,-224.6309 548.3286,-206.6309 475.0825,-206.6309"/>
<text text-anchor="middle" x="511.7056" y="-212.6309" font-family="Helvetica,sans-Serif" font-size="10.00" fill="#000000">mutexCreate</text>
</a>
</g>
</g>
<!-- Node26&#45;&gt;Node33 -->
<g id="edge14" class="edge">
<title>Node26&#45;&gt;Node33</title>
<path fill="none" stroke="#191970" d="M424.2614,-168.8245C436.9064,-176.8084 455.9578,-188.4911 473.1318,-197.6309 476.0023,-199.1586 479.0255,-200.6928 482.0642,-202.1863"/>
<polygon fill="#191970" stroke="#191970" points="480.5574,-205.3452 491.0895,-206.4969 483.5743,-199.0287 480.5574,-205.3452"/>
</g>
<!-- Node34 -->
<g id="node14" class="node">
<title>Node34</title>
<g id="a_node14"><a xlink:href="_a_p_i_8h.html#ab05a241d6d1fd98b1ceb4665db678156" target="_top" xlink:title="taskRunLoop">
<polygon fill="none" stroke="#000000" points="474.2402,-169.6309 474.2402,-187.6309 549.1709,-187.6309 549.1709,-169.6309 474.2402,-169.6309"/>
<text text-anchor="middle" x="511.7056" y="-175.6309" font-family="Helvetica,sans-Serif" font-size="10.00" fill="#000000">taskRunLoop</text>
</a>
</g>
</g>
<!-- Node26&#45;&gt;Node34 -->
<g id="edge15" class="edge">
<title>Node26&#45;&gt;Node34</title>
<path fill="none" stroke="#191970" d="M437.2238,-164.7226C445.5238,-166.2725 454.901,-168.0236 464.1327,-169.7474"/>
<polygon fill="#191970" stroke="#191970" points="463.5624,-173.2014 474.035,-171.5965 464.8474,-166.3203 463.5624,-173.2014"/>
</g>
<!-- Node35 -->
<g id="node15" class="node">
<title>Node35</title>
<g id="a_node15"><a xlink:href="slew_8c.html#a807a87c5df438fde21c1e8213906695b" target="_top" xlink:title="Closes the distance between the desired motor value and the current motor value by half for each moto...">
<polygon fill="none" stroke="#000000" points="473.1318,-95.6309 473.1318,-113.6309 550.2793,-113.6309 550.2793,-95.6309 473.1318,-95.6309"/>
<text text-anchor="middle" x="511.7056" y="-101.6309" font-family="Helvetica,sans-Serif" font-size="10.00" fill="#000000">updateMotors</text>
</a>
</g>
</g>
<!-- Node26&#45;&gt;Node35 -->
<g id="edge16" class="edge">
<title>Node26&#45;&gt;Node35</title>
<path fill="none" stroke="#191970" d="M425.3894,-150.4909C438.092,-143.0516 456.6281,-132.3876 473.1318,-123.6309 476.495,-121.8465 480.049,-120.019 483.5845,-118.2364"/>
<polygon fill="#191970" stroke="#191970" points="485.3552,-121.2649 492.7555,-113.683 482.2422,-114.9952 485.3552,-121.2649"/>
</g>
<!-- Node28 -->
<g id="node8" class="node">
<title>Node28</title>
<g id="a_node8"><a xlink:href="log_8c.html#afff22aff6749311a684a559cac3ac8bd" target="_top" xlink:title="log_info">
<polygon fill="none" stroke="#000000" points="592.9419,-20.6309 592.9419,-38.6309 643.9712,-38.6309 643.9712,-20.6309 592.9419,-20.6309"/>
<text text-anchor="middle" x="618.4565" y="-26.6309" font-family="Helvetica,sans-Serif" font-size="10.00" fill="#000000">log_info</text>
</a>
</g>
</g>
<!-- Node27&#45;&gt;Node28 -->
<g id="edge7" class="edge">
<title>Node27&#45;&gt;Node28</title>
<path fill="none" stroke="#191970" d="M537.2751,-28.8705C550.7758,-28.9969 567.5694,-29.1543 582.3733,-29.2929"/>
<polygon fill="#191970" stroke="#191970" points="582.6933,-32.796 592.7257,-29.3899 582.7589,-25.7963 582.6933,-32.796"/>
</g>
<!-- Node28&#45;&gt;Node25 -->
<g id="edge10" class="edge">
<title>Node28&#45;&gt;Node25</title>
<path fill="none" stroke="#191970" d="M637.7926,-38.6617C642.3772,-41.4146 646.9886,-44.7564 650.6338,-48.6309 688.6651,-89.0548 712.7144,-151.5399 723.0162,-182.664"/>
<polygon fill="#191970" stroke="#191970" points="719.7101,-183.8167 726.0871,-192.2774 726.3782,-181.6866 719.7101,-183.8167"/>
</g>
<!-- Node29 -->
<g id="node9" class="node">
<title>Node29</title>
<g id="a_node9"><a xlink:href="_a_p_i_8h.html#a5fa1d119fe3e836b5519f97eae7a1272" target="_top" xlink:title="lcdClear">
<polygon fill="none" stroke="#000000" points="702.4785,-39.6309 702.4785,-57.6309 755.1582,-57.6309 755.1582,-39.6309 702.4785,-39.6309"/>
<text text-anchor="middle" x="728.8184" y="-45.6309" font-family="Helvetica,sans-Serif" font-size="10.00" fill="#000000">lcdClear</text>
</a>
</g>
</g>
<!-- Node28&#45;&gt;Node29 -->
<g id="edge8" class="edge">
<title>Node28&#45;&gt;Node29</title>
<path fill="none" stroke="#191970" d="M644.0532,-34.0377C658.3653,-36.5017 676.4472,-39.6147 692.2308,-42.332"/>
<polygon fill="#191970" stroke="#191970" points="691.7595,-45.8023 702.2084,-44.0497 692.9472,-38.9038 691.7595,-45.8023"/>
</g>
<!-- Node30 -->
<g id="node10" class="node">
<title>Node30</title>
<g id="a_node10"><a xlink:href="_a_p_i_8h.html#aab53a247d88151a6623c20fa1ea940b0" target="_top" xlink:title="lcdSetBacklight">
<polygon fill="none" stroke="#000000" points="686.6338,-2.6309 686.6338,-20.6309 771.0029,-20.6309 771.0029,-2.6309 686.6338,-2.6309"/>
<text text-anchor="middle" x="728.8184" y="-8.6309" font-family="Helvetica,sans-Serif" font-size="10.00" fill="#000000">lcdSetBacklight</text>
</a>
</g>
</g>
<!-- Node28&#45;&gt;Node30 -->
<g id="edge9" class="edge">
<title>Node28&#45;&gt;Node30</title>
<path fill="none" stroke="#191970" d="M644.0532,-25.4561C653.706,-23.8818 665.0737,-22.0277 676.2945,-20.1976"/>
<polygon fill="#191970" stroke="#191970" points="677.1985,-23.5965 686.5047,-18.5323 676.0716,-16.6878 677.1985,-23.5965"/>
</g>
<!-- Node32&#45;&gt;Node25 -->
<g id="edge13" class="edge">
<title>Node32&#45;&gt;Node25</title>
<path fill="none" stroke="#191970" d="M634.7408,-238.2862C651.9256,-231.5905 679.3508,-220.9049 700.1666,-212.7945"/>
<polygon fill="#191970" stroke="#191970" points="701.4452,-216.0527 709.4922,-209.1609 698.9038,-209.5302 701.4452,-216.0527"/>
</g>
<!-- Node35&#45;&gt;Node25 -->
<g id="edge19" class="edge">
<title>Node35&#45;&gt;Node25</title>
<path fill="none" stroke="#191970" d="M532.131,-113.7565C570.994,-131.1194 655.663,-168.9472 700.1702,-188.8317"/>
<polygon fill="#191970" stroke="#191970" points="698.9842,-192.1352 709.5421,-193.0189 701.8396,-185.7441 698.9842,-192.1352"/>
</g>
<!-- Node35&#45;&gt;Node36 -->
<g id="edge17" class="edge">
<title>Node35&#45;&gt;Node36</title>
<path fill="none" stroke="#191970" d="M534.868,-113.7544C540.2435,-116.4714 545.7202,-119.7734 550.2793,-123.6309 571.1836,-141.3181 568.0051,-153.2378 586.2793,-173.6309 590.2943,-178.1115 594.9422,-182.6237 599.4354,-186.7103"/>
<polygon fill="#191970" stroke="#191970" points="597.3599,-189.5453 607.1859,-193.5076 601.9754,-184.2825 597.3599,-189.5453"/>
</g>
<!-- Node35&#45;&gt;Node37 -->
<g id="edge18" class="edge">
<title>Node35&#45;&gt;Node37</title>
<path fill="none" stroke="#191970" d="M550.5471,-104.2671C558.9388,-104.1885 567.8493,-104.105 576.3591,-104.0253"/>
<polygon fill="#191970" stroke="#191970" points="576.5118,-107.5241 586.4786,-103.9305 576.4462,-100.5244 576.5118,-107.5241"/>
</g>
<!-- Node35&#45;&gt;Node38 -->
<g id="edge20" class="edge">
<title>Node35&#45;&gt;Node38</title>
<path fill="none" stroke="#191970" d="M537.0041,-95.6255C550.8621,-90.6924 568.2502,-84.5028 583.3983,-79.1106"/>
<polygon fill="#191970" stroke="#191970" points="584.7225,-82.3544 592.9697,-75.7035 582.375,-75.7598 584.7225,-82.3544"/>
</g>
</g>
</svg>
        <g id="navigator" transform="translate(0 0)" fill="#404254">
                <rect fill="#f2f5e9" fill-opacity="0.5" stroke="#606060" stroke-width=".5" x="0" y="0" width="60" height="60"/>
                <use id="zoomplus" xlink:href="#zoomPlus" x="17" y="9" onmousedown="handleZoom(evt,'in')"/>
                <use id="zoomminus" xlink:href="#zoomMin" x="42" y="9" onmousedown="handleZoom(evt,'out')"/>
                <use id="reset" xlink:href="#resetDef" x="30" y="36" onmousedown="handleReset()"/>
                <g id="arrowUp" xlink:href="#dirArrow" transform="translate(30 24)" onmousedown="handlePan(0,-1)">
                  <use xlink:href="#rim" fill="#404040">
                        <set attributeName="fill" to="#808080" begin="arrowUp.mouseover" end="arrowUp.mouseout"/>
                  </use>
                  <path fill="none" stroke="white" stroke-width="1.5" d="M0,-3.0v7 M-2.5,-0.5L0,-3.0L2.5,-0.5"/>
                </g>
                <g id="arrowRight" xlink:href="#dirArrow" transform="rotate(90) translate(36 -43)" onmousedown="handlePan(1,0)">
                  <use xlink:href="#rim" fill="#404040">
                        <set attributeName="fill" to="#808080" begin="arrowRight.mouseover" end="arrowRight.mouseout"/>
                  </use>
                  <path fill="none" stroke="white" stroke-width="1.5" d="M0,-3.0v7 M-2.5,-0.5L0,-3.0L2.5,-0.5"/>
                </g>
                <g id="arrowDown" xlink:href="#dirArrow" transform="rotate(180) translate(-30 -48)" onmousedown="handlePan(0,1)">
                  <use xlink:href="#rim" fill="#404040">
                        <set attributeName="fill" to="#808080" begin="arrowDown.mouseover" end="arrowDown.mouseout"/>
                  </use>
                  <path fill="none" stroke="white" stroke-width="1.5" d="M0,-3.0v7 M-2.5,-0.5L0,-3.0L2.5,-0.5"/>
                </g>
                <g id="arrowLeft" xlink:href="#dirArrow" transform="rotate(270) translate(-36 17)" onmousedown="handlePan(-1,0)">
                  <use xlink:href="#rim" fill="#404040">
                        <set attributeName="fill" to="#808080" begin="arrowLeft.mouseover" end="arrowLeft.mouseout"/>
                  </use>
                  <path fill="none" stroke="white" stroke-width="1.5" d="M0,-3.0v7 M-2.5,-0.5L0,-3.0L2.5,-0.5"/>
                </g>
        </g>
        <svg viewBox="0 0 15 15" width="100%" height="30px" preserveAspectRatio="xMaxYMin meet">
         <g id="arrow_out" transform="scale(0.3 0.3)">
          <a xlink:href="mobile__goal__intake_8c_a4899f9a8621015313e6312ce085da979_cgraph_org.svg" target="_base">
           <rect id="button" ry="5" rx="5" y="6" x="6" height="38" width="38"
                fill="#f2f5e9" fill-opacity="0.5" stroke="#606060" stroke-width="1.0"/>
           <path id="arrow"
             d="M 11.500037,31.436501 C 11.940474,20.09759 22.043105,11.32322 32.158766,21.979434 L 37.068811,17.246167 C 37.068811,17.246167 37.088388,32 37.088388,32 L 22.160133,31.978069 C 22.160133,31.978069 26.997745,27.140456 26.997745,27.140456 C 18.528582,18.264221 13.291696,25.230495 11.500037,31.436501 z"
             style="fill:#404040;"/>
          </a>
         </g>
        </svg>
</svg>
