<?xml version="1.0" encoding="UTF-8" standalone="no"?>
<!DOCTYPE svg PUBLIC "-//W3C//DTD SVG 1.1//EN"
 "http://www.w3.org/Graphics/SVG/1.1/DTD/svg11.dtd">
<!-- Generated by graphviz version 2.40.1 (20161225.0304)
 -->
<!-- Title: include/mobile_goal_intake.h Pages: 1 -->
<svg width="230pt" height="202pt"
 viewBox="0.00 0.00 230.36 202.00" xmlns="http://www.w3.org/2000/svg" xmlns:xlink="http://www.w3.org/1999/xlink">
<g id="graph0" class="graph" transform="scale(1 1) rotate(0) translate(4 198)">
<title>include/mobile_goal_intake.h</title>
<!-- Node0 -->
<g id="node1" class="node">
<title>Node0</title>
<polygon fill="#bfbfbf" stroke="#000000" points="69.2637,-165.5 69.2637,-193.5 173.6572,-193.5 173.6572,-165.5 69.2637,-165.5"/>
<text text-anchor="start" x="77.2637" y="-181.5" font-family="Helvetica,sans-Serif" font-size="10.00" fill="#000000">include/mobile_goal</text>
<text text-anchor="middle" x="121.4604" y="-171.5" font-family="Helvetica,sans-Serif" font-size="10.00" fill="#000000">_intake.h</text>
</g>
<!-- Node1 -->
<g id="node2" class="node">
<title>Node1</title>
<g id="a_node2"><a xlink:href="controller_8h.html" target="_top" xlink:title="controller definitions, macros and functions to assist with usig the vex controllers. ">
<polygon fill="none" stroke="#000000" points="0,-110.5 0,-128.5 64.9209,-128.5 64.9209,-110.5 0,-110.5"/>
<text text-anchor="middle" x="32.4604" y="-116.5" font-family="Helvetica,sans-Serif" font-size="10.00" fill="#000000">controller.h</text>
</a>
</g>
</g>
<!-- Node0&#45;&gt;Node1 -->
<g id="edge1" class="edge">
<title>Node0&#45;&gt;Node1</title>
<path fill="none" stroke="#191970" d="M100.3687,-165.2808C86.538,-155.9568 68.4899,-143.7895 54.4766,-134.3423"/>
<polygon fill="#191970" stroke="#191970" points="56.1836,-131.272 45.9353,-128.5842 52.2706,-137.0763 56.1836,-131.272"/>
</g>
<!-- Node5 -->
<g id="node6" class="node">
<title>Node5</title>
<g id="a_node6"><a xlink:href="motor__ports_8h.html" target="_top" xlink:title="The motor port definitionsMacros for the different motors ports. ">
<polygon fill="none" stroke="#000000" points="82.6133,-110.5 82.6133,-128.5 160.3076,-128.5 160.3076,-110.5 82.6133,-110.5"/>
<text text-anchor="middle" x="121.4604" y="-116.5" font-family="Helvetica,sans-Serif" font-size="10.00" fill="#000000">motor_ports.h</text>
</a>
</g>
</g>
<!-- Node0&#45;&gt;Node5 -->
<g id="edge5" class="edge">
<title>Node0&#45;&gt;Node5</title>
<path fill="none" stroke="#191970" d="M121.4604,-165.2808C121.4604,-157.3776 121.4604,-147.4316 121.4604,-138.8308"/>
<polygon fill="#191970" stroke="#191970" points="124.9605,-138.5842 121.4604,-128.5842 117.9605,-138.5842 124.9605,-138.5842"/>
</g>
<!-- Node6 -->
<g id="node7" class="node">
<title>Node6</title>
<g id="a_node7"><a xlink:href="slew_8h.html" target="_top" xlink:title="Contains the slew rate controller wrapper for the motors. ">
<polygon fill="none" stroke="#000000" points="178.5615,-110.5 178.5615,-128.5 222.3594,-128.5 222.3594,-110.5 178.5615,-110.5"/>
<text text-anchor="middle" x="200.4604" y="-116.5" font-family="Helvetica,sans-Serif" font-size="10.00" fill="#000000">slew.h</text>
</a>
</g>
</g>
<!-- Node0&#45;&gt;Node6 -->
<g id="edge6" class="edge">
<title>Node0&#45;&gt;Node6</title>
<path fill="none" stroke="#191970" d="M140.1823,-165.2808C152.2252,-156.1344 167.8703,-144.252 180.2034,-134.8851"/>
<polygon fill="#191970" stroke="#191970" points="182.6529,-137.4198 188.4996,-128.5842 178.4191,-131.8452 182.6529,-137.4198"/>
</g>
<!-- Node2 -->
<g id="node3" class="node">
<title>Node2</title>
<g id="a_node3"><a xlink:href="vmath_8h.html" target="_top" xlink:title="Vex Specific Math Functions, includes: Cartesian to polar cordinates. ">
<polygon fill="none" stroke="#000000" points="6.6748,-55.5 6.6748,-73.5 58.2461,-73.5 58.2461,-55.5 6.6748,-55.5"/>
<text text-anchor="middle" x="32.4604" y="-61.5" font-family="Helvetica,sans-Serif" font-size="10.00" fill="#000000">vmath.h</text>
</a>
</g>
</g>
<!-- Node1&#45;&gt;Node2 -->
<g id="edge2" class="edge">
<title>Node1&#45;&gt;Node2</title>
<path fill="none" stroke="#191970" d="M32.4604,-110.4179C32.4604,-103.2164 32.4604,-92.8962 32.4604,-83.8632"/>
<polygon fill="#191970" stroke="#191970" points="35.9605,-83.7794 32.4604,-73.7795 28.9605,-83.7795 35.9605,-83.7794"/>
</g>
<!-- Node4 -->
<g id="node5" class="node">
<title>Node4</title>
<polygon fill="none" stroke="#bfbfbf" points="177.2314,-.5 177.2314,-18.5 217.6895,-18.5 217.6895,-.5 177.2314,-.5"/>
<text text-anchor="middle" x="197.4604" y="-6.5" font-family="Helvetica,sans-Serif" font-size="10.00" fill="#000000">API.h</text>
</g>
<!-- Node1&#45;&gt;Node4 -->
<g id="edge4" class="edge">
<title>Node1&#45;&gt;Node4</title>
<path fill="none" stroke="#191970" d="M64.9477,-111.1641C98.6345,-102.0142 148.4429,-86.9076 163.4604,-74 177.3831,-62.0334 186.4431,-42.9241 191.6815,-28.6059"/>
<polygon fill="#191970" stroke="#191970" points="195.1123,-29.382 194.9597,-18.7882 188.4726,-27.1649 195.1123,-29.382"/>
</g>
<!-- Node3 -->
<g id="node4" class="node">
<title>Node3</title>
<polygon fill="none" stroke="#bfbfbf" points="45.1748,-.5 45.1748,-18.5 91.7461,-18.5 91.7461,-.5 45.1748,-.5"/>
<text text-anchor="middle" x="68.4604" y="-6.5" font-family="Helvetica,sans-Serif" font-size="10.00" fill="#000000">math.h</text>
</g>
<!-- Node2&#45;&gt;Node3 -->
<g id="edge3" class="edge">
<title>Node2&#45;&gt;Node3</title>
<path fill="none" stroke="#191970" d="M38.4051,-55.4179C43.3778,-47.8207 50.6223,-36.7527 56.7528,-27.3866"/>
<polygon fill="#191970" stroke="#191970" points="59.8384,-29.0633 62.3866,-18.7795 53.9815,-25.2297 59.8384,-29.0633"/>
</g>
<!-- Node6&#45;&gt;Node3 -->
<g id="edge8" class="edge">
<title>Node6&#45;&gt;Node3</title>
<path fill="none" stroke="#191970" d="M178.4919,-110.7721C154.1128,-100.7809 116.7176,-84.4519 105.4604,-74 91.7398,-61.2608 81.6901,-42.2542 75.5557,-28.1703"/>
<polygon fill="#191970" stroke="#191970" points="78.6479,-26.484 71.6319,-18.5452 72.1659,-29.1266 78.6479,-26.484"/>
</g>
<!-- Node6&#45;&gt;Node4 -->
<g id="edge7" class="edge">
<title>Node6&#45;&gt;Node4</title>
<path fill="none" stroke="#191970" d="M200.2149,-110.4982C199.7293,-92.6913 198.6365,-52.6225 197.9828,-28.6515"/>
<polygon fill="#191970" stroke="#191970" points="201.4808,-28.527 197.7093,-18.6261 194.4834,-28.7179 201.4808,-28.527"/>
</g>
<!-- Node7 -->
<g id="node8" class="node">
<title>Node7</title>
<g id="a_node8"><a xlink:href="vlib_8h.html" target="_top" xlink:title="Contains misc helpful functions. ">
<polygon fill="none" stroke="#000000" points="114.7881,-55.5 114.7881,-73.5 154.1328,-73.5 154.1328,-55.5 114.7881,-55.5"/>
<text text-anchor="middle" x="134.4604" y="-61.5" font-family="Helvetica,sans-Serif" font-size="10.00" fill="#000000">vlib.h</text>
</a>
</g>
</g>
<!-- Node6&#45;&gt;Node7 -->
<g id="edge9" class="edge">
<title>Node6&#45;&gt;Node7</title>
<path fill="none" stroke="#191970" d="M189.5619,-110.4179C179.7805,-102.2667 165.2046,-90.1201 153.5008,-80.3669"/>
<polygon fill="#191970" stroke="#191970" points="155.5187,-77.4926 145.5958,-73.7795 151.0374,-82.8701 155.5187,-77.4926"/>
</g>
<!-- Node7&#45;&gt;Node3 -->
<g id="edge11" class="edge">
<title>Node7&#45;&gt;Node3</title>
<path fill="none" stroke="#191970" d="M123.5619,-55.4179C113.7805,-47.2667 99.2046,-35.1201 87.5008,-25.3669"/>
<polygon fill="#191970" stroke="#191970" points="89.5187,-22.4926 79.5958,-18.7795 85.0374,-27.8701 89.5187,-22.4926"/>
</g>
<!-- Node7&#45;&gt;Node4 -->
<g id="edge10" class="edge">
<title>Node7&#45;&gt;Node4</title>
<path fill="none" stroke="#191970" d="M144.8636,-55.4179C154.2004,-47.2667 168.1138,-35.1201 179.2856,-25.3669"/>
<polygon fill="#191970" stroke="#191970" points="181.5999,-27.9927 186.8313,-18.7795 176.9962,-22.7194 181.5999,-27.9927"/>
</g>
<!-- Node8 -->
<g id="node9" class="node">
<title>Node8</title>
<polygon fill="none" stroke="#bfbfbf" points="110.064,-.5 110.064,-18.5 158.8569,-18.5 158.8569,-.5 110.064,-.5"/>
<text text-anchor="middle" x="134.4604" y="-6.5" font-family="Helvetica,sans-Serif" font-size="10.00" fill="#000000">string.h</text>
</g>
<!-- Node7&#45;&gt;Node8 -->
<g id="edge12" class="edge">
<title>Node7&#45;&gt;Node8</title>
<path fill="none" stroke="#191970" d="M134.4604,-55.4179C134.4604,-48.2164 134.4604,-37.8962 134.4604,-28.8632"/>
<polygon fill="#191970" stroke="#191970" points="137.9605,-28.7794 134.4604,-18.7795 130.9605,-28.7795 137.9605,-28.7794"/>
</g>
</g>
</svg>
