<?xml version="1.0" encoding="UTF-8" standalone="no"?>
<!DOCTYPE svg PUBLIC "-//W3C//DTD SVG 1.1//EN"
 "http://www.w3.org/Graphics/SVG/1.1/DTD/svg11.dtd">
<!-- Generated by graphviz version 2.40.1 (20161225.0304)
 -->
<!-- Title: lower_intake Pages: 1 -->
<svg width="316pt" height="64pt"
 viewBox="0.00 0.00 316.46 64.00" xmlns="http://www.w3.org/2000/svg" xmlns:xlink="http://www.w3.org/1999/xlink">
<g id="graph0" class="graph" transform="scale(1 1) rotate(0) translate(4 60)">
<title>lower_intake</title>
<!-- Node18 -->
<g id="node1" class="node">
<title>Node18</title>
<polygon fill="#bfbfbf" stroke="#000000" points="0,-18.5 0,-36.5 72.1426,-36.5 72.1426,-18.5 0,-18.5"/>
<text text-anchor="middle" x="36.0713" y="-24.5" font-family="Helvetica,sans-Serif" font-size="10.00" fill="#000000">lower_intake</text>
</g>
<!-- Node19 -->
<g id="node2" class="node">
<title>Node19</title>
<g id="a_node2"><a xlink:href="auto_8c.html#a3c7ca506bbc071fa740de13805b7f376" target="_top" xlink:title="Runs the user autonomous code. ">
<polygon fill="none" stroke="#000000" points="112.0391,-37.5 112.0391,-55.5 183.0781,-55.5 183.0781,-37.5 112.0391,-37.5"/>
<text text-anchor="middle" x="147.5586" y="-43.5" font-family="Helvetica,sans-Serif" font-size="10.00" fill="#000000">autonomous</text>
</a>
</g>
</g>
<!-- Node18&#45;&gt;Node19 -->
<g id="edge1" class="edge">
<title>Node18&#45;&gt;Node19</title>
<path fill="none" stroke="#191970" d="M82.359,-35.3885C92.2359,-37.0717 102.5208,-38.8245 111.924,-40.4271"/>
<polygon fill="#191970" stroke="#191970" points="82.7139,-31.8986 72.268,-33.6688 81.5379,-38.7991 82.7139,-31.8986"/>
</g>
<!-- Node20 -->
<g id="node3" class="node">
<title>Node20</title>
<g id="a_node3"><a xlink:href="mobile__goal__intake_8c.html#a5d7bad8a208988af743fd2e68f111286" target="_top" xlink:title="updates the mobile goal intake in teleop. ">
<polygon fill="none" stroke="#000000" points="108.1426,-.5 108.1426,-18.5 186.9746,-18.5 186.9746,-.5 108.1426,-.5"/>
<text text-anchor="middle" x="147.5586" y="-6.5" font-family="Helvetica,sans-Serif" font-size="10.00" fill="#000000">update_intake</text>
</a>
</g>
</g>
<!-- Node18&#45;&gt;Node20 -->
<g id="edge2" class="edge">
<title>Node18&#45;&gt;Node20</title>
<path fill="none" stroke="#191970" d="M82.1719,-20.0569C90.7759,-18.6678 99.6959,-17.2276 108.0783,-15.8742"/>
<polygon fill="#191970" stroke="#191970" points="81.5823,-16.6067 72.268,-21.6559 82.6981,-23.5172 81.5823,-16.6067"/>
</g>
<!-- Node21 -->
<g id="node4" class="node">
<title>Node21</title>
<g id="a_node4"><a xlink:href="opcontrol_8c.html#ac71a94af413917f27d108e95c4d6f6a7" target="_top" xlink:title="Runs the user operator control code. ">
<polygon fill="none" stroke="#000000" points="222.9746,-.5 222.9746,-18.5 308.457,-18.5 308.457,-.5 222.9746,-.5"/>
<text text-anchor="middle" x="265.7158" y="-6.5" font-family="Helvetica,sans-Serif" font-size="10.00" fill="#000000">operatorControl</text>
</a>
</g>
</g>
<!-- Node20&#45;&gt;Node21 -->
<g id="edge3" class="edge">
<title>Node20&#45;&gt;Node21</title>
<path fill="none" stroke="#191970" d="M197.3395,-9.5C205.7704,-9.5 214.4603,-9.5 222.6993,-9.5"/>
<polygon fill="#191970" stroke="#191970" points="197.232,-6.0001 187.2319,-9.5 197.2319,-13.0001 197.232,-6.0001"/>
</g>
</g>
</svg>
