<?xml version="1.0" encoding="UTF-8" standalone="no"?>
<!DOCTYPE svg PUBLIC "-//W3C//DTD SVG 1.1//EN"
 "http://www.w3.org/Graphics/SVG/1.1/DTD/svg11.dtd">
<!-- Generated by graphviz version 2.40.1 (20161225.0304)
 -->
<!-- Title: include/mobile_goal_intake.h Pages: 1 -->
<svg width="234pt" height="92pt"
 viewBox="0.00 0.00 233.54 92.00" xmlns="http://www.w3.org/2000/svg" xmlns:xlink="http://www.w3.org/1999/xlink">
<g id="graph0" class="graph" transform="scale(1 1) rotate(0) translate(4 88)">
<title>include/mobile_goal_intake.h</title>
<!-- Node9 -->
<g id="node1" class="node">
<title>Node9</title>
<polygon fill="#bfbfbf" stroke="#000000" points="71.8325,-55.5 71.8325,-83.5 176.2261,-83.5 176.2261,-55.5 71.8325,-55.5"/>
<text text-anchor="start" x="79.8325" y="-71.5" font-family="Helvetica,sans-Serif" font-size="10.00" fill="#000000">include/mobile_goal</text>
<text text-anchor="middle" x="124.0293" y="-61.5" font-family="Helvetica,sans-Serif" font-size="10.00" fill="#000000">_intake.h</text>
</g>
<!-- Node10 -->
<g id="node2" class="node">
<title>Node10</title>
<g id="a_node2"><a xlink:href="mobile__goal__intake_8c.html" target="_top" xlink:title="src/mobile_goal_intake.c">
<polygon fill="none" stroke="#000000" points="0,-.5 0,-18.5 126.0586,-18.5 126.0586,-.5 0,-.5"/>
<text text-anchor="middle" x="63.0293" y="-6.5" font-family="Helvetica,sans-Serif" font-size="10.00" fill="#000000">src/mobile_goal_intake.c</text>
</a>
</g>
</g>
<!-- Node9&#45;&gt;Node10 -->
<g id="edge1" class="edge">
<title>Node9&#45;&gt;Node10</title>
<path fill="none" stroke="#191970" d="M102.3868,-48.2123C92.0522,-38.0471 80.232,-26.4206 72.2649,-18.5842"/>
<polygon fill="#191970" stroke="#191970" points="99.9895,-50.7637 109.5731,-55.2808 104.8982,-45.7732 99.9895,-50.7637"/>
</g>
<!-- Node11 -->
<g id="node3" class="node">
<title>Node11</title>
<g id="a_node3"><a xlink:href="opcontrol_8c.html" target="_top" xlink:title="File for operator control code. ">
<polygon fill="none" stroke="#000000" points="144.5171,-.5 144.5171,-18.5 225.5415,-18.5 225.5415,-.5 144.5171,-.5"/>
<text text-anchor="middle" x="185.0293" y="-6.5" font-family="Helvetica,sans-Serif" font-size="10.00" fill="#000000">src/opcontrol.c</text>
</a>
</g>
</g>
<!-- Node9&#45;&gt;Node11 -->
<g id="edge2" class="edge">
<title>Node9&#45;&gt;Node11</title>
<path fill="none" stroke="#191970" d="M145.6717,-48.2123C156.0064,-38.0471 167.8266,-26.4206 175.7937,-18.5842"/>
<polygon fill="#191970" stroke="#191970" points="143.1604,-45.7732 138.4854,-55.2808 148.0691,-50.7637 143.1604,-45.7732"/>
</g>
</g>
</svg>
