<?xml version="1.0" encoding="UTF-8" standalone="no"?>
<!DOCTYPE svg PUBLIC "-//W3C//DTD SVG 1.1//EN"
 "http://www.w3.org/Graphics/SVG/1.1/DTD/svg11.dtd">
<!-- Generated by graphviz version 2.40.1 (20161225.0304)
 -->
<!-- Title: set_intake_motor Pages: 1 -->
<svg width="445pt" height="90pt"
 viewBox="0.00 0.00 445.17 90.21" xmlns="http://www.w3.org/2000/svg" xmlns:xlink="http://www.w3.org/1999/xlink">
<g id="graph0" class="graph" transform="scale(1 1) rotate(0) translate(4 86.209)">
<title>set_intake_motor</title>
<!-- Node61 -->
<g id="node1" class="node">
<title>Node61</title>
<polygon fill="#bfbfbf" stroke="#000000" points="0,-31.5398 0,-49.5398 92.709,-49.5398 92.709,-31.5398 0,-31.5398"/>
<text text-anchor="middle" x="46.3545" y="-37.5398" font-family="Helvetica,sans-Serif" font-size="10.00" fill="#000000">set_intake_motor</text>
</g>
<!-- Node62 -->
<g id="node2" class="node">
<title>Node62</title>
<g id="a_node2"><a xlink:href="auto_8c.html#a3c7ca506bbc071fa740de13805b7f376" target="_top" xlink:title="Runs the user autonomous code. ">
<polygon fill="none" stroke="#000000" points="240.748,-50.5398 240.748,-68.5398 311.7871,-68.5398 311.7871,-50.5398 240.748,-50.5398"/>
<text text-anchor="middle" x="276.2676" y="-56.5398" font-family="Helvetica,sans-Serif" font-size="10.00" fill="#000000">autonomous</text>
</a>
</g>
</g>
<!-- Node61&#45;&gt;Node62 -->
<g id="edge1" class="edge">
<title>Node61&#45;&gt;Node62</title>
<path fill="none" stroke="#191970" d="M69.9547,-54.7695C85.9175,-63.538 107.8212,-73.9531 128.709,-78.5398 170.2094,-87.6527 219.3033,-77.2088 249.096,-68.5789"/>
<polygon fill="#191970" stroke="#191970" points="71.2684,-51.4903 60.8454,-49.5895 67.8081,-57.5753 71.2684,-51.4903"/>
</g>
<!-- Node63 -->
<g id="node3" class="node">
<title>Node63</title>
<g id="a_node3"><a xlink:href="mobile__goal__intake_8c.html#aef03134014e51a6a90dd3824f09f4d6c" target="_top" xlink:title="lowers the intake ">
<polygon fill="none" stroke="#000000" points="128.709,-50.5398 128.709,-68.5398 200.8516,-68.5398 200.8516,-50.5398 128.709,-50.5398"/>
<text text-anchor="middle" x="164.7803" y="-56.5398" font-family="Helvetica,sans-Serif" font-size="10.00" fill="#000000">lower_intake</text>
</a>
</g>
</g>
<!-- Node61&#45;&gt;Node63 -->
<g id="edge2" class="edge">
<title>Node61&#45;&gt;Node63</title>
<path fill="none" stroke="#191970" d="M102.7206,-49.583C111.5593,-51.0011 120.4828,-52.4328 128.7008,-53.7512"/>
<polygon fill="#191970" stroke="#191970" points="103.2478,-46.1229 92.8196,-47.9945 102.1389,-53.0345 103.2478,-46.1229"/>
</g>
<!-- Node64 -->
<g id="node4" class="node">
<title>Node64</title>
<g id="a_node4"><a xlink:href="mobile__goal__intake_8c.html#a5d7bad8a208988af743fd2e68f111286" target="_top" xlink:title="updates the mobile goal intake in teleop. ">
<polygon fill="none" stroke="#000000" points="236.8516,-13.5398 236.8516,-31.5398 315.6836,-31.5398 315.6836,-13.5398 236.8516,-13.5398"/>
<text text-anchor="middle" x="276.2676" y="-19.5398" font-family="Helvetica,sans-Serif" font-size="10.00" fill="#000000">update_intake</text>
</a>
</g>
</g>
<!-- Node61&#45;&gt;Node64 -->
<g id="edge9" class="edge">
<title>Node61&#45;&gt;Node64</title>
<path fill="none" stroke="#191970" d="M70.5901,-26.3681C86.52,-17.8957 108.1478,-7.9464 128.709,-3.5398 170.1285,5.3373 219.0373,-4.957 248.8413,-13.5025"/>
<polygon fill="#191970" stroke="#191970" points="68.5406,-23.501 61.4684,-31.3898 71.9166,-29.6332 68.5406,-23.501"/>
</g>
<!-- Node66 -->
<g id="node6" class="node">
<title>Node66</title>
<g id="a_node6"><a xlink:href="mobile__goal__intake_8c.html#aa46a9341d1eb7b39a2ef4cc5079ee3ca" target="_top" xlink:title="raises the intake ">
<polygon fill="none" stroke="#000000" points="129.8198,-13.5398 129.8198,-31.5398 199.7407,-31.5398 199.7407,-13.5398 129.8198,-13.5398"/>
<text text-anchor="middle" x="164.7803" y="-19.5398" font-family="Helvetica,sans-Serif" font-size="10.00" fill="#000000">raise_intake</text>
</a>
</g>
</g>
<!-- Node61&#45;&gt;Node66 -->
<g id="edge6" class="edge">
<title>Node61&#45;&gt;Node66</title>
<path fill="none" stroke="#191970" d="M102.7516,-31.9677C111.9769,-30.5655 121.2935,-29.1495 129.803,-27.8561"/>
<polygon fill="#191970" stroke="#191970" points="102.1801,-28.5143 92.8196,-33.4773 103.232,-35.4348 102.1801,-28.5143"/>
</g>
<!-- Node63&#45;&gt;Node62 -->
<g id="edge3" class="edge">
<title>Node63&#45;&gt;Node62</title>
<path fill="none" stroke="#191970" d="M211.068,-59.5398C220.9449,-59.5398 231.2298,-59.5398 240.633,-59.5398"/>
<polygon fill="#191970" stroke="#191970" points="210.977,-56.0399 200.977,-59.5398 210.977,-63.0399 210.977,-56.0399"/>
</g>
<!-- Node63&#45;&gt;Node64 -->
<g id="edge4" class="edge">
<title>Node63&#45;&gt;Node64</title>
<path fill="none" stroke="#191970" d="M201.7915,-47.2566C217.1702,-42.1528 234.7013,-36.3346 248.8899,-31.6258"/>
<polygon fill="#191970" stroke="#191970" points="200.4417,-44.0168 192.0531,-50.4885 202.6466,-50.6605 200.4417,-44.0168"/>
</g>
<!-- Node65 -->
<g id="node5" class="node">
<title>Node65</title>
<g id="a_node5"><a xlink:href="opcontrol_8c.html#ac71a94af413917f27d108e95c4d6f6a7" target="_top" xlink:title="Runs the user operator control code. ">
<polygon fill="none" stroke="#000000" points="351.6836,-13.5398 351.6836,-31.5398 437.166,-31.5398 437.166,-13.5398 351.6836,-13.5398"/>
<text text-anchor="middle" x="394.4248" y="-19.5398" font-family="Helvetica,sans-Serif" font-size="10.00" fill="#000000">operatorControl</text>
</a>
</g>
</g>
<!-- Node64&#45;&gt;Node65 -->
<g id="edge5" class="edge">
<title>Node64&#45;&gt;Node65</title>
<path fill="none" stroke="#191970" d="M326.0485,-22.5398C334.4793,-22.5398 343.1693,-22.5398 351.4083,-22.5398"/>
<polygon fill="#191970" stroke="#191970" points="325.941,-19.0399 315.9409,-22.5398 325.9409,-26.0399 325.941,-19.0399"/>
</g>
<!-- Node66&#45;&gt;Node62 -->
<g id="edge7" class="edge">
<title>Node66&#45;&gt;Node62</title>
<path fill="none" stroke="#191970" d="M201.7915,-34.8229C217.1702,-39.9267 234.7013,-45.7449 248.8899,-50.4537"/>
<polygon fill="#191970" stroke="#191970" points="202.6466,-31.419 192.0531,-31.591 200.4417,-38.0627 202.6466,-31.419"/>
</g>
<!-- Node66&#45;&gt;Node64 -->
<g id="edge8" class="edge">
<title>Node66&#45;&gt;Node64</title>
<path fill="none" stroke="#191970" d="M209.948,-22.5398C218.8293,-22.5398 228.0823,-22.5398 236.7603,-22.5398"/>
<polygon fill="#191970" stroke="#191970" points="209.7497,-19.0399 199.7497,-22.5398 209.7496,-26.0399 209.7497,-19.0399"/>
</g>
</g>
</svg>
