<?xml version="1.0" encoding="UTF-8" standalone="no"?>
<!DOCTYPE svg PUBLIC "-//W3C//DTD SVG 1.1//EN"
 "http://www.w3.org/Graphics/SVG/1.1/DTD/svg11.dtd">
<!-- Generated by graphviz version 2.40.1 (20161225.0304)
 -->
<!-- Title: lower_intake Pages: 1 -->
<svg width="311pt" height="27pt"
 viewBox="0.00 0.00 311.45 27.00" xmlns="http://www.w3.org/2000/svg" xmlns:xlink="http://www.w3.org/1999/xlink">
<g id="graph0" class="graph" transform="scale(1 1) rotate(0) translate(4 23)">
<title>lower_intake</title>
<!-- Node18 -->
<g id="node1" class="node">
<title>Node18</title>
<polygon fill="#bfbfbf" stroke="#000000" points="0,-.5 0,-18.5 72.1426,-18.5 72.1426,-.5 0,-.5"/>
<text text-anchor="middle" x="36.0713" y="-6.5" font-family="Helvetica,sans-Serif" font-size="10.00" fill="#000000">lower_intake</text>
</g>
<!-- Node19 -->
<g id="node2" class="node">
<title>Node19</title>
<g id="a_node2"><a xlink:href="mobile__goal__intake_8c.html#ad0232c21c5c1ffda603d2b7d61034118" target="_top" xlink:title="updateIntake">
<polygon fill="none" stroke="#000000" points="108.1426,-.5 108.1426,-18.5 181.9697,-18.5 181.9697,-.5 108.1426,-.5"/>
<text text-anchor="middle" x="145.0562" y="-6.5" font-family="Helvetica,sans-Serif" font-size="10.00" fill="#000000">updateIntake</text>
</a>
</g>
</g>
<!-- Node18&#45;&gt;Node19 -->
<g id="edge1" class="edge">
<title>Node18&#45;&gt;Node19</title>
<path fill="none" stroke="#191970" d="M82.4863,-9.5C90.9407,-9.5 99.6605,-9.5 107.807,-9.5"/>
<polygon fill="#191970" stroke="#191970" points="82.3617,-6.0001 72.3617,-9.5 82.3616,-13.0001 82.3617,-6.0001"/>
</g>
<!-- Node20 -->
<g id="node3" class="node">
<title>Node20</title>
<g id="a_node3"><a xlink:href="opcontrol_8c.html#ac71a94af413917f27d108e95c4d6f6a7" target="_top" xlink:title="operatorControl">
<polygon fill="none" stroke="#000000" points="217.9697,-.5 217.9697,-18.5 303.4521,-18.5 303.4521,-.5 217.9697,-.5"/>
<text text-anchor="middle" x="260.7109" y="-6.5" font-family="Helvetica,sans-Serif" font-size="10.00" fill="#000000">operatorControl</text>
</a>
</g>
</g>
<!-- Node19&#45;&gt;Node20 -->
<g id="edge2" class="edge">
<title>Node19&#45;&gt;Node20</title>
<path fill="none" stroke="#191970" d="M192.391,-9.5C200.8422,-9.5 209.6026,-9.5 217.9175,-9.5"/>
<polygon fill="#191970" stroke="#191970" points="192.2867,-6.0001 182.2867,-9.5 192.2866,-13.0001 192.2867,-6.0001"/>
</g>
</g>
</svg>
