<?xml version="1.0" encoding="UTF-8" standalone="no"?>
<!DOCTYPE svg PUBLIC "-//W3C//DTD SVG 1.1//EN"
 "http://www.w3.org/Graphics/SVG/1.1/DTD/svg11.dtd">
<!-- Generated by graphviz version 2.40.1 (20161225.0304)
 -->
<!-- Title: raise_intake Pages: 1 -->
<svg width="779pt" height="316pt"
 viewBox="0.00 0.00 779.00 316.00" xmlns="http://www.w3.org/2000/svg" xmlns:xlink="http://www.w3.org/1999/xlink">
<g id="graph0" class="graph" transform="scale(1 1) rotate(0) translate(4 312)">
<title>raise_intake</title>
<!-- Node22 -->
<g id="node1" class="node">
<title>Node22</title>
<polygon fill="#bfbfbf" stroke="#000000" points="0,-103.5 0,-121.5 69.9209,-121.5 69.9209,-103.5 0,-103.5"/>
<text text-anchor="middle" x="34.9604" y="-109.5" font-family="Helvetica,sans-Serif" font-size="10.00" fill="#000000">raise_intake</text>
</g>
<!-- Node23 -->
<g id="node2" class="node">
<title>Node23</title>
<g id="a_node2"><a xlink:href="mobile__goal__intake_8c.html#ab31e12bb0fa46c77906a048666b699d5" target="_top" xlink:title="sets the intake motor ">
<polygon fill="none" stroke="#000000" points="105.9209,-103.5 105.9209,-121.5 198.6299,-121.5 198.6299,-103.5 105.9209,-103.5"/>
<text text-anchor="middle" x="152.2754" y="-109.5" font-family="Helvetica,sans-Serif" font-size="10.00" fill="#000000">set_intake_motor</text>
</a>
</g>
</g>
<!-- Node22&#45;&gt;Node23 -->
<g id="edge1" class="edge">
<title>Node22&#45;&gt;Node23</title>
<path fill="none" stroke="#191970" d="M70.1588,-112.5C78.2114,-112.5 86.9703,-112.5 95.6689,-112.5"/>
<polygon fill="#191970" stroke="#191970" points="95.8068,-116.0001 105.8068,-112.5 95.8067,-109.0001 95.8068,-116.0001"/>
</g>
<!-- Node24 -->
<g id="node3" class="node">
<title>Node24</title>
<g id="a_node3"><a xlink:href="slew_8h.html#a9f8b8ae577ef938622024545711f0151" target="_top" xlink:title="Sets the motor speed ignoring the slew controller. ">
<polygon fill="none" stroke="#000000" points="234.6299,-103.5 234.6299,-121.5 346.7822,-121.5 346.7822,-103.5 234.6299,-103.5"/>
<text text-anchor="middle" x="290.7061" y="-109.5" font-family="Helvetica,sans-Serif" font-size="10.00" fill="#000000">set_motor_immediate</text>
</a>
</g>
</g>
<!-- Node23&#45;&gt;Node24 -->
<g id="edge2" class="edge">
<title>Node23&#45;&gt;Node24</title>
<path fill="none" stroke="#191970" d="M198.7559,-112.5C206.9983,-112.5 215.7246,-112.5 224.3902,-112.5"/>
<polygon fill="#191970" stroke="#191970" points="224.5024,-116.0001 234.5024,-112.5 224.5023,-109.0001 224.5024,-116.0001"/>
</g>
<!-- Node25 -->
<g id="node4" class="node">
<title>Node25</title>
<g id="a_node4"><a xlink:href="log_8h.html#af3668f40d1ad1b4f3418869ac9a31f34" target="_top" xlink:title="prints a info message ">
<polygon fill="none" stroke="#000000" points="388.0532,-243.5 388.0532,-261.5 431.8608,-261.5 431.8608,-243.5 388.0532,-243.5"/>
<text text-anchor="middle" x="409.957" y="-249.5" font-family="Helvetica,sans-Serif" font-size="10.00" fill="#000000">debug</text>
</a>
</g>
</g>
<!-- Node24&#45;&gt;Node25 -->
<g id="edge3" class="edge">
<title>Node24&#45;&gt;Node25</title>
<path fill="none" stroke="#191970" d="M298.5304,-121.6858C318.2439,-144.8292 370.1833,-205.8059 395.5728,-235.6129"/>
<polygon fill="#191970" stroke="#191970" points="393.11,-238.1193 402.2589,-243.4624 398.4389,-233.5802 393.11,-238.1193"/>
</g>
<!-- Node27 -->
<g id="node6" class="node">
<title>Node27</title>
<g id="a_node6"><a xlink:href="slew_8c.html#a321758941d88b75783955c819bb75005" target="_top" xlink:title="Initializes the slew rate controller. ">
<polygon fill="none" stroke="#000000" points="382.7822,-159.5 382.7822,-177.5 437.1318,-177.5 437.1318,-159.5 382.7822,-159.5"/>
<text text-anchor="middle" x="409.957" y="-165.5" font-family="Helvetica,sans-Serif" font-size="10.00" fill="#000000">init_slew</text>
</a>
</g>
</g>
<!-- Node24&#45;&gt;Node27 -->
<g id="edge5" class="edge">
<title>Node24&#45;&gt;Node27</title>
<path fill="none" stroke="#191970" d="M310.1312,-121.622C329.4481,-130.6932 359.3018,-144.7124 381.333,-155.0582"/>
<polygon fill="#191970" stroke="#191970" points="380.0008,-158.2993 390.5402,-159.3819 382.9763,-151.9631 380.0008,-158.2993"/>
</g>
<!-- Node37 -->
<g id="node16" class="node">
<title>Node37</title>
<g id="a_node16"><a xlink:href="_a_p_i_8h.html#a8b51124628d2a7741738d48551d1e8ee" target="_top" xlink:title="Requests a mutex so that other tasks cannot simultaneously use the resource it guards. ">
<polygon fill="none" stroke="#000000" points="586.2793,-84.5 586.2793,-102.5 650.6338,-102.5 650.6338,-84.5 586.2793,-84.5"/>
<text text-anchor="middle" x="618.4565" y="-90.5" font-family="Helvetica,sans-Serif" font-size="10.00" fill="#000000">mutexTake</text>
</a>
</g>
</g>
<!-- Node24&#45;&gt;Node37 -->
<g id="edge21" class="edge">
<title>Node24&#45;&gt;Node37</title>
<path fill="none" stroke="#191970" d="M347.0484,-109.2338C412.1405,-105.4603 517.7582,-99.3376 576.1946,-95.95"/>
<polygon fill="#191970" stroke="#191970" points="576.4105,-99.4434 586.1911,-95.3705 576.0053,-92.4552 576.4105,-99.4434"/>
</g>
<!-- Node38 -->
<g id="node17" class="node">
<title>Node38</title>
<g id="a_node17"><a xlink:href="_a_p_i_8h.html#afe171a08d22de18fc2ab604b2364959f" target="_top" xlink:title="Relinquishes a mutex so that other tasks can use the resource it guards. ">
<polygon fill="none" stroke="#000000" points="586.5601,-37.5 586.5601,-55.5 650.353,-55.5 650.353,-37.5 586.5601,-37.5"/>
<text text-anchor="middle" x="618.4565" y="-43.5" font-family="Helvetica,sans-Serif" font-size="10.00" fill="#000000">mutexGive</text>
</a>
</g>
</g>
<!-- Node24&#45;&gt;Node38 -->
<g id="edge20" class="edge">
<title>Node24&#45;&gt;Node38</title>
<path fill="none" stroke="#191970" d="M313.8906,-103.4974C348.1288,-90.6385 414.4969,-67.3681 473.1318,-56.5 507.4587,-50.1374 547.0227,-47.729 576.1939,-46.8603"/>
<polygon fill="#191970" stroke="#191970" points="576.5321,-50.3531 586.442,-46.6055 576.358,-43.3552 576.5321,-50.3531"/>
</g>
<!-- Node39 -->
<g id="node18" class="node">
<title>Node39</title>
<g id="a_node18"><a xlink:href="_a_p_i_8h.html#a03c5b04b472d024281f62d7af8854a8e" target="_top" xlink:title="Sets the speed of the specified motor channel. ">
<polygon fill="none" stroke="#000000" points="590.1709,-.5 590.1709,-18.5 646.7422,-18.5 646.7422,-.5 590.1709,-.5"/>
<text text-anchor="middle" x="618.4565" y="-6.5" font-family="Helvetica,sans-Serif" font-size="10.00" fill="#000000">motorSet</text>
</a>
</g>
</g>
<!-- Node24&#45;&gt;Node39 -->
<g id="edge19" class="edge">
<title>Node24&#45;&gt;Node39</title>
<path fill="none" stroke="#191970" d="M303.4735,-103.4062C320.6796,-91.5708 352.6385,-71.0419 382.7822,-59.5 449.6008,-33.9154 532.3519,-20.1973 579.9078,-13.9107"/>
<polygon fill="#191970" stroke="#191970" points="580.597,-17.3512 590.0717,-12.61 579.7083,-10.4078 580.597,-17.3512"/>
</g>
<!-- Node26 -->
<g id="node5" class="node">
<title>Node26</title>
<g id="a_node5"><a xlink:href="_a_p_i_8h.html#a403c82418e475fa4a8273719e6a7f3e6" target="_top" xlink:title="Prints the formatted string to the debug stream (the PC terminal). ">
<polygon fill="none" stroke="#000000" points="709.7026,-289.5 709.7026,-307.5 747.9341,-307.5 747.9341,-289.5 709.7026,-289.5"/>
<text text-anchor="middle" x="728.8184" y="-295.5" font-family="Helvetica,sans-Serif" font-size="10.00" fill="#000000">printf</text>
</a>
</g>
</g>
<!-- Node25&#45;&gt;Node26 -->
<g id="edge4" class="edge">
<title>Node25&#45;&gt;Node26</title>
<path fill="none" stroke="#191970" d="M426.2861,-261.6303C438.7222,-268.1082 456.4834,-276.3598 473.1318,-280.5 553.2274,-300.4185 651.4749,-300.9233 699.5297,-299.6896"/>
<polygon fill="#191970" stroke="#191970" points="699.6521,-303.1876 709.542,-299.3875 699.441,-296.1908 699.6521,-303.1876"/>
</g>
<!-- Node28 -->
<g id="node7" class="node">
<title>Node28</title>
<g id="a_node7"><a xlink:href="log_8h.html#a0bec2cf5fff7f607bc510b74aba9887c" target="_top" xlink:title="prints a warning message and displays on lcd. ">
<polygon fill="none" stroke="#000000" points="486.1958,-215.5 486.1958,-233.5 537.2153,-233.5 537.2153,-215.5 486.1958,-215.5"/>
<text text-anchor="middle" x="511.7056" y="-221.5" font-family="Helvetica,sans-Serif" font-size="10.00" fill="#000000">warning</text>
</a>
</g>
</g>
<!-- Node27&#45;&gt;Node28 -->
<g id="edge6" class="edge">
<title>Node27&#45;&gt;Node28</title>
<path fill="none" stroke="#191970" d="M424.2614,-177.6936C436.9064,-185.6774 455.9578,-197.3602 473.1318,-206.5 476.0023,-208.0276 479.0255,-209.5619 482.0642,-211.0553"/>
<polygon fill="#191970" stroke="#191970" points="480.5574,-214.2143 491.0895,-215.3659 483.5743,-207.8978 480.5574,-214.2143"/>
</g>
<!-- Node33 -->
<g id="node12" class="node">
<title>Node33</title>
<g id="a_node12"><a xlink:href="_a_p_i_8h.html#a8966c541f3e9565aea1289f0d2f2cf43" target="_top" xlink:title="Stops all motors; significantly faster than looping through all motor ports and calling motorSet(chan...">
<polygon fill="none" stroke="#000000" points="475.0825,-178.5 475.0825,-196.5 548.3286,-196.5 548.3286,-178.5 475.0825,-178.5"/>
<text text-anchor="middle" x="511.7056" y="-184.5" font-family="Helvetica,sans-Serif" font-size="10.00" fill="#000000">motorStopAll</text>
</a>
</g>
</g>
<!-- Node27&#45;&gt;Node33 -->
<g id="edge12" class="edge">
<title>Node27&#45;&gt;Node33</title>
<path fill="none" stroke="#191970" d="M437.2238,-173.5917C445.6967,-175.1738 455.2922,-176.9657 464.7095,-178.7242"/>
<polygon fill="#191970" stroke="#191970" points="464.3241,-182.2127 474.7967,-180.6078 465.6091,-175.3316 464.3241,-182.2127"/>
</g>
<!-- Node34 -->
<g id="node13" class="node">
<title>Node34</title>
<g id="a_node13"><a xlink:href="_a_p_i_8h.html#aecd027ce8f8b52a765735e9eb5b202b3" target="_top" xlink:title="Creates a mutex intended to allow only one task to use a resource at a time. ">
<polygon fill="none" stroke="#000000" points="475.0825,-141.5 475.0825,-159.5 548.3286,-159.5 548.3286,-141.5 475.0825,-141.5"/>
<text text-anchor="middle" x="511.7056" y="-147.5" font-family="Helvetica,sans-Serif" font-size="10.00" fill="#000000">mutexCreate</text>
</a>
</g>
</g>
<!-- Node27&#45;&gt;Node34 -->
<g id="edge13" class="edge">
<title>Node27&#45;&gt;Node34</title>
<path fill="none" stroke="#191970" d="M437.2238,-163.6763C445.6967,-162.1774 455.2922,-160.4799 464.7095,-158.8139"/>
<polygon fill="#191970" stroke="#191970" points="465.5593,-162.218 474.7967,-157.0294 464.3398,-155.325 465.5593,-162.218"/>
</g>
<!-- Node35 -->
<g id="node14" class="node">
<title>Node35</title>
<g id="a_node14"><a xlink:href="_a_p_i_8h.html#ab05a241d6d1fd98b1ceb4665db678156" target="_top" xlink:title="Starts a task which will periodically call the specified function. ">
<polygon fill="none" stroke="#000000" points="474.2402,-252.5 474.2402,-270.5 549.1709,-270.5 549.1709,-252.5 474.2402,-252.5"/>
<text text-anchor="middle" x="511.7056" y="-258.5" font-family="Helvetica,sans-Serif" font-size="10.00" fill="#000000">taskRunLoop</text>
</a>
</g>
</g>
<!-- Node27&#45;&gt;Node35 -->
<g id="edge14" class="edge">
<title>Node27&#45;&gt;Node35</title>
<path fill="none" stroke="#191970" d="M415.9058,-177.9368C426.0351,-193.3771 447.9941,-224.2435 473.1318,-243.5 474.9431,-244.8875 476.8786,-246.2022 478.882,-247.4414"/>
<polygon fill="#191970" stroke="#191970" points="477.4715,-250.6591 487.9251,-252.383 480.8282,-244.5164 477.4715,-250.6591"/>
</g>
<!-- Node36 -->
<g id="node15" class="node">
<title>Node36</title>
<g id="a_node15"><a xlink:href="slew_8c.html#a807a87c5df438fde21c1e8213906695b" target="_top" xlink:title="Closes the distance between the desired motor value and the current motor value by half for each moto...">
<polygon fill="none" stroke="#000000" points="473.1318,-65.5 473.1318,-83.5 550.2793,-83.5 550.2793,-65.5 473.1318,-65.5"/>
<text text-anchor="middle" x="511.7056" y="-71.5" font-family="Helvetica,sans-Serif" font-size="10.00" fill="#000000">updateMotors</text>
</a>
</g>
</g>
<!-- Node27&#45;&gt;Node36 -->
<g id="edge15" class="edge">
<title>Node27&#45;&gt;Node36</title>
<path fill="none" stroke="#191970" d="M419.7131,-159.4869C436.9142,-143.5957 472.8465,-110.3998 494.3596,-90.525"/>
<polygon fill="#191970" stroke="#191970" points="496.8593,-92.9807 501.8295,-83.6239 492.1092,-87.839 496.8593,-92.9807"/>
</g>
<!-- Node29 -->
<g id="node8" class="node">
<title>Node29</title>
<g id="a_node8"><a xlink:href="log_8c.html#afff22aff6749311a684a559cac3ac8bd" target="_top" xlink:title="prints a log info message to the lcd ">
<polygon fill="none" stroke="#000000" points="592.9419,-215.5 592.9419,-233.5 643.9712,-233.5 643.9712,-215.5 592.9419,-215.5"/>
<text text-anchor="middle" x="618.4565" y="-221.5" font-family="Helvetica,sans-Serif" font-size="10.00" fill="#000000">log_info</text>
</a>
</g>
</g>
<!-- Node28&#45;&gt;Node29 -->
<g id="edge7" class="edge">
<title>Node28&#45;&gt;Node29</title>
<path fill="none" stroke="#191970" d="M537.2751,-224.5C550.7758,-224.5 567.5694,-224.5 582.3733,-224.5"/>
<polygon fill="#191970" stroke="#191970" points="582.7257,-228.0001 592.7257,-224.5 582.7256,-221.0001 582.7257,-228.0001"/>
</g>
<!-- Node29&#45;&gt;Node26 -->
<g id="edge11" class="edge">
<title>Node29&#45;&gt;Node26</title>
<path fill="none" stroke="#191970" d="M627.9473,-233.7998C640.5414,-245.7709 663.8494,-266.6722 686.6338,-280.5 690.8371,-283.051 695.4671,-285.4186 700.0733,-287.5429"/>
<polygon fill="#191970" stroke="#191970" points="698.782,-290.7976 709.3506,-291.5424 701.5532,-284.3695 698.782,-290.7976"/>
</g>
<!-- Node30 -->
<g id="node9" class="node">
<title>Node30</title>
<g id="a_node9"><a xlink:href="_a_p_i_8h.html#a5fa1d119fe3e836b5519f97eae7a1272" target="_top" xlink:title="Clears the LCD screen on the specified port. ">
<polygon fill="none" stroke="#000000" points="702.4785,-252.5 702.4785,-270.5 755.1582,-270.5 755.1582,-252.5 702.4785,-252.5"/>
<text text-anchor="middle" x="728.8184" y="-258.5" font-family="Helvetica,sans-Serif" font-size="10.00" fill="#000000">lcdClear</text>
</a>
</g>
</g>
<!-- Node29&#45;&gt;Node30 -->
<g id="edge8" class="edge">
<title>Node29&#45;&gt;Node30</title>
<path fill="none" stroke="#191970" d="M644.0532,-233.0815C658.5016,-237.9255 676.7919,-244.0576 692.6812,-249.3846"/>
<polygon fill="#191970" stroke="#191970" points="691.6144,-252.7184 702.2084,-252.5787 693.8396,-246.0815 691.6144,-252.7184"/>
</g>
<!-- Node31 -->
<g id="node10" class="node">
<title>Node31</title>
<g id="a_node10"><a xlink:href="_a_p_i_8h.html#a6cfad8271c6a566a2f51ca318f819a80" target="_top" xlink:title="Prints the formatted string to the attached LCD. ">
<polygon fill="none" stroke="#000000" points="704.146,-215.5 704.146,-233.5 753.4907,-233.5 753.4907,-215.5 704.146,-215.5"/>
<text text-anchor="middle" x="728.8184" y="-221.5" font-family="Helvetica,sans-Serif" font-size="10.00" fill="#000000">lcdPrint</text>
</a>
</g>
</g>
<!-- Node29&#45;&gt;Node31 -->
<g id="edge9" class="edge">
<title>Node29&#45;&gt;Node31</title>
<path fill="none" stroke="#191970" d="M644.0532,-224.5C658.8876,-224.5 677.7721,-224.5 693.9495,-224.5"/>
<polygon fill="#191970" stroke="#191970" points="694.1198,-228.0001 704.1197,-224.5 694.1197,-221.0001 694.1198,-228.0001"/>
</g>
<!-- Node32 -->
<g id="node11" class="node">
<title>Node32</title>
<g id="a_node11"><a xlink:href="_a_p_i_8h.html#aab53a247d88151a6623c20fa1ea940b0" target="_top" xlink:title="Sets the specified LCD backlight to be on or off. ">
<polygon fill="none" stroke="#000000" points="686.6338,-178.5 686.6338,-196.5 771.0029,-196.5 771.0029,-178.5 686.6338,-178.5"/>
<text text-anchor="middle" x="728.8184" y="-184.5" font-family="Helvetica,sans-Serif" font-size="10.00" fill="#000000">lcdSetBacklight</text>
</a>
</g>
</g>
<!-- Node29&#45;&gt;Node32 -->
<g id="edge10" class="edge">
<title>Node29&#45;&gt;Node32</title>
<path fill="none" stroke="#191970" d="M644.0532,-215.9185C658.3961,-211.1098 676.5251,-205.0319 692.3329,-199.7322"/>
<polygon fill="#191970" stroke="#191970" points="693.4521,-203.0485 701.8208,-196.5512 691.2269,-196.4115 693.4521,-203.0485"/>
</g>
<!-- Node36&#45;&gt;Node37 -->
<g id="edge16" class="edge">
<title>Node36&#45;&gt;Node37</title>
<path fill="none" stroke="#191970" d="M550.5471,-81.4132C558.854,-82.8917 567.6694,-84.4607 576.1011,-85.9614"/>
<polygon fill="#191970" stroke="#191970" points="575.6772,-89.4409 586.1358,-87.7474 576.9038,-82.5492 575.6772,-89.4409"/>
</g>
<!-- Node36&#45;&gt;Node38 -->
<g id="edge17" class="edge">
<title>Node36&#45;&gt;Node38</title>
<path fill="none" stroke="#191970" d="M546.0699,-65.4865C555.761,-62.9446 566.414,-60.1504 576.4968,-57.5057"/>
<polygon fill="#191970" stroke="#191970" points="577.548,-60.8485 586.3327,-54.9258 575.7719,-54.0775 577.548,-60.8485"/>
</g>
<!-- Node36&#45;&gt;Node39 -->
<g id="edge18" class="edge">
<title>Node36&#45;&gt;Node39</title>
<path fill="none" stroke="#191970" d="M525.59,-65.4439C540.4658,-55.8134 564.8352,-40.2437 586.2793,-27.5 588.2912,-26.3044 590.3848,-25.0831 592.4957,-23.8679"/>
<polygon fill="#191970" stroke="#191970" points="594.684,-26.6509 601.6609,-18.6776 591.2346,-20.5598 594.684,-26.6509"/>
</g>
</g>
</svg>
