<?xml version="1.0" encoding="UTF-8" standalone="no"?>
<!DOCTYPE svg PUBLIC "-//W3C//DTD SVG 1.1//EN"
 "http://www.w3.org/Graphics/SVG/1.1/DTD/svg11.dtd">
<!-- Generated by graphviz version 2.40.1 (20161225.0304)
 -->
<!-- Title: updateIntake Pages: 1 -->
<svg width="757pt" height="157pt"
 viewBox="0.00 0.00 757.36 157.00" xmlns="http://www.w3.org/2000/svg" xmlns:xlink="http://www.w3.org/1999/xlink">
<g id="graph0" class="graph" transform="scale(1 1) rotate(0) translate(4 153)">
<title>updateIntake</title>
<!-- Node0 -->
<g id="node1" class="node">
<title>Node0</title>
<polygon fill="#bfbfbf" stroke="#000000" points="0,-74.5 0,-92.5 73.8271,-92.5 73.8271,-74.5 0,-74.5"/>
<text text-anchor="middle" x="36.9136" y="-80.5" font-family="Helvetica,sans-Serif" font-size="10.00" fill="#000000">updateIntake</text>
</g>
<!-- Node1 -->
<g id="node2" class="node">
<title>Node1</title>
<g id="a_node2"><a xlink:href="$partner_8h.html#aacc86d07e59d3b919f5c5eae2ce5d404" xlink:title="get_mode">
<polygon fill="none" stroke="#000000" points="115.6597,-130.5 115.6597,-148.5 176.1372,-148.5 176.1372,-130.5 115.6597,-130.5"/>
<text text-anchor="middle" x="145.8984" y="-136.5" font-family="Helvetica,sans-Serif" font-size="10.00" fill="#000000">get_mode</text>
</a>
</g>
</g>
<!-- Node0&#45;&gt;Node1 -->
<g id="edge1" class="edge">
<title>Node0&#45;&gt;Node1</title>
<path fill="none" stroke="#191970" d="M54.2532,-92.646C68.9985,-100.3973 90.753,-111.7714 109.8271,-121.5 112.6055,-122.9171 115.5095,-124.3862 118.4114,-125.8463"/>
<polygon fill="#191970" stroke="#191970" points="117.0078,-129.0578 127.5167,-130.4052 120.1418,-122.7985 117.0078,-129.0578"/>
</g>
<!-- Node2 -->
<g id="node3" class="node">
<title>Node2</title>
<g id="a_node3"><a xlink:href="$mobile__goal__intake_8c.html#afa91470a9891e48827fd62d18553c6ce" xlink:title="lower_intake">
<polygon fill="none" stroke="#000000" points="109.8271,-93.5 109.8271,-111.5 181.9697,-111.5 181.9697,-93.5 109.8271,-93.5"/>
<text text-anchor="middle" x="145.8984" y="-99.5" font-family="Helvetica,sans-Serif" font-size="10.00" fill="#000000">lower_intake</text>
</a>
</g>
</g>
<!-- Node0&#45;&gt;Node2 -->
<g id="edge2" class="edge">
<title>Node0&#45;&gt;Node2</title>
<path fill="none" stroke="#191970" d="M74.1152,-89.9856C82.3589,-91.4228 91.1916,-92.9626 99.7437,-94.4536"/>
<polygon fill="#191970" stroke="#191970" points="99.1496,-97.9027 109.6021,-96.1722 100.3519,-91.0067 99.1496,-97.9027"/>
</g>
<!-- Node3 -->
<g id="node4" class="node">
<title>Node3</title>
<g id="a_node4"><a xlink:href="$mobile__goal__intake_8c.html#a8f215023832ba515d7b4535e3ae07498" xlink:title="set_intake_motor">
<polygon fill="none" stroke="#000000" points="217.9697,-55.5 217.9697,-73.5 310.6787,-73.5 310.6787,-55.5 217.9697,-55.5"/>
<text text-anchor="middle" x="264.3242" y="-61.5" font-family="Helvetica,sans-Serif" font-size="10.00" fill="#000000">set_intake_motor</text>
</a>
</g>
</g>
<!-- Node0&#45;&gt;Node3 -->
<g id="edge13" class="edge">
<title>Node0&#45;&gt;Node3</title>
<path fill="none" stroke="#191970" d="M73.9572,-80.405C110.2339,-77.3741 165.9975,-72.7151 207.8105,-69.2217"/>
<polygon fill="#191970" stroke="#191970" points="208.1762,-72.7034 217.85,-68.3829 207.5933,-65.7277 208.1762,-72.7034"/>
</g>
<!-- Node11 -->
<g id="node12" class="node">
<title>Node11</title>
<g id="a_node12"><a xlink:href="$mobile__goal__intake_8c.html#a4899f9a8621015313e6312ce085da979" xlink:title="raise_intake">
<polygon fill="none" stroke="#000000" points="110.938,-17.5 110.938,-35.5 180.8589,-35.5 180.8589,-17.5 110.938,-17.5"/>
<text text-anchor="middle" x="145.8984" y="-23.5" font-family="Helvetica,sans-Serif" font-size="10.00" fill="#000000">raise_intake</text>
</a>
</g>
</g>
<!-- Node0&#45;&gt;Node11 -->
<g id="edge11" class="edge">
<title>Node0&#45;&gt;Node11</title>
<path fill="none" stroke="#191970" d="M54.4239,-74.342C71.9811,-65.1594 99.2363,-50.9047 119.4333,-40.3415"/>
<polygon fill="#191970" stroke="#191970" points="121.1924,-43.3713 128.4316,-35.6353 117.9483,-37.1684 121.1924,-43.3713"/>
</g>
<!-- Node2&#45;&gt;Node3 -->
<g id="edge3" class="edge">
<title>Node2&#45;&gt;Node3</title>
<path fill="none" stroke="#191970" d="M173.9637,-93.4945C189.6302,-88.4675 209.3634,-82.1356 226.3894,-76.6724"/>
<polygon fill="#191970" stroke="#191970" points="227.5976,-79.9605 236.05,-73.5725 225.4588,-73.2953 227.5976,-79.9605"/>
</g>
<!-- Node4 -->
<g id="node5" class="node">
<title>Node4</title>
<g id="a_node5"><a xlink:href="$slew_8h.html#a9f8b8ae577ef938622024545711f0151" xlink:title="Sets the motor speed ignoring the slew controller. ">
<polygon fill="none" stroke="#000000" points="346.6787,-55.5 346.6787,-73.5 458.8311,-73.5 458.8311,-55.5 346.6787,-55.5"/>
<text text-anchor="middle" x="402.7549" y="-61.5" font-family="Helvetica,sans-Serif" font-size="10.00" fill="#000000">set_motor_immediate</text>
</a>
</g>
</g>
<!-- Node3&#45;&gt;Node4 -->
<g id="edge4" class="edge">
<title>Node3&#45;&gt;Node4</title>
<path fill="none" stroke="#191970" d="M310.8047,-64.5C319.0471,-64.5 327.7734,-64.5 336.439,-64.5"/>
<polygon fill="#191970" stroke="#191970" points="336.5512,-68.0001 346.5512,-64.5 336.5511,-61.0001 336.5512,-68.0001"/>
</g>
<!-- Node5 -->
<g id="node6" class="node">
<title>Node5</title>
<g id="a_node6"><a xlink:href="$log_8h.html#af3668f40d1ad1b4f3418869ac9a31f34" xlink:title="prints a info message ">
<polygon fill="none" stroke="#000000" points="500.1021,-74.5 500.1021,-92.5 543.9097,-92.5 543.9097,-74.5 500.1021,-74.5"/>
<text text-anchor="middle" x="522.0059" y="-80.5" font-family="Helvetica,sans-Serif" font-size="10.00" fill="#000000">debug</text>
</a>
</g>
</g>
<!-- Node4&#45;&gt;Node5 -->
<g id="edge5" class="edge">
<title>Node4&#45;&gt;Node5</title>
<path fill="none" stroke="#191970" d="M458.8885,-73.4436C469.6245,-75.1542 480.512,-76.8889 490.1523,-78.4248"/>
<polygon fill="#191970" stroke="#191970" points="489.6313,-81.8859 500.0574,-80.003 490.7327,-74.9731 489.6313,-81.8859"/>
</g>
<!-- Node6 -->
<g id="node7" class="node">
<title>Node6</title>
<g id="a_node7"><a xlink:href="$slew_8c.html#a321758941d88b75783955c819bb75005" xlink:title="Initializes the slew rate controller. ">
<polygon fill="none" stroke="#000000" points="494.8311,-37.5 494.8311,-55.5 549.1807,-55.5 549.1807,-37.5 494.8311,-37.5"/>
<text text-anchor="middle" x="522.0059" y="-43.5" font-family="Helvetica,sans-Serif" font-size="10.00" fill="#000000">init_slew</text>
</a>
</g>
</g>
<!-- Node4&#45;&gt;Node6 -->
<g id="edge6" class="edge">
<title>Node4&#45;&gt;Node6</title>
<path fill="none" stroke="#191970" d="M458.8885,-56.0271C467.6385,-54.7063 476.4892,-53.3704 484.6833,-52.1336"/>
<polygon fill="#191970" stroke="#191970" points="485.2887,-55.5819 494.6543,-50.6285 484.2439,-48.6603 485.2887,-55.5819"/>
</g>
<!-- Node7 -->
<g id="node8" class="node">
<title>Node7</title>
<g id="a_node8"><a xlink:href="$log_8h.html#a0bec2cf5fff7f607bc510b74aba9887c" xlink:title="prints a warning message and displays on lcd. Only will print and display if log_level is greater tha...">
<polygon fill="none" stroke="#000000" points="598.2446,-74.5 598.2446,-92.5 649.2642,-92.5 649.2642,-74.5 598.2446,-74.5"/>
<text text-anchor="middle" x="623.7544" y="-80.5" font-family="Helvetica,sans-Serif" font-size="10.00" fill="#000000">warning</text>
</a>
</g>
</g>
<!-- Node6&#45;&gt;Node7 -->
<g id="edge7" class="edge">
<title>Node6&#45;&gt;Node7</title>
<path fill="none" stroke="#191970" d="M546.8964,-55.5512C559.5841,-60.165 575.2191,-65.8506 589.0677,-70.8865"/>
<polygon fill="#191970" stroke="#191970" points="588.1742,-74.2857 598.7682,-74.414 590.5664,-67.7072 588.1742,-74.2857"/>
</g>
<!-- Node9 -->
<g id="node10" class="node">
<title>Node9</title>
<g id="a_node10"><a xlink:href="$log_8h.html#a1606d750e1bb8de9f9e917172bba3382" xlink:title="prints a info message ">
<polygon fill="none" stroke="#000000" points="607.6929,-37.5 607.6929,-55.5 639.8159,-55.5 639.8159,-37.5 607.6929,-37.5"/>
<text text-anchor="middle" x="623.7544" y="-43.5" font-family="Helvetica,sans-Serif" font-size="10.00" fill="#000000">info</text>
</a>
</g>
</g>
<!-- Node6&#45;&gt;Node9 -->
<g id="edge9" class="edge">
<title>Node6&#45;&gt;Node9</title>
<path fill="none" stroke="#191970" d="M549.2726,-46.5C564.241,-46.5 582.7128,-46.5 597.516,-46.5"/>
<polygon fill="#191970" stroke="#191970" points="597.5442,-50.0001 607.5442,-46.5 597.5441,-43.0001 597.5442,-50.0001"/>
</g>
<!-- Node10 -->
<g id="node11" class="node">
<title>Node10</title>
<g id="a_node11"><a xlink:href="$slew_8c.html#a807a87c5df438fde21c1e8213906695b" xlink:title="Closes the distance between the desired motor value and the current motor value by half for each moto...">
<polygon fill="none" stroke="#000000" points="585.1807,-.5 585.1807,-18.5 662.3281,-18.5 662.3281,-.5 585.1807,-.5"/>
<text text-anchor="middle" x="623.7544" y="-6.5" font-family="Helvetica,sans-Serif" font-size="10.00" fill="#000000">updateMotors</text>
</a>
</g>
</g>
<!-- Node6&#45;&gt;Node10 -->
<g id="edge10" class="edge">
<title>Node6&#45;&gt;Node10</title>
<path fill="none" stroke="#191970" d="M546.8964,-37.4488C559.5841,-32.835 575.2191,-27.1494 589.0677,-22.1135"/>
<polygon fill="#191970" stroke="#191970" points="590.5664,-25.2928 598.7682,-18.586 588.1742,-18.7143 590.5664,-25.2928"/>
</g>
<!-- Node8 -->
<g id="node9" class="node">
<title>Node8</title>
<g id="a_node9"><a xlink:href="$log_8c.html#afff22aff6749311a684a559cac3ac8bd" xlink:title="log_info">
<polygon fill="none" stroke="#000000" points="698.3281,-74.5 698.3281,-92.5 749.3574,-92.5 749.3574,-74.5 698.3281,-74.5"/>
<text text-anchor="middle" x="723.8428" y="-80.5" font-family="Helvetica,sans-Serif" font-size="10.00" fill="#000000">log_info</text>
</a>
</g>
</g>
<!-- Node7&#45;&gt;Node8 -->
<g id="edge8" class="edge">
<title>Node7&#45;&gt;Node8</title>
<path fill="none" stroke="#191970" d="M649.2699,-83.5C660.9439,-83.5 674.9837,-83.5 687.7174,-83.5"/>
<polygon fill="#191970" stroke="#191970" points="688.0259,-87.0001 698.0259,-83.5 688.0258,-80.0001 688.0259,-87.0001"/>
</g>
<!-- Node11&#45;&gt;Node3 -->
<g id="edge12" class="edge">
<title>Node11&#45;&gt;Node3</title>
<path fill="none" stroke="#191970" d="M173.9637,-35.5055C189.6302,-40.5325 209.3634,-46.8644 226.3894,-52.3276"/>
<polygon fill="#191970" stroke="#191970" points="225.4588,-55.7047 236.05,-55.4275 227.5976,-49.0395 225.4588,-55.7047"/>
</g>
</g>
</svg>
