<?xml version="1.0" encoding="UTF-8" standalone="no"?>
<!DOCTYPE svg PUBLIC "-//W3C//DTD SVG 1.1//EN"
 "http://www.w3.org/Graphics/SVG/1.1/DTD/svg11.dtd">
<!-- Generated by graphviz version 2.40.1 (20161225.0304)
 -->
<!-- Title: lower_intake Pages: 1 -->
<svg width="781pt" height="347pt"
 viewBox="0.00 0.00 781.22 347.13" xmlns="http://www.w3.org/2000/svg" xmlns:xlink="http://www.w3.org/1999/xlink">
<g id="graph0" class="graph" transform="scale(1 1) rotate(0) translate(4 343.1309)">
<title>lower_intake</title>
<!-- Node0 -->
<g id="node1" class="node">
<title>Node0</title>
<polygon fill="#bfbfbf" stroke="#000000" points="0,-150.6309 0,-168.6309 72.1426,-168.6309 72.1426,-150.6309 0,-150.6309"/>
<text text-anchor="middle" x="36.0713" y="-156.6309" font-family="Helvetica,sans-Serif" font-size="10.00" fill="#000000">lower_intake</text>
</g>
<!-- Node1 -->
<g id="node2" class="node">
<title>Node1</title>
<g id="a_node2"><a xlink:href="mobile__goal__intake_8c.html#a8f215023832ba515d7b4535e3ae07498" target="_top" xlink:title="set_intake_motor">
<polygon fill="none" stroke="#000000" points="108.1426,-150.6309 108.1426,-168.6309 200.8516,-168.6309 200.8516,-150.6309 108.1426,-150.6309"/>
<text text-anchor="middle" x="154.4971" y="-156.6309" font-family="Helvetica,sans-Serif" font-size="10.00" fill="#000000">set_intake_motor</text>
</a>
</g>
</g>
<!-- Node0&#45;&gt;Node1 -->
<g id="edge1" class="edge">
<title>Node0&#45;&gt;Node1</title>
<path fill="none" stroke="#191970" d="M72.2464,-159.6309C80.3622,-159.6309 89.162,-159.6309 97.8864,-159.6309"/>
<polygon fill="#191970" stroke="#191970" points="98.0479,-163.131 108.0479,-159.6309 98.0479,-156.131 98.0479,-163.131"/>
</g>
<!-- Node2 -->
<g id="node3" class="node">
<title>Node2</title>
<g id="a_node3"><a xlink:href="slew_8h.html#a9f8b8ae577ef938622024545711f0151" target="_top" xlink:title="set_motor_immediate">
<polygon fill="none" stroke="#000000" points="236.8516,-150.6309 236.8516,-168.6309 349.0039,-168.6309 349.0039,-150.6309 236.8516,-150.6309"/>
<text text-anchor="middle" x="292.9277" y="-156.6309" font-family="Helvetica,sans-Serif" font-size="10.00" fill="#000000">set_motor_immediate</text>
</a>
</g>
</g>
<!-- Node1&#45;&gt;Node2 -->
<g id="edge2" class="edge">
<title>Node1&#45;&gt;Node2</title>
<path fill="none" stroke="#191970" d="M200.9776,-159.6309C209.22,-159.6309 217.9463,-159.6309 226.6119,-159.6309"/>
<polygon fill="#191970" stroke="#191970" points="226.7241,-163.131 236.724,-159.6309 226.724,-156.131 226.7241,-163.131"/>
</g>
<!-- Node3 -->
<g id="node4" class="node">
<title>Node3</title>
<g id="a_node4"><a xlink:href="log_8h.html#af3668f40d1ad1b4f3418869ac9a31f34" target="_top" xlink:title="prints a info message ">
<polygon fill="none" stroke="#000000" points="390.2749,-320.6309 390.2749,-338.6309 434.0825,-338.6309 434.0825,-320.6309 390.2749,-320.6309"/>
<text text-anchor="middle" x="412.1787" y="-326.6309" font-family="Helvetica,sans-Serif" font-size="10.00" fill="#000000">debug</text>
</a>
</g>
</g>
<!-- Node2&#45;&gt;Node3 -->
<g id="edge3" class="edge">
<title>Node2&#45;&gt;Node3</title>
<path fill="none" stroke="#191970" d="M297.5148,-168.7833C309.7557,-192.7274 344.9992,-258.6156 385.0039,-305.6309 387.2882,-308.3155 389.8734,-310.974 392.5186,-313.4894"/>
<polygon fill="#191970" stroke="#191970" points="390.594,-316.4614 400.3934,-320.4891 395.2446,-311.2295 390.594,-316.4614"/>
</g>
<!-- Node5 -->
<g id="node6" class="node">
<title>Node5</title>
<g id="a_node6"><a xlink:href="slew_8c.html#a321758941d88b75783955c819bb75005" target="_top" xlink:title="Initializes the slew rate controller. ">
<polygon fill="none" stroke="#000000" points="385.0039,-150.6309 385.0039,-168.6309 439.3535,-168.6309 439.3535,-150.6309 385.0039,-150.6309"/>
<text text-anchor="middle" x="412.1787" y="-156.6309" font-family="Helvetica,sans-Serif" font-size="10.00" fill="#000000">init_slew</text>
</a>
</g>
</g>
<!-- Node2&#45;&gt;Node5 -->
<g id="edge5" class="edge">
<title>Node2&#45;&gt;Node5</title>
<path fill="none" stroke="#191970" d="M349.0613,-159.6309C357.7141,-159.6309 366.4654,-159.6309 374.5827,-159.6309"/>
<polygon fill="#191970" stroke="#191970" points="374.8272,-163.131 384.8271,-159.6309 374.8271,-156.131 374.8272,-163.131"/>
</g>
<!-- Node15 -->
<g id="node16" class="node">
<title>Node15</title>
<g id="a_node16"><a xlink:href="_a_p_i_8h.html#a8b51124628d2a7741738d48551d1e8ee" target="_top" xlink:title="mutexTake">
<polygon fill="none" stroke="#000000" points="588.501,-193.6309 588.501,-211.6309 652.8555,-211.6309 652.8555,-193.6309 588.501,-193.6309"/>
<text text-anchor="middle" x="620.6782" y="-199.6309" font-family="Helvetica,sans-Serif" font-size="10.00" fill="#000000">mutexTake</text>
</a>
</g>
</g>
<!-- Node2&#45;&gt;Node15 -->
<g id="edge23" class="edge">
<title>Node2&#45;&gt;Node15</title>
<path fill="none" stroke="#191970" d="M308.8544,-168.6948C339.7556,-185.699 410.5169,-221.823 475.3535,-234.6309 508.9912,-241.2758 519.0353,-242.0942 552.501,-234.6309 568.1621,-231.1384 584.4751,-223.6408 597.2161,-216.7806"/>
<polygon fill="#191970" stroke="#191970" points="599.1902,-219.6861 606.1931,-211.7356 595.7607,-213.5837 599.1902,-219.6861"/>
</g>
<!-- Node16 -->
<g id="node17" class="node">
<title>Node16</title>
<g id="a_node17"><a xlink:href="_a_p_i_8h.html#afe171a08d22de18fc2ab604b2364959f" target="_top" xlink:title="mutexGive">
<polygon fill="none" stroke="#000000" points="588.7817,-94.6309 588.7817,-112.6309 652.5747,-112.6309 652.5747,-94.6309 588.7817,-94.6309"/>
<text text-anchor="middle" x="620.6782" y="-100.6309" font-family="Helvetica,sans-Serif" font-size="10.00" fill="#000000">mutexGive</text>
</a>
</g>
</g>
<!-- Node2&#45;&gt;Node16 -->
<g id="edge22" class="edge">
<title>Node2&#45;&gt;Node16</title>
<path fill="none" stroke="#191970" d="M309.3729,-150.5479C340.5821,-133.8886 411.0396,-99.0213 475.3535,-86.6309 509.0221,-80.1445 518.4688,-82.452 552.501,-86.6309 561.9261,-87.7883 571.9232,-89.8137 581.2729,-92.0722"/>
<polygon fill="#191970" stroke="#191970" points="580.5514,-95.5002 591.1066,-94.5843 582.284,-88.718 580.5514,-95.5002"/>
</g>
<!-- Node17 -->
<g id="node18" class="node">
<title>Node17</title>
<g id="a_node18"><a xlink:href="_a_p_i_8h.html#a03c5b04b472d024281f62d7af8854a8e" target="_top" xlink:title="motorSet">
<polygon fill="none" stroke="#000000" points="592.3926,-57.6309 592.3926,-75.6309 648.9639,-75.6309 648.9639,-57.6309 592.3926,-57.6309"/>
<text text-anchor="middle" x="620.6782" y="-63.6309" font-family="Helvetica,sans-Serif" font-size="10.00" fill="#000000">motorSet</text>
</a>
</g>
</g>
<!-- Node2&#45;&gt;Node17 -->
<g id="edge21" class="edge">
<title>Node2&#45;&gt;Node17</title>
<path fill="none" stroke="#191970" d="M299.9903,-150.4594C322.1182,-122.5794 393.5227,-38.9539 475.3535,-9.6309 507.6315,1.9354 521.0918,4.121 552.501,-9.6309 574.1097,-19.0919 569.9778,-34.0249 588.501,-48.6309 590.0466,-49.8497 591.6851,-51.0354 593.372,-52.1783"/>
<polygon fill="#191970" stroke="#191970" points="591.6521,-55.2295 602.0024,-57.4925 595.3224,-49.2689 591.6521,-55.2295"/>
</g>
<!-- Node4 -->
<g id="node5" class="node">
<title>Node4</title>
<g id="a_node5"><a xlink:href="_a_p_i_8h.html#a403c82418e475fa4a8273719e6a7f3e6" target="_top" xlink:title="printf">
<polygon fill="none" stroke="#000000" points="711.9243,-192.6309 711.9243,-210.6309 750.1558,-210.6309 750.1558,-192.6309 711.9243,-192.6309"/>
<text text-anchor="middle" x="731.04" y="-198.6309" font-family="Helvetica,sans-Serif" font-size="10.00" fill="#000000">printf</text>
</a>
</g>
</g>
<!-- Node3&#45;&gt;Node4 -->
<g id="edge4" class="edge">
<title>Node3&#45;&gt;Node4</title>
<path fill="none" stroke="#191970" d="M434.1606,-326.6294C477.8099,-320.0319 577.6863,-301.7246 652.8555,-263.6309 676.3241,-251.7377 699.4645,-232.1346 714.406,-218.1555"/>
<polygon fill="#191970" stroke="#191970" points="717.0179,-220.5 721.8134,-211.0526 712.1731,-215.4475 717.0179,-220.5"/>
</g>
<!-- Node6 -->
<g id="node7" class="node">
<title>Node6</title>
<g id="a_node7"><a xlink:href="log_8h.html#a0bec2cf5fff7f607bc510b74aba9887c" target="_top" xlink:title="prints a warning message and displays on lcd. Only will print and display if log_level is greater tha...">
<polygon fill="none" stroke="#000000" points="488.4175,-19.6309 488.4175,-37.6309 539.437,-37.6309 539.437,-19.6309 488.4175,-19.6309"/>
<text text-anchor="middle" x="513.9272" y="-25.6309" font-family="Helvetica,sans-Serif" font-size="10.00" fill="#000000">warning</text>
</a>
</g>
</g>
<!-- Node5&#45;&gt;Node6 -->
<g id="edge6" class="edge">
<title>Node5&#45;&gt;Node6</title>
<path fill="none" stroke="#191970" d="M419.1723,-150.6268C435.9449,-129.0322 478.6856,-74.0041 500.5712,-45.8267"/>
<polygon fill="#191970" stroke="#191970" points="503.5147,-47.7427 506.8847,-37.6981 497.9864,-43.4488 503.5147,-47.7427"/>
</g>
<!-- Node10 -->
<g id="node11" class="node">
<title>Node10</title>
<g id="a_node11"><a xlink:href="_a_p_i_8h.html#a8966c541f3e9565aea1289f0d2f2cf43" target="_top" xlink:title="motorStopAll">
<polygon fill="none" stroke="#000000" points="477.3042,-132.6309 477.3042,-150.6309 550.5503,-150.6309 550.5503,-132.6309 477.3042,-132.6309"/>
<text text-anchor="middle" x="513.9272" y="-138.6309" font-family="Helvetica,sans-Serif" font-size="10.00" fill="#000000">motorStopAll</text>
</a>
</g>
</g>
<!-- Node5&#45;&gt;Node10 -->
<g id="edge11" class="edge">
<title>Node5&#45;&gt;Node10</title>
<path fill="none" stroke="#191970" d="M439.4455,-154.8073C447.9184,-153.3084 457.5139,-151.6108 466.9312,-149.9449"/>
<polygon fill="#191970" stroke="#191970" points="467.781,-153.349 477.0183,-148.1604 466.5615,-146.456 467.781,-153.349"/>
</g>
<!-- Node11 -->
<g id="node12" class="node">
<title>Node11</title>
<g id="a_node12"><a xlink:href="log_8h.html#a1606d750e1bb8de9f9e917172bba3382" target="_top" xlink:title="prints a info message ">
<polygon fill="none" stroke="#000000" points="604.6167,-235.6309 604.6167,-253.6309 636.7397,-253.6309 636.7397,-235.6309 604.6167,-235.6309"/>
<text text-anchor="middle" x="620.6782" y="-241.6309" font-family="Helvetica,sans-Serif" font-size="10.00" fill="#000000">info</text>
</a>
</g>
</g>
<!-- Node5&#45;&gt;Node11 -->
<g id="edge12" class="edge">
<title>Node5&#45;&gt;Node11</title>
<path fill="none" stroke="#191970" d="M416.7211,-168.8343C425.4629,-185.4073 446.3586,-219.9121 475.3535,-234.6309 513.1114,-253.7982 563.6457,-252.1705 594.0913,-248.7504"/>
<polygon fill="#191970" stroke="#191970" points="594.8611,-252.1807 604.3383,-247.4445 593.976,-245.2369 594.8611,-252.1807"/>
</g>
<!-- Node12 -->
<g id="node13" class="node">
<title>Node12</title>
<g id="a_node13"><a xlink:href="_a_p_i_8h.html#aecd027ce8f8b52a765735e9eb5b202b3" target="_top" xlink:title="mutexCreate">
<polygon fill="none" stroke="#000000" points="477.3042,-206.6309 477.3042,-224.6309 550.5503,-224.6309 550.5503,-206.6309 477.3042,-206.6309"/>
<text text-anchor="middle" x="513.9272" y="-212.6309" font-family="Helvetica,sans-Serif" font-size="10.00" fill="#000000">mutexCreate</text>
</a>
</g>
</g>
<!-- Node5&#45;&gt;Node12 -->
<g id="edge14" class="edge">
<title>Node5&#45;&gt;Node12</title>
<path fill="none" stroke="#191970" d="M426.4831,-168.8245C439.128,-176.8084 458.1795,-188.4911 475.3535,-197.6309 478.224,-199.1586 481.2472,-200.6928 484.2859,-202.1863"/>
<polygon fill="#191970" stroke="#191970" points="482.7791,-205.3452 493.3112,-206.4969 485.796,-199.0287 482.7791,-205.3452"/>
</g>
<!-- Node13 -->
<g id="node14" class="node">
<title>Node13</title>
<g id="a_node14"><a xlink:href="_a_p_i_8h.html#ab05a241d6d1fd98b1ceb4665db678156" target="_top" xlink:title="taskRunLoop">
<polygon fill="none" stroke="#000000" points="476.4619,-169.6309 476.4619,-187.6309 551.3926,-187.6309 551.3926,-169.6309 476.4619,-169.6309"/>
<text text-anchor="middle" x="513.9272" y="-175.6309" font-family="Helvetica,sans-Serif" font-size="10.00" fill="#000000">taskRunLoop</text>
</a>
</g>
</g>
<!-- Node5&#45;&gt;Node13 -->
<g id="edge15" class="edge">
<title>Node5&#45;&gt;Node13</title>
<path fill="none" stroke="#191970" d="M439.4455,-164.7226C447.7455,-166.2725 457.1227,-168.0236 466.3544,-169.7474"/>
<polygon fill="#191970" stroke="#191970" points="465.7841,-173.2014 476.2567,-171.5965 467.0691,-166.3203 465.7841,-173.2014"/>
</g>
<!-- Node14 -->
<g id="node15" class="node">
<title>Node14</title>
<g id="a_node15"><a xlink:href="slew_8c.html#a807a87c5df438fde21c1e8213906695b" target="_top" xlink:title="Closes the distance between the desired motor value and the current motor value by half for each moto...">
<polygon fill="none" stroke="#000000" points="475.3535,-95.6309 475.3535,-113.6309 552.501,-113.6309 552.501,-95.6309 475.3535,-95.6309"/>
<text text-anchor="middle" x="513.9272" y="-101.6309" font-family="Helvetica,sans-Serif" font-size="10.00" fill="#000000">updateMotors</text>
</a>
</g>
</g>
<!-- Node5&#45;&gt;Node14 -->
<g id="edge16" class="edge">
<title>Node5&#45;&gt;Node14</title>
<path fill="none" stroke="#191970" d="M427.6111,-150.4909C440.3136,-143.0516 458.8498,-132.3876 475.3535,-123.6309 478.7167,-121.8465 482.2707,-120.019 485.8061,-118.2364"/>
<polygon fill="#191970" stroke="#191970" points="487.5769,-121.2649 494.9772,-113.683 484.4639,-114.9952 487.5769,-121.2649"/>
</g>
<!-- Node7 -->
<g id="node8" class="node">
<title>Node7</title>
<g id="a_node8"><a xlink:href="log_8c.html#afff22aff6749311a684a559cac3ac8bd" target="_top" xlink:title="log_info">
<polygon fill="none" stroke="#000000" points="595.1636,-20.6309 595.1636,-38.6309 646.1929,-38.6309 646.1929,-20.6309 595.1636,-20.6309"/>
<text text-anchor="middle" x="620.6782" y="-26.6309" font-family="Helvetica,sans-Serif" font-size="10.00" fill="#000000">log_info</text>
</a>
</g>
</g>
<!-- Node6&#45;&gt;Node7 -->
<g id="edge7" class="edge">
<title>Node6&#45;&gt;Node7</title>
<path fill="none" stroke="#191970" d="M539.4968,-28.8705C552.9975,-28.9969 569.7911,-29.1543 584.595,-29.2929"/>
<polygon fill="#191970" stroke="#191970" points="584.915,-32.796 594.9474,-29.3899 584.9806,-25.7963 584.915,-32.796"/>
</g>
<!-- Node7&#45;&gt;Node4 -->
<g id="edge10" class="edge">
<title>Node7&#45;&gt;Node4</title>
<path fill="none" stroke="#191970" d="M640.0142,-38.6617C644.5988,-41.4146 649.2102,-44.7564 652.8555,-48.6309 690.8867,-89.0548 714.9361,-151.5399 725.2379,-182.664"/>
<polygon fill="#191970" stroke="#191970" points="721.9318,-183.8167 728.3088,-192.2774 728.5999,-181.6866 721.9318,-183.8167"/>
</g>
<!-- Node8 -->
<g id="node9" class="node">
<title>Node8</title>
<g id="a_node9"><a xlink:href="_a_p_i_8h.html#a5fa1d119fe3e836b5519f97eae7a1272" target="_top" xlink:title="lcdClear">
<polygon fill="none" stroke="#000000" points="704.7002,-39.6309 704.7002,-57.6309 757.3799,-57.6309 757.3799,-39.6309 704.7002,-39.6309"/>
<text text-anchor="middle" x="731.04" y="-45.6309" font-family="Helvetica,sans-Serif" font-size="10.00" fill="#000000">lcdClear</text>
</a>
</g>
</g>
<!-- Node7&#45;&gt;Node8 -->
<g id="edge8" class="edge">
<title>Node7&#45;&gt;Node8</title>
<path fill="none" stroke="#191970" d="M646.2748,-34.0377C660.587,-36.5017 678.6689,-39.6147 694.4525,-42.332"/>
<polygon fill="#191970" stroke="#191970" points="693.9812,-45.8023 704.43,-44.0497 695.1689,-38.9038 693.9812,-45.8023"/>
</g>
<!-- Node9 -->
<g id="node10" class="node">
<title>Node9</title>
<g id="a_node10"><a xlink:href="_a_p_i_8h.html#aab53a247d88151a6623c20fa1ea940b0" target="_top" xlink:title="lcdSetBacklight">
<polygon fill="none" stroke="#000000" points="688.8555,-2.6309 688.8555,-20.6309 773.2246,-20.6309 773.2246,-2.6309 688.8555,-2.6309"/>
<text text-anchor="middle" x="731.04" y="-8.6309" font-family="Helvetica,sans-Serif" font-size="10.00" fill="#000000">lcdSetBacklight</text>
</a>
</g>
</g>
<!-- Node7&#45;&gt;Node9 -->
<g id="edge9" class="edge">
<title>Node7&#45;&gt;Node9</title>
<path fill="none" stroke="#191970" d="M646.2748,-25.4561C655.9277,-23.8818 667.2954,-22.0277 678.5162,-20.1976"/>
<polygon fill="#191970" stroke="#191970" points="679.4202,-23.5965 688.7263,-18.5323 678.2933,-16.6878 679.4202,-23.5965"/>
</g>
<!-- Node11&#45;&gt;Node4 -->
<g id="edge13" class="edge">
<title>Node11&#45;&gt;Node4</title>
<path fill="none" stroke="#191970" d="M636.9625,-238.2862C654.1473,-231.5905 681.5725,-220.9049 702.3883,-212.7945"/>
<polygon fill="#191970" stroke="#191970" points="703.6668,-216.0527 711.7139,-209.1609 701.1255,-209.5302 703.6668,-216.0527"/>
</g>
<!-- Node14&#45;&gt;Node4 -->
<g id="edge19" class="edge">
<title>Node14&#45;&gt;Node4</title>
<path fill="none" stroke="#191970" d="M534.3527,-113.7565C573.2156,-131.1194 657.8847,-168.9472 702.3919,-188.8317"/>
<polygon fill="#191970" stroke="#191970" points="701.2059,-192.1352 711.7638,-193.0189 704.0613,-185.7441 701.2059,-192.1352"/>
</g>
<!-- Node14&#45;&gt;Node15 -->
<g id="edge17" class="edge">
<title>Node14&#45;&gt;Node15</title>
<path fill="none" stroke="#191970" d="M537.0897,-113.7544C542.4652,-116.4714 547.9418,-119.7734 552.501,-123.6309 573.4053,-141.3181 570.2267,-153.2378 588.501,-173.6309 592.516,-178.1115 597.1639,-182.6237 601.6571,-186.7103"/>
<polygon fill="#191970" stroke="#191970" points="599.5815,-189.5453 609.4076,-193.5076 604.1971,-184.2825 599.5815,-189.5453"/>
</g>
<!-- Node14&#45;&gt;Node16 -->
<g id="edge18" class="edge">
<title>Node14&#45;&gt;Node16</title>
<path fill="none" stroke="#191970" d="M552.7688,-104.2671C561.1605,-104.1885 570.071,-104.105 578.5808,-104.0253"/>
<polygon fill="#191970" stroke="#191970" points="578.7335,-107.5241 588.7003,-103.9305 578.6679,-100.5244 578.7335,-107.5241"/>
</g>
<!-- Node14&#45;&gt;Node17 -->
<g id="edge20" class="edge">
<title>Node14&#45;&gt;Node17</title>
<path fill="none" stroke="#191970" d="M539.2257,-95.6255C553.0838,-90.6924 570.4719,-84.5028 585.62,-79.1106"/>
<polygon fill="#191970" stroke="#191970" points="586.9442,-82.3544 595.1914,-75.7035 584.5967,-75.7598 586.9442,-82.3544"/>
</g>
</g>
</svg>
