<?xml version="1.0" encoding="UTF-8" standalone="no"?>
<!DOCTYPE svg PUBLIC "-//W3C//DTD SVG 1.1//EN"
 "http://www.w3.org/Graphics/SVG/1.1/DTD/svg11.dtd">
<!-- Generated by graphviz version 2.40.1 (20161225.0304)
 -->
<!-- Title: include/motor_ports.h Pages: 1 -->
<svg width="414pt" height="147pt"
 viewBox="0.00 0.00 414.45 147.00" xmlns="http://www.w3.org/2000/svg" xmlns:xlink="http://www.w3.org/1999/xlink">
<g id="graph0" class="graph" transform="scale(1 1) rotate(0) translate(4 143)">
<title>include/motor_ports.h</title>
<!-- Node1 -->
<g id="node1" class="node">
<title>Node1</title>
<polygon fill="#bfbfbf" stroke="#000000" points="163.5913,-120.5 163.5913,-138.5 275.7534,-138.5 275.7534,-120.5 163.5913,-120.5"/>
<text text-anchor="middle" x="219.6724" y="-126.5" font-family="Helvetica,sans-Serif" font-size="10.00" fill="#000000">include/motor_ports.h</text>
</g>
<!-- Node2 -->
<g id="node2" class="node">
<title>Node2</title>
<g id="a_node2"><a xlink:href="claw_8h.html" target="_top" xlink:title="include/claw.h">
<polygon fill="none" stroke="#000000" points="30.5396,-60.5 30.5396,-78.5 108.8052,-78.5 108.8052,-60.5 30.5396,-60.5"/>
<text text-anchor="middle" x="69.6724" y="-66.5" font-family="Helvetica,sans-Serif" font-size="10.00" fill="#000000">include/claw.h</text>
</a>
</g>
</g>
<!-- Node1&#45;&gt;Node2 -->
<g id="edge1" class="edge">
<title>Node1&#45;&gt;Node2</title>
<path fill="none" stroke="#191970" d="M187.305,-116.553C158.6027,-105.0721 117.4276,-88.6021 92.177,-78.5019"/>
<polygon fill="#191970" stroke="#191970" points="186.3059,-119.923 196.8906,-120.3873 188.9057,-113.4237 186.3059,-119.923"/>
</g>
<!-- Node5 -->
<g id="node5" class="node">
<title>Node5</title>
<g id="a_node5"><a xlink:href="lifter_8h.html" target="_top" xlink:title="include/lifter.h">
<polygon fill="none" stroke="#000000" points="127.0962,-60.5 127.0962,-78.5 204.2485,-78.5 204.2485,-60.5 127.0962,-60.5"/>
<text text-anchor="middle" x="165.6724" y="-66.5" font-family="Helvetica,sans-Serif" font-size="10.00" fill="#000000">include/lifter.h</text>
</a>
</g>
</g>
<!-- Node1&#45;&gt;Node5 -->
<g id="edge4" class="edge">
<title>Node1&#45;&gt;Node5</title>
<path fill="none" stroke="#191970" d="M204.5328,-112.6783C194.6287,-101.6737 182.0672,-87.7165 173.951,-78.6985"/>
<polygon fill="#191970" stroke="#191970" points="202.1797,-115.2957 211.4709,-120.3873 207.3828,-110.6129 202.1797,-115.2957"/>
</g>
<!-- Node7 -->
<g id="node7" class="node">
<title>Node7</title>
<g id="a_node7"><a xlink:href="mobile__goal__intake_8h.html" target="_top" xlink:title="include/mobile_goal\l_intake.h">
<polygon fill="none" stroke="#000000" points="222.4756,-55.5 222.4756,-83.5 326.8691,-83.5 326.8691,-55.5 222.4756,-55.5"/>
<text text-anchor="start" x="230.4756" y="-71.5" font-family="Helvetica,sans-Serif" font-size="10.00" fill="#000000">include/mobile_goal</text>
<text text-anchor="middle" x="274.6724" y="-61.5" font-family="Helvetica,sans-Serif" font-size="10.00" fill="#000000">_intake.h</text>
</a>
</g>
</g>
<!-- Node1&#45;&gt;Node7 -->
<g id="edge7" class="edge">
<title>Node1&#45;&gt;Node7</title>
<path fill="none" stroke="#191970" d="M235.0371,-112.7384C243.3685,-103.6496 253.5588,-92.533 261.5203,-83.8477"/>
<polygon fill="#191970" stroke="#191970" points="232.2029,-110.6507 228.0257,-120.3873 237.363,-115.3808 232.2029,-110.6507"/>
</g>
<!-- Node9 -->
<g id="node9" class="node">
<title>Node9</title>
<g id="a_node9"><a xlink:href="drive_8c.html" target="_top" xlink:title="src/drive.c">
<polygon fill="none" stroke="#000000" points="344.8916,-60.5 344.8916,-78.5 406.4531,-78.5 406.4531,-60.5 344.8916,-60.5"/>
<text text-anchor="middle" x="375.6724" y="-66.5" font-family="Helvetica,sans-Serif" font-size="10.00" fill="#000000">src/drive.c</text>
</a>
</g>
</g>
<!-- Node1&#45;&gt;Node9 -->
<g id="edge10" class="edge">
<title>Node1&#45;&gt;Node9</title>
<path fill="none" stroke="#191970" d="M252.9442,-116.7032C282.8106,-105.2161 325.8923,-88.6462 352.2675,-78.5019"/>
<polygon fill="#191970" stroke="#191970" points="251.4424,-113.5307 243.3654,-120.3873 253.9553,-120.0642 251.4424,-113.5307"/>
</g>
<!-- Node3 -->
<g id="node3" class="node">
<title>Node3</title>
<g id="a_node3"><a xlink:href="claw_8c.html" target="_top" xlink:title="src/claw.c">
<polygon fill="none" stroke="#000000" points="0,-.5 0,-18.5 59.3447,-18.5 59.3447,-.5 0,-.5"/>
<text text-anchor="middle" x="29.6724" y="-6.5" font-family="Helvetica,sans-Serif" font-size="10.00" fill="#000000">src/claw.c</text>
</a>
</g>
</g>
<!-- Node2&#45;&gt;Node3 -->
<g id="edge2" class="edge">
<title>Node2&#45;&gt;Node3</title>
<path fill="none" stroke="#191970" d="M58.0241,-52.0276C50.7578,-41.1282 41.6988,-27.5397 35.8047,-18.6985"/>
<polygon fill="#191970" stroke="#191970" points="55.138,-54.0082 63.5972,-60.3873 60.9624,-50.1253 55.138,-54.0082"/>
</g>
<!-- Node4 -->
<g id="node4" class="node">
<title>Node4</title>
<g id="a_node4"><a xlink:href="opcontrol_8c.html" target="_top" xlink:title="File for operator control code. ">
<polygon fill="none" stroke="#000000" points="77.1602,-.5 77.1602,-18.5 158.1846,-18.5 158.1846,-.5 77.1602,-.5"/>
<text text-anchor="middle" x="117.6724" y="-6.5" font-family="Helvetica,sans-Serif" font-size="10.00" fill="#000000">src/opcontrol.c</text>
</a>
</g>
</g>
<!-- Node2&#45;&gt;Node4 -->
<g id="edge3" class="edge">
<title>Node2&#45;&gt;Node4</title>
<path fill="none" stroke="#191970" d="M83.3894,-52.3537C92.152,-41.4005 103.1699,-27.6281 110.3136,-18.6985"/>
<polygon fill="#191970" stroke="#191970" points="80.4765,-50.3921 76.9625,-60.3873 85.9426,-54.765 80.4765,-50.3921"/>
</g>
<!-- Node5&#45;&gt;Node4 -->
<g id="edge6" class="edge">
<title>Node5&#45;&gt;Node4</title>
<path fill="none" stroke="#191970" d="M151.9554,-52.3537C143.1927,-41.4005 132.1748,-27.6281 125.0311,-18.6985"/>
<polygon fill="#191970" stroke="#191970" points="149.4022,-54.765 158.3822,-60.3873 154.8683,-50.3921 149.4022,-54.765"/>
</g>
<!-- Node6 -->
<g id="node6" class="node">
<title>Node6</title>
<g id="a_node6"><a xlink:href="lifter_8c.html" target="_top" xlink:title="src/lifter.c">
<polygon fill="none" stroke="#000000" points="176.5566,-.5 176.5566,-18.5 234.7881,-18.5 234.7881,-.5 176.5566,-.5"/>
<text text-anchor="middle" x="205.6724" y="-6.5" font-family="Helvetica,sans-Serif" font-size="10.00" fill="#000000">src/lifter.c</text>
</a>
</g>
</g>
<!-- Node5&#45;&gt;Node6 -->
<g id="edge5" class="edge">
<title>Node5&#45;&gt;Node6</title>
<path fill="none" stroke="#191970" d="M177.3206,-52.0276C184.5869,-41.1282 193.6459,-27.5397 199.5401,-18.6985"/>
<polygon fill="#191970" stroke="#191970" points="174.3824,-50.1253 171.7475,-60.3873 180.2067,-54.0082 174.3824,-50.1253"/>
</g>
<!-- Node7&#45;&gt;Node4 -->
<g id="edge9" class="edge">
<title>Node7&#45;&gt;Node4</title>
<path fill="none" stroke="#191970" d="M228.4853,-51.8489C199.9723,-40.9522 164.5693,-27.4224 141.5653,-18.6311"/>
<polygon fill="#191970" stroke="#191970" points="227.2723,-55.1321 237.8628,-55.4327 229.7712,-48.5934 227.2723,-55.1321"/>
</g>
<!-- Node8 -->
<g id="node8" class="node">
<title>Node8</title>
<g id="a_node8"><a xlink:href="mobile__goal__intake_8c.html" target="_top" xlink:title="src/mobile_goal_intake.c">
<polygon fill="none" stroke="#000000" points="252.6431,-.5 252.6431,-18.5 378.7017,-18.5 378.7017,-.5 252.6431,-.5"/>
<text text-anchor="middle" x="315.6724" y="-6.5" font-family="Helvetica,sans-Serif" font-size="10.00" fill="#000000">src/mobile_goal_intake.c</text>
</a>
</g>
</g>
<!-- Node7&#45;&gt;Node8 -->
<g id="edge8" class="edge">
<title>Node7&#45;&gt;Node8</title>
<path fill="none" stroke="#191970" d="M290.0325,-47.0217C296.7783,-37.1498 304.3179,-26.1163 309.4648,-18.5842"/>
<polygon fill="#191970" stroke="#191970" points="287.141,-45.0497 284.3888,-55.2808 292.9205,-48.9991 287.141,-45.0497"/>
</g>
</g>
</svg>
