<?xml version="1.0" encoding="UTF-8" standalone="no"?>
<!DOCTYPE svg PUBLIC "-//W3C//DTD SVG 1.1//EN"
 "http://www.w3.org/Graphics/SVG/1.1/DTD/svg11.dtd">
<!-- Generated by graphviz version 2.40.1 (20161225.0304)
 -->
<!-- Title: include/motor_ports.h Pages: 1 -->
<!--zoomable 202 -->
<svg id="main" version="1.1" xmlns="http://www.w3.org/2000/svg" xmlns:xlink="http://www.w3.org/1999/xlink" xml:space="preserve" onload="init(evt)">
<style type="text/css"><![CDATA[
.edge:hover path { stroke: red; }
.edge:hover polygon { stroke: red; fill: red; }
]]></style>
<script type="text/javascript"><![CDATA[
var edges = document.getElementsByTagName('g');
if (edges && edges.length) {
  for (var i=0;i<edges.length;i++) {
    if (edges[i].id.substr(0,4)=='edge') {
      edges[i].setAttribute('class','edge');
    }
  }
}
]]></script>
        <defs>
                <circle id="rim" cx="0" cy="0" r="7"/>
                <circle id="rim2" cx="0" cy="0" r="3.5"/>
                <g id="zoomPlus">
                        <use xlink:href="#rim" fill="#404040">
                                <set attributeName="fill" to="#808080" begin="zoomplus.mouseover" end="zoomplus.mouseout"/>
                        </use>
                        <path d="M-4,0h8M0,-4v8" fill="none" stroke="white" stroke-width="1.5" pointer-events="none"/>
                </g>
                <g id="zoomMin">
                        <use xlink:href="#rim" fill="#404040">
                                <set attributeName="fill" to="#808080" begin="zoomminus.mouseover" end="zoomminus.mouseout"/>
                        </use>
                        <path d="M-4,0h8" fill="none" stroke="white" stroke-width="1.5" pointer-events="none"/>
                </g>
                <g id="dirArrow">
                        <path fill="none" stroke="white" stroke-width="1.5" d="M0,-3.0v7 M-2.5,-0.5L0,-3.0L2.5,-0.5"/>
                </g>
               <g id="resetDef">
                       <use xlink:href="#rim2" fill="#404040">
                               <set attributeName="fill" to="#808080" begin="reset.mouseover" end="reset.mouseout"/>
                       </use>
               </g>
        </defs>

<script type="text/javascript">
var viewWidth = 553;
var viewHeight = 202;
var sectionId = 'dynsection-0';
</script>
<script xlink:href="svgpan.js"/>
<svg id="graph" class="graph">
<g id="viewport">
<title>include/motor_ports.h</title>
<!-- Node1 -->
<g id="node1" class="node">
<title>Node1</title>
<polygon fill="#bfbfbf" stroke="#000000" points="277.9482,-175.5 277.9482,-193.5 390.1104,-193.5 390.1104,-175.5 277.9482,-175.5"/>
<text text-anchor="middle" x="334.0293" y="-181.5" font-family="Helvetica,sans-Serif" font-size="10.00" fill="#000000">include/motor_ports.h</text>
</g>
<!-- Node2 -->
<g id="node2" class="node">
<title>Node2</title>
<g id="a_node2"><a xlink:href="claw_8h.html" target="_top" xlink:title="Code for controlling the claw that grabs the cones. ">
<polygon fill="none" stroke="#000000" points="246.8965,-115.5 246.8965,-133.5 325.1621,-133.5 325.1621,-115.5 246.8965,-115.5"/>
<text text-anchor="middle" x="286.0293" y="-121.5" font-family="Helvetica,sans-Serif" font-size="10.00" fill="#000000">include/claw.h</text>
</a>
</g>
</g>
<!-- Node1&#45;&gt;Node2 -->
<g id="edge1" class="edge">
<title>Node1&#45;&gt;Node2</title>
<path fill="none" stroke="#191970" d="M320.3123,-167.3537C311.5497,-156.4005 300.5318,-142.6281 293.3881,-133.6985"/>
<polygon fill="#191970" stroke="#191970" points="317.7591,-169.765 326.7391,-175.3873 323.2252,-165.3921 317.7591,-169.765"/>
</g>
<!-- Node7 -->
<g id="node7" class="node">
<title>Node7</title>
<g id="a_node7"><a xlink:href="lifter_8h.html" target="_top" xlink:title="Declarations and macros for controlling and manipulating the lifter. ">
<polygon fill="none" stroke="#000000" points="343.4531,-115.5 343.4531,-133.5 420.6055,-133.5 420.6055,-115.5 343.4531,-115.5"/>
<text text-anchor="middle" x="382.0293" y="-121.5" font-family="Helvetica,sans-Serif" font-size="10.00" fill="#000000">include/lifter.h</text>
</a>
</g>
</g>
<!-- Node1&#45;&gt;Node7 -->
<g id="edge6" class="edge">
<title>Node1&#45;&gt;Node7</title>
<path fill="none" stroke="#191970" d="M347.7463,-167.3537C356.5089,-156.4005 367.5268,-142.6281 374.6705,-133.6985"/>
<polygon fill="#191970" stroke="#191970" points="344.8334,-165.3921 341.3195,-175.3873 350.2995,-169.765 344.8334,-165.3921"/>
</g>
<!-- Node10 -->
<g id="node10" class="node">
<title>Node10</title>
<g id="a_node10"><a xlink:href="mobile__goal__intake_8h.html" target="_top" xlink:title="include/mobile_goal\l_intake.h">
<polygon fill="none" stroke="#000000" points="124.8325,-110.5 124.8325,-138.5 229.2261,-138.5 229.2261,-110.5 124.8325,-110.5"/>
<text text-anchor="start" x="132.8325" y="-126.5" font-family="Helvetica,sans-Serif" font-size="10.00" fill="#000000">include/mobile_goal</text>
<text text-anchor="middle" x="177.0293" y="-116.5" font-family="Helvetica,sans-Serif" font-size="10.00" fill="#000000">_intake.h</text>
</a>
</g>
</g>
<!-- Node1&#45;&gt;Node10 -->
<g id="edge11" class="edge">
<title>Node1&#45;&gt;Node10</title>
<path fill="none" stroke="#191970" d="M300.5737,-171.7144C275.058,-161.9632 239.9454,-148.5444 213.6732,-138.504"/>
<polygon fill="#191970" stroke="#191970" points="299.5938,-175.0868 310.1844,-175.3873 302.0927,-168.548 299.5938,-175.0868"/>
</g>
<!-- Node12 -->
<g id="node12" class="node">
<title>Node12</title>
<g id="a_node12"><a xlink:href="drive_8c.html" target="_top" xlink:title="src/drive.c">
<polygon fill="none" stroke="#000000" points="438.2485,-115.5 438.2485,-133.5 499.8101,-133.5 499.8101,-115.5 438.2485,-115.5"/>
<text text-anchor="middle" x="469.0293" y="-121.5" font-family="Helvetica,sans-Serif" font-size="10.00" fill="#000000">src/drive.c</text>
</a>
</g>
</g>
<!-- Node1&#45;&gt;Node12 -->
<g id="edge15" class="edge">
<title>Node1&#45;&gt;Node12</title>
<path fill="none" stroke="#191970" d="M363.8393,-171.2511C389.6382,-159.7849 426.2481,-143.5139 448.7751,-133.5019"/>
<polygon fill="#191970" stroke="#191970" points="362.2495,-168.1275 354.5329,-175.3873 365.0925,-174.5242 362.2495,-168.1275"/>
</g>
<!-- Node3 -->
<g id="node3" class="node">
<title>Node3</title>
<g id="a_node3"><a xlink:href="auto_8h.html" target="_top" xlink:title="Autonomous declarations and macros. ">
<polygon fill="none" stroke="#000000" points="143.894,-55.5 143.894,-73.5 222.1646,-73.5 222.1646,-55.5 143.894,-55.5"/>
<text text-anchor="middle" x="183.0293" y="-61.5" font-family="Helvetica,sans-Serif" font-size="10.00" fill="#000000">include/auto.h</text>
</a>
</g>
</g>
<!-- Node2&#45;&gt;Node3 -->
<g id="edge2" class="edge">
<title>Node2&#45;&gt;Node3</title>
<path fill="none" stroke="#191970" d="M261.7076,-110.332C242.1327,-98.9291 215.2155,-83.2492 198.4825,-73.5019"/>
<polygon fill="#191970" stroke="#191970" points="259.9832,-113.378 270.3858,-115.3873 263.5067,-107.3295 259.9832,-113.378"/>
</g>
<!-- Node5 -->
<g id="node5" class="node">
<title>Node5</title>
<g id="a_node5"><a xlink:href="claw_8c.html" target="_top" xlink:title="src/claw.c">
<polygon fill="none" stroke="#000000" points="339.3569,-55.5 339.3569,-73.5 398.7017,-73.5 398.7017,-55.5 339.3569,-55.5"/>
<text text-anchor="middle" x="369.0293" y="-61.5" font-family="Helvetica,sans-Serif" font-size="10.00" fill="#000000">src/claw.c</text>
</a>
</g>
</g>
<!-- Node2&#45;&gt;Node5 -->
<g id="edge4" class="edge">
<title>Node2&#45;&gt;Node5</title>
<path fill="none" stroke="#191970" d="M307.1446,-109.2359C322.7681,-97.9418 343.5199,-82.9405 356.5767,-73.5019"/>
<polygon fill="#191970" stroke="#191970" points="304.689,-106.6923 298.6352,-115.3873 308.7899,-112.3653 304.689,-106.6923"/>
</g>
<!-- Node6 -->
<g id="node6" class="node">
<title>Node6</title>
<g id="a_node6"><a xlink:href="opcontrol_8c.html" target="_top" xlink:title="File for operator control code. ">
<polygon fill="none" stroke="#000000" points="240.5171,-55.5 240.5171,-73.5 321.5415,-73.5 321.5415,-55.5 240.5171,-55.5"/>
<text text-anchor="middle" x="281.0293" y="-61.5" font-family="Helvetica,sans-Serif" font-size="10.00" fill="#000000">src/opcontrol.c</text>
</a>
</g>
</g>
<!-- Node2&#45;&gt;Node6 -->
<g id="edge5" class="edge">
<title>Node2&#45;&gt;Node6</title>
<path fill="none" stroke="#191970" d="M284.4354,-105.3734C283.5527,-94.7812 282.4958,-82.0976 281.7958,-73.6985"/>
<polygon fill="#191970" stroke="#191970" points="280.9514,-105.7125 285.2699,-115.3873 287.9273,-105.1311 280.9514,-105.7125"/>
</g>
<!-- Node4 -->
<g id="node4" class="node">
<title>Node4</title>
<g id="a_node4"><a xlink:href="auto_8c.html" target="_top" xlink:title="File for autonomous code. ">
<polygon fill="none" stroke="#000000" points="153.3545,-.5 153.3545,-18.5 212.7041,-18.5 212.7041,-.5 153.3545,-.5"/>
<text text-anchor="middle" x="183.0293" y="-6.5" font-family="Helvetica,sans-Serif" font-size="10.00" fill="#000000">src/auto.c</text>
</a>
</g>
</g>
<!-- Node3&#45;&gt;Node4 -->
<g id="edge3" class="edge">
<title>Node3&#45;&gt;Node4</title>
<path fill="none" stroke="#191970" d="M183.0293,-45.383C183.0293,-36.3738 183.0293,-26.0373 183.0293,-18.7795"/>
<polygon fill="#191970" stroke="#191970" points="179.5294,-45.4178 183.0293,-55.4179 186.5294,-45.4179 179.5294,-45.4178"/>
</g>
<!-- Node7&#45;&gt;Node3 -->
<g id="edge7" class="edge">
<title>Node7&#45;&gt;Node3</title>
<path fill="none" stroke="#191970" d="M342.4286,-112.5349C339.5862,-111.6768 336.764,-110.8251 334.0293,-110 292.0893,-97.3465 243.5899,-82.7365 213.1132,-73.5583"/>
<polygon fill="#191970" stroke="#191970" points="341.4875,-115.9068 352.0723,-115.447 343.511,-109.2056 341.4875,-115.9068"/>
</g>
<!-- Node7&#45;&gt;Node6 -->
<g id="edge10" class="edge">
<title>Node7&#45;&gt;Node6</title>
<path fill="none" stroke="#191970" d="M357.9189,-110.177C338.7464,-98.7874 312.5163,-83.2051 296.1825,-73.5019"/>
<polygon fill="#191970" stroke="#191970" points="356.3046,-113.289 366.6896,-115.3873 359.8798,-107.2708 356.3046,-113.289"/>
</g>
<!-- Node8 -->
<g id="node8" class="node">
<title>Node8</title>
<g id="a_node8"><a xlink:href="init_8c.html" target="_top" xlink:title="File for initialization code. ">
<polygon fill="none" stroke="#000000" points="416.6943,-55.5 416.6943,-73.5 469.3643,-73.5 469.3643,-55.5 416.6943,-55.5"/>
<text text-anchor="middle" x="443.0293" y="-61.5" font-family="Helvetica,sans-Serif" font-size="10.00" fill="#000000">src/init.c</text>
</a>
</g>
</g>
<!-- Node7&#45;&gt;Node8 -->
<g id="edge8" class="edge">
<title>Node7&#45;&gt;Node8</title>
<path fill="none" stroke="#191970" d="M398.4768,-108.3221C409.761,-97.2229 424.3294,-82.8933 433.6775,-73.6985"/>
<polygon fill="#191970" stroke="#191970" points="395.9688,-105.8796 391.2939,-115.3873 400.8775,-110.8701 395.9688,-105.8796"/>
</g>
<!-- Node9 -->
<g id="node9" class="node">
<title>Node9</title>
<g id="a_node9"><a xlink:href="lifter_8c.html" target="_top" xlink:title="src/lifter.c">
<polygon fill="none" stroke="#000000" points="486.9136,-55.5 486.9136,-73.5 545.145,-73.5 545.145,-55.5 486.9136,-55.5"/>
<text text-anchor="middle" x="516.0293" y="-61.5" font-family="Helvetica,sans-Serif" font-size="10.00" fill="#000000">src/lifter.c</text>
</a>
</g>
</g>
<!-- Node7&#45;&gt;Node9 -->
<g id="edge9" class="edge">
<title>Node7&#45;&gt;Node9</title>
<path fill="none" stroke="#191970" d="M411.6185,-111.2511C437.2263,-99.7849 473.565,-83.5139 495.9251,-73.5019"/>
<polygon fill="#191970" stroke="#191970" points="410.0775,-108.1062 402.381,-115.3873 412.9382,-114.495 410.0775,-108.1062"/>
</g>
<!-- Node10&#45;&gt;Node3 -->
<g id="edge12" class="edge">
<title>Node10&#45;&gt;Node3</title>
<path fill="none" stroke="#191970" d="M179.4578,-100.2151C180.3968,-90.8253 181.4133,-80.6598 182.1209,-73.5842"/>
<polygon fill="#191970" stroke="#191970" points="175.9637,-99.9822 178.4512,-110.2808 182.929,-100.6788 175.9637,-99.9822"/>
</g>
<!-- Node10&#45;&gt;Node6 -->
<g id="edge14" class="edge">
<title>Node10&#45;&gt;Node6</title>
<path fill="none" stroke="#191970" d="M210.113,-105.4132C228.5359,-94.7847 250.6264,-82.0402 265.2021,-73.6311"/>
<polygon fill="#191970" stroke="#191970" points="208.3255,-102.4037 201.4127,-110.4327 211.8236,-108.467 208.3255,-102.4037"/>
</g>
<!-- Node11 -->
<g id="node11" class="node">
<title>Node11</title>
<g id="a_node11"><a xlink:href="mobile__goal__intake_8c.html" target="_top" xlink:title="src/mobile_goal_intake.c">
<polygon fill="none" stroke="#000000" points="0,-55.5 0,-73.5 126.0586,-73.5 126.0586,-55.5 0,-55.5"/>
<text text-anchor="middle" x="63.0293" y="-61.5" font-family="Helvetica,sans-Serif" font-size="10.00" fill="#000000">src/mobile_goal_intake.c</text>
</a>
</g>
</g>
<!-- Node10&#45;&gt;Node11 -->
<g id="edge13" class="edge">
<title>Node10&#45;&gt;Node11</title>
<path fill="none" stroke="#191970" d="M141.3142,-105.7026C121.0111,-95.0168 96.5008,-82.1166 80.3783,-73.6311"/>
<polygon fill="#191970" stroke="#191970" points="139.822,-108.8724 150.3014,-110.4327 143.0823,-102.6779 139.822,-108.8724"/>
</g>
</g>
</svg>
        <g id="navigator" transform="translate(0 0)" fill="#404254">
                <rect fill="#f2f5e9" fill-opacity="0.5" stroke="#606060" stroke-width=".5" x="0" y="0" width="60" height="60"/>
                <use id="zoomplus" xlink:href="#zoomPlus" x="17" y="9" onmousedown="handleZoom(evt,'in')"/>
                <use id="zoomminus" xlink:href="#zoomMin" x="42" y="9" onmousedown="handleZoom(evt,'out')"/>
                <use id="reset" xlink:href="#resetDef" x="30" y="36" onmousedown="handleReset()"/>
                <g id="arrowUp" xlink:href="#dirArrow" transform="translate(30 24)" onmousedown="handlePan(0,-1)">
                  <use xlink:href="#rim" fill="#404040">
                        <set attributeName="fill" to="#808080" begin="arrowUp.mouseover" end="arrowUp.mouseout"/>
                  </use>
                  <path fill="none" stroke="white" stroke-width="1.5" d="M0,-3.0v7 M-2.5,-0.5L0,-3.0L2.5,-0.5"/>
                </g>
                <g id="arrowRight" xlink:href="#dirArrow" transform="rotate(90) translate(36 -43)" onmousedown="handlePan(1,0)">
                  <use xlink:href="#rim" fill="#404040">
                        <set attributeName="fill" to="#808080" begin="arrowRight.mouseover" end="arrowRight.mouseout"/>
                  </use>
                  <path fill="none" stroke="white" stroke-width="1.5" d="M0,-3.0v7 M-2.5,-0.5L0,-3.0L2.5,-0.5"/>
                </g>
                <g id="arrowDown" xlink:href="#dirArrow" transform="rotate(180) translate(-30 -48)" onmousedown="handlePan(0,1)">
                  <use xlink:href="#rim" fill="#404040">
                        <set attributeName="fill" to="#808080" begin="arrowDown.mouseover" end="arrowDown.mouseout"/>
                  </use>
                  <path fill="none" stroke="white" stroke-width="1.5" d="M0,-3.0v7 M-2.5,-0.5L0,-3.0L2.5,-0.5"/>
                </g>
                <g id="arrowLeft" xlink:href="#dirArrow" transform="rotate(270) translate(-36 17)" onmousedown="handlePan(-1,0)">
                  <use xlink:href="#rim" fill="#404040">
                        <set attributeName="fill" to="#808080" begin="arrowLeft.mouseover" end="arrowLeft.mouseout"/>
                  </use>
                  <path fill="none" stroke="white" stroke-width="1.5" d="M0,-3.0v7 M-2.5,-0.5L0,-3.0L2.5,-0.5"/>
                </g>
        </g>
        <svg viewBox="0 0 15 15" width="100%" height="30px" preserveAspectRatio="xMaxYMin meet">
         <g id="arrow_out" transform="scale(0.3 0.3)">
          <a xlink:href="motor__ports_8h__dep__incl_org.svg" target="_base">
           <rect id="button" ry="5" rx="5" y="6" x="6" height="38" width="38"
                fill="#f2f5e9" fill-opacity="0.5" stroke="#606060" stroke-width="1.0"/>
           <path id="arrow"
             d="M 11.500037,31.436501 C 11.940474,20.09759 22.043105,11.32322 32.158766,21.979434 L 37.068811,17.246167 C 37.068811,17.246167 37.088388,32 37.088388,32 L 22.160133,31.978069 C 22.160133,31.978069 26.997745,27.140456 26.997745,27.140456 C 18.528582,18.264221 13.291696,25.230495 11.500037,31.436501 z"
             style="fill:#404040;"/>
          </a>
         </g>
        </svg>
</svg>
