<?xml version="1.0" encoding="UTF-8" standalone="no"?>
<!DOCTYPE svg PUBLIC "-//W3C//DTD SVG 1.1//EN"
 "http://www.w3.org/Graphics/SVG/1.1/DTD/svg11.dtd">
<!-- Generated by graphviz version 2.40.1 (20161225.0304)
 -->
<!-- Title: include/motor_ports.h Pages: 1 -->
<svg width="291pt" height="137pt"
 viewBox="0.00 0.00 291.45 137.00" xmlns="http://www.w3.org/2000/svg" xmlns:xlink="http://www.w3.org/1999/xlink">
<g id="graph0" class="graph" transform="scale(1 1) rotate(0) translate(4 133)">
<title>include/motor_ports.h</title>
<!-- Node1 -->
<g id="node1" class="node">
<title>Node1</title>
<polygon fill="#bfbfbf" stroke="#000000" points="109.5913,-110.5 109.5913,-128.5 221.7534,-128.5 221.7534,-110.5 109.5913,-110.5"/>
<text text-anchor="middle" x="165.6724" y="-116.5" font-family="Helvetica,sans-Serif" font-size="10.00" fill="#000000">include/motor_ports.h</text>
</g>
<!-- Node2 -->
<g id="node2" class="node">
<title>Node2</title>
<g id="a_node2"><a xlink:href="claw_8h.html" target="_top" xlink:title="include/claw.h">
<polygon fill="none" stroke="#000000" points="30.5396,-55.5 30.5396,-73.5 108.8052,-73.5 108.8052,-55.5 30.5396,-55.5"/>
<text text-anchor="middle" x="69.6724" y="-61.5" font-family="Helvetica,sans-Serif" font-size="10.00" fill="#000000">include/claw.h</text>
</a>
</g>
</g>
<!-- Node1&#45;&gt;Node2 -->
<g id="edge1" class="edge">
<title>Node1&#45;&gt;Node2</title>
<path fill="none" stroke="#191970" d="M140.7669,-105.2313C123.3337,-95.2435 100.5645,-82.1986 85.5484,-73.5956"/>
<polygon fill="#191970" stroke="#191970" points="139.4031,-108.4836 149.8199,-110.4179 142.8829,-102.4098 139.4031,-108.4836"/>
</g>
<!-- Node5 -->
<g id="node5" class="node">
<title>Node5</title>
<g id="a_node5"><a xlink:href="lifter_8h.html" target="_top" xlink:title="include/lifter.h">
<polygon fill="none" stroke="#000000" points="127.0962,-55.5 127.0962,-73.5 204.2485,-73.5 204.2485,-55.5 127.0962,-55.5"/>
<text text-anchor="middle" x="165.6724" y="-61.5" font-family="Helvetica,sans-Serif" font-size="10.00" fill="#000000">include/lifter.h</text>
</a>
</g>
</g>
<!-- Node1&#45;&gt;Node5 -->
<g id="edge4" class="edge">
<title>Node1&#45;&gt;Node5</title>
<path fill="none" stroke="#191970" d="M165.6724,-100.383C165.6724,-91.3738 165.6724,-81.0373 165.6724,-73.7795"/>
<polygon fill="#191970" stroke="#191970" points="162.1725,-100.4178 165.6724,-110.4179 169.1725,-100.4179 162.1725,-100.4178"/>
</g>
<!-- Node7 -->
<g id="node7" class="node">
<title>Node7</title>
<g id="a_node7"><a xlink:href="drive_8c.html" target="_top" xlink:title="src/drive.c">
<polygon fill="none" stroke="#000000" points="221.8916,-55.5 221.8916,-73.5 283.4531,-73.5 283.4531,-55.5 221.8916,-55.5"/>
<text text-anchor="middle" x="252.6724" y="-61.5" font-family="Helvetica,sans-Serif" font-size="10.00" fill="#000000">src/drive.c</text>
</a>
</g>
</g>
<!-- Node1&#45;&gt;Node7 -->
<g id="edge7" class="edge">
<title>Node1&#45;&gt;Node7</title>
<path fill="none" stroke="#191970" d="M188.683,-104.953C204.4233,-95.0023 224.8024,-82.1189 238.2847,-73.5956"/>
<polygon fill="#191970" stroke="#191970" points="186.621,-102.1158 180.0386,-110.4179 190.3615,-108.0326 186.621,-102.1158"/>
</g>
<!-- Node3 -->
<g id="node3" class="node">
<title>Node3</title>
<g id="a_node3"><a xlink:href="claw_8c.html" target="_top" xlink:title="src/claw.c">
<polygon fill="none" stroke="#000000" points="0,-.5 0,-18.5 59.3447,-18.5 59.3447,-.5 0,-.5"/>
<text text-anchor="middle" x="29.6724" y="-6.5" font-family="Helvetica,sans-Serif" font-size="10.00" fill="#000000">src/claw.c</text>
</a>
</g>
</g>
<!-- Node2&#45;&gt;Node3 -->
<g id="edge2" class="edge">
<title>Node2&#45;&gt;Node3</title>
<path fill="none" stroke="#191970" d="M57.0516,-47.1465C50.218,-37.7503 42.0476,-26.5159 36.4211,-18.7795"/>
<polygon fill="#191970" stroke="#191970" points="54.3548,-49.3891 63.0672,-55.4179 60.016,-45.2719 54.3548,-49.3891"/>
</g>
<!-- Node4 -->
<g id="node4" class="node">
<title>Node4</title>
<g id="a_node4"><a xlink:href="opcontrol_8c.html" target="_top" xlink:title="File for operator control code. ">
<polygon fill="none" stroke="#000000" points="77.1602,-.5 77.1602,-18.5 158.1846,-18.5 158.1846,-.5 77.1602,-.5"/>
<text text-anchor="middle" x="117.6724" y="-6.5" font-family="Helvetica,sans-Serif" font-size="10.00" fill="#000000">src/opcontrol.c</text>
</a>
</g>
</g>
<!-- Node2&#45;&gt;Node4 -->
<g id="edge3" class="edge">
<title>Node2&#45;&gt;Node4</title>
<path fill="none" stroke="#191970" d="M84.3121,-47.7253C92.612,-38.215 102.6829,-26.6754 109.5739,-18.7795"/>
<polygon fill="#191970" stroke="#191970" points="81.537,-45.5822 77.5986,-55.4179 86.811,-50.185 81.537,-45.5822"/>
</g>
<!-- Node5&#45;&gt;Node4 -->
<g id="edge6" class="edge">
<title>Node5&#45;&gt;Node4</title>
<path fill="none" stroke="#191970" d="M151.0326,-47.7253C142.7328,-38.215 132.6618,-26.6754 125.7708,-18.7795"/>
<polygon fill="#191970" stroke="#191970" points="148.5338,-50.185 157.7461,-55.4179 153.8078,-45.5822 148.5338,-50.185"/>
</g>
<!-- Node6 -->
<g id="node6" class="node">
<title>Node6</title>
<g id="a_node6"><a xlink:href="lifter_8c.html" target="_top" xlink:title="src/lifter.c">
<polygon fill="none" stroke="#000000" points="176.5566,-.5 176.5566,-18.5 234.7881,-18.5 234.7881,-.5 176.5566,-.5"/>
<text text-anchor="middle" x="205.6724" y="-6.5" font-family="Helvetica,sans-Serif" font-size="10.00" fill="#000000">src/lifter.c</text>
</a>
</g>
</g>
<!-- Node5&#45;&gt;Node6 -->
<g id="edge5" class="edge">
<title>Node5&#45;&gt;Node6</title>
<path fill="none" stroke="#191970" d="M178.2931,-47.1465C185.1267,-37.7503 193.2972,-26.5159 198.9237,-18.7795"/>
<polygon fill="#191970" stroke="#191970" points="175.3287,-45.2719 172.2775,-55.4179 180.9899,-49.3891 175.3287,-45.2719"/>
</g>
</g>
</svg>
