<?xml version="1.0" encoding="UTF-8" standalone="no"?>
<!DOCTYPE svg PUBLIC "-//W3C//DTD SVG 1.1//EN"
 "http://www.w3.org/Graphics/SVG/1.1/DTD/svg11.dtd">
<!-- Generated by graphviz version 2.40.1 (20161225.0304)
 -->
<!-- Title: src/opcontrol.c Pages: 1 -->
<!--zoomable 357 -->
<svg id="main" version="1.1" xmlns="http://www.w3.org/2000/svg" xmlns:xlink="http://www.w3.org/1999/xlink" xml:space="preserve" onload="init(evt)">
<style type="text/css"><![CDATA[
.edge:hover path { stroke: red; }
.edge:hover polygon { stroke: red; fill: red; }
]]></style>
<script type="text/javascript"><![CDATA[
var edges = document.getElementsByTagName('g');
if (edges && edges.length) {
  for (var i=0;i<edges.length;i++) {
    if (edges[i].id.substr(0,4)=='edge') {
      edges[i].setAttribute('class','edge');
    }
  }
}
]]></script>
        <defs>
                <circle id="rim" cx="0" cy="0" r="7"/>
                <circle id="rim2" cx="0" cy="0" r="3.5"/>
                <g id="zoomPlus">
                        <use xlink:href="#rim" fill="#404040">
                                <set attributeName="fill" to="#808080" begin="zoomplus.mouseover" end="zoomplus.mouseout"/>
                        </use>
                        <path d="M-4,0h8M0,-4v8" fill="none" stroke="white" stroke-width="1.5" pointer-events="none"/>
                </g>
                <g id="zoomMin">
                        <use xlink:href="#rim" fill="#404040">
                                <set attributeName="fill" to="#808080" begin="zoomminus.mouseover" end="zoomminus.mouseout"/>
                        </use>
                        <path d="M-4,0h8" fill="none" stroke="white" stroke-width="1.5" pointer-events="none"/>
                </g>
                <g id="dirArrow">
                        <path fill="none" stroke="white" stroke-width="1.5" d="M0,-3.0v7 M-2.5,-0.5L0,-3.0L2.5,-0.5"/>
                </g>
               <g id="resetDef">
                       <use xlink:href="#rim2" fill="#404040">
                               <set attributeName="fill" to="#808080" begin="reset.mouseover" end="reset.mouseout"/>
                       </use>
               </g>
        </defs>

<script type="text/javascript">
var viewWidth = 934;
var viewHeight = 357;
var sectionId = 'dynsection-0';
</script>
<script xlink:href="svgpan.js"/>
<svg id="graph" class="graph">
<g id="viewport">
<title>src/opcontrol.c</title>
<!-- Node0 -->
<g id="node1" class="node">
<title>Node0</title>
<polygon fill="#bfbfbf" stroke="#000000" points="476.5552,-330.5 476.5552,-348.5 557.5796,-348.5 557.5796,-330.5 476.5552,-330.5"/>
<text text-anchor="middle" x="517.0674" y="-336.5" font-family="Helvetica,sans-Serif" font-size="10.00" fill="#000000">src/opcontrol.c</text>
</g>
<!-- Node1 -->
<g id="node2" class="node">
<title>Node1</title>
<g id="a_node2"><a xlink:href="main_8h.html" target="_top" xlink:title="Header file for global functions. ">
<polygon fill="none" stroke="#000000" points="43.0601,-275.5 43.0601,-293.5 89.0748,-293.5 89.0748,-275.5 43.0601,-275.5"/>
<text text-anchor="middle" x="66.0674" y="-281.5" font-family="Helvetica,sans-Serif" font-size="10.00" fill="#000000">main.h</text>
</a>
</g>
</g>
<!-- Node0&#45;&gt;Node1 -->
<g id="edge1" class="edge">
<title>Node0&#45;&gt;Node1</title>
<path fill="none" stroke="#191970" d="M476.2488,-334.5221C387.8476,-323.7415 180.1503,-298.4125 99.1949,-288.5399"/>
<polygon fill="#191970" stroke="#191970" points="99.4296,-285.0427 89.0794,-287.3063 98.5822,-291.9912 99.4296,-285.0427"/>
</g>
<!-- Node7 -->
<g id="node8" class="node">
<title>Node7</title>
<g id="a_node8"><a xlink:href="slew_8h.html" target="_top" xlink:title="Contains the slew rate controller wrapper for the motors. ">
<polygon fill="none" stroke="#000000" points="747.1685,-165.5 747.1685,-183.5 790.9664,-183.5 790.9664,-165.5 747.1685,-165.5"/>
<text text-anchor="middle" x="769.0674" y="-171.5" font-family="Helvetica,sans-Serif" font-size="10.00" fill="#000000">slew.h</text>
</a>
</g>
</g>
<!-- Node0&#45;&gt;Node7 -->
<g id="edge7" class="edge">
<title>Node0&#45;&gt;Node7</title>
<path fill="none" stroke="#191970" d="M554.275,-330.4872C619.3197,-313.8956 749.2607,-276.7482 775.0674,-239 784.1715,-225.6832 781.1899,-207.0402 776.8077,-193.2203"/>
<polygon fill="#191970" stroke="#191970" points="780.0728,-191.9576 773.3606,-183.7603 773.4959,-194.3542 780.0728,-191.9576"/>
</g>
<!-- Node11 -->
<g id="node12" class="node">
<title>Node11</title>
<g id="a_node12"><a xlink:href="drive_8h.html" target="_top" xlink:title="Drive base definitions and enumerations. ">
<polygon fill="none" stroke="#000000" points="218.0601,-220.5 218.0601,-238.5 264.0748,-238.5 264.0748,-220.5 218.0601,-220.5"/>
<text text-anchor="middle" x="241.0674" y="-226.5" font-family="Helvetica,sans-Serif" font-size="10.00" fill="#000000">drive.h</text>
</a>
</g>
</g>
<!-- Node0&#45;&gt;Node11 -->
<g id="edge14" class="edge">
<title>Node0&#45;&gt;Node11</title>
<path fill="none" stroke="#191970" d="M494.4812,-330.4982C445.6576,-311.0396 330.1335,-264.9974 273.5023,-242.4269"/>
<polygon fill="#191970" stroke="#191970" points="274.551,-239.0772 263.9658,-238.6261 271.9593,-245.5798 274.551,-239.0772"/>
</g>
<!-- Node14 -->
<g id="node15" class="node">
<title>Node14</title>
<g id="a_node15"><a xlink:href="vmath_8h.html" target="_top" xlink:title="Vex Specific Math Functions, includes: Cartesian to polar cordinates. ">
<polygon fill="none" stroke="#000000" points="794.2818,-55.5 794.2818,-73.5 845.8531,-73.5 845.8531,-55.5 794.2818,-55.5"/>
<text text-anchor="middle" x="820.0674" y="-61.5" font-family="Helvetica,sans-Serif" font-size="10.00" fill="#000000">vmath.h</text>
</a>
</g>
</g>
<!-- Node0&#45;&gt;Node14 -->
<g id="edge47" class="edge">
<title>Node0&#45;&gt;Node14</title>
<path fill="none" stroke="#191970" d="M557.8998,-334.7522C646.8204,-323.2759 850.0674,-290.385 850.0674,-229.5 850.0674,-229.5 850.0674,-229.5 850.0674,-174.5 850.0674,-141.3284 837.2123,-104.4498 828.3321,-82.9315"/>
<polygon fill="#191970" stroke="#191970" points="831.5247,-81.4957 824.3657,-73.6855 825.0916,-84.2554 831.5247,-81.4957"/>
</g>
<!-- Node15 -->
<g id="node16" class="node">
<title>Node15</title>
<g id="a_node16"><a xlink:href="lifter_8h.html" target="_top" xlink:title="Declarations and macros for controlling and manipulating the lifter. ">
<polygon fill="none" stroke="#000000" points="416.7252,-275.5 416.7252,-293.5 459.4097,-293.5 459.4097,-275.5 416.7252,-275.5"/>
<text text-anchor="middle" x="438.0674" y="-281.5" font-family="Helvetica,sans-Serif" font-size="10.00" fill="#000000">lifter.h</text>
</a>
</g>
</g>
<!-- Node0&#45;&gt;Node15 -->
<g id="edge22" class="edge">
<title>Node0&#45;&gt;Node15</title>
<path fill="none" stroke="#191970" d="M504.0222,-330.4179C491.9006,-321.9788 473.6275,-309.257 459.3868,-299.3426"/>
<polygon fill="#191970" stroke="#191970" points="461.3388,-296.4369 451.1321,-293.5956 457.3392,-302.1818 461.3388,-296.4369"/>
</g>
<!-- Node19 -->
<g id="node20" class="node">
<title>Node19</title>
<g id="a_node20"><a xlink:href="localization_8h.html" target="_top" xlink:title="Declarations and macros for determining the location of the robot. [WIP]. ">
<polygon fill="none" stroke="#000000" points="105.1612,-165.5 105.1612,-183.5 178.9737,-183.5 178.9737,-165.5 105.1612,-165.5"/>
<text text-anchor="middle" x="142.0674" y="-171.5" font-family="Helvetica,sans-Serif" font-size="10.00" fill="#000000">localization.h</text>
</a>
</g>
</g>
<!-- Node0&#45;&gt;Node19 -->
<g id="edge31" class="edge">
<title>Node0&#45;&gt;Node19</title>
<path fill="none" stroke="#191970" d="M476.4952,-332.7696C414.917,-321.1784 295.8592,-293.2832 209.0674,-239 188.2407,-225.9741 168.5048,-205.6499 155.9189,-191.3028"/>
<polygon fill="#191970" stroke="#191970" points="158.5362,-188.978 149.3806,-183.6465 153.2131,-193.5239 158.5362,-188.978"/>
</g>
<!-- Node22 -->
<g id="node23" class="node">
<title>Node22</title>
<g id="a_node23"><a xlink:href="claw_8h.html" target="_top" xlink:title="Code for controlling the claw that grabs the cones. ">
<polygon fill="none" stroke="#000000" points="574.1685,-220.5 574.1685,-238.5 617.9664,-238.5 617.9664,-220.5 574.1685,-220.5"/>
<text text-anchor="middle" x="596.0674" y="-226.5" font-family="Helvetica,sans-Serif" font-size="10.00" fill="#000000">claw.h</text>
</a>
</g>
</g>
<!-- Node0&#45;&gt;Node22 -->
<g id="edge37" class="edge">
<title>Node0&#45;&gt;Node22</title>
<path fill="none" stroke="#191970" d="M523.5323,-330.4982C536.6103,-312.2885 566.4079,-270.798 583.4636,-247.0496"/>
<polygon fill="#191970" stroke="#191970" points="586.5227,-248.7902 589.5132,-238.6261 580.837,-244.7068 586.5227,-248.7902"/>
</g>
<!-- Node23 -->
<g id="node24" class="node">
<title>Node23</title>
<g id="a_node24"><a xlink:href="mobile__goal__intake_8h.html" target="_top" xlink:title="mobile_goal_intake.h">
<polygon fill="none" stroke="#000000" points="635.8116,-220.5 635.8116,-238.5 746.3233,-238.5 746.3233,-220.5 635.8116,-220.5"/>
<text text-anchor="middle" x="691.0674" y="-226.5" font-family="Helvetica,sans-Serif" font-size="10.00" fill="#000000">mobile_goal_intake.h</text>
</a>
</g>
</g>
<!-- Node0&#45;&gt;Node23 -->
<g id="edge43" class="edge">
<title>Node0&#45;&gt;Node23</title>
<path fill="none" stroke="#191970" d="M531.3066,-330.4982C561.3857,-311.4827 631.6216,-267.0807 668.1232,-244.005"/>
<polygon fill="#191970" stroke="#191970" points="670.0492,-246.9282 676.6315,-238.6261 666.3087,-241.0114 670.0492,-246.9282"/>
</g>
<!-- Node2 -->
<g id="node3" class="node">
<title>Node2</title>
<g id="a_node3"><a xlink:href="_a_p_i_8h.html" target="_top" xlink:title="Provides the high&#45;level user functionality intended for use by typical VEX Cortex programmers...">
<polygon fill="none" stroke="#000000" points="304.8384,-55.5 304.8384,-73.5 345.2964,-73.5 345.2964,-55.5 304.8384,-55.5"/>
<text text-anchor="middle" x="325.0674" y="-61.5" font-family="Helvetica,sans-Serif" font-size="10.00" fill="#000000">API.h</text>
</a>
</g>
</g>
<!-- Node1&#45;&gt;Node2 -->
<g id="edge2" class="edge">
<title>Node1&#45;&gt;Node2</title>
<path fill="none" stroke="#191970" d="M58.1888,-275.2946C35.0057,-247.0757 -28.6767,-160.6333 15.0674,-110 33.2434,-88.9615 220.1016,-72.5071 294.6255,-66.733"/>
<polygon fill="#191970" stroke="#191970" points="295.0674,-70.2095 304.7723,-65.9593 294.5351,-63.2298 295.0674,-70.2095"/>
</g>
<!-- Node3 -->
<g id="node4" class="node">
<title>Node3</title>
<polygon fill="none" stroke="#bfbfbf" points="195.2252,-.5 195.2252,-18.5 242.9097,-18.5 242.9097,-.5 195.2252,-.5"/>
<text text-anchor="middle" x="219.0674" y="-6.5" font-family="Helvetica,sans-Serif" font-size="10.00" fill="#000000">stdlib.h</text>
</g>
<!-- Node2&#45;&gt;Node3 -->
<g id="edge3" class="edge">
<title>Node2&#45;&gt;Node3</title>
<path fill="none" stroke="#191970" d="M307.5637,-55.4179C290.6855,-46.6603 264.9187,-33.2907 245.5338,-23.2326"/>
<polygon fill="#191970" stroke="#191970" points="247.0855,-20.0946 236.5972,-18.5956 243.8615,-26.308 247.0855,-20.0946"/>
</g>
<!-- Node4 -->
<g id="node5" class="node">
<title>Node4</title>
<polygon fill="none" stroke="#bfbfbf" points="260.7745,-.5 260.7745,-18.5 317.3604,-18.5 317.3604,-.5 260.7745,-.5"/>
<text text-anchor="middle" x="289.0674" y="-6.5" font-family="Helvetica,sans-Serif" font-size="10.00" fill="#000000">stdbool.h</text>
</g>
<!-- Node2&#45;&gt;Node4 -->
<g id="edge4" class="edge">
<title>Node2&#45;&gt;Node4</title>
<path fill="none" stroke="#191970" d="M319.1228,-55.4179C314.1501,-47.8207 306.9056,-36.7527 300.775,-27.3866"/>
<polygon fill="#191970" stroke="#191970" points="303.5464,-25.2297 295.1413,-18.7795 297.6894,-29.0633 303.5464,-25.2297"/>
</g>
<!-- Node5 -->
<g id="node6" class="node">
<title>Node5</title>
<polygon fill="none" stroke="#bfbfbf" points="335.001,-.5 335.001,-18.5 387.1338,-18.5 387.1338,-.5 335.001,-.5"/>
<text text-anchor="middle" x="361.0674" y="-6.5" font-family="Helvetica,sans-Serif" font-size="10.00" fill="#000000">stdarg.h</text>
</g>
<!-- Node2&#45;&gt;Node5 -->
<g id="edge5" class="edge">
<title>Node2&#45;&gt;Node5</title>
<path fill="none" stroke="#191970" d="M331.0121,-55.4179C335.9848,-47.8207 343.2293,-36.7527 349.3598,-27.3866"/>
<polygon fill="#191970" stroke="#191970" points="352.4454,-29.0633 354.9936,-18.7795 346.5885,-25.2297 352.4454,-29.0633"/>
</g>
<!-- Node6 -->
<g id="node7" class="node">
<title>Node6</title>
<polygon fill="none" stroke="#bfbfbf" points="404.9468,-.5 404.9468,-18.5 453.188,-18.5 453.188,-.5 404.9468,-.5"/>
<text text-anchor="middle" x="429.0674" y="-6.5" font-family="Helvetica,sans-Serif" font-size="10.00" fill="#000000">stdint.h</text>
</g>
<!-- Node2&#45;&gt;Node6 -->
<g id="edge6" class="edge">
<title>Node2&#45;&gt;Node6</title>
<path fill="none" stroke="#191970" d="M342.2409,-55.4179C358.7254,-46.7001 383.8517,-33.4122 402.8407,-23.3699"/>
<polygon fill="#191970" stroke="#191970" points="404.6647,-26.3646 411.8684,-18.5956 401.3922,-20.1767 404.6647,-26.3646"/>
</g>
<!-- Node7&#45;&gt;Node2 -->
<g id="edge8" class="edge">
<title>Node7&#45;&gt;Node2</title>
<path fill="none" stroke="#191970" d="M761.5953,-165.0956C749.4045,-150.5074 723.7048,-122.7762 695.0674,-110 634.3841,-82.927 432.9964,-70.0111 355.67,-65.9596"/>
<polygon fill="#191970" stroke="#191970" points="355.7752,-62.4605 345.6098,-65.4461 355.4184,-69.4514 355.7752,-62.4605"/>
</g>
<!-- Node8 -->
<g id="node9" class="node">
<title>Node8</title>
<polygon fill="none" stroke="#bfbfbf" points="769.7818,-.5 769.7818,-18.5 816.3531,-18.5 816.3531,-.5 769.7818,-.5"/>
<text text-anchor="middle" x="793.0674" y="-6.5" font-family="Helvetica,sans-Serif" font-size="10.00" fill="#000000">math.h</text>
</g>
<!-- Node7&#45;&gt;Node8 -->
<g id="edge9" class="edge">
<title>Node7&#45;&gt;Node8</title>
<path fill="none" stroke="#191970" d="M770.1462,-165.4874C772.5618,-145.5402 778.6956,-96.1638 785.0674,-55 786.417,-46.2813 788.0839,-36.6545 789.5461,-28.5098"/>
<polygon fill="#191970" stroke="#191970" points="793.0121,-29.0123 791.3643,-18.5464 786.1259,-27.7556 793.0121,-29.0123"/>
</g>
<!-- Node9 -->
<g id="node10" class="node">
<title>Node9</title>
<g id="a_node10"><a xlink:href="vlib_8h.html" target="_top" xlink:title="Contains misc helpful functions. ">
<polygon fill="none" stroke="#000000" points="878.3951,-110.5 878.3951,-128.5 917.7398,-128.5 917.7398,-110.5 878.3951,-110.5"/>
<text text-anchor="middle" x="898.0674" y="-116.5" font-family="Helvetica,sans-Serif" font-size="10.00" fill="#000000">vlib.h</text>
</a>
</g>
</g>
<!-- Node7&#45;&gt;Node9 -->
<g id="edge10" class="edge">
<title>Node7&#45;&gt;Node9</title>
<path fill="none" stroke="#191970" d="M790.3692,-165.4179C811.7538,-156.3004 844.8632,-142.184 868.7265,-132.0097"/>
<polygon fill="#191970" stroke="#191970" points="870.1824,-135.1939 878.0085,-128.0522 867.437,-128.7547 870.1824,-135.1939"/>
</g>
<!-- Node9&#45;&gt;Node2 -->
<g id="edge12" class="edge">
<title>Node9&#45;&gt;Node2</title>
<path fill="none" stroke="#191970" d="M878.3435,-117.6068C793.3851,-109.452 458.324,-77.2908 355.3418,-67.4059"/>
<polygon fill="#191970" stroke="#191970" points="355.5904,-63.9138 345.3017,-66.4422 354.9215,-70.8818 355.5904,-63.9138"/>
</g>
<!-- Node9&#45;&gt;Node8 -->
<g id="edge11" class="edge">
<title>Node9&#45;&gt;Node8</title>
<path fill="none" stroke="#191970" d="M906.2079,-110.4438C917.0235,-97.2684 933.4075,-72.483 921.0674,-55 909.9132,-39.1971 860.5018,-24.9652 826.439,-16.779"/>
<polygon fill="#191970" stroke="#191970" points="826.954,-13.3052 816.4199,-14.4376 825.361,-20.1215 826.954,-13.3052"/>
</g>
<!-- Node10 -->
<g id="node11" class="node">
<title>Node10</title>
<polygon fill="none" stroke="#bfbfbf" points="863.671,-55.5 863.671,-73.5 912.4639,-73.5 912.4639,-55.5 863.671,-55.5"/>
<text text-anchor="middle" x="888.0674" y="-61.5" font-family="Helvetica,sans-Serif" font-size="10.00" fill="#000000">string.h</text>
</g>
<!-- Node9&#45;&gt;Node10 -->
<g id="edge13" class="edge">
<title>Node9&#45;&gt;Node10</title>
<path fill="none" stroke="#191970" d="M896.4161,-110.4179C895.1068,-103.2164 893.2304,-92.8962 891.588,-83.8632"/>
<polygon fill="#191970" stroke="#191970" points="894.9871,-82.992 889.7546,-73.7795 888.1,-84.2443 894.9871,-82.992"/>
</g>
<!-- Node11&#45;&gt;Node2 -->
<g id="edge15" class="edge">
<title>Node11&#45;&gt;Node2</title>
<path fill="none" stroke="#191970" d="M243.6018,-220.3736C249.541,-199.7802 265.5763,-148.4986 288.0674,-110 294.0764,-99.7143 302.3213,-89.3265 309.5031,-81.0783"/>
<polygon fill="#191970" stroke="#191970" points="312.1214,-83.4011 316.2085,-73.6263 306.9178,-78.7189 312.1214,-83.4011"/>
</g>
<!-- Node12 -->
<g id="node13" class="node">
<title>Node12</title>
<g id="a_node13"><a xlink:href="partner_8h.html" target="_top" xlink:title="partner.h">
<polygon fill="none" stroke="#000000" points="325.3287,-165.5 325.3287,-183.5 380.8062,-183.5 380.8062,-165.5 325.3287,-165.5"/>
<text text-anchor="middle" x="353.0674" y="-171.5" font-family="Helvetica,sans-Serif" font-size="10.00" fill="#000000">partner.h</text>
</a>
</g>
</g>
<!-- Node11&#45;&gt;Node12 -->
<g id="edge16" class="edge">
<title>Node11&#45;&gt;Node12</title>
<path fill="none" stroke="#191970" d="M259.562,-220.4179C277.4766,-211.6205 304.8685,-198.1691 325.3818,-188.0956"/>
<polygon fill="#191970" stroke="#191970" points="327.1121,-191.1452 334.5454,-183.5956 324.0265,-184.8619 327.1121,-191.1452"/>
</g>
<!-- Node12&#45;&gt;Node2 -->
<g id="edge21" class="edge">
<title>Node12&#45;&gt;Node2</title>
<path fill="none" stroke="#191970" d="M350.7761,-165.4982C346.2229,-147.6108 335.9517,-107.2594 329.8598,-83.3271"/>
<polygon fill="#191970" stroke="#191970" points="333.2492,-82.4537 327.3905,-73.6261 326.4655,-84.1805 333.2492,-82.4537"/>
</g>
<!-- Node13 -->
<g id="node14" class="node">
<title>Node13</title>
<g id="a_node14"><a xlink:href="controller_8h.html" target="_top" xlink:title="controller definitions, macros and functions to assist with usig the vex controllers. ">
<polygon fill="none" stroke="#000000" points="447.607,-110.5 447.607,-128.5 512.5279,-128.5 512.5279,-110.5 447.607,-110.5"/>
<text text-anchor="middle" x="480.0674" y="-116.5" font-family="Helvetica,sans-Serif" font-size="10.00" fill="#000000">controller.h</text>
</a>
</g>
</g>
<!-- Node12&#45;&gt;Node13 -->
<g id="edge17" class="edge">
<title>Node12&#45;&gt;Node13</title>
<path fill="none" stroke="#191970" d="M374.0389,-165.4179C394.6286,-156.5011 426.2586,-142.803 449.6169,-132.6873"/>
<polygon fill="#191970" stroke="#191970" points="451.2793,-135.7815 459.0648,-128.5956 448.4974,-129.358 451.2793,-135.7815"/>
</g>
<!-- Node13&#45;&gt;Node2 -->
<g id="edge20" class="edge">
<title>Node13&#45;&gt;Node2</title>
<path fill="none" stroke="#191970" d="M454.4723,-110.4179C427.244,-100.7562 384.1959,-85.4811 355.3121,-75.232"/>
<polygon fill="#191970" stroke="#191970" points="356.3301,-71.8794 345.7354,-71.8338 353.9892,-78.4764 356.3301,-71.8794"/>
</g>
<!-- Node13&#45;&gt;Node14 -->
<g id="edge18" class="edge">
<title>Node13&#45;&gt;Node14</title>
<path fill="none" stroke="#191970" d="M512.6681,-114.2264C576.5646,-103.8902 717.811,-81.0415 784.2284,-70.2975"/>
<polygon fill="#191970" stroke="#191970" points="784.9095,-73.7329 794.2222,-68.6808 783.7916,-66.8227 784.9095,-73.7329"/>
</g>
<!-- Node14&#45;&gt;Node8 -->
<g id="edge19" class="edge">
<title>Node14&#45;&gt;Node8</title>
<path fill="none" stroke="#191970" d="M815.6089,-55.4179C811.9571,-47.9789 806.6717,-37.2123 802.1366,-27.9742"/>
<polygon fill="#191970" stroke="#191970" points="805.1714,-26.2138 797.6228,-18.7795 798.8878,-29.2985 805.1714,-26.2138"/>
</g>
<!-- Node15&#45;&gt;Node2 -->
<g id="edge23" class="edge">
<title>Node15&#45;&gt;Node2</title>
<path fill="none" stroke="#191970" d="M416.9039,-275.3681C386.9581,-261.0408 333.8791,-230.0718 316.0674,-184 303.0556,-150.3435 311.8055,-107.4412 318.8027,-83.2691"/>
<polygon fill="#191970" stroke="#191970" points="322.1879,-84.1696 321.8099,-73.5815 315.5026,-82.0944 322.1879,-84.1696"/>
</g>
<!-- Node15&#45;&gt;Node7 -->
<g id="edge26" class="edge">
<title>Node15&#45;&gt;Node7</title>
<path fill="none" stroke="#191970" d="M459.5815,-282.8265C527.3736,-277.3616 733.3501,-259.224 755.0674,-239 767.2424,-227.6622 770.1106,-208.4384 770.3125,-193.9203"/>
<polygon fill="#191970" stroke="#191970" points="773.8005,-193.4275 770.0296,-183.5265 766.8031,-193.618 773.8005,-193.4275"/>
</g>
<!-- Node15&#45;&gt;Node11 -->
<g id="edge30" class="edge">
<title>Node15&#45;&gt;Node11</title>
<path fill="none" stroke="#191970" d="M416.61,-278.5093C382.2274,-268.9101 314.5483,-250.015 274.0079,-238.6966"/>
<polygon fill="#191970" stroke="#191970" points="274.8954,-235.3106 264.3225,-235.9925 273.013,-242.0527 274.8954,-235.3106"/>
</g>
<!-- Node15&#45;&gt;Node12 -->
<g id="edge29" class="edge">
<title>Node15&#45;&gt;Node12</title>
<path fill="none" stroke="#191970" d="M422.4539,-275.4119C409.6141,-267.2673 391.7008,-254.2708 380.0674,-239 369.619,-225.2847 362.4534,-206.9342 358.1441,-193.3135"/>
<polygon fill="#191970" stroke="#191970" points="361.4636,-192.195 355.2923,-183.583 354.7461,-194.1637 361.4636,-192.195"/>
</g>
<!-- Node15&#45;&gt;Node13 -->
<g id="edge27" class="edge">
<title>Node15&#45;&gt;Node13</title>
<path fill="none" stroke="#191970" d="M454.536,-275.3194C473.7175,-263.3627 501.3134,-241.4466 489.0674,-220 473.4577,-192.6623 443.6772,-211.3377 428.0674,-184 423.8802,-176.6668 424.5781,-172.6898 428.0674,-165 433.7214,-152.54 444.6601,-142.1506 455.0518,-134.4602"/>
<polygon fill="#191970" stroke="#191970" points="457.2574,-137.1916 463.5242,-128.6489 453.2979,-131.4191 457.2574,-137.1916"/>
</g>
<!-- Node16 -->
<g id="node17" class="node">
<title>Node16</title>
<g id="a_node17"><a xlink:href="motor__ports_8h.html" target="_top" xlink:title="The motor port definitionsMacros for the different motors ports. ">
<polygon fill="none" stroke="#000000" points="575.2203,-165.5 575.2203,-183.5 652.9146,-183.5 652.9146,-165.5 575.2203,-165.5"/>
<text text-anchor="middle" x="614.0674" y="-171.5" font-family="Helvetica,sans-Serif" font-size="10.00" fill="#000000">motor_ports.h</text>
</a>
</g>
</g>
<!-- Node15&#45;&gt;Node16 -->
<g id="edge24" class="edge">
<title>Node15&#45;&gt;Node16</title>
<path fill="none" stroke="#191970" d="M456.1028,-275.4946C473.3461,-266.7074 499.9224,-252.6976 522.0674,-239 547.5868,-223.2153 575.6559,-203.1114 593.9962,-189.5783"/>
<polygon fill="#191970" stroke="#191970" points="596.2241,-192.2834 602.1643,-183.5104 592.0498,-186.6642 596.2241,-192.2834"/>
</g>
<!-- Node17 -->
<g id="node18" class="node">
<title>Node17</title>
<g id="a_node18"><a xlink:href="sensor__ports_8h.html" target="_top" xlink:title="sensor_ports.h">
<polygon fill="none" stroke="#000000" points="436.9937,-165.5 436.9937,-183.5 519.1412,-183.5 519.1412,-165.5 436.9937,-165.5"/>
<text text-anchor="middle" x="478.0674" y="-171.5" font-family="Helvetica,sans-Serif" font-size="10.00" fill="#000000">sensor_ports.h</text>
</a>
</g>
</g>
<!-- Node15&#45;&gt;Node17 -->
<g id="edge25" class="edge">
<title>Node15&#45;&gt;Node17</title>
<path fill="none" stroke="#191970" d="M421.7023,-275.3901C402.2624,-263.3336 374.0086,-241.1296 387.0674,-220 396.6155,-204.5509 413.1736,-194.1719 429.5703,-187.2825"/>
<polygon fill="#191970" stroke="#191970" points="431.0621,-190.4592 439.1516,-183.6174 428.5611,-183.9212 431.0621,-190.4592"/>
</g>
<!-- Node18 -->
<g id="node19" class="node">
<title>Node18</title>
<g id="a_node19"><a xlink:href="potentiometer_8h.html" target="_top" xlink:title="potentiometer.h">
<polygon fill="none" stroke="#000000" points="395.5972,-220.5 395.5972,-238.5 480.5377,-238.5 480.5377,-220.5 395.5972,-220.5"/>
<text text-anchor="middle" x="438.0674" y="-226.5" font-family="Helvetica,sans-Serif" font-size="10.00" fill="#000000">potentiometer.h</text>
</a>
</g>
</g>
<!-- Node15&#45;&gt;Node18 -->
<g id="edge28" class="edge">
<title>Node15&#45;&gt;Node18</title>
<path fill="none" stroke="#191970" d="M438.0674,-275.4179C438.0674,-268.2164 438.0674,-257.8962 438.0674,-248.8632"/>
<polygon fill="#191970" stroke="#191970" points="441.5675,-248.7794 438.0674,-238.7795 434.5675,-248.7795 441.5675,-248.7794"/>
</g>
<!-- Node19&#45;&gt;Node2 -->
<g id="edge32" class="edge">
<title>Node19&#45;&gt;Node2</title>
<path fill="none" stroke="#191970" d="M142.1168,-165.1834C142.7104,-151.2166 145.9257,-124.9038 161.0674,-110 179.9466,-91.4175 252.8334,-76.5447 294.8114,-69.301"/>
<polygon fill="#191970" stroke="#191970" points="295.4855,-72.7368 304.7661,-67.6261 294.324,-65.8339 295.4855,-72.7368"/>
</g>
<!-- Node19&#45;&gt;Node8 -->
<g id="edge35" class="edge">
<title>Node19&#45;&gt;Node8</title>
<path fill="none" stroke="#191970" d="M139.7242,-165.1021C136.9229,-151.5009 133.9967,-126.1905 146.0674,-110 188.5091,-53.073 226.7933,-70.5907 296.0674,-55 384.8772,-35.0126 662.7277,-17.1828 759.4609,-11.4343"/>
<polygon fill="#191970" stroke="#191970" points="759.78,-14.9217 769.5567,-10.8393 759.3681,-7.9338 759.78,-14.9217"/>
</g>
<!-- Node20 -->
<g id="node21" class="node">
<title>Node20</title>
<g id="a_node21"><a xlink:href="encoders_8h.html" target="_top" xlink:title="wrapper around encoder functions ">
<polygon fill="none" stroke="#000000" points="170.3287,-110.5 170.3287,-128.5 235.8062,-128.5 235.8062,-110.5 170.3287,-110.5"/>
<text text-anchor="middle" x="203.0674" y="-116.5" font-family="Helvetica,sans-Serif" font-size="10.00" fill="#000000">encoders.h</text>
</a>
</g>
</g>
<!-- Node19&#45;&gt;Node20 -->
<g id="edge33" class="edge">
<title>Node19&#45;&gt;Node20</title>
<path fill="none" stroke="#191970" d="M152.1403,-165.4179C161.093,-157.3458 174.3912,-145.3556 185.1538,-135.6517"/>
<polygon fill="#191970" stroke="#191970" points="187.6925,-138.0753 192.7757,-128.7795 183.005,-132.8764 187.6925,-138.0753"/>
</g>
<!-- Node21 -->
<g id="node22" class="node">
<title>Node21</title>
<g id="a_node22"><a xlink:href="matrix_8h.html" target="_top" xlink:title="Various Matrix operations.None of the matrix operations below change the input matrices if an input i...">
<polygon fill="none" stroke="#000000" points="24.2867,-110.5 24.2867,-128.5 75.8482,-128.5 75.8482,-110.5 24.2867,-110.5"/>
<text text-anchor="middle" x="50.0674" y="-116.5" font-family="Helvetica,sans-Serif" font-size="10.00" fill="#000000">matrix.h</text>
</a>
</g>
</g>
<!-- Node19&#45;&gt;Node21 -->
<g id="edge36" class="edge">
<title>Node19&#45;&gt;Node21</title>
<path fill="none" stroke="#191970" d="M126.8755,-165.4179C112.4928,-156.8195 90.6735,-143.7754 73.9614,-133.7844"/>
<polygon fill="#191970" stroke="#191970" points="75.661,-130.7228 65.2819,-128.5956 72.0692,-136.731 75.661,-130.7228"/>
</g>
<!-- Node20&#45;&gt;Node2 -->
<g id="edge34" class="edge">
<title>Node20&#45;&gt;Node2</title>
<path fill="none" stroke="#191970" d="M223.2133,-110.4179C242.904,-101.5409 273.106,-87.9253 295.5147,-77.823"/>
<polygon fill="#191970" stroke="#191970" points="297.2137,-80.8963 304.8917,-73.5956 294.3368,-74.5148 297.2137,-80.8963"/>
</g>
<!-- Node22&#45;&gt;Node2 -->
<g id="edge39" class="edge">
<title>Node22&#45;&gt;Node2</title>
<path fill="none" stroke="#191970" d="M618.1761,-220.3709C642.8836,-208.7999 677.5241,-187.6201 662.0674,-165 626.7025,-113.2449 431.2485,-79.8563 355.279,-68.6688"/>
<polygon fill="#191970" stroke="#191970" points="355.7794,-65.2048 345.3815,-67.2379 354.7778,-72.1328 355.7794,-65.2048"/>
</g>
<!-- Node22&#45;&gt;Node7 -->
<g id="edge38" class="edge">
<title>Node22&#45;&gt;Node7</title>
<path fill="none" stroke="#191970" d="M617.978,-222.5342C648.1828,-212.9315 702.7993,-195.5679 737.4328,-184.5573"/>
<polygon fill="#191970" stroke="#191970" points="738.5927,-187.8612 747.0622,-181.4959 736.4718,-181.1902 738.5927,-187.8612"/>
</g>
<!-- Node22&#45;&gt;Node13 -->
<g id="edge40" class="edge">
<title>Node22&#45;&gt;Node13</title>
<path fill="none" stroke="#191970" d="M586.5747,-220.4982C567.0318,-201.9662 522.0616,-159.3221 497.2624,-135.8056"/>
<polygon fill="#191970" stroke="#191970" points="499.356,-132.9674 489.6914,-128.6261 494.5393,-138.0468 499.356,-132.9674"/>
</g>
<!-- Node22&#45;&gt;Node16 -->
<g id="edge41" class="edge">
<title>Node22&#45;&gt;Node16</title>
<path fill="none" stroke="#191970" d="M599.0398,-220.4179C601.4225,-213.1372 604.8485,-202.669 607.8277,-193.5659"/>
<polygon fill="#191970" stroke="#191970" points="611.2465,-194.3721 611.0305,-183.7795 604.5937,-192.1948 611.2465,-194.3721"/>
</g>
<!-- Node22&#45;&gt;Node17 -->
<g id="edge42" class="edge">
<title>Node22&#45;&gt;Node17</title>
<path fill="none" stroke="#191970" d="M576.5821,-220.4179C557.537,-211.5409 528.3253,-197.9253 506.6512,-187.823"/>
<polygon fill="#191970" stroke="#191970" points="508.1241,-184.648 497.5817,-183.5956 505.1668,-190.9927 508.1241,-184.648"/>
</g>
<!-- Node23&#45;&gt;Node7 -->
<g id="edge46" class="edge">
<title>Node23&#45;&gt;Node7</title>
<path fill="none" stroke="#191970" d="M703.9476,-220.4179C715.8028,-212.0584 733.6177,-199.4966 747.619,-189.6239"/>
<polygon fill="#191970" stroke="#191970" points="750.0126,-192.2188 756.1682,-183.5956 745.9786,-186.498 750.0126,-192.2188"/>
</g>
<!-- Node23&#45;&gt;Node13 -->
<g id="edge45" class="edge">
<title>Node23&#45;&gt;Node13</title>
<path fill="none" stroke="#191970" d="M689.4952,-220.0415C686.6336,-205.8892 679.2067,-179.3375 662.0674,-165 641.1211,-147.4778 569.5202,-133.3876 522.6164,-125.7519"/>
<polygon fill="#191970" stroke="#191970" points="523.1462,-122.2922 512.7203,-124.1765 522.0457,-129.2052 523.1462,-122.2922"/>
</g>
<!-- Node23&#45;&gt;Node16 -->
<g id="edge44" class="edge">
<title>Node23&#45;&gt;Node16</title>
<path fill="none" stroke="#191970" d="M678.3525,-220.4179C666.6492,-212.0584 649.0627,-199.4966 635.2409,-189.6239"/>
<polygon fill="#191970" stroke="#191970" points="636.973,-186.56 626.8013,-183.5956 632.9043,-192.2561 636.973,-186.56"/>
</g>
</g>
</svg>
        <g id="navigator" transform="translate(0 0)" fill="#404254">
                <rect fill="#f2f5e9" fill-opacity="0.5" stroke="#606060" stroke-width=".5" x="0" y="0" width="60" height="60"/>
                <use id="zoomplus" xlink:href="#zoomPlus" x="17" y="9" onmousedown="handleZoom(evt,'in')"/>
                <use id="zoomminus" xlink:href="#zoomMin" x="42" y="9" onmousedown="handleZoom(evt,'out')"/>
                <use id="reset" xlink:href="#resetDef" x="30" y="36" onmousedown="handleReset()"/>
                <g id="arrowUp" xlink:href="#dirArrow" transform="translate(30 24)" onmousedown="handlePan(0,-1)">
                  <use xlink:href="#rim" fill="#404040">
                        <set attributeName="fill" to="#808080" begin="arrowUp.mouseover" end="arrowUp.mouseout"/>
                  </use>
                  <path fill="none" stroke="white" stroke-width="1.5" d="M0,-3.0v7 M-2.5,-0.5L0,-3.0L2.5,-0.5"/>
                </g>
                <g id="arrowRight" xlink:href="#dirArrow" transform="rotate(90) translate(36 -43)" onmousedown="handlePan(1,0)">
                  <use xlink:href="#rim" fill="#404040">
                        <set attributeName="fill" to="#808080" begin="arrowRight.mouseover" end="arrowRight.mouseout"/>
                  </use>
                  <path fill="none" stroke="white" stroke-width="1.5" d="M0,-3.0v7 M-2.5,-0.5L0,-3.0L2.5,-0.5"/>
                </g>
                <g id="arrowDown" xlink:href="#dirArrow" transform="rotate(180) translate(-30 -48)" onmousedown="handlePan(0,1)">
                  <use xlink:href="#rim" fill="#404040">
                        <set attributeName="fill" to="#808080" begin="arrowDown.mouseover" end="arrowDown.mouseout"/>
                  </use>
                  <path fill="none" stroke="white" stroke-width="1.5" d="M0,-3.0v7 M-2.5,-0.5L0,-3.0L2.5,-0.5"/>
                </g>
                <g id="arrowLeft" xlink:href="#dirArrow" transform="rotate(270) translate(-36 17)" onmousedown="handlePan(-1,0)">
                  <use xlink:href="#rim" fill="#404040">
                        <set attributeName="fill" to="#808080" begin="arrowLeft.mouseover" end="arrowLeft.mouseout"/>
                  </use>
                  <path fill="none" stroke="white" stroke-width="1.5" d="M0,-3.0v7 M-2.5,-0.5L0,-3.0L2.5,-0.5"/>
                </g>
        </g>
        <svg viewBox="0 0 15 15" width="100%" height="30px" preserveAspectRatio="xMaxYMin meet">
         <g id="arrow_out" transform="scale(0.3 0.3)">
          <a xlink:href="opcontrol_8c__incl_org.svg" target="_base">
           <rect id="button" ry="5" rx="5" y="6" x="6" height="38" width="38"
                fill="#f2f5e9" fill-opacity="0.5" stroke="#606060" stroke-width="1.0"/>
           <path id="arrow"
             d="M 11.500037,31.436501 C 11.940474,20.09759 22.043105,11.32322 32.158766,21.979434 L 37.068811,17.246167 C 37.068811,17.246167 37.088388,32 37.088388,32 L 22.160133,31.978069 C 22.160133,31.978069 26.997745,27.140456 26.997745,27.140456 C 18.528582,18.264221 13.291696,25.230495 11.500037,31.436501 z"
             style="fill:#404040;"/>
          </a>
         </g>
        </svg>
</svg>
