<?xml version="1.0" encoding="UTF-8" standalone="no"?>
<!DOCTYPE svg PUBLIC "-//W3C//DTD SVG 1.1//EN"
 "http://www.w3.org/Graphics/SVG/1.1/DTD/svg11.dtd">
<!-- Generated by graphviz version 2.40.1 (20161225.0304)
 -->
<!-- Title: operatorControl Pages: 1 -->
<svg width="1073pt" height="614pt"
 viewBox="0.00 0.00 1072.55 614.30" xmlns="http://www.w3.org/2000/svg" xmlns:xlink="http://www.w3.org/1999/xlink">
<g id="graph0" class="graph" transform="scale(1 1) rotate(0) translate(4 610.299)">
<title>operatorControl</title>
<!-- Node0 -->
<g id="node1" class="node">
<title>Node0</title>
<polygon fill="#bfbfbf" stroke="#000000" points="0,-301.5 0,-319.5 85.4824,-319.5 85.4824,-301.5 0,-301.5"/>
<text text-anchor="middle" x="42.7412" y="-307.5" font-family="Helvetica,sans-Serif" font-size="10.00" fill="#000000">operatorControl</text>
</g>
<!-- Node1 -->
<g id="node2" class="node">
<title>Node1</title>
<g id="a_node2"><a xlink:href="_a_p_i_8h.html#a1c59207742a1acf45a8957d7f04f9dfe" target="_top" xlink:title="delay">
<polygon fill="none" stroke="#000000" points="156.502,-526.5 156.502,-544.5 196.4082,-544.5 196.4082,-526.5 156.502,-526.5"/>
<text text-anchor="middle" x="176.4551" y="-532.5" font-family="Helvetica,sans-Serif" font-size="10.00" fill="#000000">delay</text>
</a>
</g>
</g>
<!-- Node0&#45;&gt;Node1 -->
<g id="edge1" class="edge">
<title>Node0&#45;&gt;Node1</title>
<path fill="none" stroke="#191970" d="M43.8537,-319.8481C48.0454,-351.1309 65.606,-453.4434 121.4824,-511.5 128.3766,-518.6632 137.774,-523.8215 146.8487,-527.474"/>
<polygon fill="#191970" stroke="#191970" points="145.8407,-530.83 156.4355,-530.87 148.1781,-524.2317 145.8407,-530.83"/>
</g>
<!-- Node2 -->
<g id="node3" class="node">
<title>Node2</title>
<g id="a_node3"><a xlink:href="slew_8h.html#a321758941d88b75783955c819bb75005" target="_top" xlink:title="Initializes the slew rate controller. ">
<polygon fill="none" stroke="#000000" points="676.3281,-487.5 676.3281,-505.5 730.6777,-505.5 730.6777,-487.5 676.3281,-487.5"/>
<text text-anchor="middle" x="703.5029" y="-493.5" font-family="Helvetica,sans-Serif" font-size="10.00" fill="#000000">init_slew</text>
</a>
</g>
</g>
<!-- Node0&#45;&gt;Node2 -->
<g id="edge2" class="edge">
<title>Node0&#45;&gt;Node2</title>
<path fill="none" stroke="#191970" d="M46.871,-319.7133C56.7674,-340.8123 83.8426,-393.0762 121.4824,-422.5 194.3003,-479.4232 223.0206,-497.5 315.4473,-497.5 315.4473,-497.5 315.4473,-497.5 445.8213,-497.5 524.1324,-497.5 615.8296,-497.0324 665.9913,-496.7367"/>
<polygon fill="#191970" stroke="#191970" points="666.0662,-500.2365 676.045,-496.6765 666.0242,-493.2366 666.0662,-500.2365"/>
</g>
<!-- Node16 -->
<g id="node17" class="node">
<title>Node16</title>
<g id="a_node17"><a xlink:href="claw_8h.html#a0122b78972344264b8a276a559cfce4a" target="_top" xlink:title="Updates the claw motor values. ">
<polygon fill="none" stroke="#000000" points="140.3789,-215.5 140.3789,-233.5 212.5313,-233.5 212.5313,-215.5 140.3789,-215.5"/>
<text text-anchor="middle" x="176.4551" y="-221.5" font-family="Helvetica,sans-Serif" font-size="10.00" fill="#000000">update_claw</text>
</a>
</g>
</g>
<!-- Node0&#45;&gt;Node16 -->
<g id="edge17" class="edge">
<title>Node0&#45;&gt;Node16</title>
<path fill="none" stroke="#191970" d="M57.0509,-301.2965C80.1733,-286.425 125.9484,-256.9841 153.6177,-239.1882"/>
<polygon fill="#191970" stroke="#191970" points="155.7309,-241.9905 162.2482,-233.6373 151.9443,-236.1031 155.7309,-241.9905"/>
</g>
<!-- Node24 -->
<g id="node25" class="node">
<title>Node24</title>
<g id="a_node25"><a xlink:href="partner_8h.html#ab2c78903a76d2ed8969271803c78368a" target="_top" xlink:title="update_control">
<polygon fill="none" stroke="#000000" points="135.374,-169.5 135.374,-187.5 217.5361,-187.5 217.5361,-169.5 135.374,-169.5"/>
<text text-anchor="middle" x="176.4551" y="-175.5" font-family="Helvetica,sans-Serif" font-size="10.00" fill="#000000">update_control</text>
</a>
</g>
</g>
<!-- Node0&#45;&gt;Node24 -->
<g id="edge35" class="edge">
<title>Node0&#45;&gt;Node24</title>
<path fill="none" stroke="#191970" d="M47.6857,-301.2058C58.6378,-281.3549 86.7433,-234.2853 121.4824,-205.5 127.8148,-200.2529 135.3388,-195.7118 142.7562,-191.929"/>
<polygon fill="#191970" stroke="#191970" points="144.461,-194.9943 151.9969,-187.5471 141.4617,-188.6693 144.461,-194.9943"/>
</g>
<!-- Node25 -->
<g id="node26" class="node">
<title>Node25</title>
<g id="a_node26"><a xlink:href="drive_8h.html#a8224a4626a934d30ed587671b7004bf8" target="_top" xlink:title="Updates the drive motors during teleop. ">
<polygon fill="none" stroke="#000000" points="121.4824,-394.5 121.4824,-412.5 231.4277,-412.5 231.4277,-394.5 121.4824,-394.5"/>
<text text-anchor="middle" x="176.4551" y="-400.5" font-family="Helvetica,sans-Serif" font-size="10.00" fill="#000000">update_drive_motors</text>
</a>
</g>
</g>
<!-- Node0&#45;&gt;Node25 -->
<g id="edge37" class="edge">
<title>Node0&#45;&gt;Node25</title>
<path fill="none" stroke="#191970" d="M56.0511,-319.7572C79.1783,-335.8426 126.9764,-369.0869 154.891,-388.5019"/>
<polygon fill="#191970" stroke="#191970" points="152.991,-391.4437 163.1991,-394.2802 156.9879,-385.697 152.991,-391.4437"/>
</g>
<!-- Node30 -->
<g id="node31" class="node">
<title>Node30</title>
<g id="a_node31"><a xlink:href="lifter_8h.html#a59bb7413777ca16aba124aaedf95c79b" target="_top" xlink:title="Updates the lifter in teleop. ">
<polygon fill="none" stroke="#000000" points="140.9355,-113.5 140.9355,-131.5 211.9746,-131.5 211.9746,-113.5 140.9355,-113.5"/>
<text text-anchor="middle" x="176.4551" y="-119.5" font-family="Helvetica,sans-Serif" font-size="10.00" fill="#000000">update_lifter</text>
</a>
</g>
</g>
<!-- Node0&#45;&gt;Node30 -->
<g id="edge46" class="edge">
<title>Node0&#45;&gt;Node30</title>
<path fill="none" stroke="#191970" d="M45.6849,-301.4001C54.1303,-276.3754 80.4942,-205.3449 121.4824,-159.5 129.4665,-150.5699 140.0502,-142.7831 149.7979,-136.6869"/>
<polygon fill="#191970" stroke="#191970" points="151.5979,-139.6887 158.4163,-131.5793 148.0291,-133.6667 151.5979,-139.6887"/>
</g>
<!-- Node35 -->
<g id="node36" class="node">
<title>Node35</title>
<g id="a_node36"><a xlink:href="mobile__goal__intake_8h.html#ad0232c21c5c1ffda603d2b7d61034118" target="_top" xlink:title="updates the mobile goal intake in teleop. ">
<polygon fill="none" stroke="#000000" points="139.5415,-301.5 139.5415,-319.5 213.3687,-319.5 213.3687,-301.5 139.5415,-301.5"/>
<text text-anchor="middle" x="176.4551" y="-307.5" font-family="Helvetica,sans-Serif" font-size="10.00" fill="#000000">updateIntake</text>
</a>
</g>
</g>
<!-- Node0&#45;&gt;Node35 -->
<g id="edge57" class="edge">
<title>Node0&#45;&gt;Node35</title>
<path fill="none" stroke="#191970" d="M85.7851,-310.5C99.6693,-310.5 115.1294,-310.5 129.2944,-310.5"/>
<polygon fill="#191970" stroke="#191970" points="129.3388,-314.0001 139.3387,-310.5 129.3387,-307.0001 129.3388,-314.0001"/>
</g>
<!-- Node3 -->
<g id="node4" class="node">
<title>Node3</title>
<g id="a_node4"><a xlink:href="log_8h.html#a1606d750e1bb8de9f9e917172bba3382" target="_top" xlink:title="prints a info message ">
<polygon fill="none" stroke="#000000" points="789.1899,-487.5 789.1899,-505.5 821.313,-505.5 821.313,-487.5 789.1899,-487.5"/>
<text text-anchor="middle" x="805.2515" y="-493.5" font-family="Helvetica,sans-Serif" font-size="10.00" fill="#000000">info</text>
</a>
</g>
</g>
<!-- Node2&#45;&gt;Node3 -->
<g id="edge3" class="edge">
<title>Node2&#45;&gt;Node3</title>
<path fill="none" stroke="#191970" d="M730.7697,-496.5C745.7381,-496.5 764.2098,-496.5 779.0131,-496.5"/>
<polygon fill="#191970" stroke="#191970" points="779.0413,-500.0001 789.0412,-496.5 779.0412,-493.0001 779.0413,-500.0001"/>
</g>
<!-- Node5 -->
<g id="node6" class="node">
<title>Node5</title>
<g id="a_node6"><a xlink:href="_a_p_i_8h.html#a8966c541f3e9565aea1289f0d2f2cf43" target="_top" xlink:title="motorStopAll">
<polygon fill="none" stroke="#000000" points="768.6284,-561.5 768.6284,-579.5 841.8745,-579.5 841.8745,-561.5 768.6284,-561.5"/>
<text text-anchor="middle" x="805.2515" y="-567.5" font-family="Helvetica,sans-Serif" font-size="10.00" fill="#000000">motorStopAll</text>
</a>
</g>
</g>
<!-- Node2&#45;&gt;Node5 -->
<g id="edge5" class="edge">
<title>Node2&#45;&gt;Node5</title>
<path fill="none" stroke="#191970" d="M712.2339,-505.7481C723.8352,-517.6633 745.359,-538.5041 766.6777,-552.5 768.9731,-554.007 771.4148,-555.4557 773.912,-556.8313"/>
<polygon fill="#191970" stroke="#191970" points="772.5353,-560.0576 783.0361,-561.4665 775.7058,-553.8168 772.5353,-560.0576"/>
</g>
<!-- Node6 -->
<g id="node7" class="node">
<title>Node6</title>
<g id="a_node7"><a xlink:href="_a_p_i_8h.html#aecd027ce8f8b52a765735e9eb5b202b3" target="_top" xlink:title="mutexCreate">
<polygon fill="none" stroke="#000000" points="768.6284,-450.5 768.6284,-468.5 841.8745,-468.5 841.8745,-450.5 768.6284,-450.5"/>
<text text-anchor="middle" x="805.2515" y="-456.5" font-family="Helvetica,sans-Serif" font-size="10.00" fill="#000000">mutexCreate</text>
</a>
</g>
</g>
<!-- Node2&#45;&gt;Node6 -->
<g id="edge6" class="edge">
<title>Node2&#45;&gt;Node6</title>
<path fill="none" stroke="#191970" d="M728.3934,-487.4488C741.0811,-482.835 756.7162,-477.1494 770.5648,-472.1135"/>
<polygon fill="#191970" stroke="#191970" points="772.0635,-475.2928 780.2653,-468.586 769.6712,-468.7143 772.0635,-475.2928"/>
</g>
<!-- Node7 -->
<g id="node8" class="node">
<title>Node7</title>
<g id="a_node8"><a xlink:href="_a_p_i_8h.html#ab05a241d6d1fd98b1ceb4665db678156" target="_top" xlink:title="taskRunLoop">
<polygon fill="none" stroke="#000000" points="767.7861,-413.5 767.7861,-431.5 842.7168,-431.5 842.7168,-413.5 767.7861,-413.5"/>
<text text-anchor="middle" x="805.2515" y="-419.5" font-family="Helvetica,sans-Serif" font-size="10.00" fill="#000000">taskRunLoop</text>
</a>
</g>
</g>
<!-- Node2&#45;&gt;Node7 -->
<g id="edge7" class="edge">
<title>Node2&#45;&gt;Node7</title>
<path fill="none" stroke="#191970" d="M718.5808,-487.3378C722.6344,-484.656 726.9307,-481.6056 730.6777,-478.5 748.3429,-463.8589 748.1167,-454.9873 766.6777,-441.5 769.1934,-439.672 771.9117,-437.9358 774.7001,-436.31"/>
<polygon fill="#191970" stroke="#191970" points="776.5094,-439.3117 783.6834,-431.5153 773.2133,-433.1363 776.5094,-439.3117"/>
</g>
<!-- Node8 -->
<g id="node9" class="node">
<title>Node8</title>
<g id="a_node9"><a xlink:href="slew_8c.html#a807a87c5df438fde21c1e8213906695b" target="_top" xlink:title="Closes the distance between the desired motor value and the current motor value by half for each moto...">
<polygon fill="none" stroke="#000000" points="766.6777,-337.5 766.6777,-355.5 843.8252,-355.5 843.8252,-337.5 766.6777,-337.5"/>
<text text-anchor="middle" x="805.2515" y="-343.5" font-family="Helvetica,sans-Serif" font-size="10.00" fill="#000000">updateMotors</text>
</a>
</g>
</g>
<!-- Node2&#45;&gt;Node8 -->
<g id="edge8" class="edge">
<title>Node2&#45;&gt;Node8</title>
<path fill="none" stroke="#191970" d="M720.4289,-487.3109C724.1109,-484.7887 727.7696,-481.8206 730.6777,-478.5 754.7743,-450.9857 748.5099,-436.2429 766.6777,-404.5 774.6559,-390.5606 784.7381,-375.4739 792.5939,-364.1821"/>
<polygon fill="#191970" stroke="#191970" points="795.6735,-365.8881 798.5741,-355.698 789.952,-361.8552 795.6735,-365.8881"/>
</g>
<!-- Node12 -->
<g id="node13" class="node">
<title>Node12</title>
<g id="a_node13"><a xlink:href="log_8h.html#a0bec2cf5fff7f607bc510b74aba9887c" target="_top" xlink:title="prints a warning message and displays on lcd. Only will print and display if log_level is greater tha...">
<polygon fill="none" stroke="#000000" points="779.7417,-524.5 779.7417,-542.5 830.7612,-542.5 830.7612,-524.5 779.7417,-524.5"/>
<text text-anchor="middle" x="805.2515" y="-530.5" font-family="Helvetica,sans-Serif" font-size="10.00" fill="#000000">warning</text>
</a>
</g>
</g>
<!-- Node2&#45;&gt;Node12 -->
<g id="edge12" class="edge">
<title>Node2&#45;&gt;Node12</title>
<path fill="none" stroke="#191970" d="M728.3934,-505.5512C741.0811,-510.165 756.7162,-515.8506 770.5648,-520.8865"/>
<polygon fill="#191970" stroke="#191970" points="769.6712,-524.2857 780.2653,-524.414 772.0635,-517.7072 769.6712,-524.2857"/>
</g>
<!-- Node4 -->
<g id="node5" class="node">
<title>Node4</title>
<g id="a_node5"><a xlink:href="_a_p_i_8h.html#a403c82418e475fa4a8273719e6a7f3e6" target="_top" xlink:title="printf">
<polygon fill="none" stroke="#000000" points="1003.2485,-486.5 1003.2485,-504.5 1041.48,-504.5 1041.48,-486.5 1003.2485,-486.5"/>
<text text-anchor="middle" x="1022.3643" y="-492.5" font-family="Helvetica,sans-Serif" font-size="10.00" fill="#000000">printf</text>
</a>
</g>
</g>
<!-- Node3&#45;&gt;Node4 -->
<g id="edge4" class="edge">
<title>Node3&#45;&gt;Node4</title>
<path fill="none" stroke="#191970" d="M821.5702,-496.4248C858.075,-496.2567 946.7505,-495.8483 993.0788,-495.6349"/>
<polygon fill="#191970" stroke="#191970" points="993.1058,-499.1349 1003.0895,-495.5888 993.0734,-492.135 993.1058,-499.1349"/>
</g>
<!-- Node9 -->
<g id="node10" class="node">
<title>Node9</title>
<g id="a_node10"><a xlink:href="_a_p_i_8h.html#a8b51124628d2a7741738d48551d1e8ee" target="_top" xlink:title="mutexTake">
<polygon fill="none" stroke="#000000" points="879.8252,-375.5 879.8252,-393.5 944.1797,-393.5 944.1797,-375.5 879.8252,-375.5"/>
<text text-anchor="middle" x="912.0024" y="-381.5" font-family="Helvetica,sans-Serif" font-size="10.00" fill="#000000">mutexTake</text>
</a>
</g>
</g>
<!-- Node8&#45;&gt;Node9 -->
<g id="edge9" class="edge">
<title>Node8&#45;&gt;Node9</title>
<path fill="none" stroke="#191970" d="M830.55,-355.5055C844.408,-360.4385 861.7961,-366.6281 876.9442,-372.0204"/>
<polygon fill="#191970" stroke="#191970" points="875.9209,-375.3712 886.5156,-375.4275 878.2684,-368.7765 875.9209,-375.3712"/>
</g>
<!-- Node10 -->
<g id="node11" class="node">
<title>Node10</title>
<g id="a_node11"><a xlink:href="_a_p_i_8h.html#afe171a08d22de18fc2ab604b2364959f" target="_top" xlink:title="mutexGive">
<polygon fill="none" stroke="#000000" points="880.106,-299.5 880.106,-317.5 943.8989,-317.5 943.8989,-299.5 880.106,-299.5"/>
<text text-anchor="middle" x="912.0024" y="-305.5" font-family="Helvetica,sans-Serif" font-size="10.00" fill="#000000">mutexGive</text>
</a>
</g>
</g>
<!-- Node8&#45;&gt;Node10 -->
<g id="edge10" class="edge">
<title>Node8&#45;&gt;Node10</title>
<path fill="none" stroke="#191970" d="M830.55,-337.4945C844.408,-332.5615 861.7961,-326.3719 876.9442,-320.9796"/>
<polygon fill="#191970" stroke="#191970" points="878.2684,-324.2235 886.5156,-317.5725 875.9209,-317.6288 878.2684,-324.2235"/>
</g>
<!-- Node11 -->
<g id="node12" class="node">
<title>Node11</title>
<g id="a_node12"><a xlink:href="_a_p_i_8h.html#a03c5b04b472d024281f62d7af8854a8e" target="_top" xlink:title="motorSet">
<polygon fill="none" stroke="#000000" points="883.7168,-185.5 883.7168,-203.5 940.2881,-203.5 940.2881,-185.5 883.7168,-185.5"/>
<text text-anchor="middle" x="912.0024" y="-191.5" font-family="Helvetica,sans-Serif" font-size="10.00" fill="#000000">motorSet</text>
</a>
</g>
</g>
<!-- Node8&#45;&gt;Node11 -->
<g id="edge11" class="edge">
<title>Node8&#45;&gt;Node11</title>
<path fill="none" stroke="#191970" d="M811.6095,-337.4469C828.8495,-312.8993 876.72,-244.7377 899.5632,-212.212"/>
<polygon fill="#191970" stroke="#191970" points="902.6596,-213.8929 905.5427,-203.6978 896.9312,-209.8697 902.6596,-213.8929"/>
</g>
<!-- Node13 -->
<g id="node14" class="node">
<title>Node13</title>
<g id="a_node14"><a xlink:href="log_8c.html#afff22aff6749311a684a559cac3ac8bd" target="_top" xlink:title="log_info">
<polygon fill="none" stroke="#000000" points="886.4878,-524.5 886.4878,-542.5 937.5171,-542.5 937.5171,-524.5 886.4878,-524.5"/>
<text text-anchor="middle" x="912.0024" y="-530.5" font-family="Helvetica,sans-Serif" font-size="10.00" fill="#000000">log_info</text>
</a>
</g>
</g>
<!-- Node12&#45;&gt;Node13 -->
<g id="edge13" class="edge">
<title>Node12&#45;&gt;Node13</title>
<path fill="none" stroke="#191970" d="M830.821,-533.5C844.3217,-533.5 861.1153,-533.5 875.9192,-533.5"/>
<polygon fill="#191970" stroke="#191970" points="876.2716,-537.0001 886.2716,-533.5 876.2715,-530.0001 876.2716,-537.0001"/>
</g>
<!-- Node13&#45;&gt;Node4 -->
<g id="edge16" class="edge">
<title>Node13&#45;&gt;Node4</title>
<path fill="none" stroke="#191970" d="M937.5991,-524.6865C954.313,-518.9316 976.168,-511.4064 993.5,-505.4386"/>
<polygon fill="#191970" stroke="#191970" points="994.7934,-508.695 1003.1092,-502.13 992.5144,-502.0763 994.7934,-508.695"/>
</g>
<!-- Node14 -->
<g id="node15" class="node">
<title>Node14</title>
<g id="a_node15"><a xlink:href="_a_p_i_8h.html#a5fa1d119fe3e836b5519f97eae7a1272" target="_top" xlink:title="lcdClear">
<polygon fill="none" stroke="#000000" points="996.0244,-523.5 996.0244,-541.5 1048.7041,-541.5 1048.7041,-523.5 996.0244,-523.5"/>
<text text-anchor="middle" x="1022.3643" y="-529.5" font-family="Helvetica,sans-Serif" font-size="10.00" fill="#000000">lcdClear</text>
</a>
</g>
</g>
<!-- Node13&#45;&gt;Node14 -->
<g id="edge14" class="edge">
<title>Node13&#45;&gt;Node14</title>
<path fill="none" stroke="#191970" d="M937.5991,-533.2681C951.7749,-533.1396 969.649,-532.9777 985.3252,-532.8356"/>
<polygon fill="#191970" stroke="#191970" points="985.7864,-536.3317 995.7543,-532.7411 985.7229,-529.332 985.7864,-536.3317"/>
</g>
<!-- Node15 -->
<g id="node16" class="node">
<title>Node15</title>
<g id="a_node16"><a xlink:href="_a_p_i_8h.html#aab53a247d88151a6623c20fa1ea940b0" target="_top" xlink:title="lcdSetBacklight">
<polygon fill="none" stroke="#000000" points="980.1797,-560.5 980.1797,-578.5 1064.5488,-578.5 1064.5488,-560.5 980.1797,-560.5"/>
<text text-anchor="middle" x="1022.3643" y="-566.5" font-family="Helvetica,sans-Serif" font-size="10.00" fill="#000000">lcdSetBacklight</text>
</a>
</g>
</g>
<!-- Node13&#45;&gt;Node15 -->
<g id="edge15" class="edge">
<title>Node13&#45;&gt;Node15</title>
<path fill="none" stroke="#191970" d="M937.5991,-541.8496C951.5978,-546.416 969.203,-552.1588 984.7366,-557.2259"/>
<polygon fill="#191970" stroke="#191970" points="983.9941,-560.6651 994.5866,-560.4389 986.165,-554.0102 983.9941,-560.6651"/>
</g>
<!-- Node17 -->
<g id="node18" class="node">
<title>Node17</title>
<g id="a_node18"><a xlink:href="claw_8c.html#addd2004effae7c94400aed1fe6a90ead" target="_top" xlink:title="Gets the claw position in potentiometer ticks. ">
<polygon fill="none" stroke="#000000" points="277.9014,-187.5 277.9014,-205.5 352.9932,-205.5 352.9932,-187.5 277.9014,-187.5"/>
<text text-anchor="middle" x="315.4473" y="-193.5" font-family="Helvetica,sans-Serif" font-size="10.00" fill="#000000">getClawTicks</text>
</a>
</g>
</g>
<!-- Node16&#45;&gt;Node17 -->
<g id="edge18" class="edge">
<title>Node16&#45;&gt;Node17</title>
<path fill="none" stroke="#191970" d="M212.6108,-217.2164C229.3639,-213.8415 249.5047,-209.7841 267.5045,-206.1581"/>
<polygon fill="#191970" stroke="#191970" points="268.4183,-209.5444 277.5302,-204.1384 267.0359,-202.6822 268.4183,-209.5444"/>
</g>
<!-- Node19 -->
<g id="node20" class="node">
<title>Node19</title>
<g id="a_node20"><a xlink:href="_a_p_i_8h.html#a792f1a80c62a63e764cf64aabf95db92" target="_top" xlink:title="joystickGetDigital">
<polygon fill="none" stroke="#000000" points="269.1025,-150.5 269.1025,-168.5 361.792,-168.5 361.792,-150.5 269.1025,-150.5"/>
<text text-anchor="middle" x="315.4473" y="-156.5" font-family="Helvetica,sans-Serif" font-size="10.00" fill="#000000">joystickGetDigital</text>
</a>
</g>
</g>
<!-- Node16&#45;&gt;Node19 -->
<g id="edge20" class="edge">
<title>Node16&#45;&gt;Node19</title>
<path fill="none" stroke="#191970" d="M194.3141,-215.4861C205.0841,-210.0297 219.0669,-202.9094 231.4277,-196.5 247.4886,-188.172 250.9242,-184.9122 267.4277,-177.5 271.5127,-175.6653 275.8461,-173.8568 280.1726,-172.1349"/>
<polygon fill="#191970" stroke="#191970" points="281.4616,-175.3891 289.5341,-168.5273 278.9444,-168.8573 281.4616,-175.3891"/>
</g>
<!-- Node20 -->
<g id="node21" class="node">
<title>Node20</title>
<g id="a_node21"><a xlink:href="claw_8c.html#a3a57f998b1884d39b0cc786689f7086f" target="_top" xlink:title="sets the claw motor speed ">
<polygon fill="none" stroke="#000000" points="402.8066,-244.5 402.8066,-262.5 488.8359,-262.5 488.8359,-244.5 402.8066,-244.5"/>
<text text-anchor="middle" x="445.8213" y="-250.5" font-family="Helvetica,sans-Serif" font-size="10.00" fill="#000000">set_claw_motor</text>
</a>
</g>
</g>
<!-- Node16&#45;&gt;Node20 -->
<g id="edge21" class="edge">
<title>Node16&#45;&gt;Node20</title>
<path fill="none" stroke="#191970" d="M212.783,-228.4111C258.9608,-233.3826 339.0562,-242.0057 392.2504,-247.7326"/>
<polygon fill="#191970" stroke="#191970" points="392.1954,-251.2468 402.5126,-248.8374 392.9447,-244.287 392.1954,-251.2468"/>
</g>
<!-- Node18 -->
<g id="node19" class="node">
<title>Node18</title>
<g id="a_node19"><a xlink:href="_a_p_i_8h.html#a5da86064604c539c2b6a5e2993289108" target="_top" xlink:title="analogRead">
<polygon fill="none" stroke="#000000" points="410.8535,-150.5 410.8535,-168.5 480.7891,-168.5 480.7891,-150.5 410.8535,-150.5"/>
<text text-anchor="middle" x="445.8213" y="-156.5" font-family="Helvetica,sans-Serif" font-size="10.00" fill="#000000">analogRead</text>
</a>
</g>
</g>
<!-- Node17&#45;&gt;Node18 -->
<g id="edge19" class="edge">
<title>Node17&#45;&gt;Node18</title>
<path fill="none" stroke="#191970" d="M347.3403,-187.4488C364.3867,-182.611 385.5853,-176.5949 403.9433,-171.3849"/>
<polygon fill="#191970" stroke="#191970" points="405.1411,-174.6833 413.8056,-168.586 403.2299,-167.9492 405.1411,-174.6833"/>
</g>
<!-- Node21 -->
<g id="node22" class="node">
<title>Node21</title>
<g id="a_node22"><a xlink:href="slew_8h.html#a9f8b8ae577ef938622024545711f0151" target="_top" xlink:title="set_motor_immediate">
<polygon fill="none" stroke="#000000" points="528.1758,-262.5 528.1758,-280.5 640.3281,-280.5 640.3281,-262.5 528.1758,-262.5"/>
<text text-anchor="middle" x="584.252" y="-268.5" font-family="Helvetica,sans-Serif" font-size="10.00" fill="#000000">set_motor_immediate</text>
</a>
</g>
</g>
<!-- Node20&#45;&gt;Node21 -->
<g id="edge22" class="edge">
<title>Node20&#45;&gt;Node21</title>
<path fill="none" stroke="#191970" d="M488.8628,-259.0966C498.0522,-260.2915 507.9634,-261.5803 517.8001,-262.8593"/>
<polygon fill="#191970" stroke="#191970" points="517.6227,-266.3657 527.9906,-264.1844 518.5254,-259.4241 517.6227,-266.3657"/>
</g>
<!-- Node21&#45;&gt;Node9 -->
<g id="edge34" class="edge">
<title>Node21&#45;&gt;Node9</title>
<path fill="none" stroke="#191970" d="M597.9224,-280.6992C615.5877,-292.3779 647.5033,-312.7754 676.3281,-327.5 715.1221,-347.3171 724.6253,-354.1298 766.6777,-365.5 800.5858,-374.6681 840.1827,-379.4734 869.473,-381.9552"/>
<polygon fill="#191970" stroke="#191970" points="869.5238,-385.47 879.7683,-382.7682 870.0749,-378.4917 869.5238,-385.47"/>
</g>
<!-- Node21&#45;&gt;Node10 -->
<g id="edge33" class="edge">
<title>Node21&#45;&gt;Node10</title>
<path fill="none" stroke="#191970" d="M640.4191,-274.6203C693.1401,-277.9877 774.1059,-284.2869 843.8252,-294.5 852.3324,-295.7462 861.3777,-297.3813 870.0046,-299.0927"/>
<polygon fill="#191970" stroke="#191970" points="869.3832,-302.538 879.8825,-301.1182 870.7894,-295.6807 869.3832,-302.538"/>
</g>
<!-- Node21&#45;&gt;Node11 -->
<g id="edge32" class="edge">
<title>Node21&#45;&gt;Node11</title>
<path fill="none" stroke="#191970" d="M611.4923,-262.4812C646.9191,-251.0081 710.8757,-231.1665 766.6777,-218.5 802.5466,-210.3581 843.9859,-203.789 873.4127,-199.5955"/>
<polygon fill="#191970" stroke="#191970" points="874.2595,-203.0112 883.6781,-198.1595 873.2897,-196.0787 874.2595,-203.0112"/>
</g>
<!-- Node22 -->
<g id="node23" class="node">
<title>Node22</title>
<g id="a_node23"><a xlink:href="log_8h.html#af3668f40d1ad1b4f3418869ac9a31f34" target="_top" xlink:title="prints a info message ">
<polygon fill="none" stroke="#000000" points="681.5991,-299.5 681.5991,-317.5 725.4067,-317.5 725.4067,-299.5 681.5991,-299.5"/>
<text text-anchor="middle" x="703.5029" y="-305.5" font-family="Helvetica,sans-Serif" font-size="10.00" fill="#000000">debug</text>
</a>
</g>
</g>
<!-- Node21&#45;&gt;Node22 -->
<g id="edge23" class="edge">
<title>Node21&#45;&gt;Node22</title>
<path fill="none" stroke="#191970" d="M613.424,-280.5512C631.1105,-286.0388 653.6838,-293.0426 671.8086,-298.6662"/>
<polygon fill="#191970" stroke="#191970" points="670.7729,-302.0094 681.3609,-301.63 672.8473,-295.3238 670.7729,-302.0094"/>
</g>
<!-- Node23 -->
<g id="node24" class="node">
<title>Node23</title>
<g id="a_node24"><a xlink:href="slew_8c.html#a321758941d88b75783955c819bb75005" target="_top" xlink:title="Initializes the slew rate controller. ">
<polygon fill="none" stroke="#000000" points="676.3281,-450.5 676.3281,-468.5 730.6777,-468.5 730.6777,-450.5 676.3281,-450.5"/>
<text text-anchor="middle" x="703.5029" y="-456.5" font-family="Helvetica,sans-Serif" font-size="10.00" fill="#000000">init_slew</text>
</a>
</g>
</g>
<!-- Node21&#45;&gt;Node23 -->
<g id="edge25" class="edge">
<title>Node21&#45;&gt;Node23</title>
<path fill="none" stroke="#191970" d="M590.0037,-280.5676C608.5323,-309.7781 666.9062,-401.805 691.9293,-441.2541"/>
<polygon fill="#191970" stroke="#191970" points="689.216,-443.5108 697.528,-450.0805 695.1271,-439.7613 689.216,-443.5108"/>
</g>
<!-- Node22&#45;&gt;Node4 -->
<g id="edge24" class="edge">
<title>Node22&#45;&gt;Node4</title>
<path fill="none" stroke="#191970" d="M722.7813,-299.4781C766.5561,-280.4592 875.0119,-241.7697 944.1797,-289.5 976.3199,-311.6789 1006.9238,-429.5064 1017.9993,-476.3118"/>
<polygon fill="#191970" stroke="#191970" points="1014.6585,-477.3988 1020.3305,-486.3475 1021.477,-475.8149 1014.6585,-477.3988"/>
</g>
<!-- Node23&#45;&gt;Node3 -->
<g id="edge28" class="edge">
<title>Node23&#45;&gt;Node3</title>
<path fill="none" stroke="#191970" d="M728.3934,-468.5512C743.9336,-474.2023 763.8954,-481.4612 779.5805,-487.165"/>
<polygon fill="#191970" stroke="#191970" points="778.5868,-490.5278 789.1809,-490.6561 780.9791,-483.9493 778.5868,-490.5278"/>
</g>
<!-- Node23&#45;&gt;Node5 -->
<g id="edge27" class="edge">
<title>Node23&#45;&gt;Node5</title>
<path fill="none" stroke="#191970" d="M719.2851,-468.527C723.3415,-471.3553 727.4631,-474.7349 730.6777,-478.5 754.4265,-506.3151 740.6075,-526.8481 766.6777,-552.5 767.909,-553.7116 769.2371,-554.8519 770.634,-555.924"/>
<polygon fill="#191970" stroke="#191970" points="768.87,-558.9496 779.1922,-561.3378 772.6122,-553.0339 768.87,-558.9496"/>
</g>
<!-- Node23&#45;&gt;Node6 -->
<g id="edge29" class="edge">
<title>Node23&#45;&gt;Node6</title>
<path fill="none" stroke="#191970" d="M730.7697,-459.5C739.2426,-459.5 748.8381,-459.5 758.2554,-459.5"/>
<polygon fill="#191970" stroke="#191970" points="758.3426,-463.0001 768.3426,-459.5 758.3425,-456.0001 758.3426,-463.0001"/>
</g>
<!-- Node23&#45;&gt;Node7 -->
<g id="edge30" class="edge">
<title>Node23&#45;&gt;Node7</title>
<path fill="none" stroke="#191970" d="M728.3934,-450.4488C741.0811,-445.835 756.7162,-440.1494 770.5648,-435.1135"/>
<polygon fill="#191970" stroke="#191970" points="772.0635,-438.2928 780.2653,-431.586 769.6712,-431.7143 772.0635,-438.2928"/>
</g>
<!-- Node23&#45;&gt;Node8 -->
<g id="edge31" class="edge">
<title>Node23&#45;&gt;Node8</title>
<path fill="none" stroke="#191970" d="M711.8294,-450.2527C728.9817,-431.2037 768.4644,-387.355 790.2085,-363.2064"/>
<polygon fill="#191970" stroke="#191970" points="793.0038,-365.3326 797.0943,-355.5592 787.8018,-360.6486 793.0038,-365.3326"/>
</g>
<!-- Node23&#45;&gt;Node12 -->
<g id="edge26" class="edge">
<title>Node23&#45;&gt;Node12</title>
<path fill="none" stroke="#191970" d="M717.7037,-468.6784C721.9985,-471.6507 726.6429,-475.0694 730.6777,-478.5 748.1575,-493.362 747.9756,-502.209 766.6777,-515.5 768.7334,-516.9609 770.9264,-518.3521 773.1836,-519.6663"/>
<polygon fill="#191970" stroke="#191970" points="771.5744,-522.7745 782.0532,-524.3378 774.8364,-516.581 771.5744,-522.7745"/>
</g>
<!-- Node24&#45;&gt;Node19 -->
<g id="edge36" class="edge">
<title>Node24&#45;&gt;Node19</title>
<path fill="none" stroke="#191970" d="M217.781,-172.8508C230.5345,-171.1074 244.8115,-169.1558 258.4278,-167.2945"/>
<polygon fill="#191970" stroke="#191970" points="259.2416,-170.7159 268.6754,-165.8936 258.2935,-163.7804 259.2416,-170.7159"/>
</g>
<!-- Node26 -->
<g id="node27" class="node">
<title>Node26</title>
<g id="a_node27"><a xlink:href="partner_8h.html#aacc86d07e59d3b919f5c5eae2ce5d404" target="_top" xlink:title="get_mode">
<polygon fill="none" stroke="#000000" points="285.2085,-375.5 285.2085,-393.5 345.686,-393.5 345.686,-375.5 285.2085,-375.5"/>
<text text-anchor="middle" x="315.4473" y="-381.5" font-family="Helvetica,sans-Serif" font-size="10.00" fill="#000000">get_mode</text>
</a>
</g>
</g>
<!-- Node25&#45;&gt;Node26 -->
<g id="edge38" class="edge">
<title>Node25&#45;&gt;Node26</title>
<path fill="none" stroke="#191970" d="M231.7878,-395.9361C246.2662,-393.9569 261.6011,-391.8607 275.1325,-390.011"/>
<polygon fill="#191970" stroke="#191970" points="275.6506,-393.4728 285.0844,-388.6506 274.7025,-386.5373 275.6506,-393.4728"/>
</g>
<!-- Node27 -->
<g id="node28" class="node">
<title>Node27</title>
<g id="a_node28"><a xlink:href="_a_p_i_8h.html#ad56fcec15d1a48deb8780bb0fc38be4d" target="_top" xlink:title="joystickGetAnalog">
<polygon fill="none" stroke="#000000" points="267.4277,-412.5 267.4277,-430.5 363.4668,-430.5 363.4668,-412.5 267.4277,-412.5"/>
<text text-anchor="middle" x="315.4473" y="-418.5" font-family="Helvetica,sans-Serif" font-size="10.00" fill="#000000">joystickGetAnalog</text>
</a>
</g>
</g>
<!-- Node25&#45;&gt;Node27 -->
<g id="edge39" class="edge">
<title>Node25&#45;&gt;Node27</title>
<path fill="none" stroke="#191970" d="M231.7878,-410.6658C240.0762,-411.7392 248.6453,-412.8489 256.9961,-413.9304"/>
<polygon fill="#191970" stroke="#191970" points="256.6736,-417.4177 267.0403,-415.2311 257.5727,-410.4757 256.6736,-417.4177"/>
</g>
<!-- Node28 -->
<g id="node29" class="node">
<title>Node28</title>
<g id="a_node29"><a xlink:href="drive_8c.html#a8df41fd50094c065eedc81fc5e6595d1" target="_top" xlink:title="sets the speed of one side of the robot. ">
<polygon fill="none" stroke="#000000" points="402.7944,-450.5 402.7944,-468.5 488.8481,-468.5 488.8481,-450.5 402.7944,-450.5"/>
<text text-anchor="middle" x="445.8213" y="-456.5" font-family="Helvetica,sans-Serif" font-size="10.00" fill="#000000">set_side_speed</text>
</a>
</g>
</g>
<!-- Node25&#45;&gt;Node28 -->
<g id="edge40" class="edge">
<title>Node25&#45;&gt;Node28</title>
<path fill="none" stroke="#191970" d="M194.4158,-412.565C212.4097,-421.2201 241.1354,-433.8929 267.4277,-440.5 308.6675,-450.8632 356.6571,-455.5768 392.4685,-457.7193"/>
<polygon fill="#191970" stroke="#191970" points="392.5223,-461.2274 402.6994,-458.2815 392.9065,-454.238 392.5223,-461.2274"/>
</g>
<!-- Node29 -->
<g id="node30" class="node">
<title>Node29</title>
<g id="a_node30"><a xlink:href="slew_8h.html#a7dff2b79dffe55fb936d977594d7c01d" target="_top" xlink:title="Sets motor speed wrapped inside the slew rate controller. ">
<polygon fill="none" stroke="#000000" points="541.2373,-450.5 541.2373,-468.5 627.2666,-468.5 627.2666,-450.5 541.2373,-450.5"/>
<text text-anchor="middle" x="584.252" y="-456.5" font-family="Helvetica,sans-Serif" font-size="10.00" fill="#000000">set_motor_slew</text>
</a>
</g>
</g>
<!-- Node28&#45;&gt;Node29 -->
<g id="edge41" class="edge">
<title>Node28&#45;&gt;Node29</title>
<path fill="none" stroke="#191970" d="M488.8628,-459.5C502.2748,-459.5 517.2245,-459.5 531.2359,-459.5"/>
<polygon fill="#191970" stroke="#191970" points="531.2371,-463.0001 541.2371,-459.5 531.237,-456.0001 531.2371,-463.0001"/>
</g>
<!-- Node29&#45;&gt;Node9 -->
<g id="edge45" class="edge">
<title>Node29&#45;&gt;Node9</title>
<path fill="none" stroke="#191970" d="M591.5356,-468.7012C623.3588,-507.8063 752.6696,-655.2487 843.8252,-589.5 859.488,-578.2027 894.0766,-452.3966 907.0009,-403.643"/>
<polygon fill="#191970" stroke="#191970" points="910.4458,-404.3048 909.6075,-393.7432 903.6765,-402.5224 910.4458,-404.3048"/>
</g>
<!-- Node29&#45;&gt;Node10 -->
<g id="edge44" class="edge">
<title>Node29&#45;&gt;Node10</title>
<path fill="none" stroke="#191970" d="M593.5048,-450.2277C618.7074,-425.6047 691.7167,-358.4201 766.6777,-328.5 799.7909,-315.2831 840.147,-310.5407 869.922,-308.9566"/>
<polygon fill="#191970" stroke="#191970" points="870.1447,-312.4503 879.9833,-308.5193 869.8407,-305.4569 870.1447,-312.4503"/>
</g>
<!-- Node29&#45;&gt;Node22 -->
<g id="edge42" class="edge">
<title>Node29&#45;&gt;Node22</title>
<path fill="none" stroke="#191970" d="M589.8773,-450.3674C603.3964,-428.7529 639.3425,-373.2234 676.3281,-332.5 678.8156,-329.7611 681.5936,-327.0146 684.3973,-324.4085"/>
<polygon fill="#191970" stroke="#191970" points="686.9732,-326.8029 692.1482,-317.5579 682.3375,-321.5579 686.9732,-326.8029"/>
</g>
<!-- Node29&#45;&gt;Node23 -->
<g id="edge43" class="edge">
<title>Node29&#45;&gt;Node23</title>
<path fill="none" stroke="#191970" d="M627.3043,-459.5C639.8946,-459.5 653.5559,-459.5 665.7881,-459.5"/>
<polygon fill="#191970" stroke="#191970" points="666.107,-463.0001 676.1069,-459.5 666.1069,-456.0001 666.107,-463.0001"/>
</g>
<!-- Node30&#45;&gt;Node19 -->
<g id="edge50" class="edge">
<title>Node30&#45;&gt;Node19</title>
<path fill="none" stroke="#191970" d="M210.4564,-131.5512C228.882,-136.4562 251.858,-142.5724 271.6147,-147.8317"/>
<polygon fill="#191970" stroke="#191970" points="270.7514,-151.2237 281.3152,-150.414 272.5522,-144.4593 270.7514,-151.2237"/>
</g>
<!-- Node30&#45;&gt;Node26 -->
<g id="edge47" class="edge">
<title>Node30&#45;&gt;Node26</title>
<path fill="none" stroke="#191970" d="M197.6578,-131.5898C209.4577,-137.7504 223.3534,-147.0483 231.4277,-159.5 282.2339,-237.8501 207.8308,-294.6098 267.4277,-366.5 269.8426,-369.413 272.7792,-371.855 275.9976,-373.9019"/>
<polygon fill="#191970" stroke="#191970" points="274.5062,-377.0696 285.0107,-378.45 277.6598,-370.8202 274.5062,-377.0696"/>
</g>
<!-- Node31 -->
<g id="node32" class="node">
<title>Node31</title>
<g id="a_node32"><a xlink:href="lifter_8c.html#acdf909159b0406c48099843f2306be78" target="_top" xlink:title="Gets the value of the lifter pot. ">
<polygon fill="none" stroke="#000000" points="277.8989,-113.5 277.8989,-131.5 352.9956,-131.5 352.9956,-113.5 277.8989,-113.5"/>
<text text-anchor="middle" x="315.4473" y="-119.5" font-family="Helvetica,sans-Serif" font-size="10.00" fill="#000000">getLifterTicks</text>
</a>
</g>
</g>
<!-- Node30&#45;&gt;Node31 -->
<g id="edge48" class="edge">
<title>Node30&#45;&gt;Node31</title>
<path fill="none" stroke="#191970" d="M212.249,-122.5C229.1371,-122.5 249.5286,-122.5 267.7103,-122.5"/>
<polygon fill="#191970" stroke="#191970" points="267.8311,-126.0001 277.8311,-122.5 267.8311,-119.0001 267.8311,-126.0001"/>
</g>
<!-- Node32 -->
<g id="node33" class="node">
<title>Node32</title>
<g id="a_node33"><a xlink:href="lifter_8c.html#aa7d2d04059f57cc5b8582f6fd0726dc1" target="_top" xlink:title="lower_lifter">
<polygon fill="none" stroke="#000000" points="283.2725,-.5 283.2725,-18.5 347.6221,-18.5 347.6221,-.5 283.2725,-.5"/>
<text text-anchor="middle" x="315.4473" y="-6.5" font-family="Helvetica,sans-Serif" font-size="10.00" fill="#000000">lower_lifter</text>
</a>
</g>
</g>
<!-- Node30&#45;&gt;Node32 -->
<g id="edge51" class="edge">
<title>Node30&#45;&gt;Node32</title>
<path fill="none" stroke="#191970" d="M183.9615,-113.478C198.6264,-96.2627 232.6954,-58.2413 267.4277,-33.5 272.7082,-29.7385 278.6645,-26.2492 284.5396,-23.1618"/>
<polygon fill="#191970" stroke="#191970" points="286.1994,-26.2453 293.596,-18.6597 283.0834,-19.9771 286.1994,-26.2453"/>
</g>
<!-- Node33 -->
<g id="node34" class="node">
<title>Node33</title>
<g id="a_node34"><a xlink:href="lifter_8c.html#a2cfc188f60f945c824dd7fe7b0b5f4e4" target="_top" xlink:title="Sets the lifter motors to the given value. ">
<polygon fill="none" stroke="#000000" points="400.8633,-57.5 400.8633,-75.5 490.7793,-75.5 490.7793,-57.5 400.8633,-57.5"/>
<text text-anchor="middle" x="445.8213" y="-63.5" font-family="Helvetica,sans-Serif" font-size="10.00" fill="#000000">set_lifter_motors</text>
</a>
</g>
</g>
<!-- Node30&#45;&gt;Node33 -->
<g id="edge56" class="edge">
<title>Node30&#45;&gt;Node33</title>
<path fill="none" stroke="#191970" d="M186.7235,-113.4725C202.671,-100.12 234.9499,-75.695 267.4277,-66.5 307.4334,-55.1738 354.5392,-55.7267 390.2968,-58.8144"/>
<polygon fill="#191970" stroke="#191970" points="390.2486,-62.3257 400.5365,-59.7939 390.9153,-55.3575 390.2486,-62.3257"/>
</g>
<!-- Node34 -->
<g id="node35" class="node">
<title>Node34</title>
<g id="a_node35"><a xlink:href="lifter_8c.html#a7452163ed7946b6262f41de51c62dfd4" target="_top" xlink:title="raise_lifter">
<polygon fill="none" stroke="#000000" points="284.3833,-76.5 284.3833,-94.5 346.5112,-94.5 346.5112,-76.5 284.3833,-76.5"/>
<text text-anchor="middle" x="315.4473" y="-82.5" font-family="Helvetica,sans-Serif" font-size="10.00" fill="#000000">raise_lifter</text>
</a>
</g>
</g>
<!-- Node30&#45;&gt;Node34 -->
<g id="edge54" class="edge">
<title>Node30&#45;&gt;Node34</title>
<path fill="none" stroke="#191970" d="M210.4564,-113.4488C229.7071,-108.3242 253.9247,-101.8774 274.2486,-96.4672"/>
<polygon fill="#191970" stroke="#191970" points="275.4104,-99.7799 284.1735,-93.8251 273.6097,-93.0154 275.4104,-99.7799"/>
</g>
<!-- Node31&#45;&gt;Node18 -->
<g id="edge49" class="edge">
<title>Node31&#45;&gt;Node18</title>
<path fill="none" stroke="#191970" d="M347.3403,-131.5512C364.3867,-136.389 385.5853,-142.4051 403.9433,-147.6151"/>
<polygon fill="#191970" stroke="#191970" points="403.2299,-151.0508 413.8056,-150.414 405.1411,-144.3167 403.2299,-151.0508"/>
</g>
<!-- Node32&#45;&gt;Node33 -->
<g id="edge52" class="edge">
<title>Node32&#45;&gt;Node33</title>
<path fill="none" stroke="#191970" d="M336.1054,-18.5318C357.5301,-27.8988 391.2473,-42.64 415.6521,-53.3099"/>
<polygon fill="#191970" stroke="#191970" points="414.2634,-56.5226 424.8281,-57.3217 417.0676,-50.1088 414.2634,-56.5226"/>
</g>
<!-- Node33&#45;&gt;Node21 -->
<g id="edge53" class="edge">
<title>Node33&#45;&gt;Node21</title>
<path fill="none" stroke="#191970" d="M451.9481,-75.5731C473.1578,-106.9822 543.7085,-211.4597 572.1813,-253.6248"/>
<polygon fill="#191970" stroke="#191970" points="569.383,-255.7351 577.88,-262.0638 575.1843,-251.8177 569.383,-255.7351"/>
</g>
<!-- Node34&#45;&gt;Node33 -->
<g id="edge55" class="edge">
<title>Node34&#45;&gt;Node33</title>
<path fill="none" stroke="#191970" d="M346.6751,-80.949C359.7734,-79.0401 375.4097,-76.7614 390.3496,-74.5841"/>
<polygon fill="#191970" stroke="#191970" points="391.1508,-78.0044 400.5415,-73.0988 390.1413,-71.0776 391.1508,-78.0044"/>
</g>
<!-- Node35&#45;&gt;Node19 -->
<g id="edge59" class="edge">
<title>Node35&#45;&gt;Node19</title>
<path fill="none" stroke="#191970" d="M184.8318,-301.2205C196.1148,-288.4901 216.5002,-264.6592 231.4277,-242.5 249.8783,-215.1112 242.423,-199.0716 267.4277,-177.5 269.1257,-176.0352 270.9544,-174.6844 272.8716,-173.4393"/>
<polygon fill="#191970" stroke="#191970" points="274.6001,-176.4834 281.7139,-168.632 271.2566,-170.3335 274.6001,-176.4834"/>
</g>
<!-- Node35&#45;&gt;Node26 -->
<g id="edge58" class="edge">
<title>Node35&#45;&gt;Node26</title>
<path fill="none" stroke="#191970" d="M189.5556,-319.689C206.8325,-331.5403 238.4433,-352.3121 267.4277,-366.5 271.2061,-368.3495 275.2256,-370.1295 279.2684,-371.8026"/>
<polygon fill="#191970" stroke="#191970" points="278.0548,-375.0862 288.6417,-375.495 280.6204,-368.5733 278.0548,-375.0862"/>
</g>
<!-- Node36 -->
<g id="node37" class="node">
<title>Node36</title>
<g id="a_node37"><a xlink:href="mobile__goal__intake_8c.html#afa91470a9891e48827fd62d18553c6ce" target="_top" xlink:title="lower_intake">
<polygon fill="none" stroke="#000000" points="279.376,-338.5 279.376,-356.5 351.5186,-356.5 351.5186,-338.5 279.376,-338.5"/>
<text text-anchor="middle" x="315.4473" y="-344.5" font-family="Helvetica,sans-Serif" font-size="10.00" fill="#000000">lower_intake</text>
</a>
</g>
</g>
<!-- Node35&#45;&gt;Node36 -->
<g id="edge60" class="edge">
<title>Node35&#45;&gt;Node36</title>
<path fill="none" stroke="#191970" d="M210.4564,-319.5512C228.882,-324.4562 251.858,-330.5724 271.6147,-335.8317"/>
<polygon fill="#191970" stroke="#191970" points="270.7514,-339.2237 281.3152,-338.414 272.5522,-332.4593 270.7514,-339.2237"/>
</g>
<!-- Node37 -->
<g id="node38" class="node">
<title>Node37</title>
<g id="a_node38"><a xlink:href="mobile__goal__intake_8c.html#a8f215023832ba515d7b4535e3ae07498" target="_top" xlink:title="set_intake_motor">
<polygon fill="none" stroke="#000000" points="399.4668,-291.5 399.4668,-309.5 492.1758,-309.5 492.1758,-291.5 399.4668,-291.5"/>
<text text-anchor="middle" x="445.8213" y="-297.5" font-family="Helvetica,sans-Serif" font-size="10.00" fill="#000000">set_intake_motor</text>
</a>
</g>
</g>
<!-- Node35&#45;&gt;Node37 -->
<g id="edge65" class="edge">
<title>Node35&#45;&gt;Node37</title>
<path fill="none" stroke="#191970" d="M211.1827,-301.4942C228.0343,-297.5753 248.6501,-293.44 267.4277,-291.5 309.8858,-287.1136 320.846,-289.178 363.4668,-291.5 371.8279,-291.9555 380.6453,-292.6693 389.2791,-293.5003"/>
<polygon fill="#191970" stroke="#191970" points="388.9882,-296.9887 399.2917,-294.5213 389.6984,-290.0249 388.9882,-296.9887"/>
</g>
<!-- Node38 -->
<g id="node39" class="node">
<title>Node38</title>
<g id="a_node39"><a xlink:href="mobile__goal__intake_8c.html#a4899f9a8621015313e6312ce085da979" target="_top" xlink:title="raise_intake">
<polygon fill="none" stroke="#000000" points="280.4868,-301.5 280.4868,-319.5 350.4077,-319.5 350.4077,-301.5 280.4868,-301.5"/>
<text text-anchor="middle" x="315.4473" y="-307.5" font-family="Helvetica,sans-Serif" font-size="10.00" fill="#000000">raise_intake</text>
</a>
</g>
</g>
<!-- Node35&#45;&gt;Node38 -->
<g id="edge63" class="edge">
<title>Node35&#45;&gt;Node38</title>
<path fill="none" stroke="#191970" d="M213.7024,-310.5C230.9911,-310.5 251.7011,-310.5 269.9105,-310.5"/>
<polygon fill="#191970" stroke="#191970" points="270.0141,-314.0001 280.014,-310.5 270.014,-307.0001 270.0141,-314.0001"/>
</g>
<!-- Node36&#45;&gt;Node37 -->
<g id="edge61" class="edge">
<title>Node36&#45;&gt;Node37</title>
<path fill="none" stroke="#191970" d="M340.5847,-338.4379C360.695,-331.1881 389.1081,-320.9452 411.3428,-312.9295"/>
<polygon fill="#191970" stroke="#191970" points="412.5407,-316.2183 420.761,-309.5343 410.1667,-309.6331 412.5407,-316.2183"/>
</g>
<!-- Node37&#45;&gt;Node21 -->
<g id="edge62" class="edge">
<title>Node37&#45;&gt;Node21</title>
<path fill="none" stroke="#191970" d="M488.8628,-291.4832C502.2748,-288.6735 517.2245,-285.5417 531.2359,-282.6064"/>
<polygon fill="#191970" stroke="#191970" points="532.1672,-285.9874 541.2371,-280.5112 530.7319,-279.1361 532.1672,-285.9874"/>
</g>
<!-- Node38&#45;&gt;Node37 -->
<g id="edge64" class="edge">
<title>Node38&#45;&gt;Node37</title>
<path fill="none" stroke="#191970" d="M350.7284,-307.7939C362.5103,-306.8902 375.9562,-305.8588 388.9536,-304.8619"/>
<polygon fill="#191970" stroke="#191970" points="389.5378,-308.3275 399.2408,-304.0728 389.0024,-301.348 389.5378,-308.3275"/>
</g>
</g>
</svg>
