<?xml version="1.0" encoding="UTF-8" standalone="no"?>
<!DOCTYPE svg PUBLIC "-//W3C//DTD SVG 1.1//EN"
 "http://www.w3.org/Graphics/SVG/1.1/DTD/svg11.dtd">
<!-- Generated by graphviz version 2.40.1 (20161225.0304)
 -->
<!-- Title: src/opcontrol.c Pages: 1 -->
<svg width="288pt" height="247pt"
 viewBox="0.00 0.00 288.41 247.00" xmlns="http://www.w3.org/2000/svg" xmlns:xlink="http://www.w3.org/1999/xlink">
<g id="graph0" class="graph" transform="scale(1 1) rotate(0) translate(4 243)">
<title>src/opcontrol.c</title>
<!-- Node0 -->
<g id="node1" class="node">
<title>Node0</title>
<polygon fill="#bfbfbf" stroke="#000000" points="92.7734,-220.5 92.7734,-238.5 173.7979,-238.5 173.7979,-220.5 92.7734,-220.5"/>
<text text-anchor="middle" x="133.2856" y="-226.5" font-family="Helvetica,sans-Serif" font-size="10.00" fill="#000000">src/opcontrol.c</text>
</g>
<!-- Node1 -->
<g id="node2" class="node">
<title>Node1</title>
<g id="a_node2"><a xlink:href="main_8h.html" target="_top" xlink:title="Header file for global functions. ">
<polygon fill="none" stroke="#000000" points="160.2783,-110.5 160.2783,-128.5 206.293,-128.5 206.293,-110.5 160.2783,-110.5"/>
<text text-anchor="middle" x="183.2856" y="-116.5" font-family="Helvetica,sans-Serif" font-size="10.00" fill="#000000">main.h</text>
</a>
</g>
</g>
<!-- Node0&#45;&gt;Node1 -->
<g id="edge1" class="edge">
<title>Node0&#45;&gt;Node1</title>
<path fill="none" stroke="#191970" d="M137.3774,-220.4982C145.5447,-202.5302 164.015,-161.8954 174.8744,-138.0046"/>
<polygon fill="#191970" stroke="#191970" points="178.1856,-139.1781 179.1374,-128.6261 171.813,-136.2815 178.1856,-139.1781"/>
</g>
<!-- Node7 -->
<g id="node8" class="node">
<title>Node7</title>
<g id="a_node8"><a xlink:href="slew_8h.html" target="_top" xlink:title="Contains the slew rate controller wrapper for the motors. ">
<polygon fill="none" stroke="#000000" points="86.3867,-165.5 86.3867,-183.5 130.1846,-183.5 130.1846,-165.5 86.3867,-165.5"/>
<text text-anchor="middle" x="108.2856" y="-171.5" font-family="Helvetica,sans-Serif" font-size="10.00" fill="#000000">slew.h</text>
</a>
</g>
</g>
<!-- Node0&#45;&gt;Node7 -->
<g id="edge7" class="edge">
<title>Node0&#45;&gt;Node7</title>
<path fill="none" stroke="#191970" d="M129.1574,-220.4179C125.7761,-212.9789 120.8822,-202.2123 116.683,-192.9742"/>
<polygon fill="#191970" stroke="#191970" points="119.828,-191.4348 112.5036,-183.7795 113.4554,-194.3315 119.828,-191.4348"/>
</g>
<!-- Node2 -->
<g id="node3" class="node">
<title>Node2</title>
<g id="a_node3"><a xlink:href="_a_p_i_8h.html" target="_top" xlink:title="Provides the high&#45;level user functionality intended for use by typical VEX Cortex programmers...">
<polygon fill="none" stroke="#000000" points="132.0566,-55.5 132.0566,-73.5 172.5146,-73.5 172.5146,-55.5 132.0566,-55.5"/>
<text text-anchor="middle" x="152.2856" y="-61.5" font-family="Helvetica,sans-Serif" font-size="10.00" fill="#000000">API.h</text>
</a>
</g>
</g>
<!-- Node1&#45;&gt;Node2 -->
<g id="edge2" class="edge">
<title>Node1&#45;&gt;Node2</title>
<path fill="none" stroke="#191970" d="M178.1666,-110.4179C173.9292,-102.8998 167.776,-91.9829 162.5325,-82.6799"/>
<polygon fill="#191970" stroke="#191970" points="165.4751,-80.7724 157.5159,-73.7795 159.377,-84.2096 165.4751,-80.7724"/>
</g>
<!-- Node3 -->
<g id="node4" class="node">
<title>Node3</title>
<polygon fill="none" stroke="#bfbfbf" points="22.4434,-.5 22.4434,-18.5 70.1279,-18.5 70.1279,-.5 22.4434,-.5"/>
<text text-anchor="middle" x="46.2856" y="-6.5" font-family="Helvetica,sans-Serif" font-size="10.00" fill="#000000">stdlib.h</text>
</g>
<!-- Node2&#45;&gt;Node3 -->
<g id="edge3" class="edge">
<title>Node2&#45;&gt;Node3</title>
<path fill="none" stroke="#191970" d="M134.7819,-55.4179C117.9037,-46.6603 92.1369,-33.2907 72.752,-23.2326"/>
<polygon fill="#191970" stroke="#191970" points="74.3037,-20.0946 63.8154,-18.5956 71.0797,-26.308 74.3037,-20.0946"/>
</g>
<!-- Node4 -->
<g id="node5" class="node">
<title>Node4</title>
<polygon fill="none" stroke="#bfbfbf" points="87.9927,-.5 87.9927,-18.5 144.5786,-18.5 144.5786,-.5 87.9927,-.5"/>
<text text-anchor="middle" x="116.2856" y="-6.5" font-family="Helvetica,sans-Serif" font-size="10.00" fill="#000000">stdbool.h</text>
</g>
<!-- Node2&#45;&gt;Node4 -->
<g id="edge4" class="edge">
<title>Node2&#45;&gt;Node4</title>
<path fill="none" stroke="#191970" d="M146.341,-55.4179C141.3683,-47.8207 134.1238,-36.7527 127.9932,-27.3866"/>
<polygon fill="#191970" stroke="#191970" points="130.7646,-25.2297 122.3595,-18.7795 124.9076,-29.0633 130.7646,-25.2297"/>
</g>
<!-- Node5 -->
<g id="node6" class="node">
<title>Node5</title>
<polygon fill="none" stroke="#bfbfbf" points="162.2192,-.5 162.2192,-18.5 214.3521,-18.5 214.3521,-.5 162.2192,-.5"/>
<text text-anchor="middle" x="188.2856" y="-6.5" font-family="Helvetica,sans-Serif" font-size="10.00" fill="#000000">stdarg.h</text>
</g>
<!-- Node2&#45;&gt;Node5 -->
<g id="edge5" class="edge">
<title>Node2&#45;&gt;Node5</title>
<path fill="none" stroke="#191970" d="M158.2303,-55.4179C163.203,-47.8207 170.4475,-36.7527 176.578,-27.3866"/>
<polygon fill="#191970" stroke="#191970" points="179.6636,-29.0633 182.2118,-18.7795 173.8067,-25.2297 179.6636,-29.0633"/>
</g>
<!-- Node6 -->
<g id="node7" class="node">
<title>Node6</title>
<polygon fill="none" stroke="#bfbfbf" points="232.165,-.5 232.165,-18.5 280.4063,-18.5 280.4063,-.5 232.165,-.5"/>
<text text-anchor="middle" x="256.2856" y="-6.5" font-family="Helvetica,sans-Serif" font-size="10.00" fill="#000000">stdint.h</text>
</g>
<!-- Node2&#45;&gt;Node6 -->
<g id="edge6" class="edge">
<title>Node2&#45;&gt;Node6</title>
<path fill="none" stroke="#191970" d="M169.4591,-55.4179C185.9436,-46.7001 211.0699,-33.4122 230.0589,-23.3699"/>
<polygon fill="#191970" stroke="#191970" points="231.8829,-26.3646 239.0866,-18.5956 228.6104,-20.1767 231.8829,-26.3646"/>
</g>
<!-- Node7&#45;&gt;Node2 -->
<g id="edge8" class="edge">
<title>Node7&#45;&gt;Node2</title>
<path fill="none" stroke="#191970" d="M111.8863,-165.4982C119.0736,-147.5302 135.3275,-106.8954 144.8838,-83.0046"/>
<polygon fill="#191970" stroke="#191970" points="148.1709,-84.2108 148.6352,-73.6261 141.6715,-81.611 148.1709,-84.2108"/>
</g>
<!-- Node8 -->
<g id="node9" class="node">
<title>Node8</title>
<polygon fill="none" stroke="#bfbfbf" points="0,-55.5 0,-73.5 46.5713,-73.5 46.5713,-55.5 0,-55.5"/>
<text text-anchor="middle" x="23.2856" y="-61.5" font-family="Helvetica,sans-Serif" font-size="10.00" fill="#000000">math.h</text>
</g>
<!-- Node7&#45;&gt;Node8 -->
<g id="edge9" class="edge">
<title>Node7&#45;&gt;Node8</title>
<path fill="none" stroke="#191970" d="M94.754,-165.2779C83.1642,-156.8632 66.6014,-143.551 55.2856,-129 44.5077,-115.1405 35.9239,-97.0736 30.371,-83.588"/>
<polygon fill="#191970" stroke="#191970" points="33.4908,-81.9564 26.5834,-73.9229 26.9734,-84.5105 33.4908,-81.9564"/>
</g>
<!-- Node9 -->
<g id="node10" class="node">
<title>Node9</title>
<g id="a_node10"><a xlink:href="vlib_8h.html" target="_top" xlink:title="Contains misc helpful functions. ">
<polygon fill="none" stroke="#000000" points="64.6133,-110.5 64.6133,-128.5 103.958,-128.5 103.958,-110.5 64.6133,-110.5"/>
<text text-anchor="middle" x="84.2856" y="-116.5" font-family="Helvetica,sans-Serif" font-size="10.00" fill="#000000">vlib.h</text>
</a>
</g>
</g>
<!-- Node7&#45;&gt;Node9 -->
<g id="edge10" class="edge">
<title>Node7&#45;&gt;Node9</title>
<path fill="none" stroke="#191970" d="M104.3225,-165.4179C101.0765,-157.9789 96.3783,-147.2123 92.3471,-137.9742"/>
<polygon fill="#191970" stroke="#191970" points="95.5423,-136.545 88.3349,-128.7795 89.1265,-139.3447 95.5423,-136.545"/>
</g>
<!-- Node9&#45;&gt;Node2 -->
<g id="edge12" class="edge">
<title>Node9&#45;&gt;Node2</title>
<path fill="none" stroke="#191970" d="M95.5145,-110.4179C105.6901,-102.1876 120.9019,-89.8839 133.0187,-80.0836"/>
<polygon fill="#191970" stroke="#191970" points="135.2388,-82.7895 140.8129,-73.7795 130.8367,-77.3469 135.2388,-82.7895"/>
</g>
<!-- Node9&#45;&gt;Node8 -->
<g id="edge11" class="edge">
<title>Node9&#45;&gt;Node8</title>
<path fill="none" stroke="#191970" d="M74.2127,-110.4179C65.2601,-102.3458 51.9619,-90.3556 41.1993,-80.6517"/>
<polygon fill="#191970" stroke="#191970" points="43.3481,-77.8764 33.5774,-73.7795 38.6606,-83.0753 43.3481,-77.8764"/>
</g>
<!-- Node10 -->
<g id="node11" class="node">
<title>Node10</title>
<polygon fill="none" stroke="#bfbfbf" points="64.8892,-55.5 64.8892,-73.5 113.6821,-73.5 113.6821,-55.5 64.8892,-55.5"/>
<text text-anchor="middle" x="89.2856" y="-61.5" font-family="Helvetica,sans-Serif" font-size="10.00" fill="#000000">string.h</text>
</g>
<!-- Node9&#45;&gt;Node10 -->
<g id="edge13" class="edge">
<title>Node9&#45;&gt;Node10</title>
<path fill="none" stroke="#191970" d="M85.1113,-110.4179C85.766,-103.2164 86.7042,-92.8962 87.5254,-83.8632"/>
<polygon fill="#191970" stroke="#191970" points="91.0222,-84.0553 88.4421,-73.7795 84.051,-83.4215 91.0222,-84.0553"/>
</g>
</g>
</svg>
