<?xml version="1.0" encoding="UTF-8" standalone="no"?>
<!DOCTYPE svg PUBLIC "-//W3C//DTD SVG 1.1//EN"
 "http://www.w3.org/Graphics/SVG/1.1/DTD/svg11.dtd">
<!-- Generated by graphviz version 2.40.1 (20161225.0304)
 -->
<!-- Title: src/opcontrol.c Pages: 1 -->
<svg width="214pt" height="192pt"
 viewBox="0.00 0.00 214.29 192.00" xmlns="http://www.w3.org/2000/svg" xmlns:xlink="http://www.w3.org/1999/xlink">
<g id="graph0" class="graph" transform="scale(1 1) rotate(0) translate(4 188)">
<title>src/opcontrol.c</title>
<!-- Node0 -->
<g id="node1" class="node">
<title>Node0</title>
<polygon fill="#bfbfbf" stroke="#000000" points="92.7734,-165.5 92.7734,-183.5 173.7979,-183.5 173.7979,-165.5 92.7734,-165.5"/>
<text text-anchor="middle" x="133.2856" y="-171.5" font-family="Helvetica,sans-Serif" font-size="10.00" fill="#000000">src/opcontrol.c</text>
</g>
<!-- Node1 -->
<g id="node2" class="node">
<title>Node1</title>
<g id="a_node2"><a xlink:href="main_8h.html" target="_top" xlink:title="Header file for global functions. ">
<polygon fill="none" stroke="#000000" points="160.2783,-55.5 160.2783,-73.5 206.293,-73.5 206.293,-55.5 160.2783,-55.5"/>
<text text-anchor="middle" x="183.2856" y="-61.5" font-family="Helvetica,sans-Serif" font-size="10.00" fill="#000000">main.h</text>
</a>
</g>
</g>
<!-- Node0&#45;&gt;Node1 -->
<g id="edge1" class="edge">
<title>Node0&#45;&gt;Node1</title>
<path fill="none" stroke="#191970" d="M137.3774,-165.4982C145.5447,-147.5302 164.015,-106.8954 174.8744,-83.0046"/>
<polygon fill="#191970" stroke="#191970" points="178.1856,-84.1781 179.1374,-73.6261 171.813,-81.2815 178.1856,-84.1781"/>
</g>
<!-- Node3 -->
<g id="node4" class="node">
<title>Node3</title>
<g id="a_node4"><a xlink:href="slew_8h.html" target="_top" xlink:title="Contains the slew rate controller wrapper for the motors. ">
<polygon fill="none" stroke="#000000" points="86.3867,-110.5 86.3867,-128.5 130.1846,-128.5 130.1846,-110.5 86.3867,-110.5"/>
<text text-anchor="middle" x="108.2856" y="-116.5" font-family="Helvetica,sans-Serif" font-size="10.00" fill="#000000">slew.h</text>
</a>
</g>
</g>
<!-- Node0&#45;&gt;Node3 -->
<g id="edge3" class="edge">
<title>Node0&#45;&gt;Node3</title>
<path fill="none" stroke="#191970" d="M129.1574,-165.4179C125.7761,-157.9789 120.8822,-147.2123 116.683,-137.9742"/>
<polygon fill="#191970" stroke="#191970" points="119.828,-136.4348 112.5036,-128.7795 113.4554,-139.3315 119.828,-136.4348"/>
</g>
<!-- Node2 -->
<g id="node3" class="node">
<title>Node2</title>
<polygon fill="none" stroke="#bfbfbf" points="132.0566,-.5 132.0566,-18.5 172.5146,-18.5 172.5146,-.5 132.0566,-.5"/>
<text text-anchor="middle" x="152.2856" y="-6.5" font-family="Helvetica,sans-Serif" font-size="10.00" fill="#000000">API.h</text>
</g>
<!-- Node1&#45;&gt;Node2 -->
<g id="edge2" class="edge">
<title>Node1&#45;&gt;Node2</title>
<path fill="none" stroke="#191970" d="M178.1666,-55.4179C173.9292,-47.8998 167.776,-36.9829 162.5325,-27.6799"/>
<polygon fill="#191970" stroke="#191970" points="165.4751,-25.7724 157.5159,-18.7795 159.377,-29.2096 165.4751,-25.7724"/>
</g>
<!-- Node3&#45;&gt;Node2 -->
<g id="edge4" class="edge">
<title>Node3&#45;&gt;Node2</title>
<path fill="none" stroke="#191970" d="M111.8863,-110.4982C119.0736,-92.5302 135.3275,-51.8954 144.8838,-28.0046"/>
<polygon fill="#191970" stroke="#191970" points="148.1709,-29.2108 148.6352,-18.6261 141.6715,-26.611 148.1709,-29.2108"/>
</g>
<!-- Node4 -->
<g id="node5" class="node">
<title>Node4</title>
<polygon fill="none" stroke="#bfbfbf" points="0,-.5 0,-18.5 46.5713,-18.5 46.5713,-.5 0,-.5"/>
<text text-anchor="middle" x="23.2856" y="-6.5" font-family="Helvetica,sans-Serif" font-size="10.00" fill="#000000">math.h</text>
</g>
<!-- Node3&#45;&gt;Node4 -->
<g id="edge5" class="edge">
<title>Node3&#45;&gt;Node4</title>
<path fill="none" stroke="#191970" d="M94.754,-110.2779C83.1642,-101.8632 66.6014,-88.551 55.2856,-74 44.5077,-60.1405 35.9239,-42.0736 30.371,-28.588"/>
<polygon fill="#191970" stroke="#191970" points="33.4908,-26.9564 26.5834,-18.9229 26.9734,-29.5105 33.4908,-26.9564"/>
</g>
<!-- Node5 -->
<g id="node6" class="node">
<title>Node5</title>
<g id="a_node6"><a xlink:href="vlib_8h.html" target="_top" xlink:title="Contains misc helpful functions. ">
<polygon fill="none" stroke="#000000" points="64.6133,-55.5 64.6133,-73.5 103.958,-73.5 103.958,-55.5 64.6133,-55.5"/>
<text text-anchor="middle" x="84.2856" y="-61.5" font-family="Helvetica,sans-Serif" font-size="10.00" fill="#000000">vlib.h</text>
</a>
</g>
</g>
<!-- Node3&#45;&gt;Node5 -->
<g id="edge6" class="edge">
<title>Node3&#45;&gt;Node5</title>
<path fill="none" stroke="#191970" d="M104.3225,-110.4179C101.0765,-102.9789 96.3783,-92.2123 92.3471,-82.9742"/>
<polygon fill="#191970" stroke="#191970" points="95.5423,-81.545 88.3349,-73.7795 89.1265,-84.3447 95.5423,-81.545"/>
</g>
<!-- Node5&#45;&gt;Node2 -->
<g id="edge8" class="edge">
<title>Node5&#45;&gt;Node2</title>
<path fill="none" stroke="#191970" d="M95.5145,-55.4179C105.6901,-47.1876 120.9019,-34.8839 133.0187,-25.0836"/>
<polygon fill="#191970" stroke="#191970" points="135.2388,-27.7895 140.8129,-18.7795 130.8367,-22.3469 135.2388,-27.7895"/>
</g>
<!-- Node5&#45;&gt;Node4 -->
<g id="edge7" class="edge">
<title>Node5&#45;&gt;Node4</title>
<path fill="none" stroke="#191970" d="M74.2127,-55.4179C65.2601,-47.3458 51.9619,-35.3556 41.1993,-25.6517"/>
<polygon fill="#191970" stroke="#191970" points="43.3481,-22.8764 33.5774,-18.7795 38.6606,-28.0753 43.3481,-22.8764"/>
</g>
<!-- Node6 -->
<g id="node7" class="node">
<title>Node6</title>
<polygon fill="none" stroke="#bfbfbf" points="64.8892,-.5 64.8892,-18.5 113.6821,-18.5 113.6821,-.5 64.8892,-.5"/>
<text text-anchor="middle" x="89.2856" y="-6.5" font-family="Helvetica,sans-Serif" font-size="10.00" fill="#000000">string.h</text>
</g>
<!-- Node5&#45;&gt;Node6 -->
<g id="edge9" class="edge">
<title>Node5&#45;&gt;Node6</title>
<path fill="none" stroke="#191970" d="M85.1113,-55.4179C85.766,-48.2164 86.7042,-37.8962 87.5254,-28.8632"/>
<polygon fill="#191970" stroke="#191970" points="91.0222,-29.0553 88.4421,-18.7795 84.051,-28.4215 91.0222,-29.0553"/>
</g>
</g>
</svg>
