<?xml version="1.0" encoding="UTF-8" standalone="no"?>
<!DOCTYPE svg PUBLIC "-//W3C//DTD SVG 1.1//EN"
 "http://www.w3.org/Graphics/SVG/1.1/DTD/svg11.dtd">
<!-- Generated by graphviz version 2.40.1 (20161225.0304)
 -->
<!-- Title: src/partner.c Pages: 1 -->
<svg width="121pt" height="247pt"
 viewBox="0.00 0.00 120.69 247.00" xmlns="http://www.w3.org/2000/svg" xmlns:xlink="http://www.w3.org/1999/xlink">
<g id="graph0" class="graph" transform="scale(1 1) rotate(0) translate(4 243)">
<title>src/partner.c</title>
<!-- Node0 -->
<g id="node1" class="node">
<title>Node0</title>
<polygon fill="#bfbfbf" stroke="#000000" points="26.9482,-220.5 26.9482,-238.5 97.9727,-238.5 97.9727,-220.5 26.9482,-220.5"/>
<text text-anchor="middle" x="62.4604" y="-226.5" font-family="Helvetica,sans-Serif" font-size="10.00" fill="#000000">src/partner.c</text>
</g>
<!-- Node1 -->
<g id="node2" class="node">
<title>Node1</title>
<g id="a_node2"><a xlink:href="partner_8h.html" target="_top" xlink:title="partner.h">
<polygon fill="none" stroke="#000000" points="34.7217,-165.5 34.7217,-183.5 90.1992,-183.5 90.1992,-165.5 34.7217,-165.5"/>
<text text-anchor="middle" x="62.4604" y="-171.5" font-family="Helvetica,sans-Serif" font-size="10.00" fill="#000000">partner.h</text>
</a>
</g>
</g>
<!-- Node0&#45;&gt;Node1 -->
<g id="edge1" class="edge">
<title>Node0&#45;&gt;Node1</title>
<path fill="none" stroke="#191970" d="M62.4604,-220.4179C62.4604,-213.2164 62.4604,-202.8962 62.4604,-193.8632"/>
<polygon fill="#191970" stroke="#191970" points="65.9605,-193.7794 62.4604,-183.7795 58.9605,-193.7795 65.9605,-193.7794"/>
</g>
<!-- Node2 -->
<g id="node3" class="node">
<title>Node2</title>
<g id="a_node3"><a xlink:href="controller_8h.html" target="_top" xlink:title="controller definitions, macros and functions to assist with usig the vex controllers. ">
<polygon fill="none" stroke="#000000" points="0,-110.5 0,-128.5 64.9209,-128.5 64.9209,-110.5 0,-110.5"/>
<text text-anchor="middle" x="32.4604" y="-116.5" font-family="Helvetica,sans-Serif" font-size="10.00" fill="#000000">controller.h</text>
</a>
</g>
</g>
<!-- Node1&#45;&gt;Node2 -->
<g id="edge2" class="edge">
<title>Node1&#45;&gt;Node2</title>
<path fill="none" stroke="#191970" d="M57.5066,-165.4179C53.4058,-157.8998 47.4511,-146.9829 42.3767,-137.6799"/>
<polygon fill="#191970" stroke="#191970" points="45.3832,-135.8824 37.522,-128.7795 39.2379,-139.2344 45.3832,-135.8824"/>
</g>
<!-- Node5 -->
<g id="node6" class="node">
<title>Node5</title>
<polygon fill="none" stroke="#bfbfbf" points="72.2314,-55.5 72.2314,-73.5 112.6895,-73.5 112.6895,-55.5 72.2314,-55.5"/>
<text text-anchor="middle" x="92.4604" y="-61.5" font-family="Helvetica,sans-Serif" font-size="10.00" fill="#000000">API.h</text>
</g>
<!-- Node1&#45;&gt;Node5 -->
<g id="edge6" class="edge">
<title>Node1&#45;&gt;Node5</title>
<path fill="none" stroke="#191970" d="M64.9155,-165.4982C69.7939,-147.6108 80.7988,-107.2594 87.3258,-83.3271"/>
<polygon fill="#191970" stroke="#191970" points="90.7169,-84.1947 89.9715,-73.6261 83.9636,-82.3528 90.7169,-84.1947"/>
</g>
<!-- Node3 -->
<g id="node4" class="node">
<title>Node3</title>
<g id="a_node4"><a xlink:href="vmath_8h.html" target="_top" xlink:title="Vex Specific Math Functions, includes: Cartesian to polar cordinates. ">
<polygon fill="none" stroke="#000000" points="2.6748,-55.5 2.6748,-73.5 54.2461,-73.5 54.2461,-55.5 2.6748,-55.5"/>
<text text-anchor="middle" x="28.4604" y="-61.5" font-family="Helvetica,sans-Serif" font-size="10.00" fill="#000000">vmath.h</text>
</a>
</g>
</g>
<!-- Node2&#45;&gt;Node3 -->
<g id="edge3" class="edge">
<title>Node2&#45;&gt;Node3</title>
<path fill="none" stroke="#191970" d="M31.7999,-110.4179C31.2762,-103.2164 30.5256,-92.8962 29.8687,-83.8632"/>
<polygon fill="#191970" stroke="#191970" points="33.3515,-83.4992 29.1353,-73.7795 26.37,-84.007 33.3515,-83.4992"/>
</g>
<!-- Node2&#45;&gt;Node5 -->
<g id="edge5" class="edge">
<title>Node2&#45;&gt;Node5</title>
<path fill="none" stroke="#191970" d="M42.3682,-110.4179C51.1741,-102.3458 64.2543,-90.3556 74.8404,-80.6517"/>
<polygon fill="#191970" stroke="#191970" points="77.3309,-83.1168 82.3374,-73.7795 72.6008,-77.9567 77.3309,-83.1168"/>
</g>
<!-- Node4 -->
<g id="node5" class="node">
<title>Node4</title>
<polygon fill="none" stroke="#bfbfbf" points="5.1748,-.5 5.1748,-18.5 51.7461,-18.5 51.7461,-.5 5.1748,-.5"/>
<text text-anchor="middle" x="28.4604" y="-6.5" font-family="Helvetica,sans-Serif" font-size="10.00" fill="#000000">math.h</text>
</g>
<!-- Node3&#45;&gt;Node4 -->
<g id="edge4" class="edge">
<title>Node3&#45;&gt;Node4</title>
<path fill="none" stroke="#191970" d="M28.4604,-55.4179C28.4604,-48.2164 28.4604,-37.8962 28.4604,-28.8632"/>
<polygon fill="#191970" stroke="#191970" points="31.9605,-28.7794 28.4604,-18.7795 24.9605,-28.7795 31.9605,-28.7794"/>
</g>
</g>
</svg>
