<?xml version="1.0" encoding="UTF-8" standalone="no"?>
<!DOCTYPE svg PUBLIC "-//W3C//DTD SVG 1.1//EN"
 "http://www.w3.org/Graphics/SVG/1.1/DTD/svg11.dtd">
<!-- Generated by graphviz version 2.40.1 (20161225.0304)
 -->
<!-- Title: /Users/chrisjerrett/Desktop/InTheZoneA/include/partner.h Pages: 1 -->
<svg width="615pt" height="347pt"
 viewBox="0.00 0.00 615.28 347.00" xmlns="http://www.w3.org/2000/svg" xmlns:xlink="http://www.w3.org/1999/xlink">
<g id="graph0" class="graph" transform="scale(1 1) rotate(0) translate(4 343)">
<title>/Users/chrisjerrett/Desktop/InTheZoneA/include/partner.h</title>
<!-- Node9 -->
<g id="node1" class="node">
<title>Node9</title>
<polygon fill="#bfbfbf" stroke="#000000" points="285,-300.5 285,-338.5 398.2754,-338.5 398.2754,-300.5 285,-300.5"/>
<text text-anchor="start" x="293" y="-326.5" font-family="Helvetica,sans-Serif" font-size="10.00" fill="#000000">/Users/chrisjerrett</text>
<text text-anchor="start" x="293" y="-316.5" font-family="Helvetica,sans-Serif" font-size="10.00" fill="#000000">/Desktop/InTheZoneA</text>
<text text-anchor="middle" x="341.6377" y="-306.5" font-family="Helvetica,sans-Serif" font-size="10.00" fill="#000000">/include/partner.h</text>
</g>
<!-- Node10 -->
<g id="node2" class="node">
<title>Node10</title>
<g id="a_node2"><a xlink:href="drive_8h.html" target="_top" xlink:title="Drive base definitions and enumerations. ">
<polygon fill="none" stroke="#000000" points="216,-225.5 216,-263.5 329.2754,-263.5 329.2754,-225.5 216,-225.5"/>
<text text-anchor="start" x="224" y="-251.5" font-family="Helvetica,sans-Serif" font-size="10.00" fill="#000000">/Users/chrisjerrett</text>
<text text-anchor="start" x="224" y="-241.5" font-family="Helvetica,sans-Serif" font-size="10.00" fill="#000000">/Desktop/InTheZoneA</text>
<text text-anchor="middle" x="272.6377" y="-231.5" font-family="Helvetica,sans-Serif" font-size="10.00" fill="#000000">/include/drive.h</text>
</a>
</g>
</g>
<!-- Node9&#45;&gt;Node10 -->
<g id="edge1" class="edge">
<title>Node9&#45;&gt;Node10</title>
<path fill="none" stroke="#191970" d="M317.0481,-292.7722C308.2298,-283.187 298.4675,-272.5759 290.3467,-263.7489"/>
<polygon fill="#191970" stroke="#191970" points="314.5221,-295.196 323.8685,-300.1856 319.6737,-290.4566 314.5221,-295.196"/>
</g>
<!-- Node13 -->
<g id="node5" class="node">
<title>Node13</title>
<g id="a_node5"><a xlink:href="lifter_8h.html" target="_top" xlink:title="Declarations and macros for controlling and manipulating the lifter. ">
<polygon fill="none" stroke="#000000" points="131,-150.5 131,-188.5 244.2754,-188.5 244.2754,-150.5 131,-150.5"/>
<text text-anchor="start" x="139" y="-176.5" font-family="Helvetica,sans-Serif" font-size="10.00" fill="#000000">/Users/chrisjerrett</text>
<text text-anchor="start" x="139" y="-166.5" font-family="Helvetica,sans-Serif" font-size="10.00" fill="#000000">/Desktop/InTheZoneA</text>
<text text-anchor="middle" x="187.6377" y="-156.5" font-family="Helvetica,sans-Serif" font-size="10.00" fill="#000000">/include/lifter.h</text>
</a>
</g>
</g>
<!-- Node9&#45;&gt;Node13 -->
<g id="edge10" class="edge">
<title>Node9&#45;&gt;Node13</title>
<path fill="none" stroke="#191970" d="M275.0815,-306.2008C250.2142,-298.003 223.8595,-284.8842 206.6377,-264 189.0705,-242.697 186.2556,-209.5976 186.474,-188.7579"/>
<polygon fill="#191970" stroke="#191970" points="274.294,-309.6202 284.881,-309.2119 276.3501,-302.929 274.294,-309.6202"/>
</g>
<!-- Node17 -->
<g id="node9" class="node">
<title>Node17</title>
<g id="a_node9"><a xlink:href="mobile__goal__intake_8c.html" target="_top" xlink:title="/Users/chrisjerrett\l/Desktop/InTheZoneA\l/src/mobile_goal_intake.c">
<polygon fill="none" stroke="#000000" points="347.2192,-225.5 347.2192,-263.5 476.0562,-263.5 476.0562,-225.5 347.2192,-225.5"/>
<text text-anchor="start" x="355.2192" y="-251.5" font-family="Helvetica,sans-Serif" font-size="10.00" fill="#000000">/Users/chrisjerrett</text>
<text text-anchor="start" x="355.2192" y="-241.5" font-family="Helvetica,sans-Serif" font-size="10.00" fill="#000000">/Desktop/InTheZoneA</text>
<text text-anchor="middle" x="411.6377" y="-231.5" font-family="Helvetica,sans-Serif" font-size="10.00" fill="#000000">/src/mobile_goal_intake.c</text>
</a>
</g>
</g>
<!-- Node9&#45;&gt;Node17 -->
<g id="edge11" class="edge">
<title>Node9&#45;&gt;Node17</title>
<path fill="none" stroke="#191970" d="M366.5836,-292.7722C375.5298,-283.187 385.4336,-272.5759 393.672,-263.7489"/>
<polygon fill="#191970" stroke="#191970" points="363.9289,-290.4869 359.6644,-300.1856 369.0464,-295.2632 363.9289,-290.4869"/>
</g>
<!-- Node18 -->
<g id="node10" class="node">
<title>Node18</title>
<g id="a_node10"><a xlink:href="partner_8c.html" target="_top" xlink:title="/Users/chrisjerrett\l/Desktop/InTheZoneA\l/src/partner.c">
<polygon fill="none" stroke="#000000" points="494,-225.5 494,-263.5 607.2754,-263.5 607.2754,-225.5 494,-225.5"/>
<text text-anchor="start" x="502" y="-251.5" font-family="Helvetica,sans-Serif" font-size="10.00" fill="#000000">/Users/chrisjerrett</text>
<text text-anchor="start" x="502" y="-241.5" font-family="Helvetica,sans-Serif" font-size="10.00" fill="#000000">/Desktop/InTheZoneA</text>
<text text-anchor="middle" x="550.6377" y="-231.5" font-family="Helvetica,sans-Serif" font-size="10.00" fill="#000000">/src/partner.c</text>
</a>
</g>
</g>
<!-- Node9&#45;&gt;Node18 -->
<g id="edge12" class="edge">
<title>Node9&#45;&gt;Node18</title>
<path fill="none" stroke="#191970" d="M404.1181,-297.0788C433.9282,-286.3814 469.212,-273.7197 497.6845,-263.5023"/>
<polygon fill="#191970" stroke="#191970" points="402.8775,-293.8054 394.6474,-300.4774 405.2419,-300.394 402.8775,-293.8054"/>
</g>
<!-- Node11 -->
<g id="node3" class="node">
<title>Node11</title>
<g id="a_node3"><a xlink:href="auto_8h.html" target="_top" xlink:title="Autonomous declarations and macros. ">
<polygon fill="none" stroke="#000000" points="131,-75.5 131,-113.5 244.2754,-113.5 244.2754,-75.5 131,-75.5"/>
<text text-anchor="start" x="139" y="-101.5" font-family="Helvetica,sans-Serif" font-size="10.00" fill="#000000">/Users/chrisjerrett</text>
<text text-anchor="start" x="139" y="-91.5" font-family="Helvetica,sans-Serif" font-size="10.00" fill="#000000">/Desktop/InTheZoneA</text>
<text text-anchor="middle" x="187.6377" y="-81.5" font-family="Helvetica,sans-Serif" font-size="10.00" fill="#000000">/include/auto.h</text>
</a>
</g>
</g>
<!-- Node10&#45;&gt;Node11 -->
<g id="edge2" class="edge">
<title>Node10&#45;&gt;Node11</title>
<path fill="none" stroke="#191970" d="M271.7357,-215.2381C269.982,-195.5993 265.372,-169.7992 253.6377,-150 245.0887,-135.5754 231.3873,-123.1493 218.6781,-113.7339"/>
<polygon fill="#191970" stroke="#191970" points="268.2595,-215.7037 272.4432,-225.4374 275.2427,-215.2192 268.2595,-215.7037"/>
</g>
<!-- Node10&#45;&gt;Node13 -->
<g id="edge4" class="edge">
<title>Node10&#45;&gt;Node13</title>
<path fill="none" stroke="#191970" d="M242.9901,-218.3404C231.9601,-208.608 219.6551,-197.7507 209.4531,-188.7489"/>
<polygon fill="#191970" stroke="#191970" points="240.934,-221.1938 250.7481,-225.1856 245.5654,-215.9449 240.934,-221.1938"/>
</g>
<!-- Node15 -->
<g id="node7" class="node">
<title>Node15</title>
<g id="a_node7"><a xlink:href="opcontrol_8c.html" target="_top" xlink:title="File for operator control code. ">
<polygon fill="none" stroke="#000000" points="262,-75.5 262,-113.5 375.2754,-113.5 375.2754,-75.5 262,-75.5"/>
<text text-anchor="start" x="270" y="-101.5" font-family="Helvetica,sans-Serif" font-size="10.00" fill="#000000">/Users/chrisjerrett</text>
<text text-anchor="start" x="270" y="-91.5" font-family="Helvetica,sans-Serif" font-size="10.00" fill="#000000">/Desktop/InTheZoneA</text>
<text text-anchor="middle" x="318.6377" y="-81.5" font-family="Helvetica,sans-Serif" font-size="10.00" fill="#000000">/src/opcontrol.c</text>
</a>
</g>
</g>
<!-- Node10&#45;&gt;Node15 -->
<g id="edge9" class="edge">
<title>Node10&#45;&gt;Node15</title>
<path fill="none" stroke="#191970" d="M281.5908,-215.3052C290.7912,-185.3039 304.8517,-139.4544 312.7409,-113.7287"/>
<polygon fill="#191970" stroke="#191970" points="278.143,-214.6105 278.5572,-225.1972 284.8354,-216.6628 278.143,-214.6105"/>
</g>
<!-- Node16 -->
<g id="node8" class="node">
<title>Node16</title>
<g id="a_node8"><a xlink:href="drive_8c.html" target="_top" xlink:title="/Users/chrisjerrett\l/Desktop/InTheZoneA\l/src/drive.c">
<polygon fill="none" stroke="#000000" points="339,-150.5 339,-188.5 452.2754,-188.5 452.2754,-150.5 339,-150.5"/>
<text text-anchor="start" x="347" y="-176.5" font-family="Helvetica,sans-Serif" font-size="10.00" fill="#000000">/Users/chrisjerrett</text>
<text text-anchor="start" x="347" y="-166.5" font-family="Helvetica,sans-Serif" font-size="10.00" fill="#000000">/Desktop/InTheZoneA</text>
<text text-anchor="middle" x="395.6377" y="-156.5" font-family="Helvetica,sans-Serif" font-size="10.00" fill="#000000">/src/drive.c</text>
</a>
</g>
</g>
<!-- Node10&#45;&gt;Node16 -->
<g id="edge8" class="edge">
<title>Node10&#45;&gt;Node16</title>
<path fill="none" stroke="#191970" d="M312.9859,-219.8974C329.6761,-209.7205 348.7329,-198.1005 364.3386,-188.5848"/>
<polygon fill="#191970" stroke="#191970" points="310.7099,-217.1859 303.994,-225.3803 314.3542,-223.1624 310.7099,-217.1859"/>
</g>
<!-- Node12 -->
<g id="node4" class="node">
<title>Node12</title>
<g id="a_node4"><a xlink:href="auto_8c.html" target="_top" xlink:title="File for autonomous code. ">
<polygon fill="none" stroke="#000000" points="131,-.5 131,-38.5 244.2754,-38.5 244.2754,-.5 131,-.5"/>
<text text-anchor="start" x="139" y="-26.5" font-family="Helvetica,sans-Serif" font-size="10.00" fill="#000000">/Users/chrisjerrett</text>
<text text-anchor="start" x="139" y="-16.5" font-family="Helvetica,sans-Serif" font-size="10.00" fill="#000000">/Desktop/InTheZoneA</text>
<text text-anchor="middle" x="187.6377" y="-6.5" font-family="Helvetica,sans-Serif" font-size="10.00" fill="#000000">/src/auto.c</text>
</a>
</g>
</g>
<!-- Node11&#45;&gt;Node12 -->
<g id="edge3" class="edge">
<title>Node11&#45;&gt;Node12</title>
<path fill="none" stroke="#191970" d="M187.6377,-64.8977C187.6377,-56.1033 187.6377,-46.7019 187.6377,-38.7489"/>
<polygon fill="#191970" stroke="#191970" points="184.1378,-65.1856 187.6377,-75.1856 191.1378,-65.1857 184.1378,-65.1856"/>
</g>
<!-- Node13&#45;&gt;Node11 -->
<g id="edge5" class="edge">
<title>Node13&#45;&gt;Node11</title>
<path fill="none" stroke="#191970" d="M187.6377,-139.8977C187.6377,-131.1033 187.6377,-121.7019 187.6377,-113.7489"/>
<polygon fill="#191970" stroke="#191970" points="184.1378,-140.1856 187.6377,-150.1856 191.1378,-140.1857 184.1378,-140.1856"/>
</g>
<!-- Node14 -->
<g id="node6" class="node">
<title>Node14</title>
<g id="a_node6"><a xlink:href="lifter_8c.html" target="_top" xlink:title="/Users/chrisjerrett\l/Desktop/InTheZoneA\l/src/lifter.c">
<polygon fill="none" stroke="#000000" points="0,-75.5 0,-113.5 113.2754,-113.5 113.2754,-75.5 0,-75.5"/>
<text text-anchor="start" x="8" y="-101.5" font-family="Helvetica,sans-Serif" font-size="10.00" fill="#000000">/Users/chrisjerrett</text>
<text text-anchor="start" x="8" y="-91.5" font-family="Helvetica,sans-Serif" font-size="10.00" fill="#000000">/Desktop/InTheZoneA</text>
<text text-anchor="middle" x="56.6377" y="-81.5" font-family="Helvetica,sans-Serif" font-size="10.00" fill="#000000">/src/lifter.c</text>
</a>
</g>
</g>
<!-- Node13&#45;&gt;Node14 -->
<g id="edge6" class="edge">
<title>Node13&#45;&gt;Node14</title>
<path fill="none" stroke="#191970" d="M145.1583,-145.1797C127.2657,-134.9359 106.7471,-123.1886 89.9725,-113.5848"/>
<polygon fill="#191970" stroke="#191970" points="143.8245,-148.4491 154.2419,-150.3803 147.3025,-142.3743 143.8245,-148.4491"/>
</g>
<!-- Node13&#45;&gt;Node15 -->
<g id="edge7" class="edge">
<title>Node13&#45;&gt;Node15</title>
<path fill="none" stroke="#191970" d="M230.1171,-145.1797C248.0097,-134.9359 268.5283,-123.1886 285.3029,-113.5848"/>
<polygon fill="#191970" stroke="#191970" points="227.9728,-142.3743 221.0335,-150.3803 231.4508,-148.4491 227.9728,-142.3743"/>
</g>
</g>
</svg>
