<?xml version="1.0" encoding="UTF-8" standalone="no"?>
<!DOCTYPE svg PUBLIC "-//W3C//DTD SVG 1.1//EN"
 "http://www.w3.org/Graphics/SVG/1.1/DTD/svg11.dtd">
<!-- Generated by graphviz version 2.40.1 (20161225.0304)
 -->
<!-- Title: include/partner.h Pages: 1 -->
<svg width="498pt" height="247pt"
 viewBox="0.00 0.00 497.63 247.00" xmlns="http://www.w3.org/2000/svg" xmlns:xlink="http://www.w3.org/1999/xlink">
<g id="graph0" class="graph" transform="scale(1 1) rotate(0) translate(4 243)">
<title>include/partner.h</title>
<!-- Node5 -->
<g id="node1" class="node">
<title>Node5</title>
<polygon fill="#bfbfbf" stroke="#000000" points="231.1431,-220.5 231.1431,-238.5 321.0884,-238.5 321.0884,-220.5 231.1431,-220.5"/>
<text text-anchor="middle" x="276.1157" y="-226.5" font-family="Helvetica,sans-Serif" font-size="10.00" fill="#000000">include/partner.h</text>
</g>
<!-- Node6 -->
<g id="node2" class="node">
<title>Node6</title>
<g id="a_node2"><a xlink:href="drive_8h.html" target="_top" xlink:title="Drive base definitions and enumerations. ">
<polygon fill="none" stroke="#000000" points="175.8745,-165.5 175.8745,-183.5 256.3569,-183.5 256.3569,-165.5 175.8745,-165.5"/>
<text text-anchor="middle" x="216.1157" y="-171.5" font-family="Helvetica,sans-Serif" font-size="10.00" fill="#000000">include/drive.h</text>
</a>
</g>
</g>
<!-- Node5&#45;&gt;Node6 -->
<g id="edge1" class="edge">
<title>Node5&#45;&gt;Node6</title>
<path fill="none" stroke="#191970" d="M258.753,-213.5841C248.2078,-203.9177 235.1135,-191.9147 226.2388,-183.7795"/>
<polygon fill="#191970" stroke="#191970" points="256.4713,-216.2406 266.2079,-220.4179 261.2014,-211.0805 256.4713,-216.2406"/>
</g>
<!-- Node9 -->
<g id="node5" class="node">
<title>Node9</title>
<g id="a_node5"><a xlink:href="lifter_8h.html" target="_top" xlink:title="Declarations and macros for controlling and manipulating the lifter. ">
<polygon fill="none" stroke="#000000" points="109.5396,-110.5 109.5396,-128.5 186.6919,-128.5 186.6919,-110.5 109.5396,-110.5"/>
<text text-anchor="middle" x="148.1157" y="-116.5" font-family="Helvetica,sans-Serif" font-size="10.00" fill="#000000">include/lifter.h</text>
</a>
</g>
</g>
<!-- Node5&#45;&gt;Node9 -->
<g id="edge11" class="edge">
<title>Node5&#45;&gt;Node9</title>
<path fill="none" stroke="#191970" d="M221.7305,-217.2928C202.1567,-210.4395 181.4024,-199.935 167.1157,-184 152.9329,-168.1809 149.3131,-142.2542 148.4054,-128.5871"/>
<polygon fill="#191970" stroke="#191970" points="220.9216,-220.7098 231.5136,-220.4624 223.0792,-214.0506 220.9216,-220.7098"/>
</g>
<!-- Node14 -->
<g id="node10" class="node">
<title>Node14</title>
<g id="a_node10"><a xlink:href="mobile__goal__intake_8c.html" target="_top" xlink:title="src/mobile_goal_intake.c">
<polygon fill="none" stroke="#000000" points="274.0864,-165.5 274.0864,-183.5 400.145,-183.5 400.145,-165.5 274.0864,-165.5"/>
<text text-anchor="middle" x="337.1157" y="-171.5" font-family="Helvetica,sans-Serif" font-size="10.00" fill="#000000">src/mobile_goal_intake.c</text>
</a>
</g>
</g>
<!-- Node5&#45;&gt;Node14 -->
<g id="edge12" class="edge">
<title>Node5&#45;&gt;Node14</title>
<path fill="none" stroke="#191970" d="M293.7678,-213.5841C304.4888,-203.9177 317.8013,-191.9147 326.824,-183.7795"/>
<polygon fill="#191970" stroke="#191970" points="291.2718,-211.122 286.1886,-220.4179 295.9593,-216.3209 291.2718,-211.122"/>
</g>
<!-- Node15 -->
<g id="node11" class="node">
<title>Node15</title>
<g id="a_node11"><a xlink:href="partner_8c.html" target="_top" xlink:title="src/partner.c">
<polygon fill="none" stroke="#000000" points="418.6035,-165.5 418.6035,-183.5 489.6279,-183.5 489.6279,-165.5 418.6035,-165.5"/>
<text text-anchor="middle" x="454.1157" y="-171.5" font-family="Helvetica,sans-Serif" font-size="10.00" fill="#000000">src/partner.c</text>
</a>
</g>
</g>
<!-- Node5&#45;&gt;Node15 -->
<g id="edge13" class="edge">
<title>Node5&#45;&gt;Node15</title>
<path fill="none" stroke="#191970" d="M315.3149,-217.3879C348.4231,-207.1578 395.0908,-192.7381 424.9748,-183.5042"/>
<polygon fill="#191970" stroke="#191970" points="314.0298,-214.1216 305.5088,-220.4179 316.0964,-220.8096 314.0298,-214.1216"/>
</g>
<!-- Node7 -->
<g id="node3" class="node">
<title>Node7</title>
<g id="a_node3"><a xlink:href="auto_8h.html" target="_top" xlink:title="Autonomous declarations and macros. ">
<polygon fill="none" stroke="#000000" points="145.9805,-55.5 145.9805,-73.5 224.251,-73.5 224.251,-55.5 145.9805,-55.5"/>
<text text-anchor="middle" x="185.1157" y="-61.5" font-family="Helvetica,sans-Serif" font-size="10.00" fill="#000000">include/auto.h</text>
</a>
</g>
</g>
<!-- Node6&#45;&gt;Node7 -->
<g id="edge2" class="edge">
<title>Node6&#45;&gt;Node7</title>
<path fill="none" stroke="#191970" d="M210.8566,-155.8386C204.1335,-131.9823 192.7579,-91.6173 187.6876,-73.6261"/>
<polygon fill="#191970" stroke="#191970" points="207.4975,-156.8226 213.5789,-165.4982 214.235,-154.9237 207.4975,-156.8226"/>
</g>
<!-- Node6&#45;&gt;Node9 -->
<g id="edge4" class="edge">
<title>Node6&#45;&gt;Node9</title>
<path fill="none" stroke="#191970" d="M196.7886,-158.8678C184.7782,-149.1535 169.7452,-136.9944 159.5885,-128.7795"/>
<polygon fill="#191970" stroke="#191970" points="194.9107,-161.8504 204.8869,-165.4179 199.3128,-156.4078 194.9107,-161.8504"/>
</g>
<!-- Node12 -->
<g id="node8" class="node">
<title>Node12</title>
<g id="a_node8"><a xlink:href="opcontrol_8c.html" target="_top" xlink:title="File for operator control code. ">
<polygon fill="none" stroke="#000000" points="242.6035,-55.5 242.6035,-73.5 323.6279,-73.5 323.6279,-55.5 242.6035,-55.5"/>
<text text-anchor="middle" x="283.1157" y="-61.5" font-family="Helvetica,sans-Serif" font-size="10.00" fill="#000000">src/opcontrol.c</text>
</a>
</g>
</g>
<!-- Node6&#45;&gt;Node12 -->
<g id="edge10" class="edge">
<title>Node6&#45;&gt;Node12</title>
<path fill="none" stroke="#191970" d="M226.8987,-156.7966C241.3459,-133.0774 266.4508,-91.8604 277.5571,-73.6261"/>
<polygon fill="#191970" stroke="#191970" points="223.8114,-155.137 221.5986,-165.4982 229.7898,-158.7784 223.8114,-155.137"/>
</g>
<!-- Node13 -->
<g id="node9" class="node">
<title>Node13</title>
<g id="a_node9"><a xlink:href="drive_8c.html" target="_top" xlink:title="src/drive.c">
<polygon fill="none" stroke="#000000" points="281.335,-110.5 281.335,-128.5 342.8965,-128.5 342.8965,-110.5 281.335,-110.5"/>
<text text-anchor="middle" x="312.1157" y="-116.5" font-family="Helvetica,sans-Serif" font-size="10.00" fill="#000000">src/drive.c</text>
</a>
</g>
</g>
<!-- Node6&#45;&gt;Node13 -->
<g id="edge9" class="edge">
<title>Node6&#45;&gt;Node13</title>
<path fill="none" stroke="#191970" d="M241.0212,-160.2313C258.4544,-150.2435 281.2236,-137.1986 296.2397,-128.5956"/>
<polygon fill="#191970" stroke="#191970" points="238.9051,-157.4098 231.9682,-165.4179 242.385,-163.4836 238.9051,-157.4098"/>
</g>
<!-- Node8 -->
<g id="node4" class="node">
<title>Node8</title>
<g id="a_node4"><a xlink:href="auto_8c.html" target="_top" xlink:title="File for autonomous code. ">
<polygon fill="none" stroke="#000000" points="155.4409,-.5 155.4409,-18.5 214.7905,-18.5 214.7905,-.5 155.4409,-.5"/>
<text text-anchor="middle" x="185.1157" y="-6.5" font-family="Helvetica,sans-Serif" font-size="10.00" fill="#000000">src/auto.c</text>
</a>
</g>
</g>
<!-- Node7&#45;&gt;Node8 -->
<g id="edge3" class="edge">
<title>Node7&#45;&gt;Node8</title>
<path fill="none" stroke="#191970" d="M185.1157,-45.383C185.1157,-36.3738 185.1157,-26.0373 185.1157,-18.7795"/>
<polygon fill="#191970" stroke="#191970" points="181.6158,-45.4178 185.1157,-55.4179 188.6158,-45.4179 181.6158,-45.4178"/>
</g>
<!-- Node9&#45;&gt;Node7 -->
<g id="edge5" class="edge">
<title>Node9&#45;&gt;Node7</title>
<path fill="none" stroke="#191970" d="M159.9858,-101.8553C166.2666,-92.519 173.7223,-81.4361 178.8732,-73.7795"/>
<polygon fill="#191970" stroke="#191970" points="156.9033,-100.167 154.2255,-110.4179 162.7114,-104.0743 156.9033,-100.167"/>
</g>
<!-- Node10 -->
<g id="node6" class="node">
<title>Node10</title>
<g id="a_node6"><a xlink:href="init_8c.html" target="_top" xlink:title="File for initialization code. ">
<polygon fill="none" stroke="#000000" points="75.7808,-55.5 75.7808,-73.5 128.4507,-73.5 128.4507,-55.5 75.7808,-55.5"/>
<text text-anchor="middle" x="102.1157" y="-61.5" font-family="Helvetica,sans-Serif" font-size="10.00" fill="#000000">src/init.c</text>
</a>
</g>
</g>
<!-- Node9&#45;&gt;Node10 -->
<g id="edge6" class="edge">
<title>Node9&#45;&gt;Node10</title>
<path fill="none" stroke="#191970" d="M134.086,-102.7253C126.1319,-93.215 116.4806,-81.6754 109.8767,-73.7795"/>
<polygon fill="#191970" stroke="#191970" points="131.4194,-104.9925 140.5198,-110.4179 136.7889,-100.5016 131.4194,-104.9925"/>
</g>
<!-- Node11 -->
<g id="node7" class="node">
<title>Node11</title>
<g id="a_node7"><a xlink:href="lifter_8c.html" target="_top" xlink:title="src/lifter.c">
<polygon fill="none" stroke="#000000" points="0,-55.5 0,-73.5 58.2314,-73.5 58.2314,-55.5 0,-55.5"/>
<text text-anchor="middle" x="29.1157" y="-61.5" font-family="Helvetica,sans-Serif" font-size="10.00" fill="#000000">src/lifter.c</text>
</a>
</g>
</g>
<!-- Node9&#45;&gt;Node11 -->
<g id="edge7" class="edge">
<title>Node9&#45;&gt;Node11</title>
<path fill="none" stroke="#191970" d="M119.3229,-106.1924C97.4729,-96.0937 68.0123,-82.4774 48.7953,-73.5956"/>
<polygon fill="#191970" stroke="#191970" points="117.9195,-109.3995 128.4653,-110.4179 120.8563,-103.0453 117.9195,-109.3995"/>
</g>
<!-- Node9&#45;&gt;Node12 -->
<g id="edge8" class="edge">
<title>Node9&#45;&gt;Node12</title>
<path fill="none" stroke="#191970" d="M179.7842,-106.598C204.6663,-96.4609 238.6961,-82.5969 260.7901,-73.5956"/>
<polygon fill="#191970" stroke="#191970" points="178.3486,-103.4035 170.4082,-110.4179 180.9897,-109.8862 178.3486,-103.4035"/>
</g>
</g>
</svg>
