<?xml version="1.0" encoding="UTF-8" standalone="no"?>
<!DOCTYPE svg PUBLIC "-//W3C//DTD SVG 1.1//EN"
 "http://www.w3.org/Graphics/SVG/1.1/DTD/svg11.dtd">
<!-- Generated by graphviz version 2.40.1 (20161225.0304)
 -->
<!-- Title: get_mode Pages: 1 -->
<svg width="336pt" height="101pt"
 viewBox="0.00 0.00 335.91 101.00" xmlns="http://www.w3.org/2000/svg" xmlns:xlink="http://www.w3.org/1999/xlink">
<g id="graph0" class="graph" transform="scale(1 1) rotate(0) translate(4 97)">
<title>get_mode</title>
<!-- Node1 -->
<g id="node1" class="node">
<title>Node1</title>
<polygon fill="#bfbfbf" stroke="#000000" points="0,-37.5 0,-55.5 60.4775,-55.5 60.4775,-37.5 0,-37.5"/>
<text text-anchor="middle" x="30.2388" y="-43.5" font-family="Helvetica,sans-Serif" font-size="10.00" fill="#000000">get_mode</text>
</g>
<!-- Node2 -->
<g id="node2" class="node">
<title>Node2</title>
<g id="a_node2"><a xlink:href="drive_8c.html#a8224a4626a934d30ed587671b7004bf8" target="_top" xlink:title="Updates the drive motors during teleop. ">
<polygon fill="none" stroke="#000000" points="96.4775,-74.5 96.4775,-92.5 206.4229,-92.5 206.4229,-74.5 96.4775,-74.5"/>
<text text-anchor="middle" x="151.4502" y="-80.5" font-family="Helvetica,sans-Serif" font-size="10.00" fill="#000000">update_drive_motors</text>
</a>
</g>
</g>
<!-- Node1&#45;&gt;Node2 -->
<g id="edge1" class="edge">
<title>Node1&#45;&gt;Node2</title>
<path fill="none" stroke="#191970" d="M69.5254,-58.4923C86.4708,-63.6649 105.9646,-69.6155 121.6846,-74.414"/>
<polygon fill="#191970" stroke="#191970" points="70.4766,-55.1233 59.8904,-55.5512 68.4329,-61.8183 70.4766,-55.1233"/>
</g>
<!-- Node4 -->
<g id="node4" class="node">
<title>Node4</title>
<g id="a_node4"><a xlink:href="lifter_8c.html#a59bb7413777ca16aba124aaedf95c79b" target="_top" xlink:title="Updates the lifter in teleop. ">
<polygon fill="none" stroke="#000000" points="115.9307,-37.5 115.9307,-55.5 186.9697,-55.5 186.9697,-37.5 115.9307,-37.5"/>
<text text-anchor="middle" x="151.4502" y="-43.5" font-family="Helvetica,sans-Serif" font-size="10.00" fill="#000000">update_lifter</text>
</a>
</g>
</g>
<!-- Node1&#45;&gt;Node4 -->
<g id="edge3" class="edge">
<title>Node1&#45;&gt;Node4</title>
<path fill="none" stroke="#191970" d="M70.7091,-46.5C85.2092,-46.5 101.4443,-46.5 115.5325,-46.5"/>
<polygon fill="#191970" stroke="#191970" points="70.5129,-43.0001 60.5129,-46.5 70.5128,-50.0001 70.5129,-43.0001"/>
</g>
<!-- Node5 -->
<g id="node5" class="node">
<title>Node5</title>
<g id="a_node5"><a xlink:href="mobile__goal__intake_8c.html#ad0232c21c5c1ffda603d2b7d61034118" target="_top" xlink:title="updates the mobile goal intake in teleop. ">
<polygon fill="none" stroke="#000000" points="114.5366,-.5 114.5366,-18.5 188.3638,-18.5 188.3638,-.5 114.5366,-.5"/>
<text text-anchor="middle" x="151.4502" y="-6.5" font-family="Helvetica,sans-Serif" font-size="10.00" fill="#000000">updateIntake</text>
</a>
</g>
</g>
<!-- Node1&#45;&gt;Node5 -->
<g id="edge5" class="edge">
<title>Node1&#45;&gt;Node5</title>
<path fill="none" stroke="#191970" d="M69.5254,-34.5077C86.4708,-29.3351 105.9646,-23.3845 121.6846,-18.586"/>
<polygon fill="#191970" stroke="#191970" points="68.4329,-31.1817 59.8904,-37.4488 70.4766,-37.8767 68.4329,-31.1817"/>
</g>
<!-- Node3 -->
<g id="node3" class="node">
<title>Node3</title>
<g id="a_node3"><a xlink:href="opcontrol_8c.html#ac71a94af413917f27d108e95c4d6f6a7" target="_top" xlink:title="operatorControl">
<polygon fill="none" stroke="#000000" points="242.4229,-37.5 242.4229,-55.5 327.9053,-55.5 327.9053,-37.5 242.4229,-37.5"/>
<text text-anchor="middle" x="285.1641" y="-43.5" font-family="Helvetica,sans-Serif" font-size="10.00" fill="#000000">operatorControl</text>
</a>
</g>
</g>
<!-- Node2&#45;&gt;Node3 -->
<g id="edge2" class="edge">
<title>Node2&#45;&gt;Node3</title>
<path fill="none" stroke="#191970" d="M194.0046,-71.7248C212.8786,-66.5021 234.7437,-60.4518 252.3282,-55.586"/>
<polygon fill="#191970" stroke="#191970" points="192.8647,-68.4086 184.1603,-74.4488 194.7316,-75.1551 192.8647,-68.4086"/>
</g>
<!-- Node4&#45;&gt;Node3 -->
<g id="edge4" class="edge">
<title>Node4&#45;&gt;Node3</title>
<path fill="none" stroke="#191970" d="M197.5074,-46.5C211.9592,-46.5 227.851,-46.5 242.0884,-46.5"/>
<polygon fill="#191970" stroke="#191970" points="197.2831,-43.0001 187.2831,-46.5 197.283,-50.0001 197.2831,-43.0001"/>
</g>
<!-- Node5&#45;&gt;Node3 -->
<g id="edge6" class="edge">
<title>Node5&#45;&gt;Node3</title>
<path fill="none" stroke="#191970" d="M194.0046,-21.2752C212.8786,-26.4979 234.7437,-32.5482 252.3282,-37.414"/>
<polygon fill="#191970" stroke="#191970" points="194.7316,-17.8449 184.1603,-18.5512 192.8647,-24.5914 194.7316,-17.8449"/>
</g>
</g>
</svg>
