<?xml version="1.0" encoding="UTF-8" standalone="no"?>
<!DOCTYPE svg PUBLIC "-//W3C//DTD SVG 1.1//EN"
 "http://www.w3.org/Graphics/SVG/1.1/DTD/svg11.dtd">
<!-- Generated by graphviz version 2.40.1 (20161225.0304)
 -->
<!-- Title: include/partner.h Pages: 1 -->
<svg width="458pt" height="247pt"
 viewBox="0.00 0.00 457.63 247.00" xmlns="http://www.w3.org/2000/svg" xmlns:xlink="http://www.w3.org/1999/xlink">
<g id="graph0" class="graph" transform="scale(1 1) rotate(0) translate(4 243)">
<title>include/partner.h</title>
<!-- Node5 -->
<g id="node1" class="node">
<title>Node5</title>
<polygon fill="#bfbfbf" stroke="#000000" points="191.1431,-220.5 191.1431,-238.5 281.0884,-238.5 281.0884,-220.5 191.1431,-220.5"/>
<text text-anchor="middle" x="236.1157" y="-226.5" font-family="Helvetica,sans-Serif" font-size="10.00" fill="#000000">include/partner.h</text>
</g>
<!-- Node6 -->
<g id="node2" class="node">
<title>Node6</title>
<g id="a_node2"><a xlink:href="$drive_8h.html" xlink:title="Drive base definitions and enumerations. ">
<polygon fill="none" stroke="#000000" points="135.8745,-165.5 135.8745,-183.5 216.3569,-183.5 216.3569,-165.5 135.8745,-165.5"/>
<text text-anchor="middle" x="176.1157" y="-171.5" font-family="Helvetica,sans-Serif" font-size="10.00" fill="#000000">include/drive.h</text>
</a>
</g>
</g>
<!-- Node5&#45;&gt;Node6 -->
<g id="edge1" class="edge">
<title>Node5&#45;&gt;Node6</title>
<path fill="none" stroke="#191970" d="M218.753,-213.5841C208.2078,-203.9177 195.1135,-191.9147 186.2388,-183.7795"/>
<polygon fill="#191970" stroke="#191970" points="216.4713,-216.2406 226.2079,-220.4179 221.2014,-211.0805 216.4713,-216.2406"/>
</g>
<!-- Node9 -->
<g id="node5" class="node">
<title>Node9</title>
<g id="a_node5"><a xlink:href="$lifter_8h.html" xlink:title="Declarations and macros for controlling and manipulating the lifter. ">
<polygon fill="none" stroke="#000000" points="69.5396,-110.5 69.5396,-128.5 146.6919,-128.5 146.6919,-110.5 69.5396,-110.5"/>
<text text-anchor="middle" x="108.1157" y="-116.5" font-family="Helvetica,sans-Serif" font-size="10.00" fill="#000000">include/lifter.h</text>
</a>
</g>
</g>
<!-- Node5&#45;&gt;Node9 -->
<g id="edge10" class="edge">
<title>Node5&#45;&gt;Node9</title>
<path fill="none" stroke="#191970" d="M181.7305,-217.2928C162.1567,-210.4395 141.4024,-199.935 127.1157,-184 112.9329,-168.1809 109.3131,-142.2542 108.4054,-128.5871"/>
<polygon fill="#191970" stroke="#191970" points="180.9216,-220.7098 191.5136,-220.4624 183.0792,-214.0506 180.9216,-220.7098"/>
</g>
<!-- Node13 -->
<g id="node9" class="node">
<title>Node13</title>
<g id="a_node9"><a xlink:href="$mobile__goal__intake_8c.html" xlink:title="src/mobile_goal_intake.c">
<polygon fill="none" stroke="#000000" points="234.0864,-165.5 234.0864,-183.5 360.145,-183.5 360.145,-165.5 234.0864,-165.5"/>
<text text-anchor="middle" x="297.1157" y="-171.5" font-family="Helvetica,sans-Serif" font-size="10.00" fill="#000000">src/mobile_goal_intake.c</text>
</a>
</g>
</g>
<!-- Node5&#45;&gt;Node13 -->
<g id="edge11" class="edge">
<title>Node5&#45;&gt;Node13</title>
<path fill="none" stroke="#191970" d="M253.7678,-213.5841C264.4888,-203.9177 277.8013,-191.9147 286.824,-183.7795"/>
<polygon fill="#191970" stroke="#191970" points="251.2718,-211.122 246.1886,-220.4179 255.9593,-216.3209 251.2718,-211.122"/>
</g>
<!-- Node14 -->
<g id="node10" class="node">
<title>Node14</title>
<g id="a_node10"><a xlink:href="$partner_8c.html" xlink:title="src/partner.c">
<polygon fill="none" stroke="#000000" points="378.6035,-165.5 378.6035,-183.5 449.6279,-183.5 449.6279,-165.5 378.6035,-165.5"/>
<text text-anchor="middle" x="414.1157" y="-171.5" font-family="Helvetica,sans-Serif" font-size="10.00" fill="#000000">src/partner.c</text>
</a>
</g>
</g>
<!-- Node5&#45;&gt;Node14 -->
<g id="edge12" class="edge">
<title>Node5&#45;&gt;Node14</title>
<path fill="none" stroke="#191970" d="M275.3149,-217.3879C308.4231,-207.1578 355.0908,-192.7381 384.9748,-183.5042"/>
<polygon fill="#191970" stroke="#191970" points="274.0298,-214.1216 265.5088,-220.4179 276.0964,-220.8096 274.0298,-214.1216"/>
</g>
<!-- Node7 -->
<g id="node3" class="node">
<title>Node7</title>
<g id="a_node3"><a xlink:href="$auto_8h.html" xlink:title="Autonomous declarations and macros. ">
<polygon fill="none" stroke="#000000" points="75.9805,-55.5 75.9805,-73.5 154.251,-73.5 154.251,-55.5 75.9805,-55.5"/>
<text text-anchor="middle" x="115.1157" y="-61.5" font-family="Helvetica,sans-Serif" font-size="10.00" fill="#000000">include/auto.h</text>
</a>
</g>
</g>
<!-- Node6&#45;&gt;Node7 -->
<g id="edge2" class="edge">
<title>Node6&#45;&gt;Node7</title>
<path fill="none" stroke="#191970" d="M172.4536,-155.2918C169.3799,-141.9802 164.1748,-124.1724 156.1157,-110 148.0212,-95.7654 134.8284,-82.1913 125.6005,-73.6343"/>
<polygon fill="#191970" stroke="#191970" points="169.0627,-156.1745 174.55,-165.2376 175.9122,-154.7307 169.0627,-156.1745"/>
</g>
<!-- Node6&#45;&gt;Node9 -->
<g id="edge4" class="edge">
<title>Node6&#45;&gt;Node9</title>
<path fill="none" stroke="#191970" d="M156.7886,-158.8678C144.7782,-149.1535 129.7452,-136.9944 119.5885,-128.7795"/>
<polygon fill="#191970" stroke="#191970" points="154.9107,-161.8504 164.8869,-165.4179 159.3128,-156.4078 154.9107,-161.8504"/>
</g>
<!-- Node11 -->
<g id="node7" class="node">
<title>Node11</title>
<g id="a_node7"><a xlink:href="$opcontrol_8c.html" xlink:title="File for operator control code. ">
<polygon fill="none" stroke="#000000" points="172.6035,-55.5 172.6035,-73.5 253.6279,-73.5 253.6279,-55.5 172.6035,-55.5"/>
<text text-anchor="middle" x="213.1157" y="-61.5" font-family="Helvetica,sans-Serif" font-size="10.00" fill="#000000">src/opcontrol.c</text>
</a>
</g>
</g>
<!-- Node6&#45;&gt;Node11 -->
<g id="edge9" class="edge">
<title>Node6&#45;&gt;Node11</title>
<path fill="none" stroke="#191970" d="M182.3927,-155.8386C190.4171,-131.9823 203.9945,-91.6173 210.046,-73.6261"/>
<polygon fill="#191970" stroke="#191970" points="179.0144,-154.9042 179.1436,-165.4982 185.6491,-157.1359 179.0144,-154.9042"/>
</g>
<!-- Node12 -->
<g id="node8" class="node">
<title>Node12</title>
<g id="a_node8"><a xlink:href="$drive_8c.html" xlink:title="src/drive.c">
<polygon fill="none" stroke="#000000" points="241.335,-110.5 241.335,-128.5 302.8965,-128.5 302.8965,-110.5 241.335,-110.5"/>
<text text-anchor="middle" x="272.1157" y="-116.5" font-family="Helvetica,sans-Serif" font-size="10.00" fill="#000000">src/drive.c</text>
</a>
</g>
</g>
<!-- Node6&#45;&gt;Node12 -->
<g id="edge8" class="edge">
<title>Node6&#45;&gt;Node12</title>
<path fill="none" stroke="#191970" d="M201.0212,-160.2313C218.4544,-150.2435 241.2236,-137.1986 256.2397,-128.5956"/>
<polygon fill="#191970" stroke="#191970" points="198.9051,-157.4098 191.9682,-165.4179 202.385,-163.4836 198.9051,-157.4098"/>
</g>
<!-- Node8 -->
<g id="node4" class="node">
<title>Node8</title>
<g id="a_node4"><a xlink:href="$auto_8c.html" xlink:title="File for autonomous code. ">
<polygon fill="none" stroke="#000000" points="85.4409,-.5 85.4409,-18.5 144.7905,-18.5 144.7905,-.5 85.4409,-.5"/>
<text text-anchor="middle" x="115.1157" y="-6.5" font-family="Helvetica,sans-Serif" font-size="10.00" fill="#000000">src/auto.c</text>
</a>
</g>
</g>
<!-- Node7&#45;&gt;Node8 -->
<g id="edge3" class="edge">
<title>Node7&#45;&gt;Node8</title>
<path fill="none" stroke="#191970" d="M115.1157,-45.383C115.1157,-36.3738 115.1157,-26.0373 115.1157,-18.7795"/>
<polygon fill="#191970" stroke="#191970" points="111.6158,-45.4178 115.1157,-55.4179 118.6158,-45.4179 111.6158,-45.4178"/>
</g>
<!-- Node9&#45;&gt;Node7 -->
<g id="edge5" class="edge">
<title>Node9&#45;&gt;Node7</title>
<path fill="none" stroke="#191970" d="M110.5488,-100.383C111.6954,-91.3738 113.011,-81.0373 113.9347,-73.7795"/>
<polygon fill="#191970" stroke="#191970" points="107.0623,-100.056 109.2716,-110.4179 114.0063,-100.9398 107.0623,-100.056"/>
</g>
<!-- Node10 -->
<g id="node6" class="node">
<title>Node10</title>
<g id="a_node6"><a xlink:href="$lifter_8c.html" xlink:title="src/lifter.c">
<polygon fill="none" stroke="#000000" points="0,-55.5 0,-73.5 58.2314,-73.5 58.2314,-55.5 0,-55.5"/>
<text text-anchor="middle" x="29.1157" y="-61.5" font-family="Helvetica,sans-Serif" font-size="10.00" fill="#000000">src/lifter.c</text>
</a>
</g>
</g>
<!-- Node9&#45;&gt;Node10 -->
<g id="edge6" class="edge">
<title>Node9&#45;&gt;Node10</title>
<path fill="none" stroke="#191970" d="M86.8192,-104.6733C72.5828,-94.7619 54.3085,-82.0393 42.1803,-73.5956"/>
<polygon fill="#191970" stroke="#191970" points="84.8637,-107.5766 95.0705,-110.4179 88.8633,-101.8317 84.8637,-107.5766"/>
</g>
<!-- Node9&#45;&gt;Node11 -->
<g id="edge7" class="edge">
<title>Node9&#45;&gt;Node11</title>
<path fill="none" stroke="#191970" d="M134.565,-105.6456C153.7302,-95.6067 179.0994,-82.3181 195.7513,-73.5956"/>
<polygon fill="#191970" stroke="#191970" points="132.6886,-102.6773 125.4543,-110.4179 135.9367,-108.8782 132.6886,-102.6773"/>
</g>
</g>
</svg>
