<?xml version="1.0" encoding="UTF-8" standalone="no"?>
<!DOCTYPE svg PUBLIC "-//W3C//DTD SVG 1.1//EN"
 "http://www.w3.org/Graphics/SVG/1.1/DTD/svg11.dtd">
<!-- Generated by graphviz version 2.40.1 (20161225.0304)
 -->
<!-- Title: routine_task Pages: 1 -->
<!--zoomable 267 -->
<svg id="main" version="1.1" xmlns="http://www.w3.org/2000/svg" xmlns:xlink="http://www.w3.org/1999/xlink" xml:space="preserve" onload="init(evt)">
<style type="text/css"><![CDATA[
.edge:hover path { stroke: red; }
.edge:hover polygon { stroke: red; fill: red; }
]]></style>
<script type="text/javascript"><![CDATA[
var edges = document.getElementsByTagName('g');
if (edges && edges.length) {
  for (var i=0;i<edges.length;i++) {
    if (edges[i].id.substr(0,4)=='edge') {
      edges[i].setAttribute('class','edge');
    }
  }
}
]]></script>
        <defs>
                <circle id="rim" cx="0" cy="0" r="7"/>
                <circle id="rim2" cx="0" cy="0" r="3.5"/>
                <g id="zoomPlus">
                        <use xlink:href="#rim" fill="#404040">
                                <set attributeName="fill" to="#808080" begin="zoomplus.mouseover" end="zoomplus.mouseout"/>
                        </use>
                        <path d="M-4,0h8M0,-4v8" fill="none" stroke="white" stroke-width="1.5" pointer-events="none"/>
                </g>
                <g id="zoomMin">
                        <use xlink:href="#rim" fill="#404040">
                                <set attributeName="fill" to="#808080" begin="zoomminus.mouseover" end="zoomminus.mouseout"/>
                        </use>
                        <path d="M-4,0h8" fill="none" stroke="white" stroke-width="1.5" pointer-events="none"/>
                </g>
                <g id="dirArrow">
                        <path fill="none" stroke="white" stroke-width="1.5" d="M0,-3.0v7 M-2.5,-0.5L0,-3.0L2.5,-0.5"/>
                </g>
               <g id="resetDef">
                       <use xlink:href="#rim2" fill="#404040">
                               <set attributeName="fill" to="#808080" begin="reset.mouseover" end="reset.mouseout"/>
                       </use>
               </g>
        </defs>

<script type="text/javascript">
var viewWidth = 525;
var viewHeight = 267;
var sectionId = 'dynsection-5';
</script>
<script xlink:href="svgpan.js"/>
<svg id="graph" class="graph">
<g id="viewport">
<title>routine_task</title>
<!-- Node29 -->
<g id="node1" class="node">
<title>Node29</title>
<polygon fill="#bfbfbf" stroke="#000000" points="0,-92.5 0,-110.5 70.4775,-110.5 70.4775,-92.5 0,-92.5"/>
<text text-anchor="middle" x="35.2388" y="-98.5" font-family="Helvetica,sans-Serif" font-size="10.00" fill="#000000">routine_task</text>
</g>
<!-- Node30 -->
<g id="node2" class="node">
<title>Node30</title>
<g id="a_node2"><a xlink:href="toggle_8h.html#ae819f86fad1b51d66f4294140b53ff77" target="_top" xlink:title="Detects if button is a new press from most recent check by comparing previous value to current value...">
<polygon fill="none" stroke="#000000" points="109.5342,-194.5 109.5342,-212.5 206.6816,-212.5 206.6816,-194.5 109.5342,-194.5"/>
<text text-anchor="middle" x="158.1079" y="-200.5" font-family="Helvetica,sans-Serif" font-size="10.00" fill="#000000">buttonIsNewPress</text>
</a>
</g>
</g>
<!-- Node29&#45;&gt;Node30 -->
<g id="edge1" class="edge">
<title>Node29&#45;&gt;Node30</title>
<path fill="none" stroke="#191970" d="M42.3246,-110.7429C54.2901,-125.9044 79.8151,-156.379 106.4775,-176.5 113.063,-181.4698 120.6931,-186.0135 128.0336,-189.8982"/>
<polygon fill="#191970" stroke="#191970" points="126.5704,-193.08 137.0764,-194.4488 129.7171,-186.8271 126.5704,-193.08"/>
</g>
<!-- Node34 -->
<g id="node6" class="node">
<title>Node34</title>
<g id="a_node6"><a xlink:href="log_8h.html#a8e5bb8a2a372f5b066ff7af7044584c1" target="_top" xlink:title="prints a error message and displays on lcd. ">
<polygon fill="none" stroke="#000000" points="139.5513,-148.5 139.5513,-166.5 176.6646,-166.5 176.6646,-148.5 139.5513,-148.5"/>
<text text-anchor="middle" x="158.1079" y="-154.5" font-family="Helvetica,sans-Serif" font-size="10.00" fill="#000000">error</text>
</a>
</g>
</g>
<!-- Node29&#45;&gt;Node34 -->
<g id="edge5" class="edge">
<title>Node29&#45;&gt;Node34</title>
<path fill="none" stroke="#191970" d="M50.4614,-110.5078C64.6577,-118.6927 86.5751,-130.7849 106.4775,-139.5 113.8538,-142.73 122.0107,-145.7958 129.6209,-148.4516"/>
<polygon fill="#191970" stroke="#191970" points="128.6046,-151.8025 139.1988,-151.686 130.8442,-145.1705 128.6046,-151.8025"/>
</g>
<!-- Node40 -->
<g id="node12" class="node">
<title>Node40</title>
<g id="a_node12"><a xlink:href="list_8h.html#ad16fa29ddbb444070ea65f871e1c0ba2" target="_top" xlink:title="Destroys the iterator. ">
<polygon fill="none" stroke="#000000" points="106.4775,-111.5 106.4775,-129.5 209.7383,-129.5 209.7383,-111.5 106.4775,-111.5"/>
<text text-anchor="middle" x="158.1079" y="-117.5" font-family="Helvetica,sans-Serif" font-size="10.00" fill="#000000">list_iterator_destroy</text>
</a>
</g>
</g>
<!-- Node29&#45;&gt;Node40 -->
<g id="edge11" class="edge">
<title>Node29&#45;&gt;Node40</title>
<path fill="none" stroke="#191970" d="M70.7776,-106.9956C78.7245,-108.2245 87.3789,-109.5627 96.0499,-110.9036"/>
<polygon fill="#191970" stroke="#191970" points="95.7777,-114.403 106.1951,-112.4724 96.8475,-107.4852 95.7777,-114.403"/>
</g>
<!-- Node41 -->
<g id="node13" class="node">
<title>Node41</title>
<g id="a_node13"><a xlink:href="list_8h.html#a3c956afda343b4a6aaf68fbd4b446733" target="_top" xlink:title="Creates a new iterator. ">
<polygon fill="none" stroke="#000000" points="113.7017,-74.5 113.7017,-92.5 202.5142,-92.5 202.5142,-74.5 113.7017,-74.5"/>
<text text-anchor="middle" x="158.1079" y="-80.5" font-family="Helvetica,sans-Serif" font-size="10.00" fill="#000000">list_iterator_new</text>
</a>
</g>
</g>
<!-- Node29&#45;&gt;Node41 -->
<g id="edge12" class="edge">
<title>Node29&#45;&gt;Node41</title>
<path fill="none" stroke="#191970" d="M70.7776,-96.2937C80.9792,-94.7992 92.3468,-93.1338 103.4186,-91.5118"/>
<polygon fill="#191970" stroke="#191970" points="104.0745,-94.9532 113.4615,-90.0406 103.0598,-88.0271 104.0745,-94.9532"/>
</g>
<!-- Node43 -->
<g id="node15" class="node">
<title>Node43</title>
<g id="a_node15"><a xlink:href="list_8h.html#a2e5db981e32d3aef49ea79505a0615a6" target="_top" xlink:title="The next node in the iterator and advances the iterator. ">
<polygon fill="none" stroke="#000000" points="113.4233,-37.5 113.4233,-55.5 202.7925,-55.5 202.7925,-37.5 113.4233,-37.5"/>
<text text-anchor="middle" x="158.1079" y="-43.5" font-family="Helvetica,sans-Serif" font-size="10.00" fill="#000000">list_iterator_next</text>
</a>
</g>
</g>
<!-- Node29&#45;&gt;Node43 -->
<g id="edge14" class="edge">
<title>Node29&#45;&gt;Node43</title>
<path fill="none" stroke="#191970" d="M51.9615,-92.3591C66.2347,-84.7253 87.4165,-73.7906 106.4775,-65.5 111.5138,-63.3095 116.8924,-61.1445 122.2054,-59.104"/>
<polygon fill="#191970" stroke="#191970" points="123.4696,-62.3681 131.6101,-55.587 121.0176,-55.8115 123.4696,-62.3681"/>
</g>
<!-- Node44 -->
<g id="node16" class="node">
<title>Node44</title>
<g id="a_node16"><a xlink:href="_a_p_i_8h.html#abd5e503a273aaf6abf6869ebd76f2d2d" target="_top" xlink:title="Creates a new task and add it to the list of tasks that are ready to run. ">
<polygon fill="none" stroke="#000000" points="125.9307,-.5 125.9307,-18.5 190.2852,-18.5 190.2852,-.5 125.9307,-.5"/>
<text text-anchor="middle" x="158.1079" y="-6.5" font-family="Helvetica,sans-Serif" font-size="10.00" fill="#000000">taskCreate</text>
</a>
</g>
</g>
<!-- Node29&#45;&gt;Node44 -->
<g id="edge15" class="edge">
<title>Node29&#45;&gt;Node44</title>
<path fill="none" stroke="#191970" d="M42.1056,-92.1292C53.7561,-76.8338 78.8387,-46.4157 106.4775,-28.5 109.8525,-26.3123 113.5141,-24.3303 117.2768,-22.5454"/>
<polygon fill="#191970" stroke="#191970" points="118.9087,-25.6544 126.7322,-18.5099 116.161,-19.2162 118.9087,-25.6544"/>
</g>
<!-- Node31 -->
<g id="node3" class="node">
<title>Node31</title>
<g id="a_node3"><a xlink:href="toggle_8c.html#ad2b7c969a01f85d57bdca0bc7f5cff81" target="_top" xlink:title="Returns the current status of a button (pressed or not pressed) ">
<polygon fill="none" stroke="#000000" points="275.1938,-203.5 275.1938,-221.5 358.4644,-221.5 358.4644,-203.5 275.1938,-203.5"/>
<text text-anchor="middle" x="316.8291" y="-209.5" font-family="Helvetica,sans-Serif" font-size="10.00" fill="#000000">buttonGetState</text>
</a>
</g>
</g>
<!-- Node30&#45;&gt;Node31 -->
<g id="edge2" class="edge">
<title>Node30&#45;&gt;Node31</title>
<path fill="none" stroke="#191970" d="M207.0246,-206.2737C225.3927,-207.3153 246.3254,-208.5022 264.9531,-209.5585"/>
<polygon fill="#191970" stroke="#191970" points="264.8516,-213.0582 275.0337,-210.1301 265.248,-206.0695 264.8516,-213.0582"/>
</g>
<!-- Node32 -->
<g id="node4" class="node">
<title>Node32</title>
<g id="a_node4"><a xlink:href="_a_p_i_8h.html#a792f1a80c62a63e764cf64aabf95db92" target="_top" xlink:title="Gets the value of a button on the VEX joystick. ">
<polygon fill="none" stroke="#000000" points="423.9199,-240.5 423.9199,-258.5 516.6094,-258.5 516.6094,-240.5 423.9199,-240.5"/>
<text text-anchor="middle" x="470.2646" y="-246.5" font-family="Helvetica,sans-Serif" font-size="10.00" fill="#000000">joystickGetDigital</text>
</a>
</g>
</g>
<!-- Node31&#45;&gt;Node32 -->
<g id="edge3" class="edge">
<title>Node31&#45;&gt;Node32</title>
<path fill="none" stroke="#191970" d="M354.3637,-221.5512C375.0596,-226.5419 400.9559,-232.7866 423.0177,-238.1067"/>
<polygon fill="#191970" stroke="#191970" points="422.3101,-241.5363 432.852,-240.4782 423.9512,-234.7314 422.3101,-241.5363"/>
</g>
<!-- Node33 -->
<g id="node5" class="node">
<title>Node33</title>
<g id="a_node5"><a xlink:href="_a_p_i_8h.html#a04541d90f60b1ccd3d036656673c972d" target="_top" xlink:title="Reads the user button status from the LCD display. ">
<polygon fill="none" stroke="#000000" points="426.9644,-203.5 426.9644,-221.5 513.5649,-221.5 513.5649,-203.5 426.9644,-203.5"/>
<text text-anchor="middle" x="470.2646" y="-209.5" font-family="Helvetica,sans-Serif" font-size="10.00" fill="#000000">lcdReadButtons</text>
</a>
</g>
</g>
<!-- Node31&#45;&gt;Node33 -->
<g id="edge4" class="edge">
<title>Node31&#45;&gt;Node33</title>
<path fill="none" stroke="#191970" d="M358.756,-212.5C376.6565,-212.5 397.763,-212.5 416.7698,-212.5"/>
<polygon fill="#191970" stroke="#191970" points="416.7835,-216.0001 426.7834,-212.5 416.7834,-209.0001 416.7835,-216.0001"/>
</g>
<!-- Node35 -->
<g id="node7" class="node">
<title>Node35</title>
<g id="a_node7"><a xlink:href="log_8c.html#afff22aff6749311a684a559cac3ac8bd" target="_top" xlink:title="prints a log info message to the lcd ">
<polygon fill="none" stroke="#000000" points="291.3145,-129.5 291.3145,-147.5 342.3438,-147.5 342.3438,-129.5 291.3145,-129.5"/>
<text text-anchor="middle" x="316.8291" y="-135.5" font-family="Helvetica,sans-Serif" font-size="10.00" fill="#000000">log_info</text>
</a>
</g>
</g>
<!-- Node34&#45;&gt;Node35 -->
<g id="edge6" class="edge">
<title>Node34&#45;&gt;Node35</title>
<path fill="none" stroke="#191970" d="M176.9386,-155.2458C202.5762,-152.1768 248.9638,-146.6239 281.2621,-142.7576"/>
<polygon fill="#191970" stroke="#191970" points="281.6962,-146.2307 291.2093,-141.5669 280.8642,-139.2803 281.6962,-146.2307"/>
</g>
<!-- Node36 -->
<g id="node8" class="node">
<title>Node36</title>
<g id="a_node8"><a xlink:href="_a_p_i_8h.html#a5fa1d119fe3e836b5519f97eae7a1272" target="_top" xlink:title="Clears the LCD screen on the specified port. ">
<polygon fill="none" stroke="#000000" points="443.9248,-166.5 443.9248,-184.5 496.6045,-184.5 496.6045,-166.5 443.9248,-166.5"/>
<text text-anchor="middle" x="470.2646" y="-172.5" font-family="Helvetica,sans-Serif" font-size="10.00" fill="#000000">lcdClear</text>
</a>
</g>
</g>
<!-- Node35&#45;&gt;Node36 -->
<g id="edge7" class="edge">
<title>Node35&#45;&gt;Node36</title>
<path fill="none" stroke="#191970" d="M342.5108,-144.693C367.5083,-150.721 405.7362,-159.9394 433.8638,-166.7222"/>
<polygon fill="#191970" stroke="#191970" points="433.1845,-170.1586 443.7264,-169.1005 434.8255,-163.3537 433.1845,-170.1586"/>
</g>
<!-- Node37 -->
<g id="node9" class="node">
<title>Node37</title>
<g id="a_node9"><a xlink:href="_a_p_i_8h.html#a6cfad8271c6a566a2f51ca318f819a80" target="_top" xlink:title="Prints the formatted string to the attached LCD. ">
<polygon fill="none" stroke="#000000" points="445.5923,-129.5 445.5923,-147.5 494.937,-147.5 494.937,-129.5 445.5923,-129.5"/>
<text text-anchor="middle" x="470.2646" y="-135.5" font-family="Helvetica,sans-Serif" font-size="10.00" fill="#000000">lcdPrint</text>
</a>
</g>
</g>
<!-- Node35&#45;&gt;Node37 -->
<g id="edge8" class="edge">
<title>Node35&#45;&gt;Node37</title>
<path fill="none" stroke="#191970" d="M342.5108,-138.5C367.9282,-138.5 407.0241,-138.5 435.2725,-138.5"/>
<polygon fill="#191970" stroke="#191970" points="435.5167,-142.0001 445.5167,-138.5 435.5167,-135.0001 435.5167,-142.0001"/>
</g>
<!-- Node38 -->
<g id="node10" class="node">
<title>Node38</title>
<g id="a_node10"><a xlink:href="_a_p_i_8h.html#aab53a247d88151a6623c20fa1ea940b0" target="_top" xlink:title="Sets the specified LCD backlight to be on or off. ">
<polygon fill="none" stroke="#000000" points="428.0801,-92.5 428.0801,-110.5 512.4492,-110.5 512.4492,-92.5 428.0801,-92.5"/>
<text text-anchor="middle" x="470.2646" y="-98.5" font-family="Helvetica,sans-Serif" font-size="10.00" fill="#000000">lcdSetBacklight</text>
</a>
</g>
</g>
<!-- Node35&#45;&gt;Node38 -->
<g id="edge9" class="edge">
<title>Node35&#45;&gt;Node38</title>
<path fill="none" stroke="#191970" d="M342.5108,-132.307C364.3728,-127.0352 396.3542,-119.323 422.8487,-112.9341"/>
<polygon fill="#191970" stroke="#191970" points="423.8009,-116.3048 432.7017,-110.5581 422.1599,-109.4999 423.8009,-116.3048"/>
</g>
<!-- Node39 -->
<g id="node11" class="node">
<title>Node39</title>
<g id="a_node11"><a xlink:href="_a_p_i_8h.html#a403c82418e475fa4a8273719e6a7f3e6" target="_top" xlink:title="Prints the formatted string to the debug stream (the PC terminal). ">
<polygon fill="none" stroke="#000000" points="451.1489,-55.5 451.1489,-73.5 489.3804,-73.5 489.3804,-55.5 451.1489,-55.5"/>
<text text-anchor="middle" x="470.2646" y="-61.5" font-family="Helvetica,sans-Serif" font-size="10.00" fill="#000000">printf</text>
</a>
</g>
</g>
<!-- Node35&#45;&gt;Node39 -->
<g id="edge10" class="edge">
<title>Node35&#45;&gt;Node39</title>
<path fill="none" stroke="#191970" d="M334.9881,-129.4101C349.3783,-122.1814 369.978,-111.7767 387.9199,-102.5 403.9906,-94.1908 407.5311,-91.1625 423.9199,-83.5 429.572,-80.8574 435.6963,-78.2036 441.5842,-75.7525"/>
<polygon fill="#191970" stroke="#191970" points="443.205,-78.8715 451.1448,-71.8564 440.5633,-72.3891 443.205,-78.8715"/>
</g>
<!-- Node42 -->
<g id="node14" class="node">
<title>Node42</title>
<g id="a_node14"><a xlink:href="list__iterator_8c.html#af4136a8a27bdc8c0f967a708dd03d575" target="_top" xlink:title="Creates a new iterator by using the node to start at. ">
<polygon fill="none" stroke="#000000" points="245.7383,-74.5 245.7383,-92.5 387.9199,-92.5 387.9199,-74.5 245.7383,-74.5"/>
<text text-anchor="middle" x="316.8291" y="-80.5" font-family="Helvetica,sans-Serif" font-size="10.00" fill="#000000">list_iterator_new_from_node</text>
</a>
</g>
</g>
<!-- Node41&#45;&gt;Node42 -->
<g id="edge13" class="edge">
<title>Node41&#45;&gt;Node42</title>
<path fill="none" stroke="#191970" d="M202.743,-83.5C212.9221,-83.5 224.0507,-83.5 235.2384,-83.5"/>
<polygon fill="#191970" stroke="#191970" points="235.5039,-87.0001 245.5039,-83.5 235.5039,-80.0001 235.5039,-87.0001"/>
</g>
</g>
</svg>
        <g id="navigator" transform="translate(0 0)" fill="#404254">
                <rect fill="#f2f5e9" fill-opacity="0.5" stroke="#606060" stroke-width=".5" x="0" y="0" width="60" height="60"/>
                <use id="zoomplus" xlink:href="#zoomPlus" x="17" y="9" onmousedown="handleZoom(evt,'in')"/>
                <use id="zoomminus" xlink:href="#zoomMin" x="42" y="9" onmousedown="handleZoom(evt,'out')"/>
                <use id="reset" xlink:href="#resetDef" x="30" y="36" onmousedown="handleReset()"/>
                <g id="arrowUp" xlink:href="#dirArrow" transform="translate(30 24)" onmousedown="handlePan(0,-1)">
                  <use xlink:href="#rim" fill="#404040">
                        <set attributeName="fill" to="#808080" begin="arrowUp.mouseover" end="arrowUp.mouseout"/>
                  </use>
                  <path fill="none" stroke="white" stroke-width="1.5" d="M0,-3.0v7 M-2.5,-0.5L0,-3.0L2.5,-0.5"/>
                </g>
                <g id="arrowRight" xlink:href="#dirArrow" transform="rotate(90) translate(36 -43)" onmousedown="handlePan(1,0)">
                  <use xlink:href="#rim" fill="#404040">
                        <set attributeName="fill" to="#808080" begin="arrowRight.mouseover" end="arrowRight.mouseout"/>
                  </use>
                  <path fill="none" stroke="white" stroke-width="1.5" d="M0,-3.0v7 M-2.5,-0.5L0,-3.0L2.5,-0.5"/>
                </g>
                <g id="arrowDown" xlink:href="#dirArrow" transform="rotate(180) translate(-30 -48)" onmousedown="handlePan(0,1)">
                  <use xlink:href="#rim" fill="#404040">
                        <set attributeName="fill" to="#808080" begin="arrowDown.mouseover" end="arrowDown.mouseout"/>
                  </use>
                  <path fill="none" stroke="white" stroke-width="1.5" d="M0,-3.0v7 M-2.5,-0.5L0,-3.0L2.5,-0.5"/>
                </g>
                <g id="arrowLeft" xlink:href="#dirArrow" transform="rotate(270) translate(-36 17)" onmousedown="handlePan(-1,0)">
                  <use xlink:href="#rim" fill="#404040">
                        <set attributeName="fill" to="#808080" begin="arrowLeft.mouseover" end="arrowLeft.mouseout"/>
                  </use>
                  <path fill="none" stroke="white" stroke-width="1.5" d="M0,-3.0v7 M-2.5,-0.5L0,-3.0L2.5,-0.5"/>
                </g>
        </g>
        <svg viewBox="0 0 15 15" width="100%" height="30px" preserveAspectRatio="xMaxYMin meet">
         <g id="arrow_out" transform="scale(0.3 0.3)">
          <a xlink:href="routines_8c_a230cdcefb410a429fb6baba1f88fc9ba_cgraph_org.svg" target="_base">
           <rect id="button" ry="5" rx="5" y="6" x="6" height="38" width="38"
                fill="#f2f5e9" fill-opacity="0.5" stroke="#606060" stroke-width="1.0"/>
           <path id="arrow"
             d="M 11.500037,31.436501 C 11.940474,20.09759 22.043105,11.32322 32.158766,21.979434 L 37.068811,17.246167 C 37.068811,17.246167 37.088388,32 37.088388,32 L 22.160133,31.978069 C 22.160133,31.978069 26.997745,27.140456 26.997745,27.140456 C 18.528582,18.264221 13.291696,25.230495 11.500037,31.436501 z"
             style="fill:#404040;"/>
          </a>
         </g>
        </svg>
</svg>
