<?xml version="1.0" encoding="UTF-8" standalone="no"?>
<!DOCTYPE svg PUBLIC "-//W3C//DTD SVG 1.1//EN"
 "http://www.w3.org/Graphics/SVG/1.1/DTD/svg11.dtd">
<!-- Generated by graphviz version 2.40.1 (20161225.0304)
 -->
<!-- Title: src/routines.c Pages: 1 -->
<svg width="314pt" height="247pt"
 viewBox="0.00 0.00 313.78 247.00" xmlns="http://www.w3.org/2000/svg" xmlns:xlink="http://www.w3.org/1999/xlink">
<g id="graph0" class="graph" transform="scale(1 1) rotate(0) translate(4 243)">
<title>src/routines.c</title>
<!-- Node0 -->
<g id="node1" class="node">
<title>Node0</title>
<polygon fill="#bfbfbf" stroke="#000000" points="135.2266,-220.5 135.2266,-238.5 210.6895,-238.5 210.6895,-220.5 135.2266,-220.5"/>
<text text-anchor="middle" x="172.958" y="-226.5" font-family="Helvetica,sans-Serif" font-size="10.00" fill="#000000">src/routines.c</text>
</g>
<!-- Node1 -->
<g id="node2" class="node">
<title>Node1</title>
<g id="a_node2"><a xlink:href="routines_8h.html" target="_top" xlink:title="routines.h">
<polygon fill="none" stroke="#000000" points="0,-165.5 0,-183.5 59.916,-183.5 59.916,-165.5 0,-165.5"/>
<text text-anchor="middle" x="29.958" y="-171.5" font-family="Helvetica,sans-Serif" font-size="10.00" fill="#000000">routines.h</text>
</a>
</g>
</g>
<!-- Node0&#45;&gt;Node1 -->
<g id="edge1" class="edge">
<title>Node0&#45;&gt;Node1</title>
<path fill="none" stroke="#191970" d="M149.3445,-220.4179C125.8503,-211.3817 89.5897,-197.4353 63.1932,-187.2828"/>
<polygon fill="#191970" stroke="#191970" points="64.1965,-183.9188 53.6066,-183.5956 61.6836,-190.4522 64.1965,-183.9188"/>
</g>
<!-- Node2 -->
<g id="node3" class="node">
<title>Node2</title>
<g id="a_node3"><a xlink:href="controller_8h.html" target="_top" xlink:title="controller definitions, macros and functions to assist with usig the vex controllers. ">
<polygon fill="none" stroke="#000000" points="51.4976,-110.5 51.4976,-128.5 116.4185,-128.5 116.4185,-110.5 51.4976,-110.5"/>
<text text-anchor="middle" x="83.958" y="-116.5" font-family="Helvetica,sans-Serif" font-size="10.00" fill="#000000">controller.h</text>
</a>
</g>
</g>
<!-- Node0&#45;&gt;Node2 -->
<g id="edge6" class="edge">
<title>Node0&#45;&gt;Node2</title>
<path fill="none" stroke="#191970" d="M153.7279,-220.4436C139.0603,-212.6486 119.3338,-200.1157 106.958,-184 96.6737,-170.6078 90.7213,-152.2218 87.4598,-138.5056"/>
<polygon fill="#191970" stroke="#191970" points="90.8782,-137.7535 85.3896,-128.6912 84.0289,-139.1983 90.8782,-137.7535"/>
</g>
<!-- Node5 -->
<g id="node6" class="node">
<title>Node5</title>
<polygon fill="none" stroke="#bfbfbf" points="235.729,-55.5 235.729,-73.5 276.187,-73.5 276.187,-55.5 235.729,-55.5"/>
<text text-anchor="middle" x="255.958" y="-61.5" font-family="Helvetica,sans-Serif" font-size="10.00" fill="#000000">API.h</text>
</g>
<!-- Node0&#45;&gt;Node5 -->
<g id="edge16" class="edge">
<title>Node0&#45;&gt;Node5</title>
<path fill="none" stroke="#191970" d="M210.7532,-223.9407C236.0268,-218.2228 268.0071,-206.765 286.958,-184 308.2311,-158.4454 310.0658,-140.9674 297.958,-110 293.5082,-98.619 284.7293,-88.3741 276.343,-80.5003"/>
<polygon fill="#191970" stroke="#191970" points="278.4114,-77.6598 268.5771,-73.718 273.8068,-82.9322 278.4114,-77.6598"/>
</g>
<!-- Node6 -->
<g id="node7" class="node">
<title>Node6</title>
<g id="a_node7"><a xlink:href="list_8h.html" target="_top" xlink:title="list.h">
<polygon fill="none" stroke="#000000" points="185.6772,-165.5 185.6772,-183.5 222.2388,-183.5 222.2388,-165.5 185.6772,-165.5"/>
<text text-anchor="middle" x="203.958" y="-171.5" font-family="Helvetica,sans-Serif" font-size="10.00" fill="#000000">list.h</text>
</a>
</g>
</g>
<!-- Node0&#45;&gt;Node6 -->
<g id="edge7" class="edge">
<title>Node0&#45;&gt;Node6</title>
<path fill="none" stroke="#191970" d="M178.077,-220.4179C182.3145,-212.8998 188.4677,-201.9829 193.7112,-192.6799"/>
<polygon fill="#191970" stroke="#191970" points="196.8666,-194.2096 198.7278,-183.7795 190.7686,-190.7724 196.8666,-194.2096"/>
</g>
<!-- Node8 -->
<g id="node9" class="node">
<title>Node8</title>
<g id="a_node9"><a xlink:href="log_8h.html" target="_top" xlink:title="Contains logging functions. ">
<polygon fill="none" stroke="#000000" points="240.1157,-165.5 240.1157,-183.5 277.8003,-183.5 277.8003,-165.5 240.1157,-165.5"/>
<text text-anchor="middle" x="258.958" y="-171.5" font-family="Helvetica,sans-Serif" font-size="10.00" fill="#000000">log.h</text>
</a>
</g>
</g>
<!-- Node0&#45;&gt;Node8 -->
<g id="edge9" class="edge">
<title>Node0&#45;&gt;Node8</title>
<path fill="none" stroke="#191970" d="M187.1592,-220.4179C200.4793,-211.8992 220.623,-199.0166 236.1872,-189.0627"/>
<polygon fill="#191970" stroke="#191970" points="238.197,-191.932 244.7358,-183.5956 234.4255,-186.0348 238.197,-191.932"/>
</g>
<!-- Node10 -->
<g id="node11" class="node">
<title>Node10</title>
<g id="a_node11"><a xlink:href="toggle_8h.html" target="_top" xlink:title="toggle.h">
<polygon fill="none" stroke="#000000" points="116.165,-165.5 116.165,-183.5 167.751,-183.5 167.751,-165.5 116.165,-165.5"/>
<text text-anchor="middle" x="141.958" y="-171.5" font-family="Helvetica,sans-Serif" font-size="10.00" fill="#000000">toggle.h</text>
</a>
</g>
</g>
<!-- Node0&#45;&gt;Node10 -->
<g id="edge13" class="edge">
<title>Node0&#45;&gt;Node10</title>
<path fill="none" stroke="#191970" d="M167.839,-220.4179C163.6015,-212.8998 157.4484,-201.9829 152.2048,-192.6799"/>
<polygon fill="#191970" stroke="#191970" points="155.1475,-190.7724 147.1882,-183.7795 149.0494,-194.2096 155.1475,-190.7724"/>
</g>
<!-- Node1&#45;&gt;Node2 -->
<g id="edge2" class="edge">
<title>Node1&#45;&gt;Node2</title>
<path fill="none" stroke="#191970" d="M38.875,-165.4179C46.7226,-157.425 58.342,-145.5903 67.8191,-135.9377"/>
<polygon fill="#191970" stroke="#191970" points="70.3388,-138.3672 74.8473,-128.7795 65.3439,-133.463 70.3388,-138.3672"/>
</g>
<!-- Node3 -->
<g id="node4" class="node">
<title>Node3</title>
<g id="a_node4"><a xlink:href="vmath_8h.html" target="_top" xlink:title="Vex Specific Math Functions, includes: Cartesian to polar cordinates. ">
<polygon fill="none" stroke="#000000" points="58.1724,-55.5 58.1724,-73.5 109.7437,-73.5 109.7437,-55.5 58.1724,-55.5"/>
<text text-anchor="middle" x="83.958" y="-61.5" font-family="Helvetica,sans-Serif" font-size="10.00" fill="#000000">vmath.h</text>
</a>
</g>
</g>
<!-- Node2&#45;&gt;Node3 -->
<g id="edge3" class="edge">
<title>Node2&#45;&gt;Node3</title>
<path fill="none" stroke="#191970" d="M83.958,-110.4179C83.958,-103.2164 83.958,-92.8962 83.958,-83.8632"/>
<polygon fill="#191970" stroke="#191970" points="87.4581,-83.7794 83.958,-73.7795 80.4581,-83.7795 87.4581,-83.7794"/>
</g>
<!-- Node2&#45;&gt;Node5 -->
<g id="edge5" class="edge">
<title>Node2&#45;&gt;Node5</title>
<path fill="none" stroke="#191970" d="M112.3603,-110.4179C143.6999,-100.3965 193.9257,-84.3359 225.9089,-74.1087"/>
<polygon fill="#191970" stroke="#191970" points="227.1462,-77.3878 235.605,-71.0082 225.0141,-70.7203 227.1462,-77.3878"/>
</g>
<!-- Node4 -->
<g id="node5" class="node">
<title>Node4</title>
<polygon fill="none" stroke="#bfbfbf" points="60.6724,-.5 60.6724,-18.5 107.2437,-18.5 107.2437,-.5 60.6724,-.5"/>
<text text-anchor="middle" x="83.958" y="-6.5" font-family="Helvetica,sans-Serif" font-size="10.00" fill="#000000">math.h</text>
</g>
<!-- Node3&#45;&gt;Node4 -->
<g id="edge4" class="edge">
<title>Node3&#45;&gt;Node4</title>
<path fill="none" stroke="#191970" d="M83.958,-55.4179C83.958,-48.2164 83.958,-37.8962 83.958,-28.8632"/>
<polygon fill="#191970" stroke="#191970" points="87.4581,-28.7794 83.958,-18.7795 80.4581,-28.7795 87.4581,-28.7794"/>
</g>
<!-- Node7 -->
<g id="node8" class="node">
<title>Node7</title>
<polygon fill="none" stroke="#bfbfbf" points="172.1157,-110.5 172.1157,-128.5 219.8003,-128.5 219.8003,-110.5 172.1157,-110.5"/>
<text text-anchor="middle" x="195.958" y="-116.5" font-family="Helvetica,sans-Serif" font-size="10.00" fill="#000000">stdlib.h</text>
</g>
<!-- Node6&#45;&gt;Node7 -->
<g id="edge8" class="edge">
<title>Node6&#45;&gt;Node7</title>
<path fill="none" stroke="#191970" d="M202.637,-165.4179C201.5895,-158.2164 200.0884,-147.8962 198.7745,-138.8632"/>
<polygon fill="#191970" stroke="#191970" points="202.2108,-138.1715 197.3077,-128.7795 195.2837,-139.1791 202.2108,-138.1715"/>
</g>
<!-- Node8&#45;&gt;Node5 -->
<g id="edge12" class="edge">
<title>Node8&#45;&gt;Node5</title>
<path fill="none" stroke="#191970" d="M266.4428,-165.4987C275.7394,-153.1976 289.7145,-130.338 283.958,-110 281.0949,-99.8845 275.2783,-89.8071 269.6848,-81.7169"/>
<polygon fill="#191970" stroke="#191970" points="272.3926,-79.4919 263.6337,-73.5311 266.7636,-83.653 272.3926,-79.4919"/>
</g>
<!-- Node9 -->
<g id="node10" class="node">
<title>Node9</title>
<g id="a_node10"><a xlink:href="lcd_8h.html" target="_top" xlink:title="LCD wrapper functions and macros. ">
<polygon fill="none" stroke="#000000" points="237.3965,-110.5 237.3965,-128.5 274.5195,-128.5 274.5195,-110.5 237.3965,-110.5"/>
<text text-anchor="middle" x="255.958" y="-116.5" font-family="Helvetica,sans-Serif" font-size="10.00" fill="#000000">lcd.h</text>
</a>
</g>
</g>
<!-- Node8&#45;&gt;Node9 -->
<g id="edge10" class="edge">
<title>Node8&#45;&gt;Node9</title>
<path fill="none" stroke="#191970" d="M258.4626,-165.4179C258.0698,-158.2164 257.5069,-147.8962 257.0142,-138.8632"/>
<polygon fill="#191970" stroke="#191970" points="260.5037,-138.574 256.4642,-128.7795 253.5141,-138.9553 260.5037,-138.574"/>
</g>
<!-- Node9&#45;&gt;Node5 -->
<g id="edge11" class="edge">
<title>Node9&#45;&gt;Node5</title>
<path fill="none" stroke="#191970" d="M255.958,-110.4179C255.958,-103.2164 255.958,-92.8962 255.958,-83.8632"/>
<polygon fill="#191970" stroke="#191970" points="259.4581,-83.7794 255.958,-73.7795 252.4581,-83.7795 259.4581,-83.7794"/>
</g>
<!-- Node10&#45;&gt;Node2 -->
<g id="edge15" class="edge">
<title>Node10&#45;&gt;Node2</title>
<path fill="none" stroke="#191970" d="M132.3805,-165.4179C123.9516,-157.425 111.4715,-145.5903 101.2924,-135.9377"/>
<polygon fill="#191970" stroke="#191970" points="103.4082,-133.1207 93.7436,-128.7795 98.5916,-138.2001 103.4082,-133.1207"/>
</g>
<!-- Node10&#45;&gt;Node5 -->
<g id="edge14" class="edge">
<title>Node10&#45;&gt;Node5</title>
<path fill="none" stroke="#191970" d="M142.7358,-165.0523C144.3217,-151.3893 149.0561,-126.0024 162.958,-110 179.3956,-91.0788 205.5185,-79.2707 225.8988,-72.4405"/>
<polygon fill="#191970" stroke="#191970" points="227.1585,-75.7139 235.6624,-69.3946 225.0738,-69.0315 227.1585,-75.7139"/>
</g>
</g>
</svg>
