<?xml version="1.0" encoding="UTF-8" standalone="no"?>
<!DOCTYPE svg PUBLIC "-//W3C//DTD SVG 1.1//EN"
 "http://www.w3.org/Graphics/SVG/1.1/DTD/svg11.dtd">
<!-- Generated by graphviz version 2.40.1 (20161225.0304)
 -->
<!-- Title: set_motor_slew Pages: 1 -->
<!--zoomable 269 -->
<svg id="main" version="1.1" xmlns="http://www.w3.org/2000/svg" xmlns:xlink="http://www.w3.org/1999/xlink" xml:space="preserve" onload="init(evt)">
<style type="text/css"><![CDATA[
.edge:hover path { stroke: red; }
.edge:hover polygon { stroke: red; fill: red; }
]]></style>
<script type="text/javascript"><![CDATA[
var edges = document.getElementsByTagName('g');
if (edges && edges.length) {
  for (var i=0;i<edges.length;i++) {
    if (edges[i].id.substr(0,4)=='edge') {
      edges[i].setAttribute('class','edge');
    }
  }
}
]]></script>
        <defs>
                <circle id="rim" cx="0" cy="0" r="7"/>
                <circle id="rim2" cx="0" cy="0" r="3.5"/>
                <g id="zoomPlus">
                        <use xlink:href="#rim" fill="#404040">
                                <set attributeName="fill" to="#808080" begin="zoomplus.mouseover" end="zoomplus.mouseout"/>
                        </use>
                        <path d="M-4,0h8M0,-4v8" fill="none" stroke="white" stroke-width="1.5" pointer-events="none"/>
                </g>
                <g id="zoomMin">
                        <use xlink:href="#rim" fill="#404040">
                                <set attributeName="fill" to="#808080" begin="zoomminus.mouseover" end="zoomminus.mouseout"/>
                        </use>
                        <path d="M-4,0h8" fill="none" stroke="white" stroke-width="1.5" pointer-events="none"/>
                </g>
                <g id="dirArrow">
                        <path fill="none" stroke="white" stroke-width="1.5" d="M0,-3.0v7 M-2.5,-0.5L0,-3.0L2.5,-0.5"/>
                </g>
               <g id="resetDef">
                       <use xlink:href="#rim2" fill="#404040">
                               <set attributeName="fill" to="#808080" begin="reset.mouseover" end="reset.mouseout"/>
                       </use>
               </g>
        </defs>

<script type="text/javascript">
var viewWidth = 518;
var viewHeight = 269;
var sectionId = 'dynsection-6';
</script>
<script xlink:href="svgpan.js"/>
<svg id="graph" class="graph">
<g id="viewport">
<title>set_motor_slew</title>
<!-- Node86 -->
<g id="node1" class="node">
<title>Node86</title>
<polygon fill="#bfbfbf" stroke="#000000" points="0,-74.5 0,-92.5 86.0293,-92.5 86.0293,-74.5 0,-74.5"/>
<text text-anchor="middle" x="43.0146" y="-80.5" font-family="Helvetica,sans-Serif" font-size="10.00" fill="#000000">set_motor_slew</text>
</g>
<!-- Node87 -->
<g id="node2" class="node">
<title>Node87</title>
<g id="a_node2"><a xlink:href="log_8h.html#af3668f40d1ad1b4f3418869ac9a31f34" target="_top" xlink:title="prints a info message ">
<polygon fill="none" stroke="#000000" points="127.3003,-223.5 127.3003,-241.5 171.1079,-241.5 171.1079,-223.5 127.3003,-223.5"/>
<text text-anchor="middle" x="149.2041" y="-229.5" font-family="Helvetica,sans-Serif" font-size="10.00" fill="#000000">debug</text>
</a>
</g>
</g>
<!-- Node86&#45;&gt;Node87 -->
<g id="edge1" class="edge">
<title>Node86&#45;&gt;Node87</title>
<path fill="none" stroke="#191970" d="M49.6573,-92.8206C67.0141,-117.1749 113.9437,-183.0243 136.612,-214.8314"/>
<polygon fill="#191970" stroke="#191970" points="133.91,-217.0707 142.564,-223.1829 139.6105,-213.0081 133.91,-217.0707"/>
</g>
<!-- Node89 -->
<g id="node4" class="node">
<title>Node89</title>
<g id="a_node4"><a xlink:href="slew_8c.html#a321758941d88b75783955c819bb75005" target="_top" xlink:title="Initializes the slew rate controller. ">
<polygon fill="none" stroke="#000000" points="122.0293,-130.5 122.0293,-148.5 176.3789,-148.5 176.3789,-130.5 122.0293,-130.5"/>
<text text-anchor="middle" x="149.2041" y="-136.5" font-family="Helvetica,sans-Serif" font-size="10.00" fill="#000000">init_slew</text>
</a>
</g>
</g>
<!-- Node86&#45;&gt;Node89 -->
<g id="edge3" class="edge">
<title>Node86&#45;&gt;Node89</title>
<path fill="none" stroke="#191970" d="M60.5497,-92.7473C77.5593,-101.7174 103.5804,-115.4399 123.0386,-125.7014"/>
<polygon fill="#191970" stroke="#191970" points="121.5173,-128.856 131.9954,-130.4248 124.7826,-122.6642 121.5173,-128.856"/>
</g>
<!-- Node99 -->
<g id="node14" class="node">
<title>Node99</title>
<g id="a_node14"><a xlink:href="_a_p_i_8h.html#a8b51124628d2a7741738d48551d1e8ee" target="_top" xlink:title="Requests a mutex so that other tasks cannot simultaneously use the resource it guards. ">
<polygon fill="none" stroke="#000000" points="325.5264,-37.5 325.5264,-55.5 389.8809,-55.5 389.8809,-37.5 325.5264,-37.5"/>
<text text-anchor="middle" x="357.7036" y="-43.5" font-family="Helvetica,sans-Serif" font-size="10.00" fill="#000000">mutexTake</text>
</a>
</g>
</g>
<!-- Node86&#45;&gt;Node99 -->
<g id="edge18" class="edge">
<title>Node86&#45;&gt;Node99</title>
<path fill="none" stroke="#191970" d="M86.111,-78.4329C146.2948,-71.3567 254.8625,-58.5917 314.8929,-51.5335"/>
<polygon fill="#191970" stroke="#191970" points="315.6371,-54.9702 325.1599,-50.3264 314.8196,-48.0181 315.6371,-54.9702"/>
</g>
<!-- Node100 -->
<g id="node15" class="node">
<title>Node100</title>
<g id="a_node15"><a xlink:href="_a_p_i_8h.html#afe171a08d22de18fc2ab604b2364959f" target="_top" xlink:title="Relinquishes a mutex so that other tasks can use the resource it guards. ">
<polygon fill="none" stroke="#000000" points="325.8071,-.5 325.8071,-18.5 389.6001,-18.5 389.6001,-.5 325.8071,-.5"/>
<text text-anchor="middle" x="357.7036" y="-6.5" font-family="Helvetica,sans-Serif" font-size="10.00" fill="#000000">mutexGive</text>
</a>
</g>
</g>
<!-- Node86&#45;&gt;Node100 -->
<g id="edge17" class="edge">
<title>Node86&#45;&gt;Node100</title>
<path fill="none" stroke="#191970" d="M77.9798,-74.4684C91.6973,-70.9726 107.5852,-66.9823 122.0293,-63.5 189.7,-47.1852 268.5929,-29.3477 315.7729,-18.8063"/>
<polygon fill="#191970" stroke="#191970" points="316.6314,-22.2009 325.6292,-16.6072 315.107,-15.3689 316.6314,-22.2009"/>
</g>
<!-- Node88 -->
<g id="node3" class="node">
<title>Node88</title>
<g id="a_node3"><a xlink:href="_a_p_i_8h.html#a403c82418e475fa4a8273719e6a7f3e6" target="_top" xlink:title="Prints the formatted string to the debug stream (the PC terminal). ">
<polygon fill="none" stroke="#000000" points="448.9497,-242.5 448.9497,-260.5 487.1812,-260.5 487.1812,-242.5 448.9497,-242.5"/>
<text text-anchor="middle" x="468.0654" y="-248.5" font-family="Helvetica,sans-Serif" font-size="10.00" fill="#000000">printf</text>
</a>
</g>
</g>
<!-- Node87&#45;&gt;Node88 -->
<g id="edge2" class="edge">
<title>Node87&#45;&gt;Node88</title>
<path fill="none" stroke="#191970" d="M171.3558,-240.896C183.3132,-244.9833 198.4416,-249.4495 212.3789,-251.5 293.4586,-263.4286 390.5725,-258.1521 438.4257,-254.2822"/>
<polygon fill="#191970" stroke="#191970" points="439.0123,-257.7451 448.6806,-253.4123 438.4206,-250.7702 439.0123,-257.7451"/>
</g>
<!-- Node90 -->
<g id="node5" class="node">
<title>Node90</title>
<g id="a_node5"><a xlink:href="log_8h.html#a0bec2cf5fff7f607bc510b74aba9887c" target="_top" xlink:title="prints a warning message and displays on lcd. ">
<polygon fill="none" stroke="#000000" points="225.4429,-112.5 225.4429,-130.5 276.4624,-130.5 276.4624,-112.5 225.4429,-112.5"/>
<text text-anchor="middle" x="250.9526" y="-118.5" font-family="Helvetica,sans-Serif" font-size="10.00" fill="#000000">warning</text>
</a>
</g>
</g>
<!-- Node89&#45;&gt;Node90 -->
<g id="edge4" class="edge">
<title>Node89&#45;&gt;Node90</title>
<path fill="none" stroke="#191970" d="M176.4708,-134.6763C188.4546,-132.5563 202.6838,-130.0391 215.4783,-127.7756"/>
<polygon fill="#191970" stroke="#191970" points="216.124,-131.2159 225.3613,-126.0273 214.9045,-124.3229 216.124,-131.2159"/>
</g>
<!-- Node95 -->
<g id="node10" class="node">
<title>Node95</title>
<g id="a_node10"><a xlink:href="_a_p_i_8h.html#a8966c541f3e9565aea1289f0d2f2cf43" target="_top" xlink:title="Stops all motors; significantly faster than looping through all motor ports and calling motorSet(chan...">
<polygon fill="none" stroke="#000000" points="214.3296,-223.5 214.3296,-241.5 287.5757,-241.5 287.5757,-223.5 214.3296,-223.5"/>
<text text-anchor="middle" x="250.9526" y="-229.5" font-family="Helvetica,sans-Serif" font-size="10.00" fill="#000000">motorStopAll</text>
</a>
</g>
</g>
<!-- Node89&#45;&gt;Node95 -->
<g id="edge10" class="edge">
<title>Node89&#45;&gt;Node95</title>
<path fill="none" stroke="#191970" d="M155.1528,-148.9368C165.2822,-164.3771 187.2412,-195.2435 212.3789,-214.5 214.1902,-215.8875 216.1257,-217.2022 218.1291,-218.4414"/>
<polygon fill="#191970" stroke="#191970" points="216.7185,-221.6591 227.1722,-223.383 220.0752,-215.5164 216.7185,-221.6591"/>
</g>
<!-- Node96 -->
<g id="node11" class="node">
<title>Node96</title>
<g id="a_node11"><a xlink:href="_a_p_i_8h.html#aecd027ce8f8b52a765735e9eb5b202b3" target="_top" xlink:title="Creates a mutex intended to allow only one task to use a resource at a time. ">
<polygon fill="none" stroke="#000000" points="214.3296,-186.5 214.3296,-204.5 287.5757,-204.5 287.5757,-186.5 214.3296,-186.5"/>
<text text-anchor="middle" x="250.9526" y="-192.5" font-family="Helvetica,sans-Serif" font-size="10.00" fill="#000000">mutexCreate</text>
</a>
</g>
</g>
<!-- Node89&#45;&gt;Node96 -->
<g id="edge11" class="edge">
<title>Node89&#45;&gt;Node96</title>
<path fill="none" stroke="#191970" d="M163.5085,-148.6936C176.1534,-156.6774 195.2049,-168.3602 212.3789,-177.5 215.2494,-179.0276 218.2726,-180.5619 221.3113,-182.0553"/>
<polygon fill="#191970" stroke="#191970" points="219.8045,-185.2143 230.3365,-186.3659 222.8214,-178.8978 219.8045,-185.2143"/>
</g>
<!-- Node97 -->
<g id="node12" class="node">
<title>Node97</title>
<g id="a_node12"><a xlink:href="_a_p_i_8h.html#ab05a241d6d1fd98b1ceb4665db678156" target="_top" xlink:title="Starts a task which will periodically call the specified function. ">
<polygon fill="none" stroke="#000000" points="213.4873,-149.5 213.4873,-167.5 288.418,-167.5 288.418,-149.5 213.4873,-149.5"/>
<text text-anchor="middle" x="250.9526" y="-155.5" font-family="Helvetica,sans-Serif" font-size="10.00" fill="#000000">taskRunLoop</text>
</a>
</g>
</g>
<!-- Node89&#45;&gt;Node97 -->
<g id="edge12" class="edge">
<title>Node89&#45;&gt;Node97</title>
<path fill="none" stroke="#191970" d="M176.4708,-144.5917C184.7709,-146.1416 194.1481,-147.8926 203.3798,-149.6165"/>
<polygon fill="#191970" stroke="#191970" points="202.8095,-153.0704 213.2821,-151.4656 204.0945,-146.1894 202.8095,-153.0704"/>
</g>
<!-- Node98 -->
<g id="node13" class="node">
<title>Node98</title>
<g id="a_node13"><a xlink:href="slew_8c.html#a807a87c5df438fde21c1e8213906695b" target="_top" xlink:title="Closes the distance between the desired motor value and the current motor value by half for each moto...">
<polygon fill="none" stroke="#000000" points="212.3789,-75.5 212.3789,-93.5 289.5264,-93.5 289.5264,-75.5 212.3789,-75.5"/>
<text text-anchor="middle" x="250.9526" y="-81.5" font-family="Helvetica,sans-Serif" font-size="10.00" fill="#000000">updateMotors</text>
</a>
</g>
</g>
<!-- Node89&#45;&gt;Node98 -->
<g id="edge13" class="edge">
<title>Node89&#45;&gt;Node98</title>
<path fill="none" stroke="#191970" d="M164.6365,-130.3599C177.339,-122.9207 195.8751,-112.2567 212.3789,-103.5 215.742,-101.7156 219.2961,-99.888 222.8315,-98.1054"/>
<polygon fill="#191970" stroke="#191970" points="224.6022,-101.134 232.0026,-93.552 221.4893,-94.8642 224.6022,-101.134"/>
</g>
<!-- Node91 -->
<g id="node6" class="node">
<title>Node91</title>
<g id="a_node6"><a xlink:href="log_8c.html#afff22aff6749311a684a559cac3ac8bd" target="_top" xlink:title="prints a log info message to the lcd ">
<polygon fill="none" stroke="#000000" points="332.189,-131.5 332.189,-149.5 383.2183,-149.5 383.2183,-131.5 332.189,-131.5"/>
<text text-anchor="middle" x="357.7036" y="-137.5" font-family="Helvetica,sans-Serif" font-size="10.00" fill="#000000">log_info</text>
</a>
</g>
</g>
<!-- Node90&#45;&gt;Node91 -->
<g id="edge5" class="edge">
<title>Node90&#45;&gt;Node91</title>
<path fill="none" stroke="#191970" d="M276.5222,-126.051C290.1539,-128.4772 307.1429,-131.501 322.051,-134.1544"/>
<polygon fill="#191970" stroke="#191970" points="321.5141,-137.6138 331.9728,-135.9203 322.7408,-130.7221 321.5141,-137.6138"/>
</g>
<!-- Node91&#45;&gt;Node88 -->
<g id="edge6" class="edge">
<title>Node91&#45;&gt;Node88</title>
<path fill="none" stroke="#191970" d="M366.735,-149.5836C385.328,-168.2841 428.1124,-211.3159 451.7062,-235.0462"/>
<polygon fill="#191970" stroke="#191970" points="449.3766,-237.6672 458.9093,-242.2909 454.3406,-232.7317 449.3766,-237.6672"/>
</g>
<!-- Node92 -->
<g id="node7" class="node">
<title>Node92</title>
<g id="a_node7"><a xlink:href="_a_p_i_8h.html#aab53a247d88151a6623c20fa1ea940b0" target="_top" xlink:title="Sets the specified LCD backlight to be on or off. ">
<polygon fill="none" stroke="#000000" points="425.8809,-168.5 425.8809,-186.5 510.25,-186.5 510.25,-168.5 425.8809,-168.5"/>
<text text-anchor="middle" x="468.0654" y="-174.5" font-family="Helvetica,sans-Serif" font-size="10.00" fill="#000000">lcdSetBacklight</text>
</a>
</g>
</g>
<!-- Node91&#45;&gt;Node92 -->
<g id="edge7" class="edge">
<title>Node91&#45;&gt;Node92</title>
<path fill="none" stroke="#191970" d="M383.3002,-149.0815C397.6432,-153.8902 415.7722,-159.9681 431.5799,-165.2678"/>
<polygon fill="#191970" stroke="#191970" points="430.474,-168.5885 441.0679,-168.4488 432.6991,-161.9515 430.474,-168.5885"/>
</g>
<!-- Node93 -->
<g id="node8" class="node">
<title>Node93</title>
<g id="a_node8"><a xlink:href="_a_p_i_8h.html#a5fa1d119fe3e836b5519f97eae7a1272" target="_top" xlink:title="Clears the LCD screen on the specified port. ">
<polygon fill="none" stroke="#000000" points="441.7256,-131.5 441.7256,-149.5 494.4053,-149.5 494.4053,-131.5 441.7256,-131.5"/>
<text text-anchor="middle" x="468.0654" y="-137.5" font-family="Helvetica,sans-Serif" font-size="10.00" fill="#000000">lcdClear</text>
</a>
</g>
</g>
<!-- Node91&#45;&gt;Node93 -->
<g id="edge8" class="edge">
<title>Node91&#45;&gt;Node93</title>
<path fill="none" stroke="#191970" d="M383.3002,-140.5C397.476,-140.5 415.3502,-140.5 431.0263,-140.5"/>
<polygon fill="#191970" stroke="#191970" points="431.4555,-144.0001 441.4554,-140.5 431.4554,-137.0001 431.4555,-144.0001"/>
</g>
<!-- Node94 -->
<g id="node9" class="node">
<title>Node94</title>
<g id="a_node9"><a xlink:href="_a_p_i_8h.html#a6cfad8271c6a566a2f51ca318f819a80" target="_top" xlink:title="Prints the formatted string to the attached LCD. ">
<polygon fill="none" stroke="#000000" points="443.3931,-94.5 443.3931,-112.5 492.7378,-112.5 492.7378,-94.5 443.3931,-94.5"/>
<text text-anchor="middle" x="468.0654" y="-100.5" font-family="Helvetica,sans-Serif" font-size="10.00" fill="#000000">lcdPrint</text>
</a>
</g>
</g>
<!-- Node91&#45;&gt;Node94 -->
<g id="edge9" class="edge">
<title>Node91&#45;&gt;Node94</title>
<path fill="none" stroke="#191970" d="M383.3002,-131.9185C398.276,-126.8977 417.3792,-120.4931 433.658,-115.0355"/>
<polygon fill="#191970" stroke="#191970" points="434.998,-118.2777 443.3668,-111.7805 432.7729,-111.6408 434.998,-118.2777"/>
</g>
<!-- Node98&#45;&gt;Node99 -->
<g id="edge14" class="edge">
<title>Node98&#45;&gt;Node99</title>
<path fill="none" stroke="#191970" d="M276.2511,-75.4945C290.1092,-70.5615 307.4973,-64.3719 322.6454,-58.9796"/>
<polygon fill="#191970" stroke="#191970" points="323.9696,-62.2235 332.2168,-55.5725 321.6221,-55.6288 323.9696,-62.2235"/>
</g>
<!-- Node98&#45;&gt;Node100 -->
<g id="edge15" class="edge">
<title>Node98&#45;&gt;Node100</title>
<path fill="none" stroke="#191970" d="M261.711,-75.4944C275.8944,-63.8073 301.8296,-43.0703 325.5264,-27.5 327.4388,-26.2434 329.4447,-24.9867 331.4805,-23.7545"/>
<polygon fill="#191970" stroke="#191970" points="333.5038,-26.6273 340.4011,-18.585 329.994,-20.5707 333.5038,-26.6273"/>
</g>
<!-- Node101 -->
<g id="node16" class="node">
<title>Node101</title>
<g id="a_node16"><a xlink:href="_a_p_i_8h.html#a03c5b04b472d024281f62d7af8854a8e" target="_top" xlink:title="Sets the speed of the specified motor channel. ">
<polygon fill="none" stroke="#000000" points="329.418,-75.5 329.418,-93.5 385.9893,-93.5 385.9893,-75.5 329.418,-75.5"/>
<text text-anchor="middle" x="357.7036" y="-81.5" font-family="Helvetica,sans-Serif" font-size="10.00" fill="#000000">motorSet</text>
</a>
</g>
</g>
<!-- Node98&#45;&gt;Node101 -->
<g id="edge16" class="edge">
<title>Node98&#45;&gt;Node101</title>
<path fill="none" stroke="#191970" d="M289.7942,-84.5C299.3381,-84.5 309.5532,-84.5 319.0865,-84.5"/>
<polygon fill="#191970" stroke="#191970" points="319.0996,-88.0001 329.0996,-84.5 319.0996,-81.0001 319.0996,-88.0001"/>
</g>
</g>
</svg>
        <g id="navigator" transform="translate(0 0)" fill="#404254">
                <rect fill="#f2f5e9" fill-opacity="0.5" stroke="#606060" stroke-width=".5" x="0" y="0" width="60" height="60"/>
                <use id="zoomplus" xlink:href="#zoomPlus" x="17" y="9" onmousedown="handleZoom(evt,'in')"/>
                <use id="zoomminus" xlink:href="#zoomMin" x="42" y="9" onmousedown="handleZoom(evt,'out')"/>
                <use id="reset" xlink:href="#resetDef" x="30" y="36" onmousedown="handleReset()"/>
                <g id="arrowUp" xlink:href="#dirArrow" transform="translate(30 24)" onmousedown="handlePan(0,-1)">
                  <use xlink:href="#rim" fill="#404040">
                        <set attributeName="fill" to="#808080" begin="arrowUp.mouseover" end="arrowUp.mouseout"/>
                  </use>
                  <path fill="none" stroke="white" stroke-width="1.5" d="M0,-3.0v7 M-2.5,-0.5L0,-3.0L2.5,-0.5"/>
                </g>
                <g id="arrowRight" xlink:href="#dirArrow" transform="rotate(90) translate(36 -43)" onmousedown="handlePan(1,0)">
                  <use xlink:href="#rim" fill="#404040">
                        <set attributeName="fill" to="#808080" begin="arrowRight.mouseover" end="arrowRight.mouseout"/>
                  </use>
                  <path fill="none" stroke="white" stroke-width="1.5" d="M0,-3.0v7 M-2.5,-0.5L0,-3.0L2.5,-0.5"/>
                </g>
                <g id="arrowDown" xlink:href="#dirArrow" transform="rotate(180) translate(-30 -48)" onmousedown="handlePan(0,1)">
                  <use xlink:href="#rim" fill="#404040">
                        <set attributeName="fill" to="#808080" begin="arrowDown.mouseover" end="arrowDown.mouseout"/>
                  </use>
                  <path fill="none" stroke="white" stroke-width="1.5" d="M0,-3.0v7 M-2.5,-0.5L0,-3.0L2.5,-0.5"/>
                </g>
                <g id="arrowLeft" xlink:href="#dirArrow" transform="rotate(270) translate(-36 17)" onmousedown="handlePan(-1,0)">
                  <use xlink:href="#rim" fill="#404040">
                        <set attributeName="fill" to="#808080" begin="arrowLeft.mouseover" end="arrowLeft.mouseout"/>
                  </use>
                  <path fill="none" stroke="white" stroke-width="1.5" d="M0,-3.0v7 M-2.5,-0.5L0,-3.0L2.5,-0.5"/>
                </g>
        </g>
        <svg viewBox="0 0 15 15" width="100%" height="30px" preserveAspectRatio="xMaxYMin meet">
         <g id="arrow_out" transform="scale(0.3 0.3)">
          <a xlink:href="slew_8h_a7dff2b79dffe55fb936d977594d7c01d_cgraph_org.svg" target="_base">
           <rect id="button" ry="5" rx="5" y="6" x="6" height="38" width="38"
                fill="#f2f5e9" fill-opacity="0.5" stroke="#606060" stroke-width="1.0"/>
           <path id="arrow"
             d="M 11.500037,31.436501 C 11.940474,20.09759 22.043105,11.32322 32.158766,21.979434 L 37.068811,17.246167 C 37.068811,17.246167 37.088388,32 37.088388,32 L 22.160133,31.978069 C 22.160133,31.978069 26.997745,27.140456 26.997745,27.140456 C 18.528582,18.264221 13.291696,25.230495 11.500037,31.436501 z"
             style="fill:#404040;"/>
          </a>
         </g>
        </svg>
</svg>
