<?xml version="1.0" encoding="UTF-8" standalone="no"?>
<!DOCTYPE svg PUBLIC "-//W3C//DTD SVG 1.1//EN"
 "http://www.w3.org/Graphics/SVG/1.1/DTD/svg11.dtd">
<!-- Generated by graphviz version 2.40.1 (20161225.0304)
 -->
<!-- Title: init_slew Pages: 1 -->
<!--zoomable 377 -->
<svg id="main" version="1.1" xmlns="http://www.w3.org/2000/svg" xmlns:xlink="http://www.w3.org/1999/xlink" xml:space="preserve" onload="init(evt)">
<style type="text/css"><![CDATA[
.edge:hover path { stroke: red; }
.edge:hover polygon { stroke: red; fill: red; }
]]></style>
<script type="text/javascript"><![CDATA[
var edges = document.getElementsByTagName('g');
if (edges && edges.length) {
  for (var i=0;i<edges.length;i++) {
    if (edges[i].id.substr(0,4)=='edge') {
      edges[i].setAttribute('class','edge');
    }
  }
}
]]></script>
        <defs>
                <circle id="rim" cx="0" cy="0" r="7"/>
                <circle id="rim2" cx="0" cy="0" r="3.5"/>
                <g id="zoomPlus">
                        <use xlink:href="#rim" fill="#404040">
                                <set attributeName="fill" to="#808080" begin="zoomplus.mouseover" end="zoomplus.mouseout"/>
                        </use>
                        <path d="M-4,0h8M0,-4v8" fill="none" stroke="white" stroke-width="1.5" pointer-events="none"/>
                </g>
                <g id="zoomMin">
                        <use xlink:href="#rim" fill="#404040">
                                <set attributeName="fill" to="#808080" begin="zoomminus.mouseover" end="zoomminus.mouseout"/>
                        </use>
                        <path d="M-4,0h8" fill="none" stroke="white" stroke-width="1.5" pointer-events="none"/>
                </g>
                <g id="dirArrow">
                        <path fill="none" stroke="white" stroke-width="1.5" d="M0,-3.0v7 M-2.5,-0.5L0,-3.0L2.5,-0.5"/>
                </g>
               <g id="resetDef">
                       <use xlink:href="#rim2" fill="#404040">
                               <set attributeName="fill" to="#808080" begin="reset.mouseover" end="reset.mouseout"/>
                       </use>
               </g>
        </defs>

<script type="text/javascript">
var viewWidth = 715;
var viewHeight = 377;
var sectionId = 'dynsection-4';
</script>
<script xlink:href="svgpan.js"/>
<svg id="graph" class="graph">
<g id="viewport">
<title>init_slew</title>
<!-- Node17 -->
<g id="node1" class="node">
<title>Node17</title>
<polygon fill="#bfbfbf" stroke="#000000" points="0,-274.5 0,-292.5 54.3496,-292.5 54.3496,-274.5 0,-274.5"/>
<text text-anchor="middle" x="27.1748" y="-280.5" font-family="Helvetica,sans-Serif" font-size="10.00" fill="#000000">init_slew</text>
</g>
<!-- Node18 -->
<g id="node2" class="node">
<title>Node18</title>
<g id="a_node2"><a xlink:href="init_8c.html#a25a40b6614565f755233080a384c35f1" target="_top" xlink:title="initialize">
<polygon fill="none" stroke="#000000" points="120.6401,-350.5 120.6401,-368.5 172.2114,-368.5 172.2114,-350.5 120.6401,-350.5"/>
<text text-anchor="middle" x="146.4258" y="-356.5" font-family="Helvetica,sans-Serif" font-size="10.00" fill="#000000">initialize</text>
</a>
</g>
</g>
<!-- Node17&#45;&gt;Node18 -->
<g id="edge1" class="edge">
<title>Node17&#45;&gt;Node18</title>
<path fill="none" stroke="#191970" d="M43.933,-299.5471C56.1199,-310.6331 73.3894,-325.1822 90.3496,-335.5 99.9394,-341.334 111.2018,-346.4515 121.1075,-350.4455"/>
<polygon fill="#191970" stroke="#191970" points="46.0813,-296.7655 36.3742,-292.5201 41.3151,-301.8923 46.0813,-296.7655"/>
</g>
<!-- Node19 -->
<g id="node3" class="node">
<title>Node19</title>
<g id="a_node3"><a xlink:href="opcontrol_8c.html#ac71a94af413917f27d108e95c4d6f6a7" target="_top" xlink:title="operatorControl">
<polygon fill="none" stroke="#000000" points="621.3086,-190.5 621.3086,-208.5 706.791,-208.5 706.791,-190.5 621.3086,-190.5"/>
<text text-anchor="middle" x="664.0498" y="-196.5" font-family="Helvetica,sans-Serif" font-size="10.00" fill="#000000">operatorControl</text>
</a>
</g>
</g>
<!-- Node17&#45;&gt;Node19 -->
<g id="edge2" class="edge">
<title>Node17&#45;&gt;Node19</title>
<path fill="none" stroke="#191970" d="M64.4326,-292.4961C114.3129,-303.7327 205.699,-321.5 284.8564,-321.5 284.8564,-321.5 284.8564,-321.5 403.2871,-321.5 509.7468,-321.5 619.5707,-237.0423 653.461,-208.6698"/>
<polygon fill="#191970" stroke="#191970" points="64.9671,-289.0279 54.438,-290.2062 63.4038,-295.8511 64.9671,-289.0279"/>
</g>
<!-- Node20 -->
<g id="node4" class="node">
<title>Node20</title>
<g id="a_node4"><a xlink:href="slew_8c.html#a9f8b8ae577ef938622024545711f0151" target="_top" xlink:title="set_motor_immediate">
<polygon fill="none" stroke="#000000" points="90.3496,-236.5 90.3496,-254.5 202.502,-254.5 202.502,-236.5 90.3496,-236.5"/>
<text text-anchor="middle" x="146.4258" y="-242.5" font-family="Helvetica,sans-Serif" font-size="10.00" fill="#000000">set_motor_immediate</text>
</a>
</g>
</g>
<!-- Node17&#45;&gt;Node20 -->
<g id="edge3" class="edge">
<title>Node17&#45;&gt;Node20</title>
<path fill="none" stroke="#191970" d="M64.3244,-271.6621C81.6259,-266.1488 101.8852,-259.6931 117.9498,-254.574"/>
<polygon fill="#191970" stroke="#191970" points="62.9987,-268.411 54.5334,-274.782 65.124,-275.0806 62.9987,-268.411"/>
</g>
<!-- Node28 -->
<g id="node12" class="node">
<title>Node28</title>
<g id="a_node12"><a xlink:href="slew_8c.html#a7dff2b79dffe55fb936d977594d7c01d" target="_top" xlink:title="Sets motor speed wrapped inside the slew rate controller. ">
<polygon fill="none" stroke="#000000" points="103.4111,-114.5 103.4111,-132.5 189.4404,-132.5 189.4404,-114.5 103.4111,-114.5"/>
<text text-anchor="middle" x="146.4258" y="-120.5" font-family="Helvetica,sans-Serif" font-size="10.00" fill="#000000">set_motor_slew</text>
</a>
</g>
</g>
<!-- Node17&#45;&gt;Node28 -->
<g id="edge17" class="edge">
<title>Node17&#45;&gt;Node28</title>
<path fill="none" stroke="#191970" d="M40.2028,-266.0203C65.4107,-232.1987 120.0803,-158.848 139.4497,-132.8599"/>
<polygon fill="#191970" stroke="#191970" points="37.0976,-264.3297 33.9279,-274.4393 42.7102,-268.5129 37.0976,-264.3297"/>
</g>
<!-- Node21 -->
<g id="node5" class="node">
<title>Node21</title>
<g id="a_node5"><a xlink:href="claw_8c.html#a0122b78972344264b8a276a559cfce4a" target="_top" xlink:title="update_claw">
<polygon fill="none" stroke="#000000" points="367.2109,-265.5 367.2109,-283.5 439.3633,-283.5 439.3633,-265.5 367.2109,-265.5"/>
<text text-anchor="middle" x="403.2871" y="-271.5" font-family="Helvetica,sans-Serif" font-size="10.00" fill="#000000">update_claw</text>
</a>
</g>
</g>
<!-- Node20&#45;&gt;Node21 -->
<g id="edge4" class="edge">
<title>Node20&#45;&gt;Node21</title>
<path fill="none" stroke="#191970" d="M194.317,-256.7338C208.4736,-259.6873 224.0498,-262.5804 238.502,-264.5 282.54,-270.3494 333.6597,-272.7815 367.1416,-273.79"/>
<polygon fill="#191970" stroke="#191970" points="194.8076,-253.2595 184.2961,-254.5855 193.3402,-260.104 194.8076,-253.2595"/>
</g>
<!-- Node22 -->
<g id="node6" class="node">
<title>Node22</title>
<g id="a_node6"><a xlink:href="claw_8c.html#a03023ca28f671b9fa7bac07782ccd8c1" target="_top" xlink:title="open_claw">
<polygon fill="none" stroke="#000000" points="252.9502,-236.5 252.9502,-254.5 316.7627,-254.5 316.7627,-236.5 252.9502,-236.5"/>
<text text-anchor="middle" x="284.8564" y="-242.5" font-family="Helvetica,sans-Serif" font-size="10.00" fill="#000000">open_claw</text>
</a>
</g>
</g>
<!-- Node20&#45;&gt;Node22 -->
<g id="edge6" class="edge">
<title>Node20&#45;&gt;Node22</title>
<path fill="none" stroke="#191970" d="M212.8227,-245.5C226.7638,-245.5 240.8576,-245.5 252.8368,-245.5"/>
<polygon fill="#191970" stroke="#191970" points="212.7309,-242.0001 202.7308,-245.5 212.7308,-249.0001 212.7309,-242.0001"/>
</g>
<!-- Node23 -->
<g id="node7" class="node">
<title>Node23</title>
<g id="a_node7"><a xlink:href="claw_8c.html#ac42dd40dbb37219295286859c6b068c2" target="_top" xlink:title="close_claw">
<polygon fill="none" stroke="#000000" points="252.4009,-199.5 252.4009,-217.5 317.312,-217.5 317.312,-199.5 252.4009,-199.5"/>
<text text-anchor="middle" x="284.8564" y="-205.5" font-family="Helvetica,sans-Serif" font-size="10.00" fill="#000000">close_claw</text>
</a>
</g>
</g>
<!-- Node20&#45;&gt;Node23 -->
<g id="edge8" class="edge">
<title>Node20&#45;&gt;Node23</title>
<path fill="none" stroke="#191970" d="M190.165,-233.8093C210.2917,-228.4298 233.7584,-222.1576 252.2954,-217.203"/>
<polygon fill="#191970" stroke="#191970" points="189.0468,-230.4852 180.2897,-236.4488 190.8544,-237.2478 189.0468,-230.4852"/>
</g>
<!-- Node24 -->
<g id="node8" class="node">
<title>Node24</title>
<g id="a_node8"><a xlink:href="mobile__goal__intake_8c.html#a8f215023832ba515d7b4535e3ae07498" target="_top" xlink:title="set_intake_motor">
<polygon fill="none" stroke="#000000" points="238.502,-162.5 238.502,-180.5 331.2109,-180.5 331.2109,-162.5 238.502,-162.5"/>
<text text-anchor="middle" x="284.8564" y="-168.5" font-family="Helvetica,sans-Serif" font-size="10.00" fill="#000000">set_intake_motor</text>
</a>
</g>
</g>
<!-- Node20&#45;&gt;Node24 -->
<g id="edge10" class="edge">
<title>Node20&#45;&gt;Node24</title>
<path fill="none" stroke="#191970" d="M168.6028,-230.9733C186.9326,-219.2819 213.8551,-202.8259 238.502,-190.5 245.503,-186.9988 253.3107,-183.611 260.4925,-180.6897"/>
<polygon fill="#191970" stroke="#191970" points="166.6133,-228.0915 160.1006,-236.4482 170.4031,-233.9769 166.6133,-228.0915"/>
</g>
<!-- Node21&#45;&gt;Node19 -->
<g id="edge5" class="edge">
<title>Node21&#45;&gt;Node19</title>
<path fill="none" stroke="#191970" d="M444.67,-262.5975C496.8556,-247.588 585.4312,-222.1121 632.4842,-208.5788"/>
<polygon fill="#191970" stroke="#191970" points="443.3841,-259.3254 434.7412,-265.4532 445.319,-266.0527 443.3841,-259.3254"/>
</g>
<!-- Node22&#45;&gt;Node21 -->
<g id="edge7" class="edge">
<title>Node22&#45;&gt;Node21</title>
<path fill="none" stroke="#191970" d="M326.6825,-255.7419C339.8526,-258.9668 354.2819,-262.5001 367.0311,-265.622"/>
<polygon fill="#191970" stroke="#191970" points="327.451,-252.3268 316.9055,-253.3478 325.7861,-259.1259 327.451,-252.3268"/>
</g>
<!-- Node23&#45;&gt;Node21 -->
<g id="edge9" class="edge">
<title>Node23&#45;&gt;Node21</title>
<path fill="none" stroke="#191970" d="M320.3201,-221.7795C324.0728,-223.5534 327.7709,-225.4679 331.2109,-227.5 348.9008,-237.9495 349.9187,-245.4049 367.2109,-256.5 372.1595,-259.6751 377.7448,-262.7045 383.0161,-265.342"/>
<polygon fill="#191970" stroke="#191970" points="321.5576,-218.5002 310.995,-217.6734 318.7366,-224.9066 321.5576,-218.5002"/>
</g>
<!-- Node25 -->
<g id="node9" class="node">
<title>Node25</title>
<g id="a_node9"><a xlink:href="mobile__goal__intake_8c.html#afa91470a9891e48827fd62d18553c6ce" target="_top" xlink:title="lower_intake">
<polygon fill="none" stroke="#000000" points="367.2158,-228.5 367.2158,-246.5 439.3584,-246.5 439.3584,-228.5 367.2158,-228.5"/>
<text text-anchor="middle" x="403.2871" y="-234.5" font-family="Helvetica,sans-Serif" font-size="10.00" fill="#000000">lower_intake</text>
</a>
</g>
</g>
<!-- Node24&#45;&gt;Node25 -->
<g id="edge11" class="edge">
<title>Node24&#45;&gt;Node25</title>
<path fill="none" stroke="#191970" d="M318.6139,-184.4585C322.9112,-186.3633 327.2041,-188.3966 331.2109,-190.5 337.163,-193.6246 370.3783,-215.5913 389.5754,-228.3587"/>
<polygon fill="#191970" stroke="#191970" points="319.8822,-181.1947 309.3091,-180.5167 317.1516,-187.6402 319.8822,-181.1947"/>
</g>
<!-- Node26 -->
<g id="node10" class="node">
<title>Node26</title>
<g id="a_node10"><a xlink:href="mobile__goal__intake_8c.html#ad0232c21c5c1ffda603d2b7d61034118" target="_top" xlink:title="updateIntake">
<polygon fill="none" stroke="#000000" points="493.4224,-190.5 493.4224,-208.5 567.2495,-208.5 567.2495,-190.5 493.4224,-190.5"/>
<text text-anchor="middle" x="530.3359" y="-196.5" font-family="Helvetica,sans-Serif" font-size="10.00" fill="#000000">updateIntake</text>
</a>
</g>
</g>
<!-- Node24&#45;&gt;Node26 -->
<g id="edge16" class="edge">
<title>Node24&#45;&gt;Node26</title>
<path fill="none" stroke="#191970" d="M341.2821,-177.936C387.9672,-183.2611 452.9436,-190.6724 493.2809,-195.2734"/>
<polygon fill="#191970" stroke="#191970" points="341.6501,-174.4554 331.3179,-176.7995 340.8568,-181.4103 341.6501,-174.4554"/>
</g>
<!-- Node27 -->
<g id="node11" class="node">
<title>Node27</title>
<g id="a_node11"><a xlink:href="mobile__goal__intake_8c.html#a4899f9a8621015313e6312ce085da979" target="_top" xlink:title="raise_intake">
<polygon fill="none" stroke="#000000" points="368.3267,-152.5 368.3267,-170.5 438.2476,-170.5 438.2476,-152.5 368.3267,-152.5"/>
<text text-anchor="middle" x="403.2871" y="-158.5" font-family="Helvetica,sans-Serif" font-size="10.00" fill="#000000">raise_intake</text>
</a>
</g>
</g>
<!-- Node24&#45;&gt;Node27 -->
<g id="edge14" class="edge">
<title>Node24&#45;&gt;Node27</title>
<path fill="none" stroke="#191970" d="M341.5504,-166.7129C350.6797,-165.942 359.8891,-165.1644 368.3084,-164.4535"/>
<polygon fill="#191970" stroke="#191970" points="340.9935,-163.2474 331.3235,-167.5764 341.5825,-170.2226 340.9935,-163.2474"/>
</g>
<!-- Node25&#45;&gt;Node26 -->
<g id="edge12" class="edge">
<title>Node25&#45;&gt;Node26</title>
<path fill="none" stroke="#191970" d="M443.2303,-225.5531C461.5846,-220.0634 482.9997,-213.6582 500.003,-208.5725"/>
<polygon fill="#191970" stroke="#191970" points="441.9736,-222.2757 433.3959,-228.4945 443.9795,-228.9821 441.9736,-222.2757"/>
</g>
<!-- Node26&#45;&gt;Node19 -->
<g id="edge13" class="edge">
<title>Node26&#45;&gt;Node19</title>
<path fill="none" stroke="#191970" d="M577.9893,-199.5C591.9694,-199.5 607.1736,-199.5 620.8589,-199.5"/>
<polygon fill="#191970" stroke="#191970" points="577.5827,-196.0001 567.5827,-199.5 577.5827,-203.0001 577.5827,-196.0001"/>
</g>
<!-- Node27&#45;&gt;Node26 -->
<g id="edge15" class="edge">
<title>Node27&#45;&gt;Node26</title>
<path fill="none" stroke="#191970" d="M443.2303,-173.4469C461.5846,-178.9366 482.9997,-185.3418 500.003,-190.4275"/>
<polygon fill="#191970" stroke="#191970" points="443.9795,-170.0179 433.3959,-170.5055 441.9736,-176.7243 443.9795,-170.0179"/>
</g>
<!-- Node29 -->
<g id="node13" class="node">
<title>Node29</title>
<g id="a_node13"><a xlink:href="drive_8c.html#a8df41fd50094c065eedc81fc5e6595d1" target="_top" xlink:title="sets the speed of one side of the robot. ">
<polygon fill="none" stroke="#000000" points="241.8296,-114.5 241.8296,-132.5 327.8833,-132.5 327.8833,-114.5 241.8296,-114.5"/>
<text text-anchor="middle" x="284.8564" y="-120.5" font-family="Helvetica,sans-Serif" font-size="10.00" fill="#000000">set_side_speed</text>
</a>
</g>
</g>
<!-- Node28&#45;&gt;Node29 -->
<g id="edge18" class="edge">
<title>Node28&#45;&gt;Node29</title>
<path fill="none" stroke="#191970" d="M199.7769,-123.5C213.5346,-123.5 228.1761,-123.5 241.3648,-123.5"/>
<polygon fill="#191970" stroke="#191970" points="199.4673,-120.0001 189.4673,-123.5 199.4673,-127.0001 199.4673,-120.0001"/>
</g>
<!-- Node31 -->
<g id="node15" class="node">
<title>Node31</title>
<g id="a_node15"><a xlink:href="lifter_8c.html#aa62603df4d54dff2d7fd472d699e9b2e" target="_top" xlink:title="set_lifter_motors">
<polygon fill="none" stroke="#000000" points="239.8984,-57.5 239.8984,-75.5 329.8145,-75.5 329.8145,-57.5 239.8984,-57.5"/>
<text text-anchor="middle" x="284.8564" y="-63.5" font-family="Helvetica,sans-Serif" font-size="10.00" fill="#000000">set_lifter_motors</text>
</a>
</g>
</g>
<!-- Node28&#45;&gt;Node31 -->
<g id="edge21" class="edge">
<title>Node28&#45;&gt;Node31</title>
<path fill="none" stroke="#191970" d="M177.714,-110.6168C203.5484,-99.9793 239.581,-85.1425 262.5659,-75.6783"/>
<polygon fill="#191970" stroke="#191970" points="176.2747,-107.4243 168.3605,-114.4682 178.94,-113.8971 176.2747,-107.4243"/>
</g>
<!-- Node30 -->
<g id="node14" class="node">
<title>Node30</title>
<g id="a_node14"><a xlink:href="drive_8c.html#a8224a4626a934d30ed587671b7004bf8" target="_top" xlink:title="Updates the drive motors during teleop. ">
<polygon fill="none" stroke="#000000" points="475.3633,-133.5 475.3633,-151.5 585.3086,-151.5 585.3086,-133.5 475.3633,-133.5"/>
<text text-anchor="middle" x="530.3359" y="-139.5" font-family="Helvetica,sans-Serif" font-size="10.00" fill="#000000">update_drive_motors</text>
</a>
</g>
</g>
<!-- Node29&#45;&gt;Node30 -->
<g id="edge19" class="edge">
<title>Node29&#45;&gt;Node30</title>
<path fill="none" stroke="#191970" d="M338.1226,-127.6228C378.6687,-130.761 434.2962,-135.0666 475.2778,-138.2385"/>
<polygon fill="#191970" stroke="#191970" points="338.1369,-124.1135 327.8966,-126.8313 337.5967,-131.0926 338.1369,-124.1135"/>
</g>
<!-- Node30&#45;&gt;Node19 -->
<g id="edge20" class="edge">
<title>Node30&#45;&gt;Node19</title>
<path fill="none" stroke="#191970" d="M560.8884,-155.524C585.8186,-166.1513 620.4149,-180.8991 642.5188,-190.3217"/>
<polygon fill="#191970" stroke="#191970" points="562.0949,-152.2336 551.5233,-151.5318 559.3498,-158.673 562.0949,-152.2336"/>
</g>
<!-- Node32 -->
<g id="node16" class="node">
<title>Node32</title>
<g id="a_node16"><a xlink:href="lifter_8c.html#a7452163ed7946b6262f41de51c62dfd4" target="_top" xlink:title="raise_lifter">
<polygon fill="none" stroke="#000000" points="372.2231,-76.5 372.2231,-94.5 434.3511,-94.5 434.3511,-76.5 372.2231,-76.5"/>
<text text-anchor="middle" x="403.2871" y="-82.5" font-family="Helvetica,sans-Serif" font-size="10.00" fill="#000000">raise_lifter</text>
</a>
</g>
</g>
<!-- Node31&#45;&gt;Node32 -->
<g id="edge22" class="edge">
<title>Node31&#45;&gt;Node32</title>
<path fill="none" stroke="#191970" d="M339.944,-75.3378C350.9123,-77.0974 362.0704,-78.8875 371.9032,-80.465"/>
<polygon fill="#191970" stroke="#191970" points="340.396,-71.8656 329.9678,-73.7373 339.2871,-78.7772 340.396,-71.8656"/>
</g>
<!-- Node33 -->
<g id="node17" class="node">
<title>Node33</title>
<g id="a_node17"><a xlink:href="lifter_8c.html#a59bb7413777ca16aba124aaedf95c79b" target="_top" xlink:title="update_lifter">
<polygon fill="none" stroke="#000000" points="494.8164,-57.5 494.8164,-75.5 565.8555,-75.5 565.8555,-57.5 494.8164,-57.5"/>
<text text-anchor="middle" x="530.3359" y="-63.5" font-family="Helvetica,sans-Serif" font-size="10.00" fill="#000000">update_lifter</text>
</a>
</g>
</g>
<!-- Node31&#45;&gt;Node33 -->
<g id="edge27" class="edge">
<title>Node31&#45;&gt;Node33</title>
<path fill="none" stroke="#191970" d="M339.9688,-66.5C387.3094,-66.5 454.164,-66.5 494.7518,-66.5"/>
<polygon fill="#191970" stroke="#191970" points="339.8812,-63.0001 329.8812,-66.5 339.8811,-70.0001 339.8812,-63.0001"/>
</g>
<!-- Node34 -->
<g id="node18" class="node">
<title>Node34</title>
<g id="a_node18"><a xlink:href="lifter_8c.html#aa7d2d04059f57cc5b8582f6fd0726dc1" target="_top" xlink:title="lower_lifter">
<polygon fill="none" stroke="#000000" points="371.1123,-.5 371.1123,-18.5 435.4619,-18.5 435.4619,-.5 371.1123,-.5"/>
<text text-anchor="middle" x="403.2871" y="-6.5" font-family="Helvetica,sans-Serif" font-size="10.00" fill="#000000">lower_lifter</text>
</a>
</g>
</g>
<!-- Node31&#45;&gt;Node34 -->
<g id="edge25" class="edge">
<title>Node31&#45;&gt;Node34</title>
<path fill="none" stroke="#191970" d="M312.8007,-53.0506C334.8091,-42.4581 364.8994,-27.9758 384.2171,-18.6783"/>
<polygon fill="#191970" stroke="#191970" points="311.1149,-49.9776 303.6221,-57.4682 314.1507,-56.2851 311.1149,-49.9776"/>
</g>
<!-- Node32&#45;&gt;Node33 -->
<g id="edge23" class="edge">
<title>Node32&#45;&gt;Node33</title>
<path fill="none" stroke="#191970" d="M444.607,-79.3207C460.7486,-76.9067 479.0784,-74.1655 494.6341,-71.8392"/>
<polygon fill="#191970" stroke="#191970" points="443.7391,-75.9114 434.3667,-80.8521 444.7745,-82.8345 443.7391,-75.9114"/>
</g>
<!-- Node33&#45;&gt;Node19 -->
<g id="edge24" class="edge">
<title>Node33&#45;&gt;Node19</title>
<path fill="none" stroke="#191970" d="M546.6998,-82.7765C575.0472,-110.9726 632.3995,-168.0187 654.7948,-190.2944"/>
<polygon fill="#191970" stroke="#191970" points="549.0849,-80.2123 539.5266,-75.6416 544.1484,-85.1753 549.0849,-80.2123"/>
</g>
<!-- Node34&#45;&gt;Node33 -->
<g id="edge26" class="edge">
<title>Node34&#45;&gt;Node33</title>
<path fill="none" stroke="#191970" d="M432.6317,-22.6653C456.2949,-33.2817 488.9689,-47.9408 509.8782,-57.3217"/>
<polygon fill="#191970" stroke="#191970" points="433.9749,-19.4319 423.4184,-18.5318 431.1095,-25.8186 433.9749,-19.4319"/>
</g>
</g>
</svg>
        <g id="navigator" transform="translate(0 0)" fill="#404254">
                <rect fill="#f2f5e9" fill-opacity="0.5" stroke="#606060" stroke-width=".5" x="0" y="0" width="60" height="60"/>
                <use id="zoomplus" xlink:href="#zoomPlus" x="17" y="9" onmousedown="handleZoom(evt,'in')"/>
                <use id="zoomminus" xlink:href="#zoomMin" x="42" y="9" onmousedown="handleZoom(evt,'out')"/>
                <use id="reset" xlink:href="#resetDef" x="30" y="36" onmousedown="handleReset()"/>
                <g id="arrowUp" xlink:href="#dirArrow" transform="translate(30 24)" onmousedown="handlePan(0,-1)">
                  <use xlink:href="#rim" fill="#404040">
                        <set attributeName="fill" to="#808080" begin="arrowUp.mouseover" end="arrowUp.mouseout"/>
                  </use>
                  <path fill="none" stroke="white" stroke-width="1.5" d="M0,-3.0v7 M-2.5,-0.5L0,-3.0L2.5,-0.5"/>
                </g>
                <g id="arrowRight" xlink:href="#dirArrow" transform="rotate(90) translate(36 -43)" onmousedown="handlePan(1,0)">
                  <use xlink:href="#rim" fill="#404040">
                        <set attributeName="fill" to="#808080" begin="arrowRight.mouseover" end="arrowRight.mouseout"/>
                  </use>
                  <path fill="none" stroke="white" stroke-width="1.5" d="M0,-3.0v7 M-2.5,-0.5L0,-3.0L2.5,-0.5"/>
                </g>
                <g id="arrowDown" xlink:href="#dirArrow" transform="rotate(180) translate(-30 -48)" onmousedown="handlePan(0,1)">
                  <use xlink:href="#rim" fill="#404040">
                        <set attributeName="fill" to="#808080" begin="arrowDown.mouseover" end="arrowDown.mouseout"/>
                  </use>
                  <path fill="none" stroke="white" stroke-width="1.5" d="M0,-3.0v7 M-2.5,-0.5L0,-3.0L2.5,-0.5"/>
                </g>
                <g id="arrowLeft" xlink:href="#dirArrow" transform="rotate(270) translate(-36 17)" onmousedown="handlePan(-1,0)">
                  <use xlink:href="#rim" fill="#404040">
                        <set attributeName="fill" to="#808080" begin="arrowLeft.mouseover" end="arrowLeft.mouseout"/>
                  </use>
                  <path fill="none" stroke="white" stroke-width="1.5" d="M0,-3.0v7 M-2.5,-0.5L0,-3.0L2.5,-0.5"/>
                </g>
        </g>
        <svg viewBox="0 0 15 15" width="100%" height="30px" preserveAspectRatio="xMaxYMin meet">
         <g id="arrow_out" transform="scale(0.3 0.3)">
          <a xlink:href="slew_8h_a321758941d88b75783955c819bb75005_icgraph_org.svg" target="_base">
           <rect id="button" ry="5" rx="5" y="6" x="6" height="38" width="38"
                fill="#f2f5e9" fill-opacity="0.5" stroke="#606060" stroke-width="1.0"/>
           <path id="arrow"
             d="M 11.500037,31.436501 C 11.940474,20.09759 22.043105,11.32322 32.158766,21.979434 L 37.068811,17.246167 C 37.068811,17.246167 37.088388,32 37.088388,32 L 22.160133,31.978069 C 22.160133,31.978069 26.997745,27.140456 26.997745,27.140456 C 18.528582,18.264221 13.291696,25.230495 11.500037,31.436501 z"
             style="fill:#404040;"/>
          </a>
         </g>
        </svg>
</svg>
