<?xml version="1.0" encoding="UTF-8" standalone="no"?>
<!DOCTYPE svg PUBLIC "-//W3C//DTD SVG 1.1//EN"
 "http://www.w3.org/Graphics/SVG/1.1/DTD/svg11.dtd">
<!-- Generated by graphviz version 2.40.1 (20161225.0304)
 -->
<!-- Title: set_motor_immediate Pages: 1 -->
<!--zoomable 510 -->
<svg id="main" version="1.1" xmlns="http://www.w3.org/2000/svg" xmlns:xlink="http://www.w3.org/1999/xlink" xml:space="preserve" onload="init(evt)">
<style type="text/css"><![CDATA[
.edge:hover path { stroke: red; }
.edge:hover polygon { stroke: red; fill: red; }
]]></style>
<script type="text/javascript"><![CDATA[
var edges = document.getElementsByTagName('g');
if (edges && edges.length) {
  for (var i=0;i<edges.length;i++) {
    if (edges[i].id.substr(0,4)=='edge') {
      edges[i].setAttribute('class','edge');
    }
  }
}
]]></script>
        <defs>
                <circle id="rim" cx="0" cy="0" r="7"/>
                <circle id="rim2" cx="0" cy="0" r="3.5"/>
                <g id="zoomPlus">
                        <use xlink:href="#rim" fill="#404040">
                                <set attributeName="fill" to="#808080" begin="zoomplus.mouseover" end="zoomplus.mouseout"/>
                        </use>
                        <path d="M-4,0h8M0,-4v8" fill="none" stroke="white" stroke-width="1.5" pointer-events="none"/>
                </g>
                <g id="zoomMin">
                        <use xlink:href="#rim" fill="#404040">
                                <set attributeName="fill" to="#808080" begin="zoomminus.mouseover" end="zoomminus.mouseout"/>
                        </use>
                        <path d="M-4,0h8" fill="none" stroke="white" stroke-width="1.5" pointer-events="none"/>
                </g>
                <g id="dirArrow">
                        <path fill="none" stroke="white" stroke-width="1.5" d="M0,-3.0v7 M-2.5,-0.5L0,-3.0L2.5,-0.5"/>
                </g>
               <g id="resetDef">
                       <use xlink:href="#rim2" fill="#404040">
                               <set attributeName="fill" to="#808080" begin="reset.mouseover" end="reset.mouseout"/>
                       </use>
               </g>
        </defs>

<script type="text/javascript">
var viewWidth = 688;
var viewHeight = 510;
var sectionId = 'dynsection-5';
</script>
<script xlink:href="svgpan.js"/>
<svg id="graph" class="graph">
<g id="viewport">
<title>set_motor_immediate</title>
<!-- Node66 -->
<g id="node1" class="node">
<title>Node66</title>
<polygon fill="#bfbfbf" stroke="#000000" points="0,-311.4821 0,-329.4821 112.1523,-329.4821 112.1523,-311.4821 0,-311.4821"/>
<text text-anchor="middle" x="56.0762" y="-317.4821" font-family="Helvetica,sans-Serif" font-size="10.00" fill="#000000">set_motor_immediate</text>
</g>
<!-- Node67 -->
<g id="node2" class="node">
<title>Node67</title>
<g id="a_node2"><a xlink:href="claw_8c.html#a3a6168bf4e2042115dd32542f1f6a2f5" target="_top" xlink:title="Drives the motors to grab a cone. ">
<polygon fill="none" stroke="#000000" points="156.4849,-311.4821 156.4849,-329.4821 245.312,-329.4821 245.312,-311.4821 156.4849,-311.4821"/>
<text text-anchor="middle" x="200.8984" y="-317.4821" font-family="Helvetica,sans-Serif" font-size="10.00" fill="#000000">claw_grab_cone</text>
</a>
</g>
</g>
<!-- Node66&#45;&gt;Node67 -->
<g id="edge1" class="edge">
<title>Node66&#45;&gt;Node67</title>
<path fill="none" stroke="#191970" d="M122.7622,-320.4821C134.0469,-320.4821 145.5182,-320.4821 156.0707,-320.4821"/>
<polygon fill="#191970" stroke="#191970" points="122.483,-316.9822 112.4829,-320.4821 122.4829,-323.9822 122.483,-316.9822"/>
</g>
<!-- Node72 -->
<g id="node7" class="node">
<title>Node72</title>
<g id="a_node7"><a xlink:href="claw_8c.html#aecaa4eedc34d6b164ee17ed104914227" target="_top" xlink:title="Drives the motors to release a cone. ">
<polygon fill="none" stroke="#000000" points="150.0933,-348.4821 150.0933,-366.4821 251.7036,-366.4821 251.7036,-348.4821 150.0933,-348.4821"/>
<text text-anchor="middle" x="200.8984" y="-354.4821" font-family="Helvetica,sans-Serif" font-size="10.00" fill="#000000">claw_release_cone</text>
</a>
</g>
</g>
<!-- Node66&#45;&gt;Node72 -->
<g id="edge6" class="edge">
<title>Node66&#45;&gt;Node72</title>
<path fill="none" stroke="#191970" d="M101.3576,-332.0509C122.0711,-337.3429 146.247,-343.5195 165.586,-348.4603"/>
<polygon fill="#191970" stroke="#191970" points="102.0589,-328.6177 91.5037,-329.5334 100.3261,-335.3999 102.0589,-328.6177"/>
</g>
<!-- Node73 -->
<g id="node8" class="node">
<title>Node73</title>
<g id="a_node8"><a xlink:href="claw_8c.html#a3a57f998b1884d39b0cc786689f7086f" target="_top" xlink:title="sets the claw motor speed ">
<polygon fill="none" stroke="#000000" points="157.8838,-29.4821 157.8838,-47.4821 243.9131,-47.4821 243.9131,-29.4821 157.8838,-29.4821"/>
<text text-anchor="middle" x="200.8984" y="-35.4821" font-family="Helvetica,sans-Serif" font-size="10.00" fill="#000000">set_claw_motor</text>
</a>
</g>
</g>
<!-- Node66&#45;&gt;Node73 -->
<g id="edge7" class="edge">
<title>Node66&#45;&gt;Node73</title>
<path fill="none" stroke="#191970" d="M65.4266,-302.2749C93.3736,-247.856 175.6097,-87.7247 196.1885,-47.6534"/>
<polygon fill="#191970" stroke="#191970" points="62.1856,-300.9244 60.7306,-311.4189 68.4125,-304.1223 62.1856,-300.9244"/>
</g>
<!-- Node77 -->
<g id="node12" class="node">
<title>Node77</title>
<g id="a_node12"><a xlink:href="mobile__goal__intake_8c.html#ab31e12bb0fa46c77906a048666b699d5" target="_top" xlink:title="sets the intake motor ">
<polygon fill="none" stroke="#000000" points="154.5439,-425.4821 154.5439,-443.4821 247.2529,-443.4821 247.2529,-425.4821 154.5439,-425.4821"/>
<text text-anchor="middle" x="200.8984" y="-431.4821" font-family="Helvetica,sans-Serif" font-size="10.00" fill="#000000">set_intake_motor</text>
</a>
</g>
</g>
<!-- Node66&#45;&gt;Node77 -->
<g id="edge14" class="edge">
<title>Node66&#45;&gt;Node77</title>
<path fill="none" stroke="#191970" d="M75.7932,-336.0029C106.4421,-360.1288 164.5568,-405.875 189.288,-425.3427"/>
<polygon fill="#191970" stroke="#191970" points="77.9501,-333.2464 67.9276,-329.8112 73.6204,-338.7467 77.9501,-333.2464"/>
</g>
<!-- Node81 -->
<g id="node16" class="node">
<title>Node81</title>
<g id="a_node16"><a xlink:href="lifter_8c.html#a78640d547d9361951a92d0bc00939536" target="_top" xlink:title="Sets the secondary lifter motors to the given value. ">
<polygon fill="none" stroke="#000000" points="148.1523,-195.4821 148.1523,-223.4821 253.6445,-223.4821 253.6445,-195.4821 148.1523,-195.4821"/>
<text text-anchor="start" x="156.1523" y="-211.4821" font-family="Helvetica,sans-Serif" font-size="10.00" fill="#000000">set_secondary_lifter</text>
<text text-anchor="middle" x="200.8984" y="-201.4821" font-family="Helvetica,sans-Serif" font-size="10.00" fill="#000000">_motors</text>
</a>
</g>
</g>
<!-- Node66&#45;&gt;Node81 -->
<g id="edge24" class="edge">
<title>Node66&#45;&gt;Node81</title>
<path fill="none" stroke="#191970" d="M75.8789,-305.3042C104.0563,-283.7075 155.3234,-244.4134 182.6323,-223.4824"/>
<polygon fill="#191970" stroke="#191970" points="73.7353,-302.5373 67.9276,-311.3985 77.9936,-308.0931 73.7353,-302.5373"/>
</g>
<!-- Node68 -->
<g id="node3" class="node">
<title>Node68</title>
<g id="a_node3"><a xlink:href="auto_8c.html#a3c7ca506bbc071fa740de13805b7f376" target="_top" xlink:title="Runs the user autonomous code. ">
<polygon fill="none" stroke="#000000" points="475.8853,-349.4821 475.8853,-367.4821 546.9243,-367.4821 546.9243,-349.4821 475.8853,-349.4821"/>
<text text-anchor="middle" x="511.4048" y="-355.4821" font-family="Helvetica,sans-Serif" font-size="10.00" fill="#000000">autonomous</text>
</a>
</g>
</g>
<!-- Node67&#45;&gt;Node68 -->
<g id="edge2" class="edge">
<title>Node67&#45;&gt;Node68</title>
<path fill="none" stroke="#191970" d="M250.4538,-331.537C263.1782,-334.0989 276.8789,-336.6177 289.6445,-338.4821 354.8616,-348.0073 431.5752,-353.7162 475.5428,-356.467"/>
<polygon fill="#191970" stroke="#191970" points="250.9954,-328.0751 240.4948,-329.4847 249.5826,-334.931 250.9954,-328.0751"/>
</g>
<!-- Node69 -->
<g id="node4" class="node">
<title>Node69</title>
<g id="a_node4"><a xlink:href="lifter_8c.html#ac59fe6ffc80bab7f117ec0a8e482277b" target="_top" xlink:title="secondary_lifter_update">
<polygon fill="none" stroke="#000000" points="297.4204,-311.4821 297.4204,-329.4821 420.1587,-329.4821 420.1587,-311.4821 297.4204,-311.4821"/>
<text text-anchor="middle" x="358.7896" y="-317.4821" font-family="Helvetica,sans-Serif" font-size="10.00" fill="#000000">secondary_lifter_update</text>
</a>
</g>
</g>
<!-- Node67&#45;&gt;Node69 -->
<g id="edge3" class="edge">
<title>Node67&#45;&gt;Node69</title>
<path fill="none" stroke="#191970" d="M255.7584,-320.4821C269.1841,-320.4821 283.6376,-320.4821 297.3492,-320.4821"/>
<polygon fill="#191970" stroke="#191970" points="255.7214,-316.9822 245.7214,-320.4821 255.7213,-323.9822 255.7214,-316.9822"/>
</g>
<!-- Node70 -->
<g id="node5" class="node">
<title>Node70</title>
<g id="a_node5"><a xlink:href="lifter_8c.html#a59bb7413777ca16aba124aaedf95c79b" target="_top" xlink:title="Updates the lifter in teleop. ">
<polygon fill="none" stroke="#000000" points="475.8853,-255.4821 475.8853,-273.4821 546.9243,-273.4821 546.9243,-255.4821 475.8853,-255.4821"/>
<text text-anchor="middle" x="511.4048" y="-261.4821" font-family="Helvetica,sans-Serif" font-size="10.00" fill="#000000">update_lifter</text>
</a>
</g>
</g>
<!-- Node69&#45;&gt;Node70 -->
<g id="edge4" class="edge">
<title>Node69&#45;&gt;Node70</title>
<path fill="none" stroke="#191970" d="M405.5084,-308.6666C413.0652,-306.4634 420.7601,-304.0419 427.9346,-301.4821 450.926,-293.2792 476.4618,-281.5559 493.1608,-273.5162"/>
<polygon fill="#191970" stroke="#191970" points="404.3836,-305.3472 395.7092,-311.4303 406.2838,-312.0843 404.3836,-305.3472"/>
</g>
<!-- Node71 -->
<g id="node6" class="node">
<title>Node71</title>
<g id="a_node6"><a xlink:href="opcontrol_8c.html#ac71a94af413917f27d108e95c4d6f6a7" target="_top" xlink:title="Runs the user operator control code. ">
<polygon fill="none" stroke="#000000" points="594.875,-198.4821 594.875,-216.4821 680.3574,-216.4821 680.3574,-198.4821 594.875,-198.4821"/>
<text text-anchor="middle" x="637.6162" y="-204.4821" font-family="Helvetica,sans-Serif" font-size="10.00" fill="#000000">operatorControl</text>
</a>
</g>
</g>
<!-- Node70&#45;&gt;Node71 -->
<g id="edge5" class="edge">
<title>Node70&#45;&gt;Node71</title>
<path fill="none" stroke="#191970" d="M540.5559,-251.3168C564.0632,-240.7004 596.5219,-226.0413 617.2933,-216.6604"/>
<polygon fill="#191970" stroke="#191970" points="539.0764,-248.1445 531.4034,-255.4503 541.9576,-254.5241 539.0764,-248.1445"/>
</g>
<!-- Node74 -->
<g id="node9" class="node">
<title>Node74</title>
<g id="a_node9"><a xlink:href="claw_8c.html#a0122b78972344264b8a276a559cfce4a" target="_top" xlink:title="Updates the claw motor values. ">
<polygon fill="none" stroke="#000000" points="475.3286,-11.4821 475.3286,-29.4821 547.481,-29.4821 547.481,-11.4821 475.3286,-11.4821"/>
<text text-anchor="middle" x="511.4048" y="-17.4821" font-family="Helvetica,sans-Serif" font-size="10.00" fill="#000000">update_claw</text>
</a>
</g>
</g>
<!-- Node73&#45;&gt;Node74 -->
<g id="edge8" class="edge">
<title>Node73&#45;&gt;Node74</title>
<path fill="none" stroke="#191970" d="M228.7866,-25.188C245.9151,-17.7694 268.547,-9.2777 289.6445,-5.4821 354.2076,6.1332 430.8145,-4.2928 474.9985,-12.6086"/>
<polygon fill="#191970" stroke="#191970" points="227.0916,-22.1119 219.3907,-29.3883 229.9485,-28.5024 227.0916,-22.1119"/>
</g>
<!-- Node75 -->
<g id="node10" class="node">
<title>Node75</title>
<g id="a_node10"><a xlink:href="lifter_8c.html#aa4d172cbde795bc13fe6baabd074717e" target="_top" xlink:title="quit_auto_static">
<polygon fill="none" stroke="#000000" points="315.7651,-48.4821 315.7651,-66.4821 401.814,-66.4821 401.814,-48.4821 315.7651,-48.4821"/>
<text text-anchor="middle" x="358.7896" y="-54.4821" font-family="Helvetica,sans-Serif" font-size="10.00" fill="#000000">quit_auto_static</text>
</a>
</g>
</g>
<!-- Node73&#45;&gt;Node75 -->
<g id="edge10" class="edge">
<title>Node73&#45;&gt;Node75</title>
<path fill="none" stroke="#191970" d="M253.976,-44.8693C274.0555,-47.2856 296.645,-50.0039 315.6973,-52.2966"/>
<polygon fill="#191970" stroke="#191970" points="254.3894,-41.3939 244.0429,-43.674 253.5531,-48.3437 254.3894,-41.3939"/>
</g>
<!-- Node76 -->
<g id="node11" class="node">
<title>Node76</title>
<g id="a_node11"><a xlink:href="lifter_8c.html#a8a64fa88b389b39c236c5c57a7fb5c67" target="_top" xlink:title="Autostacks a cone once picked up. ">
<polygon fill="none" stroke="#000000" points="463.9346,-86.4821 463.9346,-104.4821 558.875,-104.4821 558.875,-86.4821 463.9346,-86.4821"/>
<text text-anchor="middle" x="511.4048" y="-92.4821" font-family="Helvetica,sans-Serif" font-size="10.00" fill="#000000">autostack_routine</text>
</a>
</g>
</g>
<!-- Node73&#45;&gt;Node76 -->
<g id="edge13" class="edge">
<title>Node73&#45;&gt;Node76</title>
<path fill="none" stroke="#191970" d="M254.2225,-29.7639C301.0899,-24.1307 370.5688,-20.7638 427.9346,-38.4821 458.4493,-47.9071 487.7644,-72.7406 502.1625,-86.3099"/>
<polygon fill="#191970" stroke="#191970" points="253.7608,-26.2944 244.2847,-31.0331 254.6476,-33.238 253.7608,-26.2944"/>
</g>
<!-- Node74&#45;&gt;Node71 -->
<g id="edge9" class="edge">
<title>Node74&#45;&gt;Node71</title>
<path fill="none" stroke="#191970" d="M526.7177,-37.0894C536.4052,-47.9386 548.9307,-62.6168 558.875,-76.4821 590.1143,-120.0392 621.0799,-176.4209 632.7535,-198.2689"/>
<polygon fill="#191970" stroke="#191970" points="529.2585,-34.6809 519.9525,-29.6163 524.069,-39.3788 529.2585,-34.6809"/>
</g>
<!-- Node75&#45;&gt;Node76 -->
<g id="edge11" class="edge">
<title>Node75&#45;&gt;Node76</title>
<path fill="none" stroke="#191970" d="M404.6755,-68.9074C427.2687,-74.5329 454.1165,-81.2178 475.2326,-86.4755"/>
<polygon fill="#191970" stroke="#191970" points="405.5066,-65.5075 394.9572,-66.4876 403.8153,-72.3001 405.5066,-65.5075"/>
</g>
<!-- Node76&#45;&gt;Node71 -->
<g id="edge12" class="edge">
<title>Node76&#45;&gt;Node71</title>
<path fill="none" stroke="#191970" d="M529.2369,-111.3063C555.964,-135.024 605.5727,-179.0467 627.1451,-198.1901"/>
<polygon fill="#191970" stroke="#191970" points="531.5359,-108.6671 521.7332,-104.6476 526.8897,-113.9029 531.5359,-108.6671"/>
</g>
<!-- Node77&#45;&gt;Node68 -->
<g id="edge15" class="edge">
<title>Node77&#45;&gt;Node68</title>
<path fill="none" stroke="#191970" d="M247.7107,-423.0243C310.1344,-407.7454 419.2829,-381.03 475.5726,-367.2525"/>
<polygon fill="#191970" stroke="#191970" points="246.6181,-419.6883 237.7369,-425.4655 248.2823,-426.4876 246.6181,-419.6883"/>
</g>
<!-- Node78 -->
<g id="node13" class="node">
<title>Node78</title>
<g id="a_node13"><a xlink:href="mobile__goal__intake_8c.html#aef03134014e51a6a90dd3824f09f4d6c" target="_top" xlink:title="lowers the intake ">
<polygon fill="none" stroke="#000000" points="322.7183,-425.4821 322.7183,-443.4821 394.8608,-443.4821 394.8608,-425.4821 322.7183,-425.4821"/>
<text text-anchor="middle" x="358.7896" y="-431.4821" font-family="Helvetica,sans-Serif" font-size="10.00" fill="#000000">lower_intake</text>
</a>
</g>
</g>
<!-- Node77&#45;&gt;Node78 -->
<g id="edge16" class="edge">
<title>Node77&#45;&gt;Node78</title>
<path fill="none" stroke="#191970" d="M257.5094,-434.4821C279.201,-434.4821 303.3439,-434.4821 322.6156,-434.4821"/>
<polygon fill="#191970" stroke="#191970" points="257.417,-430.9822 247.417,-434.4821 257.417,-437.9822 257.417,-430.9822"/>
</g>
<!-- Node79 -->
<g id="node14" class="node">
<title>Node79</title>
<g id="a_node14"><a xlink:href="mobile__goal__intake_8c.html#a5d7bad8a208988af743fd2e68f111286" target="_top" xlink:title="updates the mobile goal intake in teleop. ">
<polygon fill="none" stroke="#000000" points="471.9888,-443.4821 471.9888,-461.4821 550.8208,-461.4821 550.8208,-443.4821 471.9888,-443.4821"/>
<text text-anchor="middle" x="511.4048" y="-449.4821" font-family="Helvetica,sans-Serif" font-size="10.00" fill="#000000">update_intake</text>
</a>
</g>
</g>
<!-- Node77&#45;&gt;Node79 -->
<g id="edge23" class="edge">
<title>Node77&#45;&gt;Node79</title>
<path fill="none" stroke="#191970" d="M218.7775,-450.0957C235.7112,-463.7679 262.52,-482.6396 289.6445,-490.4821 348.6884,-507.5536 367.8692,-503.5113 427.9346,-490.4821 453.4538,-484.9466 480.5327,-470.9083 496.6999,-461.5331"/>
<polygon fill="#191970" stroke="#191970" points="220.7951,-447.2211 210.873,-443.506 216.3127,-452.5977 220.7951,-447.2211"/>
</g>
<!-- Node80 -->
<g id="node15" class="node">
<title>Node80</title>
<g id="a_node15"><a xlink:href="mobile__goal__intake_8c.html#aa46a9341d1eb7b39a2ef4cc5079ee3ca" target="_top" xlink:title="raises the intake ">
<polygon fill="none" stroke="#000000" points="323.8291,-462.4821 323.8291,-480.4821 393.75,-480.4821 393.75,-462.4821 323.8291,-462.4821"/>
<text text-anchor="middle" x="358.7896" y="-468.4821" font-family="Helvetica,sans-Serif" font-size="10.00" fill="#000000">raise_intake</text>
</a>
</g>
</g>
<!-- Node77&#45;&gt;Node80 -->
<g id="edge20" class="edge">
<title>Node77&#45;&gt;Node80</title>
<path fill="none" stroke="#191970" d="M249.512,-445.8742C273.5254,-451.5014 301.9545,-458.1635 323.7959,-463.2818"/>
<polygon fill="#191970" stroke="#191970" points="250.0578,-442.4073 239.5229,-443.5334 248.4606,-449.2227 250.0578,-442.4073"/>
</g>
<!-- Node78&#45;&gt;Node68 -->
<g id="edge17" class="edge">
<title>Node78&#45;&gt;Node68</title>
<path fill="none" stroke="#191970" d="M399.3732,-422.091C408.9076,-418.7179 418.914,-414.7909 427.9346,-410.4821 454.4331,-397.8249 483.004,-378.7022 498.9007,-367.5157"/>
<polygon fill="#191970" stroke="#191970" points="398.0055,-418.8593 389.6693,-425.3983 400.2638,-425.4851 398.0055,-418.8593"/>
</g>
<!-- Node78&#45;&gt;Node79 -->
<g id="edge18" class="edge">
<title>Node78&#45;&gt;Node79</title>
<path fill="none" stroke="#191970" d="M405.0705,-439.9407C426.3523,-442.4507 451.3414,-445.398 471.7457,-447.8046"/>
<polygon fill="#191970" stroke="#191970" points="405.2984,-436.4434 394.9572,-438.7479 404.4784,-443.3952 405.2984,-436.4434"/>
</g>
<!-- Node79&#45;&gt;Node71 -->
<g id="edge19" class="edge">
<title>Node79&#45;&gt;Node71</title>
<path fill="none" stroke="#191970" d="M523.2131,-434.9494C533.2229,-419.7759 547.6922,-397.0906 558.875,-376.4821 590.9857,-317.3061 622.898,-242.7247 633.7362,-216.8371"/>
<polygon fill="#191970" stroke="#191970" points="520.2549,-433.077 517.6261,-443.3405 526.0816,-436.9565 520.2549,-433.077"/>
</g>
<!-- Node80&#45;&gt;Node68 -->
<g id="edge21" class="edge">
<title>Node80&#45;&gt;Node68</title>
<path fill="none" stroke="#191970" d="M403.6477,-463.9673C412.0915,-461.4202 420.5721,-458.0193 427.9346,-453.4821 464.7555,-430.7908 494.3359,-386.7659 506.0149,-367.6785"/>
<polygon fill="#191970" stroke="#191970" points="402.5853,-460.6281 393.8217,-466.5819 404.3854,-467.3927 402.5853,-460.6281"/>
</g>
<!-- Node80&#45;&gt;Node79 -->
<g id="edge22" class="edge">
<title>Node80&#45;&gt;Node79</title>
<path fill="none" stroke="#191970" d="M403.7452,-465.8853C425.3918,-463.1904 451.1131,-459.9882 471.9855,-457.3897"/>
<polygon fill="#191970" stroke="#191970" points="403.2935,-462.4145 393.8026,-467.1232 404.1584,-469.3608 403.2935,-462.4145"/>
</g>
<!-- Node81&#45;&gt;Node68 -->
<g id="edge29" class="edge">
<title>Node81&#45;&gt;Node68</title>
<path fill="none" stroke="#191970" d="M241.5147,-191.7433C290.2418,-173.4584 372.3082,-152.5155 427.9346,-190.4821 464.2004,-215.2347 444.2197,-243.2492 463.9346,-282.4821 476.6474,-307.7809 495.2772,-335.5208 504.9852,-349.4441"/>
<polygon fill="#191970" stroke="#191970" points="239.9914,-188.5801 231.938,-195.4644 242.5267,-195.1049 239.9914,-188.5801"/>
</g>
<!-- Node81&#45;&gt;Node69 -->
<g id="edge35" class="edge">
<title>Node81&#45;&gt;Node69</title>
<path fill="none" stroke="#191970" d="M216.6402,-231.6557C232.6868,-252.653 259.4555,-283.5586 289.6445,-301.4821 296.6026,-305.6132 304.485,-308.8714 312.3737,-311.4336"/>
<polygon fill="#191970" stroke="#191970" points="219.4194,-229.5277 210.6373,-223.601 213.8066,-233.7107 219.4194,-229.5277"/>
</g>
<!-- Node81&#45;&gt;Node75 -->
<g id="edge30" class="edge">
<title>Node81&#45;&gt;Node75</title>
<path fill="none" stroke="#191970" d="M211.3882,-186.1412C225.3517,-157.5789 252.6532,-109.5637 289.6445,-81.4821 298.2473,-74.9514 308.7602,-70.1116 318.9664,-66.5599"/>
<polygon fill="#191970" stroke="#191970" points="208.1349,-184.8331 207.0114,-195.3682 214.4595,-187.8332 208.1349,-184.8331"/>
</g>
<!-- Node81&#45;&gt;Node76 -->
<g id="edge31" class="edge">
<title>Node81&#45;&gt;Node76</title>
<path fill="none" stroke="#191970" d="M214.7858,-186.81C230.0496,-164.1462 256.8172,-130.4387 289.6445,-114.4821 344.9019,-87.623 417.0649,-86.7985 463.8177,-90.0299"/>
<polygon fill="#191970" stroke="#191970" points="211.6686,-185.1832 209.1462,-195.4734 217.5351,-189.0022 211.6686,-185.1832"/>
</g>
<!-- Node82 -->
<g id="node17" class="node">
<title>Node82</title>
<g id="a_node17"><a xlink:href="auto_8c.html#a64bd65456b81f16eb4ff67237159f984" target="_top" xlink:title="utility function which deploys the secondary lifter at the start of autonomous. ">
<polygon fill="none" stroke="#000000" points="297.9795,-237.4821 297.9795,-255.4821 419.5996,-255.4821 419.5996,-237.4821 297.9795,-237.4821"/>
<text text-anchor="middle" x="358.7896" y="-243.4821" font-family="Helvetica,sans-Serif" font-size="10.00" fill="#000000">deploy_seoncdary_lifter</text>
</a>
</g>
</g>
<!-- Node81&#45;&gt;Node82 -->
<g id="edge25" class="edge">
<title>Node81&#45;&gt;Node82</title>
<path fill="none" stroke="#191970" d="M263.7367,-224.2076C282.7979,-228.6744 303.1676,-233.4478 320.1414,-237.4254"/>
<polygon fill="#191970" stroke="#191970" points="264.4479,-220.7795 253.9131,-221.9055 262.8508,-227.5949 264.4479,-220.7795"/>
</g>
<!-- Node83 -->
<g id="node18" class="node">
<title>Node83</title>
<g id="a_node18"><a xlink:href="auto_8c.html#a55085901854f29969753bfd62c70049c" target="_top" xlink:title="utility function which raises the second lifter to its maximum height ">
<polygon fill="none" stroke="#000000" points="289.6445,-200.4821 289.6445,-218.4821 427.9346,-218.4821 427.9346,-200.4821 289.6445,-200.4821"/>
<text text-anchor="middle" x="358.7896" y="-206.4821" font-family="Helvetica,sans-Serif" font-size="10.00" fill="#000000">auton_raise_sec_lifter_max</text>
</a>
</g>
</g>
<!-- Node81&#45;&gt;Node83 -->
<g id="edge27" class="edge">
<title>Node81&#45;&gt;Node83</title>
<path fill="none" stroke="#191970" d="M263.9557,-209.4821C272.3114,-209.4821 280.9148,-209.4821 289.3702,-209.4821"/>
<polygon fill="#191970" stroke="#191970" points="263.9132,-205.9822 253.9131,-209.4821 263.9131,-212.9822 263.9132,-205.9822"/>
</g>
<!-- Node84 -->
<g id="node19" class="node">
<title>Node84</title>
<g id="a_node19"><a xlink:href="lifter_8c.html#a786f679ea48bb8c80e00fbac9a69911b" target="_top" xlink:title="Raises the main lifter. ">
<polygon fill="none" stroke="#000000" points="301.876,-124.4821 301.876,-142.4821 415.7031,-142.4821 415.7031,-124.4821 301.876,-124.4821"/>
<text text-anchor="middle" x="358.7896" y="-130.4821" font-family="Helvetica,sans-Serif" font-size="10.00" fill="#000000">raise_secondary_lifter</text>
</a>
</g>
</g>
<!-- Node81&#45;&gt;Node84 -->
<g id="edge32" class="edge">
<title>Node81&#45;&gt;Node84</title>
<path fill="none" stroke="#191970" d="M230.9578,-189.8795C247.7834,-179.4206 269.3943,-166.8197 289.6445,-157.4821 302.1069,-151.7356 316.3605,-146.5663 328.6759,-142.5098"/>
<polygon fill="#191970" stroke="#191970" points="228.7358,-187.1427 222.1416,-195.4352 232.4678,-193.0648 228.7358,-187.1427"/>
</g>
<!-- Node85 -->
<g id="node20" class="node">
<title>Node85</title>
<g id="a_node20"><a xlink:href="lifter_8c.html#af76abbd394bf206ab56fa237d776f2b3" target="_top" xlink:title="Lowers the secondary lifter. ">
<polygon fill="none" stroke="#000000" points="300.7651,-274.4821 300.7651,-292.4821 416.814,-292.4821 416.814,-274.4821 300.7651,-274.4821"/>
<text text-anchor="middle" x="358.7896" y="-280.4821" font-family="Helvetica,sans-Serif" font-size="10.00" fill="#000000">lower_secondary_lifter</text>
</a>
</g>
</g>
<!-- Node81&#45;&gt;Node85 -->
<g id="edge34" class="edge">
<title>Node81&#45;&gt;Node85</title>
<path fill="none" stroke="#191970" d="M228.4229,-229.4111C245.3993,-240.9589 267.9994,-255.0361 289.6445,-264.4821 298.6585,-268.4159 308.6939,-271.7311 318.2618,-274.435"/>
<polygon fill="#191970" stroke="#191970" points="230.3062,-226.4581 220.0927,-223.6409 226.3202,-232.2124 230.3062,-226.4581"/>
</g>
<!-- Node82&#45;&gt;Node68 -->
<g id="edge26" class="edge">
<title>Node82&#45;&gt;Node68</title>
<path fill="none" stroke="#191970" d="M417.791,-259.2097C421.319,-260.77 424.7316,-262.5199 427.9346,-264.4821 464.5963,-286.9428 494.2626,-330.4999 505.9896,-349.3839"/>
<polygon fill="#191970" stroke="#191970" points="418.8368,-255.8613 408.2479,-255.5066 416.3045,-262.3872 418.8368,-255.8613"/>
</g>
<!-- Node83&#45;&gt;Node68 -->
<g id="edge28" class="edge">
<title>Node83&#45;&gt;Node68</title>
<path fill="none" stroke="#191970" d="M420.4819,-222.8219C423.0839,-224.2232 425.5838,-225.7715 427.9346,-227.4821 430.851,-229.6044 487.2198,-319.7202 505.6373,-349.2323"/>
<polygon fill="#191970" stroke="#191970" points="421.8575,-219.6021 411.3101,-218.6012 418.9313,-225.9611 421.8575,-219.6021"/>
</g>
<!-- Node84&#45;&gt;Node76 -->
<g id="edge33" class="edge">
<title>Node84&#45;&gt;Node76</title>
<path fill="none" stroke="#191970" d="M404.6755,-122.0569C427.2687,-116.4314 454.1165,-109.7465 475.2326,-104.4887"/>
<polygon fill="#191970" stroke="#191970" points="403.8153,-118.6641 394.9572,-124.4767 405.5066,-125.4567 403.8153,-118.6641"/>
</g>
</g>
</svg>
        <g id="navigator" transform="translate(0 0)" fill="#404254">
                <rect fill="#f2f5e9" fill-opacity="0.5" stroke="#606060" stroke-width=".5" x="0" y="0" width="60" height="60"/>
                <use id="zoomplus" xlink:href="#zoomPlus" x="17" y="9" onmousedown="handleZoom(evt,'in')"/>
                <use id="zoomminus" xlink:href="#zoomMin" x="42" y="9" onmousedown="handleZoom(evt,'out')"/>
                <use id="reset" xlink:href="#resetDef" x="30" y="36" onmousedown="handleReset()"/>
                <g id="arrowUp" xlink:href="#dirArrow" transform="translate(30 24)" onmousedown="handlePan(0,-1)">
                  <use xlink:href="#rim" fill="#404040">
                        <set attributeName="fill" to="#808080" begin="arrowUp.mouseover" end="arrowUp.mouseout"/>
                  </use>
                  <path fill="none" stroke="white" stroke-width="1.5" d="M0,-3.0v7 M-2.5,-0.5L0,-3.0L2.5,-0.5"/>
                </g>
                <g id="arrowRight" xlink:href="#dirArrow" transform="rotate(90) translate(36 -43)" onmousedown="handlePan(1,0)">
                  <use xlink:href="#rim" fill="#404040">
                        <set attributeName="fill" to="#808080" begin="arrowRight.mouseover" end="arrowRight.mouseout"/>
                  </use>
                  <path fill="none" stroke="white" stroke-width="1.5" d="M0,-3.0v7 M-2.5,-0.5L0,-3.0L2.5,-0.5"/>
                </g>
                <g id="arrowDown" xlink:href="#dirArrow" transform="rotate(180) translate(-30 -48)" onmousedown="handlePan(0,1)">
                  <use xlink:href="#rim" fill="#404040">
                        <set attributeName="fill" to="#808080" begin="arrowDown.mouseover" end="arrowDown.mouseout"/>
                  </use>
                  <path fill="none" stroke="white" stroke-width="1.5" d="M0,-3.0v7 M-2.5,-0.5L0,-3.0L2.5,-0.5"/>
                </g>
                <g id="arrowLeft" xlink:href="#dirArrow" transform="rotate(270) translate(-36 17)" onmousedown="handlePan(-1,0)">
                  <use xlink:href="#rim" fill="#404040">
                        <set attributeName="fill" to="#808080" begin="arrowLeft.mouseover" end="arrowLeft.mouseout"/>
                  </use>
                  <path fill="none" stroke="white" stroke-width="1.5" d="M0,-3.0v7 M-2.5,-0.5L0,-3.0L2.5,-0.5"/>
                </g>
        </g>
        <svg viewBox="0 0 15 15" width="100%" height="30px" preserveAspectRatio="xMaxYMin meet">
         <g id="arrow_out" transform="scale(0.3 0.3)">
          <a xlink:href="slew_8h_a9f8b8ae577ef938622024545711f0151_icgraph_org.svg" target="_base">
           <rect id="button" ry="5" rx="5" y="6" x="6" height="38" width="38"
                fill="#f2f5e9" fill-opacity="0.5" stroke="#606060" stroke-width="1.0"/>
           <path id="arrow"
             d="M 11.500037,31.436501 C 11.940474,20.09759 22.043105,11.32322 32.158766,21.979434 L 37.068811,17.246167 C 37.068811,17.246167 37.088388,32 37.088388,32 L 22.160133,31.978069 C 22.160133,31.978069 26.997745,27.140456 26.997745,27.140456 C 18.528582,18.264221 13.291696,25.230495 11.500037,31.436501 z"
             style="fill:#404040;"/>
          </a>
         </g>
        </svg>
</svg>
