<?xml version="1.0" encoding="UTF-8" standalone="no"?>
<!DOCTYPE svg PUBLIC "-//W3C//DTD SVG 1.1//EN"
 "http://www.w3.org/Graphics/SVG/1.1/DTD/svg11.dtd">
<!-- Generated by graphviz version 2.40.1 (20161225.0304)
 -->
<!-- Title: set_motor_slew Pages: 1 -->
<svg width="518pt" height="304pt"
 viewBox="0.00 0.00 518.25 303.58" xmlns="http://www.w3.org/2000/svg" xmlns:xlink="http://www.w3.org/1999/xlink">
<g id="graph0" class="graph" transform="scale(1 1) rotate(0) translate(4 299.5777)">
<title>set_motor_slew</title>
<!-- Node68 -->
<g id="node1" class="node">
<title>Node68</title>
<polygon fill="#bfbfbf" stroke="#000000" points="0,-112.5 0,-130.5 86.0293,-130.5 86.0293,-112.5 0,-112.5"/>
<text text-anchor="middle" x="43.0146" y="-118.5" font-family="Helvetica,sans-Serif" font-size="10.00" fill="#000000">set_motor_slew</text>
</g>
<!-- Node69 -->
<g id="node2" class="node">
<title>Node69</title>
<g id="a_node2"><a xlink:href="log_8h.html#af3668f40d1ad1b4f3418869ac9a31f34" target="_top" xlink:title="prints a info message ">
<polygon fill="none" stroke="#000000" points="127.3003,-243.5 127.3003,-261.5 171.1079,-261.5 171.1079,-243.5 127.3003,-243.5"/>
<text text-anchor="middle" x="149.2041" y="-249.5" font-family="Helvetica,sans-Serif" font-size="10.00" fill="#000000">debug</text>
</a>
</g>
</g>
<!-- Node68&#45;&gt;Node69 -->
<g id="edge1" class="edge">
<title>Node68&#45;&gt;Node69</title>
<path fill="none" stroke="#191970" d="M50.3135,-130.5042C67.8182,-152.0987 112.4243,-207.1268 135.2651,-235.3042"/>
<polygon fill="#191970" stroke="#191970" points="132.8382,-237.8685 141.8542,-243.4328 138.276,-233.4605 132.8382,-237.8685"/>
</g>
<!-- Node71 -->
<g id="node4" class="node">
<title>Node71</title>
<g id="a_node4"><a xlink:href="slew_8c.html#a321758941d88b75783955c819bb75005" target="_top" xlink:title="Initializes the slew rate controller. ">
<polygon fill="none" stroke="#000000" points="122.0293,-150.5 122.0293,-168.5 176.3789,-168.5 176.3789,-150.5 122.0293,-150.5"/>
<text text-anchor="middle" x="149.2041" y="-156.5" font-family="Helvetica,sans-Serif" font-size="10.00" fill="#000000">init_slew</text>
</a>
</g>
</g>
<!-- Node68&#45;&gt;Node71 -->
<g id="edge3" class="edge">
<title>Node68&#45;&gt;Node71</title>
<path fill="none" stroke="#191970" d="M68.1801,-130.5055C81.9652,-135.4385 99.2619,-141.6281 114.3303,-147.0204"/>
<polygon fill="#191970" stroke="#191970" points="113.2567,-150.3535 123.8513,-150.4275 115.6153,-143.7628 113.2567,-150.3535"/>
</g>
<!-- Node81 -->
<g id="node14" class="node">
<title>Node81</title>
<g id="a_node14"><a xlink:href="_a_p_i_8h.html#a8b51124628d2a7741738d48551d1e8ee" target="_top" xlink:title="mutexTake">
<polygon fill="none" stroke="#000000" points="325.5264,-75.5 325.5264,-93.5 389.8809,-93.5 389.8809,-75.5 325.5264,-75.5"/>
<text text-anchor="middle" x="357.7036" y="-81.5" font-family="Helvetica,sans-Serif" font-size="10.00" fill="#000000">mutexTake</text>
</a>
</g>
</g>
<!-- Node68&#45;&gt;Node81 -->
<g id="edge19" class="edge">
<title>Node68&#45;&gt;Node81</title>
<path fill="none" stroke="#191970" d="M86.111,-116.4329C146.2948,-109.3567 254.8625,-96.5917 314.8929,-89.5335"/>
<polygon fill="#191970" stroke="#191970" points="315.6371,-92.9702 325.1599,-88.3264 314.8196,-86.0181 315.6371,-92.9702"/>
</g>
<!-- Node82 -->
<g id="node15" class="node">
<title>Node82</title>
<g id="a_node15"><a xlink:href="_a_p_i_8h.html#afe171a08d22de18fc2ab604b2364959f" target="_top" xlink:title="mutexGive">
<polygon fill="none" stroke="#000000" points="325.8071,-.5 325.8071,-18.5 389.6001,-18.5 389.6001,-.5 325.8071,-.5"/>
<text text-anchor="middle" x="357.7036" y="-6.5" font-family="Helvetica,sans-Serif" font-size="10.00" fill="#000000">mutexGive</text>
</a>
</g>
</g>
<!-- Node68&#45;&gt;Node82 -->
<g id="edge18" class="edge">
<title>Node68&#45;&gt;Node82</title>
<path fill="none" stroke="#191970" d="M55.4069,-112.3875C82.3772,-93.0777 149.0694,-48.1265 212.3789,-27.5 245.9632,-16.5581 285.8988,-12.1912 315.3995,-10.4854"/>
<polygon fill="#191970" stroke="#191970" points="315.9511,-13.9623 325.7649,-9.97 315.6035,-6.971 315.9511,-13.9623"/>
</g>
<!-- Node70 -->
<g id="node3" class="node">
<title>Node70</title>
<g id="a_node3"><a xlink:href="_a_p_i_8h.html#a403c82418e475fa4a8273719e6a7f3e6" target="_top" xlink:title="printf">
<polygon fill="none" stroke="#000000" points="448.9497,-262.5 448.9497,-280.5 487.1812,-280.5 487.1812,-262.5 448.9497,-262.5"/>
<text text-anchor="middle" x="468.0654" y="-268.5" font-family="Helvetica,sans-Serif" font-size="10.00" fill="#000000">printf</text>
</a>
</g>
</g>
<!-- Node69&#45;&gt;Node70 -->
<g id="edge2" class="edge">
<title>Node69&#45;&gt;Node70</title>
<path fill="none" stroke="#191970" d="M169.2925,-261.5508C181.5151,-266.6972 197.5749,-272.8288 212.3789,-276.5 289.1872,-295.5474 311.3076,-299.9103 389.8809,-290.5 406.2871,-288.5351 424.2247,-284.3294 438.7755,-280.3733"/>
<polygon fill="#191970" stroke="#191970" points="440.0283,-283.6565 448.702,-277.5723 438.1273,-276.9196 440.0283,-283.6565"/>
</g>
<!-- Node72 -->
<g id="node5" class="node">
<title>Node72</title>
<g id="a_node5"><a xlink:href="log_8h.html#a0bec2cf5fff7f607bc510b74aba9887c" target="_top" xlink:title="prints a warning message and displays on lcd. Only will print and display if log_level is greater tha...">
<polygon fill="none" stroke="#000000" points="225.4429,-224.5 225.4429,-242.5 276.4624,-242.5 276.4624,-224.5 225.4429,-224.5"/>
<text text-anchor="middle" x="250.9526" y="-230.5" font-family="Helvetica,sans-Serif" font-size="10.00" fill="#000000">warning</text>
</a>
</g>
</g>
<!-- Node71&#45;&gt;Node72 -->
<g id="edge4" class="edge">
<title>Node71&#45;&gt;Node72</title>
<path fill="none" stroke="#191970" d="M157.935,-168.7481C169.5364,-180.6633 191.0601,-201.5041 212.3789,-215.5 214.6743,-217.007 217.116,-218.4557 219.6132,-219.8313"/>
<polygon fill="#191970" stroke="#191970" points="218.2365,-223.0576 228.7373,-224.4665 221.407,-216.8168 218.2365,-223.0576"/>
</g>
<!-- Node76 -->
<g id="node9" class="node">
<title>Node76</title>
<g id="a_node9"><a xlink:href="_a_p_i_8h.html#a8966c541f3e9565aea1289f0d2f2cf43" target="_top" xlink:title="motorStopAll">
<polygon fill="none" stroke="#000000" points="214.3296,-187.5 214.3296,-205.5 287.5757,-205.5 287.5757,-187.5 214.3296,-187.5"/>
<text text-anchor="middle" x="250.9526" y="-193.5" font-family="Helvetica,sans-Serif" font-size="10.00" fill="#000000">motorStopAll</text>
</a>
</g>
</g>
<!-- Node71&#45;&gt;Node76 -->
<g id="edge9" class="edge">
<title>Node71&#45;&gt;Node76</title>
<path fill="none" stroke="#191970" d="M174.0946,-168.5512C186.7823,-173.165 202.4174,-178.8506 216.266,-183.8865"/>
<polygon fill="#191970" stroke="#191970" points="215.3724,-187.2857 225.9665,-187.414 217.7647,-180.7072 215.3724,-187.2857"/>
</g>
<!-- Node77 -->
<g id="node10" class="node">
<title>Node77</title>
<g id="a_node10"><a xlink:href="log_8h.html#a1606d750e1bb8de9f9e917172bba3382" target="_top" xlink:title="prints a info message ">
<polygon fill="none" stroke="#000000" points="341.6421,-262.5 341.6421,-280.5 373.7651,-280.5 373.7651,-262.5 341.6421,-262.5"/>
<text text-anchor="middle" x="357.7036" y="-268.5" font-family="Helvetica,sans-Serif" font-size="10.00" fill="#000000">info</text>
</a>
</g>
</g>
<!-- Node71&#45;&gt;Node77 -->
<g id="edge10" class="edge">
<title>Node71&#45;&gt;Node77</title>
<path fill="none" stroke="#191970" d="M152.3958,-168.537C159.6768,-187.683 179.4728,-232.2321 212.3789,-252.5 249.007,-275.0604 300.6387,-276.1091 331.4816,-274.2198"/>
<polygon fill="#191970" stroke="#191970" points="331.7601,-277.7088 341.4654,-273.4594 331.2284,-270.729 331.7601,-277.7088"/>
</g>
<!-- Node78 -->
<g id="node11" class="node">
<title>Node78</title>
<g id="a_node11"><a xlink:href="_a_p_i_8h.html#aecd027ce8f8b52a765735e9eb5b202b3" target="_top" xlink:title="mutexCreate">
<polygon fill="none" stroke="#000000" points="214.3296,-150.5 214.3296,-168.5 287.5757,-168.5 287.5757,-150.5 214.3296,-150.5"/>
<text text-anchor="middle" x="250.9526" y="-156.5" font-family="Helvetica,sans-Serif" font-size="10.00" fill="#000000">mutexCreate</text>
</a>
</g>
</g>
<!-- Node71&#45;&gt;Node78 -->
<g id="edge12" class="edge">
<title>Node71&#45;&gt;Node78</title>
<path fill="none" stroke="#191970" d="M176.4708,-159.5C184.9438,-159.5 194.5393,-159.5 203.9565,-159.5"/>
<polygon fill="#191970" stroke="#191970" points="204.0438,-163.0001 214.0437,-159.5 204.0437,-156.0001 204.0438,-163.0001"/>
</g>
<!-- Node79 -->
<g id="node12" class="node">
<title>Node79</title>
<g id="a_node12"><a xlink:href="_a_p_i_8h.html#ab05a241d6d1fd98b1ceb4665db678156" target="_top" xlink:title="taskRunLoop">
<polygon fill="none" stroke="#000000" points="213.4873,-113.5 213.4873,-131.5 288.418,-131.5 288.418,-113.5 213.4873,-113.5"/>
<text text-anchor="middle" x="250.9526" y="-119.5" font-family="Helvetica,sans-Serif" font-size="10.00" fill="#000000">taskRunLoop</text>
</a>
</g>
</g>
<!-- Node71&#45;&gt;Node79 -->
<g id="edge13" class="edge">
<title>Node71&#45;&gt;Node79</title>
<path fill="none" stroke="#191970" d="M174.0946,-150.4488C186.7823,-145.835 202.4174,-140.1494 216.266,-135.1135"/>
<polygon fill="#191970" stroke="#191970" points="217.7647,-138.2928 225.9665,-131.586 215.3724,-131.7143 217.7647,-138.2928"/>
</g>
<!-- Node80 -->
<g id="node13" class="node">
<title>Node80</title>
<g id="a_node13"><a xlink:href="slew_8c.html#a807a87c5df438fde21c1e8213906695b" target="_top" xlink:title="Closes the distance between the desired motor value and the current motor value by half for each moto...">
<polygon fill="none" stroke="#000000" points="212.3789,-37.5 212.3789,-55.5 289.5264,-55.5 289.5264,-37.5 212.3789,-37.5"/>
<text text-anchor="middle" x="250.9526" y="-43.5" font-family="Helvetica,sans-Serif" font-size="10.00" fill="#000000">updateMotors</text>
</a>
</g>
</g>
<!-- Node71&#45;&gt;Node80 -->
<g id="edge14" class="edge">
<title>Node71&#45;&gt;Node80</title>
<path fill="none" stroke="#191970" d="M157.5306,-150.2527C174.6829,-131.2037 214.1656,-87.355 235.9097,-63.2064"/>
<polygon fill="#191970" stroke="#191970" points="238.705,-65.3326 242.7954,-55.5592 233.503,-60.6486 238.705,-65.3326"/>
</g>
<!-- Node73 -->
<g id="node6" class="node">
<title>Node73</title>
<g id="a_node6"><a xlink:href="log_8c.html#afff22aff6749311a684a559cac3ac8bd" target="_top" xlink:title="log_info">
<polygon fill="none" stroke="#000000" points="332.189,-225.5 332.189,-243.5 383.2183,-243.5 383.2183,-225.5 332.189,-225.5"/>
<text text-anchor="middle" x="357.7036" y="-231.5" font-family="Helvetica,sans-Serif" font-size="10.00" fill="#000000">log_info</text>
</a>
</g>
</g>
<!-- Node72&#45;&gt;Node73 -->
<g id="edge5" class="edge">
<title>Node72&#45;&gt;Node73</title>
<path fill="none" stroke="#191970" d="M276.5222,-233.7395C290.0229,-233.866 306.8165,-234.0233 321.6204,-234.162"/>
<polygon fill="#191970" stroke="#191970" points="321.9404,-237.665 331.9728,-234.259 322.006,-230.6653 321.9404,-237.665"/>
</g>
<!-- Node73&#45;&gt;Node70 -->
<g id="edge6" class="edge">
<title>Node73&#45;&gt;Node70</title>
<path fill="none" stroke="#191970" d="M383.3002,-243.0815C400.0141,-248.6851 421.8692,-256.0122 439.2012,-261.823"/>
<polygon fill="#191970" stroke="#191970" points="438.2164,-265.1842 448.8103,-265.0445 440.4416,-258.5473 438.2164,-265.1842"/>
</g>
<!-- Node74 -->
<g id="node7" class="node">
<title>Node74</title>
<g id="a_node7"><a xlink:href="_a_p_i_8h.html#aab53a247d88151a6623c20fa1ea940b0" target="_top" xlink:title="lcdSetBacklight">
<polygon fill="none" stroke="#000000" points="425.8809,-225.5 425.8809,-243.5 510.25,-243.5 510.25,-225.5 425.8809,-225.5"/>
<text text-anchor="middle" x="468.0654" y="-231.5" font-family="Helvetica,sans-Serif" font-size="10.00" fill="#000000">lcdSetBacklight</text>
</a>
</g>
</g>
<!-- Node73&#45;&gt;Node74 -->
<g id="edge7" class="edge">
<title>Node73&#45;&gt;Node74</title>
<path fill="none" stroke="#191970" d="M383.3002,-234.5C392.9531,-234.5 404.3207,-234.5 415.5416,-234.5"/>
<polygon fill="#191970" stroke="#191970" points="415.7518,-238.0001 425.7517,-234.5 415.7517,-231.0001 415.7518,-238.0001"/>
</g>
<!-- Node75 -->
<g id="node8" class="node">
<title>Node75</title>
<g id="a_node8"><a xlink:href="_a_p_i_8h.html#a5fa1d119fe3e836b5519f97eae7a1272" target="_top" xlink:title="lcdClear">
<polygon fill="none" stroke="#000000" points="441.7256,-188.5 441.7256,-206.5 494.4053,-206.5 494.4053,-188.5 441.7256,-188.5"/>
<text text-anchor="middle" x="468.0654" y="-194.5" font-family="Helvetica,sans-Serif" font-size="10.00" fill="#000000">lcdClear</text>
</a>
</g>
</g>
<!-- Node73&#45;&gt;Node75 -->
<g id="edge8" class="edge">
<title>Node73&#45;&gt;Node75</title>
<path fill="none" stroke="#191970" d="M383.3002,-225.9185C397.7487,-221.0745 416.039,-214.9424 431.9282,-209.6154"/>
<polygon fill="#191970" stroke="#191970" points="433.0867,-212.9185 441.4554,-206.4213 430.8615,-206.2816 433.0867,-212.9185"/>
</g>
<!-- Node77&#45;&gt;Node70 -->
<g id="edge11" class="edge">
<title>Node77&#45;&gt;Node70</title>
<path fill="none" stroke="#191970" d="M373.9879,-271.5C390.9394,-271.5 417.8552,-271.5 438.5624,-271.5"/>
<polygon fill="#191970" stroke="#191970" points="438.7393,-275.0001 448.7393,-271.5 438.7392,-268.0001 438.7393,-275.0001"/>
</g>
<!-- Node80&#45;&gt;Node81 -->
<g id="edge15" class="edge">
<title>Node80&#45;&gt;Node81</title>
<path fill="none" stroke="#191970" d="M276.2511,-55.5055C290.1092,-60.4385 307.4973,-66.6281 322.6454,-72.0204"/>
<polygon fill="#191970" stroke="#191970" points="321.6221,-75.3712 332.2168,-75.4275 323.9696,-68.7765 321.6221,-75.3712"/>
</g>
<!-- Node80&#45;&gt;Node82 -->
<g id="edge16" class="edge">
<title>Node80&#45;&gt;Node82</title>
<path fill="none" stroke="#191970" d="M277.0669,-37.4488C290.5076,-32.7902 307.1009,-27.0389 321.7342,-21.967"/>
<polygon fill="#191970" stroke="#191970" points="323.1867,-25.168 331.489,-18.586 320.8942,-18.554 323.1867,-25.168"/>
</g>
<!-- Node83 -->
<g id="node16" class="node">
<title>Node83</title>
<g id="a_node16"><a xlink:href="_a_p_i_8h.html#a03c5b04b472d024281f62d7af8854a8e" target="_top" xlink:title="motorSet">
<polygon fill="none" stroke="#000000" points="329.418,-37.5 329.418,-55.5 385.9893,-55.5 385.9893,-37.5 329.418,-37.5"/>
<text text-anchor="middle" x="357.7036" y="-43.5" font-family="Helvetica,sans-Serif" font-size="10.00" fill="#000000">motorSet</text>
</a>
</g>
</g>
<!-- Node80&#45;&gt;Node83 -->
<g id="edge17" class="edge">
<title>Node80&#45;&gt;Node83</title>
<path fill="none" stroke="#191970" d="M289.7942,-46.5C299.3381,-46.5 309.5532,-46.5 319.0865,-46.5"/>
<polygon fill="#191970" stroke="#191970" points="319.0996,-50.0001 329.0996,-46.5 319.0996,-43.0001 319.0996,-50.0001"/>
</g>
</g>
</svg>
