<?xml version="1.0" encoding="UTF-8" standalone="no"?>
<!DOCTYPE svg PUBLIC "-//W3C//DTD SVG 1.1//EN"
 "http://www.w3.org/Graphics/SVG/1.1/DTD/svg11.dtd">
<!-- Generated by graphviz version 2.40.1 (20161225.0304)
 -->
<!-- Title: init_slew Pages: 1 -->
<!--zoomable 536 -->
<svg id="main" version="1.1" xmlns="http://www.w3.org/2000/svg" xmlns:xlink="http://www.w3.org/1999/xlink" xml:space="preserve" onload="init(evt)">
<style type="text/css"><![CDATA[
.edge:hover path { stroke: red; }
.edge:hover polygon { stroke: red; fill: red; }
]]></style>
<script type="text/javascript"><![CDATA[
var edges = document.getElementsByTagName('g');
if (edges && edges.length) {
  for (var i=0;i<edges.length;i++) {
    if (edges[i].id.substr(0,4)=='edge') {
      edges[i].setAttribute('class','edge');
    }
  }
}
]]></script>
        <defs>
                <circle id="rim" cx="0" cy="0" r="7"/>
                <circle id="rim2" cx="0" cy="0" r="3.5"/>
                <g id="zoomPlus">
                        <use xlink:href="#rim" fill="#404040">
                                <set attributeName="fill" to="#808080" begin="zoomplus.mouseover" end="zoomplus.mouseout"/>
                        </use>
                        <path d="M-4,0h8M0,-4v8" fill="none" stroke="white" stroke-width="1.5" pointer-events="none"/>
                </g>
                <g id="zoomMin">
                        <use xlink:href="#rim" fill="#404040">
                                <set attributeName="fill" to="#808080" begin="zoomminus.mouseover" end="zoomminus.mouseout"/>
                        </use>
                        <path d="M-4,0h8" fill="none" stroke="white" stroke-width="1.5" pointer-events="none"/>
                </g>
                <g id="dirArrow">
                        <path fill="none" stroke="white" stroke-width="1.5" d="M0,-3.0v7 M-2.5,-0.5L0,-3.0L2.5,-0.5"/>
                </g>
               <g id="resetDef">
                       <use xlink:href="#rim2" fill="#404040">
                               <set attributeName="fill" to="#808080" begin="reset.mouseover" end="reset.mouseout"/>
                       </use>
               </g>
        </defs>

<script type="text/javascript">
var viewWidth = 790;
var viewHeight = 536;
var sectionId = 'dynsection-3';
</script>
<script xlink:href="svgpan.js"/>
<svg id="graph" class="graph">
<g id="viewport">
<title>init_slew</title>
<!-- Node18 -->
<g id="node1" class="node">
<title>Node18</title>
<polygon fill="#bfbfbf" stroke="#000000" points="0,-121.5921 0,-139.5921 54.3496,-139.5921 54.3496,-121.5921 0,-121.5921"/>
<text text-anchor="middle" x="27.1748" y="-127.5921" font-family="Helvetica,sans-Serif" font-size="10.00" fill="#000000">init_slew</text>
</g>
<!-- Node19 -->
<g id="node2" class="node">
<title>Node19</title>
<g id="a_node2"><a xlink:href="opcontrol_8c.html#ac71a94af413917f27d108e95c4d6f6a7" target="_top" xlink:title="Runs the user operator control code. ">
<polygon fill="none" stroke="#000000" points="696.8848,-480.5921 696.8848,-498.5921 782.3672,-498.5921 782.3672,-480.5921 696.8848,-480.5921"/>
<text text-anchor="middle" x="739.626" y="-486.5921" font-family="Helvetica,sans-Serif" font-size="10.00" fill="#000000">operatorControl</text>
</a>
</g>
</g>
<!-- Node18&#45;&gt;Node19 -->
<g id="edge1" class="edge">
<title>Node18&#45;&gt;Node19</title>
<path fill="none" stroke="#191970" d="M30.3865,-149.6566C44.9131,-228.8323 111.9902,-527.5921 297.0781,-527.5921 297.0781,-527.5921 297.0781,-527.5921 460.7993,-527.5921 550.1262,-527.5921 572.7817,-523.328 660.8848,-508.5921 676.1418,-506.0403 692.8254,-502.1734 706.8927,-498.5928"/>
<polygon fill="#191970" stroke="#191970" points="33.8017,-148.8693 28.6168,-139.6299 26.9083,-150.0861 33.8017,-148.8693"/>
</g>
<!-- Node20 -->
<g id="node3" class="node">
<title>Node20</title>
<g id="a_node3"><a xlink:href="slew_8c.html#a9f8b8ae577ef938622024545711f0151" target="_top" xlink:title="Sets the motor speed ignoring the slew controller. ">
<polygon fill="none" stroke="#000000" points="90.3496,-140.5921 90.3496,-158.5921 202.502,-158.5921 202.502,-140.5921 90.3496,-140.5921"/>
<text text-anchor="middle" x="146.4258" y="-146.5921" font-family="Helvetica,sans-Serif" font-size="10.00" fill="#000000">set_motor_immediate</text>
</a>
</g>
</g>
<!-- Node18&#45;&gt;Node20 -->
<g id="edge2" class="edge">
<title>Node18&#45;&gt;Node20</title>
<path fill="none" stroke="#191970" d="M64.4229,-136.5268C72.5481,-137.8213 81.3218,-139.2192 90.0046,-140.6027"/>
<polygon fill="#191970" stroke="#191970" points="64.9596,-133.0682 54.5334,-134.9511 63.8581,-139.981 64.9596,-133.0682"/>
</g>
<!-- Node39 -->
<g id="node17" class="node">
<title>Node39</title>
<g id="a_node17"><a xlink:href="slew_8c.html#a7dff2b79dffe55fb936d977594d7c01d" target="_top" xlink:title="Sets motor speed wrapped inside the slew rate controller. ">
<polygon fill="none" stroke="#000000" points="103.4111,-103.5921 103.4111,-121.5921 189.4404,-121.5921 189.4404,-103.5921 103.4111,-103.5921"/>
<text text-anchor="middle" x="146.4258" y="-109.5921" font-family="Helvetica,sans-Serif" font-size="10.00" fill="#000000">set_motor_slew</text>
</a>
</g>
</g>
<!-- Node18&#45;&gt;Node39 -->
<g id="edge27" class="edge">
<title>Node18&#45;&gt;Node39</title>
<path fill="none" stroke="#191970" d="M64.4721,-124.9624C76.787,-123.1035 90.5872,-121.0205 103.301,-119.1015"/>
<polygon fill="#191970" stroke="#191970" points="63.899,-121.5092 54.5334,-126.4626 64.9438,-128.4308 63.899,-121.5092"/>
</g>
<!-- Node49 -->
<g id="node20" class="node">
<title>Node49</title>
<g id="a_node20"><a xlink:href="auto_8c.html#ae66ea80c777135c9f4d288a05f40ca86" target="_top" xlink:title="Starts the auntonomous program. ">
<polygon fill="none" stroke="#000000" points="113.4087,-27.5921 113.4087,-45.5921 179.4429,-45.5921 179.4429,-27.5921 113.4087,-27.5921"/>
<text text-anchor="middle" x="146.4258" y="-33.5921" font-family="Helvetica,sans-Serif" font-size="10.00" fill="#000000">start_auton</text>
</a>
</g>
</g>
<!-- Node18&#45;&gt;Node49 -->
<g id="edge33" class="edge">
<title>Node18&#45;&gt;Node49</title>
<path fill="none" stroke="#191970" d="M46.6691,-115.2257C71.7205,-95.4788 114.4108,-61.828 134.8509,-45.7161"/>
<polygon fill="#191970" stroke="#191970" points="44.2959,-112.6397 38.6091,-121.579 48.6293,-118.1372 44.2959,-112.6397"/>
</g>
<!-- Node21 -->
<g id="node4" class="node">
<title>Node21</title>
<g id="a_node4"><a xlink:href="claw_8c.html#a3a57f998b1884d39b0cc786689f7086f" target="_top" xlink:title="sets the claw motor speed ">
<polygon fill="none" stroke="#000000" points="254.0635,-423.5921 254.0635,-441.5921 340.0928,-441.5921 340.0928,-423.5921 254.0635,-423.5921"/>
<text text-anchor="middle" x="297.0781" y="-429.5921" font-family="Helvetica,sans-Serif" font-size="10.00" fill="#000000">set_claw_motor</text>
</a>
</g>
</g>
<!-- Node20&#45;&gt;Node21 -->
<g id="edge3" class="edge">
<title>Node20&#45;&gt;Node21</title>
<path fill="none" stroke="#191970" d="M149.3697,-168.5001C157.0314,-212.4684 181.1251,-323.2612 238.502,-394.5921 248.6829,-407.249 264.2547,-417.0672 276.7845,-423.5507"/>
<polygon fill="#191970" stroke="#191970" points="152.8182,-167.9008 147.7313,-158.6071 145.9123,-169.0446 152.8182,-167.9008"/>
</g>
<!-- Node25 -->
<g id="node8" class="node">
<title>Node25</title>
<g id="a_node8"><a xlink:href="claw_8c.html#a3a6168bf4e2042115dd32542f1f6a2f5" target="_top" xlink:title="Drives the motors to grab a cone. ">
<polygon fill="none" stroke="#000000" points="252.6646,-140.5921 252.6646,-158.5921 341.4917,-158.5921 341.4917,-140.5921 252.6646,-140.5921"/>
<text text-anchor="middle" x="297.0781" y="-146.5921" font-family="Helvetica,sans-Serif" font-size="10.00" fill="#000000">claw_grab_cone</text>
</a>
</g>
</g>
<!-- Node20&#45;&gt;Node25 -->
<g id="edge10" class="edge">
<title>Node20&#45;&gt;Node25</title>
<path fill="none" stroke="#191970" d="M212.6477,-149.5921C226.0239,-149.5921 239.7888,-149.5921 252.2217,-149.5921"/>
<polygon fill="#191970" stroke="#191970" points="212.5232,-146.0922 202.5232,-149.5921 212.5231,-153.0922 212.5232,-146.0922"/>
</g>
<!-- Node29 -->
<g id="node11" class="node">
<title>Node29</title>
<g id="a_node11"><a xlink:href="claw_8c.html#aecaa4eedc34d6b164ee17ed104914227" target="_top" xlink:title="Drives the motors to release a cone. ">
<polygon fill="none" stroke="#000000" points="246.2729,-64.5921 246.2729,-82.5921 347.8833,-82.5921 347.8833,-64.5921 246.2729,-64.5921"/>
<text text-anchor="middle" x="297.0781" y="-70.5921" font-family="Helvetica,sans-Serif" font-size="10.00" fill="#000000">claw_release_cone</text>
</a>
</g>
</g>
<!-- Node20&#45;&gt;Node29 -->
<g id="edge13" class="edge">
<title>Node20&#45;&gt;Node29</title>
<path fill="none" stroke="#191970" d="M190.112,-136.8138C194.4106,-134.9623 198.6151,-132.8921 202.502,-130.5921 221.1817,-119.5387 220.1748,-109.2208 238.502,-97.5921 247.9672,-91.5864 259.1889,-86.5564 269.2648,-82.6781"/>
<polygon fill="#191970" stroke="#191970" points="188.6744,-133.6178 180.638,-140.522 191.2259,-140.1363 188.6744,-133.6178"/>
</g>
<!-- Node30 -->
<g id="node12" class="node">
<title>Node30</title>
<g id="a_node12"><a xlink:href="lifter_8c.html#a78640d547d9361951a92d0bc00939536" target="_top" xlink:title="Sets the secondary lifter motors to the given value. ">
<polygon fill="none" stroke="#ff0000" points="244.332,-228.5921 244.332,-256.5921 349.8242,-256.5921 349.8242,-228.5921 244.332,-228.5921"/>
<text text-anchor="start" x="252.332" y="-244.5921" font-family="Helvetica,sans-Serif" font-size="10.00" fill="#000000">set_secondary_lifter</text>
<text text-anchor="middle" x="297.0781" y="-234.5921" font-family="Helvetica,sans-Serif" font-size="10.00" fill="#000000">_motors</text>
</a>
</g>
</g>
<!-- Node20&#45;&gt;Node30 -->
<g id="edge14" class="edge">
<title>Node20&#45;&gt;Node30</title>
<path fill="none" stroke="#191970" d="M170.0199,-164.1571C198.5122,-181.7459 246.1067,-211.1267 274.251,-228.5006"/>
<polygon fill="#191970" stroke="#191970" points="171.493,-160.9534 161.1453,-158.6787 167.816,-166.9098 171.493,-160.9534"/>
</g>
<!-- Node35 -->
<g id="node16" class="node">
<title>Node35</title>
<g id="a_node16"><a xlink:href="mobile__goal__intake_8c.html#ab31e12bb0fa46c77906a048666b699d5" target="_top" xlink:title="sets the intake motor ">
<polygon fill="none" stroke="#ff0000" points="414.4448,-64.5921 414.4448,-82.5921 507.1538,-82.5921 507.1538,-64.5921 414.4448,-64.5921"/>
<text text-anchor="middle" x="460.7993" y="-70.5921" font-family="Helvetica,sans-Serif" font-size="10.00" fill="#000000">set_intake_motor</text>
</a>
</g>
</g>
<!-- Node20&#45;&gt;Node35 -->
<g id="edge25" class="edge">
<title>Node20&#45;&gt;Node35</title>
<path fill="none" stroke="#191970" d="M193.7646,-138.1479C256.5997,-122.9575 366.2668,-96.4454 423.5506,-82.597"/>
<polygon fill="#191970" stroke="#191970" points="192.6206,-134.8236 183.7231,-140.5755 194.2655,-141.6276 192.6206,-134.8236"/>
</g>
<!-- Node22 -->
<g id="node5" class="node">
<title>Node22</title>
<g id="a_node5"><a xlink:href="claw_8c.html#a0122b78972344264b8a276a559cfce4a" target="_top" xlink:title="Updates the claw motor values. ">
<polygon fill="none" stroke="#000000" points="577.3384,-480.5921 577.3384,-498.5921 649.4907,-498.5921 649.4907,-480.5921 577.3384,-480.5921"/>
<text text-anchor="middle" x="613.4146" y="-486.5921" font-family="Helvetica,sans-Serif" font-size="10.00" fill="#000000">update_claw</text>
</a>
</g>
</g>
<!-- Node21&#45;&gt;Node22 -->
<g id="edge4" class="edge">
<title>Node21&#45;&gt;Node22</title>
<path fill="none" stroke="#191970" d="M350.4321,-442.8818C363.8792,-445.4379 378.2909,-448.1455 391.6543,-450.5921 457.0223,-462.56 533.365,-475.8312 577.2808,-483.3972"/>
<polygon fill="#191970" stroke="#191970" points="350.8489,-439.3983 340.3704,-440.9634 349.5379,-446.2744 350.8489,-439.3983"/>
</g>
<!-- Node23 -->
<g id="node6" class="node">
<title>Node23</title>
<g id="a_node6"><a xlink:href="lifter_8c.html#aa4d172cbde795bc13fe6baabd074717e" target="_top" xlink:title="quit_auto_static">
<polygon fill="none" stroke="#000000" points="417.7749,-404.5921 417.7749,-422.5921 503.8237,-422.5921 503.8237,-404.5921 417.7749,-404.5921"/>
<text text-anchor="middle" x="460.7993" y="-410.5921" font-family="Helvetica,sans-Serif" font-size="10.00" fill="#000000">quit_auto_static</text>
</a>
</g>
</g>
<!-- Node21&#45;&gt;Node23 -->
<g id="edge6" class="edge">
<title>Node21&#45;&gt;Node23</title>
<path fill="none" stroke="#191970" d="M350.179,-426.4297C371.9599,-423.902 396.8529,-421.0132 417.5024,-418.6168"/>
<polygon fill="#191970" stroke="#191970" points="349.6238,-422.9706 340.0939,-427.6001 350.4308,-429.9239 349.6238,-422.9706"/>
</g>
<!-- Node24 -->
<g id="node7" class="node">
<title>Node24</title>
<g id="a_node7"><a xlink:href="lifter_8c.html#a8a64fa88b389b39c236c5c57a7fb5c67" target="_top" xlink:title="Autostacks a cone once picked up. ">
<polygon fill="none" stroke="#000000" points="565.9443,-385.5921 565.9443,-403.5921 660.8848,-403.5921 660.8848,-385.5921 565.9443,-385.5921"/>
<text text-anchor="middle" x="613.4146" y="-391.5921" font-family="Helvetica,sans-Serif" font-size="10.00" fill="#000000">autostack_routine</text>
</a>
</g>
</g>
<!-- Node21&#45;&gt;Node24 -->
<g id="edge9" class="edge">
<title>Node21&#45;&gt;Node24</title>
<path fill="none" stroke="#191970" d="M350.2391,-438.9391C397.8855,-443.1349 469.3943,-445.7264 529.9443,-432.5921 555.4636,-427.0566 582.5425,-413.0182 598.7097,-403.6431"/>
<polygon fill="#191970" stroke="#191970" points="350.4327,-435.442 340.1501,-437.9952 349.7805,-442.4116 350.4327,-435.442"/>
</g>
<!-- Node22&#45;&gt;Node19 -->
<g id="edge5" class="edge">
<title>Node22&#45;&gt;Node19</title>
<path fill="none" stroke="#191970" d="M659.9044,-489.5921C671.9616,-489.5921 684.8901,-489.5921 696.7521,-489.5921"/>
<polygon fill="#191970" stroke="#191970" points="659.5817,-486.0922 649.5817,-489.5921 659.5816,-493.0922 659.5817,-486.0922"/>
</g>
<!-- Node23&#45;&gt;Node24 -->
<g id="edge7" class="edge">
<title>Node23&#45;&gt;Node24</title>
<path fill="none" stroke="#191970" d="M514.3037,-406.931C531.0389,-404.8476 549.3855,-402.5635 565.6951,-400.533"/>
<polygon fill="#191970" stroke="#191970" points="513.6155,-403.4896 504.1245,-408.1983 514.4803,-410.436 513.6155,-403.4896"/>
</g>
<!-- Node24&#45;&gt;Node19 -->
<g id="edge8" class="edge">
<title>Node24&#45;&gt;Node19</title>
<path fill="none" stroke="#191970" d="M633.7004,-409.8614C660.1653,-429.7816 705.6479,-464.0166 727.3755,-480.3711"/>
<polygon fill="#191970" stroke="#191970" points="635.6107,-406.9186 625.5162,-403.7011 631.401,-412.5113 635.6107,-406.9186"/>
</g>
<!-- Node26 -->
<g id="node9" class="node">
<title>Node26</title>
<g id="a_node9"><a xlink:href="auto_8c.html#a3c7ca506bbc071fa740de13805b7f376" target="_top" xlink:title="Runs the user autonomous code. ">
<polygon fill="none" stroke="#000000" points="577.895,-102.5921 577.895,-120.5921 648.9341,-120.5921 648.9341,-102.5921 577.895,-102.5921"/>
<text text-anchor="middle" x="613.4146" y="-108.5921" font-family="Helvetica,sans-Serif" font-size="10.00" fill="#000000">autonomous</text>
</a>
</g>
</g>
<!-- Node25&#45;&gt;Node26 -->
<g id="edge11" class="edge">
<title>Node25&#45;&gt;Node26</title>
<path fill="none" stroke="#191970" d="M347.1027,-138.4475C361.4331,-135.5531 377.1124,-132.669 391.6543,-130.5921 456.8755,-121.277 533.5877,-115.942 577.554,-113.4174"/>
<polygon fill="#191970" stroke="#191970" points="346.0276,-135.0956 336.9419,-140.5455 347.4431,-141.951 346.0276,-135.0956"/>
</g>
<!-- Node27 -->
<g id="node10" class="node">
<title>Node27</title>
<g id="a_node10"><a xlink:href="lifter_8c.html#ac59fe6ffc80bab7f117ec0a8e482277b" target="_top" xlink:title="secondary_lifter_update">
<polygon fill="none" stroke="#ff0000" points="399.4302,-140.5921 399.4302,-158.5921 522.1685,-158.5921 522.1685,-140.5921 399.4302,-140.5921"/>
<text text-anchor="middle" x="460.7993" y="-146.5921" font-family="Helvetica,sans-Serif" font-size="10.00" fill="#000000">secondary_lifter_update</text>
</a>
</g>
</g>
<!-- Node25&#45;&gt;Node27 -->
<g id="edge12" class="edge">
<title>Node25&#45;&gt;Node27</title>
<path fill="none" stroke="#191970" d="M352.0548,-149.5921C367.2066,-149.5921 383.7407,-149.5921 399.2387,-149.5921"/>
<polygon fill="#191970" stroke="#191970" points="351.8157,-146.0922 341.8157,-149.5921 351.8156,-153.0922 351.8157,-146.0922"/>
</g>
<!-- Node30&#45;&gt;Node23 -->
<g id="edge20" class="edge">
<title>Node30&#45;&gt;Node23</title>
<path fill="none" stroke="#191970" d="M314.9707,-264.8157C333.44,-287.3626 363.4538,-322.928 391.6543,-351.5921 411.1035,-371.3611 435.631,-392.5533 449.6332,-404.3322"/>
<polygon fill="#191970" stroke="#191970" points="317.5144,-262.3965 308.4853,-256.8533 312.0869,-266.8172 317.5144,-262.3965"/>
</g>
<!-- Node30&#45;&gt;Node24 -->
<g id="edge21" class="edge">
<title>Node30&#45;&gt;Node24</title>
<path fill="none" stroke="#191970" d="M319.0079,-263.9233C337.2191,-280.6783 364.4557,-303.608 391.6543,-318.5921 451.5407,-351.5844 528.3304,-374.0048 574.0468,-385.5203"/>
<polygon fill="#191970" stroke="#191970" points="320.999,-260.9927 311.3082,-256.7102 316.2133,-266.1012 320.999,-260.9927"/>
</g>
<!-- Node30&#45;&gt;Node26 -->
<g id="edge19" class="edge">
<title>Node30&#45;&gt;Node26</title>
<path fill="none" stroke="#191970" d="M360.0373,-257.8615C409.3525,-266.311 478.0591,-270.0823 529.9443,-241.5921 578.8454,-214.7405 603.3856,-145.7025 610.869,-120.7572"/>
<polygon fill="#191970" stroke="#191970" points="360.5981,-254.4062 350.1328,-256.0576 359.3437,-261.2929 360.5981,-254.4062"/>
</g>
<!-- Node30&#45;&gt;Node27 -->
<g id="edge24" class="edge">
<title>Node30&#45;&gt;Node27</title>
<path fill="none" stroke="#191970" d="M318.448,-221.2981C336.5193,-204.4264 363.845,-181.4593 391.6543,-167.5921 398.8698,-163.9941 406.8789,-161.0627 414.8134,-158.6915"/>
<polygon fill="#191970" stroke="#191970" points="315.6482,-219.1318 310.8277,-228.5665 320.4796,-224.1971 315.6482,-219.1318"/>
</g>
<!-- Node31 -->
<g id="node13" class="node">
<title>Node31</title>
<g id="a_node13"><a xlink:href="auto_8c.html#a64bd65456b81f16eb4ff67237159f984" target="_top" xlink:title="utility function which deploys the secondary lifter at the start of autonomous. ">
<polygon fill="none" stroke="#000000" points="399.9893,-214.5921 399.9893,-232.5921 521.6094,-232.5921 521.6094,-214.5921 399.9893,-214.5921"/>
<text text-anchor="middle" x="460.7993" y="-220.5921" font-family="Helvetica,sans-Serif" font-size="10.00" fill="#000000">deploy_seoncdary_lifter</text>
</a>
</g>
</g>
<!-- Node30&#45;&gt;Node31 -->
<g id="edge15" class="edge">
<title>Node30&#45;&gt;Node31</title>
<path fill="none" stroke="#191970" d="M360.4717,-235.2352C373.4453,-233.7296 387.0719,-232.1483 399.9538,-230.6533"/>
<polygon fill="#191970" stroke="#191970" points="359.7635,-231.7938 350.2337,-236.4234 360.5705,-238.7472 359.7635,-231.7938"/>
</g>
<!-- Node32 -->
<g id="node14" class="node">
<title>Node32</title>
<g id="a_node14"><a xlink:href="auto_8c.html#a55085901854f29969753bfd62c70049c" target="_top" xlink:title="utility function which raises the second lifter to its maximum height ">
<polygon fill="none" stroke="#000000" points="391.6543,-177.5921 391.6543,-195.5921 529.9443,-195.5921 529.9443,-177.5921 391.6543,-177.5921"/>
<text text-anchor="middle" x="460.7993" y="-183.5921" font-family="Helvetica,sans-Serif" font-size="10.00" fill="#000000">auton_raise_sec_lifter_max</text>
</a>
</g>
</g>
<!-- Node30&#45;&gt;Node32 -->
<g id="edge17" class="edge">
<title>Node30&#45;&gt;Node32</title>
<path fill="none" stroke="#191970" d="M338.4029,-224.6596C354.8074,-217.892 373.9528,-210.426 391.6543,-204.5921 401.5504,-201.3306 412.3968,-198.2715 422.5043,-195.6331"/>
<polygon fill="#191970" stroke="#191970" points="336.9726,-221.4638 329.0925,-228.5458 339.6691,-227.9237 336.9726,-221.4638"/>
</g>
<!-- Node33 -->
<g id="node15" class="node">
<title>Node33</title>
<g id="a_node15"><a xlink:href="lifter_8c.html#a786f679ea48bb8c80e00fbac9a69911b" target="_top" xlink:title="Raises the main lifter. ">
<polygon fill="none" stroke="#000000" points="403.8857,-290.5921 403.8857,-308.5921 517.7129,-308.5921 517.7129,-290.5921 403.8857,-290.5921"/>
<text text-anchor="middle" x="460.7993" y="-296.5921" font-family="Helvetica,sans-Serif" font-size="10.00" fill="#000000">raise_secondary_lifter</text>
</a>
</g>
</g>
<!-- Node30&#45;&gt;Node33 -->
<g id="edge22" class="edge">
<title>Node30&#45;&gt;Node33</title>
<path fill="none" stroke="#191970" d="M347.26,-260.1189C361.5981,-265.1221 377.2421,-270.5765 391.6543,-275.5921 405.8154,-280.5203 421.6125,-286.0045 434.5287,-290.485"/>
<polygon fill="#191970" stroke="#191970" points="348.1683,-256.7289 337.5735,-256.7382 345.8616,-263.338 348.1683,-256.7289"/>
</g>
<!-- Node31&#45;&gt;Node26 -->
<g id="edge16" class="edge">
<title>Node31&#45;&gt;Node26</title>
<path fill="none" stroke="#191970" d="M517.6318,-210.8993C521.9288,-209.0672 526.0877,-206.9766 529.9443,-204.5921 566.1123,-182.2299 595.8268,-139.5949 607.7687,-120.8382"/>
<polygon fill="#191970" stroke="#191970" points="516.1867,-207.7037 508.0679,-214.5107 518.6596,-214.2524 516.1867,-207.7037"/>
</g>
<!-- Node32&#45;&gt;Node26 -->
<g id="edge18" class="edge">
<title>Node32&#45;&gt;Node26</title>
<path fill="none" stroke="#191970" d="M511.8729,-174.5837C518.0696,-172.5378 524.225,-170.212 529.9443,-167.5921 558.0258,-154.7288 587.1782,-132.8826 602.4965,-120.6245"/>
<polygon fill="#191970" stroke="#191970" points="510.6883,-171.2862 502.1582,-177.5702 512.7453,-177.9771 510.6883,-171.2862"/>
</g>
<!-- Node33&#45;&gt;Node24 -->
<g id="edge23" class="edge">
<title>Node33&#45;&gt;Node24</title>
<path fill="none" stroke="#191970" d="M504.5945,-312.0337C513.256,-315.2511 522.0902,-319.1007 529.9443,-323.5921 560.6623,-341.1583 590.8066,-370.679 604.995,-385.5098"/>
<polygon fill="#191970" stroke="#191970" points="505.5452,-308.6586 494.9504,-308.6694 503.2395,-315.2679 505.5452,-308.6586"/>
</g>
<!-- Node35&#45;&gt;Node26 -->
<g id="edge26" class="edge">
<title>Node35&#45;&gt;Node26</title>
<path fill="none" stroke="#191970" d="M506.7582,-85.0355C529.5249,-90.7043 556.5975,-97.4451 577.77,-102.7169"/>
<polygon fill="#191970" stroke="#191970" points="507.5164,-81.6175 496.967,-82.5976 505.825,-88.4101 507.5164,-81.6175"/>
</g>
<!-- Node40 -->
<g id="node18" class="node">
<title>Node40</title>
<g id="a_node18"><a xlink:href="drive_8c.html#a8df41fd50094c065eedc81fc5e6595d1" target="_top" xlink:title="sets the speed of one side of the robot. ">
<polygon fill="none" stroke="#ff0000" points="254.0513,-27.5921 254.0513,-45.5921 340.105,-45.5921 340.105,-27.5921 254.0513,-27.5921"/>
<text text-anchor="middle" x="297.0781" y="-33.5921" font-family="Helvetica,sans-Serif" font-size="10.00" fill="#000000">set_side_speed</text>
</a>
</g>
</g>
<!-- Node39&#45;&gt;Node40 -->
<g id="edge28" class="edge">
<title>Node39&#45;&gt;Node40</title>
<path fill="none" stroke="#191970" d="M167.201,-97.2584C185.2963,-84.4641 212.6197,-66.4663 238.502,-54.5921 245.9476,-51.1762 254.2136,-48.1867 262.1329,-45.6762"/>
<polygon fill="#191970" stroke="#191970" points="164.7134,-94.7361 158.6361,-103.4147 168.7989,-100.4202 164.7134,-94.7361"/>
</g>
<!-- Node44 -->
<g id="node19" class="node">
<title>Node44</title>
<g id="a_node19"><a xlink:href="lifter_8c.html#ad00a195af30f246924d6e1a30095b882" target="_top" xlink:title="Sets the main lifter motors to the given value. ">
<polygon fill="none" stroke="#ff0000" points="238.502,-366.5921 238.502,-384.5921 355.6543,-384.5921 355.6543,-366.5921 238.502,-366.5921"/>
<text text-anchor="middle" x="297.0781" y="-372.5921" font-family="Helvetica,sans-Serif" font-size="10.00" fill="#000000">set_main_lifter_motors</text>
</a>
</g>
</g>
<!-- Node39&#45;&gt;Node44 -->
<g id="edge30" class="edge">
<title>Node39&#45;&gt;Node44</title>
<path fill="none" stroke="#191970" d="M198.0605,-126.5927C199.6401,-127.8161 201.1291,-129.1462 202.502,-130.5921 245.5542,-175.9357 215.5455,-208.4326 238.502,-266.5921 253.8037,-305.3586 279.5528,-347.9661 291.1276,-366.3303"/>
<polygon fill="#191970" stroke="#191970" points="199.8737,-123.5988 189.5267,-121.3205 196.1946,-129.554 199.8737,-123.5988"/>
</g>
<!-- Node40&#45;&gt;Node26 -->
<g id="edge29" class="edge">
<title>Node40&#45;&gt;Node26</title>
<path fill="none" stroke="#191970" d="M350.7304,-33.014C398.9944,-31.5793 471.1422,-33.9144 529.9443,-54.5921 559.7418,-65.0704 588.903,-88.9935 603.5912,-102.2744"/>
<polygon fill="#191970" stroke="#191970" points="350.3732,-29.5245 340.5068,-33.3849 350.6271,-36.5199 350.3732,-29.5245"/>
</g>
<!-- Node44&#45;&gt;Node23 -->
<g id="edge31" class="edge">
<title>Node44&#45;&gt;Node23</title>
<path fill="none" stroke="#191970" d="M345.6522,-386.8663C370.0234,-392.5229 399.1389,-399.2806 421.9948,-404.5855"/>
<polygon fill="#191970" stroke="#191970" points="346.4102,-383.4492 335.8778,-384.5976 344.8275,-390.268 346.4102,-383.4492"/>
</g>
<!-- Node44&#45;&gt;Node24 -->
<g id="edge32" class="edge">
<title>Node44&#45;&gt;Node24</title>
<path fill="none" stroke="#191970" d="M366.0567,-379.7352C426.4998,-383.3655 512.7583,-388.5464 565.811,-391.7329"/>
<polygon fill="#191970" stroke="#191970" points="366.0291,-376.2273 355.8372,-379.1213 365.6094,-383.2147 366.0291,-376.2273"/>
</g>
<!-- Node49&#45;&gt;Node26 -->
<g id="edge34" class="edge">
<title>Node49&#45;&gt;Node26</title>
<path fill="none" stroke="#191970" d="M187.3959,-24.923C260.1109,-6.5165 414.8922,22.1501 529.9443,-29.5921 565.8864,-45.7563 595.289,-84.5126 607.4228,-102.337"/>
<polygon fill="#191970" stroke="#191970" points="186.0751,-21.65 177.2774,-27.5535 187.8364,-28.4248 186.0751,-21.65"/>
</g>
</g>
</svg>
        <g id="navigator" transform="translate(0 0)" fill="#404254">
                <rect fill="#f2f5e9" fill-opacity="0.5" stroke="#606060" stroke-width=".5" x="0" y="0" width="60" height="60"/>
                <use id="zoomplus" xlink:href="#zoomPlus" x="17" y="9" onmousedown="handleZoom(evt,'in')"/>
                <use id="zoomminus" xlink:href="#zoomMin" x="42" y="9" onmousedown="handleZoom(evt,'out')"/>
                <use id="reset" xlink:href="#resetDef" x="30" y="36" onmousedown="handleReset()"/>
                <g id="arrowUp" xlink:href="#dirArrow" transform="translate(30 24)" onmousedown="handlePan(0,-1)">
                  <use xlink:href="#rim" fill="#404040">
                        <set attributeName="fill" to="#808080" begin="arrowUp.mouseover" end="arrowUp.mouseout"/>
                  </use>
                  <path fill="none" stroke="white" stroke-width="1.5" d="M0,-3.0v7 M-2.5,-0.5L0,-3.0L2.5,-0.5"/>
                </g>
                <g id="arrowRight" xlink:href="#dirArrow" transform="rotate(90) translate(36 -43)" onmousedown="handlePan(1,0)">
                  <use xlink:href="#rim" fill="#404040">
                        <set attributeName="fill" to="#808080" begin="arrowRight.mouseover" end="arrowRight.mouseout"/>
                  </use>
                  <path fill="none" stroke="white" stroke-width="1.5" d="M0,-3.0v7 M-2.5,-0.5L0,-3.0L2.5,-0.5"/>
                </g>
                <g id="arrowDown" xlink:href="#dirArrow" transform="rotate(180) translate(-30 -48)" onmousedown="handlePan(0,1)">
                  <use xlink:href="#rim" fill="#404040">
                        <set attributeName="fill" to="#808080" begin="arrowDown.mouseover" end="arrowDown.mouseout"/>
                  </use>
                  <path fill="none" stroke="white" stroke-width="1.5" d="M0,-3.0v7 M-2.5,-0.5L0,-3.0L2.5,-0.5"/>
                </g>
                <g id="arrowLeft" xlink:href="#dirArrow" transform="rotate(270) translate(-36 17)" onmousedown="handlePan(-1,0)">
                  <use xlink:href="#rim" fill="#404040">
                        <set attributeName="fill" to="#808080" begin="arrowLeft.mouseover" end="arrowLeft.mouseout"/>
                  </use>
                  <path fill="none" stroke="white" stroke-width="1.5" d="M0,-3.0v7 M-2.5,-0.5L0,-3.0L2.5,-0.5"/>
                </g>
        </g>
        <svg viewBox="0 0 15 15" width="100%" height="30px" preserveAspectRatio="xMaxYMin meet">
         <g id="arrow_out" transform="scale(0.3 0.3)">
          <a xlink:href="slew_8h_a321758941d88b75783955c819bb75005_icgraph_org.svg" target="_base">
           <rect id="button" ry="5" rx="5" y="6" x="6" height="38" width="38"
                fill="#f2f5e9" fill-opacity="0.5" stroke="#606060" stroke-width="1.0"/>
           <path id="arrow"
             d="M 11.500037,31.436501 C 11.940474,20.09759 22.043105,11.32322 32.158766,21.979434 L 37.068811,17.246167 C 37.068811,17.246167 37.088388,32 37.088388,32 L 22.160133,31.978069 C 22.160133,31.978069 26.997745,27.140456 26.997745,27.140456 C 18.528582,18.264221 13.291696,25.230495 11.500037,31.436501 z"
             style="fill:#404040;"/>
          </a>
         </g>
        </svg>
</svg>
