<?xml version="1.0" encoding="UTF-8" standalone="no"?>
<!DOCTYPE svg PUBLIC "-//W3C//DTD SVG 1.1//EN"
 "http://www.w3.org/Graphics/SVG/1.1/DTD/svg11.dtd">
<!-- Generated by graphviz version 2.40.1 (20161225.0304)
 -->
<!-- Title: updateMotors Pages: 1 -->
<svg width="263pt" height="27pt"
 viewBox="0.00 0.00 263.07 27.00" xmlns="http://www.w3.org/2000/svg" xmlns:xlink="http://www.w3.org/1999/xlink">
<g id="graph0" class="graph" transform="scale(1 1) rotate(0) translate(4 23)">
<title>updateMotors</title>
<!-- Node31 -->
<g id="node1" class="node">
<title>Node31</title>
<polygon fill="#bfbfbf" stroke="#000000" points="0,-.5 0,-18.5 77.1475,-18.5 77.1475,-.5 0,-.5"/>
<text text-anchor="middle" x="38.5737" y="-6.5" font-family="Helvetica,sans-Serif" font-size="10.00" fill="#000000">updateMotors</text>
</g>
<!-- Node32 -->
<g id="node2" class="node">
<title>Node32</title>
<g id="a_node2"><a xlink:href="slew_8c.html#a321758941d88b75783955c819bb75005" target="_top" xlink:title="Initializes the slew rate controller. ">
<polygon fill="none" stroke="#000000" points="113.1475,-.5 113.1475,-18.5 167.4971,-18.5 167.4971,-.5 113.1475,-.5"/>
<text text-anchor="middle" x="140.3223" y="-6.5" font-family="Helvetica,sans-Serif" font-size="10.00" fill="#000000">init_slew</text>
</a>
</g>
</g>
<!-- Node31&#45;&gt;Node32 -->
<g id="edge1" class="edge">
<title>Node31&#45;&gt;Node32</title>
<path fill="none" stroke="#191970" d="M87.5368,-9.5C96.314,-9.5 105.1671,-9.5 113.0493,-9.5"/>
<polygon fill="#191970" stroke="#191970" points="87.3308,-6.0001 77.3307,-9.5 87.3307,-13.0001 87.3308,-6.0001"/>
</g>
<!-- Node33 -->
<g id="node3" class="node">
<title>Node33</title>
<g id="a_node3"><a xlink:href="init_8c.html#a25a40b6614565f755233080a384c35f1" target="_top" xlink:title="initialize">
<polygon fill="none" stroke="#000000" points="203.4971,-.5 203.4971,-18.5 255.0684,-18.5 255.0684,-.5 203.4971,-.5"/>
<text text-anchor="middle" x="229.2827" y="-6.5" font-family="Helvetica,sans-Serif" font-size="10.00" fill="#000000">initialize</text>
</a>
</g>
</g>
<!-- Node32&#45;&gt;Node33 -->
<g id="edge2" class="edge">
<title>Node32&#45;&gt;Node33</title>
<path fill="none" stroke="#191970" d="M178.1419,-9.5C186.6785,-9.5 195.5501,-9.5 203.4602,-9.5"/>
<polygon fill="#191970" stroke="#191970" points="177.9823,-6.0001 167.9823,-9.5 177.9822,-13.0001 177.9823,-6.0001"/>
</g>
</g>
</svg>
