<?xml version="1.0" encoding="UTF-8" standalone="no"?>
<!DOCTYPE svg PUBLIC "-//W3C//DTD SVG 1.1//EN"
 "http://www.w3.org/Graphics/SVG/1.1/DTD/svg11.dtd">
<!-- Generated by graphviz version 2.40.1 (20161225.0304)
 -->
<!-- Title: include/slew.h Pages: 1 -->
<svg width="667pt" height="202pt"
 viewBox="0.00 0.00 666.70 202.00" xmlns="http://www.w3.org/2000/svg" xmlns:xlink="http://www.w3.org/1999/xlink">
<g id="graph0" class="graph" transform="scale(1 1) rotate(0) translate(4 198)">
<title>include/slew.h</title>
<!-- Node5 -->
<g id="node1" class="node">
<title>Node5</title>
<polygon fill="#bfbfbf" stroke="#000000" points="385.8965,-175.5 385.8965,-193.5 464.1621,-193.5 464.1621,-175.5 385.8965,-175.5"/>
<text text-anchor="middle" x="425.0293" y="-181.5" font-family="Helvetica,sans-Serif" font-size="10.00" fill="#000000">include/slew.h</text>
</g>
<!-- Node6 -->
<g id="node2" class="node">
<title>Node6</title>
<g id="a_node2"><a xlink:href="claw_8h.html" target="_top" xlink:title="Code for controlling the claw that grabs the cones. ">
<polygon fill="none" stroke="#000000" points="251.8965,-115.5 251.8965,-133.5 330.1621,-133.5 330.1621,-115.5 251.8965,-115.5"/>
<text text-anchor="middle" x="291.0293" y="-121.5" font-family="Helvetica,sans-Serif" font-size="10.00" fill="#000000">include/claw.h</text>
</a>
</g>
</g>
<!-- Node5&#45;&gt;Node6 -->
<g id="edge1" class="edge">
<title>Node5&#45;&gt;Node6</title>
<path fill="none" stroke="#191970" d="M395.4401,-171.2511C369.8323,-159.7849 333.4936,-143.5139 311.1335,-133.5019"/>
<polygon fill="#191970" stroke="#191970" points="394.1204,-174.495 404.6776,-175.3873 396.9811,-168.1062 394.1204,-174.495"/>
</g>
<!-- Node10 -->
<g id="node6" class="node">
<title>Node10</title>
<g id="a_node6"><a xlink:href="opcontrol_8c.html" target="_top" xlink:title="File for operator control code. ">
<polygon fill="none" stroke="#000000" points="317.5171,-55.5 317.5171,-73.5 398.5415,-73.5 398.5415,-55.5 317.5171,-55.5"/>
<text text-anchor="middle" x="358.0293" y="-61.5" font-family="Helvetica,sans-Serif" font-size="10.00" fill="#000000">src/opcontrol.c</text>
</a>
</g>
</g>
<!-- Node5&#45;&gt;Node10 -->
<g id="edge17" class="edge">
<title>Node5&#45;&gt;Node10</title>
<path fill="none" stroke="#191970" d="M403.7188,-168.8688C394.2639,-160.9077 383.7742,-150.4875 377.0293,-139 364.5937,-117.8206 360.2189,-88.5998 358.7417,-73.8384"/>
<polygon fill="#191970" stroke="#191970" points="401.6435,-171.6905 411.6413,-175.1968 406.0122,-166.221 401.6435,-171.6905"/>
</g>
<!-- Node11 -->
<g id="node7" class="node">
<title>Node11</title>
<g id="a_node7"><a xlink:href="lifter_8h.html" target="_top" xlink:title="Declarations and macros for controlling and manipulating the lifter. ">
<polygon fill="none" stroke="#000000" points="386.4531,-115.5 386.4531,-133.5 463.6055,-133.5 463.6055,-115.5 386.4531,-115.5"/>
<text text-anchor="middle" x="425.0293" y="-121.5" font-family="Helvetica,sans-Serif" font-size="10.00" fill="#000000">include/lifter.h</text>
</a>
</g>
</g>
<!-- Node5&#45;&gt;Node11 -->
<g id="edge6" class="edge">
<title>Node5&#45;&gt;Node11</title>
<path fill="none" stroke="#191970" d="M425.0293,-165.3734C425.0293,-154.7812 425.0293,-142.0976 425.0293,-133.6985"/>
<polygon fill="#191970" stroke="#191970" points="421.5294,-165.3873 425.0293,-175.3873 428.5294,-165.3873 421.5294,-165.3873"/>
</g>
<!-- Node12 -->
<g id="node8" class="node">
<title>Node12</title>
<g id="a_node8"><a xlink:href="init_8c.html" target="_top" xlink:title="File for initialization code. ">
<polygon fill="none" stroke="#000000" points="492.6943,-55.5 492.6943,-73.5 545.3643,-73.5 545.3643,-55.5 492.6943,-55.5"/>
<text text-anchor="middle" x="519.0293" y="-61.5" font-family="Helvetica,sans-Serif" font-size="10.00" fill="#000000">src/init.c</text>
</a>
</g>
</g>
<!-- Node5&#45;&gt;Node12 -->
<g id="edge16" class="edge">
<title>Node5&#45;&gt;Node12</title>
<path fill="none" stroke="#191970" d="M443.7639,-168.8081C453.1255,-160.4735 464.2895,-149.7495 473.0293,-139 490.6738,-117.2981 506.718,-88.3059 514.3472,-73.7144"/>
<polygon fill="#191970" stroke="#191970" points="441.3622,-166.2582 436.1072,-175.458 445.9523,-171.5432 441.3622,-166.2582"/>
</g>
<!-- Node14 -->
<g id="node10" class="node">
<title>Node14</title>
<g id="a_node10"><a xlink:href="mobile__goal__intake_8h.html" target="_top" xlink:title="include/mobile_goal\l_intake.h">
<polygon fill="none" stroke="#000000" points="129.8325,-110.5 129.8325,-138.5 234.2261,-138.5 234.2261,-110.5 129.8325,-110.5"/>
<text text-anchor="start" x="137.8325" y="-126.5" font-family="Helvetica,sans-Serif" font-size="10.00" fill="#000000">include/mobile_goal</text>
<text text-anchor="middle" x="182.0293" y="-116.5" font-family="Helvetica,sans-Serif" font-size="10.00" fill="#000000">_intake.h</text>
</a>
</g>
</g>
<!-- Node5&#45;&gt;Node14 -->
<g id="edge11" class="edge">
<title>Node5&#45;&gt;Node14</title>
<path fill="none" stroke="#191970" d="M378.5973,-173.0353C337.3766,-162.8574 277.2006,-147.9991 234.3029,-137.4071"/>
<polygon fill="#191970" stroke="#191970" points="377.8392,-176.4532 388.3866,-175.4524 379.5172,-169.6573 377.8392,-176.4532"/>
</g>
<!-- Node16 -->
<g id="node12" class="node">
<title>Node16</title>
<g id="a_node12"><a xlink:href="drive_8c.html" target="_top" xlink:title="src/drive.c">
<polygon fill="none" stroke="#000000" points="520.2485,-115.5 520.2485,-133.5 581.8101,-133.5 581.8101,-115.5 520.2485,-115.5"/>
<text text-anchor="middle" x="551.0293" y="-121.5" font-family="Helvetica,sans-Serif" font-size="10.00" fill="#000000">src/drive.c</text>
</a>
</g>
</g>
<!-- Node5&#45;&gt;Node16 -->
<g id="edge15" class="edge">
<title>Node5&#45;&gt;Node16</title>
<path fill="none" stroke="#191970" d="M453.4908,-170.9469C477.5321,-159.4987 511.2854,-143.4257 532.1254,-133.5019"/>
<polygon fill="#191970" stroke="#191970" points="451.6898,-167.9279 444.166,-175.3873 454.6994,-174.2479 451.6898,-167.9279"/>
</g>
<!-- Node17 -->
<g id="node13" class="node">
<title>Node17</title>
<g id="a_node13"><a xlink:href="slew_8c.html" target="_top" xlink:title="src/slew.c">
<polygon fill="none" stroke="#000000" points="599.3569,-115.5 599.3569,-133.5 658.7017,-133.5 658.7017,-115.5 599.3569,-115.5"/>
<text text-anchor="middle" x="629.0293" y="-121.5" font-family="Helvetica,sans-Serif" font-size="10.00" fill="#000000">src/slew.c</text>
</a>
</g>
</g>
<!-- Node5&#45;&gt;Node17 -->
<g id="edge18" class="edge">
<title>Node5&#45;&gt;Node17</title>
<path fill="none" stroke="#191970" d="M471.8873,-172.9516C505.3373,-164.3937 551.2612,-152.0035 591.0293,-139 595.9958,-137.376 601.2662,-135.4793 606.2499,-133.6033"/>
<polygon fill="#191970" stroke="#191970" points="470.7583,-169.6271 461.9274,-175.4809 472.4813,-176.4118 470.7583,-169.6271"/>
</g>
<!-- Node7 -->
<g id="node3" class="node">
<title>Node7</title>
<g id="a_node3"><a xlink:href="auto_8h.html" target="_top" xlink:title="Autonomous declarations and macros. ">
<polygon fill="none" stroke="#000000" points="143.894,-55.5 143.894,-73.5 222.1646,-73.5 222.1646,-55.5 143.894,-55.5"/>
<text text-anchor="middle" x="183.0293" y="-61.5" font-family="Helvetica,sans-Serif" font-size="10.00" fill="#000000">include/auto.h</text>
</a>
</g>
</g>
<!-- Node6&#45;&gt;Node7 -->
<g id="edge2" class="edge">
<title>Node6&#45;&gt;Node7</title>
<path fill="none" stroke="#191970" d="M265.8051,-110.4865C245.2574,-99.0712 216.8573,-83.2933 199.2327,-73.5019"/>
<polygon fill="#191970" stroke="#191970" points="264.1851,-113.5904 274.6264,-115.3873 267.5846,-107.4713 264.1851,-113.5904"/>
</g>
<!-- Node9 -->
<g id="node5" class="node">
<title>Node9</title>
<g id="a_node5"><a xlink:href="claw_8c.html" target="_top" xlink:title="src/claw.c">
<polygon fill="none" stroke="#000000" points="240.3569,-55.5 240.3569,-73.5 299.7017,-73.5 299.7017,-55.5 240.3569,-55.5"/>
<text text-anchor="middle" x="270.0293" y="-61.5" font-family="Helvetica,sans-Serif" font-size="10.00" fill="#000000">src/claw.c</text>
</a>
</g>
</g>
<!-- Node6&#45;&gt;Node9 -->
<g id="edge4" class="edge">
<title>Node6&#45;&gt;Node9</title>
<path fill="none" stroke="#191970" d="M284.4518,-105.7072C280.7214,-95.0487 276.2194,-82.186 273.2488,-73.6985"/>
<polygon fill="#191970" stroke="#191970" points="281.2328,-107.105 287.8398,-115.3873 287.8398,-104.7925 281.2328,-107.105"/>
</g>
<!-- Node6&#45;&gt;Node10 -->
<g id="edge5" class="edge">
<title>Node6&#45;&gt;Node10</title>
<path fill="none" stroke="#191970" d="M308.7381,-108.6414C321.1805,-97.4989 337.3913,-82.9817 347.7577,-73.6985"/>
<polygon fill="#191970" stroke="#191970" points="306.3198,-106.1087 301.2052,-115.3873 310.9896,-111.3234 306.3198,-106.1087"/>
</g>
<!-- Node8 -->
<g id="node4" class="node">
<title>Node8</title>
<g id="a_node4"><a xlink:href="auto_8c.html" target="_top" xlink:title="File for autonomous code. ">
<polygon fill="none" stroke="#000000" points="153.3545,-.5 153.3545,-18.5 212.7041,-18.5 212.7041,-.5 153.3545,-.5"/>
<text text-anchor="middle" x="183.0293" y="-6.5" font-family="Helvetica,sans-Serif" font-size="10.00" fill="#000000">src/auto.c</text>
</a>
</g>
</g>
<!-- Node7&#45;&gt;Node8 -->
<g id="edge3" class="edge">
<title>Node7&#45;&gt;Node8</title>
<path fill="none" stroke="#191970" d="M183.0293,-45.383C183.0293,-36.3738 183.0293,-26.0373 183.0293,-18.7795"/>
<polygon fill="#191970" stroke="#191970" points="179.5294,-45.4178 183.0293,-55.4179 186.5294,-45.4179 179.5294,-45.4178"/>
</g>
<!-- Node11&#45;&gt;Node7 -->
<g id="edge7" class="edge">
<title>Node11&#45;&gt;Node7</title>
<path fill="none" stroke="#191970" d="M378.7387,-113.023C332.3662,-101.5257 261.9414,-84.065 219.4218,-73.5229"/>
<polygon fill="#191970" stroke="#191970" points="377.989,-116.443 388.5374,-115.4524 379.6736,-109.6487 377.989,-116.443"/>
</g>
<!-- Node11&#45;&gt;Node10 -->
<g id="edge10" class="edge">
<title>Node11&#45;&gt;Node10</title>
<path fill="none" stroke="#191970" d="M407.3205,-108.6414C394.8781,-97.4989 378.6672,-82.9817 368.3009,-73.6985"/>
<polygon fill="#191970" stroke="#191970" points="405.069,-111.3234 414.8534,-115.3873 409.7388,-106.1087 405.069,-111.3234"/>
</g>
<!-- Node11&#45;&gt;Node12 -->
<g id="edge8" class="edge">
<title>Node11&#45;&gt;Node12</title>
<path fill="none" stroke="#191970" d="M447.957,-109.8653C465.7555,-98.5045 489.8628,-83.1169 504.9264,-73.5019"/>
<polygon fill="#191970" stroke="#191970" points="445.852,-107.0567 439.3059,-115.3873 449.6183,-112.9571 445.852,-107.0567"/>
</g>
<!-- Node13 -->
<g id="node9" class="node">
<title>Node13</title>
<g id="a_node9"><a xlink:href="lifter_8c.html" target="_top" xlink:title="src/lifter.c">
<polygon fill="none" stroke="#000000" points="416.9136,-55.5 416.9136,-73.5 475.145,-73.5 475.145,-55.5 416.9136,-55.5"/>
<text text-anchor="middle" x="446.0293" y="-61.5" font-family="Helvetica,sans-Serif" font-size="10.00" fill="#000000">src/lifter.c</text>
</a>
</g>
</g>
<!-- Node11&#45;&gt;Node13 -->
<g id="edge9" class="edge">
<title>Node11&#45;&gt;Node13</title>
<path fill="none" stroke="#191970" d="M431.6068,-105.7072C435.3372,-95.0487 439.8392,-82.186 442.8098,-73.6985"/>
<polygon fill="#191970" stroke="#191970" points="428.2188,-104.7925 428.2187,-115.3873 434.8258,-107.105 428.2188,-104.7925"/>
</g>
<!-- Node14&#45;&gt;Node7 -->
<g id="edge12" class="edge">
<title>Node14&#45;&gt;Node7</title>
<path fill="none" stroke="#191970" d="M182.434,-100.2151C182.5905,-90.8253 182.76,-80.6598 182.8779,-73.5842"/>
<polygon fill="#191970" stroke="#191970" points="178.9335,-100.2239 182.2663,-110.2808 185.9325,-100.3406 178.9335,-100.2239"/>
</g>
<!-- Node14&#45;&gt;Node10 -->
<g id="edge14" class="edge">
<title>Node14&#45;&gt;Node10</title>
<path fill="none" stroke="#191970" d="M233.0042,-107.1222C265.2115,-96.1424 305.5112,-82.4039 331.5069,-73.5417"/>
<polygon fill="#191970" stroke="#191970" points="231.6292,-103.8931 223.2935,-110.4327 233.888,-110.5186 231.6292,-103.8931"/>
</g>
<!-- Node15 -->
<g id="node11" class="node">
<title>Node15</title>
<g id="a_node11"><a xlink:href="mobile__goal__intake_8c.html" target="_top" xlink:title="src/mobile_goal_intake.c">
<polygon fill="none" stroke="#000000" points="0,-55.5 0,-73.5 126.0586,-73.5 126.0586,-55.5 0,-55.5"/>
<text text-anchor="middle" x="63.0293" y="-61.5" font-family="Helvetica,sans-Serif" font-size="10.00" fill="#000000">src/mobile_goal_intake.c</text>
</a>
</g>
</g>
<!-- Node14&#45;&gt;Node15 -->
<g id="edge13" class="edge">
<title>Node14&#45;&gt;Node15</title>
<path fill="none" stroke="#191970" d="M145.0339,-105.8469C123.7849,-95.1331 98.0447,-82.1548 81.1392,-73.6311"/>
<polygon fill="#191970" stroke="#191970" points="143.6241,-109.0557 154.1291,-110.4327 146.7756,-102.8053 143.6241,-109.0557"/>
</g>
</g>
</svg>
