<?xml version="1.0" encoding="UTF-8" standalone="no"?>
<!DOCTYPE svg PUBLIC "-//W3C//DTD SVG 1.1//EN"
 "http://www.w3.org/Graphics/SVG/1.1/DTD/svg11.dtd">
<!-- Generated by graphviz version 2.40.1 (20161225.0304)
 -->
<!-- Title: set_motor_slew Pages: 1 -->
<svg width="484pt" height="64pt"
 viewBox="0.00 0.00 483.51 64.00" xmlns="http://www.w3.org/2000/svg" xmlns:xlink="http://www.w3.org/1999/xlink">
<g id="graph0" class="graph" transform="scale(1 1) rotate(0) translate(4 60)">
<title>set_motor_slew</title>
<!-- Node84 -->
<g id="node1" class="node">
<title>Node84</title>
<polygon fill="#bfbfbf" stroke="#000000" points="0,-18.5 0,-36.5 86.0293,-36.5 86.0293,-18.5 0,-18.5"/>
<text text-anchor="middle" x="43.0146" y="-24.5" font-family="Helvetica,sans-Serif" font-size="10.00" fill="#000000">set_motor_slew</text>
</g>
<!-- Node85 -->
<g id="node2" class="node">
<title>Node85</title>
<g id="a_node2"><a xlink:href="drive_8c.html#a8df41fd50094c065eedc81fc5e6595d1" target="_top" xlink:title="sets the speed of one side of the robot. ">
<polygon fill="none" stroke="#000000" points="122.0293,-18.5 122.0293,-36.5 208.083,-36.5 208.083,-18.5 122.0293,-18.5"/>
<text text-anchor="middle" x="165.0562" y="-24.5" font-family="Helvetica,sans-Serif" font-size="10.00" fill="#000000">set_side_speed</text>
</a>
</g>
</g>
<!-- Node84&#45;&gt;Node85 -->
<g id="edge1" class="edge">
<title>Node84&#45;&gt;Node85</title>
<path fill="none" stroke="#191970" d="M96.0713,-27.5C104.7366,-27.5 113.6199,-27.5 122.0061,-27.5"/>
<polygon fill="#191970" stroke="#191970" points="96.042,-24.0001 86.0419,-27.5 96.0419,-31.0001 96.042,-24.0001"/>
</g>
<!-- Node86 -->
<g id="node3" class="node">
<title>Node86</title>
<g id="a_node3"><a xlink:href="auto_8c.html#a3c7ca506bbc071fa740de13805b7f376" target="_top" xlink:title="autonomous">
<polygon fill="none" stroke="#000000" points="263.5361,-37.5 263.5361,-55.5 334.5752,-55.5 334.5752,-37.5 263.5361,-37.5"/>
<text text-anchor="middle" x="299.0557" y="-43.5" font-family="Helvetica,sans-Serif" font-size="10.00" fill="#000000">autonomous</text>
</a>
</g>
</g>
<!-- Node85&#45;&gt;Node86 -->
<g id="edge2" class="edge">
<title>Node85&#45;&gt;Node86</title>
<path fill="none" stroke="#191970" d="M218.4081,-35.0649C233.4425,-37.1966 249.4343,-39.4641 263.1793,-41.413"/>
<polygon fill="#191970" stroke="#191970" points="218.5844,-31.5549 208.192,-33.6163 217.6016,-38.4856 218.5844,-31.5549"/>
</g>
<!-- Node87 -->
<g id="node4" class="node">
<title>Node87</title>
<g id="a_node4"><a xlink:href="drive_8c.html#a8224a4626a934d30ed587671b7004bf8" target="_top" xlink:title="Updates the drive motors during teleop. ">
<polygon fill="none" stroke="#000000" points="244.083,-.5 244.083,-18.5 354.0283,-18.5 354.0283,-.5 244.083,-.5"/>
<text text-anchor="middle" x="299.0557" y="-6.5" font-family="Helvetica,sans-Serif" font-size="10.00" fill="#000000">update_drive_motors</text>
</a>
</g>
</g>
<!-- Node85&#45;&gt;Node87 -->
<g id="edge3" class="edge">
<title>Node85&#45;&gt;Node87</title>
<path fill="none" stroke="#191970" d="M218.2362,-20.3564C226.6241,-19.2296 235.3142,-18.0623 243.749,-16.9293"/>
<polygon fill="#191970" stroke="#191970" points="217.637,-16.9053 208.192,-21.7056 218.569,-23.843 217.637,-16.9053"/>
</g>
<!-- Node88 -->
<g id="node5" class="node">
<title>Node88</title>
<g id="a_node5"><a xlink:href="opcontrol_8c.html#ac71a94af413917f27d108e95c4d6f6a7" target="_top" xlink:title="operatorControl">
<polygon fill="none" stroke="#000000" points="390.0283,-.5 390.0283,-18.5 475.5107,-18.5 475.5107,-.5 390.0283,-.5"/>
<text text-anchor="middle" x="432.7695" y="-6.5" font-family="Helvetica,sans-Serif" font-size="10.00" fill="#000000">operatorControl</text>
</a>
</g>
</g>
<!-- Node87&#45;&gt;Node88 -->
<g id="edge4" class="edge">
<title>Node87&#45;&gt;Node88</title>
<path fill="none" stroke="#191970" d="M364.3768,-9.5C373.0776,-9.5 381.813,-9.5 389.9933,-9.5"/>
<polygon fill="#191970" stroke="#191970" points="364.2142,-6.0001 354.2142,-9.5 364.2142,-13.0001 364.2142,-6.0001"/>
</g>
</g>
</svg>
