<?xml version="1.0" encoding="UTF-8" standalone="no"?>
<!DOCTYPE svg PUBLIC "-//W3C//DTD SVG 1.1//EN"
 "http://www.w3.org/Graphics/SVG/1.1/DTD/svg11.dtd">
<!-- Generated by graphviz version 2.40.1 (20161225.0304)
 -->
<!-- Title: set_motor_slew Pages: 1 -->
<!--zoomable 121 -->
<svg id="main" version="1.1" xmlns="http://www.w3.org/2000/svg" xmlns:xlink="http://www.w3.org/1999/xlink" xml:space="preserve" onload="init(evt)">
<style type="text/css"><![CDATA[
.edge:hover path { stroke: red; }
.edge:hover polygon { stroke: red; fill: red; }
]]></style>
<script type="text/javascript"><![CDATA[
var edges = document.getElementsByTagName('g');
if (edges && edges.length) {
  for (var i=0;i<edges.length;i++) {
    if (edges[i].id.substr(0,4)=='edge') {
      edges[i].setAttribute('class','edge');
    }
  }
}
]]></script>
        <defs>
                <circle id="rim" cx="0" cy="0" r="7"/>
                <circle id="rim2" cx="0" cy="0" r="3.5"/>
                <g id="zoomPlus">
                        <use xlink:href="#rim" fill="#404040">
                                <set attributeName="fill" to="#808080" begin="zoomplus.mouseover" end="zoomplus.mouseout"/>
                        </use>
                        <path d="M-4,0h8M0,-4v8" fill="none" stroke="white" stroke-width="1.5" pointer-events="none"/>
                </g>
                <g id="zoomMin">
                        <use xlink:href="#rim" fill="#404040">
                                <set attributeName="fill" to="#808080" begin="zoomminus.mouseover" end="zoomminus.mouseout"/>
                        </use>
                        <path d="M-4,0h8" fill="none" stroke="white" stroke-width="1.5" pointer-events="none"/>
                </g>
                <g id="dirArrow">
                        <path fill="none" stroke="white" stroke-width="1.5" d="M0,-3.0v7 M-2.5,-0.5L0,-3.0L2.5,-0.5"/>
                </g>
               <g id="resetDef">
                       <use xlink:href="#rim2" fill="#404040">
                               <set attributeName="fill" to="#808080" begin="reset.mouseover" end="reset.mouseout"/>
                       </use>
               </g>
        </defs>

<script type="text/javascript">
var viewWidth = 588;
var viewHeight = 121;
var sectionId = 'dynsection-8';
</script>
<script xlink:href="svgpan.js"/>
<svg id="graph" class="graph">
<g id="viewport">
<title>set_motor_slew</title>
<!-- Node76 -->
<g id="node1" class="node">
<title>Node76</title>
<polygon fill="#bfbfbf" stroke="#000000" points="0,-18.5 0,-36.5 86.0293,-36.5 86.0293,-18.5 0,-18.5"/>
<text text-anchor="middle" x="43.0146" y="-24.5" font-family="Helvetica,sans-Serif" font-size="10.00" fill="#000000">set_motor_slew</text>
</g>
<!-- Node77 -->
<g id="node2" class="node">
<title>Node77</title>
<g id="a_node2"><a xlink:href="lifter_8c.html#aa62603df4d54dff2d7fd472d699e9b2e" target="_top" xlink:title="set_lifter_motors">
<polygon fill="none" stroke="#000000" points="122.0293,-37.5 122.0293,-55.5 211.9453,-55.5 211.9453,-37.5 122.0293,-37.5"/>
<text text-anchor="middle" x="166.9873" y="-43.5" font-family="Helvetica,sans-Serif" font-size="10.00" fill="#000000">set_lifter_motors</text>
</a>
</g>
</g>
<!-- Node76&#45;&gt;Node77 -->
<g id="edge1" class="edge">
<title>Node76&#45;&gt;Node77</title>
<path fill="none" stroke="#191970" d="M96.4961,-35.6966C104.9161,-36.987 113.5496,-38.3102 121.759,-39.5683"/>
<polygon fill="#191970" stroke="#191970" points="96.7891,-32.2007 86.3743,-34.1453 95.7286,-39.1199 96.7891,-32.2007"/>
</g>
<!-- Node82 -->
<g id="node7" class="node">
<title>Node82</title>
<g id="a_node7"><a xlink:href="drive_8c.html#a8df41fd50094c065eedc81fc5e6595d1" target="_top" xlink:title="sets the speed of one side of the robot. ">
<polygon fill="none" stroke="#000000" points="123.9604,-.5 123.9604,-18.5 210.0142,-18.5 210.0142,-.5 123.9604,-.5"/>
<text text-anchor="middle" x="166.9873" y="-6.5" font-family="Helvetica,sans-Serif" font-size="10.00" fill="#000000">set_side_speed</text>
</a>
</g>
</g>
<!-- Node76&#45;&gt;Node82 -->
<g id="edge8" class="edge">
<title>Node76&#45;&gt;Node82</title>
<path fill="none" stroke="#191970" d="M96.5334,-19.7294C105.6638,-18.4038 115.0441,-17.0418 123.8615,-15.7616"/>
<polygon fill="#191970" stroke="#191970" points="95.7676,-16.3038 86.3743,-21.2045 96.7734,-23.2312 95.7676,-16.3038"/>
</g>
<!-- Node78 -->
<g id="node3" class="node">
<title>Node78</title>
<g id="a_node3"><a xlink:href="lifter_8c.html#a7452163ed7946b6262f41de51c62dfd4" target="_top" xlink:title="raise_lifter">
<polygon fill="none" stroke="#000000" points="249.0562,-94.5 249.0562,-112.5 311.1841,-112.5 311.1841,-94.5 249.0562,-94.5"/>
<text text-anchor="middle" x="280.1201" y="-100.5" font-family="Helvetica,sans-Serif" font-size="10.00" fill="#000000">raise_lifter</text>
</a>
</g>
</g>
<!-- Node77&#45;&gt;Node78 -->
<g id="edge2" class="edge">
<title>Node77&#45;&gt;Node78</title>
<path fill="none" stroke="#191970" d="M193.9648,-60.0921C214.963,-70.6717 243.5324,-85.0659 261.9031,-94.3217"/>
<polygon fill="#191970" stroke="#191970" points="195.4189,-56.9057 184.9135,-55.5318 192.2692,-63.1571 195.4189,-56.9057"/>
</g>
<!-- Node79 -->
<g id="node4" class="node">
<title>Node79</title>
<g id="a_node4"><a xlink:href="lifter_8c.html#a59bb7413777ca16aba124aaedf95c79b" target="_top" xlink:title="update_lifter">
<polygon fill="none" stroke="#000000" points="367.748,-37.5 367.748,-55.5 438.7871,-55.5 438.7871,-37.5 367.748,-37.5"/>
<text text-anchor="middle" x="403.2676" y="-43.5" font-family="Helvetica,sans-Serif" font-size="10.00" fill="#000000">update_lifter</text>
</a>
</g>
</g>
<!-- Node77&#45;&gt;Node79 -->
<g id="edge7" class="edge">
<title>Node77&#45;&gt;Node79</title>
<path fill="none" stroke="#191970" d="M222.1482,-46.5C267.0534,-46.5 329.1129,-46.5 367.6882,-46.5"/>
<polygon fill="#191970" stroke="#191970" points="221.986,-43.0001 211.986,-46.5 221.9859,-50.0001 221.986,-43.0001"/>
</g>
<!-- Node81 -->
<g id="node6" class="node">
<title>Node81</title>
<g id="a_node6"><a xlink:href="lifter_8c.html#aa7d2d04059f57cc5b8582f6fd0726dc1" target="_top" xlink:title="lower_lifter">
<polygon fill="none" stroke="#000000" points="247.9453,-18.5 247.9453,-36.5 312.2949,-36.5 312.2949,-18.5 247.9453,-18.5"/>
<text text-anchor="middle" x="280.1201" y="-24.5" font-family="Helvetica,sans-Serif" font-size="10.00" fill="#000000">lower_lifter</text>
</a>
</g>
</g>
<!-- Node77&#45;&gt;Node81 -->
<g id="edge5" class="edge">
<title>Node77&#45;&gt;Node81</title>
<path fill="none" stroke="#191970" d="M221.9463,-37.27C230.794,-35.784 239.6942,-34.2893 247.7801,-32.9313"/>
<polygon fill="#191970" stroke="#191970" points="221.3076,-33.8281 212.0255,-38.9361 222.4671,-40.7314 221.3076,-33.8281"/>
</g>
<!-- Node78&#45;&gt;Node79 -->
<g id="edge3" class="edge">
<title>Node78&#45;&gt;Node79</title>
<path fill="none" stroke="#191970" d="M308.8699,-90.1929C331.7814,-79.5881 363.2609,-65.0175 383.438,-55.6783"/>
<polygon fill="#191970" stroke="#191970" points="307.2381,-87.0914 299.6332,-94.4682 310.1784,-93.4439 307.2381,-87.0914"/>
</g>
<!-- Node80 -->
<g id="node5" class="node">
<title>Node80</title>
<g id="a_node5"><a xlink:href="opcontrol_8c.html#ac71a94af413917f27d108e95c4d6f6a7" target="_top" xlink:title="operatorControl">
<polygon fill="none" stroke="#000000" points="494.2402,-18.5 494.2402,-36.5 579.7227,-36.5 579.7227,-18.5 494.2402,-18.5"/>
<text text-anchor="middle" x="536.9814" y="-24.5" font-family="Helvetica,sans-Serif" font-size="10.00" fill="#000000">operatorControl</text>
</a>
</g>
</g>
<!-- Node79&#45;&gt;Node80 -->
<g id="edge4" class="edge">
<title>Node79&#45;&gt;Node80</title>
<path fill="none" stroke="#191970" d="M449.3248,-39.9555C463.7766,-37.902 479.6684,-35.6439 493.9058,-33.6208"/>
<polygon fill="#191970" stroke="#191970" points="448.5086,-36.5363 439.1004,-41.4083 449.4934,-43.4666 448.5086,-36.5363"/>
</g>
<!-- Node81&#45;&gt;Node79 -->
<g id="edge6" class="edge">
<title>Node81&#45;&gt;Node79</title>
<path fill="none" stroke="#191970" d="M322.3743,-34.0193C337.1209,-36.2945 353.5126,-38.8235 367.6637,-41.0068"/>
<polygon fill="#191970" stroke="#191970" points="322.8924,-30.5579 312.4757,-32.492 321.825,-37.476 322.8924,-30.5579"/>
</g>
<!-- Node83 -->
<g id="node8" class="node">
<title>Node83</title>
<g id="a_node8"><a xlink:href="drive_8c.html#a8224a4626a934d30ed587671b7004bf8" target="_top" xlink:title="Updates the drive motors during teleop. ">
<polygon fill="none" stroke="#000000" points="348.2949,-.5 348.2949,-18.5 458.2402,-18.5 458.2402,-.5 348.2949,-.5"/>
<text text-anchor="middle" x="403.2676" y="-6.5" font-family="Helvetica,sans-Serif" font-size="10.00" fill="#000000">update_drive_motors</text>
</a>
</g>
</g>
<!-- Node82&#45;&gt;Node83 -->
<g id="edge9" class="edge">
<title>Node82&#45;&gt;Node83</title>
<path fill="none" stroke="#191970" d="M220.4584,-8.7462C229.6273,-8.6436 239.0604,-8.5549 247.9453,-8.5 276.5446,-8.3234 283.6955,-8.3428 312.2949,-8.5 323.825,-8.5634 336.1766,-8.6719 347.9438,-8.7947"/>
<polygon fill="#191970" stroke="#191970" points="220.2199,-5.2486 210.262,-8.8667 220.3027,-12.2481 220.2199,-5.2486"/>
</g>
<!-- Node83&#45;&gt;Node80 -->
<g id="edge10" class="edge">
<title>Node83&#45;&gt;Node80</title>
<path fill="none" stroke="#191970" d="M468.5888,-18.2933C477.2895,-19.4645 486.025,-20.6405 494.2052,-21.7416"/>
<polygon fill="#191970" stroke="#191970" points="468.8037,-14.7907 458.4261,-16.9252 467.8697,-21.7281 468.8037,-14.7907"/>
</g>
</g>
</svg>
        <g id="navigator" transform="translate(0 0)" fill="#404254">
                <rect fill="#f2f5e9" fill-opacity="0.5" stroke="#606060" stroke-width=".5" x="0" y="0" width="60" height="60"/>
                <use id="zoomplus" xlink:href="#zoomPlus" x="17" y="9" onmousedown="handleZoom(evt,'in')"/>
                <use id="zoomminus" xlink:href="#zoomMin" x="42" y="9" onmousedown="handleZoom(evt,'out')"/>
                <use id="reset" xlink:href="#resetDef" x="30" y="36" onmousedown="handleReset()"/>
                <g id="arrowUp" xlink:href="#dirArrow" transform="translate(30 24)" onmousedown="handlePan(0,-1)">
                  <use xlink:href="#rim" fill="#404040">
                        <set attributeName="fill" to="#808080" begin="arrowUp.mouseover" end="arrowUp.mouseout"/>
                  </use>
                  <path fill="none" stroke="white" stroke-width="1.5" d="M0,-3.0v7 M-2.5,-0.5L0,-3.0L2.5,-0.5"/>
                </g>
                <g id="arrowRight" xlink:href="#dirArrow" transform="rotate(90) translate(36 -43)" onmousedown="handlePan(1,0)">
                  <use xlink:href="#rim" fill="#404040">
                        <set attributeName="fill" to="#808080" begin="arrowRight.mouseover" end="arrowRight.mouseout"/>
                  </use>
                  <path fill="none" stroke="white" stroke-width="1.5" d="M0,-3.0v7 M-2.5,-0.5L0,-3.0L2.5,-0.5"/>
                </g>
                <g id="arrowDown" xlink:href="#dirArrow" transform="rotate(180) translate(-30 -48)" onmousedown="handlePan(0,1)">
                  <use xlink:href="#rim" fill="#404040">
                        <set attributeName="fill" to="#808080" begin="arrowDown.mouseover" end="arrowDown.mouseout"/>
                  </use>
                  <path fill="none" stroke="white" stroke-width="1.5" d="M0,-3.0v7 M-2.5,-0.5L0,-3.0L2.5,-0.5"/>
                </g>
                <g id="arrowLeft" xlink:href="#dirArrow" transform="rotate(270) translate(-36 17)" onmousedown="handlePan(-1,0)">
                  <use xlink:href="#rim" fill="#404040">
                        <set attributeName="fill" to="#808080" begin="arrowLeft.mouseover" end="arrowLeft.mouseout"/>
                  </use>
                  <path fill="none" stroke="white" stroke-width="1.5" d="M0,-3.0v7 M-2.5,-0.5L0,-3.0L2.5,-0.5"/>
                </g>
        </g>
        <svg viewBox="0 0 15 15" width="100%" height="30px" preserveAspectRatio="xMaxYMin meet">
         <g id="arrow_out" transform="scale(0.3 0.3)">
          <a xlink:href="slew_8h_a7dff2b79dffe55fb936d977594d7c01d_icgraph_org.svg" target="_base">
           <rect id="button" ry="5" rx="5" y="6" x="6" height="38" width="38"
                fill="#f2f5e9" fill-opacity="0.5" stroke="#606060" stroke-width="1.0"/>
           <path id="arrow"
             d="M 11.500037,31.436501 C 11.940474,20.09759 22.043105,11.32322 32.158766,21.979434 L 37.068811,17.246167 C 37.068811,17.246167 37.088388,32 37.088388,32 L 22.160133,31.978069 C 22.160133,31.978069 26.997745,27.140456 26.997745,27.140456 C 18.528582,18.264221 13.291696,25.230495 11.500037,31.436501 z"
             style="fill:#404040;"/>
          </a>
         </g>
        </svg>
</svg>
