<?xml version="1.0" encoding="UTF-8" standalone="no"?>
<!DOCTYPE svg PUBLIC "-//W3C//DTD SVG 1.1//EN"
 "http://www.w3.org/Graphics/SVG/1.1/DTD/svg11.dtd">
<!-- Generated by graphviz version 2.40.1 (20161225.0304)
 -->
<!-- Title: set_motor_slew Pages: 1 -->
<!--zoomable 304 -->
<svg id="main" version="1.1" xmlns="http://www.w3.org/2000/svg" xmlns:xlink="http://www.w3.org/1999/xlink" xml:space="preserve" onload="init(evt)">
<style type="text/css"><![CDATA[
.edge:hover path { stroke: red; }
.edge:hover polygon { stroke: red; fill: red; }
]]></style>
<script type="text/javascript"><![CDATA[
var edges = document.getElementsByTagName('g');
if (edges && edges.length) {
  for (var i=0;i<edges.length;i++) {
    if (edges[i].id.substr(0,4)=='edge') {
      edges[i].setAttribute('class','edge');
    }
  }
}
]]></script>
        <defs>
                <circle id="rim" cx="0" cy="0" r="7"/>
                <circle id="rim2" cx="0" cy="0" r="3.5"/>
                <g id="zoomPlus">
                        <use xlink:href="#rim" fill="#404040">
                                <set attributeName="fill" to="#808080" begin="zoomplus.mouseover" end="zoomplus.mouseout"/>
                        </use>
                        <path d="M-4,0h8M0,-4v8" fill="none" stroke="white" stroke-width="1.5" pointer-events="none"/>
                </g>
                <g id="zoomMin">
                        <use xlink:href="#rim" fill="#404040">
                                <set attributeName="fill" to="#808080" begin="zoomminus.mouseover" end="zoomminus.mouseout"/>
                        </use>
                        <path d="M-4,0h8" fill="none" stroke="white" stroke-width="1.5" pointer-events="none"/>
                </g>
                <g id="dirArrow">
                        <path fill="none" stroke="white" stroke-width="1.5" d="M0,-3.0v7 M-2.5,-0.5L0,-3.0L2.5,-0.5"/>
                </g>
               <g id="resetDef">
                       <use xlink:href="#rim2" fill="#404040">
                               <set attributeName="fill" to="#808080" begin="reset.mouseover" end="reset.mouseout"/>
                       </use>
               </g>
        </defs>

<script type="text/javascript">
var viewWidth = 518;
var viewHeight = 304;
var sectionId = 'dynsection-7';
</script>
<script xlink:href="svgpan.js"/>
<svg id="graph" class="graph">
<g id="viewport">
<title>set_motor_slew</title>
<!-- Node68 -->
<g id="node1" class="node">
<title>Node68</title>
<polygon fill="#bfbfbf" stroke="#000000" points="0,-112.5 0,-130.5 86.0293,-130.5 86.0293,-112.5 0,-112.5"/>
<text text-anchor="middle" x="43.0146" y="-118.5" font-family="Helvetica,sans-Serif" font-size="10.00" fill="#000000">set_motor_slew</text>
</g>
<!-- Node69 -->
<g id="node2" class="node">
<title>Node69</title>
<g id="a_node2"><a xlink:href="log_8h.html#af3668f40d1ad1b4f3418869ac9a31f34" target="_top" xlink:title="prints a info message ">
<polygon fill="none" stroke="#000000" points="127.3003,-243.5 127.3003,-261.5 171.1079,-261.5 171.1079,-243.5 127.3003,-243.5"/>
<text text-anchor="middle" x="149.2041" y="-249.5" font-family="Helvetica,sans-Serif" font-size="10.00" fill="#000000">debug</text>
</a>
</g>
</g>
<!-- Node68&#45;&gt;Node69 -->
<g id="edge1" class="edge">
<title>Node68&#45;&gt;Node69</title>
<path fill="none" stroke="#191970" d="M50.3135,-130.5042C67.8182,-152.0987 112.4243,-207.1268 135.2651,-235.3042"/>
<polygon fill="#191970" stroke="#191970" points="132.8382,-237.8685 141.8542,-243.4328 138.276,-233.4605 132.8382,-237.8685"/>
</g>
<!-- Node71 -->
<g id="node4" class="node">
<title>Node71</title>
<g id="a_node4"><a xlink:href="slew_8c.html#a321758941d88b75783955c819bb75005" target="_top" xlink:title="Initializes the slew rate controller. ">
<polygon fill="none" stroke="#000000" points="122.0293,-150.5 122.0293,-168.5 176.3789,-168.5 176.3789,-150.5 122.0293,-150.5"/>
<text text-anchor="middle" x="149.2041" y="-156.5" font-family="Helvetica,sans-Serif" font-size="10.00" fill="#000000">init_slew</text>
</a>
</g>
</g>
<!-- Node68&#45;&gt;Node71 -->
<g id="edge3" class="edge">
<title>Node68&#45;&gt;Node71</title>
<path fill="none" stroke="#191970" d="M68.1801,-130.5055C81.9652,-135.4385 99.2619,-141.6281 114.3303,-147.0204"/>
<polygon fill="#191970" stroke="#191970" points="113.2567,-150.3535 123.8513,-150.4275 115.6153,-143.7628 113.2567,-150.3535"/>
</g>
<!-- Node77 -->
<g id="node10" class="node">
<title>Node77</title>
<g id="a_node10"><a xlink:href="_a_p_i_8h.html#a8b51124628d2a7741738d48551d1e8ee" target="_top" xlink:title="mutexTake">
<polygon fill="none" stroke="#000000" points="325.5264,-75.5 325.5264,-93.5 389.8809,-93.5 389.8809,-75.5 325.5264,-75.5"/>
<text text-anchor="middle" x="357.7036" y="-81.5" font-family="Helvetica,sans-Serif" font-size="10.00" fill="#000000">mutexTake</text>
</a>
</g>
</g>
<!-- Node68&#45;&gt;Node77 -->
<g id="edge19" class="edge">
<title>Node68&#45;&gt;Node77</title>
<path fill="none" stroke="#191970" d="M86.111,-116.4329C146.2948,-109.3567 254.8625,-96.5917 314.8929,-89.5335"/>
<polygon fill="#191970" stroke="#191970" points="315.6371,-92.9702 325.1599,-88.3264 314.8196,-86.0181 315.6371,-92.9702"/>
</g>
<!-- Node78 -->
<g id="node11" class="node">
<title>Node78</title>
<g id="a_node11"><a xlink:href="_a_p_i_8h.html#afe171a08d22de18fc2ab604b2364959f" target="_top" xlink:title="mutexGive">
<polygon fill="none" stroke="#000000" points="325.8071,-.5 325.8071,-18.5 389.6001,-18.5 389.6001,-.5 325.8071,-.5"/>
<text text-anchor="middle" x="357.7036" y="-6.5" font-family="Helvetica,sans-Serif" font-size="10.00" fill="#000000">mutexGive</text>
</a>
</g>
</g>
<!-- Node68&#45;&gt;Node78 -->
<g id="edge18" class="edge">
<title>Node68&#45;&gt;Node78</title>
<path fill="none" stroke="#191970" d="M55.4069,-112.3875C82.3772,-93.0777 149.0694,-48.1265 212.3789,-27.5 245.9632,-16.5581 285.8988,-12.1912 315.3995,-10.4854"/>
<polygon fill="#191970" stroke="#191970" points="315.9511,-13.9623 325.7649,-9.97 315.6035,-6.971 315.9511,-13.9623"/>
</g>
<!-- Node70 -->
<g id="node3" class="node">
<title>Node70</title>
<g id="a_node3"><a xlink:href="_a_p_i_8h.html#a403c82418e475fa4a8273719e6a7f3e6" target="_top" xlink:title="printf">
<polygon fill="none" stroke="#000000" points="448.9497,-262.5 448.9497,-280.5 487.1812,-280.5 487.1812,-262.5 448.9497,-262.5"/>
<text text-anchor="middle" x="468.0654" y="-268.5" font-family="Helvetica,sans-Serif" font-size="10.00" fill="#000000">printf</text>
</a>
</g>
</g>
<!-- Node69&#45;&gt;Node70 -->
<g id="edge2" class="edge">
<title>Node69&#45;&gt;Node70</title>
<path fill="none" stroke="#191970" d="M169.2925,-261.5508C181.5151,-266.6972 197.5749,-272.8288 212.3789,-276.5 289.1872,-295.5474 311.3076,-299.9103 389.8809,-290.5 406.2871,-288.5351 424.2247,-284.3294 438.7755,-280.3733"/>
<polygon fill="#191970" stroke="#191970" points="440.0283,-283.6565 448.702,-277.5723 438.1273,-276.9196 440.0283,-283.6565"/>
</g>
<!-- Node72 -->
<g id="node5" class="node">
<title>Node72</title>
<g id="a_node5"><a xlink:href="log_8h.html#a1606d750e1bb8de9f9e917172bba3382" target="_top" xlink:title="prints a info message ">
<polygon fill="none" stroke="#000000" points="341.6421,-262.5 341.6421,-280.5 373.7651,-280.5 373.7651,-262.5 341.6421,-262.5"/>
<text text-anchor="middle" x="357.7036" y="-268.5" font-family="Helvetica,sans-Serif" font-size="10.00" fill="#000000">info</text>
</a>
</g>
</g>
<!-- Node71&#45;&gt;Node72 -->
<g id="edge4" class="edge">
<title>Node71&#45;&gt;Node72</title>
<path fill="none" stroke="#191970" d="M152.3958,-168.537C159.6768,-187.683 179.4728,-232.2321 212.3789,-252.5 249.007,-275.0604 300.6387,-276.1091 331.4816,-274.2198"/>
<polygon fill="#191970" stroke="#191970" points="331.7601,-277.7088 341.4654,-273.4594 331.2284,-270.729 331.7601,-277.7088"/>
</g>
<!-- Node73 -->
<g id="node6" class="node">
<title>Node73</title>
<g id="a_node6"><a xlink:href="_a_p_i_8h.html#a8966c541f3e9565aea1289f0d2f2cf43" target="_top" xlink:title="motorStopAll">
<polygon fill="none" stroke="#000000" points="214.3296,-187.5 214.3296,-205.5 287.5757,-205.5 287.5757,-187.5 214.3296,-187.5"/>
<text text-anchor="middle" x="250.9526" y="-193.5" font-family="Helvetica,sans-Serif" font-size="10.00" fill="#000000">motorStopAll</text>
</a>
</g>
</g>
<!-- Node71&#45;&gt;Node73 -->
<g id="edge6" class="edge">
<title>Node71&#45;&gt;Node73</title>
<path fill="none" stroke="#191970" d="M174.0946,-168.5512C186.7823,-173.165 202.4174,-178.8506 216.266,-183.8865"/>
<polygon fill="#191970" stroke="#191970" points="215.3724,-187.2857 225.9665,-187.414 217.7647,-180.7072 215.3724,-187.2857"/>
</g>
<!-- Node74 -->
<g id="node7" class="node">
<title>Node74</title>
<g id="a_node7"><a xlink:href="_a_p_i_8h.html#aecd027ce8f8b52a765735e9eb5b202b3" target="_top" xlink:title="mutexCreate">
<polygon fill="none" stroke="#000000" points="214.3296,-150.5 214.3296,-168.5 287.5757,-168.5 287.5757,-150.5 214.3296,-150.5"/>
<text text-anchor="middle" x="250.9526" y="-156.5" font-family="Helvetica,sans-Serif" font-size="10.00" fill="#000000">mutexCreate</text>
</a>
</g>
</g>
<!-- Node71&#45;&gt;Node74 -->
<g id="edge7" class="edge">
<title>Node71&#45;&gt;Node74</title>
<path fill="none" stroke="#191970" d="M176.4708,-159.5C184.9438,-159.5 194.5393,-159.5 203.9565,-159.5"/>
<polygon fill="#191970" stroke="#191970" points="204.0438,-163.0001 214.0437,-159.5 204.0437,-156.0001 204.0438,-163.0001"/>
</g>
<!-- Node75 -->
<g id="node8" class="node">
<title>Node75</title>
<g id="a_node8"><a xlink:href="_a_p_i_8h.html#ab05a241d6d1fd98b1ceb4665db678156" target="_top" xlink:title="taskRunLoop">
<polygon fill="none" stroke="#000000" points="213.4873,-113.5 213.4873,-131.5 288.418,-131.5 288.418,-113.5 213.4873,-113.5"/>
<text text-anchor="middle" x="250.9526" y="-119.5" font-family="Helvetica,sans-Serif" font-size="10.00" fill="#000000">taskRunLoop</text>
</a>
</g>
</g>
<!-- Node71&#45;&gt;Node75 -->
<g id="edge8" class="edge">
<title>Node71&#45;&gt;Node75</title>
<path fill="none" stroke="#191970" d="M174.0946,-150.4488C186.7823,-145.835 202.4174,-140.1494 216.266,-135.1135"/>
<polygon fill="#191970" stroke="#191970" points="217.7647,-138.2928 225.9665,-131.586 215.3724,-131.7143 217.7647,-138.2928"/>
</g>
<!-- Node76 -->
<g id="node9" class="node">
<title>Node76</title>
<g id="a_node9"><a xlink:href="slew_8c.html#a807a87c5df438fde21c1e8213906695b" target="_top" xlink:title="Closes the distance between the desired motor value and the current motor value by half for each moto...">
<polygon fill="none" stroke="#000000" points="212.3789,-37.5 212.3789,-55.5 289.5264,-55.5 289.5264,-37.5 212.3789,-37.5"/>
<text text-anchor="middle" x="250.9526" y="-43.5" font-family="Helvetica,sans-Serif" font-size="10.00" fill="#000000">updateMotors</text>
</a>
</g>
</g>
<!-- Node71&#45;&gt;Node76 -->
<g id="edge9" class="edge">
<title>Node71&#45;&gt;Node76</title>
<path fill="none" stroke="#191970" d="M157.5306,-150.2527C174.6829,-131.2037 214.1656,-87.355 235.9097,-63.2064"/>
<polygon fill="#191970" stroke="#191970" points="238.705,-65.3326 242.7954,-55.5592 233.503,-60.6486 238.705,-65.3326"/>
</g>
<!-- Node80 -->
<g id="node13" class="node">
<title>Node80</title>
<g id="a_node13"><a xlink:href="log_8h.html#a0bec2cf5fff7f607bc510b74aba9887c" target="_top" xlink:title="prints a warning message and displays on lcd. Only will print and display if log_level is greater tha...">
<polygon fill="none" stroke="#000000" points="225.4429,-224.5 225.4429,-242.5 276.4624,-242.5 276.4624,-224.5 225.4429,-224.5"/>
<text text-anchor="middle" x="250.9526" y="-230.5" font-family="Helvetica,sans-Serif" font-size="10.00" fill="#000000">warning</text>
</a>
</g>
</g>
<!-- Node71&#45;&gt;Node80 -->
<g id="edge13" class="edge">
<title>Node71&#45;&gt;Node80</title>
<path fill="none" stroke="#191970" d="M158.0124,-168.5003C169.6974,-180.1132 191.3115,-200.4854 212.3789,-214.5 215.1137,-216.3193 218.048,-218.0745 221.0323,-219.7338"/>
<polygon fill="#191970" stroke="#191970" points="219.4995,-222.8817 229.9861,-224.3928 222.7307,-216.6721 219.4995,-222.8817"/>
</g>
<!-- Node72&#45;&gt;Node70 -->
<g id="edge5" class="edge">
<title>Node72&#45;&gt;Node70</title>
<path fill="none" stroke="#191970" d="M373.9879,-271.5C390.9394,-271.5 417.8552,-271.5 438.5624,-271.5"/>
<polygon fill="#191970" stroke="#191970" points="438.7393,-275.0001 448.7393,-271.5 438.7392,-268.0001 438.7393,-275.0001"/>
</g>
<!-- Node76&#45;&gt;Node77 -->
<g id="edge10" class="edge">
<title>Node76&#45;&gt;Node77</title>
<path fill="none" stroke="#191970" d="M276.2511,-55.5055C290.1092,-60.4385 307.4973,-66.6281 322.6454,-72.0204"/>
<polygon fill="#191970" stroke="#191970" points="321.6221,-75.3712 332.2168,-75.4275 323.9696,-68.7765 321.6221,-75.3712"/>
</g>
<!-- Node76&#45;&gt;Node78 -->
<g id="edge11" class="edge">
<title>Node76&#45;&gt;Node78</title>
<path fill="none" stroke="#191970" d="M277.0669,-37.4488C290.5076,-32.7902 307.1009,-27.0389 321.7342,-21.967"/>
<polygon fill="#191970" stroke="#191970" points="323.1867,-25.168 331.489,-18.586 320.8942,-18.554 323.1867,-25.168"/>
</g>
<!-- Node79 -->
<g id="node12" class="node">
<title>Node79</title>
<g id="a_node12"><a xlink:href="_a_p_i_8h.html#a03c5b04b472d024281f62d7af8854a8e" target="_top" xlink:title="motorSet">
<polygon fill="none" stroke="#000000" points="329.418,-37.5 329.418,-55.5 385.9893,-55.5 385.9893,-37.5 329.418,-37.5"/>
<text text-anchor="middle" x="357.7036" y="-43.5" font-family="Helvetica,sans-Serif" font-size="10.00" fill="#000000">motorSet</text>
</a>
</g>
</g>
<!-- Node76&#45;&gt;Node79 -->
<g id="edge12" class="edge">
<title>Node76&#45;&gt;Node79</title>
<path fill="none" stroke="#191970" d="M289.7942,-46.5C299.3381,-46.5 309.5532,-46.5 319.0865,-46.5"/>
<polygon fill="#191970" stroke="#191970" points="319.0996,-50.0001 329.0996,-46.5 319.0996,-43.0001 319.0996,-50.0001"/>
</g>
<!-- Node81 -->
<g id="node14" class="node">
<title>Node81</title>
<g id="a_node14"><a xlink:href="log_8c.html#afff22aff6749311a684a559cac3ac8bd" target="_top" xlink:title="log_info">
<polygon fill="none" stroke="#000000" points="332.189,-225.5 332.189,-243.5 383.2183,-243.5 383.2183,-225.5 332.189,-225.5"/>
<text text-anchor="middle" x="357.7036" y="-231.5" font-family="Helvetica,sans-Serif" font-size="10.00" fill="#000000">log_info</text>
</a>
</g>
</g>
<!-- Node80&#45;&gt;Node81 -->
<g id="edge14" class="edge">
<title>Node80&#45;&gt;Node81</title>
<path fill="none" stroke="#191970" d="M276.5222,-233.7395C290.0229,-233.866 306.8165,-234.0233 321.6204,-234.162"/>
<polygon fill="#191970" stroke="#191970" points="321.9404,-237.665 331.9728,-234.259 322.006,-230.6653 321.9404,-237.665"/>
</g>
<!-- Node81&#45;&gt;Node70 -->
<g id="edge17" class="edge">
<title>Node81&#45;&gt;Node70</title>
<path fill="none" stroke="#191970" d="M383.3002,-243.0815C400.0141,-248.6851 421.8692,-256.0122 439.2012,-261.823"/>
<polygon fill="#191970" stroke="#191970" points="438.2164,-265.1842 448.8103,-265.0445 440.4416,-258.5473 438.2164,-265.1842"/>
</g>
<!-- Node82 -->
<g id="node15" class="node">
<title>Node82</title>
<g id="a_node15"><a xlink:href="_a_p_i_8h.html#a5fa1d119fe3e836b5519f97eae7a1272" target="_top" xlink:title="lcdClear">
<polygon fill="none" stroke="#000000" points="441.7256,-225.5 441.7256,-243.5 494.4053,-243.5 494.4053,-225.5 441.7256,-225.5"/>
<text text-anchor="middle" x="468.0654" y="-231.5" font-family="Helvetica,sans-Serif" font-size="10.00" fill="#000000">lcdClear</text>
</a>
</g>
</g>
<!-- Node81&#45;&gt;Node82 -->
<g id="edge15" class="edge">
<title>Node81&#45;&gt;Node82</title>
<path fill="none" stroke="#191970" d="M383.3002,-234.5C397.476,-234.5 415.3502,-234.5 431.0263,-234.5"/>
<polygon fill="#191970" stroke="#191970" points="431.4555,-238.0001 441.4554,-234.5 431.4554,-231.0001 431.4555,-238.0001"/>
</g>
<!-- Node83 -->
<g id="node16" class="node">
<title>Node83</title>
<g id="a_node16"><a xlink:href="_a_p_i_8h.html#aab53a247d88151a6623c20fa1ea940b0" target="_top" xlink:title="lcdSetBacklight">
<polygon fill="none" stroke="#000000" points="425.8809,-188.5 425.8809,-206.5 510.25,-206.5 510.25,-188.5 425.8809,-188.5"/>
<text text-anchor="middle" x="468.0654" y="-194.5" font-family="Helvetica,sans-Serif" font-size="10.00" fill="#000000">lcdSetBacklight</text>
</a>
</g>
</g>
<!-- Node81&#45;&gt;Node83 -->
<g id="edge16" class="edge">
<title>Node81&#45;&gt;Node83</title>
<path fill="none" stroke="#191970" d="M383.3002,-225.9185C397.6432,-221.1098 415.7722,-215.0319 431.5799,-209.7322"/>
<polygon fill="#191970" stroke="#191970" points="432.6991,-213.0485 441.0679,-206.5512 430.474,-206.4115 432.6991,-213.0485"/>
</g>
</g>
</svg>
        <g id="navigator" transform="translate(0 0)" fill="#404254">
                <rect fill="#f2f5e9" fill-opacity="0.5" stroke="#606060" stroke-width=".5" x="0" y="0" width="60" height="60"/>
                <use id="zoomplus" xlink:href="#zoomPlus" x="17" y="9" onmousedown="handleZoom(evt,'in')"/>
                <use id="zoomminus" xlink:href="#zoomMin" x="42" y="9" onmousedown="handleZoom(evt,'out')"/>
                <use id="reset" xlink:href="#resetDef" x="30" y="36" onmousedown="handleReset()"/>
                <g id="arrowUp" xlink:href="#dirArrow" transform="translate(30 24)" onmousedown="handlePan(0,-1)">
                  <use xlink:href="#rim" fill="#404040">
                        <set attributeName="fill" to="#808080" begin="arrowUp.mouseover" end="arrowUp.mouseout"/>
                  </use>
                  <path fill="none" stroke="white" stroke-width="1.5" d="M0,-3.0v7 M-2.5,-0.5L0,-3.0L2.5,-0.5"/>
                </g>
                <g id="arrowRight" xlink:href="#dirArrow" transform="rotate(90) translate(36 -43)" onmousedown="handlePan(1,0)">
                  <use xlink:href="#rim" fill="#404040">
                        <set attributeName="fill" to="#808080" begin="arrowRight.mouseover" end="arrowRight.mouseout"/>
                  </use>
                  <path fill="none" stroke="white" stroke-width="1.5" d="M0,-3.0v7 M-2.5,-0.5L0,-3.0L2.5,-0.5"/>
                </g>
                <g id="arrowDown" xlink:href="#dirArrow" transform="rotate(180) translate(-30 -48)" onmousedown="handlePan(0,1)">
                  <use xlink:href="#rim" fill="#404040">
                        <set attributeName="fill" to="#808080" begin="arrowDown.mouseover" end="arrowDown.mouseout"/>
                  </use>
                  <path fill="none" stroke="white" stroke-width="1.5" d="M0,-3.0v7 M-2.5,-0.5L0,-3.0L2.5,-0.5"/>
                </g>
                <g id="arrowLeft" xlink:href="#dirArrow" transform="rotate(270) translate(-36 17)" onmousedown="handlePan(-1,0)">
                  <use xlink:href="#rim" fill="#404040">
                        <set attributeName="fill" to="#808080" begin="arrowLeft.mouseover" end="arrowLeft.mouseout"/>
                  </use>
                  <path fill="none" stroke="white" stroke-width="1.5" d="M0,-3.0v7 M-2.5,-0.5L0,-3.0L2.5,-0.5"/>
                </g>
        </g>
        <svg viewBox="0 0 15 15" width="100%" height="30px" preserveAspectRatio="xMaxYMin meet">
         <g id="arrow_out" transform="scale(0.3 0.3)">
          <a xlink:href="slew_8c_a7dff2b79dffe55fb936d977594d7c01d_cgraph_org.svg" target="_base">
           <rect id="button" ry="5" rx="5" y="6" x="6" height="38" width="38"
                fill="#f2f5e9" fill-opacity="0.5" stroke="#606060" stroke-width="1.0"/>
           <path id="arrow"
             d="M 11.500037,31.436501 C 11.940474,20.09759 22.043105,11.32322 32.158766,21.979434 L 37.068811,17.246167 C 37.068811,17.246167 37.088388,32 37.088388,32 L 22.160133,31.978069 C 22.160133,31.978069 26.997745,27.140456 26.997745,27.140456 C 18.528582,18.264221 13.291696,25.230495 11.500037,31.436501 z"
             style="fill:#404040;"/>
          </a>
         </g>
        </svg>
</svg>
