<?xml version="1.0" encoding="UTF-8" standalone="no"?>
<!DOCTYPE svg PUBLIC "-//W3C//DTD SVG 1.1//EN"
 "http://www.w3.org/Graphics/SVG/1.1/DTD/svg11.dtd">
<!-- Generated by graphviz version 2.40.1 (20161225.0304)
 -->
<!-- Title: set_motor_slew Pages: 1 -->
<svg width="671pt" height="341pt"
 viewBox="0.00 0.00 670.56 341.19" xmlns="http://www.w3.org/2000/svg" xmlns:xlink="http://www.w3.org/1999/xlink">
<g id="graph0" class="graph" transform="scale(1 1) rotate(0) translate(4 337.1942)">
<title>set_motor_slew</title>
<!-- Node102 -->
<g id="node1" class="node">
<title>Node102</title>
<polygon fill="#bfbfbf" stroke="#000000" points="0,-171.7512 0,-189.7512 86.0293,-189.7512 86.0293,-171.7512 0,-171.7512"/>
<text text-anchor="middle" x="43.0146" y="-177.7512" font-family="Helvetica,sans-Serif" font-size="10.00" fill="#000000">set_motor_slew</text>
</g>
<!-- Node103 -->
<g id="node2" class="node">
<title>Node103</title>
<g id="a_node2"><a xlink:href="lifter_8c.html#ad00a195af30f246924d6e1a30095b882" target="_top" xlink:title="Sets the main lifter motors to the given value. ">
<polygon fill="none" stroke="#000000" points="122.0293,-96.7512 122.0293,-114.7512 239.1816,-114.7512 239.1816,-96.7512 122.0293,-96.7512"/>
<text text-anchor="middle" x="180.6055" y="-102.7512" font-family="Helvetica,sans-Serif" font-size="10.00" fill="#000000">set_main_lifter_motors</text>
</a>
</g>
</g>
<!-- Node102&#45;&gt;Node103 -->
<g id="edge1" class="edge">
<title>Node102&#45;&gt;Node103</title>
<path fill="none" stroke="#191970" d="M68.7534,-166.7212C96.624,-151.5291 140.2605,-127.7431 163.9499,-114.8301"/>
<polygon fill="#191970" stroke="#191970" points="66.7165,-163.8452 59.6113,-171.7045 70.0668,-169.9915 66.7165,-163.8452"/>
</g>
<!-- Node113 -->
<g id="node12" class="node">
<title>Node113</title>
<g id="a_node12"><a xlink:href="drive_8c.html#a8df41fd50094c065eedc81fc5e6595d1" target="_top" xlink:title="sets the speed of one side of the robot. ">
<polygon fill="none" stroke="#000000" points="137.5786,-246.7512 137.5786,-264.7512 223.6323,-264.7512 223.6323,-246.7512 137.5786,-246.7512"/>
<text text-anchor="middle" x="180.6055" y="-252.7512" font-family="Helvetica,sans-Serif" font-size="10.00" fill="#000000">set_side_speed</text>
</a>
</g>
</g>
<!-- Node102&#45;&gt;Node113 -->
<g id="edge13" class="edge">
<title>Node102&#45;&gt;Node113</title>
<path fill="none" stroke="#191970" d="M68.7534,-194.7813C96.624,-209.9734 140.2605,-233.7594 163.9499,-246.6724"/>
<polygon fill="#191970" stroke="#191970" points="70.0668,-191.511 59.6113,-189.798 66.7165,-197.6572 70.0668,-191.511"/>
</g>
<!-- Node104 -->
<g id="node3" class="node">
<title>Node104</title>
<g id="a_node3"><a xlink:href="auto_8c.html#a51a62a1a0851cc5939a2c6034849e380" target="_top" xlink:title="utility function to raise the mainlifter to the mobile goal height ">
<polygon fill="none" stroke="#000000" points="275.1816,-96.7512 275.1816,-114.7512 395.1318,-114.7512 395.1318,-96.7512 275.1816,-96.7512"/>
<text text-anchor="middle" x="335.1567" y="-102.7512" font-family="Helvetica,sans-Serif" font-size="10.00" fill="#000000">auton_rasie_main_lifter</text>
</a>
</g>
</g>
<!-- Node103&#45;&gt;Node104 -->
<g id="edge2" class="edge">
<title>Node103&#45;&gt;Node104</title>
<path fill="none" stroke="#191970" d="M249.7318,-105.7512C258.2168,-105.7512 266.8343,-105.7512 275.169,-105.7512"/>
<polygon fill="#191970" stroke="#191970" points="249.4756,-102.2513 239.4756,-105.7512 249.4755,-109.2513 249.4756,-102.2513"/>
</g>
<!-- Node106 -->
<g id="node5" class="node">
<title>Node106</title>
<g id="a_node5"><a xlink:href="lifter_8c.html#aa4d172cbde795bc13fe6baabd074717e" target="_top" xlink:title="quit_auto_static">
<polygon fill="none" stroke="#000000" points="292.1323,-22.7512 292.1323,-40.7512 378.1812,-40.7512 378.1812,-22.7512 292.1323,-22.7512"/>
<text text-anchor="middle" x="335.1567" y="-28.7512" font-family="Helvetica,sans-Serif" font-size="10.00" fill="#000000">quit_auto_static</text>
</a>
</g>
</g>
<!-- Node103&#45;&gt;Node106 -->
<g id="edge4" class="edge">
<title>Node103&#45;&gt;Node106</title>
<path fill="none" stroke="#191970" d="M202.598,-91.0906C221.3118,-79.0795 249.2107,-62.2486 275.1816,-50.7512 283.671,-46.993 293.1348,-43.6358 301.9901,-40.8277"/>
<polygon fill="#191970" stroke="#191970" points="200.6716,-88.1683 194.1978,-96.5552 204.4887,-94.036 200.6716,-88.1683"/>
</g>
<!-- Node107 -->
<g id="node6" class="node">
<title>Node107</title>
<g id="a_node6"><a xlink:href="lifter_8c.html#a8a64fa88b389b39c236c5c57a7fb5c67" target="_top" xlink:title="Autostacks a cone once picked up. ">
<polygon fill="none" stroke="#000000" points="438.6343,-22.7512 438.6343,-40.7512 533.5747,-40.7512 533.5747,-22.7512 438.6343,-22.7512"/>
<text text-anchor="middle" x="486.1045" y="-28.7512" font-family="Helvetica,sans-Serif" font-size="10.00" fill="#000000">autostack_routine</text>
</a>
</g>
</g>
<!-- Node103&#45;&gt;Node107 -->
<g id="edge7" class="edge">
<title>Node103&#45;&gt;Node107</title>
<path fill="none" stroke="#191970" d="M192.052,-87.9587C207.6901,-65.4922 238.0723,-27.9401 275.1816,-12.7512 338.812,13.2927 422.0276,-8.8501 462.2634,-22.6784"/>
<polygon fill="#191970" stroke="#191970" points="188.9483,-86.3022 186.276,-96.5544 194.7585,-90.2063 188.9483,-86.3022"/>
</g>
<!-- Node109 -->
<g id="node8" class="node">
<title>Node109</title>
<g id="a_node8"><a xlink:href="lifter_8c.html#a2e2bd38b5b8b52378f3510368bf8aa0a" target="_top" xlink:title="Raises the main lifter. ">
<polygon fill="none" stroke="#000000" points="290.4746,-133.7512 290.4746,-151.7512 379.8389,-151.7512 379.8389,-133.7512 290.4746,-133.7512"/>
<text text-anchor="middle" x="335.1567" y="-139.7512" font-family="Helvetica,sans-Serif" font-size="10.00" fill="#000000">raise_main_lifter</text>
</a>
</g>
</g>
<!-- Node103&#45;&gt;Node109 -->
<g id="edge8" class="edge">
<title>Node103&#45;&gt;Node109</title>
<path fill="none" stroke="#191970" d="M228.3269,-117.1759C250.5644,-122.4996 276.6462,-128.7437 297.472,-133.7294"/>
<polygon fill="#191970" stroke="#191970" points="228.9531,-113.727 218.413,-114.8025 227.3232,-120.5346 228.9531,-113.727"/>
</g>
<!-- Node110 -->
<g id="node9" class="node">
<title>Node110</title>
<g id="a_node9"><a xlink:href="lifter_8c.html#ad36c37086a91046af4e6f619618b7719" target="_top" xlink:title="Lowers the main lifter. ">
<polygon fill="none" stroke="#000000" points="289.3638,-170.7512 289.3638,-188.7512 380.9497,-188.7512 380.9497,-170.7512 289.3638,-170.7512"/>
<text text-anchor="middle" x="335.1567" y="-176.7512" font-family="Helvetica,sans-Serif" font-size="10.00" fill="#000000">lower_main_lifter</text>
</a>
</g>
</g>
<!-- Node103&#45;&gt;Node110 -->
<g id="edge9" class="edge">
<title>Node103&#45;&gt;Node110</title>
<path fill="none" stroke="#191970" d="M201.8738,-120.3867C220.5357,-132.7218 248.7478,-150.1652 275.1816,-161.7512 282.9479,-165.1552 291.5494,-168.1559 299.7561,-170.6831"/>
<polygon fill="#191970" stroke="#191970" points="203.7839,-117.4535 193.5293,-114.7897 199.8845,-123.2669 203.7839,-117.4535"/>
</g>
<!-- Node111 -->
<g id="node10" class="node">
<title>Node111</title>
<g id="a_node10"><a xlink:href="lifter_8c.html#adfb6207ee1f20953058c8de81ec3386a" target="_top" xlink:title="main_lifter_update">
<polygon fill="none" stroke="#000000" points="286.019,-59.7512 286.019,-77.7512 384.2944,-77.7512 384.2944,-59.7512 286.019,-59.7512"/>
<text text-anchor="middle" x="335.1567" y="-65.7512" font-family="Helvetica,sans-Serif" font-size="10.00" fill="#000000">main_lifter_update</text>
</a>
</g>
</g>
<!-- Node103&#45;&gt;Node111 -->
<g id="edge10" class="edge">
<title>Node103&#45;&gt;Node111</title>
<path fill="none" stroke="#191970" d="M228.3269,-94.3266C250.5644,-89.0029 276.6462,-82.7588 297.472,-77.7731"/>
<polygon fill="#191970" stroke="#191970" points="227.3232,-90.9679 218.413,-96.7 228.9531,-97.7755 227.3232,-90.9679"/>
</g>
<!-- Node105 -->
<g id="node4" class="node">
<title>Node105</title>
<g id="a_node4"><a xlink:href="auto_8c.html#a3c7ca506bbc071fa740de13805b7f376" target="_top" xlink:title="Runs the user autonomous code. ">
<polygon fill="none" stroke="#000000" points="450.585,-227.7512 450.585,-245.7512 521.624,-245.7512 521.624,-227.7512 450.585,-227.7512"/>
<text text-anchor="middle" x="486.1045" y="-233.7512" font-family="Helvetica,sans-Serif" font-size="10.00" fill="#000000">autonomous</text>
</a>
</g>
</g>
<!-- Node104&#45;&gt;Node105 -->
<g id="edge3" class="edge">
<title>Node104&#45;&gt;Node105</title>
<path fill="none" stroke="#191970" d="M384.5108,-118.7342C388.2339,-120.5024 391.8237,-122.4991 395.1318,-124.7512 436.9609,-153.2277 469.4198,-206.4982 481.2523,-227.7046"/>
<polygon fill="#191970" stroke="#191970" points="385.643,-115.4142 375.0663,-114.7941 382.9478,-121.8746 385.643,-115.4142"/>
</g>
<!-- Node106&#45;&gt;Node107 -->
<g id="edge5" class="edge">
<title>Node106&#45;&gt;Node107</title>
<path fill="none" stroke="#191970" d="M388.8393,-31.7512C405.0832,-31.7512 422.8,-31.7512 438.6091,-31.7512"/>
<polygon fill="#191970" stroke="#191970" points="388.4123,-28.2513 378.4123,-31.7512 388.4123,-35.2513 388.4123,-28.2513"/>
</g>
<!-- Node108 -->
<g id="node7" class="node">
<title>Node108</title>
<g id="a_node7"><a xlink:href="opcontrol_8c.html#ac71a94af413917f27d108e95c4d6f6a7" target="_top" xlink:title="Runs the user operator control code. ">
<polygon fill="none" stroke="#000000" points="577.0771,-59.7512 577.0771,-77.7512 662.5596,-77.7512 662.5596,-59.7512 577.0771,-59.7512"/>
<text text-anchor="middle" x="619.8184" y="-65.7512" font-family="Helvetica,sans-Serif" font-size="10.00" fill="#000000">operatorControl</text>
</a>
</g>
</g>
<!-- Node107&#45;&gt;Node108 -->
<g id="edge6" class="edge">
<title>Node107&#45;&gt;Node108</title>
<path fill="none" stroke="#191970" d="M528.6589,-43.5265C547.5329,-48.7491 569.398,-54.7994 586.9825,-59.6652"/>
<polygon fill="#191970" stroke="#191970" points="529.3859,-40.0962 518.8146,-40.8025 527.519,-46.8427 529.3859,-40.0962"/>
</g>
<!-- Node112 -->
<g id="node11" class="node">
<title>Node112</title>
<g id="a_node11"><a xlink:href="lifter_8c.html#a59bb7413777ca16aba124aaedf95c79b" target="_top" xlink:title="Updates the lifter in teleop. ">
<polygon fill="none" stroke="#000000" points="450.585,-59.7512 450.585,-77.7512 521.624,-77.7512 521.624,-59.7512 450.585,-59.7512"/>
<text text-anchor="middle" x="486.1045" y="-65.7512" font-family="Helvetica,sans-Serif" font-size="10.00" fill="#000000">update_lifter</text>
</a>
</g>
</g>
<!-- Node111&#45;&gt;Node112 -->
<g id="edge11" class="edge">
<title>Node111&#45;&gt;Node112</title>
<path fill="none" stroke="#191970" d="M394.6013,-68.7512C413.4893,-68.7512 433.7815,-68.7512 450.4455,-68.7512"/>
<polygon fill="#191970" stroke="#191970" points="394.5827,-65.2513 384.5827,-68.7512 394.5826,-72.2513 394.5827,-65.2513"/>
</g>
<!-- Node112&#45;&gt;Node108 -->
<g id="edge12" class="edge">
<title>Node112&#45;&gt;Node108</title>
<path fill="none" stroke="#191970" d="M532.1617,-68.7512C546.6135,-68.7512 562.5053,-68.7512 576.7427,-68.7512"/>
<polygon fill="#191970" stroke="#191970" points="531.9374,-65.2513 521.9374,-68.7512 531.9373,-72.2513 531.9374,-65.2513"/>
</g>
<!-- Node113&#45;&gt;Node105 -->
<g id="edge18" class="edge">
<title>Node113&#45;&gt;Node105</title>
<path fill="none" stroke="#191970" d="M229.3544,-244.7054C244.0071,-241.8649 260.1775,-239.2022 275.1816,-237.7512 336.5981,-231.8118 408.5439,-233.2579 450.5507,-234.9402"/>
<polygon fill="#191970" stroke="#191970" points="228.6006,-241.2868 219.4857,-246.6876 229.9791,-248.1497 228.6006,-241.2868"/>
</g>
<!-- Node114 -->
<g id="node13" class="node">
<title>Node114</title>
<g id="a_node13"><a xlink:href="auto_8c.html#a42084538c07a7089a1fe425c4f97650a" target="_top" xlink:title="Drives the robot forward until it reaches the mobile goal. ">
<polygon fill="none" stroke="#000000" points="280.7383,-283.7512 280.7383,-311.7512 389.5752,-311.7512 389.5752,-283.7512 280.7383,-283.7512"/>
<text text-anchor="start" x="288.7383" y="-299.7512" font-family="Helvetica,sans-Serif" font-size="10.00" fill="#000000">auton_drive_towards</text>
<text text-anchor="middle" x="335.1567" y="-289.7512" font-family="Helvetica,sans-Serif" font-size="10.00" fill="#000000">_mobile_goal</text>
</a>
</g>
</g>
<!-- Node113&#45;&gt;Node114 -->
<g id="edge14" class="edge">
<title>Node113&#45;&gt;Node114</title>
<path fill="none" stroke="#191970" d="M223.4356,-267.3905C242.0446,-272.4476 264.0043,-278.4152 283.5079,-283.7154"/>
<polygon fill="#191970" stroke="#191970" points="224.3285,-264.0063 213.7606,-264.7613 222.4927,-270.7613 224.3285,-264.0063"/>
</g>
<!-- Node115 -->
<g id="node14" class="node">
<title>Node115</title>
<g id="a_node14"><a xlink:href="auto_8c.html#a8141105864165fcb16d70f7cc72a1b6f" target="_top" xlink:title="Rotates the robot 180 degrees clockwise. ">
<polygon fill="none" stroke="#000000" points="292.125,-246.7512 292.125,-264.7512 378.1885,-264.7512 378.1885,-246.7512 292.125,-246.7512"/>
<text text-anchor="middle" x="335.1567" y="-252.7512" font-family="Helvetica,sans-Serif" font-size="10.00" fill="#000000">auton_turn_180</text>
</a>
</g>
</g>
<!-- Node113&#45;&gt;Node115 -->
<g id="edge16" class="edge">
<title>Node113&#45;&gt;Node115</title>
<path fill="none" stroke="#191970" d="M233.6859,-255.7512C252.7368,-255.7512 273.9696,-255.7512 292.0687,-255.7512"/>
<polygon fill="#191970" stroke="#191970" points="233.6566,-252.2513 223.6566,-255.7512 233.6566,-259.2513 233.6566,-252.2513"/>
</g>
<!-- Node116 -->
<g id="node15" class="node">
<title>Node116</title>
<g id="a_node15"><a xlink:href="drive_8c.html#a8224a4626a934d30ed587671b7004bf8" target="_top" xlink:title="Updates the drive motors during teleop. ">
<polygon fill="none" stroke="#000000" points="431.1318,-307.7512 431.1318,-325.7512 541.0771,-325.7512 541.0771,-307.7512 431.1318,-307.7512"/>
<text text-anchor="middle" x="486.1045" y="-313.7512" font-family="Helvetica,sans-Serif" font-size="10.00" fill="#000000">update_drive_motors</text>
</a>
</g>
</g>
<!-- Node113&#45;&gt;Node116 -->
<g id="edge19" class="edge">
<title>Node113&#45;&gt;Node116</title>
<path fill="none" stroke="#191970" d="M197.1226,-272.1082C214.7452,-288.3052 244.3226,-312.0483 275.1816,-321.7512 330.9145,-339.2752 399.0766,-333.0218 442.5451,-325.8172"/>
<polygon fill="#191970" stroke="#191970" points="199.1426,-269.2002 189.4786,-264.8577 194.3253,-274.2789 199.1426,-269.2002"/>
</g>
<!-- Node114&#45;&gt;Node105 -->
<g id="edge15" class="edge">
<title>Node114&#45;&gt;Node105</title>
<path fill="none" stroke="#191970" d="M382.013,-279.9351C386.454,-278.2005 390.8825,-276.4531 395.1318,-274.7512 419.1248,-265.1421 446.4644,-253.6479 464.8551,-245.8357"/>
<polygon fill="#191970" stroke="#191970" points="380.3927,-276.8094 372.3355,-283.6893 382.9244,-283.3356 380.3927,-276.8094"/>
</g>
<!-- Node115&#45;&gt;Node105 -->
<g id="edge17" class="edge">
<title>Node115&#45;&gt;Node105</title>
<path fill="none" stroke="#191970" d="M388.5794,-249.0269C409.1071,-246.443 432.0205,-243.5589 450.4769,-241.2357"/>
<polygon fill="#191970" stroke="#191970" points="387.8969,-245.5851 378.4123,-250.3066 388.7711,-252.5303 387.8969,-245.5851"/>
</g>
<!-- Node116&#45;&gt;Node108 -->
<g id="edge20" class="edge">
<title>Node116&#45;&gt;Node108</title>
<path fill="none" stroke="#191970" d="M503.6198,-300.4339C515.3493,-288.815 530.5173,-272.3717 541.0771,-255.7512 581.1251,-192.7184 608.8436,-105.8408 617.1888,-77.8387"/>
<polygon fill="#191970" stroke="#191970" points="500.9097,-298.1854 496.1477,-307.6498 505.7724,-303.2208 500.9097,-298.1854"/>
</g>
</g>
</svg>
