<?xml version="1.0" encoding="UTF-8" standalone="no"?>
<!DOCTYPE svg PUBLIC "-//W3C//DTD SVG 1.1//EN"
 "http://www.w3.org/Graphics/SVG/1.1/DTD/svg11.dtd">
<!-- Generated by graphviz version 2.40.1 (20161225.0304)
 -->
<!-- Title: src/slew.c Pages: 1 -->
<svg width="295pt" height="247pt"
 viewBox="0.00 0.00 295.41 247.00" xmlns="http://www.w3.org/2000/svg" xmlns:xlink="http://www.w3.org/1999/xlink">
<g id="graph0" class="graph" transform="scale(1 1) rotate(0) translate(4 243)">
<title>src/slew.c</title>
<!-- Node0 -->
<g id="node1" class="node">
<title>Node0</title>
<polygon fill="#bfbfbf" stroke="#000000" points="88.6133,-220.5 88.6133,-238.5 147.958,-238.5 147.958,-220.5 88.6133,-220.5"/>
<text text-anchor="middle" x="118.2856" y="-226.5" font-family="Helvetica,sans-Serif" font-size="10.00" fill="#000000">src/slew.c</text>
</g>
<!-- Node1 -->
<g id="node2" class="node">
<title>Node1</title>
<g id="a_node2"><a xlink:href="slew_8h.html" target="_top" xlink:title="Contains the slew rate controller wrapper for the motors. ">
<polygon fill="none" stroke="#000000" points="67.3867,-165.5 67.3867,-183.5 111.1846,-183.5 111.1846,-165.5 67.3867,-165.5"/>
<text text-anchor="middle" x="89.2856" y="-171.5" font-family="Helvetica,sans-Serif" font-size="10.00" fill="#000000">slew.h</text>
</a>
</g>
</g>
<!-- Node0&#45;&gt;Node1 -->
<g id="edge1" class="edge">
<title>Node0&#45;&gt;Node1</title>
<path fill="none" stroke="#191970" d="M113.4969,-220.4179C109.5328,-212.8998 103.7766,-201.9829 98.8714,-192.6799"/>
<polygon fill="#191970" stroke="#191970" points="101.9386,-190.9927 94.1784,-183.7795 95.7466,-194.2576 101.9386,-190.9927"/>
</g>
<!-- Node10 -->
<g id="node11" class="node">
<title>Node10</title>
<g id="a_node11"><a xlink:href="log_8h.html" target="_top" xlink:title="Contains logging functions. ">
<polygon fill="none" stroke="#000000" points="147.4434,-165.5 147.4434,-183.5 185.1279,-183.5 185.1279,-165.5 147.4434,-165.5"/>
<text text-anchor="middle" x="166.2856" y="-171.5" font-family="Helvetica,sans-Serif" font-size="10.00" fill="#000000">log.h</text>
</a>
</g>
</g>
<!-- Node0&#45;&gt;Node10 -->
<g id="edge12" class="edge">
<title>Node0&#45;&gt;Node10</title>
<path fill="none" stroke="#191970" d="M126.2119,-220.4179C133.0493,-212.5833 143.1082,-201.0575 151.4373,-191.5137"/>
<polygon fill="#191970" stroke="#191970" points="154.2488,-193.6151 158.1872,-183.7795 148.9748,-189.0123 154.2488,-193.6151"/>
</g>
<!-- Node2 -->
<g id="node3" class="node">
<title>Node2</title>
<g id="a_node3"><a xlink:href="_a_p_i_8h.html" target="_top" xlink:title="Provides the high&#45;level user functionality intended for use by typical VEX Cortex programmers...">
<polygon fill="none" stroke="#000000" points="139.0566,-55.5 139.0566,-73.5 179.5146,-73.5 179.5146,-55.5 139.0566,-55.5"/>
<text text-anchor="middle" x="159.2856" y="-61.5" font-family="Helvetica,sans-Serif" font-size="10.00" fill="#000000">API.h</text>
</a>
</g>
</g>
<!-- Node1&#45;&gt;Node2 -->
<g id="edge2" class="edge">
<title>Node1&#45;&gt;Node2</title>
<path fill="none" stroke="#191970" d="M95.014,-165.4982C106.5508,-147.369 132.7717,-106.1647 147.9164,-82.3659"/>
<polygon fill="#191970" stroke="#191970" points="151.0621,-83.9419 153.4781,-73.6261 145.1565,-80.1837 151.0621,-83.9419"/>
</g>
<!-- Node7 -->
<g id="node8" class="node">
<title>Node7</title>
<polygon fill="none" stroke="#bfbfbf" points="0,-55.5 0,-73.5 46.5713,-73.5 46.5713,-55.5 0,-55.5"/>
<text text-anchor="middle" x="23.2856" y="-61.5" font-family="Helvetica,sans-Serif" font-size="10.00" fill="#000000">math.h</text>
</g>
<!-- Node1&#45;&gt;Node7 -->
<g id="edge7" class="edge">
<title>Node1&#45;&gt;Node7</title>
<path fill="none" stroke="#191970" d="M76.7415,-165.3865C66.1147,-157.0414 51.2207,-143.7702 42.2856,-129 33.8831,-115.1101 29.0028,-97.2779 26.2975,-83.885"/>
<polygon fill="#191970" stroke="#191970" points="29.7112,-83.0917 24.507,-73.8631 22.8203,-84.3228 29.7112,-83.0917"/>
</g>
<!-- Node8 -->
<g id="node9" class="node">
<title>Node8</title>
<g id="a_node9"><a xlink:href="vlib_8h.html" target="_top" xlink:title="Contains misc helpful functions. ">
<polygon fill="none" stroke="#000000" points="51.6133,-110.5 51.6133,-128.5 90.958,-128.5 90.958,-110.5 51.6133,-110.5"/>
<text text-anchor="middle" x="71.2856" y="-116.5" font-family="Helvetica,sans-Serif" font-size="10.00" fill="#000000">vlib.h</text>
</a>
</g>
</g>
<!-- Node1&#45;&gt;Node8 -->
<g id="edge8" class="edge">
<title>Node1&#45;&gt;Node8</title>
<path fill="none" stroke="#191970" d="M86.3133,-165.4179C83.9306,-158.1372 80.5046,-147.669 77.5254,-138.5659"/>
<polygon fill="#191970" stroke="#191970" points="80.7594,-137.1948 74.3226,-128.7795 74.1066,-139.3721 80.7594,-137.1948"/>
</g>
<!-- Node3 -->
<g id="node4" class="node">
<title>Node3</title>
<polygon fill="none" stroke="#bfbfbf" points="29.4434,-.5 29.4434,-18.5 77.1279,-18.5 77.1279,-.5 29.4434,-.5"/>
<text text-anchor="middle" x="53.2856" y="-6.5" font-family="Helvetica,sans-Serif" font-size="10.00" fill="#000000">stdlib.h</text>
</g>
<!-- Node2&#45;&gt;Node3 -->
<g id="edge3" class="edge">
<title>Node2&#45;&gt;Node3</title>
<path fill="none" stroke="#191970" d="M141.7819,-55.4179C124.9037,-46.6603 99.1369,-33.2907 79.752,-23.2326"/>
<polygon fill="#191970" stroke="#191970" points="81.3037,-20.0946 70.8154,-18.5956 78.0797,-26.308 81.3037,-20.0946"/>
</g>
<!-- Node4 -->
<g id="node5" class="node">
<title>Node4</title>
<polygon fill="none" stroke="#bfbfbf" points="94.9927,-.5 94.9927,-18.5 151.5786,-18.5 151.5786,-.5 94.9927,-.5"/>
<text text-anchor="middle" x="123.2856" y="-6.5" font-family="Helvetica,sans-Serif" font-size="10.00" fill="#000000">stdbool.h</text>
</g>
<!-- Node2&#45;&gt;Node4 -->
<g id="edge4" class="edge">
<title>Node2&#45;&gt;Node4</title>
<path fill="none" stroke="#191970" d="M153.341,-55.4179C148.3683,-47.8207 141.1238,-36.7527 134.9932,-27.3866"/>
<polygon fill="#191970" stroke="#191970" points="137.7646,-25.2297 129.3595,-18.7795 131.9076,-29.0633 137.7646,-25.2297"/>
</g>
<!-- Node5 -->
<g id="node6" class="node">
<title>Node5</title>
<polygon fill="none" stroke="#bfbfbf" points="169.2192,-.5 169.2192,-18.5 221.3521,-18.5 221.3521,-.5 169.2192,-.5"/>
<text text-anchor="middle" x="195.2856" y="-6.5" font-family="Helvetica,sans-Serif" font-size="10.00" fill="#000000">stdarg.h</text>
</g>
<!-- Node2&#45;&gt;Node5 -->
<g id="edge5" class="edge">
<title>Node2&#45;&gt;Node5</title>
<path fill="none" stroke="#191970" d="M165.2303,-55.4179C170.203,-47.8207 177.4475,-36.7527 183.578,-27.3866"/>
<polygon fill="#191970" stroke="#191970" points="186.6636,-29.0633 189.2118,-18.7795 180.8067,-25.2297 186.6636,-29.0633"/>
</g>
<!-- Node6 -->
<g id="node7" class="node">
<title>Node6</title>
<polygon fill="none" stroke="#bfbfbf" points="239.165,-.5 239.165,-18.5 287.4063,-18.5 287.4063,-.5 239.165,-.5"/>
<text text-anchor="middle" x="263.2856" y="-6.5" font-family="Helvetica,sans-Serif" font-size="10.00" fill="#000000">stdint.h</text>
</g>
<!-- Node2&#45;&gt;Node6 -->
<g id="edge6" class="edge">
<title>Node2&#45;&gt;Node6</title>
<path fill="none" stroke="#191970" d="M176.4591,-55.4179C192.9436,-46.7001 218.0699,-33.4122 237.0589,-23.3699"/>
<polygon fill="#191970" stroke="#191970" points="238.8829,-26.3646 246.0866,-18.5956 235.6104,-20.1767 238.8829,-26.3646"/>
</g>
<!-- Node8&#45;&gt;Node2 -->
<g id="edge10" class="edge">
<title>Node8&#45;&gt;Node2</title>
<path fill="none" stroke="#191970" d="M85.8171,-110.4179C99.447,-101.8992 120.0592,-89.0166 135.9853,-79.0627"/>
<polygon fill="#191970" stroke="#191970" points="138.1077,-81.8637 144.7326,-73.5956 134.3976,-75.9277 138.1077,-81.8637"/>
</g>
<!-- Node8&#45;&gt;Node7 -->
<g id="edge9" class="edge">
<title>Node8&#45;&gt;Node7</title>
<path fill="none" stroke="#191970" d="M63.3594,-110.4179C56.5219,-102.5833 46.4631,-91.0575 38.134,-81.5137"/>
<polygon fill="#191970" stroke="#191970" points="40.5964,-79.0123 31.3841,-73.7795 35.3225,-83.6151 40.5964,-79.0123"/>
</g>
<!-- Node9 -->
<g id="node10" class="node">
<title>Node9</title>
<polygon fill="none" stroke="#bfbfbf" points="64.8892,-55.5 64.8892,-73.5 113.6821,-73.5 113.6821,-55.5 64.8892,-55.5"/>
<text text-anchor="middle" x="89.2856" y="-61.5" font-family="Helvetica,sans-Serif" font-size="10.00" fill="#000000">string.h</text>
</g>
<!-- Node8&#45;&gt;Node9 -->
<g id="edge11" class="edge">
<title>Node8&#45;&gt;Node9</title>
<path fill="none" stroke="#191970" d="M74.258,-110.4179C76.6407,-103.1372 80.0667,-92.669 83.0459,-83.5659"/>
<polygon fill="#191970" stroke="#191970" points="86.4647,-84.3721 86.2487,-73.7795 79.8119,-82.1948 86.4647,-84.3721"/>
</g>
<!-- Node10&#45;&gt;Node2 -->
<g id="edge13" class="edge">
<title>Node10&#45;&gt;Node2</title>
<path fill="none" stroke="#191970" d="M174.8067,-165.4995C185.3753,-153.1994 201.204,-130.3409 194.2856,-110 190.6654,-99.3559 183.439,-89.2572 176.4879,-81.2901"/>
<polygon fill="#191970" stroke="#191970" points="178.8935,-78.7383 169.5063,-73.8258 173.7811,-83.52 178.8935,-78.7383"/>
</g>
<!-- Node11 -->
<g id="node12" class="node">
<title>Node11</title>
<g id="a_node12"><a xlink:href="lcd_8h.html" target="_top" xlink:title="LCD wrapper functions and macros. ">
<polygon fill="none" stroke="#000000" points="147.7241,-110.5 147.7241,-128.5 184.8472,-128.5 184.8472,-110.5 147.7241,-110.5"/>
<text text-anchor="middle" x="166.2856" y="-116.5" font-family="Helvetica,sans-Serif" font-size="10.00" fill="#000000">lcd.h</text>
</a>
</g>
</g>
<!-- Node10&#45;&gt;Node11 -->
<g id="edge14" class="edge">
<title>Node10&#45;&gt;Node11</title>
<path fill="none" stroke="#191970" d="M166.2856,-165.4179C166.2856,-158.2164 166.2856,-147.8962 166.2856,-138.8632"/>
<polygon fill="#191970" stroke="#191970" points="169.7857,-138.7794 166.2856,-128.7795 162.7857,-138.7795 169.7857,-138.7794"/>
</g>
<!-- Node11&#45;&gt;Node2 -->
<g id="edge15" class="edge">
<title>Node11&#45;&gt;Node2</title>
<path fill="none" stroke="#191970" d="M165.1297,-110.4179C164.2132,-103.2164 162.8997,-92.8962 161.75,-83.8632"/>
<polygon fill="#191970" stroke="#191970" points="165.2013,-83.2575 160.4667,-73.7795 158.2573,-84.1414 165.2013,-83.2575"/>
</g>
</g>
</svg>
