<?xml version="1.0" encoding="UTF-8" standalone="no"?>
<!DOCTYPE svg PUBLIC "-//W3C//DTD SVG 1.1//EN"
 "http://www.w3.org/Graphics/SVG/1.1/DTD/svg11.dtd">
<!-- Generated by graphviz version 2.40.1 (20161225.0304)
 -->
<!-- Title: updateMotors Pages: 1 -->
<!--zoomable 473 -->
<svg id="main" version="1.1" xmlns="http://www.w3.org/2000/svg" xmlns:xlink="http://www.w3.org/1999/xlink" xml:space="preserve" onload="init(evt)">
<style type="text/css"><![CDATA[
.edge:hover path { stroke: red; }
.edge:hover polygon { stroke: red; fill: red; }
]]></style>
<script type="text/javascript"><![CDATA[
var edges = document.getElementsByTagName('g');
if (edges && edges.length) {
  for (var i=0;i<edges.length;i++) {
    if (edges[i].id.substr(0,4)=='edge') {
      edges[i].setAttribute('class','edge');
    }
  }
}
]]></script>
        <defs>
                <circle id="rim" cx="0" cy="0" r="7"/>
                <circle id="rim2" cx="0" cy="0" r="3.5"/>
                <g id="zoomPlus">
                        <use xlink:href="#rim" fill="#404040">
                                <set attributeName="fill" to="#808080" begin="zoomplus.mouseover" end="zoomplus.mouseout"/>
                        </use>
                        <path d="M-4,0h8M0,-4v8" fill="none" stroke="white" stroke-width="1.5" pointer-events="none"/>
                </g>
                <g id="zoomMin">
                        <use xlink:href="#rim" fill="#404040">
                                <set attributeName="fill" to="#808080" begin="zoomminus.mouseover" end="zoomminus.mouseout"/>
                        </use>
                        <path d="M-4,0h8" fill="none" stroke="white" stroke-width="1.5" pointer-events="none"/>
                </g>
                <g id="dirArrow">
                        <path fill="none" stroke="white" stroke-width="1.5" d="M0,-3.0v7 M-2.5,-0.5L0,-3.0L2.5,-0.5"/>
                </g>
               <g id="resetDef">
                       <use xlink:href="#rim2" fill="#404040">
                               <set attributeName="fill" to="#808080" begin="reset.mouseover" end="reset.mouseout"/>
                       </use>
               </g>
        </defs>

<script type="text/javascript">
var viewWidth = 900;
var viewHeight = 473;
var sectionId = 'dynsection-9';
</script>
<script xlink:href="svgpan.js"/>
<svg id="graph" class="graph">
<g id="viewport">
<title>updateMotors</title>
<!-- Node121 -->
<g id="node1" class="node">
<title>Node121</title>
<polygon fill="#bfbfbf" stroke="#000000" points="0,-282.7279 0,-300.7279 77.1475,-300.7279 77.1475,-282.7279 0,-282.7279"/>
<text text-anchor="middle" x="38.5737" y="-288.7279" font-family="Helvetica,sans-Serif" font-size="10.00" fill="#000000">updateMotors</text>
</g>
<!-- Node122 -->
<g id="node2" class="node">
<title>Node122</title>
<g id="a_node2"><a xlink:href="slew_8c.html#a321758941d88b75783955c819bb75005" target="_top" xlink:title="Initializes the slew rate controller. ">
<polygon fill="none" stroke="#000000" points="113.1475,-282.7279 113.1475,-300.7279 167.4971,-300.7279 167.4971,-282.7279 113.1475,-282.7279"/>
<text text-anchor="middle" x="140.3223" y="-288.7279" font-family="Helvetica,sans-Serif" font-size="10.00" fill="#000000">init_slew</text>
</a>
</g>
</g>
<!-- Node121&#45;&gt;Node122 -->
<g id="edge1" class="edge">
<title>Node121&#45;&gt;Node122</title>
<path fill="none" stroke="#191970" d="M87.5368,-291.7279C96.314,-291.7279 105.1671,-291.7279 113.0493,-291.7279"/>
<polygon fill="#191970" stroke="#191970" points="87.3308,-288.228 77.3307,-291.7279 87.3307,-295.228 87.3308,-288.228"/>
</g>
<!-- Node123 -->
<g id="node3" class="node">
<title>Node123</title>
<g id="a_node3"><a xlink:href="auto_8c.html#ae66ea80c777135c9f4d288a05f40ca86" target="_top" xlink:title="Starts the auntonomous program. ">
<polygon fill="none" stroke="#000000" points="226.5562,-89.7279 226.5562,-107.7279 292.5903,-107.7279 292.5903,-89.7279 226.5562,-89.7279"/>
<text text-anchor="middle" x="259.5732" y="-95.7279" font-family="Helvetica,sans-Serif" font-size="10.00" fill="#000000">start_auton</text>
</a>
</g>
</g>
<!-- Node122&#45;&gt;Node123 -->
<g id="edge2" class="edge">
<title>Node122&#45;&gt;Node123</title>
<path fill="none" stroke="#191970" d="M151.2705,-274.0089C175.9471,-234.0714 235.2072,-138.1628 253.8548,-107.9828"/>
<polygon fill="#191970" stroke="#191970" points="148.193,-272.3311 145.914,-282.6779 154.1479,-276.0106 148.193,-272.3311"/>
</g>
<!-- Node125 -->
<g id="node5" class="node">
<title>Node125</title>
<g id="a_node5"><a xlink:href="opcontrol_8c.html#ac71a94af413917f27d108e95c4d6f6a7" target="_top" xlink:title="Runs the user operator control code. ">
<polygon fill="none" stroke="#000000" points="806.6973,-360.7279 806.6973,-378.7279 892.1797,-378.7279 892.1797,-360.7279 806.6973,-360.7279"/>
<text text-anchor="middle" x="849.4385" y="-366.7279" font-family="Helvetica,sans-Serif" font-size="10.00" fill="#000000">operatorControl</text>
</a>
</g>
</g>
<!-- Node122&#45;&gt;Node125 -->
<g id="edge4" class="edge">
<title>Node122&#45;&gt;Node125</title>
<path fill="none" stroke="#191970" d="M153.9342,-308.7892C190.4156,-352.4345 295.4316,-464.7279 410.2256,-464.7279 410.2256,-464.7279 410.2256,-464.7279 564.7769,-464.7279 672.6236,-464.7279 792.1805,-402.6146 833.9973,-378.8369"/>
<polygon fill="#191970" stroke="#191970" points="156.6172,-306.5413 147.5691,-301.0291 151.2049,-310.9806 156.6172,-306.5413"/>
</g>
<!-- Node126 -->
<g id="node6" class="node">
<title>Node126</title>
<g id="a_node6"><a xlink:href="slew_8c.html#a7dff2b79dffe55fb936d977594d7c01d" target="_top" xlink:title="Sets motor speed wrapped inside the slew rate controller. ">
<polygon fill="none" stroke="#000000" points="216.5586,-261.7279 216.5586,-279.7279 302.5879,-279.7279 302.5879,-261.7279 216.5586,-261.7279"/>
<text text-anchor="middle" x="259.5732" y="-267.7279" font-family="Helvetica,sans-Serif" font-size="10.00" fill="#000000">set_motor_slew</text>
</a>
</g>
</g>
<!-- Node122&#45;&gt;Node126 -->
<g id="edge5" class="edge">
<title>Node122&#45;&gt;Node126</title>
<path fill="none" stroke="#191970" d="M177.6196,-285.1598C189.9345,-282.9912 203.7347,-280.561 216.4485,-278.3221"/>
<polygon fill="#191970" stroke="#191970" points="176.9223,-281.7287 167.6808,-286.91 178.1363,-288.6226 176.9223,-281.7287"/>
</g>
<!-- Node139 -->
<g id="node15" class="node">
<title>Node139</title>
<g id="a_node15"><a xlink:href="slew_8c.html#a9f8b8ae577ef938622024545711f0151" target="_top" xlink:title="Sets the motor speed ignoring the slew controller. ">
<polygon fill="none" stroke="#000000" points="203.4971,-301.7279 203.4971,-319.7279 315.6494,-319.7279 315.6494,-301.7279 203.4971,-301.7279"/>
<text text-anchor="middle" x="259.5732" y="-307.7279" font-family="Helvetica,sans-Serif" font-size="10.00" fill="#000000">set_motor_immediate</text>
</a>
</g>
</g>
<!-- Node122&#45;&gt;Node139 -->
<g id="edge21" class="edge">
<title>Node122&#45;&gt;Node139</title>
<path fill="none" stroke="#191970" d="M177.5703,-297.6625C185.6956,-298.9571 194.4693,-300.355 203.1521,-301.7384"/>
<polygon fill="#191970" stroke="#191970" points="178.107,-294.204 167.6808,-296.0869 177.0056,-301.1168 178.107,-294.204"/>
</g>
<!-- Node124 -->
<g id="node4" class="node">
<title>Node124</title>
<g id="a_node4"><a xlink:href="auto_8c.html#a3c7ca506bbc071fa740de13805b7f376" target="_top" xlink:title="Runs the user autonomous code. ">
<polygon fill="none" stroke="#000000" points="680.2051,-134.7279 680.2051,-152.7279 751.2441,-152.7279 751.2441,-134.7279 680.2051,-134.7279"/>
<text text-anchor="middle" x="715.7246" y="-140.7279" font-family="Helvetica,sans-Serif" font-size="10.00" fill="#000000">autonomous</text>
</a>
</g>
</g>
<!-- Node123&#45;&gt;Node124 -->
<g id="edge3" class="edge">
<title>Node123&#45;&gt;Node124</title>
<path fill="none" stroke="#191970" d="M281.8837,-84.3233C340.9852,-48.1347 505.2396,39.5281 624.752,-20.7279 637.3216,-27.0653 691.461,-107.2587 709.7001,-134.6379"/>
<polygon fill="#191970" stroke="#191970" points="279.959,-81.3987 273.3241,-89.6588 283.6619,-87.3391 279.959,-81.3987"/>
</g>
<!-- Node127 -->
<g id="node7" class="node">
<title>Node127</title>
<g id="a_node7"><a xlink:href="drive_8c.html#a8df41fd50094c065eedc81fc5e6595d1" target="_top" xlink:title="sets the speed of one side of the robot. ">
<polygon fill="none" stroke="#000000" points="367.1987,-72.7279 367.1987,-90.7279 453.2524,-90.7279 453.2524,-72.7279 367.1987,-72.7279"/>
<text text-anchor="middle" x="410.2256" y="-78.7279" font-family="Helvetica,sans-Serif" font-size="10.00" fill="#000000">set_side_speed</text>
</a>
</g>
</g>
<!-- Node126&#45;&gt;Node127 -->
<g id="edge6" class="edge">
<title>Node126&#45;&gt;Node127</title>
<path fill="none" stroke="#191970" d="M273.4582,-253.3086C304.6786,-214.1413 379.5224,-120.2464 403.0322,-90.7523"/>
<polygon fill="#191970" stroke="#191970" points="270.3358,-251.6107 266.8395,-261.612 275.8096,-255.9739 270.3358,-251.6107"/>
</g>
<!-- Node131 -->
<g id="node11" class="node">
<title>Node131</title>
<g id="a_node11"><a xlink:href="lifter_8c.html#ad00a195af30f246924d6e1a30095b882" target="_top" xlink:title="Sets the main lifter motors to the given value. ">
<polygon fill="none" stroke="#ff0000" points="351.6494,-261.7279 351.6494,-279.7279 468.8018,-279.7279 468.8018,-261.7279 351.6494,-261.7279"/>
<text text-anchor="middle" x="410.2256" y="-267.7279" font-family="Helvetica,sans-Serif" font-size="10.00" fill="#000000">set_main_lifter_motors</text>
</a>
</g>
</g>
<!-- Node126&#45;&gt;Node131 -->
<g id="edge14" class="edge">
<title>Node126&#45;&gt;Node131</title>
<path fill="none" stroke="#191970" d="M313.0049,-270.7279C325.5074,-270.7279 338.8912,-270.7279 351.6062,-270.7279"/>
<polygon fill="#191970" stroke="#191970" points="312.7442,-267.228 302.7442,-270.7279 312.7441,-274.228 312.7442,-267.228"/>
</g>
<!-- Node127&#45;&gt;Node124 -->
<g id="edge11" class="edge">
<title>Node127&#45;&gt;Node124</title>
<path fill="none" stroke="#191970" d="M455.5115,-93.284C471.0907,-97.1148 488.6712,-101.278 504.8018,-104.7279 566.1622,-117.8512 638.1258,-130.5949 680.1512,-137.7733"/>
<polygon fill="#191970" stroke="#191970" points="456.1465,-89.8355 445.5981,-90.8254 454.4615,-96.6297 456.1465,-89.8355"/>
</g>
<!-- Node128 -->
<g id="node8" class="node">
<title>Node128</title>
<g id="a_node8"><a xlink:href="auto_8c.html#a42084538c07a7089a1fe425c4f97650a" target="_top" xlink:title="Drives the robot forward until it reaches the mobile goal. ">
<polygon fill="none" stroke="#000000" points="510.3584,-67.7279 510.3584,-95.7279 619.1953,-95.7279 619.1953,-67.7279 510.3584,-67.7279"/>
<text text-anchor="start" x="518.3584" y="-83.7279" font-family="Helvetica,sans-Serif" font-size="10.00" fill="#000000">auton_drive_towards</text>
<text text-anchor="middle" x="564.7769" y="-73.7279" font-family="Helvetica,sans-Serif" font-size="10.00" fill="#000000">_mobile_goal</text>
</a>
</g>
</g>
<!-- Node127&#45;&gt;Node128 -->
<g id="edge7" class="edge">
<title>Node127&#45;&gt;Node128</title>
<path fill="none" stroke="#191970" d="M463.4549,-81.7279C478.5155,-81.7279 494.9296,-81.7279 510.0755,-81.7279"/>
<polygon fill="#191970" stroke="#191970" points="463.2768,-78.228 453.2767,-81.7279 463.2767,-85.228 463.2768,-78.228"/>
</g>
<!-- Node129 -->
<g id="node9" class="node">
<title>Node129</title>
<g id="a_node9"><a xlink:href="auto_8c.html#a8141105864165fcb16d70f7cc72a1b6f" target="_top" xlink:title="Rotates the robot 180 degrees clockwise. ">
<polygon fill="none" stroke="#000000" points="521.7451,-30.7279 521.7451,-48.7279 607.8086,-48.7279 607.8086,-30.7279 521.7451,-30.7279"/>
<text text-anchor="middle" x="564.7769" y="-36.7279" font-family="Helvetica,sans-Serif" font-size="10.00" fill="#000000">auton_turn_180</text>
</a>
</g>
</g>
<!-- Node127&#45;&gt;Node129 -->
<g id="edge9" class="edge">
<title>Node127&#45;&gt;Node129</title>
<path fill="none" stroke="#191970" d="M453.2266,-70.0422C477.9412,-63.3258 508.5218,-55.0154 531.4103,-48.7954"/>
<polygon fill="#191970" stroke="#191970" points="452.1129,-66.7178 443.3807,-72.7178 453.9486,-73.4728 452.1129,-66.7178"/>
</g>
<!-- Node130 -->
<g id="node10" class="node">
<title>Node130</title>
<g id="a_node10"><a xlink:href="drive_8c.html#a8224a4626a934d30ed587671b7004bf8" target="_top" xlink:title="Updates the drive motors during teleop. ">
<polygon fill="none" stroke="#000000" points="660.752,-35.7279 660.752,-53.7279 770.6973,-53.7279 770.6973,-35.7279 660.752,-35.7279"/>
<text text-anchor="middle" x="715.7246" y="-41.7279" font-family="Helvetica,sans-Serif" font-size="10.00" fill="#000000">update_drive_motors</text>
</a>
</g>
</g>
<!-- Node127&#45;&gt;Node130 -->
<g id="edge12" class="edge">
<title>Node127&#45;&gt;Node130</title>
<path fill="none" stroke="#191970" d="M427.8405,-65.8672C445.7408,-50.9061 475.0041,-29.5038 504.8018,-20.7279 570.0288,-1.5173 650.7933,-22.4629 690.8196,-35.6615"/>
<polygon fill="#191970" stroke="#191970" points="425.3049,-63.4319 420.0134,-72.6108 429.8739,-68.7351 425.3049,-63.4319"/>
</g>
<!-- Node128&#45;&gt;Node124 -->
<g id="edge8" class="edge">
<title>Node128&#45;&gt;Node124</title>
<path fill="none" stroke="#191970" d="M608.5815,-99.7201C636.5125,-111.1925 671.5122,-125.5682 693.7528,-134.7032"/>
<polygon fill="#191970" stroke="#191970" points="609.6092,-96.3585 599.0292,-95.7966 606.9496,-102.8336 609.6092,-96.3585"/>
</g>
<!-- Node129&#45;&gt;Node124 -->
<g id="edge10" class="edge">
<title>Node129&#45;&gt;Node124</title>
<path fill="none" stroke="#191970" d="M613.9928,-52.406C617.7245,-53.9946 621.3555,-55.7631 624.752,-57.7279 661.0612,-78.7317 694.3295,-116.9459 708.5047,-134.4824"/>
<polygon fill="#191970" stroke="#191970" points="615.1757,-49.1113 604.5849,-48.8185 612.6816,-55.6519 615.1757,-49.1113"/>
</g>
<!-- Node130&#45;&gt;Node125 -->
<g id="edge13" class="edge">
<title>Node130&#45;&gt;Node125</title>
<path fill="none" stroke="#191970" d="M729.9466,-62.1827C742.1109,-77.7997 759.3953,-101.7148 770.6973,-124.7279 813.4347,-211.75 840.2961,-327.2801 847.4885,-360.461"/>
<polygon fill="#191970" stroke="#191970" points="732.4204,-59.6698 723.46,-54.0162 726.939,-64.0235 732.4204,-59.6698"/>
</g>
<!-- Node132 -->
<g id="node12" class="node">
<title>Node132</title>
<g id="a_node12"><a xlink:href="auto_8c.html#a51a62a1a0851cc5939a2c6034849e380" target="_top" xlink:title="utility function to raise the mainlifter to the mobile goal height ">
<polygon fill="none" stroke="#000000" points="504.8018,-227.7279 504.8018,-245.7279 624.752,-245.7279 624.752,-227.7279 504.8018,-227.7279"/>
<text text-anchor="middle" x="564.7769" y="-233.7279" font-family="Helvetica,sans-Serif" font-size="10.00" fill="#000000">auton_rasie_main_lifter</text>
</a>
</g>
</g>
<!-- Node131&#45;&gt;Node132 -->
<g id="edge15" class="edge">
<title>Node131&#45;&gt;Node132</title>
<path fill="none" stroke="#191970" d="M461.2682,-259.4989C481.5867,-255.029 504.6508,-249.9551 523.8425,-245.7331"/>
<polygon fill="#191970" stroke="#191970" points="460.2512,-256.1389 451.2367,-261.7058 461.7552,-262.9754 460.2512,-256.1389"/>
</g>
<!-- Node133 -->
<g id="node13" class="node">
<title>Node133</title>
<g id="a_node13"><a xlink:href="lifter_8c.html#aa4d172cbde795bc13fe6baabd074717e" target="_top" xlink:title="quit_auto_static">
<polygon fill="none" stroke="#000000" points="521.7524,-341.7279 521.7524,-359.7279 607.8013,-359.7279 607.8013,-341.7279 521.7524,-341.7279"/>
<text text-anchor="middle" x="564.7769" y="-347.7279" font-family="Helvetica,sans-Serif" font-size="10.00" fill="#000000">quit_auto_static</text>
</a>
</g>
</g>
<!-- Node131&#45;&gt;Node133 -->
<g id="edge17" class="edge">
<title>Node131&#45;&gt;Node133</title>
<path fill="none" stroke="#191970" d="M452.7944,-283.1271C458.2643,-285.1286 463.7234,-287.3376 468.8018,-289.7279 500.777,-304.7779 534.9598,-328.6047 552.63,-341.5765"/>
<polygon fill="#191970" stroke="#191970" points="453.6114,-279.7066 443.0166,-279.7541 451.3286,-286.3239 453.6114,-279.7066"/>
</g>
<!-- Node134 -->
<g id="node14" class="node">
<title>Node134</title>
<g id="a_node14"><a xlink:href="lifter_8c.html#a8a64fa88b389b39c236c5c57a7fb5c67" target="_top" xlink:title="Autostacks a cone once picked up. ">
<polygon fill="none" stroke="#000000" points="668.2544,-360.7279 668.2544,-378.7279 763.1948,-378.7279 763.1948,-360.7279 668.2544,-360.7279"/>
<text text-anchor="middle" x="715.7246" y="-366.7279" font-family="Helvetica,sans-Serif" font-size="10.00" fill="#000000">autostack_routine</text>
</a>
</g>
</g>
<!-- Node131&#45;&gt;Node134 -->
<g id="edge20" class="edge">
<title>Node131&#45;&gt;Node134</title>
<path fill="none" stroke="#191970" d="M455.6497,-282.3702C499.3715,-293.9243 567.1535,-312.7533 624.752,-332.7279 649.2377,-341.2193 676.718,-352.6711 695.0047,-360.5743"/>
<polygon fill="#191970" stroke="#191970" points="456.4478,-278.9612 445.8867,-279.8055 454.6693,-285.7315 456.4478,-278.9612"/>
</g>
<!-- Node132&#45;&gt;Node124 -->
<g id="edge16" class="edge">
<title>Node132&#45;&gt;Node124</title>
<path fill="none" stroke="#191970" d="M610.4208,-224.2789C615.37,-222.3416 620.2417,-220.1617 624.752,-217.7279 658.436,-199.5514 691.7088,-168.1629 707.0083,-152.7703"/>
<polygon fill="#191970" stroke="#191970" points="609.1084,-221.0314 600.8825,-227.7085 611.477,-227.6185 609.1084,-221.0314"/>
</g>
<!-- Node133&#45;&gt;Node134 -->
<g id="edge18" class="edge">
<title>Node133&#45;&gt;Node134</title>
<path fill="none" stroke="#191970" d="M617.9957,-357.4266C634.3656,-359.4871 652.2696,-361.7407 668.2292,-363.7496"/>
<polygon fill="#191970" stroke="#191970" points="618.3913,-353.9489 608.0324,-356.1725 617.517,-360.8941 618.3913,-353.9489"/>
</g>
<!-- Node134&#45;&gt;Node125 -->
<g id="edge19" class="edge">
<title>Node134&#45;&gt;Node125</title>
<path fill="none" stroke="#191970" d="M773.3371,-369.7279C784.4743,-369.7279 795.9604,-369.7279 806.527,-369.7279"/>
<polygon fill="#191970" stroke="#191970" points="773.2436,-366.228 763.2436,-369.7279 773.2436,-373.228 773.2436,-366.228"/>
</g>
<!-- Node140 -->
<g id="node16" class="node">
<title>Node140</title>
<g id="a_node16"><a xlink:href="claw_8c.html#a3a57f998b1884d39b0cc786689f7086f" target="_top" xlink:title="sets the claw motor speed ">
<polygon fill="none" stroke="#ff0000" points="367.2109,-345.7279 367.2109,-363.7279 453.2402,-363.7279 453.2402,-345.7279 367.2109,-345.7279"/>
<text text-anchor="middle" x="410.2256" y="-351.7279" font-family="Helvetica,sans-Serif" font-size="10.00" fill="#000000">set_claw_motor</text>
</a>
</g>
</g>
<!-- Node139&#45;&gt;Node140 -->
<g id="edge22" class="edge">
<title>Node139&#45;&gt;Node140</title>
<path fill="none" stroke="#191970" d="M300.2792,-322.6166C325.1003,-329.8659 356.3308,-338.9872 379.1581,-345.6542"/>
<polygon fill="#191970" stroke="#191970" points="301.0038,-319.182 290.4235,-319.7381 299.0413,-325.9013 301.0038,-319.182"/>
</g>
<!-- Node142 -->
<g id="node17" class="node">
<title>Node142</title>
<g id="a_node17"><a xlink:href="claw_8c.html#a3a6168bf4e2042115dd32542f1f6a2f5" target="_top" xlink:title="Drives the motors to grab a cone. ">
<polygon fill="none" stroke="#ff0000" points="520.3633,-190.7279 520.3633,-208.7279 609.1904,-208.7279 609.1904,-190.7279 520.3633,-190.7279"/>
<text text-anchor="middle" x="564.7769" y="-196.7279" font-family="Helvetica,sans-Serif" font-size="10.00" fill="#000000">claw_grab_cone</text>
</a>
</g>
</g>
<!-- Node139&#45;&gt;Node142 -->
<g id="edge25" class="edge">
<title>Node139&#45;&gt;Node142</title>
<path fill="none" stroke="#191970" d="M300.7342,-297.8146C305.9386,-295.4685 311.0462,-292.7792 315.6494,-289.7279 335.0405,-276.8741 331.5282,-263.4057 351.6494,-251.7279 404.5194,-221.0434 474.8695,-208.3948 519.9996,-203.2278"/>
<polygon fill="#191970" stroke="#191970" points="299.269,-294.6326 291.3498,-301.6709 301.9296,-301.1073 299.269,-294.6326"/>
</g>
<!-- Node144 -->
<g id="node18" class="node">
<title>Node144</title>
<g id="a_node18"><a xlink:href="claw_8c.html#aecaa4eedc34d6b164ee17ed104914227" target="_top" xlink:title="Drives the motors to release a cone. ">
<polygon fill="none" stroke="#000000" points="359.4204,-382.7279 359.4204,-400.7279 461.0308,-400.7279 461.0308,-382.7279 359.4204,-382.7279"/>
<text text-anchor="middle" x="410.2256" y="-388.7279" font-family="Helvetica,sans-Serif" font-size="10.00" fill="#000000">claw_release_cone</text>
</a>
</g>
</g>
<!-- Node139&#45;&gt;Node144 -->
<g id="edge27" class="edge">
<title>Node139&#45;&gt;Node144</title>
<path fill="none" stroke="#191970" d="M278.4422,-326.1742C296.3567,-340.2042 324.5088,-360.6478 351.6494,-373.7279 358.8373,-377.192 366.8412,-380.1713 374.566,-382.6526"/>
<polygon fill="#191970" stroke="#191970" points="280.5217,-323.356 270.5194,-319.8624 276.1599,-328.831 280.5217,-323.356"/>
</g>
<!-- Node145 -->
<g id="node19" class="node">
<title>Node145</title>
<g id="a_node19"><a xlink:href="lifter_8c.html#a78640d547d9361951a92d0bc00939536" target="_top" xlink:title="Sets the secondary lifter motors to the given value. ">
<polygon fill="none" stroke="#ff0000" points="357.4795,-298.7279 357.4795,-326.7279 462.9717,-326.7279 462.9717,-298.7279 357.4795,-298.7279"/>
<text text-anchor="start" x="365.4795" y="-314.7279" font-family="Helvetica,sans-Serif" font-size="10.00" fill="#000000">set_secondary_lifter</text>
<text text-anchor="middle" x="410.2256" y="-304.7279" font-family="Helvetica,sans-Serif" font-size="10.00" fill="#000000">_motors</text>
</a>
</g>
</g>
<!-- Node139&#45;&gt;Node145 -->
<g id="edge28" class="edge">
<title>Node139&#45;&gt;Node145</title>
<path fill="none" stroke="#191970" d="M325.9719,-311.6094C336.38,-311.7475 347.0187,-311.8888 357.0781,-312.0223"/>
<polygon fill="#191970" stroke="#191970" points="325.7162,-308.1057 315.6706,-311.4726 325.6232,-315.1051 325.7162,-308.1057"/>
</g>
<!-- Node150 -->
<g id="node20" class="node">
<title>Node150</title>
<g id="a_node20"><a xlink:href="mobile__goal__intake_8c.html#ab31e12bb0fa46c77906a048666b699d5" target="_top" xlink:title="sets the intake motor ">
<polygon fill="none" stroke="#ff0000" points="518.4224,-153.7279 518.4224,-171.7279 611.1313,-171.7279 611.1313,-153.7279 518.4224,-153.7279"/>
<text text-anchor="middle" x="564.7769" y="-159.7279" font-family="Helvetica,sans-Serif" font-size="10.00" fill="#000000">set_intake_motor</text>
</a>
</g>
</g>
<!-- Node139&#45;&gt;Node150 -->
<g id="edge32" class="edge">
<title>Node139&#45;&gt;Node150</title>
<path fill="none" stroke="#191970" d="M305.8403,-297.0199C309.3846,-294.9177 312.7173,-292.502 315.6494,-289.7279 344.5619,-262.3734 320.7656,-232.8353 351.6494,-207.7279 398.8928,-169.3207 471.0097,-161.424 518.028,-160.8523"/>
<polygon fill="#191970" stroke="#191970" points="304.0569,-293.9992 296.7019,-301.6251 307.2072,-300.2503 304.0569,-293.9992"/>
</g>
<!-- Node140&#45;&gt;Node133 -->
<g id="edge23" class="edge">
<title>Node140&#45;&gt;Node133</title>
<path fill="none" stroke="#191970" d="M463.3061,-353.3541C482.3569,-352.861 503.5898,-352.3115 521.6888,-351.8431"/>
<polygon fill="#191970" stroke="#191970" points="463.1828,-349.856 453.2767,-353.6137 463.364,-356.8537 463.1828,-349.856"/>
</g>
<!-- Node140&#45;&gt;Node134 -->
<g id="edge24" class="edge">
<title>Node140&#45;&gt;Node134</title>
<path fill="none" stroke="#191970" d="M454.6021,-367.196C459.5032,-369.135 464.3323,-371.31 468.8018,-373.7279 486.8726,-383.5038 485.4258,-395.8944 504.8018,-402.7279 572.6123,-426.6432 658.7762,-395.3606 696.5345,-378.8054"/>
<polygon fill="#191970" stroke="#191970" points="455.7579,-363.8921 445.1639,-363.7563 453.361,-370.4689 455.7579,-363.8921"/>
</g>
<!-- Node142&#45;&gt;Node124 -->
<g id="edge26" class="edge">
<title>Node142&#45;&gt;Node124</title>
<path fill="none" stroke="#191970" d="M604.5572,-187.615C611.3268,-185.4141 618.2639,-183.0708 624.752,-180.7279 648.9672,-171.9835 676.2669,-160.6818 694.5874,-152.882"/>
<polygon fill="#191970" stroke="#191970" points="603.2918,-184.3448 594.8305,-190.721 605.4213,-191.0131 603.2918,-184.3448"/>
</g>
<!-- Node145&#45;&gt;Node124 -->
<g id="edge29" class="edge">
<title>Node145&#45;&gt;Node124</title>
<path fill="none" stroke="#191970" d="M473.2519,-306.0646C518.3672,-298.932 578.9735,-284.3386 624.752,-254.7279 667.0124,-227.3927 699.2219,-174.085 710.93,-152.8122"/>
<polygon fill="#191970" stroke="#191970" points="472.6648,-302.6134 463.2946,-307.5581 473.7032,-309.536 472.6648,-302.6134"/>
</g>
<!-- Node145&#45;&gt;Node133 -->
<g id="edge30" class="edge">
<title>Node145&#45;&gt;Node133</title>
<path fill="none" stroke="#191970" d="M472.8999,-328.1378C491.5573,-332.7252 511.3931,-337.6023 527.8409,-341.6463"/>
<polygon fill="#191970" stroke="#191970" points="473.5276,-324.688 462.9811,-325.699 471.8562,-331.4855 473.5276,-324.688"/>
</g>
<!-- Node145&#45;&gt;Node134 -->
<g id="edge31" class="edge">
<title>Node145&#45;&gt;Node134</title>
<path fill="none" stroke="#191970" d="M459.0196,-331.1374C462.4011,-332.8917 465.696,-334.7573 468.8018,-336.7279 487.1289,-348.3565 484.5732,-361.8593 504.8018,-369.7279 559.2352,-390.9016 627.7171,-385.6909 671.6113,-378.7538"/>
<polygon fill="#191970" stroke="#191970" points="460.4646,-327.9485 449.9369,-326.7578 457.4242,-334.2538 460.4646,-327.9485"/>
</g>
<!-- Node150&#45;&gt;Node124 -->
<g id="edge33" class="edge">
<title>Node150&#45;&gt;Node124</title>
<path fill="none" stroke="#191970" d="M621.4019,-155.6004C641.1021,-153.1207 662.6328,-150.4106 680.1432,-148.2065"/>
<polygon fill="#191970" stroke="#191970" points="620.7824,-152.1507 611.2978,-156.8722 621.6567,-159.0959 620.7824,-152.1507"/>
</g>
</g>
</svg>
        <g id="navigator" transform="translate(0 0)" fill="#404254">
                <rect fill="#f2f5e9" fill-opacity="0.5" stroke="#606060" stroke-width=".5" x="0" y="0" width="60" height="60"/>
                <use id="zoomplus" xlink:href="#zoomPlus" x="17" y="9" onmousedown="handleZoom(evt,'in')"/>
                <use id="zoomminus" xlink:href="#zoomMin" x="42" y="9" onmousedown="handleZoom(evt,'out')"/>
                <use id="reset" xlink:href="#resetDef" x="30" y="36" onmousedown="handleReset()"/>
                <g id="arrowUp" xlink:href="#dirArrow" transform="translate(30 24)" onmousedown="handlePan(0,-1)">
                  <use xlink:href="#rim" fill="#404040">
                        <set attributeName="fill" to="#808080" begin="arrowUp.mouseover" end="arrowUp.mouseout"/>
                  </use>
                  <path fill="none" stroke="white" stroke-width="1.5" d="M0,-3.0v7 M-2.5,-0.5L0,-3.0L2.5,-0.5"/>
                </g>
                <g id="arrowRight" xlink:href="#dirArrow" transform="rotate(90) translate(36 -43)" onmousedown="handlePan(1,0)">
                  <use xlink:href="#rim" fill="#404040">
                        <set attributeName="fill" to="#808080" begin="arrowRight.mouseover" end="arrowRight.mouseout"/>
                  </use>
                  <path fill="none" stroke="white" stroke-width="1.5" d="M0,-3.0v7 M-2.5,-0.5L0,-3.0L2.5,-0.5"/>
                </g>
                <g id="arrowDown" xlink:href="#dirArrow" transform="rotate(180) translate(-30 -48)" onmousedown="handlePan(0,1)">
                  <use xlink:href="#rim" fill="#404040">
                        <set attributeName="fill" to="#808080" begin="arrowDown.mouseover" end="arrowDown.mouseout"/>
                  </use>
                  <path fill="none" stroke="white" stroke-width="1.5" d="M0,-3.0v7 M-2.5,-0.5L0,-3.0L2.5,-0.5"/>
                </g>
                <g id="arrowLeft" xlink:href="#dirArrow" transform="rotate(270) translate(-36 17)" onmousedown="handlePan(-1,0)">
                  <use xlink:href="#rim" fill="#404040">
                        <set attributeName="fill" to="#808080" begin="arrowLeft.mouseover" end="arrowLeft.mouseout"/>
                  </use>
                  <path fill="none" stroke="white" stroke-width="1.5" d="M0,-3.0v7 M-2.5,-0.5L0,-3.0L2.5,-0.5"/>
                </g>
        </g>
        <svg viewBox="0 0 15 15" width="100%" height="30px" preserveAspectRatio="xMaxYMin meet">
         <g id="arrow_out" transform="scale(0.3 0.3)">
          <a xlink:href="slew_8h_a807a87c5df438fde21c1e8213906695b_icgraph_org.svg" target="_base">
           <rect id="button" ry="5" rx="5" y="6" x="6" height="38" width="38"
                fill="#f2f5e9" fill-opacity="0.5" stroke="#606060" stroke-width="1.0"/>
           <path id="arrow"
             d="M 11.500037,31.436501 C 11.940474,20.09759 22.043105,11.32322 32.158766,21.979434 L 37.068811,17.246167 C 37.068811,17.246167 37.088388,32 37.088388,32 L 22.160133,31.978069 C 22.160133,31.978069 26.997745,27.140456 26.997745,27.140456 C 18.528582,18.264221 13.291696,25.230495 11.500037,31.436501 z"
             style="fill:#404040;"/>
          </a>
         </g>
        </svg>
</svg>
