<?xml version="1.0" encoding="UTF-8" standalone="no"?>
<!DOCTYPE svg PUBLIC "-//W3C//DTD SVG 1.1//EN"
 "http://www.w3.org/Graphics/SVG/1.1/DTD/svg11.dtd">
<!-- Generated by graphviz version 2.40.1 (20161225.0304)
 -->
<!-- Title: init_slew Pages: 1 -->
<svg width="276pt" height="193pt"
 viewBox="0.00 0.00 275.85 193.00" xmlns="http://www.w3.org/2000/svg" xmlns:xlink="http://www.w3.org/1999/xlink">
<g id="graph0" class="graph" transform="scale(1 1) rotate(0) translate(4 189)">
<title>init_slew</title>
<!-- Node0 -->
<g id="node1" class="node">
<title>Node0</title>
<polygon fill="#bfbfbf" stroke="#000000" points="0,-110.5 0,-128.5 54.3496,-128.5 54.3496,-110.5 0,-110.5"/>
<text text-anchor="middle" x="27.1748" y="-116.5" font-family="Helvetica,sans-Serif" font-size="10.00" fill="#000000">init_slew</text>
</g>
<!-- Node1 -->
<g id="node2" class="node">
<title>Node1</title>
<g id="a_node2"><a xlink:href="vlib_8h.html#a1115803c6996aebfbf67434810df7b4b" target="_top" xlink:title="calloc_real">
<polygon fill="none" stroke="#000000" points="97.022,-166.5 97.022,-184.5 160.8247,-184.5 160.8247,-166.5 97.022,-166.5"/>
<text text-anchor="middle" x="128.9233" y="-172.5" font-family="Helvetica,sans-Serif" font-size="10.00" fill="#000000">calloc_real</text>
</a>
</g>
</g>
<!-- Node0&#45;&gt;Node1 -->
<g id="edge1" class="edge">
<title>Node0&#45;&gt;Node1</title>
<path fill="none" stroke="#191970" d="M41.4792,-128.6936C54.1241,-136.6774 73.1756,-148.3602 90.3496,-157.5 93.2201,-159.0276 96.2433,-160.5619 99.282,-162.0553"/>
<polygon fill="#191970" stroke="#191970" points="97.7752,-165.2143 108.3072,-166.3659 100.7921,-158.8978 97.7752,-165.2143"/>
</g>
<!-- Node2 -->
<g id="node3" class="node">
<title>Node2</title>
<g id="a_node3"><a xlink:href="_a_p_i_8h.html#aecd027ce8f8b52a765735e9eb5b202b3" target="_top" xlink:title="mutexCreate">
<polygon fill="none" stroke="#000000" points="92.3003,-129.5 92.3003,-147.5 165.5464,-147.5 165.5464,-129.5 92.3003,-129.5"/>
<text text-anchor="middle" x="128.9233" y="-135.5" font-family="Helvetica,sans-Serif" font-size="10.00" fill="#000000">mutexCreate</text>
</a>
</g>
</g>
<!-- Node0&#45;&gt;Node2 -->
<g id="edge2" class="edge">
<title>Node0&#45;&gt;Node2</title>
<path fill="none" stroke="#191970" d="M54.4415,-124.5917C62.9145,-126.1738 72.51,-127.9657 81.9272,-129.7242"/>
<polygon fill="#191970" stroke="#191970" points="81.5419,-133.2127 92.0144,-131.6078 82.8269,-126.3316 81.5419,-133.2127"/>
</g>
<!-- Node3 -->
<g id="node4" class="node">
<title>Node3</title>
<g id="a_node4"><a xlink:href="_a_p_i_8h.html#ab05a241d6d1fd98b1ceb4665db678156" target="_top" xlink:title="taskRunLoop">
<polygon fill="none" stroke="#000000" points="91.458,-92.5 91.458,-110.5 166.3887,-110.5 166.3887,-92.5 91.458,-92.5"/>
<text text-anchor="middle" x="128.9233" y="-98.5" font-family="Helvetica,sans-Serif" font-size="10.00" fill="#000000">taskRunLoop</text>
</a>
</g>
</g>
<!-- Node0&#45;&gt;Node3 -->
<g id="edge3" class="edge">
<title>Node0&#45;&gt;Node3</title>
<path fill="none" stroke="#191970" d="M54.4415,-114.6763C62.7416,-113.208 72.1188,-111.5491 81.3505,-109.916"/>
<polygon fill="#191970" stroke="#191970" points="82.0154,-113.3528 91.2528,-108.1642 80.796,-106.4598 82.0154,-113.3528"/>
</g>
<!-- Node4 -->
<g id="node5" class="node">
<title>Node4</title>
<g id="a_node5"><a xlink:href="slew_8c.html#a807a87c5df438fde21c1e8213906695b" target="_top" xlink:title="Closes the distance between the desired motor value and the current motor value by half for each moto...">
<polygon fill="none" stroke="#000000" points="90.3496,-55.5 90.3496,-73.5 167.4971,-73.5 167.4971,-55.5 90.3496,-55.5"/>
<text text-anchor="middle" x="128.9233" y="-61.5" font-family="Helvetica,sans-Serif" font-size="10.00" fill="#000000">updateMotors</text>
</a>
</g>
</g>
<!-- Node0&#45;&gt;Node4 -->
<g id="edge4" class="edge">
<title>Node0&#45;&gt;Node4</title>
<path fill="none" stroke="#191970" d="M42.6072,-110.3599C55.3097,-102.9207 73.8458,-92.2567 90.3496,-83.5 93.7128,-81.7156 97.2668,-79.888 100.8022,-78.1054"/>
<polygon fill="#191970" stroke="#191970" points="102.573,-81.134 109.9733,-73.552 99.46,-74.8642 102.573,-81.134"/>
</g>
<!-- Node5 -->
<g id="node6" class="node">
<title>Node5</title>
<g id="a_node6"><a xlink:href="_a_p_i_8h.html#a8b51124628d2a7741738d48551d1e8ee" target="_top" xlink:title="mutexTake">
<polygon fill="none" stroke="#000000" points="203.4971,-111.5 203.4971,-129.5 267.8516,-129.5 267.8516,-111.5 203.4971,-111.5"/>
<text text-anchor="middle" x="235.6743" y="-117.5" font-family="Helvetica,sans-Serif" font-size="10.00" fill="#000000">mutexTake</text>
</a>
</g>
</g>
<!-- Node4&#45;&gt;Node5 -->
<g id="edge5" class="edge">
<title>Node4&#45;&gt;Node5</title>
<path fill="none" stroke="#191970" d="M147.833,-73.6291C154.1163,-76.7117 161.132,-80.2068 167.4971,-83.5 181.7942,-90.897 197.6037,-99.4529 210.3963,-106.4728"/>
<polygon fill="#191970" stroke="#191970" points="209.0681,-109.7371 219.5157,-111.497 212.4459,-103.6059 209.0681,-109.7371"/>
</g>
<!-- Node6 -->
<g id="node7" class="node">
<title>Node6</title>
<g id="a_node7"><a xlink:href="_a_p_i_8h.html#a4805c8fd29f9221d28ed2e673c06e6c4" target="_top" xlink:title="motorGet">
<polygon fill="none" stroke="#000000" points="206.8345,-74.5 206.8345,-92.5 264.5142,-92.5 264.5142,-74.5 206.8345,-74.5"/>
<text text-anchor="middle" x="235.6743" y="-80.5" font-family="Helvetica,sans-Serif" font-size="10.00" fill="#000000">motorGet</text>
</a>
</g>
</g>
<!-- Node4&#45;&gt;Node6 -->
<g id="edge6" class="edge">
<title>Node4&#45;&gt;Node6</title>
<path fill="none" stroke="#191970" d="M167.7649,-71.4132C177.2213,-73.0963 187.3365,-74.8966 196.7946,-76.58"/>
<polygon fill="#191970" stroke="#191970" points="196.279,-80.0432 206.7376,-78.3497 197.5056,-73.1515 196.279,-80.0432"/>
</g>
<!-- Node7 -->
<g id="node8" class="node">
<title>Node7</title>
<g id="a_node8"><a xlink:href="_a_p_i_8h.html#a03c5b04b472d024281f62d7af8854a8e" target="_top" xlink:title="motorSet">
<polygon fill="none" stroke="#000000" points="207.3887,-37.5 207.3887,-55.5 263.96,-55.5 263.96,-37.5 207.3887,-37.5"/>
<text text-anchor="middle" x="235.6743" y="-43.5" font-family="Helvetica,sans-Serif" font-size="10.00" fill="#000000">motorSet</text>
</a>
</g>
</g>
<!-- Node4&#45;&gt;Node7 -->
<g id="edge7" class="edge">
<title>Node4&#45;&gt;Node7</title>
<path fill="none" stroke="#191970" d="M167.7649,-57.9507C177.3088,-56.3414 187.5239,-54.619 197.0572,-53.0115"/>
<polygon fill="#191970" stroke="#191970" points="197.7915,-56.4372 207.0703,-51.3231 196.6275,-49.5346 197.7915,-56.4372"/>
</g>
<!-- Node8 -->
<g id="node9" class="node">
<title>Node8</title>
<g id="a_node9"><a xlink:href="_a_p_i_8h.html#afe171a08d22de18fc2ab604b2364959f" target="_top" xlink:title="mutexGive">
<polygon fill="none" stroke="#000000" points="203.7778,-.5 203.7778,-18.5 267.5708,-18.5 267.5708,-.5 203.7778,-.5"/>
<text text-anchor="middle" x="235.6743" y="-6.5" font-family="Helvetica,sans-Serif" font-size="10.00" fill="#000000">mutexGive</text>
</a>
</g>
</g>
<!-- Node4&#45;&gt;Node8 -->
<g id="edge8" class="edge">
<title>Node4&#45;&gt;Node8</title>
<path fill="none" stroke="#191970" d="M146.5511,-55.4179C163.5489,-46.6603 189.4982,-33.2907 209.0204,-23.2326"/>
<polygon fill="#191970" stroke="#191970" points="210.7339,-26.287 218.0204,-18.5956 207.5278,-20.0644 210.7339,-26.287"/>
</g>
</g>
</svg>
