<?xml version="1.0" encoding="UTF-8" standalone="no"?>
<!DOCTYPE svg PUBLIC "-//W3C//DTD SVG 1.1//EN"
 "http://www.w3.org/Graphics/SVG/1.1/DTD/svg11.dtd">
<!-- Generated by graphviz version 2.40.1 (20161225.0304)
 -->
<!-- Title: set_motor_immediate Pages: 1 -->
<svg width="544pt" height="334pt"
 viewBox="0.00 0.00 544.37 334.39" xmlns="http://www.w3.org/2000/svg" xmlns:xlink="http://www.w3.org/1999/xlink">
<g id="graph0" class="graph" transform="scale(1 1) rotate(0) translate(4 330.3943)">
<title>set_motor_immediate</title>
<!-- Node37 -->
<g id="node1" class="node">
<title>Node37</title>
<polygon fill="#bfbfbf" stroke="#000000" points="0,-103.5 0,-121.5 112.1523,-121.5 112.1523,-103.5 0,-103.5"/>
<text text-anchor="middle" x="56.0762" y="-109.5" font-family="Helvetica,sans-Serif" font-size="10.00" fill="#000000">set_motor_immediate</text>
</g>
<!-- Node38 -->
<g id="node2" class="node">
<title>Node38</title>
<g id="a_node2"><a xlink:href="log_8h.html#af3668f40d1ad1b4f3418869ac9a31f34" target="_top" xlink:title="prints a info message ">
<polygon fill="none" stroke="#000000" points="153.4233,-272.5 153.4233,-290.5 197.231,-290.5 197.231,-272.5 153.4233,-272.5"/>
<text text-anchor="middle" x="175.3271" y="-278.5" font-family="Helvetica,sans-Serif" font-size="10.00" fill="#000000">debug</text>
</a>
</g>
</g>
<!-- Node37&#45;&gt;Node38 -->
<g id="edge1" class="edge">
<title>Node37&#45;&gt;Node38</title>
<path fill="none" stroke="#191970" d="M62.4876,-121.5862C81.495,-148.523 137.7766,-228.2841 162.9341,-263.9368"/>
<polygon fill="#191970" stroke="#191970" points="160.2588,-266.2161 168.884,-272.3689 165.9783,-262.1803 160.2588,-266.2161"/>
</g>
<!-- Node40 -->
<g id="node4" class="node">
<title>Node40</title>
<g id="a_node4"><a xlink:href="slew_8c.html#a321758941d88b75783955c819bb75005" target="_top" xlink:title="Initializes the slew rate controller. ">
<polygon fill="none" stroke="#000000" points="148.1523,-178.5 148.1523,-196.5 202.502,-196.5 202.502,-178.5 148.1523,-178.5"/>
<text text-anchor="middle" x="175.3271" y="-184.5" font-family="Helvetica,sans-Serif" font-size="10.00" fill="#000000">init_slew</text>
</a>
</g>
</g>
<!-- Node37&#45;&gt;Node40 -->
<g id="edge3" class="edge">
<title>Node37&#45;&gt;Node40</title>
<path fill="none" stroke="#191970" d="M70.6987,-121.6965C91.1037,-134.5297 128.32,-157.936 152.4239,-173.0956"/>
<polygon fill="#191970" stroke="#191970" points="150.6291,-176.1014 160.9575,-178.4626 154.3559,-170.1759 150.6291,-176.1014"/>
</g>
<!-- Node46 -->
<g id="node10" class="node">
<title>Node46</title>
<g id="a_node10"><a xlink:href="_a_p_i_8h.html#a8b51124628d2a7741738d48551d1e8ee" target="_top" xlink:title="mutexTake">
<polygon fill="none" stroke="#000000" points="351.6494,-84.5 351.6494,-102.5 416.0039,-102.5 416.0039,-84.5 351.6494,-84.5"/>
<text text-anchor="middle" x="383.8267" y="-90.5" font-family="Helvetica,sans-Serif" font-size="10.00" fill="#000000">mutexTake</text>
</a>
</g>
</g>
<!-- Node37&#45;&gt;Node46 -->
<g id="edge20" class="edge">
<title>Node37&#45;&gt;Node46</title>
<path fill="none" stroke="#191970" d="M112.4185,-109.2338C177.5106,-105.4603 283.1283,-99.3376 341.5647,-95.95"/>
<polygon fill="#191970" stroke="#191970" points="341.7806,-99.4434 351.5612,-95.3705 341.3754,-92.4552 341.7806,-99.4434"/>
</g>
<!-- Node47 -->
<g id="node11" class="node">
<title>Node47</title>
<g id="a_node11"><a xlink:href="_a_p_i_8h.html#afe171a08d22de18fc2ab604b2364959f" target="_top" xlink:title="mutexGive">
<polygon fill="none" stroke="#000000" points="351.9302,-37.5 351.9302,-55.5 415.7231,-55.5 415.7231,-37.5 351.9302,-37.5"/>
<text text-anchor="middle" x="383.8267" y="-43.5" font-family="Helvetica,sans-Serif" font-size="10.00" fill="#000000">mutexGive</text>
</a>
</g>
</g>
<!-- Node37&#45;&gt;Node47 -->
<g id="edge19" class="edge">
<title>Node37&#45;&gt;Node47</title>
<path fill="none" stroke="#191970" d="M78.6669,-103.4939C112.7018,-90.3753 179.4398,-66.3908 238.502,-55.5 272.8193,-49.172 312.3841,-47.0516 341.558,-46.4411"/>
<polygon fill="#191970" stroke="#191970" points="341.8636,-49.9368 351.8071,-46.2794 341.7532,-42.9377 341.8636,-49.9368"/>
</g>
<!-- Node48 -->
<g id="node12" class="node">
<title>Node48</title>
<g id="a_node12"><a xlink:href="_a_p_i_8h.html#a03c5b04b472d024281f62d7af8854a8e" target="_top" xlink:title="motorSet">
<polygon fill="none" stroke="#000000" points="355.541,-.5 355.541,-18.5 412.1123,-18.5 412.1123,-.5 355.541,-.5"/>
<text text-anchor="middle" x="383.8267" y="-6.5" font-family="Helvetica,sans-Serif" font-size="10.00" fill="#000000">motorSet</text>
</a>
</g>
</g>
<!-- Node37&#45;&gt;Node48 -->
<g id="edge18" class="edge">
<title>Node37&#45;&gt;Node48</title>
<path fill="none" stroke="#191970" d="M69.1758,-103.4091C86.4894,-91.8007 118.297,-71.8607 148.1523,-60.5 215.0819,-35.0316 297.7956,-20.8279 345.3146,-14.2063"/>
<polygon fill="#191970" stroke="#191970" points="346.0297,-17.6416 355.4702,-12.8325 345.0912,-10.7047 346.0297,-17.6416"/>
</g>
<!-- Node39 -->
<g id="node3" class="node">
<title>Node39</title>
<g id="a_node3"><a xlink:href="_a_p_i_8h.html#a403c82418e475fa4a8273719e6a7f3e6" target="_top" xlink:title="printf">
<polygon fill="none" stroke="#000000" points="475.0728,-253.5 475.0728,-271.5 513.3042,-271.5 513.3042,-253.5 475.0728,-253.5"/>
<text text-anchor="middle" x="494.1885" y="-259.5" font-family="Helvetica,sans-Serif" font-size="10.00" fill="#000000">printf</text>
</a>
</g>
</g>
<!-- Node38&#45;&gt;Node39 -->
<g id="edge2" class="edge">
<title>Node38&#45;&gt;Node39</title>
<path fill="none" stroke="#191970" d="M186.1035,-290.5205C198.0377,-299.8695 218.2762,-313.8857 238.502,-319.5 322.1683,-342.7241 423.2512,-299.6052 469.2385,-276.181"/>
<polygon fill="#191970" stroke="#191970" points="470.9415,-279.2403 478.1893,-271.5125 467.7042,-273.0338 470.9415,-279.2403"/>
</g>
<!-- Node41 -->
<g id="node5" class="node">
<title>Node41</title>
<g id="a_node5"><a xlink:href="log_8h.html#a1606d750e1bb8de9f9e917172bba3382" target="_top" xlink:title="prints a info message ">
<polygon fill="none" stroke="#000000" points="367.7651,-253.5 367.7651,-271.5 399.8882,-271.5 399.8882,-253.5 367.7651,-253.5"/>
<text text-anchor="middle" x="383.8267" y="-259.5" font-family="Helvetica,sans-Serif" font-size="10.00" fill="#000000">info</text>
</a>
</g>
</g>
<!-- Node40&#45;&gt;Node41 -->
<g id="edge4" class="edge">
<title>Node40&#45;&gt;Node41</title>
<path fill="none" stroke="#191970" d="M182.7362,-196.9149C193.4933,-209.8331 214.7626,-232.6805 238.502,-243.5 277.2694,-261.1687 327.4927,-263.8528 357.6022,-263.5953"/>
<polygon fill="#191970" stroke="#191970" points="357.7998,-267.0921 367.7267,-263.3897 357.6576,-260.0936 357.7998,-267.0921"/>
</g>
<!-- Node42 -->
<g id="node6" class="node">
<title>Node42</title>
<g id="a_node6"><a xlink:href="_a_p_i_8h.html#a8966c541f3e9565aea1289f0d2f2cf43" target="_top" xlink:title="motorStopAll">
<polygon fill="none" stroke="#000000" points="240.4526,-178.5 240.4526,-196.5 313.6987,-196.5 313.6987,-178.5 240.4526,-178.5"/>
<text text-anchor="middle" x="277.0757" y="-184.5" font-family="Helvetica,sans-Serif" font-size="10.00" fill="#000000">motorStopAll</text>
</a>
</g>
</g>
<!-- Node40&#45;&gt;Node42 -->
<g id="edge6" class="edge">
<title>Node40&#45;&gt;Node42</title>
<path fill="none" stroke="#191970" d="M202.5939,-187.5C211.0668,-187.5 220.6623,-187.5 230.0796,-187.5"/>
<polygon fill="#191970" stroke="#191970" points="230.1668,-191.0001 240.1668,-187.5 230.1667,-184.0001 230.1668,-191.0001"/>
</g>
<!-- Node43 -->
<g id="node7" class="node">
<title>Node43</title>
<g id="a_node7"><a xlink:href="_a_p_i_8h.html#aecd027ce8f8b52a765735e9eb5b202b3" target="_top" xlink:title="mutexCreate">
<polygon fill="none" stroke="#000000" points="240.4526,-141.5 240.4526,-159.5 313.6987,-159.5 313.6987,-141.5 240.4526,-141.5"/>
<text text-anchor="middle" x="277.0757" y="-147.5" font-family="Helvetica,sans-Serif" font-size="10.00" fill="#000000">mutexCreate</text>
</a>
</g>
</g>
<!-- Node40&#45;&gt;Node43 -->
<g id="edge7" class="edge">
<title>Node40&#45;&gt;Node43</title>
<path fill="none" stroke="#191970" d="M200.2176,-178.4488C212.9054,-173.835 228.5404,-168.1494 242.389,-163.1135"/>
<polygon fill="#191970" stroke="#191970" points="243.8877,-166.2928 252.0895,-159.586 241.4954,-159.7143 243.8877,-166.2928"/>
</g>
<!-- Node44 -->
<g id="node8" class="node">
<title>Node44</title>
<g id="a_node8"><a xlink:href="_a_p_i_8h.html#ab05a241d6d1fd98b1ceb4665db678156" target="_top" xlink:title="taskRunLoop">
<polygon fill="none" stroke="#000000" points="239.6104,-291.5 239.6104,-309.5 314.541,-309.5 314.541,-291.5 239.6104,-291.5"/>
<text text-anchor="middle" x="277.0757" y="-297.5" font-family="Helvetica,sans-Serif" font-size="10.00" fill="#000000">taskRunLoop</text>
</a>
</g>
</g>
<!-- Node40&#45;&gt;Node44 -->
<g id="edge8" class="edge">
<title>Node40&#45;&gt;Node44</title>
<path fill="none" stroke="#191970" d="M180.2306,-196.7314C189.7191,-213.9713 212.0078,-251.5676 238.502,-276.5 242.117,-279.9019 246.286,-283.0817 250.5181,-285.943"/>
<polygon fill="#191970" stroke="#191970" points="248.803,-288.9986 259.1363,-291.338 252.5172,-283.0652 248.803,-288.9986"/>
</g>
<!-- Node45 -->
<g id="node9" class="node">
<title>Node45</title>
<g id="a_node9"><a xlink:href="slew_8c.html#a807a87c5df438fde21c1e8213906695b" target="_top" xlink:title="Closes the distance between the desired motor value and the current motor value by half for each moto...">
<polygon fill="none" stroke="#000000" points="238.502,-65.5 238.502,-83.5 315.6494,-83.5 315.6494,-65.5 238.502,-65.5"/>
<text text-anchor="middle" x="277.0757" y="-71.5" font-family="Helvetica,sans-Serif" font-size="10.00" fill="#000000">updateMotors</text>
</a>
</g>
</g>
<!-- Node40&#45;&gt;Node45 -->
<g id="edge9" class="edge">
<title>Node40&#45;&gt;Node45</title>
<path fill="none" stroke="#191970" d="M183.6537,-178.2527C200.806,-159.2037 240.2886,-115.355 262.0328,-91.2064"/>
<polygon fill="#191970" stroke="#191970" points="264.828,-93.3326 268.9185,-83.5592 259.6261,-88.6486 264.828,-93.3326"/>
</g>
<!-- Node49 -->
<g id="node13" class="node">
<title>Node49</title>
<g id="a_node13"><a xlink:href="log_8h.html#a0bec2cf5fff7f607bc510b74aba9887c" target="_top" xlink:title="prints a warning message and displays on lcd. Only will print and display if log_level is greater tha...">
<polygon fill="none" stroke="#000000" points="251.5659,-215.5 251.5659,-233.5 302.5854,-233.5 302.5854,-215.5 251.5659,-215.5"/>
<text text-anchor="middle" x="277.0757" y="-221.5" font-family="Helvetica,sans-Serif" font-size="10.00" fill="#000000">warning</text>
</a>
</g>
</g>
<!-- Node40&#45;&gt;Node49 -->
<g id="edge13" class="edge">
<title>Node40&#45;&gt;Node49</title>
<path fill="none" stroke="#191970" d="M200.2176,-196.5512C212.9054,-201.165 228.5404,-206.8506 242.389,-211.8865"/>
<polygon fill="#191970" stroke="#191970" points="241.4954,-215.2857 252.0895,-215.414 243.8877,-208.7072 241.4954,-215.2857"/>
</g>
<!-- Node41&#45;&gt;Node39 -->
<g id="edge5" class="edge">
<title>Node41&#45;&gt;Node39</title>
<path fill="none" stroke="#191970" d="M400.1109,-262.5C417.0624,-262.5 443.9782,-262.5 464.6854,-262.5"/>
<polygon fill="#191970" stroke="#191970" points="464.8624,-266.0001 474.8623,-262.5 464.8623,-259.0001 464.8624,-266.0001"/>
</g>
<!-- Node45&#45;&gt;Node46 -->
<g id="edge10" class="edge">
<title>Node45&#45;&gt;Node46</title>
<path fill="none" stroke="#191970" d="M315.9172,-81.4132C324.2242,-82.8917 333.0395,-84.4607 341.4712,-85.9614"/>
<polygon fill="#191970" stroke="#191970" points="341.0473,-89.4409 351.5059,-87.7474 342.2739,-82.5492 341.0473,-89.4409"/>
</g>
<!-- Node45&#45;&gt;Node47 -->
<g id="edge11" class="edge">
<title>Node45&#45;&gt;Node47</title>
<path fill="none" stroke="#191970" d="M311.44,-65.4865C321.1311,-62.9446 331.7841,-60.1504 341.8669,-57.5057"/>
<polygon fill="#191970" stroke="#191970" points="342.9181,-60.8485 351.7029,-54.9258 341.142,-54.0775 342.9181,-60.8485"/>
</g>
<!-- Node45&#45;&gt;Node48 -->
<g id="edge12" class="edge">
<title>Node45&#45;&gt;Node48</title>
<path fill="none" stroke="#191970" d="M290.9601,-65.4439C305.836,-55.8134 330.2053,-40.2437 351.6494,-27.5 353.6613,-26.3044 355.7549,-25.0831 357.8658,-23.8679"/>
<polygon fill="#191970" stroke="#191970" points="360.0542,-26.6509 367.0311,-18.6776 356.6047,-20.5598 360.0542,-26.6509"/>
</g>
<!-- Node50 -->
<g id="node14" class="node">
<title>Node50</title>
<g id="a_node14"><a xlink:href="log_8c.html#afff22aff6749311a684a559cac3ac8bd" target="_top" xlink:title="log_info">
<polygon fill="none" stroke="#000000" points="358.312,-216.5 358.312,-234.5 409.3413,-234.5 409.3413,-216.5 358.312,-216.5"/>
<text text-anchor="middle" x="383.8267" y="-222.5" font-family="Helvetica,sans-Serif" font-size="10.00" fill="#000000">log_info</text>
</a>
</g>
</g>
<!-- Node49&#45;&gt;Node50 -->
<g id="edge14" class="edge">
<title>Node49&#45;&gt;Node50</title>
<path fill="none" stroke="#191970" d="M302.6452,-224.7395C316.1459,-224.866 332.9395,-225.0233 347.7434,-225.162"/>
<polygon fill="#191970" stroke="#191970" points="348.0634,-228.665 358.0958,-225.259 348.1291,-221.6653 348.0634,-228.665"/>
</g>
<!-- Node50&#45;&gt;Node39 -->
<g id="edge17" class="edge">
<title>Node50&#45;&gt;Node39</title>
<path fill="none" stroke="#191970" d="M409.4233,-234.0815C426.1372,-239.6851 447.9922,-247.0122 465.3243,-252.823"/>
<polygon fill="#191970" stroke="#191970" points="464.3395,-256.1842 474.9334,-256.0445 466.5646,-249.5473 464.3395,-256.1842"/>
</g>
<!-- Node51 -->
<g id="node15" class="node">
<title>Node51</title>
<g id="a_node15"><a xlink:href="_a_p_i_8h.html#a5fa1d119fe3e836b5519f97eae7a1272" target="_top" xlink:title="lcdClear">
<polygon fill="none" stroke="#000000" points="467.8486,-216.5 467.8486,-234.5 520.5283,-234.5 520.5283,-216.5 467.8486,-216.5"/>
<text text-anchor="middle" x="494.1885" y="-222.5" font-family="Helvetica,sans-Serif" font-size="10.00" fill="#000000">lcdClear</text>
</a>
</g>
</g>
<!-- Node50&#45;&gt;Node51 -->
<g id="edge15" class="edge">
<title>Node50&#45;&gt;Node51</title>
<path fill="none" stroke="#191970" d="M409.4233,-225.5C423.5991,-225.5 441.4732,-225.5 457.1494,-225.5"/>
<polygon fill="#191970" stroke="#191970" points="457.5785,-229.0001 467.5785,-225.5 457.5784,-222.0001 457.5785,-229.0001"/>
</g>
<!-- Node52 -->
<g id="node16" class="node">
<title>Node52</title>
<g id="a_node16"><a xlink:href="_a_p_i_8h.html#aab53a247d88151a6623c20fa1ea940b0" target="_top" xlink:title="lcdSetBacklight">
<polygon fill="none" stroke="#000000" points="452.0039,-179.5 452.0039,-197.5 536.373,-197.5 536.373,-179.5 452.0039,-179.5"/>
<text text-anchor="middle" x="494.1885" y="-185.5" font-family="Helvetica,sans-Serif" font-size="10.00" fill="#000000">lcdSetBacklight</text>
</a>
</g>
</g>
<!-- Node50&#45;&gt;Node52 -->
<g id="edge16" class="edge">
<title>Node50&#45;&gt;Node52</title>
<path fill="none" stroke="#191970" d="M409.4233,-216.9185C423.7662,-212.1098 441.8953,-206.0319 457.703,-200.7322"/>
<polygon fill="#191970" stroke="#191970" points="458.8222,-204.0485 467.1909,-197.5512 456.597,-197.4115 458.8222,-204.0485"/>
</g>
</g>
</svg>
