<?xml version="1.0" encoding="UTF-8" standalone="no"?>
<!DOCTYPE svg PUBLIC "-//W3C//DTD SVG 1.1//EN"
 "http://www.w3.org/Graphics/SVG/1.1/DTD/svg11.dtd">
<!-- Generated by graphviz version 2.40.1 (20161225.0304)
 -->
<!-- Title: init_slew Pages: 1 -->
<svg width="396pt" height="250pt"
 viewBox="0.00 0.00 396.22 250.00" xmlns="http://www.w3.org/2000/svg" xmlns:xlink="http://www.w3.org/1999/xlink">
<g id="graph0" class="graph" transform="scale(1 1) rotate(0) translate(4 246)">
<title>init_slew</title>
<!-- Node3 -->
<g id="node1" class="node">
<title>Node3</title>
<polygon fill="#bfbfbf" stroke="#000000" points="0,-138.5 0,-156.5 54.3496,-156.5 54.3496,-138.5 0,-138.5"/>
<text text-anchor="middle" x="27.1748" y="-144.5" font-family="Helvetica,sans-Serif" font-size="10.00" fill="#000000">init_slew</text>
</g>
<!-- Node4 -->
<g id="node2" class="node">
<title>Node4</title>
<g id="a_node2"><a xlink:href="log_8h.html#a1606d750e1bb8de9f9e917172bba3382" target="_top" xlink:title="prints a info message ">
<polygon fill="none" stroke="#000000" points="219.6128,-223.5 219.6128,-241.5 251.7358,-241.5 251.7358,-223.5 219.6128,-223.5"/>
<text text-anchor="middle" x="235.6743" y="-229.5" font-family="Helvetica,sans-Serif" font-size="10.00" fill="#000000">info</text>
</a>
</g>
</g>
<!-- Node3&#45;&gt;Node4 -->
<g id="edge1" class="edge">
<title>Node3&#45;&gt;Node4</title>
<path fill="none" stroke="#191970" d="M31.7172,-156.7033C40.459,-173.2764 61.3547,-207.7811 90.3496,-222.5 128.1075,-241.6673 178.6418,-240.0396 209.0874,-236.6195"/>
<polygon fill="#191970" stroke="#191970" points="209.8571,-240.0498 219.3344,-235.3135 208.9721,-233.1059 209.8571,-240.0498"/>
</g>
<!-- Node6 -->
<g id="node4" class="node">
<title>Node6</title>
<g id="a_node4"><a xlink:href="_a_p_i_8h.html#a8966c541f3e9565aea1289f0d2f2cf43" target="_top" xlink:title="motorStopAll">
<polygon fill="none" stroke="#000000" points="92.3003,-194.5 92.3003,-212.5 165.5464,-212.5 165.5464,-194.5 92.3003,-194.5"/>
<text text-anchor="middle" x="128.9233" y="-200.5" font-family="Helvetica,sans-Serif" font-size="10.00" fill="#000000">motorStopAll</text>
</a>
</g>
</g>
<!-- Node3&#45;&gt;Node6 -->
<g id="edge3" class="edge">
<title>Node3&#45;&gt;Node6</title>
<path fill="none" stroke="#191970" d="M41.4792,-156.6936C54.1241,-164.6774 73.1756,-176.3602 90.3496,-185.5 93.2201,-187.0276 96.2433,-188.5619 99.282,-190.0553"/>
<polygon fill="#191970" stroke="#191970" points="97.7752,-193.2143 108.3072,-194.3659 100.7921,-186.8978 97.7752,-193.2143"/>
</g>
<!-- Node7 -->
<g id="node5" class="node">
<title>Node7</title>
<g id="a_node5"><a xlink:href="_a_p_i_8h.html#aecd027ce8f8b52a765735e9eb5b202b3" target="_top" xlink:title="mutexCreate">
<polygon fill="none" stroke="#000000" points="92.3003,-157.5 92.3003,-175.5 165.5464,-175.5 165.5464,-157.5 92.3003,-157.5"/>
<text text-anchor="middle" x="128.9233" y="-163.5" font-family="Helvetica,sans-Serif" font-size="10.00" fill="#000000">mutexCreate</text>
</a>
</g>
</g>
<!-- Node3&#45;&gt;Node7 -->
<g id="edge4" class="edge">
<title>Node3&#45;&gt;Node7</title>
<path fill="none" stroke="#191970" d="M54.4415,-152.5917C62.9145,-154.1738 72.51,-155.9657 81.9272,-157.7242"/>
<polygon fill="#191970" stroke="#191970" points="81.5419,-161.2127 92.0144,-159.6078 82.8269,-154.3316 81.5419,-161.2127"/>
</g>
<!-- Node8 -->
<g id="node6" class="node">
<title>Node8</title>
<g id="a_node6"><a xlink:href="_a_p_i_8h.html#ab05a241d6d1fd98b1ceb4665db678156" target="_top" xlink:title="taskRunLoop">
<polygon fill="none" stroke="#000000" points="91.458,-120.5 91.458,-138.5 166.3887,-138.5 166.3887,-120.5 91.458,-120.5"/>
<text text-anchor="middle" x="128.9233" y="-126.5" font-family="Helvetica,sans-Serif" font-size="10.00" fill="#000000">taskRunLoop</text>
</a>
</g>
</g>
<!-- Node3&#45;&gt;Node8 -->
<g id="edge5" class="edge">
<title>Node3&#45;&gt;Node8</title>
<path fill="none" stroke="#191970" d="M54.4415,-142.6763C62.7416,-141.208 72.1188,-139.5491 81.3505,-137.916"/>
<polygon fill="#191970" stroke="#191970" points="82.0154,-141.3528 91.2528,-136.1642 80.796,-134.4598 82.0154,-141.3528"/>
</g>
<!-- Node9 -->
<g id="node7" class="node">
<title>Node9</title>
<g id="a_node7"><a xlink:href="slew_8c.html#a807a87c5df438fde21c1e8213906695b" target="_top" xlink:title="Closes the distance between the desired motor value and the current motor value by half for each moto...">
<polygon fill="none" stroke="#000000" points="90.3496,-83.5 90.3496,-101.5 167.4971,-101.5 167.4971,-83.5 90.3496,-83.5"/>
<text text-anchor="middle" x="128.9233" y="-89.5" font-family="Helvetica,sans-Serif" font-size="10.00" fill="#000000">updateMotors</text>
</a>
</g>
</g>
<!-- Node3&#45;&gt;Node9 -->
<g id="edge6" class="edge">
<title>Node3&#45;&gt;Node9</title>
<path fill="none" stroke="#191970" d="M42.6072,-138.3599C55.3097,-130.9207 73.8458,-120.2567 90.3496,-111.5 93.7128,-109.7156 97.2668,-107.888 100.8022,-106.1054"/>
<polygon fill="#191970" stroke="#191970" points="102.573,-109.134 109.9733,-101.552 99.46,-102.8642 102.573,-109.134"/>
</g>
<!-- Node13 -->
<g id="node11" class="node">
<title>Node13</title>
<g id="a_node11"><a xlink:href="log_8h.html#a0bec2cf5fff7f607bc510b74aba9887c" target="_top" xlink:title="prints a warning message and displays on lcd. Only will print and display if log_level is greater tha...">
<polygon fill="none" stroke="#000000" points="103.4136,-46.5 103.4136,-64.5 154.4331,-64.5 154.4331,-46.5 103.4136,-46.5"/>
<text text-anchor="middle" x="128.9233" y="-52.5" font-family="Helvetica,sans-Serif" font-size="10.00" fill="#000000">warning</text>
</a>
</g>
</g>
<!-- Node3&#45;&gt;Node13 -->
<g id="edge11" class="edge">
<title>Node3&#45;&gt;Node13</title>
<path fill="none" stroke="#191970" d="M33.2275,-138.3844C43.5063,-123.456 65.6753,-93.5533 90.3496,-74.5 92.6761,-72.7035 95.1995,-71.0101 97.8041,-69.4307"/>
<polygon fill="#191970" stroke="#191970" points="99.7059,-72.3801 106.8048,-64.5153 96.3507,-66.2365 99.7059,-72.3801"/>
</g>
<!-- Node5 -->
<g id="node3" class="node">
<title>Node5</title>
<g id="a_node3"><a xlink:href="_a_p_i_8h.html#a403c82418e475fa4a8273719e6a7f3e6" target="_top" xlink:title="printf">
<polygon fill="none" stroke="#000000" points="326.9204,-167.5 326.9204,-185.5 365.1519,-185.5 365.1519,-167.5 326.9204,-167.5"/>
<text text-anchor="middle" x="346.0361" y="-173.5" font-family="Helvetica,sans-Serif" font-size="10.00" fill="#000000">printf</text>
</a>
</g>
</g>
<!-- Node4&#45;&gt;Node5 -->
<g id="edge2" class="edge">
<title>Node4&#45;&gt;Node5</title>
<path fill="none" stroke="#191970" d="M251.9586,-224.237C269.6371,-215.2665 298.1529,-200.797 319.1617,-190.1367"/>
<polygon fill="#191970" stroke="#191970" points="320.8864,-193.1864 328.2203,-185.5401 317.7189,-186.944 320.8864,-193.1864"/>
</g>
<!-- Node9&#45;&gt;Node5 -->
<g id="edge9" class="edge">
<title>Node9&#45;&gt;Node5</title>
<path fill="none" stroke="#191970" d="M151.5745,-101.5515C157.0806,-104.3039 162.7458,-107.6404 167.4971,-111.5 187.6474,-127.8688 180.9629,-144.6087 203.4971,-157.5 238.4296,-177.484 285.8879,-179.8341 316.2456,-178.8343"/>
<polygon fill="#191970" stroke="#191970" points="316.7794,-182.3129 326.6014,-178.3408 316.4461,-175.3209 316.7794,-182.3129"/>
</g>
<!-- Node10 -->
<g id="node8" class="node">
<title>Node10</title>
<g id="a_node8"><a xlink:href="_a_p_i_8h.html#a8b51124628d2a7741738d48551d1e8ee" target="_top" xlink:title="mutexTake">
<polygon fill="none" stroke="#000000" points="203.4971,-129.5 203.4971,-147.5 267.8516,-147.5 267.8516,-129.5 203.4971,-129.5"/>
<text text-anchor="middle" x="235.6743" y="-135.5" font-family="Helvetica,sans-Serif" font-size="10.00" fill="#000000">mutexTake</text>
</a>
</g>
</g>
<!-- Node9&#45;&gt;Node10 -->
<g id="edge7" class="edge">
<title>Node9&#45;&gt;Node10</title>
<path fill="none" stroke="#191970" d="M150.0139,-101.5881C165.8046,-108.3925 187.6339,-117.7989 205.3037,-125.413"/>
<polygon fill="#191970" stroke="#191970" points="204.0588,-128.6877 214.6276,-129.4308 206.829,-122.2591 204.0588,-128.6877"/>
</g>
<!-- Node11 -->
<g id="node9" class="node">
<title>Node11</title>
<g id="a_node9"><a xlink:href="_a_p_i_8h.html#afe171a08d22de18fc2ab604b2364959f" target="_top" xlink:title="mutexGive">
<polygon fill="none" stroke="#000000" points="203.7778,-92.5 203.7778,-110.5 267.5708,-110.5 267.5708,-92.5 203.7778,-92.5"/>
<text text-anchor="middle" x="235.6743" y="-98.5" font-family="Helvetica,sans-Serif" font-size="10.00" fill="#000000">mutexGive</text>
</a>
</g>
</g>
<!-- Node9&#45;&gt;Node11 -->
<g id="edge8" class="edge">
<title>Node9&#45;&gt;Node11</title>
<path fill="none" stroke="#191970" d="M167.7649,-95.7747C176.1566,-96.4822 185.0671,-97.2334 193.5769,-97.9508"/>
<polygon fill="#191970" stroke="#191970" points="193.4376,-101.4514 203.6964,-98.804 194.0258,-94.4762 193.4376,-101.4514"/>
</g>
<!-- Node12 -->
<g id="node10" class="node">
<title>Node12</title>
<g id="a_node10"><a xlink:href="_a_p_i_8h.html#a03c5b04b472d024281f62d7af8854a8e" target="_top" xlink:title="motorSet">
<polygon fill="none" stroke="#000000" points="207.3887,-55.5 207.3887,-73.5 263.96,-73.5 263.96,-55.5 207.3887,-55.5"/>
<text text-anchor="middle" x="235.6743" y="-61.5" font-family="Helvetica,sans-Serif" font-size="10.00" fill="#000000">motorSet</text>
</a>
</g>
</g>
<!-- Node9&#45;&gt;Node12 -->
<g id="edge10" class="edge">
<title>Node9&#45;&gt;Node12</title>
<path fill="none" stroke="#191970" d="M163.2876,-83.4865C174.114,-80.6468 186.1407,-77.4923 197.2318,-74.5832"/>
<polygon fill="#191970" stroke="#191970" points="198.3085,-77.9192 207.0933,-71.9966 196.5325,-71.1483 198.3085,-77.9192"/>
</g>
<!-- Node14 -->
<g id="node12" class="node">
<title>Node14</title>
<g id="a_node12"><a xlink:href="log_8c.html#afff22aff6749311a684a559cac3ac8bd" target="_top" xlink:title="log_info">
<polygon fill="none" stroke="#000000" points="210.1597,-18.5 210.1597,-36.5 261.189,-36.5 261.189,-18.5 210.1597,-18.5"/>
<text text-anchor="middle" x="235.6743" y="-24.5" font-family="Helvetica,sans-Serif" font-size="10.00" fill="#000000">log_info</text>
</a>
</g>
</g>
<!-- Node13&#45;&gt;Node14 -->
<g id="edge12" class="edge">
<title>Node13&#45;&gt;Node14</title>
<path fill="none" stroke="#191970" d="M154.4929,-48.7933C168.1246,-45.2178 185.1136,-40.7617 200.0217,-36.8514"/>
<polygon fill="#191970" stroke="#191970" points="201.1587,-40.1717 209.9435,-34.249 199.3826,-33.4007 201.1587,-40.1717"/>
</g>
<!-- Node14&#45;&gt;Node5 -->
<g id="edge13" class="edge">
<title>Node14&#45;&gt;Node5</title>
<path fill="none" stroke="#191970" d="M255.8546,-36.6528C260.1109,-39.1445 264.3638,-42.1087 267.8516,-45.5 302.2173,-78.915 327.0678,-130.5543 338.6818,-157.9513"/>
<polygon fill="#191970" stroke="#191970" points="335.5596,-159.562 342.5984,-167.4808 342.0341,-156.901 335.5596,-159.562"/>
</g>
<!-- Node15 -->
<g id="node13" class="node">
<title>Node15</title>
<g id="a_node13"><a xlink:href="_a_p_i_8h.html#aab53a247d88151a6623c20fa1ea940b0" target="_top" xlink:title="lcdSetBacklight">
<polygon fill="none" stroke="#000000" points="303.8516,-37.5 303.8516,-55.5 388.2207,-55.5 388.2207,-37.5 303.8516,-37.5"/>
<text text-anchor="middle" x="346.0361" y="-43.5" font-family="Helvetica,sans-Serif" font-size="10.00" fill="#000000">lcdSetBacklight</text>
</a>
</g>
</g>
<!-- Node14&#45;&gt;Node15 -->
<g id="edge14" class="edge">
<title>Node14&#45;&gt;Node15</title>
<path fill="none" stroke="#191970" d="M261.2709,-31.9067C271.0223,-33.5855 282.5236,-35.5656 293.8557,-37.5166"/>
<polygon fill="#191970" stroke="#191970" points="293.2736,-40.9678 303.7224,-39.2152 294.4613,-34.0692 293.2736,-40.9678"/>
</g>
<!-- Node16 -->
<g id="node14" class="node">
<title>Node16</title>
<g id="a_node14"><a xlink:href="_a_p_i_8h.html#a5fa1d119fe3e836b5519f97eae7a1272" target="_top" xlink:title="lcdClear">
<polygon fill="none" stroke="#000000" points="319.6963,-.5 319.6963,-18.5 372.376,-18.5 372.376,-.5 319.6963,-.5"/>
<text text-anchor="middle" x="346.0361" y="-6.5" font-family="Helvetica,sans-Serif" font-size="10.00" fill="#000000">lcdClear</text>
</a>
</g>
</g>
<!-- Node14&#45;&gt;Node16 -->
<g id="edge15" class="edge">
<title>Node14&#45;&gt;Node16</title>
<path fill="none" stroke="#191970" d="M261.2709,-23.3252C275.5831,-20.9909 293.665,-18.0417 309.4486,-15.4674"/>
<polygon fill="#191970" stroke="#191970" points="310.12,-18.9043 319.4261,-13.8401 308.9931,-11.9955 310.12,-18.9043"/>
</g>
</g>
</svg>
