<?xml version="1.0" encoding="UTF-8" standalone="no"?>
<!DOCTYPE svg PUBLIC "-//W3C//DTD SVG 1.1//EN"
 "http://www.w3.org/Graphics/SVG/1.1/DTD/svg11.dtd">
<!-- Generated by graphviz version 2.40.1 (20161225.0304)
 -->
<!-- Title: updateMotors Pages: 1 -->
<svg width="842pt" height="359pt"
 viewBox="0.00 0.00 841.82 358.57" xmlns="http://www.w3.org/2000/svg" xmlns:xlink="http://www.w3.org/1999/xlink">
<g id="graph0" class="graph" transform="scale(1 1) rotate(0) translate(4 354.5694)">
<title>updateMotors</title>
<!-- Node93 -->
<g id="node1" class="node">
<title>Node93</title>
<polygon fill="#bfbfbf" stroke="#000000" points="0,-282.5 0,-300.5 77.1475,-300.5 77.1475,-282.5 0,-282.5"/>
<text text-anchor="middle" x="38.5737" y="-288.5" font-family="Helvetica,sans-Serif" font-size="10.00" fill="#000000">updateMotors</text>
</g>
<!-- Node94 -->
<g id="node2" class="node">
<title>Node94</title>
<g id="a_node2"><a xlink:href="slew_8c.html#a321758941d88b75783955c819bb75005" target="_top" xlink:title="Initializes the slew rate controller. ">
<polygon fill="none" stroke="#000000" points="113.1475,-282.5 113.1475,-300.5 167.4971,-300.5 167.4971,-282.5 113.1475,-282.5"/>
<text text-anchor="middle" x="140.3223" y="-288.5" font-family="Helvetica,sans-Serif" font-size="10.00" fill="#000000">init_slew</text>
</a>
</g>
</g>
<!-- Node93&#45;&gt;Node94 -->
<g id="edge1" class="edge">
<title>Node93&#45;&gt;Node94</title>
<path fill="none" stroke="#191970" d="M87.5368,-291.5C96.314,-291.5 105.1671,-291.5 113.0493,-291.5"/>
<polygon fill="#191970" stroke="#191970" points="87.3308,-288.0001 77.3307,-291.5 87.3307,-295.0001 87.3308,-288.0001"/>
</g>
<!-- Node95 -->
<g id="node3" class="node">
<title>Node95</title>
<g id="a_node3"><a xlink:href="auto_8c.html#a3c7ca506bbc071fa740de13805b7f376" target="_top" xlink:title="autonomous">
<polygon fill="none" stroke="#000000" points="487.8535,-263.5 487.8535,-281.5 558.8926,-281.5 558.8926,-263.5 487.8535,-263.5"/>
<text text-anchor="middle" x="523.373" y="-269.5" font-family="Helvetica,sans-Serif" font-size="10.00" fill="#000000">autonomous</text>
</a>
</g>
</g>
<!-- Node94&#45;&gt;Node95 -->
<g id="edge2" class="edge">
<title>Node94&#45;&gt;Node95</title>
<path fill="none" stroke="#191970" d="M177.7866,-289.6417C251.6312,-285.9789 415.089,-277.8711 487.5682,-274.276"/>
<polygon fill="#191970" stroke="#191970" points="177.3776,-286.1576 167.5633,-290.1488 177.7244,-293.149 177.3776,-286.1576"/>
</g>
<!-- Node96 -->
<g id="node4" class="node">
<title>Node96</title>
<g id="a_node4"><a xlink:href="opcontrol_8c.html#ac71a94af413917f27d108e95c4d6f6a7" target="_top" xlink:title="operatorControl">
<polygon fill="none" stroke="#000000" points="748.333,-188.5 748.333,-206.5 833.8154,-206.5 833.8154,-188.5 748.333,-188.5"/>
<text text-anchor="middle" x="791.0742" y="-194.5" font-family="Helvetica,sans-Serif" font-size="10.00" fill="#000000">operatorControl</text>
</a>
</g>
</g>
<!-- Node94&#45;&gt;Node96 -->
<g id="edge3" class="edge">
<title>Node94&#45;&gt;Node96</title>
<path fill="none" stroke="#191970" d="M160.3838,-306.7376C172.2727,-314.9292 188.0038,-324.3752 203.4971,-329.5 285.9617,-356.7776 311.145,-348.5 398.0039,-348.5 398.0039,-348.5 398.0039,-348.5 523.373,-348.5 611.2224,-348.5 638.9962,-338.8655 712.333,-290.5 746.9483,-267.6712 774.7156,-225.2841 785.83,-206.6692"/>
<polygon fill="#191970" stroke="#191970" points="162.2766,-303.7881 152.1089,-300.8103 158.2004,-309.4789 162.2766,-303.7881"/>
</g>
<!-- Node97 -->
<g id="node5" class="node">
<title>Node97</title>
<g id="a_node5"><a xlink:href="slew_8c.html#a7dff2b79dffe55fb936d977594d7c01d" target="_top" xlink:title="Sets motor speed wrapped inside the slew rate controller. ">
<polygon fill="none" stroke="#000000" points="216.5586,-301.5 216.5586,-319.5 302.5879,-319.5 302.5879,-301.5 216.5586,-301.5"/>
<text text-anchor="middle" x="259.5732" y="-307.5" font-family="Helvetica,sans-Serif" font-size="10.00" fill="#000000">set_motor_slew</text>
</a>
</g>
</g>
<!-- Node94&#45;&gt;Node97 -->
<g id="edge4" class="edge">
<title>Node94&#45;&gt;Node97</title>
<path fill="none" stroke="#191970" d="M177.6196,-297.4425C189.9345,-299.4046 203.7347,-301.6034 216.4485,-303.629"/>
<polygon fill="#191970" stroke="#191970" points="178.107,-293.9761 167.6808,-295.859 177.0056,-300.8889 178.107,-293.9761"/>
</g>
<!-- Node100 -->
<g id="node8" class="node">
<title>Node100</title>
<g id="a_node8"><a xlink:href="slew_8c.html#a9f8b8ae577ef938622024545711f0151" target="_top" xlink:title="set_motor_immediate">
<polygon fill="none" stroke="#000000" points="203.4971,-170.5 203.4971,-188.5 315.6494,-188.5 315.6494,-170.5 203.4971,-170.5"/>
<text text-anchor="middle" x="259.5732" y="-176.5" font-family="Helvetica,sans-Serif" font-size="10.00" fill="#000000">set_motor_immediate</text>
</a>
</g>
</g>
<!-- Node94&#45;&gt;Node100 -->
<g id="edge9" class="edge">
<title>Node94&#45;&gt;Node100</title>
<path fill="none" stroke="#191970" d="M157.4987,-275.368C182.8277,-251.5791 229.3847,-207.8529 249.6796,-188.7921"/>
<polygon fill="#191970" stroke="#191970" points="154.9742,-272.9373 150.0811,-282.3346 159.7664,-278.0398 154.9742,-272.9373"/>
</g>
<!-- Node98 -->
<g id="node6" class="node">
<title>Node98</title>
<g id="a_node6"><a xlink:href="drive_8c.html#a8df41fd50094c065eedc81fc5e6595d1" target="_top" xlink:title="sets the speed of one side of the robot. ">
<polygon fill="none" stroke="#000000" points="354.9771,-301.5 354.9771,-319.5 441.0308,-319.5 441.0308,-301.5 354.9771,-301.5"/>
<text text-anchor="middle" x="398.0039" y="-307.5" font-family="Helvetica,sans-Serif" font-size="10.00" fill="#000000">set_side_speed</text>
</a>
</g>
</g>
<!-- Node97&#45;&gt;Node98 -->
<g id="edge5" class="edge">
<title>Node97&#45;&gt;Node98</title>
<path fill="none" stroke="#191970" d="M312.9244,-310.5C326.6821,-310.5 341.3235,-310.5 354.5122,-310.5"/>
<polygon fill="#191970" stroke="#191970" points="312.6148,-307.0001 302.6147,-310.5 312.6147,-314.0001 312.6148,-307.0001"/>
</g>
<!-- Node98&#45;&gt;Node95 -->
<g id="edge6" class="edge">
<title>Node98&#45;&gt;Node95</title>
<path fill="none" stroke="#191970" d="M437.4191,-298.5531C455.5306,-293.0634 476.6626,-286.6582 493.4411,-281.5725"/>
<polygon fill="#191970" stroke="#191970" points="436.2694,-295.2442 427.7146,-301.4945 438.3,-301.9433 436.2694,-295.2442"/>
</g>
<!-- Node99 -->
<g id="node7" class="node">
<title>Node99</title>
<g id="a_node7"><a xlink:href="drive_8c.html#a8224a4626a934d30ed587671b7004bf8" target="_top" xlink:title="Updates the drive motors during teleop. ">
<polygon fill="none" stroke="#000000" points="602.3877,-263.5 602.3877,-281.5 712.333,-281.5 712.333,-263.5 602.3877,-263.5"/>
<text text-anchor="middle" x="657.3604" y="-269.5" font-family="Helvetica,sans-Serif" font-size="10.00" fill="#000000">update_drive_motors</text>
</a>
</g>
</g>
<!-- Node98&#45;&gt;Node99 -->
<g id="edge7" class="edge">
<title>Node98&#45;&gt;Node99</title>
<path fill="none" stroke="#191970" d="M450.9991,-305.2644C484.2302,-301.7195 527.9142,-296.5818 566.3877,-290.5 582.4493,-287.961 599.9976,-284.6237 615.3595,-281.5131"/>
<polygon fill="#191970" stroke="#191970" points="450.6176,-301.7851 441.0389,-306.3126 451.3504,-308.7466 450.6176,-301.7851"/>
</g>
<!-- Node99&#45;&gt;Node96 -->
<g id="edge8" class="edge">
<title>Node99&#45;&gt;Node96</title>
<path fill="none" stroke="#191970" d="M682.3739,-258.4699C709.4591,-243.2778 751.866,-219.4918 774.888,-206.5788"/>
<polygon fill="#191970" stroke="#191970" points="680.4989,-255.5086 673.4894,-263.4532 683.9233,-261.6138 680.4989,-255.5086"/>
</g>
<!-- Node101 -->
<g id="node9" class="node">
<title>Node101</title>
<g id="a_node9"><a xlink:href="claw_8c.html#a3a57f998b1884d39b0cc786689f7086f" target="_top" xlink:title="sets the claw motor speed ">
<polygon fill="none" stroke="#000000" points="480.3584,-.5 480.3584,-18.5 566.3877,-18.5 566.3877,-.5 480.3584,-.5"/>
<text text-anchor="middle" x="523.373" y="-6.5" font-family="Helvetica,sans-Serif" font-size="10.00" fill="#000000">set_claw_motor</text>
</a>
</g>
</g>
<!-- Node100&#45;&gt;Node101 -->
<g id="edge10" class="edge">
<title>Node100&#45;&gt;Node101</title>
<path fill="none" stroke="#191970" d="M277.1762,-163.2529C295.1466,-147.0892 324.2197,-122.0826 351.6494,-103.5 404.268,-67.8529 471.6432,-34.127 504.1401,-18.5363"/>
<polygon fill="#191970" stroke="#191970" points="274.3475,-161.0943 269.302,-170.4106 279.056,-166.2741 274.3475,-161.0943"/>
</g>
<!-- Node103 -->
<g id="node11" class="node">
<title>Node103</title>
<g id="a_node11"><a xlink:href="claw_8c.html#a03023ca28f671b9fa7bac07782ccd8c1" target="_top" xlink:title="Drives the motors to open the claw. ">
<polygon fill="none" stroke="#000000" points="366.0977,-225.5 366.0977,-243.5 429.9102,-243.5 429.9102,-225.5 366.0977,-225.5"/>
<text text-anchor="middle" x="398.0039" y="-231.5" font-family="Helvetica,sans-Serif" font-size="10.00" fill="#000000">open_claw</text>
</a>
</g>
</g>
<!-- Node100&#45;&gt;Node103 -->
<g id="edge13" class="edge">
<title>Node100&#45;&gt;Node103</title>
<path fill="none" stroke="#191970" d="M292.0465,-192.402C317.5609,-202.5391 352.4555,-216.4031 375.1109,-225.4044"/>
<polygon fill="#191970" stroke="#191970" points="293.018,-189.0219 282.4323,-188.5821 290.4333,-195.5272 293.018,-189.0219"/>
</g>
<!-- Node104 -->
<g id="node12" class="node">
<title>Node104</title>
<g id="a_node12"><a xlink:href="claw_8c.html#ac42dd40dbb37219295286859c6b068c2" target="_top" xlink:title="Drives the motors to close the claw. ">
<polygon fill="none" stroke="#000000" points="365.5483,-188.5 365.5483,-206.5 430.4595,-206.5 430.4595,-188.5 365.5483,-188.5"/>
<text text-anchor="middle" x="398.0039" y="-194.5" font-family="Helvetica,sans-Serif" font-size="10.00" fill="#000000">close_claw</text>
</a>
</g>
</g>
<!-- Node100&#45;&gt;Node104 -->
<g id="edge15" class="edge">
<title>Node100&#45;&gt;Node104</title>
<path fill="none" stroke="#191970" d="M326.191,-188.1622C339.756,-189.9261 353.4543,-191.7073 365.1978,-193.2343"/>
<polygon fill="#191970" stroke="#191970" points="326.2461,-184.64 315.8783,-186.8213 325.3435,-191.5816 326.2461,-184.64"/>
</g>
<!-- Node105 -->
<g id="node13" class="node">
<title>Node105</title>
<g id="a_node13"><a xlink:href="lifter_8c.html#a2cfc188f60f945c824dd7fe7b0b5f4e4" target="_top" xlink:title="Sets the lifter motors to the given value. ">
<polygon fill="none" stroke="#000000" points="353.0459,-113.5 353.0459,-131.5 442.9619,-131.5 442.9619,-113.5 353.0459,-113.5"/>
<text text-anchor="middle" x="398.0039" y="-119.5" font-family="Helvetica,sans-Serif" font-size="10.00" fill="#000000">set_lifter_motors</text>
</a>
</g>
</g>
<!-- Node100&#45;&gt;Node105 -->
<g id="edge17" class="edge">
<title>Node100&#45;&gt;Node105</title>
<path fill="none" stroke="#191970" d="M290.8627,-166.5649C308.6755,-159.2065 331.4078,-149.8252 351.6494,-141.5 359.5322,-138.2579 368.1728,-134.7136 375.8358,-131.5737"/>
<polygon fill="#191970" stroke="#191970" points="289.4255,-163.3717 281.5199,-170.4252 292.0986,-169.8412 289.4255,-163.3717"/>
</g>
<!-- Node109 -->
<g id="node17" class="node">
<title>Node109</title>
<g id="a_node17"><a xlink:href="mobile__goal__intake_8c.html#a8f215023832ba515d7b4535e3ae07498" target="_top" xlink:title="set_intake_motor">
<polygon fill="none" stroke="#000000" points="351.6494,-151.5 351.6494,-169.5 444.3584,-169.5 444.3584,-151.5 351.6494,-151.5"/>
<text text-anchor="middle" x="398.0039" y="-157.5" font-family="Helvetica,sans-Serif" font-size="10.00" fill="#000000">set_intake_motor</text>
</a>
</g>
</g>
<!-- Node100&#45;&gt;Node109 -->
<g id="edge25" class="edge">
<title>Node100&#45;&gt;Node109</title>
<path fill="none" stroke="#191970" d="M325.9488,-170.3898C334.5779,-169.2054 343.2659,-168.0129 351.4752,-166.8862"/>
<polygon fill="#191970" stroke="#191970" points="325.3095,-166.9446 315.8783,-171.772 326.2614,-173.8796 325.3095,-166.9446"/>
</g>
<!-- Node102 -->
<g id="node10" class="node">
<title>Node102</title>
<g id="a_node10"><a xlink:href="claw_8c.html#a0122b78972344264b8a276a559cfce4a" target="_top" xlink:title="Updates the claw motor values. ">
<polygon fill="none" stroke="#000000" points="621.2842,-20.5 621.2842,-38.5 693.4365,-38.5 693.4365,-20.5 621.2842,-20.5"/>
<text text-anchor="middle" x="657.3604" y="-26.5" font-family="Helvetica,sans-Serif" font-size="10.00" fill="#000000">update_claw</text>
</a>
</g>
</g>
<!-- Node101&#45;&gt;Node102 -->
<g id="edge11" class="edge">
<title>Node101&#45;&gt;Node102</title>
<path fill="none" stroke="#191970" d="M576.6304,-17.4496C591.5301,-19.6737 607.3769,-22.0391 621.049,-24.0799"/>
<polygon fill="#191970" stroke="#191970" points="576.9122,-13.953 566.505,-15.9382 575.8787,-20.8763 576.9122,-13.953"/>
</g>
<!-- Node102&#45;&gt;Node96 -->
<g id="edge12" class="edge">
<title>Node102&#45;&gt;Node96</title>
<path fill="none" stroke="#191970" d="M674.6589,-45.6885C685.8783,-56.5261 700.5464,-71.3478 712.333,-85.5 742.4515,-121.663 773.0839,-168.8854 785.4182,-188.4268"/>
<polygon fill="#191970" stroke="#191970" points="676.8425,-42.9346 667.1894,-38.5677 672.0124,-48.0012 676.8425,-42.9346"/>
</g>
<!-- Node103&#45;&gt;Node95 -->
<g id="edge14" class="edge">
<title>Node103&#45;&gt;Node95</title>
<path fill="none" stroke="#191970" d="M437.4191,-246.4469C455.5306,-251.9366 476.6626,-258.3418 493.4411,-263.4275"/>
<polygon fill="#191970" stroke="#191970" points="438.3,-243.0567 427.7146,-243.5055 436.2694,-249.7558 438.3,-243.0567"/>
</g>
<!-- Node104&#45;&gt;Node95 -->
<g id="edge16" class="edge">
<title>Node104&#45;&gt;Node95</title>
<path fill="none" stroke="#191970" d="M436.6846,-210.9708C439.3529,-212.3666 441.9396,-213.8755 444.3584,-215.5 463.6716,-228.4706 461.3456,-240.093 480.3584,-253.5 485.8294,-257.3579 492.2088,-260.6937 498.3534,-263.4461"/>
<polygon fill="#191970" stroke="#191970" points="437.9664,-207.7069 427.4236,-206.6586 435.0116,-214.0527 437.9664,-207.7069"/>
</g>
<!-- Node105&#45;&gt;Node95 -->
<g id="edge18" class="edge">
<title>Node105&#45;&gt;Node95</title>
<path fill="none" stroke="#191970" d="M439.3029,-136.9317C441.1213,-138.321 442.823,-139.8399 444.3584,-141.5 479.8605,-179.8852 445.3765,-214.6401 480.3584,-253.5 484.0726,-257.6259 488.8486,-260.9006 493.8602,-263.485"/>
<polygon fill="#191970" stroke="#191970" points="441.0836,-133.9177 430.7375,-131.6353 437.4021,-139.8715 441.0836,-133.9177"/>
</g>
<!-- Node106 -->
<g id="node14" class="node">
<title>Node106</title>
<g id="a_node14"><a xlink:href="lifter_8c.html#a7452163ed7946b6262f41de51c62dfd4" target="_top" xlink:title="raise_lifter">
<polygon fill="none" stroke="#000000" points="492.3091,-76.5 492.3091,-94.5 554.437,-94.5 554.437,-76.5 492.3091,-76.5"/>
<text text-anchor="middle" x="523.373" y="-82.5" font-family="Helvetica,sans-Serif" font-size="10.00" fill="#000000">raise_lifter</text>
</a>
</g>
</g>
<!-- Node105&#45;&gt;Node106 -->
<g id="edge19" class="edge">
<title>Node105&#45;&gt;Node106</title>
<path fill="none" stroke="#191970" d="M438.6381,-110.5077C456.1648,-105.3351 476.3273,-99.3845 492.5864,-94.586"/>
<polygon fill="#191970" stroke="#191970" points="437.2729,-107.2613 428.6726,-113.4488 439.2544,-113.975 437.2729,-107.2613"/>
</g>
<!-- Node107 -->
<g id="node15" class="node">
<title>Node107</title>
<g id="a_node15"><a xlink:href="lifter_8c.html#a59bb7413777ca16aba124aaedf95c79b" target="_top" xlink:title="Updates the lifter in teleop. ">
<polygon fill="none" stroke="#000000" points="621.8408,-95.5 621.8408,-113.5 692.8799,-113.5 692.8799,-95.5 621.8408,-95.5"/>
<text text-anchor="middle" x="657.3604" y="-101.5" font-family="Helvetica,sans-Serif" font-size="10.00" fill="#000000">update_lifter</text>
</a>
</g>
</g>
<!-- Node105&#45;&gt;Node107 -->
<g id="edge24" class="edge">
<title>Node105&#45;&gt;Node107</title>
<path fill="none" stroke="#191970" d="M414.8206,-106.5279C430.4169,-92.9008 454.9822,-74.3104 480.3584,-66.5 516.9019,-55.2524 528.8983,-58.9848 566.3877,-66.5 593.911,-72.0173 623.5052,-86.0608 641.2215,-95.442"/>
<polygon fill="#191970" stroke="#191970" points="412.1961,-104.1826 407.1305,-113.488 416.8934,-109.3725 412.1961,-104.1826"/>
</g>
<!-- Node108 -->
<g id="node16" class="node">
<title>Node108</title>
<g id="a_node16"><a xlink:href="lifter_8c.html#aa7d2d04059f57cc5b8582f6fd0726dc1" target="_top" xlink:title="lower_lifter">
<polygon fill="none" stroke="#000000" points="491.1982,-113.5 491.1982,-131.5 555.5479,-131.5 555.5479,-113.5 491.1982,-113.5"/>
<text text-anchor="middle" x="523.373" y="-119.5" font-family="Helvetica,sans-Serif" font-size="10.00" fill="#000000">lower_lifter</text>
</a>
</g>
</g>
<!-- Node105&#45;&gt;Node108 -->
<g id="edge22" class="edge">
<title>Node105&#45;&gt;Node108</title>
<path fill="none" stroke="#191970" d="M453.469,-122.5C466.3555,-122.5 479.6545,-122.5 491.1485,-122.5"/>
<polygon fill="#191970" stroke="#191970" points="453.2651,-119.0001 443.265,-122.5 453.265,-126.0001 453.2651,-119.0001"/>
</g>
<!-- Node106&#45;&gt;Node107 -->
<g id="edge20" class="edge">
<title>Node106&#45;&gt;Node107</title>
<path fill="none" stroke="#191970" d="M564.531,-91.3364C582.8135,-93.9289 604.1275,-96.9513 621.7181,-99.4458"/>
<polygon fill="#191970" stroke="#191970" points="564.8416,-87.8455 554.4492,-89.9067 563.8587,-94.7762 564.8416,-87.8455"/>
</g>
<!-- Node107&#45;&gt;Node96 -->
<g id="edge21" class="edge">
<title>Node107&#45;&gt;Node96</title>
<path fill="none" stroke="#191970" d="M678.9895,-119.5434C706.9349,-138.9798 754.7292,-172.2215 777.8182,-188.2802"/>
<polygon fill="#191970" stroke="#191970" points="680.8783,-116.5938 670.6702,-113.7572 676.8813,-122.3405 680.8783,-116.5938"/>
</g>
<!-- Node108&#45;&gt;Node107 -->
<g id="edge23" class="edge">
<title>Node108&#45;&gt;Node107</title>
<path fill="none" stroke="#191970" d="M565.9688,-116.7776C583.8317,-114.3779 604.3748,-111.6181 621.4542,-109.3237"/>
<polygon fill="#191970" stroke="#191970" points="565.2526,-113.3423 555.8076,-118.1427 566.1846,-120.28 565.2526,-113.3423"/>
</g>
<!-- Node110 -->
<g id="node18" class="node">
<title>Node110</title>
<g id="a_node18"><a xlink:href="mobile__goal__intake_8c.html#afa91470a9891e48827fd62d18553c6ce" target="_top" xlink:title="lower_intake">
<polygon fill="none" stroke="#000000" points="487.3018,-226.5 487.3018,-244.5 559.4443,-244.5 559.4443,-226.5 487.3018,-226.5"/>
<text text-anchor="middle" x="523.373" y="-232.5" font-family="Helvetica,sans-Serif" font-size="10.00" fill="#000000">lower_intake</text>
</a>
</g>
</g>
<!-- Node109&#45;&gt;Node110 -->
<g id="edge26" class="edge">
<title>Node109&#45;&gt;Node110</title>
<path fill="none" stroke="#191970" d="M435.5363,-173.6601C438.5919,-175.1537 441.5723,-176.7681 444.3584,-178.5 462.7922,-189.9589 462.7619,-198.7927 480.3584,-211.5 487.9845,-217.0072 496.9988,-222.2128 504.8002,-226.3592"/>
<polygon fill="#191970" stroke="#191970" points="436.8234,-170.4022 426.2632,-169.5452 433.9841,-176.8005 436.8234,-170.4022"/>
</g>
<!-- Node111 -->
<g id="node19" class="node">
<title>Node111</title>
<g id="a_node19"><a xlink:href="mobile__goal__intake_8c.html#ad0232c21c5c1ffda603d2b7d61034118" target="_top" xlink:title="updates the mobile goal intake in teleop. ">
<polygon fill="none" stroke="#000000" points="620.4468,-188.5 620.4468,-206.5 694.2739,-206.5 694.2739,-188.5 620.4468,-188.5"/>
<text text-anchor="middle" x="657.3604" y="-194.5" font-family="Helvetica,sans-Serif" font-size="10.00" fill="#000000">updateIntake</text>
</a>
</g>
</g>
<!-- Node109&#45;&gt;Node111 -->
<g id="edge31" class="edge">
<title>Node109&#45;&gt;Node111</title>
<path fill="none" stroke="#191970" d="M448.0632,-171.5921C458.6919,-173.7341 469.8699,-175.8285 480.3584,-177.5 528.4583,-185.1657 584.3704,-190.9692 620.2756,-194.3004"/>
<polygon fill="#191970" stroke="#191970" points="448.5821,-168.1256 438.0816,-169.5362 447.1699,-174.9817 448.5821,-168.1256"/>
</g>
<!-- Node112 -->
<g id="node20" class="node">
<title>Node112</title>
<g id="a_node20"><a xlink:href="mobile__goal__intake_8c.html#a4899f9a8621015313e6312ce085da979" target="_top" xlink:title="raise_intake">
<polygon fill="none" stroke="#000000" points="488.4126,-150.5 488.4126,-168.5 558.3335,-168.5 558.3335,-150.5 488.4126,-150.5"/>
<text text-anchor="middle" x="523.373" y="-156.5" font-family="Helvetica,sans-Serif" font-size="10.00" fill="#000000">raise_intake</text>
</a>
</g>
</g>
<!-- Node109&#45;&gt;Node112 -->
<g id="edge29" class="edge">
<title>Node109&#45;&gt;Node112</title>
<path fill="none" stroke="#191970" d="M455.026,-160.0452C466.4085,-159.9544 478.0422,-159.8616 488.4091,-159.7789"/>
<polygon fill="#191970" stroke="#191970" points="454.6585,-156.5479 444.6867,-160.1276 454.7144,-163.5477 454.6585,-156.5479"/>
</g>
<!-- Node110&#45;&gt;Node111 -->
<g id="edge27" class="edge">
<title>Node110&#45;&gt;Node111</title>
<path fill="none" stroke="#191970" d="M564.9608,-223.7053C584.4357,-218.1821 607.2729,-211.7052 625.3708,-206.5725"/>
<polygon fill="#191970" stroke="#191970" points="563.7917,-220.3988 555.1262,-226.4945 565.7017,-227.1332 563.7917,-220.3988"/>
</g>
<!-- Node111&#45;&gt;Node96 -->
<g id="edge28" class="edge">
<title>Node111&#45;&gt;Node96</title>
<path fill="none" stroke="#191970" d="M705.0137,-197.5C718.9938,-197.5 734.1981,-197.5 747.8833,-197.5"/>
<polygon fill="#191970" stroke="#191970" points="704.6072,-194.0001 694.6071,-197.5 704.6071,-201.0001 704.6072,-194.0001"/>
</g>
<!-- Node112&#45;&gt;Node111 -->
<g id="edge30" class="edge">
<title>Node112&#45;&gt;Node111</title>
<path fill="none" stroke="#191970" d="M564.9608,-171.2947C584.4357,-176.8179 607.2729,-183.2948 625.3708,-188.4275"/>
<polygon fill="#191970" stroke="#191970" points="565.7017,-167.8668 555.1262,-168.5055 563.7917,-174.6012 565.7017,-167.8668"/>
</g>
</g>
</svg>
