<?xml version="1.0" encoding="UTF-8" standalone="no"?>
<!DOCTYPE svg PUBLIC "-//W3C//DTD SVG 1.1//EN"
 "http://www.w3.org/Graphics/SVG/1.1/DTD/svg11.dtd">
<!-- Generated by graphviz version 2.40.1 (20161225.0304)
 -->
<!-- Title: src/slew.c Pages: 1 -->
<svg width="204pt" height="192pt"
 viewBox="0.00 0.00 204.32 192.00" xmlns="http://www.w3.org/2000/svg" xmlns:xlink="http://www.w3.org/1999/xlink">
<g id="graph0" class="graph" transform="scale(1 1) rotate(0) translate(4 188)">
<title>src/slew.c</title>
<!-- Node0 -->
<g id="node1" class="node">
<title>Node0</title>
<polygon fill="#bfbfbf" stroke="#000000" points="88.6133,-165.5 88.6133,-183.5 147.958,-183.5 147.958,-165.5 88.6133,-165.5"/>
<text text-anchor="middle" x="118.2856" y="-171.5" font-family="Helvetica,sans-Serif" font-size="10.00" fill="#000000">src/slew.c</text>
</g>
<!-- Node1 -->
<g id="node2" class="node">
<title>Node1</title>
<g id="a_node2"><a xlink:href="slew_8h.html" target="_top" xlink:title="Contains the slew rate controller wrapper for the motors. ">
<polygon fill="none" stroke="#000000" points="67.3867,-110.5 67.3867,-128.5 111.1846,-128.5 111.1846,-110.5 67.3867,-110.5"/>
<text text-anchor="middle" x="89.2856" y="-116.5" font-family="Helvetica,sans-Serif" font-size="10.00" fill="#000000">slew.h</text>
</a>
</g>
</g>
<!-- Node0&#45;&gt;Node1 -->
<g id="edge1" class="edge">
<title>Node0&#45;&gt;Node1</title>
<path fill="none" stroke="#191970" d="M113.4969,-165.4179C109.5328,-157.8998 103.7766,-146.9829 98.8714,-137.6799"/>
<polygon fill="#191970" stroke="#191970" points="101.9386,-135.9927 94.1784,-128.7795 95.7466,-139.2576 101.9386,-135.9927"/>
</g>
<!-- Node6 -->
<g id="node7" class="node">
<title>Node6</title>
<g id="a_node7"><a xlink:href="log_8h.html" target="_top" xlink:title="Contains logging functions. ">
<polygon fill="none" stroke="#000000" points="147.4434,-110.5 147.4434,-128.5 185.1279,-128.5 185.1279,-110.5 147.4434,-110.5"/>
<text text-anchor="middle" x="166.2856" y="-116.5" font-family="Helvetica,sans-Serif" font-size="10.00" fill="#000000">log.h</text>
</a>
</g>
</g>
<!-- Node0&#45;&gt;Node6 -->
<g id="edge8" class="edge">
<title>Node0&#45;&gt;Node6</title>
<path fill="none" stroke="#191970" d="M126.2119,-165.4179C133.0493,-157.5833 143.1082,-146.0575 151.4373,-136.5137"/>
<polygon fill="#191970" stroke="#191970" points="154.2488,-138.6151 158.1872,-128.7795 148.9748,-134.0123 154.2488,-138.6151"/>
</g>
<!-- Node2 -->
<g id="node3" class="node">
<title>Node2</title>
<polygon fill="none" stroke="#bfbfbf" points="139.0566,-.5 139.0566,-18.5 179.5146,-18.5 179.5146,-.5 139.0566,-.5"/>
<text text-anchor="middle" x="159.2856" y="-6.5" font-family="Helvetica,sans-Serif" font-size="10.00" fill="#000000">API.h</text>
</g>
<!-- Node1&#45;&gt;Node2 -->
<g id="edge2" class="edge">
<title>Node1&#45;&gt;Node2</title>
<path fill="none" stroke="#191970" d="M95.014,-110.4982C106.5508,-92.369 132.7717,-51.1647 147.9164,-27.3659"/>
<polygon fill="#191970" stroke="#191970" points="151.0621,-28.9419 153.4781,-18.6261 145.1565,-25.1837 151.0621,-28.9419"/>
</g>
<!-- Node3 -->
<g id="node4" class="node">
<title>Node3</title>
<polygon fill="none" stroke="#bfbfbf" points="0,-.5 0,-18.5 46.5713,-18.5 46.5713,-.5 0,-.5"/>
<text text-anchor="middle" x="23.2856" y="-6.5" font-family="Helvetica,sans-Serif" font-size="10.00" fill="#000000">math.h</text>
</g>
<!-- Node1&#45;&gt;Node3 -->
<g id="edge3" class="edge">
<title>Node1&#45;&gt;Node3</title>
<path fill="none" stroke="#191970" d="M76.7415,-110.3865C66.1147,-102.0414 51.2207,-88.7702 42.2856,-74 33.8831,-60.1101 29.0028,-42.2779 26.2975,-28.885"/>
<polygon fill="#191970" stroke="#191970" points="29.7112,-28.0917 24.507,-18.8631 22.8203,-29.3228 29.7112,-28.0917"/>
</g>
<!-- Node4 -->
<g id="node5" class="node">
<title>Node4</title>
<g id="a_node5"><a xlink:href="vlib_8h.html" target="_top" xlink:title="Contains misc helpful functions. ">
<polygon fill="none" stroke="#000000" points="51.6133,-55.5 51.6133,-73.5 90.958,-73.5 90.958,-55.5 51.6133,-55.5"/>
<text text-anchor="middle" x="71.2856" y="-61.5" font-family="Helvetica,sans-Serif" font-size="10.00" fill="#000000">vlib.h</text>
</a>
</g>
</g>
<!-- Node1&#45;&gt;Node4 -->
<g id="edge4" class="edge">
<title>Node1&#45;&gt;Node4</title>
<path fill="none" stroke="#191970" d="M86.3133,-110.4179C83.9306,-103.1372 80.5046,-92.669 77.5254,-83.5659"/>
<polygon fill="#191970" stroke="#191970" points="80.7594,-82.1948 74.3226,-73.7795 74.1066,-84.3721 80.7594,-82.1948"/>
</g>
<!-- Node4&#45;&gt;Node2 -->
<g id="edge6" class="edge">
<title>Node4&#45;&gt;Node2</title>
<path fill="none" stroke="#191970" d="M85.8171,-55.4179C99.447,-46.8992 120.0592,-34.0166 135.9853,-24.0627"/>
<polygon fill="#191970" stroke="#191970" points="138.1077,-26.8637 144.7326,-18.5956 134.3976,-20.9277 138.1077,-26.8637"/>
</g>
<!-- Node4&#45;&gt;Node3 -->
<g id="edge5" class="edge">
<title>Node4&#45;&gt;Node3</title>
<path fill="none" stroke="#191970" d="M63.3594,-55.4179C56.5219,-47.5833 46.4631,-36.0575 38.134,-26.5137"/>
<polygon fill="#191970" stroke="#191970" points="40.5964,-24.0123 31.3841,-18.7795 35.3225,-28.6151 40.5964,-24.0123"/>
</g>
<!-- Node5 -->
<g id="node6" class="node">
<title>Node5</title>
<polygon fill="none" stroke="#bfbfbf" points="64.8892,-.5 64.8892,-18.5 113.6821,-18.5 113.6821,-.5 64.8892,-.5"/>
<text text-anchor="middle" x="89.2856" y="-6.5" font-family="Helvetica,sans-Serif" font-size="10.00" fill="#000000">string.h</text>
</g>
<!-- Node4&#45;&gt;Node5 -->
<g id="edge7" class="edge">
<title>Node4&#45;&gt;Node5</title>
<path fill="none" stroke="#191970" d="M74.258,-55.4179C76.6407,-48.1372 80.0667,-37.669 83.0459,-28.5659"/>
<polygon fill="#191970" stroke="#191970" points="86.4647,-29.3721 86.2487,-18.7795 79.8119,-27.1948 86.4647,-29.3721"/>
</g>
<!-- Node6&#45;&gt;Node2 -->
<g id="edge9" class="edge">
<title>Node6&#45;&gt;Node2</title>
<path fill="none" stroke="#191970" d="M174.8067,-110.4995C185.3753,-98.1994 201.204,-75.3409 194.2856,-55 190.6654,-44.3559 183.439,-34.2572 176.4879,-26.2901"/>
<polygon fill="#191970" stroke="#191970" points="178.8935,-23.7383 169.5063,-18.8258 173.7811,-28.52 178.8935,-23.7383"/>
</g>
<!-- Node7 -->
<g id="node8" class="node">
<title>Node7</title>
<g id="a_node8"><a xlink:href="lcd_8h.html" target="_top" xlink:title="LCD wrapper functions and macros. ">
<polygon fill="none" stroke="#000000" points="147.7241,-55.5 147.7241,-73.5 184.8472,-73.5 184.8472,-55.5 147.7241,-55.5"/>
<text text-anchor="middle" x="166.2856" y="-61.5" font-family="Helvetica,sans-Serif" font-size="10.00" fill="#000000">lcd.h</text>
</a>
</g>
</g>
<!-- Node6&#45;&gt;Node7 -->
<g id="edge10" class="edge">
<title>Node6&#45;&gt;Node7</title>
<path fill="none" stroke="#191970" d="M166.2856,-110.4179C166.2856,-103.2164 166.2856,-92.8962 166.2856,-83.8632"/>
<polygon fill="#191970" stroke="#191970" points="169.7857,-83.7794 166.2856,-73.7795 162.7857,-83.7795 169.7857,-83.7794"/>
</g>
<!-- Node7&#45;&gt;Node2 -->
<g id="edge11" class="edge">
<title>Node7&#45;&gt;Node2</title>
<path fill="none" stroke="#191970" d="M165.1297,-55.4179C164.2132,-48.2164 162.8997,-37.8962 161.75,-28.8632"/>
<polygon fill="#191970" stroke="#191970" points="165.2013,-28.2575 160.4667,-18.7795 158.2573,-29.1414 165.2013,-28.2575"/>
</g>
</g>
</svg>
