<?xml version="1.0" encoding="UTF-8" standalone="no"?>
<!DOCTYPE svg PUBLIC "-//W3C//DTD SVG 1.1//EN"
 "http://www.w3.org/Graphics/SVG/1.1/DTD/svg11.dtd">
<!-- Generated by graphviz version 2.40.1 (20161225.0304)
 -->
<!-- Title: init_slew Pages: 1 -->
<svg width="396pt" height="257pt"
 viewBox="0.00 0.00 396.22 257.00" xmlns="http://www.w3.org/2000/svg" xmlns:xlink="http://www.w3.org/1999/xlink">
<g id="graph0" class="graph" transform="scale(1 1) rotate(0) translate(4 253)">
<title>init_slew</title>
<!-- Node4 -->
<g id="node1" class="node">
<title>Node4</title>
<polygon fill="#bfbfbf" stroke="#000000" points="0,-156.5 0,-174.5 54.3496,-174.5 54.3496,-156.5 0,-156.5"/>
<text text-anchor="middle" x="27.1748" y="-162.5" font-family="Helvetica,sans-Serif" font-size="10.00" fill="#000000">init_slew</text>
</g>
<!-- Node5 -->
<g id="node2" class="node">
<title>Node5</title>
<g id="a_node2"><a xlink:href="_a_p_i_8h.html#a8966c541f3e9565aea1289f0d2f2cf43" target="_top" xlink:title="Stops all motors; significantly faster than looping through all motor ports and calling motorSet(chan...">
<polygon fill="none" stroke="#000000" points="92.3003,-230.5 92.3003,-248.5 165.5464,-248.5 165.5464,-230.5 92.3003,-230.5"/>
<text text-anchor="middle" x="128.9233" y="-236.5" font-family="Helvetica,sans-Serif" font-size="10.00" fill="#000000">motorStopAll</text>
</a>
</g>
</g>
<!-- Node4&#45;&gt;Node5 -->
<g id="edge1" class="edge">
<title>Node4&#45;&gt;Node5</title>
<path fill="none" stroke="#191970" d="M35.9057,-174.7481C47.5071,-186.6633 69.0308,-207.5041 90.3496,-221.5 92.645,-223.007 95.0867,-224.4557 97.5839,-225.8313"/>
<polygon fill="#191970" stroke="#191970" points="96.2072,-229.0576 106.708,-230.4665 99.3777,-222.8168 96.2072,-229.0576"/>
</g>
<!-- Node6 -->
<g id="node3" class="node">
<title>Node6</title>
<g id="a_node3"><a xlink:href="_a_p_i_8h.html#aecd027ce8f8b52a765735e9eb5b202b3" target="_top" xlink:title="Creates a mutex intended to allow only one task to use a resource at a time. ">
<polygon fill="none" stroke="#000000" points="92.3003,-193.5 92.3003,-211.5 165.5464,-211.5 165.5464,-193.5 92.3003,-193.5"/>
<text text-anchor="middle" x="128.9233" y="-199.5" font-family="Helvetica,sans-Serif" font-size="10.00" fill="#000000">mutexCreate</text>
</a>
</g>
</g>
<!-- Node4&#45;&gt;Node6 -->
<g id="edge2" class="edge">
<title>Node4&#45;&gt;Node6</title>
<path fill="none" stroke="#191970" d="M52.0653,-174.5512C64.753,-179.165 80.3881,-184.8506 94.2367,-189.8865"/>
<polygon fill="#191970" stroke="#191970" points="93.3431,-193.2857 103.9372,-193.414 95.7354,-186.7072 93.3431,-193.2857"/>
</g>
<!-- Node7 -->
<g id="node4" class="node">
<title>Node7</title>
<g id="a_node4"><a xlink:href="_a_p_i_8h.html#ab05a241d6d1fd98b1ceb4665db678156" target="_top" xlink:title="Starts a task which will periodically call the specified function. ">
<polygon fill="none" stroke="#000000" points="91.458,-156.5 91.458,-174.5 166.3887,-174.5 166.3887,-156.5 91.458,-156.5"/>
<text text-anchor="middle" x="128.9233" y="-162.5" font-family="Helvetica,sans-Serif" font-size="10.00" fill="#000000">taskRunLoop</text>
</a>
</g>
</g>
<!-- Node4&#45;&gt;Node7 -->
<g id="edge3" class="edge">
<title>Node4&#45;&gt;Node7</title>
<path fill="none" stroke="#191970" d="M54.4415,-165.5C62.6533,-165.5 71.9194,-165.5 81.0558,-165.5"/>
<polygon fill="#191970" stroke="#191970" points="81.2528,-169.0001 91.2528,-165.5 81.2528,-162.0001 81.2528,-169.0001"/>
</g>
<!-- Node8 -->
<g id="node5" class="node">
<title>Node8</title>
<g id="a_node5"><a xlink:href="slew_8c.html#a807a87c5df438fde21c1e8213906695b" target="_top" xlink:title="Closes the distance between the desired motor value and the current motor value by half for each moto...">
<polygon fill="none" stroke="#000000" points="90.3496,-119.5 90.3496,-137.5 167.4971,-137.5 167.4971,-119.5 90.3496,-119.5"/>
<text text-anchor="middle" x="128.9233" y="-125.5" font-family="Helvetica,sans-Serif" font-size="10.00" fill="#000000">updateMotors</text>
</a>
</g>
</g>
<!-- Node4&#45;&gt;Node8 -->
<g id="edge4" class="edge">
<title>Node4&#45;&gt;Node8</title>
<path fill="none" stroke="#191970" d="M52.0653,-156.4488C64.753,-151.835 80.3881,-146.1494 94.2367,-141.1135"/>
<polygon fill="#191970" stroke="#191970" points="95.7354,-144.2928 103.9372,-137.586 93.3431,-137.7143 95.7354,-144.2928"/>
</g>
<!-- Node12 -->
<g id="node9" class="node">
<title>Node12</title>
<g id="a_node9"><a xlink:href="log_8h.html#a0bec2cf5fff7f607bc510b74aba9887c" target="_top" xlink:title="prints a warning message and displays on lcd. ">
<polygon fill="none" stroke="#000000" points="103.4136,-73.5 103.4136,-91.5 154.4331,-91.5 154.4331,-73.5 103.4136,-73.5"/>
<text text-anchor="middle" x="128.9233" y="-79.5" font-family="Helvetica,sans-Serif" font-size="10.00" fill="#000000">warning</text>
</a>
</g>
</g>
<!-- Node4&#45;&gt;Node12 -->
<g id="edge8" class="edge">
<title>Node4&#45;&gt;Node12</title>
<path fill="none" stroke="#191970" d="M37.2238,-156.2607C49.4936,-145.0957 71.0049,-125.8925 90.3496,-110.5 95.7889,-106.172 101.8118,-101.6696 107.4496,-97.5732"/>
<polygon fill="#191970" stroke="#191970" points="109.7616,-100.2224 115.8528,-91.5537 105.6852,-94.5318 109.7616,-100.2224"/>
</g>
<!-- Node9 -->
<g id="node6" class="node">
<title>Node9</title>
<g id="a_node6"><a xlink:href="_a_p_i_8h.html#a8b51124628d2a7741738d48551d1e8ee" target="_top" xlink:title="Requests a mutex so that other tasks cannot simultaneously use the resource it guards. ">
<polygon fill="none" stroke="#000000" points="203.4971,-166.5 203.4971,-184.5 267.8516,-184.5 267.8516,-166.5 203.4971,-166.5"/>
<text text-anchor="middle" x="235.6743" y="-172.5" font-family="Helvetica,sans-Serif" font-size="10.00" fill="#000000">mutexTake</text>
</a>
</g>
</g>
<!-- Node8&#45;&gt;Node9 -->
<g id="edge5" class="edge">
<title>Node8&#45;&gt;Node9</title>
<path fill="none" stroke="#191970" d="M149.506,-137.5621C165.4556,-144.5843 187.7834,-154.4147 205.7141,-162.3092"/>
<polygon fill="#191970" stroke="#191970" points="204.5923,-165.6395 215.1548,-166.4657 207.413,-159.2329 204.5923,-165.6395"/>
</g>
<!-- Node10 -->
<g id="node7" class="node">
<title>Node10</title>
<g id="a_node7"><a xlink:href="_a_p_i_8h.html#afe171a08d22de18fc2ab604b2364959f" target="_top" xlink:title="Relinquishes a mutex so that other tasks can use the resource it guards. ">
<polygon fill="none" stroke="#000000" points="203.7778,-129.5 203.7778,-147.5 267.5708,-147.5 267.5708,-129.5 203.7778,-129.5"/>
<text text-anchor="middle" x="235.6743" y="-135.5" font-family="Helvetica,sans-Serif" font-size="10.00" fill="#000000">mutexGive</text>
</a>
</g>
</g>
<!-- Node8&#45;&gt;Node10 -->
<g id="edge6" class="edge">
<title>Node8&#45;&gt;Node10</title>
<path fill="none" stroke="#191970" d="M167.7649,-132.1385C176.1566,-132.9246 185.0671,-133.7593 193.5769,-134.5565"/>
<polygon fill="#191970" stroke="#191970" points="193.4135,-138.0564 203.6964,-135.5044 194.0664,-131.0869 193.4135,-138.0564"/>
</g>
<!-- Node11 -->
<g id="node8" class="node">
<title>Node11</title>
<g id="a_node8"><a xlink:href="_a_p_i_8h.html#a03c5b04b472d024281f62d7af8854a8e" target="_top" xlink:title="Sets the speed of the specified motor channel. ">
<polygon fill="none" stroke="#000000" points="207.3887,-92.5 207.3887,-110.5 263.96,-110.5 263.96,-92.5 207.3887,-92.5"/>
<text text-anchor="middle" x="235.6743" y="-98.5" font-family="Helvetica,sans-Serif" font-size="10.00" fill="#000000">motorSet</text>
</a>
</g>
</g>
<!-- Node8&#45;&gt;Node11 -->
<g id="edge7" class="edge">
<title>Node8&#45;&gt;Node11</title>
<path fill="none" stroke="#191970" d="M164.7668,-119.4343C175.2323,-116.7873 186.7095,-113.8844 197.3236,-111.1999"/>
<polygon fill="#191970" stroke="#191970" points="198.3379,-114.5536 207.1744,-108.7083 196.6214,-107.7673 198.3379,-114.5536"/>
</g>
<!-- Node13 -->
<g id="node10" class="node">
<title>Node13</title>
<g id="a_node10"><a xlink:href="log_8c.html#afff22aff6749311a684a559cac3ac8bd" target="_top" xlink:title="prints a log info message to the lcd ">
<polygon fill="none" stroke="#000000" points="210.1597,-55.5 210.1597,-73.5 261.189,-73.5 261.189,-55.5 210.1597,-55.5"/>
<text text-anchor="middle" x="235.6743" y="-61.5" font-family="Helvetica,sans-Serif" font-size="10.00" fill="#000000">log_info</text>
</a>
</g>
</g>
<!-- Node12&#45;&gt;Node13 -->
<g id="edge9" class="edge">
<title>Node12&#45;&gt;Node13</title>
<path fill="none" stroke="#191970" d="M154.4929,-78.1886C168.1246,-75.89 185.1136,-73.0254 200.0217,-70.5116"/>
<polygon fill="#191970" stroke="#191970" points="200.6646,-73.9527 209.9435,-68.8387 199.5007,-67.0502 200.6646,-73.9527"/>
</g>
<!-- Node14 -->
<g id="node11" class="node">
<title>Node14</title>
<g id="a_node11"><a xlink:href="_a_p_i_8h.html#a5fa1d119fe3e836b5519f97eae7a1272" target="_top" xlink:title="Clears the LCD screen on the specified port. ">
<polygon fill="none" stroke="#000000" points="319.6963,-111.5 319.6963,-129.5 372.376,-129.5 372.376,-111.5 319.6963,-111.5"/>
<text text-anchor="middle" x="346.0361" y="-117.5" font-family="Helvetica,sans-Serif" font-size="10.00" fill="#000000">lcdClear</text>
</a>
</g>
</g>
<!-- Node13&#45;&gt;Node14 -->
<g id="edge10" class="edge">
<title>Node13&#45;&gt;Node14</title>
<path fill="none" stroke="#191970" d="M250.8628,-73.5715C264.5198,-81.5816 285.2364,-93.3721 303.8516,-102.5 307.1939,-104.1389 310.7223,-105.7795 314.2573,-107.3665"/>
<polygon fill="#191970" stroke="#191970" points="312.942,-110.6112 323.5071,-111.4043 315.7426,-104.1958 312.942,-110.6112"/>
</g>
<!-- Node15 -->
<g id="node12" class="node">
<title>Node15</title>
<g id="a_node12"><a xlink:href="_a_p_i_8h.html#a6cfad8271c6a566a2f51ca318f819a80" target="_top" xlink:title="Prints the formatted string to the attached LCD. ">
<polygon fill="none" stroke="#000000" points="321.3638,-74.5 321.3638,-92.5 370.7085,-92.5 370.7085,-74.5 321.3638,-74.5"/>
<text text-anchor="middle" x="346.0361" y="-80.5" font-family="Helvetica,sans-Serif" font-size="10.00" fill="#000000">lcdPrint</text>
</a>
</g>
</g>
<!-- Node13&#45;&gt;Node15 -->
<g id="edge11" class="edge">
<title>Node13&#45;&gt;Node15</title>
<path fill="none" stroke="#191970" d="M261.2709,-68.9067C276.1054,-71.4607 294.9898,-74.7118 311.1673,-77.4969"/>
<polygon fill="#191970" stroke="#191970" points="310.8886,-81.0004 321.3375,-79.2479 312.0763,-74.1019 310.8886,-81.0004"/>
</g>
<!-- Node16 -->
<g id="node13" class="node">
<title>Node16</title>
<g id="a_node13"><a xlink:href="_a_p_i_8h.html#aab53a247d88151a6623c20fa1ea940b0" target="_top" xlink:title="Sets the specified LCD backlight to be on or off. ">
<polygon fill="none" stroke="#000000" points="303.8516,-37.5 303.8516,-55.5 388.2207,-55.5 388.2207,-37.5 303.8516,-37.5"/>
<text text-anchor="middle" x="346.0361" y="-43.5" font-family="Helvetica,sans-Serif" font-size="10.00" fill="#000000">lcdSetBacklight</text>
</a>
</g>
</g>
<!-- Node13&#45;&gt;Node16 -->
<g id="edge12" class="edge">
<title>Node13&#45;&gt;Node16</title>
<path fill="none" stroke="#191970" d="M261.2709,-60.3252C270.9238,-58.7508 282.2914,-56.8968 293.5123,-55.0666"/>
<polygon fill="#191970" stroke="#191970" points="294.4163,-58.4655 303.7224,-53.4014 293.2894,-51.5568 294.4163,-58.4655"/>
</g>
<!-- Node17 -->
<g id="node14" class="node">
<title>Node17</title>
<g id="a_node14"><a xlink:href="_a_p_i_8h.html#a403c82418e475fa4a8273719e6a7f3e6" target="_top" xlink:title="Prints the formatted string to the debug stream (the PC terminal). ">
<polygon fill="none" stroke="#000000" points="326.9204,-.5 326.9204,-18.5 365.1519,-18.5 365.1519,-.5 326.9204,-.5"/>
<text text-anchor="middle" x="346.0361" y="-6.5" font-family="Helvetica,sans-Serif" font-size="10.00" fill="#000000">printf</text>
</a>
</g>
</g>
<!-- Node13&#45;&gt;Node17 -->
<g id="edge13" class="edge">
<title>Node13&#45;&gt;Node17</title>
<path fill="none" stroke="#191970" d="M252.0579,-55.4787C265.7766,-48.0146 285.9325,-37.2557 303.8516,-28.5 308.2223,-26.3644 312.8859,-24.1758 317.4593,-22.079"/>
<polygon fill="#191970" stroke="#191970" points="318.9256,-25.2572 326.5972,-17.9499 316.0431,-18.8782 318.9256,-25.2572"/>
</g>
</g>
</svg>
