<?xml version="1.0" encoding="UTF-8" standalone="no"?>
<!DOCTYPE svg PUBLIC "-//W3C//DTD SVG 1.1//EN"
 "http://www.w3.org/Graphics/SVG/1.1/DTD/svg11.dtd">
<!-- Generated by graphviz version 2.40.1 (20161225.0304)
 -->
<!-- Title: src/slew.c Pages: 1 -->
<svg width="290pt" height="247pt"
 viewBox="0.00 0.00 290.13 247.00" xmlns="http://www.w3.org/2000/svg" xmlns:xlink="http://www.w3.org/1999/xlink">
<g id="graph0" class="graph" transform="scale(1 1) rotate(0) translate(4 243)">
<title>src/slew.c</title>
<!-- Node0 -->
<g id="node1" class="node">
<title>Node0</title>
<polygon fill="#bfbfbf" stroke="#000000" points="163.1699,-220.5 163.1699,-238.5 222.5146,-238.5 222.5146,-220.5 163.1699,-220.5"/>
<text text-anchor="middle" x="192.8423" y="-226.5" font-family="Helvetica,sans-Serif" font-size="10.00" fill="#000000">src/slew.c</text>
</g>
<!-- Node1 -->
<g id="node2" class="node">
<title>Node1</title>
<g id="a_node2"><a xlink:href="slew_8h.html" target="_top" xlink:title="Contains the slew rate controller wrapper for the motors. ">
<polygon fill="none" stroke="#000000" points="170.9434,-165.5 170.9434,-183.5 214.7412,-183.5 214.7412,-165.5 170.9434,-165.5"/>
<text text-anchor="middle" x="192.8423" y="-171.5" font-family="Helvetica,sans-Serif" font-size="10.00" fill="#000000">slew.h</text>
</a>
</g>
</g>
<!-- Node0&#45;&gt;Node1 -->
<g id="edge1" class="edge">
<title>Node0&#45;&gt;Node1</title>
<path fill="none" stroke="#191970" d="M192.8423,-220.4179C192.8423,-213.2164 192.8423,-202.8962 192.8423,-193.8632"/>
<polygon fill="#191970" stroke="#191970" points="196.3424,-193.7794 192.8423,-183.7795 189.3424,-193.7795 196.3424,-193.7794"/>
</g>
<!-- Node2 -->
<g id="node3" class="node">
<title>Node2</title>
<g id="a_node3"><a xlink:href="_a_p_i_8h.html" target="_top" xlink:title="Provides the high&#45;level user functionality intended for use by typical VEX Cortex programmers...">
<polygon fill="none" stroke="#000000" points="109.6133,-55.5 109.6133,-73.5 150.0713,-73.5 150.0713,-55.5 109.6133,-55.5"/>
<text text-anchor="middle" x="129.8423" y="-61.5" font-family="Helvetica,sans-Serif" font-size="10.00" fill="#000000">API.h</text>
</a>
</g>
</g>
<!-- Node1&#45;&gt;Node2 -->
<g id="edge2" class="edge">
<title>Node1&#45;&gt;Node2</title>
<path fill="none" stroke="#191970" d="M186.6151,-165.2279C180.581,-156.1301 171.2768,-141.7977 163.8423,-129 155.0118,-113.7994 145.7564,-96.1095 139.1357,-83.1043"/>
<polygon fill="#191970" stroke="#191970" points="142.0787,-81.1674 134.4494,-73.8159 135.8291,-84.3205 142.0787,-81.1674"/>
</g>
<!-- Node7 -->
<g id="node8" class="node">
<title>Node7</title>
<polygon fill="none" stroke="#bfbfbf" points="235.5566,-55.5 235.5566,-73.5 282.1279,-73.5 282.1279,-55.5 235.5566,-55.5"/>
<text text-anchor="middle" x="258.8423" y="-61.5" font-family="Helvetica,sans-Serif" font-size="10.00" fill="#000000">math.h</text>
</g>
<!-- Node1&#45;&gt;Node7 -->
<g id="edge7" class="edge">
<title>Node1&#45;&gt;Node7</title>
<path fill="none" stroke="#191970" d="M198.9696,-165.1687C204.9296,-156.0269 214.1805,-141.6629 221.8423,-129 231.215,-113.5092 241.4233,-95.6326 248.7384,-82.6338"/>
<polygon fill="#191970" stroke="#191970" points="251.873,-84.1995 253.7066,-73.7646 245.7659,-80.7785 251.873,-84.1995"/>
</g>
<!-- Node8 -->
<g id="node9" class="node">
<title>Node8</title>
<g id="a_node9"><a xlink:href="vlib_8h.html" target="_top" xlink:title="Contains misc helpful functions. ">
<polygon fill="none" stroke="#000000" points="173.1699,-110.5 173.1699,-128.5 212.5146,-128.5 212.5146,-110.5 173.1699,-110.5"/>
<text text-anchor="middle" x="192.8423" y="-116.5" font-family="Helvetica,sans-Serif" font-size="10.00" fill="#000000">vlib.h</text>
</a>
</g>
</g>
<!-- Node1&#45;&gt;Node8 -->
<g id="edge8" class="edge">
<title>Node1&#45;&gt;Node8</title>
<path fill="none" stroke="#191970" d="M192.8423,-165.4179C192.8423,-158.2164 192.8423,-147.8962 192.8423,-138.8632"/>
<polygon fill="#191970" stroke="#191970" points="196.3424,-138.7794 192.8423,-128.7795 189.3424,-138.7795 196.3424,-138.7794"/>
</g>
<!-- Node3 -->
<g id="node4" class="node">
<title>Node3</title>
<polygon fill="none" stroke="#bfbfbf" points="0,-.5 0,-18.5 47.6846,-18.5 47.6846,-.5 0,-.5"/>
<text text-anchor="middle" x="23.8423" y="-6.5" font-family="Helvetica,sans-Serif" font-size="10.00" fill="#000000">stdlib.h</text>
</g>
<!-- Node2&#45;&gt;Node3 -->
<g id="edge3" class="edge">
<title>Node2&#45;&gt;Node3</title>
<path fill="none" stroke="#191970" d="M112.3385,-55.4179C95.4603,-46.6603 69.6935,-33.2907 50.3087,-23.2326"/>
<polygon fill="#191970" stroke="#191970" points="51.8603,-20.0946 41.372,-18.5956 48.6363,-26.308 51.8603,-20.0946"/>
</g>
<!-- Node4 -->
<g id="node5" class="node">
<title>Node4</title>
<polygon fill="none" stroke="#bfbfbf" points="65.5493,-.5 65.5493,-18.5 122.1353,-18.5 122.1353,-.5 65.5493,-.5"/>
<text text-anchor="middle" x="93.8423" y="-6.5" font-family="Helvetica,sans-Serif" font-size="10.00" fill="#000000">stdbool.h</text>
</g>
<!-- Node2&#45;&gt;Node4 -->
<g id="edge4" class="edge">
<title>Node2&#45;&gt;Node4</title>
<path fill="none" stroke="#191970" d="M123.8976,-55.4179C118.9249,-47.8207 111.6804,-36.7527 105.5499,-27.3866"/>
<polygon fill="#191970" stroke="#191970" points="108.3212,-25.2297 99.9161,-18.7795 102.4643,-29.0633 108.3212,-25.2297"/>
</g>
<!-- Node5 -->
<g id="node6" class="node">
<title>Node5</title>
<polygon fill="none" stroke="#bfbfbf" points="139.7759,-.5 139.7759,-18.5 191.9087,-18.5 191.9087,-.5 139.7759,-.5"/>
<text text-anchor="middle" x="165.8423" y="-6.5" font-family="Helvetica,sans-Serif" font-size="10.00" fill="#000000">stdarg.h</text>
</g>
<!-- Node2&#45;&gt;Node5 -->
<g id="edge5" class="edge">
<title>Node2&#45;&gt;Node5</title>
<path fill="none" stroke="#191970" d="M135.787,-55.4179C140.7597,-47.8207 148.0042,-36.7527 154.1347,-27.3866"/>
<polygon fill="#191970" stroke="#191970" points="157.2203,-29.0633 159.7685,-18.7795 151.3634,-25.2297 157.2203,-29.0633"/>
</g>
<!-- Node6 -->
<g id="node7" class="node">
<title>Node6</title>
<polygon fill="none" stroke="#bfbfbf" points="209.7217,-.5 209.7217,-18.5 257.9629,-18.5 257.9629,-.5 209.7217,-.5"/>
<text text-anchor="middle" x="233.8423" y="-6.5" font-family="Helvetica,sans-Serif" font-size="10.00" fill="#000000">stdint.h</text>
</g>
<!-- Node2&#45;&gt;Node6 -->
<g id="edge6" class="edge">
<title>Node2&#45;&gt;Node6</title>
<path fill="none" stroke="#191970" d="M147.0158,-55.4179C163.5002,-46.7001 188.6265,-33.4122 207.6155,-23.3699"/>
<polygon fill="#191970" stroke="#191970" points="209.4396,-26.3646 216.6433,-18.5956 206.1671,-20.1767 209.4396,-26.3646"/>
</g>
<!-- Node8&#45;&gt;Node2 -->
<g id="edge10" class="edge">
<title>Node8&#45;&gt;Node2</title>
<path fill="none" stroke="#191970" d="M182.4391,-110.4179C173.1023,-102.2667 159.189,-90.1201 148.0171,-80.3669"/>
<polygon fill="#191970" stroke="#191970" points="150.3065,-77.7194 140.4715,-73.7795 145.7029,-82.9927 150.3065,-77.7194"/>
</g>
<!-- Node8&#45;&gt;Node7 -->
<g id="edge9" class="edge">
<title>Node8&#45;&gt;Node7</title>
<path fill="none" stroke="#191970" d="M203.7408,-110.4179C213.5222,-102.2667 228.0981,-90.1201 239.802,-80.3669"/>
<polygon fill="#191970" stroke="#191970" points="242.2654,-82.8701 247.7069,-73.7795 237.784,-77.4926 242.2654,-82.8701"/>
</g>
<!-- Node9 -->
<g id="node10" class="node">
<title>Node9</title>
<polygon fill="none" stroke="#bfbfbf" points="168.4458,-55.5 168.4458,-73.5 217.2388,-73.5 217.2388,-55.5 168.4458,-55.5"/>
<text text-anchor="middle" x="192.8423" y="-61.5" font-family="Helvetica,sans-Serif" font-size="10.00" fill="#000000">string.h</text>
</g>
<!-- Node8&#45;&gt;Node9 -->
<g id="edge11" class="edge">
<title>Node8&#45;&gt;Node9</title>
<path fill="none" stroke="#191970" d="M192.8423,-110.4179C192.8423,-103.2164 192.8423,-92.8962 192.8423,-83.8632"/>
<polygon fill="#191970" stroke="#191970" points="196.3424,-83.7794 192.8423,-73.7795 189.3424,-83.7795 196.3424,-83.7794"/>
</g>
</g>
</svg>
