<?xml version="1.0" encoding="UTF-8" standalone="no"?>
<!DOCTYPE svg PUBLIC "-//W3C//DTD SVG 1.1//EN"
 "http://www.w3.org/Graphics/SVG/1.1/DTD/svg11.dtd">
<!-- Generated by graphviz version 2.40.1 (20161225.0304)
 -->
<!-- Title: init_slew Pages: 1 -->
<svg width="790pt" height="530pt"
 viewBox="0.00 0.00 790.37 529.93" xmlns="http://www.w3.org/2000/svg" xmlns:xlink="http://www.w3.org/1999/xlink">
<g id="graph0" class="graph" transform="scale(1 1) rotate(0) translate(4 525.9312)">
<title>init_slew</title>
<!-- Node18 -->
<g id="node1" class="node">
<title>Node18</title>
<polygon fill="#bfbfbf" stroke="#000000" points="0,-50.4312 0,-68.4312 54.3496,-68.4312 54.3496,-50.4312 0,-50.4312"/>
<text text-anchor="middle" x="27.1748" y="-56.4312" font-family="Helvetica,sans-Serif" font-size="10.00" fill="#000000">init_slew</text>
</g>
<!-- Node19 -->
<g id="node2" class="node">
<title>Node19</title>
<g id="a_node2"><a xlink:href="opcontrol_8c.html#ac71a94af413917f27d108e95c4d6f6a7" target="_top" xlink:title="Runs the user operator control code. ">
<polygon fill="none" stroke="#000000" points="696.8848,-428.4312 696.8848,-446.4312 782.3672,-446.4312 782.3672,-428.4312 696.8848,-428.4312"/>
<text text-anchor="middle" x="739.626" y="-434.4312" font-family="Helvetica,sans-Serif" font-size="10.00" fill="#000000">operatorControl</text>
</a>
</g>
</g>
<!-- Node18&#45;&gt;Node19 -->
<g id="edge1" class="edge">
<title>Node18&#45;&gt;Node19</title>
<path fill="none" stroke="#191970" d="M47.2253,-44.1601C59.1106,-35.9575 74.8417,-26.5117 90.3496,-21.4312 178.0308,7.2937 204.8115,-2.4312 297.0781,-2.4312 297.0781,-2.4312 297.0781,-2.4312 460.7993,-2.4312 567.3346,-2.4312 602.356,-45.4135 660.8848,-134.4312 727.3228,-235.4784 737.7544,-389.765 739.3468,-428.4144"/>
<polygon fill="#191970" stroke="#191970" points="45.0366,-41.4229 38.9537,-50.0975 49.1185,-47.1095 45.0366,-41.4229"/>
</g>
<!-- Node20 -->
<g id="node3" class="node">
<title>Node20</title>
<g id="a_node3"><a xlink:href="slew_8c.html#a9f8b8ae577ef938622024545711f0151" target="_top" xlink:title="Sets the motor speed ignoring the slew controller. ">
<polygon fill="none" stroke="#000000" points="90.3496,-303.4312 90.3496,-321.4312 202.502,-321.4312 202.502,-303.4312 90.3496,-303.4312"/>
<text text-anchor="middle" x="146.4258" y="-309.4312" font-family="Helvetica,sans-Serif" font-size="10.00" fill="#000000">set_motor_immediate</text>
</a>
</g>
</g>
<!-- Node18&#45;&gt;Node20 -->
<g id="edge2" class="edge">
<title>Node18&#45;&gt;Node20</title>
<path fill="none" stroke="#191970" d="M35.8013,-77.7331C59.4481,-127.9014 124.6959,-266.3297 142.1078,-303.2703"/>
<polygon fill="#191970" stroke="#191970" points="38.8486,-75.9889 31.419,-68.4357 32.5167,-78.9735 38.8486,-75.9889"/>
</g>
<!-- Node39 -->
<g id="node17" class="node">
<title>Node39</title>
<g id="a_node17"><a xlink:href="slew_8c.html#a7dff2b79dffe55fb936d977594d7c01d" target="_top" xlink:title="Sets motor speed wrapped inside the slew rate controller. ">
<polygon fill="none" stroke="#000000" points="103.4111,-69.4312 103.4111,-87.4312 189.4404,-87.4312 189.4404,-69.4312 103.4111,-69.4312"/>
<text text-anchor="middle" x="146.4258" y="-75.4312" font-family="Helvetica,sans-Serif" font-size="10.00" fill="#000000">set_motor_slew</text>
</a>
</g>
</g>
<!-- Node18&#45;&gt;Node39 -->
<g id="edge26" class="edge">
<title>Node18&#45;&gt;Node39</title>
<path fill="none" stroke="#191970" d="M64.4721,-65.3737C76.787,-67.3359 90.5872,-69.5346 103.301,-71.5603"/>
<polygon fill="#191970" stroke="#191970" points="64.9596,-61.9073 54.5334,-63.7902 63.8581,-68.8202 64.9596,-61.9073"/>
</g>
<!-- Node49 -->
<g id="node20" class="node">
<title>Node49</title>
<g id="a_node20"><a xlink:href="auto_8c.html#ae66ea80c777135c9f4d288a05f40ca86" target="_top" xlink:title="Starts the auntonomous program. ">
<polygon fill="none" stroke="#000000" points="113.4087,-31.4312 113.4087,-49.4312 179.4429,-49.4312 179.4429,-31.4312 113.4087,-31.4312"/>
<text text-anchor="middle" x="146.4258" y="-37.4312" font-family="Helvetica,sans-Serif" font-size="10.00" fill="#000000">start_auton</text>
</a>
</g>
</g>
<!-- Node18&#45;&gt;Node49 -->
<g id="edge32" class="edge">
<title>Node18&#45;&gt;Node49</title>
<path fill="none" stroke="#191970" d="M64.8526,-53.4281C80.3817,-50.9539 98.2191,-48.1119 113.2461,-45.7177"/>
<polygon fill="#191970" stroke="#191970" points="63.8581,-50.0423 54.5334,-55.0723 64.9596,-56.9552 63.8581,-50.0423"/>
</g>
<!-- Node21 -->
<g id="node4" class="node">
<title>Node21</title>
<g id="a_node4"><a xlink:href="claw_8c.html#a3a57f998b1884d39b0cc786689f7086f" target="_top" xlink:title="sets the claw motor speed ">
<polygon fill="none" stroke="#000000" points="254.0635,-465.4312 254.0635,-483.4312 340.0928,-483.4312 340.0928,-465.4312 254.0635,-465.4312"/>
<text text-anchor="middle" x="297.0781" y="-471.4312" font-family="Helvetica,sans-Serif" font-size="10.00" fill="#000000">set_claw_motor</text>
</a>
</g>
</g>
<!-- Node20&#45;&gt;Node21 -->
<g id="edge3" class="edge">
<title>Node20&#45;&gt;Node21</title>
<path fill="none" stroke="#191970" d="M153.6344,-330.9081C166.3074,-361.0524 195.3906,-420.8147 238.502,-454.4312 244.4339,-459.0567 251.5014,-462.648 258.64,-465.4248"/>
<polygon fill="#191970" stroke="#191970" points="156.8477,-329.5185 149.84,-321.5722 150.3629,-332.1542 156.8477,-329.5185"/>
</g>
<!-- Node25 -->
<g id="node8" class="node">
<title>Node25</title>
<g id="a_node8"><a xlink:href="claw_8c.html#a3a6168bf4e2042115dd32542f1f6a2f5" target="_top" xlink:title="Drives the motors to grab a cone. ">
<polygon fill="none" stroke="#000000" points="252.6646,-333.4312 252.6646,-351.4312 341.4917,-351.4312 341.4917,-333.4312 252.6646,-333.4312"/>
<text text-anchor="middle" x="297.0781" y="-339.4312" font-family="Helvetica,sans-Serif" font-size="10.00" fill="#000000">claw_grab_cone</text>
</a>
</g>
</g>
<!-- Node20&#45;&gt;Node25 -->
<g id="edge10" class="edge">
<title>Node20&#45;&gt;Node25</title>
<path fill="none" stroke="#191970" d="M201.7936,-323.4569C218.4663,-326.777 236.5448,-330.377 252.4285,-333.54"/>
<polygon fill="#191970" stroke="#191970" points="202.1175,-319.9527 191.6265,-321.4322 200.7503,-326.8179 202.1175,-319.9527"/>
</g>
<!-- Node29 -->
<g id="node11" class="node">
<title>Node29</title>
<g id="a_node11"><a xlink:href="claw_8c.html#aecaa4eedc34d6b164ee17ed104914227" target="_top" xlink:title="Drives the motors to release a cone. ">
<polygon fill="none" stroke="#000000" points="246.2729,-427.4312 246.2729,-445.4312 347.8833,-445.4312 347.8833,-427.4312 246.2729,-427.4312"/>
<text text-anchor="middle" x="297.0781" y="-433.4312" font-family="Helvetica,sans-Serif" font-size="10.00" fill="#000000">claw_release_cone</text>
</a>
</g>
</g>
<!-- Node20&#45;&gt;Node29 -->
<g id="edge13" class="edge">
<title>Node20&#45;&gt;Node29</title>
<path fill="none" stroke="#191970" d="M157.3972,-329.9961C172.7814,-353.2375 202.906,-393.9943 238.502,-417.4312 244.6632,-421.4879 251.7586,-424.7381 258.8369,-427.3218"/>
<polygon fill="#191970" stroke="#191970" points="160.2643,-327.984 151.9021,-321.4783 154.3822,-331.7788 160.2643,-327.984"/>
</g>
<!-- Node30 -->
<g id="node12" class="node">
<title>Node30</title>
<g id="a_node12"><a xlink:href="lifter_8c.html#a78640d547d9361951a92d0bc00939536" target="_top" xlink:title="Sets the secondary lifter motors to the given value. ">
<polygon fill="none" stroke="#ff0000" points="244.332,-269.4312 244.332,-297.4312 349.8242,-297.4312 349.8242,-269.4312 244.332,-269.4312"/>
<text text-anchor="start" x="252.332" y="-285.4312" font-family="Helvetica,sans-Serif" font-size="10.00" fill="#000000">set_secondary_lifter</text>
<text text-anchor="middle" x="297.0781" y="-275.4312" font-family="Helvetica,sans-Serif" font-size="10.00" fill="#000000">_motors</text>
</a>
</g>
</g>
<!-- Node20&#45;&gt;Node30 -->
<g id="edge14" class="edge">
<title>Node20&#45;&gt;Node30</title>
<path fill="none" stroke="#191970" d="M203.3331,-301.4768C216.7478,-298.8945 230.9928,-296.1524 244.2202,-293.6062"/>
<polygon fill="#191970" stroke="#191970" points="202.4254,-298.0872 193.2673,-303.4144 203.7486,-304.961 202.4254,-298.0872"/>
</g>
<!-- Node35 -->
<g id="node16" class="node">
<title>Node35</title>
<g id="a_node16"><a xlink:href="mobile__goal__intake_8c.html#ab31e12bb0fa46c77906a048666b699d5" target="_top" xlink:title="sets the intake motor ">
<polygon fill="none" stroke="#ff0000" points="414.4448,-107.4312 414.4448,-125.4312 507.1538,-125.4312 507.1538,-107.4312 414.4448,-107.4312"/>
<text text-anchor="middle" x="460.7993" y="-113.4312" font-family="Helvetica,sans-Serif" font-size="10.00" fill="#000000">set_intake_motor</text>
</a>
</g>
</g>
<!-- Node20&#45;&gt;Node35 -->
<g id="edge24" class="edge">
<title>Node20&#45;&gt;Node35</title>
<path fill="none" stroke="#191970" d="M163.9678,-296.0238C202.257,-261.0893 297.4578,-178.9232 391.6543,-134.4312 399.2813,-130.8288 407.7351,-127.8701 416.0384,-125.4674"/>
<polygon fill="#191970" stroke="#191970" points="161.2662,-293.7537 156.282,-303.103 166.0086,-298.9025 161.2662,-293.7537"/>
</g>
<!-- Node22 -->
<g id="node5" class="node">
<title>Node22</title>
<g id="a_node5"><a xlink:href="lifter_8c.html#a8a64fa88b389b39c236c5c57a7fb5c67" target="_top" xlink:title="Autostacks a cone once picked up. ">
<polygon fill="none" stroke="#000000" points="565.9443,-428.4312 565.9443,-446.4312 660.8848,-446.4312 660.8848,-428.4312 565.9443,-428.4312"/>
<text text-anchor="middle" x="613.4146" y="-434.4312" font-family="Helvetica,sans-Serif" font-size="10.00" fill="#000000">autostack_routine</text>
</a>
</g>
</g>
<!-- Node21&#45;&gt;Node22 -->
<g id="edge4" class="edge">
<title>Node21&#45;&gt;Node22</title>
<path fill="none" stroke="#191970" d="M350.2078,-480.6323C397.8336,-484.7317 469.3296,-487.2635 529.9443,-474.4312 555.0666,-469.1128 581.8193,-455.7088 598.0786,-446.5823"/>
<polygon fill="#191970" stroke="#191970" points="350.4007,-477.1355 340.1235,-479.7101 349.7631,-484.1064 350.4007,-477.1355"/>
</g>
<!-- Node23 -->
<g id="node6" class="node">
<title>Node23</title>
<g id="a_node6"><a xlink:href="lifter_8c.html#aa4d172cbde795bc13fe6baabd074717e" target="_top" xlink:title="quit_auto_static">
<polygon fill="none" stroke="#000000" points="417.7749,-447.4312 417.7749,-465.4312 503.8237,-465.4312 503.8237,-447.4312 417.7749,-447.4312"/>
<text text-anchor="middle" x="460.7993" y="-453.4312" font-family="Helvetica,sans-Serif" font-size="10.00" fill="#000000">quit_auto_static</text>
</a>
</g>
</g>
<!-- Node21&#45;&gt;Node23 -->
<g id="edge6" class="edge">
<title>Node21&#45;&gt;Node23</title>
<path fill="none" stroke="#191970" d="M350.179,-468.5932C371.9599,-466.1985 396.8529,-463.4617 417.5024,-461.1914"/>
<polygon fill="#191970" stroke="#191970" points="349.6515,-465.13 340.0939,-469.702 350.4166,-472.0881 349.6515,-465.13"/>
</g>
<!-- Node24 -->
<g id="node7" class="node">
<title>Node24</title>
<g id="a_node7"><a xlink:href="claw_8c.html#a0122b78972344264b8a276a559cfce4a" target="_top" xlink:title="Updates the claw motor values. ">
<polygon fill="none" stroke="#000000" points="577.3384,-503.4312 577.3384,-521.4312 649.4907,-521.4312 649.4907,-503.4312 577.3384,-503.4312"/>
<text text-anchor="middle" x="613.4146" y="-509.4312" font-family="Helvetica,sans-Serif" font-size="10.00" fill="#000000">update_claw</text>
</a>
</g>
</g>
<!-- Node21&#45;&gt;Node24 -->
<g id="edge8" class="edge">
<title>Node21&#45;&gt;Node24</title>
<path fill="none" stroke="#191970" d="M347.1027,-485.5758C361.4331,-488.4702 377.1124,-491.3543 391.6543,-493.4312 456.6843,-502.719 533.1379,-508.0501 577.1663,-510.5837"/>
<polygon fill="#191970" stroke="#191970" points="347.4431,-482.0724 336.9419,-483.4779 346.0276,-488.9278 347.4431,-482.0724"/>
</g>
<!-- Node22&#45;&gt;Node19 -->
<g id="edge5" class="edge">
<title>Node22&#45;&gt;Node19</title>
<path fill="none" stroke="#191970" d="M671.1648,-437.4312C679.7993,-437.4312 688.5685,-437.4312 696.8195,-437.4312"/>
<polygon fill="#191970" stroke="#191970" points="671.1297,-433.9313 661.1297,-437.4312 671.1296,-440.9313 671.1297,-433.9313"/>
</g>
<!-- Node23&#45;&gt;Node22 -->
<g id="edge7" class="edge">
<title>Node23&#45;&gt;Node22</title>
<path fill="none" stroke="#191970" d="M514.3037,-449.7702C531.0389,-447.6867 549.3855,-445.4026 565.6951,-443.3721"/>
<polygon fill="#191970" stroke="#191970" points="513.6155,-446.3287 504.1245,-451.0374 514.4803,-453.2751 513.6155,-446.3287"/>
</g>
<!-- Node24&#45;&gt;Node19 -->
<g id="edge9" class="edge">
<title>Node24&#45;&gt;Node19</title>
<path fill="none" stroke="#191970" d="M637.6347,-498.0386C663.2506,-482.8166 702.8751,-459.2701 724.4176,-446.4687"/>
<polygon fill="#191970" stroke="#191970" points="635.6993,-495.1174 628.8905,-503.2348 639.2753,-501.1351 635.6993,-495.1174"/>
</g>
<!-- Node26 -->
<g id="node9" class="node">
<title>Node26</title>
<g id="a_node9"><a xlink:href="auto_8c.html#a3c7ca506bbc071fa740de13805b7f376" target="_top" xlink:title="Runs the user autonomous code. ">
<polygon fill="none" stroke="#000000" points="577.895,-144.4312 577.895,-162.4312 648.9341,-162.4312 648.9341,-144.4312 577.895,-144.4312"/>
<text text-anchor="middle" x="613.4146" y="-150.4312" font-family="Helvetica,sans-Serif" font-size="10.00" fill="#000000">autonomous</text>
</a>
</g>
</g>
<!-- Node25&#45;&gt;Node26 -->
<g id="edge11" class="edge">
<title>Node25&#45;&gt;Node26</title>
<path fill="none" stroke="#191970" d="M326.2869,-355.4046C373.5224,-374.2139 467.6611,-402.4725 529.9443,-360.4312 599.9599,-313.1706 611.2594,-196.2929 613.0712,-162.6362"/>
<polygon fill="#191970" stroke="#191970" points="327.5273,-352.1303 316.9476,-351.563 324.8644,-358.6041 327.5273,-352.1303"/>
</g>
<!-- Node27 -->
<g id="node10" class="node">
<title>Node27</title>
<g id="a_node10"><a xlink:href="lifter_8c.html#ac59fe6ffc80bab7f117ec0a8e482277b" target="_top" xlink:title="secondary_lifter_update">
<polygon fill="none" stroke="#ff0000" points="399.4302,-333.4312 399.4302,-351.4312 522.1685,-351.4312 522.1685,-333.4312 399.4302,-333.4312"/>
<text text-anchor="middle" x="460.7993" y="-339.4312" font-family="Helvetica,sans-Serif" font-size="10.00" fill="#000000">secondary_lifter_update</text>
</a>
</g>
</g>
<!-- Node25&#45;&gt;Node27 -->
<g id="edge12" class="edge">
<title>Node25&#45;&gt;Node27</title>
<path fill="none" stroke="#191970" d="M352.0548,-342.4312C367.2066,-342.4312 383.7407,-342.4312 399.2387,-342.4312"/>
<polygon fill="#191970" stroke="#191970" points="351.8157,-338.9313 341.8157,-342.4312 351.8156,-345.9313 351.8157,-338.9313"/>
</g>
<!-- Node30&#45;&gt;Node22 -->
<g id="edge18" class="edge">
<title>Node30&#45;&gt;Node22</title>
<path fill="none" stroke="#191970" d="M360.0442,-288.9072C419.0526,-294.9832 502.2102,-306.257 529.9443,-323.4312 572.2799,-349.6473 599.9599,-405.9695 609.6066,-428.1667"/>
<polygon fill="#191970" stroke="#191970" points="360.3606,-285.4215 350.061,-287.9048 359.6612,-292.3865 360.3606,-285.4215"/>
</g>
<!-- Node30&#45;&gt;Node23 -->
<g id="edge22" class="edge">
<title>Node30&#45;&gt;Node23</title>
<path fill="none" stroke="#191970" d="M329.7128,-303.1593C338.5439,-309.1646 347.8189,-316.1247 355.6543,-323.4312 399.5694,-364.3824 440.2629,-424.5239 454.9827,-447.2668"/>
<polygon fill="#191970" stroke="#191970" points="331.3777,-300.0652 321.0994,-297.4948 327.5314,-305.9138 331.3777,-300.0652"/>
</g>
<!-- Node30&#45;&gt;Node26 -->
<g id="edge17" class="edge">
<title>Node30&#45;&gt;Node26</title>
<path fill="none" stroke="#191970" d="M319.18,-262.1291C337.3054,-245.7656 364.3419,-223.7755 391.6543,-210.4312 408.3964,-202.2514 519.5754,-175.4766 577.8748,-161.7335"/>
<polygon fill="#191970" stroke="#191970" points="316.49,-259.8486 311.5102,-269.2002 321.2348,-264.9951 316.49,-259.8486"/>
</g>
<!-- Node30&#45;&gt;Node27 -->
<g id="edge23" class="edge">
<title>Node30&#45;&gt;Node27</title>
<path fill="none" stroke="#191970" d="M344.3877,-301.1539C359.4701,-306.7463 376.2425,-312.9055 391.6543,-318.4312 405.649,-323.449 421.2945,-328.8932 434.1587,-333.3261"/>
<polygon fill="#191970" stroke="#191970" points="345.3446,-297.7758 334.7517,-297.5731 342.9063,-304.3374 345.3446,-297.7758"/>
</g>
<!-- Node31 -->
<g id="node13" class="node">
<title>Node31</title>
<g id="a_node13"><a xlink:href="auto_8c.html#a55085901854f29969753bfd62c70049c" target="_top" xlink:title="utility function which raises the second lifter to its maximum height ">
<polygon fill="none" stroke="#000000" points="391.6543,-144.4312 391.6543,-162.4312 529.9443,-162.4312 529.9443,-144.4312 391.6543,-144.4312"/>
<text text-anchor="middle" x="460.7993" y="-150.4312" font-family="Helvetica,sans-Serif" font-size="10.00" fill="#000000">auton_raise_sec_lifter_max</text>
</a>
</g>
</g>
<!-- Node30&#45;&gt;Node31 -->
<g id="edge15" class="edge">
<title>Node30&#45;&gt;Node31</title>
<path fill="none" stroke="#191970" d="M311.8917,-260.9151C328.6389,-237.0836 357.9955,-199.8795 391.6543,-177.4312 401.2743,-171.0153 412.7922,-166.1281 423.643,-162.4935"/>
<polygon fill="#191970" stroke="#191970" points="308.8848,-259.1109 306.1079,-269.3354 314.6548,-263.0743 308.8848,-259.1109"/>
</g>
<!-- Node32 -->
<g id="node14" class="node">
<title>Node32</title>
<g id="a_node14"><a xlink:href="auto_8c.html#a64bd65456b81f16eb4ff67237159f984" target="_top" xlink:title="utility function which deploys the secondary lifter at the start of autonomous. ">
<polygon fill="none" stroke="#000000" points="399.9893,-220.4312 399.9893,-238.4312 521.6094,-238.4312 521.6094,-220.4312 399.9893,-220.4312"/>
<text text-anchor="middle" x="460.7993" y="-226.4312" font-family="Helvetica,sans-Serif" font-size="10.00" fill="#000000">deploy_seoncdary_lifter</text>
</a>
</g>
</g>
<!-- Node30&#45;&gt;Node32 -->
<g id="edge19" class="edge">
<title>Node30&#45;&gt;Node32</title>
<path fill="none" stroke="#191970" d="M340.8949,-265.6121C356.753,-259.4669 374.8846,-252.7881 391.6543,-247.4312 401.6981,-244.2229 412.695,-241.1607 422.9049,-238.5013"/>
<polygon fill="#191970" stroke="#191970" points="339.3814,-262.4459 331.3473,-269.3528 341.935,-268.9636 339.3814,-262.4459"/>
</g>
<!-- Node33 -->
<g id="node15" class="node">
<title>Node33</title>
<g id="a_node15"><a xlink:href="lifter_8c.html#af76abbd394bf206ab56fa237d776f2b3" target="_top" xlink:title="Lowers the secondary lifter. ">
<polygon fill="none" stroke="#000000" points="402.7749,-257.4312 402.7749,-275.4312 518.8237,-275.4312 518.8237,-257.4312 402.7749,-257.4312"/>
<text text-anchor="middle" x="460.7993" y="-263.4312" font-family="Helvetica,sans-Serif" font-size="10.00" fill="#000000">lower_secondary_lifter</text>
</a>
</g>
</g>
<!-- Node30&#45;&gt;Node33 -->
<g id="edge21" class="edge">
<title>Node30&#45;&gt;Node33</title>
<path fill="none" stroke="#191970" d="M360.2111,-276.8758C374.1326,-275.4303 388.8178,-273.9055 402.5362,-272.481"/>
<polygon fill="#191970" stroke="#191970" points="359.8187,-273.3977 350.2337,-277.9118 360.5417,-280.3602 359.8187,-273.3977"/>
</g>
<!-- Node31&#45;&gt;Node26 -->
<g id="edge16" class="edge">
<title>Node31&#45;&gt;Node26</title>
<path fill="none" stroke="#191970" d="M540.0846,-153.4312C553.3253,-153.4312 566.4463,-153.4312 577.8497,-153.4312"/>
<polygon fill="#191970" stroke="#191970" points="539.9624,-149.9313 529.9624,-153.4312 539.9624,-156.9313 539.9624,-149.9313"/>
</g>
<!-- Node32&#45;&gt;Node26 -->
<g id="edge20" class="edge">
<title>Node32&#45;&gt;Node26</title>
<path fill="none" stroke="#191970" d="M501.383,-217.0401C510.9174,-213.667 520.9238,-209.74 529.9443,-205.4312 556.4428,-192.774 585.0138,-173.6513 600.9104,-162.4648"/>
<polygon fill="#191970" stroke="#191970" points="500.0153,-213.8084 491.6791,-220.3474 502.2735,-220.4342 500.0153,-213.8084"/>
</g>
<!-- Node35&#45;&gt;Node26 -->
<g id="edge25" class="edge">
<title>Node35&#45;&gt;Node26</title>
<path fill="none" stroke="#191970" d="M508.1482,-127.9105C530.6232,-133.3593 557.0337,-139.7623 577.7783,-144.7916"/>
<polygon fill="#191970" stroke="#191970" points="508.6763,-124.4372 498.1332,-125.4825 507.027,-131.2401 508.6763,-124.4372"/>
</g>
<!-- Node40 -->
<g id="node18" class="node">
<title>Node40</title>
<g id="a_node18"><a xlink:href="drive_8c.html#a8df41fd50094c065eedc81fc5e6595d1" target="_top" xlink:title="sets the speed of one side of the robot. ">
<polygon fill="none" stroke="#ff0000" points="254.0513,-69.4312 254.0513,-87.4312 340.105,-87.4312 340.105,-69.4312 254.0513,-69.4312"/>
<text text-anchor="middle" x="297.0781" y="-75.4312" font-family="Helvetica,sans-Serif" font-size="10.00" fill="#000000">set_side_speed</text>
</a>
</g>
</g>
<!-- Node39&#45;&gt;Node40 -->
<g id="edge27" class="edge">
<title>Node39&#45;&gt;Node40</title>
<path fill="none" stroke="#191970" d="M199.7975,-78.4312C217.5285,-78.4312 237.0377,-78.4312 253.9009,-78.4312"/>
<polygon fill="#191970" stroke="#191970" points="199.5967,-74.9313 189.5967,-78.4312 199.5967,-81.9313 199.5967,-74.9313"/>
</g>
<!-- Node44 -->
<g id="node19" class="node">
<title>Node44</title>
<g id="a_node19"><a xlink:href="lifter_8c.html#ad00a195af30f246924d6e1a30095b882" target="_top" xlink:title="Sets the main lifter motors to the given value. ">
<polygon fill="none" stroke="#ff0000" points="238.502,-390.4312 238.502,-408.4312 355.6543,-408.4312 355.6543,-390.4312 238.502,-390.4312"/>
<text text-anchor="middle" x="297.0781" y="-396.4312" font-family="Helvetica,sans-Serif" font-size="10.00" fill="#000000">set_main_lifter_motors</text>
</a>
</g>
</g>
<!-- Node39&#45;&gt;Node44 -->
<g id="edge29" class="edge">
<title>Node39&#45;&gt;Node44</title>
<path fill="none" stroke="#191970" d="M150.9212,-97.5246C164.412,-153.6987 205.6465,-317.1668 238.502,-360.4312 248.4769,-373.5664 264.2209,-383.6936 276.8755,-390.3326"/>
<polygon fill="#191970" stroke="#191970" points="154.2597,-96.4348 148.5398,-87.5167 147.4498,-98.0553 154.2597,-96.4348"/>
</g>
<!-- Node40&#45;&gt;Node26 -->
<g id="edge28" class="edge">
<title>Node40&#45;&gt;Node26</title>
<path fill="none" stroke="#191970" d="M350.7014,-75.2567C398.946,-74.145 471.0815,-76.8627 529.9443,-97.4312 559.5971,-107.7929 588.8171,-131.269 603.553,-144.2947"/>
<polygon fill="#191970" stroke="#191970" points="350.3747,-71.7647 340.4821,-75.5577 350.5808,-78.7617 350.3747,-71.7647"/>
</g>
<!-- Node44&#45;&gt;Node22 -->
<g id="edge30" class="edge">
<title>Node44&#45;&gt;Node22</title>
<path fill="none" stroke="#191970" d="M366.0567,-407.7173C426.4998,-414.9781 512.7583,-425.3399 565.811,-431.7129"/>
<polygon fill="#191970" stroke="#191970" points="366.1833,-404.2074 355.8372,-406.4897 365.3484,-411.1575 366.1833,-404.2074"/>
</g>
<!-- Node44&#45;&gt;Node23 -->
<g id="edge31" class="edge">
<title>Node44&#45;&gt;Node23</title>
<path fill="none" stroke="#191970" d="M338.2947,-411.5466C344.152,-413.4278 350.0772,-415.4178 355.6543,-417.4312 371.9577,-423.3172 375.4593,-426.2532 391.6543,-432.4312 405.3075,-437.6397 420.6475,-443.0118 433.4035,-447.3495"/>
<polygon fill="#191970" stroke="#191970" points="339.164,-408.1512 328.5749,-408.4984 337.0693,-414.8305 339.164,-408.1512"/>
</g>
<!-- Node49&#45;&gt;Node26 -->
<g id="edge33" class="edge">
<title>Node49&#45;&gt;Node26</title>
<path fill="none" stroke="#191970" d="M189.8622,-34.914C263.5241,-27.4958 416.0342,-20.6285 529.9443,-72.4312 565.6042,-88.6483 595.1524,-126.803 607.3731,-144.333"/>
<polygon fill="#191970" stroke="#191970" points="189.1547,-31.4694 179.5801,-36.0056 189.8938,-38.4302 189.1547,-31.4694"/>
</g>
</g>
</svg>
