<?xml version="1.0" encoding="UTF-8" standalone="no"?>
<!DOCTYPE svg PUBLIC "-//W3C//DTD SVG 1.1//EN"
 "http://www.w3.org/Graphics/SVG/1.1/DTD/svg11.dtd">
<!-- Generated by graphviz version 2.40.1 (20161225.0304)
 -->
<!-- Title: set_motor_slew Pages: 1 -->
<svg width="194pt" height="64pt"
 viewBox="0.00 0.00 194.38 64.00" xmlns="http://www.w3.org/2000/svg" xmlns:xlink="http://www.w3.org/1999/xlink">
<g id="graph0" class="graph" transform="scale(1 1) rotate(0) translate(4 60)">
<title>set_motor_slew</title>
<!-- Node18 -->
<g id="node1" class="node">
<title>Node18</title>
<polygon fill="#bfbfbf" stroke="#000000" points="0,-18.5 0,-36.5 86.0293,-36.5 86.0293,-18.5 0,-18.5"/>
<text text-anchor="middle" x="43.0146" y="-24.5" font-family="Helvetica,sans-Serif" font-size="10.00" fill="#000000">set_motor_slew</text>
</g>
<!-- Node19 -->
<g id="node2" class="node">
<title>Node19</title>
<g id="a_node2"><a xlink:href="_a_p_i_8h.html#afe171a08d22de18fc2ab604b2364959f" target="_top" xlink:title="mutexGive">
<polygon fill="none" stroke="#000000" points="122.3101,-37.5 122.3101,-55.5 186.103,-55.5 186.103,-37.5 122.3101,-37.5"/>
<text text-anchor="middle" x="154.2065" y="-43.5" font-family="Helvetica,sans-Serif" font-size="10.00" fill="#000000">mutexGive</text>
</a>
</g>
</g>
<!-- Node18&#45;&gt;Node19 -->
<g id="edge1" class="edge">
<title>Node18&#45;&gt;Node19</title>
<path fill="none" stroke="#191970" d="M86.3227,-34.9003C94.8197,-36.3522 103.7197,-37.873 112.174,-39.3177"/>
<polygon fill="#191970" stroke="#191970" points="111.7617,-42.7979 122.2084,-41.0323 112.9408,-35.8979 111.7617,-42.7979"/>
</g>
<!-- Node20 -->
<g id="node3" class="node">
<title>Node20</title>
<g id="a_node3"><a xlink:href="_a_p_i_8h.html#a8b51124628d2a7741738d48551d1e8ee" target="_top" xlink:title="mutexTake">
<polygon fill="none" stroke="#000000" points="122.0293,-.5 122.0293,-18.5 186.3838,-18.5 186.3838,-.5 122.0293,-.5"/>
<text text-anchor="middle" x="154.2065" y="-6.5" font-family="Helvetica,sans-Serif" font-size="10.00" fill="#000000">mutexTake</text>
</a>
</g>
</g>
<!-- Node18&#45;&gt;Node20 -->
<g id="edge2" class="edge">
<title>Node18&#45;&gt;Node20</title>
<path fill="none" stroke="#191970" d="M86.3227,-20.4892C94.733,-19.1277 103.5381,-17.7023 111.9151,-16.3462"/>
<polygon fill="#191970" stroke="#191970" points="112.5534,-19.7886 121.8655,-14.7354 111.4347,-12.8785 112.5534,-19.7886"/>
</g>
</g>
</svg>
