<?xml version="1.0" encoding="UTF-8" standalone="no"?>
<!DOCTYPE svg PUBLIC "-//W3C//DTD SVG 1.1//EN"
 "http://www.w3.org/Graphics/SVG/1.1/DTD/svg11.dtd">
<!-- Generated by graphviz version 2.40.1 (20161225.0304)
 -->
<!-- Title: init_slew Pages: 1 -->
<!--zoomable 359 -->
<svg id="main" version="1.1" xmlns="http://www.w3.org/2000/svg" xmlns:xlink="http://www.w3.org/1999/xlink" xml:space="preserve" onload="init(evt)">
<style type="text/css"><![CDATA[
.edge:hover path { stroke: red; }
.edge:hover polygon { stroke: red; fill: red; }
]]></style>
<script type="text/javascript"><![CDATA[
var edges = document.getElementsByTagName('g');
if (edges && edges.length) {
  for (var i=0;i<edges.length;i++) {
    if (edges[i].id.substr(0,4)=='edge') {
      edges[i].setAttribute('class','edge');
    }
  }
}
]]></script>
        <defs>
                <circle id="rim" cx="0" cy="0" r="7"/>
                <circle id="rim2" cx="0" cy="0" r="3.5"/>
                <g id="zoomPlus">
                        <use xlink:href="#rim" fill="#404040">
                                <set attributeName="fill" to="#808080" begin="zoomplus.mouseover" end="zoomplus.mouseout"/>
                        </use>
                        <path d="M-4,0h8M0,-4v8" fill="none" stroke="white" stroke-width="1.5" pointer-events="none"/>
                </g>
                <g id="zoomMin">
                        <use xlink:href="#rim" fill="#404040">
                                <set attributeName="fill" to="#808080" begin="zoomminus.mouseover" end="zoomminus.mouseout"/>
                        </use>
                        <path d="M-4,0h8" fill="none" stroke="white" stroke-width="1.5" pointer-events="none"/>
                </g>
                <g id="dirArrow">
                        <path fill="none" stroke="white" stroke-width="1.5" d="M0,-3.0v7 M-2.5,-0.5L0,-3.0L2.5,-0.5"/>
                </g>
               <g id="resetDef">
                       <use xlink:href="#rim2" fill="#404040">
                               <set attributeName="fill" to="#808080" begin="reset.mouseover" end="reset.mouseout"/>
                       </use>
               </g>
        </defs>

<script type="text/javascript">
var viewWidth = 715;
var viewHeight = 359;
var sectionId = 'dynsection-4';
</script>
<script xlink:href="svgpan.js"/>
<svg id="graph" class="graph">
<g id="viewport">
<title>init_slew</title>
<!-- Node18 -->
<g id="node1" class="node">
<title>Node18</title>
<polygon fill="#bfbfbf" stroke="#000000" points="0,-75.5 0,-93.5 54.3496,-93.5 54.3496,-75.5 0,-75.5"/>
<text text-anchor="middle" x="27.1748" y="-81.5" font-family="Helvetica,sans-Serif" font-size="10.00" fill="#000000">init_slew</text>
</g>
<!-- Node19 -->
<g id="node2" class="node">
<title>Node19</title>
<g id="a_node2"><a xlink:href="auto_8c.html#a3c7ca506bbc071fa740de13805b7f376" target="_top" xlink:title="autonomous">
<polygon fill="none" stroke="#000000" points="367.7627,-38.5 367.7627,-56.5 438.8018,-56.5 438.8018,-38.5 367.7627,-38.5"/>
<text text-anchor="middle" x="403.2822" y="-44.5" font-family="Helvetica,sans-Serif" font-size="10.00" fill="#000000">autonomous</text>
</a>
</g>
</g>
<!-- Node18&#45;&gt;Node19 -->
<g id="edge1" class="edge">
<title>Node18&#45;&gt;Node19</title>
<path fill="none" stroke="#191970" d="M64.5982,-80.8184C137.263,-73.67 296.5519,-57.9997 367.714,-50.9991"/>
<polygon fill="#191970" stroke="#191970" points="64.1357,-77.3469 54.5265,-81.8092 64.8211,-84.3133 64.1357,-77.3469"/>
</g>
<!-- Node20 -->
<g id="node3" class="node">
<title>Node20</title>
<g id="a_node3"><a xlink:href="opcontrol_8c.html#ac71a94af413917f27d108e95c4d6f6a7" target="_top" xlink:title="operatorControl">
<polygon fill="none" stroke="#000000" points="621.2988,-189.5 621.2988,-207.5 706.7813,-207.5 706.7813,-189.5 621.2988,-189.5"/>
<text text-anchor="middle" x="664.04" y="-195.5" font-family="Helvetica,sans-Serif" font-size="10.00" fill="#000000">operatorControl</text>
</a>
</g>
</g>
<!-- Node18&#45;&gt;Node20 -->
<g id="edge2" class="edge">
<title>Node18&#45;&gt;Node20</title>
<path fill="none" stroke="#191970" d="M34.3819,-103.108C59.1402,-163.5529 146.8678,-350.5 284.8564,-350.5 284.8564,-350.5 284.8564,-350.5 403.2822,-350.5 490.9472,-350.5 512.0479,-322.6606 585.2988,-274.5 615.1445,-254.8772 643.62,-223.0881 656.6418,-207.5846"/>
<polygon fill="#191970" stroke="#191970" points="37.5662,-101.6443 30.6061,-93.6563 31.0657,-104.2412 37.5662,-101.6443"/>
</g>
<!-- Node21 -->
<g id="node4" class="node">
<title>Node21</title>
<g id="a_node4"><a xlink:href="slew_8c.html#a9f8b8ae577ef938622024545711f0151" target="_top" xlink:title="set_motor_immediate">
<polygon fill="none" stroke="#000000" points="90.3496,-131.5 90.3496,-149.5 202.502,-149.5 202.502,-131.5 90.3496,-131.5"/>
<text text-anchor="middle" x="146.4258" y="-137.5" font-family="Helvetica,sans-Serif" font-size="10.00" fill="#000000">set_motor_immediate</text>
</a>
</g>
</g>
<!-- Node18&#45;&gt;Node21 -->
<g id="edge3" class="edge">
<title>Node18&#45;&gt;Node21</title>
<path fill="none" stroke="#191970" d="M55.8083,-97.9462C77.8417,-108.2931 107.6951,-122.3121 127.009,-131.3819"/>
<polygon fill="#191970" stroke="#191970" points="57.1393,-94.7046 46.5999,-93.622 54.1638,-101.0408 57.1393,-94.7046"/>
</g>
<!-- Node34 -->
<g id="node17" class="node">
<title>Node34</title>
<g id="a_node17"><a xlink:href="slew_8c.html#a7dff2b79dffe55fb936d977594d7c01d" target="_top" xlink:title="Sets motor speed wrapped inside the slew rate controller. ">
<polygon fill="none" stroke="#000000" points="103.4111,-.5 103.4111,-18.5 189.4404,-18.5 189.4404,-.5 103.4111,-.5"/>
<text text-anchor="middle" x="146.4258" y="-6.5" font-family="Helvetica,sans-Serif" font-size="10.00" fill="#000000">set_motor_slew</text>
</a>
</g>
</g>
<!-- Node18&#45;&gt;Node34 -->
<g id="edge26" class="edge">
<title>Node18&#45;&gt;Node34</title>
<path fill="none" stroke="#191970" d="M44.412,-68.4051C56.5965,-57.5926 73.6681,-43.5399 90.3496,-33.5 99.9671,-27.7117 111.2342,-22.6021 121.136,-18.6015"/>
<polygon fill="#191970" stroke="#191970" points="41.8814,-65.975 36.8222,-75.2839 46.5823,-71.1617 41.8814,-65.975"/>
</g>
<!-- Node22 -->
<g id="node5" class="node">
<title>Node22</title>
<g id="a_node5"><a xlink:href="claw_8c.html#a3a57f998b1884d39b0cc786689f7086f" target="_top" xlink:title="sets the claw motor speed ">
<polygon fill="none" stroke="#000000" points="241.8418,-188.5 241.8418,-206.5 327.8711,-206.5 327.8711,-188.5 241.8418,-188.5"/>
<text text-anchor="middle" x="284.8564" y="-194.5" font-family="Helvetica,sans-Serif" font-size="10.00" fill="#000000">set_claw_motor</text>
</a>
</g>
</g>
<!-- Node21&#45;&gt;Node22 -->
<g id="edge4" class="edge">
<title>Node21&#45;&gt;Node22</title>
<path fill="none" stroke="#191970" d="M177.7153,-153.4351C195.5281,-160.7935 218.2603,-170.1748 238.502,-178.5 246.3848,-181.7421 255.0253,-185.2864 262.6883,-188.4263"/>
<polygon fill="#191970" stroke="#191970" points="178.9512,-150.1588 168.3724,-149.5748 176.278,-156.6283 178.9512,-150.1588"/>
</g>
<!-- Node24 -->
<g id="node7" class="node">
<title>Node24</title>
<g id="a_node7"><a xlink:href="claw_8c.html#a03023ca28f671b9fa7bac07782ccd8c1" target="_top" xlink:title="Drives the motors to open the claw. ">
<polygon fill="none" stroke="#000000" points="252.9502,-76.5 252.9502,-94.5 316.7627,-94.5 316.7627,-76.5 252.9502,-76.5"/>
<text text-anchor="middle" x="284.8564" y="-82.5" font-family="Helvetica,sans-Serif" font-size="10.00" fill="#000000">open_claw</text>
</a>
</g>
</g>
<!-- Node21&#45;&gt;Node24 -->
<g id="edge7" class="edge">
<title>Node21&#45;&gt;Node24</title>
<path fill="none" stroke="#191970" d="M178.899,-127.598C204.4135,-117.4609 239.308,-103.5969 261.9635,-94.5956"/>
<polygon fill="#191970" stroke="#191970" points="177.2858,-124.4728 169.2848,-131.4179 179.8705,-130.9781 177.2858,-124.4728"/>
</g>
<!-- Node25 -->
<g id="node8" class="node">
<title>Node25</title>
<g id="a_node8"><a xlink:href="claw_8c.html#ac42dd40dbb37219295286859c6b068c2" target="_top" xlink:title="Drives the motors to close the claw. ">
<polygon fill="none" stroke="#000000" points="252.4009,-113.5 252.4009,-131.5 317.312,-131.5 317.312,-113.5 252.4009,-113.5"/>
<text text-anchor="middle" x="284.8564" y="-119.5" font-family="Helvetica,sans-Serif" font-size="10.00" fill="#000000">close_claw</text>
</a>
</g>
</g>
<!-- Node21&#45;&gt;Node25 -->
<g id="edge9" class="edge">
<title>Node21&#45;&gt;Node25</title>
<path fill="none" stroke="#191970" d="M213.0435,-131.8378C226.6086,-130.0739 240.3068,-128.2927 252.0503,-126.7657"/>
<polygon fill="#191970" stroke="#191970" points="212.196,-128.4184 202.7308,-133.1787 213.0987,-135.36 212.196,-128.4184"/>
</g>
<!-- Node26 -->
<g id="node9" class="node">
<title>Node26</title>
<g id="a_node9"><a xlink:href="lifter_8c.html#a2cfc188f60f945c824dd7fe7b0b5f4e4" target="_top" xlink:title="Sets the lifter motors to the given value. ">
<polygon fill="none" stroke="#000000" points="239.8984,-150.5 239.8984,-168.5 329.8145,-168.5 329.8145,-150.5 239.8984,-150.5"/>
<text text-anchor="middle" x="284.8564" y="-156.5" font-family="Helvetica,sans-Serif" font-size="10.00" fill="#000000">set_lifter_motors</text>
</a>
</g>
</g>
<!-- Node21&#45;&gt;Node26 -->
<g id="edge11" class="edge">
<title>Node21&#45;&gt;Node26</title>
<path fill="none" stroke="#191970" d="M212.8939,-149.6229C221.9485,-150.8657 231.0658,-152.1171 239.6249,-153.2918"/>
<polygon fill="#191970" stroke="#191970" points="213.1139,-146.1204 202.7308,-148.228 212.162,-153.0554 213.1139,-146.1204"/>
</g>
<!-- Node30 -->
<g id="node13" class="node">
<title>Node30</title>
<g id="a_node13"><a xlink:href="mobile__goal__intake_8c.html#a8f215023832ba515d7b4535e3ae07498" target="_top" xlink:title="set_intake_motor">
<polygon fill="none" stroke="#000000" points="238.502,-246.5 238.502,-264.5 331.2109,-264.5 331.2109,-246.5 238.502,-246.5"/>
<text text-anchor="middle" x="284.8564" y="-252.5" font-family="Helvetica,sans-Serif" font-size="10.00" fill="#000000">set_intake_motor</text>
</a>
</g>
</g>
<!-- Node21&#45;&gt;Node30 -->
<g id="edge19" class="edge">
<title>Node21&#45;&gt;Node30</title>
<path fill="none" stroke="#191970" d="M165.1119,-156.0234C194.3248,-180.2917 249.9213,-226.478 273.66,-246.1986"/>
<polygon fill="#191970" stroke="#191970" points="167.2168,-153.2217 157.2882,-149.5239 162.7437,-158.6062 167.2168,-153.2217"/>
</g>
<!-- Node23 -->
<g id="node6" class="node">
<title>Node23</title>
<g id="a_node6"><a xlink:href="claw_8c.html#a0122b78972344264b8a276a559cfce4a" target="_top" xlink:title="Updates the claw motor values. ">
<polygon fill="none" stroke="#000000" points="494.25,-189.5 494.25,-207.5 566.4023,-207.5 566.4023,-189.5 494.25,-189.5"/>
<text text-anchor="middle" x="530.3262" y="-195.5" font-family="Helvetica,sans-Serif" font-size="10.00" fill="#000000">update_claw</text>
</a>
</g>
</g>
<!-- Node22&#45;&gt;Node23 -->
<g id="edge5" class="edge">
<title>Node22&#45;&gt;Node23</title>
<path fill="none" stroke="#191970" d="M337.936,-197.7162C385.144,-197.9086 452.9049,-198.1846 494.1357,-198.3526"/>
<polygon fill="#191970" stroke="#191970" points="337.9091,-194.2162 327.8949,-197.6753 337.8805,-201.2161 337.9091,-194.2162"/>
</g>
<!-- Node23&#45;&gt;Node20 -->
<g id="edge6" class="edge">
<title>Node23&#45;&gt;Node20</title>
<path fill="none" stroke="#191970" d="M576.7269,-198.5C591.1585,-198.5 606.9972,-198.5 621.1761,-198.5"/>
<polygon fill="#191970" stroke="#191970" points="576.5111,-195.0001 566.5111,-198.5 576.511,-202.0001 576.5111,-195.0001"/>
</g>
<!-- Node24&#45;&gt;Node19 -->
<g id="edge8" class="edge">
<title>Node24&#45;&gt;Node19</title>
<path fill="none" stroke="#191970" d="M322.5646,-73.4003C339.5665,-67.9449 359.3055,-61.6111 375.008,-56.5725"/>
<polygon fill="#191970" stroke="#191970" points="321.3741,-70.1065 312.9217,-76.4945 323.5129,-76.7718 321.3741,-70.1065"/>
</g>
<!-- Node25&#45;&gt;Node19 -->
<g id="edge10" class="edge">
<title>Node25&#45;&gt;Node19</title>
<path fill="none" stroke="#191970" d="M322.3889,-109.3399C325.4444,-107.8463 328.4248,-106.2319 331.2109,-104.5 349.6447,-93.0411 350.1244,-84.8851 367.2109,-71.5 373.9612,-66.212 381.8526,-60.8744 388.5302,-56.5799"/>
<polygon fill="#191970" stroke="#191970" points="320.8366,-106.1995 313.1158,-113.4548 323.6759,-112.5978 320.8366,-106.1995"/>
</g>
<!-- Node26&#45;&gt;Node19 -->
<g id="edge12" class="edge">
<title>Node26&#45;&gt;Node19</title>
<path fill="none" stroke="#191970" d="M326.4345,-145.2492C328.1164,-144.0908 329.7194,-142.8431 331.2109,-141.5 357.2082,-118.0896 343.8977,-97.5844 367.2109,-71.5 372.4239,-65.6673 379.3546,-60.6128 385.7469,-56.6667"/>
<polygon fill="#191970" stroke="#191970" points="324.4762,-142.3366 317.5185,-150.3267 327.9403,-148.4194 324.4762,-142.3366"/>
</g>
<!-- Node27 -->
<g id="node10" class="node">
<title>Node27</title>
<g id="a_node10"><a xlink:href="lifter_8c.html#aa7d2d04059f57cc5b8582f6fd0726dc1" target="_top" xlink:title="lower_lifter">
<polygon fill="none" stroke="#000000" points="371.1074,-114.5 371.1074,-132.5 435.457,-132.5 435.457,-114.5 371.1074,-114.5"/>
<text text-anchor="middle" x="403.2822" y="-120.5" font-family="Helvetica,sans-Serif" font-size="10.00" fill="#000000">lower_lifter</text>
</a>
</g>
</g>
<!-- Node26&#45;&gt;Node27 -->
<g id="edge13" class="edge">
<title>Node26&#45;&gt;Node27</title>
<path fill="none" stroke="#191970" d="M324.3746,-147.487C340.3758,-142.6228 358.5425,-137.1003 373.408,-132.5814"/>
<polygon fill="#191970" stroke="#191970" points="323.29,-144.1584 314.7403,-150.4157 325.326,-150.8558 323.29,-144.1584"/>
</g>
<!-- Node28 -->
<g id="node11" class="node">
<title>Node28</title>
<g id="a_node11"><a xlink:href="lifter_8c.html#a59bb7413777ca16aba124aaedf95c79b" target="_top" xlink:title="Updates the lifter in teleop. ">
<polygon fill="none" stroke="#000000" points="494.8066,-133.5 494.8066,-151.5 565.8457,-151.5 565.8457,-133.5 494.8066,-133.5"/>
<text text-anchor="middle" x="530.3262" y="-139.5" font-family="Helvetica,sans-Serif" font-size="10.00" fill="#000000">update_lifter</text>
</a>
</g>
</g>
<!-- Node26&#45;&gt;Node28 -->
<g id="edge18" class="edge">
<title>Node26&#45;&gt;Node28</title>
<path fill="none" stroke="#191970" d="M322.9884,-146.2103C325.8441,-144.7603 328.619,-143.1904 331.2109,-141.5 350.164,-129.1395 346.3059,-114.1591 367.2109,-105.5 419.2566,-83.942 486.0943,-116.3062 515.4161,-133.2471"/>
<polygon fill="#191970" stroke="#191970" points="321.3658,-143.1033 313.7166,-150.4341 324.2678,-149.4735 321.3658,-143.1033"/>
</g>
<!-- Node29 -->
<g id="node12" class="node">
<title>Node29</title>
<g id="a_node12"><a xlink:href="lifter_8c.html#a7452163ed7946b6262f41de51c62dfd4" target="_top" xlink:title="raise_lifter">
<polygon fill="none" stroke="#000000" points="372.2183,-151.5 372.2183,-169.5 434.3462,-169.5 434.3462,-151.5 372.2183,-151.5"/>
<text text-anchor="middle" x="403.2822" y="-157.5" font-family="Helvetica,sans-Serif" font-size="10.00" fill="#000000">raise_lifter</text>
</a>
</g>
</g>
<!-- Node26&#45;&gt;Node29 -->
<g id="edge16" class="edge">
<title>Node26&#45;&gt;Node29</title>
<path fill="none" stroke="#191970" d="M340.2775,-159.968C351.1372,-160.0597 362.1676,-160.1528 371.8996,-160.235"/>
<polygon fill="#191970" stroke="#191970" points="339.9952,-156.4656 329.966,-159.8809 339.936,-163.4653 339.9952,-156.4656"/>
</g>
<!-- Node27&#45;&gt;Node28 -->
<g id="edge14" class="edge">
<title>Node27&#45;&gt;Node28</title>
<path fill="none" stroke="#191970" d="M445.7174,-129.8464C461.5103,-132.2083 479.2648,-134.8635 494.4166,-137.1296"/>
<polygon fill="#191970" stroke="#191970" points="446.0772,-126.3613 435.6695,-128.3437 445.0418,-133.2843 446.0772,-126.3613"/>
</g>
<!-- Node28&#45;&gt;Node20 -->
<g id="edge15" class="edge">
<title>Node28&#45;&gt;Node20</title>
<path fill="none" stroke="#191970" d="M561.4401,-155.5307C586.2352,-165.915 620.3207,-180.1901 642.2683,-189.3819"/>
<polygon fill="#191970" stroke="#191970" points="562.683,-152.2567 552.1072,-151.622 559.9789,-158.7133 562.683,-152.2567"/>
</g>
<!-- Node29&#45;&gt;Node28 -->
<g id="edge17" class="edge">
<title>Node29&#45;&gt;Node28</title>
<path fill="none" stroke="#191970" d="M444.6005,-154.6459C460.7415,-152.359 479.0706,-149.7621 494.6257,-147.5582"/>
<polygon fill="#191970" stroke="#191970" points="443.7708,-151.2284 434.3607,-156.0967 444.7528,-158.1592 443.7708,-151.2284"/>
</g>
<!-- Node31 -->
<g id="node14" class="node">
<title>Node31</title>
<g id="a_node14"><a xlink:href="mobile__goal__intake_8c.html#afa91470a9891e48827fd62d18553c6ce" target="_top" xlink:title="lower_intake">
<polygon fill="none" stroke="#000000" points="367.2109,-303.5 367.2109,-321.5 439.3535,-321.5 439.3535,-303.5 367.2109,-303.5"/>
<text text-anchor="middle" x="403.2822" y="-309.5" font-family="Helvetica,sans-Serif" font-size="10.00" fill="#000000">lower_intake</text>
</a>
</g>
</g>
<!-- Node30&#45;&gt;Node31 -->
<g id="edge20" class="edge">
<title>Node30&#45;&gt;Node31</title>
<path fill="none" stroke="#191970" d="M312.7995,-268.9494C334.807,-279.5419 364.8961,-294.0242 384.213,-303.3217"/>
<polygon fill="#191970" stroke="#191970" points="314.1499,-265.7151 303.6214,-264.5318 311.114,-272.0225 314.1499,-265.7151"/>
</g>
<!-- Node32 -->
<g id="node15" class="node">
<title>Node32</title>
<g id="a_node15"><a xlink:href="mobile__goal__intake_8c.html#ad0232c21c5c1ffda603d2b7d61034118" target="_top" xlink:title="updates the mobile goal intake in teleop. ">
<polygon fill="none" stroke="#000000" points="493.4126,-246.5 493.4126,-264.5 567.2397,-264.5 567.2397,-246.5 493.4126,-246.5"/>
<text text-anchor="middle" x="530.3262" y="-252.5" font-family="Helvetica,sans-Serif" font-size="10.00" fill="#000000">updateIntake</text>
</a>
</g>
</g>
<!-- Node30&#45;&gt;Node32 -->
<g id="edge25" class="edge">
<title>Node30&#45;&gt;Node32</title>
<path fill="none" stroke="#191970" d="M341.5737,-255.5C388.2354,-255.5 453.0215,-255.5 493.2726,-255.5"/>
<polygon fill="#191970" stroke="#191970" points="341.316,-252.0001 331.316,-255.5 341.316,-259.0001 341.316,-252.0001"/>
</g>
<!-- Node33 -->
<g id="node16" class="node">
<title>Node33</title>
<g id="a_node16"><a xlink:href="mobile__goal__intake_8c.html#a4899f9a8621015313e6312ce085da979" target="_top" xlink:title="raise_intake">
<polygon fill="none" stroke="#000000" points="368.3218,-227.5 368.3218,-245.5 438.2427,-245.5 438.2427,-227.5 368.3218,-227.5"/>
<text text-anchor="middle" x="403.2822" y="-233.5" font-family="Helvetica,sans-Serif" font-size="10.00" fill="#000000">raise_intake</text>
</a>
</g>
</g>
<!-- Node30&#45;&gt;Node33 -->
<g id="edge23" class="edge">
<title>Node30&#45;&gt;Node33</title>
<path fill="none" stroke="#191970" d="M341.2536,-246.4518C350.4788,-244.9717 359.7954,-243.4769 368.305,-242.1117"/>
<polygon fill="#191970" stroke="#191970" points="340.6408,-243.0052 331.3216,-248.0452 341.7498,-249.9168 340.6408,-243.0052"/>
</g>
<!-- Node31&#45;&gt;Node32 -->
<g id="edge21" class="edge">
<title>Node31&#45;&gt;Node32</title>
<path fill="none" stroke="#191970" d="M432.6257,-299.3347C456.288,-288.7183 488.9607,-274.0592 509.8692,-264.6783"/>
<polygon fill="#191970" stroke="#191970" points="431.1038,-296.1813 423.4127,-303.4682 433.9692,-302.5679 431.1038,-296.1813"/>
</g>
<!-- Node32&#45;&gt;Node20 -->
<g id="edge22" class="edge">
<title>Node32&#45;&gt;Node20</title>
<path fill="none" stroke="#191970" d="M560.8787,-242.476C585.8088,-231.8487 620.4051,-217.1009 642.509,-207.6783"/>
<polygon fill="#191970" stroke="#191970" points="559.3401,-239.327 551.5135,-246.4682 562.0851,-245.7664 559.3401,-239.327"/>
</g>
<!-- Node33&#45;&gt;Node32 -->
<g id="edge24" class="edge">
<title>Node33&#45;&gt;Node32</title>
<path fill="none" stroke="#191970" d="M448.2383,-243.2234C462.9437,-245.4226 479.1044,-247.8396 493.1688,-249.9429"/>
<polygon fill="#191970" stroke="#191970" points="448.7416,-239.7598 438.3338,-241.7421 447.7061,-246.6828 448.7416,-239.7598"/>
</g>
<!-- Node35 -->
<g id="node18" class="node">
<title>Node35</title>
<g id="a_node18"><a xlink:href="drive_8c.html#a8df41fd50094c065eedc81fc5e6595d1" target="_top" xlink:title="sets the speed of one side of the robot. ">
<polygon fill="none" stroke="#000000" points="241.8296,-.5 241.8296,-18.5 327.8833,-18.5 327.8833,-.5 241.8296,-.5"/>
<text text-anchor="middle" x="284.8564" y="-6.5" font-family="Helvetica,sans-Serif" font-size="10.00" fill="#000000">set_side_speed</text>
</a>
</g>
</g>
<!-- Node34&#45;&gt;Node35 -->
<g id="edge27" class="edge">
<title>Node34&#45;&gt;Node35</title>
<path fill="none" stroke="#191970" d="M199.7769,-9.5C213.5346,-9.5 228.1761,-9.5 241.3648,-9.5"/>
<polygon fill="#191970" stroke="#191970" points="199.4673,-6.0001 189.4673,-9.5 199.4673,-13.0001 199.4673,-6.0001"/>
</g>
<!-- Node35&#45;&gt;Node19 -->
<g id="edge28" class="edge">
<title>Node35&#45;&gt;Node19</title>
<path fill="none" stroke="#191970" d="M322.5646,-21.5997C339.5665,-27.0551 359.3055,-33.3889 375.008,-38.4275"/>
<polygon fill="#191970" stroke="#191970" points="323.5129,-18.2282 312.9217,-18.5055 321.3741,-24.8935 323.5129,-18.2282"/>
</g>
<!-- Node36 -->
<g id="node19" class="node">
<title>Node36</title>
<g id="a_node19"><a xlink:href="drive_8c.html#a8224a4626a934d30ed587671b7004bf8" target="_top" xlink:title="Updates the drive motors during teleop. ">
<polygon fill="none" stroke="#000000" points="475.3535,-39.5 475.3535,-57.5 585.2988,-57.5 585.2988,-39.5 475.3535,-39.5"/>
<text text-anchor="middle" x="530.3262" y="-45.5" font-family="Helvetica,sans-Serif" font-size="10.00" fill="#000000">update_drive_motors</text>
</a>
</g>
</g>
<!-- Node35&#45;&gt;Node36 -->
<g id="edge29" class="edge">
<title>Node35&#45;&gt;Node36</title>
<path fill="none" stroke="#191970" d="M338.1465,-15.3708C367.9912,-18.916 405.8361,-23.8391 439.3535,-29.5 456.0583,-32.3213 474.3641,-36.0246 490.1474,-39.4118"/>
<polygon fill="#191970" stroke="#191970" points="338.2834,-11.863 327.944,-14.1753 337.4686,-18.8154 338.2834,-11.863"/>
</g>
<!-- Node36&#45;&gt;Node20 -->
<g id="edge30" class="edge">
<title>Node36&#45;&gt;Node20</title>
<path fill="none" stroke="#191970" d="M545.4579,-65.4748C573.7159,-97.1746 633.6391,-164.3962 655.6788,-189.1204"/>
<polygon fill="#191970" stroke="#191970" points="547.9575,-63.0189 538.6906,-57.8832 542.7322,-67.6769 547.9575,-63.0189"/>
</g>
</g>
</svg>
        <g id="navigator" transform="translate(0 0)" fill="#404254">
                <rect fill="#f2f5e9" fill-opacity="0.5" stroke="#606060" stroke-width=".5" x="0" y="0" width="60" height="60"/>
                <use id="zoomplus" xlink:href="#zoomPlus" x="17" y="9" onmousedown="handleZoom(evt,'in')"/>
                <use id="zoomminus" xlink:href="#zoomMin" x="42" y="9" onmousedown="handleZoom(evt,'out')"/>
                <use id="reset" xlink:href="#resetDef" x="30" y="36" onmousedown="handleReset()"/>
                <g id="arrowUp" xlink:href="#dirArrow" transform="translate(30 24)" onmousedown="handlePan(0,-1)">
                  <use xlink:href="#rim" fill="#404040">
                        <set attributeName="fill" to="#808080" begin="arrowUp.mouseover" end="arrowUp.mouseout"/>
                  </use>
                  <path fill="none" stroke="white" stroke-width="1.5" d="M0,-3.0v7 M-2.5,-0.5L0,-3.0L2.5,-0.5"/>
                </g>
                <g id="arrowRight" xlink:href="#dirArrow" transform="rotate(90) translate(36 -43)" onmousedown="handlePan(1,0)">
                  <use xlink:href="#rim" fill="#404040">
                        <set attributeName="fill" to="#808080" begin="arrowRight.mouseover" end="arrowRight.mouseout"/>
                  </use>
                  <path fill="none" stroke="white" stroke-width="1.5" d="M0,-3.0v7 M-2.5,-0.5L0,-3.0L2.5,-0.5"/>
                </g>
                <g id="arrowDown" xlink:href="#dirArrow" transform="rotate(180) translate(-30 -48)" onmousedown="handlePan(0,1)">
                  <use xlink:href="#rim" fill="#404040">
                        <set attributeName="fill" to="#808080" begin="arrowDown.mouseover" end="arrowDown.mouseout"/>
                  </use>
                  <path fill="none" stroke="white" stroke-width="1.5" d="M0,-3.0v7 M-2.5,-0.5L0,-3.0L2.5,-0.5"/>
                </g>
                <g id="arrowLeft" xlink:href="#dirArrow" transform="rotate(270) translate(-36 17)" onmousedown="handlePan(-1,0)">
                  <use xlink:href="#rim" fill="#404040">
                        <set attributeName="fill" to="#808080" begin="arrowLeft.mouseover" end="arrowLeft.mouseout"/>
                  </use>
                  <path fill="none" stroke="white" stroke-width="1.5" d="M0,-3.0v7 M-2.5,-0.5L0,-3.0L2.5,-0.5"/>
                </g>
        </g>
        <svg viewBox="0 0 15 15" width="100%" height="30px" preserveAspectRatio="xMaxYMin meet">
         <g id="arrow_out" transform="scale(0.3 0.3)">
          <a xlink:href="slew_8c_a321758941d88b75783955c819bb75005_icgraph_org.svg" target="_base">
           <rect id="button" ry="5" rx="5" y="6" x="6" height="38" width="38"
                fill="#f2f5e9" fill-opacity="0.5" stroke="#606060" stroke-width="1.0"/>
           <path id="arrow"
             d="M 11.500037,31.436501 C 11.940474,20.09759 22.043105,11.32322 32.158766,21.979434 L 37.068811,17.246167 C 37.068811,17.246167 37.088388,32 37.088388,32 L 22.160133,31.978069 C 22.160133,31.978069 26.997745,27.140456 26.997745,27.140456 C 18.528582,18.264221 13.291696,25.230495 11.500037,31.436501 z"
             style="fill:#404040;"/>
          </a>
         </g>
        </svg>
</svg>
