<?xml version="1.0" encoding="UTF-8" standalone="no"?>
<!DOCTYPE svg PUBLIC "-//W3C//DTD SVG 1.1//EN"
 "http://www.w3.org/Graphics/SVG/1.1/DTD/svg11.dtd">
<!-- Generated by graphviz version 2.40.1 (20161225.0304)
 -->
<!-- Title: updateMotors Pages: 1 -->
<svg width="260pt" height="212pt"
 viewBox="0.00 0.00 259.73 212.00" xmlns="http://www.w3.org/2000/svg" xmlns:xlink="http://www.w3.org/1999/xlink">
<g id="graph0" class="graph" transform="scale(1 1) rotate(0) translate(4 208)">
<title>updateMotors</title>
<!-- Node23 -->
<g id="node1" class="node">
<title>Node23</title>
<polygon fill="#bfbfbf" stroke="#000000" points="0,-92.5 0,-110.5 77.1475,-110.5 77.1475,-92.5 0,-92.5"/>
<text text-anchor="middle" x="38.5737" y="-98.5" font-family="Helvetica,sans-Serif" font-size="10.00" fill="#000000">updateMotors</text>
</g>
<!-- Node24 -->
<g id="node2" class="node">
<title>Node24</title>
<g id="a_node2"><a xlink:href="log_8h.html#af3668f40d1ad1b4f3418869ac9a31f34" target="_top" xlink:title="prints a info message ">
<polygon fill="none" stroke="#000000" points="123.4209,-185.5 123.4209,-203.5 167.2285,-203.5 167.2285,-185.5 123.4209,-185.5"/>
<text text-anchor="middle" x="145.3247" y="-191.5" font-family="Helvetica,sans-Serif" font-size="10.00" fill="#000000">debug</text>
</a>
</g>
</g>
<!-- Node23&#45;&gt;Node24 -->
<g id="edge1" class="edge">
<title>Node23&#45;&gt;Node24</title>
<path fill="none" stroke="#191970" d="M46.1491,-110.6252C58.9019,-125.6174 85.9408,-155.8543 113.1475,-176.5 114.7537,-177.7189 116.4518,-178.9103 118.1948,-180.0626"/>
<polygon fill="#191970" stroke="#191970" points="116.7023,-183.2508 127.0677,-185.4439 120.3323,-177.2655 116.7023,-183.2508"/>
</g>
<!-- Node26 -->
<g id="node4" class="node">
<title>Node26</title>
<g id="a_node4"><a xlink:href="_a_p_i_8h.html#a4805c8fd29f9221d28ed2e673c06e6c4" target="_top" xlink:title="motorGet">
<polygon fill="none" stroke="#000000" points="116.4849,-148.5 116.4849,-166.5 174.1646,-166.5 174.1646,-148.5 116.4849,-148.5"/>
<text text-anchor="middle" x="145.3247" y="-154.5" font-family="Helvetica,sans-Serif" font-size="10.00" fill="#000000">motorGet</text>
</a>
</g>
</g>
<!-- Node23&#45;&gt;Node26 -->
<g id="edge3" class="edge">
<title>Node23&#45;&gt;Node26</title>
<path fill="none" stroke="#191970" d="M56.2015,-110.7473C73.3011,-119.7174 99.4597,-133.4399 119.0208,-143.7014"/>
<polygon fill="#191970" stroke="#191970" points="117.5435,-146.8787 128.025,-148.4248 120.7954,-140.6799 117.5435,-146.8787"/>
</g>
<!-- Node27 -->
<g id="node5" class="node">
<title>Node27</title>
<g id="a_node5"><a xlink:href="_a_p_i_8h.html#a03c5b04b472d024281f62d7af8854a8e" target="_top" xlink:title="motorSet">
<polygon fill="none" stroke="#000000" points="117.0391,-111.5 117.0391,-129.5 173.6104,-129.5 173.6104,-111.5 117.0391,-111.5"/>
<text text-anchor="middle" x="145.3247" y="-117.5" font-family="Helvetica,sans-Serif" font-size="10.00" fill="#000000">motorSet</text>
</a>
</g>
</g>
<!-- Node23&#45;&gt;Node27 -->
<g id="edge4" class="edge">
<title>Node23&#45;&gt;Node27</title>
<path fill="none" stroke="#191970" d="M77.4153,-108.4132C86.9592,-110.1119 97.1742,-111.93 106.7076,-113.6268"/>
<polygon fill="#191970" stroke="#191970" points="106.2621,-117.1024 116.7207,-115.4089 107.4888,-110.2107 106.2621,-117.1024"/>
</g>
<!-- Node28 -->
<g id="node6" class="node">
<title>Node28</title>
<g id="a_node6"><a xlink:href="_a_p_i_8h.html#afe171a08d22de18fc2ab604b2364959f" target="_top" xlink:title="mutexGive">
<polygon fill="none" stroke="#000000" points="113.4282,-74.5 113.4282,-92.5 177.2212,-92.5 177.2212,-74.5 113.4282,-74.5"/>
<text text-anchor="middle" x="145.3247" y="-80.5" font-family="Helvetica,sans-Serif" font-size="10.00" fill="#000000">mutexGive</text>
</a>
</g>
</g>
<!-- Node23&#45;&gt;Node28 -->
<g id="edge5" class="edge">
<title>Node23&#45;&gt;Node28</title>
<path fill="none" stroke="#191970" d="M77.4153,-94.9507C85.807,-93.5357 94.7175,-92.0332 103.2273,-90.5983"/>
<polygon fill="#191970" stroke="#191970" points="104.0679,-94.0061 113.3467,-88.892 102.904,-87.1035 104.0679,-94.0061"/>
</g>
<!-- Node29 -->
<g id="node7" class="node">
<title>Node29</title>
<g id="a_node7"><a xlink:href="_a_p_i_8h.html#a8b51124628d2a7741738d48551d1e8ee" target="_top" xlink:title="mutexTake">
<polygon fill="none" stroke="#000000" points="113.1475,-37.5 113.1475,-55.5 177.502,-55.5 177.502,-37.5 113.1475,-37.5"/>
<text text-anchor="middle" x="145.3247" y="-43.5" font-family="Helvetica,sans-Serif" font-size="10.00" fill="#000000">mutexTake</text>
</a>
</g>
</g>
<!-- Node23&#45;&gt;Node29 -->
<g id="edge6" class="edge">
<title>Node23&#45;&gt;Node29</title>
<path fill="none" stroke="#191970" d="M56.2015,-92.4179C73.1993,-83.6603 99.1486,-70.2907 118.6708,-60.2326"/>
<polygon fill="#191970" stroke="#191970" points="120.3843,-63.287 127.6708,-55.5956 117.1782,-57.0644 120.3843,-63.287"/>
</g>
<!-- Node30 -->
<g id="node8" class="node">
<title>Node30</title>
<g id="a_node8"><a xlink:href="_a_p_i_8h.html#acbfbfc380f865613ad5ff3cae256bdc4" target="_top" xlink:title="sprintf">
<polygon fill="none" stroke="#000000" points="123.709,-.5 123.709,-18.5 166.9404,-18.5 166.9404,-.5 123.709,-.5"/>
<text text-anchor="middle" x="145.3247" y="-6.5" font-family="Helvetica,sans-Serif" font-size="10.00" fill="#000000">sprintf</text>
</a>
</g>
</g>
<!-- Node23&#45;&gt;Node30 -->
<g id="edge7" class="edge">
<title>Node23&#45;&gt;Node30</title>
<path fill="none" stroke="#191970" d="M46.6741,-92.2379C59.741,-77.6206 86.6913,-48.7822 113.1475,-28.5 115.1747,-26.9458 117.3396,-25.4203 119.5518,-23.9513"/>
<polygon fill="#191970" stroke="#191970" points="121.4789,-26.8745 128.1272,-18.6251 117.7856,-20.9281 121.4789,-26.8745"/>
</g>
<!-- Node25 -->
<g id="node3" class="node">
<title>Node25</title>
<g id="a_node3"><a xlink:href="_a_p_i_8h.html#a403c82418e475fa4a8273719e6a7f3e6" target="_top" xlink:title="printf">
<polygon fill="none" stroke="#000000" points="213.502,-185.5 213.502,-203.5 251.7334,-203.5 251.7334,-185.5 213.502,-185.5"/>
<text text-anchor="middle" x="232.6177" y="-191.5" font-family="Helvetica,sans-Serif" font-size="10.00" fill="#000000">printf</text>
</a>
</g>
</g>
<!-- Node24&#45;&gt;Node25 -->
<g id="edge2" class="edge">
<title>Node24&#45;&gt;Node25</title>
<path fill="none" stroke="#191970" d="M167.3524,-194.5C178.1799,-194.5 191.3822,-194.5 203.0723,-194.5"/>
<polygon fill="#191970" stroke="#191970" points="203.2717,-198.0001 213.2716,-194.5 203.2716,-191.0001 203.2717,-198.0001"/>
</g>
</g>
</svg>
