<?xml version="1.0" encoding="UTF-8" standalone="no"?>
<!DOCTYPE svg PUBLIC "-//W3C//DTD SVG 1.1//EN"
 "http://www.w3.org/Graphics/SVG/1.1/DTD/svg11.dtd">
<!-- Generated by graphviz version 2.40.1 (20161225.0304)
 -->
<!-- Title: include/slew.h Pages: 1 -->
<svg width="181pt" height="137pt"
 viewBox="0.00 0.00 180.51 137.00" xmlns="http://www.w3.org/2000/svg" xmlns:xlink="http://www.w3.org/1999/xlink">
<g id="graph0" class="graph" transform="scale(1 1) rotate(0) translate(4 133)">
<title>include/slew.h</title>
<!-- Node0 -->
<g id="node1" class="node">
<title>Node0</title>
<polygon fill="#bfbfbf" stroke="#000000" points="44.0962,-110.5 44.0962,-128.5 122.3618,-128.5 122.3618,-110.5 44.0962,-110.5"/>
<text text-anchor="middle" x="83.229" y="-116.5" font-family="Helvetica,sans-Serif" font-size="10.00" fill="#000000">include/slew.h</text>
</g>
<!-- Node1 -->
<g id="node2" class="node">
<title>Node1</title>
<polygon fill="none" stroke="#bfbfbf" points="0,-.5 0,-18.5 40.458,-18.5 40.458,-.5 0,-.5"/>
<text text-anchor="middle" x="20.229" y="-6.5" font-family="Helvetica,sans-Serif" font-size="10.00" fill="#000000">API.h</text>
</g>
<!-- Node0&#45;&gt;Node1 -->
<g id="edge1" class="edge">
<title>Node0&#45;&gt;Node1</title>
<path fill="none" stroke="#191970" d="M77.0018,-110.2279C70.9678,-101.1301 61.6635,-86.7977 54.229,-74 45.3985,-58.7994 36.1431,-41.1095 29.5224,-28.1043"/>
<polygon fill="#191970" stroke="#191970" points="32.4655,-26.1674 24.8361,-18.8159 26.2158,-29.3205 32.4655,-26.1674"/>
</g>
<!-- Node2 -->
<g id="node3" class="node">
<title>Node2</title>
<polygon fill="none" stroke="#bfbfbf" points="125.9434,-.5 125.9434,-18.5 172.5146,-18.5 172.5146,-.5 125.9434,-.5"/>
<text text-anchor="middle" x="149.229" y="-6.5" font-family="Helvetica,sans-Serif" font-size="10.00" fill="#000000">math.h</text>
</g>
<!-- Node0&#45;&gt;Node2 -->
<g id="edge2" class="edge">
<title>Node0&#45;&gt;Node2</title>
<path fill="none" stroke="#191970" d="M89.3563,-110.1687C95.3163,-101.0269 104.5672,-86.6629 112.229,-74 121.6018,-58.5092 131.81,-40.6326 139.1251,-27.6338"/>
<polygon fill="#191970" stroke="#191970" points="142.2597,-29.1995 144.0933,-18.7646 136.1526,-25.7785 142.2597,-29.1995"/>
</g>
<!-- Node3 -->
<g id="node4" class="node">
<title>Node3</title>
<g id="a_node4"><a xlink:href="vlib_8h.html" target="_top" xlink:title="Contains misc helpful functions. ">
<polygon fill="none" stroke="#000000" points="63.5566,-55.5 63.5566,-73.5 102.9014,-73.5 102.9014,-55.5 63.5566,-55.5"/>
<text text-anchor="middle" x="83.229" y="-61.5" font-family="Helvetica,sans-Serif" font-size="10.00" fill="#000000">vlib.h</text>
</a>
</g>
</g>
<!-- Node0&#45;&gt;Node3 -->
<g id="edge3" class="edge">
<title>Node0&#45;&gt;Node3</title>
<path fill="none" stroke="#191970" d="M83.229,-110.4179C83.229,-103.2164 83.229,-92.8962 83.229,-83.8632"/>
<polygon fill="#191970" stroke="#191970" points="86.7291,-83.7794 83.229,-73.7795 79.7291,-83.7795 86.7291,-83.7794"/>
</g>
<!-- Node3&#45;&gt;Node1 -->
<g id="edge5" class="edge">
<title>Node3&#45;&gt;Node1</title>
<path fill="none" stroke="#191970" d="M72.8258,-55.4179C63.4891,-47.2667 49.5757,-35.1201 38.4039,-25.3669"/>
<polygon fill="#191970" stroke="#191970" points="40.6932,-22.7194 30.8582,-18.7795 36.0896,-27.9927 40.6932,-22.7194"/>
</g>
<!-- Node3&#45;&gt;Node2 -->
<g id="edge4" class="edge">
<title>Node3&#45;&gt;Node2</title>
<path fill="none" stroke="#191970" d="M94.1276,-55.4179C103.909,-47.2667 118.4848,-35.1201 130.1887,-25.3669"/>
<polygon fill="#191970" stroke="#191970" points="132.6521,-27.8701 138.0937,-18.7795 128.1708,-22.4926 132.6521,-27.8701"/>
</g>
<!-- Node4 -->
<g id="node5" class="node">
<title>Node4</title>
<polygon fill="none" stroke="#bfbfbf" points="58.8325,-.5 58.8325,-18.5 107.6255,-18.5 107.6255,-.5 58.8325,-.5"/>
<text text-anchor="middle" x="83.229" y="-6.5" font-family="Helvetica,sans-Serif" font-size="10.00" fill="#000000">string.h</text>
</g>
<!-- Node3&#45;&gt;Node4 -->
<g id="edge6" class="edge">
<title>Node3&#45;&gt;Node4</title>
<path fill="none" stroke="#191970" d="M83.229,-55.4179C83.229,-48.2164 83.229,-37.8962 83.229,-28.8632"/>
<polygon fill="#191970" stroke="#191970" points="86.7291,-28.7794 83.229,-18.7795 79.7291,-28.7795 86.7291,-28.7794"/>
</g>
</g>
</svg>
