<?xml version="1.0" encoding="UTF-8" standalone="no"?>
<!DOCTYPE svg PUBLIC "-//W3C//DTD SVG 1.1//EN"
 "http://www.w3.org/Graphics/SVG/1.1/DTD/svg11.dtd">
<!-- Generated by graphviz version 2.40.1 (20161225.0304)
 -->
<!-- Title: buttonGetState Pages: 1 -->
<svg width="220pt" height="64pt"
 viewBox="0.00 0.00 219.96 64.00" xmlns="http://www.w3.org/2000/svg" xmlns:xlink="http://www.w3.org/1999/xlink">
<g id="graph0" class="graph" transform="scale(1 1) rotate(0) translate(4 60)">
<title>buttonGetState</title>
<!-- Node0 -->
<g id="node1" class="node">
<title>Node0</title>
<polygon fill="#bfbfbf" stroke="#000000" points="0,-18.5 0,-36.5 83.2705,-36.5 83.2705,-18.5 0,-18.5"/>
<text text-anchor="middle" x="41.6353" y="-24.5" font-family="Helvetica,sans-Serif" font-size="10.00" fill="#000000">buttonGetState</text>
</g>
<!-- Node1 -->
<g id="node2" class="node">
<title>Node1</title>
<g id="a_node2"><a xlink:href="_a_p_i_8h.html#a792f1a80c62a63e764cf64aabf95db92" target="_top" xlink:title="Gets the value of a button on the VEX joystick. ">
<polygon fill="none" stroke="#000000" points="119.2705,-37.5 119.2705,-55.5 211.96,-55.5 211.96,-37.5 119.2705,-37.5"/>
<text text-anchor="middle" x="165.6152" y="-43.5" font-family="Helvetica,sans-Serif" font-size="10.00" fill="#000000">joystickGetDigital</text>
</a>
</g>
</g>
<!-- Node0&#45;&gt;Node1 -->
<g id="edge1" class="edge">
<title>Node0&#45;&gt;Node1</title>
<path fill="none" stroke="#191970" d="M83.6092,-33.9325C91.7889,-35.1861 100.4893,-36.5194 109.0507,-37.8315"/>
<polygon fill="#191970" stroke="#191970" points="108.5828,-41.3005 118.9976,-39.3558 109.6433,-34.3813 108.5828,-41.3005"/>
</g>
<!-- Node2 -->
<g id="node3" class="node">
<title>Node2</title>
<g id="a_node3"><a xlink:href="_a_p_i_8h.html#a04541d90f60b1ccd3d036656673c972d" target="_top" xlink:title="Reads the user button status from the LCD display. ">
<polygon fill="none" stroke="#000000" points="122.3149,-.5 122.3149,-18.5 208.9155,-18.5 208.9155,-.5 122.3149,-.5"/>
<text text-anchor="middle" x="165.6152" y="-6.5" font-family="Helvetica,sans-Serif" font-size="10.00" fill="#000000">lcdReadButtons</text>
</a>
</g>
</g>
<!-- Node0&#45;&gt;Node2 -->
<g id="edge2" class="edge">
<title>Node0&#45;&gt;Node2</title>
<path fill="none" stroke="#191970" d="M83.6092,-21.406C92.6889,-20.0878 102.4104,-18.6764 111.871,-17.3028"/>
<polygon fill="#191970" stroke="#191970" points="112.5984,-20.734 121.9917,-15.8335 111.5926,-13.8067 112.5984,-20.734"/>
</g>
</g>
</svg>
