<?xml version="1.0" encoding="UTF-8" standalone="no"?>
<!DOCTYPE svg PUBLIC "-//W3C//DTD SVG 1.1//EN"
 "http://www.w3.org/Graphics/SVG/1.1/DTD/svg11.dtd">
<!-- Generated by graphviz version 2.40.1 (20161225.0304)
 -->
<!-- Title: include/toggle.h Pages: 1 -->
<svg width="121pt" height="192pt"
 viewBox="0.00 0.00 120.69 192.00" xmlns="http://www.w3.org/2000/svg" xmlns:xlink="http://www.w3.org/1999/xlink">
<g id="graph0" class="graph" transform="scale(1 1) rotate(0) translate(4 188)">
<title>include/toggle.h</title>
<!-- Node0 -->
<g id="node1" class="node">
<title>Node0</title>
<polygon fill="#bfbfbf" stroke="#000000" points="7.2021,-165.5 7.2021,-183.5 93.2559,-183.5 93.2559,-165.5 7.2021,-165.5"/>
<text text-anchor="middle" x="50.229" y="-171.5" font-family="Helvetica,sans-Serif" font-size="10.00" fill="#000000">include/toggle.h</text>
</g>
<!-- Node1 -->
<g id="node2" class="node">
<title>Node1</title>
<polygon fill="none" stroke="#bfbfbf" points="0,-55.5 0,-73.5 40.458,-73.5 40.458,-55.5 0,-55.5"/>
<text text-anchor="middle" x="20.229" y="-61.5" font-family="Helvetica,sans-Serif" font-size="10.00" fill="#000000">API.h</text>
</g>
<!-- Node0&#45;&gt;Node1 -->
<g id="edge1" class="edge">
<title>Node0&#45;&gt;Node1</title>
<path fill="none" stroke="#191970" d="M47.774,-165.4982C42.8956,-147.6108 31.8907,-107.2594 25.3637,-83.3271"/>
<polygon fill="#191970" stroke="#191970" points="28.7259,-82.3528 22.718,-73.6261 21.9725,-84.1947 28.7259,-82.3528"/>
</g>
<!-- Node2 -->
<g id="node3" class="node">
<title>Node2</title>
<g id="a_node3"><a xlink:href="controller_8h.html" target="_top" xlink:title="controller definitions, macros and functions to assist with usig the vex controllers. ">
<polygon fill="none" stroke="#000000" points="47.7686,-110.5 47.7686,-128.5 112.6895,-128.5 112.6895,-110.5 47.7686,-110.5"/>
<text text-anchor="middle" x="80.229" y="-116.5" font-family="Helvetica,sans-Serif" font-size="10.00" fill="#000000">controller.h</text>
</a>
</g>
</g>
<!-- Node0&#45;&gt;Node2 -->
<g id="edge2" class="edge">
<title>Node0&#45;&gt;Node2</title>
<path fill="none" stroke="#191970" d="M55.1829,-165.4179C59.2837,-157.8998 65.2383,-146.9829 70.3127,-137.6799"/>
<polygon fill="#191970" stroke="#191970" points="73.4515,-139.2344 75.1675,-128.7795 67.3063,-135.8824 73.4515,-139.2344"/>
</g>
<!-- Node2&#45;&gt;Node1 -->
<g id="edge5" class="edge">
<title>Node2&#45;&gt;Node1</title>
<path fill="none" stroke="#191970" d="M70.3212,-110.4179C61.5154,-102.3458 48.4351,-90.3556 37.849,-80.6517"/>
<polygon fill="#191970" stroke="#191970" points="40.0887,-77.9567 30.352,-73.7795 35.3586,-83.1168 40.0887,-77.9567"/>
</g>
<!-- Node3 -->
<g id="node4" class="node">
<title>Node3</title>
<g id="a_node4"><a xlink:href="vmath_8h.html" target="_top" xlink:title="Vex Specific Math Functions, includes: Cartesian to polar cordinates. ">
<polygon fill="none" stroke="#000000" points="58.4434,-55.5 58.4434,-73.5 110.0146,-73.5 110.0146,-55.5 58.4434,-55.5"/>
<text text-anchor="middle" x="84.229" y="-61.5" font-family="Helvetica,sans-Serif" font-size="10.00" fill="#000000">vmath.h</text>
</a>
</g>
</g>
<!-- Node2&#45;&gt;Node3 -->
<g id="edge3" class="edge">
<title>Node2&#45;&gt;Node3</title>
<path fill="none" stroke="#191970" d="M80.8895,-110.4179C81.4133,-103.2164 82.1638,-92.8962 82.8208,-83.8632"/>
<polygon fill="#191970" stroke="#191970" points="86.3195,-84.007 83.5541,-73.7795 79.3379,-83.4992 86.3195,-84.007"/>
</g>
<!-- Node4 -->
<g id="node5" class="node">
<title>Node4</title>
<polygon fill="none" stroke="#bfbfbf" points="60.9434,-.5 60.9434,-18.5 107.5146,-18.5 107.5146,-.5 60.9434,-.5"/>
<text text-anchor="middle" x="84.229" y="-6.5" font-family="Helvetica,sans-Serif" font-size="10.00" fill="#000000">math.h</text>
</g>
<!-- Node3&#45;&gt;Node4 -->
<g id="edge4" class="edge">
<title>Node3&#45;&gt;Node4</title>
<path fill="none" stroke="#191970" d="M84.229,-55.4179C84.229,-48.2164 84.229,-37.8962 84.229,-28.8632"/>
<polygon fill="#191970" stroke="#191970" points="87.7291,-28.7794 84.229,-18.7795 80.7291,-28.7795 87.7291,-28.7794"/>
</g>
</g>
</svg>
