<?xml version="1.0" encoding="UTF-8" standalone="no"?>
<!DOCTYPE svg PUBLIC "-//W3C//DTD SVG 1.1//EN"
 "http://www.w3.org/Graphics/SVG/1.1/DTD/svg11.dtd">
<!-- Generated by graphviz version 2.40.1 (20161225.0304)
 -->
<!-- Title: buttonIsNewPress Pages: 1 -->
<svg width="434pt" height="27pt"
 viewBox="0.00 0.00 434.03 27.00" xmlns="http://www.w3.org/2000/svg" xmlns:xlink="http://www.w3.org/1999/xlink">
<g id="graph0" class="graph" transform="scale(1 1) rotate(0) translate(4 23)">
<title>buttonIsNewPress</title>
<!-- Node15 -->
<g id="node1" class="node">
<title>Node15</title>
<polygon fill="#bfbfbf" stroke="#000000" points="0,-.5 0,-18.5 97.1475,-18.5 97.1475,-.5 0,-.5"/>
<text text-anchor="middle" x="48.5737" y="-6.5" font-family="Helvetica,sans-Serif" font-size="10.00" fill="#000000">buttonIsNewPress</text>
</g>
<!-- Node16 -->
<g id="node2" class="node">
<title>Node16</title>
<g id="a_node2"><a xlink:href="routines_8c.html#a230cdcefb410a429fb6baba1f88fc9ba" target="_top" xlink:title="Task that manages routines. ">
<polygon fill="none" stroke="#000000" points="133.1475,-.5 133.1475,-18.5 203.625,-18.5 203.625,-.5 133.1475,-.5"/>
<text text-anchor="middle" x="168.3862" y="-6.5" font-family="Helvetica,sans-Serif" font-size="10.00" fill="#000000">routine_task</text>
</a>
</g>
</g>
<!-- Node15&#45;&gt;Node16 -->
<g id="edge1" class="edge">
<title>Node15&#45;&gt;Node16</title>
<path fill="none" stroke="#191970" d="M107.4654,-9.5C116.1683,-9.5 124.8998,-9.5 132.9248,-9.5"/>
<polygon fill="#191970" stroke="#191970" points="107.3061,-6.0001 97.3061,-9.5 107.306,-13.0001 107.3061,-6.0001"/>
</g>
<!-- Node17 -->
<g id="node3" class="node">
<title>Node17</title>
<g id="a_node3"><a xlink:href="routines_8c.html#ab873e24fcc59a2bf7844618b664a5d26" target="_top" xlink:title="Starts the routine system. ">
<polygon fill="none" stroke="#000000" points="239.625,-.5 239.625,-18.5 304.5459,-18.5 304.5459,-.5 239.625,-.5"/>
<text text-anchor="middle" x="272.0854" y="-6.5" font-family="Helvetica,sans-Serif" font-size="10.00" fill="#000000">init_routine</text>
</a>
</g>
</g>
<!-- Node16&#45;&gt;Node17 -->
<g id="edge2" class="edge">
<title>Node16&#45;&gt;Node17</title>
<path fill="none" stroke="#191970" d="M213.9952,-9.5C222.5112,-9.5 231.2551,-9.5 239.2899,-9.5"/>
<polygon fill="#191970" stroke="#191970" points="213.7836,-6.0001 203.7836,-9.5 213.7835,-13.0001 213.7836,-6.0001"/>
</g>
<!-- Node18 -->
<g id="node4" class="node">
<title>Node18</title>
<g id="a_node4"><a xlink:href="opcontrol_8c.html#ac71a94af413917f27d108e95c4d6f6a7" target="_top" xlink:title="Runs the user operator control code. ">
<polygon fill="none" stroke="#000000" points="340.5459,-.5 340.5459,-18.5 426.0283,-18.5 426.0283,-.5 340.5459,-.5"/>
<text text-anchor="middle" x="383.2871" y="-6.5" font-family="Helvetica,sans-Serif" font-size="10.00" fill="#000000">operatorControl</text>
</a>
</g>
</g>
<!-- Node17&#45;&gt;Node18 -->
<g id="edge3" class="edge">
<title>Node17&#45;&gt;Node18</title>
<path fill="none" stroke="#191970" d="M314.8223,-9.5C323.1531,-9.5 331.8917,-9.5 340.2327,-9.5"/>
<polygon fill="#191970" stroke="#191970" points="314.5485,-6.0001 304.5485,-9.5 314.5485,-13.0001 314.5485,-6.0001"/>
</g>
</g>
</svg>
