<?xml version="1.0" encoding="UTF-8" standalone="no"?>
<!DOCTYPE svg PUBLIC "-//W3C//DTD SVG 1.1//EN"
 "http://www.w3.org/Graphics/SVG/1.1/DTD/svg11.dtd">
<!-- Generated by graphviz version 2.40.1 (20161225.0304)
 -->
<!-- Title: include/toggle.h Pages: 1 -->
<svg width="344pt" height="82pt"
 viewBox="0.00 0.00 344.24 82.00" xmlns="http://www.w3.org/2000/svg" xmlns:xlink="http://www.w3.org/1999/xlink">
<g id="graph0" class="graph" transform="scale(1 1) rotate(0) translate(4 78)">
<title>include/toggle.h</title>
<!-- Node5 -->
<g id="node1" class="node">
<title>Node5</title>
<polygon fill="#bfbfbf" stroke="#000000" points="122.6455,-55.5 122.6455,-73.5 208.6992,-73.5 208.6992,-55.5 122.6455,-55.5"/>
<text text-anchor="middle" x="165.6724" y="-61.5" font-family="Helvetica,sans-Serif" font-size="10.00" fill="#000000">include/toggle.h</text>
</g>
<!-- Node6 -->
<g id="node2" class="node">
<title>Node6</title>
<g id="a_node2"><a xlink:href="claw_8c.html" target="_top" xlink:title="src/claw.c">
<polygon fill="none" stroke="#000000" points="0,-.5 0,-18.5 59.3447,-18.5 59.3447,-.5 0,-.5"/>
<text text-anchor="middle" x="29.6724" y="-6.5" font-family="Helvetica,sans-Serif" font-size="10.00" fill="#000000">src/claw.c</text>
</a>
</g>
</g>
<!-- Node5&#45;&gt;Node6 -->
<g id="edge1" class="edge">
<title>Node5&#45;&gt;Node6</title>
<path fill="none" stroke="#191970" d="M133.7693,-51.598C108.7029,-41.4609 74.421,-27.5969 52.1634,-18.5956"/>
<polygon fill="#191970" stroke="#191970" points="132.6319,-54.9134 143.2147,-55.4179 135.2563,-48.424 132.6319,-54.9134"/>
</g>
<!-- Node7 -->
<g id="node3" class="node">
<title>Node7</title>
<g id="a_node3"><a xlink:href="opcontrol_8c.html" target="_top" xlink:title="File for operator control code. ">
<polygon fill="none" stroke="#000000" points="77.1602,-.5 77.1602,-18.5 158.1846,-18.5 158.1846,-.5 77.1602,-.5"/>
<text text-anchor="middle" x="117.6724" y="-6.5" font-family="Helvetica,sans-Serif" font-size="10.00" fill="#000000">src/opcontrol.c</text>
</a>
</g>
</g>
<!-- Node5&#45;&gt;Node7 -->
<g id="edge2" class="edge">
<title>Node5&#45;&gt;Node7</title>
<path fill="none" stroke="#191970" d="M151.0326,-47.7253C142.7328,-38.215 132.6618,-26.6754 125.7708,-18.7795"/>
<polygon fill="#191970" stroke="#191970" points="148.5338,-50.185 157.7461,-55.4179 153.8078,-45.5822 148.5338,-50.185"/>
</g>
<!-- Node8 -->
<g id="node4" class="node">
<title>Node8</title>
<g id="a_node4"><a xlink:href="routines_8c.html" target="_top" xlink:title="src/routines.c">
<polygon fill="none" stroke="#000000" points="175.9409,-.5 175.9409,-18.5 251.4038,-18.5 251.4038,-.5 175.9409,-.5"/>
<text text-anchor="middle" x="213.6724" y="-6.5" font-family="Helvetica,sans-Serif" font-size="10.00" fill="#000000">src/routines.c</text>
</a>
</g>
</g>
<!-- Node5&#45;&gt;Node8 -->
<g id="edge3" class="edge">
<title>Node5&#45;&gt;Node8</title>
<path fill="none" stroke="#191970" d="M180.3121,-47.7253C188.612,-38.215 198.6829,-26.6754 205.5739,-18.7795"/>
<polygon fill="#191970" stroke="#191970" points="177.537,-45.5822 173.5986,-55.4179 182.811,-50.185 177.537,-45.5822"/>
</g>
<!-- Node9 -->
<g id="node5" class="node">
<title>Node9</title>
<g id="a_node5"><a xlink:href="toggle_8c.html" target="_top" xlink:title="src/toggle.c">
<polygon fill="none" stroke="#000000" points="269.106,-.5 269.106,-18.5 336.2388,-18.5 336.2388,-.5 269.106,-.5"/>
<text text-anchor="middle" x="302.6724" y="-6.5" font-family="Helvetica,sans-Serif" font-size="10.00" fill="#000000">src/toggle.c</text>
</a>
</g>
</g>
<!-- Node5&#45;&gt;Node9 -->
<g id="edge4" class="edge">
<title>Node5&#45;&gt;Node9</title>
<path fill="none" stroke="#191970" d="M197.81,-51.598C223.0608,-41.4609 257.5947,-27.5969 280.016,-18.5956"/>
<polygon fill="#191970" stroke="#191970" points="196.2712,-48.4442 188.2951,-55.4179 198.8792,-54.9403 196.2712,-48.4442"/>
</g>
</g>
</svg>
