<?xml version="1.0" encoding="UTF-8" standalone="no"?>
<!DOCTYPE svg PUBLIC "-//W3C//DTD SVG 1.1//EN"
 "http://www.w3.org/Graphics/SVG/1.1/DTD/svg11.dtd">
<!-- Generated by graphviz version 2.40.1 (20161225.0304)
 -->
<!-- Title: src/toggle.c Pages: 1 -->
<svg width="75pt" height="137pt"
 viewBox="0.00 0.00 75.13 137.00" xmlns="http://www.w3.org/2000/svg" xmlns:xlink="http://www.w3.org/1999/xlink">
<g id="graph0" class="graph" transform="scale(1 1) rotate(0) translate(4 133)">
<title>src/toggle.c</title>
<!-- Node0 -->
<g id="node1" class="node">
<title>Node0</title>
<polygon fill="#bfbfbf" stroke="#000000" points="0,-110.5 0,-128.5 67.1328,-128.5 67.1328,-110.5 0,-110.5"/>
<text text-anchor="middle" x="33.5664" y="-116.5" font-family="Helvetica,sans-Serif" font-size="10.00" fill="#000000">src/toggle.c</text>
</g>
<!-- Node1 -->
<g id="node2" class="node">
<title>Node1</title>
<g id="a_node2"><a xlink:href="toggle_8h.html" target="_top" xlink:title="toggle.h">
<polygon fill="none" stroke="#000000" points="7.7734,-55.5 7.7734,-73.5 59.3594,-73.5 59.3594,-55.5 7.7734,-55.5"/>
<text text-anchor="middle" x="33.5664" y="-61.5" font-family="Helvetica,sans-Serif" font-size="10.00" fill="#000000">toggle.h</text>
</a>
</g>
</g>
<!-- Node0&#45;&gt;Node1 -->
<g id="edge1" class="edge">
<title>Node0&#45;&gt;Node1</title>
<path fill="none" stroke="#191970" d="M33.5664,-110.4179C33.5664,-103.2164 33.5664,-92.8962 33.5664,-83.8632"/>
<polygon fill="#191970" stroke="#191970" points="37.0665,-83.7794 33.5664,-73.7795 30.0665,-83.7795 37.0665,-83.7794"/>
</g>
<!-- Node2 -->
<g id="node3" class="node">
<title>Node2</title>
<polygon fill="none" stroke="#bfbfbf" points="13.3374,-.5 13.3374,-18.5 53.7954,-18.5 53.7954,-.5 13.3374,-.5"/>
<text text-anchor="middle" x="33.5664" y="-6.5" font-family="Helvetica,sans-Serif" font-size="10.00" fill="#000000">API.h</text>
</g>
<!-- Node1&#45;&gt;Node2 -->
<g id="edge2" class="edge">
<title>Node1&#45;&gt;Node2</title>
<path fill="none" stroke="#191970" d="M33.5664,-55.4179C33.5664,-48.2164 33.5664,-37.8962 33.5664,-28.8632"/>
<polygon fill="#191970" stroke="#191970" points="37.0665,-28.7794 33.5664,-18.7795 30.0665,-28.7795 37.0665,-28.7794"/>
</g>
</g>
</svg>
