<?xml version="1.0" encoding="UTF-8" standalone="no"?>
<!DOCTYPE svg PUBLIC "-//W3C//DTD SVG 1.1//EN"
 "http://www.w3.org/Graphics/SVG/1.1/DTD/svg11.dtd">
<!-- Generated by graphviz version 2.40.1 (20161225.0304)
 -->
<!-- Title: buttonGetState Pages: 1 -->
<svg width="553pt" height="27pt"
 viewBox="0.00 0.00 553.30 27.00" xmlns="http://www.w3.org/2000/svg" xmlns:xlink="http://www.w3.org/1999/xlink">
<g id="graph0" class="graph" transform="scale(1 1) rotate(0) translate(4 23)">
<title>buttonGetState</title>
<!-- Node3 -->
<g id="node1" class="node">
<title>Node3</title>
<polygon fill="#bfbfbf" stroke="#000000" points="0,-.5 0,-18.5 83.2705,-18.5 83.2705,-.5 0,-.5"/>
<text text-anchor="middle" x="41.6353" y="-6.5" font-family="Helvetica,sans-Serif" font-size="10.00" fill="#000000">buttonGetState</text>
</g>
<!-- Node4 -->
<g id="node2" class="node">
<title>Node4</title>
<g id="a_node2"><a xlink:href="toggle_8c.html#a07c56bf50097f5bf35c5e8c9067800e1" target="_top" xlink:title="Detects if button is a new press from most recent check by comparing previous value to current value...">
<polygon fill="none" stroke="#000000" points="119.2705,-.5 119.2705,-18.5 216.418,-18.5 216.418,-.5 119.2705,-.5"/>
<text text-anchor="middle" x="167.8442" y="-6.5" font-family="Helvetica,sans-Serif" font-size="10.00" fill="#000000">buttonIsNewPress</text>
</a>
</g>
</g>
<!-- Node3&#45;&gt;Node4 -->
<g id="edge1" class="edge">
<title>Node3&#45;&gt;Node4</title>
<path fill="none" stroke="#191970" d="M93.4991,-9.5C102.0018,-9.5 110.7858,-9.5 119.2065,-9.5"/>
<polygon fill="#191970" stroke="#191970" points="93.3106,-6.0001 83.3106,-9.5 93.3105,-13.0001 93.3106,-6.0001"/>
</g>
<!-- Node5 -->
<g id="node3" class="node">
<title>Node5</title>
<g id="a_node3"><a xlink:href="routines_8c.html#a230cdcefb410a429fb6baba1f88fc9ba" target="_top" xlink:title="Task that manages routines. ">
<polygon fill="none" stroke="#000000" points="252.418,-.5 252.418,-18.5 322.8955,-18.5 322.8955,-.5 252.418,-.5"/>
<text text-anchor="middle" x="287.6567" y="-6.5" font-family="Helvetica,sans-Serif" font-size="10.00" fill="#000000">routine_task</text>
</a>
</g>
</g>
<!-- Node4&#45;&gt;Node5 -->
<g id="edge2" class="edge">
<title>Node4&#45;&gt;Node5</title>
<path fill="none" stroke="#191970" d="M226.7359,-9.5C235.4388,-9.5 244.1703,-9.5 252.1953,-9.5"/>
<polygon fill="#191970" stroke="#191970" points="226.5766,-6.0001 216.5766,-9.5 226.5765,-13.0001 226.5766,-6.0001"/>
</g>
<!-- Node6 -->
<g id="node4" class="node">
<title>Node6</title>
<g id="a_node4"><a xlink:href="routines_8c.html#ab873e24fcc59a2bf7844618b664a5d26" target="_top" xlink:title="Starts the routine system. ">
<polygon fill="none" stroke="#000000" points="358.8955,-.5 358.8955,-18.5 423.8164,-18.5 423.8164,-.5 358.8955,-.5"/>
<text text-anchor="middle" x="391.356" y="-6.5" font-family="Helvetica,sans-Serif" font-size="10.00" fill="#000000">init_routine</text>
</a>
</g>
</g>
<!-- Node5&#45;&gt;Node6 -->
<g id="edge3" class="edge">
<title>Node5&#45;&gt;Node6</title>
<path fill="none" stroke="#191970" d="M333.2657,-9.5C341.7818,-9.5 350.5256,-9.5 358.5605,-9.5"/>
<polygon fill="#191970" stroke="#191970" points="333.0541,-6.0001 323.0541,-9.5 333.0541,-13.0001 333.0541,-6.0001"/>
</g>
<!-- Node7 -->
<g id="node5" class="node">
<title>Node7</title>
<g id="a_node5"><a xlink:href="opcontrol_8c.html#ac71a94af413917f27d108e95c4d6f6a7" target="_top" xlink:title="Runs the user operator control code. ">
<polygon fill="none" stroke="#000000" points="459.8164,-.5 459.8164,-18.5 545.2988,-18.5 545.2988,-.5 459.8164,-.5"/>
<text text-anchor="middle" x="502.5576" y="-6.5" font-family="Helvetica,sans-Serif" font-size="10.00" fill="#000000">operatorControl</text>
</a>
</g>
</g>
<!-- Node6&#45;&gt;Node7 -->
<g id="edge4" class="edge">
<title>Node6&#45;&gt;Node7</title>
<path fill="none" stroke="#191970" d="M434.0928,-9.5C442.4236,-9.5 451.1622,-9.5 459.5032,-9.5"/>
<polygon fill="#191970" stroke="#191970" points="433.819,-6.0001 423.819,-9.5 433.819,-13.0001 433.819,-6.0001"/>
</g>
</g>
</svg>
