<?xml version="1.0" encoding="UTF-8" standalone="no"?>
<!DOCTYPE svg PUBLIC "-//W3C//DTD SVG 1.1//EN"
 "http://www.w3.org/Graphics/SVG/1.1/DTD/svg11.dtd">
<!-- Generated by graphviz version 2.40.1 (20161225.0304)
 -->
<!-- Title: calloc_real Pages: 1 -->
<svg width="250pt" height="27pt"
 viewBox="0.00 0.00 249.72 27.00" xmlns="http://www.w3.org/2000/svg" xmlns:xlink="http://www.w3.org/1999/xlink">
<g id="graph0" class="graph" transform="scale(1 1) rotate(0) translate(4 23)">
<title>calloc_real</title>
<!-- Node1 -->
<g id="node1" class="node">
<title>Node1</title>
<polygon fill="#bfbfbf" stroke="#000000" points="0,-.5 0,-18.5 63.8027,-18.5 63.8027,-.5 0,-.5"/>
<text text-anchor="middle" x="31.9014" y="-6.5" font-family="Helvetica,sans-Serif" font-size="10.00" fill="#000000">calloc_real</text>
</g>
<!-- Node2 -->
<g id="node2" class="node">
<title>Node2</title>
<g id="a_node2"><a xlink:href="slew_8c.html#a321758941d88b75783955c819bb75005" target="_top" xlink:title="Initializes the slew rate controller. ">
<polygon fill="none" stroke="#000000" points="99.8027,-.5 99.8027,-18.5 154.1523,-18.5 154.1523,-.5 99.8027,-.5"/>
<text text-anchor="middle" x="126.9775" y="-6.5" font-family="Helvetica,sans-Serif" font-size="10.00" fill="#000000">init_slew</text>
</a>
</g>
</g>
<!-- Node1&#45;&gt;Node2 -->
<g id="edge1" class="edge">
<title>Node1&#45;&gt;Node2</title>
<path fill="none" stroke="#191970" d="M73.9182,-9.5C82.6772,-9.5 91.6897,-9.5 99.7445,-9.5"/>
<polygon fill="#191970" stroke="#191970" points="73.8249,-6.0001 63.8248,-9.5 73.8248,-13.0001 73.8249,-6.0001"/>
</g>
<!-- Node3 -->
<g id="node3" class="node">
<title>Node3</title>
<g id="a_node3"><a xlink:href="init_8c.html#a25a40b6614565f755233080a384c35f1" target="_top" xlink:title="initialize">
<polygon fill="none" stroke="#000000" points="190.1523,-.5 190.1523,-18.5 241.7236,-18.5 241.7236,-.5 190.1523,-.5"/>
<text text-anchor="middle" x="215.938" y="-6.5" font-family="Helvetica,sans-Serif" font-size="10.00" fill="#000000">initialize</text>
</a>
</g>
</g>
<!-- Node2&#45;&gt;Node3 -->
<g id="edge2" class="edge">
<title>Node2&#45;&gt;Node3</title>
<path fill="none" stroke="#191970" d="M164.7972,-9.5C173.3338,-9.5 182.2054,-9.5 190.1155,-9.5"/>
<polygon fill="#191970" stroke="#191970" points="164.6376,-6.0001 154.6375,-9.5 164.6375,-13.0001 164.6376,-6.0001"/>
</g>
</g>
</svg>
