<?xml version="1.0" encoding="UTF-8" standalone="no"?>
<!DOCTYPE svg PUBLIC "-//W3C//DTD SVG 1.1//EN"
 "http://www.w3.org/Graphics/SVG/1.1/DTD/svg11.dtd">
<!-- Generated by graphviz version 2.40.1 (20161225.0304)
 -->
<!-- Title: include/vlib.h Pages: 1 -->
<!--zoomable 192 -->
<svg id="main" version="1.1" xmlns="http://www.w3.org/2000/svg" xmlns:xlink="http://www.w3.org/1999/xlink" xml:space="preserve" onload="init(evt)">
<style type="text/css"><![CDATA[
.edge:hover path { stroke: red; }
.edge:hover polygon { stroke: red; fill: red; }
]]></style>
<script type="text/javascript"><![CDATA[
var edges = document.getElementsByTagName('g');
if (edges && edges.length) {
  for (var i=0;i<edges.length;i++) {
    if (edges[i].id.substr(0,4)=='edge') {
      edges[i].setAttribute('class','edge');
    }
  }
}
]]></script>
        <defs>
                <circle id="rim" cx="0" cy="0" r="7"/>
                <circle id="rim2" cx="0" cy="0" r="3.5"/>
                <g id="zoomPlus">
                        <use xlink:href="#rim" fill="#404040">
                                <set attributeName="fill" to="#808080" begin="zoomplus.mouseover" end="zoomplus.mouseout"/>
                        </use>
                        <path d="M-4,0h8M0,-4v8" fill="none" stroke="white" stroke-width="1.5" pointer-events="none"/>
                </g>
                <g id="zoomMin">
                        <use xlink:href="#rim" fill="#404040">
                                <set attributeName="fill" to="#808080" begin="zoomminus.mouseover" end="zoomminus.mouseout"/>
                        </use>
                        <path d="M-4,0h8" fill="none" stroke="white" stroke-width="1.5" pointer-events="none"/>
                </g>
                <g id="dirArrow">
                        <path fill="none" stroke="white" stroke-width="1.5" d="M0,-3.0v7 M-2.5,-0.5L0,-3.0L2.5,-0.5"/>
                </g>
               <g id="resetDef">
                       <use xlink:href="#rim2" fill="#404040">
                               <set attributeName="fill" to="#808080" begin="reset.mouseover" end="reset.mouseout"/>
                       </use>
               </g>
        </defs>

<script type="text/javascript">
var viewWidth = 546;
var viewHeight = 192;
var sectionId = 'dynsection-1';
</script>
<script xlink:href="svgpan.js"/>
<svg id="graph" class="graph">
<g id="viewport">
<title>include/vlib.h</title>
<!-- Node8 -->
<g id="node1" class="node">
<title>Node8</title>
<polygon fill="#bfbfbf" stroke="#000000" points="386.7661,-165.5 386.7661,-183.5 460.5786,-183.5 460.5786,-165.5 386.7661,-165.5"/>
<text text-anchor="middle" x="423.6724" y="-171.5" font-family="Helvetica,sans-Serif" font-size="10.00" fill="#000000">include/vlib.h</text>
</g>
<!-- Node9 -->
<g id="node2" class="node">
<title>Node9</title>
<g id="a_node2"><a xlink:href="slew_8h.html" target="_top" xlink:title="Contains the slew rate controller wrapper for the motors. ">
<polygon fill="none" stroke="#000000" points="232.5396,-110.5 232.5396,-128.5 310.8052,-128.5 310.8052,-110.5 232.5396,-110.5"/>
<text text-anchor="middle" x="271.6724" y="-116.5" font-family="Helvetica,sans-Serif" font-size="10.00" fill="#000000">include/slew.h</text>
</a>
</g>
</g>
<!-- Node8&#45;&gt;Node9 -->
<g id="edge1" class="edge">
<title>Node8&#45;&gt;Node9</title>
<path fill="none" stroke="#191970" d="M389.0964,-161.989C360.8985,-151.7858 321.7457,-137.6186 296.5567,-128.5042"/>
<polygon fill="#191970" stroke="#191970" points="387.9784,-165.3064 398.5727,-165.4179 390.3602,-158.7241 387.9784,-165.3064"/>
</g>
<!-- Node18 -->
<g id="node11" class="node">
<title>Node18</title>
<g id="a_node11"><a xlink:href="menu_8h.html" target="_top" xlink:title="Contains menu functionality and abstraction. ">
<polygon fill="none" stroke="#000000" points="381.7612,-110.5 381.7612,-128.5 465.5835,-128.5 465.5835,-110.5 381.7612,-110.5"/>
<text text-anchor="middle" x="423.6724" y="-116.5" font-family="Helvetica,sans-Serif" font-size="10.00" fill="#000000">include/menu.h</text>
</a>
</g>
</g>
<!-- Node8&#45;&gt;Node18 -->
<g id="edge12" class="edge">
<title>Node8&#45;&gt;Node18</title>
<path fill="none" stroke="#191970" d="M423.6724,-155.383C423.6724,-146.3738 423.6724,-136.0373 423.6724,-128.7795"/>
<polygon fill="#191970" stroke="#191970" points="420.1725,-155.4178 423.6724,-165.4179 427.1725,-155.4179 420.1725,-155.4178"/>
</g>
<!-- Node20 -->
<g id="node13" class="node">
<title>Node20</title>
<g id="a_node13"><a xlink:href="vlib_8c.html" target="_top" xlink:title="src/vlib.c">
<polygon fill="none" stroke="#000000" points="483.2266,-110.5 483.2266,-128.5 538.1182,-128.5 538.1182,-110.5 483.2266,-110.5"/>
<text text-anchor="middle" x="510.6724" y="-116.5" font-family="Helvetica,sans-Serif" font-size="10.00" fill="#000000">src/vlib.c</text>
</a>
</g>
</g>
<!-- Node8&#45;&gt;Node20 -->
<g id="edge15" class="edge">
<title>Node8&#45;&gt;Node20</title>
<path fill="none" stroke="#191970" d="M446.683,-159.953C462.4233,-150.0023 482.8024,-137.1189 496.2847,-128.5956"/>
<polygon fill="#191970" stroke="#191970" points="444.621,-157.1158 438.0386,-165.4179 448.3615,-163.0326 444.621,-157.1158"/>
</g>
<!-- Node10 -->
<g id="node3" class="node">
<title>Node10</title>
<g id="a_node3"><a xlink:href="claw_8h.html" target="_top" xlink:title="include/claw.h">
<polygon fill="none" stroke="#000000" points="11.5396,-55.5 11.5396,-73.5 89.8052,-73.5 89.8052,-55.5 11.5396,-55.5"/>
<text text-anchor="middle" x="50.6724" y="-61.5" font-family="Helvetica,sans-Serif" font-size="10.00" fill="#000000">include/claw.h</text>
</a>
</g>
</g>
<!-- Node9&#45;&gt;Node10 -->
<g id="edge2" class="edge">
<title>Node9&#45;&gt;Node10</title>
<path fill="none" stroke="#191970" d="M225.3765,-107.9784C184.1531,-97.7192 124.6758,-82.9172 86.8529,-73.5042"/>
<polygon fill="#191970" stroke="#191970" points="224.6294,-111.3992 235.1787,-110.4179 226.32,-104.6064 224.6294,-111.3992"/>
</g>
<!-- Node12 -->
<g id="node5" class="node">
<title>Node12</title>
<g id="a_node5"><a xlink:href="opcontrol_8c.html" target="_top" xlink:title="File for operator control code. ">
<polygon fill="none" stroke="#000000" points="77.1602,-.5 77.1602,-18.5 158.1846,-18.5 158.1846,-.5 77.1602,-.5"/>
<text text-anchor="middle" x="117.6724" y="-6.5" font-family="Helvetica,sans-Serif" font-size="10.00" fill="#000000">src/opcontrol.c</text>
</a>
</g>
</g>
<!-- Node9&#45;&gt;Node12 -->
<g id="edge10" class="edge">
<title>Node9&#45;&gt;Node12</title>
<path fill="none" stroke="#191970" d="M222.3242,-107.9641C188.955,-99.2392 148.8327,-86.6391 136.6724,-74 121.9419,-58.6896 118.5531,-32.5483 117.8248,-18.7147"/>
<polygon fill="#191970" stroke="#191970" points="221.8698,-111.4603 232.4249,-110.5431 223.6017,-104.6779 221.8698,-111.4603"/>
</g>
<!-- Node13 -->
<g id="node6" class="node">
<title>Node13</title>
<g id="a_node6"><a xlink:href="lifter_8h.html" target="_top" xlink:title="include/lifter.h">
<polygon fill="none" stroke="#000000" points="146.0962,-55.5 146.0962,-73.5 223.2485,-73.5 223.2485,-55.5 146.0962,-55.5"/>
<text text-anchor="middle" x="184.6724" y="-61.5" font-family="Helvetica,sans-Serif" font-size="10.00" fill="#000000">include/lifter.h</text>
</a>
</g>
</g>
<!-- Node9&#45;&gt;Node13 -->
<g id="edge5" class="edge">
<title>Node9&#45;&gt;Node13</title>
<path fill="none" stroke="#191970" d="M248.6617,-104.953C232.9214,-95.0023 212.5423,-82.1189 199.06,-73.5956"/>
<polygon fill="#191970" stroke="#191970" points="246.9832,-108.0326 257.3061,-110.4179 250.7238,-102.1158 246.9832,-108.0326"/>
</g>
<!-- Node15 -->
<g id="node8" class="node">
<title>Node15</title>
<g id="a_node8"><a xlink:href="drive_8c.html" target="_top" xlink:title="src/drive.c">
<polygon fill="none" stroke="#000000" points="240.8916,-55.5 240.8916,-73.5 302.4531,-73.5 302.4531,-55.5 240.8916,-55.5"/>
<text text-anchor="middle" x="271.6724" y="-61.5" font-family="Helvetica,sans-Serif" font-size="10.00" fill="#000000">src/drive.c</text>
</a>
</g>
</g>
<!-- Node9&#45;&gt;Node15 -->
<g id="edge8" class="edge">
<title>Node9&#45;&gt;Node15</title>
<path fill="none" stroke="#191970" d="M271.6724,-100.383C271.6724,-91.3738 271.6724,-81.0373 271.6724,-73.7795"/>
<polygon fill="#191970" stroke="#191970" points="268.1725,-100.4178 271.6724,-110.4179 275.1725,-100.4179 268.1725,-100.4178"/>
</g>
<!-- Node16 -->
<g id="node9" class="node">
<title>Node16</title>
<g id="a_node9"><a xlink:href="init_8c.html" target="_top" xlink:title="File for initialization code. ">
<polygon fill="none" stroke="#000000" points="397.3374,-55.5 397.3374,-73.5 450.0073,-73.5 450.0073,-55.5 397.3374,-55.5"/>
<text text-anchor="middle" x="423.6724" y="-61.5" font-family="Helvetica,sans-Serif" font-size="10.00" fill="#000000">src/init.c</text>
</a>
</g>
</g>
<!-- Node9&#45;&gt;Node16 -->
<g id="edge9" class="edge">
<title>Node9&#45;&gt;Node16</title>
<path fill="none" stroke="#191970" d="M306.2483,-106.989C334.4462,-96.7858 373.599,-82.6186 398.788,-73.5042"/>
<polygon fill="#191970" stroke="#191970" points="304.9845,-103.7241 296.7721,-110.4179 307.3663,-110.3064 304.9845,-103.7241"/>
</g>
<!-- Node17 -->
<g id="node10" class="node">
<title>Node17</title>
<g id="a_node10"><a xlink:href="slew_8c.html" target="_top" xlink:title="src/slew.c">
<polygon fill="none" stroke="#000000" points="320,-55.5 320,-73.5 379.3447,-73.5 379.3447,-55.5 320,-55.5"/>
<text text-anchor="middle" x="349.6724" y="-61.5" font-family="Helvetica,sans-Serif" font-size="10.00" fill="#000000">src/slew.c</text>
</a>
</g>
</g>
<!-- Node9&#45;&gt;Node17 -->
<g id="edge11" class="edge">
<title>Node9&#45;&gt;Node17</title>
<path fill="none" stroke="#191970" d="M293.0982,-104.392C307.0954,-94.5222 324.9114,-81.9596 336.7731,-73.5956"/>
<polygon fill="#191970" stroke="#191970" points="290.7081,-101.7947 284.5525,-110.4179 294.742,-107.5155 290.7081,-101.7947"/>
</g>
<!-- Node11 -->
<g id="node4" class="node">
<title>Node11</title>
<g id="a_node4"><a xlink:href="claw_8c.html" target="_top" xlink:title="src/claw.c">
<polygon fill="none" stroke="#000000" points="0,-.5 0,-18.5 59.3447,-18.5 59.3447,-.5 0,-.5"/>
<text text-anchor="middle" x="29.6724" y="-6.5" font-family="Helvetica,sans-Serif" font-size="10.00" fill="#000000">src/claw.c</text>
</a>
</g>
</g>
<!-- Node10&#45;&gt;Node11 -->
<g id="edge3" class="edge">
<title>Node10&#45;&gt;Node11</title>
<path fill="none" stroke="#191970" d="M43.5992,-45.9751C40.1073,-36.8297 36.0475,-26.1969 33.2154,-18.7795"/>
<polygon fill="#191970" stroke="#191970" points="40.3678,-47.3242 47.2046,-55.4179 46.9073,-44.8272 40.3678,-47.3242"/>
</g>
<!-- Node10&#45;&gt;Node12 -->
<g id="edge4" class="edge">
<title>Node10&#45;&gt;Node12</title>
<path fill="none" stroke="#191970" d="M69.7153,-48.8678C81.549,-39.1535 96.361,-26.9944 106.3683,-18.7795"/>
<polygon fill="#191970" stroke="#191970" points="67.2446,-46.3676 61.7361,-55.4179 71.6861,-51.7782 67.2446,-46.3676"/>
</g>
<!-- Node13&#45;&gt;Node12 -->
<g id="edge7" class="edge">
<title>Node13&#45;&gt;Node12</title>
<path fill="none" stroke="#191970" d="M165.6295,-48.8678C153.7957,-39.1535 138.9838,-26.9944 128.9764,-18.7795"/>
<polygon fill="#191970" stroke="#191970" points="163.6586,-51.7782 173.6087,-55.4179 168.1001,-46.3676 163.6586,-51.7782"/>
</g>
<!-- Node14 -->
<g id="node7" class="node">
<title>Node14</title>
<g id="a_node7"><a xlink:href="lifter_8c.html" target="_top" xlink:title="src/lifter.c">
<polygon fill="none" stroke="#000000" points="176.5566,-.5 176.5566,-18.5 234.7881,-18.5 234.7881,-.5 176.5566,-.5"/>
<text text-anchor="middle" x="205.6724" y="-6.5" font-family="Helvetica,sans-Serif" font-size="10.00" fill="#000000">src/lifter.c</text>
</a>
</g>
</g>
<!-- Node13&#45;&gt;Node14 -->
<g id="edge6" class="edge">
<title>Node13&#45;&gt;Node14</title>
<path fill="none" stroke="#191970" d="M191.7455,-45.9751C195.2374,-36.8297 199.2972,-26.1969 202.1293,-18.7795"/>
<polygon fill="#191970" stroke="#191970" points="188.4374,-44.8272 188.1401,-55.4179 194.9769,-47.3242 188.4374,-44.8272"/>
</g>
<!-- Node18&#45;&gt;Node16 -->
<g id="edge13" class="edge">
<title>Node18&#45;&gt;Node16</title>
<path fill="none" stroke="#191970" d="M423.6724,-100.383C423.6724,-91.3738 423.6724,-81.0373 423.6724,-73.7795"/>
<polygon fill="#191970" stroke="#191970" points="420.1725,-100.4178 423.6724,-110.4179 427.1725,-100.4179 420.1725,-100.4178"/>
</g>
<!-- Node19 -->
<g id="node12" class="node">
<title>Node19</title>
<g id="a_node12"><a xlink:href="menu_8c.html" target="_top" xlink:title="src/menu.c">
<polygon fill="none" stroke="#000000" points="468.2217,-55.5 468.2217,-73.5 533.123,-73.5 533.123,-55.5 468.2217,-55.5"/>
<text text-anchor="middle" x="500.6724" y="-61.5" font-family="Helvetica,sans-Serif" font-size="10.00" fill="#000000">src/menu.c</text>
</a>
</g>
</g>
<!-- Node18&#45;&gt;Node19 -->
<g id="edge14" class="edge">
<title>Node18&#45;&gt;Node19</title>
<path fill="none" stroke="#191970" d="M444.8235,-104.392C458.6413,-94.5222 476.2289,-81.9596 487.9385,-73.5956"/>
<polygon fill="#191970" stroke="#191970" points="442.4904,-101.7574 436.3873,-110.4179 446.559,-107.4535 442.4904,-101.7574"/>
</g>
</g>
</svg>
        <g id="navigator" transform="translate(0 0)" fill="#404254">
                <rect fill="#f2f5e9" fill-opacity="0.5" stroke="#606060" stroke-width=".5" x="0" y="0" width="60" height="60"/>
                <use id="zoomplus" xlink:href="#zoomPlus" x="17" y="9" onmousedown="handleZoom(evt,'in')"/>
                <use id="zoomminus" xlink:href="#zoomMin" x="42" y="9" onmousedown="handleZoom(evt,'out')"/>
                <use id="reset" xlink:href="#resetDef" x="30" y="36" onmousedown="handleReset()"/>
                <g id="arrowUp" xlink:href="#dirArrow" transform="translate(30 24)" onmousedown="handlePan(0,-1)">
                  <use xlink:href="#rim" fill="#404040">
                        <set attributeName="fill" to="#808080" begin="arrowUp.mouseover" end="arrowUp.mouseout"/>
                  </use>
                  <path fill="none" stroke="white" stroke-width="1.5" d="M0,-3.0v7 M-2.5,-0.5L0,-3.0L2.5,-0.5"/>
                </g>
                <g id="arrowRight" xlink:href="#dirArrow" transform="rotate(90) translate(36 -43)" onmousedown="handlePan(1,0)">
                  <use xlink:href="#rim" fill="#404040">
                        <set attributeName="fill" to="#808080" begin="arrowRight.mouseover" end="arrowRight.mouseout"/>
                  </use>
                  <path fill="none" stroke="white" stroke-width="1.5" d="M0,-3.0v7 M-2.5,-0.5L0,-3.0L2.5,-0.5"/>
                </g>
                <g id="arrowDown" xlink:href="#dirArrow" transform="rotate(180) translate(-30 -48)" onmousedown="handlePan(0,1)">
                  <use xlink:href="#rim" fill="#404040">
                        <set attributeName="fill" to="#808080" begin="arrowDown.mouseover" end="arrowDown.mouseout"/>
                  </use>
                  <path fill="none" stroke="white" stroke-width="1.5" d="M0,-3.0v7 M-2.5,-0.5L0,-3.0L2.5,-0.5"/>
                </g>
                <g id="arrowLeft" xlink:href="#dirArrow" transform="rotate(270) translate(-36 17)" onmousedown="handlePan(-1,0)">
                  <use xlink:href="#rim" fill="#404040">
                        <set attributeName="fill" to="#808080" begin="arrowLeft.mouseover" end="arrowLeft.mouseout"/>
                  </use>
                  <path fill="none" stroke="white" stroke-width="1.5" d="M0,-3.0v7 M-2.5,-0.5L0,-3.0L2.5,-0.5"/>
                </g>
        </g>
        <svg viewBox="0 0 15 15" width="100%" height="30px" preserveAspectRatio="xMaxYMin meet">
         <g id="arrow_out" transform="scale(0.3 0.3)">
          <a xlink:href="vlib_8h__dep__incl_org.svg" target="_base">
           <rect id="button" ry="5" rx="5" y="6" x="6" height="38" width="38"
                fill="#f2f5e9" fill-opacity="0.5" stroke="#606060" stroke-width="1.0"/>
           <path id="arrow"
             d="M 11.500037,31.436501 C 11.940474,20.09759 22.043105,11.32322 32.158766,21.979434 L 37.068811,17.246167 C 37.068811,17.246167 37.088388,32 37.088388,32 L 22.160133,31.978069 C 22.160133,31.978069 26.997745,27.140456 26.997745,27.140456 C 18.528582,18.264221 13.291696,25.230495 11.500037,31.436501 z"
             style="fill:#404040;"/>
          </a>
         </g>
        </svg>
</svg>
