<?xml version="1.0" encoding="UTF-8" standalone="no"?>
<!DOCTYPE svg PUBLIC "-//W3C//DTD SVG 1.1//EN"
 "http://www.w3.org/Graphics/SVG/1.1/DTD/svg11.dtd">
<!-- Generated by graphviz version 2.40.1 (20161225.0304)
 -->
<!-- Title: include/vlib.h Pages: 1 -->
<svg width="320pt" height="137pt"
 viewBox="0.00 0.00 320.12 137.00" xmlns="http://www.w3.org/2000/svg" xmlns:xlink="http://www.w3.org/1999/xlink">
<g id="graph0" class="graph" transform="scale(1 1) rotate(0) translate(4 133)">
<title>include/vlib.h</title>
<!-- Node8 -->
<g id="node1" class="node">
<title>Node8</title>
<polygon fill="#bfbfbf" stroke="#000000" points="157.5444,-110.5 157.5444,-128.5 231.3569,-128.5 231.3569,-110.5 157.5444,-110.5"/>
<text text-anchor="middle" x="194.4507" y="-116.5" font-family="Helvetica,sans-Serif" font-size="10.00" fill="#000000">include/vlib.h</text>
</g>
<!-- Node9 -->
<g id="node2" class="node">
<title>Node9</title>
<g id="a_node2"><a xlink:href="menu_8h.html" target="_top" xlink:title="Contains menu functionality and abstraction. ">
<polygon fill="none" stroke="#000000" points="53.5396,-55.5 53.5396,-73.5 137.3618,-73.5 137.3618,-55.5 53.5396,-55.5"/>
<text text-anchor="middle" x="95.4507" y="-61.5" font-family="Helvetica,sans-Serif" font-size="10.00" fill="#000000">include/menu.h</text>
</a>
</g>
</g>
<!-- Node8&#45;&gt;Node9 -->
<g id="edge1" class="edge">
<title>Node8&#45;&gt;Node9</title>
<path fill="none" stroke="#191970" d="M169.2649,-105.5079C151.2245,-95.4854 127.4516,-82.2783 111.8228,-73.5956"/>
<polygon fill="#191970" stroke="#191970" points="167.6615,-108.6209 178.1028,-110.4179 171.061,-102.5018 167.6615,-108.6209"/>
</g>
<!-- Node12 -->
<g id="node5" class="node">
<title>Node12</title>
<g id="a_node5"><a xlink:href="slew_8h.html" target="_top" xlink:title="Contains the slew rate controller wrapper for the motors. ">
<polygon fill="none" stroke="#000000" points="155.3179,-55.5 155.3179,-73.5 233.5835,-73.5 233.5835,-55.5 155.3179,-55.5"/>
<text text-anchor="middle" x="194.4507" y="-61.5" font-family="Helvetica,sans-Serif" font-size="10.00" fill="#000000">include/slew.h</text>
</a>
</g>
</g>
<!-- Node8&#45;&gt;Node12 -->
<g id="edge4" class="edge">
<title>Node8&#45;&gt;Node12</title>
<path fill="none" stroke="#191970" d="M194.4507,-100.383C194.4507,-91.3738 194.4507,-81.0373 194.4507,-73.7795"/>
<polygon fill="#191970" stroke="#191970" points="190.9508,-100.4178 194.4507,-110.4179 197.9508,-100.4179 190.9508,-100.4178"/>
</g>
<!-- Node15 -->
<g id="node8" class="node">
<title>Node15</title>
<g id="a_node8"><a xlink:href="vlib_8c.html" target="_top" xlink:title="src/vlib.c">
<polygon fill="none" stroke="#000000" points="252.0049,-55.5 252.0049,-73.5 306.8965,-73.5 306.8965,-55.5 252.0049,-55.5"/>
<text text-anchor="middle" x="279.4507" y="-61.5" font-family="Helvetica,sans-Serif" font-size="10.00" fill="#000000">src/vlib.c</text>
</a>
</g>
</g>
<!-- Node8&#45;&gt;Node15 -->
<g id="edge8" class="edge">
<title>Node8&#45;&gt;Node15</title>
<path fill="none" stroke="#191970" d="M216.9324,-104.953C232.3108,-95.0023 252.2214,-82.1189 265.3938,-73.5956"/>
<polygon fill="#191970" stroke="#191970" points="214.981,-102.0468 208.4867,-110.4179 218.7838,-107.9238 214.981,-102.0468"/>
</g>
<!-- Node10 -->
<g id="node3" class="node">
<title>Node10</title>
<g id="a_node3"><a xlink:href="init_8c.html" target="_top" xlink:title="File for initialization code. ">
<polygon fill="none" stroke="#000000" points="83.1157,-.5 83.1157,-18.5 135.7856,-18.5 135.7856,-.5 83.1157,-.5"/>
<text text-anchor="middle" x="109.4507" y="-6.5" font-family="Helvetica,sans-Serif" font-size="10.00" fill="#000000">src/init.c</text>
</a>
</g>
</g>
<!-- Node9&#45;&gt;Node10 -->
<g id="edge2" class="edge">
<title>Node9&#45;&gt;Node10</title>
<path fill="none" stroke="#191970" d="M100.2413,-45.6796C102.5522,-36.6014 105.2209,-26.1171 107.0886,-18.7795"/>
<polygon fill="#191970" stroke="#191970" points="96.8375,-44.8635 97.7625,-55.4179 103.6212,-46.5903 96.8375,-44.8635"/>
</g>
<!-- Node11 -->
<g id="node4" class="node">
<title>Node11</title>
<g id="a_node4"><a xlink:href="menu_8c.html" target="_top" xlink:title="src/menu.c">
<polygon fill="none" stroke="#000000" points="0,-.5 0,-18.5 64.9014,-18.5 64.9014,-.5 0,-.5"/>
<text text-anchor="middle" x="32.4507" y="-6.5" font-family="Helvetica,sans-Serif" font-size="10.00" fill="#000000">src/menu.c</text>
</a>
</g>
</g>
<!-- Node9&#45;&gt;Node11 -->
<g id="edge3" class="edge">
<title>Node9&#45;&gt;Node11</title>
<path fill="none" stroke="#191970" d="M77.2198,-48.5841C66.1474,-38.9177 52.3984,-26.9147 43.0799,-18.7795"/>
<polygon fill="#191970" stroke="#191970" points="75.2125,-51.4779 85.0475,-55.4179 79.8161,-46.2046 75.2125,-51.4779"/>
</g>
<!-- Node12&#45;&gt;Node10 -->
<g id="edge5" class="edge">
<title>Node12&#45;&gt;Node10</title>
<path fill="none" stroke="#191970" d="M171.969,-49.953C156.5906,-40.0023 136.68,-27.1189 123.5076,-18.5956"/>
<polygon fill="#191970" stroke="#191970" points="170.1175,-52.9238 180.4147,-55.4179 173.9203,-47.0468 170.1175,-52.9238"/>
</g>
<!-- Node13 -->
<g id="node6" class="node">
<title>Node13</title>
<g id="a_node6"><a xlink:href="opcontrol_8c.html" target="_top" xlink:title="File for operator control code. ">
<polygon fill="none" stroke="#000000" points="153.9385,-.5 153.9385,-18.5 234.9629,-18.5 234.9629,-.5 153.9385,-.5"/>
<text text-anchor="middle" x="194.4507" y="-6.5" font-family="Helvetica,sans-Serif" font-size="10.00" fill="#000000">src/opcontrol.c</text>
</a>
</g>
</g>
<!-- Node12&#45;&gt;Node13 -->
<g id="edge6" class="edge">
<title>Node12&#45;&gt;Node13</title>
<path fill="none" stroke="#191970" d="M194.4507,-45.383C194.4507,-36.3738 194.4507,-26.0373 194.4507,-18.7795"/>
<polygon fill="#191970" stroke="#191970" points="190.9508,-45.4178 194.4507,-55.4179 197.9508,-45.4179 190.9508,-45.4178"/>
</g>
<!-- Node14 -->
<g id="node7" class="node">
<title>Node14</title>
<g id="a_node7"><a xlink:href="slew_8c.html" target="_top" xlink:title="src/slew.c">
<polygon fill="none" stroke="#000000" points="252.7783,-.5 252.7783,-18.5 312.123,-18.5 312.123,-.5 252.7783,-.5"/>
<text text-anchor="middle" x="282.4507" y="-6.5" font-family="Helvetica,sans-Serif" font-size="10.00" fill="#000000">src/slew.c</text>
</a>
</g>
</g>
<!-- Node12&#45;&gt;Node14 -->
<g id="edge7" class="edge">
<title>Node12&#45;&gt;Node14</title>
<path fill="none" stroke="#191970" d="M217.7258,-49.953C233.647,-40.0023 254.2604,-27.1189 267.8977,-18.5956"/>
<polygon fill="#191970" stroke="#191970" points="215.6071,-47.1498 208.9821,-55.4179 219.3171,-53.0858 215.6071,-47.1498"/>
</g>
</g>
</svg>
