<?xml version="1.0" encoding="UTF-8" standalone="no"?>
<!DOCTYPE svg PUBLIC "-//W3C//DTD SVG 1.1//EN"
 "http://www.w3.org/Graphics/SVG/1.1/DTD/svg11.dtd">
<!-- Generated by graphviz version 2.40.1 (20161225.0304)
 -->
<!-- Title: include/vlib.h Pages: 1 -->
<svg width="716pt" height="257pt"
 viewBox="0.00 0.00 716.48 257.00" xmlns="http://www.w3.org/2000/svg" xmlns:xlink="http://www.w3.org/1999/xlink">
<g id="graph0" class="graph" transform="scale(1 1) rotate(0) translate(4 253)">
<title>include/vlib.h</title>
<!-- Node4 -->
<g id="node1" class="node">
<title>Node4</title>
<polygon fill="#bfbfbf" stroke="#000000" points="557.123,-230.5 557.123,-248.5 630.9355,-248.5 630.9355,-230.5 557.123,-230.5"/>
<text text-anchor="middle" x="594.0293" y="-236.5" font-family="Helvetica,sans-Serif" font-size="10.00" fill="#000000">include/vlib.h</text>
</g>
<!-- Node5 -->
<g id="node2" class="node">
<title>Node5</title>
<g id="a_node2"><a xlink:href="slew_8h.html" target="_top" xlink:title="Contains the slew rate controller wrapper for the motors. ">
<polygon fill="none" stroke="#000000" points="337.8965,-175.5 337.8965,-193.5 416.1621,-193.5 416.1621,-175.5 337.8965,-175.5"/>
<text text-anchor="middle" x="377.0293" y="-181.5" font-family="Helvetica,sans-Serif" font-size="10.00" fill="#000000">include/slew.h</text>
</a>
</g>
</g>
<!-- Node4&#45;&gt;Node5 -->
<g id="edge1" class="edge">
<title>Node4&#45;&gt;Node5</title>
<path fill="none" stroke="#191970" d="M548.3144,-227.9133C507.8472,-217.6566 449.6148,-202.8973 412.555,-193.5042"/>
<polygon fill="#191970" stroke="#191970" points="547.6427,-231.3536 558.1962,-230.4179 549.3626,-224.5682 547.6427,-231.3536"/>
</g>
<!-- Node18 -->
<g id="node15" class="node">
<title>Node18</title>
<g id="a_node15"><a xlink:href="menu_8h.html" target="_top" xlink:title="Contains menu functionality and abstraction. ">
<polygon fill="none" stroke="#000000" points="552.1182,-175.5 552.1182,-193.5 635.9404,-193.5 635.9404,-175.5 552.1182,-175.5"/>
<text text-anchor="middle" x="594.0293" y="-181.5" font-family="Helvetica,sans-Serif" font-size="10.00" fill="#000000">include/menu.h</text>
</a>
</g>
</g>
<!-- Node4&#45;&gt;Node18 -->
<g id="edge20" class="edge">
<title>Node4&#45;&gt;Node18</title>
<path fill="none" stroke="#191970" d="M594.0293,-220.383C594.0293,-211.3738 594.0293,-201.0373 594.0293,-193.7795"/>
<polygon fill="#191970" stroke="#191970" points="590.5294,-220.4178 594.0293,-230.4179 597.5294,-220.4179 590.5294,-220.4178"/>
</g>
<!-- Node20 -->
<g id="node17" class="node">
<title>Node20</title>
<g id="a_node17"><a xlink:href="vlib_8c.html" target="_top" xlink:title="src/vlib.c">
<polygon fill="none" stroke="#000000" points="653.5835,-175.5 653.5835,-193.5 708.4751,-193.5 708.4751,-175.5 653.5835,-175.5"/>
<text text-anchor="middle" x="681.0293" y="-181.5" font-family="Helvetica,sans-Serif" font-size="10.00" fill="#000000">src/vlib.c</text>
</a>
</g>
</g>
<!-- Node4&#45;&gt;Node20 -->
<g id="edge23" class="edge">
<title>Node4&#45;&gt;Node20</title>
<path fill="none" stroke="#191970" d="M617.04,-224.953C632.7802,-215.0023 653.1593,-202.1189 666.6417,-193.5956"/>
<polygon fill="#191970" stroke="#191970" points="614.9779,-222.1158 608.3956,-230.4179 618.7184,-228.0326 614.9779,-222.1158"/>
</g>
<!-- Node6 -->
<g id="node3" class="node">
<title>Node6</title>
<g id="a_node3"><a xlink:href="claw_8h.html" target="_top" xlink:title="Code for controlling the claw that grabs the cones. ">
<polygon fill="none" stroke="#000000" points="236.8965,-115.5 236.8965,-133.5 315.1621,-133.5 315.1621,-115.5 236.8965,-115.5"/>
<text text-anchor="middle" x="276.0293" y="-121.5" font-family="Helvetica,sans-Serif" font-size="10.00" fill="#000000">include/claw.h</text>
</a>
</g>
</g>
<!-- Node5&#45;&gt;Node6 -->
<g id="edge2" class="edge">
<title>Node5&#45;&gt;Node6</title>
<path fill="none" stroke="#191970" d="M352.9189,-170.177C333.7464,-158.7874 307.5163,-143.2051 291.1825,-133.5019"/>
<polygon fill="#191970" stroke="#191970" points="351.3046,-173.289 361.6896,-175.3873 354.8798,-167.2708 351.3046,-173.289"/>
</g>
<!-- Node10 -->
<g id="node7" class="node">
<title>Node10</title>
<g id="a_node7"><a xlink:href="opcontrol_8c.html" target="_top" xlink:title="File for operator control code. ">
<polygon fill="none" stroke="#000000" points="318.5171,-55.5 318.5171,-73.5 399.5415,-73.5 399.5415,-55.5 318.5171,-55.5"/>
<text text-anchor="middle" x="359.0293" y="-61.5" font-family="Helvetica,sans-Serif" font-size="10.00" fill="#000000">src/opcontrol.c</text>
</a>
</g>
</g>
<!-- Node5&#45;&gt;Node10 -->
<g id="edge18" class="edge">
<title>Node5&#45;&gt;Node10</title>
<path fill="none" stroke="#191970" d="M369.5392,-165.7361C366.6527,-157.6445 363.6593,-147.991 362.0293,-139 357.8266,-115.8189 358.0833,-87.9437 358.5829,-73.7653"/>
<polygon fill="#191970" stroke="#191970" points="366.3392,-167.1695 373.1484,-175.2865 372.8872,-164.6948 366.3392,-167.1695"/>
</g>
<!-- Node11 -->
<g id="node8" class="node">
<title>Node11</title>
<g id="a_node8"><a xlink:href="lifter_8h.html" target="_top" xlink:title="Declarations and macros for controlling and manipulating the lifter. ">
<polygon fill="none" stroke="#000000" points="371.4531,-115.5 371.4531,-133.5 448.6055,-133.5 448.6055,-115.5 371.4531,-115.5"/>
<text text-anchor="middle" x="410.0293" y="-121.5" font-family="Helvetica,sans-Serif" font-size="10.00" fill="#000000">include/lifter.h</text>
</a>
</g>
</g>
<!-- Node5&#45;&gt;Node11 -->
<g id="edge7" class="edge">
<title>Node5&#45;&gt;Node11</title>
<path fill="none" stroke="#191970" d="M387.0006,-166.3704C392.9317,-155.5866 400.2047,-142.3629 404.9701,-133.6985"/>
<polygon fill="#191970" stroke="#191970" points="383.7938,-164.9384 382.0413,-175.3873 389.9273,-168.3119 383.7938,-164.9384"/>
</g>
<!-- Node12 -->
<g id="node9" class="node">
<title>Node12</title>
<g id="a_node9"><a xlink:href="init_8c.html" target="_top" xlink:title="File for initialization code. ">
<polygon fill="none" stroke="#000000" points="529.6943,-55.5 529.6943,-73.5 582.3643,-73.5 582.3643,-55.5 529.6943,-55.5"/>
<text text-anchor="middle" x="556.0293" y="-61.5" font-family="Helvetica,sans-Serif" font-size="10.00" fill="#000000">src/init.c</text>
</a>
</g>
</g>
<!-- Node5&#45;&gt;Node12 -->
<g id="edge17" class="edge">
<title>Node5&#45;&gt;Node12</title>
<path fill="none" stroke="#191970" d="M426.1216,-176.0758C467.2291,-168.0548 521.5868,-154.8707 537.0293,-139 554.5293,-121.0147 556.573,-89.2669 556.424,-73.67"/>
<polygon fill="#191970" stroke="#191970" points="425.4226,-172.6459 416.2529,-177.9531 426.7308,-179.5226 425.4226,-172.6459"/>
</g>
<!-- Node14 -->
<g id="node11" class="node">
<title>Node14</title>
<g id="a_node11"><a xlink:href="mobile__goal__intake_8h.html" target="_top" xlink:title="include/mobile_goal\l_intake.h">
<polygon fill="none" stroke="#000000" points="114.8325,-110.5 114.8325,-138.5 219.2261,-138.5 219.2261,-110.5 114.8325,-110.5"/>
<text text-anchor="start" x="122.8325" y="-126.5" font-family="Helvetica,sans-Serif" font-size="10.00" fill="#000000">include/mobile_goal</text>
<text text-anchor="middle" x="167.0293" y="-116.5" font-family="Helvetica,sans-Serif" font-size="10.00" fill="#000000">_intake.h</text>
</a>
</g>
</g>
<!-- Node5&#45;&gt;Node14 -->
<g id="edge12" class="edge">
<title>Node5&#45;&gt;Node14</title>
<path fill="none" stroke="#191970" d="M335.4134,-172.6097C301.0712,-162.7977 252.2731,-148.8554 216.0434,-138.504"/>
<polygon fill="#191970" stroke="#191970" points="334.558,-176.0053 345.1348,-175.3873 336.4811,-169.2747 334.558,-176.0053"/>
</g>
<!-- Node16 -->
<g id="node13" class="node">
<title>Node16</title>
<g id="a_node13"><a xlink:href="drive_8c.html" target="_top" xlink:title="src/drive.c">
<polygon fill="none" stroke="#000000" points="466.2485,-115.5 466.2485,-133.5 527.8101,-133.5 527.8101,-115.5 466.2485,-115.5"/>
<text text-anchor="middle" x="497.0293" y="-121.5" font-family="Helvetica,sans-Serif" font-size="10.00" fill="#000000">src/drive.c</text>
</a>
</g>
</g>
<!-- Node5&#45;&gt;Node16 -->
<g id="edge16" class="edge">
<title>Node5&#45;&gt;Node16</title>
<path fill="none" stroke="#191970" d="M404.4413,-170.794C427.3174,-159.3559 459.2662,-143.3815 479.0255,-133.5019"/>
<polygon fill="#191970" stroke="#191970" points="402.6337,-167.7846 395.2547,-175.3873 405.7643,-174.0456 402.6337,-167.7846"/>
</g>
<!-- Node17 -->
<g id="node14" class="node">
<title>Node17</title>
<g id="a_node14"><a xlink:href="slew_8c.html" target="_top" xlink:title="src/slew.c">
<polygon fill="none" stroke="#000000" points="37.3569,-115.5 37.3569,-133.5 96.7017,-133.5 96.7017,-115.5 37.3569,-115.5"/>
<text text-anchor="middle" x="67.0293" y="-121.5" font-family="Helvetica,sans-Serif" font-size="10.00" fill="#000000">src/slew.c</text>
</a>
</g>
</g>
<!-- Node5&#45;&gt;Node17 -->
<g id="edge19" class="edge">
<title>Node5&#45;&gt;Node17</title>
<path fill="none" stroke="#191970" d="M327.347,-179.0285C272.5351,-172.3309 182.019,-159.3086 106.0293,-139 100.4463,-137.5079 94.5441,-135.5324 89.0674,-133.5212"/>
<polygon fill="#191970" stroke="#191970" points="327.1407,-182.5288 337.4864,-180.2449 327.9745,-175.5786 327.1407,-182.5288"/>
</g>
<!-- Node7 -->
<g id="node4" class="node">
<title>Node7</title>
<g id="a_node4"><a xlink:href="auto_8h.html" target="_top" xlink:title="Autonomous declarations and macros. ">
<polygon fill="none" stroke="#000000" points="221.894,-55.5 221.894,-73.5 300.1646,-73.5 300.1646,-55.5 221.894,-55.5"/>
<text text-anchor="middle" x="261.0293" y="-61.5" font-family="Helvetica,sans-Serif" font-size="10.00" fill="#000000">include/auto.h</text>
</a>
</g>
</g>
<!-- Node6&#45;&gt;Node7 -->
<g id="edge3" class="edge">
<title>Node6&#45;&gt;Node7</title>
<path fill="none" stroke="#191970" d="M271.2477,-105.3734C268.5996,-94.7812 265.4287,-82.0976 263.3289,-73.6985"/>
<polygon fill="#191970" stroke="#191970" points="267.9302,-106.5348 273.7511,-115.3873 274.7212,-104.837 267.9302,-106.5348"/>
</g>
<!-- Node9 -->
<g id="node6" class="node">
<title>Node9</title>
<g id="a_node6"><a xlink:href="claw_8c.html" target="_top" xlink:title="src/claw.c">
<polygon fill="none" stroke="#000000" points="144.3569,-55.5 144.3569,-73.5 203.7017,-73.5 203.7017,-55.5 144.3569,-55.5"/>
<text text-anchor="middle" x="174.0293" y="-61.5" font-family="Helvetica,sans-Serif" font-size="10.00" fill="#000000">src/claw.c</text>
</a>
</g>
</g>
<!-- Node6&#45;&gt;Node9 -->
<g id="edge5" class="edge">
<title>Node6&#45;&gt;Node9</title>
<path fill="none" stroke="#191970" d="M251.6801,-110.177C232.3178,-98.7874 205.828,-83.2051 189.3325,-73.5019"/>
<polygon fill="#191970" stroke="#191970" points="250.1437,-113.3338 260.5377,-115.3873 253.6929,-107.3003 250.1437,-113.3338"/>
</g>
<!-- Node6&#45;&gt;Node10 -->
<g id="edge6" class="edge">
<title>Node6&#45;&gt;Node10</title>
<path fill="none" stroke="#191970" d="M297.1446,-109.2359C312.7681,-97.9418 333.5199,-82.9405 346.5767,-73.5019"/>
<polygon fill="#191970" stroke="#191970" points="294.689,-106.6923 288.6352,-115.3873 298.7899,-112.3653 294.689,-106.6923"/>
</g>
<!-- Node8 -->
<g id="node5" class="node">
<title>Node8</title>
<g id="a_node5"><a xlink:href="auto_8c.html" target="_top" xlink:title="File for autonomous code. ">
<polygon fill="none" stroke="#000000" points="231.3545,-.5 231.3545,-18.5 290.7041,-18.5 290.7041,-.5 231.3545,-.5"/>
<text text-anchor="middle" x="261.0293" y="-6.5" font-family="Helvetica,sans-Serif" font-size="10.00" fill="#000000">src/auto.c</text>
</a>
</g>
</g>
<!-- Node7&#45;&gt;Node8 -->
<g id="edge4" class="edge">
<title>Node7&#45;&gt;Node8</title>
<path fill="none" stroke="#191970" d="M261.0293,-45.383C261.0293,-36.3738 261.0293,-26.0373 261.0293,-18.7795"/>
<polygon fill="#191970" stroke="#191970" points="257.5294,-45.4178 261.0293,-55.4179 264.5294,-45.4179 257.5294,-45.4178"/>
</g>
<!-- Node11&#45;&gt;Node7 -->
<g id="edge8" class="edge">
<title>Node11&#45;&gt;Node7</title>
<path fill="none" stroke="#191970" d="M377.8777,-111.553C349.3667,-100.0721 308.4661,-83.6021 283.384,-73.5019"/>
<polygon fill="#191970" stroke="#191970" points="376.8158,-114.8985 387.3994,-115.3873 379.4306,-108.4052 376.8158,-114.8985"/>
</g>
<!-- Node11&#45;&gt;Node10 -->
<g id="edge11" class="edge">
<title>Node11&#45;&gt;Node10</title>
<path fill="none" stroke="#191970" d="M395.7308,-107.6783C386.3769,-96.6737 374.5133,-82.7165 366.848,-73.6985"/>
<polygon fill="#191970" stroke="#191970" points="393.1402,-110.0347 402.2835,-115.3873 398.4738,-105.5011 393.1402,-110.0347"/>
</g>
<!-- Node11&#45;&gt;Node12 -->
<g id="edge9" class="edge">
<title>Node11&#45;&gt;Node12</title>
<path fill="none" stroke="#191970" d="M441.5336,-111.553C469.4705,-100.0721 509.5476,-83.6021 534.1247,-73.5019"/>
<polygon fill="#191970" stroke="#191970" points="440.1225,-108.3488 432.2036,-115.3873 442.7834,-114.8234 440.1225,-108.3488"/>
</g>
<!-- Node13 -->
<g id="node10" class="node">
<title>Node13</title>
<g id="a_node10"><a xlink:href="lifter_8c.html" target="_top" xlink:title="src/lifter.c">
<polygon fill="none" stroke="#000000" points="417.9136,-55.5 417.9136,-73.5 476.145,-73.5 476.145,-55.5 417.9136,-55.5"/>
<text text-anchor="middle" x="447.0293" y="-61.5" font-family="Helvetica,sans-Serif" font-size="10.00" fill="#000000">src/lifter.c</text>
</a>
</g>
</g>
<!-- Node11&#45;&gt;Node13 -->
<g id="edge10" class="edge">
<title>Node11&#45;&gt;Node13</title>
<path fill="none" stroke="#191970" d="M421.0061,-106.6998C427.6925,-95.8569 435.9593,-82.4513 441.3569,-73.6985"/>
<polygon fill="#191970" stroke="#191970" points="417.9186,-105.0384 415.6488,-115.3873 423.8768,-108.7127 417.9186,-105.0384"/>
</g>
<!-- Node14&#45;&gt;Node7 -->
<g id="edge13" class="edge">
<title>Node14&#45;&gt;Node7</title>
<path fill="none" stroke="#191970" d="M198.0778,-104.6818C214.523,-94.1849 233.9243,-81.8011 246.7974,-73.5842"/>
<polygon fill="#191970" stroke="#191970" points="195.8521,-101.9502 189.306,-110.2808 199.6184,-107.8507 195.8521,-101.9502"/>
</g>
<!-- Node14&#45;&gt;Node10 -->
<g id="edge15" class="edge">
<title>Node14&#45;&gt;Node10</title>
<path fill="none" stroke="#191970" d="M221.7316,-107.4055C257.0144,-96.3797 301.4923,-82.4803 330.0958,-73.5417"/>
<polygon fill="#191970" stroke="#191970" points="220.5456,-104.1092 212.0448,-110.4327 222.6336,-110.7905 220.5456,-104.1092"/>
</g>
<!-- Node15 -->
<g id="node12" class="node">
<title>Node15</title>
<g id="a_node12"><a xlink:href="mobile__goal__intake_8c.html" target="_top" xlink:title="src/mobile_goal_intake.c">
<polygon fill="none" stroke="#000000" points="0,-55.5 0,-73.5 126.0586,-73.5 126.0586,-55.5 0,-55.5"/>
<text text-anchor="middle" x="63.0293" y="-61.5" font-family="Helvetica,sans-Serif" font-size="10.00" fill="#000000">src/mobile_goal_intake.c</text>
</a>
</g>
</g>
<!-- Node14&#45;&gt;Node15 -->
<g id="edge14" class="edge">
<title>Node14&#45;&gt;Node15</title>
<path fill="none" stroke="#191970" d="M133.9456,-105.4132C115.5227,-94.7847 93.4322,-82.0402 78.8565,-73.6311"/>
<polygon fill="#191970" stroke="#191970" points="132.235,-108.467 142.6459,-110.4327 135.7331,-102.4037 132.235,-108.467"/>
</g>
<!-- Node18&#45;&gt;Node12 -->
<g id="edge21" class="edge">
<title>Node18&#45;&gt;Node12</title>
<path fill="none" stroke="#191970" d="M588.0556,-165.6355C579.7698,-139.4701 565.1109,-93.1788 558.9186,-73.6242"/>
<polygon fill="#191970" stroke="#191970" points="584.8174,-167.0037 591.1731,-175.4805 591.4908,-164.8904 584.8174,-167.0037"/>
</g>
<!-- Node19 -->
<g id="node16" class="node">
<title>Node19</title>
<g id="a_node16"><a xlink:href="menu_8c.html" target="_top" xlink:title="src/menu.c">
<polygon fill="none" stroke="#000000" points="621.5786,-115.5 621.5786,-133.5 686.48,-133.5 686.48,-115.5 621.5786,-115.5"/>
<text text-anchor="middle" x="654.0293" y="-121.5" font-family="Helvetica,sans-Serif" font-size="10.00" fill="#000000">src/menu.c</text>
</a>
</g>
</g>
<!-- Node18&#45;&gt;Node19 -->
<g id="edge22" class="edge">
<title>Node18&#45;&gt;Node19</title>
<path fill="none" stroke="#191970" d="M610.5282,-168.0011C621.5815,-156.9478 635.7244,-142.8049 644.8308,-133.6985"/>
<polygon fill="#191970" stroke="#191970" points="607.7382,-165.8413 603.142,-175.3873 612.688,-170.7911 607.7382,-165.8413"/>
</g>
</g>
</svg>
