<?xml version="1.0" encoding="UTF-8" standalone="no"?>
<!DOCTYPE svg PUBLIC "-//W3C//DTD SVG 1.1//EN"
 "http://www.w3.org/Graphics/SVG/1.1/DTD/svg11.dtd">
<!-- Generated by graphviz version 2.40.1 (20161225.0304)
 -->
<!-- Title: calloc_real Pages: 1 -->
<svg width="274pt" height="64pt"
 viewBox="0.00 0.00 274.19 64.00" xmlns="http://www.w3.org/2000/svg" xmlns:xlink="http://www.w3.org/1999/xlink">
<g id="graph0" class="graph" transform="scale(1 1) rotate(0) translate(4 60)">
<title>calloc_real</title>
<!-- Node1 -->
<g id="node1" class="node">
<title>Node1</title>
<polygon fill="#bfbfbf" stroke="#000000" points="0,-18.5 0,-36.5 63.8027,-36.5 63.8027,-18.5 0,-18.5"/>
<text text-anchor="middle" x="31.9014" y="-24.5" font-family="Helvetica,sans-Serif" font-size="10.00" fill="#000000">calloc_real</text>
</g>
<!-- Node2 -->
<g id="node2" class="node">
<title>Node2</title>
<g id="a_node2"><a xlink:href="menu_8c.html#a3529988b0a7c12cb3f2ebb3cf5595594" target="_top" xlink:title="Creates a menu context, but does not display. &#160;Menu must be freed or will cause memory leak &#160;...">
<polygon fill="none" stroke="#000000" points="99.8027,-37.5 99.8027,-55.5 178.6152,-55.5 178.6152,-37.5 99.8027,-37.5"/>
<text text-anchor="middle" x="139.209" y="-43.5" font-family="Helvetica,sans-Serif" font-size="10.00" fill="#000000">init_menu_var</text>
</a>
</g>
</g>
<!-- Node1&#45;&gt;Node2 -->
<g id="edge1" class="edge">
<title>Node1&#45;&gt;Node2</title>
<path fill="none" stroke="#191970" d="M73.8811,-34.933C82.3562,-36.4336 91.2396,-38.0065 99.629,-39.4919"/>
<polygon fill="#191970" stroke="#191970" points="74.2637,-31.4464 63.8067,-33.1492 73.0432,-38.3392 74.2637,-31.4464"/>
</g>
<!-- Node3 -->
<g id="node3" class="node">
<title>Node3</title>
<g id="a_node3"><a xlink:href="slew_8c.html#a321758941d88b75783955c819bb75005" target="_top" xlink:title="Initializes the slew rate controller. ">
<polygon fill="none" stroke="#000000" points="112.0342,-.5 112.0342,-18.5 166.3838,-18.5 166.3838,-.5 112.0342,-.5"/>
<text text-anchor="middle" x="139.209" y="-6.5" font-family="Helvetica,sans-Serif" font-size="10.00" fill="#000000">init_slew</text>
</a>
</g>
</g>
<!-- Node1&#45;&gt;Node3 -->
<g id="edge2" class="edge">
<title>Node1&#45;&gt;Node3</title>
<path fill="none" stroke="#191970" d="M73.8228,-20.468C86.6374,-18.3185 100.3909,-16.0114 111.9616,-14.0705"/>
<polygon fill="#191970" stroke="#191970" points="73.0898,-17.042 63.8067,-22.1481 74.2479,-23.9455 73.0898,-17.042"/>
</g>
<!-- Node4 -->
<g id="node4" class="node">
<title>Node4</title>
<g id="a_node4"><a xlink:href="init_8c.html#a25a40b6614565f755233080a384c35f1" target="_top" xlink:title="initialize">
<polygon fill="none" stroke="#000000" points="214.6152,-.5 214.6152,-18.5 266.1865,-18.5 266.1865,-.5 214.6152,-.5"/>
<text text-anchor="middle" x="240.4009" y="-6.5" font-family="Helvetica,sans-Serif" font-size="10.00" fill="#000000">initialize</text>
</a>
</g>
</g>
<!-- Node3&#45;&gt;Node4 -->
<g id="edge3" class="edge">
<title>Node3&#45;&gt;Node4</title>
<path fill="none" stroke="#191970" d="M176.7658,-9.5C189.2842,-9.5 202.9454,-9.5 214.3897,-9.5"/>
<polygon fill="#191970" stroke="#191970" points="176.593,-6.0001 166.593,-9.5 176.5929,-13.0001 176.593,-6.0001"/>
</g>
</g>
</svg>
