<?xml version="1.0" encoding="UTF-8" standalone="no"?>
<!DOCTYPE svg PUBLIC "-//W3C//DTD SVG 1.1//EN"
 "http://www.w3.org/Graphics/SVG/1.1/DTD/svg11.dtd">
<!-- Generated by graphviz version 2.40.1 (20161225.0304)
 -->
<!-- Title: include/vlib.h Pages: 1 -->
<svg width="320pt" height="137pt"
 viewBox="0.00 0.00 320.12 137.00" xmlns="http://www.w3.org/2000/svg" xmlns:xlink="http://www.w3.org/1999/xlink">
<g id="graph0" class="graph" transform="scale(1 1) rotate(0) translate(4 133)">
<title>include/vlib.h</title>
<!-- Node4 -->
<g id="node1" class="node">
<title>Node4</title>
<polygon fill="#bfbfbf" stroke="#000000" points="141.5444,-110.5 141.5444,-128.5 215.3569,-128.5 215.3569,-110.5 141.5444,-110.5"/>
<text text-anchor="middle" x="178.4507" y="-116.5" font-family="Helvetica,sans-Serif" font-size="10.00" fill="#000000">include/vlib.h</text>
</g>
<!-- Node5 -->
<g id="node2" class="node">
<title>Node5</title>
<g id="a_node2"><a xlink:href="menu_8h.html" target="_top" xlink:title="Contains menu functionality and abstraction. ">
<polygon fill="none" stroke="#000000" points="21.5396,-55.5 21.5396,-73.5 105.3618,-73.5 105.3618,-55.5 21.5396,-55.5"/>
<text text-anchor="middle" x="63.4507" y="-61.5" font-family="Helvetica,sans-Serif" font-size="10.00" fill="#000000">include/menu.h</text>
</a>
</g>
</g>
<!-- Node4&#45;&gt;Node5 -->
<g id="edge1" class="edge">
<title>Node4&#45;&gt;Node5</title>
<path fill="none" stroke="#191970" d="M150.3412,-106.0563C129.255,-95.9716 100.9565,-82.4376 82.4688,-73.5956"/>
<polygon fill="#191970" stroke="#191970" points="148.9293,-109.2607 159.4608,-110.4179 151.9495,-102.9458 148.9293,-109.2607"/>
</g>
<!-- Node7 -->
<g id="node4" class="node">
<title>Node7</title>
<g id="a_node4"><a xlink:href="slew_8h.html" target="_top" xlink:title="Contains the slew rate controller wrapper for the motors. ">
<polygon fill="none" stroke="#000000" points="139.3179,-55.5 139.3179,-73.5 217.5835,-73.5 217.5835,-55.5 139.3179,-55.5"/>
<text text-anchor="middle" x="178.4507" y="-61.5" font-family="Helvetica,sans-Serif" font-size="10.00" fill="#000000">include/slew.h</text>
</a>
</g>
</g>
<!-- Node4&#45;&gt;Node7 -->
<g id="edge3" class="edge">
<title>Node4&#45;&gt;Node7</title>
<path fill="none" stroke="#191970" d="M178.4507,-100.383C178.4507,-91.3738 178.4507,-81.0373 178.4507,-73.7795"/>
<polygon fill="#191970" stroke="#191970" points="174.9508,-100.4178 178.4507,-110.4179 181.9508,-100.4179 174.9508,-100.4178"/>
</g>
<!-- Node11 -->
<g id="node8" class="node">
<title>Node11</title>
<g id="a_node8"><a xlink:href="vlib_8c.html" target="_top" xlink:title="src/vlib.c">
<polygon fill="none" stroke="#000000" points="236.0049,-55.5 236.0049,-73.5 290.8965,-73.5 290.8965,-55.5 236.0049,-55.5"/>
<text text-anchor="middle" x="263.4507" y="-61.5" font-family="Helvetica,sans-Serif" font-size="10.00" fill="#000000">src/vlib.c</text>
</a>
</g>
</g>
<!-- Node4&#45;&gt;Node11 -->
<g id="edge7" class="edge">
<title>Node4&#45;&gt;Node11</title>
<path fill="none" stroke="#191970" d="M200.9324,-104.953C216.3108,-95.0023 236.2214,-82.1189 249.3938,-73.5956"/>
<polygon fill="#191970" stroke="#191970" points="198.981,-102.0468 192.4867,-110.4179 202.7838,-107.9238 198.981,-102.0468"/>
</g>
<!-- Node6 -->
<g id="node3" class="node">
<title>Node6</title>
<g id="a_node3"><a xlink:href="menu_8c.html" target="_top" xlink:title="src/menu.c">
<polygon fill="none" stroke="#000000" points="0,-.5 0,-18.5 64.9014,-18.5 64.9014,-.5 0,-.5"/>
<text text-anchor="middle" x="32.4507" y="-6.5" font-family="Helvetica,sans-Serif" font-size="10.00" fill="#000000">src/menu.c</text>
</a>
</g>
</g>
<!-- Node5&#45;&gt;Node6 -->
<g id="edge2" class="edge">
<title>Node5&#45;&gt;Node6</title>
<path fill="none" stroke="#191970" d="M53.3407,-46.563C48.1133,-37.2885 41.9515,-26.3564 37.6809,-18.7795"/>
<polygon fill="#191970" stroke="#191970" points="50.3724,-48.4249 58.3317,-55.4179 56.4705,-44.9878 50.3724,-48.4249"/>
</g>
<!-- Node8 -->
<g id="node5" class="node">
<title>Node8</title>
<g id="a_node5"><a xlink:href="init_8c.html" target="_top" xlink:title="File for initialization code. ">
<polygon fill="none" stroke="#000000" points="83.1157,-.5 83.1157,-18.5 135.7856,-18.5 135.7856,-.5 83.1157,-.5"/>
<text text-anchor="middle" x="109.4507" y="-6.5" font-family="Helvetica,sans-Serif" font-size="10.00" fill="#000000">src/init.c</text>
</a>
</g>
</g>
<!-- Node7&#45;&gt;Node8 -->
<g id="edge4" class="edge">
<title>Node7&#45;&gt;Node8</title>
<path fill="none" stroke="#191970" d="M159.1934,-49.15C146.949,-39.3899 131.4983,-27.0742 121.0922,-18.7795"/>
<polygon fill="#191970" stroke="#191970" points="157.0554,-51.9216 167.0567,-55.4179 161.4186,-46.4478 157.0554,-51.9216"/>
</g>
<!-- Node9 -->
<g id="node6" class="node">
<title>Node9</title>
<g id="a_node6"><a xlink:href="opcontrol_8c.html" target="_top" xlink:title="File for operator control code. ">
<polygon fill="none" stroke="#000000" points="153.9385,-.5 153.9385,-18.5 234.9629,-18.5 234.9629,-.5 153.9385,-.5"/>
<text text-anchor="middle" x="194.4507" y="-6.5" font-family="Helvetica,sans-Serif" font-size="10.00" fill="#000000">src/opcontrol.c</text>
</a>
</g>
</g>
<!-- Node7&#45;&gt;Node9 -->
<g id="edge5" class="edge">
<title>Node7&#45;&gt;Node9</title>
<path fill="none" stroke="#191970" d="M183.9257,-45.6796C186.5666,-36.6014 189.6166,-26.1171 191.7512,-18.7795"/>
<polygon fill="#191970" stroke="#191970" points="180.5254,-44.8382 181.0928,-55.4179 187.2468,-46.7936 180.5254,-44.8382"/>
</g>
<!-- Node10 -->
<g id="node7" class="node">
<title>Node10</title>
<g id="a_node7"><a xlink:href="slew_8c.html" target="_top" xlink:title="src/slew.c">
<polygon fill="none" stroke="#000000" points="252.7783,-.5 252.7783,-18.5 312.123,-18.5 312.123,-.5 252.7783,-.5"/>
<text text-anchor="middle" x="282.4507" y="-6.5" font-family="Helvetica,sans-Serif" font-size="10.00" fill="#000000">src/slew.c</text>
</a>
</g>
</g>
<!-- Node7&#45;&gt;Node10 -->
<g id="edge6" class="edge">
<title>Node7&#45;&gt;Node10</title>
<path fill="none" stroke="#191970" d="M204.6481,-50.6456C223.6307,-40.6067 248.7583,-27.3181 265.2517,-18.5956"/>
<polygon fill="#191970" stroke="#191970" points="202.8279,-47.6489 195.6242,-55.4179 206.1004,-53.8368 202.8279,-47.6489"/>
</g>
</g>
</svg>
