<?xml version="1.0" encoding="UTF-8" standalone="no"?>
<!DOCTYPE svg PUBLIC "-//W3C//DTD SVG 1.1//EN"
 "http://www.w3.org/Graphics/SVG/1.1/DTD/svg11.dtd">
<!-- Generated by graphviz version 2.40.1 (20161225.0304)
 -->
<!-- Title: ftoa_bad Pages: 1 -->
<svg width="239pt" height="27pt"
 viewBox="0.00 0.00 238.64 27.00" xmlns="http://www.w3.org/2000/svg" xmlns:xlink="http://www.w3.org/1999/xlink">
<g id="graph0" class="graph" transform="scale(1 1) rotate(0) translate(4 23)">
<title>ftoa_bad</title>
<!-- Node3 -->
<g id="node1" class="node">
<title>Node3</title>
<polygon fill="#bfbfbf" stroke="#000000" points="0,-.5 0,-18.5 54.9258,-18.5 54.9258,-.5 0,-.5"/>
<text text-anchor="middle" x="27.4629" y="-6.5" font-family="Helvetica,sans-Serif" font-size="10.00" fill="#000000">ftoa_bad</text>
</g>
<!-- Node4 -->
<g id="node2" class="node">
<title>Node4</title>
<g id="a_node2"><a xlink:href="vlib_8c.html#a08fa7134f8b9a80eeba25f9feab22892" target="_top" xlink:title="converts a int to string. ">
<polygon fill="none" stroke="#000000" points="90.9258,-.5 90.9258,-18.5 145.2949,-18.5 145.2949,-.5 90.9258,-.5"/>
<text text-anchor="middle" x="118.1104" y="-6.5" font-family="Helvetica,sans-Serif" font-size="10.00" fill="#000000">itoa_bad</text>
</a>
</g>
</g>
<!-- Node3&#45;&gt;Node4 -->
<g id="edge1" class="edge">
<title>Node3&#45;&gt;Node4</title>
<path fill="none" stroke="#191970" d="M55.1527,-9.5C63.2221,-9.5 72.175,-9.5 80.7371,-9.5"/>
<polygon fill="#191970" stroke="#191970" points="80.9016,-13.0001 90.9016,-9.5 80.9016,-6.0001 80.9016,-13.0001"/>
</g>
<!-- Node5 -->
<g id="node3" class="node">
<title>Node5</title>
<g id="a_node3"><a xlink:href="vlib_8c.html#aad7fea725cb4b198ace1aa3df5051244" target="_top" xlink:title="reverses a string &#39;str&#39; of length &#39;len&#39; ">
<polygon fill="none" stroke="#000000" points="181.2949,-.5 181.2949,-18.5 230.6396,-18.5 230.6396,-.5 181.2949,-.5"/>
<text text-anchor="middle" x="205.9673" y="-6.5" font-family="Helvetica,sans-Serif" font-size="10.00" fill="#000000">reverse</text>
</a>
</g>
</g>
<!-- Node4&#45;&gt;Node5 -->
<g id="edge2" class="edge">
<title>Node4&#45;&gt;Node5</title>
<path fill="none" stroke="#191970" d="M145.4272,-9.5C153.5206,-9.5 162.4963,-9.5 171.0035,-9.5"/>
<polygon fill="#191970" stroke="#191970" points="171.0572,-13.0001 181.0572,-9.5 171.0572,-6.0001 171.0572,-13.0001"/>
</g>
</g>
</svg>
