<?xml version="1.0" encoding="UTF-8" standalone="no"?>
<!DOCTYPE svg PUBLIC "-//W3C//DTD SVG 1.1//EN"
 "http://www.w3.org/Graphics/SVG/1.1/DTD/svg11.dtd">
<!-- Generated by graphviz version 2.40.1 (20161225.0304)
 -->
<!-- Title: itoa Pages: 1 -->
<svg width="475pt" height="46pt"
 viewBox="0.00 0.00 474.92 46.00" xmlns="http://www.w3.org/2000/svg" xmlns:xlink="http://www.w3.org/1999/xlink">
<g id="graph0" class="graph" transform="scale(1 1) rotate(0) translate(4 42)">
<title>itoa</title>
<!-- Node14 -->
<g id="node1" class="node">
<title>Node14</title>
<polygon fill="#bfbfbf" stroke="#000000" points="0,-19.5 0,-37.5 32.123,-37.5 32.123,-19.5 0,-19.5"/>
<text text-anchor="middle" x="16.0615" y="-25.5" font-family="Helvetica,sans-Serif" font-size="10.00" fill="#000000">itoa</text>
</g>
<!-- Node15 -->
<g id="node2" class="node">
<title>Node15</title>
<g id="a_node2"><a xlink:href="menu_8c.html#a0fb55c1213b23963d509b974d1254567" target="_top" xlink:title="calculate_current_display">
<polygon fill="none" stroke="#000000" points="136.8027,-19.5 136.8027,-37.5 265.6445,-37.5 265.6445,-19.5 136.8027,-19.5"/>
<text text-anchor="middle" x="201.2236" y="-25.5" font-family="Helvetica,sans-Serif" font-size="10.00" fill="#000000">calculate_current_display</text>
</a>
</g>
</g>
<!-- Node14&#45;&gt;Node15 -->
<g id="edge1" class="edge">
<title>Node14&#45;&gt;Node15</title>
<path fill="none" stroke="#191970" d="M42.4275,-28.5C66.8726,-28.5 104.2372,-28.5 136.5817,-28.5"/>
<polygon fill="#191970" stroke="#191970" points="42.1696,-25.0001 32.1695,-28.5 42.1695,-32.0001 42.1696,-25.0001"/>
</g>
<!-- Node18 -->
<g id="node5" class="node">
<title>Node18</title>
<g id="a_node5"><a xlink:href="vlib_8c.html#a1c3b16ce8c66ade17aca0f267027b855" target="_top" xlink:title="converts a float to string. ">
<polygon fill="none" stroke="#000000" points="68.123,-.5 68.123,-18.5 100.8027,-18.5 100.8027,-.5 68.123,-.5"/>
<text text-anchor="middle" x="84.4629" y="-6.5" font-family="Helvetica,sans-Serif" font-size="10.00" fill="#000000">ftoa</text>
</a>
</g>
</g>
<!-- Node14&#45;&gt;Node18 -->
<g id="edge4" class="edge">
<title>Node14&#45;&gt;Node18</title>
<path fill="none" stroke="#191970" d="M41.9787,-21.3009C50.6688,-18.8871 60.1182,-16.2623 67.8939,-14.1024"/>
<polygon fill="#191970" stroke="#191970" points="40.9701,-17.9485 32.2717,-23.9973 42.8437,-24.6931 40.9701,-17.9485"/>
</g>
<!-- Node16 -->
<g id="node3" class="node">
<title>Node16</title>
<g id="a_node3"><a xlink:href="menu_8c.html#abfadedb104f89f672dd3045499975a71" target="_top" xlink:title="Displays a menu context, but does not display. &#160;Menu must be freed or will cause memory leak! &#160;Will e...">
<polygon fill="none" stroke="#000000" points="301.6445,-19.5 301.6445,-37.5 379.3486,-37.5 379.3486,-19.5 301.6445,-19.5"/>
<text text-anchor="middle" x="340.4966" y="-25.5" font-family="Helvetica,sans-Serif" font-size="10.00" fill="#000000">display_menu</text>
</a>
</g>
</g>
<!-- Node15&#45;&gt;Node16 -->
<g id="edge2" class="edge">
<title>Node15&#45;&gt;Node16</title>
<path fill="none" stroke="#191970" d="M276.1708,-28.5C284.8471,-28.5 293.4127,-28.5 301.3249,-28.5"/>
<polygon fill="#191970" stroke="#191970" points="275.9674,-25.0001 265.9674,-28.5 275.9673,-32.0001 275.9674,-25.0001"/>
</g>
<!-- Node17 -->
<g id="node4" class="node">
<title>Node17</title>
<g id="a_node4"><a xlink:href="init_8c.html#a25a40b6614565f755233080a384c35f1" target="_top" xlink:title="initialize">
<polygon fill="none" stroke="#000000" points="415.3486,-19.5 415.3486,-37.5 466.9199,-37.5 466.9199,-19.5 415.3486,-19.5"/>
<text text-anchor="middle" x="441.1343" y="-25.5" font-family="Helvetica,sans-Serif" font-size="10.00" fill="#000000">initialize</text>
</a>
</g>
</g>
<!-- Node16&#45;&gt;Node17 -->
<g id="edge3" class="edge">
<title>Node16&#45;&gt;Node17</title>
<path fill="none" stroke="#191970" d="M389.6369,-28.5C398.4259,-28.5 407.2628,-28.5 415.0744,-28.5"/>
<polygon fill="#191970" stroke="#191970" points="389.4058,-25.0001 379.4057,-28.5 389.4057,-32.0001 389.4058,-25.0001"/>
</g>
<!-- Node18&#45;&gt;Node15 -->
<g id="edge5" class="edge">
<title>Node18&#45;&gt;Node15</title>
<path fill="none" stroke="#191970" d="M111.1691,-13.8458C121.483,-15.5241 133.6885,-17.5103 145.7298,-19.4697"/>
<polygon fill="#191970" stroke="#191970" points="111.6242,-10.3739 101.1919,-12.2222 110.4999,-17.283 111.6242,-10.3739"/>
</g>
</g>
</svg>
