<?xml version="1.0" encoding="UTF-8" standalone="no"?>
<!DOCTYPE svg PUBLIC "-//W3C//DTD SVG 1.1//EN"
 "http://www.w3.org/Graphics/SVG/1.1/DTD/svg11.dtd">
<!-- Generated by graphviz version 2.40.1 (20161225.0304)
 -->
<!-- Title: ftoa Pages: 1 -->
<svg width="407pt" height="27pt"
 viewBox="0.00 0.00 406.80 27.00" xmlns="http://www.w3.org/2000/svg" xmlns:xlink="http://www.w3.org/1999/xlink">
<g id="graph0" class="graph" transform="scale(1 1) rotate(0) translate(4 23)">
<title>ftoa</title>
<!-- Node8 -->
<g id="node1" class="node">
<title>Node8</title>
<polygon fill="#bfbfbf" stroke="#000000" points="0,-.5 0,-18.5 32.6797,-18.5 32.6797,-.5 0,-.5"/>
<text text-anchor="middle" x="16.3398" y="-6.5" font-family="Helvetica,sans-Serif" font-size="10.00" fill="#000000">ftoa</text>
</g>
<!-- Node9 -->
<g id="node2" class="node">
<title>Node9</title>
<g id="a_node2"><a xlink:href="menu_8c.html#a0fb55c1213b23963d509b974d1254567" target="_top" xlink:title="calculate_current_display">
<polygon fill="none" stroke="#000000" points="68.6797,-.5 68.6797,-18.5 197.5215,-18.5 197.5215,-.5 68.6797,-.5"/>
<text text-anchor="middle" x="133.1006" y="-6.5" font-family="Helvetica,sans-Serif" font-size="10.00" fill="#000000">calculate_current_display</text>
</a>
</g>
</g>
<!-- Node8&#45;&gt;Node9 -->
<g id="edge1" class="edge">
<title>Node8&#45;&gt;Node9</title>
<path fill="none" stroke="#191970" d="M43.1524,-9.5C50.8395,-9.5 59.5709,-9.5 68.4986,-9.5"/>
<polygon fill="#191970" stroke="#191970" points="43.0688,-6.0001 33.0688,-9.5 43.0688,-13.0001 43.0688,-6.0001"/>
</g>
<!-- Node10 -->
<g id="node3" class="node">
<title>Node10</title>
<g id="a_node3"><a xlink:href="menu_8c.html#abfadedb104f89f672dd3045499975a71" target="_top" xlink:title="Displays a menu context, but does not display. &#160;Menu must be freed or will cause memory leak! &#160;Will e...">
<polygon fill="none" stroke="#000000" points="233.5215,-.5 233.5215,-18.5 311.2256,-18.5 311.2256,-.5 233.5215,-.5"/>
<text text-anchor="middle" x="272.3735" y="-6.5" font-family="Helvetica,sans-Serif" font-size="10.00" fill="#000000">display_menu</text>
</a>
</g>
</g>
<!-- Node9&#45;&gt;Node10 -->
<g id="edge2" class="edge">
<title>Node9&#45;&gt;Node10</title>
<path fill="none" stroke="#191970" d="M208.0478,-9.5C216.724,-9.5 225.2897,-9.5 233.2018,-9.5"/>
<polygon fill="#191970" stroke="#191970" points="207.8444,-6.0001 197.8443,-9.5 207.8443,-13.0001 207.8444,-6.0001"/>
</g>
<!-- Node11 -->
<g id="node4" class="node">
<title>Node11</title>
<g id="a_node4"><a xlink:href="init_8c.html#a25a40b6614565f755233080a384c35f1" target="_top" xlink:title="initialize">
<polygon fill="none" stroke="#000000" points="347.2256,-.5 347.2256,-18.5 398.7969,-18.5 398.7969,-.5 347.2256,-.5"/>
<text text-anchor="middle" x="373.0112" y="-6.5" font-family="Helvetica,sans-Serif" font-size="10.00" fill="#000000">initialize</text>
</a>
</g>
</g>
<!-- Node10&#45;&gt;Node11 -->
<g id="edge3" class="edge">
<title>Node10&#45;&gt;Node11</title>
<path fill="none" stroke="#191970" d="M321.5139,-9.5C330.3028,-9.5 339.1398,-9.5 346.9514,-9.5"/>
<polygon fill="#191970" stroke="#191970" points="321.2827,-6.0001 311.2827,-9.5 321.2827,-13.0001 321.2827,-6.0001"/>
</g>
</g>
</svg>
