<?xml version="1.0" encoding="UTF-8" standalone="no"?>
<!DOCTYPE svg PUBLIC "-//W3C//DTD SVG 1.1//EN"
 "http://www.w3.org/Graphics/SVG/1.1/DTD/svg11.dtd">
<!-- Generated by graphviz version 2.40.1 (20161225.0304)
 -->
<!-- Title: ftoa_bad Pages: 1 -->
<svg width="341pt" height="27pt"
 viewBox="0.00 0.00 341.47 27.00" xmlns="http://www.w3.org/2000/svg" xmlns:xlink="http://www.w3.org/1999/xlink">
<g id="graph0" class="graph" transform="scale(1 1) rotate(0) translate(4 23)">
<title>ftoa_bad</title>
<!-- Node3 -->
<g id="node1" class="node">
<title>Node3</title>
<polygon fill="#bfbfbf" stroke="#000000" points="0,-.5 0,-18.5 54.9258,-18.5 54.9258,-.5 0,-.5"/>
<text text-anchor="middle" x="27.4629" y="-6.5" font-family="Helvetica,sans-Serif" font-size="10.00" fill="#000000">ftoa_bad</text>
</g>
<!-- Node4 -->
<g id="node2" class="node">
<title>Node4</title>
<g id="a_node2"><a xlink:href="menu_8c.html#a0fb55c1213b23963d509b974d1254567" target="_top" xlink:title="calculate_current_display">
<polygon fill="none" stroke="#000000" points="90.9258,-.5 90.9258,-18.5 219.7676,-18.5 219.7676,-.5 90.9258,-.5"/>
<text text-anchor="middle" x="155.3467" y="-6.5" font-family="Helvetica,sans-Serif" font-size="10.00" fill="#000000">calculate_current_display</text>
</a>
</g>
</g>
<!-- Node3&#45;&gt;Node4 -->
<g id="edge1" class="edge">
<title>Node3&#45;&gt;Node4</title>
<path fill="none" stroke="#191970" d="M65.3748,-9.5C73.4393,-9.5 82.1701,-9.5 90.913,-9.5"/>
<polygon fill="#191970" stroke="#191970" points="65.2118,-6.0001 55.2118,-9.5 65.2117,-13.0001 65.2118,-6.0001"/>
</g>
<!-- Node5 -->
<g id="node3" class="node">
<title>Node5</title>
<g id="a_node3"><a xlink:href="menu_8c.html#abfadedb104f89f672dd3045499975a71" target="_top" xlink:title="Displays a menu context, but does not display. &#160;Menu must be freed or will cause memory leak! &#160;Will e...">
<polygon fill="none" stroke="#000000" points="255.7676,-.5 255.7676,-18.5 333.4717,-18.5 333.4717,-.5 255.7676,-.5"/>
<text text-anchor="middle" x="294.6196" y="-6.5" font-family="Helvetica,sans-Serif" font-size="10.00" fill="#000000">display_menu</text>
</a>
</g>
</g>
<!-- Node4&#45;&gt;Node5 -->
<g id="edge2" class="edge">
<title>Node4&#45;&gt;Node5</title>
<path fill="none" stroke="#191970" d="M230.2939,-9.5C238.9701,-9.5 247.5358,-9.5 255.4479,-9.5"/>
<polygon fill="#191970" stroke="#191970" points="230.0905,-6.0001 220.0904,-9.5 230.0904,-13.0001 230.0905,-6.0001"/>
</g>
</g>
</svg>
