<?xml version="1.0" encoding="UTF-8" standalone="no"?>
<!DOCTYPE svg PUBLIC "-//W3C//DTD SVG 1.1//EN"
 "http://www.w3.org/Graphics/SVG/1.1/DTD/svg11.dtd">
<!-- Generated by graphviz version 2.40.1 (20161225.0304)
 -->
<!-- Title: include/vmath.h Pages: 1 -->
<svg width="233pt" height="137pt"
 viewBox="0.00 0.00 232.79 137.00" xmlns="http://www.w3.org/2000/svg" xmlns:xlink="http://www.w3.org/1999/xlink">
<g id="graph0" class="graph" transform="scale(1 1) rotate(0) translate(4 133)">
<title>include/vmath.h</title>
<!-- Node2 -->
<g id="node1" class="node">
<title>Node2</title>
<polygon fill="#bfbfbf" stroke="#000000" points="86.2144,-110.5 86.2144,-128.5 172.2534,-128.5 172.2534,-110.5 86.2144,-110.5"/>
<text text-anchor="middle" x="129.2339" y="-116.5" font-family="Helvetica,sans-Serif" font-size="10.00" fill="#000000">include/vmath.h</text>
</g>
<!-- Node3 -->
<g id="node2" class="node">
<title>Node3</title>
<g id="a_node2"><a xlink:href="controller_8h.html" target="_top" xlink:title="controller definitions, macros ">
<polygon fill="none" stroke="#000000" points="1.5396,-55.5 1.5396,-73.5 100.9282,-73.5 100.9282,-55.5 1.5396,-55.5"/>
<text text-anchor="middle" x="51.2339" y="-61.5" font-family="Helvetica,sans-Serif" font-size="10.00" fill="#000000">include/controller.h</text>
</a>
</g>
</g>
<!-- Node2&#45;&gt;Node3 -->
<g id="edge1" class="edge">
<title>Node2&#45;&gt;Node3</title>
<path fill="none" stroke="#191970" d="M107.808,-104.392C93.8108,-94.5222 75.9948,-81.9596 64.1331,-73.5956"/>
<polygon fill="#191970" stroke="#191970" points="106.1642,-107.5155 116.3538,-110.4179 110.1981,-101.7947 106.1642,-107.5155"/>
</g>
<!-- Node5 -->
<g id="node4" class="node">
<title>Node5</title>
<g id="a_node4"><a xlink:href="drive_8c.html" target="_top" xlink:title="src/drive.c">
<polygon fill="none" stroke="#000000" points="98.4531,-.5 98.4531,-18.5 160.0146,-18.5 160.0146,-.5 98.4531,-.5"/>
<text text-anchor="middle" x="129.2339" y="-6.5" font-family="Helvetica,sans-Serif" font-size="10.00" fill="#000000">src/drive.c</text>
</a>
</g>
</g>
<!-- Node2&#45;&gt;Node5 -->
<g id="edge4" class="edge">
<title>Node2&#45;&gt;Node5</title>
<path fill="none" stroke="#191970" d="M129.2339,-100.1899C129.2339,-76.2569 129.2339,-36.4552 129.2339,-18.6261"/>
<polygon fill="#191970" stroke="#191970" points="125.734,-100.4982 129.2339,-110.4982 132.734,-100.4983 125.734,-100.4982"/>
</g>
<!-- Node6 -->
<g id="node5" class="node">
<title>Node6</title>
<g id="a_node5"><a xlink:href="vmath_8c.html" target="_top" xlink:title="src/vmath.c">
<polygon fill="none" stroke="#000000" points="157.6748,-55.5 157.6748,-73.5 224.793,-73.5 224.793,-55.5 157.6748,-55.5"/>
<text text-anchor="middle" x="191.2339" y="-61.5" font-family="Helvetica,sans-Serif" font-size="10.00" fill="#000000">src/vmath.c</text>
</a>
</g>
</g>
<!-- Node2&#45;&gt;Node6 -->
<g id="edge5" class="edge">
<title>Node2&#45;&gt;Node6</title>
<path fill="none" stroke="#191970" d="M147.1754,-103.5841C158.0721,-93.9177 171.6028,-81.9147 180.7734,-73.7795"/>
<polygon fill="#191970" stroke="#191970" points="144.63,-101.1634 139.4719,-110.4179 149.2754,-106.4 144.63,-101.1634"/>
</g>
<!-- Node4 -->
<g id="node3" class="node">
<title>Node4</title>
<g id="a_node3"><a xlink:href="controller_8c.html" target="_top" xlink:title="src/controller.c">
<polygon fill="none" stroke="#000000" points="0,-.5 0,-18.5 80.4678,-18.5 80.4678,-.5 0,-.5"/>
<text text-anchor="middle" x="40.2339" y="-6.5" font-family="Helvetica,sans-Serif" font-size="10.00" fill="#000000">src/controller.c</text>
</a>
</g>
</g>
<!-- Node3&#45;&gt;Node4 -->
<g id="edge2" class="edge">
<title>Node3&#45;&gt;Node4</title>
<path fill="none" stroke="#191970" d="M47.4105,-45.383C45.6087,-36.3738 43.5414,-26.0373 42.0898,-18.7795"/>
<polygon fill="#191970" stroke="#191970" points="44.0242,-46.2985 49.4175,-55.4179 50.8883,-44.9256 44.0242,-46.2985"/>
</g>
<!-- Node3&#45;&gt;Node5 -->
<g id="edge3" class="edge">
<title>Node3&#45;&gt;Node5</title>
<path fill="none" stroke="#191970" d="M72.6597,-49.392C86.657,-39.5222 104.473,-26.9596 116.3346,-18.5956"/>
<polygon fill="#191970" stroke="#191970" points="70.2696,-46.7947 64.114,-55.4179 74.3036,-52.5155 70.2696,-46.7947"/>
</g>
</g>
</svg>
