<?xml version="1.0" encoding="UTF-8" standalone="no"?>
<!DOCTYPE svg PUBLIC "-//W3C//DTD SVG 1.1//EN"
 "http://www.w3.org/Graphics/SVG/1.1/DTD/svg11.dtd">
<!-- Generated by graphviz version 2.40.1 (20161225.0304)
 -->
<!-- Title: include/vmath.h Pages: 1 -->
<!--zoomable 367 -->
<svg id="main" version="1.1" xmlns="http://www.w3.org/2000/svg" xmlns:xlink="http://www.w3.org/1999/xlink" xml:space="preserve" onload="init(evt)">
<style type="text/css"><![CDATA[
.edge:hover path { stroke: red; }
.edge:hover polygon { stroke: red; fill: red; }
]]></style>
<script type="text/javascript"><![CDATA[
var edges = document.getElementsByTagName('g');
if (edges && edges.length) {
  for (var i=0;i<edges.length;i++) {
    if (edges[i].id.substr(0,4)=='edge') {
      edges[i].setAttribute('class','edge');
    }
  }
}
]]></script>
        <defs>
                <circle id="rim" cx="0" cy="0" r="7"/>
                <circle id="rim2" cx="0" cy="0" r="3.5"/>
                <g id="zoomPlus">
                        <use xlink:href="#rim" fill="#404040">
                                <set attributeName="fill" to="#808080" begin="zoomplus.mouseover" end="zoomplus.mouseout"/>
                        </use>
                        <path d="M-4,0h8M0,-4v8" fill="none" stroke="white" stroke-width="1.5" pointer-events="none"/>
                </g>
                <g id="zoomMin">
                        <use xlink:href="#rim" fill="#404040">
                                <set attributeName="fill" to="#808080" begin="zoomminus.mouseover" end="zoomminus.mouseout"/>
                        </use>
                        <path d="M-4,0h8" fill="none" stroke="white" stroke-width="1.5" pointer-events="none"/>
                </g>
                <g id="dirArrow">
                        <path fill="none" stroke="white" stroke-width="1.5" d="M0,-3.0v7 M-2.5,-0.5L0,-3.0L2.5,-0.5"/>
                </g>
               <g id="resetDef">
                       <use xlink:href="#rim2" fill="#404040">
                               <set attributeName="fill" to="#808080" begin="reset.mouseover" end="reset.mouseout"/>
                       </use>
               </g>
        </defs>

<script type="text/javascript">
var viewWidth = 1180;
var viewHeight = 367;
var sectionId = 'dynsection-1';
</script>
<script xlink:href="svgpan.js"/>
<svg id="graph" class="graph">
<g id="viewport">
<title>include/vmath.h</title>
<!-- Node2 -->
<g id="node1" class="node">
<title>Node2</title>
<polygon fill="#bfbfbf" stroke="#000000" points="925.9805,-340.5 925.9805,-358.5 1012.0195,-358.5 1012.0195,-340.5 925.9805,-340.5"/>
<text text-anchor="middle" x="969" y="-346.5" font-family="Helvetica,sans-Serif" font-size="10.00" fill="#000000">include/vmath.h</text>
</g>
<!-- Node3 -->
<g id="node2" class="node">
<title>Node3</title>
<g id="a_node2"><a xlink:href="controller_8h.html" target="_top" xlink:title="controller definitions, macros and functions to assist with usig the vex controllers. ">
<polygon fill="none" stroke="#000000" points="497.3057,-285.5 497.3057,-303.5 596.6943,-303.5 596.6943,-285.5 497.3057,-285.5"/>
<text text-anchor="middle" x="547" y="-291.5" font-family="Helvetica,sans-Serif" font-size="10.00" fill="#000000">include/controller.h</text>
</a>
</g>
</g>
<!-- Node2&#45;&gt;Node3 -->
<g id="edge1" class="edge">
<title>Node2&#45;&gt;Node3</title>
<path fill="none" stroke="#191970" d="M915.6974,-342.553C833.5207,-331.8427 677.0238,-311.4462 596.9334,-301.0079"/>
<polygon fill="#191970" stroke="#191970" points="915.4533,-346.0507 925.8218,-343.8725 916.358,-339.1094 915.4533,-346.0507"/>
</g>
<!-- Node8 -->
<g id="node7" class="node">
<title>Node8</title>
<g id="a_node7"><a xlink:href="opcontrol_8c.html" target="_top" xlink:title="File for operator control code. ">
<polygon fill="none" stroke="#000000" points="330.4878,-55.5 330.4878,-73.5 411.5122,-73.5 411.5122,-55.5 330.4878,-55.5"/>
<text text-anchor="middle" x="371" y="-61.5" font-family="Helvetica,sans-Serif" font-size="10.00" fill="#000000">src/opcontrol.c</text>
</a>
</g>
</g>
<!-- Node2&#45;&gt;Node8 -->
<g id="edge38" class="edge">
<title>Node2&#45;&gt;Node8</title>
<path fill="none" stroke="#191970" d="M915.6818,-348.8253C712.7556,-345.5634 0,-327.488 0,-234.5 0,-234.5 0,-234.5 0,-174.5 0,-106.2271 233.8595,-77.0257 330.2352,-67.8903"/>
<polygon fill="#191970" stroke="#191970" points="915.7447,-352.3266 925.7978,-348.9823 915.8534,-345.3274 915.7447,-352.3266"/>
</g>
<!-- Node14 -->
<g id="node13" class="node">
<title>Node14</title>
<g id="a_node13"><a xlink:href="drive_8c.html" target="_top" xlink:title="src/drive.c">
<polygon fill="none" stroke="#000000" points="900.2192,-110.5 900.2192,-128.5 961.7808,-128.5 961.7808,-110.5 900.2192,-110.5"/>
<text text-anchor="middle" x="931" y="-116.5" font-family="Helvetica,sans-Serif" font-size="10.00" fill="#000000">src/drive.c</text>
</a>
</g>
</g>
<!-- Node2&#45;&gt;Node14 -->
<g id="edge36" class="edge">
<title>Node2&#45;&gt;Node14</title>
<path fill="none" stroke="#191970" d="M965.8478,-330.4209C958.0682,-283.3336 938.1761,-162.9344 932.5206,-128.7039"/>
<polygon fill="#191970" stroke="#191970" points="962.427,-331.188 967.5104,-340.4837 969.3334,-330.0469 962.427,-331.188"/>
</g>
<!-- Node23 -->
<g id="node22" class="node">
<title>Node23</title>
<g id="a_node22"><a xlink:href="localization_8c.html" target="_top" xlink:title="src/localization.c">
<polygon fill="none" stroke="#000000" points="997.3203,-285.5 997.3203,-303.5 1086.6797,-303.5 1086.6797,-285.5 997.3203,-285.5"/>
<text text-anchor="middle" x="1042" y="-291.5" font-family="Helvetica,sans-Serif" font-size="10.00" fill="#000000">src/localization.c</text>
</a>
</g>
</g>
<!-- Node2&#45;&gt;Node23 -->
<g id="edge37" class="edge">
<title>Node2&#45;&gt;Node23</title>
<path fill="none" stroke="#191970" d="M989.3736,-334.15C1002.3279,-324.3899 1018.6743,-312.0742 1029.6836,-303.7795"/>
<polygon fill="#191970" stroke="#191970" points="986.9352,-331.6049 981.0545,-340.4179 991.1475,-337.1957 986.9352,-331.6049"/>
</g>
<!-- Node24 -->
<g id="node23" class="node">
<title>Node24</title>
<g id="a_node23"><a xlink:href="vmath_8c.html" target="_top" xlink:title="src/vmath.c">
<polygon fill="none" stroke="#000000" points="1104.4409,-285.5 1104.4409,-303.5 1171.5591,-303.5 1171.5591,-285.5 1104.4409,-285.5"/>
<text text-anchor="middle" x="1138" y="-291.5" font-family="Helvetica,sans-Serif" font-size="10.00" fill="#000000">src/vmath.c</text>
</a>
</g>
</g>
<!-- Node2&#45;&gt;Node24 -->
<g id="edge39" class="edge">
<title>Node2&#45;&gt;Node24</title>
<path fill="none" stroke="#191970" d="M1006.6243,-337.2554C1038.033,-327.0336 1082.0817,-312.6983 1110.3325,-303.5042"/>
<polygon fill="#191970" stroke="#191970" points="1005.3329,-333.9949 996.9069,-340.4179 1007.4992,-340.6513 1005.3329,-333.9949"/>
</g>
<!-- Node4 -->
<g id="node3" class="node">
<title>Node4</title>
<g id="a_node3"><a xlink:href="claw_8h.html" target="_top" xlink:title="Code for controlling the claw that grabs the cones. ">
<polygon fill="none" stroke="#000000" points="67.8672,-225.5 67.8672,-243.5 146.1328,-243.5 146.1328,-225.5 67.8672,-225.5"/>
<text text-anchor="middle" x="107" y="-231.5" font-family="Helvetica,sans-Serif" font-size="10.00" fill="#000000">include/claw.h</text>
</a>
</g>
</g>
<!-- Node3&#45;&gt;Node4 -->
<g id="edge2" class="edge">
<title>Node3&#45;&gt;Node4</title>
<path fill="none" stroke="#191970" d="M486.9605,-288.889C413.0482,-281.588 283.8185,-267.5412 174,-249 164.8466,-247.4546 155.0511,-245.5048 145.8546,-243.5405"/>
<polygon fill="#191970" stroke="#191970" points="486.7213,-292.3823 497.015,-289.8742 487.404,-285.4156 486.7213,-292.3823"/>
</g>
<!-- Node9 -->
<g id="node8" class="node">
<title>Node9</title>
<g id="a_node8"><a xlink:href="partner_8h.html" target="_top" xlink:title="include/partner.h">
<polygon fill="none" stroke="#000000" points="657.0273,-225.5 657.0273,-243.5 746.9727,-243.5 746.9727,-225.5 657.0273,-225.5"/>
<text text-anchor="middle" x="702" y="-231.5" font-family="Helvetica,sans-Serif" font-size="10.00" fill="#000000">include/partner.h</text>
</a>
</g>
</g>
<!-- Node3&#45;&gt;Node9 -->
<g id="edge7" class="edge">
<title>Node3&#45;&gt;Node9</title>
<path fill="none" stroke="#191970" d="M580.0585,-281.7032C609.7335,-270.2161 652.539,-253.6462 678.7452,-243.5019"/>
<polygon fill="#191970" stroke="#191970" points="578.6034,-278.5133 570.5412,-285.3873 581.1304,-285.0413 578.6034,-278.5133"/>
</g>
<!-- Node11 -->
<g id="node10" class="node">
<title>Node11</title>
<g id="a_node10"><a xlink:href="lifter_8h.html" target="_top" xlink:title="Declarations and macros for controlling and manipulating the lifter. ">
<polygon fill="none" stroke="#000000" points="748.4238,-110.5 748.4238,-128.5 825.5762,-128.5 825.5762,-110.5 748.4238,-110.5"/>
<text text-anchor="middle" x="787" y="-116.5" font-family="Helvetica,sans-Serif" font-size="10.00" fill="#000000">include/lifter.h</text>
</a>
</g>
</g>
<!-- Node3&#45;&gt;Node11 -->
<g id="edge20" class="edge">
<title>Node3&#45;&gt;Node11</title>
<path fill="none" stroke="#191970" d="M606.7852,-287.7199C649.6357,-281.3869 708.0175,-269.6954 756,-249 802.9762,-228.7386 827.1322,-229.2505 851,-184 863.4378,-160.4194 831.5622,-139.8631 808.4603,-128.6146"/>
<polygon fill="#191970" stroke="#191970" points="606.1996,-284.2679 596.7923,-289.1416 607.1856,-291.1981 606.1996,-284.2679"/>
</g>
<!-- Node3&#45;&gt;Node14 -->
<g id="edge34" class="edge">
<title>Node3&#45;&gt;Node14</title>
<path fill="none" stroke="#191970" d="M606.9956,-288.0139C671.3921,-280.315 768.9039,-266.3124 802,-249 860.2067,-218.5524 908.6255,-152.6741 925.0284,-128.5705"/>
<polygon fill="#191970" stroke="#191970" points="606.482,-284.5501 596.9596,-289.1949 607.3002,-291.5021 606.482,-284.5501"/>
</g>
<!-- Node17 -->
<g id="node16" class="node">
<title>Node17</title>
<g id="a_node16"><a xlink:href="mobile__goal__intake_8h.html" target="_top" xlink:title="include/mobile_goal\l_intake.h">
<polygon fill="none" stroke="#000000" points="534.8032,-220.5 534.8032,-248.5 639.1968,-248.5 639.1968,-220.5 534.8032,-220.5"/>
<text text-anchor="start" x="542.8032" y="-236.5" font-family="Helvetica,sans-Serif" font-size="10.00" fill="#000000">include/mobile_goal</text>
<text text-anchor="middle" x="587" y="-226.5" font-family="Helvetica,sans-Serif" font-size="10.00" fill="#000000">_intake.h</text>
</a>
</g>
</g>
<!-- Node3&#45;&gt;Node17 -->
<g id="edge21" class="edge">
<title>Node3&#45;&gt;Node17</title>
<path fill="none" stroke="#191970" d="M558.7345,-276.8982C564.6858,-267.9713 571.8219,-257.2671 577.4349,-248.8477"/>
<polygon fill="#191970" stroke="#191970" points="555.71,-275.1253 553.0751,-285.3873 561.5344,-279.0082 555.71,-275.1253"/>
</g>
<!-- Node18 -->
<g id="node17" class="node">
<title>Node18</title>
<g id="a_node17"><a xlink:href="routines_8h.html" target="_top" xlink:title="include/routines.h">
<polygon fill="none" stroke="#000000" points="286.8081,-225.5 286.8081,-243.5 381.1919,-243.5 381.1919,-225.5 286.8081,-225.5"/>
<text text-anchor="middle" x="334" y="-231.5" font-family="Helvetica,sans-Serif" font-size="10.00" fill="#000000">include/routines.h</text>
</a>
</g>
</g>
<!-- Node3&#45;&gt;Node18 -->
<g id="edge25" class="edge">
<title>Node3&#45;&gt;Node18</title>
<path fill="none" stroke="#191970" d="M504.9844,-282.6646C464.1351,-271.1578 402.9867,-253.9329 365.9567,-243.5019"/>
<polygon fill="#191970" stroke="#191970" points="504.0755,-286.0447 514.6499,-285.3873 505.9735,-279.3069 504.0755,-286.0447"/>
</g>
<!-- Node19 -->
<g id="node18" class="node">
<title>Node19</title>
<g id="a_node18"><a xlink:href="routines_8c.html" target="_top" xlink:title="src/routines.c">
<polygon fill="none" stroke="#000000" points="305.2686,-165.5 305.2686,-183.5 380.7314,-183.5 380.7314,-165.5 305.2686,-165.5"/>
<text text-anchor="middle" x="343" y="-171.5" font-family="Helvetica,sans-Serif" font-size="10.00" fill="#000000">src/routines.c</text>
</a>
</g>
</g>
<!-- Node3&#45;&gt;Node19 -->
<g id="edge35" class="edge">
<title>Node3&#45;&gt;Node19</title>
<path fill="none" stroke="#191970" d="M536.9594,-276.3292C526.7318,-259.4236 509.363,-234.6945 488,-220 455.6105,-197.721 411.8042,-185.9625 380.8432,-180.0253"/>
<polygon fill="#191970" stroke="#191970" points="534.0861,-278.3512 542.1324,-285.2439 540.1407,-274.838 534.0861,-278.3512"/>
</g>
<!-- Node20 -->
<g id="node19" class="node">
<title>Node20</title>
<g id="a_node19"><a xlink:href="toggle_8h.html" target="_top" xlink:title="include/toggle.h">
<polygon fill="none" stroke="#000000" points="182.9731,-225.5 182.9731,-243.5 269.0269,-243.5 269.0269,-225.5 182.9731,-225.5"/>
<text text-anchor="middle" x="226" y="-231.5" font-family="Helvetica,sans-Serif" font-size="10.00" fill="#000000">include/toggle.h</text>
</a>
</g>
</g>
<!-- Node3&#45;&gt;Node20 -->
<g id="edge28" class="edge">
<title>Node3&#45;&gt;Node20</title>
<path fill="none" stroke="#191970" d="M486.8955,-286.1699C432.1484,-278.1479 349.2201,-264.9074 278,-249 270.957,-247.4269 263.4463,-245.4883 256.3866,-243.5464"/>
<polygon fill="#191970" stroke="#191970" points="486.7195,-289.681 497.1188,-287.6552 487.7259,-282.7537 486.7195,-289.681"/>
</g>
<!-- Node22 -->
<g id="node21" class="node">
<title>Node22</title>
<g id="a_node21"><a xlink:href="controller_8c.html" target="_top" xlink:title="src/controller.c">
<polygon fill="none" stroke="#000000" points="398.7661,-225.5 398.7661,-243.5 479.2339,-243.5 479.2339,-225.5 398.7661,-225.5"/>
<text text-anchor="middle" x="439" y="-231.5" font-family="Helvetica,sans-Serif" font-size="10.00" fill="#000000">src/controller.c</text>
</a>
</g>
</g>
<!-- Node3&#45;&gt;Node22 -->
<g id="edge33" class="edge">
<title>Node3&#45;&gt;Node22</title>
<path fill="none" stroke="#191970" d="M521.7758,-280.4865C501.2281,-269.0712 472.828,-253.2933 455.2034,-243.5019"/>
<polygon fill="#191970" stroke="#191970" points="520.1558,-283.5904 530.5971,-285.3873 523.5553,-277.4713 520.1558,-283.5904"/>
</g>
<!-- Node5 -->
<g id="node4" class="node">
<title>Node5</title>
<g id="a_node4"><a xlink:href="auto_8h.html" target="_top" xlink:title="Autonomous declarations and macros. ">
<polygon fill="none" stroke="#000000" points="542.8647,-55.5 542.8647,-73.5 621.1353,-73.5 621.1353,-55.5 542.8647,-55.5"/>
<text text-anchor="middle" x="582" y="-61.5" font-family="Helvetica,sans-Serif" font-size="10.00" fill="#000000">include/auto.h</text>
</a>
</g>
</g>
<!-- Node4&#45;&gt;Node5 -->
<g id="edge3" class="edge">
<title>Node4&#45;&gt;Node5</title>
<path fill="none" stroke="#191970" d="M126.1308,-218.9148C146.1822,-203.2763 179.1436,-179.4878 211,-165 325.8067,-112.7876 473.3111,-82.8916 542.6566,-70.8193"/>
<polygon fill="#191970" stroke="#191970" points="123.7832,-216.3095 118.1226,-225.2655 128.1327,-221.7943 123.7832,-216.3095"/>
</g>
<!-- Node7 -->
<g id="node6" class="node">
<title>Node7</title>
<g id="a_node6"><a xlink:href="claw_8c.html" target="_top" xlink:title="src/claw.c">
<polygon fill="none" stroke="#000000" points="66.3276,-165.5 66.3276,-183.5 125.6724,-183.5 125.6724,-165.5 66.3276,-165.5"/>
<text text-anchor="middle" x="96" y="-171.5" font-family="Helvetica,sans-Serif" font-size="10.00" fill="#000000">src/claw.c</text>
</a>
</g>
</g>
<!-- Node4&#45;&gt;Node7 -->
<g id="edge5" class="edge">
<title>Node4&#45;&gt;Node7</title>
<path fill="none" stroke="#191970" d="M103.4935,-215.3734C101.5516,-204.7812 99.2262,-192.0976 97.6864,-183.6985"/>
<polygon fill="#191970" stroke="#191970" points="100.0834,-216.1824 105.3293,-225.3873 106.9686,-214.92 100.0834,-216.1824"/>
</g>
<!-- Node4&#45;&gt;Node8 -->
<g id="edge6" class="edge">
<title>Node4&#45;&gt;Node8</title>
<path fill="none" stroke="#191970" d="M83.8484,-219.5695C64.9126,-205.4664 43.3211,-183.7406 57,-165 89.7331,-120.1545 253.1789,-85.5629 330.4281,-71.4379"/>
<polygon fill="#191970" stroke="#191970" points="82.0356,-222.5738 92.2256,-225.4748 86.0688,-216.8525 82.0356,-222.5738"/>
</g>
<!-- Node6 -->
<g id="node5" class="node">
<title>Node6</title>
<g id="a_node5"><a xlink:href="auto_8c.html" target="_top" xlink:title="File for autonomous code. ">
<polygon fill="none" stroke="#000000" points="552.3252,-.5 552.3252,-18.5 611.6748,-18.5 611.6748,-.5 552.3252,-.5"/>
<text text-anchor="middle" x="582" y="-6.5" font-family="Helvetica,sans-Serif" font-size="10.00" fill="#000000">src/auto.c</text>
</a>
</g>
</g>
<!-- Node5&#45;&gt;Node6 -->
<g id="edge4" class="edge">
<title>Node5&#45;&gt;Node6</title>
<path fill="none" stroke="#191970" d="M582,-45.383C582,-36.3738 582,-26.0373 582,-18.7795"/>
<polygon fill="#191970" stroke="#191970" points="578.5001,-45.4178 582,-55.4179 585.5001,-45.4179 578.5001,-45.4178"/>
</g>
<!-- Node10 -->
<g id="node9" class="node">
<title>Node10</title>
<g id="a_node9"><a xlink:href="drive_8h.html" target="_top" xlink:title="Drive base definitions and enumerations. ">
<polygon fill="none" stroke="#000000" points="746.7588,-165.5 746.7588,-183.5 827.2412,-183.5 827.2412,-165.5 746.7588,-165.5"/>
<text text-anchor="middle" x="787" y="-171.5" font-family="Helvetica,sans-Serif" font-size="10.00" fill="#000000">include/drive.h</text>
</a>
</g>
</g>
<!-- Node9&#45;&gt;Node10 -->
<g id="edge8" class="edge">
<title>Node9&#45;&gt;Node10</title>
<path fill="none" stroke="#191970" d="M723.1769,-219.5516C739.2262,-208.2227 760.751,-193.0287 774.2473,-183.5019"/>
<polygon fill="#191970" stroke="#191970" points="721.061,-216.761 714.9097,-225.3873 725.0978,-222.4798 721.061,-216.761"/>
</g>
<!-- Node9&#45;&gt;Node11 -->
<g id="edge17" class="edge">
<title>Node9&#45;&gt;Node11</title>
<path fill="none" stroke="#191970" d="M749.5058,-222.7343C783.7587,-213.1782 825.7014,-198.8869 836,-184 850.0011,-163.7611 821.9624,-141.0517 802.8174,-128.7071"/>
<polygon fill="#191970" stroke="#191970" points="748.3556,-219.4199 739.6248,-225.4219 750.1929,-226.1745 748.3556,-219.4199"/>
</g>
<!-- Node15 -->
<g id="node14" class="node">
<title>Node15</title>
<g id="a_node14"><a xlink:href="mobile__goal__intake_8c.html" target="_top" xlink:title="src/mobile_goal_intake.c">
<polygon fill="none" stroke="#000000" points="512.9707,-165.5 512.9707,-183.5 639.0293,-183.5 639.0293,-165.5 512.9707,-165.5"/>
<text text-anchor="middle" x="576" y="-171.5" font-family="Helvetica,sans-Serif" font-size="10.00" fill="#000000">src/mobile_goal_intake.c</text>
</a>
</g>
</g>
<!-- Node9&#45;&gt;Node15 -->
<g id="edge18" class="edge">
<title>Node9&#45;&gt;Node15</title>
<path fill="none" stroke="#191970" d="M673.5385,-220.9469C649.4972,-209.4987 615.7439,-193.4257 594.9039,-183.5019"/>
<polygon fill="#191970" stroke="#191970" points="672.3299,-224.2479 682.8633,-225.3873 675.3395,-217.9279 672.3299,-224.2479"/>
</g>
<!-- Node16 -->
<g id="node15" class="node">
<title>Node16</title>
<g id="a_node15"><a xlink:href="partner_8c.html" target="_top" xlink:title="src/partner.c">
<polygon fill="none" stroke="#000000" points="657.4878,-165.5 657.4878,-183.5 728.5122,-183.5 728.5122,-165.5 657.4878,-165.5"/>
<text text-anchor="middle" x="693" y="-171.5" font-family="Helvetica,sans-Serif" font-size="10.00" fill="#000000">src/partner.c</text>
</a>
</g>
</g>
<!-- Node9&#45;&gt;Node16 -->
<g id="edge19" class="edge">
<title>Node9&#45;&gt;Node16</title>
<path fill="none" stroke="#191970" d="M699.131,-215.3734C697.5422,-204.7812 695.6396,-192.0976 694.3798,-183.6985"/>
<polygon fill="#191970" stroke="#191970" points="695.6883,-216.0171 700.6331,-225.3873 702.6109,-214.9787 695.6883,-216.0171"/>
</g>
<!-- Node10&#45;&gt;Node5 -->
<g id="edge9" class="edge">
<title>Node10&#45;&gt;Node5</title>
<path fill="none" stroke="#191970" d="M761.3282,-160.7249C718.8225,-137.917 634.9532,-92.9139 599.0078,-73.6261"/>
<polygon fill="#191970" stroke="#191970" points="759.7575,-163.8541 770.224,-165.4982 763.0673,-157.6859 759.7575,-163.8541"/>
</g>
<!-- Node10&#45;&gt;Node8 -->
<g id="edge16" class="edge">
<title>Node10&#45;&gt;Node8</title>
<path fill="none" stroke="#191970" d="M743.0451,-162.8773C659.7103,-140.8417 480.3636,-93.4183 405.2212,-73.5489"/>
<polygon fill="#191970" stroke="#191970" points="742.3945,-166.3255 752.957,-165.4982 744.184,-159.5581 742.3945,-166.3255"/>
</g>
<!-- Node10&#45;&gt;Node11 -->
<g id="edge10" class="edge">
<title>Node10&#45;&gt;Node11</title>
<path fill="none" stroke="#191970" d="M787,-155.383C787,-146.3738 787,-136.0373 787,-128.7795"/>
<polygon fill="#191970" stroke="#191970" points="783.5001,-155.4178 787,-165.4179 790.5001,-155.4179 783.5001,-155.4178"/>
</g>
<!-- Node10&#45;&gt;Node14 -->
<g id="edge15" class="edge">
<title>Node10&#45;&gt;Node14</title>
<path fill="none" stroke="#191970" d="M820.4279,-161.7324C846.9992,-151.5837 883.5148,-137.6367 907.186,-128.5956"/>
<polygon fill="#191970" stroke="#191970" points="818.8716,-158.5801 810.7787,-165.4179 821.3693,-165.1194 818.8716,-158.5801"/>
</g>
<!-- Node11&#45;&gt;Node5 -->
<g id="edge11" class="edge">
<title>Node11&#45;&gt;Node5</title>
<path fill="none" stroke="#191970" d="M743.3262,-107.7826C705.1179,-97.5316 650.4232,-82.8575 615.5611,-73.5042"/>
<polygon fill="#191970" stroke="#191970" points="742.583,-111.207 753.1484,-110.4179 744.397,-104.4461 742.583,-111.207"/>
</g>
<!-- Node11&#45;&gt;Node8 -->
<g id="edge14" class="edge">
<title>Node11&#45;&gt;Node8</title>
<path fill="none" stroke="#191970" d="M738.0716,-113.0311C655.1598,-102.0692 488.5797,-80.0454 411.6497,-69.8744"/>
<polygon fill="#191970" stroke="#191970" points="737.8648,-116.5341 748.2373,-114.3751 738.7823,-109.5945 737.8648,-116.5341"/>
</g>
<!-- Node12 -->
<g id="node11" class="node">
<title>Node12</title>
<g id="a_node11"><a xlink:href="init_8c.html" target="_top" xlink:title="File for initialization code. ">
<polygon fill="none" stroke="#000000" points="723.665,-55.5 723.665,-73.5 776.335,-73.5 776.335,-55.5 723.665,-55.5"/>
<text text-anchor="middle" x="750" y="-61.5" font-family="Helvetica,sans-Serif" font-size="10.00" fill="#000000">src/init.c</text>
</a>
</g>
</g>
<!-- Node11&#45;&gt;Node12 -->
<g id="edge12" class="edge">
<title>Node11&#45;&gt;Node12</title>
<path fill="none" stroke="#191970" d="M775.1299,-101.8553C768.8491,-92.519 761.3934,-81.4361 756.2425,-73.7795"/>
<polygon fill="#191970" stroke="#191970" points="772.4044,-104.0743 780.8902,-110.4179 778.2124,-100.167 772.4044,-104.0743"/>
</g>
<!-- Node13 -->
<g id="node12" class="node">
<title>Node13</title>
<g id="a_node12"><a xlink:href="lifter_8c.html" target="_top" xlink:title="src/lifter.c">
<polygon fill="none" stroke="#000000" points="793.8843,-55.5 793.8843,-73.5 852.1157,-73.5 852.1157,-55.5 793.8843,-55.5"/>
<text text-anchor="middle" x="823" y="-61.5" font-family="Helvetica,sans-Serif" font-size="10.00" fill="#000000">src/lifter.c</text>
</a>
</g>
</g>
<!-- Node11&#45;&gt;Node13 -->
<g id="edge13" class="edge">
<title>Node11&#45;&gt;Node13</title>
<path fill="none" stroke="#191970" d="M798.5492,-101.8553C804.6603,-92.519 811.9145,-81.4361 816.9262,-73.7795"/>
<polygon fill="#191970" stroke="#191970" points="795.4928,-100.134 792.9447,-110.4179 801.3498,-103.9677 795.4928,-100.134"/>
</g>
<!-- Node17&#45;&gt;Node5 -->
<g id="edge22" class="edge">
<title>Node17&#45;&gt;Node5</title>
<path fill="none" stroke="#191970" d="M538.1186,-215.707C524.6567,-208.0098 511.6614,-197.6295 504,-184 479.963,-141.2385 539.7683,-93.1381 568.1014,-73.5376"/>
<polygon fill="#191970" stroke="#191970" points="536.5036,-218.8121 546.9811,-220.3848 539.7712,-212.6216 536.5036,-218.8121"/>
</g>
<!-- Node17&#45;&gt;Node8 -->
<g id="edge24" class="edge">
<title>Node17&#45;&gt;Node8</title>
<path fill="none" stroke="#191970" d="M547.7371,-215.8754C530.8798,-207.1492 511.3436,-196.0285 495,-184 446.6009,-148.3795 397.7612,-95.0261 379.0094,-73.745"/>
<polygon fill="#191970" stroke="#191970" points="546.2878,-219.0647 556.7894,-220.4674 549.4547,-212.822 546.2878,-219.0647"/>
</g>
<!-- Node17&#45;&gt;Node15 -->
<g id="edge23" class="edge">
<title>Node17&#45;&gt;Node15</title>
<path fill="none" stroke="#191970" d="M582.5478,-210.2151C580.8263,-200.8253 578.9626,-190.6598 577.6654,-183.5842"/>
<polygon fill="#191970" stroke="#191970" points="579.1472,-211.0759 584.3932,-220.2808 586.0324,-209.8136 579.1472,-211.0759"/>
</g>
<!-- Node18&#45;&gt;Node8 -->
<g id="edge26" class="edge">
<title>Node18&#45;&gt;Node8</title>
<path fill="none" stroke="#191970" d="M358.3068,-219.7099C370.2477,-210.9689 383.4499,-198.727 390,-184 407.0741,-145.6116 385.8732,-94.268 375.7808,-73.6422"/>
<polygon fill="#191970" stroke="#191970" points="356.2162,-216.8996 349.9481,-225.4413 360.1748,-222.6728 356.2162,-216.8996"/>
</g>
<!-- Node18&#45;&gt;Node19 -->
<g id="edge27" class="edge">
<title>Node18&#45;&gt;Node19</title>
<path fill="none" stroke="#191970" d="M336.869,-215.3734C338.4578,-204.7812 340.3604,-192.0976 341.6202,-183.6985"/>
<polygon fill="#191970" stroke="#191970" points="333.3891,-214.9787 335.3669,-225.3873 340.3117,-216.0171 333.3891,-214.9787"/>
</g>
<!-- Node20&#45;&gt;Node7 -->
<g id="edge29" class="edge">
<title>Node20&#45;&gt;Node7</title>
<path fill="none" stroke="#191970" d="M196.9651,-221.0993C172.1403,-209.6417 137.1011,-193.4698 115.5041,-183.5019"/>
<polygon fill="#191970" stroke="#191970" points="195.7095,-224.3745 206.2558,-225.3873 198.6429,-218.0188 195.7095,-224.3745"/>
</g>
<!-- Node20&#45;&gt;Node8 -->
<g id="edge30" class="edge">
<title>Node20&#45;&gt;Node8</title>
<path fill="none" stroke="#191970" d="M215.5068,-216.328C208.5454,-201.6843 202.1692,-180.9751 211,-165 238.5338,-115.1904 302.2382,-86.7341 340.4382,-73.5661"/>
<polygon fill="#191970" stroke="#191970" points="212.4995,-218.13 220.2401,-225.3643 218.7004,-214.8819 212.4995,-218.13"/>
</g>
<!-- Node20&#45;&gt;Node19 -->
<g id="edge31" class="edge">
<title>Node20&#45;&gt;Node19</title>
<path fill="none" stroke="#191970" d="M252.7267,-220.794C275.0309,-209.3559 306.181,-193.3815 325.4463,-183.5019"/>
<polygon fill="#191970" stroke="#191970" points="251.0708,-217.7097 243.7698,-225.3873 254.2651,-223.9384 251.0708,-217.7097"/>
</g>
<!-- Node21 -->
<g id="node20" class="node">
<title>Node21</title>
<g id="a_node20"><a xlink:href="toggle_8c.html" target="_top" xlink:title="src/toggle.c">
<polygon fill="none" stroke="#000000" points="220.4336,-165.5 220.4336,-183.5 287.5664,-183.5 287.5664,-165.5 220.4336,-165.5"/>
<text text-anchor="middle" x="254" y="-171.5" font-family="Helvetica,sans-Serif" font-size="10.00" fill="#000000">src/toggle.c</text>
</a>
</g>
</g>
<!-- Node20&#45;&gt;Node21 -->
<g id="edge32" class="edge">
<title>Node20&#45;&gt;Node21</title>
<path fill="none" stroke="#191970" d="M234.6149,-216.0396C239.6186,-205.3172 245.7053,-192.2744 249.7074,-183.6985"/>
<polygon fill="#191970" stroke="#191970" points="231.3099,-214.8453 230.2526,-225.3873 237.6532,-217.8056 231.3099,-214.8453"/>
</g>
</g>
</svg>
        <g id="navigator" transform="translate(0 0)" fill="#404254">
                <rect fill="#f2f5e9" fill-opacity="0.5" stroke="#606060" stroke-width=".5" x="0" y="0" width="60" height="60"/>
                <use id="zoomplus" xlink:href="#zoomPlus" x="17" y="9" onmousedown="handleZoom(evt,'in')"/>
                <use id="zoomminus" xlink:href="#zoomMin" x="42" y="9" onmousedown="handleZoom(evt,'out')"/>
                <use id="reset" xlink:href="#resetDef" x="30" y="36" onmousedown="handleReset()"/>
                <g id="arrowUp" xlink:href="#dirArrow" transform="translate(30 24)" onmousedown="handlePan(0,-1)">
                  <use xlink:href="#rim" fill="#404040">
                        <set attributeName="fill" to="#808080" begin="arrowUp.mouseover" end="arrowUp.mouseout"/>
                  </use>
                  <path fill="none" stroke="white" stroke-width="1.5" d="M0,-3.0v7 M-2.5,-0.5L0,-3.0L2.5,-0.5"/>
                </g>
                <g id="arrowRight" xlink:href="#dirArrow" transform="rotate(90) translate(36 -43)" onmousedown="handlePan(1,0)">
                  <use xlink:href="#rim" fill="#404040">
                        <set attributeName="fill" to="#808080" begin="arrowRight.mouseover" end="arrowRight.mouseout"/>
                  </use>
                  <path fill="none" stroke="white" stroke-width="1.5" d="M0,-3.0v7 M-2.5,-0.5L0,-3.0L2.5,-0.5"/>
                </g>
                <g id="arrowDown" xlink:href="#dirArrow" transform="rotate(180) translate(-30 -48)" onmousedown="handlePan(0,1)">
                  <use xlink:href="#rim" fill="#404040">
                        <set attributeName="fill" to="#808080" begin="arrowDown.mouseover" end="arrowDown.mouseout"/>
                  </use>
                  <path fill="none" stroke="white" stroke-width="1.5" d="M0,-3.0v7 M-2.5,-0.5L0,-3.0L2.5,-0.5"/>
                </g>
                <g id="arrowLeft" xlink:href="#dirArrow" transform="rotate(270) translate(-36 17)" onmousedown="handlePan(-1,0)">
                  <use xlink:href="#rim" fill="#404040">
                        <set attributeName="fill" to="#808080" begin="arrowLeft.mouseover" end="arrowLeft.mouseout"/>
                  </use>
                  <path fill="none" stroke="white" stroke-width="1.5" d="M0,-3.0v7 M-2.5,-0.5L0,-3.0L2.5,-0.5"/>
                </g>
        </g>
        <svg viewBox="0 0 15 15" width="100%" height="30px" preserveAspectRatio="xMaxYMin meet">
         <g id="arrow_out" transform="scale(0.3 0.3)">
          <a xlink:href="vmath_8h__dep__incl_org.svg" target="_base">
           <rect id="button" ry="5" rx="5" y="6" x="6" height="38" width="38"
                fill="#f2f5e9" fill-opacity="0.5" stroke="#606060" stroke-width="1.0"/>
           <path id="arrow"
             d="M 11.500037,31.436501 C 11.940474,20.09759 22.043105,11.32322 32.158766,21.979434 L 37.068811,17.246167 C 37.068811,17.246167 37.088388,32 37.088388,32 L 22.160133,31.978069 C 22.160133,31.978069 26.997745,27.140456 26.997745,27.140456 C 18.528582,18.264221 13.291696,25.230495 11.500037,31.436501 z"
             style="fill:#404040;"/>
          </a>
         </g>
        </svg>
</svg>
