<?xml version="1.0" encoding="UTF-8" standalone="no"?>
<!DOCTYPE svg PUBLIC "-//W3C//DTD SVG 1.1//EN"
 "http://www.w3.org/Graphics/SVG/1.1/DTD/svg11.dtd">
<!-- Generated by graphviz version 2.40.1 (20161225.0304)
 -->
<!-- Title: cartesian_to_polar Pages: 1 -->
<svg width="412pt" height="27pt"
 viewBox="0.00 0.00 411.51 27.00" xmlns="http://www.w3.org/2000/svg" xmlns:xlink="http://www.w3.org/1999/xlink">
<g id="graph0" class="graph" transform="scale(1 1) rotate(0) translate(4 23)">
<title>cartesian_to_polar</title>
<!-- Node5 -->
<g id="node1" class="node">
<title>Node5</title>
<polygon fill="#bfbfbf" stroke="#000000" points="0,-.5 0,-18.5 98.2754,-18.5 98.2754,-.5 0,-.5"/>
<text text-anchor="middle" x="49.1377" y="-6.5" font-family="Helvetica,sans-Serif" font-size="10.00" fill="#000000">cartesian_to_polar</text>
</g>
<!-- Node6 -->
<g id="node2" class="node">
<title>Node6</title>
<g id="a_node2"><a xlink:href="vmath_8c.html#a832105cf858b3046c57c0d08a4e7c38b" target="_top" xlink:title="Function to convert x and y 2 dimensional cartesian cordinated to polar coordinates. ">
<polygon fill="none" stroke="#000000" points="134.2754,-.5 134.2754,-18.5 257.5654,-18.5 257.5654,-.5 134.2754,-.5"/>
<text text-anchor="middle" x="195.9204" y="-6.5" font-family="Helvetica,sans-Serif" font-size="10.00" fill="#000000">cartesian_cord_to_polar</text>
</a>
</g>
</g>
<!-- Node5&#45;&gt;Node6 -->
<g id="edge1" class="edge">
<title>Node5&#45;&gt;Node6</title>
<path fill="none" stroke="#191970" d="M108.5801,-9.5C117.0378,-9.5 125.7522,-9.5 134.2512,-9.5"/>
<polygon fill="#191970" stroke="#191970" points="108.4226,-6.0001 98.4225,-9.5 108.4225,-13.0001 108.4226,-6.0001"/>
</g>
<!-- Node7 -->
<g id="node3" class="node">
<title>Node7</title>
<g id="a_node3"><a xlink:href="drive_8c.html#a8224a4626a934d30ed587671b7004bf8" target="_top" xlink:title="Updates the drive motors during teleop. ">
<polygon fill="none" stroke="#000000" points="293.5654,-.5 293.5654,-18.5 403.5107,-18.5 403.5107,-.5 293.5654,-.5"/>
<text text-anchor="middle" x="348.5381" y="-6.5" font-family="Helvetica,sans-Serif" font-size="10.00" fill="#000000">update_drive_motors</text>
</a>
</g>
</g>
<!-- Node6&#45;&gt;Node7 -->
<g id="edge2" class="edge">
<title>Node6&#45;&gt;Node7</title>
<path fill="none" stroke="#191970" d="M268.2465,-9.5C276.6997,-9.5 285.2182,-9.5 293.3857,-9.5"/>
<polygon fill="#191970" stroke="#191970" points="267.9959,-6.0001 257.9959,-9.5 267.9958,-13.0001 267.9959,-6.0001"/>
</g>
</g>
</svg>
