<?xml version="1.0" encoding="UTF-8" standalone="no"?>
<!DOCTYPE svg PUBLIC "-//W3C//DTD SVG 1.1//EN"
 "http://www.w3.org/Graphics/SVG/1.1/DTD/svg11.dtd">
<!-- Generated by graphviz version 2.40.1 (20161225.0304)
 -->
<!-- Title: include/vmath.h Pages: 1 -->
<svg width="508pt" height="202pt"
 viewBox="0.00 0.00 507.79 202.00" xmlns="http://www.w3.org/2000/svg" xmlns:xlink="http://www.w3.org/1999/xlink">
<g id="graph0" class="graph" transform="scale(1 1) rotate(0) translate(4 198)">
<title>include/vmath.h</title>
<!-- Node2 -->
<g id="node1" class="node">
<title>Node2</title>
<polygon fill="#bfbfbf" stroke="#000000" points="361.2144,-175.5 361.2144,-193.5 447.2534,-193.5 447.2534,-175.5 361.2144,-175.5"/>
<text text-anchor="middle" x="404.2339" y="-181.5" font-family="Helvetica,sans-Serif" font-size="10.00" fill="#000000">include/vmath.h</text>
</g>
<!-- Node3 -->
<g id="node2" class="node">
<title>Node3</title>
<g id="a_node2"><a xlink:href="controller_8h.html" target="_top" xlink:title="controller definitions, macros ">
<polygon fill="none" stroke="#000000" points="237.5396,-120.5 237.5396,-138.5 336.9282,-138.5 336.9282,-120.5 237.5396,-120.5"/>
<text text-anchor="middle" x="287.2339" y="-126.5" font-family="Helvetica,sans-Serif" font-size="10.00" fill="#000000">include/controller.h</text>
</a>
</g>
</g>
<!-- Node2&#45;&gt;Node3 -->
<g id="edge1" class="edge">
<title>Node2&#45;&gt;Node3</title>
<path fill="none" stroke="#191970" d="M375.6355,-171.0563C354.1826,-160.9716 325.392,-147.4376 306.5828,-138.5956"/>
<polygon fill="#191970" stroke="#191970" points="374.3748,-174.331 384.9137,-175.4179 377.3528,-167.9961 374.3748,-174.331"/>
</g>
<!-- Node12 -->
<g id="node11" class="node">
<title>Node12</title>
<g id="a_node11"><a xlink:href="drive_8c.html" target="_top" xlink:title="src/drive.c">
<polygon fill="none" stroke="#000000" points="412.4531,-60.5 412.4531,-78.5 474.0146,-78.5 474.0146,-60.5 412.4531,-60.5"/>
<text text-anchor="middle" x="443.2339" y="-66.5" font-family="Helvetica,sans-Serif" font-size="10.00" fill="#000000">src/drive.c</text>
</a>
</g>
</g>
<!-- Node2&#45;&gt;Node12 -->
<g id="edge13" class="edge">
<title>Node2&#45;&gt;Node12</title>
<path fill="none" stroke="#191970" d="M409.4257,-165.1995C413.0142,-152.3076 418.0579,-135.0241 423.2339,-120 428.2712,-105.3784 435.0625,-88.7655 439.2931,-78.7134"/>
<polygon fill="#191970" stroke="#191970" points="405.9442,-164.662 406.68,-175.2312 412.6959,-166.51 405.9442,-164.662"/>
</g>
<!-- Node13 -->
<g id="node12" class="node">
<title>Node13</title>
<g id="a_node12"><a xlink:href="vmath_8c.html" target="_top" xlink:title="src/vmath.c">
<polygon fill="none" stroke="#000000" points="432.6748,-120.5 432.6748,-138.5 499.793,-138.5 499.793,-120.5 432.6748,-120.5"/>
<text text-anchor="middle" x="466.2339" y="-126.5" font-family="Helvetica,sans-Serif" font-size="10.00" fill="#000000">src/vmath.c</text>
</a>
</g>
</g>
<!-- Node2&#45;&gt;Node13 -->
<g id="edge14" class="edge">
<title>Node2&#45;&gt;Node13</title>
<path fill="none" stroke="#191970" d="M422.1754,-168.5841C433.0721,-158.9177 446.6028,-146.9147 455.7734,-138.7795"/>
<polygon fill="#191970" stroke="#191970" points="419.63,-166.1634 414.4719,-175.4179 424.2754,-171.4 419.63,-166.1634"/>
</g>
<!-- Node4 -->
<g id="node3" class="node">
<title>Node4</title>
<g id="a_node3"><a xlink:href="claw_8h.html" target="_top" xlink:title="include/claw.h">
<polygon fill="none" stroke="#000000" points="98.1011,-60.5 98.1011,-78.5 176.3667,-78.5 176.3667,-60.5 98.1011,-60.5"/>
<text text-anchor="middle" x="137.2339" y="-66.5" font-family="Helvetica,sans-Serif" font-size="10.00" fill="#000000">include/claw.h</text>
</a>
</g>
</g>
<!-- Node3&#45;&gt;Node4 -->
<g id="edge2" class="edge">
<title>Node3&#45;&gt;Node4</title>
<path fill="none" stroke="#191970" d="M254.8665,-116.553C226.1642,-105.0721 184.9891,-88.6021 159.7386,-78.5019"/>
<polygon fill="#191970" stroke="#191970" points="253.8675,-119.923 264.4521,-120.3873 256.4672,-113.4237 253.8675,-119.923"/>
</g>
<!-- Node7 -->
<g id="node6" class="node">
<title>Node7</title>
<g id="a_node6"><a xlink:href="lifter_8h.html" target="_top" xlink:title="include/lifter.h">
<polygon fill="none" stroke="#000000" points="194.6577,-60.5 194.6577,-78.5 271.8101,-78.5 271.8101,-60.5 194.6577,-60.5"/>
<text text-anchor="middle" x="233.2339" y="-66.5" font-family="Helvetica,sans-Serif" font-size="10.00" fill="#000000">include/lifter.h</text>
</a>
</g>
</g>
<!-- Node3&#45;&gt;Node7 -->
<g id="edge5" class="edge">
<title>Node3&#45;&gt;Node7</title>
<path fill="none" stroke="#191970" d="M272.0943,-112.6783C262.1902,-101.6737 249.6287,-87.7165 241.5125,-78.6985"/>
<polygon fill="#191970" stroke="#191970" points="269.7412,-115.2957 279.0324,-120.3873 274.9443,-110.6129 269.7412,-115.2957"/>
</g>
<!-- Node9 -->
<g id="node8" class="node">
<title>Node9</title>
<g id="a_node8"><a xlink:href="mobile__goal__intake_8h.html" target="_top" xlink:title="include/mobile_goal\l_intake.h">
<polygon fill="none" stroke="#000000" points="290.0371,-55.5 290.0371,-83.5 394.4307,-83.5 394.4307,-55.5 290.0371,-55.5"/>
<text text-anchor="start" x="298.0371" y="-71.5" font-family="Helvetica,sans-Serif" font-size="10.00" fill="#000000">include/mobile_goal</text>
<text text-anchor="middle" x="342.2339" y="-61.5" font-family="Helvetica,sans-Serif" font-size="10.00" fill="#000000">_intake.h</text>
</a>
</g>
</g>
<!-- Node3&#45;&gt;Node9 -->
<g id="edge8" class="edge">
<title>Node3&#45;&gt;Node9</title>
<path fill="none" stroke="#191970" d="M302.5987,-112.7384C310.9301,-103.6496 321.1203,-92.533 329.0819,-83.8477"/>
<polygon fill="#191970" stroke="#191970" points="299.7644,-110.6507 295.5872,-120.3873 304.9245,-115.3808 299.7644,-110.6507"/>
</g>
<!-- Node11 -->
<g id="node10" class="node">
<title>Node11</title>
<g id="a_node10"><a xlink:href="controller_8c.html" target="_top" xlink:title="src/controller.c">
<polygon fill="none" stroke="#000000" points="0,-60.5 0,-78.5 80.4678,-78.5 80.4678,-60.5 0,-60.5"/>
<text text-anchor="middle" x="40.2339" y="-66.5" font-family="Helvetica,sans-Serif" font-size="10.00" fill="#000000">src/controller.c</text>
</a>
</g>
</g>
<!-- Node3&#45;&gt;Node11 -->
<g id="edge11" class="edge">
<title>Node3&#45;&gt;Node11</title>
<path fill="none" stroke="#191970" d="M234.7516,-118.3666C194.7193,-109.6504 138.2947,-96.8829 89.2339,-84 82.8842,-82.3326 76.1111,-80.4176 69.69,-78.5375"/>
<polygon fill="#191970" stroke="#191970" points="234.0471,-121.7951 244.5616,-120.4928 235.53,-114.9539 234.0471,-121.7951"/>
</g>
<!-- Node3&#45;&gt;Node12 -->
<g id="edge12" class="edge">
<title>Node3&#45;&gt;Node12</title>
<path fill="none" stroke="#191970" d="M320.5057,-116.7032C350.3721,-105.2161 393.4538,-88.6462 419.829,-78.5019"/>
<polygon fill="#191970" stroke="#191970" points="319.0039,-113.5307 310.9269,-120.3873 321.5168,-120.0642 319.0039,-113.5307"/>
</g>
<!-- Node5 -->
<g id="node4" class="node">
<title>Node5</title>
<g id="a_node4"><a xlink:href="claw_8c.html" target="_top" xlink:title="src/claw.c">
<polygon fill="none" stroke="#000000" points="73.5615,-.5 73.5615,-18.5 132.9063,-18.5 132.9063,-.5 73.5615,-.5"/>
<text text-anchor="middle" x="103.2339" y="-6.5" font-family="Helvetica,sans-Serif" font-size="10.00" fill="#000000">src/claw.c</text>
</a>
</g>
</g>
<!-- Node4&#45;&gt;Node5 -->
<g id="edge3" class="edge">
<title>Node4&#45;&gt;Node5</title>
<path fill="none" stroke="#191970" d="M126.9605,-51.3704C120.8496,-40.5866 113.3562,-27.3629 108.4464,-18.6985"/>
<polygon fill="#191970" stroke="#191970" points="124.0948,-53.4126 132.07,-60.3873 130.1849,-49.9615 124.0948,-53.4126"/>
</g>
<!-- Node6 -->
<g id="node5" class="node">
<title>Node6</title>
<g id="a_node5"><a xlink:href="opcontrol_8c.html" target="_top" xlink:title="File for operator control code. ">
<polygon fill="none" stroke="#000000" points="227.7217,-.5 227.7217,-18.5 308.7461,-18.5 308.7461,-.5 227.7217,-.5"/>
<text text-anchor="middle" x="268.2339" y="-6.5" font-family="Helvetica,sans-Serif" font-size="10.00" fill="#000000">src/opcontrol.c</text>
</a>
</g>
</g>
<!-- Node4&#45;&gt;Node6 -->
<g id="edge4" class="edge">
<title>Node4&#45;&gt;Node6</title>
<path fill="none" stroke="#191970" d="M166.4921,-56.0993C191.5079,-44.6417 226.8166,-28.4698 248.5798,-18.5019"/>
<polygon fill="#191970" stroke="#191970" points="164.7642,-53.041 157.13,-60.3873 167.6792,-59.4052 164.7642,-53.041"/>
</g>
<!-- Node7&#45;&gt;Node6 -->
<g id="edge7" class="edge">
<title>Node7&#45;&gt;Node6</title>
<path fill="none" stroke="#191970" d="M243.6173,-51.6998C249.9423,-40.8569 257.7623,-27.4513 262.8681,-18.6985"/>
<polygon fill="#191970" stroke="#191970" points="240.5652,-49.9859 238.5496,-60.3873 246.6116,-53.5131 240.5652,-49.9859"/>
</g>
<!-- Node8 -->
<g id="node7" class="node">
<title>Node8</title>
<g id="a_node7"><a xlink:href="lifter_8c.html" target="_top" xlink:title="src/lifter.c">
<polygon fill="none" stroke="#000000" points="151.1182,-.5 151.1182,-18.5 209.3496,-18.5 209.3496,-.5 151.1182,-.5"/>
<text text-anchor="middle" x="180.2339" y="-6.5" font-family="Helvetica,sans-Serif" font-size="10.00" fill="#000000">src/lifter.c</text>
</a>
</g>
</g>
<!-- Node7&#45;&gt;Node8 -->
<g id="edge6" class="edge">
<title>Node7&#45;&gt;Node8</title>
<path fill="none" stroke="#191970" d="M218.3747,-52.6783C208.654,-41.6737 196.3251,-27.7165 188.3592,-18.6985"/>
<polygon fill="#191970" stroke="#191970" points="215.9408,-55.2097 225.1843,-60.3873 221.1871,-50.5754 215.9408,-55.2097"/>
</g>
<!-- Node9&#45;&gt;Node6 -->
<g id="edge10" class="edge">
<title>Node9&#45;&gt;Node6</title>
<path fill="none" stroke="#191970" d="M316.7073,-48.8028C304.0007,-38.5001 289.2904,-26.5728 279.4377,-18.5842"/>
<polygon fill="#191970" stroke="#191970" points="314.725,-51.7014 324.6969,-55.2808 319.1337,-46.2641 314.725,-51.7014"/>
</g>
<!-- Node10 -->
<g id="node9" class="node">
<title>Node10</title>
<g id="a_node9"><a xlink:href="mobile__goal__intake_8c.html" target="_top" xlink:title="src/mobile_goal_intake.c">
<polygon fill="none" stroke="#000000" points="327.2046,-.5 327.2046,-18.5 453.2632,-18.5 453.2632,-.5 327.2046,-.5"/>
<text text-anchor="middle" x="390.2339" y="-6.5" font-family="Helvetica,sans-Serif" font-size="10.00" fill="#000000">src/mobile_goal_intake.c</text>
</a>
</g>
</g>
<!-- Node9&#45;&gt;Node10 -->
<g id="edge9" class="edge">
<title>Node9&#45;&gt;Node10</title>
<path fill="none" stroke="#191970" d="M359.9775,-47.3205C367.9354,-37.3731 376.88,-26.1924 382.9665,-18.5842"/>
<polygon fill="#191970" stroke="#191970" points="357.1232,-45.2857 353.6092,-55.2808 362.5893,-49.6586 357.1232,-45.2857"/>
</g>
</g>
</svg>
