<?xml version="1.0" encoding="UTF-8" standalone="no"?>
<!DOCTYPE svg PUBLIC "-//W3C//DTD SVG 1.1//EN"
 "http://www.w3.org/Graphics/SVG/1.1/DTD/svg11.dtd">
<!-- Generated by graphviz version 2.40.1 (20161225.0304)
 -->
<!-- Title: include/vmath.h Pages: 1 -->
<!--zoomable 367 -->
<svg id="main" version="1.1" xmlns="http://www.w3.org/2000/svg" xmlns:xlink="http://www.w3.org/1999/xlink" xml:space="preserve" onload="init(evt)">
<style type="text/css"><![CDATA[
.edge:hover path { stroke: red; }
.edge:hover polygon { stroke: red; fill: red; }
]]></style>
<script type="text/javascript"><![CDATA[
var edges = document.getElementsByTagName('g');
if (edges && edges.length) {
  for (var i=0;i<edges.length;i++) {
    if (edges[i].id.substr(0,4)=='edge') {
      edges[i].setAttribute('class','edge');
    }
  }
}
]]></script>
        <defs>
                <circle id="rim" cx="0" cy="0" r="7"/>
                <circle id="rim2" cx="0" cy="0" r="3.5"/>
                <g id="zoomPlus">
                        <use xlink:href="#rim" fill="#404040">
                                <set attributeName="fill" to="#808080" begin="zoomplus.mouseover" end="zoomplus.mouseout"/>
                        </use>
                        <path d="M-4,0h8M0,-4v8" fill="none" stroke="white" stroke-width="1.5" pointer-events="none"/>
                </g>
                <g id="zoomMin">
                        <use xlink:href="#rim" fill="#404040">
                                <set attributeName="fill" to="#808080" begin="zoomminus.mouseover" end="zoomminus.mouseout"/>
                        </use>
                        <path d="M-4,0h8" fill="none" stroke="white" stroke-width="1.5" pointer-events="none"/>
                </g>
                <g id="dirArrow">
                        <path fill="none" stroke="white" stroke-width="1.5" d="M0,-3.0v7 M-2.5,-0.5L0,-3.0L2.5,-0.5"/>
                </g>
               <g id="resetDef">
                       <use xlink:href="#rim2" fill="#404040">
                               <set attributeName="fill" to="#808080" begin="reset.mouseover" end="reset.mouseout"/>
                       </use>
               </g>
        </defs>

<script type="text/javascript">
var viewWidth = 741;
var viewHeight = 367;
var sectionId = 'dynsection-1';
</script>
<script xlink:href="svgpan.js"/>
<svg id="graph" class="graph">
<g id="viewport">
<title>include/vmath.h</title>
<!-- Node2 -->
<g id="node1" class="node">
<title>Node2</title>
<polygon fill="#bfbfbf" stroke="#000000" points="575.6528,-340.5 575.6528,-358.5 661.6919,-358.5 661.6919,-340.5 575.6528,-340.5"/>
<text text-anchor="middle" x="618.6724" y="-346.5" font-family="Helvetica,sans-Serif" font-size="10.00" fill="#000000">include/vmath.h</text>
</g>
<!-- Node3 -->
<g id="node2" class="node">
<title>Node3</title>
<g id="a_node2"><a xlink:href="controller_8h.html" target="_top" xlink:title="controller definitions, macros ">
<polygon fill="none" stroke="#000000" points="333.978,-285.5 333.978,-303.5 433.3667,-303.5 433.3667,-285.5 333.978,-285.5"/>
<text text-anchor="middle" x="383.6724" y="-291.5" font-family="Helvetica,sans-Serif" font-size="10.00" fill="#000000">include/controller.h</text>
</a>
</g>
</g>
<!-- Node2&#45;&gt;Node3 -->
<g id="edge1" class="edge">
<title>Node2&#45;&gt;Node3</title>
<path fill="none" stroke="#191970" d="M570.2701,-338.1718C526.4397,-327.9136 462.7127,-312.9988 422.2357,-303.5255"/>
<polygon fill="#191970" stroke="#191970" points="569.5955,-341.6084 580.13,-340.4795 571.1908,-334.7926 569.5955,-341.6084"/>
</g>
<!-- Node10 -->
<g id="node9" class="node">
<title>Node10</title>
<g id="a_node9"><a xlink:href="opcontrol_8c.html" target="_top" xlink:title="File for operator control code. ">
<polygon fill="none" stroke="#000000" points="250.1602,-55.5 250.1602,-73.5 331.1846,-73.5 331.1846,-55.5 250.1602,-55.5"/>
<text text-anchor="middle" x="290.6724" y="-61.5" font-family="Helvetica,sans-Serif" font-size="10.00" fill="#000000">src/opcontrol.c</text>
</a>
</g>
</g>
<!-- Node2&#45;&gt;Node10 -->
<g id="edge26" class="edge">
<title>Node2&#45;&gt;Node10</title>
<path fill="none" stroke="#191970" d="M623.7344,-330.6506C629.3629,-307.9998 637.6724,-268.7588 637.6724,-234.5 637.6724,-234.5 637.6724,-234.5 637.6724,-174.5 637.6724,-144.6154 641.3146,-129.5043 618.6724,-110 597.2203,-91.5209 414.5498,-74.5382 331.4896,-67.6917"/>
<polygon fill="#191970" stroke="#191970" points="620.343,-329.7857 621.2348,-340.3429 627.1212,-331.5338 620.343,-329.7857"/>
</g>
<!-- Node11 -->
<g id="node10" class="node">
<title>Node11</title>
<g id="a_node10"><a xlink:href="drive_8c.html" target="_top" xlink:title="src/drive.c">
<polygon fill="none" stroke="#000000" points="547.8916,-110.5 547.8916,-128.5 609.4531,-128.5 609.4531,-110.5 547.8916,-110.5"/>
<text text-anchor="middle" x="578.6724" y="-116.5" font-family="Helvetica,sans-Serif" font-size="10.00" fill="#000000">src/drive.c</text>
</a>
</g>
</g>
<!-- Node2&#45;&gt;Node11 -->
<g id="edge25" class="edge">
<title>Node2&#45;&gt;Node11</title>
<path fill="none" stroke="#191970" d="M615.3543,-330.4209C607.1652,-283.3336 586.2262,-162.9344 580.273,-128.7039"/>
<polygon fill="#191970" stroke="#191970" points="611.9426,-331.2313 617.1043,-340.4837 618.8391,-330.0319 611.9426,-331.2313"/>
</g>
<!-- Node18 -->
<g id="node17" class="node">
<title>Node18</title>
<g id="a_node17"><a xlink:href="vmath_8c.html" target="_top" xlink:title="src/vmath.c">
<polygon fill="none" stroke="#000000" points="666.1133,-285.5 666.1133,-303.5 733.2314,-303.5 733.2314,-285.5 666.1133,-285.5"/>
<text text-anchor="middle" x="699.6724" y="-291.5" font-family="Helvetica,sans-Serif" font-size="10.00" fill="#000000">src/vmath.c</text>
</a>
</g>
</g>
<!-- Node2&#45;&gt;Node18 -->
<g id="edge27" class="edge">
<title>Node2&#45;&gt;Node18</title>
<path fill="none" stroke="#191970" d="M640.5081,-334.6733C655.1049,-324.7619 673.8418,-312.0393 686.277,-303.5956"/>
<polygon fill="#191970" stroke="#191970" points="638.3548,-331.9047 632.0479,-340.4179 642.2871,-337.6959 638.3548,-331.9047"/>
</g>
<!-- Node4 -->
<g id="node3" class="node">
<title>Node4</title>
<g id="a_node3"><a xlink:href="partner_8h.html" target="_top" xlink:title="include/partner.h">
<polygon fill="none" stroke="#000000" points="223.6997,-225.5 223.6997,-243.5 313.645,-243.5 313.645,-225.5 223.6997,-225.5"/>
<text text-anchor="middle" x="268.6724" y="-231.5" font-family="Helvetica,sans-Serif" font-size="10.00" fill="#000000">include/partner.h</text>
</a>
</g>
</g>
<!-- Node3&#45;&gt;Node4 -->
<g id="edge2" class="edge">
<title>Node3&#45;&gt;Node4</title>
<path fill="none" stroke="#191970" d="M357.1084,-280.6405C335.2064,-269.2134 304.7775,-253.3374 285.926,-243.5019"/>
<polygon fill="#191970" stroke="#191970" points="355.7215,-283.8646 366.2063,-285.3873 358.9595,-277.6585 355.7215,-283.8646"/>
</g>
<!-- Node8 -->
<g id="node7" class="node">
<title>Node8</title>
<g id="a_node7"><a xlink:href="lifter_8h.html" target="_top" xlink:title="include/lifter.h">
<polygon fill="none" stroke="#000000" points="117.0962,-110.5 117.0962,-128.5 194.2485,-128.5 194.2485,-110.5 117.0962,-110.5"/>
<text text-anchor="middle" x="155.6724" y="-116.5" font-family="Helvetica,sans-Serif" font-size="10.00" fill="#000000">include/lifter.h</text>
</a>
</g>
</g>
<!-- Node3&#45;&gt;Node8 -->
<g id="edge15" class="edge">
<title>Node3&#45;&gt;Node8</title>
<path fill="none" stroke="#191970" d="M323.4645,-286.9626C289.5828,-280.671 247.6023,-269.3085 214.6724,-249 181.7177,-228.6763 170.7464,-220.0692 156.6724,-184 149.426,-165.429 151.7732,-141.5002 153.8762,-128.6426"/>
<polygon fill="#191970" stroke="#191970" points="323.2464,-290.4776 333.7005,-288.7566 324.4549,-283.5827 323.2464,-290.4776"/>
</g>
<!-- Node3&#45;&gt;Node11 -->
<g id="edge24" class="edge">
<title>Node3&#45;&gt;Node11</title>
<path fill="none" stroke="#191970" d="M443.6965,-283.6445C482.5984,-275.4537 528.5619,-263.2177 542.6724,-249 576.3701,-215.0462 579.1838,-152.4296 578.9675,-128.8283"/>
<polygon fill="#191970" stroke="#191970" points="442.5578,-280.3051 433.4643,-285.7419 443.9635,-287.1625 442.5578,-280.3051"/>
</g>
<!-- Node14 -->
<g id="node13" class="node">
<title>Node14</title>
<g id="a_node13"><a xlink:href="claw_8h.html" target="_top" xlink:title="include/claw.h">
<polygon fill="none" stroke="#000000" points="20.5396,-110.5 20.5396,-128.5 98.8052,-128.5 98.8052,-110.5 20.5396,-110.5"/>
<text text-anchor="middle" x="59.6724" y="-116.5" font-family="Helvetica,sans-Serif" font-size="10.00" fill="#000000">include/claw.h</text>
</a>
</g>
</g>
<!-- Node3&#45;&gt;Node14 -->
<g id="edge16" class="edge">
<title>Node3&#45;&gt;Node14</title>
<path fill="none" stroke="#191970" d="M324.0088,-285.8345C271.2063,-277.4018 198.7524,-263.7342 173.6724,-249 120.471,-217.7449 79.0731,-152.9369 64.9315,-128.8135"/>
<polygon fill="#191970" stroke="#191970" points="323.5329,-289.3026 333.9552,-287.3986 324.6204,-282.3876 323.5329,-289.3026"/>
</g>
<!-- Node16 -->
<g id="node15" class="node">
<title>Node16</title>
<g id="a_node15"><a xlink:href="mobile__goal__intake_8h.html" target="_top" xlink:title="include/mobile_goal\l_intake.h">
<polygon fill="none" stroke="#000000" points="331.4756,-220.5 331.4756,-248.5 435.8691,-248.5 435.8691,-220.5 331.4756,-220.5"/>
<text text-anchor="start" x="339.4756" y="-236.5" font-family="Helvetica,sans-Serif" font-size="10.00" fill="#000000">include/mobile_goal</text>
<text text-anchor="middle" x="383.6724" y="-226.5" font-family="Helvetica,sans-Serif" font-size="10.00" fill="#000000">_intake.h</text>
</a>
</g>
</g>
<!-- Node3&#45;&gt;Node16 -->
<g id="edge20" class="edge">
<title>Node3&#45;&gt;Node16</title>
<path fill="none" stroke="#191970" d="M383.6724,-275.1865C383.6724,-266.6283 383.6724,-256.7354 383.6724,-248.8477"/>
<polygon fill="#191970" stroke="#191970" points="380.1725,-275.3873 383.6724,-285.3873 387.1725,-275.3873 380.1725,-275.3873"/>
</g>
<!-- Node17 -->
<g id="node16" class="node">
<title>Node17</title>
<g id="a_node16"><a xlink:href="controller_8c.html" target="_top" xlink:title="src/controller.c">
<polygon fill="none" stroke="#000000" points="453.4385,-225.5 453.4385,-243.5 533.9063,-243.5 533.9063,-225.5 453.4385,-225.5"/>
<text text-anchor="middle" x="493.6724" y="-231.5" font-family="Helvetica,sans-Serif" font-size="10.00" fill="#000000">src/controller.c</text>
</a>
</g>
</g>
<!-- Node3&#45;&gt;Node17 -->
<g id="edge23" class="edge">
<title>Node3&#45;&gt;Node17</title>
<path fill="none" stroke="#191970" d="M409.3637,-280.4865C430.2919,-269.0712 459.2179,-253.2933 477.1689,-243.5019"/>
<polygon fill="#191970" stroke="#191970" points="407.482,-277.5261 400.379,-285.3873 410.834,-283.6714 407.482,-277.5261"/>
</g>
<!-- Node5 -->
<g id="node4" class="node">
<title>Node5</title>
<g id="a_node4"><a xlink:href="drive_8h.html" target="_top" xlink:title="Drive base definitions and enumerations. ">
<polygon fill="none" stroke="#000000" points="177.4312,-165.5 177.4312,-183.5 257.9136,-183.5 257.9136,-165.5 177.4312,-165.5"/>
<text text-anchor="middle" x="217.6724" y="-171.5" font-family="Helvetica,sans-Serif" font-size="10.00" fill="#000000">include/drive.h</text>
</a>
</g>
</g>
<!-- Node4&#45;&gt;Node5 -->
<g id="edge3" class="edge">
<title>Node4&#45;&gt;Node5</title>
<path fill="none" stroke="#191970" d="M254.3739,-217.6783C245.02,-206.6737 233.1564,-192.7165 225.4911,-183.6985"/>
<polygon fill="#191970" stroke="#191970" points="251.7832,-220.0347 260.9266,-225.3873 257.1168,-215.5011 251.7832,-220.0347"/>
</g>
<!-- Node4&#45;&gt;Node8 -->
<g id="edge12" class="edge">
<title>Node4&#45;&gt;Node8</title>
<path fill="none" stroke="#191970" d="M224.3755,-221.9877C204.4879,-214.1794 182.4475,-202.082 168.6724,-184 156.2121,-167.644 154.8471,-142.4008 155.1348,-128.8542"/>
<polygon fill="#191970" stroke="#191970" points="223.3262,-225.3307 233.92,-225.4838 225.7339,-218.7578 223.3262,-225.3307"/>
</g>
<!-- Node12 -->
<g id="node11" class="node">
<title>Node12</title>
<g id="a_node11"><a xlink:href="mobile__goal__intake_8c.html" target="_top" xlink:title="src/mobile_goal_intake.c">
<polygon fill="none" stroke="#000000" points="365.6431,-165.5 365.6431,-183.5 491.7017,-183.5 491.7017,-165.5 365.6431,-165.5"/>
<text text-anchor="middle" x="428.6724" y="-171.5" font-family="Helvetica,sans-Serif" font-size="10.00" fill="#000000">src/mobile_goal_intake.c</text>
</a>
</g>
</g>
<!-- Node4&#45;&gt;Node12 -->
<g id="edge13" class="edge">
<title>Node4&#45;&gt;Node12</title>
<path fill="none" stroke="#191970" d="M302.3985,-221.8527C333.0449,-210.3603 377.4983,-193.6903 404.6674,-183.5019"/>
<polygon fill="#191970" stroke="#191970" points="301.1073,-218.5988 292.9729,-225.3873 303.5652,-225.1531 301.1073,-218.5988"/>
</g>
<!-- Node13 -->
<g id="node12" class="node">
<title>Node13</title>
<g id="a_node12"><a xlink:href="partner_8c.html" target="_top" xlink:title="src/partner.c">
<polygon fill="none" stroke="#000000" points="276.1602,-165.5 276.1602,-183.5 347.1846,-183.5 347.1846,-165.5 276.1602,-165.5"/>
<text text-anchor="middle" x="311.6724" y="-171.5" font-family="Helvetica,sans-Serif" font-size="10.00" fill="#000000">src/partner.c</text>
</a>
</g>
</g>
<!-- Node4&#45;&gt;Node13 -->
<g id="edge14" class="edge">
<title>Node4&#45;&gt;Node13</title>
<path fill="none" stroke="#191970" d="M281.1943,-217.0276C289.0055,-206.1282 298.7439,-192.5397 305.0801,-183.6985"/>
<polygon fill="#191970" stroke="#191970" points="278.1835,-215.2203 275.2031,-225.3873 283.8732,-219.2979 278.1835,-215.2203"/>
</g>
<!-- Node6 -->
<g id="node5" class="node">
<title>Node6</title>
<g id="a_node5"><a xlink:href="auto_8h.html" target="_top" xlink:title="include/auto.h">
<polygon fill="none" stroke="#000000" points="153.5371,-55.5 153.5371,-73.5 231.8076,-73.5 231.8076,-55.5 153.5371,-55.5"/>
<text text-anchor="middle" x="192.6724" y="-61.5" font-family="Helvetica,sans-Serif" font-size="10.00" fill="#000000">include/auto.h</text>
</a>
</g>
</g>
<!-- Node5&#45;&gt;Node6 -->
<g id="edge4" class="edge">
<title>Node5&#45;&gt;Node6</title>
<path fill="none" stroke="#191970" d="M213.6319,-155.3174C210.8967,-142.4753 207.1596,-125.2033 203.6724,-110 200.7653,-97.3261 197.1952,-82.7212 194.9264,-73.5497"/>
<polygon fill="#191970" stroke="#191970" points="210.2499,-156.2415 215.7462,-165.2991 217.098,-154.7909 210.2499,-156.2415"/>
</g>
<!-- Node5&#45;&gt;Node8 -->
<g id="edge6" class="edge">
<title>Node5&#45;&gt;Node8</title>
<path fill="none" stroke="#191970" d="M199.7309,-158.5841C188.8342,-148.9177 175.3035,-136.9147 166.1328,-128.7795"/>
<polygon fill="#191970" stroke="#191970" points="197.6309,-161.4 207.4343,-165.4179 202.2762,-156.1634 197.6309,-161.4"/>
</g>
<!-- Node5&#45;&gt;Node10 -->
<g id="edge11" class="edge">
<title>Node5&#45;&gt;Node10</title>
<path fill="none" stroke="#191970" d="M229.2118,-157.1118C244.9185,-133.4442 272.4612,-91.9414 284.6159,-73.6261"/>
<polygon fill="#191970" stroke="#191970" points="226.2596,-155.2307 223.6463,-165.4982 232.0921,-159.1014 226.2596,-155.2307"/>
</g>
<!-- Node5&#45;&gt;Node11 -->
<g id="edge10" class="edge">
<title>Node5&#45;&gt;Node11</title>
<path fill="none" stroke="#191970" d="M268.1482,-164.8097C376.5487,-146.5945 493.1076,-130.7366 547.5982,-123.5424"/>
<polygon fill="#191970" stroke="#191970" points="267.2982,-161.4037 258.0219,-166.5224 268.4655,-168.3057 267.2982,-161.4037"/>
</g>
<!-- Node7 -->
<g id="node6" class="node">
<title>Node7</title>
<g id="a_node6"><a xlink:href="auto_8c.html" target="_top" xlink:title="File for autonomous code. ">
<polygon fill="none" stroke="#000000" points="162.9976,-.5 162.9976,-18.5 222.3472,-18.5 222.3472,-.5 162.9976,-.5"/>
<text text-anchor="middle" x="192.6724" y="-6.5" font-family="Helvetica,sans-Serif" font-size="10.00" fill="#000000">src/auto.c</text>
</a>
</g>
</g>
<!-- Node6&#45;&gt;Node7 -->
<g id="edge5" class="edge">
<title>Node6&#45;&gt;Node7</title>
<path fill="none" stroke="#191970" d="M192.6724,-45.383C192.6724,-36.3738 192.6724,-26.0373 192.6724,-18.7795"/>
<polygon fill="#191970" stroke="#191970" points="189.1725,-45.4178 192.6724,-55.4179 196.1725,-45.4179 189.1725,-45.4178"/>
</g>
<!-- Node8&#45;&gt;Node6 -->
<g id="edge7" class="edge">
<title>Node8&#45;&gt;Node6</title>
<path fill="none" stroke="#191970" d="M167.5424,-101.8553C173.8232,-92.519 181.279,-81.4361 186.4298,-73.7795"/>
<polygon fill="#191970" stroke="#191970" points="164.4599,-100.167 161.7822,-110.4179 170.268,-104.0743 164.4599,-100.167"/>
</g>
<!-- Node9 -->
<g id="node8" class="node">
<title>Node9</title>
<g id="a_node8"><a xlink:href="lifter_8c.html" target="_top" xlink:title="src/lifter.c">
<polygon fill="none" stroke="#000000" points="77.5566,-55.5 77.5566,-73.5 135.7881,-73.5 135.7881,-55.5 77.5566,-55.5"/>
<text text-anchor="middle" x="106.6724" y="-61.5" font-family="Helvetica,sans-Serif" font-size="10.00" fill="#000000">src/lifter.c</text>
</a>
</g>
</g>
<!-- Node8&#45;&gt;Node9 -->
<g id="edge8" class="edge">
<title>Node8&#45;&gt;Node9</title>
<path fill="none" stroke="#191970" d="M140.7277,-102.7253C132.2548,-93.215 121.9741,-81.6754 114.9395,-73.7795"/>
<polygon fill="#191970" stroke="#191970" points="138.3156,-105.2795 147.581,-110.4179 143.5422,-100.623 138.3156,-105.2795"/>
</g>
<!-- Node8&#45;&gt;Node10 -->
<g id="edge9" class="edge">
<title>Node8&#45;&gt;Node10</title>
<path fill="none" stroke="#191970" d="M187.3408,-106.598C212.223,-96.4609 246.2527,-82.5969 268.3467,-73.5956"/>
<polygon fill="#191970" stroke="#191970" points="185.9052,-103.4035 177.9649,-110.4179 188.5464,-109.8862 185.9052,-103.4035"/>
</g>
<!-- Node14&#45;&gt;Node6 -->
<g id="edge17" class="edge">
<title>Node14&#45;&gt;Node6</title>
<path fill="none" stroke="#191970" d="M91.1976,-106.4633C115.6816,-96.3383 149.0071,-82.5571 170.6775,-73.5956"/>
<polygon fill="#191970" stroke="#191970" points="89.5381,-103.362 81.6346,-110.4179 92.2132,-109.8307 89.5381,-103.362"/>
</g>
<!-- Node14&#45;&gt;Node10 -->
<g id="edge19" class="edge">
<title>Node14&#45;&gt;Node10</title>
<path fill="none" stroke="#191970" d="M107.5231,-108.107C150.5987,-97.8509 213.0611,-82.9789 252.7654,-73.5255"/>
<polygon fill="#191970" stroke="#191970" points="106.476,-104.7584 97.5586,-110.4795 108.0974,-111.568 106.476,-104.7584"/>
</g>
<!-- Node15 -->
<g id="node14" class="node">
<title>Node15</title>
<g id="a_node14"><a xlink:href="claw_8c.html" target="_top" xlink:title="src/claw.c">
<polygon fill="none" stroke="#000000" points="0,-55.5 0,-73.5 59.3447,-73.5 59.3447,-55.5 0,-55.5"/>
<text text-anchor="middle" x="29.6724" y="-61.5" font-family="Helvetica,sans-Serif" font-size="10.00" fill="#000000">src/claw.c</text>
</a>
</g>
</g>
<!-- Node14&#45;&gt;Node15 -->
<g id="edge18" class="edge">
<title>Node14&#45;&gt;Node15</title>
<path fill="none" stroke="#191970" d="M49.8885,-101.563C44.8297,-92.2885 38.8667,-81.3564 34.7339,-73.7795"/>
<polygon fill="#191970" stroke="#191970" points="46.8573,-103.3149 54.7185,-110.4179 53.0025,-99.9629 46.8573,-103.3149"/>
</g>
<!-- Node16&#45;&gt;Node10 -->
<g id="edge22" class="edge">
<title>Node16&#45;&gt;Node10</title>
<path fill="none" stroke="#191970" d="M439.3193,-217.0583C465.7392,-207.5398 493.1756,-195.4011 500.6724,-184 505.3119,-176.9442 505.1738,-172.1446 500.6724,-165 463.5062,-106.0104 381.078,-80.887 331.2604,-70.7738"/>
<polygon fill="#191970" stroke="#191970" points="437.9498,-213.8295 429.6704,-220.4404 440.2653,-220.4355 437.9498,-213.8295"/>
</g>
<!-- Node16&#45;&gt;Node12 -->
<g id="edge21" class="edge">
<title>Node16&#45;&gt;Node12</title>
<path fill="none" stroke="#191970" d="M400.5311,-212.0217C407.935,-202.1498 416.2101,-191.1163 421.8592,-183.5842"/>
<polygon fill="#191970" stroke="#191970" points="397.5368,-210.1808 394.3367,-220.2808 403.1368,-214.3808 397.5368,-210.1808"/>
</g>
</g>
</svg>
        <g id="navigator" transform="translate(0 0)" fill="#404254">
                <rect fill="#f2f5e9" fill-opacity="0.5" stroke="#606060" stroke-width=".5" x="0" y="0" width="60" height="60"/>
                <use id="zoomplus" xlink:href="#zoomPlus" x="17" y="9" onmousedown="handleZoom(evt,'in')"/>
                <use id="zoomminus" xlink:href="#zoomMin" x="42" y="9" onmousedown="handleZoom(evt,'out')"/>
                <use id="reset" xlink:href="#resetDef" x="30" y="36" onmousedown="handleReset()"/>
                <g id="arrowUp" xlink:href="#dirArrow" transform="translate(30 24)" onmousedown="handlePan(0,-1)">
                  <use xlink:href="#rim" fill="#404040">
                        <set attributeName="fill" to="#808080" begin="arrowUp.mouseover" end="arrowUp.mouseout"/>
                  </use>
                  <path fill="none" stroke="white" stroke-width="1.5" d="M0,-3.0v7 M-2.5,-0.5L0,-3.0L2.5,-0.5"/>
                </g>
                <g id="arrowRight" xlink:href="#dirArrow" transform="rotate(90) translate(36 -43)" onmousedown="handlePan(1,0)">
                  <use xlink:href="#rim" fill="#404040">
                        <set attributeName="fill" to="#808080" begin="arrowRight.mouseover" end="arrowRight.mouseout"/>
                  </use>
                  <path fill="none" stroke="white" stroke-width="1.5" d="M0,-3.0v7 M-2.5,-0.5L0,-3.0L2.5,-0.5"/>
                </g>
                <g id="arrowDown" xlink:href="#dirArrow" transform="rotate(180) translate(-30 -48)" onmousedown="handlePan(0,1)">
                  <use xlink:href="#rim" fill="#404040">
                        <set attributeName="fill" to="#808080" begin="arrowDown.mouseover" end="arrowDown.mouseout"/>
                  </use>
                  <path fill="none" stroke="white" stroke-width="1.5" d="M0,-3.0v7 M-2.5,-0.5L0,-3.0L2.5,-0.5"/>
                </g>
                <g id="arrowLeft" xlink:href="#dirArrow" transform="rotate(270) translate(-36 17)" onmousedown="handlePan(-1,0)">
                  <use xlink:href="#rim" fill="#404040">
                        <set attributeName="fill" to="#808080" begin="arrowLeft.mouseover" end="arrowLeft.mouseout"/>
                  </use>
                  <path fill="none" stroke="white" stroke-width="1.5" d="M0,-3.0v7 M-2.5,-0.5L0,-3.0L2.5,-0.5"/>
                </g>
        </g>
        <svg viewBox="0 0 15 15" width="100%" height="30px" preserveAspectRatio="xMaxYMin meet">
         <g id="arrow_out" transform="scale(0.3 0.3)">
          <a xlink:href="vmath_8h__dep__incl_org.svg" target="_base">
           <rect id="button" ry="5" rx="5" y="6" x="6" height="38" width="38"
                fill="#f2f5e9" fill-opacity="0.5" stroke="#606060" stroke-width="1.0"/>
           <path id="arrow"
             d="M 11.500037,31.436501 C 11.940474,20.09759 22.043105,11.32322 32.158766,21.979434 L 37.068811,17.246167 C 37.068811,17.246167 37.088388,32 37.088388,32 L 22.160133,31.978069 C 22.160133,31.978069 26.997745,27.140456 26.997745,27.140456 C 18.528582,18.264221 13.291696,25.230495 11.500037,31.436501 z"
             style="fill:#404040;"/>
          </a>
         </g>
        </svg>
</svg>
