<?xml version="1.0" encoding="UTF-8" standalone="no"?>
<!DOCTYPE svg PUBLIC "-//W3C//DTD SVG 1.1//EN"
 "http://www.w3.org/Graphics/SVG/1.1/DTD/svg11.dtd">
<!-- Generated by graphviz version 2.40.1 (20161225.0304)
 -->
<!-- Title: min Pages: 1 -->
<svg width="319pt" height="101pt"
 viewBox="0.00 0.00 318.66 101.00" xmlns="http://www.w3.org/2000/svg" xmlns:xlink="http://www.w3.org/1999/xlink">
<g id="graph0" class="graph" transform="scale(1 1) rotate(0) translate(4 97)">
<title>min</title>
<!-- Node13 -->
<g id="node1" class="node">
<title>Node13</title>
<polygon fill="#bfbfbf" stroke="#000000" points="0,-37.5 0,-55.5 32.1133,-55.5 32.1133,-37.5 0,-37.5"/>
<text text-anchor="middle" x="16.0566" y="-43.5" font-family="Helvetica,sans-Serif" font-size="10.00" fill="#000000">min</text>
</g>
<!-- Node14 -->
<g id="node2" class="node">
<title>Node14</title>
<g id="a_node2"><a xlink:href="menu_8c.html#a0fb55c1213b23963d509b974d1254567" target="_top" xlink:title="calculate_current_display">
<polygon fill="none" stroke="#000000" points="68.1133,-74.5 68.1133,-92.5 196.9551,-92.5 196.9551,-74.5 68.1133,-74.5"/>
<text text-anchor="middle" x="132.5342" y="-80.5" font-family="Helvetica,sans-Serif" font-size="10.00" fill="#000000">calculate_current_display</text>
</a>
</g>
</g>
<!-- Node13&#45;&gt;Node14 -->
<g id="edge1" class="edge">
<title>Node13&#45;&gt;Node14</title>
<path fill="none" stroke="#191970" d="M41.9107,-56.3846C50.2297,-59.4444 59.5185,-62.7353 68.1133,-65.5 77.8414,-68.6292 88.4937,-71.7341 98.2853,-74.4615"/>
<polygon fill="#191970" stroke="#191970" points="42.9487,-53.0362 32.3561,-52.8177 40.5005,-59.5941 42.9487,-53.0362"/>
</g>
<!-- Node16 -->
<g id="node4" class="node">
<title>Node16</title>
<g id="a_node4"><a xlink:href="menu_8c.html#a5abb752733423805f59ef3b92e3c2e57" target="_top" xlink:title="Creates a menu context, but does not display. &#160;Menu must be freed or will cause memory leak! &#160;...">
<polygon fill="none" stroke="#000000" points="90.623,-37.5 90.623,-55.5 174.4453,-55.5 174.4453,-37.5 90.623,-37.5"/>
<text text-anchor="middle" x="132.5342" y="-43.5" font-family="Helvetica,sans-Serif" font-size="10.00" fill="#000000">init_menu_float</text>
</a>
</g>
</g>
<!-- Node13&#45;&gt;Node16 -->
<g id="edge3" class="edge">
<title>Node13&#45;&gt;Node16</title>
<path fill="none" stroke="#191970" d="M42.2906,-46.5C56.4716,-46.5 74.3247,-46.5 90.4008,-46.5"/>
<polygon fill="#191970" stroke="#191970" points="42.2524,-43.0001 32.2523,-46.5 42.2523,-50.0001 42.2524,-43.0001"/>
</g>
<!-- Node17 -->
<g id="node5" class="node">
<title>Node17</title>
<g id="a_node5"><a xlink:href="menu_8c.html#ac8efedba760ec35ebf841ab19543ba5a" target="_top" xlink:title="Creates a menu context, but does not display. &#160;Menu must be freed or will cause memory leak &#160;...">
<polygon fill="none" stroke="#000000" points="94.793,-.5 94.793,-18.5 170.2754,-18.5 170.2754,-.5 94.793,-.5"/>
<text text-anchor="middle" x="132.5342" y="-6.5" font-family="Helvetica,sans-Serif" font-size="10.00" fill="#000000">init_menu_int</text>
</a>
</g>
</g>
<!-- Node13&#45;&gt;Node17 -->
<g id="edge4" class="edge">
<title>Node13&#45;&gt;Node17</title>
<path fill="none" stroke="#191970" d="M41.9687,-37.2768C50.2908,-34.3853 59.5667,-31.2363 68.1133,-28.5 78.6632,-25.1222 90.2545,-21.6349 100.6615,-18.5845"/>
<polygon fill="#191970" stroke="#191970" points="40.6822,-34.0188 32.4038,-40.6308 42.9987,-40.6245 40.6822,-34.0188"/>
</g>
<!-- Node15 -->
<g id="node3" class="node">
<title>Node15</title>
<g id="a_node3"><a xlink:href="menu_8c.html#abfadedb104f89f672dd3045499975a71" target="_top" xlink:title="Displays a menu context, but does not display. &#160;Menu must be freed or will cause memory leak! &#160;Will e...">
<polygon fill="none" stroke="#000000" points="232.9551,-74.5 232.9551,-92.5 310.6592,-92.5 310.6592,-74.5 232.9551,-74.5"/>
<text text-anchor="middle" x="271.8071" y="-80.5" font-family="Helvetica,sans-Serif" font-size="10.00" fill="#000000">display_menu</text>
</a>
</g>
</g>
<!-- Node14&#45;&gt;Node15 -->
<g id="edge2" class="edge">
<title>Node14&#45;&gt;Node15</title>
<path fill="none" stroke="#191970" d="M207.4814,-83.5C216.1576,-83.5 224.7233,-83.5 232.6354,-83.5"/>
<polygon fill="#191970" stroke="#191970" points="207.278,-80.0001 197.2779,-83.5 207.2779,-87.0001 207.278,-80.0001"/>
</g>
</g>
</svg>
