<?xml version="1.0" encoding="UTF-8" standalone="no"?>
<!DOCTYPE svg PUBLIC "-//W3C//DTD SVG 1.1//EN"
 "http://www.w3.org/Graphics/SVG/1.1/DTD/svg11.dtd">
<!-- Generated by graphviz version 2.40.1 (20161225.0304)
 -->
<!-- Title: src/init.c Pages: 1 -->
<svg width="316pt" height="192pt"
 viewBox="0.00 0.00 316.24 192.00" xmlns="http://www.w3.org/2000/svg" xmlns:xlink="http://www.w3.org/1999/xlink">
<g id="graph0" class="graph" transform="scale(1 1) rotate(0) translate(4 188)">
<title>src/init.c</title>
<polygon fill="#ffffff" stroke="transparent" points="-4,4 -4,-188 312.2388,-188 312.2388,4 -4,4"/>
<!-- Node0 -->
<g id="node1" class="node">
<title>Node0</title>
<polygon fill="#bfbfbf" stroke="#000000" points="131.5073,-165.5 131.5073,-183.5 184.1772,-183.5 184.1772,-165.5 131.5073,-165.5"/>
<text text-anchor="middle" x="157.8423" y="-171.5" font-family="Helvetica,sans-Serif" font-size="10.00" fill="#000000">src/init.c</text>
</g>
<!-- Node1 -->
<g id="node2" class="node">
<title>Node1</title>
<g id="a_node2"><a xlink:href="main_8h.html" target="_top" xlink:title="Header file for global functions. ">
<polygon fill="#ffffff" stroke="#000000" points="53.835,-110.5 53.835,-128.5 99.8496,-128.5 99.8496,-110.5 53.835,-110.5"/>
<text text-anchor="middle" x="76.8423" y="-116.5" font-family="Helvetica,sans-Serif" font-size="10.00" fill="#000000">main.h</text>
</a>
</g>
</g>
<!-- Node0&#45;&gt;Node1 -->
<g id="edge1" class="edge">
<title>Node0&#45;&gt;Node1</title>
<path fill="none" stroke="#191970" d="M144.4668,-165.4179C132.0383,-156.9788 113.3026,-144.257 98.7013,-134.3426"/>
<polygon fill="#191970" stroke="#191970" points="100.4769,-131.3176 90.2377,-128.5956 96.5446,-137.1088 100.4769,-131.3176"/>
</g>
<!-- Node2 -->
<g id="node3" class="node">
<title>Node2</title>
<g id="a_node3"><a xlink:href="_a_p_i_8h.html" target="_top" xlink:title="Provides the high&#45;level user functionality intended for use by typical VEX Cortex programmers...">
<polygon fill="#ffffff" stroke="#000000" points="112.6133,-55.5 112.6133,-73.5 153.0713,-73.5 153.0713,-55.5 112.6133,-55.5"/>
<text text-anchor="middle" x="132.8423" y="-61.5" font-family="Helvetica,sans-Serif" font-size="10.00" fill="#000000">API.h</text>
</a>
</g>
</g>
<!-- Node0&#45;&gt;Node2 -->
<g id="edge7" class="edge">
<title>Node0&#45;&gt;Node2</title>
<path fill="none" stroke="#191970" d="M155.5882,-165.4503C153.3194,-156.2788 149.7493,-141.6739 146.8423,-129 143.3551,-113.7967 139.618,-96.5247 136.8828,-83.6826"/>
<polygon fill="#191970" stroke="#191970" points="140.2648,-82.7585 134.7684,-73.7009 133.4167,-84.2091 140.2648,-82.7585"/>
</g>
<!-- Node7 -->
<g id="node8" class="node">
<title>Node7</title>
<g id="a_node8"><a xlink:href="encoders_8h.html" target="_top" xlink:title="wrapper around encer functions ">
<polygon fill="#ffffff" stroke="#000000" points="156.1035,-110.5 156.1035,-128.5 221.5811,-128.5 221.5811,-110.5 156.1035,-110.5"/>
<text text-anchor="middle" x="188.8423" y="-116.5" font-family="Helvetica,sans-Serif" font-size="10.00" fill="#000000">encoders.h</text>
</a>
</g>
</g>
<!-- Node0&#45;&gt;Node7 -->
<g id="edge8" class="edge">
<title>Node0&#45;&gt;Node7</title>
<path fill="none" stroke="#191970" d="M162.9613,-165.4179C167.1988,-157.8998 173.3519,-146.9829 178.5955,-137.6799"/>
<polygon fill="#191970" stroke="#191970" points="181.7509,-139.2096 183.612,-128.7795 175.6528,-135.7724 181.7509,-139.2096"/>
</g>
<!-- Node8 -->
<g id="node9" class="node">
<title>Node8</title>
<g id="a_node9"><a xlink:href="lcd_8h.html" target="_top" xlink:title="LCD wrapper functions and macros. ">
<polygon fill="#ffffff" stroke="#000000" points="239.2808,-110.5 239.2808,-128.5 276.4038,-128.5 276.4038,-110.5 239.2808,-110.5"/>
<text text-anchor="middle" x="257.8423" y="-116.5" font-family="Helvetica,sans-Serif" font-size="10.00" fill="#000000">lcd.h</text>
</a>
</g>
</g>
<!-- Node0&#45;&gt;Node8 -->
<g id="edge10" class="edge">
<title>Node0&#45;&gt;Node8</title>
<path fill="none" stroke="#191970" d="M174.3553,-165.4179C190.1333,-156.7399 214.1451,-143.5334 232.3738,-133.5077"/>
<polygon fill="#191970" stroke="#191970" points="234.2293,-136.4816 241.3048,-128.5956 230.8559,-130.3481 234.2293,-136.4816"/>
</g>
<!-- Node1&#45;&gt;Node2 -->
<g id="edge2" class="edge">
<title>Node1&#45;&gt;Node2</title>
<path fill="none" stroke="#191970" d="M86.0895,-110.4179C94.2278,-102.425 106.2776,-90.5903 116.1057,-80.9377"/>
<polygon fill="#191970" stroke="#191970" points="118.7121,-83.2836 123.3941,-73.7795 113.8071,-78.2895 118.7121,-83.2836"/>
</g>
<!-- Node3 -->
<g id="node4" class="node">
<title>Node3</title>
<polygon fill="#ffffff" stroke="#bfbfbf" points="0,-.5 0,-18.5 47.6846,-18.5 47.6846,-.5 0,-.5"/>
<text text-anchor="middle" x="23.8423" y="-6.5" font-family="Helvetica,sans-Serif" font-size="10.00" fill="#000000">stdlib.h</text>
</g>
<!-- Node2&#45;&gt;Node3 -->
<g id="edge3" class="edge">
<title>Node2&#45;&gt;Node3</title>
<path fill="none" stroke="#191970" d="M114.8432,-55.4179C97.4873,-46.6603 70.9912,-33.2907 51.0577,-23.2326"/>
<polygon fill="#191970" stroke="#191970" points="52.3727,-19.9758 41.8682,-18.5956 49.2193,-26.2253 52.3727,-19.9758"/>
</g>
<!-- Node4 -->
<g id="node5" class="node">
<title>Node4</title>
<polygon fill="#ffffff" stroke="#bfbfbf" points="65.5493,-.5 65.5493,-18.5 122.1353,-18.5 122.1353,-.5 65.5493,-.5"/>
<text text-anchor="middle" x="93.8423" y="-6.5" font-family="Helvetica,sans-Serif" font-size="10.00" fill="#000000">stdbool.h</text>
</g>
<!-- Node2&#45;&gt;Node4 -->
<g id="edge4" class="edge">
<title>Node2&#45;&gt;Node4</title>
<path fill="none" stroke="#191970" d="M126.4022,-55.4179C120.959,-47.7415 113.0031,-36.5217 106.3184,-27.0945"/>
<polygon fill="#191970" stroke="#191970" points="109.0617,-24.9123 100.4223,-18.7795 103.3515,-28.9613 109.0617,-24.9123"/>
</g>
<!-- Node5 -->
<g id="node6" class="node">
<title>Node5</title>
<polygon fill="#ffffff" stroke="#bfbfbf" points="205.7759,-.5 205.7759,-18.5 257.9087,-18.5 257.9087,-.5 205.7759,-.5"/>
<text text-anchor="middle" x="231.8423" y="-6.5" font-family="Helvetica,sans-Serif" font-size="10.00" fill="#000000">stdarg.h</text>
</g>
<!-- Node2&#45;&gt;Node5 -->
<g id="edge5" class="edge">
<title>Node2&#45;&gt;Node5</title>
<path fill="none" stroke="#191970" d="M149.1901,-55.4179C164.8104,-46.7399 188.5821,-33.5334 206.6285,-23.5077"/>
<polygon fill="#191970" stroke="#191970" points="208.4283,-26.5117 215.4702,-18.5956 205.0288,-20.3925 208.4283,-26.5117"/>
</g>
<!-- Node6 -->
<g id="node7" class="node">
<title>Node6</title>
<polygon fill="#ffffff" stroke="#bfbfbf" points="139.7217,-.5 139.7217,-18.5 187.9629,-18.5 187.9629,-.5 139.7217,-.5"/>
<text text-anchor="middle" x="163.8423" y="-6.5" font-family="Helvetica,sans-Serif" font-size="10.00" fill="#000000">stdint.h</text>
</g>
<!-- Node2&#45;&gt;Node6 -->
<g id="edge6" class="edge">
<title>Node2&#45;&gt;Node6</title>
<path fill="none" stroke="#191970" d="M137.9613,-55.4179C142.1988,-47.8998 148.3519,-36.9829 153.5955,-27.6799"/>
<polygon fill="#191970" stroke="#191970" points="156.7509,-29.2096 158.612,-18.7795 150.6528,-25.7724 156.7509,-29.2096"/>
</g>
<!-- Node7&#45;&gt;Node2 -->
<g id="edge9" class="edge">
<title>Node7&#45;&gt;Node2</title>
<path fill="none" stroke="#191970" d="M179.595,-110.4179C171.4568,-102.425 159.407,-90.5903 149.5789,-80.9377"/>
<polygon fill="#191970" stroke="#191970" points="151.8775,-78.2895 142.2905,-73.7795 146.9725,-83.2836 151.8775,-78.2895"/>
</g>
<!-- Node8&#45;&gt;Node2 -->
<g id="edge11" class="edge">
<title>Node8&#45;&gt;Node2</title>
<path fill="none" stroke="#191970" d="M239.1285,-111.2659C218.8959,-102.3636 186.3606,-88.0481 162.6103,-77.5979"/>
<polygon fill="#191970" stroke="#191970" points="163.9117,-74.3468 153.349,-73.5229 161.0925,-80.754 163.9117,-74.3468"/>
</g>
<!-- Node8&#45;&gt;Node5 -->
<g id="edge13" class="edge">
<title>Node8&#45;&gt;Node5</title>
<path fill="none" stroke="#191970" d="M255.7146,-110.4982C251.5057,-92.6913 242.0349,-52.6225 236.369,-28.6515"/>
<polygon fill="#191970" stroke="#191970" points="239.7058,-27.5529 233.9994,-18.6261 232.8936,-29.1631 239.7058,-27.5529"/>
</g>
<!-- Node9 -->
<g id="node10" class="node">
<title>Node9</title>
<polygon fill="#ffffff" stroke="#bfbfbf" points="259.4458,-55.5 259.4458,-73.5 308.2388,-73.5 308.2388,-55.5 259.4458,-55.5"/>
<text text-anchor="middle" x="283.8423" y="-61.5" font-family="Helvetica,sans-Serif" font-size="10.00" fill="#000000">string.h</text>
</g>
<!-- Node8&#45;&gt;Node9 -->
<g id="edge12" class="edge">
<title>Node8&#45;&gt;Node9</title>
<path fill="none" stroke="#191970" d="M262.1357,-110.4179C265.6522,-102.9789 270.7419,-92.2123 275.109,-82.9742"/>
<polygon fill="#191970" stroke="#191970" points="278.346,-84.316 279.4556,-73.7795 272.0175,-81.3243 278.346,-84.316"/>
</g>
</g>
</svg>
