<?xml version="1.0" encoding="UTF-8" standalone="no"?>
<!DOCTYPE svg PUBLIC "-//W3C//DTD SVG 1.1//EN"
 "http://www.w3.org/Graphics/SVG/1.1/DTD/svg11.dtd">
<!-- Generated by graphviz version 2.40.1 (20161225.0304)
 -->
<!-- Title: include/menu.h Pages: 1 -->
<svg width="325pt" height="192pt"
 viewBox="0.00 0.00 325.46 192.00" xmlns="http://www.w3.org/2000/svg" xmlns:xlink="http://www.w3.org/1999/xlink">
<g id="graph0" class="graph" transform="scale(1 1) rotate(0) translate(4 188)">
<title>include/menu.h</title>
<polygon fill="#ffffff" stroke="transparent" points="-4,4 -4,-188 321.4629,-188 321.4629,4 -4,4"/>
<!-- Node0 -->
<g id="node1" class="node">
<title>Node0</title>
<polygon fill="#bfbfbf" stroke="#000000" points="148.9312,-165.5 148.9312,-183.5 232.7534,-183.5 232.7534,-165.5 148.9312,-165.5"/>
<text text-anchor="middle" x="190.8423" y="-171.5" font-family="Helvetica,sans-Serif" font-size="10.00" fill="#000000">include/menu.h</text>
</g>
<!-- Node1 -->
<g id="node2" class="node">
<title>Node1</title>
<polygon fill="#ffffff" stroke="#bfbfbf" points="205.7759,-.5 205.7759,-18.5 257.9087,-18.5 257.9087,-.5 205.7759,-.5"/>
<text text-anchor="middle" x="231.8423" y="-6.5" font-family="Helvetica,sans-Serif" font-size="10.00" fill="#000000">stdarg.h</text>
</g>
<!-- Node0&#45;&gt;Node1 -->
<g id="edge1" class="edge">
<title>Node0&#45;&gt;Node1</title>
<path fill="none" stroke="#191970" d="M193.1641,-165.1561C199.6758,-138.9504 218.2115,-64.3557 227.046,-28.8021"/>
<polygon fill="#191970" stroke="#191970" points="230.5311,-29.2903 229.5459,-18.7414 223.7376,-27.6022 230.5311,-29.2903"/>
</g>
<!-- Node2 -->
<g id="node3" class="node">
<title>Node2</title>
<g id="a_node3"><a xlink:href="_a_p_i_8h.html" target="_top" xlink:title="Provides the high&#45;level user functionality intended for use by typical VEX Cortex programmers...">
<polygon fill="#ffffff" stroke="#000000" points="122.6133,-55.5 122.6133,-73.5 163.0713,-73.5 163.0713,-55.5 122.6133,-55.5"/>
<text text-anchor="middle" x="142.8423" y="-61.5" font-family="Helvetica,sans-Serif" font-size="10.00" fill="#000000">API.h</text>
</a>
</g>
</g>
<!-- Node0&#45;&gt;Node2 -->
<g id="edge2" class="edge">
<title>Node0&#45;&gt;Node2</title>
<path fill="none" stroke="#191970" d="M186.9142,-165.4982C179.0736,-147.5302 161.3421,-106.8954 150.917,-83.0046"/>
<polygon fill="#191970" stroke="#191970" points="154.032,-81.3917 146.8246,-73.6261 147.6162,-84.1914 154.032,-81.3917"/>
</g>
<!-- Node6 -->
<g id="node7" class="node">
<title>Node6</title>
<g id="a_node7"><a xlink:href="vlib_8h.html" target="_top" xlink:title="Contains misc helpful functions. ">
<polygon fill="#ffffff" stroke="#000000" points="68.1699,-110.5 68.1699,-128.5 107.5146,-128.5 107.5146,-110.5 68.1699,-110.5"/>
<text text-anchor="middle" x="87.8423" y="-116.5" font-family="Helvetica,sans-Serif" font-size="10.00" fill="#000000">vlib.h</text>
</a>
</g>
</g>
<!-- Node0&#45;&gt;Node6 -->
<g id="edge7" class="edge">
<title>Node0&#45;&gt;Node6</title>
<path fill="none" stroke="#191970" d="M173.8339,-165.4179C157.508,-156.7001 132.6233,-143.4122 113.8169,-133.3699"/>
<polygon fill="#191970" stroke="#191970" points="115.3457,-130.2186 104.8759,-128.5956 112.0484,-136.3934 115.3457,-130.2186"/>
</g>
<!-- Node8 -->
<g id="node9" class="node">
<title>Node8</title>
<g id="a_node9"><a xlink:href="lcd_8h.html" target="_top" xlink:title="LCD wrapper functions and macros. ">
<polygon fill="#ffffff" stroke="#000000" points="219.2808,-110.5 219.2808,-128.5 256.4038,-128.5 256.4038,-110.5 219.2808,-110.5"/>
<text text-anchor="middle" x="237.8423" y="-116.5" font-family="Helvetica,sans-Serif" font-size="10.00" fill="#000000">lcd.h</text>
</a>
</g>
</g>
<!-- Node0&#45;&gt;Node8 -->
<g id="edge11" class="edge">
<title>Node0&#45;&gt;Node8</title>
<path fill="none" stroke="#191970" d="M198.6034,-165.4179C205.2984,-157.5833 215.1477,-146.0575 223.3033,-136.5137"/>
<polygon fill="#191970" stroke="#191970" points="226.0768,-138.6556 229.9126,-128.7795 220.7552,-134.108 226.0768,-138.6556"/>
</g>
<!-- Node10 -->
<g id="node11" class="node">
<title>Node10</title>
<polygon fill="#ffffff" stroke="#bfbfbf" points="274.2217,-110.5 274.2217,-128.5 317.4629,-128.5 317.4629,-110.5 274.2217,-110.5"/>
<text text-anchor="middle" x="295.8423" y="-116.5" font-family="Helvetica,sans-Serif" font-size="10.00" fill="#000000">float.h</text>
</g>
<!-- Node0&#45;&gt;Node10 -->
<g id="edge15" class="edge">
<title>Node0&#45;&gt;Node10</title>
<path fill="none" stroke="#191970" d="M208.1809,-165.4179C224.8239,-156.7001 250.1918,-143.4122 269.3634,-133.3699"/>
<polygon fill="#191970" stroke="#191970" points="271.2436,-136.3362 278.4779,-128.5956 267.9955,-130.1353 271.2436,-136.3362"/>
</g>
<!-- Node2&#45;&gt;Node1 -->
<g id="edge5" class="edge">
<title>Node2&#45;&gt;Node1</title>
<path fill="none" stroke="#191970" d="M157.5388,-55.4179C171.3237,-46.8992 192.17,-34.0166 208.2771,-24.0627"/>
<polygon fill="#191970" stroke="#191970" points="210.4571,-26.83 217.1239,-18.5956 206.7772,-20.8753 210.4571,-26.83"/>
</g>
<!-- Node3 -->
<g id="node4" class="node">
<title>Node3</title>
<polygon fill="#ffffff" stroke="#bfbfbf" points="0,-.5 0,-18.5 47.6846,-18.5 47.6846,-.5 0,-.5"/>
<text text-anchor="middle" x="23.8423" y="-6.5" font-family="Helvetica,sans-Serif" font-size="10.00" fill="#000000">stdlib.h</text>
</g>
<!-- Node2&#45;&gt;Node3 -->
<g id="edge3" class="edge">
<title>Node2&#45;&gt;Node3</title>
<path fill="none" stroke="#191970" d="M123.1919,-55.4179C103.9853,-46.5409 74.526,-32.9253 52.6683,-22.823"/>
<polygon fill="#191970" stroke="#191970" points="54.0677,-19.614 43.5219,-18.5956 51.1309,-25.9682 54.0677,-19.614"/>
</g>
<!-- Node4 -->
<g id="node5" class="node">
<title>Node4</title>
<polygon fill="#ffffff" stroke="#bfbfbf" points="65.5493,-.5 65.5493,-18.5 122.1353,-18.5 122.1353,-.5 65.5493,-.5"/>
<text text-anchor="middle" x="93.8423" y="-6.5" font-family="Helvetica,sans-Serif" font-size="10.00" fill="#000000">stdbool.h</text>
</g>
<!-- Node2&#45;&gt;Node4 -->
<g id="edge4" class="edge">
<title>Node2&#45;&gt;Node4</title>
<path fill="none" stroke="#191970" d="M134.7509,-55.4179C127.771,-47.5833 117.5026,-36.0575 108.9999,-26.5137"/>
<polygon fill="#191970" stroke="#191970" points="111.3748,-23.9178 102.1094,-18.7795 106.1482,-28.5743 111.3748,-23.9178"/>
</g>
<!-- Node5 -->
<g id="node6" class="node">
<title>Node5</title>
<polygon fill="#ffffff" stroke="#bfbfbf" points="139.7217,-.5 139.7217,-18.5 187.9629,-18.5 187.9629,-.5 139.7217,-.5"/>
<text text-anchor="middle" x="163.8423" y="-6.5" font-family="Helvetica,sans-Serif" font-size="10.00" fill="#000000">stdint.h</text>
</g>
<!-- Node2&#45;&gt;Node5 -->
<g id="edge6" class="edge">
<title>Node2&#45;&gt;Node5</title>
<path fill="none" stroke="#191970" d="M146.31,-55.4179C149.1201,-48.0581 153.1739,-37.441 156.6757,-28.2695"/>
<polygon fill="#191970" stroke="#191970" points="160.0019,-29.3701 160.2992,-18.7795 153.4624,-26.8732 160.0019,-29.3701"/>
</g>
<!-- Node6&#45;&gt;Node2 -->
<g id="edge10" class="edge">
<title>Node6&#45;&gt;Node2</title>
<path fill="none" stroke="#191970" d="M96.9244,-110.4179C104.9173,-102.425 116.7519,-90.5903 126.4045,-80.9377"/>
<polygon fill="#191970" stroke="#191970" points="128.9666,-83.3254 133.5628,-73.7795 124.0168,-78.3757 128.9666,-83.3254"/>
</g>
<!-- Node6&#45;&gt;Node3 -->
<g id="edge8" class="edge">
<title>Node6&#45;&gt;Node3</title>
<path fill="none" stroke="#191970" d="M78.4534,-110.4713C69.8349,-101.7767 57.1757,-87.9275 48.8423,-74 40.2673,-59.6686 33.6313,-41.8745 29.3582,-28.6086"/>
<polygon fill="#191970" stroke="#191970" points="32.6021,-27.2473 26.3337,-18.7057 25.9073,-29.292 32.6021,-27.2473"/>
</g>
<!-- Node7 -->
<g id="node8" class="node">
<title>Node7</title>
<polygon fill="#ffffff" stroke="#bfbfbf" points="57.5566,-55.5 57.5566,-73.5 104.1279,-73.5 104.1279,-55.5 57.5566,-55.5"/>
<text text-anchor="middle" x="80.8423" y="-61.5" font-family="Helvetica,sans-Serif" font-size="10.00" fill="#000000">math.h</text>
</g>
<!-- Node6&#45;&gt;Node7 -->
<g id="edge9" class="edge">
<title>Node6&#45;&gt;Node7</title>
<path fill="none" stroke="#191970" d="M86.6864,-110.4179C85.7698,-103.2164 84.4563,-92.8962 83.3067,-83.8632"/>
<polygon fill="#191970" stroke="#191970" points="86.7579,-83.2575 82.0233,-73.7795 79.8139,-84.1414 86.7579,-83.2575"/>
</g>
<!-- Node8&#45;&gt;Node1 -->
<g id="edge14" class="edge">
<title>Node8&#45;&gt;Node1</title>
<path fill="none" stroke="#191970" d="M237.3513,-110.4982C236.38,-92.6913 234.1944,-52.6225 232.8869,-28.6515"/>
<polygon fill="#191970" stroke="#191970" points="236.3796,-28.4206 232.3401,-18.6261 229.39,-28.802 236.3796,-28.4206"/>
</g>
<!-- Node8&#45;&gt;Node2 -->
<g id="edge12" class="edge">
<title>Node8&#45;&gt;Node2</title>
<path fill="none" stroke="#191970" d="M222.155,-110.4179C207.3033,-101.8195 184.7725,-88.7754 167.5154,-78.7844"/>
<polygon fill="#191970" stroke="#191970" points="168.9608,-75.577 158.5529,-73.5956 165.4535,-81.635 168.9608,-75.577"/>
</g>
<!-- Node9 -->
<g id="node10" class="node">
<title>Node9</title>
<polygon fill="#ffffff" stroke="#bfbfbf" points="259.4458,-55.5 259.4458,-73.5 308.2388,-73.5 308.2388,-55.5 259.4458,-55.5"/>
<text text-anchor="middle" x="283.8423" y="-61.5" font-family="Helvetica,sans-Serif" font-size="10.00" fill="#000000">string.h</text>
</g>
<!-- Node8&#45;&gt;Node9 -->
<g id="edge13" class="edge">
<title>Node8&#45;&gt;Node9</title>
<path fill="none" stroke="#191970" d="M245.4382,-110.4179C251.9908,-102.5833 261.6305,-91.0575 269.6127,-81.5137"/>
<polygon fill="#191970" stroke="#191970" points="272.3505,-83.6957 276.0813,-73.7795 266.9809,-79.2048 272.3505,-83.6957"/>
</g>
</g>
</svg>
