<?xml version="1.0" encoding="UTF-8" standalone="no"?>
<!DOCTYPE svg PUBLIC "-//W3C//DTD SVG 1.1//EN"
 "http://www.w3.org/Graphics/SVG/1.1/DTD/svg11.dtd">
<!-- Generated by graphviz version 2.40.1 (20161225.0304)
 -->
<!-- Title: include/ports.h Pages: 1 -->
<svg width="168pt" height="137pt"
 viewBox="0.00 0.00 168.29 137.00" xmlns="http://www.w3.org/2000/svg" xmlns:xlink="http://www.w3.org/1999/xlink">
<g id="graph0" class="graph" transform="scale(1 1) rotate(0) translate(4 133)">
<title>include/ports.h</title>
<polygon fill="#ffffff" stroke="transparent" points="-4,4 -4,-133 164.293,-133 164.293,4 -4,4"/>
<!-- Node1 -->
<g id="node1" class="node">
<title>Node1</title>
<polygon fill="#bfbfbf" stroke="#000000" points="34.2612,-110.5 34.2612,-128.5 115.3003,-128.5 115.3003,-110.5 34.2612,-110.5"/>
<text text-anchor="middle" x="74.7808" y="-116.5" font-family="Helvetica,sans-Serif" font-size="10.00" fill="#000000">include/ports.h</text>
</g>
<!-- Node2 -->
<g id="node2" class="node">
<title>Node2</title>
<g id="a_node2"><a xlink:href="drive_8h.html" target="_top" xlink:title="Drive base definitions and eumerations. ">
<polygon fill="#ffffff" stroke="#000000" points="34.5396,-55.5 34.5396,-73.5 115.022,-73.5 115.022,-55.5 34.5396,-55.5"/>
<text text-anchor="middle" x="74.7808" y="-61.5" font-family="Helvetica,sans-Serif" font-size="10.00" fill="#000000">include/drive.h</text>
</a>
</g>
</g>
<!-- Node1&#45;&gt;Node2 -->
<g id="edge1" class="edge">
<title>Node1&#45;&gt;Node2</title>
<path fill="none" stroke="#191970" d="M74.7808,-100.383C74.7808,-91.3738 74.7808,-81.0373 74.7808,-73.7795"/>
<polygon fill="#191970" stroke="#191970" points="71.2809,-100.4178 74.7808,-110.4179 78.2809,-100.4179 71.2809,-100.4178"/>
</g>
<!-- Node3 -->
<g id="node3" class="node">
<title>Node3</title>
<g id="a_node3"><a xlink:href="drive_8c.html" target="_top" xlink:title="src/drive.c">
<polygon fill="#ffffff" stroke="#000000" points="0,-.5 0,-18.5 61.5615,-18.5 61.5615,-.5 0,-.5"/>
<text text-anchor="middle" x="30.7808" y="-6.5" font-family="Helvetica,sans-Serif" font-size="10.00" fill="#000000">src/drive.c</text>
</a>
</g>
</g>
<!-- Node2&#45;&gt;Node3 -->
<g id="edge2" class="edge">
<title>Node2&#45;&gt;Node3</title>
<path fill="none" stroke="#191970" d="M61.13,-47.4365C53.5666,-37.9823 44.4573,-26.5956 38.2043,-18.7795"/>
<polygon fill="#191970" stroke="#191970" points="58.535,-49.7956 67.5151,-55.4179 64.0011,-45.4227 58.535,-49.7956"/>
</g>
<!-- Node4 -->
<g id="node4" class="node">
<title>Node4</title>
<g id="a_node4"><a xlink:href="opcontrol_8c.html" target="_top" xlink:title="File for operator control code. ">
<polygon fill="#ffffff" stroke="#000000" points="79.2686,-.5 79.2686,-18.5 160.293,-18.5 160.293,-.5 79.2686,-.5"/>
<text text-anchor="middle" x="119.7808" y="-6.5" font-family="Helvetica,sans-Serif" font-size="10.00" fill="#000000">src/opcontrol.c</text>
</a>
</g>
</g>
<!-- Node2&#45;&gt;Node4 -->
<g id="edge3" class="edge">
<title>Node2&#45;&gt;Node4</title>
<path fill="none" stroke="#191970" d="M88.7418,-47.4365C96.4771,-37.9823 105.7934,-26.5956 112.1885,-18.7795"/>
<polygon fill="#191970" stroke="#191970" points="85.8352,-45.4619 82.2116,-55.4179 91.2529,-49.8946 85.8352,-45.4619"/>
</g>
</g>
</svg>
