<?xml version="1.0" encoding="UTF-8" standalone="no"?>
<!DOCTYPE svg PUBLIC "-//W3C//DTD SVG 1.1//EN"
 "http://www.w3.org/Graphics/SVG/1.1/DTD/svg11.dtd">
<!-- Generated by graphviz version 2.40.1 (20161225.0304)
 -->
<!-- Title: reverse Pages: 1 -->
<svg width="473pt" height="46pt"
 viewBox="0.00 0.00 472.69 46.00" xmlns="http://www.w3.org/2000/svg" xmlns:xlink="http://www.w3.org/1999/xlink">
<g id="graph0" class="graph" transform="scale(1 1) rotate(0) translate(4 42)">
<title>reverse</title>
<polygon fill="#ffffff" stroke="transparent" points="-4,4 -4,-42 468.6934,-42 468.6934,4 -4,4"/>
<!-- Node13 -->
<g id="node1" class="node">
<title>Node13</title>
<polygon fill="#bfbfbf" stroke="#000000" points="0,-19.5 0,-37.5 49.3447,-37.5 49.3447,-19.5 0,-19.5"/>
<text text-anchor="middle" x="24.6724" y="-25.5" font-family="Helvetica,sans-Serif" font-size="10.00" fill="#000000">reverse</text>
</g>
<!-- Node14 -->
<g id="node2" class="node">
<title>Node14</title>
<g id="a_node2"><a xlink:href="vlib_8h.html#aa1986c48c027cf691df679c7a4968126" target="_top" xlink:title="converts a int to string. ">
<polygon fill="#ffffff" stroke="#000000" points="85.3447,-19.5 85.3447,-37.5 117.4678,-37.5 117.4678,-19.5 85.3447,-19.5"/>
<text text-anchor="middle" x="101.4063" y="-25.5" font-family="Helvetica,sans-Serif" font-size="10.00" fill="#000000">itoa</text>
</a>
</g>
</g>
<!-- Node13&#45;&gt;Node14 -->
<g id="edge1" class="edge">
<title>Node13&#45;&gt;Node14</title>
<path fill="none" stroke="#191970" d="M59.6296,-28.5C68.5632,-28.5 77.7453,-28.5 85.2179,-28.5"/>
<polygon fill="#191970" stroke="#191970" points="59.3739,-25.0001 49.3738,-28.5 59.3738,-32.0001 59.3739,-25.0001"/>
</g>
<!-- Node15 -->
<g id="node3" class="node">
<title>Node15</title>
<g id="a_node3"><a xlink:href="menu_8h.html#adf35a777d64d7aab8aa9f8e067fd2e9a" target="_top" xlink:title="calculate_current_display">
<polygon fill="#ffffff" stroke="#000000" points="222.1475,-19.5 222.1475,-37.5 350.9893,-37.5 350.9893,-19.5 222.1475,-19.5"/>
<text text-anchor="middle" x="286.5684" y="-25.5" font-family="Helvetica,sans-Serif" font-size="10.00" fill="#000000">calculate_current_display</text>
</a>
</g>
</g>
<!-- Node14&#45;&gt;Node15 -->
<g id="edge2" class="edge">
<title>Node14&#45;&gt;Node15</title>
<path fill="none" stroke="#191970" d="M127.7722,-28.5C152.2173,-28.5 189.5819,-28.5 221.9265,-28.5"/>
<polygon fill="#191970" stroke="#191970" points="127.5143,-25.0001 117.5143,-28.5 127.5142,-32.0001 127.5143,-25.0001"/>
</g>
<!-- Node17 -->
<g id="node5" class="node">
<title>Node17</title>
<g id="a_node5"><a xlink:href="vlib_8h.html#a94a81de3fb1a5f6148aee8582b9f9607" target="_top" xlink:title="converts a float to string. ">
<polygon fill="#ffffff" stroke="#000000" points="153.4678,-.5 153.4678,-18.5 186.1475,-18.5 186.1475,-.5 153.4678,-.5"/>
<text text-anchor="middle" x="169.8076" y="-6.5" font-family="Helvetica,sans-Serif" font-size="10.00" fill="#000000">ftoa</text>
</a>
</g>
</g>
<!-- Node14&#45;&gt;Node17 -->
<g id="edge4" class="edge">
<title>Node14&#45;&gt;Node17</title>
<path fill="none" stroke="#191970" d="M127.3234,-21.3009C136.0136,-18.8871 145.4629,-16.2623 153.2386,-14.1024"/>
<polygon fill="#191970" stroke="#191970" points="126.3149,-17.9485 117.6164,-23.9973 128.1884,-24.6931 126.3149,-17.9485"/>
</g>
<!-- Node16 -->
<g id="node4" class="node">
<title>Node16</title>
<g id="a_node4"><a xlink:href="menu_8h.html#aee3e9f838cdbb1745c68974490aabb99" target="_top" xlink:title="display_menu">
<polygon fill="#ffffff" stroke="#000000" points="386.9893,-19.5 386.9893,-37.5 464.6934,-37.5 464.6934,-19.5 386.9893,-19.5"/>
<text text-anchor="middle" x="425.8413" y="-25.5" font-family="Helvetica,sans-Serif" font-size="10.00" fill="#000000">display_menu</text>
</a>
</g>
</g>
<!-- Node15&#45;&gt;Node16 -->
<g id="edge3" class="edge">
<title>Node15&#45;&gt;Node16</title>
<path fill="none" stroke="#191970" d="M361.5155,-28.5C370.1918,-28.5 378.7575,-28.5 386.6696,-28.5"/>
<polygon fill="#191970" stroke="#191970" points="361.3121,-25.0001 351.3121,-28.5 361.3121,-32.0001 361.3121,-25.0001"/>
</g>
<!-- Node17&#45;&gt;Node15 -->
<g id="edge5" class="edge">
<title>Node17&#45;&gt;Node15</title>
<path fill="none" stroke="#191970" d="M196.5138,-13.8458C206.8277,-15.5241 219.0332,-17.5103 231.0745,-19.4697"/>
<polygon fill="#191970" stroke="#191970" points="196.9689,-10.3739 186.5366,-12.2222 195.8446,-17.283 196.9689,-10.3739"/>
</g>
</g>
</svg>
